<svg width="50" height="50" viewBox="0 0 50 50" fill="none" xmlns="http://www.w3.org/2000/svg">
<path d="M42.5731 18.4453L42.5732 18.4454C43.9353 19.8076 43.9369 22.0308 42.5726 23.403C42.5725 23.4031 42.5723 23.4033 42.5722 23.4034L21.122 44.8536L20.2685 45.7071H21.4756H31.2457C31.4774 45.7071 31.6667 45.8964 31.6667 46.1282C31.6667 46.3599 31.4774 46.5492 31.2457 46.5492H17.9807H12.8848C12.6531 46.5492 12.4637 46.3599 12.4637 46.1282C12.4637 45.8965 12.6531 45.7071 12.8848 45.7071H14.4859H15.693L14.8394 44.8536L3.27026 33.2844L1.54866 31.5628C0.885641 30.8998 0.524414 30.0201 0.524414 29.0843C0.524414 28.1406 0.8852 27.2687 1.54113 26.6047C1.54144 26.6044 1.54175 26.6041 1.54206 26.6038L23.6626 4.48323C24.3257 3.82021 25.2053 3.45898 26.1411 3.45898C27.085 3.45898 27.9562 3.81981 28.6196 4.48323L42.5731 18.4453ZM4.50856 32.6302L4.15501 32.9837L4.50856 33.3373L16.0949 44.9237C16.594 45.4228 17.2638 45.6985 17.9721 45.6985H17.9807C18.689 45.6985 19.3588 45.4228 19.8579 44.9237L41.9805 22.8011C43.0206 21.7609 43.018 20.0757 41.9719 19.0295L34.2849 11.3426L33.9314 10.989L33.5778 11.3426L12.3332 32.5871L12.3331 32.587L12.3247 32.5959C12.2596 32.6643 12.1563 32.7075 12.0412 32.7075C11.9337 32.7075 11.8309 32.6689 11.7492 32.5871C11.5829 32.4209 11.5829 32.1607 11.7492 31.9944L11.7492 31.9944L32.9938 10.7412L33.3472 10.3876L32.9937 10.0341L28.0269 5.06732C27.5263 4.56675 26.8473 4.29249 26.1411 4.29249C25.4253 4.29249 24.7552 4.56749 24.2553 5.06732L2.13275 27.1899C1.63292 27.6898 1.35792 28.3599 1.35792 29.0757C1.35792 29.7915 1.63292 30.4616 2.13275 30.9615L3.20875 32.0375L3.56231 32.391L3.91586 32.0375L25.1604 10.7929C25.3267 10.6266 25.5869 10.6266 25.7531 10.7929C25.9194 10.9592 25.9194 11.2193 25.7531 11.3856L4.50856 32.6302Z" fill="url(#paint0_linear)" stroke="url(#paint1_linear)"/>
<path d="M15.0618 37.6486L15.0617 37.6485L15.0533 37.6574C14.9882 37.7258 14.8848 37.7691 14.7698 37.7691C14.6623 37.7691 14.5594 37.7304 14.4777 37.6486C14.3115 37.4824 14.3115 37.2222 14.4777 37.0559L21.6999 29.8338C21.8661 29.6675 22.1263 29.6675 22.2926 29.8338C22.4581 29.9993 22.4582 30.2563 22.2881 30.4224L22.2881 30.4224L22.2839 30.4265L15.0618 37.6486Z" fill="url(#paint2_linear)" stroke="url(#paint3_linear)"/>
<path d="M20.0385 36.6944L20.0385 36.6944L20.0427 36.6901C20.1971 36.5319 20.4539 36.5257 20.6226 36.6944L20.9725 36.3445L20.6226 36.6944C20.7889 36.8607 20.7889 37.1208 20.6226 37.2871L17.6614 40.2483L17.6613 40.2482L17.6529 40.257C17.5878 40.3254 17.4844 40.3687 17.3694 40.3687C17.2619 40.3687 17.1591 40.33 17.0773 40.2483C16.9111 40.082 16.9111 39.8218 17.0773 39.6556L16.7265 39.3048L17.0773 39.6556L20.0385 36.6944Z" fill="url(#paint4_linear)" stroke="url(#paint5_linear)"/>
<path d="M22.3713 34.353L22.0385 34.0203L22.3713 34.353L22.7561 33.9682C22.9284 33.8019 23.1954 33.8147 23.3384 33.9613L23.3384 33.9613L23.3427 33.9657C23.509 34.1319 23.509 34.3921 23.3427 34.5584L22.9554 34.9457L22.9553 34.9456L22.9469 34.9545C22.8817 35.0229 22.7784 35.0661 22.6633 35.0661C22.5558 35.0661 22.453 35.0274 22.3713 34.9457C22.205 34.7795 22.205 34.5193 22.3713 34.353Z" fill="url(#paint6_linear)" stroke="url(#paint7_linear)"/>
<path d="M34.7141 17.4211L34.7147 17.4216L37.3051 20.0035C37.3052 20.0035 37.3052 20.0036 37.3053 20.0037C37.4714 20.1699 37.4713 20.43 37.3051 20.5962L33.4057 24.4956L33.4056 24.4955L33.3972 24.5043C33.332 24.5727 33.2287 24.616 33.1136 24.616C33.0062 24.616 32.9033 24.5773 32.8216 24.4956L32.468 24.8492L32.8216 24.4956L30.222 21.896C30.1446 21.8187 30.1016 21.7139 30.1016 21.6039C30.1016 21.4941 30.1445 21.3895 30.2217 21.3122C30.2218 21.3121 30.2219 21.312 30.222 21.3119L34.1292 17.4218L34.13 17.4211C34.2073 17.3437 34.3121 17.3007 34.4221 17.3007C34.532 17.3007 34.6368 17.3437 34.7141 17.4211ZM32.7601 23.2573L33.1136 23.6108L33.4672 23.2573L36.0668 20.6577L36.4204 20.3041L36.0668 19.9506L34.767 18.6508L34.4134 18.2972L34.0599 18.6508L31.4603 21.2504L31.1067 21.6039L31.4603 21.9575L32.7601 23.2573Z" fill="url(#paint8_linear)" stroke="url(#paint9_linear)"/>
<path d="M27.8878 9.25077L27.8877 9.25066L27.8793 9.25949C27.8142 9.3279 27.7108 9.37117 27.5958 9.37117C27.5032 9.37117 27.3918 9.33407 27.2872 9.24262C27.1289 9.07609 27.1315 8.82165 27.2951 8.65806L27.6825 8.2707C27.8487 8.10443 28.1089 8.10443 28.2752 8.2707C28.4415 8.43698 28.4415 8.69713 28.2752 8.86341L27.8878 9.25077Z" fill="url(#paint10_linear)" stroke="url(#paint11_linear)"/>
<path d="M9.80255 35.1179L9.80244 35.1177L9.79403 35.1266C9.72888 35.195 9.62556 35.2383 9.5105 35.2383C9.40302 35.2383 9.30016 35.1996 9.21846 35.1179C9.05218 34.9516 9.05218 34.6914 9.21846 34.5251L9.60329 34.1403C9.77302 33.9764 10.0351 33.983 10.1899 34.1378C10.3562 34.3041 10.3562 34.5642 10.1899 34.7305L9.80255 35.1179Z" fill="url(#paint12_linear)" stroke="url(#paint13_linear)"/>
<defs>
<linearGradient id="paint0_linear" x1="5.64636" y1="-11.003" x2="45.393" y2="-8.2094" gradientUnits="userSpaceOnUse">
<stop stop-color="#E19A9D"/>
<stop offset="0.525942" stop-color="#FFD1D8"/>
<stop offset="1" stop-color="#E19A9D"/>
</linearGradient>
<linearGradient id="paint1_linear" x1="5.64636" y1="-11.003" x2="45.393" y2="-8.2094" gradientUnits="userSpaceOnUse">
<stop stop-color="#E19A9D"/>
<stop offset="0.525942" stop-color="#FFD1D8"/>
<stop offset="1" stop-color="#E19A9D"/>
</linearGradient>
<linearGradient id="paint2_linear" x1="15.0092" y1="26.3401" x2="23.183" y2="26.9151" gradientUnits="userSpaceOnUse">
<stop stop-color="#E19A9D"/>
<stop offset="0.525942" stop-color="#FFD1D8"/>
<stop offset="1" stop-color="#E19A9D"/>
</linearGradient>
<linearGradient id="paint3_linear" x1="15.0092" y1="26.3401" x2="23.183" y2="26.9151" gradientUnits="userSpaceOnUse">
<stop stop-color="#E19A9D"/>
<stop offset="0.525942" stop-color="#FFD1D8"/>
<stop offset="1" stop-color="#E19A9D"/>
</linearGradient>
<linearGradient id="paint4_linear" x1="17.0643" y1="34.55" x2="21.3885" y2="34.8538" gradientUnits="userSpaceOnUse">
<stop stop-color="#E19A9D"/>
<stop offset="0.525942" stop-color="#FFD1D8"/>
<stop offset="1" stop-color="#E19A9D"/>
</linearGradient>
<linearGradient id="paint5_linear" x1="17.0643" y1="34.55" x2="21.3885" y2="34.8538" gradientUnits="userSpaceOnUse">
<stop stop-color="#E19A9D"/>
<stop offset="0.525942" stop-color="#FFD1D8"/>
<stop offset="1" stop-color="#E19A9D"/>
</linearGradient>
<linearGradient id="paint6_linear" x1="22.0299" y1="32.6448" x2="24.0328" y2="32.7858" gradientUnits="userSpaceOnUse">
<stop stop-color="#E19A9D"/>
<stop offset="0.525942" stop-color="#FFD1D8"/>
<stop offset="1" stop-color="#E19A9D"/>
</linearGradient>
<linearGradient id="paint7_linear" x1="22.0299" y1="32.6448" x2="24.0328" y2="32.7858" gradientUnits="userSpaceOnUse">
<stop stop-color="#E19A9D"/>
<stop offset="0.525942" stop-color="#FFD1D8"/>
<stop offset="1" stop-color="#E19A9D"/>
</linearGradient>
<linearGradient id="paint8_linear" x1="30.664" y1="14.1675" x2="38.1749" y2="14.6964" gradientUnits="userSpaceOnUse">
<stop stop-color="#E19A9D"/>
<stop offset="0.525942" stop-color="#FFD1D8"/>
<stop offset="1" stop-color="#E19A9D"/>
</linearGradient>
<linearGradient id="paint9_linear" x1="30.664" y1="14.1675" x2="38.1749" y2="14.6964" gradientUnits="userSpaceOnUse">
<stop stop-color="#E19A9D"/>
<stop offset="0.525942" stop-color="#FFD1D8"/>
<stop offset="1" stop-color="#E19A9D"/>
</linearGradient>
<linearGradient id="paint10_linear" x1="26.9548" y1="6.94136" x2="28.9655" y2="7.08301" gradientUnits="userSpaceOnUse">
<stop stop-color="#E19A9D"/>
<stop offset="0.525942" stop-color="#FFD1D8"/>
<stop offset="1" stop-color="#E19A9D"/>
</linearGradient>
<linearGradient id="paint11_linear" x1="26.9548" y1="6.94136" x2="28.9655" y2="7.08301" gradientUnits="userSpaceOnUse">
<stop stop-color="#E19A9D"/>
<stop offset="0.525942" stop-color="#FFD1D8"/>
<stop offset="1" stop-color="#E19A9D"/>
</linearGradient>
<linearGradient id="paint12_linear" x1="8.87706" y1="32.8169" x2="10.88" y2="32.9579" gradientUnits="userSpaceOnUse">
<stop stop-color="#E19A9D"/>
<stop offset="0.525942" stop-color="#FFD1D8"/>
<stop offset="1" stop-color="#E19A9D"/>
</linearGradient>
<linearGradient id="paint13_linear" x1="8.87706" y1="32.8169" x2="10.88" y2="32.9579" gradientUnits="userSpaceOnUse">
<stop stop-color="#E19A9D"/>
<stop offset="0.525942" stop-color="#FFD1D8"/>
<stop offset="1" stop-color="#E19A9D"/>
</linearGradient>
</defs>
</svg>
