<svg width="301" height="133" viewBox="0 0 301 133" fill="none" xmlns="http://www.w3.org/2000/svg">
<g clip-path="url(#clip0)">
<path d="M282.101 89.8833L200.661 119.616C194.66 121.807 188.194 118.732 185.965 112.628L166.861 60.3057C164.632 54.2015 167.596 47.6839 173.597 45.4931L255.036 15.7603C261.037 13.5694 267.503 16.6442 269.732 22.7485L288.836 75.0706C291.065 81.1749 288.101 87.6924 282.101 89.8833ZM175.189 49.8532C171.76 51.1051 169.874 55.2527 171.147 58.7408L190.251 111.063C191.525 114.551 195.64 116.508 199.069 115.256L280.509 85.5231C283.938 84.2712 285.824 80.1236 284.55 76.6355L265.446 24.3134C264.172 20.8252 260.057 18.8685 256.628 20.1204L175.189 49.8532Z" fill="url(#paint0_linear)"/>
<path d="M230.917 29.4728C229.632 29.9422 228.456 29.3833 227.979 28.0756L224.796 19.3576C224.318 18.0499 223.143 17.491 221.857 17.9604L200.428 25.7839C199.142 26.2533 198.603 27.4381 199.08 28.7458L202.264 37.4638C202.741 38.7715 202.202 39.9562 200.916 40.4257C199.631 40.8951 198.455 40.3362 197.978 39.0285L194.795 30.3105C193.521 26.8233 195.407 22.6767 198.836 21.4249L220.265 13.6014C223.694 12.3497 227.808 14.3057 229.081 17.7929L232.265 26.5109C232.742 27.8186 232.203 29.0034 230.917 29.4728Z" fill="url(#paint1_linear)"/>
<g opacity="0.2" filter="url(#filter0_d)">
<rect width="97.0287" height="2.03021" rx="0.5" transform="matrix(0.938009 -0.341944 0.34195 0.937951 175.217 64.2256)" fill="url(#paint2_linear)"/>
</g>
<g opacity="0.2" filter="url(#filter1_d)">
<rect width="97.0287" height="2.03021" rx="0.5" transform="matrix(0.938009 -0.341944 0.34195 0.937951 176.758 68.4558)" fill="url(#paint3_linear)"/>
</g>
<g opacity="0.2" filter="url(#filter2_d)">
<rect width="97.0287" height="2.03021" rx="0.5" transform="matrix(0.938009 -0.341944 0.34195 0.937951 188.397 101.85)" fill="url(#paint4_linear)"/>
</g>
<g opacity="0.2" filter="url(#filter3_d)">
<rect width="97.0288" height="2.03021" rx="0.5" transform="matrix(0.938009 -0.341944 0.34195 0.937951 189.939 106.08)" fill="url(#paint5_linear)"/>
</g>
</g>
<path d="M18.0469 82.1484L7.59766 61.6211V82.1484H3.59375V54.1406H7.96875L18.6328 75.2344L29.3164 54.1406H33.6719V82.1484H29.6875V61.6211L19.2383 82.1484H18.0469ZM64.9023 78.1445C64.9023 78.6914 64.7982 79.2122 64.5898 79.707C64.3815 80.1888 64.0951 80.612 63.7305 80.9766C63.3659 81.3411 62.9362 81.6276 62.4414 81.8359C61.9596 82.0443 61.4453 82.1484 60.8984 82.1484H44.9023C44.3555 82.1484 43.8346 82.0443 43.3398 81.8359C42.8581 81.6276 42.4349 81.3411 42.0703 80.9766C41.7057 80.612 41.4193 80.1888 41.2109 79.707C41.0026 79.2122 40.8984 78.6914 40.8984 78.1445V58.1445C40.8984 57.5977 41.0026 57.0833 41.2109 56.6016C41.4193 56.1068 41.7057 55.6836 42.0703 55.332C42.4349 54.9674 42.8581 54.681 43.3398 54.4727C43.8346 54.2513 44.3555 54.1406 44.9023 54.1406H60.8984C61.4453 54.1406 61.9596 54.2513 62.4414 54.4727C62.9362 54.681 63.3659 54.9674 63.7305 55.332C64.0951 55.6836 64.3815 56.1068 64.5898 56.6016C64.7982 57.0833 64.9023 57.5977 64.9023 58.1445V78.1445ZM44.9023 58.1445V78.1445H60.8984V58.1445H44.9023ZM76.1133 82.1484H72.1094V54.1406H76.1133L92.9492 75.8594V54.1406H96.9531V82.1484H92.9492L76.1133 60.4297V82.1484ZM104.141 54.1406H124.551V58.1445H108.145V66.1523H122.148V70.1562H108.145V78.1445H124.551V82.1484H104.141V54.1406ZM132.402 54.1406L140.547 67.2266L148.711 54.1406H153.359L142.559 71.0352V82.1484H138.555V71.0352L127.754 54.1406H132.402Z" fill="url(#paint6_linear)"/>
<path d="M185.195 65.1953V78.3008H195.117V74.7852H198.965V78.3008C198.965 78.8346 198.861 79.3359 198.652 79.8047C198.457 80.2734 198.184 80.6836 197.832 81.0352C197.493 81.3737 197.09 81.6471 196.621 81.8555C196.152 82.0508 195.651 82.1484 195.117 82.1484H185.195C184.674 82.1484 184.18 82.0508 183.711 81.8555C183.242 81.6471 182.832 81.3737 182.48 81.0352C182.142 80.6836 181.868 80.2734 181.66 79.8047C181.465 79.3359 181.367 78.8346 181.367 78.3008V65.1953C181.367 64.6615 181.465 64.1602 181.66 63.6914C181.868 63.2227 182.142 62.819 182.48 62.4805C182.832 62.1289 183.242 61.8555 183.711 61.6602C184.18 61.4518 184.674 61.3477 185.195 61.3477H195.117C195.651 61.3477 196.152 61.4518 196.621 61.6602C197.09 61.8555 197.493 62.1289 197.832 62.4805C198.184 62.819 198.457 63.2227 198.652 63.6914C198.861 64.1602 198.965 64.6615 198.965 65.1953V68.7109H195.117V65.1953H185.195ZM205.391 73.0664C205.391 72.5326 205.488 72.0378 205.684 71.582C205.892 71.1133 206.165 70.7031 206.504 70.3516C206.855 70 207.266 69.7266 207.734 69.5312C208.203 69.3229 208.698 69.2188 209.219 69.2188H219.141V65.1953H206.582V61.3477H219.141C219.674 61.3477 220.176 61.4518 220.645 61.6602C221.113 61.8555 221.517 62.1289 221.855 62.4805C222.207 62.819 222.48 63.2227 222.676 63.6914C222.884 64.1602 222.988 64.6615 222.988 65.1953V82.1484H219.141V78.6328C219.102 79.1146 218.971 79.5703 218.75 80C218.529 80.4297 218.242 80.8073 217.891 81.1328C217.552 81.4453 217.161 81.6927 216.719 81.875C216.276 82.0573 215.807 82.1484 215.312 82.1484H209.219C208.698 82.1484 208.203 82.0508 207.734 81.8555C207.266 81.6471 206.855 81.3737 206.504 81.0352C206.165 80.6836 205.892 80.2734 205.684 79.8047C205.488 79.3359 205.391 78.8346 205.391 78.3008V73.0664ZM209.219 78.3008H219.141V73.0664H209.219V78.3008ZM241.973 78.3008V73.4766H232.852C232.318 73.4766 231.816 73.3789 231.348 73.1836C230.879 72.9753 230.469 72.7018 230.117 72.3633C229.779 72.0117 229.505 71.6016 229.297 71.1328C229.102 70.6641 229.004 70.1628 229.004 69.6289V65.1953C229.004 64.6615 229.102 64.1602 229.297 63.6914C229.505 63.2227 229.779 62.819 230.117 62.4805C230.469 62.1289 230.879 61.8555 231.348 61.6602C231.816 61.4518 232.318 61.3477 232.852 61.3477H245.02V65.1953H232.852V69.6289H241.973C242.507 69.6289 243.001 69.7331 243.457 69.9414C243.926 70.1367 244.336 70.4102 244.688 70.7617C245.039 71.1003 245.312 71.5039 245.508 71.9727C245.716 72.4414 245.82 72.9427 245.82 73.4766V78.3008C245.82 78.8346 245.716 79.3359 245.508 79.8047C245.312 80.2734 245.039 80.6836 244.688 81.0352C244.336 81.3737 243.926 81.6471 243.457 81.8555C243.001 82.0508 242.507 82.1484 241.973 82.1484H229.004V78.3008H241.973ZM269.434 73.7109H255.664V78.3008H269.434V82.1484H255.664C255.143 82.1484 254.648 82.0508 254.18 81.8555C253.711 81.6471 253.301 81.3737 252.949 81.0352C252.611 80.6836 252.337 80.2734 252.129 79.8047C251.934 79.3359 251.836 78.8346 251.836 78.3008V65.1953C251.836 64.6615 251.934 64.1602 252.129 63.6914C252.337 63.2227 252.611 62.819 252.949 62.4805C253.301 62.1289 253.711 61.8555 254.18 61.6602C254.648 61.4518 255.143 61.3477 255.664 61.3477H265.586C266.12 61.3477 266.621 61.4518 267.09 61.6602C267.559 61.8555 267.962 62.1289 268.301 62.4805C268.652 62.819 268.926 63.2227 269.121 63.6914C269.329 64.1602 269.434 64.6615 269.434 65.1953V73.7109ZM255.664 65.1953V69.8633H265.586V65.1953H255.664Z" fill="white"/>
<defs>
<filter id="filter0_d" x="172.357" y="28.1877" width="95.4267" height="38.8013" filterUnits="userSpaceOnUse" color-interpolation-filters="sRGB">
<feFlood flood-opacity="0" result="BackgroundImageFix"/>
<feColorMatrix in="SourceAlpha" type="matrix" values="0 0 0 0 0 0 0 0 0 0 0 0 0 0 0 0 0 0 127 0"/>
<feOffset dx="-1" dy="-1"/>
<feGaussianBlur stdDeviation="1"/>
<feColorMatrix type="matrix" values="0 0 0 0 0.717647 0 0 0 0 0.431373 0 0 0 0 0.47451 0 0 0 0.2 0"/>
<feBlend mode="normal" in2="BackgroundImageFix" result="effect1_dropShadow"/>
<feBlend mode="normal" in="SourceGraphic" in2="effect1_dropShadow" result="shape"/>
</filter>
<filter id="filter1_d" x="173.898" y="32.418" width="95.4268" height="38.8013" filterUnits="userSpaceOnUse" color-interpolation-filters="sRGB">
<feFlood flood-opacity="0" result="BackgroundImageFix"/>
<feColorMatrix in="SourceAlpha" type="matrix" values="0 0 0 0 0 0 0 0 0 0 0 0 0 0 0 0 0 0 127 0"/>
<feOffset dx="-1" dy="-1"/>
<feGaussianBlur stdDeviation="1"/>
<feColorMatrix type="matrix" values="0 0 0 0 0.717647 0 0 0 0 0.431373 0 0 0 0 0.47451 0 0 0 0.2 0"/>
<feBlend mode="normal" in2="BackgroundImageFix" result="effect1_dropShadow"/>
<feBlend mode="normal" in="SourceGraphic" in2="effect1_dropShadow" result="shape"/>
</filter>
<filter id="filter2_d" x="185.538" y="65.8125" width="95.4267" height="38.8013" filterUnits="userSpaceOnUse" color-interpolation-filters="sRGB">
<feFlood flood-opacity="0" result="BackgroundImageFix"/>
<feColorMatrix in="SourceAlpha" type="matrix" values="0 0 0 0 0 0 0 0 0 0 0 0 0 0 0 0 0 0 127 0"/>
<feOffset dx="-1" dy="-1"/>
<feGaussianBlur stdDeviation="1"/>
<feColorMatrix type="matrix" values="0 0 0 0 0.717647 0 0 0 0 0.431373 0 0 0 0 0.47451 0 0 0 0.2 0"/>
<feBlend mode="normal" in2="BackgroundImageFix" result="effect1_dropShadow"/>
<feBlend mode="normal" in="SourceGraphic" in2="effect1_dropShadow" result="shape"/>
</filter>
<filter id="filter3_d" x="187.08" y="70.0425" width="95.4268" height="38.8013" filterUnits="userSpaceOnUse" color-interpolation-filters="sRGB">
<feFlood flood-opacity="0" result="BackgroundImageFix"/>
<feColorMatrix in="SourceAlpha" type="matrix" values="0 0 0 0 0 0 0 0 0 0 0 0 0 0 0 0 0 0 127 0"/>
<feOffset dx="-1" dy="-1"/>
<feGaussianBlur stdDeviation="1"/>
<feColorMatrix type="matrix" values="0 0 0 0 0.717647 0 0 0 0 0.431373 0 0 0 0 0.47451 0 0 0 0.2 0"/>
<feBlend mode="normal" in2="BackgroundImageFix" result="effect1_dropShadow"/>
<feBlend mode="normal" in="SourceGraphic" in2="effect1_dropShadow" result="shape"/>
</filter>
<linearGradient id="paint0_linear" x1="167.433" y1="21.1419" x2="263.079" y2="-3.567" gradientUnits="userSpaceOnUse">
<stop stop-color="#E19A9D"/>
<stop offset="0.525942" stop-color="#FFD1D8"/>
<stop offset="1" stop-color="#E19A9D"/>
</linearGradient>
<linearGradient id="paint1_linear" x1="194.765" y1="16.6537" x2="226.797" y2="9.73651" gradientUnits="userSpaceOnUse">
<stop stop-color="#E19A9D"/>
<stop offset="0.525942" stop-color="#FFD1D8"/>
<stop offset="1" stop-color="#E19A9D"/>
</linearGradient>
<linearGradient id="paint2_linear" x1="12.3776" y1="-0.642901" x2="19.5312" y2="23.397" gradientUnits="userSpaceOnUse">
<stop stop-color="#E19A9D"/>
<stop offset="0.525942" stop-color="#FFD1D8"/>
<stop offset="1" stop-color="#E19A9D"/>
</linearGradient>
<linearGradient id="paint3_linear" x1="12.3776" y1="-0.642901" x2="19.5312" y2="23.397" gradientUnits="userSpaceOnUse">
<stop stop-color="#E19A9D"/>
<stop offset="0.525942" stop-color="#FFD1D8"/>
<stop offset="1" stop-color="#E19A9D"/>
</linearGradient>
<linearGradient id="paint4_linear" x1="12.3776" y1="-0.642901" x2="19.5312" y2="23.397" gradientUnits="userSpaceOnUse">
<stop stop-color="#E19A9D"/>
<stop offset="0.525942" stop-color="#FFD1D8"/>
<stop offset="1" stop-color="#E19A9D"/>
</linearGradient>
<linearGradient id="paint5_linear" x1="12.3776" y1="-0.642901" x2="19.5312" y2="23.397" gradientUnits="userSpaceOnUse">
<stop stop-color="#E19A9D"/>
<stop offset="0.525942" stop-color="#FFD1D8"/>
<stop offset="1" stop-color="#E19A9D"/>
</linearGradient>
<linearGradient id="paint6_linear" x1="48.4148" y1="54.1484" x2="193.883" y2="135.304" gradientUnits="userSpaceOnUse">
<stop stop-color="#DCBA97"/>
<stop offset="0.541667" stop-color="#FCEBD9"/>
<stop offset="1" stop-color="#DCBA97"/>
</linearGradient>
<clipPath id="clip0">
<rect width="113.001" height="103.141" fill="white" transform="matrix(0.948781 -0.315935 0.369653 0.92917 155 36.4199)"/>
</clipPath>
</defs>
</svg>
