<svg width="94" height="94" viewBox="0 0 94 94" fill="none" xmlns="http://www.w3.org/2000/svg">
<rect width="94" height="94" rx="47" fill="white"/>
<path d="M65.7969 39.8672C65.7969 39.8516 65.7891 39.8438 65.7891 39.8281C65.5938 38.7969 65.2734 37.8125 64.8438 36.8828C64.8281 36.8438 64.8125 36.8125 64.7969 36.7812C64.3984 35.9375 63.8984 35.1484 63.3281 34.4297C63.3047 34.3906 63.2812 34.3594 63.25 34.3281C63.2422 34.3203 63.2422 34.3203 63.2344 34.3203C62.6719 33.625 62.0391 32.9922 61.3359 32.4297C61.3281 32.4219 61.3281 32.4219 61.3281 32.4141C61.2969 32.3828 61.2656 32.3594 61.2266 32.3359C60.5 31.7656 59.7109 31.2734 58.8672 30.8828C58.8359 30.8594 58.8047 30.8437 58.7656 30.8359C57.8359 30.4062 56.8438 30.0859 55.8047 29.8984C55.7891 29.8984 55.7812 29.8906 55.7656 29.8906C55.0547 29.7656 54.3203 29.6953 53.5781 29.6953C53.0078 29.6953 52.4375 29.7344 51.8828 29.8125C51.8828 29.8125 51.8828 29.8125 51.875 29.8125C46.625 30.5312 42.4141 34.5391 41.3828 39.6875C40.0391 39.9531 38.7344 40.4453 37.5469 41.1406C37.3047 41.2812 37.2266 41.5938 37.3672 41.8359C37.5078 42.0781 37.8203 42.1562 38.0625 42.0156C39.0469 41.4375 40.1094 41.0156 41.2188 40.7578C41.1719 41.2031 41.1406 41.6562 41.1406 42.1172C41.1406 42.8594 41.2031 43.5938 41.3359 44.3047C41.3359 44.3203 41.3438 44.3359 41.3438 44.3438C41.5312 45.3828 41.8516 46.375 42.2812 47.3047C42.2969 47.3359 42.3125 47.375 42.3281 47.4062C42.7266 48.25 43.2188 49.0391 43.7812 49.7656C43.8047 49.8047 43.8281 49.8359 43.8594 49.8672C43.8672 49.875 43.8672 49.875 43.875 49.875C44.4375 50.5703 45.0703 51.2109 45.7656 51.7734C45.7734 51.7812 45.7734 51.7812 45.7734 51.7891C45.8047 51.8203 45.8359 51.8437 45.875 51.8672C46.6016 52.4375 47.3906 52.9375 48.2266 53.3359C48.2578 53.3594 48.2969 53.375 48.3281 53.3828C49.25 53.8125 50.2422 54.1406 51.2734 54.3281C51.2891 54.3281 51.2969 54.3359 51.3125 54.3359C52.0469 54.4688 52.8047 54.5391 53.5703 54.5391C54.0312 54.5391 54.4844 54.5156 54.9297 54.4609C53.75 59.5078 49.2188 63.2734 43.8203 63.2734C37.5234 63.2891 32.4062 58.1719 32.4062 51.875C32.4062 48.7031 33.6797 45.7578 35.9844 43.5781C36.1875 43.3828 36.1953 43.0625 36.0078 42.8594C35.8125 42.6562 35.4922 42.6484 35.2891 42.8359C34.0703 43.9844 33.1094 45.3438 32.4375 46.8672C31.7422 48.4531 31.3906 50.1328 31.3906 51.875C31.3906 58.7266 36.9688 64.3047 43.8203 64.3047C49.8438 64.3047 54.875 60 56.0078 54.3125C61.1875 53.2812 65.2109 49.0234 65.8984 43.7266V43.7188C65.9688 43.1953 66 42.6641 66 42.125C66 41.3516 65.9297 40.5938 65.7969 39.8672ZM62.8281 35.4609C63.1641 35.9297 63.4688 36.4297 63.7344 36.9453L54.7344 45.9453C54.4531 45.4375 54.1406 44.9453 53.7969 44.4844L62.8281 35.4609ZM62.1953 34.6562L53.1641 43.6875C52.7891 43.2656 52.3906 42.8672 51.9609 42.4922L60.9922 33.4609C61.4219 33.8281 61.8281 34.2266 62.1953 34.6562ZM60.1875 32.8281L51.1641 41.8594C50.6953 41.5156 50.2109 41.2031 49.6953 40.9297L58.6953 31.9297C59.2188 32.1953 59.7188 32.4922 60.1875 32.8281ZM55.8516 30.9375C56.4922 31.0703 57.1094 31.25 57.7031 31.4844L48.7266 40.4609C48.1562 40.2109 47.5547 40.0078 46.9453 39.8516L55.8516 30.9375ZM52.1641 30.7969C52.625 30.7422 53.0938 30.7109 53.5703 30.7109C53.9141 30.7109 54.2578 30.7266 54.6016 30.7578L45.7578 39.6016C45.125 39.5 44.4766 39.4531 43.8203 39.4531C43.7188 39.4531 43.6172 39.4531 43.5078 39.4609L52.1641 30.7969ZM50.3516 31.1719L42.625 38.8984C43.7188 35.1953 46.6406 32.2656 50.3516 31.1719ZM42.2031 43.1484C42.1719 42.8125 42.1562 42.4688 42.1562 42.1172C42.1562 41.6406 42.1875 41.1719 42.2422 40.7109L42.4062 40.5469C42.875 40.4922 43.3438 40.4609 43.8125 40.4609C44.1562 40.4609 44.5 40.4766 44.8438 40.5078L42.2031 43.1484ZM42.3906 44.4062L46.1016 40.6953C46.7422 40.8281 47.3594 41.0078 47.9531 41.2422L42.9375 46.2578C42.7031 45.6641 42.5156 45.0391 42.3906 44.4062ZM44.2812 48.7422C43.9453 48.2734 43.6406 47.7734 43.3828 47.25L48.9531 41.6797C49.4766 41.9453 49.9766 42.2422 50.4453 42.5781L44.2812 48.7422ZM44.9141 49.5469L51.2422 43.2188C51.6719 43.5859 52.0703 43.9844 52.4453 44.4141L46.1016 50.75C45.6797 50.375 45.2812 49.9766 44.9141 49.5469ZM46.9062 51.3828L53.0781 45.2109C53.4141 45.6797 53.7188 46.1797 53.9844 46.6953L48.3906 52.2891C47.875 52.0234 47.375 51.7188 46.9062 51.3828ZM51.2188 53.2891C50.5859 53.1562 49.9688 52.9688 49.375 52.7344L54.4297 47.6797C54.6641 48.2734 54.8516 48.8828 54.9844 49.5234L51.2188 53.2891ZM55.1562 53.1875L54.8828 53.4609C54.4531 53.5078 54.0156 53.5391 53.5703 53.5391C53.1953 53.5391 52.8281 53.5234 52.4688 53.4844L55.1797 50.7734C55.2109 51.1328 55.2344 51.5078 55.2344 51.875C55.2344 52.3203 55.2031 52.7578 55.1562 53.1875ZM55.8281 48.6797C55.6641 48.0703 55.4609 47.4766 55.2109 46.9062L64.1875 37.9297C64.4219 38.5234 64.6094 39.1328 64.7422 39.7734L55.8281 48.6797ZM56.6719 53.1094L64.5547 45.2266C63.4766 49.0312 60.4766 52.0312 56.6719 53.1094ZM64.9062 43.4375L56.2422 52.1016C56.2422 52.0234 56.2422 51.9531 56.2422 51.875C56.2422 51.1875 56.1875 50.5234 56.0781 49.8672L64.9219 41.0234C64.9531 41.3828 64.9766 41.7578 64.9766 42.125C64.9844 42.5703 64.9609 43.0078 64.9062 43.4375Z" fill="url(#paint0_linear)"/>
<defs>
<linearGradient id="paint0_linear" x1="35.8056" y1="18.7357" x2="67.0189" y2="20.9304" gradientUnits="userSpaceOnUse">
<stop stop-color="#E19A9D"/>
<stop offset="0.525942" stop-color="#FFD1D8"/>
<stop offset="1" stop-color="#E19A9D"/>
</linearGradient>
</defs>
</svg>
