<svg width="94" height="94" viewBox="0 0 94 94" fill="none" xmlns="http://www.w3.org/2000/svg">
<rect width="94" height="94" rx="47" fill="white"/>
<g clip-path="url(#clip0)">
<path d="M47.5188 61.4C40.5485 61.2235 36.4534 58.4885 36.4099 58.4885L36.2356 58.3562L36.1485 58.1797C35.9306 57.6504 35.8 56.6799 35.8 55.4447C35.6257 52.7097 36.5841 50.901 38.5445 50.3717C40.6792 49.8423 42.4653 48.7836 43.1188 48.3425C43.2059 48.2984 43.3366 48.2542 43.4237 48.2542C43.6415 48.2542 43.8158 48.3425 43.9029 48.5189C44.0336 48.6954 44.0336 48.8718 44.0336 49.0483C43.9901 49.2247 43.9029 49.3571 43.7722 49.4453C43.0316 49.8864 41.1148 51.0334 38.8495 51.6068C37.2376 52.048 37.0198 53.9007 37.1504 55.3565V55.4447C37.1504 56.0623 37.194 56.9887 37.2811 57.4298V57.4739H37.3247C38.9802 58.4003 42.5089 59.9443 47.5623 60.0766C47.9108 60.0766 48.1722 60.3854 48.1722 60.6942C48.1287 61.0912 47.8673 61.4 47.5188 61.4ZM50.4811 61.0471C50.2633 61.0471 50.0455 60.8706 50.0455 60.606V53.0626C50.0455 52.842 50.2198 52.6215 50.4811 52.6215H52.0495V50.5481C52.0495 48.2542 53.8792 46.4015 56.1445 46.4015C56.2316 46.4015 56.3188 46.4015 56.4059 46.4015C58.5406 46.5338 60.2396 48.4307 60.2396 50.6805V52.6656H61.7643C61.9821 52.6656 62.2 52.842 62.2 53.1067V60.606C62.2 60.8265 62.0257 61.0471 61.7643 61.0471H50.4811ZM51.3089 59.7678H60.9366V53.9448H51.3089V59.7678ZM53.4 52.6215H59.0198V50.5481C59.0198 48.9601 57.7564 47.6808 56.1881 47.6808C54.6198 47.6808 53.3564 48.9601 53.3564 50.5481V50.6364H53.4V52.6215ZM48.1287 47.5484C46.3425 47.5043 44.9485 46.8867 43.9029 45.7398C41.5069 43.0048 41.9861 38.3288 41.9861 38.1523C42.2475 33.4763 45.3841 31.8 47.998 31.8C48.0851 31.8 48.1287 31.8 48.2158 31.8C48.3029 31.8 48.3465 31.8 48.4336 31.8C51.0039 31.8 54.097 33.4763 54.4019 38.1082C54.4455 38.5934 54.8376 43.093 52.5287 45.7398C51.4396 46.9308 50.0891 47.5043 48.3029 47.5484H48.1287ZM43.3366 38.1964C43.2059 38.5934 42.9881 42.696 44.8613 44.8575C45.6455 45.7839 46.7346 46.2691 48.1287 46.2691H48.2158C49.6099 46.2691 50.6554 45.828 51.4831 44.8575C53.3128 42.7842 53.095 38.9905 53.0514 38.2405V38.1964C52.8772 33.344 49.1742 33.0793 48.4336 33.0793C48.3465 33.0793 48.3029 33.0793 48.2594 33.0793H48.0415C46.9524 33.0793 43.5544 33.4322 43.3366 38.1964Z" fill="url(#paint0_linear)"/>
</g>
<defs>
<linearGradient id="paint0_linear" x1="39.1501" y1="22.4266" x2="63.0017" y2="23.9236" gradientUnits="userSpaceOnUse">
<stop stop-color="#E19A9D"/>
<stop offset="0.525942" stop-color="#FFD1D8"/>
<stop offset="1" stop-color="#E19A9D"/>
</linearGradient>
<clipPath id="clip0">
<rect width="26.4" height="29.6" fill="white" transform="translate(35.7998 31.8)"/>
</clipPath>
</defs>
</svg>
