<svg width="94" height="94" viewBox="0 0 94 94" fill="none" xmlns="http://www.w3.org/2000/svg">
<path d="M0 47C0 21.0426 21.0426 0 47 0C72.9574 0 94 21.0426 94 47C94 72.9574 72.9574 94 47 94C21.0426 94 0 72.9574 0 47Z" fill="white"/>
<g clip-path="url(#clip0)">
<path d="M66.5625 59.3048L58.3359 51.0782C58.0547 50.7969 57.6797 50.6407 57.2891 50.6407C57.0156 50.6407 56.75 50.7188 56.5234 50.8516L51.8984 46.2266C51.6641 45.9923 51.2813 45.9923 51.0391 46.2266C50.8047 46.461 50.8047 46.8438 51.0391 47.086L55.625 51.6719L53.9375 53.3594L45.5313 44.961L47.2188 43.2735L48.3438 44.3985C48.5781 44.6329 48.9609 44.6329 49.2031 44.3985C49.4375 44.1641 49.4375 43.7813 49.2031 43.5391L48.0781 42.4141L51.0078 39.4844L51.2422 39.7188C51.5313 40.0079 51.9141 40.1641 52.3203 40.1641C52.7266 40.1641 53.1094 40.0079 53.3984 39.7188L54.4766 38.6407C54.7656 38.3516 54.9219 37.9688 54.9219 37.5626C54.9219 37.1563 54.7656 36.7735 54.4766 36.4844L46.1875 28.1797C45.8984 27.8907 45.5156 27.7344 45.1094 27.7344C44.7031 27.7344 44.3203 27.8907 44.0313 28.1797L42.9531 29.2657C42.6641 29.5547 42.5078 29.9376 42.5078 30.3438C42.5078 30.7501 42.6641 31.1329 42.9531 31.4219L43.1875 31.6563L33.9141 40.9219L33.6797 40.6876C33.0859 40.0938 32.1172 40.0938 31.5234 40.6876L30.4453 41.7657C30.1562 42.0548 30 42.4376 30 42.8438C30 43.2501 30.1562 43.6329 30.4453 43.9219L38.7344 52.211C39.0234 52.5001 39.4063 52.6563 39.8125 52.6563C40.2188 52.6563 40.6016 52.5001 40.8906 52.211L41.9688 51.1329C42.5625 50.5391 42.5625 49.5704 41.9688 48.9766L41.7344 48.7423L44.6641 45.8126L53.1172 54.2657C52.9766 54.4923 52.9063 54.7579 52.9063 55.0313C52.9063 55.4298 53.0625 55.7969 53.3438 56.0782L61.5703 64.3048C61.8516 64.586 62.2266 64.7423 62.6172 64.7423C63.0156 64.7423 63.3828 64.586 63.6641 64.3048L66.5625 61.4063C66.8438 61.1251 67 60.7501 67 60.3594C67 59.9688 66.8438 59.586 66.5625 59.3048ZM43.8047 30.1172L44.8906 29.0391C44.9531 28.9766 45.0313 28.9454 45.1094 28.9454C45.1953 28.9454 45.2734 28.9766 45.3281 29.0391L53.6172 37.3282C53.6797 37.3907 53.7109 37.4688 53.7109 37.5469C53.7109 37.6251 53.6797 37.711 53.6172 37.7657L52.5391 38.8438C52.4219 38.961 52.2188 38.961 52.0938 38.8438L43.8047 30.5626C43.7422 30.5001 43.7109 30.4219 43.7109 30.3438C43.7188 30.2579 43.75 30.1797 43.8047 30.1172ZM41.1094 50.2813L40.0313 51.3594C39.9141 51.4766 39.7109 51.4766 39.5859 51.3594L31.2969 43.0704C31.2344 43.0079 31.2031 42.9298 31.2031 42.8516C31.2031 42.7735 31.2344 42.6876 31.2969 42.6329L32.375 41.5548C32.4375 41.4923 32.5156 41.461 32.5938 41.461C32.6719 41.461 32.75 41.4923 32.8125 41.5548L41.1016 49.8438C41.2344 49.961 41.2344 50.1563 41.1094 50.2813ZM44.2422 44.5313L40.8828 47.8907L34.7734 41.7813L44.0391 32.5079L50.1484 38.6172L46.7891 41.9766L44.2422 44.5313ZM65.7109 60.5469L62.8125 63.4454C62.7422 63.5157 62.6641 63.5235 62.625 63.5235C62.5859 63.5235 62.5 63.5157 62.4375 63.4454L54.1953 55.2188C54.125 55.1485 54.1172 55.0704 54.1172 55.0313C54.1172 54.9923 54.125 54.9063 54.1953 54.8438L54.375 54.6641L57.1016 51.9376C57.1719 51.8673 57.25 51.8594 57.2891 51.8594C57.3281 51.8594 57.4141 51.8673 57.4766 51.9376L65.7031 60.1641C65.7734 60.2344 65.7813 60.3126 65.7813 60.3516C65.7813 60.3907 65.7734 60.4766 65.7109 60.5469Z" fill="url(#paint0_linear)"/>
<path d="M50.0312 60.8907H49.1016V57.6954C49.1016 56.9844 48.5234 56.4063 47.8125 56.4063H37.3594C37.0234 56.4063 36.75 56.6797 36.75 57.0157C36.75 57.3516 37.0234 57.6251 37.3594 57.6251H47.8125C47.8594 57.6251 47.8906 57.6641 47.8906 57.7032V60.8985H31.7734V57.7032C31.7734 57.6563 31.8125 57.6251 31.8516 57.6251H33.5391C33.875 57.6251 34.1484 57.3516 34.1484 57.0157C34.1484 56.6797 33.875 56.4063 33.5391 56.4063H31.8594C31.1484 56.4063 30.5703 56.9844 30.5703 57.6954V60.8907H29.6328C28.1797 60.8907 27 62.0704 27 63.5235V65.2501C27 65.8126 27.4531 66.2657 28.0156 66.2657H51.6562C52.2188 66.2657 52.6719 65.8126 52.6719 65.2501V63.5235C52.6719 62.0704 51.4844 60.8907 50.0312 60.8907ZM51.4531 65.0547H28.2109V63.5235C28.2109 62.7422 28.8516 62.1016 29.6328 62.1016H50.0312C50.8125 62.1016 51.4531 62.7422 51.4531 63.5235V65.0547Z" fill="url(#paint1_linear)"/>
</g>
<defs>
<linearGradient id="paint0_linear" x1="34.7199" y1="16.0153" x2="68.0894" y2="18.3612" gradientUnits="userSpaceOnUse">
<stop stop-color="#E19A9D"/>
<stop offset="0.525942" stop-color="#FFD1D8"/>
<stop offset="1" stop-color="#E19A9D"/>
</linearGradient>
<linearGradient id="paint1_linear" x1="30.2749" y1="53.2842" x2="52.7875" y2="57.4059" gradientUnits="userSpaceOnUse">
<stop stop-color="#E19A9D"/>
<stop offset="0.525942" stop-color="#FFD1D8"/>
<stop offset="1" stop-color="#E19A9D"/>
</linearGradient>
<clipPath id="clip0">
<rect width="40" height="40" fill="white" transform="translate(27 27)"/>
</clipPath>
</defs>
</svg>
