<svg width="443" height="36" viewBox="0 0 443 36" fill="none" xmlns="http://www.w3.org/2000/svg">
<path d="M12.544 28.432C12.544 30.2987 12.1867 31.7333 11.472 32.736C10.768 33.728 9.792 34.224 8.544 34.224C7.296 34.224 6.31467 33.728 5.6 32.736C4.896 31.7333 4.544 30.2987 4.544 28.432C4.544 27.504 4.63467 26.6827 4.816 25.968C5.008 25.2533 5.28 24.6507 5.632 24.16C5.984 23.6693 6.40533 23.296 6.896 23.04C7.38667 22.784 7.936 22.656 8.544 22.656C9.792 22.656 10.768 23.1573 11.472 24.16C12.1867 25.152 12.544 26.576 12.544 28.432ZM10.112 28.432C10.112 27.8773 10.0853 27.376 10.032 26.928C9.97867 26.4693 9.89333 26.0747 9.776 25.744C9.65867 25.4133 9.49867 25.1573 9.296 24.976C9.09333 24.7947 8.84267 24.704 8.544 24.704C8.24533 24.704 7.99467 24.7947 7.792 24.976C7.6 25.1573 7.44 25.4133 7.312 25.744C7.19467 26.0747 7.10933 26.4693 7.056 26.928C7.00267 27.376 6.976 27.8773 6.976 28.432C6.976 28.9867 7.00267 29.4933 7.056 29.952C7.10933 30.4107 7.19467 30.8053 7.312 31.136C7.44 31.4667 7.6 31.7227 7.792 31.904C7.99467 32.0853 8.24533 32.176 8.544 32.176C8.84267 32.176 9.09333 32.0853 9.296 31.904C9.49867 31.7227 9.65867 31.4667 9.776 31.136C9.89333 30.8053 9.97867 30.4107 10.032 29.952C10.0853 29.4933 10.112 28.9867 10.112 28.432ZM14.2138 25.216C14.5231 25.088 14.8431 24.944 15.1738 24.784C15.5151 24.6133 15.8458 24.432 16.1658 24.24C16.4858 24.0373 16.7898 23.8293 17.0778 23.616C17.3764 23.392 17.6431 23.1573 17.8778 22.912H19.5418V34H17.1578V26.016C16.8378 26.2293 16.4804 26.4267 16.0858 26.608C15.6911 26.7787 15.3071 26.928 14.9338 27.056L14.2138 25.216Z" fill="#4F4F4F"/>
<path d="M151.544 28.432C151.544 30.2987 151.187 31.7333 150.472 32.736C149.768 33.728 148.792 34.224 147.544 34.224C146.296 34.224 145.315 33.728 144.6 32.736C143.896 31.7333 143.544 30.2987 143.544 28.432C143.544 27.504 143.635 26.6827 143.816 25.968C144.008 25.2533 144.28 24.6507 144.632 24.16C144.984 23.6693 145.405 23.296 145.896 23.04C146.387 22.784 146.936 22.656 147.544 22.656C148.792 22.656 149.768 23.1573 150.472 24.16C151.187 25.152 151.544 26.576 151.544 28.432ZM149.112 28.432C149.112 27.8773 149.085 27.376 149.032 26.928C148.979 26.4693 148.893 26.0747 148.776 25.744C148.659 25.4133 148.499 25.1573 148.296 24.976C148.093 24.7947 147.843 24.704 147.544 24.704C147.245 24.704 146.995 24.7947 146.792 24.976C146.6 25.1573 146.44 25.4133 146.312 25.744C146.195 26.0747 146.109 26.4693 146.056 26.928C146.003 27.376 145.976 27.8773 145.976 28.432C145.976 28.9867 146.003 29.4933 146.056 29.952C146.109 30.4107 146.195 30.8053 146.312 31.136C146.44 31.4667 146.6 31.7227 146.792 31.904C146.995 32.0853 147.245 32.176 147.544 32.176C147.843 32.176 148.093 32.0853 148.296 31.904C148.499 31.7227 148.659 31.4667 148.776 31.136C148.893 30.8053 148.979 30.4107 149.032 29.952C149.085 29.4933 149.112 28.9867 149.112 28.432ZM160.03 25.824C160.03 26.2293 159.95 26.6187 159.79 26.992C159.63 27.3653 159.422 27.728 159.166 28.08C158.91 28.4213 158.622 28.752 158.302 29.072C157.982 29.392 157.667 29.696 157.358 29.984C157.198 30.1333 157.022 30.304 156.83 30.496C156.648 30.6773 156.472 30.864 156.302 31.056C156.131 31.248 155.976 31.4293 155.838 31.6C155.71 31.76 155.63 31.8933 155.598 32H160.366V34H152.974C152.952 33.8827 152.942 33.7333 152.942 33.552C152.942 33.3707 152.942 33.2427 152.942 33.168C152.942 32.656 153.022 32.1867 153.182 31.76C153.352 31.3333 153.571 30.9387 153.838 30.576C154.104 30.2027 154.403 29.856 154.734 29.536C155.075 29.216 155.411 28.896 155.742 28.576C155.998 28.3307 156.238 28.1013 156.462 27.888C156.686 27.664 156.883 27.4507 157.054 27.248C157.224 27.0347 157.358 26.8267 157.454 26.624C157.55 26.4107 157.598 26.1973 157.598 25.984C157.598 25.5147 157.464 25.184 157.198 24.992C156.931 24.8 156.6 24.704 156.206 24.704C155.918 24.704 155.646 24.752 155.39 24.848C155.144 24.9333 154.915 25.04 154.702 25.168C154.499 25.2853 154.323 25.408 154.174 25.536C154.024 25.6533 153.912 25.7493 153.838 25.824L152.654 24.16C153.123 23.7227 153.667 23.3653 154.286 23.088C154.915 22.8 155.587 22.656 156.302 22.656C156.952 22.656 157.512 22.7307 157.982 22.88C158.451 23.0293 158.835 23.2427 159.134 23.52C159.443 23.7867 159.667 24.1173 159.806 24.512C159.955 24.896 160.03 25.3333 160.03 25.824Z" fill="#4F4F4F"/>
<path d="M290.544 29.432C290.544 31.2987 290.187 32.7333 289.472 33.736C288.768 34.728 287.792 35.224 286.544 35.224C285.296 35.224 284.315 34.728 283.6 33.736C282.896 32.7333 282.544 31.2987 282.544 29.432C282.544 28.504 282.635 27.6827 282.816 26.968C283.008 26.2533 283.28 25.6507 283.632 25.16C283.984 24.6693 284.405 24.296 284.896 24.04C285.387 23.784 285.936 23.656 286.544 23.656C287.792 23.656 288.768 24.1573 289.472 25.16C290.187 26.152 290.544 27.576 290.544 29.432ZM288.112 29.432C288.112 28.8773 288.085 28.376 288.032 27.928C287.979 27.4693 287.893 27.0747 287.776 26.744C287.659 26.4133 287.499 26.1573 287.296 25.976C287.093 25.7947 286.843 25.704 286.544 25.704C286.245 25.704 285.995 25.7947 285.792 25.976C285.6 26.1573 285.44 26.4133 285.312 26.744C285.195 27.0747 285.109 27.4693 285.056 27.928C285.003 28.376 284.976 28.8773 284.976 29.432C284.976 29.9867 285.003 30.4933 285.056 30.952C285.109 31.4107 285.195 31.8053 285.312 32.136C285.44 32.4667 285.6 32.7227 285.792 32.904C285.995 33.0853 286.245 33.176 286.544 33.176C286.843 33.176 287.093 33.0853 287.296 32.904C287.499 32.7227 287.659 32.4667 287.776 32.136C287.893 31.8053 287.979 31.4107 288.032 30.952C288.085 30.4933 288.112 29.9867 288.112 29.432ZM294.742 35.24C294.454 35.24 294.15 35.2187 293.83 35.176C293.51 35.144 293.2 35.096 292.902 35.032C292.603 34.968 292.331 34.8987 292.086 34.824C291.84 34.7493 291.648 34.68 291.51 34.616L291.974 32.632C292.251 32.7493 292.603 32.8773 293.03 33.016C293.467 33.144 294.006 33.208 294.646 33.208C295.382 33.208 295.92 33.0693 296.262 32.792C296.603 32.5147 296.774 32.1413 296.774 31.672C296.774 31.384 296.71 31.144 296.582 30.952C296.464 30.7493 296.299 30.5893 296.086 30.472C295.872 30.344 295.616 30.2587 295.318 30.216C295.03 30.1627 294.72 30.136 294.39 30.136H293.462V28.216H294.518C294.752 28.216 294.976 28.1947 295.19 28.152C295.414 28.1093 295.611 28.04 295.782 27.944C295.952 27.8373 296.086 27.6987 296.182 27.528C296.288 27.3467 296.342 27.1227 296.342 26.856C296.342 26.6533 296.299 26.4773 296.214 26.328C296.128 26.1787 296.016 26.056 295.878 25.96C295.75 25.864 295.595 25.7947 295.414 25.752C295.243 25.6987 295.067 25.672 294.886 25.672C294.427 25.672 294 25.7413 293.606 25.88C293.222 26.0187 292.87 26.1893 292.55 26.392L291.702 24.648C291.872 24.5413 292.07 24.4293 292.294 24.312C292.528 24.1947 292.784 24.088 293.062 23.992C293.339 23.896 293.632 23.816 293.942 23.752C294.262 23.688 294.598 23.656 294.95 23.656C295.6 23.656 296.16 23.736 296.63 23.896C297.11 24.0453 297.504 24.264 297.814 24.552C298.123 24.8293 298.352 25.16 298.502 25.544C298.651 25.9173 298.726 26.328 298.726 26.776C298.726 27.2133 298.603 27.64 298.358 28.056C298.112 28.4613 297.782 28.7707 297.366 28.984C297.942 29.2187 298.384 29.5707 298.694 30.04C299.014 30.4987 299.174 31.0533 299.174 31.704C299.174 32.216 299.088 32.6907 298.918 33.128C298.747 33.5547 298.48 33.928 298.118 34.248C297.755 34.5573 297.291 34.8027 296.726 34.984C296.171 35.1547 295.51 35.24 294.742 35.24Z" fill="#4F4F4F"/>
<path d="M429.544 29.432C429.544 31.2987 429.187 32.7333 428.472 33.736C427.768 34.728 426.792 35.224 425.544 35.224C424.296 35.224 423.315 34.728 422.6 33.736C421.896 32.7333 421.544 31.2987 421.544 29.432C421.544 28.504 421.635 27.6827 421.816 26.968C422.008 26.2533 422.28 25.6507 422.632 25.16C422.984 24.6693 423.405 24.296 423.896 24.04C424.387 23.784 424.936 23.656 425.544 23.656C426.792 23.656 427.768 24.1573 428.472 25.16C429.187 26.152 429.544 27.576 429.544 29.432ZM427.112 29.432C427.112 28.8773 427.085 28.376 427.032 27.928C426.979 27.4693 426.893 27.0747 426.776 26.744C426.659 26.4133 426.499 26.1573 426.296 25.976C426.093 25.7947 425.843 25.704 425.544 25.704C425.245 25.704 424.995 25.7947 424.792 25.976C424.6 26.1573 424.44 26.4133 424.312 26.744C424.195 27.0747 424.109 27.4693 424.056 27.928C424.003 28.376 423.976 28.8773 423.976 29.432C423.976 29.9867 424.003 30.4933 424.056 30.952C424.109 31.4107 424.195 31.8053 424.312 32.136C424.44 32.4667 424.6 32.7227 424.792 32.904C424.995 33.0853 425.245 33.176 425.544 33.176C425.843 33.176 426.093 33.0853 426.296 32.904C426.499 32.7227 426.659 32.4667 426.776 32.136C426.893 31.8053 426.979 31.4107 427.032 30.952C427.085 30.4933 427.112 29.9867 427.112 29.432ZM435.198 26.824C434.782 27.368 434.339 27.96 433.87 28.6C433.4 29.24 433.006 29.896 432.686 30.568H435.198V26.824ZM437.534 23.912V30.568H438.718V32.52H437.534V35H435.198V32.52H430.414V30.776C430.648 30.3067 430.942 29.7787 431.294 29.192C431.646 28.5947 432.035 27.9867 432.462 27.368C432.899 26.7387 433.358 26.1253 433.838 25.528C434.318 24.9307 434.798 24.392 435.278 23.912H437.534Z" fill="white"/>
<rect opacity="0.7" x="5" y="8" width="425" height="6" rx="3" fill="white"/>
<rect x="153" y="8" width="142" height="6" rx="3" fill="#E19A9D"/>
<rect x="18" y="8" width="142" height="6" rx="3" fill="#E19A9D"/>
<g filter="url(#filter0_d)">
<circle cx="13" cy="11" r="8" fill="white"/>
</g>
<circle cx="12.9999" cy="11" r="2.90909" fill="#E19A9D"/>
<g filter="url(#filter1_d)">
<circle cx="152" cy="11" r="8" fill="white"/>
</g>
<circle cx="152" cy="11" r="2.90909" fill="#E19A9D"/>
<g filter="url(#filter2_d)">
<circle cx="291" cy="11" r="8" fill="white"/>
</g>
<circle cx="291" cy="11" r="2.90909" fill="#E19A9D"/>
<g filter="url(#filter3_d)">
<circle cx="430" cy="11" r="8" fill="white"/>
</g>
<circle cx="430" cy="11" r="2.90909" fill="#BDBDBD"/>
<defs>
<filter id="filter0_d" x="0" y="0" width="26" height="26" filterUnits="userSpaceOnUse" color-interpolation-filters="sRGB">
<feFlood flood-opacity="0" result="BackgroundImageFix"/>
<feColorMatrix in="SourceAlpha" type="matrix" values="0 0 0 0 0 0 0 0 0 0 0 0 0 0 0 0 0 0 127 0"/>
<feOffset dy="2"/>
<feGaussianBlur stdDeviation="2.5"/>
<feColorMatrix type="matrix" values="0 0 0 0 0.7 0 0 0 0 0.7 0 0 0 0 0.7 0 0 0 0.31 0"/>
<feBlend mode="normal" in2="BackgroundImageFix" result="effect1_dropShadow"/>
<feBlend mode="normal" in="SourceGraphic" in2="effect1_dropShadow" result="shape"/>
</filter>
<filter id="filter1_d" x="139" y="0" width="26" height="26" filterUnits="userSpaceOnUse" color-interpolation-filters="sRGB">
<feFlood flood-opacity="0" result="BackgroundImageFix"/>
<feColorMatrix in="SourceAlpha" type="matrix" values="0 0 0 0 0 0 0 0 0 0 0 0 0 0 0 0 0 0 127 0"/>
<feOffset dy="2"/>
<feGaussianBlur stdDeviation="2.5"/>
<feColorMatrix type="matrix" values="0 0 0 0 0.7 0 0 0 0 0.7 0 0 0 0 0.7 0 0 0 0.31 0"/>
<feBlend mode="normal" in2="BackgroundImageFix" result="effect1_dropShadow"/>
<feBlend mode="normal" in="SourceGraphic" in2="effect1_dropShadow" result="shape"/>
</filter>
<filter id="filter2_d" x="278" y="0" width="26" height="26" filterUnits="userSpaceOnUse" color-interpolation-filters="sRGB">
<feFlood flood-opacity="0" result="BackgroundImageFix"/>
<feColorMatrix in="SourceAlpha" type="matrix" values="0 0 0 0 0 0 0 0 0 0 0 0 0 0 0 0 0 0 127 0"/>
<feOffset dy="2"/>
<feGaussianBlur stdDeviation="2.5"/>
<feColorMatrix type="matrix" values="0 0 0 0 0.7 0 0 0 0 0.7 0 0 0 0 0.7 0 0 0 0.31 0"/>
<feBlend mode="normal" in2="BackgroundImageFix" result="effect1_dropShadow"/>
<feBlend mode="normal" in="SourceGraphic" in2="effect1_dropShadow" result="shape"/>
</filter>
<filter id="filter3_d" x="417" y="0" width="26" height="26" filterUnits="userSpaceOnUse" color-interpolation-filters="sRGB">
<feFlood flood-opacity="0" result="BackgroundImageFix"/>
<feColorMatrix in="SourceAlpha" type="matrix" values="0 0 0 0 0 0 0 0 0 0 0 0 0 0 0 0 0 0 127 0"/>
<feOffset dy="2"/>
<feGaussianBlur stdDeviation="2.5"/>
<feColorMatrix type="matrix" values="0 0 0 0 0.7 0 0 0 0 0.7 0 0 0 0 0.7 0 0 0 0.31 0"/>
<feBlend mode="normal" in2="BackgroundImageFix" result="effect1_dropShadow"/>
<feBlend mode="normal" in="SourceGraphic" in2="effect1_dropShadow" result="shape"/>
</filter>
</defs>
</svg>
