<svg width="50" height="16" viewBox="0 0 50 16" fill="none" xmlns="http://www.w3.org/2000/svg">
<path d="M20.4375 0L17.9281 15.9679H21.939L24.4469 0H20.4375ZM32.5359 6.50444C31.1343 5.79666 30.275 5.31896 30.275 4.59506C30.2922 3.93687 31.0017 3.26256 32.586 3.26256C33.8891 3.22909 34.8469 3.54224 35.5735 3.85381L35.9375 4.01993L36.4828 0.679043C35.6905 0.365895 34.4344 0.0208524 32.8828 0.0208524C28.9219 0.0208524 26.1328 2.12667 26.1155 5.13847C26.0828 7.361 28.1123 8.59432 29.6312 9.33417C31.1828 10.0931 31.711 10.5852 31.711 11.2595C31.6938 12.2948 30.4564 12.7725 29.3017 12.7725C27.7017 12.7725 26.8423 12.5265 25.5377 11.9496L25.0095 11.7035L24.4486 15.1755C25.3908 15.6038 27.1235 15.9807 28.9221 16C33.1315 16 35.8705 13.9261 35.9049 10.7163C35.9186 8.95548 34.8484 7.60686 32.5359 6.50444ZM46.7656 0.0494164H43.6624C42.7061 0.0494164 41.9795 0.330672 41.5655 1.33408L35.6076 15.9679H39.817L40.9763 12.7996H45.6858L46.2873 15.9807H49.9999L46.7656 0.0494164ZM42.1437 9.60228C42.2249 9.61034 43.7594 4.43034 43.7594 4.43034L44.9813 9.60228C44.9813 9.60228 42.9359 9.60228 42.1437 9.60228ZM14.5766 0L10.6469 10.8487L10.2188 8.70927C9.4922 6.24071 7.21416 3.55818 4.67188 2.22568L8.27032 15.952H12.5142L18.8204 0.00175141H14.5766V0Z" fill="#005BAC"/>
<path d="M8.89689 2.06028C8.59065 0.84272 7.61401 0.0215522 6.2876 0.00402832H0.0640927L0 0.29948C4.85477 1.52335 8.92962 5.28922 10.2516 8.8315L8.89689 2.06028Z" fill="#FFCA28"/>
</svg>
