<svg width="41" height="41" fill="none" xmlns="http://www.w3.org/2000/svg"><path d="M15.825 19.05a2.05 2.05 0 00-2.9 2.9l6.126 6.125a2.043 2.043 0 001.45.592 2.043 2.043 0 001.47-.694l14.29-16.334A2.042 2.042 0 0033.2 8.944l-12.7 14.7-4.675-4.593z" fill="#728ECE"/><path d="M38.875 18.459a2.042 2.042 0 00-2.042 2.041A16.333 16.333 0 0120.5 36.834 16.333 16.333 0 018.923 8.985 16.19 16.19 0 0120.5 4.167c1.305.008 2.606.159 3.879.449a2.042 2.042 0 10.96-3.96 21.519 21.519 0 00-4.84-.573 20.417 20.417 0 00-14.29 34.893 20.274 20.274 0 0014.292 5.94A20.416 20.416 0 0040.916 20.5a2.042 2.042 0 00-2.041-2.041z" fill="#728ECE"/></svg>