<svg width="49" height="50" fill="none" xmlns="http://www.w3.org/2000/svg"><path d="M29.216 33.942l-2.674 2.573V25a2.042 2.042 0 10-4.083 0v11.413l-2.634-2.655a2.053 2.053 0 00-2.9 0 2.053 2.053 0 000 2.9l6.126 6.125a2.043 2.043 0 002.858.02l6.125-5.92a2.044 2.044 0 00-.513-3.46 2.043 2.043 0 00-2.305.52z" fill="#728ECE"/><path d="M36.077 14.791a12.25 12.25 0 00-23.152 0 10.209 10.209 0 00-6.289 16.885A2.042 2.042 0 109.7 29.083a6.125 6.125 0 014.593-10.208h.204a2.042 2.042 0 002.042-1.634 8.167 8.167 0 0116.007 0 2.042 2.042 0 002.041 1.634h.123a6.126 6.126 0 014.594 10.208 2.041 2.041 0 00.184 2.9 2.042 2.042 0 002.187.327c.264-.12.5-.294.691-.512a10.208 10.208 0 00-6.288-17.007z" fill="#728ECE"/></svg>