<svg width="49" height="50" fill="none" xmlns="http://www.w3.org/2000/svg"><path d="M24.5 4.583A20.825 20.825 0 004.084 25.756v9.453a8.167 8.167 0 108.166-8.167 7.983 7.983 0 00-4.083 1.143v-2.43A16.742 16.742 0 0124.5 8.668a16.742 16.742 0 0116.334 17.089v2.43a7.983 7.983 0 00-4.084-1.144 8.167 8.167 0 108.167 8.166v-9.452A20.825 20.825 0 0024.5 4.584zM12.25 31.126a4.083 4.083 0 110 8.167 4.083 4.083 0 010-8.167zm24.5 8.167a4.084 4.084 0 110-8.168 4.084 4.084 0 010 8.168z" fill="#728ECE"/></svg>