<?xml version="1.0" encoding="utf-8"?><svg viewBox="0 0 38 37" xmlns="http://www.w3.org/2000/svg" xmlns:xlink="http://www.w3.org/1999/xlink"><style>:root>svg{display:none}:root>svg:target{display:block}</style><svg fill="inherit" viewBox="0 0 27 24" id="basket" xmlns="http://www.w3.org/2000/svg"><path d="M26.107 5.334A2.667 2.667 0 0023.84 4H6.773L6 .987A1.333 1.333 0 004.667 0H2a1.333 1.333 0 000 2.667h1.653l3.68 13.68a1.334 1.334 0 001.333.987h12a1.333 1.333 0 001.187-.734l4.373-8.746a2.667 2.667 0 00-.12-2.52zm-6.267 9.333H9.68l-2.173-8H23.84l-4 8zM8 24a2 2 0 100-4 2 2 0 000 4zM21.333 24a2 2 0 100-4 2 2 0 000 4z"/></svg><svg fill="none" viewBox="0 0 13 22" id="slide-arrow" xmlns="http://www.w3.org/2000/svg"><path d="M12 1L2 11l10 10" stroke="inherit" stroke-width="2" stroke-linecap="round"/></svg><svg fill="inherit" viewBox="0 0 38 37" id="slide-arrow_2" xmlns="http://www.w3.org/2000/svg"><path d="M37.127 18.799a3.996 3.996 0 00-4.013-4.013l-18.567-.028 7.263-7.263a3.997 3.997 0 00-5.652-5.653l-14.13 14.13a3.997 3.997 0 000 5.653l14.13 14.13a3.997 3.997 0 005.652-5.652l-7.292-7.291h18.596a3.996 3.996 0 004.013-4.013z"/></svg></svg>