<svg width="49" height="50" fill="none" xmlns="http://www.w3.org/2000/svg"><path d="M26.542 16.833a6.125 6.125 0 016.125 6.125 2.042 2.042 0 104.083 0A10.208 10.208 0 0026.542 12.75a2.042 2.042 0 100 4.083z" fill="#728ECE"/><path d="M26.542 8.666a14.292 14.292 0 0114.291 14.292 2.042 2.042 0 104.084 0A18.375 18.375 0 0026.542 4.583a2.042 2.042 0 100 4.083zm17.864 24.317a2.04 2.04 0 00-1.47-1.327l-12.25-2.798a2.042 2.042 0 00-1.878.531c-.286.266-.306.286-1.633 2.818a20.233 20.233 0 01-9.943-9.984c2.593-1.307 2.613-1.307 2.879-1.613a2.041 2.041 0 00.53-1.878L17.844 6.625a2.042 2.042 0 00-1.327-1.47 7.738 7.738 0 00-1.47-.368 8.044 8.044 0 00-1.572-.204 9.392 9.392 0 00-9.392 9.392 31.483 31.483 0 0031.442 31.441 9.391 9.391 0 009.392-9.391c0-.52-.04-1.039-.123-1.552a8.862 8.862 0 00-.388-1.49zm-8.88 8.35a27.379 27.379 0 01-27.36-27.358 5.329 5.329 0 015.31-5.309h.673l2.185 9.474-1.103.571c-1.756.92-3.144 1.654-2.41 3.247a24.194 24.194 0 0014.66 14.72c1.715.694 2.389-.592 3.307-2.368l.593-1.123 9.453 2.164v.674a5.33 5.33 0 01-5.309 5.308z" fill="#728ECE"/></svg>