<svg width="49" height="50" fill="none" xmlns="http://www.w3.org/2000/svg"><path d="M17.579 45.417a4.594 4.594 0 01-2.757-.94l-4.226-3.143a4.839 4.839 0 01-1-6.575 4.205 4.205 0 00.47-3.797l-.123-.327a3.736 3.736 0 00-2.287-2.49H7.33a4.777 4.777 0 01-3.022-6.003l1.674-5.308a4.451 4.451 0 012.287-2.88 4.37 4.37 0 013.43-.244 3.94 3.94 0 003.634-.592l.265-.204a3.96 3.96 0 001.49-3.083v-.49a4.736 4.736 0 014.676-4.757h5.206a4.614 4.614 0 013.267 1.367 4.839 4.839 0 011.388 3.43v.572a3.594 3.594 0 001.41 2.92l.224.163a3.553 3.553 0 003.246.53l.694-.224a4.615 4.615 0 015.88 3.083l1.613 5.145a4.818 4.818 0 01-2.98 5.982l-.41.143a3.86 3.86 0 00-2.51 2.613 4.083 4.083 0 00.51 3.37l.53.775a4.859 4.859 0 01-1.02 6.595l-4.104 3.164a4.573 4.573 0 01-6.574-1.082l-.245-.347a3.573 3.573 0 00-3.062-1.592 3.675 3.675 0 00-2.92 1.572l-.47.673a4.594 4.594 0 01-3.062 1.98 4.073 4.073 0 01-.796 0zM8.983 24.224a7.819 7.819 0 014.86 5.104v.245a8.166 8.166 0 01-.94 7.391.776.776 0 000 1.042l4.39 3.328a.51.51 0 00.755-.143l.47-.674a7.697 7.697 0 0112.658 0l.245.367a.612.612 0 00.368.245.51.51 0 00.388-.102l4.205-3.185a.735.735 0 00.143-1l-.53-.776a8.166 8.166 0 01-1.083-6.983 8.004 8.004 0 015.084-5.328l.408-.143a.694.694 0 00.388-.898L39.2 17.63a.713.713 0 00-.408-.388.429.429 0 00-.388 0l-.695.224a7.635 7.635 0 01-7.002-1.163l-.082-.184a7.678 7.678 0 01-3.042-6.125V9.36a.755.755 0 00-.204-.53.633.633 0 00-.43-.164h-5.185a.633.633 0 00-.592.674v.51a7.962 7.962 0 01-3.103 6.309l-.266.204a7.983 7.983 0 01-7.411 1.204.45.45 0 00-.286 0 .572.572 0 00-.245.307l-1.694 5.328a.735.735 0 00.449.92l.367.101z" fill="#728ECE"/><path d="M24.5 32.146a7.146 7.146 0 110-14.292 7.146 7.146 0 010 14.292zm0-10.208a3.062 3.062 0 100 6.123 3.062 3.062 0 000-6.123z" fill="#5A81E5"/></svg>