<svg width="49" height="50" fill="none" xmlns="http://www.w3.org/2000/svg"><path d="M42.875 14.792a1.63 1.63 0 000-.43 1.306 1.306 0 00-.102-.346 2.255 2.255 0 00-.184-.286 1.531 1.531 0 00-.286-.347l-.245-.143a1.407 1.407 0 00-.388-.204h-.408a1.43 1.43 0 00-.429-.286H30.625a2.042 2.042 0 100 4.083h5.778l-8.167 9.617-8.82-5.247a2.042 2.042 0 00-2.613.449L6.594 33.902a2.042 2.042 0 002.44 3.156 2.04 2.04 0 00.704-.543l9.086-10.902 8.718 5.226a2.042 2.042 0 002.593-.429l8.656-10.106V25a2.042 2.042 0 004.084 0V14.792z" fill="#728ECE"/></svg>