<svg width="60" height="24" viewBox="0 0 60 24" fill="none" xmlns="http://www.w3.org/2000/svg">
<g clip-path="url(#clip0)">
<path d="M19.8883 16.8939C19.8883 15.8883 19.2856 15.0839 18.3481 14.4805C17.6115 14.0112 17.2098 13.609 17.2098 12.9386C17.2098 12.1341 17.8124 11.5308 18.683 11.5308C19.3526 11.5308 19.8883 11.7319 20.1562 11.933L20.558 10.8604C20.2231 10.5922 19.5535 10.3911 18.8169 10.3911C17.0758 10.3911 15.8035 11.6649 15.8035 13.2738C15.8035 14.2123 16.3392 15.0168 17.2767 15.6202C18.1473 16.1565 18.4151 16.5587 18.4151 17.2961C18.4151 18.1006 17.7455 18.771 16.808 18.771C16.1383 18.771 15.4017 18.4358 14.9999 18.1677L14.5981 19.3073C14.9999 19.5755 15.8035 19.9107 16.674 19.9107C18.4821 19.9107 19.8883 18.838 19.8883 16.8939Z" fill="#252525"/>
<path d="M6.89746 16.8939C6.89746 18.704 7.83496 19.9777 9.30817 19.9777C10.4466 19.9777 11.585 19.2403 12.5225 17.3632H12.5894C12.4555 18.3688 12.3885 19.2403 12.3885 19.7766H13.7278C13.6609 18.704 13.7948 17.095 14.0626 15.4861L14.8662 10.6593C14.3305 10.4582 13.46 10.3241 12.6564 10.3241C9.04032 10.3241 6.89746 13.6761 6.89746 16.8939ZM12.3216 11.5308C12.7903 11.5308 13.1251 11.5978 13.2591 11.5978L12.7903 14.4135C12.3885 16.8269 10.9823 18.5699 9.77693 18.5699C8.7055 18.5699 8.37067 17.5643 8.37067 16.5587C8.43764 14.0112 10.1787 11.5308 12.3216 11.5308Z" fill="#252525"/>
<path d="M0.0668945 16.2235C0.0668945 18.2347 1.00439 19.9107 3.21422 19.9107C4.35261 19.9107 5.35707 19.5755 5.95975 19.1733L5.75886 17.9666C5.29011 18.3017 4.5535 18.6369 3.54904 18.6369C2.6785 18.6369 2.00886 18.2347 1.67404 17.4302C1.47314 16.961 1.40618 16.0895 1.47314 15.6872C4.5535 15.7543 6.96422 15.0839 7.09814 12.6705C7.09814 11.3967 6.22761 10.3241 4.62047 10.3241C1.94189 10.3241 0.0668945 13.4079 0.0668945 16.2235ZM4.35261 11.5308C5.08922 11.5308 5.62493 11.933 5.62493 12.7375C5.62493 14.1453 3.81689 14.4805 1.60707 14.4805C2.00886 13.0057 3.01332 11.5308 4.35261 11.5308Z" fill="#252525"/>
<path d="M24.5757 15.62C24.1739 16.6926 23.906 17.296 23.7052 17.8993H23.6382C23.5043 17.229 23.4373 16.5586 23.2364 15.4859L22.4328 10.525H20.9596L22.6337 19.1731C22.6337 19.3072 22.6337 19.4412 22.5668 19.5753C22.098 20.5139 21.4953 21.2513 20.9596 21.7206C20.3569 22.1899 19.7543 22.458 19.4194 22.5921L19.7543 23.9329C20.223 23.7988 21.2275 23.3966 22.165 22.3239C23.3034 21.1172 24.1739 19.5083 25.0444 17.4971L28.1248 10.458H26.7185L24.5757 15.62Z" fill="#252525"/>
<path d="M35.5582 15.1509C35.5582 15.1509 35.5582 15.0839 35.4912 15.0168L35.5582 15.1509Z" fill="#136BB5"/>
<path d="M30.4686 15.1509C32.2766 13.2738 35.0222 14.8157 35.4909 15.0838V15.0168C35.29 14.6145 34.7543 13.2738 34.6204 11.3967C34.4865 9.18437 35.2231 8.78214 37.165 8.58102C39.107 8.44694 40.3124 7.97767 40.3124 7.97767C40.3124 7.97767 37.0981 5.6313 31.4731 5.49722C25.915 5.29611 21.6963 7.97767 21.6963 7.97767C21.6963 7.97767 24.7097 7.70951 27.3883 7.97767C29.9999 8.24583 29.9329 9.78773 29.2633 12.6704C29.0624 13.4749 28.6606 14.5475 28.1249 15.6872V18.0335C28.6606 17.2291 29.2633 16.4246 30.4686 15.1509Z" fill="#136BB5"/>
<path d="M26.9866 19.5085C27.4554 18.9722 27.7902 18.5029 28.125 18.0336V15.6873C26.7857 18.5699 24.8438 21.7208 24.8438 21.7208C24.8438 21.7208 25.9152 20.8493 26.9866 19.5085Z" fill="#136BB5"/>
<path d="M31.2725 4.82682C32.6118 4.82682 33.6832 3.75419 33.6832 2.41341C33.6832 1.07263 32.6118 0 31.2725 0C30.0002 0 28.8618 1.07263 28.8618 2.41341C28.8618 3.75419 29.9332 4.82682 31.2725 4.82682Z" fill="#F8A81B"/>
<path d="M56.4507 15.62C56.0489 16.6926 55.781 17.296 55.5802 17.8993H55.5132C55.3793 17.229 55.3123 16.5586 55.1114 15.4859L54.3078 10.525H52.8346L54.5087 19.1731C54.5087 19.3072 54.5087 19.4412 54.4418 19.5753C53.973 20.5139 53.3703 21.2513 52.8346 21.7206C52.2319 22.1899 51.6293 22.458 51.2944 22.5921L51.6293 23.9329C52.098 23.7988 53.1025 23.3966 54.04 22.3239C55.1784 21.1172 56.0489 19.5083 56.9194 17.4971L59.9998 10.458H58.5266L56.4507 15.62Z" fill="#252525"/>
<path d="M44.3975 16.8939C44.3975 18.704 45.335 19.9777 46.8082 19.9777C48.0135 19.9777 49.085 19.2403 50.0225 17.3632H50.0894C49.9555 18.3688 49.8885 19.2403 49.8885 19.7766H51.2278C51.1608 18.704 51.2948 17.095 51.5626 15.4861L52.3662 10.6593C51.8305 10.4582 50.96 10.3241 50.1564 10.3241C46.5403 10.3241 44.3975 13.6761 44.3975 16.8939ZM49.8216 11.5308C50.2903 11.5308 50.6251 11.5978 50.826 11.5978L50.3573 14.4135C49.9555 16.8269 48.5492 18.5699 47.3439 18.5699C46.2725 18.5699 45.9376 17.5643 45.9376 16.5587C45.9376 14.0112 47.6787 11.5308 49.8216 11.5308Z" fill="#252525"/>
<path d="M38.7055 12.2012L38.9064 10.4582H37.6341C37.5001 11.3967 37.3662 12.6034 37.1653 13.7431L35.4912 23.4638H36.8975L37.5671 19.5085H37.6341C37.9689 19.7096 38.5716 19.9107 39.4421 19.9107C42.1876 19.9107 44.2635 16.8939 44.1966 13.609C44.1966 12.0671 43.5939 10.6593 42.2546 10.3241H41.1162C40.2457 10.5252 39.3082 11.1956 38.7055 12.2012ZM41.1832 11.5978C42.3885 11.5978 42.7903 12.7375 42.7903 13.7431C42.7903 16.1565 41.2501 18.704 39.4421 18.704C38.7725 18.704 38.1698 18.5029 37.835 18.1677L38.2367 15.6202C38.6385 13.0057 40.0448 11.5978 41.1832 11.5978Z" fill="#252525"/>
</g>
<defs>
<clipPath id="clip0">
<rect width="60" height="24" fill="white"/>
</clipPath>
</defs>
</svg>
