<svg width="141" height="94" viewBox="0 0 141 94" fill="none" xmlns="http://www.w3.org/2000/svg">
<g clip-path="url(#clip0)">
<g filter="url(#filter0_d)">
<ellipse cx="91.5986" cy="48.7673" rx="33.9635" ry="33.9245" fill="url(#paint0_linear)"/>
</g>
<path d="M4.57764e-05 55.3728L4.57764e-05 40.8783H9.84945V43.6183H3.28318V46.4628H9.11338V49.1398H3.28318V52.6328H10.3335V55.3728H4.57764e-05Z" fill="url(#paint1_linear)"/>
<path d="M22.5397 55.3728C22.3778 54.8686 22.2025 54.3511 22.0156 53.822C21.8286 53.2913 21.6433 52.7622 21.4581 52.2364H15.7614C15.5778 52.7655 15.3925 53.2946 15.2073 53.827C15.022 54.3578 14.8501 54.8736 14.6898 55.3745H11.2799C11.829 53.8137 12.3497 52.3708 12.8421 51.0455C13.3345 49.7203 13.8169 48.473 14.2876 47.3021C14.7599 46.1311 15.224 45.0198 15.6813 43.9666C16.1386 42.9134 16.6143 41.885 17.1067 40.8816H20.2196C20.6986 41.885 21.171 42.9134 21.6367 43.9666C22.1023 45.0198 22.5714 46.1311 23.042 47.3021C23.5144 48.473 23.9968 49.722 24.4908 51.0455C24.9849 52.3708 25.5057 53.8137 26.0565 55.3745H22.5397V55.3728ZM18.5956 44.164C18.5221 44.3746 18.4153 44.6615 18.2734 45.0231C18.1332 45.3864 17.9713 45.8043 17.791 46.2787C17.6108 46.7531 17.4088 47.2772 17.1868 47.8477C16.9648 48.4183 16.7378 49.017 16.5075 49.644H20.6786C20.4549 49.0154 20.2396 48.415 20.0293 47.8428C19.8207 47.2705 19.6204 46.7464 19.4334 46.2721C19.2448 45.7977 19.0796 45.3797 18.9377 45.0165C18.7975 44.6533 18.6823 44.3696 18.5956 44.164Z" fill="url(#paint2_linear)"/>
<path d="M32.3072 52.8849C32.7696 52.8849 33.1518 52.8468 33.4539 52.7705C33.756 52.6942 33.9981 52.5897 34.18 52.457C34.3619 52.3243 34.4888 52.1684 34.5589 51.986C34.629 51.8052 34.664 51.6028 34.664 51.3789C34.664 50.9045 34.4387 50.5115 33.9897 50.198C33.5407 49.8845 32.7696 49.5461 31.6747 49.1829C31.1973 49.0154 30.7199 48.8246 30.2442 48.6074C29.7669 48.3918 29.3396 48.1197 28.9607 47.7913C28.5818 47.4646 28.273 47.0665 28.0343 46.5988C27.7956 46.1311 27.6771 45.5638 27.6771 44.8938C27.6771 44.2237 27.804 43.6216 28.056 43.0842C28.3081 42.5468 28.6669 42.0907 29.1293 41.7142C29.5916 41.3377 30.1524 41.0491 30.8134 40.8468C31.4727 40.6444 32.2171 40.5432 33.045 40.5432C34.0264 40.5432 34.876 40.6477 35.5921 40.8567C36.3081 41.0657 36.8973 41.2962 37.3596 41.5467L36.4133 44.1192C36.006 43.9102 35.5537 43.7261 35.0563 43.5652C34.5572 43.4043 33.958 43.3247 33.257 43.3247C32.4708 43.3247 31.9067 43.4325 31.5628 43.6481C31.219 43.8638 31.0471 44.1955 31.0471 44.6416C31.0471 44.907 31.1105 45.1293 31.2357 45.3117C31.3625 45.4925 31.5411 45.6567 31.7731 45.8027C32.0051 45.9486 32.2705 46.0813 32.5726 46.2007C32.8748 46.3202 33.2069 46.4412 33.5724 46.5673C34.3302 46.8459 34.9895 47.1213 35.5503 47.3933C36.1111 47.6653 36.5785 47.9821 36.9507 48.3453C37.3229 48.7085 37.6 49.1332 37.7819 49.6208C37.9639 50.1084 38.0557 50.7022 38.0557 51.3988C38.0557 52.7506 37.5783 53.8005 36.6236 54.5468C35.6688 55.2932 34.2317 55.6664 32.3089 55.6664C31.663 55.6664 31.0805 55.6283 30.5614 55.552C30.0423 55.4757 29.5833 55.3811 29.1827 55.27C28.7821 55.1589 28.4383 55.0395 28.1512 54.9151C27.8641 54.789 27.6221 54.6712 27.4251 54.5601L28.3515 51.9661C28.7854 52.2032 29.3229 52.4155 29.9622 52.6046C30.5981 52.7904 31.3809 52.8849 32.3072 52.8849Z" fill="url(#paint3_linear)"/>
<path d="M45.7102 46.8244C46.2994 45.8375 46.8619 44.8506 47.396 43.8621C47.9301 42.8752 48.4208 41.8801 48.8715 40.8799H52.4918C51.6923 42.4423 50.8644 43.955 50.0081 45.4179C49.1519 46.8824 48.2472 48.3536 47.2925 49.8314V55.3745H44.0094V49.8746C43.0546 48.3967 42.1466 46.9189 41.2837 45.4411C40.4208 43.9633 39.5896 42.444 38.7901 40.8816H42.599C43.0479 41.8834 43.5303 42.8769 44.0494 43.8638C44.5668 44.8506 45.121 45.8375 45.7102 46.8244Z" fill="url(#paint4_linear)"/>
<g filter="url(#filter1_d)">
<path d="M70.9369 55.6664C68.5651 55.6664 66.7591 55.0113 65.5173 53.701C64.2755 52.3907 63.6546 50.5297 63.6546 48.1164C63.6546 46.9173 63.8449 45.8475 64.2221 44.9054C64.601 43.9649 65.1201 43.1688 65.7794 42.5203C66.4387 41.8718 67.2248 41.3808 68.1362 41.0458C69.0475 40.7107 70.0373 40.5432 71.1038 40.5432C71.7214 40.5432 72.2822 40.588 72.788 40.6792C73.2937 40.7705 73.7343 40.8749 74.1132 40.9927C74.4921 41.1121 74.8076 41.2332 75.0596 41.3593C75.3116 41.4853 75.4936 41.5832 75.6071 41.6528L74.6607 44.2884C74.2117 44.0512 73.6893 43.8488 73.0934 43.6813C72.4975 43.5138 71.8199 43.4309 71.0621 43.4309C70.5564 43.4309 70.0623 43.5138 69.5783 43.6813C69.0942 43.8488 68.6653 44.1175 68.2947 44.4857C67.9225 44.8556 67.6237 45.3333 67.4001 45.9188C67.1748 46.5043 67.0629 47.2158 67.0629 48.0517C67.0629 48.7218 67.1364 49.3455 67.2832 49.9243C67.4301 50.5032 67.6688 51.0007 67.9993 51.4204C68.3281 51.8383 68.7604 52.1701 69.2928 52.4139C69.8253 52.6577 70.4712 52.7804 71.229 52.7804C71.7064 52.7804 72.1337 52.7522 72.5126 52.6975C72.8914 52.6428 73.2286 52.5764 73.5224 52.4985C73.8178 52.4222 74.0765 52.3343 74.3018 52.2364C74.5255 52.1385 74.7291 52.049 74.9127 51.9644L75.8174 54.5784C75.355 54.857 74.7024 55.1091 73.8595 55.3314C73.0166 55.5536 72.0452 55.6664 70.9369 55.6664Z" fill="white"/>
</g>
<g filter="url(#filter2_d)">
<path d="M88.299 55.3728C88.1371 54.8686 87.9618 54.3511 87.7749 53.822C87.5879 53.2913 87.4027 52.7622 87.2174 52.2364H81.5207C81.3371 52.7655 81.1519 53.2946 80.9666 53.827C80.7813 54.3578 80.6094 54.8736 80.4492 55.3745H77.0392C77.5883 53.8137 78.1091 52.3708 78.6015 51.0455C79.0939 49.7203 79.5762 48.473 80.0469 47.3021C80.5193 46.1311 80.9833 45.0198 81.4406 43.9666C81.898 42.9134 82.3737 41.885 82.866 40.8816H85.9806C86.4596 41.885 86.932 42.9134 87.3977 43.9666C87.8634 45.0198 88.3324 46.1311 88.8031 47.3021C89.2754 48.473 89.7578 49.722 90.2518 51.0455C90.7459 52.3708 91.2667 53.8137 91.8158 55.3745H88.299V55.3728ZM84.3549 44.164C84.2814 44.3746 84.1746 44.6615 84.0327 45.0231C83.8909 45.3864 83.7306 45.8043 83.5504 46.2787C83.3701 46.7531 83.1682 47.2772 82.9462 47.8477C82.7242 48.4183 82.4972 49.017 82.2668 49.644H86.4379C86.2143 49.0154 85.999 48.415 85.7887 47.8428C85.58 47.2705 85.3814 46.7464 85.1928 46.2721C85.0042 45.7977 84.8389 45.3797 84.6971 45.0165C84.5568 44.6533 84.4417 44.3696 84.3549 44.164Z" fill="white"/>
</g>
<g filter="url(#filter3_d)">
<path d="M98.0666 52.8849C98.5289 52.8849 98.9112 52.8468 99.2133 52.7705C99.5154 52.6942 99.7574 52.5897 99.9393 52.457C100.121 52.3243 100.248 52.1684 100.318 51.986C100.388 51.8052 100.423 51.6028 100.423 51.3789C100.423 50.9045 100.198 50.5115 99.7491 50.198C99.3001 49.8845 98.5289 49.5461 97.434 49.1829C96.9566 49.0154 96.4793 48.8246 96.0036 48.6074C95.5262 48.3918 95.0989 48.1197 94.72 47.7913C94.3412 47.4646 94.0324 47.0665 93.7937 46.5988C93.555 46.1311 93.4365 45.5638 93.4365 44.8938C93.4365 44.2237 93.5633 43.6216 93.8154 43.0842C94.0674 42.5468 94.4263 42.0907 94.8886 41.7142C95.351 41.3377 95.9135 41.0491 96.5727 40.8468C97.232 40.6444 97.9765 40.5432 98.8043 40.5432C99.7858 40.5432 100.635 40.6477 101.351 40.8567C102.067 41.0657 102.657 41.2962 103.119 41.5467L102.173 44.1192C101.765 43.9102 101.313 43.7261 100.816 43.5652C100.317 43.4043 99.7173 43.3247 99.0163 43.3247C98.2302 43.3247 97.666 43.4325 97.3222 43.6481C96.9783 43.8638 96.8064 44.1955 96.8064 44.6416C96.8064 44.907 96.8698 45.1293 96.995 45.3117C97.1219 45.4925 97.3005 45.6567 97.5325 45.8027C97.7645 45.9486 98.0299 46.0813 98.332 46.2007C98.6341 46.3202 98.9662 46.4412 99.3318 46.5673C100.09 46.8459 100.749 47.1213 101.31 47.3933C101.87 47.6653 102.338 47.9821 102.71 48.3453C103.082 48.7085 103.359 49.1332 103.541 49.6208C103.723 50.1084 103.815 50.7022 103.815 51.3988C103.815 52.7506 103.338 53.8005 102.385 54.5468C101.43 55.2932 99.9927 55.6664 98.0699 55.6664C97.424 55.6664 96.8415 55.6283 96.3224 55.552C95.8033 55.4757 95.3443 55.3811 94.9437 55.27C94.5431 55.1589 94.1993 55.0395 93.9122 54.9151C93.6251 54.789 93.3831 54.6712 93.1861 54.5601L94.1125 51.9661C94.5465 52.2032 95.0839 52.4155 95.7232 52.6046C96.3574 52.7904 97.1402 52.8849 98.0666 52.8849Z" fill="white"/>
</g>
<g filter="url(#filter4_d)">
<path d="M115.135 40.8799H118.418V55.3745H115.135V49.226H109.62V55.3745H106.337V40.8799H109.622V46.423H115.135V40.8799Z" fill="white"/>
</g>
</g>
<defs>
<filter id="filter0_d" x="49.6351" y="6.84285" width="87.927" height="87.849" filterUnits="userSpaceOnUse" color-interpolation-filters="sRGB">
<feFlood flood-opacity="0" result="BackgroundImageFix"/>
<feColorMatrix in="SourceAlpha" type="matrix" values="0 0 0 0 0 0 0 0 0 0 0 0 0 0 0 0 0 0 127 0"/>
<feOffset dx="2" dy="2"/>
<feGaussianBlur stdDeviation="5"/>
<feColorMatrix type="matrix" values="0 0 0 0 0 0 0 0 0 0 0 0 0 0 0 0 0 0 0.25 0"/>
<feBlend mode="normal" in2="BackgroundImageFix" result="effect1_dropShadow"/>
<feBlend mode="normal" in="SourceGraphic" in2="effect1_dropShadow" result="shape"/>
</filter>
<filter id="filter1_d" x="59.6546" y="38.5432" width="22.1628" height="25.1232" filterUnits="userSpaceOnUse" color-interpolation-filters="sRGB">
<feFlood flood-opacity="0" result="BackgroundImageFix"/>
<feColorMatrix in="SourceAlpha" type="matrix" values="0 0 0 0 0 0 0 0 0 0 0 0 0 0 0 0 0 0 127 0"/>
<feOffset dx="1" dy="3"/>
<feGaussianBlur stdDeviation="2.5"/>
<feColorMatrix type="matrix" values="0 0 0 0 0 0 0 0 0 0 0 0 0 0 0 0 0 0 0.25 0"/>
<feBlend mode="normal" in2="BackgroundImageFix" result="effect1_dropShadow"/>
<feBlend mode="normal" in="SourceGraphic" in2="effect1_dropShadow" result="shape"/>
</filter>
<filter id="filter2_d" x="73.0392" y="38.8816" width="24.7766" height="24.4929" filterUnits="userSpaceOnUse" color-interpolation-filters="sRGB">
<feFlood flood-opacity="0" result="BackgroundImageFix"/>
<feColorMatrix in="SourceAlpha" type="matrix" values="0 0 0 0 0 0 0 0 0 0 0 0 0 0 0 0 0 0 127 0"/>
<feOffset dx="1" dy="3"/>
<feGaussianBlur stdDeviation="2.5"/>
<feColorMatrix type="matrix" values="0 0 0 0 0 0 0 0 0 0 0 0 0 0 0 0 0 0 0.25 0"/>
<feBlend mode="normal" in2="BackgroundImageFix" result="effect1_dropShadow"/>
<feBlend mode="normal" in="SourceGraphic" in2="effect1_dropShadow" result="shape"/>
</filter>
<filter id="filter3_d" x="89.1861" y="38.5432" width="20.6289" height="25.1232" filterUnits="userSpaceOnUse" color-interpolation-filters="sRGB">
<feFlood flood-opacity="0" result="BackgroundImageFix"/>
<feColorMatrix in="SourceAlpha" type="matrix" values="0 0 0 0 0 0 0 0 0 0 0 0 0 0 0 0 0 0 127 0"/>
<feOffset dx="1" dy="3"/>
<feGaussianBlur stdDeviation="2.5"/>
<feColorMatrix type="matrix" values="0 0 0 0 0 0 0 0 0 0 0 0 0 0 0 0 0 0 0.25 0"/>
<feBlend mode="normal" in2="BackgroundImageFix" result="effect1_dropShadow"/>
<feBlend mode="normal" in="SourceGraphic" in2="effect1_dropShadow" result="shape"/>
</filter>
<filter id="filter4_d" x="102.337" y="38.8799" width="22.081" height="24.4946" filterUnits="userSpaceOnUse" color-interpolation-filters="sRGB">
<feFlood flood-opacity="0" result="BackgroundImageFix"/>
<feColorMatrix in="SourceAlpha" type="matrix" values="0 0 0 0 0 0 0 0 0 0 0 0 0 0 0 0 0 0 127 0"/>
<feOffset dx="1" dy="3"/>
<feGaussianBlur stdDeviation="2.5"/>
<feColorMatrix type="matrix" values="0 0 0 0 0 0 0 0 0 0 0 0 0 0 0 0 0 0 0.25 0"/>
<feBlend mode="normal" in2="BackgroundImageFix" result="effect1_dropShadow"/>
<feBlend mode="normal" in="SourceGraphic" in2="effect1_dropShadow" result="shape"/>
</filter>
<linearGradient id="paint0_linear" x1="72.4941" y1="23.324" x2="122.918" y2="35.5714" gradientUnits="userSpaceOnUse">
<stop stop-color="#FFAE11"/>
<stop offset="1" stop-color="#FF3D00"/>
</linearGradient>
<linearGradient id="paint1_linear" x1="9.04182" y1="44.049" x2="5.56666" y2="54.2609" gradientUnits="userSpaceOnUse">
<stop stop-color="#FFAE11"/>
<stop offset="1" stop-color="#FF3D00"/>
</linearGradient>
<linearGradient id="paint2_linear" x1="24.2094" y1="44.0519" x2="21.6436" y2="54.8346" gradientUnits="userSpaceOnUse">
<stop stop-color="#FFAE11"/>
<stop offset="1" stop-color="#FF3D00"/>
</linearGradient>
<linearGradient id="paint3_linear" x1="36.7268" y1="43.8514" x2="33.0603" y2="54.4747" gradientUnits="userSpaceOnUse">
<stop stop-color="#FFAE11"/>
<stop offset="1" stop-color="#FF3D00"/>
</linearGradient>
<linearGradient id="paint4_linear" x1="50.779" y1="44.0506" x2="48.0354" y2="54.741" gradientUnits="userSpaceOnUse">
<stop stop-color="#FFAE11"/>
<stop offset="1" stop-color="#FF3D00"/>
</linearGradient>
<clipPath id="clip0">
<rect width="94" height="141" fill="white" transform="translate(141) rotate(90)"/>
</clipPath>
</defs>
</svg>
