<svg width="40" height="40" viewBox="0 0 40 40" fill="none" xmlns="http://www.w3.org/2000/svg">
<path d="M39.7969 12.8672C39.7969 12.8516 39.7891 12.8438 39.7891 12.8281C39.5938 11.7969 39.2734 10.8125 38.8438 9.88281C38.8281 9.84375 38.8125 9.8125 38.7969 9.78125C38.3984 8.9375 37.8984 8.14844 37.3281 7.42969C37.3047 7.39062 37.2812 7.35938 37.25 7.32812C37.2422 7.32031 37.2422 7.32031 37.2344 7.32031C36.6719 6.625 36.0391 5.99219 35.3359 5.42969C35.3281 5.42188 35.3281 5.42188 35.3281 5.41406C35.2969 5.38281 35.2656 5.35938 35.2266 5.33594C34.5 4.76563 33.7109 4.27344 32.8672 3.88281C32.8359 3.85938 32.8047 3.84375 32.7656 3.83594C31.8359 3.40625 30.8438 3.08594 29.8047 2.89844C29.7891 2.89844 29.7812 2.89062 29.7656 2.89062C29.0547 2.76562 28.3203 2.69531 27.5781 2.69531C27.0078 2.69531 26.4375 2.73438 25.8828 2.8125C25.8828 2.8125 25.8828 2.8125 25.875 2.8125C20.625 3.53125 16.4141 7.53906 15.3828 12.6875C14.0391 12.9531 12.7344 13.4453 11.5469 14.1406C11.3047 14.2812 11.2266 14.5938 11.3672 14.8359C11.5078 15.0781 11.8203 15.1562 12.0625 15.0156C13.0469 14.4375 14.1094 14.0156 15.2188 13.7578C15.1719 14.2031 15.1406 14.6562 15.1406 15.1172C15.1406 15.8594 15.2031 16.5938 15.3359 17.3047C15.3359 17.3203 15.3438 17.3359 15.3438 17.3438C15.5312 18.3828 15.8516 19.375 16.2812 20.3047C16.2969 20.3359 16.3125 20.375 16.3281 20.4062C16.7266 21.25 17.2188 22.0391 17.7812 22.7656C17.8047 22.8047 17.8281 22.8359 17.8594 22.8672C17.8672 22.875 17.8672 22.875 17.875 22.875C18.4375 23.5703 19.0703 24.2109 19.7656 24.7734C19.7734 24.7812 19.7734 24.7812 19.7734 24.7891C19.8047 24.8203 19.8359 24.8437 19.875 24.8672C20.6016 25.4375 21.3906 25.9375 22.2266 26.3359C22.2578 26.3594 22.2969 26.375 22.3281 26.3828C23.25 26.8125 24.2422 27.1406 25.2734 27.3281C25.2891 27.3281 25.2969 27.3359 25.3125 27.3359C26.0469 27.4688 26.8047 27.5391 27.5703 27.5391C28.0312 27.5391 28.4844 27.5156 28.9297 27.4609C27.75 32.5078 23.2188 36.2734 17.8203 36.2734C11.5234 36.2891 6.40625 31.1719 6.40625 24.875C6.40625 21.7031 7.67969 18.7578 9.98438 16.5781C10.1875 16.3828 10.1953 16.0625 10.0078 15.8594C9.8125 15.6562 9.49219 15.6484 9.28906 15.8359C8.07031 16.9844 7.10938 18.3438 6.4375 19.8672C5.74219 21.4531 5.39062 23.1328 5.39062 24.875C5.39062 31.7266 10.9688 37.3047 17.8203 37.3047C23.8438 37.3047 28.875 33 30.0078 27.3125C35.1875 26.2812 39.2109 22.0234 39.8984 16.7266V16.7188C39.9688 16.1953 40 15.6641 40 15.125C40 14.3516 39.9297 13.5938 39.7969 12.8672ZM36.8281 8.46094C37.1641 8.92969 37.4688 9.42969 37.7344 9.94531L28.7344 18.9453C28.4531 18.4375 28.1406 17.9453 27.7969 17.4844L36.8281 8.46094ZM36.1953 7.65625L27.1641 16.6875C26.7891 16.2656 26.3906 15.8672 25.9609 15.4922L34.9922 6.46094C35.4219 6.82812 35.8281 7.22656 36.1953 7.65625ZM34.1875 5.82812L25.1641 14.8594C24.6953 14.5156 24.2109 14.2031 23.6953 13.9297L32.6953 4.92969C33.2188 5.19531 33.7188 5.49219 34.1875 5.82812ZM29.8516 3.9375C30.4922 4.07031 31.1094 4.25 31.7031 4.48438L22.7266 13.4609C22.1562 13.2109 21.5547 13.0078 20.9453 12.8516L29.8516 3.9375ZM26.1641 3.79687C26.625 3.74219 27.0938 3.71094 27.5703 3.71094C27.9141 3.71094 28.2578 3.72656 28.6016 3.75781L19.7578 12.6016C19.125 12.5 18.4766 12.4531 17.8203 12.4531C17.7188 12.4531 17.6172 12.4531 17.5078 12.4609L26.1641 3.79687ZM24.3516 4.17188L16.625 11.8984C17.7188 8.19531 20.6406 5.26562 24.3516 4.17188ZM16.2031 16.1484C16.1719 15.8125 16.1562 15.4688 16.1562 15.1172C16.1562 14.6406 16.1875 14.1719 16.2422 13.7109L16.4062 13.5469C16.875 13.4922 17.3438 13.4609 17.8125 13.4609C18.1562 13.4609 18.5 13.4766 18.8438 13.5078L16.2031 16.1484ZM16.3906 17.4062L20.1016 13.6953C20.7422 13.8281 21.3594 14.0078 21.9531 14.2422L16.9375 19.2578C16.7031 18.6641 16.5156 18.0391 16.3906 17.4062ZM18.2812 21.7422C17.9453 21.2734 17.6406 20.7734 17.3828 20.25L22.9531 14.6797C23.4766 14.9453 23.9766 15.2422 24.4453 15.5781L18.2812 21.7422ZM18.9141 22.5469L25.2422 16.2188C25.6719 16.5859 26.0703 16.9844 26.4453 17.4141L20.1016 23.75C19.6797 23.375 19.2812 22.9766 18.9141 22.5469ZM20.9062 24.3828L27.0781 18.2109C27.4141 18.6797 27.7188 19.1797 27.9844 19.6953L22.3906 25.2891C21.875 25.0234 21.375 24.7188 20.9062 24.3828ZM25.2188 26.2891C24.5859 26.1562 23.9688 25.9688 23.375 25.7344L28.4297 20.6797C28.6641 21.2734 28.8516 21.8828 28.9844 22.5234L25.2188 26.2891ZM29.1562 26.1875L28.8828 26.4609C28.4531 26.5078 28.0156 26.5391 27.5703 26.5391C27.1953 26.5391 26.8281 26.5234 26.4688 26.4844L29.1797 23.7734C29.2109 24.1328 29.2344 24.5078 29.2344 24.875C29.2344 25.3203 29.2031 25.7578 29.1562 26.1875ZM29.8281 21.6797C29.6641 21.0703 29.4609 20.4766 29.2109 19.9062L38.1875 10.9297C38.4219 11.5234 38.6094 12.1328 38.7422 12.7734L29.8281 21.6797ZM30.6719 26.1094L38.5547 18.2266C37.4766 22.0312 34.4766 25.0312 30.6719 26.1094ZM38.9062 16.4375L30.2422 25.1016C30.2422 25.0234 30.2422 24.9531 30.2422 24.875C30.2422 24.1875 30.1875 23.5234 30.0781 22.8672L38.9219 14.0234C38.9531 14.3828 38.9766 14.7578 38.9766 15.125C38.9844 15.5703 38.9609 16.0078 38.9062 16.4375Z" fill="url(#paint0_linear)"/>
<defs>
<linearGradient id="paint0_linear" x1="14.764" y1="4.13737" x2="39.5253" y2="9.83084" gradientUnits="userSpaceOnUse">
<stop stop-color="#B534BE"/>
<stop offset="1" stop-color="#451472"/>
</linearGradient>
</defs>
</svg>
