<?xml version="1.0" standalone="no"?>
<!DOCTYPE svg PUBLIC "-//W3C//DTD SVG 20010904//EN"
 "http://www.w3.org/TR/2001/REC-SVG-20010904/DTD/svg10.dtd">
<svg version="1.0" xmlns="http://www.w3.org/2000/svg"
 width="512.000000pt" height="512.000000pt" viewBox="0 0 512.000000 512.000000"
 preserveAspectRatio="xMidYMid meet">
<metadata>
Created by potrace 1.14, written by Peter Selinger 2001-2017
</metadata>
<g transform="translate(0.000000,512.000000) scale(0.100000,-0.100000)"
fill="#000000" stroke="none">
<path d="M1270 5114 c-165 -13 -284 -29 -369 -49 -419 -102 -744 -427 -846
-846 -49 -203 -50 -241 -50 -1659 0 -1418 1 -1456 50 -1659 102 -419 427 -744
846 -846 203 -49 241 -50 1659 -50 1418 0 1456 1 1659 50 419 102 744 427 846
846 49 203 50 241 50 1659 0 1418 -1 1456 -50 1659 -102 421 -429 746 -849
846 -201 48 -206 48 -1591 50 -720 1 -1330 0 -1355 -1z m1570 -553 c47 -6 101
-15 120 -20 19 -5 67 -17 105 -27 248 -60 518 -192 728 -355 105 -82 284 -261
366 -366 164 -210 296 -482 355 -728 10 -38 21 -83 26 -100 5 -16 16 -92 25
-168 23 -188 11 -507 -24 -637 -5 -19 -17 -66 -27 -105 -60 -248 -192 -518
-355 -728 -82 -105 -261 -284 -366 -366 -210 -163 -480 -295 -728 -355 -38
-10 -86 -22 -105 -27 -71 -18 -282 -39 -400 -39 -118 0 -329 21 -400 39 -19 5
-66 17 -105 27 -248 60 -518 192 -728 355 -105 82 -284 261 -366 366 -163 210
-295 480 -355 728 -10 39 -22 86 -27 105 -35 130 -47 449 -24 637 9 76 20 152
25 168 5 17 16 62 26 100 59 246 191 518 355 728 82 105 261 284 366 366 210
164 482 296 728 355 39 10 84 21 100 26 17 5 77 14 135 20 58 6 107 14 110 17
8 8 347 -4 440 -16z"/>
<path d="M2400 3954 c-78 -15 -205 -50 -275 -76 -110 -40 -278 -124 -294 -145
-8 -11 -40 -31 -70 -43 -30 -13 -313 -298 -335 -337 -8 -15 -18 -36 -22 -45
-3 -10 -10 -18 -15 -18 -5 0 -18 -20 -29 -44 -11 -25 -24 -48 -30 -51 -5 -3
-10 -15 -10 -25 0 -10 -3 -20 -7 -22 -16 -7 -77 -156 -107 -259 -62 -216 -62
-442 0 -658 30 -103 91 -252 107 -259 4 -2 7 -12 7 -22 0 -10 5 -22 10 -25 6
-3 19 -26 30 -51 11 -24 24 -44 29 -44 5 0 12 -8 15 -17 4 -10 14 -31 22 -46
22 -39 305 -324 335 -337 30 -12 62 -32 70 -43 16 -21 184 -105 294 -145 174
-65 244 -77 435 -77 191 0 261 12 435 77 110 40 278 124 294 145 8 11 40 31
70 43 30 13 313 298 335 337 8 15 18 36 22 46 3 9 10 17 15 17 5 0 18 20 29
44 11 25 24 48 30 51 5 3 10 15 10 25 0 10 3 20 8 22 15 7 76 156 106 259 62
216 62 442 0 658 -30 103 -91 252 -106 259 -5 2 -8 12 -8 22 0 10 -5 22 -10
25 -6 3 -19 26 -30 51 -11 24 -24 44 -29 44 -5 0 -12 8 -15 18 -4 9 -14 30
-22 45 -22 39 -305 324 -335 337 -30 12 -62 32 -70 43 -14 19 -178 101 -282
141 -157 60 -251 78 -422 82 -88 1 -171 0 -185 -2z"/>
</g>
</svg>
