<svg width="714" height="714" fill="none" xmlns="http://www.w3.org/2000/svg"><g opacity=".55" filter="url(#filter0_f_85_3)"><path d="M538 357c0 99.964-81.036 181-181 181s-181-81.036-181-181 81.036-181 181-181 181 81.036 181 181z" fill="#B1FA16" fill-opacity=".51"/></g><path d="M234 444c0-5.523 4.477-10 10-10h238c5.523 0 10 4.477 10 10v134c0 5.523-4.477 10-10 10H244c-5.523 0-10-4.477-10-10V444z" fill="#000"/><path fill-rule="evenodd" clip-rule="evenodd" d="M482 437H244a7 7 0 00-7 7v134a7 7 0 007 7h238a7 7 0 007-7V444a7 7 0 00-7-7zm-238-3c-5.523 0-10 4.477-10 10v134c0 5.523 4.477 10 10 10h238c5.523 0 10-4.477 10-10V444c0-5.523-4.477-10-10-10H244z" fill="#B1FA16"/><path d="M192 348c0-5.523 4.477-10 10-10h238c5.523 0 10 4.477 10 10v134c0 5.523-4.477 10-10 10H202c-5.523 0-10-4.477-10-10V348z" fill="#000"/><path fill-rule="evenodd" clip-rule="evenodd" d="M440 341H202a7 7 0 00-7 7v134a7 7 0 007 7h238a7 7 0 007-7V348a7 7 0 00-7-7zm-238-3c-5.523 0-10 4.477-10 10v134c0 5.523 4.477 10 10 10h238c5.523 0 10-4.477 10-10V348c0-5.523-4.477-10-10-10H202z" fill="#B1FA16"/><path d="M415.079 553.112h-7.867l4.92-30.558h7.866l-4.919 30.558zm28.515-29.811c-1.551-.618-4.012-1.301-7.055-1.301-7.768 0-13.239 4.161-13.272 10.11-.065 4.389 3.916 6.827 6.894 8.29 3.043 1.495 4.078 2.472 4.078 3.804-.031 2.048-2.459 2.991-4.724 2.991-3.141 0-4.823-.486-7.381-1.625l-1.035-.488-1.101 6.859c1.845.845 5.244 1.594 8.773 1.627 8.253 0 13.627-4.097 13.691-10.436.031-3.479-2.071-6.145-6.603-8.323-2.752-1.398-4.436-2.341-4.436-3.771.032-1.301 1.425-2.633 4.53-2.633 2.558-.065 4.437.552 5.86 1.17l.711.325 1.07-6.599zm10.455 18.986c.648-1.756 3.141-8.55 3.141-8.55-.033.065.646-1.788 1.035-2.926l.549 2.633s1.49 7.315 1.813 8.843h-6.538zm9.71-19.733h-6.085c-1.876 0-3.301.552-4.111 2.535l-11.684 28.023h8.254l1.65-4.584h10.1c.226 1.073.939 4.584.939 4.584h7.283l-6.346-30.558zm-63.117 0l-7.703 20.838-.842-4.226c-1.424-4.877-5.891-10.175-10.876-12.809l7.057 26.723h8.318l12.364-30.526h-8.318z" fill="#00579F"/><path d="M385.785 522.554h-12.656l-.129.617c9.872 2.536 16.411 8.649 19.097 15.996l-2.751-14.044c-.453-1.952-1.845-2.505-3.561-2.569z" fill="#FAA61A"/><path d="M367.37 421.678v-4.263c0-1.631-.96-2.698-2.608-2.698-.825 0-1.721.281-2.337 1.208-.48-.778-1.168-1.208-2.201-1.208-.688 0-1.376.215-1.92.993v-.853h-1.44v6.821h1.44v-3.766c0-1.209.616-1.78 1.576-1.78.961 0 1.441.637 1.441 1.78v3.766h1.44v-3.766c0-1.209.688-1.78 1.576-1.78.961 0 1.441.637 1.441 1.78v3.766h1.592zm21.365-6.821h-2.336v-2.061h-1.441v2.061h-1.304v1.35h1.304v3.128c0 1.565.617 2.483 2.265 2.483.616 0 1.304-.215 1.784-.496l-.416-1.283c-.416.281-.896.356-1.24.356-.688 0-.96-.431-.96-1.134v-3.054h2.336v-1.35h.008zm12.227-.149c-.824 0-1.376.431-1.72.994v-.853h-1.441v6.82h1.441v-3.84c0-1.134.48-1.78 1.376-1.78.272 0 .616.075.896.141l.416-1.424c-.288-.058-.696-.058-.968-.058zm-18.476.712c-.688-.496-1.649-.712-2.681-.712-1.648 0-2.745.853-2.745 2.202 0 1.134.825 1.78 2.265 1.987l.688.074c.752.141 1.168.356 1.168.712 0 .496-.552.852-1.512.852s-1.72-.356-2.2-.711l-.689 1.133c.753.572 1.785.853 2.817.853 1.921 0 3.025-.927 3.025-2.202 0-1.208-.896-1.845-2.265-2.061l-.688-.074c-.616-.075-1.096-.215-1.096-.637 0-.497.48-.778 1.24-.778.824 0 1.649.355 2.065.571l.608-1.209zm38.321-.712c-.824 0-1.376.431-1.72.994v-.853h-1.441v6.82h1.441v-3.84c0-1.134.48-1.78 1.376-1.78.272 0 .616.075.896.141l.416-1.407c-.28-.075-.688-.075-.968-.075zm-18.404 3.559c0 2.061 1.376 3.551 3.504 3.551.961 0 1.649-.215 2.337-.778l-.688-1.208c-.552.43-1.097.637-1.721.637-1.168 0-1.992-.852-1.992-2.202 0-1.282.824-2.135 1.992-2.201.616 0 1.169.215 1.721.637l.688-1.208c-.688-.571-1.376-.778-2.337-.778-2.128-.009-3.504 1.49-3.504 3.55zm13.323 0v-3.41h-1.441v.853c-.48-.637-1.168-.993-2.064-.993-1.857 0-3.297 1.49-3.297 3.55 0 2.061 1.44 3.551 3.297 3.551.96 0 1.648-.356 2.064-.993v.853h1.441v-3.411zm-5.29 0c0-1.208.753-2.201 1.993-2.201 1.168 0 1.992.927 1.992 2.201 0 1.209-.824 2.202-1.992 2.202-1.232-.074-1.993-1.001-1.993-2.202zm-17.236-3.559c-1.92 0-3.296 1.424-3.296 3.551 0 2.136 1.376 3.551 3.368 3.551.961 0 1.921-.281 2.681-.927l-.688-1.068c-.552.431-1.24.712-1.921.712-.896 0-1.784-.43-1.992-1.63h4.873v-.572c.064-2.193-1.176-3.617-3.025-3.617zm0 1.283c.897 0 1.513.571 1.649 1.631h-3.433c.136-.919.752-1.631 1.784-1.631zm35.785 2.276v-6.108h-1.44v3.551c-.481-.637-1.169-.993-2.065-.993-1.856 0-3.297 1.49-3.297 3.55 0 2.061 1.441 3.551 3.297 3.551.96 0 1.648-.356 2.065-.993v.853h1.44v-3.411zm-5.289 0c0-1.208.752-2.201 1.992-2.201 1.168 0 1.993.927 1.993 2.201 0 1.209-.825 2.202-1.993 2.202-1.24-.074-1.992-1.001-1.992-2.202zm-48.22 0v-3.41h-1.44v.853c-.48-.637-1.169-.993-2.065-.993-1.856 0-3.297 1.49-3.297 3.55 0 2.061 1.441 3.551 3.297 3.551.96 0 1.649-.356 2.065-.993v.853h1.44v-3.411zm-5.353 0c0-1.208.752-2.201 1.992-2.201 1.169 0 1.993.927 1.993 2.201 0 1.209-.824 2.202-1.993 2.202-1.24-.074-1.992-1.001-1.992-2.202z" fill="#878787"/><path d="M403.386 365.248H381.91v38.572h21.476v-38.572z" fill="#FF5A00"/><path d="M383.34 384.534c0-7.836 3.685-14.792 9.34-19.286-4.162-3.271-9.412-5.248-15.138-5.248C363.976 360 353 370.973 353 384.534c0 13.562 10.976 24.535 24.542 24.535 5.726 0 10.976-1.977 15.138-5.249-5.663-4.43-9.34-11.449-9.34-19.286z" fill="#EB001B"/><path d="M432.36 384.534c0 13.562-10.977 24.535-24.542 24.535-5.727 0-10.976-1.977-15.138-5.249 5.726-4.502 9.34-11.449 9.34-19.286 0-7.836-3.685-14.792-9.34-19.286A24.377 24.377 0 01407.81 360c13.573 0 24.55 11.044 24.55 24.534z" fill="#F79E1B"/><path d="M271.395 653h-147.79C113.318 653 105 643.456 105 631.664V296.359c0-11.793 8.318-21.359 18.605-21.359h32.437c.4 6.333 5.695 11.39 12.112 11.39h58.691c6.417 0 11.713-5.057 12.113-11.39h32.437c10.272 0 18.605 9.566 18.605 21.359v335.305c0 11.792-8.333 21.336-18.605 21.336z" fill="#000"/><path fill-rule="evenodd" clip-rule="evenodd" d="M123.605 276.5c-9.27 0-17.105 8.693-17.105 19.859v335.305c0 11.164 7.833 19.836 17.105 19.836h147.79c9.258 0 17.105-8.673 17.105-19.836V296.359c0-11.165-7.849-19.859-17.105-19.859h-31.102c-1.087 6.443-6.712 11.39-13.448 11.39h-58.691c-6.735 0-12.36-4.947-13.447-11.39h-31.102zM103.5 296.359c0-12.419 8.801-22.859 20.105-22.859h33.845l.089 1.405c.351 5.552 4.999 9.985 10.615 9.985h58.691c5.617 0 10.265-4.433 10.616-9.985l.089-1.405h33.845c11.289 0 20.105 10.439 20.105 22.859v335.305c0 12.422-8.818 22.836-20.105 22.836h-147.79c-11.302 0-20.105-10.415-20.105-22.836V296.359z" fill="#B1FA16"/><g filter="url(#filter1_f_85_3)"><path d="M242.681 475.431c-6.285 25.206-31.815 40.543-57.022 34.259-25.196-6.283-40.536-31.813-34.25-57.017 6.281-25.208 31.809-40.548 57.01-34.266 25.205 6.285 40.544 31.818 34.259 57.024h.003z" fill="#B1FA16"/></g><path d="M242.681 475.431c-6.285 25.206-31.815 40.543-57.022 34.259-25.196-6.283-40.536-31.813-34.25-57.017 6.281-25.208 31.809-40.548 57.01-34.266 25.205 6.285 40.544 31.818 34.259 57.024h.003z" fill="#B1FA16"/><path d="M171.868 483.8v-37.6h2.56v37.6h-2.56zm1-4.48c-2.134 0-4.174-.32-6.12-.96-1.947-.667-3.48-1.52-4.6-2.56l1.48-3.12c1.066.933 2.426 1.707 4.08 2.32 1.653.613 3.373.92 5.16.92 1.626 0 2.946-.187 3.96-.56 1.013-.373 1.76-.88 2.24-1.52.48-.667.72-1.413.72-2.24 0-.96-.32-1.733-.96-2.32-.614-.587-1.427-1.053-2.44-1.4a24.093 24.093 0 00-3.28-.96 66.01 66.01 0 01-3.64-.92c-1.2-.373-2.307-.84-3.32-1.4a6.905 6.905 0 01-2.4-2.24c-.614-.96-.92-2.187-.92-3.68 0-1.44.373-2.76 1.12-3.96.773-1.227 1.946-2.2 3.52-2.92 1.6-.747 3.626-1.12 6.08-1.12 1.626 0 3.24.213 4.84.64 1.6.427 2.986 1.04 4.16 1.84l-1.32 3.2a12.49 12.49 0 00-3.8-1.72c-1.334-.373-2.627-.56-3.88-.56-1.574 0-2.867.2-3.88.6-1.014.4-1.76.933-2.24 1.6a3.888 3.888 0 00-.68 2.24c0 .987.306 1.773.92 2.36.64.587 1.453 1.053 2.44 1.4a38.32 38.32 0 003.32.96c1.2.267 2.4.573 3.6.92 1.226.347 2.333.8 3.32 1.36a6.817 6.817 0 012.44 2.24c.613.933.92 2.133.92 3.6 0 1.413-.387 2.733-1.16 3.96-.774 1.2-1.974 2.173-3.6 2.92-1.6.72-3.627 1.08-6.08 1.08zm23.444 0a18.34 18.34 0 01-5.76-.92c-1.84-.613-3.347-1.44-4.52-2.48l1.84-3.16c.933.88 2.146 1.6 3.64 2.16 1.493.56 3.08.84 4.76.84 2.133 0 3.773-.453 4.92-1.36 1.146-.907 1.72-2.12 1.72-3.64 0-1.04-.254-1.947-.76-2.72-.507-.773-1.387-1.36-2.64-1.76-1.227-.427-2.92-.64-5.08-.64h-6.36l1.48-14.64h15.8v3.48h-14.32l2.08-1.96-1.16 11.56-2.08-1.92h5.4c2.8 0 5.053.36 6.76 1.08 1.706.72 2.946 1.72 3.72 3 .773 1.253 1.16 2.707 1.16 4.36 0 1.6-.387 3.067-1.16 4.4-.774 1.307-1.947 2.36-3.52 3.16-1.547.773-3.52 1.16-5.92 1.16zm25.368 0c-2.186 0-4.146-.56-5.88-1.68-1.706-1.12-3.066-2.747-4.08-4.88-.986-2.133-1.48-4.72-1.48-7.76s.494-5.627 1.48-7.76c1.014-2.133 2.374-3.76 4.08-4.88 1.734-1.12 3.694-1.68 5.88-1.68 2.16 0 4.107.56 5.84 1.68 1.734 1.12 3.094 2.747 4.08 4.88.987 2.133 1.48 4.72 1.48 7.76s-.493 5.627-1.48 7.76c-.986 2.133-2.346 3.76-4.08 4.88-1.733 1.12-3.68 1.68-5.84 1.68zm0-3.56c1.467 0 2.747-.4 3.84-1.2 1.12-.8 1.987-2 2.6-3.6.64-1.6.96-3.587.96-5.96 0-2.373-.32-4.36-.96-5.96-.613-1.6-1.48-2.8-2.6-3.6-1.093-.8-2.373-1.2-3.84-1.2-1.466 0-2.76.4-3.88 1.2-1.12.8-2 2-2.64 3.6-.613 1.6-.92 3.587-.92 5.96 0 2.373.307 4.36.92 5.96.64 1.6 1.52 2.8 2.64 3.6 1.12.8 2.414 1.2 3.88 1.2z" fill="#000"/><defs><filter id="filter0_f_85_3" x="0" y="0" width="714" height="714" filterUnits="userSpaceOnUse" color-interpolation-filters="sRGB"><feFlood flood-opacity="0" result="BackgroundImageFix"/><feBlend in="SourceGraphic" in2="BackgroundImageFix" result="shape"/><feGaussianBlur stdDeviation="88" result="effect1_foregroundBlur_85_3"/></filter><filter id="filter1_f_85_3" x="119" y="386" width="156.086" height="156.098" filterUnits="userSpaceOnUse" color-interpolation-filters="sRGB"><feFlood flood-opacity="0" result="BackgroundImageFix"/><feBlend in="SourceGraphic" in2="BackgroundImageFix" result="shape"/><feGaussianBlur stdDeviation="15.5" result="effect1_foregroundBlur_85_3"/></filter></defs></svg>