<svg width="143" height="42" fill="none" xmlns="http://www.w3.org/2000/svg"><path d="M142.967 37.63a4.086 4.086 0 01-4.089 4.087H5.044A4.091 4.091 0 01.95 37.63V5.041A4.096 4.096 0 015.044.95h133.833a4.09 4.09 0 014.089 4.092l.001 32.59z" fill="#000"/><path d="M12.604 24.634c0 .802-.657 1.458-1.458 1.458a1.462 1.462 0 01-1.459-1.458v-6.56c0-.802.657-1.459 1.459-1.459.801 0 1.457.657 1.457 1.459v6.56zm20.411 0c0 .802-.656 1.458-1.458 1.458a1.462 1.462 0 01-1.458-1.458v-6.56c0-.802.656-1.459 1.458-1.459.802 0 1.458.657 1.458 1.459v6.56zm-13.122 8.02c0 .801-.656 1.457-1.458 1.457a1.462 1.462 0 01-1.458-1.458v-6.56c0-.802.657-1.459 1.458-1.459.802 0 1.458.657 1.458 1.458v6.561zm5.832 0c0 .801-.656 1.457-1.458 1.457a1.462 1.462 0 01-1.458-1.458v-6.56c0-.802.656-1.459 1.458-1.459.802 0 1.458.657 1.458 1.458v6.561z" fill="#fff"/><path d="M14.061 16.615V27.55c0 .802.656 1.458 1.458 1.458h11.664c.802 0 1.458-.656 1.458-1.458V16.615h-14.58zm7.29-7.29c-4.374 0-7.071 2.625-7.29 5.832h14.58c-.218-3.207-2.916-5.832-7.29-5.832zm-2.916 4.083c-.437 0-.729-.292-.729-.73 0-.437.292-.728.73-.728.437 0 .728.291.728.729a.73.73 0 01-.729.729zm5.832 0c-.437 0-.729-.292-.729-.73 0-.437.292-.728.73-.728.437 0 .728.291.728.729a.73.73 0 01-.729.729z" fill="#fff"/><path d="M24.486 11.148c-.146 0-.292-.073-.437-.146-.365-.219-.438-.656-.22-1.02l1.24-1.823c.219-.365.656-.438 1.02-.219.365.219.438.656.22 1.02l-1.24 1.823c-.073.219-.291.365-.583.365zm-6.561-.292c-.219 0-.51-.146-.583-.364l-.948-1.531c-.219-.365-.146-.802.219-1.02.364-.22.802-.147 1.02.218l.948 1.53c.219.365.146.803-.219 1.021-.145.073-.291.146-.437.146zM56.09 7.905h2.688c.656 0 1.239.128 1.748.386.51.251.905.61 1.186 1.079.281.461.422.996.422 1.605 0 .608-.14 1.146-.422 1.613a2.865 2.865 0 01-1.186 1.08c-.51.25-1.092.376-1.748.376H56.09v-6.14zm2.636 5.174c.45 0 .846-.084 1.185-.254.346-.175.61-.42.791-.737a2.17 2.17 0 00.281-1.113c0-.421-.094-.79-.281-1.106a1.787 1.787 0 00-.79-.736c-.34-.176-.736-.263-1.186-.263h-1.494v4.21h1.494zm7.494 1.053a3.543 3.543 0 01-1.695-.403 3.064 3.064 0 01-1.186-1.132 3.129 3.129 0 01-.43-1.622c0-.597.143-1.135.43-1.614a2.982 2.982 0 011.186-1.132 3.481 3.481 0 011.695-.412 3.48 3.48 0 011.695.412c.504.27.9.644 1.186 1.123.287.48.43 1.02.43 1.623 0 .602-.143 1.143-.43 1.622-.287.48-.682.857-1.186 1.132a3.542 3.542 0 01-1.695.403zm0-1c.41 0 .779-.09 1.107-.272a2.04 2.04 0 00.773-.772c.187-.333.28-.704.28-1.113 0-.41-.093-.778-.28-1.106a1.962 1.962 0 00-.773-.771 2.194 2.194 0 00-1.107-.281c-.41 0-.779.094-1.107.28a1.96 1.96 0 00-.773.772 2.185 2.185 0 00-.281 1.106c0 .409.094.78.281 1.113.188.328.445.585.773.772a2.25 2.25 0 001.107.272zm13.31-5.227l-2.037 6.14H76.28L74.76 9.5l-1.546 4.543h-1.221l-2.038-6.14h1.186l1.528 4.667 1.59-4.666h1.054l1.555 4.692 1.573-4.692h1.089zm6.395 0v6.14h-.94l-3.39-4.158v4.157H80.46v-6.14h.94l3.39 4.158V7.905h1.134zm1.647 0h1.142v5.174h3.215v.965h-4.357v-6.14zm8.02 6.227a3.542 3.542 0 01-1.696-.403 3.065 3.065 0 01-1.186-1.132 3.129 3.129 0 01-.43-1.622c0-.597.144-1.135.43-1.614a2.983 2.983 0 011.186-1.132 3.48 3.48 0 011.696-.412 3.48 3.48 0 011.695.412c.503.27.899.644 1.186 1.123.287.48.43 1.02.43 1.623 0 .602-.143 1.143-.43 1.622-.287.48-.683.857-1.186 1.132a3.542 3.542 0 01-1.695.403zm0-1c.41 0 .779-.09 1.106-.272a2.04 2.04 0 00.773-.772c.188-.333.281-.704.281-1.113 0-.41-.093-.778-.28-1.106a1.962 1.962 0 00-.774-.771 2.193 2.193 0 00-1.106-.281c-.41 0-.78.094-1.107.28a1.962 1.962 0 00-.773.772 2.185 2.185 0 00-.281 1.106c0 .409.093.78.28 1.113.188.328.446.585.774.772a2.25 2.25 0 001.107.272zm8.424-.509h-3.075l-.606 1.421h-1.177l2.767-6.14h1.125l2.775 6.14h-1.194l-.615-1.42zm-.378-.894l-1.159-2.684-1.151 2.684h2.31zm2.969-3.824h2.688c.656 0 1.239.128 1.748.386.51.251.905.61 1.186 1.079.281.461.422.996.422 1.605 0 .608-.141 1.146-.422 1.613a2.862 2.862 0 01-1.186 1.08c-.509.25-1.092.376-1.748.376h-2.688v-6.14zm2.636 5.174c.45 0 .846-.084 1.185-.254.346-.175.609-.42.791-.737a2.17 2.17 0 00.281-1.113c0-.421-.094-.79-.281-1.106a1.788 1.788 0 00-.791-.736c-.339-.176-.735-.263-1.185-.263h-1.494v4.21h1.494zm11.037-.456h-3.074l-.606 1.421h-1.178l2.767-6.14h1.125l2.776 6.14h-1.195l-.615-1.42zm-.378-.894l-1.159-2.684-1.151 2.684h2.31zm5.499-3.824c.533 0 .996.088 1.388.263.398.175.703.427.914.754.211.328.316.716.316 1.167 0 .444-.105.833-.316 1.166a2.024 2.024 0 01-.914.754c-.392.176-.855.264-1.388.264h-1.388v1.771h-1.141v-6.14h2.529zm-.052 3.403c.497 0 .875-.105 1.133-.316.257-.21.386-.512.386-.903 0-.392-.129-.693-.386-.904-.258-.21-.636-.315-1.133-.315h-1.336v2.438h1.336zm5.927.166l-.975 1v1.57h-1.142v-6.14h1.142v3.15l3.04-3.15h1.282l-2.582 2.746 2.74 3.394h-1.335l-2.17-2.57zM67.051 30.877h-6.708l-1.322 3.1h-2.568l6.037-13.395h2.453L71 33.977h-2.606l-1.342-3.1zm-.824-1.952l-2.53-5.855-2.51 5.855h5.04zm12.056-5.281c1.29 0 2.325.376 3.104 1.129.78.753 1.17 1.869 1.17 3.349v5.855H80.16v-5.55c0-.892-.211-1.562-.633-2.008-.421-.46-1.022-.69-1.801-.69-.882 0-1.578.269-2.09.804-.51.523-.766 1.282-.766 2.277v5.167h-2.395V23.76h2.28v1.32c.396-.472.894-.83 1.495-1.072.6-.242 1.278-.363 2.032-.363zm17.43-3.865v14.198h-2.3v-1.32a3.692 3.692 0 01-1.476 1.09 4.887 4.887 0 01-1.917.364c-.983 0-1.871-.217-2.664-.65a4.713 4.713 0 01-1.84-1.837c-.447-.804-.67-1.723-.67-2.756 0-1.033.223-1.945.67-2.736a4.713 4.713 0 011.84-1.838c.793-.433 1.68-.65 2.664-.65a4.87 4.87 0 011.86.344c.562.23 1.04.574 1.437 1.034v-5.243h2.396zm-5.405 12.285c.575 0 1.092-.128 1.552-.383.46-.268.824-.644 1.093-1.13.268-.484.402-1.045.402-1.683 0-.638-.134-1.2-.402-1.684a2.771 2.771 0 00-1.093-1.11 3.028 3.028 0 00-1.552-.402c-.575 0-1.093.134-1.553.402-.46.255-.824.625-1.092 1.11-.268.485-.402 1.046-.402 1.684 0 .638.134 1.2.402 1.684.268.485.633.861 1.093 1.129.46.255.977.383 1.552.383zm10.819-6.813c.69-1.071 1.904-1.607 3.641-1.607v2.277a3.032 3.032 0 00-.555-.057c-.933 0-1.661.274-2.185.822-.524.536-.786 1.314-.786 2.335v4.956h-2.396V23.76h2.281v1.492zm10.18 8.86c-1.035 0-1.968-.223-2.798-.67a4.974 4.974 0 01-1.955-1.856c-.46-.803-.69-1.71-.69-2.717 0-1.008.23-1.907.69-2.698a4.974 4.974 0 011.955-1.856c.83-.447 1.763-.67 2.798-.67 1.048 0 1.987.223 2.817.67a4.84 4.84 0 011.936 1.856c.473.79.709 1.69.709 2.698s-.236 1.914-.709 2.717a4.839 4.839 0 01-1.936 1.856c-.83.447-1.769.67-2.817.67zm0-2.047c.881 0 1.61-.294 2.185-.88.575-.588.862-1.36.862-2.316 0-.957-.287-1.729-.862-2.316-.575-.586-1.304-.88-2.185-.88-.882 0-1.61.294-2.185.88-.562.587-.843 1.36-.843 2.316 0 .957.281 1.729.843 2.315.575.587 1.303.88 2.185.88zm7.753-8.305h2.395v10.218h-2.395V23.76zm1.207-1.684c-.434 0-.798-.134-1.092-.402a1.373 1.373 0 01-.441-1.033c0-.409.147-.747.441-1.015a1.52 1.52 0 011.092-.42c.435 0 .799.133 1.093.401.293.255.44.58.44.976 0 .421-.147.778-.44 1.072-.282.28-.646.42-1.093.42zm14.356-2.296v14.198h-2.3v-1.32a3.693 3.693 0 01-1.475 1.09 4.888 4.888 0 01-1.917.364c-.984 0-1.872-.217-2.664-.65a4.715 4.715 0 01-1.84-1.837c-.447-.804-.671-1.723-.671-2.756 0-1.033.224-1.945.671-2.736a4.715 4.715 0 011.84-1.838c.792-.433 1.68-.65 2.664-.65a4.87 4.87 0 011.859.344c.562.23 1.041.574 1.437 1.034v-5.243h2.396zm-5.404 12.285c.574 0 1.092-.128 1.552-.383.46-.268.824-.644 1.092-1.13.269-.484.403-1.045.403-1.683 0-.638-.134-1.2-.403-1.684a2.768 2.768 0 00-1.092-1.11 3.03 3.03 0 00-1.552-.402 3.03 3.03 0 00-1.553.402c-.46.255-.824.625-1.092 1.11-.269.485-.403 1.046-.403 1.684 0 .638.134 1.2.403 1.684a2.9 2.9 0 001.092 1.129c.46.255.978.383 1.553.383z" fill="#fff"/></svg>