<svg width="143" height="42" fill="none" xmlns="http://www.w3.org/2000/svg"><path d="M142.967 37.562a4.082 4.082 0 01-4.089 4.08H5.044a4.087 4.087 0 01-4.095-4.08V5.032A4.093 4.093 0 015.044.948h133.833a4.086 4.086 0 014.089 4.084l.001 32.53z" fill="#000"/><path d="M28.18 22.45c-.032-3.433 2.814-5.103 2.944-5.18-1.611-2.347-4.11-2.668-4.987-2.693-2.099-.22-4.134 1.253-5.203 1.253-1.09 0-2.736-1.232-4.51-1.196-2.282.035-4.417 1.355-5.589 3.404-2.417 4.178-.614 10.318 1.702 13.696 1.158 1.654 2.512 3.5 4.283 3.435 1.734-.07 2.381-1.103 4.473-1.103 2.073 0 2.68 1.103 4.487 1.062 1.86-.03 3.032-1.661 4.15-3.33 1.338-1.896 1.876-3.763 1.897-3.86-.043-.014-3.613-1.374-3.648-5.488zm-3.414-10.095c.932-1.164 1.57-2.748 1.393-4.355-1.35.06-3.037.932-4.008 2.07-.86 1.004-1.628 2.648-1.43 4.195 1.516.112 3.072-.764 4.045-1.91zm36.702 19.931h-2.423l-1.327-4.163h-4.612l-1.264 4.163h-2.358l4.57-14.174h2.822l4.592 14.174zm-4.15-5.91l-1.2-3.7c-.127-.379-.364-1.27-.715-2.67h-.043c-.14.602-.365 1.492-.674 2.67l-1.179 3.7h3.811zm15.902.674c0 1.739-.471 3.113-1.412 4.121-.843.898-1.889 1.346-3.138 1.346-1.348 0-2.317-.483-2.907-1.45h-.042v5.384h-2.274V25.43c0-1.093-.03-2.215-.085-3.365h2l.127 1.62h.043c.758-1.22 1.91-1.83 3.454-1.83 1.207 0 2.215.476 3.022 1.43.808.954 1.211 2.208 1.211 3.764zm-2.317.084c0-.995-.224-1.815-.675-2.46-.491-.674-1.152-1.01-1.98-1.01-.56 0-1.07.187-1.526.557-.456.372-.755.86-.895 1.462a2.97 2.97 0 00-.105.692v1.704c0 .744.228 1.371.685 1.883.456.513 1.05.768 1.779.768.856 0 1.523-.33 2-.988.478-.66.717-1.529.717-2.608zm14.089-.084c0 1.739-.47 3.113-1.412 4.121-.842.898-1.888 1.346-3.137 1.346-1.348 0-2.317-.483-2.906-1.45h-.042v5.384H75.22V25.43a69.22 69.22 0 00-.084-3.365h2l.127 1.62h.043c.757-1.22 1.908-1.83 3.454-1.83 1.206 0 2.214.476 3.023 1.43.805.954 1.21 2.208 1.21 3.764zm-2.317.084c0-.995-.225-1.815-.675-2.46-.492-.674-1.15-1.01-1.978-1.01a2.37 2.37 0 00-1.528.557c-.456.372-.754.86-.894 1.462a3.03 3.03 0 00-.105.692v1.704c0 .744.228 1.371.682 1.883.457.512 1.05.768 1.782.768.856 0 1.523-.33 2-.988.477-.66.716-1.529.716-2.608zm15.48 1.178c0 1.205-.42 2.186-1.261 2.944-.925.827-2.212 1.24-3.867 1.24-1.527 0-2.752-.294-3.679-.883l.527-1.892a6.241 6.241 0 003.288.905c.856 0 1.523-.194 2.002-.58.477-.385.715-.902.715-1.548 0-.575-.197-1.06-.59-1.453-.392-.393-1.046-.758-1.959-1.096-2.485-.925-3.727-2.281-3.727-4.064 0-1.165.436-2.12 1.307-2.864.868-.744 2.027-1.116 3.475-1.116 1.292 0 2.365.225 3.222.673l-.569 1.851c-.8-.434-1.704-.652-2.717-.652-.8 0-1.425.197-1.873.59-.379.35-.568.777-.568 1.283 0 .56.216 1.023.651 1.388.38.336 1.067.7 2.066 1.093 1.22.491 2.118 1.065 2.695 1.724.575.656.862 1.477.862 2.457zm7.519-4.542h-2.507v4.962c0 1.262.441 1.893 1.327 1.893.406 0 .743-.035 1.01-.106l.063 1.725c-.448.167-1.038.251-1.769.251-.898 0-1.6-.274-2.106-.82-.505-.547-.759-1.466-.759-2.755v-5.152H99.44v-1.704h1.493v-1.871l2.234-.674v2.545h2.507v1.706zm11.31 3.322c0 1.571-.451 2.86-1.349 3.87-.942 1.038-2.192 1.555-3.75 1.555-1.502 0-2.698-.497-3.589-1.492-.892-.994-1.338-2.25-1.338-3.763 0-1.584.459-2.881 1.379-3.89.919-1.01 2.158-1.515 3.716-1.515 1.502 0 2.711.498 3.623 1.494.872.966 1.308 2.213 1.308 3.741zm-2.36.074c0-.943-.201-1.751-.61-2.425-.477-.816-1.158-1.223-2.042-1.223-.914 0-1.608.408-2.085 1.223-.408.675-.61 1.496-.61 2.467 0 .943.202 1.751.61 2.424.492.816 1.179 1.223 2.065 1.223.868 0 1.55-.415 2.042-1.244.419-.687.63-1.504.63-2.445zm9.752-3.103a3.958 3.958 0 00-.717-.063c-.8 0-1.419.302-1.854.905-.379.533-.569 1.206-.569 2.019v5.362h-2.273l.022-7.001c0-1.178-.029-2.25-.086-3.218h1.981l.083 1.956h.063c.24-.672.619-1.214 1.137-1.62a2.754 2.754 0 011.644-.547c.21 0 .4.015.569.042v2.165zm10.17 2.63c0 .407-.026.75-.083 1.03h-6.822c.026 1.01.356 1.782.99 2.314.574.476 1.318.715 2.231.715 1.01 0 1.932-.161 2.761-.484l.356 1.576c-.969.422-2.112.632-3.432.632-1.587 0-2.833-.466-3.739-1.398-.905-.932-1.358-2.184-1.358-3.754 0-1.54.421-2.824 1.265-3.848.883-1.092 2.077-1.639 3.578-1.639 1.476 0 2.592.547 3.351 1.64.6.867.902 1.94.902 3.216zm-2.168-.59c.015-.672-.134-1.254-.442-1.745-.393-.631-.998-.947-1.812-.947-.744 0-1.348.308-1.81.926-.379.49-.604 1.08-.673 1.766h4.737zM56.566 9.393c0 1.254-.376 2.197-1.128 2.831-.697.585-1.686.878-2.969.878-.635 0-1.18-.028-1.635-.083v-6.85a12.087 12.087 0 011.926-.145c1.22 0 2.141.266 2.762.796.696.6 1.044 1.457 1.044 2.573zm-1.178.031c0-.813-.216-1.436-.647-1.87-.43-.434-1.06-.65-1.889-.65-.352 0-.651.023-.9.072v5.206c.138.022.39.031.755.031.856 0 1.516-.237 1.981-.712.465-.475.7-1.167.7-2.077zm7.428 1.064c0 .772-.22 1.405-.662 1.901-.463.51-1.077.765-1.842.765-.738 0-1.326-.244-1.765-.734-.437-.489-.656-1.105-.656-1.849 0-.777.225-1.415.678-1.91.452-.496 1.06-.744 1.826-.744.738 0 1.331.244 1.78.733.427.475.641 1.088.641 1.838zm-1.16.036c0-.463-.1-.86-.299-1.192-.235-.4-.569-.6-1.003-.6-.449 0-.79.2-1.025.6-.2.332-.3.735-.3 1.212 0 .464.1.861.3 1.192.242.4.58.601 1.015.601.426 0 .761-.204 1.002-.611.207-.338.31-.739.31-1.202zm9.54-2.504l-1.574 5.02h-1.024l-.651-2.18c-.166-.544-.3-1.086-.405-1.622h-.02a11.851 11.851 0 01-.404 1.622l-.692 2.18H65.39l-1.48-5.02h1.15l.568 2.386c.137.564.25 1.102.341 1.611h.02c.084-.42.221-.954.415-1.6l.714-2.397h.91l.684 2.346c.166.572.3 1.122.404 1.653h.03c.076-.517.19-1.068.342-1.653l.61-2.346h1.098zm5.795 5.02h-1.118v-2.876c0-.886-.337-1.329-1.013-1.329-.332 0-.6.122-.808.365a1.3 1.3 0 00-.31.861v2.978h-1.118V9.454c0-.441-.014-.92-.04-1.437h.982l.052.785h.031c.13-.244.325-.445.58-.606a1.892 1.892 0 011.013-.282c.47 0 .86.151 1.17.455.386.371.58.926.58 1.663v3.008zm3.083 0h-1.117V5.715h1.117v7.325zm6.581-2.552c0 .772-.22 1.405-.662 1.901-.463.51-1.078.765-1.843.765-.739 0-1.326-.244-1.764-.734-.437-.489-.656-1.105-.656-1.849 0-.777.225-1.415.678-1.91.452-.496 1.06-.744 1.825-.744.739 0 1.33.244 1.781.733.427.475.641 1.088.641 1.838zm-1.16.036c0-.463-.1-.86-.3-1.192-.234-.4-.569-.6-1.002-.6-.45 0-.791.2-1.025.6-.2.332-.3.735-.3 1.212 0 .464.1.861.3 1.192.242.4.58.601 1.014.601.427 0 .761-.204 1.002-.611.208-.338.31-.739.31-1.202zm6.57 2.516h-1.004l-.083-.578h-.03c-.344.46-.834.692-1.47.692-.474 0-.858-.152-1.147-.455a1.425 1.425 0 01-.394-1.022c0-.614.256-1.081.772-1.405.514-.324 1.237-.483 2.168-.475v-.094c0-.661-.348-.991-1.044-.991a2.34 2.34 0 00-1.311.371l-.227-.733c.467-.288 1.044-.433 1.724-.433 1.314 0 1.974.692 1.974 2.077v1.849c0 .501.024.9.072 1.197zm-1.16-1.725v-.775c-1.233-.021-1.85.317-1.85 1.012 0 .262.07.458.214.589a.783.783 0 00.547.196c.245 0 .474-.078.683-.232a.951.951 0 00.406-.79zm7.512 1.725h-.992l-.052-.806h-.031c-.317.613-.856.92-1.615.92-.606 0-1.11-.238-1.51-.713-.4-.475-.6-1.091-.6-1.849 0-.812.217-1.47.652-1.973.421-.469.938-.703 1.552-.703.675 0 1.148.227 1.416.681h.022V5.715h1.119v5.972c0 .489.013.94.04 1.353zm-1.158-2.118v-.837a1.27 1.27 0 00-.435-1.028 1.1 1.1 0 00-.748-.273c-.417 0-.744.165-.984.496-.237.331-.358.754-.358 1.27 0 .497.114.9.343 1.21.243.33.569.495.978.495.366 0 .66-.138.883-.414.215-.254.32-.56.32-.919zm10.719-.434c0 .772-.221 1.405-.663 1.901-.463.51-1.075.765-1.842.765-.737 0-1.325-.244-1.764-.734-.438-.489-.656-1.105-.656-1.849 0-.777.225-1.415.677-1.91.452-.496 1.06-.744 1.827-.744.737 0 1.331.244 1.779.733.427.475.642 1.088.642 1.838zm-1.159.036c0-.463-.1-.86-.3-1.192-.235-.4-.568-.6-1.003-.6-.448 0-.79.2-1.025.6-.201.332-.3.735-.3 1.212 0 .464.1.861.3 1.192.242.4.579.601 1.014.601.427 0 .763-.204 1.004-.611.206-.338.31-.739.31-1.202zm7.169 2.516h-1.116v-2.876c0-.886-.337-1.329-1.015-1.329-.331 0-.599.122-.806.365a1.29 1.29 0 00-.311.861v2.978h-1.118V9.454c0-.441-.013-.92-.04-1.437h.981l.053.785h.031c.131-.244.325-.445.579-.606a1.894 1.894 0 011.014-.282c.468 0 .859.151 1.169.455.387.371.579.926.579 1.663v3.008zm7.523-4.185h-1.231v2.44c0 .62.219.929.652.929.201 0 .367-.017.498-.052l.029.846c-.221.084-.511.125-.868.125-.442 0-.785-.134-1.034-.402-.249-.269-.373-.72-.373-1.354V8.855h-.735V8.02h.735V7.1l1.095-.33v1.25h1.231l.001.836zm5.918 4.185h-1.119v-2.855c0-.9-.337-1.35-1.012-1.35-.518 0-.872.26-1.066.783a1.4 1.4 0 00-.053.401v3.02h-1.117V5.715h1.117v3.026h.022c.352-.55.856-.825 1.51-.825.463 0 .846.151 1.15.455.379.378.568.94.568 1.683v2.986zm6.105-2.748c0 .2-.015.369-.041.506h-3.353c.015.496.175.874.485 1.136.284.235.65.352 1.098.352.496 0 .948-.079 1.356-.238l.175.776c-.477.206-1.038.31-1.688.31-.779 0-1.392-.23-1.836-.687-.445-.458-.666-1.073-.666-1.844 0-.757.206-1.388.621-1.89.433-.537 1.018-.806 1.757-.806.724 0 1.273.269 1.644.806.3.426.448.953.448 1.58zm-1.067-.288a1.5 1.5 0 00-.216-.858c-.194-.31-.49-.465-.89-.465-.364 0-.662.15-.889.454-.186.242-.296.53-.332.869h2.327z" fill="#fff"/></svg>