<svg width="143" height="42" fill="none" xmlns="http://www.w3.org/2000/svg"><path d="M142.967 37.63a4.086 4.086 0 01-4.089 4.087H5.044A4.091 4.091 0 01.95 37.63V5.041A4.096 4.096 0 015.044.95h133.833a4.09 4.09 0 014.089 4.092l.001 32.59z" fill="#000"/><path d="M52.724 30.382c-1.12 0-2.059-.38-2.814-1.137-.758-.758-1.137-1.703-1.137-2.837 0-1.134.38-2.079 1.137-2.837.758-.758 1.697-1.137 2.814-1.137s2.079.414 2.794 1.243l-.68.658c-.518-.643-1.221-.968-2.114-.968-.83 0-1.527.279-2.099.839-.571.56-.855 1.292-.855 2.2 0 .906.284 1.639.855 2.199.569.56 1.27.838 2.099.838.913 0 1.694-.368 2.337-1.106l.68.68c-.347.42-.783.75-1.306.994a4.006 4.006 0 01-1.711.368v.003zm4.866-7.776v2.4l-.043.724h.044c.14-.247.364-.46.668-.631a1.95 1.95 0 01.977-.262c.643 0 1.137.198 1.475.595.34.396.511.927.511 1.593v3.187h-.976v-3.038c0-.961-.428-1.444-1.286-1.444-.405 0-.732.161-.988.483a1.747 1.747 0 00-.382 1.12v2.88h-.976v-7.607h.977zm5.757 7.607h-.976v-5.206h.936v.85h.043c.1-.284.302-.517.612-.7.307-.184.605-.276.898-.276.293 0 .534.043.733.126l-.374.913a1.488 1.488 0 00-.52-.074c-.352 0-.668.14-.938.419-.273.278-.408.646-.408 1.1v2.848h-.006zm3.018-4.586c.502-.528 1.142-.792 1.923-.792.781 0 1.422.264 1.924.792.503.529.755 1.189.755 1.981 0 .793-.252 1.453-.755 1.981-.502.529-1.143.793-1.924.793-.78 0-1.42-.264-1.923-.793-.503-.528-.755-1.188-.755-1.98 0-.793.252-1.454.755-1.982zm.726 3.348a1.61 1.61 0 001.195.514 1.62 1.62 0 001.194-.514c.336-.345.505-.798.505-1.364 0-.566-.17-1.022-.505-1.364a1.611 1.611 0 00-1.194-.514c-.46 0-.859.173-1.195.514-.336.342-.505.799-.505 1.364 0 .566.17 1.022.505 1.364zm4.66 1.237v-5.205h.936v.723h.043c.15-.247.376-.459.686-.631a1.87 1.87 0 01.92-.262c.806 0 1.355.334 1.645 1 .424-.666 1.03-1 1.817-1 .617 0 1.08.196 1.392.589.313.393.468.927.468 1.6v3.186h-.976v-3.038c0-.525-.094-.895-.287-1.113-.192-.219-.482-.33-.87-.33s-.7.163-.95.487a1.765 1.765 0 00-.376 1.114v2.88h-.977v-3.038c0-.525-.094-.895-.287-1.113-.192-.219-.482-.33-.87-.33-.387 0-.7.163-.95.487a1.765 1.765 0 00-.376 1.114v2.88h-.988zm11.41.17c-.787 0-1.424-.262-1.918-.787-.49-.522-.738-1.186-.738-1.987 0-.758.239-1.41.718-1.955.48-.545 1.088-.818 1.832-.818s1.39.252 1.855.755c.465.502.695 1.174.695 2.018l-.012.181h-4.111c.028.526.203.939.525 1.243.322.305.7.457 1.131.457.7 0 1.174-.299 1.424-.893l.87.362c-.17.405-.45.74-.838 1.013-.39.273-.867.408-1.436.408l.003.003zm1.401-3.4c-.02-.298-.158-.58-.407-.85-.253-.27-.626-.404-1.12-.404-.362 0-.675.114-.939.338-.264.224-.448.532-.548.914h3.017l-.003.002zm12.878-4.376l-2.03 7.606h-1L92.774 25.2h-.043l-1.637 5.013h-1l-2.112-7.606H89l1.605 5.981h.043l1.648-4.961h.913l1.648 4.961h.043l1.52-5.98h1.018zm2.538 7.776c-.787 0-1.424-.262-1.918-.787-.491-.522-.738-1.186-.738-1.987 0-.758.238-1.41.718-1.955.48-.545 1.088-.818 1.831-.818.744 0 1.39.252 1.855.755.465.502.695 1.174.695 2.018l-.012.181h-4.111c.029.526.204.939.525 1.243.322.305.701.457 1.132.457.7 0 1.174-.299 1.424-.893l.87.362c-.17.405-.451.74-.839 1.013-.39.273-.867.408-1.435.408l.003.003zm1.401-3.4c-.02-.298-.158-.58-.408-.85-.253-.27-.626-.404-1.12-.404a1.41 1.41 0 00-.939.338c-.264.224-.448.532-.548.914h3.018l-.003.002zm4.685 3.4a2.23 2.23 0 01-1.068-.256c-.315-.17-.551-.382-.706-.637h-.043v.723h-.936v-7.606h.976v2.4l-.043.724h.043c.155-.255.391-.468.707-.637a2.22 2.22 0 011.068-.256c.671 0 1.254.265 1.742.796.489.53.733 1.188.733 1.975 0 .787-.244 1.444-.733 1.975-.488.532-1.068.796-1.742.796l.002.003zm-.16-.893c.453 0 .844-.173 1.168-.514.325-.342.488-.799.488-1.364 0-.566-.163-1.022-.488-1.364a1.556 1.556 0 00-1.168-.514c-.454 0-.853.17-1.175.511-.321.339-.482.796-.482 1.37 0 .574.161 1.03.482 1.37a1.56 1.56 0 001.175.51v-.005zm7.861.893c-.551 0-1.091-.181-1.619-.543-.528-.362-.873-.867-1.037-1.519l.893-.362c.107.42.325.77.655 1.057.33.287.7.43 1.111.43.411 0 .787-.111 1.088-.335.302-.224.451-.526.451-.907 0-.425-.149-.753-.451-.982-.301-.23-.778-.445-1.43-.644-.671-.212-1.183-.488-1.53-.824-.347-.336-.52-.766-.52-1.292 0-.525.216-1.019.649-1.424.431-.405.994-.606 1.689-.606.643 0 1.168.161 1.573.483.405.321.666.674.787 1.056l-.893.37c-.063-.24-.221-.464-.474-.668-.253-.204-.574-.308-.971-.308-.376 0-.694.104-.961.313-.267.21-.399.468-.399.781 0 .285.123.523.367.718.244.196.603.37 1.08.526a9.1 9.1 0 01.939.35c.252.112.505.264.763.45.259.187.454.423.586.701.132.279.195.603.195.97 0 .368-.077.698-.23.988a1.87 1.87 0 01-.605.692 3.027 3.027 0 01-1.706.52v.009zm5.547-.086c-.546 0-.962-.144-1.249-.437-.287-.293-.431-.7-.431-1.231v-2.73h-.913v-.894h.913v-1.593h.976v1.593h1.275v.893h-1.275v2.656c0 .566.233.85.701.85.178 0 .324-.029.445-.086l.339.838a1.983 1.983 0 01-.787.138l.006.003zm1.912-4.669c.503-.528 1.143-.792 1.924-.792.781 0 1.421.264 1.924.792.502.529.755 1.189.755 1.981 0 .793-.253 1.453-.755 1.981-.503.529-1.143.793-1.924.793-.781 0-1.421-.264-1.924-.793-.502-.528-.755-1.188-.755-1.98 0-.793.253-1.454.755-1.982zm.727 3.348a1.61 1.61 0 001.194.514c.46 0 .859-.172 1.195-.514.336-.345.505-.798.505-1.364 0-.566-.169-1.022-.505-1.364a1.612 1.612 0 00-1.195-.514c-.459 0-.858.173-1.194.514-.336.342-.506.799-.506 1.364 0 .566.167 1.022.506 1.364zm5.636 1.238h-.976v-5.206h.936v.85h.043c.1-.284.301-.517.611-.7.308-.184.609-.276.899-.276.29 0 .534.043.732.126l-.37.913a1.49 1.49 0 00-.52-.074c-.353 0-.669.14-.939.419-.272.278-.407.646-.407 1.1v2.848h-.009zm4.918.169c-.787 0-1.424-.262-1.918-.787-.491-.522-.738-1.186-.738-1.987 0-.758.239-1.41.718-1.955.48-.545 1.088-.818 1.832-.818s1.39.252 1.855.755c.465.502.695 1.174.695 2.018l-.012.181h-4.111c.028.526.203.939.525 1.243.322.305.701.457 1.131.457.701 0 1.175-.299 1.424-.893l.87.362c-.169.405-.45.74-.838 1.013-.391.273-.867.408-1.436.408l.003.003zm1.401-3.4c-.02-.298-.158-.58-.407-.85-.253-.27-.626-.404-1.12-.404-.362 0-.675.114-.939.338-.264.224-.448.532-.548.914h3.017l-.003.002zm-84.567-8.579l2.17-5.757h.836l2.17 5.757h-.82l-.555-1.56h-2.42l-.563 1.56h-.821.003zm1.63-2.251h1.913l-.942-2.596h-.032l-.941 2.596h.002zm4.864 2.251l-1.59-3.94h.804l1.157 3.056h.017l1.174-3.055h.787l-1.608 3.94h-.74zm3.997.129c-.42 0-.767-.12-1.048-.361-.281-.242-.422-.56-.422-.957 0-.427.166-.766.5-1.007.333-.245.74-.365 1.228-.365.434 0 .79.08 1.068.241v-.112c0-.29-.1-.52-.298-.695a1.065 1.065 0 00-.732-.26c-.216 0-.408.05-.583.151a.797.797 0 00-.36.42l-.674-.29c.092-.236.27-.454.54-.655.267-.201.623-.302 1.062-.302.503 0 .922.147 1.255.443.333.295.5.709.5 1.246v2.38h-.707v-.546h-.031c-.296.451-.727.675-1.295.675l-.003-.006zm.12-.674c.305 0 .583-.115.833-.342.25-.227.373-.497.373-.807-.21-.172-.522-.258-.941-.258-.36 0-.63.077-.813.232-.18.155-.273.339-.273.546 0 .192.084.344.25.46a1 1 0 00.572.169zm3.552-4.385c-.1.1-.224.152-.37.152a.51.51 0 01-.37-.152.505.505 0 01-.153-.37.51.51 0 01.152-.37.503.503 0 01.37-.153.51.51 0 01.371.152.51.51 0 01.152.37.51.51 0 01-.152.371zm0 4.927h-.74v-3.94h.74v3.94zm1.706.003h-.741v-5.757h.74v5.757zm2.104.129c-.419 0-.766-.12-1.048-.361-.281-.242-.422-.56-.422-.957 0-.427.167-.766.5-1.007.333-.245.74-.365 1.229-.365.433 0 .79.08 1.068.241v-.112c0-.29-.1-.52-.299-.695a1.065 1.065 0 00-.732-.26c-.215 0-.408.05-.583.151a.797.797 0 00-.359.42l-.674-.29c.091-.236.27-.454.54-.655.266-.201.622-.302 1.062-.302.502 0 .921.147 1.254.443.334.295.5.709.5 1.246v2.38h-.706v-.546h-.032c-.296.451-.726.675-1.295.675l-.003-.006zm.12-.674c.305 0 .584-.115.834-.342.25-.227.373-.497.373-.807-.21-.172-.523-.258-.942-.258-.359 0-.629.077-.813.232-.18.155-.272.339-.272.546 0 .192.083.344.25.46a1 1 0 00.57.169zm4.833.674a1.66 1.66 0 01-.807-.192 1.372 1.372 0 01-.534-.483h-.032v.546h-.706v-5.757h.74v1.818l-.03.545h.03c.118-.192.296-.353.535-.482.238-.13.508-.192.807-.192.508 0 .947.2 1.317.602.37.402.555.902.555 1.496 0 .595-.184 1.094-.555 1.496-.37.402-.81.603-1.317.603h-.003zm-.12-.675c.34 0 .637-.129.883-.39.247-.261.37-.603.37-1.034 0-.43-.123-.772-.37-1.033a1.175 1.175 0 00-.884-.39c-.342 0-.643.128-.887.384-.244.258-.365.603-.365 1.036 0 .434.12.781.365 1.037.244.258.54.385.887.385v.005zm3.368.546h-.741v-5.757h.74v5.757zm2.647.129c-.595 0-1.08-.198-1.45-.594-.374-.396-.56-.899-.56-1.505 0-.574.18-1.065.542-1.478a1.76 1.76 0 011.387-.62c.563 0 1.05.19 1.404.571.353.382.525.89.525 1.527l-.008.138h-3.112c.02.397.155.71.399.942.244.23.528.345.855.345.531 0 .89-.224 1.077-.675l.66.273a1.769 1.769 0 01-.634.766c-.296.207-.658.31-1.086.31zm1.062-2.572c-.017-.224-.12-.44-.31-.643-.19-.204-.474-.305-.847-.305a1.06 1.06 0 00-.712.259 1.314 1.314 0 00-.414.692h2.283v-.003zm4.034-2.487c-.1.1-.224.152-.37.152a.51.51 0 01-.371-.152.494.494 0 01-.152-.37.51.51 0 01.152-.37.503.503 0 01.37-.153.51.51 0 01.37.152.51.51 0 01.153.37.51.51 0 01-.152.371zm0 4.927h-.741v-3.94h.74v3.94zm1.671-3.936v.545h.031c.107-.187.276-.347.506-.48a1.47 1.47 0 01.74-.197c.489 0 .862.149 1.118.45.258.299.384.704.384 1.206V18.4h-.74v-2.3c0-.73-.325-1.094-.974-1.094a.908.908 0 00-.746.365c-.193.244-.29.525-.29.847v2.18h-.741v-3.94h.706l.006.006zm7.123 4.002c-.413 0-.726-.109-.944-.33-.219-.221-.325-.531-.325-.933v-2.067h-.692v-.675h.692v-1.206h.74v1.206h.966v.675h-.965v2.01c0 .427.178.642.531.642.135 0 .247-.02.339-.063l.258.635a1.51 1.51 0 01-.594.103l-.006.003zm1.921-5.82v1.818l-.031.545h.031c.106-.186.276-.347.505-.48.23-.131.477-.197.741-.197.488 0 .862.149 1.117.45.258.3.385.704.385 1.206V18.4h-.74v-2.3c0-.729-.325-1.094-.974-1.094a.908.908 0 00-.747.365 1.33 1.33 0 00-.29.847v2.18h-.74V12.64h.74l.003.005zm5.401 5.886c-.594 0-1.08-.198-1.45-.594-.373-.396-.56-.899-.56-1.505 0-.574.18-1.065.543-1.478a1.76 1.76 0 011.386-.62c.563 0 1.051.19 1.404.571.354.382.526.89.526 1.527l-.009.138H98.1c.02.397.155.71.399.942.244.23.528.345.856.345.53 0 .89-.224 1.076-.675l.661.273a1.77 1.77 0 01-.635.766c-.296.207-.657.31-1.085.31zm1.062-2.572c-.017-.224-.12-.44-.31-.643-.19-.204-.474-.305-.847-.305a1.06 1.06 0 00-.712.259 1.314 1.314 0 00-.413.692h2.282v-.003z" fill="#fff"/><mask id="a" style="mask-type:luminance" maskUnits="userSpaceOnUse" x="9" y="7" width="33" height="29"><path d="M9.688 7.817V32.99c0 1.186.97 2.156 2.156 2.156h27.328c1.185 0 2.156-.97 2.156-2.156V7.817H9.688zm19.417 5.754h-7.192a1.437 1.437 0 110-2.877h7.192a1.437 1.437 0 110 2.877z" fill="#fff"/></mask><g mask="url(#a)"><path d="M9.688 7.817H41.33v27.328H9.687V7.817z" fill="#EEE"/></g><mask id="b" style="mask-type:luminance" maskUnits="userSpaceOnUse" x="9" y="7" width="33" height="29"><path d="M9.688 7.817V32.99c0 1.186.97 2.156 2.156 2.156h27.328c1.185 0 2.156-.97 2.156-2.156V7.817H9.688zm19.417 5.754h-7.192a1.437 1.437 0 110-2.877h7.192a1.437 1.437 0 110 2.877z" fill="#fff"/></mask><g mask="url(#b)"><path d="M29.105 10.694h-7.192a1.437 1.437 0 100 2.877h7.192a1.437 1.437 0 100-2.877z" fill="#fff"/></g><mask id="c" style="mask-type:luminance" maskUnits="userSpaceOnUse" x="9" y="7" width="33" height="29"><path d="M9.688 7.817V32.99c0 1.186.97 2.156 2.156 2.156h27.328c1.185 0 2.156-.97 2.156-2.156V7.817H9.688zm19.417 5.754h-7.192a1.437 1.437 0 110-2.877h7.192a1.437 1.437 0 110 2.877z" fill="#fff"/></mask><g mask="url(#c)"><mask id="g" style="mask-type:luminance" maskUnits="userSpaceOnUse" x="11" y="19" width="29" height="28"><mask id="f" style="mask-type:luminance" maskUnits="userSpaceOnUse" x="11" y="19" width="29" height="28"><mask id="e" style="mask-type:luminance" maskUnits="userSpaceOnUse" x="11" y="19" width="29" height="28"><mask id="d" style="mask-type:luminance" maskUnits="userSpaceOnUse" x="11" y="19" width="29" height="28"><path d="M25.51 46.653c7.547 0 13.664-6.118 13.664-13.664 0-7.547-6.117-13.664-13.664-13.664-7.546 0-13.664 6.117-13.664 13.664 0 7.546 6.118 13.664 13.664 13.664z" fill="#fff"/></mask><g mask="url(#d)"><path d="M25.51 46.653c7.547 0 13.664-6.118 13.664-13.664 0-7.547-6.117-13.664-13.664-13.664-7.546 0-13.664 6.117-13.664 13.664 0 7.546 6.118 13.664 13.664 13.664z" fill="#fff"/></g></mask><g mask="url(#e)"><path d="M25.51 46.653c7.547 0 13.664-6.118 13.664-13.664 0-7.547-6.117-13.664-13.664-13.664-7.546 0-13.664 6.117-13.664 13.664 0 7.546 6.118 13.664 13.664 13.664z" fill="#fff"/></g></mask><g mask="url(#f)"><path d="M25.51 46.653c7.547 0 13.664-6.118 13.664-13.664 0-7.547-6.117-13.664-13.664-13.664-7.546 0-13.664 6.117-13.664 13.664 0 7.546 6.118 13.664 13.664 13.664z" fill="#fff"/></g></mask><g mask="url(#g)"><path d="M14.017 19.325v16.77h6.116l5.38-9.317h13.664v-7.453h-25.16zm0 0v16.77h6.116l5.38-9.317h13.664v-7.453h-25.16z" fill="#DB4437"/><path d="M11.846 46.653h13.007l6.038-6.039v-4.519H20.133l-8.287-14.21v24.768zm0 0h13.007l6.038-6.039v-4.519H20.133l-8.287-14.21v24.768z" fill="#0F9D58"/><path d="M25.51 26.775l5.381 9.317-6.035 10.56h14.321V26.776H25.511zm0 0l5.381 9.317-6.035 10.56h14.321V26.776H25.511z" fill="#FFCD40"/><path d="M25.51 39.202a6.213 6.213 0 100-12.427 6.213 6.213 0 000 12.427z" fill="#F1F1F1"/><path d="M25.51 37.959a4.97 4.97 0 100-9.94 4.97 4.97 0 000 9.94z" fill="#4285F4"/></g><mask id="h" style="mask-type:luminance" maskUnits="userSpaceOnUse" x="9" y="7" width="33" height="29"><path d="M9.688 7.817V32.99c0 1.186.97 2.156 2.156 2.156h27.328c1.185 0 2.156-.97 2.156-2.156V7.817H9.688zm19.417 5.754h-7.192a1.437 1.437 0 110-2.877h7.192a1.437 1.437 0 110 2.877z" fill="#fff"/></mask><g mask="url(#h)"><path d="M9.688 7.817H41.33v13.664H9.687V7.817z" fill="#000" fill-opacity=".1"/></g><path d="M9.688 7.817V32.99c0 1.186.97 2.156 2.156 2.156h27.328c1.185 0 2.156-.97 2.156-2.156V7.817H9.688zm19.417 5.754h-7.192a1.437 1.437 0 110-2.877h7.192a1.437 1.437 0 110 2.877z" fill="url(#paint0_radial_152_572)"/></g><defs><radialGradient id="paint0_radial_152_572" cx="0" cy="0" r="1" gradientUnits="userSpaceOnUse" gradientTransform="matrix(40.92 0 0 40.9199 9.6 7.7)"><stop stop-color="#fff" stop-opacity=".1"/><stop offset="1" stop-color="#fff" stop-opacity="0"/></radialGradient></defs></svg>