<svg width="714" height="754" fill="none" xmlns="http://www.w3.org/2000/svg"><g opacity=".55" filter="url(#filter0_f_85_4)"><circle cx="357" cy="357" r="181" fill="#B1FA16" fill-opacity=".51"/></g><path d="M610.44 411.929a259.1 259.1 0 00-.312 9.366 44.53 44.53 0 00-3.599-8.782l3.911-.584zm.257 30.707a246.96 246.96 0 004.609 33.451c6.397 30.66 15.94 46.942 28.19 74.369 27.041 60.565 53.55 119.926 32.567 143.883-9.713 11.095-26.888 11.477-56.864 12.143-30.746.694-61.985-6.727-61.741-10.202.103-1.476 5.899-1.948 7.785-2.43 9.592-2.438 14.998-29.793 10.238-106.577l63.947 4.37c-.525-7.718-2.717-18.403-10.432-26.869-13.04-14.284-30.401-9.132-43.336-20.095-8.156-6.905-15.483-20.94-12.108-52.195l.168-2.095a95.541 95.541 0 0010.488-7.638 9.165 9.165 0 002.025 1.425c6.009 3.105 14.283-.988 18.473-9.161 3.171-6.18 3.108-12.917.292-17.181 2.605-4.859 4.578-9.958 5.699-15.198z" fill="#B1FA16" stroke="#B1FA16" stroke-width="1.333" stroke-miterlimit="22.926"/><path d="M607.083 463.337c2.426 17.275 10.626 34.054 18.335 49.562 7.113 14.3 15.929 27.793 28.688 37.677 15.661 12.121 32.541 20.459 32.879 42.971.314 20.772-12.411 39.097-18.681 58.26-.498 1.556 1.945 2.228 2.444.676 5.948-18.179 17.057-35.077 18.59-54.519 1.261-16.116-5.405-28.633-18.056-38.26-6.616-5.051-13.883-9.231-20.085-14.825-7.498-6.758-13.478-15-18.505-23.716-10.143-17.57-20.321-38.307-23.167-58.505-.217-1.604-2.663-.921-2.442.679z" fill="#B1FA16" stroke="#B1FA16" stroke-width="1.333" stroke-miterlimit="22.926"/><path d="M452.138 617.16c-1.412 14.346 9.077 27.131 23.428 28.541 14.345 1.416 27.126-9.076 28.538-23.423 1.412-14.357-9.075-27.129-23.429-28.542-14.344-1.412-27.122 9.067-28.537 23.424z" fill="#FF9E94"/><path d="M477.995 647.073c-.903 0-1.826-.05-2.739-.14-14.894-1.444-25.827-14.579-24.356-29.286a26.644 26.644 0 018.091-16.578l1.495.026-.024 1.476a24.574 24.574 0 00-7.464 15.295c-1.345 13.551 8.725 25.663 22.471 26.998 7.971.764 15.596-2.137 20.983-7.976l1.496-.073.067 1.475c-5.224 5.664-12.392 8.783-20.02 8.783z" fill="#190404"/><path d="M532.956 625.865c-1.413 14.349 9.076 27.131 23.422 28.54 14.357 1.415 27.138-9.08 28.543-23.425 1.412-14.349-9.069-27.127-23.426-28.54-14.346-1.414-27.127 9.076-28.539 23.425z" fill="#FF9E94"/><path d="M558.861 654.533c-.885 0-1.783-.042-2.678-.124-13.017-1.236-23.362-11.17-24.598-23.632l.956-1.111 1.161.916c1.151 11.497 10.694 20.652 22.694 21.798 9.022.784 17.933-3.053 23.174-10.222l1.492-.246.256 1.434c-5.163 7.037-13.597 11.187-22.457 11.187z" fill="#190404"/><path d="M453.254 578.449c2.746.188 5.491.373 8.236.569 59.421 4.03 118.842 8.074 178.266 12.104-.527-7.679-2.722-18.313-10.448-26.737-13.059-14.214-30.445-9.088-43.399-19.997-8.168-6.872-15.506-20.838-12.126-51.94l.168-2.085a95.804 95.804 0 0010.503-7.601 9.199 9.199 0 002.029 1.419c6.017 3.09 14.303-.984 18.499-9.117 3.176-6.149 3.113-12.853.293-17.097 5.915-10.961 8.583-23.158 5.399-35.418-5.303-19.945-23.615-30.933-31.13-34.799-.795-.352-1.77-.798-2.829-1.237 0 0-4.153-1.758-8.321-2.718-14.761-3.687-25.732.343-25.732.343-8.752 3.341-14.761 10.459-19.006 17.407-.881 1.403-1.592 2.725-2.295 4.037l-.272.617a575.92 575.92 0 00-1.94 3.862c-.711 1.586-1.331 3.077-1.864 4.314-1.677 3.77-2.381 6.415-5.126 11.685-4.864 9.486-7.78 11.073-10.609 17.047-3.626 7.563-3.543 14.324-3.365 23.019.087 1.494.535 19.958 7.695 26.986 2.475 2.459 5.398 4.128 5.398 4.128 2.023 1.134 4.15 1.926 6.268 2.456 1.139.303 5.613 1.262 11.959 1.634-.387 3.96-.929 7.539-1.595 10.779-3.295 15.911-9.65 23.609-15.617 27.656l-.669.437c-12.99 8.279-28.57 3.074-41.593 9.961a27.173 27.173 0 00-5.839 4.15c-7.904 7.326-10.16 17.563-10.938 24.136z" stroke="#B1FA16" stroke-width="1.333" stroke-miterlimit="22.926"/><path d="M542.775 552.203c-1.836 2.447-4.491 3.428-6.871 2.541-3.347-1.262-4.261-5.578-4.319-5.895l11.19 3.354zm-14.92 6.295c-.75.457-1.909 1.122-3.351 1.669-4.817 1.849-8.642.989-11.303.323-9.625-2.376-18.436-5.564-21.403-6.668 6.96 1.14 13.919 2.272 20.879 3.401l15.178 1.275zm13.676 1.541a40.4 40.4 0 004.725 2.137c6.897 2.609 12.919 2.745 17.11 2.799 15.209.201 29.35-.47 34.116-.707-10.849-.624-21.706-1.253-32.555-1.879l-23.396-2.35z" fill="#190404"/><path d="M571.599 454.355l-1.008-.736c-.083-.294-2.201-7.188-8.997-8.912-4.529-1.117-8.342.729-9.409 1.33l-.9.074-.622-.629-1.671-4.756.655-1.291 1.328.636 1.284 3.633c2.043-.931 5.637-2.057 9.854-.972 7.949 2.017 10.402 9.982 10.502 10.315l-.714 1.266-.302.042zm-43.546-19.894l-1.045-.999c-.017-.309-.393-7.614-6.577-10.906-3.962-2.101-7.917-1.296-9.421-.855l-.877-.141-.452-.757-.476-5.106.936-1.129 1.137.94.377 3.907c2.18-.457 5.975-.707 9.761 1.313 7.222 3.848 7.665 12.287 7.682 12.654l-1.012 1.079h-.033zm54.458 16.164c-.175-2.149-.955-8.123-5.745-13.523-6.292-7.087-14.806-7.921-16.584-8.064a11.53 11.53 0 012.169-1.594c2.125-1.232 4.243-1.583 5.668-1.686 3.34.626 5.727 1.873 7.114 2.74 3.88 2.417 5.84 5.503 7.09 7.464 1.269 2.013 1.833 3.52 2.101 4.363.27.853.669 2.101.72 3.517.097 3.073-1.527 5.527-2.533 6.783zm-16.108-27.354c-.877.237-2.125.657-3.475 1.432-2.359 1.368-4.155 3.285-3.978 3.541l3.771-1.883c1.213-.719 2.227-1.418 3.915-1.959l1.006-.265-1.239-.866zm-32.74-7.422a12.503 12.503 0 01-1.052 2.449c-.667-1.483-3.821-8.753-12.216-12.774l.293-.613c.76-1.307 1.526-2.622 2.478-4.02 1.718.787 3.813 1.751 5.722 3.326 1.345 1.138 3.339 2.967 4.866 5.942.292 1.316.575 3.411-.091 5.69z" fill="#B1FA16"/><path d="M535.311 411.742c.018.833-.027 2.034-.357 3.42-.588 2.415-1.81 4.469-2.061 4.376-.285-.115.445-2.967.661-3.8.328-1.258.677-2.305.703-3.935l-.008-.965 1.062.904zm-7.456 42.607c-1.025-1.293-2.377-2.066-3.817-2.719-1.468-.59-3.006-1.059-4.887-1 1.024 1.309 2.377 2.082 3.807 2.727 1.478.59 3.023 1.053 4.897.992zm-18.581 7.643c-.283.639.318 1.681 1.476 2.881-.523-1.328-.648-2.33-.391-2.538.299-.25.938.466 3.483 1.539 2.32.98 2.619.735 4.085 1.382 2.42 1.064 2.387 2.064 5.852 4.694 2.843 2.161 4.119 2.429 4.004 2.954-.033.141-.148.275-.332.397 1.275.239 2.591.445 3.985.662 2.304.367 3.613.426 3.845-.099.375-.844-2.462-2.63-5.635-5.508a47.306 47.306 0 01-6.637-7.341c-.026 0-1.344-.435-2.197-.969l-.73-.482c-1.336-.968-1.26-1.267-1.873-1.46-1.284-.201-3.929 1.225-3.929 1.225l-1.609.76c-2.17 1.042-3.265 1.567-3.397 1.903z" fill="#B1FA16"/><path d="M535.308 473.331c.332 1.621-11.421 9.255-19.624 4.165-6.936-4.298-7.155-15.124-5.865-15.662.891-.359 2.056 4.319 6.877 7.779 8.142 5.834 18.315 2.259 18.612 3.718z" fill="#B1FA16"/><path d="M533.065 475.492c-2.015 0-3.666-.628-4.635-1.115l-.575-1.645 1.339-.698c1.192.575 3.582 1.455 6.326.524 1.193-.39 2.311-1.083 3.328-2.04l1.44.232-.191 1.762c-1.223 1.166-2.588 2.008-4.041 2.492a9.402 9.402 0 01-2.991.488z" fill="#B1FA16"/><mask id="a" fill="#fff"><path fill-rule="evenodd" clip-rule="evenodd" d="M598.839 741.059c-4.53 4.268-11.592 9.625-21.184 11.942-8.769 2.128-14.722.517-22.765-1.66-3.279-.887-6.905-1.868-11.211-2.729-15.208-3.049-25.282-1.877-34.874-.761-10.294 1.198-20.033 2.33-34.967-1.888a99.14 99.14 0 01-22.086-9.265l.553-34.249a22.128 22.128 0 01-2.371 2.103c-11.593 8.874-29.176 3.532-32.649 2.401a128.643 128.643 0 01-10.588-15.309c-24.8-42.017-20.069-88.139-15.387-112.421l3.524-2.44c.235-8.642.779-16.922 1.543-24.788l-30.291-29.121a2172.237 2172.237 0 01-19.562-25.677c-1.765-2.372-4.9-6.633-3.634-8.422.89-1.256 3.694-.89 5.392-.363 3.831 1.207 5.985 4.508 6.564 5.396l.061.094c2.384 3.682 9.541 10.437 30.818 23.873 3.611-.031 7.218-.066 10.823-.102h.013l4.407-.043c.371-2.666 1.334-6.705 4.182-10.565 5.873-7.98 17.052-11.415 19.292-8.776.985 1.158-.052 3.115-1.84 6.488-1.633 3.081-3.893 7.345-5.809 13.26-2.347 7.272-3.07 13.605-3.326 17.8.169 3.9.515 8.868 1.223 14.492.506 4.032 1.1 7.85 1.771 11.51 7.655 19.599 15.305 39.202 22.951 58.806l.117-.372c-1.839-29.001 22.154-74.278 27.145-76.275 3.899-1.56 7.379-1.173 11.811-.681 3.886.432 8.505.945 14.781.298 10.029-1.027 17.872-4.356 22.661-6.805-.32-.06-5.051-1.027-6.835-5.422-1.428-3.532-.345-7.767 2.73-10.431 3.026-2.757 7.469-5.824 12.75-5.672 4.224.128 6.548 2.252 9.184 4.662 2.479 2.267 5.234 4.786 10.108 6.136 11.947 3.308 24.224-3.851 26.398-5.126a39.996 39.996 0 005.465-3.839c.939.392 4.827 2.134 6.912 6.589 2.427 5.183.499 10.015.179 10.786 3.134 2.247 8.052 5.516 14.567 8.401 9.492 4.209 16.091 5.067 21.584 5.781 5.051.656 9.166 1.191 13.736 4.096 17.4 11.082 15.801 40.871 15.651 43.147-1.184 17.946-10.52 30.202-14.313 34.684-5.31 16.657-10.617 33.312-15.925 49.967l-.004.013c-6.425 20.16-12.849 40.319-19.275 60.477z"/></mask><path fill-rule="evenodd" clip-rule="evenodd" d="M598.839 741.059c-4.53 4.268-11.592 9.625-21.184 11.942-8.769 2.128-14.722.517-22.765-1.66-3.279-.887-6.905-1.868-11.211-2.729-15.208-3.049-25.282-1.877-34.874-.761-10.294 1.198-20.033 2.33-34.967-1.888a99.14 99.14 0 01-22.086-9.265l.553-34.249a22.128 22.128 0 01-2.371 2.103c-11.593 8.874-29.176 3.532-32.649 2.401a128.643 128.643 0 01-10.588-15.309c-24.8-42.017-20.069-88.139-15.387-112.421l3.524-2.44c.235-8.642.779-16.922 1.543-24.788l-30.291-29.121a2172.237 2172.237 0 01-19.562-25.677c-1.765-2.372-4.9-6.633-3.634-8.422.89-1.256 3.694-.89 5.392-.363 3.831 1.207 5.985 4.508 6.564 5.396l.061.094c2.384 3.682 9.541 10.437 30.818 23.873 3.611-.031 7.218-.066 10.823-.102h.013l4.407-.043c.371-2.666 1.334-6.705 4.182-10.565 5.873-7.98 17.052-11.415 19.292-8.776.985 1.158-.052 3.115-1.84 6.488-1.633 3.081-3.893 7.345-5.809 13.26-2.347 7.272-3.07 13.605-3.326 17.8.169 3.9.515 8.868 1.223 14.492.506 4.032 1.1 7.85 1.771 11.51 7.655 19.599 15.305 39.202 22.951 58.806l.117-.372c-1.839-29.001 22.154-74.278 27.145-76.275 3.899-1.56 7.379-1.173 11.811-.681 3.886.432 8.505.945 14.781.298 10.029-1.027 17.872-4.356 22.661-6.805-.32-.06-5.051-1.027-6.835-5.422-1.428-3.532-.345-7.767 2.73-10.431 3.026-2.757 7.469-5.824 12.75-5.672 4.224.128 6.548 2.252 9.184 4.662 2.479 2.267 5.234 4.786 10.108 6.136 11.947 3.308 24.224-3.851 26.398-5.126a39.996 39.996 0 005.465-3.839c.939.392 4.827 2.134 6.912 6.589 2.427 5.183.499 10.015.179 10.786 3.134 2.247 8.052 5.516 14.567 8.401 9.492 4.209 16.091 5.067 21.584 5.781 5.051.656 9.166 1.191 13.736 4.096 17.4 11.082 15.801 40.871 15.651 43.147-1.184 17.946-10.52 30.202-14.313 34.684-5.31 16.657-10.617 33.312-15.925 49.967l-.004.013c-6.425 20.16-12.849 40.319-19.275 60.477z" fill="#000"/><path d="M577.655 753.001l-.469-1.944-.002.001.471 1.943zm21.184-11.942l1.371 1.456.377-.355.157-.493-1.905-.608zm-43.949 10.282l-.523 1.931.523-1.931zm-11.211-2.729l-.393 1.961.001.001.392-1.962zm-34.874-.761l.231 1.987-.231-1.987zm-34.967-1.888l.544-1.925-.544 1.925zm-22.086-9.265l-1.999-.032-.02 1.183 1.029.587.99-1.738zm.553-34.249l2 .032.081-5.013-3.509 3.581 1.428 1.4zm-2.371 2.103l-1.216-1.588 1.216 1.588zm-32.649 2.401l-1.559 1.253.373.464.567.185.619-1.902zm-10.588-15.309l1.724-1.015-.001-.002-1.723 1.017zM391.31 579.223l-1.139-1.644-.67.465-.155.801 1.964.378zm3.524-2.44l1.139 1.644.833-.577.027-1.013-1.999-.054zm1.543-24.788l1.991.194.094-.964-.699-.672-1.386 1.442zm-30.291-29.121l-1.582 1.224.09.116.106.102 1.386-1.442zm-19.562-25.677l-1.605 1.194.005.006 1.6-1.2zm-3.634-8.422l-1.632-1.156-.001.001 1.633 1.155zm5.392-.363l.601-1.908-.009-.003-.592 1.911zm6.564 5.396l-1.675 1.093 1.675-1.093zm.061.094l1.679-1.087-.004-.007-.005-.007-1.67 1.101zm30.818 23.873l-1.068 1.691.497.314.588-.005-.017-2zm10.823-.102l-.015-2h-.005l.02 2zm.001 0l.015 2h.005l-.02-2zm.012 0l-.019-2h-.001l.02 2zm4.407-.043l.019 2 1.724-.016.238-1.708-1.981-.276zm4.182-10.565l1.61 1.187.001-.002-1.611-1.185zm19.292-8.776l-1.525 1.294.001.002 1.524-1.296zm-1.84 6.488l-1.767-.936 1.767.936zm-5.809 13.26l-1.903-.617v.003l1.903.614zm-3.326 17.8l-1.996-.121-.006.104.004.104 1.998-.087zm1.223 14.492l1.984-.249-1.984.249zm1.771 11.51l-1.968.36.035.189.07.178 1.863-.727zm22.951 58.806l-1.863.727 2.067 5.3 1.704-5.428-1.908-.599zm.117-.372l1.908.6.111-.355-.023-.371-1.996.126zm27.145-76.275l-.743-1.857.743 1.857zm11.811-.681l.22-1.988-.22 1.988zm14.781.298l-.203-1.989h-.001l.204 1.989zm22.661-6.805l.911 1.781 5.212-2.665-5.753-1.081-.37 1.965zm-6.835-5.422l-1.854.75.001.002 1.853-.752zm2.73-10.431l1.31 1.512.019-.017.019-.017-1.348-1.478zm12.75-5.672l.061-1.999h-.003l-.058 1.999zm9.184 4.662l-1.35 1.476 1.35-1.476zm10.108 6.136l-.534 1.927.534-1.927zm26.398-5.126l-1.009-1.727-.003.002 1.012 1.725zm5.465-3.839l.771-1.846-1.121-.468-.933.779 1.283 1.535zm6.912 6.589l-1.811.848 1.811-.848zm.179 10.786l-1.847-.768-.61 1.468 1.291.926 1.166-1.626zm14.567 8.401l.811-1.828-.001-.001-.81 1.829zm21.584 5.781l-.257 1.983.257-1.983zm13.736 4.096l1.074-1.687-.001-.001-1.073 1.688zm15.651 43.147l-1.995-.132 1.995.132zm-14.313 34.684l-1.527-1.292-.258.305-.121.38 1.906.607zm-15.925 49.967l-1.906-.607-.001.003 1.907.604zm-.004.013l1.906.607.001-.003-1.907-.604zm-39.989 74.363c10.057-2.429 17.42-8.035 22.085-12.43l-2.743-2.912c-4.394 4.14-11.156 9.25-20.281 11.454l.939 3.888zm-23.758-1.673c8.051 2.178 14.448 3.932 23.76 1.673l-.943-3.887c-8.227 1.995-13.735.527-21.772-1.647l-1.045 3.861zm-11.08-2.698c4.233.845 7.8 1.81 11.08 2.698l1.045-3.861c-3.277-.887-6.962-1.885-11.341-2.76l-.784 3.923zm-34.251-.736c9.54-1.11 19.359-2.25 34.25.735l.787-3.921c-15.526-3.113-25.855-1.91-35.499-.788l.462 3.974zm-35.741-1.951c15.323 4.329 25.383 3.155 35.741 1.951l-.462-3.974c-10.231 1.191-19.649 2.283-34.192-1.826l-1.087 3.849zm-22.533-9.451a101.091 101.091 0 0022.533 9.451l1.087-3.849a97.146 97.146 0 01-21.64-9.078l-1.98 3.476zm-.457-36.019l-.552 34.249 3.999.064.553-34.249-4-.064zm.844 3.724a24.334 24.334 0 002.585-2.292l-2.857-2.8a20.17 20.17 0 01-2.159 1.915l2.431 3.177zm-34.483 2.714c1.799.586 7.252 2.264 13.782 2.646 6.499.381 14.36-.506 20.702-5.36l-2.432-3.177c-5.251 4.02-11.978 4.899-18.036 4.544-6.028-.353-11.104-1.911-12.778-2.457l-1.238 3.804zm-11.692-16.197a130.517 130.517 0 0010.752 15.548l3.118-2.505a126.674 126.674 0 01-10.423-15.072l-3.447 2.029zm-15.628-113.813c-4.71 24.429-9.549 71.158 15.629 113.816l3.445-2.034c-24.423-41.377-19.799-86.891-15.146-111.025l-3.928-.757zm4.35-3.706l-3.525 2.44 2.277 3.289 3.525-2.441-2.277-3.288zm.691-23.337a358.026 358.026 0 00-1.552 24.927l3.998.108c.234-8.593.775-16.826 1.535-24.648l-3.981-.387zM364.7 524.316l30.291 29.121 2.772-2.884-30.291-29.121-2.772 2.884zm-19.776-25.919a2176.27 2176.27 0 0019.58 25.701l3.163-2.448a2185.29 2185.29 0 01-19.543-25.652l-3.2 2.399zm-3.667-10.777c-.78 1.103-.733 2.372-.539 3.3.199.957.627 1.924 1.088 2.789.928 1.738 2.244 3.513 3.113 4.682l3.21-2.387c-.896-1.204-2.029-2.746-2.794-4.178-.385-.721-.614-1.303-.701-1.722-.094-.448.037-.383-.111-.174l-3.266-2.31zm7.617-1.119c-.985-.305-2.315-.576-3.59-.576-1.105 0-2.967.199-4.026 1.694l3.264 2.312c-.101.143-.184.134-.038.086.15-.048.413-.092.798-.092.774 0 1.696.176 2.408.397l1.184-3.821zm7.647 6.215c-.584-.896-3.07-4.772-7.638-6.212l-1.202 3.815c3.094.976 4.915 3.701 5.49 4.582l3.35-2.185zm.056.085l-.056-.085-3.35 2.185.066.101 3.34-2.201zm30.215 23.283c-10.603-6.696-17.641-11.698-22.306-15.46-4.686-3.78-6.879-6.232-7.9-7.809l-3.358 2.173c1.363 2.106 3.94 4.872 8.747 8.749 4.829 3.895 12.008 8.989 22.682 15.729l2.135-3.382zm9.736-.411c-3.605.036-7.21.071-10.82.102l.034 4c3.613-.031 7.221-.066 10.826-.102l-.04-4zm.005 0l.03 4h.001l-.031-4zm.008 0h-.012l.04 4h.012l-.04-4zm4.408-.043l-4.407.043.039 4 4.406-.043-.038-4zm2.592-9.753c-3.118 4.226-4.156 8.626-4.554 11.477l3.962.552c.345-2.48 1.231-6.158 3.811-9.654l-3.219-2.375zm22.425-8.883c-1.2-1.414-3.175-1.649-4.762-1.567-1.734.091-3.745.592-5.79 1.411-4.087 1.638-8.678 4.698-11.875 9.041l3.222 2.371c2.676-3.637 6.611-6.284 10.141-7.699 1.765-.707 3.335-1.068 4.51-1.129 1.323-.069 1.586.256 1.505.161l3.049-2.589zm-1.597 8.72c.861-1.625 1.662-3.124 2.086-4.367.413-1.214.724-2.927-.49-4.354l-3.047 2.592c-.228-.269.056-.425-.25.472-.295.868-.906 2.035-1.833 3.784l3.534 1.873zm-5.673 12.939c1.859-5.739 4.048-9.874 5.673-12.939l-3.534-1.873c-1.642 3.097-3.971 7.488-5.945 13.579l3.806 1.233zm-3.232 17.306c.249-4.087.952-10.243 3.232-17.308l-3.806-1.228c-2.415 7.479-3.157 13.989-3.419 18.293l3.993.243zm1.21 14.121a176.303 176.303 0 01-1.208-14.329l-3.997.173c.171 3.944.521 8.967 1.237 14.655l3.968-.499zm1.754 11.398a203.728 203.728 0 01-1.754-11.398l-3.969.498a208.652 208.652 0 001.788 11.621l3.935-.721zm22.847 58.44a135015.83 135015.83 0 00-22.951-58.807l-3.726 1.455c7.655 19.6 15.305 39.202 22.951 58.806l3.726-1.454zm-3.654-.244l-.117.372 3.816 1.198.117-.371-3.816-1.199zm28.31-77.533c-.701.281-1.323.815-1.817 1.308-.536.535-1.11 1.215-1.706 1.999-1.196 1.572-2.58 3.691-4.064 6.22-2.973 5.064-6.421 11.897-9.647 19.565-6.42 15.259-12.114 34.185-11.164 49.167l3.992-.253c-.889-14.02 4.494-32.233 10.859-47.362 3.166-7.526 6.537-14.199 9.409-19.093 1.439-2.45 2.734-4.422 3.798-5.822.534-.702.986-1.228 1.348-1.589.405-.404.556-.457.478-.426l-1.486-3.714zm12.774-.812c-4.37-.485-8.343-.961-12.774.812l1.486 3.714c3.367-1.347 6.353-1.049 10.847-.55l.441-3.976zm14.357.297c-6.052.623-10.493.132-14.357-.297l-.441 3.976c3.909.434 8.706.969 15.207.3l-.409-3.979zm21.955-6.597c-4.657 2.381-12.254 5.603-21.954 6.597l.407 3.979c10.358-1.061 18.445-4.498 23.368-7.014l-1.821-3.562zm-7.778-2.889c1.116 2.749 3.145 4.392 4.853 5.335 1.698.938 3.187 1.248 3.466 1.301l.739-3.931c-.041-.008-1.078-.212-2.271-.871-1.184-.654-2.412-1.692-3.081-3.338l-3.706 1.504zm3.274-12.695c-3.676 3.185-5.045 8.314-3.275 12.693l3.708-1.5c-1.085-2.685-.288-6.026 2.186-8.169l-2.619-3.024zm14.117-6.159c-6.083-.176-11.026 3.341-14.155 6.193l2.695 2.956c2.921-2.662 6.864-5.28 11.345-5.151l.115-3.998zm10.475 5.185c-2.62-2.395-5.435-5.032-10.472-5.185l-.122 3.998c3.412.104 5.243 1.715 7.895 4.139l2.699-2.952zm9.293 5.685c-4.382-1.214-6.839-3.441-9.293-5.685l-2.699 2.952c2.504 2.29 5.559 5.101 10.924 6.587l1.068-3.854zm24.852-4.924c-1.047.614-4.507 2.633-9.127 4.1-4.64 1.474-10.27 2.334-15.726.823l-1.067 3.855c6.492 1.798 12.974.732 18.004-.865a49.248 49.248 0 009.94-4.463l-2.024-3.45zm5.194-3.649a37.925 37.925 0 01-5.191 3.647l2.018 3.454a42.08 42.08 0 005.74-4.032l-2.567-3.069zm10.007 7.276c-2.408-5.144-6.877-7.137-7.953-7.587l-1.542 3.691c.802.335 4.109 1.826 5.872 5.592l3.623-1.696zm.213 12.402c.366-.879 2.592-6.411-.213-12.402l-3.623 1.696c2.049 4.376.419 8.506.143 9.17l3.693 1.536zm13.531 5.804c-6.346-2.81-11.141-5.996-14.212-8.197l-2.331 3.251c3.198 2.292 8.238 5.644 14.923 8.604l1.62-3.658zm21.032 5.626c-5.431-.706-11.804-1.534-21.031-5.625l-1.622 3.656c9.757 4.326 16.582 5.214 22.138 5.936l.515-3.967zm14.551 4.392c-4.987-3.17-9.518-3.737-14.551-4.392l-.515 3.967c5.067.659 8.768 1.161 12.92 3.801l2.146-3.376zm16.574 44.967c.08-1.214.527-9.423-1.276-18.781-1.789-9.286-5.889-20.193-15.297-26.185l-2.148 3.374c7.992 5.091 11.793 14.619 13.517 23.567 1.71 8.876 1.283 16.699 1.213 17.761l3.991.264zm-14.783 35.844c3.902-4.61 13.558-17.269 14.783-35.844l-3.991-.264c-1.143 17.317-10.16 29.17-13.845 33.524l3.053 2.584zm-15.546 49.283l15.925-49.967-3.811-1.215-15.925 49.967 3.811 1.215zm-.002.009l.003-.012-3.813-1.209-.003.012 3.813 1.209zm-19.277 60.481c6.427-20.158 12.851-40.318 19.276-60.478l-3.812-1.215c-6.424 20.161-12.848 40.32-19.275 60.478l3.811 1.215z" fill="#B1FA16" mask="url(#a)"/><path d="M618.633 418.241c1.72 3.565 3.14 7.227 4.076 10.925 1.425 5.641-.264 10.549-2.884 15.523-2.151 4.078-4.756 7.943-8.878 10.218 4.572-7.974 9.52-20.385 7.008-34.442a43.917 43.917 0 00-.599-2.806c.429.201.854.396 1.277.582zm-8.785 38.514c.295.601 1.025 1.034 1.801.654 4.43-2.206 7.434-6.093 9.781-10.321 2.637-4.746 4.942-9.895 4.334-15.439-.459-4.163-2.117-8.253-3.938-12.119.717.261 1.423.5 2.117.715 4.751 6.473 10.792 10.979 18.668 13.271 3.542 1.023 8.21 2.385 11.87 1.287 3.424-1.042 4.788-4.585 5.095-7.832.787-8.277-4.916-15.175-11.111-19.936a81.027 81.027 0 00-2.521-1.86c-.256-2.755-1.017-5.452-2.249-7.713-5.846-10.769-24.535-15.761-44.806-7.209-14.942-11.861-35.549-17.14-51.535-12.628-13.322 3.759-26.293 15.131-24.262 21.184 2.415 7.225 26.004 6.051 47.058 3.644 9.489 17.696 14.285 30.601 16.921 40.111 1.272 4.606 3.663 14.293 11.769 18.544 2.509 1.326 4.925 1.772 6.614 1.95a67.404 67.404 0 004.394-6.303zm36.166-48.422c4.697 3.454 8.964 7.683 10.516 13.342.999 3.629 1.101 10.38-3.95 10.913-3.45.358-7.588-.932-10.84-2.014-5.663-1.889-10.024-5.092-13.68-9.302 5.642 1.052 10.275.331 13.305-2.146 2.934-2.394 4.434-6.485 4.649-10.793z" fill="#B1FA16" stroke="#B1FA16" stroke-width="1.333" stroke-miterlimit="22.926"/><path d="M588.314 476.735l-.779-.362.101-1.48 12.113-10.591 1.463.108-.108 1.47-12.113 10.602-.677.253z" fill="#000"/><path d="M595.202 469.275l-1.036-.939-.414-5.427.954-1.094 1.119.937.414 5.422-.952 1.101h-.085z" fill="#000"/><path d="M482.862 684.373l-1.011-.746.688-1.34 73.822-24.024 1.334.694-.686 1.341-73.824 24.024-.323.051z" fill="#B1FA16"/><path d="M482.862 684.373l-1.011-.746.688-1.34 73.822-24.024 1.334.694-.686 1.341-73.824 24.024-.323.051z" stroke="#000"/><path d="M567.792 660.75l-9.066-.472-1.031-1.056 1.155-.959 9.002.47 1.033 1.063-1.093.954zm-3.604-6.217h-4.283l-.967-.622.967-.622h4.283l.967.622-.967.622zm-2.991-9.947l-1.015-1.183a297.906 297.906 0 013.307-20.593 297.243 297.243 0 0113.445-47.254l1.318-.597.58 1.353a296.68 296.68 0 00-13.348 46.912 300.67 300.67 0 00-3.272 20.448l-1.015.914zm-48.304 80.817c-13.725 0-25.444-2.277-34.042-4.721l-.73-1.305 1.284-.742c13.523 3.813 34.805 7.255 59.492 1.81 27.489-6.052 46.902-20.251 58.345-31.099l1.483.06-.059 1.51c-11.635 11.029-31.365 25.459-59.324 31.609a122.784 122.784 0 01-26.449 2.878zm90.645-41.03c-.967-.294-1.229-.924-1.011-1.458a922.83 922.83 0 019.164-21.103 944.152 944.152 0 0113.652-29.159l1.456-.5.523 1.416a963.286 963.286 0 00-13.644 29.086 957.665 957.665 0 00-9.12 21.058l-1.02.66zm-151.399-24.867l-1.12-.841-8.955-37.66.868-1.286 1.36.814 8.962 37.671-.867 1.277-.248.025z" fill="#B1FA16"/><path d="M452.139 659.506l-1.12-.841-8.955-37.66.868-1.286 1.36.814 8.962 37.671-.867 1.277-.248.025z" stroke="#000"/><path d="M456.796 696.806c-.822-.169-1.167-.759-1.023-1.325l4.139-16.545 1.286-.78.76 1.304-4.142 16.533-1.02.813zm9.966-24.866l-1.001-.68c-8.211-21.598-8.389-38.773-.499-51.048 1.49-2.321 2.826-3.766 4.338-5.402l.132-.142.17-.185c1.001-1.082 2.139-2.314 3.453-3.962 9.125-11.407 14.202-26.809 15.084-45.749l1.108-1.003 1.008 1.106c-.905 19.383-6.138 35.187-15.549 46.968a75.796 75.796 0 01-3.717 4.242c-1.507 1.623-2.803 3.027-4.243 5.255-7.507 11.686-7.277 28.231.704 49.177l-.617 1.356-.371.067z" fill="#B1FA16"/><path d="M466.762 671.94l-1.001-.68c-8.211-21.598-8.389-38.773-.499-51.048 1.49-2.321 2.826-3.766 4.338-5.402l.132-.142.17-.185c1.001-1.082 2.139-2.314 3.453-3.962 9.125-11.407 14.202-26.809 15.084-45.749l1.108-1.003 1.008 1.106c-.905 19.383-6.138 35.187-15.549 46.968a75.796 75.796 0 01-3.717 4.242c-1.507 1.623-2.803 3.027-4.243 5.255-7.507 11.686-7.277 28.231.704 49.177l-.617 1.356-.371.067z" stroke="#000"/><path d="M545.5 550.092c-7.847 0-15.641-1.225-23.189-3.631l-.673-1.293 1.304-.665c7.919 2.527 16.173 3.711 24.342 3.505 11.698-.28 23.405-3.433 33.875-9.106l1.403.413-.417 1.393c-10.75 5.828-22.781 9.072-34.81 9.358l-1.835.026z" fill="#B1FA16"/><path d="M545.5 550.092c-7.847 0-15.641-1.225-23.189-3.631l-.673-1.293 1.304-.665c7.919 2.527 16.173 3.711 24.342 3.505 11.698-.28 23.405-3.433 33.875-9.106l1.403.413-.417 1.393c-10.75 5.828-22.781 9.072-34.81 9.358l-1.835.026z" stroke="#000"/><path d="M423.092 432.436c-6.284 25.206-31.814 40.543-57.022 34.258-25.196-6.282-40.536-31.812-34.25-57.016 6.282-25.209 31.81-40.548 57.01-34.266 25.206 6.284 40.544 31.817 34.26 57.024h.002z" fill="#B1FA16"/><path d="M387.999 414.259c-1.455 5.831-10.438 2.869-13.354 2.142l2.57-10.307c2.915.728 12.302 2.083 10.784 8.165zm-1.595 16.632c-1.597 6.41-12.389 2.947-15.889 2.077l2.834-11.365c3.499.874 14.719 2.602 13.056 9.288h-.001zm11.796-16.54c.935-6.26-3.831-9.625-10.349-11.87l2.114-8.481-5.164-1.286-2.058 8.257c-1.355-.338-2.749-.657-4.134-.974l2.073-8.311-5.16-1.286-2.115 8.478a174.788 174.788 0 01-3.297-.776l.007-.026-7.12-1.778-1.373 5.513 3.749.933c2.091.522 2.47 1.905 2.406 3.002l-2.416 9.698-3.377 13.534c-.256.636-.905 1.589-2.366 1.227l-3.752-.937-2.563 5.91 6.719 1.675c1.25.313 2.475.64 3.678.949l-2.136 8.58 5.156 1.286 2.118-8.487c1.406.384 2.774.736 4.112 1.069l-2.108 8.446 5.162 1.286 2.136-8.561c8.803 1.666 15.423.994 18.207-6.966 2.246-6.411-.111-10.109-4.742-12.521 3.373-.781 5.913-2.999 6.591-7.583h.002z" fill="#000"/><path d="M387.425 225.98c25.984 0 47.048 21.065 47.048 47.05 0 25.983-21.064 47.049-47.048 47.049-25.985 0-47.05-21.066-47.05-47.049 0-25.985 21.065-47.05 47.05-47.05z" fill="#B1FA16"/><path d="M375.251 267.975l7.124-7.099 1.501-1.503 3.56-3.56 12.123 12.162 7.057-7.099-19.18-19.213-19.243 19.213 7.058 7.099z" fill="#000"/><path d="M380.36 273.017l7.086-7.085 7.085 7.085-7.085 7.086-7.086-7.086z" fill="#000"/><path d="M399.559 278.099l-12.127 12.127-4.257-4.258-.785-.784-7.139-7.085-7.058 7.057 19.243 19.212 19.18-19.212-7.057-7.057zm-43.5-5.062l7.086-7.087 7.086 7.087-7.086 7.087-7.086-7.087zm48.562-.003l7.086-7.087 7.086 7.087-7.086 7.085-7.086-7.085z" fill="#000"/><g filter="url(#filter1_f_85_4)"><path d="M326.174 242.987s-25.556 74.272 62.025 106.856c87.582 32.585 42.017 126.892 42.017 126.892" stroke="#B1FA16" stroke-width="1.333" stroke-miterlimit="22.926"/></g><g filter="url(#filter2_f_85_4)"><path d="M455.657 252.933s17.753 77.271-76.611 97.461c-94.364 20.19-58.262 120.124-58.262 120.124" stroke="#B1FA16" stroke-width="1.333" stroke-miterlimit="22.926"/></g><path d="M481.851 706.238c-1.188 4.607-4.111 12.915-11.682 19.442a34.822 34.822 0 01-5.464 3.854c-1.422-.044-3.437-.336-4.828-1.768-1.377-1.422-.864-2.648-1.724-5.108-2.184-6.213-9.104-8.861-9.622-9.048-1.622-.597-1.723-.314-2.897-.797-4.223-1.736-6.162-6.685-7.146-10.784a57.634 57.634 0 011.288-17.048 57.523 57.523 0 015.79-15.127c7.985 3.494 15.981 6.977 23.965 10.46 4.111 8.636 8.209 17.292 12.32 25.924z" fill="#000"/><defs><filter id="filter0_f_85_4" x="0" y="0" width="714" height="714" filterUnits="userSpaceOnUse" color-interpolation-filters="sRGB"><feFlood flood-opacity="0" result="BackgroundImageFix"/><feBlend in="SourceGraphic" in2="BackgroundImageFix" result="shape"/><feGaussianBlur stdDeviation="88" result="effect1_foregroundBlur_85_4"/></filter><filter id="filter1_f_85_4" x="315.037" y="235.771" width="134.694" height="248.252" filterUnits="userSpaceOnUse" color-interpolation-filters="sRGB"><feFlood flood-opacity="0" result="BackgroundImageFix"/><feBlend in="SourceGraphic" in2="BackgroundImageFix" result="shape"/><feGaussianBlur stdDeviation="3.5" result="effect1_foregroundBlur_85_4"/></filter><filter id="filter2_f_85_4" x="306.333" y="245.786" width="158.318" height="231.958" filterUnits="userSpaceOnUse" color-interpolation-filters="sRGB"><feFlood flood-opacity="0" result="BackgroundImageFix"/><feBlend in="SourceGraphic" in2="BackgroundImageFix" result="shape"/><feGaussianBlur stdDeviation="3.5" result="effect1_foregroundBlur_85_4"/></filter></defs></svg>