<svg width="186" height="255" fill="none" xmlns="http://www.w3.org/2000/svg"><path d="M28.78 135.732c-6.591-5.226-18.008-14.28-17.115-22.706.105-.985.345-3.222 2.106-4.473 6.582-4.683 25.92 10.525 28.413 12.513a86.987 86.987 0 016.54 5.773c5.436 5.294 6.434 13.5 1.351 17.01-.804.55-1.726.98-2.784 1.22-5.246 1.179-10.57-3.04-18.512-9.337zm38.97 71.482c4.27 7.221 15.573 23.974 37.037 32.902 8.654 3.592 16.655 4.969 22.879 5.444 3.707 2.835 7.408 5.669 11.114 8.495 15.54-10.019 31.078-20.041 46.622-30.064l-11.766-11.328c2.096-13.998 3.612-36.001-2.177-61.876-4.536-20.269-12.048-36.16-18.299-47.064-2.69.147-5.376.295-8.063.438-25.786 34.351-51.567 68.703-77.348 103.053z" fill="#B1FA16"/><path d="M167.615 199.991l-77.274 32.2c-5.378 2.241-11.803-.928-14.367-7.082L3.055 50.117c-2.564-6.154-.296-12.96 5.083-15.2l16.96-7.068c1.586 3.218 5.455 4.704 8.81 3.306l30.687-12.787c3.356-1.399 5.025-5.191 3.857-8.584l16.96-7.067c5.37-2.238 11.807.939 14.372 7.093l72.919 174.992c2.564 6.155.283 12.951-5.088 15.189z" fill="#000" stroke="#B1FA16" stroke-width="3" stroke-miterlimit="10"/><path d="M51.225 143.493c7.425 3.951 20.285 10.799 20.926 19.25.075.99.243 3.231-1.264 4.78-5.63 5.786-27.389-5.681-30.203-7.188a88.747 88.747 0 01-7.475-4.502c-6.3-4.232-8.763-12.119-4.392-16.487a7.956 7.956 0 012.518-1.701c4.95-2.11 10.942 1.083 19.89 5.848z" fill="#B1FA16"/><path d="M51.225 162.524c7.425 3.961 20.285 10.807 20.926 19.25.075.994.243 3.235-1.264 4.781-5.63 5.79-27.389-5.678-30.203-7.186a88.77 88.77 0 01-7.475-4.498c-6.3-4.231-8.763-12.119-4.392-16.486a7.985 7.985 0 012.518-1.706c4.95-2.109 10.942 1.083 19.89 5.845z" fill="#B1FA16"/><path d="M48.403 180.894c6.831 3.58 18.66 9.786 18.942 18.011.03.964.11 3.145-1.368 4.713-5.508 5.866-25.533-4.515-28.118-5.884a72.737 72.737 0 01-6.852-4.109c-5.765-3.895-7.782-11.505-3.508-15.931a8.233 8.233 0 012.43-1.761c4.73-2.245 10.242.644 18.474 4.961zm14.457-10.911l-.231-.059-26.535-13.295-.236-.703.703-.236 26.536 13.294.235.705-.472.294z" fill="#B1FA16"/><path d="M57.71 185.4l-.206-.043-23.044-9.719-.278-.691.691-.277 23.04 9.719.282.69-.485.321zm95.45-81.677c-2.622-2.013-5.246-4.03-7.87-6.043a339.716 339.716 0 00-22.592 23.264 331.091 331.091 0 00-7.105 8.325c.838 3.124 2.29 4.961 3.647 6.085 6.595 5.441 20.517.69 27.743-7.425 8.406-9.436 6.532-22.054 6.177-24.206z" fill="#B1FA16"/><path d="M148.184 126.99l-.232-.054-.24-.704 4.27-8.782.703-.243.244.705-4.274 8.779-.471.299z" fill="#B1FA16"/><g filter="url(#filter0_f_52_480)"><circle cx="67.888" cy="65.306" r="13.932" transform="rotate(-22.622 67.888 65.306)" stroke="#B1FA16"/></g><circle cx="67.8" cy="65.551" r="21.564" transform="rotate(-22.622 67.8 65.55)" stroke="#B1FA16" stroke-width="3"/><path d="M65.609 109.803a.38.38 0 00-.21.498l3.96 9.862-9.02-8.016c-.216-.191-.61-.033-.634.254l-.968 12.027-3.96-9.861a.38.38 0 10-.708.284l4.564 11.366c.067.167.24.264.412.238a.385.385 0 00.323-.347l1.039-12.88 9.658 8.585a.38.38 0 00.474.027c.144-.105.2-.29.132-.457l-4.564-11.366a.383.383 0 00-.498-.214zm16.312 6.879l-5.109-4.542a.02.02 0 01-.01-.009l-5.113-4.542c-.216-.191-.608-.033-.633.254l-.548 6.816-.001.014-.55 6.813a.383.383 0 00.35.414.38.38 0 00.412-.35l.53-6.588 5.228-2.099 4.939 4.392a.386.386 0 00.54-.033.382.382 0 00-.035-.54zm-10.602-2.573l.438-5.439 4.08 3.628-4.517 1.814-.001-.003zm21.576-2.061l-10.757 4.319 1.05-13.025a.387.387 0 00-.352-.413.379.379 0 00-.41.348l-1.101 13.644a.384.384 0 00.522.388l11.33-4.55a.381.381 0 00.213-.499.38.38 0 00-.495-.212zm5.865-2.356l-8.023 3.222 1.05-13.025a.387.387 0 00-.352-.413.38.38 0 00-.41.348l-1.101 13.644a.386.386 0 00.153.339.378.378 0 00.369.049l8.597-3.452a.381.381 0 00.212-.499.38.38 0 00-.495-.213zm11.726-4.481l-5.108-4.541a.033.033 0 01-.011-.009l-5.112-4.543c-.217-.19-.61-.033-.634.254l-.548 6.816c.001.003 0 .01-.001.014l-.55 6.813a.383.383 0 00.35.414.38.38 0 00.412-.349l.53-6.588 5.228-2.1 4.939 4.392a.385.385 0 00.539-.032.381.381 0 00-.034-.541zm-10.602-2.572l.439-5.44 4.08 3.629-4.518 1.814v-.003zm11.333-4.137l.536-6.63a.386.386 0 00-.352-.414.38.38 0 00-.409.348l-.489 6.061-4.544-4.04a.38.38 0 00-.537.032.388.388 0 00.031.542l4.973 4.419-.536 6.63a.388.388 0 00.352.413.377.377 0 00.41-.348l.488-6.06 4.545 4.039a.384.384 0 00.539-.033.386.386 0 00-.034-.541l-4.973-4.418z" fill="#fff"/><g filter="url(#filter1_f_52_480)"><circle cx="111.594" cy="173.594" r="18" transform="rotate(-22.949 111.594 173.594)" fill="#B1FA16" fill-opacity=".15"/></g><g filter="url(#filter2_bd_52_480)" transform="rotate(-22.949 111.594 166.683)" shape-rendering="crispEdges"><circle cx="111.594" cy="166.683" r="18" fill="#B1FA16" fill-opacity=".15"/><circle cx="111.594" cy="166.683" r="17.5" stroke="#fff"/></g><g filter="url(#filter3_f_52_480)"><path d="M103.992 170.847a1.374 1.374 0 01-.71-1.806c.561-1.291 5.505-.822 7.031-.86.323-11.625 15.951-23.727 13.303-17.979a41.693 41.693 0 00-6.443 11.122c-1.491 3.867-2.371 7.943-2.513 12.097a1.374 1.374 0 01-1.918 1.214l-8.746-3.779-.004-.009z" fill="#B1FA16"/></g><path d="M103.992 170.847a1.374 1.374 0 01-.71-1.806c.561-1.291 5.505-.822 7.031-.86.323-11.625 15.951-23.727 13.303-17.979a41.693 41.693 0 00-6.443 11.122c-1.491 3.867-2.371 7.943-2.513 12.097a1.374 1.374 0 01-1.918 1.214l-8.746-3.779-.004-.009z" fill="#B1FA16"/><defs><filter id="filter0_f_52_480" x="49.453" y="46.87" width="36.871" height="36.871" filterUnits="userSpaceOnUse" color-interpolation-filters="sRGB"><feFlood flood-opacity="0" result="BackgroundImageFix"/><feBlend in="SourceGraphic" in2="BackgroundImageFix" result="shape"/><feGaussianBlur stdDeviation="2" result="effect1_foregroundBlur_52_480"/></filter><filter id="filter1_f_52_480" x="87.589" y="149.589" width="48.009" height="48.009" filterUnits="userSpaceOnUse" color-interpolation-filters="sRGB"><feFlood flood-opacity="0" result="BackgroundImageFix"/><feBlend in="SourceGraphic" in2="BackgroundImageFix" result="shape"/><feGaussianBlur stdDeviation="3" result="effect1_foregroundBlur_52_480"/></filter><filter id="filter2_bd_52_480" x="63.589" y="128.678" width="96.009" height="96.009" filterUnits="userSpaceOnUse" color-interpolation-filters="sRGB"><feFlood flood-opacity="0" result="BackgroundImageFix"/><feGaussianBlur in="BackgroundImageFix" stdDeviation="7.5"/><feComposite in2="SourceAlpha" operator="in" result="effect1_backgroundBlur_52_480"/><feColorMatrix in="SourceAlpha" values="0 0 0 0 0 0 0 0 0 0 0 0 0 0 0 0 0 0 127 0" result="hardAlpha"/><feOffset dy="10"/><feGaussianBlur stdDeviation="15"/><feComposite in2="hardAlpha" operator="out"/><feColorMatrix values="0 0 0 0 0 0 0 0 0 0 0 0 0 0 0 0 0 0 0.08 0"/><feBlend in2="effect1_backgroundBlur_52_480" result="effect2_dropShadow_52_480"/><feBlend in="SourceGraphic" in2="effect2_dropShadow_52_480" result="shape"/></filter><filter id="filter3_f_52_480" x="91.167" y="136.726" width="44.751" height="50.024" filterUnits="userSpaceOnUse" color-interpolation-filters="sRGB"><feFlood flood-opacity="0" result="BackgroundImageFix"/><feBlend in="SourceGraphic" in2="BackgroundImageFix" result="shape"/><feGaussianBlur stdDeviation="6" result="effect1_foregroundBlur_52_480"/></filter></defs></svg>