<svg width="187" height="257" fill="none" xmlns="http://www.w3.org/2000/svg"><path d="M30.181 137.732c-6.59-5.226-18.007-14.28-17.114-22.706.105-.985.345-3.222 2.105-4.473 6.582-4.683 25.92 10.525 28.413 12.513a86.987 86.987 0 016.54 5.773c5.437 5.294 6.435 13.5 1.352 17.01-.805.55-1.726.98-2.784 1.22-5.246 1.179-10.57-3.04-18.512-9.337zm38.97 71.482c4.27 7.221 15.573 23.974 37.038 32.902 8.653 3.592 16.654 4.969 22.879 5.444 3.706 2.835 7.408 5.669 11.113 8.495 15.54-10.019 31.079-20.041 46.622-30.064-3.92-3.776-7.841-7.551-11.765-11.328 2.096-13.998 3.612-36.001-2.177-61.876-4.537-20.269-12.049-36.16-18.299-47.064-2.691.147-5.376.295-8.064.438-25.785 34.351-51.566 68.703-77.347 103.053z" fill="#B1FA16"/><path d="M168.017 199.991l-77.274 32.2c-5.379 2.241-11.803-.928-14.368-7.082L3.457 50.117c-2.565-6.154-.296-12.96 5.083-15.2l16.96-7.068c1.586 3.218 5.454 4.704 8.81 3.306l30.687-12.787c3.355-1.399 5.024-5.191 3.856-8.584l16.96-7.067c5.37-2.238 11.808.939 14.372 7.093l72.919 174.992c2.565 6.155.283 12.951-5.087 15.189z" fill="#000" stroke="#B1FA16" stroke-width="3" stroke-miterlimit="10"/><path d="M52.626 145.493c7.426 3.951 20.285 10.799 20.926 19.25.076.99.244 3.231-1.264 4.78-5.63 5.786-27.388-5.681-30.202-7.188a88.747 88.747 0 01-7.475-4.502c-6.3-4.232-8.763-12.119-4.392-16.487a7.955 7.955 0 012.518-1.701c4.949-2.11 10.941 1.083 19.89 5.848z" fill="#B1FA16"/><path d="M52.626 164.524c7.426 3.961 20.285 10.807 20.926 19.25.076.994.244 3.235-1.264 4.781-5.63 5.79-27.388-5.678-30.202-7.186a88.77 88.77 0 01-7.475-4.498c-6.3-4.231-8.763-12.119-4.392-16.486a7.983 7.983 0 012.518-1.706c4.949-2.109 10.941 1.083 19.89 5.845z" fill="#B1FA16"/><path d="M49.804 182.894c6.832 3.58 18.66 9.786 18.942 18.011.03.964.11 3.145-1.367 4.713-5.508 5.866-25.533-4.515-28.119-5.884a72.75 72.75 0 01-6.852-4.109c-5.764-3.895-7.782-11.505-3.507-15.931a8.232 8.232 0 012.43-1.761c4.729-2.245 10.242.644 18.473 4.961zm14.458-10.911l-.232-.059-26.534-13.295-.236-.703.703-.236 26.535 13.294.235.705-.471.294z" fill="#B1FA16"/><path d="M59.112 187.4l-.206-.043-23.044-9.719-.278-.691.691-.277 23.039 9.719.282.69-.484.321zm95.45-81.677c-2.623-2.013-5.246-4.03-7.87-6.043a339.958 339.958 0 00-22.593 23.264 333.193 333.193 0 00-7.105 8.325c.838 3.124 2.291 4.961 3.647 6.085 6.595 5.441 20.518.69 27.743-7.425 8.407-9.436 6.533-22.054 6.178-24.206z" fill="#B1FA16"/><path d="M149.586 128.99l-.232-.054-.24-.704 4.27-8.782.703-.243.243.705-4.273 8.779-.471.299z" fill="#B1FA16"/><g filter="url(#filter0_f_52_542)"><path d="M140.416 26.392L36.225 69.182c-3.216 1.322-4.733 5.047-3.388 8.321l17.33 42.2c1.346 3.274 5.043 4.858 8.26 3.537l104.191-42.79c3.216-1.322 4.733-5.047 3.388-8.321l-17.332-42.2c-1.344-3.274-5.042-4.858-8.258-3.537z" fill="#B1FA16"/></g><path d="M136.397 23.124L32.205 65.915c-3.216 1.321-4.733 5.047-3.388 8.321l17.331 42.2c1.345 3.274 5.042 4.858 8.259 3.537l104.191-42.79c3.216-1.322 4.733-5.047 3.388-8.322l-17.331-42.2c-1.345-3.274-5.042-4.857-8.258-3.537z" fill="#000" stroke="#B1FA16" stroke-width="3" stroke-miterlimit="22.926"/><path d="M90.325 79.131c1.57 11.168-6.212 21.494-17.38 23.064-11.164 1.569-21.49-6.212-23.06-17.38-1.57-11.168 6.21-21.494 17.375-23.064 11.168-1.57 21.494 6.213 23.064 17.38h.001z" fill="#B1FA16"/><path d="M90.621 59.175l45.84-18.522M95.66 71.647l45.841-18.522M100.7 84.118l45.84-18.522" stroke="#B1FA16" stroke-width="3" stroke-miterlimit="22.926" stroke-linecap="round"/><path d="M80.158 79.58a.5.5 0 00.277-.651l-1.017-2.517a.5.5 0 00-.651-.276l-7.47 3.018-2.966-7.341a.5.5 0 00-.65-.277l-2.688 1.086a.5.5 0 00-.276.651l2.967 7.341-7.47 3.018a.5.5 0 00-.276.651l1.017 2.517a.5.5 0 00.65.276l7.47-3.018 2.95 7.299a.5.5 0 00.65.276l2.687-1.086a.5.5 0 00.276-.65l-2.949-7.3 7.47-3.017z" fill="#000" stroke="#000" stroke-linejoin="round"/><defs><filter id="filter0_f_52_542" x="21.346" y="14.926" width="156.15" height="119.781" filterUnits="userSpaceOnUse" color-interpolation-filters="sRGB"><feFlood flood-opacity="0" result="BackgroundImageFix"/><feBlend in="SourceGraphic" in2="BackgroundImageFix" result="shape"/><feGaussianBlur stdDeviation="5.5" result="effect1_foregroundBlur_52_542"/></filter></defs></svg>