<svg width="200" height="257" fill="none" xmlns="http://www.w3.org/2000/svg"><path d="M42.558 137.732c-6.59-5.226-18.007-14.28-17.114-22.706.105-.985.345-3.222 2.106-4.473 6.582-4.683 25.92 10.525 28.413 12.513a86.987 86.987 0 016.54 5.773c5.436 5.294 6.434 13.5 1.351 17.01-.804.55-1.726.98-2.784 1.22-5.246 1.179-10.57-3.04-18.512-9.337zm38.97 71.482c4.27 7.221 15.574 23.974 37.038 32.902 8.654 3.592 16.655 4.969 22.879 5.444 3.707 2.835 7.408 5.669 11.114 8.495 15.54-10.019 31.078-20.041 46.622-30.064l-11.766-11.328c2.096-13.998 3.612-36.001-2.177-61.876-4.536-20.269-12.048-36.16-18.299-47.064-2.69.147-5.376.295-8.063.438-25.786 34.351-51.567 68.703-77.348 103.053z" fill="#B1FA16"/><path d="M180.394 199.991l-77.274 32.2c-5.378 2.241-11.803-.928-14.367-7.082L15.834 50.117c-2.564-6.154-.296-12.96 5.083-15.2l16.96-7.068c1.586 3.218 5.455 4.704 8.81 3.306l30.687-12.787c3.356-1.399 5.025-5.191 3.857-8.584l16.96-7.067c5.37-2.238 11.807.939 14.372 7.093l72.919 174.992c2.564 6.155.283 12.951-5.088 15.189z" fill="#000" stroke="#B1FA16" stroke-width="3" stroke-miterlimit="10"/><path d="M65.004 145.493c7.425 3.951 20.285 10.799 20.926 19.25.075.99.243 3.231-1.264 4.78-5.63 5.786-27.39-5.681-30.203-7.188a88.747 88.747 0 01-7.475-4.502c-6.3-4.232-8.763-12.119-4.392-16.487a7.957 7.957 0 012.518-1.701c4.95-2.11 10.942 1.083 19.89 5.848z" fill="#B1FA16"/><path d="M65.004 164.524c7.425 3.961 20.285 10.807 20.926 19.25.075.994.243 3.235-1.264 4.781-5.63 5.79-27.39-5.678-30.203-7.186a88.77 88.77 0 01-7.475-4.498c-6.3-4.231-8.763-12.119-4.392-16.486a7.985 7.985 0 012.518-1.706c4.95-2.109 10.942 1.083 19.89 5.845z" fill="#B1FA16"/><path d="M62.182 182.894c6.831 3.58 18.66 9.786 18.942 18.011.03.964.11 3.145-1.368 4.713-5.508 5.866-25.533-4.515-28.118-5.884a72.737 72.737 0 01-6.852-4.109c-5.765-3.895-7.782-11.505-3.508-15.931a8.232 8.232 0 012.43-1.761c4.73-2.245 10.242.644 18.474 4.961zm14.457-10.911l-.231-.059-26.535-13.295-.236-.703.703-.236 26.536 13.294.235.705-.472.294z" fill="#B1FA16"/><path d="M71.49 187.4l-.207-.043-23.044-9.719-.278-.691.691-.277 23.04 9.719.282.69-.485.321zm95.449-81.677c-2.622-2.013-5.246-4.03-7.87-6.043a339.716 339.716 0 00-22.592 23.264 331.091 331.091 0 00-7.105 8.325c.838 3.124 2.29 4.961 3.647 6.085 6.595 5.441 20.517.69 27.743-7.425 8.406-9.436 6.532-22.054 6.177-24.206z" fill="#B1FA16"/><path d="M161.963 128.99l-.232-.054-.24-.704 4.27-8.782.703-.243.244.705-4.274 8.779-.471.299z" fill="#B1FA16"/><g filter="url(#filter0_f_52_570)"><path d="M151.29 13.713l-78.792 32.36c-2.432.998-3.514 3.973-2.417 6.644L84.218 87.14c1.097 2.671 3.958 4.027 6.39 3.028l78.792-32.36c2.432-.998 3.514-3.973 2.417-6.645L157.68 16.742c-1.097-2.671-3.958-4.027-6.39-3.028z" fill="#B1FA16"/></g><g filter="url(#filter1_f_52_570)"><path d="M95.466 94.079l-81.128 33.319c-2.505 1.029-3.611 4.11-2.472 6.884l14.678 35.74c1.139 2.773 4.092 4.188 6.597 3.159l81.128-33.319c2.504-1.028 3.611-4.11 2.472-6.884l-14.679-35.74c-1.139-2.773-4.092-4.188-6.596-3.16z" fill="#B1FA16"/></g><path d="M145.295 12.859l-80.99 33.262c-2.5 1.027-3.679 3.922-2.633 6.468L75.144 85.39c1.045 2.545 3.919 3.777 6.419 2.75l80.989-33.262c2.5-1.027 3.679-3.923 2.634-6.468l-13.472-32.802c-1.045-2.546-3.919-3.777-6.419-2.75zM8.346 128.686l81.281-32.543c2.509-1.005 5.372.252 6.395 2.806l13.18 32.921c1.023 2.554-.182 5.439-2.691 6.444l-81.28 32.543c-2.51 1.005-5.373-.252-6.395-2.806L5.656 135.13c-1.024-2.554.181-5.439 2.69-6.444z" fill="#000" stroke="#B1FA16" stroke-width="3" stroke-miterlimit="22.926"/><path d="M109.713 40.882l35.632-14.398M113.63 50.576l35.632-14.397M117.547 60.27l35.632-14.397M53.396 124.01L17.8 138.498m39.537-4.803l-35.595 14.487m39.538-4.803l-35.597 14.488" stroke="#B1FA16" stroke-width="3" stroke-miterlimit="22.926" stroke-linecap="round"/><path d="M72.701 109.308c8.794-3.484 18.747.821 22.23 9.614 3.484 8.794-.82 18.747-9.614 22.23-8.794 3.484-18.747-.821-22.23-9.614-3.484-8.794.82-18.747 9.614-22.23z" fill="#B1FA16"/><path d="M74.211 125.151l1.46-3.357.306-.71.728-1.682 5.733 2.49 1.436-3.348-9.066-3.931-3.937 9.082 3.34 1.456z" fill="#000"/><path d="M76.616 126.173l1.449-3.348 3.347 1.448-1.448 3.348-3.348-1.448z" fill="#000"/><path d="M83.795 125.319l-2.478 5.729-2.012-.87-.37-.16-3.366-1.441-1.443 3.335 9.088 3.922 3.915-9.073-3.334-1.442zm-15.4 4.119l1.448-3.349 3.348 1.449-1.448 3.348-3.348-1.448zm16.435-6.512l1.447-3.349 3.348 1.449-1.448 3.348-3.348-1.448z" fill="#000"/><path fill-rule="evenodd" clip-rule="evenodd" d="M84.648 43.44c8.764-3.556 18.752.665 22.31 9.429 3.557 8.764-.664 18.753-9.428 22.31-8.764 3.557-18.753-.664-22.31-9.428-3.558-8.765.664-18.753 9.428-22.31z" fill="#B1FA16"/><path d="M99.107 56.31l-8.784-.305-3.571-8.797 12.355 9.102z" fill="#000"/><path d="M86.752 47.208l-2.517 15.138 6.088-6.341-3.571-8.797zm9.659 23.798l-2.426-5.977 5.689-7.337-3.263 13.314zm0 0l-2.427-5.979-9.188-1.297 11.615 7.276z" fill="#000"/><path fill-rule="evenodd" clip-rule="evenodd" d="M93.423 63.645l-3.1-7.638 8.784.303-5.684 7.335zm-2.077-6.925l2.264 5.577 4.15-5.356-6.414-.221z" fill="#000"/><path fill-rule="evenodd" clip-rule="evenodd" d="M93.423 63.645l-9.188-1.299 6.088-6.34 3.1 7.639zm-7.782-1.785l6.71.948-2.264-5.577-4.446 4.629z" fill="#000"/><defs><filter id="filter0_f_52_570" x="58.652" y="2.384" width="124.593" height="99.112" filterUnits="userSpaceOnUse" color-interpolation-filters="sRGB"><feFlood flood-opacity="0" result="BackgroundImageFix"/><feBlend in="SourceGraphic" in2="BackgroundImageFix" result="shape"/><feGaussianBlur stdDeviation="5.5" result="effect1_foregroundBlur_52_570"/></filter><filter id="filter1_f_52_570" x=".417" y="82.743" width="127.772" height="101.774" filterUnits="userSpaceOnUse" color-interpolation-filters="sRGB"><feFlood flood-opacity="0" result="BackgroundImageFix"/><feBlend in="SourceGraphic" in2="BackgroundImageFix" result="shape"/><feGaussianBlur stdDeviation="5.5" result="effect1_foregroundBlur_52_570"/></filter></defs></svg>