<svg width="144" height="43" fill="none" xmlns="http://www.w3.org/2000/svg"><path d="M138.667 42.736H5.333C2.4 42.736 0 40.332 0 37.394V5.342C0 2.404 2.4 0 5.333 0h133.334C141.6 0 144 2.404 144 5.342v32.052c0 2.938-2.4 5.342-5.333 5.342z" fill="#000"/><path d="M51.356 10.83c0 .894-.265 1.607-.795 2.139-.602.632-1.387.949-2.351.949-.924 0-1.71-.32-2.355-.963-.647-.641-.97-1.437-.97-2.386 0-.95.323-1.744.97-2.386.646-.642 1.431-.963 2.355-.963.458 0 .897.09 1.313.27.417.179.751.417 1.001.715l-.562.564c-.424-.507-1.007-.76-1.752-.76-.674 0-1.257.237-1.748.711-.492.475-.738 1.091-.738 1.85 0 .757.246 1.373.738 1.848a2.431 2.431 0 001.748.712c.714 0 1.31-.239 1.787-.716.31-.311.489-.743.537-1.298H48.21v-.77h3.101c.03.167.045.328.045.483" fill="#fff"/><path d="M51.356 10.83h-.107c-.001.874-.256 1.553-.764 2.063v.001l-.001.001c-.583.61-1.332.914-2.275.916-.899-.002-1.651-.309-2.28-.931-.626-.624-.937-1.386-.938-2.31.002-.926.312-1.687.939-2.31.628-.624 1.38-.932 2.28-.933.444 0 .867.087 1.271.26.404.175.724.403.962.687l.081-.069-.075-.075-.563.564.076.075.082-.068c-.444-.532-1.066-.8-1.834-.8-.7 0-1.314.25-1.822.743-.513.494-.771 1.144-.77 1.925-.001.781.257 1.432.77 1.926a2.538 2.538 0 001.822.741c.738.002 1.367-.25 1.862-.747.331-.332.519-.792.568-1.364l.01-.116h-2.334v-.557h2.995v-.107l-.105.02c.029.161.043.315.043.464h.213c0-.162-.015-.33-.046-.503l-.016-.087h-3.297v.983h2.43v-.107l-.105-.009c-.047.538-.218.943-.506 1.232-.459.458-1.021.683-1.712.685a2.32 2.32 0 01-1.674-.682c-.47-.455-.704-1.036-.705-1.772.001-.735.235-1.317.705-1.772a2.322 2.322 0 011.674-.681c.72.001 1.265.24 1.67.722l.075.09.645-.647.069-.07-.063-.074a2.741 2.741 0 00-1.04-.746 3.402 3.402 0 00-1.356-.277c-.949-.001-1.767.333-2.43.993-.667.66-1.003 1.489-1.002 2.462 0 .973.335 1.803 1.002 2.462.663.66 1.481.994 2.43.993.987.001 1.806-.327 2.428-.981l-.077-.074.075.075c.553-.553.827-1.3.826-2.215h-.106zm4.916-2.679h-2.914v2.033h2.628v.77h-2.628v2.033h2.914v.787h-3.736v-6.41h3.736v.787z" fill="#fff"/><path d="M56.272 8.152v-.107h-3.02v2.246h2.627v.556h-2.628v2.247h2.915v.574h-3.523V7.47h3.523v.68h.213v-.894h-3.95v6.624h3.95v-1h-2.915v-1.82h2.629v-.984h-2.629V8.26h2.915v-.107h-.107zm3.468 5.623h-.823V8.151H57.13v-.788h4.398v.788H59.74v5.623" fill="#fff"/><path d="M59.74 13.774v-.106h-.716V8.045h-1.788V7.47h4.185v.574h-1.787v5.73h.213V8.258h1.788V7.257h-4.612v1.001h1.788v5.623h1.036v-.107h-.107m4.97 0v-6.41h.822v6.41h-.822" fill="#fff"/><path d="M64.71 13.774h.107V7.471h.608v6.197h-.715v.213h.929V7.257h-1.036v6.624h.107v-.107m4.47 0h-.823V8.152H66.57v-.788h4.397v.788H69.18v5.623" fill="#fff"/><path d="M69.18 13.774v-.106h-.716V8.045h-1.788V7.47h4.185v.574h-1.788v5.73h.214V8.257h1.787v-1h-4.611v1h1.787v5.623h1.037v-.107h-.107m6.027-1.365c.474.48 1.054.72 1.74.72.685 0 1.265-.24 1.737-.72.475-.48.712-1.094.712-1.84 0-.745-.237-1.36-.712-1.84a2.346 2.346 0 00-1.738-.72 2.35 2.35 0 00-1.739.72c-.472.48-.71 1.095-.71 1.84 0 .746.237 1.36.71 1.84zm4.086.537c-.63.648-1.412.972-2.347.972-.936 0-1.718-.324-2.346-.972-.63-.647-.943-1.44-.943-2.377 0-.937.314-1.73.943-2.377.628-.648 1.41-.972 2.346-.972.93 0 1.71.326 2.343.977.63.65.947 1.441.947 2.372 0 .937-.315 1.73-.943 2.377z" fill="#fff"/><path d="M75.207 12.41l-.075.074c.49.5 1.104.754 1.814.752a2.454 2.454 0 001.814-.752c.495-.5.744-1.146.743-1.915 0-.768-.248-1.415-.743-1.915a2.454 2.454 0 00-1.814-.752 2.456 2.456 0 00-1.814.752c-.494.5-.743 1.147-.742 1.915-.001.768.248 1.415.742 1.915l.075-.075.076-.075c-.452-.461-.678-1.041-.68-1.765.002-.723.228-1.304.68-1.765a2.24 2.24 0 011.663-.688c.66 0 1.207.227 1.663.688.453.461.68 1.042.68 1.765 0 .724-.227 1.304-.68 1.765-.456.461-1.002.687-1.663.689a2.24 2.24 0 01-1.663-.689l-.076.075zm4.086.536l-.076-.074c-.612.627-1.36.937-2.27.939-.912-.002-1.66-.312-2.27-.94-.61-.63-.912-1.389-.913-2.302.001-.913.302-1.673.913-2.302.61-.628 1.358-.938 2.27-.94.904.002 1.65.313 2.265.944.613.633.916 1.391.917 2.298-.001.913-.303 1.673-.912 2.303l.076.074.077.074c.646-.665.973-1.49.972-2.45.001-.956-.327-1.78-.977-2.448-.65-.67-1.464-1.01-2.419-1.008-.96-.002-1.776.336-2.422 1.004-.648.665-.974 1.49-.973 2.451-.001.96.325 1.786.973 2.452l.003.003-.003-.004c.645.668 1.462 1.005 2.422 1.004.96.001 1.776-.336 2.424-1.004l-.077-.074zm2.097.828v-6.41h1l3.111 4.987h.036l-.036-1.236V7.364h.823v6.41h-.858l-3.254-5.228h-.036l.036 1.236v3.992h-.822" fill="#fff"/><path d="M81.39 13.775h.106V7.47h.836l3.11 4.987h.204l-.038-1.344V7.471h.61v6.197h-.693L82.27 8.439h-.204l.038 1.345v3.884h-.715v.213h.928v-4.1l-.035-1.238-.107.003v.107h.035v-.107l-.09.057 3.285 5.278h1.025V7.257h-1.037v3.86l.036 1.237.106-.003v-.107H85.5v.107l.09-.057-3.141-5.037h-1.167v6.624h.107v-.107m33.451 18.163h1.991V18.581h-1.991v13.356zm17.928-8.545l-2.282 5.79h-.068l-2.368-5.79h-2.144l3.551 8.094-2.025 4.501h2.077l5.472-12.595h-2.213zM121.48 30.42c-.653 0-1.561-.326-1.561-1.134 0-1.031 1.132-1.426 2.109-1.426.876 0 1.287.189 1.819.447a2.414 2.414 0 01-2.367 2.113zm.24-7.32c-1.441 0-2.933.636-3.551 2.045l1.767.739c.377-.739 1.08-.98 1.818-.98 1.03 0 2.076.62 2.093 1.719v.137c-.36-.206-1.132-.515-2.076-.515-1.904 0-3.843 1.048-3.843 3.007 0 1.787 1.562 2.938 3.311 2.938 1.339 0 2.076-.601 2.54-1.306h.068v1.031h1.921v-5.12c0-2.372-1.766-3.695-4.048-3.695zm-12.301 1.918h-2.831V20.44h2.831c1.488 0 2.333 1.234 2.333 2.289 0 1.035-.845 2.29-2.333 2.29zm-.051-6.437H104.6v13.356h1.989v-5.06h2.78c2.206 0 4.375-1.6 4.375-4.148 0-2.548-2.169-4.148-4.375-4.148zM83.363 30.423c-1.375 0-2.526-1.153-2.526-2.737 0-1.6 1.15-2.771 2.526-2.771 1.357 0 2.423 1.17 2.423 2.77 0 1.585-1.066 2.738-2.423 2.738zm2.285-6.283h-.069c-.446-.533-1.306-1.015-2.388-1.015-2.269 0-4.348 1.996-4.348 4.56 0 2.548 2.08 4.528 4.348 4.528 1.082 0 1.942-.482 2.388-1.033h.07v.654c0 1.739-.929 2.668-2.424 2.668-1.22 0-1.976-.878-2.286-1.618l-1.735.723c.498 1.205 1.822 2.685 4.021 2.685 2.337 0 4.314-1.377 4.314-4.733V23.4h-1.89v.74zm3.265 7.797h1.993V18.58h-1.993v13.357zm4.932-4.406c-.051-1.756 1.358-2.65 2.371-2.65.791 0 1.461.395 1.684.963l-4.055 1.687zm6.187-1.515c-.378-1.015-1.53-2.891-3.884-2.891-2.337 0-4.279 1.841-4.279 4.544 0 2.547 1.925 4.544 4.502 4.544 2.08 0 3.283-1.274 3.781-2.014l-1.547-1.033c-.515.758-1.22 1.257-2.234 1.257s-1.735-.465-2.2-1.377l6.066-2.513-.205-.517zm-48.33-1.497v1.928h4.606c-.137 1.084-.498 1.876-1.048 2.427-.67.671-1.718 1.41-3.557 1.41-2.836 0-5.052-2.288-5.052-5.128 0-2.84 2.216-5.13 5.052-5.13 1.53 0 2.646.603 3.47 1.377l1.358-1.36c-1.15-1.101-2.68-1.944-4.828-1.944-3.884 0-7.149 3.167-7.149 7.057 0 3.89 3.265 7.057 7.149 7.057 2.096 0 3.677-.689 4.914-1.98 1.272-1.274 1.667-3.064 1.667-4.51 0-.447-.034-.86-.103-1.204h-6.478zm11.818 5.904c-1.375 0-2.56-1.136-2.56-2.754 0-1.636 1.185-2.754 2.56-2.754s2.56 1.118 2.56 2.754c0 1.618-1.185 2.754-2.56 2.754zm0-7.298c-2.509 0-4.554 1.91-4.554 4.544 0 2.616 2.045 4.544 4.554 4.544 2.509 0 4.554-1.928 4.554-4.544 0-2.634-2.045-4.544-4.554-4.544zm9.934 7.298c-1.374 0-2.56-1.136-2.56-2.754 0-1.636 1.186-2.754 2.56-2.754 1.375 0 2.56 1.118 2.56 2.754 0 1.618-1.185 2.754-2.56 2.754zm0-7.298c-2.509 0-4.553 1.91-4.553 4.544 0 2.616 2.044 4.544 4.553 4.544 2.51 0 4.554-1.928 4.554-4.544 0-2.634-2.045-4.544-4.554-4.544z" fill="#fff"/><path d="M10.269 8.132c-.358.323-.572.863-.572 1.579v-.162 23.634-.156c0 .662.184 1.173.494 1.502l.08.075c.25.228.572.349.942.348.36 0 .766-.115 1.195-.358l15.483-8.812 5.318-3.027c.675-.384 1.054-.88 1.118-1.385v-.002c-.063-.506-.443-1.002-1.118-1.386l-5.319-3.026-15.482-8.812c-.43-.243-.836-.36-1.197-.36-.37 0-.69.121-.942.348z" fill="#00C1FF"/><path d="M10.27 34.605l-.08-.076c-.31-.33-.493-.84-.493-1.501v.155V9.555v.156c0-.716.214-1.256.572-1.58L23.485 21.37 10.27 34.605z" fill="url(#paint0_linear_152_680)"/><path d="M27.89 25.782l-4.405-4.413 4.405-4.413 5.319 3.026c.675.385 1.055.88 1.118 1.386v.002c-.063.505-.443 1.001-1.118 1.386l-5.318 3.026" fill="url(#paint1_linear_152_680)"/><path d="M11.213 34.952c-.37 0-.692-.12-.943-.347l13.215-13.236 4.406 4.413-15.483 8.812c-.429.243-.835.358-1.195.358z" fill="url(#paint2_linear_152_680)"/><path d="M23.485 21.369L10.269 8.132a1.37 1.37 0 01.942-.347c.361 0 .768.116 1.197.36l15.482 8.81-4.405 4.414" fill="url(#paint3_linear_152_680)"/><path d="M11.213 35.109a1.37 1.37 0 01-.943-.348.022.022 0 00-.003-.002l-.07-.068-.006-.007.08-.079c.25.227.573.348.942.347.36 0 .767-.115 1.195-.358l15.483-8.811.099.099-.1.057-15.482 8.811c-.39.222-.762.337-1.097.356a1.983 1.983 0 01-.098.003z" fill="url(#paint4_linear_152_680)"/><path d="M10.19 34.684c-.31-.329-.493-.839-.493-1.5v-.156c0 .66.184 1.172.494 1.5l.08.077-.08.08z" fill="url(#paint5_linear_152_680)"/><path d="M27.99 25.882l-.1-.1 5.319-3.026c.675-.385 1.054-.88 1.118-1.386 0 .186-.041.37-.123.551-.166.364-.498.707-.995.99l-5.22 2.97" fill="url(#paint6_linear_152_680)"/><path d="M34.327 21.368c-.063-.506-.443-1.002-1.118-1.386l-5.319-3.026.1-.1 5.219 2.97c.744.424 1.117.983 1.118 1.542z" fill="url(#paint7_linear_152_680)"/><path d="M9.697 9.711v-.163c0-.059.002-.117.005-.172v-.012c.032-.57.209-1.014.489-1.31l.078.078c-.358.323-.572.863-.572 1.58z" fill="url(#paint8_linear_152_680)"/><path d="M27.89 16.956L12.408 8.144c-.43-.243-.836-.359-1.197-.359-.37 0-.69.12-.942.347l-.078-.079c.024-.025.05-.05.076-.074l.003-.003c.249-.225.567-.345.933-.347h.008c.361 0 .767.116 1.197.36l15.582 8.867-.1.1z" fill="url(#paint9_linear_152_680)"/><defs><linearGradient id="paint0_linear_152_680" x1="18.143" y1="9.305" x2="6.754" y2="20.713" gradientUnits="userSpaceOnUse"><stop stop-color="#00A0FF"/><stop offset=".007" stop-color="#00A1FF"/><stop offset=".26" stop-color="#00BEFF"/><stop offset=".512" stop-color="#00D2FF"/><stop offset=".76" stop-color="#00DFFF"/><stop offset="1" stop-color="#00E3FF"/></linearGradient><linearGradient id="paint1_linear_152_680" x1="35.15" y1="21.293" x2="9.34" y2="21.293" gradientUnits="userSpaceOnUse"><stop stop-color="#FFE000"/><stop offset=".409" stop-color="#FFBD00"/><stop offset=".775" stop-color="orange"/><stop offset="1" stop-color="#FF9C00"/></linearGradient><linearGradient id="paint2_linear_152_680" x1="25.552" y1="25.565" x2="6.252" y2="44.755" gradientUnits="userSpaceOnUse"><stop stop-color="#FF3A44"/><stop offset="1" stop-color="#C31162"/></linearGradient><linearGradient id="paint3_linear_152_680" x1="6.863" y1="6.169" x2="15.464" y2="14.735" gradientUnits="userSpaceOnUse"><stop stop-color="#32A071"/><stop offset=".069" stop-color="#2DA771"/><stop offset=".476" stop-color="#15CF74"/><stop offset=".801" stop-color="#06E775"/><stop offset="1" stop-color="#00F076"/></linearGradient><linearGradient id="paint4_linear_152_680" x1="25.542" y1="28.627" x2="10.086" y2="44.108" gradientUnits="userSpaceOnUse"><stop stop-color="#CC2E36"/><stop offset="1" stop-color="#9C0E4E"/></linearGradient><linearGradient id="paint5_linear_152_680" x1="11.458" y1="9.305" x2="1.424" y2="19.355" gradientUnits="userSpaceOnUse"><stop stop-color="#008DE0"/><stop offset=".007" stop-color="#008DE0"/><stop offset=".26" stop-color="#00A7E0"/><stop offset=".512" stop-color="#00B8E0"/><stop offset=".76" stop-color="#00C4E0"/><stop offset="1" stop-color="#00C7E0"/></linearGradient><linearGradient id="paint6_linear_152_680" x1="35.15" y1="21.369" x2="9.34" y2="21.369" gradientUnits="userSpaceOnUse"><stop stop-color="#E0C500"/><stop offset=".409" stop-color="#E0A600"/><stop offset=".775" stop-color="#E09100"/><stop offset="1" stop-color="#E08900"/></linearGradient><linearGradient id="paint7_linear_152_680" x1="35.15" y1="21.369" x2="9.34" y2="21.369" gradientUnits="userSpaceOnUse"><stop stop-color="#FFE840"/><stop offset=".409" stop-color="#FFCE40"/><stop offset=".775" stop-color="#FFBC40"/><stop offset="1" stop-color="#FFB540"/></linearGradient><linearGradient id="paint8_linear_152_680" x1="11.447" y1="9.324" x2="1.783" y2="18.584" gradientUnits="userSpaceOnUse"><stop stop-color="#40B8FF"/><stop offset=".007" stop-color="#40B9FF"/><stop offset=".26" stop-color="#40CEFF"/><stop offset=".512" stop-color="#40DDFF"/><stop offset=".76" stop-color="#40E7FF"/><stop offset="1" stop-color="#40EAFF"/></linearGradient><linearGradient id="paint9_linear_152_680" x1="6.843" y1="8.969" x2="13.745" y2="15.882" gradientUnits="userSpaceOnUse"><stop stop-color="#65B895"/><stop offset=".069" stop-color="#62BD95"/><stop offset=".476" stop-color="#50DB97"/><stop offset=".801" stop-color="#44ED98"/><stop offset="1" stop-color="#40F498"/></linearGradient></defs></svg>