<svg width="325" height="410" fill="none" xmlns="http://www.w3.org/2000/svg"><g opacity=".4" filter="url(#filter0_f_56_634)"><path d="M267.65 65h-167.3C95.186 65 91 69.174 91 74.323v66.354c0 5.149 4.186 9.323 9.35 9.323h167.3c5.164 0 9.35-4.174 9.35-9.323V74.323c0-5.149-4.186-9.323-9.35-9.323z" fill="#B1FA16"/></g><g opacity=".4" filter="url(#filter1_f_56_634)"><path d="M207.65 169H40.35c-5.164 0-9.35 4.174-9.35 9.323v66.354c0 5.149 4.186 9.323 9.35 9.323h167.3c5.164 0 9.35-4.174 9.35-9.323v-66.354c0-5.149-4.186-9.323-9.35-9.323z" fill="#B1FA16"/></g><g opacity=".4" filter="url(#filter2_f_56_634)"><path d="M271.65 278h-167.3c-5.164 0-9.35 4.174-9.35 9.323v66.354c0 5.149 4.186 9.323 9.35 9.323h167.3c5.164 0 9.35-4.174 9.35-9.323v-66.354c0-5.149-4.186-9.323-9.35-9.323z" fill="#B1FA16"/></g><path d="M302.987 408H144.013C132.947 408 124 397.749 124 385.083V24.941C124 12.275 132.947 2 144.013 2h34.891c.431 6.802 6.127 12.234 13.03 12.234h63.132c6.903 0 12.599-5.432 13.03-12.234h34.891C314.037 2 323 12.275 323 24.941v360.142c0 12.666-8.963 22.917-20.013 22.917z" stroke="#B1FA16" stroke-width="3" stroke-miterlimit="10"/><path d="M278.65 58h-167.3c-5.164 0-9.35 4.174-9.35 9.323v66.354c0 5.149 4.186 9.323 9.35 9.323h167.3c5.164 0 9.35-4.174 9.35-9.323V67.323c0-5.149-4.186-9.323-9.35-9.323zm-66 106H45.35c-5.164 0-9.35 4.174-9.35 9.323v66.354c0 5.149 4.186 9.323 9.35 9.323h167.3c5.164 0 9.35-4.174 9.35-9.323v-66.354c0-5.149-4.186-9.323-9.35-9.323zm66 107h-167.3c-5.164 0-9.35 4.223-9.35 9.432v67.136c0 5.209 4.186 9.432 9.35 9.432h167.3c5.164 0 9.35-4.223 9.35-9.432v-67.136c0-5.209-4.186-9.432-9.35-9.432z" fill="#000" stroke="#B1FA16" stroke-width="3" stroke-miterlimit="22.926"/><path d="M184.454 107.889c-4.083 16.377-20.671 26.342-37.048 22.259-16.371-4.082-26.337-20.669-22.253-37.045 4.081-16.379 20.667-26.345 37.04-22.264 16.377 4.084 26.343 20.673 22.26 37.05h.001z" fill="#B1FA16"/><path d="M161.654 96.08c-.946 3.788-6.783 1.864-8.677 1.39l1.67-6.696c1.894.473 7.992 1.354 7.007 5.305zm-1.037 10.806c-1.038 4.164-8.049 1.914-10.324 1.349l1.842-7.384c2.273.568 9.563 1.691 8.483 6.035h-.001zm7.664-10.747c.608-4.067-2.489-6.254-6.724-7.712l1.374-5.51-3.355-.836-1.338 5.365c-.88-.22-1.786-.427-2.686-.633l1.347-5.4-3.352-.836-1.374 5.509c-.731-.167-1.447-.33-2.143-.504l.005-.017-4.626-1.156-.892 3.583 2.436.606c1.358.339 1.605 1.237 1.563 1.95l-1.57 6.301-2.194 8.794c-.167.412-.588 1.032-1.537.797l-2.438-.609-1.665 3.84 4.365 1.088c.812.203 1.608.416 2.39.617l-1.388 5.574 3.35.836 1.376-5.514c.914.249 1.803.478 2.672.694l-1.37 5.488 3.354.836 1.388-5.563c5.719 1.082 10.021.646 11.83-4.526 1.459-4.165-.072-6.568-3.081-8.135 2.191-.508 3.841-1.949 4.282-4.927h.001z" fill="#000"/><path fill-rule="evenodd" clip-rule="evenodd" d="M154.803 281.797c16.883 0 30.569 13.686 30.569 30.569 0 16.882-13.686 30.569-30.569 30.569-16.882 0-30.569-13.687-30.569-30.569 0-16.883 13.687-30.569 30.569-30.569z" fill="#B1FA16"/><path d="M170.078 312.787l-14.324-6.401v-16.947l14.324 23.348zm-14.324-23.348l-14.325 23.348 14.325-6.401v-16.947zm0 45.844v-11.515l14.334-8.315-14.334 19.83zm0 0v-11.517l-14.325-8.313 14.325 19.83z" fill="#000"/><path fill-rule="evenodd" clip-rule="evenodd" d="M155.754 321.103v-14.714l14.324 6.397-14.324 8.317zm1.214-12.848v10.743l10.458-6.071-10.458-4.672zm-1.214 12.848l-14.325-8.317 14.325-6.397v14.714zm-11.673-8.176l10.46 6.071v-10.743l-10.46 4.672z" fill="#000"/><path d="M86.69 175.86c16.882 0 30.568 13.686 30.568 30.57 0 16.882-13.686 30.569-30.569 30.569-16.882 0-30.569-13.687-30.569-30.569 0-16.884 13.687-30.57 30.57-30.57z" fill="#B1FA16"/><path d="M78.78 203.145l4.628-4.612.976-.977 2.313-2.313 7.876 7.902 4.586-4.612-12.462-12.484-12.503 12.484 4.586 4.612z" fill="#000"/><path d="M82.099 206.421l4.604-4.603 4.604 4.603-4.604 4.604-4.604-4.604z" fill="#000"/><path d="M94.573 209.723l-7.879 7.879-2.766-2.766-.51-.51-4.638-4.603-4.586 4.585 12.503 12.482 12.462-12.482-4.586-4.585zm-28.263-3.289l4.604-4.604 4.604 4.604-4.604 4.605-4.604-4.605zm31.552-.002l4.604-4.605 4.604 4.605-4.604 4.603-4.604-4.603z" fill="#000"/><path d="M128.319 186.299h73.994m-73.994 20.131h73.994m-73.994 20.132h73.994m-6.259-146.199h73.994m-73.994 20.131h73.994m-73.994 20.132h73.994m-73.994 173.199h73.994m-73.994 20.132h73.994m-73.994 20.131h73.994" stroke="#B1FA16" stroke-width="3" stroke-miterlimit="22.926" stroke-linecap="round"/><defs><filter id="filter0_f_56_634" x="60" y="34" width="248" height="147" filterUnits="userSpaceOnUse" color-interpolation-filters="sRGB"><feFlood flood-opacity="0" result="BackgroundImageFix"/><feBlend in="SourceGraphic" in2="BackgroundImageFix" result="shape"/><feGaussianBlur stdDeviation="15.5" result="effect1_foregroundBlur_56_634"/></filter><filter id="filter1_f_56_634" x="0" y="138" width="248" height="147" filterUnits="userSpaceOnUse" color-interpolation-filters="sRGB"><feFlood flood-opacity="0" result="BackgroundImageFix"/><feBlend in="SourceGraphic" in2="BackgroundImageFix" result="shape"/><feGaussianBlur stdDeviation="15.5" result="effect1_foregroundBlur_56_634"/></filter><filter id="filter2_f_56_634" x="64" y="247" width="248" height="147" filterUnits="userSpaceOnUse" color-interpolation-filters="sRGB"><feFlood flood-opacity="0" result="BackgroundImageFix"/><feBlend in="SourceGraphic" in2="BackgroundImageFix" result="shape"/><feGaussianBlur stdDeviation="15.5" result="effect1_foregroundBlur_56_634"/></filter></defs></svg>