<svg width="50" height="50" viewBox="0 0 50 50" fill="none" xmlns="http://www.w3.org/2000/svg">
<path d="M42.9268 18.0919L28.9732 4.12967C28.2157 3.37217 27.2171 2.95898 26.1411 2.95898C25.0737 2.95898 24.0666 3.37217 23.3091 4.12967L1.1865 26.2523C0.437599 27.0098 0.0244141 28.0083 0.0244141 29.0843C0.0244141 30.1517 0.437599 31.1588 1.1951 31.9163L2.91671 33.6379L14.4859 45.2071H12.8848C12.3769 45.2071 11.9637 45.6203 11.9637 46.1282C11.9637 46.6361 12.3769 47.0492 12.8848 47.0492H17.9807H31.2457C31.7536 47.0492 32.1667 46.6361 32.1667 46.1282C32.1667 45.6203 31.7536 45.2071 31.2457 45.2071H21.4756L42.9268 23.7559C44.4848 22.1893 44.4848 19.6499 42.9268 18.0919ZM41.6269 22.4475L19.5043 44.5701C19.0998 44.9747 18.5575 45.1985 17.9807 45.1985H17.9721C17.3954 45.1985 16.8531 44.9747 16.4485 44.5701L4.86212 32.9837L26.1067 11.7392C26.4682 11.3776 26.4682 10.8009 26.1067 10.4393C25.7452 10.0778 25.1684 10.0778 24.8069 10.4393L3.56231 31.6839L2.48631 30.6079C2.08173 30.2034 1.85792 29.661 1.85792 29.0757C1.85792 28.4904 2.08173 27.9481 2.48631 27.5435L24.6089 5.42088C25.0135 5.0163 25.5558 4.79249 26.1411 4.79249C26.7179 4.79249 27.2688 5.0163 27.6734 5.42088L32.6402 10.3877L11.3956 31.6409C11.0341 32.0024 11.0341 32.5792 11.3956 32.9407C11.5764 33.1215 11.8088 33.2075 12.0412 33.2075C12.2736 33.2075 12.5146 33.1215 12.6868 32.9407L33.9314 11.6961L41.6183 19.3831C42.4705 20.2353 42.4705 21.6039 41.6269 22.4475Z" fill="url(#paint0_linear)"/>
<path d="M22.6466 29.4803C22.2851 29.1187 21.7083 29.1187 21.3468 29.4803L14.1247 36.7024C13.7631 37.0639 13.7631 37.6407 14.1247 38.0022C14.3054 38.183 14.5379 38.2691 14.7703 38.2691C15.0027 38.2691 15.2437 38.183 15.4159 38.0022L22.638 30.7801C23.0081 30.4185 23.0081 29.8418 22.6466 29.4803Z" fill="url(#paint1_linear)"/>
<path d="M19.6854 36.3409L16.7243 39.302C16.3627 39.6635 16.3627 40.2403 16.7243 40.6018C16.905 40.7826 17.1375 40.8687 17.3699 40.8687C17.6023 40.8687 17.8433 40.7826 18.0155 40.6018L20.9766 37.6407C21.3382 37.2791 21.3382 36.7024 20.9766 36.3409C20.6151 35.9793 20.0384 35.9793 19.6854 36.3409Z" fill="url(#paint2_linear)"/>
<path d="M22.4046 33.6121L22.0172 33.9995C21.6557 34.361 21.6557 34.9377 22.0172 35.2993C22.198 35.4801 22.4304 35.5661 22.6628 35.5661C22.8953 35.5661 23.1363 35.4801 23.3084 35.2993L23.6958 34.9119C24.0573 34.5504 24.0573 33.9736 23.6958 33.6121C23.3515 33.2592 22.7661 33.2592 22.4046 33.6121Z" fill="url(#paint3_linear)"/>
<path d="M35.0677 17.0675C34.8955 16.8953 34.6631 16.8007 34.4221 16.8007C34.181 16.8007 33.9486 16.8953 33.7765 17.0675L29.8684 20.9583C29.6963 21.1305 29.6016 21.3629 29.6016 21.6039C29.6016 21.845 29.6963 22.0774 29.8684 22.2495L32.468 24.8492C32.6488 25.0299 32.8812 25.116 33.1136 25.116C33.3461 25.116 33.5871 25.0299 33.7592 24.8492L37.6587 20.9497C38.0202 20.5882 38.0202 20.0114 37.6587 19.6499L35.0677 17.0675ZM33.1136 22.9037L31.8138 21.6039L34.4134 19.0043L35.7133 20.3041L33.1136 22.9037Z" fill="url(#paint4_linear)"/>
<path d="M27.5963 9.87117C27.8287 9.87117 28.0697 9.78509 28.2419 9.60432L28.6292 9.21696C28.9908 8.85542 28.9908 8.27869 28.6292 7.91715C28.2677 7.55561 27.6909 7.55561 27.3294 7.91715L26.9421 8.30451C26.5805 8.66605 26.5805 9.24278 26.9421 9.60432C27.1314 9.77648 27.3638 9.87117 27.5963 9.87117Z" fill="url(#paint5_linear)"/>
<path d="M9.25226 33.7842L8.8649 34.1716C8.50337 34.5331 8.50337 35.1099 8.8649 35.4714C9.04567 35.6522 9.27809 35.7383 9.5105 35.7383C9.74292 35.7383 9.98394 35.6522 10.1561 35.4714L10.5435 35.084C10.905 34.7225 10.905 34.1458 10.5435 33.7842C10.1905 33.4313 9.6138 33.4313 9.25226 33.7842Z" fill="url(#paint6_linear)"/>
<defs>
<linearGradient id="paint0_linear" x1="11.9603" y1="4.79608" x2="43.4922" y2="12.0432" gradientUnits="userSpaceOnUse">
<stop offset="0.223958" stop-color="#5D4157"/>
<stop offset="1" stop-color="#A8CABA"/>
</linearGradient>
<linearGradient id="paint1_linear" x1="16.3081" y1="29.5866" x2="22.7921" y2="31.078" gradientUnits="userSpaceOnUse">
<stop offset="0.223958" stop-color="#5D4157"/>
<stop offset="1" stop-color="#A8CABA"/>
</linearGradient>
<linearGradient id="paint2_linear" x1="17.7517" y1="36.2697" x2="21.1823" y2="37.0578" gradientUnits="userSpaceOnUse">
<stop offset="0.223958" stop-color="#5D4157"/>
<stop offset="1" stop-color="#A8CABA"/>
</linearGradient>
<linearGradient id="paint3_linear" x1="22.3476" y1="33.4399" x2="23.9363" y2="33.8055" gradientUnits="userSpaceOnUse">
<stop offset="0.223958" stop-color="#5D4157"/>
<stop offset="1" stop-color="#A8CABA"/>
</linearGradient>
<linearGradient id="paint4_linear" x1="31.8571" y1="17.1471" x2="37.8147" y2="18.5191" gradientUnits="userSpaceOnUse">
<stop offset="0.223958" stop-color="#5D4157"/>
<stop offset="1" stop-color="#A8CABA"/>
</linearGradient>
<linearGradient id="paint5_linear" x1="27.2747" y1="7.73871" x2="28.8695" y2="8.10611" gradientUnits="userSpaceOnUse">
<stop offset="0.223958" stop-color="#5D4157"/>
<stop offset="1" stop-color="#A8CABA"/>
</linearGradient>
<linearGradient id="paint6_linear" x1="9.19523" y1="33.612" x2="10.784" y2="33.9776" gradientUnits="userSpaceOnUse">
<stop offset="0.223958" stop-color="#5D4157"/>
<stop offset="1" stop-color="#A8CABA"/>
</linearGradient>
</defs>
</svg>
