<svg width="42" height="42" viewBox="0 0 42 42" fill="none" xmlns="http://www.w3.org/2000/svg">
<path d="M41.6619 17.1127C41.8486 17.1127 42 17.264 42 17.4508V21C42 22.3284 41.8766 23.6273 41.6399 24.8873C39.8092 34.6744 31.1869 42.0707 20.8519 41.9994C9.25523 41.9195 -0.0256226 32.5495 5.31461e-05 20.9527C0.0255649 9.37666 9.41798 0 21 0C26.6743 0 31.8228 2.2511 35.6027 5.90773C35.7392 6.03971 35.7427 6.25726 35.6084 6.39146L30.5872 11.4127C30.4579 11.542 30.2491 11.5453 30.1166 11.4192C27.7442 9.161 24.5343 7.77459 21 7.77459C13.7016 7.77459 7.82444 13.61 7.77489 20.9082C7.7251 28.2543 13.6655 34.2253 21 34.2253C26.9509 34.2253 31.9842 30.2941 33.6439 24.8873H21.338C21.1513 24.8873 21 24.7359 21 24.5492V17.4507C21 17.264 21.1513 17.1126 21.338 17.1126H41.6619V17.1127Z" fill="#2196F3"/>
<path d="M41.6614 17.1128H39.1262C39.3129 17.1128 39.4642 17.2641 39.4642 17.4508V21.0001C39.4642 22.3285 39.3409 23.6274 39.1042 24.8874C37.3577 34.2243 29.4298 41.3853 19.7305 41.9622C20.1016 41.9841 20.4751 41.9969 20.8513 41.9995C31.1865 42.0708 39.8087 34.6744 41.6394 24.8874C41.876 23.6274 41.9994 22.3285 41.9994 21.0001V17.4508C41.9994 17.2641 41.8481 17.1128 41.6614 17.1128Z" fill="#1E88E5"/>
<path d="M8.98714 15.4614L2.60938 10.8532C6.18741 4.3817 13.0823 0 20.9998 0C26.6741 0 31.8226 2.2511 35.6025 5.90773C35.739 6.03971 35.7425 6.25726 35.6083 6.39146L30.587 11.4127C30.458 11.5417 30.2492 11.5457 30.117 11.4199C27.7446 9.16125 24.5344 7.77468 20.9998 7.77468C15.6733 7.77468 11.0821 10.9234 8.98714 15.4614Z" fill="#F44336"/>
<path d="M7.14648 14.1311L8.98768 15.4614C10.8998 11.3193 14.8921 8.33616 19.6245 7.84685C19.6601 7.84299 19.6943 7.83831 19.7306 7.83487C19.3141 7.79533 18.892 7.77466 18.4652 7.77466C13.6535 7.77466 9.46001 10.3113 7.14648 14.1311Z" fill="#E53935"/>
<path d="M33.0677 5.90773C33.2042 6.03971 33.2078 6.25726 33.0735 6.39155L28.9979 10.4671C29.3884 10.7641 29.7621 11.0817 30.1168 11.4193C30.2492 11.5454 30.4582 11.542 30.5875 11.4128L35.6087 6.39155C35.743 6.25726 35.7393 6.0398 35.6029 5.90773C31.823 2.2511 26.6746 0 21.0002 0C20.5744 0 20.1519 0.0141914 19.7324 0.0392109C24.9037 0.347238 29.5713 2.52541 33.0677 5.90773Z" fill="#E53935"/>
<path d="M36.4045 35.2716C32.5695 39.41 27.0867 42.0001 20.9997 42.0001C12.778 42.0001 5.66001 37.2753 2.21289 30.3922L8.72412 25.9302C10.678 30.7919 15.4383 34.2254 20.9997 34.2254C24.4898 34.2254 27.6639 32.8733 30.0267 30.6643L36.4045 35.2716Z" fill="#4CAF50"/>
<path d="M8.72471 25.9302L6.80469 27.2459C9.03471 31.4003 13.42 34.2253 18.465 34.2253C18.8917 34.2253 19.3134 34.2044 19.7297 34.165C14.7218 33.6875 10.5279 30.4172 8.72471 25.9302Z" fill="#43A047"/>
<path d="M21.0008 42C27.0878 42 32.5706 39.4099 36.4056 35.2716L34.8434 34.1431C31.2426 38.6244 25.8408 41.5973 19.7363 41.9618C20.1547 41.9867 20.5762 42 21.0008 42Z" fill="#43A047"/>
<path d="M7.77467 21C7.77467 22.7426 8.11182 24.4066 8.72451 25.9302L2.2132 30.3921C0.796934 27.5662 0 24.3761 0 21C0 17.3198 0.946476 13.8609 2.60958 10.8533L8.98734 15.4615C8.20903 17.1456 7.77467 19.0226 7.77467 21Z" fill="#FFC107"/>
<path d="M6.80529 27.2459L8.72532 25.9302C8.11262 24.4065 7.77548 22.7425 7.77548 21C7.77548 19.0225 8.20983 17.1456 8.98814 15.4614L7.14695 14.1311C5.95135 16.1052 5.25745 18.4217 5.24055 20.9083C5.22496 23.2014 5.79319 25.3605 6.80529 27.2459Z" fill="#FFB300"/>
</svg>
