<svg width="109" height="30" fill="none" xmlns="http://www.w3.org/2000/svg"><rect width="109" height="30" rx="3" fill="url(#paint0_linear)"/><g clip-path="url(#clip0)" fill="#fff"><path d="M21.04 23H16.4c-.16 0-.16 0-.32-.16 0 0-.16-.16-.16-.32 0-.48 0-3.52-2.08-7.36.16 0 .16-.32.32-.48 1.92-3.84 2.08-6.72 2.08-7.36 0-.16 0-.16.16-.32-.16 0 0 0 0 0h4.64c.16 0 .16 0 .32.16 0 0 .16.16.16.32 0 .48 0 3.52 2.08 7.36 0 0 0 .32-.16.48-1.92 3.84-1.92 6.72-1.92 7.36 0 .16 0 .16-.16.32h-.32zm-4.32-.64h4.16c0-.96.32-3.68 2.08-7.36v-.16c-1.76-3.52-2.08-6.4-2.08-7.36h-4.16c0 .96-.32 3.68-2.08 7.36V15c1.76 3.68 2.08 6.56 2.08 7.36z"/><path d="M20.56 8.6c.16.8.16 2.88 1.76 6.08 0 .16.16.32 0 .48-.48 1.28-1.44 3.04-1.76 6.56 0 0 0 .16-.16.16h-3.2L20.56 8.6zM28.08 19v-8h3.04c.64 0 1.12.16 1.44.32.32.16.64.48.8.8.16.32.32.64.32 1.12 0 .32-.16.64-.32.96-.16.32-.48.48-.8.8.48.16.8.32 1.12.8.32.32.32.8.32 1.28 0 .32 0 .8-.16 1.12-.16.32-.32.64-.64.8-.16.16-.48.32-.8.32-.32.16-.8.16-1.28.16h-3.04V19zm1.12-4.64h1.76c.48 0 .8 0 .96-.16.32 0 .48-.16.64-.32.16-.16.16-.48.16-.64 0-.32 0-.48-.16-.64l-.48-.48c-.16 0-.64-.16-1.28-.16h-1.6v2.4zm0 3.68h2.56c.32 0 .48-.16.64-.16l.48-.48c.16-.16.16-.48.16-.64 0-.32 0-.48-.16-.8-.16-.16-.32-.32-.64-.48-.32-.16-.64-.16-1.12-.16H29.2v2.72zm5.44.96l3.04-8h1.12l3.2 8h-1.28l-.96-2.4H36.4l-.8 2.4h-.96zm2.4-3.36h2.72l-.96-2.24c-.32-.64-.48-1.28-.64-1.6-.16.48-.32.96-.48 1.6l-.64 2.24zM42.96 19v-8h1.12l4.16 6.24V11h.96v8h-1.12l-4.16-6.24V19h-.96zm8 0v-8h1.12v4l4-4h1.44l-3.36 3.2 3.52 4.8h-1.44l-2.88-4-1.28 1.28V19h-1.12zm7.68 0v-8h1.12v8h-1.12zm2.88 0v-8h2.72c.64 0 1.12 0 1.44.16.48.16.8.32 1.12.64.48.32.8.8.96 1.44.16.48.32 1.12.32 1.92 0 .64 0 1.12-.16 1.6s-.32.8-.48 1.12c-.16.32-.48.48-.8.8-.32.32-.64.32-.96.32-.32.16-.8.16-1.28.16h-2.88V19zm1.12-.96h1.76c.48 0 .96 0 1.28-.16.32-.16.48-.16.64-.48.32-.32.48-.64.64-.96.16-.32.16-.96.16-1.6 0-.8-.16-1.44-.48-1.92-.32-.48-.64-.8-.96-.96-.32-.16-.8-.16-1.44-.16h-1.6v6.24zm10.08.96v-8h1.12v3.2H78V11h1.12v8H78v-3.84h-4.16v3.68h-1.12V19zm8-8H86v.96h-4.16v2.4h1.92c.64 0 1.28 0 1.6.16.48.16.8.32.96.8.32.32.32.8.32 1.28s-.16.8-.32 1.12c-.16.32-.48.64-.8.8-.32.16-.96.32-1.76.32h-3.2V11h.16zm1.12 7.04h2.08c.64 0 .96-.16 1.28-.32.32-.16.48-.64.48-1.12 0-.32-.16-.64-.32-.8-.16-.16-.32-.32-.64-.48-.32 0-.8-.16-1.44-.16h-1.44v2.88zM86.96 11h1.12l2.56 4.96L92.88 11H94l-3.04 6.24c-.32.8-.64 1.28-.96 1.6-.16.16-.64.32-.96.32-.32 0-.64 0-.96-.16v-1.12c.16.16.48.32.8.32.32 0 .48-.16.64-.32.16-.16.32-.48.64-1.12L86.96 11z"/></g><defs><linearGradient id="paint0_linear" x1="29.521" y1="1.25" x2="77.878" y2="41.649" gradientUnits="userSpaceOnUse"><stop stop-color="#2D4251"/><stop offset="1" stop-color="#4E718A"/></linearGradient><clipPath id="clip0"><path fill="#fff" transform="translate(14 7)" d="M0 0h80v16H0z"/></clipPath></defs></svg>