<svg width="42" height="42" fill="none" xmlns="http://www.w3.org/2000/svg"><path d="M41.665 15.08c-.466-2.182-1.393-4.145-2.752-5.83l-.01-.012a.82.82 0 00-1.282 1.024l.012.014c1.199 1.487 2.016 3.219 2.428 5.147.416 1.947.396 3.999-.06 6.099-.86 3.963-3.195 7.676-6.576 10.454C30.03 34.764 25.964 36.3 21.97 36.3c-2.06 0-3.99-.405-5.735-1.205a11.91 11.91 0 01-4.355-3.371 12.147 12.147 0 01-2.397-5.015h1.68a10.517 10.517 0 001.994 3.985c2.062 2.557 5.192 3.965 8.813 3.965.164 0 .328-.003.492-.01a.813.813 0 00.314-.014c3.353-.191 6.736-1.568 9.606-3.927 3.097-2.544 5.233-5.93 6.015-9.534v-.004l.002-.01c.805-3.721.079-7.22-2.044-9.854-2.06-2.554-5.184-3.961-8.8-3.965h-.011c-3.614 0-7.311 1.403-10.412 3.95-3.097 2.545-5.233 5.931-6.015 9.535v.005l-.002.007c-.315 1.458-.395 2.88-.248 4.23H9.22a14.838 14.838 0 01.292-4.59c.86-3.963 3.195-7.676 6.576-10.454C19.483 7.236 23.551 5.7 27.543 5.7c1.62 0 3.169.253 4.606.753a.82.82 0 10.538-1.55 15.63 15.63 0 00-5.144-.844c-4.117 0-8.293 1.48-11.845 4.184H5.495a.82.82 0 100 1.64h8.284c-2.98 2.858-5.044 6.443-5.87 10.247a16.51 16.51 0 00-.335 4.938H4.507a.82.82 0 000 1.641h3.3l.042.21c.466 2.183 1.393 4.145 2.755 5.835a13.537 13.537 0 004.949 3.833c1.961.898 4.12 1.354 6.418 1.354 4.372 0 8.81-1.669 12.496-4.698 3.665-3.011 6.2-7.05 7.138-11.373.505-2.33.525-4.614.06-6.79zm-29.068 6.74h.922a.82.82 0 100-1.64h-.543c.856-2.871 2.673-5.547 5.196-7.62 2.512-2.064 5.44-3.298 8.344-3.536l-.122.564a.82.82 0 101.603.348L28.2 9c2.834.156 5.258 1.326 6.878 3.336 1.687 2.092 2.33 4.857 1.84 7.844h-.923a.82.82 0 100 1.64h.543c-.856 2.871-2.673 5.547-5.196 7.62-2.332 1.917-5.022 3.117-7.72 3.47l.108-.498a.82.82 0 00-1.603-.348l-.207.954c-3.094-.013-5.75-1.203-7.484-3.354a8.834 8.834 0 01-1.565-2.955h3.5a.82.82 0 100-1.64h-3.852a11.287 11.287 0 01.078-3.249z" fill="url(#paint0_linear)"/><path d="M21.49 24.506a.817.817 0 00.52-.186l3.269-2.686a.82.82 0 00.28-.46l1.647-7.585a.82.82 0 00-1.604-.348l-1.585 7.306-3.049 2.505a.82.82 0 00.522 1.454z" fill="url(#paint1_linear)"/><path d="M.82 16.947h5.6a.82.82 0 100-1.64H.82a.82.82 0 100 1.64z" fill="url(#paint2_linear)"/><path d="M7.25 32.533H2.98a.82.82 0 100 1.641h4.27a.82.82 0 000-1.64z" fill="url(#paint3_linear)"/><path d="M1.577 25.575c-.282-.678-1.279-.654-1.529.037a.827.827 0 00.267.923c.268.207.64.23.93.055a.827.827 0 00.332-1.015z" fill="url(#paint4_linear)"/><path d="M34.959 7.696a.828.828 0 001.071.444.828.828 0 00.444-1.071.827.827 0 00-1.071-.444.828.828 0 00-.444 1.071z" fill="url(#paint5_linear)"/><defs><linearGradient id="paint0_linear" x1="14.063" y1="5.471" x2="41.096" y2="12.5" gradientUnits="userSpaceOnUse"><stop stop-color="#FFAA32"/><stop offset="1" stop-color="#FF7A00"/></linearGradient><linearGradient id="paint1_linear" x1="22.444" y1="13.09" x2="27.305" y2="13.705" gradientUnits="userSpaceOnUse"><stop stop-color="#FFAA32"/><stop offset="1" stop-color="#FF7A00"/></linearGradient><linearGradient id="paint2_linear" x1="1.961" y1="15.375" x2="4.648" y2="18.102" gradientUnits="userSpaceOnUse"><stop stop-color="#FFAA32"/><stop offset="1" stop-color="#FF7A00"/></linearGradient><linearGradient id="paint3_linear" x1="3.76" y1="32.602" x2="6.4" y2="34.789" gradientUnits="userSpaceOnUse"><stop stop-color="#FFAA32"/><stop offset="1" stop-color="#FF7A00"/></linearGradient><linearGradient id="paint4_linear" x1=".444" y1="25.148" x2="1.615" y2="25.419" gradientUnits="userSpaceOnUse"><stop stop-color="#FFAA32"/><stop offset="1" stop-color="#FF7A00"/></linearGradient><linearGradient id="paint5_linear" x1="35.342" y1="6.632" x2="36.513" y2="6.901" gradientUnits="userSpaceOnUse"><stop stop-color="#FFAA32"/><stop offset="1" stop-color="#FF7A00"/></linearGradient></defs></svg>