<svg width="42" height="42" fill="none" xmlns="http://www.w3.org/2000/svg"><path d="M24.633 39.294h-6.79a2.192 2.192 0 01-2.191-2.289V32.44a.568.568 0 011.135 0v4.566a1.066 1.066 0 001.056 1.155h6.79a1.392 1.392 0 001.41-1.155V32.44a.568.568 0 011.135 0v4.566a2.491 2.491 0 01-2.545 2.289z" fill="url(#paint0_linear)"/><path d="M26.13 33.007H16.7a1.14 1.14 0 01-1.115-.94 12.434 12.434 0 00-3.121-5.944 11.892 11.892 0 1117.902 0 12.435 12.435 0 00-3.123 5.945 1.14 1.14 0 01-1.114.939zM21.406 7.544a10.752 10.752 0 00-8.09 17.83 13.531 13.531 0 013.385 6.488l9.421.01a13.57 13.57 0 013.39-6.498 10.752 10.752 0 00-8.106-17.83z" fill="url(#paint1_linear)"/><path d="M21.414 41.36a2.585 2.585 0 01-2.581-2.583.612.612 0 01.568-.617h4.03a.568.568 0 01.567.568 2.596 2.596 0 01-2.584 2.632zm-1.35-2.064a1.446 1.446 0 002.702 0h-2.702z" fill="url(#paint2_linear)"/><path d="M15.438 35.507a.568.568 0 01-.057-1.133l11.866-1.216a.567.567 0 11.114 1.13l-11.867 1.215a.512.512 0 01-.056.004z" fill="url(#paint3_linear)"/><path d="M15.525 37.839a.569.569 0 01-.056-1.136l11.778-1.206a.567.567 0 11.114 1.129l-11.778 1.21a.51.51 0 01-.058.003z" fill="url(#paint4_linear)"/><path d="M21.37 5.09a.567.567 0 01-.567-.568V2.195a.567.567 0 111.135 0v2.327a.567.567 0 01-.568.568z" fill="url(#paint5_linear)"/><path d="M14.553 6.94a.568.568 0 01-.493-.283l-1.162-2.014a.568.568 0 01.983-.567l1.163 2.013a.567.567 0 01-.491.852z" fill="url(#paint6_linear)"/><path d="M9.573 11.952a.563.563 0 01-.284-.076l-2.013-1.163a.568.568 0 11.568-.982l2.013 1.162a.567.567 0 01-.284 1.06z" fill="url(#paint7_linear)"/><path d="M7.768 18.782H5.44a.568.568 0 010-1.135h2.327a.568.568 0 010 1.135z" fill="url(#paint8_linear)"/><path d="M7.606 26.762a.567.567 0 01-.284-1.06l2.014-1.162a.567.567 0 11.567.984L7.89 26.686a.567.567 0 01-.283.076z" fill="url(#paint9_linear)"/><path d="M28.277 6.94a.567.567 0 01-.491-.85l1.16-2.014a.568.568 0 01.983.567l-1.162 2.014a.568.568 0 01-.49.284z" fill="url(#paint10_linear)"/><path d="M33.259 11.952a.567.567 0 01-.284-1.059l2.013-1.162a.567.567 0 11.568.982l-2.013 1.163a.563.563 0 01-.284.076z" fill="url(#paint11_linear)"/><path d="M37.387 18.782H35.06a.568.568 0 010-1.135h2.327a.568.568 0 010 1.135z" fill="url(#paint12_linear)"/><path d="M35.225 26.762a.572.572 0 01-.284-.076l-2.013-1.162a.57.57 0 01-.207-.776.567.567 0 01.775-.207l2.013 1.162a.567.567 0 01-.284 1.059z" fill="url(#paint13_linear)"/><path d="M18.969 33.007a.567.567 0 01-.552-.439l-2.752-11.806a.568.568 0 01.75-.66l2.573.955 2.133-1.29a.567.567 0 01.588 0l2.134 1.29 2.57-.955a.567.567 0 01.75.66l-2.75 11.806a.568.568 0 01-1.105-.258l2.51-10.778-1.837.681a.57.57 0 01-.491-.046l-2.075-1.25-2.074 1.253a.568.568 0 01-.492.046l-1.837-.68 2.513 10.774a.568.568 0 01-.556.697z" fill="url(#paint14_linear)"/><defs><linearGradient id="paint0_linear" x1="18.772" y1="32.181" x2="26.474" y2="34.932" gradientUnits="userSpaceOnUse"><stop stop-color="#FFAA32"/><stop offset="1" stop-color="#FF7A00"/></linearGradient><linearGradient id="paint1_linear" x1="15.965" y1="7.512" x2="33.154" y2="11.045" gradientUnits="userSpaceOnUse"><stop stop-color="#FFAA32"/><stop offset="1" stop-color="#FF7A00"/></linearGradient><linearGradient id="paint2_linear" x1="20.232" y1="38.294" x2="23.651" y2="39.563" gradientUnits="userSpaceOnUse"><stop stop-color="#FFAA32"/><stop offset="1" stop-color="#FF7A00"/></linearGradient><linearGradient id="paint3_linear" x1="18.396" y1="33.252" x2="22.141" y2="38.016" gradientUnits="userSpaceOnUse"><stop stop-color="#FFAA32"/><stop offset="1" stop-color="#FF7A00"/></linearGradient><linearGradient id="paint4_linear" x1="18.439" y1="35.59" x2="22.177" y2="40.335" gradientUnits="userSpaceOnUse"><stop stop-color="#FFAA32"/><stop offset="1" stop-color="#FF7A00"/></linearGradient><linearGradient id="paint5_linear" x1="21.11" y1="1.772" x2="21.96" y2="1.836" gradientUnits="userSpaceOnUse"><stop stop-color="#FFAA32"/><stop offset="1" stop-color="#FF7A00"/></linearGradient><linearGradient id="paint6_linear" x1="13.446" y1="3.926" x2="15.128" y2="4.208" gradientUnits="userSpaceOnUse"><stop stop-color="#FFAA32"/><stop offset="1" stop-color="#FF7A00"/></linearGradient><linearGradient id="paint7_linear" x1="7.834" y1="9.742" x2="10.001" y2="10.426" gradientUnits="userSpaceOnUse"><stop stop-color="#FFAA32"/><stop offset="1" stop-color="#FF7A00"/></linearGradient><linearGradient id="paint8_linear" x1="5.811" y1="17.694" x2="7.559" y2="18.92" gradientUnits="userSpaceOnUse"><stop stop-color="#FFAA32"/><stop offset="1" stop-color="#FF7A00"/></linearGradient><linearGradient id="paint9_linear" x1="7.891" y1="24.56" x2="10.049" y2="25.24" gradientUnits="userSpaceOnUse"><stop stop-color="#FFAA32"/><stop offset="1" stop-color="#FF7A00"/></linearGradient><linearGradient id="paint10_linear" x1="28.331" y1="3.926" x2="30.011" y2="4.208" gradientUnits="userSpaceOnUse"><stop stop-color="#FFAA32"/><stop offset="1" stop-color="#FF7A00"/></linearGradient><linearGradient id="paint11_linear" x1="33.548" y1="9.742" x2="35.715" y2="10.426" gradientUnits="userSpaceOnUse"><stop stop-color="#FFAA32"/><stop offset="1" stop-color="#FF7A00"/></linearGradient><linearGradient id="paint12_linear" x1="35.43" y1="17.694" x2="37.178" y2="18.92" gradientUnits="userSpaceOnUse"><stop stop-color="#FFAA32"/><stop offset="1" stop-color="#FF7A00"/></linearGradient><linearGradient id="paint13_linear" x1="33.497" y1="24.56" x2="35.654" y2="25.24" gradientUnits="userSpaceOnUse"><stop stop-color="#FFAA32"/><stop offset="1" stop-color="#FF7A00"/></linearGradient><linearGradient id="paint14_linear" x1="18.772" y1="20.24" x2="27.125" y2="21.902" gradientUnits="userSpaceOnUse"><stop stop-color="#FFAA32"/><stop offset="1" stop-color="#FF7A00"/></linearGradient></defs></svg>