<svg width="42" height="42" fill="none" xmlns="http://www.w3.org/2000/svg"><path d="M31.162.678v1.356h2.43L19.645 15.98l-6.772-6.779-8.606 8.607.95.959 7.656-7.648 6.772 6.771L34.55 2.993v2.422h1.356V.678h-4.745z" fill="url(#paint0_linear)"/><path d="M40.644 39.966V10.161h-6.771v29.805h-1.356V14.23h-6.771v25.745H24.39V23.712h-6.78v16.254h-1.356V19.644h-6.77v20.322H8.126v-9.483h-6.77v9.483H0v1.356h42v-1.356h-1.356zm-33.864 0H2.712V31.84H6.78v8.127zm8.127 0h-4.068V21h4.068v18.966zm8.127.008h-4.068V25.068h4.068v14.906zm8.127 0h-4.068v-24.39h4.068v24.39zm8.136-.008h-4.068v-28.45h4.068v28.45z" fill="url(#paint1_linear)"/><defs><linearGradient id="paint0_linear" x1="12.836" y1="1.432" x2="33.352" y2="9.683" gradientUnits="userSpaceOnUse"><stop stop-color="#FFAA32"/><stop offset="1" stop-color="#FF7A00"/></linearGradient><linearGradient id="paint1_linear" x1="11.375" y1="11.459" x2="40.24" y2="20.405" gradientUnits="userSpaceOnUse"><stop stop-color="#FFAA32"/><stop offset="1" stop-color="#FF7A00"/></linearGradient></defs></svg>