<svg width="42" height="42" fill="none" xmlns="http://www.w3.org/2000/svg"><g clip-path="url(#clip0)"><path d="M23.294 0c-8.679 0-15.74 7.06-15.74 15.74v.502l-4.529 8.412a.623.623 0 00.3.858l4.23 1.813v8.8c0 .34.275.616.616.616h8.68l1.244 4.798a.622.622 0 00.774.436.622.622 0 00.42-.745l-1.365-5.26a.617.617 0 00-.596-.462H8.787v-8.59a.616.616 0 00-.374-.566L4.43 24.645l4.283-7.955a.616.616 0 00.074-.292v-.658c0-8 6.508-14.507 14.507-14.507 8 0 14.507 6.508 14.507 14.507 0 4.58-2.097 8.797-5.753 11.568a.617.617 0 00-.22.666l1.134 3.825a.617.617 0 101.183-.35l-1.015-3.422a15.891 15.891 0 004.205-5.167 15.57 15.57 0 001.7-7.12C39.034 7.06 31.972 0 23.294 0z" fill="url(#paint0_linear)"/><path d="M34.933 34.11a.617.617 0 00-1.182.351l2.103 7.099c.1.335.47.522.8.405a.622.622 0 00.383-.756l-2.104-7.098z" fill="url(#paint1_linear)"/><path d="M29.828 15.74a6.542 6.542 0 00-6.534-6.534 6.542 6.542 0 00-6.534 6.534 6.495 6.495 0 003.287 5.67v.29h-.04a.616.616 0 00-.617.616v1.356h-.041a.616.616 0 000 1.233h.04v.657h-.04a.616.616 0 000 1.233h.085a3.252 3.252 0 003.203 2.712h1.315a3.251 3.251 0 003.201-2.712h.086a.616.616 0 100-1.233h-.04v-.657h.04a.616.616 0 100-1.233h-.04v-1.356a.616.616 0 00-.617-.617h-.041v-.288a6.496 6.496 0 003.287-5.671zm-5.876 12.534h-1.316a2.016 2.016 0 01-1.94-1.479h5.197a2.016 2.016 0 01-1.941 1.48zm2.013-2.712h-5.342v-.657h5.342v.657zm-5.342-1.89v-.74h5.342v.74h-5.342zm3.288-1.973v-4.027h1.356c.34 0 .616-.276.616-.617v-1.973a.616.616 0 10-1.233 0v1.357h-2.712v-1.357a.616.616 0 10-1.233 0v1.973c0 .34.276.617.617.617h1.356v4.027H21.28v-.658a.616.616 0 00-.342-.552 5.275 5.275 0 01-2.945-4.749 5.307 5.307 0 015.301-5.302 5.308 5.308 0 015.302 5.302 5.275 5.275 0 01-2.946 4.75.616.616 0 00-.342.551v.658H23.91z" fill="url(#paint2_linear)"/><path d="M23.91 7.85V6.533a.616.616 0 00-1.232 0V7.85a.616.616 0 101.233 0z" fill="url(#paint3_linear)"/><path d="M19.35 9.523a.622.622 0 00.533-.925l-.657-1.139a.616.616 0 10-1.068.617c.217.377.43.757.653 1.13a.627.627 0 00.539.317z" fill="url(#paint4_linear)"/><path d="M16.152 12.329a.622.622 0 00.873-.287.622.622 0 00-.256-.781l-1.14-.658a.616.616 0 00-.616 1.068l1.14.658z" fill="url(#paint5_linear)"/><path d="M13.472 15.74c0 .34.276.617.616.617h1.315a.616.616 0 100-1.233h-1.315a.617.617 0 00-.616.616z" fill="url(#paint6_linear)"/><path d="M15.322 20.96a.62.62 0 00.308-.083l1.138-.658a.616.616 0 10-.616-1.068l-1.139.658a.623.623 0 00-.294.664c.06.28.316.487.603.487z" fill="url(#paint7_linear)"/><path d="M31.576 19.809l-1.14-.658a.616.616 0 10-.616 1.068l1.139.658a.622.622 0 00.873-.287.623.623 0 00-.256-.781z" fill="url(#paint8_linear)"/><path d="M30.568 15.74c0 .34.276.617.617.617H32.5a.616.616 0 000-1.233h-1.315a.616.616 0 00-.617.616z" fill="url(#paint9_linear)"/><path d="M30.959 10.604l-.823.474c-.105.06-.211.12-.316.182a.625.625 0 00-.287.697.622.622 0 00.903.372l1.14-.658a.617.617 0 00-.617-1.067z" fill="url(#paint10_linear)"/><path d="M27.239 9.523c.213 0 .42-.11.534-.308l.658-1.14a.617.617 0 00-1.068-.616l-.657 1.14a.622.622 0 00.533.924z" fill="url(#paint11_linear)"/></g><defs><linearGradient id="paint0_linear" x1="12.725" y1="1.75" x2="38.884" y2="6.917" gradientUnits="userSpaceOnUse"><stop stop-color="#FFAA32"/><stop offset="1" stop-color="#FF7A00"/></linearGradient><linearGradient id="paint1_linear" x1="34.629" y1="34.017" x2="37.12" y2="34.246" gradientUnits="userSpaceOnUse"><stop stop-color="#FFAA32"/><stop offset="1" stop-color="#FF7A00"/></linearGradient><linearGradient id="paint2_linear" x1="20.299" y1="10.052" x2="29.932" y2="11.477" gradientUnits="userSpaceOnUse"><stop stop-color="#FFAA32"/><stop offset="1" stop-color="#FF7A00"/></linearGradient><linearGradient id="paint3_linear" x1="23.012" y1="6.024" x2="23.929" y2="6.126" gradientUnits="userSpaceOnUse"><stop stop-color="#FFAA32"/><stop offset="1" stop-color="#FF7A00"/></linearGradient><linearGradient id="paint4_linear" x1="18.587" y1="7.25" x2="19.963" y2="7.502" gradientUnits="userSpaceOnUse"><stop stop-color="#FFAA32"/><stop offset="1" stop-color="#FF7A00"/></linearGradient><linearGradient id="paint5_linear" x1="15.347" y1="10.599" x2="16.996" y2="11.075" gradientUnits="userSpaceOnUse"><stop stop-color="#FFAA32"/><stop offset="1" stop-color="#FF7A00"/></linearGradient><linearGradient id="paint6_linear" x1="14.162" y1="15.175" x2="15.728" y2="15.919" gradientUnits="userSpaceOnUse"><stop stop-color="#FFAA32"/><stop offset="1" stop-color="#FF7A00"/></linearGradient><linearGradient id="paint7_linear" x1="15.347" y1="19.148" x2="16.997" y2="19.623" gradientUnits="userSpaceOnUse"><stop stop-color="#FFAA32"/><stop offset="1" stop-color="#FF7A00"/></linearGradient><linearGradient id="paint8_linear" x1="30.154" y1="19.148" x2="31.802" y2="19.623" gradientUnits="userSpaceOnUse"><stop stop-color="#FFAA32"/><stop offset="1" stop-color="#FF7A00"/></linearGradient><linearGradient id="paint9_linear" x1="31.258" y1="15.175" x2="32.824" y2="15.919" gradientUnits="userSpaceOnUse"><stop stop-color="#FFAA32"/><stop offset="1" stop-color="#FF7A00"/></linearGradient><linearGradient id="paint10_linear" x1="30.154" y1="10.6" x2="31.803" y2="11.076" gradientUnits="userSpaceOnUse"><stop stop-color="#FFAA32"/><stop offset="1" stop-color="#FF7A00"/></linearGradient><linearGradient id="paint11_linear" x1="27.137" y1="7.25" x2="28.513" y2="7.502" gradientUnits="userSpaceOnUse"><stop stop-color="#FFAA32"/><stop offset="1" stop-color="#FF7A00"/></linearGradient><clipPath id="clip0"><path fill="#fff" d="M0 0h42v42H0z"/></clipPath></defs></svg>