<svg width="42" height="42" fill="none" xmlns="http://www.w3.org/2000/svg"><path d="M30.064 4.802c-2.126-2.003-5.769-2.46-9.064.835-3.29-3.292-6.938-2.838-9.064-.837a6.003 6.003 0 00-.133 8.618L21 22.616l9.196-9.196a6.003 6.003 0 00-.132-8.618zm-1.01 7.474L21 20.332l-8.055-8.054a4.384 4.384 0 01.099-6.3c.772-.73 1.806-1.13 2.91-1.13 2.314 0 3.354 1.382 5.046 3.073 1.646-1.646 2.705-3.074 5.044-3.074 1.105 0 2.14.4 2.913 1.13a4.384 4.384 0 01.097 6.3z" fill="url(#paint0_linear)"/><path d="M39.239 4.847a2.75 2.75 0 00-2.746 2.481L35.47 17.426a2.593 2.593 0 00-1.295.695l-8.16 7.595a5.486 5.486 0 00-1.785 4.006v9.048h9.693v-4.258c0-.657.276-1.297.777-1.772l6.13-6.187A4.018 4.018 0 0042 23.71V7.608a2.765 2.765 0 00-2.761-2.76zm1.145 18.863c0 .643-.248 1.249-.702 1.707l-6.111 6.168a4.045 4.045 0 00-1.264 2.927v2.643h-6.461v-7.423a3.859 3.859 0 011.265-2.824l8.185-7.623c.22-.22.52-.328.838-.295a1.033 1.033 0 01.955 1.039c0 .279-.111.544-.281.715l-6.302 5.715 1.086 1.196 6.33-5.743a2.648 2.648 0 00.782-1.885 2.64 2.64 0 00-.78-1.884 2.577 2.577 0 00-.845-.57l1.02-10.08a1.146 1.146 0 012.286.115V23.71z" fill="url(#paint1_linear)"/><path d="M15.984 25.716l-8.16-7.595a2.581 2.581 0 00-1.295-.695L5.507 7.328a2.75 2.75 0 00-2.746-2.48A2.765 2.765 0 000 7.607V23.71c0 1.07.415 2.08 1.17 2.841l6.13 6.187c.5.475.777 1.117.777 1.774v4.258h9.692v-9.048a5.483 5.483 0 00-1.785-4.006zm.17 11.439H9.692v-2.643c0-1.1-.46-2.168-1.263-2.927l-6.11-6.168a2.412 2.412 0 01-.704-1.707V7.608a1.146 1.146 0 012.286-.118l1.02 10.08a2.61 2.61 0 00-.845.57 2.646 2.646 0 00-.78 1.884c0 .712.277 1.38.781 1.885l6.33 5.742 1.086-1.195-6.301-5.715a1.023 1.023 0 01-.281-.716 1.033 1.033 0 01.954-1.039c.32-.03.62.076.839.296l8.185 7.623a3.859 3.859 0 011.265 2.824v7.426z" fill="url(#paint2_linear)"/><defs><linearGradient id="paint0_linear" x1="15.979" y1="4.038" x2="31.439" y2="8.055" gradientUnits="userSpaceOnUse"><stop stop-color="#FFAA32"/><stop offset="1" stop-color="#FF7A00"/></linearGradient><linearGradient id="paint1_linear" x1="29.043" y1="6.261" x2="42.237" y2="7.85" gradientUnits="userSpaceOnUse"><stop stop-color="#FFAA32"/><stop offset="1" stop-color="#FF7A00"/></linearGradient><linearGradient id="paint2_linear" x1="4.813" y1="6.261" x2="18.006" y2="7.85" gradientUnits="userSpaceOnUse"><stop stop-color="#FFAA32"/><stop offset="1" stop-color="#FF7A00"/></linearGradient></defs></svg>