<svg width="42" height="42" fill="none" xmlns="http://www.w3.org/2000/svg"><path d="M1.365 28.618a.656.656 0 00.516.59l2.287.493c.08.39.183.774.307 1.15l-1.731 1.568a.656.656 0 00-.152.768c.317.666.669 1.28 1.048 1.828.164.237.464.34.74.251l2.223-.716c.266.298.549.581.847.847l-.716 2.223a.656.656 0 00.251.74c.547.38 1.162.732 1.828 1.048a.657.657 0 00.768-.152l1.569-1.731c.376.123.76.226 1.15.307l.494 2.287c.06.283.3.492.588.516.35.028.7.053 1.056.053.356 0 .706-.025 1.055-.053a.656.656 0 00.59-.516l.493-2.287c.39-.08.775-.183 1.15-.307l1.568 1.731a.655.655 0 00.769.152 13.23 13.23 0 001.828-1.048.656.656 0 00.25-.74l-.715-2.223c.298-.266.58-.549.847-.846l2.222.716a.655.655 0 00.741-.252c.379-.547.731-1.162 1.047-1.827a.656.656 0 00-.151-.769L24.4 30.851c.123-.376.226-.76.307-1.15l2.287-.494a.657.657 0 00.516-.589c.027-.35.052-.7.052-1.055 0-.357-.025-.707-.053-1.056a.656.656 0 00-.516-.59l-2.287-.493a10.19 10.19 0 00-.307-1.15l1.731-1.568a.656.656 0 00.152-.769c-.317-.665-.67-1.28-1.048-1.828a.655.655 0 00-.74-.25l-2.223.715c-.266-.298-.549-.58-.847-.847l.716-2.222a.656.656 0 00-.251-.741 13.123 13.123 0 00-1.828-1.047.655.655 0 00-.768.151L17.725 17.6c-.376-.123-.76-.226-1.15-.307l-.494-2.287a.657.657 0 00-.588-.516 13.346 13.346 0 00-2.111 0 .656.656 0 00-.59.516l-.493 2.287c-.39.08-.775.183-1.15.307l-1.568-1.73a.656.656 0 00-.769-.152c-.665.316-1.28.668-1.828 1.047a.656.656 0 00-.25.74l.715 2.223c-.298.266-.58.55-.846.847l-2.223-.716a.655.655 0 00-.74.252 13.124 13.124 0 00-1.048 1.827.656.656 0 00.152.769l1.731 1.568c-.123.376-.226.76-.307 1.15l-2.287.494a.657.657 0 00-.516.589c-.028.35-.052.7-.052 1.055 0 .357.024.707.052 1.056zm1.274-1.52l2.232-.483a.656.656 0 00.51-.536 9.149 9.149 0 01.471-1.766.656.656 0 00-.173-.719l-1.686-1.528c.147-.281.3-.55.46-.806l2.163.697a.66.66 0 00.71-.209c.386-.474.823-.91 1.297-1.298.209-.17.292-.452.209-.71l-.697-2.162c.255-.16.524-.313.806-.46l1.528 1.687c.182.2.468.269.72.173a9.102 9.102 0 011.765-.472.657.657 0 00.536-.509l.482-2.233a8.66 8.66 0 01.93 0l.483 2.233c.057.264.27.466.536.51a9.149 9.149 0 011.766.471c.25.096.537.028.719-.173l1.528-1.686c.281.147.55.3.806.46l-.697 2.162a.657.657 0 00.209.71c.474.387.91.824 1.298 1.298.171.21.453.293.71.209l2.162-.697c.16.255.313.524.46.805l-1.687 1.528a.656.656 0 00-.173.72c.215.565.373 1.159.472 1.765a.656.656 0 00.509.536l2.233.482a8.33 8.33 0 010 .931l-2.232.482a.656.656 0 00-.51.536 9.147 9.147 0 01-.471 1.766.655.655 0 00.173.719l1.686 1.528c-.147.281-.3.55-.46.806l-2.163-.697a.653.653 0 00-.71.209 9.25 9.25 0 01-1.297 1.298c-.209.17-.291.452-.209.709l.697 2.163c-.255.16-.524.313-.806.46l-1.527-1.688a.658.658 0 00-.72-.173 9.108 9.108 0 01-1.765.472.656.656 0 00-.536.51l-.482 2.232a8.761 8.761 0 01-.931 0l-.482-2.233a.656.656 0 00-.537-.509 9.152 9.152 0 01-1.766-.472.655.655 0 00-.718.173l-1.528 1.686c-.281-.147-.551-.3-.806-.459l.696-2.163a.657.657 0 00-.208-.71 9.228 9.228 0 01-1.298-1.297.655.655 0 00-.71-.21l-2.163.698c-.16-.255-.313-.524-.46-.807l1.688-1.528c.2-.18.269-.466.173-.719a9.105 9.105 0 01-.472-1.765.656.656 0 00-.51-.536l-2.233-.48a8.397 8.397 0 010-.931z" fill="url(#paint0_linear)"/><path d="M35.581 10.654a.656.656 0 00.455-.55c.04-.332.058-.632.058-.916a8.03 8.03 0 00-.057-.917.656.656 0 00-.455-.55l-1.82-.572a5.7 5.7 0 00-.181-.438l.882-1.69a.658.658 0 00-.067-.71 7.942 7.942 0 00-1.299-1.3.658.658 0 00-.71-.067l-1.692.882a5.958 5.958 0 00-.438-.18l-.572-1.82a.656.656 0 00-.55-.455 7.26 7.26 0 00-1.833 0 .656.656 0 00-.55.455l-.572 1.82a5.694 5.694 0 00-.439.18l-1.69-.881a.66.66 0 00-.71.067c-.48.38-.918.817-1.299 1.298a.656.656 0 00-.068.711l.882 1.69c-.066.143-.126.29-.18.438l-1.82.572a.656.656 0 00-.455.55 7.854 7.854 0 00-.057.917c0 .284.018.584.057.916.03.257.208.473.455.55l1.82.572c.054.149.114.295.18.438l-.882 1.69a.658.658 0 00.067.71c.38.481.817.918 1.3 1.3.202.16.48.186.71.067l1.69-.881c.143.065.29.126.438.18l.572 1.82a.656.656 0 00.55.455c.333.04.633.058.918.058.285 0 .584-.019.916-.058a.656.656 0 00.55-.454l.572-1.82a5.7 5.7 0 00.438-.181l1.69.882c.23.12.508.094.711-.067.48-.38.917-.817 1.299-1.299a.656.656 0 00.067-.71l-.882-1.69a5.4 5.4 0 00.181-.439l1.82-.573zm-2.533-.58a.658.658 0 00-.432.438 4.621 4.621 0 01-.35.849.655.655 0 00-.004.614l.833 1.596c-.156.173-.32.338-.492.492l-1.597-.832a.656.656 0 00-.614.004 4.617 4.617 0 01-.849.35.658.658 0 00-.438.432l-.54 1.722c-.24.014-.452.014-.692 0l-.54-1.722a.658.658 0 00-.439-.432 4.557 4.557 0 01-.848-.35.656.656 0 00-.615-.004l-1.596.832a6.701 6.701 0 01-.492-.492l.833-1.596a.657.657 0 00-.004-.614 4.624 4.624 0 01-.35-.85.658.658 0 00-.433-.437l-1.722-.54a5.252 5.252 0 010-.692L23.39 8.3a.658.658 0 00.432-.438c.09-.297.208-.583.35-.848a.656.656 0 00.005-.615l-.833-1.596c.155-.173.32-.338.492-.492l1.596.832c.192.1.423.099.614-.004.267-.143.553-.26.85-.35a.658.658 0 00.437-.432l.54-1.722c.24-.014.452-.014.693 0l.54 1.722a.66.66 0 00.438.432c.297.09.583.207.849.35a.656.656 0 00.614.004l1.596-.832a6.7 6.7 0 01.493.492L32.262 6.4c-.1.192-.1.423.004.614.143.267.261.553.35.85a.658.658 0 00.432.437l1.722.54a5.25 5.25 0 010 .692l-1.722.541z" fill="url(#paint1_linear)"/><path d="M40.203 22.945l-1.127-.4a5.335 5.335 0 00-.221-.536l.512-1.08a.653.653 0 00-.076-.685 6.55 6.55 0 00-1.128-1.129.657.657 0 00-.686-.076l-1.08.513a5.22 5.22 0 00-.536-.22l-.4-1.128a.658.658 0 00-.54-.432 6.049 6.049 0 00-1.593 0 .656.656 0 00-.54.432l-.4 1.127a5.325 5.325 0 00-.536.221l-1.08-.512a.657.657 0 00-.684.076c-.42.328-.8.707-1.129 1.128a.657.657 0 00-.076.686l.512 1.08a5.243 5.243 0 00-.22.535l-1.128.401a.658.658 0 00-.431.54c-.036.29-.053.551-.053.795s.017.504.052.796c.03.247.197.456.432.54l1.127.4c.065.183.138.362.221.536l-.512 1.08a.653.653 0 00.076.685c.328.42.707.8 1.128 1.129a.658.658 0 00.686.076l1.08-.513c.173.083.352.157.536.22l.4 1.128a.658.658 0 00.54.432c.292.037.552.054.796.054s.504-.017.796-.053a.655.655 0 00.54-.432l.4-1.127a5.3 5.3 0 00.536-.221l1.08.512a.65.65 0 00.685-.076 6.58 6.58 0 001.128-1.128.657.657 0 00.077-.686l-.513-1.08a5.23 5.23 0 00.22-.535l1.128-.401a.658.658 0 00.432-.54c.036-.292.053-.552.053-.796s-.017-.504-.052-.796a.656.656 0 00-.432-.54zm-.835 1.576l-1.04.37a.656.656 0 00-.413.442 3.909 3.909 0 01-.364.884.658.658 0 00-.021.605l.47.992a5.25 5.25 0 01-.341.342l-.993-.47a.658.658 0 00-.604.02 3.912 3.912 0 01-.884.365.658.658 0 00-.443.413l-.37 1.04c-.159.008-.32.008-.479 0l-.37-1.04a.657.657 0 00-.442-.413 3.909 3.909 0 01-.884-.364.661.661 0 00-.605-.022l-.993.471a5.25 5.25 0 01-.341-.341l.47-.993a.656.656 0 00-.021-.605 3.907 3.907 0 01-.364-.883.659.659 0 00-.413-.444l-1.04-.37a3.586 3.586 0 01-.001-.478l1.04-.37a.654.654 0 00.412-.443 3.93 3.93 0 01.365-.884.658.658 0 00.021-.605l-.47-.993a5.25 5.25 0 01.341-.342l.993.472a.654.654 0 00.604-.022c.276-.156.573-.278.884-.364a.658.658 0 00.443-.413l.37-1.04c.159-.009.32-.009.479 0l.37 1.04a.656.656 0 00.442.413c.312.086.61.208.884.364a.654.654 0 00.605.022l.993-.472c.119.11.233.224.341.342l-.47.993a.656.656 0 00.021.605c.156.275.278.573.364.883a.659.659 0 00.413.444l1.04.37a3.617 3.617 0 01.001.479z" fill="url(#paint2_linear)"/><path d="M14.438 34.781c3.98 0 7.218-3.238 7.218-7.218s-3.238-7.22-7.218-7.22-7.22 3.24-7.22 7.22c0 3.98 3.24 7.218 7.22 7.218zm0-13.125a5.914 5.914 0 015.906 5.907 5.914 5.914 0 01-5.907 5.906 5.914 5.914 0 01-5.906-5.907 5.914 5.914 0 015.906-5.906z" fill="url(#paint3_linear)"/><path d="M1.327 16.642l1.008.84a15.718 15.718 0 0112.103-5.67c.334 0 .667.02 1 .04l-.808.809.928.928 1.969-1.969a.655.655 0 000-.928l-1.97-1.968-.927.927.892.892a17.074 17.074 0 00-1.084-.043 17.028 17.028 0 00-13.11 6.142z" fill="url(#paint4_linear)"/><path d="M28.219 5.906a3.285 3.285 0 00-3.282 3.282 3.285 3.285 0 003.282 3.28 3.285 3.285 0 003.281-3.28 3.285 3.285 0 00-3.281-3.282zm0 5.25a1.971 1.971 0 01-1.969-1.969 1.97 1.97 0 011.969-1.968 1.97 1.97 0 011.968 1.968 1.971 1.971 0 01-1.968 1.97z" fill="url(#paint5_linear)"/><path d="M34.125 21.656a2.628 2.628 0 00-2.625 2.625 2.628 2.628 0 002.625 2.625 2.628 2.628 0 002.625-2.625 2.628 2.628 0 00-2.625-2.625zm0 3.938a1.314 1.314 0 01-1.313-1.313 1.314 1.314 0 012.625 0c0 .724-.588 1.313-1.312 1.313z" fill="url(#paint6_linear)"/><path d="M40.16 3.294l-3.282-.656a.655.655 0 00-.773.515l-.656 3.28 1.287.259.354-1.767a9.847 9.847 0 01.972 4.263c0 2.262-.747 4.39-2.16 6.152l1.025.82a11.17 11.17 0 001.295-11.916l1.68.337.257-1.287z" fill="url(#paint7_linear)"/><defs><linearGradient id="paint0_linear" x1="8.422" y1="15.541" x2="27.202" y2="19.861" gradientUnits="userSpaceOnUse"><stop stop-color="#FFAA32"/><stop offset="1" stop-color="#FF7A00"/></linearGradient><linearGradient id="paint1_linear" x1="24.609" y1="1.969" x2="35.878" y2="4.56" gradientUnits="userSpaceOnUse"><stop stop-color="#FFAA32"/><stop offset="1" stop-color="#FF7A00"/></linearGradient><linearGradient id="paint2_linear" x1="31.117" y1="18.266" x2="40.507" y2="20.425" gradientUnits="userSpaceOnUse"><stop stop-color="#FFAA32"/><stop offset="1" stop-color="#FF7A00"/></linearGradient><linearGradient id="paint3_linear" x1="11.129" y1="20.945" x2="21.458" y2="23.32" gradientUnits="userSpaceOnUse"><stop stop-color="#FFAA32"/><stop offset="1" stop-color="#FF7A00"/></linearGradient><linearGradient id="paint4_linear" x1="5.767" y1="9.088" x2="16.185" y2="13.572" gradientUnits="userSpaceOnUse"><stop stop-color="#FFAA32"/><stop offset="1" stop-color="#FF7A00"/></linearGradient><linearGradient id="paint5_linear" x1="26.715" y1="6.18" x2="31.41" y2="7.259" gradientUnits="userSpaceOnUse"><stop stop-color="#FFAA32"/><stop offset="1" stop-color="#FF7A00"/></linearGradient><linearGradient id="paint6_linear" x1="32.922" y1="21.875" x2="36.678" y2="22.739" gradientUnits="userSpaceOnUse"><stop stop-color="#FFAA32"/><stop offset="1" stop-color="#FF7A00"/></linearGradient><linearGradient id="paint7_linear" x1="36.725" y1="3.189" x2="40.25" y2="3.471" gradientUnits="userSpaceOnUse"><stop stop-color="#FFAA32"/><stop offset="1" stop-color="#FF7A00"/></linearGradient></defs></svg>