<svg width="109" height="30" fill="none" xmlns="http://www.w3.org/2000/svg"><rect width="109" height="30" rx="3" fill="url(#paint0_linear)"/><g clip-path="url(#clip0)"><path d="M56.12 14.68c-.64 0-1.12.16-1.6.48v4.96h1.12c1.6 0 1.76-.8 1.76-1.76v-2.4c.16-.8-.16-1.28-1.28-1.28zm-10.4-.32c-1.12 0-1.28.64-1.28 1.28v.48H47v-.48c0-.64-.32-1.28-1.28-1.28zm-20.48 5.12c0 .64.32.96.96.96.64 0 1.12-.16 1.6-.48v-1.12h-1.6c-.64 0-.96.16-.96.64zm41.12-4.8c-1.12 0-1.44.64-1.44 1.28v2.72c0 .8.32 1.28 1.44 1.28 1.12 0 1.44-.64 1.44-1.28v-2.72c.16-.8-.32-1.28-1.44-1.28zm-46.56 8h-3.2v-7.84H15v-2.72h1.6v-1.6c0-2.24.96-3.52 3.52-3.52h2.24v2.72h-1.44c-.96-.16-1.12.32-1.12.96v1.28h2.4l-.16 2.88H19.8v7.84zm11.2 0h-2.72l-.16-.8c-1.28.8-2.4.8-3.04.8-2.08 0-3.04-1.28-3.04-3.04 0-2.08 1.28-2.88 3.36-2.88h2.24v-.64c0-.96 0-1.28-1.76-1.28h-2.72l.32-2.72h3.04c3.52 0 4.48 1.12 4.48 4.16v6.4zM40.12 15c-1.6-.32-2.24-.32-3.04-.32-1.44 0-1.92.32-1.92 1.6v2.4c0 1.28.48 1.6 1.92 1.6.8 0 1.28 0 3.04-.32v2.56c-1.44.32-2.4.48-3.2.48-3.52 0-4.8-1.76-4.8-4.48v-2.08c0-2.72 1.44-4.48 4.8-4.48.8 0 1.76.16 3.2.48V15zm10.08 3.2h-5.92v.16c0 1.28.48 1.6 1.92 1.6 1.28 0 2.08 0 3.84-.32v2.56c-1.6.32-2.4.48-4 .48-3.52 0-4.8-1.76-4.8-4.48v-2.08c0-2.24.96-4.16 4.64-4.16 3.68 0 4.32 1.76 4.32 4.16v2.08zm10.56.16c0 2.56-.8 4.48-5.12 4.48-1.6 0-2.56-.16-4.32-.48V7.8l3.2-.48v5.12c.64-.32 1.6-.32 2.4-.32 3.2 0 3.84 1.44 3.84 3.84v2.4zm10.4 0c0 2.24-.96 4.32-4.64 4.32-3.84 0-4.8-2.08-4.8-4.32v-2.08c0-2.24.96-4.32 4.8-4.32s4.64 2.08 4.64 4.32v2.08zm10.4 0c0 2.24-.96 4.32-4.64 4.32-3.84 0-4.8-2.08-4.8-4.32v-2.08c0-2.24.96-4.32 4.8-4.32s4.64 2.08 4.64 4.32v2.08zm10.56 4.32H88.6l-3.04-4.96v4.96h-3.2V7.8l3.2-.48v9.6l3.04-4.8h3.52l-3.2 5.12 3.2 5.44zm-15.36-8c-1.12 0-1.44.64-1.44 1.28v2.72c0 .8.32 1.28 1.44 1.28 1.12 0 1.44-.64 1.44-1.28v-2.72c.16-.8-.32-1.28-1.44-1.28zm17.28 6.08c.48 0 .96.48.96.96 0 .64-.48.96-.96.96s-.96-.48-.96-.96.32-.96.96-.96zm0 .16c-.48 0-.8.32-.8.8 0 .48.32.8.8.8.48 0 .8-.32.8-.8 0-.48-.32-.8-.8-.8zm-.16 1.44h-.16v-1.12h.32c.16 0 .32 0 .32.16l.16.16c0 .16-.16.16-.16.32.16 0 .16.16.16.32v.32h-.16v-.32c0-.16-.16-.16-.16-.16h-.16l-.16.32zm0-.64c.32 0 .32 0 .32-.16s0-.16-.32-.16h-.16v.32h.16z" fill="#fff"/></g><defs><linearGradient id="paint0_linear" x1="29.521" y1="1.25" x2="77.878" y2="41.649" gradientUnits="userSpaceOnUse"><stop stop-color="#2D4251"/><stop offset="1" stop-color="#4E718A"/></linearGradient><clipPath id="clip0"><path fill="#fff" transform="translate(15 7)" d="M0 0h80v16H0z"/></clipPath></defs></svg>