<svg width="109" height="30" fill="none" xmlns="http://www.w3.org/2000/svg"><rect width="109" height="30" rx="3" fill="url(#paint0_linear)"/><path d="M35.493 13.46v1.64h4.132c-.127.92-.45 1.593-.942 2.067-.604.573-1.546 1.2-3.19 1.2-2.544 0-4.533-1.947-4.533-4.36 0-2.414 1.989-4.36 4.533-4.36 1.37 0 2.375.513 3.113 1.173l1.215-1.153C38.795 8.72 37.419 8 35.493 8c-3.486 0-6.416 2.693-6.416 6s2.93 6 6.416 6c1.883 0 3.302-.587 4.413-1.68 1.138-1.08 1.497-2.607 1.497-3.833 0-.38-.029-.734-.092-1.027h-5.818zm11.075-1.333c-2.256 0-4.097 1.626-4.097 3.873 0 2.227 1.84 3.873 4.097 3.873 2.255 0 4.096-1.64 4.096-3.873 0-2.247-1.84-3.873-4.096-3.873zm0 6.22c-1.237 0-2.305-.967-2.305-2.347 0-1.393 1.068-2.347 2.305-2.347 1.236 0 2.304.954 2.304 2.347 0 1.38-1.068 2.347-2.304 2.347zm20.082-5.354h-.063c-.4-.453-1.173-.866-2.15-.866-2.038 0-3.815 1.686-3.815 3.873 0 2.173 1.777 3.873 3.815 3.873.977 0 1.75-.413 2.15-.88h.064v.54c0 1.48-.836 2.274-2.179 2.274-1.096 0-1.777-.747-2.058-1.38l-1.56.613c.45 1.027 1.637 2.287 3.618 2.287 2.102 0 3.88-1.174 3.88-4.034v-6.966H66.65v.666zm-2.058 5.354c-1.237 0-2.178-1-2.178-2.347 0-1.367.941-2.347 2.178-2.347 1.223 0 2.178 1 2.178 2.36.007 1.354-.955 2.334-2.178 2.334zm-8.889-6.22c-2.256 0-4.097 1.626-4.097 3.873 0 2.227 1.841 3.873 4.097 3.873 2.255 0 4.096-1.64 4.096-3.873 0-2.247-1.84-3.873-4.096-3.873zm0 6.22c-1.237 0-2.305-.967-2.305-2.347 0-1.393 1.068-2.347 2.305-2.347 1.236 0 2.305.954 2.305 2.347 0 1.38-1.069 2.347-2.305 2.347zM69.757 8.16h1.764v11.713h-1.764V8.16zm7.209 10.187c-.913 0-1.56-.394-1.981-1.174l5.46-2.14-.183-.44c-.337-.866-1.377-2.466-3.492-2.466-2.101 0-3.851 1.566-3.851 3.873 0 2.173 1.729 3.873 4.047 3.873a4.124 4.124 0 003.402-1.713l-1.392-.88c-.463.64-1.096 1.067-2.01 1.067zm-.126-4.767c.724 0 1.342.353 1.546.853l-3.69 1.447c0-1.627 1.216-2.3 2.144-2.3z" fill="#fff"/><defs><linearGradient id="paint0_linear" x1="29.521" y1="1.25" x2="77.878" y2="41.649" gradientUnits="userSpaceOnUse"><stop stop-color="#2D4251"/><stop offset="1" stop-color="#4E718A"/></linearGradient></defs></svg>