<svg width="109" height="30" fill="none" xmlns="http://www.w3.org/2000/svg"><rect width="109" height="30" rx="3" fill="url(#paint0_linear)"/><g clip-path="url(#clip0)" fill="#fff"><path d="M20.4 18.68l.96-6.24h-1.12c-.48 0-1.12-.32-1.28-.8 0-.16-.16-.8.64-1.28.32-.16.48-.48.48-.64 0-.16 0-.32-.16-.48 0-.16-.32-.32-.8-.32-.8 0-1.28.48-1.28.8-.16.32.16.48.16.48.48.32.64.8.32 1.28s-.96.8-1.6.8H15.6c0 .8-1.44 9.92-1.6 10.72h5.76c.16-.32.32-2.08.64-4.32zM28.24 7h-5.92l-.8 4.96h.96c.64 0 1.12-.16 1.44-.64 0-.16.16-.16.16-.32s-.16-.32-.32-.48c-.48-.16-.48-.48-.48-.8v-.16c0-.48.8-.96 1.6-.96.64 0 .96.16 1.28.32.16.16.32.48.32.8-.16.48-.48.8-.64.96-.64.32-.48.64-.48.8 0 .32.48.48.96.48h1.6c2.08 0 3.2.96 2.88 3.2-.48 2.08-2.08 3.04-4 3.04L26 23h1.12c4.64 0 8.48-3.04 9.28-7.68C37.36 9.4 33.68 7 28.24 7zm14.08 3.2h5.44c2.4 0 2.88 1.12 2.72 2.24-.16.8-.64 1.44-1.76 1.92 1.28.48 1.76 1.28 1.6 2.4-.32 1.44-1.6 2.56-3.36 2.56h-6.24l1.6-9.12zm3.68 4c1.12 0 1.6-.48 1.6-1.28.16-.64-.16-1.12-1.28-1.12h-.96l-.48 2.4H46zm-.64 4c1.12 0 1.76-.48 1.92-1.44.16-.8-.32-1.28-1.44-1.28h-1.12l-.32 2.72h.96zM58 19.64c-1.44.16-2.08 0-2.4-.64-.8.48-1.6.8-2.56.8-1.6 0-2.24-.8-2.08-1.76 0-.48.32-.8.8-1.28.8-.8 3.04-.8 4-1.44 0-.64-.16-.96-.96-.96-.96 0-1.76.32-3.04 1.28l.16-2.24c1.12-.8 2.24-1.28 3.52-1.28 1.6 0 3.2.64 2.88 2.4L58 16.6c-.16.64-.16.96.64.96L58 19.64zm-2.4-3.2c-.8.48-2.24.48-2.4 1.44 0 .48.16.8.64.8s.96-.16 1.44-.48v-.64l.32-1.12zm5.12-4h2.88l-.32.96c.96-.8 1.6-1.12 2.4-1.12 1.6 0 2.4.96 2.08 2.56l-.8 4.8h-2.88l.64-4c.16-.64-.16-1.12-.64-1.12s-.8.32-1.28.8l-.64 4.16h-2.88l1.44-7.04zm9.44-2.24h2.88l-.64 4.64 2.72-2.4h3.52l-3.52 3.04 2.72 4.16h-3.52l-2.24-3.36-.48 3.36h-2.88l1.44-9.44z"/><path d="M42.32 10.2h5.44c2.4 0 2.88 1.12 2.72 2.24-.16.8-.64 1.44-1.76 1.92 1.28.48 1.76 1.28 1.6 2.4-.32 1.44-1.6 2.56-3.36 2.56h-6.24l1.6-9.12zm3.68 4c1.12 0 1.6-.48 1.6-1.28.16-.64-.16-1.12-1.28-1.12h-.96l-.48 2.4H46zm-.64 4c1.12 0 1.76-.48 1.92-1.44.16-.8-.32-1.28-1.44-1.28h-1.12l-.32 2.72h.96zM58 19.64c-1.44.16-2.08 0-2.4-.64-.8.48-1.6.8-2.56.8-1.6 0-2.24-.8-2.08-1.76 0-.48.32-.8.8-1.28.8-.8 3.04-.8 4-1.44 0-.64-.16-.96-.96-.96-.96 0-1.76.32-3.04 1.28l.16-2.24c1.12-.8 2.24-1.28 3.52-1.28 1.6 0 3.2.64 2.88 2.4L58 16.6c-.16.64-.16.96.64.96L58 19.64zm-2.4-3.2c-.8.48-2.24.48-2.4 1.44 0 .48.16.8.64.8s.96-.16 1.44-.48v-.64l.32-1.12zm5.12-4h2.88l-.32.96c.96-.8 1.6-1.12 2.4-1.12 1.6 0 2.4.96 2.08 2.56l-.8 4.8h-2.88l.64-4c.16-.64-.16-1.12-.64-1.12s-.8.32-1.28.8l-.64 4.16h-2.88l1.44-7.04zm9.44-2.24h2.88l-.64 4.64 2.72-2.4h3.52l-3.52 3.04 2.72 4.16h-3.52l-2.24-3.36-.48 3.36h-2.88l1.44-9.44zm9.92 0h3.36L82 19.48h-3.36l1.44-9.28zm4.96 0h4.64c3.52 0 4.64 2.56 4.32 4.8-.32 2.08-2.08 4.48-5.12 4.48H83.6l1.44-9.28zm3.04 7.2c1.6 0 2.4-.8 2.72-2.4.16-1.28-.16-2.4-1.92-2.4h-.96l-.8 4.96.96-.16z"/></g><defs><linearGradient id="paint0_linear" x1="29.521" y1="1.25" x2="77.878" y2="41.649" gradientUnits="userSpaceOnUse"><stop stop-color="#2D4251"/><stop offset="1" stop-color="#4E718A"/></linearGradient><clipPath id="clip0"><path fill="#fff" transform="translate(14 7)" d="M0 0h80v16H0z"/></clipPath></defs></svg>