<svg width="199" height="32" fill="none" xmlns="http://www.w3.org/2000/svg"><path d="M0 22.449c1.461.602 3.908 1.11 5.465 1.11 3.558 0 7.403-2.22 7.403-6.151 0-6.055-9.087-5.453-9.087-10.335 0-2.378 1.652-3.488 3.876-3.488 2.129 0 2.987.38 4.416 1.871V2.508c-1.62 0-3.24-.19-4.892-.19-3.368 0-6.387 1.806-6.387 5.484 0 5.865 9.087 5.2 9.087 10.525 0 2.536-1.81 3.963-4.226 3.963C2.32 22.29.954 20.42 0 19.088v3.36zm17.157-3.551c0 1.427 0 3.075-.699 4.153h4.258c-.7-1.078-.7-2.726-.7-4.153V6.978c0-1.427 0-3.075.7-4.153h-4.258c.699 1.078.699 2.726.699 4.153v11.92zm24.91-16.073c-.795 0-1.017.665-1.303 1.331l-5.497 13.22c-.19.444-.286.761-.572.761-.254 0-.35-.539-.508-1.014L29.485 3.3c-.127-.412-.604-.475-.985-.475h-3.94c.763.475.794.919.794 1.775v7.926c0 3.424-.127 8.433-1.302 10.113l-.286.412h3.78c-.698-1.046-.698-3.107-.698-5.58l.031-10.303c0-.476 0-1.046.286-1.046s.509.76.858 1.68l6.037 15.566 7.117-16.77c.095-.254.19-.476.413-.476.222 0 .222.38.222.697v10.525c0 1.776 0 4.122-.572 5.707h4.671c-.699-1.268-.826-2.726-.985-4.153-.413-3.804-.254-7.767-.254-11.572 0-1.585-.095-3.297.635-4.501h-3.24zm7.053 16.073c0 1.268.032 3.043-.7 4.153h4.386c-.731-1.11-.826-2.885-.826-4.153V3.776h2.541c3.241 0 3.972 1.902 3.972 4.375 0 4.597-3.05 5.009-5.497 5.326.604.38 1.08.697 2.764.697 3.781 0 6.037-2.694 6.037-6.34 0-3.107-1.874-5.326-5.91-5.326-2.478 0-4.924.317-7.466.317.699 1.078.699 2.726.699 4.153v11.92zm16.395-3.044c0 1.49-.128 5.96-1.08 7.197h8.8c.636 0 1.303-.032 1.938-.095l.604-2.98c-1.589 1.553-3.21 1.807-4.988 1.807h-2.415V6.978c0-1.427 0-3.075.699-4.153h-4.257c.698 1.078.698 2.726.698 4.153v8.876zm16.013-2.6h.794c1.97 0 5.56 0 6.672-1.806-2.446.222-5.02.222-7.466.222V4.093h2.955c1.874 0 3.59.222 4.702 1.173l-.127-2.441H77.969c.7 1.078.7 2.726.7 4.153v11.92c0 1.427-.096 3.075-.795 4.153h9.182c1.144 0 2.192-.095 3.05-.159l.572-2.916c-1.493 1.331-3.526 1.807-5.496 1.807h-3.654v-8.528z" fill="#fff"/><path d="M67.004 26.27h3.023v4.19h-.807v-3.443h-1.403v3.443h-.813v-4.19zm3.978 0h.849c.459 0 .79.042.992.127.203.084.363.222.48.41.118.189.176.415.176.68 0 .293-.077.536-.231.73a1.194 1.194 0 01-.626.404c-.155.044-.437.065-.845.065v1.774h-.795v-4.19zm.795 1.64h.256c.202 0 .342-.015.42-.043a.377.377 0 00.254-.382c0-.162-.063-.281-.19-.355-.092-.055-.263-.084-.513-.084h-.227v.864zm4.465-1.745c.594 0 1.104.215 1.531.644.428.43.642.952.642 1.569a2.11 2.11 0 01-.633 1.552 2.084 2.084 0 01-1.534.635c-.63 0-1.154-.218-1.57-.652a2.161 2.161 0 01-.626-1.55 2.176 2.176 0 011.092-1.903c.34-.196.706-.295 1.098-.295zm-.012.782a1.31 1.31 0 00-.975.405c-.264.27-.396.612-.396 1.028 0 .463.166.83.498 1.099.258.21.554.316.888.316.377 0 .699-.137.964-.41.266-.274.399-.61.399-1.011a1.4 1.4 0 00-.402-1.013 1.307 1.307 0 00-.976-.414zm6.804.059l-.56.53c-.382-.4-.81-.6-1.286-.6-.402 0-.741.137-1.016.41-.276.273-.413.61-.413 1.01 0 .28.061.528.183.743.122.217.294.387.517.511a1.5 1.5 0 00.743.185c.232 0 .445-.043.637-.13.193-.086.404-.244.634-.471l.543.566c-.31.302-.603.512-.879.629a2.39 2.39 0 01-.945.176c-.653 0-1.188-.206-1.605-.62-.416-.412-.624-.942-.624-1.587 0-.418.095-.788.285-1.113.19-.325.46-.586.814-.783a2.3 2.3 0 011.141-.297c.346 0 .68.073 1.001.22.321.145.598.352.83.62zm.291-.736h2.322v.788h-.766v3.402h-.813v-3.402h-.743v-.788zm4.845-.105c.594 0 1.105.215 1.532.644.428.43.641.952.641 1.569a2.11 2.11 0 01-.633 1.552 2.084 2.084 0 01-1.534.635c-.63 0-1.154-.218-1.57-.652a2.161 2.161 0 01-.626-1.55 2.176 2.176 0 011.092-1.903c.34-.196.707-.295 1.098-.295zm-.011.782c-.387 0-.713.136-.976.405-.264.27-.396.612-.396 1.028 0 .463.166.83.498 1.099.259.21.554.316.888.316.377 0 .7-.137.964-.41.266-.274.399-.61.399-1.011a1.4 1.4 0 00-.401-1.013 1.307 1.307 0 00-.976-.414zm13.678-.703h.808l1.357 3.443h.466v1.371h-.772v-.624h-2.901v.624h-.772v-1.371h.467l1.347-3.443zm.411 1.102l-.922 2.34h1.844l-.922-2.34zm2.74-1.102h2.293v.782h-1.497v.753h1.497v.77h-1.497v1.103h1.497v.782h-2.293v-4.19zm3.03 0h.813v1.582h1.403v-1.582h.807v4.19h-.807v-1.838h-1.403v1.838h-.813v-4.19zm3.977 4.19v-4.19h.796v1.582h.174c.335 0 .613.038.836.115.222.077.415.223.577.438.162.216.243.476.243.779a1.243 1.243 0 01-.693 1.152c-.183.083-.436.124-.755.124h-1.178zm.796-1.896v1.137h.202c.333 0 .556-.04.669-.122.113-.082.17-.222.17-.42 0-.397-.292-.595-.875-.595h-.166zm2.525-2.294h2.088v.782h-1.292v3.408h-.796v-4.19zm5.771 0v4.19h-.795v-2.623l-1.582 2.623h-.687v-4.19h.795v2.709l1.607-2.709h.662zM95.987 0v31.376h-1.294V0h1.294z" fill="#F9B416"/><path d="M119.856 2.707c-.795 0-1.017.666-1.303 1.331l-5.497 13.22c-.19.444-.286.761-.572.761-.254 0-.349-.539-.508-1.014l-4.702-13.823c-.127-.412-.604-.475-.985-.475h-3.94c.762.475.794.92.794 1.775v7.926c0 3.424-.127 8.433-1.302 10.113l-.286.412h3.781c-.699-1.046-.699-3.107-.699-5.58l.031-10.303c0-.475 0-1.046.286-1.046s.509.76.858 1.68l6.037 15.566 7.117-16.77c.095-.254.191-.476.413-.476.222 0 .222.38.222.697v10.526c0 1.775 0 4.121-.571 5.706h4.67c-.699-1.268-.826-2.726-.985-4.153-.413-3.804-.254-7.767-.254-11.571 0-1.586-.095-3.297.635-4.502h-3.24zm31.454 20.226c-1.016-2.378-.953-5.58-.953-8.116V6.67c0-.286.064-.476.191-.476s.222.159.349.349l11.629 16.517h2.256c-.032-.951-.064-1.902-.064-2.948V7.43c0-1.617.191-3.266.954-4.724h-3.305c.445.824.763 1.902.763 4.058v11.19c0 .286 0 .603-.223.603-.19 0-.445-.444-.667-.76l-6.323-8.91c-.985-1.394-3.018-4.786-3.685-5.674-.381-.507-.668-.507-1.271-.507h-3.209c.953.95 1.017 2.663 1.017 4.216v6.753c0 2.79 0 6.658-1.113 9.257h3.654zm20.938-9.796h.795c1.97 0 5.56 0 6.672-1.807-2.447.222-5.02.222-7.467.222V3.975h2.955c1.875 0 3.591.222 4.703 1.173l-.128-2.441H168.69c.699 1.078.699 2.726.699 4.153v11.92c0 1.427-.095 3.075-.794 4.153h9.182c1.144 0 2.192-.095 3.05-.158l.572-2.917c-1.493 1.331-3.527 1.807-5.497 1.807h-3.654v-8.528zm19.477 9.796c-.699-1.078-.699-2.726-.699-4.153v-1.33c0-4.185 1.207-5.739 3.431-9.13l3.622-5.612h-4.003c.35.38.477.792.477 1.268 0 .951-.699 2.504-1.43 3.773l-2.161 3.836c-.317.57-.54 1.11-.73 1.11-.255 0-.382-.476-.509-.952-.603-2.25-2.065-5.865-3.304-7.83-.572-.92-.794-1.205-1.938-1.205h-2.733c1.303 1.173 2.923 3.646 4.194 6.245 1.271 2.6 2.224 4.724 2.224 6.943v2.885c0 1.427 0 3.075-.699 4.153h4.258z" fill="#fff"/><path d="M147.521 12.22v1.412c-.142.008-.268.022-.393.022-.794.002-1.589.01-2.383-.004-.237-.004-.376.07-.492.28-.411.738-.841 1.465-1.266 2.196-.038.065-.086.124-.152.219l-1.233-.712 1.555-2.696-1.555-2.695c.411-.239.81-.469 1.234-.714.073.11.14.202.197.3.412.708.828 1.414 1.226 2.128.11.196.234.273.461.269.781-.014 1.562-.006 2.343-.006h.458zm-23.772 0h1.049c.573 0 1.146-.01 1.719.005.237.006.376-.07.492-.281.385-.693.789-1.375 1.187-2.061.064-.11.136-.216.224-.357l1.241.715-1.556 2.696 1.556 2.697-1.228.708c-.07-.098-.134-.176-.185-.262-.418-.72-.841-1.436-1.246-2.162-.109-.195-.231-.273-.459-.268-.794.014-1.589.005-2.383.005h-.411V12.22zm5.306-9.181l1.247-.722 1.57 2.694h3.088v1.424h-.446c-.782 0-1.564.008-2.345-.004-.224-.004-.352.072-.462.268-.386.692-.79 1.374-1.188 2.06-.064.111-.134.22-.22.36l-1.245-.713 1.548-2.684-1.547-2.683zm11.904 6.088l-.901-1.55c-.17-.292-.35-.578-.504-.88-.102-.2-.235-.27-.46-.267-.782.013-1.563.005-2.345.005h-.446V5.024c.151-.007.278-.018.405-.018.782-.002 1.563-.01 2.345.005.254.005.399-.07.523-.297.375-.684.775-1.354 1.166-2.029.065-.11.134-.22.222-.363l1.244.715-1.547 2.684 1.547 2.684-1.249.722zm-4.665 11.727v-1.4c.141-.006.267-.016.392-.016.781-.002 1.563-.011 2.345.005.266.005.422-.072.553-.312.373-.685.775-1.354 1.166-2.029.064-.11.135-.216.217-.347l1.241.715-1.547 2.683 1.547 2.683-1.249.722-1.574-2.704h-3.091zm-5.996 2.698l-1.244-.714 1.548-2.684-1.547-2.683 1.247-.722 1.571 2.695h3.088v1.397c-.139.009-.275.025-.411.025-.781.003-1.563.012-2.344-.005-.259-.006-.399.083-.521.305-.377.682-.776 1.353-1.167 2.028-.065.11-.135.22-.22.358z" fill="#F9B416"/></svg>