<svg width="40" height="40" fill="none" xmlns="http://www.w3.org/2000/svg"><g clip-path="url(#clip0)" fill="#FFAA32"><path d="M39.563 32.305l-8.227-8.227a1.479 1.479 0 00-1.813-.226l-4.625-4.625a.613.613 0 00-.859 0 .613.613 0 000 .859l4.586 4.586-1.688 1.688-8.406-8.399 1.688-1.688 1.125 1.125a.613.613 0 00.86 0 .613.613 0 000-.859l-1.126-1.125 2.93-2.93.234.235c.29.289.672.445 1.078.445.407 0 .79-.156 1.078-.445l1.079-1.078c.289-.29.445-.672.445-1.078 0-.407-.156-.79-.445-1.079l-8.29-8.304A1.513 1.513 0 0018.11.734c-.406 0-.789.157-1.078.446l-1.078 1.086c-.289.289-.445.672-.445 1.078s.156.789.445 1.078l.235.234-9.274 9.266-.234-.234a1.528 1.528 0 00-2.157 0l-1.078 1.078c-.289.289-.445.672-.445 1.078s.156.789.445 1.078l8.29 8.289c.288.29.671.445 1.078.445.406 0 .789-.156 1.078-.445l1.078-1.078a1.528 1.528 0 000-2.156l-.235-.235 2.93-2.93 8.453 8.454a1.45 1.45 0 00-.21.765c0 .399.155.766.437 1.047l8.226 8.227a1.48 1.48 0 001.047.437c.399 0 .766-.156 1.047-.437l2.898-2.899a1.479 1.479 0 000-2.101zM16.805 3.117L17.89 2.04a.309.309 0 01.218-.094.29.29 0 01.22.094l8.288 8.29c.063.062.094.14.094.218a.296.296 0 01-.094.219l-1.078 1.078a.326.326 0 01-.445 0l-8.29-8.281a.309.309 0 01-.093-.22.394.394 0 01.094-.226zm-2.696 20.164l-1.078 1.079a.326.326 0 01-.445 0l-8.29-8.29a.308.308 0 01-.093-.218c0-.079.031-.164.094-.22l1.078-1.077a.309.309 0 01.219-.094c.078 0 .156.031.218.094l8.29 8.289a.296.296 0 01.007.437zm3.133-5.75l-3.36 3.36-6.109-6.11 9.266-9.273 6.11 6.11-3.36 3.359-2.547 2.554zm21.469 16.016l-2.898 2.898a.26.26 0 01-.188.078.25.25 0 01-.188-.078l-8.242-8.226a.26.26 0 01-.078-.188.25.25 0 01.078-.187l.18-.18 2.727-2.726a.26.26 0 01.187-.078.25.25 0 01.188.078l8.226 8.226a.26.26 0 01.078.188.298.298 0 01-.07.195z"/><path d="M23.031 33.89h-.93v-3.195a1.29 1.29 0 00-1.288-1.289H10.358a.61.61 0 000 1.22h10.454c.046 0 .078.038.078.077v3.195H4.773v-3.195c0-.047.04-.078.079-.078h1.687a.61.61 0 000-1.219H4.86c-.71 0-1.289.579-1.289 1.29v3.195h-.937A2.634 2.634 0 000 36.524v1.726c0 .563.453 1.016 1.016 1.016h23.64c.563 0 1.016-.453 1.016-1.016v-1.727a2.64 2.64 0 00-2.64-2.632zm1.422 4.165H1.211v-1.532c0-.78.64-1.421 1.422-1.421H23.03c.782 0 1.422.64 1.422 1.422v1.53z"/></g><defs><clipPath id="clip0"><path fill="#fff" d="M0 0h40v40H0z"/></clipPath></defs></svg>