<svg width="40" height="40" fill="none" xmlns="http://www.w3.org/2000/svg"><path d="M39.797 12.867c0-.015-.008-.023-.008-.039a12.598 12.598 0 00-.945-2.945c-.016-.04-.032-.07-.047-.102a12.13 12.13 0 00-1.469-2.351.502.502 0 00-.078-.102c-.008-.008-.008-.008-.016-.008a12.41 12.41 0 00-1.898-1.89c-.008-.008-.008-.008-.008-.016a.502.502 0 00-.101-.078 11.978 11.978 0 00-2.36-1.453.242.242 0 00-.101-.047c-.93-.43-1.922-.75-2.961-.938-.016 0-.024-.007-.04-.007a12.654 12.654 0 00-2.187-.196c-.57 0-1.14.04-1.695.118h-.008c-5.25.718-9.46 4.726-10.492 9.874a12.354 12.354 0 00-3.836 1.454.508.508 0 00.515.875c.985-.579 2.047-1 3.157-1.258-.047.445-.078.898-.078 1.36 0 .741.062 1.476.195 2.187 0 .015.008.03.008.039.187 1.039.508 2.031.937 2.96.016.032.032.071.047.102.399.844.89 1.633 1.453 2.36.024.039.047.07.078.101.008.008.008.008.016.008a12.776 12.776 0 001.89 1.898c.008.008.008.008.008.016a.506.506 0 00.102.078c.727.57 1.516 1.07 2.352 1.469.03.023.07.039.101.047.922.43 1.914.758 2.945.945.016 0 .024.008.04.008.734.133 1.492.203 2.257.203.461 0 .914-.023 1.36-.078-1.18 5.047-5.711 8.812-11.11 8.812-6.297.016-11.414-5.101-11.414-11.398a11.32 11.32 0 013.578-8.297.514.514 0 00.024-.719.514.514 0 00-.719-.023 12.384 12.384 0 00-2.851 4.031 12.377 12.377 0 00-1.047 5.008c0 6.852 5.578 12.43 12.43 12.43 6.023 0 11.054-4.305 12.187-9.992a12.456 12.456 0 009.89-10.586v-.008a12.577 12.577 0 00-.102-3.852zm-2.969-4.406c.336.469.64.969.906 1.484l-9 9c-.28-.508-.593-1-.937-1.46l9.031-9.024zm-.633-.805l-9.03 9.032c-.376-.422-.774-.82-1.204-1.196l9.031-9.031c.43.367.836.766 1.203 1.195zm-2.008-1.828l-9.023 9.031a11.934 11.934 0 00-1.469-.93l9-9c.524.266 1.024.563 1.492.9zm-4.335-1.89c.64.132 1.257.312 1.851.546l-8.976 8.977c-.57-.25-1.172-.453-1.782-.61l8.907-8.914zm-3.688-.141a11.386 11.386 0 012.438-.04l-8.844 8.845a12.227 12.227 0 00-1.938-.149c-.101 0-.203 0-.312.008l8.656-8.664zm-1.812.375l-7.727 7.726a11.462 11.462 0 017.727-7.726zm-8.149 11.976a11.2 11.2 0 01-.047-1.03c0-.477.032-.946.086-1.407l.164-.164a11.406 11.406 0 012.438-.04l-2.64 2.641zm.188 1.258l3.71-3.71c.641.132 1.258.312 1.852.546l-5.015 5.016a10.73 10.73 0 01-.547-1.852zm1.89 4.336c-.336-.469-.64-.969-.898-1.492l5.57-5.57c.524.265 1.024.562 1.492.898l-6.164 6.164zm.633.805l6.328-6.328c.43.367.828.765 1.203 1.195l-6.343 6.336c-.422-.375-.82-.773-1.188-1.203zm1.992 1.836l6.172-6.172c.336.469.64.969.906 1.484l-5.593 5.594a11.964 11.964 0 01-1.485-.906zm4.313 1.906a11.37 11.37 0 01-1.844-.555l5.055-5.054c.234.593.422 1.203.554 1.843L25.22 26.29zm3.937-.102l-.273.274c-.43.047-.867.078-1.313.078-.375 0-.742-.016-1.101-.055l2.71-2.71c.032.359.055.734.055 1.101 0 .445-.03.883-.078 1.313zm.672-4.507a12.516 12.516 0 00-.617-1.774l8.977-8.976c.234.593.421 1.203.554 1.843l-8.914 8.907zm.844 4.43l7.883-7.883a11.467 11.467 0 01-7.883 7.882zm8.234-9.672l-8.664 8.664v-.227c0-.688-.055-1.352-.164-2.008l8.844-8.844c.031.36.055.735.055 1.102a9.35 9.35 0 01-.07 1.313z" fill="#FFAA32"/></svg>