<svg width="40" height="40" fill="none" xmlns="http://www.w3.org/2000/svg"><g clip-path="url(#clip0)"><path d="M20.519 34.4c-6.97-.176-11.066-2.912-11.11-2.912l-.173-.132-.088-.176c-.217-.53-.348-1.5-.348-2.735-.174-2.735.784-4.544 2.744-5.073 2.135-.53 3.921-1.588 4.575-2.03a.8.8 0 01.305-.088c.218 0 .392.088.479.265.13.176.13.353.13.53a.643.643 0 01-.26.396c-.741.441-2.658 1.588-4.923 2.162-1.612.441-1.83 2.294-1.7 3.75v.088c0 .617.044 1.544.131 1.985v.044h.044c1.655.926 5.184 2.47 10.237 2.603.349 0 .61.308.61.617-.043.397-.305.706-.653.706zm2.962-.353a.44.44 0 01-.436-.441v-7.543a.44.44 0 01.436-.441h1.568v-2.074c0-2.294 1.83-4.146 4.096-4.146h.26c2.136.132 3.835 2.029 3.835 4.278v1.986h1.524a.44.44 0 01.436.44v7.5a.44.44 0 01-.436.441H23.481zm.828-1.28h9.628v-5.822h-9.628v5.823zm2.091-7.146h5.62v-2.073c0-1.588-1.264-2.867-2.832-2.867-1.568 0-2.832 1.28-2.832 2.867v.088h.044v1.986zm-5.271-5.073c-1.787-.044-3.18-.661-4.226-1.808-2.396-2.735-1.917-7.411-1.917-7.588.261-4.676 3.398-6.352 6.012-6.352h.436c2.57 0 5.663 1.676 5.968 6.308.043.485.436 4.985-1.873 7.632-1.09 1.19-2.44 1.764-4.226 1.808h-.174zm-4.792-9.352c-.131.397-.349 4.5 1.524 6.662.784.926 1.874 1.411 3.268 1.411h.087c1.394 0 2.44-.441 3.267-1.411 1.83-2.074 1.612-5.867 1.568-6.617v-.045c-.174-4.852-3.877-5.117-4.617-5.117h-.393c-1.089 0-4.487.353-4.704 5.117z" fill="#FFAA32"/></g><defs><clipPath id="clip0"><path fill="#fff" transform="translate(8.8 4.8)" d="M0 0h26.4v29.6H0z"/></clipPath></defs></svg>