<svg width="245" height="253" fill="none" xmlns="http://www.w3.org/2000/svg"><g filter="url(#filter0_d)"><g opacity=".3"><path d="M68.032 45.584h-41.83L5.296 81.81l20.908 36.227h41.829l20.92-36.227-20.92-36.226z" fill="url(#paint0_linear)"/><path d="M67.439 46.626L87.753 81.81 67.44 116.995H26.81L6.495 81.81l20.314-35.184h40.63zm.593-1.042h-41.83L5.296 81.81l20.908 36.227h41.829L88.94 81.81 68.032 45.584z" fill="#fff"/></g><g opacity=".5"><path d="M143.352 4h-41.829L80.615 40.226l20.908 36.227h41.829l20.921-36.227L143.352 4z" fill="url(#paint1_linear)"/><path d="M142.759 5.041l20.315 35.185-20.315 35.185H102.13L81.815 40.226 102.13 5.041h40.629zM143.352 4h-41.829L80.615 40.226l20.908 36.227h41.829l20.908-36.227L143.352 4z" fill="#fff"/></g><path d="M218.673 45.584h-41.829L155.937 81.81l20.907 36.227h41.829l20.921-36.227-20.921-36.226z" fill="url(#paint2_linear)"/><path d="M218.08 46.626l20.315 35.184-20.315 35.185h-40.629L157.136 81.81l20.315-35.184h40.629zm.593-1.042h-41.829L155.937 81.81l20.907 36.227h41.829l20.921-36.227-20.921-36.226z" fill="#fff"/><path d="M68.032 133.056h-41.83L5.296 169.282l20.908 36.226h41.829l20.92-36.226-20.92-36.226z" fill="url(#paint3_linear)" fill-opacity=".4"/><path d="M67.439 134.097l20.314 35.185-20.314 35.185h-40.63L6.495 169.282l20.314-35.185h40.63zm.593-1.041h-41.83L5.296 169.282l20.908 36.226h41.829l20.908-36.226-20.908-36.226z" fill="#fff"/><path d="M143.352 173.693h-41.829l-20.908 36.226 20.908 36.213h41.829l20.921-36.213-20.921-36.226z" fill="url(#paint4_linear)"/><path d="M142.759 174.721l20.315 35.185-20.315 35.184H102.13l-20.315-35.184 20.315-35.185h40.629zm.593-1.028h-41.829l-20.908 36.226 20.908 36.226h41.829l20.908-36.226-20.908-36.226z" fill="#fff"/><path d="M218.673 133.056h-41.829l-20.907 36.226 20.907 36.226h41.829l20.921-36.226-20.921-36.226z" fill="url(#paint5_linear)"/><path d="M218.08 134.097l20.315 35.185-20.315 35.185h-40.629l-20.315-35.185 20.315-35.185h40.629zm.593-1.041h-41.829l-20.907 36.226 20.907 36.226h41.829l20.921-36.226-20.921-36.226z" fill="#fff"/></g><defs><linearGradient id="paint0_linear" x1="27.952" y1="48.603" x2="86.82" y2="64.232" gradientUnits="userSpaceOnUse"><stop stop-color="#2D4251"/><stop offset="1" stop-color="#4E718A"/></linearGradient><linearGradient id="paint1_linear" x1="103.273" y1="7.019" x2="162.141" y2="22.648" gradientUnits="userSpaceOnUse"><stop stop-color="#2D4251"/><stop offset="1" stop-color="#4E718A"/></linearGradient><linearGradient id="paint2_linear" x1="167.353" y1="112.223" x2="230.411" y2="49.165" gradientUnits="userSpaceOnUse"><stop stop-color="#FBFBFB"/><stop offset=".419" stop-color="#F5F5F5"/><stop offset=".989" stop-color="#E4E3E4"/><stop offset="1" stop-color="#E4E3E4"/></linearGradient><linearGradient id="paint3_linear" x1="27.952" y1="136.074" x2="86.82" y2="151.704" gradientUnits="userSpaceOnUse"><stop stop-color="#51738B"/><stop offset="1" stop-color="#2D4251"/></linearGradient><linearGradient id="paint4_linear" x1="92.032" y1="240.324" x2="155.09" y2="177.266" gradientUnits="userSpaceOnUse"><stop stop-color="#FBFBFB"/><stop offset=".419" stop-color="#F5F5F5"/><stop offset=".989" stop-color="#E4E3E4"/><stop offset="1" stop-color="#E4E3E4"/></linearGradient><linearGradient id="paint5_linear" x1="167.353" y1="199.696" x2="230.411" y2="136.638" gradientUnits="userSpaceOnUse"><stop stop-color="#FBFBFB"/><stop offset=".419" stop-color="#F5F5F5"/><stop offset=".989" stop-color="#E4E3E4"/><stop offset="1" stop-color="#E4E3E4"/></linearGradient><filter id="filter0_d" x=".295" y="0" width="244.3" height="252.145" filterUnits="userSpaceOnUse" color-interpolation-filters="sRGB"><feFlood flood-opacity="0" result="BackgroundImageFix"/><feColorMatrix in="SourceAlpha" values="0 0 0 0 0 0 0 0 0 0 0 0 0 0 0 0 0 0 127 0"/><feOffset dy="1"/><feGaussianBlur stdDeviation="2.5"/><feColorMatrix values="0 0 0 0 0 0 0 0 0 0 0 0 0 0 0 0 0 0 0.1 0"/><feBlend in2="BackgroundImageFix" result="effect1_dropShadow"/><feBlend in="SourceGraphic" in2="effect1_dropShadow" result="shape"/></filter></defs></svg>