<svg width="32" height="22" fill="none" xmlns="http://www.w3.org/2000/svg"><path fill-rule="evenodd" clip-rule="evenodd" d="M14.653.046C12.286.288 10.17.96 9.785 1.594c-.102.167.214.464.805.757 2.374 1.175 7.635 1.416 11.075.507 1.145-.302 2.15-.797 2.246-1.107.16-.51-1.882-1.291-4.226-1.616C18.78.01 15.57-.047 14.653.046zm8.783 3.683c-2.13.97-6.298 1.35-9.74.89-1.358-.182-2.685-.516-3.438-.865a6.222 6.222 0 00-.427-.188c-.037 0-.013 1.287.03 1.644l.041.331.695.356c.382.196.864.484 1.07.64.331.25.458.301 1.03.42 2.198.455 5.122.508 7.489.133 1.547-.245 2.833-.663 3.444-1.12.23-.172.303-.273.36-.505.101-.413.096-1.966-.007-1.956-.043.003-.29.103-.547.22zM5.641 6.543c-1.319.245-2.56.91-3.568 1.912-2.47 2.457-2.77 6.415-.7 9.263A6.962 6.962 0 005.87 20.48c.284.045.814.06 1.344.04 1.066-.043 1.764-.22 2.697-.686 1.862-.927 3.145-2.55 3.695-4.67.14-.54.16-.742.16-1.67 0-.93-.02-1.132-.16-1.67-.22-.85-.485-1.471-.912-2.144-1.055-1.658-2.665-2.773-4.526-3.135-.605-.118-1.9-.119-2.527-.002zm17.93 1.092c-1.095.51-2.814.888-4.812 1.06-.966.082-3.908.042-4.637-.064-.223-.033-.415-.05-.425-.04-.011.012.076.175.194.364.303.485.625 1.16.82 1.719.093.263.202.5.243.527.04.027.492.05 1.004.05h.93l.207-.186c.9-.81 2.995-1.469 5.31-1.669.447-.038.988-.086 1.203-.105l.39-.035v-.892c0-.49-.02-.89-.046-.888a3.14 3.14 0 00-.38.16zm-16.317.13c.205.11.367.426.367.722 0 .164.046.208.408.391.829.418 1.386 1.242 1.445 2.138.037.555-.093.836-.429.927-.473.13-.833-.15-.923-.716-.137-.863-.736-1.318-1.533-1.165-.27.053-.703.433-.822.723-.1.247-.11.71-.018.959.157.424.686.785 1.155.787.353.002.933.167 1.292.367.416.232.832.707 1.07 1.222.184.399.199.48.199 1.103 0 .624-.015.703-.2 1.106-.257.554-.743 1.058-1.257 1.303l-.386.185v.338c-.001.44-.132.749-.368.874-.312.166-.555.13-.796-.117-.198-.203-.213-.246-.213-.637v-.42l-.399-.195c-.88-.43-1.46-1.26-1.524-2.182-.036-.514.025-.688.297-.853.487-.295 1.064.087 1.064.704 0 .313.247.727.552.926.23.15.355.185.65.185.425 0 .642-.098.907-.408.386-.45.427-1.06.101-1.531-.237-.344-.554-.501-1.136-.563-1.054-.112-1.775-.608-2.214-1.523-.193-.401-.204-.463-.204-1.131 0-.676.01-.727.214-1.155.276-.574.748-1.046 1.289-1.288.396-.176.403-.185.403-.426 0-.314.083-.47.333-.625.241-.151.425-.158.676-.025zm15.338 3.04c-.885.09-2.111.314-2.771.508-1.175.344-2.011.798-2.011 1.09 0 .139.346.463.682.639 1.934 1.011 6.161 1.387 9.708.864a12.682 12.682 0 002.444-.608c.575-.213 1.253-.628 1.32-.808.133-.355-1.263-1.029-2.808-1.357-1.324-.28-1.996-.34-4.032-.363-1.083-.011-2.223.005-2.532.036zm-7.408 2.512c0 .361-.03.911-.067 1.222-.038.311-.059.576-.047.587.011.012.323.043.693.068l.672.046v-1.25c0-1.082-.014-1.257-.1-1.29-.053-.022-.335-.04-.624-.04h-.526v.657zm2.651 2.08c.05 1.305.01 1.218.725 1.587 1.502.773 4.374 1.18 7.408 1.047 2.705-.118 5.157-.746 5.846-1.497.15-.163.155-.202.175-1.22.01-.579.007-1.052-.008-1.052a4.03 4.03 0 00-.384.161c-.926.42-2.616.824-4.192 1.003-1.158.131-4.347.113-5.407-.032-1.608-.218-2.926-.546-3.786-.942l-.42-.193.043 1.138zm-3.508 1.824c-.178.369-.478.89-.665 1.156-.318.455-.331.488-.206.52.244.061 1.874.226 2.463.25l.578.022v-2.537h-.271a20.8 20.8 0 01-.922-.041l-.651-.04-.325.67zm17.017 1.218c-3.117 1.415-9.959 1.393-13.129-.044l-.343-.155v.46c.001.254.02.743.042 1.087.036.56.057.643.202.792.491.503 2.024 1.006 3.885 1.275 1.112.161 3.97.197 5.186.066 2.159-.233 3.909-.752 4.554-1.349l.259-.24v-1.08c0-.595-.021-1.079-.047-1.075-.026.004-.3.122-.61.263z" fill="#fff"/></svg>