<svg width="1437" height="819" fill="none" xmlns="http://www.w3.org/2000/svg"><g filter="url(#filter0_f_420_1132)"><path d="M507.941 615.229c-.572 22.369 58.114-66.753 98.147-47.226 40.032 19.527-136.336 19.62-69.193 29.723 67.143 10.102-37.1 11.746 34.522 9.02 71.623-2.726 398.338-13.079 450.303-27.715 51.96-14.637 199.08-42.912 213.87-64.525 14.78-21.614-168.03-121.054-195.41-142.359-27.37-21.305-14.01 8.313-604.051-168.566-60.307-13.816-162.463 27.935-235.375 26.266l301.578 264.326 5.609 121.056z" fill="url(#paint0_linear_420_1132)"/></g><defs><linearGradient id="paint0_linear_420_1132" x1="654.413" y1="290.629" x2="733.797" y2="621.377" gradientUnits="userSpaceOnUse"><stop offset=".035" stop-color="#ECFF00" stop-opacity=".74"/><stop offset="1" stop-color="#F4FF75" stop-opacity=".2"/></linearGradient><filter id="filter0_f_420_1132" x=".754" y=".773" width="1435.68" height="818.085" filterUnits="userSpaceOnUse" color-interpolation-filters="sRGB"><feFlood flood-opacity="0" result="BackgroundImageFix"/><feBlend in="SourceGraphic" in2="BackgroundImageFix" result="shape"/><feGaussianBlur stdDeviation="100" result="effect1_foregroundBlur_420_1132"/></filter></defs></svg>