<svg width="568" height="544" fill="none" xmlns="http://www.w3.org/2000/svg"><g filter="url(#filter0_f_60_79)"><circle cx="263.435" cy="279.987" r="145.265" transform="rotate(135.048 263.435 279.987)" fill="url(#paint0_linear_60_79)"/></g><circle cx="263.435" cy="279.987" r="145.265" transform="rotate(135.048 263.435 279.987)" fill="url(#paint1_linear_60_79)"/><path fill-rule="evenodd" clip-rule="evenodd" d="M326.091 391.092c-2.029 1.904-4.497 3.416-7.117 4.283-.224.071-.456.143-.689.215a7.95 7.95 0 01-2.307.616c-7.045 1.717-15.2 2.594-22.425 2.674a7.28 7.28 0 01-1.77 0c-7.207-.054-16.98-.992-22.765-5.928-6 .966-12.25 1.538-18.286 1.663-.608.08-1.225.08-1.833.018h-.268c-7.6.027-18.652-.787-24.491-6.232-5.847-5.455-9.129-13.1-7.51-21.084.947-4.677 3.379-8.683 6.697-11.955-5.553-12.241-8.074-26.378-6.778-39.7 1.735-17.901 10.256-33.54 25.465-43.116.322-1.261.635-2.513.948-3.774 2.423-9.63 4.856-19.251 7.592-28.8.134-.626.268-1.261.411-1.887a7.811 7.811 0 01.662-1.824c7.341-24.866 16.738-47.953 31.429-69.493 2.441-3.577 7.323-4.498 10.9-2.066a7.874 7.874 0 012.289 2.415h82.127a7.85 7.85 0 012.289-2.415c3.577-2.441 8.468-1.511 10.9 2.066 14.789 21.692 24.222 44.949 31.581 70.003.09.223.179.447.251.67 1.582-5.767 4.131-11.346 7.627-16.532 15.075-22.399 41.739-30.911 67.758-28.023 22.193 2.468 39.987 14.673 52.254 33.146 11.973 18.026 17.445 40.174 16.936 61.696-1.243 52.389-35.883 89.898-88.521 93.224-2.611.161-5.231.251-7.851.251-5.248 0-10.497-.34-15.701-1.029-1.404 3.112-3.487 5.884-6 8.227-5.839 5.445-16.881 6.25-24.491 6.232h-.259a9.908 9.908 0 01-.894.044c-.313 0-.626-.026-.939-.062-5.91-.116-11.99-.671-17.865-1.592-5.794 4.873-15.505 5.812-22.676 5.866a7.607 7.607 0 01-1.108.045c-.224 0-.438-.027-.662-.045-7.225-.09-15.37-.966-22.416-2.674a8.024 8.024 0 01-2.334-.625l-.671-.215c-2.628-.867-5.096-2.379-7.126-4.292-3.702-.322-7.421-.536-11.141-.536-3.72 0-7.502.214-11.231.545h.009zm123.16-83.415a49.906 49.906 0 008.468-4.292c12.33-7.788 19.439-20.172 17.284-30.106-.537-2.486-1.744-4.408-3.219-5.159-.93-.465-1.94-.439-3.085.08-2.995 1.35-3.326 3.371-3.407 7.994-.062 3.702-.152 8.762-5.007 11.293-5.436 2.825-13.966 1.779-20.744-2.799-.465-.313 10.149 23.329 9.71 22.989z" fill="#9968FD"/><path fill-rule="evenodd" clip-rule="evenodd" d="M478.982 373.307c-74.312 4.703-111.643-61.902-111.643-61.902l15.075-14.968c16.381 12.635 32.082 17.874 45.906 18.304a57.985 57.985 0 0010.98-.68c12.518-1.994 22.881-7.949 29.856-15.397 7.582-8.057 11.212-17.848 9.415-26.163-1.368-6.304-6.08-10.015-11.356-7.618-9.791 4.435-2.074 15.978-8.592 19.367-5.777 2.995-18.241.134-23.579-9.719a44.128 44.128 0 01-1.672-3.398 46.694 46.694 0 01-1.341-3.317c-12.545-34.363 17.516-72.623 65.934-67.231 31.68 3.522 52.603 29.712 59.693 60.703 11.016 48.097-11.355 107.754-78.658 112.001l-.018.018z" fill="#FFAC40"/><path fill-rule="evenodd" clip-rule="evenodd" d="M469.155 298.664c7.583-8.057 11.213-17.848 9.416-26.163-1.368-6.304-6.081-10.015-11.356-7.618-9.791 4.435-2.075 15.978-8.593 19.367-5.776 2.995-18.241.134-23.579-9.719a44.496 44.496 0 01-1.672-3.398 47.484 47.484 0 01-1.341-3.318c5.124 5.544 14.637 14.235 17.999 6.492 4.185-9.657 9.192-34.657 27.889-28.631 16.104 5.204 13.198 39.432-8.754 52.961l-.009.027z" fill="#FF9243"/><path fill-rule="evenodd" clip-rule="evenodd" d="M478.982 373.307c-74.312 4.703-111.643-61.902-111.643-61.902l15.075-14.968c16.381 12.634 32.082 17.874 45.906 18.303a57.904 57.904 0 0010.98-.679c11.436 9.934 33.852 23.006 66.963 14.315 40.406-10.604 50.054-43.151 51.395-67.079 11.016 48.096-11.355 107.754-78.658 112.001l-.018.009z" fill="#FF9243"/><path fill-rule="evenodd" clip-rule="evenodd" d="M560.314 285.064c0 42.061-24.822 84.667-81.323 88.243-74.313 4.712-111.643-61.902-111.643-61.902l15.075-14.968c16.381 12.635 32.082 17.874 45.906 18.304 12.133 12.544 30.606 34.174 68.76 25.349 17.525-4.06 28.782-12.966 35.149-24.133 18.938-14.745 24.428-37.027 25.42-54.624.036.143.072.295.099.438.143.626.286 1.261.402 1.887.179.894.349 1.788.51 2.691.089.465.169.93.232 1.395.134.778.25 1.574.358 2.352.134.939.25 1.877.348 2.816.027.09.036.17.036.251.099.822.179 1.663.251 2.485l.035.403c.09.992.152 2.003.215 2.995.054 1.01.098 2.003.125 3.013.036.993.045 2.003.045 2.996v.009z" fill="#F8D2B6"/><path fill-rule="evenodd" clip-rule="evenodd" d="M478.982 373.307c-74.312 4.703-111.643-61.902-111.643-61.902l15.075-14.968c16.381 12.634 32.082 17.874 45.906 18.303 12.133 12.545 30.615 34.175 68.76 25.341 63.243-14.647 44.859-92.384 9.317-111.689-29.042-15.772-79.32 2.656-73.025 42.741-15.791-35.167 14.61-76.092 64.593-70.54 80.867 8.986 91.686 165.722-18.965 172.714h-.018z" fill="#fff"/><path fill-rule="evenodd" clip-rule="evenodd" d="M471.409 369.918c-6.089 0-12.062-.483-17.919-1.466l-.054-.277c-.876-4.328-3.38-8.209-7.278-11.41 3.326-6.482 5.74-13.716 7.064-21.182 7.314 3.889 16.094 6.572 26.815 6.572 5.204 0 10.864-.635 17.043-2.057 14.789-3.424 25.116-10.3 31.796-19.081a45.388 45.388 0 003.344-5.061c14.503-11.284 21.111-26.985 23.865-41.622.482 4.417.67 8.825.563 13.179-.85 35.686-21.764 78.623-77.898 82.173-2.459.152-4.918.232-7.341.232z" fill="#D6D0D9"/><path fill-rule="evenodd" clip-rule="evenodd" d="M471.614 377.188c-35.775 0-62.34-16.193-78.703-30.312-18.884-16.291-28.353-32.994-28.747-33.691a3.64 3.64 0 011.395-4.954 3.627 3.627 0 014.945 1.395c.089.161 9.353 16.443 27.343 31.912 23.927 20.566 51.145 30.035 80.894 28.157 56.143-3.55 77.049-46.487 77.898-82.172.876-37.099-19.537-78.9-59.103-83.299-24.214-2.692-45.557 5.937-57.092 23.087-9.326 13.85-10.148 30.866-2.217 45.512 4.462 8.226 14.798 10.256 18.696 8.226.868-.447 1.029-1.636 1.082-4.963.081-4.417.197-11.105 7.672-14.494 3.148-1.421 6.465-1.403 9.353.054 3.469 1.753 6.044 5.436 7.064 10.113 2.781 12.867-5.651 28.407-20.512 37.795-23.48 14.825-53.908 11.007-81.412-10.22a3.632 3.632 0 01-.662-5.096 3.643 3.643 0 015.106-.662c21.71 16.756 45.199 21.728 64.62 14.119a49.897 49.897 0 008.467-4.292c12.331-7.788 19.439-20.172 17.284-30.106-.536-2.486-1.743-4.408-3.219-5.159-.93-.465-1.94-.439-3.084.08-2.996 1.35-3.327 3.371-3.407 7.994-.063 3.701-.152 8.762-5.007 11.293-5.812 3.022-15.147 1.618-22.104-3.782-2.521-1.959-4.73-4.435-6.348-7.422-9.255-17.069-8.289-36.901 2.575-53.041 13.081-19.43 36.982-29.239 63.932-26.252 20.127 2.235 37.169 13.081 49.312 31.358 10.998 16.559 16.774 37.634 16.256 59.344-.537 22.622-8.03 43.662-21.102 59.256-15.049 17.954-37.054 28.326-63.61 30.007-2.575.161-5.115.242-7.6.242l.035-.027z" fill="#000"/><path fill-rule="evenodd" clip-rule="evenodd" d="M224.641 331.452c2.048 16.14 9.585 31.474 20.101 40.201 25.939 21.531 50.984 14.7 77.424 11.991 5.007-.528 10.059-.894 15.174-.894 5.114 0 9.925.357 14.807.849 26.574 2.691 51.717 9.684 77.791-11.946 10.515-8.727 18.044-24.052 20.091-40.201 2.629-20.628-3.702-42.579-24.195-53.765-3.345-13.153-6.608-26.628-10.632-40.156-6.652-22.291-15.397-44.761-30.088-66.292h-95.549c-8.28 12.124-14.655 24.553-19.85 37.071-9.621 23.203-15.129 46.746-20.887 69.377-20.494 11.186-26.816 33.137-24.178 53.765h-.009z" fill="#FFAC40"/><path fill-rule="evenodd" clip-rule="evenodd" d="M224.641 331.452c2.048 16.139 9.586 31.474 20.101 40.201 25.939 21.531 50.984 14.7 77.424 11.991 5.007-.528 10.059-.895 15.174-.895 5.114 0 9.925.358 14.807.85 26.574 2.691 51.717 9.683 77.791-11.946 10.515-8.727 18.044-24.053 20.091-40.201a4.52 4.52 0 01-.205-.215s-18.411 15.299-29.302-2.763c-6.026-10.005 1.243-38.421 0-56.393-25 53.944-48.346 38.189-63.967 37.5-8.933 19.967-19.215 20.02-19.215 20.02s-10.283-.053-19.216-20.02c-15.611.689-38.967 16.453-63.967-37.5-1.243 17.972 6.027 46.388 0 56.393-10.891 18.071-29.301 2.763-29.301 2.763s-.063.072-.206.215h-.009z" fill="#FF9243"/><path fill-rule="evenodd" clip-rule="evenodd" d="M324.437 345.061a2093.66 2093.66 0 01-2.28 38.583c5.007-.528 10.059-.894 15.174-.894 5.114 0 9.925.357 14.807.849a2094.92 2094.92 0 01-2.28-38.538c-.653-13.037 2.942-24.589 7.064-35.462-.126-.009-.242-.009-.376-.018-8.932 19.967-19.215 20.02-19.215 20.02s-10.283-.053-19.215-20.02a6.875 6.875 0 00-.743.054c4.131 10.864 7.717 22.398 7.064 35.426z" fill="#F8D2B6"/><path fill-rule="evenodd" clip-rule="evenodd" d="M324.438 345.061a2092.37 2092.37 0 01-2.281 38.583c5.008-.528 10.06-.894 15.174-.894 5.115 0 9.925.357 14.807.849-.661-9.684-1.52-23.23-2.28-38.538-1.529-30.526 20.217-52.898 17.66-77.594-2.522-24.455-30.375-24.455-30.375-24.455s-27.861 0-30.374 24.455c-2.557 24.696 19.189 47.068 17.669 77.594z" fill="#fff"/><path fill-rule="evenodd" clip-rule="evenodd" d="M349.804 340.206c.125-4.515.733-8.861 1.654-13.063-.921 4.211-1.52 8.548-1.654 13.054v.009z" fill="#D1AD9F"/><path fill-rule="evenodd" clip-rule="evenodd" d="M324.124 379.638c.349-1.225.59-2.602.671-4.158l.384-.045a3.706 3.706 0 003.255-3.683v-.716l-3.666-30.776-.563-4.507a62.888 62.888 0 00-.474-3.755 276.308 276.308 0 00-.957-7.207c-.465-3.076-.975-6.143-1.618-9.201 8.065 13.967 16.166 14.011 16.166 14.011s8.003-.044 16.023-13.769c-.626 2.977-1.127 5.963-1.574 8.959-.116.787-.223 1.574-.33 2.36-.921 4.203-1.521 8.539-1.655 13.064v.054l-3.675 30.767v.716a3.711 3.711 0 003.255 3.683l.385.045c.08 1.556.321 2.933.67 4.158-4.31-.393-8.691-.662-13.117-.662s-8.861.269-13.207.671l.027-.009z" fill="#D6D0D9"/><path fill-rule="evenodd" clip-rule="evenodd" d="M386.867 390.6c-8.262 0-16.435-1.01-24.518-2.021-8.154-1.01-16.595-2.056-25.018-2.056-8.423 0-16.855 1.046-25.018 2.056-22.703 2.817-46.183 5.732-69.985-14.029-14.924-12.384-23.856-36.428-21.719-58.45 1.743-18 10.586-32.458 24.955-40.899.456-1.788.903-3.585 1.359-5.383 8.405-33.351 17.097-67.83 39.513-100.708a3.77 3.77 0 015.249-.992c1.725 1.171 2.163 3.523.992 5.249-21.656 31.76-30.177 65.585-38.43 98.293-.591 2.325-1.172 4.65-1.762 6.966a3.796 3.796 0 01-1.851 2.387c-16.613 9.058-21.406 24.482-22.506 35.82-1.877 19.376 6.116 41.202 19.019 51.914 21.299 17.677 42.15 15.093 64.236 12.348 8.387-1.037 17.06-2.119 25.948-2.119 8.888 0 17.561 1.073 25.948 2.119 22.086 2.736 42.937 5.329 64.236-12.348 12.893-10.703 20.896-32.538 19.027-51.914-1.1-11.338-5.901-26.762-22.514-35.82a3.776 3.776 0 01-1.851-2.387c-.59-2.316-1.172-4.641-1.762-6.975-8.244-32.707-16.774-66.524-38.43-98.284-1.172-1.726-.734-4.078.992-5.249 1.726-1.171 4.077-.733 5.249.992 22.407 32.869 31.107 67.348 39.512 100.7.456 1.806.912 3.603 1.359 5.391 14.369 8.441 23.204 22.899 24.956 40.899 2.137 22.031-6.795 46.066-21.719 58.459-15.326 12.724-30.526 16.05-45.467 16.05v-.009z" fill="#000"/><path fill-rule="evenodd" clip-rule="evenodd" d="M400.154 384.037c-4.167-1.198-9.693-5.105-8.495-14.691 1.547-12.375 21.317-22.658 42.687-14.816 17.311 6.349 19.519 19.519 10.211 28.193-7.269 6.777-36.114 3.701-44.412 1.314h.009z" fill="#fff"/><path fill-rule="evenodd" clip-rule="evenodd" d="M425.083 383.036c-3.013 0-6.143-.134-9.174-.367.232-.34.447-.706.661-1.064.367-.635.591-1.35.832-2.021.143-.679.304-1.413.367-2.047a20.41 20.41 0 00.071-1.646c3.022.242 6.17.385 9.255.385 8.029 0 15.585-.984 19.045-3.863-.277 2.629-1.708 5.231-4.167 7.529-2.396 2.226-9.263 3.085-16.899 3.085l.009.009zm-20.279-2.012h-.331a12.316 12.316 0 00.456-6.814c0-.018 0-.035-.009-.053 2.199.447 4.962.885 8.038 1.252-.062.456-.152.912-.259 1.368-.107.411-.268.688-.358 1.037-.197.277-.322.581-.545.831-.805.975-2.048 1.664-3.666 2.012-.787.197-1.646.295-2.513.34-.259.018-.527.018-.787.018l-.026.009z" fill="#D6D0D9"/><path fill-rule="evenodd" clip-rule="evenodd" d="M401.2 380.407c9.621 2.771 35.623 4.363 40.791-.456 3.317-3.094 4.757-6.751 4.041-10.283-.947-4.694-5.677-8.924-12.983-11.606-10.604-3.89-21.808-3.237-29.972 1.734-4.417 2.692-7.206 6.34-7.662 10.006-.895 7.126 2.655 9.693 5.785 10.596v.009zm24.24 10.211c-11.32 0-23.006-1.994-26.333-2.951-6.321-1.824-12.58-7.716-11.194-18.795.751-5.964 4.837-11.624 11.23-15.513 10.113-6.161 23.758-7.055 36.508-2.379 9.97 3.657 16.283 9.764 17.785 17.204 1.234 6.116-1.064 12.419-6.295 17.301-4.193 3.908-12.831 5.133-21.701 5.133z" fill="#000"/><path fill-rule="evenodd" clip-rule="evenodd" d="M412.368 368.738c.098.286.259.796.349 1.216.098.447.196.903.25 1.368a15.065 15.065 0 01-.286 5.463c-.108.412-.269.689-.358 1.038-.197.277-.322.581-.545.831-.805.975-2.048 1.663-3.666 2.012-.787.197-1.646.295-2.513.34a15.78 15.78 0 01-1.305.018c-.215-.009-.438-.009-.644-.036a4.607 4.607 0 01-.537-.054 3.855 3.855 0 00-4.748 2.665 3.841 3.841 0 003.72 4.882h.662c.447-.009.715-.036 1.055-.063.322-.018.626-.062.939-.098a25.896 25.896 0 001.842-.304c1.225-.259 2.441-.59 3.648-1.1a14.27 14.27 0 003.523-2.012c.554-.447 1.091-.912 1.564-1.493.501-.528.886-1.171 1.261-1.806.367-.635.59-1.35.832-2.021.143-.68.304-1.413.366-2.048a19.549 19.549 0 00-.035-3.621 19.436 19.436 0 00-.68-3.514 16.664 16.664 0 00-.59-1.69 14.06 14.06 0 00-.832-1.717 1.845 1.845 0 00-2.512-.697 1.855 1.855 0 00-.85 2.2l.081.241h.009zm20.548.474c.062.09.241.313.357.492.134.188.251.384.376.59.241.402.438.832.608 1.261.34.858.545 1.743.581 2.611a7.646 7.646 0 01-.304 2.548 7.34 7.34 0 01-.492 1.234c-.179.429-.411.805-.644 1.18-.491.724-1.028 1.359-1.654 1.878a8.34 8.34 0 01-2.101 1.225c-1.538.626-3.344.867-5.275.849a3.787 3.787 0 00-3.818 3.765 3.782 3.782 0 003.764 3.818c.188 0 .384-.009.563-.036l.117-.018c2.548-.375 5.248-1.109 7.707-2.602a14.659 14.659 0 003.335-2.754c.966-1.091 1.717-2.325 2.289-3.594.26-.644.519-1.279.689-1.923a14.24 14.24 0 00.465-2.012 12.66 12.66 0 00-.072-4.184 12.427 12.427 0 00-1.413-3.827 12.865 12.865 0 00-1.099-1.654 10.32 10.32 0 00-.635-.769c-.242-.26-.429-.465-.769-.769a1.85 1.85 0 00-2.611.116 1.849 1.849 0 00-.143 2.316l.188.259h-.009z" fill="#000"/><path fill-rule="evenodd" clip-rule="evenodd" d="M273.909 384.037c4.167-1.198 9.684-5.105 8.485-14.691-1.546-12.375-21.316-22.658-42.686-14.816-17.311 6.349-19.519 19.519-10.211 28.193 7.269 6.777 36.123 3.701 44.412 1.314z" fill="#fff"/><path fill-rule="evenodd" clip-rule="evenodd" d="M248.971 383.036c-7.636 0-14.503-.859-16.899-3.085-2.468-2.298-3.89-4.9-4.167-7.529 3.46 2.879 11.025 3.863 19.054 3.863 3.085 0 6.241-.143 9.255-.385 0 .546.017 1.1.071 1.646.063.625.224 1.359.358 2.047.25.671.474 1.386.84 2.021.215.358.429.724.671 1.064-3.031.232-6.161.367-9.174.367l-.009-.009zm20.279-2.012c-.259 0-.527 0-.787-.018-.867-.045-1.734-.143-2.512-.34-1.619-.358-2.861-1.046-3.675-2.012-.215-.241-.34-.554-.537-.831-.098-.349-.25-.626-.366-1.037a11.52 11.52 0 01-.259-1.369c3.326-.393 6.303-.876 8.574-1.359-.009.054-.026.108-.035.161-.161.76-.26 1.529-.278 2.298a12.06 12.06 0 00.725 4.489c-.108 0-.215 0-.322.009h-.519l-.009.009z" fill="#D6D0D9"/><path fill-rule="evenodd" clip-rule="evenodd" d="M254.828 355.549c-4.525 0-9.219.832-13.815 2.513-7.296 2.682-12.035 6.912-12.983 11.606-.715 3.532.724 7.189 4.042 10.283 5.159 4.81 31.17 3.219 40.791.447 3.129-.903 6.679-3.469 5.785-10.596-.456-3.666-3.255-7.314-7.663-10.005-4.632-2.826-10.238-4.257-16.166-4.257l.009.009zm-6.197 35.06c-8.87 0-17.507-1.225-21.701-5.132-5.239-4.883-7.537-11.186-6.294-17.302 1.502-7.44 7.814-13.547 17.784-17.204 12.751-4.676 26.395-3.782 36.508 2.379 6.393 3.898 10.48 9.549 11.231 15.522 1.386 11.079-4.873 16.971-11.195 18.795-3.317.957-15.013 2.951-26.333 2.951v-.009z" fill="#000"/><path fill-rule="evenodd" clip-rule="evenodd" d="M258.413 366.994a14.87 14.87 0 00-.831 1.717 18.47 18.47 0 00-.59 1.69 19.636 19.636 0 00-.725 7.135c.063.626.224 1.359.358 2.048.25.671.474 1.386.841 2.021.375.635.76 1.287 1.269 1.806.465.581 1.011 1.037 1.565 1.493a14.301 14.301 0 003.523 2.012c1.207.51 2.423.84 3.648 1.1.608.125 1.225.223 1.842.304.313.036.617.08.939.098.331.027.599.054 1.046.054h.644a3.833 3.833 0 003.88-3.809 3.845 3.845 0 00-3.809-3.881c-.366 0-.742.054-1.073.143-.08.018-.339.045-.527.054-.206.018-.429.027-.644.036-.429 0-.876.009-1.305-.018-.868-.045-1.735-.143-2.513-.34-1.618-.358-2.861-1.046-3.675-2.012-.215-.241-.34-.554-.536-.831-.099-.349-.251-.626-.367-1.038-.224-.876-.34-1.788-.393-2.7a14.31 14.31 0 01.107-2.763c.053-.465.143-.912.25-1.368.09-.42.259-.93.349-1.216l.08-.241a1.841 1.841 0 00-1.153-2.343 1.847 1.847 0 00-2.2.84v.009zm-19.832-.473a12.61 12.61 0 00-.769.769c-.223.25-.438.5-.643.76a14.654 14.654 0 00-1.1 1.654 12.906 12.906 0 00-1.413 3.827 12.194 12.194 0 00-.072 4.184c.108.689.269 1.377.465 2.012.17.644.421 1.288.689 1.923.572 1.269 1.323 2.503 2.28 3.594a14.68 14.68 0 003.335 2.754c2.468 1.493 5.159 2.218 7.717 2.593h.089a3.775 3.775 0 004.31-3.183 3.788 3.788 0 00-3.192-4.301 4.333 4.333 0 00-.581-.045c-1.932.018-3.747-.223-5.276-.849a8.425 8.425 0 01-2.101-1.216c-.626-.519-1.171-1.154-1.654-1.878-.224-.375-.465-.751-.644-1.18a8.19 8.19 0 01-.492-1.234 7.418 7.418 0 01-.304-2.548 8.3 8.3 0 01.581-2.611 9.874 9.874 0 01.975-1.851c.116-.179.295-.403.358-.492l.187-.259a1.847 1.847 0 00-2.754-2.432l.009.009z" fill="#000"/><path fill-rule="evenodd" clip-rule="evenodd" d="M356.779 309.572s-3.908 44.842-6.93 62.108l48.928 6.071s30.526-81.099 17.168-137.842l-59.166 69.663z" fill="#FFAC40"/><path fill-rule="evenodd" clip-rule="evenodd" d="M354.928 309.411c-1.449 5.088-2.37 10.229-3.139 15.38-.384 2.575-.706 5.15-1.019 7.734l-.975 7.734-3.666 30.768v.715a3.712 3.712 0 003.255 3.684l48.928 6.072h.036a3.72 3.72 0 003.961-2.415c2.074-5.66 3.862-11.239 5.597-16.908a401.891 401.891 0 004.775-17.078c2.942-11.445 5.392-23.034 7.225-34.747 1.815-11.713 2.995-23.561 3.165-35.498.045-5.973-.081-11.954-.644-17.936-.563-5.982-1.457-11.955-2.808-17.865a3.777 3.777 0 00-4.524-2.844 3.784 3.784 0 00-2.843 4.525v.044c1.269 5.508 2.119 11.141 2.655 16.819.528 5.678.653 11.419.608 17.159-.17 11.49-1.305 23.006-3.076 34.443-1.779 11.436-4.193 22.791-7.072 34.031a401.4 401.4 0 01-4.695 16.756c-1.689 5.526-3.487 11.106-5.445 16.444l3.997-2.414-48.928-6.072 3.255 4.399c1.118-5.239 1.869-10.425 2.53-15.629a416.916 416.916 0 001.654-15.603c.251-2.602.43-5.204.635-7.806.206-2.602.385-5.204.51-7.815.223-5.222.277-10.453-.259-15.746a1.892 1.892 0 00-3.702-.331h.009z" fill="#000"/><path fill-rule="evenodd" clip-rule="evenodd" d="M317.794 309.572s3.907 44.842 6.929 62.108l-48.927 6.071s-30.527-81.099-17.177-137.842l59.175 69.663z" fill="#FFAC40"/><path fill-rule="evenodd" clip-rule="evenodd" d="M315.943 309.733c-.537 5.285-.492 10.515-.259 15.746.125 2.611.304 5.213.509 7.815.206 2.602.376 5.213.635 7.806a421.071 421.071 0 001.654 15.603c.662 5.204 1.404 10.39 2.522 15.63l3.255-4.4-48.928 6.072 3.997 2.423c-1.95-5.338-3.756-10.909-5.446-16.443a418.746 418.746 0 01-4.694-16.757c-2.879-11.239-5.285-22.595-7.073-34.031-1.77-11.427-2.915-22.944-3.076-34.443-.044-5.74.081-11.481.617-17.159.537-5.677 1.386-11.302 2.638-16.818v-.054a3.761 3.761 0 00-2.834-4.525 3.775 3.775 0 00-4.525 2.844c-1.35 5.91-2.244 11.883-2.807 17.865-.555 5.982-.689 11.973-.644 17.937.17 11.937 1.35 23.784 3.165 35.497 1.824 11.714 4.283 23.302 7.216 34.747a419.282 419.282 0 004.775 17.078c1.734 5.669 3.523 11.249 5.597 16.909a3.73 3.73 0 003.961 2.423h.036l48.928-6.072a3.706 3.706 0 003.254-3.684v-.715l-3.666-30.776-.974-7.735a370.763 370.763 0 00-1.02-7.734c-.769-5.151-1.69-10.292-3.138-15.38a1.887 1.887 0 00-2.334-1.305 1.87 1.87 0 00-1.359 1.627l.018.009z" fill="#000"/><path fill-rule="evenodd" clip-rule="evenodd" d="M358.057 387.962c-4.032-1.332-9.147-5.633-8.208-16.282.93-10.569 19.939-20.637 38.904-12.956 15.147 6.134 21.245 18.16 12.25 27.772-7.028 7.511-34.925 4.104-42.946 1.457v.009z" fill="#fff"/><path fill-rule="evenodd" clip-rule="evenodd" d="M405.197 377.143a12.051 12.051 0 00-.286-2.924c.205.975.304 1.95.277 2.933l.009-.009z" fill="#B6ABBB"/><path fill-rule="evenodd" clip-rule="evenodd" d="M382.316 391.074c-9.586 0-19.877-1.672-24.25-3.112a11.243 11.243 0 01-5.078-3.442c-.957-1.136-1.789-2.566-2.37-4.346-.724-2.235-1.064-5.025-.751-8.485.116-1.288.492-2.575 1.118-3.818.661 7.359 4.828 10.595 8.226 11.713 4.372 1.44 14.664 3.112 24.249 3.112 7.994 0 15.505-1.163 18.697-4.569 1.18-1.261 2.101-2.566 2.772-3.899.214.966.304 1.949.286 2.924-.081 3.192-1.413 6.393-4.194 9.362-3.192 3.415-10.694 4.569-18.696 4.569l-.009-.009z" fill="#D6D0D9"/><path fill-rule="evenodd" clip-rule="evenodd" d="M359.246 384.377c9.21 3.04 34.085 4.801 39.003-.456 2.656-2.835 3.657-5.839 2.969-8.933-1.082-4.909-6.268-9.674-13.878-12.759-10.962-4.444-21.227-2.119-27.191 1.52-3.835 2.351-6.285 5.436-6.527 8.262-.787 8.888 3.192 11.561 5.633 12.366h-.009zm22.891 10.488c-10.328 0-20.995-1.904-25.26-3.308-2.861-.948-12.107-5.204-10.793-20.208.465-5.275 4.149-10.39 10.113-14.038 7.538-4.614 20.414-7.573 33.978-2.083 10.068 4.077 16.783 10.685 18.419 18.133 1.216 5.508-.5 11.096-4.837 15.719-4.086 4.364-12.733 5.776-21.629 5.776l.009.009z" fill="#000"/><path fill-rule="evenodd" clip-rule="evenodd" d="M367.598 375.042c.134 1.475.116 3.165-.107 4.649-.215 1.493-.644 2.906-1.306 3.863-.67.966-1.386 1.368-2.298 1.529-.93.152-2.146.036-3.451-.313-2.03-.554-4.113.653-4.668 2.674a3.813 3.813 0 003.407 4.792h.152c2.084.143 4.417.036 6.769-.939a9.345 9.345 0 003.165-2.181c.894-.93 1.538-2.012 1.976-3.076.868-2.155.993-4.23.912-6.161a24.686 24.686 0 00-.939-5.642 1.862 1.862 0 00-2.298-1.279 1.855 1.855 0 00-1.341 1.95l.018.143.009-.009zm20.234.876c.26 1.44.385 3.094.313 4.587-.062 1.503-.331 2.96-.849 4.078-.528 1.135-1.216 1.851-2.066 2.226-.822.411-1.94.546-3.192.501a3.79 3.79 0 00-3.916 3.675 3.796 3.796 0 003.675 3.916c.25 0 .492 0 .724-.044l.125-.018c2.11-.349 4.426-1.056 6.376-2.647.965-.778 1.815-1.735 2.405-2.772a11.208 11.208 0 001.243-3.192c.482-2.137.402-4.14.134-6.018a24.764 24.764 0 00-1.449-5.436 1.859 1.859 0 00-2.405-1.064 1.856 1.856 0 00-1.162 2.056l.026.143.018.009z" fill="#000"/><path fill-rule="evenodd" clip-rule="evenodd" d="M316.515 387.962c4.033-1.332 9.147-5.633 8.208-16.282-.929-10.569-19.939-20.637-38.904-12.956-15.147 6.134-21.254 18.16-12.25 27.772 7.028 7.511 34.926 4.104 42.946 1.457v.009z" fill="#fff"/><path fill-rule="evenodd" clip-rule="evenodd" d="M321.263 384.896c1.136-1.234 2.128-2.862 2.772-4.954-.644 2.092-1.636 3.711-2.772 4.954z" fill="#371A45"/><path fill-rule="evenodd" clip-rule="evenodd" d="M292.266 391.074c-7.994 0-15.496-1.162-18.697-4.569-2.959-3.165-4.283-6.59-4.193-9.988.018-.768.116-1.538.277-2.298.679 1.333 1.6 2.638 2.772 3.899 3.201 3.416 10.703 4.569 18.696 4.569 9.586 0 19.868-1.672 24.25-3.112 3.397-1.117 7.564-4.354 8.226-11.713a10.624 10.624 0 011.118 3.818c.295 3.344 0 6.062-.68 8.262-.644 2.092-1.636 3.711-2.772 4.954a11.348 11.348 0 01-4.748 3.067c-4.372 1.448-14.664 3.111-24.249 3.111z" fill="#D6D0D9"/><path fill-rule="evenodd" clip-rule="evenodd" d="M299.517 359.797c-3.844 0-8.011.706-12.276 2.432-7.609 3.085-12.804 7.85-13.886 12.759-.68 3.094.322 6.098 2.968 8.933 4.918 5.257 29.793 3.496 39.003.456 2.441-.805 6.411-3.487 5.633-12.366-.25-2.826-2.691-5.911-6.527-8.262-3.639-2.227-8.888-3.961-14.915-3.961v.009zm-7.072 35.068c-8.897 0-17.543-1.413-21.63-5.785-4.327-4.623-6.044-10.211-4.837-15.719 1.645-7.448 8.36-14.056 18.428-18.133 13.565-5.499 26.44-2.531 33.978 2.083 5.964 3.648 9.648 8.763 10.113 14.038 1.323 15.004-7.922 19.26-10.793 20.208-4.256 1.404-14.932 3.308-25.259 3.308z" fill="#000"/><path fill-rule="evenodd" clip-rule="evenodd" d="M303.344 374.228a24.324 24.324 0 00-.948 5.642c-.071 1.932.054 4.006.921 6.161a9.692 9.692 0 001.977 3.076 9.467 9.467 0 003.165 2.182c2.342.974 4.685 1.073 6.769.947h.125a3.816 3.816 0 003.549-4.05 3.804 3.804 0 00-4.792-3.425c-1.306.358-2.522.465-3.452.313-.912-.161-1.627-.554-2.298-1.529-.661-.948-1.09-2.369-1.305-3.863-.224-1.484-.233-3.165-.107-4.649v-.143a1.836 1.836 0 00-1.672-2.012 1.854 1.854 0 00-1.95 1.341l.018.009zm-20.136.555a25.315 25.315 0 00-1.448 5.436c-.269 1.878-.349 3.881.134 6.018a11.178 11.178 0 001.243 3.192c.599 1.046 1.448 2.003 2.405 2.772 1.949 1.591 4.265 2.289 6.375 2.646l.098.018a3.807 3.807 0 004.382-3.12 3.793 3.793 0 00-3.121-4.373 4.21 4.21 0 00-.751-.053c-1.252.035-2.36-.099-3.192-.501-.849-.376-1.547-1.091-2.065-2.227-.519-1.117-.787-2.575-.85-4.077-.071-1.493.063-3.147.313-4.587l.027-.134a1.858 1.858 0 00-1.502-2.155 1.864 1.864 0 00-2.066 1.162l.018-.017z" fill="#000"/><path fill-rule="evenodd" clip-rule="evenodd" d="M282.073 274.405c5.257-1.332 8.405-4.721 7.904-11.507.492 6.786-2.656 10.184-7.913 11.507h.009z" fill="#D6D0D9"/><path fill-rule="evenodd" clip-rule="evenodd" d="M258.592 201.872a61.908 61.908 0 01-13.635-11.883c-3.97-4.659-7.118-9.979-9.353-15.809a59.166 59.166 0 01-2.611-8.771 66.504 66.504 0 01-1.261-8.996c-.402-5.713-.107-11.722.894-17.856a84.531 84.531 0 011.78-8.244 3.368 3.368 0 01-.063-.295c-1.726-2.584-2.602-6.107-2.602-10.47 0-3.666 1.529-6.939 4.337-9.362a210.197 210.197 0 01-.081-14.628 71.993 71.993 0 017.878-9.344 72.56 72.56 0 00-7.869 9.335c.197-6.84.733-13.573 1.601-20.128 2.262-16.899 6.768-32.663 13.385-46.853 3.666-7.842 7.851-15.004 12.429-21.272a93.73 93.73 0 011.86-2.485l.903-1.145.277-.313c.277-.304.626-.688 1.1-1.064l.527-.43.608-.384c.841-.527 1.78-.92 2.879-1.198l.081-.018.08-.018a11.066 11.066 0 012.146-.232c.286 0 .573.018.85.045.912.071 1.86.295 2.888.688l.089.027.081.045c1.028.456 1.86.983 2.548 1.582.742.608 1.386 1.368 1.985 2.307.242.376.411.733.554 1.02l.126.268 1.529 3.46c.482 1.145 1.028 2.271 1.618 3.46.277.564.545 1.127.814 1.69 3.156 6.367 6.956 12.84 11.615 19.743a126.65 126.65 0 002.271 3.3c.34.483.679.956 1.019 1.44l.662.902a136.545 136.545 0 002.763 3.702c.644.867 1.287 1.672 1.77 2.28a164.812 164.812 0 003.309 4.086c3.04-.849 6.357-1.529 10.238-2.092 4.408-.644 9.039-.975 13.743-.992 4.73.017 9.352.348 13.77.992 3.889.563 7.197 1.234 10.238 2.092.482-.58.983-1.18 1.502-1.824a100.27 100.27 0 001.788-2.235c.501-.635 1.145-1.448 1.761-2.271.957-1.234 1.869-2.495 2.763-3.71l.68-.93c.34-.484.671-.967 1.01-1.44a109.31 109.31 0 002.263-3.273c4.676-6.93 8.485-13.403 11.65-19.823.251-.519.528-1.082.805-1.645.581-1.19 1.136-2.307 1.609-3.452l1.521-3.47.125-.267c.134-.287.313-.644.563-1.029.59-.93 1.243-1.68 1.976-2.298.689-.608 1.529-1.126 2.548-1.591l.081-.036.08-.027c1.038-.393 1.985-.617 2.888-.688.278-.027.564-.045.85-.045.671 0 1.368.08 2.146.232l.08.018.081.018c1.109.277 2.047.67 2.879 1.19l.608.393.536.438c.465.367.805.742 1.082 1.046l.287.322.885 1.136a89.46 89.46 0 011.886 2.503c4.561 6.26 8.745 13.412 12.411 21.263 6.617 14.19 11.123 29.954 13.386 46.853a196.691 196.691 0 011.6 20.128 72.03 72.03 0 00.009.009c.143 4.828.116 9.719-.08 14.637 2.807 2.423 4.336 5.696 4.336 9.362 0 4.363-.876 7.877-2.611 10.461-.018.099-.044.197-.062.295a88.436 88.436 0 011.779 8.253c1.002 6.143 1.306 12.152.894 17.848a66.02 66.02 0 01-1.261 8.986 59.276 59.276 0 01-2.61 8.789c-2.245 5.83-5.392 11.15-9.353 15.8-3.899 4.569-8.495 8.575-13.672 11.901 1.788 9.496-.653 36.597-74.125 36.597-77.898 0-78.649-25.715-77.335-36.624l-.009.018z" fill="#9968FD"/><path fill-rule="evenodd" clip-rule="evenodd" d="M397.391 217.6c-2.128-7.126-3.04-9.827-3.827-12.25H275.116c-.796 2.441-1.77 5.347-3.925 12.563a141.805 141.805 0 01-3.8-2.235c2.843-9.478 4.122-13.082 4.14-13.144a2.141 2.141 0 012.029-1.467h121.551c.921 0 1.743.59 2.03 1.467.017.062 1.207 3.406 4.005 12.697a171.168 171.168 0 01-3.755 2.378v-.009z" fill="#433B72"/><path fill-rule="evenodd" clip-rule="evenodd" d="M397.498 217.976c-2.137-7.153-3.156-10.211-3.943-12.626H275.116c-.787 2.441-1.663 4.981-3.827 12.223a121.222 121.222 0 01-3.8-2.235c2.834-9.451 3.988-12.643 4.041-12.804a2.135 2.135 0 012.03-1.467h121.551c.921 0 1.743.59 2.029 1.467.054.161 1.324 3.8 4.114 13.072-1.27.823-2.513 1.619-3.756 2.379v-.009z" fill="#000"/><path fill-rule="evenodd" clip-rule="evenodd" d="M334.344 197.982h68.895s14.735 33.459-68.895 33.459c-83.629 0-68.894-33.459-68.894-33.459h68.894z" fill="#9968FD"/><path fill-rule="evenodd" clip-rule="evenodd" d="M334.345 197.982h68.894s.143.331.322.921c-2.871 9.827-16.497 23.123-69.216 23.123-52.719 0-66.337-13.296-69.216-23.123.178-.59.321-.921.321-.921h68.895z" fill="#000"/><path fill-rule="evenodd" clip-rule="evenodd" d="M266.997 200.12c-.554 2.181-1.117 6.867 2.155 11.82 5.231 7.914 20.78 17.356 65.184 17.356 44.403 0 59.952-9.442 65.183-17.356 3.273-4.953 2.709-9.63 2.155-11.82H266.997zm128.302 21.772c-4.301 2.45-8.629 4.489-13.448 6.152-11.624 3.648-27.272 5.499-46.863 5.544-4.667-.009-9.013-.09-13.099-.269-5.848-.259-11.275-.715-16.273-1.359-12.045-1.627-21.836-4.622-31.644-9.683-3.64-2.334-6.456-5.025-8.45-8.074-5.633-8.638-2.182-16.748-2.03-17.088a2.134 2.134 0 011.958-1.278h137.78c.849 0 1.618.5 1.958 1.278.152.34 3.612 8.441-2.03 17.088-1.877 2.879-4.506 5.445-7.859 7.689z" fill="#000"/><path fill-rule="evenodd" clip-rule="evenodd" d="M360.087 212.87a260.345 260.345 0 01-25.716 1.27h-.035c-8.593 0-17.186-.421-25.752-1.27-8.351-1.002-15.764-2.477-22.354-4.319-71.782-20.118-44.037-85.221-44.037-85.221-6.491-64.924 16.989-102.613 27.961-116.356 2.262-2.825 6.697-2.164 8.092 1.171 11.105 26.682 30.365 47.873 30.365 47.873 2.977-1.055 6.313-1.833 9.576-2.414a91.521 91.521 0 0132.288 0c3.255.581 6.599 1.36 9.576 2.414 0 0 19.251-21.191 30.366-47.873 1.394-3.335 5.829-3.996 8.092-1.17 10.971 13.742 34.46 51.43 27.96 116.355 0 0 33.065 77.576-66.382 89.531v.009z" fill="#FBA329"/><path fill-rule="evenodd" clip-rule="evenodd" d="M279.569 204.537a97.727 97.727 0 01-2.674-1.038l-1.886-.777c-.626-.269-1.243-.564-1.86-.841-1.243-.545-2.45-1.18-3.657-1.788-2.387-1.279-4.739-2.62-6.948-4.158-4.461-3.013-8.503-6.599-11.892-10.712a48.94 48.94 0 01-7.922-13.743c-1.869-4.98-2.933-10.256-3.317-15.594-.358-5.347-.081-10.757.751-16.095a79.197 79.197 0 011.413-7.099c.429 5.061 1.868 11.91 5.052 18.562-.018.59-.036 1.181-.036 1.762 0 26.189 21.683 44.028 32.967 51.539l.009-.018zM248.775 107.7a3.316 3.316 0 00-.117-.313c-1.395-3.684 3.389-8.718 7.422-8.718.339 0 .679.036 1.001.108 0 0 .93-11.213 9.773-11.213.412 0 .832.027 1.279.072l1.922-.868s3.219 2.593 2.182 4.856c-1.466 3.21-9.147-.01-9.997 9.942a3.868 3.868 0 01-.527 1.646c-5.794 1.475-10.211 3.237-12.938 4.479v.009z" fill="#BE6F00"/><path fill-rule="evenodd" clip-rule="evenodd" d="M389.093 204.554c11.517-7.662 33.898-26.109 32.959-53.219v-.09c.018.59.036 1.181.036 1.762 0 26.198-21.71 44.046-32.986 51.556l-.009-.009zm-109.533-.017c-11.284-7.511-32.958-25.358-32.967-51.539 0-.581.009-1.172.036-1.762v.09c-.939 27.092 21.415 45.53 32.94 53.202l-.009.009z" fill="#4A4A8E"/><path fill-rule="evenodd" clip-rule="evenodd" d="M334.38 214.14h-.071c-8.504 0-17.007-.42-25.484-1.243a.268.268 0 00-.196-.277c-5.437-1.297-10.829-2.495-16.131-3.979-4.372-1.207-8.709-2.531-12.92-4.104-11.526-7.672-33.88-26.11-32.941-53.202.269.751.564 1.502.877 2.262 5.695 3.702 36.642 23.194 45.601 16.3 9.281-7.144 10.927-31.939 18.679-45.351 3.961-6.849 12.554-11.883 20.44-12.143 10.506-.339 19.582 4.659 24.428 13.833 7.368 13.949 9.693 37.286 18.804 43.652 13.931 9.738 36.535-7.144 46.594-18.562v-.09c0 23.561-14.163 40.8-32.949 53.31-4.211 1.573-8.539 2.87-12.903 4.086-1.332.34-2.655.733-3.996 1.064-1.342.322-2.674.697-4.024 1.01-1.35.295-2.692.662-4.051.966-1.35.313-2.709.626-4.068.983a.224.224 0 00-.161.215v.018a261.901 261.901 0 01-25.519 1.252h-.009zm-85.981-58.54l.044.098-.026-.053-.027-.045h.009zm.751 1.52l.027.045.026.053-.053-.098zm.322.608l.018.036.035.062-.053-.098zm63.395 21.835c.921 1.976 2.271 3.943 4.238 5.642-.223 1.753-.366 3.559-.366 5.347 0 9.183 3.639 17.99 17.605 17.99h.072c16.676 0 18.634-12.562 17.239-23.328a16.516 16.516 0 004.131-5.419l-.089-.223c.554-1.323.804-1.815 1.225-3.478 1.564-.939 3.603-2.468 5.087-4.659a29.55 29.55 0 01-2.816-2.11c-.108.089-.215.188-.331.277.367-.295.715-.617 1.046-.957 3.237-3.37 3.121-7.77 3.112-7.957a2.147 2.147 0 00-2.218-2.066 2.152 2.152 0 00-2.065 2.218c0 .008.035 2.825-1.95 4.873-.214.223-.447.42-.688.617a32.857 32.857 0 01-2.477-3.13c-.957.706-2.173 1.154-3.711 1.154-4.703 0-7.841-3.908-9.549-6.868 2.897-2.128 5.106-5.686 5.106-10.112 0-3.657-2.817-5.651-5.625-6.733a15.646 15.646 0 00-5.561-1.037c-1.887 0-3.782.357-5.562 1.037-2.816 1.082-5.624 3.076-5.624 6.733 0 4.426 2.209 7.984 5.106 10.112-1.699 2.96-4.838 6.868-9.55 6.868-1.538 0-2.754-.448-3.711-1.154a34.342 34.342 0 01-2.476 3.13 5.702 5.702 0 01-.689-.617c-1.994-2.039-1.949-4.856-1.949-4.873a2.14 2.14 0 00-2.066-2.218 2.14 2.14 0 00-2.217 2.066c0 .187-.125 4.578 3.111 7.957.331.34.68.662 1.047.957-.108-.089-.224-.179-.331-.277a31.89 31.89 0 01-2.817 2.11c1.484 2.191 3.523 3.72 5.088 4.659.42 1.654.671 2.155 1.225 3.478v-.009z" fill="#fff"/><path fill-rule="evenodd" clip-rule="evenodd" d="M311.633 176.094c-1.565-.939-3.603-2.468-5.088-4.659a30.798 30.798 0 002.817-2.11c.492.429 1.019.805 1.592 1.144 0 1.467.134 3.47.679 5.625zm45.503-.054c.537-2.146.671-4.113.662-5.571a11.456 11.456 0 001.556-1.108c.876.733 1.797 1.43 2.781 2.083-1.458 2.155-3.452 3.666-4.999 4.605v-.009zm-7.126-7.976h-.08c-11.338 0-13.359-11.445-13.44-11.928a2.088 2.088 0 00-.348-.876l2.798-1.028s3.514 10.121 11.088 10.121c1.538 0 2.754-.447 3.72-1.153a33.28 33.28 0 002.512 3.156c-1.493 1.118-3.585 1.699-6.241 1.708h-.009zm-31.188 0h-.08c-2.683-.009-4.793-.599-6.286-1.744a32.878 32.878 0 002.477-3.129c.956.706 2.181 1.153 3.71 1.153 7.574 0 11.088-10.121 11.088-10.121l2.861 1.046a2.15 2.15 0 00-.34.849c-.08.492-2.101 11.937-13.439 11.937l.009.009z" fill="#fff"/><path fill-rule="evenodd" clip-rule="evenodd" d="M389.093 204.555c11.276-7.511 32.977-25.349 32.985-51.557 0-.581-.008-1.171-.035-1.761 3.192-6.662 4.631-13.502 5.052-18.563a86.515 86.515 0 011.412 7.1c.832 5.338 1.109 10.747.751 16.094-.384 5.338-1.448 10.614-3.317 15.594a48.925 48.925 0 01-7.922 13.743c-3.389 4.113-7.421 7.699-11.892 10.712-2.209 1.547-4.56 2.879-6.948 4.167-1.216.608-2.414 1.243-3.657 1.788-.617.277-1.234.572-1.86.841l-1.886.787c-.894.366-1.789.715-2.692 1.046l.009.009zm30.822-96.846c-2.728-1.243-7.145-3.004-12.939-4.479a3.957 3.957 0 01-.536-1.663c-.894-10.033-8.906-7.341-9.988-9.934-.957-2.29 2.182-4.856 2.182-4.856l1.913.868c.447-.054.868-.072 1.279-.072 8.852 0 9.773 11.213 9.773 11.213.322-.08.662-.108 1.001-.108 4.033 0 8.817 5.026 7.422 8.718-.036.108-.081.215-.116.313h.009z" fill="#BE6F00"/><path fill-rule="evenodd" clip-rule="evenodd" d="M272.22 5.508s-.027 0-.046.01c.019 0 .028 0 .046-.01z" fill="#A2A2D2"/><path fill-rule="evenodd" clip-rule="evenodd" d="M390.426 8.164c-11.115 26.68-30.366 47.863-30.366 47.863-2.977-1.046-6.312-1.833-9.576-2.414a91.475 91.475 0 00-32.279 0c-3.263.581-6.599 1.368-9.576 2.414 0 0-19.26-21.191-30.365-47.864-1.038-2.494-3.774-3.487-6.036-2.655.143-.045.286.054.429.402 10.328 24.804 27.808 49.295 32.476 54.713a2.784 2.784 0 002.95.84c2.781-.858 5.768-1.537 8.701-2.056 1.26-.223 2.521-.42 3.782-.599 1.484 2.343 7.09 4.095 13.77 4.095 6.679 0 12.285-1.743 13.778-4.095 1.261.179 2.531.376 3.783.6 2.933.527 5.928 1.197 8.7 2.056 1.064.33 2.217 0 2.95-.84 4.668-5.42 21.469-28.238 31.805-53.042.626-1.502 1.824-.116 3.175-.563-2.254-2.852-6.707-2.2-8.11 1.145h.009z" fill="#BE6F00"/><path fill-rule="evenodd" clip-rule="evenodd" d="M270.153 7.02c1.011.33 1.556-1.27 2.03-1.494-.76.286-1.457.787-2.03 1.493z" fill="#A2A2D2"/><path fill-rule="evenodd" clip-rule="evenodd" d="M357.646 167.984c-17.141 9.075-23.266-8.334-23.266-8.334s-6.125 17.409-23.274 8.334c0 0-3.532 22.443 23.274 22.443 26.807 0 23.266-22.443 23.266-22.443z" fill="#000"/><path fill-rule="evenodd" clip-rule="evenodd" d="M334.38 157.934s-.018.08-.035.125a.654.654 0 01-.036-.125h.071z" fill="#FF6C8B"/><path fill-rule="evenodd" clip-rule="evenodd" d="M334.38 208.551h-.036c-20.163 0-18.803-18.365-16.032-29.721 1.234-5.088 2.754-8.763 2.754-8.763s10.095-.679 13.278-12.008c3.184 11.329 13.279 12.008 13.279 12.008s15.898 38.449-13.243 38.476v.008z" fill="#F0F"/><path fill-rule="evenodd" clip-rule="evenodd" d="M334.416 208.551h-.072c-13.966 0-17.605-8.798-17.605-17.99 0 9.183 3.639 17.99 17.605 17.99h.036c16.613-.018 18.59-12.527 17.213-23.274.017-.018.044-.036.062-.054 1.386 10.765-.563 23.328-17.239 23.328z" fill="#7C7CB5"/><path fill-rule="evenodd" clip-rule="evenodd" d="M351.593 185.277a59.395 59.395 0 00-1.234-6.545.965.965 0 01.089.098 59.33 59.33 0 011.207 6.393c-.027.018-.044.036-.062.054z" fill="#000072"/><path fill-rule="evenodd" clip-rule="evenodd" d="M334.38 208.551h-.036c-13.966 0-17.605-8.798-17.605-17.99 0-4.077.715-8.235 1.573-11.731.206-.233.322-.358.322-.358s-1.743 21.898 15.737 21.898c17.481 0 15.737-21.898 15.737-21.898l.233.259a59.181 59.181 0 011.234 6.546c1.377 10.747-.599 23.256-17.213 23.274h.018z" fill="#9800CB"/><path fill-rule="evenodd" clip-rule="evenodd" d="M336.482 164.675c.107 2.298.098 4.596.08 6.903a199.598 199.598 0 01-.223 6.903c-.117 2.298-.224 4.596-.465 6.903-.242 2.298-.519 4.596-1.02 6.903a.523.523 0 01-.626.402.531.531 0 01-.402-.402c-.501-2.298-.778-4.596-1.019-6.903-.242-2.298-.349-4.605-.465-6.903a220.078 220.078 0 01-.224-6.903c-.027-2.298-.027-4.596.081-6.903a2.138 2.138 0 014.274 0h.009z" fill="#000"/><path fill-rule="evenodd" clip-rule="evenodd" d="M322.613 171.998c-1.6 4.355-6.876 20.414-1.171 28.935 2.432 3.63 6.769 5.472 12.894 5.472s10.47-1.842 12.902-5.472c5.705-8.521.429-24.58-1.171-28.935-2.602-.527-8.19-2.333-11.722-8.405-3.532 6.08-9.121 7.887-11.723 8.405h-.009zm11.723 38.69c-7.645 0-13.189-2.486-16.462-7.386-7.868-11.767.832-33.155 1.208-34.058a2.136 2.136 0 011.833-1.314c.339-.027 8.413-.769 11.248-10.05a2.123 2.123 0 011.574-2.012c.205-.054.411-.072.608-.081.196 0 .402.018.608.081a2.13 2.13 0 011.573 2.012c2.871 9.37 11.159 10.041 11.249 10.05.813.054 1.52.563 1.833 1.314.375.903 9.075 22.291 1.207 34.058-3.273 4.9-8.816 7.386-16.461 7.386h-.018z" fill="#000"/><path fill-rule="evenodd" clip-rule="evenodd" d="M349.929 172.347c-8.199 0-13.036-4.73-15.549-9.442-2.521 4.712-7.359 9.442-15.549 9.442h-.098c-4.355-.018-7.744-1.27-10.086-3.711-3.237-3.371-3.121-7.77-3.112-7.958a2.146 2.146 0 012.217-2.065 2.152 2.152 0 012.066 2.217c0 .009-.036 2.826 1.949 4.874 1.511 1.546 3.854 2.342 6.983 2.351h.081c11.338 0 13.359-11.445 13.439-11.937a2.14 2.14 0 012.11-1.797c1.055 0 1.941.76 2.11 1.797.081.483 2.102 11.928 13.439 11.928h.081c3.121-.018 5.472-.804 6.983-2.351 1.994-2.039 1.958-4.856 1.958-4.882-.026-1.172.904-2.164 2.075-2.191a2.139 2.139 0 012.199 2.056c0 .188.126 4.578-3.111 7.958-2.343 2.441-5.732 3.684-10.086 3.711h-.099z" fill="#000"/><path fill-rule="evenodd" clip-rule="evenodd" d="M339.968 140.641a15.733 15.733 0 00-11.248 0c-2.816 1.081-5.624 3.075-5.624 6.732 0 7.315 6.026 12.277 11.248 12.277 5.222 0 11.249-4.962 11.249-12.277 0-3.657-2.817-5.651-5.625-6.732z" fill="#000"/><path fill-rule="evenodd" clip-rule="evenodd" d="M340.917 144.62c0 .787-2.942 1.43-6.581 1.43-3.639 0-6.581-.634-6.581-1.43 0-.796 2.942-1.431 6.581-1.431 3.639 0 6.581.644 6.581 1.431z" fill="#fff"/><path fill-rule="evenodd" clip-rule="evenodd" d="M249.025 110.517a14.784 14.784 0 01-.313-2.146c.098.715.205 1.43.313 2.146z" fill="#FF7C88"/><path fill-rule="evenodd" clip-rule="evenodd" d="M268.115 87.609l.009.044c-.206-.035-.403-.062-.599-.089-1.172-.161-2.218-.152-3.139-.009-.456.063-.885.17-1.287.295a3.838 3.838 0 00-.304.099 8.222 8.222 0 00-.564.232c-.152.072-.304.152-.447.224a6.81 6.81 0 00-1.019.688c-.215.17-.42.358-.608.554a5.656 5.656 0 00-.537.608 4.709 4.709 0 00-.313.412 8.94 8.94 0 00-.304.465c-.277.456-.509.92-.715 1.394a4.69 4.69 0 00-.188.483 15.504 15.504 0 00-.59 2.066v.036l-.08.402v.036a14.5 14.5 0 00-.143.983l-.027.26-.027.313c-.072.912-.054 1.502-.054 1.502-3.952 0-6.125 1.511-7.278 3.451-1.207 2.039-1.305 4.551-1.171 6.313a76.15 76.15 0 01-.242-1.941 128.627 128.627 0 01-.769-9.245c-2.012-45.011 20.986-79.079 25.501-85.31.081-.1.143-.197.197-.278.233-.313.402-.536.483-.644.027-.035.036-.053.054-.062l.017-.018c-6.124 10.953-8.646 23.775-9.334 35.757-1.252 21.29 3.254 39.968 3.505 40.988l-.027-.01z" fill="#fff"/><path fill-rule="evenodd" clip-rule="evenodd" d="M268.115 87.609l.009.044a16.144 16.144 0 00-.599-.089c-1.171-.152-2.218-.152-3.139-.009a9.044 9.044 0 00-1.591.393c-.197.072-.376.153-.563.233-.152.072-.304.152-.448.224a6.81 6.81 0 00-1.019.688 5.21 5.21 0 00-.608.554 5.646 5.646 0 00-.536.608 4.333 4.333 0 00-.313.412 7.77 7.77 0 00-.304.465 9.736 9.736 0 00-.716 1.394 4.467 4.467 0 00-.187.483 12.945 12.945 0 00-.591 2.066v.036l-.08.402v.036c-.063.348-.107.67-.143.983l-.027.26-.027.313c-.071.912-.053 1.502-.053 1.502-3.827.393-6.045 1.77-7.279 3.451-1.001 1.368-1.359 2.951-1.421 4.373a128.13 128.13 0 01-.769-9.246c.992-1.198 2.262-1.976 3.263-2.459a2.91 2.91 0 001.645-2.548c.188-6.626 3.738-9.63 5.982-10.864 1.046-.581 1.646-1.744 1.467-2.924-5.571-37.384 9.531-61.401 13.135-66.516.08-.098.143-.197.196-.277.233-.313.403-.536.483-.644.027-.035.036-.053.054-.062l.018-.018c-5.678 12.527-8.343 24.812-9.335 35.757-2.092 22.98 3.21 40.058 3.505 40.988l-.009-.01z" fill="#fff"/><path fill-rule="evenodd" clip-rule="evenodd" d="M274.222 10.99c-1.654 4.443-2.978 8.976-4.149 13.528l-.841 3.424c-.241 1.154-.509 2.29-.742 3.443-.483 2.298-.858 4.613-1.198 6.93-.322 2.324-.608 4.649-.778 6.983-.045.58-.107 1.162-.152 1.752l-.107 1.753c-.09 1.162-.107 2.333-.152 3.505-.116 4.685.027 9.361.429 14.029.411 4.667 1.109 9.3 2.048 13.877.25 1.145.465 2.298.751 3.425l.849 3.406v.054c0-.054.063.179.072.295.018.143.027.286.018.438a2.312 2.312 0 01-.743 1.547 2.297 2.297 0 01-1.663.59c-.116 0-.357-.044-.304-.035h-.018l-.044-.01-.358-.053c-.241-.036-.492-.054-.742-.072a11.757 11.757 0 00-1.484 0c-.966.08-1.878.287-2.62.68-.76.376-1.332.912-1.806 1.583-.456.68-.778 1.547-.957 2.494-.179.957-.233 2.003-.188 3.067l.018.403v.152c0 .062.009.223 0 .34a2.487 2.487 0 01-1.761 2.244c-.224.08-.617.107-.546.098h-.089l-.358.045a9.727 9.727 0 00-1.44.295 8.564 8.564 0 00-2.521 1.153c-.724.501-1.332 1.1-1.788 1.887-.465.778-.76 1.735-.939 2.781-.179 1.055-.206 2.181-.215 3.371v.018a.71.71 0 01-.715.706.711.711 0 01-.635-.394 11.843 11.843 0 01-1.127-3.692c-.071-.671-.125-1.351-.053-2.057a8.86 8.86 0 01.143-1.064c.089-.349.17-.715.295-1.064.456-1.422 1.395-2.718 2.539-3.684 1.154-.975 2.495-1.591 3.836-1.994a13.277 13.277 0 012.575-.51l.134-.017c.143-.018-.178.009-.321.062a1.769 1.769 0 00-1.261 1.583v.223-.062l-.009-.125-.027-.492c-.072-1.306-.036-2.656.206-4.042.25-1.377.715-2.816 1.573-4.122.43-.652.948-1.26 1.547-1.78a8.724 8.724 0 011.958-1.287c1.386-.688 2.844-.983 4.248-1.082a14.705 14.705 0 012.083.01c.34.026.688.062 1.037.107.17.026.349.053.528.09h.062l.036.017c.072.018-.152-.027-.25-.027a2.055 2.055 0 00-1.458.51c-.384.34-.617.84-.652 1.35 0 .134 0 .25.009.376 0 .098.062.313.044.241v-.054l-.849-3.532c-.286-1.17-.492-2.37-.742-3.55a125.465 125.465 0 01-1.95-14.377 115.42 115.42 0 01-.223-14.503c.062-1.207.116-2.415.223-3.622l.152-1.806c.054-.599.126-1.198.188-1.797.259-2.405.635-4.793 1.046-7.171.886-4.748 2.012-9.451 3.586-14.02a69.187 69.187 0 012.7-6.706c1.02-2.182 2.137-4.32 3.514-6.322a.28.28 0 01.403-.072c.116.08.152.224.107.34v.018l.018-.027z" fill="#984200"/><path fill-rule="evenodd" clip-rule="evenodd" d="M419.655 110.517c.036-.152.224-.984.313-2.146-.098.715-.205 1.43-.313 2.146z" fill="#FF7C88"/><path fill-rule="evenodd" clip-rule="evenodd" d="M400.565 87.609l-.009.044c.206-.035.403-.062.599-.089 1.172-.161 2.218-.152 3.139-.009.456.063.885.17 1.287.295.099.027.206.063.304.099.197.071.385.151.564.232.152.072.304.152.447.224.366.205.706.429 1.019.688a7.18 7.18 0 011.154 1.162c.116.135.214.269.313.412.107.152.205.304.304.465.277.456.509.92.715 1.394.071.161.134.313.188.483.259.707.447 1.404.59 2.066v.036c.027.134.053.268.071.402v.036c.063.348.108.67.143.983 0 .09.018.17.027.26.009.107.009.214.027.313.081.912.054 1.502.054 1.502 3.952 0 6.125 1.511 7.278 3.451 1.207 2.039 1.305 4.551 1.171 6.313.09-.653.179-1.297.242-1.941.375-3.129.626-6.214.769-9.245 2.012-45.011-20.986-79.079-25.501-85.31a8.937 8.937 0 01-.197-.278c-.233-.313-.402-.536-.483-.644a.53.53 0 00-.054-.062l-.017-.018c6.124 10.953 8.646 23.775 9.334 35.757 1.252 21.29-3.254 39.968-3.505 40.988l.027-.01z" fill="#fff"/><path fill-rule="evenodd" clip-rule="evenodd" d="M400.565 87.609l-.009.044c.206-.035.403-.062.599-.089 1.172-.152 2.218-.152 3.139-.009a9.044 9.044 0 011.591.393c.197.072.376.153.564.233.152.072.295.152.447.224.366.205.706.429 1.019.688.224.17.429.358.617.554.197.197.367.394.536.608.117.135.215.269.313.412.108.152.206.304.304.465.278.447.519.92.716 1.394.071.161.134.313.187.483.269.698.456 1.404.591 2.066v.036c.026.134.053.268.071.402v.036c.072.348.116.67.143.983 0 .09.018.17.027.26l.027.313c.08.912.054 1.502.054 1.502 3.835.393 6.044 1.77 7.278 3.451 1.001 1.368 1.35 2.951 1.413 4.373.375-3.13.626-6.215.769-9.246-1.002-1.198-2.263-1.976-3.273-2.459a2.913 2.913 0 01-1.645-2.548c-.188-6.626-3.738-9.63-5.982-10.864-1.046-.581-1.645-1.744-1.466-2.924 5.57-37.384-9.532-61.401-13.144-66.516a7.512 7.512 0 01-.197-.277c-.233-.313-.403-.536-.483-.644a.53.53 0 00-.054-.062l-.018-.018c5.678 12.527 8.343 24.812 9.335 35.757 2.093 22.98-3.21 40.058-3.505 40.988l.036-.01z" fill="#E5E5E5"/><path fill-rule="evenodd" clip-rule="evenodd" d="M360.06 212.664c1.359-.357 2.709-.67 4.069-.983 1.35-.304 2.691-.671 4.05-.966 1.35-.313 2.683-.688 4.024-1.01 1.341-.322 2.664-.724 3.997-1.064 5.302-1.467 10.542-3.076 15.594-5.133l1.886-.786c.626-.269 1.234-.564 1.86-.841 1.243-.545 2.441-1.18 3.657-1.788 2.387-1.279 4.739-2.62 6.948-4.167 4.47-3.013 8.503-6.599 11.892-10.712a48.925 48.925 0 007.922-13.743c1.86-4.98 2.933-10.256 3.317-15.594.358-5.347.081-10.757-.751-16.095a83.02 83.02 0 00-1.618-7.949 84.713 84.713 0 00-1.717-5.82 45.578 45.578 0 00-.671-1.833l-.017-.045a2.096 2.096 0 01-.144-1.011c1.565-15.549 1.521-31.268-.536-46.728-2.065-15.442-6.188-30.633-12.76-44.725-3.29-7.028-7.144-13.806-11.704-20.047-.563-.787-1.153-1.547-1.735-2.316l-.447-.572-.223-.286-.107-.134-.072-.072c-.098-.098-.179-.214-.295-.286l-.152-.134c-.063-.036-.116-.063-.17-.098a2.413 2.413 0 00-1.538-.35c-.277 0-.536.1-.796.189-.241.125-.491.241-.679.429-.215.16-.376.384-.528.608-.08.116-.125.25-.197.366l-.295.671-1.207 2.754c-.778 1.85-1.708 3.621-2.566 5.427-3.55 7.172-7.672 14.02-12.125 20.629-1.099 1.663-2.271 3.272-3.406 4.908-1.181 1.6-2.343 3.22-3.559 4.802-.599.796-1.216 1.583-1.833 2.37a92.367 92.367 0 01-1.869 2.333 121.216 121.216 0 01-3.898 4.605 2.112 2.112 0 01-2.262.59h-.027c-3.899-1.359-8.101-2.217-12.304-2.825-4.202-.617-8.458-.903-12.706-.912a90.118 90.118 0 00-12.705.912c-4.203.608-8.397 1.457-12.304 2.807h-.027a2.083 2.083 0 01-2.262-.58 129.09 129.09 0 01-3.898-4.606 111.871 111.871 0 01-1.869-2.334c-.617-.786-1.234-1.564-1.833-2.36-1.216-1.583-2.388-3.192-3.568-4.802-1.144-1.636-2.316-3.245-3.407-4.908-4.452-6.608-8.575-13.457-12.124-20.628-.859-1.807-1.789-3.577-2.566-5.428l-1.208-2.754-.295-.67c-.071-.117-.116-.26-.196-.367-.152-.224-.313-.447-.528-.608-.197-.188-.438-.304-.679-.43-.26-.08-.519-.178-.796-.187a2.47 2.47 0 00-1.538.349 1.663 1.663 0 01-.17.098l-.152.134c-.116.072-.197.188-.295.286l-.072.072-.107.134-.224.286-.447.572a75.02 75.02 0 00-1.734 2.316c-4.56 6.241-8.414 13.019-11.705 20.047-6.572 14.083-10.694 29.283-12.759 44.716-2.057 15.46-2.101 31.17-.537 46.728.027.367-.026.707-.152 1.029v.027a32.765 32.765 0 00-.688 1.833 59.222 59.222 0 00-.626 1.922 84.967 84.967 0 00-1.091 3.898 83.054 83.054 0 00-1.618 7.941c-.832 5.338-1.109 10.747-.751 16.094.384 5.338 1.448 10.614 3.317 15.594a48.925 48.925 0 007.922 13.743c3.389 4.113 7.43 7.699 11.892 10.712 2.209 1.538 4.569 2.879 6.948 4.158 1.216.608 2.414 1.243 3.657 1.788.617.277 1.234.573 1.86.841l1.886.778c5.052 2.047 10.292 3.684 15.594 5.141 5.303 1.484 10.703 2.682 16.131 3.979.134.036.223.17.187.304a.258.258 0 01-.25.197c-5.597-.054-11.186-.662-16.72-1.663-1.386-.242-2.754-.564-4.131-.859-1.377-.304-2.737-.688-4.105-1.028-1.35-.402-2.709-.796-4.05-1.234l-2.003-.697-1.001-.349-.993-.385-1.985-.769c-.662-.259-1.305-.554-1.958-.831-1.315-.537-2.593-1.172-3.872-1.78-2.539-1.287-5.061-2.637-7.448-4.22-4.819-3.094-9.237-6.903-12.992-11.311-3.755-4.408-6.751-9.505-8.825-14.914a55.61 55.61 0 01-2.477-8.325 62.978 62.978 0 01-1.198-8.566c-.412-5.749-.054-11.507.867-17.141a81.706 81.706 0 011.824-8.369 67.821 67.821 0 011.243-4.104c.224-.68.465-1.359.715-2.03.26-.688.501-1.323.814-2.056l-.161 1.055c-1.592-15.836-1.556-31.886.554-47.72 2.12-15.818 6.34-31.43 13.118-45.96 3.397-7.26 7.376-14.262 12.124-20.762a94.076 94.076 0 011.815-2.415l.465-.599.233-.295.125-.152.179-.196c.241-.26.474-.528.76-.751l.42-.34.456-.295c.608-.385 1.297-.635 1.994-.814.706-.143 1.422-.215 2.128-.134.715.045 1.404.241 2.066.5.652.296 1.278.644 1.815 1.127.554.456 1.01 1.029 1.395 1.628.196.304.33.625.491.938l.304.68 1.172 2.665c.751 1.788 1.654 3.514 2.486 5.275 3.451 6.974 7.475 13.672 11.838 20.136 1.073 1.628 2.226 3.21 3.335 4.81 1.154 1.575 2.298 3.157 3.487 4.704.591.778 1.19 1.547 1.789 2.316.599.769 1.207 1.529 1.824 2.28a124.633 124.633 0 003.746 4.426l-2.298-.581c4.328-1.493 8.709-2.37 13.109-3.014a93.443 93.443 0 0113.313-.956c4.453.018 8.906.313 13.314.956 4.399.635 8.781 1.52 13.108 3.014l-2.297.581a134.467 134.467 0 003.746-4.426c.617-.751 1.225-1.511 1.824-2.28a106.43 106.43 0 001.788-2.316c1.19-1.547 2.334-3.13 3.488-4.703 1.117-1.6 2.271-3.183 3.344-4.81 4.363-6.465 8.387-13.171 11.838-20.146.832-1.752 1.744-3.478 2.486-5.266l1.171-2.665.304-.68c.161-.313.295-.643.492-.938.385-.6.841-1.172 1.395-1.628.536-.483 1.171-.831 1.815-1.126.662-.26 1.359-.456 2.066-.501.706-.08 1.43 0 2.128.134.697.179 1.386.43 1.994.814l.456.286.42.34c.286.223.518.482.76.75l.179.197.125.152.232.295.465.6a94.09 94.09 0 011.815 2.414c4.748 6.51 8.727 13.51 12.125 20.762 6.778 14.53 11.007 30.142 13.126 45.96 2.101 15.835 2.146 31.885.555 47.72l-.161-1.055c.313.733.554 1.377.813 2.065.251.671.492 1.35.716 2.03a82.689 82.689 0 011.242 4.104 83.179 83.179 0 011.825 8.36c.921 5.634 1.269 11.401.867 17.141a63.135 63.135 0 01-1.198 8.566 55.61 55.61 0 01-2.477 8.325c-2.083 5.418-5.07 10.506-8.825 14.914-3.756 4.408-8.173 8.217-12.992 11.311-2.397 1.583-4.918 2.933-7.458 4.221-1.287.608-2.566 1.242-3.88 1.779-.653.277-1.297.572-1.958.831l-1.985.769-.993.385-1.001.349-2.003.688c-1.341.438-2.701.832-4.051 1.234-1.368.358-2.727.724-4.095 1.037-1.377.286-2.745.617-4.131.85l-2.074.357c-.698.117-1.386.242-2.084.322-1.395.179-2.78.367-4.175.492-1.395.134-2.79.241-4.185.331a131.03 131.03 0 01-4.202.116.217.217 0 01-.215-.215c0-.098.063-.187.161-.205l-.045.053z" fill="#000"/><path fill-rule="evenodd" clip-rule="evenodd" d="M264.315 84.086c33.101 7.815 55.33 22.273 55.33 38.824 0 6.125-3.049 11.972-8.575 17.293 14.136-8.951 29.793-8.593 46.791 0-5.517-5.33-8.575-11.168-8.575-17.293 0-16.354 21.719-30.678 54.194-38.556a85.64 85.64 0 00-6.822-6.232H270.69a84.143 84.143 0 00-6.375 5.955v.009z" fill="#9355F7"/><path fill-rule="evenodd" clip-rule="evenodd" d="M283.405 81.189c24.848 0 45.003 20.145 45.003 45.002 0 24.858-20.146 45.003-45.003 45.003-23.096 0-42.132-17.409-44.698-39.816l-4.239-.492a1.596 1.596 0 01-1.395-1.762l2.316-19.832a1.596 1.596 0 011.762-1.395l4.891.572c6.885-16.032 22.809-27.271 41.372-27.271l-.009-.009zm101.915 0c-24.848 0-45.003 20.145-45.003 45.002 0 24.858 20.146 45.003 45.003 45.003 23.096 0 42.132-17.409 44.698-39.816l4.239-.492a1.596 1.596 0 001.395-1.762l-2.316-19.832a1.596 1.596 0 00-1.762-1.395l-4.891.572c-6.885-16.032-22.809-27.271-41.372-27.271l.009-.009z" fill="#000"/><path fill-rule="evenodd" clip-rule="evenodd" d="M380.858 81.403h-92.991c22.756 2.236 40.54 21.433 40.54 44.779a44.876 44.876 0 01-3.442 17.293c5.678-8.95 11.972-8.593 18.813 0a44.892 44.892 0 01-3.443-17.293c0-23.346 17.785-42.543 40.541-44.779h-.018z" fill="#000"/><path d="M301.82 161.105c20.766-8.695 30.552-32.579 21.857-53.345-8.696-20.767-32.579-30.552-53.346-21.857-20.766 8.695-30.552 32.579-21.857 53.346 8.696 20.766 32.579 30.552 53.346 21.856z" fill="#333"/><path fill-rule="evenodd" clip-rule="evenodd" d="M382.62 82.718c-22.515 0-40.764 18.249-40.764 40.764 0 22.515 18.249 40.764 40.764 40.764 22.514 0 40.764-18.249 40.764-40.764 0-22.515-18.25-40.764-40.764-40.764z" fill="#333"/><path fill-rule="evenodd" clip-rule="evenodd" d="M287.858 81.403h43.75v13.404h-15.96c-7.207-7.404-16.927-12.33-27.79-13.404z" fill="#4D4D4D"/><path fill-rule="evenodd" clip-rule="evenodd" d="M292.069 86.804h34.219v2.602h-27.504a90.25 90.25 0 00-6.715-2.602z" fill="#fff"/><path d="M319.962 126.904c3.006-18.458-9.52-35.858-27.978-38.864-18.458-3.006-35.858 9.52-38.864 27.978-3.006 18.458 9.52 35.858 27.978 38.864 18.458 3.006 35.858-9.52 38.864-27.978zm93.427 7.771c7.241-17.242-.867-37.09-18.109-44.331-17.243-7.241-37.091.867-44.332 18.109-7.241 17.243.867 37.09 18.11 44.331 17.242 7.241 37.09-.867 44.331-18.109z" fill="#666"/><path fill-rule="evenodd" clip-rule="evenodd" d="M288.332 88.709c17.131 0 31.018 13.886 31.018 31.018 0 17.131-13.887 31.018-31.018 31.018-17.132 0-31.018-13.887-31.018-31.018 0-17.132 13.886-31.019 31.018-31.019zm92.052 0c-17.132 0-31.018 13.886-31.018 31.018 0 17.131 13.886 31.018 31.018 31.018s31.018-13.887 31.018-31.018c0-17.132-13.886-31.019-31.018-31.019z" fill="#1A1A1A"/><path fill-rule="evenodd" clip-rule="evenodd" d="M380.214 92.07c-15.182 0-27.486 12.304-27.486 27.487 0 15.182 12.304 27.486 27.486 27.486 15.183 0 27.486-12.304 27.486-27.486 0-15.183-12.303-27.486-27.486-27.486z" fill="url(#paint2_linear_60_79)"/><path fill-rule="evenodd" clip-rule="evenodd" d="M288.502 92.07c-15.183 0-27.487 12.304-27.487 27.487 0 15.182 12.304 27.486 27.487 27.486 15.182 0 27.486-12.304 27.486-27.486 0-15.183-12.304-27.486-27.486-27.486z" fill="url(#paint3_linear_60_79)"/><path fill-rule="evenodd" clip-rule="evenodd" d="M262.446 144.101a4.954 4.954 0 110 9.908 4.954 4.954 0 010-9.908z" fill="#1A1A1A"/><path fill-rule="evenodd" clip-rule="evenodd" d="M262.446 144.995a4.072 4.072 0 014.068 4.069 4.071 4.071 0 01-4.068 4.068 4.071 4.071 0 01-4.068-4.068 4.072 4.072 0 014.068-4.069z" fill="#fff"/><path fill-rule="evenodd" clip-rule="evenodd" d="M252.101 150.7l20.342 14.423c.688.491.849 1.448.348 2.128l-2.655 3.684a1.56 1.56 0 01-2.146.357l-20.342-14.422a1.513 1.513 0 01-.349-2.128l2.656-3.684a1.559 1.559 0 012.146-.358z" fill="#333"/><path fill-rule="evenodd" clip-rule="evenodd" d="M253.549 153.302l15.934 11.302c.536.384.662 1.135.277 1.663l-1.547 2.137a1.212 1.212 0 01-1.681.277l-15.943-11.302a1.202 1.202 0 01-.277-1.672l1.547-2.137a1.21 1.21 0 011.681-.277l.009.009z" fill="#000"/><path fill-rule="evenodd" clip-rule="evenodd" d="M380.858 81.403h-43.75v13.404h15.96c7.198-7.404 16.926-12.33 27.79-13.404z" fill="#4D4D4D"/><path fill-rule="evenodd" clip-rule="evenodd" d="M376.647 86.804h-34.22v2.602h27.505a90.08 90.08 0 016.715-2.602z" fill="#fff"/><path fill-rule="evenodd" clip-rule="evenodd" d="M406.27 144.101a4.954 4.954 0 100 9.908 4.954 4.954 0 000-9.908z" fill="#1A1A1A"/><path fill-rule="evenodd" clip-rule="evenodd" d="M406.27 144.995a4.073 4.073 0 00-4.069 4.069 4.072 4.072 0 004.069 4.068 4.071 4.071 0 004.068-4.068 4.072 4.072 0 00-4.068-4.069z" fill="#fff"/><path fill-rule="evenodd" clip-rule="evenodd" d="M416.615 150.7l-20.342 14.423a1.514 1.514 0 00-.349 2.128l2.656 3.684a1.56 1.56 0 002.146.357l20.342-14.422a1.513 1.513 0 00.348-2.128l-2.655-3.684a1.559 1.559 0 00-2.146-.358z" fill="#333"/><path fill-rule="evenodd" clip-rule="evenodd" d="M415.167 153.302l-15.934 11.302a1.19 1.19 0 00-.277 1.663l1.547 2.137a1.212 1.212 0 001.681.277l15.933-11.302a1.201 1.201 0 00.278-1.672l-1.547-2.137a1.21 1.21 0 00-1.681-.277v.009zm-41.578-67.213a1.835 1.835 0 00-1.833 1.833c0 1.01.822 1.833 1.833 1.833 1.01 0 1.833-.823 1.833-1.833s-.823-1.833-1.833-1.833zm-78.158 0c-1.01 0-1.833.822-1.833 1.833 0 1.01.823 1.833 1.833 1.833a1.835 1.835 0 001.833-1.833c0-1.01-.822-1.833-1.833-1.833z" fill="#000"/><path fill-rule="evenodd" clip-rule="evenodd" d="M296.486 93.25l-20.145 50.967A27.578 27.578 0 01266.47 136l17.194-43.5a27.81 27.81 0 014.838-.43c2.771 0 5.454.412 7.975 1.18h.009zm8.629 4.41l-19.457 49.24a27.04 27.04 0 01-6.035-1.323l20.19-51.083a27.614 27.614 0 015.311 3.165h-.009zm83.191-4.382l-20.154 50.984a27.63 27.63 0 01-9.889-8.155l17.248-43.634a28.054 28.054 0 014.703-.402c2.817 0 5.535.429 8.092 1.216v-.01zm8.62 4.452l-19.439 49.179a27.14 27.14 0 01-6.044-1.297l20.181-51.073a27.591 27.591 0 015.293 3.192h.009z" fill="#fff"/><path fill-rule="evenodd" clip-rule="evenodd" d="M360.597 58.111c6.956 10.104 18.875 15.809 30.589 20.02h5.472a75.916 75.916 0 013.496 3.022s6.42-24.41 2.119-43.786C397.963 18 393.457 7.76 393.457 7.76a1.68 1.68 0 00-.322.242c-.215.16-.376.384-.528.608-.08.116-.125.25-.196.366l-.295.671-1.207 2.754c-.778 1.851-1.708 3.621-2.567 5.428-3.549 7.17-7.671 14.02-12.124 20.628-1.1 1.663-2.271 3.272-3.407 4.909-1.18 1.6-2.343 3.218-3.559 4.792-.599.796-1.216 1.583-1.833 2.37a92.362 92.362 0 01-1.869 2.333 120.301 120.301 0 01-3.898 4.605 2.069 2.069 0 01-1.046.635l-.009.009z" fill="#333"/><path fill-rule="evenodd" clip-rule="evenodd" d="M401.218 76.396c1.618-8.047 4.202-24.884 1.055-39.039-2.37-10.658-4.802-18.553-6.509-23.498-.367.742-.734 1.484-1.082 2.227-3.55 7.17-7.672 14.02-12.125 20.628-1.1 1.663-2.271 3.272-3.407 4.908-12.75 15.442-4.667 22.783 22.077 34.765l-.009.009z" fill="url(#paint4_linear_60_79)"/><path fill-rule="evenodd" clip-rule="evenodd" d="M394.968 10.712c1.377 2.003 2.495 4.14 3.514 6.322a71.08 71.08 0 012.7 6.706c1.583 4.56 2.7 9.272 3.586 14.02.411 2.379.787 4.766 1.046 7.171.062.6.134 1.198.188 1.797l.152 1.807c.116 1.207.161 2.414.232 3.62a112.16 112.16 0 01-.223 14.504c-.367 4.82-1.029 9.63-1.95 14.378-.25 1.18-.456 2.378-.742 3.55l-.089.375c-.286-.125-.573-.25-.868-.366.322-.08.635-.161.957-.242a79.715 79.715 0 00-3.55-3.406l.161-.734a123.21 123.21 0 002.048-13.877c.411-4.658.554-9.344.438-14.03-.045-1.17-.063-2.342-.152-3.504l-.107-1.753c-.036-.59-.099-1.162-.152-1.752-.17-2.343-.465-4.668-.778-6.984-.34-2.315-.715-4.631-1.198-6.93-.224-1.153-.492-2.288-.742-3.442l-.841-3.424c-1.171-4.552-2.495-9.085-4.149-13.529v-.018c-.062-.152.018-.313.17-.375a.293.293 0 01.34.107l.009.01zm-2.146 49.366a4.804 4.804 0 004.792-4.793 4.804 4.804 0 00-4.792-4.792 4.805 4.805 0 00-4.793 4.792 4.805 4.805 0 004.793 4.793z" fill="#666"/><path fill-rule="evenodd" clip-rule="evenodd" d="M392.822 58.638a3.37 3.37 0 003.362-3.362 3.362 3.362 0 00-3.362-3.353 3.36 3.36 0 00-3.353 3.353c0 1.842 1.511 3.362 3.353 3.362z" fill="#fff"/><path fill-rule="evenodd" clip-rule="evenodd" d="M394.253 44.278a3.015 3.015 0 000-6.026 3.015 3.015 0 00-3.014 3.013 3.015 3.015 0 003.014 3.013z" fill="#666"/><path fill-rule="evenodd" clip-rule="evenodd" d="M394.252 43.375a2.114 2.114 0 002.111-2.11c0-1.162-.948-2.11-2.111-2.11-1.162 0-2.11.948-2.11 2.11s.948 2.11 2.11 2.11z" fill="#fff"/><path fill-rule="evenodd" clip-rule="evenodd" d="M394.985 30.616a2.133 2.133 0 002.129-2.128 2.134 2.134 0 00-2.129-2.129 2.133 2.133 0 00-2.128 2.128c0 1.172.957 2.129 2.128 2.129z" fill="#666"/><path fill-rule="evenodd" clip-rule="evenodd" d="M394.986 29.972c.823 0 1.493-.67 1.493-1.493 0-.823-.67-1.493-1.493-1.493-.823 0-1.493.67-1.493 1.493 0 .822.67 1.493 1.493 1.493z" fill="#fff"/><path fill-rule="evenodd" clip-rule="evenodd" d="M308.083 58.111c-6.956 10.104-18.875 15.809-30.588 20.02h-5.473a75.916 75.916 0 00-3.496 3.022s-6.42-24.41-2.119-43.786C270.717 18 275.223 7.76 275.223 7.76c.117.072.224.143.322.242.215.16.376.384.528.608.08.116.125.25.197.366l.295.671 1.207 2.754c.778 1.851 1.708 3.621 2.566 5.428 3.55 7.17 7.672 14.02 12.125 20.628 1.099 1.663 2.271 3.272 3.406 4.909 1.181 1.6 2.343 3.218 3.559 4.792.599.796 1.216 1.583 1.833 2.37a92.362 92.362 0 001.869 2.333 121.218 121.218 0 003.898 4.605c.286.322.653.537 1.046.635l.009.009z" fill="#333"/><path fill-rule="evenodd" clip-rule="evenodd" d="M267.9 76.396c-1.618-8.047-4.193-24.884-1.055-39.039 2.37-10.658 4.802-18.553 6.509-23.498.367.742.734 1.484 1.082 2.227 3.55 7.17 7.672 14.02 12.125 20.628 1.1 1.663 2.271 3.272 3.407 4.908 12.75 15.442 4.667 22.783-22.077 34.765l.009.009z" fill="url(#paint5_linear_60_79)"/><path fill-rule="evenodd" clip-rule="evenodd" d="M273.712 10.712c-1.377 2.003-2.495 4.14-3.514 6.322a71.08 71.08 0 00-2.7 6.706c-1.583 4.56-2.701 9.272-3.586 14.02-.411 2.378-.787 4.766-1.046 7.171-.062.6-.134 1.198-.188 1.797l-.152 1.806c-.116 1.208-.161 2.415-.232 3.622a112.16 112.16 0 00.223 14.503c.367 4.82 1.029 9.63 1.95 14.378.25 1.18.456 2.378.742 3.55l.089.384c.286-.125.689-.295.975-.42-.322-.08-.707-.17-1.028-.25a88.581 88.581 0 013.496-3.363c-.054-.241-.108-.491-.161-.733a123.207 123.207 0 01-2.048-13.877 122.485 122.485 0 01-.429-14.03c.045-1.17.063-2.342.152-3.504l.107-1.753c.036-.59.099-1.162.152-1.752.17-2.343.465-4.668.778-6.984.34-2.315.715-4.631 1.198-6.93.224-1.153.492-2.288.742-3.442l.841-3.424c1.171-4.552 2.495-9.085 4.149-13.529v-.018c.062-.152-.018-.313-.17-.375a.293.293 0 00-.34.107v.018zm2.146 49.366a4.805 4.805 0 004.793-4.793 4.805 4.805 0 00-4.793-4.792 4.805 4.805 0 00-4.793 4.792 4.805 4.805 0 004.793 4.793z" fill="#666"/><path fill-rule="evenodd" clip-rule="evenodd" d="M275.858 58.638a3.362 3.362 0 003.353-3.362 3.36 3.36 0 00-3.353-3.353c-1.842 0-3.362 1.511-3.362 3.353a3.375 3.375 0 003.362 3.362z" fill="#fff"/><path fill-rule="evenodd" clip-rule="evenodd" d="M274.437 44.278a3.015 3.015 0 000-6.026 3.015 3.015 0 00-3.014 3.013 3.015 3.015 0 003.014 3.013z" fill="#666"/><path fill-rule="evenodd" clip-rule="evenodd" d="M274.436 43.375a2.114 2.114 0 002.111-2.11c0-1.162-.948-2.11-2.111-2.11-1.162 0-2.11.948-2.11 2.11s.948 2.11 2.11 2.11z" fill="#fff"/><path fill-rule="evenodd" clip-rule="evenodd" d="M273.703 30.616a2.133 2.133 0 002.129-2.128 2.134 2.134 0 00-2.129-2.129 2.133 2.133 0 00-2.128 2.128c0 1.172.957 2.129 2.128 2.129z" fill="#666"/><path fill-rule="evenodd" clip-rule="evenodd" d="M273.703 29.972c.823 0 1.494-.67 1.494-1.493 0-.823-.671-1.493-1.494-1.493-.822 0-1.493.67-1.493 1.493 0 .822.671 1.493 1.493 1.493zm60.642 208.256c7.341 0 13.331-5.991 13.331-13.332 0-7.341-5.99-13.331-13.331-13.331-7.341 0-13.332 5.99-13.332 13.331 0 7.341 5.991 13.332 13.332 13.332z" fill="#fff"/><path fill-rule="evenodd" clip-rule="evenodd" d="M334.344 235.93c6.072 0 11.025-4.953 11.025-11.025 0-6.071-4.953-11.025-11.025-11.025-6.071 0-11.025 4.954-11.025 11.025 0 6.072 4.954 11.025 11.025 11.025z" fill="#989898"/><path fill-rule="evenodd" clip-rule="evenodd" d="M334.345 232.344c4.095 0 7.439-3.344 7.439-7.439 0-4.095-3.344-7.439-7.439-7.439-4.096 0-7.44 3.344-7.44 7.439 0 4.095 3.344 7.439 7.44 7.439z" fill="#000"/><path fill-rule="evenodd" clip-rule="evenodd" d="M316.864 308.294a1.909 1.909 0 00-.921 1.439c-.536 5.285-.492 10.516-.259 15.746.125 2.611.304 5.213.509 7.815.206 2.602.376 5.213.635 7.806a421.071 421.071 0 001.654 15.603l.09.724-.197-.125c-7.538-4.605-20.413-7.573-33.978-2.083-3.934 1.591-7.367 3.576-10.175 5.848l-.34-1.1a419.954 419.954 0 01-4.694-16.757c-2.879-11.239-5.284-22.595-7.073-34.031-1.77-11.427-2.915-22.944-3.076-34.443-.044-5.74.081-11.48.617-17.158.537-5.678 1.386-11.302 2.638-16.819v-.054a3.763 3.763 0 00-1.806-4.131l4.229-14.905c8.459 8.798 27.594 16.613 69.735 16.792l.089 4.676c-6.983.707-25.724 4.444-27.772 24.294-1.422 13.725 4.668 26.735 10.095 40.827v.036z" fill="url(#paint6_linear_60_79)"/><path fill-rule="evenodd" clip-rule="evenodd" d="M286.4 233.167c-9.907 41.31-2.512 73.741 6.179 111.76.581 2.53 1.162 5.097 1.743 7.672a40.584 40.584 0 00-8.664 2.146c-.599-2.647-1.189-5.249-1.779-7.833-9.004-39.423-16.676-73.007-5.955-116.686 2.503 1.055 5.311 2.038 8.476 2.932v.009z" fill="#CBCBCB"/><path fill-rule="evenodd" clip-rule="evenodd" d="M294.242 235.054c-9.076 40.559-1.744 72.668 6.822 110.168.537 2.37 1.091 4.757 1.637 7.162a41.695 41.695 0 00-3.693-.134c-.474-2.101-.948-4.175-1.422-6.241-8.664-37.948-16.086-70.432-6.831-111.733 1.126.268 2.289.519 3.487.76v.018z" fill="#CBCBCB"/><path fill-rule="evenodd" clip-rule="evenodd" d="M309.362 349.433a4.804 4.804 0 004.793-4.792 4.805 4.805 0 00-4.793-4.793 4.805 4.805 0 00-4.793 4.793 4.804 4.804 0 004.793 4.792z" fill="#000"/><path fill-rule="evenodd" clip-rule="evenodd" d="M309.362 347.994a3.36 3.36 0 003.353-3.353 3.366 3.366 0 00-3.353-3.353c-1.842 0-3.362 1.511-3.362 3.353a3.368 3.368 0 003.362 3.353z" fill="#fff"/><path fill-rule="evenodd" clip-rule="evenodd" d="M305.947 330.764a4.804 4.804 0 004.792-4.793 4.804 4.804 0 00-4.792-4.792 4.804 4.804 0 00-4.793 4.792 4.805 4.805 0 004.793 4.793z" fill="#000"/><path fill-rule="evenodd" clip-rule="evenodd" d="M305.946 329.324a3.363 3.363 0 003.354-3.362 3.36 3.36 0 00-3.354-3.353c-1.841 0-3.361 1.511-3.361 3.353a3.375 3.375 0 003.361 3.362z" fill="#fff"/><path fill-rule="evenodd" clip-rule="evenodd" d="M302.432 308.124a4.152 4.152 0 004.149-4.149 4.152 4.152 0 00-4.149-4.149 4.152 4.152 0 00-4.149 4.149 4.152 4.152 0 004.149 4.149z" fill="#000"/><path fill-rule="evenodd" clip-rule="evenodd" d="M302.432 306.881a2.912 2.912 0 002.906-2.906 2.911 2.911 0 00-2.906-2.906 2.912 2.912 0 00-2.906 2.906c0 1.6 1.306 2.906 2.906 2.906z" fill="#fff"/><path fill-rule="evenodd" clip-rule="evenodd" d="M298.408 284.304a3.04 3.04 0 003.032-3.031 3.035 3.035 0 00-3.032-3.032 3.034 3.034 0 00-3.031 3.032 3.034 3.034 0 003.031 3.031z" fill="#000"/><path fill-rule="evenodd" clip-rule="evenodd" d="M298.408 283.392c1.172 0 2.12-.957 2.12-2.119a2.13 2.13 0 00-2.12-2.12 2.13 2.13 0 00-2.119 2.12 2.13 2.13 0 002.119 2.119z" fill="#fff"/><path fill-rule="evenodd" clip-rule="evenodd" d="M300.608 263.765a2.142 2.142 0 002.137-2.137 2.148 2.148 0 00-2.137-2.137 2.149 2.149 0 00-2.137 2.137c0 1.171.966 2.137 2.137 2.137z" fill="#000"/><path fill-rule="evenodd" clip-rule="evenodd" d="M300.608 263.13c.823 0 1.503-.67 1.503-1.502a1.5 1.5 0 00-1.503-1.502 1.5 1.5 0 00-1.502 1.502 1.5 1.5 0 001.502 1.502z" fill="#fff"/><path fill-rule="evenodd" clip-rule="evenodd" d="M449.252 307.668c.447.349-10.167-23.302-9.711-22.989 6.778 4.578 15.308 5.624 20.744 2.799 4.856-2.522 4.936-7.591 5.008-11.293.08-4.623.411-6.635 3.406-7.994 1.145-.518 2.155-.545 3.085-.08 1.485.742 2.683 2.673 3.219 5.159 2.155 9.934-4.953 22.318-17.284 30.106a49.897 49.897 0 01-8.467 4.292zm2.092-5.115a46.452 46.452 0 004.319-2.423c5.096-3.219 9.782-7.654 12.795-12.911 2.217-3.872 3.755-8.656 2.79-13.135-.116-.537-.519-1.824-1.002-2.37-.304.134-.617.268-.733.599-.349.939-.349 2.933-.367 3.943-.107 6.072-1.108 11.535-7.072 14.638-4.596 2.387-10.122 2.476-15.281 1.162.492 1.118.974 2.244 1.466 3.362 1.037 2.378 2.075 4.748 3.094 7.126l-.009.009z" fill="#9968FD"/><path fill-rule="evenodd" clip-rule="evenodd" d="M439.702 352.688c5.32-10.712 8.003-23.766 6.831-35.864-1.099-11.338-5.901-26.762-22.514-35.82a3.706 3.706 0 01-1.082-.885c-.394 10.157-1.476 20.243-3.022 30.231-1.825 11.713-4.283 23.302-7.225 34.747-.304 1.189-.617 2.378-.93 3.567 7.591-1.359 15.916-.617 23.892 2.316 1.421.519 2.771 1.1 4.05 1.717v-.009z" fill="url(#paint7_linear_60_79)"/><path fill-rule="evenodd" clip-rule="evenodd" d="M427.882 283.365c8.807 23.668 4.086 43.089-2.066 65.112a48.33 48.33 0 018.575 2.047c5.114-18.258 9.38-34.746 6.259-53.273-2.843-5.061-6.93-9.907-12.768-13.895v.009z" fill="#CBCBCB"/><path fill-rule="evenodd" clip-rule="evenodd" d="M422.177 291.922c4.828 19.796.661 37.008-4.668 56.116a50.674 50.674 0 013.657 0c6.134-22.049 10.65-41.649 1.672-65.693a227.393 227.393 0 01-.661 9.568v.009z" fill="#CBCBCB"/><path fill-rule="evenodd" clip-rule="evenodd" d="M474.44 328.6c5.257 0 9.54-4.283 9.54-9.541 0-5.257-4.283-9.54-9.54-9.54-5.258 0-9.541 4.283-9.541 9.54 0 5.258 4.283 9.541 9.541 9.541z" fill="#000"/><path d="M479.168 323.792a6.689 6.689 0 10-9.459-9.457 6.689 6.689 0 009.459 9.457z" fill="#fff"/><path d="M494.093 303.573a6.627 6.627 0 10-.001-13.253 6.627 6.627 0 00.001 13.253z" fill="#000"/><path fill-rule="evenodd" clip-rule="evenodd" d="M494.093 301.587a4.648 4.648 0 004.641-4.64 4.649 4.649 0 00-4.641-4.641 4.649 4.649 0 00-4.641 4.641 4.648 4.648 0 004.641 4.64z" fill="#fff"/><path fill-rule="evenodd" clip-rule="evenodd" d="M495.005 273.324a5.465 5.465 0 005.454-5.455 5.464 5.464 0 00-5.454-5.454 5.464 5.464 0 00-5.454 5.454 5.465 5.465 0 005.454 5.455z" fill="#000"/><path fill-rule="evenodd" clip-rule="evenodd" d="M495.005 271.687a3.828 3.828 0 003.818-3.818 3.828 3.828 0 00-3.818-3.818 3.828 3.828 0 00-3.818 3.818 3.828 3.828 0 003.818 3.818z" fill="#fff"/><defs><linearGradient id="paint0_linear_60_79" x1="131.31" y1="134.722" x2="416.789" y2="169.325" gradientUnits="userSpaceOnUse"><stop stop-color="#9A68FE"/><stop offset="1" stop-color="#FF23CF"/></linearGradient><linearGradient id="paint1_linear_60_79" x1="131.31" y1="134.722" x2="416.789" y2="169.325" gradientUnits="userSpaceOnUse"><stop stop-color="#9A68FE"/><stop offset="1" stop-color="#FF23CF"/></linearGradient><linearGradient id="paint2_linear_60_79" x1="372.838" y1="139.675" x2="387.591" y2="99.438" gradientUnits="userSpaceOnUse"><stop stop-color="#7D5CA3"/><stop offset="1" stop-color="#C33C8E"/></linearGradient><linearGradient id="paint3_linear_60_79" x1="281.125" y1="139.675" x2="295.878" y2="99.438" gradientUnits="userSpaceOnUse"><stop stop-color="#7D5CA3"/><stop offset="1" stop-color="#C33C8E"/></linearGradient><linearGradient id="paint4_linear_60_79" x1="373.231" y1="45.127" x2="403.757" y2="45.127" gradientUnits="userSpaceOnUse"><stop stop-color="#2A2C2A"/><stop offset="1" stop-color="#BFBEBE"/></linearGradient><linearGradient id="paint5_linear_60_79" x1="295.896" y1="45.127" x2="265.361" y2="45.127" gradientUnits="userSpaceOnUse"><stop stop-color="#2A2C2A"/><stop offset="1" stop-color="#BFBEBE"/></linearGradient><linearGradient id="paint6_linear_60_79" x1="330.169" y1="262.192" x2="260.175" y2="311.924" gradientUnits="userSpaceOnUse"><stop stop-color="#AAACAC"/><stop offset="1" stop-color="#3A3B3A"/></linearGradient><linearGradient id="paint7_linear_60_79" x1="409.068" y1="328.85" x2="440.194" y2="311.441" gradientUnits="userSpaceOnUse"><stop stop-color="#3C3C3B"/><stop offset="1" stop-color="#A09FA0"/></linearGradient><filter id="filter0_f_60_79" x=".171" y="16.722" width="526.529" height="526.529" filterUnits="userSpaceOnUse" color-interpolation-filters="sRGB"><feFlood flood-opacity="0" result="BackgroundImageFix"/><feBlend in="SourceGraphic" in2="BackgroundImageFix" result="shape"/><feGaussianBlur stdDeviation="59" result="effect1_foregroundBlur_60_79"/></filter></defs></svg>