<svg width="535" height="512" fill="none" xmlns="http://www.w3.org/2000/svg"><g filter="url(#filter0_f_55_912)"><circle cx="253.128" cy="259.125" r="134.441" transform="rotate(135.048 253.128 259.125)" fill="url(#paint0_linear_55_912)"/></g><circle cx="253.128" cy="259.125" r="134.441" transform="rotate(135.048 253.128 259.125)" fill="url(#paint1_linear_55_912)"/><path fill-rule="evenodd" clip-rule="evenodd" d="M311.116 361.952c-1.879 1.763-4.163 3.161-6.587 3.964-.207.066-.422.132-.638.199a7.376 7.376 0 01-2.135.571c-6.52 1.588-14.068 2.399-20.754 2.474a6.8 6.8 0 01-1.638 0c-6.67-.05-15.715-.919-21.069-5.487a123.898 123.898 0 01-16.923 1.54 7.298 7.298 0 01-1.697.016h-.248c-7.034.025-17.262-.728-22.666-5.768-5.412-5.048-8.449-12.123-6.951-19.513.877-4.328 3.128-8.035 6.198-11.064-5.139-11.329-7.472-24.412-6.273-36.742 1.606-16.567 9.492-31.041 23.568-39.903.298-1.167.588-2.326.878-3.493 2.242-8.912 4.493-17.816 7.025-26.654.124-.579.249-1.167.381-1.746.132-.588.339-1.15.612-1.688 6.794-23.014 15.492-44.381 29.088-64.316a7.269 7.269 0 0110.087-1.911 7.275 7.275 0 012.119 2.234h76.008a7.275 7.275 0 012.119-2.234c3.31-2.259 7.836-1.399 10.087 1.911 13.688 20.076 22.418 41.6 29.228 64.787.083.207.166.414.232.621 1.465-5.338 3.823-10.501 7.059-15.301 13.952-20.729 38.629-28.608 62.71-25.935 20.539 2.284 37.007 13.58 48.361 30.677 11.08 16.683 16.145 37.181 15.673 57.099-1.15 48.485-33.209 83.2-81.925 86.278-2.417.149-4.841.232-7.266.232-4.857 0-9.715-.315-14.531-.952-1.299 2.88-3.228 5.445-5.553 7.613-5.404 5.04-15.624 5.785-22.666 5.768h-.24a9.157 9.157 0 01-.827.041c-.29 0-.58-.024-.869-.057a123.591 123.591 0 01-16.534-1.473c-5.363 4.51-14.35 5.378-20.986 5.428-.34.041-.687.05-1.026.042-.207 0-.406-.025-.613-.042-6.686-.083-14.225-.894-20.746-2.474a7.593 7.593 0 01-2.16-.579l-.62-.199c-2.433-.803-4.717-2.201-6.596-3.972-3.426-.298-6.868-.497-10.311-.497-3.442 0-6.943.199-10.394.505h.009zm113.983-77.2a46.164 46.164 0 007.837-3.972c11.411-7.208 17.99-18.669 15.996-27.863-.497-2.3-1.614-4.079-2.979-4.775-.861-.43-1.796-.405-2.855.075-2.772 1.249-3.078 3.12-3.153 7.398-.058 3.426-.141 8.11-4.634 10.452-5.031 2.615-12.926 1.646-19.199-2.591-.43-.289 9.393 21.591 8.987 21.276z" fill="#9968FD"/><path fill-rule="evenodd" clip-rule="evenodd" d="M452.615 345.492c-68.776 4.353-103.325-57.289-103.325-57.289l13.952-13.853c15.16 11.693 29.692 16.542 42.485 16.939a53.616 53.616 0 0010.162-.629c11.586-1.845 21.177-7.356 27.631-14.25 7.018-7.456 10.378-16.517 8.714-24.213-1.266-5.834-5.627-9.268-10.509-7.051-9.062 4.105-1.92 14.788-7.953 17.925-5.346 2.772-16.881.124-21.822-8.996a40.634 40.634 0 01-1.547-3.144 43.35 43.35 0 01-1.242-3.07c-11.61-31.802 16.212-67.212 61.022-62.222 29.319 3.26 48.684 27.499 55.246 56.181 10.195 44.512-10.51 99.725-72.798 103.656l-.016.016z" fill="#FFAC40"/><path fill-rule="evenodd" clip-rule="evenodd" d="M443.52 276.41c7.017-7.456 10.377-16.517 8.714-24.213-1.266-5.834-5.627-9.268-10.51-7.051-9.061 4.105-1.92 14.788-7.952 17.925-5.346 2.772-16.882.124-21.822-8.996a41.012 41.012 0 01-1.548-3.144 43.335 43.335 0 01-1.241-3.07c4.742 5.13 13.547 13.174 16.658 6.007 3.873-8.937 8.507-32.075 25.811-26.497 14.903 4.816 12.214 36.494-8.102 49.014l-.008.025z" fill="#FF9243"/><path fill-rule="evenodd" clip-rule="evenodd" d="M452.615 345.492c-68.776 4.353-103.325-57.289-103.325-57.289l13.952-13.853c15.16 11.693 29.692 16.542 42.485 16.939a53.616 53.616 0 0010.162-.629c10.584 9.194 31.33 21.293 61.974 13.249 37.396-9.814 46.325-39.936 47.566-62.081 10.195 44.513-10.51 99.725-72.798 103.656l-.016.008z" fill="#FF9243"/><path fill-rule="evenodd" clip-rule="evenodd" d="M527.886 263.824c0 38.927-22.972 78.358-75.263 81.668-68.776 4.362-103.325-57.289-103.325-57.289l13.952-13.853c15.16 11.693 29.692 16.542 42.485 16.939 11.23 11.611 28.327 31.629 63.637 23.461 16.22-3.757 26.638-11.999 32.53-22.335 17.527-13.646 22.608-34.268 23.527-50.554.033.133.066.273.091.406.132.579.265 1.167.372 1.746.166.827.323 1.655.472 2.491.083.43.157.86.215 1.291.124.72.232 1.456.331 2.176.124.869.232 1.738.323 2.607a.812.812 0 01.033.232c.091.761.165 1.539.231 2.3l.034.372c.082.919.14 1.854.198 2.773.05.935.091 1.853.116 2.788.033.919.041 1.854.041 2.773v.008z" fill="#F8D2B6"/><path fill-rule="evenodd" clip-rule="evenodd" d="M452.615 345.492c-68.776 4.353-103.325-57.289-103.325-57.289l13.952-13.853c15.16 11.693 29.692 16.542 42.485 16.939 11.23 11.611 28.335 31.628 63.637 23.452 58.531-13.554 41.517-85.5 8.623-103.366-26.878-14.597-73.41 2.458-67.584 39.556-14.614-32.547 13.521-70.423 59.78-65.284 74.842 8.317 84.855 153.374-17.552 159.845h-.016z" fill="#fff"/><path fill-rule="evenodd" clip-rule="evenodd" d="M445.606 342.356c-5.636 0-11.164-.447-16.584-1.358l-.05-.256c-.811-4.005-3.128-7.597-6.736-10.559 3.079-6 5.313-12.695 6.538-19.604 6.769 3.599 14.895 6.082 24.817 6.082 4.816 0 10.055-.588 15.773-1.903 13.687-3.17 23.245-9.534 29.427-17.66a42.071 42.071 0 003.095-4.684c13.422-10.443 19.538-24.974 22.086-38.521.447 4.088.621 8.168.522 12.198-.786 33.026-20.142 72.764-72.094 76.049-2.276.141-4.552.216-6.794.216z" fill="#D6D0D9"/><path fill-rule="evenodd" clip-rule="evenodd" d="M445.796 349.084c-33.109 0-57.695-14.987-72.839-28.053-17.477-15.078-26.241-30.536-26.605-31.182a3.367 3.367 0 011.291-4.584 3.356 3.356 0 014.576 1.291c.083.149 8.656 15.218 25.306 29.534 22.145 19.033 47.334 27.797 74.866 26.059 51.961-3.285 71.308-43.023 72.094-76.05.811-34.334-18.081-73.02-54.699-77.092-22.409-2.491-42.163 5.495-52.838 21.367-8.631 12.818-9.392 28.566-2.052 42.121 4.129 7.613 13.696 9.492 17.304 7.613.802-.414.951-1.514 1.001-4.593.074-4.088.182-10.277 7.1-13.414 2.913-1.316 5.983-1.299 8.656.05 3.211 1.622 5.594 5.031 6.538 9.359 2.573 11.908-5.23 26.291-18.984 34.98-21.731 13.72-49.891 10.187-75.346-9.459a3.364 3.364 0 01-.613-4.717 3.372 3.372 0 014.726-.612c20.092 15.508 41.831 20.109 59.805 13.066a46.164 46.164 0 007.837-3.972c11.411-7.207 17.99-18.669 15.996-27.863-.497-2.3-1.614-4.079-2.979-4.774-.861-.431-1.796-.406-2.855.074-2.773 1.25-3.079 3.12-3.153 7.398-.058 3.426-.141 8.11-4.634 10.452-5.379 2.797-14.019 1.498-20.457-3.501-2.333-1.812-4.377-4.104-5.875-6.868-8.565-15.798-7.671-34.152 2.383-49.089 12.107-17.982 34.227-27.06 59.168-24.296 18.628 2.069 34.4 12.107 45.638 29.021 10.179 15.326 15.525 34.831 15.045 54.923-.497 20.937-7.432 40.408-19.53 54.84-13.927 16.617-34.293 26.216-58.87 27.772-2.383.149-4.734.224-7.034.224l.033-.025z" fill="#000"/><path fill-rule="evenodd" clip-rule="evenodd" d="M217.225 306.756c1.895 14.937 8.871 29.129 18.602 37.205 24.007 19.927 47.186 13.605 71.656 11.098 4.634-.489 9.31-.828 14.043-.828 4.733 0 9.186.331 13.704.786 24.594 2.491 47.864 8.962 71.995-11.056 9.731-8.076 16.699-22.26 18.594-37.205 2.433-19.091-3.426-39.407-22.393-49.759-3.095-12.173-6.115-24.644-9.839-37.164-6.157-20.631-14.25-41.426-27.846-61.353h-88.43c-7.663 11.221-13.563 22.724-18.371 34.309-8.904 21.474-14.002 43.263-19.331 64.208-18.967 10.352-24.817 30.668-22.376 49.759h-.008z" fill="#FFAC40"/><path fill-rule="evenodd" clip-rule="evenodd" d="M217.225 306.756c1.895 14.937 8.871 29.129 18.602 37.205 24.007 19.927 47.186 13.605 71.656 11.098 4.634-.489 9.31-.828 14.043-.828 4.734 0 9.186.331 13.704.786 24.594 2.491 47.864 8.962 71.995-11.056 9.731-8.076 16.699-22.26 18.594-37.205a5.143 5.143 0 01-.19-.199S408.59 320.716 398.511 304c-5.578-9.26 1.15-35.559 0-52.192-23.138 49.925-44.745 35.344-59.201 34.707-8.267 18.478-17.784 18.528-17.784 18.528s-9.516-.05-17.783-18.528c-14.449.637-36.064 15.226-59.202-34.707-1.15 16.633 5.578 42.932 0 52.192-10.079 16.724-27.118 2.557-27.118 2.557s-.058.066-.19.199h-.008z" fill="#FF9243"/><path fill-rule="evenodd" clip-rule="evenodd" d="M309.585 319.35a1949.22 1949.22 0 01-2.11 35.708c4.634-.488 9.309-.827 14.043-.827 4.733 0 9.185.331 13.704.786a1939.907 1939.907 0 01-2.111-35.667c-.604-12.065 2.723-22.757 6.538-32.819-.116-.009-.224-.009-.348-.017-8.267 18.479-17.783 18.528-17.783 18.528s-9.517-.049-17.784-18.528a6.366 6.366 0 00-.687.05c3.824 10.054 7.142 20.729 6.538 32.786z" fill="#F8D2B6"/><path fill-rule="evenodd" clip-rule="evenodd" d="M309.585 319.351a1940.798 1940.798 0 01-2.11 35.708c4.634-.489 9.31-.828 14.043-.828 4.734 0 9.186.331 13.704.786a1941.554 1941.554 0 01-2.11-35.666c-1.415-28.252 18.71-48.957 16.343-71.813-2.333-22.633-28.111-22.633-28.111-22.633s-25.785 0-28.111 22.633c-2.366 22.856 17.759 43.561 16.352 71.813z" fill="#fff"/><path fill-rule="evenodd" clip-rule="evenodd" d="M333.062 314.857c.116-4.179.678-8.201 1.531-12.09-.853 3.898-1.407 7.911-1.531 12.082v.008z" fill="#D1AD9F"/><path fill-rule="evenodd" clip-rule="evenodd" d="M309.295 351.351c.323-1.133.546-2.408.621-3.848l.356-.041a3.43 3.43 0 003.012-3.409v-.662l-3.393-28.484-.521-4.171a58.755 58.755 0 00-.439-3.475 257.759 257.759 0 00-.885-6.67c-.431-2.847-.902-5.685-1.498-8.515 7.464 12.926 14.962 12.967 14.962 12.967s7.406-.041 14.829-12.744c-.579 2.756-1.043 5.52-1.457 8.292-.107.728-.207 1.456-.306 2.185-.852 3.889-1.407 7.902-1.531 12.09v.049l-3.401 28.476v.662a3.436 3.436 0 003.012 3.409l.356.041c.075 1.44.298 2.715.621 3.848-3.989-.364-8.044-.612-12.14-.612s-8.201.248-12.223.621l.025-.009z" fill="#D6D0D9"/><path fill-rule="evenodd" clip-rule="evenodd" d="M367.363 361.497c-7.647 0-15.21-.935-22.691-1.87-7.547-.935-15.359-1.904-23.154-1.904s-15.599.969-23.154 1.904c-21.011 2.606-42.742 5.304-64.771-12.984-13.811-11.462-22.078-33.714-20.1-54.096 1.613-16.658 9.797-30.039 23.096-37.851.422-1.655.836-3.318 1.258-4.981 7.778-30.867 15.822-62.777 36.568-93.205a3.489 3.489 0 014.858-.918 3.495 3.495 0 01.918 4.857c-20.043 29.394-27.929 60.699-35.567 90.97-.546 2.152-1.084 4.303-1.63 6.447a3.515 3.515 0 01-1.713 2.209c-15.376 8.383-19.811 22.658-20.829 33.151-1.738 17.932 5.66 38.132 17.602 48.046 19.711 16.36 39.009 13.969 59.449 11.428 7.762-.96 15.789-1.961 24.015-1.961 8.225 0 16.252.993 24.015 1.961 20.44 2.532 39.737 4.932 59.449-11.428 11.933-9.905 19.339-30.114 17.61-48.046-1.018-10.493-5.462-24.768-20.837-33.151a3.491 3.491 0 01-1.713-2.209c-.546-2.144-1.084-4.295-1.63-6.455-7.63-30.271-15.525-61.568-35.568-90.962a3.497 3.497 0 015.777-3.939c20.737 30.42 28.789 62.33 36.568 93.196.422 1.672.844 3.335 1.258 4.99 13.298 7.812 21.474 21.193 23.096 37.851 1.978 20.391-6.289 42.634-20.1 54.104-14.184 11.776-28.252 14.854-42.08 14.854v-.008z" fill="#000"/><path fill-rule="evenodd" clip-rule="evenodd" d="M379.66 355.422c-3.856-1.109-8.971-4.725-7.862-13.596 1.432-11.453 19.729-20.97 39.506-13.712 16.021 5.875 18.065 18.065 9.451 26.092-6.728 6.272-33.424 3.426-41.103 1.216h.008z" fill="#fff"/><path fill-rule="evenodd" clip-rule="evenodd" d="M402.731 354.496c-2.788 0-5.685-.124-8.49-.339.215-.315.414-.654.612-.985.34-.588.547-1.25.77-1.87.132-.629.281-1.308.339-1.895.042-.505.066-1.01.066-1.523 2.797.224 5.71.356 8.565.356 7.432 0 14.424-.91 17.627-3.575-.257 2.433-1.581 4.841-3.857 6.968-2.217 2.06-8.573 2.855-15.64 2.855l.008.008zm-18.768-1.862h-.306a11.392 11.392 0 00.422-6.306c0-.016 0-.033-.008-.049 2.035.414 4.592.819 7.439 1.158-.058.422-.141.844-.24 1.266-.099.381-.248.638-.331.96-.182.257-.298.538-.505.77-.744.902-1.895 1.539-3.393 1.862-.728.182-1.522.273-2.325.314-.24.017-.488.017-.728.017l-.025.008z" fill="#D6D0D9"/><path fill-rule="evenodd" clip-rule="evenodd" d="M380.628 352.062c8.904 2.566 32.969 4.039 37.752-.422 3.07-2.863 4.402-6.248 3.74-9.516-.877-4.345-5.255-8.259-12.016-10.742-9.814-3.599-20.183-2.995-27.738 1.606-4.088 2.491-6.67 5.867-7.092 9.26-.828 6.595 2.458 8.97 5.354 9.806v.008zm22.434 9.451c-10.476 0-21.292-1.846-24.371-2.731-5.85-1.688-11.643-7.142-10.36-17.395.695-5.519 4.477-10.758 10.394-14.357 9.359-5.702 21.987-6.53 33.787-2.202 9.227 3.385 15.07 9.037 16.46 15.922 1.142 5.66-.985 11.494-5.826 16.013-3.881 3.616-11.875 4.75-20.084 4.75z" fill="#000"/><path fill-rule="evenodd" clip-rule="evenodd" d="M390.964 341.264c.091.265.24.736.323 1.125.091.414.182.836.231 1.266.116.853.141 1.713.1 2.557-.05.844-.166 1.688-.365 2.499-.099.381-.248.638-.331.96-.182.257-.297.538-.504.77-.745.902-1.895 1.539-3.393 1.862-.728.182-1.523.273-2.326.314a14.75 14.75 0 01-1.208.017c-.198-.008-.405-.008-.596-.033a4.083 4.083 0 01-.496-.05 3.567 3.567 0 00-4.394 2.466 3.554 3.554 0 003.442 4.519h.613c.413-.009.662-.034.976-.058.298-.017.579-.058.869-.091a23.85 23.85 0 001.705-.282c1.133-.24 2.259-.546 3.376-1.018a13.18 13.18 0 003.26-1.862c.514-.413 1.01-.844 1.449-1.382.463-.488.819-1.084 1.166-1.671.34-.588.547-1.25.77-1.87.132-.629.281-1.308.339-1.895a18.04 18.04 0 00-.033-3.352 17.889 17.889 0 00-.629-3.252 15.165 15.165 0 00-.546-1.564 13.066 13.066 0 00-.769-1.589 1.709 1.709 0 00-2.326-.645 1.716 1.716 0 00-.786 2.035l.075.224h.008zm19.017.438c.058.083.223.29.331.455.124.174.231.356.347.546.224.373.406.77.563 1.167.314.795.505 1.614.538 2.417a7.093 7.093 0 01-.282 2.358 6.72 6.72 0 01-.455 1.142c-.165.397-.38.745-.595 1.092-.456.671-.952 1.258-1.531 1.738a7.732 7.732 0 01-1.945 1.134c-1.423.579-3.095.803-4.883.786a3.504 3.504 0 00-3.533 3.484 3.5 3.5 0 003.484 3.533c.174 0 .356-.008.521-.033l.108-.016c2.358-.348 4.857-1.026 7.133-2.408a13.601 13.601 0 003.087-2.549c.893-1.01 1.589-2.152 2.118-3.327.24-.596.48-1.183.637-1.779a13.08 13.08 0 00.431-1.862c.19-1.282.173-2.607-.067-3.873a11.506 11.506 0 00-1.307-3.542 11.991 11.991 0 00-1.018-1.53 9.682 9.682 0 00-.587-.712c-.224-.24-.398-.43-.712-.712a1.71 1.71 0 00-2.549 2.251l.174.24h-.008z" fill="#000"/><path fill-rule="evenodd" clip-rule="evenodd" d="M262.822 355.422c3.856-1.109 8.962-4.725 7.853-13.596-1.432-11.453-19.728-20.97-39.506-13.712-16.021 5.875-18.065 18.065-9.451 26.092 6.728 6.272 33.432 3.426 41.104 1.216z" fill="#fff"/><path fill-rule="evenodd" clip-rule="evenodd" d="M239.742 354.496c-7.067 0-13.423-.795-15.641-2.855-2.284-2.127-3.599-4.535-3.856-6.968 3.203 2.664 10.203 3.575 17.635 3.575 2.855 0 5.776-.133 8.565-.356 0 .505.016 1.018.066 1.523.058.579.207 1.257.331 1.895.231.62.438 1.282.778 1.87.198.331.397.67.62.985-2.805.215-5.701.339-8.49.339l-.008-.008zm18.768-1.862c-.24 0-.488 0-.728-.017-.803-.041-1.606-.132-2.326-.314-1.498-.331-2.648-.969-3.401-1.862-.198-.224-.314-.513-.496-.77-.091-.323-.232-.579-.34-.96a10.835 10.835 0 01-.24-1.266c3.079-.364 5.834-.811 7.936-1.258-.008.05-.024.1-.033.149-.149.704-.24 1.415-.256 2.127-.042 1.39.174 2.78.67 4.154-.099 0-.199 0-.298.008h-.48l-.008.009z" fill="#D6D0D9"/><path fill-rule="evenodd" clip-rule="evenodd" d="M245.162 329.058c-4.187 0-8.532.769-12.785 2.325-6.753 2.483-11.139 6.397-12.016 10.741-.662 3.269.67 6.654 3.74 9.517 4.775 4.452 28.848 2.979 37.752.414 2.897-.836 6.182-3.211 5.354-9.806-.422-3.393-3.012-6.77-7.092-9.261-4.286-2.614-9.475-3.939-14.961-3.939l.008.009zm-5.735 32.447c-8.209 0-16.203-1.134-20.084-4.75-4.849-4.518-6.976-10.352-5.826-16.013 1.391-6.885 7.233-12.537 16.46-15.921 11.8-4.328 24.429-3.501 33.788 2.201 5.917 3.608 9.698 8.838 10.394 14.366 1.282 10.253-4.51 15.706-10.361 17.395-3.07.885-13.894 2.73-24.371 2.73v-.008z" fill="#000"/><path fill-rule="evenodd" clip-rule="evenodd" d="M248.48 339.65a13.66 13.66 0 00-.769 1.589 17.331 17.331 0 00-.546 1.564 18.205 18.205 0 00-.671 6.603c.058.58.207 1.258.331 1.895.232.621.439 1.283.778 1.871.348.587.704 1.191 1.175 1.671.431.538.935.96 1.448 1.382a13.204 13.204 0 003.261 1.862c1.117.472 2.243.778 3.376 1.018.563.116 1.134.207 1.705.281.29.033.571.075.869.091.306.025.554.05.968.05h.596a3.547 3.547 0 003.591-3.525 3.558 3.558 0 00-3.525-3.592c-.339 0-.687.05-.993.133a4.369 4.369 0 01-.488.049c-.191.017-.397.025-.596.033-.397 0-.811.009-1.208-.016-.803-.041-1.606-.132-2.326-.314-1.497-.331-2.648-.969-3.401-1.862-.198-.224-.314-.514-.496-.77-.091-.323-.232-.579-.34-.96a13.389 13.389 0 01-.364-2.499 13.295 13.295 0 01.1-2.557c.049-.431.132-.844.231-1.266.083-.389.24-.861.323-1.126l.075-.223a1.704 1.704 0 00-1.068-2.168 1.71 1.71 0 00-2.036.778v.008zm-18.354-.439c-.314.29-.488.472-.712.712a16.27 16.27 0 00-.595.703c-.373.489-.712.993-1.018 1.531a11.989 11.989 0 00-1.308 3.542 11.267 11.267 0 00-.066 3.873c.099.637.248 1.274.43 1.862.158.596.389 1.192.638 1.779a13.343 13.343 0 002.11 3.327 13.596 13.596 0 003.086 2.549c2.284 1.381 4.775 2.052 7.142 2.399h.083a3.493 3.493 0 003.988-2.946 3.504 3.504 0 00-2.954-3.98 3.994 3.994 0 00-.538-.041c-1.787.016-3.467-.207-4.882-.787a7.788 7.788 0 01-1.945-1.125c-.579-.48-1.084-1.068-1.531-1.738-.207-.347-.43-.695-.596-1.092a7.666 7.666 0 01-.455-1.142 6.867 6.867 0 01-.281-2.359 7.635 7.635 0 01.538-2.416 9.324 9.324 0 01.902-1.713c.107-.165.273-.372.331-.455l.174-.24a1.71 1.71 0 00-2.549-2.251l.008.008z" fill="#000"/><path fill-rule="evenodd" clip-rule="evenodd" d="M339.517 286.506s-3.617 41.5-6.414 57.48l45.283 5.619s28.251-75.057 15.888-127.572l-54.757 64.473z" fill="#FFAC40"/><path fill-rule="evenodd" clip-rule="evenodd" d="M337.804 286.357c-1.341 4.709-2.193 9.467-2.905 14.234a257.04 257.04 0 00-.943 7.158l-.902 7.158-3.393 28.475v.662a3.435 3.435 0 003.012 3.409l45.282 5.619h.033a3.442 3.442 0 003.666-2.234c1.92-5.238 3.575-10.402 5.181-15.648a375.706 375.706 0 004.419-15.806c2.722-10.593 4.99-21.317 6.686-32.158 1.68-10.841 2.772-21.805 2.929-32.853.042-5.528-.074-11.064-.595-16.6-.522-5.536-1.349-11.064-2.599-16.534a3.495 3.495 0 00-4.187-2.631 3.502 3.502 0 00-2.632 4.187v.041c1.175 5.098 1.962 10.311 2.458 15.566.488 5.255.604 10.568.563 15.88-.157 10.634-1.208 21.293-2.847 31.877-1.647 10.584-3.881 21.093-6.546 31.495a370.306 370.306 0 01-4.344 15.508c-1.564 5.114-3.227 10.278-5.04 15.218l3.699-2.234-45.282-5.619 3.012 4.071c1.035-4.849 1.73-9.648 2.342-14.465a386.583 386.583 0 001.531-14.44c.232-2.408.397-4.816.588-7.224.19-2.408.355-4.817.471-7.233.207-4.833.257-9.674-.24-14.573a1.753 1.753 0 00-3.426-.306h.009z" fill="#000"/><path fill-rule="evenodd" clip-rule="evenodd" d="M303.436 286.506s3.617 41.5 6.414 57.48l-45.282 5.619s-28.252-75.057-15.897-127.572l54.765 64.473z" fill="#FFAC40"/><path fill-rule="evenodd" clip-rule="evenodd" d="M301.724 286.655c-.497 4.891-.456 9.732-.24 14.573.115 2.416.281 4.824.471 7.233.191 2.408.348 4.824.588 7.224.422 4.816.927 9.624 1.531 14.44.612 4.816 1.299 9.616 2.333 14.465l3.013-4.071-45.283 5.619 3.699 2.242c-1.804-4.94-3.475-10.095-5.039-15.218a388.315 388.315 0 01-4.345-15.508c-2.664-10.402-4.891-20.911-6.546-31.495-1.638-10.576-2.697-21.235-2.846-31.877-.042-5.312.074-10.625.571-15.88.496-5.255 1.282-10.46 2.441-15.566v-.049a3.48 3.48 0 00-2.623-4.187 3.492 3.492 0 00-4.188 2.631c-1.249 5.47-2.077 10.998-2.598 16.534-.513 5.536-.637 11.081-.596 16.6.157 11.048 1.25 22.012 2.93 32.853 1.688 10.841 3.963 21.565 6.678 32.158a388.102 388.102 0 004.419 15.805c1.605 5.247 3.26 10.411 5.18 15.649a3.453 3.453 0 003.666 2.243h.033l45.282-5.619a3.432 3.432 0 003.013-3.41v-.662l-3.393-28.483-.902-7.158a342.411 342.411 0 00-.944-7.158c-.711-4.767-1.564-9.525-2.904-14.234a1.747 1.747 0 00-2.16-1.208 1.73 1.73 0 00-1.258 1.506l.017.008z" fill="#000"/><path fill-rule="evenodd" clip-rule="evenodd" d="M340.7 359.055c-3.732-1.233-8.466-5.213-7.597-15.069.861-9.781 18.454-19.099 36.006-11.991 14.018 5.677 19.662 16.807 11.337 25.703-6.504 6.952-32.323 3.799-39.746 1.349v.008z" fill="#fff"/><path fill-rule="evenodd" clip-rule="evenodd" d="M384.327 349.042a11.057 11.057 0 00-.265-2.706c.19.902.282 1.804.257 2.715l.008-.009z" fill="#B6ABBB"/><path fill-rule="evenodd" clip-rule="evenodd" d="M363.151 361.936c-8.871 0-18.396-1.548-22.443-2.88a10.412 10.412 0 01-4.7-3.186c-.885-1.051-1.655-2.375-2.193-4.022-.67-2.069-.985-4.65-.695-7.853a9.833 9.833 0 011.034-3.534c.613 6.811 4.469 9.807 7.614 10.841 4.046 1.332 13.571 2.88 22.442 2.88 7.398 0 14.349-1.076 17.304-4.229 1.092-1.167 1.944-2.375 2.565-3.608.199.894.281 1.804.265 2.706-.075 2.954-1.308 5.917-3.881 8.664-2.955 3.161-9.897 4.229-17.304 4.229l-.008-.008z" fill="#D6D0D9"/><path fill-rule="evenodd" clip-rule="evenodd" d="M341.8 355.737c8.524 2.814 31.546 4.444 36.097-.422 2.458-2.623 3.385-5.403 2.748-8.267-1.002-4.543-5.801-8.953-12.844-11.808-10.145-4.113-19.645-1.962-25.165 1.406-3.55 2.177-5.817 5.032-6.041 7.647-.728 8.225 2.955 10.7 5.214 11.444h-.009zm21.185 9.707c-9.558 0-19.43-1.762-23.378-3.062-2.648-.877-11.204-4.816-9.988-18.702.431-4.882 3.84-9.616 9.36-12.992 6.976-4.27 18.892-7.009 31.446-1.928 9.317 3.774 15.532 9.889 17.047 16.782 1.125 5.098-.464 10.27-4.477 14.548-3.782 4.039-11.784 5.346-20.018 5.346l.008.008z" fill="#000"/><path fill-rule="evenodd" clip-rule="evenodd" d="M349.53 347.098c.124 1.365.107 2.929-.099 4.303-.199 1.382-.596 2.689-1.209 3.575-.62.894-1.282 1.266-2.126 1.415-.861.141-1.986.033-3.195-.29a3.522 3.522 0 00-4.319 2.475 3.528 3.528 0 003.153 4.435h.14c1.928.133 4.088.033 6.265-.869a8.64 8.64 0 002.929-2.019c.828-.861 1.423-1.862 1.829-2.847.803-1.994.918-3.914.844-5.701a22.86 22.86 0 00-.869-5.222 1.723 1.723 0 00-2.127-1.183 1.715 1.715 0 00-1.241 1.804l.017.132.008-.008zm18.726.811c.24 1.332.356 2.863.29 4.245-.058 1.391-.306 2.739-.786 3.774-.488 1.051-1.126 1.713-1.912 2.06-.761.381-1.795.505-2.954.464a3.516 3.516 0 00-.223 7.026c.231 0 .455 0 .67-.042l.116-.016c1.953-.323 4.096-.977 5.9-2.45.894-.72 1.68-1.605 2.226-2.565.563-.96.927-1.97 1.15-2.954.447-1.978.373-3.832.124-5.57a22.896 22.896 0 00-1.34-5.031 1.72 1.72 0 00-2.226-.985 1.718 1.718 0 00-1.076 1.903l.025.133.016.008z" fill="#000"/><path fill-rule="evenodd" clip-rule="evenodd" d="M302.253 359.055c3.732-1.233 8.466-5.213 7.597-15.069-.861-9.781-18.454-19.099-36.006-11.991-14.018 5.677-19.67 16.807-11.337 25.703 6.504 6.952 32.323 3.799 39.746 1.349v.008z" fill="#fff"/><path fill-rule="evenodd" clip-rule="evenodd" d="M306.647 356.217c1.051-1.142 1.97-2.648 2.566-4.584-.596 1.936-1.515 3.434-2.566 4.584z" fill="#371A45"/><path fill-rule="evenodd" clip-rule="evenodd" d="M279.811 361.936c-7.398 0-14.341-1.076-17.304-4.229-2.739-2.929-3.964-6.099-3.881-9.243.016-.712.108-1.424.256-2.127.629 1.233 1.482 2.441 2.566 3.608 2.962 3.161 9.905 4.228 17.303 4.228 8.871 0 18.388-1.547 22.443-2.879 3.144-1.035 7.001-4.03 7.613-10.841a9.83 9.83 0 011.035 3.534c.273 3.095 0 5.61-.629 7.646-.596 1.936-1.515 3.434-2.566 4.585a10.493 10.493 0 01-4.394 2.838c-4.046 1.34-13.571 2.88-22.442 2.88z" fill="#D6D0D9"/><path fill-rule="evenodd" clip-rule="evenodd" d="M286.522 332.989c-3.558 0-7.415.654-11.362 2.251-7.042 2.855-11.85 7.266-12.851 11.809-.629 2.863.297 5.644 2.747 8.267 4.551 4.866 27.573 3.235 36.097.422 2.259-.745 5.933-3.227 5.213-11.445-.232-2.615-2.491-5.47-6.041-7.646-3.368-2.061-8.226-3.666-13.803-3.666v.008zm-6.546 32.456c-8.234 0-16.236-1.308-20.018-5.354-4.005-4.279-5.594-9.451-4.477-14.548 1.523-6.894 7.738-13.009 17.056-16.782 12.553-5.09 24.47-2.342 31.446 1.928 5.519 3.376 8.929 8.109 9.359 12.992 1.225 13.886-7.332 17.825-9.988 18.702-3.939 1.299-13.82 3.062-23.378 3.062z" fill="#000"/><path fill-rule="evenodd" clip-rule="evenodd" d="M290.064 346.345a22.436 22.436 0 00-.878 5.222c-.066 1.787.05 3.707.853 5.701a8.957 8.957 0 001.829 2.847 8.758 8.758 0 002.929 2.019c2.168.902 4.336.993 6.264.877h.116a3.532 3.532 0 003.286-3.748 3.521 3.521 0 00-4.436-3.17c-1.208.331-2.334.43-3.194.29-.844-.149-1.506-.513-2.127-1.415-.612-.877-1.01-2.193-1.208-3.575-.207-1.374-.215-2.93-.1-4.303v-.133a1.698 1.698 0 00-1.547-1.862 1.715 1.715 0 00-1.804 1.242l.017.008zm-18.636.513a23.394 23.394 0 00-1.341 5.031c-.248 1.738-.323 3.592.124 5.569.224.985.588 1.995 1.151 2.955.554.968 1.34 1.853 2.226 2.565 1.804 1.473 3.947 2.118 5.9 2.449l.091.017a3.523 3.523 0 004.055-2.888 3.512 3.512 0 00-2.888-4.047 3.97 3.97 0 00-.695-.049c-1.159.033-2.185-.091-2.955-.464-.786-.347-1.431-1.009-1.911-2.06-.48-1.035-.729-2.384-.786-3.774-.067-1.382.057-2.913.289-4.245l.025-.124a1.72 1.72 0 00-1.39-1.995 1.725 1.725 0 00-1.912 1.076l.017-.016z" fill="#000"/><path fill-rule="evenodd" clip-rule="evenodd" d="M270.377 253.96c4.866-1.233 7.779-4.37 7.315-10.651.455 6.281-2.458 9.426-7.323 10.651h.008z" fill="#D6D0D9"/><path fill-rule="evenodd" clip-rule="evenodd" d="M248.646 186.831a57.34 57.34 0 01-12.62-10.998c-3.674-4.312-6.587-9.235-8.656-14.631a54.766 54.766 0 01-2.416-8.118 61.486 61.486 0 01-1.167-8.325c-.372-5.288-.099-10.849.828-16.526a77.866 77.866 0 011.647-7.629 2.95 2.95 0 01-.058-.273c-1.598-2.392-2.408-5.652-2.408-9.691 0-3.393 1.415-6.421 4.013-8.664a194.322 194.322 0 01-.074-13.538 66.618 66.618 0 017.29-8.648 67.2 67.2 0 00-7.282 8.64c.182-6.331.678-12.562 1.481-18.628 2.094-15.64 6.264-30.23 12.388-43.363 3.393-7.257 7.266-13.885 11.503-19.686.587-.82 1.2-1.622 1.721-2.3l.836-1.06.256-.29c.257-.281.58-.637 1.018-.985l.488-.397.563-.356c.778-.488 1.647-.852 2.665-1.108l.074-.017.075-.017a10.28 10.28 0 011.986-.215c.265 0 .529.017.786.042.844.066 1.721.273 2.673.637l.083.025.074.041c.952.422 1.721.91 2.359 1.465.686.562 1.282 1.266 1.837 2.135.223.347.38.678.513.943l.116.248 1.415 3.203c.447 1.06.951 2.102 1.497 3.203.257.52.505 1.042.754 1.564 2.921 5.892 6.438 11.883 10.749 18.271a119.23 119.23 0 002.102 3.054c.314.447.629.885.943 1.332l.613.836a125.48 125.48 0 002.557 3.426c.596.803 1.191 1.547 1.638 2.11a146.51 146.51 0 001.664 2.086c.48.595.943 1.158 1.398 1.696 2.814-.786 5.884-1.415 9.475-1.937 4.08-.595 8.367-.901 12.719-.918 4.378.017 8.656.323 12.744.919 3.6.52 6.662 1.142 9.476 1.936.446-.538.91-1.092 1.39-1.688a98.986 98.986 0 001.655-2.069c.463-.588 1.059-1.34 1.63-2.102.885-1.142 1.73-2.309 2.557-3.434l.629-.86c.314-.448.621-.895.935-1.333a100.64 100.64 0 002.094-3.029c4.328-6.413 7.853-12.404 10.782-18.346.232-.48.489-1.002.745-1.523.538-1.1 1.051-2.135 1.49-3.194l1.407-3.21.115-.25c.125-.264.29-.595.522-.95.546-.861 1.15-1.557 1.829-2.128.637-.562 1.415-1.042 2.358-1.473l.074-.033.075-.024c.96-.365 1.837-.571 2.673-.638.256-.024.521-.041.786-.041a10.3 10.3 0 011.986.215l.075.017.074.016c1.026.257 1.895.62 2.665 1.1l.562.365.497.405c.43.34.745.687 1.001.969l.265.298.819 1.05a82.042 82.042 0 011.746 2.318c4.221 5.792 8.094 12.413 11.486 19.678 6.124 13.133 10.295 27.722 12.389 43.362a182.06 182.06 0 011.481 18.628 66.851 66.851 0 00.008.008c.132 4.47.108 8.996-.074 13.547 2.598 2.243 4.013 5.271 4.013 8.664 0 4.039-.811 7.291-2.416 9.682-.017.091-.042.182-.058.273a81.969 81.969 0 011.647 7.638c.926 5.686 1.208 11.247.827 16.518a61.19 61.19 0 01-1.167 8.317 54.938 54.938 0 01-2.416 8.134c-2.077 5.396-4.99 10.319-8.656 14.622-3.608 4.229-7.862 7.936-12.653 11.015 1.655 8.788-.604 33.87-68.602 33.87-72.094 0-72.789-23.799-71.573-33.895l-.008.017z" fill="#9968FD"/><path fill-rule="evenodd" clip-rule="evenodd" d="M377.103 201.387c-1.97-6.595-2.814-9.094-3.542-11.337H263.939c-.737 2.259-1.639 4.949-3.633 11.627a132.527 132.527 0 01-3.517-2.069c2.631-8.772 3.815-12.107 3.831-12.165a1.983 1.983 0 011.879-1.357h112.494c.852 0 1.613.546 1.878 1.357.017.058 1.117 3.153 3.707 11.751a158.324 158.324 0 01-3.475 2.201v-.008z" fill="#433B72"/><path fill-rule="evenodd" clip-rule="evenodd" d="M377.202 201.735c-1.978-6.621-2.921-9.451-3.649-11.685H263.939c-.729 2.259-1.54 4.609-3.542 11.312a111.816 111.816 0 01-3.517-2.069c2.623-8.746 3.69-11.701 3.74-11.85a1.975 1.975 0 011.879-1.357h112.494c.852 0 1.613.546 1.878 1.357.05.149 1.225 3.517 3.807 12.099a158.36 158.36 0 01-3.476 2.201v-.008z" fill="#000"/><path fill-rule="evenodd" clip-rule="evenodd" d="M318.754 183.231h63.761s13.637 30.966-63.761 30.966c-77.399 0-63.761-30.966-63.761-30.966h63.761z" fill="#9968FD"/><path fill-rule="evenodd" clip-rule="evenodd" d="M318.754 183.231h63.761s.132.306.298.852c-2.656 9.095-15.268 21.4-64.059 21.4s-61.394-12.305-64.059-21.4c.166-.546.298-.852.298-.852h63.761z" fill="#000"/><path fill-rule="evenodd" clip-rule="evenodd" d="M256.425 185.209c-.513 2.019-1.035 6.355 1.994 10.94 4.841 7.323 19.232 16.062 60.327 16.062s55.485-8.739 60.326-16.062c3.029-4.585 2.508-8.913 1.995-10.94H256.425zm118.741 20.15c-3.98 2.268-7.985 4.154-12.446 5.694-10.757 3.376-25.239 5.089-43.37 5.13-4.32-.008-8.342-.082-12.123-.248-5.412-.24-10.436-.662-15.061-1.258-11.147-1.506-20.209-4.278-29.287-8.962-3.368-2.16-5.974-4.651-7.82-7.472-5.213-7.994-2.019-15.5-1.878-15.815a1.976 1.976 0 011.812-1.183h127.514c.786 0 1.497.464 1.812 1.183.141.315 3.343 7.812-1.879 15.815-1.737 2.664-4.17 5.039-7.274 7.116z" fill="#000"/><path fill-rule="evenodd" clip-rule="evenodd" d="M342.578 197.009a240.849 240.849 0 01-23.799 1.175h-.033c-7.953 0-15.905-.389-23.833-1.175-7.729-.927-14.589-2.292-20.688-3.997-66.434-18.619-40.756-78.871-40.756-78.871-6.008-60.087 15.723-94.967 25.877-107.686 2.093-2.615 6.198-2.003 7.489 1.084 10.278 24.693 28.103 44.305 28.103 44.305 2.755-.976 5.842-1.696 8.863-2.234a84.702 84.702 0 0129.882 0c3.012.538 6.107 1.258 8.862 2.234 0 0 17.817-19.612 28.103-44.305 1.291-3.087 5.396-3.7 7.489-1.084 10.154 12.719 31.893 47.599 25.877 107.686 0 0 30.602 71.796-61.436 82.86v.008z" fill="#FBA329"/><path fill-rule="evenodd" clip-rule="evenodd" d="M268.06 189.297a89.66 89.66 0 01-2.475-.96l-1.746-.72c-.579-.248-1.15-.522-1.721-.778-1.15-.505-2.267-1.092-3.384-1.655-2.21-1.183-4.386-2.425-6.43-3.848-4.13-2.789-7.87-6.107-11.006-9.914a45.268 45.268 0 01-7.332-12.719c-1.73-4.609-2.715-9.492-3.07-14.432-.331-4.949-.075-9.955.695-14.895.339-2.21.769-4.403 1.307-6.571.397 4.684 1.73 11.023 4.676 17.179a52.76 52.76 0 00-.033 1.631c0 24.238 20.067 40.747 30.511 47.698l.008-.016zm-28.5-89.621a2.76 2.76 0 00-.108-.29c-1.291-3.41 3.137-8.068 6.869-8.068a4.3 4.3 0 01.926.099s.861-10.377 9.045-10.377c.381 0 .77.024 1.184.066l1.779-.803s2.979 2.4 2.019 4.494c-1.357 2.97-8.466-.009-9.252 9.202a3.58 3.58 0 01-.488 1.522c-5.362 1.366-9.45 2.996-11.974 4.146v.009z" fill="#BE6F00"/><path fill-rule="evenodd" clip-rule="evenodd" d="M369.424 189.313c10.658-7.092 31.371-24.164 30.502-49.254v-.083c.017.546.033 1.092.033 1.63 0 24.247-20.092 40.764-30.527 47.715l-.008-.008zm-101.372-.016c-10.444-6.952-30.503-23.469-30.511-47.699 0-.538.008-1.084.033-1.63v.083c-.869 25.074 19.819 42.137 30.486 49.237l-.008.009z" fill="#4A4A8E"/><path fill-rule="evenodd" clip-rule="evenodd" d="M318.787 198.184h-.066c-7.87 0-15.74-.388-23.585-1.15a.247.247 0 00-.182-.256c-5.031-1.2-10.021-2.309-14.928-3.683-4.047-1.117-8.06-2.342-11.958-3.798-10.667-7.1-31.355-24.164-30.486-49.238.248.695.521 1.39.811 2.094 5.271 3.426 33.912 21.466 42.204 15.085 8.589-6.612 10.112-29.559 17.287-41.972 3.666-6.339 11.618-10.998 18.917-11.238 9.723-.314 18.123 4.312 22.608 12.802 6.819 12.91 8.97 34.508 17.403 40.4 12.893 9.012 33.813-6.612 43.122-17.179v-.083c0 21.805-13.108 37.76-30.494 49.337-3.898 1.457-7.903 2.656-11.941 3.782-1.233.314-2.458.678-3.699.985-1.242.298-2.475.645-3.724.935-1.25.273-2.491.612-3.749.893-1.25.29-2.507.58-3.765.911a.205.205 0 00-.149.198v.017a242.42 242.42 0 01-23.618 1.158h-.008zm-79.575-54.178l.041.091-.024-.049-.025-.042h.008zm.695 1.407l.025.041.025.05-.05-.091zm.298.563l.017.033.033.058-.05-.091zm58.672 20.208a15.47 15.47 0 003.922 5.222 39.312 39.312 0 00-.339 4.948c0 8.499 3.368 16.65 16.294 16.65h.066c15.433 0 17.246-11.627 15.955-21.59a15.292 15.292 0 003.823-5.015l-.083-.207c.513-1.224.745-1.68 1.134-3.219 1.448-.869 3.335-2.284 4.709-4.311a27.487 27.487 0 01-2.607-1.953c-.099.083-.199.174-.306.256.339-.273.662-.571.968-.885 2.995-3.12 2.888-7.191 2.88-7.365a1.988 1.988 0 00-2.053-1.912 1.992 1.992 0 00-1.911 2.053c0 .008.033 2.615-1.804 4.51a7.204 7.204 0 01-.637.571 30.194 30.194 0 01-2.293-2.897c-.885.654-2.011 1.068-3.434 1.068-4.353 0-7.257-3.616-8.838-6.356 2.681-1.969 4.725-5.263 4.725-9.359 0-3.385-2.606-5.23-5.205-6.231a14.509 14.509 0 00-5.147-.96c-1.746 0-3.501.331-5.147.96-2.607 1.001-5.205 2.846-5.205 6.231 0 4.096 2.044 7.39 4.725 9.359-1.573 2.74-4.477 6.356-8.838 6.356-1.424 0-2.549-.414-3.434-1.068a31.674 31.674 0 01-2.293 2.897 5.407 5.407 0 01-.637-.571c-1.845-1.887-1.804-4.494-1.804-4.51a1.981 1.981 0 00-1.912-2.053 1.982 1.982 0 00-2.052 1.912c0 .174-.116 4.237 2.88 7.365.306.314.629.612.968.885-.099-.082-.207-.165-.306-.256a29.697 29.697 0 01-2.607 1.953c1.374 2.027 3.261 3.442 4.709 4.311.389 1.531.621 1.995 1.134 3.219v-.008z" fill="#fff"/><path fill-rule="evenodd" clip-rule="evenodd" d="M297.735 162.973c-1.448-.869-3.335-2.284-4.709-4.311a28.55 28.55 0 002.607-1.953c.455.397.943.745 1.473 1.059 0 1.357.124 3.211.629 5.205zm42.113-.049c.496-1.986.62-3.807.612-5.156.513-.306.993-.645 1.44-1.026a28.884 28.884 0 002.573 1.928c-1.348 1.994-3.194 3.393-4.625 4.262v-.008zm-6.596-7.382h-.074c-10.493 0-12.363-10.592-12.438-11.039a1.946 1.946 0 00-.323-.811l2.59-.952s3.253 9.368 10.262 9.368c1.423 0 2.549-.414 3.442-1.068a31.015 31.015 0 002.326 2.921c-1.382 1.035-3.319 1.573-5.776 1.581h-.009zm-28.864 0h-.074c-2.483-.008-4.436-.554-5.818-1.614a30.171 30.171 0 002.292-2.896c.886.654 2.02 1.068 3.435 1.068 7.009 0 10.261-9.368 10.261-9.368l2.648.968a1.989 1.989 0 00-.314.786c-.075.455-1.945 11.048-12.438 11.048l.008.008z" fill="#fff"/><path fill-rule="evenodd" clip-rule="evenodd" d="M369.423 189.314c10.436-6.952 30.52-23.461 30.528-47.716 0-.538-.008-1.084-.033-1.63 2.954-6.165 4.286-12.495 4.675-17.179a80.24 80.24 0 011.308 6.57c.769 4.941 1.026 9.947.695 14.896-.356 4.94-1.341 9.822-3.07 14.432a45.292 45.292 0 01-7.332 12.719c-3.136 3.807-6.869 7.125-11.006 9.914-2.044 1.431-4.221 2.664-6.43 3.856-1.125.563-2.234 1.15-3.385 1.655-.571.256-1.142.53-1.721.778l-1.746.728c-.827.339-1.655.662-2.491.968l.008.009zm28.525-89.63c-2.524-1.15-6.612-2.78-11.974-4.146a3.675 3.675 0 01-.497-1.539c-.827-9.285-8.242-6.794-9.243-9.194-.885-2.118 2.019-4.493 2.019-4.493l1.771.802a9.83 9.83 0 011.183-.066c8.193 0 9.045 10.377 9.045 10.377.298-.074.613-.099.927-.099 3.732 0 8.16 4.65 6.869 8.069-.033.099-.075.198-.108.29h.008z" fill="#BE6F00"/><path fill-rule="evenodd" clip-rule="evenodd" d="M261.259 5.098s-.026 0-.043.009c.017 0 .026 0 .043-.01z" fill="#A2A2D2"/><path fill-rule="evenodd" clip-rule="evenodd" d="M370.657 7.555c-10.287 24.694-28.103 44.298-28.103 44.298-2.756-.968-5.843-1.697-8.863-2.234a84.657 84.657 0 00-29.874 0c-3.02.538-6.107 1.266-8.863 2.234 0 0-17.825-19.613-28.102-44.298-.96-2.308-3.493-3.227-5.586-2.457.132-.042.265.05.397.372 9.558 22.956 25.736 45.622 30.056 50.636a2.578 2.578 0 002.731.778c2.573-.794 5.337-1.423 8.051-1.903 1.167-.207 2.334-.389 3.501-.555 1.374 2.169 6.562 3.79 12.744 3.79 6.181 0 11.37-1.613 12.752-3.79 1.167.166 2.342.348 3.5.555 2.715.488 5.487 1.109 8.052 1.903.985.306 2.053 0 2.731-.778 4.32-5.014 19.869-26.133 29.435-49.088.579-1.39 1.688-.108 2.938-.522-2.085-2.64-6.207-2.036-7.506 1.06h.009z" fill="#BE6F00"/><path fill-rule="evenodd" clip-rule="evenodd" d="M259.346 6.496c.935.306 1.44-1.175 1.878-1.382a4.427 4.427 0 00-1.878 1.382z" fill="#A2A2D2"/><path fill-rule="evenodd" clip-rule="evenodd" d="M340.319 155.468c-15.863 8.399-21.532-7.713-21.532-7.713s-5.668 16.112-21.54 7.713c0 0-3.269 20.771 21.54 20.771 24.809 0 21.532-20.771 21.532-20.771z" fill="#000"/><path fill-rule="evenodd" clip-rule="evenodd" d="M318.787 146.166s-.016.075-.033.117a.57.57 0 01-.033-.117h.066z" fill="#FF6C8B"/><path fill-rule="evenodd" clip-rule="evenodd" d="M318.787 193.012h-.033c-18.661 0-17.403-16.997-14.838-27.507 1.142-4.708 2.549-8.109 2.549-8.109s9.343-.629 12.289-11.114c2.946 10.485 12.289 11.114 12.289 11.114s14.713 35.583-12.256 35.608v.008z" fill="#F0F"/><path fill-rule="evenodd" clip-rule="evenodd" d="M318.82 193.012h-.066c-12.926 0-16.294-8.143-16.294-16.65 0 8.499 3.368 16.65 16.294 16.65h.033c15.375-.016 17.204-11.594 15.93-21.54.016-.017.041-.034.058-.05 1.282 9.963-.522 21.59-15.955 21.59z" fill="#7C7CB5"/><path fill-rule="evenodd" clip-rule="evenodd" d="M334.717 171.472a54.794 54.794 0 00-1.142-6.057.938.938 0 01.083.091c.447 1.82.844 3.831 1.117 5.917-.025.016-.042.033-.058.049z" fill="#000072"/><path fill-rule="evenodd" clip-rule="evenodd" d="M318.787 193.012h-.033c-12.926 0-16.294-8.143-16.294-16.65 0-3.773.662-7.621 1.456-10.857.191-.215.298-.331.298-.331s-1.613 20.266 14.565 20.266 14.564-20.266 14.564-20.266l.215.24a54.857 54.857 0 011.142 6.058c1.275 9.947-.554 21.524-15.93 21.54h.017z" fill="#9800CB"/><path fill-rule="evenodd" clip-rule="evenodd" d="M320.732 152.405c.099 2.127.091 4.254.074 6.389a182.37 182.37 0 01-.207 6.388c-.107 2.127-.206 4.254-.43 6.389-.223 2.126-.48 4.253-.943 6.388a.485.485 0 01-.579.373.492.492 0 01-.373-.373c-.463-2.127-.72-4.253-.943-6.388-.224-2.127-.323-4.262-.431-6.389a205.624 205.624 0 01-.206-6.388c-.025-2.127-.025-4.254.074-6.389a1.981 1.981 0 012.069-1.887 1.991 1.991 0 011.887 1.887h.008z" fill="#000"/><path fill-rule="evenodd" clip-rule="evenodd" d="M307.897 159.183c-1.481 4.03-6.364 18.892-1.084 26.778 2.251 3.36 6.264 5.065 11.933 5.065 5.668 0 9.69-1.705 11.941-5.065 5.28-7.886.397-22.748-1.084-26.778-2.408-.488-7.58-2.16-10.849-7.779-3.269 5.627-8.441 7.299-10.849 7.779h-.008zm10.849 35.807c-7.075 0-12.206-2.301-15.235-6.836-7.282-10.89.77-30.684 1.117-31.52a1.977 1.977 0 011.697-1.216c.314-.025 7.787-.712 10.41-9.302a1.967 1.967 0 011.456-1.862c.191-.049.381-.066.563-.074.182 0 .373.016.563.074.869.24 1.44 1.01 1.456 1.862 2.657 8.673 10.328 9.293 10.411 9.302a1.976 1.976 0 011.696 1.216c.348.836 8.399 20.63 1.117 31.52-3.029 4.535-8.159 6.836-15.235 6.836h-.016z" fill="#000"/><path fill-rule="evenodd" clip-rule="evenodd" d="M333.178 159.506c-7.589 0-12.066-4.378-14.391-8.739-2.334 4.361-6.81 8.739-14.391 8.739h-.091c-4.03-.017-7.166-1.175-9.334-3.435-2.996-3.119-2.888-7.191-2.88-7.365a1.986 1.986 0 012.052-1.911 1.991 1.991 0 011.912 2.052c0 .008-.033 2.615 1.804 4.51 1.398 1.432 3.567 2.168 6.463 2.177h.074c10.493 0 12.364-10.593 12.438-11.048a1.98 1.98 0 011.953-1.663c.977 0 1.796.703 1.953 1.663.074.447 1.945 11.039 12.438 11.039h.074c2.888-.016 5.065-.744 6.463-2.176 1.846-1.887 1.812-4.494 1.812-4.518-.024-1.084.836-2.003 1.92-2.028a1.98 1.98 0 012.036 1.903c0 .174.116 4.237-2.88 7.365-2.168 2.26-5.304 3.41-9.334 3.435h-.091z" fill="#000"/><path fill-rule="evenodd" clip-rule="evenodd" d="M323.959 130.162a14.559 14.559 0 00-10.41 0c-2.607 1.001-5.206 2.846-5.206 6.231 0 6.769 5.578 11.362 10.411 11.362 4.833 0 10.41-4.593 10.41-11.362 0-3.385-2.607-5.23-5.205-6.231z" fill="#000"/><path fill-rule="evenodd" clip-rule="evenodd" d="M324.836 133.845c0 .728-2.722 1.324-6.09 1.324s-6.091-.588-6.091-1.324c0-.737 2.723-1.324 6.091-1.324 3.368 0 6.09.595 6.09 1.324z" fill="#fff"/><path fill-rule="evenodd" clip-rule="evenodd" d="M239.791 102.282c-.033-.141-.207-.91-.289-1.986.091.662.19 1.324.289 1.986z" fill="#FF7C88"/><path fill-rule="evenodd" clip-rule="evenodd" d="M257.459 81.081l.008.042c-.19-.033-.372-.058-.554-.083-1.084-.149-2.052-.14-2.905-.008a7.38 7.38 0 00-1.191.273 3.753 3.753 0 00-.282.09 7.53 7.53 0 00-.521.216c-.141.066-.281.14-.414.207a6.23 6.23 0 00-.943.637 5.505 5.505 0 00-.563.513 5.157 5.157 0 00-.496.563 4.117 4.117 0 00-.29.38 7.84 7.84 0 00-.281.43c-.257.423-.472.853-.662 1.292-.067.149-.125.29-.174.447a14.23 14.23 0 00-.546 1.911v.033l-.075.373v.033a14.109 14.109 0 00-.157 1.15l-.025.29c-.066.844-.05 1.39-.05 1.39-3.657 0-5.668 1.398-6.736 3.194-1.117 1.887-1.208 4.212-1.084 5.842-.082-.604-.157-1.2-.223-1.795a118.908 118.908 0 01-.712-8.557c-1.862-41.658 19.422-73.186 23.601-78.954.075-.091.133-.182.182-.257.215-.29.373-.496.447-.596.025-.033.033-.05.05-.057l.016-.017c-5.668 10.137-8.002 22.004-8.639 33.093-1.159 19.703 3.012 36.99 3.244 37.934l-.025-.009z" fill="#fff"/><path fill-rule="evenodd" clip-rule="evenodd" d="M257.459 81.081l.009.042a15.95 15.95 0 00-.555-.083c-1.084-.14-2.052-.14-2.904-.008a8.351 8.351 0 00-1.473.364c-.183.066-.348.14-.522.215-.141.066-.281.14-.414.207-.339.19-.653.397-.943.637a4.775 4.775 0 00-.563.513 5.266 5.266 0 00-.496.563 4.117 4.117 0 00-.29.38 8.997 8.997 0 00-.943 1.721c-.066.15-.124.29-.174.448a11.965 11.965 0 00-.546 1.911v.033l-.075.373v.033c-.058.322-.099.62-.132.91l-.025.24c-.008.1-.016.199-.025.29-.066.844-.049 1.39-.049 1.39-3.542.364-5.594 1.638-6.736 3.194-.927 1.266-1.258 2.731-1.316 4.047a118.908 118.908 0 01-.712-8.557c.919-1.109 2.094-1.829 3.021-2.276a2.696 2.696 0 001.522-2.358c.174-6.132 3.459-8.913 5.536-10.055.969-.537 1.523-1.613 1.358-2.706-5.156-34.598 8.821-56.826 12.156-61.56.074-.09.132-.181.182-.256.215-.29.372-.496.447-.596.025-.033.033-.05.049-.057l.017-.017c-5.255 11.594-7.721 22.964-8.639 33.093-1.937 21.267 2.97 37.073 3.244 37.934l-.009-.009z" fill="#fff"/><path fill-rule="evenodd" clip-rule="evenodd" d="M263.111 10.17c-1.531 4.113-2.756 8.309-3.84 12.521l-.778 3.17c-.223 1.067-.471 2.118-.687 3.185-.446 2.127-.794 4.27-1.108 6.414-.298 2.151-.563 4.303-.72 6.463-.042.538-.1 1.075-.141 1.622l-.099 1.622c-.083 1.075-.1 2.16-.141 3.243-.108 4.337.025 8.665.397 12.984.381 4.32 1.026 8.607 1.895 12.844.232 1.059.431 2.126.695 3.169l.787 3.153v.05c0-.05.057.165.066.273.016.132.025.264.016.405a2.137 2.137 0 01-.687 1.432 2.127 2.127 0 01-1.539.546c-.107 0-.331-.041-.281-.033h-.017l-.041-.008-.331-.05a10.88 10.88 0 00-2.061-.066c-.893.074-1.737.265-2.424.629-.704.347-1.233.844-1.672 1.464-.422.63-.72 1.432-.885 2.31-.166.885-.215 1.853-.174 2.838l.016.372v.141c0 .058.009.207 0 .314a2.296 2.296 0 01-1.63 2.077c-.207.075-.571.1-.505.091h-.082l-.331.041a9.093 9.093 0 00-1.333.274 7.928 7.928 0 00-2.333 1.067c-.671.463-1.233 1.018-1.655 1.746-.431.72-.704 1.606-.869 2.574-.166.976-.191 2.019-.199 3.12v.016a.657.657 0 01-.662.654.658.658 0 01-.587-.364 10.95 10.95 0 01-1.043-3.418c-.066-.62-.116-1.25-.05-1.903.017-.323.075-.654.133-.985.082-.323.157-.662.273-.985.422-1.316 1.291-2.515 2.35-3.41 1.067-.901 2.309-1.472 3.55-1.845a12.31 12.31 0 011.895-.413c.157-.025.323-.042.488-.058l.124-.017c.133-.016-.165.009-.297.058-.34.1-.638.315-.836.58a1.685 1.685 0 00-.331.885v.207-.058l-.009-.116-.024-.455c-.067-1.208-.034-2.458.19-3.74.232-1.275.662-2.607 1.456-3.816a8.006 8.006 0 011.432-1.646 8.068 8.068 0 011.812-1.192c1.283-.637 2.632-.91 3.931-1.001a13.607 13.607 0 011.928.008c.315.025.637.058.96.1.157.024.323.05.488.082h.058l.033.017c.067.016-.14-.025-.231-.025a1.9 1.9 0 00-1.349.472 1.855 1.855 0 00-.604 1.25c0 .123 0 .23.008.347 0 .09.058.29.041.223v-.05l-.786-3.268c-.265-1.084-.455-2.193-.687-3.286a116.273 116.273 0 01-1.804-13.306 106.96 106.96 0 01-.207-13.423c.058-1.117.108-2.234.207-3.351l.141-1.672c.05-.554.116-1.109.174-1.663.24-2.226.587-4.436.968-6.637.819-4.394 1.862-8.747 3.318-12.975a63.963 63.963 0 012.5-6.207c.943-2.019 1.977-3.997 3.252-5.85a.258.258 0 01.372-.067.265.265 0 01.099.315v.016l.017-.024z" fill="#984200"/><path fill-rule="evenodd" clip-rule="evenodd" d="M397.708 102.282c.033-.141.207-.91.29-1.986-.091.662-.19 1.324-.29 1.986z" fill="#FF7C88"/><path fill-rule="evenodd" clip-rule="evenodd" d="M380.041 81.081l-.009.042c.191-.033.373-.058.555-.083 1.084-.149 2.052-.14 2.904-.008.422.058.82.157 1.192.273.091.025.19.058.281.09.182.067.356.142.522.216.14.066.281.14.414.207.339.19.653.397.943.637.198.157.389.331.571.513.182.182.339.364.496.563.108.124.199.248.29.38.099.141.19.282.281.43.257.423.472.853.662 1.292.067.149.125.29.174.447.24.653.414 1.299.546 1.911v.033c.025.124.05.248.067.373v.033c.057.322.099.62.132.91 0 .083.017.157.025.24.008.1.008.199.025.29.074.844.049 1.39.049 1.39 3.658 0 5.669 1.398 6.736 3.194 1.117 1.887 1.208 4.212 1.084 5.842.083-.604.166-1.2.224-1.795.347-2.897.579-5.752.711-8.557 1.862-41.658-19.422-73.186-23.601-78.954-.066-.091-.132-.182-.182-.257-.215-.29-.372-.496-.446-.596a.4.4 0 00-.05-.057l-.017-.017c5.669 10.137 8.002 22.004 8.64 33.093 1.158 19.703-3.013 36.99-3.244 37.934l.025-.009z" fill="#fff"/><path fill-rule="evenodd" clip-rule="evenodd" d="M380.04 81.081l-.008.042c.191-.033.373-.058.555-.083 1.084-.14 2.052-.14 2.904-.008a8.383 8.383 0 011.473.364c.182.066.348.14.522.215.14.066.273.14.413.207.34.19.654.397.944.637.207.157.397.331.571.513.182.182.339.364.496.563.108.124.199.248.29.38a8.997 8.997 0 01.943 1.721c.066.15.124.29.174.448.248.645.422 1.299.546 1.911v.033c.025.124.05.248.066.373v.033c.067.322.108.62.133.91 0 .083.016.157.025.24l.024.29c.075.844.05 1.39.05 1.39 3.55.364 5.594 1.638 6.736 3.194.927 1.266 1.25 2.731 1.308 4.047.347-2.897.579-5.752.711-8.557-.926-1.109-2.093-1.829-3.028-2.276a2.695 2.695 0 01-1.523-2.358c-.174-6.132-3.459-8.913-5.536-10.055-.968-.537-1.523-1.613-1.357-2.706 5.155-34.598-8.822-56.826-12.165-61.56a9.392 9.392 0 01-.182-.256c-.215-.29-.372-.496-.447-.596a.43.43 0 00-.05-.057l-.016-.017c5.255 11.594 7.721 22.964 8.639 33.093 1.937 21.267-2.971 37.073-3.244 37.934l.033-.009z" fill="#E5E5E5"/><path fill-rule="evenodd" clip-rule="evenodd" d="M342.554 196.819c1.257-.331 2.507-.62 3.765-.91 1.249-.281 2.491-.621 3.749-.894 1.249-.289 2.482-.637 3.723-.935 1.242-.298 2.466-.67 3.699-.985 4.908-1.357 9.757-2.846 14.433-4.75l1.746-.728c.579-.248 1.142-.521 1.721-.778 1.15-.505 2.259-1.092 3.384-1.655 2.21-1.183 4.386-2.424 6.43-3.856 4.138-2.789 7.87-6.107 11.006-9.914a45.268 45.268 0 007.332-12.719c1.722-4.609 2.715-9.492 3.07-14.432.331-4.949.075-9.955-.695-14.895a76.387 76.387 0 00-3.086-12.744 42.2 42.2 0 00-.621-1.697l-.017-.041a1.94 1.94 0 01-.132-.935c1.448-14.39 1.407-28.939-.496-43.247-1.912-14.291-5.727-28.35-11.809-41.393-3.046-6.504-6.612-12.777-10.833-18.553-.521-.728-1.067-1.431-1.605-2.143l-.414-.53-.207-.265-.099-.124-.066-.066c-.091-.09-.166-.198-.273-.265l-.141-.124c-.058-.033-.107-.058-.157-.09a2.234 2.234 0 00-1.423-.324c-.257 0-.497.091-.737.174-.223.116-.455.224-.629.397-.198.15-.347.356-.488.563-.075.108-.116.232-.182.34l-.273.62-1.117 2.549c-.72 1.713-1.581 3.351-2.375 5.023-3.286 6.637-7.101 12.976-11.222 19.091-1.018 1.54-2.102 3.029-3.153 4.543-1.092 1.481-2.168 2.98-3.293 4.444-.555.736-1.126 1.465-1.697 2.193a85.546 85.546 0 01-1.729 2.16 112.583 112.583 0 01-3.608 4.261 1.956 1.956 0 01-2.094.547h-.025c-3.608-1.258-7.497-2.053-11.386-2.615-3.89-.571-7.829-.836-11.759-.844-3.931.008-7.87.281-11.76.844-3.889.562-7.77 1.349-11.386 2.598h-.025a1.929 1.929 0 01-2.094-.538 120.464 120.464 0 01-3.608-4.261c-.587-.72-1.167-1.432-1.729-2.16-.571-.729-1.142-1.449-1.697-2.185-1.125-1.465-2.209-2.954-3.302-4.444-1.059-1.514-2.143-3.004-3.153-4.543-4.121-6.115-7.935-12.454-11.221-19.091-.794-1.672-1.655-3.31-2.375-5.023l-1.117-2.549-.273-.62c-.066-.108-.108-.24-.182-.34-.141-.207-.29-.414-.488-.563-.182-.173-.406-.28-.629-.397-.24-.074-.48-.165-.737-.174a2.286 2.286 0 00-1.423.323 1.71 1.71 0 01-.157.091l-.141.124c-.108.067-.182.174-.273.265l-.066.066-.1.125-.206.264-.414.53a70.049 70.049 0 00-1.606 2.143c-4.22 5.776-7.787 12.049-10.832 18.553-6.082 13.034-9.897 27.102-11.809 41.385-1.903 14.308-1.944 28.847-.496 43.246.025.34-.025.654-.141.952v.025a30.128 30.128 0 00-.637 1.696 55.312 55.312 0 00-.579 1.78 75.89 75.89 0 00-1.01 3.608 77.013 77.013 0 00-1.498 7.348c-.769 4.94-1.026 9.947-.695 14.896.356 4.94 1.341 9.822 3.07 14.432a45.292 45.292 0 007.332 12.719c3.136 3.806 6.877 7.125 11.006 9.913 2.044 1.424 4.229 2.665 6.43 3.848 1.125.563 2.234 1.151 3.385 1.655.571.257 1.142.53 1.721.778l1.746.72c4.675 1.895 9.525 3.41 14.432 4.759 4.907 1.373 9.906 2.482 14.929 3.682.124.033.206.157.173.281a.237.237 0 01-.231.182c-5.181-.049-10.353-.612-15.475-1.539-1.283-.223-2.549-.521-3.823-.794-1.275-.282-2.532-.637-3.799-.952-1.249-.372-2.507-.736-3.748-1.142l-1.854-.645-.927-.323-.918-.356-1.837-.712c-.613-.24-1.209-.513-1.813-.769-1.216-.497-2.4-1.084-3.583-1.647-2.35-1.192-4.684-2.441-6.893-3.906-4.461-2.863-8.549-6.388-12.024-10.468-3.476-4.08-6.248-8.797-8.168-13.803a51.512 51.512 0 01-2.292-7.704 58.248 58.248 0 01-1.109-7.928c-.381-5.321-.05-10.65.803-15.864a75.56 75.56 0 011.688-7.745 62.264 62.264 0 011.15-3.799c.207-.629.43-1.258.662-1.878.24-.638.464-1.225.753-1.904l-.149.977c-1.473-14.656-1.44-29.51.513-44.165 1.962-14.64 5.867-29.088 12.14-42.535 3.145-6.72 6.827-13.2 11.221-19.215a89.432 89.432 0 011.68-2.235l.431-.554.215-.273.116-.14.165-.183c.224-.24.439-.488.704-.695l.388-.314.422-.273c.563-.356 1.2-.588 1.846-.754.654-.132 1.316-.198 1.969-.124.662.042 1.3.224 1.912.464.604.273 1.183.596 1.68 1.042.513.422.935.952 1.291 1.507.182.28.306.579.455.868l.281.63 1.084 2.465c.695 1.655 1.531 3.253 2.301 4.883 3.194 6.455 6.918 12.653 10.956 18.636.993 1.506 2.061 2.97 3.087 4.452 1.067 1.456 2.127 2.921 3.227 4.353.546.72 1.101 1.431 1.655 2.143.555.712 1.118 1.415 1.689 2.11a114.292 114.292 0 003.467 4.096l-2.127-.537c4.005-1.383 8.06-2.194 12.132-2.79a86.47 86.47 0 0112.322-.885c4.121.017 8.242.29 12.321.886 4.072.587 8.127 1.407 12.132 2.789l-2.127.537a123.29 123.29 0 003.468-4.096 107.05 107.05 0 001.688-2.11c.562-.712 1.117-1.424 1.655-2.143 1.1-1.432 2.16-2.897 3.227-4.353 1.035-1.481 2.102-2.946 3.095-4.452 4.038-5.983 7.762-12.19 10.956-18.645.77-1.621 1.614-3.219 2.301-4.874l1.084-2.466.281-.629c.149-.29.274-.595.456-.868.355-.555.777-1.085 1.29-1.507.497-.446 1.085-.77 1.68-1.042.613-.24 1.258-.422 1.912-.464.654-.074 1.324 0 1.969.124.646.166 1.283.398 1.846.754l.422.264.389.315c.265.207.48.447.703.695l.166.182.116.14.215.274.43.554a87.042 87.042 0 011.68 2.234c4.394 6.025 8.077 12.504 11.221 19.216 6.273 13.447 10.187 27.896 12.148 42.534 1.945 14.656 1.986 29.51.513 44.166l-.149-.977c.29.679.513 1.274.753 1.912.232.62.456 1.249.662 1.878a77.147 77.147 0 011.151 3.799 77.048 77.048 0 011.688 7.737c.852 5.213 1.175 10.551.803 15.864a58.549 58.549 0 01-1.109 7.927 51.41 51.41 0 01-2.293 7.705c-1.928 5.014-4.692 9.723-8.167 13.803-3.476 4.079-7.564 7.605-12.024 10.468-2.218 1.465-4.552 2.714-6.902 3.906-1.191.563-2.375 1.15-3.591 1.647-.604.256-1.2.529-1.813.769l-1.837.712-.918.356-.927.322-1.854.638c-1.241.405-2.499.769-3.748 1.142-1.266.331-2.524.67-3.79.96-1.275.264-2.541.571-3.824.786l-1.919.331c-.646.107-1.283.223-1.929.298-1.291.165-2.573.339-3.864.455-1.291.124-2.582.223-3.873.306-1.299.05-2.59.099-3.889.108a.202.202 0 01-.199-.199c0-.091.058-.174.149-.19l-.041.049z" fill="#000"/><path fill-rule="evenodd" clip-rule="evenodd" d="M253.942 77.82c30.635 7.233 51.207 20.614 51.207 35.932 0 5.668-2.821 11.08-7.936 16.004 13.084-8.283 27.574-7.952 43.305 0-5.106-4.932-7.936-10.336-7.936-16.004 0-15.136 20.101-28.393 50.156-35.683a79.094 79.094 0 00-6.314-5.768H259.842a77.885 77.885 0 00-5.9 5.511v.009z" fill="#9355F7"/><path fill-rule="evenodd" clip-rule="evenodd" d="M271.61 75.14c22.997 0 41.649 18.644 41.649 41.649 0 23.006-18.644 41.65-41.649 41.65-21.375 0-38.993-16.112-41.368-36.85l-3.923-.455a1.476 1.476 0 01-1.29-1.63l2.143-18.355a1.475 1.475 0 011.63-1.29l4.527.529c6.372-14.838 21.11-25.24 38.289-25.24l-.008-.008zm94.321 0c-22.997 0-41.649 18.644-41.649 41.649 0 23.006 18.644 41.65 41.649 41.65 21.375 0 38.993-16.112 41.368-36.85l3.923-.455a1.477 1.477 0 001.291-1.63l-2.144-18.355a1.475 1.475 0 00-1.63-1.29l-4.526.529c-6.372-14.838-21.111-25.24-38.29-25.24l.008-.008z" fill="#000"/><path fill-rule="evenodd" clip-rule="evenodd" d="M361.802 75.338h-86.063c21.061 2.069 37.52 19.836 37.52 41.443a41.53 41.53 0 01-3.186 16.004c5.255-8.284 11.081-7.953 17.411 0a41.56 41.56 0 01-3.186-16.004c0-21.607 16.46-39.374 37.52-41.443h-.016z" fill="#000"/><path d="M288.653 149.101c19.219-8.047 28.275-30.151 20.228-49.37-8.048-19.22-30.152-28.276-49.371-20.228-19.219 8.047-28.275 30.151-20.228 49.37 8.047 19.219 30.151 28.276 49.371 20.228z" fill="#333"/><path fill-rule="evenodd" clip-rule="evenodd" d="M363.432 76.555c-20.837 0-37.727 16.89-37.727 37.727 0 20.837 16.89 37.727 37.727 37.727 20.837 0 37.727-16.89 37.727-37.727 0-20.837-16.89-37.727-37.727-37.727z" fill="#333"/><path fill-rule="evenodd" clip-rule="evenodd" d="M275.731 75.338h40.491v12.405H301.45c-6.67-6.852-15.665-11.412-25.719-12.405z" fill="#4D4D4D"/><path fill-rule="evenodd" clip-rule="evenodd" d="M279.629 80.337h31.669v2.408h-25.455a83.525 83.525 0 00-6.214-2.408z" fill="#fff"/><path d="M305.443 117.448c2.782-17.082-8.811-33.186-25.893-35.968-17.083-2.782-33.187 8.81-35.969 25.894-2.782 17.082 8.811 33.186 25.894 35.968 17.083 2.782 33.186-8.811 35.968-25.894zm86.466 7.192c6.701-15.957-.802-34.326-16.76-41.028-15.958-6.701-34.327.803-41.028 16.76-6.702 15.958.802 34.327 16.76 41.028 15.957 6.702 34.326-.802 41.028-16.76z" fill="#666"/><path fill-rule="evenodd" clip-rule="evenodd" d="M276.169 82.1c15.856 0 28.707 12.85 28.707 28.706 0 15.855-12.851 28.707-28.707 28.707-15.855 0-28.706-12.852-28.706-28.707s12.851-28.707 28.706-28.707zm85.194 0c-15.855 0-28.706 12.85-28.706 28.706 0 15.855 12.851 28.707 28.706 28.707 15.856 0 28.707-12.852 28.707-28.707s-12.851-28.707-28.707-28.707z" fill="#1A1A1A"/><path fill-rule="evenodd" clip-rule="evenodd" d="M361.206 85.21c-14.051 0-25.438 11.387-25.438 25.439 0 14.051 11.387 25.438 25.438 25.438 14.051 0 25.438-11.387 25.438-25.438 0-14.052-11.387-25.439-25.438-25.439z" fill="url(#paint2_linear_55_912)"/><path fill-rule="evenodd" clip-rule="evenodd" d="M276.327 85.21c-14.052 0-25.438 11.387-25.438 25.439 0 14.051 11.386 25.438 25.438 25.438 14.051 0 25.438-11.387 25.438-25.438 0-14.052-11.387-25.439-25.438-25.439z" fill="url(#paint3_linear_55_912)"/><path fill-rule="evenodd" clip-rule="evenodd" d="M252.213 133.365a4.584 4.584 0 110 9.17 4.584 4.584 0 010-9.17z" fill="#1A1A1A"/><path fill-rule="evenodd" clip-rule="evenodd" d="M252.213 134.192a3.768 3.768 0 013.765 3.765 3.768 3.768 0 01-3.765 3.765 3.768 3.768 0 01-3.766-3.765 3.768 3.768 0 013.766-3.765z" fill="#fff"/><path fill-rule="evenodd" clip-rule="evenodd" d="M242.638 139.471l18.826 13.348a1.4 1.4 0 01.323 1.97l-2.458 3.409a1.443 1.443 0 01-1.986.331l-18.826-13.348a1.4 1.4 0 01-.323-1.969l2.458-3.41a1.445 1.445 0 011.986-.331z" fill="#333"/><path fill-rule="evenodd" clip-rule="evenodd" d="M243.979 141.879l14.746 10.46c.497.356.613 1.051.257 1.539l-1.432 1.978a1.121 1.121 0 01-1.556.257l-14.754-10.46a1.111 1.111 0 01-.257-1.548l1.432-1.977a1.12 1.12 0 011.555-.257l.009.008z" fill="#000"/><path fill-rule="evenodd" clip-rule="evenodd" d="M361.802 75.338h-40.491v12.405h14.772c6.661-6.852 15.665-11.412 25.719-12.405z" fill="#4D4D4D"/><path fill-rule="evenodd" clip-rule="evenodd" d="M357.904 80.337h-31.669v2.408h25.454a83.722 83.722 0 016.215-2.408z" fill="#fff"/><path fill-rule="evenodd" clip-rule="evenodd" d="M385.32 133.365a4.584 4.584 0 100 9.17 4.584 4.584 0 000-9.17z" fill="#1A1A1A"/><path fill-rule="evenodd" clip-rule="evenodd" d="M385.32 134.192a3.768 3.768 0 00-3.765 3.765 3.768 3.768 0 003.765 3.765 3.768 3.768 0 003.765-3.765 3.768 3.768 0 00-3.765-3.765z" fill="#fff"/><path fill-rule="evenodd" clip-rule="evenodd" d="M394.894 139.471l-18.826 13.348a1.4 1.4 0 00-.322 1.97l2.457 3.409a1.443 1.443 0 001.986.331l18.827-13.348a1.4 1.4 0 00.322-1.969l-2.457-3.41a1.446 1.446 0 00-1.987-.331z" fill="#333"/><path fill-rule="evenodd" clip-rule="evenodd" d="M393.554 141.879l-14.746 10.46a1.102 1.102 0 00-.257 1.539l1.432 1.978a1.12 1.12 0 001.555.257l14.747-10.46a1.112 1.112 0 00.257-1.548l-1.432-1.977a1.121 1.121 0 00-1.556-.257v.008zm-38.48-62.205c-.935 0-1.696.762-1.696 1.697s.761 1.696 1.696 1.696a1.7 1.7 0 001.697-1.696 1.7 1.7 0 00-1.697-1.697zm-72.334 0c-.935 0-1.696.762-1.696 1.697s.761 1.696 1.696 1.696c.935 0 1.696-.761 1.696-1.696 0-.935-.761-1.697-1.696-1.697z" fill="#000"/><path fill-rule="evenodd" clip-rule="evenodd" d="M283.717 86.303l-18.645 47.169a25.529 25.529 0 01-9.135-7.605l15.913-40.26a25.736 25.736 0 014.477-.397c2.565 0 5.048.381 7.381 1.093h.009zm7.985 4.08l-18.007 45.572a25.036 25.036 0 01-5.586-1.225l18.686-47.277a25.58 25.58 0 014.916 2.93h-.009zm76.993-4.055l-18.652 47.185a25.573 25.573 0 01-9.153-7.547l15.963-40.383a25.968 25.968 0 014.353-.373c2.607 0 5.122.398 7.489 1.126v-.008zm7.978 4.121l-17.991 45.514a25.171 25.171 0 01-5.594-1.2l18.677-47.269a25.527 25.527 0 014.899 2.955h.009z" fill="#fff"/><path fill-rule="evenodd" clip-rule="evenodd" d="M343.05 53.781c6.438 9.351 17.469 14.631 28.31 18.529h5.064a70.08 70.08 0 013.236 2.797s5.942-22.592 1.961-40.524c-3.988-17.924-8.159-27.4-8.159-27.4a1.544 1.544 0 00-.298.224c-.199.149-.348.356-.488.563-.075.107-.116.231-.182.339l-.273.62-1.118 2.55c-.72 1.712-1.58 3.35-2.375 5.022-3.285 6.637-7.1 12.976-11.221 19.091-1.018 1.54-2.102 3.03-3.153 4.544-1.092 1.48-2.168 2.978-3.293 4.435-.555.736-1.126 1.465-1.697 2.193a85.546 85.546 0 01-1.729 2.16 112.504 112.504 0 01-3.608 4.261 1.916 1.916 0 01-.968.588l-.009.008z" fill="#333"/><path fill-rule="evenodd" clip-rule="evenodd" d="M380.645 70.704c1.497-7.448 3.889-23.03.976-36.13-2.193-9.864-4.444-17.171-6.024-21.747-.34.687-.679 1.373-1.002 2.06-3.285 6.637-7.1 12.976-11.221 19.091-1.018 1.54-2.102 3.029-3.153 4.543-11.8 14.292-4.319 21.086 20.432 32.175l-.008.008z" fill="url(#paint4_linear_55_912)"/><path fill-rule="evenodd" clip-rule="evenodd" d="M374.86 9.914c1.275 1.854 2.309 3.832 3.252 5.85a65.707 65.707 0 012.5 6.207c1.464 4.22 2.499 8.581 3.318 12.976.381 2.2.728 4.41.968 6.636.058.555.124 1.11.174 1.664l.141 1.671c.107 1.118.149 2.235.215 3.352.223 4.468.149 8.954-.207 13.422-.339 4.46-.952 8.913-1.804 13.307-.232 1.092-.422 2.201-.687 3.285l-.083.348c-.265-.116-.529-.232-.802-.34.298-.074.587-.148.885-.223a74.314 74.314 0 00-3.285-3.153l.149-.678a114.176 114.176 0 001.895-12.843c.38-4.312.513-8.648.405-12.984-.041-1.084-.058-2.169-.14-3.244l-.1-1.622c-.033-.546-.091-1.076-.14-1.622-.158-2.168-.431-4.32-.72-6.463-.315-2.144-.662-4.287-1.109-6.414-.207-1.067-.455-2.118-.687-3.186l-.778-3.169c-1.084-4.212-2.309-8.408-3.84-12.52v-.017c-.058-.14.017-.29.158-.348a.27.27 0 01.314.1l.008.008zm-1.986 45.688a4.447 4.447 0 004.436-4.436 4.447 4.447 0 00-4.436-4.435 4.446 4.446 0 00-4.435 4.435 4.446 4.446 0 004.435 4.436z" fill="#666"/><path fill-rule="evenodd" clip-rule="evenodd" d="M372.874 54.27a3.119 3.119 0 003.112-3.112 3.112 3.112 0 00-3.112-3.103 3.11 3.11 0 00-3.103 3.103c0 1.705 1.399 3.111 3.103 3.111z" fill="#fff"/><path fill-rule="evenodd" clip-rule="evenodd" d="M374.198 40.98a2.79 2.79 0 000-5.578 2.79 2.79 0 000 5.577z" fill="#666"/><path fill-rule="evenodd" clip-rule="evenodd" d="M374.198 40.143a1.956 1.956 0 001.953-1.953 1.956 1.956 0 00-1.953-1.953 1.956 1.956 0 00-1.953 1.953c0 1.076.877 1.953 1.953 1.953z" fill="#fff"/><path fill-rule="evenodd" clip-rule="evenodd" d="M374.877 28.334a1.974 1.974 0 001.969-1.97c0-1.083-.885-1.969-1.969-1.969s-1.97.886-1.97 1.97.886 1.97 1.97 1.97z" fill="#666"/><path fill-rule="evenodd" clip-rule="evenodd" d="M374.877 27.739c.761 0 1.382-.62 1.382-1.382 0-.761-.621-1.382-1.382-1.382-.761 0-1.382.62-1.382 1.382 0 .761.621 1.382 1.382 1.382z" fill="#fff"/><path fill-rule="evenodd" clip-rule="evenodd" d="M294.45 53.781c-6.439 9.351-17.469 14.631-28.31 18.529h-5.065a70.584 70.584 0 00-3.235 2.797s-5.942-22.592-1.961-40.524c3.988-17.924 8.159-27.4 8.159-27.4.108.067.207.133.298.224.199.149.348.356.488.563.075.107.116.231.182.339l.273.62 1.117 2.55c.72 1.712 1.581 3.35 2.375 5.022 3.286 6.637 7.101 12.976 11.222 19.091 1.018 1.54 2.102 3.03 3.153 4.544 1.092 1.48 2.168 2.978 3.293 4.435.555.736 1.126 1.465 1.697 2.193a85.546 85.546 0 001.729 2.16 112.504 112.504 0 003.608 4.261c.265.298.604.497.968.588l.009.008z" fill="#333"/><path fill-rule="evenodd" clip-rule="evenodd" d="M257.26 70.704c-1.497-7.448-3.881-23.03-.976-36.13 2.193-9.864 4.444-17.171 6.024-21.747.34.687.679 1.373 1.002 2.06 3.285 6.637 7.1 12.976 11.221 19.091 1.018 1.54 2.102 3.029 3.153 4.543 11.8 14.292 4.319 21.086-20.432 32.175l.008.008z" fill="url(#paint5_linear_55_912)"/><path fill-rule="evenodd" clip-rule="evenodd" d="M262.639 9.914c-1.274 1.853-2.308 3.831-3.252 5.85a65.699 65.699 0 00-2.499 6.207c-1.465 4.22-2.499 8.581-3.318 12.975-.381 2.202-.729 4.411-.969 6.637-.058.555-.124 1.11-.173 1.663l-.141 1.672c-.108 1.117-.149 2.234-.215 3.352-.224 4.468-.149 8.953.207 13.422.339 4.46.951 8.913 1.804 13.307.231 1.092.422 2.2.687 3.285l.082.356c.265-.116.637-.273.902-.39-.298-.074-.653-.156-.951-.23a82.341 82.341 0 013.235-3.112c-.049-.224-.099-.456-.149-.679a114.177 114.177 0 01-1.895-12.843 113.38 113.38 0 01-.397-12.984c.041-1.084.058-2.168.141-3.244l.099-1.622c.033-.546.091-1.076.141-1.622.157-2.168.43-4.32.72-6.463.314-2.143.662-4.286 1.109-6.413.206-1.068.455-2.119.686-3.186l.778-3.17c1.084-4.212 2.309-8.407 3.84-12.52v-.017c.058-.14-.017-.29-.157-.347a.272.272 0 00-.315.1v.016zm1.986 45.688a4.446 4.446 0 004.436-4.436 4.446 4.446 0 00-4.436-4.435 4.446 4.446 0 00-4.435 4.435 4.446 4.446 0 004.435 4.436z" fill="#666"/><path fill-rule="evenodd" clip-rule="evenodd" d="M264.625 54.27a3.112 3.112 0 003.104-3.112 3.11 3.11 0 00-3.104-3.103c-1.704 0-3.111 1.398-3.111 3.103a3.123 3.123 0 003.111 3.111z" fill="#fff"/><path fill-rule="evenodd" clip-rule="evenodd" d="M263.31 40.98a2.79 2.79 0 002.789-2.79 2.79 2.79 0 00-2.789-2.788 2.79 2.79 0 00-2.789 2.789 2.79 2.79 0 002.789 2.788z" fill="#666"/><path fill-rule="evenodd" clip-rule="evenodd" d="M263.31 40.143a1.957 1.957 0 001.953-1.953 1.957 1.957 0 00-1.953-1.953 1.956 1.956 0 00-1.953 1.953c0 1.076.877 1.953 1.953 1.953z" fill="#fff"/><path fill-rule="evenodd" clip-rule="evenodd" d="M262.631 28.334c1.084 0 1.97-.885 1.97-1.97a1.975 1.975 0 00-1.97-1.969 1.974 1.974 0 00-1.969 1.97c0 1.084.885 1.97 1.969 1.97z" fill="#666"/><path fill-rule="evenodd" clip-rule="evenodd" d="M262.631 27.739c.762 0 1.382-.62 1.382-1.382 0-.761-.62-1.382-1.382-1.382-.761 0-1.382.62-1.382 1.382 0 .761.621 1.382 1.382 1.382zm56.123 192.739c6.794 0 12.339-5.544 12.339-12.338s-5.545-12.339-12.339-12.339c-6.794 0-12.338 5.545-12.338 12.339 0 6.794 5.544 12.338 12.338 12.338z" fill="#fff"/><path fill-rule="evenodd" clip-rule="evenodd" d="M318.754 218.351c5.619 0 10.203-4.584 10.203-10.203s-4.584-10.204-10.203-10.204-10.204 4.585-10.204 10.204c0 5.619 4.585 10.203 10.204 10.203z" fill="#989898"/><path fill-rule="evenodd" clip-rule="evenodd" d="M318.754 215.033c3.79 0 6.885-3.095 6.885-6.885 0-3.79-3.095-6.885-6.885-6.885-3.79 0-6.885 3.095-6.885 6.885 0 3.79 3.095 6.885 6.885 6.885z" fill="#000"/><path fill-rule="evenodd" clip-rule="evenodd" d="M302.576 285.323c-.48.281-.794.786-.852 1.332-.497 4.891-.456 9.732-.24 14.573.116 2.417.281 4.825.471 7.233.191 2.408.348 4.824.588 7.224.422 4.816.927 9.624 1.531 14.44l.083.671-.183-.116c-6.976-4.262-18.892-7.009-31.446-1.928-3.641 1.473-6.818 3.31-9.417 5.412l-.314-1.018a388.315 388.315 0 01-4.345-15.508c-2.664-10.402-4.89-20.912-6.545-31.496-1.639-10.575-2.698-21.234-2.847-31.876-.042-5.313.074-10.625.571-15.88.496-5.255 1.283-10.46 2.441-15.566v-.05a3.484 3.484 0 00-1.672-3.823l3.915-13.795c7.828 8.143 25.537 15.376 64.538 15.541l.083 4.328c-6.463.654-23.808 4.113-25.703 22.484-1.316 12.703 4.32 24.743 9.343 37.785v.033z" fill="url(#paint6_linear_55_912)"/><path fill-rule="evenodd" clip-rule="evenodd" d="M274.382 215.794c-9.169 38.232-2.325 68.246 5.718 103.433.538 2.342 1.076 4.717 1.614 7.1a37.634 37.634 0 00-8.019 1.986c-.554-2.449-1.1-4.858-1.647-7.249-8.333-36.486-15.433-67.568-5.511-107.992 2.317.976 4.916 1.887 7.845 2.714v.008z" fill="#CBCBCB"/><path fill-rule="evenodd" clip-rule="evenodd" d="M281.64 217.541c-8.4 37.536-1.614 67.253 6.314 101.959.496 2.193 1.009 4.403 1.514 6.629a38.601 38.601 0 00-3.418-.125 1447.09 1447.09 0 00-1.316-5.776c-8.018-35.12-14.887-65.184-6.322-103.407 1.043.248 2.119.48 3.228.703v.017z" fill="#CBCBCB"/><path fill-rule="evenodd" clip-rule="evenodd" d="M295.633 323.398a4.447 4.447 0 004.435-4.436 4.446 4.446 0 00-4.435-4.435 4.447 4.447 0 00-4.436 4.435 4.447 4.447 0 004.436 4.436z" fill="#000"/><path fill-rule="evenodd" clip-rule="evenodd" d="M295.633 322.066a3.11 3.11 0 003.103-3.103 3.115 3.115 0 00-3.103-3.104c-1.705 0-3.112 1.399-3.112 3.104a3.117 3.117 0 003.112 3.103z" fill="#fff"/><path fill-rule="evenodd" clip-rule="evenodd" d="M292.472 306.119a4.447 4.447 0 004.435-4.436 4.446 4.446 0 00-4.435-4.435 4.447 4.447 0 00-4.436 4.435 4.447 4.447 0 004.436 4.436z" fill="#000"/><path fill-rule="evenodd" clip-rule="evenodd" d="M292.472 304.786a3.11 3.11 0 003.103-3.111 3.11 3.11 0 00-3.103-3.103c-1.705 0-3.112 1.398-3.112 3.103a3.124 3.124 0 003.112 3.111z" fill="#fff"/><path fill-rule="evenodd" clip-rule="evenodd" d="M289.219 285.166a3.843 3.843 0 003.84-3.84 3.842 3.842 0 00-3.84-3.84 3.842 3.842 0 00-3.839 3.84 3.843 3.843 0 003.839 3.84z" fill="#000"/><path fill-rule="evenodd" clip-rule="evenodd" d="M289.219 284.015a2.694 2.694 0 002.69-2.689 2.695 2.695 0 00-2.69-2.69 2.694 2.694 0 00-2.689 2.69 2.694 2.694 0 002.689 2.689z" fill="#fff"/><path fill-rule="evenodd" clip-rule="evenodd" d="M285.495 263.121a2.813 2.813 0 002.806-2.805 2.808 2.808 0 00-2.806-2.806 2.808 2.808 0 00-2.805 2.806 2.808 2.808 0 002.805 2.805z" fill="#000"/><path fill-rule="evenodd" clip-rule="evenodd" d="M285.496 262.277a1.966 1.966 0 001.961-1.961 1.972 1.972 0 00-1.961-1.962 1.972 1.972 0 00-1.962 1.962c0 1.075.886 1.961 1.962 1.961z" fill="#fff"/><path fill-rule="evenodd" clip-rule="evenodd" d="M287.532 244.112a1.983 1.983 0 001.977-1.978 1.988 1.988 0 00-1.977-1.978 1.989 1.989 0 00-1.978 1.978c0 1.084.894 1.978 1.978 1.978z" fill="#000"/><path fill-rule="evenodd" clip-rule="evenodd" d="M287.532 243.525c.761 0 1.39-.621 1.39-1.39 0-.77-.621-1.39-1.39-1.39-.77 0-1.391.62-1.391 1.39 0 .769.621 1.39 1.391 1.39z" fill="#fff"/><path fill-rule="evenodd" clip-rule="evenodd" d="M425.099 284.744c.414.322-9.409-21.566-8.986-21.276 6.272 4.237 14.167 5.205 19.198 2.59 4.494-2.333 4.568-7.025 4.634-10.451.075-4.279.381-6.141 3.153-7.399 1.059-.479 1.994-.504 2.855-.074 1.374.687 2.483 2.474 2.979 4.775 1.995 9.194-4.584 20.655-15.996 27.863a46.238 46.238 0 01-7.837 3.972zm1.937-4.734a42.828 42.828 0 003.997-2.242c4.717-2.979 9.053-7.084 11.842-11.95 2.052-3.583 3.475-8.01 2.582-12.156-.108-.497-.48-1.688-.927-2.193-.282.124-.571.248-.679.554-.323.869-.323 2.715-.339 3.65-.099 5.619-1.026 10.675-6.546 13.546-4.253 2.21-9.367 2.293-14.142 1.076.455 1.035.902 2.077 1.357 3.112.96 2.201 1.92 4.394 2.863 6.595l-.008.008z" fill="#9968FD"/><path fill-rule="evenodd" clip-rule="evenodd" d="M416.261 326.409c4.924-9.913 7.407-21.995 6.323-33.192-1.018-10.493-5.462-24.768-20.837-33.15a3.47 3.47 0 01-1.002-.82c-.364 9.401-1.365 18.736-2.797 27.979-1.688 10.841-3.964 21.565-6.686 32.158-.282 1.1-.571 2.201-.861 3.302 7.026-1.258 14.73-.572 22.112 2.143a40.842 40.842 0 013.748 1.589v-.009z" fill="url(#paint7_linear_55_912)"/><path fill-rule="evenodd" clip-rule="evenodd" d="M405.322 262.251c8.151 21.905 3.781 39.879-1.912 60.261a44.739 44.739 0 017.936 1.895c4.733-16.898 8.681-32.158 5.793-49.304-2.632-4.684-6.414-9.169-11.817-12.86v.008z" fill="#CBCBCB"/><path fill-rule="evenodd" clip-rule="evenodd" d="M400.042 270.171c4.469 18.321.612 34.251-4.32 51.935a46.593 46.593 0 013.385 0c5.677-20.406 9.856-38.546 1.547-60.798-.14 2.963-.347 5.909-.612 8.855v.008z" fill="#CBCBCB"/><path fill-rule="evenodd" clip-rule="evenodd" d="M448.411 304.116c4.866 0 8.83-3.963 8.83-8.829 0-4.866-3.964-8.83-8.83-8.83s-8.83 3.964-8.83 8.83 3.964 8.829 8.83 8.829z" fill="#000"/><path d="M452.786 299.666a6.188 6.188 0 000-8.753 6.188 6.188 0 00-8.753 0 6.188 6.188 0 000 8.753 6.188 6.188 0 008.753 0z" fill="#fff"/><path d="M466.6 280.953a6.132 6.132 0 100-12.264 6.132 6.132 0 000 12.264z" fill="#000"/><path fill-rule="evenodd" clip-rule="evenodd" d="M466.6 279.116a4.302 4.302 0 004.295-4.295 4.302 4.302 0 00-4.295-4.294 4.301 4.301 0 00-4.295 4.294 4.301 4.301 0 004.295 4.295z" fill="#fff"/><path fill-rule="evenodd" clip-rule="evenodd" d="M467.444 252.958a5.058 5.058 0 005.048-5.048 5.057 5.057 0 00-5.048-5.047 5.057 5.057 0 00-5.048 5.047 5.057 5.057 0 005.048 5.048z" fill="#000"/><path fill-rule="evenodd" clip-rule="evenodd" d="M467.444 251.444a3.542 3.542 0 003.533-3.534 3.542 3.542 0 00-3.533-3.533 3.542 3.542 0 00-3.534 3.533 3.543 3.543 0 003.534 3.534z" fill="#fff"/><defs><linearGradient id="paint0_linear_55_912" x1="130.848" y1="124.684" x2="395.056" y2="156.709" gradientUnits="userSpaceOnUse"><stop stop-color="#9A68FE"/><stop offset="1" stop-color="#FF23CF"/></linearGradient><linearGradient id="paint1_linear_55_912" x1="130.848" y1="124.684" x2="395.056" y2="156.709" gradientUnits="userSpaceOnUse"><stop stop-color="#9A68FE"/><stop offset="1" stop-color="#FF23CF"/></linearGradient><linearGradient id="paint2_linear_55_912" x1="354.379" y1="129.268" x2="368.033" y2="92.029" gradientUnits="userSpaceOnUse"><stop stop-color="#7D5CA3"/><stop offset="1" stop-color="#C33C8E"/></linearGradient><linearGradient id="paint3_linear_55_912" x1="269.5" y1="129.268" x2="283.154" y2="92.029" gradientUnits="userSpaceOnUse"><stop stop-color="#7D5CA3"/><stop offset="1" stop-color="#C33C8E"/></linearGradient><linearGradient id="paint4_linear_55_912" x1="354.743" y1="41.765" x2="382.995" y2="41.765" gradientUnits="userSpaceOnUse"><stop stop-color="#2A2C2A"/><stop offset="1" stop-color="#BFBEBE"/></linearGradient><linearGradient id="paint5_linear_55_912" x1="283.17" y1="41.765" x2="254.91" y2="41.765" gradientUnits="userSpaceOnUse"><stop stop-color="#2A2C2A"/><stop offset="1" stop-color="#BFBEBE"/></linearGradient><linearGradient id="paint6_linear_55_912" x1="314.89" y1="242.656" x2="250.111" y2="288.683" gradientUnits="userSpaceOnUse"><stop stop-color="#AAACAC"/><stop offset="1" stop-color="#3A3B3A"/></linearGradient><linearGradient id="paint7_linear_55_912" x1="387.91" y1="304.348" x2="416.716" y2="288.236" gradientUnits="userSpaceOnUse"><stop stop-color="#3C3C3B"/><stop offset="1" stop-color="#A09FA0"/></linearGradient><filter id="filter0_f_55_912" x=".687" y="6.684" width="504.882" height="504.882" filterUnits="userSpaceOnUse" color-interpolation-filters="sRGB"><feFlood flood-opacity="0" result="BackgroundImageFix"/><feBlend in="SourceGraphic" in2="BackgroundImageFix" result="shape"/><feGaussianBlur stdDeviation="59" result="effect1_foregroundBlur_55_912"/></filter></defs></svg>