<svg width="231" height="210" fill="none" xmlns="http://www.w3.org/2000/svg"><path fill-rule="evenodd" clip-rule="evenodd" d="M128.171 5.47L127.715 0c14.731 2.267 28.606 9.19 39.309 20.016l-4.982 2.562c-9.405-9.026-21.271-14.908-33.875-17.103l.004-.004z" fill="#FDFDFD"/><path fill-rule="evenodd" clip-rule="evenodd" d="M117.988 7.077c19.249.9 37.655 10.365 49.432 26.532l-5.572 2.864c-10.506-13.927-26.532-22.158-43.344-23.174l-.516-6.222zM55.79 87.704c-.04-.149-.084-.294-.12-.444-2.474-9.485-2.587-19.483-.424-29.033l2.57 1.163c-2.159 9.929-1.767 20.459 1.517 30.533a58.6 58.6 0 003.61 8.667c11.669 22.694 36.2 34.548 60.153 31.264l3.554 2.223c-12.689 2.429-26.124.714-37.885-4.85-12.29-5.814-22.07-15.279-28.286-27.37a61.64 61.64 0 01-4.693-12.153h.004z" fill="#F0F"/><path fill-rule="evenodd" clip-rule="evenodd" d="M45.599 81.326l6.552 4.103a64.356 64.356 0 005.673 15.791c13.879 27 44.203 40.02 72.453 33.128l6.56 4.108c-32.147 10.514-68.18-3.579-84.13-34.601a69.805 69.805 0 01-7.108-22.53z" fill="#FDFDFD"/><path fill-rule="evenodd" clip-rule="evenodd" d="M47.136 54.564l4.906 2.215a64.468 64.468 0 00-.742 26.535l-5.91-3.7a70.283 70.283 0 011.746-25.05z" fill="#9968FD"/><path fill-rule="evenodd" clip-rule="evenodd" d="M177.438 39.729c14.786 28.767 7.69 63.105-15.15 83.912l-6.629-4.479c13.689-11.494 22.396-28.734 22.396-48.008 0-11.228-2.957-21.766-8.13-30.876l6.105-3.14a69.6 69.6 0 011.408 2.59z" fill="#fff"/><path fill-rule="evenodd" clip-rule="evenodd" d="M79.768 106.138a27.941 27.941 0 01-6.153-5.362 24.464 24.464 0 01-4.22-7.133 26.69 26.69 0 01-1.178-3.958 29.977 29.977 0 01-.569-4.059c-.181-2.578-.048-5.29.404-8.057.193-1.198.463-2.449.802-3.72a1.578 1.578 0 01-.028-.133c-.778-1.166-1.174-2.756-1.174-4.724 0-1.655.69-3.131 1.957-4.225a94.964 94.964 0 01-.036-6.6 32.51 32.51 0 01.004-.004c.088-3.087.33-6.125.722-9.086 1.02-7.626 3.054-14.739 6.04-21.142 1.654-3.538 3.542-6.77 5.608-9.598.286-.4.585-.79.839-1.122l.407-.516.125-.141c.126-.137.283-.31.497-.48l.238-.194.274-.174c.38-.238.803-.415 1.3-.54l.035-.008.037-.008a4.99 4.99 0 01.968-.105 4.645 4.645 0 011.686.33l.041.013.036.02c.464.206.84.444 1.15.714.335.274.626.617.896 1.041.109.17.185.33.25.46l.056.121.69 1.561c.218.517.464 1.025.73 1.562.126.254.247.508.368.762 1.424 2.873 3.139 5.794 5.24 8.909.336.508.67.984 1.025 1.489.154.217.307.431.46.649l.299.407c.404.557.823 1.126 1.247 1.67.29.388.581.755.799 1.03a69.29 69.29 0 001.492 1.843c1.372-.383 2.869-.69 4.62-.944a44.27 44.27 0 016.201-.447c2.134.008 4.22.157 6.213.447 1.755.255 3.248.557 4.62.944.218-.262.444-.532.678-.823.302-.367.565-.698.807-1.008.226-.287.516-.654.795-1.025.431-.557.843-1.126 1.246-1.674l.307-.42c.153-.218.303-.436.456-.65.359-.504.694-.98 1.021-1.472 2.11-3.127 3.828-6.048 5.257-8.945.113-.234.238-.488.363-.742.262-.537.512-1.041.726-1.558l.686-1.565.056-.121c.061-.13.142-.29.255-.464.266-.42.56-.759.891-1.037.311-.274.69-.508 1.15-.718l.036-.016.037-.012a4.706 4.706 0 011.686-.331c.303 0 .617.036.968.105l.037.008.036.008c.5.125.924.303 1.299.537l.275.177.242.198c.209.165.363.335.488.472l.129.145.399.512c.263.335.561.73.852 1.13 2.057 2.824 3.946 6.052 5.6 9.594 2.985 6.403 5.019 13.516 6.04 21.142.391 2.957.633 5.991.722 9.082a32.58 32.58 0 00.004.004 95.206 95.206 0 01-.037 6.604c1.267 1.094 1.957 2.57 1.957 4.225 0 1.968-.395 3.554-1.178 4.72-.008.044-.02.089-.028.133a39.97 39.97 0 01.803 3.724c.452 2.772.589 5.483.403 8.053a29.75 29.75 0 01-.569 4.055 26.7 26.7 0 01-1.178 3.966 24.507 24.507 0 01-4.22 7.129 27.953 27.953 0 01-6.169 5.37c.807 4.285-.294 16.514-33.447 16.514-35.15 0-35.488-11.604-34.895-16.526l-.004.008z" fill="#9968FD"/><path fill-rule="evenodd" clip-rule="evenodd" d="M142.397 113.235c-.96-3.216-1.372-4.434-1.727-5.528H87.224c-.36 1.102-.799 2.413-1.771 5.669a65.725 65.725 0 01-1.715-1.009c1.283-4.276 1.86-5.902 1.868-5.93a.966.966 0 01.916-.662h54.846c.416 0 .787.266.916.662.008.028.545 1.537 1.808 5.729-.573.371-1.134.73-1.695 1.073v-.004z" fill="#433B72"/><path fill-rule="evenodd" clip-rule="evenodd" d="M142.45 113.4c-.965-3.227-1.424-4.607-1.775-5.696H87.232c-.355 1.101-.75 2.247-1.727 5.515a56.218 56.218 0 01-1.714-1.009c1.279-4.264 1.8-5.705 1.823-5.777.13-.396.5-.662.916-.662h54.847c.415 0 .786.266.915.662.025.072.597 1.714 1.856 5.898-.573.371-1.133.731-1.694 1.073l-.004-.004z" fill="#000"/><path fill-rule="evenodd" clip-rule="evenodd" d="M113.949 104.379h31.087s6.649 15.098-31.087 15.098c-37.735 0-31.086-15.098-31.086-15.098h31.086z" fill="#9968FD"/><path fill-rule="evenodd" clip-rule="evenodd" d="M113.949 104.379h31.087s.064.15.145.416c-1.295 4.434-7.444 10.433-31.232 10.433s-29.933-5.999-31.232-10.433c.081-.266.146-.416.146-.416h31.086z" fill="#000"/><path fill-rule="evenodd" clip-rule="evenodd" d="M83.565 105.348c-.25.984-.505 3.098.972 5.333 2.36 3.571 9.376 7.832 29.412 7.832s27.052-4.261 29.412-7.832c1.477-2.235 1.223-4.345.973-5.333h-60.77zm57.892 9.824c-1.94 1.105-3.893 2.025-6.068 2.776-5.245 1.646-12.305 2.481-21.145 2.501-2.106-.004-4.067-.04-5.911-.121a88.482 88.482 0 01-7.343-.613c-5.434-.734-9.852-2.086-14.278-4.37-1.642-1.053-2.913-2.267-3.813-3.643-2.542-3.897-.984-7.557-.916-7.71a.963.963 0 01.884-.577h62.169c.383 0 .73.226.883.577.069.153 1.63 3.809-.915 7.71-.848 1.299-2.034 2.457-3.547 3.47z" fill="#000"/><path fill-rule="evenodd" clip-rule="evenodd" d="M125.565 111.1c-3.861.384-7.731.573-11.604.573h-.016c-3.877 0-7.754-.189-11.62-.573-3.768-.451-7.113-1.117-10.086-1.948-32.39-9.078-19.87-38.454-19.87-38.454-2.93-29.295 7.665-46.301 12.616-52.502 1.02-1.275 3.022-.977 3.651.528 5.01 12.04 13.701 21.601 13.701 21.601 1.344-.472 2.849-.827 4.322-1.089a41.291 41.291 0 0114.568 0c1.473.262 2.978.613 4.322 1.09 0 0 8.686-9.563 13.701-21.602.629-1.505 2.631-1.803 3.651-.528 4.951 6.2 15.55 23.207 12.617 52.502 0 0 14.92 35.004-29.953 40.398v.004z" fill="#FBA329"/><path fill-rule="evenodd" clip-rule="evenodd" d="M89.233 107.34a41.143 41.143 0 01-1.206-.468l-.852-.351c-.282-.121-.56-.254-.839-.379-.56-.246-1.105-.532-1.65-.807-1.077-.577-2.138-1.182-3.135-1.876-2.013-1.36-3.837-2.977-5.366-4.833a22.079 22.079 0 01-3.574-6.202c-.844-2.247-1.324-4.627-1.497-7.036a32.958 32.958 0 01.339-7.262c.165-1.077.375-2.147.637-3.204.194 2.284.843 5.374 2.28 8.376a26.62 26.62 0 00-.016.795c0 11.817 9.784 19.866 14.875 23.256l.004-.009zM75.338 63.646a1.471 1.471 0 00-.052-.142c-.63-1.662 1.529-3.933 3.348-3.933.154 0 .307.016.452.048 0 0 .42-5.06 4.41-5.06.186 0 .375.013.577.033l.867-.391s1.453 1.17.985 2.19c-.662 1.449-4.128-.004-4.51 4.487a1.75 1.75 0 01-.239.742c-2.614.666-4.607 1.46-5.838 2.022v.004z" fill="#BE6F00"/><path fill-rule="evenodd" clip-rule="evenodd" d="M138.657 107.344c5.197-3.457 15.295-11.78 14.872-24.013v-.04c.008.266.016.532.016.794 0 11.821-9.796 19.874-14.884 23.264l-.004-.005zm-49.424-.008c-5.092-3.389-14.871-11.442-14.876-23.255 0-.262.005-.529.017-.795v.04c-.424 12.225 9.663 20.545 14.86 24.006v.004z" fill="#4A4A8E"/><path fill-rule="evenodd" clip-rule="evenodd" d="M113.965 111.673h-.032c-3.837 0-7.674-.189-11.499-.564a.12.12 0 00-.088-.125c-2.453-.586-4.886-1.126-7.279-1.796-1.973-.545-3.93-1.142-5.83-1.852-5.2-3.461-15.287-11.78-14.86-24.006.122.34.255.678.396 1.021 2.57 1.67 16.534 10.466 20.577 7.355 4.188-3.224 4.93-14.411 8.428-20.463 1.787-3.09 5.665-5.362 9.223-5.48 4.741-.153 8.836 2.103 11.023 6.242 3.324 6.294 4.373 16.825 8.484 19.697 6.286 4.394 16.486-3.224 21.025-8.376v-.04c0 10.631-6.391 18.41-14.868 24.054-1.9.71-3.853 1.295-5.822 1.844-.601.153-1.198.331-1.803.48-.605.145-1.207.315-1.816.456-.609.133-1.214.299-1.827.436-.61.141-1.223.282-1.836.444a.1.1 0 00-.073.096v.009c-3.829.375-7.674.564-11.515.564l-.008.004zM75.169 85.259l.02.044-.012-.024-.012-.02h.004zm.338.686l.013.02.012.024-.025-.044zm.146.274l.008.016.016.028-.024-.044zm28.605 9.853a7.55 7.55 0 001.912 2.545c-.1.791-.165 1.606-.165 2.413 0 4.144 1.642 8.118 7.944 8.118h.032c7.525 0 8.409-5.669 7.779-10.526a7.44 7.44 0 001.864-2.445l-.04-.101c.25-.597.363-.82.553-1.57.706-.423 1.626-1.113 2.295-2.102a13.434 13.434 0 01-1.271-.952c-.048.04-.096.085-.149.125.165-.133.323-.278.472-.432 1.461-1.52 1.408-3.506 1.404-3.59a.968.968 0 00-1-.932.97.97 0 00-.932 1c0 .004.016 1.275-.88 2.199-.097.1-.202.19-.311.278a14.874 14.874 0 01-1.117-1.412c-.432.319-.981.52-1.675.52-2.122 0-3.538-1.762-4.309-3.098a5.623 5.623 0 002.304-4.563c0-1.65-1.267-2.55-2.538-3.038a7.068 7.068 0 00-2.509-.468c-.851 0-1.707.161-2.51.468-1.27.488-2.537 1.388-2.537 3.038 0 1.997.996 3.603 2.303 4.563-.766 1.336-2.182 3.099-4.309 3.099-.693 0-1.242-.202-1.674-.52-.343.488-.714.96-1.117 1.411a2.558 2.558 0 01-.311-.278c-.9-.92-.88-2.19-.88-2.199a.965.965 0 10-1.932-.068c0 .084-.057 2.065 1.404 3.59.149.154.306.299.472.432-.049-.04-.101-.08-.149-.125a14.7 14.7 0 01-1.271.952c.669.989 1.589 1.679 2.295 2.102.19.75.303.972.553 1.57v-.004z" fill="#fff"/><path fill-rule="evenodd" clip-rule="evenodd" d="M103.701 94.502c-.706-.423-1.626-1.113-2.296-2.102a13.83 13.83 0 001.271-.952c.222.194.46.363.719.517 0 .661.06 1.565.306 2.537zm20.532-.024c.242-.968.303-1.856.299-2.513.25-.15.484-.315.702-.5.395.33.811.645 1.255.935-.658.973-1.558 1.655-2.256 2.078zm-3.215-3.599h-.037c-5.115 0-6.027-5.164-6.064-5.382a.942.942 0 00-.157-.395l1.263-.464s1.585 4.567 5.003 4.567c.694 0 1.242-.202 1.678-.52.347.492.722.968 1.134 1.424-.674.504-1.618.766-2.816.77h-.004zm-14.073 0h-.036c-1.211-.004-2.163-.27-2.837-.786a14.65 14.65 0 001.118-1.413c.432.32.984.521 1.674.521 3.418 0 5.003-4.567 5.003-4.567l1.291.472a.977.977 0 00-.153.383c-.036.222-.948 5.386-6.064 5.386l.004.004z" fill="#fff"/><path fill-rule="evenodd" clip-rule="evenodd" d="M138.657 107.344c5.088-3.389 14.88-11.438 14.884-23.263 0-.262-.004-.529-.016-.795a24.66 24.66 0 002.279-8.376c.258 1.057.468 2.127.638 3.204.375 2.408.5 4.85.339 7.262-.174 2.409-.654 4.79-1.497 7.036a22.1 22.1 0 01-3.575 6.202c-1.529 1.856-3.349 3.473-5.366 4.833-.997.698-2.058 1.299-3.135 1.88-.549.275-1.089.561-1.65.807-.278.125-.557.258-.839.379l-.852.355c-.403.166-.806.323-1.214.472l.004.004zm13.907-43.698c-1.23-.561-3.223-1.356-5.838-2.022a1.788 1.788 0 01-.242-.75c-.403-4.527-4.018-3.313-4.506-4.483-.432-1.032.984-2.19.984-2.19l.863.391c.202-.024.392-.032.577-.032 3.995 0 4.41 5.06 4.41 5.06.145-.037.299-.05.452-.05 1.82 0 3.978 2.268 3.349 3.934-.02.049-.037.097-.053.142h.004z" fill="#BE6F00"/><path fill-rule="evenodd" clip-rule="evenodd" d="M85.917 17.53s-.013 0-.02.004c.007 0 .012 0 .02-.004z" fill="#A2A2D2"/><path fill-rule="evenodd" clip-rule="evenodd" d="M139.254 18.732c-5.015 12.04-13.701 21.598-13.701 21.598-1.344-.472-2.849-.827-4.321-1.09a41.274 41.274 0 00-14.565 0c-1.473.263-2.978.618-4.321 1.09 0 0-8.69-9.562-13.702-21.598a2.147 2.147 0 00-2.723-1.198c.064-.02.129.024.193.182 4.66 11.192 12.548 22.242 14.654 24.687.327.384.851.529 1.331.38a32.942 32.942 0 013.926-.928c.569-.101 1.138-.19 1.707-.27.67 1.056 3.199 1.847 6.213 1.847 3.014 0 5.544-.787 6.217-1.848.569.081 1.142.166 1.707.27 1.323.239 2.675.541 3.926.929.48.149 1 0 1.331-.38 2.106-2.444 9.687-12.74 14.351-23.933.283-.678.823-.052 1.433-.254-1.017-1.287-3.026-.992-3.66.516h.004z" fill="#BE6F00"/><path fill-rule="evenodd" clip-rule="evenodd" d="M84.985 18.212c.456.15.702-.573.916-.673a2.162 2.162 0 00-.916.673z" fill="#A2A2D2"/><path fill-rule="evenodd" clip-rule="evenodd" d="M124.467 90.847c-7.734 4.095-10.498-3.76-10.498-3.76s-2.763 7.855-10.502 3.76c0 0-1.593 10.127 10.502 10.127 12.096 0 10.498-10.127 10.498-10.127z" fill="#000"/><path fill-rule="evenodd" clip-rule="evenodd" d="M113.966 86.313s-.008.037-.016.057a.254.254 0 01-.017-.058h.033z" fill="#FF6C8B"/><path fill-rule="evenodd" clip-rule="evenodd" d="M113.965 109.148h-.016c-9.098 0-8.485-8.287-7.234-13.41.557-2.297 1.243-3.955 1.243-3.955s4.555-.306 5.991-5.418c1.436 5.112 5.991 5.418 5.991 5.418s7.174 17.349-5.975 17.361v.004z" fill="#F0F"/><path fill-rule="evenodd" clip-rule="evenodd" d="M113.981 109.148h-.032.016c7.496-.008 8.388-5.653 7.767-10.502l.028-.024c.625 4.857-.254 10.526-7.779 10.526z" fill="#7C7CB5"/><path fill-rule="evenodd" clip-rule="evenodd" d="M121.732 98.646a26.669 26.669 0 00-.557-2.953c.012.012.028.028.04.044.218.888.412 1.868.545 2.885a.174.174 0 00-.028.024z" fill="#000072"/><path fill-rule="evenodd" clip-rule="evenodd" d="M113.965 109.148h-.016c-6.302 0-7.944-3.974-7.944-8.118 0-1.84.323-3.715.71-5.293.093-.105.145-.161.145-.161s-.786 9.88 7.101 9.88c7.888 0 7.101-9.88 7.101-9.88l.105.117c.222.903.424 1.912.557 2.953.621 4.85-.271 10.494-7.767 10.502h.008z" fill="#9800CB"/><path fill-rule="evenodd" clip-rule="evenodd" d="M114.913 89.35c.049 1.038.045 2.074.037 3.115a90.301 90.301 0 01-.101 3.115c-.053 1.037-.101 2.074-.21 3.115-.109 1.037-.234 2.074-.46 3.114a.235.235 0 01-.282.182.239.239 0 01-.182-.182c-.226-1.036-.351-2.073-.46-3.114-.109-1.037-.157-2.078-.21-3.115a115.17 115.17 0 01-.1-3.115 52.219 52.219 0 01.036-3.114.965.965 0 011.928 0h.004z" fill="#000"/><path fill-rule="evenodd" clip-rule="evenodd" d="M108.66 92.655c-.723 1.964-3.103 9.211-.529 13.056 1.098 1.638 3.054 2.469 5.818 2.469s4.725-.831 5.822-2.469c2.574-3.845.194-11.092-.529-13.056-1.174-.239-3.695-1.053-5.289-3.793-1.594 2.744-4.115 3.559-5.289 3.793h-.004zm5.289 17.457c-3.45 0-5.951-1.121-7.428-3.332-3.55-5.31.376-14.96.545-15.368a.964.964 0 01.827-.593c.153-.012 3.797-.347 5.076-4.535a.957.957 0 01.71-.908 1.31 1.31 0 01.274-.036c.089 0 .182.008.274.036a.963.963 0 01.711.908c1.295 4.228 5.035 4.53 5.075 4.535a.964.964 0 01.827.593c.17.407 4.095 10.058.545 15.368-1.477 2.211-3.978 3.332-7.428 3.332h-.008z" fill="#000"/><path fill-rule="evenodd" clip-rule="evenodd" d="M120.981 92.813c-3.699 0-5.882-2.135-7.016-4.261-1.138 2.126-3.32 4.26-7.016 4.26h-.044c-1.965-.008-3.494-.572-4.551-1.674-1.461-1.52-1.408-3.506-1.404-3.59a.968.968 0 011-.933.97.97 0 01.932 1c0 .005-.016 1.276.88 2.2.682.698 1.739 1.057 3.151 1.06h.036c5.116 0 6.028-5.163 6.064-5.385a.966.966 0 01.952-.811c.476 0 .876.343.952.81.037.218.949 5.383 6.064 5.383h.037c1.408-.008 2.469-.363 3.151-1.061.899-.92.883-2.191.883-2.203a.966.966 0 011.929-.06c0 .084.056 2.065-1.404 3.59-1.057 1.102-2.586 1.662-4.551 1.674h-.045z" fill="#000"/><path fill-rule="evenodd" clip-rule="evenodd" d="M116.487 78.51a7.102 7.102 0 00-5.076 0c-1.27.488-2.537 1.387-2.537 3.038 0 3.3 2.719 5.54 5.075 5.54 2.356 0 5.076-2.24 5.076-5.54 0-1.65-1.271-2.55-2.538-3.038z" fill="#000"/><path fill-rule="evenodd" clip-rule="evenodd" d="M116.919 80.305c0 .355-1.328.646-2.97.646-1.642 0-2.969-.287-2.969-.646 0-.359 1.327-.645 2.969-.645s2.97.29 2.97.645z" fill="#fff"/><path fill-rule="evenodd" clip-rule="evenodd" d="M75.451 64.916a6.694 6.694 0 01-.141-.968c.044.323.093.646.141.968z" fill="#FF7C88"/><path fill-rule="evenodd" clip-rule="evenodd" d="M84.069 54.576l.004.02a7.395 7.395 0 00-.27-.04 4.863 4.863 0 00-1.416-.004 3.602 3.602 0 00-.973.282c-.069.033-.137.069-.202.101a3.068 3.068 0 00-.734.561c-.089.089-.17.177-.242.274a3.747 3.747 0 00-.278.395c-.125.206-.23.416-.323.63a6.977 6.977 0 00-.351 1.15v.016l-.037.182v.016a6.937 6.937 0 00-.064.444l-.012.117-.012.14c-.033.412-.024.679-.024.679-1.784 0-2.764.681-3.285 1.557-.544.92-.589 2.054-.528 2.849a57.93 57.93 0 01-.456-5.047c-.908-20.311 9.47-35.683 11.507-38.495.036-.044.064-.089.088-.125l.218-.29a.142.142 0 01.025-.029l.008-.008c-2.764 4.943-3.902 10.728-4.213 16.135-.564 9.606 1.469 18.034 1.582 18.494l-.012-.004z" fill="#fff"/><path fill-rule="evenodd" clip-rule="evenodd" d="M84.069 54.576l.004.02a7.395 7.395 0 00-.27-.04 5.014 5.014 0 00-1.417-.004 4.085 4.085 0 00-.718.177c-.089.033-.17.069-.254.105-.069.033-.137.069-.202.101a3.063 3.063 0 00-.46.31c-.1.078-.19.162-.274.251-.089.089-.17.177-.242.274a3.747 3.747 0 00-.278.395 4.411 4.411 0 00-.408.848 5.847 5.847 0 00-.266.932v.016l-.037.182v.016a6.937 6.937 0 00-.064.444l-.012.117-.012.14c-.033.412-.025.679-.025.679-1.726.177-2.727.798-3.284 1.557-.452.617-.613 1.332-.641 1.973a57.93 57.93 0 01-.347-4.172c.448-.54 1.02-.892 1.472-1.11.444-.213.727-.653.743-1.15.085-2.989 1.686-4.345 2.699-4.901.472-.262.742-.787.662-1.32-2.514-16.868 4.3-27.705 5.927-30.013.036-.044.064-.089.088-.125l.218-.29c.012-.017.02-.025.024-.029l.008-.008c-2.562 5.653-3.764 11.196-4.212 16.135-.944 10.369 1.449 18.075 1.582 18.494l-.004-.004z" fill="#fff"/><path fill-rule="evenodd" clip-rule="evenodd" d="M86.82 20.008c-.746 2.005-1.343 4.05-1.872 6.104l-.379 1.545c-.109.52-.23 1.033-.335 1.554a51.634 51.634 0 00-.54 3.126 48.766 48.766 0 00-.351 3.151c-.02.263-.049.525-.069.791l-.048.791c-.04.524-.049 1.053-.069 1.582a57.148 57.148 0 00.194 6.33c.185 2.106.5 4.196.924 6.262.113.516.21 1.037.339 1.545l.383 1.537v.024c0-.024.028.08.032.133.008.065.012.13.008.198-.016.266-.141.52-.335.698-.193.182-.48.282-.75.266-.053 0-.162-.02-.137-.016h-.008l-.02-.004-.162-.024a5.288 5.288 0 00-1.005-.032c-.435.036-.847.129-1.182.306-.343.17-.6.412-.815.714-.205.307-.35.698-.431 1.126a6.193 6.193 0 00-.085 1.384l.008.182v.068c0 .028.004.101 0 .153a1.121 1.121 0 01-.795 1.013c-.1.036-.278.048-.246.044h-.04l-.162.02c-.218.029-.44.073-.65.134a3.87 3.87 0 00-1.137.52 2.627 2.627 0 00-.807.852c-.21.35-.343.782-.424 1.254-.08.476-.092.985-.096 1.521v.008a.32.32 0 01-.323.32.321.321 0 01-.287-.178 5.34 5.34 0 01-.508-1.667 4.431 4.431 0 01.04-1.408c.04-.157.077-.323.133-.48.206-.641.63-1.226 1.146-1.662.52-.44 1.126-.718 1.731-.9a6.065 6.065 0 011.162-.23l.06-.008c.065-.008-.08.004-.145.028a.797.797 0 00-.569.715v.1-.028l-.003-.056-.013-.222a8.01 8.01 0 01.093-1.824c.113-.621.323-1.27.71-1.86a3.882 3.882 0 011.582-1.384c.625-.31 1.283-.444 1.916-.488.319-.02.63-.02.94.004.154.012.311.028.468.049.077.012.158.024.238.04h.029l.016.008c.032.008-.069-.012-.113-.012a.926.926 0 00-.658.23.905.905 0 00-.29.779c0 .044.028.14.02.108v-.024l-.383-1.593c-.13-.529-.222-1.07-.335-1.602a56.56 56.56 0 01-.88-6.488 52.07 52.07 0 01-.1-6.544c.028-.545.052-1.09.1-1.634l.069-.815c.024-.27.056-.54.085-.81.117-1.086.286-2.163.472-3.237.399-2.142.907-4.264 1.617-6.326a31.661 31.661 0 011.219-3.03c.46-.984.964-1.949 1.585-2.852a.126.126 0 01.182-.033.13.13 0 01.048.154v.008l.008-.008z" fill="#984200"/><path fill-rule="evenodd" clip-rule="evenodd" d="M152.443 64.916c.016-.068.101-.443.141-.968a64.32 64.32 0 01-.141.968z" fill="#FF7C88"/><path fill-rule="evenodd" clip-rule="evenodd" d="M143.829 54.576l-.004.02c.093-.016.182-.028.271-.04.528-.073 1-.069 1.416-.004a3.61 3.61 0 01.972.282c.069.033.137.069.202.101a3.252 3.252 0 01.98.835c.053.06.097.121.142.186a4.403 4.403 0 01.459.84 6.902 6.902 0 01.351 1.15v.015c.013.06.025.121.033.182v.016c.028.157.048.303.064.444 0 .04.008.076.012.117.004.048.004.096.013.14.036.412.024.679.024.679 1.783 0 2.763.681 3.284 1.557.545.92.589 2.054.528 2.849.041-.295.081-.586.109-.876.17-1.412.283-2.804.347-4.172.908-20.31-9.469-35.682-11.506-38.494-.037-.044-.065-.089-.089-.125l-.218-.29c-.012-.017-.02-.025-.024-.029l-.008-.008c2.763 4.943 3.901 10.728 4.212 16.135.565 9.606-1.469 18.034-1.582 18.494l.012-.004z" fill="#fff"/><path fill-rule="evenodd" clip-rule="evenodd" d="M143.829 54.576l-.004.02c.093-.016.182-.028.271-.04.528-.069 1-.069 1.416-.004a4.094 4.094 0 01.718.177c.089.033.169.069.254.105.069.033.133.069.202.101.165.093.319.194.46.31.101.078.194.162.278.251.089.089.166.177.242.274.053.06.097.121.142.186a4.444 4.444 0 01.544 1.057c.121.315.206.634.267.932v.016c.012.06.024.121.032.182v.016c.032.157.052.303.064.444 0 .04.008.076.012.117l.013.14c.036.412.024.679.024.679 1.731.177 2.727.798 3.284 1.557.452.617.609 1.332.637 1.973.17-1.412.283-2.804.347-4.172-.451-.54-1.02-.892-1.476-1.11a1.315 1.315 0 01-.743-1.15c-.084-2.989-1.686-4.345-2.699-4.901a1.295 1.295 0 01-.661-1.32c2.513-16.868-4.301-27.705-5.931-30.013-.037-.044-.065-.089-.089-.125l-.218-.29c-.012-.017-.02-.025-.024-.029l-.008-.008c2.562 5.653 3.764 11.196 4.212 16.135.944 10.369-1.449 18.075-1.582 18.494l.016-.004z" fill="#E5E5E5"/><path fill-rule="evenodd" clip-rule="evenodd" d="M125.557 111.004a61.1 61.1 0 011.835-.443c.61-.138 1.215-.303 1.828-.436.609-.141 1.211-.311 1.816-.456.605-.145 1.202-.327 1.803-.48 2.393-.662 4.757-1.388 7.037-2.316l.851-.355c.282-.121.557-.254.839-.379.561-.246 1.101-.533 1.65-.807 1.077-.577 2.138-1.182 3.135-1.88 2.017-1.36 3.837-2.978 5.366-4.834a22.073 22.073 0 003.575-6.201c.839-2.247 1.323-4.628 1.497-7.036a32.995 32.995 0 00-.339-7.263 37.413 37.413 0 00-1.505-6.213 20.698 20.698 0 00-.303-.827l-.008-.02a.94.94 0 01-.064-.456c.706-7.016.685-14.11-.243-21.085-.932-6.968-2.791-13.822-5.757-20.181-1.485-3.171-3.224-6.23-5.281-9.045-.254-.356-.521-.698-.783-1.046l-.202-.258-.101-.129-.048-.06-.032-.033c-.045-.044-.081-.096-.133-.129l-.069-.06c-.028-.016-.052-.029-.077-.045a1.087 1.087 0 00-.694-.157c-.125 0-.242.044-.359.085-.109.056-.222.109-.306.193-.097.073-.17.174-.238.275-.037.052-.057.113-.089.165l-.133.303-.545 1.242c-.351.836-.77 1.634-1.158 2.45-1.602 3.235-3.462 6.326-5.471 9.307-.496.75-1.025 1.477-1.537 2.215-.532.722-1.057 1.453-1.606 2.167-.27.359-.548.714-.827 1.069a41.85 41.85 0 01-.843 1.053 55.002 55.002 0 01-1.759 2.078.953.953 0 01-1.021.266h-.012c-1.759-.613-3.655-1-5.552-1.275a40.067 40.067 0 00-11.466 0c-1.896.275-3.788.658-5.552 1.267h-.012a.94.94 0 01-1.02-.262 57.458 57.458 0 01-1.76-2.078 50.784 50.784 0 01-.843-1.053c-.278-.355-.556-.706-.827-1.065-.549-.714-1.077-1.44-1.61-2.167-.516-.738-1.045-1.464-1.537-2.215-2.009-2.981-3.869-6.072-5.47-9.308-.388-.815-.808-1.613-1.159-2.449l-.544-1.242-.134-.303c-.032-.052-.052-.117-.088-.165a1.11 1.11 0 00-.238-.275c-.089-.084-.198-.137-.307-.193-.117-.037-.234-.08-.359-.085a1.115 1.115 0 00-.694.157.755.755 0 01-.077.045l-.068.06c-.053.033-.089.085-.133.13l-.033.032-.048.06-.1.13-.203.258c-.266.342-.528.69-.782 1.045-2.058 2.816-3.797 5.874-5.282 9.045-2.965 6.355-4.825 13.213-5.757 20.177-.928 6.976-.948 14.065-.242 21.085a1.05 1.05 0 01-.069.464v.012c-.105.25-.213.549-.31.827-.097.287-.194.573-.283.868a37.826 37.826 0 00-1.222 5.341c-.375 2.409-.5 4.85-.34 7.263.174 2.408.654 4.789 1.498 7.036a22.078 22.078 0 003.574 6.201c1.53 1.856 3.353 3.474 5.366 4.834.997.694 2.062 1.299 3.135 1.876.549.274 1.09.561 1.65.807.279.125.557.258.84.379l.85.351c2.28.924 4.645 1.662 7.037 2.32 2.393.67 4.83 1.21 7.279 1.795.06.016.101.077.084.137a.115.115 0 01-.113.089c-2.525-.024-5.047-.298-7.544-.75-.626-.109-1.243-.254-1.864-.388-.622-.137-1.235-.31-1.852-.464-.61-.181-1.223-.359-1.828-.556l-.903-.311-.452-.157-.448-.174-.896-.347c-.298-.117-.589-.25-.883-.375-.594-.242-1.17-.529-1.748-.803-1.145-.581-2.283-1.19-3.36-1.904a26.55 26.55 0 01-5.863-5.104 23.253 23.253 0 01-3.982-6.73 25.08 25.08 0 01-1.117-3.756 28.45 28.45 0 01-.541-3.865c-.186-2.594-.024-5.193.391-7.734a36.83 36.83 0 011.384-5.629 24.67 24.67 0 01.69-1.844l-.073.477c-.718-7.146-.702-14.388.25-21.533.957-7.137 2.861-14.182 5.92-20.738 1.533-3.276 3.328-6.435 5.47-9.368.267-.367.541-.73.82-1.09l.21-.27.104-.133.057-.069.08-.088a2.72 2.72 0 01.343-.34l.19-.153.206-.133a3.13 3.13 0 01.9-.367c.318-.065.64-.097.96-.06.322.02.633.108.931.225.295.133.578.29.82.509.25.206.456.464.629.734.089.137.15.282.222.424l.137.306.529 1.203c.338.806.746 1.585 1.121 2.38 1.558 3.147 3.373 6.169 5.342 9.086.484.734 1.005 1.448 1.505 2.17.52.71 1.037 1.425 1.573 2.123.267.35.537.698.807 1.045.271.347.545.69.823 1.029a56.457 56.457 0 001.691 1.997l-1.037-.263c1.953-.673 3.93-1.069 5.915-1.36a42.15 42.15 0 016.007-.43 42.09 42.09 0 016.008.43c1.985.287 3.962.687 5.915 1.36l-1.037.263a61.535 61.535 0 001.69-1.997c.278-.34.553-.682.823-1.03a43.5 43.5 0 00.807-1.044c.537-.698 1.053-1.412 1.574-2.122.504-.723 1.024-1.437 1.509-2.171 1.968-2.917 3.784-5.943 5.341-9.09.376-.79.787-1.57 1.122-2.376l.528-1.203.138-.306c.072-.142.133-.29.222-.424a3.11 3.11 0 01.629-.734c.242-.218.529-.375.819-.509a3.197 3.197 0 011.892-.165c.315.08.626.194.9.367l.206.13.189.152c.129.101.234.218.343.34l.081.088.056.069.105.133.21.27c.279.36.553.722.819 1.09 2.143 2.937 3.938 6.096 5.471 9.368 3.058 6.556 4.967 13.6 5.923 20.738.948 7.145.968 14.387.25 21.532l-.073-.476c.142.331.251.622.368.932.113.303.221.61.322.916a36.82 36.82 0 011.384 5.624c.416 2.542.573 5.145.392 7.735a28.546 28.546 0 01-.541 3.865 25.046 25.046 0 01-1.118 3.756 23.277 23.277 0 01-3.982 6.73 26.53 26.53 0 01-5.862 5.104c-1.081.714-2.219 1.323-3.365 1.904-.581.274-1.158.561-1.751.803-.294.125-.585.258-.884.375l-.895.347-.448.174-.452.157-.904.311c-.605.197-1.218.375-1.827.56-.618.162-1.231.327-1.848.468-.622.129-1.239.279-1.864.384l-.936.161c-.315.053-.626.109-.94.145-.63.081-1.255.166-1.884.222-.63.061-1.259.109-1.889.149-.633.025-1.262.049-1.896.053a.098.098 0 01-.097-.097c0-.044.028-.085.073-.093l-.02.016z" fill="#000"/><path fill-rule="evenodd" clip-rule="evenodd" d="M82.35 52.986c14.936 3.527 24.966 10.05 24.966 17.519 0 2.763-1.376 5.402-3.869 7.803 6.379-4.039 13.443-3.878 21.113 0-2.489-2.405-3.869-5.04-3.869-7.803 0-7.38 9.8-13.843 24.454-17.397a37.892 37.892 0 00-3.079-2.813h-56.84a37.9 37.9 0 00-2.876 2.688v.004z" fill="#9355F7"/><path fill-rule="evenodd" clip-rule="evenodd" d="M90.964 51.68c11.212 0 20.306 9.09 20.306 20.305 0 11.216-9.09 20.306-20.306 20.306-10.421 0-19.011-7.855-20.169-17.966l-1.912-.222a.72.72 0 01-.63-.794l1.045-8.949a.72.72 0 01.795-.63l2.207.259c3.107-7.234 10.292-12.306 18.668-12.306l-.004-.004zm45.986 0c-11.212 0-20.306 9.09-20.306 20.305 0 11.216 9.09 20.306 20.306 20.306 10.422 0 19.011-7.855 20.169-17.966l1.913-.222a.719.719 0 00.629-.794l-1.045-8.949a.72.72 0 00-.795-.63l-2.207.259c-3.106-7.234-10.292-12.306-18.668-12.306l.004-.004z" fill="#000"/><path fill-rule="evenodd" clip-rule="evenodd" d="M134.937 51.78h-41.96c10.268 1.013 18.293 9.671 18.293 20.206 0 2.763-.552 5.402-1.553 7.802 2.562-4.038 5.402-3.877 8.489 0a20.253 20.253 0 01-1.554-7.802c0-10.535 8.025-19.197 18.293-20.206h-.008z" fill="#000"/><path d="M100.948 86.94c8.931-4.842 12.247-16.006 7.406-24.937-4.842-8.931-16.006-12.247-24.937-7.406-8.93 4.841-12.246 16.006-7.405 24.937 4.84 8.93 16.005 12.246 24.936 7.405z" fill="#333"/><path fill-rule="evenodd" clip-rule="evenodd" d="M135.732 52.373c-10.159 0-18.394 8.235-18.394 18.394 0 10.159 8.235 18.394 18.394 18.394 10.159 0 18.394-8.235 18.394-18.394 0-10.16-8.235-18.394-18.394-18.394z" fill="#333"/><path fill-rule="evenodd" clip-rule="evenodd" d="M92.973 51.78h19.742v6.048h-7.202a20.253 20.253 0 00-12.54-6.048z" fill="#4D4D4D"/><path fill-rule="evenodd" clip-rule="evenodd" d="M94.874 54.217h15.44v1.174h-12.41a40.702 40.702 0 00-3.03-1.174z" fill="#fff"/><path d="M107.499 72.106c1.23-8.348-4.541-16.113-12.89-17.342-8.347-1.23-16.112 4.54-17.342 12.889-1.23 8.348 4.541 16.112 12.89 17.342 8.348 1.23 16.112-4.54 17.342-12.889zm40.032 7.231c5.223-6.628 4.084-16.235-2.544-21.458-6.628-5.223-16.234-4.084-21.457 2.544-5.223 6.627-4.085 16.234 2.543 21.457 6.628 5.223 16.235 4.085 21.458-2.543z" fill="#666"/><path fill-rule="evenodd" clip-rule="evenodd" d="M93.187 55.077c7.73 0 13.996 6.265 13.996 13.996 0 7.73-6.266 13.996-13.996 13.996S79.19 76.803 79.19 69.073s6.266-13.996 13.996-13.996zm41.54 0c-7.73 0-13.996 6.265-13.996 13.996 0 7.73 6.266 13.996 13.996 13.996 7.731 0 13.996-6.266 13.996-13.996s-6.265-13.996-13.996-13.996z" fill="#1A1A1A"/><path fill-rule="evenodd" clip-rule="evenodd" d="M134.647 56.59c-6.851 0-12.403 5.551-12.403 12.402 0 6.85 5.552 12.402 12.403 12.402 6.85 0 12.402-5.552 12.402-12.402 0-6.851-5.552-12.403-12.402-12.403z" fill="url(#paint0_linear_41_515)"/><path fill-rule="evenodd" clip-rule="evenodd" d="M93.268 56.59c-6.85 0-12.403 5.551-12.403 12.402 0 6.85 5.552 12.402 12.403 12.402 6.851 0 12.402-5.552 12.402-12.402 0-6.851-5.551-12.403-12.402-12.403z" fill="url(#paint1_linear_41_515)"/><path fill-rule="evenodd" clip-rule="evenodd" d="M81.507 80.07a2.235 2.235 0 110 4.47 2.235 2.235 0 010-4.47z" fill="#1A1A1A"/><path fill-rule="evenodd" clip-rule="evenodd" d="M81.507 80.47c1.013 0 1.836.823 1.836 1.835a1.837 1.837 0 01-1.836 1.836 1.837 1.837 0 01-1.836-1.836c0-1.012.823-1.835 1.836-1.835z" fill="#fff"/><path fill-rule="evenodd" clip-rule="evenodd" d="M76.839 83.044l9.178 6.508a.682.682 0 01.158.96l-1.198 1.662a.704.704 0 01-.969.162l-9.178-6.508a.683.683 0 01-.158-.96l1.199-1.662a.704.704 0 01.968-.162z" fill="#333"/><path fill-rule="evenodd" clip-rule="evenodd" d="M77.493 84.219l7.19 5.1a.538.538 0 01.124.75l-.698.964a.547.547 0 01-.758.125l-7.194-5.1a.542.542 0 01-.125-.754l.698-.965a.547.547 0 01.758-.125l.005.005z" fill="#000"/><path fill-rule="evenodd" clip-rule="evenodd" d="M134.937 51.78h-19.741v6.048h7.202a20.238 20.238 0 0112.539-6.048z" fill="#4D4D4D"/><path fill-rule="evenodd" clip-rule="evenodd" d="M133.037 54.217h-15.441v1.174h12.411a40.65 40.65 0 013.03-1.174z" fill="#fff"/><path fill-rule="evenodd" clip-rule="evenodd" d="M146.407 80.07a2.235 2.235 0 100 4.471 2.235 2.235 0 000-4.47z" fill="#1A1A1A"/><path fill-rule="evenodd" clip-rule="evenodd" d="M146.408 80.47a1.837 1.837 0 00-1.836 1.835c0 1.013.823 1.836 1.836 1.836a1.837 1.837 0 000-3.671z" fill="#fff"/><path fill-rule="evenodd" clip-rule="evenodd" d="M151.072 83.044l-9.179 6.508a.682.682 0 00-.157.96l1.198 1.662c.222.307.657.38.968.162l9.179-6.508a.683.683 0 00.157-.96l-1.198-1.662a.703.703 0 00-.968-.162z" fill="#333"/><path fill-rule="evenodd" clip-rule="evenodd" d="M150.418 84.219l-7.19 5.1a.538.538 0 00-.125.75l.698.964a.547.547 0 00.759.125l7.189-5.1a.541.541 0 00.125-.754l-.698-.965a.546.546 0 00-.758-.125v.005zM131.657 53.89a.828.828 0 000 1.654.828.828 0 000-1.654zm-35.267 0a.828.828 0 000 1.654.828.828 0 000-1.654z" fill="#000"/><path fill-rule="evenodd" clip-rule="evenodd" d="M96.867 57.122l-9.09 22.997a12.445 12.445 0 01-4.454-3.708l7.758-19.628c.71-.125 1.436-.194 2.183-.194 1.25 0 2.46.186 3.599.533h.004zm3.893 1.988l-8.78 22.22a12.174 12.174 0 01-2.723-.598l9.11-23.05c.856.388 1.659.868 2.397 1.429h-.004zm37.542-1.973l-9.094 23.006a12.47 12.47 0 01-4.462-3.68l7.782-19.689c.69-.117 1.396-.181 2.123-.181 1.271 0 2.497.193 3.651.548v-.004zm3.885 2.01l-8.771 22.19a12.24 12.24 0 01-2.727-.584l9.106-23.046c.851.391 1.654.876 2.388 1.44h.004z" fill="#fff"/><path fill-rule="evenodd" clip-rule="evenodd" d="M125.795 41.266c3.139 4.559 8.517 7.133 13.802 9.033h2.469c.541.44 1.069.896 1.578 1.364 0 0 2.897-11.015.956-19.758-1.945-8.739-3.978-13.358-3.978-13.358a.73.73 0 00-.145.109 1.08 1.08 0 00-.238.274c-.037.053-.057.113-.089.166l-.133.302-.545 1.243c-.351.835-.771 1.634-1.158 2.449-1.602 3.236-3.462 6.326-5.471 9.308-.496.75-1.025 1.476-1.537 2.215-.533.722-1.057 1.452-1.606 2.162-.27.36-.548.714-.827 1.07-.274.354-.557.705-.843 1.052a55 55 0 01-1.759 2.078.935.935 0 01-.472.287l-.004.004z" fill="#333"/><path fill-rule="evenodd" clip-rule="evenodd" d="M144.128 49.52c.73-3.63 1.892-11.228.476-17.615-1.069-4.81-2.166-8.372-2.937-10.603-.166.335-.331.67-.488 1.005-1.602 3.236-3.462 6.326-5.471 9.308-.496.75-1.025 1.476-1.537 2.215-5.754 6.967-2.106 10.28 9.961 15.686l-.004.004z" fill="url(#paint2_linear_41_515)"/><path fill-rule="evenodd" clip-rule="evenodd" d="M141.308 19.879c.621.903 1.125 1.868 1.585 2.852.46.988.864 2.001 1.219 3.026.714 2.058 1.218 4.184 1.618 6.326.185 1.074.355 2.15.472 3.236.028.27.06.54.084.811l.069.815c.052.545.073 1.09.105 1.634a50.513 50.513 0 01-.101 6.544 56.726 56.726 0 01-.879 6.488c-.113.532-.206 1.073-.335 1.602l-.041.169a9.744 9.744 0 00-.391-.165l.432-.11a36.245 36.245 0 00-1.602-1.537l.073-.33c.423-2.07.738-4.16.923-6.262.186-2.102.251-4.216.194-6.33-.02-.529-.028-1.058-.068-1.582l-.049-.79c-.016-.267-.044-.525-.068-.792a51.612 51.612 0 00-.351-3.15 52.096 52.096 0 00-.541-3.127c-.101-.52-.222-1.033-.335-1.554l-.379-1.545c-.529-2.054-1.126-4.1-1.872-6.104v-.008c-.029-.069.008-.142.076-.17.057-.02.121 0 .154.049l.008.004zm-.973 22.275a2.168 2.168 0 002.163-2.163c0-1.19-.972-2.162-2.163-2.162-1.19 0-2.162.972-2.162 2.162s.972 2.163 2.162 2.163z" fill="#666"/><path fill-rule="evenodd" clip-rule="evenodd" d="M140.335 41.508c.836 0 1.513-.682 1.513-1.513 0-.831-.681-1.517-1.513-1.517a1.515 1.515 0 000 3.03z" fill="#fff"/><path fill-rule="evenodd" clip-rule="evenodd" d="M140.981 35.029a1.36 1.36 0 100-2.72 1.36 1.36 0 000 2.72z" fill="#666"/><path fill-rule="evenodd" clip-rule="evenodd" d="M140.981 34.621a.954.954 0 00.952-.952.954.954 0 00-.952-.952.953.953 0 00-.952.952c0 .525.427.952.952.952z" fill="#fff"/><path fill-rule="evenodd" clip-rule="evenodd" d="M141.312 28.86c.528 0 .96-.432.96-.96a.963.963 0 00-.96-.961.962.962 0 00-.96.96c0 .529.431.96.96.96z" fill="#666"/><path d="M141.312 28.573a.674.674 0 100-1.348.674.674 0 000 1.348z" fill="#fff"/><path fill-rule="evenodd" clip-rule="evenodd" d="M102.099 41.266c-3.138 4.559-8.517 7.133-13.802 9.033h-2.47c-.54.44-1.068.896-1.577 1.364 0 0-2.897-11.015-.956-19.758 1.945-8.739 3.978-13.358 3.978-13.358a.73.73 0 01.146.109c.096.072.169.173.238.274.036.053.056.113.088.166l.133.302.545 1.243c.351.835.77 1.634 1.158 2.449 1.602 3.236 3.462 6.326 5.471 9.308.496.75 1.025 1.476 1.537 2.215.533.722 1.057 1.452 1.606 2.162.27.36.549.714.827 1.07.274.354.557.705.843 1.052a54.71 54.71 0 001.759 2.078.935.935 0 00.472.287l.004.004z" fill="#333"/><path fill-rule="evenodd" clip-rule="evenodd" d="M83.968 49.52c-.73-3.63-1.896-11.228-.476-17.615 1.069-4.81 2.166-8.372 2.937-10.603.165.335.33.67.488 1.005 1.602 3.236 3.462 6.326 5.471 9.308.496.75 1.025 1.476 1.537 2.215 5.754 6.967 2.106 10.28-9.961 15.686l.004.004z" fill="url(#paint3_linear_41_515)"/><path fill-rule="evenodd" clip-rule="evenodd" d="M86.59 19.879c-.62.903-1.125 1.868-1.585 2.852-.46.989-.864 2.001-1.219 3.026-.714 2.058-1.218 4.184-1.618 6.326a51.202 51.202 0 00-.472 3.236c-.028.27-.06.54-.084.811l-.069.815c-.052.545-.073 1.09-.105 1.634a50.62 50.62 0 00.101 6.544c.165 2.175.464 4.346.88 6.488.113.532.205 1.073.335 1.602l.04.173.44-.19c-.146-.036-.32-.076-.464-.112a40.163 40.163 0 011.577-1.518l-.072-.33a55.646 55.646 0 01-.924-6.262 55.212 55.212 0 01-.194-6.33c.02-.529.028-1.057.069-1.582l.048-.79c.016-.267.044-.525.069-.791.076-1.058.21-2.107.35-3.151a51.62 51.62 0 01.541-3.127c.101-.52.222-1.033.335-1.554l.38-1.545c.528-2.053 1.125-4.1 1.871-6.104v-.008c.029-.069-.008-.142-.076-.17a.132.132 0 00-.154.049v.008zm.973 22.275c1.19 0 2.162-.973 2.162-2.163s-.972-2.162-2.162-2.162S85.4 38.8 85.4 39.99s.973 2.163 2.163 2.163z" fill="#666"/><path fill-rule="evenodd" clip-rule="evenodd" d="M87.563 41.508c.835 0 1.513-.682 1.513-1.513 0-.831-.682-1.517-1.513-1.517a1.52 1.52 0 00-1.513 1.517c0 .835.682 1.513 1.513 1.513z" fill="#fff"/><path fill-rule="evenodd" clip-rule="evenodd" d="M86.917 35.029a1.36 1.36 0 100-2.72 1.36 1.36 0 000 2.72z" fill="#666"/><path fill-rule="evenodd" clip-rule="evenodd" d="M86.917 34.621a.954.954 0 00.952-.952.954.954 0 00-.952-.952.954.954 0 00-.952.952c0 .525.428.952.952.952z" fill="#fff"/><path fill-rule="evenodd" clip-rule="evenodd" d="M86.586 28.86c.529 0 .96-.432.96-.96a.963.963 0 00-.96-.961.963.963 0 00-.96.96c0 .529.432.96.96.96z" fill="#666"/><path d="M86.587 28.573a.674.674 0 100-1.348.674.674 0 000 1.348z" fill="#fff"/><path fill-rule="evenodd" clip-rule="evenodd" d="M113.949 122.542c3.313 0 6.016-2.703 6.016-6.015 0-3.313-2.703-6.016-6.016-6.016-3.312 0-6.015 2.703-6.015 6.016 0 3.312 2.703 6.015 6.015 6.015z" fill="#fff"/><path fill-rule="evenodd" clip-rule="evenodd" d="M113.949 121.502a4.985 4.985 0 004.975-4.975 4.985 4.985 0 00-4.975-4.974 4.984 4.984 0 00-4.974 4.974 4.985 4.985 0 004.974 4.975z" fill="#989898"/><path fill-rule="evenodd" clip-rule="evenodd" d="M113.949 119.884a3.365 3.365 0 003.357-3.357 3.365 3.365 0 00-3.357-3.357 3.365 3.365 0 00-3.357 3.357 3.365 3.365 0 003.357 3.357z" fill="#000"/><path fill-rule="evenodd" clip-rule="evenodd" d="M36.516 171.898l-14.87 30.074-14.752-30.38v27.604H2.032v-38.323h4.902l14.738 30.346 14.87-30.346h4.85v38.323h-4.869v-27.305l-.007.007zm17.754 22.256a8.66 8.66 0 001.03.512c.836.339 1.746.465 2.643.465 1.361 0 2.61-.366 3.792-1.036 1.262-.724 2.278-1.714 3.082-2.929l3.055-4.63v8.568l-.432.472c-1.228 1.361-2.676 2.484-4.37 3.194-1.68.711-3.493.997-5.313.997-2.259 0-4.37-.611-6.297-1.78a13.303 13.303 0 01-4.629-4.683c-1.15-1.939-1.747-4.051-1.747-6.303 0-2.251.545-4.496 1.727-6.475 1.156-1.933 2.743-3.434 4.722-4.504 2.033-1.102 4.251-1.6 6.556-1.6 3.805 0 6.98 1.554 9.504 4.383l1.05 1.183-14.367 14.18-.006-.014zm20.802-19.281h6.442v4.636h-6.442v10.421c0 1.362.312 2.664 1.321 3.62.977.93 2.159 1.295 3.5 1.295h1.661v4.636h-1.66c-2.584 0-4.942-.777-6.848-2.544-1.993-1.853-2.796-4.323-2.796-7.007v-23.505h4.822v8.448zm27.862 2.192v-2.192h4.822v24.329h-4.822v-2.231c-.432.345-.897.657-1.382.949-1.992 1.183-4.157 1.794-6.469 1.794-2.311 0-4.423-.572-6.39-1.721a12.748 12.748 0 01-4.655-4.629 12.308 12.308 0 01-1.72-6.323c0-2.258.578-4.377 1.72-6.323a12.752 12.752 0 014.656-4.629 12.549 12.549 0 016.39-1.72c2.277 0 4.562.637 6.588 1.846.445.266.863.551 1.268.857l-.006-.007zm44.891 8.794h-16.498l-6.489 13.343h-5.333l20.111-41.298 20.164 41.298h-5.326l-6.629-13.343zm18.258-5.705l6.018-5.274h6.974l-11.643 10.169 13.522 14.153h-6.608l-8.263-8.694v8.694h-4.821v-38.23h4.821v19.182zm17.581-6.755a3.28 3.28 0 002.292-.923 3.198 3.198 0 001.009-2.371c0-.917-.359-1.707-1.009-2.325a3.28 3.28 0 00-2.292-.923c-.87 0-1.66.325-2.291.923a3.15 3.15 0 00-1.003 2.325c0 .896.345 1.74 1.003 2.371a3.278 3.278 0 002.291.923zm-2.411 1.481h4.822v24.329h-4.822V174.88zm14.174 0h6.442v4.636h-6.442v10.421c0 1.361.312 2.663 1.321 3.62.977.93 2.159 1.295 3.501 1.295h1.66v4.636h-1.66c-2.584 0-4.942-.777-6.848-2.544-1.993-1.853-2.796-4.324-2.796-7.007v-23.505h4.822v8.448zm27.862 2.192v-2.192h4.822v24.329h-4.822v-2.232c-.432.346-.897.658-1.382.95-1.992 1.182-4.157 1.793-6.469 1.793-2.311 0-4.423-.571-6.389-1.72a12.75 12.75 0 01-4.656-4.629 12.312 12.312 0 01-1.72-6.323c0-2.258.578-4.377 1.72-6.323a12.75 12.75 0 014.656-4.629 12.54 12.54 0 016.389-1.721c2.278 0 4.563.638 6.589 1.847.445.265.863.551 1.268.857l-.006-.007zm-172.32 13.901l10.972-10.899a6.426 6.426 0 00-1.083-.558c-.883-.352-1.886-.465-2.83-.465-1.493 0-2.941.292-4.25 1.023a7.457 7.457 0 00-2.85 2.77c-.723 1.235-1.029 2.583-1.029 4.011 0 1.521.346 2.889 1.076 4.111l-.006.007zm44.2 4.118a7.36 7.36 0 003.9-1.089 8.265 8.265 0 002.902-2.956 7.805 7.805 0 001.062-3.998 7.686 7.686 0 00-1.082-3.965 8.333 8.333 0 00-2.923-2.983 7.343 7.343 0 00-3.898-1.089c-1.408 0-2.71.372-3.919 1.109a8.665 8.665 0 00-2.982 3.022 7.617 7.617 0 00-1.096 3.959c0 1.428.365 2.716 1.096 3.925a8.382 8.382 0 002.995 2.969 7.612 7.612 0 003.959 1.096h-.013zm50.451-13.908l-6.084-12.32-5.951 12.32h12.035zm69.911 13.908a7.36 7.36 0 003.899-1.089 8.253 8.253 0 002.902-2.956c.718-1.235 1.056-2.564 1.056-3.998a7.686 7.686 0 00-1.082-3.965 8.33 8.33 0 00-2.923-2.983 7.34 7.34 0 00-3.898-1.089c-1.408 0-2.71.372-3.919 1.109a8.663 8.663 0 00-2.982 3.022 7.617 7.617 0 00-1.096 3.959c0 1.428.365 2.716 1.096 3.925a8.378 8.378 0 002.995 2.969 7.614 7.614 0 003.959 1.096h-.007z" fill="#FDFDFD"/><path fill-rule="evenodd" clip-rule="evenodd" d="M5.52 180.034l-.034 22.077H0v-22.077h5.52z" fill="#9968FD"/><path fill-rule="evenodd" clip-rule="evenodd" d="M42.195 160.262l-.026 19.088h-4.55v-19.088h4.576zm45.23 28.054a4.49 4.49 0 004.483-4.483 4.49 4.49 0 00-4.483-4.483 4.49 4.49 0 00-4.483 4.483 4.49 4.49 0 004.483 4.483z" fill="#989898"/><path fill-rule="evenodd" clip-rule="evenodd" d="M130.889 170.078h5.333l-14.698 30.346h-5.34l14.705-30.346zm52.775.04c-.87 0-1.66-.325-2.291-.923-.665-.631-1.003-1.454-1.003-2.371s.358-1.707 1.003-2.325a3.283 3.283 0 012.291-.923c.87 0 1.66.326 2.291.923a3.157 3.157 0 011.01 2.325c0 .897-.345 1.74-1.01 2.371a3.278 3.278 0 01-2.291.923z" fill="#9968FD"/><path fill-rule="evenodd" clip-rule="evenodd" d="M39.166 206.316h156.021l-4.21 3.248H34.955l4.211-3.248zm190.984-31.442l-.027 16.797h-4.556v-16.797h4.583z" fill="#989898"/><defs><linearGradient id="paint0_linear_41_515" x1="131.318" y1="78.074" x2="137.975" y2="59.918" gradientUnits="userSpaceOnUse"><stop stop-color="#7D5CA3"/><stop offset="1" stop-color="#C33C8E"/></linearGradient><linearGradient id="paint1_linear_41_515" x1="89.939" y1="78.074" x2="96.592" y2="59.918" gradientUnits="userSpaceOnUse"><stop stop-color="#7D5CA3"/><stop offset="1" stop-color="#C33C8E"/></linearGradient><linearGradient id="paint2_linear_41_515" x1="131.496" y1="35.411" x2="145.274" y2="35.411" gradientUnits="userSpaceOnUse"><stop stop-color="#2A2C2A"/><stop offset="1" stop-color="#BFBEBE"/></linearGradient><linearGradient id="paint3_linear_41_515" x1="96.6" y1="35.411" x2="82.822" y2="35.411" gradientUnits="userSpaceOnUse"><stop stop-color="#2A2C2A"/><stop offset="1" stop-color="#BFBEBE"/></linearGradient></defs></svg>