<svg width="268" height="94" fill="none" xmlns="http://www.w3.org/2000/svg"><path fill-rule="evenodd" clip-rule="evenodd" d="M54.592 3.59L54.293 0c9.665 1.488 18.768 6.03 25.79 13.132l-3.268 1.681c-6.17-5.921-13.956-9.78-22.225-11.22l.002-.004z" fill="#FDFDFD"/><path fill-rule="evenodd" clip-rule="evenodd" d="M47.911 4.643c12.63.59 24.705 6.8 32.432 17.407l-3.655 1.88C69.795 14.792 59.28 9.392 48.25 8.725l-.339-4.082zM7.104 57.542c-.027-.098-.056-.193-.08-.291-1.622-6.223-1.696-12.783-.278-19.048l1.687.762a38.315 38.315 0 003.364 25.719c7.655 14.89 23.75 22.667 39.465 20.512l2.332 1.459c-8.325 1.593-17.14.468-24.856-3.182-8.063-3.814-14.48-10.025-18.558-17.958a40.443 40.443 0 01-3.08-7.973h.003z" fill="#F0F"/><path fill-rule="evenodd" clip-rule="evenodd" d="M.417 53.357l4.3 2.692a42.226 42.226 0 003.72 10.36c9.107 17.715 29.002 26.257 47.537 21.736l4.304 2.695c-21.092 6.898-44.733-2.348-55.197-22.702a45.8 45.8 0 01-4.664-14.78z" fill="#FDFDFD"/><path fill-rule="evenodd" clip-rule="evenodd" d="M1.426 35.8l3.219 1.452a42.297 42.297 0 00-.487 17.41L.28 52.235a46.113 46.113 0 011.146-16.436z" fill="#9968FD"/><path fill-rule="evenodd" clip-rule="evenodd" d="M86.916 26.066c9.702 18.874 5.045 41.403-9.94 55.054l-4.349-2.938c8.982-7.542 14.694-18.853 14.694-31.498a40.9 40.9 0 00-5.334-20.258l4.005-2.06c.318.559.627 1.123.924 1.7z" fill="#fff"/><path fill-rule="evenodd" clip-rule="evenodd" d="M22.835 69.637a18.334 18.334 0 01-4.037-3.518 16.05 16.05 0 01-2.768-4.68c-.32-.829-.58-1.705-.773-2.597a19.678 19.678 0 01-.373-2.663 22.88 22.88 0 01.264-5.286c.127-.787.305-1.607.527-2.44-.008-.03-.013-.06-.019-.088-.51-.765-.77-1.808-.77-3.1 0-1.085.453-2.054 1.284-2.772a62.251 62.251 0 01-.024-4.33 21.331 21.331 0 01.003-.003 58.36 58.36 0 01.474-5.961c.67-5.003 2.003-9.67 3.962-13.87 1.086-2.322 2.325-4.443 3.68-6.298.188-.262.384-.519.55-.736l.268-.339.082-.092c.082-.09.185-.204.325-.316l.157-.127.18-.113c.248-.156.526-.273.852-.355l.024-.005.024-.006c.227-.045.436-.068.635-.068a3.049 3.049 0 011.107.217l.026.007.024.014a2.962 2.962 0 011.342 1.151c.071.111.122.217.164.302l.037.08.453 1.024c.142.339.304.672.479 1.024.082.167.161.334.24.5.935 1.885 2.06 3.802 3.44 5.845.219.334.438.646.671.977.101.143.202.283.302.426l.196.268c.265.365.54.738.818 1.096.19.254.381.494.524.675a47.537 47.537 0 00.98 1.21c.9-.252 1.882-.453 3.03-.62a29.053 29.053 0 014.07-.294c1.4.005 2.768.103 4.076.294 1.151.167 2.13.365 3.03.62.143-.173.292-.35.445-.54.199-.242.37-.459.53-.662.148-.189.338-.43.521-.673.283-.365.553-.738.818-1.098l.201-.276c.1-.143.199-.286.3-.426.235-.33.455-.643.669-.966 1.385-2.052 2.512-3.968 3.45-5.869.073-.153.155-.32.237-.487.172-.352.337-.683.477-1.021l.45-1.028.037-.079a2.916 2.916 0 01.752-.985 2.97 2.97 0 01.754-.47l.024-.011.024-.008a3.09 3.09 0 011.106-.217 3.3 3.3 0 01.636.068l.023.006.024.005c.328.082.606.199.853.352l.18.117.158.13c.138.108.239.219.32.309l.085.095.263.336c.171.22.367.48.558.742 1.35 1.852 2.589 3.97 3.674 6.294 1.959 4.201 3.293 8.868 3.963 13.871a58.3 58.3 0 01.474 5.959 21.47 21.47 0 00.002.002c.043 1.43.035 2.878-.023 4.334.83.717 1.283 1.686 1.283 2.771 0 1.292-.26 2.332-.773 3.097-.005.03-.013.058-.018.087a26.2 26.2 0 01.527 2.444c.296 1.818.386 3.597.264 5.283-.066.91-.19 1.806-.373 2.66a17.55 17.55 0 01-.773 2.603 16.086 16.086 0 01-2.769 4.677 18.343 18.343 0 01-4.047 3.523c.53 2.812-.193 10.835-21.944 10.835-23.062 0-23.284-7.613-22.895-10.843l-.003.006z" fill="#9968FD"/><path fill-rule="evenodd" clip-rule="evenodd" d="M63.926 74.293c-.63-2.11-.9-2.91-1.133-3.627H27.727c-.236.723-.524 1.583-1.162 3.72a42.71 42.71 0 01-1.125-.662c.842-2.806 1.22-3.873 1.226-3.891a.634.634 0 01.6-.435h35.985a.63.63 0 01.6.435c.006.018.358 1.008 1.187 3.758-.376.244-.744.48-1.112.705v-.003z" fill="#433B72"/><path fill-rule="evenodd" clip-rule="evenodd" d="M63.96 74.402c-.632-2.118-.934-3.023-1.164-3.738H27.733c-.233.723-.493 1.474-1.133 3.618a35.295 35.295 0 01-1.125-.661c.839-2.798 1.18-3.743 1.196-3.79a.632.632 0 01.6-.435h35.985c.273 0 .517.175.601.434.016.048.392 1.125 1.218 3.87-.376.244-.744.48-1.112.704l-.002-.002z" fill="#000"/><path fill-rule="evenodd" clip-rule="evenodd" d="M45.261 68.483h20.396s4.363 9.905-20.395 9.905c-24.759 0-20.396-9.905-20.396-9.905H45.26z" fill="#9968FD"/><path fill-rule="evenodd" clip-rule="evenodd" d="M45.261 68.483h20.396s.043.098.096.273c-.85 2.909-4.884 6.845-20.492 6.845-15.607 0-19.638-3.936-20.49-6.845.052-.175.095-.273.095-.273H45.26z" fill="#000"/><path fill-rule="evenodd" clip-rule="evenodd" d="M25.326 69.118c-.164.646-.33 2.033.638 3.5 1.549 2.342 6.152 5.138 19.297 5.138 13.146 0 17.75-2.796 19.298-5.138.969-1.467.802-2.851.638-3.5h-39.87zm37.983 6.446a23.232 23.232 0 01-3.98 1.82c-3.442 1.08-8.075 1.629-13.874 1.642a93.28 93.28 0 01-3.878-.08 57.94 57.94 0 01-4.818-.402c-3.566-.481-6.464-1.368-9.368-2.867-1.077-.69-1.911-1.487-2.501-2.39-1.668-2.557-.646-4.958-.601-5.058.1-.23.328-.379.58-.379h40.788a.63.63 0 01.58.379c.045.1 1.07 2.499-.6 5.058-.557.853-1.335 1.612-2.328 2.277z" fill="#000"/><path fill-rule="evenodd" clip-rule="evenodd" d="M52.882 72.892a77.023 77.023 0 01-7.613.376h-.01c-2.544 0-5.088-.124-7.624-.376-2.472-.296-4.667-.733-6.618-1.278-21.25-5.956-13.037-25.23-13.037-25.23-1.921-19.22 5.03-30.377 8.278-34.446.67-.836 1.983-.64 2.396.347 3.287 7.899 8.99 14.172 8.99 14.172.88-.31 1.868-.542 2.834-.714a27.093 27.093 0 019.559 0c.966.172 1.953.402 2.835.714 0 0 5.699-6.273 8.99-14.172.412-.987 1.725-1.183 2.395-.347 3.248 4.069 10.202 15.226 8.277 34.447 0 0 9.79 22.966-19.652 26.505v.002z" fill="#FBA329"/><path fill-rule="evenodd" clip-rule="evenodd" d="M29.045 70.425a23.89 23.89 0 01-.791-.307l-.559-.23c-.185-.08-.367-.167-.55-.249-.368-.161-.726-.35-1.083-.53a20.585 20.585 0 01-2.057-1.23 16.549 16.549 0 01-3.52-3.171 14.486 14.486 0 01-2.346-4.069c-.553-1.474-.868-3.036-.982-4.616a21.627 21.627 0 01.223-4.765 23.61 23.61 0 01.418-2.102 16.306 16.306 0 001.496 5.495c-.006.175-.011.35-.011.522 0 7.753 6.42 13.034 9.76 15.258l.002-.005zM19.93 41.758a.964.964 0 00-.034-.093c-.413-1.09 1.003-2.58 2.197-2.58.1 0 .2.01.296.03 0 0 .275-3.319 2.893-3.319.122 0 .246.008.379.022l.569-.257s.953.767.646 1.437c-.434.95-2.708-.002-2.96 2.944a1.148 1.148 0 01-.156.487 23.01 23.01 0 00-3.83 1.326v.003z" fill="#BE6F00"/><path fill-rule="evenodd" clip-rule="evenodd" d="M61.472 70.428c3.41-2.268 10.035-7.73 9.757-15.755v-.027c.005.175.01.35.01.522 0 7.756-6.426 13.04-9.764 15.263l-.003-.003zm-32.427-.005c-3.34-2.224-9.757-7.507-9.76-15.258 0-.172.003-.347.011-.521v.026c-.278 8.02 6.34 13.479 9.75 15.75v.003z" fill="#4A4A8E"/><path fill-rule="evenodd" clip-rule="evenodd" d="M45.272 73.268h-.021a77.26 77.26 0 01-7.544-.37.08.08 0 00-.059-.082c-1.609-.384-3.205-.739-4.775-1.178a45.58 45.58 0 01-3.825-1.215c-3.412-2.272-10.03-7.73-9.75-15.75.08.222.168.444.26.67 1.686 1.095 10.848 6.866 13.5 4.825 2.748-2.115 3.235-9.456 5.53-13.426 1.173-2.028 3.717-3.518 6.051-3.595 3.11-.1 5.797 1.38 7.232 4.095 2.181 4.13 2.87 11.039 5.567 12.923 4.124 2.883 10.816-2.115 13.794-5.495v-.027c0 6.975-4.193 12.079-9.755 15.782-1.246.466-2.527.85-3.82 1.21-.394.1-.785.217-1.182.315-.398.095-.792.206-1.192.3-.4.087-.797.195-1.199.285-.4.093-.802.185-1.204.291a.066.066 0 00-.048.064v.005c-2.512.246-5.035.37-7.555.37l-.005.003zm-25.454-17.33l.013.029-.008-.016-.008-.013h.003zm.222.45l.008.013.008.016-.016-.03zm.095.18l.006.01.01.019-.016-.03zm18.768 6.464a4.945 4.945 0 001.255 1.67 12.583 12.583 0 00-.109 1.583c0 2.719 1.078 5.326 5.212 5.326h.022c4.936 0 5.516-3.719 5.103-6.906a4.892 4.892 0 001.223-1.604l-.026-.066c.164-.392.238-.538.362-1.03.464-.278 1.067-.73 1.507-1.38a8.77 8.77 0 01-.834-.624c-.032.027-.064.056-.098.082.108-.087.211-.182.31-.283.958-.998.923-2.3.92-2.356a.635.635 0 00-1.267.045c0 .003.01.837-.577 1.443a2.212 2.212 0 01-.204.182 9.703 9.703 0 01-.733-.926 1.803 1.803 0 01-1.099.341c-1.392 0-2.322-1.156-2.827-2.033a3.69 3.69 0 001.511-2.994c0-1.082-.83-1.672-1.665-1.993a4.644 4.644 0 00-1.646-.307 4.63 4.63 0 00-1.647.307c-.833.32-1.665.91-1.665 1.993a3.69 3.69 0 001.512 2.994c-.503.877-1.432 2.033-2.827 2.033-.456 0-.816-.132-1.099-.341-.225.32-.468.63-.733.926a1.662 1.662 0 01-.204-.182c-.59-.604-.577-1.438-.577-1.443a.633.633 0 10-1.268-.045c0 .056-.037 1.355.921 2.356.098.1.202.196.31.283-.032-.026-.066-.053-.098-.082a9.5 9.5 0 01-.834.625c.44.648 1.043 1.101 1.507 1.379.124.492.198.638.362 1.03v-.003z" fill="#fff"/><path fill-rule="evenodd" clip-rule="evenodd" d="M38.538 62.003c-.463-.278-1.067-.731-1.506-1.38.296-.195.571-.404.833-.624.146.127.302.238.472.339 0 .434.04 1.027.2 1.665zm13.47-.016a6.707 6.707 0 00.197-1.65 3.37 3.37 0 00.46-.328c.26.217.532.424.824.614-.432.638-1.022 1.086-1.48 1.364zM49.9 59.626h-.024c-3.356 0-3.955-3.389-3.978-3.532a.622.622 0 00-.104-.26l.829-.303s1.04 2.996 3.282 2.996c.456 0 .816-.132 1.101-.342.228.323.474.636.744.935-.442.33-1.061.503-1.847.506H49.9zm-9.233 0h-.024c-.794-.003-1.419-.178-1.86-.517.264-.296.51-.606.733-.926.283.209.645.341 1.098.341 2.242 0 3.282-2.996 3.282-2.996l.847.31a.638.638 0 00-.1.251c-.024.146-.622 3.534-3.979 3.534l.003.003z" fill="#fff"/><path fill-rule="evenodd" clip-rule="evenodd" d="M61.472 70.428c3.338-2.223 9.763-7.504 9.765-15.263 0-.172-.002-.347-.01-.521a16.187 16.187 0 001.495-5.496c.17.694.307 1.395.419 2.102.246 1.58.328 3.182.222 4.765-.114 1.58-.429 3.142-.982 4.616a14.488 14.488 0 01-2.346 4.069 16.49 16.49 0 01-3.52 3.171c-.654.458-1.35.852-2.057 1.234-.36.18-.715.368-1.083.529-.182.082-.365.17-.55.249l-.559.233c-.264.108-.53.212-.797.31l.003.002zm9.125-28.67a23.033 23.033 0 00-3.83-1.327 1.174 1.174 0 01-.16-.492c-.264-2.97-2.636-2.173-2.956-2.94-.284-.678.646-1.438.646-1.438l.566.257c.132-.016.257-.022.379-.022 2.62 0 2.893 3.32 2.893 3.32.095-.024.196-.032.296-.032 1.194 0 2.61 1.488 2.197 2.581-.013.032-.023.063-.034.093h.003z" fill="#BE6F00"/><path fill-rule="evenodd" clip-rule="evenodd" d="M26.87 11.502s-.009 0-.014.002c.005 0 .008 0 .013-.002z" fill="#A2A2D2"/><path fill-rule="evenodd" clip-rule="evenodd" d="M61.864 12.29c-3.29 7.9-8.99 14.17-8.99 14.17-.881-.31-1.868-.542-2.835-.715a27.078 27.078 0 00-9.556 0c-.966.173-1.953.405-2.835.715 0 0-5.701-6.273-8.99-14.17a1.409 1.409 0 00-1.786-.786c.043-.013.085.016.127.12 3.058 7.342 8.233 14.593 9.614 16.197a.824.824 0 00.874.249 21.592 21.592 0 012.575-.61c.374-.065.747-.124 1.12-.177.44.694 2.1 1.213 4.077 1.213 1.977 0 3.637-.516 4.079-1.212.373.052.749.108 1.12.177a21.95 21.95 0 012.575.609.83.83 0 00.874-.25c1.382-1.603 6.355-8.359 9.415-15.702.186-.444.54-.034.94-.166-.667-.845-1.985-.652-2.4.338h.002z" fill="#BE6F00"/><path fill-rule="evenodd" clip-rule="evenodd" d="M26.258 11.95c.3.097.46-.377.6-.443a1.417 1.417 0 00-.6.442z" fill="#A2A2D2"/><path fill-rule="evenodd" clip-rule="evenodd" d="M52.162 59.604c-5.074 2.687-6.887-2.467-6.887-2.467s-1.814 5.154-6.89 2.467c0 0-1.046 6.645 6.89 6.645s6.887-6.645 6.887-6.645z" fill="#000"/><path fill-rule="evenodd" clip-rule="evenodd" d="M45.273 56.63s-.006.024-.011.037a.2.2 0 01-.011-.038h.022z" fill="#FF6C8B"/><path fill-rule="evenodd" clip-rule="evenodd" d="M45.272 71.611h-.01c-5.97 0-5.567-5.437-4.747-8.799.365-1.506.816-2.594.816-2.594s2.988-.2 3.93-3.555c.943 3.354 3.931 3.555 3.931 3.555s4.707 11.383-3.92 11.39v.003z" fill="#F0F"/><path fill-rule="evenodd" clip-rule="evenodd" d="M45.282 71.611h-.02.01c4.918-.005 5.503-3.708 5.096-6.89.005-.005.013-.01.018-.016.41 3.187-.167 6.906-5.104 6.906z" fill="#7C7CB5"/><path fill-rule="evenodd" clip-rule="evenodd" d="M50.368 64.721a17.526 17.526 0 00-.366-1.938.285.285 0 01.027.03c.143.582.27 1.225.357 1.892a.117.117 0 00-.018.016z" fill="#000072"/><path fill-rule="evenodd" clip-rule="evenodd" d="M45.272 71.612h-.01c-4.135 0-5.213-2.608-5.213-5.326 0-1.207.212-2.438.466-3.473.061-.07.095-.106.095-.106s-.516 6.482 4.66 6.482c5.174 0 4.658-6.482 4.658-6.482l.069.077c.146.593.278 1.254.365 1.937.408 3.182-.177 6.885-5.095 6.89h.005z" fill="#9800CB"/><path fill-rule="evenodd" clip-rule="evenodd" d="M45.894 58.622c.032.68.03 1.36.024 2.044a58.3 58.3 0 01-.066 2.043c-.035.68-.066 1.361-.138 2.044-.071.68-.154 1.36-.302 2.043a.155.155 0 01-.185.12.157.157 0 01-.12-.12c-.147-.68-.23-1.36-.3-2.043-.072-.68-.104-1.363-.139-2.044-.031-.68-.053-1.36-.066-2.043-.008-.68-.008-1.36.024-2.044a.633.633 0 011.265 0h.003z" fill="#000"/><path fill-rule="evenodd" clip-rule="evenodd" d="M41.791 60.79c-.474 1.29-2.036 6.043-.347 8.566.72 1.075 2.004 1.62 3.817 1.62 1.814 0 3.1-.545 3.82-1.62 1.689-2.523.127-7.277-.347-8.566-.77-.156-2.424-.69-3.47-2.488a5.178 5.178 0 01-3.47 2.488h-.003zm3.47 11.454c-2.263 0-3.904-.736-4.873-2.186-2.33-3.484.246-9.816.357-10.083a.633.633 0 01.543-.39c.1-.007 2.491-.227 3.33-2.975a.629.629 0 01.466-.595.859.859 0 01.18-.024.63.63 0 01.646.62c.85 2.774 3.303 2.972 3.33 2.975.24.016.45.166.543.389.11.267 2.686 6.599.357 10.083-.969 1.45-2.61 2.186-4.873 2.186h-.006z" fill="#000"/><path fill-rule="evenodd" clip-rule="evenodd" d="M49.875 60.894c-2.427 0-3.86-1.4-4.603-2.796-.746 1.395-2.179 2.796-4.603 2.796h-.03c-1.289-.006-2.292-.376-2.985-1.099-.959-.998-.924-2.3-.922-2.356a.635.635 0 011.268.045c0 .003-.01.837.578 1.443.447.458 1.14.693 2.067.696h.024c3.356 0 3.954-3.388 3.978-3.534a.634.634 0 011.25 0c.023.143.622 3.531 3.978 3.531h.024c.924-.005 1.62-.238 2.067-.696.59-.603.58-1.437.58-1.445a.634.634 0 011.266-.04c0 .056.037 1.355-.922 2.356-.693.723-1.697 1.09-2.986 1.099h-.029z" fill="#000"/><path fill-rule="evenodd" clip-rule="evenodd" d="M46.926 51.51a4.658 4.658 0 00-3.33 0c-.833.32-1.664.91-1.664 1.993 0 2.165 1.784 3.634 3.33 3.634 1.545 0 3.33-1.469 3.33-3.634 0-1.083-.834-1.673-1.666-1.993z" fill="#000"/><path fill-rule="evenodd" clip-rule="evenodd" d="M47.21 52.688c0 .233-.871.423-1.949.423-1.077 0-1.948-.188-1.948-.423 0-.236.871-.424 1.948-.424 1.078 0 1.949.19 1.949.424z" fill="#fff"/><path fill-rule="evenodd" clip-rule="evenodd" d="M20.003 42.592a4.427 4.427 0 01-.093-.636l.093.636z" fill="#FF7C88"/><path fill-rule="evenodd" clip-rule="evenodd" d="M25.657 35.807l.003.013c-.061-.01-.12-.018-.178-.026a3.21 3.21 0 00-.929-.003 2.357 2.357 0 00-.638.186c-.045.02-.09.045-.132.066a2.012 2.012 0 00-.482.368 1.7 1.7 0 00-.159.18 2.448 2.448 0 00-.183.26 3.378 3.378 0 00-.267.555 4.663 4.663 0 00-.174.611v.011l-.024.12v.01a4.576 4.576 0 00-.043.29l-.007.078-.008.092c-.021.27-.016.445-.016.445-1.17 0-1.814.447-2.155 1.022-.357.603-.386 1.347-.347 1.869a37.963 37.963 0 01-.3-3.312c-.594-13.325 6.214-23.41 7.55-25.256.024-.029.043-.058.059-.082l.143-.19a.166.166 0 01.016-.019l.005-.005c-1.813 3.242-2.56 7.038-2.764 10.585-.37 6.303.964 11.833 1.038 12.135l-.008-.003z" fill="#fff"/><path fill-rule="evenodd" clip-rule="evenodd" d="M25.657 35.807l.003.013c-.061-.01-.12-.018-.178-.026a3.31 3.31 0 00-.929-.003 2.677 2.677 0 00-.47.117c-.06.02-.112.045-.168.069-.045.02-.09.045-.132.066a2.006 2.006 0 00-.482.368 1.69 1.69 0 00-.159.18 2.448 2.448 0 00-.183.26 2.902 2.902 0 00-.267.555c-.08.206-.135.416-.174.611v.011l-.024.12v.01a4.576 4.576 0 00-.043.29l-.008.078-.007.092c-.022.27-.016.445-.016.445-1.133.116-1.79.524-2.155 1.022-.297.405-.402.873-.42 1.294a38.021 38.021 0 01-.229-2.737c.294-.355.67-.585.967-.728a.863.863 0 00.487-.754c.055-1.962 1.106-2.851 1.77-3.216a.85.85 0 00.435-.866c-1.65-11.068 2.822-18.178 3.888-19.692a.751.751 0 00.058-.082l.143-.19.016-.019.006-.005c-1.681 3.708-2.47 7.346-2.764 10.585-.62 6.803.95 11.86 1.038 12.135l-.003-.003z" fill="#fff"/><path fill-rule="evenodd" clip-rule="evenodd" d="M27.462 13.127c-.49 1.316-.881 2.658-1.228 4.005l-.249 1.014c-.071.341-.15.677-.22 1.019a35.01 35.01 0 00-.584 4.119c-.014.172-.032.344-.045.519l-.032.518c-.027.345-.032.691-.045 1.038a37.5 37.5 0 00.127 4.153c.122 1.382.328 2.753.606 4.109.074.338.138.68.223 1.014l.251 1.008v.016c0-.016.019.053.021.087a.684.684 0 01-.214.588.68.68 0 01-.493.175c-.034 0-.105-.014-.09-.011h-.005l-.013-.003-.106-.015a3.484 3.484 0 00-.66-.021 2.03 2.03 0 00-.775.2 1.41 1.41 0 00-.535.469c-.134.201-.23.458-.283.739a4.071 4.071 0 00-.055.908l.005.119v.045c0 .018.003.066 0 .1a.735.735 0 01-.521.665c-.067.023-.183.031-.162.029h-.026l-.106.013a2.896 2.896 0 00-.427.087 2.539 2.539 0 00-.746.342 1.724 1.724 0 00-.53.558c-.137.23-.224.514-.277.824a6.347 6.347 0 00-.064.997v.006a.21.21 0 01-.212.209.21.21 0 01-.188-.116 3.502 3.502 0 01-.333-1.094 2.912 2.912 0 01-.016-.609c.005-.103.024-.209.042-.315.027-.103.05-.211.088-.315.135-.42.413-.804.752-1.09a3.136 3.136 0 011.135-.59 3.934 3.934 0 01.762-.151l.04-.006c.043-.005-.053.003-.095.019a.523.523 0 00-.373.468v.067-.019l-.003-.037-.008-.146a5.257 5.257 0 01.06-1.196 3.27 3.27 0 01.467-1.22 2.552 2.552 0 011.038-.908 3.32 3.32 0 011.257-.32 4.345 4.345 0 01.924.034c.05.008.103.016.156.026h.018l.011.006c.021.005-.045-.008-.074-.008a.594.594 0 00-.622.662c0 .029.018.092.013.07v-.015l-.251-1.046c-.085-.346-.146-.701-.22-1.05a37.123 37.123 0 01-.577-4.257 34.17 34.17 0 01-.066-4.294c.018-.357.034-.714.066-1.072l.045-.534c.016-.178.037-.355.055-.533a33.53 33.53 0 01.31-2.122c.262-1.406.596-2.798 1.062-4.151.233-.675.497-1.34.799-1.988a13.03 13.03 0 011.04-1.872c.027-.04.08-.05.12-.02a.085.085 0 01.031.1v.005l.005-.005z" fill="#984200"/><path fill-rule="evenodd" clip-rule="evenodd" d="M70.517 42.592c.01-.045.066-.292.093-.636l-.093.636z" fill="#FF7C88"/><path fill-rule="evenodd" clip-rule="evenodd" d="M64.866 35.807l-.003.013c.06-.01.12-.018.177-.026a3.21 3.21 0 01.93-.003 2.354 2.354 0 01.638.186c.044.02.09.045.132.066a2.151 2.151 0 01.736.67c.031.044.06.09.09.137a3.378 3.378 0 01.267.556c.077.209.132.416.175.611v.011c.008.04.016.08.021.12v.01c.019.103.032.198.042.29 0 .027.006.051.008.078.003.031.003.063.008.092.024.27.016.445.016.445 1.17 0 1.813.447 2.155 1.022.357.603.386 1.347.347 1.869.026-.194.052-.384.071-.575.111-.926.185-1.84.228-2.737.595-13.325-6.213-23.41-7.55-25.256-.024-.029-.042-.058-.058-.082l-.143-.19-.016-.019-.005-.005c1.813 3.242 2.56 7.038 2.763 10.585.371 6.303-.963 11.833-1.037 12.135l.008-.003z" fill="#fff"/><path fill-rule="evenodd" clip-rule="evenodd" d="M64.866 35.807l-.003.013c.061-.01.12-.018.177-.026a3.31 3.31 0 01.93-.003 2.677 2.677 0 01.47.117c.059.02.112.045.168.069.044.02.087.045.132.066a2.043 2.043 0 01.484.368 2.1 2.1 0 01.16.18 2.448 2.448 0 01.183.26 2.892 2.892 0 01.266.555c.08.206.135.416.175.611v.011c.008.04.016.08.021.12v.01c.021.103.034.198.042.29 0 .027.006.051.008.078l.008.092c.024.27.016.445.016.445 1.136.116 1.79.524 2.155 1.022.296.405.4.873.418 1.294.111-.926.185-1.84.228-2.737a2.88 2.88 0 00-.97-.728.863.863 0 01-.486-.754c-.056-1.962-1.107-2.851-1.771-3.216a.85.85 0 01-.434-.866C68.892 22.01 64.42 14.9 63.352 13.386c-.024-.029-.043-.058-.059-.082l-.143-.19-.015-.019-.006-.005c1.681 3.708 2.47 7.346 2.764 10.585.62 6.803-.95 11.86-1.038 12.135l.01-.003z" fill="#E5E5E5"/><path fill-rule="evenodd" clip-rule="evenodd" d="M52.877 72.83c.402-.106.802-.2 1.204-.292.4-.09.797-.198 1.2-.286.4-.092.794-.203 1.19-.299.398-.095.79-.214 1.184-.315 1.57-.434 3.121-.91 4.617-1.52l.558-.232c.185-.08.365-.167.55-.249.369-.162.723-.35 1.083-.53a20.017 20.017 0 002.057-1.233 16.484 16.484 0 003.52-3.171 14.486 14.486 0 002.346-4.069c.55-1.474.868-3.036.982-4.616a21.621 21.621 0 00-.222-4.765 24.558 24.558 0 00-.988-4.077 13.605 13.605 0 00-.198-.542l-.005-.013a.621.621 0 01-.043-.3c.463-4.603.45-9.256-.159-13.833-.611-4.572-1.831-9.07-3.777-13.24-.974-2.082-2.115-4.088-3.465-5.936-.167-.233-.341-.458-.513-.685l-.133-.17-.066-.084-.032-.04-.021-.021c-.03-.03-.053-.064-.087-.085l-.045-.04c-.019-.01-.035-.018-.05-.029a.714.714 0 00-.456-.103c-.082 0-.159.03-.235.056-.072.037-.146.071-.202.127a.726.726 0 00-.156.18c-.024.034-.037.074-.058.108l-.087.199-.358.815c-.23.548-.505 1.072-.76 1.607-1.05 2.123-2.27 4.15-3.589 6.107-.326.492-.672.968-1.008 1.453-.35.474-.694.953-1.054 1.421-.177.236-.36.469-.543.702-.18.233-.365.463-.553.69-.373.461-.746.909-1.154 1.364a.626.626 0 01-.67.175h-.008c-1.154-.403-2.398-.657-3.642-.837a26.287 26.287 0 00-7.523 0c-1.244.18-2.486.432-3.643.831h-.008a.617.617 0 01-.67-.172c-.404-.455-.78-.902-1.153-1.363-.188-.23-.373-.458-.553-.69-.183-.234-.366-.464-.543-.7-.36-.468-.707-.945-1.056-1.421-.34-.485-.686-.961-1.009-1.453-1.318-1.957-2.538-3.984-3.59-6.107-.254-.535-.529-1.059-.76-1.607l-.356-.815-.088-.199c-.021-.034-.034-.077-.058-.108a.729.729 0 00-.156-.18c-.058-.056-.13-.09-.201-.127-.077-.024-.154-.053-.236-.056a.732.732 0 00-.455.103.49.49 0 01-.05.03l-.046.04c-.034.02-.058.055-.087.084l-.021.021-.032.04-.066.084-.132.17a21.83 21.83 0 00-.514.685c-1.35 1.848-2.49 3.854-3.465 5.935-1.946 4.17-3.166 8.67-3.777 13.238-.61 4.577-.622 9.228-.16 13.834a.686.686 0 01-.044.304v.008c-.069.164-.14.36-.204.543-.064.188-.127.376-.185.569a24.846 24.846 0 00-.802 3.505 21.621 21.621 0 00-.223 4.764c.114 1.58.43 3.142.982 4.617a14.483 14.483 0 002.346 4.069 16.549 16.549 0 003.52 3.17c.654.456 1.353.853 2.057 1.232.36.18.715.368 1.083.529.182.082.365.17.55.249l.559.23c1.495.606 3.047 1.09 4.616 1.522 1.57.44 3.169.794 4.776 1.178.04.01.066.05.055.09a.076.076 0 01-.074.058 29.402 29.402 0 01-4.95-.492c-.41-.071-.815-.167-1.223-.254-.407-.09-.81-.204-1.215-.304-.4-.12-.802-.236-1.199-.366l-.593-.204-.296-.103-.294-.114-.588-.227c-.196-.077-.386-.164-.58-.246-.389-.16-.767-.347-1.146-.527-.752-.381-1.498-.781-2.205-1.25a17.423 17.423 0 01-3.846-3.348 15.257 15.257 0 01-2.613-4.416 16.452 16.452 0 01-.733-2.464 18.685 18.685 0 01-.355-2.536c-.121-1.702-.015-3.407.257-5.074a24.159 24.159 0 01.908-3.693 16.21 16.21 0 01.453-1.21l-.048.313c-.471-4.688-.46-9.44.164-14.128.628-4.683 1.877-9.304 3.883-13.606 1.006-2.15 2.184-4.222 3.59-6.146.175-.241.355-.48.537-.715l.138-.178.069-.087.037-.045.053-.058a1.75 1.75 0 01.225-.222l.124-.101.135-.087c.18-.114.384-.188.59-.241a2 2 0 01.63-.04c.212.013.416.071.612.148a2.051 2.051 0 01.95.816c.058.09.098.185.146.277l.09.202.347.788c.222.53.49 1.04.735 1.562 1.022 2.065 2.214 4.048 3.505 5.961.318.482.66.95.988 1.425.341.466.68.934 1.032 1.392.175.23.352.458.53.686.177.227.357.452.54.675.362.447.738.894 1.108 1.31l-.68-.172c1.281-.442 2.578-.702 3.88-.892a27.654 27.654 0 017.884 0c1.302.188 2.6.45 3.88.892l-.68.172a41.925 41.925 0 001.65-1.985c.18-.228.357-.456.529-.686.352-.458.69-.926 1.032-1.392.331-.474.672-.943.99-1.425 1.292-1.913 2.483-3.899 3.505-5.963.246-.52.516-1.03.736-1.56l.346-.788.09-.202c.048-.092.088-.19.146-.277a2.052 2.052 0 011.562-.964 2.1 2.1 0 01.63.04c.206.053.41.127.59.24l.135.085.125.1c.084.067.153.144.225.223l.052.059.038.044.068.088.138.177c.183.236.363.474.537.715 1.406 1.927 2.584 4 3.59 6.146 2.006 4.302 3.258 8.924 3.886 13.606.622 4.688.635 9.44.164 14.128l-.048-.312c.093.217.164.407.241.611.074.199.146.4.212.601a24.576 24.576 0 01.908 3.69c.272 1.668.376 3.375.257 5.074-.061.85-.178 1.7-.355 2.536-.18.837-.424 1.663-.733 2.465a15.28 15.28 0 01-2.613 4.415 17.42 17.42 0 01-3.846 3.349c-.71.468-1.456.868-2.208 1.25-.381.18-.76.367-1.149.526-.193.082-.383.17-.58.246l-.587.228-.294.114-.296.103-.593.204c-.397.13-.8.246-1.2.368-.404.105-.807.214-1.212.307-.407.084-.813.182-1.223.251l-.614.106c-.206.034-.41.071-.617.095-.413.053-.823.109-1.236.146-.413.04-.826.071-1.239.098-.415.016-.828.031-1.244.034a.064.064 0 01-.063-.063c0-.03.018-.056.047-.061l-.013.01z" fill="#000"/><path fill-rule="evenodd" clip-rule="evenodd" d="M24.53 34.764c9.799 2.314 16.38 6.594 16.38 11.494 0 1.813-.903 3.544-2.539 5.12 4.185-2.65 8.82-2.545 13.852 0-1.633-1.578-2.538-3.307-2.538-5.12 0-4.842 6.43-9.082 16.044-11.414a24.839 24.839 0 00-2.02-1.846H26.417a24.916 24.916 0 00-1.888 1.764v.002z" fill="#9355F7"/><path fill-rule="evenodd" clip-rule="evenodd" d="M30.181 33.907c7.356 0 13.323 5.963 13.323 13.322 0 7.36-5.964 13.323-13.323 13.323-6.837 0-12.473-5.154-13.233-11.787l-1.255-.146a.472.472 0 01-.412-.522l.685-5.87a.472.472 0 01.522-.414l1.448.17c2.038-4.746 6.752-8.074 12.248-8.074l-.003-.002zm30.171 0c-7.356 0-13.322 5.963-13.322 13.322 0 7.36 5.963 13.323 13.322 13.323 6.838 0 12.473-5.154 13.233-11.787l1.255-.146a.472.472 0 00.413-.522l-.686-5.87a.472.472 0 00-.521-.414l-1.448.17c-2.038-4.746-6.753-8.074-12.248-8.074l.002-.002z" fill="#000"/><path fill-rule="evenodd" clip-rule="evenodd" d="M59.032 33.973h-27.53c6.737.664 12.002 6.345 12.002 13.256 0 1.813-.363 3.545-1.02 5.12 1.682-2.65 3.545-2.544 5.57 0a13.294 13.294 0 01-1.019-5.12c0-6.911 5.265-12.595 12.002-13.256h-.005z" fill="#000"/><path d="M36.731 57.04c5.86-3.176 8.035-10.5 4.86-16.36-3.177-5.86-10.502-8.035-16.361-4.859-5.86 3.176-8.035 10.501-4.86 16.36 3.177 5.86 10.502 8.036 16.361 4.86z" fill="#333"/><path fill-rule="evenodd" clip-rule="evenodd" d="M59.553 34.362c-6.665 0-12.068 5.402-12.068 12.068 0 6.665 5.403 12.068 12.068 12.068s12.068-5.403 12.068-12.068c0-6.666-5.403-12.068-12.068-12.068z" fill="#333"/><path fill-rule="evenodd" clip-rule="evenodd" d="M31.5 33.973h12.952v3.968h-4.726a13.287 13.287 0 00-8.227-3.968z" fill="#4D4D4D"/><path fill-rule="evenodd" clip-rule="evenodd" d="M32.746 35.571h10.13v.77h-8.142a26.714 26.714 0 00-1.988-.77z" fill="#fff"/><path d="M41.03 47.309c.806-5.478-2.98-10.572-8.457-11.379-5.477-.807-10.572 2.98-11.378 8.457-.807 5.477 2.979 10.571 8.456 11.378 5.477.807 10.572-2.98 11.379-8.456zm26.264 4.744c3.427-4.349 2.68-10.652-1.669-14.079-4.348-3.426-10.651-2.68-14.078 1.67-3.427 4.348-2.68 10.65 1.669 14.077 4.348 3.427 10.651 2.68 14.078-1.668z" fill="#666"/><path fill-rule="evenodd" clip-rule="evenodd" d="M31.64 36.136a9.182 9.182 0 019.182 9.182 9.182 9.182 0 01-9.183 9.183 9.182 9.182 0 01-9.182-9.183 9.182 9.182 0 019.183-9.182zm27.254 0a9.182 9.182 0 00-9.183 9.182 9.182 9.182 0 009.183 9.183 9.182 9.182 0 009.182-9.183 9.182 9.182 0 00-9.182-9.182z" fill="#1A1A1A"/><path fill-rule="evenodd" clip-rule="evenodd" d="M58.84 37.128a8.136 8.136 0 00-8.136 8.137 8.136 8.136 0 008.137 8.137 8.136 8.136 0 008.137-8.137 8.136 8.136 0 00-8.137-8.137z" fill="url(#paint0_linear_41_514)"/><path fill-rule="evenodd" clip-rule="evenodd" d="M31.692 37.128a8.136 8.136 0 00-8.137 8.137 8.136 8.136 0 008.137 8.137 8.136 8.136 0 008.138-8.137 8.136 8.136 0 00-8.137-8.137z" fill="url(#paint1_linear_41_514)"/><path fill-rule="evenodd" clip-rule="evenodd" d="M23.976 52.534a1.466 1.466 0 110 2.933 1.466 1.466 0 010-2.933z" fill="#1A1A1A"/><path fill-rule="evenodd" clip-rule="evenodd" d="M23.976 52.796a1.205 1.205 0 010 2.409 1.205 1.205 0 010-2.41z" fill="#fff"/><path fill-rule="evenodd" clip-rule="evenodd" d="M20.913 54.485l6.023 4.27a.448.448 0 01.103.63l-.786 1.09a.462.462 0 01-.636.106l-6.022-4.27a.448.448 0 01-.103-.63l.786-1.09a.462.462 0 01.636-.106z" fill="#333"/><path fill-rule="evenodd" clip-rule="evenodd" d="M21.342 55.255l4.718 3.346a.353.353 0 01.082.492l-.458.633a.359.359 0 01-.498.082l-4.72-3.346a.355.355 0 01-.082-.495l.458-.632a.359.359 0 01.498-.082l.002.002z" fill="#000"/><path fill-rule="evenodd" clip-rule="evenodd" d="M59.032 33.973H46.079v3.968h4.725a13.28 13.28 0 018.227-3.968z" fill="#4D4D4D"/><path fill-rule="evenodd" clip-rule="evenodd" d="M57.785 35.571h-10.13v.77h8.142a26.714 26.714 0 011.988-.77z" fill="#fff"/><path fill-rule="evenodd" clip-rule="evenodd" d="M66.557 52.534a1.466 1.466 0 100 2.933 1.466 1.466 0 000-2.933z" fill="#1A1A1A"/><path fill-rule="evenodd" clip-rule="evenodd" d="M66.557 52.796a1.205 1.205 0 000 2.409 1.205 1.205 0 000-2.41z" fill="#fff"/><path fill-rule="evenodd" clip-rule="evenodd" d="M69.617 54.485l-6.022 4.27a.448.448 0 00-.103.63l.786 1.09a.462.462 0 00.635.106l6.023-4.27a.448.448 0 00.103-.63l-.787-1.09a.462.462 0 00-.635-.106z" fill="#333"/><path fill-rule="evenodd" clip-rule="evenodd" d="M69.188 55.255l-4.717 3.346a.353.353 0 00-.082.492l.458.633a.359.359 0 00.498.082l4.717-3.346a.355.355 0 00.082-.495l-.458-.632a.359.359 0 00-.498-.082v.002zM56.88 35.357a.543.543 0 100 1.087.543.543 0 000-1.087zm-23.139 0a.543.543 0 10.002 1.087.543.543 0 00-.002-1.087z" fill="#000"/><path fill-rule="evenodd" clip-rule="evenodd" d="M34.054 37.477L28.09 52.566a8.165 8.165 0 01-2.923-2.433l5.09-12.878a8.09 8.09 0 013.793.222h.004zm2.554 1.305l-5.76 14.578a7.993 7.993 0 01-1.787-.392l5.977-15.123c.562.254 1.088.57 1.573.937h-.003zm24.632-1.294L55.272 52.58a8.182 8.182 0 01-2.928-2.414l5.106-12.918a8.134 8.134 0 013.788.24v-.001zm2.548 1.318l-5.754 14.56a8.037 8.037 0 01-1.79-.385l5.975-15.12a8.167 8.167 0 011.567.945h.002z" fill="#fff"/><path fill-rule="evenodd" clip-rule="evenodd" d="M53.033 27.074c2.06 2.991 5.588 4.68 9.056 5.927h1.62c.355.288.701.588 1.035.895 0 0 1.9-7.227.627-12.963-1.276-5.734-2.61-8.764-2.61-8.764a.495.495 0 00-.095.07.732.732 0 00-.156.18c-.024.035-.037.075-.058.11l-.088.198-.357.815c-.23.548-.506 1.072-.76 1.607-1.05 2.123-2.271 4.15-3.59 6.107-.325.492-.672.969-1.008 1.453-.35.474-.693.953-1.053 1.419-.178.236-.36.468-.543.701-.18.233-.365.464-.553.691-.373.46-.747.908-1.154 1.364a.612.612 0 01-.31.188l-.003.002z" fill="#333"/><path fill-rule="evenodd" clip-rule="evenodd" d="M65.062 32.49c.479-2.382 1.241-7.367.312-11.557-.701-3.155-1.421-5.493-1.927-6.957-.109.22-.217.44-.32.66-1.051 2.122-2.272 4.15-3.59 6.106-.325.493-.672.97-1.008 1.453-3.775 4.572-1.382 6.745 6.535 10.292l-.002.003z" fill="url(#paint2_linear_41_514)"/><path fill-rule="evenodd" clip-rule="evenodd" d="M63.211 13.042c.408.593.739 1.226 1.04 1.872.302.648.567 1.313.8 1.985.468 1.35.8 2.745 1.061 4.15.122.705.233 1.412.31 2.124.019.177.04.354.056.532l.045.534c.034.358.047.715.069 1.072.071 1.43.047 2.865-.067 4.294a37.202 37.202 0 01-.577 4.256c-.074.35-.135.705-.22 1.051l-.026.112a5.82 5.82 0 00-.257-.109l.284-.071a23.604 23.604 0 00-1.051-1.009l.047-.217c.278-1.358.485-2.73.607-4.108.121-1.38.164-2.767.127-4.154-.014-.346-.019-.693-.045-1.037l-.032-.52c-.01-.174-.03-.343-.045-.518a33.541 33.541 0 00-.23-2.067 33.78 33.78 0 00-.355-2.052c-.066-.341-.146-.677-.22-1.019l-.249-1.014c-.346-1.347-.738-2.69-1.228-4.005v-.005c-.019-.045.005-.093.05-.111.037-.013.08 0 .1.032l.006.002zm-.638 14.615c.781 0 1.42-.638 1.42-1.42 0-.78-.639-1.418-1.42-1.418-.78 0-1.419.638-1.419 1.419 0 .78.638 1.419 1.42 1.419z" fill="#666"/><path fill-rule="evenodd" clip-rule="evenodd" d="M62.573 27.233a.995.995 0 00.993-.992.999.999 0 00-.993-.996.995.995 0 000 1.988z" fill="#fff"/><path fill-rule="evenodd" clip-rule="evenodd" d="M62.997 22.982a.892.892 0 100-1.785.892.892 0 000 1.785z" fill="#666"/><path fill-rule="evenodd" clip-rule="evenodd" d="M62.997 22.715a.626.626 0 000-1.25.626.626 0 000 1.25z" fill="#fff"/><path fill-rule="evenodd" clip-rule="evenodd" d="M63.214 18.935c.347 0 .63-.284.63-.63a.631.631 0 00-.63-.63.632.632 0 00-.63.63c0 .346.283.63.63.63z" fill="#666"/><path d="M63.214 18.746a.442.442 0 100-.884.442.442 0 000 .884z" fill="#fff"/><path fill-rule="evenodd" clip-rule="evenodd" d="M37.487 27.074c-2.06 2.991-5.588 4.68-9.056 5.927h-1.62c-.355.288-.701.588-1.035.895 0 0-1.9-7.227-.627-12.963 1.276-5.734 2.61-8.764 2.61-8.764a.495.495 0 01.095.07.732.732 0 01.156.18c.024.035.037.075.059.11l.087.198.357.815c.23.548.506 1.072.76 1.607 1.05 2.123 2.271 4.15 3.59 6.107.325.492.672.969 1.008 1.453.35.474.694.953 1.053 1.419.178.236.36.468.543.701.18.233.366.464.553.691.374.46.747.908 1.155 1.364a.612.612 0 00.31.188l.002.002z" fill="#333"/><path fill-rule="evenodd" clip-rule="evenodd" d="M25.59 32.49c-.478-2.382-1.243-7.367-.311-11.557.701-3.155 1.421-5.493 1.927-6.957.108.22.217.44.32.66 1.05 2.122 2.271 4.15 3.59 6.106.325.493.672.97 1.008 1.453 3.775 4.572 1.382 6.745-6.536 10.292l.003.003z" fill="url(#paint3_linear_41_514)"/><path fill-rule="evenodd" clip-rule="evenodd" d="M27.311 13.042a13.03 13.03 0 00-1.04 1.872 20.987 20.987 0 00-.8 1.985c-.468 1.35-.799 2.745-1.06 4.15a32.398 32.398 0 00-.31 2.123c-.019.178-.04.355-.056.533l-.045.534c-.034.358-.048.715-.069 1.072a33.207 33.207 0 00.066 4.294c.109 1.427.305 2.85.577 4.256.074.35.135.705.22 1.051l.027.114.288-.124-.304-.074c.338-.345.675-.667 1.035-.996l-.048-.217a36.503 36.503 0 01-.606-4.108 36.234 36.234 0 01-.127-4.153c.013-.347.018-.694.045-1.038l.032-.519c.01-.175.029-.344.045-.519.05-.693.137-1.381.23-2.067.1-.685.212-1.371.355-2.051.066-.342.145-.678.22-1.02l.248-1.013c.347-1.348.739-2.69 1.228-4.005v-.006c.019-.045-.005-.092-.05-.11a.087.087 0 00-.1.03v.006zm.639 14.615c.78 0 1.418-.638 1.418-1.42 0-.78-.638-1.418-1.418-1.418-.781 0-1.42.638-1.42 1.419 0 .78.639 1.419 1.42 1.419z" fill="#666"/><path fill-rule="evenodd" clip-rule="evenodd" d="M27.95 27.233a.995.995 0 00.992-.992.999.999 0 00-.992-.996.995.995 0 000 1.988z" fill="#fff"/><path fill-rule="evenodd" clip-rule="evenodd" d="M27.526 22.982a.892.892 0 100-1.785.892.892 0 000 1.785z" fill="#666"/><path fill-rule="evenodd" clip-rule="evenodd" d="M27.526 22.715a.626.626 0 000-1.25.626.626 0 000 1.25z" fill="#fff"/><path fill-rule="evenodd" clip-rule="evenodd" d="M27.309 18.935c.347 0 .63-.284.63-.63a.631.631 0 00-.63-.63.631.631 0 00-.63.63c0 .346.283.63.63.63z" fill="#666"/><path d="M27.309 18.746a.442.442 0 100-.884.442.442 0 000 .884z" fill="#fff"/><path fill-rule="evenodd" clip-rule="evenodd" d="M45.261 80.4a3.955 3.955 0 003.947-3.947 3.955 3.955 0 00-3.947-3.947 3.955 3.955 0 00-3.946 3.947A3.955 3.955 0 0045.26 80.4z" fill="#fff"/><path fill-rule="evenodd" clip-rule="evenodd" d="M45.261 79.717a3.27 3.27 0 003.264-3.264 3.27 3.27 0 00-3.264-3.264 3.27 3.27 0 00-3.263 3.264 3.27 3.27 0 003.264 3.264z" fill="#989898"/><path fill-rule="evenodd" clip-rule="evenodd" d="M45.261 78.655c1.213 0 2.203-.99 2.203-2.202 0-1.213-.99-2.203-2.203-2.203-1.212 0-2.202.99-2.202 2.203 0 1.212.99 2.202 2.202 2.202z" fill="#000"/><path fill-rule="evenodd" clip-rule="evenodd" d="M140.958 39.181l-9.757 19.732-9.678-19.932v18.11h-3.19V31.948h3.216l9.67 19.91 9.757-19.91h3.181V57.09h-3.194V39.177l-.005.005zm11.648 14.603c.218.126.445.24.676.335.549.223 1.146.305 1.734.305.893 0 1.712-.24 2.488-.68a5.963 5.963 0 002.022-1.921l2.004-3.037v5.621l-.283.31c-.806.893-1.756 1.63-2.867 2.095-1.103.467-2.292.654-3.486.654-1.482 0-2.867-.4-4.131-1.168a8.72 8.72 0 01-3.037-3.072 8.003 8.003 0 01-1.146-4.135c0-1.477.357-2.95 1.132-4.249a7.955 7.955 0 013.099-2.954c1.333-.724 2.789-1.05 4.301-1.05 2.497 0 4.58 1.02 6.235 2.875l.689.776-9.426 9.303-.004-.008zm13.648-12.65h4.227v3.041h-4.227v6.837c0 .894.205 1.748.867 2.375.641.61 1.417.85 2.297.85h1.089v3.042h-1.089c-1.695 0-3.242-.51-4.493-1.67-1.307-1.215-1.835-2.836-1.835-4.597V35.591h3.164v5.543zm18.28 1.438v-1.438h3.164v15.962h-3.164v-1.464a8.303 8.303 0 01-.906.623 8.199 8.199 0 01-4.244 1.176 8.127 8.127 0 01-4.192-1.128 8.358 8.358 0 01-3.055-3.038 8.071 8.071 0 01-1.129-4.148 8.07 8.07 0 011.129-4.149 8.363 8.363 0 013.055-3.037 8.228 8.228 0 014.192-1.128 8.47 8.47 0 014.322 1.21c.292.175.567.363.833.563l-.005-.004zm29.453 5.77h-10.824l-4.257 8.754h-3.499L208.601 30l13.23 27.096h-3.495l-4.349-8.755zm11.979-3.744l3.948-3.46h4.576l-7.639 6.672 8.872 9.286h-4.336l-5.421-5.704v5.704h-3.163V32.013h3.163v12.585zm11.535-4.432c.571 0 1.089-.213 1.503-.605.436-.414.663-.955.663-1.556a2.05 2.05 0 00-.663-1.525 2.151 2.151 0 00-1.503-.606c-.571 0-1.089.214-1.503.606a2.067 2.067 0 00-.658 1.525c0 .588.226 1.142.658 1.556.414.392.932.605 1.503.605zm-1.582.972h3.164V57.1h-3.164V41.138zm9.299 0h4.227v3.042h-4.227v6.837c0 .893.205 1.747.868 2.375.64.61 1.416.85 2.296.85h1.089v3.041h-1.089c-1.695 0-3.242-.51-4.493-1.669-1.307-1.216-1.834-2.837-1.834-4.597V35.595h3.163v5.543zm18.281 1.438v-1.438h3.163V57.1h-3.163v-1.464a8.43 8.43 0 01-.907.623 8.2 8.2 0 01-4.244 1.176 8.13 8.13 0 01-4.192-1.128 8.374 8.374 0 01-3.055-3.037 8.08 8.08 0 01-1.128-4.149 8.08 8.08 0 011.128-4.148 8.371 8.371 0 013.055-3.038 8.23 8.23 0 014.192-1.128c1.495 0 2.994.418 4.323 1.211.292.175.566.362.832.562l-.004-.004zm-113.059 9.12l7.199-7.15a4.187 4.187 0 00-.71-.366c-.58-.231-1.238-.305-1.857-.305-.98 0-1.93.191-2.788.67a4.897 4.897 0 00-1.87 1.818c-.475.81-.675 1.695-.675 2.632 0 .998.226 1.895.706 2.697l-.005.005zm29 2.702c.92 0 1.769-.235 2.558-.714a5.406 5.406 0 001.904-1.94c.471-.81.698-1.682.698-2.623a5.04 5.04 0 00-.711-2.601 5.464 5.464 0 00-1.917-1.957 4.815 4.815 0 00-2.558-.715 4.85 4.85 0 00-2.571.728 5.682 5.682 0 00-1.956 1.983 4.995 4.995 0 00-.719 2.597c0 .937.239 1.782.719 2.575a5.495 5.495 0 001.965 1.948c.802.475 1.66.72 2.597.72h-.009zm33.101-9.125l-3.992-8.083-3.904 8.083h7.896zm45.868 9.125a4.83 4.83 0 002.558-.714 5.414 5.414 0 001.904-1.94 5.11 5.11 0 00.693-2.623c0-.941-.24-1.795-.71-2.601a5.467 5.467 0 00-1.918-1.957 4.813 4.813 0 00-2.558-.715c-.923 0-1.778.245-2.571.728a5.682 5.682 0 00-1.956 1.983 4.995 4.995 0 00-.719 2.597c0 .937.239 1.782.719 2.575a5.503 5.503 0 001.965 1.948c.802.475 1.66.72 2.597.72h-.004z" fill="#FDFDFD"/><path fill-rule="evenodd" clip-rule="evenodd" d="M120.621 44.52l-.022 14.484H117V44.52h3.621z" fill="#9968FD"/><path fill-rule="evenodd" clip-rule="evenodd" d="M144.684 31.547l-.017 12.524h-2.985V31.547h3.002zm29.675 18.407a2.946 2.946 0 002.942-2.942 2.946 2.946 0 00-2.942-2.941 2.946 2.946 0 00-2.941 2.941 2.946 2.946 0 002.941 2.942z" fill="#989898"/><path fill-rule="evenodd" clip-rule="evenodd" d="M202.876 37.987h3.499l-9.644 19.91h-3.503l9.648-19.91zm34.625.027a2.151 2.151 0 01-1.503-.606 2.093 2.093 0 01-.658-1.556c0-.601.235-1.12.658-1.525a2.152 2.152 0 011.503-.606c.571 0 1.089.214 1.503.606.427.405.663.937.663 1.525 0 .589-.227 1.142-.663 1.556a2.151 2.151 0 01-1.503.606z" fill="#9968FD"/><path fill-rule="evenodd" clip-rule="evenodd" d="M142.697 61.763h102.364l-2.762 2.13H139.934l2.763-2.13zM268 41.134l-.017 11.02h-2.99v-11.02H268z" fill="#989898"/><defs><linearGradient id="paint0_linear_41_514" x1="56.657" y1="51.224" x2="61.025" y2="39.312" gradientUnits="userSpaceOnUse"><stop stop-color="#7D5CA3"/><stop offset="1" stop-color="#C33C8E"/></linearGradient><linearGradient id="paint1_linear_41_514" x1="29.509" y1="51.224" x2="33.874" y2="39.312" gradientUnits="userSpaceOnUse"><stop stop-color="#7D5CA3"/><stop offset="1" stop-color="#C33C8E"/></linearGradient><linearGradient id="paint2_linear_41_514" x1="56.774" y1="23.233" x2="65.813" y2="23.233" gradientUnits="userSpaceOnUse"><stop stop-color="#2A2C2A"/><stop offset="1" stop-color="#BFBEBE"/></linearGradient><linearGradient id="paint3_linear_41_514" x1="33.879" y1="23.233" x2="24.839" y2="23.233" gradientUnits="userSpaceOnUse"><stop stop-color="#2A2C2A"/><stop offset="1" stop-color="#BFBEBE"/></linearGradient></defs></svg>