<svg width="500" height="345" fill="none" xmlns="http://www.w3.org/2000/svg"><rect y="339" width="500" height="6" rx="3" fill="url(#paint0_linear_55_742)"/><path fill-rule="evenodd" clip-rule="evenodd" d="M262.624 234.592a5.827 5.827 0 017.484-3.26c11.24 4.287 23.988 6.303 35.778 3.136 4.992-1.342 9.65-3.587 13.714-6.792a36.788 36.788 0 005.047-4.818c3.149-3.625 5.697-8.091 6.786-12.792.81-3.477.872-7.491-.903-10.695-.223-.409-.891-1.38-1.41-1.652-.013.006-.019.019-.031.025-.235.21-.47.396-.489.717-.049.817.408 2.332.631 3.118 1.305 4.602 1.8 8.944-1.992 12.643-2.517 2.45-6.025 3.761-9.458 4.213-3.792.495-7.763 0-11.332-1.379a21.833 21.833 0 01-7.546-4.844c-.39-.383-.774-.779-1.145-1.181-10.874-11.58-14.487-27.533-9.804-42.7 6.291-20.388 24.52-32.902 44.858-36.65 17.357-3.204 33.595 1.979 47.098 13.151 13.194 10.917 22.405 26.449 26.939 42.872 4.682 16.962 4.404 35.525-2.58 51.83-8.146 19.015-23.988 31.875-43.151 39.007a98.068 98.068 0 01-5.895 1.986c-23.128 6.977-46.924 4.639-68.834-5.116a121.21 121.21 0 01-21.941-12.674c-2.857-2.079-5.932-4.454-8.493-6.916a5.839 5.839 0 01-.321-8.066c.445-.687.884-1.559 1.268-2.27.792-1.46 1.571-2.932 2.35-4.404 1.114-2.122 2.339-4.324 3.365-6.483l.007-.006z" fill="#9968FD"/><path fill-rule="evenodd" clip-rule="evenodd" d="M265.333 235.755a2.89 2.89 0 013.73-1.67c13.596 5.183 26.586 6.185 37.59 3.222 5.468-1.472 10.454-3.915 14.772-7.317a39.648 39.648 0 005.449-5.202c7.59-8.747 10.151-19.795 6.235-26.852-.977-1.763-2.332-2.951-3.631-3.18-.81-.142-1.577.112-2.325.767-1.968 1.72-1.757 3.328-.755 6.854.798 2.827 1.899 6.699-1.213 9.73-3.723 3.631-11.14 4.707-17.672 2.196-2.363-.909-4.615-2.289-6.526-4.188a58.56 58.56 0 01-1.076-1.101c-10.12-10.775-13.541-25.541-9.136-39.811 5.486-17.771 21.408-30.718 42.582-34.621 15.81-2.914 31.262 1.416 44.685 12.526 12.161 10.07 21.39 24.767 25.974 41.388 4.781 17.32 3.909 35.036-2.45 49.888-7.324 17.103-21.668 30.037-41.475 37.405a93.127 93.127 0 01-5.721 1.923c-27.193 8.209-51.107 1.992-66.787-4.985-18.1-8.054-29.122-18.576-29.586-19.021a2.885 2.885 0 01-.075-4.083c.539-.557 7.287-13.54 7.405-13.862l.006-.006z" fill="#FFAC40"/><path fill-rule="evenodd" clip-rule="evenodd" d="M359.089 273.067c-55.417 20.629-99.082-21.446-99.082-21.446l8.023-14.839c15.353 5.851 28.497 6.229 39.099 3.383a45.672 45.672 0 008.19-3.037c9.062-4.386 15.57-11.295 19.17-18.557 3.915-7.862 4.429-16.138 1.156-22.046-2.486-4.478-6.915-6.216-10.379-3.185-6.427 5.616 2.091 12.618-2.085 16.695-3.699 3.606-13.837 4.286-20.159-1.98a35.524 35.524 0 01-2.053-2.196 39.232 39.232 0 01-1.782-2.214c-17.419-23.246-3.346-59.228 34.702-66.243 24.891-4.589 46.807 10.522 59.308 32.457 19.404 34.04 16.089 84.521-34.102 103.195l-.006.013z" fill="#FBA329"/><path fill-rule="evenodd" clip-rule="evenodd" d="M334.483 218.577c3.915-7.862 4.429-16.138 1.156-22.046-2.486-4.478-6.915-6.216-10.379-3.185-6.427 5.616 2.091 12.619-2.085 16.695-3.699 3.606-13.837 4.287-20.159-1.979a39.23 39.23 0 01-3.835-4.411c5.165 3.037 14.394 7.46 15.173.81.965-8.301-.965-28.454 14.636-28.163 13.435.26 19.076 26.951 5.499 42.273l-.006.006z" fill="#FF9243"/><path fill-rule="evenodd" clip-rule="evenodd" d="M359.089 273.067c-55.417 20.629-99.082-21.446-99.082-21.446l8.023-14.839c15.353 5.851 28.497 6.229 39.099 3.383a45.672 45.672 0 008.19-3.037c10.974 4.93 31.015 9.724 54.187-4.478 28.287-17.333 28.151-44.29 23.685-62.785 19.404 34.04 16.089 84.521-34.102 103.196v.006z" fill="#FF9243"/><path fill-rule="evenodd" clip-rule="evenodd" d="M400.669 187.321c9.65 31.974.557 70.065-41.58 85.746-55.417 20.629-99.082-21.446-99.082-21.446l8.023-14.839c15.353 5.851 28.497 6.229 39.099 3.383 12.1 6.755 31.108 18.959 58.09 3.495 12.396-7.107 18.91-16.46 21.18-26.413 11.017-15.557 10.076-33.749 6.792-47.364.062.106.117.211.179.31.254.439.501.891.742 1.342.341.637.681 1.281 1.009 1.93.173.334.34.668.495 1.002.284.563.55 1.138.816 1.707.322.681.619 1.374.916 2.06a.923.923 0 01.08.18c.266.606.52 1.224.761 1.837l.117.303c.297.736.582 1.484.854 2.233.272.754.532 1.503.786 2.258.253.748.494 1.515.723 2.27v.006z" fill="#F8D2B6"/><path fill-rule="evenodd" clip-rule="evenodd" d="M359.089 273.067c-55.417 20.629-99.082-21.446-99.082-21.446l8.023-14.839c15.353 5.851 28.497 6.229 39.099 3.383 12.1 6.755 31.114 18.959 58.084 3.489 44.722-25.646 12.91-80.525-18.538-87.045-25.702-5.326-59.692 20.221-45.713 49.244-20.078-23.109-6.352-61.201 32.921-68.444 63.533-11.722 107.723 104.952 25.206 135.652v.006z" fill="#fff"/><path fill-rule="evenodd" clip-rule="evenodd" d="M354.37 277.706c-27.193 8.208-51.107 1.992-66.787-4.986-18.1-8.053-29.122-18.575-29.586-19.021a2.884 2.884 0 01-.075-4.082 2.884 2.884 0 014.083-.074c.105.105 10.887 10.355 28.108 17.988 22.905 10.144 45.774 11.097 67.956 2.845 41.864-15.582 47.914-53.017 40.367-80.346-7.843-28.404-32.957-55.504-64.04-49.764-19.027 3.508-33.273 14.97-38.11 30.65-3.909 12.669-.637 25.795 8.759 35.11 5.276 5.233 13.602 4.405 16.101 1.961.557-.538.408-1.478-.315-4.02-.953-3.378-2.4-8.487 2.511-12.78 2.066-1.806 4.596-2.549 7.126-2.109 3.043.532 5.846 2.746 7.689 6.068 5.066 9.142 2.221 22.893-6.922 33.44-14.45 16.658-38.456 20.734-64.238 10.911a2.89 2.89 0 012.06-5.4c20.35 7.763 39.347 6.149 52.368-4.095a39.648 39.648 0 005.449-5.202c7.59-8.747 10.151-19.794 6.235-26.852-.977-1.763-2.332-2.951-3.631-3.18-.81-.142-1.577.112-2.325.767-1.968 1.72-1.757 3.328-.755 6.854.798 2.827 1.899 6.699-1.213 9.73-3.723 3.631-11.14 4.708-17.672 2.196-2.363-.909-4.615-2.288-6.526-4.187-10.949-10.856-14.765-26.154-10.206-40.919 5.486-17.771 21.408-30.718 42.582-34.621 15.811-2.913 31.262 1.417 44.685 12.526 12.161 10.07 21.39 24.767 25.974 41.388 4.782 17.32 3.909 35.036-2.45 49.888-7.323 17.103-21.668 30.038-41.475 37.405a93.127 93.127 0 01-5.721 1.923l-.006-.012z" fill="#000"/><path fill-rule="evenodd" clip-rule="evenodd" d="M340.996 225.617c-4.002 1.206-6.272 5.437-5.066 9.439 1.206 4.002 5.437 6.272 9.439 5.066a7.578 7.578 0 005.066-9.439 7.578 7.578 0 00-9.439-5.066z" fill="#000"/><path fill-rule="evenodd" clip-rule="evenodd" d="M341.652 227.788a5.312 5.312 0 00-3.551 6.612 5.313 5.313 0 006.613 3.551 5.312 5.312 0 003.55-6.613 5.31 5.31 0 00-6.612-3.55z" fill="#fff"/><path fill-rule="evenodd" clip-rule="evenodd" d="M351.536 206.515a5.258 5.258 0 00-3.513 6.551 5.257 5.257 0 103.513-6.551z" fill="#000"/><path fill-rule="evenodd" clip-rule="evenodd" d="M351.988 208.024a3.682 3.682 0 00-2.462 4.59 3.682 3.682 0 102.462-4.59z" fill="#fff"/><path fill-rule="evenodd" clip-rule="evenodd" d="M345.821 185.082a4.331 4.331 0 102.505 8.295 4.331 4.331 0 10-2.505-8.295z" fill="#000"/><path fill-rule="evenodd" clip-rule="evenodd" d="M346.198 186.325a3.04 3.04 0 00-2.029 3.786 3.041 3.041 0 003.786 2.029 3.037 3.037 0 002.029-3.78 3.037 3.037 0 00-3.78-2.029l-.006-.006z" fill="#fff"/><path fill-rule="evenodd" clip-rule="evenodd" d="M307.284 319.713c-8.845 4.25-17.035-1.15-21.557-5.295-2.32-2.128-3.687-3.922-3.687-3.922-.754.409-1.497.798-2.245 1.157-33.898 16.615-57.02-13.231-57.02-13.231l55.709-53.747 8.888 22.744 1.2 3.068s1.163-.618 3.087-.896a13.337 13.337 0 015.307.29c9.799 2.518 16.089 11.506 19.782 20.871 4.559 11.555.891 23.988-9.464 28.961z" fill="#FFAC40"/><path fill-rule="evenodd" clip-rule="evenodd" d="M285.727 314.418c-2.32-2.128-3.687-3.922-3.687-3.922-.754.409-1.497.798-2.245 1.157-33.898 16.615-57.02-13.231-57.02-13.231l55.709-53.747 8.888 22.744c-2.072 7.009-6.482 20.364-11.79 27.935-7.435 10.608 9.316 10.46 17.636-3.897 1.552 6.229-3.464 16.145-7.485 22.955l-.006.006z" fill="#FF9243"/><path fill-rule="evenodd" clip-rule="evenodd" d="M318.462 303.859c-.91 6.829-4.763 12.774-11.178 15.854-13.38 6.421-25.244-9.217-25.244-9.217-.754.409-1.497.798-2.245 1.157-.019-.062-.031-.093-.031-.093s8.536-4.868 12.433-15.216c1.126-2.982 1.862-6.421 1.905-10.33.062-6.502-.983-11.976-2.449-16.417a13.356 13.356 0 015.307.29c9.798 2.518 16.089 11.506 19.782 20.871 1.738 4.392 2.276 8.92 1.713 13.107l.007-.006z" fill="#FFF2E8"/><path fill-rule="evenodd" clip-rule="evenodd" d="M318.462 303.859c-.91 6.829-4.763 12.774-11.178 15.854-13.38 6.421-25.244-9.217-25.244-9.217-.754.409-1.497.798-2.245 1.157-.019-.062-.031-.093-.031-.093s8.536-4.868 12.433-15.216c.26 5.857 1.992 13.441 8.926 15.389 8.382 2.351 14.066-2.307 17.332-7.874h.007z" fill="#F8D2B6"/><path fill-rule="evenodd" clip-rule="evenodd" d="M300.56 323.511c-9 0-16.28-7.076-19.07-10.225-18.285 9.254-33.564 5.332-43.275.297-10.739-5.567-16.937-13.472-17.196-13.806a2.217 2.217 0 013.501-2.716c.062.074 5.957 7.565 15.878 12.662 13.102 6.736 26.76 6.341 40.585-1.181a2.215 2.215 0 012.826.606c.106.142 10.949 14.122 22.516 8.561 9.099-4.367 12.613-15.365 8.363-26.147-2.975-7.534-8.554-17.041-18.272-19.534-3.916-1.009-6.718.371-6.835.427a2.229 2.229 0 01-1.8.092 2.224 2.224 0 01-1.281-1.255l-10.089-25.813a2.216 2.216 0 014.126-1.615l9.316 23.828a15.545 15.545 0 017.664.037c11.524 2.963 17.938 13.707 21.291 22.206 5.134 13.009.687 26.37-10.565 31.77-2.654 1.274-5.233 1.8-7.683 1.8v.006z" fill="#000"/><path fill-rule="evenodd" clip-rule="evenodd" d="M188.408 142.821l-8.054 43.782c-19.751 13.924-77.451 15.984-95.433-27.445l18.489-26.63 8.654-12.464s4.627 9.272 13.806 17.771c12.489 11.549 33.397 21.65 62.538 4.986z" fill="url(#paint1_linear_55_742)"/><path fill-rule="evenodd" clip-rule="evenodd" d="M188.408 142.821l-8.054 43.782c-19.751 13.924-77.451 15.984-95.433-27.445l18.489-26.63c6 1.145 17.809 3.835 20.135 7.714 5.579 9.297-9.817 16.361-13.256 25.497-3.687 9.786 13.076 26.209 34.906 19.726 9.884-2.938 12.117-12.755 10.224-20.79-2.455-10.392-21.649-14.276-29.542-26.846 12.489 11.549 33.396 21.65 62.537 4.986l-.006.006z" fill="#989898"/><path fill-rule="evenodd" clip-rule="evenodd" d="M145.461 197.713c-7.411 0-15.192-.953-22.826-3.167-13.194-3.823-30.804-12.922-39.761-34.541a2.196 2.196 0 01.229-2.109l27.136-39.094a2.197 2.197 0 011.98-.946 2.22 2.22 0 011.824 1.218c.112.217 11.277 22.089 32.574 28.529 12.576 3.804 26.265 1.546 40.69-6.699a2.214 2.214 0 013.024.822 2.22 2.22 0 01-.822 3.025c-15.539 8.883-30.415 11.27-44.215 7.083-18.254-5.536-29.333-20.896-33.428-27.607l-24.427 35.19c8.419 19.201 24.39 27.384 36.427 30.873 21.823 6.328 44.735 1.893 55.214-5.493a2.213 2.213 0 013.086.538 2.213 2.213 0 01-.538 3.087c-7.59 5.344-21.112 9.291-36.174 9.291h.007z" fill="#000"/><path fill-rule="evenodd" clip-rule="evenodd" d="M283.68 250.149c-5.24 27.712-30.143 41.809-56.123 43.417-20.314 1.256-41.283-5.122-54.026-18.606-19.547-20.698-26.883-76.053 3.681-132.423l67.547-16.182c-.513 9.235.229 17.332 1.825 24.588 3.458 15.761 10.936 27.6 18.378 38.673 9.594 14.276 19.126 27.279 19.88 45.774.192 4.553-.16 9.439-1.162 14.765v-.006z" fill="#FFAC40"/><path fill-rule="evenodd" clip-rule="evenodd" d="M253.283 170.038c-9.996 2.734-21.508 4.299-33.768 4.299-20.579 0-39.068-4.398-51.792-11.394a179.175 179.175 0 019.489-20.406l67.547-16.182c-.513 9.235.229 17.332 1.825 24.588 1.546 7.058 3.897 13.33 6.699 19.101v-.006z" fill="#FFAC40"/><path fill-rule="evenodd" clip-rule="evenodd" d="M253.283 170.038c-9.996 2.734-21.508 4.299-33.768 4.299-20.579 0-39.068-4.398-51.792-11.394a179.175 179.175 0 019.489-20.406l67.547-16.182c-.513 9.235.229 17.332 1.825 24.588 1.546 7.058 3.897 13.33 6.699 19.101v-.006z" fill="#FF9243"/><path fill-rule="evenodd" clip-rule="evenodd" d="M246.584 150.943c-5.14 3.031-15.848 10.565-21.211 23.277-1.93.08-3.878.117-5.851.117-20.58 0-39.075-4.398-51.799-11.4a180.859 180.859 0 019.495-20.4l67.547-16.182c-.513 9.235.229 17.332 1.825 24.588h-.006z" fill="#F8D2B6"/><path fill-rule="evenodd" clip-rule="evenodd" d="M263.663 166.556c-7.268 2.944-15.774 5.177-25.077 6.482l-6.303-19.553s14.938 4.349 31.38 13.077v-.006zm-14.537 72.026s10.875-22.176-2.4-40.319c1.776-6.167 9.359-8.356 18.242-8.647 9.594 14.276 19.126 27.279 19.881 45.774-14.926 1.546-35.723 3.192-35.723 3.192z" fill="#FF9243"/><path fill-rule="evenodd" clip-rule="evenodd" d="M247.908 265.502c-1.782 6.81-5.066 13.033-9.446 18.322a48.976 48.976 0 01-10.905 9.742c-20.314 1.256-41.283-5.122-54.026-18.606-9.464-10.015-16.058-28.145-16.881-50.593-.89-23.926 4.788-52.739 20.562-81.83l67.547-16.182c-.513 9.235.229 17.332 1.825 24.588-6.235 3.674-20.642 13.967-23.809 32.079-6.099 34.881 33.465 50.648 25.139 82.48h-.006z" fill="#FFF2E8"/><path fill-rule="evenodd" clip-rule="evenodd" d="M178.189 143.069c-13.936 30.316-23.685 64.127-17.444 97.573 2.332 12.043 6.483 24.229 15.007 33.167 14.617 14.71 37.015 19.411 57.131 16.881 24.081-2.994 45.533-18.112 48.972-43.269 2.282-13.565-.452-26.648-7.231-38.562-6.211-11.165-14.227-21.025-20.481-32.357-4.225-7.565-7.602-15.73-9.551-24.266-1.961-8.53-2.523-17.333-2.053-25.999a2.215 2.215 0 012.338-2.09 2.214 2.214 0 012.091 2.332c-1.095 16.707 2.703 33.334 11.047 47.871 10.262 18.482 26.747 35.178 28.782 57.279 3.297 35.234-19.219 59.086-53.302 63.725-21.569 2.79-45.458-2.388-61.17-18.211-14.988-16.039-18.47-40.485-18.013-61.572 1.033-25.763 8.011-51.731 21.922-73.554.78-1.095 2.468-.216 1.949 1.058l.006-.006z" fill="#000"/><path fill-rule="evenodd" clip-rule="evenodd" d="M125.574 140.137c-1.615 7.163-5.685 14.084-9.7 17.128-7.194 5.449-21.216 3.575-21.216 3.575l-2.74 10.677c-5.63-7.912-10.578-15.737-7.925-27.855.644-2.956 1.745-6.179 3.409-9.717 6.241-13.312 20.759-21.353 33.452-12.062 5.505 4.02 6.291 11.258 4.72 18.26v-.006z" fill="#FFF2E8"/><path fill-rule="evenodd" clip-rule="evenodd" d="M90.111 172.797c-5.753-7.8-10.243-16.244-8.858-26.32.823-6.266 3.112-12.316 6.427-17.666 5.165-8.159 14.666-14.592 24.693-12.99 6.681 1.101 13.436 5.202 15.39 11.963 3.099 10.033-2.332 24.297-10.256 30.804-3.934 3.025-9.099 3.879-13.787 4.046-3.112.062-6.137-.124-9.21-.674a1.136 1.136 0 01-.91-1.318 1.141 1.141 0 011.212-.928c4.287.186 8.716-.025 12.891-1.008 4.027-.86 7.578-2.821 9.897-6.26 5.345-7.287 10.454-22.918 1.318-29.048-6.965-5.047-15.662-3.829-22.015 1.646-4.3 3.575-7.244 8.598-9.136 13.824-3.198 8.067-3.124 16.609 1.237 24.063 1.355 2.486 3 4.886 4.713 7.305 1.627 2.419-1.837 4.912-3.612 2.567l.006-.006z" fill="#000"/><path fill-rule="evenodd" clip-rule="evenodd" d="M213.571 307.657c-7.837 11.103-20.889 19.689-25.355 20.147-2.196.229-13.949-44.531-13.949-44.531-.897-8.555.118-16.423 2.592-23.338 9.773-27.341 42.285-39.762 68.754-20.995l4.089-2.777 30.582-20.74c18.495 39.73-.965 103.529-66.719 92.222l.006.012z" fill="url(#paint2_linear_55_742)"/><path fill-rule="evenodd" clip-rule="evenodd" d="M213.571 307.657c-7.837 11.103-20.889 19.689-25.355 20.147-2.196.229-13.949-44.531-13.949-44.531-.897-8.555.118-16.423 2.592-23.338 6.736 3.29 16.943 11.307 23.623 30.588 7.998 23.072 27.557-12.242 27.557-12.242s12.477 23.487 34.615 7.998c24.793-17.338-9.365-27.711-11.412-34.25-1.72-5.505-2.004-10.942-1.54-15.866l30.582-20.74c18.495 39.73-.965 103.529-66.719 92.222l.006.012z" fill="#B2B2B2"/><path fill-rule="evenodd" clip-rule="evenodd" d="M282.3 214.495c15.514 33.05 4.701 81.051-32.66 93.36-11.728 3.996-24.353 4.046-36.434 1.986l2.184-.903c-2.011 2.839-4.275 5.443-6.699 7.868-4.998 4.868-10.275 9.161-16.714 12.161-1.021.445-2.258.897-3.507 1.045a2.503 2.503 0 01-1.955-.662c-.668-.6-1.083-1.509-1.41-2.189-3.248-7.856-5.32-15.99-7.708-24.05-1.818-6.526-3.674-13.033-5.332-19.603-2.233-18.773 5.444-38.444 21.904-48.533 16.194-10.292 37.312-8.61 52.293 3.069.489.371.582 1.064.211 1.552a1.114 1.114 0 01-1.491.254c-7.311-4.825-15.786-7.813-24.384-8.035-27.86-.656-47.339 24.34-44.122 51.229 3.037 10.961 6.897 25.85 10.954 37.82.65 1.812 1.256 3.692 2.128 5.264.019.031.044.055.013.024 0 0-.05-.055-.099-.099-.149-.136-.266-.197-.47-.296a1.944 1.944 0 00-.681-.161h-.223c-.099.006-.117.012-.092.006h.024c3.712-.897 7.015-3.34 10.238-5.623 5.128-3.86 9.823-8.431 13.503-13.602a2.235 2.235 0 012.184-.91c16.849 3.019 35.567 1.089 49.25-9.915 13.707-10.776 20.605-28.219 21.421-45.409.544-11.561-1.509-23.32-6.353-33.786-1.163-2.636 2.691-4.522 4.027-1.862z" fill="#000"/><path fill-rule="evenodd" clip-rule="evenodd" d="M198.274 316.268c.328 9.148-12.291 15.439-22.838 11.536-16.305-6.037-33.235-39.737-25.076-59.667 5.363-13.114 21.755-15.328 30.693-2.215 5.48 8.036 9.804 18.013 12.396 29.989l4.825 20.357z" fill="#FFF2E8"/><path fill-rule="evenodd" clip-rule="evenodd" d="M303.443 219.301c-1.305 9.749-6.378 19.608-15.817 27.576-2.833 2.387-6.062 4.614-9.705 6.612-14.772 8.116-27.805 2.314-28.826-11.796a21.245 21.245 0 01.223-4.781c1.206-7.566 6.217-14.277 9.947-18.953 1.119-1.405 2.121-2.623 2.882-3.631-.198-.242-.433-.508-.686-.805-3.421-3.897-11.871-12.396-14.159-14.684a111.71 111.71 0 00-.576-.582l-14.431-44.778s43.659 12.718 63.836 38.271c6.007 7.614 8.66 17.518 7.324 27.551h-.012z" fill="#FFAC40"/><path fill-rule="evenodd" clip-rule="evenodd" d="M263.663 166.556c-7.268 2.944-15.774 5.177-25.077 6.482l-6.303-19.553s14.938 4.349 31.38 13.077v-.006zm39.78 52.745c-1.305 9.749-6.378 19.609-15.817 27.576-2.833 2.387-6.062 4.614-9.705 6.612-14.772 8.116-27.805 2.314-28.826-11.796a21.248 21.248 0 01.223-4.781c1.843 4.249 5.852 10.441 14.06 12.872 11.728 3.464 31.541-10.454 40.065-30.489v.006z" fill="#FF9243"/><path fill-rule="evenodd" clip-rule="evenodd" d="M287.626 246.883c-2.833 2.388-6.062 4.614-9.705 6.612-14.772 8.116-27.805 2.314-28.826-11.796a20.878 20.878 0 01.217-4.732v-.043c1.856 4.25 5.858 10.441 14.06 12.866 6.668 1.973 15.953-1.682 24.285-8.876.192 2.171.124 4.2-.037 5.969h.006z" fill="#F8D2B6"/><path fill-rule="evenodd" clip-rule="evenodd" d="M269.657 204.486s-4.046 4.485-8.203 9.044c-3.42-3.897-11.87-12.396-14.159-14.685l22.362 5.641z" fill="#FF9243"/><path fill-rule="evenodd" clip-rule="evenodd" d="M287.626 246.883c-2.833 2.388-6.062 4.614-9.705 6.612-14.772 8.116-27.805 2.314-28.826-11.796-.68-9.501 5.666-18.087 10.17-23.734 5.542.309 19.237 2.047 24.903 11.617 3.576 6.037 3.903 12.6 3.458 17.307v-.006z" fill="#FFF2E8"/><path fill-rule="evenodd" clip-rule="evenodd" d="M287.626 246.883c-2.833 2.388-6.062 4.614-9.705 6.612-14.772 8.116-27.805 2.314-28.826-11.796-.68-9.501 5.666-18.087 10.17-23.734 5.542.309 19.237 2.047 24.903 11.617 3.576 6.037 3.903 12.6 3.458 17.307v-.006z" fill="#FFF2E8"/><path fill-rule="evenodd" clip-rule="evenodd" d="M287.626 246.883c-2.833 2.388-6.062 4.614-9.705 6.612-14.772 8.116-27.805 2.314-28.826-11.796a20.878 20.878 0 01.217-4.732v-.043c1.856 4.25 5.858 10.441 14.06 12.866 6.668 1.973 15.953-1.682 24.285-8.876.192 2.171.124 4.2-.037 5.969h.006z" fill="#F8D2B6"/><path fill-rule="evenodd" clip-rule="evenodd" d="M232.907 151.357c23.259 7.355 56.296 22.9 68.692 44.791 9.421 17.691 2.92 39.465-11.963 51.916-5.474 4.584-11.554 8.685-18.544 10.541-14.561 3.823-25.64-6.093-24.112-20.933 1.157-9.804 7.571-17.357 13.392-24.668l.062 2.746c-2.209-2.14-5.221-5.808-7.293-8.196a500.38 500.38 0 01-7.225-8.493c-.402-.482-.34-1.2.142-1.602a1.133 1.133 0 011.454 0 240.002 240.002 0 018.431 7.367c2.474 2.357 5.938 5.271 7.911 8.091.693.786.755 1.974.062 2.747-5.319 6.73-11.505 13.831-12.532 22.503-1.188 11.728 7.058 19.194 18.613 16.133 9.718-2.722 19.843-10.924 25.268-19.362 8.388-12.507 8.629-30.285-1.107-42.081-12.848-15.569-31.405-25.213-49.838-32.765-4.188-1.658-8.481-3.217-12.712-4.504-2.74-.903-1.583-5.01 1.293-4.243l.006.012zm-69.292 159.282c2.71 4.992 10.764 13.076 15.99 9.482 4.763-3.272 1.887-13.014-.742-17.845-2.635-4.838-9.346-12.724-14.629-10.473-5.802 2.468-3.346 13.794-.612 18.836h-.007zm5.153-26.023c.742 3.111 2.833 5.22 4.547 4.738 1.707-.483 2.418-3.26 1.713-6.242-.711-2.981-2.592-5.134-4.336-4.781-1.744.346-2.66 3.173-1.924 6.285zm-11.715-5.747c.859 4.652 3.723 7.924 6.117 7.349 2.394-.569 3.47-4.559 2.66-8.957-.81-4.398-3.241-7.739-5.685-7.423-2.443.315-3.952 4.379-3.092 9.031zm-5.098 9.241c.749 3.18 2.735 5.4 4.312 4.974 1.577-.421 2.171-3.229 1.454-6.304-.724-3.068-2.512-5.325-4.114-5.016-1.602.309-2.4 3.161-1.652 6.34v.006z" fill="#000"/><path fill-rule="evenodd" clip-rule="evenodd" d="M268.036 206.967s-2.085 2.789-5.889 7.373l5.889-7.373z" fill="#FFAC40"/><path fill-rule="evenodd" clip-rule="evenodd" d="M268.945 207.641c-1.639 2.759-3.34 5.431-5.091 8.115-1.688 2.419-5.276.075-3.736-2.443 1.151-1.305 2.499-2.425 3.705-3.674 1.12-1.107 2.24-2.233 3.316-3.359.934-.965 2.48.223 1.8 1.367l.006-.006z" fill="#000"/><path fill-rule="evenodd" clip-rule="evenodd" d="M220.728 298.008s-2.27 2.833-7.151 9.649l7.151-9.649z" fill="#FFAC40"/><path fill-rule="evenodd" clip-rule="evenodd" d="M221.606 298.713c-2.121 3.297-4.237 6.853-6.229 10.231-1.565 2.486-5.251.334-3.841-2.252 1.324-1.688 2.808-3.26 4.212-4.893 1.207-1.342 2.852-3.21 4.089-4.503.959-.996 2.53.279 1.763 1.417h.006zm-22.225 17.511c1.132 6.266-4.237 11.79-9.81 13.689-10.17 3.681-19.38-.408-26.333-7.942-9.946-10.844-16.231-25.232-17.177-39.892-.316-7.559 1.07-15.761 6.563-21.532 9.229-9.495 23.437-6.594 30.353 4.083 6.192 9.253 10.28 20.029 11.555 31.039.142 1.324-1.739 1.732-2.165.483-1.114-3.359-2.233-6.675-3.489-9.928-2.518-6.446-5.468-12.743-9.371-18.446-1.732-2.635-4.052-4.998-6.817-6.507-5.382-3.081-12.545-2.128-16.831 2.424-4.522 4.658-5.666 11.778-5.332 18.174.897 13.472 7.014 26.889 16.132 36.842 4.472 4.732 10.107 8.487 16.794 7.942 6.012-.451 12.705-3.897 13.707-10.348.137-1.287 1.998-1.324 2.215-.081h.006zm94.944-24.594c-1.008 6.872-3.823 13.559-8.703 18.576-.272.303-.792.798-1.114 1.064l-1.163 1.02a2.223 2.223 0 11-2.765-3.476c.427-.309 1.293-.928 1.714-1.231.303-.26 1.15-.996 1.466-1.268l.909-.928c2.444-2.567 4.324-5.685 5.722-8.969.705-1.683 1.311-3.47 1.707-5.19.347-1.373 2.382-1.014 2.221.402h.006zM110.716 142.277c6.89-.309 12.742 3.396 11.542 10.961-.501 2.963-4.819 2.363-4.497-.625.575-2.035.755-4.033-.854-5.586-1.54-1.497-4.107-2.257-6.26-2.499-1.373-.16-1.299-2.189.075-2.257l-.006.006zm4.138-14.178c7.002-.594 13.287 2.945 13.293 10.584-.025 3-4.38 3.099-4.54.099.272-2.295-.044-4.509-1.893-6.043-1.769-1.522-4.485-2.246-6.829-2.388-1.392-.099-1.423-2.116-.037-2.258l.006.006zm146.007 112.549c-1.955 2.474-4.64 4.187-7.578 5.264-.977.365-1.985.624-3.012.847a2.278 2.278 0 01-2.716-1.738 2.279 2.279 0 011.738-2.716c.984-.123 1.986-.043 2.976-.228a14.79 14.79 0 004.794-1.541 11.787 11.787 0 002.177-1.447c1.027-.848 2.419.507 1.614 1.553l.007.006zm7.484 9.705c-1.014 1.924-2.455 3.439-4.225 4.67-1.756 1.225-3.798 2.011-5.894 2.45a2.275 2.275 0 01-2.759-1.67 2.275 2.275 0 011.67-2.759c.594-.13 1.206-.056 1.806-.124 2.023-.167 3.996-.854 5.654-2.06a10.004 10.004 0 001.886-1.75c.86-1.015 2.469.068 1.868 1.243h-.006z" fill="#000"/><path fill-rule="evenodd" clip-rule="evenodd" d="M166.374 135.083a42.81 42.81 0 01-7.664-9.891 37.512 37.512 0 01-4.231-11.982 41.58 41.58 0 01-.6-6.303 45.849 45.849 0 01.347-6.272c.488-3.934 1.497-7.967 3-12a58.99 58.99 0 012.307-5.357v-.21c-.829-1.986-.953-4.491-.365-7.454.489-2.487 1.967-4.503 4.2-5.772a146.538 146.538 0 011.905-9.94 50.758 50.758 0 016.594-5.289 50.21 50.21 0 00-6.594 5.283c1.052-4.62 2.32-9.118 3.786-13.448 3.804-11.165 8.969-21.26 15.359-30.006 3.538-4.832 7.336-9.13 11.283-12.774a63.378 63.378 0 011.596-1.435l.767-.656.228-.173c.229-.173.514-.383.885-.575l.414-.223.464-.18c.637-.247 1.33-.383 2.116-.426h.111c.545 0 1.033.043 1.485.13.191.037.389.086.575.142.612.167 1.219.452 1.868.854l.056.03.049.038a7.209 7.209 0 011.522 1.416c.421.514.761 1.114 1.039 1.831.111.285.179.55.235.761l.05.198.569 2.555c.173.841.396 1.676.631 2.56.111.421.222.836.328 1.256 1.286 4.745 3 9.65 5.239 14.957.352.86.717 1.677 1.101 2.543.167.37.334.742.495 1.113l.328.699c.445.959.903 1.936 1.379 2.883.322.674.649 1.31.897 1.787.278.557.575 1.126.915 1.77.266.5.526.983.78 1.447 2.177-.173 4.515-.186 7.231-.044 3.08.155 6.266.551 9.464 1.17a67.862 67.862 0 019.21 2.517c2.561.903 4.72 1.8 6.675 2.79a68.05 68.05 0 001.262-1.04 67.143 67.143 0 001.515-1.274c.427-.364.971-.828 1.497-1.305.81-.711 1.602-1.441 2.375-2.146l.588-.538c.291-.285.588-.563.878-.842a73.942 73.942 0 001.974-1.917c4.101-4.083 7.552-7.961 10.565-11.895.241-.322.501-.662.761-1.009a51.353 51.353 0 001.558-2.121l1.497-2.147.124-.16c.13-.174.297-.396.52-.625a6.709 6.709 0 011.651-1.293c.551-.322 1.188-.563 1.942-.736l.062-.012h.062c.755-.137 1.429-.161 2.054-.087.192.018.39.05.581.087a7.15 7.15 0 011.423.445l.056.018.049.025c.718.34 1.299.73 1.794 1.194l.365.347.303.364c.272.31.445.613.594.854l.148.254.452.89c.291.582.625 1.262.946 1.955 2.258 4.862 4.138 10.275 5.58 16.095 2.592 10.516 3.538 21.817 2.808 33.589a137.659 137.659 0 01-1.608 13.874 50.59 50.59 0 00-1.868-3.749 50.8 50.8 0 011.874 3.755 147.034 147.034 0 01-2.017 9.922c1.584 2.023 2.184 4.447 1.689 6.934-.581 2.963-1.651 5.227-3.173 6.755a1.843 1.843 0 00-.081.192c.13 2.004.161 3.965.099 5.839-.142 4.305-.742 8.419-1.781 12.235a46.21 46.21 0 01-2.06 5.932 40.71 40.71 0 01-2.95 5.617c-2.308 3.662-5.153 6.847-8.469 9.47a42.894 42.894 0 01-10.874 6.248c-.056 6.68-5.351 24.755-55.207 14.913-52.869-10.435-49.937-27.984-47.587-35.215v-.012z" fill="#9968FD"/><path fill-rule="evenodd" clip-rule="evenodd" d="M258.473 164.341c-.495-5.122-.749-7.076-.959-8.827l-80.389-15.866c-.866 1.552-1.918 3.39-4.349 8.004a68.675 68.675 0 01-2.276-2.029c3.198-6.049 4.547-8.326 4.571-8.369a1.481 1.481 0 011.578-.724l82.498 16.281a1.48 1.48 0 011.182 1.268c.006.05.365 2.468 1.014 9.149-.971.389-1.924.761-2.87 1.107v.006z" fill="#433B72"/><path fill-rule="evenodd" clip-rule="evenodd" d="M258.498 164.613c-.495-5.14-.774-7.348-.984-9.099l-80.389-15.866c-.866 1.546-1.794 3.155-4.231 7.781a74.09 74.09 0 01-2.276-2.028c3.191-6.038 4.398-8.048 4.46-8.147a1.475 1.475 0 011.571-.724l82.492 16.281a1.478 1.478 0 011.181 1.268c.013.118.39 2.759 1.04 9.421-.972.39-1.924.761-2.871 1.107l.007.006z" fill="#000"/><path fill-rule="evenodd" clip-rule="evenodd" d="M218.309 142.58l46.758 9.229s5.517 24.681-51.236 13.485c-56.754-11.203-42.273-31.937-42.273-31.937l46.757 9.229-.006-.006z" fill="#9968FD"/><path fill-rule="evenodd" clip-rule="evenodd" d="M218.309 142.58l46.758 9.229s.056.247.099.668c-3.266 6.285-14.295 13.485-50.073 6.427s-43.244-17.908-43.881-24.965c.197-.378.34-.582.34-.582l46.757 9.229v-.006z" fill="#000"/><path fill-rule="evenodd" clip-rule="evenodd" d="M172.319 135.015c-.668 1.41-1.677 4.509-.118 8.313 2.487 6.075 11.784 14.562 41.914 20.512 30.137 5.945 41.958 1.621 46.566-3.049 2.883-2.926 3.13-6.174 3.05-7.739l-91.406-18.037h-.006zm84.162 31.961c-3.247 1.089-6.458 1.893-9.953 2.369-8.375.916-19.249.081-32.549-2.517a222.114 222.114 0 01-8.858-1.936c-3.934-.959-7.552-1.992-10.862-3.106-7.954-2.715-14.202-6.061-20.177-10.806-2.159-2.072-3.712-4.274-4.652-6.612-2.666-6.619.767-11.654.909-11.865a1.488 1.488 0 011.503-.606l93.516 18.452a1.47 1.47 0 011.156 1.132c.056.254 1.318 6.211-3.662 11.326-1.664 1.707-3.785 3.093-6.365 4.163l-.006.006z" fill="#000"/><path fill-rule="evenodd" clip-rule="evenodd" d="M233.792 156.139a181.667 181.667 0 01-17.623-2.579h-.025a181.859 181.859 0 01-17.307-4.318c-5.536-1.8-10.367-3.792-14.592-5.92-46.022-23.27-18.471-63.737-18.471-63.737 4.287-44.933 25.275-67.368 34.56-75.224 1.911-1.615 4.837-.57 5.332 1.88 3.965 19.597 14.196 36.558 14.196 36.558 2.165-.316 4.528-.396 6.823-.353a63.308 63.308 0 0121.916 4.324c2.134.829 4.292 1.806 6.173 2.92 0 0 15.909-11.803 27.019-28.424 1.392-2.078 4.491-1.936 5.647.291 5.605 10.794 16.498 39.52 3.396 82.715 0 0 12.056 57.082-57.05 51.873l.006-.006z" fill="#FBA329"/><path fill-rule="evenodd" clip-rule="evenodd" d="M180.255 139.697a56.807 56.807 0 01-1.67-1.064l-1.175-.785c-.39-.266-.767-.551-1.151-.823-.773-.538-1.503-1.126-2.245-1.701-1.448-1.188-2.871-2.412-4.163-3.755-2.623-2.647-4.893-5.616-6.638-8.864a33.735 33.735 0 01-3.532-10.385c-.6-3.625-.618-7.349-.16-11.029.47-3.675 1.385-7.312 2.666-10.825a56.997 56.997 0 011.911-4.633c-.39 3.494-.328 8.332.946 13.274-.092.396-.179.792-.259 1.188-3.502 17.771 8.82 32.784 15.47 39.396v.006zm-7.93-69.848l-.037-.23c-.458-2.69 3.47-5.461 6.204-4.923.229.043.452.118.662.21 0 0 2.134-7.484 8.134-6.297.278.056.563.13.854.223l1.416-.334s1.837 2.19.829 3.588c-1.423 1.98-6.204-1.231-8.115 5.406a2.78 2.78 0 01-.576 1.051c-4.132.223-7.361.83-9.383 1.312l.012-.006z" fill="#BE6F00"/><path fill-rule="evenodd" clip-rule="evenodd" d="M254.588 154.376c8.846-3.662 26.5-13.182 29.494-31.708 0-.018 0-.037.012-.062-.062.402-.136.805-.216 1.2-3.514 17.784-20.636 26.989-29.296 30.57h.006zm-74.339-14.679c-6.656-6.612-18.972-21.625-15.471-39.396.081-.396.161-.792.26-1.188 0 .019-.006.037-.012.062-4.268 18.26 8.437 33.774 15.229 40.522h-.006z" fill="#4A4A8E"/><path fill-rule="evenodd" clip-rule="evenodd" d="M216.169 153.56h-.025s-.018-.007-.024-.013a180.443 180.443 0 01-17.135-4.262.172.172 0 00-.093-.21c-3.513-1.608-7.014-3.149-10.416-4.862-2.809-1.404-5.567-2.883-8.221-4.516-6.792-6.748-19.497-22.256-15.229-40.522 0-.019.006-.037.012-.062 0 .019-.006.037-.012.062.08.544.179 1.095.291 1.652 3.371 3.272 22.348 16.887 29.357 13.41 7.256-3.606 11.103-16.448 18.161-24.514 3.606-4.12 10.114-6.383 15.501-5.499 7.176 1.182 12.662 5.784 14.722 12.662 3.13 10.454 1.584 26.605 6.916 32.147 8.153 8.475 25.757.044 34.114-6.359 0-.018 0-.037.012-.061-3.154 15.99-15.08 25.794-29.505 31.763-3.069.501-6.18.81-9.304 1.045-.952.05-1.899.143-2.851.186-.953.037-1.912.118-2.864.148-.959.019-1.918.087-2.877.118-.958.031-1.923.062-2.888.124-.068 0-.124.049-.136.123v.013a180.692 180.692 0 01-17.487-2.567l-.019-.006zm-50.518-51.249l.018.074-.012-.037v-.037h-.006zm.303 1.132l.024.074-.012-.037-.012-.037zm.136.452l.025.074-.013-.05v-.024h-.012z" fill="#fff"/><path fill-rule="evenodd" clip-rule="evenodd" d="M205.827 124.685c-.934-.848-2.116-2.159-2.827-3.842a20.604 20.604 0 002.196-1.057c.278.352.587.686.927.989-.197.996-.371 2.37-.296 3.91zm30.891 6.062a16.198 16.198 0 001.2-3.693c.42-.149.823-.328 1.206-.544a21.67 21.67 0 001.608 1.781c-1.274 1.268-2.833 2.023-4.008 2.456h-.006zm-3.767-6.372s-.037-.006-.056-.012c-7.695-1.522-7.534-9.557-7.522-9.897a1.596 1.596 0 00-.117-.643l2.035-.322s1.033 7.336 6.173 8.351c1.046.204 1.93.068 2.679-.285.377.841.798 1.677 1.28 2.481-1.163.563-2.666.668-4.466.321l-.006.006zm-21.168-4.175s-.037-.006-.055-.012c-1.819-.365-3.174-1.046-4.033-2.023a23.494 23.494 0 002.103-1.788c.556.613 1.323 1.077 2.369 1.281 5.14 1.014 8.883-5.382 8.883-5.382l1.8 1.095a1.464 1.464 0 00-.341.532c-.117.322-3.024 7.819-10.719 6.303l-.007-.006z" fill="#fff"/><path fill-rule="evenodd" clip-rule="evenodd" d="M254.594 154.376c8.66-3.581 25.776-12.792 29.296-30.57.08-.395.148-.798.216-1.2 3.056-4.088 4.949-8.542 5.92-11.919.074 1.67.074 3.34.006 5.01-.148 3.736-.686 7.448-1.645 11.023-.977 3.575-2.406 7.008-4.336 10.138a33.86 33.86 0 01-7.219 8.264c-2.852 2.338-6.068 4.231-9.507 5.679-1.708.748-3.483 1.342-5.277 1.893-.903.253-1.806.519-2.721.723-.458.105-.916.229-1.374.322l-1.385.278c-.656.13-1.312.242-1.967.353l-.007.006zm33.886-61.603c-1.689-1.212-4.448-3-8.184-4.775a2.692 2.692 0 01-.142-1.2c.736-6.928-5.06-6.18-5.45-8.079-.34-1.682 2.134-3 2.134-3l1.188.847c.309.025.6.068.878.124 6.006 1.188 5.134 8.92 5.134 8.92.229-.006.464.012.693.055 2.734.539 5.307 4.596 3.866 6.91-.043.068-.08.13-.117.198zm-6.681-71.507C270.683 37.887 254.78 49.69 254.78 49.69c-1.88-1.108-4.039-2.091-6.173-2.92a63.302 63.302 0 00-21.91-4.324c-2.289-.043-4.664.043-6.823.359 0 0-10.231-16.961-14.202-36.557-.371-1.831-2.097-2.87-3.742-2.61.105-.013.185.073.241.333 3.686 18.217 12.272 37.182 14.716 41.481a1.93 1.93 0 001.892.965c1.998-.216 4.12-.266 6.18-.229.884.013 1.769.05 2.647.1.693 1.793 4.262 3.73 8.803 4.62 4.54.897 8.573.458 9.897-.934.835.29 1.664.588 2.486.91 1.918.748 3.86 1.602 5.629 2.56.681.365 1.51.303 2.116-.173 3.891-3.05 18.353-16.293 28.689-31.745.625-.934 1.249.167 2.233.044-1.144-2.24-4.262-2.388-5.654-.31l-.006.006z" fill="#BE6F00"/><path fill-rule="evenodd" clip-rule="evenodd" d="M200.321 4.38c.644.358 1.225-.65 1.578-.743a3.28 3.28 0 00-1.578.742z" fill="#A2A2D2"/><path fill-rule="evenodd" clip-rule="evenodd" d="M223.697 115.406s-.025.056-.043.081c0-.031 0-.062-.006-.087l.049.012v-.006z" fill="#FF6C8B"/><path fill-rule="evenodd" clip-rule="evenodd" d="M232.32 127.27c-5.567-1.101-8.215-4.954-9.291-8.493-2.338 2.864-6.254 5.425-11.821 4.324-.025 0-.043-.006-.068-.012-2.95-.6-5.085-1.899-6.346-3.866-1.745-2.722-1.077-5.691-1.046-5.815a1.477 1.477 0 011.782-1.101 1.48 1.48 0 011.101 1.782c0 .006-.402 1.911.674 3.569.816 1.256 2.307 2.103 4.423 2.536.018 0 .037.006.055.012 7.695 1.522 10.603-5.981 10.72-6.303a1.482 1.482 0 011.677-.934 1.473 1.473 0 011.187 1.503c-.012.34-.167 8.376 7.522 9.897.019 0 .037.006.056.013 2.121.408 3.822.185 5.053-.662 1.627-1.12 1.98-3.037 1.98-3.056a1.493 1.493 0 011.701-1.212 1.48 1.48 0 011.218 1.688c-.018.13-.525 3.13-3.173 4.986-1.917 1.342-4.386 1.732-7.342 1.163-.025 0-.044-.006-.068-.012l.006-.007z" fill="#000"/><path fill-rule="evenodd" clip-rule="evenodd" d="M229.802 104.42a10.89 10.89 0 00-7.633-1.509c-2.054.359-4.231 1.336-4.72 3.817-.977 4.961 2.45 9.136 5.994 9.835 3.545.699 8.302-1.862 9.279-6.823.489-2.48-1.151-4.212-2.914-5.326l-.006.006z" fill="#000"/><path fill-rule="evenodd" clip-rule="evenodd" d="M229.92 107.247c-.105.538-2.19.576-4.658.087-2.468-.489-4.379-1.318-4.274-1.85.105-.538 2.189-.575 4.658-.086 2.468.488 4.379 1.317 4.274 1.849zm-41.772-48.446v.031c-.136-.05-.266-.099-.396-.142a7.68 7.68 0 00-2.128-.427 6.33 6.33 0 00-.915.025 4.464 4.464 0 00-.631.117 2.9 2.9 0 00-.334.093 4.668 4.668 0 00-1.275.625 4.745 4.745 0 00-.445.34 3.254 3.254 0 00-.266.241c-.093.087-.186.18-.266.272a8.037 8.037 0 00-.866 1.15 9.886 9.886 0 00-.674 1.325s-.006.012-.006.024c-.037.087-.075.174-.106.266 0 .007-.006.013-.006.025-.086.229-.161.446-.229.643l-.055.174a2.135 2.135 0 01-.062.21c-.173.606-.235 1.014-.235 1.014-2.685-.532-4.355.204-5.4 1.367-1.095 1.219-1.497 2.914-1.639 4.126.03-.451.055-.903.092-1.354.161-2.172.409-4.3.718-6.378 4.664-30.823 24.835-50.865 28.732-54.483.068-.062.124-.112.174-.161l.414-.377c.025-.019.031-.031.043-.038h.013c-5.623 6.607-9.05 14.97-11.128 23.011-3.699 14.283-3.143 27.564-3.112 28.287l-.012-.006z" fill="#fff"/><path fill-rule="evenodd" clip-rule="evenodd" d="M188.148 58.801v.031c-.136-.05-.266-.099-.396-.142-.779-.26-1.485-.396-2.128-.427a7.36 7.36 0 00-.915.025 4.464 4.464 0 00-.631.117c-.112.025-.223.062-.334.093a4.668 4.668 0 00-1.275.625 4.745 4.745 0 00-.445.34 3.254 3.254 0 00-.266.241 6.856 6.856 0 00-.94 1.126c-.068.099-.13.198-.192.297-.272.44-.495.89-.674 1.324 0 0-.006.012-.006.024-.037.087-.075.174-.106.266 0 .007-.006.013-.006.025a7.94 7.94 0 00-.229.643l-.055.174c-.019.068-.044.142-.062.21-.173.606-.235 1.014-.235 1.014-2.654-.247-4.342.39-5.4 1.367-.86.798-1.318 1.825-1.547 2.778.161-2.171.409-4.3.718-6.378.835-.68 1.8-1.039 2.548-1.23a2.007 2.007 0 001.454-1.51c1.014-4.466 3.829-6.03 5.518-6.575a1.982 1.982 0 001.385-1.788c1.225-26.122 14.691-40.399 17.827-43.386.068-.062.124-.112.174-.161l.414-.377c.025-.019.031-.031.043-.038h.013c-5.53 7.732-8.988 15.712-11.128 23.011-4.497 15.322-3.186 27.62-3.112 28.287l-.012-.006z" fill="#fff"/><path fill-rule="evenodd" clip-rule="evenodd" d="M202.548 7.62c-1.719 2.79-3.223 5.698-4.627 8.624l-1.027 2.208c-.321.748-.655 1.484-.965 2.24-.637 1.49-1.2 3.011-1.744 4.546-.526 1.534-1.033 3.074-1.466 4.633-.111.39-.229.773-.334 1.169l-.309 1.175c-.217.78-.384 1.571-.569 2.363a86.732 86.732 0 00-1.584 9.575 86.031 86.031 0 00-.47 9.693c.019.81.012 1.621.05 2.425l.117 2.425v.037c0-.037.006.13 0 .21a1.607 1.607 0 01-.761 1.25 1.584 1.584 0 01-1.41.105h-.012l-.031-.019-.235-.086a7.254 7.254 0 00-1.504-.34c-.668-.075-1.317-.056-1.868.105a3.316 3.316 0 00-1.435.829c-.402.402-.736.94-.989 1.565-.254.624-.421 1.323-.539 2.053l-.043.272-.012.069v.037c-.013.043-.025.154-.05.228-.08.328-.266.631-.526.867-.259.235-.606.39-.971.426-.161.025-.433-.012-.383 0h-.062l-.247-.024a8.015 8.015 0 00-1.021 0 5.97 5.97 0 00-1.868.445 4.046 4.046 0 00-1.466 1.04c-.421.463-.749 1.075-1.015 1.762-.259.693-.433 1.454-.593 2.258v.012a.494.494 0 01-.959.031 8.042 8.042 0 01-.272-2.66 6.62 6.62 0 01.241-1.404c.055-.235.148-.47.235-.705.105-.229.21-.458.346-.68.501-.904 1.312-1.658 2.221-2.165.915-.508 1.905-.749 2.87-.842a10.283 10.283 0 011.812-.006h.093c.099.019-.117-.006-.229.013a1.22 1.22 0 00-1.094 1.064v-.044l.018-.087.043-.34c.13-.897.328-1.806.681-2.715.352-.903.866-1.813 1.62-2.592a6.223 6.223 0 011.287-1.002 6.26 6.26 0 011.497-.612c1.033-.279 2.066-.285 3.025-.168a10.854 10.854 0 012.103.495c.111.038.229.08.346.13l.044.019h.024c.05.025-.099-.031-.167-.044a1.39 1.39 0 00-1.725 1.243.96.96 0 000 .168v-.037l-.093-2.512c-.037-.835-.013-1.67-.025-2.511.012-3.347.204-6.693.6-10.015a78.77 78.77 0 011.794-9.872c.204-.81.402-1.62.637-2.425l.34-1.206c.118-.402.248-.798.371-1.194.495-1.596 1.077-3.167 1.671-4.726 1.237-3.105 2.628-6.148 4.311-9.037a48.96 48.96 0 012.728-4.194c.99-1.342 2.029-2.647 3.235-3.823a.209.209 0 01.284 0 .195.195 0 01.025.248l.031.03z" fill="#984200"/><path fill-rule="evenodd" clip-rule="evenodd" d="M278.038 76.542l-.012.024c.142 0 .284.007.42.019a7.68 7.68 0 012.128.414 5.727 5.727 0 011.027.483c.124.074.241.148.353.235.093.068.185.142.272.21.223.186.421.39.6.606.124.149.235.303.34.458.105.155.198.322.285.483.062.105.111.21.154.321.056.118.099.235.143.353.123.346.222.693.296 1.045.031.118.05.235.069.353.08.513.117 1.014.123 1.478v.334c0 .242-.018.47-.031.687 0 .062-.012.117-.012.18-.006.074-.019.148-.025.216-.068.624-.167 1.026-.167 1.026 2.685.532 3.953 1.844 4.479 3.316.544 1.54.278 3.266-.05 4.441.142-.426.291-.853.427-1.286a86.987 86.987 0 001.757-6.174c7.392-30.285-3.65-56.481-5.883-61.312l-.099-.217c-.117-.247-.198-.42-.241-.507l-.025-.05v-.012c2.685 8.258 2.679 17.296 1.54 25.516-2.004 14.617-7.565 26.692-7.868 27.347v.013z" fill="#fff"/><path fill-rule="evenodd" clip-rule="evenodd" d="M278.038 76.542l-.012.024c.142 0 .284.007.42.019.817.056 1.522.198 2.128.414.303.112.582.235.835.372a5.455 5.455 0 01.545.346c.093.068.179.142.272.21.223.186.421.39.6.606.124.149.241.303.34.458.105.155.198.322.285.483.062.105.111.21.154.321.056.118.099.235.143.353.129.34.228.699.296 1.045.031.118.05.235.069.353.086.507.117 1.014.123 1.478v.334c0 .248-.012.47-.031.687 0 .062-.012.117-.012.18-.006.073-.019.148-.025.216-.068.624-.167 1.026-.167 1.026 2.549.78 3.866 2.01 4.479 3.316.494 1.064.525 2.184.377 3.155a86.987 86.987 0 001.757-6.174c-.52-.946-1.275-1.645-1.887-2.103a2.006 2.006 0 01-.773-1.948c.761-4.522-1.25-7.033-2.604-8.178a1.992 1.992 0 01-.6-2.183c8.79-24.625 1.756-42.954-.007-46.906l-.098-.217c-.118-.247-.198-.42-.242-.507l-.024-.05v-.012c2.165 9.26 2.332 17.957 1.54 25.516-1.658 15.879-7.541 26.76-7.868 27.347l-.013.019z" fill="#E5E5E5"/><path fill-rule="evenodd" clip-rule="evenodd" d="M233.798 155.991c.965-.062 1.93-.093 2.889-.124.959-.025 1.917-.093 2.876-.118.959-.031 1.912-.111 2.864-.148.953-.043 1.905-.136 2.852-.186 3.792-.284 7.571-.674 11.27-1.398l1.386-.278c.464-.093.915-.217 1.373-.322.922-.204 1.819-.476 2.722-.723 1.794-.551 3.569-1.145 5.276-1.893 3.433-1.448 6.656-3.341 9.507-5.679a33.84 33.84 0 007.219-8.264c1.93-3.13 3.359-6.563 4.336-10.138.959-3.582 1.497-7.293 1.646-11.023a58.645 58.645 0 00-.037-5.61 51.431 51.431 0 00-.39-4.182 31.307 31.307 0 00-.21-1.336v-.031a1.575 1.575 0 01.037-.705c3.142-10.349 5.22-21.02 5.895-31.782.668-10.757-.099-21.62-2.666-32.06-1.293-5.215-3-10.33-5.258-15.174-.279-.606-.576-1.206-.872-1.806l-.229-.446-.112-.222-.055-.105-.037-.062c-.05-.08-.093-.167-.161-.235l-.087-.112c-.037-.03-.068-.062-.099-.093a1.677 1.677 0 00-.996-.445c-.185-.03-.377 0-.569.019-.179.05-.365.099-.519.198-.167.08-.303.21-.44.34-.068.068-.117.155-.179.223l-.291.414-1.187 1.707c-.774 1.15-1.64 2.233-2.468 3.34-3.372 4.392-7.083 8.493-10.992 12.378-.965.984-1.98 1.918-2.976 2.876-1.014.934-2.022 1.868-3.062 2.778-.513.464-1.033.909-1.558 1.36a83.15 83.15 0 01-1.584 1.337 93.882 93.882 0 01-3.26 2.604 1.464 1.464 0 01-1.614.099l-.019-.012c-2.468-1.442-5.202-2.58-7.973-3.557a62.099 62.099 0 00-8.499-2.32 62.008 62.008 0 00-8.747-1.082c-2.932-.155-5.895-.137-8.722.26h-.018a1.46 1.46 0 01-1.46-.7 85.875 85.875 0 01-2.029-3.65 75.628 75.628 0 01-.953-1.836c-.315-.613-.624-1.231-.927-1.85-.613-1.237-1.194-2.486-1.776-3.736-.556-1.262-1.132-2.511-1.657-3.792-2.141-5.078-4.015-10.28-5.469-15.625-.34-1.342-.736-2.666-1.014-4.027l-.452-2.029-.111-.494c-.031-.093-.043-.192-.08-.279-.075-.173-.149-.346-.272-.482-.106-.155-.26-.266-.409-.384-.167-.093-.328-.192-.513-.235a1.68 1.68 0 00-1.089.031c-.043.019-.086.031-.13.05l-.123.068c-.087.037-.161.099-.236.154l-.061.044-.093.08-.192.16-.377.329c-.501.439-1.002.878-1.491 1.336-3.928 3.625-7.454 7.707-10.627 12.037-6.346 8.679-11.177 18.44-14.648 28.64-3.464 10.218-5.598 20.876-6.618 31.64a1.582 1.582 0 01-.235.674l-.013.018c-.222.347-.476.761-.705 1.157-.229.402-.458.81-.68 1.219a70.93 70.93 0 00-1.268 2.499 57.959 57.959 0 00-2.165 5.177c-1.281 3.513-2.196 7.144-2.666 10.825-.452 3.674-.44 7.398.16 11.029.6 3.625 1.8 7.138 3.532 10.386 1.745 3.241 4.015 6.216 6.638 8.864 1.292 1.342 2.715 2.567 4.163 3.755.742.575 1.472 1.169 2.245 1.701.384.272.761.556 1.151.822l1.175.786c3.155 2.066 6.489 3.878 9.897 5.579 3.402 1.714 6.903 3.254 10.417 4.862.086.044.13.143.086.235a.177.177 0 01-.198.099c-3.792-.785-7.503-1.948-11.128-3.365-.909-.352-1.794-.748-2.691-1.132-.89-.389-1.762-.835-2.647-1.249-.866-.458-1.732-.903-2.586-1.38l-1.268-.736-.631-.371-.624-.389-1.244-.786c-.414-.266-.81-.551-1.218-.829-.823-.538-1.602-1.144-2.394-1.726-1.553-1.212-3.081-2.468-4.491-3.86a40.651 40.651 0 01-7.305-9.42 35.697 35.697 0 01-3.996-11.308 38.82 38.82 0 01-.569-5.981 42.655 42.655 0 01.334-5.976c.495-3.952 1.503-7.818 2.882-11.517a57.26 57.26 0 012.357-5.431c.433-.885.903-1.757 1.392-2.617.241-.433.495-.86.754-1.28.266-.434.52-.836.829-1.287l-.247.693c1.039-10.961 3.216-21.854 6.767-32.314 3.557-10.454 8.518-20.481 15.062-29.438 3.272-4.472 6.916-8.69 11.011-12.47a66.65 66.65 0 011.552-1.398l.396-.34.198-.174.105-.086.149-.112c.198-.148.389-.296.612-.408l.328-.173.353-.136c.463-.18.964-.26 1.459-.285.495 0 .996.044 1.466.192.477.124.922.353 1.336.612.403.285.786.613 1.083 1.009.315.383.55.829.73 1.286.093.23.142.47.204.706l.111.5.44 1.968c.272 1.317.655 2.61.983 3.909 1.41 5.196 3.241 10.28 5.338 15.254.508 1.25 1.077 2.474 1.621 3.711.575 1.225 1.138 2.45 1.738 3.656.291.606.6 1.212.903 1.812.303.6.619 1.2.934 1.794a82.096 82.096 0 001.949 3.508l-1.479-.7c3.137-.432 6.229-.445 9.304-.284 3.08.155 6.142.544 9.167 1.132a65.155 65.155 0 018.907 2.431c2.901 1.02 5.759 2.202 8.493 3.798l-1.633.087a87.018 87.018 0 003.136-2.506c.52-.426 1.033-.86 1.547-1.305a80.337 80.337 0 001.528-1.33c1.014-.89 2.004-1.812 3-2.721.971-.94 1.967-1.856 2.913-2.821 3.829-3.804 7.46-7.813 10.732-12.087.804-1.082 1.646-2.128 2.394-3.241l1.157-1.652.297-.42c.148-.192.284-.396.457-.576.341-.352.724-.68 1.163-.915.427-.254.903-.408 1.386-.52a4.895 4.895 0 011.472-.062c.495.044.971.192 1.429.378.445.21.878.476 1.243.822l.273.26.235.285c.167.191.29.402.414.612l.093.161.062.117.117.235.235.47c.31.625.619 1.25.91 1.881 2.35 5.054 4.119 10.336 5.449 15.718 2.654 10.77 3.433 21.934 2.753 32.951-.693 11.03-2.815 21.928-6.019 32.462l.031-.736c.111.539.192 1.009.272 1.51.081.488.149.983.217 1.472a57.304 57.304 0 01.408 8.87c-.13 3.947-.662 7.905-1.707 11.753a43.746 43.746 0 01-1.961 5.654 38.966 38.966 0 01-2.796 5.319c-2.14 3.396-4.843 6.452-7.992 8.945a41.096 41.096 0 01-10.33 5.938c-1.837.749-3.73 1.33-5.623 1.862-.952.241-1.905.501-2.87.687-.483.099-.959.21-1.441.303l-1.448.253-.723.124-.73.099-1.454.204c-.971.118-1.942.204-2.913.297-.972.056-1.949.124-2.92.155-.977.012-1.949.049-2.92.024l-1.46-.037a26.88 26.88 0 01-1.453-.062 73.59 73.59 0 01-2.901-.222 92.499 92.499 0 01-2.889-.34 88.587 88.587 0 01-2.864-.483.145.145 0 01-.118-.173.141.141 0 01.137-.118l-.013.007z" fill="#000"/><path fill-rule="evenodd" clip-rule="evenodd" d="M173.475 68.531c0-.105.019-.699.167-1.49-.061.494-.111.99-.167 1.49zM287.731 98.18a9.8 9.8 0 00.582-1.387c-.186.464-.384.922-.582 1.386z" fill="#FF7C88"/><path fill-rule="evenodd" clip-rule="evenodd" d="M188.303 53.487c20.808 10.986 33.18 24.533 30.303 35.611-1.064 4.108-4.126 7.485-8.746 10.096 11.023-3.539 21.439-.576 31.33 8.128-2.771-4.528-3.798-8.97-2.734-13.07 2.839-10.956 19.875-16.77 42.984-16.4a57.402 57.402 0 00-3.488-5.356l-42.793-11.103-1.515-.39-40.047-10.392c-1.83.872-3.6 1.837-5.307 2.883l.013-.007z" fill="#9355F7"/><path fill-rule="evenodd" clip-rule="evenodd" d="M201.589 54.86c16.64 4.318 26.63 21.31 22.312 37.95-4.317 16.639-21.31 26.629-37.949 22.312-15.47-4.015-25.188-18.978-23.011-34.43l-2.752-1.07a1.098 1.098 0 01-.625-1.423l4.992-12.878c.216-.563.86-.848 1.422-.625l3.174 1.231c7.392-9.545 20.01-14.295 32.437-11.072v.006zm68.241 17.71c-16.64-4.317-33.632 5.673-37.949 22.312-4.318 16.64 5.672 33.632 22.311 37.949 15.471 4.015 31.238-4.336 36.848-18.897l2.926.408a1.1 1.1 0 001.237-.94l1.899-13.683a1.1 1.1 0 00-.94-1.237l-3.371-.47c-1.825-11.932-10.54-22.225-22.961-25.448v.006z" fill="#000"/><path fill-rule="evenodd" clip-rule="evenodd" d="M266.811 71.94l-31.596-8.203-.606-.16-30.063-7.8c14.852 5.455 23.419 21.395 19.368 37.027a31.081 31.081 0 01-5.314 10.985c5.363-5.01 9.514-3.668 12.594 3.267a31.001 31.001 0 01.699-12.18c4.058-15.631 19.299-25.398 34.924-22.943l-.006.006z" fill="#000"/><path fill-rule="evenodd" clip-rule="evenodd" d="M203.13 56.358c15.074 3.909 24.13 19.305 20.214 34.38-3.909 15.074-19.305 24.13-34.38 20.214-15.074-3.909-24.13-19.305-20.214-34.38 3.909-15.074 19.305-24.13 34.386-20.214h-.006zm64.628 16.769c-15.075-3.91-30.471 5.14-34.38 20.215-3.91 15.074 5.14 30.471 20.214 34.38 15.075 3.909 30.471-5.14 34.387-20.215 3.909-15.074-5.141-30.47-20.215-34.386l-.006.006z" fill="#333"/><path fill-rule="evenodd" clip-rule="evenodd" d="M204.534 55.782l29.295 7.603-2.326 8.975-10.689-2.771c-3.538-6.21-9.191-11.202-16.28-13.807z" fill="#4D4D4D"/><path fill-rule="evenodd" clip-rule="evenodd" d="M206.414 60.131l22.918 5.944-.451 1.739-18.421-4.782a61.461 61.461 0 00-4.046-2.907v.006z" fill="#fff"/><path fill-rule="evenodd" clip-rule="evenodd" d="M202.567 59.741c12.52 3.248 20.041 16.034 16.788 28.553-3.248 12.52-16.034 20.042-28.56 16.788-12.519-3.247-20.035-16.033-16.788-28.553 3.248-12.52 16.034-20.035 28.554-16.788h.006z" fill="#666"/><path d="M267.679 121.408c12.353-3.845 19.249-16.976 15.404-29.329-3.845-12.352-16.976-19.25-29.329-15.404-12.352 3.845-19.249 16.976-15.404 29.329 3.845 12.352 16.976 19.249 29.329 15.404z" fill="#666"/><path fill-rule="evenodd" clip-rule="evenodd" d="M203.581 60.762c11.468 2.975 18.359 14.69 15.378 26.16-2.976 11.467-14.685 18.358-26.159 15.377-11.469-2.976-18.36-14.691-15.378-26.16 2.975-11.468 14.691-18.359 26.159-15.377zm61.64 15.99c-11.468-2.975-23.183 3.91-26.159 15.377-2.975 11.469 3.91 23.184 15.378 26.16 11.468 2.975 23.184-3.91 26.159-15.378 2.975-11.468-3.909-23.184-15.378-26.16z" fill="#1A1A1A"/><path fill-rule="evenodd" clip-rule="evenodd" d="M264.523 78.972c-10.164-2.635-20.543 3.465-23.184 13.628-2.636 10.163 3.464 20.542 13.627 23.184 10.163 2.635 20.542-3.464 23.184-13.628 2.635-10.163-3.464-20.542-13.627-23.184z" fill="url(#paint3_linear_55_742)"/><path fill-rule="evenodd" clip-rule="evenodd" d="M203.111 63.038c-10.163-2.635-20.543 3.464-23.184 13.627-2.635 10.163 3.464 20.543 13.627 23.184 10.163 2.635 20.543-3.464 23.184-13.627 2.635-10.163-3.464-20.542-13.627-23.184z" fill="url(#paint4_linear_55_742)"/><path fill-rule="evenodd" clip-rule="evenodd" d="M176.624 93.354a3.43 3.43 0 11-1.726 6.637 3.43 3.43 0 011.726-6.637z" fill="#1A1A1A"/><path fill-rule="evenodd" clip-rule="evenodd" d="M176.469 93.948a2.812 2.812 0 11-1.41 5.444 2.812 2.812 0 011.41-5.444z" fill="#fff"/><path fill-rule="evenodd" clip-rule="evenodd" d="M168.552 95.97l11.115 13.195a1.045 1.045 0 01-.136 1.484l-2.418 2.005a1.071 1.071 0 01-1.497-.137L164.5 99.323a1.047 1.047 0 01.136-1.484l2.419-2.004a1.072 1.072 0 011.497.136z" fill="#333"/><path fill-rule="evenodd" clip-rule="evenodd" d="M169.071 97.963l8.71 10.336a.82.82 0 01-.105 1.163l-1.405 1.163a.846.846 0 01-1.175-.105l-8.709-10.337a.819.819 0 01.105-1.163l1.404-1.162a.845.845 0 011.175.105z" fill="#000"/><path fill-rule="evenodd" clip-rule="evenodd" d="M266.811 71.946l-29.295-7.603-2.326 8.976 10.689 2.771c6.111-3.705 13.478-5.32 20.938-4.144h-.006z" fill="#4D4D4D"/><path fill-rule="evenodd" clip-rule="evenodd" d="M263.05 74.828l-22.918-5.944-.451 1.738 18.421 4.781a62.627 62.627 0 014.948-.575z" fill="#fff"/><path fill-rule="evenodd" clip-rule="evenodd" d="M272.935 118.344a3.433 3.433 0 00-4.182 2.456 3.433 3.433 0 002.456 4.182 3.433 3.433 0 004.182-2.456 3.433 3.433 0 00-2.456-4.182z" fill="#1A1A1A"/><path fill-rule="evenodd" clip-rule="evenodd" d="M272.78 118.938a2.811 2.811 0 10-1.409 5.443 2.811 2.811 0 001.409-5.443z" fill="#fff"/><path fill-rule="evenodd" clip-rule="evenodd" d="M278.712 124.555l-16.126 6.124a1.056 1.056 0 00-.606 1.367l1.138 2.926c.211.544.829.816 1.374.612l16.126-6.124c.544-.204.816-.823.606-1.361l-1.138-2.926a1.074 1.074 0 00-1.374-.612v-.006z" fill="#333"/><path fill-rule="evenodd" clip-rule="evenodd" d="M277.29 126.046l-12.638 4.8a.825.825 0 00-.476 1.07l.662 1.701a.833.833 0 001.076.476l12.638-4.8a.825.825 0 00.476-1.07l-.662-1.701a.833.833 0 00-1.076-.476zm-16.163-52.232a1.263 1.263 0 00-1.541.909 1.263 1.263 0 00.91 1.54 1.263 1.263 0 001.54-.909 1.263 1.263 0 00-.909-1.54zm-52.331-13.578a1.264 1.264 0 00-1.541.91 1.263 1.263 0 00.91 1.54 1.263 1.263 0 001.54-.91 1.263 1.263 0 00-.909-1.54z" fill="#000"/><path fill-rule="evenodd" clip-rule="evenodd" d="M208.251 65.21l-22.342 30.625a19.128 19.128 0 01-5.184-7.219l19.071-26.14a19.42 19.42 0 013.315.556 19.013 19.013 0 015.14 2.177zm5.017 4.453L191.68 99.255a18.683 18.683 0 01-3.81-1.936l22.392-30.7a18.908 18.908 0 013.006 3.044zm56.469 11.53l-22.349 30.638a19.138 19.138 0 01-5.208-7.182l19.132-26.22c1.07.086 2.147.265 3.217.55a19.016 19.016 0 015.208 2.22v-.006zm4.992 4.472l-21.557 29.556a18.889 18.889 0 01-3.823-1.918l22.386-30.693a19.165 19.165 0 012.994 3.055z" fill="#fff"/><path fill-rule="evenodd" clip-rule="evenodd" d="M254.86 51.168c3.372 7.788 10.689 13.256 18.081 17.685l3.712.73a59.11 59.11 0 011.973 2.517s7.627-15.711 7.299-29.431c-.328-13.726-2.017-21.279-2.017-21.279a1.348 1.348 0 00-.253.118c-.167.08-.303.21-.439.34-.068.068-.118.154-.18.229l-.29.414-1.188 1.701c-.773 1.15-1.639 2.233-2.468 3.34-3.371 4.392-7.083 8.493-10.992 12.378-.965.984-1.98 1.918-2.975 2.876-1.015.934-2.023 1.868-3.062 2.778-.514.464-1.033.909-1.559 1.36-.52.452-1.052.898-1.584 1.337a93.882 93.882 0 01-3.26 2.604 1.42 1.42 0 01-.791.29l-.007.013z" fill="#333"/><path fill-rule="evenodd" clip-rule="evenodd" d="M279.987 69.026c2.177-5.245 6.179-16.33 5.944-26.351-.179-7.553-.773-13.237-1.274-16.819-.347.458-.693.91-1.033 1.367-3.371 4.392-7.083 8.493-10.992 12.378-.965.983-1.98 1.917-2.975 2.876-10.72 8.771-6.223 14.84 10.33 26.549z" fill="url(#paint5_linear_55_742)"/><path fill-rule="evenodd" clip-rule="evenodd" d="M284.539 23.605c.668 1.546 1.139 3.142 1.541 4.763.396 1.62.705 3.266.934 4.917.457 3.31.594 6.656.556 9.996-.043 1.67-.105 3.34-.247 5.01-.037.415-.068.836-.111 1.25l-.143 1.25c-.086.835-.21 1.657-.327 2.486a78.296 78.296 0 01-2.091 9.81 88.475 88.475 0 01-3.248 9.496c-.328.767-.631 1.552-.977 2.313l-.111.242c-.18-.124-.359-.248-.539-.366.229-.012.458-.024.687-.03a56.282 56.282 0 00-1.948-2.79l.204-.476a84.267 84.267 0 003.247-9.15 84.857 84.857 0 002.171-9.463c.13-.798.273-1.596.372-2.4l.16-1.206c.05-.402.087-.804.136-1.207.198-1.608.31-3.228.402-4.843.081-1.62.137-3.241.118-4.862 0-.81-.031-1.62-.043-2.437l-.112-2.437c-.185-3.242-.476-6.501-1.008-9.736v-.013a.198.198 0 01.167-.229.2.2 0 01.217.118l-.007-.006zm-6.785 26.709a3.314 3.314 0 01-1.281 6.502 3.314 3.314 0 111.287-6.502h-.006z" fill="#666"/><path fill-rule="evenodd" clip-rule="evenodd" d="M277.562 51.292a2.327 2.327 0 011.831 2.728 2.327 2.327 0 01-2.728 1.83 2.327 2.327 0 01-1.831-2.727 2.327 2.327 0 012.728-1.831z" fill="#fff"/><path fill-rule="evenodd" clip-rule="evenodd" d="M280.358 42.199a2.08 2.08 0 011.639 2.45 2.081 2.081 0 01-2.45 1.639 2.081 2.081 0 01-1.639-2.45 2.081 2.081 0 012.45-1.64z" fill="#666"/><path fill-rule="evenodd" clip-rule="evenodd" d="M280.24 42.811a1.459 1.459 0 11-.561 2.864 1.459 1.459 0 01.561-2.864z" fill="#fff"/><path fill-rule="evenodd" clip-rule="evenodd" d="M282.455 34.22a1.478 1.478 0 011.163 1.731 1.48 1.48 0 01-1.732 1.163 1.477 1.477 0 01-1.163-1.732 1.477 1.477 0 011.732-1.163z" fill="#666"/><path fill-rule="evenodd" clip-rule="evenodd" d="M282.368 34.652c.563.111.922.656.817 1.213a1.038 1.038 0 01-1.213.816 1.043 1.043 0 01-.816-1.212 1.042 1.042 0 011.212-.817z" fill="#fff"/><path fill-rule="evenodd" clip-rule="evenodd" d="M219.225 44.135c-6.075 5.926-14.926 8.202-23.444 9.489l-3.711-.73a57.3 57.3 0 00-2.778 1.577s-1.088-17.431 4.429-30c5.518-12.57 9.953-18.916 9.953-18.916.068.062.136.13.186.204.123.136.204.31.278.482.037.087.049.186.08.279l.112.495.451 2.028c.279 1.361.674 2.685 1.015 4.027 1.447 5.345 3.328 10.547 5.468 15.625.519 1.28 1.101 2.53 1.658 3.792.581 1.243 1.162 2.5 1.775 3.73.297.625.612 1.237.928 1.85.309.618.631 1.224.952 1.837a94.261 94.261 0 002.029 3.65c.155.26.371.45.625.575l-.006.006z" fill="#333"/><path fill-rule="evenodd" clip-rule="evenodd" d="M189.496 51.168c-.018-5.678.483-17.456 4.516-26.636 3.037-6.915 5.746-11.95 7.565-15.074.148.55.297 1.101.439 1.658 1.448 5.344 3.328 10.546 5.468 15.625.52 1.28 1.101 2.53 1.658 3.791 6.588 12.192.118 16.09-19.639 20.636h-.007z" fill="url(#paint6_linear_55_742)"/><path fill-rule="evenodd" clip-rule="evenodd" d="M202.239 7.361c-1.2 1.175-2.246 2.474-3.235 3.823a47.574 47.574 0 00-2.728 4.194c-1.683 2.888-3.074 5.932-4.312 9.037-.6 1.559-1.175 3.13-1.67 4.726-.123.396-.253.798-.371 1.194l-.34 1.206c-.235.804-.433 1.614-.637 2.425a78.564 78.564 0 00-1.794 9.872 87.349 87.349 0 00-.6 10.014c.012.836-.006 1.677.025 2.512l.012.272c.21-.05.507-.111.718-.155-.204-.099-.458-.21-.668-.309a54.665 54.665 0 012.826-1.812c0-.173 0-.347-.006-.52a84.806 84.806 0 01.47-9.693 86.736 86.736 0 011.584-9.575c.185-.786.353-1.584.569-2.363l.309-1.175c.105-.39.223-.78.334-1.17.433-1.565.941-3.105 1.466-4.633a76.4 76.4 0 011.745-4.546c.309-.748.643-1.49.965-2.24l1.026-2.208c1.405-2.932 2.914-5.833 4.627-8.622.062-.106.031-.23-.068-.285a.204.204 0 00-.247.025v.006zm-3.866 27.291a3.324 3.324 0 00-3.897 2.61 3.314 3.314 0 002.61 3.891 3.315 3.315 0 003.891-2.61 3.315 3.315 0 00-2.61-3.89h.006z" fill="#666"/><path fill-rule="evenodd" clip-rule="evenodd" d="M198.181 35.623a2.323 2.323 0 10-.898 4.558 2.323 2.323 0 00.898-4.558z" fill="#fff"/><path fill-rule="evenodd" clip-rule="evenodd" d="M199.041 26.153a2.086 2.086 0 00-2.45 1.64 2.085 2.085 0 102.45-1.64z" fill="#666"/><path fill-rule="evenodd" clip-rule="evenodd" d="M198.923 26.765a1.458 1.458 0 10-.563 2.864 1.459 1.459 0 10.563-2.864z" fill="#fff"/><path fill-rule="evenodd" clip-rule="evenodd" d="M200.136 17.976a1.476 1.476 0 00-.569 2.895 1.478 1.478 0 001.732-1.163 1.478 1.478 0 00-1.163-1.732z" fill="#666"/><path fill-rule="evenodd" clip-rule="evenodd" d="M200.055 18.409a1.033 1.033 0 10-.396 2.029 1.034 1.034 0 10.396-2.03zm16.436 133.4c4.998.983 8.245 5.833 7.262 10.831-.984 4.998-5.833 8.246-10.831 7.262-4.998-.983-8.246-5.833-7.262-10.831.983-4.998 5.833-8.246 10.831-7.262z" fill="#fff"/><path fill-rule="evenodd" clip-rule="evenodd" d="M216.181 153.374a7.626 7.626 0 11-8.956 6.006c.816-4.132 4.824-6.823 8.956-6.006z" fill="#989898"/><path fill-rule="evenodd" clip-rule="evenodd" d="M215.699 155.805a5.149 5.149 0 11-1.998 10.102 5.149 5.149 0 011.998-10.102z" fill="#000"/><path fill-rule="evenodd" clip-rule="evenodd" d="M295.599 89.216a9.82 9.82 0 01-.086.65c-.619 4.323-2.202 5.115-3.922 5.115.186-1.862.254-4.243.254-4.243-24.174-28.621-70.851-42.143-103.221-37.312-5.833.872-10.416 2.14-13.423 3.674-3.315 1.701-4.757 3.606-4.757 3.606-1.063-.408-1.113-2.332-.433-4.887.619-2.332 1.844-5.19 3.452-7.905a32.95 32.95 0 011.621-2.499c1.225-1.713 2.585-3.278 4.027-4.484 5.672-4.757 20.74-10.825 58.59-3.916 32.754 5.975 52.313 28.998 54.707 33.65 1.342 2.617 2.332 6.841 2.857 10.776.031.21.056.42.081.63.346 2.834.451 5.456.26 7.145h-.007z" fill="#9968FD"/><path fill-rule="evenodd" clip-rule="evenodd" d="M291.591 94.98c.006-.08.019-.166.025-.252-.006.086-.019.166-.025.253z" fill="#9B80B9"/><path fill-rule="evenodd" clip-rule="evenodd" d="M295.445 82.993a54.537 54.537 0 00-.105-.921c-.025-.21-.05-.421-.081-.631-.018.018-.037.043-.056.062a.79.79 0 01-.105.105c-.055-.112-.117-.223-.173-.334-.55-2.58-1.286-4.998-2.171-6.724-2.437-4.738-22.343-28.164-55.677-34.25-12.477-2.277-22.522-3.167-30.601-3.167-16.856 0-25.126 3.884-29.035 7.156a21.15 21.15 0 00-2.339 2.32 2.552 2.552 0 01-.068-.618c0-.112 0-.223.019-.34.006-.081.018-.155.031-.236a39.146 39.146 0 00-1.621 2.5 32.93 32.93 0 011.621-2.5c1.225-1.713 2.585-3.278 4.027-4.484 3.835-3.217 11.969-7.033 28.528-7.033 7.936 0 17.802.872 30.062 3.11 32.754 5.976 52.313 29 54.707 33.651 1.342 2.617 2.332 6.841 2.857 10.775.031.21.056.421.081.631.037.31.074.619.105.922l-.006.006z" fill="#F0F"/><path fill-rule="evenodd" clip-rule="evenodd" d="M291.591 94.981c.006-.08.019-.167.025-.253l.037-.365c.167.191.334.383.501.581a2.365 2.365 0 01-.204.025 6.713 6.713 0 01-.353.012h-.006zm3.749-12.909c-.025-.21-.05-.421-.081-.631a.56.56 0 01-.055.061c.018-.018.037-.043.055-.061.031.21.056.42.081.63z" fill="#D67196"/><path fill-rule="evenodd" clip-rule="evenodd" d="M295.599 89.216a9.82 9.82 0 01-.086.65c-3.285-7.93-12.712-14.55-16.12-17.073-23.165-17.165-53.562-25.015-77.166-25.015-4.986 0-9.799.34-14.296 1.008-4.132.625-12.482 1.936-17.919 7.04.618-2.332 1.843-5.19 3.451-7.906a33.26 33.26 0 011.621-2.499c-.074.477-.062.922.055 1.312.359 1.187 1.714 1.899 4.788 1.59 10.998-1.102 13.72-4.058 42.211-1.145 17.926 1.831 47.512 12.866 59.698 25.281 7.361 7.497 11.716 10.571 13.269 9.155.055-.05.111-.105.154-.167.031.21.056.42.081.63.346 2.834.451 5.457.259 7.145v-.006z" fill="#E9E7E4"/><path fill-rule="evenodd" clip-rule="evenodd" d="M295.599 89.216a9.82 9.82 0 01-.086.65c-3.285-7.93-12.712-14.55-16.12-17.073-23.165-17.165-53.562-25.015-77.166-25.015-4.986 0-9.799.34-14.296 1.008-4.132.625-12.482 1.936-17.919 7.04.618-2.332 1.843-5.19 3.451-7.906a33.26 33.26 0 011.621-2.499c-.074.477-.062.922.055 1.312.359 1.187 1.714 1.899 4.788 1.59 10.998-1.102 13.72-4.058 42.211-1.145 17.926 1.831 47.512 12.866 59.698 25.281 7.361 7.497 11.716 10.571 13.269 9.155.055-.05.111-.105.154-.167.031.21.056.42.081.63.346 2.834.451 5.457.259 7.145v-.006z" fill="#C53C3C"/><path fill-rule="evenodd" clip-rule="evenodd" d="M295.599 89.216a9.82 9.82 0 01-.086.65c-3.285-7.93-12.712-14.55-16.12-17.073-23.165-17.165-53.562-25.015-77.166-25.015-4.986 0-9.799.34-14.296 1.008-4.132.625-12.482 1.937-17.919 7.04.618-2.332 1.843-5.19 3.451-7.906a40.348 40.348 0 011.67-1.187c7.912-5.32 18.551-8.14 32.5-8.14 8.344 0 18.18 1.02 29.221 3.037 16.794 3.061 29.747 10.732 38.456 17.74 6.57 5.283 15.143 13.312 19.788 22.244l.242.464c.346 2.833.451 5.456.259 7.144v-.006z" fill="#fff"/><path fill-rule="evenodd" clip-rule="evenodd" d="M295.513 89.866c-3.285-7.93-12.712-14.55-16.12-17.073-23.165-17.165-53.562-25.015-77.166-25.015-4.986 0-9.799.34-14.296 1.008-4.132.625-12.482 1.937-17.919 7.04.618-2.332 1.843-5.19 3.451-7.906a40.348 40.348 0 011.67-1.187c.303 1.002 1.312 1.664 3.458 1.664.402 0 .841-.025 1.33-.075 7.559-.754 11.215-2.387 22.009-2.387 4.911 0 11.295.334 20.208 1.25 17.926 1.83 46.09 14.443 59.698 25.28 6.755 5.376 10.64 9.421 12.551 9.421.278 0 .513-.087.711-.266l.242.464c.228 1.88.352 3.668.352 5.153 0 .748-.031 1.422-.093 1.991a9.82 9.82 0 01-.086.65v-.012z" fill="#D6CBE2"/><path fill-rule="evenodd" clip-rule="evenodd" d="M202.134 51.106c13.256 0 27.811 2.456 41.611 7.132 20.283 6.879 37.732 18.106 49.145 31.615.216.254.328.582.322.922 0 .062-.025.996-.093 2.146.458-.606.872-1.738 1.113-3.86.433-3.829-.761-13.311-3.049-17.771-1.052-2.047-6.44-8.889-15.582-15.866-7.936-6.056-21-13.937-38.153-17.06-37.974-6.928-52.306-.706-57.465 3.624-2.617 2.19-5.301 5.988-7.182 10.157-1.255 2.784-1.763 4.893-1.868 6.143a19.247 19.247 0 013.637-2.4c3.149-1.615 7.937-2.932 13.844-3.817 4.336-.65 8.944-.965 13.714-.965h.006zm89.457 45.248c-.39 0-.755-.16-1.014-.451a1.386 1.386 0 01-.347-1.058c.13-1.274.198-2.827.229-3.625-24.532-28.646-70.845-41.03-101.631-36.44-5.616.835-10.113 2.06-13.002 3.545-2.957 1.515-4.287 3.198-4.299 3.216a1.38 1.38 0 01-1.577.446c-.52-.198-1.429-.761-1.689-2.308-.724-4.28 4.076-14.851 9.965-19.794 5.53-4.633 20.642-11.344 59.717-4.218 34.219 6.24 53.549 30.223 55.677 34.373 2.579 5.023 3.804 15.192 3.34 19.33-.34 3-1.262 6.984-5.369 6.984z" fill="#000"/><path fill-rule="evenodd" clip-rule="evenodd" d="M223.184 116.031s-.019.056-.038.08c0-.031-.006-.055-.012-.086h.05v.006z" fill="#FF6C8B"/><path fill-rule="evenodd" clip-rule="evenodd" d="M218.445 149.78h-.024c-13.448-1.893-10.825-14.004-7.912-21.322 1.299-3.272 2.654-5.586 2.654-5.586s6.798.489 9.977-6.767c1.064 7.85 7.732 9.254 7.732 9.254s7.009 27.13-12.427 24.421z" fill="#F0F"/><path fill-rule="evenodd" clip-rule="evenodd" d="M218.47 149.786h-.049c-9.31-1.311-10.918-7.522-10.058-13.652-.86 6.124.748 12.335 10.058 13.64h.024c11.085 1.546 13.566-6.613 13.658-13.906l.05-.03c-.081 7.311-2.561 15.507-13.683 13.942v.006z" fill="#7C7CB5"/><path fill-rule="evenodd" clip-rule="evenodd" d="M232.103 135.868a41.067 41.067 0 00-.21-4.484c.019.025.031.049.05.074a39.54 39.54 0 01.204 4.373c-.019.013-.031.019-.05.031l.006.006z" fill="#000072"/><path fill-rule="evenodd" clip-rule="evenodd" d="M218.445 149.78h-.024c-9.31-1.311-10.918-7.522-10.058-13.646.383-2.721 1.249-5.424 2.146-7.676.161-.136.254-.21.254-.21s-3.211 14.437 8.449 16.076c11.654 1.633 12.545-13.132 12.545-13.132l.136.192c.142 1.385.229 2.913.21 4.484-.086 7.3-2.573 15.452-13.658 13.912z" fill="#9800CB"/><path fill-rule="evenodd" clip-rule="evenodd" d="M223.957 120.72c-.142 1.546-.365 3.074-.594 4.608a142.536 142.536 0 01-.792 4.577c-.291 1.522-.581 3.044-.959 4.559-.371 1.51-.779 3.019-1.323 4.503a.35.35 0 01-.681-.098c-.117-1.578-.086-3.143-.031-4.695.056-1.559.198-3.099.334-4.646.143-1.546.31-3.087.501-4.621.198-1.534.409-3.068.699-4.596a1.44 1.44 0 012.852.403l-.006.006z" fill="#000"/><path fill-rule="evenodd" clip-rule="evenodd" d="M214.023 124.307c-1.473 2.753-6.495 12.972-3.489 19.188 1.28 2.654 4.002 4.287 8.091 4.856 4.088.575 7.15-.247 9.111-2.443 4.602-5.147 2.586-16.355 1.924-19.405-1.689-.593-5.245-2.319-7.033-6.705-2.926 3.724-6.817 4.404-8.604 4.509zm4.2 26.902c-5.097-.718-8.561-2.889-10.287-6.464-4.145-8.586 3.656-22.033 3.99-22.596.278-.47.798-.749 1.348-.706.229.013 5.679.273 8.437-5.647a1.445 1.445 0 011.238-1.2c.142-.019.278-.012.408 0a1.435 1.435 0 011.255 1.596c1.034 6.52 6.502 7.738 6.557 7.751.538.111.965.519 1.101 1.051.167.637 3.965 15.712-2.381 22.825-2.641 2.963-6.569 4.101-11.666 3.384v.006zm-7.318 97.517a6.378 6.378 0 01-5.091 7.448 6.377 6.377 0 01-7.447-5.091 6.377 6.377 0 015.09-7.448 6.378 6.378 0 017.448 5.091z" fill="#000"/><path fill-rule="evenodd" clip-rule="evenodd" d="M209.025 249.079a4.476 4.476 0 01-3.57 5.221 4.475 4.475 0 01-5.22-3.57 4.473 4.473 0 013.569-5.22 4.474 4.474 0 015.221 3.569z" fill="#fff"/><path fill-rule="evenodd" clip-rule="evenodd" d="M224.749 241.514a4.43 4.43 0 01-3.532 5.171 4.433 4.433 0 01-5.172-3.532 4.43 4.43 0 018.704-1.639z" fill="#000"/><path fill-rule="evenodd" clip-rule="evenodd" d="M223.443 241.755a3.106 3.106 0 01-2.474 3.625 3.107 3.107 0 01-3.625-2.474 3.104 3.104 0 016.099-1.151z" fill="#fff"/><path fill-rule="evenodd" clip-rule="evenodd" d="M239.031 246.759a3.126 3.126 0 01-2.486 3.644 3.126 3.126 0 01-3.644-2.487 3.125 3.125 0 012.487-3.643 3.123 3.123 0 013.643 2.486z" fill="#000"/><path fill-rule="evenodd" clip-rule="evenodd" d="M238.11 246.932a2.182 2.182 0 01-1.745 2.549 2.18 2.18 0 01-2.548-1.745 2.18 2.18 0 011.744-2.548 2.181 2.181 0 012.549 1.744z" fill="#fff"/><defs><linearGradient id="paint0_linear_55_742" x1="22.613" y1="339" x2="27.452" y2="387.876" gradientUnits="userSpaceOnUse"><stop stop-color="#9A68FE"/><stop offset="1" stop-color="#FF23CF"/></linearGradient><linearGradient id="paint1_linear_55_742" x1="84.921" y1="157.778" x2="188.408" y2="157.778" gradientUnits="userSpaceOnUse"><stop stop-color="#ACACAD"/><stop offset="1" stop-color="#fff"/></linearGradient><linearGradient id="paint2_linear_55_742" x1="230.446" y1="327.81" x2="230.446" y2="215.435" gradientUnits="userSpaceOnUse"><stop stop-color="#282725"/><stop offset="1" stop-color="#EAEAEA"/></linearGradient><linearGradient id="paint3_linear_55_742" x1="251.972" y1="108.62" x2="267.523" y2="86.136" gradientUnits="userSpaceOnUse"><stop stop-color="#7D5CA3"/><stop offset="1" stop-color="#C33C8E"/></linearGradient><linearGradient id="paint4_linear_55_742" x1="190.56" y1="92.68" x2="206.117" y2="70.201" gradientUnits="userSpaceOnUse"><stop stop-color="#7D5CA3"/><stop offset="1" stop-color="#C33C8E"/></linearGradient><linearGradient id="paint5_linear_55_742" x1="268.5" y1="44.71" x2="283.08" y2="47.587" gradientUnits="userSpaceOnUse"><stop stop-color="#2A2C2A"/><stop offset="1" stop-color="#BFBEBE"/></linearGradient><linearGradient id="paint6_linear_55_742" x1="211.053" y1="33.372" x2="196.356" y2="30.471" gradientUnits="userSpaceOnUse"><stop stop-color="#2A2C2A"/><stop offset="1" stop-color="#BFBEBE"/></linearGradient></defs></svg>