<svg width="356" height="354" fill="none" xmlns="http://www.w3.org/2000/svg"><g filter="url(#filter0_f_55_743)"><path d="M24.11 228.402H332c7.732 0 14 6.268 14 14V330c0 7.732-6.268 14-14 14H24.11c-7.732 0-14-6.268-14-14v-87.598c0-7.732 6.268-14 14-14z" stroke="url(#paint0_linear_55_743)" stroke-width="8"/></g><path d="M21.824 228.077h311.692c7.18 0 13 5.82 13 13v91.077c0 7.18-5.82 13-13 13H21.824c-7.18 0-13-5.82-13-13v-91.077c0-7.18 5.82-13 13-13z" stroke="url(#paint1_linear_55_743)" stroke-width="2"/><path fill-rule="evenodd" clip-rule="evenodd" d="M21.281 260.866a1.458 1.458 0 01-1.457-1.458v-14.97a6.294 6.294 0 016.284-6.284h42.789c.804 0 1.463.653 1.463 1.457a1.46 1.46 0 01-1.463 1.458H26.108a3.369 3.369 0 00-3.364 3.363v14.971c0 .804-.652 1.457-1.457 1.457l-.006.006zm0 21.074a1.458 1.458 0 01-1.457-1.458v-12.049a1.458 1.458 0 012.915 0v12.049c0 .805-.653 1.458-1.458 1.458z" fill="#fff"/><path clip-rule="evenodd" d="M178.052 250.39c19.191 0 34.744 15.559 34.744 34.744 0 19.185-15.559 34.744-34.744 34.744-19.185 0-34.744-15.553-34.744-34.744 0-19.19 15.553-34.744 34.744-34.744z" stroke="#fff" stroke-width="2" stroke-linecap="round" stroke-linejoin="round"/><path fill-rule="evenodd" clip-rule="evenodd" d="M7.824 220.154c0-.764 1.656-1.385 3.695-1.385h332.302c2.039 0 3.695.619 3.695 1.385 0 .764-1.65 1.385-3.695 1.385H11.519c-2.039 0-3.695-.621-3.695-1.385zm323.233 87.997c.804 0 1.457.653 1.457 1.457v14.97c0 3.463-2.821 6.285-6.284 6.285h-42.789a1.463 1.463 0 01-1.463-1.458 1.46 1.46 0 011.463-1.457h42.789a3.369 3.369 0 003.364-3.364v-14.97c0-.805.652-1.457 1.457-1.457l.006-.006zm0-21.074c.804 0 1.457.653 1.457 1.457v12.05a1.458 1.458 0 01-2.915 0v-12.05c0-.804.653-1.457 1.458-1.457z" fill="#fff"/><path fill-rule="evenodd" clip-rule="evenodd" d="M74.199 140.212c1.62-8.19 4.261-16.311 7.38-24.006 1.743-4.302 3.713-8.756 5.911-12.854l1.539-2.862 3.253.122c9.992.379 19.989.816 29.975 1.294 19.378.921 38.784 1.959 58.132 3.387 3.108.227 6.215.484 9.316.793.589.041 1.166.117 1.749.181 13.781 1.457 25.848 3.777 37.595 11.606 5.462 3.644 10.3 8.249 14.148 13.571 3.83 5.294 6.692 11.257 8.587 17.501a66.53 66.53 0 012.122 9.449c.169 1.131.309 2.268.414 3.411l.309.017.501.029.548.035.501.029.572.035.577.041.589.041.46.035.635.047.49.04.589.047.612.053.647.058.659.058.583.058.763.076.688.07.502.053.588.064.752.087.642.076.635.076c.21.023.426.052.636.081l.623.082.216.029.7.093.658.088.671.093.734.105.746.111.694.105.676.105h.047c.216.04.437.075.653.116l.093.018.624.105.163.029c.216.035.432.076.647.111h.041c.233.046.472.087.705.134h.006c.729.134 1.458.274 2.186.414l.857.169c.228.046.449.093.677.14h.034c.239.058.484.11.723.163h.029c.502.111.997.221 1.499.338h.023c.245.064.484.116.729.175l.07.017c.233.053.46.111.693.163l.07.018c.228.058.461.111.688.169l.064.018.694.174h.029c.239.07.478.129.723.193l.058.017c.234.059.467.123.7.187l.093.023.717.193c12.528 3.456 22.881 15.489 21.062 28.914l-.035.257v.011c-.017.088-.029.181-.046.268l-.041.234-.012.075-.052.286c-.018.082-.035.157-.047.239l-.012.058v.018a4.71 4.71 0 00-.058.256l-.011.053-.07.297v.023c-.03.094-.053.193-.082.286l-.029.099-.064.245-.018.07-.087.297-.018.064c-.035.111-.064.216-.099.327l-.023.064c-.035.105-.07.21-.105.309l-.029.076c-.035.11-.076.215-.117.326l-.029.076c-.041.105-.076.21-.117.309l-.035.087c-.04.105-.081.21-.128.315l-.041.105c-.046.105-.087.21-.134.315l-.04.087c-.047.111-.1.228-.152.338l-.041.094a9.673 9.673 0 01-.163.344l-.029.064c-.059.116-.117.239-.175.355l-.047.094c-.017.035-.035.064-.052.099a5.2 5.2 0 01-1.277 2.133l-.157.228-.018.023-.21.297-.023.029c-.122.169-.245.333-.367.496l-.041.052c-.21.274-.426.537-.647.799l-.076.093c-.122.14-.245.28-.373.42l-.082.093c-.075.082-.151.169-.233.251l-.134.14c-.099.105-.198.204-.297.303-.064.07-.134.134-.198.198a7.404 7.404 0 01-.199.193c-.087.087-.18.169-.268.256l-.221.204c-.082.07-.163.146-.239.216-.064.052-.128.111-.187.163-.116.105-.239.204-.361.303a2.468 2.468 0 01-.204.163c-.082.07-.169.135-.251.204-.064.053-.134.105-.198.158a19.54 19.54 0 01-.397.297c-.064.047-.128.099-.198.146-.111.082-.227.163-.344.245l-.227.157c-.128.088-.257.175-.385.257l-.163.105c-.169.11-.338.221-.513.326l-.14.087c-.134.082-.268.164-.402.239l-.158.094-.553.315-.158.081c-.151.082-.303.163-.46.239l-.134.07c-.199.105-.403.198-.607.297l-.163.076c-.204.099-.414.193-.618.286l-.093.041c-.192.081-.385.169-.577.245l-.158.064c-.227.093-.454.186-.682.274l-.122.046a16.99 16.99 0 01-.601.222l-.128.046c-.239.088-.484.169-.728.251l-.17.053-.664.209-.07.024c-.262.081-.525.151-.787.227l-.169.047c-.268.076-.542.145-.81.21l-.07.017c-.245.058-.496.123-.747.175l-.169.041a33.96 33.96 0 01-.845.18l-.134.03c-.251.052-.501.099-.752.145l-.146.03c-.291.052-.588.104-.886.145l-.192.029-.834.123h-.058a18.86 18.86 0 01-.968.128l-.181.018c-.326.035-.652.07-.979.099l-.111.011c-.297.024-.588.053-.886.076l-.18.012c-.339.023-.671.046-1.009.064l-.204.012c-.303.017-.6.029-.904.04h-.151c-.35.018-.7.03-1.055.035h-.239c-.362.012-.723.012-1.085.012h-39.46a58.466 58.466 0 01-6.371.519c-2.839.07-5.684-.082-8.488-.519h-78.297c-16.352 0-32.686-3.533-46.053-13.367a61.489 61.489 0 01-3.434-2.723c-.944 2.6-2.227 5.066-3.952 7.27-4.6 5.87-11.24 8.453-18.573 8.814-.822.041-1.644.064-2.46.064-8.47 0-16.737-2.349-21.838-9.525-6.634-9.333-5.036-23.336-1.83-34.08-8.406-3.532-14.463-10.469-16.812-19.552-2.017-7.812.553-16.97 8.482-20.228 3.445-1.417 7.216-1.324 10.673.011 3.86 1.493 6.996 4.367 9.456 7.66 5.386-1.346 11.385-1.918 16.882-.997l.024.012z" fill="#9968FD"/><path fill-rule="evenodd" clip-rule="evenodd" d="M69.185 213.938c-8.977 0-15.5-2.775-19.406-8.272-7.503-10.557-2.705-27.836-.548-34.167-4.699-1.469-14.4-5.952-17.635-18.485-1.888-7.311.939-14.341 6.728-16.719 4.792-1.971 11.851-.717 17.75 8.347 3.697-1.095 12.546-3.165 20.509-.833 3.253-19.657 12.953-37.95 13.542-39.046l.659-1.225 1.387.053c.496.017 50.035 1.865 88.003 4.675 3.352.251 6.436.507 9.286.793.566.041 1.125.105 1.691.175 13.297 1.399 24.927 3.562 36.254 11.123 5.165 3.433 9.747 7.794 13.39 12.836 3.655 5.037 6.354 10.709 8.15 16.614a62.902 62.902 0 012.53 13.63c.029.408.052.816.076 1.23h.052l.204.012h.012l.216.011h.18l.041.012.391.017h.064c.233.012.466.024.711.035h.117l.128.012.245.012h.087l.163.011.257.012h.064l.455.029h.035l.501.029.513.029h.029l.42.03h.076l.064.011.28.018.186.011h.099l.292.03.157.011.134.012.292.023.122.012h.029l.438.035h.011l.093.006h.094l.425.04h.059l.559.047h.024l.594.053h.018l.565.052h.018l.052.006.461.041.093.011.093.012.455.041.122.011.548.053h.029l.175.017.338.035h.047l.216.03h.075l.344.046.088.012h.064l.513.064h.029l.047.006.134.017.42.047.093.012.076.011.536.064h.047l.04.012.618.076h.024c.204.029.414.052.618.081l.081.012.537.07.209.029.531.07h.058l.105.023.484.065.163.023.641.087h.018l.659.099h.023l.041.012.594.088.07.011.059.012.629.099.059.012.658.105h.047c.216.04.431.075.647.11l.093.018.618.105.064.011.088.018c.21.035.425.076.635.111h.041c.227.046.455.087.676.128H276c.711.128 1.422.268 2.139.408l.105.023.612.123.123.023c.221.047.443.093.664.134h.035c.233.058.472.105.706.158h.029c.484.11.968.215 1.451.326h.024c.239.058.478.117.717.169l.07.017.67.158.07.017c.227.053.449.111.676.164l.064.017.688.175h.029c.234.064.461.128.694.187l.058.017c.228.058.455.122.682.181l.035.011.047.012c.233.064.466.128.694.187 12.09 3.334 20.397 14.597 18.899 25.638-.006.064-.017.128-.029.198v.012l-.035.221-.035.21-.012.053-.035.198v.023l-.011.023c-.012.076-.029.146-.047.222v.029a3.325 3.325 0 01-.058.239v.029a3.216 3.216 0 00-.064.257v.023l-.07.245-.024.082-.058.215-.017.07c-.024.082-.047.169-.076.251l-.018.064c-.029.087-.052.175-.081.262l-.024.064-.087.263-.029.076c-.029.087-.064.18-.093.268l-.03.076c-.029.087-.064.174-.099.262l-.035.087c-.035.088-.07.175-.105.257l-.04.105c-.035.087-.076.175-.111.262l-.041.087-.122.28-.041.094c-.047.093-.088.192-.134.285l-.029.064c-.047.099-.1.199-.146.298l-.047.093a12.79 12.79 0 01-.157.291l-.035.07a2.24 2.24 0 01-.764 1.289c-.105.163-.21.32-.32.478l-.018.023c-.052.076-.111.157-.169.239l-.023.029c-.105.146-.216.292-.327.437l-.041.053c-.174.227-.361.455-.553.682l-.076.093c-.105.123-.21.239-.315.362l-.082.093a5.275 5.275 0 01-.18.192l-.134.14c-.082.088-.169.175-.251.257l-.175.175c-.058.058-.111.11-.169.163-.076.076-.157.146-.233.221l-.198.181c-.07.064-.14.122-.21.187l-.163.145c-.105.088-.21.181-.315.268-.059.047-.117.1-.175.146a7.057 7.057 0 00-.222.181l-.175.14a17.05 17.05 0 01-.518.39c-.099.07-.199.146-.303.216a9.592 9.592 0 01-.531.362l-.163.104c-.14.094-.286.181-.426.274l-.14.088c-.116.07-.239.146-.361.216l-.158.093c-.151.087-.308.175-.472.262l-.157.082c-.134.07-.274.146-.414.216l-.134.069c-.169.088-.344.17-.513.257l-.163.076c-.181.087-.368.169-.554.256l-.07.029c-.175.076-.35.152-.531.228l-.157.064c-.192.081-.391.157-.595.239l-.122.047c-.181.069-.367.139-.554.204l-.128.046c-.21.076-.426.146-.641.216l-.169.052c-.204.064-.408.129-.618.193l-.07.023c-.228.07-.461.134-.7.204l-.169.047c-.239.064-.478.128-.723.192l-.07.018c-.227.058-.466.11-.699.169l-.169.04c-.251.059-.507.111-.764.164l-.134.029c-.233.046-.472.093-.711.134l-.146.029c-.262.047-.53.093-.804.134l-.193.029c-.262.041-.53.082-.798.117h-.059c-.291.047-.583.081-.88.116l-.181.018c-.297.035-.6.064-.903.093l-.111.012c-.28.023-.566.052-.851.07l-.181.011c-.309.024-.618.041-.933.059l-.204.011c-.285.018-.577.03-.868.041h-.152c-.326.018-.653.024-.985.035h-.239c-.344.012-.688.012-1.038.012h-39.664a55.706 55.706 0 01-6.243.519c-2.711.064-5.457-.076-8.179-.519h-78.53c-17.85 0-32.75-4.302-44.287-12.79a57.033 57.033 0 01-6.756-5.83c-.857 4.168-2.361 7.894-4.746 10.942-3.707 4.74-9.216 7.322-16.369 7.678-.787.041-1.562.058-2.314.058l-.018-.035z" fill="#9D9D9D"/><path fill-rule="evenodd" clip-rule="evenodd" d="M220.473 132.494a5.007 5.007 0 014.139-5.655c10.185-1.685 20.509-5.701 27.877-13.151 3.119-3.154 5.602-6.833 7.235-10.966a31.356 31.356 0 001.655-5.753c.764-4.052.723-8.465-.501-12.423-.904-2.927-2.594-5.935-5.299-7.538-.344-.204-1.253-.635-1.761-.612a.043.043 0 01-.011.03c-.088.256-.175.495-.053.745.315.624 1.312 1.551 1.813 2.04 2.956 2.846 5.206 5.854 3.994 10.237-.805 2.904-2.839 5.393-5.189 7.212-2.6 2.005-5.759 3.352-8.995 3.876-2.559.414-5.176.321-7.689-.326a36.647 36.647 0 01-1.358-.38c-13.07-3.876-22.648-14.142-25.738-27.415-4.15-17.833 3.947-34.995 17.402-46.573 11.478-9.88 25.76-13.064 40.602-10.621 14.504 2.39 28.052 9.916 38.51 20.13 10.808 10.55 18.631 24.43 20.503 39.541 2.186 17.617-3.999 34.004-15.116 47.581a88.13 88.13 0 01-3.51 4.022c-14.125 15.18-32.779 23.732-53.241 25.982-7.193.787-14.545.822-21.75.094-3.02-.303-6.325-.735-9.286-1.458a5.002 5.002 0 01-3.725-5.841c.035-.699-.018-1.539-.041-2.233a557.351 557.351 0 00-.163-4.284c-.088-2.052-.134-4.215-.309-6.261h.005z" fill="#9968FD"/><path fill-rule="evenodd" clip-rule="evenodd" d="M222.986 132.185a2.477 2.477 0 012.04-2.851c12.324-2.034 22.386-6.914 29.265-13.868 3.422-3.457 6.051-7.427 7.788-11.817a33.736 33.736 0 001.79-6.214c1.842-9.77-1.038-19.063-6.996-22.601-1.486-.886-3.008-1.178-4.069-.787-.664.245-1.119.764-1.393 1.574-.717 2.122.134 3.224 2.407 5.41 1.819 1.748 4.303 4.144 3.312 7.735-1.19 4.303-6.22 8.307-12.155 9.27a16.19 16.19 0 01-6.651-.28 31.81 31.81 0 01-1.271-.356c-12.167-3.609-21.086-13.082-23.995-25.563-3.62-15.547 2.583-32.027 16.591-44.083 10.458-9 23.785-12.469 38.539-10.044 13.373 2.204 26.565 9.106 37.158 19.447 11.035 10.774 18.054 24.28 19.762 38.044 1.964 15.845-3.072 31.637-14.568 45.669a83.824 83.824 0 01-3.405 3.9c-16.608 17.844-37.023 23.58-51.667 25.189-16.9 1.854-29.626-1.172-30.162-1.306a2.479 2.479 0 01-1.819-2.996c.158-.641-.454-13.187-.507-13.478l.006.006z" fill="#FFAC40"/><path fill-rule="evenodd" clip-rule="evenodd" d="M308.628 119.296c-32.162 39.262-82.727 26.955-82.727 26.955l-.472-14.468c13.909-2.303 23.819-7.707 30.447-14.399a39.564 39.564 0 004.757-5.795c4.821-7.17 6.657-15.104 6.185-22.047-.495-7.526-3.696-13.88-8.68-16.842-3.777-2.244-7.817-1.62-9.071 2.134-2.331 6.943 7.007 8.453 5.678 13.28-1.183 4.272-8.4 9.163-15.798 7.251a30.325 30.325 0 01-2.471-.74 37.14 37.14 0 01-2.274-.869c-22.968-9.7-28.098-42.456-2.926-64.113 16.462-14.171 39.25-12.446 58.003-1.591 29.113 16.841 48.485 55.7 19.355 91.249l-.006-.005z" fill="#FBA329"/><path fill-rule="evenodd" clip-rule="evenodd" d="M266.818 89.542c-.495-7.526-3.696-13.88-8.68-16.842-3.777-2.244-7.817-1.62-9.071 2.134-2.331 6.943 7.008 8.453 5.678 13.28-1.183 4.272-8.4 9.163-15.798 7.251a31.056 31.056 0 01-2.471-.74h-.006a35.326 35.326 0 01-2.274-.868c5.148.017 13.898-.694 11.595-5.964-2.874-6.57-13.023-20.678-1.329-27.207 10.074-5.614 25.802 11.73 22.356 28.962v-.006z" fill="#FF9243"/><path fill-rule="evenodd" clip-rule="evenodd" d="M308.628 119.296c-32.162 39.262-82.727 26.955-82.727 26.955l-.472-14.469c13.909-2.302 23.819-7.706 30.447-14.398a39.564 39.564 0 004.757-5.795c10.266-1.09 27.195-6.208 38.236-26.758 13.472-25.084 1.708-45.01-9.601-56.785 29.113 16.841 48.484 55.701 19.354 91.25h.006z" fill="#FF9243"/><path fill-rule="evenodd" clip-rule="evenodd" d="M302.367 37.746c20.98 19.53 30.716 51.702 6.261 81.55-32.162 39.262-82.727 26.955-82.727 26.955l-.472-14.468c13.909-2.303 23.819-7.707 30.447-14.399 11.893-.228 31.258.6 44.573-22.537 6.115-10.633 6.896-20.38 4.279-28.74 1.44-16.294-7.13-29.375-15.448-38.05a31.986 31.986 0 011.399.828c.53.327 1.055.653 1.579.997.274.17.543.35.805.53.455.298.898.607 1.341.91.53.367 1.055.746 1.568 1.131a.67.67 0 01.14.1c.46.331.915.681 1.358 1.031l.222.169c.542.414 1.072.851 1.597 1.282.524.444 1.043.88 1.556 1.336.513.442 1.02.909 1.516 1.37l.006.005z" fill="#F8D2B6"/><path fill-rule="evenodd" clip-rule="evenodd" d="M308.628 119.296c-32.162 39.262-82.727 26.955-82.727 26.955l-.472-14.468c13.909-2.303 23.819-7.707 30.447-14.399 11.893-.228 31.264.594 44.573-22.537 22.065-38.353-25.259-65.28-51.393-56.512-21.354 7.164-35.508 40.807-12.586 56.278-24.881-8.452-31.182-42.62-5.2-64.976 42.031-36.172 125.247 31.212 77.358 89.659z" fill="#fff"/><path fill-rule="evenodd" clip-rule="evenodd" d="M307.135 124.775c-16.608 17.845-37.023 23.581-51.667 25.19-16.9 1.854-29.626-1.172-30.162-1.306a2.479 2.479 0 01-1.819-2.996 2.479 2.479 0 012.991-1.825c.122.029 12.551 2.967 28.617 1.172 21.371-2.39 38.732-11.572 51.609-27.288 24.298-29.661 12.586-60.027-4.821-77.026-18.101-17.663-48.438-26.892-68.998-9.193-12.586 10.825-18.194 25.487-14.994 39.204 2.582 11.081 10.686 19.4 21.68 22.24 6.179 1.596 11.991-2.618 12.784-5.51.175-.641-.338-1.27-1.976-2.845-2.169-2.092-5.445-5.252-3.667-10.557.752-2.233 2.303-3.876 4.367-4.646 2.483-.921 5.52-.495 8.324 1.172 7.713 4.588 11.548 16.013 9.327 27.783-3.503 18.597-19.54 32.004-42.905 35.869a2.478 2.478 0 11-.81-4.891c18.444-3.048 31.829-12.457 37.046-25.684a33.664 33.664 0 001.79-6.215c1.842-9.77-1.038-19.062-6.995-22.6-1.487-.887-3.008-1.178-4.069-.788-.665.245-1.12.764-1.394 1.574-.717 2.122.134 3.224 2.408 5.41 1.819 1.749 4.302 4.145 3.311 7.736-1.189 4.302-6.22 8.307-12.154 9.269-2.146.35-4.408.297-6.652-.28-12.813-3.311-22.257-13-25.265-25.918-3.62-15.548 2.582-32.028 16.591-44.083 10.458-9.001 23.784-12.47 38.545-10.044 13.373 2.203 26.565 9.105 37.157 19.447 11.035 10.773 18.054 24.28 19.762 38.043 1.965 15.845-3.072 31.637-14.568 45.669a83.811 83.811 0 01-3.404 3.9l.011.017z" fill="#000"/><path fill-rule="evenodd" clip-rule="evenodd" d="M274.694 91.944a6.498 6.498 0 00.332 9.187 6.499 6.499 0 009.188-.332 6.498 6.498 0 00-.333-9.188 6.497 6.497 0 00-9.187.332z" fill="#000"/><path fill-rule="evenodd" clip-rule="evenodd" d="M276.116 93.267a4.552 4.552 0 00.234 6.436 4.551 4.551 0 006.435-.234 4.552 4.552 0 00-.233-6.435 4.553 4.553 0 00-6.436.233z" fill="#fff"/><path fill-rule="evenodd" clip-rule="evenodd" d="M274.245 73.225a4.514 4.514 0 00.227 6.377 4.514 4.514 0 006.378-.227 4.514 4.514 0 00-.227-6.377 4.514 4.514 0 00-6.378.227z" fill="#000"/><path fill-rule="evenodd" clip-rule="evenodd" d="M275.236 74.146a3.168 3.168 0 00.157 4.471 3.168 3.168 0 004.472-.157 3.167 3.167 0 00-.158-4.471 3.167 3.167 0 00-4.471.157z" fill="#fff"/><path fill-rule="evenodd" clip-rule="evenodd" d="M260.738 59.805a3.72 3.72 0 00.187 5.253 3.719 3.719 0 005.252-.187 3.72 3.72 0 00-.186-5.252 3.715 3.715 0 00-5.253.186z" fill="#000"/><path fill-rule="evenodd" clip-rule="evenodd" d="M261.554 60.569a2.608 2.608 0 103.82 3.55 2.608 2.608 0 00-3.82-3.55z" fill="#fff"/><path fill-rule="evenodd" clip-rule="evenodd" d="M276.186 211.653H143.57c-36.93 0-56.307-18.748-64.014-42.596-8.086-25.027 12.44-63.245 12.44-63.245s49.551 1.83 87.921 4.669c30.349 2.245 38.015 5.404 49.213 15.717 17.658 16.264 17.331 40.579 17.331 40.579s20.829-.14 39.939 5.136c22.525 6.22 27.241 39.746-10.208 39.746l-.006-.006z" fill="#9D9D9D"/><path fill-rule="evenodd" clip-rule="evenodd" d="M276.181 211.659H143.57c-36.936 0-56.313-18.754-64.014-42.597-6.762-20.928 6.488-51.09 11.006-60.405a94.96 94.96 0 011.434-2.845s43.302 1.603 80.296 4.133c2.577.169 5.125.356 7.625.536 30.343 2.245 38.009 5.404 49.208 15.717 17.657 16.264 17.331 40.573 17.331 40.573s9.484-.064 21.528 1.528c5.801.758 12.196 1.894 18.404 3.614 22.525 6.22 27.242 39.746-10.207 39.746z" fill="#E58500"/><path fill-rule="evenodd" clip-rule="evenodd" d="M200.63 199.283c-6.786-1.073-15.408-2.962-23.406-6.238a24.51 24.51 0 005.462-1.364c1.207-.466 2.396-1.038 3.556-1.86.548-.408.991-.804 1.493-1.212.239-.204.495-.397.717-.612l.67-.671c.921-.868 1.697-1.853 2.489-2.827l1.079-1.533c.35-.513.647-1.061.973-1.592a34.704 34.704 0 002.944-6.762c.385-1.166.677-2.355.945-3.544.122-.601.245-1.201.338-1.813.035-.222.07-.443.099-.665.105-.058.21-.122.315-.186.064-.041.134-.082.198-.117a52.427 52.427 0 00-1.854 12.435c-.105 4.407.356 8.901 1.737 13.221a32.164 32.164 0 002.245 5.334v.006zm-42.818-57.066c.233-.606.455-1.2.659-1.783 2.226-.956 4.424-2 6.61-3.073 1.522-.775 3.043-1.544 4.53-2.401a56.626 56.626 0 002.67-1.545c-3.708 2.95-8.85 5.853-14.469 8.802z" fill="#E58500"/><path fill-rule="evenodd" clip-rule="evenodd" d="M219.168 211.659H143.57c-36.936 0-56.313-18.754-64.014-42.597-6.762-20.928 6.488-51.09 11.006-60.405 33.584 3.958 67.879 17.453 69.092 24.356.466 2.664-.496 5.707-1.842 9.199-14.761 7.741-32.797 15.769-36.581 25.638-5.275 13.763 5.9 23.382 18.124 25.597 10.995 2 20.258-.792 28.198-5.374 17.576 11.396 45.534 12.58 45.534 12.58l6.087 11.006h-.006z" fill="#686868"/><path fill-rule="evenodd" clip-rule="evenodd" d="M276.181 211.659h-10.966c4.635-6.885 10.149-20.812 2.769-43.36 5.801.758 12.196 1.894 18.404 3.614 22.525 6.22 27.241 39.746-10.207 39.746z" fill="#fff"/><path fill-rule="evenodd" clip-rule="evenodd" d="M284.791 208.697a21.378 21.378 0 001.784-2.483 24.405 24.405 0 001.515-3.025 24.303 24.303 0 001.475-13.175c-.746-4.425-2.781-8.581-5.602-11.951-1.405-1.69-2.991-3.206-4.681-4.564l-1.289-.985a56.022 56.022 0 00-.623-.438c.443.088.886.175 1.329.268 5.934 4.507 12.539 11.065 13.577 22.462.175 1.918 1.766 3.066 3.381 3.066 1.02 0 2.046-.461 2.716-1.487 1.166-1.778 2.216-4.028 2.857-6.832.239 1.12.361 2.239.361 3.335 0 .647-.04 1.282-.128 1.906-.973 7.205-7.03 12.125-16.672 13.898v.005z" fill="#D8D8E9"/><path fill-rule="evenodd" clip-rule="evenodd" d="M288.58 203.206c.46.076 1.037.14 1.574.163.542.029 1.084.018 1.62-.006a13.813 13.813 0 003.125-.542c.507-.134.979-.338 1.452-.524.227-.105.448-.228.676-.339.227-.104.443-.233.647-.373.863-.495 1.574-1.189 2.262-1.871l.087-.093a2.231 2.231 0 013.16-.006 2.243 2.243 0 01-.245 3.381c-1.108.822-2.256 1.586-3.527 2.075-.315.14-.624.263-.95.356-.321.099-.636.21-.962.297-.653.146-1.3.304-1.953.368a17.13 17.13 0 01-3.865.046 20.394 20.394 0 01-1.877-.291 14.515 14.515 0 01-1.871-.513 1.11 1.11 0 01-.694-1.411 1.122 1.122 0 011.23-.74l.105.017.006.006zm3.608-17.22a28.481 28.481 0 015.97.198 23.03 23.03 0 013.025.664c1.015.315 2.029.735 3.032 1.306h.017a2.251 2.251 0 01.84 3.061 2.242 2.242 0 01-3.055.839 2.34 2.34 0 01-.367-.256 10.916 10.916 0 00-1.93-1.335 17.983 17.983 0 00-2.343-1.026 26.158 26.158 0 00-5.183-1.219h-.058a1.125 1.125 0 01-.968-1.253 1.113 1.113 0 011.026-.974l-.006-.005z" fill="#000"/><path fill-rule="evenodd" clip-rule="evenodd" d="M219.168 211.659H143.57c-36.936 0-56.313-18.754-64.014-42.597-6.762-20.928 6.488-51.09 11.006-60.405 33.584 3.958 67.879 17.453 69.092 24.356 1.574 8.965-13.029 22.228-3.877 42.264 10.692 23.411 57.31 25.376 57.31 25.376l6.087 11.006h-.006z" fill="#fff"/><path fill-rule="evenodd" clip-rule="evenodd" d="M200.63 199.283c-6.786-1.073-15.408-2.962-23.412-6.238 8.004 3.276 16.626 5.165 23.406 6.238h.006z" fill="#595969"/><path fill-rule="evenodd" clip-rule="evenodd" d="M93.325 108.091c-3.34 6.658-18.56 38.901-11.653 60.284 6.051 18.73 21.704 41.051 61.898 41.051h132.616c14.592 0 24.047-5.468 25.283-14.626 1.055-7.783-4.518-17.669-15.664-20.747-18.579-5.125-39.128-5.055-39.332-5.055l-2.273.012.035-2.274c0-.233.075-23.539-16.615-38.906-10.773-9.922-17.943-12.918-47.866-15.133-34.289-2.536-78.052-4.285-86.423-4.612l-.006.006zM276.181 213.88H143.564c-17.85 0-32.75-4.302-44.287-12.79-10.201-7.503-17.547-18.048-21.849-31.351-8.284-25.633 11.74-63.391 12.598-64.982l.659-1.224 1.387.052c.496.018 50.035 1.866 88.003 4.675 31.036 2.297 39.064 5.719 50.554 16.3 15.215 14.02 17.611 33.444 17.984 40.008 5.882.116 22.566.833 38.364 5.194 12.09 3.334 20.392 14.597 18.899 25.638-.589 4.337-4.465 18.48-29.695 18.48z" fill="#3A3A3A"/><path fill-rule="evenodd" clip-rule="evenodd" d="M93.325 108.091c-3.34 6.658-18.56 38.901-11.653 60.284 6.051 18.73 21.704 41.051 61.898 41.051h132.616c14.592 0 24.047-5.468 25.283-14.626 1.055-7.783-4.518-17.669-15.664-20.747-18.579-5.125-39.128-5.055-39.332-5.055l-2.273.012.035-2.274c0-.233.075-23.539-16.615-38.906-10.773-9.922-17.943-12.918-47.866-15.133-34.289-2.536-78.052-4.285-86.423-4.612l-.006.006zM276.181 213.88H143.564c-17.85 0-32.75-4.302-44.287-12.79-10.201-7.503-17.547-18.048-21.849-31.351-8.284-25.633 11.74-63.391 12.598-64.982l.659-1.224 1.387.052c.496.018 50.035 1.866 88.003 4.675 31.036 2.297 39.064 5.719 50.554 16.3 15.215 14.02 17.611 33.444 17.984 40.008 5.882.116 22.566.833 38.364 5.194 12.09 3.334 20.392 14.597 18.899 25.638-.589 4.337-4.465 18.48-29.695 18.48z" fill="#000"/><path fill-rule="evenodd" clip-rule="evenodd" d="M230.156 139.787a7.21 7.21 0 01-.454-.012c.151.012.303.012.46.012 1.597 0 3.212-.525 4.605-1.58-1.399 1.061-3.008 1.58-4.605 1.58h-.006z" fill="#D8A5CE"/><path fill-rule="evenodd" clip-rule="evenodd" d="M229.696 139.775a7.205 7.205 0 01-1.446-.239 7.602 7.602 0 01-3.515-2.105c1.381 1.44 3.148 2.227 4.961 2.344z" fill="#797AA8"/><path fill-rule="evenodd" clip-rule="evenodd" d="M217.588 119.768a5.555 5.555 0 00-2.53-.589c-.292 0-.577.023-.863.064-.21.029-.414.064-.618.117-.07.017-.14.035-.216.052-.075.024-.157.047-.233.07a5.395 5.395 0 00-.28.093c-.11.041-.215.082-.32.123h-.012.012l.087-.035c.035-.012.07-.029.111-.041.023-.006.047-.017.07-.023l.058-.018c.093-.035.187-.064.28-.093.076-.023.152-.047.233-.07.07-.017.14-.035.216-.052.204-.053.408-.088.618-.117.285-.041.577-.064.863-.064.862 0 1.725.186 2.53.589l-.006-.006z" fill="#D8A5CE"/><path fill-rule="evenodd" clip-rule="evenodd" d="M281.678 208.709c-6.477 5.661-18.369.985-27.207-3.043-.087.053-.18.105-.268.157-9.479 5.504-26.169 8.739-37.845 4.262-26.222-10.05-16.807-47.342-10.954-53.434l3.486-32.313 1.032-9.578c41.6 12.423 39.343 53.282 39.343 53.282s.875-.221 2.391-.396c4.313-.507 13.821-.671 23.341 5.503 4.436 2.88 7.514 6.138 9.526 9.52 6.091 10.225 2.401 21.464-2.845 26.04z" fill="url(#paint2_linear_55_743)"/><path fill-rule="evenodd" clip-rule="evenodd" d="M229.037 209.957c-3.643 0-7.275-.438-10.639-1.522-3.702-1.218-7.147-3.229-9.805-5.981-2.67-2.746-4.582-6.197-5.766-9.928-1.177-3.742-1.719-7.741-1.778-11.775-.058-4.04.356-8.121 1.143-12.132.239-1.166.501-2.326.81-3.468a46.524 46.524 0 003.743-3.364c2.874-2.92 5.316-6.307 7.112-10.044.221-.466.455-.933.665-1.405l.547-1.457c.123-.333.251-.659.374-.991a83.29 83.29 0 01-.42 4.436c-.566 4.628-8.482 15.431-9.467 21.167-4.355 25.37 14.515 29.94 26.612 29.94 2.285 0 4.331-.163 5.934-.379 12.574-1.702 22.566-14.194 22.566-14.194s.029.314.105.856c-.42 3.743-1.778 7.381-3.288 10.447a47.445 47.445 0 01-1.935 3.539 10.888 10.888 0 00-.158-.07 2.26 2.26 0 00-2.057.105h-.006c-3.393 1.999-7.235 3.433-11.152 4.471-3.929 1.02-7.981 1.632-12.009 1.731-.379.006-.758.012-1.137.012l.006.006z" fill="#4D4D4D"/><path fill-rule="evenodd" clip-rule="evenodd" d="M281.678 208.709c-6.477 5.661-18.369.985-27.207-3.043-.087.053-.18.105-.268.158 2.279-3.393 5.841-9.602 6.564-16.102.303 2.122 1.428 7.736 5.025 11.642 5.76 6.232 22.846-.437 18.725-18.678.14.233.274.472.408.705.256.473.501.945.717 1.423.111.233.21.466.32.705v.012c.1.233.193.472.28.705.094.239.181.472.263.711v.012c.081.233.157.472.227.705.07.234.14.461.198.694.006.012.006.029.012.041.064.227.116.461.175.694.046.192.087.379.122.571.064.286.111.565.157.851.035.198.07.397.088.595.991 7.421-2 14.27-5.812 17.599h.006z" fill="#E7E7E7"/><path fill-rule="evenodd" clip-rule="evenodd" d="M281.678 208.709c-6.477 5.661-18.369.985-27.207-3.043-.087.053-.18.105-.268.157 3.3-4.914 9.281-15.693 5.474-24.758-3.591-8.563-6.436-11.198-8.027-13.413 4.314-.508 13.822-.671 23.341 5.503 17.879 11.589 13.653 29.468 6.681 35.554h.006z" fill="#fff"/><path fill-rule="evenodd" clip-rule="evenodd" d="M257.479 200.169c1.516-3.066 2.869-6.71 3.288-10.453-.419 3.749-1.778 7.392-3.288 10.453z" fill="#C4C4D5"/><path fill-rule="evenodd" clip-rule="evenodd" d="M273.703 209.1c-.566 0-1.137-.029-1.708-.082-1.831-.175-3.702-.571-5.562-1.108-3.672-1.055-7.286-2.57-10.889-4.203a46.057 46.057 0 001.935-3.538c1.516-3.066 2.868-6.71 3.288-10.453.303 2.122 1.434 7.736 5.025 11.636 1.405 1.528 3.492 2.28 5.783 2.28 5.666 0 12.569-4.612 13.478-13.542.047.221.087.443.128.664a19.831 19.831 0 01-1.206 10.738 19.04 19.04 0 01-1.213 2.419 15.873 15.873 0 01-1.557 2.128l-.437.472-.46.432a7.316 7.316 0 01-.939.717 8.395 8.395 0 01-2.174.991c-1.085.315-2.268.455-3.498.455l.006-.006z" fill="#D8D8E9"/><path fill-rule="evenodd" clip-rule="evenodd" d="M206.209 157.421c-.531.688-.991 1.574-1.399 2.472a28.16 28.16 0 00-1.073 2.821c-.641 1.924-1.131 3.912-1.539 5.911-.787 4.005-1.207 8.092-1.143 12.132.059 4.034.595 8.038 1.778 11.775 1.184 3.737 3.096 7.182 5.766 9.928 2.658 2.751 6.098 4.763 9.805 5.981 3.708 1.195 7.748 1.603 11.77 1.51 4.034-.099 8.08-.711 12.009-1.732 3.911-1.037 7.759-2.471 11.152-4.471h.005a2.231 2.231 0 012.052-.111c3.656 1.662 7.322 3.207 11.042 4.273 1.859.531 3.731.933 5.561 1.108 1.83.169 3.626.088 5.206-.373a8.2 8.2 0 002.174-.991c.332-.216.63-.449.939-.717l.46-.431.438-.473c.565-.647 1.09-1.37 1.556-2.127a19.12 19.12 0 001.213-2.42 19.882 19.882 0 001.206-10.738c-.612-3.597-2.256-6.989-4.64-9.846-2.367-2.862-5.457-5.241-8.779-7.1a33.144 33.144 0 00-10.738-3.714 34.66 34.66 0 00-5.696-.443 31.059 31.059 0 00-4.244.315l-.676.111c-.21.035-.466.093-.606.122h-.006a2.251 2.251 0 01-2.763-2.279c.029-.6.017-1.358 0-2.046a55.487 55.487 0 00-.105-2.134 59.136 59.136 0 00-.472-4.267 58.187 58.187 0 00-1.877-8.383c-1.668-5.474-4.157-10.697-7.497-15.297-3.329-4.611-7.503-8.586-12.248-11.74-4.745-3.166-10.044-5.503-15.559-7.159h-.006a2.232 2.232 0 01-1.492-2.775 2.233 2.233 0 012.775-1.492c5.87 1.766 11.589 4.273 16.754 7.718 5.165 3.434 9.747 7.794 13.39 12.837 3.655 5.037 6.354 10.709 8.15 16.614a63.024 63.024 0 012.023 9.024c.227 1.527.396 3.061.507 4.605.058.77.093 1.545.116 2.326.018.799.03 1.528-.005 2.414l-2.77-2.279c.362-.088.601-.135.892-.187l.822-.134a26.121 26.121 0 011.627-.198 37.825 37.825 0 019.683.338c4.255.688 8.4 2.116 12.172 4.215a34.735 34.735 0 012.757 1.684c.443.309.892.607 1.329.916l1.289.985c1.684 1.358 3.27 2.868 4.681 4.564 2.821 3.37 4.862 7.526 5.602 11.951a24.366 24.366 0 01-1.475 13.175 24.412 24.412 0 01-1.516 3.025c-.6.968-1.27 1.906-2.04 2.781l-.6.641-.653.612c-.455.402-.951.799-1.475 1.131a12.554 12.554 0 01-3.346 1.527c-2.332.677-4.664.741-6.873.537-2.21-.21-4.332-.671-6.372-1.259-4.092-1.178-7.928-2.81-11.665-4.507l2.058-.11c-3.9 2.291-8.057 3.818-12.3 4.949-4.25 1.102-8.611 1.76-13.029 1.871-4.408.105-8.902-.326-13.251-1.725a31.964 31.964 0 01-6.226-2.799c-1.965-1.177-3.818-2.582-5.445-4.226a27.117 27.117 0 01-4.215-5.462c-1.16-1.982-2.063-4.093-2.757-6.25-1.381-4.319-1.842-8.814-1.737-13.221a52.524 52.524 0 011.999-12.971 44.418 44.418 0 012.245-6.173c.466-.997.973-1.982 1.556-2.944.589-.962 1.23-1.901 2.146-2.763a1.12 1.12 0 011.574.046c.378.403.396 1.015.069 1.44l-.04.053v.029z" fill="#000"/><path fill-rule="evenodd" clip-rule="evenodd" d="M214.253 143.937c-1.183 5.334-3.591 9.683-6.29 13.122-5.45 6.938-12.061 10.126-12.061 10.126s-.892 13.303-10.791 20.707c-5.357 4.005-21.114 6.173-27.078-6.261-3.014-6.296-3.608-19.313 1.971-29.62 3.573-6.599 9.671-12.085 19.278-13.991l-5.019-25.562c30.284-6.46 44.31 11.979 39.99 31.479z" fill="#FBA329"/><path fill-rule="evenodd" clip-rule="evenodd" d="M197.219 163.839c-.798-.175-1.451-.583-2.11-1.166-1.038-.921-2.069-2.267-3.649-3.789 2.18-2.437 8.493-3.871 14.929-7.922 1.772-1.114 3.556-2.991 5.066-5.224l-.087.327c-.14.426-.315.845-.467 1.265l-.472 1.265c-.181.414-.39.816-.583 1.224-1.562 3.253-3.707 6.238-6.267 8.844a41.418 41.418 0 01-4.127 3.62 47.074 47.074 0 01-2.227 1.556h-.006z" fill="#E58500"/><path fill-rule="evenodd" clip-rule="evenodd" d="M202.501 162.691s-.041.041-.064.058c-.187.157-.373.309-.554.455-.239.192-.466.379-.7.554-.209.169-.425.326-.629.478-.204.151-.408.303-.606.437-.169.122-.327.233-.484.344-.029.023-.064.041-.088.058-.186.128-.373.251-.548.367-1.76 1.166-2.926 1.732-2.926 1.732s-.892 13.303-10.796 20.712c-5.358 3.999-21.115 6.173-27.073-6.261-.058-.111-.105-.227-.157-.344-.058-.116-.105-.233-.158-.355a17.408 17.408 0 01-.623-1.72 71.339 71.339 0 00-.169-.548 28.525 28.525 0 01-.274-1.061 88.476 88.476 0 01-.175-.764 1.76 1.76 0 01-.053-.256c-.052-.257-.099-.519-.151-.787v-.018c-.059-.32-.111-.653-.158-.985.105.257.216.501.327.74 5.958 12.435 21.721 10.266 27.078 6.255 9.899-7.403 6.331-18.322 7.217-21.639.122-.454.361-.868.717-1.259 4.133 3.976 4.512 6.768 11.029 3.795l.018.012z" fill="#E7E7E7"/><path fill-rule="evenodd" clip-rule="evenodd" d="M202.501 162.691c-3.614 3.054-6.605 4.494-6.605 4.494s-.892 13.303-10.79 20.707c-5.358 4.005-21.115 6.173-27.078-6.261-3.014-6.296-3.609-19.313 1.97-29.62 6.267-2.635 17.797-2.88 28.098 4.145 7.631 5.206 6.454 10.167 14.405 6.535z" fill="#fff"/><path fill-rule="evenodd" clip-rule="evenodd" d="M197.22 163.845c-.799-.175-1.452-.583-2.105-1.166.653.583 1.312.991 2.111 1.166h-.006z" fill="#C4C4D5"/><path fill-rule="evenodd" clip-rule="evenodd" d="M173.948 188.778c-1.72 0-3.422-.21-5.031-.676a13.8 13.8 0 01-5.223-2.746 14.02 14.02 0 01-2.006-2.145c-.594-.787-1.09-1.662-1.539-2.559-.017-.035-.035-.07-.052-.111 3.463 3.2 7.969 4.389 12.213 4.389 4.599 0 8.89-1.393 11.222-3.136 9.898-7.403 6.331-18.322 7.217-21.639.122-.455.361-.869.717-1.259 1.579 1.515 2.611 2.862 3.649 3.783.653.583 1.312.991 2.104 1.166 0 0-.011.006-.017.012-.379.245-.77.484-1.154.711-.379.221-.805.46-1.114.618a2.292 2.292 0 00-1.253 1.836v.023a17.17 17.17 0 01-.082.729c-.029.257-.07.525-.116.787-.076.525-.193 1.055-.292 1.586-.239 1.055-.495 2.104-.833 3.13a30.396 30.396 0 01-2.56 5.888c-.279.449-.53.921-.827 1.358l-.91 1.3c-.664.811-1.311 1.644-2.075 2.355l-.554.56c-.186.181-.396.332-.595.501-.396.315-.81.694-1.189.968-.717.507-1.615.962-2.559 1.323-1.9.723-3.993 1.126-6.068 1.23-.362.018-.717.03-1.079.03l.006-.012z" fill="#D8D8E9"/><path fill-rule="evenodd" clip-rule="evenodd" d="M173.796 110.283c3.912-.833 7.928-1.341 11.992-1.346h1.521l1.527.087c1.021.029 2.041.187 3.055.297 2.029.315 4.063.694 6.04 1.359 3.964 1.235 7.735 3.328 10.86 6.202a26.4 26.4 0 016.861 10.558 30.18 30.18 0 011.464 12.381 17.75 17.75 0 01-.169 1.545c-.076.513-.123 1.032-.234 1.533l-.291 1.522-.408 1.504-.414 1.498c-.163.496-.356.974-.536 1.463l-.548 1.458c-.21.472-.443.933-.665 1.405-1.79 3.736-4.238 7.123-7.112 10.044a46.065 46.065 0 01-4.611 4.046 47.626 47.626 0 01-2.519 1.76c-.431.28-.874.548-1.317.816-.461.269-.88.508-1.434.782l1.253-1.854c-.029.39-.064.676-.105.997-.035.314-.081.618-.134.921a35.988 35.988 0 01-.338 1.813c-.268 1.195-.559 2.384-.944 3.544a35.084 35.084 0 01-2.944 6.762c-.327.531-.618 1.079-.974 1.592l-1.078 1.533c-.787.973-1.568 1.959-2.489 2.827l-.671.671c-.227.221-.478.408-.717.612-.501.408-.944.804-1.492 1.212-1.166.822-2.355 1.394-3.556 1.86-2.414.915-4.897 1.405-7.415 1.551-2.519.139-5.084-.07-7.579-.776-2.495-.682-4.902-1.889-6.949-3.585a18.714 18.714 0 01-2.739-2.862c-.811-1.044-1.469-2.175-2.058-3.335-1.131-2.407-1.732-4.85-2.099-7.293a39.545 39.545 0 01-.39-7.321c.221-4.868 1.241-9.707 3.2-14.224a31.758 31.758 0 013.743-6.372c1.515-1.959 3.264-3.749 5.246-5.229a26.272 26.272 0 016.413-3.58 30.591 30.591 0 017.007-1.731 1.113 1.113 0 011.241.968 1.112 1.112 0 01-.781 1.206l-.035.012c-2.139.659-4.215 1.423-6.15 2.425l-1.428.781-1.358.881c-.881.618-1.749 1.247-2.536 1.97-3.207 2.827-5.649 6.436-7.264 10.412-1.644 3.969-2.489 8.312-2.612 12.65-.075 2.168.024 4.343.339 6.459.297 2.116.845 4.185 1.661 5.958.449.897.939 1.772 1.539 2.559.6.781 1.259 1.51 2.005 2.145a13.928 13.928 0 005.224 2.746c1.941.565 4.028.758 6.103.653 2.075-.105 4.168-.513 6.069-1.23.944-.362 1.836-.811 2.559-1.324.373-.274.793-.653 1.189-.967.198-.169.408-.321.595-.502l.554-.559c.763-.712 1.41-1.545 2.075-2.356l.909-1.3c.298-.431.548-.909.828-1.358a30.454 30.454 0 002.559-5.888c.338-1.026.601-2.075.834-3.13.105-.525.216-1.055.291-1.586.047-.262.082-.524.117-.787.035-.25.064-.536.082-.728v-.024a2.29 2.29 0 011.253-1.836c.315-.157.74-.396 1.113-.618.385-.233.776-.466 1.155-.711a43.697 43.697 0 002.244-1.568 41.418 41.418 0 004.127-3.62c2.559-2.606 4.711-5.591 6.267-8.844.192-.408.402-.81.583-1.224l.472-1.265c.158-.42.327-.84.466-1.265l.356-1.306.356-1.3.256-1.335c.099-.443.134-.892.204-1.341a13 13 0 00.146-1.34 25.65 25.65 0 00-1.23-10.546 21.919 21.919 0 00-5.684-8.756c-2.594-2.378-5.748-4.145-9.181-5.223-1.703-.577-3.498-.904-5.294-1.19-.909-.087-1.807-.233-2.728-.262l-1.376-.076h-1.381c-3.69 0-7.41.467-11.076 1.248a2.228 2.228 0 01-2.641-1.714 2.223 2.223 0 011.714-2.641h.017zm87.974 78.67a24.464 24.464 0 01-.379 3.136 34.43 34.43 0 01-.676 3.049 30.557 30.557 0 01-2.274 5.888c-.95 1.912-2.221 3.684-3.684 5.311l-1.143 1.183c-.413.361-.845.711-1.27 1.067l-.642.53-.693.461-1.405.909a2.225 2.225 0 01-3.084-.659 2.224 2.224 0 01.659-3.083c.052-.035.11-.07.163-.099l.216-.117 1.177-.624.595-.309.548-.379 1.107-.758 1.026-.88c1.324-1.224 2.559-2.617 3.539-4.215a27.4 27.4 0 002.524-5.077c.332-.898.635-1.807.88-2.74.257-.915.467-1.889.607-2.775l.011-.07a1.113 1.113 0 012.21.239l-.012.012zm-17.25-19.063a.58.58 0 00-.105.07c-.035.029-.064.059-.058.047h-.012l.018-.058.064-.152.157-.315c.111-.215.245-.425.374-.635.274-.414.577-.828.95-1.224a5.148 5.148 0 011.492-1.143c.35-.157.81-.332 1.446-.303.309.012.659.087.968.239.163.07.291.157.425.251a2.273 2.273 0 01.641.734c.053.082.076.146.111.227.076.158.105.274.14.397.064.239.093.437.105.624.029.361.017.664-.018.95a8.652 8.652 0 01-.303 1.55 11.261 11.261 0 01-1.136 2.705 1.15 1.15 0 01-1.569.403 1.14 1.14 0 01-.559-1.003v-.064c.017-.886.111-1.784.18-2.612.024-.414.065-.822.059-1.166a3.563 3.563 0 00-.029-.419c0-.088-.088-.123.116.209.035.065.21.228.233.239.041.035.082.047.135.076.104.047.227.07.303.07.175 0 .18-.041.116-.012-.146.024-.443.216-.74.426-.303.216-.63.472-.956.74l-1.329 1.044a1.116 1.116 0 01-1.545-.309 1.111 1.111 0 01.309-1.545l.017-.041z" fill="#000"/><path fill-rule="evenodd" clip-rule="evenodd" d="M182.984 177.713c.186 1.464.215 2.828.128 4.256-.099 1.422-.321 2.862-.787 4.296-.461 1.429-1.189 2.863-2.291 4.11a10.135 10.135 0 01-1.906 1.644c-.712.472-1.493.822-2.28 1.108h-.017a2.225 2.225 0 01-2.862-1.329 2.236 2.236 0 011.684-2.956c.968-.186 1.854-.571 2.629-1.218.77-.653 1.44-1.545 1.942-2.589.518-1.037.88-2.215 1.136-3.427a19.99 19.99 0 00.414-3.702v-.064a1.123 1.123 0 011.131-1.102c.56.006 1.02.431 1.09.973h-.011zm-16.906-1.772a24.418 24.418 0 00.017 3.964c.111 1.318.333 2.612.7 3.807.367 1.195.892 2.297 1.574 3.148.344.42.717.793 1.125 1.084.414.292.851.513 1.312.688a2.231 2.231 0 11-1.586 4.174 3.746 3.746 0 01-.256-.116l-.024-.012a10.189 10.189 0 01-2.192-1.586 10.045 10.045 0 01-1.62-2.069c-.875-1.475-1.335-3.043-1.592-4.565-.25-1.527-.297-3.031-.227-4.512.076-1.486.251-2.903.577-4.389.128-.601.723-.98 1.323-.852.554.123.916.63.869 1.178v.058zm106.733 28.052c1.02.28 2.198.466 3.3.536a13.55 13.55 0 003.247-.175 8.72 8.72 0 002.78-1.055c.822-.484 1.434-1.183 1.982-1.9l.082-.105a2.23 2.23 0 013.13-.408 2.235 2.235 0 01.204 3.363c-1.072 1.061-2.291 1.994-3.678 2.548-1.37.554-2.787.834-4.162.886a16.963 16.963 0 01-3.988-.39c-1.288-.292-2.477-.659-3.725-1.225a1.118 1.118 0 01-.554-1.475 1.11 1.11 0 011.312-.612l.076.024-.006-.012zm2.6-15.693a19.638 19.638 0 013.422-.758c1.16-.152 2.361-.21 3.603-.087 1.235.116 2.535.431 3.783 1.084a8.398 8.398 0 011.755 1.259 8.918 8.918 0 011.381 1.726l.035.052a2.234 2.234 0 01-.729 3.078 2.241 2.241 0 01-3.083-.729 2.781 2.781 0 01-.175-.355 4.646 4.646 0 00-.484-.927 4.402 4.402 0 00-.758-.793c-.606-.478-1.399-.863-2.297-1.108-.898-.25-1.883-.378-2.885-.419a17.838 17.838 0 00-3.014.134h-.064a1.1 1.1 0 01-1.254-.945 1.108 1.108 0 01.77-1.206l-.006-.006z" fill="#000"/><path fill-rule="evenodd" clip-rule="evenodd" d="M227.97 197.621c-8.173 0-13.991-6.54-15.343-13.233-.717-3.556.047-4.937 1.516-4.937 1.725 0 4.43 1.906 6.855 4.448 6.465 6.779 21.715 9.368 13.041 12.58-2.134.787-4.162 1.142-6.069 1.142zm-23.86-59.251c-.548 0-.869-.402-.723-1.3 1.312-7.794-.886-13.816-.455-13.816.432 0 4.979 2.355 5.568 7.561.495 4.343-2.839 7.555-4.39 7.555z" fill="#fff"/><path fill-rule="evenodd" clip-rule="evenodd" d="M65.799 131.619a40.375 40.375 0 01-8.89-7.747 35.345 35.345 0 01-6.098-10.307 38.527 38.527 0 01-1.703-5.719 43.291 43.291 0 01-.822-5.864c-.262-3.725-.07-7.643.584-11.642.28-1.731.67-3.538 1.16-5.374a2.266 2.266 0 01-.041-.193c-1.125-1.685-1.697-3.981-1.697-6.826 0-2.39.997-4.524 2.828-6.104a137.06 137.06 0 01-.053-9.537 46.972 46.972 0 01.006-.006c.128-4.46.478-8.849 1.044-13.128 1.474-11.018 4.413-21.295 8.726-30.547 2.39-5.112 5.119-9.782 8.103-13.868.414-.577.846-1.143 1.213-1.62l.589-.747.18-.204c.181-.198.409-.449.718-.694l.343-.28.397-.25c.548-.344 1.16-.6 1.877-.781l.052-.012.053-.012a7.214 7.214 0 011.399-.151c.187 0 .373.011.554.029a6.714 6.714 0 011.883.449l.058.017.052.03a6.52 6.52 0 011.662 1.031c.484.397.903.892 1.294 1.504.157.245.268.478.362.665l.081.175.997 2.256c.315.746.67 1.48 1.055 2.256.18.367.356.734.53 1.102 2.058 4.15 4.536 8.37 7.573 12.871.484.735.968 1.423 1.48 2.151.222.315.444.624.665.939l.432.589a90.463 90.463 0 001.801 2.413c.42.56.84 1.09 1.154 1.487a106.106 106.106 0 002.157 2.664c1.982-.554 4.145-.997 6.675-1.364a63.983 63.983 0 018.96-.647 64.11 64.11 0 018.978.647c2.535.367 4.692.804 6.674 1.364.315-.38.642-.77.98-1.19a68.33 68.33 0 001.166-1.457c.326-.414.746-.944 1.148-1.48.624-.805 1.219-1.627 1.801-2.42l.444-.606c.221-.315.437-.63.658-.939a69.942 69.942 0 001.475-2.133c3.049-4.518 5.532-8.739 7.596-12.924.163-.338.344-.706.525-1.073.379-.775.74-1.504 1.049-2.25l.991-2.262.082-.175a5.39 5.39 0 01.367-.67 6.423 6.423 0 011.288-1.499c.449-.396.997-.734 1.662-1.037l.052-.023.053-.018c.676-.256 1.294-.402 1.882-.449a5.79 5.79 0 01.554-.029c.438 0 .892.052 1.399.152l.053.011.052.012a6.42 6.42 0 011.877.775l.397.257.35.285c.303.24.524.484.705.682l.187.21.577.74c.379.484.81 1.056 1.23 1.633 2.973 4.08 5.701 8.744 8.091 13.862 4.314 9.252 7.252 19.53 8.727 30.547.565 4.273.915 8.657 1.043 13.123a47.08 47.08 0 00.006.005 136.98 136.98 0 01-.052 9.543c1.83 1.58 2.827 3.714 2.827 6.104 0 2.845-.571 5.136-1.702 6.82-.012.065-.029.129-.041.193a57.71 57.71 0 011.16 5.38c.653 4.005.851 7.923.583 11.636a43.163 43.163 0 01-.822 5.859 38.697 38.697 0 01-1.702 5.73 35.399 35.399 0 01-6.098 10.301 40.368 40.368 0 01-8.913 7.759c1.166 6.191-.426 23.861-48.327 23.861-50.787 0-51.277-16.766-50.42-23.878l-.005.017z" fill="#9968FD"/><path fill-rule="evenodd" clip-rule="evenodd" d="M156.29 141.873c-1.387-4.646-1.982-6.406-2.495-7.986H76.571c-.519 1.591-1.154 3.486-2.559 8.191a96.518 96.518 0 01-2.477-1.458c1.853-6.179 2.687-8.528 2.699-8.569a1.396 1.396 0 011.323-.956h79.247c.6 0 1.136.384 1.323.956.012.041.787 2.221 2.612 8.278-.828.536-1.638 1.055-2.449 1.55v-.006z" fill="#433B72"/><path fill-rule="evenodd" clip-rule="evenodd" d="M156.36 142.118c-1.393-4.663-2.058-6.657-2.565-8.231H76.571c-.513 1.591-1.084 3.247-2.495 7.969a81.66 81.66 0 01-2.477-1.457c1.848-6.162 2.6-8.243 2.635-8.348a1.39 1.39 0 011.323-.956h79.247c.6 0 1.136.384 1.323.956.035.105.863 2.477 2.682 8.522-.828.537-1.639 1.056-2.449 1.551v-.006z" fill="#000"/><path fill-rule="evenodd" clip-rule="evenodd" d="M115.18 129.078h44.917s9.607 21.814-44.917 21.814c-54.523 0-44.916-21.814-44.916-21.814h44.916z" fill="#9968FD"/><path fill-rule="evenodd" clip-rule="evenodd" d="M115.18 129.078h44.917s.093.215.21.6c-1.872 6.407-10.756 15.075-45.127 15.075-34.37 0-43.25-8.668-45.126-15.075.116-.385.21-.6.21-.6h44.916z" fill="#000"/><path fill-rule="evenodd" clip-rule="evenodd" d="M71.278 130.477c-.361 1.422-.729 4.477 1.405 7.706 3.41 5.16 13.548 11.316 42.497 11.316 28.95 0 39.087-6.156 42.498-11.316 2.133-3.229 1.766-6.278 1.405-7.706H71.278zm83.648 14.195c-2.804 1.597-5.625 2.926-8.767 4.01-7.579 2.379-17.781 3.586-30.553 3.615a206.356 206.356 0 01-8.54-.175c-3.813-.169-7.351-.467-10.61-.886-7.853-1.061-14.236-3.014-20.63-6.314-2.373-1.521-4.21-3.276-5.51-5.264-3.672-5.631-1.422-10.918-1.323-11.14a1.392 1.392 0 011.277-.834h89.827c.554 0 1.055.327 1.277.834.099.222 2.355 5.503-1.324 11.14-1.224 1.877-2.938 3.55-5.124 5.014z" fill="#000"/><path fill-rule="evenodd" clip-rule="evenodd" d="M131.969 138.79c-5.578.553-11.169.827-16.765.827h-.024c-5.602 0-11.204-.274-16.789-.827-5.445-.653-10.277-1.615-14.574-2.816-46.8-13.116-28.71-55.561-28.71-55.561-4.232-42.329 11.076-66.9 18.229-75.86 1.475-1.842 4.366-1.41 5.276.764 7.24 17.395 19.797 31.21 19.797 31.21 1.941-.687 4.115-1.194 6.243-1.573a59.672 59.672 0 0121.051 0c2.127.379 4.302.886 6.243 1.574 0 0 12.551-13.816 19.797-31.211.91-2.175 3.801-2.606 5.276-.764 7.153 8.96 22.467 33.531 18.229 75.86 0 0 21.558 50.577-43.279 58.371v.006z" fill="#FBA329"/><path fill-rule="evenodd" clip-rule="evenodd" d="M79.469 133.356a61.712 61.712 0 01-1.743-.676l-1.23-.507c-.409-.175-.81-.367-1.213-.548-.81-.355-1.597-.769-2.384-1.166-1.557-.833-3.09-1.708-4.53-2.711-2.909-1.964-5.544-4.302-7.753-6.983a31.911 31.911 0 01-5.165-8.96c-1.219-3.247-1.912-6.687-2.163-10.167-.233-3.486-.052-7.013.49-10.493.239-1.557.542-3.102.92-4.629.28 3.3 1.22 7.765 3.294 12.102-.011.385-.023.77-.023 1.149 0 17.074 14.137 28.704 21.494 33.601l.006-.012zM59.392 70.223a2.108 2.108 0 00-.076-.204c-.91-2.402 2.21-5.684 4.838-5.684.222 0 .443.023.653.07 0 0 .606-7.31 6.372-7.31.268 0 .542.017.834.046l1.253-.565s2.099 1.69 1.422 3.165c-.956 2.093-5.963-.006-6.517 6.483a2.527 2.527 0 01-.344 1.072c-3.778.962-6.657 2.11-8.435 2.92v.007z" fill="#BE6F00"/><path fill-rule="evenodd" clip-rule="evenodd" d="M150.88 133.362c7.509-4.996 22.1-17.022 21.488-34.697v-.058c.012.384.023.77.023 1.148 0 17.081-14.154 28.716-21.505 33.613l-.006-.006zm-71.411-.011c-7.357-4.897-21.488-16.533-21.494-33.602 0-.379.006-.763.023-1.148v.058c-.612 17.664 13.962 29.684 21.477 34.686l-.006.006z" fill="#4A4A8E"/><path fill-rule="evenodd" clip-rule="evenodd" d="M115.204 139.617h-.047c-5.544 0-11.088-.274-16.614-.81a.177.177 0 00-.128-.181c-3.545-.845-7.06-1.626-10.517-2.594-2.85-.787-5.678-1.649-8.423-2.675-7.515-5.002-22.089-17.023-21.476-34.686.174.49.367.98.57 1.475 3.714 2.413 23.89 15.121 29.731 10.627 6.052-4.658 7.124-20.823 12.178-29.567 2.583-4.466 8.185-7.748 13.327-7.917 6.849-.222 12.766 3.037 15.926 9.018 4.803 9.094 6.319 24.309 12.259 28.46 9.083 6.348 23.82-4.658 30.378-12.102v-.058c0 15.36-9.234 26.6-21.482 34.755-2.745 1.026-5.567 1.872-8.412 2.664-.868.222-1.731.478-2.606.694-.874.21-1.743.455-2.623.659-.88.192-1.754.431-2.641.629-.88.205-1.766.409-2.652.642a.145.145 0 00-.105.14v.011c-5.532.542-11.088.816-16.637.816h-.006zm-56.057-38.166l.029.065-.018-.035-.017-.03h.006zm.49.991l.017.03.017.035-.034-.065zm.21.397l.011.023.023.041-.035-.064z" fill="#fff"/><path fill-rule="evenodd" clip-rule="evenodd" d="M100.373 114.813c-1.02-.612-2.35-1.609-3.317-3.037.653-.432 1.26-.892 1.837-1.376.32.28.664.524 1.037.746 0 .956.088 2.262.443 3.667zm29.667-.035c.35-1.399.437-2.682.431-3.632.362-.216.7-.455 1.014-.723.572.478 1.172.933 1.813 1.353-.95 1.404-2.25 2.39-3.258 3.002zm-4.646-5.2h-.053c-7.392 0-8.709-7.462-8.762-7.777a1.362 1.362 0 00-.227-.571l1.825-.671s2.291 6.6 7.228 6.6c1.003 0 1.796-.292 2.425-.752a21.973 21.973 0 001.638 2.057c-.973.729-2.337 1.108-4.069 1.114h-.005zm-20.334 0h-.052c-1.749-.006-3.125-.391-4.098-1.137a21.46 21.46 0 001.614-2.04c.624.46 1.423.752 2.42.752 4.937 0 7.228-6.599 7.228-6.599l1.866.682a1.394 1.394 0 00-.222.554c-.052.32-1.37 7.782-8.762 7.782l.006.006z" fill="#fff"/><path fill-rule="evenodd" clip-rule="evenodd" d="M150.88 133.362c7.351-4.896 21.5-16.526 21.506-33.613 0-.379-.006-.763-.024-1.148 2.081-4.343 3.02-8.803 3.294-12.102.373 1.527.676 3.072.921 4.628.542 3.48.723 7.007.49 10.493-.251 3.481-.945 6.92-2.163 10.167a31.883 31.883 0 01-5.165 8.96c-2.209 2.682-4.839 5.019-7.753 6.984-1.44 1.009-2.973 1.877-4.53 2.717-.793.396-1.574.81-2.384 1.165-.402.181-.805.374-1.213.548l-1.23.513c-.583.239-1.166.467-1.754.682l.005.006zm20.095-63.14c-1.778-.81-4.658-1.958-8.436-2.92a2.59 2.59 0 01-.349-1.084c-.583-6.541-5.807-4.786-6.512-6.477-.624-1.492 1.423-3.165 1.423-3.165l1.247.565c.292-.035.566-.047.834-.047 5.771 0 6.371 7.31 6.371 7.31.21-.052.432-.07.653-.07 2.629 0 5.748 3.277 4.839 5.685-.029.07-.053.14-.076.204h.006z" fill="#BE6F00"/><path fill-rule="evenodd" clip-rule="evenodd" d="M74.685 3.591s-.019 0-.032.006c.013 0 .02 0 .032-.006z" fill="#A2A2D2"/><path fill-rule="evenodd" clip-rule="evenodd" d="M151.743 5.328c-7.246 17.396-19.797 31.206-19.797 31.206-1.941-.682-4.116-1.195-6.243-1.574a59.638 59.638 0 00-21.045 0c-2.128.379-4.302.892-6.243 1.574 0 0-12.557-13.816-19.797-31.206a3.102 3.102 0 00-3.935-1.731c.093-.03.186.035.28.262 6.733 16.171 18.13 32.138 21.172 35.671.472.554 1.23.764 1.924.548 1.813-.56 3.76-1.003 5.672-1.34a72.054 72.054 0 012.466-.391c.968 1.527 4.623 2.67 8.978 2.67 4.354 0 8.009-1.137 8.983-2.67.822.116 1.65.239 2.466.39 1.912.344 3.865.781 5.672 1.341a1.83 1.83 0 001.924-.548c3.043-3.533 13.996-18.41 20.735-34.58.408-.98 1.19-.077 2.07-.368-1.469-1.86-4.372-1.434-5.288.746h.006z" fill="#BE6F00"/><path fill-rule="evenodd" clip-rule="evenodd" d="M73.33 4.577c.66.215 1.015-.829 1.324-.974-.496.186-.95.513-1.324.974z" fill="#A2A2D2"/><path fill-rule="evenodd" clip-rule="evenodd" d="M115.204 102.973s-.012.052-.024.082a.533.533 0 01-.023-.082h.047z" fill="#FF6C8B"/><path fill-rule="evenodd" clip-rule="evenodd" d="M125.347 112.364c-5.346 0-8.499-3.083-10.138-6.156-1.643 3.073-4.797 6.156-10.137 6.156h-.064c-2.839-.011-5.049-.827-6.576-2.419-2.11-2.198-2.034-5.066-2.029-5.188a1.4 1.4 0 011.446-1.347c.77.029 1.37.676 1.347 1.446 0 .006-.024 1.842 1.271 3.177.985 1.009 2.512 1.527 4.552 1.533h.053c7.392 0 8.709-7.462 8.762-7.782a1.392 1.392 0 012.751 0c.053.315 1.37 7.776 8.762 7.776h.053c2.034-.011 3.567-.524 4.552-1.533 1.3-1.329 1.277-3.165 1.277-3.183a1.397 1.397 0 011.353-1.428 1.396 1.396 0 011.434 1.341c0 .122.081 2.985-2.029 5.188-1.527 1.592-3.737 2.402-6.576 2.419h-.064z" fill="#000"/><path fill-rule="evenodd" clip-rule="evenodd" d="M118.847 91.699a10.258 10.258 0 00-7.333 0c-1.837.705-3.667 2.005-3.667 4.39 0 4.768 3.929 8.003 7.333 8.003 3.405 0 7.334-3.235 7.334-8.004 0-2.384-1.836-3.684-3.667-4.39z" fill="#000"/><path fill-rule="evenodd" clip-rule="evenodd" d="M119.471 94.293c0 .513-1.918.932-4.291.932-2.372 0-4.29-.413-4.29-.932 0-.52 1.918-.933 4.29-.933 2.373 0 4.291.42 4.291.933z" fill="#fff"/><path fill-rule="evenodd" clip-rule="evenodd" d="M59.56 72.06a9.692 9.692 0 01-.203-1.4c.064.466.134.933.204 1.4z" fill="#FF7C88"/><path fill-rule="evenodd" clip-rule="evenodd" d="M72.007 57.118l.006.029c-.134-.023-.263-.04-.39-.058a7.07 7.07 0 00-2.047-.006c-.297.04-.577.11-.84.192a3.035 3.035 0 00-.198.064c-.128.047-.25.1-.367.152-.1.047-.198.099-.292.146-.239.134-.46.28-.664.449-.14.11-.274.233-.397.36a3.712 3.712 0 00-.35.397 5.447 5.447 0 00-.402.571 7.59 7.59 0 00-.466.91 10.08 10.08 0 00-.507 1.661v.024l-.053.262v.023c-.04.228-.07.438-.093.642l-.017.169-.018.204c-.046.594-.035.98-.035.98-2.576 0-3.993.984-4.745 2.25-.787 1.329-.851 2.967-.764 4.115a53.22 53.22 0 01-.157-1.265 83.68 83.68 0 01-.501-6.028c-1.312-29.346 13.68-51.556 16.625-55.62.053-.063.094-.128.129-.18.151-.204.262-.35.314-.42a.411.411 0 01.035-.04l.012-.012c-3.993 7.14-5.637 15.5-6.086 23.312-.816 13.88 2.122 26.058 2.285 26.723l-.017-.006z" fill="#fff"/><path fill-rule="evenodd" clip-rule="evenodd" d="M72.007 57.118l.006.029c-.135-.023-.263-.04-.391-.058-.764-.1-1.446-.1-2.046-.006a5.913 5.913 0 00-1.038.256c-.128.047-.245.1-.367.152-.1.047-.198.099-.292.146-.239.134-.46.28-.664.449-.146.11-.274.233-.397.36a3.69 3.69 0 00-.35.397 5.504 5.504 0 00-.402.571c-.18.292-.338.601-.466.91a2.897 2.897 0 00-.122.315 8.43 8.43 0 00-.385 1.346v.024l-.053.262v.023c-.04.228-.07.438-.093.642l-.017.169-.018.204c-.046.594-.035.98-.035.98-2.495.256-3.94 1.153-4.745 2.25-.653.891-.886 1.923-.927 2.85a83.68 83.68 0 01-.501-6.028c.647-.78 1.475-1.288 2.127-1.603a1.9 1.9 0 001.073-1.661c.123-4.32 2.437-6.279 3.9-7.083a1.872 1.872 0 00.956-1.906c-3.632-24.374 6.214-40.032 8.564-43.366.052-.064.093-.129.128-.181l.315-.42a.342.342 0 01.035-.04l.011-.012c-3.701 8.167-5.439 16.177-6.086 23.312-1.364 14.982 2.093 26.116 2.286 26.723l-.006-.006z" fill="#fff"/><path fill-rule="evenodd" clip-rule="evenodd" d="M75.983 7.17c-1.079 2.898-1.942 5.853-2.705 8.82l-.548 2.233c-.158.752-.333 1.492-.484 2.245a74.619 74.619 0 00-.781 4.517c-.21 1.516-.397 3.032-.508 4.553-.029.38-.07.758-.099 1.143l-.07 1.142c-.058.758-.07 1.522-.099 2.286a82.573 82.573 0 00.28 9.146 80.011 80.011 0 001.335 9.048c.163.746.303 1.498.49 2.232l.554 2.221v.035c0-.035.04.117.046.193.012.093.018.186.012.285a1.509 1.509 0 01-.484 1.009c-.28.262-.694.408-1.084.385-.076 0-.233-.03-.198-.024h-.012l-.03-.006-.233-.035a7.658 7.658 0 00-1.451-.047c-.63.053-1.224.187-1.708.444a3.104 3.104 0 00-1.178 1.032c-.297.443-.507 1.008-.623 1.626a8.953 8.953 0 00-.123 2l.012.262v.099c0 .041.006.146 0 .222a1.62 1.62 0 01-1.149 1.463c-.145.052-.402.07-.355.064h-.059l-.233.03c-.315.04-.635.104-.938.191a5.592 5.592 0 00-1.644.753c-.472.326-.869.717-1.166 1.23-.303.507-.496 1.13-.612 1.813-.117.687-.134 1.422-.14 2.197v.012c0 .257-.21.46-.466.46a.463.463 0 01-.414-.256 7.716 7.716 0 01-.735-2.408c-.047-.437-.082-.88-.035-1.34.012-.228.053-.46.093-.694.059-.228.111-.467.193-.694.297-.927.91-1.772 1.655-2.402.752-.635 1.627-1.037 2.501-1.3a8.655 8.655 0 011.679-.331l.088-.013c.093-.011-.117.006-.21.041a1.151 1.151 0 00-.822 1.032v.146-.041l-.006-.082-.017-.32a11.569 11.569 0 01.134-2.635c.163-.898.466-1.837 1.026-2.688a5.617 5.617 0 012.285-2c.903-.448 1.853-.64 2.769-.704.46-.03.91-.03 1.358.005.222.018.449.041.676.07.111.018.228.035.344.059h.041l.023.011c.047.012-.099-.017-.163-.017a1.338 1.338 0 00-.95.332c-.25.222-.402.548-.426.88 0 .088 0 .163.006.245 0 .064.041.204.03.158v-.035l-.555-2.303c-.186-.764-.32-1.545-.483-2.314a81.731 81.731 0 01-1.271-9.374 75.249 75.249 0 01-.146-9.456c.04-.787.076-1.574.146-2.36l.099-1.178c.035-.39.082-.782.122-1.172.17-1.568.414-3.125.682-4.675.578-3.096 1.312-6.162 2.338-9.141a45.743 45.743 0 011.76-4.378c.665-1.422 1.394-2.816 2.292-4.122a.182.182 0 01.262-.046.187.187 0 01.07.221v.012l.011-.012z" fill="#984200"/><path fill-rule="evenodd" clip-rule="evenodd" d="M170.8 72.06c.023-.1.146-.642.204-1.4-.064.466-.134.933-.204 1.4z" fill="#FF7C88"/><path fill-rule="evenodd" clip-rule="evenodd" d="M158.354 57.118l-.006.029c.134-.023.262-.04.391-.058a7.07 7.07 0 012.046-.006c.297.04.577.11.839.192.064.018.134.041.198.064.129.047.251.1.368.152.099.047.198.099.291.146.239.134.461.28.665.449a4.65 4.65 0 01.752.757 5.333 5.333 0 01.402.571c.181.298.332.601.466.91.047.105.088.204.123.315.169.46.291.915.384 1.346v.024a4 4 0 01.047.262v.023c.041.228.07.438.093.642 0 .058.012.11.018.169.006.07.006.14.017.204.053.594.035.98.035.98 2.577 0 3.994.984 4.746 2.25.787 1.329.851 2.967.763 4.115.059-.426.117-.845.158-1.265.245-2.04.408-4.051.501-6.028 1.312-29.346-13.682-51.556-16.626-55.62-.052-.063-.093-.128-.128-.18a66.33 66.33 0 00-.315-.42.242.242 0 00-.035-.04l-.012-.012c3.994 7.14 5.638 15.5 6.087 23.312.816 13.88-2.122 26.058-2.286 26.723l.018-.006z" fill="#fff"/><path fill-rule="evenodd" clip-rule="evenodd" d="M158.354 57.118l-.006.029c.134-.023.262-.04.391-.058.763-.1 1.445-.1 2.046-.006a5.908 5.908 0 011.037.256c.129.047.245.1.368.152.099.047.192.099.291.146.239.134.461.28.665.449.145.11.28.233.402.36.128.13.239.257.35.397a5.333 5.333 0 01.402.571c.181.292.338.601.466.91.047.105.088.204.123.315.175.455.297.915.384 1.346v.024a4 4 0 01.047.262v.023c.047.228.076.438.093.642 0 .058.012.11.018.169l.017.204c.053.594.035.98.035.98 2.501.256 3.941 1.153 4.746 2.25.653.891.88 1.923.921 2.85.245-2.04.408-4.051.501-6.028-.653-.78-1.475-1.288-2.134-1.603a1.899 1.899 0 01-1.072-1.661c-.123-4.32-2.437-6.279-3.9-7.083a1.871 1.871 0 01-.956-1.906c3.632-24.374-6.215-40.032-8.57-43.366-.052-.064-.093-.129-.128-.181-.151-.204-.262-.35-.315-.42a.242.242 0 00-.035-.04l-.011-.012c3.701 8.167 5.439 16.177 6.086 23.312 1.364 14.982-2.093 26.116-2.285 26.723l.023-.006z" fill="#E5E5E5"/><path fill-rule="evenodd" clip-rule="evenodd" d="M131.952 138.65a91.2 91.2 0 012.652-.642c.881-.198 1.755-.437 2.641-.629.88-.204 1.749-.449 2.623-.659.875-.21 1.738-.472 2.606-.694 3.457-.956 6.873-2.005 10.167-3.346l1.23-.513c.408-.175.804-.367 1.212-.548.811-.355 1.592-.769 2.385-1.166 1.556-.833 3.089-1.708 4.529-2.716 2.915-1.965 5.544-4.302 7.754-6.984a31.931 31.931 0 005.165-8.96c1.212-3.247 1.912-6.686 2.162-10.167.234-3.486.053-7.013-.489-10.493a54.057 54.057 0 00-1.055-5.182 54.58 54.58 0 00-1.12-3.795c-.14-.408-.297-.84-.437-1.195l-.012-.03a1.375 1.375 0 01-.093-.658c1.02-10.138.991-20.386-.35-30.465-1.346-10.068-4.034-19.972-8.318-29.16-2.146-4.582-4.658-9-7.631-13.07-.368-.513-.752-1.008-1.131-1.51l-.292-.373-.145-.186-.07-.088-.047-.046c-.064-.064-.117-.14-.192-.187l-.1-.087c-.04-.023-.075-.04-.11-.064a1.575 1.575 0 00-1.003-.228c-.181 0-.35.064-.519.123-.157.081-.32.157-.443.28-.14.105-.245.25-.344.396-.052.076-.081.163-.128.239l-.192.437-.787 1.796c-.508 1.206-1.114 2.36-1.673 3.538-2.315 4.676-5.002 9.141-7.905 13.449-.717 1.084-1.481 2.134-2.221 3.2-.77 1.044-1.528 2.1-2.321 3.13a91.93 91.93 0 01-1.195 1.546 59.27 59.27 0 01-1.218 1.521c-.822 1.015-1.644 2-2.542 3.002-.379.426-.967.56-1.474.385h-.018c-2.542-.886-5.282-1.445-8.021-1.842a57.924 57.924 0 00-16.568 0c-2.74.397-5.474.95-8.021 1.83h-.018a1.358 1.358 0 01-1.475-.378 84.779 84.779 0 01-2.541-3.003 73.266 73.266 0 01-1.219-1.521c-.402-.513-.804-1.02-1.195-1.54-.793-1.03-1.556-2.08-2.326-3.13-.746-1.066-1.51-2.116-2.22-3.2-2.904-4.308-5.591-8.773-7.906-13.449-.56-1.177-1.166-2.332-1.673-3.538l-.787-1.796-.192-.437c-.047-.076-.076-.169-.128-.239a1.606 1.606 0 00-.344-.396c-.129-.123-.286-.199-.444-.28-.168-.053-.338-.117-.518-.123a1.611 1.611 0 00-1.003.228 1.093 1.093 0 01-.11.064l-.1.087c-.076.047-.128.123-.192.187l-.047.046-.07.088-.145.186-.292.374a48.44 48.44 0 00-1.131 1.51c-2.973 4.068-5.485 8.487-7.63 13.07-4.285 9.18-6.973 19.091-8.32 29.153-1.34 10.079-1.37 20.322-.35 30.465.018.239-.017.46-.098.67v.018a21.44 21.44 0 00-.45 1.195c-.14.414-.28.828-.407 1.253-.257.84-.496 1.69-.712 2.542a54.272 54.272 0 00-1.055 5.177c-.542 3.48-.723 7.007-.49 10.493.251 3.48.945 6.919 2.163 10.166a31.886 31.886 0 005.165 8.96c2.21 2.682 4.845 5.02 7.754 6.984 1.44 1.003 2.978 1.877 4.53 2.711.792.396 1.573.81 2.383 1.166.403.181.805.373 1.213.548l1.23.507c3.294 1.335 6.71 2.402 10.167 3.352 3.457.968 6.978 1.749 10.516 2.594.088.023.146.111.123.198a.169.169 0 01-.164.129c-3.649-.035-7.292-.432-10.9-1.085-.904-.157-1.796-.367-2.694-.559-.898-.199-1.784-.449-2.676-.671-.88-.262-1.766-.519-2.64-.804l-1.306-.455-.653-.227-.647-.251-1.295-.501c-.431-.169-.85-.362-1.276-.542-.857-.35-1.69-.764-2.524-1.161-1.656-.839-3.3-1.719-4.856-2.751a38.359 38.359 0 01-8.47-7.374 33.594 33.594 0 01-5.755-9.724 36.219 36.219 0 01-1.614-5.427 41.152 41.152 0 01-.782-5.585c-.268-3.749-.034-7.503.566-11.175.297-1.837.7-3.656 1.19-5.457.238-.897.512-1.79.81-2.675.145-.444.303-.887.466-1.324.169-.449.326-.863.53-1.34l-.105.687c-1.037-10.324-1.014-20.788.362-31.112 1.382-10.313 4.133-20.49 8.552-29.964 2.215-4.733 4.81-9.298 7.905-13.536a61.34 61.34 0 011.183-1.574l.303-.39.152-.193.081-.099.117-.128c.152-.17.309-.344.495-.49l.275-.222.297-.192c.396-.25.845-.414 1.3-.53.46-.094.927-.14 1.387-.088.467.03.915.158 1.347.327.425.192.834.42 1.183.734.362.297.659.67.91 1.061.128.198.215.408.32.612l.198.443.764 1.738c.49 1.165 1.079 2.29 1.62 3.439 2.25 4.547 4.874 8.913 7.72 13.128.699 1.061 1.45 2.093 2.174 3.136.751 1.026 1.498 2.058 2.273 3.067.385.507.775 1.008 1.166 1.51.39.5.787.996 1.19 1.486.798.985 1.626 1.97 2.442 2.886l-1.498-.38c2.821-.973 5.677-1.544 8.546-1.964a60.934 60.934 0 018.68-.624c2.903.012 5.806.205 8.68.624 2.868.414 5.725.991 8.546 1.965l-1.498.379a86.48 86.48 0 002.442-2.886c.403-.49.799-.985 1.19-1.486a73.48 73.48 0 001.166-1.51c.775-1.009 1.521-2.04 2.273-3.067.729-1.043 1.481-2.075 2.18-3.136 2.845-4.215 5.468-8.587 7.719-13.134.542-1.142 1.136-2.268 1.62-3.433l.764-1.738.198-.443c.105-.204.193-.42.321-.612.25-.39.548-.764.909-1.06.35-.316.764-.543 1.184-.735.431-.17.886-.298 1.346-.327.461-.052.933 0 1.388.088.454.116.903.28 1.3.53l.297.187.274.221c.186.146.338.315.495.49l.117.128.082.1.151.192.303.39c.403.519.799 1.044 1.184 1.574 3.095 4.244 5.689 8.809 7.905 13.536 4.418 9.473 7.176 19.652 8.557 29.964 1.37 10.324 1.399 20.788.362 31.112l-.105-.688c.204.479.361.898.53 1.347.164.437.321.88.467 1.323.291.886.565 1.779.81 2.676a54.238 54.238 0 011.189 5.45c.601 3.673.828 7.433.566 11.176a41.208 41.208 0 01-.781 5.585 36.302 36.302 0 01-1.615 5.427c-1.359 3.533-3.306 6.85-5.754 9.724a38.352 38.352 0 01-8.47 7.374c-1.563 1.032-3.207 1.912-4.862 2.752-.84.396-1.673.81-2.53 1.16-.426.18-.851.373-1.277.542l-1.294.501-.647.251-.653.227-1.306.449c-.874.286-1.76.542-2.641.81-.891.234-1.778.473-2.67.677-.897.186-1.789.402-2.693.553l-1.352.234c-.455.075-.904.157-1.358.209-.91.117-1.813.239-2.723.321-.909.088-1.819.157-2.728.216-.915.035-1.825.07-2.74.076a.142.142 0 01-.14-.14c0-.064.041-.123.105-.134l-.029.029z" fill="#000"/><path fill-rule="evenodd" clip-rule="evenodd" d="M69.523 54.827c21.581 5.095 36.074 14.521 36.074 25.312 0 3.993-1.988 7.805-5.591 11.274 9.217-5.835 19.424-5.602 30.506 0-3.597-3.474-5.59-7.281-5.59-11.274 0-10.663 14.159-20.001 35.332-25.137a53.444 53.444 0 00-4.448-4.058h-82.12a54.844 54.844 0 00-4.157 3.883h-.006z" fill="#9355F7"/><path fill-rule="evenodd" clip-rule="evenodd" d="M81.97 52.932c16.2 0 29.339 13.134 29.339 29.34s-13.133 29.34-29.34 29.34c-15.057 0-27.468-11.35-29.141-25.959l-2.764-.32a1.04 1.04 0 01-.91-1.149l1.51-12.93a1.04 1.04 0 011.15-.909l3.188.373c4.489-10.452 14.871-17.78 26.973-17.78l-.006-.006zm66.445 0c-16.201 0-29.341 13.134-29.341 29.34s13.134 29.34 29.341 29.34c15.057 0 27.468-11.35 29.141-25.959l2.764-.32a1.04 1.04 0 00.909-1.149l-1.51-12.93a1.04 1.04 0 00-1.148-.909l-3.189.373c-4.489-10.452-14.871-17.78-26.973-17.78l.006-.006z" fill="#000"/><path fill-rule="evenodd" clip-rule="evenodd" d="M145.506 53.078H84.878C99.715 54.54 111.31 67.05 111.31 82.272c0 3.993-.798 7.806-2.244 11.275 3.702-5.836 7.806-5.603 12.265 0a29.287 29.287 0 01-2.244-11.275c0-15.22 11.595-27.737 26.431-29.194h-.011z" fill="#000"/><path d="M96.394 103.88c12.904-6.995 17.694-23.126 10.7-36.03-6.995-12.905-23.126-17.695-36.03-10.7-12.905 6.994-17.695 23.125-10.7 36.03 6.994 12.904 23.125 17.694 36.03 10.7z" fill="#333"/><path fill-rule="evenodd" clip-rule="evenodd" d="M146.654 53.935c-14.679 0-26.577 11.898-26.577 26.577 0 14.678 11.898 26.577 26.577 26.577 14.679 0 26.577-11.898 26.577-26.577 0-14.679-11.898-26.577-26.577-26.577z" fill="#333"/><path fill-rule="evenodd" clip-rule="evenodd" d="M84.873 53.078h28.523v8.738h-10.405c-4.699-4.826-11.036-8.038-18.118-8.738z" fill="#4D4D4D"/><path fill-rule="evenodd" clip-rule="evenodd" d="M87.624 56.599h22.31v1.696H92.002a58.834 58.834 0 00-4.378-1.696z" fill="#fff"/><path d="M105.858 82.447c1.777-12.063-6.56-23.282-18.623-25.059-12.062-1.776-23.281 6.562-25.058 18.624C60.4 88.074 68.737 99.293 80.8 101.07c12.063 1.777 23.281-6.561 25.058-18.623zm57.847 10.446c7.546-9.577 5.901-23.457-3.675-31.004-9.577-7.547-23.457-5.901-31.004 3.675-7.547 9.576-5.901 23.457 3.675 31.004 9.576 7.546 23.457 5.901 31.004-3.675z" fill="#666"/><path fill-rule="evenodd" clip-rule="evenodd" d="M85.181 57.84c11.17 0 20.223 9.054 20.223 20.223 0 11.17-9.053 20.223-20.222 20.223-11.17 0-20.223-9.053-20.223-20.223 0-11.169 9.053-20.222 20.222-20.222zm60.021 0c-11.169 0-20.222 9.054-20.222 20.223 0 11.17 9.053 20.223 20.222 20.223 11.17 0 20.223-9.053 20.223-20.223 0-11.169-9.053-20.222-20.223-20.222z" fill="#1A1A1A"/><path fill-rule="evenodd" clip-rule="evenodd" d="M145.086 60.033c-9.899 0-17.92 8.021-17.92 17.92 0 9.898 8.021 17.92 17.92 17.92 9.898 0 17.92-8.022 17.92-17.92 0-9.899-8.022-17.92-17.92-17.92z" fill="url(#paint3_linear_55_743)"/><path fill-rule="evenodd" clip-rule="evenodd" d="M85.298 60.033c-9.898 0-17.92 8.021-17.92 17.92 0 9.898 8.022 17.92 17.92 17.92 9.899 0 17.92-8.022 17.92-17.92 0-9.899-8.021-17.92-17.92-17.92z" fill="url(#paint4_linear_55_743)"/><path fill-rule="evenodd" clip-rule="evenodd" d="M68.305 93.955a3.23 3.23 0 110 6.458 3.23 3.23 0 010-6.458z" fill="#1A1A1A"/><path fill-rule="evenodd" clip-rule="evenodd" d="M68.305 94.538a2.655 2.655 0 012.652 2.652 2.655 2.655 0 01-2.652 2.653 2.655 2.655 0 01-2.653-2.653 2.655 2.655 0 012.653-2.652z" fill="#fff"/><path fill-rule="evenodd" clip-rule="evenodd" d="M61.566 98.251l13.262 9.403a.987.987 0 01.228 1.388l-1.732 2.401c-.32.443-.95.548-1.399.233l-13.262-9.403a.986.986 0 01-.227-1.387l1.73-2.402a1.018 1.018 0 011.4-.233z" fill="#333"/><path fill-rule="evenodd" clip-rule="evenodd" d="M62.51 99.947l10.389 7.369c.35.251.431.74.18 1.084l-1.008 1.393a.79.79 0 01-1.096.181l-10.394-7.368a.783.783 0 01-.18-1.09l1.008-1.394a.79.79 0 011.096-.18l.005.005z" fill="#000"/><path fill-rule="evenodd" clip-rule="evenodd" d="M145.511 53.078h-28.524v8.738h10.406a29.248 29.248 0 0118.118-8.738z" fill="#4D4D4D"/><path fill-rule="evenodd" clip-rule="evenodd" d="M142.766 56.599h-22.31v1.696h17.932a58.834 58.834 0 014.378-1.696z" fill="#fff"/><path fill-rule="evenodd" clip-rule="evenodd" d="M162.079 93.955a3.23 3.23 0 100 6.459 3.23 3.23 0 000-6.46z" fill="#1A1A1A"/><path fill-rule="evenodd" clip-rule="evenodd" d="M162.079 94.538a2.655 2.655 0 00-2.653 2.652 2.655 2.655 0 002.653 2.653 2.654 2.654 0 002.652-2.653 2.654 2.654 0 00-2.652-2.652z" fill="#fff"/><path fill-rule="evenodd" clip-rule="evenodd" d="M168.824 98.251l-13.263 9.403a.988.988 0 00-.227 1.388l1.731 2.401c.321.443.951.548 1.4.233l13.262-9.403a.985.985 0 00.227-1.387l-1.731-2.402a1.017 1.017 0 00-1.399-.233z" fill="#333"/><path fill-rule="evenodd" clip-rule="evenodd" d="M167.879 99.947l-10.388 7.369a.777.777 0 00-.181 1.084l1.009 1.393a.79.79 0 001.096.181l10.388-7.368a.783.783 0 00.181-1.09l-1.009-1.394a.79.79 0 00-1.096-.18v.005zm-27.113-43.82c-.658 0-1.195.536-1.195 1.195 0 .66.537 1.196 1.195 1.196.659 0 1.196-.537 1.196-1.196 0-.659-.537-1.195-1.196-1.195zm-50.95 0a1.196 1.196 0 000 2.391c.66 0 1.196-.537 1.196-1.196 0-.659-.537-1.195-1.196-1.195z" fill="#000"/><path fill-rule="evenodd" clip-rule="evenodd" d="M90.498 60.796L77.364 94.025a17.98 17.98 0 01-6.436-5.358l11.21-28.36a18.11 18.11 0 013.154-.28c1.807 0 3.556.268 5.2.77h.006zm5.632 2.874L83.443 95.773a17.595 17.595 0 01-3.935-.862l13.163-33.304a17.996 17.996 0 013.463 2.063h-.006zm54.237-2.85l-13.139 33.24a18.019 18.019 0 01-6.448-5.317l11.245-28.448c.997-.17 2.017-.262 3.067-.262 1.836 0 3.608.28 5.275.792v-.005zm5.614 2.903l-12.673 32.062a17.694 17.694 0 01-3.941-.845l13.157-33.298a17.954 17.954 0 013.451 2.08h.006z" fill="#fff"/><path fill-rule="evenodd" clip-rule="evenodd" d="M132.302 37.886c4.535 6.588 12.306 10.307 19.943 13.052h3.567a49.676 49.676 0 012.28 1.97s4.185-15.914 1.381-28.546c-2.81-12.627-5.748-19.302-5.748-19.302a1.087 1.087 0 00-.21.157c-.14.105-.244.251-.344.397-.052.076-.081.163-.128.239l-.192.437-.787 1.79c-.507 1.206-1.114 2.36-1.673 3.538-2.315 4.676-5.002 9.141-7.905 13.449-.717 1.084-1.481 2.134-2.221 3.2-.77 1.044-1.528 2.1-2.32 3.125a102.79 102.79 0 01-1.195 1.545 61.56 61.56 0 01-1.219 1.521c-.822 1.015-1.644 2-2.541 3.003a1.35 1.35 0 01-.683.413l-.005.012z" fill="#333"/><path fill-rule="evenodd" clip-rule="evenodd" d="M158.785 49.813c1.055-5.246 2.734-16.223.688-25.451-1.545-6.95-3.13-12.097-4.244-15.32-.239.483-.478.967-.705 1.451-2.314 4.675-5.002 9.14-7.905 13.449-.717 1.084-1.481 2.134-2.221 3.2-8.313 10.068-3.043 14.854 14.393 22.666l-.006.005z" fill="url(#paint5_linear_55_743)"/><path fill-rule="evenodd" clip-rule="evenodd" d="M154.71 6.99c.898 1.305 1.627 2.699 2.291 4.121a46.14 46.14 0 011.761 4.372c1.032 2.973 1.76 6.046 2.338 9.141.268 1.55.513 3.107.682 4.675.04.39.087.781.122 1.172l.099 1.178c.076.787.105 1.573.152 2.36a73.147 73.147 0 01-.146 9.456 81.789 81.789 0 01-1.271 9.374c-.163.77-.297 1.55-.484 2.314l-.058.245a16.007 16.007 0 00-.566-.239l.624-.157a51.92 51.92 0 00-2.314-2.221l.105-.478a80.378 80.378 0 001.335-9.048 79.96 79.96 0 00.28-9.146c-.03-.764-.041-1.528-.099-2.286l-.07-1.142c-.024-.385-.065-.758-.1-1.143-.116-1.527-.303-3.043-.507-4.553a74.087 74.087 0 00-.781-4.517c-.146-.753-.32-1.493-.484-2.245l-.548-2.233c-.763-2.967-1.626-5.922-2.705-8.82v-.01c-.04-.1.012-.204.111-.245a.19.19 0 01.222.07l.011.006zm-1.404 32.185a3.132 3.132 0 003.124-3.125 3.132 3.132 0 00-3.124-3.125 3.133 3.133 0 00-3.125 3.125 3.132 3.132 0 003.125 3.125z" fill="#666"/><path fill-rule="evenodd" clip-rule="evenodd" d="M153.305 38.236a2.191 2.191 0 002.187-2.186 2.2 2.2 0 00-2.187-2.192 2.2 2.2 0 00-2.191 2.192c0 1.207.985 2.186 2.191 2.186z" fill="#fff"/><path fill-rule="evenodd" clip-rule="evenodd" d="M154.238 28.874a1.965 1.965 0 100-3.931 1.965 1.965 0 000 3.93z" fill="#666"/><path fill-rule="evenodd" clip-rule="evenodd" d="M154.239 28.286c.758 0 1.376-.618 1.376-1.376 0-.759-.618-1.377-1.376-1.377a1.38 1.38 0 00-1.377 1.377 1.38 1.38 0 001.377 1.376z" fill="#fff"/><path fill-rule="evenodd" clip-rule="evenodd" d="M154.717 19.961c.764 0 1.388-.624 1.388-1.388a1.39 1.39 0 00-1.388-1.387c-.764 0-1.388.623-1.388 1.387s.624 1.388 1.388 1.388z" fill="#666"/><path d="M154.716 19.547a.974.974 0 100-1.948.974.974 0 000 1.948z" fill="#fff"/><path fill-rule="evenodd" clip-rule="evenodd" d="M98.065 37.886c-4.536 6.588-12.306 10.307-19.943 13.052h-3.568a49.288 49.288 0 00-2.28 1.97s-4.185-15.914-1.38-28.546C73.703 11.735 76.64 5.06 76.64 5.06c.076.047.146.093.21.157.14.105.245.251.344.397.052.076.082.163.128.239l.193.437.787 1.79c.507 1.206 1.113 2.36 1.673 3.538 2.314 4.676 5.001 9.141 7.904 13.449.718 1.084 1.481 2.134 2.222 3.2.77 1.044 1.527 2.1 2.32 3.125.39.519.793 1.032 1.195 1.545.396.513.804 1.02 1.218 1.521.822 1.015 1.644 2 2.542 3.003.186.21.425.35.682.413l.006.012z" fill="#333"/><path fill-rule="evenodd" clip-rule="evenodd" d="M71.861 49.813c-1.055-5.246-2.74-16.223-.688-25.451 1.545-6.95 3.13-12.097 4.244-15.32.239.483.478.967.705 1.451 2.315 4.675 5.002 9.14 7.905 13.449.717 1.084 1.48 2.134 2.221 3.2 8.313 10.068 3.043 14.854-14.393 22.666l.006.005z" fill="url(#paint6_linear_55_743)"/><path fill-rule="evenodd" clip-rule="evenodd" d="M75.65 6.99c-.898 1.305-1.626 2.699-2.29 4.121a46.244 46.244 0 00-1.761 4.372c-1.032 2.973-1.76 6.046-2.338 9.141a73.985 73.985 0 00-.682 4.675c-.04.39-.087.781-.122 1.172l-.1 1.178c-.075.787-.104 1.573-.151 2.36a73.129 73.129 0 00.146 9.456c.239 3.142.67 6.278 1.27 9.374.164.77.298 1.55.484 2.314l.059.25c.186-.08.448-.191.635-.273-.21-.053-.46-.11-.67-.163a58.023 58.023 0 012.279-2.192l-.105-.478a80.385 80.385 0 01-1.335-9.048 79.778 79.778 0 01-.28-9.146c.03-.764.041-1.528.1-2.285l.07-1.143c.023-.385.064-.758.099-1.143.11-1.527.303-3.043.507-4.552.221-1.51.466-3.02.78-4.518.147-.752.321-1.493.485-2.245l.548-2.232c.763-2.968 1.626-5.923 2.705-8.82v-.012c.04-.1-.012-.204-.111-.245a.19.19 0 00-.222.07v.012zm1.405 32.185a3.132 3.132 0 003.125-3.125 3.132 3.132 0 00-3.125-3.125 3.132 3.132 0 00-3.124 3.125 3.132 3.132 0 003.124 3.125z" fill="#666"/><path fill-rule="evenodd" clip-rule="evenodd" d="M77.055 38.236a2.19 2.19 0 002.186-2.186 2.2 2.2 0 00-2.186-2.192c-1.2 0-2.186.985-2.186 2.192a2.19 2.19 0 002.186 2.186z" fill="#fff"/><path fill-rule="evenodd" clip-rule="evenodd" d="M76.123 28.874a1.965 1.965 0 000-3.93 1.965 1.965 0 000 3.93z" fill="#666"/><path fill-rule="evenodd" clip-rule="evenodd" d="M76.123 28.286c.758 0 1.376-.618 1.376-1.376 0-.759-.618-1.377-1.376-1.377-.758 0-1.376.618-1.376 1.377 0 .758.618 1.376 1.376 1.376z" fill="#fff"/><path fill-rule="evenodd" clip-rule="evenodd" d="M75.645 19.961c.764 0 1.388-.624 1.388-1.388a1.39 1.39 0 00-1.388-1.387c-.764 0-1.388.623-1.388 1.387s.624 1.388 1.388 1.388z" fill="#666"/><path d="M75.645 19.547a.974.974 0 100-1.948.974.974 0 000 1.948z" fill="#fff"/><path fill-rule="evenodd" clip-rule="evenodd" d="M115.18 155.322c4.786 0 8.692-3.906 8.692-8.692s-3.906-8.691-8.692-8.691-8.692 3.905-8.692 8.691c0 4.786 3.906 8.692 8.692 8.692z" fill="#fff"/><path fill-rule="evenodd" clip-rule="evenodd" d="M115.18 153.818c3.959 0 7.188-3.229 7.188-7.188 0-3.958-3.229-7.187-7.188-7.187-3.958 0-7.188 3.229-7.188 7.187 0 3.959 3.23 7.188 7.188 7.188z" fill="#989898"/><path fill-rule="evenodd" clip-rule="evenodd" d="M115.18 151.486c2.67 0 4.851-2.18 4.851-4.85 0-2.67-2.181-4.85-4.851-4.85s-4.85 2.18-4.85 4.85c0 2.67 2.18 4.85 4.85 4.85zm122.339 6.086a4.499 4.499 0 103.416 8.324 4.499 4.499 0 00-3.416-8.324z" fill="#000"/><path fill-rule="evenodd" clip-rule="evenodd" d="M238.026 158.82a3.153 3.153 0 00-1.72 4.11 3.147 3.147 0 004.11 1.719 3.146 3.146 0 001.72-4.109 3.147 3.147 0 00-4.11-1.72z" fill="#fff"/><path fill-rule="evenodd" clip-rule="evenodd" d="M233.841 144.386a3.124 3.124 0 102.365 5.782 3.124 3.124 0 00-2.365-5.782z" fill="#000"/><path fill-rule="evenodd" clip-rule="evenodd" d="M234.19 145.255a2.188 2.188 0 101.662 4.051 2.188 2.188 0 001.195-2.856 2.188 2.188 0 00-2.857-1.195z" fill="#fff"/><path fill-rule="evenodd" clip-rule="evenodd" d="M226.087 133.695a2.497 2.497 0 101.895 4.622 2.497 2.497 0 10-1.895-4.622z" fill="#000"/><path fill-rule="evenodd" clip-rule="evenodd" d="M226.373 134.383a1.753 1.753 0 00-.956 2.285 1.752 1.752 0 10.956-2.285z" fill="#fff"/><path fill-rule="evenodd" clip-rule="evenodd" d="M71.301 211.659c-36.568 1.813-19.488-41.052-19.225-41.705 0 0-1.732-.279-4.157-1.265-4.6-1.871-11.694-6.284-14.265-16.229-3.527-13.624 11.298-22.438 21.342-5.159 0 0 28.67-10.534 33.304 13.274.7 3.591 1.388 7.415 1.907 11.291.431 3.143.757 6.32.909 9.433.758 15.483-2.816 29.515-19.82 30.36h.005z" fill="url(#paint7_linear_55_743)"/><path fill-rule="evenodd" clip-rule="evenodd" d="M42.305 139.95c-.862 0-1.667.169-2.378.46-3.183 1.306-5.614 5.672-4.11 11.49 3.498 13.536 16.084 15.758 16.62 15.845a2.23 2.23 0 011.58 1.108c.332.588.379 1.3.128 1.923-.087.216-8.529 21.476-.822 32.313 3.3 4.635 9.304 6.769 17.868 6.343 5.887-.291 10.166-2.244 13.087-5.975 7.176-9.164 4.757-27.504 1.848-42.463-1.055-5.421-3.568-9.286-7.462-11.484-9.018-5.095-22.753-.169-22.892-.122a2.228 2.228 0 01-2.688-.974c-3.638-6.261-7.625-8.464-10.773-8.464h-.006zm26.793 73.982c-8.978 0-15.5-2.774-19.407-8.272-7.502-10.557-2.705-27.836-.548-34.167-4.698-1.469-14.399-5.952-17.634-18.485-1.889-7.31.938-14.341 6.727-16.719 4.792-1.971 11.852-.717 17.751 8.348 4.384-1.3 16.049-3.982 24.857.979 5.09 2.868 8.342 7.753 9.66 14.521 3.282 16.871 5.526 35.537-2.71 46.06-3.709 4.739-9.217 7.321-16.37 7.677a44.54 44.54 0 01-2.315.058h-.011z" fill="#000"/><path fill-rule="evenodd" clip-rule="evenodd" d="M52.583 167.774c.513.158 1.195.321 1.813.455.635.134 1.282.268 1.935.373 1.3.221 2.618.39 3.947.519 1.329.111 2.664.21 4.005.233 1.34.041 2.687.012 4.034-.029h.023c.618-.024 1.13.46 1.148 1.078a1.116 1.116 0 01-.927 1.137 70.287 70.287 0 01-4.156.6c-1.393.17-2.798.257-4.209.327-1.41.058-2.827.064-4.25.017a53.718 53.718 0 01-2.145-.116 31.097 31.097 0 01-2.227-.251 2.232 2.232 0 01-1.854-2.553 2.235 2.235 0 012.56-1.854c.099.017.21.047.309.07l-.006-.006z" fill="#000"/><path fill-rule="evenodd" clip-rule="evenodd" d="M72.864 147.54c6.29 22.257 3.44 40.585-.082 61.764 2.029-.222 3.848-.659 5.474-1.324 3.236-19.604 5.666-37 .7-57.648-2.03-.816-3.76-1.702-5.23-2.635a23.738 23.738 0 00-.862-.163v.006z" fill="#fff"/><path fill-rule="evenodd" clip-rule="evenodd" d="M67.88 147.207c6.4 22.52 3.579 40.976.04 62.26.682.023 1.382.023 2.099.006 3.521-21.214 6.302-39.688.023-62.236a30.143 30.143 0 00-2.163-.03z" fill="#fff"/><path d="M77.463 198.706a4.5 4.5 0 100-9.001 4.5 4.5 0 000 9.001z" fill="#000"/><path fill-rule="evenodd" clip-rule="evenodd" d="M77.463 197.359a3.16 3.16 0 003.154-3.154 3.16 3.16 0 00-3.154-3.154 3.16 3.16 0 00-3.154 3.154 3.16 3.16 0 003.154 3.154z" fill="#fff"/><path fill-rule="evenodd" clip-rule="evenodd" d="M79.06 182.36a3.132 3.132 0 003.125-3.125 3.132 3.132 0 00-3.124-3.125 3.132 3.132 0 00-3.125 3.125 3.132 3.132 0 003.125 3.125z" fill="#000"/><path fill-rule="evenodd" clip-rule="evenodd" d="M79.06 181.427a2.19 2.19 0 002.187-2.186 2.2 2.2 0 00-2.186-2.192 2.196 2.196 0 00-2.187 2.192 2.19 2.19 0 002.187 2.186z" fill="#fff"/><path fill-rule="evenodd" clip-rule="evenodd" d="M44.03 157.864a3.132 3.132 0 003.126-3.125 3.132 3.132 0 00-3.125-3.124 3.132 3.132 0 00-3.125 3.124 3.132 3.132 0 003.125 3.125z" fill="#000"/><path fill-rule="evenodd" clip-rule="evenodd" d="M44.03 156.931a2.19 2.19 0 002.187-2.186 2.194 2.194 0 00-2.186-2.186c-1.201 0-2.186.985-2.186 2.186s.985 2.186 2.186 2.186z" fill="#fff"/><path fill-rule="evenodd" clip-rule="evenodd" d="M53.58 163.717a3.132 3.132 0 003.124-3.125 3.132 3.132 0 00-3.124-3.125 3.132 3.132 0 00-3.125 3.125 3.132 3.132 0 003.125 3.125z" fill="#000"/><path fill-rule="evenodd" clip-rule="evenodd" d="M53.58 162.778a2.19 2.19 0 002.186-2.186 2.194 2.194 0 00-2.186-2.186 2.2 2.2 0 00-2.192 2.186c0 1.201.985 2.186 2.192 2.186z" fill="#fff"/><path fill-rule="evenodd" clip-rule="evenodd" d="M183.561 297.493h5.998c1.627 0 2.851.373 3.685 1.125.833.752 1.247 1.743 1.247 2.985 0 2.67-1.883 4.057-5.654 4.162l-18.976.006c-3.765-.111-5.648-1.498-5.648-4.168 0-1.236.419-2.233 1.247-2.985.828-.752 2.058-1.125 3.684-1.125h6.139v-24.35c-5.153 3.958-8.622 5.934-10.406 5.934-.857 0-1.609-.338-2.268-1.02-.658-.682-.985-1.469-.985-2.361 0-1.037.327-1.795.974-2.285.653-.49 1.795-1.119 3.439-1.889 2.454-1.154 4.419-2.372 5.888-3.655a25.045 25.045 0 003.912-4.29c1.136-1.586 1.877-2.559 2.221-2.921.344-.367.997-.548 1.947-.548 1.072 0 1.941.414 2.588 1.248.647.833.974 1.976.974 3.439v32.692l-.006.006z" fill="url(#paint8_linear_55_743)"/><defs><linearGradient id="paint0_linear_55_743" x1="21.663" y1="224.402" x2="329.525" y2="328.227" gradientUnits="userSpaceOnUse"><stop stop-color="#9A68FE"/><stop offset="1" stop-color="#FF23CF"/></linearGradient><linearGradient id="paint1_linear_55_743" x1="23.187" y1="227.077" x2="325.708" y2="331.681" gradientUnits="userSpaceOnUse"><stop stop-color="#9A68FE"/><stop offset="1" stop-color="#FF23CF"/></linearGradient><linearGradient id="paint2_linear_55_743" x1="198.846" y1="163.472" x2="287.676" y2="163.472" gradientUnits="userSpaceOnUse"><stop stop-color="#555454"/><stop offset="1" stop-color="#fff"/></linearGradient><linearGradient id="paint3_linear_55_743" x1="140.276" y1="91.069" x2="149.895" y2="64.836" gradientUnits="userSpaceOnUse"><stop stop-color="#7D5CA3"/><stop offset="1" stop-color="#C33C8E"/></linearGradient><linearGradient id="paint4_linear_55_743" x1="80.489" y1="91.069" x2="90.108" y2="64.836" gradientUnits="userSpaceOnUse"><stop stop-color="#7D5CA3"/><stop offset="1" stop-color="#C33C8E"/></linearGradient><linearGradient id="paint5_linear_55_743" x1="140.533" y1="29.427" x2="160.441" y2="29.427" gradientUnits="userSpaceOnUse"><stop stop-color="#2A2C2A"/><stop offset="1" stop-color="#BFBEBE"/></linearGradient><linearGradient id="paint6_linear_55_743" x1="90.113" y1="29.427" x2="70.211" y2="29.427" gradientUnits="userSpaceOnUse"><stop stop-color="#2A2C2A"/><stop offset="1" stop-color="#BFBEBE"/></linearGradient><linearGradient id="paint7_linear_55_743" x1="55.952" y1="206.278" x2="65.985" y2="145.243" gradientUnits="userSpaceOnUse"><stop stop-color="#262727"/><stop offset="1" stop-color="#fff"/></linearGradient><linearGradient id="paint8_linear_55_743" x1="163.111" y1="260.108" x2="195.633" y2="262.946" gradientUnits="userSpaceOnUse"><stop stop-color="#9A68FE"/><stop offset="1" stop-color="#FF23CF"/></linearGradient><filter id="filter0_f_55_743" x=".11" y="218.402" width="355.89" height="135.598" filterUnits="userSpaceOnUse" color-interpolation-filters="sRGB"><feFlood flood-opacity="0" result="BackgroundImageFix"/><feBlend in="SourceGraphic" in2="BackgroundImageFix" result="shape"/><feGaussianBlur stdDeviation="3" result="effect1_foregroundBlur_55_743"/></filter></defs></svg>