<svg width="622" height="453" fill="none" xmlns="http://www.w3.org/2000/svg"><g filter="url(#filter0_f_55_744)"><ellipse cx="311" cy="337" rx="39" ry="234" transform="rotate(90 311 337)" fill="url(#paint0_linear_55_744)"/></g><g opacity=".72"><path fill-rule="evenodd" clip-rule="evenodd" d="M242.128 214.501a54.422 54.422 0 01-11.98-10.441c-3.488-4.093-6.253-8.767-8.217-13.889a51.98 51.98 0 01-2.294-7.707 58.447 58.447 0 01-1.108-7.903c-.353-5.02-.094-10.299.786-15.688a74.207 74.207 0 011.563-7.243c-.023-.086-.039-.173-.055-.259-1.516-2.271-2.286-5.366-2.286-9.2 0-3.22 1.344-6.096 3.81-8.225-.173-4.32-.196-8.61-.07-12.852a63.212 63.212 0 016.921-8.209 63.806 63.806 0 00-6.914 8.201c.173-6.009.645-11.925 1.407-17.683 1.987-14.848 5.947-28.698 11.76-41.165 3.221-6.89 6.897-13.182 10.92-18.69a81.479 81.479 0 011.634-2.183l.793-1.006.244-.275c.243-.267.55-.605.966-.934l.463-.378.535-.337c.738-.464 1.563-.81 2.529-1.053l.071-.016.071-.016a9.707 9.707 0 011.885-.204c.251 0 .503.016.746.04.802.062 1.634.259 2.538.604l.078.024.071.04c.903.4 1.634.863 2.239 1.39.652.534 1.218 1.202 1.744 2.027.212.33.361.644.487.895l.11.236 1.343 3.04a55.554 55.554 0 001.422 3.04c.244.495.479.99.715 1.485 2.773 5.593 6.112 11.281 10.205 17.346.652.99 1.304 1.917 1.995 2.899.299.424.597.84.896 1.264l.581.794a121.033 121.033 0 002.428 3.252c.565.754 1.131 1.47 1.555 2.003a145.336 145.336 0 002.907 3.59c2.671-.746 5.585-1.343 8.995-1.838 3.873-.565 7.942-.856 12.074-.872 4.156.016 8.218.307 12.098.872 3.418.495 6.324 1.084 8.995 1.839.425-.511.864-1.037 1.32-1.603.589-.715 1.1-1.36 1.571-1.964.44-.558 1.006-1.273 1.548-1.995.84-1.085 1.642-2.192 2.427-3.26l.597-.818c.299-.424.59-.848.888-1.264.699-.982 1.351-1.91 1.988-2.868 4.108-6.088 7.455-11.776 10.236-17.416.22-.456.463-.95.707-1.446.511-1.045.998-2.026 1.414-3.032l1.335-3.048.11-.236c.118-.251.275-.566.495-.903a8.663 8.663 0 011.736-2.02c.605-.533 1.344-.99 2.239-1.398l.071-.031.071-.024c.911-.345 1.744-.542 2.537-.605a7.98 7.98 0 01.747-.039c.589 0 1.202.07 1.885.204l.071.016.07.016c.975.244 1.799.59 2.53 1.045l.534.345.472.385c.408.322.707.652.95.92l.251.282.778.998a79.577 79.577 0 011.658 2.2c4.006 5.499 7.683 11.783 10.904 18.68 5.813 12.468 9.772 26.318 11.76 41.166a172.706 172.706 0 011.406 17.683 63.124 63.124 0 00.008.008 184.7 184.7 0 01-.071 12.86c2.467 2.129 3.81 5.004 3.81 8.225 0 3.834-.769 6.921-2.293 9.192-.016.086-.04.173-.055.259a77.686 77.686 0 011.563 7.251c.88 5.397 1.147 10.676.785 15.68a57.993 57.993 0 01-1.107 7.895 52.2 52.2 0 01-2.294 7.723c-1.972 5.122-4.737 9.796-8.217 13.881a54.448 54.448 0 01-12.012 10.456c1.571 8.343-.574 32.154-65.125 32.154-68.441 0-69.101-22.593-67.946-32.177l-.008.008z" fill="#9968FD"/><path fill-rule="evenodd" clip-rule="evenodd" d="M364.075 228.319c-1.869-6.261-2.671-8.634-3.362-10.763H256.638c-.699 2.145-1.555 4.698-3.448 11.038a125.673 125.673 0 01-3.339-1.964c2.498-8.327 3.621-11.493 3.637-11.548a1.882 1.882 0 011.783-1.288h106.793c.809 0 1.532.518 1.783 1.288.016.055 1.061 2.993 3.52 11.155a151.255 151.255 0 01-3.3 2.09l.008-.008z" fill="#433B72"/><path fill-rule="evenodd" clip-rule="evenodd" d="M364.169 228.649c-1.877-6.285-2.773-8.971-3.464-11.093H256.646c-.691 2.145-1.461 4.376-3.362 10.739-1.108-.62-2.216-1.28-3.339-1.964 2.49-8.303 3.504-11.108 3.551-11.249a1.874 1.874 0 011.783-1.288h106.793c.809 0 1.532.518 1.783 1.288.047.141 1.163 3.339 3.614 11.485a151.255 151.255 0 01-3.3 2.09v-.008z" fill="#000"/><path fill-rule="evenodd" clip-rule="evenodd" d="M308.676 211.075h60.529s12.947 29.397-60.529 29.397-60.53-29.397-60.53-29.397h60.53z" fill="#9968FD"/><path fill-rule="evenodd" clip-rule="evenodd" d="M308.676 211.075h60.529s.126.291.283.81c-2.522 8.633-14.494 20.315-60.812 20.315-46.319 0-58.283-11.682-60.813-20.315.157-.519.283-.81.283-.81h60.53z" fill="#000"/><path fill-rule="evenodd" clip-rule="evenodd" d="M249.513 212.961c-.487 1.917-.982 6.033 1.893 10.385 4.596 6.953 18.257 15.249 57.27 15.249 39.012 0 52.673-8.296 57.269-15.249 2.875-4.352 2.38-8.461 1.893-10.385H249.513zm112.724 19.129c-3.779 2.152-7.581 3.944-11.815 5.405-10.213 3.205-23.961 4.831-41.173 4.87-4.101-.008-7.919-.078-11.509-.235-5.138-.228-9.906-.629-14.298-1.194-10.581-1.43-19.184-4.062-27.801-8.508-3.198-2.051-5.672-4.415-7.424-7.094-4.949-7.589-1.917-14.714-1.784-15.013a1.878 1.878 0 011.721-1.123h121.051c.746 0 1.422.44 1.721 1.123.133.299 3.173 7.416-1.784 15.013-1.649 2.529-3.959 4.784-6.905 6.756z" fill="#000"/><path fill-rule="evenodd" clip-rule="evenodd" d="M331.301 224.163a228.422 228.422 0 01-22.594 1.116h-.031c-7.55 0-15.099-.369-22.625-1.116-7.338-.88-13.85-2.176-19.64-3.794-63.067-17.676-38.69-74.874-38.69-74.874-5.704-57.042 14.926-90.155 24.565-102.229 1.988-2.482 5.884-1.901 7.11 1.03 9.757 23.441 26.678 42.06 26.678 42.06 2.616-.92 5.546-1.611 8.414-2.122a80.408 80.408 0 0128.367 0c2.86.511 5.798 1.195 8.414 2.122 0 0 16.914-18.619 26.679-42.06 1.225-2.931 5.122-3.512 7.109-1.03 9.639 12.075 30.277 45.187 24.566 102.229 0 0 29.051 68.157-58.322 78.66v.008z" fill="#FBA329"/><path fill-rule="evenodd" clip-rule="evenodd" d="M260.55 216.842a83.705 83.705 0 01-2.348-.912l-1.658-.683c-.55-.236-1.092-.495-1.634-.739-1.092-.479-2.153-1.037-3.213-1.571-2.098-1.123-4.164-2.301-6.104-3.653-3.92-2.647-7.471-5.797-10.448-9.411a42.993 42.993 0 01-6.961-12.075c-1.642-4.375-2.576-9.01-2.914-13.7-.315-4.698-.071-9.451.66-14.141a69.89 69.89 0 011.241-6.237c.377 4.446 1.642 10.464 4.438 16.308-.015.519-.031 1.037-.031 1.548 0 23.01 19.05 38.682 28.965 45.281l.007-.015zm-27.055-85.079c-.032-.095-.063-.189-.102-.275-1.226-3.237 2.977-7.66 6.52-7.66.299 0 .597.031.88.102 0 0 .817-9.851 8.586-9.851.362 0 .731.023 1.124.063l1.689-.762s2.828 2.278 1.917 4.265c-1.289 2.821-8.037-.007-8.783 8.736a3.394 3.394 0 01-.464 1.446c-5.09 1.296-8.971 2.844-11.367 3.936z" fill="#BE6F00"/><path fill-rule="evenodd" clip-rule="evenodd" d="M356.785 216.849c10.118-6.732 29.782-22.939 28.957-46.758v-.078c.015.518.031 1.037.031 1.547 0 23.018-19.074 38.698-28.98 45.297l-.008-.008zm-96.235-.015c-9.914-6.599-28.956-22.279-28.964-45.282 0-.51.008-1.029.031-1.547v.078c-.825 23.804 18.815 40.003 28.941 46.743l-.008.008z" fill="#4A4A8E"/><path fill-rule="evenodd" clip-rule="evenodd" d="M308.707 225.279h-.063c-7.471 0-14.942-.369-22.389-1.092a.237.237 0 00-.173-.244c-4.776-1.139-9.513-2.191-14.172-3.496-3.841-1.06-7.652-2.223-11.352-3.605-10.126-6.741-29.766-22.94-28.941-46.743.236.66.495 1.32.77 1.988 5.004 3.252 32.194 20.378 40.065 14.321 8.155-6.277 9.6-28.061 16.411-39.845 3.48-6.018 11.03-10.441 17.959-10.668 9.23-.299 17.204 4.093 21.462 12.153 6.473 12.255 8.516 32.759 16.521 38.352 12.239 8.555 32.099-6.277 40.937-16.309v-.078c0 20.7-12.444 35.846-28.949 46.836-3.7 1.383-7.503 2.522-11.336 3.591-1.171.298-2.333.644-3.512.934-1.178.283-2.349.613-3.535.888-1.186.259-2.365.582-3.559.849-1.186.275-2.38.55-3.574.864a.194.194 0 00-.141.188v.016a229.84 229.84 0 01-22.421 1.1h-.008zm-75.542-51.433l.039.087-.023-.047-.024-.04h.008zm.66 1.336l.023.039.024.047-.047-.086zm.283.534l.015.032.032.055-.047-.087z" fill="#fff"/><path fill-rule="evenodd" clip-rule="evenodd" d="M288.722 191.852c-1.375-.825-3.166-2.168-4.47-4.093a26.887 26.887 0 002.474-1.854c.432.377.896.707 1.399 1.006 0 1.288.117 3.048.597 4.941zm39.978-.047c.472-1.886.589-3.614.582-4.894.487-.291.942-.613 1.366-.974.77.644 1.579 1.256 2.444 1.83-1.281 1.893-3.033 3.221-4.392 4.046v-.008zm-6.261-7.008h-.071c-9.961 0-11.736-10.055-11.807-10.479a1.847 1.847 0 00-.306-.77l2.458-.904s3.088 8.893 9.742 8.893c1.351 0 2.419-.393 3.268-1.013a29.473 29.473 0 002.207 2.773c-1.312.982-3.15 1.493-5.483 1.5h-.008zm-27.401 0h-.071c-2.357-.007-4.211-.526-5.523-1.531a28.562 28.562 0 002.176-2.75c.841.621 1.917 1.013 3.261 1.013 6.654 0 9.741-8.892 9.741-8.892l2.514.919c-.149.22-.252.471-.299.746-.07.432-1.846 10.488-11.807 10.488l.008.007z" fill="#fff"/><path fill-rule="evenodd" clip-rule="evenodd" d="M356.785 216.849c9.906-6.598 28.972-22.271 28.98-45.297 0-.51-.008-1.029-.031-1.547 2.804-5.853 4.069-11.863 4.438-16.309.503 2.058.912 4.14 1.242 6.238.73 4.69.974 9.442.66 14.14-.338 4.69-1.273 9.325-2.915 13.701a42.995 42.995 0 01-6.96 12.074c-2.978 3.614-6.521 6.764-10.449 9.412-1.94 1.359-4.006 2.529-6.104 3.661-1.068.534-2.121 1.091-3.213 1.571-.542.243-1.084.502-1.634.738l-1.657.691c-.786.323-1.571.629-2.365.92l.008.007zm27.079-85.087c-2.396-1.092-6.277-2.639-11.367-3.935a3.472 3.472 0 01-.472-1.462c-.785-8.814-7.824-6.449-8.775-8.727-.84-2.012 1.917-4.266 1.917-4.266l1.681.762a9.352 9.352 0 011.124-.063c7.777 0 8.586 9.851 8.586 9.851.283-.07.582-.102.88-.102 3.543 0 7.746 4.415 6.52 7.66-.031.094-.07.188-.102.275l.008.007z" fill="#BE6F00"/><path fill-rule="evenodd" clip-rule="evenodd" d="M254.101 41.97s-.024 0-.04.008c.016 0 .024 0 .04-.008z" fill="#A2A2D2"/><path fill-rule="evenodd" clip-rule="evenodd" d="M357.948 44.31c-9.765 23.443-26.679 42.053-26.679 42.053-2.616-.919-5.546-1.61-8.414-2.12a80.359 80.359 0 00-28.359 0c-2.868.51-5.798 1.201-8.414 2.12 0 0-16.921-18.618-26.678-42.052-.912-2.192-3.316-3.064-5.303-2.334.125-.039.251.048.377.354 9.073 21.792 24.432 43.31 28.532 48.07a2.448 2.448 0 002.593.739c2.443-.755 5.067-1.352 7.644-1.807a97.069 97.069 0 013.323-.527c1.304 2.059 6.229 3.598 12.098 3.598 5.868 0 10.794-1.531 12.106-3.598 1.107.158 2.223.323 3.323.527 2.576.463 5.208 1.052 7.643 1.807.935.29 1.949 0 2.593-.739 4.101-4.76 18.862-24.809 27.943-46.6.55-1.32 1.603-.103 2.789-.496-1.98-2.506-5.892-1.932-7.125 1.006h.008z" fill="#BE6F00"/><path fill-rule="evenodd" clip-rule="evenodd" d="M252.278 43.297c.888.291 1.367-1.115 1.784-1.311a4.207 4.207 0 00-1.784 1.311z" fill="#A2A2D2"/><path fill-rule="evenodd" clip-rule="evenodd" d="M308.707 175.897s-.016.07-.031.11a.592.592 0 01-.032-.11h.063z" fill="#FF6C8B"/><path fill-rule="evenodd" clip-rule="evenodd" d="M322.376 188.553c-7.204 0-11.454-4.156-13.661-8.296-2.215 4.14-6.466 8.296-13.662 8.296h-.086c-3.826-.016-6.803-1.116-8.861-3.261-2.844-2.961-2.742-6.826-2.734-6.991a1.886 1.886 0 011.948-1.815 1.89 1.89 0 011.815 1.948c0 .008-.032 2.483 1.712 4.282 1.328 1.359 3.386 2.058 6.136 2.066h.07c9.962 0 11.737-10.056 11.808-10.488a1.881 1.881 0 011.854-1.579c.927 0 1.705.668 1.854 1.579.071.424 1.846 10.48 11.807 10.48h.071c2.742-.016 4.808-.707 6.135-2.066 1.752-1.791 1.721-4.266 1.721-4.289-.024-1.03.793-1.902 1.822-1.925a1.88 1.88 0 011.933 1.807c0 .165.11 4.022-2.734 6.991-2.058 2.145-5.036 3.237-8.861 3.261h-.087z" fill="#000"/><path fill-rule="evenodd" clip-rule="evenodd" d="M313.617 160.703a13.833 13.833 0 00-9.883 0c-2.474.951-4.941 2.703-4.941 5.916 0 6.426 5.295 10.786 9.883 10.786 4.587 0 9.882-4.36 9.882-10.786 0-3.213-2.474-4.965-4.941-5.916z" fill="#000"/><path fill-rule="evenodd" clip-rule="evenodd" d="M314.457 164.199c0 .692-2.584 1.257-5.781 1.257-3.198 0-5.782-.557-5.782-1.257 0-.699 2.584-1.257 5.782-1.257 3.197 0 5.781.566 5.781 1.257z" fill="#fff"/><path fill-rule="evenodd" clip-rule="evenodd" d="M233.723 134.237a12.873 12.873 0 01-.275-1.885c.086.628.18 1.257.275 1.885z" fill="#FF7C88"/><path fill-rule="evenodd" clip-rule="evenodd" d="M250.495 114.103l.008.039c-.181-.032-.354-.055-.527-.079-1.029-.141-1.948-.133-2.757-.008-.401.055-.778.15-1.131.26a3.313 3.313 0 00-.267.086 7.602 7.602 0 00-.495.204c-.134.063-.267.134-.393.197-.322.18-.621.385-.896.605a5.246 5.246 0 00-.534.487c-.173.172-.33.345-.471.534a4.048 4.048 0 00-.275.361 7.184 7.184 0 00-.267.409c-.244.4-.448.809-.629 1.225a3.958 3.958 0 00-.165.424 13.792 13.792 0 00-.518 1.815v.032l-.071.353v.032c-.055.306-.094.589-.126.864l-.023.227-.024.275c-.063.802-.047 1.32-.047 1.32-3.472 0-5.381 1.328-6.394 3.033-1.061 1.791-1.147 3.998-1.03 5.546a70.8 70.8 0 01-.212-1.705c-.33-2.749-.55-5.46-.675-8.123-1.768-39.546 18.437-69.477 22.405-74.953.07-.086.125-.173.172-.243.205-.275.354-.472.425-.566.023-.031.031-.047.047-.055l.016-.016c-5.382 9.624-7.597 20.89-8.202 31.416-1.1 18.705 2.86 35.116 3.079 36.011l-.023-.007z" fill="#fff"/><path fill-rule="evenodd" clip-rule="evenodd" d="M250.495 114.103l.008.039c-.181-.032-.354-.055-.527-.079-1.029-.133-1.948-.133-2.757-.008a7.943 7.943 0 00-1.398.346c-.173.063-.33.134-.495.204-.134.063-.267.134-.393.197-.322.18-.621.385-.896.605a4.515 4.515 0 00-.534.487c-.173.172-.33.345-.471.534a4.048 4.048 0 00-.275.361 8.594 8.594 0 00-.896 1.634 3.958 3.958 0 00-.165.424c-.235.613-.4 1.234-.518 1.815v.032l-.071.353v.032c-.055.306-.094.589-.126.864l-.023.227-.024.275c-.063.802-.047 1.32-.047 1.32-3.362.346-5.31 1.556-6.394 3.033-.88 1.202-1.195 2.592-1.25 3.841-.33-2.749-.549-5.46-.675-8.123.872-1.053 1.987-1.736 2.867-2.16a2.563 2.563 0 001.446-2.239c.165-5.821 3.283-8.461 5.255-9.545.919-.511 1.446-1.532 1.289-2.569-4.895-32.845 8.374-53.946 11.54-58.44.071-.086.126-.173.173-.243.204-.275.353-.472.424-.566.024-.031.031-.047.047-.055l.016-.016c-4.989 11.006-7.33 21.8-8.202 31.416-1.838 20.19 2.821 35.194 3.08 36.011l-.008-.007z" fill="#fff"/><path fill-rule="evenodd" clip-rule="evenodd" d="M255.853 46.793c-1.454 3.905-2.616 7.888-3.645 11.886l-.739 3.009c-.212 1.013-.448 2.011-.652 3.025-.424 2.019-.754 4.053-1.053 6.088-.282 2.042-.534 4.085-.683 6.135-.039.51-.094 1.022-.134 1.54l-.094 1.54c-.079 1.021-.094 2.05-.133 3.08a110.94 110.94 0 00.377 12.325c.361 4.1.974 8.17 1.799 12.192.22 1.006.408 2.019.659 3.009l.747 2.993v.048c0-.048.055.157.063.259.015.125.023.251.015.385a2.033 2.033 0 01-.652 1.359c-.377.353-.935.55-1.461.518-.102 0-.314-.039-.267-.031h-.016l-.039-.008-.314-.047c-.212-.032-.432-.047-.652-.063-.44-.031-.872-.024-1.304 0-.849.071-1.65.251-2.302.597-.668.33-1.171.801-1.587 1.391-.401.597-.683 1.359-.841 2.191-.157.841-.204 1.76-.165 2.695l.016.353v.134c0 .055.008.196 0 .298a2.176 2.176 0 01-1.547 1.972c-.197.071-.542.095-.48.087h-.078l-.314.039a8.545 8.545 0 00-1.265.259 7.55 7.55 0 00-2.216 1.014c-.636.44-1.17.966-1.571 1.657-.408.684-.668 1.524-.825 2.443-.157.927-.18 1.917-.188 2.962v.016c0 .345-.283.62-.629.62a.624.624 0 01-.557-.345 10.397 10.397 0 01-.99-3.245c-.063-.589-.11-1.186-.047-1.807.015-.306.07-.62.125-.934.079-.307.15-.629.26-.935.4-1.249 1.225-2.388 2.231-3.237 1.013-.856 2.191-1.398 3.37-1.752a11.794 11.794 0 012.262-.448l.118-.015c.126-.016-.157.008-.283.055a1.544 1.544 0 00-.793.55 1.591 1.591 0 00-.314.84v.197-.055l-.008-.11-.024-.432c-.063-1.147-.031-2.334.181-3.551.22-1.21.628-2.475 1.383-3.622a7.608 7.608 0 013.079-2.694c1.218-.605 2.498-.865 3.732-.951.62-.039 1.225-.039 1.83.008.299.023.605.055.911.094.15.024.307.047.464.079h.055l.031.015c.063.016-.133-.023-.22-.023a1.8 1.8 0 00-1.28.448 1.762 1.762 0 00-.574 1.186c0 .118 0 .22.008.33 0 .086.055.275.039.212v-.047l-.746-3.103c-.251-1.029-.432-2.082-.652-3.119-.809-4.172-1.39-8.39-1.713-12.632-.33-4.235-.4-8.492-.196-12.742.055-1.061.102-2.122.196-3.182l.134-1.587c.047-.526.11-1.053.165-1.58.228-2.112.558-4.21.919-6.3.778-4.171 1.768-8.303 3.15-12.317a61.706 61.706 0 012.373-5.9c.895-1.917 1.877-3.795 3.087-5.554a.246.246 0 01.354-.063c.102.07.133.196.094.298v.016l.016-.016z" fill="#984200"/><path fill-rule="evenodd" clip-rule="evenodd" d="M383.629 134.237c.031-.133.196-.864.275-1.885-.087.628-.181 1.257-.275 1.885z" fill="#FF7C88"/><path fill-rule="evenodd" clip-rule="evenodd" d="M366.856 114.103l-.008.039c.181-.032.354-.055.527-.079 1.029-.141 1.948-.133 2.757-.008.401.055.778.15 1.131.26.087.023.181.055.267.086.173.063.338.134.495.204.134.063.267.134.393.197a6.564 6.564 0 011.438 1.092c.173.172.322.345.471.534.102.118.189.236.275.361.094.134.181.267.267.409.244.4.448.809.629 1.225.062.142.117.275.165.424.227.621.392 1.234.518 1.815v.032c.024.117.047.235.063.353v.032c.055.306.094.589.126.864 0 .078.015.149.023.227.008.095.008.189.024.275.07.802.047 1.32.047 1.32 3.472 0 5.381 1.328 6.395 3.033 1.06 1.791 1.147 3.998 1.029 5.546.078-.574.157-1.139.212-1.705.33-2.749.55-5.46.675-8.123 1.768-39.546-18.437-69.477-22.405-74.953-.062-.086-.125-.173-.172-.243-.205-.275-.354-.472-.425-.566a.402.402 0 00-.047-.055l-.015-.016c5.381 9.624 7.596 20.89 8.201 31.416 1.1 18.705-2.859 35.116-3.079 36.011l.023-.007z" fill="#fff"/><path fill-rule="evenodd" clip-rule="evenodd" d="M366.856 114.103l-.008.039c.181-.032.354-.055.527-.079 1.029-.133 1.948-.133 2.757-.008a7.943 7.943 0 011.398.346c.173.063.33.134.495.204.134.063.26.134.393.197.322.18.621.385.896.605.196.149.377.314.542.487.173.172.322.345.471.534.102.118.189.236.275.361a8.594 8.594 0 01.896 1.634c.062.142.117.275.165.424.235.613.4 1.234.518 1.815v.032c.024.117.047.235.063.353v.032c.063.306.102.589.126.864 0 .078.015.149.023.227l.024.275c.07.802.047 1.32.047 1.32 3.37.346 5.31 1.556 6.395 3.033.879 1.202 1.186 2.592 1.241 3.841.33-2.749.55-5.46.675-8.123-.879-1.053-1.987-1.736-2.875-2.16a2.56 2.56 0 01-1.445-2.239c-.165-5.821-3.284-8.461-5.256-9.545-.919-.511-1.445-1.532-1.288-2.569 4.894-32.845-8.375-53.946-11.548-58.44a7.875 7.875 0 01-.173-.243c-.204-.275-.354-.472-.424-.566a.461.461 0 00-.048-.055l-.015-.016c4.988 11.006 7.329 21.8 8.201 31.416 1.839 20.19-2.82 35.194-3.079 36.011l.031-.007z" fill="#E5E5E5"/><path fill-rule="evenodd" clip-rule="evenodd" d="M331.277 223.975a118.89 118.89 0 013.574-.864c1.187-.267 2.365-.59 3.559-.849 1.186-.275 2.357-.605 3.535-.888 1.179-.282 2.341-.636 3.512-.934 4.658-1.289 9.262-2.703 13.7-4.51l1.658-.691c.55-.236 1.084-.495 1.634-.738 1.092-.48 2.145-1.037 3.213-1.572 2.098-1.123 4.164-2.301 6.104-3.66 3.928-2.648 7.471-5.798 10.448-9.412a42.974 42.974 0 006.961-12.074c1.634-4.376 2.576-9.011 2.914-13.701.315-4.698.071-9.451-.66-14.141a72.456 72.456 0 00-2.93-12.098 40.706 40.706 0 00-.589-1.61l-.016-.039a1.832 1.832 0 01-.125-.888c1.374-13.661 1.335-27.472-.472-41.055-1.815-13.567-5.436-26.914-11.21-39.295-2.891-6.175-6.277-12.13-10.283-17.613-.495-.691-1.014-1.359-1.525-2.035l-.392-.502-.197-.252-.094-.117-.063-.063c-.086-.087-.157-.189-.259-.252l-.134-.118c-.055-.031-.102-.054-.149-.086a2.12 2.12 0 00-1.351-.306c-.244 0-.471.086-.699.165-.212.11-.432.212-.597.377-.189.141-.33.337-.464.534-.071.102-.11.22-.173.322l-.259.59-1.06 2.419c-.684 1.626-1.501 3.181-2.255 4.768-3.119 6.3-6.74 12.318-10.653 18.124-.966 1.461-1.995 2.875-2.993 4.313-1.037 1.406-2.058 2.828-3.126 4.218-.527.7-1.069 1.39-1.611 2.082a80.577 80.577 0 01-1.642 2.05 105.538 105.538 0 01-3.425 4.046 1.855 1.855 0 01-1.987.519h-.024c-3.425-1.194-7.117-1.948-10.81-2.483a78.054 78.054 0 00-11.163-.801 79.213 79.213 0 00-11.163.801c-3.692.534-7.377 1.28-10.81 2.467h-.023a1.831 1.831 0 01-1.988-.51 114.3 114.3 0 01-3.425-4.046 97.166 97.166 0 01-1.642-2.05c-.542-.692-1.084-1.376-1.61-2.075-1.069-1.39-2.098-2.804-3.135-4.218-1.005-1.438-2.035-2.852-2.993-4.313-3.912-5.806-7.534-11.823-10.652-18.124-.755-1.587-1.572-3.142-2.255-4.768l-1.061-2.42-.259-.589c-.063-.102-.102-.228-.173-.322-.133-.197-.275-.393-.463-.534-.173-.165-.385-.267-.597-.377-.228-.071-.456-.157-.699-.165a2.173 2.173 0 00-1.352.306 1.43 1.43 0 01-.149.086l-.133.118c-.103.063-.173.165-.26.252l-.063.063-.094.117-.196.252-.393.503a64.702 64.702 0 00-1.524 2.034c-4.007 5.484-7.392 11.438-10.283 17.613-5.774 12.373-9.396 25.728-11.211 39.287-1.807 13.583-1.846 27.386-.471 41.055.023.322-.024.621-.134.904v.023a29.567 29.567 0 00-.605 1.611c-.188.557-.377 1.115-.549 1.689a73.631 73.631 0 00-.959 3.425 73.433 73.433 0 00-1.422 6.976c-.73 4.69-.974 9.443-.66 14.14.338 4.69 1.273 9.325 2.915 13.701a42.97 42.97 0 006.96 12.074c2.978 3.614 6.528 6.764 10.448 9.412 1.941 1.351 4.015 2.529 6.104 3.653 1.069.534 2.122 1.092 3.214 1.571.542.244 1.084.503 1.634.738l1.657.684c4.439 1.799 9.042 3.237 13.701 4.517 4.658 1.304 9.403 2.357 14.172 3.496.118.031.196.149.165.267a.227.227 0 01-.22.173c-4.918-.047-9.828-.582-14.691-1.461-1.217-.212-2.419-.495-3.629-.755-1.21-.267-2.404-.604-3.606-.903-1.186-.353-2.38-.699-3.559-1.084l-1.759-.613-.88-.306-.872-.338-1.744-.676c-.582-.227-1.147-.487-1.721-.73-1.155-.472-2.278-1.029-3.401-1.564-2.231-1.131-4.447-2.317-6.544-3.708a51.689 51.689 0 01-11.415-9.937c-3.299-3.873-5.931-8.351-7.754-13.104a48.913 48.913 0 01-2.176-7.314 55.346 55.346 0 01-1.052-7.526c-.362-5.051-.047-10.11.762-15.059.4-2.475.942-4.926 1.602-7.353.322-1.21.692-2.412 1.092-3.606.197-.597.409-1.194.629-1.783.228-.605.44-1.163.715-1.807l-.142.927c-1.398-13.913-1.367-28.014.487-41.927 1.862-13.897 5.57-27.614 11.525-40.38 2.985-6.378 6.481-12.53 10.652-18.24a84.217 84.217 0 011.595-2.122l.409-.526.204-.26.11-.133.157-.173c.204-.228.416-.463.668-.66l.369-.298.401-.26c.534-.337 1.139-.557 1.751-.714.621-.126 1.25-.189 1.87-.118.629.04 1.234.212 1.815.44.573.259 1.123.565 1.595.99.487.4.887.903 1.225 1.43.173.267.291.55.432.824l.267.597 1.029 2.341c.66 1.572 1.454 3.088 2.184 4.635 3.033 6.128 6.568 12.012 10.402 17.692.942 1.43 1.956 2.82 2.93 4.226 1.013 1.383 2.019 2.773 3.064 4.132.518.684 1.044 1.36 1.571 2.035.526.676 1.06 1.343 1.602 2.003a110.26 110.26 0 003.292 3.889l-2.019-.51c3.802-1.313 7.652-2.082 11.517-2.648a82.103 82.103 0 0111.697-.84c3.912.007 7.825.274 11.698.84 3.865.558 7.714 1.335 11.516 2.647l-2.019.511c1.1-1.233 2.216-2.569 3.292-3.889.542-.66 1.076-1.327 1.603-2.003a95.89 95.89 0 001.571-2.035c1.045-1.359 2.05-2.75 3.063-4.132.982-1.406 1.996-2.797 2.939-4.226 3.833-5.68 7.368-11.572 10.401-17.7.73-1.54 1.532-3.056 2.184-4.627l1.029-2.34.267-.598c.141-.275.259-.565.432-.825.338-.526.738-1.029 1.226-1.43.471-.424 1.029-.73 1.594-.99.582-.227 1.194-.4 1.815-.44.621-.07 1.257 0 1.87.119.612.157 1.217.377 1.752.714l.4.252.369.299c.252.196.456.424.668.66l.157.172.11.134.204.259.409.526c.542.7 1.076 1.407 1.595 2.121 4.171 5.72 7.667 11.87 10.652 18.242 5.955 12.766 9.671 26.482 11.533 40.379 1.846 13.913 1.885 28.014.487 41.927l-.142-.927c.275.644.487 1.21.715 1.815.22.589.432 1.186.629 1.783a72.886 72.886 0 011.092 3.606 73.025 73.025 0 011.602 7.345c.809 4.949 1.116 10.016.762 15.06a55.39 55.39 0 01-1.052 7.526 48.936 48.936 0 01-2.176 7.313c-1.831 4.761-4.455 9.231-7.754 13.104a51.694 51.694 0 01-11.415 9.938c-2.105 1.39-4.32 2.576-6.552 3.708-1.131.534-2.254 1.092-3.409 1.563-.573.243-1.139.503-1.72.731l-1.744.675-.872.338-.88.306-1.76.605c-1.178.385-2.373.731-3.559 1.092-1.202.314-2.396.637-3.598.911-1.21.252-2.411.543-3.629.747l-1.823.314c-.612.102-1.217.212-1.83.283-1.226.157-2.443.322-3.669.432a116.59 116.59 0 01-3.676.291c-1.234.047-2.459.094-3.693.102a.191.191 0 01-.188-.189c0-.086.055-.165.141-.181l-.039.04z" fill="#000"/><path fill-rule="evenodd" clip-rule="evenodd" d="M247.148 111.015c29.083 6.866 48.612 19.569 48.612 34.11 0 5.382-2.678 10.519-7.533 15.194 12.42-7.864 26.175-7.55 41.11 0-4.848-4.683-7.534-9.812-7.534-15.194 0-14.368 19.082-26.953 47.614-33.874a73.608 73.608 0 00-5.994-5.476H252.75a74.079 74.079 0 00-5.602 5.232v.008z" fill="#9355F7"/><path fill-rule="evenodd" clip-rule="evenodd" d="M263.921 108.462c21.831 0 39.538 17.699 39.538 39.539 0 21.839-17.699 39.538-39.538 39.538-20.292 0-37.017-15.295-39.272-34.982l-3.724-.432a1.401 1.401 0 01-1.225-1.548l2.035-17.424a1.4 1.4 0 011.547-1.226l4.297.503c6.049-14.085 20.041-23.96 36.349-23.96l-.007-.008zm89.541 0c-21.832 0-39.539 17.699-39.539 39.539 0 21.839 17.7 39.538 39.539 39.538 20.292 0 37.017-15.295 39.271-34.982l3.724-.432a1.402 1.402 0 001.226-1.548l-2.035-17.424a1.402 1.402 0 00-1.548-1.226l-4.297.503c-6.049-14.085-20.04-23.96-36.349-23.96l.008-.008z" fill="#000"/><path fill-rule="evenodd" clip-rule="evenodd" d="M349.542 108.658h-81.701c19.993 1.964 35.618 18.831 35.618 39.343a39.423 39.423 0 01-3.024 15.193c4.988-7.864 10.519-7.55 16.529 0a39.435 39.435 0 01-3.025-15.193c0-20.512 15.625-37.379 35.619-39.343h-.016z" fill="#000"/><path d="M280.118 178.664c18.246-7.64 26.843-28.624 19.204-46.869-7.64-18.245-28.624-26.843-46.869-19.203-18.245 7.64-26.843 28.623-19.203 46.869 7.639 18.245 28.623 26.842 46.868 19.203z" fill="#333"/><path fill-rule="evenodd" clip-rule="evenodd" d="M351.089 109.813c-19.781 0-35.814 16.034-35.814 35.815s16.033 35.815 35.814 35.815c19.782 0 35.815-16.034 35.815-35.815s-16.033-35.815-35.815-35.815z" fill="#333"/><path fill-rule="evenodd" clip-rule="evenodd" d="M267.833 108.658h38.439v11.776h-14.023c-6.332-6.504-14.871-10.833-24.416-11.776z" fill="#4D4D4D"/><path fill-rule="evenodd" clip-rule="evenodd" d="M271.533 113.403h30.064v2.286h-24.164a79.697 79.697 0 00-5.9-2.286z" fill="#fff"/><path d="M296.209 147.55c2.014-16.307-9.573-31.158-25.88-33.172-16.306-2.014-31.158 9.573-33.172 25.879-2.013 16.307 9.573 31.159 25.88 33.173 16.307 2.013 31.158-9.573 33.172-25.88zm83.705 2.023c3.129-16.13-7.41-31.743-23.539-34.872-16.13-3.13-31.743 7.409-34.872 23.539-3.13 16.13 7.409 31.742 23.539 34.872 16.13 3.129 31.742-7.41 34.872-23.539z" fill="#666"/><path fill-rule="evenodd" clip-rule="evenodd" d="M268.249 115.077c15.052 0 27.252 12.2 27.252 27.252 0 15.051-12.2 27.252-27.252 27.252s-27.252-12.201-27.252-27.252c0-15.052 12.2-27.252 27.252-27.252zm80.884 0c-15.052 0-27.252 12.2-27.252 27.252 0 15.051 12.2 27.252 27.252 27.252s27.252-12.201 27.252-27.252c0-15.052-12.2-27.252-27.252-27.252z" fill="#1A1A1A"/><path fill-rule="evenodd" clip-rule="evenodd" d="M348.976 118.03c-13.339 0-24.149 10.81-24.149 24.149 0 13.34 10.81 24.149 24.149 24.149s24.149-10.809 24.149-24.149c0-13.339-10.81-24.149-24.149-24.149z" fill="url(#paint1_linear_55_744)"/><path fill-rule="evenodd" clip-rule="evenodd" d="M268.406 118.03c-13.339 0-24.149 10.81-24.149 24.149 0 13.34 10.81 24.149 24.149 24.149 13.34 0 24.149-10.809 24.149-24.149 0-13.339-10.809-24.149-24.149-24.149z" fill="url(#paint2_linear_55_744)"/><path fill-rule="evenodd" clip-rule="evenodd" d="M245.506 163.744a4.352 4.352 0 11.001 8.705 4.352 4.352 0 01-.001-8.705z" fill="#1A1A1A"/><path fill-rule="evenodd" clip-rule="evenodd" d="M245.506 164.529a3.578 3.578 0 013.575 3.575 3.577 3.577 0 01-3.575 3.574 3.577 3.577 0 01-3.574-3.574 3.578 3.578 0 013.574-3.575z" fill="#fff"/><path fill-rule="evenodd" clip-rule="evenodd" d="M236.417 169.534l17.872 12.671a1.33 1.33 0 01.307 1.87l-2.334 3.236a1.37 1.37 0 01-1.885.315l-17.872-12.672a1.33 1.33 0 01-.306-1.87l2.333-3.236a1.369 1.369 0 011.885-.314z" fill="#333"/><path fill-rule="evenodd" clip-rule="evenodd" d="M237.698 171.82l13.999 9.929c.471.338.581.998.243 1.462l-1.359 1.877a1.065 1.065 0 01-1.477.244l-14.007-9.93a1.055 1.055 0 01-.243-1.469l1.359-1.878a1.065 1.065 0 011.477-.243l.008.008z" fill="#000"/><path fill-rule="evenodd" clip-rule="evenodd" d="M349.55 108.658h-38.439v11.776h14.023c6.324-6.504 14.871-10.833 24.416-11.776z" fill="#4D4D4D"/><path fill-rule="evenodd" clip-rule="evenodd" d="M345.85 113.403h-30.065v2.286h24.165a79.526 79.526 0 015.9-2.286z" fill="#fff"/><path fill-rule="evenodd" clip-rule="evenodd" d="M371.876 163.744a4.351 4.351 0 100 8.704 4.351 4.351 0 100-8.704z" fill="#1A1A1A"/><path fill-rule="evenodd" clip-rule="evenodd" d="M371.876 164.529a3.577 3.577 0 00-3.574 3.575 3.576 3.576 0 003.574 3.574 3.577 3.577 0 003.575-3.574 3.578 3.578 0 00-3.575-3.575z" fill="#fff"/><path fill-rule="evenodd" clip-rule="evenodd" d="M380.965 169.534l-17.872 12.671a1.33 1.33 0 00-.306 1.87l2.333 3.236a1.37 1.37 0 001.885.315l17.873-12.672a1.33 1.33 0 00.306-1.87l-2.333-3.236a1.37 1.37 0 00-1.886-.314z" fill="#333"/><path fill-rule="evenodd" clip-rule="evenodd" d="M379.685 171.82l-13.999 9.929a1.047 1.047 0 00-.244 1.462l1.359 1.877a1.066 1.066 0 001.477.244l13.999-9.93c.472-.338.582-.998.244-1.469l-1.359-1.878a1.065 1.065 0 00-1.477-.243v.008zm-36.53-59.053c-.888 0-1.61.723-1.61 1.61 0 .888.722 1.611 1.61 1.611.888 0 1.61-.723 1.61-1.611 0-.887-.722-1.61-1.61-1.61zm-68.66 0c-.888 0-1.611.723-1.611 1.61 0 .888.723 1.611 1.611 1.611.887 0 1.61-.723 1.61-1.611 0-.887-.723-1.61-1.61-1.61z" fill="#000"/><path fill-rule="evenodd" clip-rule="evenodd" d="M275.414 119.059l-17.7 44.779a24.218 24.218 0 01-8.672-7.22l15.106-38.218a24.393 24.393 0 014.25-.378c2.436 0 4.793.362 7.008 1.037h.008zm7.581 3.873L265.9 166.195a23.752 23.752 0 01-5.302-1.163l17.738-44.881a24.296 24.296 0 014.667 2.781h-.008zm73.099-3.841l-17.708 44.794a24.274 24.274 0 01-8.688-7.165l15.154-38.336a24.622 24.622 0 014.132-.354c2.475 0 4.863.377 7.11 1.069v-.008zm7.565 3.912L346.58 166.21a23.765 23.765 0 01-5.31-1.139L359 120.199a24.221 24.221 0 014.651 2.804h.008z" fill="#fff"/><path fill-rule="evenodd" clip-rule="evenodd" d="M331.748 88.186c6.112 8.877 16.584 13.889 26.875 17.589h4.808a66.398 66.398 0 013.072 2.656s5.64-21.447 1.862-38.47c-3.787-17.017-7.746-26.011-7.746-26.011a1.44 1.44 0 00-.283.212c-.189.141-.33.337-.464.534-.07.102-.11.22-.173.322l-.259.59-1.06 2.419c-.684 1.626-1.501 3.181-2.255 4.768-3.119 6.3-6.74 12.318-10.653 18.124-.966 1.46-1.995 2.875-2.993 4.313-1.037 1.406-2.058 2.828-3.126 4.21-.527.7-1.069 1.39-1.611 2.082a80.577 80.577 0 01-1.642 2.05 105.538 105.538 0 01-3.425 4.046 1.815 1.815 0 01-.919.558l-.008.008z" fill="#333"/><path fill-rule="evenodd" clip-rule="evenodd" d="M367.438 104.259c1.421-7.07 3.692-21.863.927-34.299-2.082-9.364-4.219-16.3-5.72-20.645-.322.652-.644 1.304-.95 1.956-3.119 6.3-6.74 12.318-10.653 18.124-.966 1.46-1.995 2.875-2.993 4.312-11.202 13.568-4.101 20.017 19.396 30.544l-.007.008z" fill="url(#paint3_linear_55_744)"/><path fill-rule="evenodd" clip-rule="evenodd" d="M361.946 46.55c1.21 1.76 2.192 3.637 3.088 5.554a62.4 62.4 0 012.372 5.892c1.391 4.006 2.373 8.146 3.15 12.318.362 2.09.692 4.187.919 6.3.055.526.118 1.053.165 1.58l.134 1.586c.102 1.06.141 2.121.204 3.182.212 4.242.142 8.5-.196 12.742a110.392 110.392 0 01-1.713 12.632c-.22 1.037-.4 2.09-.652 3.119l-.078.33c-.252-.11-.503-.22-.762-.322.282-.071.557-.142.84-.212a69.027 69.027 0 00-3.119-2.993c.048-.212.095-.432.142-.645.825-4.03 1.437-8.099 1.799-12.192.361-4.093.487-8.21.377-12.326-.039-1.029-.055-2.058-.134-3.08l-.094-1.539c-.031-.519-.086-1.021-.133-1.54-.15-2.058-.409-4.1-.684-6.135-.298-2.035-.628-4.07-1.053-6.088-.196-1.014-.432-2.012-.652-3.025l-.738-3.009c-1.029-3.998-2.192-7.981-3.645-11.886v-.015c-.055-.134.016-.275.149-.33.11-.04.236 0 .299.094l.015.008zm-1.893 43.372a4.221 4.221 0 004.211-4.21 4.221 4.221 0 00-4.211-4.212 4.222 4.222 0 00-4.211 4.211 4.222 4.222 0 004.211 4.211z" fill="#666"/><path fill-rule="evenodd" clip-rule="evenodd" d="M360.053 88.657a2.952 2.952 0 002.946-2.946c0-1.618-1.328-2.953-2.946-2.953a2.966 2.966 0 00-2.954 2.953 2.954 2.954 0 002.954 2.946z" fill="#fff"/><path fill-rule="evenodd" clip-rule="evenodd" d="M361.31 76.04a2.648 2.648 0 000-5.294 2.65 2.65 0 00-2.648 2.647 2.65 2.65 0 002.648 2.648z" fill="#666"/><path fill-rule="evenodd" clip-rule="evenodd" d="M361.31 75.247a1.858 1.858 0 001.854-1.854 1.858 1.858 0 00-1.854-1.854 1.858 1.858 0 00-1.854 1.854c0 1.022.833 1.854 1.854 1.854z" fill="#fff"/><path fill-rule="evenodd" clip-rule="evenodd" d="M361.954 64.03c1.029 0 1.87-.842 1.87-1.87 0-1.03-.841-1.87-1.87-1.87-1.029 0-1.87.84-1.87 1.87 0 1.029.841 1.87 1.87 1.87z" fill="#666"/><path d="M361.954 63.471a1.312 1.312 0 100-2.623 1.312 1.312 0 000 2.623z" fill="#fff"/><path fill-rule="evenodd" clip-rule="evenodd" d="M285.611 88.186c-6.112 8.877-16.584 13.889-26.875 17.589h-4.808a66.398 66.398 0 00-3.072 2.656s-5.64-21.447-1.862-38.47c3.787-17.017 7.746-26.011 7.746-26.011.102.062.197.125.283.212.189.141.33.337.464.534.07.102.11.22.172.322l.26.59 1.06 2.419c.684 1.626 1.501 3.181 2.255 4.768 3.119 6.3 6.74 12.318 10.652 18.124.967 1.46 1.996 2.875 2.994 4.313 1.037 1.406 2.058 2.828 3.126 4.21.527.7 1.069 1.39 1.611 2.082a80.577 80.577 0 001.642 2.05 105.538 105.538 0 003.425 4.046c.251.283.573.472.919.558l.008.008z" fill="#333"/><path fill-rule="evenodd" clip-rule="evenodd" d="M250.299 104.259c-1.422-7.07-3.685-21.863-.927-34.299 2.081-9.364 4.218-16.3 5.719-20.645.322.652.644 1.304.95 1.956 3.119 6.3 6.741 12.318 10.653 18.124.966 1.46 1.995 2.875 2.993 4.312 11.202 13.568 4.101 20.017-19.396 30.544l.008.008z" fill="url(#paint4_linear_55_744)"/><path fill-rule="evenodd" clip-rule="evenodd" d="M255.405 46.55c-1.21 1.76-2.192 3.637-3.088 5.554a62.398 62.398 0 00-2.372 5.892c-1.39 4.006-2.372 8.146-3.15 12.318-.362 2.09-.692 4.187-.919 6.3-.055.527-.118 1.053-.165 1.58l-.134 1.586c-.102 1.06-.141 2.121-.204 3.182a98.54 98.54 0 00.196 12.742c.322 4.234.904 8.461 1.713 12.632.22 1.037.401 2.09.652 3.119l.078.338c.252-.11.605-.259.857-.369-.283-.071-.621-.15-.904-.22a78.062 78.062 0 013.072-2.954l-.141-.644a108.23 108.23 0 01-1.799-12.193 107.357 107.357 0 01-.377-12.325c.039-1.03.054-2.059.133-3.08l.094-1.54c.032-.518.087-1.021.134-1.54.149-2.058.408-4.1.683-6.135.299-2.035.629-4.07 1.053-6.088.196-1.014.432-2.011.652-3.025l.739-3.009c1.029-3.998 2.191-7.981 3.645-11.886v-.015c.055-.134-.016-.275-.15-.33a.257.257 0 00-.298.094v.016zm1.893 43.372a4.221 4.221 0 004.211-4.21 4.221 4.221 0 00-4.211-4.212 4.222 4.222 0 00-4.211 4.211 4.222 4.222 0 004.211 4.211z" fill="#666"/><path fill-rule="evenodd" clip-rule="evenodd" d="M257.298 88.657a2.952 2.952 0 002.946-2.946c0-1.618-1.328-2.953-2.946-2.953a2.966 2.966 0 00-2.954 2.953 2.954 2.954 0 002.954 2.946z" fill="#fff"/><path fill-rule="evenodd" clip-rule="evenodd" d="M256.041 76.04a2.65 2.65 0 002.648-2.647 2.648 2.648 0 10-2.648 2.647z" fill="#666"/><path fill-rule="evenodd" clip-rule="evenodd" d="M256.041 75.247a1.858 1.858 0 001.854-1.854 1.858 1.858 0 00-1.854-1.854 1.858 1.858 0 00-1.854 1.854c0 1.022.833 1.854 1.854 1.854z" fill="#fff"/><path fill-rule="evenodd" clip-rule="evenodd" d="M255.397 64.03c1.029 0 1.87-.842 1.87-1.87 0-1.03-.841-1.87-1.87-1.87-1.029 0-1.87.84-1.87 1.87 0 1.029.841 1.87 1.87 1.87z" fill="#666"/><path d="M255.397 63.471a1.312 1.312 0 100-2.623 1.312 1.312 0 000 2.623z" fill="#fff"/><path fill-rule="evenodd" clip-rule="evenodd" d="M308.676 246.443c6.449 0 11.713-5.264 11.713-11.714 0-6.449-5.264-11.713-11.713-11.713-6.45 0-11.714 5.264-11.714 11.713 0 6.45 5.264 11.714 11.714 11.714z" fill="#fff"/><path fill-rule="evenodd" clip-rule="evenodd" d="M308.676 244.416c5.334 0 9.686-4.352 9.686-9.687 0-5.334-4.352-9.686-9.686-9.686-5.335 0-9.687 4.352-9.687 9.686 0 5.335 4.352 9.687 9.687 9.687z" fill="#989898"/><path fill-rule="evenodd" clip-rule="evenodd" d="M308.676 241.273c3.598 0 6.536-2.938 6.536-6.536 0-3.598-2.938-6.536-6.536-6.536-3.598 0-6.537 2.938-6.537 6.536 0 3.598 2.939 6.536 6.537 6.536z" fill="#000"/><path d="M229.881 33.972C229.881 18.041 242.553 5 258.037 5h99.926c15.484 0 28.156 13.033 28.156 28.972" stroke="#9968FD" stroke-width="10" stroke-miterlimit="22.93"/><path fill-rule="evenodd" clip-rule="evenodd" d="M236.747 38.544a8.117 8.117 0 01-10.362 4.958 8.124 8.124 0 01-4.957-10.362 8.118 8.118 0 0110.362-4.957 8.123 8.123 0 014.957 10.361z" fill="#9968FD"/><path fill-rule="evenodd" clip-rule="evenodd" d="M232.921 37.193a4.06 4.06 0 01-7.659-2.694 4.06 4.06 0 017.659 2.694z" fill="#fff"/><path fill-rule="evenodd" clip-rule="evenodd" d="M215.497 114.26c-8.971-1.917-14.745-10.834-12.821-19.805l8.712-40.694c1.917-8.971 10.834-14.745 19.805-12.82 8.972 1.916 14.746 10.833 12.821 19.804l-8.712 40.694c-1.917 8.971-10.834 14.745-19.805 12.821z" fill="#1D1D1E"/><path fill-rule="evenodd" clip-rule="evenodd" d="M211.388 53.761l-8.712 40.694a16.627 16.627 0 00-.322 4.682c6.811-.888 12.68-5.97 14.196-13.049l8.712-40.693c.338-1.58.432-3.15.322-4.69-6.811.888-12.679 5.97-14.196 13.049v.007z" fill="#fff"/><path fill-rule="evenodd" clip-rule="evenodd" d="M224.272 123.419c-5.743-1.233-9.443-6.936-8.209-12.687l14.36-67.089c1.234-5.743 6.937-9.443 12.687-8.21 5.751 1.234 9.443 6.937 8.21 12.688l-14.361 67.089c-1.233 5.751-6.936 9.443-12.687 8.209z" fill="#1D1D1E"/><path fill-rule="evenodd" clip-rule="evenodd" d="M230.415 43.65l-14.36 67.09a10.581 10.581 0 00.055 4.635c5.68 1.116 11.281-2.561 12.499-8.241l14.36-67.089c.338-1.579.291-3.15-.055-4.635-5.68-1.115-11.281 2.561-12.499 8.24z" fill="#fff"/><path fill-rule="evenodd" clip-rule="evenodd" d="M234.532 125.619a3.56 3.56 0 01-2.734-4.226l17.338-81.018a3.56 3.56 0 016.96 1.493l-17.338 81.017a3.56 3.56 0 01-4.226 2.734z" fill="#9968FD"/><path fill-rule="evenodd" clip-rule="evenodd" d="M253.41 37.641c.165.558.204 1.163.07 1.768l-17.338 81.017a3.56 3.56 0 01-4.226 2.734c-.016 0-.024 0-.039-.008a3.55 3.55 0 002.663 2.459 3.572 3.572 0 004.226-2.733l17.338-81.018a3.57 3.57 0 00-2.694-4.219z" fill="#000"/><path fill-rule="evenodd" clip-rule="evenodd" d="M227.029 82.145a1.857 1.857 0 01-1.421-2.192l7.219-33.718a1.858 1.858 0 012.192-1.421 1.858 1.858 0 011.422 2.191l-7.22 33.718a1.858 1.858 0 01-2.192 1.422zm-1.563 8.79a1.858 1.858 0 01-1.422-2.191l.26-1.202a1.857 1.857 0 012.191-1.422 1.858 1.858 0 011.422 2.192l-.259 1.201a1.858 1.858 0 01-2.192 1.422zm-14.305-14.077a1.858 1.858 0 01-1.422-2.192l4.957-23.175a1.857 1.857 0 012.191-1.422 1.857 1.857 0 011.422 2.192l-4.965 23.175a1.857 1.857 0 01-2.191 1.422h.008zm-1.438 8.193a1.858 1.858 0 01-1.422-2.191l.259-1.202a1.858 1.858 0 012.192-1.422 1.858 1.858 0 011.422 2.191l-.259 1.202a1.858 1.858 0 01-2.192 1.422z" fill="#7F8C8D"/><path fill-rule="evenodd" clip-rule="evenodd" d="M380.847 38.388a8.123 8.123 0 0015.319-5.405 8.116 8.116 0 00-10.361-4.957 8.124 8.124 0 00-4.958 10.362z" fill="#9968FD"/><path fill-rule="evenodd" clip-rule="evenodd" d="M384.673 37.044a4.061 4.061 0 007.66-2.695 4.061 4.061 0 00-7.66 2.695z" fill="#fff"/><path fill-rule="evenodd" clip-rule="evenodd" d="M402.098 114.103c8.971-1.917 14.745-10.834 12.821-19.805l-8.713-40.694c-1.916-8.971-10.833-14.745-19.804-12.82-8.972 1.916-14.746 10.833-12.821 19.804l8.712 40.694c1.917 8.971 10.833 14.745 19.805 12.821z" fill="#1D1D1E"/><path fill-rule="evenodd" clip-rule="evenodd" d="M406.206 53.604l8.712 40.694c.338 1.579.433 3.15.323 4.682-6.811-.888-12.68-5.97-14.196-13.049l-8.712-40.693a16.627 16.627 0 01-.322-4.682c6.811.887 12.679 5.97 14.195 13.048z" fill="#fff"/><path fill-rule="evenodd" clip-rule="evenodd" d="M393.323 123.262c5.742-1.233 9.442-6.936 8.209-12.687l-14.36-67.09c-1.234-5.75-6.937-9.442-12.688-8.209-5.75 1.234-9.442 6.937-8.209 12.688l14.36 67.089c1.234 5.75 6.937 9.443 12.688 8.209z" fill="#1D1D1E"/><path fill-rule="evenodd" clip-rule="evenodd" d="M387.179 43.494l14.361 67.089c.338 1.579.291 3.15-.055 4.635-5.68 1.115-11.281-2.561-12.499-8.241l-14.36-67.09a10.58 10.58 0 01.055-4.634c5.679-1.116 11.281 2.56 12.498 8.24z" fill="#fff"/><path fill-rule="evenodd" clip-rule="evenodd" d="M383.063 125.462a3.56 3.56 0 002.734-4.226l-17.338-81.018a3.561 3.561 0 00-4.227-2.734 3.561 3.561 0 00-2.734 4.227l17.338 81.017a3.562 3.562 0 004.227 2.734z" fill="#9968FD"/><path fill-rule="evenodd" clip-rule="evenodd" d="M364.185 37.492a3.525 3.525 0 00-.07 1.768l17.337 81.017a3.562 3.562 0 004.227 2.734c.016 0 .023 0 .039-.008a3.55 3.55 0 01-2.663 2.459 3.572 3.572 0 01-4.226-2.734l-17.338-81.017a3.57 3.57 0 012.694-4.22z" fill="#000"/><path fill-rule="evenodd" clip-rule="evenodd" d="M390.565 81.987a1.858 1.858 0 001.422-2.191l-7.219-33.718a1.858 1.858 0 00-2.192-1.422 1.858 1.858 0 00-1.422 2.192l7.22 33.718a1.857 1.857 0 002.191 1.421zm1.564 8.791a1.858 1.858 0 001.422-2.192l-.26-1.201a1.858 1.858 0 00-2.192-1.422 1.857 1.857 0 00-1.421 2.192l.259 1.201a1.858 1.858 0 002.192 1.422zM406.434 76.7a1.858 1.858 0 001.422-2.191l-4.957-23.175a1.858 1.858 0 00-2.192-1.422 1.858 1.858 0 00-1.422 2.192l4.965 23.175a1.858 1.858 0 002.192 1.422h-.008zm1.438 8.194a1.858 1.858 0 001.422-2.192l-.259-1.201a1.858 1.858 0 00-2.192-1.422 1.858 1.858 0 00-1.422 2.191l.259 1.202a1.858 1.858 0 002.192 1.422z" fill="#7F8C8D"/></g><path d="M427.189 176H188.811c-7.628 0-13.811 5.355-13.811 11.96v132.08c0 6.605 6.183 11.96 13.811 11.96h238.378c7.628 0 13.811-5.355 13.811-11.96V187.96c0-6.605-6.183-11.96-13.811-11.96z" fill="#0D0D0D"/><g filter="url(#filter1_f_55_744)"><path d="M427.189 176H188.811c-7.628 0-13.811 5.355-13.811 11.96v132.08c0 6.605 6.183 11.96 13.811 11.96h238.378c7.628 0 13.811-5.355 13.811-11.96V187.96c0-6.605-6.183-11.96-13.811-11.96z" stroke="url(#paint5_linear_55_744)" stroke-width="8" stroke-miterlimit="22.93"/></g><path d="M427.189 176H188.811c-7.628 0-13.811 5.355-13.811 11.96v132.08c0 6.605 6.183 11.96 13.811 11.96h238.378c7.628 0 13.811-5.355 13.811-11.96V187.96c0-6.605-6.183-11.96-13.811-11.96z" stroke="url(#paint6_linear_55_744)" stroke-width="2" stroke-miterlimit="22.93"/><g filter="url(#filter2_f_55_744)"><rect x="175" y="333" width="266" height="10" rx="5" fill="url(#paint7_linear_55_744)"/></g><rect x="180" y="335" width="255" height="3" rx="1.5" fill="url(#paint8_linear_55_744)"/><rect x="19" y="350" width="584" height="6" rx="3" fill="url(#paint9_linear_55_744)"/><path d="M322.108 269.748c-1.739 2.603-3.583 5.144-6.391 5.186-2.808.063-3.709-1.659-6.894-1.659-3.206 0-4.191 1.617-6.852 1.722-2.745.105-4.82-2.772-6.58-5.312-3.583-5.187-6.328-14.741-2.64-21.167 1.823-3.192 5.092-5.208 8.633-5.271 2.682-.042 5.239 1.827 6.894 1.827 1.635 0 4.736-2.247 7.984-1.911 1.362.063 5.176.546 7.627 4.158-.188.126-4.547 2.688-4.505 8.001.063 6.341 5.553 8.462 5.616 8.483-.063.147-.88 3.024-2.892 5.943zm-11.965-33.598c1.53-1.743 4.065-3.066 6.161-3.15.272 2.457-.713 4.935-2.179 6.699-1.446 1.784-3.835 3.17-6.182 2.981-.314-2.414.859-4.934 2.2-6.53z" fill="url(#paint10_linear_55_744)"/><defs><linearGradient id="paint0_linear_55_744" x1="275.528" y1="103" x2="353.266" y2="104.57" gradientUnits="userSpaceOnUse"><stop stop-color="#9A68FE"/><stop offset="1" stop-color="#FF23CF"/></linearGradient><linearGradient id="paint1_linear_55_744" x1="327.012" y1="118.03" x2="374.47" y2="123.783" gradientUnits="userSpaceOnUse"><stop stop-color="#9A68FE"/><stop offset="1" stop-color="#FF23CF"/></linearGradient><linearGradient id="paint2_linear_55_744" x1="246.442" y1="118.03" x2="293.9" y2="123.783" gradientUnits="userSpaceOnUse"><stop stop-color="#9A68FE"/><stop offset="1" stop-color="#FF23CF"/></linearGradient><linearGradient id="paint3_linear_55_744" x1="342.841" y1="76.787" x2="369.669" y2="76.787" gradientUnits="userSpaceOnUse"><stop stop-color="#2A2C2A"/><stop offset="1" stop-color="#BFBEBE"/></linearGradient><linearGradient id="paint4_linear_55_744" x1="274.895" y1="76.787" x2="248.067" y2="76.787" gradientUnits="userSpaceOnUse"><stop stop-color="#2A2C2A"/><stop offset="1" stop-color="#BFBEBE"/></linearGradient><linearGradient id="paint5_linear_55_744" x1="187.03" y1="176" x2="441.381" y2="228.568" gradientUnits="userSpaceOnUse"><stop stop-color="#9A68FE"/><stop offset="1" stop-color="#FF23CF"/></linearGradient><linearGradient id="paint6_linear_55_744" x1="187.03" y1="176" x2="441.381" y2="228.568" gradientUnits="userSpaceOnUse"><stop stop-color="#9A68FE"/><stop offset="1" stop-color="#FF23CF"/></linearGradient><linearGradient id="paint7_linear_55_744" x1="187.03" y1="333" x2="210.304" y2="408.04" gradientUnits="userSpaceOnUse"><stop stop-color="#9A68FE"/><stop offset="1" stop-color="#FF23CF"/></linearGradient><linearGradient id="paint8_linear_55_744" x1="191.533" y1="335" x2="193.906" y2="359.447" gradientUnits="userSpaceOnUse"><stop stop-color="#9A68FE"/><stop offset="1" stop-color="#FF23CF"/></linearGradient><linearGradient id="paint9_linear_55_744" x1="45.412" y1="350" x2="49.566" y2="399.003" gradientUnits="userSpaceOnUse"><stop stop-color="#9A68FE"/><stop offset="1" stop-color="#FF23CF"/></linearGradient><linearGradient id="paint10_linear_55_744" x1="292.538" y1="233" x2="326.114" y2="236.295" gradientUnits="userSpaceOnUse"><stop stop-color="#9A68FE"/><stop offset="1" stop-color="#FF23CF"/></linearGradient><filter id="filter0_f_55_744" x="0" y="221" width="622" height="232" filterUnits="userSpaceOnUse" color-interpolation-filters="sRGB"><feFlood flood-opacity="0" result="BackgroundImageFix"/><feBlend in="SourceGraphic" in2="BackgroundImageFix" result="shape"/><feGaussianBlur stdDeviation="38.5" result="effect1_foregroundBlur_55_744"/></filter><filter id="filter1_f_55_744" x="162" y="163" width="292" height="182" filterUnits="userSpaceOnUse" color-interpolation-filters="sRGB"><feFlood flood-opacity="0" result="BackgroundImageFix"/><feBlend in="SourceGraphic" in2="BackgroundImageFix" result="shape"/><feGaussianBlur stdDeviation="4.5" result="effect1_foregroundBlur_55_744"/></filter><filter id="filter2_f_55_744" x="171" y="329" width="274" height="18" filterUnits="userSpaceOnUse" color-interpolation-filters="sRGB"><feFlood flood-opacity="0" result="BackgroundImageFix"/><feBlend in="SourceGraphic" in2="BackgroundImageFix" result="shape"/><feGaussianBlur stdDeviation="2" result="effect1_foregroundBlur_55_744"/></filter></defs></svg>