<svg width="489" height="499" fill="none" xmlns="http://www.w3.org/2000/svg"><g filter="url(#filter0_f_41_510)"><ellipse cx="244.5" cy="370.5" rx="51.5" ry="167.5" transform="rotate(90 244.5 370.5)" fill="url(#paint0_linear_41_510)"/></g><path d="M59.448 183.908H433.78" stroke="#000" stroke-width="12" stroke-miterlimit="22.93"/><path fill-rule="evenodd" clip-rule="evenodd" d="M375.263 206.697c9.22 0 18.187-1.468 22.42-5.993 4.487-4.795 6.27-10.58 5.01-16.289-1.698-7.722-8.659-14.575-19.093-18.801-14.061-5.693-27.407-2.62-35.213 2.159-6.177 3.78-10.004 9.089-10.48 14.552-1.368 15.551 8.214 19.961 11.187 20.937 4.418 1.46 15.474 3.435 26.177 3.435h-.008zm-255.186 0c-9.22 0-18.186-1.468-22.42-5.993-4.487-4.795-6.27-10.58-5.01-16.289 1.699-7.722 8.66-14.575 19.094-18.801 14.06-5.693 27.406-2.62 35.213 2.159 6.177 3.78 10.003 9.089 10.48 14.552 1.367 15.551-8.214 19.961-11.187 20.937-4.418 1.46-15.474 3.435-26.177 3.435h.007z" fill="#9968FD"/><path fill-rule="evenodd" clip-rule="evenodd" d="M229.672 268.363a6.307 6.307 0 00-8.774-1.037c-10.303 7.952-22.881 14.029-36.081 14.429-5.593.169-11.118-.699-16.335-2.743a39.852 39.852 0 01-6.73-3.411c-4.395-2.774-8.429-6.6-11.034-11.134-1.92-3.349-3.25-7.491-2.404-11.363.107-.492.491-1.706.945-2.152.015 0 .023.008.038.016.307.138.607.261.73.591.307.83.307 2.544.323 3.427.084 5.171.929 9.835 6.016 12.478 3.373 1.752 7.414 2.013 11.117 1.406 4.08-.676 8.037-2.436 11.31-4.971 2.582-2.005 4.741-4.503 6.301-7.376a52.44 52.44 0 00.822-1.583c7.645-15.397 6.4-33.046-3.197-47.298-12.892-19.155-35.689-26.416-57.932-23.949-18.978 2.105-34.183 12.554-44.678 28.351-10.257 15.436-14.944 34.406-14.506 52.838.453 19.04 6.546 38.179 18.878 52.892 14.383 17.149 34.82 25.524 56.902 26.915 2.244.138 4.487.215 6.731.215 26.138 0 50.057-9.865 69.711-26.822a131.454 131.454 0 0018.77-19.992c2.313-3.051 4.756-6.47 6.631-9.82 1.659-2.958.668-6.692-2.19-8.459-.676-.569-1.406-1.337-2.029-1.959-1.283-1.268-2.55-2.551-3.81-3.826-1.821-1.844-3.773-3.75-5.517-5.663h-.008z" fill="#9968FD"/><path fill-rule="evenodd" clip-rule="evenodd" d="M227.229 270.407a3.13 3.13 0 00-4.387-.569c-12.463 9.62-25.609 14.722-37.933 15.098-6.123.185-12.055-.791-17.595-2.966a42.807 42.807 0 01-7.276-3.688c-10.595-6.692-16.703-17.333-14.852-25.869.461-2.136 1.499-3.788 2.766-4.434.8-.399 1.668-.376 2.651.07 2.574 1.16 2.858 2.896 2.928 6.868.053 3.181.13 7.53 4.295 9.704 4.994 2.597 13.015 1.391 18.993-3.25 2.166-1.682 4.064-3.811 5.455-6.377.269-.492.522-.983.768-1.483 7.115-14.329 6.039-30.695-2.981-44.102-11.241-16.696-31.778-25.124-54.936-22.558-17.295 1.921-31.94 11.241-42.373 26.945-9.45 14.23-14.414 32.339-13.968 50.994.46 19.439 6.9 37.518 18.132 50.918 12.931 15.428 31.84 24.341 54.659 25.785 2.213.138 4.395.207 6.531.207 30.741 0 53.568-13.914 67.629-26.046 16.227-13.999 24.363-28.351 24.702-28.951a3.126 3.126 0 00-1.199-4.256c-.73-.407-11.779-11.748-12.009-12.048v.008z" fill="#FFAC40"/><path fill-rule="evenodd" clip-rule="evenodd" d="M141.775 338.373c63.856 4.042 95.934-53.191 95.934-53.191l-12.954-12.862c-14.076 10.856-27.568 15.359-39.446 15.728a49.859 49.859 0 01-9.435-.584c-10.757-1.714-19.662-6.831-25.655-13.231-6.515-6.923-9.635-15.336-8.091-22.481 1.176-5.417 5.225-8.606 9.758-6.547 8.414 3.811 1.783 13.731 7.384 16.643 4.963 2.573 15.674.115 20.261-8.352a38.473 38.473 0 001.437-2.92c.43-.953.806-1.898 1.152-2.85 10.78-29.527-15.051-62.404-56.657-57.771-27.222 3.027-45.2 25.531-51.293 52.162-9.466 41.328 9.757 92.591 67.59 96.241l.015.015z" fill="#FFAC40"/><path fill-rule="evenodd" clip-rule="evenodd" d="M150.227 274.233c-6.516-6.923-9.635-15.336-8.091-22.481 1.176-5.417 5.225-8.606 9.758-6.546 8.413 3.81 1.782 13.73 7.384 16.642 4.963 2.574 15.674.115 20.261-8.352a38.088 38.088 0 001.436-2.92c.431-.953.807-1.898 1.153-2.85-4.403 4.763-12.578 12.232-15.467 5.578-3.596-8.298-7.898-29.781-23.964-24.602-13.838 4.472-11.341 33.883 7.522 45.508l.008.023z" fill="#FF9243"/><path fill-rule="evenodd" clip-rule="evenodd" d="M141.775 338.373c63.856 4.042 95.934-53.191 95.934-53.191l-12.954-12.862c-14.076 10.856-27.568 15.359-39.446 15.728a49.859 49.859 0 01-9.435-.584c-9.827 8.536-29.089 19.769-57.541 12.301-34.72-9.113-43.011-37.08-44.163-57.64-9.466 41.328 9.757 92.591 67.59 96.241l.015.007z" fill="#FF9243"/><path fill-rule="evenodd" clip-rule="evenodd" d="M71.888 262.547c0 36.142 21.328 72.753 69.879 75.826 63.856 4.05 95.934-53.191 95.934-53.191l-12.954-12.862c-14.076 10.857-27.568 15.359-39.446 15.728-10.426 10.779-26.3 29.365-59.085 21.782-15.059-3.488-24.732-11.141-30.203-20.737-16.273-12.67-20.99-31.817-21.843-46.938a6.38 6.38 0 00-.085.377 40.713 40.713 0 00-.346 1.621c-.153.768-.3 1.537-.438 2.313-.076.399-.146.799-.2 1.198a61 61 0 00-.307 2.021 65.06 65.06 0 00-.3 2.42.726.726 0 00-.03.215 66.846 66.846 0 00-.215 2.136l-.031.346c-.077.853-.13 1.721-.184 2.574a97.4 97.4 0 00-.108 2.589c-.03.853-.038 1.721-.038 2.574v.008z" fill="#F8D2B6"/><path fill-rule="evenodd" clip-rule="evenodd" d="M141.775 338.373c63.856 4.042 95.934-53.191 95.934-53.191l-12.954-12.862c-14.076 10.856-27.568 15.359-39.446 15.728-10.426 10.779-26.308 29.365-59.085 21.774-54.344-12.585-38.547-79.384-8.006-95.972 24.955-13.554 68.159 2.282 62.75 36.726 13.568-30.219-12.555-65.385-55.505-60.614-69.487 7.722-78.784 142.403 16.297 148.411h.015z" fill="#fff"/><path fill-rule="evenodd" clip-rule="evenodd" d="M148.106 341.708c30.741 0 53.568-13.914 67.629-26.046 16.227-13.999 24.363-28.352 24.702-28.951a3.128 3.128 0 00-1.199-4.257 3.117 3.117 0 00-4.249 1.199c-.077.138-8.037 14.13-23.496 27.422-20.56 17.671-43.948 25.808-69.511 24.195-48.243-3.051-66.207-39.946-66.937-70.61-.753-31.878 16.788-67.798 50.787-71.578 20.807-2.313 39.147 5.102 49.058 19.838 8.014 11.902 8.721 26.523 1.906 39.108-3.834 7.069-12.716 8.813-16.066 7.069-.746-.384-.884-1.406-.93-4.264-.069-3.796-.169-9.543-6.592-12.455-2.705-1.221-5.555-1.206-8.037.046-2.981 1.506-5.194 4.672-6.07 8.69-2.389 11.056 4.856 24.41 17.626 32.478 20.176 12.738 46.322 9.458 69.956-8.782a3.122 3.122 0 00.569-4.38 3.13 3.13 0 00-4.387-.569c-18.655 14.399-38.839 18.671-55.528 12.132a42.807 42.807 0 01-7.276-3.688c-10.595-6.692-16.703-17.333-14.852-25.869.461-2.136 1.499-3.788 2.766-4.434.8-.399 1.668-.376 2.651.07 2.574 1.16 2.858 2.896 2.928 6.868.053 3.181.13 7.53 4.295 9.705 4.994 2.596 13.015 1.39 18.993-3.251 2.166-1.682 4.064-3.81 5.455-6.377 7.952-14.667 7.122-31.709-2.213-45.577-11.241-16.696-31.778-25.125-54.936-22.558-17.295 1.92-31.94 11.24-42.373 26.945-9.45 14.23-14.414 32.339-13.969 50.994.462 19.439 6.9 37.518 18.133 50.918 12.931 15.428 31.84 24.34 54.659 25.785 2.213.138 4.395.207 6.531.207l-.023-.023z" fill="#000"/><path fill-rule="evenodd" clip-rule="evenodd" d="M145.678 299.957c4.518 0 8.198-3.68 8.198-8.198 0-4.518-3.68-8.198-8.198-8.198-4.518 0-8.198 3.68-8.198 8.198 0 4.518 3.68 8.198 8.198 8.198z" fill="#000"/><path d="M149.738 295.828a5.748 5.748 0 10-8.13-8.128 5.748 5.748 0 008.13 8.128z" fill="#fff"/><path d="M128.79 278.451a5.693 5.693 0 10.001-11.387 5.693 5.693 0 00-.001 11.387z" fill="#000"/><path fill-rule="evenodd" clip-rule="evenodd" d="M128.79 276.746a3.994 3.994 0 003.988-3.988 3.994 3.994 0 00-3.988-3.988 3.994 3.994 0 00-3.987 3.988 3.994 3.994 0 003.987 3.988z" fill="#fff"/><path fill-rule="evenodd" clip-rule="evenodd" d="M128.007 252.459a4.696 4.696 0 004.686-4.687 4.695 4.695 0 00-4.686-4.687 4.695 4.695 0 00-4.687 4.687 4.696 4.696 0 004.687 4.687z" fill="#000"/><path fill-rule="evenodd" clip-rule="evenodd" d="M128.007 251.053a3.29 3.29 0 003.28-3.281 3.289 3.289 0 00-3.28-3.281 3.289 3.289 0 00-3.281 3.281 3.29 3.29 0 003.281 3.281z" fill="#fff"/><path fill-rule="evenodd" clip-rule="evenodd" d="M178.355 252.712c-.307.092-.614.192-.929.284-9.935 2.989-21.168 4.695-31.394 2.244-12.24-2.935-22.489-12.831-29.75-22.697-5.248-7.122-11.855-18.386-13.415-27.106-1.206-6.716-3.25-12.931-2.274-19.854 1.659-11.832 11.202-16.512 22.158-17.057 7.783-.384 17.902-.154 23.55 6.062 2.005 2.205 3.119 4.764 3.757 7.653.299 1.36.422 2.812.783 4.149.638 2.343.853 4.763 1.168 7.16.285 2.136.592 4.365 1.222 6.424.084.276.261.791.453 1.244 5.54-2.12 10.634-5.608 15.897-8.336 7.43-3.857 14.798-6.185 23.25-5.993 19.515.43 39.039.668 58.554.131 6.331-.177 12.662-.354 19.001-.408 10.111-.084 20.215.062 30.319.277 8.313.177 15.474 2.497 22.842 6.208 5.302 2.674 10.426 6.001 15.981 8.129.192-.453.369-.968.454-1.245.63-2.066.937-4.287 1.221-6.423.323-2.397.53-4.817 1.168-7.161.361-1.337.484-2.781.784-4.149.638-2.881 1.752-5.447 3.757-7.652 5.64-6.216 15.766-6.447 23.549-6.062 10.957.537 20.5 5.224 22.159 17.057.976 6.93-1.068 13.146-2.274 19.853-1.568 8.721-8.168 19.985-13.415 27.107-7.269 9.865-17.511 19.761-29.75 22.696-10.227 2.451-21.46.746-31.394-2.243-.307-.092-.615-.184-.93-.284 4.457 15.535 4.541 33.476-.837 48.558 16.158 16.274 11.855 36.373 5.785 56.304 2.858 1.313 5.54 3.035 7.891 5.132 4.018 3.588 7.215 8.475 7.745 13.945.63 6.439-2.612 11.94-8.183 15.067-6.162 3.45-14.222 3.634-21.091 2.966-4.072-.4-8.152-.63-12.231-.907-3.627-.245-7.261-.507-10.842-1.16-7.929-1.444-14.36-4.932-17.325-12.831-1.307-3.496-1.914-7.23-2.674-10.872-.784-3.719-1.645-7.491-3.051-11.025-2.581-6.5-6.223-10.457-13.43-10.926-7.276.476-10.749 4.787-13.177 11.325-1.368 3.688-2.19 7.591-2.927 11.448-.715 3.711-1.26 7.545-2.551 11.118-2.943 8.129-9.804 11.241-17.864 12.316-3.611.484-7.253.615-10.887.761-4.057.169-8.114.353-12.147.745-6.869.669-14.937.484-21.091-2.965-5.571-3.12-8.805-8.629-8.183-15.067.53-5.463 3.727-10.35 7.745-13.946a31.69 31.69 0 017.891-5.132c-6.07-19.931-10.373-40.03 5.785-56.303-5.378-15.075-5.294-33.023-.837-48.559h-.016z" fill="#9968FD"/><path fill-rule="evenodd" clip-rule="evenodd" d="M183.273 247.749a107.035 107.035 0 01-6.739 2.274c-9.373 2.82-20.122 4.51-29.78 2.197-11.456-2.75-21.168-12.27-27.975-21.521-4.856-6.592-11.394-17.656-12.862-25.816-1.122-6.231-3.158-12.462-2.259-18.877 1.437-10.219 9.727-13.915 19.239-14.384 6.623-.33 16.235-.307 21.099 5.048 1.636 1.798 2.504 3.888 3.019 6.231.307 1.414.446 2.92.822 4.295.576 2.121.799 4.564 1.091 6.754.308 2.297.653 4.71 1.337 6.923.307.999.968 2.82 1.836 3.48.654.492 1.875.069 2.528-.176 5.709-2.159 10.972-5.732 16.389-8.544 6.992-3.627 13.776-5.824 21.744-5.647 19.607.437 39.1.676 58.708.13 6.316-.177 12.624-.353 18.939-.407 10.073-.085 20.154.061 30.226.277 7.86.169 14.56 2.366 21.506 5.877 5.447 2.743 10.726 6.162 16.435 8.314.645.245 1.874.66 2.527.176.876-.653 1.537-2.481 1.837-3.48.676-2.221 1.029-4.626 1.337-6.923.292-2.19.507-4.633 1.091-6.754.376-1.375.507-2.888.822-4.295.515-2.343 1.383-4.425 3.019-6.231 4.864-5.355 14.476-5.378 21.099-5.048 9.512.469 17.802 4.165 19.239 14.384.899 6.407-1.137 12.639-2.259 18.877-1.468 8.152-8.006 19.224-12.862 25.816-6.807 9.251-16.519 18.771-27.975 21.521-9.65 2.313-20.399.623-29.781-2.197a107.226 107.226 0 01-6.738-2.274c6.439 17.018 6.938 37.925.454 54.336 17.533 16.15 11.978 36.803 5.608 57.287 3.527 1.26 6.838 3.158 9.628 5.647 3.419 3.058 6.269 7.261 6.722 11.925.508 5.217-2.105 9.535-6.607 12.055-5.54 3.104-13.123 3.181-19.27 2.581-4.103-.399-8.213-.637-12.332-.914-3.488-.23-7.053-.484-10.495-1.114-6.831-1.245-12.416-4.041-14.967-10.864-1.206-3.219-1.837-7.046-2.543-10.419-.815-3.895-1.737-7.829-3.204-11.532-3.035-7.661-7.714-12.409-16.32-12.893-8.697.492-13.207 5.601-16.089 13.361-1.429 3.85-2.289 7.922-3.065 11.948-.661 3.427-1.237 7.368-2.42 10.641-2.521 6.961-8.483 9.374-15.359 10.296-3.496.469-7.084.591-10.611.737-4.118.17-8.221.362-12.324.761-6.147.599-13.73.523-19.27-2.581-4.502-2.521-7.115-6.839-6.608-12.056.454-4.663 3.297-8.866 6.723-11.924 2.789-2.49 6.093-4.387 9.628-5.647-6.37-20.484-11.925-41.137 5.608-57.287-6.492-16.419-5.985-37.318.454-54.337v-.007z" fill="#000"/><path fill-rule="evenodd" clip-rule="evenodd" d="M192.516 238.844c-4.165 2.166-26.915 13.361-44.725 9.089-19.684-4.725-35.689-33.591-37.525-43.826-1.836-10.234-8.398-27.029 12.862-28.082 21.259-1.053 18.893 6.561 20.468 12.332 1.575 5.77.784 24.402 12.593 19.946 11.809-4.464 20.991-14.253 36.48-13.907 67.037 1.49 54.152-1.145 107.882 0 15.49.33 24.671 9.45 36.48 13.907 11.81 4.464 11.026-14.169 12.593-19.946 1.575-5.771-.783-13.385 20.469-12.332 21.259 1.053 14.698 17.848 12.862 28.082-1.837 10.235-17.849 39.101-37.526 43.826-17.81 4.272-40.56-6.923-44.724-9.089 10.941 17.594 13.468 45.016 4.364 64.486 19.469 15.535 12.585 35.95 5.37 59.092 19.808 3.773 28.106 27.875-3.542 24.787-18.148-1.768-30.379-.154-34.091-10.05-3.588-9.574-3.081-36.604-26.192-37.71-23.104 1.106-22.235 29.243-25.716 38.855-3.511 9.704-16.419 7.137-34.567 8.905-31.648 3.088-23.35-21.022-3.542-24.787-7.215-23.142-14.099-43.557 5.37-59.092-9.104-19.462-6.577-46.892 4.364-64.486h-.007z" fill="#FBA329"/><path fill-rule="evenodd" clip-rule="evenodd" d="M206.469 369.821c.322-1.644.583-3.396.845-4.725.991-5.164 2.159-10.265 4.003-15.198 5.801-15.497 17.372-25.754 34.513-26.577a17.306 17.306 0 011.545 0c16.887.807 28.566 10.573 34.621 25.786 1.92 4.825 3.157 9.811 4.225 14.882.315 1.514.653 3.588 1.084 5.394 2.151.415 5.57.73 9.081.983-2.274-3.987-2.735-8.328-1.36-12.746 2.574-8.252 6.431-19.27 6.593-27.898.115-6.132-1.76-9.889-6.623-13.769-5.909-4.71-7.753-12.608-4.556-19.454 6.653-14.222 4.779-35.896-3.45-49.119-3.896-6.262-3.15-14.076 1.859-19.493 5.01-5.417 12.747-6.754 19.293-3.35 8.413 4.379 23.956 10.004 33.507 7.714 6.001-1.437 12.554-8.759 16.15-13.615 2.805-3.795 8.375-12.708 9.259-17.372.307-1.721 1.375-5.939 1.89-9.12-.93-.046-2.29-.092-3.627-.069-.031.138-.069.269-.1.407-1.129 5.271-1.075 9.743-2.904 15.267-4.541 13.715-16.896 20.991-31.002 15.666-9.873-3.726-20.976-12.654-31.118-12.869-16.173-.346-32.001-.323-48.159.123-19.946.553-39.784.315-59.73-.123-4.387-.1-7.998 1.352-11.824 3.342-6.293 3.265-11.864 6.984-18.594 9.527-14.107 5.332-26.461-1.944-31.002-15.666-1.829-5.532-1.775-9.996-2.905-15.267a7.525 7.525 0 01-.099-.407 56.895 56.895 0 00-3.627.069c.515 3.189 1.583 7.407 1.89 9.12.884 4.664 6.454 13.577 9.259 17.372 3.588 4.856 10.149 12.178 16.15 13.615 9.55 2.29 25.094-3.335 33.507-7.714 6.546-3.404 14.275-2.059 19.293 3.35 5.009 5.409 5.762 13.231 1.867 19.493-8.229 13.23-10.104 34.897-3.45 49.119 3.196 6.846 1.352 14.744-4.556 19.454-4.864 3.88-6.739 7.637-6.623 13.769.161 8.636 4.018 19.646 6.592 27.898 1.383 4.425.914 8.766-1.368 12.762 1.645-.077 3.296-.146 4.956-.231 1.068-.054 3.012-.13 4.695-.322v-.008z" fill="#fff"/><path d="M69.844 228.532c16.481 0 29.842-16.56 29.842-36.987 0-20.428-13.36-36.988-29.842-36.988-16.481 0-29.842 16.56-29.842 36.988 0 20.427 13.36 36.987 29.842 36.987z" fill="#fff"/><g filter="url(#filter1_d_41_510)"><path fill-rule="evenodd" clip-rule="evenodd" d="M69.844 154.557c.545 0 1.083.023 1.621.054 10.119 5.924 17.118 18.678 17.118 33.469 0 20.43-13.36 36.987-29.842 36.987-.545 0-1.083-.015-1.62-.054C47 219.09 40 206.335 40 191.545c0-20.43 13.362-36.988 29.843-36.988z" fill="url(#paint1_linear_41_510)"/></g><path fill-rule="evenodd" clip-rule="evenodd" d="M40.002 197.746c2.758 0 5.002-2.789 5.002-6.201 0-3.411-2.252-6.2-5.002-6.2S35 188.134 35 191.545c0 3.412 2.251 6.201 5.002 6.201z" fill="#fff"/><path fill-rule="evenodd" clip-rule="evenodd" d="M176.358 173.466a53.168 53.168 0 01-11.717-10.211c-3.412-4.003-6.116-8.574-8.037-13.584a50.827 50.827 0 01-2.244-7.537 57.114 57.114 0 01-1.083-7.73c-.346-4.909-.092-10.073.768-15.343a72.758 72.758 0 011.529-7.084 2.867 2.867 0 01-.053-.254c-1.483-2.22-2.236-5.248-2.236-8.997 0-3.15 1.314-5.962 3.726-8.044a180.909 180.909 0 01-.069-12.578 61.856 61.856 0 016.769-8.03 62.364 62.364 0 00-6.761 8.022 169.11 169.11 0 011.375-17.295c1.944-14.521 5.816-28.067 11.502-40.26 3.15-6.739 6.746-12.893 10.68-18.28a80.548 80.548 0 011.598-2.135l.776-.984.238-.268c.238-.262.538-.592.945-.915l.453-.369.523-.33c.722-.453 1.529-.791 2.474-1.03l.069-.015h.069a8.478 8.478 0 011.844-.207c.246 0 .492.015.73.038.784.062 1.598.254 2.482.592l.077.023.069.038c.883.392 1.598.845 2.19 1.36.637.523 1.19 1.176 1.705 1.982.208.323.354.63.477.876l.107.23 1.314 2.974a53.44 53.44 0 001.391 2.974c.238.484.468.968.699 1.452 2.712 5.47 5.977 11.033 9.98 16.965.638.968 1.276 1.874 1.952 2.835.292.415.584.822.876 1.237l.568.776a117.2 117.2 0 002.375 3.18 88.785 88.785 0 001.521 1.96 140.694 140.694 0 002.843 3.511c2.612-.73 5.463-1.314 8.797-1.798 3.788-.553 7.768-.837 11.809-.852 4.065.015 8.037.3 11.833.852 3.342.484 6.185 1.06 8.797 1.798.415-.5.845-1.014 1.291-1.567.576-.7 1.076-1.33 1.537-1.921.43-.546.983-1.245 1.513-1.952.822-1.06 1.606-2.143 2.374-3.188l.584-.8c.292-.414.577-.829.869-1.236a93.993 93.993 0 001.943-2.812c4.019-5.955 7.292-11.518 10.012-17.034.215-.446.453-.93.691-1.414.5-1.022.976-1.982 1.383-2.966l1.306-2.98.108-.231c.115-.246.269-.554.484-.884a8.457 8.457 0 011.698-1.975c.592-.522 1.314-.968 2.19-1.367l.069-.03.069-.024c.891-.338 1.706-.53 2.482-.592a7.62 7.62 0 01.73-.038c.576 0 1.175.07 1.844.2h.069l.069.03c.953.239 1.759.577 2.474 1.022l.523.338.461.377c.399.315.691.638.929.899l.246.276.761.976a76.78 76.78 0 011.621 2.152c3.918 5.378 7.514 11.525 10.664 18.27 5.686 12.194 9.558 25.74 11.502 40.261a168.652 168.652 0 011.376 17.295 62.463 62.463 0 00.007.008c.123 4.149.1 8.352-.069 12.578 2.413 2.082 3.726 4.894 3.726 8.044 0 3.749-.752 6.769-2.243 8.989-.015.085-.038.17-.054.254a75.684 75.684 0 011.529 7.092c.861 5.278 1.122 10.441.768 15.336a56.781 56.781 0 01-1.083 7.721 50.973 50.973 0 01-2.243 7.553c-1.929 5.017-4.633 9.581-8.037 13.576a53.213 53.213 0 01-11.748 10.227c1.537 8.16-.561 31.448-63.695 31.448-66.937 0-67.582-22.097-66.453-31.471l-.007.015z" fill="#9968FD"/><path fill-rule="evenodd" clip-rule="evenodd" d="M295.626 186.981c-1.829-6.123-2.613-8.444-3.289-10.526H190.556c-.683 2.098-1.521 4.595-3.373 10.795a121.747 121.747 0 01-3.265-1.921c2.443-8.144 3.542-11.24 3.557-11.294a1.842 1.842 0 011.745-1.26h104.447c.791 0 1.498.507 1.744 1.26.015.054 1.037 2.927 3.442 10.91a146.003 146.003 0 01-3.227 2.044v-.008z" fill="#433B72"/><path fill-rule="evenodd" clip-rule="evenodd" d="M295.718 187.304c-1.836-6.147-2.712-8.774-3.381-10.849H190.564c-.676 2.098-1.429 4.28-3.288 10.503a104.408 104.408 0 01-3.266-1.921c2.436-8.121 3.427-10.864 3.473-11.002a1.834 1.834 0 011.744-1.26h104.447c.792 0 1.499.507 1.744 1.26.047.138 1.138 3.265 3.535 11.233a146.003 146.003 0 01-3.227 2.044l-.008-.008z" fill="#000"/><path fill-rule="evenodd" clip-rule="evenodd" d="M241.451 170.116h59.2s12.662 28.751-59.2 28.751c-71.862 0-59.2-28.751-59.2-28.751h59.2z" fill="#9968FD"/><path fill-rule="evenodd" clip-rule="evenodd" d="M241.451 170.116h59.2s.123.284.276.791c-2.466 8.444-14.175 19.869-59.476 19.869s-57.003-11.425-59.477-19.869c.154-.507.277-.791.277-.791h59.2z" fill="#000"/><path fill-rule="evenodd" clip-rule="evenodd" d="M183.588 171.961c-.477 1.874-.961 5.9 1.851 10.157 4.495 6.8 17.856 14.913 56.012 14.913 38.155 0 51.516-8.113 56.011-14.913 2.812-4.257 2.328-8.275 1.852-10.157H183.588zm110.248 18.708c-3.696 2.106-7.415 3.857-11.556 5.287-9.988 3.134-23.434 4.725-40.268 4.763a270.248 270.248 0 01-11.256-.23c-5.025-.223-9.689-.615-13.984-1.168-10.35-1.398-18.763-3.972-27.191-8.321-3.127-2.005-5.548-4.318-7.261-6.938-4.841-7.422-1.875-14.391-1.744-14.683a1.835 1.835 0 011.682-1.099h118.393c.73 0 1.39.431 1.682 1.099.131.292 3.104 7.253-1.744 14.683-1.613 2.474-3.872 4.679-6.753 6.607z" fill="#000"/><path fill-rule="evenodd" clip-rule="evenodd" d="M263.571 182.917a223.563 223.563 0 01-22.097 1.091h-.031c-7.384 0-14.767-.361-22.128-1.091-7.176-.861-13.546-2.129-19.208-3.711-61.682-17.288-37.841-73.23-37.841-73.23-5.578-55.789 14.599-88.174 24.026-99.983 1.944-2.428 5.755-1.86 6.954 1.006 9.542 22.927 26.092 41.137 26.092 41.137 2.559-.9 5.425-1.575 8.229-2.075a78.637 78.637 0 0127.744 0c2.805.5 5.671 1.168 8.229 2.075 0 0 16.542-18.21 26.093-41.137 1.198-2.866 5.009-3.434 6.953-1.006 9.428 11.81 29.612 44.194 24.026 99.983 0 0 28.413 66.66-57.041 76.933v.008z" fill="#FBA329"/><path fill-rule="evenodd" clip-rule="evenodd" d="M194.383 175.756a83.208 83.208 0 01-2.298-.891l-1.621-.669c-.538-.23-1.068-.484-1.598-.722-1.068-.469-2.105-1.014-3.142-1.537-2.052-1.098-4.073-2.251-5.97-3.573-3.834-2.589-7.307-5.67-10.219-9.204a42.04 42.04 0 01-6.808-11.809c-1.605-4.28-2.52-8.813-2.85-13.4-.307-4.595-.069-9.243.645-13.83a68.618 68.618 0 011.214-6.101c.369 4.349 1.606 10.235 4.341 15.951-.015.507-.03 1.014-.03 1.514 0 22.504 18.632 37.832 28.328 44.286l.008-.015zm-26.462-83.21a2.693 2.693 0 00-.099-.27c-1.199-3.165 2.911-7.49 6.377-7.49.292 0 .584.03.86.091 0 0 .799-9.634 8.398-9.634.354 0 .715.023 1.099.061l1.652-.745s2.766 2.228 1.874 4.172c-1.26 2.758-7.86-.008-8.59 8.544a3.324 3.324 0 01-.453 1.413c-4.979 1.268-8.774 2.782-11.118 3.85v.008z" fill="#BE6F00"/><path fill-rule="evenodd" clip-rule="evenodd" d="M288.496 175.763c9.896-6.584 29.127-22.435 28.32-45.731v-.077c.016.508.031 1.015.031 1.514 0 22.512-18.655 37.848-28.344 44.302l-.007-.008zm-94.121-.015c-9.696-6.454-28.321-21.79-28.328-44.287 0-.499.007-1.006.03-1.513v.077c-.806 23.28 18.402 39.123 28.298 45.715v.008z" fill="#4A4A8E"/><path fill-rule="evenodd" clip-rule="evenodd" d="M241.481 184.008h-.061c-7.307 0-14.614-.361-21.897-1.068a.232.232 0 00-.169-.238c-4.672-1.114-9.305-2.144-13.861-3.419-3.757-1.037-7.484-2.175-11.103-3.527-9.903-6.592-29.112-22.435-28.297-45.716.23.646.484 1.291.753 1.944 4.894 3.181 31.486 19.931 39.185 14.007 7.975-6.139 9.389-27.445 16.05-38.97 3.404-5.885 10.787-10.211 17.564-10.434 9.028-.292 16.827 4.003 20.991 11.886 6.331 11.986 8.329 32.04 16.158 37.51 11.971 8.367 31.394-6.139 40.038-15.95v-.077c0 20.245-12.171 35.059-28.313 45.808-3.619 1.352-7.338 2.466-11.087 3.511-1.145.292-2.282.63-3.435.914-1.152.277-2.297.6-3.457.869-1.16.253-2.313.568-3.481.829-1.16.269-2.328.538-3.496.846a.192.192 0 00-.138.184v.015a224.756 224.756 0 01-21.928 1.076h-.016zm-73.882-50.303l.038.085-.023-.046-.023-.039h.008zm.645 1.306l.023.039.023.046-.046-.085zm.277.523l.015.031.031.053-.046-.084z" fill="#fff"/><path fill-rule="evenodd" clip-rule="evenodd" d="M221.935 151.315c-1.344-.806-3.096-2.12-4.372-4.003a26.314 26.314 0 002.421-1.813c.422.369.875.692 1.367.984 0 1.26.115 2.973.584 4.832zm39.101-.046c.461-1.844.576-3.534.568-4.786.476-.285.922-.6 1.337-.953.753.63 1.544 1.229 2.39 1.782-1.253 1.852-2.966 3.151-4.295 3.957zm-6.124-6.853h-.069c-9.743 0-11.479-9.835-11.548-10.25a1.804 1.804 0 00-.3-.753l2.405-.883s3.02 8.697 9.527 8.697c1.322 0 2.367-.384 3.197-.991.66.937 1.375 1.844 2.159 2.712-1.284.961-3.081 1.46-5.363 1.468h-.008zm-26.799 0h-.07c-2.305-.008-4.118-.515-5.401-1.498a28.182 28.182 0 002.128-2.69c.822.607 1.875.991 3.189.991 6.508 0 9.527-8.697 9.527-8.697l2.459.899a1.846 1.846 0 00-.292.73c-.069.422-1.806 10.257-11.548 10.257l.008.008z" fill="#fff"/><path fill-rule="evenodd" clip-rule="evenodd" d="M288.503 175.764c9.689-6.454 28.336-21.783 28.344-44.302 0-.5-.007-1.007-.031-1.514 2.743-5.724 3.98-11.602 4.342-15.951a74.431 74.431 0 011.213 6.101c.715 4.587.953 9.235.646 13.83-.331 4.587-1.245 9.12-2.851 13.4a42.026 42.026 0 01-6.807 11.809c-2.912 3.534-6.377 6.615-10.219 9.204-1.898 1.33-3.918 2.474-5.97 3.581-1.045.522-2.074 1.068-3.142 1.537-.53.238-1.061.491-1.598.722l-1.622.676c-.768.315-1.536.615-2.312.899l.007.008zm26.485-83.219c-2.344-1.067-6.139-2.581-11.118-3.849a3.412 3.412 0 01-.461-1.429c-.768-8.62-7.653-6.308-8.582-8.536-.822-1.967 1.875-4.172 1.875-4.172l1.644.745a9.104 9.104 0 011.098-.061c7.607 0 8.398 9.635 8.398 9.635.277-.07.569-.093.861-.093 3.465 0 7.576 4.318 6.377 7.492-.038.092-.069.184-.1.269h.008z" fill="#BE6F00"/><path fill-rule="evenodd" clip-rule="evenodd" d="M188.067 4.725s-.023 0-.038.007c.015 0 .023 0 .038-.007z" fill="#A2A2D2"/><path fill-rule="evenodd" clip-rule="evenodd" d="M289.641 7.015c-9.551 22.927-26.093 41.129-26.093 41.129-2.559-.9-5.424-1.575-8.229-2.075a78.602 78.602 0 00-27.737 0c-2.804.5-5.67 1.176-8.228 2.075 0 0-16.55-18.21-26.093-41.129-.891-2.144-3.242-2.996-5.186-2.282.123-.038.246.046.369.346 8.874 21.313 23.895 42.358 27.905 47.014a2.394 2.394 0 002.536.722c2.389-.737 4.956-1.321 7.476-1.767a94.53 94.53 0 013.25-.515c1.275 2.013 6.093 3.52 11.832 3.52 5.74 0 10.557-1.499 11.84-3.52 1.083.154 2.174.315 3.25.515 2.52.453 5.094 1.03 7.476 1.767.914.285 1.905 0 2.536-.722 4.01-4.656 18.447-24.264 27.329-45.577.538-1.291 1.567-.1 2.728-.484-1.937-2.451-5.763-1.89-6.969.983h.008z" fill="#BE6F00"/><path fill-rule="evenodd" clip-rule="evenodd" d="M186.292 6.023c.868.285 1.337-1.09 1.744-1.283a4.114 4.114 0 00-1.744 1.283z" fill="#A2A2D2"/><path fill-rule="evenodd" clip-rule="evenodd" d="M241.482 135.71s-.015.071-.031.11a.647.647 0 01-.031-.11h.062z" fill="#FF6C8B"/><path fill-rule="evenodd" clip-rule="evenodd" d="M254.843 148.088c-7.046 0-11.203-4.064-13.362-8.113-2.166 4.049-6.323 8.113-13.361 8.113h-.084c-3.742-.015-6.654-1.091-8.667-3.188-2.781-2.897-2.682-6.677-2.674-6.839a1.844 1.844 0 011.906-1.774 1.848 1.848 0 011.774 1.905c0 .008-.03 2.428 1.675 4.187 1.299 1.33 3.312 2.014 6.001 2.021h.069c9.743 0 11.479-9.834 11.548-10.257a1.84 1.84 0 011.813-1.544c.907 0 1.668.653 1.814 1.544.069.415 1.805 10.25 11.548 10.25h.069c2.681-.016 4.702-.692 6.001-2.021 1.713-1.752 1.682-4.172 1.682-4.195-.023-1.007.776-1.86 1.783-1.883a1.84 1.84 0 011.89 1.767c0 .162.107 3.934-2.674 6.839-2.013 2.097-4.925 3.165-8.667 3.188h-.084z" fill="#000"/><path fill-rule="evenodd" clip-rule="evenodd" d="M246.284 120.851a13.521 13.521 0 00-9.666 0c-2.42.93-4.833 2.643-4.833 5.785 0 6.285 5.179 10.55 9.666 10.55s9.665-4.265 9.665-10.55c0-3.142-2.42-4.855-4.832-5.785z" fill="#000"/><path fill-rule="evenodd" clip-rule="evenodd" d="M247.098 124.27c0 .676-2.528 1.229-5.655 1.229-3.127 0-5.655-.546-5.655-1.229 0-.684 2.528-1.23 5.655-1.23 3.127 0 5.655.553 5.655 1.23z" fill="#fff"/><path fill-rule="evenodd" clip-rule="evenodd" d="M168.137 94.966a12.64 12.64 0 01-.269-1.844c.084.614.176 1.229.269 1.844z" fill="#FF7C88"/><path fill-rule="evenodd" clip-rule="evenodd" d="M184.548 75.273l.008.039c-.177-.031-.346-.054-.515-.077-1.007-.138-1.905-.13-2.697-.008a6.83 6.83 0 00-1.106.254 3.247 3.247 0 00-.261.084c-.17.062-.331.13-.485.2-.13.061-.261.13-.384.192a6.48 6.48 0 00-.876.592 5.13 5.13 0 00-.522.476 4.846 4.846 0 00-.461.522 6.96 6.96 0 00-.53.753 9.887 9.887 0 00-.615 1.199 3.94 3.94 0 00-.161.415 13.274 13.274 0 00-.507 1.775v.03l-.069.346v.031c-.054.3-.093.576-.123.845l-.023.223-.023.269c-.062.784-.047 1.29-.047 1.29-3.396 0-5.263 1.3-6.254 2.966-1.037 1.752-1.122 3.911-1.006 5.425a67.55 67.55 0 01-.208-1.667 110.76 110.76 0 01-.661-7.945c-1.728-38.678 18.033-67.951 21.913-73.306.069-.085.123-.17.169-.239.2-.269.346-.46.415-.553.023-.03.039-.046.046-.054l.016-.015c-5.263 9.412-7.43 20.43-8.022 30.726-1.075 18.294 2.797 34.344 3.012 35.22l-.023-.008z" fill="#fff"/><path fill-rule="evenodd" clip-rule="evenodd" d="M184.548 75.273l.008.039c-.177-.031-.346-.054-.515-.077-1.007-.13-1.905-.13-2.697-.008a7.78 7.78 0 00-1.367.338c-.17.062-.323.13-.485.2-.13.061-.261.13-.384.192a6.48 6.48 0 00-.876.592 4.401 4.401 0 00-.522.476 4.846 4.846 0 00-.461.522 6.96 6.96 0 00-.53.753 8.428 8.428 0 00-.615 1.199 3.94 3.94 0 00-.161.415c-.231.6-.392 1.206-.507 1.775v.03l-.069.346v.031c-.054.3-.093.576-.123.845l-.023.223-.023.269c-.062.784-.047 1.29-.047 1.29-3.288.339-5.194 1.522-6.254 2.966-.86 1.176-1.168 2.536-1.221 3.758-.323-2.69-.538-5.34-.661-7.945.853-1.03 1.944-1.698 2.804-2.113a2.504 2.504 0 001.414-2.19c.161-5.693 3.212-8.275 5.14-9.335.899-.5 1.414-1.498 1.26-2.512-4.787-32.124 8.191-52.762 11.287-57.157.069-.084.123-.168.169-.238.2-.269.346-.46.415-.553a.428.428 0 01.046-.054l.015-.015c-4.879 10.764-7.168 21.321-8.021 30.726-1.798 19.746 2.758 34.42 3.012 35.22l-.008-.008z" fill="#fff"/><path fill-rule="evenodd" clip-rule="evenodd" d="M189.788 9.443c-1.421 3.819-2.558 7.714-3.565 11.625l-.722 2.942c-.208.992-.438 1.967-.638 2.958-.415 1.975-.738 3.965-1.029 5.955-.277 1.998-.523 3.995-.669 6-.038.5-.092 1-.131 1.507l-.092 1.506c-.077.998-.092 2.005-.13 3.011-.1 4.026.023 8.045.368 12.056.354 4.01.953 7.99 1.76 11.924.215.984.399 1.975.645 2.943l.73 2.927v.046c0-.046.054.154.062.254.015.123.023.246.015.376a1.988 1.988 0 01-.638 1.33 1.972 1.972 0 01-1.429.507c-.1 0-.307-.039-.261-.031h-.015l-.039-.008-.307-.046a10.1 10.1 0 00-1.913-.061c-.83.069-1.614.245-2.251.584-.654.322-1.145.783-1.552 1.36-.392.584-.669 1.329-.823 2.143-.153.822-.199 1.721-.161 2.635l.015.346v.131c0 .054.008.192 0 .292a2.136 2.136 0 01-1.513 1.928c-.192.07-.53.093-.469.085h-.077l-.307.038a8.387 8.387 0 00-1.237.254 7.373 7.373 0 00-2.167.991c-.622.43-1.145.945-1.536 1.621-.4.669-.654 1.49-.807 2.39-.154.906-.177 1.874-.185 2.896v.016a.612.612 0 01-1.16.269 10.181 10.181 0 01-.968-3.174c-.061-.576-.107-1.16-.046-1.767.015-.3.069-.607.123-.914.077-.3.146-.615.254-.914.391-1.222 1.198-2.336 2.182-3.166.991-.837 2.143-1.368 3.296-1.713a11.42 11.42 0 012.213-.438l.115-.016c.123-.015-.154.008-.277.054a1.52 1.52 0 00-1.083 1.36v.192-.054l-.008-.107-.023-.423c-.061-1.121-.031-2.282.177-3.473.215-1.183.614-2.42 1.352-3.542a7.426 7.426 0 011.329-1.529 7.507 7.507 0 011.683-1.106c1.191-.592 2.443-.845 3.65-.93a12.646 12.646 0 011.79.008c.292.023.591.054.891.092.146.023.3.046.453.077h.054l.031.015c.061.016-.131-.023-.215-.023-.446-.03-.93.146-1.253.438-.33.292-.53.722-.561 1.16 0 .116 0 .216.008.323 0 .085.054.27.039.208v-.047l-.73-3.034c-.246-1.007-.423-2.036-.638-3.05-.791-4.08-1.36-8.206-1.675-12.355a99.076 99.076 0 01-.192-12.463c.054-1.037.1-2.074.192-3.111l.131-1.552c.046-.515.107-1.03.161-1.545.223-2.067.545-4.118.899-6.162.761-4.08 1.729-8.121 3.081-12.047a60.215 60.215 0 012.32-5.77c.876-1.875 1.837-3.712 3.02-5.433a.24.24 0 01.346-.061.25.25 0 01.092.292v.015l.015-.015z" fill="#984200"/><path fill-rule="evenodd" clip-rule="evenodd" d="M314.757 94.966c.031-.131.192-.846.269-1.844-.084.614-.176 1.229-.269 1.844z" fill="#FF7C88"/><path fill-rule="evenodd" clip-rule="evenodd" d="M298.353 75.273l-.007.039c.176-.031.345-.054.514-.077 1.007-.138 1.906-.13 2.697-.008.392.054.761.146 1.107.254.084.023.176.053.261.084.169.062.33.13.484.2.131.061.261.13.384.192a6.48 6.48 0 011.406 1.068c.169.169.315.338.461.522a6.96 6.96 0 01.53.753c.239.392.438.792.615 1.199.062.138.115.269.161.415.223.607.385 1.206.507 1.775v.03c.024.116.047.231.062.346v.031c.054.3.092.576.123.845 0 .077.015.146.023.223.008.092.008.184.023.269.069.784.046 1.29.046 1.29 3.396 0 5.263 1.3 6.254 2.966 1.038 1.752 1.122 3.911 1.007 5.425.077-.561.153-1.114.207-1.667.323-2.69.538-5.34.661-7.945 1.729-38.678-18.033-67.951-21.913-73.306-.069-.085-.123-.17-.169-.239-.2-.269-.346-.46-.415-.553a.428.428 0 00-.046-.054l-.015-.015c5.263 9.412 7.43 20.43 8.021 30.726 1.076 18.294-2.797 34.344-3.012 35.22l.023-.008z" fill="#fff"/><path fill-rule="evenodd" clip-rule="evenodd" d="M298.353 75.273l-.007.039c.177-.031.346-.054.515-.077 1.006-.13 1.905-.13 2.696-.008a7.794 7.794 0 011.368.338c.169.062.323.13.484.2.131.061.254.13.384.192.315.177.607.377.876.592.192.146.369.307.53.476.169.169.315.338.461.522a6.96 6.96 0 01.53.753c.239.385.446.792.615 1.199.062.138.115.269.161.415.231.6.392 1.206.508 1.775v.03c.023.116.046.231.061.346v.031c.062.3.1.576.123.845 0 .077.015.146.023.223l.023.269c.069.784.046 1.29.046 1.29 3.296.339 5.194 1.522 6.254 2.966.861 1.176 1.161 2.536 1.214 3.758.323-2.69.538-5.34.661-7.945-.86-1.03-1.944-1.698-2.812-2.113a2.504 2.504 0 01-1.414-2.19c-.161-5.693-3.211-8.275-5.14-9.335-.899-.5-1.414-1.498-1.26-2.512 4.787-32.124-8.19-52.762-11.294-57.157-.07-.084-.123-.168-.169-.238-.2-.269-.346-.46-.415-.553-.023-.03-.039-.046-.046-.054l-.016-.015c4.879 10.764 7.169 21.321 8.022 30.726 1.798 19.746-2.759 34.42-3.012 35.22l.03-.008z" fill="#E5E5E5"/><path fill-rule="evenodd" clip-rule="evenodd" d="M263.548 182.732c1.168-.307 2.328-.576 3.496-.845 1.16-.262 2.313-.577 3.48-.83 1.161-.269 2.305-.592 3.458-.868 1.152-.277 2.29-.623 3.434-.915 4.557-1.26 9.059-2.643 13.4-4.41l1.621-.676c.538-.23 1.061-.484 1.598-.722 1.068-.469 2.098-1.014 3.143-1.537 2.051-1.099 4.072-2.251 5.97-3.58 3.841-2.59 7.307-5.671 10.219-9.205a42.06 42.06 0 006.807-11.809c1.598-4.28 2.52-8.813 2.851-13.4.307-4.595.069-9.243-.646-13.83a70.862 70.862 0 00-2.866-11.832 38.963 38.963 0 00-.576-1.575l-.015-.039a1.787 1.787 0 01-.123-.868c1.344-13.361 1.306-26.868-.461-40.153-1.775-13.269-5.317-26.323-10.964-38.432-2.828-6.039-6.139-11.863-10.058-17.226-.484-.676-.991-1.33-1.49-1.99l-.385-.492-.192-.245-.092-.116-.061-.061c-.085-.085-.154-.185-.254-.246l-.131-.115c-.053-.031-.099-.054-.145-.085a2.076 2.076 0 00-1.322-.3c-.238 0-.461.085-.684.162-.207.107-.422.207-.584.369-.184.138-.322.33-.453.522-.069.1-.108.215-.169.315l-.254.576-1.037 2.367c-.668 1.59-1.467 3.112-2.205 4.664-3.05 6.162-6.592 12.047-10.419 17.725-.945 1.43-1.951 2.812-2.927 4.218-1.014 1.376-2.013 2.766-3.058 4.126-.515.684-1.045 1.36-1.575 2.036a77.59 77.59 0 01-1.606 2.006 102.956 102.956 0 01-3.35 3.957 1.815 1.815 0 01-1.944.507h-.023c-3.35-1.168-6.961-1.906-10.572-2.428a76.325 76.325 0 00-10.918-.784 77.468 77.468 0 00-10.918.784c-3.611.522-7.215 1.252-10.572 2.412h-.023a1.79 1.79 0 01-1.944-.5 110.722 110.722 0 01-3.35-3.956 96.647 96.647 0 01-1.606-2.005c-.53-.677-1.06-1.345-1.575-2.029-1.045-1.36-2.051-2.743-3.066-4.126-.983-1.406-1.99-2.789-2.927-4.218-3.826-5.678-7.368-11.563-10.418-17.725-.738-1.552-1.537-3.074-2.206-4.664l-1.037-2.367-.253-.576c-.062-.1-.1-.223-.169-.315-.131-.192-.269-.384-.454-.522-.169-.162-.376-.262-.584-.37-.222-.068-.445-.153-.683-.16a2.124 2.124 0 00-1.322.3c-.046.03-.1.06-.146.084l-.131.115c-.099.061-.169.161-.253.246l-.062.061-.092.116-.192.245-.384.492a63.958 63.958 0 00-1.491 1.99c-3.918 5.363-7.23 11.187-10.057 17.226-5.647 12.101-9.189 25.163-10.964 38.424-1.767 13.285-1.806 26.785-.461 40.153.023.315-.023.607-.131.884v.023a27.78 27.78 0 00-.591 1.575 50.67 50.67 0 00-.538 1.652 72.893 72.893 0 00-.938 3.35 71.461 71.461 0 00-1.39 6.823c-.715 4.587-.953 9.235-.646 13.83.331 4.587 1.245 9.12 2.851 13.399a42.066 42.066 0 006.807 11.81c2.912 3.534 6.385 6.615 10.219 9.204 1.898 1.322 3.926 2.474 5.97 3.573 1.045.523 2.074 1.068 3.142 1.537.531.238 1.061.491 1.599.722l1.621.668c4.341 1.76 8.843 3.166 13.399 4.418 4.557 1.276 9.197 2.305 13.861 3.419.115.031.192.146.162.262a.223.223 0 01-.216.169c-4.809-.046-9.611-.569-14.367-1.429-1.191-.208-2.367-.484-3.55-.738-1.183-.261-2.351-.592-3.527-.884-1.16-.345-2.328-.683-3.48-1.06l-1.721-.592-.861-.299-.853-.331-1.705-.66c-.569-.223-1.122-.477-1.683-.715-1.13-.461-2.228-1.006-3.327-1.529-2.182-1.106-4.349-2.266-6.4-3.626-4.141-2.659-7.937-5.932-11.164-9.72-3.227-3.788-5.801-8.167-7.583-12.816a47.812 47.812 0 01-2.129-7.153 54.051 54.051 0 01-1.029-7.36c-.354-4.941-.046-9.889.745-14.729a70.265 70.265 0 011.567-7.192 58.489 58.489 0 011.068-3.526c.192-.584.4-1.168.615-1.745.223-.591.43-1.137.699-1.767l-.138.907c-1.368-13.607-1.337-27.399.476-41.006 1.821-13.592 5.448-27.007 11.272-39.492 2.919-6.24 6.338-12.255 10.418-17.84.507-.7 1.03-1.392 1.56-2.075l.4-.515.199-.254.108-.13.154-.17c.199-.222.407-.453.653-.645l.361-.292.392-.253c.522-.33 1.114-.546 1.713-.7.607-.122 1.222-.184 1.829-.115.614.039 1.206.208 1.774.43.561.254 1.099.554 1.56.969.477.391.868.883 1.199 1.398.169.261.284.538.422.807l.262.584 1.006 2.29c.645 1.536 1.421 3.019 2.136 4.532 2.966 5.993 6.423 11.748 10.173 17.303.922 1.399 1.913 2.759 2.866 4.134.991 1.352 1.974 2.712 2.996 4.041.507.669 1.022 1.33 1.537 1.99a99.565 99.565 0 001.567 1.96 107.331 107.331 0 003.22 3.803l-1.975-.5c3.719-1.283 7.483-2.036 11.264-2.589a80.293 80.293 0 0111.44-.822c3.826.015 7.653.269 11.441.822 3.78.546 7.545 1.306 11.263 2.59l-1.974.499a115.94 115.94 0 003.219-3.803 94.876 94.876 0 001.567-1.96 88.924 88.924 0 001.537-1.99c1.022-1.329 2.005-2.689 2.997-4.041.96-1.375 1.951-2.735 2.873-4.134 3.75-5.555 7.207-11.317 10.173-17.31.714-1.506 1.498-2.99 2.136-4.526l1.006-2.29.262-.583c.138-.27.253-.553.422-.807.331-.515.722-1.007 1.199-1.398.461-.415 1.006-.715 1.559-.969.569-.222 1.168-.391 1.775-.43.607-.069 1.23 0 1.829.115.599.154 1.191.37 1.713.7l.392.246.361.292c.246.192.446.414.653.645l.154.169.108.13.199.254.4.515a84.41 84.41 0 011.56 2.074c4.079 5.594 7.499 11.61 10.418 17.841 5.824 12.485 9.458 25.9 11.279 39.492 1.806 13.608 1.844 27.399.477 41.006l-.139-.906c.269.63.477 1.183.7 1.774.215.577.422 1.161.614 1.745a71.807 71.807 0 011.068 3.526 71.668 71.668 0 011.568 7.184c.791 4.841 1.091 9.796.745 14.729a54.225 54.225 0 01-1.03 7.361 47.691 47.691 0 01-2.128 7.153c-1.79 4.656-4.356 9.028-7.583 12.816a50.58 50.58 0 01-11.164 9.719c-2.059 1.36-4.226 2.52-6.408 3.626-1.107.523-2.205 1.068-3.335 1.529-.561.239-1.121.492-1.682.715l-1.706.661-.853.33-.86.3-1.722.591c-1.152.377-2.32.715-3.48 1.068-1.176.308-2.343.623-3.519.892-1.183.246-2.359.53-3.55.73l-1.782.307c-.6.1-1.191.207-1.79.277-1.199.153-2.39.315-3.589.422-1.198.115-2.397.208-3.595.284-1.207.046-2.405.093-3.612.1a.187.187 0 01-.184-.184c0-.085.054-.161.138-.177l-.038.031z" fill="#000"/><path fill-rule="evenodd" clip-rule="evenodd" d="M181.275 72.254c28.444 6.715 47.544 19.14 47.544 33.361 0 5.263-2.62 10.288-7.368 14.859 12.147-7.691 25.601-7.383 40.207 0-4.741-4.579-7.368-9.596-7.368-14.859 0-14.053 18.662-26.362 46.568-33.13a72.032 72.032 0 00-5.862-5.356H186.753a72.297 72.297 0 00-5.478 5.117v.008z" fill="#9355F7"/><path fill-rule="evenodd" clip-rule="evenodd" d="M197.679 69.757c21.352 0 38.67 17.31 38.67 38.67 0 21.359-17.31 38.67-38.67 38.67-19.846 0-36.204-14.96-38.409-34.214l-3.642-.423a1.37 1.37 0 01-1.199-1.513l1.99-17.042a1.371 1.371 0 011.514-1.198l4.203.491c5.916-13.776 19.6-23.434 35.551-23.434l-.008-.007zm87.574 0c-21.352 0-38.67 17.31-38.67 38.67 0 21.359 17.311 38.67 38.67 38.67 19.846 0 36.204-14.96 38.409-34.214l3.642-.423a1.37 1.37 0 001.199-1.513l-1.99-17.042a1.371 1.371 0 00-1.514-1.198l-4.203.491c-5.916-13.776-19.6-23.434-35.55-23.434l.007-.007z" fill="#000"/><path fill-rule="evenodd" clip-rule="evenodd" d="M281.419 69.949h-79.906c19.554 1.928 34.836 18.417 34.836 38.478a38.558 38.558 0 01-2.958 14.859c4.879-7.691 10.288-7.383 16.166 0a38.57 38.57 0 01-2.958-14.859c0-20.061 15.282-36.557 34.836-38.478h-.016z" fill="#000"/><path d="M224.761 130.878c13.68-13.68 13.68-35.858 0-49.538-13.679-13.68-35.858-13.68-49.537 0-13.679 13.68-13.679 35.858 0 49.538 13.679 13.679 35.858 13.679 49.537 0z" fill="#333"/><path fill-rule="evenodd" clip-rule="evenodd" d="M282.933 71.078c-19.347 0-35.028 15.682-35.028 35.029 0 19.346 15.681 35.028 35.028 35.028s35.028-15.682 35.028-35.028c0-19.347-15.681-35.029-35.028-35.029z" fill="#333"/><path fill-rule="evenodd" clip-rule="evenodd" d="M201.505 69.949H239.1v11.517h-13.715c-6.193-6.362-14.545-10.595-23.88-11.517z" fill="#4D4D4D"/><path fill-rule="evenodd" clip-rule="evenodd" d="M205.124 74.59h29.404v2.235h-23.634a77.634 77.634 0 00-5.77-2.235z" fill="#fff"/><path d="M229.087 109.086c2.583-15.86-8.18-30.812-24.041-33.395-15.861-2.583-30.812 8.18-33.395 24.041-2.583 15.861 8.18 30.813 24.041 33.396 15.861 2.583 30.812-8.181 33.395-24.042zm74.04 15.904c11.363-11.363 11.363-29.786 0-41.149s-29.786-11.363-41.149 0-11.363 29.786 0 41.149 29.786 11.363 41.149 0z" fill="#666"/><path fill-rule="evenodd" clip-rule="evenodd" d="M201.912 76.226c14.722 0 26.654 11.932 26.654 26.653 0 14.722-11.932 26.654-26.654 26.654-14.721 0-26.653-11.932-26.653-26.654 0-14.721 11.932-26.653 26.653-26.653zm79.1 0c-14.721 0-26.653 11.932-26.653 26.653 0 14.722 11.932 26.654 26.653 26.654 14.721 0 26.654-11.932 26.654-26.654 0-14.721-11.933-26.653-26.654-26.653z" fill="#1A1A1A"/><path fill-rule="evenodd" clip-rule="evenodd" d="M280.866 79.115c-13.046 0-23.618 10.572-23.618 23.619 0 13.046 10.572 23.618 23.618 23.618s23.619-10.572 23.619-23.618c0-13.047-10.573-23.619-23.619-23.619z" fill="url(#paint2_linear_41_510)"/><path fill-rule="evenodd" clip-rule="evenodd" d="M202.058 79.115c-13.046 0-23.618 10.572-23.618 23.619 0 13.046 10.572 23.618 23.618 23.618 13.047 0 23.619-10.572 23.619-23.618 0-13.047-10.572-23.619-23.619-23.619z" fill="url(#paint3_linear_41_510)"/><path fill-rule="evenodd" clip-rule="evenodd" d="M179.669 123.824a4.256 4.256 0 11.002 8.512 4.256 4.256 0 01-.002-8.512z" fill="#1A1A1A"/><path fill-rule="evenodd" clip-rule="evenodd" d="M179.669 124.593a3.498 3.498 0 013.496 3.495 3.498 3.498 0 01-3.496 3.496 3.499 3.499 0 01-3.496-3.496 3.499 3.499 0 013.496-3.495z" fill="#fff"/><path fill-rule="evenodd" clip-rule="evenodd" d="M170.78 129.487l17.479 12.393a1.3 1.3 0 01.3 1.829l-2.282 3.165a1.34 1.34 0 01-1.844.307l-17.48-12.393a1.3 1.3 0 01-.299-1.828l2.282-3.166a1.34 1.34 0 011.844-.307z" fill="#333"/><path fill-rule="evenodd" clip-rule="evenodd" d="M172.024 131.723l13.692 9.712c.461.33.569.976.238 1.429l-1.329 1.836c-.33.461-.984.569-1.445.238l-13.699-9.711a1.033 1.033 0 01-.238-1.437l1.329-1.836a1.042 1.042 0 011.445-.239l.007.008z" fill="#000"/><path fill-rule="evenodd" clip-rule="evenodd" d="M281.419 69.949h-37.594v11.517h13.715c6.185-6.362 14.544-10.595 23.879-11.517z" fill="#4D4D4D"/><path fill-rule="evenodd" clip-rule="evenodd" d="M277.801 74.59h-29.405v2.235h23.634a77.66 77.66 0 015.771-2.235z" fill="#fff"/><path fill-rule="evenodd" clip-rule="evenodd" d="M303.255 123.824a4.256 4.256 0 100 8.514 4.256 4.256 0 000-8.514z" fill="#1A1A1A"/><path fill-rule="evenodd" clip-rule="evenodd" d="M303.255 124.593a3.499 3.499 0 00-3.496 3.495 3.499 3.499 0 003.496 3.496 3.498 3.498 0 003.496-3.496 3.498 3.498 0 00-3.496-3.495z" fill="#fff"/><path fill-rule="evenodd" clip-rule="evenodd" d="M312.145 129.487l-17.48 12.393a1.3 1.3 0 00-.299 1.829l2.282 3.165a1.34 1.34 0 001.844.307l17.479-12.393a1.3 1.3 0 00.3-1.828l-2.282-3.166a1.34 1.34 0 00-1.844-.307z" fill="#333"/><path fill-rule="evenodd" clip-rule="evenodd" d="M310.9 131.723l-13.691 9.712c-.461.33-.569.976-.239 1.429l1.33 1.836c.33.461.983.569 1.444.238l13.692-9.711c.461-.331.568-.976.238-1.437l-1.329-1.836a1.042 1.042 0 00-1.445-.239v.008zm-35.727-57.756c-.868 0-1.575.707-1.575 1.575 0 .869.707 1.575 1.575 1.575s1.575-.706 1.575-1.575c0-.868-.707-1.575-1.575-1.575zm-67.16 0c-.868 0-1.575.707-1.575 1.575 0 .869.707 1.575 1.575 1.575s1.575-.706 1.575-1.575c0-.868-.707-1.575-1.575-1.575z" fill="#000"/><path fill-rule="evenodd" clip-rule="evenodd" d="M208.92 80.122l-17.311 43.795a23.697 23.697 0 01-8.482-7.061l14.775-37.38a23.888 23.888 0 014.156-.369c2.382 0 4.687.354 6.854 1.015h.008zm7.414 3.788l-16.719 42.311a23.141 23.141 0 01-5.186-1.137l17.349-43.895a23.717 23.717 0 014.564 2.72h-.008zm71.486-3.758l-17.319 43.811a23.753 23.753 0 01-8.497-7.008l14.821-37.494a24.103 24.103 0 014.041-.346c2.42 0 4.756.369 6.954 1.045v-.008zm7.406 3.826l-16.703 42.259a23.322 23.322 0 01-5.194-1.114l17.341-43.887a23.737 23.737 0 014.549 2.742h.007z" fill="#fff"/><path fill-rule="evenodd" clip-rule="evenodd" d="M264.009 49.926c5.978 8.682 16.22 13.584 26.285 17.203h4.702A65.233 65.233 0 01298 69.726s5.517-20.975 1.821-37.625c-3.703-16.642-7.576-25.44-7.576-25.44-.1.062-.192.123-.276.208-.185.138-.323.33-.454.522-.069.1-.107.215-.169.315l-.253.577-1.038 2.358c-.668 1.59-1.467 3.112-2.205 4.664-3.05 6.162-6.592 12.048-10.418 17.726-.945 1.429-1.952 2.812-2.928 4.218-1.014 1.375-2.013 2.766-3.058 4.118-.514.684-1.044 1.36-1.575 2.036a79.926 79.926 0 01-1.605 2.005 104.872 104.872 0 01-3.35 3.957 1.778 1.778 0 01-.899.546l-.008.015z" fill="#333"/><path fill-rule="evenodd" clip-rule="evenodd" d="M298.922 65.646c1.391-6.915 3.603-21.383.907-33.545-2.036-9.159-4.126-15.943-5.594-20.192-.315.638-.63 1.275-.93 1.913-3.05 6.162-6.592 12.047-10.418 17.726-.945 1.429-1.952 2.812-2.927 4.218-10.957 13.269-4.011 19.577 18.97 29.872l-.008.008z" fill="url(#paint4_linear_41_510)"/><path fill-rule="evenodd" clip-rule="evenodd" d="M293.544 9.205c1.183 1.72 2.143 3.557 3.019 5.432a61.17 61.17 0 012.321 5.762c1.359 3.919 2.32 7.968 3.081 12.048.353 2.043.676 4.095.898 6.162.054.514.116 1.03.162 1.544l.13 1.552c.1 1.037.139 2.075.2 3.112a96.183 96.183 0 01-.192 12.462 107.829 107.829 0 01-1.675 12.355c-.215 1.014-.392 2.044-.638 3.05l-.076.323a21.42 21.42 0 00-.746-.315l.822-.208a68.265 68.265 0 00-3.05-2.927l.138-.63a105.808 105.808 0 001.76-11.925c.353-4.003.476-8.029.369-12.055-.039-1.006-.054-2.013-.131-3.012l-.092-1.506c-.031-.507-.085-.998-.131-1.505-.146-2.013-.399-4.011-.668-6.001-.292-1.99-.615-3.98-1.03-5.955-.192-.99-.422-1.967-.637-2.958l-.723-2.942c-1.006-3.911-2.143-7.807-3.565-11.625v-.016c-.053-.13.016-.269.146-.322a.251.251 0 01.292.092l.016.008zM291.7 51.624a4.129 4.129 0 004.118-4.118 4.128 4.128 0 00-4.118-4.118 4.129 4.129 0 00-4.119 4.118 4.129 4.129 0 004.119 4.118z" fill="#666"/><path fill-rule="evenodd" clip-rule="evenodd" d="M291.7 50.387a2.887 2.887 0 002.881-2.881c0-1.583-1.299-2.89-2.881-2.89a2.894 2.894 0 00-2.882 2.89 2.888 2.888 0 002.882 2.88z" fill="#fff"/><path fill-rule="evenodd" clip-rule="evenodd" d="M292.929 38.047a2.59 2.59 0 000-5.178 2.59 2.59 0 000 5.178z" fill="#666"/><path fill-rule="evenodd" clip-rule="evenodd" d="M292.929 37.272c.999 0 1.813-.815 1.813-1.813 0-1-.814-1.814-1.813-1.814s-1.813.815-1.813 1.813c0 1 .814 1.814 1.813 1.814z" fill="#fff"/><path fill-rule="evenodd" clip-rule="evenodd" d="M293.559 26.3a1.833 1.833 0 001.829-1.829 1.833 1.833 0 00-1.829-1.829 1.834 1.834 0 00-1.829 1.829c0 1.006.823 1.829 1.829 1.829z" fill="#666"/><path fill-rule="evenodd" clip-rule="evenodd" d="M293.559 25.755c.707 0 1.283-.577 1.283-1.284 0-.706-.576-1.283-1.283-1.283s-1.283.577-1.283 1.283c0 .707.576 1.284 1.283 1.284z" fill="#fff"/><path fill-rule="evenodd" clip-rule="evenodd" d="M218.885 49.926c-5.978 8.682-16.22 13.584-26.285 17.203h-4.702a64.708 64.708 0 00-3.004 2.597s-5.517-20.975-1.821-37.625c3.703-16.642 7.576-25.44 7.576-25.44.1.062.192.123.276.208.185.138.323.33.454.522.069.1.107.215.169.315l.253.577 1.037 2.358c.669 1.59 1.468 3.112 2.206 4.664 3.05 6.162 6.592 12.048 10.418 17.726.945 1.429 1.952 2.812 2.927 4.218 1.015 1.375 2.013 2.766 3.058 4.118.515.684 1.045 1.36 1.575 2.036a82.302 82.302 0 001.606 2.005 104.872 104.872 0 003.35 3.957c.246.277.561.461.899.546l.008.015z" fill="#333"/><path fill-rule="evenodd" clip-rule="evenodd" d="M184.356 65.646c-1.391-6.915-3.611-21.383-.907-33.545 2.036-9.159 4.126-15.943 5.594-20.192.315.638.63 1.275.929 1.913 3.051 6.162 6.593 12.047 10.419 17.726.945 1.429 1.952 2.812 2.927 4.218 10.957 13.269 4.011 19.577-18.97 29.872l.008.008z" fill="url(#paint5_linear_41_510)"/><path fill-rule="evenodd" clip-rule="evenodd" d="M189.35 9.204c-1.183 1.721-2.143 3.558-3.019 5.432a60.902 60.902 0 00-2.321 5.763c-1.36 3.918-2.32 7.968-3.081 12.047-.353 2.044-.676 4.096-.899 6.162-.053.515-.115 1.03-.161 1.545l-.131 1.552c-.1 1.037-.138 2.074-.199 3.112a96.183 96.183 0 00.192 12.462c.315 4.141.883 8.275 1.675 12.355.215 1.014.391 2.043.637 3.05l.077.33c.246-.107.592-.253.838-.36-.277-.07-.607-.147-.884-.216a76.69 76.69 0 013.004-2.889l-.138-.63a106.031 106.031 0 01-1.76-11.924 105.153 105.153 0 01-.368-12.055c.038-1.007.053-2.014.13-3.012l.092-1.506c.031-.507.085-1 .131-1.506.146-2.013.4-4.01.669-6 .292-1.99.614-3.98 1.029-5.955.192-.992.423-1.967.638-2.958l.722-2.943c1.007-3.911 2.144-7.806 3.565-11.625V9.42c.054-.131-.015-.27-.146-.323a.252.252 0 00-.292.092v.015zm1.852 42.42a4.129 4.129 0 004.118-4.118 4.128 4.128 0 00-4.118-4.118 4.128 4.128 0 00-4.118 4.118 4.128 4.128 0 004.118 4.118z" fill="#666"/><path fill-rule="evenodd" clip-rule="evenodd" d="M191.202 50.387a2.887 2.887 0 002.881-2.881c0-1.583-1.298-2.89-2.881-2.89a2.893 2.893 0 00-2.881 2.89 2.887 2.887 0 002.881 2.88z" fill="#fff"/><path fill-rule="evenodd" clip-rule="evenodd" d="M189.973 38.047a2.59 2.59 0 000-5.178 2.59 2.59 0 000 5.178z" fill="#666"/><path fill-rule="evenodd" clip-rule="evenodd" d="M189.973 37.272c.998 0 1.813-.815 1.813-1.813 0-1-.815-1.814-1.813-1.814-.999 0-1.814.815-1.814 1.813 0 1 .815 1.814 1.814 1.814z" fill="#fff"/><path fill-rule="evenodd" clip-rule="evenodd" d="M189.342 26.3a1.833 1.833 0 001.829-1.829 1.833 1.833 0 00-1.829-1.829 1.833 1.833 0 00-1.828 1.829c0 1.006.822 1.829 1.828 1.829z" fill="#666"/><path fill-rule="evenodd" clip-rule="evenodd" d="M189.343 25.755c.706 0 1.283-.577 1.283-1.284 0-.706-.577-1.283-1.283-1.283-.707 0-1.284.577-1.284 1.283 0 .707.577 1.284 1.284 1.284zm52.108 178.952c6.308 0 11.456-5.148 11.456-11.456s-5.148-11.456-11.456-11.456-11.456 5.148-11.456 11.456 5.148 11.456 11.456 11.456z" fill="#fff"/><path fill-rule="evenodd" clip-rule="evenodd" d="M241.451 202.724c5.217 0 9.473-4.256 9.473-9.473 0-5.217-4.256-9.474-9.473-9.474-5.217 0-9.474 4.257-9.474 9.474 0 5.217 4.257 9.473 9.474 9.473z" fill="#989898"/><path fill-rule="evenodd" clip-rule="evenodd" d="M241.451 199.651c3.519 0 6.392-2.874 6.392-6.393 0-3.518-2.873-6.392-6.392-6.392s-6.393 2.874-6.393 6.392c0 3.519 2.874 6.393 6.393 6.393z" fill="#000"/><path d="M423.376 228.532c16.482 0 29.842-16.56 29.842-36.987 0-20.428-13.36-36.988-29.842-36.988-16.481 0-29.842 16.56-29.842 36.988 0 20.427 13.361 36.987 29.842 36.987z" fill="#fff"/><g filter="url(#filter2_d_41_510)"><path fill-rule="evenodd" clip-rule="evenodd" d="M423.377 154.557c-3.665 0-7.177.822-10.427 2.321-6.569 6.784-10.749 16.995-10.749 28.42 0 20.43 13.362 36.988 29.842 36.988 3.665 0 7.177-.822 10.427-2.321 6.569-6.784 10.749-16.995 10.749-28.42 0-20.43-13.362-36.988-29.842-36.988z" fill="url(#paint6_linear_41_510)"/></g><path fill-rule="evenodd" clip-rule="evenodd" d="M453.219 197.746c2.758 0 5.001-2.789 5.001-6.201 0-3.411-2.251-6.2-5.001-6.2-2.751 0-5.002 2.789-5.002 6.2 0 3.412 2.251 6.201 5.002 6.201zM210.541 385.118c3.688-1.214 8.375-5.155 7.514-14.905-.853-9.674-18.248-18.893-35.612-11.856-13.869 5.617-19.454 16.627-11.21 25.425 6.431 6.876 31.97 3.757 39.308 1.336z" fill="#fff"/><path fill-rule="evenodd" clip-rule="evenodd" d="M214.89 382.306c1.044-1.129 1.943-2.612 2.535-4.533-.592 1.921-1.498 3.404-2.535 4.533z" fill="#371A45"/><path fill-rule="evenodd" clip-rule="evenodd" d="M167.391 374.639c.023-.707.108-1.406.254-2.106-.154.7-.238 1.399-.261 2.098l.007.008z" fill="#B6ABBB"/><path fill-rule="evenodd" clip-rule="evenodd" d="M188.344 387.969c-7.315 0-14.191-1.06-17.111-4.187-2.712-2.897-3.926-6.04-3.842-9.144a11.4 11.4 0 01.261-2.097 15.624 15.624 0 002.544 3.565c2.927 3.119 9.804 4.187 17.118 4.187 8.774 0 18.186-1.529 22.19-2.85 3.111-1.022 6.922-3.988 7.529-10.718a9.834 9.834 0 011.022 3.496c.269 3.057 0 5.547-.622 7.56-.592 1.921-1.499 3.404-2.536 4.533a10.26 10.26 0 01-4.349 2.804c-4.003 1.322-13.422 2.851-22.197 2.851h-.007z" fill="#D6D0D9"/><path fill-rule="evenodd" clip-rule="evenodd" d="M194.982 359.333c-3.519 0-7.33.646-11.241 2.229-6.968 2.819-11.717 7.191-12.708 11.678-.622 2.828.292 5.578 2.72 8.175 4.502 4.81 27.268 3.197 35.704.415 2.236-.737 5.87-3.188 5.156-11.317-.223-2.582-2.459-5.409-5.978-7.561-3.334-2.036-8.136-3.619-13.653-3.619zm-6.477 32.101c-8.144 0-16.058-1.29-19.8-5.293-3.964-4.234-5.532-9.343-4.425-14.391 1.505-6.815 7.652-12.87 16.864-16.604 12.417-5.033 24.203-2.313 31.102 1.906 5.456 3.342 8.836 8.021 9.259 12.854 1.206 13.737-7.253 17.625-9.873 18.493-3.903 1.291-13.661 3.035-23.119 3.035h-.008z" fill="#000"/><path fill-rule="evenodd" clip-rule="evenodd" d="M198.493 372.549c-.491 1.744-.776 3.365-.868 5.163-.061 1.775.046 3.665.838 5.639a8.934 8.934 0 001.805 2.812 8.625 8.625 0 002.904 1.998c2.144.891 4.288.984 6.193.868h.115a3.487 3.487 0 003.25-3.703 3.48 3.48 0 00-4.379-3.135c-1.199.323-2.313.43-3.158.292-.83-.146-1.483-.515-2.105-1.398-.599-.868-.999-2.167-1.191-3.535-.2-1.359-.215-2.896-.092-4.256v-.131a1.682 1.682 0 00-1.529-1.844 1.705 1.705 0 00-1.79 1.23h.007zm-18.44.499a22.752 22.752 0 00-1.321 4.971c-.246 1.721-.323 3.55.123 5.509a10.51 10.51 0 001.137 2.92c.545.953 1.321 1.829 2.205 2.543 1.79 1.452 3.911 2.098 5.839 2.42l.092.016a3.475 3.475 0 004.003-2.859 3.474 3.474 0 00-3.542-4.049c-1.144.039-2.166-.092-2.919-.461-.776-.345-1.414-.998-1.89-2.043-.477-1.03-.723-2.359-.784-3.734-.069-1.36.054-2.882.292-4.196l.023-.123a1.699 1.699 0 00-1.375-1.974 1.709 1.709 0 00-1.89 1.06h.007z" fill="#000"/><path fill-rule="evenodd" clip-rule="evenodd" d="M192.516 238.844c18.837-11.675 23.982-19.554 27.875-34.906-16.442-1.621-26.876-5.071-33.453-9.197-12.186 1.76-20.476 9.681-30.757 13.562-11.809 4.464-11.025-14.169-12.593-19.946-1.575-5.771.784-13.385-20.468-12.332-21.26 1.053-14.698 17.848-12.862 28.082 1.836 10.235 17.849 39.101 37.526 43.826 17.809 4.272 40.56-6.923 44.724-9.089h.008z" fill="url(#paint7_linear_41_510)"/><path fill-rule="evenodd" clip-rule="evenodd" d="M185.931 200.32c-9.996 2.105-18.317 9.358-27.867 12.961-8.644 3.266-14.614-1.421-17.103-9.55-.846-2.751-1.291-5.639-1.675-8.482-.223-1.683-.392-3.873-.83-5.486-.438-1.591-.584-3.173-.938-4.764-.123-.576-.315-1.337-.722-1.782-2.044-2.252-10.803-1.998-13.415-1.875-2.52.123-6.116.584-8.167 2.228-1.214.976-1.706 2.29-1.913 3.796-.646 4.617 1.375 11.202 2.197 15.804 1.168 6.485 7.261 16.527 11.118 21.767 5.324 7.238 13.446 15.674 22.412 17.825 12.493 2.997 36.362-5.41 42.535-9.15 6.173-3.741 21.94-16.339 23.572-24.917-9.85-1.261-20.675-3.612-29.204-8.375z" fill="url(#paint8_linear_41_510)"/><path fill-rule="evenodd" clip-rule="evenodd" d="M142.674 198.668c3.688-1.214 8.375-5.156 7.514-14.906-.852-9.673-18.248-18.893-35.612-11.855-13.868 5.616-19.454 16.626-11.21 25.424 6.431 6.876 31.971 3.757 39.308 1.337z" fill="#fff"/><path fill-rule="evenodd" clip-rule="evenodd" d="M147.023 195.863c1.045-1.129 1.944-2.612 2.535-4.533-.591 1.921-1.498 3.404-2.535 4.533z" fill="#371A45"/><path fill-rule="evenodd" clip-rule="evenodd" d="M99.532 188.188c.023-.707.108-1.406.254-2.105a11.51 11.51 0 00-.261 2.097l.007.008z" fill="#B6ABBB"/><path fill-rule="evenodd" clip-rule="evenodd" d="M120.477 201.518c-7.314 0-14.191-1.06-17.111-4.187-2.712-2.897-3.926-6.039-3.841-9.143.023-.707.107-1.407.26-2.098a15.6 15.6 0 002.544 3.565c2.927 3.119 9.804 4.187 17.118 4.187 8.775 0 18.187-1.529 22.198-2.85 3.111-1.022 6.922-3.988 7.529-10.718a9.814 9.814 0 011.022 3.496c.269 3.058 0 5.547-.622 7.56-.592 1.921-1.498 3.404-2.536 4.533a10.275 10.275 0 01-4.348 2.805c-4.003 1.321-13.423 2.85-22.198 2.85h-.015z" fill="#D6D0D9"/><path fill-rule="evenodd" clip-rule="evenodd" d="M127.115 172.882c-3.519 0-7.329.646-11.24 2.228-6.969 2.82-11.717 7.192-12.708 11.679-.623 2.828.291 5.578 2.719 8.175 4.503 4.81 27.268 3.196 35.705.415 2.236-.738 5.87-3.189 5.155-11.317-.223-2.582-2.458-5.41-5.977-7.561-3.327-2.036-8.137-3.619-13.654-3.619zm-6.477 32.101c-8.144 0-16.058-1.291-19.8-5.294-3.964-4.233-5.531-9.343-4.425-14.39 1.506-6.816 7.652-12.87 16.865-16.604 12.416-5.033 24.202-2.313 31.102 1.905 5.455 3.343 8.828 8.022 9.258 12.855 1.207 13.737-7.253 17.625-9.873 18.493-3.903 1.291-13.661 3.035-23.119 3.035h-.008z" fill="#000"/><path fill-rule="evenodd" clip-rule="evenodd" d="M130.627 186.098c-.492 1.744-.776 3.365-.861 5.163-.069 1.775.046 3.665.838 5.639a8.934 8.934 0 001.805 2.812 8.629 8.629 0 002.905 1.998c2.143.891 4.287.984 6.192.861h.116a3.49 3.49 0 003.25-3.704 3.482 3.482 0 00-4.38-3.135c-1.199.323-2.313.431-3.158.292-.83-.146-1.483-.514-2.105-1.398-.599-.868-.999-2.167-1.191-3.534-.2-1.36-.215-2.897-.092-4.257v-.13a1.681 1.681 0 00-1.529-1.844 1.705 1.705 0 00-1.79 1.229v.008zm-18.433.507a22.737 22.737 0 00-1.321 4.971c-.246 1.721-.323 3.55.123 5.509a10.51 10.51 0 001.137 2.92c.545.952 1.321 1.828 2.205 2.543 1.79 1.452 3.911 2.097 5.839 2.42l.093.015a3.474 3.474 0 004.003-2.858 3.475 3.475 0 00-3.542-4.049c-1.145.038-2.167-.092-2.92-.461-.776-.346-1.414-.999-1.89-2.044-.477-1.029-.722-2.359-.784-3.734-.069-1.36.054-2.881.292-4.195l.023-.123a1.698 1.698 0 00-1.375-1.974 1.709 1.709 0 00-1.89 1.06h.007z" fill="#000"/><path fill-rule="evenodd" clip-rule="evenodd" d="M127.146 204.737c24.049 36.058 46.384 23.979 83.057 3.242 1.659.269 3.304.507 4.925.715-31.356 23.325-67.145 41.505-95.135-3.711h.3c.376.061.745.053 1.098 0a89.289 89.289 0 005.747-.246h.008z" fill="#B2B2B2"/><path fill-rule="evenodd" clip-rule="evenodd" d="M135.321 203.8c4.226 6.039 8.306 10.28 12.409 13.046 5.793 3.896 11.678 4.818 18.14 3.688 4.672-.814 11.894-3.565 19.854-7.138 4.925-2.213 10.142-4.74 15.213-7.337 1.529.392 3.081.745 4.625 1.068-6.093 3.173-12.539 6.354-18.586 9.066-8.183 3.673-15.651 6.508-20.576 7.368-7.237 1.268-13.845.223-20.376-4.172-4.702-3.165-9.327-8.067-14.099-15.121a110.37 110.37 0 003.396-.468z" fill="#B2B2B2"/><path d="M194.306 225.997a5.6 5.6 0 100-11.202 5.6 5.6 0 000 11.202z" fill="#000"/><path fill-rule="evenodd" clip-rule="evenodd" d="M194.306 224.322a3.924 3.924 0 003.918-3.918 3.925 3.925 0 00-3.918-3.919 3.926 3.926 0 00-3.919 3.919 3.925 3.925 0 003.919 3.918z" fill="#fff"/><path d="M174.985 233.935a5.6 5.6 0 10-1.798-11.056 5.6 5.6 0 001.798 11.056z" fill="#000"/><path fill-rule="evenodd" clip-rule="evenodd" d="M174.083 232.328a3.926 3.926 0 003.919-3.919 3.925 3.925 0 00-3.919-3.918 3.924 3.924 0 00-3.918 3.918 3.925 3.925 0 003.918 3.919z" fill="#fff"/><path fill-rule="evenodd" clip-rule="evenodd" d="M154.775 234.864a4.32 4.32 0 004.311-4.311 4.319 4.319 0 00-4.311-4.31 4.318 4.318 0 00-4.31 4.31 4.319 4.319 0 004.31 4.311z" fill="#000"/><path fill-rule="evenodd" clip-rule="evenodd" d="M154.775 233.573c1.668 0 3.02-1.36 3.02-3.02a3.03 3.03 0 00-3.02-3.02 3.03 3.03 0 00-3.019 3.02 3.03 3.03 0 003.019 3.02z" fill="#fff"/><path fill-rule="evenodd" clip-rule="evenodd" d="M139.754 226.919a3.05 3.05 0 003.043-3.042 3.05 3.05 0 00-3.043-3.043 3.05 3.05 0 00-3.042 3.043 3.048 3.048 0 003.042 3.042z" fill="#000"/><path fill-rule="evenodd" clip-rule="evenodd" d="M139.754 226.013a2.134 2.134 0 002.129-2.129 2.139 2.139 0 00-2.129-2.128 2.138 2.138 0 00-2.128 2.128c0 1.168.96 2.129 2.128 2.129z" fill="#fff"/><path fill-rule="evenodd" clip-rule="evenodd" d="M307.205 297.974c-8.406-.038-20.899 1.253-31.295 7.922-13.015 8.352-24.018 22.013-28.359 33.614 22.144 1.791 21.706 28.206 25.24 37.649 3.711 9.904 15.943 8.282 34.091 10.05 31.648 3.088 23.35-21.022 3.542-24.787 7.215-23.142 14.099-43.557-5.371-59.092a54.344 54.344 0 002.152-5.356z" fill="url(#paint9_linear_41_510)"/><path fill-rule="evenodd" clip-rule="evenodd" d="M299.153 304.375c-7.061.791-14.122 2.781-20.008 6.554-8.667 5.562-17.656 14.751-23.034 24.363 7.944 2.997 13.292 9.405 16.619 18.002 1.628 4.211 2.673 8.598 3.595 13.016.569 2.712 1.107 6.17 2.067 8.736 1.145 3.05 4.157 3.749 7.1 4.287 3.042.553 6.246.761 9.327.968 4.218.284 8.429.53 12.639.938 3.657.353 9.835.576 13.185-1.307.853-.476 1.444-.96 1.344-1.982-.184-1.89-1.951-3.98-3.303-5.186-2.597-2.32-5.978-3.834-9.382-4.48-1.736-.33-3.104-1.283-4.01-2.796-.907-1.514-1.107-3.173-.584-4.856 2.942-9.443 6.861-20.814 7.053-30.733.177-9.297-3.104-16.043-10.442-21.906a5.978 5.978 0 01-2.174-3.634l.008.016z" fill="#CBCBCB"/><path fill-rule="evenodd" clip-rule="evenodd" d="M283.417 385.118c-3.688-1.214-8.375-5.155-7.514-14.905.853-9.674 18.248-18.893 35.612-11.856 13.868 5.617 19.454 16.627 11.21 25.425-6.431 6.876-31.97 3.757-39.308 1.336z" fill="#fff"/><path fill-rule="evenodd" clip-rule="evenodd" d="M279.068 382.306c-1.045-1.129-1.944-2.612-2.535-4.533.591 1.921 1.498 3.404 2.535 4.533z" fill="#371A45"/><path fill-rule="evenodd" clip-rule="evenodd" d="M326.567 374.639a12.222 12.222 0 00-.254-2.106c.154.7.238 1.399.261 2.098l-.007.008z" fill="#B6ABBB"/><path fill-rule="evenodd" clip-rule="evenodd" d="M305.614 387.969c7.315 0 14.191-1.06 17.111-4.187 2.712-2.897 3.926-6.04 3.842-9.144a11.316 11.316 0 00-.262-2.097c-.622 1.214-1.46 2.412-2.543 3.565-2.927 3.119-9.804 4.187-17.118 4.187-8.775 0-18.187-1.529-22.19-2.85-3.111-1.022-6.922-3.988-7.529-10.718a9.814 9.814 0 00-1.022 3.496c-.269 3.057 0 5.547.622 7.56.592 1.921 1.498 3.404 2.536 4.533a10.262 10.262 0 004.348 2.804c4.003 1.322 13.423 2.851 22.197 2.851h.008z" fill="#D6D0D9"/><path fill-rule="evenodd" clip-rule="evenodd" d="M298.976 359.333c3.519 0 7.33.646 11.24 2.229 6.969 2.819 11.718 7.191 12.709 11.678.622 2.828-.292 5.578-2.72 8.175-4.503 4.81-27.268 3.197-35.705.415-2.235-.737-5.87-3.188-5.155-11.317.223-2.582 2.459-5.409 5.977-7.561 3.335-2.036 8.137-3.619 13.654-3.619zm6.477 32.101c8.144 0 16.058-1.29 19.8-5.293 3.964-4.234 5.532-9.343 4.425-14.391-1.506-6.815-7.652-12.87-16.865-16.604-12.416-5.033-24.202-2.313-31.102 1.906-5.455 3.342-8.835 8.021-9.258 12.854-1.206 13.737 7.253 17.625 9.873 18.493 3.903 1.291 13.661 3.035 23.119 3.035h.008z" fill="#000"/><path fill-rule="evenodd" clip-rule="evenodd" d="M295.464 372.549c.492 1.744.776 3.365.869 5.163.061 1.775-.046 3.665-.838 5.639a8.934 8.934 0 01-1.805 2.812 8.629 8.629 0 01-2.905 1.998c-2.143.891-4.287.984-6.192.868h-.116a3.487 3.487 0 01-3.25-3.703 3.482 3.482 0 014.38-3.135c1.198.323 2.312.43 3.158.292.829-.146 1.482-.515 2.105-1.398.599-.868.999-2.167 1.191-3.535.199-1.359.215-2.896.092-4.256v-.131a1.682 1.682 0 011.529-1.844 1.706 1.706 0 011.79 1.23h-.008zm18.441.499a22.752 22.752 0 011.321 4.971c.246 1.721.323 3.55-.123 5.509a10.51 10.51 0 01-1.137 2.92c-.546.953-1.322 1.829-2.205 2.543-1.79 1.452-3.911 2.098-5.839 2.42l-.093.016a3.475 3.475 0 01-4.003-2.859 3.475 3.475 0 013.542-4.049c1.145.039 2.167-.092 2.92-.461.776-.345 1.414-.998 1.89-2.043.476-1.03.722-2.359.784-3.734.069-1.36-.054-2.882-.292-4.196l-.023-.123a1.698 1.698 0 011.375-1.974 1.709 1.709 0 011.89 1.06h-.007z" fill="#000"/><path fill-rule="evenodd" clip-rule="evenodd" d="M296.471 352.403c11.095-18.762 5.801-31.494-6.239-46.323a53.978 53.978 0 016.554-1.39c11.756 15.044 16.596 28.436 5.524 47.782a32.38 32.38 0 00-5.839-.061v-.008z" fill="#fff"/><path fill-rule="evenodd" clip-rule="evenodd" d="M288.88 353.909c2.581-3.596 4.472-6.892 5.747-9.95 2.582-6.208 2.635-11.532.868-16.68-1.275-3.719-4.518-8.982-8.544-14.614a193.183 193.183 0 00-3.142-4.256c.93-.423 1.875-.807 2.835-1.168a157.917 157.917 0 012.528 3.45c4.141 5.785 7.483 11.233 8.828 15.151 1.982 5.763 1.921 11.748-.991 18.74-1.099 2.643-2.605 5.424-4.572 8.39-1.229.253-2.42.568-3.549.937h-.008z" fill="#fff"/><path d="M282.905 350.703a5.6 5.6 0 10-1.798-11.058 5.6 5.6 0 001.798 11.058z" fill="#000"/><path fill-rule="evenodd" clip-rule="evenodd" d="M281.996 349.107a3.924 3.924 0 003.918-3.918 3.925 3.925 0 00-3.918-3.919 3.926 3.926 0 00-3.919 3.919 3.925 3.925 0 003.919 3.918z" fill="#fff"/><path fill-rule="evenodd" clip-rule="evenodd" d="M285.976 334.255a3.897 3.897 0 003.887-3.888 3.893 3.893 0 00-3.887-3.888 3.893 3.893 0 00-3.888 3.888 3.892 3.892 0 003.888 3.888z" fill="#000"/><path fill-rule="evenodd" clip-rule="evenodd" d="M285.976 333.087a2.725 2.725 0 002.72-2.72 2.725 2.725 0 00-2.72-2.719 2.724 2.724 0 00-2.72 2.719 2.724 2.724 0 002.72 2.72z" fill="#fff"/><path fill-rule="evenodd" clip-rule="evenodd" d="M279.137 320.494a2.742 2.742 0 002.736-2.735 2.742 2.742 0 00-2.736-2.735 2.741 2.741 0 00-2.735 2.735 2.741 2.741 0 002.735 2.735z" fill="#000"/><path fill-rule="evenodd" clip-rule="evenodd" d="M279.138 319.672c1.052 0 1.92-.86 1.92-1.92 0-1.061-.86-1.914-1.92-1.914a1.914 1.914 0 00-1.914 1.914c0 1.052.861 1.92 1.914 1.92zm73.521-120.843c-3.688-1.214-8.375-5.155-7.514-14.906.853-9.673 18.248-18.893 35.612-11.855 13.869 5.617 19.454 16.627 11.21 25.424-6.431 6.877-31.97 3.757-39.308 1.337z" fill="#fff"/><path fill-rule="evenodd" clip-rule="evenodd" d="M348.31 196.025c-1.044-1.13-1.943-2.613-2.535-4.534.592 1.921 1.498 3.404 2.535 4.534z" fill="#371A45"/><path fill-rule="evenodd" clip-rule="evenodd" d="M395.809 188.349a12.199 12.199 0 00-.254-2.105c.154.699.238 1.399.261 2.098l-.007.007z" fill="#B6ABBB"/><path fill-rule="evenodd" clip-rule="evenodd" d="M374.856 201.68c7.315 0 14.191-1.061 17.111-4.188 2.712-2.896 3.926-6.039 3.842-9.143a11.389 11.389 0 00-.261-2.097 15.624 15.624 0 01-2.544 3.565c-2.927 3.119-9.804 4.187-17.118 4.187-8.774 0-18.187-1.529-22.197-2.85-3.112-1.022-6.923-3.988-7.53-10.719a9.86 9.86 0 00-1.022 3.496c-.269 3.058 0 5.548.623 7.561.591 1.92 1.498 3.403 2.535 4.533a10.28 10.28 0 004.349 2.804c4.003 1.322 13.423 2.851 22.197 2.851h.015z" fill="#D6D0D9"/><path fill-rule="evenodd" clip-rule="evenodd" d="M368.218 173.052c3.519 0 7.33.645 11.241 2.228 6.968 2.82 11.717 7.191 12.708 11.679.622 2.827-.292 5.578-2.72 8.175-4.502 4.809-27.268 3.196-35.704.414-2.236-.737-5.87-3.188-5.156-11.317.223-2.582 2.459-5.409 5.978-7.56 3.327-2.037 8.136-3.619 13.653-3.619zm6.477 32.101c8.144 0 16.058-1.291 19.8-5.294 3.964-4.234 5.532-9.343 4.425-14.391-1.505-6.815-7.652-12.87-16.864-16.604-12.417-5.032-24.203-2.312-31.102 1.906-5.456 3.342-8.829 8.021-9.259 12.854-1.206 13.738 7.253 17.625 9.873 18.494 3.903 1.291 13.661 3.035 23.119 3.035h.008z" fill="#000"/><path fill-rule="evenodd" clip-rule="evenodd" d="M364.707 186.259c.491 1.744.776 3.366.86 5.163.069 1.775-.046 3.665-.837 5.64-.4.976-.991 1.967-1.806 2.812a8.615 8.615 0 01-2.904 1.998c-2.144.891-4.288.983-6.193.86h-.115a3.487 3.487 0 01-3.25-3.703 3.482 3.482 0 014.379-3.135c1.199.323 2.313.43 3.158.292.83-.146 1.483-.515 2.105-1.398.6-.869.999-2.167 1.191-3.535.2-1.36.215-2.896.092-4.256v-.131a1.682 1.682 0 011.529-1.844 1.707 1.707 0 011.791 1.23v.007zm18.44.507a22.76 22.76 0 011.321 4.972c.246 1.721.323 3.549-.123 5.508a10.499 10.499 0 01-1.137 2.92c-.545.953-1.321 1.829-2.205 2.543-1.79 1.452-3.911 2.098-5.839 2.421l-.092.015a3.474 3.474 0 01-4.003-2.858 3.474 3.474 0 013.542-4.049c1.144.038 2.166-.093 2.919-.461.776-.346 1.414-.999 1.89-2.044.477-1.03.723-2.359.784-3.734.069-1.36-.054-2.881-.292-4.195l-.023-.123a1.7 1.7 0 011.375-1.975 1.709 1.709 0 011.89 1.06h-.007z" fill="#000"/><defs><linearGradient id="paint0_linear_41_510" x1="197.658" y1="203" x2="300.212" y2="206.822" gradientUnits="userSpaceOnUse"><stop stop-color="#9A68FE"/><stop offset="1" stop-color="#FF23CF"/></linearGradient><linearGradient id="paint1_linear_41_510" x1="42.199" y1="154.557" x2="90.302" y2="158.575" gradientUnits="userSpaceOnUse"><stop stop-color="#9A68FE"/><stop offset="1" stop-color="#FF23CF"/></linearGradient><linearGradient id="paint2_linear_41_510" x1="259.384" y1="79.115" x2="305.8" y2="84.741" gradientUnits="userSpaceOnUse"><stop stop-color="#9A68FE"/><stop offset="1" stop-color="#FF23CF"/></linearGradient><linearGradient id="paint3_linear_41_510" x1="180.576" y1="79.115" x2="226.992" y2="84.741" gradientUnits="userSpaceOnUse"><stop stop-color="#9A68FE"/><stop offset="1" stop-color="#FF23CF"/></linearGradient><linearGradient id="paint4_linear_41_510" x1="274.866" y1="38.778" x2="301.096" y2="38.778" gradientUnits="userSpaceOnUse"><stop stop-color="#2A2C2A"/><stop offset="1" stop-color="#BFBEBE"/></linearGradient><linearGradient id="paint5_linear_41_510" x1="208.412" y1="38.778" x2="182.174" y2="38.778" gradientUnits="userSpaceOnUse"><stop stop-color="#2A2C2A"/><stop offset="1" stop-color="#BFBEBE"/></linearGradient><linearGradient id="paint6_linear_41_510" x1="404.509" y1="154.557" x2="454.955" y2="159.163" gradientUnits="userSpaceOnUse"><stop stop-color="#9A68FE"/><stop offset="1" stop-color="#FF23CF"/></linearGradient><linearGradient id="paint7_linear_41_510" x1="107.861" y1="212.413" x2="220.445" y2="212.413" gradientUnits="userSpaceOnUse"><stop stop-color="#474747"/><stop offset="1" stop-color="#8E8D8D"/></linearGradient><linearGradient id="paint8_linear_41_510" x1="113.17" y1="212.413" x2="215.135" y2="212.413" gradientUnits="userSpaceOnUse"><stop stop-color="#3D3D3D"/><stop offset="1" stop-color="#A4A4A4"/></linearGradient><linearGradient id="paint9_linear_41_510" x1="270.755" y1="361.362" x2="316.87" y2="336.091" gradientUnits="userSpaceOnUse"><stop stop-color="#3A3A3B"/><stop offset="1" stop-color="#ACACAD"/></linearGradient><filter id="filter0_f_41_510" x="0" y="242" width="489" height="257" filterUnits="userSpaceOnUse" color-interpolation-filters="sRGB"><feFlood flood-opacity="0" result="BackgroundImageFix"/><feBlend in="SourceGraphic" in2="BackgroundImageFix" result="shape"/><feGaussianBlur stdDeviation="38.5" result="effect1_foregroundBlur_41_510"/></filter><filter id="filter1_d_41_510" x="36.002" y="154.557" width="56.582" height="78.51" filterUnits="userSpaceOnUse" color-interpolation-filters="sRGB"><feFlood flood-opacity="0" result="BackgroundImageFix"/><feColorMatrix in="SourceAlpha" values="0 0 0 0 0 0 0 0 0 0 0 0 0 0 0 0 0 0 127 0" result="hardAlpha"/><feOffset dy="4"/><feGaussianBlur stdDeviation="2"/><feComposite in2="hardAlpha" operator="out"/><feColorMatrix values="0 0 0 0 0 0 0 0 0 0 0 0 0 0 0 0 0 0 0.25 0"/><feBlend in2="BackgroundImageFix" result="effect1_dropShadow_41_510"/><feBlend in="SourceGraphic" in2="effect1_dropShadow_41_510" result="shape"/></filter><filter id="filter2_d_41_510" x="398.201" y="154.557" width="59.017" height="75.728" filterUnits="userSpaceOnUse" color-interpolation-filters="sRGB"><feFlood flood-opacity="0" result="BackgroundImageFix"/><feColorMatrix in="SourceAlpha" values="0 0 0 0 0 0 0 0 0 0 0 0 0 0 0 0 0 0 127 0" result="hardAlpha"/><feOffset dy="4"/><feGaussianBlur stdDeviation="2"/><feComposite in2="hardAlpha" operator="out"/><feColorMatrix values="0 0 0 0 0 0 0 0 0 0 0 0 0 0 0 0 0 0 0.25 0"/><feBlend in2="BackgroundImageFix" result="effect1_dropShadow_41_510"/><feBlend in="SourceGraphic" in2="effect1_dropShadow_41_510" result="shape"/></filter></defs></svg>