<svg height="512pt" viewBox="-32 0 512 512" width="512pt" fill="#f1b01e" xmlns="http://www.w3.org/2000/svg"><path d="M151.984 191.902H8a7.99 7.99 0 01-8-8V8c0-4.426 3.574-8 8-8h143.984c4.422 0 8 3.574 8 8v175.902c0 4.426-3.578 8-8 8zM16 175.902h127.984V16H16zm423.938 16H295.952a7.99 7.99 0 01-8-8V8c0-4.426 3.574-8 8-8h143.985c4.421 0 8 3.574 8 8v175.902c0 4.426-3.579 8-8 8zm-135.985-16h127.985V16H303.952zM151.984 512H8a7.99 7.99 0 01-8-8V328.031c0-4.422 3.574-8 8-8h143.984c4.422 0 8 3.578 8 8V504c0 4.426-3.578 8-8 8zM16 496h127.984V336.031H16zm423.938 16H295.952a7.99 7.99 0 01-8-8V328.031c0-4.422 3.574-8 8-8h143.985c4.421 0 8 3.578 8 8V504c0 4.426-3.579 8-8 8zm-135.985-16h127.985V336.031H303.952zm0 0"/><path d="M295.953 128H151.984c-4.425 0-8-3.574-8-8s3.575-8 8-8h143.97c4.421 0 8 3.574 8 8s-3.579 8-8 8zm0 208H151.984c-4.425 0-8-3.574-8-8s3.575-8 8-8h143.97c4.421 0 8 3.574 8 8s-3.579 8-8 8zm0 176H151.984c-4.425 0-8-3.574-8-8s3.575-8 8-8h143.97c4.421 0 8 3.574 8 8s-3.579 8-8 8zm0-496H151.984c-4.425 0-8-3.574-8-8s3.575-8 8-8h143.97c4.421 0 8 3.574 8 8s-3.579 8-8 8zm0 0"/><path d="M311.938 335.559a7.99 7.99 0 01-8-8v-23.543c0-4.422 3.574-8 8-8 4.421 0 8 3.578 8 8v23.543c0 4.425-3.579 8-8 8zm0 0"/><path d="M423.953 312.016H311.938a7.99 7.99 0 01-8-8c0-4.422 3.574-8 8-8h112.015c4.422 0 8 3.578 8 8 0 4.425-3.578 8-8 8zm0 0"/><path d="M423.953 336.031a7.99 7.99 0 01-8-8v-24.015c0-4.422 3.574-8 8-8 4.422 0 8 3.578 8 8v24.015c0 4.426-3.578 8-8 8zm-56.008-24.015a7.99 7.99 0 01-8-8v-48c0-4.422 3.575-8 8-8 4.422 0 8 3.578 8 8v48c0 4.425-3.578 8-8 8zm-32 0a7.99 7.99 0 01-8-8V296c0-4.426 3.575-8 8-8 4.422 0 8 3.574 8 8v8.016c0 4.425-3.578 8-8 8zm64 0a7.99 7.99 0 01-8-8V296c0-4.426 3.575-8 8-8 4.422 0 8 3.574 8 8v8.016c0 4.425-3.578 8-8 8zm-80.007 120.047a7.99 7.99 0 01-8-8V408c0-4.426 3.574-8 8-8 4.421 0 8 3.574 8 8v16.063c0 4.425-3.579 8-8 8zm0-320.032a7.99 7.99 0 01-8-8V87.97c0-4.426 3.574-8 8-8 4.421 0 8 3.574 8 8v16.062c0 4.426-3.579 8-8 8zm-287.993 0a7.99 7.99 0 01-8-8V87.97c0-4.426 3.575-8 8-8 4.422 0 8 3.574 8 8v16.062c0 4.426-3.578 8-8 8zm120.039 312.016H8a7.99 7.99 0 01-8-8c0-4.422 3.574-8 8-8h143.984c4.422 0 8 3.578 8 8 0 4.426-3.578 8-8 8zM223.945 512a7.99 7.99 0 01-8-8V328.031c0-4.422 3.575-8 8-8 4.422 0 8 3.578 8 8V504c0 4.426-3.578 8-8 8zm-24-79.937a7.99 7.99 0 01-8-8v-16.047c0-4.422 3.575-8 8-8 4.422 0 8 3.578 8 8v16.046c0 4.426-3.578 8-8 8zm-112-72.125h-16c-4.425 0-8-3.579-8-8 0-4.426 3.575-8 8-8h16c4.422 0 8 3.574 8 8 0 4.421-3.578 8-8 8zm144-255.985h-16c-4.425 0-8-3.578-8-8 0-4.426 3.575-8 8-8h16c4.422 0 8 3.574 8 8 0 4.422-3.578 8-8 8zm-144 344.031h-16c-4.425 0-8-3.578-8-8 0-4.425 3.575-8 8-8h16c4.422 0 8 3.575 8 8 0 4.422-3.578 8-8 8zm159.993-15.921a7.99 7.99 0 01-8-8v-16.047c0-4.422 3.574-8 8-8 4.421 0 8 3.578 8 8v16.046c0 4.426-3.579 8-8 8zm0 0"/></svg>