<svg height="512" viewBox="0 0 128 128" width="512" xmlns="http://www.w3.org/2000/svg" fill="#f1b01e"><path d="M86.8 79.115a1.753 1.753 0 00-2.08-1.341l-3.194.689a1.75 1.75 0 10.738 3.421l3.195-.689a1.75 1.75 0 001.341-2.08zm-11.364.661l-8.855 1.91a1.75 1.75 0 10.738 3.421l8.855-1.91a1.75 1.75 0 00-.738-3.421zM47.744 91.767a11.026 11.026 0 1013.1 8.454 11.037 11.037 0 00-13.1-8.454zm3.911 18.133a7.526 7.526 0 115.769-8.944 7.536 7.536 0 01-5.769 8.944z"/><path d="M123.4 86.729l-1.493-6.924a1.75 1.75 0 00-2.08-1.342l-6.593 1.422L101.443 25.2a1.751 1.751 0 00-2.079-1.341L64.3 31.419l-19.622 4.232L38.27 5.938a1.751 1.751 0 00-1.711-1.381H6.307a1.749 1.749 0 00-1.75 1.75v7.083a1.75 1.75 0 001.75 1.75h23.121l14.543 67.436a20.887 20.887 0 1026.8 17.293l51.287-11.061a1.75 1.75 0 001.342-2.079zM54.717 82.2L48.5 53.386l17.912-3.863L69.041 61.7a1.747 1.747 0 001.377 1.349 1.722 1.722 0 00.333.032 1.751 1.751 0 001.45-.77l4.706-6.96 6.593 4.464A1.75 1.75 0 0086.192 58l-2.626-12.177 17.912-3.863 8.339 38.663-43.127 9.3A21 21 0 0054.717 82.2zm22.341-49.952l2.718 12.6 2.075 9.62-4.432-3a1.751 1.751 0 00-2.431.469L71.6 56.952l-4.851-22.481zm23.682 6.291L82.828 42.4l-2.349-10.89 17.912-3.863zm-37.412-3.33L65.677 46.1l-17.912 3.865-2.349-10.893zM30.84 11.64H8.057V8.057h27.089L41.625 38.1l9.4 43.592a20.775 20.775 0 00-3.636.143L32.551 13.021a1.75 1.75 0 00-1.711-1.381zm22.9 107.909a17.4 17.4 0 1113.332-20.671 17.417 17.417 0 01-13.337 20.671zm16.3-23.1a20.739 20.739 0 00-1.369-3.371l50.189-10.824.756 3.5z"/></svg>