<svg xmlns="http://www.w3.org/2000/svg" width="70" fill="#f1b01e" viewBox="0 0 512 512"><path d="M480 8H32a8 8 0 00-8 8v32a8 8 0 008 8v416a8 8 0 008 8h8v16a8 8 0 008 8h24a8 8 0 007.59-5.47L93.77 480h332.46l6.18 18.53A8 8 0 00440 504h24a8 8 0 008-8v-16a8 8 0 008-8V56a8 8 0 008-8V16a8 8 0 00-8-8zM74.23 488H64v-8h12.9zM456 488h-10.23l-2.67-8H456zm8-24H48V56h416zm8-424H40V24h432z"/><path d="M64 456h184a8 8 0 008-8V72a8 8 0 00-8-8H64a8 8 0 00-8 8v376a8 8 0 008 8zm8-376h168v360H72z"/><path d="M224 224a8 8 0 00-8 8v48a8 8 0 0016 0v-48a8 8 0 00-8-8zm48 232h176a8 8 0 008-8v-64a8 8 0 00-8-8H272a8 8 0 00-8 8v64a8 8 0 008 8zm8-64h160v48H280z"/><path d="M376 400h-32a8 8 0 000 16h32a8 8 0 000-16zm-104-32h176a8 8 0 008-8v-64a8 8 0 00-8-8H272a8 8 0 00-8 8v64a8 8 0 008 8zm8-64h160v48H280z"/><path d="M376 312h-32a8 8 0 000 16h32a8 8 0 000-16zm-104-32h176a8 8 0 008-8V72a8 8 0 00-8-8H272a8 8 0 00-8 8v200a8 8 0 008 8zm8-200h160v184H280z"/><path d="M393.657 142.343a8 8 0 00-11.314 0l-72 72a8 8 0 0011.314 11.314l72-72a8 8 0 000-11.314zM324 184a7.974 7.974 0 005.657-2.343l40-40a8 8 0 00-11.314-11.314l-40 40A8 8 0 00324 184zm62.343-5.657l-32 32a8 8 0 0011.314 11.314l32-32a8 8 0 00-11.314-11.314z"/></svg>