<svg xmlns="http://www.w3.org/2000/svg" fill="#f1b01e" viewBox="0 0 511.999 511.999"><path d="M416.314 234.663l-.001-.007c-1.478-5.416-5.004-9.793-9.675-12.007-56.365-25.833-57.779-29.54-68.692-29.54-4.237 0-8.369.94-12.28 2.794l-56.411 26.745c-4.672 2.214-8.199 6.59-9.679 12.015-1.83 6.738-4.901 20.646-4.901 38.087 0 46.804 21.299 89.936 66.226 122.264 10.4 7.487 23.675 7.494 34.089 0 45.025-32.402 66.226-75.57 66.226-122.263 0-17.443-3.071-31.35-4.902-38.088zm-70.145 148.093c-5.128 3.689-11.305 3.7-16.445.001-40.914-29.448-59.946-68.244-59.946-110.007 0-15.689 2.74-28.116 4.371-34.119.367-1.347 1.077-2.1 1.575-2.335 59.001-27.507 56.939-28.085 62.222-28.085 5.248 0 3.277.604 62.223 28.085.495.235 1.204.986 1.572 2.328 1.634 6.012 4.374 18.439 4.374 34.128-.001 41.684-18.962 80.5-59.946 110.004z"/><path d="M429.167 0H166.408c-19.796 0-35.901 16.105-35.901 35.9v342.906H87.184c-21.678 0-39.314 17.637-39.314 39.315v45.258c0 26.808 21.81 48.617 48.617 48.617 115.596 0 233.076-.001 313.766.003 29.707 0 53.876-24.169 53.876-53.876V34.962C464.128 15.684 448.444 0 429.167 0zM105.404 495.836c-22.557 5.585-42.431-11.203-42.431-32.457v-45.258c0-13.351 10.861-24.212 24.211-24.212h43.329v.265l.037 69.203c0 15.594-10.703 28.734-25.146 32.459zm343.622-37.712c-.001 21.379-17.394 38.773-38.774 38.773H132.236c16.282-17.097 13.168-36.388 13.416-46.227v-64.313c0-.268-.015-.533-.042-.794V35.9c0-11.468 9.331-20.798 20.799-20.798h262.758c10.95 0 19.859 8.909 19.859 19.859v423.163z"/><path d="M382.411 259.946a7.551 7.551 0 00-10.618 1.139c-50.583 62.411-47.265 59.212-48.253 59.279-.974.063.022.246-20.12-18.613a7.553 7.553 0 00-10.399 10.954l19.286 18.311a16.254 16.254 0 0011.168 4.454c4.789 0 9.483-2.159 12.607-6.033l47.467-58.87a7.555 7.555 0 00-1.138-10.621zM368.898 57.698h-192.31a7.55 7.55 0 100 15.102h192.309c4.17 0 7.551-3.38 7.551-7.551s-3.38-7.551-7.55-7.551zm44.766 0h-14.561a7.55 7.55 0 100 15.102h14.561c4.17 0 7.551-3.38 7.551-7.551s-3.38-7.551-7.551-7.551zm0 380.407h-179.22a7.55 7.55 0 100 15.102h179.22a7.55 7.55 0 007.551-7.551 7.55 7.55 0 00-7.551-7.551zm-209.425 0h-27.65a7.55 7.55 0 100 15.102h27.65a7.55 7.55 0 100-15.102zm209.425-326.04H176.588a7.55 7.55 0 100 15.102h237.076a7.55 7.55 0 007.551-7.551 7.55 7.55 0 00-7.551-7.551zm0 54.367H275.725a7.55 7.55 0 100 15.102h137.939c4.17 0 7.551-3.38 7.551-7.551s-3.38-7.551-7.551-7.551zm-168.144 0h-68.931a7.55 7.55 0 100 15.102h68.931a7.55 7.55 0 100-15.102zm-13.16 54.367h-55.772a7.55 7.55 0 100 15.102h55.772a7.55 7.55 0 100-15.102zm0 54.368h-55.772a7.55 7.55 0 100 15.102h55.772a7.55 7.55 0 100-15.102zm13.089 54.368h-68.861a7.55 7.55 0 100 15.102h68.861c4.17 0 7.551-3.38 7.551-7.551s-3.38-7.551-7.551-7.551zm24.413 54.367h-93.274a7.55 7.55 0 100 15.102h93.274a7.55 7.55 0 007.551-7.551 7.55 7.55 0 00-7.551-7.551z"/></svg>