<svg xmlns="http://www.w3.org/2000/svg" fill="#f1b01e" viewBox="0 0 512 512"><path d="M298.667 145.067v-51.2c-.015-14.132-11.468-25.585-25.6-25.6h-1.45a24.57 24.57 0 00-8.863 1.583L68.567 137.396A25.88 25.88 0 0051.2 161.821v.058c.017 14.272 11.583 25.837 25.854 25.854H256c23.553-.027 42.639-19.113 42.667-42.666zm-230.4 16.813v-.058a8.8 8.8 0 015.904-8.304L268.663 85.86a8.033 8.033 0 012.954-.525h1.45a8.544 8.544 0 018.533 8.533v51.2c-.015 14.132-11.468 25.585-25.6 25.6H77.054a8.797 8.797 0 01-8.787-8.788z"/><path d="M503.467 358.4h-102.4v-34.133h8.533c23.553-.028 42.639-19.114 42.667-42.667v-75.754a94.07 94.07 0 00-2.333-20.804L415.425 33.213C411.086 13.74 393.771-.082 373.821 0H271.642a93.606 93.606 0 00-33.292 6.1L27.538 86.067A42.885 42.885 0 000 125.959V281.6c.028 23.553 19.114 42.639 42.667 42.667h65.109l57.337 49.146c.023.02.049.037.073.057.081.068.166.13.249.195.123.096.246.191.373.279a6.9 6.9 0 00.305.197c.117.074.234.147.355.215a9.075 9.075 0 001.828.768c.125.036.251.067.377.097.13.031.259.063.391.088.152.029.306.049.46.07.109.015.217.033.327.044.27.026.541.041.814.041h179.2V486.4c.015 14.132 11.468 25.585 25.6 25.6H384c9.422-.009 17.057-7.645 17.067-17.067V375.467h102.4c4.713 0 8.533-3.82 8.533-8.533s-3.82-8.534-8.533-8.534zM384 358.4h-17.067v-34.133H384V358.4zM17.067 281.6V125.959a25.728 25.728 0 0116.521-23.933L244.4 22.059a76.565 76.565 0 0127.242-4.992h102.179c11.97-.049 22.359 8.245 24.962 19.929l34.508 151.825a77.032 77.032 0 011.908 17.025V281.6c-.015 14.132-11.468 25.585-25.6 25.6h-75.817c-.139-.015-.274-.045-.414-.053a8.446 8.446 0 00-1.477.053H42.667c-14.132-.015-25.585-11.468-25.6-25.6zm156.758 76.8l-39.823-34.133h182.854L294.1 358.4H173.825zm140.786 0l22.756-34.133h12.5V358.4h-35.256zM384 494.934h-8.533a8.544 8.544 0 01-8.533-8.533V375.467H384v119.467z"/><path d="M384 281.6c14.132-.015 25.585-11.468 25.6-25.6v-25.6c-.015-14.132-11.468-25.585-25.6-25.6H273.067c-14.132.015-25.585 11.468-25.6 25.6V256c.015 14.132 11.468 25.585 25.6 25.6H384zM264.534 256v-25.6a8.544 8.544 0 018.533-8.533H384a8.544 8.544 0 018.533 8.533V256a8.544 8.544 0 01-8.533 8.533H273.067a8.543 8.543 0 01-8.533-8.533zm-102.4-51.2a8.533 8.533 0 00-8.533 8.533v59.733a8.533 8.533 0 0017.066 0v-59.733a8.534 8.534 0 00-8.533-8.533zm-34.134 0a8.533 8.533 0 00-8.533 8.533v59.733a8.533 8.533 0 0017.066 0v-59.733A8.533 8.533 0 00128 204.8zm-34.133 0a8.533 8.533 0 00-8.533 8.533v59.733a8.533 8.533 0 0017.066 0v-59.733a8.533 8.533 0 00-8.533-8.533zm-34.133 0a8.533 8.533 0 00-8.533 8.533v59.733a8.533 8.533 0 0017.066 0v-59.733a8.534 8.534 0 00-8.533-8.533z"/></svg>