<svg xmlns="http://www.w3.org/2000/svg" fill="#f1b01e" viewBox="0 0 511.999 511.999"><path d="M288.165 471.526a7.501 7.501 0 00-9.45-4.815l-15.216 4.944v-15.999a7.5 7.5 0 00-15 0v15.999l-15.216-4.944a7.5 7.5 0 00-4.635 14.265l15.216 4.944-9.404 12.943a7.5 7.5 0 1012.135 8.817l9.404-12.944 9.404 12.944a7.488 7.488 0 006.074 3.092 7.5 7.5 0 006.061-11.909l-9.404-12.943 15.216-4.944a7.5 7.5 0 004.815-9.45zm0-446.928c-1.28-3.939-5.514-6.097-9.45-4.815l-15.216 4.944v-16a7.5 7.5 0 00-7.5-7.5 7.5 7.5 0 00-7.5 7.5v15.999l-15.216-4.944a7.5 7.5 0 00-4.635 14.266l15.216 4.944-9.404 12.943a7.5 7.5 0 1012.135 8.817l9.404-12.944 9.404 12.944a7.488 7.488 0 006.074 3.092 7.5 7.5 0 006.061-11.909l-9.404-12.943 15.216-4.944a7.5 7.5 0 004.815-9.45zM64.702 248.061c-1.282-3.938-5.514-6.095-9.451-4.814l-15.216 4.943v-15.999a7.5 7.5 0 00-15 0v15.999l-15.216-4.943a7.501 7.501 0 00-4.635 14.266l15.216 4.943-9.404 12.943a7.501 7.501 0 0012.136 8.818l9.404-12.943 9.404 12.943a7.488 7.488 0 006.074 3.092 7.5 7.5 0 006.061-11.91l-9.404-12.943 15.216-4.944a7.5 7.5 0 004.815-9.451zm446.928.001a7.501 7.501 0 00-9.45-4.815l-15.216 4.943v-15.999a7.5 7.5 0 00-15 0v15.999l-15.216-4.943a7.501 7.501 0 00-4.635 14.266l15.216 4.944-9.404 12.943a7.5 7.5 0 0012.135 8.818l9.404-12.943 9.404 12.943a7.49 7.49 0 006.074 3.092 7.502 7.502 0 006.062-11.91l-9.404-12.943 15.216-4.943a7.503 7.503 0 004.814-9.452zM130.152 406.075a7.5 7.5 0 00-9.451-4.815l-15.215 4.944v-15.999a7.5 7.5 0 00-15 0v15.999L75.27 401.26a7.501 7.501 0 00-4.636 14.266l15.216 4.944-9.404 12.943a7.5 7.5 0 1012.135 8.817l9.404-12.943 9.404 12.943a7.49 7.49 0 006.074 3.092 7.5 7.5 0 006.062-11.909l-9.404-12.943 15.216-4.944a7.5 7.5 0 004.815-9.451zM446.18 90.047a7.501 7.501 0 00-9.451-4.814l-15.216 4.943V74.178a7.5 7.5 0 00-15 0v15.999l-15.216-4.943a7.501 7.501 0 00-4.635 14.266l15.216 4.943-9.404 12.943a7.501 7.501 0 0012.136 8.818l9.404-12.943 9.404 12.943a7.488 7.488 0 006.074 3.092 7.5 7.5 0 006.061-11.91l-9.404-12.943 15.216-4.944a7.501 7.501 0 004.815-9.452zm-316.028.002a7.5 7.5 0 00-9.45-4.815l-15.216 4.943v-16a7.5 7.5 0 00-15 0v15.999L75.27 85.233a7.499 7.499 0 00-9.45 4.815 7.5 7.5 0 004.814 9.451l15.216 4.944-9.404 12.943a7.5 7.5 0 0012.135 8.818l9.404-12.943 9.404 12.943a7.49 7.49 0 006.074 3.092 7.502 7.502 0 006.062-11.91l-9.404-12.943 15.216-4.943a7.5 7.5 0 004.815-9.451zm316.027 316.026a7.5 7.5 0 00-9.451-4.815l-15.216 4.944v-15.999a7.5 7.5 0 00-15 0v15.999l-15.215-4.944a7.5 7.5 0 00-4.636 14.266l15.216 4.944-9.404 12.943a7.5 7.5 0 006.062 11.909 7.49 7.49 0 006.074-3.092l9.404-12.943 9.404 12.943a7.488 7.488 0 006.074 3.092 7.5 7.5 0 006.061-11.909l-9.404-12.943 15.216-4.944a7.5 7.5 0 004.815-9.451zM339.464 289.332l-39.07-16.279a8.349 8.349 0 01-5.152-7.728v-11.587c10.012-10.193 15.872-24.066 15.872-38.676v-31.744c0-26.015-24.725-47.18-55.116-47.18s-55.116 21.165-55.116 47.18v31.745c0 14.609 5.86 28.483 15.872 38.676v11.585a8.349 8.349 0 01-5.152 7.728l-39.07 16.279a31.227 31.227 0 00-19.267 28.9v23.808c0 12.888 10.485 23.372 23.372 23.372h119.04a7.5 7.5 0 000-15h-119.04c-4.616 0-8.372-3.756-8.372-8.372v-23.808a16.264 16.264 0 0110.036-15.054l39.07-16.278a23.312 23.312 0 0014.383-21.575v-1.543a7.493 7.493 0 006.908-3.725 7.5 7.5 0 00-2.732-10.249c-12.366-7.161-20.048-20.475-20.048-34.746v-31.743c0-17.744 17.996-32.18 40.116-32.18s40.116 14.436 40.116 32.18v31.745c0 14.277-7.687 27.594-20.062 34.753a7.5 7.5 0 003.763 13.993c.142 0 .284-.019.427-.027v1.543a23.313 23.313 0 0014.383 21.575l39.07 16.278a16.265 16.265 0 0110.036 15.054v23.808c0 4.616-3.756 8.372-8.374 8.372h-7.938a7.5 7.5 0 000 15h7.94c12.887 0 23.372-10.484 23.372-23.372v-23.808a31.226 31.226 0 00-19.267-28.9z"/></svg>