<svg height="512pt" viewBox="0 -2 512 512" width="512pt" fill="#f1b01e" xmlns="http://www.w3.org/2000/svg"><path d="M495.477 272.512V66.852c0-16.29-13.25-29.54-29.54-29.54H340.23V21.267C340.23 9.539 330.691 0 318.965 0h-125.93c-11.723 0-21.265 9.54-21.265 21.266v16.047H46.062c-16.289 0-29.539 13.25-29.539 29.539v205.66C6.906 275.926 0 285.117 0 295.89v125.261c0 9.922 15.012 9.938 15.012 0v-125.26c0-5.395 4.39-9.786 9.785-9.786h462.406c5.395 0 9.785 4.391 9.785 9.786v186.738c0 5.394-4.39 9.785-9.785 9.785H24.797c-5.395 0-9.785-4.39-9.785-9.785v-31.453c0-9.922-15.012-9.938-15.012 0v31.453c0 13.672 11.125 24.797 24.797 24.797h462.406c13.672 0 24.797-11.125 24.797-24.797V295.89c0-10.774-6.906-19.965-16.523-23.38zM186.78 21.266a6.262 6.262 0 016.254-6.254h125.93a6.262 6.262 0 016.254 6.254v16.047H186.78zM46.062 52.324h419.875c8.008 0 14.528 6.516 14.528 14.528v204.242H357.8V200.68c12.281-5.727 9.543-18.618 9.886-20.075l5.192-.003c.98 6.082 6.25 10.859 12.766 10.859.105 0 8.09-.004 23.925-.004 7.13-.004 12.93-5.8 12.93-12.93V134.61c0-7.129-5.8-12.93-12.93-12.93l-23.933.005c-6.422 0-11.766 4.703-12.762 10.847h-4.977c-1.062-5.797-6.144-10.328-12.41-10.328-30.183.004-18.054.004-49.718.004-30.485 0-64.66 27.031-66.34 68.574-.258 6.297 4.824 11.485 11.054 11.485 3.41-.407 9.672 1.554 14.282-3.957 2.3-2.75 11.043-11.41 25.238-15.082 1.02-.266 2.52.14 2.547 1.984.097 7.715 4.949 13.918 11.566 16.156v69.727H179.891v-21.121c0-16.059 5.812-31.407 16.37-43.22a58.428 58.428 0 0014.88-38.987c0-21.864-12.047-41.746-31.438-51.887-7.277-3.805-15.992 1.465-15.992 9.672-.574 36.761 1.258 38.953-1.36 38.953h-19.468c-.75 0-1.36-.61-1.36-1.36v-37.593c0-8.207-8.718-13.48-15.992-9.672-19.39 10.14-31.437 30.023-31.437 51.887a58.428 58.428 0 0014.879 38.988c10.558 11.812 16.375 27.16 16.375 43.223v21.117H31.535V66.852c0-8.012 6.52-14.528 14.528-14.528zM352.68 178.152l-.016 7.063a2.043 2.043 0 01-2.039 2.039c-40.898-.316-43.063 1.164-43.063-2.043 0-10.906-10.09-18.977-20.753-16.652-16.497 3.593-27.157 13.062-32.047 18.398 3.582-32.484 31.285-49.738 51.008-49.738l47.503-.004c.985 5.71 5.973 10.332 12.286 10.332l9.238-.008c6.418 0 11.758-4.707 12.758-10.848h19.933v39.754h-19.91c-.902-6.043-6.125-10.855-12.633-10.855l-9.648.008c-6.89 0-12.55 5.605-12.617 12.554zm-33.547 24.114h23.656v68.828h-23.656zm-176.25-22.75h19.469c9.027 0 16.37-7.344 16.37-16.371V132.94c10.88 8.145 17.407 20.946 17.407 34.825a43.417 43.417 0 01-11.059 28.98c-13.02 14.567-20.191 33.473-20.191 53.227v21.12h-24.524v-21.12c0-19.758-7.167-38.66-20.19-53.227a43.417 43.417 0 01-11.06-28.98c0-13.88 6.528-26.68 17.407-34.825v30.204c0 9.027 7.343 16.37 16.37 16.37zm0 0"/><path d="M316.598 368.129c14.804 0 26.851-12.047 26.851-26.852 0-14.808-12.047-26.851-26.851-26.851H195.402c-14.804 0-26.851 12.043-26.851 26.851 0 14.805 12.047 26.852 26.851 26.852zm-133.036-26.852c0-6.53 5.31-11.84 11.84-11.84h121.196c6.527 0 11.84 5.31 11.84 11.84 0 6.528-5.31 11.84-11.84 11.84H195.402c-6.527-.004-11.84-5.312-11.84-11.84zM66.297 248.578V87.086h379.406v161.492c0 9.922 15.012 9.938 15.012 0V86.484c0-7.945-6.465-14.41-14.41-14.41H65.695c-7.945 0-14.41 6.465-14.41 14.41v162.094c0 9.922 15.012 9.938 15.012 0zm0 0"/></svg>