<svg xmlns="http://www.w3.org/2000/svg" fill="#f1b01e" viewBox="0 0 496.176 496.176"><path d="M440.057 440h16v16h-16zm-160 8h16v16h-16z"/><path d="M495.491 440.337a48 48 0 00-7.434-18.817V280c-.058-36.212-22.275-68.699-56-81.888V168a8 8 0 00-8-8h-44.688l24-24h52.688a8 8 0 005.656-2.344l32-32A8 8 0 00496.057 96V56a8 8 0 00-2.344-5.656l-32-32A8 8 0 00456.057 16h-32V8a8 8 0 00-8-8h-112a8 8 0 00-5.656 2.344l-64 64L76.217 224.528l-45.48 7.584v.136a7.834 7.834 0 00-4.36 2.096l-24 24a8 8 0 000 11.312l72 72a8 8 0 0011.312 0l24-24a7.78 7.78 0 002.096-4.368h.136l7.584-45.472 158.208-158.16L339.369 48h76.688a8 8 0 008-8v-8h28.688l27.312 27.312v33.376L452.745 120h-52.688a8 8 0 00-5.656 2.344L356.745 160h-44.688a8 8 0 00-8 8v30.112c-33.725 13.189-55.941 45.676-56 81.888v176c0 22.091 17.909 40 40 40s40-17.909 40-40h72.72c4.325 26.154 29.034 43.85 55.188 39.525 26.155-4.325 43.851-29.034 39.526-55.188zM80.057 324.688L19.369 264l12.688-12.688L92.745 312l-12.688 12.688zm26.344-66.344a7.998 7.998 0 00-2.232 4.344l-5.448 32.664-50.016-50.016 32.672-5.448a8.006 8.006 0 004.336-2.232L240.057 83.312 260.745 104 106.401 258.344zM272.057 92.688L251.369 72l52.688-52.688L324.745 40l-52.688 52.688zm136-60.688h-68.688l-16-16h84.688v16zm-88 144h96v17.528a87.918 87.918 0 00-16-1.528h-64a87.926 87.926 0 00-16 1.528V176zm16 32h64c36.653.044 67.44 27.579 71.56 64h-207.12c4.119-36.421 34.907-63.956 71.56-64zm-72 80h208v16h-208v-16zm208 32v32h-48v-32h48zm-208 0h144v16h-144v-16zm0 32h144v8a8 8 0 008 8h56v38.496a47.73 47.73 0 00-16-5.776V392a8 8 0 00-8-8h-160a8 8 0 00-8 8v24.8a39.624 39.624 0 00-16 7.4V352zm24 128c-13.255 0-24-10.745-24-24s10.745-24 24-24 24 10.745 24 24-10.745 24-24 24zm112.72-40h-76.112a40.112 40.112 0 00-28.608-23.2V400h144v.72c-20.1 3.435-35.845 19.18-39.28 39.28zm47.28 40c-17.673 0-32-14.327-32-32 0-17.673 14.327-32 32-32 17.673 0 32 14.327 32 32 0 17.673-14.327 32-32 32zm-400-136c0-13.255-10.745-24-24-24s-24 10.745-24 24 10.745 24 24 24 24-10.745 24-24zm-32 0a8 8 0 1116 0 8 8 0 01-16 0zm16 88c-17.673 0-32 14.327-32 32 0 17.673 14.327 32 32 32s32-14.327 32-32c0-17.673-14.327-32-32-32zm0 48c-8.837 0-16-7.163-16-16s7.163-16 16-16 16 7.163 16 16-7.163 16-16 16zm40-112c-13.255 0-24 10.745-24 24s10.745 24 24 24 24-10.745 24-24-10.745-24-24-24zm0 32a8 8 0 110-16 8 8 0 010 16z"/><path d="M144.057 392c-13.255 0-24 10.745-24 24s10.745 24 24 24 24-10.745 24-24-10.745-24-24-24zm0 32a8 8 0 110-16 8 8 0 010 16zm8-120c-17.673 0-32 14.327-32 32 0 17.673 14.327 32 32 32s32-14.327 32-32c0-17.673-14.327-32-32-32zm0 48c-8.837 0-16-7.163-16-16s7.163-16 16-16 16 7.163 16 16-7.163 16-16 16zm-72 80h16v16h-16zm32 24h16v16h-16z"/></svg>