<svg width="117" height="40" fill="none" xmlns="http://www.w3.org/2000/svg"><circle cx="20" cy="20" r="20" fill="url(#paint0_linear)"/><path d="M14.834 9L9 31h5.759l2.144-8.095h5.985l4.332-5.6h-6.963l-2.863 3.818 1.695-6.517h9.297c.147 0 .399-.222.751-.666a16.3 16.3 0 001.091-1.574c.378-.61.727-1.227 1.054-1.846.327-.626.566-1.13.718-1.519H14.834V9z" fill="#fff"/><path d="M47.079 6.705h5.967v1.651h-3.861v2.457h3.055v1.586h-3.055V16h-2.106V6.705zm31.52 9.438c-1.49 0-2.656-.446-3.496-1.339-.824-.84-1.235-1.972-1.235-3.393v-.104c0-1.404.446-2.544 1.339-3.419.884-.884 2.015-1.326 3.393-1.326 1.118 0 2.036.251 2.756.754.823.59 1.282 1.421 1.378 2.496H80.64c-.191-1.057-.863-1.586-2.016-1.586-.805 0-1.434.277-1.885.832-.45.555-.675 1.313-.675 2.275v.104c0 .953.203 1.69.61 2.21.434.58 1.093.871 1.977.871.736 0 1.3-.195 1.69-.585.346-.338.528-.797.546-1.378h-2.094v-1.534h4.174v.988c0 1.257-.382 2.253-1.145 2.99-.78.763-1.854 1.144-3.223 1.144zM46.91 26.201h1.885v1.079c.425-.823 1.161-1.235 2.21-1.235.685 0 1.235.208 1.651.624.425.45.637 1.118.637 2.002V33h-1.885v-4.056c0-.468-.095-.81-.286-1.027-.19-.225-.494-.338-.91-.338-.425 0-.767.13-1.027.39-.26.251-.39.62-.39 1.105V33H46.91v-6.799z" fill="#DD2DFA" fill-opacity=".95"/><path d="M56.18 7.992c-.208.19-.463.286-.767.286-.303 0-.559-.095-.767-.286-.199-.2-.299-.446-.299-.741s.1-.537.3-.728c.207-.2.463-.299.766-.299.304 0 .56.1.767.299.208.19.312.433.312.728a.985.985 0 01-.312.741zm-1.69 1.209h1.872V16H54.49V9.201zm3.757 0h1.885v1.079c.425-.823 1.161-1.235 2.21-1.235.685 0 1.235.208 1.65.624.426.45.638 1.118.638 2.002V16h-1.885v-4.056c0-.468-.095-.81-.286-1.027-.19-.225-.494-.338-.91-.338-.425 0-.767.13-1.027.39-.26.251-.39.62-.39 1.105V16h-1.885V9.201zm11.283 6.942c-1.057 0-1.902-.308-2.535-.923-.676-.624-1.014-1.469-1.014-2.535v-.104c0-1.057.338-1.915 1.014-2.574.659-.641 1.487-.962 2.483-.962.945 0 1.716.273 2.314.819.668.607 1.001 1.486 1.001 2.639v.52h-4.9c.025.572.181 1.014.467 1.326.295.303.702.455 1.222.455.815 0 1.287-.316 1.417-.949h1.781c-.112.737-.45 1.304-1.014 1.703-.554.39-1.3.585-2.236.585zm1.43-4.277c-.06-1.014-.554-1.521-1.482-1.521-.424 0-.775.134-1.053.403-.268.26-.437.633-.507 1.118h3.042zm15.348 4.277c-.658 0-1.191-.16-1.599-.481-.45-.355-.676-.871-.676-1.547 0-.754.33-1.317.988-1.69.59-.33 1.44-.494 2.548-.494h.767v-.273c0-.433-.082-.75-.247-.949-.156-.2-.442-.299-.858-.299-.667 0-1.053.32-1.157.962h-1.78c.051-.763.368-1.352.948-1.768.53-.373 1.231-.559 2.106-.559.876 0 1.56.19 2.054.572.53.416.793 1.066.793 1.95V16h-1.833v-.819c-.459.641-1.144.962-2.054.962zm.56-1.313c.424 0 .775-.108 1.052-.325.278-.217.416-.511.416-.884v-.572h-.728c-.572 0-1.005.074-1.3.221-.286.147-.429.394-.429.741 0 .546.33.819.988.819zm5.098-5.629h1.885v1.04c.19-.347.463-.633.819-.858.355-.225.775-.338 1.26-.338.954 0 1.587.394 1.899 1.183.528-.789 1.291-1.183 2.288-1.183.658 0 1.191.204 1.599.611.424.45.637 1.114.637 1.989V16h-1.872v-4.147c0-.84-.356-1.261-1.066-1.261-.382 0-.698.121-.95.364-.242.234-.363.576-.363 1.027V16H96.23v-4.147c0-.84-.356-1.261-1.066-1.261-.382 0-.698.121-.95.364-.242.234-.363.576-.363 1.027V16h-1.885V9.201zm15.282 6.942c-1.057 0-1.902-.308-2.535-.923-.676-.624-1.014-1.469-1.014-2.535v-.104c0-1.057.338-1.915 1.014-2.574.659-.641 1.486-.962 2.483-.962.945 0 1.716.273 2.314.819.667.607 1.001 1.486 1.001 2.639v.52h-4.901c.026.572.182 1.014.468 1.326.295.303.702.455 1.222.455.815 0 1.287-.316 1.417-.949h1.781c-.113.737-.451 1.304-1.014 1.703-.555.39-1.3.585-2.236.585zm1.43-4.277c-.061-1.014-.555-1.521-1.482-1.521-.425 0-.776.134-1.053.403-.269.26-.438.633-.507 1.118h3.042zM58.193 33.143c-1.057 0-1.902-.308-2.535-.923-.676-.624-1.014-1.469-1.014-2.535v-.104c0-1.057.338-1.915 1.014-2.574.66-.641 1.487-.962 2.483-.962.945 0 1.716.273 2.314.819.668.607 1.001 1.486 1.001 2.639v.52h-4.9c.025.572.181 1.014.467 1.326.295.303.702.455 1.222.455.815 0 1.287-.316 1.417-.949h1.781c-.112.737-.45 1.304-1.014 1.703-.554.39-1.3.585-2.236.585zm1.43-4.277c-.06-1.014-.554-1.521-1.482-1.521-.424 0-.775.134-1.053.403-.268.26-.437.633-.507 1.118h3.042zm5.703 4.264c-1.465 0-2.197-.715-2.197-2.145V27.54h-.871v-1.339h.87v-1.469h1.873v1.469h1.43v1.339H65v3.276c0 .537.251.806.754.806.277 0 .515-.043.715-.13v1.456a3.443 3.443 0 01-1.144.182zm1.945-6.929h1.976l1.21 4.576 1.312-4.576h1.547l1.196 4.576 1.287-4.576h1.807L75.461 33h-1.846l-1.157-4.264L71.21 33h-1.872l-2.067-6.799zm14.435 5.512c.529 0 .936-.182 1.222-.546.295-.364.442-.871.442-1.521v-.091c0-.65-.147-1.157-.442-1.521-.286-.373-.693-.559-1.222-.559-.52 0-.927.182-1.222.546-.295.355-.442.858-.442 1.508v.104c0 .659.143 1.17.429 1.534.286.364.698.546 1.235.546zm-.013 1.43c-1.04 0-1.89-.316-2.548-.949-.685-.633-1.027-1.473-1.027-2.522v-.104c0-1.049.342-1.902 1.027-2.561.667-.641 1.521-.962 2.561-.962 1.049 0 1.902.316 2.561.949.676.659 1.014 1.504 1.014 2.535v.104c0 1.049-.342 1.902-1.027 2.561-.659.633-1.512.949-2.561.949zm5.004-6.942h1.885v1.3c.433-.927 1.166-1.395 2.197-1.404v1.755c-.728-.009-1.278.121-1.65.39-.365.269-.547.72-.547 1.352V33h-1.885v-6.799zm5.472-3.081h1.885v5.954l2.184-2.873h2.002l-2.47 3.094L98.435 33h-2.132l-2.25-3.211V33H92.17v-9.88z" fill="#fff"/><defs><linearGradient id="paint0_linear" x1="20.001" y1="1.885" x2="20.001" y2="37.435" gradientUnits="userSpaceOnUse"><stop stop-color="#DD2DFA" stop-opacity=".95"/><stop offset=".5" stop-color="#B66EFF"/><stop offset="1" stop-color="#333863"/></linearGradient></defs></svg>