<svg width="62" height="62" fill="none" xmlns="http://www.w3.org/2000/svg"><path opacity=".2" d="M61.832 31c0 17.031-13.806 30.837-30.837 30.837C13.965 61.837.16 48.031.16 31 .159 13.97 13.965.165 30.996.165 48.026.164 61.831 13.97 61.831 31" fill="#505050"/><g opacity=".8" fill="#fff"><path d="M30.897 16.692l-.19.648v18.785l.19.19 8.72-5.154-8.72-14.469z"/><path d="M30.897 16.692l-8.72 14.469 8.72 5.154V16.692zm0 22.461l-.107.13v6.692l.107.314L39.622 34l-8.725 5.152z"/><path d="M30.897 46.289v-7.136L22.177 34l8.72 12.288zm0-9.974l8.72-5.154-8.72-3.963v9.117z"/><path d="M22.177 31.161l8.72 5.154v-9.117l-8.72 3.963z"/></g></svg>