<svg width="62" height="62" fill="none" xmlns="http://www.w3.org/2000/svg"><path opacity=".2" d="M31 62c17.12 0 31-13.88 31-31C62 13.88 48.12 0 31 0 13.88 0 0 13.88 0 31c0 17.12 13.88 31 31 31z" fill="#F3BA2F"/><path fill-rule="evenodd" clip-rule="evenodd" d="M24.52 28.335l6.483-6.48 6.487 6.486 3.77-3.774-10.257-10.26-10.257 10.258 3.773 3.77zM14.307 31l3.772-3.771L21.852 31l-3.772 3.772-3.772-3.771zm16.695 9.148l-6.484-6.484-3.779 3.768.006.006 10.257 10.254 10.258-10.26.002-.002-3.773-3.768-6.487 6.486zm9.145-9.147l3.772-3.771L47.692 31l-3.772 3.772L40.148 31zm-9.145-3.831l3.826 3.829h.003l-.003.002-3.826 3.829-3.826-3.823-.005-.008.005-.006.67-.67.327-.324 2.83-2.829z" fill="#F3BA2F"/></svg>