<svg width="290" height="129" fill="none" xmlns="http://www.w3.org/2000/svg"><path d="M123.543 115.09h1.474l.106-1.46h4.643v1.46h1.367l.212-2.848h-.889v-5.605h-5.397v.819c0 2.387-.265 3.577-.816 4.786h-.7v2.848zm5.28-7.064v4.216h-2.862c.425-.971.667-2.027.667-3.508v-.708m10.569-.089h-1.49l-2.178 3.418v-3.418h-1.534v5.852h1.491l2.179-3.406v3.406h1.532m3.244 0c.781 0 1.318-.286 1.708-.719v.614h1.551v-3.297c0-.763-.19-1.39-.611-1.812-.402-.405-1.036-.638-1.91-.638-.961 0-1.574.18-2.195.458l.401 1.229c.517-.191.949-.308 1.56-.308.803 0 1.214.372 1.214 1.038v.097a3.964 3.964 0 00-1.382-.233c-1.34 0-2.279.572-2.279 1.812 0 1.143.877 1.759 1.943 1.759zm.484-1.113c-.517 0-.876-.255-.876-.688 0-.53.423-.807 1.109-.807.389 0 .748.086 1.023.213v.286c0 .583-.506.996-1.256.996zm7.976-3.319v-1.42H145v5.852h1.517v-4.432m8.236-1.42h-1.61v2.249h-1.981v-2.249h-1.61v5.852h1.61v-2.237h1.981v2.237h1.61m3.891 0c1.872 0 3.262-1.312 3.262-2.926 0-1.636-1.379-2.926-3.24-2.926-1.874 0-3.262 1.309-3.262 2.926 0 1.636 1.378 2.926 3.24 2.926zm.022-1.375c-.943 0-1.582-.722-1.582-1.551 0-.848.584-1.554 1.56-1.554.942 0 1.581.725 1.581 1.554 0 .848-.584 1.551-1.559 1.551zm6.804 1.375c1.118 0 1.744-.431 2.288-1.027l-.929-.944c-.387.368-.752.596-1.285.596-.868 0-1.421-.692-1.421-1.551 0-.848.564-1.554 1.359-1.554.627 0 .96.231 1.305.558l.93-.945c-.523-.587-1.17-.985-2.226-.985-1.713 0-2.935 1.32-2.935 2.926 0 1.625 1.233 2.926 2.914 2.926zm7.49-5.852h-5.202v1.42h1.752v4.432h1.697v-4.432h1.753m5.852-1.42h-1.491l-2.179 3.418v-3.418h-1.532v5.852h1.49l2.179-3.406v3.406h1.533m1.3 0h1.635v-1.409l.742-.817 1.538 2.226h1.937l-2.389-3.449 2.12-2.403h-1.883l-2.065 2.403v-2.403h-1.635m7.794 5.852c.78 0 1.319-.286 1.711-.719v.614h1.549v-3.297c0-.763-.19-1.39-.611-1.812-.401-.405-1.036-.638-1.911-.638-.96 0-1.572.18-2.194.458l.4 1.229c.518-.191.95-.308 1.561-.308.803 0 1.214.372 1.214 1.038v.097a3.964 3.964 0 00-1.382-.233c-1.34 0-2.279.572-2.279 1.812 0 1.143.875 1.759 1.942 1.759zm.485-1.113c-.517 0-.875-.255-.875-.688 0-.53.422-.807 1.108-.807.389 0 .75.086 1.024.213v.286c0 .583-.507.996-1.257.996zm3.553 2.414c1.174-.021 1.823-.555 1.823-1.89v-1.361h-1.596v1.615h.611v.111c0 .515-.326.819-.966.888m11.704-6.516h-5.202v5.852h1.622v-4.432h1.956v4.432h1.624m4.216 0c1.685 0 2.937-1.312 2.937-2.926 0-1.636-1.242-2.926-2.916-2.926-1.685 0-2.936 1.309-2.936 2.926 0 1.636 1.241 2.926 2.915 2.926zm.021-1.375c-.848 0-1.423-.722-1.423-1.551 0-.848.525-1.554 1.402-1.554.848 0 1.421.725 1.421 1.554 0 .848-.523 1.551-1.4 1.551zm6.481 1.375c1.119 0 1.742-.431 2.287-1.027l-.93-.944c-.386.368-.752.596-1.286.596-.867 0-1.419-.692-1.419-1.551 0-.848.563-1.554 1.356-1.554.627 0 .963.231 1.308.558l.93-.945c-.523-.587-1.171-.985-2.227-.985-1.712 0-2.934 1.32-2.934 2.926 0 1.625 1.23 2.926 2.915 2.926zm7.488-5.852h-5.201v1.42h1.751v4.432h1.699v-4.432h1.751m2.349 4.432c.684 0 1.155-.286 1.496-.719v.614h1.357v-3.297c0-.763-.166-1.39-.536-1.812-.35-.405-.904-.638-1.669-.638-.841 0-1.378.18-1.921.458l.35 1.229c.452-.191.831-.308 1.365-.308.703 0 1.063.372 1.063 1.038v.097a3.085 3.085 0 00-1.21-.233c-1.172 0-1.993.572-1.993 1.812 0 1.143.766 1.759 1.698 1.759zm.425-1.113c-.451 0-.766-.255-.766-.688 0-.53.37-.807.969-.807.341 0 .655.086.894.213v.286c0 .583-.442.996-1.097.996zm3.729-4.739v5.852h3.092c1.306 0 2.11-.6 2.11-1.594 0-.818-.423-1.255-1.108-1.472.484-.22.898-.611.898-1.323 0-.917-.751-1.463-1.892-1.463h-3.1zm1.582 2.349v-1.126h1.151c.464 0 .655.251.655.534 0 .34-.221.592-.677.592h-1.129zm0 2.203v-1.157h1.223c.549 0 .77.251.77.568 0 .352-.232.589-.726.589m3.653 1.3h1.456v-1.409l.658-.817 1.366 2.226h1.722l-2.122-3.449 1.882-2.403h-1.672l-1.834 2.403v-2.403h-1.456m11.054 0h-1.49l-2.178 3.418v-3.418h-1.534v5.852h1.49l2.181-3.406v3.406h1.531m1.427 1.301c1.174-.021 1.824-.555 1.824-1.89v-1.361h-1.597v1.615h.611v.111c0 .515-.325.819-.965.888m8.765-.664c1.121 0 1.745-.431 2.289-1.027l-.93-.944c-.385.368-.752.596-1.285.596-.867 0-1.42-.692-1.42-1.551 0-.848.564-1.554 1.357-1.554.626 0 .963.231 1.307.558l.93-.945c-.525-.587-1.171-.985-2.226-.985-1.715 0-2.935 1.32-2.935 2.926 0 1.625 1.231 2.926 2.913 2.926zm5.71 0c.958 0 1.672-.398 2.167-1.048l-.862-.807c-.414.409-.782.576-1.285.576-.675 0-1.149-.379-1.297-1.101h3.69c.01-.148.018-.293.018-.42 0-1.594-.81-3.052-2.581-3.052-1.541 0-2.621 1.32-2.621 2.926 0 1.74 1.178 2.926 2.771 2.926zm-1.297-3.376c.119-.725.525-1.197 1.147-1.197.634 0 1.03.483 1.118 1.197m2.764 4.677h1.58v-2.331c.376.437.895.811 1.736.811 1.322 0 2.536-.992 2.536-2.806 0-1.835-1.236-2.827-2.536-2.827-.822 0-1.352.377-1.736.883v-.782h-1.58v7.052zm2.911-2.827c-.738 0-1.353-.597-1.353-1.499 0-.922.615-1.519 1.353-1.519.737 0 1.36.597 1.36 1.498 0 .934-.623 1.52-1.36 1.52zm4.241-4.326v5.852h2.707c1.146 0 1.844-.6 1.844-1.594 0-.818-.367-1.255-.966-1.472.423-.22.783-.611.783-1.323 0-.917-.655-1.463-1.651-1.463h-2.717zm1.385 2.349v-1.126h1.008c.406 0 .57.251.57.534 0 .34-.193.592-.589.592h-.989zm0 2.203v-1.157h1.071c.481 0 .674.251.674.568 0 .352-.2.589-.636.589m8.56-4.552h-1.49l-2.179 3.418v-3.418h-1.533v5.852h1.492l2.177-3.406v3.406h1.533m4.214 0c1.118 0 1.744-.431 2.288-1.027l-.929-.944c-.389.368-.752.596-1.285.596-.867 0-1.419-.692-1.419-1.551 0-.848.563-1.554 1.356-1.554.626 0 .959.231 1.304.558l.929-.945c-.522-.587-1.167-.985-2.222-.985-1.714 0-2.936 1.32-2.936 2.926 0 1.625 1.233 2.926 2.914 2.926zm-163.519 9.754h1.625v-3.096l1.593 2.105 1.616-2.133v3.124h1.668v-5.202h-1.668l-1.594 2.182-1.572-2.182h-1.668m10.571 5.202c.96 0 1.673-.354 2.167-.933l-.862-.717c-.414.364-.781.512-1.285.512-.672 0-1.147-.334-1.295-.978h3.689c.01-.13.019-.262.019-.374 0-1.416-.811-2.712-2.582-2.712-1.542 0-2.62 1.174-2.62 2.6 0 1.55 1.176 2.602 2.769 2.602zm-1.294-3.002c.117-.642.523-1.062 1.145-1.062.635 0 1.029.427 1.119 1.062m4.342 1.787c.347-.776.409-1.699.42-2.591v-.119h1.497v2.71h-1.917zm2.744 1.278v1.237h1.34l.19-2.515h-.766v-3.987h-4.585v.449c0 1.268-.072 2.595-.545 3.538h-.607v2.515h1.341l.115-1.237m10.899-5.265h-1.491l-2.178 3.038v-3.038H145v5.202h1.491l2.179-3.03v3.03h1.532m5.795 1.3h1.189l.168-2.515h-.679v-3.987h-1.411v3.987h-1.699v-3.987h-1.412v5.265h3.844m7.86-5.265h-1.491l-2.178 3.038v-3.038h-1.533v5.202h1.491l2.177-3.03v3.03h1.534m6.502-5.202h-1.611v1.999h-1.981v-1.999h-1.61v5.202h1.61v-1.991h1.981v1.991h1.611m4.214 0c1.118 0 1.744-.381 2.288-.913l-.93-.84c-.387.327-.752.532-1.285.532-.867 0-1.421-.615-1.421-1.381 0-.754.564-1.379 1.358-1.379.627 0 .961.205 1.306.493l.929-.837c-.522-.523-1.169-.877-2.225-.877-1.712 0-2.934 1.174-2.934 2.6 0 1.447 1.232 2.602 2.914 2.602zm3.588 0h1.454v-1.252l.661-.729 1.367 1.981h1.72l-2.122-3.068 1.883-2.134h-1.673l-1.836 2.134v-2.134h-1.454m8.767 5.202c1.686 0 2.937-1.164 2.937-2.602 0-1.453-1.241-2.6-2.916-2.6-1.685 0-2.936 1.165-2.936 2.6 0 1.455 1.241 2.602 2.915 2.602zm.021-1.221c-.847 0-1.423-.644-1.423-1.381 0-.754.525-1.379 1.402-1.379.848 0 1.424.644 1.424 1.379 0 .757-.525 1.381-1.403 1.381zm8.118-2.718v-1.263h-3.901v5.202h1.517v-3.939m6.272 3.939c1.871 0 3.265-1.164 3.265-2.602 0-1.453-1.379-2.6-3.242-2.6-1.872 0-3.26 1.165-3.26 2.6 0 1.455 1.378 2.602 3.237 2.602zm.023-1.221c-.939 0-1.578-.644-1.578-1.381 0-.754.581-1.379 1.555-1.379.944 0 1.581.644 1.581 1.379 0 .757-.584 1.381-1.558 1.381zm14.61 1.221c1.688 0 2.937-1.164 2.937-2.602 0-1.453-1.242-2.6-2.916-2.6-1.685 0-2.936 1.165-2.936 2.6 0 1.455 1.241 2.602 2.915 2.602zm.021-1.221c-.848 0-1.421-.644-1.421-1.381 0-.754.523-1.379 1.4-1.379.848 0 1.423.644 1.423 1.379 0 .757-.522 1.381-1.402 1.381zm7.157-.041c-.781 0-1.365-.598-1.365-1.33 0-.752.541-1.35 1.346-1.35a1.34 1.34 0 011.365 1.35c0 .742-.532 1.33-1.346 1.33zm-.019 1.262c1.701 0 2.93-1.186 2.93-2.612 0-1.416-1.229-2.479-2.649-2.479-1.147 0-1.827.53-2.034.869.041-.493.322-1.023 1.357-1.214l3.067-.561-.251-1.155-2.996.509c-2.095.356-2.346 2.007-2.346 3.559 0 1.986 1.032 3.084 2.922 3.084zm6.495 0c1.685 0 2.937-1.164 2.937-2.602 0-1.453-1.241-2.6-2.916-2.6-1.686 0-2.936 1.165-2.936 2.6 0 1.455 1.239 2.602 2.915 2.602zm.021-1.221c-.848 0-1.424-.644-1.424-1.381 0-.754.525-1.379 1.403-1.379.85 0 1.424.644 1.424 1.379 0 .757-.524 1.381-1.403 1.381zm4.217 3.171h1.581v-2.331c.372.438.892.812 1.735.812 1.32 0 2.536-.995 2.536-2.809 0-1.832-1.238-2.824-2.536-2.824-.821 0-1.352.374-1.735.88v-.78h-1.581v7.052zm2.911-2.827c-.737 0-1.352-.597-1.352-1.501 0-.92.615-1.517 1.352-1.517.737 0 1.36.597 1.36 1.499 0 .93-.623 1.519-1.36 1.519zm5.436 2.827c.956 0 1.417-.42 1.846-1.537l2.161-5.615h-1.656l-1.227 3.735-1.28-3.735h-1.689l2.202 5.503c-.137.278-.283.358-.557.358-.209 0-.47-.091-.681-.214l-.536 1.125c.41.236.838.38 1.417.38zm6.886-3.165c.348-.776.411-1.699.419-2.591v-.119h1.5v2.71h-1.919zm2.747 1.278v1.237h1.34l.187-2.515h-.765v-3.987h-4.586v.449c0 1.268-.074 2.595-.546 3.538h-.606v2.515h1.341l.115-1.237m8.612-.063c1.685 0 2.937-1.164 2.937-2.602 0-1.453-1.241-2.6-2.916-2.6-1.685 0-2.936 1.165-2.936 2.6 0 1.455 1.238 2.602 2.915 2.602zm.021-1.221c-.847 0-1.423-.644-1.423-1.381 0-.754.523-1.379 1.402-1.379.848 0 1.424.644 1.424 1.379 0 .757-.526 1.381-1.403 1.381zm4.216-3.981v5.202h3.092c1.309 0 2.11-.536 2.11-1.417 0-.729-.423-1.118-1.108-1.311.487-.193.898-.543.898-1.173 0-.816-.748-1.301-1.889-1.301h-3.103zm1.583 2.085v-.998h1.149c.465 0 .655.224.655.475 0 .302-.221.523-.677.523h-1.127zm0 1.961v-1.028h1.224c.55 0 .771.223.771.505 0 .31-.232.523-.73.523m4.944 1.156c.784 0 1.32-.254 1.712-.641v.547h1.55v-2.932c0-.679-.19-1.234-.61-1.611-.404-.358-1.036-.565-1.912-.565-.961 0-1.572.16-2.193.405l.397 1.092c.52-.167.953-.271 1.564-.271.801 0 1.213.328 1.213.922v.084a4.497 4.497 0 00-1.382-.207c-1.339 0-2.279.511-2.279 1.613 0 1.016.876 1.564 1.94 1.564zm.486-.989c-.517 0-.876-.227-.876-.614 0-.469.423-.715 1.111-.715.389 0 .748.076 1.022.189v.254c0 .518-.509.886-1.257.886zm9.278-4.213h-1.609v1.999h-1.981v-1.999h-1.612v5.202h1.612v-1.991h1.981v1.991h1.609m6.503-5.202h-1.491l-2.177 3.038v-3.038h-1.534v5.202h1.49l2.18-3.03v3.03h1.532m6.502-5.202h-2.796c-1.393 0-2.161.699-2.161 1.738 0 .805.44 1.3 1.117 1.551l-1.362 1.913h1.749l1.123-1.669h.817v1.669h1.513v-5.202zm-2.539 2.464c-.546 0-.885-.234-.885-.65 0-.427.328-.658.875-.658h1.036v1.308M152.803 58.52h-6.208l-2.808-6.836h-9.449l1.305-3.121c.395-.793 1.002-1.188 1.818-1.188h3.163a.918.918 0 00.673-.279.895.895 0 00.277-.65c0-.124-1.146-3.01-3.44-8.657l-8.621 20.731h-5.97l11.388-26.009h4.508c1.317 0 2.294.62 2.926 1.86M165.74 58.52V37.269h7.189c.78 0 1.379-.395 1.797-1.188l1.485-3.569h-25.359v4.757h9.222V58.52m32.048.65c2.791 0 5.292-.616 7.501-1.852 2.211-1.236 3.956-2.887 5.234-4.954 1.275-2.067 1.914-4.352 1.914-6.848 0-2.673-.671-5.03-2.013-7.072-1.344-2.043-3.127-3.652-5.352-4.824-2.223-1.171-4.652-1.758-7.284-1.758-2.765 0-5.252.619-7.464 1.855-2.211 1.233-3.954 2.885-5.232 4.954-1.277 2.068-1.915 4.35-1.915 6.845 0 2.673.679 5.038 2.034 7.092 1.357 2.056 3.145 3.662 5.37 4.823 2.224 1.16 4.627 1.74 7.207 1.74zm0-5.031c-2.475 0-4.548-.824-6.22-2.475-1.671-1.652-2.507-3.7-2.507-6.148 0-2.47.836-4.526 2.507-6.166 1.672-1.638 3.745-2.459 6.22-2.459 2.554 0 4.653.826 6.298 2.48 1.644 1.652 2.47 3.7 2.47 6.145 0 2.448-.826 4.496-2.47 6.148-1.645 1.651-3.744 2.475-6.298 2.475zm23.201 4.381h-5.301V32.511h5.419c1.189 0 2.124.546 2.81 1.636l6.725 12.336 6.726-12.336c.688-1.09 1.623-1.636 2.81-1.636h3.522l-13.135 24.153-9.576-17.279v19.136zm24.61 0h-5.304V43.362l5.304-10.105V58.52zm-99.807 36.413c-2.877 0-5.415-.611-7.61-1.832-2.198-1.222-3.917-2.841-5.159-4.862a12.403 12.403 0 01-1.864-6.618c0-2.542.655-4.814 1.962-6.824 1.308-2.008 3.073-3.599 5.295-4.768 2.224-1.171 4.682-1.756 7.376-1.756 2.3 0 4.458.443 6.472 1.33 2.014.888 3.648 2.046 4.904 3.477l-3.178 2.068a2.16 2.16 0 01-1.138.333c-.391 0-.783-.12-1.177-.37-1.752-1.281-3.712-1.92-5.883-1.92-2.484 0-4.57.801-6.257 2.402-1.687 1.602-2.531 3.612-2.531 6.028 0 2.34.85 4.32 2.551 5.934 1.698 1.614 3.83 2.422 6.393 2.422 2.119 0 4.028-.606 5.727-1.814.394-.246.786-.37 1.177-.37.392 0 .772.113 1.138.333l3.06 2.034c-1.334 1.455-3.002 2.613-5.002 3.475a15.6 15.6 0 01-6.256 1.298zm34.691-21.86h-20.064v-4.8h23.408l-1.511 3.583c-.427.812-1.037 1.217-1.833 1.217zm-5.334 10.854h-14.73v-4.645h17.994l-1.432 3.425c-.425.813-1.036 1.22-1.832 1.22zm5.455 11.006h-20.185v-4.8h23.408l-1.353 3.542c-.398.84-1.022 1.258-1.87 1.258zm12.267 0h-5.792V80.31h13.5c1.173-.027 2.138-.35 2.895-.972.76-.62 1.139-1.503 1.139-2.645 0-1.145-.379-2.033-1.139-2.667-.757-.635-1.722-.966-2.895-.99h-11.504c-.558 0-1.032-.184-1.419-.552a1.809 1.809 0 01-.577-1.355v-2.856h14.021c2.715 0 4.957.775 6.731 2.325 1.769 1.55 2.656 3.568 2.656 6.054 0 2.39-.879 4.355-2.637 5.904-1.758 1.55-4.008 2.324-6.75 2.324h-8.229m34.556 10.053h-5.953l1.349-3.35c.424-.816 1.031-1.22 1.824-1.22h2.342c1.295 0 2.348-.305 3.154-.916.808-.607 1.211-1.457 1.211-2.55 0-1.015-.389-1.842-1.171-2.476-.782-.634-1.845-.95-3.194-.95h-5.437l1.19-3.085c.425-.813 1.048-1.22 1.867-1.22h1.824c1.163 0 2.13-.273 2.899-.818.765-.546 1.149-1.326 1.149-2.344 0-1.014-.384-1.795-1.149-2.34-.769-.548-1.736-.818-2.899-.818h-6.944v22.087h-5.751v-26.66h13.052c2.751 0 5.008.675 6.767 2.02 1.757 1.347 2.638 3.11 2.638 5.293 0 1.22-.312 2.305-.932 3.258a7.436 7.436 0 01-2.48 2.34c1.295.61 2.345 1.429 3.154 2.457.806 1.029 1.209 2.216 1.209 3.56 0 2.338-.892 4.209-2.678 5.618-1.784 1.41-4.132 2.114-7.041 2.114zm13.62-3.313V68.274h5.403v16.148l-5.403 7.2zm24.709 3.313h-5.443V77.11l-11.48 16.642c-.689.785-1.536 1.18-2.542 1.18h-5.244l6.793-9.408 11.478-16.07c.718-.787 1.552-1.182 2.506-1.182h3.932m18.249 26.661c-2.948 0-5.547-.611-7.801-1.832-2.251-1.222-4.012-2.841-5.289-4.862a12.193 12.193 0 01-1.908-6.618c0-2.542.672-4.814 2.011-6.824 1.34-2.008 3.15-3.599 5.428-4.768 2.278-1.171 4.799-1.756 7.559-1.756 2.36 0 4.57.443 6.633 1.33 2.066.888 3.741 2.046 5.028 3.477l-3.258 2.068a2.259 2.259 0 01-1.168.333c-.4 0-.803-.12-1.203-.37-1.797-1.281-3.805-1.92-6.032-1.92-2.548 0-4.685.801-6.413 2.402-1.728 1.602-2.594 3.612-2.594 6.028 0 2.34.871 4.32 2.613 5.934 1.742 1.614 3.928 2.422 6.555 2.422 2.172 0 4.126-.606 5.871-1.814.4-.246.803-.37 1.203-.37.403 0 .792.113 1.168.333l3.136 2.034c-1.364 1.455-3.076 2.613-5.126 3.475a16.33 16.33 0 01-6.413 1.298z" fill="#FEFEFE"/><path fill-rule="evenodd" clip-rule="evenodd" d="M29.26 88.321V39.384L74.776 0l-.004 12.635-39.146 34.058v54.092c-4.38-2.824-6.366-5.95-6.366-12.464z" fill="#FEFEFE"/><path fill-rule="evenodd" clip-rule="evenodd" d="M38.363 48.483c7.078-6.293 12.181-9.552 18.857-15.972v12.903L46.636 54.32v51.667c-3.248-1.548-5.995-2.804-8.273-4.022m36.413-84.409l-.014 68.627c0 7.907-6.238 11.282-14.291 15.252V30.652M76.727 90.54a72.301 72.301 0 011.81 1.792l2.741-2.843a124.642 124.642 0 00-4.551-3.66" fill="#FEFEFE"/><path fill-rule="evenodd" clip-rule="evenodd" d="M79.93 93.262c-5.422 5.369-12.783 10.606-21.264 14.546a136.43 136.43 0 01-6.648 2.886l13.98 3.745c7.54-4.359 14.103-9.244 19.336-14.231l3.728-3.812C97.335 87.27 100.9 78.182 97.63 71.75c-2.87-5.646-10.474-7.904-20.547-7.274v3.043c5.833.112 10.186 1.8 11.964 5.648 1.952 4.232-.684 10.676-6.417 17.227m-62.887 1.938c2.51-2.39 5.337-4.689 8.217-6.807v-3.597c-3.705 2.334-7.492 4.941-11.054 7.723m15.801 26.9c-10.206 1.966-17.152.894-20.158-3.929-1.87-3.001-1.702-6.372-.215-9.836v.003l-4.062-4.605C1.52 105.683-2.225 113.699 1.427 120.8c4.988 9.694 23.71 10.455 45.39 2.617" fill="#FEFEFE"/><path fill-rule="evenodd" clip-rule="evenodd" d="M86.13 101.707c2.042 3.941 2.321 7.4.218 10.798-2.079 3.363-6.597 4.778-12.574 4.668-17.284-.327-42.785-12.127-54.798-23.96l-2.712-2.864c-5.754-6.54-8.4-12.973-6.44-17.196 2.34-5.042 9.135-6.37 17.894-5.3v-2.73c-12.995-2-23.093-.069-26.51 6.615-3.213 6.289.15 15.117 8.09 24.037l1.207 1.276 3.046 3.097c14.104 13.361 34.26 24.037 53.642 27.077 13.668 2.145 26.653.451 30.22-6.529 3.705-7.248-.234-15.448-7.197-23.083M48.117 70.362l11.053-4.039v3.268l-11.053 3.885v-3.114z" fill="#FEFEFE"/></svg>