<svg width="446" height="198" fill="none" xmlns="http://www.w3.org/2000/svg"><path d="M190 177h2.267l.163-2.244h7.141V177h2.102l.327-4.38h-1.369V164h-8.299v1.259c0 3.672-.407 5.502-1.255 7.361H190V177zm8.121-10.864v6.484h-4.402c.653-1.493 1.027-3.118 1.027-5.394v-1.09M211 166h-2.291l-3.35 5.256V166H203v9h2.293l3.35-5.238V175H211m4.988 0c1.201 0 2.027-.44 2.628-1.105v.943H221v-5.07c0-1.173-.292-2.138-.939-2.787-.619-.623-1.593-.981-2.938-.981-1.477 0-2.419.277-3.375.704l.616 1.891c.796-.295 1.46-.474 2.4-.474 1.235 0 1.867.572 1.867 1.596v.149a6.12 6.12 0 00-2.125-.358c-2.061 0-3.506.879-3.506 2.786 0 1.759 1.348 2.706 2.988 2.706zm.745-1.711c-.795 0-1.347-.393-1.347-1.059 0-.815.65-1.241 1.705-1.241.599 0 1.151.132 1.573.328v.44c0 .896-.778 1.532-1.931 1.532zM229 168.184V166h-6v9h2.333v-6.816M238 166h-2.477v3.458h-3.046V166H230v9h2.477v-3.441h3.046V175H238m5.983 0c2.88 0 5.017-2.018 5.017-4.5 0-2.516-2.121-4.5-4.983-4.5-2.882 0-5.017 2.014-5.017 4.5 0 2.516 2.119 4.5 4.983 4.5zm.034-2.115c-1.45 0-2.432-1.11-2.432-2.385 0-1.304.897-2.389 2.398-2.389 1.45 0 2.432 1.114 2.432 2.389 0 1.304-.898 2.385-2.398 2.385zM254.481 175c1.72 0 2.683-.663 3.519-1.579l-1.429-1.452c-.595.566-1.156.916-1.976.916-1.334 0-2.185-1.064-2.185-2.385 0-1.304.867-2.389 2.089-2.389.965 0 1.477.354 2.008.857l1.431-1.453c-.805-.903-1.801-1.515-3.424-1.515-2.635 0-4.514 2.031-4.514 4.5 0 2.499 1.896 4.5 4.481 4.5zM266 166h-8v2.184h2.695V175h2.61v-6.816H266m9-2.184h-2.293l-3.35 5.256V166H267v9h2.291l3.352-5.238V175H275m2 0h2.515v-2.166l1.14-1.257 2.366 3.423H286l-3.674-5.304 3.26-3.696h-2.896l-3.175 3.696V166H277m11.987 9c1.199 0 2.028-.44 2.63-1.105v.943H294v-5.07c0-1.173-.292-2.138-.939-2.787-.618-.623-1.593-.981-2.939-.981-1.477 0-2.418.277-3.375.704l.615 1.891c.797-.295 1.462-.474 2.401-.474 1.235 0 1.867.572 1.867 1.596v.149a6.116 6.116 0 00-2.125-.358c-2.061 0-3.505.879-3.505 2.786 0 1.759 1.346 2.706 2.987 2.706zm.745-1.711c-.795 0-1.346-.393-1.346-1.059 0-.815.649-1.241 1.704-1.241a3.81 3.81 0 011.575.328v.44c0 .896-.78 1.532-1.933 1.532zm5.465 3.711c1.805-.033 2.803-.854 2.803-2.907V172h-2.455v2.484h.941v.17c0 .793-.502 1.261-1.486 1.366M313 166h-8v9h2.493v-6.816h3.009V175H313m6.484 0c2.591 0 4.516-2.018 4.516-4.5 0-2.516-1.909-4.5-4.484-4.5-2.591 0-4.516 2.014-4.516 4.5 0 2.516 1.909 4.5 4.484 4.5zm.032-2.115c-1.303 0-2.189-1.11-2.189-2.385 0-1.304.808-2.389 2.157-2.389 1.303 0 2.185 1.114 2.185 2.389 0 1.304-.804 2.385-2.153 2.385zm9.968 2.115c1.72 0 2.679-.663 3.516-1.579l-1.43-1.452c-.593.566-1.157.916-1.977.916-1.333 0-2.183-1.064-2.183-2.385 0-1.304.867-2.389 2.086-2.389.964 0 1.481.354 2.011.857l1.43-1.453c-.803-.903-1.8-1.515-3.424-1.515-2.633 0-4.513 2.031-4.513 4.5 0 2.499 1.893 4.5 4.484 4.5zM341 166h-8v2.184h2.693V175h2.614v-6.816H341m3.612 6.816c1.051 0 1.776-.44 2.3-1.105v.943H349v-5.07c0-1.173-.256-2.138-.825-2.787-.539-.623-1.389-.981-2.567-.981-1.293 0-2.118.277-2.954.704l.539 1.891c.694-.295 1.278-.474 2.099-.474 1.081 0 1.635.572 1.635 1.596v.149a4.767 4.767 0 00-1.862-.358c-1.802 0-3.065.879-3.065 2.786 0 1.759 1.178 2.706 2.612 2.706zm.654-1.711c-.695 0-1.178-.393-1.178-1.059 0-.815.569-1.241 1.49-1.241a2.97 2.97 0 011.375.328v.44c0 .896-.68 1.532-1.687 1.532zM351 166v9h4.756c2.008 0 3.244-.923 3.244-2.452 0-1.257-.65-1.929-1.703-2.263.743-.339 1.38-.941 1.38-2.035 0-1.411-1.155-2.25-2.908-2.25H351zm2.433 3.612v-1.731h1.771c.713 0 1.006.387 1.006.822 0 .523-.34.909-1.04.909h-1.737zm0 3.389v-1.78h1.881c.845 0 1.185.386 1.185.874 0 .541-.357.906-1.117.906M361 175h2.24v-2.166l1.012-1.257 2.101 3.423H369l-3.263-5.304 2.894-3.696h-2.571l-2.82 3.696V166H361m17 0h-2.292l-3.349 5.256V166H370v9h2.292l3.353-5.238V175H378m2.194 2c1.806-.033 2.806-.854 2.806-2.907V172h-2.456v2.484h.94v.17c0 .793-.5 1.261-1.484 1.366m13.48-1.02c1.724 0 2.683-.663 3.52-1.579l-1.43-1.452c-.593.566-1.157.916-1.977.916-1.333 0-2.183-1.064-2.183-2.385 0-1.304.867-2.389 2.086-2.389.964 0 1.481.354 2.011.857l1.43-1.453c-.808-.903-1.8-1.515-3.424-1.515-2.637 0-4.513 2.031-4.513 4.5 0 2.499 1.893 4.5 4.48 4.5zm8.781 0c1.473 0 2.572-.612 3.333-1.613l-1.326-1.241c-.637.629-1.203.887-1.975.887-1.04 0-1.768-.583-1.995-1.693h5.674a9.59 9.59 0 00.028-.646c0-2.452-1.246-4.694-3.97-4.694-2.369 0-4.03 2.031-4.03 4.5 0 2.676 1.812 4.5 4.261 4.5zm-1.995-5.192c.183-1.115.808-1.841 1.764-1.841.975 0 1.585.743 1.72 1.841M408 177h2.431v-3.585c.577.673 1.377 1.248 2.669 1.248 2.034 0 3.9-1.525 3.9-4.315 0-2.823-1.9-4.348-3.9-4.348-1.263 0-2.079.579-2.669 1.358v-1.203H408V177zm4.477-4.348c-1.134 0-2.079-.917-2.079-2.304 0-1.42.945-2.337 2.079-2.337 1.134 0 2.092.917 2.092 2.304 0 1.436-.958 2.337-2.092 2.337zM419 166v9h4.164c1.762 0 2.836-.923 2.836-2.452 0-1.257-.565-1.929-1.487-2.263.651-.339 1.205-.941 1.205-2.035 0-1.411-1.008-2.25-2.54-2.25H419zm2.13 3.612v-1.731h1.55c.625 0 .878.387.878.822 0 .523-.298.909-.907.909h-1.521zm0 3.389v-1.78h1.647c.74 0 1.037.386 1.037.874 0 .541-.308.906-.978.906M436 166h-2.29l-3.352 5.256V166H428v9h2.295l3.347-5.238V175H436m6.481 0c1.72 0 2.682-.663 3.519-1.579l-1.429-1.452c-.597.566-1.156.916-1.976.916-1.333 0-2.182-1.064-2.182-2.385 0-1.304.866-2.389 2.085-2.389.963 0 1.476.354 2.005.857l1.43-1.453c-.803-.903-1.795-1.515-3.418-1.515-2.636 0-4.515 2.031-4.515 4.5 0 2.499 1.896 4.5 4.481 4.5zM191 190h2.5v-4.762l2.449 3.239 2.485-3.282V190H201v-8h-2.566l-2.451 3.356-2.417-3.356H191m16.258 8c1.476 0 2.572-.544 3.333-1.434l-1.325-1.104c-.638.56-1.202.789-1.977.789-1.034 0-1.765-.515-1.992-1.506h5.674c.015-.199.029-.402.029-.574 0-2.178-1.247-4.171-3.971-4.171-2.371 0-4.029 1.806-4.029 3.998 0 2.384 1.809 4.002 4.258 4.002zm-1.99-4.618c.18-.987.804-1.633 1.761-1.633.976 0 1.582.657 1.721 1.633m6.678 2.751c.533-1.194.629-2.614.645-3.986v-.182h2.303v4.168h-2.948zm4.219 1.965V192h2.061l.292-3.867h-1.177V182h-7.052v.692c0 1.949-.111 3.99-.837 5.441H212V192h2.061l.178-1.902M231 182h-2.293l-3.349 4.672V182H223v8h2.293l3.351-4.66V190H231m8.913 2h1.829l.258-3.867h-1.044V182h-2.17v6.133h-2.613V182H234v8.098h5.913M252 182h-2.292l-3.35 4.672V182H244v8h2.293l3.349-4.66V190H252m10-8h-2.476v3.074h-3.047V182H254v8h2.477v-3.062h3.047V190H262m6.481 0c1.72 0 2.683-.586 3.519-1.404l-1.431-1.291c-.594.503-1.156.818-1.976.818-1.332 0-2.185-.946-2.185-2.125 0-1.16.868-2.121 2.088-2.121.964 0 1.479.315 2.009.758l1.429-1.287c-.803-.804-1.798-1.348-3.422-1.348-2.633 0-4.512 1.806-4.512 3.998 0 2.226 1.894 4.002 4.481 4.002zm5.519 0h2.236v-1.926l1.016-1.121 2.102 3.047H282l-3.264-4.719 2.897-3.281h-2.574l-2.823 3.281V182H274m13.483 8c2.592 0 4.517-1.791 4.517-4.002 0-2.234-1.909-3.998-4.486-3.998-2.591 0-4.514 1.791-4.514 3.998 0 2.238 1.907 4.002 4.483 4.002zm.031-1.877c-1.303 0-2.188-.991-2.188-2.125 0-1.16.807-2.121 2.157-2.121 1.304 0 2.189.991 2.189 2.121 0 1.164-.808 2.125-2.158 2.125zM300 183.941V182h-6v8h2.333v-6.059m9.645 6.059c2.879 0 5.022-1.791 5.022-4.002 0-2.234-2.121-3.998-4.986-3.998-2.878 0-5.014 1.791-5.014 3.998 0 2.238 2.12 4.002 4.978 4.002zm.036-1.877c-1.443 0-2.427-.991-2.427-2.125 0-1.16.893-2.121 2.391-2.121 1.453 0 2.432.991 2.432 2.121 0 1.164-.898 2.125-2.396 2.125zm22.47 1.877c2.595 0 4.516-1.791 4.516-4.002 0-2.234-1.909-3.998-4.484-3.998-2.591 0-4.516 1.791-4.516 3.998 0 2.238 1.909 4.002 4.484 4.002zm.032-1.877c-1.303 0-2.185-.991-2.185-2.125 0-1.16.804-2.121 2.153-2.121 1.303 0 2.189.991 2.189 2.121 0 1.164-.804 2.125-2.157 2.125zm11.007-.064c-1.201 0-2.1-.92-2.1-2.045 0-1.157.832-2.077 2.071-2.077 1.201 0 2.1.932 2.1 2.077 0 1.141-.819 2.045-2.071 2.045zm-.029 1.941c2.616 0 4.506-1.824 4.506-4.017 0-2.178-1.89-3.812-4.074-3.812-1.764 0-2.809.815-3.129 1.335.063-.757.496-1.572 2.088-1.867l4.716-.861-.386-1.778-4.607.784c-3.222.547-3.608 3.086-3.608 5.473 0 3.055 1.587 4.743 4.494 4.743zm9.988 0c2.592 0 4.518-1.791 4.518-4.002 0-2.234-1.91-3.998-4.486-3.998-2.592 0-4.514 1.791-4.514 3.998 0 2.238 1.906 4.002 4.482 4.002zm.032-1.877c-1.304 0-2.19-.991-2.19-2.125 0-1.16.809-2.121 2.158-2.121 1.308 0 2.19.991 2.19 2.121 0 1.164-.805 2.125-2.158 2.125zM356 193h2.431v-3.585c.573.673 1.372 1.248 2.669 1.248 2.03 0 3.9-1.53 3.9-4.319 0-2.819-1.904-4.344-3.9-4.344-1.263 0-2.079.575-2.669 1.354v-1.199H356V193zm4.477-4.348c-1.134 0-2.08-.917-2.08-2.308 0-1.416.946-2.333 2.08-2.333 1.134 0 2.092.917 2.092 2.304 0 1.432-.958 2.337-2.092 2.337zm8.361 4.348c1.47 0 2.179-.647 2.838-2.364L375 182h-2.547l-1.888 5.745-1.968-5.745H366l3.387 8.463c-.211.428-.435.552-.857.552-.321 0-.722-.14-1.048-.329l-.823 1.729a4.122 4.122 0 002.179.585zm10.589-4.867c.536-1.194.633-2.614.645-3.986v-.182h2.307v4.168h-2.952zm4.225 1.965V192h2.061l.287-3.867h-1.176V182h-7.053v.692c0 1.949-.114 3.99-.839 5.441H376V192h2.062l.177-1.902m13.245-.098c2.591 0 4.516-1.791 4.516-4.002 0-2.234-1.909-3.998-4.484-3.998-2.591 0-4.516 1.791-4.516 3.998 0 2.238 1.905 4.002 4.484 4.002zm.032-1.877c-1.303 0-2.189-.991-2.189-2.125 0-1.16.804-2.121 2.157-2.121 1.303 0 2.189.991 2.189 2.121 0 1.164-.808 2.125-2.157 2.125zM398 182v8h4.754c2.014 0 3.246-.824 3.246-2.18 0-1.121-.65-1.718-1.704-2.015.748-.297 1.381-.836 1.381-1.805 0-1.254-1.151-2-2.906-2H398zm2.434 3.207v-1.535h1.768c.714 0 1.007.344 1.007.73 0 .465-.34.805-1.041.805h-1.734zm0 3.016v-1.582h1.883c.845 0 1.185.343 1.185.777 0 .477-.357.805-1.122.805m7.602 1.777c1.207 0 2.031-.391 2.635-.986v.842H415v-4.51c0-1.043-.293-1.897-.939-2.477-.62-.55-1.593-.869-2.94-.869-1.478 0-2.417.247-3.373.622l.612 1.681c.798-.258 1.465-.418 2.404-.418 1.232 0 1.865.505 1.865 1.419v.129a6.912 6.912 0 00-2.124-.319c-2.06 0-3.505.785-3.505 2.481 0 1.563 1.347 2.405 2.982 2.405zm.748-1.521c-.794 0-1.347-.349-1.347-.945 0-.72.65-1.1 1.708-1.1.599 0 1.152.118 1.572.292v.391c0 .797-.781 1.362-1.933 1.362zM425 182h-2.475v3.074h-3.046V182H417v8h2.479v-3.062h3.046V190H425m10-8h-2.292l-3.349 4.672V182H427v8h2.292l3.353-4.66V190H435m10-8h-4.3c-2.142 0-3.324 1.074-3.324 2.672 0 1.238.677 2 1.718 2.387L437 190h2.691l1.725-2.566h1.258V190H445v-8zm-3.904 3.789c-.841 0-1.361-.359-1.361-1 0-.656.504-1.012 1.345-1.012h1.594v2.012M235 90h-9.547l-4.318-10.514h-14.533l2.007-4.8c.608-1.219 1.541-1.827 2.797-1.827h4.864c.407 0 .75-.145 1.034-.429.285-.288.426-.62.426-1 0-.19-1.762-4.63-5.29-13.313L199.182 90H190l17.514-40h6.933c2.026 0 3.528.952 4.501 2.86M254.896 90V57.315h11.057c1.2 0 2.121-.608 2.763-1.827L271 50h-39v7.315h14.183V90m49.288 1c4.291 0 8.137-.948 11.535-2.85 3.4-1.9 6.085-4.44 8.05-7.619C317.017 77.351 318 73.839 318 70c0-4.11-1.032-7.735-3.096-10.877-2.068-3.142-4.81-5.616-8.231-7.418-3.419-1.802-7.155-2.705-11.202-2.705-4.253 0-8.078.953-11.48 2.853-3.399 1.897-6.081 4.437-8.046 7.62C273.981 62.653 273 66.161 273 70c0 4.11 1.044 7.748 3.127 10.906 2.088 3.163 4.837 5.633 8.259 7.418 3.421 1.785 7.117 2.676 11.085 2.676zm0-7.74c-3.808 0-6.996-1.265-9.567-3.805-2.569-2.54-3.856-5.69-3.856-9.455 0-3.798 1.287-6.96 3.856-9.484 2.571-2.519 5.759-3.78 9.567-3.78 3.927 0 7.155 1.27 9.685 3.813 2.529 2.54 3.799 5.69 3.799 9.451 0 3.765-1.27 6.915-3.799 9.455-2.53 2.54-5.758 3.806-9.685 3.806zM331.152 90H323V50h8.333c1.829 0 3.267.838 4.321 2.515l10.344 18.971 10.343-18.97C357.4 50.837 358.838 50 360.663 50h5.416l-20.201 37.145-14.726-26.574V90zM369 90h-8.156V66.687L369 51.147V90zm-153.497 56c-4.424 0-8.326-.939-11.704-2.817-3.379-1.879-6.022-4.37-7.934-7.477-1.909-3.108-2.865-6.502-2.865-10.178 0-3.91 1.007-7.404 3.017-10.496 2.012-3.087 4.725-5.534 8.143-7.331 3.42-1.802 7.201-2.701 11.343-2.701 3.539 0 6.857.681 9.954 2.044 3.098 1.366 5.611 3.148 7.543 5.348l-4.888 3.18c-.564.343-1.148.512-1.75.512-.602 0-1.205-.185-1.81-.568-2.695-1.971-5.71-2.954-9.049-2.954-3.819 0-7.027 1.233-9.622 3.696-2.594 2.462-3.892 5.554-3.892 9.27 0 3.6 1.306 6.643 3.922 9.126 2.612 2.483 5.891 3.724 9.833 3.724 3.259 0 6.195-.931 8.808-2.789.605-.379 1.208-.569 1.81-.569.602 0 1.186.174 1.75.512l4.706 3.128c-2.052 2.237-4.617 4.019-7.693 5.345a23.997 23.997 0 01-9.622 1.995zm53.353-33.619H238V105h36l-2.325 5.509c-.656 1.25-1.595 1.872-2.819 1.872zm-8.204 16.693H238v-7.144h27.673l-2.202 5.268c-.654 1.25-1.593 1.876-2.819 1.876zm8.39 16.926H238v-7.381h36l-2.082 5.446c-.612 1.292-1.572 1.935-2.876 1.935zm18.866 0H279v-22.489h20.763c1.803-.041 3.288-.539 4.453-1.494 1.168-.955 1.751-2.312 1.751-4.069 0-1.76-.583-3.126-1.751-4.101-1.165-.976-2.65-1.486-4.453-1.524h-17.692c-.858 0-1.588-.282-2.182-.847a2.777 2.777 0 01-.889-2.084V105h21.563c4.177 0 7.625 1.192 10.353 3.574 2.72 2.383 4.084 5.489 4.084 9.312 0 3.674-1.352 6.697-4.055 9.08-2.703 2.382-6.164 3.574-10.382 3.574h-12.655M341.053 146h-9.155l2.074-5.152c.653-1.254 1.586-1.876 2.805-1.876h3.603c1.991 0 3.61-.47 4.85-1.408 1.243-.934 1.863-2.242 1.863-3.923 0-1.561-.599-2.831-1.801-3.807-1.202-.975-2.838-1.461-4.912-1.461h-8.362l1.83-4.745c.653-1.25 1.611-1.877 2.871-1.877h2.805c1.789 0 3.277-.419 4.458-1.258 1.178-.838 1.768-2.038 1.768-3.603 0-1.561-.59-2.761-1.768-3.599-1.181-.843-2.669-1.258-4.458-1.258h-10.679V146H320v-41h20.074c4.23 0 7.701 1.038 10.407 3.105 2.701 2.072 4.057 4.783 4.057 8.141 0 1.877-.48 3.546-1.434 5.011-.958 1.462-2.227 2.661-3.813 3.6 1.991.938 3.606 2.196 4.85 3.777 1.239 1.582 1.859 3.409 1.859 5.476 0 3.595-1.372 6.472-4.119 8.639-2.743 2.167-6.354 3.251-10.828 3.251zM362 140.906V105h8.309v24.834L362 140.906zM400 146h-8.371v-27.408l-17.656 25.594c-1.059 1.208-2.361 1.814-3.908 1.814H362l10.447-14.468 17.652-24.714c1.104-1.212 2.386-1.818 3.854-1.818H400m28.066 41c-4.534 0-8.531-.939-11.998-2.817-3.462-1.879-6.17-4.37-8.133-7.477-1.955-3.108-2.935-6.502-2.935-10.178 0-3.91 1.034-7.404 3.094-10.496 2.059-3.087 4.843-5.534 8.347-7.331 3.504-1.802 7.38-2.701 11.625-2.701 3.63 0 7.029.681 10.202 2.044 3.177 1.366 5.752 3.148 7.732 5.348l-5.011 3.18a3.468 3.468 0 01-1.796.512c-.615 0-1.235-.185-1.85-.568-2.763-1.971-5.852-2.954-9.277-2.954-3.918 0-7.204 1.233-9.863 3.696-2.658 2.462-3.989 5.554-3.989 9.27 0 3.6 1.34 6.643 4.019 9.126 2.679 2.483 6.04 3.724 10.08 3.724 3.341 0 6.347-.931 9.03-2.789.615-.379 1.235-.569 1.85-.569.62 0 1.218.174 1.796.512l4.823 3.128c-2.098 2.237-4.731 4.019-7.883 5.345a25.115 25.115 0 01-9.863 1.995z" fill="#FEFEFE"/><path fill-rule="evenodd" clip-rule="evenodd" d="M45 135.831V60.569L115 0l-.005 19.431L54.79 71.81V155c-6.735-4.344-9.79-9.151-9.79-19.169z" fill="#FEFEFE"/><path fill-rule="evenodd" clip-rule="evenodd" d="M59 74.565C69.884 64.885 77.734 59.873 88 50v19.844L71.722 83.54V163c-4.995-2.381-9.219-4.312-12.722-6.186M115 27l-.021 105.544c0 12.16-9.593 17.351-21.979 23.456V47.142m25 92.103c.951.911 1.881 1.827 2.784 2.755l4.216-4.373a191.125 191.125 0 00-7-5.627" fill="#FEFEFE"/><path fill-rule="evenodd" clip-rule="evenodd" d="M122.925 143.431c-8.336 8.256-19.658 16.311-32.7 22.371A211.436 211.436 0 0180 170.24l21.5 5.76c11.596-6.704 21.689-14.217 29.738-21.886l5.733-5.863c12.723-14.037 18.207-28.012 13.177-37.906-4.413-8.683-16.108-12.156-31.6-11.188v4.681c8.971.172 15.666 2.767 18.399 8.687 3.004 6.507-1.051 16.418-9.867 26.493M30.363 142c3.861-3.675 8.208-7.211 12.637-10.47V126c-5.697 3.589-11.523 7.598-17 11.877m24.302 41.371c-15.696 3.023-26.38 1.375-31.002-6.043-2.877-4.616-2.617-9.8-.33-15.127l-.002.004L12.722 151C2.336 162.534-3.422 174.862 2.195 185.782c7.671 14.909 36.465 16.08 69.805 4.026" fill="#FEFEFE"/><path fill-rule="evenodd" clip-rule="evenodd" d="M132.461 156.417c3.141 6.061 3.571 11.381.337 16.606-3.198 5.172-10.146 7.349-19.339 7.181-26.58-.504-65.8-18.652-84.275-36.849l-4.171-4.405c-8.85-10.058-12.918-19.951-9.904-26.447 3.599-7.754 14.05-9.795 27.52-8.152v-4.196c-19.986-3.078-35.516-.107-40.77 10.172-4.943 9.672.23 23.25 12.44 36.967l1.858 1.963 4.683 4.762c21.692 20.549 52.69 36.967 82.499 41.644 21.02 3.299 40.989.692 46.476-10.041 5.697-11.148-.361-23.758-11.068-35.5M74 108.212L91 102v5.025L74 113v-4.788z" fill="#FEFEFE"/></svg>