<svg width="295" height="29" fill="none" xmlns="http://www.w3.org/2000/svg"><path d="M30.255 27.764h-6.419l-2.903-7.182h-9.771l1.35-3.28c.409-.837 1.035-1.253 1.879-1.253h3.273a.925.925 0 00.691-.293.94.94 0 00.29-.681c0-.13-1.188-3.164-3.56-9.102L6.174 27.764H0L11.773.431h4.663c1.362 0 2.372.648 3.027 1.951m23.854 25.382V5.43h7.523c.815 0 1.445-.42 1.883-1.252L54.276.43H27.74v5h9.648v22.333m33.386.432c2.889 0 5.477-.637 7.77-1.915 2.284-1.274 4.094-2.98 5.415-5.116 1.322-2.132 1.98-4.489 1.98-7.066 0-2.76-.695-5.196-2.081-7.303-1.394-2.107-3.24-3.768-5.543-4.978C76.013.605 73.5 0 70.774 0c-2.864 0-5.441.637-7.73 1.915-2.288 1.275-4.094 2.98-5.415 5.116-1.326 2.132-1.984 4.489-1.984 7.067 0 2.758.702 5.198 2.103 7.324 1.405 2.121 3.258 3.78 5.564 4.977 2.303 1.199 4.787 1.796 7.462 1.796zm0-5.191c-2.563 0-4.71-.855-6.44-2.56-1.731-1.705-2.596-3.82-2.596-6.346 0-2.553.865-4.674 2.595-6.365 1.73-1.694 3.878-2.538 6.441-2.538 2.643 0 4.815.85 6.52 2.556 1.702 1.705 2.556 3.82 2.556 6.347 0 2.527-.854 4.64-2.556 6.346-1.705 1.705-3.877 2.56-6.52 2.56zm24.426 4.76h-5.477V.431h5.604c1.224 0 2.19.572 2.9 1.716l6.951 12.968 6.951-12.968c.706-1.144 1.677-1.716 2.904-1.716h3.638l-13.572 25.382-9.898-18.16v20.111zm25.434 0h-5.478V11.831l5.478-10.622v26.555z" fill="#24457C"/><path d="M139.666 28.195c-2.998 0-5.645-.644-7.936-1.933-2.288-1.289-4.077-3.001-5.373-5.134-1.296-2.136-1.944-4.467-1.944-6.99 0-2.683.681-5.084 2.046-7.209 1.361-2.118 3.204-3.797 5.517-5.036C134.297.66 136.856.04 139.666.04c2.396 0 4.644.467 6.744 1.405 2.1.937 3.805 2.16 5.112 3.67l-3.312 2.187a2.23 2.23 0 01-1.184.351c-.409 0-.818-.13-1.228-.39-1.828-1.355-3.87-2.028-6.132-2.028-2.589 0-4.765.844-6.524 2.538-1.756 1.69-2.636 3.812-2.636 6.364 0 2.473.887 4.562 2.661 6.267 1.77 1.706 3.99 2.56 6.662 2.56 2.208 0 4.199-.641 5.969-1.915.41-.261.819-.391 1.228-.391.405 0 .803.12 1.184.35l3.189 2.148c-1.39 1.538-3.128 2.762-5.213 3.674a16.152 16.152 0 01-6.52 1.365zM175.338 5.35H154.73V.43h24.04l-1.55 3.672c-.438.832-1.064 1.249-1.882 1.249zm-5.478 11.13h-15.13v-4.765h18.482l-1.47 3.516c-.438.832-1.068 1.249-1.882 1.249zm5.601 11.284H154.73v-4.916h24.04l-1.387 3.627c-.409.862-1.05 1.29-1.922 1.29zm13.061 0h-5.93V12.77h13.822c1.199-.026 2.187-.355 2.965-.996.775-.637 1.162-1.542 1.162-2.711 0-1.173-.387-2.086-1.162-2.734-.778-.651-1.766-.992-2.965-1.017h-11.777c-.572 0-1.057-.188-1.451-.565a1.85 1.85 0 01-.594-1.386V.43h14.351c2.78 0 5.079.794 6.893 2.383 1.81 1.59 2.719 3.656 2.719 6.209 0 2.447-.902 4.464-2.701 6.053-1.799 1.586-4.102 2.382-6.911 2.382h-8.421m35.795 10.307h-6.133l1.39-3.435c.434-.833 1.064-1.25 1.882-1.25h2.412c1.332 0 2.418-.31 3.251-.937.829-.623 1.245-1.499 1.245-2.618 0-1.039-.402-1.886-1.205-2.538-.804-.651-1.901-.973-3.291-.973h-5.601l1.224-3.165c.438-.832 1.079-1.248 1.922-1.248h1.883c1.202 0 2.194-.283 2.983-.84.789-.562 1.184-1.362 1.184-2.404 0-1.04-.395-1.84-1.184-2.4-.789-.558-1.781-.84-2.983-.84h-7.154v22.648h-5.93V.431h13.449c2.835 0 5.159.688 6.973 2.07 1.814 1.38 2.719 3.186 2.719 5.427 0 1.25-.322 2.365-.959 3.339-.641.977-1.492 1.777-2.556 2.4 1.335.626 2.418 1.466 3.251 2.52.832 1.053 1.245 2.27 1.245 3.652 0 2.394-.92 4.312-2.759 5.76-1.839 1.445-4.261 2.165-7.258 2.165zm14-3.395V.43h5.564v16.555l-5.564 7.383zm25.433 3.395h-5.601V9.49l-11.813 17.066c-.71.808-1.582 1.21-2.618 1.21h-5.401l6.994-9.645 11.817-16.48c.735-.807 1.597-1.21 2.578-1.21h4.044m19.035 27.764c-3.001 0-5.644-.644-7.932-1.933-2.292-1.289-4.084-3.001-5.376-5.134-1.296-2.136-1.945-4.467-1.945-6.99 0-2.683.681-5.084 2.046-7.209 1.361-2.118 3.2-3.797 5.517-5.036C277.412.66 279.979.04 282.785.04c2.397 0 4.645.467 6.745 1.405 2.099.937 3.805 2.16 5.112 3.67l-3.313 2.187c-.38.236-.778.351-1.184.351-.413 0-.818-.13-1.227-.39-1.828-1.355-3.87-2.028-6.133-2.028-2.592 0-4.764.844-6.524 2.538-1.759 1.69-2.635 3.812-2.635 6.364 0 2.473.883 4.562 2.657 6.267 1.77 1.706 3.993 2.56 6.661 2.56 2.212 0 4.2-.641 5.974-1.915.409-.261.814-.391 1.227-.391.406 0 .804.12 1.184.35l3.19 2.148c-1.391 1.538-3.129 2.762-5.214 3.674a16.148 16.148 0 01-6.52 1.365z" fill="#8192B4"/></svg>