<svg width="26" height="26" fill="none" xmlns="http://www.w3.org/2000/svg"><path d="M24.973 12.934A11.986 11.986 0 111 13.039a11.986 11.986 0 0123.972-.105z" stroke="#8CC63F" stroke-width="1.65"/><path d="M18.61 9.112c-.805-.233-1.639-.563-2.483-.897-.048-.212-.236-.476-.616-.798-.551-.479-1.587-.466-2.483-.254-.988-.233-1.965-.316-2.902-.087-7.665 2.111-3.319 7.263-6.133 12.441.4.85 4.717 5.806 10.962 4.476 0 0-2.136-5.132 2.684-7.596 3.91-2.005 6.734-5.716.97-7.285z" fill="#8CC63F"/><path d="M19.556 12.483a.464.464 0 11-.928.005.464.464 0 01.928-.005z" fill="#08283E"/><path d="M13.028 7.16c.558.04 2.578.694 3.1 1.052-.435-1.26-1.897-1.427-3.1-1.053z" fill="#8CC63F"/><path d="M13.56 10.344a2.144 2.144 0 11-4.288.002 2.144 2.144 0 014.288-.002z" fill="#08283E"/><path d="M12.924 10.363a1.508 1.508 0 11-3.016 0 1.508 1.508 0 013.016 0zm8.369 3.065c-1.738 1.224-3.713 2.152-6.515 2.152-1.311 0-1.577-1.39-2.444-.71-.447.352-2.025 1.14-3.276 1.081-1.252-.06-3.28-.794-3.846-3.466-.224 2.672-.339 4.64-1.342 6.896 1.997 3.199 6.76 5.667 11.085 4.604-.465-3.245 2.37-6.422 3.967-8.048.608-.616 1.764-1.62 2.37-2.511v.002z" fill="#8CC63F"/><path d="M21.225 13.508c-.54.491-1.181.855-1.835 1.177-.66.313-1.35.564-2.058.75-.709.182-1.448.32-2.197.253-.748-.068-1.514-.322-2.01-.884l.024-.027c.608.395 1.31.534 2.008.554a9.43 9.43 0 002.11-.174c.703-.147 1.39-.36 2.051-.634.663-.274 1.319-.59 1.883-1.042l.024.027z" fill="#08283E"/></svg>