<svg width="634" height="611" fill="none" xmlns="http://www.w3.org/2000/svg"><path d="M370.399 600.602c-1.662-1.525-5.541-6.101-2.632-11.508 1.108-1.941 3.324-2.911 5.402-3.882 2.078-.831 4.294-1.663 5.957-3.05 3.186-2.773 4.155-7.348 6.233-10.953 2.493-4.159 7.064-7.348 11.913-7.07 5.54.277 10.111 4.714 12.189 9.982 2.078 5.13 2.216 10.953 2.216 16.498 0 3.051-.138 6.517-2.354 8.596-2.078 1.941-5.264 1.941-8.034 1.803-10.112-.278-20.224-.555-30.198-.971" fill="#F5F5F5"/><path d="M428.161 517.277h-79.51l14.268 85.543c.693 3.743 3.324 6.655 6.787 7.625.139 0 .139 0 .277.139.277 0 .416.139.693.139.554.138 1.108.138 1.662.138V611h35.877c.692 0 1.385 0 1.939-.139 4.155-.693 7.48-4.02 8.034-8.318l6.926-58.923.277-2.357 2.77-23.292v-.694zm-14.96 54.626h-8.172l.831-24.817h9.419l-2.078 24.817zm2.909-24.817h7.757l-2.909 24.817h-7.064l2.216-24.817zm-23.271 52.268l-.554-21.628h11.774l-.693 21.628h-10.527zm-12.744-21.49h11.359l.554 21.629h-10.251l-1.662-21.629zm.831 21.49h-9.557c-.97-5.823-2.078-13.448-3.325-21.628h11.22l1.662 21.628zm-1.246-27.451l-1.94-24.817h13.16l.554 24.817H379.68zm12.466 0l-.554-24.817h13.437l-.832 24.817h-12.051zm-.692-30.779l-.554-23.015h15.098l-.831 23.015h-13.713zm-.831 0h-13.437l-1.8-23.015h14.683l.554 23.015zm-14.129 0h-14.268c-.554-3.189-.969-6.239-1.385-8.873-1.524-9.289-2.078-12.755-2.355-14.142h16.207l1.801 23.015zm.415 5.962l1.94 24.817h-11.775c-.415-2.496-.831-5.13-1.246-7.626-.97-5.823-1.801-11.784-2.771-17.191h13.852zm-10.666 24.817h-7.618l-4.156-24.817h7.896c1.247 7.625 2.632 16.221 3.878 24.817zm.97 5.961c1.108 7.487 2.355 14.835 3.324 21.629h-7.341l-3.602-21.629h7.619zm36.984 21.49l.693-21.628h7.896l-1.801 21.628h-6.788zm1.94-58.23l.831-23.015h10.943l-1.939 23.015h-9.835zm-48.482-23.015c.277 1.664 1.801 10.676 3.74 23.015h-8.034l-3.878-23.015h8.172zm60.117 81.245h-6.094l1.8-21.628h6.788l-2.494 21.628zm6.926-58.23h-8.034l1.939-23.015h8.727l-2.632 23.015z" fill="#E0E0E0"/><path fill-rule="evenodd" clip-rule="evenodd" d="M267.341 137.811c.415 4.16.138 8.319-.554 12.339l9.004 7.071-8.035 17.192-11.22-2.357a43.55 43.55 0 01-9.142 8.319l1.524 11.368-17.73 6.517-6.234-9.567c-4.155.416-8.311.139-12.328-.554l-7.064 9.011-17.177-8.041 2.355-11.23a43.583 43.583 0 01-8.311-9.15l-11.359 1.525-6.51-17.747 9.558-6.239c-.416-4.159-.139-8.318.554-12.339l-9.004-7.071 8.034-17.191 11.22 2.357a43.58 43.58 0 019.143-8.319l-1.524-11.369 17.73-6.516 6.234 9.566c4.155-.415 8.311-.138 12.328.555l7.064-9.012 17.176 8.041-2.354 11.231a43.583 43.583 0 018.311 9.15l11.358-1.525 6.511 17.746-9.558 6.239zm-27.15-1.941c-3.878-10.537-15.514-15.944-26.041-12.062-10.528 3.882-15.93 15.528-12.051 26.065 3.878 10.537 15.514 15.944 26.041 12.062 10.528-3.743 15.93-15.528 12.051-26.065z" fill="#E0E0E0"/><path fill-rule="evenodd" clip-rule="evenodd" d="M260.415 34.383c.277 2.773.139 5.546-.277 8.18l5.956 4.576-5.263 11.368-7.342-1.525c-1.662 2.08-3.74 3.882-5.956 5.546l.969 7.487-11.774 4.298-4.155-6.378c-2.771.277-5.541.139-8.173-.416l-4.571 5.962-11.358-5.269 1.523-7.348c-2.078-1.663-3.878-3.743-5.54-5.961l-7.48.97-4.295-11.784 6.372-4.16a26.872 26.872 0 01.416-8.18l-5.956-4.575 5.263-11.369 7.342 1.664c1.662-2.08 3.74-3.882 5.956-5.546l-.97-7.486L222.876.139l4.156 6.377a26.828 26.828 0 018.173.416l4.571-5.961 11.358 5.268-1.523 7.348c2.077 1.664 3.878 3.743 5.54 5.962l7.48-.97 4.294 11.784-6.51 4.02zm-18.007-1.386c-2.494-6.932-10.251-10.537-17.177-8.041-6.926 2.495-10.527 10.26-8.034 17.192 2.494 6.932 10.251 10.536 17.177 8.04 7.064-2.495 10.665-10.12 8.034-17.19zm98.902 137.95c.138 2.218.138 4.298-.277 6.378l4.71 3.604-4.156 9.012-5.818-1.248a23.162 23.162 0 01-4.709 4.298l.692 5.962-9.281 3.327-3.186-4.991c-2.216.139-4.294.139-6.371-.277l-3.602 4.714-9.004-4.159 1.247-5.823a23.228 23.228 0 01-4.294-4.714l-5.956.832-3.325-9.29 4.987-3.188c-.139-2.219-.139-4.298.277-6.378l-4.71-3.605 4.156-9.011 5.818 1.247a23.22 23.22 0 014.709-4.298l-.692-5.961 9.28-3.328 3.186 4.991c2.217-.138 4.294-.138 6.372.278l3.602-4.714 9.003 4.159-1.246 5.823a23.228 23.228 0 014.294 4.714l5.956-.693 3.325 9.289-4.987 3.05zm-14.129-.97c-2.078-5.546-8.034-8.319-13.575-6.378-5.541 2.08-8.311 8.041-6.372 13.587 2.078 5.546 8.034 8.319 13.575 6.378 5.541-2.08 8.45-8.18 6.372-13.587z" fill="#F5F5F5"/><path fill-rule="evenodd" clip-rule="evenodd" d="M332.583 96.218c.277 2.496.139 4.992-.277 7.348l5.403 4.16-4.71 10.259-6.649-1.386a23.157 23.157 0 01-5.402 4.991l.831 6.794-10.666 3.882-3.74-5.685c-2.493.278-4.987.139-7.342-.277l-4.155 5.407-10.251-4.714 1.386-6.655a23.144 23.144 0 01-4.987-5.407l-6.787.832-3.879-10.675 5.679-3.882c-.277-2.496-.138-4.992.277-7.348l-5.402-4.16 4.71-10.26 6.649 1.387a23.146 23.146 0 015.402-4.991l-.831-6.794 10.666-3.882 3.74 5.685c2.493-.278 4.986-.139 7.341.277l4.156-5.407 10.25 4.714-1.385 6.655a23.195 23.195 0 014.987 5.407l6.787-.832 3.879 10.675-5.68 3.882zm-16.206-1.109c-2.355-6.239-9.281-9.566-15.514-7.21-6.234 2.358-9.558 9.29-7.203 15.529 2.354 6.239 9.28 9.566 15.514 7.209 6.233-2.357 9.557-9.289 7.203-15.528zM81.033 275.206c.277 2.496.139 4.992-.277 7.349l5.403 4.159-4.71 10.259-6.649-1.386a23.156 23.156 0 01-5.402 4.991l.83 6.794-10.665 3.882-3.74-5.685c-2.493.278-4.987.139-7.342-.277l-4.155 5.407-10.25-4.714 1.385-6.655a23.164 23.164 0 01-4.987-5.407l-6.787.832-3.879-10.675 5.68-3.744c-.278-2.495-.14-4.991.276-7.348l-5.402-4.159 4.71-10.26 6.649 1.387a23.158 23.158 0 015.402-4.991l-.831-6.794 10.666-3.882 3.74 5.684c2.493-.277 4.986-.138 7.341.278l4.156-5.407 10.25 4.714-1.385 6.654a23.182 23.182 0 014.987 5.407l6.787-.831 3.879 10.675-5.68 3.743zm-16.068-1.109c-2.355-6.239-9.28-9.566-15.514-7.209-6.233 2.357-9.558 9.289-7.203 15.528 2.355 6.239 9.28 9.566 15.514 7.209 6.234-2.218 9.42-9.289 7.203-15.528z" fill="#EBEBEB"/><path d="M545.071 80.968l10.666 33.69h-7.757l-3.325-11.646.416-22.044zm21.609 33.69H407.383v9.566H566.68v-9.566z" fill="#EBEBEB"/><path d="M437.303 122.145h-7.757v14.557h7.757v-14.557zm99.457 0h-7.757v14.557h7.757v-14.557zM412.786 70.43s-7.203 5.408-.277 12.617c.138.139.277.139.415.139l62.472-.416s5.264-5.962.97-12.894l-63.58.555z" fill="#EBEBEB"/><path d="M461.544 76.115c0 .139-7.757.139-17.315.139-9.557 0-17.314 0-17.314-.139 0-.138 7.757-.138 17.314-.138 9.558 0 17.315.138 17.315.138zm-9.696 2.357c0 .139-3.602.139-8.173.139s-8.172 0-8.172-.139c0-.138 3.601-.138 8.172-.138 4.433 0 8.173 0 8.173.138zm16.068 4.298s.139-.693.277-1.941c.139-1.11.416-2.773.416-4.575 0-1.803-.277-3.466-.416-4.575a42.523 42.523 0 01-.415-1.803s.138.139.138.416c.139.277.277.832.416 1.387.277 1.109.554 2.772.554 4.575 0 1.802-.139 3.466-.416 4.575-.138.555-.277 1.11-.277 1.387-.138.415-.277.554-.277.554zm4.71-12.755s.138.138.277.416c.138.139.138.277.277.554.138.278.277.416.277.832.277.555.415 1.248.554 2.08.138.832.277 1.664.277 2.634s-.139 1.802-.277 2.634c-.139.832-.416 1.525-.554 2.08-.139.277-.277.555-.277.832-.139.277-.139.416-.277.554a1.733 1.733 0 01-.277.416s.277-.693.692-1.802c.139-.555.416-1.248.554-2.08.139-.832.277-1.663.139-2.634 0-.97-.139-1.802-.277-2.634-.139-.832-.277-1.525-.554-2.08-.277-1.109-.693-1.802-.554-1.802zM422.62 82.909s-.138-.14-.277-.416c-.138-.139-.138-.278-.277-.555-.138-.277-.277-.416-.277-.693-.277-.555-.415-1.248-.554-1.941-.138-.832-.277-1.664-.277-2.496 0-.832.139-1.802.277-2.495.139-.694.416-1.387.693-1.941.138-.278.277-.555.415-.694.139-.277.277-.415.277-.554.139-.277.277-.416.277-.416s-.415.693-.831 1.664c-.277.554-.415 1.248-.554 1.94-.138.694-.277 1.526-.277 2.496 0 .832.139 1.664.277 2.496.139.693.277 1.386.554 1.94.139.971.554 1.526.554 1.665zm-6.787 1.525s-.138-.139-.277-.416c-.138-.139-.277-.416-.277-.555l-.416-.832c-.277-.554-.554-1.386-.692-2.218-.139-.832-.277-1.802-.416-2.773 0-.97.139-1.94.277-2.773.139-.832.416-1.663.554-2.218.139-.277.277-.555.277-.832.139-.277.139-.416.278-.554l.277-.555s-.416.693-.832 1.941c-.277.555-.415 1.386-.554 2.218-.138.832-.277 1.803-.138 2.773 0 .97.138 1.941.277 2.773.138.832.415 1.525.692 2.218.555.97.97 1.664.97 1.803z" fill="#E0E0E0"/><path d="M473.041 102.042v11.923h-23.132v-11.923h23.132z" fill="#EBEBEB"/><path d="M398.38 108.142v.277c.138 3.605 3.324 6.378 6.926 6.378h68.843v-.832h-16.345c-3.324 0-5.956-2.634-5.956-5.962 0-3.327 2.632-5.962 5.956-5.962h16.345v-1.247l-68.843.277c-3.879-.139-7.065 3.189-6.926 7.071z" fill="#E0E0E0"/><path d="M473.041 108.142c0 .138-4.709.138-10.666.138-5.818 0-10.666 0-10.666-.138 0-.139 4.71-.139 10.666-.139 5.957 0 10.666 0 10.666.139zm-.277 2.634c0 .139-4.432.139-10.112.139-5.54 0-10.111 0-10.111-.139s4.432-.139 10.111-.139c5.541 0 10.112.139 10.112.139zm.277 2.496c0 .138-4.017.138-9.003.138-4.987 0-9.004 0-9.004-.138 0-.139 4.017-.139 9.004-.139 4.986 0 9.003.139 9.003.139zm0-7.626c0 .139-4.709.139-10.389.139-5.679 0-10.389 0-10.389-.139 0-.138 4.71-.138 10.389-.138 5.68.138 10.389.138 10.389.138zm-.277-2.357c0 .139-4.155.139-9.281.139-5.125 0-9.28 0-9.28-.139 0-.138 4.155-.138 9.28-.138 5.126 0 9.281.138 9.281.138z" fill="#E0E0E0"/><path d="M406.691 101.21s-.693.554-1.524 1.802c-.831 1.109-1.662 3.05-1.524 5.13 0 2.08.832 4.021 1.663 5.13.831 1.109 1.523 1.663 1.523 1.663s-.138-.138-.554-.416a11.389 11.389 0 01-1.108-1.247c-.831-1.109-1.801-3.05-1.801-5.269 0-2.218.832-4.159 1.663-5.268.415-.555.831-.971 1.108-1.248.415-.277.554-.277.554-.277z" fill="#F5F5F5"/><path d="M404.336 100.932s-.693.555-1.524 1.803c-.831 1.109-1.662 3.05-1.523 5.13 0 2.079.831 4.02 1.662 5.129s1.523 1.664 1.523 1.664-.138-.139-.554-.416a11.321 11.321 0 01-1.108-1.248c-.831-1.109-1.801-3.05-1.801-5.268s.832-4.159 1.663-5.269c.415-.554.831-.97 1.108-1.247.415-.139.554-.278.554-.278zm46.819.278s-.692.554-1.523 1.802c-.832 1.109-1.663 3.05-1.524 5.13 0 2.08.831 4.021 1.662 5.13s1.524 1.663 1.524 1.663-.139-.138-.554-.416a11.285 11.285 0 01-1.108-1.247c-.832-1.109-1.801-3.05-1.801-5.269 0-2.218.831-4.159 1.662-5.268.416-.555.831-.971 1.108-1.248.416-.277.554-.277.554-.277z" fill="#F5F5F5"/><path d="M448.8 100.932s-.692.555-1.523 1.803c-.831 1.109-1.662 3.05-1.524 5.13 0 2.079.831 4.02 1.662 5.129s1.524 1.664 1.524 1.664-.138-.139-.554-.416c-.277-.277-.693-.693-1.108-1.248-.831-1.109-1.801-3.05-1.801-5.268s.831-4.159 1.662-5.269c.416-.554.831-.97 1.108-1.247.416-.139.554-.278.554-.278zm-34.214 8.874v-4.853c0-.416 0-.832-.138-1.248-.139-.416-.554-.693-.97-.832-.554-.277-1.523.278-1.939.971-.416.693-.416 1.525-.416 2.357 0 1.248 0 2.634.139 3.882 0 .554.138 1.248.416 1.802.277.555.831.971 1.523.832.554 0 1.108-.554 1.247-1.109.138-.555.138-1.248.138-1.802zm26.734-1.387c0 .139-4.986.139-11.081.139s-11.082 0-11.082-.139c0-.138 4.987-.138 11.082-.138 6.095 0 11.081 0 11.081.138zm-31.443-7.764V89.286h6.095l.277 11.369h-6.372z" fill="#F5F5F5"/><path d="M415.556 91.366c0 .139-1.247.139-2.909.139-1.524 0-2.909 0-2.909-.14 0-.138 1.247-.138 2.909-.138 1.662 0 2.909 0 2.909.139zm0 1.802c0 .14-1.247.14-2.909.14-1.524 0-2.909 0-2.909-.14 0-.138 1.247-.138 2.909-.138 1.662 0 2.909 0 2.909.138zm0 1.664c0 .139-1.247.139-2.909.139-1.524 0-2.909 0-2.909-.139s1.247-.139 2.909-.139c1.662 0 2.909.139 2.909.139zm0 1.803c0 .138-1.247.138-2.909.138-1.524 0-2.909 0-2.909-.138 0-.14 1.247-.14 2.909-.14 1.662 0 2.909 0 2.909.14zm0 1.663c0 .139-1.247.139-2.909.139-1.524 0-2.909 0-2.909-.139s1.247-.139 2.909-.139c1.662.14 2.909.14 2.909.14z" fill="#E0E0E0"/><path d="M409.461 89.009h68.428c.831 3.743.693 7.903 0 12.201h-68.012v-.832h4.155c1.108 0 1.94-.832 1.94-1.941v-6.794c0-1.109-.832-1.94-1.94-1.94H409.6v-.694h-.139z" fill="#EBEBEB"/><path d="M425.668 95.11h1.247c.138 0 .138.138.138.277v.138c0 .139 0 .139-.138.278-.139.554-.416.97-.693 1.247-.277.278-.693.555-.97.555h-.138c-.277 0-.554-.277-.831-.555-.277-.415-.277-.831-.277-1.386 0-.277 0-.693.138-.97.139-.555.416-.971.693-1.387a1.2 1.2 0 01.969-.555c.139 0 .277 0 .416.14.277.138.554.415.693.83V94c0 .139-.139.139-.278.139h-.138c-.139 0-.139-.139-.139-.139 0-.138-.138-.138-.138-.277-.139-.277-.277-.277-.554-.277-.139 0-.277 0-.416.138-.277.139-.415.416-.554.832-.138.416-.277.832-.277 1.248 0 .416 0 .693.139.97.138.278.277.416.554.416.138 0 .415-.138.554-.277.277-.277.415-.693.554-1.11h-.831a.298.298 0 01-.277-.276v-.139c.277 0 .415-.139.554-.139zm3.878-2.219c0 .139 0 .139 0 0 .139.277.416 1.664.832 4.298v.139c0 .138-.139.138-.139.138-.139 0-.139-.138-.139-.138l-.277-1.387h-1.385l-.692 1.387c0 .138-.139.138-.277.138h-.139c-.138 0-.138-.138-.138-.138v-.139c0-.139.138-.277.277-.416.969-2.08 1.523-3.466 1.8-3.743 0-.139.139-.139.277-.139-.138 0-.138 0 0 0zm-.277.97l-.692 1.664h1.108l-.416-1.663zm4.017 3.744h-2.216s-.138-.139-.138-.277c0-.139.138-1.525.554-4.16v-.138c0-.139.138-.139.277-.139h.138c.139 0 .139.139.139.277 0 .139 0 .555-.139 1.11-.277 1.802-.415 2.772-.415 2.911h1.939c.138 0 .138.139.138.277v.139c0-.139-.138 0-.277 0zm2.909-4.714c0 .139 0 .139 0 0 .139.277.416 1.664.831 4.298v.139c0 .138-.138.138-.138.138-.139 0-.139-.138-.139-.138l-.277-1.387h-1.385l-.692 1.387c0 .138-.139.138-.278.138h-.138c-.139 0-.139-.138-.139-.138v-.139c0-.139.139-.277.277-.416.97-2.08 1.524-3.466 1.801-3.743 0-.139.139-.139.277-.139-.138 0-.138 0 0 0zm-.415.97l-.693 1.664h1.108l-.415-1.663zm3.601 1.526c.139.416.277.832.416.97.277.555.277.832.277.97v.14c0 .138-.139.138-.139.138-.138 0-.138 0-.138-.139v-.138c-.139-.278-.277-.694-.554-1.387l-1.108 1.525c0 .139-.139.139-.278.139h-.138c-.139 0-.139-.139-.139-.139s0-.138.139-.138c.416-.555.831-1.11 1.247-1.803 0-.138-.139-.277-.139-.416a96.985 96.985 0 00-.692-1.802v-.139c0-.138.138-.138.138-.138.139 0 .139 0 .277.138l.693 1.803 1.385-1.941c0-.139.138-.139.277-.139h.138c.139 0 .139.139.139.277v.139l-1.801 2.08zm5.125-2.496s.139 0 0 0c.139.139.278.139.278.277-.278 2.635-.555 4.16-.555 4.298-.138.416-.277.832-.415 1.11-.277.415-.831.693-1.385.693-.139 0-.416 0-.693-.139-.416-.139-.554-.416-.693-.693v-.278c0-.138.139-.138.278-.138.138 0 .138 0 .138.138.277.416.693.555 1.108.555.277 0 .554-.138.831-.416.277-.277.416-.693.416-1.248-.139.139-.139.278-.277.278-.277.138-.416.277-.693.277h-.138c-.277 0-.554-.277-.831-.555-.277-.416-.277-.831-.277-1.386v-.832c0-.416.138-.97.277-1.802v-.139c0-.139.138-.139.277-.139h.138c.139 0 .139.14.139.14 0 .138 0 .415-.139.97-.138.693-.138 1.247-.138 1.386 0 .416 0 .832.138 1.11.139.276.277.554.554.554h.139c.138 0 .415-.139.554-.555.277-.277.415-.693.554-1.109l.277-2.357v-.139c0 .14 0 .14.138.14z" fill="#FAFAFA"/><path d="M475.258 101.487c-.139 0-.139-2.773-.139-6.239 0-3.466 0-6.239.139-6.239.138 0 .138 2.773.138 6.239 0 3.327 0 6.239-.138 6.239z" fill="#F5F5F5"/><path d="M419.296 101.487c-.139 0-.139-2.773-.139-6.239 0-3.466 0-6.239.139-6.239.138 0 .138 2.773.138 6.239 0 3.327 0 6.239-.138 6.239z" fill="#E0E0E0"/><path d="M476.504 101.487c-.138 0-.138-2.773-.138-6.239 0-3.466 0-6.239.138-6.239.139 0 .139 2.773.139 6.239 0 3.327-.139 6.239-.139 6.239z" fill="#F5F5F5"/><path d="M418.188 101.487c-.139 0-.139-2.773-.139-6.239 0-3.466 0-6.239.139-6.239.138 0 .138 2.773.138 6.239 0 3.327 0 6.239-.138 6.239zm40.447-10.537c1.801 1.525 4.433 3.466 7.203 5.823h-.138c-.277.139-.693.139-.97.278-2.216.554-4.294 1.109-6.095 1.663-2.216-.97-4.155-1.802-5.54-2.357a19.304 19.304 0 01-1.524-.693c-.139-.139-.277-.139-.416-.139h-.138.138c.139 0 .277.14.416.14.415.138.831.415 1.524.692 1.385.555 3.324 1.387 5.54 2.357a83.854 83.854 0 006.095-1.663c.277-.14.693-.14.97-.278v.139c-2.632-2.357-5.264-4.437-7.065-5.962z" fill="#E0E0E0"/><path d="M465.284 95.802l.416.416.415-.138-.138.554.277.416h-.554l-.416.416-.138-.554-.416-.278.416-.277.138-.555zm-6.926 2.358l.277.277.277-.139-.138.277.277.278h-.416l-.277.277v-.277l-.415-.139.415-.277v-.278zm-7.757-3.19h.554l.139-.277.138.416.416.139-.277.277-.139.416-.277-.277-.415.138.138-.415-.277-.416zm17.869-3.881h.416l.277-.416.138.416.416.277-.416.139v.416l-.277-.278-.415.139.138-.416-.277-.277zm-10.112-.278h.277l.139-.277.138.277.139.14-.139.138v.277l-.277-.139h-.277l.139-.277-.139-.139z" fill="#E0E0E0"/><path d="M469.024 91.366s-2.355 0-5.263-.138c-2.909-.14-5.264-.278-5.264-.278s2.355 0 5.264.139c3.047.139 5.263.277 5.263.277zm2.632-2.496h-69.259c-.97-2.08-1.108-4.02 0-5.823h69.259c.97 2.219.831 4.16 0 5.823z" fill="#E0E0E0"/><path d="M454.341 84.85h-37.538v2.08h37.538v-2.08z" fill="#EBEBEB"/><path d="M405.029 89.01s-.277-.278-.555-.694c-.277-.416-.554-1.248-.692-2.08-.139-.832.138-1.663.277-2.08.138-.554.415-.831.415-.831s-.138.277-.277.832c-.138.554-.277 1.247-.138 2.08.138.831.277 1.524.554 1.94l.416.832zm1.523 0s-.277-.278-.554-.694c-.277-.416-.554-1.248-.692-2.08-.139-.832.138-1.663.277-2.08.138-.554.415-.831.415-.831s-.138.277-.277.832c-.138.554-.277 1.247-.138 2.08.138.831.277 1.524.554 1.94l.415.832z" fill="#E0E0E0"/><path d="M468.886 88.87c-.139 0 .554-1.247.554-2.772 0-1.525-.554-2.773-.416-2.773 0 0 .693 1.109.693 2.773-.139 1.525-.831 2.772-.831 2.772zm-1.247 0c-.139 0 .277-1.247.277-2.772 0-1.525-.277-2.773-.277-2.773s.416 1.248.416 2.773a9.747 9.747 0 01-.416 2.772z" fill="#F5F5F5"/><path d="M497.421 53.1h47.65v62.112h-47.235l-.415-62.112z" fill="#E0E0E0"/><path d="M494.027 114.898h47.234v-61.42h-47.234v61.42z" fill="#fff"/><path d="M541.608 53.239v61.973h-47.789V53.239h47.789zm-.554 61.419V53.655h-46.819v61.003h46.819z" fill="#E0E0E0"/><path d="M535.098 60.171h-36.154v48.109h36.154V60.171z" fill="#fff"/><path d="M498.944 60.171v48.248l-.138-.139h36.153l-.138.139v-48.11l.138.14H499.36c-.277-.278-.416-.278-.416-.278h36.431v48.387h-36.431V60.171z" fill="#E0E0E0"/><path d="M493.958 114.935s.277-.416.692-1.109c.416-.693.97-1.525 1.662-2.357.693-.97 1.386-1.802 1.801-2.357.416-.554.831-.97.831-.832 0 0-.277.416-.692.971-.554.693-1.108 1.525-1.801 2.357-.693.832-1.247 1.663-1.801 2.357-.415.693-.692.97-.692.97zm.138-61.419s1.247 1.387 2.494 3.19c1.385 1.801 2.354 3.327 2.354 3.465 0 0-1.246-1.386-2.493-3.189-1.385-1.94-2.493-3.466-2.355-3.466zm41.002 6.794s1.246-1.664 3.047-3.466c1.662-1.941 3.186-3.466 3.186-3.328 0 0-1.247 1.664-3.047 3.466-1.663 1.941-3.186 3.467-3.186 3.328zm6.233 54.625s-1.385-1.386-3.047-3.189c-1.663-1.802-2.909-3.327-2.909-3.327s1.385 1.386 3.047 3.189a82.799 82.799 0 012.909 3.327zm-40.725-6.655s3.879-12.062 6.234-13.31c2.493-1.386 6.233-2.772 10.112-2.772 5.402 0 7.895.416 11.081 2.495 3.602 2.496 6.095 13.449 6.095 13.449m-22.717-35.77c-3.324.138-4.156 4.575-3.879 7.209.139 1.248.416 2.496-.138 3.605-.416.693-1.247 1.247-1.662 1.94-.416.971 0 2.08.277 3.05.277.971.415 2.22-.277 2.912 1.939.555 3.74.97 5.679 1.11 1.939.138 4.017-.278 5.679-1.248" fill="#E0E0E0"/><path d="M509.056 81.245c-2.216-4.991.831-8.18 2.771-9.29 1.108-.693 2.493-.831 3.878-.831 1.247 0 2.632 0 3.879.416 1.246.277 2.493.97 3.463 1.94 1.662 1.664 1.939 4.299 1.8 6.517-.138 2.773-.969 5.407-2.355 7.903-.138.277-.415.693-.692.831-.277.14-.693.14-.97-.138" fill="#E0E0E0"/><path d="M516.536 98.575c2.216.139 4.294-1.802 4.433-5.268l1.246-17.747-.138 1.248c0-.693-.554-1.386-1.247-1.386l-7.064-.693c-2.355-.278-4.571 1.525-4.71 4.02-.138 2.635-.277 5.962.139 8.041.692 4.021 3.74 4.576 3.74 4.576l-.277 2.911c-.139 2.08 1.523 4.16 3.878 4.298z" fill="#F5F5F5"/><path d="M510.441 80.829c0 .277.277.554.554.554.278 0 .555-.138.555-.416 0-.277-.277-.554-.555-.554-.277 0-.554.139-.554.416zm-.692-.555s.415-.277.969-.277.97.277.97.277 0-.138-.277-.277c-.139-.139-.416-.277-.831-.277-.416 0-.693.138-.831.277v.277zm6.095.555c0 .277.277.555.554.555s.554-.14.554-.416c0-.278-.277-.555-.554-.555-.416 0-.554.139-.554.416zm-.555-.416s.416-.277.97-.277.97.277.97.277 0-.139-.277-.277c-.139-.139-.416-.278-.831-.278-.416 0-.693.139-.832.278v.277zm-2.077 4.159s-.277-.138-.97-.138c-.138 0-.277 0-.277-.139s0-.277.139-.416c.138-.277.277-.693.415-1.11.554-1.524.97-2.772.97-2.91 0 0-.554 1.247-1.108 2.772-.139.416-.277.694-.416 1.11 0 .138-.138.277-.138.554 0 .139.138.139.277.139h.277c.554.138.831.138.831.138z" fill="#E0E0E0"/><path d="M512.935 91.227s2.77.139 5.402-1.525c0 0-1.385 2.773-5.541 2.496l.139-.97z" fill="#EBEBEB"/><path d="M513.489 85.959c.138-.278.554-.416.831-.416.277 0 .554.138.692.277.139.139.139.416 0 .693-.138.277-.415.277-.692.139-.277-.139-.554-.277-.693-.416l-.138-.139v-.138z" fill="#E0E0E0"/><path d="M514.874 84.988c-.139 0-.139.555-.554.97-.554.417-1.108.417-1.108.417s.138.138.415.138c.277 0 .693-.138.97-.277.277-.277.415-.555.415-.832 0-.277 0-.416-.138-.416zm.138-5.546c0 .14.555.14 1.247.14.693 0 1.247.277 1.247.138 0 0 0-.139-.277-.416-.277-.139-.554-.277-.97-.277-.415 0-.692 0-.97.138-.138.139-.277.139-.277.277zm-4.986-.692c.138.138.415 0 .969 0 .416 0 .832.138.97 0 0 0 0-.14-.138-.278-.139-.139-.416-.277-.832-.139-.277 0-.554.139-.692.278-.277-.139-.416 0-.277.138z" fill="#E0E0E0"/><path d="M512.242 71.817c3.879-2.218 8.173-.693 11.359 2.496.692.693 1.385 1.525 2.216 1.94.97.417 2.355.417 2.909 1.248.692 1.11-.277 2.496.277 3.744.415 1.109 1.939 1.386 2.493 2.357.416.832.139 1.802 0 2.634-.138.832-.277 1.941.416 2.495l-8.45 3.19c-.415.138-.831.138-1.247.138-1.246-.277-1.246-1.386-1.108-2.218.139-.694.277-1.387 0-2.08-.277-.693-1.246-1.11-1.523-1.941-.554-1.386.969-2.773.831-4.16-.139-.831-.831-1.524-1.662-1.94-.832-.416-1.801-.416-2.632-.694-1.94-.693-3.602-2.495-4.433-4.436-.831-1.11-.416-2.218.554-2.773zm3.186 414.266c-5.679-3.605-12.19-5.823-18.977-6.517-3.048-.277-6.51-.277-9.004 1.664-.554.416-1.108.971-.969 1.664.138.416.554.832.831 1.109 7.895 5.823 19.531 6.655 28.119 2.08zm-.554-.555c-4.294-3.327-8.588-6.655-12.19-10.814-3.601-4.021-6.649-8.873-7.618-14.142-.277-1.663-.416-3.466.554-4.714 9.696 7.626 17.453 17.469 19.254 29.67z" fill="#E0E0E0"/><path d="M515.289 485.944c-.692-5.407-.969-10.814.277-16.083 1.247-5.268 4.017-10.259 8.589-13.309 1.662 3.882.969 8.457-.277 12.616-1.801 6.378-4.71 12.478-8.45 17.885m9.419 16.083c-5.818.693-10.804 3.743-15.237 7.625-4.294 3.882-7.48 9.151-8.726 14.974 5.679-.416 10.527-4.437 13.99-8.874 3.601-4.436 6.095-9.427 9.973-13.725zm2.078 2.772c-4.71-11.507-3.048-25.371 4.294-35.492 3.325 11.784 2.078 25.094-4.294 35.492zm12.605 15.113c-5.263-.278-10.666.97-15.237 3.604-4.571 2.635-8.311 6.655-10.666 11.369-.277.693-.554 1.525-.138 2.08.415.554 1.108.554 1.662.554 5.125-.277 9.696-3.466 13.298-6.932 3.878-3.743 7.064-7.764 11.081-10.675zm-.415-.832c-2.771-8.735-2.909-18.163-.416-27.036.97-3.466 2.493-7.071 5.818-8.734.277-.139.554-.278.831-.139.277.139.416.416.554.693 1.108 2.357 1.524 5.13 1.385 7.764-.138 2.635-.692 5.269-1.246 7.903-.97 4.852-1.524 9.982-4.156 14.003-.554.97-1.108 2.08-1.662 3.05-.554 1.109-.554 1.386-.97 2.218m33.383 5.269c-2.493-9.428.139-20.796 6.095-28.56.416-.555.97-1.248 1.662-1.11 1.108.139 1.385 1.525 1.385 2.635-.415 9.566-3.601 18.994-9.142 27.035zm3.048 1.941c11.497 3.05 24.517.139 34.075-6.932-5.679-2.912-12.328-3.744-18.423-2.219-6.233 1.387-11.912 4.16-15.652 9.151zm2.493-6.239c6.372-10.398 18.7-17.33 30.89-17.885-1.386 4.991-5.541 8.873-10.112 11.23-4.571 2.357-9.835 3.328-14.822 4.298-1.939.416-4.709.832-5.956 2.357zm-4.987-30.502c1.801-5.961 3.463-11.923 4.017-18.162.416-6.239-.415-12.616-3.601-17.885-5.956 11.646-6.649 25.095-.554 36.741m20.362-10.814c7.064-12.756 21.332-22.877 35.738-24.402-5.541 13.865-20.778 24.679-35.738 24.402zm-4.433 2.495c10.389 1.525 19.393 8.319 29.089 12.339 2.078.832 4.294 1.525 6.511 1.248 2.216-.277 4.432-1.802 4.986-4.021.416-1.802-.415-3.743-1.662-5.129-1.247-1.387-3.047-2.219-4.848-2.912-10.666-4.436-22.024-4.575-33.244-1.802" fill="#E0E0E0"/><path d="M583.025 490.103c2.355.693 3.186 1.941 4.987 3.466 6.372 5.407 13.99 9.289 22.024 11.369.831.277 1.939.277 2.355-.416.416-.693-.139-1.525-.554-2.08-3.325-4.298-8.173-7.209-13.298-9.011-5.125-1.941-9.558-4.16-15.653-3.744m-6.787-43.95c8.45 7.903 20.501 12.062 31.998 10.953.554 0 1.108-.138 1.524-.554.831-.832-.139-2.219-1.109-2.912-9.419-7.348-20.777-10.398-32.413-7.487z" fill="#E0E0E0"/><path d="M584.272 442.826c11.22-8.457 26.595-10.953 39.893-6.655-4.987 4.991-12.051 7.625-18.977 8.319-7.064.831-14.129 0-20.916-1.664zm-3.325-20.381c-.969-9.427-.277-16.775-.969-26.342 0-.693-.277-1.664-.97-1.941-.97-.416-1.801.832-2.078 1.802-2.77 8.735-1.246 18.717 4.017 26.204" fill="#E0E0E0"/><path d="M580.393 423.555c6.372-3.882 11.082-9.151 15.514-15.113 3.048-4.159 5.68-9.289 4.987-14.418-4.294-.139-8.45 2.357-11.22 5.545-2.77 3.328-4.433 7.348-5.679 11.508-1.386 4.159-2.217 8.318-3.602 12.478zm15.237-4.298c13.991-5.13 27.011-12.894 38.37-22.599-4.571-1.803-9.835-.693-14.406 1.109-10.389 4.159-18.977 11.369-24.102 21.351m-10.805 9.566c7.065.832 14.268 1.248 21.332.139 6.926-1.109 13.436-3.882 19.808-6.655.554-.277 1.108-.554 1.385-.97.277-.555 0-1.248-.415-1.664-.416-.416-1.108-.693-1.662-.832-7.065-1.941-14.545-1.109-21.471 1.248-7.064 2.357-12.743 4.991-18.977 8.734zm-40.447 17.469c-4.848-9.705-4.571-21.073-.277-31.194 2.909 4.436 3.324 10.121 2.77 15.528-.554 5.407-2.216 10.814-2.216 16.221m-19.531-10.398c-12.051-.278-24.102 4.852-32.275 13.725 5.956.971 12.19-.554 17.73-3.327 5.403-2.634 10.389-6.378 15.099-10.121m-13.575-4.575c-5.956-.416-11.497-1.248-17.176.554-5.68 1.803-10.805 5.685-13.16 11.092 5.541.554 11.082-.693 16.207-3.05 4.987-2.219 9.558-5.407 14.129-8.596zm19.254.277c-5.264-3.466-10.804-7.071-16.899-8.457-6.234-1.387-13.298-.416-17.592 4.298 4.987 2.911 11.081 3.327 16.899 3.327 5.818 0 12.882-.139 18.423 1.802" fill="#E0E0E0"/><path d="M531.219 432.566c-9.004-8.873-12.467-24.955-8.865-37.017 7.203 10.675 10.389 24.124 8.865 37.017zm24.933-25.233c1.663-4.02 2.909-8.18 4.433-12.2 1.524-4.021 3.463-8.042 6.372-11.23 2.909-3.189 6.926-5.546 11.22-5.823-2.771 12.2-10.805 23.153-21.748 29.392m-4.848 4.991c-2.77-3.882-6.094-9.15-9.973-12.062-3.878-2.911-8.865-4.714-13.575-3.605 4.987 8.596 13.991 14.558 23.548 15.667zm.97-4.852c-1.801-4.714-3.74-9.428-4.433-14.558-.692-4.991-.277-10.398 2.217-14.696 4.986 9.428 6.51 19.549 2.493 29.392m3.324-29.392c2.771-9.289 11.359-16.221 20.64-19.41 1.108-.416 2.354-.693 3.601-.555 1.247.139 2.355.971 2.632 2.219.277 1.525-.97 3.05-2.216 4.02-7.203 6.239-15.653 10.953-24.657 13.726zm.139-7.625c.415-5.962.692-12.062 2.632-17.885 1.939-5.685 5.679-11.092 11.22-13.587.969 6.1-1.801 12.061-4.987 17.33-3.186 5.268-7.064 10.121-9.004 15.944m0 2.357c-2.354-6.794-2.631-15.389-6.648-21.351-2.909-4.159-7.342-6.932-9.835-11.369-1.663 4.159-1.108 8.873.554 12.894 1.662 4.021 4.571 7.625 7.48 10.814 3.047 3.189 5.679 5.546 8.449 9.012z" fill="#E0E0E0"/><path d="M556.152 575.091c-.138 0-.277-45.336-.415-101.348 0-56.011.138-101.348.277-101.348.138 0 .277 45.337.415 101.348.139 56.012 0 101.348-.277 101.348z" fill="#E0E0E0"/><path d="M595.769 439.221s-.554.277-1.663.693c-1.246.416-2.77.971-4.709 1.525-4.017 1.387-9.419 3.328-15.237 5.685-5.818 2.495-11.359 4.575-14.545 7.209-1.523 1.387-2.493 2.773-2.909 3.882-.415 1.109-.554 1.664-.554 1.664v-.416c0-.277.139-.693.277-1.386.416-1.109 1.247-2.635 2.771-4.16 1.523-1.386 3.74-2.772 6.233-3.882 2.493-1.109 5.264-2.357 8.311-3.604 5.957-2.357 11.359-4.298 15.376-5.546 1.939-.693 3.601-1.109 4.709-1.387 1.386-.138 1.94-.277 1.94-.277z" fill="#E0E0E0"/><path d="M608.79 407.333s-.139.139-.416.555a16.47 16.47 0 01-1.524 1.386 382.71 382.71 0 00-5.402 4.991c-4.71 4.16-11.081 9.844-18.007 16.083-7.065 6.239-13.16 12.339-17.315 16.776-2.078 2.218-3.74 4.159-4.987 5.407a10.148 10.148 0 00-1.247 1.525c-.277.277-.415.555-.554.555 0 0 .139-.278.416-.555.277-.416.693-.971 1.247-1.525 1.108-1.387 2.631-3.328 4.709-5.546 4.156-4.575 10.251-10.675 17.315-17.053 7.065-6.239 13.575-11.923 18.146-15.944 2.355-1.941 4.156-3.605 5.541-4.714.554-.554 1.108-.97 1.524-1.248.415-.554.554-.693.554-.693zm-33.106 29.254c-.139-.139 1.246-3.466 2.77-7.764s2.216-7.903 2.355-7.903c.138 0-.277 3.744-1.801 8.18-.693 2.219-1.524 4.16-2.216 5.407-.554 1.387-.97 2.219-1.108 2.08zm-19.393 27.451s-.416-.416-1.108-1.247c-.693-.971-1.662-2.08-2.771-3.605-2.354-3.05-5.54-7.21-9.142-11.785-3.601-4.575-6.926-8.734-9.419-11.646-1.108-1.386-2.078-2.634-2.909-3.466-.693-.832-.97-1.248-.97-1.386 0 0 .416.416 1.109 1.247.692.832 1.8 1.941 3.047 3.328 2.493 2.911 5.956 6.932 9.558 11.507a393.717 393.717 0 019.003 11.924c1.109 1.525 2.078 2.772 2.632 3.743.693.97.97 1.386.97 1.386z" fill="#E0E0E0"/><path d="M547.564 452.947c-.138.139-2.493-2.634-3.601-6.794-.831-2.911-.97-5.684-.831-6.932h.277c-.139.555-.277.832-.277.832v-.832h.277c.138 1.248.277 3.882 1.108 6.655 1.247 4.159 3.186 6.932 3.047 7.071zm-11.22-14.142c-.138.139-.831-.832-2.493-1.525s-4.294-.832-7.065-.554c-2.77.138-5.263.693-7.064 1.109-1.801.416-2.909.832-2.909.693s.97-.555 2.77-1.109c1.801-.555 4.295-1.109 7.203-1.387 2.771-.277 5.541 0 7.342.832 1.662.832 2.216 1.941 2.216 1.941zm-2.632-3.466c0 .139-1.523-.554-3.878-1.386-2.355-.832-5.818-1.664-9.696-1.941-3.879-.278-7.342 0-9.835.554-2.494.416-4.017.971-4.017.832 0 0 .415-.139.969-.416.693-.277 1.662-.554 2.909-.832 2.493-.554 6.095-.97 9.974-.693 3.878.277 7.48 1.248 9.834 2.218 1.247.416 2.217.971 2.771 1.248.692.278.969.416.969.416zm22.44-14.419c-.138 0-1.385-4.436-2.77-9.843-1.385-5.546-2.355-9.983-2.216-9.983.138 0 1.385 4.437 2.77 9.844 1.385 5.407 2.355 9.982 2.216 9.982z" fill="#E0E0E0"/><path d="M556.291 420.92c-.139 0-.97-2.911-3.186-5.961-2.078-3.05-4.71-4.575-4.571-4.714 0 0 .831.139 1.801.97.969.694 2.354 1.941 3.324 3.466 2.355 3.051 2.909 6.239 2.632 6.239zm-.139 130.047c-.138 0-.138-1.109-.692-3.05-.554-1.941-1.524-4.714-3.048-7.902-3.186-6.378-8.865-14.558-16.068-22.599-3.601-4.159-7.064-8.042-9.973-11.646-2.909-3.744-5.402-7.21-7.203-10.398-1.801-3.051-2.909-5.823-3.602-7.626-.277-.97-.554-1.664-.692-2.218-.139-.555-.277-.832-.139-.832 0 0 .416.971 1.108 2.912.693 1.802 1.94 4.436 3.741 7.486 1.8 3.05 4.294 6.516 7.202 10.26 2.909 3.605 6.511 7.487 10.112 11.646 7.203 8.18 12.883 16.36 15.93 22.876 1.524 3.189 2.493 6.1 2.909 8.041.277.971.415 1.803.415 2.219 0 .554.139.831 0 .831zm35.877-40.483s-.693.416-1.939 1.109c-1.247.693-2.909 1.663-4.849 3.189a57.944 57.944 0 00-6.371 5.823c-2.217 2.357-4.572 5.129-6.926 8.041-4.71 5.962-9.143 11.091-11.774 15.389a47.15 47.15 0 00-2.909 4.991c-.693 1.248-.97 1.941-.97 1.941s0-.138.139-.554c.138-.277.277-.832.692-1.525.554-1.248 1.524-3.05 2.771-5.13 2.631-4.298 6.925-9.566 11.635-15.528 2.355-2.912 4.71-5.684 6.926-8.041 2.355-2.357 4.571-4.298 6.51-5.823 2.078-1.525 3.74-2.496 4.987-3.051.554-.277 1.108-.554 1.524-.693.277-.138.554-.138.554-.138z" fill="#E0E0E0"/><path d="M592.721 523.655c0 .138-1.523.277-4.017.554-2.493.278-5.817.694-9.419 1.803-3.601 1.109-6.51 2.911-8.45 4.436-1.939 1.525-2.908 2.773-2.908 2.634 0 0 .138-.416.554-.97.415-.555 1.108-1.248 2.077-2.08 1.94-1.663 4.849-3.466 8.45-4.714 3.602-1.109 7.064-1.525 9.558-1.663 2.632-.139 4.155-.139 4.155 0z" fill="#E0E0E0"/><path d="M569.173 531.696c-.138-.138 1.524-2.911 2.909-6.516 1.247-3.743 1.662-6.932 1.801-6.932.138 0 .138.832 0 2.079-.139 1.248-.416 3.051-1.108 4.992-.693 1.941-1.663 3.466-2.355 4.575-.693 1.248-1.247 1.802-1.247 1.802zm34.353-56.428s-.277.139-.693.278c-.554.277-1.108.554-1.801.831-.831.416-1.8.832-2.908 1.387-1.109.554-2.494 1.109-3.74 1.941-.693.416-1.386.832-2.217 1.248-.692.416-1.523.97-2.216 1.386-1.662.971-3.186 2.218-4.848 3.328-3.325 2.495-6.788 5.545-10.251 9.011-3.324 3.466-6.233 7.071-8.588 10.537-1.108 1.803-2.355 3.328-3.186 4.991-.415.832-.969 1.525-1.385 2.357-.415.832-.831 1.525-1.108 2.219-.831 1.386-1.385 2.772-1.801 3.882-.554 1.109-.969 2.079-1.246 2.911-.277.832-.555 1.387-.832 1.941-.138.416-.277.693-.277.693s0-.277.139-.693c.138-.554.415-1.109.693-1.941.277-.832.692-1.802 1.246-3.05.554-1.109.97-2.496 1.801-3.882.416-.693.693-1.525 1.108-2.218.416-.832.831-1.525 1.385-2.357.831-1.664 2.078-3.328 3.186-5.13 2.355-3.466 5.264-7.071 8.727-10.676 3.463-3.466 6.926-6.516 10.389-9.011a52.016 52.016 0 014.986-3.328c.832-.554 1.524-.97 2.355-1.386.831-.416 1.524-.832 2.217-1.248 1.385-.832 2.77-1.386 3.878-1.941 1.108-.555 2.078-.971 3.047-1.248.832-.277 1.386-.554 1.94-.693-.139-.139 0-.139 0-.139z" fill="#E0E0E0"/><path d="M575.268 494.262s.277-1.109 1.524-2.357c1.246-1.247 3.601-2.356 6.233-2.356 2.632-.139 4.987.693 6.649 1.247 1.662.694 2.493 1.109 2.493 1.248s-.969-.277-2.631-.832c-1.663-.554-3.879-1.109-6.372-1.109-2.494.139-4.71 1.109-5.957 2.08-1.385 1.109-1.8 2.079-1.939 2.079zm-4.294 4.299c-.139-.139 1.385-2.496 1.801-5.823.415-3.328-.554-5.962-.416-6.101.139 0 .416.555.693 1.664.277 1.109.554 2.634.277 4.437-.139 1.802-.831 3.188-1.385 4.297-.416 1.11-.832 1.664-.97 1.526zm-46.127 58.923c.97 17.33 6.234 34.938 14.268 52.823h34.906c7.619-17.608 12.467-35.216 13.437-52.823h-62.611z" fill="#E0E0E0"/><path d="M581.778 585.49c0 .138-11.497.277-25.626.277-14.128 0-25.626-.139-25.626-.277 0-.139 11.498-.278 25.626-.278 14.129 0 25.626.139 25.626.278zm-.831 6.238c0 .139-10.804.278-24.102.278s-24.102-.139-24.102-.278c0-.138 10.804-.277 24.102-.277s24.102.139 24.102.277zm-41.278-22.875c.138 0 .277 3.604.277 8.041 0 4.436-.139 8.041-.277 8.041-.139 0-.277-3.605-.277-8.041 0-4.437.138-8.041.277-8.041z" fill="#FAFAFA"/><path d="M558.369 568.853c.138 0 .277 3.743.277 8.318 0 4.575-.139 8.319-.277 8.319-.139 0-.277-3.744-.277-8.319 0-4.575.138-8.318.277-8.318zm17.592-.139c.138 0 .277 3.743.277 8.457s-.139 8.457-.277 8.457c-.139 0-.277-3.743-.277-8.457s.138-8.457.277-8.457z" fill="#FAFAFA"/><path d="M586.349 568.852c0 .139-13.436.278-30.058.278s-30.059-.139-30.059-.278c0-.138 13.437-.277 30.059-.277 16.484 0 30.058.139 30.058.277z" fill="#FAFAFA"/><path d="M69.536 503.552c5.68-2.912 12.329-3.328 18.7-2.219 3.325.555 6.926 1.525 9.142 4.16 2.355 2.495 2.771 7.07.14 9.15-1.525 1.248-3.74 1.525-5.819 1.525-4.986 0-10.389-.97-14.267 2.08-2.216 1.663-3.74 4.436-6.372 5.268-2.632.832-5.54-.693-6.926-3.05-1.385-2.357-1.385-5.268-.831-8.041-.139 0 .554-5.823 6.233-8.873zm-13.02-25.095c3.463 4.991 10.25 3.327 13.297.277 3.186-3.05 4.433-7.348 5.68-11.646 2.77-9.566 5.54-19.548 3.463-29.253-.554-2.912-1.663-5.823-3.74-7.903-2.078-2.218-5.126-3.466-8.034-2.634-3.463.832-5.541 4.159-7.065 7.348-4.432 9.289-6.926 19.687-6.926 29.947.139 4.852.693 9.982 3.325 13.864zm-9.42 7.21c3.74-4.437 4.433-10.953 2.77-16.638-1.662-5.545-5.402-10.398-9.834-14.28-5.125-4.575-11.082-8.041-17.592-10.398-2.493-.832-5.264-1.664-7.896-1.386-2.632.277-5.402 1.663-6.649 4.02-1.8 3.466-.138 7.764 1.801 11.369a132.44 132.44 0 0011.497 17.608c3.463 4.436 7.48 8.873 12.744 10.952 5.264 2.08 10.805 1.803 13.575-1.941" fill="#E8505B"/><path d="M56.377 553.186s.139-.832.277-2.219c.139-1.663.416-3.743.554-6.1a90.498 90.498 0 011.385-9.012c.693-3.327 1.801-6.932 3.325-10.675 1.524-3.605 3.324-6.932 5.402-9.567 2.078-2.634 4.571-4.575 6.926-5.684 2.355-1.109 4.294-1.664 5.818-1.802 1.385-.139 2.216-.278 2.216-.278s-.831-.138-2.216 0c-1.524.139-3.602.416-5.956 1.526-2.494 1.109-4.987 3.05-7.204 5.823-2.216 2.772-4.155 6.1-5.679 9.843-1.523 3.744-2.632 7.348-3.186 10.814-.692 3.466-.97 6.517-1.246 9.151-.139 2.634-.277 4.714-.277 6.239-.277 1.109-.277 1.941-.139 1.941z" fill="#263238"/><path d="M56.793 548.472v-4.159c0-2.635 0-6.378.138-10.953.277-9.289.97-19.272 2.632-33.275 1.524-13.171 3.463-28.56 5.54-38.542.416-2.219.832-4.298 1.247-6.101.416-1.802.693-3.327 1.109-4.575.277-1.248.554-2.08.692-2.911.139-.694.277-.971.139-.971 0 0-.139.277-.416.971-.277.693-.554 1.663-.831 2.911-.416 1.248-.831 2.773-1.247 4.575-.415 1.803-.97 3.882-1.385 6.101-2.078 9.011-4.155 21.767-5.818 35.77-1.523 14.141-2.216 26.896-2.355 36.185 0 4.576 0 8.458.139 10.953.139 1.248.139 2.218.139 3.05.138.694.138.971.277.971z" fill="#263238"/><path d="M56.793 523.793v-3.188a105.826 105.826 0 00-.97-8.458c-.554-3.604-1.385-7.764-2.77-12.339-.554-2.079-1.94-7.071-5.125-14.557-4.295-10.121-10.112-18.44-15.1-23.57-1.246-1.386-2.492-2.357-3.6-3.327-.555-.416-.97-.971-1.524-1.248s-.97-.693-1.385-.97c-1.663-1.109-2.632-1.803-2.632-1.664-.139.139 3.74 2.495 8.588 7.625 4.848 5.13 10.527 13.449 14.683 23.431 2.355 5.407 4.017 10.26 5.125 14.419 1.385 4.575 2.216 8.734 2.909 12.2.693 3.467.97 6.378 1.247 8.319.415 2.218.554 3.327.554 3.327zm-23.826 43.673l2.494 33.829h43.495l2.493-33.829H32.967zm53.607-13.448h-57.9v13.448h57.9v-13.448z" fill="#263238"/><path d="M28.673 600.047v3.743h57.07v-3.743h-57.07zm5.402 10.26l-2.631-6.516h52.221l-3.186 6.516H34.075z" fill="#455A64"/><path d="M80.618 578.558s0 .138-.139.277c-.138.277-.415.554-.692.832-.554.832-1.524 1.941-2.494 3.188l-.138.139-.139-.139c-1.662-2.218-3.74-5.129-6.233-8.595h.416c-1.801 2.634-3.879 5.545-6.095 8.734l-.139.277-.277-.277c-2.216-2.634-4.71-5.684-7.341-8.734h.415a1.905 1.905 0 00-.415.554 1670.345 1670.345 0 00-6.51 8.18l-.278.277-.138-.277c-2.216-3.189-4.294-6.1-6.095-8.734h.416c-3.048 3.466-5.541 6.377-7.619 8.595l-.139.139-.138-.139c-.97-1.663-1.8-3.05-2.355-4.02-.277-.416-.415-.832-.554-1.109-.138-.278-.138-.416-.138-.416l.277.277c.138.277.415.555.692.971.554.97 1.385 2.218 2.494 3.882h-.278c1.94-2.219 4.433-5.269 7.48-8.735l.139-.277.139.277c1.939 2.634 4.017 5.546 6.233 8.596h-.416c2.078-2.634 4.294-5.407 6.51-8.18.14-.139.278-.277.416-.555l.139-.277.277.277c2.493 3.051 4.986 5.962 7.203 8.735h-.416c2.216-3.189 4.294-6.1 6.234-8.596l.138-.277.139.277c2.493 3.466 4.57 6.516 6.094 8.735h-.277c1.109-1.387 1.94-2.357 2.632-3.189.277-.278.554-.555.693-.832l.277.139z" fill="#E0E0E0"/><path d="M82.003 567.189c0 .138-10.943.277-24.38.277-13.436 0-24.379-.139-24.379-.277 0-.139 10.943-.278 24.38-.278 13.574 0 24.379.139 24.379.278z" fill="#455A64"/><path d="M84.22 604.206c0 .139-11.913.278-26.458.278-14.683 0-26.457-.139-26.457-.278 0-.138 11.913-.277 26.457-.277 14.683 0 26.457 0 26.457.277z" fill="#263238"/><path d="M195.727 49.357l-24.518.139c-3.324 0-5.956 2.911-5.956 6.238v4.437c0 3.466-2.632 6.239-5.957 6.239l-47.927.416c-3.324 0-5.956-2.773-5.956-6.239V56.15c0-3.466-2.771-6.239-5.957-6.239l-8.588.14-21.609.276c-10.666.139-19.254 8.873-19.115 19.55l2.632 310.144c.138 10.675 8.865 19.271 19.53 19.132l126.33-1.109c10.666-.138 19.254-8.873 19.115-19.548l-2.632-310.145c0-10.537-8.726-19.133-19.392-18.994z" fill="#fff"/><path d="M195.727 49.357h.692c.416 0 1.109 0 1.94.139 1.662.138 4.294.693 7.203 2.495 1.523.832 3.047 2.08 4.432 3.605 1.385 1.525 2.771 3.466 3.74 5.684.97 2.357 1.524 4.991 1.524 7.903 0 2.911 0 5.961.139 9.15.277 25.788.554 63.083.969 109.112.416 46.03.97 100.933 1.385 161.797 0 7.625.139 15.389.139 23.153v5.823c0 1.941-.139 4.021-.693 5.962-.554 1.941-1.246 3.743-2.355 5.407-1.108 1.664-2.493 3.189-4.017 4.575-3.186 2.496-7.064 4.16-11.081 4.437-4.017.138-8.034.138-12.19.138-8.172 0-16.345.139-24.656.139-16.622.139-33.383.277-50.559.416-8.589.139-17.177.139-25.765.277-4.294 0-8.727.139-13.02.139-4.433.277-8.866-.832-12.606-3.328-3.74-2.495-6.51-6.238-7.757-10.536-.692-2.08-.831-4.298-.831-6.517v-6.516c-.139-8.734-.139-17.33-.277-25.926-.139-17.053-.277-33.968-.416-50.605-.277-33.135-.554-65.162-.83-95.525-.278-30.501-.555-59.339-.693-86.513-.139-13.587-.277-26.62-.277-39.236v-4.714c0-.832 0-1.525.138-2.357.139-.832.139-1.525.416-2.357a19.7 19.7 0 014.017-8.18c1.94-2.357 4.432-4.16 7.064-5.407 2.77-1.248 5.68-1.664 8.588-1.664 5.818 0 11.359-.138 16.9-.138h12.05c1.385-.139 2.77.277 3.878.97 1.109.694 1.94 1.803 2.355 3.05.554 1.248.416 2.635.416 3.882v1.941c0 .694 0 1.248.138 1.803a5.33 5.33 0 001.524 3.189c.831.831 1.801 1.525 2.909 1.802.554.139 1.108.139 1.801.139h8.726c9.142 0 17.592-.14 25.488-.14 3.878 0 7.618 0 11.22-.138h2.632c.831-.138 1.662-.416 2.354-.832 1.386-.831 2.355-2.357 2.632-3.882.139-.831.139-1.525.139-2.356V57.26c0-.694 0-1.526.138-2.219.139-.693.416-1.386.693-2.08a6.554 6.554 0 013.047-2.772c1.247-.555 2.632-.416 3.879-.416 4.986 0 9.142 0 12.466-.139h7.758c1.523-.416 2.493-.277 2.493-.277h-2.632c-1.801 0-4.294 0-7.757.139-3.324 0-7.619.138-12.467.138-1.246 0-2.493-.139-3.74.416-1.246.555-2.355 1.387-2.909 2.634a7.298 7.298 0 00-.692 2.08c-.139.693-.139 1.525-.139 2.218v2.357c0 .832 0 1.525-.138 2.357-.277 1.664-1.247 3.189-2.771 4.02-.692.417-1.523.833-2.493.833-.831.138-1.801 0-2.632 0-3.601 0-7.341 0-11.22.138-7.895.139-16.345.139-25.487.278h-8.727c-.554 0-1.247 0-1.801-.14-1.246-.276-2.354-.97-3.186-1.94-.831-.97-1.385-2.08-1.523-3.328-.139-.554-.139-1.247-.139-1.802v-1.94c0-1.249.139-2.496-.415-3.744-.416-1.11-1.247-2.218-2.217-2.912-1.108-.693-2.355-.97-3.601-.97h-4.017c-2.632 0-5.402 0-8.034.138-5.541 0-11.082.139-16.9.139-2.909 0-5.817.416-8.45 1.664-2.631 1.247-5.124 3.05-6.925 5.268-1.94 2.357-3.186 5.13-3.879 8.041-.138.694-.277 1.526-.415 2.219 0 .832-.139 1.525-.139 2.357v4.714c.139 12.616.277 25.649.416 39.236.277 27.035.554 56.011.83 86.513.278 30.501.555 62.389.832 95.525.139 16.637.277 33.413.416 50.605.138 8.596.138 17.191.277 25.926v6.516c0 2.218.138 4.298.83 6.378 1.247 4.159 3.88 7.764 7.48 10.259 3.602 2.496 8.035 3.466 12.329 3.328 4.294 0 8.727-.139 13.02-.139 8.727-.139 17.316-.139 25.765-.277 17.038-.139 33.937-.277 50.559-.416 8.312 0 16.484-.139 24.657-.139 4.017 0 8.172 0 12.051-.138a19.087 19.087 0 0010.804-4.298c1.524-1.248 2.771-2.773 3.879-4.437 1.108-1.664 1.801-3.466 2.355-5.268.554-1.941.692-3.882.692-5.823v-5.823c0-7.764-.138-15.528-.138-23.154-.554-60.864-.97-115.767-1.385-161.796-.416-46.03-.693-83.325-.832-109.112v-9.15c0-2.912-.554-5.547-1.523-7.765-.97-2.218-2.217-4.16-3.74-5.684-1.385-1.525-2.909-2.773-4.433-3.466-2.909-1.664-5.541-2.219-7.203-2.496-.831-.139-1.524-.139-1.939-.139-.416-.138-.554-.138-.554-.138z" fill="#263238"/><path d="M199.744 80.552c0 .138-3.186.138-7.065.277h-7.203c0-.139 3.186-.139 7.065-.277h7.203zm0 3.743c0 .138-3.186.139-7.065.277h-7.203c0-.138 3.186-.139 7.065-.277 4.017-.139 7.203-.139 7.203 0zm.138 3.605c0 .138-3.186.138-7.064.277h-7.203c0-.139 3.186-.139 7.064-.277 4.017-.139 7.203-.139 7.203 0zM70.09 93.168h1.108c.832 0 1.801 0 3.048-.138l-.138.138v-3.466c.138-.416.554-.832.97-.97H76.6c.554 0 .97.554.97 1.109v3.189l-.139-.14c1.247 0 2.493 0 3.879-.138l-.139.139c0-1.525 0-3.189-.138-4.853v-1.247c0-.416-.278-.694-.555-.97l-1.662-1.665c-.554-.554-1.108-1.109-1.662-1.525l-.831-.832c-.277-.277-.554-.554-.831-.554-.277-.139-.693 0-.831.139-.277.138-.416.415-.693.693l-1.385 1.386c-.831.97-1.8 1.803-2.355 2.496-.277.416-.138.97-.138 1.386v-.277c0-.277 0-.555.138-.832.693-.832 1.524-1.664 2.355-2.634.415-.416.831-.97 1.385-1.387.277-.277.416-.554.693-.693.277-.277.692-.277 1.108-.277.415.139.692.416.97.693l.83.832c.555.555 1.109 1.11 1.663 1.525l1.662 1.664.416.416c.138.138.138.416.138.693v1.248c0 1.663 0 3.188.139 4.852v.139h-4.156v-3.328c0-.415-.416-.831-.831-.97h-1.385c-.416 0-.693.416-.831.693v3.605h-4.016l-.277-.139z" fill="#263238"/><path d="M189.078 136.009l-114 .97c-5.68 0-10.39-4.575-10.39-10.259v-3.882c0-5.685 4.571-10.399 10.25-10.399l114.001-.97c5.68 0 10.389 4.575 10.389 10.26v3.882c.139 5.684-4.571 10.398-10.25 10.398z" fill="#F5F5F5"/><path d="M189.078 136.009s.277 0 .831-.139c.554 0 1.247-.139 2.216-.416.97-.277 2.078-.832 3.186-1.802 1.109-.832 2.217-2.218 3.048-3.882.415-.832.692-1.803.831-2.912.138-.97.138-2.079 0-3.327 0-1.109 0-2.357-.139-3.605-.277-1.248-.692-2.495-1.385-3.605-1.385-2.218-3.878-4.159-6.787-4.713-1.524-.278-3.048-.139-4.71-.139h-4.987c-27.288.555-64.826.832-106.382 1.248-2.493 0-4.987.97-6.787 2.773-1.801 1.663-2.91 4.159-3.186 6.516-.139 1.248 0 2.495 0 3.743 0 1.248 0 2.496.415 3.605.693 2.357 2.217 4.436 4.294 5.684.97.693 2.078 1.109 3.325 1.387 1.108.277 2.355.277 3.601.277h7.203c4.71 0 9.281-.139 13.852-.139 18.008-.138 34.214-.277 47.789-.416 13.575-.138 24.656-.138 32.275-.138h10.666-2.216c-2.078 0-4.987.138-8.727.138-7.619.139-18.562.278-32.275.416-13.575.139-29.781.278-47.789.416-4.432 0-9.142.139-13.852.139h-7.203c-1.246 0-2.493 0-3.601-.277-1.247-.278-2.355-.694-3.463-1.387-2.078-1.386-3.74-3.466-4.433-5.961-.415-1.248-.415-2.496-.415-3.744v-3.743c.138-2.634 1.385-5.13 3.324-6.932 1.94-1.803 4.571-2.912 7.203-2.912 41.556-.277 79.094-.693 106.382-.832h4.987c1.662 0 3.186-.138 4.71.139 3.047.555 5.541 2.496 7.064 4.852.693 1.11 1.108 2.496 1.385 3.744.277 1.248.139 2.495.139 3.605 0 1.109 0 2.218-.139 3.327-.138 1.109-.415 2.08-.831 2.911a10.527 10.527 0 01-3.186 4.021c-1.108.971-2.354 1.387-3.324 1.664-.97.277-1.801.416-2.216.416h-.693z" fill="#263238"/><path d="M191.017 123.115s0-.416-.277-1.109c-.138-.693-.692-1.664-1.662-2.357-.97-.693-2.493-1.109-4.017-.555a4.27 4.27 0 00-2.77 4.021c0 1.802 1.246 3.466 2.77 3.882 1.524.554 3.047.139 4.017-.555.97-.693 1.385-1.663 1.662-2.357.277-.554.277-.97.277-.97v.277c0 .139 0 .416-.138.832-.139.693-.554 1.802-1.524 2.634-.97.832-2.632 1.387-4.432.693-1.663-.554-3.186-2.356-3.186-4.297 0-2.08 1.385-3.882 3.047-4.437a4.87 4.87 0 014.433.693c1.108.832 1.523 1.803 1.662 2.496.138.416.138.693.138.832.139.138.139.277 0 .277z" fill="#263238"/><path d="M193.649 130.74c-.138.139-1.108-.831-2.216-1.941-1.108-1.247-1.939-2.218-1.801-2.357.139-.138 1.108.832 2.216 1.941.97 1.248 1.801 2.357 1.801 2.357z" fill="#263238"/><path d="M82.834 122.283H80.48v-.693h5.541v.693h-2.355v6.239h-.692l-.139-6.239zm8.034 3.743h-4.294c.139 1.11.97 1.803 2.078 1.803.693 0 1.247-.277 1.524-.693l.415.416c-.415.554-1.108.831-1.939.831-1.662 0-2.77-1.109-2.77-2.634s1.108-2.634 2.493-2.634c1.385 0 2.493 1.109 2.493 2.634v.277zm-4.294-.554h3.602c-.139-.971-.831-1.664-1.8-1.664-.97 0-1.663.693-1.802 1.664zm8.866 2.911l-1.663-2.218-1.662 2.218h-.831l2.078-2.634-1.94-2.495h.832l1.523 1.941 1.524-2.08h.831l-1.94 2.634 2.079 2.634h-.832zm4.709-.415c-.277.277-.692.415-1.108.415-.97 0-1.524-.554-1.524-1.525v-3.05h-.97v-.554h.97v-1.109h.693v1.109h1.524v.554H98.21v3.05c0 .555.277.971.83.971.278 0 .555-.139.694-.277l.415.416z" fill="#E0E0E0"/><path d="M100.023 157.237l-29.505.26.26 29.531 29.505-.26-.26-29.531zm56.78 2.341c0 .139-9.835.277-22.024.416-12.19.139-22.025.139-22.025 0s9.835-.277 22.025-.416c12.189-.139 22.024-.139 22.024 0z" fill="#E8505B"/><path d="M191.987 168.451c0 .139-17.731.416-39.617.555-21.885.138-39.616.277-39.616.138 0-.138 17.731-.416 39.616-.554 21.886-.277 39.617-.277 39.617-.139zm-.831 6.378c0 .138-17.454.416-39.062.554-21.609.139-39.063.278-39.063.139s17.454-.416 39.063-.555c21.608-.277 39.062-.277 39.062-.138zm-31.998 6.516c0 .139-10.389.277-23.133.416-12.744.139-23.132.139-23.132 0s10.388-.277 23.132-.416c12.744-.139 23.133-.139 23.133 0z" fill="#263238"/><path d="M100.576 206.179l-29.504.26.26 29.531 29.505-.26-.261-29.531zm56.643 2.617c0 .139-9.835.278-22.025.416-12.189.139-22.024.139-22.024 0 0-.138 9.835-.277 22.024-.416 12.19-.138 22.025-.138 22.025 0z" fill="#E8505B"/><path d="M192.402 217.531c0 .138-17.73.416-39.616.554-21.886.139-39.616.278-39.616.139s17.73-.416 39.616-.555c21.886-.138 39.616-.277 39.616-.138zm-.831 6.516c0 .139-17.453.416-39.062.555-21.609.138-39.062.277-39.062.138 0-.138 17.453-.416 39.062-.554 21.609-.278 39.062-.278 39.062-.139zm-31.998 6.378c0 .138-10.389.277-23.132.416-12.744.138-23.133.138-23.133 0 0-.139 10.389-.278 23.133-.416 12.743-.139 23.132-.139 23.132 0z" fill="#263238"/><path d="M100.993 255.399l-29.505.26.26 29.531 29.505-.26-.26-29.531z" fill="#455A64"/><path d="M157.634 258.015c0 .138-9.835.277-22.024.416-12.19.138-22.025.138-22.025 0 0-.139 9.835-.278 22.025-.416 12.189-.139 22.024-.139 22.024 0z" fill="#E8505B"/><path d="M192.956 266.749c0 .139-17.73.416-39.616.555-21.886.138-39.616.277-39.616.138 0-.138 17.73-.416 39.616-.554 21.886-.278 39.616-.278 39.616-.139zm-.969 6.516c0 .139-17.454.416-39.062.555-21.609.139-39.063.277-39.063.139 0-.139 17.454-.416 39.063-.555 21.608-.277 39.062-.277 39.062-.139zm-31.998 6.378c0 .139-10.389.277-23.133.416-12.743.139-23.132.139-23.132 0s10.389-.277 23.132-.416c12.882-.139 23.133-.139 23.133 0z" fill="#263238"/><path d="M101.407 304.481l-29.504.26.26 29.531 29.504-.26-.26-29.531z" fill="#E8505B"/><path d="M158.188 307.233c0 .139-9.834.277-22.024.416-12.19.139-22.025.139-22.025 0s9.835-.277 22.025-.416c12.051-.277 22.024-.139 22.024 0z" fill="#455A64"/><path d="M193.372 315.968c0 .138-17.73.415-39.616.554-21.886.139-39.617.277-39.617.139 0-.139 17.731-.416 39.617-.555 21.886-.277 39.616-.277 39.616-.138zm-.97 6.377c0 .139-17.453.416-39.062.555-21.609.138-39.062.277-39.062.138 0-.138 17.453-.416 39.062-.554 21.609-.139 39.062-.278 39.062-.139zm-31.997 6.516c0 .139-10.389.278-23.133.416-12.744.139-23.133.139-23.133 0 0-.138 10.389-.277 23.133-.416 12.882-.138 23.133-.138 23.133 0z" fill="#263238"/><path d="M101.823 353.701l-29.504.26.26 29.531 29.504-.26-.26-29.531zm56.781 2.612c0 .138-9.835.277-22.025.416-12.189.138-22.024.138-22.024 0 0-.139 9.835-.278 22.024-.416 12.052-.139 22.025-.139 22.025 0z" fill="#E0E0E0"/><path d="M193.788 365.047c0 .139-17.731.416-39.617.555-21.886.138-39.616.277-39.616.138 0-.138 17.73-.416 39.616-.554 21.886-.139 39.617-.277 39.617-.139zm-.97 6.516c0 .139-17.453.416-39.062.555-21.609.139-39.063.277-39.063.139 0-.139 17.454-.416 39.063-.555 21.609-.277 39.062-.277 39.062-.139zm-31.859 6.517c0 .138-10.389.277-23.133.416-12.744.138-23.133.138-23.133 0 0-.139 10.389-.278 23.133-.416 12.744-.278 23.133-.139 23.133 0z" fill="#EBEBEB"/><path opacity=".3" d="M101.407 304.481l-29.504.26.26 29.531 29.504-.26-.26-29.531z" fill="#000"/><path d="M540.777 386.537l-16.345-.139c-2.217 0-4.017 1.802-4.017 4.159v2.912c0 2.357-1.801 4.159-4.017 4.159l-31.998-.277c-2.217 0-4.017-1.941-4.017-4.159v-2.912c0-2.357-1.801-4.159-4.017-4.159h-5.818l-14.406-.139c-7.065 0-12.882 5.685-13.021 12.755l-1.246 133.098c0 7.07 5.679 12.893 12.743 12.893l84.358.555c7.065 0 12.882-5.684 13.021-12.755l1.247-133.097c.415-6.933-5.264-12.756-12.467-12.894z" fill="#fff"/><path d="M540.777 386.537h1.385c.831.138 2.216.277 3.879 1.109a14.088 14.088 0 015.125 4.021c1.523 2.079 2.632 4.991 2.493 8.457-.138 13.448-.277 32.858-.415 56.982-.139 12.062-.277 25.233-.277 39.375 0 7.07-.139 14.419-.139 21.905 0 3.744 0 7.626-.139 11.508 0 1.941.139 3.882-.415 5.823-.554 1.941-1.385 3.743-2.77 5.268-1.247 1.525-3.048 2.773-4.849 3.605-1.939.832-4.017 1.109-5.956.97-4.017 0-8.172 0-12.328-.138-8.311 0-16.761-.139-25.487-.139-8.589 0-17.454-.139-26.319-.139-4.433 0-9.004 0-13.436-.138-2.217 0-4.571 0-6.788-.139-2.355-.139-4.571-.97-6.51-2.357-1.939-1.386-3.463-3.189-4.433-5.268-.969-2.08-1.246-4.437-1.246-6.655 0-4.575.138-9.012.138-13.449.139-8.873.139-17.746.277-26.342.139-17.33.277-33.967.416-49.911.138-7.903.138-15.667.277-23.292 0-3.744.138-7.487.138-11.092v-5.407c0-1.802 0-3.604.416-5.407.831-3.466 3.186-6.377 6.233-8.18 1.524-.832 3.186-1.386 4.848-1.525 1.663-.138 3.325-.138 4.987-.138 3.324 0 6.51 0 9.696.138h7.065c.831 0 1.523.139 2.216.555 1.385.832 2.078 2.357 2.078 3.882v2.218c0 .693 0 1.386.277 2.08.415 1.386 1.662 2.357 2.909 2.634 1.385.139 2.77 0 4.155.139 5.403 0 10.528.138 15.237.138 4.71 0 9.143.139 13.298.139 2.078 0 3.74-1.803 3.879-3.605v-2.773c0-.832 0-1.802.415-2.495.693-1.525 2.355-2.496 3.879-2.357h15.791-16.068c-1.524-.139-3.048.693-3.74 2.218-.416.693-.416 1.664-.416 2.496v2.772c-.138 1.941-1.801 3.744-4.017 3.744-4.155 0-8.588 0-13.298-.139-4.709 0-9.835 0-15.237-.138-1.385 0-2.77 0-4.155-.139-1.385-.277-2.632-1.387-3.048-2.773-.277-.693-.277-1.386-.277-2.218v-2.219c0-1.386-.692-2.911-1.939-3.604-.693-.416-1.385-.555-2.078-.555h-16.761c-1.662 0-3.324-.138-4.986.139a11.097 11.097 0 00-4.71 1.525c-2.909 1.664-5.264 4.575-6.095 8.041-.415 1.664-.415 3.466-.415 5.269v5.407c0 3.604 0 7.348-.139 11.091 0 7.487-.138 15.251-.138 23.292-.139 15.944-.277 32.581-.416 49.912-.138 8.596-.138 17.469-.277 26.342 0 4.436-.138 9.012-.138 13.448-.139 2.219.138 4.575 1.108 6.516.969 2.08 2.493 3.882 4.294 5.13 1.801 1.248 4.017 2.08 6.372 2.219 2.216.138 4.571 0 6.787.138 4.571 0 9.004 0 13.436.139 8.866 0 17.731.138 26.319.138 8.588 0 17.176.139 25.487.139 4.156 0 8.312 0 12.329.139 2.077 0 4.017-.139 5.817-.971 1.801-.832 3.463-1.941 4.71-3.466 1.247-1.525 2.216-3.327 2.632-5.13.554-1.941.415-3.882.415-5.823 0-3.882.139-7.625.139-11.507.138-7.487.138-14.835.138-21.906.139-14.141.278-27.312.416-39.374.277-23.985.416-43.534.554-56.983.139-3.327-.97-6.377-2.493-8.318-1.524-2.08-3.463-3.328-4.987-4.021-1.662-.693-2.909-.97-3.878-1.109-.555.277-.97.139-1.247.139z" fill="#263238"/><path d="M542.653 424.633l-89.206-.214-.148 61.974 89.206.213.148-61.973z" fill="#E8505B"/><path d="M500.486 468.103c6.976-1.399 11.498-8.193 10.101-15.175-1.397-6.982-8.185-11.509-15.161-10.11-6.976 1.399-11.498 8.193-10.101 15.175 1.397 6.982 8.185 11.508 15.161 10.11z" fill="#fff"/><path d="M494.789 455.442v-5.823l5.125 2.912 4.986 2.911-4.986 2.912-5.125 2.911v-5.823z" fill="#E8505B"/><path d="M462.929 495.649v-.971c0-.138.139-.138.139-.138l.831.554.831.555c.139 0 .139.139 0 .139l-.692.554-.832.555c-.138 0-.138 0-.138-.139l-.139-1.109zm8.173-.693h-.693s-.138 0-.138.138v1.387s0 .139.138.139h.693l1.108 1.109v-3.882l-1.108 1.109zm-5.541 1.941c-.138 0-.138-.139-.138-.139v-1.941c0-.139.138-.139.138-.139.139 0 .139.139.139.139v1.941s0 .139-.139.139zm7.065-2.357v2.357c.554-.139.831-.693.831-1.248s-.277-.971-.831-1.109z" fill="#263238"/><path d="M472.764 493.569v.555c.693.139 1.247.832 1.247 1.664 0 .831-.554 1.386-1.247 1.663v.555c.97-.277 1.662-1.109 1.662-2.08 0-1.248-.692-2.079-1.662-2.357zm6.234 1.387v2.357h-.277v-2.08h-.554v-.277h.831zm.415.693c0-.139.139-.277.277-.277.139 0 .277.138.277.277a.297.297 0 01-.277.277.298.298 0 01-.277-.277zm0 1.386c0-.138.139-.277.277-.277.139 0 .277.139.277.277 0 .139-.138.278-.277.278-.138 0-.277-.139-.277-.278zm.831-.97c0-.832.416-1.248.97-1.248s.97.416.97 1.248c0 .832-.416 1.248-.97 1.248s-.97-.416-.97-1.248zm1.524 0c0-.555-.277-.971-.554-.971-.416 0-.693.278-.693.971 0 .554.277.97.554.97.416 0 .693-.277.693-.97zm1.385-1.109v2.357h-.277v-2.08h-.554v-.277h.831zm2.355-.555h.277l-1.108 3.189h-.277l1.108-3.189zm3.047 2.219c0 .415-.415.693-.969.693s-.97-.278-.97-.693c0-.278.139-.416.416-.555-.277-.139-.277-.277-.277-.555 0-.416.277-.693.831-.693.554 0 .831.277.831.693 0 .278-.139.416-.277.555.277.139.415.277.415.555zm-.415 0c0-.278-.277-.416-.554-.416-.416 0-.554.138-.554.416 0 .277.277.415.554.415.415 0 .554-.138.554-.415zm-1.108-1.11c0 .278.138.416.554.416.277 0 .554-.138.554-.416 0-.277-.139-.416-.554-.416-.277.139-.554.278-.554.416zm1.8.278c0-.139.139-.278.277-.278.139 0 .277.139.277.278a.298.298 0 01-.277.277c-.138-.139-.277-.139-.277-.277zm0 1.247c0-.138.139-.277.277-.277.139 0 .277.139.277.277 0 .139-.138.278-.277.278-.138 0-.277-.139-.277-.278zm.693-.97c0-.832.416-1.248.97-1.248s.969.416.969 1.248c0 .832-.415 1.248-.969 1.248s-.97-.416-.97-1.248zm1.662 0c0-.555-.277-.971-.554-.971-.415 0-.692.278-.692.971 0 .554.277.97.554.97.415 0 .692-.277.692-.97zm.693 0c0-.832.415-1.248.969-1.248.555 0 .97.416.97 1.248 0 .832-.415 1.248-.97 1.248-.554 0-.969-.416-.969-1.248zm1.524 0c0-.555-.277-.971-.555-.971-.415 0-.692.278-.692.971 0 .554.277.97.554.97.416 0 .693-.277.693-.97zm-39.063.832c-.277 0-.415-.139-.415-.416v-2.08c0-.277.138-.416.415-.416.277 0 .416.139.416.416v2.08c0 .277-.139.416-.416.416zm1.801 0c-.277 0-.416-.139-.416-.416v-2.08c0-.277.139-.416.416-.416.277 0 .416.139.416.416v2.08c0 .277-.139.416-.416.416z" fill="#263238"/><path d="M542.024 492.044l-87.821-.277c-.416 0-.831-.416-.831-.832s.415-.832.831-.832l87.821.277c.415 0 .831.416.831.832 0 .555-.277.832-.831.832z" fill="#E0E0E0"/><path d="M486.478 492.044l-32.275-.139c-.416 0-.831-.416-.831-.831 0-.416.415-.832.831-.832l32.275.138c.415 0 .692.278.692.694v.277c0 .277-.277.693-.692.693z" fill="#E8505B"/><path d="M488.001 491.074c0 .832-.692 1.663-1.662 1.663-.831 0-1.662-.693-1.662-1.663 0-.832.692-1.664 1.662-1.664.97.139 1.662.832 1.662 1.664z" fill="#E8505B"/><path d="M542.162 507.711c0 .139-19.67.277-43.91.277-24.241 0-43.911-.277-43.911-.416 0-.138 19.67-.277 43.911-.277 24.379 0 43.91.139 43.91.416zm0 8.734c0 .139-19.67.278-43.91.278-24.241 0-43.911-.278-43.911-.416 0-.139 19.67-.278 43.911-.278 24.24 0 43.91.139 43.91.416zm0 8.596c0 .139-19.67.277-43.91.277-24.241 0-43.911-.277-43.911-.415 0-.139 19.67-.278 43.911-.278 24.24 0 43.91.278 43.91.416z" fill="#263238"/><path d="M541.331 146.962h-16.345c-2.217 0-4.017 1.802-4.017 4.159v2.911c0 2.357-1.801 4.16-4.017 4.16l-31.998-.139c-2.216 0-4.017-1.941-4.017-4.159v-2.912c0-2.357-1.801-4.159-4.017-4.159h-20.224c-7.064 0-12.882 5.684-13.021 12.755l-.415 206.301c0 7.071 5.679 12.894 12.882 12.894l84.358.416c7.064 0 12.882-5.685 13.021-12.755l.831-206.44c-.139-7.209-5.818-12.894-13.021-13.032z" fill="#fff"/><path d="M541.331 146.962h.416c.277 0 .692 0 1.246.138 1.108.139 2.909.555 4.848 1.664 1.94 1.109 4.156 3.189 5.403 6.239.692 1.525.969 3.327.969 5.268v6.101c0 17.191-.138 42.008-.277 72.649-.138 30.64-.277 67.241-.415 107.864v15.389c-.139 2.634.277 5.269-.554 7.764-.416 1.248-.97 2.496-1.663 3.605-.831 1.109-1.662 2.08-2.77 2.912-2.078 1.663-4.71 2.634-7.48 2.772h-8.034c-5.402 0-10.943 0-16.345-.138-11.082 0-22.302-.139-33.66-.139-5.68 0-11.497 0-17.177-.139h-8.726c-2.909.139-5.957-.693-8.312-2.356-2.493-1.664-4.294-4.16-5.125-7.071-.415-1.387-.554-2.912-.554-4.298v-4.298c0-5.823 0-11.508.139-17.192 0-11.369.138-22.599.138-33.69.139-22.044.139-43.395.277-63.637.139-20.242.139-39.514.277-57.676 0-9.012.139-17.746.139-26.065 0-2.079-.139-4.159.415-6.239.554-1.941 1.386-3.882 2.771-5.407s3.047-2.773 4.848-3.466c1.801-.832 3.878-.97 5.679-.97h19.254c.831 0 1.801.277 2.494.832.692.554 1.246 1.247 1.523 2.079.277.832.277 1.664.277 2.496v2.495c.139.832.416 1.525.97 2.08.554.555 1.247.97 1.939 1.248.831.138 1.524.138 2.355.138h4.71c6.095 0 11.774 0 17.038.139h9.28c.554 0 1.108-.277 1.524-.555.97-.554 1.524-1.525 1.801-2.634.138-.97 0-2.079.138-3.05 0-.97.139-2.08.554-2.911.416-.832 1.247-1.525 2.078-1.803.831-.416 1.801-.277 2.493-.277h8.312c4.294.139 6.371.139 6.787.139h-15.237c-.831 0-1.662-.139-2.493.277-.832.277-1.524.97-2.078 1.802-.554.832-.554 1.803-.554 2.773 0 .971.138 2.08-.139 3.189s-.831 2.08-1.801 2.634c-.415.277-1.108.555-1.662.555h-31.028c-.831 0-1.524 0-2.355-.139s-1.523-.555-2.078-1.248c-.554-.554-.969-1.386-1.108-2.218-.138-.832 0-1.664 0-2.496 0-.831.139-1.663-.277-2.495a4.133 4.133 0 00-1.385-1.941c-1.385-1.109-3.324-.693-4.987-.693h-16.622c-1.939 0-3.878.277-5.679.97-1.801.693-3.463 1.941-4.71 3.466-1.385 1.525-2.216 3.328-2.77 5.269-.554 1.941-.277 4.02-.416 6.1 0 8.318 0 17.053-.138 26.065-.139 18.023-.139 37.295-.277 57.675-.139 20.242-.139 41.593-.277 63.637 0 11.092-.139 22.322-.139 33.691 0 5.684 0 11.507-.138 17.191v4.298c0 1.387.138 2.912.554 4.298a13.256 13.256 0 004.986 6.933c2.355 1.663 5.264 2.356 8.173 2.218h8.727c5.817 0 11.497 0 17.176.138 11.359 0 22.579.139 33.66.139 5.541 0 10.943 0 16.345.139h8.034c2.632-.139 5.264-1.109 7.342-2.634.969-.832 1.939-1.803 2.632-2.912.692-1.109 1.246-2.218 1.662-3.466.831-2.496.415-5.13.554-7.764v-15.389c.139-40.623.416-77.086.554-107.865.139-30.64.277-55.457.416-72.649-.139-4.298.554-8.18-.831-11.23-1.247-3.05-3.463-5.13-5.264-6.239-1.939-1.109-3.602-1.525-4.848-1.663-.554-.139-.97-.139-1.247-.139 0-.139-.139-.139-.277-.277z" fill="#263238"/><path d="M539.807 176.909c0 .138-17.869.416-39.755.416-22.024 0-39.755-.139-39.755-.416 0-.278 17.869-.416 39.755-.416 21.886.138 39.755.277 39.755.416z" fill="#263238"/><path d="M536.206 309.867h-72.307v50.328h72.307v-50.328z" fill="#E8505B"/><path d="M391.038 197.566H366.52c-3.324 0-5.956 2.773-5.956 6.239v4.437c0 3.466-2.632 6.239-5.956 6.239H306.68c-3.324 0-5.956-2.773-5.956-6.239v-4.437c0-3.466-2.632-6.239-5.956-6.239h-30.059c-10.666 0-19.392 8.596-19.392 19.272v310.144c0 10.676 8.588 19.272 19.254 19.41l126.467.139c10.666 0 19.393-8.596 19.393-19.271V217.115c-.139-10.953-8.727-19.549-19.393-19.549z" fill="#fff"/><path d="M391.038 197.566h.693c.415 0 1.108 0 1.939.139 1.662.139 4.294.693 7.203 2.496 1.524.831 3.047 2.079 4.433 3.604 1.385 1.525 2.77 3.466 3.74 5.823.969 2.357 1.523 4.991 1.385 7.903v309.035c0 1.941-.139 4.021-.693 5.962a19.204 19.204 0 01-2.493 5.407 20.432 20.432 0 01-4.017 4.437c-3.186 2.495-7.065 4.159-11.22 4.298-4.017.138-8.034 0-12.19 0H265.817c-4.432.277-8.865-.971-12.605-3.466-3.74-2.496-6.372-6.378-7.618-10.537-.693-2.08-.832-4.437-.832-6.517V217.115c0-.832 0-1.525.139-2.357.138-.832.139-1.525.416-2.357a19.684 19.684 0 014.017-8.18c1.939-2.357 4.432-4.159 7.203-5.407 2.77-1.248 5.679-1.664 8.588-1.664h28.95c1.385 0 2.77.278 3.74 1.11 1.108.831 1.939 1.802 2.355 3.05.554 1.247.415 2.634.415 3.882v3.743c.139 1.248.693 2.357 1.386 3.189a5.44 5.44 0 002.909 1.802c.554.139 1.108.139 1.8.139h48.066c.831-.139 1.662-.416 2.355-.832 1.385-.832 2.355-2.357 2.77-3.882.139-.832.139-1.525.139-2.357v-2.357c0-.693 0-1.525.139-2.218.138-.693.415-1.387.692-2.08a6.558 6.558 0 013.048-2.773c1.246-.554 2.631-.416 3.878-.416h20.224c2.078.416 3.047.416 3.047.416h-22.855c-1.247 0-2.494-.138-3.74.416-1.247.416-2.355 1.387-3.048 2.634a7.303 7.303 0 00-.692 2.08c-.139.693-.139 1.525-.139 2.218v2.357c0 .832 0 1.525-.138 2.357-.277 1.664-1.386 3.189-2.771 4.021-.692.416-1.524.832-2.493.832-.831.138-1.801 0-2.632 0h-45.434c-.554 0-1.247 0-1.801-.139a5.886 5.886 0 01-3.186-1.941c-.831-.97-1.385-2.079-1.524-3.466-.138-.693 0-1.248 0-1.941v-1.941c0-1.248.139-2.496-.415-3.743-.416-1.109-1.247-2.219-2.216-2.912-1.109-.693-2.355-1.109-3.602-.97h-28.95c-2.909 0-5.818.416-8.45 1.663-2.632 1.248-5.125 3.051-7.064 5.269-1.94 2.218-3.325 5.13-4.017 8.041-.139.693-.277 1.525-.416 2.218 0 .832-.138 1.526-.138 2.357v309.036c0 2.218.138 4.298.831 6.377 1.246 4.16 3.878 7.903 7.48 10.26 3.601 2.496 7.895 3.605 12.328 3.327h126.052c4.017-.138 7.757-1.802 10.804-4.159 1.524-1.248 2.771-2.773 3.879-4.298 1.108-1.664 1.801-3.466 2.355-5.268.554-1.803.692-3.882.692-5.823v-28.977c0-60.864 0-115.767.139-161.796 0-46.03.138-83.325.138-109.112v-9.151c0-2.911-.415-5.545-1.385-7.764a19.059 19.059 0 00-3.601-5.684c-1.386-1.525-2.909-2.773-4.433-3.605-2.909-1.802-5.541-2.357-7.203-2.495-.831-.139-1.524-.139-1.939-.139-.277-.139-.416-.139-.416-.139z" fill="#263238"/><path d="M394.917 230.979c0 .139-3.186.139-7.065.278-3.878 0-7.203 0-7.203-.139s3.186-.139 7.065-.277c4.017 0 7.203 0 7.203.138zm0 3.605c0 .139-3.186.139-7.065.277-3.878 0-7.203 0-7.203-.138 0-.139 3.186-.139 7.065-.277 4.017 0 7.203 0 7.203.138zm.138 3.605c0 .139-3.186.139-7.064.277-3.879 0-7.203 0-7.203-.138 0-.139 3.186-.139 7.064-.278 4.017 0 7.203.139 7.203.139zm-135.887 2.357h1.109c.831 0 1.8 0 3.047-.139l-.139.139v-3.466c.139-.416.555-.832.97-.971h1.524c.554 0 .969.555.969 1.109v3.189l-.138-.139h3.878l-.138.139v-6.1c0-.416-.277-.693-.554-.971l-1.662-1.663-1.663-1.664-.831-.832c-.277-.277-.415-.555-.831-.555-.277-.138-.692 0-.831.139-.277.139-.416.416-.693.693l-1.385 1.387c-.831.97-1.8 1.663-2.493 2.495-.277.416-.139.971-.139 1.387v-.278c0-.277 0-.554.277-.831.693-.832 1.524-1.664 2.494-2.635.415-.416.831-.97 1.385-1.386l.693-.693c.277-.278.692-.278 1.108-.278.415.139.692.416.969.694l.831.831 1.663 1.664 1.662 1.664.415.416c.139.138.139.416.139.693v6.239h-4.156v-3.327c0-.416-.277-.832-.831-.971h-1.385c-.415 0-.692.416-.831.693v3.605h-4.017c-.277-.277-.416-.277-.416-.277z" fill="#263238"/><path d="M296.568 438.528h-29.504v29.531h29.504v-29.531zm56.793 3.189c0 .138-9.835.277-22.024.277-12.19 0-22.025-.139-22.025-.277 0-.139 9.835-.278 22.025-.278 12.051 0 22.024.139 22.024.278z" fill="#E8505B"/><path d="M388.406 450.728c0 .139-17.73.278-39.616.278s-39.616-.139-39.616-.278c0-.138 17.73-.277 39.616-.277s39.616.139 39.616.277zm-.831 6.517c0 .138-17.453.277-39.062.277-21.609 0-39.062-.139-39.062-.277 0-.139 17.453-.277 39.062-.277 21.47 0 39.062.138 39.062.277zm-32.136 6.1c0 .139-10.389.277-23.133.277s-23.132-.138-23.132-.277c0-.138 10.388-.277 23.132-.277 12.882 0 23.133.139 23.133.277z" fill="#263238"/><path opacity=".3" d="M296.568 438.528h-29.504v29.531h29.504v-29.531z" fill="#000"/><path d="M296.568 486.637h-29.504v29.531h29.504v-29.531zm56.793 3.05c0 .139-9.835.278-22.024.278-12.19 0-22.025-.139-22.025-.278 0-.138 9.835-.277 22.025-.277 12.051.139 22.024.139 22.024.277z" fill="#E8505B"/><path d="M388.406 498.838c0 .138-17.73.277-39.616.277s-39.616-.139-39.616-.277c0-.139 17.73-.277 39.616-.277s39.616.138 39.616.277zm-.831 6.377c0 .139-17.453.278-39.062.278-21.609 0-39.062-.139-39.062-.278 0-.138 17.453-.277 39.062-.277 21.47.139 39.062.139 39.062.277zm-32.136 6.24c0 .138-10.389.277-23.133.277s-23.132-.139-23.132-.277c0-.139 10.388-.278 23.132-.278 12.882 0 23.133.139 23.133.278z" fill="#263238"/><path opacity=".3" d="M296.568 486.637h-29.504v29.531h29.504v-29.531z" fill="#000"/><path d="M283.621 282.398l-.381 68.351 90.868.507.381-68.351-90.868-.507z" fill="#E8505B"/><path d="M282.162 350.767l31.86-42.286 19.531 26.619 13.436-14.141 25.903 30.362-90.73-.554zm59.979-47.416c0 4.021-3.186 7.209-7.203 7.071-4.017 0-7.203-3.189-7.064-7.21 0-4.02 3.186-7.209 7.203-7.07 3.878.138 7.064 3.327 7.064 7.209z" fill="#E8505B"/><path opacity=".2" d="M282.162 350.767l31.86-42.286 19.531 26.619 13.436-14.141 25.903 30.362-90.73-.554zm59.979-47.416c0 4.021-3.186 7.209-7.203 7.071-4.017 0-7.203-3.189-7.064-7.21 0-4.02 3.186-7.209 7.203-7.07 3.878.138 7.064 3.327 7.064 7.209z" fill="#000"/><path d="M386.606 364.215c0 .139-26.319.416-58.871.416-32.552 0-58.87-.138-58.87-.416 0-.138 26.318-.416 58.87-.416 32.552.139 58.871.278 58.871.416zm0 7.764c0 .139-26.319.416-58.871.416-32.552 0-58.87-.139-58.87-.416 0-.138 26.318-.416 58.87-.416 32.552 0 58.871.139 58.871.416z" fill="#263238"/><path d="M346.989 408.72H308.62c-5.541 0-10.112-4.576-10.112-10.121 0-5.546 4.571-10.121 10.112-10.121h38.369c5.541 0 10.112 4.575 10.112 10.121-.138 5.684-4.571 10.121-10.112 10.121z" fill="#E8505B"/><path d="M408.63 418.702c0 .139-36.292.416-81.172.416-44.88 0-81.172-.139-81.172-.416 0-.277 36.292-.416 81.172-.416 44.88.139 81.172.277 81.172.416z" fill="#E0E0E0"/><path d="M361.118 265.779c0 .138-14.96.416-33.383.416-18.423 0-33.383-.139-33.383-.416 0-.139 14.96-.416 33.383-.416 18.423 0 33.383.277 33.383.416zm6.788 132.82a2.19 2.19 0 01-2.217 2.218 2.19 2.19 0 01-2.216-2.218 2.19 2.19 0 012.216-2.219c1.247.139 2.217 1.11 2.217 2.219z" fill="#E8505B"/><path d="M456.557 254.133h-8.172c-5.402 0-13.021 0-22.717.138l.277-.277v86.652c0 21.074-.139 40.9-.139 57.814v.277h-.277c-17.869 0-32.829-.138-43.218-.138-5.263 0-9.28 0-12.189-.139h-4.294 4.294c2.77 0 6.926 0 12.189-.139 10.528 0 25.349-.138 43.218-.138l-.277.277v-57.814c.139-34.522.277-65.44.277-86.652v-.277h.277c9.558 0 17.315.138 22.717.138h7.619c.138.278.415.278.415.278z" fill="#E8505B"/><path d="M500.052 345.499c5.814 0 10.528-4.718 10.528-10.537 0-5.82-4.714-10.537-10.528-10.537s-10.527 4.717-10.527 10.537c0 5.819 4.713 10.537 10.527 10.537z" fill="#fff"/><path d="M497.559 334.962v-4.714l4.017 2.357 4.156 2.357-4.156 2.357-4.017 2.357v-4.714z" fill="#E8505B"/><path d="M463.1 188.721l-.301 53.933 71.753.4.301-53.932-71.753-.401z" fill="#455A64"/><path d="M461.96 242.625l25.21-33.274 15.376 20.935 10.666-11.092 20.362 23.847-71.614-.416zm47.373-37.295c0 3.189-2.493 5.685-5.679 5.685-3.186 0-5.679-2.496-5.679-5.685 0-3.188 2.493-5.684 5.679-5.684 3.186 0 5.679 2.496 5.679 5.684z" fill="#263238"/><path d="M526.786 253.439H471.24v3.744h55.546v-3.744z" fill="#455A64"/><path d="M538.838 267.72c0 .138-17.869.416-39.755.416-22.025 0-39.755-.139-39.755-.416 0-.139 17.869-.416 39.755-.416 21.886.138 39.755.277 39.755.416zm0 10.259c0 .139-17.869.416-39.755.416-22.025 0-39.755-.138-39.755-.416 0-.138 17.869-.416 39.755-.416 21.886 0 39.755.139 39.755.416zm0 10.121c0 .139-17.869.416-39.755.416-22.025 0-39.755-.138-39.755-.416 0-.138 17.869-.416 39.755-.416 21.886.139 39.755.278 39.755.416zm0 10.26c0 .138-17.869.416-39.755.416-22.025 0-39.755-.139-39.755-.416 0-.139 17.869-.416 39.755-.416 21.886 0 39.755.138 39.755.416z" fill="#263238"/><path d="M458.635 254.133a2.189 2.189 0 01-2.216 2.218 2.189 2.189 0 01-2.216-2.218c0-1.248.969-2.219 2.216-2.219 1.247 0 2.216.971 2.216 2.219zm43.495 112.855c0 .971-.969 1.941-2.078 1.941-1.108 0-2.077-.832-2.077-1.941 0-.97.969-1.941 2.077-1.941 1.247.139 2.078.971 2.078 1.941zm0 49.496c0 .97-.969 1.941-2.078 1.941-1.108 0-2.077-.832-2.077-1.941 0-.971.969-1.941 2.077-1.941 1.247 0 2.078.832 2.078 1.941z" fill="#E8505B"/><path d="M500.052 416.484c-.138 0-.415-11.092-.415-24.679 0-13.587.138-24.678.415-24.678.139 0 .416 11.091.416 24.678 0 13.587-.139 24.679-.416 24.679zM327.597 248.448v-5.823c0-3.743 0-9.15-.139-15.944 0-13.587-.138-32.719-.138-54.625l.415.416h-24.102c-27.704 0-52.776-.139-71.06-.139-9.004 0-16.345-.138-21.471-.138h-7.895 7.895c5.126 0 12.467 0 21.471-.139 18.146 0 43.218 0 71.06-.139h24.518v.416c0 21.906-.139 40.9-.139 54.626 0 6.793-.138 12.2-.138 15.944v5.407c-.277 0-.277.138-.277.138z" fill="#E8505B"/><path d="M329.674 248.448a2.189 2.189 0 01-2.216 2.219 2.189 2.189 0 01-2.216-2.219c0-1.248.969-2.218 2.216-2.218 1.247 0 2.216.97 2.216 2.218zm-124.528-76.253a2.19 2.19 0 01-2.216 2.218 2.189 2.189 0 01-2.216-2.218c0-1.248.969-2.219 2.216-2.219a2.19 2.19 0 012.216 2.219z" fill="#E8505B"/><path d="M162.344 175.799l6.926 9.012s3.324 5.13.692 6.239c-2.354.971-3.74-1.941-3.74-1.941s-1.523-6.655-4.294-4.991c-.415.277.277 4.853.693 7.348.138.832.554 1.664 1.247 2.218l7.618 5.823c1.385 1.11 3.048 1.803 4.848 1.941l2.632.278 2.216 4.436 12.329-4.991-9.835-12.616-5.264-8.042c-.831-.693-1.801-.97-2.909-.693l-1.247.277-.969-.97c-.554-.555-1.385-.693-2.078-.555l-.693.278-2.077-2.08c-.693-.693-5.403-4.991-6.234-4.714.139.139-1.662 1.525.139 3.743z" fill="#FFBE9D"/><path d="M176.196 184.257s-.139-.416-.693-.971a5.357 5.357 0 00-2.493-1.386c-.97-.832-1.524-1.664-2.078-2.219-.416-.693-.693-1.109-.554-1.109 0 0 .277.416.693.971.415.554 1.246 1.386 2.077 2.218.277.139.554.139.831.277.277.139.555.278.693.416.416.278.831.555.97.971.277.277.415.554.415.832.139-.139.139 0 .139 0zm1.385-1.803s-.139-.277-.416-.416c-.277-.277-.831-.416-1.385-.277l-.138-.139c-.97-.97-1.663-1.802-1.663-1.941 0 0 .832.694 1.801 1.803l.139.138h-.139c.693-.138 1.247 0 1.662.416.139.139.277.416.139.416z" fill="#EB996E"/><path d="M163.59 567.882l-4.294 39.791 21.332 2.772 4.433-39.929-21.471-2.634z" fill="#E8505B"/><path d="M169.962 607.534c.139 0 1.109-8.735 2.217-19.41.969-10.814 1.8-19.549 1.523-19.549-.138 0-1.108 8.735-2.216 19.41-.97 10.814-1.662 19.549-1.524 19.549z" fill="#263238"/><path d="M159.573 604.9l21.332 2.634-.277 2.911-21.332-2.772.277-2.773zm22.44-7.21s-.138-.416-.415-.97c-.277-.555-.831-1.387-1.662-2.219-.832-.831-1.801-1.802-3.186-2.634-1.386-.832-3.048-1.525-4.849-1.663-3.74-.416-7.064 1.109-8.726 2.772-.831.832-1.524 1.664-1.801 2.219-.277.554-.416.97-.416.97.139.139.832-1.248 2.494-2.773 1.801-1.525 4.848-2.773 8.449-2.495 3.463.416 6.234 2.495 7.758 4.02 1.523 1.525 2.216 2.773 2.354 2.773z" fill="#263238"/><path opacity=".3" d="M183.814 581.885l-.554 4.436-21.332-2.911.277-3.327 21.609 1.802z" fill="#000"/><path d="M132.839 570.516l1.663 39.929 21.47-.416-1.524-40.068-21.609.555z" fill="#E8505B"/><path d="M145.029 608.643c.139 0-.138-8.735-.692-19.549-.555-10.814-1.247-19.548-1.386-19.548-.138 0 .139 8.734.693 19.548.554 10.953 1.247 19.688 1.385 19.549z" fill="#263238"/><path d="M134.363 607.672l21.609-.554v2.911l-21.47.416-.139-2.773zm21.193-10.536s-.138-.278-.554-.832c-.415-.555-1.108-1.248-2.077-1.941-.97-.694-2.078-1.525-3.602-2.219-1.524-.693-3.186-.97-5.125-.97-3.74.138-6.787 2.218-8.173 4.02-.692.971-1.246 1.803-1.523 2.357-.277.555-.277.971-.277.971.138 0 .554-1.386 2.077-3.05 1.524-1.803 4.433-3.466 7.896-3.744 3.463-.138 6.51 1.525 8.311 2.773 1.939 1.664 2.909 2.773 3.047 2.635z" fill="#263238"/><path opacity=".3" d="M154.864 581.33l.138 4.437-21.609.277-.138-3.189 21.609-1.525z" fill="#000"/><path d="M156.941 482.616l-.831-109.389h-42.525s-3.324 27.174-1.801 38.127c1.663 10.953 12.883 71.401 12.883 71.401s3.601 80.274 5.402 100.932l26.457-2.357.415-98.714z" fill="#263238"/><path d="M182.983 350.074s13.159 11.23 16.207 30.363c2.909 18.994-5.957 95.247-5.957 95.247l-7.48 105.646h-26.18l.832-101.764-4.572-75.699-2.908-23.985 30.058-29.808z" fill="#263238"/><path d="M159.712 474.159s0-.277-.139-.693c0-.554-.138-1.109-.138-1.941-.139-1.802-.277-4.159-.554-6.932-.416-5.823-.831-14.003-1.247-23.015-.415-9.012-.693-17.053-.831-23.015v-9.566s0 .277.139.693c0 .555 0 1.109.138 1.941 0 1.803.139 4.16.277 6.932.277 5.962.554 14.003.97 23.015.415 8.873.831 17.053 1.108 23.015.138 2.911.138 5.268.277 6.932v2.634zm31.998 6.239c0 .139-1.524-.138-3.879-.277s-5.679-.277-9.281.139c-3.601.277-6.787.97-9.142 1.663-2.355.555-3.74 1.109-3.74.971 0-.139 1.247-.693 3.602-1.387 2.216-.693 5.54-1.525 9.142-1.802 3.601-.277 6.926-.139 9.281.139 2.632 0 4.017.416 4.017.554zm-41.972.971c0 .138-1.246-.278-3.324-.555a26.346 26.346 0 00-8.034.139c-3.047.554-5.818 1.525-7.619 2.495-1.8.971-2.908 1.664-2.908 1.664s.831-.97 2.631-2.08c1.801-1.109 4.572-2.218 7.757-2.772 3.186-.555 6.095-.278 8.173.138 2.078.277 3.324.832 3.324.971zm.277 1.386c.139.139-3.324 1.802-7.757 2.912-4.432 1.109-8.311 1.247-8.311 1.109 0-.278 3.602-.694 8.034-1.803 4.433-1.109 7.896-2.495 8.034-2.218z" fill="#455A64"/><path d="M158.327 408.165s-.277.416-.97 1.109l-1.247 1.248c-.554.416-1.108.971-1.8 1.525-1.386 1.109-3.048 2.219-4.987 3.328-2.078 1.109-4.294 2.079-7.065 2.634-.415.139-.831.139-1.246.277-5.541 1.248-10.666.693-14.268 0-1.8-.416-3.186-.832-4.155-1.248-.97-.415-1.385-.693-1.385-.693 0-.138 2.077.693 5.679 1.387 3.463.693 8.588.97 13.99-.139.416-.139.831-.139 1.247-.277 2.493-.416 4.848-1.387 6.787-2.496 1.94-.97 3.602-2.218 4.987-3.189 2.77-2.218 4.294-3.604 4.433-3.466zm8.865-27.035s.138.416.277 1.248c.138.831.415 1.941.692 3.327.555 2.912 1.247 6.932 2.217 11.646l-.139-.277c3.463 1.248 7.203 2.773 11.359 4.298l-.416.138c1.801-2.357 3.74-4.852 5.68-7.486.415-.555.969-1.248 1.385-1.803l-.139.278c-.692-5.685-1.246-10.953-1.801-15.667l.416.277c-2.77 1.387-5.541 1.941-7.896 2.496a43.253 43.253 0 01-6.233.97c-1.801.278-3.186.416-4.017.416-.831.139-1.385.139-1.385.139s.554-.139 1.385-.277c.97-.139 2.355-.416 4.017-.555 1.801-.277 3.879-.693 6.233-1.109 2.355-.555 5.126-1.109 7.619-2.634l.416-.278v.416c.554 4.714 1.246 9.983 1.8 15.667v.139l-.138.138c-.416.555-.97 1.248-1.385 1.803a177.075 177.075 0 01-5.818 7.486l-.139.139-.277-.139c-4.155-1.663-8.034-3.05-11.358-4.436h-.139v-.139c-.831-4.852-1.385-9.012-1.939-11.923-.139-1.387-.416-2.357-.416-3.189.139-.693.139-1.109.139-1.109zm-23.271 3.743v1.109c0 .832-.139 1.941-.139 3.328-.138 3.05-.277 7.07-.554 12.062v.138l-.138.139c-3.186 1.664-6.926 3.605-10.805 5.684l-.277.139-.138-.139c-2.078-2.079-4.294-4.436-6.511-6.793-.554-.555-1.108-1.109-1.523-1.664l-.139-.139v-.138c0-5.685.139-11.092.139-15.667v-.416l.415.139c2.77 1.109 5.541 1.386 7.896 1.663 2.354.278 4.571.416 6.233.416s3.047.139 4.017.139h1.524s-.554.139-1.385.139h-4.156c-1.801 0-3.879-.139-6.372-.278-2.493-.277-5.264-.554-8.034-1.663l.416-.278v15.667l-.139-.277c.554.554 1.108 1.109 1.524 1.663 2.216 2.357 4.432 4.714 6.51 6.794h-.415c4.017-2.08 7.618-3.882 10.804-5.546l-.138.278c.415-4.853.692-8.874.831-11.785.138-1.387.138-2.496.277-3.328.138-.831.277-1.247.277-1.386zm12.328 18.717c-.139 0-.416-1.109-.831-3.05a47.05 47.05 0 01-.97-7.626c-.138-3.05-.138-5.684 0-7.625.139-1.941.416-3.189.416-3.189.277 0-.139 4.853.277 10.814.415 5.824 1.246 10.676 1.108 10.676zm35.461 6.516s-.416.277-1.108.555c-.693.277-1.663.693-3.048.97-2.632.693-6.233 1.387-10.389 1.387-4.155 0-7.757-.694-10.389-1.387-1.246-.416-2.354-.693-3.047-.97-.693-.278-1.108-.416-1.108-.555 0-.139 1.662.416 4.155 1.109 2.632.555 6.234 1.248 10.251 1.248 4.017 0 7.618-.555 10.25-1.248l4.433-1.109z" fill="#455A64"/><path d="M125.498 236.941s-19.116 10.398-24.656 12.894l7.618 36.602 12.051 43.811-8.034 46.307s28.396 4.991 42.248 3.188c18.977-2.495 43.218-9.427 43.218-9.427l-18.838-56.428 4.848-38.959-8.173-32.858-19.808-2.357-30.474-2.773z" fill="#E8505B"/><path opacity=".3" d="M116.633 273.543c1.246 2.634 4.294 3.743 7.064 4.575 2.77.832 5.679 1.248 7.896 3.189 3.878 3.327 3.74 9.705 7.341 13.31 2.216 2.356 5.956 3.188 9.004 2.218 1.939-.693 3.74-2.08 5.818-2.218 1.385-.139 2.908.277 4.294.277 4.017-.277 6.372-4.575 8.034-8.319 1.662-3.882 3.324-7.902 2.909-12.062-.554-6.239-5.818-11.23-6.649-17.469-.277-2.357 0-4.714-.277-6.932-.277-2.357-1.247-4.714-3.325-5.684" fill="#000"/><path d="M192.818 232.504l-14.822-29.669 11.913-7.626s14.822 15.39 17.73 18.301c0 0 17.038 15.806 12.606 23.431-3.74 6.516-9.835 11.507-9.835 11.507l-17.592-15.944zm-91.976 17.331c-.278.832-39.755 55.457-41.833 61.28-.139.277-.277.693-.277.97-2.355 7.626-.277 15.806 4.986 21.767l32.552 36.325 14.268-16.499-22.717-39.929 21.609-23.846-8.588-40.068z" fill="#E8505B"/><path d="M125.636 356.174c-1.385.139-3.74 1.941-4.848 2.773-.415.277-.831.416-1.246.416-.693 0-1.386-.555-1.663-1.248l-1.385-4.714c-1.385.139-2.77.971-3.463 2.218l-1.524 2.635-2.77-2.635-12.744 14.558s4.987 5.407 8.173 5.407c3.186.139 18.007-12.201 18.007-12.201l3.879-3.466c.277 0 3.463-3.882-.416-3.743z" fill="#FFBE9D"/><path d="M166.638 241.1l11.22.555 15.93-12.201 22.578 12.478s-10.112 10.953-19.808 22.044c-7.757 9.012-13.298 14.697-13.298 14.697L166.638 241.1z" fill="#E8505B"/><path d="M177.165 337.319s-.554.693-1.662 1.663c-1.108 1.109-2.632 2.496-4.709 4.298-4.018 3.605-9.974 8.042-17.038 12.339-7.065 4.16-13.852 7.349-18.977 9.151-2.494.97-4.571 1.664-6.095 2.08-1.385.416-2.216.693-2.216.554 0 0 .692-.416 2.216-.832 1.385-.554 3.463-1.247 5.956-2.357 4.987-2.079 11.774-5.129 18.7-9.289 7.065-4.159 13.021-8.734 17.038-12.062 2.078-1.663 3.74-3.188 4.848-4.159 1.385-.832 1.939-1.386 1.939-1.386zm-39.2-6.378c.138.139-3.879 6.516-8.866 14.419-5.125 7.903-9.28 14.141-9.557 14.003-.139-.139 3.878-6.516 8.865-14.419 5.125-7.903 9.419-14.142 9.558-14.003zm44.187-55.457c-.138 0-.138-1.664-.138-4.159-.139-2.635-.278-6.101-.693-10.121-.416-3.882-.831-7.487-1.247-9.983-.415-2.495-.969-4.02-.831-4.159.139 0 .831 1.386 1.385 4.021.554 2.495 1.108 6.1 1.524 10.121.416 4.02.554 7.486.416 10.121-.139 2.495-.416 4.159-.416 4.159zm27.15-45.059c0 .138-.97-.416-2.632-1.11-1.662-.693-3.879-1.386-6.511-1.386-2.631-.139-4.986.555-6.371 1.525-1.524.832-2.217 1.664-2.217 1.664s.554-.971 1.94-2.08c1.385-1.109 3.878-1.802 6.648-1.802 2.771 0 5.126.97 6.649 1.664 1.663.831 2.632 1.525 2.494 1.525z" fill="#263238"/><path d="M202.099 224.186c0 .277-3.186-.139-6.234 1.941-3.047 2.079-4.017 4.991-4.294 4.852-.138 0 .139-.832.693-1.941.554-1.109 1.662-2.495 3.186-3.604 1.662-1.11 3.324-1.387 4.571-1.526 1.385 0 2.078.139 2.078.278z" fill="#263238"/><path opacity=".3" d="M139.211 324.286c-.277-1.248-1.108-2.634-2.355-2.773-1.523-.138-2.493 1.525-3.047 2.912a457903.16 457903.16 0 01-13.714 32.858l-.415 2.08c5.541-8.873 11.081-17.331 16.622-26.204 1.662-2.634 3.463-5.684 2.909-8.873zm52.36-93.723c1.663-2.495 3.186-5.407 6.095-5.961 2.909-.555 6.233 0 8.727 1.525.554.416 1.108.97.969 1.525-.138.416-.692.693-1.108.832-2.632.693-5.402-.139-8.034-.416-2.632-.416-4.709.832-6.51 2.773" fill="#000"/><path d="M107.075 284.079c-.139 0-.693-1.386-1.662-3.743a121.629 121.629 0 01-2.909-9.566 72.37 72.37 0 01-1.801-9.844c-.277-2.495-.277-4.159-.277-4.159.139 0 .277 1.525.693 4.021.415 2.495 1.108 5.961 1.939 9.705.97 3.743 1.939 7.209 2.632 9.566.969 2.495 1.523 3.882 1.385 4.02z" fill="#263238"/><path d="M127.852 248.033l27.981.415-2.632-25.371s2.078 1.109 2.494-9.289c.415-10.399 1.385-28.006 1.385-28.006-11.913-5.546-25.765-4.16-36.431 3.605l-1.523 1.109 8.726 57.537z" fill="#FFBE9D"/><path d="M122.035 203.251c-.139-.139-7.065-2.357-7.065 4.852 0 7.071 7.203 5.546 7.203 5.407 0-.277-.138-10.259-.138-10.259zm33.383-.555c.138-.138 6.51-1.664 6.094 5.546-.415 7.071-7.48 5.268-7.48 4.991 0-.277 1.386-10.537 1.386-10.537z" fill="#FFBE9D"/><path d="M138.795 173.165s-9.696-.416-13.159 1.387c-5.818 2.911-10.25 11.091-10.25 21.212-.139 10.121 4.571 23.847 11.912 30.64 7.48 6.794 13.298 8.041 13.298 8.041s15.791-8.595 17.454-21.073c1.8-12.617 2.908-24.679-1.94-30.779-4.986-5.962-13.852-9.289-17.315-9.428z" fill="#263238"/><path d="M116.632 202.419c-.554-6.378-1.108-13.033.97-19.272 2.078-6.1 7.342-11.646 13.713-11.923 2.078-.138 4.156.416 6.234 0 1.801-.277 3.324-1.248 4.986-1.802 2.909-1.109 6.095-1.525 9.004-.555 2.909.971 5.264 3.605 5.402 6.794 0 1.248-.277 2.495.139 3.743.415 1.248 1.662 1.941 2.355 3.05 1.246 1.525 1.662 3.744 1.385 5.823-.139 2.08-.97 4.021-1.662 5.823-1.801 4.714-3.463 9.428-5.264 14.142" fill="#263238"/><path d="M132.839 206.024c3.74-1.803 8.173-1.664 11.774.277 3.602 1.941 6.095 5.823 6.511 9.844.415 4.159.415 4.852 3.186 8.179 1.662 1.941 3.324 1.941 5.263 3.605 2.494 2.218 3.325 6.239 1.801 9.289 5.125-.277 9.835-.554 11.636 4.16-7.619-1.525-15.237 5.545-22.717 4.02-2.355-.554-4.849-.97-6.788-2.495-2.216-1.664-3.463-4.437-4.571-6.932-2.078-4.576-4.017-9.29-6.095-13.865-1.385-3.189-2.77-6.377-2.77-9.705 0-3.466 2.078-7.071 5.264-7.902" fill="#263238"/><path d="M129.792 210.738c-1.385-4.437.138-9.428 3.74-11.785 3.463-2.496 8.726-2.218 12.466.554 2.771 2.08 4.571 5.546 4.294 8.874-.277 3.327-3.047 6.239-6.233 6.239" fill="#E8505B"/><path d="M146.414 203.805c-4.433-3.604-11.081-2.911-14.821.694-3.602 3.604-4.018 11.091-2.909 16.082 1.246 5.407 4.432 10.676 3.324 16.083-.693 3.327-2.909 6.655-1.662 9.705 1.108 2.495 4.017 3.604 5.679 5.823 2.355 3.189 1.247 7.764-.415 11.369-1.524 3.604-3.602 7.625-2.494 11.507.831 3.05 3.325 5.13 5.402 7.487 1.94 2.357 3.602 5.684 2.217 8.457 2.493 1.941 6.372 2.08 9.003.277 2.632-1.664 4.156-5.13 3.463-8.318 1.524 1.663 2.494 3.882 2.632 6.1 4.294-.416 8.45-3.189 10.389-7.071 1.939-3.882 1.662-8.873-.692-12.478-1.663-2.634-4.433-4.852-5.126-8.041-.692-3.743 2.078-7.348 1.663-11.23-.277-3.466-3.048-6.101-5.68-8.042-2.77-2.079-5.817-3.882-7.618-6.793-2.909-4.714-1.524-10.676-.416-16.083 1.385-5.268 1.94-11.646-1.939-15.528z" fill="#263238"/><path d="M130.069 207.133c-3.879 2.634-4.017 8.041-3.602 12.755.554 4.575 1.247 9.705-1.523 13.448-1.94 2.496-5.264 3.882-6.234 6.933-1.246 3.604 1.801 7.209 2.078 11.091.277 2.773-.97 5.407-2.216 7.764-1.385 2.357-2.909 4.714-3.463 7.487-.693 2.634-.139 5.823 1.939 7.625 1.385 1.109 3.186 1.525 4.848 1.664 6.095.97 12.328.97 18.423 0 1.801-7.487 3.602-15.112 3.602-22.876 0-15.39-7.203-30.086-7.48-45.475" fill="#263238"/><path d="M140.735 286.021l-.693-.694a53.571 53.571 0 00-1.662-2.079c-1.524-1.803-3.74-4.298-6.095-7.764-1.108-1.803-2.216-3.744-2.909-6.239-.692-2.357-.831-5.269.139-7.903.969-2.634 2.493-5.13 3.878-7.764 1.386-2.634 2.771-5.546 2.494-8.596-.277-3.05-2.355-5.684-3.325-8.596a6.283 6.283 0 01-.415-2.218c0-.832.138-1.525.415-2.218.554-1.387 1.524-2.634 2.355-3.605.97-.97 1.801-1.941 2.493-3.05.693-1.109.97-2.218.97-3.466.139-2.357-.554-4.575-1.247-6.516-.554-1.941-1.108-3.882-1.246-5.546-.139-1.664.277-3.189.831-4.159.554-1.11 1.247-1.664 1.801-2.08.554-.416.831-.416.831-.416.138.139-1.385.555-2.355 2.634-.416.971-.831 2.496-.693 4.021.139 1.664.554 3.466 1.247 5.407.693 1.941 1.385 4.159 1.385 6.794 0 1.247-.415 2.634-1.108 3.743-.693 1.248-1.662 2.218-2.493 3.189-.831.97-1.801 2.079-2.217 3.327-.277.693-.277 1.387-.277 2.08 0 .693.139 1.386.416 2.079.831 2.773 2.909 5.269 3.324 8.735.139 1.664-.138 3.327-.554 4.714-.554 1.525-1.246 2.911-1.939 4.159-1.524 2.634-3.047 5.13-3.879 7.625-.969 2.496-.831 5.13-.277 7.487.693 2.357 1.663 4.298 2.771 6.1 2.216 3.467 4.432 6.101 5.818 7.903.692.971 1.246 1.664 1.662 2.218.415.416.554.555.554.694z" fill="#455A64"/><path d="M125.636 232.504c-.138 0 .97-1.802 1.524-5.129.277-1.664.277-3.605.277-5.823 0-2.219-.277-4.714-.139-7.348.139-2.635.693-5.13 1.801-7.071 1.108-2.08 2.632-3.466 4.156-4.298 1.523-.832 2.909-1.109 3.878-.971.416 0 .831.139 1.108.139.277 0 .416.139.416.139 0 .138-.554 0-1.385 0-.97 0-2.217.277-3.74 1.109-1.385.832-2.909 2.218-3.879 4.159-.969 1.941-1.524 4.298-1.662 6.932-.139 2.496 0 4.991 0 7.21 0 2.218-.139 4.298-.416 5.961a14.168 14.168 0 01-1.246 3.882c-.277.694-.554 1.109-.693 1.109zm40.863 49.635s0-.278.139-.832v-2.496c-.277-2.218-.693-5.407-2.217-9.012-.831-1.802-2.077-3.604-2.908-5.823-.416-1.109-.832-2.218-1.109-3.466-.277-1.248-.138-2.634 0-3.882.139-1.248.555-2.634.693-4.02.139-1.387.139-2.773-.139-4.021-.554-2.773-1.8-5.407-4.017-7.487-2.077-2.079-5.125-3.05-7.203-4.991-2.216-2.08-3.324-4.852-3.74-7.348-.554-2.634-.415-5.13-.277-7.487.139-2.357.416-4.436.555-6.516.138-1.941.138-3.743 0-5.268-.278-1.525-.832-2.773-1.524-3.605-1.385-1.664-2.909-1.664-2.771-1.664 0 0 .277 0 .832.139.554.138 1.385.554 2.216 1.386.831.832 1.385 2.219 1.662 3.744.277 1.525.277 3.466.139 5.407-.139 1.941-.416 4.159-.554 6.516-.139 2.357-.278 4.852.277 7.348.554 2.496 1.523 5.13 3.601 7.071 1.939 1.941 4.987 2.911 7.203 4.991 2.216 2.08 3.74 4.991 4.156 7.903.277 1.386.277 2.911.138 4.298-.138 1.386-.554 2.634-.693 4.02-.138 1.248-.277 2.496-.138 3.744.139 1.247.554 2.356.97 3.327.831 2.08 2.077 3.882 2.909 5.823a31.712 31.712 0 011.939 9.289c0 1.109 0 1.941-.139 2.634 0 .278-.138.555-.138.694l.138-.416z" fill="#455A64"/><path d="M160.959 243.041s.415-.554.554-1.663c.277-1.11.415-2.912-.277-4.853-.693-1.941-2.355-4.021-4.71-5.268-1.247-.555-2.77-1.248-3.74-2.496-1.108-1.248-1.662-2.773-2.355-4.159-1.247-3.189-1.108-6.378-1.108-9.151 0-2.773-.139-5.268-.831-7.348-.693-1.941-1.801-3.327-2.771-4.02-.969-.694-1.523-.971-1.523-.971s.138 0 .415.139c.277.138.693.277 1.247.693.97.693 2.216 1.941 3.047 4.021.832 2.079 1.109 4.713 1.109 7.486 0 2.773-.139 5.962 1.108 8.873.692 1.387 1.385 2.912 2.216 4.021.416.555.97.971 1.662 1.387.554.415 1.247.554 1.939.97 2.632 1.386 4.295 3.605 4.987 5.684.554 2.08.416 3.882.139 5.13-.139.555-.416.971-.554 1.248-.416.139-.554.277-.554.277zm-33.107-37.572s-1.246-.416-2.908-1.664c-1.663-1.248-3.602-3.466-4.987-6.239-1.385-2.773-1.939-5.684-2.078-7.764-.138-2.079.277-3.327.277-3.327.139 0 0 1.248.277 3.327.139 1.941.831 4.714 2.216 7.487a21.51 21.51 0 004.71 6.239c1.385 1.109 2.493 1.802 2.493 1.941zm-1.385 1.941c-.138.139-2.354-.832-4.848-2.496-2.493-1.802-4.155-3.604-4.017-3.743.139-.139 2.078 1.387 4.433 3.05 2.493 1.664 4.571 2.912 4.432 3.189zm30.336-18.301c.139 0-.139 4.021-2.493 8.18-2.355 4.298-5.541 6.655-5.541 6.516-.139-.138 2.77-2.773 4.987-6.793 2.216-4.159 2.908-7.903 3.047-7.903zm2.355 5.546c.138 0-.416 3.189-2.078 6.655-1.662 3.604-3.602 6.1-3.74 5.961-.139-.138 1.524-2.773 3.047-6.239 1.524-3.466 2.494-6.377 2.771-6.377zm-3.325-18.024c-.138 0-.554-.97-1.385-2.634a7.632 7.632 0 00-1.939-2.495c-.831-.832-2.078-1.248-3.325-1.248-2.77 0-4.709 1.802-6.094 2.911-1.247 1.248-2.078 2.08-2.217 2.08 0 0 .554-.971 1.801-2.357.693-.693 1.385-1.525 2.493-2.08 1.109-.693 2.355-1.247 3.879-1.247s2.909.554 3.878 1.525c.97.831 1.524 1.941 1.94 2.772.831 1.664.969 2.773.969 2.773zm-2.77 108.419s-.277-.138-.693-.554l-1.801-1.803c-.692-.832-1.523-1.802-2.354-3.189-.831-1.247-1.663-2.911-1.801-4.991 0-.97 0-2.079.415-3.05.278-.97.832-2.079 1.386-3.05 1.108-1.941 2.493-4.021 2.632-6.516.138-2.496-.832-4.991-2.217-7.348-1.385-2.357-3.324-4.576-4.848-7.071-1.662-2.496-2.909-5.269-3.324-8.041a31.445 31.445 0 01-.139-8.042c.554-5.129 1.524-9.566 1.662-13.448.277-3.882-.277-6.932-.831-9.012-.692-2.079-1.246-3.05-1.246-3.05s.138.277.415.693c.277.555.693 1.248.97 2.219.692 2.079 1.246 5.268 1.108 9.15-.139 3.882-1.108 8.457-1.524 13.448-.277 2.496-.277 5.269.139 7.903.415 2.773 1.523 5.407 3.186 7.764 1.662 2.496 3.463 4.575 4.986 7.071 1.385 2.495 2.355 5.13 2.217 7.764-.139 2.773-1.663 4.852-2.771 6.793-.554.971-1.108 1.941-1.385 2.912-.277.97-.416 1.941-.416 2.911.139 1.941.832 3.466 1.524 4.853.831 1.248 1.662 2.357 2.216 3.189a25.163 25.163 0 001.663 1.802c.692.416.831.693.831.693z" fill="#455A64"/><path d="M623.611 610.445c0 .139-139.627.416-311.805.416C139.627 610.723 0 610.584 0 610.445c0-.138 139.627-.415 311.806-.415 172.178 0 311.805.138 311.805.415z" fill="#263238"/></svg>