<svg width="77" height="83" fill="none" xmlns="http://www.w3.org/2000/svg"><path fill-rule="evenodd" clip-rule="evenodd" d="M50.978 25.965h5.034v5.068h-5.034v10.241h-5.033v5.068H30.74v-5.068h-5.033V31.033h-5.138v-5.068h5.138V15.724h5.033v-5.068h5.034v5.068h10.171v5.173h5.033v5.068z" fill="#EDE7A8"/><path fill-rule="evenodd" clip-rule="evenodd" d="M25.707 46.342h5.033v5.068h5.034v10.24H30.74v15.31H5.364V56.583h5.138V51.41h15.205v-5.068z" fill="#fff"/><path fill-rule="evenodd" clip-rule="evenodd" d="M35.774 46.342h5.033v5.068h-5.033v-5.068zm5.033 25.444v5.068h-5.033V61.651h5.033v10.135z" fill="red"/><path fill-rule="evenodd" clip-rule="evenodd" d="M45.945 46.342h5.033v5.068h15.205v5.173h5.033V76.96H45.945V61.65h-5.138V51.41h5.138v-5.068z" fill="#fff"/><path fill-rule="evenodd" clip-rule="evenodd" d="M76.25 76.96v5.067H.75V56.688h5.034v-5.067h5.033v-5.068h15.1v-5.068h-5.034V31.35H15.85V11.078h5.034V6.011h5.033V.52h25.166v5.067h5.034v5.068h5.033v20.271h-5.033v10.136h-5.034v5.068h15.1v5.067h5.034v5.068h5.033V76.96zM40.807 46.342h5.033v-5.068h5.034V31.138h5.033v-5.067h-5.033v-5.068H45.84v-5.068H35.774v-5.068H30.74v5.068h-5.033v10.136h-5.033v5.067h5.033v10.136h5.033v5.068h5.034v5.068h5.033v-5.068zm5.138 0v5.068h-5.033v10.135h5.033v15.203h25.167V56.477h-5.034V51.41h-15.1v-5.068h-5.033zm-20.238 0v5.068h-15.1v5.067H5.574v20.271H30.74V61.545h5.034V51.41H30.74v-5.068h-5.033zM35.774 76.96h5.033V61.756h-5.033V76.96z" fill="#000"/></svg>