<svg width="85" height="83" fill="none" xmlns="http://www.w3.org/2000/svg"><path fill-rule="evenodd" clip-rule="evenodd" d="M45.905 20.003h6.539v6.5h-6.539v-6.5zm26.358 3.25v3.25h-6.607v-6.5h6.54v3.25h.067zm-9.875 0v3.25h-6.539v-6.5h6.539v3.25z" fill="red"/><path fill-rule="evenodd" clip-rule="evenodd" d="M82.072 20.004v12.998h-3.27v3.249h-3.269v3.25h-6.607v3.249h-6.538V46H42.773v-3.25h3.269V39.5h3.27v-3.25h-6.54v-3.249h-3.269v-3.25h-3.269V13.505h3.27v-3.249h3.269v-3.25h6.539V3.757h16.346v3.25h6.538v3.25h3.269v3.249h3.27v3.25h3.268v3.249h.069zm-9.808 6.498v-6.498h-6.607v6.5h6.607zm-9.876-6.498h-6.539v6.499h6.539v-6.5zm-9.876 0h-6.538v6.499h6.539v-6.5z" fill="#fff"/><path fill-rule="evenodd" clip-rule="evenodd" d="M3.201 33.069h35.962v16.248h6.539v3.248h6.538v-3.181h9.807v-3.25h6.539V78.63H3.269V42.884h3.27v-3.249h-3.27V33.07h-.068zm42.705 19.564h-6.539v3.25h6.539v-3.25zm-6.539 3.317h-6.538v3.25h6.538v-3.25zm-6.606 0V52.7h-6.539v3.25h6.538zm-6.539-3.317v-3.25h-6.539v3.25h6.539zm-6.607-3.25v-3.249h-6.538v3.25h6.538zm-6.538-3.249v-3.25H6.539v3.25h6.538z" fill="#0FF"/><path d="M42.636 36.318h-3.27v3.25h3.27v-3.25zm0 3.25h-3.27v3.25h3.27v-3.25z" fill="#0FF"/><path fill-rule="evenodd" clip-rule="evenodd" d="M72.264 78.764v3.25H0V29.752h32.692V13.504h3.27v-3.249h3.269v-3.25H42.5V3.757h6.538V.506h16.347v3.25h6.539v3.25h3.268v3.25h3.27v3.249h3.269v3.249H85v16.248h-3.27v3.249h-3.269v3.25h-3.269v3.249h-3.269v36.014h.34zm-6.607-35.947h3.27v-3.25h6.538v-3.249h3.269V33.07h3.27V16.754h-3.27v-3.25h-3.27v-3.249h-3.269v-3.25h-6.538V3.757H49.31v3.25h-6.538v3.25h-3.269v3.249h-3.269v16.247h3.27v3.25h3.268v3.249h6.539v3.25h-3.27v3.249h-3.269V46h19.616v-3.25h3.27v.068zm3.27 3.317h-6.54v3.25H52.58v3.25h-6.538v3.249h-6.539v3.25h-6.539v-3.25h-6.538v-3.25h-6.539v-3.25h-6.81v-3.249H6.538v-3.249H3.27v35.744h65.385V46.134h.272zM3.2 39.568h3.27v3.25h6.538v3.249h6.538v3.25h6.539v3.249h6.539v3.25h6.538v-3.25h6.539v-3.182h-6.54v-6.499h3.27v-6.499h-3.27v-3.25H3.27v6.432h-.068z" fill="#000"/></svg>