<svg width="97" height="82" fill="none" xmlns="http://www.w3.org/2000/svg"><path d="M48.5 0h-3.725v3.701H48.5V0z" fill="#00381C"/><path d="M44.775 3.701h-3.724v3.702h3.724V3.7zM41.05 7.48h-3.724v3.701h3.724V7.48z" fill="#00381C"/><path fill-rule="evenodd" clip-rule="evenodd" d="M44.775 7.48h3.803v3.701h3.724v3.701h3.725v3.702h3.725v3.778h3.802v3.702h3.725v3.701h3.725v3.701h3.725v3.779h3.802v3.701h3.725v3.702h3.725v3.778h3.802v7.403h-3.802v3.701h-7.45V48.426H74.73v-7.479h-3.725v-7.481H67.28v-3.701H26.074v-3.701h3.724v-3.702h3.725v-3.778h3.803v-3.702h3.724v-3.7h3.725V7.48z" fill="#3C3"/><path d="M37.248 11.181h-3.725v3.702h3.725V11.18zm-3.725 3.702H29.8v3.7h3.724v-3.7z" fill="#00381C"/><path d="M22.271 18.584h-3.725v3.701h3.725v-3.701z" fill="#B3B3B3"/><path d="M29.799 18.584h-3.725v3.701h3.724v-3.701z" fill="#00381C"/><path fill-rule="evenodd" clip-rule="evenodd" d="M67.28 18.584h11.174v3.701H67.279v-3.701zM18.545 11.18h14.9v3.702H18.624v3.7h-3.725v11.104h-3.725v3.702H3.725v11.105H7.45v11.104h3.724v11.104H14.9v11.105h-3.725V67.01H7.45V55.906H3.725V44.802H0V33.698h3.725v-3.702h7.449V18.892H14.9v-3.701h3.725v-4.01h-.078z" fill="#666"/><path d="M26.074 22.362h-3.725v3.702h3.725v-3.702zm-3.803 3.702h-3.725v3.701h3.725v-3.701z" fill="#00381C"/><path fill-rule="evenodd" clip-rule="evenodd" d="M22.349 26.064h3.725v-3.702h3.724v-3.778h3.725v-3.701h3.803V11.18h3.724v-3.7h3.725V3.7h3.803v3.78h3.724v3.701h3.725v3.702h3.725v3.7h3.802v3.78h3.725v3.7h3.725v3.702h3.725v3.702h3.802v3.778h3.725v3.701h3.725v3.702h3.802v3.778h3.725v3.701h-3.725v-3.7h-3.802v-3.78h-3.725v-3.7h-3.725v-3.702H74.73v-3.778h-3.725v-3.702H67.28v-3.701h-3.724v-3.702h-3.803v-3.778h-3.725v-3.701h-3.724V11.18h-3.725v-3.7h-3.803v3.701h-3.724v3.702h-3.725v3.7h-3.803v3.78h-3.725v3.7h-3.724v3.702H22.35v-3.701z" fill="#063"/><path fill-rule="evenodd" clip-rule="evenodd" d="M78.531 26.064v3.7h-3.725v-3.7h-3.724v-3.702h7.449v3.702zm-59.985-3.702h3.725v-3.701h3.725v3.701h-3.725v3.702h-3.725v-3.702z" fill="#FF0"/><path fill-rule="evenodd" clip-rule="evenodd" d="M11.097 29.765h56.182v3.702H11.097v-3.702z" fill="#B3B3B3"/><path fill-rule="evenodd" clip-rule="evenodd" d="M82.256 29.765v3.701h-3.725V22.362h3.725v7.403z" fill="#7B8330"/><path fill-rule="evenodd" clip-rule="evenodd" d="M3.57 33.467h63.32v3.7H3.725v-3.7H3.57zm22.504-18.584h3.724v3.7H18.624v11.105h-3.725V18.584h3.725v-3.701h7.45z" fill="#fff"/><path d="M7.294 37.245H3.57v3.701h3.724v-3.701z" fill="#B3B3B3"/><path d="M11.097 37.245H7.372v3.701h3.725v-3.701z" fill="#FF0"/><path d="M14.822 37.245h-3.725v3.701h3.725v-3.701z" fill="#B3B3B3"/><path d="M18.546 37.245h-3.724v3.701h3.724v-3.701z" fill="#FF0"/><path d="M22.271 37.245h-3.725v3.701h3.725v-3.701z" fill="#B3B3B3"/><path d="M26.074 37.245h-3.725v3.701h3.725v-3.701z" fill="#FF0"/><path d="M29.799 37.245h-3.725v3.701h3.724v-3.701z" fill="#B3B3B3"/><path d="M33.523 37.245H29.8v3.701h3.724v-3.701z" fill="#FF0"/><path d="M37.248 37.245h-3.725v3.701h3.725v-3.701z" fill="#B3B3B3"/><path d="M41.05 37.245h-3.724v3.701h3.724v-3.701z" fill="#FF0"/><path d="M44.775 37.245h-3.724v3.701h3.724v-3.701z" fill="#B3B3B3"/><path d="M48.5 37.245h-3.725v3.701H48.5v-3.701z" fill="#FF0"/><path d="M52.302 37.245h-3.724v3.701h3.724v-3.701z" fill="#B3B3B3"/><path d="M56.027 37.245h-3.724v3.701h3.724v-3.701z" fill="#FF0"/><path d="M59.752 37.245h-3.725v3.701h3.725v-3.701z" fill="#B3B3B3"/><path d="M63.477 37.245h-3.725v3.701h3.725v-3.701z" fill="#FF0"/><path d="M67.28 37.245h-3.726v3.701h3.725v-3.701z" fill="#B3B3B3"/><path d="M7.294 40.946H3.57v3.702h3.724v-3.702z" fill="#FF0"/><path d="M11.097 40.946H7.372v3.702h3.725v-3.702z" fill="#B3B3B3"/><path d="M14.822 40.946h-3.725v3.702h3.725v-3.702z" fill="#FF0"/><path d="M18.546 40.946h-3.724v3.702h3.724v-3.702z" fill="#B3B3B3"/><path d="M22.271 40.946h-3.725v3.702h3.725v-3.702z" fill="#FF0"/><path d="M26.074 40.946h-3.725v3.702h3.725v-3.702z" fill="#B3B3B3"/><path d="M29.799 40.946h-3.725v3.702h3.724v-3.702z" fill="#FF0"/><path d="M33.523 40.946H29.8v3.702h3.724v-3.702z" fill="#B3B3B3"/><path d="M37.248 40.946h-3.725v3.702h3.725v-3.702z" fill="#FF0"/><path d="M41.05 40.946h-3.724v3.702h3.724v-3.702z" fill="#B3B3B3"/><path d="M44.775 40.946h-3.724v3.702h3.724v-3.702z" fill="#FF0"/><path d="M48.5 40.946h-3.725v3.702H48.5v-3.702z" fill="#B3B3B3"/><path d="M52.302 40.946h-3.724v3.702h3.724v-3.702z" fill="#FF0"/><path d="M56.027 40.946h-3.724v3.702h3.724v-3.702z" fill="#B3B3B3"/><path d="M59.752 40.946h-3.725v3.702h3.725v-3.702z" fill="#FF0"/><path d="M63.477 40.946h-3.725v3.702h3.725v-3.702z" fill="#B3B3B3"/><path d="M67.28 40.946h-3.726v3.702h3.725v-3.702z" fill="#FF0"/><path d="M71.004 40.946H67.28v3.702h3.725v-3.702z" fill="#B3B3B3"/><path d="M11.097 44.648H7.372v3.7h3.725v-3.7z" fill="#FF0"/><path d="M14.822 44.648h-3.725v3.7h3.725v-3.7z" fill="#B3B3B3"/><path d="M18.546 44.648h-3.724v3.7h3.724v-3.7z" fill="#FF0"/><path d="M22.271 44.648h-3.725v3.7h3.725v-3.7z" fill="#B3B3B3"/><path d="M26.074 44.648h-3.725v3.7h3.725v-3.7z" fill="#FF0"/><path d="M29.799 44.648h-3.725v3.7h3.724v-3.7z" fill="#B3B3B3"/><path d="M33.523 44.648H29.8v3.7h3.724v-3.7z" fill="#FF0"/><path d="M37.248 44.648h-3.725v3.7h3.725v-3.7z" fill="#B3B3B3"/><path d="M41.05 44.648h-3.724v3.7h3.724v-3.7z" fill="#FF0"/><path d="M44.775 44.648h-3.724v3.7h3.724v-3.7z" fill="#B3B3B3"/><path d="M48.5 44.648h-3.725v3.7H48.5v-3.7z" fill="#FF0"/><path d="M52.302 44.648h-3.724v3.7h3.724v-3.7z" fill="#B3B3B3"/><path d="M56.027 44.648h-3.724v3.7h3.724v-3.7z" fill="#FF0"/><path d="M59.752 44.648h-3.725v3.7h3.725v-3.7z" fill="#B3B3B3"/><path d="M63.477 44.648h-3.725v3.7h3.725v-3.7z" fill="#FF0"/><path d="M67.28 44.648h-3.726v3.7h3.725v-3.7z" fill="#B3B3B3"/><path d="M71.004 44.648H67.28v3.7h3.725v-3.7z" fill="#FF0"/><path d="M11.097 48.426H7.372v3.702h3.725v-3.702z" fill="#B3B3B3"/><path d="M14.822 48.426h-3.725v3.702h3.725v-3.702z" fill="#FF0"/><path d="M18.546 48.426h-3.724v3.702h3.724v-3.702z" fill="#B3B3B3"/><path d="M22.271 48.426h-3.725v3.702h3.725v-3.702z" fill="#FF0"/><path d="M26.074 48.426h-3.725v3.702h3.725v-3.702z" fill="#B3B3B3"/><path d="M29.799 48.426h-3.725v3.702h3.724v-3.702z" fill="#FF0"/><path d="M33.523 48.426H29.8v3.702h3.724v-3.702z" fill="#B3B3B3"/><path d="M37.248 48.426h-3.725v3.702h3.725v-3.702z" fill="#FF0"/><path d="M41.05 48.426h-3.724v3.702h3.724v-3.702z" fill="#B3B3B3"/><path d="M44.775 48.426h-3.724v3.702h3.724v-3.702z" fill="#FF0"/><path d="M48.5 48.426h-3.725v3.702H48.5v-3.702z" fill="#B3B3B3"/><path d="M52.302 48.426h-3.724v3.702h3.724v-3.702z" fill="#FF0"/><path d="M56.027 48.426h-3.724v3.702h3.724v-3.702z" fill="#B3B3B3"/><path d="M59.752 48.426h-3.725v3.702h3.725v-3.702z" fill="#FF0"/><path d="M63.477 48.426h-3.725v3.702h3.725v-3.702z" fill="#B3B3B3"/><path d="M67.28 48.426h-3.726v3.702h3.725v-3.702z" fill="#FF0"/><path d="M71.004 48.426H67.28v3.702h3.725v-3.702z" fill="#B3B3B3"/><path d="M74.729 48.426h-3.725v3.702h3.725v-3.702zm3.725 0h-3.725v3.702h3.725v-3.702z" fill="#666"/><path d="M11.097 52.127H7.372v3.702h3.725v-3.702z" fill="#FF0"/><path d="M14.822 52.127h-3.725v3.702h3.725v-3.702z" fill="#B3B3B3"/><path d="M18.546 52.127h-3.724v3.702h3.724v-3.702z" fill="#FF0"/><path d="M22.271 52.127h-3.725v3.702h3.725v-3.702z" fill="#B3B3B3"/><path d="M26.074 52.127h-3.725v3.702h3.725v-3.702z" fill="#FF0"/><path d="M29.799 52.127h-3.725v3.702h3.724v-3.702z" fill="#B3B3B3"/><path d="M33.523 52.127H29.8v3.702h3.724v-3.702z" fill="#FF0"/><path d="M37.248 52.127h-3.725v3.702h3.725v-3.702z" fill="#B3B3B3"/><path d="M41.05 52.127h-3.724v3.702h3.724v-3.702z" fill="#FF0"/><path d="M44.775 52.127h-3.724v3.702h3.724v-3.702z" fill="#B3B3B3"/><path d="M48.5 52.127h-3.725v3.702H48.5v-3.702z" fill="#FF0"/><path d="M52.302 52.127h-3.724v3.702h3.724v-3.702z" fill="#B3B3B3"/><path d="M56.027 52.127h-3.724v3.702h3.724v-3.702z" fill="#FF0"/><path d="M59.752 52.127h-3.725v3.702h3.725v-3.702z" fill="#B3B3B3"/><path d="M63.477 52.127h-3.725v3.702h3.725v-3.702z" fill="#FF0"/><path d="M67.28 52.127h-3.726v3.702h3.725v-3.702z" fill="#B3B3B3"/><path d="M14.822 55.829h-3.725v3.701h3.725v-3.7z" fill="#FF0"/><path d="M18.546 55.829h-3.724v3.701h3.724v-3.7z" fill="#B3B3B3"/><path d="M22.271 55.829h-3.725v3.701h3.725v-3.7z" fill="#FF0"/><path d="M26.074 55.829h-3.725v3.701h3.725v-3.7z" fill="#B3B3B3"/><path d="M29.799 55.829h-3.725v3.701h3.724v-3.7z" fill="#FF0"/><path d="M33.523 55.829H29.8v3.701h3.724v-3.7z" fill="#B3B3B3"/><path d="M37.248 55.829h-3.725v3.701h3.725v-3.7z" fill="#FF0"/><path d="M41.05 55.829h-3.724v3.701h3.724v-3.7z" fill="#B3B3B3"/><path d="M44.775 55.829h-3.724v3.701h3.724v-3.7z" fill="#FF0"/><path d="M48.5 55.829h-3.725v3.701H48.5v-3.7z" fill="#B3B3B3"/><path d="M52.302 55.829h-3.724v3.701h3.724v-3.7z" fill="#FF0"/><path d="M56.027 55.829h-3.724v3.701h3.724v-3.7z" fill="#B3B3B3"/><path d="M59.752 55.829h-3.725v3.701h3.725v-3.7z" fill="#FF0"/><path d="M63.477 55.829h-3.725v3.701h3.725v-3.7z" fill="#B3B3B3"/><path d="M67.28 55.829h-3.726v3.701h3.725v-3.7z" fill="#FF0"/><path d="M71.004 55.829H67.28v3.701h3.725v-3.7z" fill="#B3B3B3"/><path fill-rule="evenodd" clip-rule="evenodd" d="M74.729 55.829v3.701h-3.725v-3.7H67.28v-3.702h7.45v3.702z" fill="#FF0"/><path d="M14.822 59.53h-3.725v3.702h3.725V59.53z" fill="#B3B3B3"/><path d="M18.546 59.53h-3.724v3.702h3.724V59.53z" fill="#FF0"/><path d="M22.271 59.53h-3.725v3.702h3.725V59.53z" fill="#B3B3B3"/><path d="M26.074 59.53h-3.725v3.702h3.725V59.53z" fill="#FF0"/><path d="M29.799 59.53h-3.725v3.702h3.724V59.53z" fill="#B3B3B3"/><path d="M33.523 59.53H29.8v3.702h3.724V59.53z" fill="#FF0"/><path d="M37.248 59.53h-3.725v3.702h3.725V59.53z" fill="#B3B3B3"/><path d="M41.05 59.53h-3.724v3.702h3.724V59.53z" fill="#FF0"/><path d="M44.775 59.53h-3.724v3.702h3.724V59.53z" fill="#B3B3B3"/><path d="M48.5 59.53h-3.725v3.702H48.5V59.53z" fill="#FF0"/><path d="M52.302 59.53h-3.724v3.702h3.724V59.53z" fill="#B3B3B3"/><path d="M56.027 59.53h-3.724v3.702h3.724V59.53z" fill="#FF0"/><path d="M59.752 59.53h-3.725v3.702h3.725V59.53z" fill="#B3B3B3"/><path d="M63.477 59.53h-3.725v3.702h3.725V59.53z" fill="#FF0"/><path d="M67.28 59.53h-3.726v3.702h3.725V59.53z" fill="#B3B3B3"/><path d="M71.004 59.53H67.28v3.702h3.725V59.53z" fill="#FF0"/><path d="M74.729 59.53h-3.725v3.702h3.725V59.53z" fill="#B3B3B3"/><path d="M78.454 59.53h-3.725v3.702h3.725V59.53z" fill="#FF0"/><path d="M82.256 59.53h-3.725v3.702h3.725V59.53z" fill="#00381C"/><path d="M14.822 63.309h-3.725v3.701h3.725v-3.701z" fill="#FF0"/><path d="M18.546 63.309h-3.724v3.701h3.724v-3.701z" fill="#B3B3B3"/><path d="M22.271 63.309h-3.725v3.701h3.725v-3.701z" fill="#FF0"/><path d="M26.074 63.309h-3.725v3.701h3.725v-3.701z" fill="#B3B3B3"/><path d="M29.799 63.309h-3.725v3.701h3.724v-3.701z" fill="#FF0"/><path d="M33.523 63.309H29.8v3.701h3.724v-3.701z" fill="#B3B3B3"/><path d="M37.248 63.309h-3.725v3.701h3.725v-3.701z" fill="#FF0"/><path d="M41.05 63.309h-3.724v3.701h3.724v-3.701z" fill="#B3B3B3"/><path d="M44.775 63.309h-3.724v3.701h3.724v-3.701z" fill="#FF0"/><path d="M48.5 63.309h-3.725v3.701H48.5v-3.701z" fill="#B3B3B3"/><path d="M52.302 63.309h-3.724v3.701h3.724v-3.701z" fill="#FF0"/><path d="M56.027 63.309h-3.724v3.701h3.724v-3.701z" fill="#B3B3B3"/><path d="M59.752 63.309h-3.725v3.701h3.725v-3.701z" fill="#FF0"/><path d="M63.477 63.309h-3.725v3.701h3.725v-3.701z" fill="#B3B3B3"/><path d="M67.28 63.309h-3.726v3.701h3.725v-3.701z" fill="#FF0"/><path d="M71.004 63.309H67.28v3.701h3.725v-3.701z" fill="#B3B3B3"/><path d="M74.729 63.309h-3.725v3.701h3.725v-3.701z" fill="#FF0"/><path d="M78.454 63.309h-3.725v3.701h3.725v-3.701z" fill="#B3B3B3"/><path d="M18.546 67.01h-3.724v3.701h3.724V67.01z" fill="#FF0"/><path d="M22.271 67.01h-3.725v3.701h3.725V67.01z" fill="#B3B3B3"/><path d="M26.074 67.01h-3.725v3.701h3.725V67.01z" fill="#FF0"/><path d="M29.799 67.01h-3.725v3.701h3.724V67.01z" fill="#B3B3B3"/><path d="M33.523 67.01H29.8v3.701h3.724V67.01z" fill="#FF0"/><path d="M37.248 67.01h-3.725v3.701h3.725V67.01z" fill="#B3B3B3"/><path d="M41.05 67.01h-3.724v3.701h3.724V67.01z" fill="#FF0"/><path d="M44.775 67.01h-3.724v3.701h3.724V67.01z" fill="#B3B3B3"/><path d="M48.5 67.01h-3.725v3.701H48.5V67.01z" fill="#FF0"/><path d="M52.302 67.01h-3.724v3.701h3.724V67.01z" fill="#B3B3B3"/><path d="M56.027 67.01h-3.724v3.701h3.724V67.01z" fill="#FF0"/><path d="M59.752 67.01h-3.725v3.701h3.725V67.01z" fill="#B3B3B3"/><path d="M63.477 67.01h-3.725v3.701h3.725V67.01z" fill="#FF0"/><path d="M67.28 67.01h-3.726v3.701h3.725V67.01z" fill="#B3B3B3"/><path d="M71.004 67.01H67.28v3.701h3.725V67.01z" fill="#FF0"/><path d="M74.729 67.01h-3.725v3.701h3.725V67.01z" fill="#B3B3B3"/><path d="M78.454 67.01h-3.725v3.701h3.725V67.01z" fill="#FF0"/><path d="M18.546 70.711h-3.724v3.701h3.724v-3.7z" fill="#B3B3B3"/><path d="M22.271 70.711h-3.725v3.701h3.725v-3.7z" fill="#FF0"/><path d="M26.074 70.711h-3.725v3.701h3.725v-3.7z" fill="#B3B3B3"/><path d="M29.799 70.711h-3.725v3.701h3.724v-3.7z" fill="#FF0"/><path d="M33.523 70.711H29.8v3.701h3.724v-3.7z" fill="#B3B3B3"/><path d="M37.248 70.711h-3.725v3.701h3.725v-3.7z" fill="#FF0"/><path d="M41.05 70.711h-3.724v3.701h3.724v-3.7z" fill="#B3B3B3"/><path d="M44.775 70.711h-3.724v3.701h3.724v-3.7z" fill="#FF0"/><path d="M48.5 70.711h-3.725v3.701H48.5v-3.7z" fill="#B3B3B3"/><path d="M52.302 70.711h-3.724v3.701h3.724v-3.7z" fill="#FF0"/><path d="M56.027 70.711h-3.724v3.701h3.724v-3.7z" fill="#B3B3B3"/><path d="M59.752 70.711h-3.725v3.701h3.725v-3.7z" fill="#FF0"/><path d="M63.477 70.711h-3.725v3.701h3.725v-3.7z" fill="#B3B3B3"/><path d="M67.28 70.711h-3.726v3.701h3.725v-3.7z" fill="#FF0"/><path d="M71.004 70.711H67.28v3.701h3.725v-3.7z" fill="#B3B3B3"/><path d="M74.729 70.711h-3.725v3.701h3.725v-3.7z" fill="#FF0"/><path d="M78.454 70.711h-3.725v3.701h3.725v-3.7z" fill="#B3B3B3"/><path d="M82.256 70.711h-3.725v3.701h3.725v-3.7z" fill="#FF0"/><path fill-rule="evenodd" clip-rule="evenodd" d="M14.822 74.413h67.434v3.778H14.822v-3.778z" fill="#7B8330"/><path fill-rule="evenodd" clip-rule="evenodd" d="M78.531 55.829v3.701h-3.725v-7.403h3.725v3.702zM14.821 78.19h67.048v-7.479h-3.725v-7.404h3.725v-3.7h3.725v-3.702h3.724v-3.702h3.725v-3.701h-3.725v-3.701h-3.724V41.1h-3.725v-3.7h-3.725v-3.701h-3.725v-3.702h-3.725v-3.701H66.97v-3.702h-3.725v-3.7H59.52V15.19h-3.725v-4.01h-3.492v-3.7h-3.724V3.778h3.724V7.48h3.725v3.701h3.725v3.701h3.725v3.702H67.2v3.701h3.725v3.701h3.725v3.702h3.725v3.701H82.1v-7.403h3.725v14.806h3.724v3.701h3.725v3.702H97v3.7h-3.725v3.702H89.55V59.3h-3.724v18.506H82.1v3.702H14.899V78.19h-.077zM67.28 33.466h3.725v7.404h3.725v7.402h-3.725v-7.403H67.28v-7.403z" fill="#000"/><path d="M48.5 26.064h-3.725v3.701H48.5v-3.701zm0-3.702h-3.725v3.702H48.5v-3.702zm3.802 0h-3.724v3.702h3.724v-3.702zm3.725 0h-3.724v3.702h3.724v-3.702zm26.229 33.467h-3.725v3.701h3.725v-3.7z" fill="#093"/><path d="M85.98 55.829h-3.724v3.701h3.725v-3.7zm3.726-3.702H85.98v3.702h3.725v-3.702z" fill="#063"/><path d="M85.98 52.127h-3.724v3.702h3.725v-3.702z" fill="#093"/><path d="M89.706 48.426H85.98v3.702h3.725v-3.702z" fill="#093"/></svg>