<svg width="73" height="83" fill="none" xmlns="http://www.w3.org/2000/svg"><path fill-rule="evenodd" clip-rule="evenodd" d="M.558.507h68.635v3.309H3.806v74.956H.559V.506z" fill="#B3B3B3"/><path fill-rule="evenodd" clip-rule="evenodd" d="M69.193 7.057v71.31H3.941V3.883h64.982v3.174h.27zM7.056 75.531h58.482V7.125H7.19V75.53h-.135z" fill="#fff"/><path fill-rule="evenodd" clip-rule="evenodd" d="M56.13 13.607h3.248v16.274h-6.565v-3.24h-3.25v3.24h-3.248v3.242h-3.317v3.242h-3.25v3.308H33.25v-3.309h-3.316v-3.24h-6.498v3.24H20.12v3.31h-6.498v-3.31h6.498v-3.24h3.317v-3.242h6.498v3.241h3.317v3.242h6.498v-3.242h3.249v-3.241h3.317V26.64h3.249v-3.309h3.249v3.31h3.316V13.606z" fill="#000"/><path fill-rule="evenodd" clip-rule="evenodd" d="M26.685 23.331h3.25v3.31h3.316v3.24h6.498v-3.24h3.249v-3.31h3.317V20.09h-3.317v-3.241h13.131v9.792h-3.316v-3.31h-3.25v3.31h-3.248v3.24h-3.317v3.242h-3.25v3.241H33.25v-3.241h-3.316v-3.241h-6.498v3.241H20.12v3.241h-3.25v-6.482h3.25V26.64h3.316v-3.309h3.25z" fill="#0FF"/><path fill-rule="evenodd" clip-rule="evenodd" d="M16.87 33.123v3.242h-3.249v-6.484h3.25V26.64h3.248v-3.309h3.317v-3.24h6.498v3.24h3.317v3.31h6.498V13.606h16.38v3.242H42.998v3.241h3.317v3.241h-3.317v3.31h-3.25v3.24H33.25v-3.24h-3.316v-3.31h-6.498v3.31H20.12v3.24h-3.25v3.242zm-3.249 9.792h3.25V68.98h-3.25V42.915z" fill="#B3B3B3"/><path fill-rule="evenodd" clip-rule="evenodd" d="M16.87 42.915h3.25V68.98h-3.25V42.915z" fill="#3600F8"/><path fill-rule="evenodd" clip-rule="evenodd" d="M20.12 42.915h3.316V68.98H20.12V42.915z" fill="#000"/><path fill-rule="evenodd" clip-rule="evenodd" d="M29.934 42.915h3.317V68.98h-3.317V42.915z" fill="#B3B3B3"/><path fill-rule="evenodd" clip-rule="evenodd" d="M33.25 42.915h3.25V68.98h-3.25V42.915z" fill="#3600F8"/><path fill-rule="evenodd" clip-rule="evenodd" d="M36.5 42.915h3.249V68.98H36.5V42.915z" fill="#000"/><path fill-rule="evenodd" clip-rule="evenodd" d="M46.315 42.915h3.249V68.98h-3.25V42.915z" fill="#B3B3B3"/><path fill-rule="evenodd" clip-rule="evenodd" d="M49.564 42.915h3.249V68.98h-3.249V42.915z" fill="#3600F8"/><path fill-rule="evenodd" clip-rule="evenodd" d="M52.813 42.915h3.316V68.98h-3.316V42.915z" fill="#000"/><path fill-rule="evenodd" clip-rule="evenodd" d="M.558 78.772h68.635V.506h3.25v81.509H.557v-3.242z" fill="#000"/></svg>