<svg width="83" height="82" fill="none" xmlns="http://www.w3.org/2000/svg"><path d="M31.267 10.202h-3.403v3.396h3.403v-3.396z" fill="#B3B3B3"/><path fill-rule="evenodd" clip-rule="evenodd" d="M20.988 13.598h3.402v3.396h-3.402v-3.396zm-10.209 10.26h3.403V20.46H10.78v3.396zm3.403 3.395H10.78v3.396h3.403v-3.396zm-3.403 0v-3.396H7.377v3.396h3.402zm6.806-3.396v13.585h-3.403v3.396h3.403v3.396h-3.403v-3.396H10.78v-3.396H7.377v-3.326H3.902V30.72h3.403v-3.396H3.903v-3.396h3.403v-3.396h3.402v-3.396h3.403v-3.538h3.403v3.396H14.11v3.396h3.403c.07.071.07 3.467.07 3.467zm-3.403 13.656v-3.397H10.78v3.397h3.403zm-3.403-3.397V30.72H7.377v3.396h3.402zM68.91 13.598h3.474v3.396h-6.877v-6.792h3.403v3.396z" fill="#fff"/><path fill-rule="evenodd" clip-rule="evenodd" d="M20.988 71.686h23.819v3.396H21.059v-3.396h-.071zm10.279-58.088h3.403v3.396h3.402v6.793h3.403V37.37h-3.403v6.792h3.403v3.396h3.403v3.397h3.403v3.396h3.403v3.396h3.402v3.396h3.403v3.396h3.403v3.396h3.403v3.396h13.611V20.532H61.892v-3.396h13.611v-3.538H72.1v-3.396h-3.403V6.806h-3.402V3.41h3.402v3.396H72.1v3.396h3.403v3.396h3.403v3.396h3.402v57.734H65.295v3.397h-3.403v3.396H51.684v-3.397h10.208V67.936h-3.403V64.54h-3.403v-3.396h-3.402v-3.396H48.28v-3.396h-3.403v-3.396h-3.403v-3.397h-3.403v-3.396H34.67v3.396h-3.403v3.397H14.253v-3.397h17.014v-3.396h3.403v-6.792h3.402V23.928H34.67v-6.792h-3.403v-3.538z" fill="#000"/><path d="M27.864 20.46h-3.403v3.397h3.403v-3.396z" fill="#0FF"/><path fill-rule="evenodd" clip-rule="evenodd" d="M51.825 20.46h3.403v3.397H41.617v-3.396h10.208zm0 30.707H68.84v3.397H51.825v-3.397zM65.507 30.65h3.403v3.396H45.091V30.65h20.416zm0 6.863h3.403v3.396H41.688v-3.396h23.819zm0 6.863h3.403v3.396H45.091v-3.396h20.416z" fill="#B3B3B3"/><path fill-rule="evenodd" clip-rule="evenodd" d="M24.461 68.219v3.396H21.06V51.238h6.805v3.397h3.403v3.396h3.403v3.396h-3.403V58.03h-3.403v-3.396h-3.403v13.584zM44.95 34.116v3.397h-3.403v6.792h3.403V47.7h3.403v3.396h3.402v3.396h3.403v3.396h3.403v3.396h3.403v3.396h3.402v3.397h-3.402V64.68H58.56v-3.396h-3.403V57.89h-3.403v-3.396h-3.402v-3.396h-3.403V47.7h-3.403v-3.396h-3.403v-6.792h3.403V23.928h-3.403v-3.396h3.403v3.396h3.403v10.188zm-17.085 0h6.806v3.397H24.46v-3.397h3.403zM24.461 3.34v6.792h3.403v3.467H14.253v3.396H7.447v6.792H3.903v13.585h3.403v6.792h6.805v3.396H7.306v-3.396H3.903v-6.792H.5V23.928h3.403v-6.792h3.403v-3.538h6.805v-3.396h6.806V.014h44.236v6.792h3.403v3.396h3.402v3.396h3.403v3.396h-3.403v-3.396h-3.402v-3.396h-3.403v6.792H61.75V3.41H24.462v-.071zm0 37.57h6.806v3.396H24.46V40.91z" fill="#666"/><path fill-rule="evenodd" clip-rule="evenodd" d="M75.786 34.116V68.22H65.507v-3.396h-3.403v-3.396h-3.473V58.03h-3.403v-3.467H68.91v-3.396H48.422v-3.396H68.91v-3.396H41.546v-3.467H68.91v-3.396H44.949v-3.397H68.91V30.65H44.949v-6.793h10.279v-3.396H38.143v-3.467H34.74v-3.396h-3.473v-3.396H24.46V3.34h37.644v17.122h13.682v13.654z" fill="#fff"/><path d="M10.708 40.909H7.306v3.396h3.402v-3.396z" fill="#B3B3B3"/><path fill-rule="evenodd" clip-rule="evenodd" d="M20.988 44.376h3.402v3.396h-3.402v-3.396zM7.306 16.994h3.402v3.396h3.403v-3.396h3.403v3.396H14.11v3.396h-3.403v3.397h3.403v3.396h-3.403v3.396h3.403v3.396h3.403v3.396H14.11v3.396h3.403v3.396H14.11v-3.396h-3.403v-3.396H7.306v-3.396H3.903v-3.255h3.403V30.72H3.903v-3.396h3.403v-3.396h3.402v-3.396H7.306v-3.538zm3.473 10.26H7.377v3.395h3.402v-3.396zm0 6.862H7.377v3.397h3.402v-3.397zm0 3.397v3.396h3.403v-3.396H10.78zM31.267 20.46h3.403v3.396h-3.403v3.396h3.403v3.396h-3.403v3.397h-3.403V30.65h-3.403v3.396H21.06V30.65h3.402v-3.397H21.06v-3.396h3.402v3.396h3.403v-3.396h3.403v-3.396h-3.403v-3.396h-3.403v3.396H21.06v-3.396h3.402v-3.467h3.403v3.396h3.403v3.467zm0 6.792h-3.403v3.396h3.403v-3.396zm-10.28 10.26h3.403v3.396h-3.402v-3.396zm6.877 0h3.403v3.396h-3.403v-3.396z" fill="#0FF"/><path fill-rule="evenodd" clip-rule="evenodd" d="M24.461 44.376h3.403v3.396H24.46v-3.396h-3.403v3.396h-3.402V13.598h3.402v6.792h3.403v-3.396h3.403v3.396h3.403v3.396h3.402v3.397h-3.402v3.396h3.402v3.396h-3.402v-3.396h-3.403v3.396H24.46v3.396h3.403v3.396H24.46v3.608zm-3.474-3.467h3.403v-3.396h-3.403v3.396zm0-6.793h3.403V30.72h-3.403v3.396zm0-6.863h3.403v-3.396h-3.403v3.396zm3.474 0v3.396h3.403v-3.396H24.46zm0-6.792v3.396h3.403v-3.396H24.46zm3.403 3.396v3.396h3.403v-3.396h-3.403z" fill="#B3B3B3"/><path d="M38.143 44.376H34.74v3.396h3.403v-3.396z" fill="#666"/><path d="M34.67 47.772h-3.403v3.396h3.402v-3.396z" fill="#B3B3B3"/><path d="M38.143 47.772H34.74v3.396h3.403v-3.396z" fill="#666"/><path d="M31.267 51.168h-3.403v3.396h3.403v-3.396zm6.876 0H34.74v3.396h3.403v-3.396z" fill="#B3B3B3"/><path fill-rule="evenodd" clip-rule="evenodd" d="M34.74 64.823h3.403v3.396H24.461V54.564h3.403v3.467h3.403v3.396h3.473v3.396z" fill="#fff"/><path fill-rule="evenodd" clip-rule="evenodd" d="M24.461 68.22h17.014v3.395H24.461V68.22zm54.728 0v3.395H65.578V68.22h10.208V20.532h3.403v47.687z" fill="#B3B3B3"/><path fill-rule="evenodd" clip-rule="evenodd" d="M48.422 75.082h3.403v3.396h-3.403v-3.396H45.02v-3.396h-3.403V68.29h-3.403v-3.396h-3.403v-3.396h3.403v3.396h3.403v3.396h3.403v3.396h3.402v3.396zM27.864 44.376h3.403v-6.793h3.403V23.928h3.402v13.585H34.67v6.792h-3.403V47.7h-3.403v-3.325zm0-30.778h3.403v3.396h3.403v3.396h-3.403v-3.396h-3.403v-3.396z" fill="#00A3A3"/><path fill-rule="evenodd" clip-rule="evenodd" d="M51.825 75.082h3.403v3.396h-3.403v-3.396h-3.402v-3.396H45.02V68.29h-3.403v-3.396h-3.403v-3.396h-3.402V58.1h-3.403v-3.396h3.403V58.1h3.402v3.397h3.403v3.396h3.403v3.396h3.403v3.396h3.402v3.396zm10.28 0v3.396h-3.403v-6.792h-3.403V68.29h-3.403v-3.396h-3.403v-3.396h-3.402V58.1h-3.403v-3.396h-3.403v-6.792h3.403v3.396h3.403v3.396h3.402V58.1h3.403v3.397H55.3v3.396h3.403v3.396h3.403v6.792z" fill="#3600F8"/><path fill-rule="evenodd" clip-rule="evenodd" d="M58.63 75.082v3.396h-3.402v-3.396h-3.403v-3.396h-3.403v-3.467H44.95v-3.396h-3.403v-3.396h-3.403V58.03H34.74v-3.467h-3.473v-3.396h3.473v3.396h6.806v3.467h3.403v3.396h3.473v3.396h3.403v3.396h3.403v3.467h3.403v3.396z" fill="#0FF"/></svg>