<svg width="79" height="82" fill="none" xmlns="http://www.w3.org/2000/svg"><path fill-rule="evenodd" clip-rule="evenodd" d="M15.822 0h2.619v2.622h-2.62v2.622h-2.618v39.552h-2.619V5.244h2.619V2.622h2.619V0z" fill="#666"/><path fill-rule="evenodd" clip-rule="evenodd" d="M18.44 0h44.793v2.622H18.44V0z" fill="#B3B3B3"/><path fill-rule="evenodd" clip-rule="evenodd" d="M63.233 0h2.619v2.622h-2.62v2.622h-47.41v36.93h-2.618V5.244h2.619V2.622h47.41V0z" fill="#fff"/><path fill-rule="evenodd" clip-rule="evenodd" d="M65.852 0h2.673v42.174h-5.292V2.622h2.619V0z" fill="#666"/><path fill-rule="evenodd" clip-rule="evenodd" d="M68.525 0h2.619v42.174h-2.62v2.622h-2.673v2.677H10.584v-2.677h55.267v-2.622h2.674V0z" fill="#000"/><path fill-rule="evenodd" clip-rule="evenodd" d="M57.94 7.921h2.674v31.63H18.441v-2.676H57.94V7.92z" fill="#fff"/><path fill-rule="evenodd" clip-rule="evenodd" d="M18.44 10.543h36.882v2.623H21.114v21.087h-2.673v-23.71z" fill="#000"/><path fill-rule="evenodd" clip-rule="evenodd" d="M39.555 13.166h15.713v20.978H21.113V13.166h18.441zm0 18.465h2.618v-2.623h-2.618v-7.866h-5.238v2.622h2.619v5.244h-2.619v2.623h5.238zm0-13.166v-2.677h-2.62v2.622h2.62v.055z" fill="#0FF"/><path fill-rule="evenodd" clip-rule="evenodd" d="M39.554 29.008h2.62v2.622h-7.858v-2.622h2.62v-5.244h-2.62v-2.622h5.239v7.866zm-2.673-13.22H39.5v2.622h-2.62v-2.622z" fill="#000"/><path fill-rule="evenodd" clip-rule="evenodd" d="M18.44 34.252h36.882V10.543H18.44V7.921h39.5v28.954h-39.5v-2.623z" fill="#666"/><path fill-rule="evenodd" clip-rule="evenodd" d="M18.44 42.174h-2.618V5.299H62.96V42.01H18.44v.164zm0-34.253v31.467h41.901V7.92h-41.9z" fill="#B3B3B3"/><path fill-rule="evenodd" clip-rule="evenodd" d="M13.203 42.174h52.649v2.622H13.203v-2.622z" fill="#666"/><path d="M76.381 42.174h-2.618v2.622h2.618v-2.622z" fill="#B3B3B3"/><path fill-rule="evenodd" clip-rule="evenodd" d="M76.381 42.174H79v23.599h-2.619v2.623h-2.618v2.622h-2.62v2.622h-2.618v2.622h-2.619v2.623h-2.619v2.622H.055v-2.623h62.85v-2.458h2.62v-2.622h2.618V68.56h5.238v-2.623h2.618V42.174h.382zM34.263 58.016H63.07v2.622H34.316v-2.622h-.054z" fill="#000"/><path d="M73.762 44.796h-2.618v2.622h2.618v-2.622z" fill="#B3B3B3"/><path fill-rule="evenodd" clip-rule="evenodd" d="M68.525 47.473v2.622h2.619v-2.622h-2.62zM34.262 55.34H63.07v2.622H34.316l-.054-2.623zm42.12-5.245v15.733h-2.62v2.623h-5.237v5.244h-2.618v2.622h-2.619v2.622H60.67v-2.513h2.618v-2.622H58.05v-2.622h-2.618v2.622h-5.238v-2.622h-2.618v2.622h-5.239v-2.622h-2.782v2.622h-5.238v-2.622h-2.619v2.622h-5.237v-2.622h-2.728v2.622h-5.238v-2.622h-2.619v2.622h-5.237v-2.622H7.912v2.622h-2.62v-2.622H2.673v2.622H.055v-2.622h2.618V68.56h2.62V50.204H7.91v-2.731h57.614V44.85h2.618v-2.623h2.619v-2.622h5.237v2.622H73.38v2.623h2.618v5.244h.382zm-10.53 0H7.91v15.733h5.238v2.623h-2.62v2.622h5.24V68.45h2.62v-2.623h2.618v2.623h-2.619v2.622h5.238V68.45h2.619v-2.623h2.618v2.623h-2.619v2.622h5.237V68.45h2.62v-2.623h2.619v2.623h-2.62v2.622h5.238V68.45h2.62v-2.623h2.618v2.623h-2.619v2.622h5.238V68.45h2.619v-2.623h2.618v2.623h-2.618v2.622h5.237V68.45h2.618v-2.623h2.619v2.623h-2.62v2.622h5.239V68.45h5.237V50.095h-2.291zm7.91-5.299h-2.618v2.622h2.618v-2.622zM5.293 71.182h2.619V68.56h-2.62v2.622z" fill="#666"/><path d="M71.144 47.473h-2.62v2.622h2.62v-2.622z" fill="#B3B3B3"/><path fill-rule="evenodd" clip-rule="evenodd" d="M10.584 52.717h57.613v13.111H10.638V52.717h-.054zm13.149 7.922v-2.623h-5.238v5.245h5.238v-2.623zm10.53-2.623v2.623h18.33v2.622h2.619v-2.623h7.856v-5.244H34.316v2.622h-.054z" fill="#B3B3B3"/><path fill-rule="evenodd" clip-rule="evenodd" d="M10.584 55.34v10.543H7.911V50.095h60.614v2.622H10.584v2.623z" fill="#fff"/><path fill-rule="evenodd" clip-rule="evenodd" d="M21.114 58.016h2.619v2.623H18.44v-2.623h2.673z" fill="#3C3"/><path fill-rule="evenodd" clip-rule="evenodd" d="M21.114 60.638h2.619v2.623H18.44v-2.623h2.673z" fill="#093"/><path d="M55.322 60.638h-2.619v2.623h2.619v-2.623z" fill="#666"/><path d="M15.822 65.883h-2.619v2.622h2.619v-2.622z" fill="#000"/><path d="M18.44 65.883h-2.618v2.622h2.619v-2.622z" fill="#fff"/><path d="M23.733 65.883h-2.619v2.622h2.619v-2.622z" fill="#000"/><path d="M26.351 65.883h-2.618v2.622h2.618v-2.622z" fill="#fff"/><path d="M31.589 65.883H28.97v2.622h2.619v-2.622z" fill="#000"/><path d="M34.263 65.883h-2.62v2.622h2.62v-2.622z" fill="#fff"/><path d="M39.5 65.883h-2.619v2.622h2.62v-2.622z" fill="#000"/><path d="M42.173 65.883h-2.619v2.622h2.62v-2.622z" fill="#fff"/><path d="M47.41 65.883h-2.618v2.622h2.619v-2.622z" fill="#000"/><path d="M50.03 65.883h-2.62v2.622h2.62v-2.622z" fill="#fff"/><path d="M55.322 65.883h-2.619v2.622h2.619v-2.622z" fill="#000"/><path d="M57.94 65.883h-2.618v2.622h2.619v-2.622z" fill="#fff"/><path d="M63.233 65.883h-2.62v2.622h2.62v-2.622z" fill="#000"/><path d="M65.852 65.883h-2.62v2.622h2.62v-2.622z" fill="#fff"/><path d="M68.47 65.883h-2.618v2.622h2.618v-2.622z" fill="#000"/><path fill-rule="evenodd" clip-rule="evenodd" d="M5.292 68.56h2.619v2.622H5.292v2.623h55.322v2.622H0v-2.623h2.673v-2.622h2.62V68.56z" fill="#fff"/><path d="M13.203 68.56h-2.619v2.622h2.619V68.56z" fill="#000"/><path d="M15.822 68.56h-2.619v2.622h2.619V68.56z" fill="#fff"/><path d="M21.06 68.56h-2.62v2.622h2.62V68.56z" fill="#000"/><path d="M23.733 68.56h-2.619v2.622h2.619V68.56z" fill="#fff"/><path d="M28.97 68.56h-2.619v2.622h2.62V68.56z" fill="#000"/><path d="M31.589 68.56H28.97v2.622h2.619V68.56z" fill="#fff"/><path d="M36.881 68.56h-2.618v2.622h2.618V68.56z" fill="#000"/><path d="M39.5 68.56h-2.619v2.622h2.62V68.56z" fill="#fff"/><path d="M44.792 68.56h-2.619v2.622h2.619V68.56z" fill="#000"/><path d="M47.41 68.56h-2.618v2.622h2.619V68.56z" fill="#fff"/><path d="M52.703 68.56h-2.619v2.622h2.619V68.56z" fill="#000"/><path d="M55.322 68.56h-2.619v2.622h2.619V68.56z" fill="#fff"/><path d="M60.56 68.56h-2.62v2.622h2.62V68.56z" fill="#000"/><path d="M63.233 68.56h-2.62v2.622h2.62V68.56z" fill="#fff"/><path d="M10.53 71.182H7.91v2.622h2.62v-2.622zm7.91 0h-2.618v2.622h2.619v-2.622zm7.911 0h-2.618v2.622h2.618v-2.622zm7.912 0h-2.62v2.622h2.62v-2.622zm7.91 0h-2.619v2.622h2.62v-2.622zm7.857 0h-2.62v2.622h2.62v-2.622zm7.91 0h-2.618v2.622h2.619v-2.622z" fill="#000"/><path d="M63.233 73.804h-2.62v2.623h2.62v-2.623z" fill="#B3B3B3"/><path fill-rule="evenodd" clip-rule="evenodd" d="M0 76.427h60.614v2.676H0v-2.676z" fill="#B3B3B3"/></svg>