<svg width="31" height="19" fill="none" xmlns="http://www.w3.org/2000/svg"><path d="M29.805 1.953c.164-.656 0-1.203-.985-1.203h-3.226c-.82 0-1.203.438-1.422.93 0 0-1.64 3.992-3.938 6.617-.765.71-1.093.984-1.53.984-.165 0-.493-.273-.493-.93V1.954c0-.82-.219-1.203-.93-1.203H12.25c-.547 0-.82.383-.82.766 0 .765 1.148.93 1.258 3.117V9.39c0 1.039-.165 1.257-.602 1.257-1.094 0-3.719-4.046-5.305-8.64C6.453 1.133 6.125.75 5.305.75H2.078c-.875 0-1.094.438-1.094.93 0 .875 1.094 5.086 5.086 10.718 2.68 3.829 6.453 5.852 9.844 5.852 2.024 0 2.297-.438 2.297-1.203 0-3.664-.164-4.047.82-4.047.492 0 1.313.273 3.227 2.133 2.187 2.187 2.57 3.117 3.773 3.117h3.227c.93 0 1.367-.438 1.094-1.367-.602-1.86-4.704-5.797-4.922-6.07-.492-.602-.328-.876 0-1.422 0 0 3.937-5.579 4.375-7.438z" fill="#fff"/></svg>