<?xml version="1.0" encoding="utf-8"?><svg viewBox="0 0 32 32" xmlns="http://www.w3.org/2000/svg" xmlns:xlink="http://www.w3.org/1999/xlink"><style>:root>svg{display:none}:root>svg:target{display:block}</style><svg stroke="inherit" fill="none" viewBox="0 0 14 14" id="arrow-slide" xmlns="http://www.w3.org/2000/svg"><path d="M8.75 11.62L4.947 7.817a1.158 1.158 0 010-1.634L8.75 2.38" stroke-width="1.5" stroke-miterlimit="10" stroke-linecap="round" stroke-linejoin="round"/></svg><svg stroke="inherit" fill="none" viewBox="0 0 24 24" id="arrow-square" xmlns="http://www.w3.org/2000/svg"><path d="M12.14 15.07v-1.96c0-2.52 2.04-4.57 4.57-4.57h1.96" stroke-width="1.5" stroke-linecap="round" stroke-linejoin="round"/><path d="M5.62 8.55h1.96c2.52 0 4.57 2.04 4.57 4.57v4.13" stroke-width="1.5" stroke-linecap="round" stroke-linejoin="round"/><path d="M7.14 6.75l-1.8 1.8 1.8 1.8M16.86 6.75l1.8 1.8-1.8 1.8" stroke-width="1.5" stroke-linecap="round" stroke-linejoin="round"/><path d="M9 22h6c5 0 7-2 7-7V9c0-5-2-7-7-7H9C4 2 2 4 2 9v6c0 5 2 7 7 7z" stroke-width="1.5" stroke-linecap="round" stroke-linejoin="round"/></svg><svg stroke="inherit" fill="none" viewBox="0 0 24 24" id="calendar" xmlns="http://www.w3.org/2000/svg"><path d="M8 2v3M16 2v3M3.5 9.09h17M21 8.5V17c0 3-1.5 5-5 5H8c-3.5 0-5-2-5-5V8.5c0-3 1.5-5 5-5h8c3.5 0 5 2 5 5z" stroke-width="1.5" stroke-miterlimit="10" stroke-linecap="round" stroke-linejoin="round"/><path d="M11.995 13.7h.01M8.294 13.7h.01M8.294 16.7h.01" stroke-width="2" stroke-linecap="round" stroke-linejoin="round"/></svg><svg stroke="inherit" fill="none" viewBox="0 0 20 20" id="close" xmlns="http://www.w3.org/2000/svg"><path d="M6.667 6.667l6.666 6.666M6.667 13.333l6.667-6.666" stroke-width="1.5" stroke-linecap="round" stroke-linejoin="round"/></svg><svg stroke="inherit" fill="none" viewBox="0 0 32 32" id="cloud-sunny" xmlns="http://www.w3.org/2000/svg"><path d="M27.027 24.907a7.09 7.09 0 01-4.854 1.866H7.387c-6.227-.453-6.24-9.52 0-9.973h.066c-3.6-10.053 8.707-15.013 13.88-8.76v.013c.934 1.147 1.64 2.667 1.96 4.6a6.529 6.529 0 014.24 2.32c2.334 2.76 2.534 7.267-.506 9.934zM9.68 17.347a5.175 5.175 0 00-2.227-.547M21.133 13.227a5.175 5.175 0 012.227-.547" stroke-width="2" stroke-miterlimit="10" stroke-linecap="round" stroke-linejoin="round"/><path d="M29.293 11.333c0 1.467-.68 2.787-1.76 3.64a6.53 6.53 0 00-4.24-2.32c-.32-1.933-1.026-3.453-1.96-4.6V8.04a4.613 4.613 0 013.294-1.373 4.672 4.672 0 014.666 4.666z" stroke-width="2" stroke-miterlimit="10" stroke-linecap="round" stroke-linejoin="round"/></svg><svg stroke="inherit" fill="none" viewBox="0 0 32 32" id="emoji-happy" xmlns="http://www.w3.org/2000/svg"><path d="M12 29.333h8c6.666 0 9.333-2.666 9.333-9.333v-8c0-6.667-2.667-9.334-9.333-9.334h-8c-6.667 0-9.334 2.667-9.334 9.334v8c0 6.666 2.667 9.333 9.333 9.333z" stroke-width="2" stroke-linecap="round" stroke-linejoin="round"/><path d="M20.666 13a2 2 0 100-4 2 2 0 000 4zM11.333 13a2 2 0 100-4 2 2 0 000 4zM11.2 17.733h9.6c.666 0 1.2.534 1.2 1.2 0 3.32-2.68 6-6 6s-6-2.68-6-6c0-.666.533-1.2 1.2-1.2z" stroke-width="2" stroke-miterlimit="10" stroke-linecap="round" stroke-linejoin="round"/></svg><svg stroke="inherit" fill="none" viewBox="0 0 32 32" id="emoji-medium" xmlns="http://www.w3.org/2000/svg"><path d="M12 29.333h8c6.666 0 9.333-2.666 9.333-9.333v-8c0-6.667-2.667-9.334-9.333-9.334h-8c-6.667 0-9.334 2.667-9.334 9.334v8c0 6.666 2.667 9.333 9.333 9.333z" stroke-width="2" stroke-linecap="round" stroke-linejoin="round"/><path d="M22 20c0 3.32-2.68 2.933-6 2.933S10 23.32 10 20M9.333 12h4.853M17.813 12h4.854" stroke-width="2" stroke-miterlimit="10" stroke-linecap="round" stroke-linejoin="round"/></svg><svg stroke="inherit" fill="none" viewBox="0 0 32 32" id="emoji-normal" xmlns="http://www.w3.org/2000/svg"><path d="M12 29.333h8c6.666 0 9.333-2.666 9.333-9.333v-8c0-6.667-2.667-9.334-9.333-9.334h-8c-6.667 0-9.334 2.667-9.334 9.334v8c0 6.666 2.667 9.333 9.333 9.333z" stroke-width="2" stroke-linecap="round" stroke-linejoin="round"/><path d="M9.333 11c1.333 1.333 3.506 1.333 4.853 0M17.813 11c1.333 1.333 3.507 1.333 4.853 0M11.2 17.333h9.6c.666 0 1.2.533 1.2 1.2 0 3.32-2.68 6-6 6s-6-2.68-6-6c0-.667.533-1.2 1.2-1.2z" stroke-width="2" stroke-miterlimit="10" stroke-linecap="round" stroke-linejoin="round"/></svg><svg stroke="inherit" fill="none" viewBox="0 0 32 32" id="emoji-normal-1" xmlns="http://www.w3.org/2000/svg"><path d="M12 29.333h8c6.666 0 9.333-2.666 9.333-9.333v-8c0-6.667-2.667-9.334-9.333-9.334h-8c-6.667 0-9.334 2.667-9.334 9.334v8c0 6.666 2.667 9.333 9.333 9.333z" stroke-width="2" stroke-linecap="round" stroke-linejoin="round"/><path d="M9.333 11c1.333 1.333 3.506 1.333 4.853 0M17.813 11c1.333 1.333 3.507 1.333 4.853 0M22 18.533c0 3.32-2.68 6-6 6s-6-2.68-6-6" stroke-width="2" stroke-miterlimit="10" stroke-linecap="round" stroke-linejoin="round"/></svg><svg fill="none" stroke="inherit" viewBox="0 0 20 20" id="eye" xmlns="http://www.w3.org/2000/svg"><path d="M12.983 10A2.98 2.98 0 0110 12.983 2.98 2.98 0 017.017 10 2.98 2.98 0 0110 7.017 2.98 2.98 0 0112.983 10z" stroke-width="1.5" stroke-linecap="round" stroke-linejoin="round"/><path d="M10 16.892c2.942 0 5.683-1.734 7.592-4.734.75-1.175.75-3.15 0-4.325-1.909-3-4.65-4.733-7.592-4.733-2.942 0-5.683 1.733-7.592 4.733-.75 1.175-.75 3.15 0 4.325 1.909 3 4.65 4.734 7.592 4.734z" stroke-width="1.5" stroke-linecap="round" stroke-linejoin="round"/></svg><svg fill="none" stroke="inherit" viewBox="0 0 20 20" id="global-edit" xmlns="http://www.w3.org/2000/svg"><path d="M18.333 10c0-4.6-3.733-8.333-8.333-8.333A8.336 8.336 0 001.667 10c0 4.6 3.733 8.333 8.333 8.333" stroke-width="1.5" stroke-linecap="round" stroke-linejoin="round"/><path d="M6.667 2.5H7.5a23.686 23.686 0 000 15h-.833M12.5 2.5a23.796 23.796 0 011.217 7.5" stroke-width="1.5" stroke-linecap="round" stroke-linejoin="round"/><path d="M2.5 13.333V12.5a23.796 23.796 0 007.5 1.217M2.5 7.5a23.686 23.686 0 0115 0" stroke-width="1.5" stroke-linecap="round" stroke-linejoin="round"/><path d="M16.008 13.117l-2.95 2.95a1.027 1.027 0 00-.25.491l-.158 1.125c-.058.409.225.692.633.634l1.125-.159a.991.991 0 00.492-.25l2.95-2.95c.508-.508.75-1.1 0-1.85-.742-.741-1.333-.5-1.842.009zM15.583 13.542c.25.9.95 1.6 1.85 1.85" stroke-width="1.5" stroke-miterlimit="10" stroke-linecap="round" stroke-linejoin="round"/></svg><svg stroke="inherit" fill="none" viewBox="0 0 20 20" id="heart" xmlns="http://www.w3.org/2000/svg"><path d="M10.517 17.342c-.283.1-.75.1-1.033 0-2.417-.825-7.817-4.267-7.817-10.1 0-2.575 2.075-4.659 4.633-4.659 1.517 0 2.859.734 3.7 1.867a4.608 4.608 0 013.7-1.867c2.559 0 4.634 2.084 4.634 4.659 0 5.833-5.4 9.275-7.817 10.1z" stroke-width="1.5" stroke-linecap="round" stroke-linejoin="round"/></svg><svg stroke="inherit" fill="none" viewBox="0 0 20 20" id="heart-slash" xmlns="http://www.w3.org/2000/svg"><path d="M5.092 14.584C3.25 12.858 1.667 10.4 1.667 7.234c0-2.575 2.075-4.659 4.633-4.659 1.517 0 2.858.734 3.7 1.867a4.608 4.608 0 013.7-1.867c.958 0 1.85.292 2.592.8M18.117 5.833c.141.442.216.917.216 1.409 0 5.833-5.4 9.275-7.816 10.108-.284.1-.75.1-1.034 0-.541-.183-1.225-.5-1.966-.942M18.333 1.667L1.667 18.332" stroke-width="1.5" stroke-linecap="round" stroke-linejoin="round"/></svg><svg fill="none" stroke="inherit" viewBox="0 0 20 20" id="like" xmlns="http://www.w3.org/2000/svg"><path d="M6.233 15.292l2.584 2c.333.333 1.083.5 1.583.5h3.167c1 0 2.083-.75 2.333-1.75l2-6.084c.417-1.166-.333-2.166-1.583-2.166h-3.334c-.5 0-.916-.417-.833-1l.417-2.667c.166-.75-.334-1.583-1.084-1.833-.666-.25-1.5.083-1.833.583L6.233 7.958" stroke-width="1.5" stroke-miterlimit="10"/><path d="M1.983 15.292V7.125c0-1.167.5-1.583 1.667-1.583h.833c1.167 0 1.667.416 1.667 1.583v8.167c0 1.166-.5 1.583-1.667 1.583H3.65c-1.167 0-1.667-.417-1.667-1.583z" stroke-width="1.5" stroke-linecap="round" stroke-linejoin="round"/></svg><svg fill="none" stroke="inherit" viewBox="0 0 20 20" id="location" xmlns="http://www.w3.org/2000/svg"><path d="M10 16.25a6.25 6.25 0 100-12.5 6.25 6.25 0 000 12.5z" stroke-width="1.5" stroke-linecap="round" stroke-linejoin="round"/><path d="M10 12.5a2.5 2.5 0 100-5 2.5 2.5 0 000 5zM10 3.333V1.667M3.333 10H1.667M10 16.667v1.666M16.667 10h1.666" stroke-width="1.5" stroke-linecap="round" stroke-linejoin="round"/></svg><svg stroke="inherit" fill="none" viewBox="0 0 20 20" id="map-marker" xmlns="http://www.w3.org/2000/svg"><path d="M10 11.192a2.6 2.6 0 100-5.2 2.6 2.6 0 000 5.2z" stroke-width="1.5"/><path d="M3.017 7.075C4.658-.142 15.35-.133 16.983 7.083c.959 4.234-1.675 7.817-3.983 10.034a4.328 4.328 0 01-6.008 0c-2.3-2.217-4.934-5.809-3.975-10.042z" stroke-width="1.5"/></svg><svg stroke="inherit" fill="none" viewBox="0 0 24 24" id="menu" xmlns="http://www.w3.org/2000/svg"><path d="M3 7h18M3 12h18M3 17h18" stroke-width="1.5" stroke-linecap="round"/></svg><svg fill="none" viewBox="0 0 14 14" id="redo" xmlns="http://www.w3.org/2000/svg"><path d="M9.84 10.68H5.175a2.918 2.918 0 010-5.833h6.417" stroke="#009974" stroke-width="1.5" stroke-miterlimit="10" stroke-linecap="round" stroke-linejoin="round"/><path d="M10.25 6.306l1.492-1.494L10.25 3.32" stroke="#009974" stroke-width="1.5" stroke-linecap="round" stroke-linejoin="round"/></svg><svg stroke="inherit" fill="none" viewBox="0 0 24 24" id="routing" xmlns="http://www.w3.org/2000/svg"><path d="M2.07 4.6c.8-3.46 6.01-3.46 6.8 0 .47 2.03-.82 3.75-1.94 4.82-.82.78-2.11.77-2.93 0C2.89 8.35 1.6 6.63 2.07 4.6zM15.07 16.6c.8-3.46 6.04-3.46 6.84 0 .47 2.03-.82 3.75-1.95 4.82-.82.78-2.12.77-2.94 0-1.13-1.07-2.42-2.79-1.95-4.82z" stroke-width="1.5"/><path d="M12 5h2.68c1.85 0 2.71 2.29 1.32 3.51L8.01 15.5C6.62 16.71 7.48 19 9.32 19H12" stroke-width="1.5" stroke-linecap="round" stroke-linejoin="round"/><path d="M5.486 5.5h.012M18.486 17.5h.012" stroke-width="2" stroke-linecap="round" stroke-linejoin="round"/></svg><svg stroke="inherit" fill="none" viewBox="0 0 24 24" id="shop" xmlns="http://www.w3.org/2000/svg"><path d="M3.01 11.22v4.49C3.01 20.2 4.81 22 9.3 22h5.39c4.49 0 6.29-1.8 6.29-6.29v-4.49" stroke-width="1.5" stroke-linecap="round" stroke-linejoin="round"/><path d="M12 12c1.83 0 3.18-1.49 3-3.32L14.34 2H9.67L9 8.68C8.82 10.51 10.17 12 12 12z" stroke-width="1.5" stroke-linecap="round" stroke-linejoin="round"/><path d="M18.31 12c2.02 0 3.5-1.64 3.3-3.65l-.28-2.75C20.97 3 19.97 2 17.35 2H14.3l.7 7.01c.17 1.65 1.66 2.99 3.31 2.99zM5.64 12c1.65 0 3.14-1.34 3.3-2.99l.22-2.21.48-4.8H6.59C3.97 2 2.97 3 2.61 5.6l-.27 2.75C2.14 10.36 3.62 12 5.64 12zM12 17c-1.67 0-2.5.83-2.5 2.5V22h5v-2.5c0-1.67-.83-2.5-2.5-2.5z" stroke-width="1.5" stroke-linecap="round" stroke-linejoin="round"/></svg><svg stroke="inherit" fill="none" viewBox="0 0 20 20" id="sound" xmlns="http://www.w3.org/2000/svg"><path d="M2.5 6.875v6.25M6.25 4.792v10.416M10 2.708v14.584M13.75 4.792v10.416M17.5 6.875v6.25" stroke-width="1.5" stroke-linecap="round" stroke-linejoin="round"/></svg><svg stroke="inherit" fill="none" viewBox="0 0 20 20" id="user" xmlns="http://www.w3.org/2000/svg"><path d="M10 10a4.167 4.167 0 100-8.333A4.167 4.167 0 0010 10zM17.158 18.333c0-3.225-3.208-5.833-7.158-5.833s-7.158 2.608-7.158 5.833" stroke-width="1.5" stroke-linecap="round" stroke-linejoin="round"/></svg><svg stroke="inherit" fill="none" viewBox="0 0 24 24" id="user-square" xmlns="http://www.w3.org/2000/svg"><path d="M18.14 21.62c-.88.26-1.92.38-3.14.38H9c-1.22 0-2.26-.12-3.14-.38.22-2.6 2.89-4.65 6.14-4.65 3.25 0 5.92 2.05 6.14 4.65z" stroke-width="1.5" stroke-linecap="round" stroke-linejoin="round"/><path d="M15 2H9C4 2 2 4 2 9v6c0 3.78 1.14 5.85 3.86 6.62.22-2.6 2.89-4.65 6.14-4.65 3.25 0 5.92 2.05 6.14 4.65C20.86 20.85 22 18.78 22 15V9c0-5-2-7-7-7zm-3 12.17c-1.98 0-3.58-1.61-3.58-3.59C8.42 8.6 10.02 7 12 7s3.58 1.6 3.58 3.58-1.6 3.59-3.58 3.59z" stroke-width="1.5" stroke-linecap="round" stroke-linejoin="round"/><path d="M15.58 10.58c0 1.98-1.6 3.59-3.58 3.59s-3.58-1.61-3.58-3.59C8.42 8.6 10.02 7 12 7s3.58 1.6 3.58 3.58z" stroke-width="1.5" stroke-linecap="round" stroke-linejoin="round"/></svg><svg stroke="inherit" fill="none" viewBox="0 0 20 20" id="wind" xmlns="http://www.w3.org/2000/svg"><path d="M1.667 12.5h13.75a2.92 2.92 0 012.916 2.917 2.92 2.92 0 01-2.916 2.916 2.92 2.92 0 01-2.917-2.916V15M1.667 10h13.75c1.6 0 2.916-1.308 2.916-2.917a2.93 2.93 0 00-2.916-2.916A2.925 2.925 0 0012.5 7.083V7.5" stroke-width="1.5" stroke-miterlimit="10" stroke-linecap="round" stroke-linejoin="round"/><path d="M1.667 7.5h6.091a2.242 2.242 0 10-2.241-2.242v.317" stroke-width="1.5" stroke-miterlimit="10" stroke-linecap="round" stroke-linejoin="round"/></svg></svg>