<svg width="652" height="525" viewBox="0 0 652 525" fill="none" xmlns="http://www.w3.org/2000/svg">
<g clip-path="url(#clip0)">
<path d="M1.39983 262.8C-3.00017 287.5 2.79983 315.3 21.1998 333.5C43.3998 355.5 77.6998 358.8 108.4 357.4C139.1 356 171 351.5 200.2 362.4C252.4 382 276.3 442.5 320.8 476.3C349.9 498.4 388 508.1 423.4 502.4C555 481.4 622.8 307.4 563.1 210C515 131.3 425.8 47.7999 334.3 44.7999C247 41.8999 105.1 118.7 47.6998 181.6C43.1998 186.5 38.8998 191.6 34.7998 196.8C19.2998 216.2 5.79983 238.1 1.39983 262.8Z" fill="#D5EFE5"/>
<path d="M68.3 296.7C69.4 287.8 76.4 267.5 85.3 280.2C90.6 287.9 87.1 300.1 90.9 309C98.3 301.4 117.5 257.9 134.8 276C145.9 287.6 128.9 319.5 123.5 331.7C127.3 326.9 136.2 321.6 141 327.9C145.4 333.7 137.8 347.6 135.7 353.4C145.1 349.4 151.5 339.4 161.7 346.6C169.7 352.3 169.8 363.5 168.7 372C167.6 381.2 164.4 389.6 164.3 399C164.2 409.7 168.1 418.1 169.5 428.6C158.5 406.4 125.1 412.6 105.3 411.2C94.7 410.5 38.9 407.2 59.9 385.2C63.8 381.1 111.4 376.9 93.3 365.9C85.2 361 68.5 366.3 59.2 365.2C51.9 364.4 37.1 362.2 31.8 357C22.3 347.9 29.3 334.9 39.4 331C48 327.7 59.2 331.2 66.8 326.1C60.4 318.5 47.3 321.3 40.6 314.9C32.2 306.8 40.7 302.3 48.7 300.7C36.9 294.9 28.9 275.5 48.7 274.6C55.8 274.3 61.3 278.2 65.1 283.8C67.7 287.6 71.5 296.2 68.5 296.4C69.2 296 70.3 295.2 70.5 294.1" fill="#009688"/>
<path d="M562.8 419H299.8V424H562.8V419Z" fill="url(#paint0_linear)"/>
<path d="M376.1 268.8H327.3V419H376.1V268.8Z" fill="url(#paint1_linear)"/>
<path d="M456.4 223.7H407.6V419H456.4V223.7Z" fill="url(#paint2_linear)"/>
<path d="M536.7 178.6H487.9V418.9H536.7V178.6Z" fill="url(#paint3_linear)"/>
<path d="M580.6 307C581.1 318.2 579.8 329.5 576.8 340.4C575.9 343.8 574.8 347.1 573.6 350.3C569.1 362.4 562.4 373.7 553.9 383.5C552.8 384.8 551.6 386.1 550.4 387.3C546.7 391.1 542.8 394.6 538.5 397.8C534.8 406.4 531.3 413.6 527.1 420.5C526.3 422 525.4 423.4 524.5 424.8C520.9 430.5 516.9 436.1 512 442.1L511.9 442.2C508.9 442.9 505.9 443.4 502.9 443.5C491.3 444 479.8 440.1 469.3 433.9C467.5 432.8 465.6 431.7 463.8 430.5C463 430 462.2 429.4 461.4 428.9C460.6 428.4 459.9 427.8 459.2 427.3C458.7 426.9 458.1 426.5 457.6 426.1C451.6 421.4 446 416.1 440.9 410.7C430.3 399.4 420.5 386.9 415.4 372.3C410.3 357.6 410.5 340.5 419.1 327.6C430.7 310 455.4 302.4 462.2 282.4C469.1 262 453.4 240.6 454.7 219.1C456 198.1 472.9 181.8 489.2 168.6C505.6 155.4 523.6 141.5 529 121.2C531.2 112.9 531.1 104.2 533.3 96C535.5 87.8 541 79.5 549.4 77.8C560.3 75.7 569.8 85.5 574.7 95.5C583.7 114 584.6 136.2 577 155.3C570.9 170.7 559.7 184 556.1 200.2C549.6 229.5 569.8 257.4 577.4 286.4C579.2 293.2 580.2 300.1 580.6 307Z" fill="#AAD6C9"/>
<path opacity="0.1" d="M504.3 222.5C502.5 235.7 506.6 248.9 511 262.8C513.2 269.8 515.4 277 516.9 284.2C518 289.8 518.6 295.4 518.7 301C528.3 289.4 536.5 276.7 543.1 263.2C543.8 261.8 545.4 261.2 546.8 261.9C548.2 262.6 548.8 264.2 548.1 265.6C540.4 281.4 530.6 296.2 518.9 309.3C518.8 309.4 518.7 309.5 518.6 309.6C518.4 312.3 518.2 315 517.8 317.7C516.3 328.3 513 338.6 508.2 348.1C504 356.5 498.5 364.2 493.3 371.7C487.8 379.5 482.2 387.5 478.1 396.1C475.6 401.2 473.7 406.6 472.3 412.2C471.6 414.8 471.1 417.5 470.6 420.2C469.9 424.8 469.5 429.4 469.5 434C469.5 436.8 469.6 439.5 469.9 442.3C468 441.9 466.1 441.5 464.2 440.9C464 437.5 463.9 434 464.1 430.5C464.1 429.1 464.2 427.7 464.4 426.3C464.6 423.8 464.9 421.3 465.3 418.8C466.7 410.1 469.4 401.6 473.2 393.7C474.1 391.9 475 390.1 476 388.3C474.3 386.2 472.8 384.1 471.3 381.9C464.7 372.2 460 361.2 457.4 349.8C457.1 348.3 458 346.8 459.5 346.5C461 346.2 462.5 347.1 462.8 348.6C464.9 358.1 468.6 367.2 473.7 375.5C475.3 378.2 477.1 380.8 479 383.3C482.1 378.3 485.5 373.4 488.8 368.7C493.9 361.4 499.3 353.8 503.3 345.8C503.5 345.4 503.7 345 503.9 344.6C501.5 341.8 499.2 338.9 497.1 335.8C488.7 324 482.2 310.8 478.1 296.9C477.7 295.4 478.5 293.9 480 293.5C481.5 293.1 483 293.9 483.4 295.4C487.2 308.3 493.2 320.6 501 331.7C502.7 334.2 504.6 336.6 506.5 339C508.7 333.6 510.4 328.1 511.6 322.4C514.1 310.2 514.2 297.6 511.7 285.4C510.3 278.5 508.2 271.5 506 264.8C489.1 253.4 476.4 236.4 470.1 216.9C469.6 215.4 470.4 213.9 471.9 213.4C473.4 213 474.9 213.8 475.4 215.2C480.5 231.2 490.3 245.3 503.3 255.8C499.6 243.3 497 230.5 499.9 217.6C503.3 202.3 513.9 190.3 524.1 178.7C525.2 177.4 526.4 176.1 527.6 174.8L525.5 147.5C525.4 146 526.5 144.6 528 144.5C529.5 144.4 530.9 145.5 531 147L532.7 168.6C544.4 153.7 549.1 140.7 546.9 129C546.6 127.5 547.6 126.1 549.1 125.8C550.6 125.5 552.1 126.5 552.3 128C555 142.7 548.6 158.7 532.9 177C531.3 178.8 529.7 180.6 528.2 182.4C519.2 192.6 509.9 203.1 506.1 215.7L544.9 196.3C546.3 195.6 547.9 196.2 548.6 197.5C549.3 198.9 548.7 200.5 547.4 201.2L504.3 222.5Z" fill="url(#paint4_linear)"/>
<path d="M652 299.4C635.5 339.8 615.2 380.8 581.6 408.7C562.2 424.8 537.4 437.4 512 442.2C509 442.8 505.9 443.3 502.8 443.6C491.6 444.9 480.4 444.6 469.5 442.3C467.6 441.9 465.7 441.5 463.8 440.9C461.5 440.3 459.2 439.5 456.9 438.7C457.3 436.5 457.8 434.3 458.2 432.1C458.5 430.5 458.8 428.9 459.2 427.3C459.4 426.1 459.7 424.9 459.9 423.7C462.8 409.5 466.2 395.5 470.9 381.9C471.7 379.7 472.5 377.6 473.3 375.4C475.6 369.5 478.2 363.8 481.2 358.2C485.5 350.2 490.7 342.6 496.8 335.7C498.1 334.3 499.3 332.9 500.6 331.5C503.9 328.1 507.4 325 511.2 322.2C513.3 320.6 515.4 319.1 517.6 317.7C525.9 312.4 534.9 308.6 544.7 306.8C556.5 304.7 568.5 305.5 580.5 306.9C586.8 307.6 593 308.4 599.2 309C617.5 310.9 637.2 310.2 652 299.4Z" fill="white"/>
<path opacity="0.1" d="M616.3 328.3C602.7 333.5 589.3 339.4 576.4 345.9L614.9 350.2C616.2 350.3 617.1 351.5 617 352.8C616.9 354.1 615.7 355 614.4 354.9L573.7 350.3L569.6 349.9C569.4 349.9 569.2 349.8 569 349.7C554.9 357.1 541.3 365.2 528.2 374.1C536.6 377.6 545.3 380.7 554 383.5C561.8 386 569.7 388.2 577.6 390C578.9 390.3 579.7 391.6 579.4 392.9C579.1 394.2 577.8 395 576.5 394.7C567.7 392.6 559 390.2 550.4 387.4C541.2 384.5 532.2 381.1 523.4 377.3C515.8 382.5 508.5 387.9 501.3 393.6C501 393.9 500.7 394.2 500.4 394.3C494.8 398.8 489.3 403.3 483.9 408C497.9 413.7 512.4 417.9 527.3 420.6C527.7 420.7 528.2 420.8 528.6 420.9C529.9 421.1 530.7 422.4 530.5 423.6C530.3 424.9 529 425.7 527.8 425.5C526.7 425.3 525.7 425.1 524.6 424.9C509.3 422 494.3 417.5 479.9 411.5C476.7 414.4 473.5 417.3 470.4 420.3C468.3 422.3 466.2 424.3 464.1 426.4C463.2 427.2 462.4 428.1 461.5 429C460.4 430 459.4 431.1 458.3 432.2C458.6 430.6 458.9 429 459.3 427.4C458.8 427 458.2 426.6 457.7 426.2C458.5 425.4 459.3 424.6 460.1 423.8C461.8 422.1 463.4 420.5 465.1 418.9C467.4 416.6 469.8 414.4 472.2 412.3C474 410.6 475.8 408.9 477.7 407.3C477.9 407.1 478.1 406.9 478.3 406.7C484.5 401.2 490.9 395.8 497.4 390.7C500.4 372.6 506.9 354.8 516.4 339.1C517.1 338 518.5 337.7 519.7 338.3C520.8 339 521.2 340.4 520.5 341.6C512.2 355.3 506.2 370.7 503.1 386.4C516 376.5 529.4 367.4 543.2 359C543.2 358.9 543.3 358.8 543.3 358.6C550.9 343.9 559.8 329.8 569.9 316.6C570.7 315.6 572.2 315.4 573.2 316.2C574.2 317 574.4 318.5 573.6 319.5C565.2 330.5 557.6 342.2 550.9 354.3C559.4 349.4 568.1 344.7 576.9 340.4C589.2 334.3 601.8 328.8 614.7 323.9C615.9 323.4 617.3 324 617.7 325.3C618.2 326.5 617.5 327.9 616.3 328.3Z" fill="url(#paint5_linear)"/>
<path d="M532.6 249.4H336.9C330.8 249.4 325.9 244.5 325.9 238.4V127.5C325.9 121.4 330.8 116.5 336.9 116.5H532.6C538.7 116.5 543.6 121.4 543.6 127.5V238.4C543.6 244.5 538.7 249.4 532.6 249.4Z" fill="url(#paint6_linear)"/>
<path d="M529.1 249.4H333.4C327.3 249.4 322.4 244.5 322.4 238.4V127.5C322.4 121.4 327.3 116.5 333.4 116.5H529.1C535.2 116.5 540.1 121.4 540.1 127.5V238.4C540.1 244.5 535.2 249.4 529.1 249.4Z" fill="url(#paint7_linear)"/>
<path d="M381.8 198.5H349.5C347.8 198.5 346.5 197.1 346.5 195.5V176C346.5 174.3 347.9 173 349.5 173H381.8C383.5 173 384.8 174.4 384.8 176V195.4C384.8 197.1 383.5 198.5 381.8 198.5Z" fill="#FFDC8C"/>
<path opacity="0.5" d="M358 173H356.2V198.5H358V173Z" fill="white"/>
<path opacity="0.5" d="M376 173H374.2V198.5H376V173Z" fill="white"/>
<path opacity="0.5" d="M384.8 191.5H346.4V193.3H384.8V191.5Z" fill="white"/>
<path opacity="0.5" d="M384.8 179.8H346.4V181.6H384.8V179.8Z" fill="white"/>
<path d="M352.1 141.1H356.9C358.7 141.1 360.1 141.5 360.9 142.3C361.7 143 362 144 362 145.3C362 146.1 361.8 146.8 361.5 147.3C361.2 147.8 360.7 148.2 360.2 148.5C361.1 148.6 361.8 149 362.4 149.6C363.1 150.3 363.4 151.2 363.4 152.4C363.4 153.7 363 154.8 362.2 155.6C361.3 156.5 359.9 156.9 358 156.9H352.1V141.1ZM355.7 143.9V147.5H356.3C357.1 147.5 357.7 147.4 358.1 147.1C358.5 146.8 358.7 146.3 358.7 145.7C358.7 145.1 358.5 144.7 358.1 144.4C357.8 144.1 357.1 144 356.2 144H355.7V143.9ZM355.7 150.1V153.9H356.6C357.9 153.9 358.8 153.7 359.3 153.3C359.6 153 359.8 152.5 359.8 152C359.8 151.4 359.6 151 359.3 150.7C358.9 150.3 358 150.1 356.7 150.1H355.7Z" fill="#00695C"/>
<path d="M376.5 156.8L375.3 153.8H369.4L368.2 156.8H364.4L370.8 141.1H374.1L380.3 156.8H376.5ZM370.5 151H374.4L372.5 145.7L370.5 151Z" fill="#00695C"/>
<path d="M385.7 156.8H382.1V141.1H385.3L393.8 151.2V141.1H397.4V156.8H394.2L385.7 146.6V156.8Z" fill="#00695C"/>
<path d="M404.5 141.1V147.7L409.9 141.1H414.3L407.9 148.6L414.8 156.9H410.1L404.5 149.9V156.9H400.9V141.2H404.5V141.1Z" fill="#00695C"/>
<path d="M498.2 148.9C498.2 156.4 492.1 162.5 484.6 162.5C477.1 162.5 471 156.4 471 148.9C471 141.4 477.1 135.3 484.6 135.3C492.1 135.3 498.2 141.4 498.2 148.9Z" fill="#00695C"/>
<path d="M511.7 148.9C511.7 156.4 505.6 162.5 498.1 162.5C490.6 162.5 484.5 156.4 484.5 148.9C484.5 141.4 490.6 135.3 498.1 135.3C505.7 135.3 511.7 141.4 511.7 148.9Z" fill="#BAE5D7"/>
<path d="M359.3 224.1V213.6H357.5V211.5H361.8V224.1H359.3Z" fill="white"/>
<path d="M363.9 224.1L367.6 219.9C368.8 218.5 369.5 217.6 369.8 217.3C370.3 216.6 370.5 215.9 370.5 215.3C370.5 214.7 370.3 214.3 370 213.9C369.6 213.5 369.2 213.4 368.7 213.4C368.1 213.4 367.6 213.6 367.3 214C366.9 214.4 366.8 214.9 366.7 215.5H364.2C364.3 214.2 364.7 213.2 365.5 212.4C366.3 211.6 367.4 211.2 368.6 211.2C370 211.2 371.1 211.6 371.9 212.4C372.7 213.2 373.1 214.1 373.1 215.2C373.1 215.8 373 216.4 372.7 217C372.4 217.6 372.2 218.1 371.9 218.4C371.6 218.7 371.3 219.1 370.8 219.6L368.6 222H373.1V224.1H363.9Z" fill="white"/>
<path d="M377.3 214.8H375C375.1 213.7 375.5 212.8 376.3 212.2C377.1 211.6 378 211.3 379.1 211.3C380.3 211.3 381.3 211.6 382 212.2C382.7 212.8 383.1 213.7 383.1 214.7C383.1 215.9 382.6 216.8 381.6 217.3C382.9 217.8 383.5 218.8 383.5 220.3C383.5 221.6 383.1 222.5 382.2 223.3C381.4 224 380.3 224.4 379 224.4C377.8 224.4 376.7 224 375.9 223.3C375.1 222.6 374.6 221.6 374.5 220.5H377C377.1 221 377.3 221.5 377.7 221.8C378.1 222.1 378.5 222.3 379.1 222.3C379.8 222.3 380.3 222.1 380.6 221.7C380.9 221.3 381.1 220.8 381.1 220.3C381.1 219.8 380.9 219.3 380.6 218.9C380.3 218.5 379.7 218.3 379 218.3H378.7V216.5H379C379.6 216.5 380 216.3 380.3 216C380.6 215.7 380.7 215.3 380.7 214.8C380.7 214.3 380.5 213.9 380.2 213.6C379.9 213.3 379.5 213.1 379 213.1C378.5 213.1 378.1 213.2 377.8 213.5C377.5 213.9 377.3 214.3 377.3 214.8Z" fill="white"/>
<path d="M402.4 211.5V219.7H403.9V221.7H402.4V224.1H400.1V221.7H394V220.6L400.3 211.5H402.4ZM396.9 219.8H400.1V215L396.9 219.8Z" fill="white"/>
<path d="M413.6 211.5V213.6H409.4L408.9 215.6C409.2 215.6 409.5 215.5 409.8 215.5C411.1 215.5 412.2 215.9 413 216.8C413.7 217.6 414.1 218.6 414.1 219.8C414.1 221.1 413.7 222.2 412.8 223.1C411.9 224 410.8 224.4 409.3 224.4C408.2 224.4 407.3 224.2 406.6 223.9C406.1 223.6 405.5 223.3 405.1 222.8L405.9 220.7C406.3 221.2 406.7 221.6 407.2 221.8C407.8 222.1 408.4 222.3 409 222.3C409.8 222.3 410.4 222 410.9 221.5C411.3 221 411.6 220.4 411.6 219.7C411.6 219 411.4 218.4 410.9 218C410.4 217.6 409.8 217.4 408.9 217.4C408 217.4 407.1 217.7 406.2 218.2L407.7 211.6H413.6V211.5Z" fill="white"/>
<path d="M421.3 211.2L423.3 212.2L420.2 216.2C420.7 216 421.1 215.9 421.6 215.9C422.7 215.9 423.6 216.3 424.4 217C425.2 217.7 425.6 218.8 425.6 220C425.6 221.2 425.2 222.2 424.4 223C423.5 224 422.3 224.4 420.8 224.4C419.3 224.4 418.1 224 417.2 223.1C416.4 222.3 416 221.3 416 220C416 218.8 416.5 217.5 417.6 216.1L421.3 211.2ZM420.8 222.5C421.5 222.5 422 222.3 422.4 221.9C422.9 221.4 423.1 220.9 423.1 220.2C423.1 219.5 422.9 218.9 422.4 218.5C422 218.1 421.4 217.9 420.8 217.9C420.1 217.9 419.6 218.1 419.2 218.6C418.7 219.1 418.5 219.6 418.5 220.2C418.5 220.9 418.7 221.5 419.2 221.9C419.6 222.2 420.2 222.5 420.8 222.5Z" fill="white"/>
<path d="M435.9 223.6L441.7 213.7H435.8V211.6H445.5L437.9 224.6L435.9 223.6Z" fill="white"/>
<path d="M452.6 217.6C453.3 217.8 453.8 218.2 454.2 218.8C454.6 219.4 454.8 220 454.8 220.7C454.8 221.8 454.4 222.7 453.6 223.4C452.8 224.1 451.7 224.5 450.4 224.5C449.1 224.5 448 224.1 447.2 223.4C446.4 222.7 446 221.8 446 220.7C446 220 446.2 219.3 446.6 218.8C447 218.2 447.5 217.8 448.2 217.6C447.7 217.3 447.2 217 446.9 216.5C446.6 216 446.4 215.5 446.4 214.8C446.4 213.8 446.7 213 447.4 212.3C448.1 211.6 449.1 211.3 450.3 211.3C451.5 211.3 452.5 211.6 453.2 212.3C453.9 213 454.2 213.8 454.2 214.8C454.2 215.5 454 216 453.7 216.5C453.5 216.9 453.1 217.3 452.6 217.6ZM449 221.9C449.4 222.3 449.8 222.5 450.4 222.5C451 222.5 451.4 222.3 451.8 221.9C452.2 221.5 452.3 221.1 452.3 220.5C452.3 219.9 452.1 219.5 451.8 219.1C451.4 218.7 451 218.5 450.4 218.5C449.8 218.5 449.4 218.7 449 219.1C448.6 219.5 448.5 219.9 448.5 220.5C448.5 221.1 448.7 221.6 449 221.9ZM449.2 216.1C449.5 216.4 449.9 216.6 450.5 216.6C451 216.6 451.4 216.4 451.8 216.1C452.1 215.8 452.3 215.4 452.3 214.8C452.3 214.2 452.1 213.9 451.8 213.5C451.5 213.2 451.1 213 450.5 213C450 213 449.6 213.2 449.2 213.5C448.9 213.8 448.7 214.2 448.7 214.8C448.7 215.4 448.8 215.7 449.2 216.1Z" fill="white"/>
<path d="M460.7 224.5L458.7 223.5L461.7 219.6C461.2 219.8 460.8 219.8 460.4 219.8C459.9 219.8 459.4 219.7 458.9 219.5C458.4 219.3 458 219 457.6 218.7C456.8 218 456.4 216.9 456.4 215.7C456.4 214.5 456.8 213.5 457.6 212.7C458.5 211.7 459.7 211.3 461.2 211.3C462.7 211.3 463.9 211.7 464.8 212.6C465.6 213.4 466 214.4 466 215.7C466 216.9 465.5 218.2 464.4 219.6L460.7 224.5ZM461.2 213.2C460.5 213.2 460 213.4 459.6 213.8C459.1 214.3 458.9 214.8 458.9 215.5C458.9 216.2 459.1 216.8 459.6 217.2C460 217.6 460.6 217.8 461.2 217.8C461.9 217.8 462.4 217.6 462.8 217.1C463.3 216.6 463.5 216.1 463.5 215.5C463.5 214.8 463.3 214.2 462.8 213.8C462.4 213.4 461.8 213.2 461.2 213.2Z" fill="white"/>
<path d="M484.1 222.7C483.1 223.9 482 224.4 480.7 224.4C479.4 224.4 478.2 223.8 477.3 222.7C476.4 221.5 475.9 219.9 475.9 217.9C475.9 215.8 476.4 214.2 477.3 213.1C478.3 211.9 479.4 211.4 480.7 211.4C482 211.4 483.2 212 484.1 213.1C485 214.3 485.5 215.9 485.5 217.9C485.5 219.9 485.1 221.5 484.1 222.7ZM482.3 214.5C481.8 213.8 481.2 213.4 480.6 213.4C480 213.4 479.4 213.8 478.9 214.5C478.4 215.2 478.2 216.4 478.2 217.9C478.2 219.4 478.4 220.5 478.9 221.3C479.4 222 480 222.4 480.6 222.4C481.2 222.4 481.8 222 482.3 221.3C482.8 220.6 483 219.4 483 217.9C483 216.4 482.8 215.2 482.3 214.5Z" fill="white"/>
<path d="M494.8 222.7C493.8 223.9 492.7 224.4 491.4 224.4C490.1 224.4 488.9 223.8 488 222.7C487.1 221.5 486.6 219.9 486.6 217.9C486.6 215.8 487.1 214.2 488 213.1C489 211.9 490.1 211.4 491.4 211.4C492.7 211.4 493.9 212 494.8 213.1C495.7 214.3 496.2 215.9 496.2 217.9C496.3 219.9 495.8 221.5 494.8 222.7ZM493.1 214.5C492.6 213.8 492 213.4 491.4 213.4C490.8 213.4 490.2 213.8 489.7 214.5C489.2 215.2 489 216.4 489 217.9C489 219.4 489.2 220.5 489.7 221.3C490.2 222 490.8 222.4 491.4 222.4C492 222.4 492.6 222 493.1 221.3C493.6 220.6 493.8 219.4 493.8 217.9C493.8 216.4 493.6 215.2 493.1 214.5Z" fill="white"/>
<path d="M505.6 222.7C504.6 223.9 503.5 224.4 502.2 224.4C500.9 224.4 499.7 223.8 498.8 222.7C497.9 221.5 497.4 219.9 497.4 217.9C497.4 215.8 497.9 214.2 498.8 213.1C499.8 211.9 500.9 211.4 502.2 211.4C503.5 211.4 504.7 212 505.6 213.1C506.5 214.3 507 215.9 507 217.9C507 219.9 506.5 221.5 505.6 222.7ZM503.8 214.5C503.3 213.8 502.7 213.4 502.1 213.4C501.5 213.4 500.9 213.8 500.4 214.5C499.9 215.2 499.7 216.4 499.7 217.9C499.7 219.4 499.9 220.5 500.4 221.3C500.9 222 501.5 222.4 502.1 222.4C502.7 222.4 503.3 222 503.8 221.3C504.3 220.6 504.5 219.4 504.5 217.9C504.5 216.4 504.3 215.2 503.8 214.5Z" fill="white"/>
<path d="M506.2 179.5H398.8C397.5 179.5 396.5 178.5 396.5 177.2C396.5 175.9 397.5 174.9 398.8 174.9H506.2C507.5 174.9 508.5 175.9 508.5 177.2C508.5 178.5 507.4 179.5 506.2 179.5Z" fill="#00695C"/>
<path d="M450.2 190.3H398.8C397.5 190.3 396.5 189.3 396.5 188C396.5 186.7 397.5 185.7 398.8 185.7H450.2C451.5 185.7 452.5 186.7 452.5 188C452.5 189.3 451.4 190.3 450.2 190.3Z" fill="#BAE5D7"/>
<path d="M337.3 423H183.3C178 423 173.7 418.7 173.7 413.4V68.6C173.7 63.3 178 59 183.3 59H337.3C342.6 59 346.9 63.3 346.9 68.6V413.4C346.9 418.7 342.6 423 337.3 423Z" fill="url(#paint8_linear)"/>
<path d="M333.7 408.2H187.3C182 408.2 177.7 403.9 177.7 398.6V88.6C177.7 83.3 182 79 187.3 79H333.7C339 79 343.3 83.3 343.3 88.6V398.6C343.3 403.9 339 408.2 333.7 408.2Z" fill="url(#paint9_linear)"/>
<g opacity="0.42">
<g opacity="0.42">
<path opacity="0.41" d="M196.8 409.4H324.4C334.9 409.4 343.4 399.6 343.4 387.5V268.2C327.9 246 306.6 229.8 285.4 260.2C245.1 318.1 233.7 226.1 210.8 281.8C193.5 324 193.5 371.9 177.6 379.5V387.5C177.7 399.6 186.3 409.4 196.8 409.4Z" fill="white"/>
<path opacity="0.44" d="M324.4 409.4C334.9 409.4 343.4 399.6 343.4 387.5V303.7C335.3 303.6 326.8 308.2 318.3 320.4C278 378.3 266.6 286.3 243.7 342C234.1 365.3 229.9 390.4 225.3 409.4H324.4Z" fill="white"/>
</g>
</g>
<path d="M324.4 79.1001H196.8C186.3 79.1001 177.8 88.9001 177.8 101V220.3C193.3 242.5 214.6 258.7 235.8 228.3C276.1 170.4 287.5 262.4 310.4 206.7C327.7 164.5 327.7 116.6 343.6 109V101C343.5 88.9001 334.9 79.1001 324.4 79.1001Z" fill="url(#paint10_linear)"/>
<path d="M196.8 79.1001C186.3 79.1001 177.8 88.9001 177.8 101V184.8C185.9 184.9 194.4 180.3 202.9 168.1C243.2 110.2 254.6 202.2 277.5 146.5C287.1 123.2 291.3 98.1001 295.9 79.1001H196.8Z" fill="#BAE5D7"/>
<path d="M197 283C197 273.9 204.4 266.6 213.4 266.6H305.299C314.399 266.6 321.7 274 321.7 283C321.7 292.1 314.299 299.4 305.299 299.4H213.4C204.4 299.4 197 292.1 197 283Z" fill="url(#paint11_linear)"/>
<path d="M197 293.7V281.5H321.799V293.7C321.799 297.1 319 299.9 315.6 299.9H203.2C199.8 299.9 197 297.2 197 293.7Z" fill="url(#paint12_linear)"/>
<path d="M317.6 252.3C317.6 259.2 316.3 265.8 314 271.9C312.7 275.3 311.1 278.6 309.2 281.6H300.8C301.3 281 301.7 280.4 302.1 279.8C305.1 275.5 307.3 270.7 308.7 265.5C309.9 261.3 310.6 256.9 310.6 252.3C310.6 225.4 288.8 203.6 261.9 203.6C260.6 203.6 259.4 203.7 258.1 203.8C252.7 204.2 247.5 205.5 242.8 207.5C234.1 211.2 226.8 217.3 221.6 225C218.7 229.3 216.5 234.2 215 239.4C213.9 243.5 213.2 247.8 213.2 252.3C213.2 263.3 216.9 273.5 223 281.6H214.6C209.3 273.1 206.2 263 206.2 252.3C206.2 245.5 207.4 239 209.7 233C211.5 228.1 213.9 223.6 217 219.5C222.5 212 229.8 206 238.2 202C242.8 199.8 247.7 198.3 252.8 197.4C255.8 196.9 258.8 196.6 261.9 196.6C292.7 196.6 317.6 221.5 317.6 252.3Z" fill="url(#paint13_linear)"/>
<path d="M306.7 251.9C306.7 255.5 306.2 259 305.4 262.3C304.2 267.4 302.1 272.3 299.3 276.5C298.1 278.3 296.8 280 295.4 281.5H228.6C221.6 273.6 217.2 263.2 217.2 251.8C217.2 250.4 217.3 249.1 217.4 247.7C217.4 247.4 217.5 247 217.5 246.7C217.7 245.4 217.8 244.1 218.1 242.8V242.7C218.1 242.5 218.2 242.4 218.2 242.2C218.2 242 218.3 241.9 218.3 241.7C218.4 241.3 218.5 240.9 218.6 240.5C218.7 240 218.8 239.5 219 239C219.1 238.7 219.2 238.3 219.3 238C219.7 236.8 220.1 235.6 220.6 234.4C220.6 234.3 220.7 234.2 220.7 234.1C221.2 233 221.7 232 222.2 230.9C222.4 230.6 222.6 230.3 222.7 229.9C223.2 229 223.7 228.1 224.3 227.3C224.4 227.2 224.5 227 224.6 226.8C224.7 226.6 224.8 226.5 225 226.3C225.6 225.4 226.3 224.6 226.9 223.8C227.2 223.5 227.4 223.2 227.7 222.9C228.4 222 229.2 221.2 230 220.4C230.2 220.2 230.4 220 230.7 219.8C231.4 219.1 232.1 218.5 232.9 217.8C233.2 217.5 233.6 217.2 233.9 217C234.8 216.3 235.7 215.6 236.6 215C236.9 214.8 237.2 214.6 237.5 214.4C237.8 214.2 238 214 238.3 213.9C238.5 213.8 238.7 213.6 239 213.5C240.9 212.3 242.9 211.3 245 210.5C249.7 208.6 254.8 207.5 260.2 207.3C260.8 207.3 261.3 207.2 261.9 207.2C286.7 207.2 306.7 227.2 306.7 251.9Z" fill="url(#paint14_linear)"/>
<path d="M316 251.9C316 258.6 314.8 265 312.6 270.9C311.2 274.7 309.3 278.3 307.1 281.6H298.7C299.5 280.6 300.3 279.6 301 278.6C303.9 274.4 306 269.7 307.4 264.7C308.6 260.6 309.2 256.3 309.2 251.9C309.2 225.8 288.1 204.7 262 204.7C260.7 204.7 259.5 204.8 258.3 204.9C253.1 205.3 248.1 206.6 243.5 208.5C235.1 212.1 228 218 222.9 225.5C220.1 229.7 217.9 234.4 216.6 239.4C215.5 243.4 214.9 247.6 214.9 251.9C214.9 263.2 218.8 273.5 225.4 281.6H217C211.4 273.1 208.1 262.9 208.1 251.9C208.1 245.3 209.3 239 211.5 233.1C213.2 228.4 215.6 224 218.6 220C223.9 212.7 231 206.9 239.2 203C243.6 200.9 248.4 199.4 253.4 198.6C256.3 198.1 259.2 197.9 262.2 197.9C291.8 197.9 316 222.1 316 251.9Z" fill="#FA870A"/>
<path d="M309.2 251.9C309.2 256.3 308.6 260.6 307.4 264.7C306 269.7 303.8 274.4 301 278.6C300.3 279.6 299.5 280.7 298.7 281.6H295.4C296.8 280 298.2 278.3 299.3 276.6C302.1 272.3 304.2 267.5 305.4 262.4C306.2 259 306.7 255.6 306.7 252C306.7 227.3 286.7 207.3 261.9 207.3C261.3 207.3 260.7 207.4 260.2 207.4C254.8 207.6 249.7 208.7 245 210.6C242.9 211.4 240.9 212.5 239 213.6L239.1 213.5C238.8 213.7 238.6 213.8 238.3 214C238 214.2 237.8 214.4 237.5 214.5C237.2 214.7 236.9 214.9 236.6 215.1C235.7 215.7 234.8 216.4 233.9 217.1C233.5 217.4 233.2 217.6 232.9 217.9C232.1 218.5 231.4 219.2 230.7 219.9C230.5 220.1 230.3 220.3 230 220.5C229.2 221.3 228.4 222.2 227.7 223C227.4 223.3 227.2 223.6 226.9 223.9C226.2 224.7 225.6 225.6 225 226.4C224.9 226.6 224.8 226.7 224.6 226.9C224.5 227 224.4 227.2 224.3 227.4C223.7 228.3 223.2 229.1 222.7 230C222.5 230.3 222.3 230.7 222.2 231C221.7 232 221.2 233.1 220.7 234.2C220.7 234.3 220.6 234.4 220.6 234.5C220.1 235.7 219.7 236.9 219.3 238.1C219.2 238.4 219.1 238.8 219 239.1C218.9 239.6 218.7 240.1 218.6 240.6C218.5 241 218.4 241.4 218.3 241.8C218.3 242 218.2 242.1 218.2 242.3C218.2 242.5 218.1 242.6 218.1 242.8V242.9C217.8 244.2 217.7 245.5 217.5 246.8C217.5 247.1 217.4 247.5 217.4 247.8C217.3 249.1 217.2 250.5 217.2 251.9C217.2 263.3 221.5 273.7 228.6 281.6H225.3C218.7 273.5 214.8 263.2 214.8 251.9C214.8 247.6 215.4 243.4 216.5 239.4C217.9 234.4 220 229.7 222.8 225.5C227.9 218 235 212.1 243.4 208.5C248 206.5 253 205.3 258.2 204.9C259.4 204.8 260.7 204.7 261.9 204.7C288.1 204.7 309.2 225.8 309.2 251.9Z" fill="#FA870A"/>
<path d="M216.8 150.8V126.5H211.9L214.3 122.5H221.2V150.8H216.8Z" fill="white"/>
<path d="M239.2 151.3C236.7 151.3 234.6 150.3 232.8 148.2C230.4 145.5 229.2 141.6 229.2 136.6C229.2 131.6 230.4 127.8 232.8 125C234.6 123 236.7 121.9 239.2 121.9C241.7 121.9 243.8 122.9 245.6 125C248 127.7 249.2 131.6 249.2 136.6C249.2 141.6 248 145.4 245.6 148.2C243.8 150.3 241.7 151.3 239.2 151.3ZM239.2 125.9C237.7 125.9 236.4 126.7 235.4 128.2C234.1 130.1 233.4 132.9 233.4 136.7C233.4 140.4 234 143.2 235.4 145.2C236.4 146.8 237.7 147.5 239.2 147.5C240.7 147.5 242 146.7 243 145.2C244.3 143.2 245 140.4 245 136.7C245 133 244.4 130.2 243 128.2C242 126.6 240.7 125.9 239.2 125.9Z" fill="white"/>
<path d="M254.8 136.8C254.3 136.3 254.1 135.7 254.1 135C254.1 134.3 254.3 133.7 254.8 133.2C255.3 132.7 255.9 132.5 256.6 132.5C257.3 132.5 257.9 132.7 258.4 133.2C258.9 133.7 259.1 134.3 259.1 135C259.1 135.7 258.9 136.3 258.4 136.8C257.9 137.3 257.3 137.5 256.6 137.5C255.9 137.5 255.3 137.3 254.8 136.8ZM254.8 150.6C254.3 150.1 254.1 149.5 254.1 148.8C254.1 148.1 254.3 147.5 254.8 147C255.3 146.5 255.9 146.3 256.6 146.3C257.3 146.3 257.9 146.5 258.4 147C258.9 147.5 259.1 148.1 259.1 148.8C259.1 149.5 258.9 150.1 258.4 150.6C257.9 151.1 257.3 151.3 256.6 151.3C255.9 151.3 255.3 151.1 254.8 150.6Z" fill="white"/>
<path d="M274 151.3C271.5 151.3 269.4 150.3 267.6 148.2C265.2 145.5 264 141.6 264 136.6C264 131.6 265.2 127.8 267.6 125C269.4 123 271.5 121.9 274 121.9C276.5 121.9 278.6 122.9 280.4 125C282.8 127.7 284 131.6 284 136.6C284 141.6 282.8 145.4 280.4 148.2C278.6 150.3 276.5 151.3 274 151.3ZM274 125.9C272.5 125.9 271.2 126.7 270.2 128.2C268.9 130.1 268.2 132.9 268.2 136.7C268.2 140.4 268.8 143.2 270.2 145.2C271.2 146.8 272.5 147.5 274 147.5C275.5 147.5 276.8 146.7 277.8 145.2C279.1 143.2 279.8 140.4 279.8 136.7C279.8 133 279.2 130.2 277.8 128.2C276.8 126.6 275.5 125.9 274 125.9Z" fill="white"/>
<path d="M298.1 151.3C295.6 151.3 293.5 150.3 291.7 148.2C289.3 145.5 288.1 141.6 288.1 136.6C288.1 131.6 289.3 127.8 291.7 125C293.5 123 295.6 121.9 298.1 121.9C300.6 121.9 302.7 122.9 304.5 125C306.9 127.7 308.1 131.6 308.1 136.6C308.1 141.6 306.9 145.4 304.5 148.2C302.8 150.3 300.6 151.3 298.1 151.3ZM298.1 125.9C296.6 125.9 295.3 126.7 294.3 128.2C293 130.1 292.3 132.9 292.3 136.7C292.3 140.4 292.9 143.2 294.3 145.2C295.3 146.8 296.6 147.5 298.1 147.5C299.6 147.5 300.9 146.7 301.9 145.2C303.2 143.2 303.9 140.4 303.9 136.7C303.9 133 303.3 130.2 301.9 128.2C300.9 126.6 299.7 125.9 298.1 125.9Z" fill="white"/>
<path d="M312.9 121.8H314.6C315.3 121.8 315.9 121.9 316.3 122.2C316.6 122.4 316.9 122.7 317 123C317.2 123.3 317.3 123.7 317.3 124.1C317.3 124.8 317 125.4 316.5 125.8C316 126.2 315.4 126.4 314.6 126.4H314.1V129.6H312.9V121.8ZM314.1 122.9V125.4H314.6C315.1 125.4 315.5 125.3 315.7 125.1C316 124.9 316.1 124.6 316.1 124.2C316.1 124.1 316.1 123.9 316 123.8C316 123.7 315.9 123.6 315.8 123.4C315.7 123.3 315.5 123.2 315.3 123.1C315.1 123 314.8 123 314.5 123H314.1V122.9Z" fill="white"/>
<path d="M319.6 129.7H318.4L320.1 121.2L322.8 127.3L325.6 121.2L327.1 129.7H325.9L325.1 125L322.8 130.1L320.5 125L319.6 129.7Z" fill="white"/>
<path d="M292.3 70.5H233.7C232 70.5 230.7 69.2 230.7 67.5C230.7 65.8 232 64.5 233.7 64.5H292.3C294 64.5 295.3 65.8 295.3 67.5C295.3 69.1 294 70.5 292.3 70.5Z" fill="#009688"/>
<path d="M292 337.4H235.5C233 337.4 231 335.4 231 332.9C231 330.4 233 328.4 235.5 328.4H292C294.5 328.4 296.5 330.4 296.5 332.9C296.5 335.3 294.5 337.4 292 337.4Z" fill="#AAD6C9"/>
<path d="M294.6 355.2H232.9C231.8 355.2 231 354.3 231 353.3V348.1C231 347 231.9 346.2 232.9 346.2H294.6C295.7 346.2 296.5 347.1 296.5 348.1V353.3C296.5 354.3 295.7 355.2 294.6 355.2Z" fill="#AAD6C9"/>
<path d="M282.7 262.6C282.7 267.8 280.9 271.9 277.2 274.6C273.5 277.3 268.1 278.7 260.8 278.7C257.1 278.7 253.9 278.4 251.3 277.9C248.7 277.4 246.2 276.7 243.9 275.7V264.2C246.5 265.4 249.4 266.4 252.7 267.3C256 268.1 258.8 268.5 261.3 268.5C266.4 268.5 268.9 267 268.9 264.1C268.9 263 268.6 262.1 267.9 261.4C267.2 260.7 266.1 259.9 264.4 259.1C262.7 258.2 260.5 257.2 257.8 256.1C253.9 254.5 251 252.9 249.1 251.5C247.3 250.1 245.9 248.5 245.1 246.7C244.3 244.9 243.8 242.6 243.8 240C243.8 235.4 245.6 231.9 249.1 229.4C252.6 226.9 257.6 225.7 264.1 225.7C270.3 225.7 276.3 227 282.1 229.7L277.9 239.8C275.3 238.7 272.9 237.8 270.7 237.1C268.5 236.4 266.2 236 263.9 236C259.8 236 257.7 237.1 257.7 239.3C257.7 240.6 258.4 241.6 259.7 242.6C261 243.5 263.9 244.9 268.4 246.7C272.4 248.3 275.3 249.8 277.2 251.2C279.1 252.6 280.4 254.2 281.3 256.1C282.2 257.9 282.7 260 282.7 262.6Z" fill="#FFDC8C"/>
<path d="M270.2 471.1V478.2L263.2 475.8L270.2 471.1Z" fill="#FA870A"/>
<path d="M170.3 471.1V477.6L176.7 475.2L170.3 471.1Z" fill="#FA870A"/>
<path d="M270.2 477.6C270.2 486.9 247.8 494.4 220.3 494.4C192.7 494.4 170.4 486.9 170.4 477.6C170.4 468.3 192.8 460.8 220.3 460.8C247.8 460.8 270.2 468.3 270.2 477.6Z" fill="#FA870A"/>
<path d="M172.1 473.4H171.5V485H172.1V473.4Z" fill="#FFDC8C"/>
<path d="M174.4 474.8H173.8V486.4H174.4V474.8Z" fill="#FFDC8C"/>
<path d="M176.5 466.4H175.9V490H176.5V466.4Z" fill="#FFDC8C"/>
<path d="M178.8 467.6H178.2V491.2H178.8V467.6Z" fill="#FFDC8C"/>
<path d="M181 468.9H180.4V492.5H181V468.9Z" fill="#FFDC8C"/>
<path d="M183.3 470.1H182.7V493.7H183.3V470.1Z" fill="#FFDC8C"/>
<path d="M185.6 471.3H185V494.9H185.6V471.3Z" fill="#FFDC8C"/>
<path d="M192.4 479.5H191.8V493.9H192.4V479.5Z" fill="#FFDC8C"/>
<path d="M265.6 472H265V493.3H265.6V472Z" fill="#FFDC8C"/>
<path d="M187.8 472.6H187.2V496.2H187.8V472.6Z" fill="#FFDC8C"/>
<path d="M190.1 473.8H189.5V497.4H190.1V473.8Z" fill="#FFDC8C"/>
<path d="M194.6 479.1H194V498.5H194.6V479.1Z" fill="#FFDC8C"/>
<path d="M196.9 480.1H196.3V499.5H196.9V480.1Z" fill="#FFDC8C"/>
<path d="M199.1 481.1H198.5V500.5H199.1V481.1Z" fill="#FFDC8C"/>
<path d="M201.4 482.1H200.8V501.5H201.4V482.1Z" fill="#FFDC8C"/>
<path d="M203.6 474H203V498.9H203.6V474Z" fill="#FFDC8C"/>
<path d="M205.5 476.7H204.9V501.6H205.5V476.7Z" fill="#FFDC8C"/>
<path d="M208.2 476.9H207.6V498.2H208.2V476.9Z" fill="#FFDC8C"/>
<path d="M210.3 476.9H209.7V498.2H210.3V476.9Z" fill="#FFDC8C"/>
<path d="M212.5 476.9H211.9V498.2H212.5V476.9Z" fill="#FFDC8C"/>
<path d="M214.6 476.9H214V498.2H214.6V476.9Z" fill="#FFDC8C"/>
<path d="M216.7 476.9H216.1V498.2H216.7V476.9Z" fill="#FFDC8C"/>
<path d="M218.9 476.9H218.3V498.2H218.9V476.9Z" fill="#FFDC8C"/>
<path d="M221 476.9H220.4V498.2H221V476.9Z" fill="#FFDC8C"/>
<path d="M223.2 476.9H222.6V498.2H223.2V476.9Z" fill="#FFDC8C"/>
<path d="M225.3 476.9H224.7V498.2H225.3V476.9Z" fill="#FFDC8C"/>
<path d="M227.4 476.9H226.8V498.2H227.4V476.9Z" fill="#FFDC8C"/>
<path d="M229.6 476.9H229V498.2H229.6V476.9Z" fill="#FFDC8C"/>
<path d="M231.7 476.9H231.1V498.2H231.7V476.9Z" fill="#FFDC8C"/>
<path d="M233.8 476.9H233.2V498.2H233.8V476.9Z" fill="#FFDC8C"/>
<path d="M236 476.9H235.4V498.2H236V476.9Z" fill="#FFDC8C"/>
<path d="M238.1 476.9H237.5V498.2H238.1V476.9Z" fill="#FFDC8C"/>
<path d="M240.3 476.9H239.7V498.2H240.3V476.9Z" fill="#FFDC8C"/>
<path d="M242.4 476.9H241.8V498.2H242.4V476.9Z" fill="#FFDC8C"/>
<path d="M244.5 476.9H243.9V498.2H244.5V476.9Z" fill="#FFDC8C"/>
<path d="M246.7 476.9H246.1V498.2H246.7V476.9Z" fill="#FFDC8C"/>
<path d="M248.8 476.9H248.2V498.2H248.8V476.9Z" fill="#FFDC8C"/>
<path d="M250.9 476.9H250.3V498.2H250.9V476.9Z" fill="#FFDC8C"/>
<path d="M253.1 476.9H252.5V498.2H253.1V476.9Z" fill="#FFDC8C"/>
<path d="M255.2 476.9H254.6V498.2H255.2V476.9Z" fill="#FFDC8C"/>
<path d="M257.4 476.9H256.8V498.2H257.4V476.9Z" fill="#FFDC8C"/>
<path d="M259.5 476.9H258.9V498.2H259.5V476.9Z" fill="#FFDC8C"/>
<path d="M261.6 476.9H261V498.2H261.6V476.9Z" fill="#FFDC8C"/>
<path d="M263.8 476.9H263.2V498.2H263.8V476.9Z" fill="#FFDC8C"/>
<path d="M267.5 464.3H266.9V496.1H267.5V464.3Z" fill="#FFDC8C"/>
<path d="M269.7 463.8H269.1V488.8H269.7V463.8Z" fill="#FFDC8C"/>
<path d="M220.2 487.9C247.759 487.9 270.1 480.378 270.1 471.1C270.1 461.822 247.759 454.3 220.2 454.3C192.641 454.3 170.3 461.822 170.3 471.1C170.3 480.378 192.641 487.9 220.2 487.9Z" fill="#D19902"/>
<path d="M220.2 487.9C247.759 487.9 270.1 480.378 270.1 471.1C270.1 461.822 247.759 454.3 220.2 454.3C192.641 454.3 170.3 461.822 170.3 471.1C170.3 480.378 192.641 487.9 220.2 487.9Z" fill="url(#paint15_linear)"/>
<path d="M267.5 471.1C267.5 479.9 246.3 487 220.2 487C194.1 487 172.9 479.9 172.9 471.1C172.9 462.3 194.1 455.2 220.2 455.2C246.4 455.2 267.5 462.3 267.5 471.1Z" fill="#FA870A"/>
<path d="M220.2 485C243.064 485 261.6 478.777 261.6 471.1C261.6 463.423 243.064 457.2 220.2 457.2C197.335 457.2 178.8 463.423 178.8 471.1C178.8 478.777 197.335 485 220.2 485Z" fill="#FA870A"/>
<path d="M220.2 484.3C241.85 484.3 259.4 478.39 259.4 471.1C259.4 463.81 241.85 457.9 220.2 457.9C198.55 457.9 181 463.81 181 471.1C181 478.39 198.55 484.3 220.2 484.3Z" fill="url(#paint16_linear)"/>
<path d="M236.1 474.2C236.1 475.9 234.6 477.3 231.6 478.2C228.6 479.1 224.1 479.6 218 479.6C214.9 479.6 212.3 479.5 210.1 479.3C207.9 479.1 205.9 478.9 204 478.6V474.8C206.2 475.2 208.6 475.5 211.3 475.8C214 476.1 216.4 476.2 218.4 476.2C222.6 476.2 224.7 475.7 224.7 474.7C224.7 474.3 224.4 474 223.9 473.8C223.3 473.6 222.4 473.3 221 473C219.6 472.7 217.8 472.4 215.5 472C212.2 471.5 209.8 470.9 208.3 470.5C206.8 470 205.7 469.5 205 468.9C204.3 468.3 204 467.6 204 466.7C204 465.2 205.5 464 208.4 463.2C211.3 462.4 215.5 462 220.8 462C225.9 462 230.9 462.4 235.7 463.3L232.2 466.6C230.1 466.2 228.1 465.9 226.2 465.7C224.4 465.5 222.5 465.4 220.5 465.4C217.1 465.4 215.4 465.8 215.4 466.5C215.4 466.9 216 467.3 217.1 467.6C218.2 467.9 220.6 468.4 224.3 469C227.6 469.5 230.1 470 231.6 470.5C233.1 471 234.3 471.5 235 472.1C235.7 472.6 236.1 473.3 236.1 474.2Z" fill="#FFDC8C"/>
<path d="M270.2 457.6V464.6L263.2 462.3L270.2 457.6Z" fill="#FA870A"/>
<path d="M170.3 457.6V464L176.7 461.7L170.3 457.6Z" fill="#FA870A"/>
<path d="M270.2 464C270.2 473.3 247.8 480.8 220.3 480.8C192.7 480.8 170.4 473.3 170.4 464C170.4 454.7 192.8 447.2 220.3 447.2C247.8 447.3 270.2 454.8 270.2 464Z" fill="#FA870A"/>
<path d="M172.1 459.9H171.5V471.5H172.1V459.9Z" fill="#FFDC8C"/>
<path d="M174.4 461.2H173.8V472.8H174.4V461.2Z" fill="#FFDC8C"/>
<path d="M176.5 452.9H175.9V476.5H176.5V452.9Z" fill="#FFDC8C"/>
<path d="M178.8 454.1H178.2V477.7H178.8V454.1Z" fill="#FFDC8C"/>
<path d="M181 455.3H180.4V478.9H181V455.3Z" fill="#FFDC8C"/>
<path d="M183.3 456.6H182.7V480.2H183.3V456.6Z" fill="#FFDC8C"/>
<path d="M185.6 457.8H185V481.4H185.6V457.8Z" fill="#FFDC8C"/>
<path d="M192.4 465.9H191.8V480.3H192.4V465.9Z" fill="#FFDC8C"/>
<path d="M265.6 458.5H265V479.8H265.6V458.5Z" fill="#FFDC8C"/>
<path d="M187.8 459H187.2V482.6H187.8V459Z" fill="#FFDC8C"/>
<path d="M190.1 460.3H189.5V483.9H190.1V460.3Z" fill="#FFDC8C"/>
<path d="M194.6 465.5H194V484.9H194.6V465.5Z" fill="#FFDC8C"/>
<path d="M196.9 466.6H196.3V486H196.9V466.6Z" fill="#FFDC8C"/>
<path d="M199.1 467.6H198.5V487H199.1V467.6Z" fill="#FFDC8C"/>
<path d="M201.4 468.6H200.8V488H201.4V468.6Z" fill="#FFDC8C"/>
<path d="M203.6 460.5H203V485.4H203.6V460.5Z" fill="#FFDC8C"/>
<path d="M205.5 463.1H204.9V488H205.5V463.1Z" fill="#FFDC8C"/>
<path d="M208.2 463.3H207.6V484.6H208.2V463.3Z" fill="#FFDC8C"/>
<path d="M210.3 463.3H209.7V484.6H210.3V463.3Z" fill="#FFDC8C"/>
<path d="M212.5 463.3H211.9V484.6H212.5V463.3Z" fill="#FFDC8C"/>
<path d="M214.6 463.3H214V484.6H214.6V463.3Z" fill="#FFDC8C"/>
<path d="M216.7 463.3H216.1V484.6H216.7V463.3Z" fill="#FFDC8C"/>
<path d="M218.9 463.3H218.3V484.6H218.9V463.3Z" fill="#FFDC8C"/>
<path d="M221 463.3H220.4V484.6H221V463.3Z" fill="#FFDC8C"/>
<path d="M223.2 463.3H222.6V484.6H223.2V463.3Z" fill="#FFDC8C"/>
<path d="M225.3 463.3H224.7V484.6H225.3V463.3Z" fill="#FFDC8C"/>
<path d="M227.4 463.3H226.8V484.6H227.4V463.3Z" fill="#FFDC8C"/>
<path d="M229.6 463.3H229V484.6H229.6V463.3Z" fill="#FFDC8C"/>
<path d="M231.7 463.3H231.1V484.6H231.7V463.3Z" fill="#FFDC8C"/>
<path d="M233.8 463.3H233.2V484.6H233.8V463.3Z" fill="#FFDC8C"/>
<path d="M236 463.3H235.4V484.6H236V463.3Z" fill="#FFDC8C"/>
<path d="M238.1 463.3H237.5V484.6H238.1V463.3Z" fill="#FFDC8C"/>
<path d="M240.3 463.3H239.7V484.6H240.3V463.3Z" fill="#FFDC8C"/>
<path d="M242.4 463.3H241.8V484.6H242.4V463.3Z" fill="#FFDC8C"/>
<path d="M244.5 463.3H243.9V484.6H244.5V463.3Z" fill="#FFDC8C"/>
<path d="M246.7 463.3H246.1V484.6H246.7V463.3Z" fill="#FFDC8C"/>
<path d="M248.8 463.3H248.2V484.6H248.8V463.3Z" fill="#FFDC8C"/>
<path d="M250.9 463.3H250.3V484.6H250.9V463.3Z" fill="#FFDC8C"/>
<path d="M253.1 463.3H252.5V484.6H253.1V463.3Z" fill="#FFDC8C"/>
<path d="M255.2 463.3H254.6V484.6H255.2V463.3Z" fill="#FFDC8C"/>
<path d="M257.4 463.3H256.8V484.6H257.4V463.3Z" fill="#FFDC8C"/>
<path d="M259.5 463.3H258.9V484.6H259.5V463.3Z" fill="#FFDC8C"/>
<path d="M261.6 463.3H261V484.6H261.6V463.3Z" fill="#FFDC8C"/>
<path d="M263.8 463.3H263.2V484.6H263.8V463.3Z" fill="#FFDC8C"/>
<path d="M267.5 450.7H266.9V482.5H267.5V450.7Z" fill="#FFDC8C"/>
<path d="M269.7 450.3H269.1V475.3H269.7V450.3Z" fill="#FFDC8C"/>
<path d="M220.2 474.4C247.759 474.4 270.1 466.878 270.1 457.6C270.1 448.322 247.759 440.8 220.2 440.8C192.641 440.8 170.3 448.322 170.3 457.6C170.3 466.878 192.641 474.4 220.2 474.4Z" fill="#D19902"/>
<path d="M220.2 474.4C247.759 474.4 270.1 466.878 270.1 457.6C270.1 448.322 247.759 440.8 220.2 440.8C192.641 440.8 170.3 448.322 170.3 457.6C170.3 466.878 192.641 474.4 220.2 474.4Z" fill="url(#paint17_linear)"/>
<path d="M267.5 457.6C267.5 466.4 246.3 473.5 220.2 473.5C194.1 473.5 172.9 466.4 172.9 457.6C172.9 448.8 194.1 441.7 220.2 441.7C246.4 441.7 267.5 448.8 267.5 457.6Z" fill="#FA870A"/>
<path d="M220.2 471.5C243.064 471.5 261.6 465.277 261.6 457.6C261.6 449.923 243.064 443.7 220.2 443.7C197.335 443.7 178.8 449.923 178.8 457.6C178.8 465.277 197.335 471.5 220.2 471.5Z" fill="#FA870A"/>
<path d="M220.2 470.8C241.85 470.8 259.4 464.89 259.4 457.6C259.4 450.31 241.85 444.4 220.2 444.4C198.55 444.4 181 450.31 181 457.6C181 464.89 198.55 470.8 220.2 470.8Z" fill="url(#paint18_linear)"/>
<path d="M236.1 460.6C236.1 462.3 234.6 463.7 231.6 464.6C228.6 465.5 224.1 466 218 466C214.9 466 212.3 465.9 210.1 465.7C207.9 465.5 205.9 465.3 204 465V461.2C206.2 461.6 208.6 461.9 211.3 462.2C214 462.5 216.4 462.6 218.4 462.6C222.6 462.6 224.7 462.1 224.7 461.1C224.7 460.7 224.4 460.4 223.9 460.2C223.3 460 222.4 459.7 221 459.4C219.6 459.1 217.8 458.8 215.5 458.4C212.2 457.9 209.8 457.3 208.3 456.9C206.8 456.4 205.7 455.9 205 455.3C204.3 454.7 204 454 204 453.1C204 451.6 205.5 450.4 208.4 449.6C211.3 448.8 215.5 448.4 220.8 448.4C225.9 448.4 230.9 448.8 235.7 449.7L232.2 453C230.1 452.6 228.1 452.3 226.2 452.1C224.4 451.9 222.5 451.8 220.5 451.8C217.1 451.8 215.4 452.2 215.4 452.9C215.4 453.3 216 453.7 217.1 454C218.2 454.3 220.6 454.8 224.3 455.4C227.6 455.9 230.1 456.4 231.6 456.9C233.1 457.4 234.3 457.9 235 458.5C235.7 459.1 236.1 459.8 236.1 460.6Z" fill="#FFDC8C"/>
<path d="M270.2 444V451.1L263.2 448.8L270.2 444Z" fill="#FA870A"/>
<path d="M170.3 444V450.5L176.7 448.2L170.3 444Z" fill="#FA870A"/>
<path d="M270.2 450.5C270.2 459.8 247.8 467.3 220.3 467.3C192.7 467.3 170.4 459.8 170.4 450.5C170.4 441.2 192.8 433.7 220.3 433.7C247.8 433.7 270.2 441.2 270.2 450.5Z" fill="#FA870A"/>
<path d="M172.1 446.4H171.5V458H172.1V446.4Z" fill="#FFDC8C"/>
<path d="M174.4 447.7H173.8V459.3H174.4V447.7Z" fill="#FFDC8C"/>
<path d="M176.5 439.3H175.9V462.9H176.5V439.3Z" fill="#FFDC8C"/>
<path d="M178.8 440.6H178.2V464.2H178.8V440.6Z" fill="#FFDC8C"/>
<path d="M181 441.8H180.4V465.4H181V441.8Z" fill="#FFDC8C"/>
<path d="M183.3 443H182.7V466.6H183.3V443Z" fill="#FFDC8C"/>
<path d="M185.6 444.3H185V467.9H185.6V444.3Z" fill="#FFDC8C"/>
<path d="M192.4 452.4H191.8V466.8H192.4V452.4Z" fill="#FFDC8C"/>
<path d="M265.6 444.9H265V466.2H265.6V444.9Z" fill="#FFDC8C"/>
<path d="M187.8 445.5H187.2V469.1H187.8V445.5Z" fill="#FFDC8C"/>
<path d="M190.1 446.7H189.5V470.3H190.1V446.7Z" fill="#FFDC8C"/>
<path d="M194.6 452H194V471.4H194.6V452Z" fill="#FFDC8C"/>
<path d="M196.9 453H196.3V472.4H196.9V453Z" fill="#FFDC8C"/>
<path d="M199.1 454H198.5V473.4H199.1V454Z" fill="#FFDC8C"/>
<path d="M201.4 455.1H200.8V474.5H201.4V455.1Z" fill="#FFDC8C"/>
<path d="M203.6 446.9H203V471.8H203.6V446.9Z" fill="#FFDC8C"/>
<path d="M205.5 449.6H204.9V474.5H205.5V449.6Z" fill="#FFDC8C"/>
<path d="M208.2 449.8H207.6V471.1H208.2V449.8Z" fill="#FFDC8C"/>
<path d="M210.3 449.8H209.7V471.1H210.3V449.8Z" fill="#FFDC8C"/>
<path d="M212.5 449.8H211.9V471.1H212.5V449.8Z" fill="#FFDC8C"/>
<path d="M214.6 449.8H214V471.1H214.6V449.8Z" fill="#FFDC8C"/>
<path d="M216.7 449.8H216.1V471.1H216.7V449.8Z" fill="#FFDC8C"/>
<path d="M218.9 449.8H218.3V471.1H218.9V449.8Z" fill="#FFDC8C"/>
<path d="M221 449.8H220.4V471.1H221V449.8Z" fill="#FFDC8C"/>
<path d="M223.2 449.8H222.6V471.1H223.2V449.8Z" fill="#FFDC8C"/>
<path d="M225.3 449.8H224.7V471.1H225.3V449.8Z" fill="#FFDC8C"/>
<path d="M227.4 449.8H226.8V471.1H227.4V449.8Z" fill="#FFDC8C"/>
<path d="M229.6 449.8H229V471.1H229.6V449.8Z" fill="#FFDC8C"/>
<path d="M231.7 449.8H231.1V471.1H231.7V449.8Z" fill="#FFDC8C"/>
<path d="M233.8 449.8H233.2V471.1H233.8V449.8Z" fill="#FFDC8C"/>
<path d="M236 449.8H235.4V471.1H236V449.8Z" fill="#FFDC8C"/>
<path d="M238.1 449.8H237.5V471.1H238.1V449.8Z" fill="#FFDC8C"/>
<path d="M240.3 449.8H239.7V471.1H240.3V449.8Z" fill="#FFDC8C"/>
<path d="M242.4 449.8H241.8V471.1H242.4V449.8Z" fill="#FFDC8C"/>
<path d="M244.5 449.8H243.9V471.1H244.5V449.8Z" fill="#FFDC8C"/>
<path d="M246.7 449.8H246.1V471.1H246.7V449.8Z" fill="#FFDC8C"/>
<path d="M248.8 449.8H248.2V471.1H248.8V449.8Z" fill="#FFDC8C"/>
<path d="M250.9 449.8H250.3V471.1H250.9V449.8Z" fill="#FFDC8C"/>
<path d="M253.1 449.8H252.5V471.1H253.1V449.8Z" fill="#FFDC8C"/>
<path d="M255.2 449.8H254.6V471.1H255.2V449.8Z" fill="#FFDC8C"/>
<path d="M257.4 449.8H256.8V471.1H257.4V449.8Z" fill="#FFDC8C"/>
<path d="M259.5 449.8H258.9V471.1H259.5V449.8Z" fill="#FFDC8C"/>
<path d="M261.6 449.8H261V471.1H261.6V449.8Z" fill="#FFDC8C"/>
<path d="M263.8 449.8H263.2V471.1H263.8V449.8Z" fill="#FFDC8C"/>
<path d="M267.5 437.2H266.9V469H267.5V437.2Z" fill="#FFDC8C"/>
<path d="M269.7 436.7H269.1V461.7H269.7V436.7Z" fill="#FFDC8C"/>
<path d="M220.2 460.8C247.759 460.8 270.1 453.278 270.1 444C270.1 434.722 247.759 427.2 220.2 427.2C192.641 427.2 170.3 434.722 170.3 444C170.3 453.278 192.641 460.8 220.2 460.8Z" fill="#D19902"/>
<path d="M220.2 460.8C247.759 460.8 270.1 453.278 270.1 444C270.1 434.722 247.759 427.2 220.2 427.2C192.641 427.2 170.3 434.722 170.3 444C170.3 453.278 192.641 460.8 220.2 460.8Z" fill="url(#paint19_linear)"/>
<path d="M267.5 444C267.5 452.8 246.3 459.9 220.2 459.9C194.1 459.9 172.9 452.8 172.9 444C172.9 435.2 194.1 428.1 220.2 428.1C246.4 428.1 267.5 435.3 267.5 444Z" fill="#FA870A"/>
<path d="M220.2 457.9C243.064 457.9 261.6 451.677 261.6 444C261.6 436.323 243.064 430.1 220.2 430.1C197.335 430.1 178.8 436.323 178.8 444C178.8 451.677 197.335 457.9 220.2 457.9Z" fill="#FA870A"/>
<path d="M220.2 457.2C241.85 457.2 259.4 451.29 259.4 444C259.4 436.71 241.85 430.8 220.2 430.8C198.55 430.8 181 436.71 181 444C181 451.29 198.55 457.2 220.2 457.2Z" fill="url(#paint20_linear)"/>
<path d="M236.1 447.1C236.1 448.8 234.6 450.2 231.6 451.1C228.6 452 224.1 452.5 218 452.5C214.9 452.5 212.3 452.4 210.1 452.2C207.9 452 205.9 451.8 204 451.5V447.7C206.2 448.1 208.6 448.4 211.3 448.7C214 449 216.4 449.1 218.4 449.1C222.6 449.1 224.7 448.6 224.7 447.6C224.7 447.2 224.4 446.9 223.9 446.7C223.3 446.5 222.4 446.2 221 445.9C219.6 445.6 217.8 445.3 215.5 444.9C212.2 444.4 209.8 443.8 208.3 443.4C206.8 442.9 205.7 442.4 205 441.8C204.3 441.2 204 440.5 204 439.6C204 438.1 205.5 436.9 208.4 436.1C211.3 435.3 215.5 434.9 220.8 434.9C225.9 434.9 230.9 435.3 235.7 436.2L232.2 439.5C230.1 439.1 228.1 438.8 226.2 438.6C224.4 438.4 222.5 438.3 220.5 438.3C217.1 438.3 215.4 438.7 215.4 439.4C215.4 439.8 216 440.2 217.1 440.5C218.2 440.8 220.6 441.3 224.3 441.9C227.6 442.4 230.1 442.9 231.6 443.4C233.1 443.9 234.3 444.4 235 445C235.7 445.5 236.1 446.3 236.1 447.1Z" fill="#FFDC8C"/>
<path d="M270.2 430.5V437.5L263.2 435.2L270.2 430.5Z" fill="#FA870A"/>
<path d="M170.3 430.5V436.9L176.7 434.6L170.3 430.5Z" fill="#FA870A"/>
<path d="M270.2 436.9C270.2 446.2 247.8 453.7 220.3 453.7C192.7 453.7 170.4 446.2 170.4 436.9C170.4 427.6 192.8 420.1 220.3 420.1C247.8 420.2 270.2 427.7 270.2 436.9Z" fill="#FA870A"/>
<path d="M172.1 432.8H171.5V444.4H172.1V432.8Z" fill="#FFDC8C"/>
<path d="M174.4 434.2H173.8V445.8H174.4V434.2Z" fill="#FFDC8C"/>
<path d="M176.5 425.8H175.9V449.4H176.5V425.8Z" fill="#FFDC8C"/>
<path d="M178.8 427H178.2V450.6H178.8V427Z" fill="#FFDC8C"/>
<path d="M181 428.3H180.4V451.9H181V428.3Z" fill="#FFDC8C"/>
<path d="M183.3 429.5H182.7V453.1H183.3V429.5Z" fill="#FFDC8C"/>
<path d="M185.6 430.7H185V454.3H185.6V430.7Z" fill="#FFDC8C"/>
<path d="M192.4 438.8H191.8V453.2H192.4V438.8Z" fill="#FFDC8C"/>
<path d="M265.6 431.4H265V452.7H265.6V431.4Z" fill="#FFDC8C"/>
<path d="M187.8 432H187.2V455.6H187.8V432Z" fill="#FFDC8C"/>
<path d="M190.1 433.2H189.5V456.8H190.1V433.2Z" fill="#FFDC8C"/>
<path d="M194.6 438.5H194V457.9H194.6V438.5Z" fill="#FFDC8C"/>
<path d="M196.9 439.5H196.3V458.9H196.9V439.5Z" fill="#FFDC8C"/>
<path d="M199.1 440.5H198.5V459.9H199.1V440.5Z" fill="#FFDC8C"/>
<path d="M201.4 441.5H200.8V460.9H201.4V441.5Z" fill="#FFDC8C"/>
<path d="M203.6 433.4H203V458.3H203.6V433.4Z" fill="#FFDC8C"/>
<path d="M205.5 436.1H204.9V461H205.5V436.1Z" fill="#FFDC8C"/>
<path d="M208.2 436.2H207.6V457.5H208.2V436.2Z" fill="#FFDC8C"/>
<path d="M210.3 436.2H209.7V457.5H210.3V436.2Z" fill="#FFDC8C"/>
<path d="M212.5 436.2H211.9V457.5H212.5V436.2Z" fill="#FFDC8C"/>
<path d="M214.6 436.2H214V457.5H214.6V436.2Z" fill="#FFDC8C"/>
<path d="M216.7 436.2H216.1V457.5H216.7V436.2Z" fill="#FFDC8C"/>
<path d="M218.9 436.2H218.3V457.5H218.9V436.2Z" fill="#FFDC8C"/>
<path d="M221 436.2H220.4V457.5H221V436.2Z" fill="#FFDC8C"/>
<path d="M223.2 436.2H222.6V457.5H223.2V436.2Z" fill="#FFDC8C"/>
<path d="M225.3 436.2H224.7V457.5H225.3V436.2Z" fill="#FFDC8C"/>
<path d="M227.4 436.2H226.8V457.5H227.4V436.2Z" fill="#FFDC8C"/>
<path d="M229.6 436.2H229V457.5H229.6V436.2Z" fill="#FFDC8C"/>
<path d="M231.7 436.2H231.1V457.5H231.7V436.2Z" fill="#FFDC8C"/>
<path d="M233.8 436.2H233.2V457.5H233.8V436.2Z" fill="#FFDC8C"/>
<path d="M236 436.2H235.4V457.5H236V436.2Z" fill="#FFDC8C"/>
<path d="M238.1 436.2H237.5V457.5H238.1V436.2Z" fill="#FFDC8C"/>
<path d="M240.3 436.2H239.7V457.5H240.3V436.2Z" fill="#FFDC8C"/>
<path d="M242.4 436.2H241.8V457.5H242.4V436.2Z" fill="#FFDC8C"/>
<path d="M244.5 436.2H243.9V457.5H244.5V436.2Z" fill="#FFDC8C"/>
<path d="M246.7 436.2H246.1V457.5H246.7V436.2Z" fill="#FFDC8C"/>
<path d="M248.8 436.2H248.2V457.5H248.8V436.2Z" fill="#FFDC8C"/>
<path d="M250.9 436.2H250.3V457.5H250.9V436.2Z" fill="#FFDC8C"/>
<path d="M253.1 436.2H252.5V457.5H253.1V436.2Z" fill="#FFDC8C"/>
<path d="M255.2 436.2H254.6V457.5H255.2V436.2Z" fill="#FFDC8C"/>
<path d="M257.4 436.2H256.8V457.5H257.4V436.2Z" fill="#FFDC8C"/>
<path d="M259.5 436.2H258.9V457.5H259.5V436.2Z" fill="#FFDC8C"/>
<path d="M261.6 436.2H261V457.5H261.6V436.2Z" fill="#FFDC8C"/>
<path d="M263.8 436.2H263.2V457.5H263.8V436.2Z" fill="#FFDC8C"/>
<path d="M267.5 423.7H266.9V455.5H267.5V423.7Z" fill="#FFDC8C"/>
<path d="M269.7 423.2H269.1V448.2H269.7V423.2Z" fill="#FFDC8C"/>
<path d="M220.2 447.3C247.759 447.3 270.1 439.778 270.1 430.5C270.1 421.222 247.759 413.7 220.2 413.7C192.641 413.7 170.3 421.222 170.3 430.5C170.3 439.778 192.641 447.3 220.2 447.3Z" fill="#D19902"/>
<path d="M220.2 447.3C247.759 447.3 270.1 439.778 270.1 430.5C270.1 421.222 247.759 413.7 220.2 413.7C192.641 413.7 170.3 421.222 170.3 430.5C170.3 439.778 192.641 447.3 220.2 447.3Z" fill="url(#paint21_linear)"/>
<path d="M267.5 430.5C267.5 439.3 246.3 446.4 220.2 446.4C194.1 446.4 172.9 439.3 172.9 430.5C172.9 421.7 194.1 414.6 220.2 414.6C246.4 414.6 267.5 421.7 267.5 430.5Z" fill="#FA870A"/>
<path d="M220.2 444.4C243.064 444.4 261.6 438.177 261.6 430.5C261.6 422.823 243.064 416.6 220.2 416.6C197.335 416.6 178.8 422.823 178.8 430.5C178.8 438.177 197.335 444.4 220.2 444.4Z" fill="#FA870A"/>
<path d="M220.2 443.7C241.85 443.7 259.4 437.79 259.4 430.5C259.4 423.21 241.85 417.3 220.2 417.3C198.55 417.3 181 423.21 181 430.5C181 437.79 198.55 443.7 220.2 443.7Z" fill="url(#paint22_linear)"/>
<path d="M236.1 433.6C236.1 435.3 234.6 436.7 231.6 437.6C228.6 438.5 224.1 439 218 439C214.9 439 212.3 438.9 210.1 438.7C207.9 438.5 205.9 438.3 204 438V434.2C206.2 434.6 208.6 434.9 211.3 435.2C214 435.5 216.4 435.6 218.4 435.6C222.6 435.6 224.7 435.1 224.7 434.1C224.7 433.7 224.4 433.4 223.9 433.2C223.3 433 222.4 432.7 221 432.4C219.6 432.1 217.8 431.8 215.5 431.4C212.2 430.9 209.8 430.3 208.3 429.9C206.8 429.4 205.7 428.9 205 428.3C204.3 427.7 204 427 204 426.1C204 424.6 205.5 423.4 208.4 422.6C211.3 421.8 215.5 421.4 220.8 421.4C225.9 421.4 230.9 421.8 235.7 422.7L232.2 426C230.1 425.6 228.1 425.3 226.2 425.1C224.4 424.9 222.5 424.8 220.5 424.8C217.1 424.8 215.4 425.2 215.4 425.9C215.4 426.3 216 426.7 217.1 427C218.2 427.3 220.6 427.8 224.3 428.4C227.6 428.9 230.1 429.4 231.6 429.9C233.1 430.4 234.3 430.9 235 431.5C235.7 432 236.1 432.7 236.1 433.6Z" fill="#FFDC8C"/>
<path d="M270.2 416.9V424L263.2 421.7L270.2 416.9Z" fill="#FA870A"/>
<path d="M170.3 416.9V423.4L176.7 421.1L170.3 416.9Z" fill="#FA870A"/>
<path d="M270.2 423.4C270.2 432.7 247.8 440.2 220.3 440.2C192.7 440.2 170.4 432.7 170.4 423.4C170.4 414.1 192.8 406.6 220.3 406.6C247.8 406.6 270.2 414.1 270.2 423.4Z" fill="#FA870A"/>
<path d="M172.1 419.3H171.5V430.9H172.1V419.3Z" fill="#FFDC8C"/>
<path d="M174.4 420.6H173.8V432.2H174.4V420.6Z" fill="#FFDC8C"/>
<path d="M176.5 412.2H175.9V435.8H176.5V412.2Z" fill="#FFDC8C"/>
<path d="M178.8 413.5H178.2V437.1H178.8V413.5Z" fill="#FFDC8C"/>
<path d="M181 414.7H180.4V438.3H181V414.7Z" fill="#FFDC8C"/>
<path d="M183.3 416H182.7V439.6H183.3V416Z" fill="#FFDC8C"/>
<path d="M185.6 417.2H185V440.8H185.6V417.2Z" fill="#FFDC8C"/>
<path d="M192.4 425.3H191.8V439.7H192.4V425.3Z" fill="#FFDC8C"/>
<path d="M265.6 417.8H265V439.1H265.6V417.8Z" fill="#FFDC8C"/>
<path d="M187.8 418.4H187.2V442H187.8V418.4Z" fill="#FFDC8C"/>
<path d="M190.1 419.7H189.5V443.3H190.1V419.7Z" fill="#FFDC8C"/>
<path d="M194.6 424.9H194V444.3H194.6V424.9Z" fill="#FFDC8C"/>
<path d="M196.9 425.9H196.3V445.3H196.9V425.9Z" fill="#FFDC8C"/>
<path d="M199.1 427H198.5V446.4H199.1V427Z" fill="#FFDC8C"/>
<path d="M201.4 428H200.8V447.4H201.4V428Z" fill="#FFDC8C"/>
<path d="M203.6 419.9H203V444.8H203.6V419.9Z" fill="#FFDC8C"/>
<path d="M205.5 422.5H204.9V447.4H205.5V422.5Z" fill="#FFDC8C"/>
<path d="M208.2 422.7H207.6V444H208.2V422.7Z" fill="#FFDC8C"/>
<path d="M210.3 422.7H209.7V444H210.3V422.7Z" fill="#FFDC8C"/>
<path d="M212.5 422.7H211.9V444H212.5V422.7Z" fill="#FFDC8C"/>
<path d="M214.6 422.7H214V444H214.6V422.7Z" fill="#FFDC8C"/>
<path d="M216.7 422.7H216.1V444H216.7V422.7Z" fill="#FFDC8C"/>
<path d="M218.9 422.7H218.3V444H218.9V422.7Z" fill="#FFDC8C"/>
<path d="M221 422.7H220.4V444H221V422.7Z" fill="#FFDC8C"/>
<path d="M223.2 422.7H222.6V444H223.2V422.7Z" fill="#FFDC8C"/>
<path d="M225.3 422.7H224.7V444H225.3V422.7Z" fill="#FFDC8C"/>
<path d="M227.4 422.7H226.8V444H227.4V422.7Z" fill="#FFDC8C"/>
<path d="M229.6 422.7H229V444H229.6V422.7Z" fill="#FFDC8C"/>
<path d="M231.7 422.7H231.1V444H231.7V422.7Z" fill="#FFDC8C"/>
<path d="M233.8 422.7H233.2V444H233.8V422.7Z" fill="#FFDC8C"/>
<path d="M236 422.7H235.4V444H236V422.7Z" fill="#FFDC8C"/>
<path d="M238.1 422.7H237.5V444H238.1V422.7Z" fill="#FFDC8C"/>
<path d="M240.3 422.7H239.7V444H240.3V422.7Z" fill="#FFDC8C"/>
<path d="M242.4 422.7H241.8V444H242.4V422.7Z" fill="#FFDC8C"/>
<path d="M244.5 422.7H243.9V444H244.5V422.7Z" fill="#FFDC8C"/>
<path d="M246.7 422.7H246.1V444H246.7V422.7Z" fill="#FFDC8C"/>
<path d="M248.8 422.7H248.2V444H248.8V422.7Z" fill="#FFDC8C"/>
<path d="M250.9 422.7H250.3V444H250.9V422.7Z" fill="#FFDC8C"/>
<path d="M253.1 422.7H252.5V444H253.1V422.7Z" fill="#FFDC8C"/>
<path d="M255.2 422.7H254.6V444H255.2V422.7Z" fill="#FFDC8C"/>
<path d="M257.4 422.7H256.8V444H257.4V422.7Z" fill="#FFDC8C"/>
<path d="M259.5 422.7H258.9V444H259.5V422.7Z" fill="#FFDC8C"/>
<path d="M261.6 422.7H261V444H261.6V422.7Z" fill="#FFDC8C"/>
<path d="M263.8 422.7H263.2V444H263.8V422.7Z" fill="#FFDC8C"/>
<path d="M267.5 410.1H266.9V441.9H267.5V410.1Z" fill="#FFDC8C"/>
<path d="M269.7 409.7H269.1V434.7H269.7V409.7Z" fill="#FFDC8C"/>
<path d="M220.2 433.7C247.759 433.7 270.1 426.178 270.1 416.9C270.1 407.622 247.759 400.1 220.2 400.1C192.641 400.1 170.3 407.622 170.3 416.9C170.3 426.178 192.641 433.7 220.2 433.7Z" fill="#D19902"/>
<path d="M220.2 433.7C247.759 433.7 270.1 426.178 270.1 416.9C270.1 407.622 247.759 400.1 220.2 400.1C192.641 400.1 170.3 407.622 170.3 416.9C170.3 426.178 192.641 433.7 220.2 433.7Z" fill="url(#paint23_linear)"/>
<path d="M267.5 416.9C267.5 425.7 246.3 432.8 220.2 432.8C194.1 432.8 172.9 425.7 172.9 416.9C172.9 408.1 194.1 401 220.2 401C246.4 401.1 267.5 408.2 267.5 416.9Z" fill="#FA870A"/>
<path d="M220.2 430.8C243.064 430.8 261.6 424.577 261.6 416.9C261.6 409.223 243.064 403 220.2 403C197.335 403 178.8 409.223 178.8 416.9C178.8 424.577 197.335 430.8 220.2 430.8Z" fill="#FA870A"/>
<path d="M220.2 430.1C241.85 430.1 259.4 424.19 259.4 416.9C259.4 409.61 241.85 403.7 220.2 403.7C198.55 403.7 181 409.61 181 416.9C181 424.19 198.55 430.1 220.2 430.1Z" fill="url(#paint24_linear)"/>
<path d="M236.1 420C236.1 421.7 234.6 423.1 231.6 424C228.6 424.9 224.1 425.4 218 425.4C214.9 425.4 212.3 425.3 210.1 425.1C207.9 424.9 205.9 424.7 204 424.4V420.6C206.2 421 208.6 421.3 211.3 421.6C214 421.9 216.4 422 218.4 422C222.6 422 224.7 421.5 224.7 420.5C224.7 420.1 224.4 419.8 223.9 419.6C223.3 419.4 222.4 419.1 221 418.8C219.6 418.5 217.8 418.2 215.5 417.8C212.2 417.3 209.8 416.7 208.3 416.3C206.8 415.8 205.7 415.3 205 414.7C204.3 414.1 204 413.4 204 412.5C204 411 205.5 409.8 208.4 409C211.3 408.2 215.5 407.8 220.8 407.8C225.9 407.8 230.9 408.2 235.7 409.1L232.2 412.4C230.1 412 228.1 411.7 226.2 411.5C224.4 411.3 222.5 411.2 220.5 411.2C217.1 411.2 215.4 411.6 215.4 412.3C215.4 412.7 216 413.1 217.1 413.4C218.2 413.7 220.6 414.2 224.3 414.8C227.6 415.3 230.1 415.8 231.6 416.3C233.1 416.8 234.3 417.3 235 417.9C235.7 418.5 236.1 419.2 236.1 420Z" fill="#FFDC8C"/>
<path d="M270.2 403.4V410.5L263.2 408.1L270.2 403.4Z" fill="#FA870A"/>
<path d="M170.3 403.4V409.9L176.7 407.5L170.3 403.4Z" fill="#FA870A"/>
<path d="M270.2 409.9C270.2 419.2 247.8 426.7 220.3 426.7C192.7 426.7 170.4 419.2 170.4 409.9C170.4 400.6 192.8 393.1 220.3 393.1C247.8 393.1 270.2 400.6 270.2 409.9Z" fill="#FA870A"/>
<path d="M172.1 405.7H171.5V417.3H172.1V405.7Z" fill="#FFDC8C"/>
<path d="M174.4 407.1H173.8V418.7H174.4V407.1Z" fill="#FFDC8C"/>
<path d="M176.5 398.7H175.9V422.3H176.5V398.7Z" fill="#FFDC8C"/>
<path d="M178.8 399.9H178.2V423.5H178.8V399.9Z" fill="#FFDC8C"/>
<path d="M181 401.2H180.4V424.8H181V401.2Z" fill="#FFDC8C"/>
<path d="M183.3 402.4H182.7V426H183.3V402.4Z" fill="#FFDC8C"/>
<path d="M185.6 403.7H185V427.3H185.6V403.7Z" fill="#FFDC8C"/>
<path d="M192.4 411.8H191.8V426.2H192.4V411.8Z" fill="#FFDC8C"/>
<path d="M265.6 404.3H265V425.6H265.6V404.3Z" fill="#FFDC8C"/>
<path d="M187.8 404.9H187.2V428.5H187.8V404.9Z" fill="#FFDC8C"/>
<path d="M190.1 406.1H189.5V429.7H190.1V406.1Z" fill="#FFDC8C"/>
<path d="M194.6 411.4H194V430.8H194.6V411.4Z" fill="#FFDC8C"/>
<path d="M196.9 412.4H196.3V431.8H196.9V412.4Z" fill="#FFDC8C"/>
<path d="M199.1 413.4H198.5V432.8H199.1V413.4Z" fill="#FFDC8C"/>
<path d="M201.4 414.4H200.8V433.8H201.4V414.4Z" fill="#FFDC8C"/>
<path d="M203.6 406.3H203V431.2H203.6V406.3Z" fill="#FFDC8C"/>
<path d="M205.5 409H204.9V433.9H205.5V409Z" fill="#FFDC8C"/>
<path d="M208.2 409.2H207.6V430.5H208.2V409.2Z" fill="#FFDC8C"/>
<path d="M210.3 409.2H209.7V430.5H210.3V409.2Z" fill="#FFDC8C"/>
<path d="M212.5 409.2H211.9V430.5H212.5V409.2Z" fill="#FFDC8C"/>
<path d="M214.6 409.2H214V430.5H214.6V409.2Z" fill="#FFDC8C"/>
<path d="M216.7 409.2H216.1V430.5H216.7V409.2Z" fill="#FFDC8C"/>
<path d="M218.9 409.2H218.3V430.5H218.9V409.2Z" fill="#FFDC8C"/>
<path d="M221 409.2H220.4V430.5H221V409.2Z" fill="#FFDC8C"/>
<path d="M223.2 409.2H222.6V430.5H223.2V409.2Z" fill="#FFDC8C"/>
<path d="M225.3 409.2H224.7V430.5H225.3V409.2Z" fill="#FFDC8C"/>
<path d="M227.4 409.2H226.8V430.5H227.4V409.2Z" fill="#FFDC8C"/>
<path d="M229.6 409.2H229V430.5H229.6V409.2Z" fill="#FFDC8C"/>
<path d="M231.7 409.2H231.1V430.5H231.7V409.2Z" fill="#FFDC8C"/>
<path d="M233.8 409.2H233.2V430.5H233.8V409.2Z" fill="#FFDC8C"/>
<path d="M236 409.2H235.4V430.5H236V409.2Z" fill="#FFDC8C"/>
<path d="M238.1 409.2H237.5V430.5H238.1V409.2Z" fill="#FFDC8C"/>
<path d="M240.3 409.2H239.7V430.5H240.3V409.2Z" fill="#FFDC8C"/>
<path d="M242.4 409.2H241.8V430.5H242.4V409.2Z" fill="#FFDC8C"/>
<path d="M244.5 409.2H243.9V430.5H244.5V409.2Z" fill="#FFDC8C"/>
<path d="M246.7 409.2H246.1V430.5H246.7V409.2Z" fill="#FFDC8C"/>
<path d="M248.8 409.2H248.2V430.5H248.8V409.2Z" fill="#FFDC8C"/>
<path d="M250.9 409.2H250.3V430.5H250.9V409.2Z" fill="#FFDC8C"/>
<path d="M253.1 409.2H252.5V430.5H253.1V409.2Z" fill="#FFDC8C"/>
<path d="M255.2 409.2H254.6V430.5H255.2V409.2Z" fill="#FFDC8C"/>
<path d="M257.4 409.2H256.8V430.5H257.4V409.2Z" fill="#FFDC8C"/>
<path d="M259.5 409.2H258.9V430.5H259.5V409.2Z" fill="#FFDC8C"/>
<path d="M261.6 409.2H261V430.5H261.6V409.2Z" fill="#FFDC8C"/>
<path d="M263.8 409.2H263.2V430.5H263.8V409.2Z" fill="#FFDC8C"/>
<path d="M267.5 396.6H266.9V428.4H267.5V396.6Z" fill="#FFDC8C"/>
<path d="M269.7 396.1H269.1V421.1H269.7V396.1Z" fill="#FFDC8C"/>
<path d="M220.2 420.2C247.759 420.2 270.1 412.678 270.1 403.4C270.1 394.122 247.759 386.6 220.2 386.6C192.641 386.6 170.3 394.122 170.3 403.4C170.3 412.678 192.641 420.2 220.2 420.2Z" fill="#D19902"/>
<path d="M220.2 420.2C247.759 420.2 270.1 412.678 270.1 403.4C270.1 394.122 247.759 386.6 220.2 386.6C192.641 386.6 170.3 394.122 170.3 403.4C170.3 412.678 192.641 420.2 220.2 420.2Z" fill="url(#paint25_linear)"/>
<path d="M267.5 403.4C267.5 412.2 246.3 419.3 220.2 419.3C194.1 419.3 172.9 412.2 172.9 403.4C172.9 394.6 194.1 387.5 220.2 387.5C246.4 387.5 267.5 394.6 267.5 403.4Z" fill="#FA870A"/>
<path d="M220.2 417.3C243.064 417.3 261.6 411.077 261.6 403.4C261.6 395.723 243.064 389.5 220.2 389.5C197.335 389.5 178.8 395.723 178.8 403.4C178.8 411.077 197.335 417.3 220.2 417.3Z" fill="#FA870A"/>
<path d="M220.2 416.6C241.85 416.6 259.4 410.69 259.4 403.4C259.4 396.11 241.85 390.2 220.2 390.2C198.55 390.2 181 396.11 181 403.4C181 410.69 198.55 416.6 220.2 416.6Z" fill="url(#paint26_linear)"/>
<path d="M236.1 406.5C236.1 408.2 234.6 409.6 231.6 410.5C228.6 411.4 224.1 411.9 218 411.9C214.9 411.9 212.3 411.8 210.1 411.6C207.9 411.4 205.9 411.2 204 410.9V407C206.2 407.4 208.6 407.7 211.3 408C214 408.3 216.4 408.4 218.4 408.4C222.6 408.4 224.7 407.9 224.7 406.9C224.7 406.5 224.4 406.2 223.9 406C223.3 405.8 222.4 405.5 221 405.2C219.6 404.9 217.8 404.6 215.5 404.2C212.2 403.7 209.8 403.1 208.3 402.7C206.8 402.2 205.7 401.7 205 401.1C204.3 400.5 204 399.8 204 398.9C204 397.4 205.5 396.2 208.4 395.4C211.3 394.6 215.5 394.2 220.8 394.2C225.9 394.2 230.9 394.6 235.7 395.5L232.2 398.8C230.1 398.4 228.1 398.1 226.2 397.9C224.4 397.7 222.5 397.6 220.5 397.6C217.1 397.6 215.4 398 215.4 398.7C215.4 399.1 216 399.5 217.1 399.8C218.2 400.1 220.6 400.6 224.3 401.2C227.6 401.7 230.1 402.2 231.6 402.7C233.1 403.2 234.3 403.7 235 404.3C235.7 404.9 236.1 405.6 236.1 406.5Z" fill="#FFDC8C"/>
<path d="M270.2 389.9V396.9L263.2 394.6L270.2 389.9Z" fill="#FA870A"/>
<path d="M170.3 389.9V396.3L176.7 394L170.3 389.9Z" fill="#FA870A"/>
<path d="M270.2 396.3C270.2 405.6 247.8 413.1 220.3 413.1C192.7 413.1 170.4 405.6 170.4 396.3C170.4 387 192.8 379.5 220.3 379.5C247.8 379.6 270.2 387.1 270.2 396.3Z" fill="#FA870A"/>
<path d="M172.1 392.2H171.5V403.8H172.1V392.2Z" fill="#FFDC8C"/>
<path d="M174.4 393.5H173.8V405.1H174.4V393.5Z" fill="#FFDC8C"/>
<path d="M176.5 385.2H175.9V408.8H176.5V385.2Z" fill="#FFDC8C"/>
<path d="M178.8 386.4H178.2V410H178.8V386.4Z" fill="#FFDC8C"/>
<path d="M181 387.6H180.4V411.2H181V387.6Z" fill="#FFDC8C"/>
<path d="M183.3 388.9H182.7V412.5H183.3V388.9Z" fill="#FFDC8C"/>
<path d="M185.6 390.1H185V413.7H185.6V390.1Z" fill="#FFDC8C"/>
<path d="M192.4 398.2H191.8V412.6H192.4V398.2Z" fill="#FFDC8C"/>
<path d="M265.6 390.8H265V412.1H265.6V390.8Z" fill="#FFDC8C"/>
<path d="M187.8 391.4H187.2V415H187.8V391.4Z" fill="#FFDC8C"/>
<path d="M190.1 392.6H189.5V416.2H190.1V392.6Z" fill="#FFDC8C"/>
<path d="M194.6 397.8H194V417.2H194.6V397.8Z" fill="#FFDC8C"/>
<path d="M196.9 398.9H196.3V418.3H196.9V398.9Z" fill="#FFDC8C"/>
<path d="M199.1 399.9H198.5V419.3H199.1V399.9Z" fill="#FFDC8C"/>
<path d="M201.4 400.9H200.8V420.3H201.4V400.9Z" fill="#FFDC8C"/>
<path d="M203.6 392.8H203V417.7H203.6V392.8Z" fill="#FFDC8C"/>
<path d="M205.5 395.4H204.9V420.3H205.5V395.4Z" fill="#FFDC8C"/>
<path d="M208.2 395.6H207.6V416.9H208.2V395.6Z" fill="#FFDC8C"/>
<path d="M210.3 395.6H209.7V416.9H210.3V395.6Z" fill="#FFDC8C"/>
<path d="M212.5 395.6H211.9V416.9H212.5V395.6Z" fill="#FFDC8C"/>
<path d="M214.6 395.6H214V416.9H214.6V395.6Z" fill="#FFDC8C"/>
<path d="M216.7 395.6H216.1V416.9H216.7V395.6Z" fill="#FFDC8C"/>
<path d="M218.9 395.6H218.3V416.9H218.9V395.6Z" fill="#FFDC8C"/>
<path d="M221 395.6H220.4V416.9H221V395.6Z" fill="#FFDC8C"/>
<path d="M223.2 395.6H222.6V416.9H223.2V395.6Z" fill="#FFDC8C"/>
<path d="M225.3 395.6H224.7V416.9H225.3V395.6Z" fill="#FFDC8C"/>
<path d="M227.4 395.6H226.8V416.9H227.4V395.6Z" fill="#FFDC8C"/>
<path d="M229.6 395.6H229V416.9H229.6V395.6Z" fill="#FFDC8C"/>
<path d="M231.7 395.6H231.1V416.9H231.7V395.6Z" fill="#FFDC8C"/>
<path d="M233.8 395.6H233.2V416.9H233.8V395.6Z" fill="#FFDC8C"/>
<path d="M236 395.6H235.4V416.9H236V395.6Z" fill="#FFDC8C"/>
<path d="M238.1 395.6H237.5V416.9H238.1V395.6Z" fill="#FFDC8C"/>
<path d="M240.3 395.6H239.7V416.9H240.3V395.6Z" fill="#FFDC8C"/>
<path d="M242.4 395.6H241.8V416.9H242.4V395.6Z" fill="#FFDC8C"/>
<path d="M244.5 395.6H243.9V416.9H244.5V395.6Z" fill="#FFDC8C"/>
<path d="M246.7 395.6H246.1V416.9H246.7V395.6Z" fill="#FFDC8C"/>
<path d="M248.8 395.6H248.2V416.9H248.8V395.6Z" fill="#FFDC8C"/>
<path d="M250.9 395.6H250.3V416.9H250.9V395.6Z" fill="#FFDC8C"/>
<path d="M253.1 395.6H252.5V416.9H253.1V395.6Z" fill="#FFDC8C"/>
<path d="M255.2 395.6H254.6V416.9H255.2V395.6Z" fill="#FFDC8C"/>
<path d="M257.4 395.6H256.8V416.9H257.4V395.6Z" fill="#FFDC8C"/>
<path d="M259.5 395.6H258.9V416.9H259.5V395.6Z" fill="#FFDC8C"/>
<path d="M261.6 395.6H261V416.9H261.6V395.6Z" fill="#FFDC8C"/>
<path d="M263.8 395.6H263.2V416.9H263.8V395.6Z" fill="#FFDC8C"/>
<path d="M267.5 383H266.9V414.8H267.5V383Z" fill="#FFDC8C"/>
<path d="M269.7 382.6H269.1V407.6H269.7V382.6Z" fill="#FFDC8C"/>
<path d="M220.2 406.7C247.759 406.7 270.1 399.178 270.1 389.9C270.1 380.622 247.759 373.1 220.2 373.1C192.641 373.1 170.3 380.622 170.3 389.9C170.3 399.178 192.641 406.7 220.2 406.7Z" fill="#D19902"/>
<path d="M220.2 406.7C247.759 406.7 270.1 399.178 270.1 389.9C270.1 380.622 247.759 373.1 220.2 373.1C192.641 373.1 170.3 380.622 170.3 389.9C170.3 399.178 192.641 406.7 220.2 406.7Z" fill="url(#paint27_linear)"/>
<path d="M267.5 389.9C267.5 398.7 246.3 405.8 220.2 405.8C194.1 405.8 172.9 398.7 172.9 389.9C172.9 381.1 194.1 374 220.2 374C246.4 374 267.5 381.1 267.5 389.9Z" fill="#FA870A"/>
<path d="M220.2 403.8C243.064 403.8 261.6 397.577 261.6 389.9C261.6 382.223 243.064 376 220.2 376C197.335 376 178.8 382.223 178.8 389.9C178.8 397.577 197.335 403.8 220.2 403.8Z" fill="#FA870A"/>
<path d="M220.2 403.1C241.85 403.1 259.4 397.19 259.4 389.9C259.4 382.61 241.85 376.7 220.2 376.7C198.55 376.7 181 382.61 181 389.9C181 397.19 198.55 403.1 220.2 403.1Z" fill="url(#paint28_linear)"/>
<path d="M236.1 392.9C236.1 394.6 234.6 396 231.6 396.9C228.6 397.8 224.1 398.3 218 398.3C214.9 398.3 212.3 398.2 210.1 398C207.9 397.8 205.9 397.6 204 397.3V393.5C206.2 393.9 208.6 394.2 211.3 394.5C214 394.8 216.4 394.9 218.4 394.9C222.6 394.9 224.7 394.4 224.7 393.4C224.7 393 224.4 392.7 223.9 392.5C223.3 392.3 222.4 392 221 391.7C219.6 391.4 217.8 391.1 215.5 390.7C212.2 390.2 209.8 389.6 208.3 389.2C206.8 388.7 205.7 388.2 205 387.6C204.3 387 204 386.3 204 385.4C204 383.9 205.5 382.7 208.4 381.9C211.3 381.1 215.5 380.7 220.8 380.7C225.9 380.7 230.9 381.1 235.7 382L232.2 385.3C230.1 384.9 228.1 384.6 226.2 384.4C224.4 384.2 222.5 384.1 220.5 384.1C217.1 384.1 215.4 384.5 215.4 385.2C215.4 385.6 216 386 217.1 386.3C218.2 386.6 220.6 387.1 224.3 387.7C227.6 388.2 230.1 388.7 231.6 389.2C233.1 389.7 234.3 390.2 235 390.8C235.7 391.4 236.1 392.1 236.1 392.9Z" fill="#FFDC8C"/>
<path d="M276.2 192.7C275.7 192.4 275.2 192.1 274.8 191.8C275.2 192.2 275.7 192.5 276.2 192.7Z" fill="#D19902"/>
<path d="M380.2 311.1C380.2 311.1 392 316.5 390.2 327.5C390.2 327.5 401.3 346.8 393.4 359.1C393.4 359.1 392.2 380.1 371.8 381.3C371.8 381.3 333.7 392.9 325 376C316.2 359.1 325 351.6 325 351.6C325 351.6 315.9 335.6 329.7 325C329.7 325 325.3 311.6 335 307.9C344.7 304.2 367.5 289.1 380.2 311.1Z" fill="#00695C"/>
<path d="M363.5 325.5H346.7V358.2H363.5V325.5Z" fill="#FBBE52"/>
<path d="M374.1 349.3C376.1 348.4 378.4 349 380 350.5C384.7 354.9 398 367.9 406.7 384.9C417.5 405.9 370.2 394 370.2 394L374 383.6L392.4 383.8L373 362.7C370.6 360.1 369.6 356.3 370.8 353C371.4 351.5 372.4 350 374.1 349.3Z" fill="url(#paint29_linear)"/>
<path d="M339.1 349.3C337.1 348.4 334.8 349 333.2 350.5C328.5 354.9 315.2 367.9 306.5 384.9C295.7 405.9 343 394 343 394L339.2 383.6L320.8 383.8L340.1 362.9C342.5 360.3 343.5 356.5 342.3 353.2C341.8 351.5 340.8 350 339.1 349.3Z" fill="url(#paint30_linear)"/>
<path d="M386.1 435.9L330.2 436.3C335.3 423.4 336.1 413 336 406C335.9 401.5 335.5 398.6 332.8 379.4C331.6 370.7 330.7 363.8 330.1 359.5C330.1 358.4 330.3 354 333.3 350.6C335.3 348.3 337.9 346.9 340.9 346.9H371.7C377.7 346.9 382.5 352.5 382.5 359.5C382.3 364.9 381.6 372.8 379.7 382.1C378 390.4 376.6 394.1 375.7 398.2C374 406.4 377.7 418.1 386.1 435.9Z" fill="url(#paint31_linear)"/>
<path d="M342.3 347L356.9 377.8L367.6 346.8L342.3 347Z" fill="#FBBE52"/>
<path d="M363.5 325.5V341.5C361 343.5 358.2 344.8 355.3 344.8C352.2 344.8 349.3 343.5 346.8 341.3V325.6H363.5V325.5Z" fill="#F2AA41"/>
<path d="M374.2 312.9C374.2 324.5 365.7 340 355.3 340C344.9 340 336.4 324.4 336.4 312.9C336.4 301.3 344.9 292 355.3 292C365.7 292 374.2 301.4 374.2 312.9Z" fill="#FBBE52"/>
<path d="M355.3 305.7C355.3 305.7 356.8 319.3 364.1 315.9C364.1 315.9 367.9 324.8 375.8 319.5C375.8 319.5 383.3 303.2 372.7 295.5C372.7 295.5 356.6 277.4 340.2 295.5C340.2 295.5 327.7 304 335.4 321.2C335.4 321.2 341.2 320.3 341.3 314.2C341.3 314.2 352.9 317.7 355.3 305.7Z" fill="#00695C"/>
<path d="M351.4 482.5H341V500H351.4V482.5Z" fill="#F4D2C1"/>
<path d="M351.4 500.1C351.4 500.1 358.2 525.3 346.2 525C334.2 524.7 341 500.1 341 500.1C341 500.1 346.3 490.8 351.4 500.1Z" fill="#00695C"/>
<path d="M351.4 491.3C351.4 491.3 357.5 497.6 355 501.2C352.5 504.8 351.4 507.7 351.4 507.7V491.3Z" fill="#00695C"/>
<path d="M363.146 500.079H373.546V482.579H363.146V500.079Z" fill="#F4D2C1"/>
<path d="M363.1 500.1C363.1 500.1 356.3 525.3 368.3 525C380.3 524.7 373.5 500.1 373.5 500.1C373.5 500.1 368.2 490.8 363.1 500.1Z" fill="#00695C"/>
<path d="M363.1 491.3C363.1 491.3 357 497.6 359.5 501.2C362 504.8 363.1 507.7 363.1 507.7V491.3Z" fill="#00695C"/>
<path d="M368.2 467.1H343.4C335.3 467.1 328.7 460.5 328.7 452.4L329.8 431.3H382.9V452.4C382.8 460.6 376.3 467.1 368.2 467.1Z" fill="url(#paint32_linear)"/>
<path d="M370 402.7C370 402.7 381.8 404.3 385.6 437.8C386.4 445.4 387.6 459.1 378.5 465C369.3 470.9 363.3 415.7 370 402.7Z" fill="url(#paint33_linear)"/>
<path d="M362.6 492.7C362.6 492.7 344.7 406.4 366.7 402.7C388.6 399 376 492.7 376 492.7H362.6Z" fill="url(#paint34_linear)"/>
<path d="M344.3 402.7C344.3 402.7 332.5 404.3 328.7 437.8C327.9 445.4 326.7 459.1 335.8 465C344.9 470.9 351 415.7 344.3 402.7Z" fill="url(#paint35_linear)"/>
<path d="M340.5 492.7C340.5 492.7 323.8 406.4 344.3 402.7C364.8 399 353 492.7 353 492.7H340.5Z" fill="url(#paint36_linear)"/>
<path d="M385.8 411.5H324.4V366.4C324.4 365.6 325 365 325.8 365H384.4C385.2 365 385.8 365.6 385.8 366.4V411.5Z" fill="#00695C"/>
<path d="M89.0997 197.4L86.9997 205.4C86.8997 205.9 86.1997 205.9 86.0997 205.4L83.9997 197.4C83.9997 197.2 83.7997 197.1 83.6997 197.1L75.6997 195C75.1997 194.9 75.1997 194.2 75.6997 194.1L83.6997 192C83.8997 192 83.9997 191.8 83.9997 191.7L86.0997 183.7C86.1997 183.2 86.8997 183.2 86.9997 183.7L89.0997 191.7C89.0997 191.9 89.2997 192 89.3997 192L97.3997 194.1C97.8997 194.2 97.8997 194.9 97.3997 195L89.3997 197.1C89.2997 197.1 89.1997 197.2 89.0997 197.4Z" fill="#FFDC8C"/>
<path d="M124.5 189.5L123.3 193.9C123.2 194.2 122.9 194.2 122.8 193.9L121.6 189.5C121.6 189.4 121.5 189.3 121.4 189.3L117 188.1C116.7 188 116.7 187.7 117 187.6L121.4 186.4C121.5 186.4 121.6 186.3 121.6 186.2L122.8 181.8C122.9 181.5 123.2 181.5 123.3 181.8L124.5 186.2C124.5 186.3 124.6 186.4 124.7 186.4L129.1 187.6C129.4 187.7 129.4 188 129.1 188.1L124.7 189.3C124.6 189.3 124.5 189.4 124.5 189.5Z" fill="#FFDC8C"/>
<path d="M111.8 209.6L110.6 214C110.5 214.3 110.2 214.3 110.1 214L108.9 209.6C108.9 209.5 108.8 209.4 108.7 209.4L104.3 208.2C104 208.1 104 207.8 104.3 207.7L108.7 206.5C108.8 206.5 108.9 206.4 108.9 206.3L110.1 201.9C110.2 201.6 110.5 201.6 110.6 201.9L111.8 206.3C111.8 206.4 111.9 206.5 112 206.5L116.4 207.7C116.7 207.8 116.7 208.1 116.4 208.2L112 209.4C111.9 209.4 111.8 209.5 111.8 209.6Z" fill="#FFDC8C"/>
<path d="M165.7 15.7L163.6 23.7C163.5 24.2 162.8 24.2 162.7 23.7L160.6 15.7C160.6 15.5 160.4 15.4 160.3 15.4L152.3 13.3C151.8 13.2 151.8 12.5 152.3 12.4L160.3 10.3C160.5 10.3 160.6 10.1 160.6 10L162.7 2C162.8 1.5 163.5 1.5 163.6 2L165.7 10C165.7 10.2 165.9 10.3 166 10.3L174 12.4C174.5 12.5 174.5 13.2 174 13.3L166 15.4C165.9 15.4 165.8 15.6 165.7 15.7Z" fill="#FFDC8C"/>
<path d="M201.1 7.8L199.9 12.2C199.8 12.5 199.5 12.5 199.4 12.2L198.2 7.8C198.2 7.7 198.1 7.6 198 7.6L193.6 6.4C193.3 6.3 193.3 6 193.6 5.9L198 4.7C198.1 4.7 198.2 4.6 198.2 4.5L199.4 0.1C199.5 -0.2 199.8 -0.2 199.9 0.1L201.1 4.5C201.1 4.6 201.2 4.7 201.3 4.7L205.7 5.9C206 6 206 6.3 205.7 6.4L201.3 7.6C201.2 7.6 201.1 7.7 201.1 7.8Z" fill="#FFDC8C"/>
<path d="M188.4 27.9001L187.2 32.3001C187.1 32.6001 186.8 32.6001 186.7 32.3001L185.5 27.9001C185.5 27.8001 185.4 27.7001 185.3 27.7001L180.9 26.5001C180.6 26.4001 180.6 26.1001 180.9 26.0001L185.3 24.8001C185.4 24.8001 185.5 24.7001 185.5 24.6001L186.7 20.2001C186.8 19.9001 187.1 19.9001 187.2 20.2001L188.4 24.6001C188.4 24.7001 188.5 24.8001 188.6 24.8001L193 26.0001C193.3 26.1001 193.3 26.4001 193 26.5001L188.6 27.7001C188.5 27.7001 188.4 27.8001 188.4 27.9001Z" fill="#FFDC8C"/>
<path d="M483.4 79.3001L481.3 87.3001C481.2 87.8001 480.5 87.8001 480.4 87.3001L478.3 79.3001C478.3 79.1001 478.1 79.0001 478 79.0001L470 76.9001C469.5 76.8001 469.5 76.1001 470 76.0001L478 73.9001C478.2 73.9001 478.3 73.7001 478.3 73.6001L480.4 65.6001C480.5 65.1001 481.2 65.1001 481.3 65.6001L483.4 73.6001C483.4 73.8001 483.6 73.9001 483.7 73.9001L491.7 76.0001C492.2 76.1001 492.2 76.8001 491.7 76.9001L483.7 79.0001C483.6 79.0001 483.4 79.1001 483.4 79.3001Z" fill="#FFDC8C"/>
<path d="M518.8 71.4001L517.6 75.8001C517.5 76.1001 517.2 76.1001 517.1 75.8001L515.9 71.4001C515.9 71.3001 515.8 71.2001 515.7 71.2001L511.3 70.0001C511 69.9001 511 69.6001 511.3 69.5001L515.7 68.3001C515.8 68.3001 515.9 68.2001 515.9 68.1001L517.1 63.7001C517.2 63.4001 517.5 63.4001 517.6 63.7001L518.8 68.1001C518.8 68.2001 518.9 68.3001 519 68.3001L523.4 69.5001C523.7 69.6001 523.7 69.9001 523.4 70.0001L519 71.2001C518.9 71.2001 518.8 71.3001 518.8 71.4001Z" fill="#FFDC8C"/>
<path d="M506.1 91.5002L504.9 95.9002C504.8 96.2002 504.5 96.2002 504.4 95.9002L503.2 91.5002C503.2 91.4002 503.1 91.3002 503 91.3002L498.6 90.1002C498.3 90.0002 498.3 89.7002 498.6 89.6002L503 88.4002C503.1 88.4002 503.2 88.3002 503.2 88.2002L504.4 83.8002C504.5 83.5002 504.8 83.5002 504.9 83.8002L506.1 88.2002C506.1 88.3002 506.2 88.4002 506.3 88.4002L510.7 89.6002C511 89.7002 511 90.0002 510.7 90.1002L506.3 91.3002C506.2 91.3002 506.1 91.4002 506.1 91.5002Z" fill="#FFDC8C"/>
<path d="M496.6 311.2C509.854 311.2 520.6 300.455 520.6 287.2C520.6 273.945 509.854 263.2 496.6 263.2C483.345 263.2 472.6 273.945 472.6 287.2C472.6 300.455 483.345 311.2 496.6 311.2Z" fill="url(#paint37_linear)"/>
<path d="M492.8 299.5C492.2 299.5 491.6 299.3 491.1 298.8L481.3 289.2C480.4 288.3 480.4 286.8 481.3 285.9C482.2 285 483.7 285 484.6 285.9L492.6 293.8L508.3 276.2C509.2 275.2 510.7 275.1 511.6 276C512.6 276.9 512.7 278.4 511.8 279.3L494.5 298.7C494.1 299.2 493.5 299.5 492.8 299.5Z" fill="white"/>
<path d="M417.2 22.5H368C362.4 22.5 357.9 27 357.9 32.6V48.9C357.9 49.8 358 50.7 358.1 51.6C357.9 51.6 357.9 51.6 357.9 51.6L353.9 61.4C352.2 65.7 356.2 70 360.6 68.6L371.1 65.2C372.3 65.5 373.5 65.6 374.7 65.6H417.1C422.7 65.6 427.2 61.1 427.2 55.5V32.5C427.3 27.1 422.8 22.5 417.2 22.5Z" fill="url(#paint38_linear)"/>
<path d="M417.2 35.3999H369.5C368.7 35.3999 368 34.6999 368 33.8999C368 33.0999 368.7 32.3999 369.5 32.3999H417.2C418 32.3999 418.7 33.0999 418.7 33.8999C418.7 34.6999 418 35.3999 417.2 35.3999Z" fill="white"/>
<path d="M417.2 44.3999H369.5C368.7 44.3999 368 43.6999 368 42.8999C368 42.0999 368.7 41.3999 369.5 41.3999H417.2C418 41.3999 418.7 42.0999 418.7 42.8999C418.7 43.7999 418 44.3999 417.2 44.3999Z" fill="white"/>
<path d="M417.2 53.5H369.5C368.7 53.5 368 52.8 368 52C368 51.2 368.7 50.5 369.5 50.5H417.2C418 50.5 418.7 51.2 418.7 52C418.7 52.8 418 53.5 417.2 53.5Z" fill="white"/>
<path d="M432 42.5H382.9C377.3 42.5 372.8 47 372.8 52.6V68.9C372.8 69.8 372.9 70.7 373 71.6C372.8 71.6 372.8 71.6 372.8 71.6L368.8 81.4C367.1 85.7 371.1 90 375.5 88.6L386 85.2C387.2 85.5 388.4 85.6 389.6 85.6H432C437.6 85.6 442.1 81.1 442.1 75.5V52.5C442.2 47 437.6 42.5 432 42.5Z" fill="url(#paint39_linear)"/>
<path d="M432.1 55.3999H384.4C383.6 55.3999 382.9 54.6999 382.9 53.8999C382.9 53.0999 383.6 52.3999 384.4 52.3999H432.1C432.9 52.3999 433.6 53.0999 433.6 53.8999C433.6 54.6999 432.9 55.3999 432.1 55.3999Z" fill="white"/>
<path d="M432.1 64.3999H384.4C383.6 64.3999 382.9 63.6999 382.9 62.8999C382.9 62.0999 383.6 61.3999 384.4 61.3999H432.1C432.9 61.3999 433.6 62.0999 433.6 62.8999C433.6 63.7999 432.9 64.3999 432.1 64.3999Z" fill="white"/>
<path d="M432.1 73.5H384.4C383.6 73.5 382.9 72.8 382.9 72C382.9 71.2 383.6 70.5 384.4 70.5H432.1C432.9 70.5 433.6 71.2 433.6 72C433.6 72.8 432.9 73.5 432.1 73.5Z" fill="white"/>
</g>
<defs>
<linearGradient id="paint0_linear" x1="299.761" y1="421.474" x2="562.731" y2="421.474" gradientUnits="userSpaceOnUse">
<stop offset="0.0793651" stop-color="#00695C"/>
<stop offset="0.3835" stop-color="#007A6D"/>
<stop offset="0.9247" stop-color="#009688"/>
</linearGradient>
<linearGradient id="paint1_linear" x1="327.312" y1="343.856" x2="376.147" y2="343.856" gradientUnits="userSpaceOnUse">
<stop offset="0.00529099" stop-color="#FBBE52"/>
<stop offset="0.2722" stop-color="#FABB54"/>
<stop offset="0.3968" stop-color="#F9B656"/>
<stop offset="0.8783" stop-color="#FC952E"/>
</linearGradient>
<linearGradient id="paint2_linear" x1="407.605" y1="321.32" x2="456.448" y2="321.32" gradientUnits="userSpaceOnUse">
<stop offset="0.00529099" stop-color="#FBBE52"/>
<stop offset="0.2722" stop-color="#FABB54"/>
<stop offset="0.3968" stop-color="#F9B656"/>
<stop offset="0.8783" stop-color="#FC952E"/>
</linearGradient>
<linearGradient id="paint3_linear" x1="487.899" y1="298.785" x2="536.734" y2="298.785" gradientUnits="userSpaceOnUse">
<stop offset="0.00529099" stop-color="#FBBE52"/>
<stop offset="0.2722" stop-color="#FABB54"/>
<stop offset="0.3968" stop-color="#F9B656"/>
<stop offset="0.8783" stop-color="#FC952E"/>
</linearGradient>
<linearGradient id="paint4_linear" x1="457.026" y1="284.026" x2="552.636" y2="284.026" gradientUnits="userSpaceOnUse">
<stop offset="0.0793651" stop-color="#00695C"/>
<stop offset="0.3835" stop-color="#007A6D"/>
<stop offset="0.9247" stop-color="#009688"/>
</linearGradient>
<linearGradient id="paint5_linear" x1="457.611" y1="373.961" x2="617.841" y2="373.961" gradientUnits="userSpaceOnUse">
<stop offset="0.0793651" stop-color="#00695C"/>
<stop offset="0.3835" stop-color="#007A6D"/>
<stop offset="0.9247" stop-color="#009688"/>
</linearGradient>
<linearGradient id="paint6_linear" x1="438.32" y1="259.363" x2="435.98" y2="208.881" gradientUnits="userSpaceOnUse">
<stop offset="0.0793651" stop-color="#00695C"/>
<stop offset="0.3835" stop-color="#007A6D"/>
<stop offset="0.9247" stop-color="#009688"/>
</linearGradient>
<linearGradient id="paint7_linear" x1="532.891" y1="246.234" x2="320.49" y2="114.054" gradientUnits="userSpaceOnUse">
<stop offset="0.0996126" stop-color="#BFE1D7"/>
<stop offset="0.4251" stop-color="#B7DDD2"/>
<stop offset="0.9153" stop-color="#A2D4C5"/>
</linearGradient>
<linearGradient id="paint8_linear" x1="173.7" y1="241.018" x2="346.889" y2="241.018" gradientUnits="userSpaceOnUse">
<stop offset="0.0793651" stop-color="#00695C"/>
<stop offset="0.3835" stop-color="#007A6D"/>
<stop offset="0.9247" stop-color="#009688"/>
</linearGradient>
<linearGradient id="paint9_linear" x1="338.003" y1="394.749" x2="183.844" y2="94.0316" gradientUnits="userSpaceOnUse">
<stop offset="0.0996126" stop-color="#BFE1D7"/>
<stop offset="0.4251" stop-color="#B7DDD2"/>
<stop offset="0.9153" stop-color="#A2D4C5"/>
</linearGradient>
<linearGradient id="paint10_linear" x1="177.743" y1="162.055" x2="343.455" y2="162.055" gradientUnits="userSpaceOnUse">
<stop offset="0.0996126" stop-color="#BFE1D7"/>
<stop offset="0.4251" stop-color="#B7DDD2"/>
<stop offset="0.9153" stop-color="#A2D4C5"/>
</linearGradient>
<linearGradient id="paint11_linear" x1="259.418" y1="266.606" x2="259.418" y2="299.444" gradientUnits="userSpaceOnUse">
<stop offset="0.2222" stop-color="#00695C"/>
<stop offset="0.418" stop-color="#006E61"/>
<stop offset="0.6588" stop-color="#007D70"/>
<stop offset="0.9206" stop-color="#009688"/>
</linearGradient>
<linearGradient id="paint12_linear" x1="197.036" y1="290.759" x2="321.799" y2="290.759" gradientUnits="userSpaceOnUse">
<stop offset="0.0996126" stop-color="#BFE1D7"/>
<stop offset="0.4251" stop-color="#B7DDD2"/>
<stop offset="0.9153" stop-color="#A2D4C5"/>
</linearGradient>
<linearGradient id="paint13_linear" x1="206.292" y1="239.098" x2="317.648" y2="239.098" gradientUnits="userSpaceOnUse">
<stop offset="0.00529099" stop-color="#FBBE52"/>
<stop offset="0.2722" stop-color="#FABB54"/>
<stop offset="0.3968" stop-color="#F9B656"/>
<stop offset="0.8783" stop-color="#FC952E"/>
</linearGradient>
<linearGradient id="paint14_linear" x1="217.22" y1="244.372" x2="306.72" y2="244.372" gradientUnits="userSpaceOnUse">
<stop offset="0.00529099" stop-color="#FBBE52"/>
<stop offset="0.2722" stop-color="#FABB54"/>
<stop offset="0.3968" stop-color="#F9B656"/>
<stop offset="0.8783" stop-color="#FC952E"/>
</linearGradient>
<linearGradient id="paint15_linear" x1="170.31" y1="471.107" x2="270.17" y2="471.107" gradientUnits="userSpaceOnUse">
<stop offset="0.00529099" stop-color="#FBBE52"/>
<stop offset="0.2722" stop-color="#FABB54"/>
<stop offset="0.3968" stop-color="#F9B656"/>
<stop offset="0.8783" stop-color="#FC952E"/>
</linearGradient>
<linearGradient id="paint16_linear" x1="181.063" y1="471.107" x2="259.418" y2="471.107" gradientUnits="userSpaceOnUse">
<stop offset="0.00529099" stop-color="#FBBE52"/>
<stop offset="0.2722" stop-color="#FABB54"/>
<stop offset="0.3968" stop-color="#F9B656"/>
<stop offset="0.8783" stop-color="#FC952E"/>
</linearGradient>
<linearGradient id="paint17_linear" x1="170.31" y1="457.567" x2="270.17" y2="457.567" gradientUnits="userSpaceOnUse">
<stop offset="0.00529099" stop-color="#FBBE52"/>
<stop offset="0.2722" stop-color="#FABB54"/>
<stop offset="0.3968" stop-color="#F9B656"/>
<stop offset="0.8783" stop-color="#FC952E"/>
</linearGradient>
<linearGradient id="paint18_linear" x1="181.063" y1="457.568" x2="259.418" y2="457.568" gradientUnits="userSpaceOnUse">
<stop offset="0.00529099" stop-color="#FBBE52"/>
<stop offset="0.2722" stop-color="#FABB54"/>
<stop offset="0.3968" stop-color="#F9B656"/>
<stop offset="0.8783" stop-color="#FC952E"/>
</linearGradient>
<linearGradient id="paint19_linear" x1="170.31" y1="444.028" x2="270.17" y2="444.028" gradientUnits="userSpaceOnUse">
<stop offset="0.00529099" stop-color="#FBBE52"/>
<stop offset="0.2722" stop-color="#FABB54"/>
<stop offset="0.3968" stop-color="#F9B656"/>
<stop offset="0.8783" stop-color="#FC952E"/>
</linearGradient>
<linearGradient id="paint20_linear" x1="181.063" y1="444.028" x2="259.418" y2="444.028" gradientUnits="userSpaceOnUse">
<stop offset="0.00529099" stop-color="#FBBE52"/>
<stop offset="0.2722" stop-color="#FABB54"/>
<stop offset="0.3968" stop-color="#F9B656"/>
<stop offset="0.8783" stop-color="#FC952E"/>
</linearGradient>
<linearGradient id="paint21_linear" x1="170.31" y1="430.488" x2="270.17" y2="430.488" gradientUnits="userSpaceOnUse">
<stop offset="0.00529099" stop-color="#FBBE52"/>
<stop offset="0.2722" stop-color="#FABB54"/>
<stop offset="0.3968" stop-color="#F9B656"/>
<stop offset="0.8783" stop-color="#FC952E"/>
</linearGradient>
<linearGradient id="paint22_linear" x1="181.063" y1="430.488" x2="259.418" y2="430.488" gradientUnits="userSpaceOnUse">
<stop offset="0.00529099" stop-color="#FBBE52"/>
<stop offset="0.2722" stop-color="#FABB54"/>
<stop offset="0.3968" stop-color="#F9B656"/>
<stop offset="0.8783" stop-color="#FC952E"/>
</linearGradient>
<linearGradient id="paint23_linear" x1="170.31" y1="416.948" x2="270.17" y2="416.948" gradientUnits="userSpaceOnUse">
<stop offset="0.00529099" stop-color="#FBBE52"/>
<stop offset="0.2722" stop-color="#FABB54"/>
<stop offset="0.3968" stop-color="#F9B656"/>
<stop offset="0.8783" stop-color="#FC952E"/>
</linearGradient>
<linearGradient id="paint24_linear" x1="181.063" y1="416.948" x2="259.418" y2="416.948" gradientUnits="userSpaceOnUse">
<stop offset="0.00529099" stop-color="#FBBE52"/>
<stop offset="0.2722" stop-color="#FABB54"/>
<stop offset="0.3968" stop-color="#F9B656"/>
<stop offset="0.8783" stop-color="#FC952E"/>
</linearGradient>
<linearGradient id="paint25_linear" x1="170.31" y1="403.409" x2="270.17" y2="403.409" gradientUnits="userSpaceOnUse">
<stop offset="0.00529099" stop-color="#FBBE52"/>
<stop offset="0.2722" stop-color="#FABB54"/>
<stop offset="0.3968" stop-color="#F9B656"/>
<stop offset="0.8783" stop-color="#FC952E"/>
</linearGradient>
<linearGradient id="paint26_linear" x1="181.063" y1="403.409" x2="259.418" y2="403.409" gradientUnits="userSpaceOnUse">
<stop offset="0.00529099" stop-color="#FBBE52"/>
<stop offset="0.2722" stop-color="#FABB54"/>
<stop offset="0.3968" stop-color="#F9B656"/>
<stop offset="0.8783" stop-color="#FC952E"/>
</linearGradient>
<linearGradient id="paint27_linear" x1="170.31" y1="389.869" x2="270.17" y2="389.869" gradientUnits="userSpaceOnUse">
<stop offset="0.00529099" stop-color="#FBBE52"/>
<stop offset="0.2722" stop-color="#FABB54"/>
<stop offset="0.3968" stop-color="#F9B656"/>
<stop offset="0.8783" stop-color="#FC952E"/>
</linearGradient>
<linearGradient id="paint28_linear" x1="181.063" y1="389.869" x2="259.418" y2="389.869" gradientUnits="userSpaceOnUse">
<stop offset="0.00529099" stop-color="#FBBE52"/>
<stop offset="0.2722" stop-color="#FABB54"/>
<stop offset="0.3968" stop-color="#F9B656"/>
<stop offset="0.8783" stop-color="#FC952E"/>
</linearGradient>
<linearGradient id="paint29_linear" x1="370.23" y1="373.037" x2="408.331" y2="373.037" gradientUnits="userSpaceOnUse">
<stop offset="0.0996126" stop-color="#BFE1D7"/>
<stop offset="0.4251" stop-color="#B7DDD2"/>
<stop offset="0.9153" stop-color="#A2D4C5"/>
</linearGradient>
<linearGradient id="paint30_linear" x1="304.862" y1="373.037" x2="342.963" y2="373.037" gradientUnits="userSpaceOnUse">
<stop offset="0.0996126" stop-color="#BFE1D7"/>
<stop offset="0.4251" stop-color="#B7DDD2"/>
<stop offset="0.9153" stop-color="#A2D4C5"/>
</linearGradient>
<linearGradient id="paint31_linear" x1="330.144" y1="391.655" x2="386.081" y2="391.655" gradientUnits="userSpaceOnUse">
<stop offset="0.0996126" stop-color="#BFE1D7"/>
<stop offset="0.4251" stop-color="#B7DDD2"/>
<stop offset="0.9153" stop-color="#A2D4C5"/>
</linearGradient>
<linearGradient id="paint32_linear" x1="317.373" y1="443.869" x2="670.901" y2="485.799" gradientUnits="userSpaceOnUse">
<stop offset="0.2222" stop-color="#00695C"/>
<stop offset="0.418" stop-color="#006E61"/>
<stop offset="0.6588" stop-color="#007D70"/>
<stop offset="0.9206" stop-color="#009688"/>
</linearGradient>
<linearGradient id="paint33_linear" x1="319.299" y1="427.65" x2="672.814" y2="469.579" gradientUnits="userSpaceOnUse">
<stop offset="0.2222" stop-color="#00695C"/>
<stop offset="0.418" stop-color="#006E61"/>
<stop offset="0.6588" stop-color="#007D70"/>
<stop offset="0.9206" stop-color="#009688"/>
</linearGradient>
<linearGradient id="paint34_linear" x1="380.174" y1="491.072" x2="356.075" y2="402.71" gradientUnits="userSpaceOnUse">
<stop offset="0.2222" stop-color="#00695C"/>
<stop offset="0.418" stop-color="#006E61"/>
<stop offset="0.6588" stop-color="#007D70"/>
<stop offset="0.9206" stop-color="#009688"/>
</linearGradient>
<linearGradient id="paint35_linear" x1="318.841" y1="431.486" x2="672.373" y2="473.416" gradientUnits="userSpaceOnUse">
<stop offset="0.2222" stop-color="#00695C"/>
<stop offset="0.418" stop-color="#006E61"/>
<stop offset="0.6588" stop-color="#007D70"/>
<stop offset="0.9206" stop-color="#009688"/>
</linearGradient>
<linearGradient id="paint36_linear" x1="333.29" y1="486.5" x2="354.979" y2="421.433" gradientUnits="userSpaceOnUse">
<stop offset="0.2222" stop-color="#00695C"/>
<stop offset="0.418" stop-color="#006E61"/>
<stop offset="0.6588" stop-color="#007D70"/>
<stop offset="0.9206" stop-color="#009688"/>
</linearGradient>
<linearGradient id="paint37_linear" x1="472.587" y1="287.196" x2="520.528" y2="287.196" gradientUnits="userSpaceOnUse">
<stop offset="0.0793651" stop-color="#00695C"/>
<stop offset="0.3835" stop-color="#007A6D"/>
<stop offset="0.9247" stop-color="#009688"/>
</linearGradient>
<linearGradient id="paint38_linear" x1="353.473" y1="45.7747" x2="427.323" y2="45.7747" gradientUnits="userSpaceOnUse">
<stop offset="0.0793651" stop-color="#00695C"/>
<stop offset="0.3835" stop-color="#007A6D"/>
<stop offset="0.9247" stop-color="#009688"/>
</linearGradient>
<linearGradient id="paint39_linear" x1="368.324" y1="65.7702" x2="442.173" y2="65.7702" gradientUnits="userSpaceOnUse">
<stop offset="0.0996126" stop-color="#BFE1D7"/>
<stop offset="0.4251" stop-color="#B7DDD2"/>
<stop offset="0.9153" stop-color="#A2D4C5"/>
</linearGradient>
<clipPath id="clip0">
<rect width="652" height="525" fill="white"/>
</clipPath>
</defs>
</svg>
