<svg width="550" height="440" viewBox="0 0 550 440" fill="none" xmlns="http://www.w3.org/2000/svg">
<g clip-path="url(#clip0)">
<path d="M540.3 71.2C530.8 50 511.7 31.7 488.1 27.4C459.6 22.2 431.6 37.6 408.9 54.8C386.1 72 364.1 92.1 336 99C285.8 111.3 235.8 77.6 184 75C150.2 73.3 115.9 85.9 91.9003 108.7C2.30032 193.8 41.6003 362.4 138.3 405.7C216.3 440.7 328.3 457.9 399.9 412.3C468.2 368.8 536.5 235.7 547.5 157.5C548.4 151.4 549 145.2 549.5 139.1C551 116.2 549.8 92.4 540.3 71.2Z" fill="#D5EFE5"/>
<path d="M132.4 232.1C129 239.5 126.1 249.6 124.4 259.6L116.4 222.4C126.6 225.8 147.3 200.8 154.9 184.2C162.6 167.3 157.7 148.3 150.7 145.4C146 143.4 126.4 150.9 118.7 167.8C115.2 175.6 112.2 186.8 110.9 197.1L102.7 159.4C102.8 159.3 102.9 159.2 103.1 159.1C110.2 160.6 123.9 144 128.9 132.9C134.1 121.4 130.8 108.4 126 106.4C122.8 105 109.4 110.2 104.2 121.7C101.8 127 99.7004 134.7 98.9004 141.7L93.5004 116.6C93.7004 116.6 93.9004 116.6 94.1004 116.5C99.3004 115 99.2004 98.7998 96.7004 89.9998C94.3004 81.5998 86.5004 75.9998 83.0004 77.0998C80.6004 77.7998 75.7004 86.7998 78.1004 95.4998C80.4004 103.5 87.7004 115.9 92.8004 116.7C94.0004 123.9 95.6004 133.3 97.5004 144.4C92.3004 138.8 85.1004 133.3 79.3004 130.3C68.1004 124.5 55.0004 127.2 52.7004 131.8C51.2004 135 55.6004 148.5 66.8004 154.3C76.0004 159.1 92.6004 163 100.2 160.7C102.8 175.9 105.7 192.9 108.6 210.2C102.1 199.7 86.6004 186.7 75.1004 180.8C58.6004 172.3 39.4004 176.2 36.1004 183C33.9004 187.6 40.4004 207.5 56.8004 216.1C73.0004 224.4 104.6 231.2 110.6 222.2C114 241.9 117.3 261.6 120.4 279.3C112.7 267.5 95.7004 253.4 82.9004 246.8C64.2004 237.1 42.4004 241.6 38.7004 249.3C36.2004 254.6 43.5004 277.2 62.2004 286.8C80.3004 296.1 115.5 303.7 123 294.2C128 323.2 131.7 343.7 131.9 343.9L141.7 339.9L131.8 294.3C143.9 294.5 165.3 268.4 173.3 250.6C182 231.4 176.4 209.9 168.5 206.6C163.3 204.4 141.1 212.9 132.4 232.1Z" fill="#009688"/>
<path d="M479.5 159C472.9 163.8 465.3 171.1 458.9 178.9L470.4 142.7C477.5 150.8 508 139.4 522.8 128.8C537.8 118 543 99.0999 538.4 92.9999C535.3 88.8999 514.6 85.6999 499.5 96.4999C492.5 101.5 484.4 109.8 478.2 118.1L490 81.2999C490.2 81.2999 490.3 81.1999 490.5 81.1999C495.9 86.0999 516 78.4999 525.9 71.3999C536.2 63.9999 539.7 51.0999 536.6 46.9999C534.5 44.1999 520.4 41.9999 510.1 49.3999C505.3 52.7999 499.8 58.4999 495.5 64.1999L503.3 39.6999C503.5 39.7999 503.7 39.8999 503.9 39.9999C509.1 41.2999 517.1 27.0999 519.3 18.3999C521.5 9.5999 517.5 0.899897 513.9 0.099897C511.5 -0.400103 502.7 4.8999 500.5 13.6999C498.5 21.7999 498.7 36.0999 502.7 39.3999C500.2 46.1999 496.9 55.1999 493 65.6999C491.3 58.2999 487.8 49.8999 484.2 44.3999C477.3 33.7999 464.7 29.5999 460.4 32.4999C457.5 34.4999 454.6 48.4999 461.4 59.0999C467 67.7999 479.4 79.4999 487.2 81.1999C481.9 95.6999 476 111.8 469.9 128.3C469.5 115.9 462.5 96.9999 455.5 86.0999C445.4 70.4999 426.9 64.3999 420.6 68.6999C416.4 71.5999 412.1 92.0999 422.1 107.7C432 123 456.1 144.5 465.7 139.8C458.8 158.6 451.9 177.3 445.8 194.2C445 180.2 437.3 159.4 429.5 147.3C418.1 129.6 397 122.6 389.9 127.5C385.1 130.8 380.2 154.1 391.7 171.7C402.7 188.8 429.5 212.9 440.7 208.3C430.6 236 423.6 255.6 423.7 255.8L434.2 257.2L448.3 212.7C458.7 218.9 490.2 206.9 506 195.5C523.1 183.2 529 161.8 523.7 154.9C520.1 150.4 496.6 146.7 479.5 159Z" fill="#AAD6C9"/>
<path d="M10.4002 196.7C0.60024 204.5 -1.69976 221.2 1.10024 233.1C4.50024 247.3 17.3002 255.8 21.8002 269.3C24.4002 276.9 22.2002 280.6 20.1002 287.9C17.4002 297.2 16.0002 310.5 19.3002 319.9C24.2002 333.9 37.6002 346.4 51.0002 352.6C67.8002 360.4 88.5002 356.5 105.3 365.3C116.8 371.4 122.3 387 134.3 392.2C146.6 397.5 172.2 393.8 174.1 377.5C176.2 359.2 158 346.8 157.3 329.5C156.9 319.6 161.2 309.2 161.3 299C161.4 285.6 159.1 269.6 153.1 257.4C141.8 234.3 121.4 213.1 94.6002 213C88.4002 213 81.7002 214.7 75.5002 213.1C67.6002 211 65.7002 205.6 60.6002 200C53.6002 192.4 39.1002 188.3 28.6002 187.6C20.3002 187.1 16.8002 190.8 10.6002 196.5C11.1002 196 11.7002 195.5 12.2002 195.1" fill="#AAD6C9"/>
<g opacity="0.3">
<g opacity="0.3">
<path opacity="0.3" d="M17.465 203.313L16.3784 204.196L166.777 389.296L167.863 388.413L17.465 203.313Z" fill="#009688"/>
</g>
<g opacity="0.3">
<path opacity="0.3" d="M37.5076 315.941L37.4893 317.341L109.382 318.282L109.4 316.883L37.5076 315.941Z" fill="#009688"/>
</g>
<g opacity="0.3">
<path opacity="0.3" d="M107.573 242.105L106.174 242.15L108.636 317.613L110.035 317.567L107.573 242.105Z" fill="#009688"/>
</g>
<g opacity="0.3">
<path opacity="0.3" d="M15.2343 237.465L14.9575 238.837L50.4444 245.994L50.7211 244.622L15.2343 237.465Z" fill="#009688"/>
</g>
<g opacity="0.3">
<path opacity="0.3" d="M37.8331 201.717L36.4961 202.133L49.9959 245.585L51.3329 245.17L37.8331 201.717Z" fill="#009688"/>
</g>
<g opacity="0.3">
<path opacity="0.3" d="M116.288 356.925L115.851 358.255L151.096 369.834L151.533 368.504L116.288 356.925Z" fill="#009688"/>
</g>
<g opacity="0.3">
<path opacity="0.3" d="M139.23 322.02L137.867 322.339L148.2 366.443L149.563 366.124L139.23 322.02Z" fill="#009688"/>
</g>
</g>
<path d="M505.9 292.6C504.9 284.3 498.4 265.5 490.2 277.3C485.2 284.4 488.5 295.8 485 304C478.1 296.9 460.3 256.6 444.3 273.4C434 284.2 449.8 313.7 454.8 325C451.3 320.6 443 315.6 438.6 321.5C434.6 326.9 441.6 339.7 443.5 345.2C434.8 341.5 428.9 332.2 419.4 338.9C412 344.2 411.9 354.6 412.9 362.5C414 371 416.9 378.8 417 387.5C417.1 397.4 413.5 405.2 412.2 414.9C422.4 394.4 453.4 400 471.7 398.8C481.5 398.1 533.3 395.1 513.8 374.6C510.2 370.8 466.1 366.9 482.8 356.7C490.3 352.1 505.8 357 514.4 356C521.2 355.2 534.9 353.2 539.8 348.4C548.6 340 542.1 327.9 532.8 324.3C524.8 321.2 514.4 324.5 507.4 319.8C513.3 312.8 525.5 315.4 531.7 309.4C539.5 301.9 531.6 297.7 524.2 296.3C535.2 290.9 542.6 272.9 524.2 272.1C517.6 271.8 512.5 275.5 509 280.6C506.6 284.1 503.1 292.1 505.8 292.3C505.1 291.9 504.1 291.1 504 290.2" fill="#AAD6C9"/>
<path d="M441 430.1L441.1 430.5L441.4 431.8L442 434.4L442.3 435.6C442.8 435.6 443.4 435.6 443.9 435.7C447.7 435.9 451.501 435.9 454.201 434.4L453.9 431.6L447.1 430.8L445.9 430.7L441.201 430.1H441Z" fill="#00695C"/>
<path d="M404.9 431.4L405.6 434.9C413.2 437.6 425.1 437.7 440.4 434.8C440.9 434.7 441.5 434.6 442 434.5C442.9 434.3 443.8 434.1 444.7 433.9C447.6 433.3 450.6 432.5 453.8 431.7V431.6L453.2 428.8C453.2 428.7 453.2 428.6 453.1 428.5L452.9 427.5L448 427.9L446.4 428L441.4 428.4L404.9 431.4Z" fill="#025E51"/>
<path d="M453.301 428.7C452.101 429.5 449.901 430.2 447.101 430.8C445.401 431.2 443.501 431.5 441.501 431.8C441.301 431.8 441.101 431.9 441.001 431.9C427.501 433.9 408.201 434.3 405.001 431.3C404.501 428.9 408.101 426.3 414.901 423.5C415.601 423.2 416.301 423 417.001 422.7C417.501 422.5 418.001 422.3 418.601 422.1C419.301 421.8 420.001 421.6 420.801 421.3C421.301 421.1 421.801 420.9 422.401 420.8C423.101 420.5 423.901 420.3 424.701 420C425.601 419.7 426.601 419.4 427.501 419.1C428.501 418.8 429.601 418.5 430.701 418.1C435.901 416.6 439.901 416.4 443.001 417.1C447.501 418.1 450.101 420.8 451.601 423.5C452.401 424.9 452.901 426.2 453.101 427.3C453.201 427.7 453.301 428 453.401 428.3C453.201 428.5 453.201 428.6 453.301 428.7Z" fill="#00695C"/>
<path d="M424.6 420L446.1 427.9L451 429.7L453.7 430.7L455.9 431.5L455.1 416.2L449.3 298.3L446.8 247L445.5 220.7L445.2 214.6L445.1 213.2L431.1 209.8L414 205.6C414.1 205.7 414.1 206.6 414.1 208.1C414.1 209.6 414 211.8 413.9 214.5C413.7 222.2 413.5 234.5 414.5 248.7C418.7 310.9 424.6 420 424.6 420Z" fill="url(#paint0_linear)"/>
<path d="M463.3 430.8L463.1 433.8C460.4 435 457 435.4 453.6 435.3C451.9 435.3 450.2 435.2 448.5 435.1C448.4 435.1 448.3 435.1 448.2 435.1L448.1 433.8L448 431.7V431L447.9 429.5V429H448.1L455.1 429.8L456.1 429.9L456.9 430L463.3 430.8Z" fill="#025E51"/>
<path d="M463.3 430.8C460.3 431.8 457.4 432.7 454.7 433.4C454.1 433.6 453.5 433.7 452.8 433.9C452.6 433.9 451.1 434.6 448.5 435.2C443.3 436.4 433.9 437.7 421.9 434.4V430.5L453.3 427.1L457.2 426.7L460.7 426.3L463.2 426V427.1C463.2 427.2 463.2 427.2 463.2 427.3C463.2 427.4 463.2 427.4 463.2 427.4L463.3 430.8Z" fill="#025E51"/>
<path d="M463.3 427.5C462.2 428.4 460.2 429.2 457.7 429.9C457.5 430 457.2 430 456.9 430.1C456.6 430.2 456.3 430.3 456 430.3C455 430.6 453.9 430.8 452.7 431C452.6 431 452.4 431.1 452.2 431.1C450.8 431.4 449.4 431.6 448 431.8C436.9 433.4 423.8 433.4 421.9 430.5C421.9 427.9 425.4 425 431.6 421.9C432.2 421.6 432.8 421.3 433.5 421C433.7 420.9 433.9 420.8 434.1 420.7C434.4 420.6 434.7 420.4 435 420.3C435.6 420 436.3 419.7 437 419.4C437.5 419.2 437.9 419 438.4 418.8C439.1 418.5 439.8 418.3 440.5 418C441.3 417.7 442.2 417.3 443.1 417C444 416.6 445 416.3 445.9 415.9C450.5 414.2 454 414 456.4 414.8C457.6 415.2 458.7 415.8 459.5 416.5C461.1 417.9 462.1 419.9 462.6 421.8C463 423.3 463.2 424.8 463.3 426C463.3 426.4 463.3 426.8 463.3 427.1C463.3 427.2 463.3 427.2 463.3 427.3C463.3 427.4 463.3 427.5 463.3 427.5Z" fill="#00695C"/>
<path d="M430 207.3C430.1 207.3 430.3 208.1 430.4 209.7C430.5 210.8 430.601 212.2 430.701 213.9C430.801 215.6 430.9 217.6 431 219.9C431.3 226.7 431.5 236 431.8 246.8C432.2 261.7 432.5 279.6 432.8 298.1C433.1 315 433.3 332.4 433.5 348.7C434 388.3 434.3 420.7 434.3 420.7C444.9 422.2 452.1 424.8 457 426.7C458.8 427.4 460.401 428 461.701 428.5C462.3 428.7 462.9 428.9 463.5 429H463.6L468.5 322.3L471.701 251.2C474.601 240.8 475.3 228 474.6 215.3C474.5 213.2 474.3 211.2 474.201 209.1C474.101 208.5 474.1 207.9 474 207.3C473.9 206.7 473.9 206 473.8 205.4L430 207.3Z" fill="url(#paint1_linear)"/>
<path d="M412.9 214.6C418 217.2 424.6 219.1 431.9 220C435.7 220.5 439.7 220.7 443.8 220.7C453.9 220.7 464.7 219 475.1 215.5C474.9 213.4 474.6 211.3 474.3 209.3C464.1 212.6 453.7 214.3 444.2 214.6C439.6 214.7 435.3 214.5 431.3 214C424.1 213 418.1 211.1 413.9 208.1C413.6 209.6 413.3 211.8 412.9 214.6Z" fill="#47463E"/>
<path d="M427.3 213.8C429.2 214.2 431.2 214.5 433.3 214.7L432.701 219.7C430.601 219.5 428.5 219.1 426.5 218.7L427.3 213.8Z" fill="#C6C6C6"/>
<path d="M449.6 213.2C450.4 213.2 451.2 213.1 452 213.1L451.6 222C450.8 222 450 222.1 449.2 222.1L449.6 213.2Z" fill="#00695C"/>
<path d="M416.8 209.3L416.1 218.2C415.4 217.9 414.5 217.6 413.8 217.3L415 208.3C415.6 208.6 416 209 416.8 209.3Z" fill="#00695C"/>
<path opacity="0.3" d="M432.6 331.7C431.2 359.8 434.2 388.1 437.5 416.2C437.5 416.2 440.6 292.3 441.1 264.4C441.2 257 448.201 249.1 453.701 244.3C450.401 245.7 446.9 246.5 443.4 246.9C440.9 247.1 438.301 247.1 435.701 246.8C429.601 246.1 423.6 244 418.5 240.5C429.2 252.5 433.7 268.7 434.6 284.5C435.5 300.3 433.3 316 432.6 331.7Z" fill="#232323"/>
<path d="M388.1 154.6L404.3 150.7L405.7 150.4L409.6 149.5L410.9 149.2V149.7L411 151.4L411.1 153.2L411.7 162.5L412.1 168.9L412.4 173.6L413.9 206.6C413.9 206.6 416.5 210.6 431.9 213C436.7 213.7 441.9 213.7 446.9 213.3C458.2 212.4 468.7 209.6 471.6 209.4C478.7 207.3 481.3 194.7 481.3 194.7L492.7 145.2L492.1 142L487.8 117.1L471.2 107.5L465 103.9L456.1 98.7L440.7 105.5L436.3 107.4L422 113.7C416.4 115.9 411.6 119.6 408.1 124.4L388.1 154.6Z" fill="white"/>
<path opacity="0.05" d="M420 132C414.5 141 407.2 148.9 398.8 155.1C405.3 154 411.8 152.9 418.2 151.8C417.1 151.3 416.3 150.2 416 149.1C415.7 147.9 415.8 146.7 415.9 145.5C416.5 140.8 417.9 136.2 420 132Z" fill="#1D1D1B"/>
<path d="M442.8 127.6C438.9 146.7 438.2 168.1 439.4 190.8L431.3 200.9L424.5 188.3C426.8 164.6 430.5 142.9 437.6 126L442.8 127.6Z" fill="url(#paint2_linear)"/>
<path opacity="0.05" d="M397.4 172.5C402.3 171.8 407.2 170.4 412.2 168.6L412.5 173.3C413.8 173.5 415.2 173.9 416.5 174.4C419.7 175.5 422.7 176.8 425.6 178.1C429.8 180 433.7 182 437.6 184C438.1 184.3 438.6 184.5 439.1 184.7C444.5 187.2 449.4 188.6 454.9 191.3C457.9 192.8 461.5 195.1 461.2 198.4C461 200.9 458.2 207.2 456.1 208.5C453.2 210.3 450.1 211.7 446.9 212.9C458.2 212 468.7 209.2 471.6 209C478.7 206.9 481.3 194.3 481.3 194.3L492.7 144.8C493.5 142.5 494.2 140.3 494.7 138.1C493.9 139.3 493 140.4 492.2 141.6C487.2 148.5 482.2 155.4 477.2 162.4C472.2 169.2 466.7 176.5 458.5 178.8C452 180.6 445.2 178.8 439 175.9C437.1 175 435.2 174 433.3 172.9C431.2 171.6 429.1 170.3 426.9 169L426.8 168.9C425.4 168.1 424 167.2 422.5 166.5C422.5 166.5 422.5 166.5 422.4 166.5C421.6 166.1 420.8 165.7 420 165.3C420 165.3 420 165.3 419.9 165.3C417.2 164 414.5 162.9 411.6 162.3C410.8 162.1 410 162 409.2 161.9C406.5 161.5 403.6 161.7 401.5 163.3C398.9 165.4 398.4 169.2 397.4 172.5Z" fill="#1D1D1B"/>
<path d="M460.3 157.9L444.9 151.1L434.4 153C430.7 155.7 430.5 160.1 431.7 162.8L455.3 164.7L460.3 157.9Z" fill="#FBBE52"/>
<path d="M423.6 163.4L428.5 161L430 161.1C427.9 165.4 426.3 169.8 425.7 174.4C424 173.5 422.4 172.5 420.8 171.5L423.6 163.4Z" fill="#E6DCDC"/>
<path d="M425.8 174.4C425.9 174.4 426 174.5 426.1 174.5C430.2 176.7 434.4 178.7 439.1 180.6C445.6 183.2 452.8 185.5 461.2 187.9C464.7 189 468.5 187.6 470.4 184.5L492.8 144.9C493.6 142.6 494.3 140.4 494.8 138.2C497 129 495.9 121.3 487.9 116.8L462 135.4L461.6 137.1L456.6 156.1L454.9 162.4L439.2 161.5L431.2 161H430.8H430.2C430.2 161.1 430.1 161.2 430.1 161.3C429.9 161.8 429.7 162.2 429.5 162.7C429.4 163 429.3 163.2 429.1 163.5C429 163.8 428.9 164 428.8 164.3C428.6 164.7 428.5 165.1 428.3 165.5C428.1 165.9 428 166.3 427.9 166.7C427.6 167.5 427.4 168.2 427.1 169C427.1 169.1 427.1 169.2 427 169.2C426.9 169.5 426.9 169.7 426.8 170C426.8 170.1 426.7 170.3 426.7 170.4C426.6 170.7 426.6 170.9 426.5 171.2C426.4 171.6 426.3 171.9 426.3 172.3C426.3 172.4 426.2 172.5 426.2 172.7C426.2 172.9 426.1 173.1 426.1 173.3C425.9 173.7 425.8 174 425.8 174.4Z" fill="white"/>
<path d="M427.9 152.1L434.4 153.1C431.7 155.9 431 158.5 431.2 161L425.3 162.9C425 159.3 425.7 155.7 427.9 152.1Z" fill="#E6DCDC"/>
<path d="M394 173C395.1 172.9 396.2 172.7 397.4 172.6C402.3 171.9 407.2 170.5 412.2 168.7C413.6 168.2 414.9 167.7 416.3 167.1C417.6 166.6 418.9 166 420.1 165.4C421.2 164.9 422.3 164.4 423.4 163.8C423.4 163.8 423.5 163.8 423.5 163.7C424.1 163.4 424.6 163.1 425.2 162.8C425.2 162.7 425.2 162.6 425.2 162.5C425 159 425.8 155.5 427.9 152L424 151.4L416.6 150.3L410.9 149.5L409.6 149.3L406.3 148.8L404.9 148.6L400.6 148L388.1 154.6C383.3 162.8 385.3 168.9 394 173Z" fill="white"/>
<path d="M423.9 151.5L417.9 146.6C416.6 145.6 415.1 144.9 413.5 144.7L407.4 143.8C406.1 143.6 404.8 144.3 404.3 145.5C404 146.2 404 146.9 404.3 147.5L406.1 151.1L423.9 151.5Z" fill="#FBBE52"/>
<path d="M420.9 171.5L423.4 163.8L416.1 167.1L420.9 171.5Z" fill="#FBBE52"/>
<path opacity="0.05" d="M430.1 161.1L454.8 162.6L461.5 137.3C460.2 141.3 457.9 148 455.6 151.6C453.4 155.2 453.2 155.9 450.7 159.1C448.8 161.6 436.2 157.9 430.1 161.1Z" fill="#1D1D1B"/>
<path d="M466.9 101.7L463.3 74.3C453.5 75.5 440.5 76.8 438.2 76.6C438.2 76.6 440.4 94.5 440.4 101.7C438.9 120.4 450.7 125.1 466.9 101.7Z" fill="#F2AA41"/>
<path d="M471.6 85.1999C474.5 81.2999 474.9 79.3999 476.2 74.5999C480.9 52.6999 467.7 52.5999 459.7 50.5999C450.2 48.6999 439.7 52.7999 435.6 67.0999C435.7 68.5999 436 69.8999 436 69.8999L430.9 77.1999C430.1 78.3999 430.5 80.0999 431.8 80.6999L433.7 81.7999C433.4 83.2999 431.6 89.4999 431.6 89.4999C430.8 93.1999 431 99.2999 436 100.1C450.4 102.3 457.4 97.0999 459.6 84.3999C463.2 84.9999 469.5 88.0999 471.6 85.1999Z" fill="#FBBE52"/>
<path d="M466.8 94.4C454.9 94.6 463.8 79.2 463.8 79.2C463.8 79.2 459.9 81.8 458.4 83C456 82.4 455.7 82.6 453.6 81.9C456.4 67.5 462.6 57.5 441.2 56.7C437.4 55 444.3 43 462.7 48.6C473.4 51.9 481 59.8 479.7 70.9C478.8 77.9 476.9 87 466.8 94.4Z" fill="#00695C"/>
<path d="M466.2 80.1C465.3 83.5 461.5 86.7 459.3 86.1C457.1 85.5 457.6 82.6 458.4 79.2C458.9 76.9 459.6 73.8 462.2 73.7C464.5 73.7 467.4 75.1 466.2 80.1Z" fill="#FBBE52"/>
<path d="M448 120.2L444.3 115.3L439.3 118.1L437.6 125.9L442.8 127.6L448 120.2Z" fill="url(#paint3_linear)"/>
<path d="M471.3 107.3L466.9 101.6C461.8 107.9 453.7 112 444.2 115.3L452.8 126.5C460.6 121.7 466.7 115.2 471.3 107.3Z" fill="#F9F2F2"/>
<path d="M444.3 115.3L434.4 120.9L436.4 107.2L440.5 101.6C440.6 106.8 441.4 111.5 444.3 115.3Z" fill="#F9F2F2"/>
<path d="M325.9 435.5C325.9 435.8 326.1 436.1 326.4 436.3C326.6 436.4 326.9 436.6 327.3 436.8H348.9C350 436.8 351.1 436.5 352.1 436.1C352.8 435.7 353.5 435.2 354 434.6C354.2 434.4 354.4 434.2 354.5 434L356.3 431.4L356.6 430.9L358.5 428.2L358.7 436.7H363.7C363.7 434.9 363.7 433.3 363.9 431.9C364 431.4 364 430.9 364.1 430.4C364.1 430.2 364.2 430 364.2 429.8C364.3 429.2 364.4 428.7 364.5 428.2C364.6 427.9 364.6 427.6 364.7 427.4C364.9 426.3 365.1 425.3 365.2 424.3C365.2 423.9 365.3 423.6 365.3 423.2C365.3 422.7 365.3 422.3 365.3 421.8C365.3 421.4 365.3 421.1 365.3 420.7C365.3 420.4 365.3 420 365.2 419.6C365.2 419.5 365.2 419.4 365.2 419.4C365.2 419 365.1 418.6 365 418.2C364.9 417.8 364.8 417.3 364.7 416.8C364.3 415.4 363.8 413.8 363 412C362.8 411.4 362.5 410.8 362.2 410.2C359.8 405 368 365.1 366 349.9C365.4 345.1 364.3 340.8 363.2 337.1C362.7 335.4 362.2 333.8 361.7 332.3C360.7 329.5 359.8 327.3 359 325.5C357.9 323.1 357 321.7 357 321.7C357.8 317.8 359.3 310.4 359.2 306.7C359.2 305.5 359 304.7 358.6 304.4C352.6 301.1 338.1 297.9 335.5 302.4C335.2 303 335 304.8 335 307.4C334.9 314 335.6 324.9 335.9 327.9V328C335.9 328 336.1 329 336.5 330.8C336.8 331.9 337.1 333.3 337.4 335C340.9 352.3 349.6 396.6 349.3 410.1C349.2 415.8 340.7 425.6 339.1 427.4C339 427.5 338.9 427.6 338.9 427.6C338.5 427.9 338.1 428.2 337.6 428.4C337.2 428.6 336.8 428.9 336.5 429.1C335 429.9 333.4 430.6 332 431.3C331.3 431.6 330.6 431.9 330 432.2C330 432.2 330 432.2 329.9 432.2C329.3 432.5 328.7 432.8 328.2 433C327.5 433.3 327 433.7 326.6 434C326.5 434.1 326.4 434.1 326.4 434.2C326.3 434.3 326.2 434.3 326.2 434.4C326.1 434.5 326.1 434.5 326.1 434.6C326 434.7 326 434.7 326 434.8C325.9 435.4 325.9 435.5 325.9 435.5Z" fill="#FBBE52"/>
<path d="M362.3 410.4C362.2 410.3 361.8 410.3 361.3 410.4C358.3 411 355.8 413 354.5 415.8L351.2 422.9C349.8 426 346.7 427.9 343.2 427.8L339.1 427.7C339 427.8 338.9 427.9 338.9 427.9C332.5 432.3 322.1 434.5 327.3 436.9H348.9C351.2 436.9 353.3 435.8 354.6 434L358.7 428.3L358.9 436.9H363.8C363.5 426 368.6 423.8 362.3 410.4Z" fill="#00695C"/>
<path d="M279.401 436.6C279.601 436.7 279.801 436.8 280.001 436.9H301.601C301.901 436.9 302.101 436.9 302.401 436.9C302.701 436.9 303.001 436.8 303.301 436.8C303.601 436.7 303.801 436.7 304.101 436.6C305.401 436.2 306.701 435.3 307.601 434.2L311.701 429.3L312.301 428.5L311.601 436.7V437H316.601C317.001 432.2 317.901 429.1 318.301 426C318.301 425.9 318.301 425.8 318.301 425.7C318.801 421.8 318.601 417.8 316.001 410.5C314.101 405.3 327.701 365.6 328.201 350.5C328.501 342.1 327.701 335.4 326.701 330.6C325.601 325.2 324.301 322.3 324.301 322.3C325.701 318.2 328.101 310.5 328.201 308C328.201 307.6 328.201 307.3 328.101 307.3C322.801 303.4 306.701 303.3 302.801 305.9C302.101 306.3 301.601 307.4 301.301 308.9C300.301 312.9 300.401 319.6 300.401 323.9L300.501 328.7C300.501 328.7 300.501 328.8 300.501 329.1C300.601 330 300.801 332.3 301.201 335.7C302.801 352.9 305.701 397.3 303.901 410.8C303.101 417 292.201 427.8 292.201 427.8C287.901 430.5 282.401 432.5 280.001 434.2C279.801 434.3 279.701 434.4 279.501 434.5C279.401 434.5 279.401 434.6 279.301 434.6C279.201 434.7 279.101 434.7 279.001 434.9C278.601 435.5 278.601 436 279.401 436.6Z" fill="#FBBE52"/>
<path d="M315.9 410.4C315.9 410.3 315.5 410.3 314.9 410.4C311.9 411 309.3 413 307.9 415.8L304.4 422.9C302.9 426 299.7 427.9 296.2 427.8L292.1 427.7C292 427.8 291.9 427.9 291.9 427.9C285.3 432.3 274.9 434.5 280 436.9H301.6C303.9 436.9 306 435.8 307.4 434L311.7 428.3L311.6 436.9H316.5C316.6 426 321.7 423.9 315.9 410.4Z" fill="#00695C"/>
<path opacity="0.1" d="M335.101 307.7C335.001 314.3 335.701 325.2 336.001 328.2V328.3C336.001 328.3 336.201 329.3 336.601 331.1L361.701 332.5C360.701 329.7 359.801 327.5 359.001 325.7C357.901 323.3 357.001 321.9 357.001 321.9C357.801 318 359.301 310.6 359.201 306.9L335.101 307.7Z" fill="#1D1D1B"/>
<path opacity="0.1" d="M300.4 323.8L300.5 328.6C300.5 328.6 300.5 328.7 300.5 329L326.6 330.5C325.5 325.1 324.201 322.2 324.201 322.2C325.601 318.1 328 310.4 328.1 307.9L301.1 308.7C300.3 312.7 300.4 319.5 300.4 323.8Z" fill="#1D1D1B"/>
<path d="M334.9 145.7L316.5 192.4C312 201.9 326 210.3 331.4 198.2L352.4 152.6C358.3 136.9 340.1 132.9 334.9 145.7Z" fill="#FBBE52"/>
<path d="M327.7 188.5L282.3 167.7C282.3 167.7 277.7 173.5 277.9 173.8C287.8 183.6 312.7 200.4 320.2 203.2C329 206.9 336.3 193.1 327.7 188.5Z" fill="#FBBE52"/>
<path d="M329 141.2C332 134.8 331.4 127.2 329.5 120.3C327.5 113.5 324.3 107.1 322 100.3C319.8 93.7 318.5 86.7 318.3 79.8C312.9 86.9 308 96.5 309.2 105.4C310.1 111.5 313.2 118.6 314.7 124.6C317.4 135.6 318.3 145.9 313.8 156.2C319.7 152.1 325.9 147.7 329 141.2Z" fill="#00695C"/>
<path d="M305 112.4C305.3 109.6 304.5 106.8 303.5 104.2C301.5 99 298.7 94.1 295.3 89.7C296.3 94.5 297.2 99.4 298.2 104.2C299.4 109.9 300.4 116.2 297.7 121.4C301.5 120.1 304.6 116.5 305 112.4Z" fill="#00695C"/>
<path d="M291.6 120.9C294.9 111.2 291.7 107.6 289.2 101.7C281 82.3 305.4 66.1 322.3 67.8C333.7 69 341.3 78.5 342.8 88.3C347 116.5 369.6 109.8 356.8 153.4C352.9 149.4 354.7 136.9 349.2 135.7C343.7 134.5 339.7 123.1 335.1 119.9C331.8 117.6 329.3 114.3 326.8 111.1C324.3 107.9 321.7 104.7 318.2 102.6C314.7 100.5 310.1 99.7 306.4 101.6C307.3 108.6 297.9 117.5 291.6 120.9Z" fill="#00695C"/>
<path d="M343.701 122.3L324.601 136.1L322.001 123.7L320.001 114.4L319.101 110.4L333.801 94.7L343.701 122.3Z" fill="#FBBE52"/>
<path d="M324.7 128.7C317.9 156.2 305.5 147.5 303.9 162.8C302.5 176.2 314.8 178.5 314.8 178.5C316.3 193 320.1 209.9 319.2 219.7C319.2 219.7 350.7 213.8 352.8 213.3C347.6 198.4 356.7 182.4 356.7 155.3C356.7 140.7 342.8 119.7 342.8 119.7C342.8 119.7 325.7 124.7 324.7 128.7Z" fill="#FBBE52"/>
<path d="M302.601 164.3C302.601 165.7 302.701 167 303.001 168.2C305.201 177 314.501 179.4 314.501 179.4C314.601 183 314.801 189.4 315.101 192.7C315.101 192.7 315.101 192.7 315.101 192.8C315.201 194 315.301 195.2 315.501 196.4C315.801 199.2 316.201 201.9 316.501 204.4C317.101 208.8 317.701 213 318.101 216.7C318.201 217.3 318.201 217.9 318.301 218.4C318.301 218.4 319.101 218.3 320.501 218.1C321.601 218 322.901 218.3 324.501 218.9C327.801 220.1 332.001 222.1 336.201 221.4C340.601 220.8 345.101 218.3 348.301 216.2C350.701 214.7 352.301 213.4 352.801 213.3C352.401 212.2 352.101 211.2 352.001 210.1L351.901 210C351.201 207.2 351.101 204.3 351.201 201.2C351.201 200.4 351.301 199.6 351.301 198.7C351.701 194.3 352.601 189.6 353.501 184.4C353.501 184.1 353.601 183.9 353.601 183.7C354.601 178.3 355.601 172.3 356.201 165.5C356.301 164.4 356.401 163.3 356.501 162.1C356.601 159.8 356.701 157.6 356.701 155.2C356.701 140.6 347.201 127 347.201 127C347.201 127 344.201 128.2 341.101 129.3C338.101 130.3 335.701 132.5 334.201 135.2C334.101 135.3 334.101 135.4 334.001 135.5L328.801 145.4C327.201 148.5 324.101 150.6 320.601 150.9C316.301 151.2 309.901 152.8 309.901 152.8C309.901 152.8 303.201 154.2 302.601 164.3Z" fill="url(#paint4_linear)"/>
<path d="M300.4 320.3C318.1 316.6 350.5 325.5 369.3 322C369.3 321.9 369.3 321.7 369.2 321.6C368.6 317.3 363 279 364.1 261.6C371.2 238.4 365.2 223.1 352 210.1L351.9 210C350.2 211.1 348 212.3 345.5 213.4C339.4 216.1 331.5 218.4 325.2 218.3C322.4 218.3 320 217.8 318.1 216.7L317.9 216.8C316.9 223.6 315.9 229.9 314.8 235.9C308 275.2 300.4 297.9 300.4 320.3Z" fill="url(#paint5_linear)"/>
<path opacity="0.1" d="M330.601 104.7C331.801 110 331.501 115.7 329.801 120.9C329.101 123.1 323.901 128.2 322.201 129.8L319.101 120.1C319.701 119.6 321.901 118.2 322.501 117.6C326.101 113.9 329.201 109.6 330.601 104.7Z" fill="#1D1D1B"/>
<path d="M299.701 103.1C276.601 76.3999 343.8 51.5999 338.5 96.3999L332.201 99.0999C333.501 108.4 330.701 114.9 322.001 121.9C313.301 128.6 308.901 123.5 305.501 117.1C304.901 116 304.601 114.1 302.701 114.1C300.201 114.2 299.301 113.2 300.001 111.2C300.701 109.2 300.601 105.6 299.701 103.1Z" fill="#FBBE52"/>
<path d="M341.5 106.6C342.1 102.4 342.7 98.0999 342.6 93.8999C342.5 89.6999 341.701 85.3999 339.701 81.5999C336.5 75.6999 330.401 71.5999 323.701 70.3999C317 69.1999 310 70.9999 304 74.3999C295 79.4999 291.5 87.8999 291.5 94.5999C295.6 96.2999 303.3 88.1999 310.8 97.8999C325.4 116.7 334 108.8 341.5 106.6Z" fill="#00695C"/>
<path d="M283.101 167.8L280.701 162.7L277.701 160.5C277.701 160.5 275.801 158.3 275.701 156.1C275.601 154.2 273.601 155.4 273.601 156.8C273.601 158.1 274.501 161.9 274.501 161.9L266.101 164.9L271.701 174.3L279.901 175.9L287.201 179.7L291.101 172.2L283.101 167.8Z" fill="#FBBE52"/>
<path d="M262.5 157.5L266 154.2C266.4 153.8 267.4 154.3 268.3 155.2L285.2 172.7C286.1 173.6 286.5 174.7 286.2 175.1L282.7 178.4C282.3 178.8 281.3 178.3 280.4 177.4L263.5 159.9C262.6 158.9 262.2 157.9 262.5 157.5Z" fill="url(#paint6_linear)"/>
<path d="M283.801 177.3L287.301 174C287.701 173.6 287.301 172.6 286.301 171.6L269.401 154.1C268.501 153.2 267.501 152.7 267.101 153.1L263.601 156.4C263.201 156.8 263.601 157.8 264.601 158.8L281.501 176.3C282.401 177.2 283.501 177.7 283.801 177.3Z" fill="url(#paint7_linear)"/>
<path d="M284.901 171.5C285.001 171.4 284.901 171.2 284.701 171L269.001 154.8C268.801 154.6 268.601 154.5 268.501 154.6L265.001 157.9C264.901 158 265.001 158.2 265.201 158.4L280.901 174.6C281.101 174.8 281.301 174.9 281.401 174.8L284.901 171.5Z" fill="#BAE5D7"/>
<path d="M266 155.8C266.2 156 266.5 156.2 266.6 156.1C266.7 156 266.6 155.7 266.4 155.5C266.2 155.3 265.9 155.1 265.8 155.2C265.6 155.3 265.7 155.5 266 155.8Z" fill="#878787"/>
<path d="M284.101 174.8C284.501 175.2 285.001 175.4 285.101 175.3C285.301 175.1 285.101 174.7 284.701 174.3C284.301 173.9 283.801 173.7 283.701 173.8C283.501 173.9 283.701 174.3 284.101 174.8Z" fill="#009688"/>
<path d="M285.001 173.7C285.201 173.9 285.401 174 285.401 173.9L286.001 173.3C286.101 173.2 286.001 173 285.801 172.9C285.601 172.7 285.401 172.6 285.401 172.7L284.801 173.3C284.801 173.3 284.801 173.5 285.001 173.7Z" fill="#009688"/>
<path d="M282.701 175.9C282.901 176.1 283.1 176.2 283.1 176.1L283.701 175.5C283.801 175.4 283.7 175.2 283.5 175.1C283.3 174.9 283.1 174.8 283.1 174.9L282.5 175.5C282.5 175.5 282.601 175.7 282.701 175.9Z" fill="#009688"/>
<path d="M265 166.6C265.1 167.4 265.8 167.9 266.5 167.8L271.6 166.5C273.3 166.2 273.2 163.6 271.1 164L265.9 164.9C265.4 165.1 264.9 165.8 265 166.6Z" fill="#FBBE52"/>
<path d="M266.4 169.1C266.6 170 267.3 170.5 268.1 170.4L273.6 169C275.4 168.7 275.3 165.9 273.1 166.3L267.6 167.3C266.7 167.4 266.2 168.2 266.4 169.1Z" fill="#FBBE52"/>
<path d="M268.3 171.5C268.5 172.4 269.2 172.9 270 172.8L275.5 171.4C277.3 171.1 277.2 168.3 275 168.7L269.5 169.7C268.6 169.8 268.1 170.6 268.3 171.5Z" fill="#FBBE52"/>
<path d="M270.8 173.4C270.9 174.1 271.501 174.5 272.101 174.4L276.5 173.3C278 173 277.901 170.9 276.101 171.2L271.701 172C271.001 172.1 270.7 172.7 270.8 173.4Z" fill="#FBBE52"/>
<path opacity="0.03" d="M303 168.2C305.2 177 314.5 179.4 314.5 179.4C314.6 183 314.8 189.4 315.1 192.7C315.1 192.7 315.1 192.7 315.1 192.8C315.5 196.9 316 200.8 316.5 204.4C317.1 208.8 317.7 213 318.1 216.7L317.9 216.8C316.9 223.6 315.9 229.9 314.8 235.9C317.8 228.1 320.9 222 324.4 218.9C324.6 218.7 324.8 218.5 325.1 218.4C319.6 202.5 315.3 187 321.9 176.2C314.8 176.3 308.5 173.5 303 168.2Z" fill="#1D1D1B"/>
<path opacity="0.03" d="M315.7 196.3L316.4 200.8L345.5 213.4C346.5 214.3 347.5 215.2 348.3 216.2C360.2 229.1 358.9 245.7 349.5 262.3C364.7 272.9 364.8 295.7 369.2 321.6C368.6 317.3 363 279 364.1 261.6C371.2 238.4 365.2 223.1 352 210.1L351.9 210C351.2 207.2 351.1 204.3 351.2 201.2C351.2 200.4 351.3 199.6 351.3 198.7C351.7 194.3 352.6 189.6 353.5 184.4C353.5 184.1 353.6 183.9 353.6 183.7L335.2 154.5L334.5 188.5L315.7 196.3Z" fill="#1D1D1B"/>
<path d="M348.3 191.4L295.7 191.7C295.7 191.7 295.3 197.9 295.7 198.1C309 202.2 340.5 209 348.5 208C357.9 207.1 358 191.5 348.3 191.4Z" fill="#FBBE52"/>
<path d="M305.3 192.7L292 188.6L283.4 190.9L280.5 199.8L284.7 204.1C286.5 203.7 286.8 202.3 285.5 200.9L291.2 198.9C294.2 201.3 298.5 199.9 302 199.6L305.3 192.7Z" fill="#FBBE52"/>
<path d="M292 188.6L280.5 189.8L275 195.2C273.7 196.4 275.4 197.6 276.5 196.4L281.4 192.4L292.1 192.5V188.6H292Z" fill="#FBBE52"/>
<path d="M334.9 150.1L340.2 200C340.6 210.5 356.9 211.5 356.1 198.3L353.6 148.2C351.6 131.5 333.6 136.4 334.9 150.1Z" fill="#FBBE52"/>
<path d="M141.3 254.5C144.8 254.5 150.6 254.5 154.1 254.5H167.7C171.2 254.5 174.1 251.6 174.1 248.1V241.2C174.1 237.7 173.6 232 173 228.5L161.6 162.7C161 159.2 157.6 156.4 154.1 156.4L102.8 156.7L97.9003 159.1C94.3003 160.2 92.1003 163.8 92.6003 167.3L100.3 228.4C100.7 231.9 101.1 237.6 101.1 241.1V248C101.1 251.5 104 254.4 107.5 254.4L113.2 255C116.7 255 127.5 254.4 131 254.4H141.3V254.5Z" fill="#FF9100"/>
<path d="M150 254.5C153.5 254.5 159.3 254.5 162.8 254.5H176.4C179.9 254.5 182.8 251.6 182.8 248.1V241.2C182.8 237.7 182.3 232 181.7 228.5L170.3 162.7C169.7 159.2 166.3 156.4 162.8 156.4H104.8C101.3 156.4 98.8002 159.2 99.2002 162.7L107.5 228.4C107.9 231.9 108.3 237.6 108.3 241.1V248C108.3 251.5 111.2 254.4 114.7 254.4H126.9C130.4 254.4 136.2 254.4 139.7 254.4H150V254.5Z" fill="url(#paint8_linear)"/>
<path d="M182.8 234.8L170.3 162.7C169.7 159.2 166.3 156.4 162.8 156.4H104.8C101.3 156.4 98.8002 159.2 99.2002 162.7L108.3 234.8H182.8Z" fill="url(#paint9_linear)"/>
<path d="M145.4 254.5H112.1V431.4H145.4V254.5Z" fill="#FF9100"/>
<path d="M169.7 254.5H117.5V431.4H169.7V254.5Z" fill="url(#paint10_linear)"/>
<path d="M110.6 220.3L103.5 166.9H166.3L176.6 220.3H110.6Z" fill="#D5EFE5"/>
<path d="M169.8 254.5H112.1V259.1H169.8V254.5Z" fill="#FF9100"/>
<path d="M161.3 184H154.5C154.1 184 153.8 183.7 153.8 183.3C153.8 182.9 154.1 182.6 154.5 182.6H161.3C161.7 182.6 162 182.9 162 183.3C162.1 183.7 161.7 184 161.3 184Z" fill="url(#paint11_linear)"/>
<path d="M121.5 198.7H114.7C114.3 198.7 114 198.4 114 198C114 197.6 114.3 197.3 114.7 197.3H121.5C121.9 197.3 122.2 197.6 122.2 198C122.2 198.4 121.9 198.7 121.5 198.7Z" fill="url(#paint12_linear)"/>
<path d="M141.4 184H134.6C134.2 184 133.9 183.7 133.9 183.3C133.9 182.9 134.2 182.6 134.6 182.6H141.4C141.8 182.6 142.1 182.9 142.1 183.3C142.1 183.7 141.8 184 141.4 184Z" fill="url(#paint13_linear)"/>
<path d="M166.5 215H159.7C159.3 215 159 214.7 159 214.3C159 213.9 159.3 213.6 159.7 213.6H166.5C166.9 213.6 167.2 213.9 167.2 214.3C167.2 214.6 166.9 215 166.5 215Z" fill="url(#paint14_linear)"/>
<path d="M123.701 215H116.901C116.501 215 116.201 214.7 116.201 214.3C116.201 213.9 116.501 213.6 116.901 213.6H123.701C124.101 213.6 124.401 213.9 124.401 214.3C124.401 214.6 124.101 215 123.701 215Z" fill="url(#paint15_linear)"/>
<path d="M145.8 215H139C138.6 215 138.3 214.7 138.3 214.3C138.3 213.9 138.6 213.6 139 213.6H145.8C146.2 213.6 146.5 213.9 146.5 214.3C146.6 214.6 146.2 215 145.8 215Z" fill="url(#paint16_linear)"/>
<path d="M167.3 167.3L178.1 220.7L176.7 220.3L166.2 167.3H167.3Z" fill="#D39C20"/>
<path d="M156.6 195C155.8 195 155 194.3 154.9 193.5L154 186.5C153.9 185.7 154.5 185 155.3 185H162.7C163.5 185 164.3 185.7 164.3 186.5L165.1 193.4C165.2 194.2 164.6 194.9 163.8 194.9H156.6V195Z" fill="#BAE5D7"/>
<path d="M159.2 211.2C158.4 211.2 157.6 210.5 157.5 209.7L156.6 202.7C156.5 201.9 157.1 201.2 157.9 201.2H165.3C166.1 201.2 166.9 201.9 166.9 202.7L167.7 209.6C167.8 210.4 167.2 211.1 166.4 211.1H159.2V211.2Z" fill="#BAE5D7"/>
<path d="M166.4 212.1H159.1C157.9 212.1 156.7 211.1 156.6 209.9L155.7 202.9C155.6 202.3 155.8 201.6 156.2 201.2C156.6 200.7 157.2 200.5 157.8 200.5H165.2C166.5 200.5 167.6 201.5 167.7 202.7L168.5 209.6C168.6 210.2 168.4 210.9 168 211.3C167.7 211.8 167.1 212.1 166.4 212.1ZM157.9 202.2C157.8 202.2 157.6 202.2 157.6 202.3C157.5 202.4 157.5 202.5 157.5 202.7L158.4 209.7C158.4 210.1 158.8 210.4 159.2 210.4H166.5C166.6 210.4 166.8 210.4 166.8 210.3C166.9 210.2 166.9 210.1 166.9 209.9L166.1 203C166.1 202.6 165.7 202.3 165.3 202.3H157.9V202.2Z" fill="url(#paint17_linear)"/>
<path d="M138.6 211.2C137.8 211.2 137 210.5 136.9 209.7L136 202.7C135.9 201.9 136.5 201.2 137.3 201.2H144.7C145.5 201.2 146.3 201.9 146.3 202.7L147.1 209.6C147.2 210.4 146.6 211.1 145.8 211.1H138.6V211.2Z" fill="#BAE5D7"/>
<path d="M145.9 212.1H138.6C137.4 212.1 136.2 211.1 136.1 209.9L135.2 202.9C135.1 202.3 135.3 201.6 135.7 201.2C136.1 200.7 136.7 200.5 137.3 200.5H144.7C146 200.5 147.1 201.5 147.2 202.7L148 209.6C148.1 210.2 147.9 210.9 147.5 211.3C147.1 211.8 146.5 212.1 145.9 212.1ZM137.3 202.2C137.2 202.2 137 202.2 137 202.3C136.9 202.4 136.9 202.5 136.9 202.7L137.8 209.7C137.8 210.1 138.2 210.4 138.6 210.4H145.9C146 210.4 146.2 210.4 146.2 210.3C146.3 210.2 146.3 210.1 146.3 209.9L145.5 203C145.5 202.6 145.1 202.3 144.7 202.3H137.3V202.2Z" fill="url(#paint18_linear)"/>
<path d="M116.6 211.2C115.8 211.2 115 210.5 114.9 209.7L114 202.7C113.9 201.9 114.5 201.2 115.3 201.2H122.7C123.5 201.2 124.3 201.9 124.3 202.7L125.1 209.6C125.2 210.4 124.6 211.1 123.8 211.1H116.6V211.2Z" fill="#F3FDFF"/>
<g opacity="0.2">
<path opacity="0.2" d="M123.8 213.8H116.5C114.4 213.8 112.6 212.2 112.3 210.1L111.4 203.1C111.3 202 111.6 200.9 112.3 200C113 199.2 114.1 198.7 115.2 198.7H122.6C124.7 198.7 126.6 200.3 126.8 202.4L127.6 209.3C127.7 210.4 127.4 211.5 126.7 212.3C126 213.3 125 213.8 123.8 213.8ZM117.4 208.7H122.5L121.9 204H116.8L117.4 208.7Z" fill="white"/>
</g>
<g opacity="0.4">
<path opacity="0.4" d="M123.8 212.9H116.5C114.8 212.9 113.3 211.6 113.1 209.9L112.2 202.9C112.1 202 112.3 201.2 112.9 200.5C113.5 199.9 114.3 199.5 115.2 199.5H122.6C124.3 199.5 125.8 200.8 126 202.5L126.8 209.4C126.9 210.3 126.6 211.1 126.1 211.8C125.5 212.6 124.7 212.9 123.8 212.9ZM116.6 209.5H123.4L122.6 203H115.7L116.6 209.5Z" fill="white"/>
</g>
<path d="M123.8 212.1H116.5C115.2 212.1 114.1 211.1 114 209.9L113.1 202.9C113 202.3 113.2 201.6 113.6 201.2C114 200.8 114.6 200.5 115.2 200.5H122.6C123.9 200.5 125 201.5 125.1 202.7L125.9 209.6C126 210.2 125.8 210.8 125.4 211.3C125 211.8 124.5 212.1 123.8 212.1ZM115.3 202.2C115.2 202.2 115 202.2 115 202.3C114.9 202.4 114.9 202.5 114.9 202.7L115.8 209.7C115.8 210.1 116.2 210.4 116.6 210.4H123.9C124 210.4 124.2 210.4 124.2 210.3C124.3 210.2 124.3 210.1 124.3 209.9L123.5 203C123.5 202.6 123.1 202.3 122.7 202.3H115.3V202.2Z" fill="white"/>
<path d="M114 195.8C113.2 195.8 112.4 195.1 112.3 194.3L111.4 187.3C111.3 186.5 111.9 185.8 112.7 185.8H120.1C120.9 185.8 121.7 186.5 121.7 187.3L122.5 194.2C122.6 195 122 195.7 121.2 195.7H114V195.8Z" fill="#BAE5D7"/>
<path d="M121.2 196.6H114C112.8 196.6 111.6 195.6 111.5 194.4L110.6 187.4C110.5 186.8 110.7 186.1 111.1 185.7C111.5 185.2 112.1 185 112.7 185H120.1C121.4 185 122.5 186 122.6 187.2L123.4 194.1C123.5 194.7 123.3 195.3 122.9 195.8C122.5 196.3 121.9 196.6 121.2 196.6ZM112.7 186.7C112.6 186.7 112.4 186.7 112.4 186.8C112.3 186.9 112.3 187 112.3 187.2L113.2 194.2C113.2 194.6 113.6 194.9 114 194.9H121.3C121.4 194.9 121.6 194.9 121.7 194.8C121.8 194.7 121.8 194.6 121.8 194.4L121 187.5C121 187.1 120.6 186.8 120.2 186.8H112.7V186.7Z" fill="url(#paint19_linear)"/>
<path d="M136.1 195.8C135.3 195.8 134.5 195.1 134.4 194.3L133.5 187.3C133.4 186.5 134 185.8 134.8 185.8H142.2C143 185.8 143.8 186.5 143.8 187.3L144.6 194.2C144.7 195 144.1 195.7 143.3 195.7H136.1V195.8Z" fill="#BAE5D7"/>
<path d="M143.4 196.6H136.1C134.9 196.6 133.7 195.6 133.6 194.4L132.7 187.4C132.6 186.8 132.8 186.1 133.2 185.7C133.6 185.2 134.2 185 134.8 185H142.2C143.5 185 144.6 186 144.7 187.2L145.5 194.1C145.6 194.7 145.4 195.3 145 195.8C144.6 196.4 144 196.6 143.4 196.6ZM134.8 186.7C134.7 186.7 134.5 186.7 134.5 186.8C134.4 186.9 134.4 187 134.4 187.2L135.3 194.2C135.4 194.6 135.7 194.9 136.1 194.9H143.4C143.5 194.9 143.7 194.9 143.7 194.8C143.8 194.7 143.8 194.6 143.8 194.4L143 187.5C143 187.1 142.6 186.8 142.2 186.8H134.8V186.7Z" fill="url(#paint20_linear)"/>
<path d="M112.1 181.8C111.3 181.8 110.5 181.1 110.4 180.3L109.5 173.3C109.4 172.5 110 171.8 110.8 171.8H118.2C119 171.8 119.8 172.5 119.8 173.3L120.6 180.2C120.7 181 120.1 181.7 119.3 181.7H112.1V181.8Z" fill="#BAE5D7"/>
<path d="M119.4 182.6H112.1C110.9 182.6 109.7 181.6 109.6 180.4L108.7 173.4C108.6 172.8 108.8 172.2 109.2 171.7C109.6 171.2 110.2 171 110.8 171H118.2C119.5 171 120.6 172 120.7 173.2L121.5 180.1C121.6 180.7 121.4 181.3 121 181.8C120.6 182.4 120 182.6 119.4 182.6ZM110.8 172.8C110.7 172.8 110.5 172.8 110.5 172.9C110.4 173 110.4 173.1 110.4 173.3L111.3 180.3C111.3 180.7 111.7 181 112.1 181H119.4C119.5 181 119.7 181 119.8 180.9C119.9 180.8 119.9 180.7 119.9 180.5L119.1 173.6C119.1 173.2 118.7 172.9 118.3 172.9H110.8V172.8Z" fill="url(#paint21_linear)"/>
<path d="M134.1 181.8C133.3 181.8 132.5 181.1 132.4 180.3L131.5 173.3C131.4 172.5 132 171.8 132.8 171.8H140.2C141 171.8 141.8 172.5 141.8 173.3L142.6 180.2C142.7 181 142.1 181.7 141.3 181.7H134.1V181.8Z" fill="#BAE5D7"/>
<path d="M141.4 182.6H134.1C132.9 182.6 131.7 181.6 131.6 180.4L130.7 173.4C130.6 172.8 130.8 172.1 131.2 171.7C131.6 171.2 132.2 171 132.8 171H140.2C141.5 171 142.6 172 142.7 173.2L143.5 180.1C143.6 180.7 143.4 181.4 143 181.8C142.6 182.4 142 182.6 141.4 182.6ZM132.8 172.8C132.7 172.8 132.5 172.8 132.5 172.9C132.4 173 132.4 173.1 132.4 173.3L133.3 180.3C133.3 180.7 133.7 181 134.1 181H141.4C141.5 181 141.7 181 141.7 180.9C141.8 180.8 141.8 180.7 141.8 180.5L141 173.6C141 173.2 140.6 172.9 140.2 172.9H132.8V172.8Z" fill="url(#paint22_linear)"/>
<path d="M154.7 181.8C153.9 181.8 153.1 181.1 153 180.3L152.1 173.3C152 172.5 152.6 171.8 153.4 171.8H160.8C161.6 171.8 162.4 172.5 162.4 173.3L163.2 180.2C163.3 181 162.7 181.7 161.9 181.7H154.7V181.8Z" fill="#BAE5D7"/>
<path d="M162 182.6H154.7C153.4 182.6 152.3 181.6 152.2 180.4L151.3 173.4C151.2 172.8 151.4 172.1 151.8 171.7C152.2 171.2 152.8 171 153.4 171H160.8C162.1 171 163.2 172 163.3 173.2L164.1 180.1C164.2 180.7 164 181.4 163.6 181.8C163.2 182.4 162.6 182.6 162 182.6ZM153.4 172.8C153.3 172.8 153.1 172.8 153.1 172.9C153 173 153 173.1 153 173.3L153.9 180.3C153.9 180.7 154.3 181 154.7 181H162C162.1 181 162.3 181 162.3 180.9C162.4 180.8 162.4 180.7 162.4 180.5L161.6 173.6C161.6 173.2 161.2 172.9 160.8 172.9H153.4V172.8Z" fill="url(#paint23_linear)"/>
<path d="M163.5 198.7H156.7C156.3 198.7 156 198.4 156 198C156 197.6 156.3 197.3 156.7 197.3H163.5C163.9 197.3 164.2 197.6 164.2 198C164.3 198.4 163.9 198.7 163.5 198.7Z" fill="#707893"/>
<path d="M143.6 198.7H136.8C136.4 198.7 136.1 198.4 136.1 198C136.1 197.6 136.4 197.3 136.8 197.3H143.6C144 197.3 144.3 197.6 144.3 198C144.4 198.4 144 198.7 143.6 198.7Z" fill="#707893"/>
<path opacity="0.3" d="M117 220.3H138.9L152.4 166.9H130.5L117 220.3Z" fill="#B9B8B4"/>
<path d="M119.3 184H112.5C112.1 184 111.8 183.7 111.8 183.3C111.8 182.9 112.1 182.6 112.5 182.6H119.3C119.7 182.6 120 182.9 120 183.3C120 183.7 119.7 184 119.3 184Z" fill="url(#paint24_linear)"/>
<path d="M155 242H139.5V245.4H155V242Z" fill="#42413F"/>
<path d="M154.3 242.7V244.7H140.3V242.7H154.3ZM155.8 241.3H154.3H140.3H138.8V242.8V244.8V246.3H140.3H154.3H155.8V244.8V242.8V241.3Z" fill="#8E8576"/>
<g opacity="0.4">
<path opacity="0.4" d="M176.6 220.4H110.6V221.9H176.6V220.4Z" fill="#FFDF5A"/>
</g>
<mask id="mask0" mask-type="alpha" maskUnits="userSpaceOnUse" x="97" y="143" width="104" height="290">
<path d="M200.2 143.4H97.9004V432.1H200.2V143.4Z" fill="white"/>
<path d="M110.6 220.3L103.5 166.9H166.3L176.6 220.3H110.6Z" fill="#59717C"/>
</mask>
<g mask="url(#mask0)">
<path opacity="0.1" d="M170.3 162.7C169.7 159.2 166.3 156.4 162.8 156.4H141.7C142.1 168.6 142.6 181.6 140.8 187.4C140.2 189.1 129.5 190 129.2 190.2C127.7 192 124.7 192.1 123.1 192.5L120 202.6C121.5 202.5 146.3 212.9 146.3 212.9C146.3 212.9 146.5 213.2 146.5 219.6C146.5 222.1 145.5 223.6 144.7 226C144.3 227.2 144 228.5 143.9 229.8C143.8 229.8 143.8 229.8 143.7 229.8C142.5 230.1 142 231 142 232.1C141.7 236.4 140.8 240.7 141 245C141.1 246.5 141.5 248.6 141.7 249C141.7 250.7 141.6 252.4 141.8 254C141.9 254.9 142 255.8 142 256.7C143.9 281.8 146.1 298.7 147.4 307.1C147.6 310.1 147.9 311.3 148.4 312.3C148.7 313.6 148.9 313.9 148.8 313C148.9 313.7 149 314.3 149.1 315C150.2 323.6 150.7 338.8 151.5 347.5C152.5 359 153.9 380 155.6 391.4C156.5 397.4 156.9 403.5 156.9 409.5C156.9 412.3 157 415.9 154.6 418C154.5 418.4 154.5 418.8 154.5 419.1C154.4 418.5 154.5 418 154.5 417.3C151.7 421.1 148.6 424.4 144.2 426.3C142.7 426.9 141.3 427.8 139.9 428.6C139 429.1 138 429.5 138.1 430.7C138.1 430.9 138.1 431.1 138.2 431.3H145.4H169.8V392C169.7 393.7 169.6 395.3 169.6 397C169.4 402.2 169.3 407.4 168.6 412.6C168.4 414.2 168.2 415.9 167.1 417.2L167 417.3C166.8 410.8 167.5 404.2 167.6 397.7C167.7 390.6 167.7 383.6 167.3 376.5C166.9 370.5 166.5 355 165.5 349.1C164.8 344.7 164.4 340.4 165 335.9C165.5 331.8 166.3 322 165.9 317.1C165.9 317.2 166 317.2 166 317.2C166 316.2 165.9 314.6 165.8 313.4C167.2 313.4 168.5 313.4 169.9 313.4V259.1V254.5H176.6C180.1 254.5 183 251.6 183 248.1V241.2C183 239.4 182.9 237.1 182.7 234.8H183L170.3 162.7ZM152.5 230.3C152.5 230.3 152.6 230.3 152.5 230.3C152.6 230.3 152.6 230.3 152.6 230.3H152.5Z" fill="#154662"/>
<g opacity="0.4">
<path opacity="0.4" d="M104.266 170.434L102.779 170.63L109.829 224.066L111.317 223.87L104.266 170.434Z" fill="#FFDF5A"/>
</g>
<path d="M127.1 206.5C127 206.4 126.9 206.4 126.8 206.3C126.3 205.7 126.4 205.4 127.1 204.8C127.7 204.3 128.9 202.7 129.5 202.2C129.8 201.9 130 201.6 129.6 201.2C129.4 201 129.4 200.8 129.3 200.5C129.2 200.2 129.1 199.9 128.9 199.6C128.5 199 128.6 197.4 128.9 196.9C129.4 195.9 131.1 194.4 131.2 194.2C131.7 193.8 135 192 136.6 192.2C137.6 192.3 139.9 194.9 140.4 195.9C140.4 196.3 140.8 196.5 140.9 196.8C141.2 197.5 141.1 198.1 140.6 198.7C140.5 198.8 140.4 199 140.4 199.2C140.4 199.3 140.4 199.5 140.3 199.6C139.6 200.4 139.2 201.4 138.6 202.2C138.2 202.7 137.8 203.2 137.3 203.6C136.9 204 136.4 204 135.9 203.9C135.3 203.8 134.7 203.6 134.1 203.4C133.7 203.3 133.4 203.3 133.1 203.4C132.1 203.8 130.5 205.4 129.5 206C128.6 206.6 127.9 206.8 127.1 206.5Z" fill="white"/>
<path d="M126.8 205.9C126.7 205.8 126.6 205.8 126.5 205.7C126 205.1 126.1 204.8 126.8 204.2C127.4 203.7 128.6 202.1 129.2 201.6C129.5 201.3 129.7 201 129.3 200.6C129.1 200.4 129.1 200.2 129 199.9C128.9 199.6 128.8 199.3 128.6 199C128.2 198.4 128.3 196.8 128.6 196.3C129.1 195.3 130.8 193.8 130.9 193.6C131.4 193.2 134.7 191.4 136.3 191.6C137.3 191.7 139.6 194.3 140.1 195.3C140.1 195.7 140.5 195.9 140.6 196.2C140.9 196.9 140.8 197.5 140.3 198.1C140.2 198.2 140.1 198.4 140.1 198.6C140.1 198.7 140.1 198.9 140 199C139.3 199.8 138.9 200.8 138.3 201.6C137.9 202.1 137.5 202.6 137 203C136.6 203.4 136.1 203.4 135.6 203.3C135 203.2 134.4 203 133.8 202.8C133.4 202.7 133.1 202.7 132.8 202.8C131.8 203.2 130.2 204.8 129.2 205.4C128.3 206.1 127.6 206.3 126.8 205.9Z" fill="#FBBE52"/>
<path fill-rule="evenodd" clip-rule="evenodd" d="M231.9 212.3C232 217.7 232.2 222.2 232.5 227.6C232.8 231.6 233 238.8 232.7 242.8C232 243.3 231.3 240.9 230.6 241C226 240.1 221.3 239.4 216.7 238.8C210.2 237.9 203.6 236.4 197.2 235.5C194.9 235.2 192.9 235 191.4 235C190.9 235 190.9 234.1 190.7 233.6C190.4 233 190.9 232.6 191.2 232.2C191.7 231.6 192.1 231.7 192.7 231.1C191.8 231.6 186.5 234.6 189 232.9C187.1 233.5 187.1 231.8 187 229.8C186.9 226.3 187.5 223.8 187.8 220.3C188 217.3 188.1 214.3 188.3 211.3C188.5 207.2 189.1 214.3 189.2 210.2C189.3 206.6 189.6 203.1 189.4 199.5C189.2 196.7 189.2 193.8 189.1 191C188.8 185.8 187.9 180.6 187.7 175.4C187.6 171.1 187.7 166.9 188.5 162.7C188.6 162 188.6 161.3 187.9 160.9C187.3 166.7 187.3 172.5 186.2 178.2C185.7 179 184.8 179.9 184.8 180.9C184.6 181.5 182.6 188.1 181.6 193.1C180.7 196.2 179.1 198.5 177.1 200C175 201.5 172.3 202 168.2 202.7C167.6 202.8 169.8 201.2 169.2 201.3C166.3 201.8 165.2 200.8 165.7 197.9C166 196.2 166.8 194.8 167.6 193.4C170.1 189.3 167.2 187 169.7 182.9C173.6 176.6 172.9 180.3 173.8 173C174.8 165.2 176.5 157.4 179.2 150C180.8 145.8 183 141.8 186.4 138.8C191.2 134.4 197 131.8 203.5 131.2C206.5 130.9 209.6 130.6 212.6 130.1C213.2 130 213.7 130.1 214.3 130C214.7 129.9 214.1 129.9 214.2 129.8C214.9 128.9 216 128.9 216.8 128.2C222.3 130.1 227.6 132.4 231.4 137.2C234.3 141 236.6 145.3 237.6 149.9C240.7 162.9 245.4 175.5 248.5 188.4C249.1 191.1 249.4 193.8 249.6 196.5C249.7 197.9 249.4 199.3 248.6 200.4C246.4 203.7 243.4 206 239.5 207C239.4 206.3 240 206.1 240.3 205.8C241.6 204.8 242.7 203.6 244 202.6C244.6 202.1 244.6 201.6 243.8 201.3C242.3 200.8 241.6 199.6 240.9 198.3C239 194.7 237.8 190.9 236.8 187C235.2 181 233.3 175.2 231.7 169.2C231.3 167.6 231 166 231.8 164.4C232.1 163.9 232.1 163.2 231.7 162.7C230.2 160.9 230.2 159 231.2 156.9C231.3 156.7 231.3 156.5 231.2 156.3C230.3 156.7 229.9 157.3 229.9 158.6C230 162.7 230.1 166.8 230.4 170.9C230.9 177.4 231.6 183.8 230.9 190.3C230.8 191.6 230.9 192.9 231.3 194.2C232 196.5 234.4 198.9 233.9 201.3C233.8 204.1 231.9 211.3 231.9 212.3Z" fill="url(#paint25_linear)"/>
<path fill-rule="evenodd" clip-rule="evenodd" d="M185 181C185.5 177.8 187.9 170.3 187.4 160.5C189.3 161.2 189.7 162 189.2 163.7C188.9 164.6 188.8 165.7 188.7 166.6C188.3 173.1 189.3 179.5 189.7 186C189.9 190 190 194 190.2 198C190.3 201.8 190.2 205.7 190.1 209.5C189.9 215 187.6 225.1 187.9 230.7C188 232.3 188.6 232.7 190.1 232.2C191.6 231.7 193.1 230.9 194.6 230.3C194.7 230.4 194.8 230.5 194.9 230.6C193.6 231.7 192.3 232.7 191 233.8C204.7 235.9 220 238.2 233.3 240.2C233.6 241.4 233.7 243.7 233.1 243.8C228.6 243.8 220.5 239.9 216.1 239.5C214.2 239.3 212.3 239.1 210.5 239C209.4 238.7 208.2 238.7 207.1 238.4C206.8 238.4 206.6 238.3 206.3 238.3C204.4 237.9 202.5 237.7 200.6 237.5C196.1 236.7 191.5 236.1 186.9 235.6C185.4 235.5 183.7 236.1 182.3 235.1C182.4 233.2 182.7 231.3 183.3 229.5C184.1 227.1 185.1 225.6 185.1 223.1C185.1 215.5 188.2 202.5 184.9 186.7C184.6 186.3 184.6 182.5 185 181Z" fill="url(#paint26_linear)"/>
<path fill-rule="evenodd" clip-rule="evenodd" d="M193 420.9C192.8 422.4 192.9 423.8 194.2 425C195.5 426.1 196.4 426.3 198 425.4C199.9 423.9 202 422.8 204.5 422.8C205.5 422.9 206.2 423.4 206.4 424.4C206.7 425.5 207.2 426.6 207.6 427.7C207.7 430.6 207.1 433.2 205.5 435.7C204.9 436.6 205.4 436.7 206.2 436.8C207.2 436.8 208.2 436.5 209.1 437.2C205.6 437.7 202.1 437.2 198.6 437.3C198.2 437.3 197.9 437 197.8 436.7C197.4 435.2 196.6 435.7 195.7 436.1C193.3 437 190.7 437.4 188.2 437.8C186.5 437.8 184.8 437.8 183.1 437.8C181.5 437.7 179.8 437.6 178.4 436.8C177.5 436.3 176.6 435.6 176.6 434.4C176.5 433.1 177.5 432.7 178.4 432.3C179.8 431.5 181.2 430.7 182.7 430C187.1 428.1 190.2 424.7 193 420.9Z" fill="#00695C"/>
<path fill-rule="evenodd" clip-rule="evenodd" d="M141.4 191.7C141.2 192 140.8 192 140.4 192.1C137.4 192.4 135.5 194.6 135.5 197.5C134.2 198.1 133 197.7 132.3 196.4C131.4 194.7 131.4 193 132.3 191.3V191.2C135 189.8 137.7 190.2 140.4 191C140.8 191.2 141.2 191.3 141.4 191.7Z" fill="#BAE5D7"/>
<path fill-rule="evenodd" clip-rule="evenodd" d="M132.3 191.4C132.1 192.6 131.8 193.8 132.2 195.1C132.8 197.1 133.2 197.5 135.5 197.6C135.8 199.9 138 200.4 139.3 201.8C137.8 202.7 136.4 201.8 134.9 201.6C134.4 201.5 134 201.4 133.6 201.2C129.9 198.9 130 195.3 132.3 191.4Z" fill="#B2A5A5"/>
<path fill-rule="evenodd" clip-rule="evenodd" d="M212.6 129.5C209.3 129.3 205.9 129.5 202.6 129.4C201.4 129.5 200.3 129.1 199.2 129.3C191.4 130.2 177 139 173.5 155.7C171.8 163.5 170.5 168.3 169.2 176.2C168.6 179.9 168.3 184.2 166.4 186.4C164.9 188.2 161.9 188.3 160.3 188.7C156.7 189.8 145.8 191.7 141.4 191.6C137.7 191.4 134.9 194.1 135.2 197.5C135.6 199.8 137.3 200.9 139.3 201.6C143.5 203.5 158.9 203.1 165.8 202.8C167.3 202.7 173.8 202.4 177.2 199.8C177.7 199.4 173.3 199.2 172 195.8C170.8 192.6 174 174.8 174.5 172.3C175.6 166.8 176.7 161.2 178.2 155.7C180.7 146.2 185 138.2 194.5 134C197.4 132.7 200.4 131.6 203.7 131.4C206.9 131.2 214.9 130.9 216.8 128.7C216.9 128.3 213 129.6 212.6 129.5Z" fill="url(#paint27_linear)"/>
<path fill-rule="evenodd" clip-rule="evenodd" d="M198.3 282.1C203.5 281.3 208.2 279 212.9 276.7C213.7 276.3 214.4 276.3 215.3 276.8C217.7 278.2 220.1 279.8 223 280.7C221.9 281.9 220.9 282.5 219.5 282.1C218.3 281.8 217.1 281.6 215.9 281.1C214.3 280.5 212.7 280.6 211 281.2C206.8 282.6 202.5 282.4 198.3 282.1Z" fill="#17324A"/>
<path fill-rule="evenodd" clip-rule="evenodd" d="M205.5 380C205.1 374 204.7 358.5 203.7 352.6C203 348.2 202.6 343.9 203.2 339.4C203.7 335.3 204.5 325.5 204.1 320.6C204.1 320.7 204.2 320.7 204.2 320.7C204.3 319.4 204 317.2 204 315.9C198.4 315.6 192.8 316.1 187.3 316.5C187.4 317.2 187.5 317.8 187.6 318.5C188.7 327.1 189.2 342.3 190 351C191 362.5 192.4 383.5 194.1 394.9C195 400.9 195.4 407 195.4 413C195.4 415.8 195.5 419.4 193.1 421.5C192.6 424 193.1 424.9 194.8 425.9C196.1 426.6 197.2 426.4 198 425.3C198.6 425 199.1 424.8 199.7 424.6C201.3 424 202.7 422.8 204.6 423.1C205.3 422.5 205.2 421.6 205.3 420.8C205.1 414.2 205.8 407.7 205.9 401.1C205.8 394.1 205.9 387.1 205.5 380Z" fill="#FBBE52"/>
<path fill-rule="evenodd" clip-rule="evenodd" d="M232.4 256.9C231.7 256.4 231 256.9 230.3 256.9C224 256.5 217.8 256.1 211.6 255.5C203.5 254.6 195.7 252.4 187.7 251.1C185.6 250.8 183.5 250.5 181.4 250.8C180.5 250.9 180.3 251.3 180.3 252.1C180.3 253.9 179.5 250.6 179.4 248.5C179.2 244.2 180.1 239.9 180.4 235.6C180.5 234.5 181 233.6 182.1 233.3C183.7 233.3 187.3 234.1 188.9 234.2C189.1 234.9 187 234.8 187.1 235.5C187 238.6 186.7 241.8 186.5 244.9C186.4 246.7 187.1 248 188.6 248.8C189.6 249.3 190.7 249.5 191.8 249.7C200.6 251.2 209.5 252.4 218.5 252.9C222.6 253.1 226.7 253 230.8 252.8C232 252.7 233 251.8 234.3 252.3C234.4 254.2 234.4 256 232.4 256.9Z" fill="url(#paint28_linear)"/>
<path fill-rule="evenodd" clip-rule="evenodd" d="M234.3 252.3C229.4 253.9 224.4 253.7 219.4 253.3C217.3 253.1 215.2 253 213.1 252.9C208.7 252.7 204.3 252 200 251.4C196.8 251 193.6 250.4 190.4 249.9C187.6 249.4 185.7 247.5 186 245.2C186.2 244 186.2 242.8 186.3 241.6C186.5 239.4 186.7 237.2 186.9 235.1C187.4 234.3 188.2 234.3 189 234.3C191.2 234.2 193.4 234.8 195.6 235.1C196.9 235.3 198.2 235.4 199.5 235.6C201.4 236 208.6 237.1 209.5 237.2C217.1 238.2 224.6 239.7 232.2 240.4C233 240.5 233.9 240.5 234.5 241.2C234.3 244.8 234.3 248.5 234.3 252.3Z" fill="url(#paint29_linear)"/>
<path fill-rule="evenodd" clip-rule="evenodd" d="M232.5 257.6C233.9 261.6 233.4 267.7 232.5 271.7C231 278.8 228.8 302.4 227.9 310C227.6 312.2 227.7 314.4 227.1 316.6C226.7 316.9 188.1 317.2 187.3 316.6C186.4 315.2 186.1 314.2 185.8 308.7C185.5 302.3 184 284.5 184.4 278.1C184.7 274.5 184.9 270.8 184.8 267.2C184.7 264.3 184.9 261.4 185.1 258.5C185.2 256.2 185.7 255.7 187.9 255.3C191.2 254.7 194.4 254.9 197.6 255.6C203.5 256.9 209.5 257.9 215.6 258.4C219.8 258.7 224 258.5 228.2 258C229.6 257.7 231 257.6 232.5 257.6Z" fill="url(#paint30_linear)"/>
<path fill-rule="evenodd" clip-rule="evenodd" d="M232.5 257.6C232.2 258 231.9 258.1 231.4 258.1C227.8 258.1 224.2 258.8 220.5 258.8C213.1 258.8 205.8 257.7 198.6 256.1C195 255.3 191.3 255 187.6 255.6C186.2 255.8 185.4 256.3 185.4 258C185.3 264.6 185.2 271.2 184.7 277.7C184.2 283.9 186.8 310.3 187.1 316.5C187.2 320.3 183.4 301.4 180.3 260.2C180.2 259.3 180.2 258.4 180.1 257.5C179.9 255.6 180.1 253.7 180 251.8C180 251 180.5 250.8 181.1 250.7C182.3 250.4 183.5 250.3 184.7 250.5C188.8 250.9 192.8 251.7 196.9 252.6C204.9 254.3 213 255.5 221.2 255.9C224.6 256 232.4 256.4 232.4 256.4C232.4 256.4 232.3 256.5 232.5 257C232.4 257.2 232.4 257.4 232.5 257.6Z" fill="#025E51"/>
</g>
</g>
<defs>
<linearGradient id="paint0_linear" x1="480.549" y1="309.678" x2="397.26" y2="325.86" gradientUnits="userSpaceOnUse">
<stop offset="0.2222" stop-color="#00695C"/>
<stop offset="0.418" stop-color="#006E61"/>
<stop offset="0.6588" stop-color="#007D70"/>
<stop offset="0.9206" stop-color="#009688"/>
</linearGradient>
<linearGradient id="paint1_linear" x1="421.253" y1="312.765" x2="475.986" y2="318.001" gradientUnits="userSpaceOnUse">
<stop offset="0.2222" stop-color="#00695C"/>
<stop offset="0.418" stop-color="#006E61"/>
<stop offset="0.6588" stop-color="#007D70"/>
<stop offset="0.9206" stop-color="#009688"/>
</linearGradient>
<linearGradient id="paint2_linear" x1="424.514" y1="163.422" x2="442.813" y2="163.422" gradientUnits="userSpaceOnUse">
<stop stop-color="#E88306"/>
<stop offset="0.9133" stop-color="#F7D209"/>
<stop offset="1" stop-color="#F8DA09"/>
</linearGradient>
<linearGradient id="paint3_linear" x1="437.619" y1="121.456" x2="448.007" y2="121.456" gradientUnits="userSpaceOnUse">
<stop stop-color="#E88306"/>
<stop offset="0.9133" stop-color="#F7D209"/>
<stop offset="1" stop-color="#F8DA09"/>
</linearGradient>
<linearGradient id="paint4_linear" x1="302.578" y1="174.317" x2="356.736" y2="174.317" gradientUnits="userSpaceOnUse">
<stop offset="0.0996126" stop-color="#BFE1D7"/>
<stop offset="0.4251" stop-color="#B7DDD2"/>
<stop offset="0.9153" stop-color="#A2D4C5"/>
</linearGradient>
<linearGradient id="paint5_linear" x1="300.352" y1="266.407" x2="369.268" y2="266.407" gradientUnits="userSpaceOnUse">
<stop offset="0.0996126" stop-color="#BFE1D7"/>
<stop offset="0.4251" stop-color="#B7DDD2"/>
<stop offset="0.9153" stop-color="#A2D4C5"/>
</linearGradient>
<linearGradient id="paint6_linear" x1="262.402" y1="166.276" x2="286.306" y2="166.276" gradientUnits="userSpaceOnUse">
<stop offset="0.2222" stop-color="#00695C"/>
<stop offset="0.418" stop-color="#006E61"/>
<stop offset="0.6588" stop-color="#007D70"/>
<stop offset="0.9206" stop-color="#009688"/>
</linearGradient>
<linearGradient id="paint7_linear" x1="263.516" y1="165.245" x2="287.421" y2="165.245" gradientUnits="userSpaceOnUse">
<stop offset="0.0996126" stop-color="#BFE1D7"/>
<stop offset="0.4251" stop-color="#B7DDD2"/>
<stop offset="0.9153" stop-color="#A2D4C5"/>
</linearGradient>
<linearGradient id="paint8_linear" x1="99.1468" y1="205.468" x2="230.588" y2="205.468" gradientUnits="userSpaceOnUse">
<stop stop-color="#FFC400"/>
<stop offset="1" stop-color="#FF9100"/>
</linearGradient>
<linearGradient id="paint9_linear" x1="99.1468" y1="195.651" x2="182.777" y2="195.651" gradientUnits="userSpaceOnUse">
<stop stop-color="#FFC400"/>
<stop offset="1" stop-color="#FF9100"/>
</linearGradient>
<linearGradient id="paint10_linear" x1="117.542" y1="342.947" x2="201.037" y2="342.947" gradientUnits="userSpaceOnUse">
<stop stop-color="#FFC400"/>
<stop offset="1" stop-color="#FF9100"/>
</linearGradient>
<linearGradient id="paint11_linear" x1="153.761" y1="183.246" x2="162.058" y2="183.246" gradientUnits="userSpaceOnUse">
<stop offset="0.2222" stop-color="#00695C"/>
<stop offset="0.418" stop-color="#006E61"/>
<stop offset="0.6588" stop-color="#007D70"/>
<stop offset="0.9206" stop-color="#009688"/>
</linearGradient>
<linearGradient id="paint12_linear" x1="113.935" y1="197.999" x2="122.232" y2="197.999" gradientUnits="userSpaceOnUse">
<stop offset="0.2222" stop-color="#00695C"/>
<stop offset="0.418" stop-color="#006E61"/>
<stop offset="0.6588" stop-color="#007D70"/>
<stop offset="0.9206" stop-color="#009688"/>
</linearGradient>
<linearGradient id="paint13_linear" x1="133.848" y1="183.246" x2="142.145" y2="183.246" gradientUnits="userSpaceOnUse">
<stop offset="0.2222" stop-color="#00695C"/>
<stop offset="0.418" stop-color="#006E61"/>
<stop offset="0.6588" stop-color="#007D70"/>
<stop offset="0.9206" stop-color="#009688"/>
</linearGradient>
<linearGradient id="paint14_linear" x1="158.924" y1="214.225" x2="167.222" y2="214.225" gradientUnits="userSpaceOnUse">
<stop offset="0.2222" stop-color="#00695C"/>
<stop offset="0.418" stop-color="#006E61"/>
<stop offset="0.6588" stop-color="#007D70"/>
<stop offset="0.9206" stop-color="#009688"/>
</linearGradient>
<linearGradient id="paint15_linear" x1="116.148" y1="214.225" x2="124.445" y2="214.225" gradientUnits="userSpaceOnUse">
<stop offset="0.2222" stop-color="#00695C"/>
<stop offset="0.418" stop-color="#006E61"/>
<stop offset="0.6588" stop-color="#007D70"/>
<stop offset="0.9206" stop-color="#009688"/>
</linearGradient>
<linearGradient id="paint16_linear" x1="138.273" y1="214.225" x2="146.57" y2="214.225" gradientUnits="userSpaceOnUse">
<stop offset="0.2222" stop-color="#00695C"/>
<stop offset="0.418" stop-color="#006E61"/>
<stop offset="0.6588" stop-color="#007D70"/>
<stop offset="0.9206" stop-color="#009688"/>
</linearGradient>
<linearGradient id="paint17_linear" x1="155.717" y1="206.295" x2="168.603" y2="206.295" gradientUnits="userSpaceOnUse">
<stop offset="0.0996126" stop-color="#BFE1D7"/>
<stop offset="0.4251" stop-color="#B7DDD2"/>
<stop offset="0.9153" stop-color="#A2D4C5"/>
</linearGradient>
<linearGradient id="paint18_linear" x1="135.157" y1="206.295" x2="148.044" y2="206.295" gradientUnits="userSpaceOnUse">
<stop offset="0.0996126" stop-color="#BFE1D7"/>
<stop offset="0.4251" stop-color="#B7DDD2"/>
<stop offset="0.9153" stop-color="#A2D4C5"/>
</linearGradient>
<linearGradient id="paint19_linear" x1="110.522" y1="190.831" x2="123.408" y2="190.831" gradientUnits="userSpaceOnUse">
<stop offset="0.0996126" stop-color="#BFE1D7"/>
<stop offset="0.4251" stop-color="#B7DDD2"/>
<stop offset="0.9153" stop-color="#A2D4C5"/>
</linearGradient>
<linearGradient id="paint20_linear" x1="132.648" y1="190.831" x2="145.533" y2="190.831" gradientUnits="userSpaceOnUse">
<stop offset="0.0996126" stop-color="#BFE1D7"/>
<stop offset="0.4251" stop-color="#B7DDD2"/>
<stop offset="0.9153" stop-color="#A2D4C5"/>
</linearGradient>
<linearGradient id="paint21_linear" x1="108.658" y1="176.843" x2="121.544" y2="176.843" gradientUnits="userSpaceOnUse">
<stop offset="0.0996126" stop-color="#BFE1D7"/>
<stop offset="0.4251" stop-color="#B7DDD2"/>
<stop offset="0.9153" stop-color="#A2D4C5"/>
</linearGradient>
<linearGradient id="paint22_linear" x1="130.691" y1="176.843" x2="143.578" y2="176.843" gradientUnits="userSpaceOnUse">
<stop offset="0.0996126" stop-color="#BFE1D7"/>
<stop offset="0.4251" stop-color="#B7DDD2"/>
<stop offset="0.9153" stop-color="#A2D4C5"/>
</linearGradient>
<linearGradient id="paint23_linear" x1="151.25" y1="176.843" x2="164.136" y2="176.843" gradientUnits="userSpaceOnUse">
<stop offset="0.0996126" stop-color="#BFE1D7"/>
<stop offset="0.4251" stop-color="#B7DDD2"/>
<stop offset="0.9153" stop-color="#A2D4C5"/>
</linearGradient>
<linearGradient id="paint24_linear" x1="111.723" y1="183.246" x2="120.019" y2="183.246" gradientUnits="userSpaceOnUse">
<stop offset="0.2222" stop-color="#00695C"/>
<stop offset="0.418" stop-color="#006E61"/>
<stop offset="0.6588" stop-color="#007D70"/>
<stop offset="0.9206" stop-color="#009688"/>
</linearGradient>
<linearGradient id="paint25_linear" x1="165.704" y1="185.393" x2="249.932" y2="185.393" gradientUnits="userSpaceOnUse">
<stop offset="0.0996126" stop-color="#BFE1D7"/>
<stop offset="0.4251" stop-color="#B7DDD2"/>
<stop offset="0.9153" stop-color="#A2D4C5"/>
</linearGradient>
<linearGradient id="paint26_linear" x1="182.057" y1="202.194" x2="233.382" y2="202.194" gradientUnits="userSpaceOnUse">
<stop offset="0.0996126" stop-color="#BFE1D7"/>
<stop offset="0.4251" stop-color="#B7DDD2"/>
<stop offset="0.9153" stop-color="#A2D4C5"/>
</linearGradient>
<linearGradient id="paint27_linear" x1="135.182" y1="165.92" x2="216.847" y2="165.92" gradientUnits="userSpaceOnUse">
<stop offset="0.0996126" stop-color="#BFE1D7"/>
<stop offset="0.4251" stop-color="#B7DDD2"/>
<stop offset="0.9153" stop-color="#A2D4C5"/>
</linearGradient>
<linearGradient id="paint28_linear" x1="179.266" y1="245.154" x2="234.325" y2="245.154" gradientUnits="userSpaceOnUse">
<stop offset="0.0996126" stop-color="#BFE1D7"/>
<stop offset="0.4251" stop-color="#B7DDD2"/>
<stop offset="0.9153" stop-color="#A2D4C5"/>
</linearGradient>
<linearGradient id="paint29_linear" x1="185.919" y1="243.914" x2="234.311" y2="243.914" gradientUnits="userSpaceOnUse">
<stop offset="0.0996126" stop-color="#BFE1D7"/>
<stop offset="0.4251" stop-color="#B7DDD2"/>
<stop offset="0.9153" stop-color="#A2D4C5"/>
</linearGradient>
<linearGradient id="paint30_linear" x1="184.237" y1="285.886" x2="233.339" y2="285.886" gradientUnits="userSpaceOnUse">
<stop offset="0.2222" stop-color="#00695C"/>
<stop offset="0.418" stop-color="#006E61"/>
<stop offset="0.6588" stop-color="#007D70"/>
<stop offset="0.9206" stop-color="#009688"/>
</linearGradient>
<clipPath id="clip0">
<rect width="550" height="440" fill="white"/>
</clipPath>
</defs>
</svg>
