<svg width="41" height="40" fill="none" xmlns="http://www.w3.org/2000/svg"><path d="M30.25 20.938h5v-1.875h-5v1.875zM32.844 8.75l4.281-4.281-1.35-1.344L30.15 8.75H1.5v22.5h6.15l-4.275 4.281 1.344 1.35 5.625-5.625H39V8.737l-6.156.013zM3.375 10.613h4.287a5.325 5.325 0 01-4.287 4.28v-4.28zm0 18.75V25.08a5.324 5.324 0 014.287 4.282H3.375zm6.175 0A7.2 7.2 0 003.375 23.2v-6.394a7.2 7.2 0 006.181-6.181h18.75l-3 3a8.124 8.124 0 00-11.4 11.4L9.55 29.363zm15.7-13.05a6.181 6.181 0 011.25 3.68 6.25 6.25 0 01-6.25 6.25 6.175 6.175 0 01-3.681-1.212l8.681-8.718zm-10.069 7.375a6.25 6.25 0 018.75-8.75l-8.75 8.75zm21.944 5.675h-4.288a5.307 5.307 0 014.288-4.282v4.282zm0-6.182a7.194 7.194 0 00-6.181 6.181h-18.75l3.006-3a8.125 8.125 0 0011.406-11.374l4.325-4.325a7.2 7.2 0 006.181 6.156l.013 6.362zm0-8.281a5.307 5.307 0 01-4.288-4.281h4.288V14.9zM5.25 20.931h5v-1.875h-5v1.875z" fill="#8EB005"/></svg>