<svg width="41" height="40" fill="none" xmlns="http://www.w3.org/2000/svg"><path d="M6.594 29.919l-1.519 1.106a18.912 18.912 0 004.15 4.144l1.106-1.513a16.83 16.83 0 01-3.737-3.737zm7.856 7.918a18.75 18.75 0 005.8.913v-1.875a16.931 16.931 0 01-5.219-.819l-.581 1.782zM1.5 20a18.687 18.687 0 00.912 5.794l1.782-.575A16.93 16.93 0 013.375 20H1.5zm22.938 6.25a4.062 4.062 0 11-6.988-2.812H28.5v-1.875H12.25v1.875h2.9a5.937 5.937 0 1011.162 2.812h-1.875zM12.25 16.563v1.875H28.5v-1.875h-2.906a5.93 5.93 0 10-11.157-2.813h1.876a4.063 4.063 0 116.987 2.813H12.25zm8-15.313A18.631 18.631 0 007.181 6.556V2.738H5.306v7.187h7.188V8.05H8.33a16.876 16.876 0 1117.131 28.006l.582 1.782A18.75 18.75 0 0020.25 1.25z" fill="#8EB005"/></svg>