<svg width="212" height="54" fill="none" xmlns="http://www.w3.org/2000/svg"><path d="M4.593 30.426c0-5.474 3.35-9.906 9.996-9.906 2.751 0 4.933.757 7.114 1.956l-1.922 3.937c-1.61-1.095-3.193-1.72-5.192-1.72-3.332 0-5.116 2.528-5.116 5.735 0 3.155 1.819 5.684 5.142 5.684 1.065 0 2-.157 2.934-.705v-2.686h-3.143v-3.755h7.504v8.968c-2.206 1.46-4.75 2.399-7.295 2.399-6.646 0-10.022-4.432-10.022-9.907zm31.389 5.631l1.325 2.946c-1.506.88-3.375 1.33-5.583 1.33-4.518 0-7.478-2.554-7.478-6.908 0-4.355 2.753-6.935 6.959-6.935 4.57 0 6.699 2.58 6.699 6.935l-.176 1.329h-8.833c.233 1.824 1.219 2.242 2.806 2.242 1.452 0 3.036-.312 4.28-.94zm-7.036-4.01h4.549c0-1.642-1.09-2.475-2.362-2.475-1.2-.006-1.954.827-2.187 2.476zm15.967-3.784a6.5 6.5 0 014.385-1.773c2.39 0 4.985 1.173 4.985 6.413v7.274h-4.566v-7.534c0-1.937-.986-2.348-1.973-2.348-1.117 0-2.076.758-2.674 1.585v8.292H40.5V26.647h3.791l.526 1.585.096.031zm23.831 7.794l1.324 2.946c-1.506.88-3.376 1.33-5.584 1.33-4.517 0-7.477-2.554-7.477-6.908 0-4.355 2.753-6.935 6.958-6.935 4.57 0 6.7 2.58 6.7 6.935l-.176 1.329h-8.828c.233 1.824 1.219 2.242 2.806 2.242 1.452 0 3.036-.312 4.277-.94zm-7.032-4.01h4.544c0-1.642-1.091-2.475-2.362-2.475-1.195-.006-1.949.827-2.182 2.476zm15.976-3.784c.877-.99 2.28-1.773 3.609-1.773.624 0 1.43.104 2 .391l-.986 4.066c-.527-.312-1.195-.391-1.793-.391-1.117 0-2.076.757-2.674 1.585v8.031h-4.579V26.647h3.792l.526 1.585.105.031zm19.308 4.04v7.875h-3.79l-.526-1.585-.103-.025a5.395 5.395 0 01-3.87 1.772c-2.908 0-4.911-1.772-4.911-4.3 0-1.331.526-4.068 5.868-4.068.545 0 1.948.104 2.7.338 0-1.877-1.011-2.476-2.518-2.476-1.454 0-2.259.288-3.739.939l-1.313-2.951c1.722-.9 3.64-1.357 5.582-1.33 3.972-.001 6.62 1.927 6.62 5.811zm-4.621 2.21a4.52 4.52 0 00-1.93-.364c-1.53 0-1.946.704-1.946 1.484 0 .938.65 1.486 1.817 1.486.682.007 2.059-.591 2.059-2.606zm12.307-.123c0 1.355.284 2.288 1.973 2.288l-.649 3.494c-.43.131-.875.201-1.324.208-3.143 0-4.57-1.955-4.57-5.892V19.45h4.57v14.94z" fill="#fff"/><path d="M116.807 20.676c4.153 0 7.581 2.868 7.581 6.726 0 3.832-3.428 6.883-7.581 6.883h-3.195v5.892h-4.884V20.676h8.079zm-3.195 3.858v5.735h2.674c1.819 0 3.22-1.25 3.22-2.867 0-1.72-1.403-2.868-3.22-2.868h-2.674zm25.523 7.769v7.875h-3.79l-.526-1.585-.104-.025a5.388 5.388 0 01-3.868 1.772c-2.908 0-4.91-1.772-4.91-4.3 0-1.331.526-4.068 5.867-4.068.546 0 1.947.104 2.701.338 0-1.877-1.014-2.476-2.518-2.476-1.456 0-2.259.288-3.739.939l-1.317-2.951a11.695 11.695 0 015.584-1.33c3.972-.001 6.62 1.927 6.62 5.811zm-4.628 2.21a4.523 4.523 0 00-1.929-.364c-1.531 0-1.947.704-1.947 1.484 0 .938.649 1.486 1.817 1.486.689.007 2.059-.591 2.059-2.606zm8.47 11.093l2.648-6.205-5.452-12.747 4.986-.157 2.676 7.97h.103l2.674-7.977 4.986.157-8.181 19.109-4.44-.15z" fill="#728ECE"/><path d="M192.624 20.032a5.675 5.675 0 016.241.463l7.316 5.634a.765.765 0 00.845.056.77.77 0 00.374-.762.77.77 0 00-.291-.507l-7.316-5.635a7.189 7.189 0 00-7.911-.585l-7.201 4.019v1.76l7.943-4.444zm-7.943 18.752v3.698h7.941a.76.76 0 00.761-.764v-2.934h-8.702zm4.514-8.305a1.63 1.63 0 00-.338.137.824.824 0 00-.386.466 2.41 2.41 0 01.724-.604z" fill="#fff"/><path d="M184.681 38.785V20.426a1.819 1.819 0 00-1.816-1.826h-.804v2.758a.965.965 0 01-.959.963h-13.784a.958.958 0 01-.959-.963v-2.761h-.637a1.814 1.814 0 00-1.684 1.128c-.092.223-.138.46-.138.701v25.496a1.844 1.844 0 00.534 1.292 1.827 1.827 0 001.288.534h17.148c.482 0 .944-.194 1.285-.536a1.83 1.83 0 00.532-1.29v-7.137h-.006zm-2.62-1.132v.734a.426.426 0 01-.426.426h-3.286a.422.422 0 01-.424-.426v-.734a.425.425 0 01.424-.426h3.283a.423.423 0 01.429.426zm-5.787 0v.734a.425.425 0 01-.424.426h-3.288a.426.426 0 01-.426-.426v-.734a.43.43 0 01.426-.426h3.283a.42.42 0 01.398.26.424.424 0 01.033.166h-.002zm-4.131-3.316v-.733a.427.427 0 01.426-.428h3.283a.425.425 0 01.424.428v.733a.418.418 0 01-.124.302.423.423 0 01-.3.126h-3.29a.424.424 0 01-.419-.428zm5.787 0v-.733a.426.426 0 01.261-.395.425.425 0 01.163-.033h3.283a.425.425 0 01.426.428v.733a.429.429 0 01-.426.428h-3.288a.425.425 0 01-.421-.428h.002zm-11.41-8.664a1.258 1.258 0 01.364-.88 1.232 1.232 0 01.878-.364h13.058a1.237 1.237 0 011.147.768c.062.15.094.313.094.477v3.504a1.246 1.246 0 01-1.241 1.245h-13.058c-.329 0-.645-.131-.877-.365a1.251 1.251 0 01-.365-.88v-3.505zm3.972 16.794a.427.427 0 01-.426.428h-3.283a.42.42 0 01-.392-.265.437.437 0 01-.032-.163v-.734a.425.425 0 01.424-.426h3.283a.42.42 0 01.302.124.427.427 0 01.124.302v.734zm0-4.08a.426.426 0 01-.426.426h-3.283a.425.425 0 01-.424-.426v-.734a.425.425 0 01.424-.426h3.283a.421.421 0 01.394.262.436.436 0 01.032.164v.734zm0-4.05a.428.428 0 01-.426.428h-3.283a.42.42 0 01-.392-.264.437.437 0 01-.032-.164v-.733a.437.437 0 01.124-.302.417.417 0 01.3-.126h3.283a.427.427 0 01.426.428v.733zm5.788 8.135a.437.437 0 01-.124.303.425.425 0 01-.301.125h-3.293a.427.427 0 01-.426-.428v-.74a.43.43 0 01.426-.426h3.283a.425.425 0 01.424.427l.011.74zm5.359.428h-3.29a.423.423 0 01-.424-.428v-.74a.425.425 0 01.424-.426h3.283a.423.423 0 01.426.427v.732a.426.426 0 01-.423.43l.004.005z" fill="#728ECE"/><path d="M166.813 19.04c.035.547.277 1.06.674 1.435.398.375.923.584 1.469.585h10.506a2.148 2.148 0 001.469-.585c.397-.375.639-.888.674-1.434l.456-7.135.223-3.501a.766.766 0 00-.205-.572.748.748 0 00-.262-.176.753.753 0 00-.293-.06h-2.104l-.328-.264-.887-.715a.761.761 0 00-.916-.028l-1.052.743-.165.116-.191-.116-1.277-.773a.754.754 0 00-.787 0l-1.268.77-.175.105-.134-.104-1.18-.914a.756.756 0 00-.948.014l-1.09.9-.319.26h-1.808a.769.769 0 00-.761.814l.225 3.5.454 7.136zm2.167-9.92a.756.756 0 00.484-.176l1.151-.95 1.245.967a.754.754 0 00.859.048l1.491-.909 1.501.909a.759.759 0 00.831-.03l1.151-.815.978.787a.754.754 0 00.475.167h1.566l-.626 9.824a.626.626 0 01-.624.586h-10.506a.623.623 0 01-.623-.586l-.626-9.824 1.273.002z" fill="#fff"/><path d="M170.068 41.308h-3.285a.425.425 0 00-.424.426v.734c0 .235.19.426.424.426h3.285c.234 0 .424-.19.424-.426v-.734a.425.425 0 00-.424-.426z" fill="#ED5446"/><path d="M175.852 41.308h-3.285a.425.425 0 00-.424.426v.734c0 .235.19.426.424.426h3.285c.234 0 .424-.19.424-.426v-.734a.425.425 0 00-.424-.426z" fill="#FFF419"/><path d="M181.637 41.308h-3.285a.425.425 0 00-.424.426v.734c0 .235.19.426.424.426h3.285c.234 0 .424-.19.424-.426v-.734a.425.425 0 00-.424-.426z" fill="#86FC6B"/><path d="M201.232 34.69l-5.448-.656-4.435-.528a8.049 8.049 0 01-1.872-.447c-.641-.247-1.018-.939-1.052-1.495a1.206 1.206 0 01.055-.477.819.819 0 01.385-.467 1.65 1.65 0 01.339-.137c1.703-.529 6.857-.375 9.945-.136a.757.757 0 00.787-.976.757.757 0 00-.67-.551c-.808-.061-3.365-.243-5.874-.229v-3.058a.761.761 0 00-.761-.764h-7.941v12.49h8.702v-1.973l7.668.921a.784.784 0 00.092 0 .758.758 0 00.76-.72.767.767 0 00-.671-.803l-.009.005z" fill="#fff"/></svg>