<svg width="310" height="79" fill="none" xmlns="http://www.w3.org/2000/svg"><path d="M6.716 44.511c0-8.009 4.898-14.492 14.616-14.492 4.024 0 7.214 1.107 10.404 2.862l-2.81 5.76c-2.354-1.603-4.67-2.517-7.593-2.517-4.873 0-7.48 3.699-7.48 8.39 0 4.616 2.659 8.316 7.518 8.316 1.556 0 2.923-.23 4.29-1.03v-3.932h-4.595v-5.492h10.973v13.12c-3.226 2.135-6.947 3.508-10.668 3.508-9.719 0-14.655-6.484-14.655-14.492zm45.899 8.239l1.939 4.31c-2.203 1.287-4.937 1.944-8.165 1.944-6.606 0-10.934-3.735-10.934-10.106 0-6.37 4.026-10.144 10.175-10.144 6.682 0 9.796 3.774 9.796 10.144l-.257 1.945H42.253c.34 2.67 1.782 3.28 4.103 3.28 2.123 0 4.438-.456 6.26-1.373zm-10.288-5.866h6.652c0-2.404-1.595-3.622-3.454-3.622-1.754-.008-2.857 1.21-3.198 3.622zm23.348-5.536a9.501 9.501 0 016.411-2.594c3.495 0 7.29 1.716 7.29 9.382v10.642H72.7V47.755c0-2.834-1.441-3.434-2.885-3.434-1.633 0-3.036 1.108-3.91 2.318v12.13H59.22V38.984h5.544l.77 2.319.14.046zm34.847 11.402l1.936 4.31c-2.203 1.287-4.936 1.944-8.165 1.944-6.606 0-10.934-3.735-10.934-10.106 0-6.37 4.026-10.144 10.175-10.144 6.683 0 9.796 3.774 9.796 10.144l-.256 1.945h-12.91c.342 2.67 1.783 3.28 4.104 3.28 2.123 0 4.438-.456 6.254-1.373zm-10.283-5.866h6.644c0-2.404-1.595-3.622-3.454-3.622-1.746-.008-2.849 1.21-3.19 3.622zm23.361-5.536c1.282-1.45 3.334-2.594 5.277-2.594.913 0 2.09.152 2.924.572l-1.441 5.948c-.77-.456-1.747-.572-2.621-.572-1.634 0-3.036 1.108-3.911 2.319V58.77h-6.695V38.983h5.544l.769 2.319.154.046zm28.233 5.91v11.52h-5.541l-.769-2.319-.152-.036a7.882 7.882 0 01-5.659 2.592c-4.252 0-7.18-2.592-7.18-6.291 0-1.947.769-5.95 8.58-5.95.798 0 2.849.151 3.949.494 0-2.746-1.48-3.622-3.682-3.622-2.126 0-3.303.42-5.467 1.373l-1.921-4.317a17.083 17.083 0 018.162-1.945c5.808-.003 9.68 2.818 9.68 8.5zm-6.757 3.233a6.607 6.607 0 00-2.82-.534c-2.239 0-2.847 1.03-2.847 2.172 0 1.373.949 2.174 2.657 2.174.997.01 3.01-.865 3.01-3.812zm17.997-.181c0 1.984.415 3.35 2.885 3.35l-.949 5.11a6.957 6.957 0 01-1.936.304c-4.595 0-6.683-2.86-6.683-8.62V28.456h6.683V50.31z" fill="#141414"/><path d="M170.803 30.248c6.072 0 11.085 4.196 11.085 9.84 0 5.606-5.013 10.07-11.085 10.07h-4.673v8.62h-7.141v-28.53h11.814zm-4.673 5.644v8.39h3.911c2.659 0 4.708-1.829 4.708-4.193 0-2.517-2.051-4.197-4.708-4.197h-3.911zm37.322 11.366v11.52h-5.542l-.769-2.319-.151-.036a7.855 7.855 0 01-5.657 2.591c-4.252 0-7.18-2.59-7.18-6.29 0-1.947.769-5.95 8.58-5.95.798 0 2.847.151 3.949.494 0-2.746-1.482-3.622-3.682-3.622-2.129 0-3.303.42-5.467 1.373l-1.926-4.317a17.095 17.095 0 018.165-1.945c5.808-.003 9.68 2.818 9.68 8.5zm-6.767 3.233a6.611 6.611 0 00-2.821-.534c-2.239 0-2.846 1.03-2.846 2.172 0 1.373.948 2.174 2.656 2.174 1.008.01 3.011-.865 3.011-3.812zM209.07 66.72l3.872-9.078-7.972-18.649 7.29-.229 3.913 11.66h.152l3.91-11.67 7.291.23-11.963 27.955-6.493-.22z" fill="#728ECE"/><path d="M281.667 29.305a8.3 8.3 0 019.126.678l10.698 8.243a1.114 1.114 0 001.235.082 1.12 1.12 0 00.547-1.115 1.12 1.12 0 00-.425-.742l-10.698-8.243a10.51 10.51 0 00-11.568-.855l-10.529 5.878v2.576l11.614-6.502zM270.053 56.74v5.41h11.611a1.12 1.12 0 001.113-1.118V56.74h-12.724zm6.6-12.151a2.401 2.401 0 00-.495.2 1.207 1.207 0 00-.564.683 3.494 3.494 0 011.059-.883z" fill="#141414"/><path d="M270.053 56.74V29.884a2.674 2.674 0 00-1.639-2.468 2.652 2.652 0 00-1.018-.204h-1.174v4.034c0 .374-.148.732-.411.997a1.4 1.4 0 01-.992.412h-20.156c-.372 0-.728-.148-.991-.412a1.413 1.413 0 01-.411-.997v-4.039h-.931a2.648 2.648 0 00-1.886.782 2.673 2.673 0 00-.778 1.895V67.18a2.68 2.68 0 001.645 2.47c.323.134.669.202 1.019.202h25.074a2.655 2.655 0 001.879-.784c.498-.5.778-1.18.778-1.888V56.74h-.008zm-3.831-1.656v1.074a.629.629 0 01-.623.624h-4.806a.622.622 0 01-.62-.624v-1.074a.621.621 0 01.62-.623h4.801a.612.612 0 01.443.18.622.622 0 01.185.443zm-8.463 0v1.074a.62.62 0 01-.62.623h-4.808a.623.623 0 01-.623-.623v-1.074a.632.632 0 01.182-.442.621.621 0 01.441-.181h4.8a.62.62 0 01.631.623h-.003zm-6.041-4.85v-1.072a.623.623 0 01.623-.626h4.8a.623.623 0 01.621.626v1.072a.632.632 0 01-.181.442.614.614 0 01-.44.183h-4.81a.626.626 0 01-.613-.626zm8.462 0v-1.072a.633.633 0 01.181-.443.62.62 0 01.44-.183h4.8a.622.622 0 01.623.626v1.072a.626.626 0 01-.623.625h-4.808a.618.618 0 01-.615-.626h.002zm-16.683-12.675a1.833 1.833 0 01.532-1.288 1.796 1.796 0 011.283-.533h19.094a1.803 1.803 0 011.284.532 1.828 1.828 0 01.532 1.29v5.126a1.827 1.827 0 01-.533 1.288c-.34.341-.802.533-1.283.533h-19.094c-.481 0-.942-.192-1.283-.533a1.826 1.826 0 01-.532-1.288v-5.127zm5.808 24.568a.628.628 0 01-.623.626h-4.801a.622.622 0 01-.62-.626v-1.074a.622.622 0 01.62-.623h4.801a.621.621 0 01.623.623v1.074zm0-5.969a.629.629 0 01-.623.624h-4.801a.622.622 0 01-.62-.623v-1.075a.622.622 0 01.62-.623h4.801a.62.62 0 01.623.623v1.074zm0-5.925a.627.627 0 01-.623.626h-4.801a.622.622 0 01-.62-.626v-1.071a.613.613 0 01.181-.443.617.617 0 01.439-.183h4.801a.627.627 0 01.623.626v1.072zm8.462 11.902a.614.614 0 01-.181.442.615.615 0 01-.439.184h-4.816a.623.623 0 01-.623-.626v-1.082a.632.632 0 01.182-.442.621.621 0 01.441-.181h4.8a.618.618 0 01.621.623l.015 1.082zm7.837.626h-4.811a.615.615 0 01-.574-.387.614.614 0 01-.046-.24v-1.081a.622.622 0 01.62-.623h4.801a.621.621 0 01.623.623v1.072a.623.623 0 01-.618.629l.005.007z" fill="#728ECE"/><path d="M243.925 27.855c.052.8.404 1.55.986 2.099a3.138 3.138 0 002.147.856h15.363a3.136 3.136 0 002.147-.856 3.166 3.166 0 00.987-2.099l.666-10.438.326-5.121a1.128 1.128 0 00-.3-.837 1.093 1.093 0 00-.382-.258 1.107 1.107 0 00-.428-.087h-3.077l-.48-.387-1.297-1.046a1.116 1.116 0 00-1.339-.04l-1.539 1.086-.241.17-.279-.17-1.867-1.13a1.11 1.11 0 00-1.151 0l-1.854 1.128-.257.152-.195-.152-1.726-1.337a1.106 1.106 0 00-1.387.02l-1.592 1.317-.467.38h-2.644a1.13 1.13 0 00-.813.354 1.128 1.128 0 00-.3.837l.328 5.121.665 10.438zm3.169-14.513a1.1 1.1 0 00.708-.258l1.682-1.388 1.821 1.414a1.1 1.1 0 001.256.07l2.18-1.33 2.195 1.33a1.108 1.108 0 001.216-.044l1.682-1.193 1.431 1.152a1.1 1.1 0 00.695.244h2.29l-.916 14.372a.92.92 0 01-.913.858h-15.363a.91.91 0 01-.91-.858l-.916-14.372 1.862.003z" fill="#141414"/><path d="M248.684 60.432h-4.803a.622.622 0 00-.62.623v1.074c0 .345.278.624.62.624h4.803c.343 0 .621-.28.621-.624v-1.074a.622.622 0 00-.621-.623z" fill="#ED5446"/><path d="M257.141 60.432h-4.803a.622.622 0 00-.62.623v1.074c0 .345.278.624.62.624h4.803c.343 0 .621-.28.621-.624v-1.074a.622.622 0 00-.621-.623z" fill="#FFF419"/><path d="M265.601 60.432h-4.803a.622.622 0 00-.62.623v1.074c0 .345.278.624.62.624h4.803c.343 0 .621-.28.621-.624v-1.074a.622.622 0 00-.621-.623z" fill="#86FC6B"/><path d="M294.255 50.748l-7.968-.958-6.485-.773a11.762 11.762 0 01-2.736-.655c-.938-.36-1.49-1.373-1.539-2.187-.02-.235.007-.473.08-.698.095-.291.297-.535.564-.682.157-.086.323-.153.495-.201 2.49-.773 10.027-.549 14.542-.199a1.109 1.109 0 001.152-1.427 1.116 1.116 0 00-.98-.806c-1.182-.09-4.921-.356-8.59-.335v-4.475a1.111 1.111 0 00-1.113-1.118h-11.612v18.272h12.725v-2.885l11.213 1.347a.999.999 0 00.134 0c.284 0 .557-.108.763-.304a1.12 1.12 0 00-.632-1.924l-.013.008z" fill="#141414"/></svg>