<svg width="447" height="115" fill="none" xmlns="http://www.w3.org/2000/svg"><path d="M19.976 7.432V8.75H16.02V20h-1.625V8.75H10.44V7.432h9.536zM23.898 20V7.432h5.361c2.39 0 3.586.975 3.586 2.926 0 1.43-.78 2.452-2.338 3.068 1.664.31 2.496 1.262 2.496 2.856 0 2.479-1.31 3.718-3.928 3.718h-5.177zm5.08-1.318c1.5 0 2.25-.762 2.25-2.285 0-1.483-1.005-2.224-3.015-2.224h-.703v-1.064c2.403-.322 3.604-1.19 3.604-2.601 0-1.172-.668-1.758-2.004-1.758h-3.586v9.932h3.454zM41.438 20h-4.645v-.936l1.512-.342V8.444l-1.512-.36v-.936h4.644v.936l-1.512.36v10.278l1.512.342V20zm13.086 0V9.611L47.273 20h-1.626V7.432h1.538V17.82l7.251-10.388h1.626V20h-1.538zM48.459 4.32h1.187c0 .938.41 1.407 1.23 1.407.82 0 1.231-.47 1.231-1.407h1.187c0 1.582-.806 2.373-2.417 2.373-1.612 0-2.418-.79-2.418-2.373zm28.728 3.112l-4.333 10.213C72.186 19.215 71.046 20 69.435 20c-.75 0-1.441-.205-2.074-.615v-1.319a3.64 3.64 0 002.048.616c.902 0 1.538-.355 1.907-1.064L66.359 7.432h1.714l4.07 8.622L75.5 7.432h1.687zM90.382 19.56c-1.084.351-2.256.527-3.516.527-4.394 0-6.591-2.183-6.591-6.548 0-4.13 2.197-6.196 6.591-6.196 1.26 0 2.432.176 3.516.527v1.406a9.364 9.364 0 00-3.34-.615c-3.428 0-5.142 1.626-5.142 4.878 0 3.486 1.714 5.23 5.142 5.23a9.363 9.363 0 003.34-.616v1.407zm4.67.439V7.432h10.414V20h-1.626V8.75h-7.163V20h-1.626zm19.261 0h-4.644v-.936l1.512-.342V8.444l-1.512-.36v-.936h4.644v.936l-1.512.36v10.278l1.512.342V20zm4.913 0h-1.977l4.939-6.284-4.939-6.284h1.977l3.955 5.027 3.955-5.027h1.978l-4.94 6.284 4.94 6.284h-1.978l-3.955-5.027L119.226 20zM9.684 64.796c0-11.66 7.063-21.098 21.076-21.098 5.802 0 10.402 1.613 15.002 4.166l-4.053 8.385c-3.394-2.332-6.733-3.663-10.949-3.663-7.025 0-10.786 5.385-10.786 12.213 0 6.72 3.835 12.105 10.842 12.105 2.244 0 4.215-.334 6.186-1.5v-5.722h-6.626v-7.995h15.822v19.098c-4.652 3.11-10.017 5.108-15.382 5.108-14.014 0-21.132-9.439-21.132-21.097zm66.183 11.992l2.796 6.274c-3.176 1.875-7.118 2.831-11.773 2.831-9.525 0-15.767-5.438-15.767-14.711 0-9.274 5.805-14.767 14.672-14.767 9.636 0 14.125 5.493 14.125 14.767l-.37 2.831H60.925c.492 3.885 2.57 4.774 5.917 4.774 3.061 0 6.4-.664 9.025-1.999zM61.033 68.25h9.591c0-3.498-2.3-5.272-4.98-5.272-2.53-.011-4.12 1.763-4.611 5.272zM94.7 60.19a13.632 13.632 0 019.243-3.775c5.04 0 10.513 2.497 10.513 13.657v15.491h-9.629V69.517c0-4.125-2.078-4.999-4.16-4.999-2.355 0-4.378 1.613-5.639 3.375v17.659h-9.635V56.748h7.994l1.11 3.375.202.068zm50.246 16.598l2.792 6.274c-3.176 1.875-7.118 2.831-11.773 2.831-9.525 0-15.767-5.438-15.767-14.711 0-9.274 5.805-14.767 14.672-14.767 9.636 0 14.125 5.493 14.125 14.767l-.37 2.831h-18.613c.491 3.885 2.57 4.774 5.916 4.774 3.061 0 6.4-.664 9.018-1.999zm-14.827-8.539h9.58c0-3.498-2.299-5.272-4.98-5.272-2.518-.011-4.108 1.763-4.6 5.272zm33.685-8.059c1.849-2.11 4.807-3.775 7.61-3.775 1.316 0 3.013.22 4.215.832l-2.078 8.659c-1.11-.664-2.518-.833-3.779-.833-2.356 0-4.378 1.613-5.639 3.375v17.104h-9.654V56.748h7.994l1.109 3.375.222.068zm40.71 8.603v16.77h-7.99l-1.109-3.375-.218-.053a11.394 11.394 0 01-3.699 2.737 11.24 11.24 0 01-4.462 1.036c-6.131 0-10.353-3.773-10.353-9.158 0-2.835 1.109-8.662 12.372-8.662 1.15 0 4.108.221 5.694.72 0-3.998-2.133-5.273-5.31-5.273-3.065 0-4.762.612-7.883 2l-2.769-6.286a24.44 24.44 0 0111.769-2.83c8.375-.005 13.958 4.102 13.958 12.374zm-9.743 4.706a9.447 9.447 0 00-4.067-.776c-3.228 0-4.104 1.5-4.104 3.161 0 1.999 1.368 3.165 3.83 3.165 1.439.015 4.341-1.26 4.341-5.55zm25.95-.262c0 2.887.599 4.875 4.16 4.875l-1.368 7.44a9.938 9.938 0 01-2.792.442c-6.626 0-9.636-4.163-9.636-12.547V41.422h9.636v31.815z" fill="#353535"/><path d="M246.286 44.032c8.756 0 15.985 6.109 15.985 14.325 0 8.16-7.229 14.659-15.985 14.659h-6.737v12.547h-10.298v-41.53h17.035zm-6.737 8.216v12.214h5.639c3.835 0 6.789-2.663 6.789-6.105 0-3.664-2.958-6.109-6.789-6.109h-5.639zm53.815 16.545v16.77h-7.99l-1.109-3.375-.219-.053a11.372 11.372 0 01-3.696 2.736 11.232 11.232 0 01-4.461 1.037c-6.13 0-10.353-3.773-10.353-9.158 0-2.835 1.109-8.662 12.372-8.662 1.15 0 4.105.221 5.695.72 0-3.998-2.138-5.273-5.31-5.273-3.069 0-4.763.612-7.883 2l-2.777-6.286a24.46 24.46 0 0111.773-2.83c8.375-.005 13.958 4.102 13.958 12.374zm-9.758 4.706a9.447 9.447 0 00-4.067-.776c-3.228 0-4.104 1.5-4.104 3.161 0 1.999 1.368 3.165 3.83 3.165 1.454.015 4.341-1.26 4.341-5.55zm17.86 23.625l5.583-13.215-11.496-27.146 10.513-.334 5.642 16.973h.218l5.639-16.987 10.512.333-17.249 40.695-9.362-.319z" fill="#728ECE"/><path d="M406.145 42.66a11.875 11.875 0 0113.16.986l15.426 12a1.592 1.592 0 002.252-.3 1.644 1.644 0 00-.296-2.284l-15.426-12a15.04 15.04 0 00-16.68-1.245l-15.183 8.557v3.75l16.747-9.465zm-16.747 39.937v7.875h16.743c.426 0 .834-.172 1.135-.477.301-.305.47-.72.47-1.15v-6.248h-18.348zm9.518-17.689c-.248.07-.487.169-.713.293a1.75 1.75 0 00-.814.993c.42-.527.939-.964 1.527-1.286z" fill="#353535"/><path d="M389.399 82.597V43.5c0-.51-.099-1.016-.291-1.488a3.88 3.88 0 00-.83-1.262 3.83 3.83 0 00-1.243-.843 3.786 3.786 0 00-1.467-.296h-1.694v5.873c0 .544-.213 1.065-.592 1.45s-.894.6-1.43.6h-29.063a2.01 2.01 0 01-1.431-.6 2.067 2.067 0 01-.592-1.45v-5.88h-1.342a3.784 3.784 0 00-1.472.293 3.825 3.825 0 00-1.248.844 3.934 3.934 0 00-1.122 2.758v54.296a3.921 3.921 0 001.126 2.753c.357.361.78.647 1.246.842a3.79 3.79 0 001.47.294h36.155a3.808 3.808 0 002.709-1.14 3.92 3.92 0 001.122-2.749V82.597h-.011zm-5.525-2.411v1.563a.914.914 0 01-.264.642.89.89 0 01-.634.266h-6.929a.888.888 0 01-.633-.266.913.913 0 01-.262-.642v-1.563c0-.241.094-.472.262-.642a.888.888 0 01.633-.266h6.922a.879.879 0 01.639.262.912.912 0 01.266.646zm-12.202 0v1.563a.913.913 0 01-.262.642.888.888 0 01-.632.266h-6.933a.895.895 0 01-.635-.266.919.919 0 01-.264-.642v-1.563a.922.922 0 01.263-.643.902.902 0 01.636-.265h6.921a.882.882 0 01.643.26.922.922 0 01.267.648h-.004zm-8.711-7.062v-1.56c0-.241.094-.473.263-.644a.891.891 0 01.635-.267h6.922a.888.888 0 01.828.563c.045.11.068.229.067.348v1.56a.905.905 0 01-.895.912h-6.936a.892.892 0 01-.626-.273.915.915 0 01-.258-.639zm12.202 0v-1.56a.904.904 0 01.261-.644.9.9 0 01.634-.267h6.922c.238 0 .466.096.635.267a.916.916 0 01.263.644v1.56a.916.916 0 01-.263.645.893.893 0 01-.635.267h-6.933a.891.891 0 01-.63-.27.915.915 0 01-.258-.642h.004zm-24.057-18.45a2.677 2.677 0 01.767-1.875 2.61 2.61 0 011.851-.776h27.533a2.584 2.584 0 011.85.776 2.676 2.676 0 01.767 1.876v7.462a2.67 2.67 0 01-.768 1.875 2.597 2.597 0 01-1.849.776h-27.533a2.601 2.601 0 01-1.85-.776 2.674 2.674 0 01-.768-1.875v-7.462zm8.375 35.764a.915.915 0 01-.263.644.891.891 0 01-.635.267h-6.922a.88.88 0 01-.634-.267.915.915 0 01-.261-.644v-1.564c0-.24.094-.471.262-.641a.89.89 0 01.633-.266h6.922a.88.88 0 01.635.264.914.914 0 01.263.643v1.564zm0-8.689a.919.919 0 01-.264.642.892.892 0 01-.634.266h-6.922a.89.89 0 01-.633-.266.913.913 0 01-.262-.642v-1.563c0-.241.094-.472.262-.642a.89.89 0 01.633-.266h6.922a.88.88 0 01.635.265.913.913 0 01.263.643v1.563zm0-8.625a.916.916 0 01-.263.645.891.891 0 01-.635.267h-6.922a.878.878 0 01-.634-.267.915.915 0 01-.261-.645v-1.56a.923.923 0 01.261-.644.894.894 0 01.634-.267h6.922a.89.89 0 01.635.267.916.916 0 01.263.644v1.56zm12.202 17.325a.905.905 0 01-.894.912h-6.944a.893.893 0 01-.636-.267.92.92 0 01-.263-.645v-1.575a.922.922 0 01.263-.643.9.9 0 01.636-.264h6.921c.238 0 .465.095.633.266.168.17.262.4.262.641l.022 1.575zm11.3.912h-6.936a.887.887 0 01-.634-.268.899.899 0 01-.261-.644v-1.575c0-.24.094-.471.262-.641a.888.888 0 01.633-.266h6.922a.884.884 0 01.635.264.922.922 0 01.263.643v1.56a.918.918 0 01-.259.644.892.892 0 01-.632.271l.007.011z" fill="#728ECE"/><path d="M351.724 40.548a4.627 4.627 0 001.422 3.055 4.503 4.503 0 003.096 1.246h22.153a4.503 4.503 0 003.096-1.246 4.627 4.627 0 001.422-3.055l.962-15.195.469-7.455a1.648 1.648 0 00-.432-1.219 1.575 1.575 0 00-.551-.374 1.586 1.586 0 00-.618-.128h-4.437l-.691-.562-1.871-1.523a1.598 1.598 0 00-1.931-.06l-2.218 1.583-.348.247-.403-.247-2.692-1.646a1.586 1.586 0 00-1.66 0l-2.673 1.642-.37.221-.281-.221-2.488-1.946a1.59 1.59 0 00-2.001.03l-2.296 1.916-.673.555h-3.812a1.613 1.613 0 00-1.512 1.078c-.075.21-.106.432-.093.654l.473 7.455.958 15.195zm4.57-21.127c.373 0 .734-.133 1.021-.375l2.425-2.021 2.626 2.059a1.579 1.579 0 001.811.1l3.143-1.934 3.166 1.935a1.583 1.583 0 001.752-.064l2.426-1.736 2.063 1.676c.284.232.638.357 1.002.356h3.302l-1.32 20.921a1.346 1.346 0 01-.415.888c-.245.232-.567.36-.901.361h-22.153c-.334 0-.655-.13-.899-.361a1.34 1.34 0 01-.413-.888l-1.32-20.92 2.684.003z" fill="#353535"/><path d="M358.587 87.97h-6.926a.902.902 0 00-.895.908v1.563c0 .502.401.908.895.908h6.926a.9.9 0 00.894-.908v-1.563a.9.9 0 00-.894-.908z" fill="#ED5446"/><path d="M370.781 87.97h-6.925a.902.902 0 00-.895.908v1.563c0 .502.401.908.895.908h6.925a.9.9 0 00.895-.908v-1.563a.9.9 0 00-.895-.908z" fill="#FFF419"/><path d="M382.98 87.97h-6.926a.902.902 0 00-.895.908v1.563c0 .502.401.908.895.908h6.926a.9.9 0 00.894-.908v-1.563a.9.9 0 00-.894-.908z" fill="#86FC6B"/><path d="M424.297 73.874l-11.489-1.395-9.351-1.125a16.838 16.838 0 01-3.946-.952c-1.353-.525-2.148-1.999-2.218-3.184a2.57 2.57 0 01.115-1.016c.136-.424.427-.78.813-.994.226-.124.466-.222.714-.292 3.59-1.125 14.457-.8 20.969-.29a1.578 1.578 0 001.17-.385 1.638 1.638 0 00.49-1.692 1.62 1.62 0 00-.525-.811 1.583 1.583 0 00-.888-.362c-1.704-.131-7.095-.518-12.386-.488v-6.513c0-.432-.17-.846-.471-1.151a1.591 1.591 0 00-1.134-.477h-16.743v26.599h18.348v-4.2l16.169 1.96c.064.005.128.005.192 0 .41 0 .804-.158 1.101-.442a1.642 1.642 0 00.13-2.23 1.6 1.6 0 00-1.042-.57l-.018.01z" fill="#353535"/></svg>