<svg width="87" height="87" fill="none" xmlns="http://www.w3.org/2000/svg"><path d="M13.755 76.164h1.205v1.027c-.342.192-.73.286-1.123.27-1.278 0-1.974-.966-1.974-2.175 0-1.21.687-2.175 1.962-2.175a3.357 3.357 0 011.992.66l.74-1.504a5.403 5.403 0 00-2.732-.748c-2.55 0-3.837 1.692-3.837 3.784 0 2.092 1.305 3.789 3.85 3.789a5.176 5.176 0 002.797-.918v-3.428h-2.88v1.418zm6.446-2.384c-1.614 0-2.67.988-2.67 2.654s1.139 2.64 2.87 2.64a4.184 4.184 0 002.145-.509l-.51-1.135a3.82 3.82 0 01-1.643.361c-.61 0-.988-.161-1.08-.87h3.39l.069-.509c0-1.644-.818-2.632-2.57-2.632zm-.87 2.123c.091-.626.379-.944.835-.944a.87.87 0 01.91.944H19.33zm7.817-2.123a2.505 2.505 0 00-1.683.679h-.04l-.2-.61H23.77v5.173h1.74v-3.167a1.305 1.305 0 011.026-.6c.379 0 .757.16.757.896v2.88h1.74v-2.78c.03-2.018-.966-2.47-1.884-2.47zm5.629 0c-1.614 0-2.67.988-2.67 2.654s1.135 2.64 2.87 2.64a4.185 4.185 0 002.145-.509l-.509-1.135a3.819 3.819 0 01-1.644.361c-.61 0-.988-.161-1.08-.87h3.39l.07-.509c0-1.644-.819-2.632-2.572-2.632zm-.87 2.123c.092-.626.379-.944.835-.944a.87.87 0 01.91.944h-1.745zm6.133-1.444h-.038l-.2-.61h-1.458v5.173h1.74v-3.045a1.331 1.331 0 011.027-.61c.238-.01.475.04.687.149l.396-1.566a1.888 1.888 0 00-.77-.152 1.987 1.987 0 00-1.383.66zm4.873-.679a4.52 4.52 0 00-2.145.51l.509 1.126a3.11 3.11 0 011.436-.357c.578 0 .965.226.965.944a4.714 4.714 0 00-1.035-.126c-2.053 0-2.253 1.044-2.253 1.553 0 .965.77 1.644 1.883 1.644a2.088 2.088 0 001.488-.678h.04l.2.608h1.452v-3.01c0-1.474-1.018-2.214-2.54-2.214zm-.022 4.085c-.435 0-.696-.209-.696-.566 0-.356.16-.57.748-.57.252-.007.503.04.735.14a.871.871 0 01-.787.996zm5.512-1.061v-5.712h-1.74v5.751c0 1.505.548 2.249 1.74 2.249.172-.001.344-.028.509-.078l.248-1.336c-.649 0-.757-.356-.757-.874z" fill="#2B2B2B"/><path d="M53.07 71.562h-3.102v7.452h1.875V76.76h1.227c1.592 0 2.91-1.166 2.91-2.61s-1.331-2.588-2.91-2.588zm-.2 3.667h-1.027v-2.175h1.027a1.13 1.13 0 011.235 1.096 1.158 1.158 0 01-1.248 1.08h.013zm6.216-1.449a4.52 4.52 0 00-2.145.51l.51 1.126a3.11 3.11 0 011.435-.357c.578 0 .966.226.966.944a4.713 4.713 0 00-1.036-.126c-2.053 0-2.253 1.044-2.253 1.553 0 .965.766 1.644 1.883 1.644a2.07 2.07 0 001.484-.678h.043l.196.608h1.457v-3.01c0-1.474-1.017-2.214-2.54-2.214zm-.022 4.067c-.435 0-.696-.208-.696-.565s.157-.57.748-.57c.253-.007.504.04.736.14a.871.871 0 01-.788 1.013v-.018zm5.938-1.013h-.039l-1.026-3.05-1.914.057 2.096 4.872-1.018 2.375 1.706.057 3.136-7.304-1.914-.056-1.027 3.049z" fill="#728ECE"/><path d="M54.718 26.535a8.587 8.587 0 019.41.696l11.035 8.47a1.135 1.135 0 001.367.022 1.148 1.148 0 00.03-1.84l-11.032-8.466a10.875 10.875 0 00-11.927-.87L42.726 30.59v2.61l11.992-6.664z" fill="#2B2B2B"/><path d="M42.743 52.409h13.124v-2.954l-3.345-.4a14.515 14.515 0 01-3.367-.81 4.95 4.95 0 01-3.045-4.219 3.676 3.676 0 011.801-3.571c1.388-.783 4.641-1.023 7.956-1.044V34.8a1.149 1.149 0 00-1.148-1.149H42.743V52.41zm0 2.297v5.55H54.72a1.153 1.153 0 001.148-1.148v-4.402H42.743z" fill="#2B2B2B"/><path d="M49.55 42.234c-.176.05-.346.118-.508.205-.278.15-.488.4-.587.7.303-.37.675-.677 1.096-.905z" fill="#2B2B2B"/><path d="M42.743 60.256v-32.26a3.606 3.606 0 00-3.593-3.605h-.343v3.684a1.9 1.9 0 01-1.906 1.901H17.017a1.901 1.901 0 01-1.9-1.9V24.39h-.105a3.606 3.606 0 00-3.602 3.606v36.561a3.606 3.606 0 003.602 3.607H39.15a3.606 3.606 0 003.606-3.607l-.013-4.302zm-3.95-7.047v.696a.844.844 0 01-.843.844h-4.546a.844.844 0 01-.844-.844v-.696a.844.844 0 01.844-.844h4.545a.844.844 0 01.844.844zm-8.721 0v.696a.844.844 0 01-.844.844h-4.546a.844.844 0 01-.844-.844v-.696a.844.844 0 01.844-.844h4.546a.844.844 0 01.844.844zm-6.234-5.394v-.696a.84.84 0 01.844-.84h4.546a.84.84 0 01.844.84v.696a.844.844 0 01-.844.844h-4.546a.844.844 0 01-.844-.844zm8.7 0v-.696a.84.84 0 01.844-.84h4.568a.84.84 0 01.843.84v.696a.844.844 0 01-.843.844h-4.546a.844.844 0 01-.844-.844h-.022zM15.36 35.61a2.458 2.458 0 012.475-2.462h18.496a2.462 2.462 0 012.462 2.462v4.076a2.462 2.462 0 01-2.462 2.462H17.835a2.459 2.459 0 01-2.462-2.457l-.013-4.08zm5.99 24.421a.842.842 0 01-.844.87H15.96a.844.844 0 01-.844-.87v-.696a.844.844 0 01.844-.844h4.546a.844.844 0 01.844.844v.696zm0-6.129a.844.844 0 01-.844.844H15.96a.844.844 0 01-.844-.844v-.696a.844.844 0 01.844-.844h4.546a.844.844 0 01.844.844v.696zm0-6.09a.844.844 0 01-.844.844H15.96a.844.844 0 01-.844-.844v-.696a.84.84 0 01.844-.84h4.546a.84.84 0 01.844.84v.696zm8.7 12.22a.843.843 0 01-.822.87h-4.546a.844.844 0 01-.844-.87v-.697a.844.844 0 01.844-.844h4.546a.844.844 0 01.844.844l-.022.696zm7.9.87h-4.546a.844.844 0 01-.844-.87v-.697a.844.844 0 01.844-.844h4.545a.844.844 0 01.844.844v.696a.842.842 0 01-.843.87z" fill="#728ECE"/><path d="M15.804 25.056a3.24 3.24 0 003.227 3.045h15.843a3.245 3.245 0 003.232-3.045l.688-10.7.356-5.273a1.146 1.146 0 00-1.07-1.214H34.8l-.491-.4-1.34-1.074a1.144 1.144 0 00-1.38-.044l-1.574 1.114-.243.174-.292-.174-1.931-1.157a1.148 1.148 0 00-1.192 0l-1.91 1.157-.252.156-.2-.156L22.21 6.09a1.14 1.14 0 00-1.43.022l-1.64 1.353-.484.4h-2.81a1.144 1.144 0 00-1.057 1.218l.326 5.272.688 10.701zm3.267-14.899c.266 0 .524-.092.73-.26l1.74-1.427 1.88 1.448a1.149 1.149 0 001.305.074L26.97 8.63l2.25 1.375a1.14 1.14 0 001.252-.048l1.74-1.222 1.475 1.179c.202.165.456.254.717.252h2.354l-.944 14.742a.944.944 0 01-.94.87H19.031a.944.944 0 01-.94-.87l-.943-14.75h1.923z" fill="#2B2B2B"/><path d="M20.506 58.495H15.96a.844.844 0 00-.844.844v.696c0 .466.378.843.844.843h4.546a.844.844 0 00.844-.843v-.696a.844.844 0 00-.844-.844z" fill="#ED5446"/><path d="M29.227 58.495h-4.545a.844.844 0 00-.844.844v.696c0 .466.378.843.844.843h4.546a.844.844 0 00.843-.843v-.696a.844.844 0 00-.844-.844z" fill="#FFF419"/><path d="M37.95 58.495h-4.547a.844.844 0 00-.843.844v.696c0 .466.377.843.843.843h4.546a.844.844 0 00.844-.843v-.696a.844.844 0 00-.844-.844z" fill="#86FC6B"/><path d="M47.911 40.455a3.675 3.675 0 00-1.823 3.589 4.95 4.95 0 003.045 4.22c1.086.402 2.217.674 3.367.808l3.346.4 11.58 1.362h.134a1.149 1.149 0 00.135-2.288l-8.213-.983-6.69-.796a12.179 12.179 0 01-2.819-.674 2.693 2.693 0 01-1.6-2.245 1.812 1.812 0 01.078-.718c.099-.3.309-.55.587-.7.161-.086.332-.155.509-.204 2.566-.792 10.335-.566 14.994-.205a1.149 1.149 0 00.178-2.288c-1.217-.096-5.076-.365-8.856-.348-3.31.03-6.564.27-7.952 1.07z" fill="#2B2B2B"/></svg>