<svg width="78" height="22" viewBox="0 0 78 22" fill="none" xmlns="http://www.w3.org/2000/svg">
<path d="M65.9477 21.5062H51.7727C49.8227 21.5062 48.2227 19.9507 48.2227 18.0001V4.00007C48.2227 2.07414 49.7977 0.493896 51.7727 0.493896H65.9477C67.8977 0.493896 69.4977 2.04945 69.4977 4.00007V18.0001C69.4977 19.926 67.9227 21.5062 65.9477 21.5062Z" fill="white"/>
<path d="M0.773438 17.4818V4.5188H2.99844V7.72868H8.44844C9.09844 7.72868 9.64844 7.9509 10.1234 8.42003C10.5734 8.86448 10.8234 9.43238 10.8234 10.0744V15.2102C10.8234 15.8521 10.5984 16.3953 10.1234 16.8645C9.67344 17.3089 9.09844 17.5558 8.44844 17.5558H0.773438V17.4818ZM3.59844 15.2842H7.97344C8.29844 15.2842 8.47344 15.2595 8.52344 15.2348C8.57344 15.1855 8.57344 15.0126 8.57344 14.6916V10.5188C8.57344 10.1978 8.54844 10.025 8.52344 9.97559C8.47344 9.92621 8.29844 9.92621 7.97344 9.92621H3.59844C3.27344 9.92621 3.09844 9.9509 3.04844 9.97559C2.99844 10.025 2.99844 10.1978 2.99844 10.5188V14.6916C2.99844 15.0126 3.02344 15.1855 3.04844 15.2348C3.09844 15.2595 3.27344 15.2842 3.59844 15.2842Z" fill="white"/>
<path d="M14.7227 17.4819C14.0727 17.4819 13.5227 17.2597 13.0477 16.7905C12.5977 16.3461 12.3477 15.7782 12.3477 15.1362V11.4819H20.1727V10.4942C20.1727 10.1732 20.1477 10.0004 20.1227 9.95102C20.0727 9.90163 19.8977 9.90163 19.5727 9.90163H12.3727V7.7041H20.0727C20.7227 7.7041 21.2727 7.92632 21.7477 8.39546C22.1977 8.8399 22.4477 9.4078 22.4477 10.0498V17.5066H14.7227V17.4819ZM15.1977 15.2843H20.1727V13.4819H14.6227V14.6918C14.6227 15.0127 14.6477 15.1856 14.6727 15.235C14.7227 15.2597 14.8977 15.2843 15.1977 15.2843Z" fill="white"/>
<path d="M24 17.4819V7.7041H31.7C32.35 7.7041 32.9 7.92632 33.375 8.39546C33.825 8.8399 34.075 9.4078 34.075 10.0498V17.5066H31.85V10.5189C31.85 10.1979 31.825 10.0251 31.8 9.97571C31.75 9.92632 31.575 9.92632 31.25 9.92632H26.875C26.55 9.92632 26.375 9.95102 26.325 9.97571C26.275 10.0251 26.275 10.1979 26.275 10.5189V17.5066H24V17.4819Z" fill="white"/>
<path d="M35.5977 17.4818V4.5188H37.8227V11.4818H39.5727L43.0977 7.70398H45.4977V8.32127L41.5477 12.5929L45.4727 16.8645V17.4818H43.0977L39.5977 13.704H37.8477V17.4818H35.5977Z" fill="white"/>
<path d="M58.2461 17.4816C57.5961 17.4816 57.0461 17.2594 56.5711 16.7902C56.1211 16.3458 55.8711 15.7779 55.8711 15.1359V10.0248C55.8711 9.38282 56.0961 8.83961 56.5711 8.37047C57.0211 7.92603 57.5961 7.67911 58.2461 7.67911H63.7211V4.46924H65.9461V17.4569H58.2461V17.4816ZM58.7461 15.2841H63.1211C63.4461 15.2841 63.6211 15.2594 63.6711 15.2347C63.7211 15.1853 63.7211 15.0124 63.7211 14.6915V10.5186C63.7211 10.1976 63.6961 10.0248 63.6711 9.97541C63.6211 9.92603 63.4461 9.92603 63.1211 9.92603H58.7461C58.4211 9.92603 58.2461 9.95072 58.1961 9.97541C58.1461 10.0248 58.1461 10.1976 58.1461 10.5186V14.6915C58.1461 15.0124 58.1711 15.1853 58.1961 15.2347C58.2461 15.2594 58.4211 15.2841 58.7461 15.2841Z" fill="#39BF93"/>
<path d="M54.0219 8.91357H51.7969V17.4815H54.0219V8.91357Z" fill="#39BF93"/>
<path d="M54.0219 4.51855H51.7969V6.71609H54.0219V4.51855Z" fill="#39BF93"/>
<path d="M71.7492 4.39415V1.28303H70.5742V0.863281H73.3992V1.28303H72.2242V4.39415H71.7492Z" fill="white"/>
<path d="M73.8242 4.39515V0.864291H74.5492L75.3992 3.35812C75.4742 3.58034 75.5242 3.77787 75.5742 3.87664C75.6242 3.75318 75.6742 3.55565 75.7742 3.30873L76.6242 0.8396H77.2492V4.37046H76.7992V1.4075L75.7492 4.37046H75.3242L74.2992 1.35812V4.37046H73.8242V4.39515Z" fill="white"/>
</svg>
