<?xml version="1.0" encoding="utf-8"?><!DOCTYPE svg PUBLIC "-//W3C//DTD SVG 1.1//EN" "http://www.w3.org/Graphics/SVG/1.1/DTD/svg11.dtd"><svg viewBox="0 0 78.369 78.369" xmlns="http://www.w3.org/2000/svg" xmlns:xlink="http://www.w3.org/1999/xlink"><style>:root>svg{display:none}:root>svg:target{display:block}</style><svg viewBox="0 0 78 22" id="BankID" xmlns="http://www.w3.org/2000/svg"><path d="M65.95 21.506H51.775c-1.95 0-3.55-1.555-3.55-3.506V4c0-1.926 1.575-3.506 3.55-3.506H65.95C67.9.494 69.5 2.049 69.5 4v14c0 1.926-1.575 3.506-3.55 3.506zM.775 17.482V4.519H3v3.21h5.45c.65 0 1.2.222 1.675.691.45.444.7 1.012.7 1.654v5.136c0 .642-.225 1.185-.7 1.654a2.338 2.338 0 01-1.675.692H.775v-.074zM3.6 15.284h4.375c.325 0 .5-.025.55-.05.05-.049.05-.221.05-.542v-4.173c0-.321-.025-.494-.05-.543-.05-.05-.225-.05-.55-.05H3.6c-.325 0-.5.025-.55.05-.05.049-.05.222-.05.543v4.173c0 .32.025.493.05.543.05.024.225.05.55.05zM14.725 17.482c-.65 0-1.2-.222-1.675-.691a2.28 2.28 0 01-.7-1.655v-3.654h7.825v-.988c0-.32-.025-.494-.05-.543-.05-.05-.225-.05-.55-.05h-7.2V7.705h7.7c.65 0 1.2.222 1.675.691.45.445.7 1.013.7 1.655v7.457h-7.725v-.025zm.475-2.198h4.975v-1.802h-5.55v1.21c0 .32.025.494.05.543.05.025.225.05.525.05zM24 17.482V7.704h7.7c.65 0 1.2.222 1.675.691.45.445.7 1.013.7 1.655v7.457H31.85v-6.988c0-.321-.025-.494-.05-.543-.05-.05-.225-.05-.55-.05h-4.375c-.325 0-.5.025-.55.05-.05.05-.05.222-.05.543v6.988H24v-.025zM35.6 17.482V4.519h2.225v6.963h1.75L43.1 7.704h2.4v.617l-3.95 4.272 3.925 4.271v.618H43.1l-3.5-3.778h-1.75v3.778H35.6z" fill="inherit"/><path d="M58.248 17.482c-.65 0-1.2-.223-1.675-.692a2.28 2.28 0 01-.7-1.654v-5.111c0-.642.225-1.185.7-1.655a2.338 2.338 0 011.675-.69h5.475V4.47h2.225v12.987h-7.7v.025zm.5-2.198h4.375c.325 0 .5-.025.55-.05.05-.049.05-.222.05-.543V10.52c0-.321-.025-.494-.05-.544-.05-.049-.225-.049-.55-.049h-4.375c-.325 0-.5.025-.55.05-.05.049-.05.222-.05.543v4.172c0 .321.025.494.05.544.05.024.225.05.55.05zM54.024 8.914h-2.225v8.568h2.225V8.914zM54.024 4.519h-2.225v2.197h2.225V4.52z" fill="#39BF93"/><path d="M71.751 4.394V1.283h-1.175v-.42h2.825v.42h-1.175v3.111h-.475zM73.826 4.395V.865h.725l.85 2.493c.075.222.125.42.175.519.05-.124.1-.321.2-.568l.85-2.47h.625V4.37h-.45V1.407l-1.05 2.963h-.425l-1.025-3.012V4.37h-.475v.025z" fill="inherit"/></svg><svg viewBox="0 0 24 24" id="check" xmlns="http://www.w3.org/2000/svg"><path d="M20.285 2L9 13.567 3.714 8.556 0 12.272 9 21 24 5.715z" fill="inherit"/></svg><svg viewBox="0 0 78.369 78.369" id="checked" xmlns="http://www.w3.org/2000/svg"><path d="M78.049 19.015L29.458 67.606a1.094 1.094 0 01-1.548 0L.32 40.015a1.094 1.094 0 010-1.547l6.704-6.704a1.095 1.095 0 011.548 0l20.113 20.112 41.113-41.113a1.095 1.095 0 011.548 0l6.703 6.704a1.094 1.094 0 010 1.548z" fill="inherit"/></svg><svg fill="none" viewBox="0 0 15 12" id="link-arrow" xmlns="http://www.w3.org/2000/svg"><path fill-rule="evenodd" clip-rule="evenodd" d="M8.732 1.987A1.185 1.185 0 0110.478.384l4.073 4.432c.416.453.416 1.15 0 1.604l-4.073 4.432a1.185 1.185 0 01-1.746-1.604l2.554-2.778H.742a.74.74 0 110-1.482H11.49l-2.758-3z" fill="#3950BF"/></svg><svg viewBox="0 0 26 21" fill="none" id="mastercard" xmlns="http://www.w3.org/2000/svg"><path d="M12.858 2.28c-.109.087-.196.152-.304.24A7.863 7.863 0 009.86 8.467a7.898 7.898 0 002.694 5.948c.087.087.195.175.304.24l.304-.24a7.863 7.863 0 002.694-5.948 7.898 7.898 0 00-2.694-5.947c-.109-.066-.195-.153-.304-.24zM17.681.595a7.706 7.706 0 00-4.323 1.312c.065.043.13.109.195.153a8.476 8.476 0 012.89 6.406 8.587 8.587 0 01-2.89 6.407c-.065.044-.13.11-.195.153a7.759 7.759 0 004.323 1.312c4.323 0 7.82-3.52 7.82-7.872 0-4.35-3.497-7.871-7.82-7.871zm-5.518 14.278c.065.044.13.11.195.153a7.759 7.759 0 01-4.323 1.312c-4.323 0-7.82-3.52-7.82-7.872 0-4.35 3.497-7.871 7.82-7.871 1.608 0 3.085.48 4.323 1.312-.065.043-.13.109-.195.153a8.476 8.476 0 00-2.89 6.406 8.51 8.51 0 002.89 6.407zm13.1-1.53v-.307h-.088l-.087.219-.087-.219h-.087v.306h.066v-.24l.087.197h.065l.087-.197v.24h.043zm-.5 0v-.263h.108v-.044h-.26v.044h.108v.262h.043zm.238 6.8v.043h.066v-.043H25zm.066-.044c.021 0 .043 0 .065.022.021.021.021.021.021.043 0 .022 0 .022-.021.044 0 0-.022.022-.044.022l.066.066h-.044l-.087-.066h-.022v.066h-.043V20.1h.109zm-.022.262c.022 0 .043 0 .065-.022.022 0 .044-.022.044-.043l.043-.044c0-.022.022-.044.022-.066 0-.022 0-.044-.022-.065 0-.022-.022-.044-.043-.044l-.044-.044c-.022 0-.043-.022-.065-.022-.022 0-.044 0-.065.022-.022 0-.044.022-.044.044l-.043.044c0 .021-.022.043-.022.065 0 .022 0 .044.022.066 0 .022.021.044.043.044l.044.043c.021.022.043.022.065.022zm0-.372c.022 0 .065 0 .087.022.021 0 .043.022.065.044.022.022.043.044.043.066 0 .021.022.043.022.087 0 .022 0 .066-.022.088-.021.021-.021.043-.043.065-.022.022-.043.044-.065.044-.022.022-.044.022-.087.022-.022 0-.065 0-.087-.022-.022-.022-.043-.022-.065-.044-.022-.022-.044-.044-.044-.065-.021-.022-.021-.044-.021-.088 0-.022 0-.066.021-.087.022-.022.022-.044.044-.066.021-.022.043-.044.065-.044.022 0 .065-.022.087-.022zm-19.378-.743c0-.372.24-.678.63-.678.37 0 .63.284.63.678 0 .372-.26.678-.63.678-.39 0-.63-.306-.63-.678zm1.695 0v-1.05h-.456v.263a.783.783 0 00-.652-.306c-.587 0-1.043.459-1.043 1.093 0 .634.456 1.093 1.043 1.093.304 0 .521-.109.652-.306v.263h.456v-1.05zm15.25 0c0-.372.239-.678.63-.678.37 0 .63.284.63.678 0 .372-.26.678-.63.678-.391 0-.63-.306-.63-.678zm1.673 0v-1.88h-.457v1.093a.783.783 0 00-.651-.306c-.587 0-1.043.459-1.043 1.093 0 .634.456 1.093 1.043 1.093.304 0 .521-.109.651-.306v.263h.457v-1.05zm-11.318-.678c.282 0 .477.175.52.503h-1.085c.043-.306.239-.503.565-.503zm0-.415c-.609 0-1.043.437-1.043 1.093 0 .656.434 1.093 1.064 1.093.304 0 .609-.087.848-.284l-.218-.328a1.034 1.034 0 01-.608.219c-.282 0-.565-.131-.63-.503h1.542v-.175c.022-.656-.369-1.115-.955-1.115zm5.452 1.093c0-.372.24-.678.63-.678.37 0 .63.284.63.678 0 .372-.26.678-.63.678-.39 0-.63-.306-.63-.678zm1.673 0v-1.05h-.456v.263a.783.783 0 00-.652-.306c-.587 0-1.043.459-1.043 1.093 0 .634.457 1.093 1.043 1.093.304 0 .521-.109.652-.306v.263h.456v-1.05zm-4.214 0c0 .634.434 1.093 1.107 1.093.305 0 .522-.065.739-.24l-.217-.372a.875.875 0 01-.543.197c-.37 0-.63-.262-.63-.678 0-.394.26-.656.63-.678.195 0 .369.066.543.197l.217-.372c-.217-.175-.434-.24-.739-.24-.673 0-1.107.459-1.107 1.093zm5.821-1.093a.612.612 0 00-.543.306v-.262H20.7v2.099h.456v-1.16c0-.35.152-.546.435-.546.087 0 .195.022.282.044l.13-.438a1.456 1.456 0 00-.304-.043zm-12.121.218c-.218-.153-.522-.218-.848-.218-.52 0-.868.262-.868.678 0 .35.26.546.716.612l.218.022c.239.043.369.109.369.218 0 .153-.174.263-.478.263s-.543-.11-.695-.219l-.217.35c.239.175.564.262.89.262.609 0 .956-.284.956-.677 0-.372-.282-.57-.717-.635l-.217-.021c-.195-.022-.348-.066-.348-.197 0-.153.153-.24.391-.24.261 0 .522.108.652.174l.196-.372zm5.843-.218a.612.612 0 00-.543.306v-.262h-.456v2.099h.456v-1.16c0-.35.152-.546.435-.546.087 0 .195.022.282.044l.13-.438a1.456 1.456 0 00-.304-.043zm-3.866.065h-.74v-.634h-.455v.634h-.413v.416h.413v.962c0 .48.195.765.717.765.195 0 .412-.065.564-.153l-.13-.393a.71.71 0 01-.39.109c-.218 0-.305-.131-.305-.35v-.94h.739v-.416zm-6.756 2.078v-1.312c0-.503-.305-.831-.826-.831-.26 0-.543.087-.739.371-.152-.24-.369-.371-.695-.371a.7.7 0 00-.608.306v-.262h-.456v2.099h.456v-1.16c0-.371.196-.546.5-.546s.456.197.456.547v1.159h.456v-1.16c0-.371.217-.546.5-.546.304 0 .456.197.456.547v1.159h.5z" fill="#303233"/></svg><svg viewBox="0 0 20 20" id="telegram" xmlns="http://www.w3.org/2000/svg"><path d="M13.406 5.65l-6.83 4.208c-.387.238-.57.71-.445 1.145l.739 2.595a.503.503 0 00.524.367.503.503 0 00.466-.438l.192-1.423a.84.84 0 01.26-.501l5.636-5.24a.449.449 0 00-.542-.713zm-5.545 5.468a1.504 1.504 0 00-.464.897l-.094.69-.536-1.883a.358.358 0 01.156-.401l5.004-3.082-4.066 3.78z" fill="inherit"/><path d="M17.247 2.909a.763.763 0 00-.768-.13L1.399 8.596a.758.758 0 00-.49.716c.002.32.197.6.497.713l3.522 1.315 1.374 4.418a.763.763 0 001.212.366l2.049-1.67a.28.28 0 01.341-.01l3.694 2.682a.762.762 0 001.197-.462l2.707-13.017a.764.764 0 00-.255-.738zm-.393.603L14.147 16.53a.099.099 0 01-.063.074.1.1 0 01-.097-.013l-3.694-2.682a.94.94 0 00-1.148.032l-2.049 1.67a.1.1 0 01-.094.019.1.1 0 01-.068-.068l-1.422-4.574a.33.33 0 00-.2-.211L1.638 9.405a.096.096 0 01-.067-.096c0-.032.011-.075.066-.096l15.08-5.817a.098.098 0 01.103.017.099.099 0 01.034.1z" fill="inherit"/></svg><svg viewBox="0 0 21 20" id="viber" xmlns="http://www.w3.org/2000/svg"><path d="M12.349.833H8.813c-3.703 0-6.715 2.975-6.715 6.632v3.146c0 2.723 1.694 5.17 4.241 6.167v2.04a.349.349 0 00.354.349.356.356 0 00.237-.09l2.05-1.835h3.369c3.703 0 6.715-2.975 6.715-6.631V7.465c0-3.657-3.012-6.632-6.715-6.632zm6.008 9.778c0 3.271-2.695 5.933-6.008 5.933H8.843a.355.355 0 00-.237.09l-1.56 1.396v-1.494a.349.349 0 00-.236-.329c-2.395-.837-4.005-3.086-4.005-5.596V7.465c0-3.272 2.695-5.933 6.008-5.933h3.536c3.313 0 6.008 2.661 6.008 5.933v3.146z" fill="inherit"/><path d="M15.252 11.48l-2.172-1.394a1.07 1.07 0 00-1.467.307l-.102.155c-.94-.307-1.977-.7-2.598-2.474l.257-.22a1.04 1.04 0 00.104-1.478l-1.7-1.931a.357.357 0 00-.498-.035l-1.067.916c-.936.804-.499 1.993-.355 2.383a.344.344 0 00.023.051c.037.066.923 1.628 2.355 3.068 1.437 1.445 4.03 2.78 4.11 2.82.296.19.63.28.96.28.579 0 1.146-.28 1.485-.794l.77-1.171a.347.347 0 00-.105-.484zm-1.258 1.273c-.319.485-.977.623-1.497.291-.025-.013-2.603-1.338-3.96-2.705a15.6 15.6 0 01-2.229-2.895c-.28-.775-.23-1.252.165-1.59l.8-.688 1.468 1.668a.343.343 0 01-.034.492l-.434.373a.346.346 0 00-.106.366c.74 2.373 2.177 2.84 3.227 3.18l.153.05a.354.354 0 00.409-.141l.25-.381a.354.354 0 01.489-.102l1.876 1.204-.577.878zM11.388 6.506a.353.353 0 00-.437.24.348.348 0 00.243.431 1.59 1.59 0 011.095 1.084.353.353 0 00.436.241.349.349 0 00.244-.43 2.297 2.297 0 00-1.581-1.566z" fill="inherit"/><path d="M14.078 8.59a.349.349 0 00.34-.444 4.461 4.461 0 00-3.07-3.04.354.354 0 00-.438.24.349.349 0 00.244.432 3.753 3.753 0 012.584 2.559.353.353 0 00.34.254z" fill="inherit"/><path d="M11.195 3.48a.353.353 0 00-.437.241.348.348 0 00.243.431c2.106.592 3.784 2.253 4.379 4.335a.353.353 0 00.436.242.349.349 0 00.244-.431c-.66-2.314-2.525-4.16-4.865-4.818z" fill="inherit"/></svg><svg viewBox="0 0 50 16" fill="none" id="visa" xmlns="http://www.w3.org/2000/svg"><path d="M18.81.284L12.323 15.76H8.092L4.899 3.41c-.193-.762-.362-1.04-.952-1.36C2.987 1.527 1.397 1.036 0 .733L.094.275h6.812a1.865 1.865 0 011.846 1.576l1.686 8.956L14.603.275l4.207.01zm16.58 10.422c.018-4.084-5.647-4.31-5.608-6.135.012-.555.541-1.147 1.697-1.296a7.541 7.541 0 013.948.688l.701-3.282a10.78 10.78 0 00-3.743-.688c-3.956 0-6.743 2.103-6.766 5.117-.025 2.227 1.989 3.47 3.505 4.211 1.56.76 2.085 1.243 2.078 1.922-.012 1.04-1.246 1.498-2.397 1.514-2.011.032-3.181-.541-4.112-.977l-.725 3.392c.936.429 2.663.803 4.452.821 4.206 0 6.956-2.078 6.97-5.293v.006zm10.447 5.04h3.704L46.31.27h-3.418a1.819 1.819 0 00-1.704 1.135l-6.007 14.34h4.204l.835-2.313h5.136l.481 2.312zm-4.465-5.485l2.107-5.784 1.205 5.798-3.312-.014zM24.53.271l-3.312 15.474h-4.002L20.527.271h4.003z" fill="#303233"/></svg></svg>