<svg width="31" height="24" viewBox="0 0 31 24" fill="none" xmlns="http://www.w3.org/2000/svg">
<path d="M15.858 3.27935C15.7493 3.36681 15.6624 3.43241 15.5538 3.51987C13.9028 4.963 12.8601 7.08396 12.8601 9.4673C12.8601 11.8288 13.9028 13.9716 15.5538 15.4147C15.6407 15.5022 15.7493 15.5896 15.858 15.6552C15.9666 15.5678 16.0535 15.5022 16.1621 15.4147C17.8131 13.9716 18.8558 11.8506 18.8558 9.4673C18.8558 7.10582 17.8131 4.963 16.1621 3.51987C16.0535 3.45427 15.9666 3.36681 15.858 3.27935ZM20.6806 1.5957C19.073 1.5957 17.5958 2.07674 16.3576 2.90764C16.4228 2.95137 16.4879 3.01696 16.5531 3.06069C18.3996 4.67874 19.4423 6.99649 19.4423 9.4673C19.4423 11.9162 18.3779 14.2558 16.5531 15.8739C16.4879 15.9176 16.4228 15.9832 16.3576 16.027C17.5958 16.8579 19.0948 17.3389 20.6806 17.3389C25.0036 17.3389 28.5011 13.8185 28.5011 9.4673C28.5011 5.11606 25.0036 1.5957 20.6806 1.5957ZM15.1628 15.8739C15.228 15.9176 15.2931 15.9832 15.3583 16.027C14.1201 16.8579 12.6211 17.3389 11.0353 17.3389C6.71234 17.3389 3.21484 13.8185 3.21484 9.4673C3.21484 5.11606 6.71234 1.5957 11.0353 1.5957C12.6429 1.5957 14.1201 2.07674 15.3583 2.90764C15.2931 2.95137 15.228 3.01696 15.1628 3.06069C13.3163 4.67874 12.2736 6.99649 12.2736 9.4673C12.2736 11.9162 13.3163 14.2558 15.1628 15.8739ZM28.2621 14.3433V14.0372H28.1752L28.0883 14.2559L28.0014 14.0372H27.9145V14.3433H27.9797V14.1028L28.0666 14.2996H28.1318L28.2187 14.1028V14.3433H28.2621ZM27.7625 14.3433V14.0809H27.8711V14.0372H27.6104V14.0809H27.719V14.3433H27.7625ZM28.0014 21.1435V21.1872H28.0449H28.0666C28.0666 21.1872 28.0666 21.1872 28.0666 21.1654V21.1435H28.0449H28.0014ZM28.0666 21.0998C28.0883 21.0998 28.11 21.0998 28.1318 21.1216C28.1535 21.1435 28.1535 21.1435 28.1535 21.1654C28.1535 21.1872 28.1535 21.1872 28.1318 21.2091C28.1318 21.2091 28.11 21.231 28.0883 21.231L28.1535 21.2965H28.11L28.0231 21.231H28.0014V21.2965H27.958V21.0998H28.0666ZM28.0449 21.3622C28.0666 21.3622 28.0883 21.3621 28.11 21.3403C28.1318 21.3403 28.1535 21.3184 28.1535 21.2965C28.1752 21.2747 28.1752 21.2747 28.1969 21.2528C28.1969 21.231 28.2187 21.2091 28.2187 21.1872C28.2187 21.1654 28.2187 21.1435 28.1969 21.1216C28.1969 21.0998 28.1752 21.0779 28.1535 21.0779C28.1318 21.056 28.1318 21.056 28.11 21.0342C28.0883 21.0342 28.0666 21.0123 28.0449 21.0123C28.0231 21.0123 28.0014 21.0123 27.9797 21.0342C27.958 21.0342 27.9363 21.056 27.9363 21.0779C27.9145 21.0998 27.9145 21.0998 27.8928 21.1216C27.8928 21.1435 27.8711 21.1654 27.8711 21.1872C27.8711 21.2091 27.8711 21.231 27.8928 21.2528C27.8928 21.2747 27.9145 21.2965 27.9363 21.2965C27.958 21.3184 27.958 21.3184 27.9797 21.3403C28.0014 21.3621 28.0231 21.3622 28.0449 21.3622ZM28.0449 20.9904C28.0666 20.9904 28.11 20.9904 28.1318 21.0123C28.1535 21.0123 28.1752 21.0342 28.1969 21.056C28.2187 21.0779 28.2404 21.0998 28.2404 21.1216C28.2404 21.1435 28.2621 21.1654 28.2621 21.2091C28.2621 21.231 28.2621 21.2747 28.2404 21.2965C28.2187 21.3184 28.2187 21.3403 28.1969 21.3622C28.1752 21.384 28.1535 21.4059 28.1318 21.4059C28.11 21.4277 28.0883 21.4277 28.0449 21.4277C28.0231 21.4277 27.9797 21.4277 27.958 21.4059C27.9363 21.384 27.9145 21.384 27.8928 21.3622C27.8711 21.3403 27.8494 21.3184 27.8494 21.2965C27.8276 21.2747 27.8276 21.2528 27.8276 21.2091C27.8276 21.1872 27.8276 21.1435 27.8494 21.1216C27.8711 21.0998 27.8711 21.0779 27.8928 21.056C27.9145 21.0342 27.9363 21.0123 27.958 21.0123C27.9797 21.0123 28.0231 20.9904 28.0449 20.9904ZM8.66746 20.247C8.66746 19.8753 8.90642 19.5692 9.29744 19.5692C9.66674 19.5692 9.92743 19.8534 9.92743 20.247C9.92743 20.6187 9.66674 20.9248 9.29744 20.9248C8.90642 20.9248 8.66746 20.6187 8.66746 20.247ZM10.3619 20.247V19.1975H9.9057V19.4598C9.75364 19.2631 9.5364 19.1537 9.254 19.1537C8.66746 19.1537 8.21126 19.6129 8.21126 20.247C8.21126 20.8811 8.66746 21.3403 9.254 21.3403C9.55813 21.3403 9.77536 21.231 9.9057 21.0342V21.2965H10.3619V20.247ZM25.6118 20.247C25.6118 19.8753 25.8508 19.5692 26.2418 19.5692C26.6111 19.5692 26.8718 19.8534 26.8718 20.247C26.8718 20.6187 26.6111 20.9248 26.2418 20.9248C25.8508 20.9248 25.6118 20.6187 25.6118 20.247ZM27.2845 20.247V18.3666H26.8284V19.4598C26.6763 19.2631 26.4591 19.1537 26.1766 19.1537C25.5901 19.1537 25.1339 19.6129 25.1339 20.247C25.1339 20.8811 25.5901 21.3403 26.1766 21.3403C26.4808 21.3403 26.698 21.231 26.8284 21.0342V21.2965H27.2845V20.247ZM15.9666 19.5692C16.249 19.5692 16.4445 19.7441 16.4879 20.0721H15.4018C15.4452 19.766 15.6407 19.5692 15.9666 19.5692ZM15.9666 19.1537C15.3583 19.1537 14.9238 19.591 14.9238 20.247C14.9238 20.903 15.3583 21.3403 15.9883 21.3403C16.2924 21.3403 16.5966 21.2528 16.8355 21.056L16.6183 20.7281C16.4445 20.8592 16.2273 20.9467 16.01 20.9467C15.7276 20.9467 15.4452 20.8155 15.38 20.4438H16.9224C16.9224 20.3782 16.9224 20.3345 16.9224 20.2689C16.9441 19.6129 16.5531 19.1537 15.9666 19.1537ZM21.4192 20.247C21.4192 19.8753 21.6581 19.5692 22.0492 19.5692C22.4185 19.5692 22.6792 19.8534 22.6792 20.247C22.6792 20.6187 22.4185 20.9248 22.0492 20.9248C21.6581 20.9248 21.4192 20.6187 21.4192 20.247ZM23.0919 20.247V19.1975H22.6357V19.4598C22.4836 19.2631 22.2664 19.1537 21.984 19.1537C21.3975 19.1537 20.9413 19.6129 20.9413 20.247C20.9413 20.8811 21.3975 21.3403 21.984 21.3403C22.2881 21.3403 22.5054 21.231 22.6357 21.0342V21.2965H23.0919V20.247ZM18.8775 20.247C18.8775 20.8811 19.312 21.3403 19.9854 21.3403C20.2896 21.3403 20.5068 21.2747 20.724 21.0998L20.5068 20.7281C20.333 20.8592 20.1592 20.9248 19.9637 20.9248C19.5944 20.9248 19.3337 20.6625 19.3337 20.247C19.3337 19.8534 19.5944 19.591 19.9637 19.5692C20.1592 19.5692 20.333 19.6348 20.5068 19.766L20.724 19.3943C20.5068 19.2193 20.2896 19.1537 19.9854 19.1537C19.312 19.1537 18.8775 19.6129 18.8775 20.247ZM24.6994 19.1537C24.4388 19.1537 24.265 19.2849 24.1564 19.4598V19.1975H23.7002V21.2965H24.1564V20.1377C24.1564 19.7878 24.3084 19.591 24.5908 19.591C24.6777 19.591 24.7863 19.6129 24.8732 19.6348L25.0036 19.1975C24.9167 19.1756 24.7863 19.1537 24.6994 19.1537ZM12.5777 19.3724C12.3605 19.2193 12.0563 19.1537 11.7305 19.1537C11.2091 19.1537 10.8615 19.4161 10.8615 19.8316C10.8615 20.1814 11.1222 20.3782 11.5784 20.4438L11.7956 20.4657C12.0346 20.5094 12.165 20.575 12.165 20.6843C12.165 20.8374 11.9912 20.9467 11.687 20.9467C11.3829 20.9467 11.1439 20.8374 10.9919 20.7281L10.7746 21.0779C11.0136 21.2528 11.3395 21.3403 11.6653 21.3403C12.2736 21.3403 12.6211 21.056 12.6211 20.6625C12.6211 20.2907 12.3387 20.0939 11.9043 20.0284L11.687 20.0065C11.4915 19.9846 11.3395 19.9409 11.3395 19.8097C11.3395 19.6566 11.4915 19.5692 11.7305 19.5692C11.9912 19.5692 12.2518 19.6785 12.3822 19.7441L12.5777 19.3724ZM18.4213 19.1537C18.1607 19.1537 17.9869 19.2849 17.8782 19.4598V19.1975H17.4221V21.2965H17.8782V20.1377C17.8782 19.7878 18.0303 19.591 18.3127 19.591C18.3996 19.591 18.5082 19.6129 18.5951 19.6348L18.7255 19.1975C18.6386 19.1756 18.5082 19.1537 18.4213 19.1537ZM14.5545 19.2193H13.8159V18.5852H13.3597V19.2193H12.947V19.6348H13.3597V20.5969C13.3597 21.0779 13.5553 21.3622 14.0766 21.3622C14.2721 21.3622 14.4894 21.2966 14.6414 21.2091L14.5111 20.8155C14.3808 20.903 14.2287 20.9248 14.1201 20.9248C13.9028 20.9248 13.8159 20.7936 13.8159 20.575V19.6348H14.5545V19.2193ZM7.79852 21.2965V19.9846C7.79852 19.4817 7.49439 19.1537 6.97302 19.1537C6.71234 19.1537 6.42994 19.2412 6.23442 19.5254C6.08236 19.2849 5.86512 19.1537 5.53927 19.1537C5.32203 19.1537 5.1048 19.2193 4.93101 19.4598V19.1975H4.47481V21.2965H4.93101V20.1377C4.93101 19.766 5.12652 19.591 5.43065 19.591C5.73478 19.591 5.88685 19.7878 5.88685 20.1377V21.2965H6.34304V20.1377C6.34304 19.766 6.56027 19.591 6.84268 19.591C7.14681 19.591 7.29888 19.7878 7.29888 20.1377V21.2965H7.79852Z" fill="#797D80"/>
</svg>
