<svg width="46" height="24" viewBox="0 0 46 24" fill="none" xmlns="http://www.w3.org/2000/svg">
<g clip-path="url(#clip0)">
<path d="M25.583 11.3533C25.3161 11.3533 25.0812 11.2462 24.921 11.0534C24.7608 10.8606 24.6968 10.5929 24.7395 10.3252L25.8393 4.06003C25.9354 3.52454 26.4479 3.08545 26.9925 3.08545H28.733C29.7046 3.08545 30.5055 3.40674 30.986 3.99577C31.4238 4.52054 31.5839 5.23808 31.4451 6.04131C31.1568 7.65846 29.5338 8.93291 27.7506 8.93291H27.0032L26.7469 10.3787C26.6401 10.9142 26.1276 11.3533 25.583 11.3533ZM27.3128 7.12298H27.9855C28.765 7.12298 29.3309 6.54466 29.427 5.98776C29.4911 5.65576 29.4377 5.38802 29.2882 5.20596C29.1174 5.00247 28.8184 4.89538 28.4233 4.89538H27.6972L27.3128 7.12298Z" fill="#39BF93"/>
<path d="M37.1346 11.3535C36.6648 11.3535 36.3124 11.0429 36.2804 10.6038L36.195 9.43649H33.9847L33.4721 10.6467C33.2906 11.0644 32.8528 11.3535 32.415 11.3535C32.1481 11.3535 31.9132 11.2464 31.753 11.0536C31.5928 10.8609 31.5288 10.5931 31.5715 10.3254C31.5822 10.2504 31.5928 10.1755 31.6569 10.0469L34.1982 4.46722C34.6574 3.42839 35.2447 3 36.195 3C37.2094 3 37.6258 3.40697 37.7326 4.51006L38.2878 10.0898C38.3092 10.2183 38.2878 10.304 38.2772 10.3682C38.1811 10.9144 37.6685 11.3535 37.1346 11.3535ZM34.7108 7.74437H36.0775L35.864 5.03483L34.7108 7.74437Z" fill="#39BF93"/>
<path d="M41.5975 11.3535C41.3306 11.3535 41.0957 11.2464 40.9355 11.0536C40.7753 10.8609 40.7113 10.5931 40.754 10.3254L41.117 8.25843L39.825 4.4458C39.7609 4.26374 39.7609 4.06025 39.7823 3.94245C39.8784 3.41768 40.3909 3 40.9569 3C41.3733 3 41.7043 3.26774 41.8111 3.67471L42.5051 6.2236L44.1282 3.63187C44.3844 3.21419 44.7261 3 45.0998 3C45.3881 3 45.6551 3.11781 45.8153 3.31058C45.9648 3.49264 46.0288 3.73896 45.9861 3.996C45.9648 4.1138 45.9007 4.30657 45.7726 4.48864L43.1138 8.31198L42.7507 10.3789C42.6546 10.9144 42.1421 11.3535 41.5975 11.3535Z" fill="#39BF93"/>
<path d="M27.9 21.4849C27.4942 21.4849 27.2166 21.1957 27.1098 20.9494L26.1061 18.5826H25.2839L24.9422 20.5103C24.8461 21.0458 24.3229 21.4849 23.7783 21.4849C23.5114 21.4849 23.2765 21.3778 23.1163 21.185C22.9561 20.9922 22.8921 20.7245 22.9348 20.4567L24.0453 14.1916C24.1414 13.6561 24.6539 13.217 25.1985 13.217H27.2273C28.0708 13.217 28.7862 13.5169 29.2454 14.0631C29.6725 14.5772 29.8326 15.2626 29.7045 16.0123C29.5443 16.9119 28.9891 17.6294 28.1242 18.0792L28.9677 19.9213C29.0425 20.0819 29.1065 20.3282 29.0745 20.5317C28.9677 21.0779 28.4659 21.4849 27.9 21.4849ZM25.5722 16.9654H26.4585C27.1098 16.9654 27.601 16.5799 27.7078 15.9694C27.7505 15.7017 27.7078 15.4768 27.5689 15.3161C27.4195 15.1341 27.1739 15.0377 26.8535 15.0377H25.9246L25.5722 16.9654Z" fill="#39BF93"/>
<path d="M32.8226 21.5167C31.915 21.5167 31.1889 21.2276 30.7404 20.6814C30.2599 20.1138 30.089 19.2784 30.2599 18.3467L31.0073 14.1057C31.1034 13.5595 31.6053 13.1311 32.1605 13.1311C32.4275 13.1311 32.6624 13.2382 32.8332 13.431C32.9934 13.6237 33.0575 13.8808 33.0148 14.1592L32.246 18.4217C32.1712 18.8393 32.2353 19.182 32.4168 19.3962C32.5663 19.5783 32.8012 19.664 33.1109 19.664C33.9437 19.664 34.3602 18.9893 34.4669 18.3681L35.2251 14.1057C35.3212 13.5595 35.823 13.1311 36.3783 13.1311C36.6452 13.1311 36.8801 13.2382 37.051 13.431C37.2111 13.6237 37.2752 13.8808 37.2325 14.1592L36.4851 18.4002C36.2074 19.8353 35.1076 21.5167 32.8226 21.5167Z" fill="#39BF93"/>
<path d="M42.326 21.4846C41.8669 21.4846 41.5145 21.2597 41.3543 20.8635L39.8274 17.265L39.2508 20.51C39.1547 21.0455 38.6315 21.4846 38.0869 21.4846C37.82 21.4846 37.5851 21.3775 37.4249 21.1847C37.2647 20.992 37.2007 20.7242 37.2434 20.4565L38.3645 14.1057C38.4606 13.5488 38.9945 13.1311 39.5925 13.1311C40.041 13.1311 40.3933 13.356 40.5535 13.7523L42.0804 17.4578L42.6784 14.1057C42.7745 13.5809 43.2977 13.1311 43.8316 13.1311C44.0985 13.1311 44.3334 13.2382 44.4936 13.431C44.6538 13.6237 44.7178 13.8808 44.6751 14.1592L43.554 20.51C43.4685 20.9813 43.0094 21.4846 42.326 21.4846Z" fill="#39BF93"/>
<path d="M6.11902 18.8716H3.53499C2.80889 18.8716 2.21094 19.4606 2.21094 20.1996C2.21094 20.9278 2.79822 21.5276 3.53499 21.5276H6.11902C6.84511 21.5276 7.44306 20.9385 7.44306 20.1996C7.43239 19.4606 6.84511 18.8716 6.11902 18.8716Z" fill="#39BF93"/>
<path d="M12.7386 3C12.6318 3 4.63417 3 4.63417 3C3.90808 3 3.31012 3.58903 3.31012 4.32799C3.31012 5.02412 3.84401 5.59173 4.52739 5.64528H9.82358C10.5497 5.64528 11.1476 6.23431 11.1476 6.97327C11.1476 7.70153 10.5604 8.30127 9.82358 8.30127H6.27855H1.32405C0.587279 8.29056 0 8.8903 0 9.61855C0 10.3254 0.555246 10.9037 1.25998 10.9358H7.6026C8.32869 10.9358 8.92665 11.5249 8.92665 12.2638C8.92665 12.9921 8.33937 13.5918 7.6026 13.5918H5.50975C4.80501 13.624 4.24977 14.2023 4.24977 14.9091C4.24977 15.6374 4.83705 16.2371 5.57382 16.2371C5.57382 16.2371 12.7173 16.2371 12.7493 16.2371C16.3904 16.2371 19.3482 13.2705 19.3482 9.61855C19.3375 5.96657 16.3904 3 12.7386 3Z" fill="#39BF93"/>
</g>
<defs>
<clipPath id="clip0">
<rect width="46" height="24" fill="white"/>
</clipPath>
</defs>
</svg>
