<svg width="48" height="19" viewBox="0 0 48 19" fill="none" xmlns="http://www.w3.org/2000/svg">
<g clip-path="url(#clip0)">
<path fill-rule="evenodd" clip-rule="evenodd" d="M32.7747 10.943L33.2487 11.0894C33.2167 11.225 33.1667 11.3384 33.0987 11.4295C33.0307 11.5211 32.9456 11.5901 32.8434 11.6367C32.7422 11.6825 32.6134 11.7053 32.4567 11.7053C32.2663 11.7053 32.1106 11.6775 31.9897 11.622C31.8698 11.5648 31.7659 11.4651 31.6779 11.3229C31.5906 11.1807 31.5469 10.9985 31.5469 10.7762C31.5469 10.4803 31.6237 10.2532 31.7773 10.0946C31.932 9.93527 32.15 9.85559 32.4313 9.85559C32.6517 9.85559 32.8249 9.90136 32.9509 9.99288C33.0776 10.0844 33.1716 10.2242 33.2329 10.4121L32.7553 10.52C32.7391 10.4652 32.7217 10.4256 32.703 10.4011C32.673 10.3586 32.6362 10.3263 32.5926 10.3042C32.5488 10.2814 32.4998 10.2699 32.4456 10.2699C32.3232 10.2699 32.2292 10.3202 32.1638 10.4207C32.1144 10.4959 32.0898 10.6135 32.0898 10.7737C32.0898 10.9723 32.1194 11.1084 32.1786 11.1819C32.2379 11.2555 32.321 11.2922 32.4277 11.2922C32.5313 11.2922 32.6093 11.2628 32.6617 11.204C32.7153 11.1451 32.754 11.0593 32.7778 10.9466L32.7747 10.943ZM33.4422 10.7807C33.4422 10.489 33.5218 10.2618 33.681 10.0992C33.84 9.93654 34.0616 9.85522 34.3458 9.85522C34.6371 9.85522 34.8617 9.93531 35.0196 10.0955C35.1775 10.2548 35.2564 10.4786 35.2564 10.7667C35.2564 10.9758 35.2218 11.1472 35.1525 11.2811C35.0845 11.4143 34.9853 11.5185 34.8549 11.5937C34.7253 11.6677 34.5637 11.7047 34.3701 11.7047C34.1733 11.7047 34.0101 11.6728 33.8805 11.6091C33.7525 11.5454 33.6481 11.4437 33.5673 11.3041C33.4873 11.1652 33.4473 10.9911 33.4473 10.7819L33.4422 10.7807ZM33.9828 10.7832C33.9828 10.9636 34.0154 11.0933 34.0807 11.1722C34.1463 11.2511 34.2355 11.2905 34.3483 11.2905C34.4643 11.2905 34.5543 11.2516 34.6183 11.1738C34.6815 11.096 34.7131 10.9574 34.7131 10.7579C34.7131 10.5896 34.6795 10.4669 34.6123 10.3898C34.5459 10.3113 34.4559 10.2721 34.3423 10.2721C34.2327 10.2721 34.1451 10.3113 34.0795 10.3898C34.0131 10.4674 33.9799 10.5978 33.9799 10.7808L33.9828 10.7832ZM35.5431 9.88562H36.2545L36.5293 10.9734L36.8025 9.88562H37.5117V11.6733H37.0701V10.3102L36.7281 11.6733H36.3285L35.9877 10.3102V11.6733H35.5437V9.88575L35.5431 9.88562ZM37.8529 9.88562H38.752C38.9478 9.88562 39.0942 9.93319 39.1912 10.0283C39.2892 10.1233 39.3382 10.2585 39.3382 10.4338C39.3382 10.6142 39.2849 10.755 39.1782 10.8563C39.0722 10.9577 38.9103 11.0083 38.6924 11.0083H38.3962V11.672H37.853V9.88366L37.8529 9.88562ZM38.3962 10.6477H38.5287C38.633 10.6477 38.7062 10.6294 38.7483 10.5929C38.7906 10.5556 38.8117 10.508 38.8117 10.4504C38.8117 10.3942 38.7934 10.3466 38.7567 10.3077C38.7202 10.2684 38.6514 10.2488 38.5503 10.2488H38.3958V10.6472L38.3962 10.6477ZM39.6223 9.88562H40.1623V11.2333H41.0059V11.6733H39.6211V9.88575L39.6223 9.88562ZM41.2759 9.88562H41.8171V11.6733H41.2747V9.88575L41.2759 9.88562ZM43.2811 11.3783H42.6643L42.5791 11.6735H42.0259L42.6835 9.88624H43.2727L43.9303 11.6747H43.3651L43.2787 11.3805L43.2811 11.3783ZM43.1671 10.9918L42.9727 10.3492L42.7795 10.9918H43.1647H43.1671ZM44.1079 9.88562H44.6131L45.2719 10.8746V9.88562H45.7819V11.6733H45.2719L44.6167 10.6917V11.6736H44.1079V9.8855V9.88562ZM46.0195 9.88562H47.6635V10.3272H47.1115V11.6733H46.5715V10.3274H46.0195V9.88587V9.88562Z" fill="#797D80"/>
<path fill-rule="evenodd" clip-rule="evenodd" d="M26.263 12.6146L27.8294 12.1103L27.3222 10.9562C26.945 11.4306 26.5734 12.0459 26.2626 12.6135L26.263 12.6146ZM25.7294 7.33135L22.6578 0.341309L0.171875 1.64557L6.40131 19.0091L18.3929 15.1481C17.6321 14.0282 17.3513 12.6968 18.2321 12.0462C19.2197 11.318 20.7041 12.1602 21.6581 13.3578C22.5737 11.7863 25.1417 8.15913 25.7297 7.33171L25.7294 7.33135Z" fill="#797D80"/>
<path fill-rule="evenodd" clip-rule="evenodd" d="M21.9613 5.39184C22.9025 5.39184 23.6656 4.65673 23.6656 3.74988C23.6656 2.84302 22.9016 2.1084 21.9608 2.1084C21.0193 2.1084 20.2565 2.84351 20.2565 3.75049C20.2565 4.65759 21.0193 5.39258 21.961 5.39258L21.9613 5.39184ZM20.5669 6.10404H23.3557V13.5425H20.5669V6.10428V6.10404ZM19.1899 8.27494C19.2091 8.28683 19.2259 8.27702 19.2259 8.25361V6.3693C19.2259 6.34528 19.2091 6.31659 19.1887 6.30531C19.1887 6.30531 18.8227 6.06175 17.7067 5.99396C17.6467 5.96025 16.6747 5.95522 16.4059 5.99396C12.3499 6.32615 12.1999 9.32349 12.1999 9.46054V10.1881C12.1999 10.2769 12.1999 13.3416 16.4059 13.613C16.8163 13.6446 17.6215 13.613 17.7067 13.613C18.6751 13.613 19.3459 13.3147 19.3459 13.3147C19.3663 13.3052 19.3843 13.2792 19.3843 13.2554V11.4915C19.3843 11.4674 19.3687 11.4588 19.3483 11.4712C19.3483 11.4712 19.0471 11.7188 17.7235 11.85C17.3479 11.8929 17.1703 11.8733 17.0347 11.85C15.1579 11.5276 15.0679 10.1228 15.0679 10.1228C15.0655 10.0996 15.0631 10.0616 15.0631 10.0383V9.50258C15.0631 9.47929 15.0655 9.44129 15.0679 9.418C15.0679 9.418 15.1939 7.91271 17.0335 7.75336H17.7211C18.5335 7.86491 19.1851 8.27555 19.1851 8.27555L19.1899 8.27494ZM4.46484 13.5128C4.46484 13.5366 4.4832 13.5557 4.50648 13.5557H7.22304C7.24608 13.5557 7.2648 13.5366 7.2648 13.5137V11.3547C7.2648 11.3319 7.2834 11.3137 7.3068 11.3146C7.3068 11.3146 11.6432 11.6349 11.6432 8.66119C11.6432 6.31475 8.92248 6.05758 8.0268 6.10048C8.0088 6.10171 4.50696 6.10048 4.50696 6.10048C4.48416 6.10048 4.46496 6.12071 4.46496 6.14363V13.5132L4.46484 13.5128ZM7.2168 9.665V7.72014H7.88136C7.88136 7.72014 8.84856 7.76476 8.92416 8.43662C8.94216 8.48933 8.93736 8.81785 8.92416 8.83624C8.80056 9.62664 7.96056 9.66537 7.96056 9.66537L7.21896 9.66415L7.2168 9.665Z" fill="#F5F7F8"/>
<path fill-rule="evenodd" clip-rule="evenodd" d="M22.0383 17.134C22.2651 17.134 22.4385 17.134 22.725 17.004C23.7154 16.4723 27.0482 8.15765 30.5636 5.60012C30.584 5.5837 30.6132 5.55992 30.63 5.53552C30.6526 5.50181 30.6534 5.46737 30.6534 5.46737C30.6534 5.46737 30.6534 5.29698 30.1321 5.29698C27.0025 5.20995 23.7481 11.9114 22.0381 14.5629C22.0165 14.5923 21.8989 14.5629 21.8989 14.5629C21.8989 14.5629 20.7529 13.1814 19.7569 12.6518C19.7365 12.6408 19.6225 12.6052 19.5049 12.6138C19.4269 12.6138 18.9637 12.7082 18.7477 12.9423C18.4933 13.2169 18.4981 13.3714 18.5005 13.706C18.5017 13.733 18.5185 13.8445 18.5497 13.9009C18.7933 14.3361 19.9057 15.8978 20.8165 16.7595C20.9581 16.8625 21.1729 17.1358 22.0393 17.1358L22.0383 17.134Z" fill="#797D80"/>
<path fill-rule="evenodd" clip-rule="evenodd" d="M31.4844 3.0801H34.0884C34.602 3.0801 35.0161 3.1512 35.3306 3.29339C35.648 3.43575 35.9098 3.64005 36.1161 3.9063C36.3225 4.17189 36.4721 4.48132 36.5649 4.8346C36.6577 5.18763 36.7041 5.5615 36.7041 5.95621C36.7041 6.57484 36.6345 7.05576 36.4953 7.39899C36.3587 7.73894 36.1678 8.02497 35.9227 8.25705C35.6777 8.48587 35.4145 8.63828 35.1333 8.71428C34.7489 8.81888 34.4007 8.87118 34.0885 8.87118H31.4845V3.07814L31.4844 3.0801ZM33.2373 4.39233V7.55859H33.666C34.0324 7.55859 34.2929 7.51773 34.4477 7.43601C34.6024 7.35183 34.7234 7.20719 34.8108 7.00207C34.8981 6.79368 34.9418 6.45781 34.9418 5.99446C34.9418 5.38074 34.8435 4.96069 34.647 4.73433C34.451 4.50796 34.1259 4.39478 33.6716 4.39478H33.2345L33.2373 4.39233ZM37.1809 6.95794L38.8477 6.8513C38.8837 7.12833 38.9569 7.33917 39.0673 7.48381C39.2473 7.71835 39.5053 7.83562 39.8413 7.83562C40.0917 7.83562 40.2837 7.77637 40.4173 7.65788C40.5533 7.53693 40.6213 7.39719 40.6213 7.23865C40.6213 7.0891 40.5565 6.95508 40.4269 6.83659C40.2973 6.71809 39.9981 6.60654 39.5293 6.50194C38.7605 6.32543 38.2121 6.09089 37.8841 5.79833C37.5537 5.50659 37.3885 5.13394 37.3885 4.68039C37.3885 4.38293 37.4725 4.10263 37.6405 3.83949C37.8101 3.5739 38.0641 3.36592 38.4025 3.21555C38.7433 3.06274 39.2089 2.98633 39.7993 2.98633C40.5233 2.98633 41.0749 3.12484 41.4541 3.40188C41.8349 3.67646 42.0617 4.11407 42.1345 4.71472L40.4821 4.81401C40.4381 4.55332 40.3449 4.36373 40.2025 4.24523C40.0625 4.12674 39.8689 4.06749 39.6217 4.06749C39.4177 4.06749 39.2641 4.11244 39.1609 4.20233C39.0569 4.28977 39.0049 4.39641 39.0049 4.52226C39.0049 4.61461 39.0473 4.69755 39.1321 4.7711C39.2145 4.84792 39.4105 4.91943 39.7201 4.98562C40.4865 5.15478 41.0347 5.32639 41.3646 5.50046C41.6974 5.67207 41.9386 5.88577 42.0882 6.14155C42.241 6.39734 42.3174 6.68336 42.3174 6.99962C42.3174 7.37145 42.2166 7.71426 42.015 8.02807C41.8134 8.34188 41.5322 8.58038 41.1714 8.74357C40.8114 8.90293 40.3568 8.98261 39.8076 8.98261C38.8428 8.98261 38.1745 8.79302 37.8027 8.41383C37.4307 8.03465 37.2203 7.5525 37.1715 6.96738L37.1809 6.95794ZM42.7717 6.95794L44.4385 6.8513C44.4745 7.12833 44.5477 7.33917 44.6581 7.48381C44.8381 7.71835 45.0961 7.83562 45.4321 7.83562C45.6825 7.83562 45.8745 7.77637 46.0081 7.65788C46.1449 7.53693 46.2133 7.39719 46.2133 7.23865C46.2133 7.0891 46.1485 6.95508 46.0189 6.83659C45.8893 6.71809 45.5901 6.60654 45.1213 6.50194C44.3525 6.32543 43.8041 6.09089 43.4761 5.79833C43.1457 5.50659 42.9805 5.13394 42.9805 4.68039C42.9805 4.38293 43.0641 4.10263 43.2313 3.83949C43.4017 3.5739 43.6557 3.36592 43.9933 3.21555C44.3333 3.06274 44.7989 2.98633 45.3901 2.98633C46.1141 2.98633 46.6657 3.12484 47.0449 3.40188C47.4265 3.67646 47.6533 4.11407 47.7253 4.71472L46.0741 4.81278C46.0293 4.55209 45.9361 4.3625 45.7945 4.24401C45.6553 4.12551 45.4617 4.06626 45.2137 4.06626C45.0097 4.06626 44.8561 4.11121 44.7529 4.2011C44.6489 4.28854 44.5969 4.3956 44.5969 4.52226C44.5969 4.61461 44.6393 4.69755 44.7241 4.7711C44.8065 4.84792 45.0025 4.91943 45.3121 4.98562C46.0785 5.15396 46.6269 5.32517 46.9573 5.49923C47.2893 5.67084 47.5305 5.88454 47.6809 6.14033C47.8329 6.39611 47.9089 6.68214 47.9089 6.99839C47.9089 7.37022 47.8085 7.71304 47.6077 8.02685C47.4061 8.34065 47.1245 8.57928 46.7629 8.74272C46.4029 8.90289 45.9485 8.98297 45.3997 8.98297C44.4349 8.98297 43.7665 8.79297 43.3945 8.41297C43.0233 8.03379 42.8129 7.55164 42.7633 6.96652L42.7717 6.95794Z" fill="#797D80"/>
</g>
<defs>
<clipPath id="clip0">
<rect width="48" height="19" fill="white"/>
</clipPath>
</defs>
</svg>
