<svg width="24" height="24" viewBox="0 0 24 24" fill="none" xmlns="http://www.w3.org/2000/svg">
<path fill-rule="evenodd" clip-rule="evenodd" d="M12.4892 22.4888C18.0611 22.2333 22.5 17.635 22.5 12C22.5 6.20101 17.799 1.5 12 1.5C6.20101 1.5 1.5 6.20101 1.5 12C1.5 17.799 6.20101 22.5 12 22.5C12.0469 22.5 12.0938 22.4997 12.1405 22.4991C11.5269 22.4846 11.0329 22.3006 10.6585 21.9469C10.252 21.5782 10.0488 21.0866 10.0488 20.4721C10.0488 19.8575 10.2439 19.3659 10.6341 18.9972C11.0244 18.6131 11.5528 18.4211 12.2195 18.4211C12.8699 18.4211 13.3902 18.6054 13.7805 18.9742C14.1707 19.3429 14.3659 19.8422 14.3659 20.4721C14.3659 21.0866 14.1707 21.5782 13.7805 21.9469C13.4458 22.2632 13.0153 22.4438 12.4892 22.4888ZM8.39024 6.71438C7.33333 7.17528 6.53659 7.84358 6 8.71927L8.26829 10.8163C8.62602 10.2786 9.14634 9.85614 9.82927 9.54888C10.5122 9.24162 11.2846 9.08799 12.1463 9.08799C12.9268 9.08799 13.5366 9.21858 13.9756 9.47975C14.4146 9.74092 14.6341 10.102 14.6341 10.5628C14.6341 10.9316 14.4715 11.2696 14.1463 11.5768C13.8211 11.8687 13.439 12.1529 13 12.4295C12.5772 12.6906 12.1626 13.0056 11.7561 13.3743C11.3659 13.7277 11.0732 14.2346 10.878 14.8952C10.6992 15.5405 10.6992 16.3163 10.878 17.2228H13.4146C13.4959 16.4392 13.7073 15.7863 14.0488 15.264C14.4065 14.7416 14.7967 14.3575 15.2195 14.1117C15.6585 13.8506 16.0894 13.5971 16.5122 13.3513C16.935 13.1054 17.2846 12.7675 17.561 12.3373C17.8537 11.8918 18 11.3233 18 10.632C18 9.21858 17.4472 8.09707 16.3415 7.26746C15.252 6.42249 13.7967 6 11.9756 6C10.6423 6 9.44715 6.23813 8.39024 6.71438Z" fill="#F5F7F8"/>
<circle cx="12" cy="12" r="10" stroke="#39BF93"/>
<path d="M6 8.71927C6.53659 7.84358 7.33333 7.17528 8.39024 6.71438C9.44715 6.23813 10.6423 6 11.9756 6C13.7967 6 15.252 6.42249 16.3415 7.26746C17.4472 8.09707 18 9.21858 18 10.632C18 11.3233 17.8537 11.8918 17.561 12.3373C17.2846 12.7675 16.935 13.1054 16.5122 13.3513C16.0894 13.5971 15.6585 13.8506 15.2195 14.1117C14.7967 14.3575 14.4065 14.7416 14.0488 15.264C13.7073 15.7863 13.4959 16.4392 13.4146 17.2228H10.878C10.6992 16.3163 10.6992 15.5405 10.878 14.8953C11.0732 14.2346 11.3659 13.7277 11.7561 13.3743C12.1626 13.0056 12.5772 12.6906 13 12.4295C13.439 12.1529 13.8211 11.8687 14.1463 11.5768C14.4715 11.2696 14.6341 10.9316 14.6341 10.5628C14.6341 10.102 14.4146 9.74092 13.9756 9.47975C13.5366 9.21858 12.9268 9.08799 12.1463 9.08799C11.2846 9.08799 10.5122 9.24162 9.82927 9.54888C9.14634 9.85614 8.62602 10.2786 8.26829 10.8163L6 8.71927ZM10.6585 21.9469C10.252 21.5782 10.0488 21.0866 10.0488 20.4721C10.0488 19.8575 10.2439 19.3659 10.6341 18.9972C11.0244 18.6131 11.5528 18.4211 12.2195 18.4211C12.8699 18.4211 13.3902 18.6054 13.7805 18.9742C14.1707 19.3429 14.3659 19.8422 14.3659 20.4721C14.3659 21.0866 14.1707 21.5782 13.7805 21.9469C13.3902 22.3156 12.8699 22.5 12.2195 22.5C11.5691 22.5 11.0488 22.3156 10.6585 21.9469Z" fill="#39BF93"/>
</svg>
