<svg width="26" height="21" viewBox="0 0 26 21" fill="none" xmlns="http://www.w3.org/2000/svg">
<path d="M12.858 2.27935C12.7493 2.36681 12.6624 2.43241 12.5538 2.51987C10.9028 3.963 9.86011 6.08396 9.86011 8.4673C9.86011 10.8288 10.9028 12.9716 12.5538 14.4147C12.6407 14.5022 12.7493 14.5896 12.858 14.6552C12.9666 14.5678 13.0535 14.5022 13.1621 14.4147C14.8131 12.9716 15.8558 10.8506 15.8558 8.4673C15.8558 6.10582 14.8131 3.963 13.1621 2.51987C13.0535 2.45427 12.9666 2.36681 12.858 2.27935ZM17.6806 0.595703C16.073 0.595703 14.5958 1.07674 13.3576 1.90764C13.4228 1.95137 13.4879 2.01696 13.5531 2.06069C15.3996 3.67874 16.4423 5.99649 16.4423 8.4673C16.4423 10.9162 15.3779 13.2558 13.5531 14.8739C13.4879 14.9176 13.4228 14.9832 13.3576 15.027C14.5958 15.8579 16.0948 16.3389 17.6806 16.3389C22.0036 16.3389 25.5011 12.8185 25.5011 8.4673C25.5011 4.11606 22.0036 0.595703 17.6806 0.595703ZM12.1628 14.8739C12.228 14.9176 12.2931 14.9832 12.3583 15.027C11.1201 15.8579 9.62114 16.3389 8.03532 16.3389C3.71234 16.3389 0.214844 12.8185 0.214844 8.4673C0.214844 4.11606 3.71234 0.595703 8.03532 0.595703C9.64287 0.595703 11.1201 1.07674 12.3583 1.90764C12.2931 1.95137 12.228 2.01696 12.1628 2.06069C10.3163 3.67874 9.27357 5.99649 9.27357 8.4673C9.27357 10.9162 10.3163 13.2558 12.1628 14.8739ZM25.2621 13.3433V13.0372H25.1752L25.0883 13.2559L25.0014 13.0372H24.9145V13.3433H24.9797V13.1028L25.0666 13.2996H25.1318L25.2187 13.1028V13.3433H25.2621ZM24.7625 13.3433V13.0809H24.8711V13.0372H24.6104V13.0809H24.719V13.3433H24.7625ZM25.0014 20.1435V20.1872H25.0449H25.0666C25.0666 20.1872 25.0666 20.1872 25.0666 20.1654V20.1435H25.0449H25.0014ZM25.0666 20.0998C25.0883 20.0998 25.11 20.0998 25.1318 20.1216C25.1535 20.1435 25.1535 20.1435 25.1535 20.1654C25.1535 20.1872 25.1535 20.1872 25.1318 20.2091C25.1318 20.2091 25.11 20.231 25.0883 20.231L25.1535 20.2965H25.11L25.0231 20.231H25.0014V20.2965H24.958V20.0998H25.0666ZM25.0449 20.3622C25.0666 20.3622 25.0883 20.3621 25.11 20.3403C25.1318 20.3403 25.1535 20.3184 25.1535 20.2965C25.1752 20.2747 25.1752 20.2747 25.1969 20.2528C25.1969 20.231 25.2187 20.2091 25.2187 20.1872C25.2187 20.1654 25.2187 20.1435 25.1969 20.1216C25.1969 20.0998 25.1752 20.0779 25.1535 20.0779C25.1318 20.056 25.1318 20.056 25.11 20.0342C25.0883 20.0342 25.0666 20.0123 25.0449 20.0123C25.0231 20.0123 25.0014 20.0123 24.9797 20.0342C24.958 20.0342 24.9363 20.056 24.9363 20.0779C24.9145 20.0998 24.9145 20.0998 24.8928 20.1216C24.8928 20.1435 24.8711 20.1654 24.8711 20.1872C24.8711 20.2091 24.8711 20.231 24.8928 20.2528C24.8928 20.2747 24.9145 20.2965 24.9363 20.2965C24.958 20.3184 24.958 20.3184 24.9797 20.3403C25.0014 20.3621 25.0231 20.3622 25.0449 20.3622ZM25.0449 19.9904C25.0666 19.9904 25.11 19.9904 25.1318 20.0123C25.1535 20.0123 25.1752 20.0342 25.1969 20.056C25.2187 20.0779 25.2404 20.0998 25.2404 20.1216C25.2404 20.1435 25.2621 20.1654 25.2621 20.2091C25.2621 20.231 25.2621 20.2747 25.2404 20.2965C25.2187 20.3184 25.2187 20.3403 25.1969 20.3622C25.1752 20.384 25.1535 20.4059 25.1318 20.4059C25.11 20.4277 25.0883 20.4277 25.0449 20.4277C25.0231 20.4277 24.9797 20.4277 24.958 20.4059C24.9363 20.384 24.9145 20.384 24.8928 20.3622C24.8711 20.3403 24.8494 20.3184 24.8494 20.2965C24.8276 20.2747 24.8276 20.2528 24.8276 20.2091C24.8276 20.1872 24.8276 20.1435 24.8494 20.1216C24.8711 20.0998 24.8711 20.0779 24.8928 20.056C24.9145 20.0342 24.9363 20.0123 24.958 20.0123C24.9797 20.0123 25.0231 19.9904 25.0449 19.9904ZM5.66746 19.247C5.66746 18.8753 5.90642 18.5692 6.29744 18.5692C6.66674 18.5692 6.92743 18.8534 6.92743 19.247C6.92743 19.6187 6.66674 19.9248 6.29744 19.9248C5.90642 19.9248 5.66746 19.6187 5.66746 19.247ZM7.3619 19.247V18.1975H6.9057V18.4598C6.75364 18.2631 6.5364 18.1537 6.254 18.1537C5.66746 18.1537 5.21126 18.6129 5.21126 19.247C5.21126 19.8811 5.66746 20.3403 6.254 20.3403C6.55813 20.3403 6.77536 20.231 6.9057 20.0342V20.2965H7.3619V19.247ZM22.6118 19.247C22.6118 18.8753 22.8508 18.5692 23.2418 18.5692C23.6111 18.5692 23.8718 18.8534 23.8718 19.247C23.8718 19.6187 23.6111 19.9248 23.2418 19.9248C22.8508 19.9248 22.6118 19.6187 22.6118 19.247ZM24.2845 19.247V17.3666H23.8284V18.4598C23.6763 18.2631 23.4591 18.1537 23.1766 18.1537C22.5901 18.1537 22.1339 18.6129 22.1339 19.247C22.1339 19.8811 22.5901 20.3403 23.1766 20.3403C23.4808 20.3403 23.698 20.231 23.8284 20.0342V20.2965H24.2845V19.247ZM12.9666 18.5692C13.249 18.5692 13.4445 18.7441 13.4879 19.0721H12.4018C12.4452 18.766 12.6407 18.5692 12.9666 18.5692ZM12.9666 18.1537C12.3583 18.1537 11.9238 18.591 11.9238 19.247C11.9238 19.903 12.3583 20.3403 12.9883 20.3403C13.2924 20.3403 13.5966 20.2528 13.8355 20.056L13.6183 19.7281C13.4445 19.8592 13.2273 19.9467 13.01 19.9467C12.7276 19.9467 12.4452 19.8155 12.38 19.4438H13.9224C13.9224 19.3782 13.9224 19.3345 13.9224 19.2689C13.9441 18.6129 13.5531 18.1537 12.9666 18.1537ZM18.4192 19.247C18.4192 18.8753 18.6581 18.5692 19.0492 18.5692C19.4185 18.5692 19.6792 18.8534 19.6792 19.247C19.6792 19.6187 19.4185 19.9248 19.0492 19.9248C18.6581 19.9248 18.4192 19.6187 18.4192 19.247ZM20.0919 19.247V18.1975H19.6357V18.4598C19.4836 18.2631 19.2664 18.1537 18.984 18.1537C18.3975 18.1537 17.9413 18.6129 17.9413 19.247C17.9413 19.8811 18.3975 20.3403 18.984 20.3403C19.2881 20.3403 19.5054 20.231 19.6357 20.0342V20.2965H20.0919V19.247ZM15.8775 19.247C15.8775 19.8811 16.312 20.3403 16.9854 20.3403C17.2896 20.3403 17.5068 20.2747 17.724 20.0998L17.5068 19.7281C17.333 19.8592 17.1592 19.9248 16.9637 19.9248C16.5944 19.9248 16.3337 19.6625 16.3337 19.247C16.3337 18.8534 16.5944 18.591 16.9637 18.5692C17.1592 18.5692 17.333 18.6348 17.5068 18.766L17.724 18.3943C17.5068 18.2193 17.2896 18.1537 16.9854 18.1537C16.312 18.1537 15.8775 18.6129 15.8775 19.247ZM21.6994 18.1537C21.4388 18.1537 21.265 18.2849 21.1564 18.4598V18.1975H20.7002V20.2965H21.1564V19.1377C21.1564 18.7878 21.3084 18.591 21.5908 18.591C21.6777 18.591 21.7863 18.6129 21.8732 18.6348L22.0036 18.1975C21.9167 18.1756 21.7863 18.1537 21.6994 18.1537ZM9.5777 18.3724C9.36046 18.2193 9.05633 18.1537 8.73048 18.1537C8.20912 18.1537 7.86154 18.4161 7.86154 18.8316C7.86154 19.1814 8.12222 19.3782 8.57841 19.4438L8.79565 19.4657C9.03461 19.5094 9.16495 19.575 9.16495 19.6843C9.16495 19.8374 8.99116 19.9467 8.68703 19.9467C8.3829 19.9467 8.14395 19.8374 7.99188 19.7281L7.77465 20.0779C8.0136 20.2528 8.33946 20.3403 8.66531 20.3403C9.27357 20.3403 9.62115 20.056 9.62115 19.6625C9.62115 19.2907 9.33874 19.0939 8.90427 19.0284L8.68703 19.0065C8.49152 18.9846 8.33946 18.9409 8.33946 18.8097C8.33946 18.6566 8.49152 18.5692 8.73048 18.5692C8.99116 18.5692 9.25185 18.6785 9.38219 18.7441L9.5777 18.3724ZM15.4213 18.1537C15.1607 18.1537 14.9869 18.2849 14.8782 18.4598V18.1975H14.4221V20.2965H14.8782V19.1377C14.8782 18.7878 15.0303 18.591 15.3127 18.591C15.3996 18.591 15.5082 18.6129 15.5951 18.6348L15.7255 18.1975C15.6386 18.1756 15.5082 18.1537 15.4213 18.1537ZM11.5545 18.2193H10.8159V17.5852H10.3597V18.2193H9.947V18.6348H10.3597V19.5969C10.3597 20.0779 10.5553 20.3622 11.0766 20.3622C11.2721 20.3622 11.4894 20.2966 11.6414 20.2091L11.5111 19.8155C11.3808 19.903 11.2287 19.9248 11.1201 19.9248C10.9028 19.9248 10.8159 19.7936 10.8159 19.575V18.6348H11.5545V18.2193ZM4.79852 20.2965V18.9846C4.79852 18.4817 4.49439 18.1537 3.97302 18.1537C3.71234 18.1537 3.42994 18.2412 3.23442 18.5254C3.08236 18.2849 2.86512 18.1537 2.53927 18.1537C2.32203 18.1537 2.1048 18.2193 1.93101 18.4598V18.1975H1.47481V20.2965H1.93101V19.1377C1.93101 18.766 2.12652 18.591 2.43065 18.591C2.73478 18.591 2.88685 18.7878 2.88685 19.1377V20.2965H3.34304V19.1377C3.34304 18.766 3.56027 18.591 3.84268 18.591C4.14681 18.591 4.29888 18.7878 4.29888 19.1377V20.2965H4.79852Z" fill="#797D80"/>
</svg>
