<svg width="50" height="16" viewBox="0 0 50 16" fill="none" xmlns="http://www.w3.org/2000/svg">
<g clip-path="url(#clip0)">
<path d="M14.1072 0.211626L9.24255 11.8177H6.06881L3.67431 2.55452C3.52981 1.98341 3.40253 1.77527 2.96044 1.53445C2.23968 1.14397 1.04759 0.775844 0 0.54878L0.0705282 0.204743H5.17947C5.51335 0.203995 5.83649 0.322725 6.09046 0.539467C6.34443 0.75621 6.51248 1.05666 6.56423 1.38651L7.82856 8.10383L10.9524 0.204743L14.1072 0.211626ZM26.5424 8.02814C26.5562 4.96449 22.3074 4.79592 22.3366 3.42665C22.3452 3.01037 22.7426 2.56656 23.6095 2.45475C24.6248 2.35667 25.6477 2.53498 26.57 2.9708L27.0963 0.509219C26.1986 0.172065 25.248 -0.00267577 24.289 -0.00683594C21.3217 -0.00683594 19.2317 1.57057 19.2145 3.83089C19.1955 5.50119 20.7059 6.43353 21.8429 6.98915C23.0126 7.55853 23.4065 7.92149 23.4014 8.43066C23.3928 9.20991 22.4673 9.55395 21.6038 9.56599C20.0952 9.59007 19.2179 9.16002 18.5195 8.83319L17.9759 11.3773C18.6778 11.699 19.9731 11.9794 21.3148 11.9932C24.4696 11.9932 26.5321 10.4347 26.5424 8.02298V8.02814ZM34.3779 11.8074H37.156L34.7322 0.201305H32.1692C31.8953 0.198505 31.6269 0.278227 31.3989 0.430097C31.1709 0.581968 30.994 0.798948 30.8911 1.05279L26.3859 11.8074H29.539L30.1651 10.0734H34.0166L34.3779 11.8074ZM31.0287 7.69443L32.6095 3.35612L33.5126 7.70475L31.0287 7.69443ZM18.3974 0.201305L15.9134 11.8074H12.9117L15.3956 0.201305H18.3974Z" fill="#797D80"/>
</g>
<defs>
<clipPath id="clip0">
<rect width="49.5413" height="16" fill="white"/>
</clipPath>
</defs>
</svg>
