<svg width="24" height="21" fill="none" xmlns="http://www.w3.org/2000/svg"><circle cx="10.434" cy="10.434" r="9.934" fill="#333" stroke="#B1FA16"/><g filter="url(#filter0_f_125_30)"><path d="M5.435 10.939a.796.796 0 01.03-1.125c.59-.562 3.123.806 3.947 1.13 2.8-6.132 13.876-9.06 11.164-6.59a24.182 24.182 0 00-5.953 4.48c-1.67 1.728-3.06 3.704-4.075 5.89a.796.796 0 01-1.298.215l-3.815-3.995v-.005z" fill="#B1FA16"/><path d="M9.61 14.593l-3.675-3.849v-.004l-.137-.145a.296.296 0 01-.004-.404.272.272 0 01.037-.007c.063-.008.162-.006.303.017.282.046.642.16 1.037.312.39.15.791.33 1.152.494.069.03.136.062.202.092.274.125.525.24.703.31l.441.175.197-.432c1.322-2.894 4.648-5.095 7.392-6.27 1.237-.529 2.293-.822 2.933-.889a24.67 24.67 0 00-5.928 4.494h0c-1.705 1.764-3.13 3.787-4.169 6.026a.289.289 0 01-.06.087h0l-.004.004a.296.296 0 01-.417-.01l-.002-.001zm-3.825-4.4s0 0 0 0h0zM20.65 4h-.001 0zm-.14-.325l-.002.005a.023.023 0 01.002-.005z" stroke="#B1FA16"/></g><path d="M5.435 10.939a.796.796 0 01.03-1.125c.59-.562 3.123.806 3.947 1.13 2.8-6.132 13.876-9.06 11.164-6.59a24.182 24.182 0 00-5.953 4.48c-1.67 1.728-3.06 3.704-4.075 5.89a.796.796 0 01-1.298.215l-3.815-3.995v-.005z" fill="#B1FA16"/><defs><filter id="filter0_f_125_30" x="2.217" y=".478" width="21.783" height="17.707" filterUnits="userSpaceOnUse" color-interpolation-filters="sRGB"><feFlood flood-opacity="0" result="BackgroundImageFix"/><feBlend in="SourceGraphic" in2="BackgroundImageFix" result="shape"/><feGaussianBlur stdDeviation="1.5" result="effect1_foregroundBlur_125_30"/></filter></defs></svg>