<svg width="223" height="117" viewBox="0 0 223 117" fill="none" xmlns="http://www.w3.org/2000/svg">
<g clip-path="url(#clip0_177_76)">
<path d="M204.654 20.4707C200.284 11.1209 195.317 0.510565 182.514 0.544925C169.723 0.584498 161.787 11.2184 154.792 20.6017C148.113 29.5743 141.792 38.033 131.896 38.0632C121.987 38.0882 118.043 29.6449 113.849 20.7108C109.479 11.3609 104.512 0.750586 91.7089 0.784942C78.9187 0.824517 70.9821 11.4584 63.9999 20.847C57.3083 29.8143 51.0005 38.2783 41.1044 38.3085C31.1954 38.3334 27.2514 29.8901 23.0701 20.9612C18.6873 11.6061 13.7279 1.01391 0.930006 1.0354L0.150737 6.64976C10.0469 6.61959 14.0037 15.0681 18.185 23.997C22.5678 33.3521 27.522 43.9572 40.3251 43.9228C53.1153 43.8832 61.0519 33.2493 68.0341 23.8608C74.7257 14.8935 81.0335 6.42947 90.9297 6.3993C100.839 6.37435 104.783 14.8176 108.977 23.7518C113.347 33.1016 118.314 43.7119 131.117 43.6776C143.907 43.638 151.844 33.0041 158.839 23.6207C165.518 14.6482 171.838 6.18945 181.734 6.15928C191.643 6.13433 195.587 14.5776 199.781 23.5117C204.151 32.8616 209.118 43.4719 221.922 43.4375L222.701 37.8232C212.792 37.8481 208.848 29.4049 204.654 20.4707Z" fill="url(#paint0_linear_177_76)"/>
<path d="M6.90625 89.5104H9.44549V93.1418C10.4563 91.7619 11.6194 90.7269 12.9347 90.037C14.25 89.347 15.7175 89.0021 17.3372 89.0021C20.1627 89.0021 22.5801 90.0128 24.5896 92.0342C26.5991 94.0557 27.6038 96.4887 27.6038 99.3332C27.6038 102.238 26.6052 104.708 24.6079 106.741C22.6227 108.763 20.2236 109.773 17.4103 109.773C15.8271 109.773 14.3717 109.447 13.0443 108.793C11.7168 108.139 10.5172 107.165 9.44549 105.87V116.491H6.90625V89.5104ZM17.1363 91.4532C14.9198 91.4532 13.0504 92.2218 11.528 93.7591C10.0179 95.2964 9.26281 97.2089 9.26281 99.4966C9.26281 100.998 9.59772 102.347 10.2675 103.546C10.9495 104.744 11.9177 105.694 13.1721 106.396C14.4387 107.098 15.7723 107.449 17.1728 107.449C18.549 107.449 19.8399 107.098 21.0456 106.396C22.2635 105.682 23.2317 104.689 23.9502 103.419C24.6688 102.148 25.028 100.816 25.028 99.424C25.028 98.0199 24.6688 96.6884 23.9502 95.4295C23.2439 94.1707 22.2878 93.1963 21.0822 92.5063C19.8765 91.8042 18.5612 91.4532 17.1363 91.4532Z" fill="white"/>
<path d="M31.4401 89.5104H34.0524V92.3974C34.8318 91.2595 35.6539 90.4122 36.5185 89.8554C37.3832 89.2865 38.2844 89.0021 39.2222 89.0021C39.9286 89.0021 40.6836 89.226 41.4874 89.6739L40.1539 91.8163C39.618 91.5864 39.1674 91.4714 38.802 91.4714C37.9495 91.4714 37.1275 91.8224 36.3359 92.5245C35.5443 93.2144 34.9414 94.2917 34.5273 95.7564C34.2107 96.8821 34.0524 99.1577 34.0524 102.583V109.265H31.4401V89.5104Z" fill="white"/>
<path d="M53.0693 89.0021C56.1261 89.0021 58.6593 90.1036 60.6687 92.3066C62.4955 94.3159 63.4089 96.6945 63.4089 99.4422C63.4089 102.202 62.4407 104.617 60.5043 106.687C58.5801 108.744 56.1018 109.773 53.0693 109.773C50.0246 109.773 47.5341 108.744 45.5977 106.687C43.6735 104.617 42.7114 102.202 42.7114 99.4422C42.7114 96.7066 43.6248 94.3341 45.4516 92.3247C47.461 90.1096 50.0003 89.0021 53.0693 89.0021ZM53.0693 91.4895C50.9502 91.4895 49.1295 92.2703 47.6072 93.8317C46.0848 95.3932 45.3237 97.2815 45.3237 99.4966C45.3237 100.925 45.6708 102.256 46.365 103.491C47.0591 104.726 47.9969 105.682 49.1782 106.36C50.3595 107.026 51.6566 107.359 53.0693 107.359C54.482 107.359 55.779 107.026 56.9603 106.36C58.1417 105.682 59.0794 104.726 59.7736 103.491C60.4678 102.256 60.8149 100.925 60.8149 99.4966C60.8149 97.2815 60.0476 95.3932 58.5131 93.8317C56.9908 92.2703 55.1762 91.4895 53.0693 91.4895Z" fill="white"/>
<path d="M76.3609 81.8846V84.3721C75.4231 83.9726 74.6193 83.7729 73.9495 83.7729C73.4502 83.7729 73.0361 83.8758 72.7073 84.0816C72.3785 84.2752 72.1714 84.5052 72.0862 84.7715C72.0009 85.0257 71.9583 85.7157 71.9583 86.8414V89.5104H76.1051V91.6892H71.94V109.265H69.3825V91.6892H66.7702V89.5104H69.3825V86.4238C69.3825 85.0076 69.5104 83.9968 69.7662 83.3916C70.0341 82.7864 70.4786 82.3022 71.0997 81.9391C71.733 81.5638 72.4942 81.3762 73.3832 81.3762C74.2113 81.3762 75.2039 81.5457 76.3609 81.8846Z" fill="white"/>
<path d="M80.8365 81.3762C81.4211 81.3762 81.9204 81.582 82.3345 81.9935C82.7486 82.4051 82.9556 82.9014 82.9556 83.4824C82.9556 84.0513 82.7486 84.5415 82.3345 84.9531C81.9204 85.3647 81.4211 85.5704 80.8365 85.5704C80.2641 85.5704 79.7709 85.3647 79.3568 84.9531C78.9427 84.5415 78.7357 84.0513 78.7357 83.4824C78.7357 82.9014 78.9427 82.4051 79.3568 81.9935C79.7709 81.582 80.2641 81.3762 80.8365 81.3762ZM79.5578 89.5104H82.1335V109.265H79.5578V89.5104Z" fill="white"/>
<path d="M152.977 105.27C153.598 105.27 154.127 105.488 154.566 105.924C155.004 106.36 155.223 106.892 155.223 107.522C155.223 108.139 155.004 108.672 154.566 109.12C154.127 109.555 153.598 109.773 152.977 109.773C152.355 109.773 151.826 109.555 151.387 109.12C150.949 108.672 150.73 108.139 150.73 107.522C150.73 106.892 150.949 106.36 151.387 105.924C151.826 105.488 152.355 105.27 152.977 105.27Z" fill="white"/>
<path d="M169.947 89.0021C173.004 89.0021 175.537 90.1036 177.547 92.3066C179.374 94.3159 180.287 96.6945 180.287 99.4422C180.287 102.202 179.319 104.617 177.382 106.687C175.458 108.744 172.98 109.773 169.947 109.773C166.903 109.773 164.412 108.744 162.476 106.687C160.552 104.617 159.59 102.202 159.59 99.4422C159.59 96.7066 160.503 94.3341 162.33 92.3247C164.339 90.1096 166.878 89.0021 169.947 89.0021ZM169.947 91.4895C167.828 91.4895 166.008 92.2703 164.485 93.8317C162.963 95.3932 162.202 97.2815 162.202 99.4966C162.202 100.925 162.549 102.256 163.243 103.491C163.937 104.726 164.875 105.682 166.056 106.36C167.238 107.026 168.535 107.359 169.947 107.359C171.36 107.359 172.657 107.026 173.838 106.36C175.02 105.682 175.958 104.726 176.652 103.491C177.346 102.256 177.693 100.925 177.693 99.4966C177.693 97.2815 176.926 95.3932 175.391 93.8317C173.869 92.2703 172.054 91.4895 169.947 91.4895Z" fill="white"/>
<path d="M184.087 89.5104H186.699V92.3974C187.479 91.2595 188.301 90.4122 189.165 89.8554C190.03 89.2865 190.931 89.0021 191.869 89.0021C192.575 89.0021 193.33 89.226 194.134 89.6739L192.801 91.8163C192.265 91.5864 191.814 91.4714 191.449 91.4714C190.596 91.4714 189.774 91.8224 188.983 92.5245C188.191 93.2144 187.588 94.2917 187.174 95.7564C186.857 96.8821 186.699 99.1577 186.699 102.583V109.265H184.087V89.5104Z" fill="white"/>
<path d="M213.425 89.5104H216.001V105.252C216.001 108.024 215.757 110.052 215.27 111.335C214.6 113.151 213.437 114.549 211.781 115.529C210.125 116.51 208.133 117 205.807 117C204.102 117 202.568 116.758 201.204 116.273C199.852 115.801 198.75 115.16 197.897 114.349C197.045 113.55 196.259 112.376 195.541 110.826H198.318C199.073 112.134 200.047 113.102 201.24 113.732C202.434 114.361 203.914 114.676 205.679 114.676C207.421 114.676 208.889 114.349 210.082 113.695C211.288 113.054 212.146 112.243 212.658 111.262C213.169 110.282 213.425 108.702 213.425 106.523V105.507C212.463 106.717 211.288 107.649 209.899 108.303C208.511 108.944 207.037 109.265 205.479 109.265C203.652 109.265 201.935 108.817 200.327 107.921C198.719 107.014 197.477 105.797 196.6 104.272C195.723 102.747 195.285 101.07 195.285 99.2425C195.285 97.4147 195.742 95.714 196.655 94.1404C197.569 92.5547 198.829 91.3019 200.437 90.382C202.056 89.462 203.761 89.0021 205.552 89.0021C207.037 89.0021 208.42 89.3107 209.698 89.928C210.989 90.5333 212.232 91.5379 213.425 92.9421V89.5104ZM205.88 91.4532C204.431 91.4532 203.085 91.8042 201.843 92.5063C200.601 93.1963 199.627 94.1586 198.92 95.3932C198.214 96.6158 197.861 97.9412 197.861 99.3696C197.861 101.536 198.592 103.328 200.053 104.744C201.514 106.16 203.408 106.868 205.734 106.868C208.085 106.868 209.972 106.166 211.397 104.762C212.834 103.358 213.553 101.512 213.553 99.2243C213.553 97.7354 213.224 96.41 212.566 95.248C211.909 94.0738 210.977 93.1478 209.771 92.47C208.566 91.7921 207.269 91.4532 205.88 91.4532Z" fill="white"/>
<path d="M86.8783 108.757V108.907H87.0283H89.5676H89.7176V108.757V105.571C90.6758 106.79 91.7653 107.722 92.9871 108.363C94.3257 109.065 95.8175 109.415 97.4593 109.415C100.325 109.415 102.781 108.388 104.818 106.339C106.856 104.289 107.876 101.812 107.876 98.9156C107.876 95.9841 106.862 93.4889 104.837 91.4389C102.824 89.377 100.386 88.3437 97.5324 88.3437C95.928 88.3437 94.45 88.675 93.1006 89.3393C91.8604 89.9388 90.7329 90.8227 89.7176 91.9875V81.3762V81.2262H89.5676H87.0283H86.8783V81.3762V108.757ZM103.942 102.763L103.941 102.764C103.248 104 102.311 104.961 101.129 105.649C99.947 106.325 98.6576 106.664 97.2584 106.664C95.0809 106.664 93.2502 105.91 91.7569 104.403C90.2763 102.895 89.5349 101.021 89.5349 98.7704C89.5349 97.2928 89.8643 95.9689 90.5203 94.7951C91.1882 93.6218 92.136 92.6909 93.3675 92.0017L93.3679 92.0015C94.6129 91.2995 95.9212 90.9496 97.2949 90.9496C98.6437 90.9496 99.9083 91.2992 101.091 91.9999L101.093 92.0008C102.286 92.6889 103.236 93.6556 103.942 94.9042C104.648 96.1536 105 97.4658 105 98.843C105 100.22 104.648 101.526 103.942 102.763ZM129.521 91.6973L129.521 91.6971C127.482 89.462 124.908 88.3437 121.81 88.3437C118.7 88.3437 116.12 89.4681 114.082 91.7154C112.23 93.7526 111.303 96.1612 111.303 98.9338C111.303 101.733 112.28 104.184 114.229 106.28L114.23 106.281C116.197 108.372 118.728 109.415 121.81 109.415C124.881 109.415 127.4 108.371 129.355 106.281C131.317 104.184 132.3 101.733 132.3 98.9338C132.3 96.1492 131.373 93.7346 129.521 91.6973ZM127.147 93.4281L127.147 93.4285C128.654 94.9616 129.406 96.8119 129.406 98.9883C129.406 100.391 129.065 101.697 128.384 102.909C127.703 104.121 126.784 105.057 125.627 105.721C124.469 106.374 123.198 106.7 121.81 106.7C120.423 106.7 119.151 106.373 117.993 105.721C116.837 105.057 115.918 104.121 115.237 102.909C114.555 101.697 114.215 100.391 114.215 98.9883C114.215 96.8116 114.961 94.961 116.456 93.4281C117.951 91.8946 119.733 91.1311 121.81 91.1311C123.875 91.1311 125.652 91.8944 127.147 93.4281ZM139.147 81.5167H138.997V81.6667V88.8521H135.658H135.508V89.0021V91.1809V91.3309H135.658H138.997V108.757V108.907H139.147H141.722H141.872V108.757V91.3309H145.778H145.928V91.1809V89.0021V88.8521H145.778H141.872V81.6667V81.5167H141.722H139.147Z" fill="url(#paint1_linear_177_76)" stroke="url(#paint2_linear_177_76)" stroke-width="0.3"/>
</g>
<defs>
<linearGradient id="paint0_linear_177_76" x1="-31.6162" y1="5.99812" x2="258.123" y2="39.2299" gradientUnits="userSpaceOnUse">
<stop offset="0.41" stop-color="#A38FF5"/>
<stop offset="0.43" stop-color="#978DF6"/>
<stop offset="0.46" stop-color="#7A8AF9"/>
<stop offset="0.49" stop-color="#5990FE"/>
<stop offset="0.5" stop-color="#5BAAFE"/>
<stop offset="0.52" stop-color="#5ED3FE"/>
<stop offset="0.53" stop-color="#5DF7FF"/>
<stop offset="0.54" stop-color="#6DE5FB"/>
<stop offset="0.56" stop-color="#99B9F2"/>
<stop offset="0.59" stop-color="#C58CEA"/>
<stop offset="0.62" stop-color="#ADB7FA"/>
<stop offset="0.72" stop-color="#B8DCF0"/>
<stop offset="0.79" stop-color="#9E9EFD"/>
<stop offset="0.87" stop-color="#8EA4FE"/>
</linearGradient>
<linearGradient id="paint1_linear_177_76" x1="79.4971" y1="106.496" x2="155.099" y2="87.1244" gradientUnits="userSpaceOnUse">
<stop offset="0.41" stop-color="#A38FF5"/>
<stop offset="0.43" stop-color="#978DF6"/>
<stop offset="0.46" stop-color="#7A8AF9"/>
<stop offset="0.49" stop-color="#5990FE"/>
<stop offset="0.5" stop-color="#5BAAFE"/>
<stop offset="0.52" stop-color="#5ED3FE"/>
<stop offset="0.53" stop-color="#5DF7FF"/>
<stop offset="0.54" stop-color="#6DE5FB"/>
<stop offset="0.56" stop-color="#99B9F2"/>
<stop offset="0.59" stop-color="#C58CEA"/>
<stop offset="0.62" stop-color="#ADB7FA"/>
<stop offset="0.72" stop-color="#B8DCF0"/>
<stop offset="0.79" stop-color="#9E9EFD"/>
<stop offset="0.87" stop-color="#8EA4FE"/>
</linearGradient>
<linearGradient id="paint2_linear_177_76" x1="79.4971" y1="106.496" x2="155.099" y2="87.1244" gradientUnits="userSpaceOnUse">
<stop offset="0.41" stop-color="#A38FF5"/>
<stop offset="0.43" stop-color="#978DF6"/>
<stop offset="0.46" stop-color="#7A8AF9"/>
<stop offset="0.49" stop-color="#5990FE"/>
<stop offset="0.5" stop-color="#5BAAFE"/>
<stop offset="0.52" stop-color="#5ED3FE"/>
<stop offset="0.53" stop-color="#5DF7FF"/>
<stop offset="0.54" stop-color="#6DE5FB"/>
<stop offset="0.56" stop-color="#99B9F2"/>
<stop offset="0.59" stop-color="#C58CEA"/>
<stop offset="0.62" stop-color="#ADB7FA"/>
<stop offset="0.72" stop-color="#B8DCF0"/>
<stop offset="0.79" stop-color="#9E9EFD"/>
<stop offset="0.87" stop-color="#8EA4FE"/>
</linearGradient>
<clipPath id="clip0_177_76">
<rect width="223" height="117" fill="white"/>
</clipPath>
</defs>
</svg>
