<svg width="145" height="56" viewBox="0 0 145 56" fill="none" xmlns="http://www.w3.org/2000/svg">
<g clip-path="url(#clip0_57_1975)">
<path d="M132.944 13.5378C130.122 7.5011 126.915 0.650651 118.649 0.672834C110.391 0.698384 105.267 7.56407 100.751 13.6223C96.4385 19.4154 92.3577 24.8767 85.9683 24.8962C79.5707 24.9123 77.0243 19.4609 74.3164 13.6927C71.4949 7.65607 68.288 0.805615 60.0218 0.827798C51.7639 0.853348 46.6397 7.71904 42.1317 13.7807C37.8113 19.5703 33.7388 25.035 27.3494 25.0545C20.9518 25.0706 18.4054 19.6193 15.7058 13.8544C12.876 7.8144 9.67406 0.975626 1.41122 0.989505L0.908094 4.61436C7.29745 4.59489 9.85211 10.0496 12.5517 15.8144C15.3815 21.8545 18.5801 28.7015 26.8463 28.6794C35.1042 28.6538 40.2284 21.7881 44.7364 15.7265C49.0568 9.93683 53.1293 4.47213 59.5187 4.45266C65.9163 4.43655 68.4627 9.88788 71.1706 15.6561C73.9921 21.6928 77.199 28.5432 85.4652 28.521C93.7231 28.4955 98.8473 21.6298 103.364 15.5715C107.676 9.7785 111.757 4.31717 118.146 4.29769C124.544 4.28158 127.09 9.73292 129.798 15.5011C132.619 21.5378 135.826 28.3882 144.092 28.3661L144.595 24.7412C138.198 24.7573 135.651 19.306 132.944 13.5378Z" fill="url(#paint0_linear_57_1975)"/>
<path d="M5.2699 38.2518H6.90933V40.5963C7.56196 39.7054 8.31288 39.0372 9.16209 38.5917C10.0113 38.1463 10.9588 37.9235 12.0046 37.9235C13.8288 37.9235 15.3896 38.5761 16.687 39.8812C17.9844 41.1864 18.6331 42.7572 18.6331 44.5938C18.6331 46.4694 17.9883 48.0637 16.6988 49.3767C15.4171 50.6818 13.8681 51.3344 12.0517 51.3344C11.0296 51.3344 10.0899 51.1233 9.23285 50.7013C8.37579 50.2793 7.60128 49.6502 6.90933 48.814V55.6718H5.2699V38.2518ZM11.8748 39.5061C10.4438 39.5061 9.23679 40.0024 8.25391 40.9949C7.2789 41.9874 6.79139 43.2222 6.79139 44.6993C6.79139 45.6684 7.00762 46.5398 7.44009 47.3135C7.88042 48.0872 8.50553 48.7006 9.31542 49.1539C10.1332 49.6072 10.9942 49.8338 11.8984 49.8338C12.7869 49.8338 13.6204 49.6072 14.3989 49.1539C15.1852 48.6928 15.8103 48.052 16.2742 47.2314C16.7381 46.4108 16.9701 45.5511 16.9701 44.6524C16.9701 43.7458 16.7381 42.8862 16.2742 42.0734C15.8181 41.2606 15.2009 40.6315 14.4224 40.186C13.644 39.7328 12.7948 39.5061 11.8748 39.5061Z" fill="white"/>
<path d="M21.1099 38.2518H22.7965V40.1157C23.2998 39.3811 23.8305 38.834 24.3888 38.4745C24.9471 38.1072 25.5289 37.9235 26.1344 37.9235C26.5904 37.9235 27.078 38.0681 27.5969 38.3573L26.7359 39.7406C26.3899 39.5921 26.099 39.5178 25.8631 39.5178C25.3127 39.5178 24.782 39.7445 24.2709 40.1978C23.7598 40.6432 23.3705 41.3388 23.1032 42.2844C22.8988 43.0112 22.7965 44.4805 22.7965 46.6922V51.0061H21.1099V38.2518Z" fill="white"/>
<path d="M35.0746 37.9235C37.0482 37.9235 38.6838 38.6347 39.9811 40.0571C41.1606 41.3544 41.7503 42.8901 41.7503 44.6641C41.7503 46.446 41.1252 48.0051 39.875 49.3415C38.6326 50.6701 37.0325 51.3344 35.0746 51.3344C33.1089 51.3344 31.5009 50.6701 30.2507 49.3415C29.0083 48.0051 28.3871 46.446 28.3871 44.6641C28.3871 42.8979 28.9769 41.3661 30.1563 40.0688C31.4537 38.6386 33.0932 37.9235 35.0746 37.9235ZM35.0746 39.5296C33.7065 39.5296 32.5309 40.0336 31.5481 41.0418C30.5652 42.0499 30.0738 43.2691 30.0738 44.6993C30.0738 45.6215 30.2979 46.4811 30.746 47.2783C31.1942 48.0754 31.7997 48.6928 32.5624 49.1305C33.3251 49.5603 34.1625 49.7752 35.0746 49.7752C35.9867 49.7752 36.8242 49.5603 37.5869 49.1305C38.3496 48.6928 38.955 48.0754 39.4032 47.2783C39.8514 46.4811 40.0755 45.6215 40.0755 44.6993C40.0755 43.2691 39.5801 42.0499 38.5894 41.0418C37.6065 40.0336 36.4349 39.5296 35.0746 39.5296Z" fill="white"/>
<path d="M50.1126 33.3282V34.9343C49.5072 34.6764 48.9882 34.5474 48.5558 34.5474C48.2334 34.5474 47.966 34.6138 47.7537 34.7467C47.5414 34.8717 47.4078 35.0202 47.3527 35.1922C47.2977 35.3563 47.2702 35.8017 47.2702 36.5285V38.2518H49.9475V39.6585H47.2584V51.0061H45.6071V39.6585H43.9205V38.2518H45.6071V36.2589C45.6071 35.3445 45.6897 34.692 45.8548 34.3012C46.0278 33.9105 46.3148 33.5979 46.7158 33.3634C47.1247 33.1211 47.6161 33 48.1901 33C48.7248 33 49.3657 33.1094 50.1126 33.3282Z" fill="white"/>
<path d="M53.0023 33C53.3797 33 53.7021 33.1329 53.9694 33.3986C54.2368 33.6643 54.3705 33.9847 54.3705 34.3598C54.3705 34.7271 54.2368 35.0437 53.9694 35.3094C53.7021 35.5751 53.3797 35.708 53.0023 35.708C52.6327 35.708 52.3143 35.5751 52.0469 35.3094C51.7796 35.0437 51.6459 34.7271 51.6459 34.3598C51.6459 33.9847 51.7796 33.6643 52.0469 33.3986C52.3143 33.1329 52.6327 33 53.0023 33ZM52.1767 38.2518H53.8397V51.0061H52.1767V38.2518Z" fill="white"/>
<path d="M99.5788 48.4271C99.9798 48.4271 100.322 48.5678 100.605 48.8491C100.888 49.1305 101.03 49.4743 101.03 49.8807C101.03 50.2793 100.888 50.6232 100.605 50.9123C100.322 51.1937 99.9798 51.3344 99.5788 51.3344C99.1778 51.3344 98.8358 51.1937 98.5527 50.9123C98.2696 50.6232 98.1281 50.2793 98.1281 49.8807C98.1281 49.4743 98.2696 49.1305 98.5527 48.8491C98.8358 48.5678 99.1778 48.4271 99.5788 48.4271Z" fill="white"/>
<path d="M110.536 37.9235C112.51 37.9235 114.145 38.6347 115.442 40.0571C116.622 41.3544 117.212 42.8901 117.212 44.6641C117.212 46.446 116.587 48.0051 115.336 49.3415C114.094 50.6701 112.494 51.3344 110.536 51.3344C108.57 51.3344 106.962 50.6701 105.712 49.3415C104.47 48.0051 103.848 46.446 103.848 44.6641C103.848 42.8979 104.438 41.3661 105.618 40.0688C106.915 38.6386 108.554 37.9235 110.536 37.9235ZM110.536 39.5296C109.168 39.5296 107.992 40.0336 107.009 41.0418C106.026 42.0499 105.535 43.2691 105.535 44.6993C105.535 45.6215 105.759 46.4811 106.207 47.2783C106.656 48.0754 107.261 48.6928 108.024 49.1305C108.786 49.5603 109.624 49.7752 110.536 49.7752C111.448 49.7752 112.285 49.5603 113.048 49.1305C113.811 48.6928 114.416 48.0754 114.865 47.2783C115.313 46.4811 115.537 45.6215 115.537 44.6993C115.537 43.2691 115.041 42.0499 114.051 41.0418C113.068 40.0336 111.896 39.5296 110.536 39.5296Z" fill="white"/>
<path d="M119.665 38.2518H121.351V40.1157C121.855 39.3811 122.385 38.834 122.944 38.4745C123.502 38.1072 124.084 37.9235 124.689 37.9235C125.145 37.9235 125.633 38.0681 126.152 38.3573L125.291 39.7406C124.945 39.5921 124.654 39.5178 124.418 39.5178C123.868 39.5178 123.337 39.7445 122.826 40.1978C122.315 40.6432 121.925 41.3388 121.658 42.2844C121.454 43.0112 121.351 44.4805 121.351 46.6922V51.0061H119.665V38.2518Z" fill="white"/>
<path d="M138.607 38.2518H140.27V48.4154C140.27 50.2051 140.113 51.5141 139.798 52.3425C139.366 53.5148 138.615 54.4174 137.545 55.0505C136.476 55.6835 135.19 56 133.689 56C132.588 56 131.597 55.8437 130.716 55.5311C129.844 55.2263 129.132 54.8121 128.582 54.2885C128.031 53.7727 127.524 53.0146 127.06 52.0143H128.853C129.34 52.8583 129.969 53.4835 130.74 53.8899C131.511 54.2963 132.466 54.4995 133.606 54.4995C134.73 54.4995 135.678 54.2885 136.448 53.8665C137.227 53.4523 137.781 52.9286 138.111 52.2956C138.442 51.6626 138.607 50.6427 138.607 49.236V48.5795C137.986 49.361 137.227 49.9628 136.331 50.3848C135.434 50.799 134.483 51.0061 133.476 51.0061C132.297 51.0061 131.188 50.717 130.15 50.1386C129.112 49.5525 128.31 48.7671 127.744 47.7824C127.178 46.7977 126.895 45.7153 126.895 44.5352C126.895 43.3551 127.19 42.2571 127.78 41.2411C128.369 40.2173 129.183 39.4084 130.221 38.8145C131.267 38.2205 132.368 37.9235 133.523 37.9235C134.483 37.9235 135.375 38.1228 136.201 38.5214C137.034 38.9122 137.836 39.5608 138.607 40.4674V38.2518ZM133.736 39.5061C132.8 39.5061 131.931 39.7328 131.129 40.186C130.327 40.6315 129.698 41.2528 129.242 42.0499C128.786 42.8393 128.558 43.695 128.558 44.6172C128.558 46.0161 129.03 47.1728 129.973 48.0872C130.917 49.0015 132.14 49.4587 133.641 49.4587C135.159 49.4587 136.378 49.0054 137.298 48.0989C138.226 47.1923 138.689 46.0005 138.689 44.5234C138.689 43.5622 138.477 42.7064 138.053 41.9562C137.628 41.1981 137.026 40.6002 136.248 40.1626C135.47 39.7249 134.632 39.5061 133.736 39.5061Z" fill="white"/>
<path d="M56.85 50.6779V50.8279H57H58.6394H58.7894V50.6779V48.7726C59.389 49.507 60.0664 50.0741 60.8225 50.4708C61.6951 50.9285 62.6669 51.1561 63.7347 51.1561C65.5992 51.1561 67.1982 50.4873 68.5235 49.1542C69.8489 47.8209 70.5132 46.2081 70.5132 44.3242C70.5132 42.4178 69.8535 40.7933 68.5359 39.4596C67.2264 38.1183 65.6389 37.4453 63.7818 37.4453C62.7385 37.4453 61.7762 37.6608 60.8972 38.0935C60.1271 38.4658 59.4247 39.0059 58.7894 39.711V33V32.85H58.6394H57H56.85V33V50.6779ZM67.874 46.7819L67.8735 46.7829C67.4301 47.573 66.8318 48.1861 66.0775 48.6255C65.3225 49.0574 64.4993 49.2735 63.6049 49.2735C62.2129 49.2735 61.0447 48.7926 60.0908 47.8294C59.1453 46.8668 58.6715 45.6707 58.6715 44.2304C58.6715 43.2847 58.8822 42.4391 59.3009 41.6899C59.7271 40.9412 60.3319 40.3471 61.1188 39.9066L61.1192 39.9064C61.9154 39.4575 62.7511 39.2341 63.6285 39.2341C64.4896 39.2341 65.2968 39.4571 66.0525 39.9048L66.0525 39.9048L66.054 39.9057C66.8162 40.345 67.4225 40.9622 67.8737 41.7604C68.3254 42.5594 68.5502 43.3976 68.5502 44.2773C68.5502 45.1569 68.3254 45.991 67.874 46.7819ZM84.4743 39.6279L84.4741 39.6278C83.1475 38.1734 81.4713 37.4453 79.4568 37.4453C77.4343 37.4453 75.7541 38.1773 74.4275 39.6397C73.2227 40.9648 72.6193 42.5326 72.6193 44.3359C72.6193 46.1566 73.2555 47.752 74.5229 49.1154L74.5236 49.116C75.8045 50.4773 77.4532 51.1561 79.4568 51.1561C81.4526 51.1561 83.0936 50.4771 84.3667 49.1157C85.6421 47.7524 86.2824 46.1569 86.2824 44.3359C86.2824 42.525 85.6791 40.9532 84.4743 39.6279ZM82.8641 40.8183L82.8645 40.8187C83.8273 41.7984 84.3076 42.9797 84.3076 44.371C84.3076 45.2677 84.0901 46.102 83.6546 46.8765C83.2192 47.6509 82.6329 48.2482 81.8949 48.6718C81.1557 49.0883 80.344 49.297 79.4568 49.297C78.5695 49.297 77.7578 49.0883 77.0186 48.6718C76.2806 48.2482 75.6943 47.6509 75.2589 46.8765C74.8235 46.102 74.6059 45.2677 74.6059 44.371C74.6059 42.9793 75.0825 41.7979 76.0376 40.8183C76.9932 39.8381 78.1303 39.3513 79.4568 39.3513C80.775 39.3513 81.9084 39.8379 82.8641 40.8183ZM90.6497 33.0376H90.4997V33.1876V37.7735H88.397H88.247V37.9235V39.3303V39.4803H88.397H90.4997V50.6779V50.8279H90.6497H92.3128H92.4628V50.6779V39.4803H94.9312H95.0812V39.3303V37.9235V37.7735H94.9312H92.4628V33.1876V33.0376H92.3128H90.6497Z" fill="url(#paint1_linear_57_1975)" stroke="url(#paint2_linear_57_1975)" stroke-width="0.3"/>
</g>
<defs>
<linearGradient id="paint0_linear_57_1975" x1="-19.602" y1="4.19363" x2="167.465" y2="25.6494" gradientUnits="userSpaceOnUse">
<stop offset="0.41" stop-color="#A38FF5"/>
<stop offset="0.43" stop-color="#978DF6"/>
<stop offset="0.46" stop-color="#7A8AF9"/>
<stop offset="0.49" stop-color="#5990FE"/>
<stop offset="0.5" stop-color="#5BAAFE"/>
<stop offset="0.52" stop-color="#5ED3FE"/>
<stop offset="0.53" stop-color="#5DF7FF"/>
<stop offset="0.54" stop-color="#6DE5FB"/>
<stop offset="0.56" stop-color="#99B9F2"/>
<stop offset="0.59" stop-color="#C58CEA"/>
<stop offset="0.62" stop-color="#ADB7FA"/>
<stop offset="0.72" stop-color="#B8DCF0"/>
<stop offset="0.79" stop-color="#9E9EFD"/>
<stop offset="0.87" stop-color="#8EA4FE"/>
</linearGradient>
<linearGradient id="paint1_linear_57_1975" x1="52.1375" y1="49.2181" x2="100.949" y2="36.7113" gradientUnits="userSpaceOnUse">
<stop offset="0.41" stop-color="#A38FF5"/>
<stop offset="0.43" stop-color="#978DF6"/>
<stop offset="0.46" stop-color="#7A8AF9"/>
<stop offset="0.49" stop-color="#5990FE"/>
<stop offset="0.5" stop-color="#5BAAFE"/>
<stop offset="0.52" stop-color="#5ED3FE"/>
<stop offset="0.53" stop-color="#5DF7FF"/>
<stop offset="0.54" stop-color="#6DE5FB"/>
<stop offset="0.56" stop-color="#99B9F2"/>
<stop offset="0.59" stop-color="#C58CEA"/>
<stop offset="0.62" stop-color="#ADB7FA"/>
<stop offset="0.72" stop-color="#B8DCF0"/>
<stop offset="0.79" stop-color="#9E9EFD"/>
<stop offset="0.87" stop-color="#8EA4FE"/>
</linearGradient>
<linearGradient id="paint2_linear_57_1975" x1="52.1375" y1="49.2181" x2="100.949" y2="36.7113" gradientUnits="userSpaceOnUse">
<stop offset="0.41" stop-color="#A38FF5"/>
<stop offset="0.43" stop-color="#978DF6"/>
<stop offset="0.46" stop-color="#7A8AF9"/>
<stop offset="0.49" stop-color="#5990FE"/>
<stop offset="0.5" stop-color="#5BAAFE"/>
<stop offset="0.52" stop-color="#5ED3FE"/>
<stop offset="0.53" stop-color="#5DF7FF"/>
<stop offset="0.54" stop-color="#6DE5FB"/>
<stop offset="0.56" stop-color="#99B9F2"/>
<stop offset="0.59" stop-color="#C58CEA"/>
<stop offset="0.62" stop-color="#ADB7FA"/>
<stop offset="0.72" stop-color="#B8DCF0"/>
<stop offset="0.79" stop-color="#9E9EFD"/>
<stop offset="0.87" stop-color="#8EA4FE"/>
</linearGradient>
<clipPath id="clip0_57_1975">
<rect width="145" height="56" fill="white"/>
</clipPath>
</defs>
</svg>
