<?xml version="1.0" encoding="utf-8"?><svg viewBox="0 0 24 24" xmlns="http://www.w3.org/2000/svg" xmlns:xlink="http://www.w3.org/1999/xlink"><style>:root>svg{display:none}:root>svg:target{display:block}</style><svg fill="inherit" viewBox="0 0 8 14" id="arrow" xmlns="http://www.w3.org/2000/svg"><path d="M7.713 7L1.702.99.288 2.404l4.6 4.6-4.6 4.593 1.414 1.414L7.713 7z"/></svg><svg fill="none" viewBox="0 0 20 8" id="arrow-link" xmlns="http://www.w3.org/2000/svg"><path d="M16 0v3H0v2h16v3l4-4-4-4z" fill="#B66EFF"/></svg><svg fill="inherit" viewBox="0 0 20 20" id="attention" xmlns="http://www.w3.org/2000/svg"><path d="M10 20C4.477 20 0 15.523 0 10S4.477 0 10 0s10 4.477 10 10c-.006 5.52-4.48 9.994-10 10zm-1-7v2h2v-2H9zm0-8v6h2V5H9z"/></svg><svg fill="inherit" viewBox="0 0 20 16" id="card" xmlns="http://www.w3.org/2000/svg"><path d="M18 16H2a2 2 0 01-2-2V2a2 2 0 012-2h16a2 2 0 012 2v12a2 2 0 01-2 2zM2 8v6h16V8H2zm0-6v2h16V2H2zm9 10H4v-2h7v2z"/></svg><svg fill="inherit" viewBox="0 0 21 21" id="dollar" xmlns="http://www.w3.org/2000/svg"><path fill-rule="evenodd" clip-rule="evenodd" d="M10.5 21C16.299 21 21 16.299 21 10.5S16.299 0 10.5 0 0 4.701 0 10.5 4.701 21 10.5 21zm0-18.9c-.58 0-1.05.47-1.05 1.05V4.2A3.15 3.15 0 006.3 7.35v.586a3.15 3.15 0 002.154 2.989l3.428 1.142c.429.143.718.545.718.997v.586c0 .58-.47 1.05-1.05 1.05h-2.1c-.58 0-1.05-.47-1.05-1.05a1.05 1.05 0 10-2.1 0 3.15 3.15 0 003.15 3.15v1.05a1.05 1.05 0 102.1 0V16.8a3.15 3.15 0 003.15-3.15v-.586a3.15 3.15 0 00-2.154-2.989L9.118 8.933a1.05 1.05 0 01-.718-.997V7.35c0-.58.47-1.05 1.05-1.05h2.1c.58 0 1.05.47 1.05 1.05a1.05 1.05 0 102.1 0 3.15 3.15 0 00-3.15-3.15V3.15c0-.58-.47-1.05-1.05-1.05z"/></svg><svg viewBox="0 0 24 24" id="exit" xmlns="http://www.w3.org/2000/svg"><path fill-rule="evenodd" clip-rule="evenodd" d="M14.005 20.223c-.139 1.932-1.572 3.43-3.482 3.61A36.19 36.19 0 017.127 24c-1.237 0-2.402-.072-3.396-.167-1.91-.18-3.343-1.678-3.483-3.61C.118 18.412 0 15.742 0 12c0-3.742.118-6.412.248-8.223.14-1.932 1.573-3.43 3.483-3.61C4.725.072 5.89 0 7.127 0c1.237 0 2.402.072 3.396.167 1.91.18 3.343 1.678 3.482 3.61.117 1.611.223 3.902.245 7.023H8.315c-.656 0-1.188.537-1.188 1.2 0 .663.532 1.2 1.188 1.2h5.935c-.022 3.12-.128 5.412-.245 7.023zM17.654 15.258a1.132 1.132 0 000 1.65 1.258 1.258 0 001.723 0l4.266-4.083a1.132 1.132 0 000-1.65l-4.266-4.083a1.258 1.258 0 00-1.723 0 1.132 1.132 0 000 1.65l2.185 2.091H14.25v2.334h5.589l-2.185 2.091z" fill="inherit"/></svg><svg fill="inherit" viewBox="0 0 20 19" id="home" xmlns="http://www.w3.org/2000/svg"><path d="M0 10L9.293.707a1 1 0 011.414 0L20 10h-2v8a1 1 0 01-1 1h-5v-7H8v7H3a1 1 0 01-1-1v-8H0z"/></svg><svg fill="inherit" viewBox="0 0 20 20" id="plus" xmlns="http://www.w3.org/2000/svg"><path d="M10 20C4.48 19.994.006 15.52 0 10v-.2C.11 4.305 4.635-.072 10.13 0c5.497.074 9.904 4.569 9.868 10.065C19.962 15.562 15.497 20 10 20zM5 9v2h4v4h2v-4h4V9h-4V5H9v4H5z"/></svg><svg fill="inherit" viewBox="0 0 20 20" id="timer" xmlns="http://www.w3.org/2000/svg"><path d="M9.999 20a9.121 9.121 0 01-9-9 9.121 9.121 0 019-9 9.121 9.121 0 019 9 9.121 9.121 0 01-9 9zm0-16a7.094 7.094 0 00-7 7 7.094 7.094 0 007 7 7.094 7.094 0 007-7 7.094 7.094 0 00-7-7zm5 8h-6V6h2v4h4v2zm3.292-7.292l-3.009-3L16.691.291l3.01 3-1.41 1.416v.001zm-16.585 0L.291 3.291l2.991-3 1.415 1.417-2.989 3h-.002z"/></svg><svg viewBox="0 0 20 20" id="transiction" xmlns="http://www.w3.org/2000/svg"><path d="M10.051 19.949A10 10 0 019.051 0v4.04a5.994 5.994 0 106.909 6.909H20a10.015 10.015 0 01-9.95 9h.001zm9.95-11h-4.04a5.993 5.993 0 00-4.91-4.909V0A10.022 10.022 0 0120 8.948l.001.001z" fill="inherit"/></svg><svg fill="inherit" viewBox="0 0 20 24" id="user" xmlns="http://www.w3.org/2000/svg"><path fill-rule="evenodd" clip-rule="evenodd" d="M17.576 14.318c-.685-.78-1.862-.74-2.782-.245a10.1 10.1 0 01-4.794 1.2 10.1 10.1 0 01-4.794-1.2c-.92-.495-2.097-.535-2.782.245A9.677 9.677 0 000 20.728v1.09C0 23.023.995 24 2.222 24h15.556C19.005 24 20 23.023 20 21.818v-1.09c0-2.45-.914-4.69-2.424-6.41z"/><path d="M15.556 5.455c0 3.012-2.488 5.454-5.556 5.454S4.444 8.467 4.444 5.455C4.444 2.442 6.932 0 10 0s5.556 2.442 5.556 5.455z"/></svg></svg>