<svg width="360" height="71" fill="none" xmlns="http://www.w3.org/2000/svg"><path fill-rule="evenodd" clip-rule="evenodd" d="M113.69 24.024c-1.53 0-2.988.302-4.349.894a11.073 11.073 0 00-3.596 2.489c-2.042 2.114-3.062 4.64-3.062 7.599 0 2.428.729 4.615 2.175 6.56a11.01 11.01 0 003.863 3.25c1.543.785 3.208 1.172 4.969 1.172 1.458 0 2.843-.278 4.168-.822a11.09 11.09 0 003.499-2.259l.036-.06c.486-.46.729-1.015.729-1.668 0-.652-.231-1.232-.692-1.679a2.329 2.329 0 00-1.677-.676c-.656 0-1.166.205-1.604.628a.211.211 0 01-.06.048c-.025 0-.037.024-.061.049-1.203 1.147-2.637 1.727-4.325 1.727-1.847 0-3.402-.676-4.642-2.042-1.093-1.208-1.64-2.621-1.64-4.24a6.18 6.18 0 011.361-3.927 6.2 6.2 0 012.175-1.727 6.139 6.139 0 012.746-.628c1.069 0 2.077.253 3 .749a3.015 3.015 0 01.158-1.728 3.086 3.086 0 011.142-1.438 3.166 3.166 0 011.677-.531c-1.81-1.172-3.803-1.752-5.965-1.752l-.025.012zm6.027 2.477h.036c.753 0 1.373.29 1.835.882.036.036.085.108.145.193a.77.77 0 00.11.157c.194.35.279.737.279 1.136 0 .652-.231 1.208-.692 1.667a2.292 2.292 0 01-1.677.689 2.234 2.234 0 01-1.64-.665 3.015 3.015 0 01-.413-.507 2.128 2.128 0 01-.353-1.196c0-.254.037-.508.122-.75a2.3 2.3 0 01.911-1.195 2.258 2.258 0 011.324-.411h.013zm5.139 6.246a3.01 3.01 0 011.008-.628 2.91 2.91 0 012.491.133c.51.253.911.604 1.227 1.063.377-1.341 1.13-2.44 2.236-3.299a6.058 6.058 0 013.79-1.28c1.75 0 3.232.616 4.447 1.836 1.215 1.22 1.835 2.706 1.835 4.446 0 1.74-.608 3.214-1.835 4.446-1.215 1.22-2.709 1.836-4.447 1.836a6.183 6.183 0 01-3.803-1.268 6.019 6.019 0 01-2.259-3.31c-.231.35-.523.664-.887.906a3.255 3.255 0 01-1.701.47c-.438 0-.875-.084-1.288-.253a3.036 3.036 0 01-.826-.568c.522 2.537 1.798 4.615 3.815 6.258 2.016 1.643 4.337 2.465 6.937 2.465 2.005 0 3.839-.495 5.54-1.474a10.941 10.941 0 004.01-3.999c.984-1.68 1.47-3.516 1.47-5.509 0-1.993-.486-3.818-1.47-5.509-.984-1.68-2.309-3.02-4.01-3.999-1.689-.978-3.535-1.474-5.54-1.474-2.588 0-4.896.822-6.913 2.465-2.017 1.643-3.305 3.733-3.851 6.258l.024-.012zm2.114-.097c.717 0 1.312.266 1.798.785.255.29.425.64.51 1.04.037.169.061.35.061.531 0 .205-.024.423-.061.628a2.318 2.318 0 01-.474.882c-.461.568-1.069.846-1.834.846-.766 0-1.397-.29-1.859-.882a2.13 2.13 0 01-.413-.785 2.302 2.302 0 01-.097-.665c0-.254.036-.495.097-.725.109-.35.279-.664.534-.906.462-.507 1.045-.749 1.738-.749zm24.518-8.626c-.717 0-1.3.278-1.762.822a2.249 2.249 0 00-.571 1.51V38.28c0 .544.182 1.027.535 1.438.461.58 1.069.882 1.834.882.571 0 1.069-.182 1.519-.532a2.164 2.164 0 00.85-1.691V26.392c0-.604-.194-1.136-.595-1.57a2.239 2.239 0 00-1.737-.786h-.061l-.012-.012zm-2.333 16.189c.279.314.583.568.948.75.437.204.911.313 1.421.313h14.738c.571 0 1.057.193 1.482.568.547.46.826 1.051.85 1.752v.06c0 .689-.267 1.269-.789 1.728-.438.398-.972.592-1.58.592h-14.713c-.656 0-1.215-.23-1.701-.689a2.341 2.341 0 01-.668-1.667V40.2l.012.013zm19.974-7.466a3.02 3.02 0 011.008-.628 2.91 2.91 0 012.491.133c.51.253.911.604 1.227 1.063.377-1.341 1.13-2.44 2.236-3.299a6.058 6.058 0 013.79-1.28c1.75 0 3.232.616 4.447 1.836 1.215 1.22 1.835 2.706 1.835 4.446 0 1.74-.608 3.214-1.835 4.446-1.227 1.232-2.709 1.836-4.447 1.836a6.183 6.183 0 01-3.803-1.268 6.024 6.024 0 01-2.259-3.31c-.231.35-.523.664-.887.906a3.255 3.255 0 01-1.701.47c-.438 0-.875-.084-1.288-.253a3.036 3.036 0 01-.826-.568c.522 2.537 1.798 4.615 3.815 6.258 2.017 1.643 4.337 2.465 6.937 2.465 2.005 0 3.839-.495 5.54-1.474a10.941 10.941 0 004.01-3.999 10.814 10.814 0 001.47-5.509c0-1.993-.486-3.818-1.47-5.509-.984-1.68-2.309-3.02-4.01-3.999-1.688-.978-3.535-1.474-5.54-1.474-2.588 0-4.896.822-6.913 2.465-2.017 1.643-3.305 3.733-3.851 6.258l.024-.012zm2.114-.097c.717 0 1.312.266 1.798.785.255.29.425.64.51 1.04.037.169.061.35.061.531 0 .205-.024.423-.061.628a2.33 2.33 0 01-.473.882c-.462.568-1.07.846-1.835.846-.765 0-1.397-.29-1.859-.882a2.13 2.13 0 01-.413-.785 2.302 2.302 0 01-.097-.665c0-.254.036-.495.097-.725.109-.35.279-.664.535-.906.461-.507 1.044-.749 1.737-.749zm24.554-8.626c-.632 0-1.178.218-1.64.665a2.242 2.242 0 00-.729 1.691v6.44c.255-.29.559-.52.911-.69a3.308 3.308 0 011.422-.314h.061a3.227 3.227 0 012.332 1.003c.061.06.122.121.158.194l10.315 12.08c.462.605 1.081.907 1.859.907.693 0 1.288-.266 1.762-.785.401-.435.595-.967.595-1.57V37.24a3.252 3.252 0 01-.948.665 3.304 3.304 0 01-1.421.314 3.338 3.338 0 01-1.64-.411 3.144 3.144 0 01-.911-.785L197.535 24.82a2.527 2.527 0 00-.827-.591 2.453 2.453 0 00-.947-.194l.036-.012zm14.701 0c.571 0 1.069.194 1.519.568.547.46.826 1.051.85 1.788v9.097c-.024.653-.303 1.184-.85 1.595a2.545 2.545 0 01-1.519.471c-.826 0-1.458-.29-1.919-.882a1.816 1.816 0 01-.438-1.196v-9.097c0-.665.243-1.232.729-1.691a2.243 2.243 0 011.64-.665l-.012.012zm-14.737 8.445h.061c.4 0 .765.084 1.105.254.802.398 1.215 1.014 1.227 1.848v9.073c0 .653-.218 1.196-.668 1.631a2.268 2.268 0 01-1.701.725c-.778 0-1.409-.314-1.895-.942a2.305 2.305 0 01-.474-1.414v-9.073c.024-.58.267-1.087.729-1.51.437-.399.984-.592 1.604-.592h.012zm22.003-8.445h-.061c-.717 0-1.3.278-1.762.822a2.254 2.254 0 00-.571 1.51v6.657c.632-.713 1.422-1.063 2.369-1.063.948 0 1.762.362 2.37 1.099v-6.657c0-.604-.195-1.136-.596-1.57a2.237 2.237 0 00-1.737-.786l-.012-.012zm-.037 8.626c.583 0 1.118.194 1.58.568.316.29.534.64.668 1.039.085.23.121.471.121.725 0 .338-.06.664-.194 1.003a2.299 2.299 0 01-.632.821c-.437.375-.96.568-1.543.568-.461 0-.887-.12-1.263-.35a2.131 2.131 0 01-.851-.943 2.187 2.187 0 01-.255-1.063c0-.35.061-.676.194-.979a2.344 2.344 0 012.175-1.377v-.012zm2.369 4.325c-.607.75-1.397 1.136-2.369 1.136-.972 0-1.737-.362-2.369-1.1v6.621c0 .652.231 1.208.693 1.667.461.46 1.02.689 1.676.689.693 0 1.276-.254 1.738-.75.425-.434.631-.978.631-1.594v-6.669zm19.002-12.963h-4.604c.316.278.571.604.753 1.003.206.423.316.87.316 1.353 0 .23-.025.447-.061.664-.146.605-.644 1.402-1.482 2.38l-10.789 12.613-.036.06a2.289 2.289 0 00-.572 1.535v.157c.037.652.316 1.196.827 1.631.437.374.947.568 1.518.568h5.213a3.18 3.18 0 01-.851-1.196 3.077 3.077 0 01-.121-1.909c.145-.544.644-1.305 1.482-2.295l10.825-12.674c.377-.435.571-.954.571-1.534v-.036c-.024-.713-.291-1.28-.826-1.728 0-.024 0-.036-.036-.036a2.28 2.28 0 00-1.519-.568h-.596l-.012.012zm-14.045 0h7.57a2.216 2.216 0 011.518.665c.462.459.693 1.026.693 1.691 0 .483-.122.918-.377 1.317-.462.688-1.105 1.039-1.919 1.039h-7.545a2.297 2.297 0 01-1.604-.628c-.51-.46-.753-1.04-.753-1.728 0-.652.243-1.208.729-1.691a2.241 2.241 0 011.64-.665h.061-.013zm7.035 17.264h7.606a2.23 2.23 0 011.518.568c.547.46.827 1.051.851 1.752v.06c-.024.689-.28 1.269-.79 1.728-.437.398-.972.592-1.579.592h-7.642c-.887-.024-1.531-.435-1.957-1.22a2.23 2.23 0 01-.315-1.136c0-.592.194-1.1.571-1.534.461-.544 1.044-.822 1.737-.822v.012zm14.835-17.264h-.037c-.717 0-1.3.278-1.761.846a2.138 2.138 0 00-.572 1.474v11.984c.025.46.171.882.438 1.257.462.652 1.105.978 1.919.978.547 0 1.045-.169 1.483-.507.571-.435.862-1.027.887-1.752v-.942h9.719c.571 0 1.069-.181 1.519-.532.571-.483.85-1.087.85-1.824 0-.58-.194-1.1-.571-1.534-.486-.544-1.081-.822-1.798-.822h-9.719v-6.282c0-.435.085-.87.255-1.293a2.84 2.84 0 01.826-1.063h-3.438v.012zm5.297 0h9.44c.608.024 1.13.23 1.543.628.523.46.79 1.04.79 1.728 0 .604-.207 1.136-.632 1.57-.437.508-.996.762-1.677.786h-9.403c-.742 0-1.337-.29-1.799-.882-.34-.435-.51-.93-.51-1.474 0-.483.134-.93.413-1.353.438-.652 1.057-.979 1.835-1.003zm-5.297 17.264h14.798a2.258 2.258 0 011.604.725c.437.46.668 1.003.668 1.631 0 .628-.231 1.208-.693 1.667-.461.46-1.02.689-1.676.689H246.91c-.656 0-1.214-.23-1.7-.689a2.338 2.338 0 01-.669-1.667v-3.419c.608.713 1.398 1.063 2.369 1.063h.013zm21.93-17.264h-.037c-.717 0-1.3.278-1.761.822a2.25 2.25 0 00-.572 1.51v3.358c.025.544.219 1.027.596 1.45.461.52 1.057.785 1.761.785.608 0 1.143-.193 1.58-.592.522-.459.79-1.026.79-1.691v-.906h6.621a1.96 1.96 0 011.203.471c.462.399.693.894.693 1.474 0 .665-.268 1.208-.79 1.595-.316.23-.668.35-1.069.374h-7.922l-1.106-.036a3.08 3.08 0 01-1.36-.314 3.018 3.018 0 01-1.009-.75v12.082c0 .653.219 1.208.669 1.667a2.406 2.406 0 001.7.689c.693 0 1.276-.254 1.738-.749.425-.435.632-.979.632-1.595v-6.282h4.106l.122.193.036.036 4.957 5.993c.024-.882.353-1.607 1.009-2.199.583-.544 1.287-.822 2.114-.822.194 0 .364 0 .534.037l-3.28-3.95a7.011 7.011 0 001.798-1.354c1.239-1.293 1.859-2.84 1.859-4.615 0-1.776-.571-3.165-1.701-4.422-1.239-1.377-2.782-2.126-4.641-2.223h-9.283l.013-.036zm14.713 17.264a2.39 2.39 0 011.518.532c.122.108.28.278.438.507.267.399.413.834.413 1.317 0 .737-.292 1.341-.887 1.824a2.25 2.25 0 01-1.482.532h-.255a2.39 2.39 0 01-1.227-.532 2.536 2.536 0 01-.669-.785 2.462 2.462 0 01-.218-1.039c0-.664.23-1.232.692-1.691a2.369 2.369 0 011.677-.665zm9.598 2.356c0 .52-.158.99-.474 1.413-.462.629-1.093.943-1.895.943-.741 0-1.337-.278-1.798-.846a2.184 2.184 0 01-.571-1.51c0-.544.17-1.027.51-1.45.486-.604 1.106-.906 1.859-.906a2.25 2.25 0 011.482.532c.583.459.887 1.063.887 1.824zm4.896-19.62h-.036c-.717 0-1.3.278-1.762.846a2.184 2.184 0 00-.571 1.51v3.322c.024.568.219 1.051.595 1.45a2.27 2.27 0 001.762.785c.608 0 1.142-.193 1.58-.592.522-.459.789-1.027.789-1.691v-.906h8.08c.461.024.862.181 1.203.471.461.399.692.894.692 1.474 0 .664-.267 1.208-.79 1.595-.316.23-.668.35-1.069.374h-9.367l-1.106-.036a3.09 3.09 0 01-1.361-.314 2.6 2.6 0 01-1.008-.75v12.082c0 .652.219 1.208.668 1.667.486.46 1.057.689 1.701.689.693 0 1.276-.254 1.738-.75.425-.434.631-.978.631-1.594v-6.282h8.043c1.896-.024 3.487-.713 4.799-2.066 1.24-1.293 1.859-2.84 1.859-4.615 0-1.776-.571-3.165-1.701-4.422-1.239-1.377-2.782-2.114-4.641-2.199a2.754 2.754 0 00-.51-.036h-10.23l.012-.012zm21.93 0h-.036c-.717 0-1.3.278-1.762.822a2.249 2.249 0 00-.571 1.51v3.358c.024.544.219 1.027.595 1.45a2.27 2.27 0 001.762.785c.608 0 1.142-.193 1.58-.592.522-.459.789-1.026.789-1.691v-.906h6.622c.461.024.862.181 1.203.471.461.399.692.894.692 1.474 0 .665-.267 1.208-.79 1.595-.316.23-.668.35-1.069.374h-7.921l-1.106-.036a3.09 3.09 0 01-1.361-.314 3.004 3.004 0 01-1.008-.75v12.082c0 .653.219 1.208.668 1.667a2.406 2.406 0 001.701.689c.693 0 1.276-.254 1.737-.749.426-.435.632-.979.632-1.595v-6.282h4.107l.121.193.037.036 4.957 5.993c.024-.882.352-1.607 1.008-2.199.583-.544 1.288-.822 2.114-.822.195 0 .365 0 .535.037l-3.281-3.95a7.016 7.016 0 001.799-1.354c1.239-1.293 1.858-2.84 1.858-4.615 0-1.776-.571-3.165-1.701-4.422-1.239-1.377-2.782-2.126-4.641-2.223h-9.282l.012-.036zm14.713 17.264c.571 0 1.07.181 1.519.532.122.108.279.278.437.507.28.399.414.834.414 1.317 0 .737-.292 1.341-.887 1.824-.426.35-.912.532-1.483.532h-.255a2.394 2.394 0 01-1.227-.532 2.546 2.546 0 01-.668-.785 2.448 2.448 0 01-.219-1.039c0-.664.231-1.232.693-1.691a2.365 2.365 0 011.676-.665zm3.22-8.541a3.02 3.02 0 011.008-.628 2.91 2.91 0 012.491.132c.51.254.911.605 1.227 1.064.377-1.341 1.13-2.44 2.236-3.299a6.057 6.057 0 013.79-1.28c1.75 0 3.232.616 4.447 1.836 1.215 1.22 1.835 2.706 1.835 4.446 0 1.74-.608 3.214-1.835 4.446-1.215 1.22-2.709 1.836-4.447 1.836a6.179 6.179 0 01-3.802-1.268 6.02 6.02 0 01-2.26-3.31c-.231.35-.523.664-.887.906a3.255 3.255 0 01-1.701.47c-.438 0-.875-.084-1.288-.253a3.038 3.038 0 01-.826-.568c.522 2.537 1.798 4.615 3.815 6.258 2.017 1.643 4.337 2.465 6.937 2.465 2.005 0 3.84-.495 5.54-1.474a10.942 10.942 0 004.01-3.999c.984-1.68 1.47-3.516 1.47-5.509 0-1.993-.486-3.818-1.47-5.509-.984-1.68-2.309-3.02-4.01-3.999-1.688-.979-3.535-1.474-5.54-1.474-2.588 0-4.896.822-6.913 2.465-2.017 1.643-3.305 3.733-3.851 6.258l.024-.012zm2.114-.097c.717 0 1.312.266 1.798.785.255.29.425.64.51 1.04.037.169.061.35.061.53 0 .206-.024.424-.061.63a2.33 2.33 0 01-.473.881c-.462.568-1.07.846-1.835.846-.765 0-1.397-.29-1.859-.882a2.13 2.13 0 01-.413-.785 2.302 2.302 0 01-.097-.665c0-.254.036-.495.097-.725.109-.35.28-.664.535-.906.461-.507 1.044-.749 1.737-.749z" fill="#fff"/><path d="M42.005 64.02C57.843 60.34 67.7 44.517 64.02 28.678 60.34 12.84 44.517 2.983 28.678 6.663 12.84 10.343 2.983 26.166 6.663 42.005 10.343 57.843 26.166 67.7 42.005 64.02z" fill="#fff"/><path fill-rule="evenodd" clip-rule="evenodd" d="M52.672 11.95c.48 0 .941.08 1.37.224.818.661 1.603 1.37 2.349 2.112l.144.144a4.239 4.239 0 01-.691 4.58 26.369 26.369 0 013.723 6.305 26.127 26.127 0 011.989 10.025c0 3.55-.708 6.933-1.989 10.025a26.348 26.348 0 01-5.69 8.515 26.213 26.213 0 01-8.516 5.69 26.128 26.128 0 01-10.024 1.99 26.12 26.12 0 01-10.025-1.99 26.352 26.352 0 01-8.515-5.69 26.214 26.214 0 01-5.691-8.515A26.128 26.128 0 019.117 35.34c0-3.55.708-6.933 1.989-10.025a26.35 26.35 0 015.69-8.515 26.214 26.214 0 018.516-5.69 26.128 26.128 0 0110.025-1.99 26.128 26.128 0 0114.218 4.19c.038-.042.077-.08.119-.123a4.23 4.23 0 013.002-1.242l-.004.004zm-3.906 2.573a24.661 24.661 0 00-13.434-3.952c-3.358 0-6.56.666-9.477 1.874a24.84 24.84 0 00-8.045 5.381 24.795 24.795 0 00-5.38 8.045 24.708 24.708 0 00-1.875 9.478c0 3.358.665 6.56 1.874 9.477a24.833 24.833 0 004.593 7.218 19.94 19.94 0 002.425 2.323 24.693 24.693 0 0015.881 5.76c3.359 0 6.56-.667 9.478-1.875a24.843 24.843 0 008.044-5.382 24.797 24.797 0 005.381-8.044 24.71 24.71 0 001.875-9.477c0-3.359-.666-6.56-1.875-9.478a24.696 24.696 0 00-3.515-5.954 4.227 4.227 0 01-2.048.526 4.302 4.302 0 01-1.556-.293 21.878 21.878 0 016.132 15.202c0 2.965-.59 5.793-1.663 8.38a21.931 21.931 0 01-4.758 7.116 21.93 21.93 0 01-9.813 5.674c2.464-1.285 7.226-4.525 9.096-6.395a20.885 20.885 0 004.538-6.78 20.864 20.864 0 001.582-7.994c0-2.833-.564-5.534-1.582-7.994a20.906 20.906 0 00-4.538-6.78 20.886 20.886 0 00-6.78-4.538 20.865 20.865 0 00-7.994-1.582c-2.832 0-5.534.565-7.993 1.582a20.842 20.842 0 00-6.78 4.538c-2.108 2.107-5.285 7.166-6.616 10.007a21.93 21.93 0 015.899-10.724 21.878 21.878 0 0115.495-6.42c2.964 0 5.792.59 8.379 1.662a21.777 21.777 0 015.182 3.04 4.29 4.29 0 01-.127-3.613l-.005-.008z" fill="#fff"/><path fill-rule="evenodd" clip-rule="evenodd" d="M35.457 15.486c10.902 0 19.74 8.837 19.74 19.74 0 6.289-2.94 11.89-7.523 15.504a20.026 20.026 0 003.036-10.636c0-11.114-9.011-20.126-20.126-20.126a20.063 20.063 0 00-10.635 3.037c3.613-4.58 9.215-7.523 15.503-7.523l.005.004zm17.22-2.46a3.159 3.159 0 100 6.319 3.159 3.159 0 000-6.318zm-7.42 41.015a40.08 40.08 0 01-1.472-2.684c-.593-1.162-3.078.967-3.108-1.175-.03-2.141-1.518-3.036-1.518-3.036a13.646 13.646 0 00-4.432-21.427l.522-1.082a15.44 15.44 0 00-2.086-.822L29.914 34.25l3.482-11.183c-8.337-2.328-17.874 4.572-19.727 9.096.623-4.923 4.16-10.292 6.178-12.31a21.878 21.878 0 0115.495-6.42 21.816 21.816 0 0113.562 4.703v-.009l-.013-.021-.013-.026-.013-.03-.008-.016v-.009l-.017-.03v-.008l-.013-.021-.012-.025-.013-.03-.009-.017v-.009l-.017-.03v-.008h-.004l-.021-.046-.013-.03-.008-.021-.013-.039V17.7h-.004l-.013-.043v-.008l-.009-.03-.008-.021v-.008l-.013-.03v-.013l-.008-.017-.009-.03-.008-.03-.009-.02v-.009l-.012-.03V17.4l-.009-.017-.008-.03-.009-.03-.008-.025v-.009l-.009-.03v-.012l-.008-.017-.009-.03v-.03l-.012-.025-.009-.038v-.017l-.008-.017-.009-.03-.008-.055-.009-.05v-.018l-.008-.03v-.029l-.009-.025a5.796 5.796 0 00-.012-.098v-.03l-.009-.03v-.054l-.008-.013v-.064l-.009-.03v-.097l-.008-.008v-.608h.004v-.055h.004v-.055h.004v-.05h.005v-.04l.008-.02v-.034l.009-.021v-.034l.008-.017v-.034l.008-.017v-.009l.009-.025v-.026l.008-.025v-.025l.013-.026v-.025l.013-.026v-.025l.013-.026v-.012l.012-.038v-.013l.009-.013.008-.025v-.013l.009-.013.008-.025v-.013l.009-.013.008-.025v-.013l.009-.013.008-.025v-.013l.009-.013.008-.025v-.008l.009-.013.008-.026v-.008l.009-.017.008-.025v-.009l.008-.017.009-.025v-.009l.008-.017.009-.025v-.009l.008-.017.009-.025v-.009l.008-.017.009-.025v-.008l.008-.018.009-.025.008-.025a24.661 24.661 0 00-13.434-3.953c-3.358 0-6.56.666-9.477 1.875a24.841 24.841 0 00-8.045 5.381 24.798 24.798 0 00-5.381 8.044 24.71 24.71 0 00-1.874 9.478c0 3.358.665 6.56 1.874 9.478a24.844 24.844 0 005.381 8.044 24.702 24.702 0 0017.522 7.256c3.359 0 6.56-.666 9.478-1.875a24.84 24.84 0 008.044-5.381 24.795 24.795 0 005.382-8.044 24.71 24.71 0 001.874-9.478c0-3.358-.666-6.56-1.874-9.478a24.693 24.693 0 00-3.516-5.953l-.025.012-.03.017-.013.009-.017.008-.03.017-.03.013-.029.013-.03.012h-.004l-.025.013-.021.013h-.009l-.03.017h-.008l-.021.012-.03.013-.03.013-.03.013-.029.012-.03.013-.02.009h-.014l-.03.017h-.008l-.025.012-.026.009h-.004l-.03.012-.03.013-.029.009-.03.012h-.017l-.012.009-.03.008-.03.009-.02.008h-.01l-.033.013h-.009l-.02.009-.026.008H53.8l-.034.009h-.012l-.017.008-.034.008-.034.009h-.021l-.013.008-.034.009h-.004l-.026.008h-.025l-.008.009-.035.008h-.033l-.03.013-.034.008h-.017l-.042.009h-.013l-.03.008h-.034l-.034.009h-.034l-.025.009h-.055l-.021.008h-.068l-.017.008h-.055l-.047.009h-.53l-.021-.009h-.055l-.026-.008h-.05l-.026-.008h-.051l-.008-.009h-.017l-.077-.013h-.025l-.026-.008h-.025l-.026-.009h-.025l-.025-.008h-.026l-.025-.009h-.03l-.021-.008h-.026l-.008-.009h-.017l-.026-.008h-.025l-.025-.013h-.026l-.025-.012h-.026l-.025-.013h-.021v-.009l-.03-.008h-.021v-.009l-.026-.008-.038-.013-.025-.008h-.004l-.017-.009-.022-.008-.02-.009-.022-.008h-.013l-.013-.009-.02-.008h-.014l-.008-.009-.021-.008-.021-.009-.022-.008-.02-.009-.022-.008-.021-.009a21.878 21.878 0 016.132 15.202c0 2.965-.59 5.793-1.663 8.38-1.823 4.402-5.66 8.859-10.33 10.317l-.012.017zm-8.732-20.456c.446.738.755 1.54.95 2.379a9.97 9.97 0 01.22 2.773.812.812 0 00.768.857.812.812 0 00.857-.768 11.643 11.643 0 00-.259-3.218 9.698 9.698 0 00-1.14-2.858.814.814 0 00-1.396.835zm.78 7.548a.813.813 0 011.57.416 14.925 14.925 0 01-1.158 3.019l.72.229a11.595 11.595 0 002.124-6.704 11.582 11.582 0 00-1.81-6.242 11.532 11.532 0 00-3.15-3.278l-4.287 8.909a5.496 5.496 0 01.61 2.507 5.42 5.42 0 01-.631 2.54l4.85 1.543.043-.08c.483-.912.86-1.875 1.115-2.85l.005-.009zm15.364-29.18h.22l.022.01h.085l.046.008h.06l.017.008h.05l.026.009h.008l.056.008h.042l.013.009h.012l.039.008h.012l.026.009h.025l.038.012h.013l.026.009h.025l.025.008h.026l.025.013h.026l.025.013h.017l.051.017h.004l.026.008h.02v.009l.03.008h.022v.009l.03.008h.02v.009l.03.008.022.009.025.008.021.009.026.008.025.008.026.009.025.008.026.009.025.008.021.009.026.008h.008l.038.017.038.017h.009l.021.013a29.782 29.782 0 00-7.54-4.529 29.815 29.815 0 00-11.424-2.26c-4.05 0-7.904.806-11.424 2.26a29.88 29.88 0 00-9.694 6.488 29.925 29.925 0 00-6.488 9.694A29.815 29.815 0 005.46 35.37c0 8.248 3.342 15.712 8.748 21.118a29.927 29.927 0 009.694 6.488 29.816 29.816 0 0011.424 2.26c4.05 0 7.905-.805 11.424-2.26a29.927 29.927 0 009.694-6.488 29.926 29.926 0 006.488-9.694 29.816 29.816 0 002.26-11.424c0-8.248-3.341-15.711-8.748-21.118l-.038-.038.013.025.013.034.008.013.008.013.013.03.03.055.013.03v.008l.012.021.013.03.013.03.038.088.008.026.013.034v.013l.013.017.013.03.02.059.014.03v.008l.008.02.008.026.009.034.008.03.009.03.008.03.009.029.008.03v.012l.009.022.008.03.009.029v.021l.008.013.009.03v.008l.008.025.009.026.008.038.009.03.008.034.009.046v.017l.008.034v.013l.009.05v.039l.008.017v.013l.009.034v.034l.008.025v.055l.008.017v.102l.009.034v.063h.004v.501l-.008.042v.064l-.009.038v.08l-.008.039v.012l-.009.043v.008l-.008.047-.009.05-.008.047-.009.047v.009l-.008.042v.013l-.009.038v.017l-.008.034v.008l-.008.038-.009.039v.008l-.008.026-.009.042v.008l-.008.017-.009.034v.013l-.013.038v.009l-.012.046-.013.047-.013.047-.013.046v.009l-.017.038v.013l-.016.034v.012l-.017.03-.009.017-.008.025-.009.022-.008.02-.009.026-.008.017-.013.03v.017l-.008.008-.018.039-.016.033v.009l-.022.038-.02.047-.022.042-.021.043v.008l-.021.034v.008l-.022.03-.008.013-.017.03-.009.016-.012.026-.021.038-.013.03-.009.017v.008l-.05.072-.022.034v.009l-.03.034-.025.042-.025.038-.026.038-.021.039-.008.008-.022.03-.008.012-.021.026-.026.034-.012.02-.017.018-.018.021-.012.017-.021.026-.009.012-.021.026-.008.008-.026.03v.008l-.034.034a26.128 26.128 0 015.712 16.335c0 3.55-.708 6.933-1.989 10.025a26.35 26.35 0 01-5.69 8.515 26.214 26.214 0 01-8.516 5.69 26.128 26.128 0 01-10.024 1.99 26.12 26.12 0 01-10.025-1.99 26.35 26.35 0 01-8.515-5.69 26.214 26.214 0 01-5.69-8.515 26.127 26.127 0 01-1.99-10.025c0-3.55.709-6.933 1.99-10.025a26.348 26.348 0 015.69-8.515 26.213 26.213 0 018.515-5.69 26.128 26.128 0 0110.025-1.99 26.127 26.127 0 0114.218 4.19h.005v-.008h.008v-.009h.009v-.008h.008v-.009h.008v-.008h.009v-.009h.009v-.008h.008v-.009h.008v-.008h.009v-.009h.008v-.008h.009v-.009h.008v-.008h.009v-.009h.008v-.008h.009v-.009a4.245 4.245 0 013.002-1.242l-.017-.021z" fill="#111"/><path fill-rule="evenodd" clip-rule="evenodd" d="M25.788 38.075l.288-.602c-.072-.008-.144-.008-.216-.008a2.408 2.408 0 00-1.302.381.254.254 0 01-.352-.076.254.254 0 01.076-.352c.234-.148.488-.267.755-.343a2.986 2.986 0 011.268-.085l.284-.59a3.605 3.605 0 00-1.84.047 3.606 3.606 0 00-.92.42.502.502 0 01-.7-.153.502.502 0 01.153-.7 4.546 4.546 0 011.187-.538 4.581 4.581 0 012.574-.004l5.95-12.345a.813.813 0 011.463.709L28.498 36.2a4.58 4.58 0 011.853 3.69 4.58 4.58 0 01-1.345 3.247 4.58 4.58 0 01-3.248 1.345 4.603 4.603 0 01-3.952-2.252.506.506 0 01.178-.695.506.506 0 01.696.178c.322.543.776.98 1.306 1.285a3.588 3.588 0 004.3-.581 3.567 3.567 0 001.047-2.528 3.557 3.557 0 00-1.29-2.748l-.266.552c.046.042.097.084.14.131.53.53.856 1.26.856 2.065a2.91 2.91 0 01-.856 2.065 2.91 2.91 0 01-2.066.857 2.94 2.94 0 01-1.445-.382 2.94 2.94 0 01-1.07-1.047.256.256 0 01.09-.348.255.255 0 01.348.09c.216.364.521.66.877.864a2.418 2.418 0 002.9-.39 2.418 2.418 0 000-3.41l-.012-.012-.3.623a1.799 1.799 0 11-1.463-.704l.012-.02zm-2.332 1.98v-.088l-.009-.09c0-.207.026-.41.076-.61a2.41 2.41 0 01.23-.568.257.257 0 00-.098-.348.257.257 0 00-.348.098 2.69 2.69 0 00-.275.69 2.885 2.885 0 00-.094.738v.11l.009.111a.25.25 0 00.271.233.25.25 0 00.233-.271l.005-.004z" fill="#fff"/><path fill-rule="evenodd" clip-rule="evenodd" d="M35.457 15.486c10.902 0 19.74 8.837 19.74 19.74 0 6.288-2.939 11.89-7.523 15.503a20.026 20.026 0 003.036-10.635c0-11.115-9.01-20.126-20.126-20.126a20.063 20.063 0 00-10.635 3.036c3.613-4.58 9.215-7.523 15.504-7.523l.004.005z" fill="#FFC800" stroke="#FF0" stroke-width=".48" stroke-miterlimit="22.93"/><path d="M55.763 17.473a3.473 3.473 0 10-6.411-2.672 3.473 3.473 0 006.411 2.672zm-37.96 41.64a1.857 1.857 0 100-3.715 1.857 1.857 0 000 3.715z" fill="#fff"/><path fill-rule="evenodd" clip-rule="evenodd" d="M52.554 20.485a4.36 4.36 0 004.35-4.35 4.36 4.36 0 00-4.35-4.351 4.36 4.36 0 00-4.351 4.35 4.36 4.36 0 004.35 4.351zM17.803 59.558a2.307 2.307 0 002.302-2.302 2.307 2.307 0 00-2.302-2.303 2.307 2.307 0 00-2.303 2.303 2.307 2.307 0 002.303 2.302z" fill="#fff"/></svg>