<svg width="2997" height="2292" fill="none" xmlns="http://www.w3.org/2000/svg"><g filter="url(#filter0_f_1_3583)"><ellipse cx="1498.07" cy="1111.8" rx="1436.07" ry="1049.8" fill="#ECD3FF" fill-opacity=".5"/></g><g filter="url(#filter1_f_1_3583)"><ellipse cx="1491.17" cy="1150.43" rx="1291.22" ry="1049.8" fill="#562EA2" fill-opacity=".5"/></g><ellipse cx="1478.75" cy="1241.48" rx="1278.8" ry="1049.8" fill="url(#paint0_linear_1_3583)"/><path opacity=".5" fill-rule="evenodd" clip-rule="evenodd" d="M1897.71 375.865c-3.2 23.231-50.6 34.902-105.9 26.046-55.26-8.857-97.47-34.902-94.27-58.133 3.2-23.231 50.6-34.901 105.89-26.045 55.26 8.856 97.48 34.902 94.28 58.132zM877.313 344.468c-52.173 21.548-88.178 56.836-80.37 78.77 7.78 21.934 56.421 22.265 108.594.689 52.173-21.547 88.178-56.835 80.37-78.769-7.78-21.934-56.421-22.266-108.594-.69zm176.547 37.964c37.61-14.485 72.32-13.436 77.56 2.373 5.24 15.809-21 40.364-58.58 54.876-37.6 14.485-72.31 13.437-77.552-2.372-5.242-15.809 20.992-40.365 58.572-54.877zm84.46-115.216c-28.42 9.656-48.65 27.148-45.14 39.095 3.47 11.946 29.35 13.822 57.77 4.166 28.42-9.657 48.64-27.149 45.14-39.095-3.48-11.947-29.36-13.823-57.77-4.166zm912.18 136.709c-27.23-13.023-53.14-14.292-57.83-2.815-4.69 11.45 13.57 31.288 40.81 44.31 27.23 13.023 53.14 14.292 57.83 2.814 4.69-11.45-13.58-31.287-40.81-44.309zm-129.45 49.193c-33.64-4.194-62.11 3.862-63.63 18.016-1.51 14.126 24.53 28.997 58.14 33.191 33.63 4.194 62.1-3.863 63.62-18.016 1.52-14.126-24.53-28.998-58.13-33.191z" fill="url(#paint1_radial_1_3583)"/><path opacity=".25" fill-rule="evenodd" clip-rule="evenodd" d="M1967.15 499.357c-10.41-5.573-24.59-9.96-40.51-11.946-20.96-2.621-39.92-.469-51.59 4.966 10.4 5.573 24.58 9.96 40.5 11.947 20.97 2.621 39.93.469 51.6-4.967z" fill="url(#paint2_radial_1_3583)"/><path opacity=".25" fill-rule="evenodd" clip-rule="evenodd" d="M1892.43 386.624c-15.7-15.202-46.65-28.693-83.4-34.597-45.94-7.367-86.39-.552-100.63 15.284 15.7 15.203 46.66 28.694 83.41 34.598 45.94 7.367 86.38.552 100.62-15.285z" fill="url(#paint3_radial_1_3583)"/><path opacity=".25" fill-rule="evenodd" clip-rule="evenodd" d="M2007.29 428.644c6.95 6.015 15.92 11.864 26.18 16.775 19.32 9.243 37.94 12.526 48.81 9.574-6.95-6.015-15.92-11.864-26.18-16.775-19.32-9.243-37.94-12.526-48.81-9.574z" fill="url(#paint4_radial_1_3583)"/><path opacity=".25" fill-rule="evenodd" clip-rule="evenodd" d="M807.009 434.246c18.458 10.07 57.36 6.704 98.525-10.319 36.115-14.926 64.45-36.391 75.9-55.483-18.458-10.071-57.36-6.705-98.524 10.318-36.116 14.927-64.451 36.392-75.901 55.484z" fill="url(#paint5_radial_1_3583)"/><path opacity=".25" fill-rule="evenodd" clip-rule="evenodd" d="M1143.91 301.51c-11.76 3.973-22.05 9.325-29.88 15.036 10.26.524 23.28-1.435 36.91-6.07 11.76-3.973 22.05-9.325 29.88-15.036-10.26-.525-23.28 1.434-36.91 6.07z" fill="url(#paint6_radial_1_3583)"/><path opacity=".25" fill-rule="evenodd" clip-rule="evenodd" d="M1009.69 448.177c14.65 3.808 38.21 1.076 63.13-8.525 21.65-8.36 39.48-20.03 49.77-31.48-14.65-3.808-38.21-1.076-63.13 8.525-21.66 8.36-39.48 20.031-49.77 31.48z" fill="url(#paint7_radial_1_3583)"/><path opacity=".5" fill-rule="evenodd" clip-rule="evenodd" d="M955.199 448.178c2.538 8.746-12.471 21.603-33.522 28.749-21.051 7.146-40.199 5.849-42.737-2.897-2.538-8.746 12.47-21.603 33.522-28.749 21.051-7.145 40.199-5.849 42.737 2.897z" fill="url(#paint8_radial_1_3583)"/><path opacity=".5" fill-rule="evenodd" clip-rule="evenodd" d="M1742.78 286.28c-1.15 9.077-19.83 13.795-41.68 10.539-21.88-3.256-38.66-13.243-37.5-22.32 1.16-9.077 19.84-13.795 41.69-10.54 21.88 3.256 38.65 13.244 37.49 22.321z" fill="url(#paint9_radial_1_3583)"/><path opacity=".5" fill-rule="evenodd" clip-rule="evenodd" d="M2200.87 470.416c-4.42 7.808-23.29 4.111-42.13-8.277-18.85-12.388-30.55-28.777-26.13-36.612 4.41-7.808 23.28-4.111 42.13 8.277 18.84 12.388 30.54 28.776 26.13 36.612z" fill="url(#paint10_radial_1_3583)"/><path opacity=".5" fill-rule="evenodd" clip-rule="evenodd" d="M1794.88 295.799c-.5 3.862-8.42 5.849-17.71 4.469-9.27-1.379-16.42-5.628-15.92-9.463.49-3.863 8.41-5.849 17.71-4.47 9.27 1.38 16.42 5.629 15.92 9.464z" fill="url(#paint11_radial_1_3583)"/><path opacity=".5" fill-rule="evenodd" clip-rule="evenodd" d="M1885.23 426.715c-.49 3.862-8.41 5.849-17.71 4.469-9.27-1.379-16.41-5.628-15.92-9.463.5-3.863 8.42-5.849 17.72-4.47 9.27 1.38 16.41 5.629 15.91 9.464z" fill="url(#paint12_radial_1_3583)"/><path opacity=".5" fill-rule="evenodd" clip-rule="evenodd" d="M1973.08 339.887c-.5 3.863-8.42 5.849-17.69 4.47-9.27-1.38-16.41-5.629-15.92-9.464.5-3.862 8.42-5.849 17.69-4.469 9.27 1.379 16.42 5.628 15.92 9.463z" fill="url(#paint13_radial_1_3583)"/><path opacity=".5" fill-rule="evenodd" clip-rule="evenodd" d="M2047.02 475.272c-1.32 3.615-9.46 3.504-18.18-.248-8.69-3.752-14.68-9.712-13.35-13.326 1.32-3.614 9.46-3.504 18.18.248 8.69 3.753 14.68 9.712 13.35 13.326z" fill="url(#paint14_radial_1_3583)"/><path opacity=".5" fill-rule="evenodd" clip-rule="evenodd" d="M2027.66 371.395c-1.52 6.014-14.52 7.477-29.03 3.228-14.51-4.249-25.05-12.554-23.53-18.568 1.52-6.015 14.51-7.477 29.02-3.228 14.52 4.248 25.05 12.553 23.54 18.568z" fill="url(#paint15_radial_1_3583)"/><path opacity=".5" fill-rule="evenodd" clip-rule="evenodd" d="M1756.31 412.008c-.91 6.153-13.69 9.078-28.56 6.484-14.84-2.566-26.12-9.656-25.21-15.809.91-6.153 13.68-9.077 28.55-6.484 14.87 2.594 26.13 9.657 25.22 15.809z" fill="url(#paint16_radial_1_3583)"/><path opacity=".5" fill-rule="evenodd" clip-rule="evenodd" d="M1157.9 335.5c1.3 5.436-8.3 12.802-21.41 16.417-13.1 3.614-24.8 2.152-26.1-3.284-1.29-5.435 8.31-12.801 21.41-16.416 13.14-3.614 24.81-2.152 26.1 3.283z" fill="url(#paint17_radial_1_3583)"/><path opacity=".5" fill-rule="evenodd" clip-rule="evenodd" d="M1144.36 438.881c1.29 5.436-8.31 12.802-21.41 16.416-13.14 3.615-24.81 2.152-26.1-3.283-1.3-5.435 8.3-12.802 21.41-16.416 13.1-3.614 24.8-2.152 26.1 3.283z" fill="url(#paint18_radial_1_3583)"/><path opacity=".5" fill-rule="evenodd" clip-rule="evenodd" d="M1171.34 413.637c.8 3.393-5.16 7.973-13.35 10.236-8.17 2.262-15.45 1.352-16.25-2.042-.8-3.394 5.16-7.973 13.35-10.236 8.17-2.262 15.45-1.352 16.25 2.042z" fill="url(#paint19_radial_1_3583)"/><path opacity=".5" fill-rule="evenodd" clip-rule="evenodd" d="M1090.75 277.34c.8 3.394-5.16 7.974-13.35 10.236-8.17 2.263-15.45 1.352-16.25-2.041-.8-3.394 5.16-7.974 13.35-10.236 8.17-2.263 15.45-1.352 16.25 2.041z" fill="url(#paint20_radial_1_3583)"/><path opacity=".5" fill-rule="evenodd" clip-rule="evenodd" d="M987.26 413.637c.8 3.393-5.159 7.973-13.354 10.236-8.166 2.262-15.45 1.352-16.25-2.042-.8-3.394 5.159-7.973 13.353-10.236 8.195-2.262 15.451-1.352 16.251 2.042z" fill="url(#paint21_radial_1_3583)"/><path opacity=".5" fill-rule="evenodd" clip-rule="evenodd" d="M1271.63 321.264c2.53 8.746-12.47 21.603-33.53 28.749-21.05 7.146-40.19 5.849-42.73-2.897-2.54-8.746 12.47-21.603 33.52-28.749 21.05-7.145 40.2-5.849 42.74 2.897z" fill="url(#paint22_radial_1_3583)"/><path opacity=".5" fill-rule="evenodd" clip-rule="evenodd" d="M1303.72 286.722c.8 3.394-5.16 7.974-13.35 10.236-8.17 2.263-15.45 1.352-16.25-2.041-.8-3.394 5.16-7.974 13.32-10.236 8.17-2.263 15.46-1.352 16.26 2.041h.02z" fill="url(#paint23_radial_1_3583)"/><path opacity=".5" fill-rule="evenodd" clip-rule="evenodd" d="M992.998 303.856c.8 3.394-5.159 7.974-13.353 10.236-8.195 2.262-15.451 1.352-16.251-2.042-.8-3.393 5.159-7.973 13.354-10.236 8.166-2.262 15.45-1.352 16.25 2.042z" fill="url(#paint24_radial_1_3583)"/><defs><radialGradient id="paint1_radial_1_3583" cx="0" cy="0" r="1" gradientUnits="userSpaceOnUse" gradientTransform="matrix(646.7409 -45.90516 42.69178 601.46879 1377.7 130.597)"><stop stop-color="#462683"/><stop offset=".97" stop-color="#100928"/><stop offset="1" stop-color="#100928"/></radialGradient><radialGradient id="paint2_radial_1_3583" cx="0" cy="0" r="1" gradientUnits="userSpaceOnUse" gradientTransform="matrix(599.1776 -22.18028 20.62767 557.23533 1634.91 5.95)"><stop stop-color="#462683"/><stop offset=".97" stop-color="#100928"/><stop offset="1" stop-color="#100928"/></radialGradient><radialGradient id="paint3_radial_1_3583" cx="0" cy="0" r="1" gradientUnits="userSpaceOnUse" gradientTransform="matrix(599.1776 -22.18028 20.62767 557.23533 1634.92 24.715)"><stop stop-color="#462683"/><stop offset=".97" stop-color="#100928"/><stop offset="1" stop-color="#100928"/></radialGradient><radialGradient id="paint4_radial_1_3583" cx="0" cy="0" r="1" gradientUnits="userSpaceOnUse" gradientTransform="matrix(599.1776 -22.18028 20.62767 557.23533 1634.93 23.504)"><stop stop-color="#462683"/><stop offset=".97" stop-color="#100928"/><stop offset="1" stop-color="#100928"/></radialGradient><radialGradient id="paint5_radial_1_3583" cx="0" cy="0" r="1" gradientUnits="userSpaceOnUse" gradientTransform="rotate(-2.12 1763.981 -44163.032) scale(599.616 557.643)"><stop stop-color="#462683"/><stop offset=".97" stop-color="#100928"/><stop offset="1" stop-color="#100928"/></radialGradient><radialGradient id="paint6_radial_1_3583" cx="0" cy="0" r="1" gradientUnits="userSpaceOnUse" gradientTransform="matrix(599.1776 -22.18028 20.62767 557.23533 1634.92 63.532)"><stop stop-color="#462683"/><stop offset=".97" stop-color="#100928"/><stop offset="1" stop-color="#100928"/></radialGradient><radialGradient id="paint7_radial_1_3583" cx="0" cy="0" r="1" gradientUnits="userSpaceOnUse" gradientTransform="rotate(-2.12 1829.396 -44162.092) scale(599.616 557.643)"><stop stop-color="#462683"/><stop offset=".97" stop-color="#100928"/><stop offset="1" stop-color="#100928"/></radialGradient><radialGradient id="paint8_radial_1_3583" cx="0" cy="0" r="1" gradientUnits="userSpaceOnUse" gradientTransform="rotate(-31.68 1070.545 -1416.982) scale(182.95 170.144)"><stop stop-color="#462683"/><stop offset=".97" stop-color="#100928"/><stop offset="1" stop-color="#100928"/></radialGradient><radialGradient id="paint9_radial_1_3583" cx="0" cy="0" r="1" gradientUnits="userSpaceOnUse" gradientTransform="rotate(-31.68 1088.917 -2792.7) scale(185.682 172.684)"><stop stop-color="#462683"/><stop offset=".97" stop-color="#100928"/><stop offset="1" stop-color="#100928"/></radialGradient><radialGradient id="paint10_radial_1_3583" cx="0" cy="0" r="1" gradientUnits="userSpaceOnUse" gradientTransform="matrix(162.75695 -100.44227 93.41124 151.36384 2007.4 319.257)"><stop stop-color="#462683"/><stop offset=".97" stop-color="#100928"/><stop offset="1" stop-color="#100928"/></radialGradient><radialGradient id="paint11_radial_1_3583" cx="0" cy="0" r="1" gradientUnits="userSpaceOnUse" gradientTransform="matrix(67.07955 -41.39684 38.49903 62.38394 1747.476 241.993)"><stop stop-color="#462683"/><stop offset=".97" stop-color="#100928"/><stop offset="1" stop-color="#100928"/></radialGradient><radialGradient id="paint12_radial_1_3583" cx="0" cy="0" r="1" gradientUnits="userSpaceOnUse" gradientTransform="matrix(67.07957 -41.397 38.4993 62.38413 1838.07 373.215)"><stop stop-color="#462683"/><stop offset=".97" stop-color="#100928"/><stop offset="1" stop-color="#100928"/></radialGradient><radialGradient id="paint13_radial_1_3583" cx="0" cy="0" r="1" gradientUnits="userSpaceOnUse" gradientTransform="matrix(67.0564 -41.38255 38.48574 62.3624 1925.74 286.159)"><stop stop-color="#462683"/><stop offset=".97" stop-color="#100928"/><stop offset="1" stop-color="#100928"/></radialGradient><radialGradient id="paint14_radial_1_3583" cx="0" cy="0" r="1" gradientUnits="userSpaceOnUse" gradientTransform="rotate(-31.68 1708.61 -3278.829) scale(80.1492 74.5387)"><stop stop-color="#462683"/><stop offset=".97" stop-color="#100928"/><stop offset="1" stop-color="#100928"/></radialGradient><radialGradient id="paint15_radial_1_3583" cx="0" cy="0" r="1" gradientUnits="userSpaceOnUse" gradientTransform="rotate(-31.68 1437.091 -3267.388) scale(127.549 118.621)"><stop stop-color="#462683"/><stop offset=".97" stop-color="#100928"/><stop offset="1" stop-color="#100928"/></radialGradient><radialGradient id="paint16_radial_1_3583" cx="0" cy="0" r="1" gradientUnits="userSpaceOnUse" gradientTransform="rotate(-31.68 1403.26 -2792.855) scale(126.639 117.774)"><stop stop-color="#462683"/><stop offset=".97" stop-color="#100928"/><stop offset="1" stop-color="#100928"/></radialGradient><radialGradient id="paint17_radial_1_3583" cx="0" cy="0" r="1" gradientUnits="userSpaceOnUse" gradientTransform="matrix(95.55987 -58.97291 54.84451 88.8702 1123.06 281.999)"><stop stop-color="#462683"/><stop offset=".97" stop-color="#100928"/><stop offset="1" stop-color="#100928"/></radialGradient><radialGradient id="paint18_radial_1_3583" cx="0" cy="0" r="1" gradientUnits="userSpaceOnUse" gradientTransform="matrix(95.55987 -58.97291 54.84451 88.8702 1109.68 385.623)"><stop stop-color="#462683"/><stop offset=".97" stop-color="#100928"/><stop offset="1" stop-color="#100928"/></radialGradient><radialGradient id="paint19_radial_1_3583" cx="0" cy="0" r="1" gradientUnits="userSpaceOnUse" gradientTransform="rotate(-31.68 1247.607 -1836.558) scale(69.9409 65.045)"><stop stop-color="#462683"/><stop offset=".97" stop-color="#100928"/><stop offset="1" stop-color="#100928"/></radialGradient><radialGradient id="paint20_radial_1_3583" cx="0" cy="0" r="1" gradientUnits="userSpaceOnUse" gradientTransform="rotate(-31.68 966.418 -1762.446) scale(69.9409 65.045)"><stop stop-color="#462683"/><stop offset=".97" stop-color="#100928"/><stop offset="1" stop-color="#100928"/></radialGradient><radialGradient id="paint21_radial_1_3583" cx="0" cy="0" r="1" gradientUnits="userSpaceOnUse" gradientTransform="rotate(-31.68 1155.567 -1512.165) scale(69.9409 65.045)"><stop stop-color="#462683"/><stop offset=".97" stop-color="#100928"/><stop offset="1" stop-color="#100928"/></radialGradient><radialGradient id="paint22_radial_1_3583" cx="0" cy="0" r="1" gradientUnits="userSpaceOnUse" gradientTransform="rotate(-31.68 1004.484 -2037.887) scale(182.95 170.144)"><stop stop-color="#462683"/><stop offset=".97" stop-color="#100928"/><stop offset="1" stop-color="#100928"/></radialGradient><radialGradient id="paint23_radial_1_3583" cx="0" cy="0" r="1" gradientUnits="userSpaceOnUse" gradientTransform="rotate(-31.68 1089.496 -2133.144) scale(69.9409 65.045)"><stop stop-color="#462683"/><stop offset=".97" stop-color="#100928"/><stop offset="1" stop-color="#100928"/></radialGradient><radialGradient id="paint24_radial_1_3583" cx="0" cy="0" r="1" gradientUnits="userSpaceOnUse" gradientTransform="matrix(59.51926 -36.73129 34.16013 55.35296 971.872 271.502)"><stop stop-color="#462683"/><stop offset=".97" stop-color="#100928"/><stop offset="1" stop-color="#100928"/></radialGradient><filter id="filter0_f_1_3583" x="0" y="0" width="2996.13" height="2223.61" filterUnits="userSpaceOnUse" color-interpolation-filters="sRGB"><feFlood flood-opacity="0" result="BackgroundImageFix"/><feBlend in="SourceGraphic" in2="BackgroundImageFix" result="shape"/><feGaussianBlur stdDeviation="31" result="effect1_foregroundBlur_1_3583"/></filter><filter id="filter1_f_1_3583" x="162.951" y="63.626" width="2656.43" height="2173.61" filterUnits="userSpaceOnUse" color-interpolation-filters="sRGB"><feFlood flood-opacity="0" result="BackgroundImageFix"/><feBlend in="SourceGraphic" in2="BackgroundImageFix" result="shape"/><feGaussianBlur stdDeviation="18.5" result="effect1_foregroundBlur_1_3583"/></filter><linearGradient id="paint0_linear_1_3583" x1="1478.75" y1="191.673" x2="1478.75" y2="2291.28" gradientUnits="userSpaceOnUse"><stop stop-color="#935AE2"/><stop offset="1" stop-color="#fff" stop-opacity="0"/></linearGradient></defs></svg>