<svg width="20" height="20" fill="none" xmlns="http://www.w3.org/2000/svg"><path d="M10.337 18c2.036 0 3.988-.843 5.427-2.343 1.44-1.5 2.248-3.535 2.248-5.657s-.808-4.157-2.248-5.657C14.324 2.843 12.373 2 10.337 2 8.3 2 6.349 2.843 4.909 4.343S2.661 7.878 2.661 10s.809 4.157 2.248 5.657C6.35 17.157 8.301 18 10.337 18zm0 2c-5.3 0-9.595-4.477-9.595-10S5.038 0 10.337 0s9.594 4.477 9.594 10-4.295 10-9.594 10z" fill="#000"/><path fill-rule="evenodd" clip-rule="evenodd" d="M8.137 9.293a.96.96 0 00-.312-.224.926.926 0 00-1.057.212c-.09.093-.161.205-.21.328a1.037 1.037 0 00.222 1.098l1.919 2a.94.94 0 00.678.293.94.94 0 00.679-.293l3.838-4a1.036 1.036 0 00.012-1.426.926.926 0 00-1.369.012l-3.16 3.293-1.24-1.293z" fill="#000"/></svg>