<svg width="20" height="20" fill="none" xmlns="http://www.w3.org/2000/svg"><path d="M19.068 9.534A9.53 9.53 0 009.534 0 9.53 9.53 0 000 9.534c0 4.76 3.489 8.7 8.051 9.421v-6.652h-2.43V9.547h2.416V7.444c0-2.387 1.426-3.715 3.602-3.715 1.045 0 2.132.183 2.132.183v2.345h-1.2c-1.187 0-1.554.735-1.554 1.483v1.794h2.641l-.423 2.754h-2.218v6.667a9.533 9.533 0 008.051-9.42z" fill="#101010"/><path d="M13.235 12.303l.423-2.755h-2.641V7.754c0-.748.367-1.483 1.554-1.483h1.2V3.927s-1.087-.184-2.133-.184c-2.175 0-3.601 1.314-3.601 3.715v2.104H5.62v2.74h2.416v6.667c.48.07.988.113 1.483.113.494 0 1.003-.042 1.483-.113v-6.667h2.232z" fill="#fff"/></svg>