<svg width="27" height="27" fill="none" xmlns="http://www.w3.org/2000/svg"><path d="M13.34 26.746c7.369 0 13.342-5.973 13.342-13.34C26.682 6.037 20.709.065 13.34.065 5.973.065 0 6.038 0 13.405c0 7.368 5.973 13.341 13.34 13.341z" fill="#101010"/><path d="M13.34 6.528c2.234 0 2.51 0 3.4.04.81.039 1.265.177 1.562.296.395.158.672.336.968.632.296.296.474.573.632.968.119.297.257.732.297 1.562.04.89.04 1.146.04 3.4 0 2.233 0 2.51-.04 3.399-.04.81-.178 1.265-.297 1.561a2.656 2.656 0 01-.632.969 2.656 2.656 0 01-.968.632c-.297.119-.732.257-1.562.297-.89.039-1.146.039-3.4.039-2.233 0-2.51 0-3.399-.04-.81-.04-1.265-.177-1.561-.296a2.657 2.657 0 01-.969-.632 2.656 2.656 0 01-.632-.969c-.119-.296-.257-.731-.296-1.561-.04-.89-.04-1.147-.04-3.4 0-2.233 0-2.51.04-3.4.04-.81.177-1.264.296-1.56.158-.396.336-.673.632-.969a2.67 2.67 0 01.969-.632c.296-.119.731-.257 1.561-.297.89-.04 1.166-.04 3.4-.04zm0-1.522c-2.272 0-2.569 0-3.458.059-.89.04-1.502.178-2.036.395-.553.218-1.027.494-1.482.969a4.09 4.09 0 00-.969 1.482C5.178 8.445 5.04 9.057 5 9.947c-.04.89-.06 1.186-.06 3.459 0 2.272 0 2.569.06 3.458.04.89.178 1.502.395 2.036.218.553.495 1.028.969 1.482a4.09 4.09 0 001.482.969c.534.217 1.147.355 2.036.395.89.04 1.186.06 3.459.06s2.569 0 3.458-.06c.89-.04 1.503-.178 2.036-.395.553-.218 1.028-.494 1.482-.969a4.09 4.09 0 00.969-1.482c.217-.534.356-1.146.395-2.036.04-.89.06-1.186.06-3.459 0-2.272 0-2.569-.06-3.458-.04-.89-.178-1.502-.395-2.036-.218-.553-.494-1.028-.969-1.482a4.09 4.09 0 00-1.482-.969c-.534-.217-1.146-.355-2.036-.395-.889-.04-1.185-.06-3.458-.06z" fill="#fff"/><path d="M13.34 9.097a4.306 4.306 0 00-4.308 4.308 4.306 4.306 0 004.309 4.309 4.306 4.306 0 004.308-4.309 4.306 4.306 0 00-4.308-4.308zm0 7.115a2.805 2.805 0 01-2.806-2.807 2.792 2.792 0 012.807-2.806 2.792 2.792 0 012.806 2.806 2.805 2.805 0 01-2.806 2.807zm4.487-6.265a1.008 1.008 0 100-2.016 1.008 1.008 0 000 2.016z" fill="#fff"/></svg>