<svg width="34" height="33" fill="none" xmlns="http://www.w3.org/2000/svg"><path d="M12.185.9c3.365 0 6.411 1.364 8.616 3.569a12.148 12.148 0 013.57 8.616c0 3.365-1.365 6.411-3.57 8.616a12.147 12.147 0 01-8.616 3.57 12.15 12.15 0 01-8.616-3.57A12.147 12.147 0 010 13.085 12.14 12.14 0 013.57 4.47 12.147 12.147 0 0112.185.9zm6.163 6.022a8.69 8.69 0 00-6.163-2.553 8.689 8.689 0 00-6.163 2.553 8.689 8.689 0 00-2.553 6.163c0 2.407.976 4.586 2.553 6.163a8.689 8.689 0 006.163 2.553 8.689 8.689 0 006.163-2.553 8.689 8.689 0 002.553-6.163 8.69 8.69 0 00-2.553-6.163z" fill="#fff"/><path d="M33.402 29.192a1.73 1.73 0 01-2.263 2.615L18.951 21.234a1.73 1.73 0 012.263-2.615l12.188 10.573z" fill="#fff"/></svg>