<svg width="27" height="28" fill="none" xmlns="http://www.w3.org/2000/svg"><path d="M13.34 27.11c7.369 0 13.342-5.973 13.342-13.341C26.682 6.4 20.709.428 13.34.428 5.973.428 0 6.401 0 13.768c0 7.37 5.973 13.342 13.34 13.342z" fill="#101010"/><path fill-rule="evenodd" clip-rule="evenodd" d="M13.34 3.887c-5.454 0-9.881 4.427-9.881 9.882s4.427 9.882 9.882 9.882c5.435 0 9.882-4.427 9.882-9.882s-4.427-9.882-9.882-9.882zm6.543 4.565c1.186 1.443 1.877 3.261 1.917 5.257-.277-.059-3.064-.612-5.87-.276-.06-.139-.119-.297-.178-.435a23.01 23.01 0 00-.553-1.225c3.083-1.265 4.486-3.084 4.684-3.32zM13.34 5.35c2.134 0 4.11.81 5.593 2.115-.158.217-1.423 1.917-4.427 3.044-1.384-2.55-2.925-4.625-3.143-4.941a9.317 9.317 0 011.977-.218zm-3.577.79a55.08 55.08 0 013.122 4.882C8.933 12.07 5.455 12.05 5.08 12.05a8.52 8.52 0 014.685-5.91zm-4.862 7.65v-.258c.355.02 4.466.06 8.676-1.205.237.474.474.949.692 1.443-.1.04-.218.059-.336.098-4.348 1.404-6.66 5.238-6.858 5.554a8.402 8.402 0 01-2.174-5.632zm8.439 8.439a8.416 8.416 0 01-5.178-1.779c.158-.316 1.857-3.617 6.62-5.277.02-.02.04-.02.06-.02 1.186 3.083 1.68 5.653 1.798 6.404a8.348 8.348 0 01-3.3.672zm4.704-1.463c-.08-.514-.534-2.984-1.64-6.008 2.648-.415 4.96.277 5.256.356-.355 2.352-1.719 4.387-3.616 5.652z" fill="#fff"/></svg>