<svg width="20" height="20" fill="none" xmlns="http://www.w3.org/2000/svg"><path d="M9.67 19.068A9.534 9.534 0 109.67 0a9.534 9.534 0 000 19.068z" fill="#101010"/><path d="M14.317 5.65c-.042-.113-.085-.141-.141-.155-.155-.057-.396.028-.396.028s-8.912 3.206-9.42 3.56c-.114.07-.142.126-.17.169-.085.254.183.367.183.367l2.303.748s.085.015.113 0c.522-.324 5.254-3.319 5.523-3.418.042-.014.07 0 .07.029-.113.381-4.223 4.04-4.223 4.04s-.014.013-.028.042l-.212 2.274s-.085.692.607 0c.494-.495.975-.904 1.2-1.102.792.55 1.64 1.144 2.006 1.469a.682.682 0 00.466.183c.354-.014.452-.395.452-.395s1.625-6.54 1.681-7.415c0-.085.014-.142.014-.198-.014-.099-.014-.184-.028-.226z" fill="#fff"/></svg>