<svg width="55" height="54" fill="none" xmlns="http://www.w3.org/2000/svg"><path d="M27.5 48.638c-5.105 0-10.002-1.978-13.612-5.498-3.61-3.52-5.638-8.293-5.638-13.271 0-4.978 2.028-9.752 5.638-13.271 3.61-3.52 8.507-5.498 13.612-5.498s10.002 1.978 13.612 5.498c3.61 3.52 5.638 8.293 5.638 13.27 0 4.979-2.028 9.753-5.638 13.272-3.61 3.52-8.507 5.498-13.612 5.498zm0-42.9c-6.564 0-12.86 2.542-17.5 7.068-4.642 4.525-7.25 10.663-7.25 17.063 0 6.4 2.608 12.538 7.25 17.063C14.64 51.458 20.935 54 27.5 54s12.86-2.542 17.5-7.068c4.642-4.525 7.25-10.663 7.25-17.063 0-6.4-2.608-12.538-7.25-17.063-4.64-4.526-10.936-7.068-17.5-7.068zm1.375 10.725H24.75V32.55l13.063 7.642 2.062-3.298-11-6.355V16.463zM16.17 4.103L12.65 0 0 10.323l3.547 4.102L16.17 4.102zM55 10.35L42.35 0l-3.547 4.102 12.65 10.35L55 10.35z" fill="var(--color-primary)"/></svg>