<svg width="20" height="20" fill="none" xmlns="http://www.w3.org/2000/svg"><path d="M9.602 19.068a9.534 9.534 0 009.534-9.534 9.534 9.534 0 10-19.068 0 9.534 9.534 0 009.534 9.534z" fill="#101010"/><path d="M7.681 15.028c4.661 0 7.204-3.856 7.204-7.203 0-.113 0-.212-.014-.325a5.058 5.058 0 001.257-1.314 5.04 5.04 0 01-1.455.396 2.56 2.56 0 001.116-1.398 5.298 5.298 0 01-1.61.621A2.526 2.526 0 0012.329 5 2.526 2.526 0 009.8 7.528c0 .198.028.396.07.58a7.158 7.158 0 01-5.21-2.643 2.533 2.533 0 00.791 3.376 2.607 2.607 0 01-1.144-.31v.027c0 1.23.875 2.246 2.034 2.486a2.646 2.646 0 01-1.144.042 2.525 2.525 0 002.358 1.752 5.094 5.094 0 01-3.15 1.088c-.197 0-.41-.014-.607-.028a7.151 7.151 0 003.884 1.13z" fill="#fff"/></svg>