<?xml version="1.0" standalone="no"?>
<!DOCTYPE svg PUBLIC "-//W3C//DTD SVG 20010904//EN"
 "http://www.w3.org/TR/2001/REC-SVG-20010904/DTD/svg10.dtd">
<svg version="1.0" xmlns="http://www.w3.org/2000/svg"
 width="260.000000pt" height="260.000000pt" viewBox="0 0 260.000000 260.000000"
 preserveAspectRatio="xMidYMid meet">
<metadata>
Created by potrace 1.14, written by Peter Selinger 2001-2017
</metadata>
<g transform="translate(0.000000,260.000000) scale(0.100000,-0.100000)"
fill="#000000" stroke="none">
<path d="M555 2589 c-278 -36 -472 -206 -533 -469 -15 -68 -17 -148 -17 -820
0 -672 2 -752 17 -820 55 -234 224 -403 458 -458 68 -15 148 -17 820 -17 672
0 752 2 820 17 234 55 403 224 458 458 15 68 17 148 17 820 0 672 -2 752 -17
820 -54 232 -222 402 -453 457 -61 15 -157 17 -785 19 -393 1 -746 -2 -785 -7z
m1009 -297 c89 -25 242 -94 312 -143 68 -46 196 -171 251 -243 58 -77 136
-239 165 -342 19 -68 22 -104 22 -264 0 -214 -12 -276 -88 -435 -56 -118 -92
-170 -185 -268 -100 -104 -176 -160 -297 -219 -166 -79 -227 -92 -444 -92
-214 0 -276 12 -435 88 -118 56 -170 92 -267 184 -102 97 -168 187 -223 305
-77 161 -89 222 -89 437 0 214 12 276 88 435 56 118 92 170 185 268 150 157
311 250 516 298 114 26 375 21 489 -9z"/>
<path d="M1150 1995 c-272 -76 -465 -267 -540 -536 -88 -319 111 -685 445
-817 176 -70 314 -70 490 0 128 50 202 107 320 243 42 48 114 206 131 286 29
135 8 289 -59 429 -90 189 -278 340 -495 396 -64 17 -230 16 -292 -1z"/>
</g>
</svg>
