<svg width="478" height="183" fill="none" xmlns="http://www.w3.org/2000/svg"><g filter="url(#filter0_bi_346_16213)"><path fill-rule="evenodd" clip-rule="evenodd" d="M27 183c-14.912 0-27-12.088-27-27V27C0 12.088 12.088 0 27 0h424c14.912 0 27 12.088 27 27v129c0 14.912-12.088 27-27 27h-93.226c-5.64 0-10.168-4.424-12.604-9.51C340.499 163.736 330.536 157 319 157H159c-11.536 0-21.499 6.736-26.17 16.49-2.436 5.086-6.964 9.51-12.604 9.51H27z" fill="#fff" fill-opacity=".22"/></g><defs><filter id="filter0_bi_346_16213" x="-38" y="-38" width="554" height="259" filterUnits="userSpaceOnUse" color-interpolation-filters="sRGB"><feFlood flood-opacity="0" result="BackgroundImageFix"/><feGaussianBlur in="BackgroundImage" stdDeviation="19"/><feComposite in2="SourceAlpha" operator="in" result="effect1_backgroundBlur_346_16213"/><feBlend in="SourceGraphic" in2="effect1_backgroundBlur_346_16213" result="shape"/><feColorMatrix in="SourceAlpha" values="0 0 0 0 0 0 0 0 0 0 0 0 0 0 0 0 0 0 127 0" result="hardAlpha"/><feOffset dy="4"/><feGaussianBlur stdDeviation="16"/><feComposite in2="hardAlpha" operator="arithmetic" k2="-1" k3="1"/><feColorMatrix values="0 0 0 0 1 0 0 0 0 1 0 0 0 0 1 0 0 0 0.15 0"/><feBlend in2="shape" result="effect2_innerShadow_346_16213"/></filter></defs></svg>