<svg width="478" height="436" fill="none" xmlns="http://www.w3.org/2000/svg"><g filter="url(#filter0_bi_336_18538)"><path fill-rule="evenodd" clip-rule="evenodd" d="M27 0C12.088 0 0 12.088 0 27v382c0 14.912 12.088 27 27 27h34.385c7.437 0 13.44-5.776 17.474-12.023C84.29 415.567 93.745 410 104.5 410h270c10.755 0 20.21 5.567 25.641 13.977 4.034 6.247 10.038 12.023 17.474 12.023H451c14.912 0 27-12.088 27-27V27c0-14.912-12.088-27-27-27H27z" fill="#fff" fill-opacity=".22"/></g><defs><filter id="filter0_bi_336_18538" x="-38" y="-38" width="554" height="512" filterUnits="userSpaceOnUse" color-interpolation-filters="sRGB"><feFlood flood-opacity="0" result="BackgroundImageFix"/><feGaussianBlur in="BackgroundImage" stdDeviation="19"/><feComposite in2="SourceAlpha" operator="in" result="effect1_backgroundBlur_336_18538"/><feBlend in="SourceGraphic" in2="effect1_backgroundBlur_336_18538" result="shape"/><feColorMatrix in="SourceAlpha" values="0 0 0 0 0 0 0 0 0 0 0 0 0 0 0 0 0 0 127 0" result="hardAlpha"/><feOffset dy="4"/><feGaussianBlur stdDeviation="16"/><feComposite in2="hardAlpha" operator="arithmetic" k2="-1" k3="1"/><feColorMatrix values="0 0 0 0 1 0 0 0 0 1 0 0 0 0 1 0 0 0 0.15 0"/><feBlend in2="shape" result="effect2_innerShadow_336_18538"/></filter></defs></svg>