<svg width="478" height="293" fill="none" xmlns="http://www.w3.org/2000/svg"><g filter="url(#filter0_bi_346_16136)"><path fill-rule="evenodd" clip-rule="evenodd" d="M170.439 8.71C167.907 3.997 163.525 0 158.176 0H27C12.088 0 0 12.088 0 27v239c0 14.912 12.088 27 27 27h424c14.912 0 27-12.088 27-27V27c0-14.912-12.088-27-27-27H320.824c-5.349 0-9.731 3.998-12.263 8.71C303.669 17.811 294.057 24 283 24h-87c-11.057 0-20.669-6.188-25.561-15.29z" fill="#fff" fill-opacity=".22"/></g><defs><filter id="filter0_bi_346_16136" x="-38" y="-38" width="554" height="369" filterUnits="userSpaceOnUse" color-interpolation-filters="sRGB"><feFlood flood-opacity="0" result="BackgroundImageFix"/><feGaussianBlur in="BackgroundImage" stdDeviation="19"/><feComposite in2="SourceAlpha" operator="in" result="effect1_backgroundBlur_346_16136"/><feBlend in="SourceGraphic" in2="effect1_backgroundBlur_346_16136" result="shape"/><feColorMatrix in="SourceAlpha" values="0 0 0 0 0 0 0 0 0 0 0 0 0 0 0 0 0 0 127 0" result="hardAlpha"/><feOffset dy="4"/><feGaussianBlur stdDeviation="16"/><feComposite in2="hardAlpha" operator="arithmetic" k2="-1" k3="1"/><feColorMatrix values="0 0 0 0 1 0 0 0 0 1 0 0 0 0 1 0 0 0 0.15 0"/><feBlend in2="shape" result="effect2_innerShadow_346_16136"/></filter></defs></svg>