<svg width="419" height="151" fill="none" xmlns="http://www.w3.org/2000/svg"><path d="M78.074 87.762a1.14 1.14 0 01-.535.939 1.149 1.149 0 01-1.08.076 22.847 22.847 0 00-11.093-2.448c-8.978 0-15.033-5.428-15.033-13.578 0-9.44 7.573-14.158 16.922-14.158h1.986c6.265 0 8.865 2.593 8.865 8.504l-.032 20.665zm-5.797-40.976h-6.863c-17.39 0-29.936 8.86-29.936 24.16 0 11.807 6.459 19.329 16.567 22.904l-10.173 13.337-.662.789-.888 1.015a15.922 15.922 0 01-3.052 2.512 7.992 7.992 0 01-5.328.467c-2.31-.499-4.053-1.369-4.521.097-.84 2.609 1.905 8.053 3.552 10.469a6.46 6.46 0 005.57 2.384c7.8 0 13.16-1.723 22.316-16.348.097-.161.194-.322.306-.483l1.082-1.772 5.636-8.182 4.343 1.256a10.899 10.899 0 015.663 3.908 10.85 10.85 0 012.185 6.513v13.465c12.19 0 14.08 0 14.08-7.087V66.26c0-14.046-5.442-19.474-19.877-19.474zm279.44 12.757h10.867c7.105 0 9.947 2.706 9.947 9.438v54.296c12.174 0 14.08 0 14.08-7.087V67.42c0-14.884-4.618-20.666-20.119-20.666h-25.173c-2.18 0-4.958-.225-7.606-.322a2.183 2.183 0 00-2.179 1.61c-.84 2.835-3.553 10.228-1.615 12.145 1.388 1.402 3.439-1.014 7.799-1.014l.177.402a210.964 210.964 0 01-5.861 39.848 24.737 24.737 0 01-.468 1.611l-1.26 3.221-.387.999c-1.744 4.977-4.069 7.312-7.089 7.006-2.664-.225-4.117-2.963-4.925-1.949-1.76 2.062-1.711 8.054-1.533 11.001.048.473.245.918.56 1.273a2.28 2.28 0 001.2.709l.355.096c3.172.743 6.448.944 9.688.596a5.666 5.666 0 001.615-.241c8.073-1.208 13.256-7.329 15.468-18.765 4.086-21.164 6.459-45.437 6.459-45.437zM250.088 94.608c5.102-14.271 9.543-25.24 12.627-31.521a311.162 311.162 0 0112.53 32.793.836.836 0 01-.777 1.12.842.842 0 01-.499-.154 21.025 21.025 0 00-12.385-4.171 19.41 19.41 0 00-10.285 2.963.859.859 0 01-1.227-.528.852.852 0 01.016-.502zm-9.333 28.67c3.471 0 0-1.788 2.793-6.669 2.584-4.284 8.187-11.87 18.036-11.87 9.559 0 16.018 8.053 19.022 12.337 2.357 4.526-.808 6.202 2.551 6.202h16.228a778.16 778.16 0 00-29.921-77.941c-.985-2.013-19.005 0-16.518 3.898 1.954 3.366-1.437 8.585-3.343 12.37-9.462 18.168-16.889 38.173-24.591 61.673h15.856-.113zm-52.446-48.659v48.658c12.304 0 13.37 0 13.37-8.053V46.786c-6.459.242-13.257 1.063-19.053 3.785a507.67 507.67 0 01-21.347 48.627 485.993 485.993 0 01-22.315-52.412c-6.039.355-13.127 1.305-18.456 3.673v72.818h13.322V74.732a.923.923 0 011.776-.322c5.651 14.383 12.191 28.637 18.827 41.555a42.451 42.451 0 0013.596-2.481 395.674 395.674 0 0018.504-39.187.918.918 0 011.021-.566.923.923 0 01.537.31.912.912 0 01.218.578zM291.163 2.156c-.258 1.192-.581 7.506-4.198 11.404-.565.596-2.729 2.351-3.31 2.094-1.809-.774-2.616-5.412-2.81-7.796a16.853 16.853 0 01.694-7.65c-4.844-1.193-14.532 3.011-17.035 6.152a59.344 59.344 0 015.377 4.204c1.2 1.29 2.226 2.73 3.052 4.284.711 1.192 2.083 4.14.775 4.687a25.552 25.552 0 01-11.448 1.997 25.566 25.566 0 01-11.464-1.997c-1.292-.547 0-3.495.775-4.687a20.92 20.92 0 013.068-4.284 57.151 57.151 0 015.377-4.124C257.513 3.22 247.873-.985 242.98.207a17.28 17.28 0 01.695 7.65c-.194 2.385-1.001 7.023-2.81 7.797-.581.257-2.745-1.498-3.31-2.094-3.617-3.898-3.956-10.212-4.198-11.404-5.28 1.289-11.82 9.664-12.514 16.204 11.981 0 15.097 14.302 41.417 14.302s29.371-14.302 41.417-14.302c-.694-6.443-7.234-14.915-12.514-16.204z" fill="#fff"/><mask id="a" style="mask-type:alpha" maskUnits="userSpaceOnUse" x="0" y="18" width="419" height="133"><rect x="3.408" y="22.019" width="411.695" height="125.417" rx="19.767" stroke="#000" stroke-width="6.816"/></mask><g mask="url(#a)" fill="#fff"><path d="M-6.816.889h216.753v163.587H-6.816V.889zM316.269-.475h216.753v163.588H316.269V-.475z"/><path d="M163.587 49.965h216.754v163.587H163.587V49.965z"/></g></svg>