<?xml version="1.0" encoding="utf-8"?><svg viewBox="0 0 26 26" xmlns="http://www.w3.org/2000/svg" xmlns:xlink="http://www.w3.org/1999/xlink"><style>:root>svg{display:none}:root>svg:target{display:block}</style><svg fill="none" viewBox="0 0 10 6" id="arrow" xmlns="http://www.w3.org/2000/svg"><path d="M1 1l4 4 4-4" stroke="#B5B5B5" stroke-width="2" stroke-linecap="round" stroke-linejoin="round"/></svg><svg fill="inherit" viewBox="0 0 24 24" id="fb" xmlns="http://www.w3.org/2000/svg"><path d="M13.488 11.834h-.5V20.5h-2.53v-8.666H7.5V9.456h2.958V6.463c0-1.34.411-2.316 1.07-2.958.66-.643 1.623-1.005 2.831-1.005.875 0 1.657.043 2.141.082v2.079h-1.313c-.776 0-1.38.178-1.764.627-.37.432-.435 1.002-.435 1.514v2.654h3.32l-.31 2.378h-2.51z" stroke="inherit"/></svg><svg fill="inherit" viewBox="0 0 24 24" id="google" xmlns="http://www.w3.org/2000/svg"><g clip-path="url(#cclip0_1406_1885)"><path d="M17.812 12a5.809 5.809 0 01-11.275 1.97l-3.324 2.66A9.933 9.933 0 0021.937 12"/><path d="M17.812 12a5.804 5.804 0 01-2.439 4.724l3.287 2.63A9.903 9.903 0 0021.937 12M6.188 12c0-.672.12-1.338.35-1.97L3.214 7.372a9.883 9.883 0 000 9.258l3.324-2.66A5.773 5.773 0 016.188 12z"/><path d="M12 6.188c1.23 0 2.427.393 3.418 1.121l3.045-2.842a9.911 9.911 0 00-15.25 2.904l3.324 2.66A5.817 5.817 0 0112 6.188zM21.938 11.25V12l-1.688 2.625h-7.875V10.5h8.813a.75.75 0 01.75.75z"/></g><defs><clipPath id="cclip0_1406_1885"><path fill="#fff" d="M0 0h24v24H0z"/></clipPath></defs></svg><svg viewBox="0 0 26 26" id="icons-info" xmlns="http://www.w3.org/2000/svg"><path d="M13 1.188C6.477 1.188 1.187 6.476 1.187 13S6.478 24.813 13 24.813c6.523 0 11.813-5.29 11.813-11.813 0-6.523-5.29-11.813-11.813-11.813zm2.46 18.308c-.608.238-1.093.422-1.456.547a3.864 3.864 0 01-1.262.187c-.734 0-1.308-.18-1.719-.539-.406-.355-.609-.812-.609-1.367 0-.215.016-.433.047-.656.027-.227.078-.477.144-.762l.762-2.687c.067-.258.125-.5.172-.73.047-.231.066-.442.066-.634 0-.34-.07-.582-.21-.714-.145-.137-.415-.204-.813-.204a2.23 2.23 0 00-.605.09 9.443 9.443 0 00-.532.176l.203-.828c.497-.203.973-.375 1.43-.52a4.27 4.27 0 011.29-.218c.73 0 1.296.18 1.69.531.395.352.594.812.594 1.375 0 .117-.011.324-.039.617a4.225 4.225 0 01-.152.813l-.758 2.68c-.062.214-.117.46-.168.734a4.05 4.05 0 00-.07.625c0 .355.078.601.238.73.156.13.434.192.828.192.184 0 .39-.032.625-.094a3.59 3.59 0 00.504-.172zm-.136-10.879a1.802 1.802 0 01-1.273.492c-.496 0-.926-.164-1.281-.492a1.563 1.563 0 01-.532-1.191c0-.465.18-.867.532-1.2a1.813 1.813 0 011.28-.496c.497 0 .923.165 1.274.497.356.332.531.734.531 1.199 0 .465-.175.863-.53 1.191z"/></svg><svg fill="inherit" viewBox="0 0 22 20" id="in" xmlns="http://www.w3.org/2000/svg"><path d="M20.748 10.942v8.114H17.43v-6.642c0-1.176-.36-2.094-.954-2.716a2.86 2.86 0 00-2.171-.883c-1.59.05-3.094 1.36-3.094 3.6v6.64H7.909V6.453h3.3v1.332l.939.241c.383-.697 1.1-1.264 2-1.615a5.622 5.622 0 012.928-.303c.985.166 1.895.613 2.56 1.379.66.762 1.113 1.88 1.113 3.456zM4.282 2.126c0 .893-.732 1.625-1.647 1.625A1.636 1.636 0 01.988 2.126C.988 1.233 1.721.5 2.635.5c.915 0 1.647.733 1.647 1.626zM.971 19.056V6.452h3.328v12.604H.971z" stroke="inherit"/></svg><svg viewBox="0 0 20 20" fill="inherit" id="status-check" xmlns="http://www.w3.org/2000/svg"><path d="M10 18a8 8 0 100-16.001A8 8 0 0010 18zm0 2C4.477 20 0 15.523 0 10S4.477 0 10 0s10 4.477 10 10-4.477 10-10 10z"/><path fill-rule="evenodd" clip-rule="evenodd" d="M7.707 9.293a1 1 0 10-1.414 1.414l2 2a1 1 0 001.414 0l4-4a1 1 0 10-1.414-1.414L9 10.586 7.707 9.293z"/></svg><svg fill="inherit" viewBox="0 0 24 24" id="trash" xmlns="http://www.w3.org/2000/svg"><path fill="#fff" fill-opacity=".01" d="M0 0h24v24H0z"/><path fill-rule="evenodd" clip-rule="evenodd" d="M5 5a1 1 0 00-1 1v1h16V6a1 1 0 00-1-1H5zm11.15 15H7.845a1 1 0 01-.986-.835L5 8h14l-1.864 11.166a1 1 0 01-.986.834zM9 4.5a.5.5 0 01.491-.5h5.018a.5.5 0 01.491.5V5H9v-.5z"/></svg><svg fill="inherit" viewBox="0 0 24 24" id="twit" xmlns="http://www.w3.org/2000/svg"><path d="M22 5.8a8.49 8.49 0 01-2.36.64 4.13 4.13 0 001.81-2.27 8.21 8.21 0 01-2.61 1 4.1 4.1 0 00-7 3.74 11.64 11.64 0 01-8.45-4.29 4.16 4.16 0 00-.55 2.07 4.09 4.09 0 001.82 3.41 4.05 4.05 0 01-1.86-.51v.05a4.1 4.1 0 003.3 4 3.929 3.929 0 01-1.1.17 4.896 4.896 0 01-.77-.07 4.11 4.11 0 003.83 2.84A8.22 8.22 0 012 18.28a11.57 11.57 0 006.29 1.85A11.59 11.59 0 0020 8.45v-.53a8.43 8.43 0 002-2.12z"/></svg><svg fill="none" viewBox="0 0 12 13" id="upload" xmlns="http://www.w3.org/2000/svg"><g clip-path="url(#iclip0_1221_2553)" fill="#8EB005"><path d="M2.39 7.264l2.86 2.86c.195.195.455.195.65 0l2.86-2.86c.195-.195.195-.455 0-.65s-.52-.195-.65 0L6.095 8.629V.439a.444.444 0 00-.455-.455.444.444 0 00-.455.455v8.19L3.17 6.614a.497.497 0 00-.325-.13c-.13 0-.26.065-.325.13-.325.195-.325.455-.13.65z"/><path d="M10.725 8.905a.444.444 0 00-.455.455v2.665H.975V9.36a.444.444 0 00-.455-.455c-.26 0-.52.195-.52.455v3.185c0 .26.195.455.455.455h10.27c.26 0 .455-.195.455-.455V9.36a.444.444 0 00-.455-.455z"/></g><defs><clipPath id="iclip0_1221_2553"><path fill="#fff" d="M0 0h11.18v13H0z"/></clipPath></defs></svg><svg fill="inherit" viewBox="0 0 24 24" id="youtube" xmlns="http://www.w3.org/2000/svg"><path fill-rule="evenodd" clip-rule="evenodd" d="M6.232 5.165c2.644-.22 8.52-.22 11.165 0 2.864.22 3.232 1.91 3.232 6.464s-.368 6.317-3.232 6.464c-2.645.147-8.52.147-11.165 0C3.367 17.873 3 16.183 3 11.629s.367-6.243 3.232-6.464zm4.827 8.679a1 1 0 01-1.448-.894v-2.64a1 1 0 011.447-.895l2.64 1.32a1 1 0 010 1.789l-2.64 1.32z"/></svg></svg>