<svg width="18" height="19" fill="none" xmlns="http://www.w3.org/2000/svg"><path d="M8.525.002c-1.521.02-4.794.27-6.626 1.951C.54 3.307.065 5.303.01 7.774c-.047 2.462-.103 7.086 4.346 8.345v1.916s-.03.768.476.926c.624.198.98-.395 1.573-1.028l1.106-1.251c3.043.253 5.374-.332 5.643-.419.616-.198 4.094-.642 4.663-5.266.585-4.775-.285-7.783-1.85-9.145l-.007-.001C15.486 1.415 13.589.03 9.345.014c0 0-.313-.02-.82-.012zm.053 1.343c.43-.002.695.016.695.016 3.588.008 5.304 1.092 5.707 1.457 1.32 1.13 1.998 3.844 1.501 7.83-.474 3.864-3.295 4.11-3.817 4.276-.22.071-2.275.578-4.861.411 0 0-1.928 2.329-2.528 2.93-.095.103-.206.135-.277.12-.103-.025-.134-.151-.126-.326l.015-3.181c-3.77-1.045-3.549-4.99-3.51-7.048.048-2.058.436-3.746 1.581-4.886 1.547-1.401 4.327-1.591 5.62-1.599zm.284 2.058a.236.236 0 00-.237.237.238.238 0 00.237.238 4.443 4.443 0 013.185 1.258c.862.84 1.281 1.964 1.297 3.436a.238.238 0 00.237.238v-.007a.237.237 0 00.237-.238 5.116 5.116 0 00-1.43-3.768c-.94-.919-2.128-1.394-3.526-1.394zm-3.124.547a.754.754 0 00-.486.095h-.01a3.75 3.75 0 00-.907.744c-.213.253-.333.506-.364.751a.983.983 0 00.04.428l.015.008c.244.718.561 1.408.948 2.059a12.177 12.177 0 001.834 2.51l.024.032.031.023.024.024.024.024a12.33 12.33 0 002.513 1.845c1.043.57 1.677.839 2.056.95v.007c.11.032.212.048.314.048.324-.024.63-.155.871-.374.308-.277.553-.584.735-.909v-.008c.182-.34.119-.665-.142-.887a10.768 10.768 0 00-1.7-1.22c-.402-.22-.813-.086-.98.136l-.355.45c-.182.222-.513.19-.513.19l-.01.008C7.235 10.25 6.58 7.75 6.58 7.75s-.032-.34.197-.515l.443-.356c.213-.174.363-.586.134-.99a10.705 10.705 0 00-1.217-1.702.666.666 0 00-.398-.237zm3.535.704a.237.237 0 00-.167.406c.045.045.105.07.168.07.791.013 1.544.34 2.094.91a2.773 2.773 0 01.712 2.034.238.238 0 00.237.237l.008.01a.237.237 0 00.237-.239c.023-.942-.269-1.734-.846-2.367s-1.383-.99-2.41-1.06a.091.091 0 00-.033 0zm.387 1.282a.241.241 0 00-.233.328.242.242 0 00.219.156c.782.04 1.161.435 1.209 1.25a.238.238 0 00.237.23h.008a.237.237 0 00.229-.253c-.056-1.061-.632-1.656-1.66-1.711a.25.25 0 00-.01 0z" fill="#000"/></svg>