<svg width="1440" height="4024" fill="none" xmlns="http://www.w3.org/2000/svg"><g clip-path="url(#clip0_81_522)"><path fill="#fff" d="M0 0h1440v4024H0z"/><g filter="url(#filter0_f_81_522)"><circle cx="1456" cy="1274" r="508" fill="#AE9AFF" fill-opacity=".29"/></g><g filter="url(#filter1_f_81_522)"><circle cx="1397" cy="-228" r="508" fill="#FF9AAC" fill-opacity=".29"/></g><g filter="url(#filter2_f_81_522)"><circle cx="17" cy="1274" r="508" fill="#FF9AAC" fill-opacity=".29"/></g><g filter="url(#filter3_f_81_522)"><circle cx="1530" cy="3072" r="508" fill="#FF9AAC" fill-opacity=".29"/></g><g filter="url(#filter4_f_81_522)"><circle cx="-83" cy="-228" r="508" fill="#AE9AFF" fill-opacity=".29"/></g><g filter="url(#filter5_f_81_522)"><circle cx="-83" cy="2684" r="508" fill="#AE9AFF" fill-opacity=".29"/></g><ellipse cx="1203.5" cy="33" rx="4.5" ry="5" fill="#fff"/><circle cx="1203.5" cy="52.5" r="4.5" fill="#fff"/><ellipse cx="1203.5" cy="72" rx="4.5" ry="5" fill="#fff"/><ellipse cx="1203.5" cy="92" rx="4.5" ry="5" fill="#fff"/><circle cx="1203.5" cy="111.5" r="4.5" fill="#fff"/><ellipse cx="1203.5" cy="131" rx="4.5" ry="5" fill="#fff"/><ellipse cx="1231.5" cy="33" rx="4.5" ry="5" fill="#fff"/><circle cx="1231.5" cy="52.5" r="4.5" fill="#fff"/><ellipse cx="1231.5" cy="72" rx="4.5" ry="5" fill="#fff"/><ellipse cx="1231.5" cy="92" rx="4.5" ry="5" fill="#fff"/><circle cx="1231.5" cy="111.5" r="4.5" fill="#fff"/><ellipse cx="1231.5" cy="131" rx="4.5" ry="5" fill="#fff"/><ellipse cx="1259.5" cy="33" rx="4.5" ry="5" fill="#fff"/><circle cx="1259.5" cy="52.5" r="4.5" fill="#fff"/><ellipse cx="1259.5" cy="72" rx="4.5" ry="5" fill="#fff"/><ellipse cx="1259.5" cy="92" rx="4.5" ry="5" fill="#fff"/><circle cx="1259.5" cy="111.5" r="4.5" fill="#fff"/><ellipse cx="1259.5" cy="131" rx="4.5" ry="5" fill="#fff"/><ellipse cx="1287.5" cy="33" rx="4.5" ry="5" fill="#fff"/><circle cx="1287.5" cy="52.5" r="4.5" fill="#fff"/><ellipse cx="1287.5" cy="72" rx="4.5" ry="5" fill="#fff"/><ellipse cx="1287.5" cy="92" rx="4.5" ry="5" fill="#fff"/><circle cx="1287.5" cy="111.5" r="4.5" fill="#fff"/><ellipse cx="1287.5" cy="131" rx="4.5" ry="5" fill="#fff"/><ellipse cx="1315.5" cy="33" rx="4.5" ry="5" fill="#fff"/><circle cx="1315.5" cy="52.5" r="4.5" fill="#fff"/><ellipse cx="1315.5" cy="72" rx="4.5" ry="5" fill="#fff"/><ellipse cx="1315.5" cy="92" rx="4.5" ry="5" fill="#fff"/><circle cx="1315.5" cy="111.5" r="4.5" fill="#fff"/><ellipse cx="1315.5" cy="131" rx="4.5" ry="5" fill="#fff"/><ellipse cx="1343.5" cy="33" rx="4.5" ry="5" fill="#fff"/><circle cx="1343.5" cy="52.5" r="4.5" fill="#fff"/><ellipse cx="1343.5" cy="72" rx="4.5" ry="5" fill="#fff"/><ellipse cx="1343.5" cy="92" rx="4.5" ry="5" fill="#fff"/><circle cx="1343.5" cy="111.5" r="4.5" fill="#fff"/><ellipse cx="1343.5" cy="131" rx="4.5" ry="5" fill="#fff"/><ellipse cx="1371.5" cy="33" rx="4.5" ry="5" fill="#fff"/><circle cx="1371.5" cy="52.5" r="4.5" fill="#fff"/><ellipse cx="1371.5" cy="72" rx="4.5" ry="5" fill="#fff"/><ellipse cx="1371.5" cy="92" rx="4.5" ry="5" fill="#fff"/><circle cx="1371.5" cy="111.5" r="4.5" fill="#fff"/><ellipse cx="1371.5" cy="131" rx="4.5" ry="5" fill="#fff"/><ellipse cx="1203.5" cy="885" rx="4.5" ry="5" fill="#fff"/><circle cx="1203.5" cy="904.5" r="4.5" fill="#fff"/><ellipse cx="1203.5" cy="924" rx="4.5" ry="5" fill="#fff"/><ellipse cx="1203.5" cy="944" rx="4.5" ry="5" fill="#fff"/><circle cx="1203.5" cy="963.5" r="4.5" fill="#fff"/><ellipse cx="1203.5" cy="983" rx="4.5" ry="5" fill="#fff"/><ellipse cx="1231.5" cy="885" rx="4.5" ry="5" fill="#fff"/><circle cx="1231.5" cy="904.5" r="4.5" fill="#fff"/><ellipse cx="1231.5" cy="924" rx="4.5" ry="5" fill="#fff"/><ellipse cx="1231.5" cy="944" rx="4.5" ry="5" fill="#fff"/><circle cx="1231.5" cy="963.5" r="4.5" fill="#fff"/><ellipse cx="1231.5" cy="983" rx="4.5" ry="5" fill="#fff"/><ellipse cx="1259.5" cy="885" rx="4.5" ry="5" fill="#fff"/><circle cx="1259.5" cy="904.5" r="4.5" fill="#fff"/><ellipse cx="1259.5" cy="924" rx="4.5" ry="5" fill="#fff"/><ellipse cx="1259.5" cy="944" rx="4.5" ry="5" fill="#fff"/><circle cx="1259.5" cy="963.5" r="4.5" fill="#fff"/><ellipse cx="1259.5" cy="983" rx="4.5" ry="5" fill="#fff"/><ellipse cx="1287.5" cy="885" rx="4.5" ry="5" fill="#fff"/><circle cx="1287.5" cy="904.5" r="4.5" fill="#fff"/><ellipse cx="1287.5" cy="924" rx="4.5" ry="5" fill="#fff"/><ellipse cx="1287.5" cy="944" rx="4.5" ry="5" fill="#fff"/><circle cx="1287.5" cy="963.5" r="4.5" fill="#fff"/><ellipse cx="1287.5" cy="983" rx="4.5" ry="5" fill="#fff"/><ellipse cx="1315.5" cy="885" rx="4.5" ry="5" fill="#fff"/><circle cx="1315.5" cy="904.5" r="4.5" fill="#fff"/><ellipse cx="1315.5" cy="924" rx="4.5" ry="5" fill="#fff"/><ellipse cx="1315.5" cy="944" rx="4.5" ry="5" fill="#fff"/><circle cx="1315.5" cy="963.5" r="4.5" fill="#fff"/><ellipse cx="1315.5" cy="983" rx="4.5" ry="5" fill="#fff"/><ellipse cx="1343.5" cy="885" rx="4.5" ry="5" fill="#fff"/><circle cx="1343.5" cy="904.5" r="4.5" fill="#fff"/><ellipse cx="1343.5" cy="924" rx="4.5" ry="5" fill="#fff"/><ellipse cx="1343.5" cy="944" rx="4.5" ry="5" fill="#fff"/><circle cx="1343.5" cy="963.5" r="4.5" fill="#fff"/><ellipse cx="1343.5" cy="983" rx="4.5" ry="5" fill="#fff"/><ellipse cx="1371.5" cy="885" rx="4.5" ry="5" fill="#fff"/><circle cx="1371.5" cy="904.5" r="4.5" fill="#fff"/><ellipse cx="1371.5" cy="924" rx="4.5" ry="5" fill="#fff"/><ellipse cx="1371.5" cy="944" rx="4.5" ry="5" fill="#fff"/><circle cx="1371.5" cy="963.5" r="4.5" fill="#fff"/><ellipse cx="1371.5" cy="983" rx="4.5" ry="5" fill="#fff"/><ellipse cx="1203.5" cy="1457" rx="4.5" ry="5" fill="#fff"/><circle cx="1203.5" cy="1476.5" r="4.5" fill="#fff"/><ellipse cx="1203.5" cy="1496" rx="4.5" ry="5" fill="#fff"/><ellipse cx="1203.5" cy="1516" rx="4.5" ry="5" fill="#fff"/><circle cx="1203.5" cy="1535.5" r="4.5" fill="#fff"/><ellipse cx="1203.5" cy="1555" rx="4.5" ry="5" fill="#fff"/><ellipse cx="1231.5" cy="1457" rx="4.5" ry="5" fill="#fff"/><circle cx="1231.5" cy="1476.5" r="4.5" fill="#fff"/><ellipse cx="1231.5" cy="1496" rx="4.5" ry="5" fill="#fff"/><ellipse cx="1231.5" cy="1516" rx="4.5" ry="5" fill="#fff"/><circle cx="1231.5" cy="1535.5" r="4.5" fill="#fff"/><ellipse cx="1231.5" cy="1555" rx="4.5" ry="5" fill="#fff"/><ellipse cx="1259.5" cy="1457" rx="4.5" ry="5" fill="#fff"/><circle cx="1259.5" cy="1476.5" r="4.5" fill="#fff"/><ellipse cx="1259.5" cy="1496" rx="4.5" ry="5" fill="#fff"/><ellipse cx="1259.5" cy="1516" rx="4.5" ry="5" fill="#fff"/><circle cx="1259.5" cy="1535.5" r="4.5" fill="#fff"/><ellipse cx="1259.5" cy="1555" rx="4.5" ry="5" fill="#fff"/><ellipse cx="1287.5" cy="1457" rx="4.5" ry="5" fill="#fff"/><circle cx="1287.5" cy="1476.5" r="4.5" fill="#fff"/><ellipse cx="1287.5" cy="1496" rx="4.5" ry="5" fill="#fff"/><ellipse cx="1287.5" cy="1516" rx="4.5" ry="5" fill="#fff"/><circle cx="1287.5" cy="1535.5" r="4.5" fill="#fff"/><ellipse cx="1287.5" cy="1555" rx="4.5" ry="5" fill="#fff"/><ellipse cx="1315.5" cy="1457" rx="4.5" ry="5" fill="#fff"/><circle cx="1315.5" cy="1476.5" r="4.5" fill="#fff"/><ellipse cx="1315.5" cy="1496" rx="4.5" ry="5" fill="#fff"/><ellipse cx="1315.5" cy="1516" rx="4.5" ry="5" fill="#fff"/><circle cx="1315.5" cy="1535.5" r="4.5" fill="#fff"/><ellipse cx="1315.5" cy="1555" rx="4.5" ry="5" fill="#fff"/><ellipse cx="1343.5" cy="1457" rx="4.5" ry="5" fill="#fff"/><circle cx="1343.5" cy="1476.5" r="4.5" fill="#fff"/><ellipse cx="1343.5" cy="1496" rx="4.5" ry="5" fill="#fff"/><ellipse cx="1343.5" cy="1516" rx="4.5" ry="5" fill="#fff"/><circle cx="1343.5" cy="1535.5" r="4.5" fill="#fff"/><ellipse cx="1343.5" cy="1555" rx="4.5" ry="5" fill="#fff"/><ellipse cx="1371.5" cy="1457" rx="4.5" ry="5" fill="#fff"/><circle cx="1371.5" cy="1476.5" r="4.5" fill="#fff"/><ellipse cx="1371.5" cy="1496" rx="4.5" ry="5" fill="#fff"/><ellipse cx="1371.5" cy="1516" rx="4.5" ry="5" fill="#fff"/><circle cx="1371.5" cy="1535.5" r="4.5" fill="#fff"/><ellipse cx="1371.5" cy="1555" rx="4.5" ry="5" fill="#fff"/><ellipse cx="1203.5" cy="2969" rx="4.5" ry="5" fill="#fff"/><circle cx="1203.5" cy="2988.5" r="4.5" fill="#fff"/><ellipse cx="1203.5" cy="3008" rx="4.5" ry="5" fill="#fff"/><ellipse cx="1203.5" cy="3028" rx="4.5" ry="5" fill="#fff"/><circle cx="1203.5" cy="3047.5" r="4.5" fill="#fff"/><ellipse cx="1203.5" cy="3067" rx="4.5" ry="5" fill="#fff"/><ellipse cx="1231.5" cy="2969" rx="4.5" ry="5" fill="#fff"/><circle cx="1231.5" cy="2988.5" r="4.5" fill="#fff"/><ellipse cx="1231.5" cy="3008" rx="4.5" ry="5" fill="#fff"/><ellipse cx="1231.5" cy="3028" rx="4.5" ry="5" fill="#fff"/><circle cx="1231.5" cy="3047.5" r="4.5" fill="#fff"/><ellipse cx="1231.5" cy="3067" rx="4.5" ry="5" fill="#fff"/><ellipse cx="1259.5" cy="2969" rx="4.5" ry="5" fill="#fff"/><circle cx="1259.5" cy="2988.5" r="4.5" fill="#fff"/><ellipse cx="1259.5" cy="3008" rx="4.5" ry="5" fill="#fff"/><ellipse cx="1259.5" cy="3028" rx="4.5" ry="5" fill="#fff"/><circle cx="1259.5" cy="3047.5" r="4.5" fill="#fff"/><ellipse cx="1259.5" cy="3067" rx="4.5" ry="5" fill="#fff"/><ellipse cx="1287.5" cy="2969" rx="4.5" ry="5" fill="#fff"/><circle cx="1287.5" cy="2988.5" r="4.5" fill="#fff"/><ellipse cx="1287.5" cy="3008" rx="4.5" ry="5" fill="#fff"/><ellipse cx="1287.5" cy="3028" rx="4.5" ry="5" fill="#fff"/><circle cx="1287.5" cy="3047.5" r="4.5" fill="#fff"/><ellipse cx="1287.5" cy="3067" rx="4.5" ry="5" fill="#fff"/><ellipse cx="1315.5" cy="2969" rx="4.5" ry="5" fill="#fff"/><circle cx="1315.5" cy="2988.5" r="4.5" fill="#fff"/><ellipse cx="1315.5" cy="3008" rx="4.5" ry="5" fill="#fff"/><ellipse cx="1315.5" cy="3028" rx="4.5" ry="5" fill="#fff"/><circle cx="1315.5" cy="3047.5" r="4.5" fill="#fff"/><ellipse cx="1315.5" cy="3067" rx="4.5" ry="5" fill="#fff"/><ellipse cx="1343.5" cy="2969" rx="4.5" ry="5" fill="#fff"/><circle cx="1343.5" cy="2988.5" r="4.5" fill="#fff"/><ellipse cx="1343.5" cy="3008" rx="4.5" ry="5" fill="#fff"/><ellipse cx="1343.5" cy="3028" rx="4.5" ry="5" fill="#fff"/><circle cx="1343.5" cy="3047.5" r="4.5" fill="#fff"/><ellipse cx="1343.5" cy="3067" rx="4.5" ry="5" fill="#fff"/><ellipse cx="1371.5" cy="2969" rx="4.5" ry="5" fill="#fff"/><circle cx="1371.5" cy="2988.5" r="4.5" fill="#fff"/><ellipse cx="1371.5" cy="3008" rx="4.5" ry="5" fill="#fff"/><ellipse cx="1371.5" cy="3028" rx="4.5" ry="5" fill="#fff"/><circle cx="1371.5" cy="3047.5" r="4.5" fill="#fff"/><ellipse cx="1371.5" cy="3067" rx="4.5" ry="5" fill="#fff"/><ellipse cx="130.5" cy="33" rx="4.5" ry="5" fill="#fff"/><circle cx="130.5" cy="52.5" r="4.5" fill="#fff"/><ellipse cx="130.5" cy="72" rx="4.5" ry="5" fill="#fff"/><ellipse cx="130.5" cy="92" rx="4.5" ry="5" fill="#fff"/><circle cx="130.5" cy="111.5" r="4.5" fill="#fff"/><ellipse cx="130.5" cy="131" rx="4.5" ry="5" fill="#fff"/><ellipse cx="158.5" cy="33" rx="4.5" ry="5" fill="#fff"/><circle cx="158.5" cy="52.5" r="4.5" fill="#fff"/><ellipse cx="158.5" cy="72" rx="4.5" ry="5" fill="#fff"/><ellipse cx="158.5" cy="92" rx="4.5" ry="5" fill="#fff"/><circle cx="158.5" cy="111.5" r="4.5" fill="#fff"/><ellipse cx="158.5" cy="131" rx="4.5" ry="5" fill="#fff"/><ellipse cx="186.5" cy="33" rx="4.5" ry="5" fill="#fff"/><circle cx="186.5" cy="52.5" r="4.5" fill="#fff"/><ellipse cx="186.5" cy="72" rx="4.5" ry="5" fill="#fff"/><ellipse cx="186.5" cy="92" rx="4.5" ry="5" fill="#fff"/><circle cx="186.5" cy="111.5" r="4.5" fill="#fff"/><ellipse cx="186.5" cy="131" rx="4.5" ry="5" fill="#fff"/><ellipse cx="214.5" cy="33" rx="4.5" ry="5" fill="#fff"/><circle cx="214.5" cy="52.5" r="4.5" fill="#fff"/><ellipse cx="214.5" cy="72" rx="4.5" ry="5" fill="#fff"/><ellipse cx="214.5" cy="92" rx="4.5" ry="5" fill="#fff"/><circle cx="214.5" cy="111.5" r="4.5" fill="#fff"/><ellipse cx="214.5" cy="131" rx="4.5" ry="5" fill="#fff"/><ellipse cx="242.5" cy="33" rx="4.5" ry="5" fill="#fff"/><circle cx="242.5" cy="52.5" r="4.5" fill="#fff"/><ellipse cx="242.5" cy="72" rx="4.5" ry="5" fill="#fff"/><ellipse cx="242.5" cy="92" rx="4.5" ry="5" fill="#fff"/><circle cx="242.5" cy="111.5" r="4.5" fill="#fff"/><ellipse cx="242.5" cy="131" rx="4.5" ry="5" fill="#fff"/><ellipse cx="270.5" cy="33" rx="4.5" ry="5" fill="#fff"/><circle cx="270.5" cy="52.5" r="4.5" fill="#fff"/><ellipse cx="270.5" cy="72" rx="4.5" ry="5" fill="#fff"/><ellipse cx="270.5" cy="92" rx="4.5" ry="5" fill="#fff"/><circle cx="270.5" cy="111.5" r="4.5" fill="#fff"/><ellipse cx="270.5" cy="131" rx="4.5" ry="5" fill="#fff"/><ellipse cx="298.5" cy="33" rx="4.5" ry="5" fill="#fff"/><circle cx="298.5" cy="52.5" r="4.5" fill="#fff"/><ellipse cx="298.5" cy="72" rx="4.5" ry="5" fill="#fff"/><ellipse cx="298.5" cy="92" rx="4.5" ry="5" fill="#fff"/><circle cx="298.5" cy="111.5" r="4.5" fill="#fff"/><ellipse cx="298.5" cy="131" rx="4.5" ry="5" fill="#fff"/><ellipse cx="130.5" cy="885" rx="4.5" ry="5" fill="#fff"/><circle cx="130.5" cy="904.5" r="4.5" fill="#fff"/><ellipse cx="130.5" cy="924" rx="4.5" ry="5" fill="#fff"/><ellipse cx="130.5" cy="944" rx="4.5" ry="5" fill="#fff"/><circle cx="130.5" cy="963.5" r="4.5" fill="#fff"/><ellipse cx="130.5" cy="983" rx="4.5" ry="5" fill="#fff"/><ellipse cx="158.5" cy="885" rx="4.5" ry="5" fill="#fff"/><circle cx="158.5" cy="904.5" r="4.5" fill="#fff"/><ellipse cx="158.5" cy="924" rx="4.5" ry="5" fill="#fff"/><ellipse cx="158.5" cy="944" rx="4.5" ry="5" fill="#fff"/><circle cx="158.5" cy="963.5" r="4.5" fill="#fff"/><ellipse cx="158.5" cy="983" rx="4.5" ry="5" fill="#fff"/><ellipse cx="186.5" cy="885" rx="4.5" ry="5" fill="#fff"/><circle cx="186.5" cy="904.5" r="4.5" fill="#fff"/><ellipse cx="186.5" cy="924" rx="4.5" ry="5" fill="#fff"/><ellipse cx="186.5" cy="944" rx="4.5" ry="5" fill="#fff"/><circle cx="186.5" cy="963.5" r="4.5" fill="#fff"/><ellipse cx="186.5" cy="983" rx="4.5" ry="5" fill="#fff"/><ellipse cx="214.5" cy="885" rx="4.5" ry="5" fill="#fff"/><circle cx="214.5" cy="904.5" r="4.5" fill="#fff"/><ellipse cx="214.5" cy="924" rx="4.5" ry="5" fill="#fff"/><ellipse cx="214.5" cy="944" rx="4.5" ry="5" fill="#fff"/><circle cx="214.5" cy="963.5" r="4.5" fill="#fff"/><ellipse cx="214.5" cy="983" rx="4.5" ry="5" fill="#fff"/><ellipse cx="242.5" cy="885" rx="4.5" ry="5" fill="#fff"/><circle cx="242.5" cy="904.5" r="4.5" fill="#fff"/><ellipse cx="242.5" cy="924" rx="4.5" ry="5" fill="#fff"/><ellipse cx="242.5" cy="944" rx="4.5" ry="5" fill="#fff"/><circle cx="242.5" cy="963.5" r="4.5" fill="#fff"/><ellipse cx="242.5" cy="983" rx="4.5" ry="5" fill="#fff"/><ellipse cx="270.5" cy="885" rx="4.5" ry="5" fill="#fff"/><circle cx="270.5" cy="904.5" r="4.5" fill="#fff"/><ellipse cx="270.5" cy="924" rx="4.5" ry="5" fill="#fff"/><ellipse cx="270.5" cy="944" rx="4.5" ry="5" fill="#fff"/><circle cx="270.5" cy="963.5" r="4.5" fill="#fff"/><ellipse cx="270.5" cy="983" rx="4.5" ry="5" fill="#fff"/><ellipse cx="298.5" cy="885" rx="4.5" ry="5" fill="#fff"/><circle cx="298.5" cy="904.5" r="4.5" fill="#fff"/><ellipse cx="298.5" cy="924" rx="4.5" ry="5" fill="#fff"/><ellipse cx="298.5" cy="944" rx="4.5" ry="5" fill="#fff"/><circle cx="298.5" cy="963.5" r="4.5" fill="#fff"/><ellipse cx="298.5" cy="983" rx="4.5" ry="5" fill="#fff"/><ellipse cx="130.5" cy="2495" rx="4.5" ry="5" fill="#fff"/><circle cx="130.5" cy="2514.5" r="4.5" fill="#fff"/><ellipse cx="130.5" cy="2534" rx="4.5" ry="5" fill="#fff"/><ellipse cx="130.5" cy="2554" rx="4.5" ry="5" fill="#fff"/><circle cx="130.5" cy="2573.5" r="4.5" fill="#fff"/><ellipse cx="130.5" cy="2593" rx="4.5" ry="5" fill="#fff"/><ellipse cx="158.5" cy="2495" rx="4.5" ry="5" fill="#fff"/><circle cx="158.5" cy="2514.5" r="4.5" fill="#fff"/><ellipse cx="158.5" cy="2534" rx="4.5" ry="5" fill="#fff"/><ellipse cx="158.5" cy="2554" rx="4.5" ry="5" fill="#fff"/><circle cx="158.5" cy="2573.5" r="4.5" fill="#fff"/><ellipse cx="158.5" cy="2593" rx="4.5" ry="5" fill="#fff"/><ellipse cx="186.5" cy="2495" rx="4.5" ry="5" fill="#fff"/><circle cx="186.5" cy="2514.5" r="4.5" fill="#fff"/><ellipse cx="186.5" cy="2534" rx="4.5" ry="5" fill="#fff"/><ellipse cx="186.5" cy="2554" rx="4.5" ry="5" fill="#fff"/><circle cx="186.5" cy="2573.5" r="4.5" fill="#fff"/><ellipse cx="186.5" cy="2593" rx="4.5" ry="5" fill="#fff"/><ellipse cx="214.5" cy="2495" rx="4.5" ry="5" fill="#fff"/><circle cx="214.5" cy="2514.5" r="4.5" fill="#fff"/><ellipse cx="214.5" cy="2534" rx="4.5" ry="5" fill="#fff"/><ellipse cx="214.5" cy="2554" rx="4.5" ry="5" fill="#fff"/><circle cx="214.5" cy="2573.5" r="4.5" fill="#fff"/><ellipse cx="214.5" cy="2593" rx="4.5" ry="5" fill="#fff"/><ellipse cx="242.5" cy="2495" rx="4.5" ry="5" fill="#fff"/><circle cx="242.5" cy="2514.5" r="4.5" fill="#fff"/><ellipse cx="242.5" cy="2534" rx="4.5" ry="5" fill="#fff"/><ellipse cx="242.5" cy="2554" rx="4.5" ry="5" fill="#fff"/><circle cx="242.5" cy="2573.5" r="4.5" fill="#fff"/><ellipse cx="242.5" cy="2593" rx="4.5" ry="5" fill="#fff"/><ellipse cx="270.5" cy="2495" rx="4.5" ry="5" fill="#fff"/><circle cx="270.5" cy="2514.5" r="4.5" fill="#fff"/><ellipse cx="270.5" cy="2534" rx="4.5" ry="5" fill="#fff"/><ellipse cx="270.5" cy="2554" rx="4.5" ry="5" fill="#fff"/><circle cx="270.5" cy="2573.5" r="4.5" fill="#fff"/><ellipse cx="270.5" cy="2593" rx="4.5" ry="5" fill="#fff"/><ellipse cx="298.5" cy="2495" rx="4.5" ry="5" fill="#fff"/><circle cx="298.5" cy="2514.5" r="4.5" fill="#fff"/><ellipse cx="298.5" cy="2534" rx="4.5" ry="5" fill="#fff"/><ellipse cx="298.5" cy="2554" rx="4.5" ry="5" fill="#fff"/><circle cx="298.5" cy="2573.5" r="4.5" fill="#fff"/><ellipse cx="298.5" cy="2593" rx="4.5" ry="5" fill="#fff"/><path stroke="#E9E9E9" d="M174.5 0v1024M444.5 0v1024M714.5 0v1024M984.5 0v1024m270-1024v1024m-1080 0v1024m270-1024v1024m270-1024v1024m270-1024v1024m270-1024v1024m-1080 0v1024m270-1024v1024m270-1024v1024m270-1024v1024m270-1024v1024m-1080 1v1024m270-1024v1024m270-1024v1024m270-1024v1024m270-1024v1024"/></g><defs><filter id="filter0_f_81_522" x="511" y="329" width="1890" height="1890" filterUnits="userSpaceOnUse" color-interpolation-filters="sRGB"><feFlood flood-opacity="0" result="BackgroundImageFix"/><feBlend in="SourceGraphic" in2="BackgroundImageFix" result="shape"/><feGaussianBlur stdDeviation="218.5" result="effect1_foregroundBlur_81_522"/></filter><filter id="filter1_f_81_522" x="452" y="-1173" width="1890" height="1890" filterUnits="userSpaceOnUse" color-interpolation-filters="sRGB"><feFlood flood-opacity="0" result="BackgroundImageFix"/><feBlend in="SourceGraphic" in2="BackgroundImageFix" result="shape"/><feGaussianBlur stdDeviation="218.5" result="effect1_foregroundBlur_81_522"/></filter><filter id="filter2_f_81_522" x="-928" y="329" width="1890" height="1890" filterUnits="userSpaceOnUse" color-interpolation-filters="sRGB"><feFlood flood-opacity="0" result="BackgroundImageFix"/><feBlend in="SourceGraphic" in2="BackgroundImageFix" result="shape"/><feGaussianBlur stdDeviation="218.5" result="effect1_foregroundBlur_81_522"/></filter><filter id="filter3_f_81_522" x="585" y="2127" width="1890" height="1890" filterUnits="userSpaceOnUse" color-interpolation-filters="sRGB"><feFlood flood-opacity="0" result="BackgroundImageFix"/><feBlend in="SourceGraphic" in2="BackgroundImageFix" result="shape"/><feGaussianBlur stdDeviation="218.5" result="effect1_foregroundBlur_81_522"/></filter><filter id="filter4_f_81_522" x="-1028" y="-1173" width="1890" height="1890" filterUnits="userSpaceOnUse" color-interpolation-filters="sRGB"><feFlood flood-opacity="0" result="BackgroundImageFix"/><feBlend in="SourceGraphic" in2="BackgroundImageFix" result="shape"/><feGaussianBlur stdDeviation="218.5" result="effect1_foregroundBlur_81_522"/></filter><filter id="filter5_f_81_522" x="-1028" y="1739" width="1890" height="1890" filterUnits="userSpaceOnUse" color-interpolation-filters="sRGB"><feFlood flood-opacity="0" result="BackgroundImageFix"/><feBlend in="SourceGraphic" in2="BackgroundImageFix" result="shape"/><feGaussianBlur stdDeviation="218.5" result="effect1_foregroundBlur_81_522"/></filter><clipPath id="clip0_81_522"><path fill="#fff" d="M0 0h1440v4024H0z"/></clipPath></defs></svg>