<svg width="725" height="398" fill="none" xmlns="http://www.w3.org/2000/svg"><path d="M664.9 321.6c-2.1-17.1 67.4-114.4 36.8-156.8-30.6-42.4-105.6-4.5-112.9-12.8-7.3-8.4 42.7-103.1-7.3-139.5-50-36.4-157 18.6-157 18.6-5 1.6-32.6 16.3-56.3 29.1-23.6-12.7-51.2-27.4-56.3-29.1 0 0-107-55-157-18.6s.1 131.2-7.3 139.5c-7.3 8.4-82.3-29.5-112.9 12.8-30.2 42.4 39.2 139.7 37.2 156.8-2.1 17.1-38.9 20.8-39.6 35.7 15.2 7.2 56.4 4.7 100.2 4.7h502c43.8 0 50 1.5 70.2-4.7-.9-14.9-37.7-18.6-39.8-35.7z" fill="#E8505B"/><path opacity=".7" d="M664.9 321.6c-2.1-17.1 67.4-114.4 36.8-156.8-30.6-42.4-105.6-4.5-112.9-12.8-7.3-8.4 42.7-103.1-7.3-139.5-50-36.4-157 18.6-157 18.6-5 1.6-32.6 16.3-56.3 29.1-23.6-12.7-51.2-27.4-56.3-29.1 0 0-107-55-157-18.6s.1 131.2-7.3 139.5c-7.3 8.4-82.3-29.5-112.9 12.8-30.2 42.4 39.2 139.7 37.2 156.8-2.1 17.1-38.9 20.8-39.6 35.7 23.2 9.2 57.9 4.2 101.7 4.2h489.5c43.8 0 67 0 81.2-4.2-.9-14.9-37.7-18.6-39.8-35.7z" fill="#fff"/><path d="M.5 362.4h724" stroke="#263238" stroke-miterlimit="10" stroke-linecap="round" stroke-linejoin="round"/><path d="M688.001 89.2h-4.7v273.1h4.7V89.2z" fill="#263238" stroke="#263238" stroke-miterlimit="10" stroke-linecap="round" stroke-linejoin="round"/><path d="M711.4 79.9h-50v55.9h50V79.9z" fill="#E8505B" stroke="#263238" stroke-miterlimit="10" stroke-linecap="round" stroke-linejoin="round"/><path d="M711.4 355.8h-50v6.6h50v-6.6z" fill="#263238" stroke="#263238" stroke-miterlimit="10" stroke-linecap="round" stroke-linejoin="round"/><path d="M20.8 215.7s-2.4 6.7-7.6 7.6c-5.2.9-14.3-9.1-8.5-14.3 5.8-5.2 13.7 3 16.1 6.7zm8-33s-7.6 18.6-4.6 27.7c3 9.1 22 15.9 27.4 4 5.5-11.9-6.7-28.7-11.3-32.3-4.5-3.6-10-2.4-11.5.6zm44.5 8s-13.1 11.9-14.6 23.8 7.3 16.2 16.5 14.6c9.1-1.5 13.7-24.7 11-35.4-2.9-10.7-12.9-3-12.9-3zm2.4 65.8s-14.6.6-15.2 7.6c-.6 7 6.4 8.5 13.4 2.4 7-6 7.9-9.7 1.8-10z" fill="#E8505B" stroke="#263238" stroke-miterlimit="10" stroke-linecap="round" stroke-linejoin="round"/><path d="M60.7 265.8s11.5-5.3 16.7-6.2" stroke="#263238" stroke-miterlimit="10"/><path d="M79 302.4s-10.8-10-16.2-5.4c-5.4 4.5-1.5 10.6 7.7 11.2 9.3.7 12.6-1.3 8.5-5.8z" fill="#E8505B" stroke="#263238" stroke-miterlimit="10" stroke-linecap="round" stroke-linejoin="round"/><path d="M61.8 298.3s11.9 4.5 16.2 7.5" stroke="#263238" stroke-miterlimit="10"/><path d="M22.3 299.5s14.8-13.7 22.3-7.5c7.4 6.2 2.1 14.6-10.7 15.5-12.8.9-17.3-1.8-11.6-8z" fill="#E8505B" stroke="#263238" stroke-miterlimit="10" stroke-linecap="round" stroke-linejoin="round"/><path d="M45.9 293.8s-16.4 6.1-22.3 10.3" stroke="#263238" stroke-miterlimit="10"/><path d="M39.4 271.2s-1.5 7.3-7 10.1c-5.5 2.7-15.2-3-10.1-11.9 5.2-8.9 14.4-1.9 17.1 1.8zm-12.8-22.9s-2.7-6.1-13.4-2.1c-10.7 4-14.9 10.1-8.2 12.2 6.7 2.1 21.6-10.1 21.6-10.1z" fill="#E8505B" stroke="#263238" stroke-miterlimit="10" stroke-linecap="round" stroke-linejoin="round"/><path d="M24.6 248s-11.3 1.2-17.4 6.4" stroke="#263238" stroke-miterlimit="10"/><path d="M57.1 175.1s1.8 4.3 5.5 3.4c3.7-.9 4.6-6.4 10.4-4.9 5.8 1.5 10.7 8.2 10.7 5.2 0-3-7.3-11-15.6-11-8.2 0-10.7 3.3-11 7.3z" fill="#E8505B" stroke="#263238" stroke-miterlimit="10" stroke-linecap="round" stroke-linejoin="round"/><path d="M26.6 248.3s13.1-2.5 18.6 12.1c.5 1.4 1 2.9 1.4 4.5" stroke="#263238" stroke-miterlimit="10"/><path d="M81.4 234.2s2.7-6.1 13.4-2.1c10.7 4 14.9 10.1 8.2 12.2-6.6 2.1-21.6-10.1-21.6-10.1z" fill="#E8505B" stroke="#263238" stroke-miterlimit="10" stroke-linecap="round" stroke-linejoin="round"/><path d="M83.9 234.6s11-.6 16.2 5.8m-18.7-6.2s-4.4-.8-9.1 1.2m-38.7-12.2c-6.4-6.6-12.8-7.6-12.8-7.6s-9.4-2.5-13.1.9m27.2-27.1l-.5-2.5m15.4 137.3s1.4-52.5 0-68.5c-1.4-15.9-7.7-34.6-7.7-34.6l-6.5-29m41.3 8.6l1.1-2.5m-25 126s.5-47.9 2.3-61.6c1.8-13.7 9.1-35.1 9.1-35.1l11.2-24m-14.9 62.3s-3.2 27.5-5 58.4" stroke="#263238" stroke-miterlimit="10"/><path d="M45.2 324.2s.9-43.8-.9-49.7c-1.8-5.9-4.9-3.3-4.9-3.3s-8.4 1-11.5 5.9m19.4-8.9c2.4 13.4.2 56 .2 56m22.2-87.4c-2.6 1.8-5.2 4.7-6.9 9.4-5.5 14.6-4.8 78-4.8 78" stroke="#263238" stroke-miterlimit="10"/><path d="M35.2 225c2.8 3.3 5.6 7.9 7.7 14 7.3 21 10 75.2 8.7 85.3m2.1-79.7c-.4 26.4-.7 79.6-.7 79.6m.8-82.9c.3-17.5.7-34.6 1-43.8.9-23.7 2.3-22.4 2.3-22.4s1.7-5.3 11.2-4.7" stroke="#263238" stroke-miterlimit="10"/><path d="M42.1 261.3s-7.6-6.8-4.6-10.1 22-5.8 27.4-1.4c5.5 4.3-6.7 10.5-11.3 11.8-4.5 1.2-10 .8-11.5-.3z" fill="#E8505B" stroke="#263238" stroke-miterlimit="10" stroke-linecap="round" stroke-linejoin="round"/><path d="M49.1 255.7c-.1.7-.2 1.4-.2 2m2.9-9.9s-1.1 2.3-2 5" stroke="#263238" stroke-miterlimit="10"/><path d="M42.1 305.7s-7.6-6.8-4.6-10.1 22-5.8 27.4-1.4c5.5 4.3-6.7 10.5-11.3 11.8-4.6 1.3-10 .8-11.5-.3z" fill="#E8505B" stroke="#263238" stroke-miterlimit="10" stroke-linecap="round" stroke-linejoin="round"/><path d="M51.8 292.2s-2.8 5.6-2.8 10" stroke="#263238" stroke-miterlimit="10"/><path d="M47.8 286.9s-5.2-4.6-3.1-6.9c2.1-2.3 14.9-3.9 18.6-1 3.7 3-4.6 7.1-7.7 8-3.1 1-6.8.7-7.8-.1z" fill="#E8505B" stroke="#263238" stroke-miterlimit="10" stroke-linecap="round" stroke-linejoin="round"/><path d="M54.3 277.7s-1.9 3.8-1.9 6.8" stroke="#263238" stroke-miterlimit="10"/><path d="M61.2 316.6H40.6v45.8h20.6v-45.8zm590.1-10.1h-2.8v55.3h2.8v-55.3zm-137.5 0H511v55.3h2.8v-55.3zM640.7 212H518.1v81.8h122.6V212z" fill="#fff" stroke="#263238" stroke-miterlimit="10" stroke-linecap="round" stroke-linejoin="round"/><path d="M633 284.9H528.6v24.4H633v-24.4z" fill="#fff" stroke="#263238" stroke-miterlimit="10" stroke-linecap="round" stroke-linejoin="round"/><path d="M528.7 247.1h-21.4v62.2h21.4v-62.2zm125.7 0H633v62.2h21.4v-62.2zM526 327.4l.5 13.7s-5 8.7-6.4 10.3c-1.4 1.6-9.8 7.7-11.2 9.1-1.4 1.4-.5 2.7.7 3.4 1.1.7 32.1 0 32.1 0s2.1-1.1 1.8-4.6c-.2-3.4-2.5-27.8-2.5-27.8l-15-4.1z" fill="#fff" stroke="#263238" stroke-miterlimit="10" stroke-linecap="round" stroke-linejoin="round"/><path d="M532.4 341.3c-3.2-1.4-5.9-.2-5.9-.2s-5 8.7-6.4 10.3c-1.4 1.6-9.8 7.7-11.2 9.1-1.4 1.4-.5 2.7.7 3.4 1.1.7 32.1 0 32.1 0s2-1.1 1.8-4.6c-.1-1.5-.6-7.1-1.1-12.9l-5.7-1s-1.1-2.7-4.3-4.1zm95.7-13.9l-.5 13.7s5 8.7 6.4 10.3c1.4 1.6 9.8 7.7 11.2 9.1 1.4 1.4.5 2.7-.7 3.4-1.1.7-32.1 0-32.1 0s-2.1-1.1-1.8-4.6c.2-3.4 2.5-27.8 2.5-27.8l15-4.1z" fill="#fff" stroke="#263238" stroke-miterlimit="10" stroke-linecap="round" stroke-linejoin="round"/><path d="M621.7 341.3c3.2-1.4 5.9-.2 5.9-.2s5 8.7 6.4 10.3c1.4 1.6 9.8 7.7 11.2 9.1 1.4 1.4.5 2.7-.7 3.4-1.1.7-32.1 0-32.1 0s-2.1-1.1-1.8-4.6c.1-1.5.6-7.1 1.1-12.9l5.7-1s1.1-2.7 4.3-4.1z" fill="#fff" stroke="#263238" stroke-miterlimit="10" stroke-linecap="round" stroke-linejoin="round"/><path d="M529 243.8s-10.5 1.6-12.8 13c-2.3 11.4 4.6 73.6 4.6 73.6l22.8 3.9 1.6-49.1h61.7l3.6 49.5s22.3-6.4 22.1-5.7c-.2.7-.7-36.7-.7-36.7s2.7-32.8 1.4-36.4c-1.4-3.6-3-7.3-4.8-8.4-1.8-1.1-17.4-.7-19.4-.2-1.9.4-22.6 5.5-29.8 4.6-7.3-.9-23.6.8-27-.5-3.4-1.3-17.8-11.7-23.3-7.6z" fill="#999" stroke="#263238" stroke-miterlimit="10" stroke-linecap="round" stroke-linejoin="round"/><path d="M545.2 285.2v-12s-3.6-12.8-8-16.6m3.4-.2s2.7 3.4 3.6 7.3m62.7 21.5v-12l-.7-13.4m-3.4-.5l1.6 6.9m-33.7-4.6s5.5 6.6 6.4 9.3m6.6-5.8l-4.4 3m50.2-1.3l1.5 23m-110.7-14.5l-1.1 31.2" stroke="#263238" stroke-miterlimit="10" stroke-linecap="round" stroke-linejoin="round"/><path d="M570.2 172.8s-17.6 4.1-21.1 5.9c-3.5 1.9-5.4 6.5-6.5 8.6-1.1 2.2-13.5 46.7-13.2 48.6.3 1.9 12.4 5.1 12.4 5.1l9.5-23.2 1.1 23.2-.1 10.1s18.1 10 25.1 11.1c7 1.1 10.5-1.7 15.4-3.9s14.5-10.8 14.5-10.8l23.5-5.7s-4.6-44-5.9-48.6c-1.4-4.6-6.5-14.9-11.3-15.9-5.3-1.2-16.2-4.6-16.2-4.6h-27.2v.1z" fill="#E8505B" stroke="#263238" stroke-miterlimit="10" stroke-linecap="round" stroke-linejoin="round"/><path d="M534.799 214.4c-2.9 10.7-5.5 20.8-5.4 21.7.3 1.9 12.4 5.1 12.4 5.1l8.2-20.1-15.2-6.7zm93.301 3.3l-15.1 3.6.2 25 17.6-4.3s-1.3-12.1-2.7-24.3z" fill="#D1D1D1" stroke="#263238" stroke-miterlimit="10" stroke-linecap="round" stroke-linejoin="round"/><path d="M573.199 168.5l-6.5 4.6 3.8 27 16.8-11.6 16.5 11.3s-1.9-21.3-3-25.1c-1.1-3.8-4.9-4.9-4.9-4.9l-22.7-1.3z" fill="#E8505B" stroke="#263238" stroke-miterlimit="10" stroke-linecap="round" stroke-linejoin="round"/><path d="M575.3 179.2s3.6 8 5.2 10.7c1.6 2.7 7 11.3 7 11.3l5.7-17.8 2.2-4.1-20.1-.1z" fill="#D1D1D1" stroke="#263238" stroke-miterlimit="10" stroke-linecap="round" stroke-linejoin="round"/><path d="M578.999 134.4s-5.6 1.9-7.8 8.3c-2.2 6.3-.7 15.6-.7 15.6s-4.1-1.7-4.6 1.7 1.2 6.3 2.4 7.3 3.2 1 3.2 1 3.2 9.5 3.9 11c.7 1.5 6.3 6.3 8.3 6.8 1.9.5 7.8-1.2 7.8-1.2s4.9-6.6 5.1-8c.2-1.5 3.7-9.7 4.1-13.1.5-3.4 2.2-16.6.5-20-1.7-3.4-4.9-8.5-11.2-10-6.4-1.6-11 .6-11 .6z" fill="#D1D1D1" stroke="#263238" stroke-miterlimit="10" stroke-linecap="round" stroke-linejoin="round"/><path d="M589.9 133.6c-6.3-1.5-11 .7-11 .7s-5.6 1.9-7.8 8.3c-2.2 6.3-.7 15.6-.7 15.6s2.2 1.2 2.9 1.2c.7 0 4.1-1 4.4-3.2.2-2.2 1-8.8 1-8.8s5.6 1.7 9.5 2.2c3.9.5 10.5-1.9 10.5-1.9l2.2 6.8.5 2.4c.5-5 .8-11.2-.3-13.3-1.7-3.4-4.8-8.5-11.2-10z" fill="#263238" stroke="#263238" stroke-miterlimit="10" stroke-linecap="round" stroke-linejoin="round"/><path d="M601.399 156.9s2.9-.2 2.4 3-3.4 5.8-3.4 5.8l1-8.8zm-10.5 8.9l-.5 9.2-4.1-.2m-2.5 2.4s2.7 1.5 5.1.7m-9.7-11.6s2.4 2.4 5.8 1m8.101-.6s2.4 1.9 4.4-.7m-18.001-3.2s3.8 1.3 6.4.7m6.9-.1s3.8 0 5.9-1" stroke="#263238" stroke-miterlimit="10" stroke-linecap="round" stroke-linejoin="round"/><path d="M561.999 212.3l-3.8 31 31 7.5 4-29.4-31.2-9.1z" fill="#263238" stroke="#263238" stroke-miterlimit="10" stroke-linecap="round" stroke-linejoin="round"/><path d="M593.199 221.4l28.7-10.4-5.9 31-26.8 8.8 4-29.4z" fill="#263238" stroke="#263238" stroke-miterlimit="10" stroke-linecap="round" stroke-linejoin="round"/><path d="M593.199 221.4s.7-3.1 4.2-4.2c3.6-1.1 22.2-7.3 22.2-7.3l1 1.3-27.4 10.2zm0 0s-2.1-3.6-3.1-4.2c-1-.7-25.5-6.5-25.5-6.5l-1.7 1.8 30.3 8.9z" fill="#fff" stroke="#263238" stroke-miterlimit="10" stroke-linecap="round" stroke-linejoin="round"/><path d="M630.199 236.6s1.5 5.2 1.3 7.5c-.2 2.2-3.4 3.4-6.2 4.9-2.7 1.4-8.4 3.4-11.7 3.5-3.3.1-11.1-.7-12.3-.7-1.2 0-11.5-2.4-13.6-3.1-2.1-.7-4.6-1.7-5.7-2.5-1.1-.8-2.7-1.2-2.7-1.2s-.9-.8-1.2-1.5c-.2-.7 4 .1 4 .1s-4.4-3.2-5.2-3.7c-.8-.5-.9-1.5-.8-2 .1-.5 5.2 2.4 5.6 2.4.4 0 3.7.2 3.7.2s-2.7-2.8-4.6-3.9c-1.9-1.1-1.1-2.4 0-2.4s7.8 4.1 7.8 4.1l9.2 1.1-.3-3.5s-1.4-1.4-1.9-3 1.4-3 3-1.4 4.3 4.1 5.1 4.6c.8.5 1.6 6.8 1.6 6.8s8.2-1.4 9-2.6c.8-1.2 8.5-5.4 10.3-5.8 1.8-.4 3.2-.1 3.2-.1" fill="#D1D1D1"/><path d="M630.199 236.6s1.5 5.2 1.3 7.5c-.2 2.2-3.4 3.4-6.2 4.9-2.7 1.4-8.4 3.4-11.7 3.5-3.3.1-11.1-.7-12.3-.7-1.2 0-11.5-2.4-13.6-3.1-2.1-.7-4.6-1.7-5.7-2.5-1.1-.8-2.7-1.2-2.7-1.2s-.9-.8-1.2-1.5c-.2-.7 4 .1 4 .1s-4.4-3.2-5.2-3.7c-.8-.5-.9-1.5-.8-2 .1-.5 5.2 2.4 5.6 2.4.4 0 3.7.2 3.7.2s-2.7-2.8-4.6-3.9c-1.9-1.1-1.1-2.4 0-2.4s7.8 4.1 7.8 4.1l9.2 1.1-.3-3.5s-1.4-1.4-1.9-3 1.4-3 3-1.4 4.3 4.1 5.1 4.6c.8.5 1.6 6.8 1.6 6.8s8.2-1.4 9-2.6c.8-1.2 8.5-5.4 10.3-5.8 1.8-.4 3.2-.1 3.2-.1m-42.4 6.1l4 1.6m-7.2 1.4s4.4 1.5 6.2 1.7" stroke="#263238" stroke-miterlimit="10" stroke-linecap="round" stroke-linejoin="round"/><path d="M529.9 232.1c-1.5 1.3-2.9 5.4-2.9 7.7s2.1 4.4 4.4 5.6c2.3 1.1 7.2 2 12.4 1.5s8-2.1 8-2.1 6.4-1.4 8.3-1.5c1.9 0 8.3-2.4 9.1-3.1.8-.7.3-2.3.3-2.3s1.8-1.1 2.3-2c.5-.8-1.6-2.1-1.6-2.1s1.5-1 1.8-1.5c.3-.5-1.5-1.3-2.3-1-.8.3-6.7 1.3-6.7 1.3s4.2-2.4 5.1-2.9c.8-.5.3-1-.3-1.6-.7-.7-5.6 2-6.2 2.1-.7.2-6 1.3-6 1.3s.8-2.3 1.3-2.6c.5-.3 2.8-1.6 2.8-1.6s.7-3.3.7-4.4c0-1.1-3.3 2.4-3.3 2.4s-4.9 3.4-5.4 3.8c-.5.3-3.3 6.9-3.3 6.9s-1.3.5-3.8-1.3c-2.4-1.8-6.2-3.1-8.3-3.1" fill="#D1D1D1"/><path d="M529.9 232.1c-1.5 1.3-2.9 5.4-2.9 7.7s2.1 4.4 4.4 5.6c2.3 1.1 7.2 2 12.4 1.5s8-2.1 8-2.1 6.4-1.4 8.3-1.5c1.9 0 8.3-2.4 9.1-3.1.8-.7.3-2.3.3-2.3s1.8-1.1 2.3-2c.5-.8-1.6-2.1-1.6-2.1s1.5-1 1.8-1.5c.3-.5-1.5-1.3-2.3-1-.8.3-6.7 1.3-6.7 1.3s4.2-2.4 5.1-2.9c.8-.5.3-1-.3-1.6-.7-.7-5.6 2-6.2 2.1-.7.2-6 1.3-6 1.3s.8-2.3 1.3-2.6c.5-.3 2.8-1.6 2.8-1.6s.7-3.3.7-4.4c0-1.1-3.3 2.4-3.3 2.4s-4.9 3.4-5.4 3.8c-.5.3-3.3 6.9-3.3 6.9s-1.3.5-3.8-1.3c-2.4-1.8-6.2-3.1-8.3-3.1" stroke="#263238" stroke-miterlimit="10" stroke-linecap="round" stroke-linejoin="round"/><path d="M570.3 233.8l-5.4 1.4-3.9.5m8.6 2.1l-5.9 1.2-2.7.2m2.1-6.6l-3.1.5" stroke="#263238" stroke-miterlimit="10" stroke-linecap="round" stroke-linejoin="round"/><path d="M428 200s1.6 24.4 4.6 47.1c3 22.7 5.8 44 8.3 50.3 2.5 6.3 4.9 29.9 4.9 32.4s-.2 10.7-.2 10.7l-1.4 2.3.5 4.2s2.8 2.3 6.5 3c3.7.7 8.3.9 8.3.9s10.2 4.2 11.6 5.1c1.4.9 5.6.7 5.6.7s1.4-2.8 1.2-5.3c-.2-2.5-1.9-5.6-1.9-7.4 0-1.9 7.4-37.5 6.5-44.5-.9-6.9-6-24.8-6.3-27.1-.2-2.3 9.3-50.5 9.3-50.5l-4.6-27.1-50.5 1.6-2.4 3.6z" fill="#999" stroke="#263238" stroke-miterlimit="10" stroke-linecap="round" stroke-linejoin="round"/><path d="M433.201 111l-11.8 49.9-14.9-3.3-1.7 16.6 21.4 7.4 7.2-54-.2-16.6z" fill="#E8505B" stroke="#263238" stroke-miterlimit="10" stroke-linecap="round" stroke-linejoin="round"/><path d="M406.5 157.6l-6.6 2.9 4.9 13.7 1.7-16.6zM385 125l-.1-4.5-6.4-7-.8 2 7.3 9.5z" fill="#fff" stroke="#263238" stroke-miterlimit="10" stroke-linecap="round" stroke-linejoin="round"/><path d="M384.9 120.5l16.2-8.9-2 4.4-14.1 9-.1-4.5z" fill="#fff" stroke="#263238" stroke-miterlimit="10" stroke-linecap="round" stroke-linejoin="round"/><path d="M385 125l18.3-13.9 12.1 28.1-15 9.7L385 125zm0 0l-9.1-11.6 11.4 20.4 13.1 15.1L385 125z" fill="#263238" stroke="#263238" stroke-miterlimit="10" stroke-linecap="round" stroke-linejoin="round"/><path d="M405.2 166.3s-13.2-11.6-13.5-12.2c-.3-.6-1.9-8.3-1.9-8.3l-3.9-12.6s1.6.9 2.4 3.3c.8 2.4 3.8 11.6 3.8 11.6s.6-10.2.9-11.5c.3-1.3 1.7-.6 1.9.8.2 1.4.3 11.6.3 11.6l4.4-8.3s1.4-.3.9 1.1c-.5 1.4-2.4 8.9-2.4 8.9s4.9 3.1 5.5 4.6c.6 1.4 0 3.3 0 3.8s2.5 1.6 2.5 1.6l-.9 5.6z" fill="#fff" stroke="#263238" stroke-miterlimit="10" stroke-linecap="round" stroke-linejoin="round"/><path d="M406.5 157.6l-2.1-1.2-1.7 8.8 2.5 1.1 1.3-8.7zm36-54.4s-3.4 1.7-4.8 5.2c-1.3 3.4-7.7 55.9-7.7 55.9l-2 35.7 13.6.2 10.9-80.2 1.5-19.7s-8.4-1.5-11.5 2.9z" fill="#fff" stroke="#263238" stroke-miterlimit="10" stroke-linecap="round" stroke-linejoin="round"/><path d="M442.5 103.2s-1.9 1.1-4.2 18.2c-2.3 17-8.2 70-8 75 .2 5-.2 27.4-.2 27.4l-7.1-1.1s-1.3-20.1.6-32.1c1.9-12.1 5-34.8 5.7-42.9.8-8 3.1-37.1 4-39.2 1-2.1 8.6-7.7 8.6-7.7l.6 2.4z" fill="#E8505B" stroke="#263238" stroke-miterlimit="10" stroke-linecap="round" stroke-linejoin="round"/><path d="M456.7 78.5l5.3 14.2-13 10.3-4.6 10.2-4.4-14.4 11.5-9-.8-9.4 6-1.9z" fill="#fff" stroke="#263238" stroke-miterlimit="10" stroke-linecap="round" stroke-linejoin="round"/><path d="M423.8 59s-.4 7.5.8 9.8c1.1 2.3 3.1 5.4 3.1 6.3 0 1-2.5 7.8-1.9 8.8.6 1 3.6 1.1 3.6 1.1s3.1 6.3 3.6 8.4c.6 2.1 1 6.7 3.3 8.2 2.3 1.5 6.1-1.3 11.7-4.8 5.5-3.4 5.9-7.7 5.9-8.8 0-1.1-.6-4.4-.6-4.4s4-2.1 5.2-5.2c1.1-3.1 1-5 1-5s3.3-1.5 4.2-6.5c1-5-3.3-17.4-6.9-19.9-3.8-2.3-6.8-6.2-15.8-5-9 1.1-17.6 5.2-18.9 9.8-1.4 4.5 1.7 7.2 1.7 7.2z" fill="#fff" stroke="#263238" stroke-miterlimit="10" stroke-linecap="round" stroke-linejoin="round"/><path d="M422.001 51.7c1.3-4.6 9.9-8.6 18.9-9.8 9-1.1 12.1 2.7 15.7 5.2 3.6 2.5 7.8 14.9 6.9 19.9-1 5-4.2 6.5-4.2 6.5-1.1-5-5.5-5.7-6.9-4.6-1.3 1.1.8 14.7.8 14.7s.6 3.3.6 4.4c0 1.1-.4 5.4-5.9 8.8-5.5 3.4-9.4 6.3-11.7 4.8-2.3-1.5-2.7-6.1-3.3-8.2-.6-2.1-3.6-8.4-3.6-8.4h-.2c1.1-.6 2.8-1.1 5.2-1.3 6.3-.6 7.3 3.8 8.8 3.6 1.5-.2 4.2-2.3 4.8-4.4.6-2.1.6-12.8.8-14 .2-1.1-.4-1.5-1.3-1.9-1-.4-6.5-2.7-8.2-3.8-1.7-1.1-1.3-8.4-1.3-8.4l-14 4.2c-.1 0-3.2-2.7-1.9-7.3z" fill="#263238" stroke="#263238" stroke-miterlimit="10" stroke-linecap="round" stroke-linejoin="round"/><path d="M429.6 74.9c1 2.4 3.3 3.8 5.1 3 1.8-.8 2.4-3.4 1.4-5.8s-3.3-3.8-5.1-3c-1.8.8-2.5 3.4-1.4 5.8zm-5.099-4.7c-1.2 1.1-1.6 3.3-.7 5.4.6 1.5 1.8 2.6 3 3M428.5 73l-2.8.2m10.401-1l15.8-1.7" stroke="#263238" stroke-miterlimit="10" stroke-linecap="round" stroke-linejoin="round"/><path d="M464.1 89.1l-18.9 13.2 3.6 9.7 19-12.2-3.7-10.7z" fill="#E8505B" stroke="#263238" stroke-miterlimit="10" stroke-linecap="round" stroke-linejoin="round"/><path d="M449.001 109s-2.9 17.8-4.8 34.8c-1.9 17-5 49.4-5.4 50.1-.4.8-.8 9.2.2 13 1 3.8 7.7 15.9 9.8 16.5 2.1.6 12.2 1 12.2 1l33.5 1.7-6.3-37.3s.6-45.3 1.1-50.7c.6-5.4 1.7-24.3-.8-25.8s-20.9-12.4-20.9-12.4l-18.6 9.1z" fill="#E8505B" stroke="#263238" stroke-miterlimit="10" stroke-linecap="round" stroke-linejoin="round"/><path d="M488.6 112.2s6.3 25.4 5.7 28.9c-.6 3.4-2.9 43.2-3.3 45.5-.4 2.3-14.7 34.2-14.7 34.2l-14.9-7.1s7.7-30.4 7.7-31c0-.6 2.1-9.4 2.3-9.9.2-.6-7.1-34.8-7.1-34.8s-1.3-7.7 1.1-10.9c2.5-3.3 9.8-10.3 9.8-10.3" fill="#E8505B"/><path d="M488.6 112.2s6.3 25.4 5.7 28.9c-.6 3.4-2.9 43.2-3.3 45.5-.4 2.3-14.7 34.2-14.7 34.2l-14.9-7.1s7.7-30.4 7.7-31c0-.6 2.1-9.4 2.3-9.9.2-.6-7.1-34.8-7.1-34.8s-1.3-7.7 1.1-10.9c2.5-3.3 9.8-10.3 9.8-10.3m2.2 56.3c-1.5 1.1-2.7 1.9-3.1 2.3m12.6-8.9s-2.7 1.9-5.7 3.9" stroke="#263238" stroke-miterlimit="10" stroke-linecap="round" stroke-linejoin="round"/><path d="M473.3 219.5l-1.9 4.2-10.7-4.6 2.3-4.9 10.3 5.3zm-12.6-.4l-2.7 5 10.7 8.1 1.3-9-9.3-4.1zM444.601 347s-6.5 6.9-7.9 7.9c-1.4.9-11.4 8.3-11.4 8.3s-.7 1.4.5 2.1c1.2.7 17.4 1.2 17.4 1.2s2.8 1.4 6.7 1.4c3.9 0 18.5-1.2 20.6-1.6 2.1-.5 5.8-.9 6.7-3.2.9-2.3-.7-6.3-.7-6.3s-1.6-1.6-4.2-3.2c-2.5-1.6-4.6-3-7.9-4.6-3.2-1.6-8.1.9-8.1.9l-11.7-2.9z" fill="#fff" stroke="#263238" stroke-miterlimit="10" stroke-linecap="round" stroke-linejoin="round"/><path d="M454.8 352.5s-1.9 3.5-6.7 6.7c-4.9 3.2-4.9 7.2-4.9 7.2" fill="#fff"/><path d="M454.8 352.5s-1.9 3.5-6.7 6.7c-4.9 3.2-4.9 7.2-4.9 7.2m14.7-31.6c-.1 3.8-.1 5-.1 5s-.5 1.6-.7 3.2c-.2 1.6.2 2.8.2 2.8m-16.199-110.9l5.3 4.6s5.6 37.8 7.2 47.5c1.6 9.7 5.1 19.7 4.6 34.5-.1 3.4-.2 6.3-.3 8.6m14.499-32.2c.7 3.6 1.3 6.5 1.4 7.2m2.5-75.6s-5.3 30.8-6.5 34.5c-1.2 3.7-2.1 10.7-1.9 12.3.1.9 1.7 8.6 3.2 15.8m3.801 16.2s-.5 3.5-1.4 9c-.9 5.6-3.7 23.6-3.7 23.6" stroke="#263238" stroke-miterlimit="10" stroke-linecap="round" stroke-linejoin="round"/><path d="M282.2 91.9s-13.6 6.4-13.3 12.1c.3 5.6.7 8.1.7 8.1s-15.8 4.7-16 10c-.2 5.4 2.8 12.3 2.3 13.8s-7.9 2.7-4.9 9.4 10.1 12.5 22.1 12.7c12 .1 18.9-9.9 19.2-19 .3-9 5.3-38.2 5.3-38.2l-15.4-8.9z" fill="#263238" stroke="#263238" stroke-miterlimit="10" stroke-linecap="round" stroke-linejoin="round"/><path d="M329.3 206.8s-.2 24.3-5.4 42.6-8.5 36.7-8.5 36.7-.7 10.6-2.8 20.1c-2.2 9.5-1.9 24.6-2.1 28.7-.1 4.1 0 7 0 7s-7.4.6-8.7.4c-1.4-.2-2.7-.9-2.7-.9s-3.5-32.1-3.2-40c.2-7.9.2-16.4.7-18.3.6-1.9 1.8-26.8.9-41.2-.9-14.4-8.5-17-14-23.5-5.4-6.5-8.3-13.4-8.3-13.4s33.5 3.9 54.1 1.8z" fill="#E8505B" stroke="#263238" stroke-miterlimit="10" stroke-linecap="round" stroke-linejoin="round"/><path d="M306.5 219.9s5.6-3.2 8.8-6.5l-8.8 6.5z" fill="#fff"/><path d="M306.5 219.9s5.6-3.2 8.8-6.5" stroke="#263238" stroke-miterlimit="10" stroke-linecap="round" stroke-linejoin="round"/><path d="M294.2 213.6s8.8 3.7 11.3 9.6c2.6 5.9.8 28.4-.3 37.6-1.1 9.2-2.9 17-4.8 22.6-1.9 5.6-11.3 51.1-11.3 51.1l-1.2 7.3s-4.3 1.4-5.9 1.2c-1.5-.2-4.2-1.7-4.2-1.7s-3.5-43.2-1.9-50.7 10.1-18.5 10.1-18.5.4-1.5-.1-3.9c-.4-2.4-12.4-25.3-15.7-42-3.3-16.7-1.6-21.9-1.6-21.9l11.6 2.8 9.5 1.3" fill="#E8505B"/><path d="M294.2 213.6s8.8 3.7 11.3 9.6c2.6 5.9.8 28.4-.3 37.6-1.1 9.2-2.9 17-4.8 22.6-1.9 5.6-11.3 51.1-11.3 51.1l-1.2 7.3s-4.3 1.4-5.9 1.2c-1.5-.2-4.2-1.7-4.2-1.7s-3.5-43.2-1.9-50.7 10.1-18.5 10.1-18.5.4-1.5-.1-3.9c-.4-2.4-12.4-25.3-15.7-42-3.3-16.7-1.6-21.9-1.6-21.9l11.6 2.8 9.5 1.3" stroke="#263238" stroke-miterlimit="10" stroke-linecap="round" stroke-linejoin="round"/><path d="M277.799 341.4s-1.9 11.6-3.8 16.7.9 9.6 5.2 10.4c4.3.8 9.3 0 10-4.3.7-4.3-.6-16.1-.5-18 .1-1.9-.7-4.4-.7-4.4s-6.1 2.5-10.2-.4z" fill="#fff" stroke="#263238" stroke-miterlimit="10" stroke-linecap="round" stroke-linejoin="round"/><path d="M289.2 364.2c.2-1.6.2-4.1.1-6.8-.6.9-2.6 3.2-7.2 3.5-4.4.3-6.8-2.7-7.7-4.1-.2.5-.3.9-.5 1.3-1.9 5.1.9 9.6 5.2 10.4 4.4.8 9.4 0 10.1-4.3zm21.199-22.3s3.8 5.3 10.1 10.1 9.8 5.6 9 7.3c-.9 1.7-8.6 1.9-14.1 1.6-5.5-.3-10.7-2.1-13-2.6-2.3-.5-5.4.5-6.1-2.1-.7-2.6 2.7-14.8 2.7-14.8s8.4.6 11.4.5z" fill="#fff" stroke="#263238" stroke-miterlimit="10" stroke-linecap="round" stroke-linejoin="round"/><path d="M329.5 359.2c.8-1.6-2.3-2.4-8.1-6.6-1.4.5-4.3 1.4-6.9 1.3-3.6-.1-16.4-6.8-16.4-6.8l-.6-.3c-.9 3.6-1.7 8-1.3 9.4.7 2.6 3.9 1.6 6.1 2.1 2.3.5 7.5 2.3 13 2.6 5.7.2 13.4.1 14.2-1.7zm-4.4-237.6s2.2.6 3.1 4.4c.9 3.8 1 43 1 43l-7.5 2.7-1.4-4.6 5.6-38.5s-.8-6.3-.8-7z" fill="#fff" stroke="#263238" stroke-miterlimit="10" stroke-linecap="round" stroke-linejoin="round"/><path d="M328.9 142.5c-.1-8-.4-15-.7-16.5-.9-3.8-3.1-4.4-3.1-4.4 0 .6.8 6.9.8 6.9l-2.1 14.6 5.1-.6z" fill="#D1D1D1" stroke="#263238" stroke-miterlimit="10" stroke-linecap="round" stroke-linejoin="round"/><path d="M324.6 138.6l6.4-.7s-1-9.9-2-12.4c-.9-2.5-4-3.9-4-3.9s.6 13.2-.4 17z" fill="#fff" stroke="#263238" stroke-miterlimit="10" stroke-linecap="round" stroke-linejoin="round"/><path d="M263.6 133.5l-9.8 60 3.4-.6 8.1-59.7-1.7.3z" fill="#999" stroke="#263238" stroke-miterlimit="10" stroke-linecap="round" stroke-linejoin="round"/><path d="M291 100.4s-1.9 11.9-3.7 15c-1.8 3-12.3 4.3-12.3 4.3s-7.4 1.3-6.2 7.5c1.2 6.2 8.5 44.3 8.1 45.4-.4 1.1-8.1 31.8-8.1 31.8s20.1 5.4 39.1 4.7c19-.8 21.5-2.2 21.5-2.2s-1.8-17.4-4.5-24.9c-2.7-7.4-4.6-14.2-4.6-14.8 0-.6 6.6-38.6 6.3-41.7-.3-3.1-1.6-4.9-5.4-5.4-3.8-.5-8.8-1.4-11.7-3.4-2.8-2-4.3-10-4.3-10s-7.9 1-14.2-6.3z" fill="#D1D1D1" stroke="#263238" stroke-miterlimit="10" stroke-linecap="round" stroke-linejoin="round"/><path d="M311.7 117.8c-.9-.4-1.6-.8-2.3-1.2-2.8-2-4.3-10-4.3-10s-7.8 1.1-14.1-6.2c0 0-1.9 11.9-3.7 15-.7 1.2-2.8 2.1-5 2.8 2.8 3.9 10.8 14.4 17.3 14.4 5.6-.1 10.1-9.5 12.1-14.8z" fill="#fff" stroke="#263238" stroke-miterlimit="10" stroke-linecap="round" stroke-linejoin="round"/><path d="M315.8 84.3s-1 6.3-1.7 11c-.7 4.6-6.4 13.1-10.1 13.8-3.7.7-6.9-.4-9.8-2.8-2.8-2.4-7.3-8.3-7.3-8.3s-4.4.1-6.8-4.3c-2.4-4.3-.2-6.6 1.4-7.1 1.6-.5 4.8-.6 4.8-.6s2.6-8.2 3.7-8.6c1.2-.4 6.4-1.2 9.2-3.6 2.8-2.4 6.1-9.3 8.2-9 2.1.3 8.8 9.5 8.9 10.9.3 1.3-.5 8.6-.5 8.6z" fill="#fff" stroke="#263238" stroke-miterlimit="10" stroke-linecap="round" stroke-linejoin="round"/><path d="M300.3 88.2c0 .9-.4 1.6-.9 1.6s-.9-.8-.8-1.6c0-.9.4-1.6.9-1.6.5-.1.8.7.8 1.6zm10.1.6c0 .9-.4 1.6-.9 1.6s-.9-.8-.8-1.6c0-.9.4-1.6.9-1.6s.9.7.8 1.6z" fill="#263238"/><path d="M307.3 93.9l-3.3 1m-5.7 1.8s1.2 3.8 6.6 3M296.2 84s3.3-1.5 6.8-.1m5.2.3s3-1.2 4.7 1" stroke="#263238" stroke-miterlimit="10" stroke-linecap="round" stroke-linejoin="round"/><path d="M308.4 68.6s-2.1 5.5-6.1 9.1c-4 3.5-11.7 4.7-11.7 4.7s-1.9 5-2.7 6.5c-.8 1.5-2.5 1.3-2.5 1.3s-2.5-1.8-7.2-4.9c-4.7-3-6.7-7.5-4.7-10.4 2-2.8 8.4-17.5 15.6-17.9 7.2-.4 20.6 2 23.4 4.6 2.8 2.6 8.3 12.8 8.8 15.7.5 2.9.9 3.1-1.1 4.4-2 1.3-4.3 2.6-4.3 2.6l-.2-5-7.3-10.7z" fill="#263238" stroke="#263238" stroke-miterlimit="10" stroke-linecap="round" stroke-linejoin="round"/><path d="M251 208.3s-4.5 18.8-3.4 21.9c1.1 3.1 20.9 13.7 26.1 15 5.2 1.3 10.9-.5 12.4-2.3 1.6-1.8-1.6-42.4-1.6-42.4l-30.8-7-2.7 14.8z" fill="#999" stroke="#263238" stroke-miterlimit="10" stroke-linecap="round" stroke-linejoin="round"/><path d="M276.6 201c-.2 2.4.9 16.5.9 16.5s-3.1 25.3-1.9 28.2c4.6.6 9.2-1.1 10.6-2.7 1.6-1.8-1.6-42.4-1.6-42.4l-5.9-1.4c-1.3.6-2.1 1.2-2.1 1.8z" fill="#999" stroke="#263238" stroke-miterlimit="10" stroke-linecap="round" stroke-linejoin="round"/><path d="M259.4 191.3s-8.5.4-8.9 2.6c-.4 2.2-2.6 11.8-.9 13.7 1.6 1.9 27.1 10 27.8 9.8.7-.1-1.1-14.1-.2-14.9.9-.8 7.3-2 7.3-2l-25.1-9.2z" fill="#999" stroke="#263238" stroke-miterlimit="10" stroke-linecap="round" stroke-linejoin="round"/><path d="M274.9 119.6s3-.9 4.4 6.3c1.5 7.2-.1 76.1-.1 76.1l3.6-.6s-1.7-71.5-1.6-74.6c.1-3-.8-6.5-2.7-7.5-1.9-1-3.6.3-3.6.3z" fill="#999" stroke="#263238" stroke-miterlimit="10" stroke-linecap="round" stroke-linejoin="round"/><path d="M277.1 119.8s-7.9-1.4-10.6-.5c-2.7.9-6.3 4.8-6.3 4.8l-1 14.1 19.3-.8-1.9-12.4" fill="#D1D1D1"/><path d="M277.1 119.8s-7.9-1.4-10.6-.5c-2.7.9-6.3 4.8-6.3 4.8l-1 14.1 19.3-.8-1.9-12.4" stroke="#263238" stroke-miterlimit="10" stroke-linecap="round" stroke-linejoin="round"/><path d="M262.2 137.9s11.4 37.4 12.2 38c.8.6 3.1-.1 3.7-.3.6-.2 38.3-40.4 38.3-40.4s3.7-2.4 5.3-3.9c1.6-1.5 3.3-7.2 3.3-7.2s5.7-1.8 6.4-1.9c.8-.2 2.5-1.3 2.5-1.3s-5.5-3.1-8-3.3c-2.5-.3-5.4 1.2-6.2 1.7-.8.6-8.2 14.4-8.2 14.4l-29.4 21.7-5.6-17.9-14.3.4z" fill="#fff" stroke="#263238" stroke-miterlimit="10" stroke-linecap="round" stroke-linejoin="round"/><path d="M331.4 122.3l-9.8 33.3 24.7 4.4 9.7-32.7-24.6-5zm24.6 5l8.6-9.4-13.6 34.3-4.7 7.8 9.7-32.7z" fill="#E8505B" stroke="#263238" stroke-miterlimit="10" stroke-linecap="round" stroke-linejoin="round"/><path d="M325.4 182.2s14.6-14 15-14.4c.4-.4 9.6-6.2 9.6-6.2l.8-4.6s1.7-3.1 2-3.7c.3-.6 2.1-12.1 1.2-11.5-.9.6-1.2.7-1.3 1.6-.2.9-1.7 9-1.7 9s-1.3-5.8-2.1-7.3-1.8.2-1.8.8c0 .6 1.6 8.4 1.6 8.4s-4.9-4-5.8-4.6c-.9-.5-1.2.8-.7 1.6s3.9 5.1 3.9 5.1l-.3 1.9s-3.4-2.4-4.4-2.8c-1-.4-1 .3-.4 1.4.6 1 1.2 2.4 1.2 2.4h-2.8s-3.7 4.7-3.8 5.7c-.2 1-.4 2.4-.4 2.4l-13.5 4.5 3.7 10.3zM223.2 306.5h-2.8v55.3h2.8v-55.3zm-137.4 0H83v55.3h2.8v-55.3zM212.7 212H90.1v81.8h122.6V212z" fill="#fff" stroke="#263238" stroke-miterlimit="10" stroke-linecap="round" stroke-linejoin="round"/><path d="M205 284.9H100.6v24.4H205v-24.4zm-104.4-37.8H79.2v62.2h21.4v-62.2z" fill="#fff" stroke="#263238" stroke-miterlimit="10" stroke-linecap="round" stroke-linejoin="round"/><path d="M226.3 247.1h-21.4v62.2h21.4v-62.2z" fill="#fff" stroke="#263238" stroke-miterlimit="10" stroke-linecap="round" stroke-linejoin="round"/><path d="M122.7 118.6s-12.4-1.6-11.1.4c1.3 2 4.2 2.4 4.2 2.4s-10 1.1-14 8.2-.7 5.3-.7 5.3-5.6 8-5.5 12.4c.2 4.4 3.3 2 3.3 2s-.5 10 1.5 12.4c2 2.4 3.5-.7 3.5-.7s4.4 5.8 8.6 7.8c4.2 2 4.9-1.3 4.9-1.3s10.8 5.8 16.8 5.6c6-.2 12.2-4.9 12.2-4.9s-.2 1.8 1.1 1.8 10-6.9 10-6.9-1.1 2.6 1.6.2 4.6-12 4.6-16.4c0-4.4-2.7-10.2-2.7-10.2s3.3 2.7 3.3.5-4.6-10.9-10.2-13.9c-5.6-2.9-9.1-3.3-9.1-3.3s2.9-1.6.4-2.7c-2.6-1.1-11.5-1.1-11.5-1.1s1.6-2.6-1.8-1.8c-3.7.7-9 2.5-9.4 4.2zm-8 139.4s-4 11.5-2.5 18c1.5 6.4 5.4 8.7 7.3 9.1 1.8.3 30.5 0 30.5 0l16-40.3-51.3 13.2z" fill="#263238" stroke="#263238" stroke-miterlimit="10" stroke-linecap="round" stroke-linejoin="round"/><path d="M123.6 165.4s1 5.8 0 9.3c-1 3.5-6.1 6.1-11.1 7.9-4.9 1.8-14.4 3.1-16 7.6-1.6 4.5-5.1 46.4-5.1 47.8 0 1.5 4.3 4 7.8 3.6 3.5-.3 7.8-7.4 7.8-7.4s3.8 23.1 5.8 24.3c2 1.2 6.3 0 6.3 0l45.7-13.2s10.2 3.5 15 1.5c4.8-2 5.4-5.8 4.1-11.2-1.3-5.4-10.4-39.4-12.4-46.2-2-6.8-4-10.2-6.6-11.7-2.6-1.5-13.2-.3-17.3-1-4.1-.7-9.1-9.7-9.1-13.4l-14.9 2.1z" fill="#999" stroke="#263238" stroke-miterlimit="10" stroke-linecap="round" stroke-linejoin="round"/><path d="M135.9 188.4c7.6-1.6 12.5-7.6 15-11.5-1.3 0-2.4-.1-3.2-.2-4.1-.7-9.1-9.7-9.1-13.4l-14.9 2.1s1 5.8 0 9.3c-.9 3.2-5.3 5.6-9.8 7.4 4.6 3.1 13.9 8.1 22 6.3z" fill="#fff" stroke="#263238" stroke-miterlimit="10" stroke-linecap="round" stroke-linejoin="round"/><path d="M125.3 137.2s.4 3.3 2 2.6c1.6-.7 6.7-5.8 6.7-5.8s-.4 3.1 3.1 4.9c3.5 1.8 2.2-.9 2.2-.9l4.4 5.5 1.1 8.6s.7 6.4-1.1 9.8c-1.8 3.5-6.4 7.8-10.2 8.4-3.8.5-7.1-1.3-9.8-4.7-2.7-3.5-4-6.2-4-6.2s-3.5-12.4-2-14.8c1.5-2.4 7.6-7.4 7.6-7.4z" fill="#fff" stroke="#263238" stroke-miterlimit="10" stroke-linecap="round" stroke-linejoin="round"/><path d="M117.8 151.1s-4.9-3.3-4.2 1.8c.7 5.1 5.3 3.5 5.3 3.5l-1.1-5.3zm26.8-2.6s2.7-2.2 3.5 0c.7 2.2-3.1 5.6-3.1 5.6l-.4-5.6z" fill="#fff" stroke="#263238" stroke-miterlimit="10" stroke-linecap="round" stroke-linejoin="round"/><path d="M128.2 152.8c0 .7-.4 1.2-.9 1.2s-.9-.6-.9-1.2c0-.7.4-1.2.9-1.2s.9.5.9 1.2zm9-.5c0 .7-.4 1.2-.9 1.2s-.9-.6-.9-1.2.4-1.2.9-1.2.9.5.9 1.2z" fill="#263238"/><path d="M124.1 148.4s1.4-2.2 5.2-1.3m4.1-.6s3.2-1.4 5.5 1.1m-12 12.9s6 3.9 10.7-1.1m-7.5-2.8s1.9 1.1 2.8.6c.9-.5.9-1.4.9-1.4" stroke="#263238" stroke-miterlimit="10" stroke-linecap="round" stroke-linejoin="round"/><path d="M97.9 246.8c2.1-.3 5.6-4.3 6.1-5.4.3-.6 1.6-9.1 2.8-17-2.9.6-6.1-1.1-8.4-2.7-2.2 3.9-4.2 7.3-4.7 7.7-1.2 1-4.6 7.9-3.5 12.7 1.3 4.7 5.6 5 7.7 4.7z" fill="#fff" stroke="#263238" stroke-miterlimit="10" stroke-linecap="round" stroke-linejoin="round"/><path d="M105.8 208.2s-2.6-12.9-1.5-13.5c1.2-.7 11.2-2 11.7-1.6.5.3 1 10.4 1 10.4l-3.6 1.3s.5 2.5-.5 3.6c-1 1.2-4.1 2.5-4.1 2.5s-4.3 29.4-4.8 30.5c-.5 1.2-4 5.1-6.1 5.4-2.1.3-6.4 0-7.6-4.8-1.2-4.8 2.3-11.7 3.5-12.7 1.1-1 12-21.1 12-21.1z" fill="#fff" stroke="#263238" stroke-miterlimit="10" stroke-linecap="round" stroke-linejoin="round"/><path d="M111.6 193.2s1.3-2.3 1.8-3.6c.5-1.3 1.8-1 2.3.5.5 1.5.3 3 .3 3l-4.4.1zm18.3-3.8h-13.2v18h13.2v-18zm37.5 12s1-2.5 2.4-3.4c1.4-.9 18.4-6.9 18.4-6.9l-20.8 10.3zm0 0s-2.5-3.1-3.6-3.4c-1.2-.3-24.6-4.9-24.6-4.9l28.2 8.3z" fill="#fff" stroke="#263238" stroke-miterlimit="10" stroke-linecap="round" stroke-linejoin="round"/><path d="M139.2 193.2L134 225l28.1 8.9 5.3-32.5-28.2-8.2zm28.201 8.2l22.9-10.7-5.9 35-22.3 8.2 5.3-32.5z" fill="#E8505B" stroke="#263238" stroke-miterlimit="10" stroke-linecap="round" stroke-linejoin="round"/><path d="M175.6 234.3s-7.4-9.1-8.2-9.2c-.8-.2-1.3 1.3-.7 2.5.7 1.2 4.6 6.8 4.6 6.8s-6.8-6.3-7.8-6.8-2.1.7-2 1.6c.2 1 6.3 7.6 6.3 7.6s-8.2-5.4-8.9-5.8c-.7-.3-1 1.3-.2 2.1s1.8 2.5 1.8 2.5 2.6 3.6 3.1 4.1c.5.5 2 3 4.3 2.6 2.3-.3 7.4-3.5 8.1-5.3.8-1.7-.4-2.7-.4-2.7z" fill="#fff" stroke="#263238" stroke-miterlimit="10" stroke-linecap="round" stroke-linejoin="round"/><path d="M160.601 235.6l6 4.9" stroke="#263238" stroke-miterlimit="10" stroke-linecap="round" stroke-linejoin="round"/><path d="M169.201 243.2s9.2 5.3 15.3 14.2c6.1 8.9 6.8 17.8 3.6 22.8-3.1 4.9-7.8 5.3-10.9 5.3h-12.2s-.3-8.9-2.1-12.2c-1.8-3.3-9.2-4.3-13.5-9.9-4.3-5.6-2.8-20.6 5.3-22.8 8.1-2.2 14.5 2.6 14.5 2.6z" fill="#263238" stroke="#263238" stroke-miterlimit="10" stroke-linecap="round" stroke-linejoin="round"/><path d="M160.6 264.6s4.1 2.5 5.8 12.5c1.6 10.1.7 44.2.7 50.3 0 6.1 1.2 13 1.2 13l-11.9 1.6s-4.1-15.8-8.4-34.2c-4.3-18.3-5.8-28.5-1.3-37.8 4.3-9 13.9-5.4 13.9-5.4z" fill="#263238" stroke="#263238" stroke-miterlimit="10" stroke-linecap="round" stroke-linejoin="round"/><path d="M167 253.6s-3.8 11.2-11.2 22.1c-7.4 10.9-16.5 20.1-19 23.6s-9.1 13.4-9.1 13.4l-9.9-8.7s9.6-17 13.5-26.4c4-9.4 14.4-35.3 20.3-38.1 5.9-2.8 9.1-2.1 16.3 3l4 4" fill="#263238"/><path d="M167 253.6s-3.8 11.2-11.2 22.1c-7.4 10.9-16.5 20.1-19 23.6s-9.1 13.4-9.1 13.4l-9.9-8.7s9.6-17 13.5-26.4c4-9.4 14.4-35.3 20.3-38.1 5.9-2.8 9.1-2.1 16.3 3l4 4" stroke="#263238" stroke-miterlimit="10" stroke-linecap="round" stroke-linejoin="round"/><path d="M117.9 303.9s-5.9 1.5-10.1 1.5c-4.1 0-13.9-4.5-15-2-1.2 2.5 4.3 10.6 7.6 14.2 3.3 3.6 6.4 7.1 8.9 9.7 2.5 2.6 5.1 3.5 6.8 2.8 1.6-.7 11.7-17.5 11.7-17.5l-9.9-8.7z" fill="#fff" stroke="#263238" stroke-miterlimit="10" stroke-linecap="round" stroke-linejoin="round"/><path d="M112.6 323.7c-2-2.1-8.4-12-11.7-16.3-1.8-2.4-4.2-3.9-5.9-4.7-1.1-.1-1.9.1-2.2.7-1.2 2.5 4.3 10.6 7.6 14.2 3.3 3.6 6.4 7.1 8.9 9.7 2.5 2.6 5.1 3.5 6.8 2.8.3-.1 1-.9 1.9-2.1-1.9-1.2-4.2-3.1-5.4-4.3z" fill="#fff" stroke="#263238" stroke-miterlimit="10" stroke-linecap="round" stroke-linejoin="round"/><path d="M95.9 306c-2.5-3.3-2.8-1.2-2.8-1.2l-.5-.2c.4 3.3 4.8 9.8 7.7 12.9 3.3 3.6 6.4 7.1 8.9 9.7 2.5 2.6 5.1 3.5 6.8 2.8 0 0-4.1-3-7.4-6.3-3.3-3.1-10.2-14.4-12.7-17.7z" fill="#999" stroke="#263238" stroke-miterlimit="10" stroke-linecap="round" stroke-linejoin="round"/><path d="M156.3 342.2s-.7 7.3-1.8 12.4c-1.2 5.1 1.5 8.4 3.3 9.2 1.8.8 12.9.2 14.5-.3 1.6-.5 3.6-2 2-7.3s-6.1-15.7-6.1-15.7l-11.9 1.7z" fill="#fff" stroke="#263238" stroke-miterlimit="10" stroke-linecap="round" stroke-linejoin="round"/><path d="M172.3 363.5c1.2-.3 2.5-1.2 2.6-3.5-10.4 2.7-17.4 1.5-19.8.9.7 1.5 1.8 2.5 2.7 2.9 1.8.8 12.9.2 14.5-.3z" fill="#fff" stroke="#263238" stroke-miterlimit="10" stroke-linecap="round" stroke-linejoin="round"/></svg>