<svg width="213" height="39" fill="none" xmlns="http://www.w3.org/2000/svg"><path fill="#F95151" d="M0 0h15v39H0z"/><path fill="#A551F9" d="M19 30h15v9H19z"/><path fill="#519EF9" d="M19 0h15v24H19z"/><path d="M54.016 31.384c-1.77 0-3.488-.235-5.152-.704-1.643-.49-2.965-1.12-3.968-1.888l1.76-3.904c.96.704 2.101 1.27 3.424 1.696a12.86 12.86 0 003.968.64c1.472 0 2.56-.213 3.264-.64.704-.448 1.056-1.035 1.056-1.76 0-.533-.213-.97-.64-1.312-.405-.363-.939-.65-1.6-.864-.64-.213-1.515-.448-2.624-.704-1.707-.405-3.104-.81-4.192-1.216a6.931 6.931 0 01-2.816-1.952c-.768-.896-1.152-2.09-1.152-3.584 0-1.301.352-2.475 1.056-3.52.704-1.067 1.76-1.91 3.168-2.528 1.43-.619 3.168-.928 5.216-.928 1.43 0 2.827.17 4.192.512 1.365.341 2.56.832 3.584 1.472l-1.6 3.936c-2.07-1.173-4.139-1.76-6.208-1.76-1.45 0-2.528.235-3.232.704-.683.47-1.024 1.088-1.024 1.856s.395 1.344 1.184 1.728c.81.363 2.037.725 3.68 1.088 1.707.405 3.104.81 4.192 1.216a6.817 6.817 0 012.784 1.92c.79.875 1.184 2.059 1.184 3.552a6.13 6.13 0 01-1.088 3.52c-.704 1.045-1.77 1.877-3.2 2.496-1.43.619-3.168.928-5.216.928zm12.694-17.6h4.992V31H66.71V13.784zm2.496-2.4c-.917 0-1.664-.267-2.24-.8a2.595 2.595 0 01-.864-1.984c0-.79.288-1.45.864-1.984.576-.533 1.323-.8 2.24-.8.918 0 1.664.256 2.24.768.576.512.864 1.152.864 1.92 0 .832-.288 1.525-.864 2.08-.576.533-1.322.8-2.24.8zM87.44 30.168c-.49.363-1.098.64-1.824.832a9.48 9.48 0 01-2.24.256c-2.048 0-3.637-.523-4.768-1.568-1.11-1.045-1.664-2.581-1.664-4.608v-7.072h-2.656v-3.84h2.656V9.976h4.992v4.192h4.288v3.84h-4.288v7.008c0 .725.182 1.29.544 1.696.384.384.918.576 1.6.576.79 0 1.462-.213 2.016-.64l1.344 3.52zm19.135-7.712c0 .064-.032.512-.096 1.344H93.454c.235 1.067.79 1.91 1.664 2.528.875.619 1.963.928 3.264.928.896 0 1.686-.128 2.368-.384a5.943 5.943 0 001.952-1.28l2.656 2.88c-1.621 1.856-3.989 2.784-7.104 2.784-1.941 0-3.658-.373-5.152-1.12-1.493-.768-2.645-1.824-3.456-3.168-.81-1.344-1.216-2.87-1.216-4.576 0-1.685.395-3.2 1.184-4.544a8.4 8.4 0 013.296-3.168c1.408-.768 2.976-1.152 4.704-1.152 1.686 0 3.211.363 4.576 1.088a7.806 7.806 0 013.2 3.136c.79 1.344 1.184 2.912 1.184 4.704zm-8.928-5.152c-1.13 0-2.08.32-2.848.96-.768.64-1.237 1.515-1.408 2.624h8.48c-.17-1.088-.64-1.952-1.408-2.592-.768-.661-1.706-.992-2.816-.992zm31.778-3.776c2.134 0 3.851.64 5.152 1.92 1.323 1.28 1.984 3.179 1.984 5.696V31h-4.992v-9.088c0-1.365-.298-2.379-.896-3.04-.597-.683-1.461-1.024-2.592-1.024-1.258 0-2.261.395-3.008 1.184-.746.768-1.12 1.92-1.12 3.456V31h-4.992V13.784h4.768V15.8c.662-.725 1.483-1.28 2.464-1.664.982-.405 2.059-.608 3.232-.608zm18.605 0c2.667 0 4.715.64 6.144 1.92 1.43 1.259 2.144 3.168 2.144 5.728V31h-4.672v-2.144c-.938 1.6-2.688 2.4-5.248 2.4-1.322 0-2.474-.224-3.456-.672-.96-.448-1.696-1.067-2.208-1.856-.512-.79-.768-1.685-.768-2.688 0-1.6.598-2.859 1.792-3.776 1.216-.917 3.083-1.376 5.6-1.376h3.968c0-1.088-.33-1.92-.992-2.496-.661-.597-1.653-.896-2.976-.896-.917 0-1.824.15-2.72.448-.874.277-1.621.661-2.24 1.152l-1.792-3.488c.939-.661 2.059-1.173 3.36-1.536a15.303 15.303 0 014.064-.544zm-.384 14.368c.854 0 1.611-.192 2.272-.576.662-.405 1.131-.992 1.408-1.76V23.8h-3.424c-2.048 0-3.072.672-3.072 2.016 0 .64.246 1.152.736 1.536.512.363 1.206.544 2.08.544zm35.238-14.368c2.155 0 3.862.64 5.12 1.92 1.28 1.259 1.92 3.157 1.92 5.696V31h-4.992v-9.088c0-1.365-.288-2.379-.864-3.04-.554-.683-1.354-1.024-2.4-1.024-1.173 0-2.101.384-2.784 1.152-.682.747-1.024 1.867-1.024 3.36V31h-4.992v-9.088c0-2.71-1.088-4.064-3.264-4.064-1.152 0-2.069.384-2.752 1.152-.682.747-1.024 1.867-1.024 3.36V31h-4.992V13.784h4.768v1.984a6.332 6.332 0 012.336-1.664c.939-.384 1.963-.576 3.072-.576 1.216 0 2.315.245 3.296.736a5.717 5.717 0 012.368 2.08 7.097 7.097 0 012.656-2.08c1.088-.49 2.272-.736 3.552-.736zm28.566 8.928c0 .064-.032.512-.096 1.344H198.33c.235 1.067.79 1.91 1.664 2.528.875.619 1.963.928 3.264.928.896 0 1.686-.128 2.368-.384a5.943 5.943 0 001.952-1.28l2.656 2.88c-1.621 1.856-3.989 2.784-7.104 2.784-1.941 0-3.658-.373-5.152-1.12-1.493-.768-2.645-1.824-3.456-3.168-.81-1.344-1.216-2.87-1.216-4.576 0-1.685.395-3.2 1.184-4.544a8.408 8.408 0 013.296-3.168c1.408-.768 2.976-1.152 4.704-1.152 1.686 0 3.211.363 4.576 1.088a7.806 7.806 0 013.2 3.136c.79 1.344 1.184 2.912 1.184 4.704zm-8.928-5.152c-1.13 0-2.08.32-2.848.96-.768.64-1.237 1.515-1.408 2.624h8.48c-.17-1.088-.64-1.952-1.408-2.592-.768-.661-1.706-.992-2.816-.992z" fill="#000"/></svg>