<svg width="690" height="428" fill="none" xmlns="http://www.w3.org/2000/svg"><g clip-path="url(#clip0_3_1454)"><path d="M669.5 414.6c0 .1-142.4.3-318 .3-175.7 0-318-.1-318-.3 0-.2 142.4-.3 318-.3s318 .2 318 .3z" fill="#263238"/><path d="M54.1 427l25-15.5 1.1-3.8L51.4 427c0-.1 1.4.8 2.7 0zm74.4-12l.1-3.2 38 1s1.3.5 1.5 2.1l-39.6.1z" fill="#263238"/><path d="M229.5 314.7h-20.3v81.1h20.3v-81.1zm29.8 17.7H239v63.4h20.3v-63.4zm30.3 14.4h-20.3v48.9h20.3v-48.9zm28.1 19.9h-20.3v29h20.3v-29z" fill="#E0E0E0"/><path d="M570.5 83.3l59.4 3c-1.6 32.6-29.8 58.1-62.4 56.4-32.6-1.6-58.1-29.8-56.4-62.4 1.6-32.6 29.8-58.1 62.4-56.4 5.2.3 10.3 1.2 15.3 2.8l-18.3 56.6z" fill="#F5F5F5"/><path d="M601 29.4l-16.1 43.2 45.5.7c0 .1-1.3-26.3-29.4-43.9zM54.7 250.6v-43.9c24.1 0 43.9 19.8 43.9 43.9 0 24.1-19.8 43.9-43.9 43.9-23.7 0-43.4-19.2-43.9-42.9l43.9-1z" fill="#E0E0E0"/><path d="M43.9 238.8l-43.9 1c0-11.4 4.5-23.4 12.5-31.6 8-8.2 19.4-13 30.8-13.3l.6 43.9z" fill="#F5F5F5"/><path d="M647.5 135.3L654 124l6.6-11.3 6.5 11.3 6.5 11.3h-9V179h-8l-.1-43.7h-9z" fill="#E0E0E0"/><path d="M672.3 97.4l4.1-7 4-7.1 4.1 7 4 7-5.6.1v27H678l-.1-27h-5.6z" fill="#F5F5F5"/><path d="M580.4 300c-5.3-3.3-11.3-5.4-17.5-6-2.9-.3-6-.2-8.3 1.5-.5.4-1 .9-.9 1.5.1.4.5.8.8 1 7.2 5.4 18 6.1 25.9 2zm-.4-.5c-4-3.1-7.9-6.2-11.3-9.9-3.4-3.7-6.1-8.2-7.1-13.1-.3-1.5-.4-3.2.6-4.4 8.9 7 16 16.1 17.8 27.4z" fill="#E8505B"/><path d="M580.3 299.9c-.7-4.9-.9-10 .2-14.8 1.1-4.8 3.8-9.5 7.9-12.2 1.6 3.6.9 7.8-.2 11.6-1.7 5.9-4.4 11.5-7.8 16.5m8.8 14.7c-5.4.7-10 3.5-14 7.1-4 3.6-6.9 8.5-8 13.8 5.3-.3 9.7-4 13-8.2 3.1-4.1 5.3-8.7 9-12.7zm1.9 2.6c-4.3-10.6-2.8-23.5 4-32.7 3 10.8 1.9 23-4 32.7zm11.6 13.9c-4.9-.3-9.8.9-14 3.3-4.2 2.4-7.7 6.1-9.9 10.5-.3.6-.6 1.3-.2 1.9.3.5 1 .5 1.6.5 4.7-.3 8.9-3.1 12.3-6.4 3.5-3.2 6.5-7 10.3-9.8m-.4-.8c-2.5-8-2.7-16.8-.4-24.9.9-3.2 2.4-6.6 5.3-8.1.3-.1.5-.2.8-.1.3.1.4.4.5.6 1.1 2.2 1.4 4.7 1.3 7.1-.1 2.4-.6 4.8-1.1 7.2-.9 4.4-1.4 9.2-3.9 13-.6.9-1.1 1.9-1.5 2.9-.5 1-.5 1.3-.9 2.1m30.8 4.8c-2.3-8.7.1-19.3 5.6-26.4.4-.5.9-1.1 1.6-1 1 .1 1.3 1.4 1.2 2.5-.4 8.8-3.3 17.6-8.4 24.9zm2.8 1.9c10.6 2.8 22.7.1 31.5-6.4-5.2-2.6-11.4-3.4-17.1-2.1-5.7 1.3-10.9 3.9-14.4 8.5zm2.3-5.8c5.9-9.7 17.3-16 28.6-16.5-1.3 4.6-5.1 8.2-9.4 10.3-4.3 2.2-9 3.1-13.7 4-1.8.4-4.3.8-5.5 2.2zm-4.5-28.1c1.6-5.5 3.2-11 3.7-16.8.4-5.7-.4-11.7-3.3-16.6-5.5 10.7-6.1 23.2-.5 33.9m18.7-9.9c6.5-11.8 19.7-21.2 33-22.5-5.1 12.8-19.2 22.7-33 22.5zm-4.1 2.3c9.7 1.5 17.9 7.6 26.9 11.4 1.9.8 4 1.4 6.1 1.2 2.1-.3 4.1-1.7 4.6-3.7.4-1.7-.4-3.5-1.6-4.7-1.2-1.2-2.8-2-4.4-2.7-9.8-4.1-20.4-4.2-30.7-1.7" fill="#E8505B"/><path d="M642.8 303.6c2.2.6 2.9 1.8 4.7 3.2 5.9 5 12.9 8.6 20.4 10.5.8.2 1.8.3 2.2-.4.3-.6-.1-1.4-.5-1.9-3.1-3.9-7.6-6.6-12.3-8.4-4.7-1.8-8.8-3.9-14.4-3.4m-6.4-40.5c7.8 7.3 18.9 11.1 29.6 10.1.5 0 1-.1 1.3-.5.7-.8-.1-2.1-1-2.7-8.6-6.8-19.2-9.6-29.9-6.9z" fill="#E8505B"/><path d="M644 260c10.4-7.8 24.6-10.1 36.9-6.1-4.7 4.6-11.1 7-17.6 7.7-6.5.7-13 0-19.3-1.6zm-3-18.8c-.9-8.7-.3-15.5-.9-24.3 0-.7-.2-1.5-.8-1.8-.9-.3-1.7.8-2 1.7-2.6 8-1.2 17.3 3.7 24.2" fill="#E8505B"/><path d="M640.4 242.2c5.9-3.6 10.3-8.4 14.4-14 2.8-3.9 5.2-8.5 4.6-13.3-4-.1-7.8 2.1-10.4 5.2-2.6 3-4.1 6.8-5.3 10.6-1.1 3.8-1.9 7.7-3.3 11.5zm14.1-3.9c12.9-4.8 25-11.9 35.4-20.9-4.2-1.7-9.1-.7-13.3 1-9.7 3.9-17.6 10.5-22.3 19.8m-9.9 8.7c6.5.7 13.2 1.2 19.7.1 6.4-1.1 12.4-3.6 18.4-6.1.5-.2 1-.5 1.2-.9.2-.5 0-1.2-.4-1.6-.4-.4-1-.6-1.6-.7-6.5-1.8-13.5-1-19.8 1.2-6.5 2.1-11.7 4.7-17.5 8zM607.1 263c-4.5-9-4.2-19.5-.3-28.8 2.7 4.1 3 9.4 2.5 14.3s-2 10-2.1 14.9m-17.9-9.3c-11.1-.2-22.3 4.5-29.8 12.7 5.6.9 11.3-.6 16.3-3 5.1-2.5 9.5-5.9 14-9.4m-12.5-4.4c-5.4-.4-10.7-1.1-15.9.5-5.2 1.6-10 5.2-12.1 10.3 5.1.6 10.3-.7 14.9-2.8 4.6-2.1 8.9-5 13.1-8zm17.7.2c-4.9-3.2-9.9-6.5-15.6-7.8-5.7-1.3-12.3-.3-16.3 4 4.6 2.7 10.2 3 15.6 3s11.9-.1 17 1.7" fill="#E8505B"/><path d="M595 250.5c-8.4-8.2-11.6-23-8.2-34.2 6.6 10 9.6 22.3 8.2 34.2zm23.1-23.3c1.6-3.7 2.7-7.5 4.1-11.3 1.4-3.7 3.2-7.4 5.9-10.4s6.4-5.2 10.4-5.4c-2.5 11.3-10 21.4-20.1 27.1m-4.5 4.8c-2.6-3.6-5.6-8.5-9.2-11.2-3.6-2.7-8.2-4.3-12.5-3.3 4.4 8 12.7 13.5 21.7 14.5zm.8-4.5c-1.7-4.4-3.4-8.8-4.1-13.4-.7-4.6-.3-9.6 2.1-13.6 4.6 8.7 6.1 18 2.3 27.1m3.1-27.1c2.6-8.6 10.5-15 19-17.9 1.1-.4 2.2-.7 3.3-.5 1.1.2 2.2.9 2.5 2.1.3 1.5-.9 2.8-2 3.8-6.7 5.6-14.5 9.9-22.8 12.5zm.1-7c.3-5.6.7-11.2 2.5-16.5 1.8-5.3 5.3-10.2 10.4-12.5.9 5.6-1.6 11.2-4.6 16-3 4.8-6.6 9.4-8.4 14.8m0 2c-2.2-6.3-2.4-14.3-6.1-19.7-2.6-3.8-6.8-6.4-9.1-10.5-1.5 3.8-1 8.1.5 11.9 1.6 3.8 4.2 7 7 10 2.7 2.9 5.1 5.1 7.7 8.3z" fill="#E8505B"/><path d="M618.1 382.2c-.2 0-.3-41.9-.3-93.5 0-51.7.1-93.5.3-93.5.2 0 .3 41.9.3 93.5s-.1 93.5-.3 93.5z" fill="#263238"/><path d="M654.7 256.7s-.5.2-1.6.6c-1.1.4-2.6.9-4.3 1.5-3.7 1.2-8.7 3-14.1 5.3s-10.5 4.2-13.4 6.7c-1.4 1.2-2.3 2.6-2.7 3.6-.4 1-.5 1.6-.5 1.6v-.4c0-.3.1-.7.3-1.2.4-1 1.2-2.5 2.6-3.8 1.5-1.3 3.5-2.5 5.8-3.6s4.9-2.2 7.6-3.3c5.5-2.2 10.5-4 14.2-5.1 1.8-.6 3.4-1 4.4-1.3 1.1-.5 1.7-.6 1.7-.6z" fill="#263238"/><path d="M666.7 227.2s-.1.2-.4.5c-.4.3-.8.8-1.3 1.3-1.2 1.1-2.9 2.7-5 4.6-4.3 3.9-10.2 9.1-16.7 14.9-6.5 5.8-12.2 11.3-16.1 15.5-2 2.1-3.5 3.8-4.5 5-.5.6-.9 1-1.2 1.4-.3.3-.4.5-.5.5 0 0 .1-.2.4-.5.3-.3.6-.8 1.1-1.5 1-1.3 2.5-3 4.4-5.2 3.8-4.3 9.4-9.9 16-15.7 6.5-5.8 12.5-11 16.8-14.7 2.1-1.8 3.9-3.3 5.1-4.4.6-.5 1-.9 1.4-1.2l.5-.5z" fill="#263238"/><path d="M636.2 254.3c-.2-.1 1.2-3.2 2.5-7.2 1.4-4 2-7.3 2.2-7.3.2 0-.2 3.5-1.6 7.5-.7 2-1.4 3.8-2 5-.6 1.3-1.1 2-1.1 2zm-18.1 25.4s-.4-.4-1-1.2c-.7-.9-1.5-2-2.6-3.3-2.2-2.8-5.2-6.7-8.5-10.9-3.4-4.2-6.4-8-8.7-10.7-1.1-1.3-1.9-2.4-2.6-3.3l-.9-1.2 1.1 1.1c.7.7 1.6 1.8 2.8 3.1 2.3 2.7 5.5 6.4 8.8 10.6 3.4 4.2 6.3 8.1 8.4 11 1 1.4 1.9 2.6 2.4 3.4.6.9.9 1.3.8 1.4z" fill="#263238"/><path d="M610.1 269.4c-.1.1-2.2-2.4-3.4-6.3-.8-2.7-.9-5.2-.8-6.3h.3c-.1.5-.2.7-.3.7 0 0-.1-.3 0-.8h.3c.1 1.1.3 3.5 1.1 6.2 1.1 3.7 3 6.4 2.8 6.5zm-10.3-13.1c-.1.1-.8-.8-2.3-1.4-1.6-.6-3.9-.7-6.5-.5-2.6.2-4.9.7-6.6 1.1-1.7.4-2.7.7-2.7.6 0-.1.9-.5 2.6-1.1 1.6-.5 4-1.1 6.6-1.3 2.6-.2 5.1 0 6.7.7 1.6.9 2.2 1.9 2.2 1.9zm-2.5-3.1c0 .1-1.4-.5-3.6-1.3s-5.4-1.6-9-1.8c-3.6-.3-6.8 0-9.2.5-2.3.4-3.7.8-3.8.7 0 0 .3-.2 1-.4.6-.2 1.6-.5 2.7-.8 2.3-.5 5.6-.9 9.3-.6 3.6.3 6.9 1.2 9.1 2 1.1.4 2 .8 2.6 1.2.6.2.9.4.9.5zm20.8-13.4c-.2 0-1.3-4-2.6-9.1s-2.2-9.2-2-9.3c.2 0 1.3 4 2.6 9.1 1.2 5.1 2.1 9.3 2 9.3z" fill="#263238"/><path d="M618.2 239.8c-.2.1-.9-2.7-2.9-5.5-1.9-2.8-4.4-4.3-4.3-4.4 0-.1.7.2 1.7.9.9.7 2.1 1.8 3.1 3.2 2.1 2.9 2.6 5.8 2.4 5.8zm-.1 120.1c-.1 0-.2-1-.7-2.8-.5-1.8-1.3-4.3-2.8-7.3-2.9-5.9-8.2-13.4-14.9-20.9-3.3-3.8-6.5-7.4-9.3-10.8-2.7-3.4-5-6.7-6.6-9.6-1.6-2.9-2.7-5.3-3.3-7.1-.3-.9-.5-1.6-.7-2-.1-.5-.2-.7-.2-.7.1 0 .4 1 1 2.7.7 1.7 1.8 4.1 3.5 7 1.7 2.8 3.9 6 6.7 9.4 2.7 3.4 6 6.9 9.3 10.7 6.7 7.5 12 15.1 14.8 21.1 1.4 3 2.2 5.6 2.6 7.4.2.9.3 1.6.4 2.1.2.5.2.8.2.8zm33.1-37.4s-.6.4-1.7 1-2.7 1.6-4.5 3c-1.8 1.4-3.8 3.2-5.9 5.4-2.1 2.2-4.2 4.7-6.4 7.5-4.4 5.5-8.4 10.3-10.9 14.2-1.2 1.9-2.1 3.5-2.7 4.7-.6 1.1-.9 1.8-1 1.7 0 0 0-.2.2-.5.1-.3.3-.8.6-1.4.5-1.2 1.4-2.8 2.6-4.8 2.4-4 6.4-8.9 10.8-14.3 2.2-2.7 4.3-5.3 6.5-7.5 2.1-2.2 4.2-4 6.1-5.3 1.9-1.4 3.5-2.3 4.6-2.8.6-.3 1-.5 1.4-.6.1-.3.3-.3.3-.3z" fill="#263238"/><path d="M651.8 334.6c0 .1-1.4.3-3.7.5-2.3.3-5.4.7-8.7 1.7-3.3 1.1-6 2.7-7.8 4.1-1.8 1.4-2.6 2.5-2.7 2.5 0 0 .1-.3.5-.8s1-1.2 1.9-2c1.7-1.5 4.5-3.2 7.9-4.3 3.4-1.1 6.6-1.4 8.8-1.6 2.4-.1 3.8-.2 3.8-.1z" fill="#263238"/><path d="M630 342.1c-.2-.1 1.5-2.6 2.7-6 1.2-3.4 1.5-6.4 1.7-6.4.1 0 .1.8-.1 2-.1 1.2-.4 2.9-1.1 4.6-.6 1.8-1.5 3.2-2.1 4.2-.5 1-1 1.6-1.1 1.6zm31.9-52.1l-.6.3c-.5.2-1 .5-1.7.8-.8.3-1.7.7-2.7 1.3-1 .5-2.2 1.1-3.5 1.8-.6.4-1.3.7-2 1.1-.7.4-1.4.9-2.1 1.3-1.5.9-2.9 2-4.5 3.1-3.1 2.3-6.3 5.1-9.4 8.3-3.1 3.2-5.7 6.6-8 9.7-1.1 1.6-2.1 3.1-3 4.6-.4.7-.9 1.4-1.3 2.2-.4.7-.7 1.4-1.1 2-.7 1.3-1.2 2.5-1.7 3.6-.5 1-.9 2-1.2 2.7-.3.7-.5 1.3-.7 1.7l-.3.6s0-.2.2-.6c.2-.5.4-1.1.6-1.8.3-.8.6-1.7 1.1-2.8.5-1.1 1-2.3 1.6-3.6.3-.7.7-1.4 1-2.1.4-.7.8-1.4 1.2-2.2.8-1.5 1.9-3.1 2.9-4.7 2.2-3.2 4.9-6.6 8-9.8 3.1-3.2 6.4-6 9.5-8.3 1.6-1.1 3.1-2.2 4.6-3.1.7-.5 1.4-.9 2.1-1.3.7-.4 1.4-.8 2-1.1 1.3-.7 2.5-1.3 3.6-1.8s2-.9 2.8-1.2c.7-.3 1.3-.5 1.8-.7.6 0 .8-.1.8 0z" fill="#263238"/><path d="M635.7 307.5c-.1 0 .2-1 1.4-2.1s3.3-2.2 5.8-2.2c2.5-.1 4.6.6 6.1 1.2s2.3 1.1 2.3 1.1c0 .1-1-.2-2.4-.7-1.5-.5-3.6-1.1-5.9-1-2.3.1-4.4 1-5.5 1.9-1.3.9-1.7 1.9-1.8 1.8zm-3.9 4c-.2-.1 1.3-2.3 1.6-5.4.4-3.1-.6-5.5-.4-5.6.1 0 .4.5.7 1.6.3 1 .5 2.5.3 4.1-.2 1.6-.7 3-1.2 3.9-.5 1-.9 1.5-1 1.4z" fill="#263238"/><path d="M589.2 365.9c.9 16 5.7 32.3 13.1 48.7h32.3c7.1-16.3 11.6-32.5 12.4-48.7h-57.8z" fill="#455A64"/><path d="M641.7 391.8c0 .2-10.6.3-23.7.3s-23.7-.1-23.7-.3c0-.2 10.6-.3 23.7-.3s23.7.1 23.7.3zm-.7 5.8c0 .2-10 .3-22.2.3-12.3 0-22.2-.1-22.2-.3 0-.2 10-.3 22.2-.3s22.2.1 22.2.3z" fill="#FAFAFA"/><path d="M555.3 390H401c-2.2 0-4-1.8-4-4v-67c0-2.2 1.8-4 4-4h154.4c2.2 0 4 1.8 4 4v67c0 2.2-1.8 4-4.1 4z" fill="#263238"/><path d="M408.4 366.8v2.4h-.2V367h-.6v-.2h.8zm.5 1.2c0-.8.4-1.2.9-1.2s.9.5.9 1.2c0 .8-.4 1.2-.9 1.2s-.9-.5-.9-1.2zm1.7 0c0-.6-.3-1-.7-1-.4 0-.7.3-.7 1 0 .6.3 1 .7 1 .4 0 .7-.4.7-1zm-1.3-13.8v.2h-1.7v-.2l1-1c.3-.3.3-.4.3-.6 0-.3-.2-.4-.6-.4-.3 0-.5.1-.6.3l-.2-.1c.2-.2.5-.3.8-.3.5 0 .8.2.8.6 0 .2-.1.4-.4.7l-.8.8h1.4zm.3-1c0-.8.4-1.2.9-1.2s.9.5.9 1.2c0 .8-.4 1.2-.9 1.2s-.9-.4-.9-1.2zm1.7 0c0-.6-.3-1-.7-1-.4 0-.7.3-.7 1 0 .6.3 1 .7 1 .4 0 .7-.3.7-1zm-2-14.2c0 .4-.3.7-.9.7-.3 0-.7-.1-.9-.3l.1-.2c.2.2.4.3.7.3.4 0 .6-.2.6-.5s-.2-.5-.6-.5h-.2v-.2l.7-.8h-1.2v-.2h1.5v.2l-.7.8c.6.1.9.3.9.7zm.3-.5c0-.8.4-1.2.9-1.2s.9.5.9 1.2c0 .8-.4 1.2-.9 1.2s-.9-.4-.9-1.2zm1.7 0c0-.6-.3-1-.7-1-.4 0-.7.3-.7 1 0 .6.3 1 .7 1 .4 0 .7-.4.7-1zm7.5 37.3c0-.8.4-1.2.9-1.2s.9.5.9 1.2c0 .8-.4 1.2-.9 1.2s-.9-.5-.9-1.2zm1.7 0c0-.6-.3-1-.7-1-.4 0-.7.3-.7 1 0 .6.3 1 .7 1 .4-.1.7-.4.7-1zm15.9-1.2v2.4h-.2v-2.2h-.6v-.2h.8zm18.5 2.1v.2h-1.7v-.2l1-1c.3-.3.3-.4.3-.6 0-.3-.2-.4-.6-.4-.3 0-.5.1-.6.3l-.2-.1c.2-.2.5-.3.8-.3.5 0 .8.2.8.6 0 .2-.1.4-.4.7l-.8.8h1.4zm17.5-.4c0 .4-.3.7-.9.7-.3 0-.7-.1-.9-.3l.1-.2c.2.2.4.3.7.3.4 0 .6-.2.6-.5s-.2-.5-.6-.5h-.2v-.2l.7-.8h-1.2v-.2h1.5v.2l-.7.8c.6 0 .9.3.9.7zm17.9 0h-.5v.6h-.2v-.6h-1.3v-.2l1.3-1.6h.3l-1.2 1.5h1v-.5h.2v.5h.5v.3h-.1zm17.2-.1c0 .4-.3.7-.9.7-.3 0-.7-.1-.9-.3l.1-.2c.2.2.4.3.7.3.4 0 .6-.2.6-.5s-.2-.5-.8-.5h-.5l.1-1.2h1.3v.2h-1.1l-.1.8h.3c.9 0 1.2.3 1.2.7zm17.7 0c0 .4-.3.7-.8.7-.6 0-1-.4-1-1.2 0-.8.4-1.2 1.1-1.2.2 0 .4 0 .6.1l-.1.2c-.1-.1-.3-.1-.5-.1-.5 0-.8.3-.8 1v.2c.1-.3.4-.4.7-.4.5 0 .8.3.8.7zm-.3 0c0-.3-.2-.5-.6-.5-.4 0-.6.2-.6.5s.2.5.6.5c.4.1.6-.1.6-.5zm17.7-1.6v.2l-1 2.2h-.3l1-2.2h-1.2v.4h-.2v-.7h1.7v.1zm.1-6.5c0 .1-27.4.2-61.3.2s-61.3-.1-61.3-.2 27.4-.2 61.3-.2 61.3.1 61.3.2zm0-14.8c0 .1-27.4.2-61.3.2s-61.3-.1-61.3-.2 27.4-.2 61.3-.2c33.9-.1 61.3 0 61.3.2zm0-14.8c0 .1-27.4.2-61.3.2s-61.3-.1-61.3-.2 27.4-.2 61.3-.2c33.9-.1 61.3 0 61.3.2z" fill="#455A64"/><path d="M420.2 367.9c0 .4-.4.8-.8.8s-.8-.4-.8-.8.4-.8.8-.8.8.3.8.8zm17.6 0c0 .4-.4.8-.8.8s-.8-.4-.8-.8.4-.8.8-.8.8.3.8.8zm17.6 0c0 .4-.4.8-.8.8s-.8-.4-.8-.8.4-.8.8-.8c.5 0 .8.3.8.8zm17.6 0c0 .4-.4.8-.8.8s-.8-.4-.8-.8.4-.8.8-.8c.5 0 .8.3.8.8zm17.7 0c0 .4-.4.8-.8.8s-.8-.4-.8-.8.4-.8.8-.8.8.3.8.8zm35.2 0c0 .4-.4.8-.8.8s-.8-.4-.8-.8.4-.8.8-.8.8.3.8.8zm-17.6 0c0 .4-.4.8-.8.8s-.8-.4-.8-.8.4-.8.8-.8.8.3.8.8zm35.2 0c0 .4-.4.8-.8.8s-.8-.4-.8-.8.4-.8.8-.8c.5 0 .8.3.8.8zm-115.3.2c0 .3-.2.5-.5.5s-.5-.2-.5-.5.2-.5.5-.5.5.2.5.5zm17.7 0c0 .3-.2.5-.5.5s-.5-.2-.5-.5.2-.5.5-.5.5.2.5.5zm17.7 0c0 .3-.2.5-.5.5s-.5-.2-.5-.5.2-.5.5-.5c.2 0 .5.2.5.5zm17.7 0c0 .3-.2.5-.5.5s-.5-.2-.5-.5.2-.5.5-.5c.2 0 .5.2.5.5zm17.6 0c0 .3-.2.5-.5.5s-.5-.2-.5-.5.2-.5.5-.5.5.2.5.5zm17.7 0c0 .3-.2.5-.5.5s-.5-.2-.5-.5.2-.5.5-.5.5.2.5.5zm17.7 0c0 .3-.2.5-.5.5s-.5-.2-.5-.5.2-.5.5-.5.5.2.5.5z" fill="#455A64"/><path d="M438.9 361.5c0 1.1-.9 1.9-1.9 1.9-1.1 0-1.9-.9-1.9-1.9 0-1.1.9-1.9 1.9-1.9 1.1 0 1.9.9 1.9 1.9zm15.4-9c0 1.1-.9 1.9-1.9 1.9-1.1 0-1.9-.9-1.9-1.9 0-1.1.9-1.9 1.9-1.9 1-.1 1.9.8 1.9 1.9zm19.1.8c0 1.1-.9 1.9-1.9 1.9-1.1 0-1.9-.9-1.9-1.9 0-1.1.9-1.9 1.9-1.9 1-.1 1.9.8 1.9 1.9zm18.6-16.5c0 1.1-.9 1.9-1.9 1.9-1.1 0-1.9-.9-1.9-1.9 0-1.1.9-1.9 1.9-1.9 1.1 0 1.9.8 1.9 1.9zm17.4 10.5c0 1.1-.9 1.9-1.9 1.9-1.1 0-1.9-.9-1.9-1.9 0-1 .9-1.9 1.9-1.9 1.1-.1 1.9.8 1.9 1.9zm17.6 2.8c0 1.1-.9 1.9-1.9 1.9-1 0-1.9-.9-1.9-1.9 0-1.1.9-1.9 1.9-1.9 1 0 1.9.8 1.9 1.9z" fill="#E8505B"/><path d="M543.5 361.5h-.5c-.3 0-.7-.1-1.3-.2-1.1-.2-2.9-.7-4.6-2.2-.9-.7-1.6-1.7-2.3-2.9-.6-1.2-1.4-2.4-2.4-3.7-1-1.2-2.3-2.4-4-2.8-.8-.2-1.8-.2-2.6.1-.9.3-1.7.8-2.4 1.4-1.5 1.3-2.6 3-4.1 4.7-.7.8-1.6 1.6-2.6 2.1-1.1.5-2.3.6-3.5.3-1.2-.3-2.1-1.3-2.6-2.4-.5-1.1-.8-2.3-1.1-3.5-.3-1.2-.5-2.4-1.1-3.6-.3-.6-.6-1.1-1.1-1.4-.5-.3-1.2-.3-1.8-.3-1.3.1-2.5.4-3.9.7-.7.1-1.3.2-2 .2s-1.4-.1-2.1-.4c-.7-.3-1.2-.8-1.7-1.4-.4-.6-.7-1.2-1-1.9-.6-1.3-.9-2.7-1.4-4-.3-.6-.5-1.3-.9-1.9-.4-.6-.9-1-1.5-1.3-.2 0-.3-.1-.5-.1h-.5c-.3 0-.6 0-.9.2-.6.3-1 .9-1.4 1.5-.7 1.2-1.2 2.6-1.6 4.1-.4 1.4-.8 2.9-1.1 4.3-.6 2.4-1.1 4.9-1.7 7.2-.3 1.2-.7 2.4-1.1 3.5-.4 1.1-.9 2.3-1.8 3.2-.5.4-1.1.8-1.7.8-.6 0-1.3-.2-1.8-.5-1.1-.6-1.8-1.6-2.5-2.5-1.3-1.9-2.2-4.1-3-6.1-.8-2-1.8-4-3.4-5.4-1.5-1.4-3.8-1.9-5.7-1.4-1 .2-1.9.7-2.7 1.2-.8.5-1.6 1.1-2.4 1.7-1.5 1.2-2.8 2.6-3.9 4-1.9 1.9-3.8 3.5-5.8 4.8-2 1.4-4 2.5-6 3.2-2 .7-4 1.2-5.8 1-1.8-.2-3.4-.7-4.9-1.2-2.8-1-4.9-2.1-6.3-2.9-.7-.4-1.2-.7-1.6-.9-.4-.2-.5-.3-.5-.3s.2.1.5.3c.4.2.9.5 1.6.9 1.4.7 3.5 1.8 6.3 2.8 1.4.5 3 1 4.8 1.1 1.8.2 3.8-.3 5.7-1 2-.8 3.9-1.9 5.9-3.2 1.9-1.4 3.9-3 5.7-4.8 1.2-1.4 2.5-2.8 4-4 .7-.6 1.5-1.2 2.4-1.7.9-.5 1.8-1 2.8-1.2 2-.5 4.4 0 6 1.5 1.7 1.5 2.6 3.5 3.5 5.6.8 2.1 1.7 4.2 3 6 .6.9 1.4 1.8 2.4 2.4.5.3 1 .5 1.6.5.5 0 1-.3 1.4-.6.8-.8 1.3-1.9 1.7-3 .4-1.1.8-2.3 1.1-3.5.6-2.4 1.1-4.8 1.7-7.2.3-1.5.7-2.9 1.1-4.4.4-1.4.9-2.9 1.7-4.2.4-.6.9-1.3 1.6-1.6.4-.2.8-.3 1.2-.2l.6.1c.2 0 .4.1.6.2.7.3 1.3.8 1.7 1.4.4.6.7 1.3 1 2 .5 1.3.9 2.7 1.4 4 .5 1.2 1.2 2.5 2.4 3 1.2.6 2.6.4 3.9.1 1.3-.2 2.6-.6 3.9-.7.7 0 1.4.1 2 .4.6.3 1 1 1.3 1.5.5 1.2.8 2.5 1.1 3.7.3 1.2.6 2.4 1.1 3.4.5 1.1 1.3 1.9 2.4 2.2 1.1.3 2.2.2 3.2-.3 1-.4 1.8-1.2 2.5-2 1.4-1.6 2.6-3.4 4.1-4.7.8-.6 1.6-1.2 2.6-1.4.9-.3 1.9-.3 2.8-.1 1.8.4 3.1 1.7 4.1 2.9 1 1.2 1.7 2.5 2.4 3.7.6 1.2 1.3 2.2 2.2 2.9 1.7 1.5 3.4 2 4.5 2.2.6.1 1 .2 1.3.2.2-.2.3-.2.3-.2z" fill="#E8505B"/><path d="M439.1 328.3c0 .1-6.8.2-15.3.2-8.4 0-15.3-.1-15.3-.2s6.8-.2 15.3-.2 15.3.1 15.3.2zm90.3-25.1h-330c-5.2 0-9.4-4.2-9.4-9.4V9.4c0-5.2 4.2-9.4 9.4-9.4h330c5.2 0 9.4 4.2 9.4 9.4v284.4c0 5.2-4.2 9.4-9.4 9.4z" fill="#263238"/><path d="M538.8 19.8c0 .1-78.1.2-174.3.2-96.3 0-174.4-.1-174.4-.2s78-.2 174.4-.2c96.2 0 174.3.1 174.3.2zm-329.5-8c1.16 0 2.1-.985 2.1-2.2 0-1.215-.94-2.2-2.1-2.2-1.16 0-2.1.985-2.1 2.2 0 1.215.94 2.2 2.1 2.2zm7.3 0c1.16 0 2.1-.985 2.1-2.2 0-1.215-.94-2.2-2.1-2.2-1.16 0-2.1.985-2.1 2.2 0 1.215.94 2.2 2.1 2.2zm9.4-2.2c0 1.2-.9 2.2-2.1 2.2-1.2 0-2.1-1-2.1-2.2 0-1.2.9-2.2 2.1-2.2 1.2 0 2.1 1 2.1 2.2zm226.3 141.5c-4.8-.6-9.7 1.1-14.4-.1-10.5-2.5-16.2-17.9-26.9-19.8-7.5-1.3-14.4 4.6-20.3 10.3-5.9 5.7-12.7 11.7-20.2 10.6-12.1-1.8-18.4-20.8-30.5-22.1-3.2-.3-6.4.7-9.6.5-10.3-.4-17.5-11.9-21.8-22.7-2.1-5.3-3.9-10.9-7-15.6-3-4.7-7.6-8.5-12.6-8.5-4.4-.1-8.5 2.7-11.5 6.4s-5 8.3-6.8 12.9c-8.1 20.2-16.1 44.9-21.9 66.1l215.1-.2c-1.3-6.9-6.8-17.1-11.6-17.8z" fill="#455A64"/><path d="M233.9 274.3c0 .8-.6 1.4-1.4 1.4-.8 0-1.4-.6-1.4-1.4 0-.8.6-1.4 1.4-1.4.8.1 1.4.7 1.4 1.4zm13.3.2c0 .1-2.4.3-5.3.3s-5.3-.1-5.3-.3c0-.1 2.4-.3 5.3-.3 2.9.1 5.3.2 5.3.3z" fill="#E8505B"/><path d="M266.2 274.3c0 .8-.6 1.4-1.4 1.4-.8 0-1.4-.6-1.4-1.4 0-.8.6-1.4 1.4-1.4.8.1 1.4.7 1.4 1.4zm13.3.2c0 .1-2.4.3-5.3.3s-5.3-.1-5.3-.3c0-.1 2.4-.3 5.3-.3 2.9.1 5.3.2 5.3.3z" fill="#455A64"/><path d="M231.6 73.9a1.8 1.8 0 100-3.6 1.8 1.8 0 000 3.6zm19-1.6c0 .1-3.1.3-6.9.3-3.8 0-6.9-.1-6.9-.3 0-.1 3.1-.3 6.9-.3 3.8.1 6.9.2 6.9.3z" fill="#E8505B"/><path d="M268 73.9a1.8 1.8 0 100-3.6 1.8 1.8 0 000 3.6zm18.9-1.6c0 .1-3.1.3-6.9.3-3.8 0-6.9-.1-6.9-.3 0-.1 3.1-.3 6.9-.3 3.9.1 6.9.2 6.9.3z" fill="#455A64"/><path d="M234.1 56.9h-2.9l-.6 1.3h-1.5L232 52h1.4l2.8 6.2h-1.5l-.6-1.3zm-.4-1.1l-1-2.4-1 2.4h2zm8-.3v2.7h-1.4v-2.5c0-.8-.4-1.1-1-1.1-.7 0-1.1.4-1.1 1.3v2.4h-1.4v-4.8h1.3v.5c.4-.4.9-.6 1.6-.6 1.1 0 2 .7 2 2.1zm5.5 0v2.7h-1.3v-.6c-.3.4-.8.7-1.5.7-1.1 0-1.8-.6-1.8-1.5 0-.8.6-1.4 2.1-1.4h1.1c0-.6-.4-.9-1.1-.9-.5 0-1 .2-1.4.4l-.5-1c.5-.4 1.3-.6 2.1-.6 1.4.1 2.3.8 2.3 2.2zm-1.4 1.3v-.5h-1c-.7 0-.9.2-.9.6 0 .3.3.6.8.6.5-.1.9-.3 1.1-.7zm2.6-5.1h1.4v6.6h-1.4v-6.6zm7.5 1.8l-2.2 5.1c-.5 1.2-1.1 1.5-2 1.5-.5 0-1-.2-1.3-.4l.5-1c.2.2.5.3.8.3.4 0 .6-.2.8-.6l-2.1-4.8h1.4l1.3 3.3 1.4-3.3h1.4v-.1zm3.7 4.5c-.3.2-.7.3-1.1.3-1.1 0-1.8-.6-1.8-1.7v-2h-.7v-1.1h.7v-1.2h1.4v1.2h1.2v1.1h-1.2v2c0 .4.2.6.6.6.2 0 .4-.1.6-.2l.3 1zm.7-6c0-.4.3-.8.9-.8.5 0 .9.3.9.7 0 .5-.3.8-.9.8-.6.1-.9-.2-.9-.7zm.1 1.5h1.4v4.8h-1.4v-4.8zm2.4 2.4c0-1.4 1.1-2.5 2.7-2.5 1 0 1.8.4 2.1 1.2l-1.1.6c-.3-.5-.6-.7-1.1-.7-.7 0-1.3.5-1.3 1.3s.6 1.3 1.3 1.3c.4 0 .8-.2 1.1-.7l1.1.6c-.3.8-1.1 1.2-2.1 1.2-1.6.1-2.7-.9-2.7-2.3zm5.1 1.9l.5-1c.4.3 1.1.5 1.7.5.6 0 .9-.2.9-.4 0-.8-2.9 0-2.9-1.9 0-.9.8-1.6 2.2-1.6.7 0 1.4.2 1.8.4l-.5 1c-.5-.3-.9-.4-1.4-.4-.6 0-.9.2-.9.4 0 .8 2.9 0 2.9 1.9 0 .9-.8 1.5-2.3 1.5-.7.1-1.5-.1-2-.4z" fill="#E0E0E0"/><path d="M232.4 93.7v.7h-2.9v-.6l1.5-1.4c.3-.3.4-.5.4-.7 0-.3-.2-.5-.6-.5-.3 0-.6.1-.8.4l-.7-.4c.3-.4.8-.7 1.5-.7.9 0 1.4.4 1.4 1.1 0 .4-.1.7-.6 1.2l-.9.8h1.7v.1zm.4-1.2c0-1.3.7-2 1.7-2s1.7.7 1.7 2-.7 2-1.7 2-1.7-.8-1.7-2zm2.4 0c0-.9-.3-1.3-.8-1.3-.4 0-.8.4-.8 1.3s.3 1.2.8 1.2.8-.4.8-1.2zm2.8.7l-.4.4v.8h-.9v-4.1h.9v2.3l1.3-1.2h1l-1.2 1.3 1.4 1.7h-1l-1.1-1.2zm-7 15.9v3.9h-.9v-3.2h-.8v-.7h1.7zm3.6 2.7c0 .7-.5 1.3-1.6 1.3-.5 0-1.1-.1-1.5-.4l.4-.7c.3.2.7.4 1.1.4.5 0 .7-.2.7-.5s-.2-.5-.9-.5h-1l.2-2.2h2.4v.7h-1.6l-.1.7h.3c1.2 0 1.6.5 1.6 1.2zm1.9 0l-.4.4v.8h-.9v-4.1h.9v2.3l1.3-1.2h1l-1.2 1.3 1.4 1.7h-1l-1.1-1.2zm-5.5 16v3.9h-.9v-3.2h-.8v-.7h1.7zm.7 1.9c0-1.3.7-2 1.7-2s1.7.7 1.7 2-.7 2-1.7 2-1.7-.7-1.7-2zm2.4 0c0-.9-.3-1.3-.8-1.3-.4 0-.8.4-.8 1.3s.3 1.2.8 1.2.8-.3.8-1.2zm2.8.8l-.4.4v.8h-.9v-4.1h.9v2.3l1.3-1.2h1l-1.2 1.3 1.4 1.7h-1l-1.1-1.2zm-4.4 18.5c0 .7-.5 1.3-1.6 1.3-.5 0-1.1-.1-1.5-.4l.4-.7c.3.2.7.4 1.1.4.5 0 .7-.2.7-.5s-.2-.5-.9-.5h-1l.2-2.2h2.4v.7h-1.6l-.1.7h.3c1.1 0 1.6.5 1.6 1.2zm1.8.1l-.4.4v.8h-.9v-4.1h.9v2.3l1.3-1.2h1l-1.2 1.3 1.4 1.7h-1l-1.1-1.2zm-4.8 17.8c0-1.3.7-2 1.7-2s1.7.7 1.7 2-.7 2-1.7 2-1.7-.7-1.7-2zm2.4 0c0-.9-.3-1.3-.8-1.3-.4 0-.8.4-.8 1.3s.3 1.2.8 1.2c.5.1.8-.3.8-1.2zm2.9.8l-.4.4v.8h-.9v-4.1h.9v2.3l1.3-1.2h1l-1.2 1.3 1.4 1.7h-1l-1.1-1.2zm271.3-74.5c0 .1-59.5.3-132.9.3s-133-.1-133-.3c0-.2 59.5-.3 133-.3 73.4 0 132.9.2 132.9.3zm0 19c0 .1-59.5.3-132.9.3s-133-.1-133-.3c0-.2 59.5-.3 133-.3 73.4 0 132.9.1 132.9.3zm0 19c0 .1-59.5.3-132.9.3s-133-.1-133-.3c0-.1 59.5-.3 133-.3 73.4 0 132.9.1 132.9.3zm0 19c0 .1-59.5.3-132.9.3s-133-.1-133-.3c0-.2 59.5-.3 133-.3 73.4 0 132.9.1 132.9.3zm0 19c0 .1-59.5.3-132.9.3s-133-.1-133-.3c0-.1 59.5-.3 133-.3 73.4 0 132.9.1 132.9.3z" fill="#455A64"/><path d="M241.5 169.2c13.6-1.8 25.4-7.3 35.6-13.1 10.2-5.8 19-12.5 28.6-18.6 3.8-2.4 8.3-4.9 13.7-4.8 5.5.1 10 2.9 12.7 5.8 2.7 2.9 4.3 6.3 7.7 8.9 1.9 1.5 4.7 2.9 7.8 2.9 4.6 0 8.2-3 12.8-2.9 6 .1 8.8 4.8 14.4 6.1 4.5 1.1 9.7-.3 13.4-2.1 3.8-1.9 7-4.2 11.3-5.6 6.8-2.2 15.3-1.4 22.1.7 6.8 2.1 10.9 7.1 16.2 10.5 7.1 4.4 15.6 11 23.1 12.2H241.5z" fill="#E8505B"/><path d="M252.7 257.5c-13.6 0-24.6-11-24.6-24.6 0-13.6 11-24.6 24.6-24.6 13.6 0 24.6 11 24.6 24.6 0 13.5-11.1 24.6-24.6 24.6zm0-44.2c-10.8 0-19.6 8.8-19.6 19.6s8.8 19.6 19.6 19.6 19.6-8.8 19.6-19.6-8.8-19.6-19.6-19.6z" fill="#455A64"/><path d="M252.6 258.5c-2.6 0-5.2-.4-7.7-1.2-2.1-.7-3.3-2.9-2.6-5 .7-2.1 2.9-3.3 5-2.6 9.5 3 19.7-2.4 22.7-11.9 1.4-4.6 1-9.5-1.3-13.8-2.3-4.3-6-7.4-10.7-8.9-2.1-.7-3.3-2.9-2.6-5 .7-2.1 2.9-3.3 5-2.6 6.7 2.1 12.1 6.6 15.4 12.8 3.2 6.2 3.9 13.2 1.8 19.9-3.5 11.1-13.8 18.3-25 18.3z" fill="#E8505B"/><path d="M247.9 235.4h-1.3v1.7h-1.9v-1.7h-4.4v-1.3l3.9-5.2h2l-3.6 4.9h2.2v-1.5h1.8v1.5h1.3v1.6zm6.7-.8c0 1.5-1.1 2.7-3.4 2.7-1.1 0-2.3-.3-3.1-.9l.8-1.5c.6.5 1.5.7 2.3.7.9 0 1.5-.4 1.5-1.1 0-.6-.4-1.1-1.9-1.1h-2.1l.4-4.6h5v1.5h-3.4l-.1 1.6h.7c2.3.1 3.3 1.2 3.3 2.7zm.5-3.5c0-1.4.8-2.3 2-2.3s2 .9 2 2.3-.8 2.3-2 2.3c-1.1 0-2-.9-2-2.3zm2.9 0c0-.9-.3-1.3-.9-1.3-.5 0-.9.4-.9 1.3s.4 1.3.9 1.3c.6 0 .9-.4.9-1.3zm4-2.1h1.4l-5.6 8.2h-1.4l5.6-8.2zm-1.3 6c0-1.4.8-2.3 2-2.3s2 .9 2 2.3-.8 2.3-2 2.3-2-.9-2-2.3zm2.9 0c0-.9-.3-1.3-.9-1.3-.5 0-.9.4-.9 1.3s.4 1.3.9 1.3.9-.4.9-1.3z" fill="#E0E0E0"/><path d="M327.7 211.3v.6h-2.3v-.5l1.2-1.1c.3-.3.3-.4.3-.6 0-.2-.2-.4-.5-.4s-.5.1-.6.3l-.5-.3c.2-.3.7-.6 1.2-.6.7 0 1.1.3 1.1.9 0 .3-.1.6-.5.9l-.7.7h1.3v.1zm.3-.9c0-1 .5-1.6 1.3-1.6.7 0 1.3.6 1.3 1.6s-.5 1.6-1.3 1.6c-.8-.1-1.3-.7-1.3-1.6zm1.9 0c0-.7-.2-1-.6-1-.3 0-.6.3-.6 1s.2 1 .6 1c.3-.1.6-.4.6-1zm2.1.5l-.3.3v.6h-.7v-3.2h.7v1.8l1-.9h.8l-1 1 1 1.3h-.8l-.7-.9zm-5.4 12.3v3h-.7v-2.4h-.6v-.6h1.3zm2.8 2.1c0 .5-.4 1-1.2 1-.4 0-.9-.1-1.1-.3l.3-.5c.2.2.5.3.9.3.3 0 .6-.1.6-.4 0-.2-.2-.4-.7-.4h-.8l.2-1.7h1.8v.6H328v.6h.2c.9-.1 1.2.3 1.2.8zm1.4 0l-.3.3v.6h-.7V223h.7v1.8l1-.9h.8l-1 1 1 1.3h-.8l-.7-.9zm-4.2 12.3v3h-.7v-2.4h-.6v-.6h1.3zm.5 1.5c0-1 .5-1.6 1.3-1.6.7 0 1.3.6 1.3 1.6s-.5 1.6-1.3 1.6c-.7 0-1.3-.6-1.3-1.6zm1.9 0c0-.7-.2-1-.6-1-.3 0-.6.3-.6 1s.2 1 .6 1c.4 0 .6-.3.6-1zm2.2.6l-.3.3v.6h-.7v-3.2h.7v1.8l1-.9h.8l-1 1 1 1.3h-.8l-.7-.9zm-3.5 14.4c0 .5-.4 1-1.2 1-.4 0-.9-.1-1.1-.3l.3-.5c.2.2.5.3.9.3.3 0 .6-.1.6-.4 0-.2-.2-.4-.7-.4h-.8l.2-1.7h1.8v.6h-1.3v.6h.2c.8-.2 1.1.2 1.1.8zm1.4 0l-.3.3v.6h-.7v-3.2h.7v1.8l1-.9h.8l-1 1 1 1.3h-.8l-.7-.9zm-3.6 13.8c0-1 .5-1.6 1.3-1.6.7 0 1.3.6 1.3 1.6s-.5 1.6-1.3 1.6c-.8-.1-1.3-.6-1.3-1.6zm1.8 0c0-.7-.2-1-.6-1-.3 0-.6.3-.6 1s.2 1 .6 1c.4 0 .6-.3.6-1zm2.2.6l-.3.3v.6h-.7v-3.2h.7v1.8l1-.9h.8l-1 1 1 1.3h-.8l-.7-.9zm178-57.6c0 .1-38.9.3-86.9.3-48 0-86.9-.1-86.9-.3 0-.2 38.9-.3 86.9-.3 48 .1 86.9.2 86.9.3zm0 14.7c0 .1-38.9.3-86.9.3-48 0-86.9-.1-86.9-.3 0-.2 38.9-.3 86.9-.3 48 0 86.9.2 86.9.3zm0 14.7c0 .1-38.9.3-86.9.3-48 0-86.9-.1-86.9-.3 0-.1 38.9-.3 86.9-.3 48 0 86.9.1 86.9.3zm0 14.6c0 .1-38.9.3-86.9.3-48 0-86.9-.1-86.9-.3 0-.1 38.9-.3 86.9-.3 48 .1 86.9.2 86.9.3zm0 14.7c0 .1-38.9.3-86.9.3-48 0-86.9-.1-86.9-.3 0-.1 38.9-.3 86.9-.3 48 .1 86.9.2 86.9.3z" fill="#455A64"/><path d="M341.2 262.3c-.7 0-1.3-.6-1.3-1.3v-40.5c0-.7.6-1.3 1.3-1.3.7 0 1.3.6 1.3 1.3V261c0 .7-.6 1.3-1.3 1.3z" fill="#E8505B"/><path d="M349.3 256.6c-.7 0-1.3-.6-1.3-1.3v-21.1c0-.7.6-1.3 1.3-1.3.7 0 1.3.6 1.3 1.3v21.1c0 .7-.6 1.3-1.3 1.3zm17.1 0c-.7 0-1.3-.6-1.3-1.3v-30.9c0-.7.6-1.3 1.3-1.3.7 0 1.3.6 1.3 1.3v30.9c0 .7-.6 1.3-1.3 1.3zm17.3 4.1c-.7 0-1.3-.6-1.3-1.3v-30.9c0-.7.6-1.3 1.3-1.3.7 0 1.3.6 1.3 1.3v30.9c0 .7-.6 1.3-1.3 1.3zm17.5 0c-.7 0-1.3-.6-1.3-1.3v-30.9c0-.7.6-1.3 1.3-1.3.7 0 1.3.6 1.3 1.3v30.9c0 .7-.6 1.3-1.3 1.3zm16.4 5.2c-.7 0-1.3-.6-1.3-1.3v-39.7c0-.7.6-1.3 1.3-1.3.7 0 1.3.6 1.3 1.3v39.7c0 .7-.6 1.3-1.3 1.3z" fill="#E0E0E0"/><path d="M459.8 259.4c-.7 0-1.3-.6-1.3-1.3v-39.7c0-.7.6-1.3 1.3-1.3.7 0 1.3.6 1.3 1.3v39.7c.1.7-.5 1.3-1.3 1.3z" fill="#E8505B"/><path d="M469.4 262.8c-.7 0-1.3-.6-1.3-1.3v-39.7c0-.7.6-1.3 1.3-1.3.7 0 1.3.6 1.3 1.3v39.7c0 .7-.6 1.3-1.3 1.3z" fill="#E0E0E0"/><path d="M442.7 259.4c-.7 0-1.3-.6-1.3-1.3v-39.7c0-.7.6-1.3 1.3-1.3.7 0 1.3.6 1.3 1.3v39.7c0 .7-.6 1.3-1.3 1.3zm-67.8-6.1c-.7 0-1.3-.6-1.3-1.3v-39.4c0-.7.6-1.3 1.3-1.3.7 0 1.3.6 1.3 1.3V252c.1.7-.5 1.3-1.3 1.3zm-16.7 7.7c-.7 0-1.3-.6-1.3-1.3v-21.1c0-.7.6-1.3 1.3-1.3.7 0 1.3.6 1.3 1.3v21.1c0 .7-.6 1.3-1.3 1.3zm34-5c-.7 0-1.3-.6-1.3-1.3v-16.4c0-.7.6-1.3 1.3-1.3.7 0 1.3.6 1.3 1.3v16.4c.1.7-.5 1.3-1.3 1.3z" fill="#E8505B"/><path d="M450.4 251.2c-.7 0-1.3-.6-1.3-1.3v-16.4c0-.7.6-1.3 1.3-1.3.7 0 1.3.6 1.3 1.3v16.4c.1.7-.5 1.3-1.3 1.3z" fill="#E0E0E0"/><path d="M478.2 255.8c-.7 0-1.3-.6-1.3-1.3v-16.4c0-.7.6-1.3 1.3-1.3.7 0 1.3.6 1.3 1.3v16.4c0 .7-.6 1.3-1.3 1.3z" fill="#E8505B"/><path d="M486.1 260.7c-.7 0-1.3-.6-1.3-1.3V243c0-.7.6-1.3 1.3-1.3.7 0 1.3.6 1.3 1.3v16.4c0 .7-.6 1.3-1.3 1.3z" fill="#E0E0E0"/><path d="M495.2 243.7c-.7 0-1.3-.6-1.3-1.3V226c0-.7.6-1.3 1.3-1.3.7 0 1.3.6 1.3 1.3v16.4c0 .7-.6 1.3-1.3 1.3z" fill="#E8505B"/><path d="M434.9 256c-.7 0-1.3-.6-1.3-1.3v-16.4c0-.7.6-1.3 1.3-1.3.7 0 1.3.6 1.3 1.3v16.4c0 .7-.6 1.3-1.3 1.3z" fill="#E0E0E0"/><path d="M408.5 252.2c-.7 0-1.3-.6-1.3-1.3v-16.4c0-.7.6-1.3 1.3-1.3.7 0 1.3.6 1.3 1.3v16.4c0 .7-.6 1.3-1.3 1.3zm17.5 4.1c-.7 0-1.3-.6-1.3-1.3v-26.6c0-.7.6-1.3 1.3-1.3.7 0 1.3.6 1.3 1.3V255c0 .7-.5 1.3-1.3 1.3z" fill="#E8505B"/><path d="M517.7 287.9h.4c.3 0 .7 0 1.2-.1 1-.2 2.5-.6 4.1-1.9.8-.6 1.5-1.5 2.1-2.6.6-1.1 1-2.4 1-3.9v-10.2c0-15.3 0-37.5-.1-64.9v-2.6c0-.9 0-1.7-.1-2.6-.3-1.7-1.1-3.3-2.4-4.6-1.2-1.2-2.9-2.1-4.6-2.4-.9-.2-1.8-.1-2.7-.1H321.1c-2.5 0-5 1.2-6.7 3.1-.8 1-1.4 2.1-1.7 3.3-.3 1.2-.3 2.5-.3 3.8v74.5c0 1.2-.1 2.4.1 3.5s.6 2.2 1.1 3.2c1.2 2 3.1 3.4 5.3 3.9 1.1.3 2.2.3 3.4.3h10.3c36.3 0 68.9 0 96.3.1 27.4 0 49.6.1 64.9.1h22.3c1.1.1 1.6.1 1.6.1h-23.9c-15.3 0-37.5 0-64.9.1-27.4 0-60.1 0-96.3.1h-10.3c-1.1 0-2.3 0-3.5-.3-2.3-.6-4.4-2.1-5.6-4.2-.6-1-1-2.2-1.2-3.4-.2-1.2-.1-2.4-.1-3.6v-74.5c0-1.3-.1-2.6.3-3.9.3-1.3 1-2.5 1.8-3.5 1.7-2.1 4.4-3.3 7.1-3.3h195.5c.9 0 1.9 0 2.8.2 1.8.3 3.5 1.3 4.8 2.6 1.3 1.3 2.1 3 2.5 4.8.2.9.1 1.8.1 2.6v2.6c0 27.4-.1 49.6-.1 64.9v10.2c-.1 1.5-.5 2.8-1.1 3.9-.6 1.1-1.4 2-2.2 2.6-1.6 1.3-3.1 1.7-4.1 1.9-.5.1-.9.1-1.2.1-.3.1-.4.1-.4.1zm-221.5 0s.3 0 1-.1c.6-.1 1.6-.3 2.6-1 1-.6 2.2-1.8 2.8-3.4.3-.8.5-1.8.4-2.8v-3.3c0-9.4 0-23.1-.1-39.9v-39.1c-.1-1.3-.5-2.5-1.3-3.5-.7-1-1.8-1.9-3-2.3-.6-.2-1.2-.4-1.9-.4h-82.8c-1.6 0-3.1.6-4.3 1.5-1.2 1-2 2.4-2.3 3.9-.2.7-.1 1.5-.1 2.3v80.8c0 1.3.2 2.5.8 3.6 1.2 2.2 3.6 3.6 6 3.5h27.6c16.9 0 30.5.1 39.9.1h13.7c.7.1 1 .1 1 .1h-14.7c-9.4 0-23.1 0-39.9.1H214c-2.6.1-5.2-1.4-6.4-3.7-.6-1.2-.9-2.5-.9-3.8v-80.8c0-.8 0-1.6.1-2.4.3-1.6 1.2-3.1 2.5-4.2s2.9-1.7 4.6-1.7h82.8c.7.1 1.4.2 2 .5 1.3.5 2.4 1.4 3.2 2.5.8 1.1 1.3 2.4 1.3 3.8v39.1c0 16.9-.1 30.5-.1 39.9v3.3c0 1-.1 2-.5 2.9-.7 1.7-1.9 2.9-2.9 3.5-1.1.6-2 .9-2.7.9-.4.1-.8.1-.8.1zM512.1 34h.6c.4 0 1 0 1.8.2 1.5.3 3.9.9 6.3 2.8 1.2.9 2.4 2.2 3.4 3.8 1 1.6 1.7 3.6 2 5.8.1 1.1.1 2.3.1 3.5V62c0 23.2 0 56.8.1 98.3v7.9c0 1.3 0 2.7-.1 4-.1 1.3-.4 2.7-.9 4-1 2.6-2.8 4.8-5.1 6.5-1.2.8-2.4 1.5-3.8 1.9-1.4.4-2.8.7-4.2.7H220.7c-4 0-8-1.8-10.7-4.8-1.3-1.5-2.4-3.3-3-5.2-.2-.5-.3-1-.4-1.4-.1-.5-.2-1-.2-1.5l-.1-1.5V51.3c0-1.8-.1-3.6.2-5.4.5-3.6 2.5-6.9 5.3-9.1 1.4-1.1 3-2 4.7-2.5 1.7-.6 3.5-.6 5.2-.6H232c54.9 0 104.3 0 145.7.1 41.5 0 75 .1 98.3.1h33.6c1.7.1 2.5.1 2.5.1h-36c-23.2 0-56.8 0-98.3.1-41.5 0-90.9 0-145.7.1h-10.3c-1.7 0-3.4.1-5.1.6-1.6.5-3.2 1.3-4.5 2.4-2.7 2.1-4.6 5.3-5.1 8.8-.3 1.7-.1 3.5-.2 5.3v119.6l.1 1.4c.1.5.1 1 .2 1.4.1.5.2.9.4 1.4.6 1.8 1.6 3.5 2.9 5 2.6 2.9 6.4 4.6 10.3 4.6h291.6c1.4 0 2.8-.3 4.1-.7 1.3-.4 2.5-1.1 3.7-1.8 2.2-1.6 4-3.8 4.9-6.3.5-1.2.8-2.6.9-3.9.1-1.3 0-2.7.1-4v-7.9c0-41.5.1-75.1.1-98.3V49.9c0-1.2 0-2.4-.1-3.5-.2-2.2-1-4.2-2-5.8-1-1.6-2.2-2.9-3.4-3.8-2.4-1.9-4.7-2.5-6.3-2.8-.8-.1-1.4-.2-1.8-.2-.3.2-.5.2-.5.2zM68 378.4l-6.5 25.9-11.1 19c-.8 1.4-.3 3.1 1.1 3.8.8.4 1.7.4 2.5 0l25-15.5 7.2-25.8-18.2-7.4zm80.9 5.7l-1.3 20.2s20.1 6.7 20.2 10.4l-39.3.3.8-31.6 19.6.7z" fill="#455A64"/><path d="M147.1 210.2l-61.6-3.1L60 400.7l24.4 3.1 32.1-160.1 9.4 153.9.3 5.6 25.5.6-4.6-193.6z" fill="#263238"/><path d="M142 399.2c-.1 0-2.4-35.1-5.1-78.5-2.7-43.3-4.7-78.5-4.6-78.5.1 0 2.4 35.1 5.1 78.5 2.7 43.4 4.7 78.5 4.6 78.5zM99.7 240.9c.1 0-5.9 35.4-13.4 79-7.6 43.6-13.8 78.9-13.9 78.9-.1 0 5.9-35.4 13.4-79s13.8-78.9 13.9-78.9z" fill="#455A64"/><path d="M34.3 138.7l-11.2-16.4c-2.2-3.7-2.9-5.4-2.2-5.8 1-.5.6-.3 5.6 5.8 0 0-7.1-8.8-4-8.1.5.1 1.8 1.4 3.1 2.8-1.7-2.4-2-3.8-1.4-4.3 1-.8 5.4 4.2 7.4 6.6-1.6-2-4.8-5.9-5.2-6.9-.6-1.5 1.2-.9 2.6 0 1.6 1 9.8 8.2 12.3 10.1 1.7 1.3 2.8-.2 2.8-.2 2.1-4.1 5.9-6.1 7.2-6.2 1.3-.1 1.8 1.7.7 2.6-.9.7-2.1 2.4-2.9 3.7-.7 1.1-1.2 2.2-1.4 3.4-.2.8-.3 1.5-.5 2.2l4.5 8.1-14.7 9.5-2.7-6.9z" fill="#FFBE9D"/><path d="M28.9 126c-.2.1-1.8-1.7-3.6-4.1-1.8-2.4-3.2-4.4-3-4.5.2-.1 1.8 1.7 3.6 4.1 1.8 2.3 3.2 4.3 3 4.5zm3.5-1.5c-.1.1-2-1.7-4.1-4.1-2.1-2.4-3.7-4.5-3.6-4.6.1-.1 2 1.7 4.1 4.1 2.2 2.4 3.8 4.5 3.6 4.6zm2.9-1.3c-.1.1-1.9-1.6-3.9-3.8-2-2.2-3.6-4.2-3.4-4.3.1-.1 1.9 1.6 3.9 3.8 2 2.2 3.5 4.1 3.4 4.3zm0 8.7s.4-.4 1.3-.6c.9-.2 2.3-.1 3.4 1l-.4.2c-.1-.5-.2-1.1-.2-1.7-.1-1.9.5-3.5 1.1-4.6.6-1.1 1.2-1.6 1.2-1.5.1.1-.4.6-.9 1.7s-.9 2.6-.9 4.4c0 .6.1 1.1.2 1.6l.2.8-.6-.6c-1-.9-2.2-1.1-3-1-.9.1-1.4.4-1.4.3z" fill="#EB996E"/><path d="M97.8 63l4 45.9 10.8 6.4 12-5.8c.1-2.7.2-15.5.2-15.5s9.6-1.5 9.7-11.1c.1-4.6-.6-14.2-1.3-22.9-.8-9.6-9.1-16.8-18.7-16.3-10 .7-17.5 9.4-16.7 19.3z" fill="#FFBE9D"/><path d="M124.7 93.9s-6 .5-12.5-3.5c0 0 2.9 6.9 12.5 6v-2.5z" fill="#EB996E"/><path d="M129.7 67c0 .7-.6 1.3-1.3 1.4-.8 0-1.4-.5-1.4-1.2s.6-1.3 1.3-1.4c.8-.1 1.4.4 1.4 1.2zm1.4-2.1c-.2.2-1.2-.6-2.7-.6-1.5 0-2.5.7-2.7.6-.1-.1.1-.4.6-.7.5-.3 1.3-.7 2.2-.7.9 0 1.7.3 2.1.7.4.3.5.6.5.7zM115.4 67c0 .7-.6 1.3-1.3 1.4-.8 0-1.4-.5-1.4-1.2s.6-1.3 1.3-1.4c.7-.1 1.3.4 1.4 1.2zm1.2-1.8c-.2.2-1.2-.6-2.7-.6-1.5 0-2.5.7-2.7.6-.1-.1.1-.4.6-.7.5-.3 1.3-.7 2.2-.7.9 0 1.7.3 2.1.7.4.3.6.6.5.7zm5.3 10.9c0-.1.9-.2 2.4-.4.4 0 .7-.1.8-.4.1-.3-.1-.7-.3-1.1-.4-.9-.7-1.9-1.1-2.9-1.5-4.1-2.7-7.4-2.5-7.5.2-.1 1.5 3.2 3.1 7.3.4 1 .7 2 1.1 2.9.1.4.4.9.2 1.5-.1.3-.4.5-.6.5-.2.1-.5.1-.6.1h-2.5zm-4.3 1c.2 0 .2 1.6 1.6 2.7 1.4 1.1 3.1 1 3.1 1.2 0 .1-.4.3-1.1.3-.7 0-1.7-.2-2.6-.9-.8-.7-1.2-1.6-1.2-2.3-.1-.6.1-1 .2-1zm-.6-17.7c-.1.4-1.6.2-3.3.4-1.7.2-3.1.7-3.3.3-.1-.2.1-.5.7-.9s1.4-.8 2.5-.9c1-.1 2 .1 2.6.3.5.3.8.6.8.8zm13.5 1.2c-.3.3-1.3 0-2.5 0-1.2-.1-2.2.2-2.5-.1-.1-.2.1-.5.5-.8.4-.3 1.2-.6 2-.5.8 0 1.6.3 2 .7.5.2.6.6.5.7z" fill="#263238"/><path d="M91.1 50.8c-.1-1.8 1.2-3.7 3-3.8-.7-1.7-.3-3.9 1.1-5.1 1.4-1.2 3.6-1.4 5.2-.5.5-2.1 2.3-3.8 4.4-4.2 2.1-.4 4.4.4 5.7 2.1 1.3-1.6 3.5-2.4 5.6-2.1 2.1.3 3.9 1.8 4.7 3.7 1.8-1.5 4.3-1.9 6.5-1.2 1.4.5 2.6 1.4 3.4 2.6 1.1-.3 2.2-.6 3.3-.5 1.4.1 2.9.9 3.4 2.2.4 1.1 0 2.5-1 3.1 1.7-.4 3.8.8 4.1 2.6.2 1.6-1.1 3.2-2.6 3.6.6.3 1.1 1 1 1.7-.1 1.2-1.2 2-2.2 2.5-2.7 1.2-5.9.8-8.7-.1-2.8-1-5.4-2.4-8.2-3.5-2.8-1-7.5-2.9-10.3-1.9-.4.1-.8.4-1.1.6-1.5 1.2-2.5 2.9-2.8 4.9v.2c-.4 2.7-.3 5.5-.7 8.2-.4 2.7-1.3 5.5-3.4 7.4-.8.8-2.3 1.3-3 .4-.3-.4-.3-.8-.3-1.3-.4-4.8-1.4-9.1-1.9-13.8-.6-1.2-1.7-2.2-2.6-3.2-1.5-1.3-2.6-2.9-2.6-4.6z" fill="#263238"/><path d="M119.6 45.9s.2-.4.1-1.3c-.1-.8-.4-2.1-1.5-3.1s-3.1-1.7-5-1c-.9.3-1.9 1-2.4 2.1-.2.6-.2 1.2-.1 1.8.2.6.6 1.1 1.2 1.4.6.2 1.3.2 1.9-.2.6-.4.7-1.1.7-1.7-.1-.6-.4-1.2-.8-1.5-.4-.4-.9-.6-1.4-.8-2-.6-3.9-.1-5.1.8-.6.5-1 1-1.2 1.6-.2.6-.2 1.1-.1 1.5.2.8.7 1.1.7 1.1.1 0-.3-.3-.5-1.1-.1-.4 0-.9.2-1.4.2-.5.6-1 1.2-1.4 1.1-.8 2.9-1.2 4.7-.6.8.3 1.7.9 1.8 1.8 0 .4-.1.9-.4 1.1-.3.3-.9.3-1.3.1-.9-.3-1.2-1.5-.8-2.4.3-.9 1.2-1.5 2-1.8 1.7-.6 3.5-.1 4.6.8 1.1.9 1.5 2.1 1.6 2.8-.1 1-.2 1.4-.1 1.4zM108 39.8s-.3-.1-.9-.2c-.6 0-1.4-.1-2.4.1s-2.2.6-3.2 1.6-1.4 2.9-.5 4.3c.1.2.3.4.5.6l.3-.5c-.8-.3-1.7-.1-2.3.3-.6.4-1.1 1.1-1.2 1.7-.3 1.3.2 2.5.7 3.3.6.8 1.2 1.2 1.6 1.5.4.3.7.4.7.4l-.6-.6c-.4-.3-.9-.8-1.4-1.6-.5-.7-.9-1.8-.6-2.9.1-.5.5-1 1-1.4.5-.3 1.2-.5 1.7-.2l1.6.6-1.3-1.1c-.1-.1-.3-.3-.4-.5-.4-.6-.5-1.3-.4-1.9.1-.7.4-1.2.8-1.7.8-.9 1.9-1.4 2.9-1.6 2.1-.2 3.4 0 3.4-.2zM94.1 50c-.1 0-.2.3-.2.9 0 .6.2 1.4.8 2.1.6.7 1.4 1 2 1.1.6.1.9-.1.9-.1 0-.2-1.4-.1-2.5-1.3-1-1.3-.8-2.7-1-2.7zm40.9-5s-.3-.3-.9-.7c-.6-.4-1.7-.8-3.1-.8-1.3 0-3 .4-4.3 1.8-.6.6-1.2 1.6-1.1 2.6.1 1.1 1 2.1 2.3 2.1.6-.1 1.2-.5 1.4-1 .2-.5.2-1.1.1-1.6-.3-1.1-1.2-1.7-2.1-2-.9-.3-1.8-.2-2.6 0-.8.3-1.4.7-1.9 1.2-1 .9-1.5 1.9-1.9 2.5-.3.7-.5 1-.5 1s.3-.3.7-.9c.4-.6 1-1.5 2-2.3.9-.8 2.5-1.5 4-1 .7.3 1.5.8 1.7 1.6.2.8-.1 1.8-.9 1.9-.8.1-1.6-.7-1.6-1.5-.1-.8.4-1.6.9-2.2 1.1-1.2 2.7-1.7 3.9-1.7 1.3-.1 2.3.3 2.9.6.6.2.9.4 1 .4z" fill="#455A64"/><path d="M101 67.3c-.2-.1-6.6-1.9-6.4 4.6.2 6.5 6.7 5 6.7 4.8.1-.2-.3-9.4-.3-9.4z" fill="#FFBE9D"/><path d="M99.3 74.3s-.1.1-.3.2c-.2.1-.5.2-.9 0-.7-.2-1.3-1.3-1.4-2.5 0-.6.1-1.2.3-1.6.2-.5.5-.8.8-.9.3-.1.6.1.7.3.1.2.1.3.1.3s.1-.1.1-.4c0-.1-.1-.3-.3-.4-.2-.1-.4-.2-.6-.1-.5.1-.9.5-1.2 1.1-.2.5-.4 1.2-.3 1.8.1 1.3.8 2.5 1.8 2.8.5.1.8 0 1-.2.2-.2.3-.4.2-.4z" fill="#EB996E"/><path d="M81.6 151.1c0 1.6 4.7 33.2 4.7 33.2l-9.4 51.5 36.5 1.9 4.3-31.6 4.8 31.6 31.6-3.1-7.2-40 .1-45.8-.4-36.8-13.5-4.6-7-8.2-11.3 7L101 98l-4.4 6L77 114.2c-1.9 3.3 4.6 36.9 4.6 36.9z" fill="#E8505B"/><path d="M101 98l-.5 10 19.2 51.1 7.8-50.2-2.5-9.6-10.1 7.1L101 98z" fill="#fff"/><path d="M119.3 160.9s-.2-.2-.5-.6c-.3-.4-.7-1-1.2-1.6-1.1-1.5-2.6-3.6-4.5-6.1-3.8-5.2-8.9-12.4-14.5-20.3-.8-1.1-1.6-2.3-2.4-3.4l-.1-.2.1-.2c1.3-1.9 2.6-3.7 3.8-5.5l.1.4c-3.1-2.3-6-4.4-8.5-6.3l-.1-.1.1-.2c1.5-3.9 2.7-7.1 3.6-9.5.4-1.1.8-1.9 1-2.6.2-.6.4-.9.4-.9l-.3.9c-.2.7-.5 1.5-.9 2.6-.8 2.3-2 5.6-3.5 9.5l-.1-.3c2.5 1.9 5.4 4 8.5 6.2l.2.2-.1.2c-1.2 1.8-2.5 3.6-3.8 5.5v-.3c.8 1.1 1.6 2.2 2.4 3.4 5.6 7.9 10.7 15.1 14.4 20.4 1.8 2.6 3.3 4.7 4.3 6.2.5.7.9 1.3 1.2 1.7.2.7.4.9.4.9z" fill="#263238"/><path d="M117.6 214.2V212c0-1.5.1-3.4.2-5.8.2-5 .4-11.8.6-19.3.2-7.5.4-14.3.6-19.3.1-2.4.1-4.4.2-5.8 0-.6 0-1.2.1-1.6 0-.4 0-.6.1-.6 0 0 0 .2.1.6v7.4c0 4.9-.2 11.7-.4 19.3-.3 7.5-.6 14.3-.8 19.3-.1 2.4-.3 4.4-.3 5.8 0 .6-.1 1.2-.1 1.6-.3.4-.3.6-.3.6zm2.5-54.8s0-.2.2-.6c.2-.4.4-1 .6-1.6.6-1.5 1.4-3.5 2.4-5.9 2.1-5.1 5-11.9 8.2-19.5.7-1.6 1.3-3.1 2-4.6v.3c-1.6-1.9-3.1-3.7-4.5-5.3l-.1-.2.2-.2c2.4-2.5 4.6-4.8 6.5-6.7v.2c-.9-2.5-1.6-4.5-2.1-6-.2-.7-.4-1.2-.5-1.6-.1-.4-.2-.6-.2-.6s.1.2.3.5c.2.4.4 1 .6 1.6.6 1.5 1.3 3.5 2.2 6v.1l-.1.1c-1.8 1.9-4 4.2-6.4 6.8v-.3c1.4 1.7 2.9 3.5 4.5 5.3l.1.1-.1.2c-.6 1.5-1.3 3-2 4.6-3.2 7.6-6.2 14.4-8.4 19.5-1.1 2.4-1.9 4.4-2.6 5.9-.3.6-.5 1.2-.7 1.6 0 .2-.1.4-.1.3z" fill="#263238"/><path opacity=".3" d="M91.7 117l5.7 6.3-4 7 24.2 28.7-21.2-30.2 3.8-5.5-8.5-6.3zm28.9 41.1l13.5-26.4-.4-4.5-13.1 30.9z" fill="#000"/><path d="M78.3 117.6s.3.1.7.5c.5.3 1.1.9 1.8 1.6 1.4 1.4 3.1 3.7 4.4 6.5 1.2 2.8 1.7 5.6 1.8 7.6 0 1 0 1.8-.1 2.4-.1.6-.1.9-.2.9s0-1.2-.2-3.2-.7-4.7-1.9-7.4c-1.2-2.8-2.8-5-4.2-6.4-1.2-1.7-2.2-2.4-2.1-2.5zm70.5 25.7c-.2 0-.7-5.8-1.2-13s-.8-13-.6-13c.2 0 .7 5.8 1.2 13s.7 13 .6 13zM127.4 109l-.6.6-1.7 1.7c-1.5 1.4-3.7 3.5-6.7 5.5l-.4.2v-.4c-.1-1.8-.1-3.8-.9-5.7-.3-1-.8-1.9-1.4-2.8-.3-.5-.6-.9-.9-1.4l-.1-.2-.1-.1c-.3-.1.4.1.3.1-.1.1-.2.2-.2.3-.2.2-.3.4-.4.7-.8 1.5-1 3.3-1.3 4.9-.3 1.6-.6 3.2-.8 4.7l-.1.4-.3-.3c-3.3-2.6-6.1-4.8-8.1-6.5-.9-.8-1.7-1.4-2.3-1.9-.5-.4-.8-.7-.8-.7l.9.6c.6.5 1.4 1 2.4 1.8 2.1 1.6 4.9 3.8 8.3 6.3l-.4.2c.2-1.5.4-3.1.7-4.7.3-1.6.6-3.4 1.4-5 .1-.3.3-.5.5-.8.1-.1.2-.2.3-.4h.1c-.1 0 .7.1.4.1l.1.1.1.2c.3.5.7.9 1 1.4.6 1 1.1 1.9 1.4 2.9.7 2 .8 4.1.8 5.8l-.4-.2c3-1.9 5.2-3.9 6.8-5.3.7-.6 1.3-1.2 1.8-1.6.3-.3.6-.5.6-.5z" fill="#263238"/><path d="M119.2 158.5c-.2 0-1.3-11.6-2.5-25.9-1.2-14.3-2.1-26-1.9-26 .2 0 1.3 11.6 2.5 25.9 1.2 14.4 2.1 26 1.9 26z" fill="#263238"/><path opacity=".3" d="M85.5 147.1s-.9 25.1-.9 25.2c0 .1-2.2-14.9-2.2-14.9l3.1-10.3z" fill="#000"/><path d="M189.3 149.4l-11.5-8.6 3-5.6 6.7-9.7c.5-.8 1.3-1.3 2.3-1.4l5.9-.9.3 1.8s2.2-1.5 3 .4c.8 1.9-1.9 3.7-1.9 3.7s2.3-.6 2.7 1.7c.4 2.3-1.7 2.6-1.7 2.6 1.7 2.3 0 3.7 0 3.7 2 2.3-.8 4.5-.8 4.5l-7.6 7.7-.4.1z" fill="#FFBE9D"/><path d="M216.4 64.6l.8.7-27.3 80.1-2.7-1.3 29.2-79.5z" fill="#E8505B"/><path d="M198.6 140c-.9 1.7-2.2 2.7-3.8 3.8-.4.3-.9.6-1.4.7-.5.1-1.1 0-1.4-.4-.2-.3-.3-.7-.3-1.1 0-.8.4-1.5 1-2.1.5-.6 1.2-1 1.8-1.5" fill="#FFBE9D"/><path d="M194.5 139.4c.1.1-.6.5-1.5 1.4-.4.5-.9 1.1-1 1.9-.1.4 0 .8.2 1.1.2.3.6.4 1 .4.9-.1 1.6-.8 2.3-1.3.7-.5 1.3-1 1.7-1.4.9-.9 1.3-1.6 1.4-1.6.1 0-.2.8-1.1 1.8-.4.5-1 1-1.7 1.6-.3.3-.7.5-1.1.8-.4.3-.9.5-1.4.6-.6 0-1.2-.1-1.5-.6-.3-.5-.3-1-.2-1.5.2-.9.7-1.6 1.2-2 .9-.9 1.7-1.2 1.7-1.2z" fill="#EB996E"/><path d="M146.6 112c3 1 7.7 9.8 7.7 9.8l12.3 36.3s11-17.8 11-18.1c0-.3 14.2 10.4 14.2 10.4l-9.3 18.2-.5 4.7-9 14.6c-2.3 2.5-6.3 3-9.7 2.8-4.3-.2-8-2.9-9.6-6.8l-6.6-18.4-.5-53.5zm-74.8 9.5l-10.2 32.6-10.8-21.4L34.5 143l15.2 33.6c2.2 5.1 8.6 10.3 13.2 10.3 6.8 0 12.8-4.2 15.2-10.6l10.8-26.4-12-35.7c-2.4 1.8-4.2 4.4-5.1 7.3z" fill="#E8505B"/><path d="M61.6 173.1c-.1 0-.2-4.4-.2-9.7 0-5.4.2-9.7.3-9.7.1 0 .2 4.4.2 9.8 0 5.2-.2 9.6-.3 9.6z" fill="#263238"/><path d="M66.5 167.4c-.1 0-.3-.8-.7-2.2-.4-1.3-.9-3.2-1.4-5.2-.6-2-1.1-3.9-1.6-5.2-.2-.6-.7-.9-1.1-.9-.4 0-.5.2-.5.2s.1-.3.5-.4c.2 0 .5 0 .8.1.3.2.5.4.7.8.5 1.3 1.1 3.1 1.7 5.2.6 2 1 3.9 1.3 5.3.2 1.4.3 2.3.3 2.3z" fill="#263238"/><path d="M49.3 175.3l.3.6c.2.4.5.9.9 1.6.8 1.4 2.1 3.3 4.1 5.2 1 .9 2.2 1.9 3.7 2.7 1.5.7 3.2 1.2 5 1.3 1.8.1 3.8-.2 5.6-1 1.8-.8 3.6-2 5.1-3.5.9-.9 1.8-2 2.4-3 2.9-7.2 5.6-13.4 7.7-17.9 1-2.2 1.8-4 2.4-5.3l.7-1.4c.2-.3.3-.5.3-.5s0 .2-.2.5c-.2.4-.4.9-.6 1.4-.6 1.3-1.3 3.1-2.3 5.3-1.9 4.5-4.6 10.8-7.5 18-.7 1.1-1.5 2.1-2.5 3.1-1.5 1.6-3.3 2.8-5.3 3.6-1.9.8-3.9 1.1-5.8 1-1.9-.1-3.7-.6-5.2-1.4-1.5-.8-2.7-1.8-3.8-2.8-2-2-3.2-4-4-5.4-.4-.7-.6-1.3-.8-1.6-.1-.3-.2-.5-.2-.5z" fill="#263238"/><path d="M189.7 124.1l5.9-.9s1.1 1.7-3.3 4.1l-2.8 1.7s2 3.8-1.1 9.4" fill="#FFBE9D"/><path d="M188.5 138.3c-.1 0 .4-1 1-2.6.2-.8.5-1.8.5-3 0-1.1-.1-2.5-.6-3.7l-.1-.2.2-.1c.7-.4 1.4-.9 2.2-1.3 1-.6 2-1.1 2.8-1.8.4-.3.7-.7.9-1.1.2-.4.3-.9.1-1.2l.2.1c-1.8.3-3.3.5-4.3.6-1 .1-1.6.2-1.6.1 0 0 .6-.2 1.6-.4s2.5-.5 4.3-.8h.2l.1.1c.3.6.1 1.1-.1 1.6s-.6.9-1 1.3c-.8.8-1.8 1.3-2.8 1.9-.8.4-1.5.9-2.2 1.3l.1-.3c.6 1.4.7 2.7.6 3.9-.1 1.2-.4 2.2-.6 3.1-.1.4-.3.8-.5 1.1-.1.3-.3.6-.4.8l-.6.6z" fill="#EB996E"/><path d="M190.8 149.8s-.4-.2-1-.7c-.7-.5-1.6-1.2-2.8-2-2.4-1.8-5.7-4.2-9.6-7.1l.3-.1c-1.9 3.2-4.1 6.8-6.4 10.7-1 1.7-2 3.4-3 5s-2 3.1-2.7 4.7c-1.5 3.1-2.1 6.2-2.4 8.8-.2 2.6 0 4.7.1 6.2.2 1.4.4 2.2.3 2.2 0 0-.1-.2-.2-.6-.1-.4-.2-.9-.4-1.7-.3-1.4-.5-3.6-.3-6.2s.8-5.8 2.3-8.9c.7-1.6 1.7-3.1 2.7-4.8 1-1.6 2-3.3 3-5 2.3-3.8 4.5-7.4 6.5-10.6l.1-.2.2.2c3.9 2.9 7.1 5.4 9.5 7.2 1.1.9 2 1.6 2.7 2.1.8.6 1.1.8 1.1.8z" fill="#263238"/><path d="M166.6 158.3c.1.1-2.8 1.7-4.9 5-2.2 3.3-2.5 6.6-2.7 6.5-.1 0-.1-.8.2-2.1.3-1.3.9-3 2-4.7 1.1-1.7 2.5-2.9 3.5-3.7 1.1-.8 1.9-1.1 1.9-1zm-19.6-31s0 .2.1.7c0 .5.1 1.2.1 2 .1 1.7.1 4.2.2 7.2.1 6.1.1 14.5.1 23.8s-.1 17.7-.2 23.8c-.1 3-.1 5.5-.1 7.2 0 .8 0 1.5-.1 2 0 .4 0 .7-.1.7v-9.9c0-6.1 0-14.5.1-23.8 0-9.3.1-17.7.1-23.8V128c-.2-.4-.2-.7-.2-.7z" fill="#263238"/><path d="M197.2 124.5c-1.1.5-6.3 3.9-6.8 5-.2.4-.3.7-.3 1.1 0 .4.2.8.5 1 .5.3 1.1.2 1.7-.1 2.3-1 4.2-2 6-3.7.5-.5.8-1.1.8-1.8s-.3-1.4-1-1.6" fill="#FFBE9D"/><path d="M198.2 124.5s.4 0 .8.5.5 1.6-.2 2.5c-.3.5-.8.8-1.3 1.3-.5.4-1 .8-1.7 1.2-.6.4-1.3.7-2 1.1-.4.2-.7.3-1.1.5-.4.2-.7.4-1.2.4-.4.1-1 0-1.3-.4-.3-.4-.5-.9-.4-1.3.1-.4.2-.8.4-1.2.2-.4.5-.6.8-.8 1.1-.9 2.2-1.6 3.1-2.2 1.8-1.2 3-1.7 3.1-1.7 0 0-.3.2-.8.5s-1.2.8-2.1 1.4c-.9.6-1.9 1.4-3 2.3-.3.2-.5.5-.7.7-.2.3-.3.6-.3 1 0 .3.1.7.3.9.2.2.5.3.9.2 2.9-1 5.6-2.7 6.9-4.2.6-.8.6-1.8.3-2.2-.1-.4-.5-.5-.5-.5z" fill="#EB996E"/><path d="M194.2 135.2c-.7.4-1.5.7-2.2 1.2-.7.5-1.2 1.1-1.6 1.9-.2.5-.3 1.2.1 1.6.2.3.6.4 1 .4s.8-.1 1.1-.2c1.4-.4 2.8-1.1 4-1.9.5-.3 1-.7 1.4-1.2.4-.5.6-1.1.6-1.8 0-.6-.1-1.3-.7-1.5" fill="#FFBE9D"/><path d="M198 133.7s.4 0 .6.5c.1.2.2.5.2.9.1.3.1.8-.1 1.2-.3.9-1.1 1.7-2.1 2.3-1 .6-2.1 1.2-3.4 1.6-.6.2-1.3.5-2 .4-.3-.1-.7-.2-.9-.5-.2-.3-.3-.6-.3-1 .1-1.3.9-2.1 1.6-2.7.7-.5 1.4-.8 1.8-1 .4-.2.7-.3.7-.2 0 0-.2.2-.6.4-.4.2-1 .6-1.7 1.1-.3.3-.6.6-.9 1-.3.4-.5.9-.5 1.4 0 .5.3.9.9 1 .5.1 1.1-.2 1.7-.4 1.2-.4 2.3-1 3.3-1.6 1-.6 1.7-1.2 2-2 .2-.4.2-.7.2-1.1 0-.3-.1-.6-.1-.8-.1-.4-.4-.5-.4-.5z" fill="#EB996E"/><path d="M199.7 130.7c-.6-2.2-3-1.4-3-1.4-1.6.9-3.1 1.5-4.5 2.6-.5.3-.8.9-1 1.4-.2.5-.2 1.2.2 1.6.4.5 1 .6 1.6.6.6 0 1.1-.3 1.6-.5l3.6-1.5c1-.4 1.7-1.5 1.5-2.6v-.1" fill="#FFBE9D"/><path d="M199.8 130.9s.2.3.1.9c-.1.6-.6 1.5-1.6 1.9-1 .4-2.1.9-3.3 1.5-.6.3-1.3.6-2.2.6-.4 0-.9-.1-1.2-.4-.4-.3-.6-.7-.6-1.2 0-.4.1-.9.2-1.2.2-.4.4-.7.7-1 .6-.5 1.2-.9 1.8-1.2 1.2-.7 2.2-1.2 3.2-1.6.6-.2 1.2-.2 1.6 0 .5.1.8.4 1 .7.2.3.3.5.3.7 0 .2.1.3 0 .3s-.1-.4-.5-.8c-.2-.2-.5-.4-.9-.5-.4-.1-.9-.1-1.4.1-.9.5-2 1-3.1 1.7-.5.3-1.2.7-1.6 1.2-.4.5-.8 1.1-.7 1.8 0 .7.7 1.1 1.3 1.1.7 0 1.3-.3 2-.5 1.2-.5 2.4-1 3.4-1.4.9-.3 1.4-1.1 1.5-1.6 0-.8-.1-1.1 0-1.1z" fill="#EB996E"/><path d="M66.1 69.6c3.6-4.8 5.6-10.8 5.3-17.2-.7-14.8-13.3-26.3-28.1-25.6-14.8.7-26.3 13.3-25.6 28.1.7 14.8 13.3 26.3 28.1 25.6 5.1-.2 9.7-1.9 13.7-4.5l9.6 3.7-3-10.1z" fill="#fff"/><path d="M51.7 53.8c0 1.3 1 2.3 2.3 2.3 1.3 0 2.3-1 2.3-2.3 0-1.3-1-2.3-2.3-2.3-1.2 0-2.3 1-2.3 2.3zm-9.2 0c0 1.3 1 2.3 2.3 2.3 1.3 0 2.3-1 2.3-2.3 0-1.3-1-2.3-2.3-2.3-1.2 0-2.3 1-2.3 2.3zm-9.1-1.2c-.6 1.1-.3 2.5.8 3.1 1.1.6 2.5.3 3.1-.8.6-1.1.3-2.5-.8-3.1-1.1-.6-2.5-.3-3.1.8z" fill="#263238"/><path d="M44.7 26.9h-2.9c-.4.1-.8.1-1.2.2-.4.1-.9.1-1.4.2-.5.1-1 .3-1.6.4-2.2.6-4.9 1.5-7.6 3.3-2.7 1.8-5.6 4.3-7.9 7.7-2.3 3.4-4 7.7-4.5 12.5 0 1.2-.2 2.4-.1 3.7 0 .6 0 1.3.1 1.9.1.6.2 1.3.3 1.9.5 2.5 1.3 5.1 2.6 7.5 1.3 2.4 2.9 4.7 4.9 6.7 2 2 4.4 3.7 7.1 5.1 2.6 1.3 5.6 2.3 8.6 2.6.8.1 1.5.1 2.3.2.8.1 1.5.1 2.3 0 1.6-.1 3.1-.3 4.6-.6 3.3-.7 6.5-2.1 9.2-3.9h-.3c3.2 1.3 6.4 2.5 9.4 3.8l.6.2-.2-.6c-1-3.5-1.9-6.8-2.8-10.1v.2c2.6-3.5 4.3-7.5 5-11.5.4-2 .5-4 .4-5.9 0-1-.1-1.9-.3-2.8-.1-.5-.1-.9-.2-1.4-.1-.5-.2-.9-.3-1.3-1.8-7.1-6.2-12.3-10.5-15.3-2.2-1.5-4.3-2.6-6.3-3.3-.5-.2-1-.3-1.4-.5-.5-.1-.9-.2-1.3-.3l-1.2-.3c-.4-.1-.8-.1-1.1-.2-.7-.1-1.3-.2-1.9-.2h-2.2c-.1.1-.2.1-.2.1h.3c.2 0 .5 0 .8.1.4 0 .8.1 1.4.1.5 0 1.2.2 1.9.3 2.8.5 6.9 1.6 11.2 4.7 4.2 3 8.5 8.2 10.2 15.2.1.4.2.9.3 1.3.1.4.1.9.2 1.4.2.9.2 1.8.2 2.8.1 1.9 0 3.8-.4 5.8-.7 3.9-2.4 7.8-5 11.3l-.1.1v.1c.9 3.3 1.8 6.6 2.7 10.1l.4-.4c-3.1-1.2-6.2-2.5-9.4-3.8l-.1-.1v.1c-2.7 1.8-5.8 3.1-9 3.8-1.5.3-3 .5-4.5.6h-2.3c-.8 0-1.5 0-2.2-.2-3-.4-5.8-1.3-8.4-2.6-2.6-1.3-4.9-3-6.9-4.9-2-2-3.6-4.2-4.8-6.6-1.3-2.3-2-4.9-2.5-7.3-.1-.6-.2-1.2-.3-1.9-.1-.6-.1-1.2-.1-1.8-.1-1.2 0-2.4.1-3.6.4-4.7 2.1-9 4.3-12.3 2.2-3.4 5-5.9 7.7-7.6 2.7-1.8 5.3-2.8 7.5-3.4.5-.1 1.1-.3 1.6-.4.5-.1 1-.2 1.4-.2.4-.1.8-.1 1.2-.2.4 0 .7 0 1-.1.6 0 1-.1 1.4-.1 0-.3.2-.3.2-.3z" fill="#263238"/></g><defs><clipPath id="clip0_3_1454"><path fill="#fff" d="M0 0h689.9v427.3H0z"/></clipPath></defs></svg>