<svg width="484" height="546" fill="none" xmlns="http://www.w3.org/2000/svg"><g clip-path="url(#clip0_7_9883)"><path d="M104.507 400.198c-2.336-2.45-5.839-3.383-8.992-4.549-14.011-5.132-25.221-17.147-29.425-31.377-4.203-14.23-1.401-30.327 7.473-42.341l-.467-2.449c-1.05-11.548-14.946-19.713-25.572-15.164-10.626 4.549-14.245 20.296-6.656 29.044-12.494 1.05-20.667 15.164-18.916 27.644 1.752 12.248 10.743 22.395 20.901 29.744 16.581 12.131 37.016 18.896 57.45 19.012 1.401 0 2.919 0 4.087-.699 2.919-1.75 2.452-6.416.117-8.865zm347.265-50.273c2.919-4.665 3.27-10.847.351-15.513-2.92-4.666-9.342-6.999-14.246-4.666 2.802-4.665 1.168-11.314-3.386-14.23-4.554-2.799-11.327-1.4-14.246 3.149-3.269 5.133-1.518 12.014 1.285 17.38 2.802 5.365 6.772 10.498 7.706 16.446.934 6.182-1.401 12.481-5.138 17.497-3.736 5.015-8.64 8.981-13.428 12.83l-.934.933c8.758 3.033 18.683 2.217 26.857-2.332 4.553-2.567 8.874-6.766 9.107-11.898.117-2.916-.934-5.832-.467-8.748.584-4.199 4.321-7.232 6.539-10.848zM200.606 540.518c-4.554-.583-9.108-2.566-11.793-6.299-1.752-2.333-2.569-5.249-3.971-7.815-1.518-2.566-4.086-4.782-7.006-4.549-4.553.467-7.589 6.649-11.91 5.599-2.685-.7-3.853-3.733-3.97-6.532 0-2.683.817-5.482.467-8.165-.934-7.582-10.742-11.314-17.982-8.981-7.24 2.332-18.332 11.197-23.12 17.146 5.021 8.282 15.18 11.548 24.638 13.88 15.764 3.966 31.644 7.349 47.758 10.032 3.736.699 7.59 1.283 11.326.699 3.737-.583 7.473-2.566 9.225-5.948-4.437.816-9.108 1.516-13.662.933zm180.872-58.438c-1.167-6.532-7.589-12.247-14.012-10.731 5.372-4.432 5.372-13.18 1.168-18.662-4.204-5.483-11.56-7.815-18.449-7.582-6.889.233-13.545 2.683-19.967 5.249 3.152-3.966-1.402-10.265-6.539-10.498-5.021-.35-9.575 2.916-13.779 5.832-4.087 3.033-8.874 6.065-13.895 5.249l4.671 1.866c11.209 1.75 22.652 4.316 32.344 10.265 9.808 5.832 17.749 15.513 19.5 26.711 1.635 11.314-4.203 23.911-14.946 27.76 14.362.934 29.075-5.715 37.949-17.146 4.087-5.249 7.123-11.781 5.955-18.313zM11.21 313.883c-.117 0-.35-4.899-.35-10.848 0-5.948.116-10.847.35-10.847.116 0 .35 4.899.35 10.847 0 5.949-.117 10.848-.35 10.848z" fill="#E0E0E0"/><path d="M22.536 303.035c0 .117-5.02.35-11.21.35-6.188 0-11.21-.117-11.21-.35 0-.233 5.022-.35 11.21-.35 6.072 0 11.21.117 11.21.35zM445 425.509c-.117 0-.351-4.899-.351-10.848 0-5.948.117-10.847.351-10.847.233 0 .35 4.899.35 10.847 0 6.066-.117 10.848-.35 10.848z" fill="#E0E0E0"/><path d="M456.209 414.661c0 .117-5.021.35-11.209.35-6.189 0-11.21-.116-11.21-.35 0-.116 5.021-.349 11.21-.349 6.188.116 11.209.233 11.209.349zM379.026 52.722c-.116 0-.35-4.899-.35-10.848 0-5.948.117-10.847.35-10.847.117 0 .351 4.899.351 10.847 0 5.95-.234 10.848-.351 10.848z" fill="#E0E0E0"/><path d="M390.236 41.874c0 .117-5.021.35-11.21.35-6.188 0-11.209-.116-11.209-.35 0-.116 5.021-.35 11.209-.35 6.189 0 11.21.117 11.21.35zM23.704 218.47a6.652 6.652 0 006.655-6.649 6.652 6.652 0 00-6.655-6.648 6.652 6.652 0 00-6.656 6.648 6.652 6.652 0 006.656 6.649zm265.178 276.091c0 3.616-2.919 6.649-6.656 6.649-3.736 0-6.655-2.917-6.655-6.649 0-3.616 2.919-6.649 6.655-6.649 3.737 0 6.656 2.916 6.656 6.649zm61.887-125.507c0 3.616-2.92 6.649-6.656 6.649-3.737 0-6.656-2.916-6.656-6.649 0-3.615 2.919-6.648 6.656-6.648 3.736 0 6.656 3.033 6.656 6.648zM153.315 38.492c0 3.616-2.919 6.648-6.655 6.648-3.62 0-6.656-2.916-6.656-6.648 0-3.733 2.919-6.649 6.656-6.649 3.736 0 6.655 3.033 6.655 6.649zm28.141 395.998a3.268 3.268 0 003.27-3.265 3.268 3.268 0 00-3.27-3.266 3.268 3.268 0 00-3.269 3.266 3.267 3.267 0 003.269 3.265zm-76.833-19.829c0 1.867-1.518 3.266-3.269 3.266a3.262 3.262 0 01-3.27-3.266c0-1.866 1.518-3.266 3.27-3.266 1.751 0 3.269 1.517 3.269 3.266zM186.594 45.14c0 1.867-1.518 3.266-3.27 3.266-1.751 0-3.269-1.516-3.269-3.266 0-1.866 1.518-3.266 3.269-3.266 1.752 0 3.27 1.4 3.27 3.266zm146.309 179.629c0 1.866-1.518 3.266-3.269 3.266-1.752 0-3.27-1.517-3.27-3.266 0-1.75 1.518-3.266 3.27-3.266 1.751 0 3.269 1.399 3.269 3.266z" fill="#E0E0E0"/><path d="M13.778 35.342s-7.356 3.85 2.92 19.246C27.09 70.102 33.862 77.567 33.862 77.567s1.985 3.616-1.167 4.665c-3.153.934-10.393.7-11.327 4.783-1.05 4.316 2.453 7.815 8.875 10.38 6.422 2.684 20.317 8.982 21.485 9.565 1.284.584 2.569 2.217.584 3.266-1.985 1.05-17.866 4.549-15.647 11.898 2.102 7.348 21.252 11.897 23.353 12.364 2.102.583 2.686 1.283 2.57 2.449 0 1.167-5.489 1.75-9.926 3.033-4.437 1.167-9.341 3.383-7.823 7.465 1.634 4.199 13.545 11.898 40.168 11.314l12.377-1.049 5.488-11.198c10.275-24.611 7.356-38.492 4.087-41.524-3.27-3.033-7.123.816-9.809 4.549-2.685 3.732-5.371 8.514-6.422 8.048-1.05-.35-1.518-1.167-1.284-3.383.233-2.099 3.036-21.578-3.036-26.244s-15.18 8.748-16.815 10.264c-1.635 1.517-2.685-.35-2.802-1.633-.117-1.4-.934-16.563-1.051-23.561-.117-6.999-2.102-11.431-6.539-12.014-4.204-.584-6.539 6.182-8.64 8.864-2.103 2.567-4.788-.583-4.788-.583s-4.437-9.098-15.18-24.378c-10.626-15.28-17.048-9.681-17.048-9.681" fill="#EBEBEB"/><path d="M98.435 160.616c-7.824-11.315-21.252-31.494-32.929-48.873C53.83 94.48 43.321 78.733 35.497 67.419c-3.853-5.599-7.006-10.148-9.108-13.414a312.096 312.096 0 00-2.452-3.5c-.233-.466-.467-.699-.584-.932.117.233.35.583.701.933.584.816 1.401 2.1 2.569 3.616 2.218 3.15 5.371 7.698 9.224 13.297 7.824 11.314 18.333 26.944 30.01 44.207 11.676 17.38 25.105 37.559 32.811 48.873" fill="#E0E0E0"/><path d="M31.527 87.831s.35 0 .934.117c.584.117 1.401.35 2.336.583a121.41 121.41 0 017.823 2.1c2.92.816 5.722 1.633 7.707 2.216.934.233 1.751.466 2.335.7.584.116.817.233.817.233s-.35 0-.934-.117c-.584-.116-1.4-.35-2.335-.583-1.985-.466-4.788-1.283-7.707-2.1-3.036-.816-5.721-1.632-7.706-2.216-.934-.233-1.752-.466-2.336-.7-.7-.116-.934-.233-.934-.233zM54.18 92.73c-.117 0 1.168-5.715 2.802-12.83 1.635-6.999 3.036-12.714 3.153-12.714.117 0-1.168 5.715-2.802 12.83-1.635 7.115-3.036 12.83-3.153 12.714zm16.698 27.411s.117-.35.467-.816c.35-.584.7-1.284 1.167-2.217 1.051-1.866 2.453-4.315 3.854-7.231 1.518-2.8 2.685-5.483 3.62-7.349.467-.933.817-1.633 1.05-2.216.234-.583.35-.817.468-.817 0 0-.117.35-.234.817-.234.583-.467 1.283-.934 2.333a94.258 94.258 0 01-3.503 7.465c-1.401 2.799-2.92 5.365-3.97 7.115-.584.933-1.051 1.633-1.285 2.1-.467.583-.7.933-.7.816zm-21.486 0s.35 0 .818-.117c.584 0 1.401 0 2.335-.116 1.985 0 4.67-.117 7.59-.117h9.925c.584 0 .818 0 .818.117 0 0-.35 0-.818.116-.584 0-1.4 0-2.335.117-1.985 0-4.67.117-7.59.117H50.21c-.584 0-.818 0-.818-.117zm11.678 26.128s.35-.117 1.05-.117c.818 0 1.752-.117 2.92-.117a211.28 211.28 0 019.691-.233c3.853-.116 7.24-.116 9.692-.116h3.969s-.35.116-1.05.116c-.817 0-1.752.117-2.92.117a211.19 211.19 0 01-9.691.233c-3.737.117-7.24.117-9.692.117H61.07zm26.739-.817s.117-.35.467-1.05l1.401-2.799c1.168-2.333 2.92-5.599 4.67-9.331a234.723 234.723 0 004.321-9.448c.467-1.167.934-2.1 1.285-2.916.35-.7.467-1.05.467-1.05l-.35 1.05c-.234.7-.701 1.749-1.168 2.916-1.051 2.449-2.452 5.832-4.204 9.564a201.186 201.186 0 01-4.787 9.215c-.7 1.166-1.168 2.1-1.518 2.799-.234.7-.467 1.05-.584 1.05z" fill="#E0E0E0"/><path d="M414.757 257.428c-13.195-11.431-14.362-30.21-12.027-46.773.35-2.799.35-5.715 1.985-8.048 1.635-2.333 4.788-3.616 7.24-2.216 1.985 1.166 2.569 3.732 3.503 5.832 1.284 2.799 3.269 5.248 5.838 6.881 1.635 1.05 3.737 1.867 5.605 1.167 2.569-1.05 3.153-4.316 3.503-7.115.467-5.133 1.051-10.265 1.518-15.397.233-2.799.584-5.599 1.751-8.048 1.168-2.566 3.27-4.783 5.955-5.249 2.686-.467 5.722 1.4 6.072 4.199.117 1.166-.233 2.333-.233 3.383 0 1.166.35 2.449 1.401 2.916 1.051.466 2.219-.234 3.153-.934 3.152-2.449 5.488-5.832 7.59-9.214 2.218-3.383 4.32-6.765 7.239-9.565 2.919-2.799 6.773-4.782 10.743-4.549 3.97.233 7.94 3.033 8.524 7.115.584 3.966-2.102 7.699-4.904 10.498-4.204 4.316-8.992 7.932-14.129 10.848-.934.466-1.985 1.049-2.336 2.099-.817 1.75.701 3.733 2.453 4.549 1.985.933 4.203.933 6.305 1.4 2.102.467 4.32 1.633 4.904 3.849.818 2.916-1.868 5.599-4.32 7.349-5.021 3.382-10.743 5.832-16.581 7.348-2.102.467-4.321.933-6.072 2.216-1.752 1.283-3.036 3.616-2.219 5.716.818 2.099 3.27 2.916 5.372 2.799 2.218-.117 4.203-1.166 6.305-1.633 3.97-1.05 8.758-.233 10.859 3.266 1.402 2.333 1.168 5.366.117 7.815-1.051 2.45-2.919 4.549-4.904 6.299-6.889 6.415-15.18 11.314-24.288 13.414-9.341 1.982-17.515 1.982-25.922-2.217z" fill="#F5F5F5"/><path d="M420.128 247.514c3.387-8.048 7.707-16.68 12.611-25.545a180.82 180.82 0 003.62-6.532c1.168-2.099 2.452-4.199 3.737-6.298 2.568-3.966 5.371-7.699 8.173-11.081a410.871 410.871 0 018.057-9.448c2.569-2.916 5.021-5.599 7.357-7.815 4.67-4.666 8.874-7.932 11.91-10.148a308.371 308.371 0 003.503-2.45c.35-.233.7-.466.934-.583.234-.116.35-.233.35-.233s-.116.117-.35.233c-.234.117-.467.35-.934.583-.818.584-1.985 1.4-3.386 2.45-2.92 2.216-7.123 5.482-11.794 10.264-2.335 2.333-4.787 5.016-7.356 7.932a408.386 408.386 0 00-8.057 9.448c-2.686 3.383-5.488 6.998-8.057 11.081-1.285 1.983-2.452 4.082-3.737 6.182-1.167 2.1-2.452 4.316-3.619 6.532-4.905 8.865-9.342 17.38-12.728 25.428" fill="#E0E0E0"/><path d="M440.329 209.255s-.117-.466-.117-1.166c-.116-.817-.116-1.866-.116-3.266-.117-2.799-.117-6.649-.117-10.848 0-4.199 0-8.048-.117-10.847-.117-1.4-.117-2.567-.234-3.266 0-.817-.116-1.167 0-1.167 0 0 .117.467.234 1.167.117.816.234 1.866.35 3.266.234 2.799.351 6.648.351 10.847s0 7.932-.117 10.848v3.266c-.117.7-.117 1.166-.117 1.166zm36.081-2.799h-5.254c-3.27 0-7.824.117-12.845.583-5.021.35-9.458.933-12.727 1.4-1.635.233-2.92.466-3.854.583-.934.117-1.401.233-1.401.233l1.401-.35c.934-.233 2.219-.466 3.854-.816 3.269-.583 7.706-1.167 12.727-1.633 5.021-.35 9.575-.467 12.845-.35 1.634 0 2.919.117 3.853.233.934 0 1.401.117 1.401.117zm-55.698 40.475s-.117-.117-.233-.467c-.117-.35-.234-.816-.467-1.4-.351-1.166-.935-2.916-1.518-5.015-1.285-4.199-2.803-10.148-4.438-16.68-1.634-6.532-3.152-12.481-4.32-16.68-.584-2.099-1.051-3.732-1.401-5.015a12.281 12.281 0 00-.35-1.4c-.117-.35-.117-.467-.117-.467s.117.117.233.467c.117.35.234.816.467 1.4.351 1.166.935 2.916 1.518 5.015 1.285 4.199 2.803 10.148 4.438 16.68 1.634 6.532 3.152 12.481 4.32 16.68.584 2.099 1.051 3.732 1.401 5.015.117.584.234 1.05.35 1.4 0 .35.117.467.117.467zm48.692-10.032s-.117.117-.467.117c-.35.117-.817.233-1.401.35-1.285.233-3.036.7-5.255 1.05-4.437.933-10.509 2.216-17.164 3.732-6.656 1.517-12.845 2.8-17.165 3.616-2.219.467-3.97.7-5.255.933-.584.117-1.051.117-1.401.234h-.467s.117-.117.467-.117c.35-.117.817-.233 1.401-.35 1.285-.233 3.036-.583 5.255-1.05 4.437-.933 10.509-2.216 17.165-3.732 6.655-1.517 12.844-2.8 17.164-3.616 2.219-.467 3.97-.7 5.255-.933.584-.117 1.051-.117 1.401-.234.234 0 .467-.116.467 0zM313.286 60.42c2.102-12.13 7.941-29.86 14.83-40.124C335.005 10.148 345.748 1.983 358.008.35c12.261-1.633 25.689 4.082 31.177 15.047 2.919 5.948 3.503 12.714 5.605 19.012 2.102 6.299 6.889 12.481 13.428 12.947 5.838.467 11.443-3.732 17.165-2.682 7.473 1.4 10.392 10.73 10.392 18.313 0 7.581-1.051 16.096 3.62 22.045 3.853 4.899 10.392 6.648 15.647 9.914 11.443 7.116 16.347 21.929 15.179 35.343-1.167 13.414-7.356 25.894-13.895 37.675-5.488-19.362-12.961-38.025-22.302-55.871-5.255-10.148-15.063-18.78-23.587-26.478-13.195-11.664-42.153-17.263-59.552-19.362-17.164-2.1-20.2-2.567-37.599-5.833z" fill="#E0E0E0"/><path d="M196.636 74.65c-43.321 3.15-90.611 8.865-125.174 22.163l10.976 73.951s67.141-24.029 121.788-22.396l-7.59-73.717z" fill="#E8505B"/><path opacity=".8" d="M196.636 74.65c-43.321 3.15-90.611 8.865-125.174 22.163l10.976 73.951s67.141-24.029 121.788-22.396l-7.59-73.717z" fill="#fff"/><path d="M193.483 138.687s-.117 0-.467.117c-.35 0-.7.116-1.284.116-1.168.117-2.686.35-4.671.584-2.102.233-4.554.583-7.473.933-2.919.466-6.189.816-9.925 1.399-14.596 2.217-34.68 5.949-56.516 11.665-7.589 1.982-14.946 3.965-21.602 6.065l-.35.117v-.35c-2.335-16.913-4.554-31.61-6.305-41.991a802.27 802.27 0 01-2.102-12.131c-.234-1.4-.467-2.45-.584-3.266 0-.35-.117-.583-.117-.817v-.233s0 .117.117.233c0 .234.117.467.234.817.116.816.35 1.866.7 3.266.584 2.799 1.285 6.882 2.219 12.131 1.868 10.381 4.203 24.961 6.539 41.991l-.35-.234c6.772-2.099 14.012-4.199 21.601-6.065 21.836-5.599 42.037-9.331 56.632-11.431 3.62-.583 7.007-.933 9.926-1.4 2.919-.35 5.371-.699 7.473-.816 1.985-.233 3.62-.35 4.787-.467.467 0 .934-.116 1.285-.116.116-.117.233-.117.233-.117z" fill="#E8505B"/><path d="M195.001 120.724s-.117-.466-.467-1.516c-.35-.933-1.051-2.333-2.218-3.849-1.168-1.517-2.92-3.15-5.255-4.549-.584-.35-1.284-.7-1.868-1.05-.701-.233-1.401-.583-2.102-.817-1.518-.466-3.153-.699-4.787-.466-1.635.233-3.387.816-4.905 1.983-1.518 1.05-2.802 2.566-3.97 4.315-2.335 3.383-3.736 7.466-5.488 11.781-.934 2.1-2.102 4.316-4.087 5.832a7.069 7.069 0 01-3.386 1.633c-1.284.234-2.569 0-3.853-.466-4.904-1.983-7.123-7.582-12.144-9.332-2.452-.816-5.138-.466-7.356.584-1.168.583-2.102 1.283-2.92 2.216-.817.933-1.401 1.983-1.985 3.149-1.167 2.216-1.985 4.666-3.853 6.299-.934.816-2.102 1.4-3.386 1.516-1.285.117-2.452-.233-3.503-.7-2.102-1.049-3.737-2.916-4.788-4.782-1.167-1.866-1.751-3.966-2.569-5.832-.7-1.866-1.517-3.733-2.568-5.249-1.051-1.516-2.336-2.799-3.854-3.616-3.036-1.633-6.422-1.4-8.874-.233-2.569 1.05-4.437 2.566-5.605 4.082-1.284 1.517-1.868 2.916-2.102 3.85-.35.933-.35 1.516-.35 1.516s0-.583.234-1.516c.233-.934.817-2.45 2.101-3.966 1.168-1.517 3.153-3.15 5.722-4.199 2.452-1.167 6.072-1.517 9.225.233 1.634.816 3.036 2.099 4.086 3.732 1.051 1.633 1.869 3.5 2.569 5.366.818 1.866 1.518 3.849 2.569 5.715 1.168 1.75 2.686 3.5 4.671 4.549.934.467 2.102.817 3.153.7 1.167-.116 2.218-.583 3.036-1.399 1.751-1.517 2.568-3.966 3.736-6.182.584-1.167 1.168-2.217 1.985-3.266.818-1.05 1.868-1.867 3.153-2.45 2.335-1.166 5.254-1.516 7.823-.583 2.686.816 4.554 2.916 6.306 4.782 1.751 1.866 3.503 3.733 5.838 4.666 1.168.466 2.335.583 3.503.466 1.168-.233 2.219-.816 3.153-1.516 1.868-1.4 3.036-3.499 3.97-5.599 1.751-4.199 3.269-8.398 5.605-11.781 1.167-1.749 2.452-3.265 4.087-4.315 1.518-1.167 3.386-1.75 5.137-1.983 1.752-.233 3.503 0 5.021.466.818.234 1.518.584 2.102.817.701.35 1.285.583 1.868 1.05 2.336 1.516 4.087 3.149 5.255 4.782 1.168 1.516 1.868 2.916 2.102 3.966.116.466.233.816.35 1.166-.117-.116-.117 0-.117 0zM80.22 111.043c0 .117-.585.467-1.285.583-.701.117-1.285.117-1.402 0 0-.116.584-.466 1.285-.583.817-.233 1.401-.117 1.401 0zm1.984 13.53c.117.117-.35.467-.934.817-.584.233-1.168.35-1.168.233-.117-.116.35-.466.934-.816.584-.35 1.051-.35 1.168-.234zm2.336 14.697c0 .117-.35.467-.935.7-.584.233-1.167.233-1.167.117 0-.117.35-.467.934-.7.584-.233 1.168-.233 1.168-.117zm2.919 14.58c0 .117-.467.467-1.051.7-.7.234-1.285.234-1.285.117s.467-.467 1.051-.7c.7-.233 1.168-.35 1.285-.117zm81.62-69.751s.467-.234 1.401-.35c.934-.117 2.335-.35 3.97-.583 3.503-.467 8.407-1.167 14.363-1.867h.233v.234c.467 5.015.934 10.73 1.518 16.796v.583h-.233c-7.123.817-13.779 1.633-19.384 2.333h-.233v-.233c-.584-5.016-1.051-9.332-1.285-12.364-.117-1.4-.233-2.566-.35-3.383V84.1s.117.466.233 1.283c.117.816.234 1.983.468 3.382.35 3.033.934 7.232 1.517 12.248l-.233-.234c5.605-.699 12.261-1.516 19.383-2.449l-.233.35v-.233c-.584-6.066-1.051-11.781-1.518-16.797l.35.233a2316.857 2316.857 0 01-19.967 2.217z" fill="#E8505B"/><path d="M187.061 87.015c0 .233-3.386.233-7.356.583-4.087.466-7.357 1.166-7.357.933 0-.117 3.153-1.166 7.24-1.516 4.087-.35 7.473-.117 7.473 0zm.234 4.315c0 .234-3.153.35-6.89.7-3.853.35-6.889.817-6.889.7 0-.116 3.036-.933 6.889-1.283 3.737-.35 6.89-.233 6.89-.117zm-4.671 3.85c0 .116-1.752.583-3.97.816-2.219.233-3.97.35-3.97.233 0-.116 1.751-.583 3.97-.816 2.218-.35 3.97-.467 3.97-.233zm225.01 1.283C365.248 83.516 329.517 72.55 281.526 72.9l-7.357 75.351c49.86 4.432 66.558 7.698 112.564 24.261l20.901-76.05z" fill="#E8505B"/><path opacity=".8" d="M407.634 96.463C365.248 83.516 329.517 72.55 281.526 72.9l-7.357 75.351c49.86 4.432 66.558 7.698 112.564 24.261l20.901-76.05z" fill="#fff"/><path d="M311.652 109.41l1.868-15.98c-4.437-.467-9.225.816-13.078 3.616-4.554 3.383-7.94 8.748-8.057 15.863 0 .817 0 1.517.117 2.333l18.683-2.1.467-3.732zm19.383-2.566c-1.868-5.949-6.305-11.081-13.312-12.714-.233 0-.35-.117-.583-.117-.117 0-.234 0-.351-.116-.35-.117-.7-.117-1.051-.117l-1.868 15.98-.467 3.732 17.632 6.416c.467-1.283.701-2.683.934-4.083.234-2.916 0-6.065-.934-8.981z" fill="#E8505B"/><path opacity=".3" d="M331.035 106.844c-1.868-5.949-6.305-11.081-13.312-12.714-.233 0-.35-.117-.583-.117-.117 0-.234 0-.351-.116-.35-.117-.7-.117-1.051-.117l-1.868 15.98-.467 3.732 17.632 6.416c.467-1.283.701-2.683.934-4.083.234-2.916 0-6.065-.934-8.981z" fill="#000"/><path d="M312.002 115.359l-18.683 2.099c.818 9.098 7.356 16.563 16.231 17.613 8.874 1.05 17.165-4.666 20.084-13.297l-17.632-6.415zm79.285-4.549s-.584-.234-1.635-.7c-1.051-.467-2.569-1.167-4.437-1.866-3.737-1.633-9.108-3.616-15.063-5.249-5.955-1.75-11.56-2.8-15.53-3.5-1.985-.35-3.62-.583-4.787-.7-1.168-.116-1.752-.233-1.752-.35 0 0 .584 0 1.752.117 1.167.117 2.802.234 4.787.467 4.087.583 9.692 1.516 15.647 3.266 6.072 1.749 11.326 3.732 15.063 5.482 1.868.816 3.386 1.516 4.32 2.1 1.051.583 1.635.933 1.635.933zm-1.285 7.931s-.583-.233-1.634-.7c-1.051-.466-2.569-1.166-4.437-1.866-3.737-1.633-9.108-3.616-15.063-5.249-5.956-1.749-11.56-2.799-15.53-3.499-1.985-.35-3.62-.583-4.788-.7-1.168-.116-1.751-.233-1.751-.35 0 0 .583 0 1.751.117s2.803.233 4.788.466c4.086.584 9.691 1.517 15.646 3.266 6.072 1.75 11.327 3.733 15.063 5.483 1.869.816 3.387 1.516 4.321 2.099 1.051.583 1.634.817 1.634.933zm-1.284 7.815s-.584-.233-1.635-.7c-1.051-.466-2.569-1.166-4.437-1.866-3.736-1.633-9.108-3.616-15.063-5.249-5.955-1.749-11.56-2.799-15.53-3.499-1.985-.35-3.62-.583-4.787-.7-1.168-.116-1.752-.233-1.752-.35 0 0 .584 0 1.752.117 1.167.117 2.802.233 4.787.466 4.087.584 9.692 1.517 15.647 3.266 6.072 1.75 11.326 3.733 15.063 5.483 1.868.816 3.386 1.516 4.32 2.099 1.051.583 1.635.933 1.635.933zm-2.569 7.932s-.584-.233-1.635-.7c-1.051-.466-2.452-1.166-4.32-1.866-3.62-1.517-8.758-3.616-14.596-5.249-5.838-1.75-11.21-2.799-15.18-3.499-1.985-.35-3.503-.584-4.67-.7-1.051-.117-1.752-.233-1.752-.35 0 0 .584 0 1.752.117 1.167.116 2.685.233 4.67.466 3.97.583 9.342 1.633 15.18 3.266 5.838 1.75 10.976 3.733 14.596 5.482 1.751.817 3.269 1.517 4.204 2.1 1.284.583 1.751.816 1.751.933zm-5.605 6.182s-.584-.117-1.401-.583a311.13 311.13 0 01-3.853-1.75c-3.27-1.4-7.824-3.266-13.078-4.782-5.255-1.517-10.042-2.333-13.662-2.8-1.635-.233-3.036-.466-4.204-.583-.934-.116-1.518-.233-1.518-.233h1.518c1.051 0 2.453.233 4.204.35 3.503.466 8.407 1.166 13.779 2.683 5.254 1.516 9.808 3.499 13.078 5.015 1.634.817 2.919 1.4 3.736 1.866.934.584 1.401.817 1.401.817zm-18.799.933c0 .117-1.168-.233-3.036-.583-1.868-.467-4.437-.933-7.24-1.516-2.802-.467-5.488-.817-7.356-1.167-1.868-.233-3.036-.466-3.036-.583 0-.117 1.168 0 3.036.117 1.868.116 4.554.466 7.356.933 2.919.466 5.488 1.166 7.24 1.633 1.985.699 3.036 1.049 3.036 1.166z" fill="#E8505B"/><path d="M288.882 81.766h.934c.701 0 1.635 0 2.919-.117 2.569-.116 6.306 0 11.093.233a170.12 170.12 0 0138.884 6.999l.233.117v.233a63565.22 63565.22 0 01-10.158 57.854c-.117.817-.351 1.75-.468 2.566v.35l-.35-.116c-8.874-2.333-17.632-4.083-25.922-5.366-8.407-1.283-16.348-2.216-23.821-2.683h-.233v-.233c2.102-17.846 3.736-32.776 4.904-43.274.584-5.249 1.051-9.331 1.401-12.13.117-1.4.351-2.45.351-3.15 0-.35.116-.583.116-.817.117-.35.117-.466.117-.466v.35c0 .233 0 .466-.117.816a57.79 57.79 0 00-.35 3.266c-.35 2.8-.701 6.999-1.284 12.248a7520.292 7520.292 0 00-4.671 43.157l-.234-.35c7.473.467 15.414 1.4 23.821 2.566 8.407 1.283 17.165 3.033 26.039 5.366l-.35.233c.116-.816.35-1.75.467-2.566 3.736-21.229 7.239-41.058 10.158-57.854l.117.233c-15.647-4.782-29.308-6.415-38.766-7.115-4.788-.35-8.525-.35-10.977-.35h-3.853zM242.525 235.85l41.336 9.098 6.305-9.098-.934-11.781-6.305-5.716h-21.719l-20.201 18.196" fill="#E8505B"/><path opacity=".3" d="M242.525 235.85l41.336 9.098 6.305-9.098-.934-11.781-6.305-5.716h-21.719l-20.201 18.196" fill="#000"/><path d="M305.58 150.818l52.195-6.999 8.173-2.333s18.8-4.082 20.551-4.782c1.985-.7 2.92.117 3.036.817.351 1.166-.817 2.566-2.569 3.149-.583.233-10.158 3.499-10.158 3.499s.934.117 3.269.933c2.336.817 4.437 3.733 5.605 7.115 1.051 3.383 1.051 4.433-.234 5.016-.583.233-1.05 0-1.518-.233-.7-.467-1.284-1.167-1.517-1.983-1.869-5.482-5.255-5.949-5.255-5.949l-1.051.35s3.503 2.45 3.503 5.482c0 .467-.117.933-.233 1.283.467 1.4.233 3.15-.701 4.316-1.051 1.283-2.686 1.866-4.32 1.633-.701-.117-1.518-.583-1.635-1.283 0-.35.117-.817.233-1.166.117-.234.117-.35.234-.584l-3.153.467s-7.123.583-10.159 1.166l-48.808 14.697c-6.773 1.983-13.896-1.866-15.881-8.631-2.218-7.465 2.803-14.93 10.393-15.98z" fill="#FFBE9D"/><path d="M358.942 145.102c.117 1.05 1.168 1.867 2.219 2.1 1.051.233 2.218.117 3.269.233 3.27.467 5.722 3.383 8.991 3.616.467 0 1.051 0 1.168-.467.117-.349-.233-.816-.584-1.049-2.685-2.45-5.371-4.783-8.173-7.232" fill="#FFBE9D"/><path d="M366.065 142.303s.35.233.934.7a66.412 66.412 0 012.452 2.099c1.051.933 2.336 1.983 3.62 3.15.35.35.701.583 1.051.933.35.35.817.583.934 1.283 0 .35-.233.7-.584.816-.35.117-.584.117-.934.117a3.238 3.238 0 01-1.518-.35c-2.102-.7-3.62-1.866-5.254-2.683-.818-.35-1.518-.7-2.336-.816-.7-.117-1.518-.117-2.218-.117-1.401 0-2.569-.583-2.919-1.283-.467-.7-.351-1.166-.351-1.166.117 0 0 .466.584.933.467.583 1.518 1.05 2.803 1.05.7 0 1.401 0 2.218.116.817.117 1.635.35 2.452.817 1.635.7 3.27 1.983 5.138 2.566.467.116.934.233 1.401.233.467 0 .818-.117.818-.35 0-.233-.351-.583-.701-.933-.35-.35-.701-.583-1.051-.933a421.195 421.195 0 00-3.503-3.149 50.104 50.104 0 01-2.335-2.217c-.467-.466-.701-.699-.701-.816zm9.925 7.115c0 .117.818-.35 2.102 0 .584.117 1.285.583 1.752 1.283.583.7.934 1.516 1.284 2.45.35.933.701 1.866 1.168 2.566.467.7 1.051 1.283 1.751 1.633.584.35 1.285.233 1.635 0 .35-.234.467-.35.467-.35l-.467.233c-.35.117-.817.117-1.401-.117-.584-.35-1.051-.816-1.518-1.633-.467-.699-.818-1.633-1.168-2.566-.35-.933-.817-1.866-1.401-2.566-.584-.7-1.284-1.166-1.985-1.283-.701-.117-1.285 0-1.635 0-.35.233-.584.35-.584.35zm11.794-8.981s-.701.233-1.868.699c-1.285.467-2.803 1.05-4.554 1.633-1.752.584-3.27 1.167-4.554 1.633-1.168.35-1.869.7-1.869.7s.818-.116 1.985-.466c1.168-.35 2.803-.817 4.554-1.517 1.752-.583 3.387-1.283 4.554-1.749 1.051-.467 1.752-.817 1.752-.933zm-13.078 11.897s.117.233.467.467c.233.233.701.816.584 1.399 0 .35-.234.584-.584.817-.35.233-.817.233-1.284.35-.468.116-1.051.233-1.402.7a1.857 1.857 0 00-.233 1.749c.233.583.7 1.05 1.167 1.283.467.234 1.051.35 1.518.234a11.987 11.987 0 002.453-.934c.7-.349 1.167-.699 1.401-1.049.233-.35.35-.584.35-.584s-.117.234-.467.467c-.234.233-.817.583-1.401.933-.584.35-1.401.583-2.336.817-.817.116-1.985-.35-2.335-1.283-.117-.467-.117-1.05.117-1.4.233-.35.7-.467 1.168-.583.467-.117.934-.234 1.284-.467.467-.233.701-.583.701-1.05 0-.816-.468-1.283-.818-1.633a1.435 1.435 0 01-.35-.233z" fill="#EB996E"/><path d="M373.538 158.866s-.233 0-.467.233c-.233.234-.584.7-.584 1.4s.584 1.516 1.402 1.866c.817.35 1.868.35 2.802 0 .934-.35 1.751-.933 2.218-1.749.468-.7.701-1.517.701-2.217 0-.699-.117-1.166-.117-1.516-.116-.35-.233-.466-.233-.466-.117 0 .233.816.117 1.982a5.498 5.498 0 01-.818 1.983c-.467.7-1.167 1.283-2.102 1.517-.934.35-1.868.35-2.568 0-.701-.35-1.168-.933-1.285-1.517-.117-.583.234-1.049.467-1.283.35-.116.467-.233.467-.233zm-8.641-4.316s0-.35-.35-.933c-.35-.466-.934-1.166-1.868-1.516v.35c.35-.234.817-.35 1.167-.7 2.219-1.4 3.387-3.383 3.27-3.383-.117-.116-1.284 1.633-3.503 3.033-.35.233-.817.467-1.168.7l-.35.233.467.117c.817.35 1.518.933 1.868 1.283.234.583.351.816.467.816zm16.231-5.482c-.117-.117-.584.583-.701 1.516-.116.934.351 1.633.468 1.633.116 0-.117-.699-.117-1.516.117-1.05.467-1.633.35-1.633z" fill="#EB996E"/><path d="M137.669 167.148s-7.59-12.364-8.992-13.414c-1.401-1.05-13.428-5.482-14.479-5.132-1.051.35-15.646 2.799-14.012 4.549 1.635 1.749 11.91-.117 11.91-.117l1.402.7s-8.758 1.4-10.626 2.449c-1.752.933-1.168 3.033.467 2.916 1.635-.116 9.225-1.633 9.692-1.283.467.35-8.291 2.1-9.225 2.566-1.284.7-1.401 3.033.234 2.916.934-.116 9.224-2.216 9.224-2.216s-6.539 2.566-7.123 3.15c-.934.933-.233 2.332 1.168 2.099.934-.233 5.605-2.449 6.889-2.683 0 0 1.168.35 2.336 2.8.467 1.166 2.919 8.398 7.239 8.281 3.854-.116 7.59 3.033 7.59 3.033l6.306-10.614z" fill="#FFBE9D"/><path d="M100.303 153.267c0 .117.934.467 2.686.7.817.117 1.868.233 3.036.117 1.167-.117 2.335-.35 3.619-.467.934-.116 1.869-.233 2.686-.35h-.117c3.62 1.283 6.306 2.1 6.306 1.983 0-.116-2.452-1.283-6.072-2.566h-.234c-.817.117-1.751.233-2.685.35-1.285.233-2.453.35-3.62.467-1.051.116-2.102.116-2.919 0-1.635-.117-2.686-.35-2.686-.234z" fill="#EB996E"/><path d="M131.947 165.631c-.934.817-2.335.583-3.386 0-1.051-.583-1.869-1.633-2.803-2.333-2.919-2.099-7.239-1.633-10.158-3.849-.351-.35-.818-.816-.584-1.283.233-.466.817-.466 1.284-.466 3.97.116 8.057.233 12.027.233" fill="#FFBE9D"/><path d="M128.327 158.166s-.467-.116-1.284-.116c-.818-.117-2.102-.117-3.503-.234-1.518-.116-3.387-.116-5.255-.233h-1.518c-.467 0-1.168-.117-1.751.35-.351.233-.351.816-.234 1.166.117.35.35.584.584.817.467.35.934.7 1.518.933 2.218 1.05 4.437 1.166 6.189 1.75.934.233 1.751.699 2.452 1.166.7.467 1.284 1.05 1.868 1.516 1.168 1.05 2.569 1.4 3.386 1.167.934-.117 1.168-.7 1.168-.7 0-.117-.35.35-1.168.35-.817.117-1.985-.233-3.036-1.283-.584-.467-1.167-1.05-1.868-1.633-.701-.583-1.635-.933-2.569-1.283-1.868-.7-4.087-.817-6.189-1.75-.467-.233-.934-.583-1.401-.816-.35-.35-.584-.7-.35-.933.233-.234.701-.234 1.284-.234h11.677z" fill="#EB996E"/><path d="M196.986 440.323l-2.802 30.56-9.225 23.561c-.7 1.75.234 3.616 1.985 4.199.934.35 1.985.117 2.803-.466 5.137-3.966 24.17-18.546 24.17-20.762.117-2.566 5.138-32.077 5.138-32.077l-22.069-5.015z" fill="#E8505B"/><path opacity=".6" d="M187.061 498.643l27.324-23.328-.117 1.283c-.117 1.167-.701 2.1-1.518 2.916-2.219 2.1-8.407 7.582-22.77 18.663-.817.7-1.985.816-2.919.466zm22.069-33.826c-.817.467-1.168 1.517-.817 2.45.35.816 1.518 1.283 2.335.816.817-.466 1.284-1.749.817-2.566-.467-.816-1.868-1.166-2.569-.583" fill="#fff"/><path d="M195.585 486.163c-.234.116-.701-1.633-2.452-2.683-1.635-1.166-3.386-.933-3.386-1.05 0-.116.35-.233 1.167-.233.701 0 1.752.233 2.686.816.934.584 1.518 1.4 1.868 2.1.117.583.117 1.05.117 1.05zm-2.686 3.849c-.116.117-1.051-.933-2.569-1.633-1.517-.7-2.919-.583-2.919-.7-.116-.116 1.518-.7 3.153.117 1.752.7 2.452 2.099 2.335 2.216zm7.24-8.631c-.117.116-1.518-1.634-3.737-2.8-2.218-1.283-4.437-1.4-4.437-1.516 0-.117 2.336-.35 4.788.933 2.452 1.283 3.619 3.266 3.386 3.383zm1.635-9.215c-.117.116-1.752-.7-3.854-1.05-2.218-.35-3.97 0-4.087-.233-.116-.117 1.752-.817 4.087-.467 2.452.35 3.97 1.516 3.854 1.75zm1.051-8.982c-.117.117-1.752-1.049-3.97-1.166-2.336-.233-4.087.7-4.204.583 0-.116.35-.466 1.051-.7.7-.35 1.868-.583 3.153-.466 1.284.116 2.335.583 3.035.933.701.35 1.051.7.935.816zm-3.737-2.916s-.117-.466.117-1.166c.117-.7.467-1.75 1.284-2.916.351-.583.818-1.167 1.752-1.516.467-.117 1.051 0 1.401.466.35.467.35.933.35 1.4-.233 1.983-2.102 3.616-4.32 3.616-2.219 0-4.087-1.517-4.788-3.266-.116-.467-.233-1.05.117-1.517.35-.466.934-.583 1.401-.466.935.233 1.402.816 1.869 1.283.934.933 1.518 1.983 1.868 2.566.35.7.35 1.05.35 1.166-.117.117-.584-1.633-2.452-3.382-.467-.467-1.051-.933-1.635-1.05-.35-.117-.583 0-.7.233-.117.234-.117.584 0 .933.584 1.4 2.218 2.8 4.087 2.8 1.868 0 3.503-1.517 3.736-3.033 0-.35 0-.816-.233-1.05-.117-.233-.467-.35-.818-.233-.584.117-1.051.817-1.518 1.283-1.634 2.1-1.751 3.849-1.868 3.849z" fill="#263238"/><path d="M225.127 458.285l22.887-181.378-7.357-42.107-43.204 2.333-5.254 217.77c0 1.633 1.051 3.032 2.685 3.382l25.222 3.85c2.452.466 4.788-1.283 5.021-3.85z" fill="#263238"/><path d="M247.43 283.089l41.686 41.175-60.019 14.58 4.321 30.21 81.153-11.081c6.889-.933 13.195-4.665 17.281-10.381a25.406 25.406 0 00.351-29.277l-63.288-92.73-28.258 9.215 6.773 48.289z" fill="#263238"/><path d="M245.094 272.592c.117 0 .818 2.333 1.402 5.132.583 2.916 1.05 5.249.817 5.366-.117 0-.817-2.333-1.401-5.133-.584-2.916-.934-5.365-.818-5.365z" fill="#455A64"/><path d="M239.022 342.693s.351-.116.935-.349c.7-.234 1.634-.467 2.919-.934a383.465 383.465 0 0111.209-3.382c9.692-2.916 23.704-7.115 40.752-12.248l-.117.35c-14.128-15.046-31.293-33.243-50.093-53.188l.467-.117c-.934 8.398-1.985 17.146-3.036 26.011-5.137 43.158-10.042 82.233-13.778 110.46a2319.87 2319.87 0 01-4.671 33.476c-.7 3.966-1.051 6.999-1.518 9.098-.233 1.05-.35 1.75-.467 2.333-.117.583-.233.816-.233.816s0-.233.116-.816c.117-.583.234-1.283.467-2.333.468-2.099.818-5.132 1.402-9.098 1.167-7.932 2.685-19.362 4.554-33.476 3.619-28.227 8.407-67.302 13.545-110.576 1.05-8.865 2.101-17.613 3.036-26.012l.116-.583.467.467c18.8 20.062 35.848 38.258 49.977 53.305l.233.233-.35.117c-17.048 5.016-31.06 9.215-40.752 12.014-4.787 1.4-8.641 2.566-11.209 3.266-1.285.35-2.219.7-2.92.817l-1.051.349z" fill="#455A64"/><path d="M225.594 454.903c-.117 0 4.554-38.492 10.626-85.965 6.072-47.473 11.093-85.849 11.21-85.849.116 0-4.554 38.492-10.626 85.965-6.072 47.357-11.093 85.849-11.21 85.849zm15.063-201.557c.117 0 .467 1.05.934 2.799.467 1.75 1.168 4.199 1.752 6.999.584 2.682 1.051 5.249 1.284 6.998.234 1.866.351 2.916.351 2.916-.117 0-.351-1.05-.701-2.916-.467-1.983-.934-4.316-1.518-6.998-.584-2.566-1.168-5.016-1.518-6.999-.467-1.633-.701-2.683-.584-2.799zm2.686-3.499c-.117 0 .584-.584 1.751-.234.467.234 1.168.7 1.285 1.517.117.7-.117 1.749-.934 2.216-.818.466-1.752.233-2.452-.233-.584-.467-.701-1.4-.584-1.867.116-.583.467-.933.817-1.049.234-.117.467-.117.467-.117 0 .117-.584.35-.817 1.283-.117.467 0 1.05.467 1.4.467.35 1.167.466 1.751.116.584-.35.818-1.049.701-1.633-.117-.583-.467-.933-.934-1.166-.818-.467-1.518-.117-1.518-.233zm58.033 81.532c-.117.117-2.452-1.983-5.838-3.966s-6.422-2.916-6.306-3.149c0-.117 3.153.583 6.656 2.566 3.386 1.983 5.605 4.433 5.488 4.549z" fill="#455A64"/><path d="M211.232 111.276l-23.937 11.548 10.275 71.968-4.087 32.309c-.467 4.2 1.051 8.282 4.204 11.081l38.65-.816 27.09-14.814 12.377-2.099-5.138-24.611 2.336-34.876 28.257 15.046c2.219 1.167 4.671 1.517 7.123.817l51.845-13.414-2.686-19.946-46.94 5.249-35.731-31.61-26.623-5.948-4.787-7.815h-27.207l-1.868 1.399c-.935.7-1.635 1.633-1.986 2.683l-1.167 3.849z" fill="#E8505B"/><path d="M187.295 122.824s-7.824 5.015-10.743 13.997c-2.686 8.515-8.874 42.807-8.874 42.807l-27.207-16.913-15.647 16.447 36.315 31.96a18.602 18.602 0 0020.2 2.799c5.605-2.683 9.459-7.932 10.276-14.114l4.437-32.543-8.757-44.44z" fill="#E8505B"/><path d="M269.032 225.585l-1.752-2.449-17.865 3.266-3.27 7.698 22.887-8.515z" fill="#FFBE9D"/><path d="M197.804 238.066c15.997 6.415 33.045 4.082 48.341-3.966 4.554-2.449 8.875-5.482 13.428-7.815 4.671-2.449 9.692-4.199 14.947-3.849 5.137.35 10.392 3.266 12.494 8.048 2.102 4.782 0 11.314-4.904 13.064.583.467 1.167 1.05 1.751 1.516 7.24-3.382 10.626-12.947 7.123-20.062-2.686-5.482-8.291-8.632-12.494-13.181-6.072-6.531-6.773-19.129-6.773-29.043" fill="#E8505B"/><path d="M232.95 125.157s-.467 0-1.167.116c-.701.117-1.868.234-2.803 1.283-.934 1.05-1.401 2.683-1.401 4.549 0 1.867.35 4.083 1.285 6.066l.467 1.049-.934-.699c-1.985-1.517-4.087-3.266-6.072-5.366-4.671-4.782-7.707-10.148-9.225-14.23-.817-1.983-1.284-3.733-1.518-4.899-.233-1.167-.35-1.866-.233-1.866.116 0 .467 2.682 2.218 6.648 1.635 3.966 4.788 9.215 9.341 13.881 1.986 1.982 3.971 3.849 5.956 5.248l-.467.35c-.467-1.049-.818-2.216-1.051-3.266-.234-1.049-.351-2.099-.234-3.149 0-1.983.584-3.732 1.635-4.782 1.051-1.05 2.335-1.167 3.036-1.283.7.233 1.167.35 1.167.35z" fill="#263238"/><path d="M234.352 125.157c1.985-.817 4.904.35 6.305 1.983.934 1.049 1.518 2.566 2.686 3.266 1.284.699 5.138 1.283 6.305.349 0 0 .701-3.266 1.051-4.665 1.401-5.482 2.102-10.381 2.686-15.98-3.737-1.866-2.686-4.199-9.458-3.733 0 0 1.751 5.016.233 9.565" fill="#E8505B"/><path d="M244.043 115.942c-.116 0 .234-.933.351-2.566.116-1.633 0-4.083-.818-6.882l-.116-.233h.233c1.518-.117 3.27-.234 5.021.466.934.35 1.635 1.05 2.335 1.633.701.583 1.402 1.167 2.336 1.633l.233.117v.233c-.35 2.8-.7 5.949-1.167 9.098-.351 2.1-.818 4.083-1.285 6.066-.467 1.982-.817 3.732-1.284 5.482v.116h-.117c-.701.467-1.401.467-1.985.467-.701 0-1.285 0-1.868-.117l-1.752-.35a3.178 3.178 0 01-1.518-.816c-.817-.817-1.284-1.75-1.751-2.45-.584-.699-1.168-1.283-1.869-1.633-1.284-.816-2.568-1.049-3.386-1.049-.817 0-1.284.233-1.284.233s.35-.233 1.284-.35c.818-.117 2.102.117 3.503.933.701.35 1.401.933 1.985 1.75.584.7 1.051 1.633 1.752 2.333.7.699 1.868.816 3.036 1.049.583.117 1.167.117 1.751.117.584 0 1.285-.117 1.635-.35l-.117.117c.35-1.75.817-3.616 1.285-5.599a88.806 88.806 0 001.284-5.949c.584-3.149.934-6.298 1.168-9.098l.116.233a9.34 9.34 0 01-2.452-1.749c-.7-.7-1.401-1.283-2.101-1.633-1.635-.583-3.27-.583-4.788-.467l.234-.35c.817 2.916.817 5.366.7 7.115-.117.817-.233 1.517-.35 1.867-.117.35-.234.583-.234.583zm39.935 110.11v-1.283c-.117-.817-.351-2.217-1.168-3.616-.817-1.4-2.218-2.916-4.32-4.199-1.985-1.167-4.671-1.867-7.707-2.1-2.919-.233-6.305-.117-9.808-.35-3.503-.233-7.357-.816-11.093-2.333-3.737-1.516-7.357-3.965-9.925-7.465-1.285-1.749-2.336-3.849-2.92-5.948-.583-2.217-.7-4.549-.7-6.766.233-4.665 1.284-8.981 1.868-13.18.701-4.199 1.051-8.398 1.168-12.364.233-7.932-.467-15.047-1.518-20.879-1.051-5.832-2.452-10.498-3.387-13.764a29.429 29.429 0 00-1.284-3.616c-.117-.35-.233-.7-.35-.933-.117-.233-.117-.35-.117-.35s.117.117.117.35c.117.233.233.583.35.933.35.817.817 1.983 1.401 3.616 1.051 3.15 2.569 7.815 3.62 13.764 1.168 5.949 1.868 13.064 1.635 20.995-.117 3.966-.467 8.165-1.168 12.364-.584 4.316-1.635 8.632-1.868 13.181-.234 4.549.817 8.981 3.386 12.364 2.569 3.383 6.072 5.832 9.692 7.232 3.62 1.516 7.356 2.099 10.859 2.333 3.503.233 6.773.116 9.809.466 3.035.233 5.721.933 7.823 2.216 2.102 1.283 3.503 2.8 4.32 4.316.818 1.516 1.051 2.8 1.051 3.733v1.049c.234.117.234.234.234.234z" fill="#263238"/><path d="M266.463 204.706l-1.401 1.4c-.468.467-1.051.933-1.635 1.516-.701.584-1.401 1.283-2.336 1.867-1.751 1.399-3.97 2.916-6.422 4.432a72.687 72.687 0 01-8.524 4.316c-3.152 1.283-6.305 2.333-9.108 3.032a98.373 98.373 0 01-7.706 1.517c-1.051.116-2.102.233-3.036.35-.934.116-1.635.116-2.219.116h-1.985s.701-.116 1.868-.233c.584 0 1.402-.117 2.219-.233.934-.117 1.868-.234 2.919-.35 2.219-.35 4.788-.817 7.59-1.633 2.803-.817 5.955-1.75 8.991-3.033 3.153-1.283 5.955-2.799 8.524-4.316 2.569-1.516 4.671-3.032 6.539-4.315.934-.584 1.635-1.283 2.335-1.867a45.911 45.911 0 011.752-1.399c1.051-.7 1.635-1.167 1.635-1.167zm-7.473-38.258s0 .233-.117.7a17.964 17.964 0 00-.35 1.866c-.117.816-.468 1.75-.818 2.799-.35 1.05-.7 2.333-1.284 3.733-.234.7-.584 1.4-.818 2.099-.233.7-.7 1.517-1.051 2.217a95.558 95.558 0 01-2.452 4.899c-1.868 3.382-4.32 6.881-7.122 10.264a77.906 77.906 0 01-8.875 8.748c-1.518 1.167-2.919 2.333-4.32 3.266l-2.102 1.4c-.701.35-1.284.816-1.985 1.166-1.168.817-2.452 1.283-3.386 1.867-1.051.583-1.869.933-2.686 1.283-.701.233-1.284.583-1.751.699-.351.117-.584.234-.584.234s.233-.117.584-.35c.467-.234 1.05-.467 1.634-.817.701-.35 1.635-.816 2.569-1.399 1.051-.584 2.219-1.167 3.386-1.983.584-.35 1.285-.817 1.869-1.167.7-.466 1.284-.933 1.985-1.399 1.401-.934 2.802-2.1 4.32-3.266 2.919-2.45 5.955-5.366 8.758-8.749 2.802-3.382 5.137-6.881 7.122-10.147a62.003 62.003 0 002.453-4.783c.35-.816.7-1.516 1.051-2.216.35-.7.583-1.4.817-2.099.584-1.283.934-2.567 1.284-3.616.351-1.05.701-1.983.818-2.8.233-.7.35-1.283.467-1.749.467-.467.584-.7.584-.7zm-49.276 77.45s-.934-.467-2.102-1.633a17.82 17.82 0 01-3.62-5.249c-.934-2.333-1.284-4.666-1.284-6.299s.35-2.682.35-2.682c.117 0 0 1.049.117 2.566.117 1.633.467 3.849 1.401 6.065.934 2.216 2.219 4.083 3.386 5.249 1.051 1.283 1.869 1.983 1.752 1.983zm-.818-9.098c.117 0-.116 1.516 0 3.382.117 1.867.701 3.266.584 3.383-.116.117-1.051-1.283-1.167-3.266-.234-1.983.35-3.499.583-3.499zm-11.559-41.758s-.117-.233-.117-.583c-.117-.467-.117-.933-.234-1.633-.233-1.516-.584-3.499-.934-5.832a965.128 965.128 0 00-3.386-19.246c-1.401-7.465-2.803-14.23-3.737-19.129-.467-2.333-.934-4.316-1.167-5.832a37.407 37.407 0 00-.351-1.633c-.116-.35-.116-.584-.116-.584s.116.234.233.584c.117.466.234.933.467 1.516.35 1.4.818 3.383 1.401 5.715 1.168 4.899 2.569 11.665 3.97 19.13 1.402 7.465 2.453 14.347 3.153 19.246.35 2.449.584 4.432.818 5.832.116.583.116 1.166.233 1.633-.233.699-.233.816-.233.816zm74.731 0s0-.233-.117-.583v-7.698c0-5.133.233-12.248.817-20.063.584-7.815 1.401-14.93 1.985-19.946.35-2.449.584-4.549.818-6.065.116-.7.233-1.166.233-1.633.117-.35.117-.583.117-.583v.583c0 .467-.117 1.05-.117 1.633-.117 1.516-.35 3.616-.584 6.065-.467 5.133-1.167 12.131-1.868 19.946-.584 7.815-.934 14.93-1.051 20.063-.117 2.449-.117 4.549-.117 6.065 0 .7 0 1.166-.116 1.633v.583zm-93.414 3.033c-.234.116-1.752-4.199-4.671-8.748-3.036-4.666-6.422-7.582-6.305-7.699 0 0 .934.584 2.335 1.867 1.284 1.283 3.036 3.149 4.554 5.482 1.518 2.333 2.569 4.665 3.269 6.298.584 1.75.935 2.8.818 2.8z" fill="#263238"/><path d="M180.756 191.059c-.117 0-.467-.933-1.285-2.216-.817-1.4-2.102-3.149-4.087-4.666-1.868-1.516-3.853-2.566-5.371-3.266-1.518-.699-2.452-1.049-2.335-1.166 0-.117 1.051.117 2.569.7a23.433 23.433 0 015.604 3.149c1.985 1.633 3.27 3.499 3.97 5.016.701 1.399.935 2.449.935 2.449z" fill="#263238"/><path d="M192.783 162.949s0 .233-.234.466a8.45 8.45 0 01-1.051 1.283c-1.051.933-3.153 1.983-5.721 1.516-2.569-.349-5.372-2.216-7.24-5.132a21.748 21.748 0 01-2.335-4.665c-.351-.817-.701-1.75-.934-2.683-.234-.933-.468-1.866-.351-2.916.117-1.05.584-1.983 1.401-2.683.818-.7 1.985-.7 2.92-.467 1.868.467 3.269 1.983 3.853 3.616.584 1.633.35 3.5-.467 4.783-.818 1.283-2.102 2.216-3.386 2.566-1.285.35-2.453.233-3.503-.117a4.902 4.902 0 01-2.102-1.516c-.467-.583-.818-1.05-.934-1.4-.117-.35-.234-.583-.117-.583s.233.816 1.284 1.75c.467.466 1.168.933 2.102 1.283a5.17 5.17 0 003.27.116 5.16 5.16 0 003.036-2.449c.7-1.167.934-2.8.35-4.316-.584-1.516-1.752-2.799-3.503-3.266-.818-.233-1.752-.117-2.336.467-.7.466-1.05 1.399-1.167 2.216-.234 1.749.584 3.616 1.167 5.249.701 1.633 1.402 3.266 2.336 4.665 1.751 2.8 4.32 4.549 6.772 5.016a6.924 6.924 0 005.488-1.283c.935-.817 1.285-1.516 1.402-1.516zm45.889 17.962s-.117.117-.35.234c-.234.233-.584.466-.934.7-.818.583-2.219 1.633-3.97 2.566-.935.466-1.985.816-3.27 1.049-1.284.234-2.686.234-4.087-.233-2.919-.933-5.488-3.382-7.356-6.532-1.985-3.149-3.27-7.115-3.386-11.547-.117-4.316.934-9.098 3.619-13.298 1.285-2.099 3.036-4.082 5.488-5.132 1.168-.466 2.569-.7 3.971-.466 1.284.233 2.685.816 3.503 1.983a6.013 6.013 0 011.051 3.965 9.347 9.347 0 01-1.285 3.966c-1.401 2.45-3.853 4.199-6.539 5.249-2.686 1.05-5.605 1.283-8.29.817-2.803-.35-5.372-1.517-7.473-3.15-4.438-3.149-7.24-7.815-8.875-12.364-.817-2.333-1.401-4.665-1.051-7.115.234-1.166.584-2.333 1.402-3.266.7-.933 1.751-1.633 2.802-1.866 2.219-.467 4.554.466 5.838 1.983 1.401 1.633 1.752 3.732 1.402 5.599-.351 1.866-1.168 3.499-2.453 4.665-1.167 1.167-2.568 1.983-3.97 2.566-2.802 1.05-5.371 1.167-7.473 1.167-2.102-.117-3.62-.35-4.67-.467-.468-.116-.935-.116-1.168-.233-.234 0-.467-.117-.467-.117h.467c.35 0 .7.117 1.168.117 1.05.117 2.685.35 4.67.35 1.985 0 4.554-.117 7.24-1.167 1.284-.583 2.685-1.399 3.853-2.566 1.168-1.166 1.985-2.799 2.219-4.549.233-1.749 0-3.732-1.402-5.249-1.284-1.399-3.386-2.332-5.371-1.866-2.102.467-3.503 2.45-3.853 4.666-.35 2.216.233 4.549 1.051 6.765 1.634 4.549 4.437 8.981 8.641 12.014 2.101 1.517 4.553 2.683 7.239 3.033 2.686.466 5.488.116 8.057-.817 2.569-.933 4.787-2.682 6.189-5.015.7-1.167 1.051-2.45 1.167-3.733a5.627 5.627 0 00-.934-3.616c-.7-1.049-1.985-1.633-3.152-1.749-1.168-.234-2.453 0-3.62.466-2.219.933-3.97 2.916-5.255 4.899-2.569 4.083-3.62 8.632-3.503 12.947a23.381 23.381 0 003.27 11.315c1.868 3.149 4.437 5.482 7.122 6.415 2.803.933 5.372.117 7.123-.7 1.869-.816 3.153-1.749 4.087-2.449.467-.35.701-.584 1.051-.7.35.466.467.466.467.466zm-32.228-65.436l-.35 1.05c-.233.7-.817 1.516-1.518 2.566-1.401 2.1-3.97 4.783-7.59 6.416-3.62 1.749-7.239 1.982-9.808 1.866-1.285-.117-2.336-.35-3.036-.467l-1.051-.35c0-.116 1.518.35 4.087.467 2.452.117 6.072-.35 9.458-1.983a19.429 19.429 0 007.473-6.182c1.635-1.983 2.219-3.499 2.335-3.383zm17.282 4.899c0 .234-1.752.234-3.27 1.633-1.634 1.283-1.985 3.033-2.101 3.033-.117 0-.117-.467.116-1.166.234-.7.701-1.633 1.635-2.333.817-.7 1.868-1.05 2.569-1.167.584-.116 1.051 0 1.051 0zm24.638 6.882s-.351-.116-.934-.466c-.584-.35-1.402-1.05-2.219-1.983-.701-1.05-1.518-2.45-1.635-4.083 0-.816.117-1.866.701-2.566.584-.816 1.635-1.4 2.686-1.166 1.05.233 1.868 1.166 2.101 1.983.351.933 0 1.983-.583 2.682-1.168 1.4-3.036 1.633-4.204 1.167-1.285-.467-1.985-1.283-2.335-1.866-.351-.584-.468-1.05-.468-1.05s.234.35.584.816c.467.467 1.168 1.283 2.219 1.633 1.051.35 2.686.117 3.62-1.05.467-.583.7-1.399.35-2.099-.234-.7-.934-1.4-1.635-1.633-.817-.233-1.635.233-2.102.933-.467.7-.7 1.516-.583 2.216.116 1.517.7 2.916 1.401 3.966 1.635 1.866 3.153 2.45 3.036 2.566zm4.67-13.647c-.116.117-1.401-1.75-3.853-2.683-2.452-1.049-4.671-.583-4.671-.816 0-.117.468-.233 1.402-.35.934-.117 2.218 0 3.503.583 1.284.583 2.335 1.283 2.919 1.983.584.816.817 1.283.7 1.283zm32.111 13.647s-.116 0-.233.117l-.701.35c-.584.35-1.518.7-2.802 1.166-2.452.933-6.189 1.983-10.976 2.1-1.168 0-2.452-.117-3.737-.35-1.284-.234-2.569-.817-3.736-1.75-1.051-.933-1.752-2.449-1.752-3.966 0-1.516.467-3.149 1.518-4.432 2.102-2.566 5.955-3.383 9.342-2.333 3.386.933 6.422 3.616 7.473 7.232 1.05 3.499.116 7.582-2.219 10.148-2.335 2.682-5.605 3.966-8.641 4.665-3.036.7-6.072.817-8.874.934-2.802.116-5.371.233-7.59.699-4.554.933-7.823 3.266-9.458 5.366-1.635 2.099-1.752 3.616-1.752 3.616v-.233c0-.117.117-.467.234-.817.234-.7.584-1.633 1.401-2.683 1.518-2.216 4.788-4.665 9.458-5.599 2.336-.466 4.905-.699 7.707-.816 2.802-.117 5.722-.233 8.757-.933 2.92-.7 6.072-1.983 8.291-4.549 2.219-2.45 3.036-6.182 2.102-9.565-.934-3.382-3.854-5.949-7.006-6.765-3.153-.933-6.773-.117-8.758 2.216-.934 1.167-1.518 2.566-1.401 3.966 0 1.4.584 2.683 1.635 3.616.934.933 2.218 1.4 3.503 1.749 1.284.35 2.452.35 3.62.35 4.67 0 8.407-1.049 10.976-1.866 1.284-.466 2.218-.816 2.802-1.05.467-.466.817-.583.817-.583zM256.07 172.98c-.116 0-.467-.933-1.518-2.333-1.05-1.4-2.919-3.033-5.371-3.966-2.452-.933-4.904-.816-6.656-.583-1.751.35-2.685.816-2.685.7 0 0 .934-.7 2.685-1.167 1.752-.466 4.321-.583 6.89.35 2.569.933 4.437 2.8 5.488 4.316.934 1.633 1.167 2.683 1.167 2.683zm13.545 8.865s-.35 1.049-1.634 2.332c-1.168 1.283-3.387 2.683-6.189 2.916-2.802.234-5.138-.816-6.539-1.866-1.401-1.05-1.985-2.099-1.985-2.099.117-.117.701.816 2.219 1.749 1.401.933 3.736 1.866 6.305 1.633 2.569-.233 4.671-1.516 5.955-2.566 1.285-1.166 1.868-2.216 1.868-2.099zm3.62-23.212c0 .116-.7-.35-1.985-.7a8.82 8.82 0 00-4.904.117c-1.868.583-3.27 1.749-4.087 2.799-.817.933-1.168 1.75-1.284 1.75-.117 0 .116-.817.934-1.983.7-1.05 2.218-2.45 4.203-3.033 1.985-.583 3.97-.35 5.255.117 1.284.35 1.868.933 1.868.933zm43.438-10.731s.116.35.233.816c.117.234.117.7.117 1.05 0 .467.117.933 0 1.516 0 2.217-.817 5.483-3.386 8.749-1.285 1.516-2.92 3.032-5.021 4.199-2.102 1.049-4.671 1.633-7.24 1.633-5.254 0-11.21-2.566-14.946-7.465-.934-1.167-1.752-2.567-2.102-4.083-.35-1.516-.35-3.033.117-4.432.467-1.4 1.401-2.683 2.685-3.383 1.285-.7 2.803-.7 4.087-.466 1.285.233 2.569.933 3.503 1.866a7.32 7.32 0 011.869 3.149c.7 2.333.583 4.549 0 6.532-.584 1.866-1.635 3.499-2.803 4.666-1.051 1.166-2.218 1.983-3.269 2.449-.934.583-1.869.817-2.336.933-.583.117-.817.234-.934.117 0-.117 1.168-.233 3.153-1.283 1.868-1.05 4.437-3.266 5.722-6.999.583-1.866.7-4.082 0-6.182-.351-1.049-.935-2.099-1.752-2.916-.817-.816-1.985-1.399-3.153-1.633-1.167-.233-2.569-.116-3.736.467-1.168.583-1.985 1.75-2.452 3.033a6.122 6.122 0 000 4.082c.35 1.4 1.051 2.683 1.985 3.849 3.736 4.666 9.341 7.232 14.479 7.232 2.569 0 5.021-.467 7.006-1.516 2.102-1.05 3.736-2.45 4.904-3.966 2.452-3.033 3.386-6.299 3.386-8.398.234-2.45-.116-3.616-.116-3.616zm8.991 24.145s-.351-.234-.701-.817-.934-1.4-1.284-2.683c-.351-1.166-.467-2.682-.234-4.315.234-1.633.701-3.383 1.168-5.133 1.167-3.616 2.919-6.532 4.203-8.631.701-1.05 1.168-1.866 1.635-2.45.35-.583.584-.816.701-.816.117 0-.701 1.4-1.869 3.499-1.167 2.1-2.919 5.016-3.97 8.515-.467 1.75-.934 3.499-1.167 5.016-.234 1.516-.234 3.032 0 4.199.584 2.449 1.751 3.499 1.518 3.616zm22.185-26.828s.117.233.351.816c.233.584.35 1.4.584 2.45.35 2.1.467 5.016-.234 8.165-.701 3.149-1.985 5.715-3.269 7.465-.584.816-1.168 1.516-1.518 1.983-.351.466-.584.583-.701.583-.117-.117.817-1.05 1.868-2.799 1.051-1.75 2.336-4.316 3.036-7.349.701-3.032.584-5.948.35-7.931-.233-2.1-.583-3.383-.467-3.383zm-76.482 54.588l-.467-.233c-.35-.233-.817-.467-1.401-.816-1.285-.584-3.153-1.4-5.722-1.633-2.452-.234-5.605 0-8.524 1.399-1.518.7-3.036 1.633-4.32 2.8-.701.583-1.285 1.283-1.635 2.099-.467.817-.701 1.633-.584 2.566.117.933.584 1.75 1.285 2.217.7.466 1.634.466 2.335.116 1.635-.7 2.218-2.566 2.218-4.082-.116-3.266-2.218-5.949-4.32-6.999a8.02 8.02 0 00-5.722-.7c-1.401.35-2.101.7-2.101.7s.116-.116.467-.35c.35-.116.817-.35 1.518-.583 1.401-.35 3.62-.583 5.955.583 2.335 1.167 4.554 3.849 4.671 7.349a7.63 7.63 0 01-.468 2.682c-.35.817-1.05 1.633-1.985 1.983-.934.467-2.101.467-2.919-.116-.934-.583-1.401-1.633-1.518-2.566-.116-1.05.234-2.1.701-2.916.467-.817 1.168-1.633 1.751-2.217 1.402-1.283 2.92-2.216 4.438-2.916a16.499 16.499 0 018.874-1.283c2.569.35 4.554 1.167 5.721 1.867.584.349 1.051.699 1.402.933.233-.117.467 0 .35.116zm4.32 9.565c.117.117-.467 1.283-1.401 2.683-.934 1.399-1.751 2.449-1.868 2.333-.117-.117.467-1.284 1.401-2.683.817-1.283 1.635-2.333 1.868-2.333zm14.83 16.796c-.117 0-.234-.466-.701-1.049-.35-.584-1.051-1.4-2.102-1.867-.934-.583-1.985-.7-2.685-.816-.701 0-1.168.116-1.168 0 0-.117.467-.35 1.168-.35.817-.117 1.868.117 3.036.7 1.051.583 1.751 1.516 2.101 2.216.351.583.351 1.05.351 1.166zm-48.225-5.948c0 .116-1.401.816-3.62 2.099-2.218 1.283-5.371 3.15-7.94 6.182-2.569 2.916-3.97 6.416-4.204 8.865-.35 2.566.234 4.082.117 4.199 0 0-.233-.35-.35-1.05-.117-.7-.234-1.749-.117-3.149.117-2.683 1.518-6.299 4.204-9.215 2.685-3.032 5.838-4.899 8.173-6.065 1.168-.583 2.102-1.05 2.803-1.283.467-.583.817-.7.934-.583zm17.048 5.598s-.701-.349-1.285-1.399c-.583-1.05-1.167-2.683-.934-4.433.117-1.866.934-3.382 1.752-4.199.817-.933 1.401-1.166 1.518-1.166.117.116-.467.466-1.168 1.4-.7.933-1.284 2.332-1.401 4.082-.117 1.75.233 3.266.701 4.199.467.933.934 1.516.817 1.516zm-26.74-21.112l-.7-.7c-.467-.349-1.285-.933-2.453-1.049-1.167-.117-2.685 0-4.086.816-1.402.817-2.686 2.333-3.854 4.083-1.167 1.749-2.101 3.849-3.619 5.948-1.402 2.1-3.737 3.966-6.423 4.783-2.685.933-5.955.816-8.874-.467-2.802-1.283-5.371-3.732-6.539-6.882-.584-1.516-.701-3.382-.233-4.899.467-1.633 1.634-2.916 3.035-3.732a7.746 7.746 0 014.554-1.05 7.857 7.857 0 013.97 1.866c2.219 1.983 3.27 4.783 3.153 7.349 0 2.566-.934 4.899-2.218 6.648-1.168 1.75-2.803 3.033-4.204 3.966-1.518.933-2.802 1.4-3.97 1.75-1.168.35-2.102.466-2.686.583-.35 0-.584.117-.7.117h-.234s.35-.117.934-.234c.584-.116 1.518-.35 2.686-.7s2.452-.933 3.853-1.749c1.401-.933 2.919-2.216 4.087-3.966 1.168-1.75 1.985-3.966 1.985-6.415 0-2.45-.934-5.133-3.036-6.882-1.051-.933-2.335-1.517-3.736-1.75-1.402-.116-2.92.233-4.087.933-1.285.817-2.336 1.983-2.803 3.383-.467 1.4-.35 3.033.234 4.549 1.051 3.033 3.503 5.365 6.189 6.532 2.685 1.283 5.838 1.4 8.407.466 2.685-.816 4.787-2.566 6.188-4.549 1.402-1.982 2.453-4.082 3.62-5.948 1.168-1.75 2.569-3.266 4.087-4.083 1.518-.933 3.153-1.05 4.32-.816 1.168.233 1.986.816 2.453 1.166.583.7.7.933.7.933zm.351 18.196s-.818-.349-1.869-1.516c-1.051-1.05-2.218-2.799-2.919-5.016-.701-2.216-.584-4.315-.35-5.832.233-1.516.7-2.332.817-2.332.117 0-.233.933-.35 2.332-.117 1.4-.117 3.5.467 5.599.584 2.1 1.635 3.849 2.569 4.899 1.051 1.167 1.751 1.75 1.635 1.866zm4.32-26.944c0 .117-.817-.35-2.335-.933-1.518-.583-3.737-1.4-6.656-1.75-2.919-.35-6.422-.35-10.159.467-1.868.467-3.853 1.05-5.605 2.1-.817.466-1.635 1.283-1.868 2.216-.234.933.35 2.099 1.168 2.333.467.116.934 0 1.284-.35s.584-.817.701-1.283c.233-.934.35-2.1.233-3.15-.117-2.099-.584-4.082-1.518-5.715a11.946 11.946 0 00-3.269-4.199c-1.285-1.05-2.686-1.867-4.087-2.333-2.686-.933-5.138-.933-6.773-.7-1.634.233-2.452.583-2.452.583s.234-.116.584-.233 1.051-.35 1.868-.467c1.635-.35 4.087-.466 7.006.467a13.685 13.685 0 014.204 2.333 14.228 14.228 0 013.503 4.316c.934 1.749 1.518 3.849 1.635 5.948 0 1.05 0 2.216-.234 3.266-.116.583-.35 1.167-.817 1.517-.467.466-1.168.699-1.868.466-.701-.233-1.168-.7-1.402-1.283-.233-.583-.35-1.166-.233-1.75.233-1.283 1.168-2.099 2.102-2.566 1.868-1.049 3.853-1.633 5.838-2.099 3.853-.933 7.473-.817 10.392-.35 2.92.466 5.138 1.283 6.656 1.983.701.35 1.285.583 1.752.816.116.234.35.35.35.35zm-90.962 3.383s.701-.583 1.869-1.75a14.751 14.751 0 003.619-5.832c1.051-2.683 1.402-6.415-.35-9.914-.817-1.75-2.102-3.383-3.737-4.55-1.634-1.283-3.736-2.099-5.838-2.216a6.826 6.826 0 00-3.036.7c-.934.467-1.751 1.167-2.102 2.1-.35.933-.116 1.983.467 2.682.584.817 1.402 1.4 2.219 1.633 1.752.584 3.62 0 5.021-.816 1.401-.933 2.452-2.216 3.036-3.499 1.284-2.683 1.284-5.133 1.518-6.649 0-.816.117-1.4.117-1.866v-.7s0 .233.116.7v1.866c0 1.633-.116 4.083-1.284 6.882-.584 1.4-1.635 2.683-3.153 3.733-1.518.933-3.503 1.632-5.488.933-.934-.35-1.868-.933-2.569-1.867-.583-.933-.934-2.099-.467-3.266.351-1.166 1.285-1.983 2.336-2.449a8.375 8.375 0 013.386-.7c2.335.117 4.554 1.05 6.189 2.333 1.751 1.283 3.035 3.033 3.853 4.782.817 1.75 1.168 3.733 1.168 5.482 0 1.75-.468 3.383-.935 4.783-1.051 2.799-2.685 4.665-3.853 5.832-.584.583-1.168.933-1.518 1.166-.467.35-.584.467-.584.467zm24.171 17.379l-.934-.933a15.14 15.14 0 01-1.985-3.032c-1.518-2.683-2.802-6.882-2.569-11.665.35-4.782 2.219-8.748 4.087-11.197.934-1.283 1.751-2.216 2.335-2.8.584-.583 1.051-.816 1.051-.816.117.116-1.401 1.283-3.036 3.849-1.635 2.45-3.503 6.415-3.736 10.964-.351 4.549.934 8.748 2.335 11.431 1.284 2.683 2.569 4.083 2.452 4.199zm22.77-25.311c-.117 0-.584-1.749-1.985-4.316-1.402-2.566-3.97-5.832-7.707-8.398-3.737-2.449-7.823-3.499-10.743-3.849-2.919-.35-4.787-.117-4.787-.233 0 0 .467-.117 1.284-.234.818-.116 2.102-.116 3.503 0 3.036.234 7.123 1.167 10.977 3.733 3.853 2.566 6.422 5.949 7.823 8.631.701 1.284 1.168 2.45 1.401 3.266.234.934.35 1.284.234 1.4z" fill="#FAFAFA"/><path opacity=".3" d="M225.244 223.952c-1.168.467-1.051 2.216-.117 3.033.934.816 2.219.816 3.503.7 13.662-.7 26.857-8.049 34.563-19.363-10.509 8.632-24.404 11.898-37.716 14.93m-2.335-11.197c-1.168-1.75-.35-4.199 1.051-5.716 1.518-1.516 3.503-2.333 5.371-3.266 6.89-3.382 12.494-9.214 15.764-16.096 2.102-4.549 3.736-10.265 8.407-12.131-2.452 16.213-14.479 30.56-30.009 35.809m-33.746-59.021c1.168 12.714.234 25.661-2.685 38.142-.584 2.683-1.402 5.366-1.285 8.048 0 2.683 1.752 5.833 3.853 7.582 1.985-4.432 1.985-8.748 2.803-13.53.7-4.316 1.985-14.464 1.985-14.581.117-8.864-1.868-16.446-5.371-24.378m22.652-39.541c1.752 9.331 6.423 18.079 13.195 24.728 2.569 2.566 5.838 4.782 9.341 4.666-2.101-4.2-2.685-9.099-1.751-13.764 3.036 1.983 6.189 3.849 9.575 5.249 3.386 1.283 7.123 1.983 10.742 1.166.701-6.415 1.518-12.947 2.219-19.362.117-.7.117-1.517-.234-2.217-.35-.699-1.401-.933-1.868-.466a1.26 1.26 0 00-.35.816c-1.285 5.716-2.102 10.731-3.386 16.447-.934.933-3.854.583-5.722-.117-1.635-.583-2.335-1.983-3.386-3.382-1.051-1.4-.934-1.167-2.569-1.867-3.036-1.283-8.758-.233-10.042 2.45-1.284 2.682-.35 6.298.584 8.865-8.291-5.366-14.596-13.997-17.048-23.562m64.455 27.644c-.233.467 7.24 25.778 7.24 25.778l-9.692-5.482 2.452-20.296z" fill="#000"/><path d="M215.202 67.302v40.242c0 2.333.817 4.549 2.335 6.298 2.219 2.683 5.021 5.016 8.057 6.649l8.174 4.549 6.772-5.949c1.985-1.749 3.153-4.199 3.27-6.882.117-2.916.117-5.832.117-5.832s11.443-.816 12.494-12.014c.467-5.249.7-16.096.7-26.128 0-11.43-8.757-20.878-20.084-21.812h-.35c-11.793-.35-21.485 9.099-21.485 20.88z" fill="#FFBE9D"/><path d="M243.81 106.377s-7.123-.116-14.246-5.482c0 0 2.92 8.515 14.246 8.398v-2.916z" fill="#EB996E"/><path d="M253.618 75.467c0 .817-.817 1.517-1.634 1.517-.934 0-1.518-.7-1.518-1.633 0-.817.817-1.517 1.634-1.517.935 0 1.635.7 1.518 1.633zm.467-2.683c-.233.234-1.401-.816-3.035-.933-1.752-.116-3.036.584-3.27.35-.117-.116.117-.466.701-.816.583-.35 1.518-.7 2.569-.584 1.05.117 1.985.584 2.452 1.05.583.467.7.817.583.933zm-16.697 1.866c0 .817-.818 1.517-1.635 1.517-.934 0-1.518-.7-1.518-1.633 0-.816.817-1.516 1.635-1.516.817 0 1.518.7 1.518 1.633zm-.351-3.032c-.233.233-1.401-.816-3.036-.933-1.751-.117-3.035.583-3.269.35-.117-.117.117-.467.701-.817.583-.35 1.518-.7 2.568-.583 1.051.117 1.986.583 2.453 1.05.583.466.7.933.583.933zm5.255 13.414c0-.117 1.051-.233 2.802-.233.467 0 .818-.117.934-.35.117-.35 0-.817-.233-1.283a66.182 66.182 0 01-1.051-3.5c-1.401-4.899-2.452-8.981-2.219-8.981.234 0 1.518 3.85 2.92 8.865.35 1.166.7 2.332.934 3.499.117.466.35 1.05.117 1.75a.88.88 0 01-.818.583c-.233.116-.584 0-.7 0-1.635-.234-2.686-.234-2.686-.35zm-5.138.7c.234 0 .117 1.866 1.635 3.382 1.518 1.517 3.503 1.4 3.503 1.633 0 .117-.467.35-1.284.234-.818 0-1.986-.35-2.92-1.283-.934-.934-1.284-1.983-1.284-2.8-.117-.7.233-1.166.35-1.166zm.934-20.762c-.233.466-1.868.116-3.97.116-2.102 0-3.736.467-3.97 0-.117-.233.234-.583.934-1.05.701-.35 1.752-.7 3.036-.816 1.285 0 2.336.233 3.036.583.701.467 1.051.933.934 1.166zm15.764 2.682c-.35.35-1.518-.116-2.919-.233-1.401-.233-2.686 0-2.919-.35-.117-.233.116-.583.7-.933.584-.35 1.401-.583 2.452-.467.934.117 1.752.584 2.219.933.467.467.7.934.467 1.05zm-25.455-11.664c-1.985 1.283-3.27 3.266-3.854 5.482v.233c-.7 3.15-.934 6.416-1.634 9.565-.701 3.15-.584 5.599-3.737 6.299-1.985.466-3.737-.7-4.437-1.75-.234-.466-.234-.933-.234-1.516 0-7.815-1.518-10.848-.817-18.896.234-2.216 1.401-4.2 3.269-5.366 1.752-1.05 3.971-2.216 5.839-1.166 1.868 1.05 3.97 4.782 5.254 6.415" fill="#263238"/><path d="M218.588 72.668c-.233-.117-7.59-2.916-7.94 4.782-.35 7.698 7.473 6.532 7.473 6.299 0-.233.467-11.081.467-11.081z" fill="#FFBE9D"/><path d="M215.903 80.716s-.117.117-.351.233c-.233.117-.584.117-1.051 0-.817-.35-1.401-1.633-1.401-3.032 0-.7.234-1.4.467-1.867.234-.583.701-.933 1.051-.933.467-.116.701.234.817.35.117.234 0 .35.117.35 0 0 .117-.116.117-.466 0-.117-.117-.35-.234-.467-.233-.117-.467-.233-.7-.233-.584 0-1.168.583-1.518 1.166a4.028 4.028 0 00-.584 2.1c0 1.516.701 3.032 1.752 3.382.583.117 1.05 0 1.284-.116.234-.234.234-.467.234-.467z" fill="#EB996E"/><path d="M222.325 50.156c-1.635-3.266 3.97-7.232 7.823-8.048 3.853-.933 8.758 1.4 12.377 2.916 2.336.933 4.554 2.333 7.123 2.333 1.635.116 3.387-.467 5.021-.817 1.635-.466 3.386-.816 5.021-.583 1.635.233 3.27 1.283 3.854 2.916.467 1.633-.584 3.616-2.219 3.732 2.219-1.05 5.138.817 5.371 3.266.117 2.45-2.569 4.55-4.904 3.85 1.168-.7 2.686.816 2.452 2.1-.233 1.399-1.518 2.215-2.919 2.682-3.269 1.166-7.006.35-10.276-1.05-3.269-1.4-6.188-3.383-9.341-4.899-3.153-1.516-8.524-4.082-11.91-3.15-2.452.7-4.437 3.5-5.722 2.684-1.284-.7-1.985-2.217-2.102-3.616-.35-1.4 0-2.916.351-4.316z" fill="#263238"/><path d="M262.142 52.489c-.116 0-.467.583-1.401 1.4-.934.816-2.335 1.866-4.554 2.449-2.102.583-4.787.583-7.356-.933-2.569-1.4-4.554-3.966-7.006-6.299-2.336-2.45-5.255-4.316-8.291-4.899-3.036-.583-5.838.35-7.59 1.983-1.751 1.633-2.218 3.616-2.101 4.782 0 .584.116 1.167.233 1.4.117.35.234.467.234.467.117 0-.234-.7-.117-1.867.117-1.166.584-3.032 2.219-4.432 1.634-1.4 4.32-2.216 7.122-1.633 2.803.583 5.605 2.333 7.941 4.666 2.335 2.333 4.437 5.015 7.122 6.415 2.686 1.516 5.605 1.4 7.824.816 2.218-.583 3.736-1.75 4.554-2.682.467-.467.7-.817.934-1.167.233-.233.233-.466.233-.466zm-45.539 19.712s.35-.233.701-.816c.35-.584.7-1.517.584-2.8 0-2.45-1.985-5.365-1.985-8.748 0-1.75.35-3.382 1.284-4.549.817-1.166 1.985-1.866 3.036-2.216 1.051-.35 1.985-.233 2.569-.117.584.117.934.35.934.234 0 0-.234-.35-.934-.584-.584-.233-1.635-.35-2.803-.116-1.167.233-2.568 1.05-3.503 2.333-.934 1.283-1.401 3.149-1.401 4.899 0 1.866.584 3.499 1.051 5.015.584 1.4.934 2.683 1.051 3.85.467 2.449-.701 3.615-.584 3.615z" fill="#455A64"/><path d="M248.364 294.637h-1.752c-1.167 0-2.919 0-5.137.117-4.438.116-11.093.233-19.617.7-8.524.466-18.917 1.166-30.944 2.566-5.955.699-12.377 1.516-19.149 2.682-6.773 1.05-13.896 2.45-21.252 4.083-7.473 1.633-15.18 3.732-23.003 6.299-7.824 2.566-15.997 5.715-23.821 9.797-3.97 2.1-7.823 4.433-11.443 7.349-3.62 2.799-7.006 6.182-9.341 10.264-.234.467-.584 1.05-.818 1.517l-.7 1.633-.35.816c-.117.233-.117.583-.234.817l-.467 1.749c-.234 2.333-.35 4.783.35 7.115 1.168 4.783 4.32 8.749 7.823 12.248 7.357 6.882 16.698 11.664 26.273 15.63 9.692 3.966 20.084 7.115 30.71 9.681 21.252 5.132 43.788 8.165 66.907 9.798 23.12 1.633 45.89 1.516 67.725.233 21.836-1.283 42.854-3.966 62.588-8.165a296.55 296.55 0 0028.374-7.581c8.991-3.033 17.632-6.649 25.339-11.081a71.093 71.093 0 0010.742-7.582c3.153-2.799 5.955-6.065 7.707-9.798l.584-1.4c.233-.466.35-.933.467-1.399l.35-1.517c0-.233.117-.466.117-.7l.117-.699c.233-1.983.116-3.966-.468-5.833-.583-1.866-1.518-3.615-2.452-5.248-1.051-1.633-2.335-3.15-3.619-4.433-2.686-2.683-5.605-5.015-8.524-6.998-3.036-1.983-6.072-3.849-9.108-5.366-6.072-3.266-12.027-5.715-17.632-7.815-11.327-4.316-21.369-6.998-29.659-9.098-8.29-2.099-14.713-3.382-19.15-4.199-2.218-.467-3.853-.7-5.021-.933l-1.751-.35s2.335.35 6.772 1.166c4.437.817 10.86 2.1 19.15 4.083s18.332 4.782 29.659 8.981c5.605 2.1 11.677 4.666 17.748 7.815 3.036 1.633 6.072 3.383 9.108 5.366 3.036 1.983 5.955 4.316 8.641 7.115 1.401 1.4 2.569 2.916 3.62 4.549 1.051 1.633 1.985 3.383 2.569 5.365.584 1.983.7 3.966.467 6.066l-.117.816c0 .234-.117.467-.117.7l-.35 1.517c-.117.466-.35.933-.467 1.516l-.584 1.4c-1.751 3.849-4.554 7.115-7.823 10.031-3.27 2.916-6.89 5.365-10.743 7.698-7.823 4.433-16.347 8.048-25.455 11.081-9.108 3.033-18.566 5.599-28.375 7.698-19.733 4.2-40.751 6.882-62.587 8.165a549.462 549.462 0 01-67.842-.233c-23.119-1.633-45.772-4.666-67.024-9.914-10.626-2.567-21.018-5.716-30.71-9.682-9.691-4.082-19.033-8.864-26.506-15.746-3.62-3.5-6.772-7.582-7.94-12.481-.7-2.45-.584-4.899-.35-7.348l.467-1.75c.117-.35.117-.583.233-.933l.35-.817.701-1.633c.234-.583.584-1.049.934-1.633 2.453-4.199 5.839-7.581 9.575-10.381 3.62-2.799 7.59-5.249 11.56-7.348 7.94-4.199 16.114-7.232 23.938-9.798 7.94-2.566 15.646-4.549 23.119-6.299 7.474-1.633 14.596-3.032 21.369-4.082 6.772-1.167 13.195-1.867 19.15-2.566 12.027-1.283 22.419-2.1 30.943-2.45 8.524-.35 15.063-.466 19.617-.583h5.138c.817-.35 1.401-.35 1.401-.35z" fill="#E8505B"/><path d="M152.965 206.339s-.701.117-1.985.35c-1.284.233-3.27.583-5.722 1.167a373.548 373.548 0 00-21.952 5.248c-9.458 2.683-21.018 6.182-33.746 11.898a108.235 108.235 0 00-9.691 4.899c-3.27 1.866-6.54 3.849-9.692 6.182-3.153 2.333-6.305 5.015-8.991 8.165-2.686 3.149-5.021 6.882-6.072 11.081-1.168 4.199-.817 8.865.934 13.064 1.752 4.199 4.67 8.048 8.057 11.314 6.89 6.648 15.647 11.664 24.988 15.98 18.8 8.515 40.285 14.23 63.055 18.546 22.886 4.199 47.174 6.882 72.395 7.932 25.222 1.166 51.495.816 78.118-1.4 26.739-2.216 52.662-6.182 77.183-12.597 12.26-3.266 24.054-7.116 35.147-12.015 5.488-2.449 10.859-5.248 15.88-8.514 5.021-3.266 9.575-6.882 13.428-11.315 3.737-4.315 6.422-9.681 6.656-15.28.117-.7 0-1.399-.117-2.099-.117-.7 0-1.4-.233-2.1l-.467-1.983c-.117-.7-.468-1.283-.701-1.983-.934-2.566-2.452-4.899-3.97-7.115-3.386-4.316-7.473-7.815-11.794-10.964-4.32-3.033-8.991-5.599-13.545-7.932-9.224-4.549-18.682-8.048-27.79-10.847-9.108-2.917-18.099-5.133-26.623-6.999-34.33-7.348-62.821-9.448-82.438-10.498-9.808-.466-17.398-.583-22.653-.7-2.569 0-4.554-.116-5.838-.116-1.284 0-1.985-.117-1.985-.117h1.985c1.284 0 3.269 0 5.838.117 5.138.116 12.845.116 22.653.583 19.617 1.05 48.108 2.916 82.555 10.264 8.64 1.867 17.515 4.2 26.739 6.999 9.108 2.799 18.566 6.299 27.908 10.848 4.67 2.332 9.224 4.899 13.661 7.931 4.321 3.033 8.524 6.649 12.027 11.081 1.635 2.216 3.153 4.666 4.087 7.232.234.7.584 1.283.701 1.983l.467 2.099c.234.7.117 1.4.233 2.1 0 .7.117 1.4.117 2.1-.117 2.916-.817 5.715-1.985 8.398-1.167 2.683-2.802 5.132-4.67 7.348-3.737 4.433-8.524 8.165-13.545 11.431-5.021 3.266-10.393 5.949-15.998 8.515-11.092 5.016-23.003 8.865-35.263 12.131-24.521 6.415-50.444 10.381-77.183 12.597-26.74 2.216-53.013 2.449-78.234 1.4-25.222-1.167-49.626-3.733-72.396-8.049-22.77-4.315-44.372-10.031-63.171-18.662-9.341-4.316-18.216-9.332-25.105-16.097-3.503-3.382-6.422-7.115-8.174-11.431-1.751-4.315-2.102-9.098-.934-13.297 1.051-4.316 3.503-8.048 6.189-11.197 2.685-3.266 5.838-5.833 8.99-8.282 3.154-2.333 6.423-4.432 9.692-6.182 3.27-1.866 6.54-3.383 9.692-4.899 12.728-5.715 24.288-9.215 33.746-11.781 9.458-2.566 16.931-4.082 22.069-5.132 4.787-1.05 7.473-1.4 7.473-1.4zm40.869 176.013c-.351.116-2.102.35-5.839.933-3.853.583-9.458 1.633-16.581 3.149-7.123 1.633-15.88 3.733-25.689 7.232-4.904 1.75-10.042 3.849-15.296 6.649-2.569 1.399-5.255 2.916-7.707 4.782-2.569 1.866-5.021 3.849-7.122 6.298-1.051 1.284-1.986 2.567-2.803 4.083-.817 1.4-1.401 3.033-1.751 4.666-.117.466-.117.816-.234 1.283l-.117 1.283c0 .816.117 1.749.234 2.566.233.816.35 1.749.7 2.566l.468 1.283.233.583.35.583c1.635 3.15 4.204 5.833 7.006 8.282 2.803 2.449 6.072 4.432 9.459 6.299 6.772 3.732 14.245 6.648 22.069 9.214 7.823 2.566 15.997 4.549 24.521 6.299 17.048 3.383 35.147 5.482 54.063 6.415 18.916.933 38.416.7 58.383-1.05 19.968-1.749 39.351-4.782 57.567-9.914 9.107-2.566 17.865-5.716 25.922-9.915 3.97-2.099 7.823-4.432 11.326-7.231.935-.7 1.635-1.517 2.452-2.217.818-.699 1.518-1.633 2.219-2.449 1.285-1.75 2.569-3.499 3.27-5.599 1.751-3.966 1.284-8.515-.468-12.247-1.868-3.733-4.904-6.765-8.056-9.332-6.423-5.132-13.779-8.514-20.902-11.43-7.123-2.8-14.362-5.016-21.251-6.766-6.89-1.749-13.662-3.149-20.084-4.315-25.923-4.549-47.174-5.366-61.887-5.599-14.596-.117-21.952-.117-22.77-.117 0 0 8.174-.116 22.77 0 14.713.233 35.964 1.05 61.887 5.599 6.422 1.166 13.194 2.566 20.2 4.316 6.89 1.749 14.129 3.966 21.252 6.765 7.123 2.916 14.479 6.299 21.018 11.431 3.153 2.566 6.189 5.599 8.174 9.448 1.868 3.849 2.335 8.515.584 12.597-.701 2.1-1.985 3.849-3.387 5.599-.7.816-1.401 1.633-2.218 2.449-.818.7-1.635 1.517-2.452 2.217-3.387 2.799-7.357 5.248-11.327 7.348-8.057 4.199-16.931 7.232-25.922 9.915-18.216 5.132-37.599 8.164-57.566 9.914-19.967 1.75-39.584 1.866-58.501 1.05-18.916-.933-37.015-3.033-54.063-6.532-8.524-1.75-16.698-3.733-24.521-6.299-7.823-2.566-15.296-5.482-22.069-9.214-3.386-1.867-6.656-3.966-9.458-6.299-2.802-2.45-5.371-5.132-7.123-8.398l-.35-.583-.234-.584-.467-1.283c-.35-.816-.467-1.749-.7-2.566-.117-.933-.234-1.75-.234-2.683l.117-1.283c0-.466.117-.816.233-1.283.351-1.749.935-3.266 1.752-4.782s1.751-2.799 2.802-4.083c2.219-2.449 4.671-4.549 7.24-6.415 2.569-1.866 5.138-3.382 7.823-4.782 5.255-2.8 10.393-4.899 15.297-6.649 9.808-3.499 18.566-5.598 25.805-7.231a298.825 298.825 0 0116.581-3.033c3.386-.7 5.372-.933 5.372-.933z" fill="#E8505B"/><path d="M346.331 488.962c-.116 0 .117-1.633-.934-4.199-1.051-2.683-3.97-5.949-8.524-8.981-9.224-6.066-24.521-11.081-43.787-14.231a278.397 278.397 0 00-31.878-3.149c-11.56-.467-23.82-.35-36.781.7-6.423.466-13.078 1.283-19.734 2.333-6.656 1.05-13.545 2.449-20.318 4.315a169.453 169.453 0 00-10.158 3.15c-3.387 1.283-6.656 2.683-9.926 4.316-3.152 1.749-6.305 3.732-8.991 6.182-2.685 2.449-4.787 5.832-4.904 9.564 0 3.733 2.219 7.115 4.904 9.565 2.686 2.566 5.722 4.549 8.991 6.182 3.27 1.633 6.539 3.033 9.926 4.316a84.776 84.776 0 0010.158 3.149c6.773 1.866 13.545 3.149 20.318 4.316 6.656 1.049 13.311 1.749 19.734 2.332 12.961 1.05 25.221 1.167 36.781.7 11.56-.466 22.186-1.516 31.878-3.149 19.266-3.149 34.679-8.165 43.787-14.23 4.554-3.033 7.473-6.299 8.524-8.982 1.051-2.566.818-4.199.934-4.199 0 .233 0 .467-.116 1.167 0 .35-.117.816-.234 1.399-.117.584-.35 1.167-.584 1.75-1.051 2.683-3.97 6.065-8.524 9.098-9.224 6.065-24.521 11.198-43.787 14.23-9.692 1.633-20.318 2.683-31.878 3.15-11.56.466-23.82.35-36.781-.7-6.423-.467-13.078-1.283-19.734-2.333-6.656-1.05-13.545-2.45-20.318-4.316-3.386-.933-6.772-1.983-10.158-3.266-3.387-1.283-6.656-2.683-9.926-4.316-3.269-1.749-6.305-3.732-8.991-6.298-1.284-1.283-2.569-2.683-3.386-4.316-.934-1.633-1.518-3.499-1.518-5.365 0-1.867.584-3.733 1.518-5.366.934-1.633 2.102-3.033 3.503-4.316 2.686-2.566 5.838-4.549 8.991-6.298a67.212 67.212 0 019.925-4.316c3.387-1.283 6.773-2.333 10.159-3.266 6.773-1.866 13.662-3.149 20.318-4.316 6.655-1.05 13.311-1.749 19.733-2.333 12.961-1.049 25.222-1.166 36.782-.7 11.56.467 22.186 1.517 31.877 3.15 19.267 3.149 34.68 8.165 43.788 14.23 4.554 3.033 7.473 6.415 8.524 9.098.234.7.467 1.283.584 1.75.117.583.233.933.233 1.399v1.4zM88.393 308.051c0 2.099-1.635 3.732-3.737 3.732-2.102 0-3.736-1.633-3.736-3.732 0-2.1 1.634-3.733 3.736-3.733 2.102 0 3.737 1.75 3.737 3.733zm333.37 6.299a3.735 3.735 0 003.737-3.733 3.735 3.735 0 00-3.737-3.733 3.735 3.735 0 00-3.736 3.733 3.735 3.735 0 003.736 3.733zM273.469 447.788c0 2.099-1.635 3.732-3.737 3.732-2.102 0-3.736-1.633-3.736-3.732 0-2.1 1.634-3.733 3.736-3.733 2.102 0 3.737 1.75 3.737 3.733zm-113.264-95.647c0 1.05-.818 1.867-1.869 1.867a1.844 1.844 0 01-1.868-1.867c0-1.049.817-1.866 1.868-1.866 1.051 0 1.869.817 1.869 1.866zm231.899 45.141c0 1.05-.817 1.866-1.868 1.866a1.843 1.843 0 01-1.868-1.866c0-1.05.817-1.866 1.868-1.866.934 0 1.868.816 1.868 1.866z" fill="#E8505B"/><path d="M244.861 483.363c0 1.05-.818 1.867-1.868 1.867a1.844 1.844 0 01-1.869-1.867c0-1.049.818-1.866 1.869-1.866 1.05 0 1.868.817 1.868 1.866zm-97.267-325.08a.934.934 0 100-1.867.934.934 0 000 1.867zm168.028 142.303c-45.306 12.014-88.86 11.081-136.501 0l-5.605-86.898c49.159 9.564 98.435 8.398 141.989-2.1v88.998h.117z" fill="#E8505B"/><path opacity=".8" d="M315.622 300.586c-45.306 12.014-88.86 11.081-136.501 0l-5.605-86.898c49.159 9.564 98.435 8.398 141.989-2.1v88.998h.117z" fill="#fff"/><path d="M308.616 287.405s-.117 0-.234.117a5.677 5.677 0 01-.817.35c-.701.35-1.869.816-3.27 1.283-2.919 1.05-7.123 2.566-12.494 3.966-10.742 2.799-26.039 5.132-42.97 4.899-16.931-.234-32.111-2.566-43.087-4.549a354.406 354.406 0 01-12.845-2.683c-1.518-.35-2.685-.583-3.503-.817-.35-.116-.7-.116-.934-.233-.233 0-.35-.117-.35-.117h.35c.234 0 .584.117.934.117.818.117 1.985.467 3.503.7 3.036.583 7.473 1.516 12.845 2.449 10.859 1.983 26.039 4.2 42.97 4.433 16.931.233 32.111-1.983 42.854-4.666 5.371-1.4 9.691-2.683 12.611-3.732 1.517-.467 2.568-.934 3.386-1.167.35-.116.7-.233.934-.35h.117z" fill="#E8505B"/><path d="M242.175 290.905c-5.721 1.633-11.56 1.283-17.398-.584v-30.91c5.838-1.166 11.677-1.166 17.398 0v31.494zm28.141-1.75v-.933c0-.583 0-1.517-.117-2.566 0-2.333-.117-5.483-.233-9.565-.117-8.165-.351-19.712-.467-33.01l.233.234c-5.605-1.167-11.793-1.167-17.982 0l.234-.35v.583c.233 18.313.35 34.759.467 46.54l-.117-.233c2.802.583 5.371.933 7.59.933 2.218 0 4.203-.233 5.721-.467 1.518-.35 2.686-.7 3.503-.933.351-.116.701-.233.934-.35.117.117.234 0 .234.117 0 0-.117 0-.234.117-.233.116-.467.233-.934.349-.817.234-1.985.7-3.503 1.05-1.518.35-3.503.583-5.838.583-2.219 0-4.904-.233-7.707-.816h-.116v-.117c-.117-11.78-.351-28.227-.701-46.54v-.816h.233c6.306-1.167 12.611-1.167 18.216 0h.234v.233c.116 13.414.233 24.845.233 33.126v12.831c.117-.117.117 0 .117 0zm26.74-3.733c-4.671 2.567-10.86 2.916-17.399 2.45v-51.089c5.956-1.283 11.794-1.517 17.399 0v48.639zm-82.555 3.033s0-.467-.116-1.283c0-.933 0-2.1-.117-3.616 0-3.149-.117-7.465-.117-12.481l.117.234c-4.671-1.75-10.509-3.383-16.815-2.8l.234-.35v17.38l-.117-.233c2.335 1.05 4.671 1.516 6.773 1.866 2.101.35 3.853.583 5.371.7 1.401.116 2.569.233 3.503.35.817.116 1.168.233 1.284.233h-1.284c-.817 0-1.985 0-3.503-.117-1.518-.116-3.386-.233-5.371-.583-2.102-.35-4.438-.816-6.89-1.866l-.116-.117v-17.846h.233c6.422-.583 12.377 1.167 17.048 2.916l.117.117v.233c0 5.249-.117 9.565-.117 12.714 0 1.4 0 2.683-.117 3.499v1.05zm8.174-45.257c0 .117-1.284.233-3.386.233-2.102 0-5.021 0-8.291-.233-3.269-.233-6.072-.466-8.173-.816-2.102-.234-3.387-.584-3.387-.584 0-.116 1.285 0 3.387.234 2.101.116 5.021.35 8.173.583 3.153.233 6.072.35 8.174.35 2.219.116 3.503.233 3.503.233zm-2.569 3.849c0 .117-1.168.117-3.036 0-1.868-.116-4.437-.233-7.239-.466-2.803-.234-5.372-.467-7.24-.584-1.868-.233-2.919-.349-2.919-.466 0-.117 1.168-.117 3.036 0s4.437.233 7.239.466c2.803.234 5.372.467 7.24.584 1.751.233 2.919.35 2.919.466z" fill="#E8505B"/><path d="M226.412 252.063v-1.05c0-.7.116-1.75.116-3.033.117-2.682.351-6.298.467-10.847l.234.233c-8.407.117-19.85-.233-32.228-1.75-.35.234.467-.35.351-.233v1.866c0 .7-.117 1.283-.117 1.983-.117 1.283-.117 2.566-.234 3.849-.117 2.45-.35 4.899-.467 7.232l-.233-.35c9.341 1.167 17.398 1.633 23.119 1.867 2.803.116 5.021.116 6.656.233h1.752c.35-.117.584 0 .584 0h-9.108c-5.722-.117-13.779-.583-23.12-1.633h-.234v-.233c.117-2.333.234-4.783.467-7.232.117-1.283.117-2.566.234-3.849 0-.7.117-1.283.117-1.983v-1.867c-.117.117.7-.583.35-.233 12.377 1.516 23.82 1.983 32.228 1.983h.233v.233c-.35 4.549-.584 8.399-.7 10.965-.117 1.283-.117 2.216-.234 2.916a8.735 8.735 0 01-.233.933z" fill="#E8505B"/><path d="M230.382 258.595c-.117.116-1.168-1.283-2.219-3.15-1.168-1.749-1.868-3.382-1.751-3.382.116-.117 1.167 1.283 2.218 3.149 1.168 1.75 1.985 3.266 1.752 3.383zM41.219 145.452l14.83 89.464s22.535 42.225 82.554 51.789l-9.692-79.783c.117-.116-55.464-17.262-87.692-61.47z" fill="#E8505B"/><path opacity=".8" d="M41.219 145.452l14.83 89.464s22.535 42.225 82.554 51.789l-9.692-79.783c.117-.116-55.464-17.262-87.692-61.47z" fill="#fff"/><path d="M130.896 280.29s-.117 0-.35-.117c-.234-.116-.701-.233-1.051-.349-1.051-.35-2.452-.7-4.204-1.284-1.868-.583-4.087-1.166-6.656-2.216-1.284-.466-2.685-1.049-4.086-1.516-1.402-.583-3.036-1.166-4.554-1.866-3.153-1.4-6.539-2.916-10.16-4.899-3.619-1.867-7.239-4.083-11.092-6.532-7.59-5.016-15.413-11.431-22.302-19.363-3.036-3.616-5.839-7.232-8.057-11.197-2.686-17.38-5.021-32.777-6.773-43.741-.817-5.482-1.518-9.798-1.985-12.947-.233-1.517-.35-2.683-.467-3.499 0-.35-.117-.7-.117-.934v-.35s0 .117.117.35c0 .234.117.467.117.934.116.816.35 1.982.584 3.499a658.986 658.986 0 002.101 12.83c1.752 10.965 4.204 26.245 7.006 43.741v-.117c2.102 3.85 4.905 7.582 7.94 11.081 6.89 7.815 14.597 14.231 22.186 19.246 3.854 2.45 7.474 4.783 11.093 6.532 3.503 1.983 7.006 3.499 10.042 4.899 1.518.7 3.036 1.4 4.554 1.866 1.401.584 2.803 1.05 4.087 1.633 2.569 1.05 4.787 1.75 6.539 2.333l4.204 1.4c.467.117.817.233 1.05.35.117.233.234.233.234.233z" fill="#E8505B"/><path d="M125.641 254.396l-.233.233c-.117.117-.35.35-.584.466-.584.467-1.401 1.167-2.452 1.983-2.219 1.75-5.371 4.2-9.458 7.232l-.117.117-.117-.117c-3.152-4.432-7.122-9.798-11.56-15.98l.351.117c-2.803 1.983-5.722 4.082-8.875 6.299l-.35.233-.117-.35c-3.503-9.331-7.356-19.829-11.443-30.91-.584-1.516-1.05-3.033-1.635-4.433h.584a1556.147 1556.147 0 01-7.24 14.231l-.35.583-.233-.7c-6.306-18.079-11.56-33.359-15.063-43.274h.35c-.934 3.966-1.635 7.115-2.218 9.331-.234 1.05-.468 1.867-.584 2.45-.117.233-.117.466-.117.583 0 .117-.117.233-.117.233v-.233c0-.117.117-.35.117-.583.117-.583.35-1.4.467-2.45a420.669 420.669 0 012.102-9.331l.117-.583.233.583c3.503 9.915 8.875 25.195 15.297 43.274h-.584c2.335-4.549 4.67-9.331 7.24-14.23l.35-.583.233.699c.584 1.517 1.051 2.917 1.635 4.433a6481.903 6481.903 0 0111.326 30.91l-.467-.117c3.153-2.216 6.072-4.315 8.875-6.298l.233-.117.117.233c4.437 6.182 8.29 11.664 11.443 15.98h-.233c4.086-3.032 7.239-5.365 9.574-7.115 1.051-.816 1.986-1.4 2.569-1.866.234-.234.467-.35.701-.467.117-.466.233-.466.233-.466zm-2.101-42.925s-.467-.116-1.285-.233a81.459 81.459 0 01-3.386-1.05c-2.802-.933-6.656-2.332-10.743-4.199-4.086-1.866-7.706-3.849-10.275-5.249-1.284-.699-2.335-1.399-3.036-1.866l-1.051-.7s.467.117 1.168.584a63.485 63.485 0 003.036 1.633 145.54 145.54 0 0010.392 5.132c4.087 1.866 7.94 3.382 10.626 4.315 1.284.467 2.335.934 3.269 1.167.934.233 1.285.466 1.285.466zm2.452 3.733c0 .117-1.168-.117-2.919-.467-1.752-.466-4.204-1.049-6.773-1.982-2.569-.934-4.904-1.983-6.539-2.683-1.635-.817-2.569-1.4-2.569-1.4 0-.117 1.051.35 2.686 1.05 1.635.7 3.97 1.633 6.539 2.566 2.569.933 5.021 1.633 6.656 2.216 1.868.233 2.919.583 2.919.7z" fill="#E8505B"/><path d="M102.288 248.214c0 .7-.467 1.283-1.051 1.283-.584 0-1.051-.583-1.051-1.283s.467-1.283 1.051-1.283c.584 0 1.051.583 1.051 1.283zm-22.886-26.945c.58 0 1.05-.574 1.05-1.283 0-.708-.47-1.283-1.05-1.283-.58 0-1.051.575-1.051 1.283 0 .709.47 1.283 1.05 1.283zM58.15 190.476c0 .7-.467 1.283-1.05 1.283-.585 0-1.052-.583-1.052-1.283s.467-1.283 1.051-1.283c.584 0 1.051.583 1.051 1.283zm374.706-29.044l-7.473 90.864s-21.602 38.842-81.27 40.358l7.356-91.447c0-.117 52.078-2.216 81.387-39.775z" fill="#E8505B"/><path d="M431.688 156.65c-1.985-6.299-6.655-15.28-17.865-17.146l-13.312 122.24s24.872-5.016 25.572-18.546c0-1.166 5.021-61.937 6.306-76.984.35-3.265.35-6.415-.701-9.564z" fill="#E8505B"/><path opacity=".8" d="M432.856 161.432l-7.473 90.864s-21.602 38.842-81.27 40.358l7.356-91.447c0-.117 52.078-2.216 81.387-39.775z" fill="#fff"/><path d="M430.988 184.527c-5.955 8.632-9.342 18.896-9.458 29.394-.117 3.033.116 6.182-1.051 8.981-1.168 2.8-4.087 5.133-7.006 4.316-3.036-.816-4.438-4.432-7.123-6.065-2.336-1.517-5.605-1.283-7.94.116-2.452 1.4-4.087 3.85-5.255 6.416-2.218 5.015-2.335 10.614-3.853 15.746-1.635 5.249-5.488 10.381-10.976 10.615-1.985.116-3.97-.467-5.955-.467-4.204.117-7.824 3.266-9.809 6.999-1.985 3.732-2.569 7.931-3.153 12.13 0 0 31.761 3.033 67.492-39.075l4.087-49.106z" fill="#E8505B"/><path d="M380.544 239.699c0 1.166-.584 1.983-1.284 1.983-.701 0-1.285-.933-1.285-1.983s.584-1.983 1.285-1.983c.7 0 1.284.816 1.284 1.983zm14.946-37.792c0 1.166-.583 1.983-1.284 1.983-.701 0-1.284-.933-1.284-1.983s.583-1.983 1.284-1.983c.701 0 1.284.816 1.284 1.983z" fill="#E8505B"/><path d="M430.287 188.96s0 .233-.234.466c-.116.35-.35.817-.7 1.517-.584 1.283-1.518 3.149-2.569 5.598a1661.908 1661.908 0 00-9.458 19.713l-.117.233-.233-.117c-6.656-4.199-14.246-8.981-22.537-14.23l.468-.116c-.351.699-.584 1.516-.935 2.332-5.604 13.647-10.625 26.011-14.479 35.459l-.116.234-.234-.117c-5.605-3.149-10.159-5.715-13.311-7.348-1.635-.817-2.803-1.517-3.737-1.983-.35-.234-.701-.35-.934-.467-.234-.116-.35-.116-.35-.116 0-.117 1.868.699 5.137 2.332 3.27 1.633 7.824 4.083 13.429 7.232l-.351.117c3.854-9.448 8.875-21.929 14.363-35.576.35-.816.583-1.516.934-2.333l.116-.35.351.234c8.174 5.248 15.88 10.031 22.419 14.23l-.35.117c3.97-8.049 7.356-14.814 9.691-19.596 1.168-2.333 2.102-4.199 2.803-5.482.35-.584.584-1.05.7-1.4.117-.467.234-.583.234-.583z" fill="#E8505B"/></g><defs><clipPath id="clip0_7_9883"><path fill="#fff" d="M0 0h484v546H0z"/></clipPath></defs></svg>