<svg width="405" height="239" fill="none" xmlns="http://www.w3.org/2000/svg"><path d="M385.46 235.762H19.83c-10.08 0-18.252-8.187-18.252-18.284V20.068C1.578 9.971 9.75 1.783 19.83 1.783h365.63c10.08 0 18.252 8.188 18.252 18.285v197.41c.025 10.097-8.148 18.284-18.252 18.284z" fill="#E7E6FF"/><path opacity=".25" d="M265.713 112.633c-26.252 0-47.527 21.311-47.527 47.609 0 26.298 21.275 47.61 47.527 47.61 26.253 0 47.527-21.312 47.527-47.61s-21.274-47.609-47.527-47.609zm0 83.757c-19.912 0-36.06-16.176-36.06-36.123s16.148-36.123 36.06-36.123c19.913 0 36.06 16.176 36.06 36.123s-16.147 36.123-36.06 36.123z" fill="#91A6F2"/><path opacity=".25" d="M281.006 175.577c8.454-8.468 8.454-22.197 0-30.665-8.453-8.468-22.158-8.468-30.611 0-8.454 8.468-8.454 22.197 0 30.665 8.453 8.468 22.158 8.468 30.611 0z" fill="#91A6F2"/><path d="M119.764 74.302H27.162v126.206h92.602V74.302z" fill="#D0B5B7"/><path d="M119.764 200.508H27.162v-25.33c0-7.245 5.225-13.398 12.358-14.564l33.93-5.532 33.931 5.532c7.132 1.166 12.358 7.319 12.358 14.564v25.33h.025z" fill="#A07666"/><path d="M366.216 95.911H165.21a7.87 7.87 0 01-7.875-7.89 7.87 7.87 0 017.875-7.889h201.006a7.87 7.87 0 017.876 7.89 7.871 7.871 0 01-7.876 7.889z" fill="#FB5B16"/><path d="M218.855 127.667H165.21a3.544 3.544 0 01-3.541-3.548 3.543 3.543 0 013.541-3.547h53.67a3.543 3.543 0 013.541 3.547c-.025 1.96-1.61 3.548-3.566 3.548zm147.361 4.342h-67.241a7.871 7.871 0 01-7.876-7.89 7.87 7.87 0 017.876-7.889h67.241a7.87 7.87 0 017.876 7.889 7.871 7.871 0 01-7.876 7.89zm-129.034 10.097h-71.971a3.544 3.544 0 01-3.542-3.547 3.544 3.544 0 013.542-3.548h71.971a3.544 3.544 0 013.542 3.548 3.544 3.544 0 01-3.542 3.547zm27.739 14.439H165.21a3.543 3.543 0 01-3.541-3.547 3.544 3.544 0 013.541-3.548h99.735a3.544 3.544 0 013.542 3.548c-.025 1.96-1.61 3.547-3.566 3.547zm0 14.44H165.21a3.544 3.544 0 01-3.541-3.548 3.544 3.544 0 013.541-3.548h99.735a3.544 3.544 0 013.542 3.548c-.025 1.96-1.61 3.548-3.566 3.548zm-46.066 14.439H165.21a3.544 3.544 0 01-3.541-3.548 3.544 3.544 0 013.541-3.548h53.67a3.544 3.544 0 013.541 3.548c-.025 1.96-1.61 3.548-3.566 3.548zm-20.185 28.903h-22.315a3.544 3.544 0 01-3.541-3.548 3.544 3.544 0 013.541-3.548h22.315a3.544 3.544 0 013.542 3.548 3.544 3.544 0 01-3.542 3.548z" fill="#91A6F2"/><path d="M264.921 214.327h-35.937a3.544 3.544 0 01-3.541-3.548 3.544 3.544 0 013.541-3.548h35.937a3.544 3.544 0 013.541 3.548 3.544 3.544 0 01-3.541 3.548z" fill="#FFB445"/><path d="M198.67 199.888h-22.315a3.544 3.544 0 01-3.541-3.548 3.544 3.544 0 013.541-3.548h22.315a3.544 3.544 0 013.542 3.548c0 1.935-1.585 3.548-3.542 3.548z" fill="#91A6F2"/><path d="M337.363 23.566l-22.884 32.278h89.258V23.566h-66.374zm-253.04 0H1.578v32.278h59.836l22.909-32.278z" fill="#FFB445"/><path d="M106.563 39.816c0 1.489-.247 2.854-.743 4.119-.495 1.24-1.188 2.332-2.08 3.225-.892.893-1.981 1.588-3.245 2.084-1.263.496-2.674.744-4.21.744h-7.727V29.645h7.727c1.536 0 2.947.248 4.21.744 1.264.496 2.353 1.19 3.245 2.084.892.893 1.585 1.96 2.08 3.225.496 1.265.743 2.63.743 4.118zm-3.888 0c0-1.116-.149-2.108-.446-3.002-.297-.893-.718-1.637-1.288-2.257a5.361 5.361 0 00-2.03-1.414c-.793-.323-1.685-.496-2.675-.496h-3.938v14.315h3.938c.99 0 1.882-.174 2.674-.497a5.555 5.555 0 002.031-1.414 6.482 6.482 0 001.288-2.257c.322-.869.446-1.861.446-2.977zm23.058 10.172h-3.418c-.644 0-1.115-.248-1.412-.769l-4.235-6.5a1.49 1.49 0 00-.52-.52c-.198-.1-.471-.15-.842-.15h-1.61v7.94h-3.789V29.644h6.191c1.387 0 2.551.148 3.542.421.991.298 1.808.695 2.427 1.191a4.597 4.597 0 011.387 1.86c.297.72.446 1.514.446 2.383 0 .694-.099 1.34-.297 1.935a5.597 5.597 0 01-2.279 2.977c-.57.372-1.189.67-1.907.893.248.149.471.298.669.496.198.199.396.422.569.67l5.078 7.517zm-9.709-10.668c.718 0 1.337-.099 1.858-.273.52-.173.965-.421 1.312-.744.347-.322.595-.695.768-1.116.173-.422.248-.893.248-1.414 0-1.043-.347-1.836-1.016-2.382-.668-.546-1.709-.819-3.12-.819h-2.428v6.748h2.378zm15.727 10.668h-3.789V29.645h3.789v20.343zm21.918-20.343l-8.198 20.343h-3.417l-8.198-20.343h3.021c.322 0 .595.074.793.248.198.148.371.372.471.62l4.78 12.405c.148.397.321.843.445 1.34.149.47.273.992.421 1.513.124-.521.223-1.017.372-1.514.124-.471.272-.918.446-1.34l4.755-12.404c.074-.223.223-.422.446-.596a1.3 1.3 0 01.817-.273h3.046zm5.895 3.002v5.631h7.108v2.903h-7.108v5.756h9.015v3.027h-12.805V29.62h12.805v3.002h-9.015v.025zm28.209 17.341h-3.418c-.644 0-1.114-.248-1.412-.769l-4.26-6.5a1.473 1.473 0 00-.52-.52c-.198-.1-.47-.15-.842-.15h-1.61v7.94h-3.789V29.644h6.192c1.387 0 2.551.148 3.541.421.991.298 1.808.695 2.428 1.191a4.606 4.606 0 011.387 1.86c.297.72.445 1.514.445 2.383 0 .694-.099 1.34-.297 1.935a5.574 5.574 0 01-.867 1.662 5.531 5.531 0 01-1.411 1.315 7.133 7.133 0 01-1.907.893c.247.149.47.298.668.496.198.199.397.422.57.67l5.102 7.517zm-9.709-10.668c.719 0 1.338-.099 1.858-.273.52-.173.966-.421 1.312-.744.347-.322.595-.695.768-1.116.174-.422.248-.893.248-1.414 0-1.043-.347-1.836-1.016-2.382-.668-.546-1.708-.819-3.12-.819h-2.427v6.748h2.377zm37.472 7.542v3.126h-11.888V29.645h3.789v17.217h8.099zm6.489 3.126h-3.789V29.645h3.789v20.343zm18.476-4.813c.198 0 .396.075.545.248l1.486 1.613a8.156 8.156 0 01-3.047 2.357c-1.213.546-2.65.819-4.334.819-1.51 0-2.873-.248-4.061-.77a8.83 8.83 0 01-3.072-2.158 9.341 9.341 0 01-1.956-3.3c-.446-1.265-.669-2.679-.669-4.168 0-1.538.248-2.927.718-4.192.496-1.266 1.164-2.357 2.056-3.275a9.062 9.062 0 013.17-2.134c1.239-.52 2.576-.769 4.062-.769 1.486 0 2.799.248 3.938.72 1.139.496 2.13 1.116 2.922 1.91l-1.263 1.761a.85.85 0 01-.297.298.908.908 0 01-.495.124 1.01 1.01 0 01-.446-.124 3.673 3.673 0 01-.495-.298 9.45 9.45 0 00-.62-.397 4.19 4.19 0 00-.817-.397 5.474 5.474 0 00-1.065-.297 7.658 7.658 0 00-1.412-.124c-.916 0-1.733.173-2.501.496a5.506 5.506 0 00-1.957 1.414c-.544.62-.965 1.365-1.263 2.258-.297.893-.445 1.885-.445 3.026 0 1.142.173 2.159.495 3.052a6.96 6.96 0 001.312 2.258c.545.62 1.214 1.067 1.957 1.389.743.322 1.56.496 2.427.496.52 0 .991-.025 1.387-.074a5.1 5.1 0 001.139-.273c.347-.124.694-.273.991-.471.322-.199.619-.422.941-.72.099-.074.198-.149.297-.198.149-.05.248-.1.372-.1zm8.421-12.528v5.631h7.108v2.903h-7.108v5.756h9.015v3.027h-12.805V29.62h12.805v3.002h-9.015v.025zm29.472-3.002v20.343h-1.932c-.297 0-.545-.05-.743-.148-.198-.1-.396-.273-.594-.497l-10.601-13.57c.05.62.075 1.19.075 1.711v12.48h-3.319V29.62h1.981c.149 0 .298 0 .421.025.124.024.223.05.298.074a.9.9 0 01.247.174c.075.074.174.173.273.322l10.649 13.62a314.76 314.76 0 00-.074-.967c-.025-.323-.025-.62-.025-.893V29.62h3.344v.025zm15.33 3.696c-.124.199-.223.347-.347.422-.123.1-.272.124-.47.124-.198 0-.421-.074-.644-.223-.223-.15-.495-.298-.817-.497a7.885 7.885 0 00-1.115-.496c-.421-.148-.941-.223-1.511-.223-.52 0-.99.075-1.387.199a2.889 2.889 0 00-.99.52 1.943 1.943 0 00-.595.82c-.123.322-.198.67-.198 1.041 0 .472.124.869.397 1.191.272.323.619.596 1.064.819.446.223.942.422 1.511.595.57.174 1.14.372 1.734.57.594.2 1.164.447 1.734.695a5.768 5.768 0 011.51 1.018c.446.397.793.918 1.065 1.488.273.596.397 1.315.397 2.159 0 .918-.149 1.786-.471 2.58a5.915 5.915 0 01-1.387 2.084c-.594.595-1.337 1.067-2.204 1.414-.867.347-1.858.521-2.997.521a9.754 9.754 0 01-1.907-.198 8.98 8.98 0 01-1.808-.546 9.027 9.027 0 01-1.61-.844 7.317 7.317 0 01-1.337-1.091l1.114-1.811a1.16 1.16 0 01.372-.323.79.79 0 01.47-.124c.223 0 .496.1.768.298.273.198.595.397.966.645.372.223.817.446 1.313.645.495.198 1.089.297 1.808.297 1.065 0 1.907-.248 2.501-.769.595-.52.892-1.24.892-2.208 0-.546-.124-.967-.397-1.315a3.033 3.033 0 00-1.065-.843 9.573 9.573 0 00-1.51-.596 22.11 22.11 0 01-1.709-.52 24.329 24.329 0 01-1.709-.67 5.773 5.773 0 01-1.511-1.018c-.446-.421-.792-.942-1.065-1.587-.272-.645-.396-1.415-.396-2.333 0-.744.149-1.463.446-2.158a5.578 5.578 0 011.288-1.86c.569-.546 1.263-.968 2.08-1.316.817-.322 1.758-.496 2.848-.496a9.64 9.64 0 013.319.57c1.015.373 1.882.894 2.576 1.589l-1.016 1.761zm8.396-.694v5.631h7.108v2.903h-7.108v5.756h9.015v3.027h-12.804V29.62h12.804v3.002h-9.015v.025z" fill="#FA3C32"/><path d="M105.87 214.327H38.678a3.544 3.544 0 01-3.541-3.548 3.544 3.544 0 013.541-3.548h67.192a3.544 3.544 0 013.541 3.548 3.544 3.544 0 01-3.541 3.548zm264.68-22.899h-40.419v23.817h40.419v-23.817z" fill="#91A6F2"/><path d="M73.45 146.696c11.093 0 20.086-11.352 20.086-25.355 0-14.004-8.993-25.356-20.086-25.356-11.093 0-20.085 11.352-20.085 25.356 0 14.003 8.992 25.355 20.085 25.355z" fill="#A07666"/><path d="M54.603 166.345c-.743-1.191-.223-2.357.371-3.547.595-1.191 1.313-2.357 2.155-3.548.793-1.191 1.684-2.357 2.452-3.548.768-1.191 1.387-2.357 1.833-3.548a15.24 15.24 0 00.792-3.548c.149-1.19.174-2.356.075-3.547a15.048 15.048 0 00-.719-3.548c-.42-1.191-.94-2.357-1.882-3.548-6.068-7.616-4.83-18.731 2.774-24.834 7.603-6.079 18.699-4.838 24.791 2.778 5.226 6.575 5.028 15.73 0 22.031-.94 1.191-1.46 2.357-1.882 3.548a15.043 15.043 0 00-.718 3.548c-.1 1.191-.074 2.357.074 3.548.149 1.191.372 2.357.793 3.547.42 1.191 1.065 2.357 1.832 3.548.768 1.191 1.66 2.357 2.452 3.548.842 1.191 1.56 2.357 2.155 3.548.62 1.191 1.115 2.357.372 3.547-6.49 10.47-20.21 13.646-30.612 7.146-2.972-1.836-5.374-4.342-7.108-7.121z" fill="#A07666"/><path d="M168.048 196.671a2.902 2.902 0 00-2.523-3.235 2.898 2.898 0 00-3.228 2.528 2.897 2.897 0 105.751.707zm-.029 14.824a2.897 2.897 0 10-5.599-1.497 2.903 2.903 0 002.052 3.553 2.897 2.897 0 003.547-2.056z" fill="#FB5B16"/><path d="M54.727 129.423c2.299-.503 3.613-3.428 2.936-6.534s-3.09-5.216-5.388-4.713c-2.299.503-3.613 3.428-2.936 6.534s3.09 5.216 5.388 4.713zm41.883-4.71c.677-3.106-.637-6.031-2.936-6.534-2.298-.503-4.71 1.607-5.388 4.712-.677 3.106.638 6.032 2.936 6.535 2.299.502 4.711-1.608 5.388-4.713z" fill="#A07666"/><path d="M51.903 120.051s-.891-7.791 1.486-14.39c2.353-6.6 9.932-10.94 13.498-9.676 2.75-4.838 12.73-3.2 17.46-1.91 4.731 1.29 11.666 8.683 11.814 17.739.075 4.838-2.6 10.718-2.6 10.718l-41.658-2.481z" fill="#A07666"/><path d="M309.575 236.755h-39.577a.995.995 0 01-.991-.993c0-.545.446-.992.991-.992h39.577c.545 0 .991.447.991.992a.995.995 0 01-.991.993zm75.959 0h-52.926a.995.995 0 01-.991-.993c0-.545.446-.992.991-.992h52.802c1.238-.149 17.337-2.456 17.337-17.292V67.702c0-.545.445-.992.99-.992.545 0 .991.447.991.993v149.775c0 16.87-18.946 19.252-19.12 19.277h-.074zm18.203-205.101a.994.994 0 01-.99-.992V20.068c0-.695-.446-17.292-17.263-17.292H265.713a.994.994 0 01-.99-.993c0-.545.445-.992.99-.992h119.771c18.773 0 19.244 19.079 19.244 19.252v10.594c-.025.57-.446 1.017-.991 1.017zM242.135 2.776h-54.61a.994.994 0 01-.99-.993c0-.545.445-.992.99-.992h54.61c.545 0 .991.447.991.992-.025.546-.446.993-.991.993zm-82.596 0h-12.383a.995.995 0 01-.991-.993c0-.545.446-.992.991-.992h12.383c.545 0 .991.447.991.992a.995.995 0 01-.991.993zM1.578 112.856a.995.995 0 01-.99-.993V23.566c0-7.815 2.104-13.794 6.29-17.788C12.326.593 19.286.766 19.855.79h93.123c.545 0 .99.447.99.992a.994.994 0 01-.99.993H19.781c-.074 0-6.637-.248-11.566 4.466-3.74 3.572-5.647 9.08-5.647 16.324v88.297a.98.98 0 01-.99.993zm0 34.857a.994.994 0 01-.99-.992v-16.399c0-.546.445-.993.99-.993.545 0 .99.447.99.993v16.399a.994.994 0 01-.99.992zm82.547 90.654c-32.642 0-58.994-.397-64.517-1.637C2.89 233.009 1.429 223.333 1.38 222.911v-50.239c0-.546.446-.993.99-.993.545 0 .991.447.991.993v50.041c.149.793 1.907 8.807 16.693 12.107 15.925 3.547 216.484 0 218.515-.025.545 0 .991.422.991.967 0 .546-.421.993-.966.993-5.449.099-91.612 1.612-154.47 1.612z" fill="#C4968F"/></svg>