<svg width="511" height="447" fill="none" xmlns="http://www.w3.org/2000/svg"><path d="M296.498 432.565s-50.186 10.234-95.859 0c-27.941-6.248-86.833-21.006-100.696-54.507-13.863-33.502 52.981-62.156 20.096-96.088-14.185-14.65-82.211-34.04-78.342-129.159C45.458 57.477 145.186-.478 283.71 2.108c138.523 2.585 218.478 128.835 164.852 190.991-53.518 62.156-76.623 62.371-52.335 113 24.287 50.522-9.457 111.924-99.729 126.466z" fill="#F95151" fill-opacity=".32"/><path opacity=".7" d="M296.498 432.565s-50.186 10.234-95.859 0c-27.941-6.248-86.833-21.006-100.696-54.507-13.863-33.502 52.981-62.156 20.096-96.088-14.185-14.65-82.211-34.04-78.342-129.159C45.458 57.477 145.186-.478 283.71 2.108c138.523 2.585 218.478 128.835 164.852 190.991-53.518 62.156-76.623 62.371-52.335 113 24.287 50.522-9.457 111.924-99.729 126.466z" fill="#fff"/><path d="M137.986 393.031c1.612-.107 1.934-.969 2.149-1.939l1.397-.107 1.29 13.465-2.15.215-.967-10.233-1.612.107-.107-1.508z" fill="#263238"/><path d="M150.452 380.535l5.159-3.878m-17.303 2.263l6.341 5.924 3.653-2.693m-21.815 11.203l-4.513-5.493 11.284.323-1.505-15.297 2.579 2.37m-2.364 35.872l.86-5.171-13.004-3.555 9.995-5.17-1.398-1.616m15.368 18.851l-4.084-4.309-8.705 6.248.43-2.478m15.26 3.663l-1.182-1.185m10.102-7.325l-4.728-1.293 1.934 16.266-2.794-2.908m8.813-20.898l-3.654 1.831 9.457 9.264-6.233-1.616m2.901-12.711l1.719 1.077-2.042.97m-1.934-19.606l-4.406 13.681 5.051 2.908" stroke="#263238" stroke-miterlimit="10" stroke-linecap="round" stroke-linejoin="round"/><path d="M157.867 348.757c-.752.108-1.289.539-1.182 1.724l.107 1.724-2.364.215-.107-1.508c-.215-2.478.859-4.094 3.331-4.309 2.472-.215 3.869 1.077 4.084 3.663.215 2.046-.43 3.878-2.472 6.571-1.289 1.723-1.612 2.477-1.612 3.339 0 .108 0 .215.108.323l4.728-.431.215 2.262-7.2.647-.215-1.939c-.215-1.724.322-3.124 2.042-5.279 1.719-2.154 2.149-3.447 1.934-5.17 0-1.616-.537-1.939-1.397-1.832z" fill="#263238"/><path d="M138.738 349.619l-3.976-4.201 13.325-.215-1.289-9.265m-4.621 28.547l-9.135-2.047 11.392-6.463-2.794-3.124m22.997 25.422l-7.845-7.648-9.886 7.648 1.612-12.388-3.439-.754m30.52 3.34l-5.911-1.293 3.117 18.959-6.233-6.032m14.508-23.592l-6.663 3.771 5.911 5.17m-13.327-29.515l13.111-10.88-6.77 24.776 5.696 3.016m-32.992-21.76l-.538-3.878 15.798 13.465 2.471-2.154" stroke="#263238" stroke-miterlimit="10" stroke-linecap="round" stroke-linejoin="round"/><path d="M209.988 370.948c.107-1.723-.43-2.262-1.397-2.37-.967-.107-1.612.431-1.719 1.832l-.108 1.292-2.902-.215.108-1.077c.215-3.124 1.934-4.848 4.943-4.632 3.009.215 4.514 2.154 4.192 5.278v.539c-.108 2.154-.968 3.339-2.472 3.878v.107c1.504.754 2.042 2.262 1.827 4.309l-.108 1.508c-.215 3.124-1.934 4.848-4.943 4.632-3.009-.215-4.514-2.154-4.191-5.278l.107-1.616 2.902.216-.108 1.831c-.107 1.4.43 1.939 1.505 2.047.967.107 1.612-.324 1.719-2.155l.108-1.508c.107-1.831-.43-2.585-1.827-2.693l-1.075-.108.215-2.801 1.182.108c1.182.108 1.935-.323 2.042-1.939v-1.185z" fill="#263238"/><path d="M192.793 355.005l6.986 3.663 2.686-23.807 2.257 3.878m-17.087 42.227l1.719-2.8-10.316-9.803 12.573-3.124-10.317-16.374 7.63 4.094m-2.794 46.751l-13.325 5.709 13.003-21.436m30.95 17.343l-1.719 13.573-14.401-21.545-8.812 3.878m36.861-11.095l5.266 10.664-16.012-4.308-.323 2.8m9.349-40.395l3.869-1.616-6.233 14.219 17.41 9.48L226 380.859l.967 1.723m-19.021-38.133l8.382 14.65 7.523-3.016M51.906 111.661a216.423 216.423 0 00-6.878-3.77m53.841 29.947c-13.433-8.295-27.404-14.758-40.837-22.622m24.932 24.237l-24.717-7.54m368.5-26.5l31.595-21.329c.86-.538 1.719-1.185 2.579-1.723m-49.542 33.394c3.654-2.478 7.201-4.848 10.854-7.326m24.502 3.878c3.332-1.615 6.771-3.231 10.102-4.847m-34.711 16.805c6.34-3.017 12.681-6.141 19.021-9.157M269.524 415.222c1.29 10.449 2.687 20.79 3.977 31.239m-6.019-47.721c.43 3.448.86 7.002 1.29 10.45m15.153 13.034l2.257 9.372m-5.804-23.807c.645 2.693 1.29 5.278 1.935 7.971" stroke="#263238" stroke-miterlimit="10" stroke-linecap="round" stroke-linejoin="round"/><path d="M322.72 324.951c-6.663.323-9.027 5.278-9.78 8.294-2.471-1.831-7.415-4.201-12.788-.215-5.803 4.309-5.158 13.465 3.009 19.175 5.911 4.093 13.541 5.493 17.409 6.032.43.108.86.108 1.183.108l.859-.862c2.687-2.801 7.738-8.833 9.672-15.727 2.902-9.588-2.257-17.021-9.564-16.805z" fill="#F95151" fill-opacity=".32" stroke="#263238" stroke-miterlimit="10" stroke-linecap="round" stroke-linejoin="round"/><path d="M325.514 364.054s.108.215.215.539" stroke="#263238" stroke-linecap="round" stroke-linejoin="round"/><path d="M326.696 366.531c2.902 5.387 10.854 17.667 22.676 15.512 15.045-2.8 11.928-19.174 3.868-13.788-7.845 5.386 1.397 30.378 28.801 30.809" stroke="#263238" stroke-linecap="round" stroke-linejoin="round" stroke-dasharray="1.01 1.01"/><path d="M383.116 399.064h.537" stroke="#263238" stroke-linecap="round" stroke-linejoin="round"/><path d="M178.93 123.295s-3.224-15.727-.107-28.654c0 0-7.2 12.711-13.003 13.358-5.804.646-19.882-22.837-19.882-22.837s1.72 18.205-2.149 21.652c-3.869 3.447-31.058-11.527-31.058-11.527s17.088 15.943 15.69 21.545c-1.397 5.601-18.161 3.016-18.161 3.016s17.087 8.941 16.979 12.173c-.107 3.231-8.06 6.571-8.06 6.571l17.088 5.063s-4.514-12.927 9.779-22.191c14.293-9.372 32.884 1.831 32.884 1.831z" fill="#fff" stroke="#263238" stroke-miterlimit="10" stroke-linecap="round" stroke-linejoin="round"/><path d="M13.54 390.015s39.656-48.367 50.402-60.001c7.845-8.402 19.022-10.018 22.246-17.774 0 0 22.46-2.155 34.496-6.464 12.036-4.416 29.876-12.495 42.342-14.111 12.466-1.616 17.946-3.986 25.039-3.663 6.985.323 33.852 2.262 33.852 2.262 2.472-4.847 5.051-8.725-.215-13.465-5.158-4.74-23.535-9.91-30.735-8.187 0 0-37.828-5.386-39.118-6.679-1.289-1.292-5.051-27.146 1.935-43.735l-39.655-2.908S56.527 279.277 1.504 299.528c-.214 0-7.415 60.002 12.037 90.487z" fill="#fff"/><path opacity=".4" d="M219.338 275.183c-11.822 1.185-34.927 3.555-40.3 4.417-7.2 1.293-29.553 2.585-29.553 2.585s-7.845 9.803-14.723 12.388c-6.77 2.586-19.344-12.388-27.189-10.018 0 0-13.433 12.819-26.544 10.772-7.308-1.185-6.878-22.729-.752-47.29 20.096-17.774 33.637-32.747 33.637-32.747l39.654 2.908c-6.985 16.482-3.331 42.443-1.934 43.735 1.29 1.293 39.118 6.679 39.118 6.679 6.448-1.508 21.6 2.37 28.586 6.571zM85.65 313.209c-3.761 6.894-14.293 8.726-21.708 16.697-7.63 8.187-29.66 34.794-41.912 49.66 6.448-18.313 29.768-35.764 33.637-41.796 5.051-7.864 0-16.482 9.027-16.482 9.027.216 20.849-8.079 20.956-8.079-.107 0-.107 0 0 0z" fill="#F95151" fill-opacity=".32"/><path d="M13.54 390.015s39.656-48.367 50.402-60.001c7.845-8.402 19.021-10.018 22.245-17.774 0 0 22.461-2.155 34.497-6.464 12.036-4.416 29.876-12.495 42.342-14.111 12.466-1.616 17.946-3.986 25.039-3.663 6.985.323 33.852 2.262 33.852 2.262 2.472-4.847 5.051-8.725-.215-13.465-5.158-4.74-23.535-9.91-30.735-8.187 0 0-37.828-5.386-39.118-6.679-1.289-1.292-5.051-27.146 1.934-43.735l-39.654-2.908S56.527 279.277 1.504 299.528" stroke="#263238" stroke-miterlimit="10" stroke-linecap="round" stroke-linejoin="round"/><path d="M126.917 190.729s36.538-30.27 38.58-30.916c1.935-.646 10.747-3.016 19.237-5.063 8.489-1.939 15.26-3.447 21.815 0 6.556 3.447 20.956 6.786 20.956 6.786s1.827 6.787-4.728 9.049c-6.556 2.37-25.9.431-25.9.431s-13.433 6.356-21.493 7.864c0 0-17.409 18.528-17.409 26.176" fill="#fff"/><path opacity=".4" d="M227.72 164.876c-.215 2.047-1.397 4.632-4.944 5.817-6.555 2.37-25.899.431-25.899.431s-13.433 6.355-21.493 7.863c0 0-12.251 12.927-16.227 21.653-10.317-2.263-17.84-3.986-17.84-3.986s19.129-21.329 19.559-21.545c.43-.215 4.836-1.939 9.994-2.369 5.159-.431 14.831-5.71 14.831-5.71s7.845-3.016 12.788-2.37c4.944.647 16.12 2.801 22.998 2.37 3.224-.107 5.158-1.077 6.233-2.154z" fill="#F95151" fill-opacity=".32"/><path d="M126.917 190.729s36.538-30.27 38.58-30.916c1.935-.646 10.747-3.016 19.237-5.063 8.489-1.939 15.26-3.447 21.815 0 6.556 3.447 20.956 6.786 20.956 6.786s1.827 6.787-4.728 9.049c-6.556 2.37-25.9.431-25.9.431s-13.433 6.356-21.493 7.864c0 0-17.409 18.528-17.409 26.176m38.902-33.932s-3.009-.108-4.513-2.586m-16.98 10.449s-6.126.539-8.92-2.8" stroke="#263238" stroke-miterlimit="10" stroke-linecap="round" stroke-linejoin="round"/><path d="M492.301 404.342s-37.935-52.676-47.93-64.956c-7.2-8.941-18.269-11.311-20.956-19.175 0 0-22.245-3.662-33.959-8.833-11.714-5.171-28.908-14.435-41.267-16.912-12.358-2.478-17.624-5.171-24.717-5.279-7.092-.108-33.959 0-33.959 0-2.149-4.955-4.406-9.048 1.075-13.465 5.48-4.309 24.18-8.295 31.165-6.14 0 0 38.043-2.801 39.44-3.986 1.397-1.185 6.878-26.823.967-43.735l39.762-.216s54.808 70.02 108.433 93.826c.108-.107 3.332 59.678-18.054 88.871z" fill="#fff"/><path opacity=".4" d="M424.06 302.652c-13.218 2.155-25.147-15.942-25.147-15.942-7.737-2.37-20.311 12.603-27.189 10.018-6.77-2.586-14.615-12.388-14.615-12.388s-22.353-1.293-29.553-2.586c-5.158-.861-26.652-3.124-38.795-4.309.537-.646 1.074-1.184 1.827-1.831 5.48-4.309 24.179-8.294 31.165-6.14 0 0 38.043-2.801 39.547-3.986 1.397-1.185 6.878-26.822.967-43.735l39.763-.215s9.242 11.741 23.857 27.361c6.556 24.884 5.588 52.569-1.827 53.753zm61.793 92.641c-11.284-15.619-34.067-46.859-41.374-56.015-7.201-8.941-18.27-11.311-20.956-19.175 0 0-7.63-1.292-16.228-3.339 5.911.108 11.069-.215 13.863-1.4 0 0 11.822 8.294 20.849 8.187 9.027-.108 3.976 8.51 9.027 16.481 4.729 7.541 39.762 32.748 34.819 55.261z" fill="#F95151" fill-opacity=".32"/><path d="M492.301 404.342s-37.935-52.676-47.93-64.956c-7.2-8.941-18.269-11.311-20.956-19.175 0 0-22.245-3.662-33.959-8.833-11.714-5.171-28.908-14.435-41.267-16.912-12.358-2.478-17.624-5.171-24.717-5.279-7.092-.108-33.959 0-33.959 0-2.149-4.955-4.406-9.048 1.075-13.465 5.48-4.309 24.18-8.295 31.165-6.14 0 0 38.043-2.801 39.44-3.986 1.397-1.185 6.878-26.823.967-43.735l39.762-.216s54.808 70.02 108.433 93.826" stroke="#263238" stroke-miterlimit="10" stroke-linecap="round" stroke-linejoin="round"/><path d="M390.424 196.115s-36.539-30.27-38.581-30.916c-1.934-.646-10.746-3.016-19.236-5.063-8.49-1.939-15.26-3.447-21.816 0-6.555 3.447-20.955 6.787-20.955 6.787s-1.827 6.786 4.728 9.048c6.555 2.37 25.899.431 25.899.431s13.434 6.356 21.493 7.864c0 0 17.41 18.528 17.41 26.176" fill="#fff"/><path opacity=".4" d="M388.274 197.085l-28.908 13.465c0-7.648-17.41-26.176-17.41-26.176-8.06-1.508-21.493-7.864-21.493-7.864s-19.344 1.939-25.899-.431c-2.579-.969-3.869-2.478-4.514-4.093 2.042 1.4 5.696 2.693 11.929 1.939 11.176-1.293 19.666-5.925 22.138-5.387 2.472.431 3.116 4.309 3.116 4.309s18.7 7.433 22.783 6.033c4.084-1.401 19.559 7.109 19.559 7.109s9.994 7.002 18.699 11.096z" fill="#F95151" fill-opacity=".32"/><path d="M390.424 196.115s-36.539-30.27-38.581-30.916c-1.934-.646-10.746-3.016-19.236-5.063-8.49-1.939-15.26-3.447-21.816 0-6.555 3.447-20.955 6.787-20.955 6.787s-1.827 6.786 4.728 9.048c6.555 2.37 25.899.431 25.899.431s13.434 6.356 21.493 7.864c0 0 17.41 18.528 17.41 26.176m-38.903-33.932s3.009-.108 4.514-2.585m16.98 10.449s6.125.538 8.919-2.801" stroke="#263238" stroke-miterlimit="10" stroke-linecap="round" stroke-linejoin="round"/><path d="M328.738 272.275H175.492a4.087 4.087 0 01-4.084-4.094v-87.793a4.087 4.087 0 014.084-4.094h153.246a4.087 4.087 0 014.084 4.094v87.793c-.108 2.262-1.827 4.094-4.084 4.094z" fill="#F95151" fill-opacity=".32"/><path opacity=".3" d="M328.738 176.402H175.492a4.087 4.087 0 00-4.084 4.093v87.794a4.087 4.087 0 004.084 4.093h153.246a4.087 4.087 0 004.084-4.093v-87.794c-.108-2.262-1.827-4.093-4.084-4.093zm-.752 89.625c0 1.831-1.505 3.339-3.332 3.339H179.576c-1.827 0-3.332-1.508-3.332-3.339v-83.593c0-1.831 1.505-3.339 3.332-3.339h145.078c1.827 0 3.332 1.508 3.332 3.339v83.593z" fill="#000" fill-opacity=".7"/><path d="M332.714 197.839H171.408v68.942h161.306v-68.942z" fill="#263238"/><path opacity=".2" d="M327.986 197.839H176.244v68.942h151.742v-68.942z" fill="#fff"/><path opacity=".3" d="M185.809 269.366l2.364 3.016h-12.681a4.087 4.087 0 01-4.084-4.093v-82.838s11.069 1.4 13.111 2.477c2.149 1.185 18.162 25.961 20.204 36.195 2.149 10.341-18.914 45.243-18.914 45.243zm144.971-70.127l-4.943 4.201s-8.705 10.126-13.219 19.821v-.539l-.537-.215v-.323l.537-.323-.215-1.293-.537-.215v-.324l.43-.323-.322-1.292-.538-.108c0-.108 0-.216-.107-.323l.43-.431-.323-1.293-.537-.108c0-.107-.107-.215-.107-.323l.429-.431-.429-1.292-.538-.108c0-.108-.107-.215-.107-.323l.43-.431-.43-1.185-.538-.108c0-.107-.107-.215-.107-.323l.43-.431-.538-1.185h-.537c0-.107-.107-.215-.107-.323l.322-.431-.537-1.185h-.645c0-.107-.108-.215-.108-.323l.323-.539-.645-1.184h-.645c0-.108-.107-.216-.107-.324l.322-.538-.645-1.077-.644.107c-.108-.107-.108-.215-.215-.215l.322-.539-.752-1.077-.645.108c0-.108-.107-.216-.215-.216l.215-.538-.86-1.078-.537.108c-.108-.108-.108-.215-.215-.215l.215-.539-.86-.969-.537.107-.215-.215.215-.539-.967-.969-.538.215-.215-.215.215-.539-1.397-.969-.537.215-.215-.215.108-.647-.968-.861-.537.215-.215-.215.108-.647-1.075-.862-.537.216c-.108-.108-.215-.108-.215-.216l.107-.646-1.075-.754-.537.323c-.107-.107-.215-.107-.215-.215v-.647l-1.074-.646-.538.323c-.107-.107-.215-.107-.322-.215v-.539l-1.182-.646-.538.323c-.107 0-.215-.108-.322-.108v-.538l-1.182-.539-.43.323c-.108 0-.215-.107-.322-.107v-.647l-1.183-.538-.429.431c-.108 0-.215-.108-.323-.108l-.107-.647-1.29-.43-.43.43c-.107 0-.215-.107-.322-.107l-.108-.539-1.289-.431-.43.431c-.108 0-.215-.108-.322-.108l-.108-.538-1.29-.323-.429.431c-.108 0-.215-.108-.323-.108l-.107-.539-1.29-.215-.43.431c-.107 0-.215 0-.322-.108l-.215-.539-1.29-.215-.322.538h-.322l-.215-.538-1.29-.108-.322.539h-.323l-.215-.539-1.289-.108-.323.539h-.43l-.322-.539h-.967l-.323.539h-.322l-.322-.539-1.29.108-.215.539h-.322l-.323-.539-1.289.108-.215.538h-.323l-.322-.43-1.29.215-.214.539c-.108 0-.215 0-.323.107l-.43-.431-1.289.324-.108.538c-.107 0-.215 0-.322.108l-.43-.431-1.29.323-.107.539c-.108 0-.215.108-.322.108l-.43-.431-1.29.431-.107.646c-.108 0-.215.108-.323.108l-.43-.431-1.289.431-.108.646c-.107 0-.215.108-.322.108l-.43-.431-1.182.538v.647c-.108 0-.215.107-.322.107l-.43-.323-1.182.539v.646c-.108 0-.215.108-.323.108l-.537-.323-1.182.646v.646c-.108 0-.215.108-.323.108l-.537-.323-1.075.646.108.647c-.108.107-.215.107-.215.107l-.538-.323-1.074.754.107.647c-.107.107-.215.107-.215.215l-.537-.215-1.075.861.108.647-.215.215-.537-.215-.968.862.108.538-.215.216-.537-.216-.968.862.215.539-.215.215-.537-.215-.86.969.215.539-.215.215-.537-.108-.86.97.215.538-.215.216-.645-.108-.859 1.077.215.539a.231.231 0 01-.215.215l-.645-.107-.752 1.077.322.539c-.107.107-.107.215-.107.215l-.645-.108-.645 1.077.322.539c0 .108-.107.216-.107.216h-.645l-.645 1.184.323.539c-.108.108-.108.216-.108.323h-.644l-.538 1.185.323.431c0 .108-.108.216-.108.323h-.645l-.537 1.185.43.431c0 .108-.108.216-.108.323l-.537.108-.43 1.185.43.431c0 .108-.107.215-.107.323l-.538.108-.43 1.292.43.431c0 .108-.107.216-.107.323l-.538.108-.322 1.293.43.431c0 .107 0 .215-.108.323l-.537.108-.322 1.292.43.323c0 .108 0 .216-.108.324l-.537.215-.215 1.293.537.323v.323l-.537.215-.108 1.293.538.323v.323l-.538.216-.107 1.293.537.323v.323l-.537.323v1.293l.537.323v.431l-.537.323.107 1.293.538.215v.323l-.538.323.108 1.293.537.216v.323l-.537.323.215 1.293.537.215v.323l-.43.323.323 1.293.537.108c0 .107.107.215.107.323l-.429.431.322 1.292.537.108c0 .108.108.216.108.323l-.43.431.43 1.293.645.108c0 .107.107.215.107.323l-.43.431.43 1.292.645.108c0 .108.107.215.107.323l-.43.431.538 1.185h.645c0 .108.107.215.107.323l-.322.431.537 1.185h.645c0 .108.107.215.107.323l-.322.539.645 1.185h.644c0 .107.108.215.108.323l-.322.538.752 1.078.645-.108c0 .108.107.215.107.215l-.322.539.752 1.077.645-.107.215.215-.215.539.859 1.077.538-.108.215.216-.215.538.859.97.538-.108.215.215-.215.539.86.969.537-.215.215.215-.215.539.967.97.537-.216.215.216-.107.538.967.862.537-.215c.108.107.215.107.215.215l-.107.539 1.075.861.537-.215c.107.108.215.108.215.215l-.108.647 1.075.754.537-.323c.108.107.215.107.215.215l-.107.646 1.182.647.537-.323c.108.107.215.107.323.107v.647l1.182.646.537-.323c.108 0 .215.107.322.107v.647l1.183.538.429-.323c.108 0 .215.108.323.108v.646l1.182.539.43-.431c.107 0 .215.108.322.108l.108.646 1.289.431.43-.431c.108 0 .215.108.323.108l.107.646 1.29.431.429-.431c.108 0 .215 0 .323.108l.107.646 1.29.323.43-.431c.107 0 .215 0 .322.108l.108.539 1.289.215.43-.431h.322l.215.539 1.29.215.322-.538h.323l.215.538 1.289.108.323-.538h.322l.215.538 1.29.108.322-.539h.43l.322.539h1.29l.322-.539h.323l.322.539 1.29-.108.215-.538h.322l.322.538 1.29-.108.215-.538h.322l.323.538 1.289-.215.215-.539h.323l.322.431 1.29-.323.107-.539c.108 0 .215 0 .322-.107l.43.431 1.29-.324.107-.646c.108 0 .215-.108.323-.108l.43.431 1.289-.431.108-.646c.107 0 .215-.108.322-.108l.43.431 1.182-.431.108-.646c.107 0 .214-.108.322-.108l.43.323 1.182-.538v-.646c.107 0 .215-.108.322-.108l.538.323 1.182-.646v-.539c.107-.108.215-.108.322-.108l.538.323 1.182-.646v-.646c.107-.108.215-.108.215-.108l.537.323 1.075-.754-.108-.538c.108-.108.215-.108.215-.216l.537.323 1.075-.754-.107-.646c.107-.108.214-.108.214-.216l.538.216 1.074-.862-.107-.646c.107-.108.215-.108.215-.216l.537.216.967-.862-.107-.539.215-.215.537.215.86-.861 3.224 1.615 3.654-4.201-2.15-3.124h.215l.753-1.077-.323-.538c0-.108.108-.216.108-.216l.645.108.644-1.077-.322-.431c.107-.108.107-.216.107-.323h.645l.645-1.185-.322-.539c0-.108.107-.215.107-.323h.645l.537-1.185-.322-.431c0-.108.107-.215.107-.323h.645l.537-1.185-.322-.431c0-.108.107-.215.107-.323l.645-.108.43-1.293-.43-.43c0-.108.108-.216.108-.324l.645-.107.214-.539c2.257 12.604 8.598 28.654 8.598 28.654l-.43 2.262.537.539h9.242a4.087 4.087 0 004.084-4.094v-68.726l-2.257-.108z" fill="#000" fill-opacity=".7"/><path d="M328.738 272.275H175.492a4.087 4.087 0 01-4.084-4.094v-87.793a4.087 4.087 0 014.084-4.094h153.246a4.087 4.087 0 014.084 4.094v87.793c-.108 2.262-1.827 4.094-4.084 4.094z" stroke="#263238" stroke-miterlimit="10" stroke-linecap="round" stroke-linejoin="round"/><path d="M204.83 172.416v4.094h-24.287v-4.094c0-.646.537-1.185 1.182-1.185h22.031c.537 0 1.074.539 1.074 1.185z" fill="#999"/><path opacity=".4" d="M204.83 172.416v.539h-24.287v-.539c0-.646.537-1.185 1.182-1.185h22.031c.537 0 1.074.539 1.074 1.185z" fill="#fff"/><path d="M204.83 172.416v4.094h-24.287v-4.094c0-.646.537-1.185 1.182-1.185h22.031c.537 0 1.074.539 1.074 1.185z" stroke="#263238" stroke-miterlimit="10" stroke-linecap="round" stroke-linejoin="round"/><path d="M227.72 174.032v2.478h-19.451v-2.478l3.654-1.077v-1.508c0-.646.537-1.077 1.075-1.077h9.994c.645 0 1.075.538 1.075 1.077v1.508l3.653 1.077z" fill="#999"/><path opacity=".4" d="M227.72 174.571v-.539l-3.653-1.077h-12.252l-3.546 1.077v.539h19.451zm-3.653-3.124v.215h-12.252v-.215c0-.646.538-1.077 1.075-1.077h9.994c.753 0 1.183.431 1.183 1.077z" fill="#fff"/><path d="M227.72 174.032v2.478h-19.451v-2.478l3.654-1.077v-1.508c0-.646.537-1.077 1.075-1.077h9.994c.645 0 1.075.538 1.075 1.077v1.508l3.653 1.077zm-15.905-1.077h12.252" stroke="#263238" stroke-miterlimit="10" stroke-linecap="round" stroke-linejoin="round"/><path d="M307.89 224.769v1.939l.645-.323v-1.293l-.645-.323zm-81.137 0l-.645.323v1.293l.645.323v-1.939zm81.029 3.986l.752-.323v-1.185l-.644-.431-.108 1.939zm-80.921-6.032l-.645.323-.108 1.185.645.431.108-1.939zm80.706 8.079l.753-.216.107-1.292-.645-.431-.215 1.939zm-80.491-10.126l-.753.215-.107 1.293.645.431.215-1.939zm80.169 12.172l.752-.215.215-1.293-.644-.431-.323 1.939zm-79.847-14.219l-.752.216-.215 1.292.644.431.323-1.939zm79.417 16.266l.753-.215.322-1.293-.645-.431-.43 1.939zm-78.987-18.313l-.752.216-.323 1.293.645.43.43-1.939zm78.45 20.252l.859-.108.323-1.292-.645-.431-.537 1.831zm-77.913-22.191l-.859.108-.323 1.293.645.431.537-1.832zm77.376 24.13l.752-.108.43-1.184-.645-.539-.537 1.831zm-76.839-26.069l-.752.108-.322 1.185.537.539.537-1.832zm76.086 28.008h.86l.43-1.185-.537-.646-.753 1.831zm-75.333-29.946h-.752l-.43 1.184.537.647.645-1.831zm74.581 31.885l.752-.107.537-1.078-.537-.646-.752 1.831zm-73.829-33.825l-.752.108-.537 1.077.537.647.752-1.832zm72.862 35.656h.86l.537-1.184-.537-.539-.86 1.723zm-71.895-37.487h-.86l-.537 1.185.537.539.86-1.724zm70.928 39.319h.752l.645-1.077-.43-.647-.967 1.724zm-69.961-41.15h-.752l-.645 1.077.43.646.967-1.723zm68.886 42.873l.752.108.753-1.077-.43-.754-1.075 1.723zm-67.811-44.597l-.752-.107-.645 1.077.322.754 1.075-1.724zm66.629 46.321l.752.108.752-1.078-.322-.646-1.182 1.616zm-65.447-48.044l-.752-.108-.752 1.077.322.647 1.182-1.616zm64.265 49.66l.752.107.752-.969-.322-.754-1.182 1.616zm-62.975-51.276l-.86-.108-.752.97.322.754 1.29-1.616zm61.578 52.784l.752.215.86-.969-.323-.754-1.289 1.508zm-60.289-54.292l-.752-.216-.86.97.323.754 1.289-1.508zm58.892 55.8l.752.215.86-.861-.215-.754-1.397 1.4zm-57.495-57.308l-.752-.216-.86.862.215.754 1.397-1.4zm55.99 58.708l.752.323.967-.861-.322-.754-1.397 1.292zm-54.485-60.109l-.752-.323-.968.862.323.754 1.397-1.293zm52.981 61.51l.752.323.86-.862-.108-.754-1.504 1.293zm-51.476-62.91l-.753-.323-.859.862.107.754 1.505-1.293zm49.864 64.202l.645.323 1.074-.861-.215-.754-1.504 1.292zm-48.252-65.495l-.645-.323-1.075.754.215.862 1.505-1.293zm46.532 66.573l.752.43.967-.754-.107-.754-1.612 1.078zm-44.813-67.65l-.645-.431-1.075.754.108.754 1.612-1.077zm43.094 68.834l.645.324 1.074-.647-.107-.754-1.612 1.077zm-41.375-70.019l-.644-.323-1.075.646.108.754 1.611-1.077zm39.548 70.989l.644.431 1.183-.646-.108-.754-1.719.969zm-37.721-71.958l-.645-.431-1.182.646.108.754 1.719-.969zM285 263.118l1.182-.538v-.862l-1.827.862.645.538zm-35.356-74.759l-1.075.539-.108.862 1.827-.862-.644-.539zm33.421 75.621l1.182-.538v-.754l-1.719.754.537.538zm-31.487-76.483l-1.182.539v.754l1.719-.754-.537-.539zm29.553 77.237l1.182-.431.108-.861-1.827.754.537.538zm-27.619-77.991l-1.182.431-.107.862 1.827-.754-.538-.539zm25.685 78.637l1.182-.43.107-.754-1.827.538.538.646zm-23.75-79.283l-1.182.431-.108.754 1.827-.539-.537-.646zm21.708 79.822l1.182-.323.215-.754-1.935.431.538.646zm-19.667-80.361l-1.182.324-.215.754 1.935-.431-.538-.647zm17.625 80.792l1.182-.215.215-.862-1.934.431.537.646zm-15.583-81.222l-1.182.215-.215.862 1.935-.431-.538-.646z" fill="#263238"/><path d="M273.071 266.673l1.182-.215.323-.754-1.935.323.43.646zm-11.499-81.869l-1.182.216-.323.754 1.935-.323-.43-.647zm9.457 82.085l1.182-.108.323-.754-1.935.215.43.647zm-7.415-82.3l-1.182.108-.323.754 1.935-.216-.43-.646zm5.266 82.515l1.29-.108.322-.754-1.934.108.322.754zm-3.117-82.73l-1.289.107-.323.754 1.935-.107-.323-.754zm1.075 82.73h1.29l.322-.754h-1.934l.322.754zm.967-82.73h-1.182l-.43.754h2.042l-.43-.754zm2.257.107l-1.29-.107-.43.754 2.042.107-.322-.754zm-5.481 82.515l1.29.108.43-.754-2.042-.108.322.754zm7.523-82.299l-1.29-.108-.322.646 1.934.216-.322-.754zm-9.565 82.084l1.29.108.43-.647-2.042-.215.322.754zm11.607-81.869l-1.182-.108-.43.647 1.934.215-.322-.754zm-13.649 81.546l1.182.215.538-.646-2.042-.216.322.647zm15.691-81.115l-1.182-.215-.538.646 1.935.323-.215-.754zm-17.732 80.792l1.182.215.537-.646-1.934-.324.215.755zm19.773-80.253l-1.182-.324-.537.539 1.934.539-.215-.754zm-21.815 79.714l1.182.323.537-.538-1.934-.539.215.754zm23.857-79.176l-1.182-.323-.537.539 1.827.646-.108-.862z" fill="#263238"/><path d="M254.372 265.057l1.182.323.645-.538-1.934-.646.107.861zm27.834-77.883l-1.182-.431-.538.539 1.827.646-.107-.754zm-29.768 77.129l1.182.431.537-.538-1.827-.647.108.754zm31.702-76.375l-1.182-.431-.538.539 1.72.754v-.862zm-33.637 75.621l1.182.431.537-.538-1.719-.754v.861zm35.571-74.651l-1.182-.539-.644.431 1.826.862v-.754zm-37.398 73.682l1.075.538.645-.431-1.827-.861.107.754zm39.225-72.713l-1.182-.646-.645.539 1.72.861.107-.754zm-41.159 71.743l1.182.647.645-.539-1.72-.862-.107.754zm42.879-70.665l-1.075-.647-.645.431 1.72.97v-.754zm-44.599 69.588l1.075.646.645-.431-1.612-.969-.108.754zm46.211-67.649l.107-.754-.967-.755-.752.431 1.612 1.078zm-47.823 65.71l-.107.754.967.754.752-.431-1.612-1.077zm49.435-64.418l.215-.754-1.075-.754-.645.323 1.505 1.185zm-51.047 63.125l-.215.754 1.075.755.645-.324-1.505-1.185zm52.659-61.832l.215-.754-.968-.754-.752.215 1.505 1.293zm-54.27 60.54l-.215.754.967.754.752-.216-1.504-1.292zm55.774-59.14l.215-.754-.967-.862-.752.324 1.504 1.292zm-57.279 57.632l-.215.861.967.862.752-.323-1.504-1.4zm58.676-56.124l.215-.754-.86-.861-.752.215 1.397 1.4zM237.285 253.1l-.215.754.86.862.752-.215-1.397-1.401zm61.363-53.107l.322-.754-.752-.969-.86.215 1.29 1.508zm-62.653 51.491l-.322.754.86.97.752-.216-1.29-1.508zm63.943-49.875l.322-.754-.752-.97-.753.108 1.183 1.616zm-65.232 48.26l-.323.754.753.969.752-.108-1.182-1.615zm66.414-46.644l.322-.646-.645-1.078-.752.108 1.075 1.616zm-67.596 45.028l-.323.646.645 1.077.86-.107-1.182-1.616zm68.67-43.197l.43-.754-.645-1.077-.859.108 1.074 1.723zm-69.745 41.365l-.43.754.645 1.078.86-.108-1.075-1.724zm70.712-39.641l.538-.647-.645-1.077h-.752l.859 1.724zm-71.679 37.918l-.538.646.645 1.077h.86l-.967-1.723zm72.647-36.087l.43-.646-.538-1.078h-.752l.86 1.724zm-73.615 34.256l-.43.646.538 1.077h.752l-.86-1.723zm74.367-32.317l.537-.646-.43-1.185h-.86l.753 1.831zm-75.119 30.378l-.537.646.43 1.077.86.108-.753-1.831zm75.871-28.439l.537-.646-.429-1.185h-.753l.645 1.831zm-76.623 26.5l-.537.646.43 1.185h.752l-.645-1.831zm77.268-24.561l.537-.539-.322-1.185-.86-.215.645 1.939zm-77.913 22.622l-.537.538.322 1.185.86.216-.645-1.939zm78.45-20.683l.537-.431-.322-1.293-.752-.107.537 1.831zm-78.987 18.744l-.537.43.322 1.293.752.108-.537-1.831zm79.417-16.697l.538-.539-.215-1.185-.753-.215.43 1.939zm-79.847 14.65l-.537.539.215 1.185.752.215-.43-1.939zm80.17-12.604l.644-.43-.215-1.293-.752-.216.323 1.939zm-80.493 10.557l-.644.431.215 1.293.752.215-.323-1.939zm80.707-8.51l.645-.431-.107-1.292-.753-.216.215 1.939zm-80.921 6.463l-.645.431.107 1.293.753.215-.215-1.939zm81.029-4.416l.644-.431-.107-1.185-.645-.323.108 1.939zm-81.137 2.37l-.645.431.108 1.185.645.323-.108-1.939z" fill="#263238"/><path d="M306.466 235.33c5.323-21.663-7.88-43.55-29.492-48.887-21.611-5.336-43.447 7.899-48.77 29.562-5.324 21.663 7.88 43.55 29.491 48.887 21.611 5.337 43.447-7.899 48.771-29.562z" fill="#999" stroke="#263238" stroke-miterlimit="10" stroke-linecap="round" stroke-linejoin="round"/><path d="M304.68 234.919c5.087-20.679-7.513-41.575-28.142-46.674-20.63-5.099-41.477 7.531-46.564 28.21-5.087 20.678 7.513 41.575 28.143 46.674 20.63 5.099 41.477-7.531 46.563-28.21z" fill="#BFBFBF" stroke="#263238" stroke-miterlimit="10" stroke-linecap="round" stroke-linejoin="round"/><path opacity=".3" d="M299.429 231.086c2.973-17.778-8.994-34.605-26.73-37.585-17.735-2.98-34.523 9.016-37.495 26.794-2.973 17.778 8.995 34.605 26.73 37.585 17.735 2.98 34.523-9.016 37.495-26.794z" fill="#000" fill-opacity=".7"/><path d="M296.908 233.294c4.183-16.368-5.662-33.035-21.99-37.229-16.328-4.194-32.957 5.675-37.14 22.042-4.184 16.368 5.661 33.035 21.99 37.229 16.328 4.194 32.956-5.675 37.14-22.042z" fill="#BFBFBF" stroke="#263238" stroke-miterlimit="10" stroke-linecap="round" stroke-linejoin="round"/><path d="M290.271 231.41c3.145-12.703-4.578-25.556-17.25-28.709-12.672-3.153-25.495 4.588-28.64 17.291-3.146 12.702 4.577 25.555 17.249 28.708 12.672 3.153 25.495-4.588 28.641-17.29z" fill="#757575" stroke="#263238" stroke-miterlimit="10" stroke-linecap="round" stroke-linejoin="round"/><path d="M302.731 252.777l-3.439 3.986-3.438-1.616 4.728-5.494 2.149 3.124z" fill="#BFBFBF" stroke="#263238" stroke-miterlimit="10" stroke-linecap="round" stroke-linejoin="round"/><g opacity=".3" fill="#000"><path opacity=".3" d="M253.405 200.209l.322.538.43 3.124 1.075-.646.322.539-1.612.969-.322-.539-.43-3.123-.967.538-.323-.538 1.505-.862zm.967.538c-.323-.538-.108-1.077.43-1.292.537-.324 1.074-.108 1.289.538l.967 1.939c.323.539.108 1.077-.43 1.293-.537.323-1.074.108-1.289-.539l-.967-1.939zm1.504 1.724c.108.215.323.323.43.215.215-.107.215-.215.108-.538l-.968-1.939c-.107-.216-.322-.323-.43-.216-.214.108-.214.216-.107.539l.967 1.939zm.753-2.801c-.215-.646 0-1.077.537-1.293.537-.215 1.075 0 1.29.647l.752 1.939c.215.646 0 1.077-.537 1.292-.538.216-1.075 0-1.29-.646l-.752-1.939zm1.289 1.831c.108.324.215.324.43.216.215-.108.323-.216.215-.539l-.752-2.047c-.108-.323-.215-.323-.43-.215-.215.108-.322.215-.215.539l.752 2.046zm2.794-1.185l-.322-2.908.86-.215 1.074 3.985-.537.108-.752-2.801.322 2.909-.537.107-1.182-2.693.752 2.801-.538.108-.967-3.986.86-.215.967 2.8zm2.365-3.447l.644-.107.43 3.447 1.075-.108.107.539-1.719.215-.537-3.986z"/><path opacity=".3" d="M265.978 198.377h.86v.539h-.86v1.185h1.075v.539l-1.719.107-.215-4.093 1.719-.108v.539h-1.075l.215 1.292zm2.15-.646l-.108 2.909h-.537l.215-4.094h.752l.537 2.478.108-2.478h.537l-.215 4.094h-.644l-.645-2.909zm3.116-.862c.645.108.86.539.752 1.185v.108l-.644-.108v-.215c0-.323-.108-.431-.215-.431-.215 0-.323.108-.323.323 0 .323.108.539.43.97.43.538.538.861.538 1.4-.108.646-.43.969-1.075.862-.645-.108-.86-.539-.752-1.185v-.216l.644.108v.323c0 .323.108.431.323.431.215 0 .322-.108.43-.323 0-.323-.108-.539-.43-.97-.43-.538-.538-.861-.538-1.4-.107-.646.215-.969.86-.862zm3.224 4.956c-.645-.216-.86-.647-.645-1.293l.108-.323c.107-.323.322-.647.645-.647-.215-.215-.215-.538-.108-.861v-.108c.215-.646.645-.862 1.29-.646.644.215.859.646.644 1.292v.108c-.107.431-.322.646-.644.646.215.216.215.539.107.97l-.107.323c-.215.431-.645.646-1.29.539zm.108-.647c.214.108.322 0 .429-.323l.108-.323c.107-.323 0-.431-.215-.539-.215-.107-.43 0-.43.323l-.107.324c-.108.43.107.538.215.538zm.322-2.262c-.108.323 0 .431.215.539.215.107.322 0 .43-.324l.107-.215c.108-.323 0-.539-.215-.539-.215-.107-.322 0-.43.324l-.107.215zm1.612 2.801l-.215.538-.537-.215.215-.539.537.216zm.967 1.185c-.537-.216-.752-.754-.537-1.293l.107-.323c.108-.323.43-.539.753-.646-.215-.216-.215-.539 0-.862v-.108c.214-.646.752-.754 1.289-.539.537.216.752.755.537 1.293v.108c-.214.323-.429.538-.644.538.215.216.215.539 0 .97l-.108.323c-.322.646-.752.754-1.397.539zm.215-.539c.215.108.322 0 .537-.323l.108-.323c.107-.323.107-.431-.108-.539-.215-.108-.429 0-.537.323l-.107.324c-.108.323 0 .43.107.538zm.645-2.262c-.108.323 0 .431.107.539.215.107.323 0 .538-.216l.107-.215c.108-.323 0-.539-.107-.539-.215-.108-.323-.108-.538.323l-.107.108zm2.256 1.723l.968.539-.323.539-.967-.539.322-.539zm3.655 1.509c.215-.324.215-.431 0-.539-.215-.108-.323-.108-.538.108l-.107.215-.538-.323.108-.216c.43-.538.86-.646 1.397-.215.537.323.537.862.107 1.4l-.107.108c-.215.323-.537.431-.86.431.215.323.108.646-.107.97l-.215.215c-.43.539-.86.646-1.397.215-.538-.323-.538-.861-.108-1.4l.215-.323.538.323-.215.323c-.215.216-.108.431 0 .539.215.108.322.108.537-.216l.215-.215c.215-.323.215-.539 0-.646l-.215-.108.322-.431.215.108c.215.107.323.107.538-.108l.215-.215zm.967.646c.429-.539.967-.539 1.397-.108.43.431.43.862 0 1.401l-.108.107-.43-.431.108-.107c.215-.216.215-.431 0-.539-.215-.108-.323-.108-.645.108l-.537.538c.215-.107.43-.107.644.108.323.323.323.754-.107 1.185l-.537.539c-.43.538-.967.538-1.397.107-.43-.43-.43-.969 0-1.4l1.612-1.508zm-.538 1.508l-.537.539c-.215.215-.215.431 0 .538.107.108.322.108.537-.107l.538-.539c.215-.215.215-.431 0-.539-.108-.107-.323-.107-.538.108zm.967 2.37l-.429.431-.43-.431.43-.431.429.431zm.43 1.4c-.429-.538-.322-.969.108-1.4l.215-.215c.322-.216.537-.324.86-.216-.108-.323 0-.539.322-.862l.107-.107c.538-.431.968-.431 1.397.107.43.539.323.97-.107 1.401l-.107.107c-.323.216-.538.324-.86.216.107.323-.108.646-.323.862l-.215.215c-.429.431-.967.431-1.397-.108zm.43-.323c.108.108.323.216.538 0l.322-.215c.215-.216.215-.431.107-.539-.107-.215-.322-.215-.537 0l-.322.216c-.215.215-.215.323-.108.538zm1.505-1.831c-.215.215-.215.431-.108.539.108.107.323.215.538 0l.215-.108c.322-.216.215-.431.107-.539-.107-.108-.322-.215-.537 0l-.215.108zm.645 3.555l2.579-1.293.537.754-3.224 2.37-.322-.539 2.364-1.723-2.579 1.4-.323-.538 2.042-2.047-2.364 1.723-.322-.43 3.223-2.37.538.754-2.149 1.939zm1.719 2.693l2.794-.97.43.754-3.547 1.939-.322-.538 2.579-1.401-2.794.97-.322-.539 2.256-1.723-2.579 1.4-.215-.539 3.547-1.938.43.754-2.257 1.831zm3.546 1.939c.215.431.43.431.753.431l.107.431-3.761 1.4-.215-.646 2.901-1.078-.215-.43.43-.108zm-1.934 3.339l-.538.216-.215-.539.538-.215.215.538zm2.042-.538l-.538.215-.215-.539.538-.215.215.539zm.967.754c.108.43.322.538.645.538l.107.431-3.976.862-.107-.646 3.009-.647-.108-.431.43-.107zm-2.364 3.124l-.645.107-.108-.646.645-.108.108.647zm-.43 1.4c-.107-.646.322-1.077.967-1.077h.323c.43 0 .644 0 .859.323.108-.323.323-.431.753-.431h.107c.645-.108 1.075.215 1.075.862.107.646-.323 1.077-.967 1.077h-.108c-.43 0-.645-.108-.86-.323-.107.323-.429.431-.752.431h-.322c-.645.107-1.075-.216-1.075-.862zm.537-.108c0 .216.108.323.538.323h.322c.323 0 .43-.215.43-.43 0-.216-.215-.324-.537-.324h-.323c-.322.108-.43.216-.43.431zm2.257-.538c-.322 0-.43.215-.43.431 0 .215.108.323.43.323h.215c.323 0 .43-.216.43-.431 0-.216-.107-.323-.537-.323h-.108zm-.322 2.8v1.185h-.538v-1.185h.538zm.967 3.663c0-.215-.108-.323-.323-.323h-.43l.108-.647h.43c.644.108.967.431.859 1.078-.107.646-.429.861-1.074.861-.538-.107-.967-.323-1.505-.969-.322-.431-.537-.539-.752-.539h-.107l-.108 1.185-.537-.107.215-1.832.537.108c.43 0 .752.215 1.182.754.43.539.752.754 1.182.754.215 0 .323-.108.323-.323zm-3.224 1.616l-.645-.108.107-.646.645.107-.107.647zm-.967 1.185c.107-.647.645-.862 1.182-.754l.322.107c.323.108.645.324.753.539a.833.833 0 01.859-.215h.108c.645.107.859.646.752 1.184-.107.647-.645.862-1.182.755h-.108c-.429-.108-.644-.324-.644-.539-.215.215-.538.323-.86.215l-.322-.107c-.753-.216-.968-.647-.86-1.185zm.645.107c0 .216 0 .324.322.431l.322.108c.323.108.43 0 .538-.215.107-.216 0-.431-.323-.431l-.322-.108c-.43-.108-.537 0-.537.215zm2.256.216c-.322-.108-.429 0-.537.215 0 .216 0 .323.322.431l.215.108c.323.108.538 0 .538-.216 0-.215 0-.323-.323-.43l-.215-.108zm-21.386 20.252l-.859.215-.108-.538.86-.216-.215-1.185-1.075.216-.107-.539 1.719-.323.86 3.986-1.719.323-.108-.539 1.075-.215-.323-1.185zm-2.041.969l-.323-2.908.538-.108.429 3.986-.752.107-.86-2.37.323 2.37-.538.108-.429-3.986.644-.107.968 2.908zm-2.902 1.401c-.645 0-.967-.324-.967-.97v-.108h.645v.216c0 .323.107.431.322.431.215 0 .322-.108.322-.431s-.107-.539-.537-.862c-.537-.431-.752-.754-.752-1.293 0-.646.322-1.077.967-1.077s.967.323.967.97v.215h-.645v-.323c0-.323-.107-.431-.322-.431-.215 0-.322.108-.322.431s.107.539.537.862c.537.431.752.754.752 1.292 0 .647-.322 1.078-.967 1.078zm-3.869-4.417c.645.108.967.539.86 1.185v.323c0 .431-.215.646-.537.754.215.216.322.431.322.862v.108c-.107.646-.537.969-1.075.861-.644-.107-.967-.538-.859-1.185v-.107c0-.431.215-.647.537-.754-.215-.216-.322-.539-.322-.862v-.323c0-.647.429-.97 1.074-.862zm-.107 2.908c0-.323-.108-.43-.323-.43-.215 0-.322.107-.429.43v.216c0 .323.107.431.322.538.215 0 .322 0 .43-.43v-.324zm0-2.369c-.215 0-.323 0-.43.43v.324c0 .323.107.43.322.538.215 0 .323-.108.43-.431v-.323c0-.323-.107-.431-.322-.538zm-1.935-.216l.108-.646.645.108-.108.646-.645-.108zm-1.182-.969c.645.215.86.646.753 1.292l-.108.323c-.107.324-.322.647-.645.754.215.216.323.539.215.862v.108c-.215.646-.644.862-1.182.754-.645-.215-.859-.646-.752-1.293v-.107c.107-.431.322-.647.537-.647-.215-.215-.215-.538-.215-.969l.108-.323c.215-.647.645-.862 1.289-.754zm-.322 2.908c.108-.323 0-.431-.215-.539-.215 0-.322 0-.43.324l-.107.215c-.108.323 0 .539.215.539s.322 0 .43-.323l.107-.216zm.215-2.262c-.215 0-.322 0-.43.323l-.107.323c-.108.323 0 .431.215.539.215.108.429 0 .429-.323l.108-.323c.107-.431 0-.539-.215-.539zm-2.794.969l-1.075-.43.215-.539 1.075.431-.215.538zm-3.869-.861c-.215.323-.108.431.107.538.215.108.323 0 .43-.215l.108-.216.537.324-.108.215c-.322.539-.752.754-1.289.431-.537-.323-.645-.754-.43-1.293v-.108c.215-.43.43-.538.752-.538-.215-.323-.215-.539 0-.97l.108-.323c.322-.538.752-.754 1.289-.431.538.323.645.754.43 1.293l-.107.323-.538-.323.215-.323c.108-.216.108-.431-.107-.539-.215-.107-.323-.107-.537.216l-.108.323c-.215.323-.107.538.108.646l.214.108-.214.538-.215-.107c-.215-.108-.43-.108-.538.215l-.107.216z"/><path opacity=".3" d="M253.19 249.976c-.323.539-.86.754-1.397.323-.538-.323-.645-.861-.215-1.4l.107-.108.538.324-.108.107c-.107.216-.107.431.108.539.214.108.322.108.537-.216l.43-.646a.683.683 0 01-.645 0c-.43-.215-.43-.646-.108-1.185l.43-.646c.323-.539.86-.647 1.397-.323.538.323.645.861.323 1.4l-1.397 1.831zm.215-1.508l.43-.646c.107-.216.107-.431-.108-.539-.215-.107-.322-.107-.537.108l-.43.646c-.108.216-.108.431.107.539.215.215.323.215.538-.108zm-1.397-2.154l.322-.539.538.323-.323.539-.537-.323zm-.645-1.293c.537.431.537.97.107 1.401l-.214.215c-.215.323-.538.431-.86.431.107.323 0 .538-.215.862l-.108.107c-.429.539-.967.539-1.397.108-.537-.431-.537-.969-.107-1.4l.107-.108c.215-.323.538-.431.86-.323a.84.84 0 01.215-.862l.215-.215c.43-.647.967-.647 1.397-.216zm-1.505 2.37c.215-.215.108-.431 0-.539-.107-.107-.322-.107-.537.108l-.107.216c-.215.323-.215.43 0 .538.107.108.322.108.537-.108l.107-.215zm1.183-1.939c-.108-.108-.323-.108-.538.108l-.215.323c-.215.215-.215.431 0 .539.215.107.323.107.538-.108l.215-.323c.215-.216.107-.431 0-.539zm-2.472-1.4l-2.365 1.723-.644-.646 2.901-2.801.43.431-2.042 2.047 2.364-1.724.43.431-1.719 2.37 2.042-2.047.43.431-2.902 2.801-.645-.647 1.72-2.369zm-2.042-2.37l-2.58 1.4-.537-.754 3.224-2.478.323.431-2.257 1.724 2.579-1.4.322.43-2.042 2.155 2.257-1.724.323.431-3.224 2.478-.538-.754 2.15-1.939zm-3.761-1.401c-.215-.431-.538-.431-.753-.323l-.215-.323 3.547-2.047.322.539-2.687 1.508.215.431-.429.215zm-.645-2.693l.537-.215.215.538-.537.216-.215-.539zm2.041-.969l.538-.216.215.539-.538.215-.215-.538zm-3.116.323c-.215-.431-.43-.431-.752-.431l-.215-.431 3.761-1.508.215.539-2.901 1.185.215.43-.323.216zm1.827-3.447l.537-.216.215.539-.537.215-.215-.538zm.322-1.401c.215.647-.107 1.078-.752 1.185l-.322.108c-.323.108-.645.108-.86-.215-.107.323-.322.538-.645.538h-.107c-.645.216-1.075-.107-1.29-.754-.215-.646.108-1.077.752-1.185h.108c.43-.107.645 0 .86.216.107-.323.322-.539.752-.647l.322-.107c.538 0 .967.215 1.182.861zm-2.686 1.078c.322-.108.43-.216.322-.431 0-.216-.215-.323-.537-.216l-.215.108c-.323.108-.43.323-.323.431 0 .215.215.323.538.215l.215-.107zm2.149-.97c0-.215-.215-.323-.537-.215l-.323.107c-.322.108-.43.216-.322.431.107.216.215.323.537.216l.323-.108c.322-.108.322-.215.322-.431zm-2.257-1.831l-.214-1.185.537-.108.215 1.185-.538.108zm-1.612-3.555c0 .215.108.323.43.323h.43v.647h-.43c-.645 0-1.074-.324-1.074-.862 0-.647.322-.97.967-.97.537 0 .967.108 1.612.754.43.323.645.431.859.431h.108v-1.185h.537l.108 1.832h-.538c-.429 0-.752-.108-1.289-.539-.538-.431-.86-.646-1.29-.539-.322-.215-.43-.107-.43.108zm2.902-2.047h.645v.647h-.645v-.647zm.752-1.292c-.107.646-.43.969-1.075.861h-.322c-.43 0-.645-.215-.752-.43-.215.215-.43.323-.86.323h-.107c-.645-.108-.968-.431-.968-1.078.108-.646.43-.969 1.075-.861h.107c.43 0 .645.215.753.431.215-.216.537-.324.859-.324h.323c.752 0 1.075.431.967 1.078zm-2.902.107c.323 0 .43-.107.43-.323 0-.215-.107-.323-.43-.431h-.214c-.323 0-.43.108-.538.323 0 .216.108.324.43.431h.322zm2.365-.107c0-.216-.108-.324-.43-.431h-.323c-.322 0-.429.107-.537.323 0 .215.108.323.43.431h.322c.43 0 .538-.216.538-.323z"/></g><path d="M287.364 217.66v16.158c0 4.201-3.439 7.648-7.63 7.648h-24.61c-4.191 0-7.63-3.447-7.63-7.648V217.66c0-4.202 3.439-7.649 7.63-7.649h24.717c4.084 0 7.523 3.447 7.523 7.649z" fill="#757575" stroke="#263238" stroke-miterlimit="10" stroke-linecap="round" stroke-linejoin="round"/><path opacity=".3" d="M287.364 217.66v16.158c0 4.201-3.439 7.648-7.63 7.648h-24.61c-4.191 0-7.63-3.447-7.63-7.648V217.66c0-4.202 3.439-7.649 7.63-7.649h24.717c4.084 0 7.523 3.447 7.523 7.649z" fill="#000" fill-opacity=".7"/><path opacity=".3" d="M275.758 210.011h-4.729c7.093 1.724 12.466 8.08 12.466 15.728s-5.373 14.111-12.466 15.727h4.729c5.588-3.016 9.457-8.941 9.457-15.727 0-6.787-3.869-12.711-9.457-15.728zm-12.144 0h-4.728a17.839 17.839 0 00-9.35 15.728 17.727 17.727 0 009.457 15.727h4.729c-7.093-1.616-12.466-8.079-12.466-15.727-.108-7.648 5.265-14.112 12.358-15.728z" fill="#000" fill-opacity=".7"/><path opacity=".3" d="M267.375 211.52c-7.845 0-14.185 6.355-14.185 14.219 0 7.864 6.34 14.219 14.185 14.219 7.845 0 14.186-6.355 14.186-14.219-.108-7.864-6.448-14.219-14.186-14.219zm0 25.745c-6.34 0-11.498-5.171-11.498-11.526 0-6.356 5.158-11.526 11.498-11.526 6.341 0 11.499 5.17 11.499 11.526-.107 6.355-5.266 11.526-11.499 11.526z" fill="#000" fill-opacity=".7"/><path d="M267.375 233.71c4.392 0 7.953-3.569 7.953-7.971 0-4.403-3.561-7.972-7.953-7.972s-7.952 3.569-7.952 7.972c0 4.402 3.56 7.971 7.952 7.971z" fill="#263238"/><path d="M267.376 237.804c6.647 0 12.036-5.402 12.036-12.065 0-6.663-5.389-12.065-12.036-12.065-6.648 0-12.037 5.402-12.037 12.065 0 6.663 5.389 12.065 12.037 12.065z" stroke="#263238" stroke-miterlimit="10" stroke-linecap="round" stroke-linejoin="round"/><path d="M283.495 225.739c0 7.648-5.266 14.111-12.466 15.727h-7.415c-7.093-1.723-12.466-8.079-12.466-15.727s5.266-14.112 12.466-15.728h7.415c7.093 1.616 12.466 8.08 12.466 15.728z" stroke="#263238" stroke-miterlimit="10" stroke-linecap="round" stroke-linejoin="round"/><path d="M287.364 225.739c0 6.355-3.009 12.065-7.63 15.727h-24.61c-4.621-3.662-7.63-9.372-7.63-15.727 0-6.356 3.009-12.065 7.63-15.728h24.717c4.514 3.663 7.523 9.372 7.523 15.728z" stroke="#263238" stroke-miterlimit="10" stroke-linecap="round" stroke-linejoin="round"/><path d="M322.613 190.298h-14.831c-.752 0-1.397-.646-1.397-1.4v-3.77c0-.754.645-1.401 1.397-1.401h14.831c.752 0 1.397.647 1.397 1.401v3.77c0 .754-.645 1.4-1.397 1.4z" fill="#BFBFBF" stroke="#263238" stroke-miterlimit="10" stroke-linecap="round" stroke-linejoin="round"/><path d="M315.735 187.497h-7.523a.848.848 0 01-.859-.861v-.862c0-.431.322-.862.859-.862h7.523c.43 0 .86.323.86.862v.862c0 .431-.323.861-.86.861zm3.654 0h-1.075a.848.848 0 01-.86-.861v-.862c0-.431.323-.862.86-.862h1.075c.429 0 .859.323.859.862v.862c0 .431-.43.861-.859.861z" fill="#fff"/><path d="M233.094 192.453h-6.985c-.86 0-1.505-.647-1.505-1.508v-3.34c0-.862.645-1.508 1.505-1.508h6.985c.86 0 1.504.646 1.504 1.508v3.34c0 .861-.644 1.508-1.504 1.508z" fill="#263238"/><path opacity=".2" d="M232.986 191.914h-5.051a.964.964 0 01-.967-.969v-2.37c0-.539.43-.97.967-.97h5.051c.538 0 .968.431.968.97v2.37c0 .538-.43.969-.968.969z" fill="#fff"/><path d="M497.03 305.238c-4.299-4.74-13.649-8.51-16.765-15.943-1.72-3.986-4.299-6.463-6.233-7.864-1.827-1.292-3.224-2.908-4.191-4.847-2.902-5.925-8.275-11.311-15.26-21.222-8.275-11.741-11.929-21.759-14.831-25.314-3.009-3.663-10.854-10.018-10.854-10.018-3.224-7.864-7.2-10.665-7.2-10.665s-4.943-9.372-9.027-12.819c-4.084-3.447-9.35-3.662-14.83-3.447-5.481.216-17.517-2.585-17.517-2.585s-17.947-4.094-24.18-4.094h-13.003s-3.654.862-5.266 3.447c-1.72 2.586-13.004 20.898-15.69 28.762-2.794 7.864-3.439 12.388-2.365 16.589 1.075 4.309 3.654 13.681 3.654 13.681s5.911 17.667 6.126 20.036c.215 2.37 13.433 4.525 13.863-6.571 0 0 1.719 6.787 4.299 11.096 2.579 4.309 9.994 2.37 11.284.431 0 0 5.05 13.034 5.48 16.158.43 3.232 5.266 3.447 8.06.646 2.794-2.8 5.051-12.603 3.439-17.451 0 0 11.069-12.388 13.218-19.821 0 0 12.681-2.585 14.186-1.4 0 0 .43 3.663 3.439 5.925 0 0 7.63 18.313 7.415 43.627 0 0 6.34 27.038 35.893 27.9 29.554.862 37.614 19.175 37.614 19.175l22.245-33.286c-.215 0-8.812-5.494-13.003-10.126zm-122.296-72.066c-2.365 3.016-6.556 8.51-9.565 14.327-1.29 2.477-2.902 5.494-4.406 8.402 0 0-.967-6.463-2.042-7.864 0 0 7.845-21.436 8.49-22.729h11.499c3.654 0 9.134-.862 11.069 1.077-2.902.862-12.681 3.878-15.045 6.787z" fill="#fff"/><path opacity=".4" d="M416.538 276.691c-1.397 2.693-2.579 4.956-3.654 6.895-2.042-15.512-6.341-25.638-6.341-25.638-3.009-2.262-3.438-5.925-3.438-5.925-1.505-1.185-14.186 1.4-14.186 1.4-2.149 7.433-13.218 19.821-13.218 19.821 1.719 4.848-.645 14.65-3.439 17.451s-7.63 2.586-8.06-.646c-.43-3.232-5.481-16.158-5.481-16.158-1.289 1.939-8.705 3.878-11.284-.431-2.579-4.309-4.298-11.096-4.298-11.096-.43 11.096-13.649 8.941-13.863 6.571-.215-2.369-6.126-20.036-6.126-20.036s-2.579-9.372-3.654-13.681c-.107-.323-.107-.538-.215-.861 2.794 1.185 6.448 2.262 9.35 1.508 5.373-1.401 15.045-32.101 17.517-36.949 2.579-4.847 10.316-7.325 12.358-6.894 2.042.431 21.386 3.986 21.386 3.986s-18.377-1.832-20.526-.647c-2.149 1.185-6.555 4.094-7.523 5.063-.967.97-15.797 38.134-15.797 38.134s-1.397 7.325 5.588 9.372c6.985 2.046 12.144-.216 12.144-.216s9.349-22.406 8.812-24.345c-.537-1.939 4.728-7.11 4.728-7.11s11.177 3.986 16.228 4.094c5.158.107 14.938-2.478 15.905 3.016 0 0-13.004 3.555-19.237 5.925 3.547-1.508 7.63-2.801 9.35-3.232-1.934-1.939-7.415-1.077-11.069-1.077h-11.499c-.645 1.292-8.49 22.729-8.49 22.729 1.075 1.401 2.042 7.864 2.042 7.864 1.505-2.909 3.117-5.925 4.406-8.402 3.009-5.817 7.2-11.311 9.565-14.327.537-.755 1.612-1.509 2.901-2.155-2.901 2.155-18.269 27.469-19.129 29.731-.859 2.263 3.332 10.557 9.135 10.234 5.803-.323 20.096-21.975 20.096-21.975s15.26-.108 19.451-2.801c4.192-2.585 5.911 0 5.911 0s-3.117 3.232-1.719 4.632c1.397 1.4 7.737-1.4 8.704-1.831-1.074.646-9.779 5.278-9.564 6.678.322 1.509 7.737 6.571 11.606 6.141 0 0-6.77 3.662-8.812 3.339-1.72.215 7.308 4.417 3.439 11.849zm5.051-67.326c-1.182-2.154-6.556-8.187-14.938-8.618-6.878-.323-1.719-5.386 5.588-4.416l.323.323c4.083 3.339 9.027 12.711 9.027 12.711zm7.2 10.665c-3.761-1.293-8.06-1.616-10.102-1.616-1.289 0 2.902-3.34 6.771-4.74a34.116 34.116 0 013.331 6.356zm75.871 91.779c-8.06-2.801-21.708-6.571-23.965-13.789-2.579-8.187-7.093-7.432-9.672-10.664-2.364-3.016-2.257-12.496-6.448-18.528 2.15 2.8 3.869 5.17 5.051 7.756.967 1.939 2.364 3.662 4.191 4.847 2.042 1.401 4.621 3.878 6.233 7.864 3.224 7.433 12.574 11.311 16.765 15.943 2.257 2.262 5.266 4.632 7.845 6.571z" fill="#F95151" fill-opacity=".32"/><path d="M387.737 195.9c-3.869.862-22.353-.431-24.395-.862-2.149-.431-8.275 1.939-10.209 4.094-1.934 2.154-17.409 39.641-17.409 42.442 0 2.801 2.579 8.295 3.653 10.557 1.075 2.262 3.977 10.341 3.977 10.341" stroke="#263238" stroke-miterlimit="10" stroke-linecap="round" stroke-linejoin="round"/><path d="M509.818 315.364s-8.597-5.494-12.896-10.234c-4.298-4.74-13.648-8.51-16.764-15.943-1.72-3.985-4.299-6.463-6.233-7.864-1.827-1.292-3.224-2.908-4.192-4.847-2.901-5.925-8.275-11.311-15.26-21.221-8.275-11.742-11.928-21.76-14.83-25.315-3.009-3.662-10.854-10.018-10.854-10.018-3.224-7.864-7.2-10.665-7.2-10.665s-4.944-9.371-9.027-12.819c-4.084-3.447-9.35-3.662-14.831-3.447-5.481.216-17.517-2.585-17.517-2.585s-17.946-4.093-24.18-4.093h-13.003s-3.654.861-5.266 3.447c-1.719 2.585-13.003 20.898-15.69 28.762-2.794 7.863-3.439 12.388-2.364 16.589 1.075 4.309 3.654 13.68 3.654 13.68s5.911 17.667 6.125 20.037c.215 2.37 13.434 4.524 13.864-6.571 0 0 1.719 6.786 4.298 11.095 2.579 4.309 9.994 2.37 11.284.431 0 0 5.051 13.034 5.481 16.158.43 3.232 5.266 3.447 8.06.647 2.794-2.801 5.051-12.604 3.439-17.451 0 0 11.069-12.388 13.218-19.821 0 0 12.681-2.586 14.185-1.401 0 0 .43 3.663 3.439 5.925 0 0 3.224 7.648 5.374 19.821 1.182 6.679-1.182 18.313 5.158 27.038" stroke="#263238" stroke-miterlimit="10" stroke-linecap="round" stroke-linejoin="round"/><path d="M358.829 273.891s-1.72-6.356-1.72-8.941c0-2.586 5.051-11.742 8.06-17.451 3.009-5.709 7.201-11.311 9.565-14.327s12.143-5.925 15.045-6.787c3.009-.861 10.962-2.585 13.326-4.309" stroke="#263238" stroke-miterlimit="10" stroke-linecap="round" stroke-linejoin="round"/><path d="M360.87 255.793s-.967-6.463-2.041-7.863c0 0 7.845-21.437 8.489-22.73.645-1.292 0-5.278 0-5.278" stroke="#263238" stroke-miterlimit="10" stroke-linecap="round" stroke-linejoin="round"/><path d="M367.318 225.308h11.499c3.654 0 9.135-.862 11.069 1.077m13.326 25.638s7.308-1.185 11.284-7.756m-10.102 7.541c4.514 3.339 18.054-1.078 24.395-8.51m-22.138 14.65s12.788 6.463 21.063 3.016" stroke="#263238" stroke-miterlimit="10" stroke-linecap="round" stroke-linejoin="round"/><path d="M.752 299.529l18.27 35.763s9.242-17.774 38.795-16.589c29.553 1.185 37.72-25.422 37.72-25.422 1.505-25.315 10.317-42.981 10.317-42.981 3.117-2.047 3.869-5.71 3.869-5.71 1.612-1.077 14.078 2.37 14.078 2.37 1.612 7.541 11.821 20.683 11.821 20.683-2.042 4.74-.322 14.758 2.257 17.666 2.579 2.909 7.415 3.016 8.06-.108.645-3.123 6.555-15.835 6.555-15.835 1.182 2.047 8.49 4.417 11.284.323 2.794-4.093 4.944-10.772 4.944-10.772-.323 11.096 13.003 9.803 13.325 7.541.323-2.37 7.523-19.606 7.523-19.606s3.116-9.156 4.513-13.357c1.398-4.201.968-8.726-1.182-16.697-2.256-8.079-12.251-27.038-13.755-29.731-1.505-2.693-5.051-3.771-5.051-3.771s-6.771-.431-12.896-.861c-6.126-.431-24.395 2.369-24.395 2.369s-12.143 1.939-17.624 1.401c-5.481-.539-10.854-.754-15.045 2.37-4.3 3.124-9.887 12.172-9.887 12.172s-4.084 2.478-7.845 10.126c0 0-8.275 5.817-11.5 9.264-3.223 3.447-7.522 13.142-16.549 24.346-7.63 9.479-13.326 14.434-16.657 20.144a11.41 11.41 0 01-4.514 4.524c-2.041 1.293-4.836 3.555-6.77 7.325-3.654 7.217-13.218 10.341-17.84 14.758-4.62 4.417-11.82 8.295-11.82 8.295zm123.909-79.715c2.041-1.831 7.522-.538 11.069-.323 3.653.215 11.498.754 11.498.754.538 1.293 6.986 23.16 6.986 23.16-1.182 1.293-2.58 7.649-2.58 7.649-1.289-3.017-2.686-6.141-3.761-8.618-2.579-5.925-6.448-11.742-8.597-14.866-2.149-3.016-11.714-6.679-14.615-7.756z" fill="#fff"/><path opacity=".4" d="M127.132 220.784c.968.323 2.042.754 3.117 1.292-.967-.431-2.042-.861-3.117-1.292z" fill="#F95151" fill-opacity=".32"/><path opacity=".4" d="M194.084 233.495a3040.423 3040.423 0 01-4.514 13.357s-7.093 17.236-7.523 19.606c-.322 2.37-13.648 3.555-13.325-7.541 0 0-2.15 6.679-4.944 10.773-2.794 4.093-10.102 1.723-11.284-.324 0 0-5.91 12.604-6.555 15.836-.645 3.123-5.481 3.016-8.06.107-2.579-2.908-4.299-12.926-2.257-17.666 0 0-10.209-13.035-11.821-20.683 0 0-12.466-3.447-14.078-2.37 0 0-.752 3.663-3.869 5.71 0 0-4.943 9.91-8.06 25.422-.86-2.262-2.042-4.74-3.224-7.756-3.224-7.648 6.126-11.203 4.084-11.095-2.042.107-8.49-3.986-8.49-3.986 3.869.754 11.606-3.77 12.036-5.171.323-1.4-7.845-6.679-8.92-7.433.968.539 7.093 3.771 8.49 2.478 1.612-1.4-1.397-4.74-1.397-4.74s1.935-2.477 5.803.431c3.977 2.909 19.129 4.201 19.129 4.201s12.681 22.73 18.377 23.376c5.696.754 10.639-7.217 9.887-9.48-.645-2.262-13.326-27.146-16.55-30.808.967.646 1.72 1.4 2.257 2.047 2.149 3.124 6.018 8.941 8.597 14.865 1.075 2.478 2.472 5.71 3.762 8.618 0 0 1.397-6.356 2.579-7.648 0 0-6.448-21.868-6.986-23.16 0 0-7.845-.539-11.498-.755-3.547-.215-9.028-1.4-11.069.324-4.836-1.939-9.35-3.447-9.35-3.447 1.29-5.494 10.962-2.155 16.012-1.832 5.051.323 16.443-2.801 16.443-2.801s4.943 5.602 4.191 7.433c-.752 1.832 6.878 24.884 6.878 24.884s4.943 2.585 12.036 1.077 6.233-8.941 6.233-8.941-11.929-38.133-12.789-39.21c-.859-1.078-5.05-4.202-7.092-5.71-2.042-1.4-20.526-.969-20.526-.969s19.451-2.155 21.6-2.37c2.042-.216 9.672 2.908 11.822 7.864 2.149 5.063 9.457 36.302 14.722 38.133 2.902.862 6.448.216 9.243-.646zm-83.824-40.611c-8.382-.216-14.185 5.386-15.582 7.432 0 0-.108-.107-.108-.215 1.29-2.047 5.803-8.941 9.457-11.526.215-.216.43-.323.753-.539 7.522-.538 12.466 5.063 5.48 4.848zm-13.433 16.697c-1.934-.108-6.233-.216-10.102.861 0 0-.107 0-.107-.107 1.29-2.586 2.579-4.525 3.761-5.925 3.761 1.616 7.845 5.386 6.448 5.171zm-51.799 50.198c-2.686 5.494-3.546 12.173-5.695 14.543-2.794 3.016-7.308 1.831-10.424 9.91-2.365 6.032-12.896 8.833-20.956 10.88 1.612-1.185 3.224-2.478 4.62-3.77 4.514-4.417 14.186-7.541 17.84-14.758 1.934-3.878 4.729-6.14 6.77-7.325 1.827-1.185 3.44-2.693 4.514-4.632.86-1.724 1.934-3.232 3.331-4.848z" fill="#F95151" fill-opacity=".32"/><path d="M168.721 258.917s3.439-7.971 4.729-10.018c1.289-2.154 4.191-7.54 4.299-10.233.107-2.694-12.789-41.258-14.616-43.52-1.719-2.262-7.737-4.955-9.887-4.74-2.149.323-20.633.323-24.394-.754" stroke="#263238" stroke-miterlimit="10" stroke-linecap="round" stroke-linejoin="round"/><path d="M.752 299.529s7.2-3.878 11.822-8.295c4.513-4.417 14.185-7.541 17.839-14.758 1.934-3.878 4.729-6.14 6.77-7.325a12.98 12.98 0 004.514-4.524c3.331-5.71 9.027-10.665 16.657-20.144 9.027-11.096 13.326-20.899 16.55-24.346 3.224-3.447 11.499-9.264 11.499-9.264 3.653-7.648 7.845-10.126 7.845-10.126s5.588-9.048 9.887-12.172c4.298-3.124 9.564-3.016 15.045-2.37 5.481.538 17.624-1.401 17.624-1.401s18.269-2.8 24.395-2.369c6.125.43 12.896.861 12.896.861s3.546 1.078 5.051 3.771c1.504 2.693 11.499 21.652 13.755 29.731 2.257 8.079 2.58 12.603 1.182 16.697a2947.255 2947.255 0 01-4.513 13.357s-7.093 17.236-7.523 19.606c-.322 2.37-13.648 3.555-13.325-7.541 0 0-2.15 6.679-4.944 10.772-2.794 4.094-10.102 1.724-11.284-.323 0 0-5.91 12.604-6.555 15.835-.645 3.124-5.481 3.017-8.06.108-2.579-2.908-4.299-12.926-2.257-17.666 0 0-10.209-13.035-11.821-20.683 0 0-12.466-3.447-14.078-2.37 0 0-.752 3.663-3.869 5.71 0 0-3.654 7.325-6.663 19.389-1.612 6.572-.107 18.313-6.878 26.608" stroke="#263238" stroke-miterlimit="10" stroke-linecap="round" stroke-linejoin="round"/><path d="M152.494 269.366s2.15-6.247 2.257-8.833c.215-2.585-4.299-12.065-6.878-17.989-2.579-5.925-6.448-11.742-8.597-14.866-2.149-3.124-11.714-6.787-14.615-7.864-2.902-1.077-10.747-3.231-13.004-5.17" stroke="#263238" stroke-miterlimit="10" stroke-linecap="round" stroke-linejoin="round"/><path d="M151.742 251.161s1.397-6.355 2.579-7.648c0 0-6.448-21.868-6.985-23.16-.537-1.293.322-5.279.322-5.279" stroke="#263238" stroke-miterlimit="10" stroke-linecap="round" stroke-linejoin="round"/><path d="M147.228 220.245s-7.845-.539-11.498-.754c-3.654-.216-9.028-1.508-11.069.323m-14.938 24.668s-7.201-1.615-10.747-8.51m9.564 8.187c-4.728 3.124-17.946-2.262-23.75-10.126m21.064 16.159s-13.111 5.601-21.17 1.508" stroke="#263238" stroke-miterlimit="10" stroke-linecap="round" stroke-linejoin="round"/><path d="M306.6 407.8l-51.5-.2.7-4.4 2.5-16.9 23.3 1.5s22.8 6.5 24.9 11.6c.2.4.3.8.4 1.2.8 3.5-.3 7.2-.3 7.2z" fill="#485A7E"/><path d="M306.6 407.8l-51.5-.2.7-4.4 51.1-2.6c.8 3.5-.3 7.2-.3 7.2z" fill="#627A9E"/><path d="M156.3 368.7l41 36.7 1.7-3.9 6.7-15.2-19.2-15.5s-21.5-11.1-25.8-8.6c-.3.2-.6.4-.9.7-2.5 2-3.5 5.8-3.5 5.8z" fill="#485A7E"/><path d="M156.3 368.7l41 36.7 1.7-3.9-39.2-38.6c-2.5 2-3.5 5.8-3.5 5.8z" fill="#627A9E"/><path d="M293.8 213.7l-.8 18.9-6.7 156.3-31.2 3.2 1.3-136.1v-1.2L224.1 343l-17.9 48.9-23.6-23 40.9-141 2.4-8.6 67.9-5.6z" fill="#FAD4B0"/><path d="M293.799 213.7L293 232.6c-11.2 2.5-22.5 4.5-33.8 4.4-12.3 0-24.8-2.6-35.7-9.1l2.4-8.6 67.899-5.6zM256.4 254.8L224.1 343c5.2-32.3 11.5-64.4 18.8-96.2 5.7 1.7 13.5 8 13.5 8z" fill="#F0BC97"/><path d="M249.9 221.9c-1.4 9.3-1.3 18.9.5 28.2m5.999-28.2c0 7-.4 16-1.1 17.7-1.1 2.6-2.9 2.7-5.5 2.8m-21-20.1c-.4 2.3-.899 4.7-1.799 6.9-.9 2.2-2.4 4.2-4.5 5.3m58.6-15.8c.1 2.7.2 5.5 1.1 8 1 2.5 2.5 5 6.1 5.4m.5-15.9c-.4 56.2-2.4 113.1-6.5 169.2M256 389c9.9-.9 19.8-2.1 29.6-3.7m-101.1-20c7.9 6.5 15.7 13 23.6 19.5" stroke="#C2856E" stroke-miterlimit="10" stroke-linecap="round"/><path d="M214 137.9s-5.8.2-12.9.2c-10.3 0-23.6-.4-26.6-2.3-5-3.2 2.9-56.1 2.9-56.1l14.6 4.8s.6 29.4 3.5 30.1c1.7.4 6.6.1 10.3-.2 2.6-.2 4.5-.4 4.5-.4l3.7 23.9z" fill="#FDA68A"/><path d="M214 137.9s-5.8.2-12.9.2c.4-8.2 2.1-16.1 4.8-23.7 2.6-.2 4.5-.4 4.5-.4l3.6 23.9z" fill="#E57873"/><path d="M219.4 48.8l4.1-7.6 1.8 1 3.2 19.5-33.6 11.4-1.7-1 26.2-23.3z" fill="#364369"/><path d="M193.3 72.1l-3.1-17.6 33.3-13.3 2.9 19.7-33.1 11.2z" fill="#485A7E"/><path d="M220.1 46.9a1.3 1.3 0 100-2.6 1.3 1.3 0 000 2.6zm-3.6 1.3a1.3 1.3 0 100-2.6 1.3 1.3 0 000 2.6z" fill="#91A8C7"/><path d="M177.2 82.4c.7-8.5 2.5-22.5 4.7-27 1.4-3 8.6-13.1 11.7-13.9 3.2-.8 12.7 3.2 14.8 5.3.8.8 0 3-2.4 3-2.9 0-7.6-1.8-9.5-1.2-1.2.4-3.1 3-4.2 5.2 2.7-1 5.5-1.5 8.9-1.6 4.1-.1 7.1.3 9.8 2.5 1 .9.5 2.8-.5 3.3.7.4 1.3 1.1 1.1 2.2-.2 1.1-1 1.4-1.9 1.8.6.9.1 2.1-.8 2.8-.8.6-1.9.8-2.9 1-1.8.3-3.6.3-5 1.1-1.5.8-2.5 2.3-3.5 3.9-.4 6.8-2.4 10.9-6.6 14.6-4.5.3-9.2.3-13.7-3z" fill="#FDA68A"/><path d="M209.9 57.9c-4.4-1.9-9.5-2.1-14-.5m12.6 4.4c-4.2-1.5-9-.9-12.7 1.4" stroke="#D85B5B" stroke-miterlimit="10" stroke-linecap="round" stroke-linejoin="round"/><path d="M318.1 149s28.8 10.7 31.5 13.6c2.7 2.9-1.5 21.6-8.4 21.2-6.9-.5-33.9-9.9-33.9-9.9l10.8-24.9z" fill="#F79881"/><path d="M345.6 116.8c-2.3-3.7-3.6-8.1-3.5-12.5 0-1.1.1-2.2-.3-3.3-.4-1-1.3-2-2.4-2-1 0-1.8.8-2.4 1.7-1.5 2.2-2.2 4.9-1.9 7.6.3 2.7 1.6 5.2 3.8 7.2 2.2.5 4.5.9 6.7 1.3z" fill="#E57873"/><path d="M332.225 128.855l-34.354-8.809c-.947-.243-1.513-1.227-1.264-2.197l4.865-18.972c.249-.97 1.218-1.56 2.165-1.317l34.354 8.809c.947.242 1.513 1.226 1.264 2.197l-4.864 18.971c-.247.971-1.217 1.561-2.166 1.318z" fill="#E7E6FF"/><path opacity=".25" d="M324.008 114.137c-2.467-.633-4.991.903-5.639 3.43-.648 2.527.826 5.088 3.293 5.72 2.466.633 4.99-.903 5.638-3.43.648-2.527-.825-5.088-3.292-5.72zm-2.064 8.049c-1.871-.48-2.99-2.424-2.498-4.341.492-1.916 2.407-3.082 4.278-2.602 1.871.48 2.99 2.423 2.498 4.34-.491 1.917-2.407 3.083-4.278 2.603z" fill="#91A6F2"/><path opacity=".25" d="M323.894 120.554a2.19 2.19 0 00.756-2.947 2.065 2.065 0 00-2.877-.737 2.188 2.188 0 00-.755 2.946 2.064 2.064 0 002.876.738z" fill="#91A6F2"/><path d="M311.24 106.936l-8.701-2.231-3.11 12.129 8.701 2.231 3.11-12.129z" fill="#D0B5B7"/><path d="M308.13 119.065l-8.701-2.231.624-2.434a1.453 1.453 0 011.52-1.102l3.324.286 3.052 1.349a1.45 1.45 0 01.802 1.697l-.624 2.435h.003z" fill="#A07666"/><path d="M333.863 114.951l-18.886-4.843a.772.772 0 01-.545-.948.772.772 0 01.934-.568l18.886 4.842a.773.773 0 01.545.948.772.772 0 01-.934.569z" fill="#FB5B16"/><path d="M319.235 114.452l-5.04-1.292a.348.348 0 01-.246-.426.348.348 0 01.42-.256l5.043 1.293a.347.347 0 01.245.426.35.35 0 01-.422.255zm13.739 3.968l-6.318-1.62a.773.773 0 01-.546-.948.773.773 0 01.935-.569l6.317 1.621c.41.105.654.528.546.947a.772.772 0 01-.934.569zm-12.373-2.138l-6.762-1.734a.348.348 0 01-.245-.427.347.347 0 01.42-.255l6.762 1.734a.348.348 0 01.246.426.35.35 0 01-.421.256zm2.251 2.055l-9.369-2.402a.347.347 0 01-.245-.426.348.348 0 01.42-.256l9.371 2.403a.347.347 0 01.245.426.35.35 0 01-.422.255zm-.356 1.388l-9.369-2.402a.347.347 0 01-.245-.426.347.347 0 01.42-.256l9.371 2.403a.347.347 0 01.245.426.35.35 0 01-.422.255zm-4.684.278l-5.04-1.293a.348.348 0 01-.246-.426.348.348 0 01.421-.255l5.042 1.293a.347.347 0 01.245.426.35.35 0 01-.422.255zm-2.609 2.291l-2.097-.537a.348.348 0 01-.245-.427.347.347 0 01.42-.255l2.097.537a.35.35 0 01.245.427.347.347 0 01-.42.255z" fill="#91A6F2"/><path d="M321.427 123.89l-3.376-.865a.347.347 0 01-.245-.427.347.347 0 01.42-.255l3.376.866a.348.348 0 01.246.426.348.348 0 01-.421.255z" fill="#FFB445"/><path d="M315.559 120.907l-2.097-.538a.347.347 0 01-.245-.426.347.347 0 01.42-.256l2.097.538a.348.348 0 01.245.426.35.35 0 01-.42.256z" fill="#91A6F2"/><path d="M332.935 107.303l-2.945 2.551 8.386 2.15.796-3.102-6.237-1.599zm-23.775-6.096l-7.774-1.994-.796 3.102 5.622 1.442 2.948-2.55z" fill="#FFB445"/><path d="M310.849 103.304a1.107 1.107 0 01-.171.378.942.942 0 01-.275.26.908.908 0 01-.356.122c-.131.017-.27.007-.414-.03l-.726-.186.501-1.955.726.186c.144.037.271.095.377.173a.897.897 0 01.37.639c.015.133.005.27-.032.413zm-.365-.093a.976.976 0 00.032-.3.619.619 0 00-.065-.248.53.53 0 00-.156-.184.662.662 0 00-.239-.113l-.37-.094-.353 1.375.37.095a.663.663 0 00.263.017.539.539 0 00.226-.087.645.645 0 00.177-.186.897.897 0 00.115-.275zm1.916 1.533l-.321-.083c-.061-.015-.099-.05-.114-.108l-.238-.726a.145.145 0 00-.036-.063.18.18 0 00-.075-.035l-.152-.038-.195.763-.356-.092.501-1.955.582.149c.13.034.236.076.322.126a.704.704 0 01.199.173.452.452 0 01.084.212.657.657 0 01-.092.419.565.565 0 01-.288.231.71.71 0 01-.201.04c.02.02.037.04.051.064.014.024.027.05.037.078l.292.845zm-.65-1.26a.548.548 0 00.182.019.332.332 0 00.141-.04.306.306 0 00.1-.089.368.368 0 00.058-.13c.026-.1.013-.184-.037-.253-.049-.069-.14-.12-.273-.154l-.228-.058-.166.648.223.057zm1.215 1.405l-.356-.092.501-1.955.356.092-.501 1.955zm2.561-1.427l-1.272 1.757-.321-.082-.269-2.153.284.073c.03.008.054.022.068.043a.145.145 0 01.029.071l.144 1.307c.004.042.009.089.009.14.002.049.001.102.002.155.024-.047.046-.092.072-.136a.915.915 0 01.075-.118l.752-1.078a.132.132 0 01.057-.046.117.117 0 01.083-.007l.287.074zm.48.43l-.139.541.668.172-.072.279-.668-.172-.142.554.847.217-.074.291-1.203-.309.501-1.955 1.203.309-.074.288-.847-.217v.002zm2.223 2.346l-.321-.082c-.061-.016-.099-.051-.114-.108l-.24-.727a.145.145 0 00-.036-.063.186.186 0 00-.076-.034l-.151-.039-.196.763-.356-.092.502-1.955.581.15c.131.033.236.075.323.125a.704.704 0 01.199.173.462.462 0 01.084.213.614.614 0 01-.017.239.568.568 0 01-.363.41.665.665 0 01-.201.04c.02.02.037.04.051.064.013.024.026.05.037.078l.294.845zm-.65-1.259a.548.548 0 00.182.019.318.318 0 00.241-.129.368.368 0 00.058-.13c.026-.1.013-.185-.037-.253-.049-.069-.14-.12-.273-.154l-.228-.059-.166.649.223.057zm3.335 1.628l-.077.3-1.117-.286.502-1.955.356.091-.425 1.655.761.195zm.533.457l-.356-.092.501-1.955.356.092-.501 1.955zm1.854-.018a.066.066 0 01.045.037l.1.191a.783.783 0 01-.344.153.992.992 0 01-.427-.026.949.949 0 01-.363-.172.842.842 0 01-.235-.281.917.917 0 01-.103-.364 1.257 1.257 0 01.04-.417c.038-.148.095-.275.171-.385a.961.961 0 01.274-.266.884.884 0 01.35-.128.966.966 0 01.401.024.964.964 0 01.352.164.876.876 0 01.227.254l-.162.138a.072.072 0 01-.035.022.093.093 0 01-.05 0 .102.102 0 01-.038-.023.376.376 0 01-.04-.04.677.677 0 00-.115-.111.682.682 0 00-.47-.113.525.525 0 00-.218.089.64.64 0 00-.175.186.995.995 0 00-.116.28.922.922 0 00-.029.306.703.703 0 00.068.248.578.578 0 00.365.287.883.883 0 00.133.026.479.479 0 00.218-.02.597.597 0 00.106-.046.166.166 0 01.033-.012c.015-.001.026-.004.037-.001zm1.101-1.001l-.139.541.668.171-.072.279-.668-.171-.142.553.847.218-.074.29-1.203-.308.501-1.955 1.203.308-.074.289-.847-.217v.002zm2.843.422l-.502 1.955-.181-.047a.157.157 0 01-.066-.032.19.19 0 01-.044-.062l-.662-1.56c-.01.061-.022.117-.035.167l-.307 1.199-.312-.08.501-1.955.186.048a.199.199 0 01.039.012l.026.014a.101.101 0 01.019.023.17.17 0 01.018.038l.665 1.565.017-.095c.005-.031.013-.06.02-.086l.304-1.187.314.08v.003zm1.349.724a.13.13 0 01-.043.032c-.014.007-.029.006-.047.001a.11.11 0 01-.055-.037c-.018-.02-.04-.041-.065-.067a.757.757 0 00-.093-.075.439.439 0 00-.136-.058.44.44 0 00-.135-.014.271.271 0 00-.106.026.19.19 0 00-.076.064.281.281 0 00-.044.096.18.18 0 00.007.124.334.334 0 00.08.104.988.988 0 00.128.094c.049.03.097.063.148.096.051.034.099.071.146.109a.55.55 0 01.117.134.452.452 0 01.063.169.533.533 0 01-.015.217.689.689 0 01-.108.236.616.616 0 01-.424.25.775.775 0 01-.294-.022.966.966 0 01-.331-.161.826.826 0 01-.229-.257l.149-.147a.098.098 0 01.043-.022.076.076 0 01.047-.001.128.128 0 01.065.047c.021.026.046.053.075.085a.853.853 0 00.107.094.456.456 0 00.163.072c.1.026.185.022.254-.013.069-.036.114-.098.138-.191a.208.208 0 00-.005-.136.298.298 0 00-.079-.107.889.889 0 00-.127-.093 2.121 2.121 0 01-.292-.197.474.474 0 01-.178-.313.607.607 0 01.282-.578.66.66 0 01.508-.055.911.911 0 01.298.135c.086.06.155.131.203.214l-.139.145zm.806.136l-.139.541.668.171-.072.279-.668-.171-.142.553.847.217-.074.291-1.203-.308.501-1.955 1.203.308-.074.289-.847-.218v.003z" fill="#FA3C32"/><path d="M306.484 120.059l-6.313-1.619a.349.349 0 01-.246-.427.348.348 0 01.42-.255l6.314 1.619a.348.348 0 01.245.426.348.348 0 01-.42.256zm25.433 4.176l-3.798-.974-.587 2.289 3.798.974.587-2.289z" fill="#91A6F2"/><path d="M305.104 112.778c1.043.267 2.167-.607 2.512-1.953.345-1.346-.22-2.653-1.262-2.921-1.042-.267-2.167.607-2.512 1.953-.345 1.346.22 2.654 1.262 2.921z" fill="#A07666"/><path d="M302.849 114.212c-.04-.132.037-.232.123-.332.085-.1.181-.195.289-.289.104-.095.217-.186.318-.282a1.82 1.82 0 00.26-.297c.069-.104.121-.21.162-.321a1.75 1.75 0 00.094-.34c.02-.116.028-.234.02-.358a1.173 1.173 0 00-.089-.386 1.785 1.785 0 01.872-2.32 1.686 1.686 0 012.261.864 1.788 1.788 0 01-.543 2.118 1.163 1.163 0 00-.264.295 1.676 1.676 0 00-.235.667 1.593 1.593 0 00-.013.36c.01.124.042.252.084.385.043.133.098.266.143.4.05.135.089.264.115.393.029.129.047.253-.052.35a2.124 2.124 0 01-3.052-.051 2.184 2.184 0 01-.493-.856z" fill="#A07666"/><path d="M312.761 119.86a.287.287 0 00-.157-.372.283.283 0 00-.366.165.287.287 0 00.157.372.283.283 0 00.366-.165zm-.368 1.424a.288.288 0 00-.106-.391.28.28 0 00-.384.112.29.29 0 00.106.391.28.28 0 00.384-.112z" fill="#FB5B16"/><path d="M303.771 110.667c.228.007.423-.243.436-.557.013-.315-.161-.576-.39-.583-.228-.007-.424.242-.437.557-.012.315.162.576.391.583zm4.051.556c.14-.282.089-.595-.115-.698-.203-.104-.482.04-.622.323-.14.282-.089.595.115.698.203.104.482-.041.622-.323z" fill="#A07666"/><path d="M303.736 109.698s.108-.77.494-1.347c.384-.577 1.203-.812 1.507-.605.378-.398 1.275 0 1.688.237.412.238.882 1.116.673 1.99-.113.467-.509.967-.509.967l-3.853-1.242z" fill="#A07666"/><path d="M325.071 127.122l-3.719-.954a.097.097 0 01-.068-.119.097.097 0 01.117-.072l3.719.954a.097.097 0 01.068.119.097.097 0 01-.117.072zm7.137 1.83l-4.973-1.275a.1.1 0 01-.069-.12.098.098 0 01.118-.071l4.961 1.272c.12.016 1.689.182 2.055-1.244l3.691-14.394a.096.096 0 01.117-.071.098.098 0 01.069.119l-3.691 14.394c-.416 1.621-2.255 1.393-2.271 1.392l-.007-.002zm6.764-19.272a.097.097 0 01-.068-.12l.261-1.018c.017-.066.384-1.672-1.196-2.077l-11.253-2.886a.097.097 0 01-.069-.119.097.097 0 01.117-.072l11.254 2.886c1.764.452 1.338 2.297 1.333 2.314l-.261 1.018c-.016.054-.067.087-.118.074zm-14.472-6.669l-5.131-1.316a.098.098 0 01-.069-.119.1.1 0 01.118-.072l5.131 1.316a.097.097 0 01.068.119c-.015.052-.066.085-.117.072zm-7.761-1.99l-1.163-.298a.099.099 0 01.049-.191l1.163.298a.097.097 0 01.069.119.098.098 0 01-.118.072zm-17.554 6.773a.097.097 0 01-.068-.119l2.176-8.486c.192-.75.537-1.275 1.029-1.558a1.812 1.812 0 011.342-.166l8.75 2.243a.097.097 0 01.068.12.097.097 0 01-.117.071l-8.757-2.245c-.007-.002-.617-.184-1.196.15-.44.254-.755.737-.933 1.433l-2.176 8.486a.096.096 0 01-.118.071zm-.858 3.35a.097.097 0 01-.069-.119l.404-1.576a.098.098 0 01.118-.072.097.097 0 01.068.119l-.404 1.576a.097.097 0 01-.117.072zm5.521 10.701c-3.067-.787-5.533-1.46-6.021-1.712-1.479-.76-1.378-1.725-1.372-1.767l.003-.012 1.235-4.816a.097.097 0 01.117-.072.098.098 0 01.069.12l-1.233 4.809c-.006.08-.038.892 1.27 1.565 1.409.725 20.34 5.216 20.532 5.263a.095.095 0 01.069.116c-.014.053-.064.086-.115.073-.515-.122-8.648-2.053-14.554-3.567z" fill="#C4968F"/><path d="M347.2 137.5c2-2.8 2.9-15.3-.6-21.3-1.8-3-8.6-7.7-14.6-4.7-2.8 1.4-4.5 4.8-3.2 8.1-1.1.7-1.8 1.9-1.8 3.2 0 1.3.8 2.5 1.9 3.5-.8.9-1.2 2.2-.9 3.3.3 1.2 1.2 2.2 2.4 2.9-1.2 1.3-.9 3.6.3 4.9 1.2 1.4 3 2 4.8 2.3 4.1 1 9.3 1.3 11.7-2.2z" fill="#FDA68A"/><path d="M329.6 119c3.1-2.1 7.3-2.5 10.7-1.1m-9.7 8.4c3.1-.4 6.2-.4 9.3.1m-8.7 5.9c2.8-.4 5.7-.2 8.4.6" stroke="#D85B5B" stroke-miterlimit="10" stroke-linecap="round" stroke-linejoin="round"/><path d="M347.682 130.024s10.143 40.482 6.081 45.992c-3.964 5.529-10.986 8.507-16.163 6.857-5.275-1.669-4.781-9.729-3.815-22.692.493-6.53 1.931-22.866 1.931-22.866l11.966-7.291z" fill="#FDA68A"/><path d="M309.1 179.6c-6.4-1.4-12.6-3.7-18-5.3.1 3.8.1 7.5.2 11.6.1 3.2.1 6.6.2 10.3 1.8 1.4 2 4.4.7 7 1.6 4.8 2.6 9.8 3.4 14.6-22.2 6.9-48.8 17.1-73.3 4.8-.1-6.7.1-14.4.5-22.5.9-19.2 2.8-40.7 4.2-56.5-6.6.2-13.1.8-19.6.7-1.8-10.1-2.2-20.7-.8-31 12.2-2.6 21.1-4 28.1-3.5 5.7.4 12.4 3.7 19.1 8.1 4.3 2.8 8.6 6 12.7 9.2 7.1-.7 12.9-.5 18.5.9 11.1 2.6 21.3 9.3 38.8 21.1-3.1 10.3-7.9 21.3-14.7 30.5z" fill="#E8505B"/><path d="M284.9 127.9c-1.9 7.6-12.4 16.2-22.6 14.4-12.7-2.2-13.2-18-8.6-24.4 4.3 2.8 8.6 6 12.7 9.2 7.1-.8 12.9-.5 18.5.8z" fill="#A3383F"/><path opacity=".302" d="M295.5 217.9c-22.2 6.9-48.8 17.1-73.3 4.8-.1-6.7.1-14.4.5-22.5 1.8 1.3 3.8 2.4 5.9 3.3 6 2.4 12.5 2.9 18.9 2.7 9.6-.3 19.2-2.3 27.8-6.7 6.2-3.2 11.8-7.8 15.9-13.4.1 3.2.1 6.6.2 10.3 1.8 1.4 2 4.4.7 7 1.7 4.6 2.6 9.6 3.4 14.5z" fill="#E8505B"/><path d="M290.7 173.1c-1.1-4.5-2.5-10.4-2.4-15.1.1-4.7 1.7-11.1 5-14.4-3.9 10.5-3.3 20.4-2.6 29.5zm-.901 0c-5-5.7-7.5-10.4-8.2-20.6-3.2 6.8 1.8 17.4 8.2 20.6zm-62.199-31c.5-7.3 2.5-14.6 6-21-6.4 5-8.8 14.5-6 21zm-2.6-1.7c-2.4-6.3-3.4-13.2-2.8-19.9-2.8 6.2-1.9 13.9 2.8 19.9z" fill="#AE3E47"/><path d="M278 118.1c-.4 3.9.1 7.7 1.3 11.3-3.4 3.7-6.5 5.7-9.8 7.2-1.9.9-4 1.7-6.1 1.5-2.6-.3-4.8-2-6.3-4.2s-2.3-4.7-3-7.2c.8-.9 1.5-1.9 2.1-2.9 1.6-2.8 2.3-5.8 2.1-8.7 7.6-1.4 14.9-3.5 22-6.1-1.3 3-2 6-2.3 9.1z" fill="#FDA68A"/><path d="M280.3 109.1c-1.2 2.9-2 5.9-2.3 9-6.3 4.3-14.1 6.4-21.8 5.8 1.6-2.8 2.3-5.8 2.1-8.7 7.6-1.5 14.9-3.5 22-6.1zm-39.2-19.3c-1.7 2.8.2 6.9 4.2 9.3 4 2.4 8.6 2 10.3-.7 1.7-2.8-.2-6.9-4.2-9.3-4-2.4-8.6-2.1-10.3.7z" fill="#E57873"/><path d="M253.8 116.4c13.6 6.9 31.7-.9 39.4-15 1.8-3.2 2.8-6.5 3.1-9.7 1.2-10.3-4.3-19.9-13.2-23.7l-1.5-.6c-6-2-11-3.1-15.7-1.2-3.8 1.5-7.4 4.9-11.3 11.3-1.7 2.7-3.4 6-5.1 9.8-5.4 11.9-5.8 23.9 4.3 29.1z" fill="#FDA68A"/><path d="M254.6 77.5c3.5 3.3 8.3 3.4 10.7 4.4 2.6 1.1 4.9 3.6 6.2 4 1.4.4 6.3.6 8.1 1.8 1.9 1.2 5.8 2.3 5.8 2.3s1.9 15.2 2.3 15.6l7.4-8.8 1.3-5c1.2-10.3-4.3-19.9-13.2-23.7l-17.3-1.8c-3.8 1.5-7.4 4.9-11.3 11.2z" fill="#E57873"/><path d="M253 60.7c2-2.3.2-5.1 1.9-7.7 1.1-1.8 2.7-2.3 4.6-2.8 2.5-.6 3.6-.9 5.3-2.8.8-.9 1.1-1.5 2.3-1.9 2.1-.7 4.2.5 5.6 1.9 1.8 1.6 1.9 3.2 4.5 3.9 1.7.5 3.5.4 5.1 1.1 2.3 1.1 3.8 3.2 4.8 5.4 1.1 2.6 1.1 4.4 3.5 6.1 1.8 1.2 3.5 1.2 5.4 2.3 2.2 1.4 3.7 3.4 4.9 5.6.5.9.9 1.9 1.3 2.9 1.4 3.5 3.3 5.4 3 9.3-.7 8.9-6.3 16.8-11.9 23.6 0 .1 0 .3-.1.4-.4.7-.9 1.2-1.5 1.6l-.1.1c0 .1-.1.1-.1.1-.7.4-1.5.5-2.4.3-2.8-.5-2.3-2.5-2.3-4.8-.1-4.8.8-9.7.7-14.4-.1-2.7.2-1.5-1.9-2.3-1.6-.6-2.8-1.3-4.2-2-3.6-1.8-7.6-1-10.9-3.2-2.5-1.7-3.9-3.3-7-3.9-1.9-.4-3.5-.6-5.2-1.6-2.6-1.6-3.4-4.4-5.6-6.4-1.6-1.4-3-2.5-3.2-4.8v-.8c0-2.7 1.9-3.3 3.5-5.2z" fill="#6B393A"/><path d="M249.3 65.8c.1-.1.2-.1.3-.2 1.4-1.2 3.2-1.8 4.8-2.5 1.6-.8 3.3-1.8 4-3.5.6-1.3.7-3 2.1-3.6 1.2-.5 2.6.3 3.8-.1 2.1-.7 2-4.3 4.1-4.9 1.2-.4 2.5.6 3.3 1.6.8 1 1.6 2.2 2.8 2.7 1.5.6 3.3-.1 4.9.3 1.9.4 3.2 2.1 4 3.9.8 1.8 1.3 3.6 2.4 5.2 2.1 2.8 5.8 3.6 9.1 4.6 2.1.6 4.3 1.5 5.9 2.9-1.2-2.2-2.6-4.2-4.9-5.6-1.8-1.1-3.5-1.1-5.4-2.3-2.5-1.7-2.4-3.5-3.5-6.1-1-2.3-2.4-4.4-4.8-5.4-1.6-.8-3.4-.6-5.1-1.1-2.5-.7-2.7-2.2-4.5-3.9-1.5-1.4-3.5-2.5-5.6-1.9-1.2.4-1.5 1-2.3 1.9-1.7 1.9-2.8 2.2-5.3 2.8-1.9.5-3.5 1-4.6 2.8-1.7 2.6.1 5.4-1.9 7.7-1.5 1.5-3.4 2.1-3.6 4.7z" fill="#7F4C56"/><path d="M282.8 105.6c-.5 3.2 2.8 6.4 7.4 7.1 4.6.8 8.7-1.2 9.2-4.4s-2.8-6.4-7.4-7.1c-4.5-.8-8.7 1.2-9.2 4.4z" fill="#FDA68A"/><path d="M266.2 95.9c-.4 1-.2 2 .4 2.2.6.2 1.4-.4 1.8-1.4.4-1 .2-2-.4-2.2-.6-.2-1.4.4-1.8 1.4zM251.4 91c.4-1 1.2-1.6 1.8-1.3.6.2.8 1.2.4 2.2-.4 1-1.2 1.6-1.8 1.3-.6-.2-.8-1.2-.4-2.2z" fill="#474E54"/><path d="M259.7 84.7c.5 3.1-.8 6.5-3.3 8.5-1 .8-2.2 1.5-2.5 2.7-.3 1.2.4 2.5 1.1 3.5" stroke="#D85B5B" stroke-miterlimit="10" stroke-linecap="round" stroke-linejoin="round"/><path d="M277.3 92.5c-.5-2.2-1.5-4.3-3.3-5.4-1.7-1-4.3-.7-5.8 1.2 3.6.3 6.9 2.1 9.1 4.2zm-18.8-7.8c-.4-1.1-.9-2.1-1.7-2.9-.8-.8-1.9-1.4-3-1.4s-2.3.6-2.8 1.7c3 .1 5.8 1.3 7.5 2.6z" fill="#6B393A"/><path d="M254.5 102.4c4.2 1.5 8.8 1.6 13.2.5 1.5 1.8 1.1 4.8-.6 6.4-1.6 1.7-4.2 2.3-6.6 2-2.1-.3-4.2-1.2-5.5-2.8-1.1-1.7-1.5-4.2-.5-6.1z" fill="#fff"/></svg>