<svg width="531" height="445" fill="none" xmlns="http://www.w3.org/2000/svg"><g clip-path="url(#clip0_8_16419)"><path d="M531 391.367H0v.357h531v-.357zm-146.556 9.394h-35.152v.357h35.152v-.357zm83.792.119h-43.649v.357h43.649v-.357zm-68.924 7.849h-20.39v.357h20.39v-.357zm-159.619-2.259h-54.905v.357h54.905v-.357zm-64.357 0h-36.533v.357h36.533v-.357zm-58.41-4.995H67.225v.357h49.701v-.357zm134.768-63.147H46.622c-3.292 0-6.054-3.092-6.054-6.778V8.681c0-3.686 2.762-6.778 6.054-6.778h205.072c3.292 0 6.053 3.092 6.053 6.778v322.75c0 3.805-2.655 6.897-6.053 6.897zM46.622 2.259c-3.186 0-5.841 2.855-5.841 6.541v322.75c0 3.568 2.549 6.541 5.84 6.541h205.073c3.186 0 5.841-2.855 5.841-6.541V8.681c0-3.567-2.549-6.54-5.841-6.54H46.622v.118zm434.782 336.069H276.332c-3.292 0-6.053-3.092-6.053-6.778V8.681c0-3.686 2.761-6.778 6.053-6.778h205.072c3.293 0 6.054 3.092 6.054 6.778v322.75c0 3.805-2.655 6.897-6.054 6.897zM276.332 2.259c-3.186 0-5.841 2.855-5.841 6.541v322.75c0 3.568 2.549 6.541 5.841 6.541h205.072c3.186 0 5.841-2.855 5.841-6.541V8.681c0-3.567-2.548-6.54-5.841-6.54H276.332v.118z" fill="#EBEBEB"/><path d="M126.696 144.013H57.348c-.85 0-1.593-.833-1.593-1.784V64.455c0-.951.743-1.784 1.593-1.784h69.348c.85 0 1.593.833 1.593 1.784v77.655c0 1.07-.743 1.903-1.593 1.903zm-67.755-3.568h66.162V66.239H58.941v74.206z" fill="#EBEBEB"/><path d="M126.696 144.013c-.424 0-.849-.119-1.168-.476L56.18 65.763a1.87 1.87 0 010-2.497c.637-.714 1.593-.714 2.23 0l69.348 77.655a1.868 1.868 0 010 2.497 1.267 1.267 0 01-1.062.595z" fill="#EBEBEB"/><path d="M57.348 144.013c-.425 0-.85-.119-1.168-.476a1.87 1.87 0 010-2.497l69.348-77.655c.637-.714 1.593-.714 2.23 0a1.868 1.868 0 010 2.497L58.41 143.418c-.319.357-.744.595-1.062.595z" fill="#EBEBEB"/><path d="M196.151 144.013h-69.349c-.849 0-1.593-.833-1.593-1.784V64.455c0-.951.744-1.784 1.593-1.784h69.349c.85 0 1.593.833 1.593 1.784v77.655c0 1.07-.743 1.903-1.593 1.903zm-67.862-3.568h66.163V66.239h-66.163v74.206z" fill="#EBEBEB"/><path d="M196.151 144.013c-.424 0-.849-.119-1.168-.476l-69.348-77.655a1.868 1.868 0 010-2.498c.637-.713 1.593-.713 2.23 0l69.348 77.656a1.868 1.868 0 010 2.497c-.318.238-.743.476-1.062.476z" fill="#EBEBEB"/><path d="M126.696 144.013c-.424 0-.849-.119-1.168-.476a1.87 1.87 0 010-2.497l69.349-77.655c.637-.714 1.593-.714 2.23 0a1.87 1.87 0 010 2.497l-69.349 77.655a1.535 1.535 0 01-1.062.476z" fill="#EBEBEB"/><path d="M265.5 144.013h-69.349c-.849 0-1.593-.833-1.593-1.784V64.455c0-.951.744-1.784 1.593-1.784H265.5c.849 0 1.593.833 1.593 1.784v77.655c0 1.07-.744 1.903-1.593 1.903zm-67.756-3.568h66.163V66.239h-66.163v74.206z" fill="#EBEBEB"/><path d="M265.5 144.013c-.425 0-.85-.119-1.169-.476l-69.348-77.655a1.87 1.87 0 010-2.498c.637-.713 1.593-.713 2.23 0l69.349 77.656a1.87 1.87 0 010 2.497 1.54 1.54 0 01-1.062.476z" fill="#EBEBEB"/><path d="M196.151 144.013c-.425 0-.85-.119-1.168-.476a1.87 1.87 0 010-2.497l69.348-77.655c.638-.714 1.593-.714 2.231 0a1.87 1.87 0 010 2.497l-69.349 77.655c-.319.238-.743.476-1.062.476z" fill="#EBEBEB"/><path d="M334.848 144.013H265.5c-.85 0-1.593-.833-1.593-1.784V64.455c0-.951.743-1.784 1.593-1.784h69.348c.85 0 1.593.833 1.593 1.784v77.655c0 1.07-.637 1.903-1.593 1.903zm-67.755-3.568h66.162V66.239h-66.162v74.206z" fill="#EBEBEB"/><path d="M334.848 144.013c-.425 0-.849-.119-1.168-.476l-69.349-77.655a1.87 1.87 0 010-2.498c.638-.713 1.593-.713 2.231 0l69.348 77.656a1.87 1.87 0 010 2.497 1.535 1.535 0 01-1.062.476z" fill="#EBEBEB"/><path d="M265.5 144.013c-.425 0-.85-.119-1.169-.476a1.87 1.87 0 010-2.497l69.349-77.655c.637-.714 1.593-.714 2.23 0a1.87 1.87 0 010 2.497l-69.348 77.655a1.54 1.54 0 01-1.062.476z" fill="#EBEBEB"/><path d="M404.303 144.013h-69.349c-.849 0-1.593-.833-1.593-1.784V64.455c0-.951.744-1.784 1.593-1.784h69.349c.85 0 1.593.833 1.593 1.784v77.655c0 1.07-.743 1.903-1.593 1.903zm-67.862-3.568h66.163V66.239h-66.163v74.206z" fill="#EBEBEB"/><path d="M404.303 144.013c-.425 0-.849-.119-1.168-.476l-69.349-77.655a1.87 1.87 0 010-2.498c.638-.713 1.593-.713 2.231 0l69.348 77.656a1.87 1.87 0 010 2.497 1.535 1.535 0 01-1.062.476z" fill="#EBEBEB"/><path d="M334.848 144.013c-.425 0-.849-.119-1.168-.476a1.87 1.87 0 010-2.497l69.349-77.655c.637-.714 1.593-.714 2.23 0a1.87 1.87 0 010 2.497l-69.349 77.655a1.535 1.535 0 01-1.062.476z" fill="#EBEBEB"/><path d="M473.652 144.013h-69.349c-.849 0-1.593-.833-1.593-1.784V64.455c0-.951.744-1.784 1.593-1.784h69.349c.85 0 1.593.833 1.593 1.784v77.655c0 1.07-.637 1.903-1.593 1.903zm-67.756-3.568h66.163V66.239h-66.163v74.206z" fill="#EBEBEB"/><path d="M473.652 144.013c-.425 0-.85-.119-1.168-.476l-69.349-77.655a1.87 1.87 0 010-2.498c.637-.713 1.593-.713 2.23 0l69.349 77.656a1.87 1.87 0 010 2.497 1.537 1.537 0 01-1.062.476z" fill="#EBEBEB"/><path d="M404.303 144.013c-.424 0-.849-.119-1.168-.476a1.87 1.87 0 010-2.497l69.455-77.774c.637-.714 1.593-.714 2.23 0a1.87 1.87 0 010 2.497l-69.348 77.655c-.319.357-.744.595-1.169.595z" fill="#EBEBEB"/><path d="M87.615 182.781l17.417 1.07-9.134-24.617-11.682 14.509 3.399 9.038z" fill="#E0E0E0"/><path d="M88.358 171.126l-.318-18.194-9.665 11.059 4.673 12.13 5.31-4.995zm3.823 10.228l11.258 13.081-13.806-.119-4.355-12.13 6.903-.832z" fill="#E0E0E0"/><path d="M69.88 198.24l23.682-11.059-7.965-21.406-23.683 11.06c-5.203 2.497-7.752 9.275-5.522 15.102 2.23 5.946 8.283 8.801 13.487 6.303z" fill="#EBEBEB"/><path d="M64.463 345.226c-.85 0-1.593-.833-1.593-1.784V188.251c0-.951.744-1.784 1.593-1.784.85 0 1.593.833 1.593 1.784v155.191c0 .951-.743 1.784-1.593 1.784z" fill="#EBEBEB"/><path d="M58.198 336.188h12.531c2.655 0 4.886-2.497 4.886-5.47s-2.23-5.471-4.886-5.471H58.198c-2.655 0-4.886 2.498-4.886 5.471.107 2.973 2.23 5.47 4.886 5.47z" fill="#E0E0E0"/><path d="M88.89 391.367h2.76L70.41 333.81h-2.76l21.24 57.557zm-48.853 0h-2.655l21.24-57.557h2.655l-21.24 57.557zm15.718 0h-2.761l10.301-57.557h2.761l-10.301 57.557zm415.03-130.456l6.903 17.838 15.611-20.097-16.673-5.233-5.841 7.492z" fill="#E0E0E0"/><path d="M480.449 256.392l14.443-8.443-13.169-4.638-7.54 9.87 6.266 3.211zm-6.478 8.325l-5.523 17.124-5.947-13.914 7.753-9.751 3.717 6.541z" fill="#E0E0E0"/><path d="M450.606 249.971l19.329 18.789 13.593-17.481-19.434-18.79c-4.248-4.162-10.833-3.686-14.55 1.071-3.717 4.875-3.292 12.248 1.062 16.411z" fill="#EBEBEB"/><path d="M456.129 345.226c-.85 0-1.593-.833-1.593-1.784V240.1c0-.951.743-1.784 1.593-1.784.849 0 1.593.833 1.593 1.784v103.342c0 .951-.744 1.784-1.593 1.784z" fill="#EBEBEB"/><path d="M449.863 336.188h12.532c2.655 0 4.885-2.497 4.885-5.47s-2.23-5.471-4.885-5.471h-12.532c-2.655 0-4.885 2.498-4.885 5.471.106 2.973 2.23 5.47 4.885 5.47z" fill="#E0E0E0"/><path d="M480.555 391.367h2.761l-21.24-57.558h-2.761l21.24 57.558zm-48.852 0h-2.655l21.24-57.558h2.655l-21.24 57.558zm15.717 0h-2.761l10.302-57.558h2.761l-10.302 57.558z" fill="#E0E0E0"/><path d="M265.5 445c113.727 0 205.922-6.016 205.922-13.438 0-7.422-92.195-13.438-205.922-13.438-113.728 0-205.922 6.016-205.922 13.438 0 7.422 92.194 13.438 205.922 13.438z" fill="#F5F5F5"/><path d="M137.529 365.918h-2.336c-.956 0-1.699-.832-1.699-1.903V1.903c0-1.07.743-1.903 1.699-1.903h2.336c.956 0 1.699.832 1.699 1.903v362.112c0 1.071-.743 1.903-1.699 1.903z" fill="#263238"/><path opacity=".8" d="M137.529 365.918h-2.336c-.956 0-1.699-.832-1.699-1.903V1.903c0-1.07.743-1.903 1.699-1.903h2.336c.956 0 1.699.832 1.699 1.903v362.112c0 1.071-.743 1.903-1.699 1.903z" fill="#fff"/><path d="M94.73 46.498v-2.616c0-1.07.744-1.903 1.7-1.903h58.941c.955 0 1.699.832 1.699 1.903v2.616c0 1.07-.744 1.903-1.699 1.903H96.43c-.85 0-1.7-.833-1.7-1.903z" fill="#263238"/><path opacity=".8" d="M94.73 46.498v-2.616c0-1.07.744-1.903 1.7-1.903h58.941c.955 0 1.699.832 1.699 1.903v2.616c0 1.07-.744 1.903-1.699 1.903H96.43c-.85 0-1.7-.833-1.7-1.903z" fill="#fff"/><path d="M148.043 424.07h-23.258c-1.381 0-2.337-1.308-2.124-2.854l6.69-62.671c.213-1.784 1.593-3.211 3.186-3.211h7.859c1.593 0 2.974 1.308 3.186 3.211l6.691 62.671c.106 1.427-.956 2.854-2.23 2.854z" fill="#263238"/><path opacity=".6" d="M148.043 424.07h-23.258c-1.381 0-2.337-1.308-2.124-2.854l6.69-62.671c.213-1.784 1.593-3.211 3.186-3.211h7.859c1.593 0 2.974 1.308 3.186 3.211l6.691 62.671c.106 1.427-.956 2.854-2.23 2.854z" fill="#fff"/><path d="M198.7 121.893h-77.845L143.051 7.016h77.951L198.7 121.893z" fill="#263238"/><path d="M109.917 99.655l10.939 22.238L143.158 7.016l-18.692 16.411c-4.141 3.568-7.009 8.682-8.071 14.39l-8.602 44.476c-1.274 5.946-.531 12.13 2.124 17.362z" fill="#263238"/><path opacity=".3" d="M124.042 119.039l21.133-109.05h72.535l-21.134 109.05h-72.534z" fill="#fff"/><path opacity=".3" d="M128.396 116.066l19.965-103.104h67.118l-19.965 103.104h-67.118z" fill="#fff"/><path d="M132.75 113.093l18.797-97.158h61.703l-18.798 97.158H132.75z" fill="#fff"/><path d="M429.791 152.932H235.976c-5.734 0-10.407 5.232-10.407 11.654v255.322c0 6.422 4.673 11.654 10.407 11.654h193.922c5.734 0 10.407-5.232 10.407-11.654V164.586c-.106-6.422-4.779-11.654-10.514-11.654z" fill="#407BFF"/><path opacity=".2" d="M437.969 422.286c1.274 0 2.23-.951 2.23-2.021V164.229c0-1.07-1.062-2.022-2.23-2.022-1.274 0-2.23.952-2.23 2.022v255.917c0 1.189.956 2.14 2.23 2.14z" fill="#000"/><path d="M155.052 423.951c-4.354 2.378-4.141 1.903-6.69 3.092-2.124 1.07-2.443 1.665-4.248 2.497-1.381.714-2.124-.713-2.655-2.616-.213-.951-.744-4.043-1.168-5.589l7.009-1.665c1.911 1.308 4.566 2.022 7.115.951 2.655-.832 2.443 2.379.637 3.33zm-33.453-137.353s5.629 40.909 9.346 61.839c3.823 22 12 56.13 15.93 69.568-.956 1.07-5.098 2.26-7.541 2.26 0 0-17.947-32.941-20.921-63.623-13.594-33.297-17.523-58.509-15.399-68.617l18.585-1.427z" fill="#263238"/><path d="M146.981 416.816c.212.713.743 1.903 1.274 2.735.213.357.107.714-.212.832-2.443 1.309-6.372 1.784-7.646 2.022-.213 0-.531-.119-.638-.357l-1.274-2.497c-.212-.357 0-.713.319-.832l7.54-2.26c.212-.119.531 0 .637.357z" fill="#407BFF"/><path opacity=".3" d="M146.981 416.816c.212.713.743 1.903 1.274 2.735.213.357.107.714-.212.832-2.443 1.309-6.372 1.784-7.646 2.022-.213 0-.531-.119-.638-.357l-1.274-2.497c-.212-.357 0-.713.319-.832l7.54-2.26c.212-.119.531 0 .637.357z" fill="#E8505B"/><path d="M102.483 213.105c-4.779 2.617-6.585 13.32-2.443 16.768 4.142 3.33-3.823 11.06 3.93 13.438 7.752 2.379 16.036-5.232 12.425-11.297-3.611-5.946-2.124-13.795-4.46-17.244-3.611-5.351-9.452-1.665-9.452-1.665zm12.957 218.457c-4.886.119-4.461-.238-7.222-.238-2.336 0-2.867.238-4.779.238-1.593 0-1.699-1.665-1.381-3.568.107-.951.425-2.14.638-3.686l7.327-.119c1.169 2.141 3.399 3.924 6.16 4.281 2.655.238 1.274 3.092-.743 3.092zm-1.275-143.537s-1.699 41.384-1.805 62.671c-.106 22.357-3.93 57.677-2.549 71.709-1.168.833-5.31 1.07-7.753.476 0 0-5.947-36.271-3.504-66.952-7.434-35.676-7.647-58.628-3.823-68.023h19.434v.119z" fill="#263238"/><path d="M110.236 421.335c.106.714.425 2.022.743 2.973.106.357 0 .714-.318.832-2.655.714-6.585.357-7.859.238-.213 0-.425-.238-.531-.475l-.85-2.736a.69.69 0 01.425-.832l7.753-.476c.212-.119.531.119.637.476z" fill="#407BFF"/><path opacity=".3" d="M110.236 421.335c.106.714.425 2.022.743 2.973.106.357 0 .714-.318.832-2.655.714-6.585.357-7.859.238-.213 0-.425-.238-.531-.475l-.85-2.736a.69.69 0 01.425-.832l7.753-.476c.212-.119.531.119.637.476z" fill="#E8505B"/><path d="M117.67 247.354l1.593.357c.637.119 1.274.238 1.805.238 1.275.119 2.549.238 3.717.238 1.275 0 2.549-.119 3.717-.357 1.275-.238 2.443-.476 3.611-.951l-2.443 4.043c0 .238.107.357 0 .119 0-.119-.106-.357-.106-.595-.106-.475-.425-1.07-.743-1.665-.531-1.189-1.275-2.497-2.018-3.686-.743-1.308-1.487-2.497-2.23-3.805l-2.337-3.806c-.637-1.07-.424-2.616.531-3.33.744-.594 1.7-.475 2.443 0 1.168.952 2.23 2.022 3.398 3.092 1.062 1.071 2.124 2.141 3.186 3.33 1.062 1.189 2.018 2.378 2.974 3.924.425.714.956 1.427 1.381 2.379.212.475.424.951.637 1.546.212.594.425 1.427.425 2.497.106 1.784-.85 3.211-2.231 3.924l-.212.119c-1.593.714-3.186 1.427-4.779 1.784-.85.238-1.593.357-2.443.595-.849.119-1.699.238-2.442.238-1.699.119-3.292.119-4.992-.119-.849-.119-1.699-.238-2.442-.357-.425-.119-.85-.119-1.275-.238-.424-.119-.743-.238-1.38-.357-2.23-.713-3.505-3.448-2.868-5.946.638-2.378 2.762-3.805 4.886-3.329l.637.118z" fill="#FFC3BD"/><path d="M108.643 247.711c0-2.497 5.735-2.854 13.594-.475 2.867 4.519 2.336 13.438 2.336 13.438s-16.567-1.665-15.93-12.963z" fill="#E8505B"/><path d="M122.449 257.106c.106 2.854-.213 6.422-.744 13.2-.425 5.827.85 16.887-.743 17.719-3.611 2.854-13.806 2.022-26.231 0-.531-8.324-.32-14.032-4.992-32.703-1.062-4.281 1.38-8.443 5.204-8.919 1.062-.119 2.124-.238 3.292-.238 4.354-.238 7.965-.357 11.894 0 1.275.119 2.655.357 3.93.476 4.673.832 8.283 5.351 8.39 10.465z" fill="#E8505B"/><path d="M99.085 231.3c1.062 4.281 2.336 12.13-.212 14.984 0 0 3.61-.594 11.363 4.757 2.23-3.568.531-4.757.531-4.757-4.354-1.189-4.46-4.638-3.929-7.968l-7.753-7.016z" fill="#FFC3BD"/><path d="M108.643 249.852c-2.549.356-3.292 4.638-3.292 4.638s-6.054-4.876-7.965-8.206c.956-.476 2.23-1.546 2.23-1.546s7.54 3.568 9.027 5.114zm2.336-.476s2.018.476 2.974 3.568c.531-6.303-2.018-6.779-2.018-6.779s-.743-.594-2.336-.357c2.124 1.19 1.38 3.568 1.38 3.568z" fill="#fff"/><path opacity=".2" d="M102.271 234.154l4.566 4.162c-.106.833-.212 1.546-.212 2.379-1.699-.238-4.036-2.26-4.354-4.162-.107-1.071-.107-2.022 0-2.379z" fill="#000"/><path d="M93.987 225.592c2.23 6.541 3.08 9.395 7.115 11.892 6.054 3.806 12.744-.238 12.32-7.254-.425-6.422-4.036-16.054-10.62-17.006-6.585-.951-11.045 5.708-8.815 12.368z" fill="#FFC3BD"/><path d="M89.527 220.716c7.54 3.092 8.92-2.14 12.956-4.281 4.036-2.14 6.266-.594 6.903-4.281.956-5.946-7.965-8.324-6.372-4.638-3.717-1.546-6.796 2.497-6.796 2.497-.532.714-2.974 3.211-2.974 3.211s-9.24 1.665-3.717 7.492z" fill="#263238"/><path d="M89.314 219.527c-4.779 2.616-4.885 10.465-.743 13.795 4.142 3.33-3.717 9.157 4.036 11.654 7.752 2.378 13.275-3.449 9.664-9.395-3.611-5.946-1.168-14.865-4.46-17.243-3.187-2.26-8.497 1.189-8.497 1.189z" fill="#263238"/><path opacity=".2" d="M102.483 224.997s-1.38-.475-2.442.238c1.38.119 2.442-.238 2.442-.238zm0 .595s-1.274-.119-2.018.832c1.169-.118 2.018-.832 2.018-.832z" fill="#000"/><path d="M103.758 224.76c.212.594.531.951.849.832.319-.119.425-.595.319-1.189-.213-.595-.531-.952-.85-.833-.318 0-.425.595-.318 1.19zm6.159-1.784c.212.594.531.951.85.832.318-.119.424-.594.318-1.189-.212-.595-.531-.951-.849-.832-.319.118-.531.713-.319 1.189z" fill="#263238"/><path d="M110.023 221.905l1.062-.713c.107 0-.212 1.189-1.062.713z" fill="#263238"/><path d="M108.537 224.403s1.593 2.14 2.867 3.092c-.425.832-1.699.951-1.699.951l-1.168-4.043z" fill="#ED847E"/><path d="M107.475 231.3c.318 0 .531-.119.849-.119.106 0 .106-.119.106-.238 0-.118-.106-.118-.212-.118-2.23.594-3.717-.833-3.717-.833-.106-.119-.212 0-.212 0v.238c.106.119 1.274 1.189 3.186 1.07z" fill="#263238"/><path d="M93.775 231.181c.85 1.308 2.018 2.022 2.974 2.141 1.486.119 1.805-1.903 1.062-3.687-.638-1.665-2.23-3.686-3.611-2.973-1.275.714-1.38 2.973-.425 4.519z" fill="#FFB573"/><path d="M101.952 222.262c.107 0 .107-.119.213-.119.637-1.308 1.805-1.308 1.805-1.308.213 0 .319-.119.319-.357 0-.237-.106-.356-.319-.356-.106 0-1.487 0-2.336 1.546-.106.119 0 .356.106.475s.212.119.212.119zm8.602-3.33c.106 0 .106 0 .213-.118.106-.119.106-.357 0-.476-1.275-1.308-2.655-.952-2.762-.952-.212 0-.212.238-.212.357 0 .238.212.357.425.238.106 0 1.168-.238 2.124.833.106.118.212.118.212.118zm-6.584 4.638l1.062-.713s-.318 1.189-1.062.713z" fill="#263238"/><path d="M106.731 268.76l-1.911-.238c-.744-.119-1.487.238-1.912.833l-2.23 2.854c-.85 1.189-1.275 2.735-.956 4.281l.212.951c3.186.595 7.01-1.427 7.01-1.427l1.168-.475c1.062-.357 1.593-1.546 1.274-2.617l-.743-2.616c-.213-.832-1.062-1.427-1.912-1.546zm15.718-41.86l1.699 1.07c.637.357 1.062 1.19 1.168 2.022l.319 3.806c.106 1.545-.425 3.091-1.487 4.043l-.637.594c-2.868-1.664-4.992-5.708-4.992-5.708l-.743-1.07c-.637-.951-.425-2.26.425-2.973l1.911-1.546c.637-.714 1.593-.714 2.337-.238z" fill="#FFC3BD"/><path d="M95.368 258.176l-.744 2.141c-.212.713-.53 1.546-.743 2.378-.425 1.546-.85 3.211-1.274 4.757-.319 1.546-.638 3.211-.956 4.757-.213 1.665-.425 3.211-.531 4.757l-.106-.952c0-.119-.107-.356-.319-.594-.212-.238-.425-.476-.637-.476-.319-.119-.213.119.106.119.637.119 1.805 0 2.867-.238s2.23-.595 3.505-.951c1.168-.357 2.336-.833 3.505-1.189h.106c1.168-.357 2.336.356 2.655 1.546.212.951 0 1.902-.637 2.497-1.062.951-2.23 1.784-3.399 2.735-1.168.832-2.442 1.546-3.717 2.259-1.38.595-2.761 1.309-4.673 1.428-.955.118-2.124.118-3.717-.714-.743-.357-1.486-1.07-2.124-1.903-.53-.832-.85-1.784-1.062-2.616 0-.238-.106-.476-.106-.713v-.238c0-2.022 0-3.925.106-5.946.107-1.903.425-3.925.744-5.709a46.988 46.988 0 011.274-5.589c.319-.951.531-1.784.85-2.735.318-.951.637-1.784 1.062-2.854.956-2.378 3.504-3.449 5.628-2.378 2.018 1.07 2.974 3.686 2.23 5.946l.107.475z" fill="#FFC3BD"/><path d="M94.73 246.522c-4.247.713-5.947 2.141-9.451 11.773 1.593 3.568 9.027 7.016 9.027 7.016s5.735-11.773.425-18.789z" fill="#E8505B"/><path d="M111.298 253.419c.106.595 0 .952-.319.952-.212 0-.531-.476-.637-.952-.106-.594 0-.951.319-.951.212 0 .531.357.637.951zm.425 4.638c0 .595-.107.952-.425.952-.213 0-.425-.476-.425-1.071 0-.594.106-.951.425-.951.212 0 .425.595.425 1.07z" fill="#fff"/><path d="M98.341 228.922c-.743-2.854-2.867-4.757-4.885-4.281-2.017.475-2.973 3.21-2.336 6.065.743 2.854 2.867 4.756 4.885 4.281 1.912-.476 2.974-3.211 2.337-6.065z" fill="#E8505B"/><path opacity=".3" d="M95.686 229.992c-.637-2.259-2.018-3.805-3.186-3.687-1.168.119-1.593 2.141-.956 4.282.638 2.259 2.018 3.805 3.187 3.686 1.168-.119 1.593-2.14.955-4.281z" fill="#000"/><path d="M95.156 224.76c-1.381-4.876-1.7-11.179.955-14.628-1.168.119-3.292 2.735-3.292 2.735-1.274 2.26-1.912 7.255-.425 12.725 2.124.832 2.761-.832 2.761-.832z" fill="#E8505B"/><path d="M193.284 230.468l-52.781.832 5.416 6.422 47.472-.714-.107-6.54zm-16.036 29.016h-19.54l1.911 5.827h17.629v-5.827zm13.494-32.207l2.761-.011-.034-10.109-2.761.012.034 10.108z" fill="#263238"/><path d="M203.798 212.867l-10.514.952-1.274 17.005 10.514.119 1.274-18.076z" fill="#263238"/><path opacity=".1" d="M202.417 213.938l-9.027.951.106 14.627 9.027.833-.106-16.411z" fill="#fff"/><path opacity=".1" d="M202.417 217.743l-8.92.714v2.497l8.92-.476v-2.735z" fill="#fff"/><path d="M202.488 228.846l1.38-.006-.045-13.438-1.381.006.046 13.438z" fill="#263238"/><path d="M210.17 210.608l-6.691.238.425 19.146 4.779-.238 1.487-19.146z" fill="#263238"/><path opacity=".1" d="M210.595 212.63h-6.691v19.027h4.886l1.805-19.027z" fill="#fff"/><path d="M180.647 214.532l-4.779-5.113-.213-8.325-50.763 1.071-.425 2.854-4.779.119-3.08 18.313 4.779-.119-1.593 9.99 56.392-1.189 16.036-.357-.318-17.481-11.257.237z" fill="#263238"/><path opacity=".1" d="M149.105 205.851l-5.097 23.903c-.213.833-.85 1.427-1.593 1.427l-17.736.476c-1.062 0-1.805-1.07-1.699-2.141l.85-5.589c.212-1.189-.638-2.141-1.7-2.141h-.743c-1.062 0-1.805-1.07-1.699-2.14l1.805-10.941c.106-.832.744-1.427 1.593-1.546h2.124c.744 0 1.487-.594 1.593-1.546.106-.832.744-1.427 1.593-1.546l19.01-.475c1.168 0 2.018 1.07 1.699 2.259zm41.418 14.152l.106 10.108c0 1.07-.743 1.903-1.593 1.903l-41.949.713c-1.062 0-1.912-1.07-1.593-2.259l5.31-23.903c.212-.833.85-1.427 1.593-1.427l20.284-.357c.956 0 1.699.832 1.699 1.784l.107 4.638c0 .475.212.951.531 1.308l4.779 5.232c.318.357.743.476 1.168.476l8.071-.119c.743.119 1.487.951 1.487 1.903z" fill="#fff"/><path d="M167.478 261.268c4.985 0 9.027-4.526 9.027-10.108 0-5.583-4.042-10.108-9.027-10.108-4.986 0-9.027 4.525-9.027 10.108 0 5.582 4.041 10.108 9.027 10.108z" fill="#263238"/><path opacity=".1" d="M172.257 251.16c0 2.973-2.124 5.351-4.779 5.351s-4.779-2.378-4.779-5.351 2.124-5.352 4.779-5.352 4.779 2.379 4.779 5.352z" fill="#fff"/><path d="M168.752 431.562c-.743 0-1.274-.595-1.274-1.427V265.311h2.548v164.824c0 .832-.637 1.427-1.274 1.427zm-22.62 0c-.744 0-1.381-.713-1.275-1.546l16.037-164.586h2.548L147.3 430.492c0 .594-.531 1.07-1.168 1.07zm45.134 0c-.637 0-1.168-.476-1.274-1.189L173.85 265.311h2.548l16.037 164.586c.212.952-.319 1.665-1.169 1.665zm-26.019-240.338l-28.143 2.378-7.434 8.8 4.248-.118 5.098-6.422 24.32-1.546 1.062 7.135 4.248-.119-3.399-10.108zm9.134 52.801h-18.585c-1.593 0-2.655-1.784-2.124-3.449l1.274-3.924h21.665v4.756c.106 1.427-.956 2.617-2.23 2.617z" fill="#263238"/><path opacity=".1" d="M174.381 244.025h-18.585c-1.593 0-2.655-1.784-2.124-3.449l1.274-3.924h21.665v4.756c.106 1.427-.956 2.617-2.23 2.617z" fill="#fff"/><path d="M184.682 314.663c-.743 3.33-1.487 6.779-2.124 10.228-.637 3.448-1.274 6.897-1.593 10.227-.106.832-.106 1.665-.212 2.497v1.308c0-.119-.107-.357-.107-.476-.106-.237-.106-.356-.212-.594-.212-.476-.637-.833-.956-1.07-.743-.476-1.062-.357-1.168-.357-.106 0-.106 0 0 0s.425-.119.637-.119c.531-.238 1.275-.476 1.912-.833 2.761-1.308 5.522-3.091 8.39-4.637.955-.476 2.017-.119 2.548.951.425.832.213 1.784-.318 2.378-1.168 1.308-2.337 2.617-3.717 3.806-1.275 1.189-2.549 2.378-4.036 3.448a12.993 12.993 0 01-2.442 1.546 11.65 11.65 0 01-1.593.714 3.585 3.585 0 01-1.275.238c-.531 0-1.274 0-2.336-.595-.531-.357-1.062-.832-1.381-1.546-.106-.238-.318-.594-.425-.832-.106-.238-.106-.595-.212-.714 0-.238-.106-.475-.106-.594v-.595l-.106-1.546c0-.951 0-2.022.106-2.973a96.904 96.904 0 011.274-11.178c.637-3.687 1.381-7.136 2.23-10.822.531-2.26 2.655-3.449 4.567-2.854 2.018.475 3.186 2.735 2.655 4.994z" fill="#B55B52"/><path d="M198.063 330.48l-1.274 3.33c-.319.832-.956 1.308-1.699 1.308h-2.974s-3.611 1.783-5.204-.476l.106-2.378 5.204-3.687c.531-.357 1.168-.595 1.806-.476l2.973.357c.85.238 1.381 1.07 1.062 2.022zm-8.496-41.622c.744 4.162 1.593 11.892-1.062 14.746 0 0 6.691 3.567 11.258 10.108 4.46-4.281 1.486-9.633 1.486-9.633-4.141-1.07-3.929-5.589-3.398-8.919l-8.284-6.302z" fill="#B55B52"/><path d="M186.487 305.269c3.505 4.043.425 16.411-2.23 21.168l-9.239-5.709s.318-7.373 2.124-11.178c1.911-4.162 6.903-7.016 9.345-4.281z" fill="#E8505B"/><path d="M211.657 314.069c-.213 6.184.531 17.124-2.443 34.368l-25.7-.833c.637-10.584-2.018-17.957-4.992-36.389-.531-3.33 1.593-6.541 4.567-7.017a64.608 64.608 0 015.416-.594c4.354-.238 7.859-.476 11.682-.119 1.275.119 2.549.238 3.823.475 4.567.714 7.859 5.114 7.647 10.109z" fill="#E8505B"/><path d="M200.824 278.749c.213.476.638.833.85.714.319-.119.425-.714.212-1.189-.212-.476-.637-.833-.849-.714-.319.119-.425.714-.213 1.189z" fill="#263238"/><path d="M200.931 277.679l1.062-.832c-.107 0-.319 1.189-1.062.832z" fill="#263238"/><path d="M201.143 279.582s1.593 1.903 2.867 2.616c-.424.951-1.593 1.07-1.593 1.07l-1.274-3.686z" fill="#A02724"/><path d="M199.763 273.993v-.357a.298.298 0 00-.425 0c-1.275 1.189-1.168 2.735-1.168 2.735 0 .238.212.357.318.238.213 0 .319-.238.213-.357 0 0-.107-1.308.955-2.259 0 .118.107 0 .107 0z" fill="#263238"/><path d="M184.151 284.101c2.549 6.422 3.399 9.276 7.54 11.416 6.16 3.33 12.638-1.546 11.895-8.681-.638-6.422-4.673-15.935-11.257-16.173-6.479-.238-10.727 7.016-8.178 13.438z" fill="#B55B52"/><path d="M196.364 273.993c3.398 1.783 2.336 7.492 1.805 8.443 3.399 4.519.319 12.843 6.797 13.2-.318 5.589-16.461 7.254-20.815 4.876-2.974-1.546-5.841-7.968-.956-13.2-3.611-5.827-2.761-10.822 0-14.152 5.416-6.422 13.806-4.995 13.169.833z" fill="#263238"/><path d="M184.257 283.506c-5.416 6.898-9.77 21.168.956 10.465 6.691-6.659 11.682-18.551 11.682-18.551l-12.638 8.086z" fill="#407BFF"/><path opacity=".7" d="M184.257 283.506c-5.416 6.898-9.77 21.168.956 10.465 6.691-6.659 11.682-18.551 11.682-18.551l-12.638 8.086z" fill="#E8505B"/><path d="M182.664 289.452c7.859-1.903 15.718-14.508 16.249-16.768-1.593-2.735-5.523-5.113-8.709-4.519-4.991.952-9.345 5.471-10.513 11.655-.425 2.735 2.973 9.632 2.973 9.632z" fill="#E8505B"/><path d="M195.727 283.625a5.395 5.395 0 002.973 2.973c1.7.595 2.655-1.07 2.337-2.973-.319-1.665-1.699-4.043-3.505-3.924-1.805.119-2.549 2.14-1.805 3.924zm44.71 144.132l6.054-.714-4.142-16.768-6.054.714 4.142 16.768z" fill="#B55B52"/><path d="M257.429 429.065c-3.823-.714-5.841-.833-9.983-3.687-.425-.356-.956-.475-1.38-.475l-6.372.951c-.213 0-.425.238-.425.595l-.319 4.756c-.106 1.665.956 3.092 2.23 2.973 2.018-.237 4.248-.951 6.372-1.07 3.186-.238 6.054-.119 9.665-.951 2.336-.476 1.486-2.854.212-3.092z" fill="#263238"/><path d="M261.465 407.065l4.779-2.736-6.372-13.794-4.886 5.708 6.479 10.822z" fill="#B55B52"/><path d="M266.35 402.546l-5.947 3.329c-.213.119-.319.476-.319.714l1.274 4.638c.425 1.546 2.018 2.14 3.399 1.546 1.911-.833 3.398-2.854 5.735-4.163 3.398-1.902 5.31-2.378 8.071-5.589 1.911-2.14-.531-3.092-1.593-2.616-2.761 1.308-3.505 2.259-8.815 1.903-.743-.119-1.274-.119-1.805.238z" fill="#263238"/><path d="M200.293 348.08s41.631-6.897 45.879 4.995c7.54 20.811 18.585 45.903 18.585 45.903l-6.585 3.924s-17.204-19.384-23.682-40.195c-7.753 2.735-29.843 8.919-38.87 8.919-9.558 0-15.823-6.303-12.425-21.524.319-1.309 1.381-2.26 2.655-2.26 6.16 0 14.443.238 14.443.238z" fill="#407BFF"/><path opacity=".5" d="M200.293 348.08s41.631-6.897 45.879 4.995c7.54 20.811 18.585 45.903 18.585 45.903l-6.585 3.924s-17.204-19.384-23.682-40.195c-7.753 2.735-29.843 8.919-38.87 8.919-9.558 0-15.823-6.303-12.425-21.524.319-1.309 1.381-2.26 2.655-2.26 6.16 0 14.443.238 14.443.238z" fill="#fff"/><path d="M208.471 349.388s29.948 3.568 30.267 17.125c.425 22.357 6.584 54.465 6.584 54.465l-6.69.714s-11.682-25.211-14.337-47.093c-12.213.833-21.028.595-29.949-.951-9.982-1.665-17.204-9.514-10.089-25.806 5.841-1.427 24.214 1.546 24.214 1.546z" fill="#407BFF"/><path opacity=".7" d="M208.471 349.388s29.948 3.568 30.267 17.125c.425 22.357 6.584 54.465 6.584 54.465l-6.69.714s-11.682-25.211-14.337-47.093c-12.213.833-21.028.595-29.949-.951-9.982-1.665-17.204-9.514-10.089-25.806 5.841-1.427 24.214 1.546 24.214 1.546z" fill="#fff"/><path d="M183.195 345.939l-.743 2.498c-.106.238.106.356.425.475l26.444.833c.212 0 .424-.119.424-.238l.319-2.616c0-.119-.212-.357-.425-.357l-26.019-.832c-.212.118-.425.118-.425.237z" fill="#fff"/><path d="M186.593 349.388h-.743c-.106 0-.212-.119-.212-.238l.424-3.33c0-.118.107-.118.319-.118h.743c.107 0 .213.118.213.237l-.425 3.33c-.106 0-.212.119-.319.119zm20.709.595h-.743c-.106 0-.212-.119-.212-.238l.424-3.33c0-.119.107-.119.319-.119h.743c.107 0 .213.119.213.238l-.425 3.33c0 .119-.106.119-.319.119zm-10.301-.238h-.743c-.106 0-.213-.119-.213-.238l.425-3.33c0-.119.106-.119.319-.119h.743c.106 0 .213.119.213.238l-.425 3.33c-.106 0-.213.119-.319.119z" fill="#407BFF"/><path d="M213.356 317.993c.106 1.308.319 2.854.531 4.281.212 1.427.531 2.854.85 4.281.318 1.427.743 2.736 1.168 4.044a22.272 22.272 0 001.593 3.686l.106.238s0 .119.106.119l.531.595c.425.475.956.832 1.487 1.308 1.062.832 2.23 1.784 3.398 2.616l7.116 5.232c.849.595 1.062 1.903.531 2.855-.425.832-1.381 1.07-2.124.832-2.868-.951-5.523-2.022-8.284-3.449-1.38-.713-2.655-1.308-4.035-2.14a15.757 15.757 0 01-2.124-1.427c-.319-.238-.744-.595-1.169-.952l-.637-.713-.425-.476-.212-.238c-2.018-3.092-3.292-6.421-4.248-9.751-.425-1.665-.85-3.33-1.062-5.114-.106-.832-.212-1.665-.319-2.616-.106-.832-.212-1.665-.212-2.735-.106-2.26 1.487-4.281 3.505-4.4 2.017-.119 3.717 1.546 3.929 3.686v.238z" fill="#B55B52"/><path d="M208.258 305.863c7.01 5.352 7.116 16.173 7.116 16.173l-8.921 2.973s-4.567-3.686-4.567-10.583c-.106-5.114 3.824-10.465 6.372-8.563z" fill="#E8505B"/><path d="M236.932 345.702l-2.124-1.665c-.531-.357-1.168-.595-1.699-.595l-5.31.595-1.487 2.616c2.549 2.259 4.779 2.378 4.779 2.378l2.655 1.665c.425.238.956.238 1.275-.238l2.23-2.497c.531-.476.425-1.665-.319-2.259z" fill="#B55B52"/><path d="M258.491 403.021l6.372-3.448c.425-.238.637-.714.425-1.19l-.85-2.497c-.212-.595-.743-.832-1.274-.476l-7.009 4.4c-.531.357-.638 1.19-.213 1.665l1.487 1.546c.425.119.743.238 1.062 0zm-20.178 20.217l7.009-.714c.425 0 .85-.476.85-.951v-2.616c0-.595-.531-1.071-1.062-.952l-7.965 1.427c-.637.119-.956.833-.637 1.427l.956 2.022c.212.238.531.357.849.357z" fill="#fff"/><path d="M182.664 383.756h39.188c2.017 0 3.717-1.903 3.717-4.162v-6.422c0-2.259-1.7-4.162-3.717-4.162h-39.188c-2.018 0-3.717 1.903-3.717 4.162v6.422c.106 2.378 1.699 4.162 3.717 4.162zm17.05 54.316h5.098v-54.227h-5.098v54.227z" fill="#263238"/><path opacity=".6" d="M199.714 438.072h5.098v-54.227h-5.098v54.227z" fill="#fff"/><path opacity=".2" d="M199.762 383.756h5.098v5.589l-5.098-2.14v-3.449z" fill="#000"/><path d="M215.161 434.535l6.266 2.141c1.274.475.956 2.497-.319 2.497h-37.701c-1.274 0-1.593-2.022-.318-2.497l6.265-2.141c8.496-2.735 17.417-2.735 25.807 0zm-35.152-77.179h31.329c2.867 0 4.885-2.617 4.354-5.946l-2.761-18.433c-.531-3.211-3.292-5.946-6.16-5.946h-31.435c-2.867 0-4.885 2.616-4.354 5.946l2.761 18.433c.531 3.329 3.292 5.946 6.266 5.946z" fill="#263238"/><path d="M207.302 376.264c-.743 0-1.487-.595-1.593-1.546l-5.522-38.054c-.106-.952.425-1.903 1.274-2.022a1.601 1.601 0 011.806 1.427l5.522 38.055c.106.951-.425 1.902-1.274 2.021 0 .119-.107.119-.213.119zm-21.134 0c-.743 0-1.486-.595-1.593-1.546l-5.522-38.054c-.106-.952.425-1.903 1.274-2.022a1.6 1.6 0 011.806 1.427l5.522 38.055c.106.951-.425 1.902-1.274 2.021 0 .119-.106.119-.213.119z" fill="#E8505B"/><path d="M373.459 436.315l-33.408-.13.454-2.852 1.622-10.953 15.115.972s14.79 4.213 16.153 7.518c.129.26.194.519.259.778.519 2.269-.195 4.667-.195 4.667z" fill="#485A7E"/><path d="M373.459 436.315l-33.408-.13.454-2.852 33.149-1.685c.519 2.269-.195 4.667-.195 4.667z" fill="#627A9E"/><path d="M275.958 410.972l26.597 23.787 1.103-2.528 4.346-9.851-12.455-10.047s-13.947-7.194-16.737-5.574c-.194.13-.389.259-.584.454-1.621 1.296-2.27 3.759-2.27 3.759z" fill="#485A7E"/><path d="M275.958 410.972l26.597 23.787 1.103-2.528-25.43-25.018c-1.621 1.296-2.27 3.759-2.27 3.759z" fill="#627A9E"/><path d="M365.156 310.509l-.519 12.25-4.347 101.306-20.239 2.074.843-88.213v-.778l-20.953 57.167-11.612 31.694-15.31-14.907 26.532-91.389 1.557-5.574 44.048-3.63z" fill="#FAD4B0"/><path d="M365.156 310.509l-.519 12.25c-7.266 1.621-14.596 2.917-21.927 2.852-7.979 0-16.088-1.685-23.159-5.898l1.557-5.574 44.048-3.63zm-24.262 26.639l-20.954 57.167a962.791 962.791 0 0112.196-62.352c3.698 1.102 8.758 5.185 8.758 5.185z" fill="#F0BC97"/><path d="M336.677 315.824c-.908 6.028-.843 12.25.325 18.278m3.892-18.278c0 4.537-.26 10.37-.714 11.472-.713 1.686-1.881 1.75-3.568 1.815m-13.623-13.028c-.259 1.491-.584 3.047-1.167 4.473-.584 1.426-1.557 2.722-2.92 3.435m38.015-10.241c.065 1.75.13 3.565.714 5.185.648 1.621 1.621 3.241 3.957 3.5m.324-10.305c-.259 36.426-1.556 73.305-4.216 109.666m-17.062 2.334c6.423-.584 12.845-1.362 19.202-2.399m-65.585-12.962c5.125 4.213 10.185 8.425 15.31 12.638" stroke="#C2856E" stroke-miterlimit="10" stroke-linecap="round"/><path d="M308.699 246.13s-2.594 2.37-7.199 2.37c-6.682 0-22 5-27.5 7-4.125 1.5-10 3-10 3v8s26.618-4.426 28.5-4.88c1.102-.259 8.48-.453 10.88-.259 1.687.13 2.919.259 2.919.259l2.4-15.49z" fill="#FDA68A"/><path d="M313.388 261.38s-3.762.129-8.368.129c.26-5.315 1.362-10.435 3.114-15.361 1.686-.129 2.919-.259 2.919-.259l2.335 15.491z" fill="#E57873"/><path d="M267.351 257.817c-4.507.194-11.942.851-14.364 1.905-1.613.668-7.093 4.21-7.577 5.806-.485 1.648 1.443 6.666 2.512 7.8.407.432 1.586.059 1.633-1.188.056-1.508-.803-3.987-.449-4.963.235-.616 1.647-1.552 2.831-2.08-.581 1.384-.9 2.83-1.02 4.595-.133 2.13.02 3.697 1.13 5.145.456.538 1.47.315 1.754-.194.198.371.556.697 1.141.615.586-.082.76-.492.989-.952.464.33 1.108.094 1.496-.36.333-.404.46-.972.585-1.488.194-.929.229-1.865.679-2.577.453-.764 1.265-1.254 2.131-1.742 3.602-.072 5.808-1.03 7.846-3.14.247-2.334.339-4.777-1.317-7.182z" fill="#FDA68A"/><path d="M253.76 274.329c-.918-2.326-.924-4.981.01-7.288m2.079 6.637c-.71-2.213-.299-4.696.989-6.574" stroke="#D85B5B" stroke-miterlimit="10" stroke-linecap="round" stroke-linejoin="round"/><path d="M380.919 268.574s18.683 6.935 20.435 8.815c1.751 1.88-.973 14-5.45 13.741-4.476-.324-21.991-6.417-21.991-6.417l7.006-16.139z" fill="#F79881"/><path d="M398.759 247.704c-1.492-2.398-2.335-5.25-2.27-8.102 0-.713.064-1.426-.195-2.139-.26-.648-.843-1.296-1.557-1.296-.649 0-1.168.518-1.557 1.101a7.32 7.32 0 00-1.232 4.926c.194 1.75 1.038 3.371 2.465 4.667 1.427.324 2.919.583 4.346.843z" fill="#E57873"/><path d="M390.078 255.517l-22.281-5.704c-.614-.157-.981-.795-.82-1.424l3.16-12.302a1.163 1.163 0 011.405-.854l22.281 5.704c.614.157.981.795.82 1.424l-3.16 12.301a1.161 1.161 0 01-1.405.855z" fill="#E7E6FF"/><path opacity=".25" d="M384.753 245.976c-1.6-.409-3.237.587-3.658 2.225-.421 1.639.534 3.299 2.134 3.708 1.6.41 3.237-.586 3.658-2.225.421-1.638-.534-3.298-2.134-3.708zm-1.34 5.219c-1.214-.311-1.939-1.57-1.62-2.813.32-1.243 1.562-1.999 2.776-1.688 1.213.31 1.938 1.57 1.619 2.813-.319 1.243-1.562 1.999-2.775 1.688z" fill="#91A6F2"/><path opacity=".25" d="M384.678 250.137c.651-.396.87-1.251.491-1.91a1.339 1.339 0 00-1.866-.478 1.418 1.418 0 00-.491 1.91 1.34 1.34 0 001.866.478z" fill="#91A6F2"/><path d="M376.469 241.309l-5.642-1.444-2.02 7.862 5.642 1.445 2.02-7.863z" fill="#D0B5B7"/><path d="M374.45 249.172l-5.643-1.445.406-1.578a.94.94 0 01.986-.715l2.156.184 1.979.875a.94.94 0 01.52 1.1l-.405 1.578.001.001z" fill="#A07666"/><path d="M391.145 246.505l-12.251-3.138a.5.5 0 01-.354-.615.501.501 0 01.606-.369l12.251 3.139a.5.5 0 01.354.614.5.5 0 01-.606.369z" fill="#FB5B16"/><path d="M381.656 246.182l-3.27-.837a.227.227 0 01-.159-.277.226.226 0 01.273-.166l3.271.838c.119.031.19.154.159.277a.228.228 0 01-.274.165zm8.912 2.572l-4.098-1.05a.5.5 0 01-.354-.614.5.5 0 01.606-.369l4.098 1.049a.5.5 0 01.354.615.501.501 0 01-.606.369zm-8.026-1.386l-4.387-1.124a.225.225 0 01-.159-.276.225.225 0 01.273-.166l4.386 1.123a.226.226 0 01.159.277.226.226 0 01-.272.166zm1.459 1.332l-6.077-1.557a.225.225 0 01-.159-.276.226.226 0 01.273-.166l6.078 1.557c.12.031.191.155.16.277a.228.228 0 01-.275.165zm-.23.9l-6.077-1.557a.225.225 0 01-.159-.277.224.224 0 01.272-.165l6.079 1.557c.119.03.19.154.159.276a.229.229 0 01-.274.166zm-3.039.18l-3.269-.838a.224.224 0 01-.159-.276.225.225 0 01.272-.166l3.271.838c.12.03.191.154.159.276a.228.228 0 01-.274.166zm-1.692 1.485l-1.36-.348a.226.226 0 01-.159-.277.226.226 0 01.272-.166l1.36.349c.12.03.191.154.16.276a.227.227 0 01-.273.166z" fill="#91A6F2"/><path d="M383.078 252.299l-2.19-.56a.226.226 0 01-.159-.277.226.226 0 01.273-.166l2.19.561c.119.031.19.154.159.277a.226.226 0 01-.273.165z" fill="#FFB445"/><path d="M379.271 250.365l-1.36-.348a.224.224 0 01-.159-.276.225.225 0 01.272-.166l1.36.348c.12.031.191.154.159.277a.225.225 0 01-.272.165z" fill="#91A6F2"/><path d="M390.544 241.548l-1.912 1.654 5.44 1.393.517-2.011-4.045-1.036zm-15.424-3.952l-5.043-1.291-.516 2.011 3.646.934 1.913-1.654z" fill="#FFB445"/><path d="M376.216 238.956a.742.742 0 01-.111.245.577.577 0 01-.41.248.706.706 0 01-.268-.019l-.471-.121.325-1.267.471.12a.716.716 0 01.245.112.587.587 0 01.239.414.724.724 0 01-.02.268zm-.237-.06a.643.643 0 00.021-.194.396.396 0 00-.043-.161.342.342 0 00-.101-.12.435.435 0 00-.155-.072l-.24-.062-.229.892.24.061a.42.42 0 00.171.011.347.347 0 00.146-.056.418.418 0 00.115-.121.579.579 0 00.075-.178zm1.242.993l-.208-.053a.095.095 0 01-.074-.07l-.154-.471a.085.085 0 00-.023-.04.112.112 0 00-.049-.023l-.098-.025-.127.495-.231-.059.326-1.268.377.097a.821.821 0 01.209.081.467.467 0 01.129.112.288.288 0 01.054.138.413.413 0 01-.139.361.349.349 0 01-.107.06.491.491 0 01-.131.026.212.212 0 01.033.041.298.298 0 01.024.051l.189.547zm-.421-.816a.338.338 0 00.118.012.206.206 0 00.194-.167c.017-.065.009-.12-.023-.165-.033-.044-.092-.077-.178-.099l-.147-.038-.108.42.144.037zm.789.91l-.231-.059.325-1.267.231.059-.325 1.267zm1.661-.925l-.825 1.14-.208-.053-.175-1.396.185.047a.072.072 0 01.044.028.09.09 0 01.019.046l.092.848c.003.027.007.057.006.09.002.032.001.066.002.101.016-.031.03-.06.047-.089a.704.704 0 01.048-.076l.488-.699a.08.08 0 01.037-.03.082.082 0 01.054-.004l.186.047zm.311.28l-.09.35.433.111-.046.181-.433-.111-.092.359.549.14-.048.189-.781-.2.326-1.267.78.2-.048.187-.549-.141-.001.002zm1.442 1.52l-.208-.053a.095.095 0 01-.074-.07l-.155-.471a.095.095 0 00-.024-.041.107.107 0 00-.049-.022l-.098-.026-.127.495-.231-.059.326-1.267.377.096a.806.806 0 01.209.082.438.438 0 01.129.112.297.297 0 01.055.137.42.42 0 01-.14.362.412.412 0 01-.237.085c.012.013.024.026.033.042a.466.466 0 01.024.05l.19.548zm-.421-.816a.361.361 0 00.118.012.229.229 0 00.092-.026.195.195 0 00.064-.057.228.228 0 00.038-.085.187.187 0 00-.024-.164c-.032-.044-.091-.077-.177-.1l-.148-.037-.108.42.145.037zm2.163 1.055l-.05.195-.724-.186.325-1.267.231.059-.275 1.073.493.126zm.346.296l-.231-.059.326-1.267.23.059-.325 1.267zm1.203-.011a.043.043 0 01.029.024l.065.123a.513.513 0 01-.223.1.656.656 0 01-.278-.017.61.61 0 01-.235-.111.554.554 0 01-.152-.183.6.6 0 01-.067-.236.82.82 0 01.026-.27.792.792 0 01.111-.25.632.632 0 01.178-.172.56.56 0 01.227-.083.642.642 0 01.26.015c.09.023.166.059.228.107a.572.572 0 01.148.164l-.105.09a.062.062 0 01-.023.014.053.053 0 01-.033 0 .06.06 0 01-.025-.015 3.59 3.59 0 00-.056-.06.366.366 0 00-.104-.073.398.398 0 00-.244-.038.353.353 0 00-.142.058.412.412 0 00-.113.121.598.598 0 00-.076.181.606.606 0 00-.019.198.465.465 0 00.044.161.36.36 0 00.237.186.72.72 0 00.086.017.307.307 0 00.142-.013.393.393 0 00.068-.03l.022-.008c.01-.001.016-.002.024 0zm.714-.649l-.09.351.433.111-.047.18-.433-.11-.092.358.549.141-.048.188-.78-.199.325-1.268.78.2-.048.187-.549-.141v.002zm1.844.273l-.325 1.267-.118-.03a.087.087 0 01-.043-.021.114.114 0 01-.028-.04l-.429-1.011c-.007.04-.015.076-.023.108l-.2.778-.202-.052.326-1.268.12.031.026.008a.158.158 0 01.016.01.044.044 0 01.013.014c.003.006.008.014.011.025l.431 1.014.011-.061.013-.056.198-.77.203.052v.002zm.875.47c-.011.01-.019.018-.028.02-.009.005-.018.004-.031.001a.07.07 0 01-.035-.024c-.011-.013-.026-.026-.042-.044a.525.525 0 00-.06-.048.303.303 0 00-.176-.047.206.206 0 00-.069.017.125.125 0 00-.049.042.186.186 0 00-.029.062.115.115 0 00.005.08.217.217 0 00.052.068.6.6 0 00.082.06l.097.063c.033.022.064.046.094.07a.347.347 0 01.076.087c.021.032.034.07.041.11a.345.345 0 01-.01.14.47.47 0 01-.07.154.393.393 0 01-.275.162.569.569 0 01-.405-.119.575.575 0 01-.149-.167l.097-.095a.074.074 0 01.028-.014.055.055 0 01.031-.001.093.093 0 01.042.031l.048.055c.019.02.043.041.07.061.027.02.061.035.105.046.065.017.12.015.165-.008a.186.186 0 00.09-.124.137.137 0 00-.004-.088.185.185 0 00-.051-.069.7.7 0 00-.082-.061 1.175 1.175 0 01-.19-.128.342.342 0 01-.075-.086.29.29 0 01-.04-.116.408.408 0 01.075-.279.356.356 0 01.108-.096.438.438 0 01.329-.036.604.604 0 01.194.088c.055.039.1.085.131.139l-.09.094zm.523.088l-.09.35.433.111-.046.181-.433-.111-.092.359.549.141-.048.188-.781-.2.326-1.267.78.2-.048.187-.549-.141-.001.002z" fill="#FA3C32"/><path d="M373.384 249.816l-4.096-1.049a.227.227 0 01-.159-.277.227.227 0 01.273-.166l4.095 1.05c.119.03.191.154.159.276a.226.226 0 01-.272.166zm16.499 2.706l-2.464-.631-.381 1.484 2.463.631.382-1.484z" fill="#91A6F2"/><path d="M372.489 245.097c.675.173 1.405-.394 1.629-1.266.224-.873-.142-1.72-.818-1.893-.676-.173-1.405.394-1.63 1.266-.224.873.143 1.72.819 1.893z" fill="#A07666"/><path d="M371.026 246.027c-.026-.086.024-.15.08-.215.055-.065.117-.127.188-.188.067-.061.14-.12.206-.182.066-.063.122-.126.168-.193a1.189 1.189 0 00.167-.428c.013-.076.018-.152.013-.233a.783.783 0 00-.058-.25 1.157 1.157 0 01.566-1.504c.56-.26 1.217-.01 1.466.56a1.157 1.157 0 01-.353 1.372.778.778 0 00-.171.192 1.038 1.038 0 00-.153.432c-.01.077-.015.153-.008.233.006.081.027.164.055.25.027.086.063.173.092.259.032.088.058.172.075.255.018.084.03.164-.034.227a1.378 1.378 0 01-1.98-.033 1.409 1.409 0 01-.319-.554z" fill="#A07666"/><path d="M377.456 249.687a.187.187 0 00-.102-.241.184.184 0 00-.238.107.187.187 0 00.102.241c.094.037.2-.011.238-.107zm-.239.923a.187.187 0 00-.068-.254.182.182 0 00-.249.073.187.187 0 00.068.253c.088.05.199.018.249-.072z" fill="#FB5B16"/><path d="M371.624 243.729c.148.004.275-.158.283-.362.009-.204-.105-.373-.253-.377-.148-.005-.275.157-.283.361-.008.204.105.373.253.378zm2.628.36c.091-.183.058-.386-.074-.453s-.313.027-.404.21c-.091.183-.058.385.074.453.132.067.313-.027.404-.21z" fill="#A07666"/><path d="M371.602 243.101s.07-.499.32-.873c.249-.375.781-.527.978-.393.245-.258.827 0 1.094.154.268.154.572.723.436 1.289-.072.303-.33.628-.33.628l-2.498-.805z" fill="#A07666"/><path d="M385.441 254.394l-2.412-.618a.064.064 0 01-.044-.078.062.062 0 01.076-.046l2.412.618a.064.064 0 01.045.077.065.065 0 01-.077.047zm4.629 1.186l-3.225-.825a.064.064 0 01-.044-.078.062.062 0 01.076-.046l3.217.824c.078.01 1.095.117 1.333-.807l2.396-9.331a.063.063 0 01.076-.046.064.064 0 01.045.077l-2.397 9.331c-.27 1.051-1.462.903-1.473.902l-.004-.001zm4.389-12.491a.064.064 0 01-.044-.078l.169-.66c.011-.043.25-1.085-.775-1.347l-7.3-1.869a.064.064 0 01-.044-.078.062.062 0 01.076-.046l7.3 1.869c1.144.293.867 1.49.864 1.5l-.169.661c-.011.035-.044.056-.077.048zm-9.388-4.323l-3.328-.852a.065.065 0 01-.045-.078.064.064 0 01.077-.046l3.328.853a.064.064 0 01.045.077c-.011.034-.043.055-.077.046zm-5.034-1.289l-.754-.194a.062.062 0 01-.045-.077.063.063 0 01.076-.046l.755.193a.064.064 0 01.045.077.065.065 0 01-.077.047zm-11.388 4.391a.062.062 0 01-.044-.077l1.413-5.501c.125-.487.349-.827.668-1.01a1.18 1.18 0 01.87-.109l5.675 1.453a.062.062 0 01.044.077.064.064 0 01-.076.047l-5.679-1.454c-.004-.001-.4-.119-.776.098-.285.164-.49.477-.606.929l-1.413 5.501a.061.061 0 01-.076.046zm-.557 2.17a.063.063 0 01-.044-.077l.262-1.022a.063.063 0 01.076-.046.062.062 0 01.044.077l-.262 1.021a.064.064 0 01-.076.047zm3.582 6.937c-1.989-.509-3.589-.945-3.906-1.109-.959-.493-.893-1.118-.89-1.146l.002-.007.802-3.124a.062.062 0 11.121.031l-.801 3.119c-.003.052-.024.579.824 1.015.914.47 13.194 3.378 13.318 3.409a.062.062 0 01.045.075c-.009.034-.042.056-.075.047a646.075 646.075 0 01-9.44-2.31z" fill="#C4968F"/><path d="M399.797 261.12c1.297-1.814 1.881-9.916-.389-13.805-1.168-1.945-5.579-4.991-9.472-3.047-1.816.908-2.919 3.112-2.075 5.25-.714.454-1.168 1.232-1.168 2.075 0 .842.519 1.62 1.232 2.268-.519.583-.778 1.426-.583 2.139.194.778.778 1.426 1.557 1.88-.779.842-.584 2.333.194 3.176.779.907 1.946 1.296 3.114 1.49 2.66.648 6.033.843 7.59-1.426z" fill="#FDA68A"/><path d="M388.379 249.13c2.011-1.362 4.736-1.621 6.942-.713m-6.293 5.444c2.011-.259 4.022-.259 6.033.065m-5.644 3.824a12.894 12.894 0 015.45.389" stroke="#D85B5B" stroke-miterlimit="10" stroke-linecap="round" stroke-linejoin="round"/><path d="M400.11 256.275s6.579 26.238 3.944 29.809c-2.571 3.584-7.126 5.514-10.484 4.445-3.422-1.082-3.102-6.306-2.476-14.708.32-4.233 1.253-14.821 1.253-14.821l7.763-4.725z" fill="#FDA68A"/><path d="M375.081 288.407c-4.152-.907-8.174-2.398-11.677-3.435.065 2.463.065 4.861.13 7.519.065 2.074.065 4.277.13 6.676 1.167.907 1.297 2.851.454 4.537 1.038 3.111 1.687 6.351 2.205 9.463-14.401 4.472-31.657 11.083-47.55 3.111-.065-4.343.065-9.334.324-14.584.584-12.444 1.817-26.379 2.725-36.62-4.282.13-8.498.519-12.715.454-1.168-6.547-1.427-13.417-.519-20.093 7.914-1.685 13.688-2.592 18.229-2.268 3.698.259 8.044 2.398 12.39 5.25 2.79 1.814 5.579 3.888 8.239 5.963 4.606-.454 8.368-.325 12.001.583 7.201 1.685 13.818 6.028 25.17 13.676-2.011 6.676-5.125 13.805-9.536 19.768z" fill="#E8505B"/><path d="M359.382 254.898c-1.232 4.926-8.044 10.5-14.661 9.333-8.238-1.425-8.563-11.666-5.579-15.814 2.79 1.814 5.579 3.889 8.239 5.963 4.606-.519 8.369-.324 12.001.518z" fill="#A3383F"/><path opacity=".302" d="M366.259 313.231c-14.402 4.473-31.658 11.084-47.551 3.112-.065-4.343.065-9.334.324-14.584a19.96 19.96 0 003.828 2.139c3.892 1.556 8.109 1.88 12.26 1.75 6.228-.194 12.456-1.491 18.035-4.342 4.022-2.075 7.654-5.056 10.314-8.686.065 2.074.065 4.278.13 6.676 1.167.908 1.297 2.852.454 4.537 1.103 2.982 1.687 6.223 2.206 9.398z" fill="#E8505B"/><path d="M363.145 284.194c-.713-2.916-1.622-6.74-1.557-9.787.065-3.046 1.103-7.194 3.244-9.333-2.53 6.806-2.141 13.222-1.687 19.12zm-.584 0c-3.243-3.694-4.865-6.74-5.319-13.351-2.076 4.407 1.167 11.277 5.319 13.351zm-40.35-20.092c.325-4.732 1.622-9.463 3.893-13.611-4.152 3.24-5.709 9.398-3.893 13.611zM320.524 263c-1.556-4.083-2.205-8.556-1.816-12.898-1.816 4.018-1.232 9.009 1.816 12.898z" fill="#AE3E47"/><path d="M354.907 248.546c-.26 2.528.064 4.991.843 7.324-2.206 2.398-4.217 3.695-6.357 4.667-1.233.583-2.595 1.102-3.958.972-1.686-.194-3.113-1.296-4.087-2.722-.973-1.426-1.492-3.046-1.946-4.667.519-.583.973-1.231 1.363-1.879 1.038-1.815 1.492-3.76 1.362-5.639 4.93-.908 9.666-2.269 14.272-3.954-.844 1.945-1.298 3.889-1.492 5.898z" fill="#FDA68A"/><path d="M356.399 242.713c-.779 1.88-1.298 3.824-1.492 5.833-4.087 2.787-9.147 4.148-14.142 3.759 1.038-1.814 1.492-3.759 1.362-5.638 4.93-.973 9.666-2.269 14.272-3.954zm-25.43-12.509c-1.103 1.815.13 4.472 2.724 6.027 2.595 1.556 5.579 1.297 6.682-.453 1.103-1.815-.13-4.472-2.724-6.028-2.595-1.556-5.579-1.361-6.682.454z" fill="#E57873"/><path d="M339.207 247.444c8.823 4.473 20.565-.583 25.56-9.722 1.167-2.074 1.816-4.213 2.011-6.287.778-6.676-2.79-12.898-8.563-15.361l-.973-.389c-3.893-1.296-7.136-2.009-10.185-.778-2.465.973-4.801 3.176-7.331 7.324-1.102 1.75-2.205 3.889-3.308 6.352-3.503 7.713-3.763 15.491 2.789 18.861z" fill="#FDA68A"/><path d="M339.727 222.231c2.27 2.139 5.384 2.204 6.941 2.852 1.686.713 3.178 2.334 4.022 2.593.908.259 4.087.389 5.254 1.167 1.233.777 3.763 1.49 3.763 1.49s1.232 9.852 1.492 10.111l4.8-5.703.844-3.241c.778-6.676-2.79-12.898-8.563-15.361l-11.223-1.167c-2.465.972-4.8 3.176-7.33 7.259z" fill="#E57873"/><path d="M338.688 211.343c1.298-1.491.13-3.306 1.233-4.991.714-1.167 1.752-1.491 2.984-1.815 1.622-.389 2.335-.583 3.438-1.815.519-.583.714-.972 1.492-1.231 1.363-.454 2.725.324 3.633 1.231 1.168 1.037 1.233 2.074 2.919 2.528 1.103.324 2.271.259 3.309.713 1.492.713 2.465 2.074 3.114 3.5.713 1.685.713 2.852 2.27 3.954 1.168.777 2.271.777 3.503 1.49 1.427.908 2.4 2.204 3.179 3.63.324.583.584 1.231.843 1.88.908 2.268 2.141 3.5 1.946 6.027-.454 5.769-4.087 10.889-7.719 15.297 0 .065 0 .194-.065.259-.26.454-.584.778-.973 1.037l-.065.065c0 .065-.065.065-.065.065-.454.259-.973.324-1.557.194-1.816-.324-1.492-1.62-1.492-3.111-.065-3.111.519-6.287.454-9.333-.065-1.75.13-.973-1.233-1.491-1.037-.389-1.816-.843-2.724-1.296-2.335-1.167-4.93-.649-7.071-2.074-1.622-1.102-2.53-2.139-4.541-2.528-1.233-.26-2.271-.389-3.373-1.037-1.687-1.037-2.206-2.852-3.633-4.148-1.038-.908-1.946-1.621-2.076-3.112v-.518c0-1.75 1.233-2.139 2.27-3.37z" fill="#6B393A"/><path d="M336.288 214.648c.065-.065.13-.065.195-.13.908-.777 2.076-1.166 3.114-1.62 1.037-.518 2.14-1.167 2.594-2.268.39-.843.454-1.945 1.363-2.334.778-.324 1.686.195 2.465-.065 1.362-.453 1.297-2.787 2.659-3.176.779-.259 1.622.389 2.141 1.038.519.648 1.038 1.425 1.817 1.75.973.388 2.14-.065 3.178.194 1.233.259 2.076 1.361 2.595 2.528.519 1.166.843 2.333 1.557 3.37 1.362 1.815 3.763 2.333 5.903 2.982 1.363.388 2.79.972 3.828 1.879-.779-1.426-1.687-2.722-3.179-3.629-1.168-.713-2.27-.713-3.503-1.491-1.622-1.102-1.557-2.269-2.27-3.954-.649-1.491-1.557-2.852-3.114-3.5-1.038-.518-2.206-.389-3.309-.713-1.621-.454-1.751-1.426-2.919-2.528-.973-.907-2.27-1.62-3.633-1.231-.778.259-.973.648-1.492 1.231-1.103 1.232-1.816 1.426-3.438 1.815-1.232.324-2.27.648-2.984 1.815-1.103 1.685.065 3.5-1.233 4.991-.973.972-2.205 1.361-2.335 3.046z" fill="#7F4C56"/><path d="M358.02 240.444c-.324 2.075 1.817 4.149 4.801 4.602 2.984.519 5.644-.777 5.968-2.852.324-2.074-1.816-4.148-4.801-4.601-2.919-.519-5.643.777-5.968 2.851z" fill="#FDA68A"/><path d="M347.251 234.157c-.259.649-.13 1.297.26 1.426.389.13.908-.259 1.167-.907.26-.648.13-1.296-.259-1.426-.389-.13-.908.259-1.168.907zm-9.6-3.176c.259-.648.778-1.037 1.167-.842.39.129.519.778.26 1.426-.26.648-.779 1.037-1.168.842-.389-.129-.519-.777-.259-1.426z" fill="#474E54"/><path d="M343.035 226.898c.324 2.009-.519 4.213-2.141 5.509-.649.519-1.427.973-1.622 1.75-.194.778.26 1.621.714 2.269" stroke="#D85B5B" stroke-miterlimit="10" stroke-linecap="round" stroke-linejoin="round"/><path d="M354.453 231.954c-.325-1.426-.973-2.787-2.141-3.5-1.103-.648-2.79-.454-3.763.778 2.336.194 4.476 1.361 5.904 2.722zm-12.197-5.056c-.259-.713-.583-1.361-1.102-1.88-.519-.518-1.233-.907-1.947-.907-.713 0-1.492.389-1.816 1.102 1.946.065 3.763.843 4.865 1.685z" fill="#6B393A"/><path d="M339.662 238.37c2.724.973 5.708 1.037 8.563.324.973 1.167.713 3.112-.39 4.149-1.038 1.101-2.724 1.49-4.281 1.296-1.362-.195-2.725-.778-3.568-1.815-.714-1.102-.973-2.722-.324-3.954z" fill="#fff"/></g><defs><clipPath id="clip0_8_16419"><path fill="#fff" d="M0 0h531v445H0z"/></clipPath></defs></svg>