<svg width="154" height="40" fill="none" xmlns="http://www.w3.org/2000/svg"><path fill-rule="evenodd" clip-rule="evenodd" d="M12.913 1.293h1.424v1.32h-1.424v-1.32zm21.49 0h1.425v1.32h-1.424v-1.32zm-4.303 0h1.424v1.32H30.1v-1.32zm-4.305 0h1.425v1.32h-1.425v-1.32zm-4.274 0h1.425v1.32H21.52v-1.32zm-4.304 0h1.425v1.32h-1.425v-1.32z" fill="#000"/><path fill-rule="evenodd" clip-rule="evenodd" d="M37.283 2.64h1.425v1.321h-1.425v2.641h-1.455V9.27h-1.425v2.641H32.98v2.668h-1.455v2.669H30.1v2.641h-1.425v2.669H27.25v2.64H1.454v-1.32h24.341v-1.32h1.455V19.89h1.424v-2.641H30.1V14.58h1.425v-2.668h1.455V9.27h1.424V6.602h1.425v-2.64h1.455V2.64z" fill="#4A7E7C"/><path fill-rule="evenodd" clip-rule="evenodd" d="M17.217 7.95h-2.85v1.32h14.248V7.95H17.217zm18.611-5.31h1.425v1.321h-1.425v2.641h-1.425v2.641H32.98v2.641h-1.425v2.64H30.13v2.641h-1.425v2.641H27.25v2.641h-1.425v1.321H1.484v-2.64H2.91v-2.641h1.425v-2.641H5.76v-2.641h1.424v-2.641h1.425V7.922h1.425v-2.64h1.425V2.64h1.425v1.32h1.425V2.64h2.849v1.32h1.425V2.64h2.85v1.32h1.425V2.64h2.849v1.32h1.425V2.64h2.85v1.32h1.424V2.64h2.85v1.32h1.425V2.64h.148zm-8.578 9.271v-1.32H12.942v1.32H27.25z" fill="#9FF"/><path fill-rule="evenodd" clip-rule="evenodd" d="M14.337 7.95h14.338v1.32H14.337V7.95zm-1.424 2.641H27.25v1.32H12.913v-1.32z" fill="#000"/><path fill-rule="evenodd" clip-rule="evenodd" d="M0 21.21h1.425v-2.641H2.85v-2.641h1.424v-2.641H5.7v-2.64h1.425V8.005H8.55V5.364h1.425V2.64H11.4V1.32h1.424V0h2.85v1.32h1.425V0h2.85v1.32h1.424V0h2.85v1.32h1.425V0h2.85v1.32h1.424V0h2.85v1.32h1.425V0h2.849v1.32h2.85v1.32h1.425v1.321h-2.85v2.641h-1.425v2.641h-1.424v2.641h-1.425v2.64H32.77v2.641h-1.425v2.641H29.92v2.641h-1.424v2.641H27.25v-2.64h1.425v-2.641h1.424v-2.641h1.425v-2.641h1.425v-2.641h1.425v-2.64h1.425V6.602h1.425V3.961h1.424V2.64H35.8v1.32h-1.425V2.64h-2.85v1.32H30.1V2.64h-2.85v1.32h-1.425V2.64h-2.85v1.32H21.55V2.64h-2.909v1.32h-1.424V2.64h-2.85v1.32h-1.425V2.64h-1.425v2.64h-1.484v2.641H8.608v2.641H7.183v2.641H5.76v2.641H4.334v2.641H2.909v2.641H1.484v3.962H.06V21.21H0zM35.828 2.64V1.32h-1.424v1.32h1.424zm-4.304 0V1.32H30.1v1.32h1.425zm-4.274 0V1.32h-1.425v1.32h1.425zm-4.304 0V1.32H21.52v1.32h1.425zm-4.305 0V1.32h-1.424v1.32h1.424zm-4.304 0V1.32h-1.425v1.32h1.425zM1.454 25.198H27.25v1.32H1.454v-1.32z" fill="#000"/><path fill-rule="evenodd" clip-rule="evenodd" d="M12.913 31.828h25.646v1.32H12.942v-1.32h-.03zm0-3.961h25.646v1.32H12.942v-1.32h-.03zm21.49-15.955h4.275v1.32h-4.274v-1.32zM32.98 15.9h5.699v1.32H32.98V15.9zm-4.304 7.978h9.974v1.32h-9.974v-1.32zm1.424-3.989h8.55v1.32H30.1v-1.32z" fill="gray"/><path fill-rule="evenodd" clip-rule="evenodd" d="M12.913 33.176h15.673v1.32H12.942v-1.32h-.03zm27.22 1.32v1.321h-1.425v1.32H14.367v-1.32h22.797v-1.32h1.425V11.994h-2.85v-2.64h1.425V6.712h1.425V4.071h1.425v30.425h.119zm-5.73-21.237h2.85V15.9H32.98v-1.32h1.425v-1.32zm-2.879 3.99H35.8v2.64h-4.275v-2.64zm-1.425 3.96h4.275v2.641h-5.699v-1.32h1.424v-1.32zm-2.85 3.99h5.701v2.64H12.942v-1.32h14.249v-1.32h.059zm-14.336 3.988h18.522v2.641H12.942v-1.32c-.03 0-.03-1.32-.03-1.32z" fill="#fff"/><path fill-rule="evenodd" clip-rule="evenodd" d="M31.524 33.176h7.124v1.32h-1.425v1.321H12.942v-1.32h15.673v-1.32h2.909zm5.759-19.917h1.425V15.9h-1.425v-2.64zm-1.455 3.99h2.85v2.64h-2.85v-2.64zm-1.425 3.96h4.275v2.641h-4.275v-2.64zm2.88 3.99h1.425v2.64h-5.7V25.2h4.275zm0 3.988h1.425v2.641h-7.124v-2.64h5.699z" fill="#000"/><path fill-rule="evenodd" clip-rule="evenodd" d="M41.557 35.817v1.348h-1.424v1.32H15.762v-1.32h22.946v-1.348h1.425V3.962h1.424v31.853z" fill="gray"/><path fill-rule="evenodd" clip-rule="evenodd" d="M15.762 38.485h24.371v-1.32h1.424V3.962h1.455v33.203h-1.455v1.32h-1.424v1.32H15.762v-1.32h-1.425v-1.32h-1.424v-1.348h-1.425v-9.298h1.425v9.297h1.424v1.349h1.425v1.32z" fill="#000"/><path d="M77.15 25.924v-4.692h-2.559v4.692h2.559zM69.559 11.77V7.08H67v21.229h2.559V16.54h2.559v-4.69h-2.56v-.08zm10.065 9.461v-4.69h-2.56v4.69h2.56zM82.181 7.08v4.69h-2.558v4.692h2.558v11.767h2.56V7h-2.56v.08zm-7.59 14.152v-4.69h-2.56v4.69h2.56zm23.71 2.386v-9.462h-2.558v9.462h2.559zm-7.59 7.076h2.559v-4.69h2.558v-2.386h-5.032v7.076h-.085zm0 2.306v-2.385h-5.033V33h5.033zm0-9.382v-9.462h-2.56v9.462h2.56zm13.306-9.462h-2.559v14.153h2.559v-9.462h2.558v-2.385h-2.558v-2.306zm10.15 14.153V16.54h-2.559v11.77h2.559zm-2.559-11.768v-2.385h-5.033v2.385h5.033zm15.779 11.768v-2.386h-7.591v2.386h7.591zm-7.591-2.386v-9.461h-2.559v9.462h2.559zm7.591-9.382v-2.385h-7.591v2.385h7.591zm2.559 9.383v-9.462h-2.559v9.462h2.559zm8.274-9.383v-2.385h-2.559V9.465h-2.559v16.538h2.559v-9.462h2.559zm0 11.768v-2.386h-2.559v2.386h2.559zm13.22 0v-2.386h-7.591v2.386h7.591zm2.56-2.386v-2.385h-2.559v2.386H154zm-2.559-9.382v-2.385h-7.591v2.385h7.591zM154 21.232v-4.69h-2.559v2.385h-7.591V16.54h-2.559v9.462h2.559v-4.691H154v-.08z" fill="#000"/></svg>