<svg width="18" height="16" fill="none" xmlns="http://www.w3.org/2000/svg"><path fill-rule="evenodd" clip-rule="evenodd" d="M5.19.52h.573v.53H5.19V.52zm8.639 0h.572v.53h-.572V.52zm-1.73 0h.572v.53H12.1V.52zm-1.73 0h.572v.53h-.573V.52zM8.65.52h.573v.53H8.65V.52zm-1.73 0h.573v.53H6.92V.52z" fill="#000"/><path fill-rule="evenodd" clip-rule="evenodd" d="M14.986 1.062h.572v.53h-.572v1.061H14.4v1.073h-.573v1.061h-.572V5.86h-.585v1.073h-.573v1.062h-.572v1.072h-.573v1.062H.584v-.531h9.784v-.53h.585V7.994h.573V6.933h.572V5.861h.573V4.787h.585V3.726h.572V2.654h.573V1.593h.585v-.531z" fill="#4A7E7C"/><path fill-rule="evenodd" clip-rule="evenodd" d="M6.92 3.196H5.775v.53h5.727v-.53H6.92zm7.481-2.134h.573v.53H14.4v1.061h-.573v1.062h-.572v1.061h-.573v1.062h-.573V6.9h-.572v1.062h-.585v1.061h-.573v.532H.596V8.493h.573V7.43h.573V6.37h.573V5.307h.572v-1.06h.573V3.184h.573V2.123h.572V1.062h.573v.53h.573v-.53h1.145v.53h.573v-.53h1.145v.53h.573v-.53h1.145v.53h.573v-.53h1.146v.53h.572v-.53h1.146v.53h.572v-.53h.06zm-3.448 3.726v-.53H5.202v.53h5.751z" fill="#fff"/><path fill-rule="evenodd" clip-rule="evenodd" d="M5.763 3.196h5.763v.53H5.763v-.53zM5.19 4.257h5.763v.53H5.19v-.53z" fill="#000"/><path fill-rule="evenodd" clip-rule="evenodd" d="M0 8.525h.573V7.464h.572V6.403h.573V5.34h.573V4.28h.573V3.217h.572v-1.06h.573V1.061h.573V.53h.572V0H6.3v.53h.573V0h1.145v.53h.573V0h1.145v.53h.573V0h1.145v.53h.573V0h1.145v.53h.573V0h1.145v.53h1.146v.532h.573v.53h-1.146v1.061h-.573v1.062h-.572v1.061h-.573v1.062h-.573V6.9H12.6v1.062h-.573v1.061h-.573v1.062h-.5V9.023h.572V7.96h.572V6.9h.573V5.839h.573V4.776h.573v-1.06h.572V2.653h.573v-1.06h.573v-.531h-1.146v.53h-.572v-.53H12.67v.53h-.57v-.53h-1.146v.53h-.573v-.53H9.235v.53h-.573v-.53H7.493v.53H6.92v-.53H5.775v.53h-.573v-.53H4.63v1.061h-.596v1.062H3.46v1.061h-.573v1.062h-.572v1.061h-.573v1.062h-.573v1.061H.597v1.592H.024V8.525H0zm14.401-7.463V.53h-.572v.53h.572zm-1.73 0V.53H12.1v.53h.572zm-1.718 0V.53h-.573v.53h.573zm-1.73 0V.53H8.65v.53h.573zm-1.73 0V.53H6.92v.53h.573zm-1.73 0V.53H5.19v.53h.573zM.584 10.129h10.369v.53H.584v-.53z" fill="#000"/><path fill-rule="evenodd" clip-rule="evenodd" d="M5.19 12.793H15.5v.531H5.202v-.53H5.19zm0-1.592H15.5v.53H5.202v-.53H5.19zm8.639-6.413h1.718v.53h-1.718v-.53zm-.573 1.603h2.291v.53h-2.291v-.53zm-1.73 3.207h4.009v.53h-4.009v-.53zm.572-1.604h3.437v.531h-3.436v-.53z" fill="gray"/><path fill-rule="evenodd" clip-rule="evenodd" d="M5.19 13.335h6.3v.53H5.202v-.53H5.19zm10.941.53v.532h-.572v.53H5.775v-.53h9.163v-.531h.573V4.82h-1.145V3.759h.572V2.698h.573V1.636h.573v12.23h.047zM13.828 5.33h1.146v1.06h-1.718v-.53h.572v-.53zm-1.157 1.603h1.718v1.061h-1.718V6.933zM12.1 8.525h1.718v1.061h-2.291v-.53h.572v-.53zm-1.146 1.604h2.291v1.061H5.202v-.53h5.727v-.531h.024zM5.19 11.732h7.445v1.061H5.202v-.53c-.012 0-.012-.531-.012-.531z" fill="#fff"/><path fill-rule="evenodd" clip-rule="evenodd" d="M12.671 13.335h2.864v.53h-.573v.532h-9.76v-.531h6.3v-.53h1.169zm2.315-8.005h.573v1.06h-.573V5.33zM14.4 6.933h1.146v1.061H14.4V6.933zm-.572 1.592h1.718v1.062h-1.718V8.526zm1.157 1.604h.573v1.061h-2.291v-1.061h1.718zm0 1.603h.573v1.061h-2.864v-1.061h2.291z" fill="#000"/><path fill-rule="evenodd" clip-rule="evenodd" d="M16.704 14.397v.541h-.573v.531H6.336v-.53h9.223v-.542h.572V1.593h.573v12.802z" fill="gray"/><path fill-rule="evenodd" clip-rule="evenodd" d="M6.336 15.47h9.794v-.532h.573V1.594h.585v13.343h-.585v.531h-.573V16H6.336v-.53h-.573v-.532H5.19v-.541h-.573v-3.738h.573v3.737h.573v.542h.573v.531z" fill="#000"/></svg>