<svg width="37" height="42" fill="none" xmlns="http://www.w3.org/2000/svg"><path fill-rule="evenodd" clip-rule="evenodd" d="M30.862 5.203A17.765 17.765 0 105.738 30.326l11.034 11.055a2.095 2.095 0 002.973 0l11.117-11.16a17.691 17.691 0 000-25.018z" fill="#3461D9"/><path d="M25.75 10.6c-1.924-1.99-4.532-3.107-7.25-3.107-2.72 0-5.328 1.118-7.25 3.107-1.924 1.99-3.004 4.687-3.004 7.5 0 2.813 1.08 5.51 3.003 7.5l6.368 6.6a1.204 1.204 0 00.858.37 1.184 1.184 0 00.858-.37l6.416-6.663c1.915-1.98 2.99-4.667 2.99-7.468 0-2.802-1.075-5.488-2.99-7.469zm-1.73 13.15l-5.52 5.738-5.522-5.738a8.164 8.164 0 01-2.134-4.135 8.334 8.334 0 01.445-4.664 8.022 8.022 0 012.875-3.623 7.622 7.622 0 014.336-1.36 7.62 7.62 0 014.336 1.36 8.022 8.022 0 012.875 3.623 8.334 8.334 0 01.445 4.664 8.164 8.164 0 01-2.134 4.135zm-9.147-9.488a5.496 5.496 0 00-1.523 3.813 5.5 5.5 0 001.523 3.813 5.158 5.158 0 002.653 1.474 5.047 5.047 0 002.999-.292 5.246 5.246 0 002.34-1.96c.577-.877.89-1.911.901-2.973a5.461 5.461 0 00-.387-2.065 5.316 5.316 0 00-1.135-1.747 5.193 5.193 0 00-1.68-1.188 5.05 5.05 0 00-3.992-.034 5.186 5.186 0 00-1.699 1.16zm5.667 5.85a2.743 2.743 0 01-3.558.386 2.906 2.906 0 01-1.139-1.573 3.007 3.007 0 01.087-1.963 2.88 2.88 0 011.274-1.46 2.733 2.733 0 011.879-.29 2.8 2.8 0 011.63 1.011 2.98 2.98 0 01.637 1.852 2.96 2.96 0 01-.87 2.038h.06z" fill="#fff"/></svg>