<svg width="14" height="14" fill="none" xmlns="http://www.w3.org/2000/svg"><g clip-path="url(#clip0_181_140)"><path d="M13.471 7.23a6.689 6.689 0 01-13.376 0 .557.557 0 011.114 0 5.573 5.573 0 105.574-5.573.557.557 0 010-1.115A6.696 6.696 0 0113.47 7.23zm-7.648-.557h-1.27a.557.557 0 100 1.115h1.27A1.111 1.111 0 107.34 6.27V4.444a.557.557 0 00-1.114 0V6.27a1.115 1.115 0 00-.403.403zm-4.71-1.235a.557.557 0 100-1.115.557.557 0 000 1.115zm1.334-1.994a.557.557 0 100-1.114.557.557 0 000 1.114zM4.43 2.126a.557.557 0 100-1.115.557.557 0 000 1.115z" fill="#fff"/></g><defs><clipPath id="clip0_181_140"><path fill="#fff" transform="translate(.095 .542)" d="M0 0h13.376v13.376H0z"/></clipPath></defs></svg>