<svg width="21" height="21" fill="none" xmlns="http://www.w3.org/2000/svg"><path d="M9.572 5.32a6.13 6.13 0 01.928-.07c2.782 0 5.398 2.003 6.92 5.25-.232.494-.495.973-.787 1.435a.875.875 0 00.044 1.008.875.875 0 001.444-.09 13.8 13.8 0 001.059-2.012.876.876 0 000-.691C17.412 6.046 14.087 3.5 10.5 3.5a6.8 6.8 0 00-1.225.105.888.888 0 00.297 1.75V5.32zM3.246 2.003a.878.878 0 10-1.243 1.243L4.716 5.95a12.792 12.792 0 00-2.896 4.2.875.875 0 000 .7c1.767 4.103 5.092 6.65 8.68 6.65a8.103 8.103 0 004.418-1.348l2.835 2.844a.877.877 0 001.502-.621.875.875 0 00-.26-.622L3.246 2.003zm5.565 8.042l2.144 2.143a1.75 1.75 0 01-2.144-2.144zM10.5 15.75c-2.783 0-5.4-2.004-6.913-5.25A10.579 10.579 0 015.95 7.183L7.498 8.75a3.5 3.5 0 004.752 4.75l1.39 1.375a6.336 6.336 0 01-3.14.875z" fill="#fff"/></svg>