<svg width="20" height="22" fill="none" xmlns="http://www.w3.org/2000/svg"><path d="M19.16 15.13l-2-1.15.89-.24a1.001 1.001 0 00-.123-1.969 1 1 0 00-.397.039l-2.82.76L12 11l2.71-1.57 2.82.76h.26a1.008 1.008 0 10.26-2L17.16 8l2-1.15a1.005 1.005 0 00.112-1.665 1.004 1.004 0 00-1.112-.075L16 6.37l.3-1.11a1 1 0 10-1.93-.52l-.82 3L11 9.27V6.14l2.07-2.07a1 1 0 10-1.42-1.41l-.65.65V1a1 1 0 00-2 0v2.47l-.81-.81a1 1 0 10-1.42 1.41L9 6.3v3L6.43 7.78l-.82-3a1 1 0 10-1.93.52L4 6.37 1.84 5.13a1.003 1.003 0 10-1 1.74l2 1.13-.84.26a1.008 1.008 0 00.26 2h.26l2.82-.76L8 11l-2.71 1.57-2.82-.76A1 1 0 102 13.74l.89.24-2 1.15a1.003 1.003 0 101 1.74L4 15.63l-.3 1.11A1 1 0 004.39 18c.086.01.174.01.26 0a1 1 0 001-.74l.82-3L9 12.73v3.13l-2.07 2.07a1 1 0 000 1.41 1 1 0 00.71.3.999.999 0 00.71-.3l.65-.65V21a1 1 0 102 0v-2.47l.81.81a1.002 1.002 0 001.71-.705 1 1 0 00-.29-.705L11 15.7v-3l2.57 1.49.82 3a1 1 0 001 .74c.086.01.174.01.26 0a.998.998 0 00.71-1.23L16 15.63l2.14 1.24a1.002 1.002 0 001.495-.741 1.001 1.001 0 00-.495-.999h.02z" fill="#879FBB"/></svg>