<svg width="17" height="17" fill="none" xmlns="http://www.w3.org/2000/svg"><path d="M15.584 6.85a.708.708 0 00-.61-.475l-4.03-.588-1.806-3.662a.708.708 0 00-1.275 0L6.057 5.78l-4.03.595a.708.708 0 00-.574.482.708.708 0 00.177.708l2.925 2.833-.708 4.024a.708.708 0 001.027.758l3.627-1.892 3.612 1.899c.1.056.212.085.326.085a.708.708 0 00.663-.448.708.708 0 00.038-.395l-.708-4.024 2.925-2.833a.709.709 0 00.227-.722zm-4.356 2.833a.708.708 0 00-.206.63l.51 2.968-2.663-1.416a.71.71 0 00-.666 0L5.54 13.28l.51-2.968a.708.708 0 00-.206-.63L3.72 7.558l2.983-.432a.708.708 0 00.538-.39L8.5 4.038l1.332 2.705a.708.708 0 00.539.39l2.982.432-2.125 2.118z" fill="#fff"/><circle cx="8.5" cy="9.5" r="3.5" fill="#fff"/><path d="M8.5 3l2.165 3.75h-4.33L8.5 3z" fill="#fff"/><path d="M13.517 7.388l-2.942 3.178-1.28-4.137 4.222.96zm-10.511-.1l4.305-.472-1.743 3.964-2.562-3.492z" fill="#fff"/><path d="M5.243 14.59l-.286-4.32 3.885 1.912-3.599 2.408z" fill="#fff"/><path d="M11.71 14.574l-3.783-2.108 3.718-2.221.064 4.33z" fill="#fff"/></svg>