<svg width="25" height="26" fill="none" xmlns="http://www.w3.org/2000/svg"><circle cx="12.035" cy="13" r="12.035" fill="#157BFB"/><circle cx="11.573" cy="12.537" r="7.869" fill="#fff"/><path d="M14.881 3.743h-5.68c-5.188 0-6.422 1.234-6.422 6.413v5.68c0 5.188 1.224 6.422 6.412 6.422h5.68c5.188 0 6.423-1.224 6.423-6.412v-5.68c0-5.189-1.225-6.423-6.413-6.423zm2.845 13.212h-1.35c-.511 0-.666-.415-1.582-1.331-.8-.772-1.138-.868-1.34-.868-.28 0-.357.077-.357.463v1.215c0 .328-.106.52-.964.52a5.27 5.27 0 01-4.118-2.468 10.763 10.763 0 01-2.131-4.475c0-.202.077-.385.463-.385h1.35c.347 0 .472.154.607.51.656 1.93 1.775 3.607 2.228 3.607.173 0 .25-.077.25-.51v-1.987c-.057-.907-.54-.984-.54-1.312a.334.334 0 01.348-.308h2.121c.29 0 .386.144.386.491v2.681c0 .29.125.386.212.386.174 0 .309-.096.627-.415a11.11 11.11 0 001.659-2.758.581.581 0 01.588-.385h1.35c.405 0 .492.202.405.491a16.857 16.857 0 01-1.813 3.115c-.145.222-.203.338 0 .598.135.203.608.598.926.974a6.01 6.01 0 011.138 1.582c.115.376-.078.569-.463.569z" fill="#157BFB"/></svg>