<svg width="24" height="24" fill="none" xmlns="http://www.w3.org/2000/svg"><path d="M2.72 7.65c.196.057.384.138.56.24a4 4 0 004.1 0 2.6 2.6 0 012.56 0 4.15 4.15 0 004.12 0 2.6 2.6 0 012.56 0 4.25 4.25 0 002.08.56 3.88 3.88 0 002-.56c.176-.102.364-.183.56-.24a1 1 0 00-.56-1.92 4.45 4.45 0 00-1 .45 2.08 2.08 0 01-2.1 0 4.64 4.64 0 00-4.54 0 2.11 2.11 0 01-2.12 0 4.64 4.64 0 00-4.54 0 2.08 2.08 0 01-2.1 0 4.45 4.45 0 00-1-.45 1 1 0 10-.56 1.92h-.02zm18 8.08c-.35.108-.686.26-1 .45a2.08 2.08 0 01-2.1 0 4.64 4.64 0 00-4.54 0 2.11 2.11 0 01-2.12 0 4.64 4.64 0 00-4.54 0 2.08 2.08 0 01-2.1 0 4.453 4.453 0 00-1-.45 1 1 0 00-.56 1.92c.196.057.384.138.56.24a4 4 0 004.1 0 2.6 2.6 0 012.56 0 4.15 4.15 0 004.12 0 2.6 2.6 0 012.56 0c.634.362 1.35.555 2.08.56a3.88 3.88 0 002-.56c.176-.102.364-.183.56-.24a1 1 0 00-.56-1.92h-.02zm0-5c-.35.108-.686.26-1 .45a2.08 2.08 0 01-2.1 0 4.64 4.64 0 00-4.54 0 2.11 2.11 0 01-2.12 0 4.64 4.64 0 00-4.54 0 2.08 2.08 0 01-2.1 0 4.453 4.453 0 00-1-.45 1 1 0 00-1.32.68 1 1 0 00.68 1.24c.196.057.384.138.56.24a4 4 0 004.1 0 2.6 2.6 0 012.56 0 4.15 4.15 0 004.12 0 2.6 2.6 0 012.56 0c.634.362 1.35.555 2.08.56a3.88 3.88 0 002-.56c.176-.102.364-.183.56-.24a1 1 0 00-.56-1.92h.06z" fill="#E89326"/></svg>