<svg width="210" height="134" fill="none" xmlns="http://www.w3.org/2000/svg"><path d="M39.65 120.614V130h1.664v-8.489h.013L43.108 130h1.274l1.781-8.502h.013V130h1.664v-9.386h-2.847l-1.248 6.097-1.248-6.097H39.65zM48.561 130h1.911l.56-2.444h2.014l.442 2.444h1.924l-2.08-9.386H50.94L48.561 130zm2.691-3.835l.858-4.368.715 4.368h-1.573zm4.902-5.551V130h1.78v-7.956h3.147v-1.43h-4.927zM60.749 130h1.91l.56-2.444h2.015l.442 2.444H67.6l-2.08-9.386h-2.392L60.748 130zm2.69-3.835l.859-4.368.715 4.368H63.44zm6.501-2.847c0-.845.364-1.443 1.066-1.443.754 0 .988.689.988 1.313 0 .832-.507 1.196-1.17 1.196h-.377v1.339h.377c.741 0 1.3.403 1.3 1.508 0 .975-.312 1.56-1.17 1.56-.897 0-1.157-.637-1.157-1.287h-1.729c0 2.015 1.456 2.717 2.99 2.717 1.86 0 2.886-.936 2.886-2.821 0-1.417-.637-2.184-1.573-2.418.858-.221 1.443-1.066 1.443-2.041 0-1.898-1.547-2.496-2.808-2.496-1.768 0-2.795 1.235-2.795 2.873h1.73zm5.244-2.704V130h1.924l2.6-6.812h.013c-.182.845-.22 1.833-.22 3.263V130h1.663v-9.386H79.24l-2.6 6.825h-.013c.17-.78.221-2.197.221-3.315v-3.51h-1.664zm9.056 0h-1.781V130h1.78v-4.342h2.354V130h1.78v-9.386h-1.78v3.614H84.24v-3.614zm8.553 0V130h1.924l2.6-6.812h.013c-.182.845-.221 1.833-.221 3.263V130h1.664v-9.386h-1.924l-2.6 6.825h-.013c.169-.78.22-2.197.22-3.315v-3.51h-1.663zm9.055 0h-1.781V130h1.781v-4.342h2.353V130h1.781v-9.386h-1.781v3.614h-2.353v-3.614zm11.098 3.055v-.468c0-1.729-.988-2.756-2.808-2.756-1.937 0-2.925 1.027-2.925 3.224v3.419c0 1.664.559 3.133 2.899 3.133 2.223 0 2.834-1.456 2.834-3.159v-.403h-1.781v.507c0 1.209-.351 1.625-1.066 1.625-.754 0-1.066-.403-1.066-1.625v-3.705c0-1.183.325-1.586 1.079-1.586s1.053.403 1.053 1.586v.208h1.781zm4.813-1.625h2.21v-1.43h-6.201v1.43h2.21V130h1.781v-7.956zm4.871 4.134h1.56c1.521 0 2.496-1.274 2.496-2.821 0-1.508-.949-2.743-2.47-2.743h-3.367V130h1.781v-3.822zm0-4.173h.897c.897 0 1.339.494 1.339 1.378 0 .897-.442 1.404-1.339 1.404h-.897v-2.782zm4.745-1.391l2.574 7.423c-.182.533-.442.754-.793.754-.234 0-.39-.078-.494-.104v1.365c.312.104.663.169 1.079.169.871 0 1.43-.533 1.924-2.015l2.548-7.592h-1.95l-1.443 4.979-1.443-4.979h-2.002zm7.591 0V130h1.664v-8.489h.013l1.781 8.489h1.274l1.781-8.502h.013V130h1.664v-9.386h-2.847l-1.248 6.097-1.248-6.097h-2.847zm9.497 0V130h5.018v-1.43h-3.237v-2.912h2.951v-1.43h-2.951v-2.184h3.237v-1.43h-5.018zm7.912 0h-1.781V130h1.781v-4.342h2.353V130h1.781v-9.386h-1.781v3.614h-2.353v-3.614zm9.005 1.43h2.21v-1.43h-6.201v1.43h2.21V130h1.781v-7.956zm2.023 7.956h1.911l.559-2.444h2.015l.442 2.444h1.924l-2.08-9.386h-2.392L163.403 130zm2.691-3.835l.858-4.368.715 4.368h-1.573z" fill="#000"/><path fill="#FC0" d="M0 0h210v111H0z"/><path d="M71.891 42.727C76.323 39.285 80 41.66 84.906 47.34c.551.641 1.292-.11 1.715-.475.418-.37 6.892-6.199 7.21-6.465.314-.28.694-.803.195-1.387a172.37 172.37 0 01-3.529-4.517c-8.588-11.234 23.494-18.853 18.568-18.972-2.508-.066-12.569-.185-14.075-.019-6.094.641-13.746 6.337-17.598 8.992-5.04 3.448-6.921 5.472-7.23 5.752-1.425 1.245-.228 4.119-2.812 6.384-2.731 2.39-4.436.58-6.018 1.967-.784.693-2.978 2.337-3.605 2.883-.632.556-.746 1.492-.1 2.237 0 0 6.004 6.631 6.508 7.22.498.58 1.857 1.083 2.693.338.84-.742 3.002-2.627 3.363-2.96.37-.313-.238-4.09 1.7-5.59zm27.113 2.456c-.57-.66-1.278-.679-1.886-.138l-6.811 5.947a1.373 1.373 0 00-.128 1.9l39.396 44.836a2.525 2.525 0 003.568.252l4.607-3.862a2.565 2.565 0 00.247-3.6L99.004 45.182zm52.531-19.08c-.352-2.347-1.568-1.858-2.2-.865-.631 1.002-3.424 5.235-4.574 7.154-1.14 1.9-3.952 5.657-9.186 1.947-5.453-3.852-3.558-6.54-2.608-8.35.955-1.82 3.885-6.921 4.308-7.553.423-.641-.071-2.503-1.762-1.724-1.696.779-11.984 4.869-13.409 10.735-1.459 5.966 1.22 11.3-4.038 16.596l-6.379 6.65 6.408 7.439 7.856-7.458c1.872-1.88 5.871-3.71 9.491-2.883 7.756 1.753 11.989-1.159 14.539-5.975 2.29-4.304 1.91-13.367 1.554-15.714zM70.01 91.001a2.555 2.555 0 000 3.6l4.517 4.418c.989.992 2.556.575 3.544-.418l23.308-22.914-7.139-8.142-24.23 23.456z" fill="#000"/></svg>