<svg width="65" height="80" fill="#252525" xmlns="http://www.w3.org/2000/svg"><path d="M43.377 56.459l5.58-6.844c.75-.91 1.702-1.533 2.736-1.794a4.518 4.518 0 013.092.328l6.8 3.33c.994.494 1.846 1.338 2.448 2.426.603 1.087.93 2.369.94 3.684v15.275a7.93 7.93 0 01-.45 2.599 6.802 6.802 0 01-1.247 2.172 5.37 5.37 0 01-1.841 1.398 4.504 4.504 0 01-2.141.4C11.642 75.797 2.027 26.305.209 7.363A8.06 8.06 0 01.435 4.6a7.117 7.117 0 011.13-2.406A5.606 5.606 0 013.397.563 4.568 4.568 0 015.614 0h12.031c1.074.004 2.122.402 3.01 1.142.888.74 1.575 1.79 1.972 3.013l2.715 8.34a8 8 0 01.293 3.791c-.208 1.272-.717 2.44-1.463 3.358l-5.58 6.844s3.213 26.671 24.785 29.97z"/></svg>