<svg width="436" height="305" viewBox="0 0 436 305" fill="none" xmlns="http://www.w3.org/2000/svg">
<g opacity="0.1" filter="url(#filter0_f)">
<path d="M234.148 54.8703C242.325 52.048 245.98 43.8611 241.842 33.078C237.703 22.295 229.354 18.2517 221.177 21.074C213.048 23.8799 209.345 32.0832 213.483 42.8662C217.622 53.6493 226.019 57.6762 234.148 54.8703ZM231.694 48.4751C227.912 49.7802 224.083 47.6129 221.235 40.1908C218.386 32.7687 219.85 28.7742 223.631 27.4691C227.46 26.1477 231.289 28.3151 234.138 35.7372C236.986 43.1593 235.522 47.1537 231.694 48.4751ZM251.804 39.5513C254.002 38.7928 254.866 36.5121 253.836 33.828C252.806 31.1439 250.598 29.9236 248.4 30.6821C246.179 31.4489 245.347 33.7448 246.368 36.4055C247.389 39.0663 249.583 40.3181 251.804 39.5513ZM253.439 47.5773L254.834 47.0961L259.859 26.8591L258.465 27.3404L253.439 47.5773ZM251.401 38.501C249.841 39.0394 248.356 38.0983 247.55 35.9977C246.744 33.8971 247.243 32.2708 248.803 31.7324C250.339 31.2023 251.839 32.1119 252.654 34.2358C253.47 36.3597 252.937 37.9708 251.401 38.501ZM264.898 43.7543C267.12 42.9875 267.951 40.6916 266.93 38.0309C265.909 35.3701 263.716 34.1183 261.494 34.8851C259.297 35.6436 258.441 37.9477 259.462 40.6084C260.484 43.2692 262.701 44.5128 264.898 43.7543ZM264.495 42.704C262.959 43.2342 261.459 42.3245 260.644 40.2006C259.829 38.0767 260.361 36.4656 261.897 35.9354C263.457 35.397 264.942 36.3381 265.749 38.4387C266.555 40.5393 266.055 42.1656 264.495 42.704Z" fill="white"/>
</g>
<g opacity="0.1" filter="url(#filter1_f)">
<path d="M338.575 49.0988C346.959 51.2291 354.894 46.4897 358.035 35.3749C361.175 24.2601 356.802 16.393 348.418 14.2627C340.083 12.1447 332.099 16.8718 328.959 27.9866C325.818 39.1015 330.24 46.9808 338.575 49.0988ZM340.438 42.5069C336.561 41.5218 334.745 37.6566 336.906 30.0061C339.068 22.3556 342.679 19.8695 346.556 20.8546C350.481 21.852 352.297 25.7173 350.136 33.3677C347.974 41.0182 344.363 43.5043 340.438 42.5069ZM362.256 46.1171C364.509 46.6897 366.594 45.2855 367.376 42.5188C368.158 39.7521 367.093 37.5476 364.839 36.975C362.562 36.3962 360.494 37.8306 359.719 40.5732C358.944 43.3159 359.978 45.5383 362.256 46.1171ZM358.738 53.6035L360.168 53.9667L376.508 40.0691L375.079 39.7058L358.738 53.6035ZM362.562 45.0344C360.963 44.6281 360.319 43.0463 360.931 40.8811C361.543 38.7158 362.934 37.6512 364.533 38.0576C366.108 38.4578 366.783 40.0217 366.164 42.211C365.546 44.4003 364.137 45.4346 362.562 45.0344ZM370.407 56.6976C372.685 57.2763 374.752 55.8419 375.527 53.0993C376.302 50.3567 375.268 48.1342 372.991 47.5555C370.737 46.9829 368.646 48.4111 367.871 51.1537C367.096 53.8963 368.154 56.125 370.407 56.6976ZM370.713 55.6149C369.138 55.2147 368.464 53.6509 369.082 51.4616C369.701 49.2723 371.11 48.2379 372.685 48.6381C374.284 49.0444 374.928 50.6262 374.316 52.7915C373.704 54.9567 372.313 56.0213 370.713 55.6149Z" fill="white"/>
</g>
<g opacity="0.1" filter="url(#filter2_f)">
<path d="M244.316 209.89C251.522 205.105 252.921 196.323 246.061 187.031C239.2 177.74 230.019 175.983 222.813 180.768C215.649 185.525 214.208 194.335 221.069 203.627C227.929 212.918 237.152 214.647 244.316 209.89ZM240.247 204.379C236.915 206.592 232.622 205.486 227.9 199.091C223.178 192.695 223.55 188.491 226.882 186.279C230.256 184.038 234.549 185.144 239.271 191.54C243.993 197.935 243.621 202.139 240.247 204.379ZM257.449 190.709C259.386 189.423 259.626 187.016 257.918 184.703C256.21 182.39 253.743 181.78 251.806 183.067C249.848 184.367 249.644 186.78 251.337 189.073C253.03 191.366 255.491 192.009 257.449 190.709ZM261.15 197.992L262.379 197.176L261.939 176.488L260.711 177.304L261.15 197.992ZM256.78 189.804C255.406 190.717 253.714 190.191 252.378 188.381C251.041 186.571 251.099 184.884 252.474 183.972C253.828 183.073 255.525 183.564 256.877 185.394C258.228 187.224 258.134 188.905 256.78 189.804ZM271.284 191.413C273.241 190.113 273.446 187.7 271.753 185.407C270.06 183.114 267.599 182.471 265.641 183.771C263.704 185.057 263.479 187.484 265.172 189.777C266.865 192.07 269.347 192.699 271.284 191.413ZM270.616 190.508C269.262 191.407 267.564 190.916 266.213 189.085C264.862 187.255 264.955 185.575 266.309 184.676C267.684 183.763 269.375 184.288 270.712 186.098C272.048 187.908 271.99 189.595 270.616 190.508Z" fill="white"/>
</g>
<g opacity="0.1" filter="url(#filter3_f)">
<path d="M409.792 162.001C411.729 160.715 411.969 158.308 410.262 155.995C408.554 153.682 406.086 153.072 404.15 154.359C402.192 155.658 401.987 158.072 403.68 160.365C405.373 162.658 407.835 163.301 409.792 162.001ZM413.494 169.284L414.723 168.468L414.283 147.779L413.054 148.595L413.494 169.284ZM409.124 161.096C407.75 162.009 406.058 161.483 404.722 159.673C403.385 157.863 403.443 156.176 404.818 155.264C406.171 154.365 407.869 154.856 409.22 156.686C410.572 158.516 410.478 160.197 409.124 161.096ZM423.627 162.705C425.585 161.405 425.79 158.992 424.097 156.699C422.404 154.406 419.942 153.763 417.985 155.063C416.048 156.349 415.823 158.776 417.515 161.069C419.208 163.362 421.691 163.991 423.627 162.705ZM422.959 161.8C421.606 162.699 419.908 162.208 418.557 160.377C417.205 158.547 417.299 156.867 418.653 155.968C420.027 155.055 421.719 155.58 423.055 157.39C424.392 159.2 424.334 160.887 422.959 161.8Z" fill="white"/>
</g>
<g opacity="0.1" filter="url(#filter4_f)">
<path d="M297.282 145.674C299.219 144.387 299.459 141.98 297.751 139.667C296.043 137.354 293.576 136.745 291.639 138.031C289.681 139.331 289.477 141.745 291.17 144.037C292.862 146.33 295.324 146.974 297.282 145.674ZM300.983 152.957L302.212 152.141L301.772 131.452L300.543 132.268L300.983 152.957ZM296.613 144.769C295.239 145.681 293.547 145.156 292.211 143.346C290.874 141.536 290.932 139.849 292.307 138.936C293.661 138.037 295.358 138.529 296.709 140.359C298.061 142.189 297.967 143.87 296.613 144.769ZM311.117 146.378C313.074 145.078 313.279 142.664 311.586 140.371C309.893 138.079 307.432 137.435 305.474 138.735C303.537 140.021 303.312 142.449 305.005 144.742C306.698 147.034 309.18 147.664 311.117 146.378ZM310.448 145.473C309.095 146.372 307.397 145.88 306.046 144.05C304.695 142.22 304.788 140.539 306.142 139.64C307.517 138.728 309.208 139.253 310.545 141.063C311.881 142.873 311.823 144.56 310.448 145.473Z" fill="white"/>
</g>
<g opacity="0.1" filter="url(#filter5_f)">
<path d="M123.566 23.9197C125.891 23.9197 127.516 22.0447 127.516 19.1697C127.516 16.2947 125.891 14.4197 123.566 14.4197C121.216 14.4197 119.616 16.3197 119.616 19.1697C119.616 22.0197 121.216 23.9197 123.566 23.9197ZM122.216 32.0447H123.691L135.641 14.5447L134.166 14.5447L122.216 32.0447ZM123.566 22.7947C121.916 22.7947 120.866 21.4197 120.866 19.1697C120.866 16.9197 121.916 15.5447 123.566 15.5447C125.191 15.5447 126.266 16.8947 126.266 19.1697C126.266 21.4447 125.191 22.7947 123.566 22.7947ZM134.291 32.1697C136.641 32.1697 138.241 30.2697 138.241 27.4197C138.241 24.5697 136.641 22.6697 134.291 22.6697C131.966 22.6697 130.341 24.5697 130.341 27.4197C130.341 30.2697 131.966 32.1697 134.291 32.1697ZM134.291 31.0447C132.666 31.0447 131.591 29.6947 131.591 27.4197C131.591 25.1447 132.666 23.7947 134.291 23.7947C135.941 23.7947 136.991 25.1697 136.991 27.4197C136.991 29.6697 135.941 31.0447 134.291 31.0447Z" fill="white"/>
</g>
<g opacity="0.1" filter="url(#filter6_f)">
<path d="M10.8601 253.988C13.1135 254.561 15.1983 253.157 15.98 250.39C16.7617 247.623 15.6966 245.419 13.4432 244.846C11.1656 244.267 9.09827 245.702 8.32334 248.444C7.54841 251.187 8.58251 253.409 10.8601 253.988ZM7.34249 261.475L8.77206 261.838L25.1123 247.94L23.6828 247.577L7.34249 261.475ZM11.166 252.906C9.56685 252.499 8.92306 250.917 9.53484 248.752C10.1466 246.587 11.5382 245.522 13.1373 245.929C14.7123 246.329 15.3871 247.893 14.7685 250.082C14.1499 252.271 12.741 253.306 11.166 252.906ZM19.0116 264.569C21.2892 265.147 23.3565 263.713 24.1315 260.97C24.9064 258.228 23.8723 256.005 21.5947 255.427C19.3413 254.854 17.2497 256.282 16.4748 259.025C15.6999 261.767 16.7582 263.996 19.0116 264.569ZM19.3175 263.486C17.7425 263.086 17.0677 261.522 17.6863 259.333C18.3049 257.143 19.7138 256.109 21.2888 256.509C22.888 256.916 23.5318 258.497 22.92 260.663C22.3082 262.828 20.9167 263.892 19.3175 263.486Z" fill="white"/>
</g>
<g opacity="0.1" filter="url(#filter7_f)">
<path d="M377.869 275.019C385.075 279.803 394.256 278.047 401.116 268.755C407.977 259.464 406.577 250.682 399.371 245.897C392.207 241.139 382.985 242.868 376.124 252.16C369.264 261.452 370.705 270.261 377.869 275.019ZM381.938 269.508C378.606 267.295 378.233 263.092 382.955 256.696C387.678 250.3 391.97 249.195 395.303 251.407C398.677 253.648 399.049 257.851 394.327 264.247C389.604 270.642 385.312 271.748 381.938 269.508ZM401.367 280.161C403.304 281.447 405.771 280.838 407.479 278.525C409.187 276.212 408.947 273.805 407.01 272.519C405.052 271.219 402.591 271.862 400.898 274.155C399.205 276.448 399.409 278.861 401.367 280.161ZM395.416 285.951L396.645 286.767L416.995 279.299L415.766 278.483L395.416 285.951ZM402.035 279.256C400.661 278.344 400.603 276.657 401.939 274.847C403.276 273.036 404.967 272.511 406.342 273.424C407.695 274.323 407.789 276.004 406.438 277.834C405.086 279.664 403.389 280.155 402.035 279.256ZM405.401 292.731C407.359 294.031 409.82 293.388 411.513 291.095C413.206 288.802 413.002 286.389 411.044 285.089C409.107 283.802 406.625 284.432 404.932 286.725C403.239 289.018 403.464 291.445 405.401 292.731ZM406.069 291.826C404.716 290.927 404.622 289.246 405.973 287.416C407.325 285.586 409.022 285.095 410.376 285.994C411.75 286.906 411.808 288.593 410.472 290.403C409.135 292.213 407.444 292.739 406.069 291.826Z" fill="white"/>
</g>
<defs>
<filter id="filter0_f" x="209.776" y="18.2028" width="59.5863" height="39.5324" filterUnits="userSpaceOnUse" color-interpolation-filters="sRGB">
<feFlood flood-opacity="0" result="BackgroundImageFix"/>
<feBlend mode="normal" in="SourceGraphic" in2="BackgroundImageFix" result="shape"/>
<feGaussianBlur stdDeviation="1" result="effect1_foregroundBlur"/>
</filter>
<filter id="filter1_f" x="325.945" y="11.7695" width="52.563" height="47.055" filterUnits="userSpaceOnUse" color-interpolation-filters="sRGB">
<feFlood flood-opacity="0" result="BackgroundImageFix"/>
<feBlend mode="normal" in="SourceGraphic" in2="BackgroundImageFix" result="shape"/>
<feGaussianBlur stdDeviation="1" result="effect1_foregroundBlur"/>
</filter>
<filter id="filter2_f" x="214.614" y="174.488" width="60.2846" height="39.9685" filterUnits="userSpaceOnUse" color-interpolation-filters="sRGB">
<feFlood flood-opacity="0" result="BackgroundImageFix"/>
<feBlend mode="normal" in="SourceGraphic" in2="BackgroundImageFix" result="shape"/>
<feGaussianBlur stdDeviation="1" result="effect1_foregroundBlur"/>
</filter>
<filter id="filter3_f" x="400.534" y="145.78" width="26.7083" height="25.5046" filterUnits="userSpaceOnUse" color-interpolation-filters="sRGB">
<feFlood flood-opacity="0" result="BackgroundImageFix"/>
<feBlend mode="normal" in="SourceGraphic" in2="BackgroundImageFix" result="shape"/>
<feGaussianBlur stdDeviation="1" result="effect1_foregroundBlur"/>
</filter>
<filter id="filter4_f" x="288.023" y="129.452" width="26.7083" height="25.5046" filterUnits="userSpaceOnUse" color-interpolation-filters="sRGB">
<feFlood flood-opacity="0" result="BackgroundImageFix"/>
<feBlend mode="normal" in="SourceGraphic" in2="BackgroundImageFix" result="shape"/>
<feGaussianBlur stdDeviation="1" result="effect1_foregroundBlur"/>
</filter>
<filter id="filter5_f" x="117.616" y="12.4197" width="22.625" height="21.75" filterUnits="userSpaceOnUse" color-interpolation-filters="sRGB">
<feFlood flood-opacity="0" result="BackgroundImageFix"/>
<feBlend mode="normal" in="SourceGraphic" in2="BackgroundImageFix" result="shape"/>
<feGaussianBlur stdDeviation="1" result="effect1_foregroundBlur"/>
</filter>
<filter id="filter6_f" x="5.34229" y="242.719" width="21.7698" height="23.9765" filterUnits="userSpaceOnUse" color-interpolation-filters="sRGB">
<feFlood flood-opacity="0" result="BackgroundImageFix"/>
<feBlend mode="normal" in="SourceGraphic" in2="BackgroundImageFix" result="shape"/>
<feGaussianBlur stdDeviation="1" result="effect1_foregroundBlur"/>
</filter>
<filter id="filter7_f" x="369.67" y="241.331" width="49.325" height="54.0641" filterUnits="userSpaceOnUse" color-interpolation-filters="sRGB">
<feFlood flood-opacity="0" result="BackgroundImageFix"/>
<feBlend mode="normal" in="SourceGraphic" in2="BackgroundImageFix" result="shape"/>
<feGaussianBlur stdDeviation="1" result="effect1_foregroundBlur"/>
</filter>
</defs>
</svg>
