<svg width="24" height="24" fill="none" xmlns="http://www.w3.org/2000/svg"><path fill-rule="evenodd" clip-rule="evenodd" d="M11.573 7.514a5.003 5.003 0 015.003-5.004c1.622 0 2.917.767 3.784 1.88a8.394 8.394 0 002.602-1.006 4.215 4.215 0 01-1.837 2.32l.003.005a8.417 8.417 0 002.4-.661l-.002.003a8.506 8.506 0 01-1.996 2.101c.041.283.064.566.064.848 0 5.9-4.495 12.76-12.76 12.76a12.689 12.689 0 01-6.874-2.016.8.8 0 01-.173-1.197.72.72 0 01.701-.344c1.466.173 2.928-.006 4.22-.57a4.938 4.938 0 01-2.705-3.001.72.72 0 01.165-.717A4.912 4.912 0 012.496 9.22v-.054a.72.72 0 01.584-.707 4.909 4.909 0 01-.55-2.266c0-.749.004-1.693.53-2.544a.72.72 0 01.518-.333.8.8 0 01.86.258 11.142 11.142 0 007.137 4.011v-.07h-.002zM8.833 19.16c-1.224 0-2.44-.2-3.598-.597a8.509 8.509 0 003.824-1.667.72.72 0 00-.432-1.286 3.479 3.479 0 01-2.742-1.421c.304-.024.601-.077.89-.154a.72.72 0 00-.045-1.401 3.488 3.488 0 01-2.63-2.359c.32.077.654.123.996.135a.72.72 0 00.424-1.32 3.483 3.483 0 01-1.552-2.899c0-.269.005-.507.02-.725A12.72 12.72 0 0012.44 9.27a.8.8 0 00.82-.976 3.403 3.403 0 013.315-4.183c1.974 0 3.417 1.83 3.417 3.892 0 5.21-3.962 11.158-11.16 11.158h.002z" fill="#1DA1F2"/></svg>