<svg width="24" height="24" fill="none" xmlns="http://www.w3.org/2000/svg"><path d="M4.987 11.407a1.021 1.021 0 011.022-1.019l1.694.006a1.018 1.018 0 011.019 1.02v6.419c.19-.057.435-.117.703-.18a.849.849 0 00.655-.828V8.864a1.022 1.022 0 011.018-1.02h1.7a1.018 1.018 0 011.018 1.02v7.389s.425-.172.839-.348a.85.85 0 00.519-.783v-8.81a1.022 1.022 0 011.018-1.02h1.698a1.017 1.017 0 011.017 1.02v7.255c1.472-1.069 2.963-2.354 4.147-3.9a1.715 1.715 0 00.26-1.599 12.017 12.017 0 00-6.61-7.1A11.97 11.97 0 003.03 4.03a12.018 12.018 0 00-2.964 9.245c.176 1.662.696 3.27 1.527 4.72a1.517 1.517 0 001.446.75c.322-.028.721-.068 1.197-.124a.848.848 0 00.752-.843v-6.37" fill="#fff"/><path d="M4.951 21.7a11.979 11.979 0 0017.282-3.438A12.033 12.033 0 0024 11.982c0-.278-.013-.55-.031-.823-4.382 6.548-12.474 9.61-19.018 10.542z" fill="#F2BA00"/></svg>