<svg width="30" height="20" fill="none" xmlns="http://www.w3.org/2000/svg"><path d="M26.679.007c-.038.062-.138.362-.225.674-.075.312-.25.936-.387 1.398l-.237.824-1.037.35c-.562.175-1.073.362-1.136.4-.062.037.362.237.962.462.599.212 1.136.437 1.198.499.063.075.237.55.387 1.061.512 1.736.462 1.736.974.2l.462-1.373 1.186-.387L30 3.727l-1.211-.424c-1.161-.4-1.224-.437-1.336-.862A56.61 56.61 0 0127.04.943c-.163-.587-.325-.999-.362-.936zM5.927 2.13c-.512.5-.125.711 2.535 1.41 2.56.687 2.76.687 2.76.063 0-.25-.113-.325-.837-.537-.937-.275-4.133-1.136-4.22-1.136-.026 0-.138.087-.238.2zm13.035.45c-1.273.336-2.384.686-2.46.748-.212.175-.2.537.013.712.15.125.687.012 2.597-.487 1.324-.362 2.485-.712 2.572-.774a.448.448 0 00-.087-.724c-.137-.063-.262-.125-.287-.113-.025 0-1.074.287-2.348.637zM7.475 5.526l-.374.374v2.622c0 2.435.012 2.635.25 2.934.324.412.874.537 1.348.288.6-.313.674-.65.624-3.421-.037-2.348-.05-2.535-.3-2.772-.137-.138-.461-.288-.711-.338-.387-.062-.5-.012-.837.313zm11.612-.013c-.1.037-.312.187-.462.325-.287.25-.287.312-.287 2.984 0 2.547.013 2.734.25 2.971.574.575 1.423.45 1.773-.25.187-.374.225-.798.225-2.721 0-2.597-.1-3.022-.774-3.26-.425-.149-.45-.149-.725-.05zM1.47 8.522C.17 9.196-.34 10.67.234 12.018c1.098 2.56 4.994 1.973 5.219-.774.1-1.261-.462-2.272-1.524-2.772-.874-.412-1.61-.387-2.46.05zm22.562-.224c-2.298.7-2.597 3.97-.437 5.045 1.923.949 3.983-.313 3.983-2.448 0-1.835-1.76-3.121-3.546-2.597zM7.063 15.39c-.4.437-.262.899.425 1.548 1.249 1.161 2.897 1.923 4.87 2.235.973.15 3.758.087 4.42-.112.462-.125.761-.662.561-1.024-.212-.387-.512-.487-1.123-.375-.887.175-3.347.137-4.308-.062-1.186-.25-2.485-.912-3.421-1.748-.824-.737-1.099-.824-1.424-.462z" fill="#F95093"/></svg>