<svg width="99" height="27" viewBox="0 0 99 27" fill="none" xmlns="http://www.w3.org/2000/svg">
<path d="M30.9514 22.929L34.4614 12.129H36.7189L40.2289 22.929H38.6014L35.3689 13.074H35.7739L32.5789 22.929H30.9514ZM32.7739 20.4915V19.0215H38.4139V20.4915H32.7739ZM44.9678 23.154C44.1928 23.154 43.5428 22.9665 43.0178 22.5915C42.4928 22.2115 42.0953 21.699 41.8253 21.054C41.5553 20.409 41.4203 19.6815 41.4203 18.8715C41.4203 18.0615 41.5528 17.334 41.8178 16.689C42.0878 16.044 42.4828 15.5365 43.0028 15.1665C43.5278 14.7915 44.1728 14.604 44.9378 14.604C45.6978 14.604 46.3528 14.7915 46.9028 15.1665C47.4578 15.5365 47.8853 16.044 48.1853 16.689C48.4853 17.329 48.6353 18.0565 48.6353 18.8715C48.6353 19.6815 48.4853 20.4115 48.1853 21.0615C47.8903 21.7065 47.4678 22.2165 46.9178 22.5915C46.3728 22.9665 45.7228 23.154 44.9678 23.154ZM41.1578 26.529V14.829H42.5528V20.6565H42.7328V26.529H41.1578ZM44.7503 21.7365C45.2503 21.7365 45.6628 21.609 45.9878 21.354C46.3178 21.099 46.5628 20.7565 46.7228 20.3265C46.8878 19.8915 46.9703 19.4065 46.9703 18.8715C46.9703 18.3415 46.8878 17.8615 46.7228 17.4315C46.5628 17.0015 46.3153 16.659 45.9803 16.404C45.6453 16.149 45.2178 16.0215 44.6978 16.0215C44.2078 16.0215 43.8028 16.1415 43.4828 16.3815C43.1678 16.6215 42.9328 16.9565 42.7778 17.3865C42.6278 17.8165 42.5528 18.3115 42.5528 18.8715C42.5528 19.4315 42.6278 19.9265 42.7778 20.3565C42.9278 20.7865 43.1653 21.124 43.4903 21.369C43.8153 21.614 44.2353 21.7365 44.7503 21.7365ZM53.6847 23.154C52.9097 23.154 52.2597 22.9665 51.7347 22.5915C51.2097 22.2115 50.8122 21.699 50.5422 21.054C50.2722 20.409 50.1372 19.6815 50.1372 18.8715C50.1372 18.0615 50.2697 17.334 50.5347 16.689C50.8047 16.044 51.1997 15.5365 51.7197 15.1665C52.2447 14.7915 52.8897 14.604 53.6547 14.604C54.4147 14.604 55.0697 14.7915 55.6197 15.1665C56.1747 15.5365 56.6022 16.044 56.9022 16.689C57.2022 17.329 57.3522 18.0565 57.3522 18.8715C57.3522 19.6815 57.2022 20.4115 56.9022 21.0615C56.6072 21.7065 56.1847 22.2165 55.6347 22.5915C55.0897 22.9665 54.4397 23.154 53.6847 23.154ZM49.8747 26.529V14.829H51.2697V20.6565H51.4497V26.529H49.8747ZM53.4672 21.7365C53.9672 21.7365 54.3797 21.609 54.7047 21.354C55.0347 21.099 55.2797 20.7565 55.4397 20.3265C55.6047 19.8915 55.6872 19.4065 55.6872 18.8715C55.6872 18.3415 55.6047 17.8615 55.4397 17.4315C55.2797 17.0015 55.0322 16.659 54.6972 16.404C54.3622 16.149 53.9347 16.0215 53.4147 16.0215C52.9247 16.0215 52.5197 16.1415 52.1997 16.3815C51.8847 16.6215 51.6497 16.9565 51.4947 17.3865C51.3447 17.8165 51.2697 18.3115 51.2697 18.8715C51.2697 19.4315 51.3447 19.9265 51.4947 20.3565C51.6447 20.7865 51.8822 21.124 52.2072 21.369C52.5322 21.614 52.9522 21.7365 53.4672 21.7365ZM65.1079 23.154C64.3329 23.154 63.6329 23.0215 63.0079 22.7565C62.3879 22.4865 61.8754 22.104 61.4704 21.609C61.0704 21.109 60.8104 20.5165 60.6904 19.8315L62.3254 19.584C62.4904 20.244 62.8354 20.759 63.3604 21.129C63.8854 21.494 64.4979 21.6765 65.1979 21.6765C65.6329 21.6765 66.0329 21.609 66.3979 21.474C66.7629 21.334 67.0554 21.1365 67.2754 20.8815C67.5004 20.6215 67.6129 20.3115 67.6129 19.9515C67.6129 19.7565 67.5779 19.584 67.5079 19.434C67.4429 19.284 67.3504 19.154 67.2304 19.044C67.1154 18.929 66.9729 18.8315 66.8029 18.7515C66.6379 18.6665 66.4554 18.594 66.2554 18.534L63.4879 17.7165C63.2179 17.6365 62.9429 17.534 62.6629 17.409C62.3829 17.279 62.1254 17.1115 61.8904 16.9065C61.6604 16.6965 61.4729 16.439 61.3279 16.134C61.1829 15.824 61.1104 15.449 61.1104 15.009C61.1104 14.344 61.2804 13.7815 61.6204 13.3215C61.9654 12.8565 62.4304 12.5065 63.0154 12.2715C63.6004 12.0315 64.2554 11.9115 64.9804 11.9115C65.7104 11.9215 66.3629 12.0515 66.9379 12.3015C67.5179 12.5515 67.9979 12.9115 68.3779 13.3815C68.7629 13.8465 69.0279 14.4115 69.1729 15.0765L67.4929 15.3615C67.4179 14.9565 67.2579 14.609 67.0129 14.319C66.7679 14.024 66.4679 13.799 66.1129 13.644C65.7579 13.484 65.3729 13.4015 64.9579 13.3965C64.5579 13.3865 64.1904 13.4465 63.8554 13.5765C63.5254 13.7065 63.2604 13.889 63.0604 14.124C62.8654 14.359 62.7679 14.629 62.7679 14.934C62.7679 15.234 62.8554 15.4765 63.0304 15.6615C63.2054 15.8465 63.4204 15.994 63.6754 16.104C63.9354 16.209 64.1929 16.2965 64.4479 16.3665L66.4429 16.929C66.6929 16.999 66.9754 17.094 67.2904 17.214C67.6104 17.329 67.9179 17.4915 68.2129 17.7015C68.5129 17.9115 68.7604 18.1915 68.9554 18.5415C69.1504 18.8865 69.2479 19.3215 69.2479 19.8465C69.2479 20.3915 69.1379 20.8715 68.9179 21.2865C68.6979 21.6965 68.3954 22.0415 68.0104 22.3215C67.6304 22.5965 67.1904 22.804 66.6904 22.944C66.1904 23.084 65.6629 23.154 65.1079 23.154ZM75.0722 22.929C74.5622 23.029 74.0622 23.0715 73.5722 23.0565C73.0822 23.0415 72.6447 22.9465 72.2597 22.7715C71.8747 22.5965 71.5847 22.3215 71.3897 21.9465C71.2147 21.6115 71.1197 21.2715 71.1047 20.9265C71.0947 20.5765 71.0897 20.1815 71.0897 19.7415V12.579H72.6647V19.6665C72.6647 19.9915 72.6672 20.274 72.6722 20.514C72.6822 20.754 72.7347 20.9565 72.8297 21.1215C73.0097 21.4315 73.2947 21.609 73.6847 21.654C74.0797 21.694 74.5422 21.6765 75.0722 21.6015V22.929ZM69.5372 16.089V14.829H75.0722V16.089H69.5372ZM79.5221 23.154C78.7121 23.154 78.0096 22.9715 77.4146 22.6065C76.8196 22.2415 76.3596 21.739 76.0346 21.099C75.7146 20.454 75.5546 19.7115 75.5546 18.8715C75.5546 18.0265 75.7196 17.284 76.0496 16.644C76.3796 15.999 76.8421 15.499 77.4371 15.144C78.0321 14.784 78.7271 14.604 79.5221 14.604C80.3321 14.604 81.0346 14.7865 81.6296 15.1515C82.2246 15.5165 82.6846 16.019 83.0096 16.659C83.3346 17.299 83.4971 18.0365 83.4971 18.8715C83.4971 19.7165 83.3321 20.4615 83.0021 21.1065C82.6771 21.7465 82.2171 22.249 81.6221 22.614C81.0271 22.974 80.3271 23.154 79.5221 23.154ZM79.5221 21.6765C80.2971 21.6765 80.8746 21.4165 81.2546 20.8965C81.6396 20.3715 81.8321 19.6965 81.8321 18.8715C81.8321 18.0265 81.6371 17.3515 81.2471 16.8465C80.8621 16.3365 80.2871 16.0815 79.5221 16.0815C78.9971 16.0815 78.5646 16.2015 78.2246 16.4415C77.8846 16.6765 77.6321 17.004 77.4671 17.424C77.3021 17.839 77.2196 18.3215 77.2196 18.8715C77.2196 19.7215 77.4146 20.4015 77.8046 20.9115C78.1946 21.4215 78.7671 21.6765 79.5221 21.6765ZM84.7362 22.929V14.829H86.1312V16.794L85.9362 16.539C86.0362 16.279 86.1662 16.0415 86.3262 15.8265C86.4862 15.6065 86.6712 15.4265 86.8812 15.2865C87.0862 15.1365 87.3137 15.0215 87.5637 14.9415C87.8187 14.8565 88.0787 14.8065 88.3437 14.7915C88.6087 14.7715 88.8637 14.784 89.1087 14.829V16.299C88.8437 16.229 88.5487 16.209 88.2237 16.239C87.9037 16.269 87.6087 16.3715 87.3387 16.5465C87.0837 16.7115 86.8812 16.9115 86.7312 17.1465C86.5862 17.3815 86.4812 17.644 86.4162 17.934C86.3512 18.219 86.3187 18.5215 86.3187 18.8415V22.929H84.7362ZM93.5739 23.154C92.7689 23.154 92.0614 22.979 91.4514 22.629C90.8464 22.274 90.3739 21.7815 90.0339 21.1515C89.6989 20.5165 89.5314 19.7815 89.5314 18.9465C89.5314 18.0615 89.6964 17.294 90.0264 16.644C90.3614 15.994 90.8264 15.4915 91.4214 15.1365C92.0164 14.7815 92.7089 14.604 93.4989 14.604C94.3239 14.604 95.0264 14.7965 95.6064 15.1815C96.1864 15.5615 96.6189 16.104 96.9039 16.809C97.1939 17.514 97.3089 18.3515 97.2489 19.3215H95.6814V18.7515C95.6714 17.8115 95.4914 17.1165 95.1414 16.6665C94.7964 16.2165 94.2689 15.9915 93.5589 15.9915C92.7739 15.9915 92.1839 16.239 91.7889 16.734C91.3939 17.229 91.1964 17.944 91.1964 18.879C91.1964 19.769 91.3939 20.459 91.7889 20.949C92.1839 21.434 92.7539 21.6765 93.4989 21.6765C93.9889 21.6765 94.4114 21.5665 94.7664 21.3465C95.1264 21.1215 95.4064 20.8015 95.6064 20.3865L97.1439 20.874C96.8289 21.599 96.3514 22.1615 95.7114 22.5615C95.0714 22.9565 94.3589 23.154 93.5739 23.154ZM90.6864 19.3215V18.099H96.4689V19.3215H90.6864Z" fill="black"/>
<path d="M32.9746 9.69116V4.65116H34.5531C34.5998 4.65116 34.6861 4.65233 34.8121 4.65466C34.9405 4.657 35.063 4.66633 35.1796 4.68266C35.574 4.73166 35.9053 4.87283 36.1736 5.10616C36.4443 5.3395 36.6485 5.63583 36.7861 5.99516C36.9238 6.35216 36.9926 6.74416 36.9926 7.17116C36.9926 7.6005 36.9238 7.99483 36.7861 8.35416C36.6485 8.71116 36.4443 9.00633 36.1736 9.23966C35.9053 9.47066 35.574 9.61066 35.1796 9.65966C35.063 9.676 34.9405 9.68533 34.8121 9.68766C34.6861 9.69 34.5998 9.69116 34.5531 9.69116H32.9746ZM33.7236 8.99466H34.5531C34.6325 8.99466 34.727 8.99233 34.8366 8.98766C34.9463 8.983 35.0431 8.97366 35.1271 8.95966C35.3838 8.91066 35.5915 8.79983 35.7501 8.62716C35.9111 8.45216 36.029 8.2375 36.1036 7.98316C36.1783 7.72883 36.2156 7.45816 36.2156 7.17116C36.2156 6.87483 36.1771 6.60066 36.1001 6.34866C36.0231 6.09433 35.9041 5.882 35.7431 5.71166C35.5845 5.539 35.3791 5.42933 35.1271 5.38266C35.0431 5.36633 34.9451 5.357 34.8331 5.35466C34.7235 5.35 34.6301 5.34766 34.5531 5.34766H33.7236V8.99466ZM39.4491 9.79616C39.0711 9.79616 38.7433 9.711 38.4656 9.54066C38.188 9.37033 37.9733 9.13583 37.8216 8.83716C37.6723 8.53616 37.5976 8.18966 37.5976 7.79766C37.5976 7.40333 37.6746 7.05683 37.8286 6.75816C37.9826 6.45716 38.1985 6.22383 38.4761 6.05816C38.7538 5.89016 39.0781 5.80616 39.4491 5.80616C39.8271 5.80616 40.155 5.89133 40.4326 6.06166C40.7103 6.232 40.925 6.4665 41.0766 6.76516C41.2283 7.06383 41.3041 7.408 41.3041 7.79766C41.3041 8.192 41.2271 8.53966 41.0731 8.84066C40.9215 9.13933 40.7068 9.37383 40.4291 9.54416C40.1515 9.71216 39.8248 9.79616 39.4491 9.79616ZM39.4491 9.10666C39.8108 9.10666 40.0803 8.98533 40.2576 8.74266C40.4373 8.49766 40.5271 8.18266 40.5271 7.79766C40.5271 7.40333 40.4361 7.08833 40.2541 6.85266C40.0745 6.61466 39.8061 6.49566 39.4491 6.49566C39.2041 6.49566 39.0023 6.55166 38.8436 6.66366C38.685 6.77333 38.5671 6.92616 38.4901 7.12216C38.4131 7.31583 38.3746 7.541 38.3746 7.79766C38.3746 8.19433 38.4656 8.51166 38.6476 8.74966C38.8296 8.98766 39.0968 9.10666 39.4491 9.10666ZM42.7415 9.69116L41.5865 5.90766L42.311 5.91116L43.102 8.50466L43.9 5.91116H44.53L45.328 8.50466L46.119 5.91116H46.84L45.685 9.69116H45.097L44.215 6.95416L43.3295 9.69116H42.7415ZM50.1198 9.69116V7.83266C50.1198 7.68566 50.107 7.53516 50.0813 7.38116C50.058 7.22483 50.0113 7.08016 49.9413 6.94716C49.8736 6.81416 49.7768 6.70683 49.6508 6.62516C49.5271 6.5435 49.365 6.50266 49.1643 6.50266C49.0336 6.50266 48.91 6.52483 48.7933 6.56916C48.6766 6.61116 48.574 6.68 48.4853 6.77566C48.399 6.87133 48.3301 6.99733 48.2788 7.15366C48.2298 7.31 48.2053 7.50016 48.2053 7.72416L47.7503 7.55266C47.7503 7.20966 47.8145 6.9075 47.9428 6.64616C48.0711 6.3825 48.2555 6.17716 48.4958 6.03016C48.7361 5.88316 49.0266 5.80966 49.3673 5.80966C49.6286 5.80966 49.848 5.85166 50.0253 5.93566C50.2026 6.01966 50.3461 6.1305 50.4558 6.26816C50.5678 6.4035 50.653 6.55166 50.7113 6.71266C50.7696 6.87366 50.8093 7.03116 50.8303 7.18516C50.8513 7.33916 50.8618 7.4745 50.8618 7.59116V9.69116H50.1198ZM47.4633 9.69116V5.91116H48.1178V7.00316H48.2053V9.69116H47.4633ZM51.8434 9.69116V4.54616H52.5749V9.69116H51.8434ZM55.2675 9.79616C54.8895 9.79616 54.5617 9.711 54.284 9.54066C54.0063 9.37033 53.7917 9.13583 53.64 8.83716C53.4907 8.53616 53.416 8.18966 53.416 7.79766C53.416 7.40333 53.493 7.05683 53.647 6.75816C53.801 6.45716 54.0168 6.22383 54.2945 6.05816C54.5722 5.89016 54.8965 5.80616 55.2675 5.80616C55.6455 5.80616 55.9733 5.89133 56.251 6.06166C56.5287 6.232 56.7433 6.4665 56.895 6.76516C57.0467 7.06383 57.1225 7.408 57.1225 7.79766C57.1225 8.192 57.0455 8.53966 56.8915 8.84066C56.7398 9.13933 56.5252 9.37383 56.2475 9.54416C55.9698 9.71216 55.6432 9.79616 55.2675 9.79616ZM55.2675 9.10666C55.6292 9.10666 55.8987 8.98533 56.076 8.74266C56.2557 8.49766 56.3455 8.18266 56.3455 7.79766C56.3455 7.40333 56.2545 7.08833 56.0725 6.85266C55.8928 6.61466 55.6245 6.49566 55.2675 6.49566C55.0225 6.49566 54.8207 6.55166 54.662 6.66366C54.5033 6.77333 54.3855 6.92616 54.3085 7.12216C54.2315 7.31583 54.193 7.541 54.193 7.79766C54.193 8.19433 54.284 8.51166 54.466 8.74966C54.648 8.98766 54.9152 9.10666 55.2675 9.10666ZM58.9591 9.79616C58.6791 9.79616 58.4446 9.74483 58.2556 9.64216C58.0666 9.53716 57.9231 9.3995 57.8251 9.22916C57.7294 9.0565 57.6816 8.8675 57.6816 8.66216C57.6816 8.47083 57.7154 8.30283 57.7831 8.15816C57.8508 8.0135 57.9511 7.891 58.0841 7.79066C58.2171 7.688 58.3804 7.60516 58.5741 7.54216C58.7421 7.49316 58.9323 7.45 59.1446 7.41266C59.3569 7.37533 59.5798 7.34033 59.8131 7.30766C60.0488 7.275 60.2821 7.24233 60.5131 7.20966L60.2471 7.35666C60.2518 7.06033 60.1888 6.841 60.0581 6.69866C59.9298 6.554 59.7081 6.48166 59.3931 6.48166C59.1948 6.48166 59.0128 6.52833 58.8471 6.62166C58.6814 6.71266 58.5659 6.86433 58.5006 7.07666L57.8181 6.86666C57.9114 6.54233 58.0888 6.2845 58.3501 6.09316C58.6138 5.90183 58.9638 5.80616 59.4001 5.80616C59.7384 5.80616 60.0324 5.8645 60.2821 5.98116C60.5341 6.0955 60.7184 6.2775 60.8351 6.52716C60.8958 6.65083 60.9331 6.7815 60.9471 6.91916C60.9611 7.05683 60.9681 7.205 60.9681 7.36366V9.69116H60.3206V8.82666L60.4466 8.93866C60.2903 9.228 60.0908 9.44383 59.8481 9.58616C59.6078 9.72616 59.3114 9.79616 58.9591 9.79616ZM59.0886 9.19766C59.2963 9.19766 59.4748 9.1615 59.6241 9.08916C59.7734 9.0145 59.8936 8.92 59.9846 8.80566C60.0756 8.69133 60.1351 8.57233 60.1631 8.44866C60.2028 8.33666 60.2249 8.21066 60.2296 8.07066C60.2366 7.93066 60.2401 7.81866 60.2401 7.73466L60.4781 7.82216C60.2471 7.85716 60.0371 7.88866 59.8481 7.91666C59.6591 7.94466 59.4876 7.97266 59.3336 8.00066C59.1819 8.02633 59.0466 8.05783 58.9276 8.09516C58.8273 8.13016 58.7374 8.17216 58.6581 8.22116C58.5811 8.27016 58.5193 8.32966 58.4726 8.39966C58.4283 8.46966 58.4061 8.55483 58.4061 8.65516C58.4061 8.75316 58.4306 8.84416 58.4796 8.92816C58.5286 9.00983 58.6033 9.07516 58.7036 9.12416C58.8039 9.17316 58.9323 9.19766 59.0886 9.19766ZM63.3785 9.79616C63.0261 9.79616 62.7216 9.70866 62.465 9.53366C62.2106 9.35866 62.0135 9.12066 61.8735 8.81966C61.7358 8.51633 61.667 8.17566 61.667 7.79766C61.667 7.41733 61.737 7.07783 61.877 6.77916C62.017 6.47816 62.2153 6.24133 62.472 6.06866C62.731 5.89366 63.0378 5.80616 63.3925 5.80616C63.7495 5.80616 64.0493 5.89366 64.292 6.06866C64.537 6.24133 64.7213 6.47816 64.845 6.77916C64.971 7.08016 65.034 7.41966 65.034 7.79766C65.034 8.17566 64.971 8.51516 64.845 8.81616C64.719 9.11716 64.5335 9.35633 64.2885 9.53366C64.0435 9.70866 63.7401 9.79616 63.3785 9.79616ZM63.48 9.13466C63.7203 9.13466 63.9163 9.0775 64.068 8.96316C64.2196 8.84883 64.3305 8.69133 64.4005 8.49066C64.4705 8.29 64.5055 8.059 64.5055 7.79766C64.5055 7.53633 64.4693 7.30533 64.397 7.10466C64.327 6.904 64.2173 6.74766 64.068 6.63566C63.921 6.52366 63.7331 6.46766 63.5045 6.46766C63.2618 6.46766 63.0623 6.52716 62.906 6.64616C62.7496 6.76516 62.633 6.925 62.556 7.12566C62.4813 7.32633 62.444 7.55033 62.444 7.79766C62.444 8.04733 62.4813 8.27366 62.556 8.47666C62.633 8.67733 62.7473 8.83716 62.899 8.95616C63.053 9.07516 63.2466 9.13466 63.48 9.13466ZM64.5055 9.69116V6.97166H64.4215V4.65116H65.1565V9.69116H64.5055ZM69.1786 9.79616C68.8006 9.79616 68.4728 9.711 68.1951 9.54066C67.9175 9.37033 67.7028 9.13583 67.5511 8.83716C67.4018 8.53616 67.3271 8.18966 67.3271 7.79766C67.3271 7.40333 67.4041 7.05683 67.5581 6.75816C67.7121 6.45716 67.928 6.22383 68.2056 6.05816C68.4833 5.89016 68.8076 5.80616 69.1786 5.80616C69.5566 5.80616 69.8845 5.89133 70.1621 6.06166C70.4398 6.232 70.6545 6.4665 70.8061 6.76516C70.9578 7.06383 71.0336 7.408 71.0336 7.79766C71.0336 8.192 70.9566 8.53966 70.8026 8.84066C70.651 9.13933 70.4363 9.37383 70.1586 9.54416C69.881 9.71216 69.5543 9.79616 69.1786 9.79616ZM69.1786 9.10666C69.5403 9.10666 69.8098 8.98533 69.9871 8.74266C70.1668 8.49766 70.2566 8.18266 70.2566 7.79766C70.2566 7.40333 70.1656 7.08833 69.9836 6.85266C69.804 6.61466 69.5356 6.49566 69.1786 6.49566C68.9336 6.49566 68.7318 6.55166 68.5731 6.66366C68.4145 6.77333 68.2966 6.92616 68.2196 7.12216C68.1426 7.31583 68.1041 7.541 68.1041 7.79766C68.1041 8.19433 68.1951 8.51166 68.3771 8.74966C68.5591 8.98766 68.8263 9.10666 69.1786 9.10666ZM74.4557 9.69116V7.83266C74.4557 7.68566 74.4429 7.53516 74.4172 7.38116C74.3939 7.22483 74.3472 7.08016 74.2772 6.94716C74.2096 6.81416 74.1127 6.70683 73.9867 6.62516C73.8631 6.5435 73.7009 6.50266 73.5002 6.50266C73.3696 6.50266 73.2459 6.52483 73.1292 6.56916C73.0126 6.61116 72.9099 6.68 72.8212 6.77566C72.7349 6.87133 72.6661 6.99733 72.6147 7.15366C72.5657 7.31 72.5412 7.50016 72.5412 7.72416L72.0862 7.55266C72.0862 7.20966 72.1504 6.9075 72.2787 6.64616C72.4071 6.3825 72.5914 6.17716 72.8317 6.03016C73.0721 5.88316 73.3626 5.80966 73.7032 5.80966C73.9646 5.80966 74.1839 5.85166 74.3612 5.93566C74.5386 6.01966 74.6821 6.1305 74.7917 6.26816C74.9037 6.4035 74.9889 6.55166 75.0472 6.71266C75.1056 6.87366 75.1452 7.03116 75.1662 7.18516C75.1872 7.33916 75.1977 7.4745 75.1977 7.59116V9.69116H74.4557ZM71.7992 9.69116V5.91116H72.4537V7.00316H72.5412V9.69116H71.7992ZM79.6738 9.69116C79.4358 9.73783 79.2024 9.75766 78.9738 9.75066C78.7451 9.74366 78.5409 9.69933 78.3613 9.61766C78.1816 9.536 78.0463 9.40766 77.9553 9.23266C77.8736 9.07633 77.8293 8.91766 77.8223 8.75666C77.8176 8.59333 77.8153 8.409 77.8153 8.20366V4.86116H78.5503V8.16866C78.5503 8.32033 78.5514 8.45216 78.5538 8.56416C78.5584 8.67616 78.5829 8.77066 78.6273 8.84766C78.7113 8.99233 78.8443 9.07516 79.0263 9.09616C79.2106 9.11483 79.4264 9.10666 79.6738 9.07166V9.69116ZM77.0908 6.49916V5.91116H79.6738V6.49916H77.0908ZM83.1237 9.69116V7.83266C83.1237 7.68566 83.1109 7.53516 83.0852 7.38116C83.0619 7.22483 83.0152 7.08016 82.9452 6.94716C82.8775 6.81416 82.7807 6.70683 82.6547 6.62516C82.531 6.5435 82.3689 6.50266 82.1682 6.50266C82.0375 6.50266 81.9139 6.52483 81.7972 6.56916C81.6805 6.61116 81.5779 6.68 81.4892 6.77566C81.4029 6.87133 81.334 6.99733 81.2827 7.15366C81.2337 7.31 81.2092 7.50016 81.2092 7.72416L80.7542 7.55266C80.7542 7.20966 80.8184 6.9075 80.9467 6.64616C81.075 6.3825 81.2594 6.17716 81.4997 6.03016C81.74 5.88316 82.0305 5.80966 82.3712 5.80966C82.6325 5.80966 82.8519 5.85166 83.0292 5.93566C83.2065 6.01966 83.35 6.1305 83.4597 6.26816C83.5717 6.4035 83.6569 6.55166 83.7152 6.71266C83.7735 6.87366 83.8132 7.03116 83.8342 7.18516C83.8552 7.33916 83.8657 7.4745 83.8657 7.59116V9.69116H83.1237ZM80.4672 9.69116V4.65116H81.1217V7.37066H81.2092V9.69116H80.4672ZM86.4539 9.79616C86.0782 9.79616 85.748 9.7145 85.4634 9.55116C85.181 9.3855 84.9605 9.15566 84.8019 8.86166C84.6455 8.56533 84.5674 8.22233 84.5674 7.83266C84.5674 7.41966 84.6444 7.0615 84.7984 6.75816C84.9547 6.45483 85.1717 6.22033 85.4494 6.05466C85.727 5.889 86.0502 5.80616 86.4189 5.80616C86.8039 5.80616 87.1317 5.896 87.4024 6.07566C87.673 6.253 87.8749 6.50616 88.0079 6.83516C88.1432 7.16416 88.1969 7.555 88.1689 8.00766H87.4374V7.74166C87.4327 7.303 87.3487 6.97866 87.1854 6.76866C87.0244 6.55866 86.7782 6.45366 86.4469 6.45366C86.0805 6.45366 85.8052 6.56916 85.6209 6.80016C85.4365 7.03116 85.3444 7.36483 85.3444 7.80116C85.3444 8.2165 85.4365 8.5385 85.6209 8.76716C85.8052 8.9935 86.0712 9.10666 86.4189 9.10666C86.6475 9.10666 86.8447 9.05533 87.0104 8.95266C87.1784 8.84766 87.309 8.69833 87.4024 8.50466L88.1199 8.73216C87.9729 9.0705 87.75 9.333 87.4514 9.51966C87.1527 9.704 86.8202 9.79616 86.4539 9.79616ZM85.1064 8.00766V7.43716H87.8049V8.00766H85.1064Z" fill="black"/>
<path d="M15.2058 0.25C14.0189 0.334262 12.6316 1.11404 11.8231 2.12947C11.0856 3.05064 10.479 4.41883 10.7155 5.74846C12.0124 5.78988 13.3523 4.99153 14.1288 3.95896C14.8551 2.9978 15.4048 1.63818 15.2058 0.25Z" fill="black"/>
<path d="M20.9491 8.29937C19.6857 6.68618 17.9101 5.75 16.2332 5.75C14.0194 5.75 13.083 6.82912 11.5449 6.82912C9.95904 6.82912 8.7542 5.75314 6.83973 5.75314C4.95919 5.75314 2.95678 6.92337 1.68715 8.92453C-0.0977401 11.7425 0.207712 17.0407 3.10025 21.5536C4.13539 23.1683 5.51764 24.9841 7.32567 24.9998C8.9347 25.0155 9.38825 23.949 11.5681 23.938C13.7479 23.9254 14.1613 25.014 15.7673 24.9967C17.5768 24.9825 19.0347 22.9704 20.0698 21.3556C20.8118 20.198 21.088 19.6152 21.6634 18.3083C17.4781 16.6857 16.807 10.6257 20.9491 8.29937Z" fill="black"/>
</svg>
