<svg width="113" height="113" fill="none" xmlns="http://www.w3.org/2000/svg"><path fill-rule="evenodd" clip-rule="evenodd" d="M104.616 72.485l-7.403 2.997c2.529-4.902 4.648-9.68 6.321-14.266 1.518-4.156 2.636-8.086 3.357-11.765a49.962 49.962 0 01-2.275 23.034zm-25.42 28.89l-12.794-5.37c.638-.89 1.28-1.814 1.925-2.762l33.079-13.39a50.516 50.516 0 01-22.21 21.522zm-18.5 5.083c.582-1.304 1.231-2.96 2.017-5.048.092-.242.182-.491.274-.738l8.63 3.624a50.562 50.562 0 01-10.922 2.162zM59.44 90.77l-.107.042-2.698 1.093-.136.055-.136-.055-2.698-1.093-.107-.042-1.138-.461a276.36 276.36 0 01-2.923-9.662 50.967 50.967 0 014.188-.36l.107-.008a64.8 64.8 0 012.707-.06c.925.001 1.83.021 2.707.06l.107.007c1.464.068 2.86.189 4.188.36a280.716 280.716 0 01-2.92 9.663l-1.141.461zm-18.059 13.526l8.631-3.624.274.738c.786 2.088 1.435 3.744 2.018 5.048a50.583 50.583 0 01-10.923-2.162zM11.594 79.852l33.08 13.39a131.23 131.23 0 001.924 2.763l-12.795 5.37a50.519 50.519 0 01-22.21-21.523zM6.109 49.451c.721 3.679 1.84 7.609 3.357 11.765 1.673 4.587 3.794 9.364 6.32 14.266l-7.402-2.997A49.923 49.923 0 016.11 49.451zm5.606-16.21c.386-1.31.892-2.51 1.517-3.614l-.005-.005A50.355 50.355 0 0136.665 9.607a51.59 51.59 0 014.296-1.583 22.612 22.612 0 00-1.057 1.746c-1.525 2.795-2.643 6.21-3.357 10.206-1.802.948-3.411 2.059-4.818 3.338-4.843 4.395-7.296 10.627-7.296 18.523 0 6.055 1.454 13.11 4.323 20.972 2.345 6.422 5.558 13.222 9.553 20.208.396.692.796 1.38 1.201 2.066l-15.486-6.269a149.7 149.7 0 01-3.205-5.89c-8.541-16.567-11.773-30.66-9.104-39.682zM42.66 77.029a33.176 33.176 0 00-.354 1.585 150.796 150.796 0 01-2.196-4.094c-8.54-16.57-11.773-30.663-9.104-39.685.91-3.075 2.466-5.566 4.723-7.542a80.99 80.99 0 00-.12 4.407c0 15.437 3.936 33.47 7.051 45.33zm-.969-53.119l.019-.007c3.286-1.287 7.29-2.045 11.976-2.264l.107-.006a66.027 66.027 0 012.707-.06c.925.002 1.83.022 2.707.06l.107.006c4.686.22 8.69.977 11.976 2.264.006.002.013.003.02.007 1.187 10.4-.198 24.907-4.14 42.339a269.163 269.163 0 01-2.173 8.902 56.06 56.06 0 00-5.663-.5 69.187 69.187 0 00-2.718-.054l-.116.001-.118-.001c-.925 0-1.83.02-2.716.055a56.06 56.06 0 00-5.663.5 274.1 274.1 0 01-2.172-8.903c-3.941-17.432-5.328-31.939-4.14-42.339zm2.961-11.01c2.049-4.007 5.02-6.328 9.034-7.038a16.32 16.32 0 012.744-.236h.14c.964.005 1.878.084 2.744.236 4.015.71 6.987 3.03 9.034 7.037.691 1.356 1.272 2.907 1.75 4.634-3.192-.86-6.786-1.37-10.764-1.528a69.382 69.382 0 00-2.718-.055h-.234c-.925 0-1.83.02-2.716.055-3.978.157-7.57.668-10.765 1.528.479-1.727 1.06-3.278 1.751-4.634zm32.62 14.393c2.256 1.976 3.812 4.467 4.722 7.542 2.669 9.022-.563 23.115-9.104 39.685a156.296 156.296 0 01-2.194 4.094 35.645 35.645 0 00-.356-1.585c3.115-11.858 7.05-29.892 7.05-45.329a80.99 80.99 0 00-.119-4.407zm-.937-17.685a50.368 50.368 0 0123.44 20.015l-.01.005a16.991 16.991 0 011.52 3.615c2.67 9.022-.565 23.115-9.104 39.683a149.7 149.7 0 01-3.205 5.89L73.49 85.082c.405-.686.807-1.374 1.201-2.066 3.995-6.986 7.208-13.786 9.552-20.208 2.87-7.862 4.324-14.917 4.324-20.972 0-7.896-2.455-14.128-7.294-18.523-1.408-1.279-3.018-2.39-4.82-3.338-.716-3.996-1.832-7.411-3.357-10.206a22.03 22.03 0 00-1.057-1.746c1.447.463 2.88.987 4.296 1.583zm28.077 16.795a17.114 17.114 0 00-.315-.512l-.004.005C98.158 16.634 89.446 9.01 78.529 4.425 71.535 1.49 64.171 0 56.642 0l-.068.002L56.509 0h-.019l-.064.002L56.36 0c-7.53 0-14.895 1.49-21.89 4.426-10.916 4.583-19.628 12.208-25.563 21.47l-.004-.006c-.109.168-.212.34-.315.512C.662 39.062-2.12 54.695 1.686 69.775a56.12 56.12 0 002.262 6.982c.157.396.317.791.482 1.184a56.153 56.153 0 0022.743 26.218 56.26 56.26 0 006.512 3.367 56.65 56.65 0 0022.721 4.735l.094-.001.094.001a56.65 56.65 0 0022.72-4.735 56.43 56.43 0 006.515-3.367 56.135 56.135 0 0023.223-27.402 55.902 55.902 0 002.262-6.982c3.807-15.08 1.024-30.713-6.902-43.373z" fill="#AA9C8D"/></svg>