<svg width="550" height="421" viewBox="0 0 550 421" fill="none" xmlns="http://www.w3.org/2000/svg">
<path d="M541.2 266.5C527.8 247 499.2 249.7 475.6 249.3C453.9 249 429.8 242.5 418.6 223.9C406.9 204.7 412.9 180.3 415.8 158C419 133.3 417.6 106.8 404.8 85.5001C391.9 64.2001 365.2 50.0001 341.5 57.5001C316.2 65.6001 303.7 93.2001 285.8 112.9C263.6 137.3 229.8 150.7 197 148.1C157.6 145 117.9 120.7 80.9 134.7C53.5 145.1 36.7 176.4 40 205.6C43.2 233.5 61.9 258.8 60.5 286.8C60.5 286.8 60.5 286.9 60.5 287.1C60.5 287.3 60.5 287.5 60.5 287.8C60.3 289.9 59.7 295.3 57.8 302.3V302.4C53.9 315.2 46.7 327.2 39.5 339.1C38.2 340.7 37.1 342.6 36.1 344.7C30.4 357.4 31.2 379.3 46.1 396.4C66.6 419.9 113.9 434.1 208 402.9C208 402.9 217.8 399.5 232.4 396.4C255.1 391.5 289.6 387.1 317.6 396.4C319.4 397 321.1 397.6 322.9 398.4C369.2 417.4 460 423.4 501.5 396.4C504.3 394.6 506.5 392.6 508.2 390.6C508.6 390.2 509 389.8 509.4 389.4C516.9 381.1 523.4 371.9 528.8 362.2C539.7 342.7 546.5 320.8 547.8 298.5C548.2 287.4 547.4 275.6 541.2 266.5Z" fill="#D8E1E5"/>
<path d="M79.7001 372.3C55.5001 343 46.1001 302 55.3001 265C59.8001 246.8 68.5001 229.3 68.6001 210.6C68.7001 192.5 60.8001 175.4 56.3001 157.8C51.7001 140.3 51.2001 119.5 63.5001 106.2C62.7001 123.6 75.2001 138 86.4001 151.4C97.6001 164.8 109.9 179 111.5 196.4C113.4 216.7 100.2 236.7 104.3 256.6C107.4 271.7 119.7 283 127.6 296.2C140.5 317.7 141.4 345.8 130 368.1C124.5 378.8 115.5 388.6 103.8 391.2C92.0001 393.7 80.9001 384.3 79.7001 372.3Z" fill="#97B9C4"/>
<path opacity="0.1" d="M105.9 337.3C108.5 354.6 105.2 372.9 100.2 391.7C99.7 393.7 99.1 395.7 98.6 397.7C97.8 396.1 97 394.6 96.2 393C96.3 392.5 96.5 392 96.6 391.5C98 386.2 99.3 380.9 100.4 375.7C103.1 362.4 104.3 349.6 102.3 337.3C98.6 334.1 94.8 330.9 91 327.7C84.5 322.4 77.8 317.1 71 312.1C70.2 311.5 70.1 310.4 70.6 309.6C71.2 308.8 72.3 308.7 73.1 309.2C77.5 312.5 82 315.9 86.3 319.4C91.3 323.4 96.3 327.4 101.1 331.6C100.6 329.6 100 327.5 99.3 325.5C98.9 325.1 98.8 324.6 98.8 324.1C98.6 323.6 98.4 323 98.2 322.5C95.5 315.9 91.5 309.5 87.6 303.4C83.9 297.5 80.1 291.4 77.3 285C77.2 285 77.1 285 76.9 284.9C71 282.9 65.1 280.6 59.5 277.9C58.6 277.5 58.2 276.4 58.7 275.5C59.1 274.6 60.2 274.3 61.1 274.7C65.8 277 70.7 279 75.7 280.8C74.9 278.6 74.3 276.3 73.9 273.9C71.5 261 75 248.2 78.4 235.8C79.3 232.4 80.3 228.9 81.1 225.4C81.1 225.4 81.1 225.4 81.1 225.3C78 220.1 75.2 214.6 72.8 209C72.4 208.1 72.9 207 73.8 206.7C74.7 206.4 75.7 206.8 76.1 207.6C77.9 211.9 80 216.1 82.3 220.2C83.1 216.1 83.6 212 83.7 207.9C84.1 187.1 72.5 167.3 63.2 151.3C62.7 150.5 63 149.4 63.8 148.9C64.6 148.4 65.7 148.7 66.2 149.6C73.7 162.6 82.8 178.1 86 194.8C89.3 188.4 91.6 181.5 92.9 174.3C93.1 173.3 94 172.7 95 172.9C96 173.1 96.6 174 96.4 175C94.8 184 91.6 192.6 87 200.5L86.9 200.6C87.2 203.1 87.3 205.5 87.2 208C87 217.8 84.4 227.5 81.8 236.8C80.6 241.3 79.4 245.7 78.4 250.1C86 243.1 92.5 234.6 97.4 225.5C97.9 224.6 98.9 224.3 99.8 224.8C100.6 225.3 101 226.3 100.5 227.2C94.8 237.9 86.9 247.7 77.6 255.6C77.5 255.7 77.4 255.7 77.3 255.8C76.4 261.7 76.2 267.5 77.3 273.4C78.5 280 81.3 286 84.6 292C89.1 282.6 93.1 272.8 96.3 262.9C96.6 262 97.6 261.5 98.6 261.8C99.5 262.1 100 263.1 99.7 264.1C96.2 274.9 91.8 285.6 86.8 295.7C88 297.7 89.3 299.8 90.6 301.8C94.4 307.8 98.3 314 101.1 320.6C106.8 311.5 110.3 301.1 111.2 290.3C111.3 289.3 112.1 288.6 113.1 288.7C114.1 288.8 114.8 289.6 114.7 290.6C113.8 302.8 109.6 314.6 102.7 324.7C104 328.3 105 332 105.6 335.8C106.1 335.9 106.2 336.6 105.9 337.3Z" fill="black"/>
<path opacity="0.1" d="M97.5 390.2C104.9 364.7 99.6 339.6 84.9 316.9C76.5 304 65.2 293.6 52.1 286.4C50.3 317.1 60.2 348.5 79.8 372.3C80.8 382.3 88.7 390.5 98.1 391.5C97.8 391.1 97.7 390.7 97.5 390.2Z" fill="black"/>
<path d="M94.6 395C69.5 389.8 46.2 376.3 29.3 357C12.4 337.7 1.9 312.8 0 287.2C28.3 286.2 55.5 298.2 73.8 319.9C92.1 341.6 100.4 367.2 94.6 395Z" fill="#73909E"/>
<path opacity="0.1" d="M96.2 392.9C95.8 394.3 95.4 395.7 95 397.1C94.7 396.4 94.3 395.7 93.9 394.9C93 393.1 92.1 391.3 91.1 389.5C87.2 382.2 83 375.2 78.5 368.3C77.9 368.4 77.2 368.5 76.6 368.5C67.1 369.7 57.5 369.9 48 369C47.2 368.9 46.6 368.2 46.7 367.4C46.8 366.6 47.5 366 48.3 366.1C57.1 366.9 65.9 366.7 74.6 365.8C75.3 365.7 76 365.6 76.7 365.6C74.3 362 71.7 358.4 69.1 354.9C68.9 354.8 68.8 354.6 68.7 354.3C67.4 352.6 66.1 350.9 64.7 349.2C62.6 346.5 60.4 343.8 58.2 341.2C46.9 342.8 35.4 343.5 24.1 343.2C23.3 343.2 22.7 342.5 22.7 341.7C22.7 340.9 23.4 340.3 24.2 340.3C34.8 340.6 45.5 340 56 338.6C49.6 331.3 42.8 324.4 35.7 317.8C35.6 317.8 35.4 317.8 35.3 317.8L8.00003 313.8C7.20003 313.7 6.70003 312.9 6.80003 312.1C6.90003 311.3 7.60003 310.8 8.50003 310.9L31.9 314.3C25.2 308.4 18.3 302.8 11 297.6C10.3 297.1 10.2 296.2 10.7 295.6C11.2 294.9 12.1 294.8 12.7 295.3C24.5 303.8 35.5 313.2 45.7 323.3C43.6 315.1 41 307 37.7 299.1C37.4 298.4 37.7 297.5 38.5 297.2C39.2 296.9 40.1 297.3 40.4 298C44.3 307.4 47.4 317.1 49.5 327C49.5 327.1 49.5 327.1 49.5 327.2C53.3 331.1 56.9 335.2 60.5 339.3C63.4 342.7 66.2 346.2 69 349.7C69.6 339.9 68.4 329.8 65.7 320.4C65.5 319.6 65.9 318.8 66.7 318.6C67.5 318.4 68.3 318.8 68.5 319.6C71.7 330.4 72.7 342 71.7 353.2C74.8 357.3 77.7 361.4 80.5 365.7C80.6 365.8 80.7 366 80.8 366.1C86.1 374.1 91 382.4 95.5 391L95.6 391.1C95.7 391.7 96 392.3 96.2 392.9Z" fill="url(#paint0_linear)"/>
<path d="M349.7 106.7C347.7 106.4 345.7 107.3 344.8 109C342.6 112.8 331.7 123.2 320.6 134.4C318.5 136.5 319.7 139.9 322.5 141L347.9 149.5C349.9 150.3 352.1 149.6 353.5 148C358 143.3 380.1 123.2 383 117.1C384.2 114.5 382.6 111.5 379.5 111L349.7 106.7Z" fill="#FFDC8C"/>
<path d="M230.7 52.7999L228.9 54.0999C227.3 55.1999 225 54.8999 223.8 53.2999L197.7 20.1999C196.4 18.4999 196.7 15.9999 198.5 14.7999L209.4 7.19991C211.3 5.79991 214 6.59991 215 8.79991L232 48.1999C232.7 49.7999 232.2 51.7999 230.7 52.7999Z" fill="#EF940F"/>
<path d="M331.4 66.1999L324.6 62.4999C322.6 61.3999 322.1 58.6999 323.5 56.8999L343.4 32.8999C344.6 31.3999 346.8 31.0999 348.3 32.1999L359.5 39.9999C361.5 41.3999 361.6 44.2999 359.7 45.7999L335.4 65.6999C334.3 66.7999 332.7 66.8999 331.4 66.1999Z" fill="#FFDC8C"/>
<path d="M299.8 45.6001C305.6 47.5001 310.8 50.2001 315.5 53.6001L341.9 22.5001C334.5 16.3001 326 11.2001 316.6 7.3001C305 2.5001 292.3 0.100098 278.6 0.100098C262.7 0.100098 248.7 3.1001 236.7 9.0001C232.4 11.1001 228.4 13.5001 224.7 16.0001L244.5 52.7001C254.2 45.7001 265.6 42.2001 278.7 42.2001C285.9 42.1001 292.9 43.3001 299.8 45.6001Z" fill="url(#paint1_linear)"/>
<path d="M297.9 206.9C296.6 206.9 295.3 206.5 294.2 205.8L270.1 189.8C268.4 188.6 267.3 186.8 267.1 184.7C267 182.6 267.8 180.6 269.3 179.3C272 176.9 274.7 174.6 277.4 172.5C284.6 166.8 291.4 160.9 297.7 154.8C301 151.6 304.2 148.2 307.1 144.6C308.9 142.4 311.9 141.6 314.6 142.6L342.9 153.1C344.9 153.8 346.3 155.4 347 157.4C347.6 159.4 347.3 161.5 346.1 163.2C343.3 167.1 340.4 170.8 337.2 174.1C330.7 181.1 323.7 187.5 316.4 193.3C311.7 197.1 306.9 201 302.4 205.1C301.1 206.3 299.5 206.9 297.9 206.9ZM312.3 146.1C311.5 146.1 310.7 146.4 310.2 147.1C307.2 150.8 304 154.3 300.5 157.6C294.1 163.7 287.2 169.7 279.9 175.5C277.3 177.6 274.7 179.8 272 182.2C271.4 182.8 271.1 183.6 271.1 184.4C271.2 185.3 271.6 186 272.3 186.5L296.4 202.5C297.4 203.2 298.8 203.1 299.7 202.2C304.3 198.1 309.1 194 313.9 190.2C321 184.5 327.9 178.2 334.2 171.4C337.2 168.2 340.1 164.7 342.7 160.9C343.2 160.2 343.3 159.3 343.1 158.5C342.8 157.7 342.2 157 341.4 156.8L313.1 146.3C312.9 146.2 312.6 146.1 312.3 146.1Z" fill="#FFDC8C"/>
<g opacity="0.51">
<path opacity="0.51" d="M353 378C353 381.4 383.4 384.2 421 384.2C458.5 384.2 489 381.4 489 378C489 374.6 458.6 371.8 421 371.8C383.5 371.7 353 374.5 353 378Z" fill="url(#paint2_linear)"/>
</g>
<path d="M445.901 129.206L442.417 129.538L466.218 379.01L469.702 378.678L445.901 129.206Z" fill="#73909E"/>
<path d="M395.15 129.167L371.28 378.64L374.765 378.973L398.635 129.501L395.15 129.167Z" fill="#73909E"/>
<path d="M461 303.9H380.1V307.4H461V303.9Z" fill="#73909E"/>
<path d="M466.1 357.1H376V360.6H466.1V357.1Z" fill="#73909E"/>
<path d="M393.8 130.9H447.3C449 130.9 450.4 129.5 450.4 127.8C450.4 126.1 449 124.7 447.3 124.7H393.8C392.1 124.7 390.7 126.1 390.7 127.8C390.7 129.5 392.1 130.9 393.8 130.9Z" fill="url(#paint3_linear)"/>
<path d="M183.8 326.3H89V350H183.8V326.3Z" fill="#73909E"/>
<path d="M183.8 326.3H89V329.8H183.8V326.3Z" fill="url(#paint4_linear)"/>
<path d="M174.6 350H79.7998V380H174.6V350Z" fill="#73909E"/>
<path d="M181.2 350H79.7998V353.5H181.2V350Z" fill="url(#paint5_linear)"/>
<path d="M164.8 400.5L69 399.5V379.3H174.6L164.8 400.5Z" fill="#73909E"/>
<path d="M174.6 379.3H69V382.8H174.6V379.3Z" fill="url(#paint6_linear)"/>
<path d="M179.8 326.3V350L174.8 353.4V375.2L164.8 382.4V400.5L186.9 380.5V326.3H179.8Z" fill="url(#paint7_linear)"/>
<path d="M206.999 44.2002C199.199 53.5002 193.299 63.8002 189.299 75.0002C185.199 86.4002 182.899 97.5002 182.399 108.4C182.099 111.4 182.999 113.9 184.899 116.1C186.899 118.3 189.099 119.3 191.599 119.3H209.599C211.799 119.3 214.099 118.4 216.299 116.6C218.499 114.8 219.899 112.1 220.499 108.4C223.199 95.3002 227.399 84.7002 233.099 76.5002L206.999 44.2002Z" fill="white"/>
<path d="M209.7 121.3H191.7C188.6 121.3 185.9 120 183.5 117.4C181.2 114.8 180.1 111.7 180.5 108.2C181.1 97.2001 183.4 85.8001 187.5 74.3001C191.5 62.9001 197.6 52.3001 205.6 42.9001L207.1 41.1001L235.6 76.5001L234.7 77.7001C229.2 85.6001 225.1 96.1001 222.5 108.9C221.9 112.9 220.2 116.1 217.6 118.2C215 120.2 212.3 121.3 209.7 121.3ZM207 47.3001C200.1 55.9001 194.8 65.5001 191.2 75.7001C187.2 86.9001 184.9 97.9001 184.4 108.6C184.2 111.1 184.8 113.1 186.4 114.8C188 116.5 189.7 117.4 191.7 117.4H209.7C211.5 117.4 213.3 116.7 215.2 115.1C217.1 113.6 218.2 111.3 218.7 108.2C221.3 95.4001 225.3 84.9001 230.8 76.7001L207 47.3001Z" fill="#FFDC8C"/>
<path d="M127 310.2C127 310.2 126.2 319.6 126.1 320.9C126 322.2 121.9 322.3 121.4 321.6C120.9 320.9 119.8 310.2 119.8 310.2" fill="#FBBE52"/>
<path d="M120.3 322.8C120.3 324.1 120.7 326.3 120.7 326.3H125.4L125.6 325.5C125.6 325.5 127.1 326.3 128.3 326.3H132.3C135.2 326.3 136.9 325.9 136.9 325.4C137.2 323.3 133.7 323.4 132.8 323.4C130.2 323.4 127.4 322.2 126.8 320.9C126.4 319.9 126.6 319.7 126 319.9C126 319.9 125.5 320 125.2 320.6C124.7 321.5 123.8 322.1 122.7 321.9C122.1 321.8 121.5 321.6 121.1 321.1C121.2 321.1 120.3 321.4 120.3 322.8Z" fill="#455A64"/>
<path d="M145.1 308.9C145.1 308.9 141.9 316.7 141.4 317.9C140.8 319.1 137 317.6 136.8 316.8C136.6 316 137.8 306.7 137.8 306.7" fill="#FBBE52"/>
<path d="M135.3 317.4C134.8 318.6 134.1 321.1 134.1 321.1L137.7 323.2L138.4 322.7C138.4 322.7 139.2 324 140.3 324.7C141.1 325.2 142.9 326 143.8 326.2C147.1 326.9 149.6 326.6 149.8 326.1C150.9 324.2 146.6 323.2 145.7 322.9C143.3 321.9 142.2 319.6 142.1 318.1C142 317 142.3 316.9 141.7 316.9C141.7 316.9 141.2 316.8 140.7 317.2C139.9 317.9 138.8 318.1 137.9 317.5C137.4 317.2 136.9 316.8 136.7 316.2C136.8 316.2 135.8 316.2 135.3 317.4Z" fill="#455A64"/>
<path d="M117.6 198.7C115.9 197.4 114.1 196 112.3 194.6C108.3 191.2 104.7 187.6 104.3 184.9C103.3 178.9 104.1 161.2 104.6 152.9C104.6 152.4 104.6 151.9 104.7 151.5C105.2 143.6 109.4 140.1 111.5 138.8C112.6 149.1 115 172.2 115.2 173.4C115.5 174.9 117.6 198.7 117.6 198.7Z" fill="url(#paint8_linear)"/>
<path d="M133.3 252.7C132.9 260 132.8 260.7 131.7 265.9C130.8 270.4 118 271.1 119.8 267.7C122.4 262.7 116.3 254 114.1 227.4C113.8 223.4 112 222.9 110.8 214.6C109.6 206.3 114.2 199.1 114.2 199.1L133.6 197.3L133.8 221.5L133.9 229.7C133.8 229.7 133.9 240.9 133.3 252.7Z" fill="url(#paint9_linear)"/>
<path d="M120.4 264.6C120.4 264.6 116.4 275 116.7 284.7C117 293.2 118.2 312.1 118.2 312.1C118.2 312.1 126.2 312.9 128.6 311.3C132.2 264.5 131.7 264.4 131.7 266C131.7 260.5 120.4 264.6 120.4 264.6Z" fill="url(#paint10_linear)"/>
<path d="M156.3 249.5C156.3 249.5 160.5 260.3 159.8 264.8C159.1 269.3 146.2 310.4 146.2 310.4C146.2 310.4 139.8 310.8 135.8 308.6C135.8 308.6 136.6 295.1 138.8 283.1C142.2 264.4 149.2 260.7 152.3 259.6C155.4 258.6 155.4 252 156.3 249.5Z" fill="url(#paint11_linear)"/>
<path d="M146.9 197.7C146.9 197.7 158.1 247 159.4 259.8C160 265.2 153.1 268.4 147.9 263.5C141.7 257.7 131.7 234.7 128.6 230C125.5 225.3 113.7 221 121.7 197" fill="url(#paint12_linear)"/>
<path d="M121.7 134.2C121.7 134.2 123.1 129.5 122.5 126C121.9 122.5 119.8 116.2 120.6 111.5C121.4 106.8 127.3 102.9 133.6 103.5C139.9 104.1 141.7 110.1 142.8 113.6C143.8 117.1 143.7 122.4 143.4 125.3C143.1 128.2 141.6 130.5 140.5 131.1C139.5 131.7 135.5 130.9 134.8 131.7C134.1 132.5 133.6 136.9 133.6 136.9" fill="#FBBE52"/>
<path d="M118.7 137.9C118.7 137.9 119 135.1 120.1 134.2C121.1 133.2 128.1 133.2 130.2 133.5C132.3 133.8 137.5 136.2 138.1 136.7C138.8 137.2 137.4 139.9 137.4 139.9L118.7 137.9Z" fill="#455A64"/>
<path d="M191.6 110.5C191.5 110 190.9 110.2 190.7 110.6C190.7 110.7 190.6 110.8 190.6 111C190.7 110.2 190.7 109.5 190.7 109.4C190.7 108.9 190.1 109.1 189.9 109.5C189.9 109.2 189.9 108.9 189.9 108.8C189.8 108.2 189.2 108.4 189 108.9C189 109 188.9 109.3 188.8 109.7C188.8 109.5 188.8 109.3 188.8 109.2C188.7 108.7 188.2 108.8 188 109.2C187.9 109.3 187.9 109.6 187.8 110.2C187.7 110.7 187.6 111.2 187.5 111.7C187.4 112.4 187.2 113.1 187.2 113.1C186.1 114.5 184.9 114.9 184.9 114.9L183.5 114.2C183.5 114.2 183.1 116.6 183.2 117.4C183.3 118.1 183.8 119 183.8 119.5C183.7 119.9 182.1 122.7 182.1 122.7L186.6 124.3C186.6 124.3 187.5 120.4 188 119.9C188.5 119.4 190.3 117.2 190.6 116.8C190.7 116.6 190.9 115.9 191.2 114.9L191.5 113.5L191.6 112.1C191.6 112.2 191.6 110.6 191.6 110.5Z" fill="#FBBE52"/>
<path d="M188.3 124.3C188.3 124.3 186.5 129.2 185.3 135C184.3 139.5 183.1 144.3 180.9 148.5V148.6C179.7 151.3 177.4 154.6 175.8 154.9C174.2 155.2 168.7 154.9 168.7 154.9C165.3 155.1 156.7 154 149.4 153C149.3 153 149.2 153 149.1 153C145.7 152.5 142.6 152.1 140.5 151.9C139.5 151.8 138.6 151.4 137.9 150.7C137.3 150.1 136.8 149.4 136.6 148.5C136.1 146.1 137.7 144.2 139.7 142.8C139.8 142.7 139.9 142.7 140 142.6C137.5 140.1 135 137.4 135 137.4C135 137.4 142 137.7 145.9 138C148.6 138.2 166.8 143.1 169 143.7C169.2 143.8 169.3 143.8 169.5 143.9C169.5 143.9 169.8 143.9 170.2 144C170.3 144 170.5 144.1 170.6 144.1C171.2 142.5 172.1 140.8 173.3 139.1C177.2 133.6 181.5 122 181.5 122C181.5 122 184.8 122.2 186.5 122.9C187.2 123.4 188.3 124.3 188.3 124.3Z" fill="url(#paint13_linear)"/>
<path d="M122 128.2C122 128.2 130.7 128.9 132.4 128.2C134.1 127.5 136.5 125.8 136.7 122.9C136.9 119.9 136.3 119 137.4 117.4C138.5 115.7 139.5 116.3 139.7 117.9C139.9 119.5 139.9 122.3 140.4 122.5C141 122.8 141.6 120.8 141.4 117.7C141.2 115.1 140.9 113 140.1 111.3C139.3 109.6 138.9 109.7 138.2 109.3C139 108.9 139.8 108.9 141.3 106.5C143 103.8 142.1 99.5 137.5 99.5C129.4 99.5 120.8 101.1 120.7 107.1C120.7 107.1 117.9 106.7 117.8 112.1C117.7 117.6 121.2 124.2 121.5 125.9C121.6 127.6 121.1 127.8 122 128.2Z" fill="#455A64"/>
<path d="M146.2 192.4C146.5 195.1 148.9 199.4 147.3 200C146.6 200.2 144 200.1 140.7 199.8H140.6C140.5 199.8 140.5 199.8 140.4 199.8C137.5 199.6 134.2 199.2 131.4 199C120.3 198.5 114.7 200.7 113.5 200.1C113 199.8 113 198.8 113.1 197.8C113.5 195.4 113.6 192.9 113.3 190.4C113 188.3 112.6 185.9 112.1 183.1C110.3 173.4 106.7 158.5 106.2 149.6C105.3 135.6 120.3 136.9 120.3 136.9C139.4 135.7 148.3 141.2 149.3 149.4C149.4 150 149.4 150.6 149.5 151.3C150 159.8 147.4 173.4 146.2 183.6C146 186.4 146 189.6 146.2 192.4Z" fill="url(#paint14_linear)"/>
<path d="M135.3 306.1V308.8C135.3 308.8 136.8 310.2 138.3 310.4C139.4 310.6 145.4 311.3 146.5 310.8L147.4 308.5C147.4 308.5 142 308.2 139.2 307.3C136.4 306.6 135.3 306.1 135.3 306.1Z" fill="#455A64"/>
<path d="M117 309.2L117.5 311.9C117.5 311.9 119 312.9 120.8 312.9C121.9 312.9 128.4 312.9 129.3 312.3V309.4C129.3 309.4 123.9 310.1 121 309.8C118.2 309.4 117 309.2 117 309.2Z" fill="#455A64"/>
<path d="M426.5 93.0002C416.6 86.3002 401.9 64.5002 400.4 64.4002C399.6 64.4002 398.8 64.9002 396.4 64.9002C395.2 64.9002 393.3 64.5002 392.1 64.3002C391.9 64.2002 391.6 64.1002 391.6 63.9002C391.6 63.7002 391.7 63.6002 391.8 63.5002C392.3 63.1002 392.9 63.1002 393.5 63.1002C394 63.1002 394.6 63.0002 394.8 62.5002C394.9 62.2002 394.7 61.9002 394.5 61.7002C394.3 61.5002 394 61.4002 393.7 61.4002C392.1 61.0002 390.2 60.6002 388.6 60.2002C389.6 59.9002 390.9 59.6002 391.9 59.4002C392.6 59.2002 393.4 59.1002 394.1 59.0002C395.2 58.9002 397.7 59.0002 398.7 59.2002C400.9 59.6002 401.6 60.1002 403.6 61.1002C404.8 61.7002 405.8 62.5002 406.9 63.3002C409.6 65.4002 419.7 77.3002 422 79.0002" fill="#F2AA41"/>
<path d="M355.4 90.1001C355.2 91.2001 354.9 92.3001 354.6 93.4001C353.8 96.6001 355.8 99.8001 359 100.5L384.8 106.5C387.9 107.2 391.1 105.3 391.8 102.2C392.1 100.8 392.5 99.4001 392.7 98.0001C395.4 85.1001 395.6 72.5001 393.4 60.2001C392.4 54.9001 391 49.9001 389.3 45.1001C388.1 41.8001 384.1 40.3001 381 42.0001L356.3 55.4001C353.7 56.8001 352.7 59.9001 353.7 62.6001C354.3 64.2001 354.8 65.9001 355.3 67.6001C357 74.5001 357.1 82.0001 355.4 90.1001Z" fill="#F8C608"/>
<path d="M378 117.6C378 117.6 381.9 125 383.8 133.6C385.4 141 382 153.1 383.1 161.7C383.4 163.4 383.9 167.4 384.6 168.6C385.5 170 387.4 171.5 387.7 173.5C387.9 174.6 387.3 175.9 385.9 176.6C384.6 177.3 383.6 176.7 383.1 176.7C380.2 177.1 379.8 179.3 374.9 180.2C373.4 180.5 371 180.1 369.6 179.1C369.1 178.7 369 178.1 369.3 177.6C369.6 177.2 373.2 175.8 374.7 174.7C376.2 173.7 377.8 171.1 378 170C378.2 169 377.2 164.2 376.7 162.2C373.6 148.4 369.7 129 367.7 121" fill="#F2AA41"/>
<path d="M369.1 179.2C368.7 178.6 368.6 177.7 369 177.5C369.5 177.2 371.1 176.2 372.1 175.7C373.1 175.3 377.1 172.9 376.6 173.2C376.1 173.5 377 174.1 377.9 174C381 173.8 380.7 173.9 382.5 173.4C385 172.8 385.6 170.5 385.7 170C386.2 170.3 387.8 172.5 388.1 173.3C388.3 174 388.7 175.2 388.5 175.9C388.4 176.4 384.2 177.5 384.2 177.5C384.2 177.5 383.5 177.5 382.6 177.6C381.7 177.8 380.7 178.4 380.2 178.9C379.8 179.3 379.5 179.9 379 180.1C377.6 180.7 376.6 180.9 375 181C371.7 181.1 369.8 180.2 369.1 179.2Z" fill="#455A64"/>
<path d="M375 120.3C375 120.3 378.9 129.2 377.7 137.9C376.7 145.4 369 157.8 367.1 166.3C366.8 168 365.9 171.9 366.2 173.3C366.6 175 367.8 177 367.4 179C367.2 180.1 366.2 181.1 364.7 181.3C363.2 181.5 362.5 180.6 362 180.5C359.2 179.9 358.1 181.8 353.1 181C351.6 180.8 349.5 179.6 348.5 178.2C348.1 177.7 348.3 177.1 348.7 176.7C349.1 176.4 352.9 176.3 354.8 175.9C356.6 175.5 358.9 173.5 359.5 172.6C360 171.7 360.7 166.9 361 164.8C362.8 150.8 366.3 127.2 367.2 119" fill="#FBBE52"/>
<path d="M348 178.4C347.8 177.7 348 176.8 348.4 176.7C348.9 176.6 350.8 176.1 351.8 175.9C352.8 175.8 357.4 174.8 356.8 174.9C356.2 175 356.9 175.8 357.8 176.1C360.8 176.9 360.5 176.8 362.3 177C364.9 177.2 366.2 175.1 366.4 174.7C366.8 175.1 367.7 177.8 367.7 178.5C367.7 179.2 367.7 180.5 367.3 181.1C367 181.5 362.7 181.3 362.7 181.3C362.7 181.3 362 181.1 361.2 181C360.3 180.9 359.1 181.2 358.5 181.5C358 181.8 357.5 182.2 357 182.3C355.5 182.4 354.5 182.4 352.9 182C349.9 181 348.3 179.5 348 178.4Z" fill="#455A64"/>
<path d="M419.1 100.9L441.6 113.8C441.6 113.8 440.7 122 430.5 124.2C424.6 125.5 414.7 123.5 412.4 124.2C397.2 128.8 371.1 123.5 371.1 123.5C371.1 123.5 367.4 126.5 367.2 123.4C366.9 119.3 366.6 117.2 369.8 115.1C375.2 111.5 395.7 104.8 419.1 100.9Z" fill="#FBBE52"/>
<path d="M437.2 93.8002C437.2 93.8002 444.2 107.5 442.4 113.4C440.6 119.2 437.2 124.8 427.5 124.8C417.8 124.9 398.6 129.4 398.6 129.4C398.6 129.4 392.8 118.6 390.7 114.6C388.6 110.7 390.3 106.6 390.3 106.6C390.3 106.6 409.7 100.1 411.4 98.4002C413.1 96.8002 414.8 93.2002 414.8 93.2002" fill="url(#paint15_linear)"/>
<path d="M414.4 44.3003C413.1 44.7003 413.6 47.8003 412.3 48.2003C411.4 48.5003 409.5 48.1003 408.7 48.6003C404.2 51.2003 405.3 56.3003 404.8 62.6003C402.9 67.5003 402.4 71.9003 403.9 74.6003C405.8 78.0003 407.8 78.9003 410.1 81.7003C411.8 83.8003 411.5 87.1003 411.9 91.7003C412 92.5003 411 96.3003 411 96.3003C410.8 97.3003 415 98.0003 417.5 97.6003C422.1 96.8003 431.4 95.6003 434 95.7003C436.4 95.8003 439.1 93.2003 439.1 93.2003C439.1 93.2003 437.9 91.8003 437.5 89.8003C436.6 85.5003 436 74.9003 435.3 71.2003C433.6 61.9003 432.3 55.0003 428.5 46.5003" fill="url(#paint16_linear)"/>
<path d="M397.9 31.8003C397.4 29.6003 397 27.3003 397.1 25.4003C397.2 21.7003 397.7 16.4003 403.8 14.2003C409.9 12.0003 416.6 13.3003 418.6 17.7003C420.6 22.1003 420.1 28.8003 420.4 32.3003C420.7 35.9003 423.3 40.1003 423.3 40.1003L410.2 45.8003C410.2 45.8003 408.1 41.1003 407.2 40.6003C406.3 40.0003 406.3 41.7003 403.3 42.4003C402.1 42.7003 400.5 39.7003 399.5 37.0003C399.5 36.9003 399.4 36.8003 399.4 36.7003C398.8 36.7003 398 36.6003 397.8 36.6003C396.9 36.3003 397 35.9003 397.2 35.4003C397.6 34.0003 397.8 32.7003 397.9 31.8003Z" fill="#FBBE52"/>
<path d="M376.6 103.9C376.4 105 373.9 107.5 372.3 107.7C371.8 107.8 371.2 107.7 370.8 107.4C370 107.6 367.8 107.5 368.8 106.3C367.2 107.3 365.6 106.9 363.8 106.6C363.2 106.5 363.3 105.8 364.7 105.6C366.6 105.4 368.1 104.4 369.4 102.8C369.2 102.5 368.9 102.9 368.1 102.9C367.3 102.9 366.9 102.5 366.9 102.1C366.9 101.8 368 101.7 368.2 101.6C369.1 101.2 370 100.8 370.9 100.4C371.9 99.9001 372.6 99.8001 373.7 99.9001C373.9 99.9001 375.6 100.3 375.1 100.9" fill="#FBBE52"/>
<path d="M407.3 69.0002C407.3 69.0002 400.4 87.6002 399.2 89.1002C394.5 95.1002 375.9 104.5 375.9 104.5C375.9 104.5 373 103.4 373.6 100.4C379.3 97.9002 389.8 86.3002 392.2 84.9002C393.7 84.0002 400.3 61.2002 400.3 61.2002" fill="#FBBE52"/>
<path d="M404.4 48.3001C409.4 46.4001 414.2 46.4001 418 42.6001C421.9 45.6001 413.3 62.9001 411.2 63.3001C409 63.8001 406.2 73.3001 405.7 74.6001C398.8 74.4001 396.3 70.6001 396.3 70.6001C399.1 62.0001 399.6 50.2001 404.4 48.3001Z" fill="url(#paint17_linear)"/>
<path d="M408.4 48.8002C408.7 47.5002 409.7 46.5002 409.9 45.1002C410.1 43.8002 409.9 42.2002 409.2 41.2002C408.8 40.5002 408.1 40.1002 407.5 39.6002C404.8 37.4002 403.9 36.9002 404.8 33.7002C405.1 32.6002 405.4 31.5002 405.3 30.4002C405.2 29.4002 405 28.4002 403.9 28.2002C403.2 28.1002 402.7 28.3002 402.4 28.9002C402.1 29.6002 403.3 35.5002 401.4 29.4002C400.8 27.5002 399.5 27.6002 399.6 23.6002C399.6 23.1002 399.8 21.2002 399.5 21.0002C395.9 23.5002 397.5 27.2002 397.3 28.9002C395.9 28.3002 395.2 23.8002 395.2 23.0002C395.2 21.5002 395.4 20.3002 395.9 19.1002C398.3 14.0002 400.8 13.0002 402.9 12.1002C405 11.2002 407.1 10.3002 409.4 10.4002C411.6 10.5002 414.4 11.1002 415.1 12.8002C418.2 12.0002 420 14.7002 420.7 15.7002C421.7 17.1002 422.6 18.7002 423.1 20.3002C423.9 22.8002 424.1 25.4002 424.7 27.9002C425.2 29.9002 426.1 32.1002 427.7 33.5002C429.2 34.9002 431.3 35.0002 433 36.3002C435.1 37.9002 436.3 40.6002 436.1 43.2002C436 45.8002 434.6 48.7002 436.2 51.1002C436.7 51.9002 437.4 52.5002 438 53.3002C439.2 55.1002 439 57.6002 437.9 59.5002C436.8 61.4002 434.6 63.5002 432.5 64.1002C430.4 64.7002 428.8 65.0002 426.7 64.9002C422.9 64.7002 419.7 64.9002 415.7 61.5002C413.4 59.6002 414.9 58.5002 412.7 56.4002C411.5 55.2002 409.8 54.6002 408.9 53.1002C408.2 51.9002 408 50.3002 408.3 48.9002C408.4 48.9002 408.4 48.8002 408.4 48.8002Z" fill="#455A64"/>
<path d="M402.9 128.9C399.6 123 393.9 112.9 393.3 111.1C392.8 109.7 393.2 107.2 393.6 105.1C391.7 105.8 390.4 106.2 390.4 106.2C390.4 106.2 388.7 110.5 390.8 114.5C392.9 118.6 398.7 129.8 398.7 129.8C398.7 129.8 400.3 129.5 402.9 128.9Z" fill="#455A64"/>
<path opacity="0.51" d="M280.3 393.9C280.3 396.4 305.2 398.5 335.8 398.5C366.5 398.5 391.3 396.5 391.3 393.9C391.3 391.4 366.4 389.3 335.8 389.3C305.2 389.3 280.3 391.4 280.3 393.9Z" fill="url(#paint18_linear)"/>
<path d="M271.7 284.4C271.7 284.4 270.1 283.8 269.6 283.4C269.1 283 268.8 280.9 268.2 280.1C267.6 279.3 265.1 277.6 265.1 277.6C265.1 277.6 262.6 275.5 262.2 275.4C261.8 275.3 261.5 276 261.9 276.7C262.3 277.5 263.7 278.8 263.7 279C263.7 279.3 263.6 279.6 263.3 279.7C262.6 279.9 261.6 280.1 260.3 280C260.3 280 259.4 279.5 258.6 279C258 278.6 257.4 278.2 256.8 277.8C256.1 277.3 255.9 277.1 255.7 277.1C255.1 276.9 254.5 277.3 254.9 277.8C255 277.9 255.1 278 255.4 278.2C254.9 277.9 254.6 277.6 254.4 277.6C253.8 277.3 252.9 277.7 253.4 278.3C253.5 278.4 253.7 278.6 254.1 278.9C253.5 278.8 252.8 279.2 253.2 279.7C253.3 279.9 254 280.5 254.9 281.2C254.7 281.1 254.5 281 254.5 281C253.9 280.8 253.1 281.2 253.5 281.7C253.6 281.9 255.1 283.3 255.1 283.3L256.6 284.5L258.2 285.6C259.3 286.2 260.3 286.7 260.6 286.8C261.2 287 265.1 287.2 266.1 287.2C267.1 287.2 269.8 288.8 269.8 288.8L271.7 284.4Z" fill="#F2AA41"/>
<path d="M260.2 190.4C254.9 196 250.1 202.3 245.8 209.4C240.4 218.3 236.5 229.3 234.3 242.3L230 267C229.4 270.6 229.9 273.9 231.7 276.9C233.4 279.9 235.8 281.7 238.9 282.2L254.2 284.9C257.2 285.4 260.1 284.6 262.7 282.4C265.4 280.2 267 277.3 267.6 273.7L268.8 266.9C270.7 255.8 276.8 232.2 281.9 224.9C283.3 223 284.7 221.1 286.1 219.3L260.2 190.4Z" fill="url(#paint19_linear)"/>
<path d="M306.9 379.4C306.9 379.4 309.6 384.5 309.7 386.2C309.8 387.5 314.9 386.5 315.3 385.7C315.6 384.9 313 377.1 313 377.1" fill="#2198DF"/>
<path d="M316.8 386.4C317.1 388.1 317.6 392 317.6 392L312 392.8L311.7 392.1C311.7 392.1 310.9 392.8 309.4 393.2L299.6 394.5C299.6 394.5 296.9 394.7 296.8 394.1C296.4 392.3 300.3 391.1 301.3 390.5C304.7 388.5 307 387.3 308.1 385.8C308.9 384.7 308.1 384.2 308.8 384.3C308.8 384.3 309.4 384.3 310 385C310.9 386 312.2 386.5 313.4 386C314.1 385.7 314.8 385.3 315.2 384.6C315.2 384.5 316.5 384.7 316.8 386.4Z" fill="#455A64"/>
<path d="M293 331.6C285.6 330.5 286.7 330 281.3 329.9C276.7 329.9 272.7 338.1 276.8 342.6C281.6 347.9 284.3 348.3 310.5 356C314.5 357.2 319.4 358.3 327.5 361.2C335.6 364.1 343 362.5 343 362.5L344.6 342.6L320.4 337.3L312.2 335.5C312.3 335.7 305 333.5 293 331.6Z" fill="url(#paint20_linear)"/>
<path d="M287.4 331.8C287.4 331.8 297.1 341.2 301.6 348.7C306.1 356.2 314.9 379.1 314.9 379.1C314.9 379.1 310.1 382.2 306.7 381.9C306.7 381.9 280.6 349.3 275.8 341C273 336.3 287.4 331.8 287.4 331.8Z" fill="url(#paint21_linear)"/>
<path d="M350.5 377.9C350.5 377.9 356.8 377.7 358.1 377.5C359.4 377.3 359.2 372.4 358.5 371.9C357.8 371.4 350.701 371.9 350.701 371.9" fill="#FBBE52"/>
<path d="M359.501 370.5C361.201 370.4 364.001 370.8 364.001 370.8L364.301 376.8L363.301 377.1C363.301 377.1 364.401 379 364.501 380.5L364.701 385.6C364.901 389.3 364.501 391.5 363.901 391.6C362.001 391.7 361.501 387.6 361.101 386.5C359.601 382.8 358.901 380.4 357.501 379C356.601 378 356.001 378.8 356.201 378.1C356.201 378.1 356.301 377.5 357.001 377C358.101 376.3 358.801 375.1 358.601 373.8C358.401 373.1 358.101 372.3 357.501 371.8C357.401 371.8 357.801 370.6 359.501 370.5Z" fill="#455A64"/>
<path d="M298.3 370.9C298.3 370.9 312.1 367.9 320.8 368.6C329.5 369.2 352.7 370.5 352.7 370.5C352.7 370.5 353.2 377.7 352.3 380.1C352.3 380.1 299.2 397.1 290.7 391.6C280 384.6 298.3 370.9 298.3 370.9Z" fill="url(#paint22_linear)"/>
<path d="M352.501 362.1C344.501 365.1 343.701 366.4 340.101 368.5C316.301 382 308.401 383.6 302.701 384.2C296.501 384.8 293.701 376.8 296.901 373.5C299.901 370.4 300.901 369.8 304.101 367.4C305.001 366.8 306.001 366 307.301 365C316.901 357.7 326.401 351.2 326.401 351.2C326.601 351.1 330.201 348.9 330.301 344.6C330.401 341.8 328.901 339.1 326.501 337.7C337.401 337.5 348.201 337.2 359.101 337C359.101 337.1 366.401 356.9 352.501 362.1Z" fill="url(#paint23_linear)"/>
<path d="M342.1 278.5C339.4 278.2 306.5 285.5 303.1 286.1C299.8 286.7 270.2 283.7 270.2 283.7C270.2 283.7 270.6 285.7 270.8 287.9C270.9 288.8 299.2 301.5 303.1 300.2C307 298.9 344.1 292.2 344.1 292.2L342.1 278.5Z" fill="url(#paint24_linear)"/>
<path d="M350.5 271.7C350.5 271.7 349.1 266.8 349.7 263.3C350.3 259.7 352.5 253.3 351.7 248.4C350.9 243.6 344.8 239.5 338.4 240.2C332 240.8 330.1 247 329 250.6C327.9 254.2 328.1 259.6 328.4 262.6C328.7 265.6 330.3 267.9 331.3 268.5C332.4 269.1 336.4 268.3 337.1 269.1C337.8 269.9 338.3 274.4 338.3 274.4" fill="#FBBE52"/>
<path d="M353.5 275.5C353.5 275.5 353.1 272.7 352.1 271.7C351 270.7 343.9 270.7 341.7 271C339.6 271.3 334.3 273.7 333.6 274.3C332.9 274.8 334.3 277.5 334.3 277.5L353.5 275.5Z" fill="#455A64"/>
<path d="M350.201 265.5C349.901 265.6 349.501 265.6 349.201 265.6C348.301 265.7 347.501 265.9 346.601 266C345.401 266 344.301 266.1 343.101 266.1C341.701 266.2 340.201 266.2 339.001 265.3C337.801 264.4 337.501 262.8 337.201 261.3C337.201 261.1 337.201 260.9 337.301 260.8C337.401 260.7 337.501 260.7 337.701 260.7C340.701 260.7 341.001 256.6 340.301 254.4C339.901 253 337.701 252.5 337.101 254.2C336.901 254.7 337.101 255.4 336.601 255.7C336.201 255.9 335.701 255.7 335.501 255.3C335.301 254.9 335.301 254.5 335.401 254C335.601 252.4 336.101 250.8 336.801 249.3C337.101 248.6 339.001 247 337.801 246.4C336.801 245.9 335.601 245.9 334.501 245.8C332.501 245.5 332.401 245.5 330.701 244.4C329.801 243.9 329.501 242.5 329.001 241.6C328.501 240.7 328.601 239.4 329.501 238.8C329.901 238.5 329.901 239.3 330.401 239.2C332.101 239.1 332.901 238.2 334.601 237.9C337.901 237.3 340.201 237.6 343.501 237.9C345.201 238.1 347.001 238.4 348.401 239.3C349.601 240.1 350.401 241.1 350.801 242.5C351.201 243.5 351.601 243.6 352.501 244.1C354.101 245 354.301 247.3 354.401 249C354.501 254.6 350.901 261.4 350.601 263.1C350.601 263.5 350.701 264.5 350.501 264.9C350.601 265.3 350.401 265.5 350.201 265.5Z" fill="#455A64"/>
<path d="M270.8 285.8C270.8 285.8 269.2 285.2 268.7 284.8C268.2 284.4 267.9 282.3 267.3 281.5C266.7 280.7 264.2 279 264.2 279C264.2 279 261.7 276.9 261.3 276.8C260.9 276.7 260.6 277.4 261 278.1C261.4 278.9 262.8 280.2 262.8 280.4C262.8 280.7 262.7 281 262.4 281.1C261.7 281.3 260.7 281.5 259.4 281.4C259.4 281.4 258.5 280.9 257.7 280.4C257.1 280 256.5 279.6 255.9 279.2C255.2 278.7 255 278.5 254.8 278.5C254.2 278.3 253.6 278.7 254 279.2C254.1 279.3 254.2 279.4 254.5 279.6C254 279.3 253.7 279 253.5 279C252.9 278.7 252 279.1 252.5 279.7C252.6 279.8 252.8 280 253.2 280.3C252.6 280.2 251.9 280.6 252.3 281.1C252.4 281.3 253.1 281.9 254 282.6C253.8 282.5 253.6 282.4 253.6 282.4C253 282.2 252.2 282.6 252.6 283.1C252.7 283.3 254.2 284.7 254.2 284.7L255.7 285.9L257.3 287C258.4 287.6 259.4 288.1 259.7 288.2C260.3 288.4 264.2 288.6 265.2 288.6C266.2 288.6 268.9 290.2 268.9 290.2L270.8 285.8Z" fill="#FBBE52"/>
<path d="M329 252C328.1 253.1 327.1 254.1 326.2 255.2C325.7 255.8 325.2 256.4 325.2 257.2C325.2 257.4 325.2 257.6 325.3 257.7C325.4 258 325.8 258.2 326.1 258.3C327.4 258.7 328.8 258.1 330 257.4" fill="#FBBE52"/>
<path d="M353.5 380.4L350.9 380.5C350.9 380.5 351.2 377.3 351.3 375.3C351.4 373.3 351.1 370.1 351.1 370.1H353.8C353.8 370.2 354.1 373.4 354.1 375.5C354 377.6 353.5 380.2 353.5 380.4Z" fill="#455A64"/>
<path d="M246.5 353.2C260.528 353.2 271.9 341.828 271.9 327.8C271.9 313.772 260.528 302.4 246.5 302.4C232.472 302.4 221.1 313.772 221.1 327.8C221.1 341.828 232.472 353.2 246.5 353.2Z" fill="url(#paint25_linear)"/>
<path d="M534 213.2C522.8 227.4 508.7 239.9 501.6 256.6C494.6 273 495.1 291.4 492.5 309.1C492.4 310 492.2 310.9 492.1 311.8C491.4 316 490.4 320.1 489.3 324.1C488.9 325.5 488.5 326.9 488 328.3C487.6 329.7 487.1 331.1 486.6 332.4C486.2 333.4 485.9 334.3 485.5 335.3C482.4 343.1 478.5 350.6 474 357.6C473.4 358.5 472.8 359.4 472.2 360.2C466.9 367.9 460.8 375 453.9 381.3C452.9 382.2 452 383.1 451 383.9C443.7 390.3 435.5 395.8 426.8 400.2C426.6 400.6 426.4 400.9 426.1 401.3C421.3 408.8 412.3 412.6 404.1 410.9C404 410.9 403.8 410.8 403.6 410.8C402.8 410.6 402 410.3 401.2 410C400.9 409.9 400.5 409.7 400.2 409.6C399.1 409.1 398.1 408.5 397.1 407.8C387.3 400.8 383.1 388.2 382.3 376.1C380.7 351.1 392.8 325.7 413.2 311.2C425.8 302.3 441.5 296.9 450.4 284.3C462.1 267.7 458 244 467.9 226.2C476.4 210.9 493.3 202.8 508.9 195.1C524.5 187.4 541.7 179.3 548 162.9C554 180.2 545.2 199 534 213.2Z" fill="#97B9C4"/>
<path opacity="0.1" d="M530.4 204.3C515.5 215.2 497 228.8 489 247.9C487.4 251.7 486.3 255.7 485.4 259.7C489.1 256.9 492.7 253.8 496.1 250.6C496.8 249.9 497.9 249.9 498.6 250.7C499.3 251.4 499.3 252.5 498.5 253.2C494.1 257.4 489.4 261.4 484.4 264.9C484.4 264.9 484.4 264.9 484.3 264.9C483.7 268.5 483.1 272 482.6 275.6C480.7 288.3 478.8 301.4 471.5 312.3C471.1 312.8 470.8 313.4 470.4 313.9C469.4 315.3 468.2 316.7 467.1 317.9C469.2 318.1 471.3 318.2 473.5 318.2C474.6 318.2 475.7 318.3 476.8 318.3C478.9 318.3 480.9 318.3 482.9 318.2C483.9 318.2 484.7 318.9 484.7 319.9C484.7 320.9 484 321.7 483 321.8C480.3 321.9 477.5 321.9 474.8 321.9C473.7 321.9 472.6 321.8 471.5 321.8C469.1 321.7 466.6 321.5 464.2 321.3C464.1 321.3 463.9 321.3 463.8 321.2C458.7 326 452.8 330 447 333.9C445.6 334.9 444.1 335.8 442.7 336.8C438.1 340 433.6 343.3 429.6 347.1C429.2 347.5 428.8 347.9 428.4 348.3C428.2 348.8 427.9 349.2 427.4 349.4C426 350.9 424.6 352.5 423.3 354.2C428.4 352.7 433.6 351.2 438.7 349.8C439.7 349.5 440.8 349.2 441.8 349C447.1 347.6 452.5 346.3 457.9 345C458.3 344.9 458.8 345 459.1 345.2C459.5 345.4 459.9 345.8 460 346.3C460.2 347.3 459.6 348.2 458.7 348.4C457.1 348.8 455.4 349.2 453.8 349.6C449.5 350.6 445.3 351.7 441 352.8C440 353.1 438.9 353.4 437.9 353.7C431.9 355.3 425.9 357.1 419.9 358.9C415 366.5 411.5 375.1 408.9 384.3C408.9 384.3 408.9 384.3 408.9 384.4C407 391 405.6 397.8 404.4 404.9C404.1 406.9 403.7 408.8 403.5 410.8C402.7 410.6 401.9 410.3 401.1 410C400.6 410.7 400.2 411.4 399.7 412.1C399.8 411.2 400 410.4 400.1 409.5C403 390.3 407.3 372.2 416.6 357.4C416.6 356.7 417 356.1 417.6 355.8C419.7 352.6 422.1 349.6 424.7 346.8C422.4 334.8 423.3 322.3 427.3 310.8C427.6 309.9 428.6 309.4 429.6 309.7C430.5 310 431 311 430.7 312C427.2 322.2 426.2 333.1 427.8 343.8C427.9 343.7 427.9 343.7 428 343.6C433.2 338.8 439.2 334.7 444.9 330.8C446.9 329.4 448.9 328.1 450.8 326.7C450.7 325.6 450.7 324.4 450.7 323.2C450.3 313 450.7 302.7 451.7 292.5C451.8 291.5 452.7 290.8 453.7 290.9C454.7 291 455.4 291.9 455.3 292.8C454.4 302.2 454.1 311.6 454.3 321C454.3 322 454.3 323.1 454.4 324.1C457.6 321.7 460.6 319.2 463.3 316.4C465.2 314.5 467 312.4 468.5 310C471.8 305.1 474 299.6 475.5 293.9C475.4 293.8 475.4 293.7 475.3 293.6C469.9 282.7 466.6 270.6 465.7 258.5C465.6 257.5 466.4 256.7 467.3 256.6C468.3 256.5 469.1 257.3 469.2 258.2C470 268.5 472.6 278.9 476.7 288.4C477.6 284 478.3 279.5 478.9 274.8C480.3 265.2 481.7 255.3 485.5 246.3C486.4 244 487.6 241.8 488.8 239.6C488.8 239.6 488.8 239.5 488.8 239.4C487.7 230.3 488.2 221.2 490.4 212.3C490.6 211.3 491.6 210.8 492.6 211C493.6 211.2 494.1 212.2 493.9 213.1C492.2 220.2 491.5 227.4 492 234.6C501.6 220.5 516.1 210 528.2 201.1C529 200.5 530.1 200.7 530.7 201.5C531.4 202.6 531.2 203.7 530.4 204.3Z" fill="black"/>
<path d="M408.1 403.9C433.7 402.2 458.6 392 478 375.2C497.4 358.4 511.1 335.2 516.5 310.1C488.6 305.2 460 313.4 439 332.4C417.9 351.4 406.2 375.6 408.1 403.9Z" fill="#73909E"/>
<path opacity="0.1" d="M506.6 333.7C506.6 334.5 506 335.2 505.2 335.2L485.4 335.4L477.6 335.5C477.5 335.5 477.3 335.5 477.2 335.4C469.2 340.9 461.6 346.9 454.2 353.2C460.7 355 467.2 356.5 473.9 357.6C477.7 358.3 481.6 358.8 485.5 359.2C486.3 359.3 486.9 360 486.8 360.8C486.7 361.6 486 362.2 485.2 362.1C480.9 361.6 476.5 361 472.2 360.2C465.3 359 458.4 357.4 451.7 355.5C447.5 359.2 443.4 363.1 439.5 367.1C439.4 367.3 439.2 367.5 439 367.6C435.9 370.7 432.9 373.9 430 377.2C437.8 379.3 445.9 380.7 454 381.4C455.4 381.5 456.7 381.6 458.1 381.7C458.9 381.7 459.5 382.4 459.5 383.2C459.5 384 458.8 384.6 458 384.6C455.7 384.5 453.4 384.3 451.1 384C443.3 383.2 435.5 381.7 427.9 379.6C421.1 387.3 414.8 395.5 409 403.9C407.4 406.2 405.8 408.6 404.3 411C404.1 411.3 403.9 411.6 403.7 411.9C403.7 411.6 403.8 411.2 403.8 410.9C403 410.7 402.2 410.4 401.4 410.1C402.5 408.4 403.6 406.7 404.8 405C405.9 403.3 407.1 401.7 408.2 400C413.8 392.1 419.8 384.5 426.2 377.2C426.3 377 426.4 376.9 426.5 376.8C429.9 373 433.4 369.3 436.9 365.6C437.1 361.6 437.5 357.6 438.2 353.7C438.4 352.4 438.7 351.1 439 349.8C440 345.3 441.3 341 443 336.8C443.5 335.5 444 334.1 444.6 332.8C444.9 332.1 445.8 331.8 446.5 332.1C447.2 332.4 447.5 333.1 447.3 333.8C447.3 333.9 447.3 333.9 447.3 334C445.1 338.8 443.4 343.8 442.2 349C441.9 350.3 441.6 351.6 441.4 352.9C440.8 356.1 440.3 359.3 440.1 362.6C444.7 358.1 449.4 353.8 454.2 349.7C456 348.2 457.8 346.7 459.6 345.2C460.5 344.4 461.5 343.7 462.5 342.9C462.5 342.8 462.5 342.8 462.6 342.7C465.3 335.5 468.4 328.5 472 321.7C472.6 320.5 473.3 319.4 473.9 318.2C474.5 317.2 475 316.2 475.6 315.2C476 314.5 476.9 314.3 477.6 314.7C478.3 315.1 478.5 316 478.1 316.7C477.8 317.2 477.5 317.8 477.2 318.3C476.5 319.4 475.9 320.6 475.2 321.8C472.1 327.5 469.3 333.5 466.9 339.5C474.2 334 481.8 328.8 489.6 324.1C494.1 321.4 498.7 318.7 503.4 316.3C504.1 315.9 505 316.2 505.4 316.9C505.8 317.6 505.5 318.5 504.8 318.9C499.2 321.9 493.7 325.1 488.4 328.4C486.2 329.7 484 331.2 481.9 332.6L487 332.5L505.6 332.3C505.9 332.3 506.6 332.9 506.6 333.7Z" fill="url(#paint26_linear)"/>
<path d="M325.4 331.3C325.1 334.1 322.6 338.4 324.3 339.1C325 339.3 327.7 339.2 331.1 338.9H331.2C331.3 338.9 331.3 338.9 331.4 338.9C334.4 338.6 337.8 338.3 340.6 338.1C352 337.6 359.5 339.2 360.6 338.5C361.1 338.2 361.2 337.2 361 336.2C360.6 333.7 358.7 331.9 359.1 329.4C359.4 327.3 360.1 298.6 360.7 289.4C361.6 275 352 274.5 352 274.5C332.5 273.3 323.3 278.9 322.2 287.3C322.1 287.9 322.1 288.5 322 289.2C321.5 297.9 324.1 311.9 325.4 322.3C325.6 325.2 325.5 328.5 325.4 331.3Z" fill="url(#paint27_linear)"/>
<path d="M267.2 289.7C267.2 289.7 297.9 304.6 302.4 304.6C306.9 304.6 331.7 301.3 333.7 299.1C335.7 296.8 334.5 289.2 334.1 288.3C333.3 285.8 330.8 284.9 328.1 284.7C328 284.7 327.8 284.7 327.7 284.7C328.7 281 335.8 277.5 335.8 277.5C335.8 277.5 329.1 274.9 319.6 282.9C315.5 286.3 301.7 291.5 301.6 291.7C300.2 290.5 270.3 285.7 270.3 285.7L267.9 288.9L267.2 289.7Z" fill="url(#paint28_linear)"/>
<defs>
<linearGradient id="paint0_linear" x1="6.65123" y1="345.953" x2="96.2288" y2="345.953" gradientUnits="userSpaceOnUse">
<stop offset="0.0793651" stop-color="#455A64"/>
<stop offset="0.3085" stop-color="#4D646F"/>
<stop offset="0.9247" stop-color="#607D8B"/>
</linearGradient>
<linearGradient id="paint1_linear" x1="207.913" y1="26.7727" x2="367.829" y2="26.7727" gradientUnits="userSpaceOnUse">
<stop offset="0.00529099" stop-color="#FBBE52"/>
<stop offset="0.2722" stop-color="#FABB54"/>
<stop offset="0.3968" stop-color="#F9B656"/>
<stop offset="0.8783" stop-color="#FC952E"/>
</linearGradient>
<linearGradient id="paint2_linear" x1="353.036" y1="377.96" x2="488.992" y2="377.96" gradientUnits="userSpaceOnUse">
<stop offset="0.0793651" stop-color="#455A64"/>
<stop offset="0.3085" stop-color="#4D646F"/>
<stop offset="0.9247" stop-color="#607D8B"/>
</linearGradient>
<linearGradient id="paint3_linear" x1="390.712" y1="127.765" x2="450.362" y2="127.765" gradientUnits="userSpaceOnUse">
<stop offset="0.0793651" stop-color="#455A64"/>
<stop offset="0.3085" stop-color="#4D646F"/>
<stop offset="0.9247" stop-color="#607D8B"/>
</linearGradient>
<linearGradient id="paint4_linear" x1="88.9551" y1="328.01" x2="183.714" y2="328.01" gradientUnits="userSpaceOnUse">
<stop offset="0.0793651" stop-color="#455A64"/>
<stop offset="0.3085" stop-color="#4D646F"/>
<stop offset="0.9247" stop-color="#607D8B"/>
</linearGradient>
<linearGradient id="paint5_linear" x1="79.8176" y1="351.72" x2="181.257" y2="351.72" gradientUnits="userSpaceOnUse">
<stop offset="0.0793651" stop-color="#455A64"/>
<stop offset="0.3085" stop-color="#4D646F"/>
<stop offset="0.9247" stop-color="#607D8B"/>
</linearGradient>
<linearGradient id="paint6_linear" x1="68.9836" y1="381.043" x2="174.577" y2="381.043" gradientUnits="userSpaceOnUse">
<stop offset="0.0793651" stop-color="#455A64"/>
<stop offset="0.3085" stop-color="#4D646F"/>
<stop offset="0.9247" stop-color="#607D8B"/>
</linearGradient>
<linearGradient id="paint7_linear" x1="164.786" y1="363.383" x2="186.902" y2="363.383" gradientUnits="userSpaceOnUse">
<stop offset="0.0793651" stop-color="#455A64"/>
<stop offset="0.3085" stop-color="#4D646F"/>
<stop offset="0.9247" stop-color="#607D8B"/>
</linearGradient>
<linearGradient id="paint8_linear" x1="103.864" y1="168.706" x2="117.633" y2="168.706" gradientUnits="userSpaceOnUse">
<stop offset="0.2169" stop-color="#8BABBB"/>
<stop offset="0.4258" stop-color="#88A7B7"/>
<stop offset="0.6202" stop-color="#7E9DAC"/>
<stop offset="0.8084" stop-color="#6D8B99"/>
<stop offset="0.9153" stop-color="#607D8B"/>
</linearGradient>
<linearGradient id="paint9_linear" x1="110.552" y1="233.562" x2="133.826" y2="233.562" gradientUnits="userSpaceOnUse">
<stop offset="0.1719" stop-color="#455A64"/>
<stop offset="0.4003" stop-color="#495F69"/>
<stop offset="0.6807" stop-color="#536C78"/>
<stop offset="0.9206" stop-color="#607D8B"/>
</linearGradient>
<linearGradient id="paint10_linear" x1="116.656" y1="287.682" x2="131.748" y2="287.682" gradientUnits="userSpaceOnUse">
<stop offset="0.1719" stop-color="#455A64"/>
<stop offset="0.4003" stop-color="#495F69"/>
<stop offset="0.6807" stop-color="#536C78"/>
<stop offset="0.9206" stop-color="#607D8B"/>
</linearGradient>
<linearGradient id="paint11_linear" x1="135.708" y1="279.992" x2="159.854" y2="279.992" gradientUnits="userSpaceOnUse">
<stop offset="0.1719" stop-color="#455A64"/>
<stop offset="0.4003" stop-color="#495F69"/>
<stop offset="0.6807" stop-color="#536C78"/>
<stop offset="0.9206" stop-color="#607D8B"/>
</linearGradient>
<linearGradient id="paint12_linear" x1="118.951" y1="231.396" x2="159.397" y2="231.396" gradientUnits="userSpaceOnUse">
<stop offset="0.1719" stop-color="#455A64"/>
<stop offset="0.4003" stop-color="#495F69"/>
<stop offset="0.6807" stop-color="#536C78"/>
<stop offset="0.9206" stop-color="#607D8B"/>
</linearGradient>
<linearGradient id="paint13_linear" x1="134.787" y1="138.633" x2="188.302" y2="138.633" gradientUnits="userSpaceOnUse">
<stop offset="0.2169" stop-color="#8BABBB"/>
<stop offset="0.4258" stop-color="#88A7B7"/>
<stop offset="0.6202" stop-color="#7E9DAC"/>
<stop offset="0.8084" stop-color="#6D8B99"/>
<stop offset="0.9153" stop-color="#607D8B"/>
</linearGradient>
<linearGradient id="paint14_linear" x1="106.228" y1="168.436" x2="149.658" y2="168.436" gradientUnits="userSpaceOnUse">
<stop offset="0.2169" stop-color="#8BABBB"/>
<stop offset="0.4258" stop-color="#88A7B7"/>
<stop offset="0.6202" stop-color="#7E9DAC"/>
<stop offset="0.8084" stop-color="#6D8B99"/>
<stop offset="0.9153" stop-color="#607D8B"/>
</linearGradient>
<linearGradient id="paint15_linear" x1="389.714" y1="111.252" x2="442.74" y2="111.252" gradientUnits="userSpaceOnUse">
<stop offset="0.1719" stop-color="#455A64"/>
<stop offset="0.4003" stop-color="#495F69"/>
<stop offset="0.6807" stop-color="#536C78"/>
<stop offset="0.9206" stop-color="#607D8B"/>
</linearGradient>
<linearGradient id="paint16_linear" x1="402.952" y1="71.0357" x2="439.076" y2="71.0357" gradientUnits="userSpaceOnUse">
<stop offset="0.2169" stop-color="#8BABBB"/>
<stop offset="0.4258" stop-color="#88A7B7"/>
<stop offset="0.6202" stop-color="#7E9DAC"/>
<stop offset="0.8084" stop-color="#6D8B99"/>
<stop offset="0.9153" stop-color="#607D8B"/>
</linearGradient>
<linearGradient id="paint17_linear" x1="396.269" y1="58.5854" x2="419.001" y2="58.5854" gradientUnits="userSpaceOnUse">
<stop offset="0.2169" stop-color="#8BABBB"/>
<stop offset="0.4258" stop-color="#88A7B7"/>
<stop offset="0.6202" stop-color="#7E9DAC"/>
<stop offset="0.8084" stop-color="#6D8B99"/>
<stop offset="0.9153" stop-color="#607D8B"/>
</linearGradient>
<linearGradient id="paint18_linear" x1="280.348" y1="393.901" x2="391.414" y2="393.901" gradientUnits="userSpaceOnUse">
<stop offset="0.0793651" stop-color="#455A64"/>
<stop offset="0.3085" stop-color="#4D646F"/>
<stop offset="0.9247" stop-color="#607D8B"/>
</linearGradient>
<linearGradient id="paint19_linear" x1="273.838" y1="185.496" x2="230.39" y2="323.348" gradientUnits="userSpaceOnUse">
<stop offset="0.00529099" stop-color="#FBBE52"/>
<stop offset="0.2722" stop-color="#FABB54"/>
<stop offset="0.3968" stop-color="#F9B656"/>
<stop offset="0.8783" stop-color="#FC952E"/>
</linearGradient>
<linearGradient id="paint20_linear" x1="275.075" y1="346.48" x2="344.656" y2="346.48" gradientUnits="userSpaceOnUse">
<stop offset="0.1719" stop-color="#455A64"/>
<stop offset="0.4003" stop-color="#495F69"/>
<stop offset="0.6807" stop-color="#536C78"/>
<stop offset="0.9206" stop-color="#607D8B"/>
</linearGradient>
<linearGradient id="paint21_linear" x1="275.371" y1="356.915" x2="314.815" y2="356.915" gradientUnits="userSpaceOnUse">
<stop offset="0.1719" stop-color="#455A64"/>
<stop offset="0.4003" stop-color="#495F69"/>
<stop offset="0.6807" stop-color="#536C78"/>
<stop offset="0.9206" stop-color="#607D8B"/>
</linearGradient>
<linearGradient id="paint22_linear" x1="287.315" y1="380.555" x2="352.846" y2="380.555" gradientUnits="userSpaceOnUse">
<stop offset="0.1719" stop-color="#455A64"/>
<stop offset="0.4003" stop-color="#495F69"/>
<stop offset="0.6807" stop-color="#536C78"/>
<stop offset="0.9206" stop-color="#607D8B"/>
</linearGradient>
<linearGradient id="paint23_linear" x1="295.571" y1="360.645" x2="361.032" y2="360.645" gradientUnits="userSpaceOnUse">
<stop offset="0.1719" stop-color="#455A64"/>
<stop offset="0.4003" stop-color="#495F69"/>
<stop offset="0.6807" stop-color="#536C78"/>
<stop offset="0.9206" stop-color="#607D8B"/>
</linearGradient>
<linearGradient id="paint24_linear" x1="270.223" y1="289.368" x2="344.113" y2="289.368" gradientUnits="userSpaceOnUse">
<stop offset="0.2169" stop-color="#8BABBB"/>
<stop offset="0.4258" stop-color="#88A7B7"/>
<stop offset="0.6202" stop-color="#7E9DAC"/>
<stop offset="0.8084" stop-color="#6D8B99"/>
<stop offset="0.9153" stop-color="#607D8B"/>
</linearGradient>
<linearGradient id="paint25_linear" x1="221.075" y1="327.803" x2="271.828" y2="327.803" gradientUnits="userSpaceOnUse">
<stop offset="0.00529099" stop-color="#FBBE52"/>
<stop offset="0.2722" stop-color="#FABB54"/>
<stop offset="0.3968" stop-color="#F9B656"/>
<stop offset="0.8783" stop-color="#FC952E"/>
</linearGradient>
<linearGradient id="paint26_linear" x1="401.129" y1="363.185" x2="506.553" y2="363.185" gradientUnits="userSpaceOnUse">
<stop offset="0.0793651" stop-color="#455A64"/>
<stop offset="0.3085" stop-color="#4D646F"/>
<stop offset="0.9247" stop-color="#607D8B"/>
</linearGradient>
<linearGradient id="paint27_linear" x1="321.793" y1="306.743" x2="360.985" y2="306.743" gradientUnits="userSpaceOnUse">
<stop offset="0.2169" stop-color="#8BABBB"/>
<stop offset="0.4258" stop-color="#88A7B7"/>
<stop offset="0.6202" stop-color="#7E9DAC"/>
<stop offset="0.8084" stop-color="#6D8B99"/>
<stop offset="0.9153" stop-color="#607D8B"/>
</linearGradient>
<linearGradient id="paint28_linear" x1="315.706" y1="311.853" x2="289.802" y2="260.045" gradientUnits="userSpaceOnUse">
<stop offset="0.2169" stop-color="#8BABBB"/>
<stop offset="0.4258" stop-color="#88A7B7"/>
<stop offset="0.6202" stop-color="#7E9DAC"/>
<stop offset="0.8084" stop-color="#6D8B99"/>
<stop offset="0.9153" stop-color="#607D8B"/>
</linearGradient>
</defs>
</svg>
