<svg width="550" height="512" viewBox="0 0 550 512" fill="none" xmlns="http://www.w3.org/2000/svg">
<g clip-path="url(#clip0)">
<path d="M526.878 101.964C517.484 81.2548 498.91 63.5348 476.066 59.2649C448.312 54.1411 420.985 69.2992 398.781 85.9517C376.578 102.604 355.015 122.459 327.688 129.078C278.797 141.033 229.907 108.155 179.309 105.593C146.217 104.099 112.912 116.481 89.428 138.685C1.89533 221.734 40.3243 386.338 134.689 428.61C210.906 462.769 320.002 479.635 389.814 435.015C456.425 392.529 523.035 262.725 533.71 186.508C534.564 180.53 535.204 174.552 535.631 168.574C537.339 145.944 536.271 122.673 526.878 101.964Z" fill="#D8E1E5"/>
<path d="M128.924 258.882C125.721 266.141 122.733 275.962 121.238 285.782L113.339 249.488C123.373 252.904 143.442 228.566 150.914 212.34C158.386 195.901 153.689 177.327 146.857 174.552C142.161 172.63 123.16 179.889 115.687 196.328C112.271 204.014 109.282 214.902 108.215 224.936L100.102 188.215C100.316 188.215 100.316 188.002 100.529 188.002C107.361 189.496 120.811 173.271 125.721 162.383C130.845 151.067 127.643 138.471 122.946 136.55C119.744 135.269 106.72 140.179 101.597 151.494C99.2482 156.618 97.3267 164.091 96.4728 171.136L91.1354 146.584C91.3489 146.584 91.5624 146.584 91.7759 146.584C96.8997 145.09 96.6863 129.291 94.3378 120.751C91.9894 112.212 84.3036 106.874 80.8877 107.942C78.5392 108.582 73.6289 117.335 76.1908 125.875C78.3257 133.774 85.5846 145.73 90.4949 146.584C91.7759 153.629 93.2704 162.81 95.1918 173.484C90.0679 167.934 83.0226 162.596 77.4718 159.821C66.5836 154.056 53.7739 156.832 51.639 161.315C50.1445 164.304 54.4144 177.754 65.5161 183.305C74.4828 188.002 90.7084 191.845 98.1807 189.496C100.743 204.228 103.518 220.88 106.507 237.746C100.102 227.498 85.1576 214.902 73.8424 209.138C57.8303 200.812 39.0428 204.655 35.8404 211.273C33.7054 215.756 39.8968 235.184 56.1223 243.51C71.9209 251.623 102.664 258.242 108.642 249.488C111.844 268.703 115.26 287.917 118.249 305.21C110.777 293.682 94.1243 280.018 81.7417 273.4C63.5946 264.006 42.2452 268.276 38.6158 275.962C36.0539 281.085 43.3127 303.075 61.6732 312.469C79.3932 321.649 113.552 328.908 121.025 319.728C125.935 348.123 129.564 367.978 129.778 368.191L139.385 364.348L129.778 319.941C141.52 320.155 162.442 294.749 170.342 277.243C178.882 258.455 173.331 237.533 165.645 234.33C159.027 231.982 137.464 240.308 128.924 258.882Z" fill="white"/>
<path d="M438.278 154.91C431.873 159.607 424.401 166.652 418.209 174.338L429.524 138.898C436.57 146.797 466.245 135.696 480.55 125.235C495.281 114.56 500.405 96.1993 495.708 90.435C492.719 86.3786 472.437 83.3897 457.706 93.8509C450.874 98.7613 442.975 106.874 436.997 114.987L448.312 79.1198C448.525 79.1198 448.525 79.1198 448.739 79.1198C454.076 83.8167 473.718 76.5579 483.325 69.5126C493.359 62.2538 496.775 49.6576 493.786 45.8147C491.651 43.0393 477.988 40.9043 467.953 48.1631C463.257 51.579 457.919 56.9164 453.649 62.4673L461.335 38.5559C461.549 38.5559 461.762 38.7694 461.976 38.7694C467.099 40.0504 474.785 26.1732 476.92 17.6335C479.055 9.09368 475.212 0.553912 471.583 -0.0865713C469.234 -0.51356 460.695 4.6103 458.56 13.1501C456.638 21.0494 456.852 34.9265 460.695 38.3424C458.133 44.9607 454.93 53.714 451.301 63.9617C449.593 56.7029 446.177 48.5901 442.761 43.2528C436.143 32.7915 423.76 28.7352 419.49 31.7241C416.715 33.6455 413.726 47.3092 420.558 57.7704C426.109 66.3102 438.064 77.6253 445.75 79.3333C440.626 93.4239 434.862 109.222 428.884 125.235C428.457 113.065 421.625 94.7049 414.793 84.0302C404.973 68.8721 386.826 62.8942 380.634 66.9506C376.578 69.7261 372.308 89.7945 382.129 104.953C391.736 119.897 415.22 140.82 424.614 136.336C417.996 154.697 411.164 173.057 405.186 189.283C404.546 175.619 396.86 155.337 389.174 143.595C378.072 126.302 357.363 119.47 350.532 124.381C345.835 127.583 341.138 150.213 352.24 167.506C362.914 184.159 389.174 207.643 400.062 203.16C390.242 230.06 383.41 249.275 383.41 249.488L393.657 250.769L407.535 207.43C417.782 213.621 448.525 201.666 463.897 190.564C480.55 178.608 486.314 157.686 481.19 151.067C477.988 146.371 454.93 142.741 438.278 154.91Z" fill="#73909E"/>
<path d="M9.79443 224.51C0.187187 232.195 -1.94775 248.421 0.827671 259.95C4.03008 273.827 16.6262 282.153 21.1096 295.176C23.6716 302.648 21.5366 306.278 19.4017 313.323C16.8397 322.503 15.3453 335.313 18.5477 344.493C23.2446 358.157 36.2677 370.326 49.5044 376.517C65.9434 384.203 86.0119 380.36 102.451 388.9C113.766 394.878 119.104 410.036 130.846 415.16C142.801 420.284 167.78 416.654 169.702 400.856C171.837 382.922 153.903 370.967 153.263 354.101C152.836 344.493 157.105 334.246 157.105 324.425C157.319 311.402 154.971 295.817 149.206 283.861C138.104 261.444 118.25 240.735 92.2032 240.522C86.2254 240.522 79.6071 242.23 73.6292 240.522C65.9434 238.6 64.022 233.263 59.1116 227.712C52.2798 220.24 38.1892 216.183 27.9414 215.543C19.4017 215.116 16.1993 218.745 9.79443 224.51C10.4349 223.869 11.0754 223.442 11.5024 223.015L9.79443 224.51Z" fill="#97B9C4"/>
<path d="M17.0849 230.621L15.428 231.967L162.174 412.572L163.831 411.226L17.0849 230.621Z" fill="#455A64"/>
<path d="M36.3636 340.511L36.3357 342.646L106.355 343.562L106.383 341.427L36.3636 340.511Z" fill="#455A64"/>
<path d="M105.094 268.696L102.96 268.766L105.363 342.385L107.497 342.315L105.094 268.696Z" fill="#455A64"/>
<path d="M14.7378 263.951L14.3157 266.044L49.0576 273.05L49.4796 270.957L14.7378 263.951Z" fill="#455A64"/>
<path d="M37.117 229.226L35.0781 229.859L48.2536 272.268L50.2925 271.635L37.117 229.226Z" fill="#455A64"/>
<path d="M113.356 380.411L112.69 382.439L147.173 393.767L147.839 391.738L113.356 380.411Z" fill="#455A64"/>
<path d="M136.002 346.514L133.923 347.001L144.004 390.027L146.082 389.54L136.002 346.514Z" fill="#455A64"/>
<path d="M403.905 381.855V367.764C403.905 364.562 401.343 361.786 397.927 361.786H393.657C390.882 361.786 388.32 360.078 387.466 357.516C386.825 355.595 385.971 353.673 385.117 351.752C383.836 349.19 384.477 346.201 386.398 344.28L389.387 341.291C391.735 338.942 391.735 335.313 389.387 332.964L379.566 323.144C377.218 320.795 373.588 320.795 371.24 323.144L368.251 326.133C366.33 328.054 363.341 328.695 360.779 327.414C358.857 326.56 356.936 325.706 355.014 325.065C352.453 324.211 350.745 321.649 350.745 318.874V314.604C350.745 311.402 348.183 308.626 344.767 308.626H330.676C327.474 308.626 324.698 311.188 324.698 314.604V318.874C324.698 321.649 322.99 324.211 320.215 325.065C318.293 325.706 316.372 326.56 314.451 327.414C311.889 328.695 308.9 328.054 306.978 326.133L303.989 323.144C301.641 320.795 298.012 320.795 295.663 323.144L285.842 332.964C283.494 335.313 283.494 338.942 285.842 341.291L288.831 344.28C290.753 346.201 291.393 349.19 290.112 351.752C289.258 353.673 288.404 355.595 287.764 357.516C286.91 360.078 284.348 361.786 281.572 361.786H277.303C274.1 361.786 271.325 364.348 271.325 367.764V381.855C271.325 385.057 273.887 387.832 277.303 387.832H281.572C284.348 387.832 286.91 389.54 287.764 392.102C288.404 394.024 289.258 395.945 290.112 397.867C291.393 400.429 290.753 403.418 288.831 405.339L285.842 408.328C283.494 410.676 283.494 414.306 285.842 416.654L295.663 426.475C298.012 428.823 301.641 428.823 303.989 426.475L306.978 423.486C308.9 421.565 311.889 420.924 314.451 422.205C316.372 423.059 318.293 423.913 320.215 424.553C322.777 425.407 324.698 427.969 324.698 430.745V435.015C324.698 438.217 327.26 440.993 330.676 440.993H344.767C347.969 440.993 350.745 438.431 350.745 435.015V430.745C350.745 427.969 352.453 425.407 355.014 424.553C356.936 423.913 358.857 423.059 360.779 422.205C363.341 420.924 366.33 421.565 368.251 423.486L371.24 426.475C373.588 428.823 377.218 428.823 379.566 426.475L389.387 416.654C391.735 414.306 391.735 410.676 389.387 408.328L386.398 405.339C384.477 403.418 383.836 400.429 385.117 397.867C385.971 395.945 386.825 394.024 387.466 392.102C388.32 389.54 390.882 387.832 393.657 387.832H397.927C401.343 387.832 403.905 385.271 403.905 381.855ZM340.07 406.833C320.428 408.328 304.203 392.102 305.697 372.461C306.978 356.876 319.361 344.493 334.946 343.212C354.587 341.718 370.813 357.943 369.319 377.585C368.251 392.956 355.655 405.552 340.07 406.833Z" fill="white"/>
<path d="M512.36 171.349V157.259C512.36 154.056 509.798 151.281 506.382 151.281H502.113C499.337 151.281 496.775 149.573 495.921 147.011C495.281 145.09 494.427 143.168 493.573 141.247C492.292 138.685 492.932 135.696 494.854 133.774L497.843 130.785C500.191 128.437 500.191 124.808 497.843 122.459L488.022 112.638C485.673 110.29 482.044 110.29 479.696 112.638L476.707 115.627C474.785 117.549 471.796 118.189 469.234 116.908C467.313 116.054 465.391 115.2 463.47 114.56C460.908 113.706 459.2 111.144 459.2 108.369V104.099C459.2 100.896 456.638 98.1208 453.222 98.1208H439.132C435.929 98.1208 433.154 100.683 433.154 104.099V108.369C433.154 111.144 431.446 113.706 428.67 114.56C426.749 115.2 424.828 116.054 422.906 116.908C420.344 118.189 417.355 117.549 415.434 115.627L412.445 112.638C410.096 110.29 406.467 110.29 404.119 112.638L394.298 122.459C391.949 124.808 391.949 128.437 394.298 130.785L397.287 133.774C399.208 135.696 399.849 138.685 398.568 141.247C397.714 143.168 396.86 145.09 396.219 147.011C395.365 149.573 392.803 151.281 390.028 151.281H385.758C382.556 151.281 379.78 153.843 379.78 157.259V171.349C379.78 174.552 382.342 177.327 385.758 177.327H390.028C392.803 177.327 395.365 179.035 396.219 181.597C396.86 183.519 397.714 185.44 398.568 187.361C399.849 189.923 399.208 192.912 397.287 194.834L394.298 197.823C391.949 200.171 391.949 203.801 394.298 206.149L404.119 215.97C406.467 218.318 410.096 218.318 412.445 215.97L415.434 212.981C417.355 211.059 420.344 210.419 422.906 211.7C424.828 212.554 426.749 213.408 428.67 214.048C431.232 214.902 433.154 217.464 433.154 220.24V224.509C433.154 227.712 435.716 230.487 439.132 230.487H453.222C456.425 230.487 459.2 227.925 459.2 224.509V220.24C459.2 217.464 460.908 214.902 463.47 214.048C465.391 213.408 467.313 212.554 469.234 211.7C471.796 210.419 474.785 211.059 476.707 212.981L479.696 215.97C482.044 218.318 485.673 218.318 488.022 215.97L497.843 206.149C500.191 203.801 500.191 200.171 497.843 197.823L494.854 194.834C492.932 192.912 492.292 189.923 493.573 187.361C494.427 185.44 495.281 183.519 495.921 181.597C496.775 179.035 499.337 177.327 502.113 177.327H506.382C509.798 177.114 512.36 174.552 512.36 171.349ZM448.739 196.115C429.097 197.609 412.872 181.384 414.366 161.742C415.647 146.157 428.03 133.774 443.615 132.493C463.257 130.999 479.482 147.225 477.988 166.866C476.707 182.238 464.111 194.834 448.739 196.115Z" fill="url(#paint0_linear)"/>
<path d="M493.359 318.02C492.292 309.907 486.101 291.547 477.988 303.075C473.077 310.121 476.28 321.222 472.864 329.122C466.032 322.29 448.739 282.793 433.154 299.233C423.12 309.694 438.491 338.515 443.402 349.617C439.986 345.347 431.873 340.437 427.603 346.201C423.76 351.539 430.592 363.921 432.514 369.259C423.974 365.629 418.209 356.663 409.029 363.067C401.77 368.191 401.77 378.439 402.624 386.125C403.692 394.451 406.467 402.137 406.681 410.463C406.681 420.07 403.265 427.756 401.984 437.15C412.018 417.081 442.121 422.632 460.054 421.351C469.662 420.711 520.046 417.722 501.045 397.867C497.416 394.238 454.504 390.395 470.729 380.36C477.988 375.877 493.146 380.574 501.686 379.72C508.304 378.866 521.541 376.944 526.451 372.248C534.991 363.921 528.586 352.179 519.619 348.763C511.72 345.774 501.686 348.977 494.854 344.28C500.618 337.448 512.574 340.01 518.552 334.032C526.238 326.773 518.552 322.717 511.293 321.222C521.968 315.885 529.227 298.379 511.293 297.525C504.888 297.311 499.978 300.727 496.348 305.851C494 309.907 490.584 317.807 493.359 318.02C492.505 317.593 491.438 316.739 491.438 315.885L493.359 318.02Z" fill="#73909E"/>
<path d="M113.554 351.965C113.554 358.797 119.318 364.348 126.577 364.348H414.367C421.413 364.348 427.39 358.797 427.39 351.965V167.293C427.39 160.461 421.626 154.91 414.367 154.91H126.363C119.318 154.91 113.34 160.461 113.34 167.293V351.965H113.554Z" fill="url(#paint1_linear)"/>
<path d="M147.5 340.864C147.5 348.123 153.477 354.101 160.736 354.101H403.266C410.525 354.101 416.502 348.123 416.502 340.864V178.395C416.502 171.136 410.525 165.158 403.266 165.158H160.95C153.691 165.158 147.713 171.136 147.713 178.395V340.864H147.5Z" fill="#BDD1D6"/>
<path d="M119.532 259.522C119.532 265.714 124.442 270.624 130.633 270.624C136.825 270.624 141.735 265.714 141.735 259.522C141.735 253.331 136.825 248.421 130.633 248.421C124.442 248.421 119.532 253.545 119.532 259.522Z" fill="#97B9C4"/>
<path d="M320.003 311.188C320.003 315.245 316.587 318.66 312.53 318.66C308.474 318.66 305.058 315.245 305.058 311.188V207.857C305.058 203.801 308.474 200.385 312.53 200.385C316.587 200.385 320.003 203.801 320.003 207.857V311.188Z" fill="url(#paint2_linear)"/>
<path d="M258.944 259.522C258.944 284.288 238.876 304.356 214.11 304.356C189.345 304.356 169.276 284.288 169.276 259.522C169.276 234.757 189.345 214.689 214.11 214.689C238.876 214.902 258.944 234.971 258.944 259.522Z" fill="#73909E"/>
<path d="M243.573 259.522C243.573 275.748 230.336 288.984 214.111 288.984C197.885 288.984 184.648 275.748 184.648 259.522C184.648 243.297 197.885 230.06 214.111 230.06C230.336 230.274 243.573 243.297 243.573 259.522Z" fill="url(#paint3_linear)"/>
<path d="M239.089 259.523C239.089 273.186 227.987 284.501 214.11 284.501C200.446 284.501 189.131 273.4 189.131 259.523C189.131 245.859 200.233 234.544 214.11 234.544C227.987 234.757 239.089 245.859 239.089 259.523Z" fill="#73909E"/>
<path d="M215.178 217.464H212.829V227.285H215.178V217.464Z" fill="#73909E"/>
<path d="M227.21 219.617L222.723 228.353L224.812 229.426L229.299 220.69L227.21 219.617Z" fill="#73909E"/>
<path d="M238.176 225.783L231.552 233.034L233.286 234.618L239.91 227.367L238.176 225.783Z" fill="#73909E"/>
<path d="M240.37 241.162L238.876 239.027L246.775 233.263L248.27 235.184L240.37 241.162Z" fill="#73909E"/>
<path d="M252.243 242.874L243.284 246.899L244.247 249.041L253.205 245.016L252.243 242.874Z" fill="#73909E"/>
<path d="M246.561 257.388V255.039L256.381 254.612V256.961L246.561 257.388Z" fill="#73909E"/>
<path d="M247.015 262.845L246.561 265.15L256.196 267.049L256.65 264.745L247.015 262.845Z" fill="#73909E"/>
<path d="M229.969 288.584L227.859 289.616L232.177 298.437L234.286 297.405L229.969 288.584Z" fill="#73909E"/>
<path d="M218.415 292.045L218.237 301.864L220.585 301.907L220.762 292.088L218.415 292.045Z" fill="#73909E"/>
<path d="M208.65 291.116L205.905 300.546L208.16 301.202L210.905 291.772L208.65 291.116Z" fill="#73909E"/>
<path d="M199.338 288.252L194.916 297.021L197.013 298.079L201.435 289.31L199.338 288.252Z" fill="#73909E"/>
<path d="M192.453 282.81L186.188 290.373L187.997 291.871L194.262 284.308L192.453 282.81Z" fill="#73909E"/>
<path d="M186.57 276.389L187.637 278.523L179.097 283.22L177.816 281.085L186.57 276.389Z" fill="#73909E"/>
<path d="M183.325 269.387L173.835 271.914L174.44 274.183L183.929 271.656L183.325 269.387Z" fill="#73909E"/>
<path d="M279.652 435.441L51.2127 475.151L33.9197 376.304L262.572 336.594L279.652 435.441Z" fill="url(#paint4_linear)"/>
<path d="M255.099 367.764C248.481 368.831 242.076 364.562 241.009 357.943C240.368 354.741 241.222 351.538 242.93 348.976L59.3251 381.001C61.887 382.709 63.595 385.484 64.2354 388.9C65.3029 395.518 61.033 401.923 54.4147 402.99C51.8528 403.417 49.5043 402.99 47.3694 402.137L55.0552 446.757C56.7631 445.049 58.8981 443.981 61.46 443.554C68.0783 442.487 74.4832 446.757 75.5506 453.375C76.1911 456.578 75.3371 459.993 73.6292 462.342L257.234 430.318C254.672 428.61 252.964 425.834 252.324 422.418C251.256 415.8 255.526 409.395 262.145 408.328C263.639 408.114 264.92 408.114 266.201 408.328L258.942 366.483C257.661 367.123 256.38 367.55 255.099 367.764Z" fill="#D8E1E5"/>
<path d="M188.916 400.215C191.905 417.935 180.162 434.801 162.442 438.003C144.722 440.992 127.856 429.25 124.654 411.53C121.665 393.81 133.407 376.944 151.127 373.742C169.061 370.539 185.927 382.495 188.916 400.215Z" fill="url(#paint5_linear)"/>
<path d="M313.17 422.632L93.2707 496.501L61.2466 401.282L281.359 327.627L313.17 422.632Z" fill="url(#paint6_linear)"/>
<path d="M278.584 359.651C272.179 361.786 265.347 358.37 263.212 351.965C262.145 348.763 262.572 345.56 263.853 342.785L87.0794 402.136C89.8549 403.631 91.9898 405.979 93.0573 409.182C95.1922 415.586 91.7763 422.418 85.3715 424.553C83.023 425.407 80.4611 425.407 78.3262 424.767L92.6303 467.679C94.1248 465.758 96.0462 464.263 98.3946 463.623C104.799 461.488 111.631 464.904 113.766 471.308C114.834 474.511 114.407 477.713 113.126 480.489L289.899 421.137C287.124 419.643 284.989 417.294 283.921 414.092C281.786 407.687 285.202 400.855 291.607 398.72C292.888 398.293 294.382 398.08 295.663 398.08L282.213 357.73C281.146 358.583 279.865 359.224 278.584 359.651Z" fill="#D8E1E5"/>
<path d="M218.165 401.709C223.929 418.789 214.749 437.363 197.669 442.914C180.59 448.678 162.016 439.498 156.465 422.418C150.701 405.339 159.881 386.765 176.96 381.214C193.827 375.45 212.401 384.63 218.165 401.709Z" fill="url(#paint7_linear)"/>
<path d="M336.014 496.928H190.198V499.704H336.014V496.928Z" fill="url(#paint8_linear)"/>
<path d="M232.47 413.665H205.356V496.928H232.47V413.665Z" fill="url(#paint9_linear)"/>
<path d="M277.09 388.686H249.976V496.928H277.09V388.686Z" fill="url(#paint10_linear)"/>
<path d="M321.496 363.708H294.382V496.928H321.496V363.708Z" fill="url(#paint11_linear)"/>
<path d="M210.907 237.96C210.907 237.96 209.626 245.432 210.907 246.499C212.188 247.78 218.379 248.421 220.514 248.421C222.649 248.207 224.143 248.207 224.143 247.353C224.143 245.005 216.885 244.151 219.446 244.578C221.368 245.005 214.323 243.937 213.896 240.735C213.682 238.173 213.042 237.96 213.042 237.96H210.907Z" fill="#455A64"/>
<path d="M235.458 248.207C235.458 248.207 234.818 255.68 236.312 256.747C237.593 257.815 243.784 258.028 245.919 257.815C248.054 257.388 249.549 257.174 249.549 256.32C249.335 253.972 242.077 253.758 244.638 253.972C246.56 254.185 239.515 253.758 238.874 250.556C238.234 247.994 237.807 247.78 237.807 247.78L235.458 248.207Z" fill="#455A64"/>
<path d="M242.29 252.691H231.828L208.558 174.338C208.558 174.338 199.591 168.788 196.175 168.361C146.217 162.169 159.24 139.112 159.24 139.112L187.635 138.471C187.635 138.471 222.435 152.562 227.772 162.596C233.323 172.417 242.29 252.691 242.29 252.691Z" fill="url(#paint12_linear)"/>
<path d="M217.526 242.229L211.975 188.429C211.975 188.429 209.84 164.731 202.581 161.529C195.322 158.113 167.781 140.82 167.781 140.82L143.657 134.628C143.657 134.628 135.757 152.348 144.511 164.091C153.477 175.833 185.074 173.698 188.704 183.732C195.963 204.014 207.491 242.229 207.491 242.229H217.526Z" fill="url(#paint13_linear)"/>
<path d="M134.262 145.73C134.262 145.73 142.802 128.437 143.869 120.751C145.577 110.29 142.161 90.4351 148.566 83.1763C150.915 80.6144 157.747 76.131 161.803 76.131C173.972 76.131 177.815 83.6033 178.669 89.3676C181.231 106.874 189.984 135.909 186.995 139.752C175.68 154.483 134.262 145.73 134.262 145.73Z" fill="url(#paint14_linear)"/>
<path d="M158.602 78.6929C160.096 73.3556 159.669 64.8158 159.669 64.8158L169.703 67.8047C169.703 67.8047 169.703 74.2095 169.703 76.3445C169.703 78.0524 169.703 79.5469 169.703 79.5469C169.703 79.5469 169.276 81.6818 165.22 81.6818C160.523 81.6818 158.602 78.6929 158.602 78.6929Z" fill="#FBBE52"/>
<path d="M176.535 56.0626C175.681 62.0405 174.4 71.0072 167.568 71.8612C163.298 72.5017 159.028 67.8048 158.601 61.827C157.961 53.5007 162.658 45.1744 167.568 45.1744C172.478 45.1744 177.816 47.3094 176.535 56.0626Z" fill="#FBBE52"/>
<path d="M160.523 60.5458C161.377 59.2649 159.028 49.6576 166.287 48.8037C168.849 48.5902 171.197 48.5902 172.265 49.4441C176.748 52.6466 175.254 59.4784 175.894 59.6919C178.243 60.3324 180.378 52.8601 178.883 49.2307C177.389 45.6012 175.04 41.3314 167.781 41.3314C164.152 41.3314 158.815 42.6123 155.399 46.4552C152.41 49.6576 155.185 54.3545 155.185 54.3545C156.253 56.9164 156.893 61.6133 156.893 61.6133C156.893 61.6133 160.096 61.1863 160.523 60.5458Z" fill="url(#paint15_linear)"/>
<path d="M156.04 63.1078C156.04 65.0293 156.894 66.5237 157.961 66.5237C159.028 66.5237 159.882 65.0293 159.882 63.1078C159.882 61.1864 159.028 59.6919 157.961 59.6919C156.894 59.6919 156.04 61.1864 156.04 63.1078Z" fill="#FBBE52"/>
<path d="M292.035 150C292.035 152.349 290.114 154.27 287.765 154.27H177.389C175.04 154.27 173.119 152.349 173.119 150V76.1311C173.119 73.7827 175.04 71.8612 177.389 71.8612H287.979C290.327 71.8612 292.248 73.7827 292.248 76.1311V150H292.035Z" fill="url(#paint16_linear)"/>
<path d="M292.248 115.627H173.332V134.201H292.248V115.627Z" fill="url(#paint17_linear)"/>
<path d="M259.797 79.12H188.917V85.0978H259.797V79.12Z" fill="white"/>
<path d="M216.031 95.3455H188.917V106.234H216.031V95.3455Z" fill="white"/>
<path d="M283.922 95.3455H239.516V106.234H283.922V95.3455Z" fill="white"/>
<path d="M195.535 129.931C195.535 129.931 193.187 125.448 197.03 124.808C200.872 123.954 205.996 122.673 205.996 122.673C205.996 122.673 210.053 125.235 207.918 126.942C205.996 128.437 195.535 129.931 195.535 129.931Z" fill="url(#paint18_linear)"/>
<path d="M144.724 96.8398C145.151 103.672 151.129 119.043 159.028 126.302C166.927 133.561 167.568 133.774 175.04 135.055C182.512 136.336 198.097 135.269 198.097 135.269V121.392C198.097 121.392 180.377 121.392 176.534 120.538C163.938 117.762 167.568 86.8055 154.331 81.8952C147.713 79.1197 144.297 90.0079 144.724 96.8398Z" fill="url(#paint19_linear)"/>
<path d="M536.272 505.254C536.272 509.097 503.18 512.3 462.189 512.3C421.199 512.3 388.107 509.097 388.107 505.254C388.107 501.411 421.199 498.209 462.189 498.209C503.18 498.209 536.272 501.411 536.272 505.254Z" fill="#BDD1D6"/>
<path d="M413.513 287.704C409.67 296.03 397.714 294.108 389.601 291.973C381.489 289.839 374.016 285.142 369.746 280.018C365.477 274.894 352.88 259.736 352.88 259.736L359.712 250.983C359.712 250.983 377.219 272.332 385.759 274.253C391.523 275.534 412.018 266.568 417.356 268.703C419.704 269.77 416.075 282.153 413.513 287.704Z" fill="url(#paint20_linear)"/>
<path d="M340.071 221.521C325.98 221.521 313.171 227.498 304.204 236.892V304.997C313.171 314.604 325.98 320.368 340.071 320.368C367.398 320.368 389.602 298.165 389.602 270.838C389.602 243.724 367.398 221.521 340.071 221.521Z" fill="url(#paint21_linear)"/>
<path d="M340.071 224.509C325.554 224.509 312.744 231.128 304.204 241.375V251.196C311.249 238.6 324.7 230.06 340.071 230.06C362.702 230.06 381.062 248.421 381.062 271.051C381.062 293.682 362.702 312.042 340.071 312.042C324.7 312.042 311.249 303.502 304.204 290.906V300.727C312.744 310.975 325.767 317.593 340.071 317.593C365.69 317.593 386.613 296.67 386.613 271.051C386.613 245.432 365.904 224.509 340.071 224.509Z" fill="#FA870A"/>
<path d="M359.072 280.445C359.072 285.142 357.364 288.771 354.161 291.333C350.959 293.895 345.835 294.963 339.43 294.963C336.014 294.963 333.239 294.749 330.89 294.322C328.542 293.895 326.194 293.255 324.272 292.401V281.939C326.621 283.007 329.182 283.861 332.171 284.715C335.16 285.355 337.722 285.782 339.857 285.782C344.341 285.782 346.689 284.501 346.689 281.726C346.689 280.658 346.476 280.018 345.835 279.378C345.195 278.737 344.127 278.097 342.633 277.243C341.138 276.389 339.217 275.535 336.655 274.467C333.025 272.973 330.463 271.692 328.755 270.411C327.048 269.13 325.767 267.635 325.126 265.927C324.272 264.219 324.059 262.298 324.059 259.95C324.059 255.893 325.553 252.691 328.755 250.342C331.958 247.994 336.441 246.926 342.419 246.926C347.97 246.926 353.521 248.207 358.645 250.556L354.802 259.736C352.453 258.669 350.318 258.028 348.397 257.388C346.476 256.747 344.341 256.534 342.206 256.534C338.576 256.534 336.655 257.601 336.655 259.523C336.655 260.59 337.295 261.657 338.363 262.511C339.644 263.365 342.206 264.646 346.262 266.141C349.891 267.635 352.453 268.916 354.161 270.197C355.869 271.478 357.15 272.973 357.791 274.681C358.645 276.175 359.072 278.31 359.072 280.445Z" fill="#FFDC8C"/>
<path d="M462.829 496.501C462.829 496.501 466.245 503.119 465.391 504.827C464.537 506.322 458.987 508.884 456.852 509.311C454.717 509.738 453.222 510.165 453.009 509.311C452.368 507.176 458.987 504.187 456.638 505.254C454.93 506.108 461.335 503.119 460.695 499.917C460.268 497.355 460.695 497.141 460.695 497.141L462.829 496.501Z" fill="#455A64"/>
<path d="M401.344 495.433C401.344 495.433 402.625 502.906 401.344 503.973C400.063 505.254 393.871 505.895 391.736 505.895C389.601 505.681 388.107 505.681 388.107 504.827C388.107 502.479 395.366 501.625 392.804 502.052C390.882 502.479 397.928 501.411 398.355 498.209C398.568 495.647 399.209 495.433 399.209 495.433H401.344Z" fill="#455A64"/>
<path d="M461.122 459.567C459.414 451.24 457.493 445.903 456.212 442.487C456.852 441.633 457.279 440.566 457.279 439.712C456.852 436.082 454.29 401.923 454.077 386.765C454.077 384.417 454.077 382.068 454.077 379.933C454.077 379.933 453.863 350.257 449.166 345.347C448.312 344.28 445.75 343.426 442.334 342.785C440.84 341.291 439.773 340.437 439.773 340.437C439.773 340.437 438.492 341.077 436.57 341.931C422.052 340.01 400.49 339.369 400.49 339.369C400.49 339.369 399.636 349.403 398.995 359.651C398.568 364.562 398.355 369.899 397.928 377.371C397.928 379.079 397.714 381.001 397.501 382.922C396.647 395.091 394.725 424.553 395.579 438.217C395.579 439.071 395.579 440.139 395.579 441.206C395.579 449.319 395.579 499.917 395.579 499.917H402.838C402.838 499.917 408.602 478.354 409.67 461.061C410.31 451.881 409.883 445.903 409.456 442.274C409.883 441.847 410.097 441.206 410.31 440.779C410.951 437.15 417.569 403.631 421.412 388.9C422.266 385.911 422.906 383.136 423.547 380.574C424.187 380.574 425.041 380.574 425.682 380.574C426.109 382.922 426.536 385.271 427.39 388.046C430.165 398.721 436.357 423.059 441.053 437.15C441.053 438.644 441.694 440.993 442.548 444.408C444.683 452.308 458.347 500.984 458.347 500.984L465.178 499.063C464.751 498.636 464.538 476.433 461.122 459.567Z" fill="url(#paint22_linear)"/>
<path d="M462.83 195.474C455.785 206.576 449.167 224.936 434.009 224.723C422.693 224.509 407.962 226.217 408.816 244.578C409.457 256.747 423.974 264.433 432.301 270.838C455.785 288.558 489.09 287.917 513.642 273.186C537.553 258.668 557.622 229.206 547.161 200.598C543.318 190.35 535.632 180.529 525.598 175.833C502.327 164.09 474.786 176.26 462.83 195.474Z" fill="#455A64"/>
<path d="M401.771 312.896C403.479 302.648 407.109 276.816 410.311 271.905C413.087 267.635 418.851 266.141 427.177 266.141C434.222 266.141 450.662 270.197 448.1 293.468C447.246 301.154 453.01 351.325 453.01 351.325C453.01 351.325 430.807 345.774 418.637 344.707C406.468 343.639 397.715 348.55 398.142 346.842C399.423 339.156 400.49 321.436 401.771 312.896Z" fill="#97B9C4"/>
<path d="M432.941 270.624C431.447 265.287 432.087 268.062 431.66 265.287C431.447 262.938 431.874 254.612 431.874 254.612L421.839 257.601C421.839 257.601 421.839 264.006 421.839 266.141C421.839 267.849 421.839 267.849 421.839 267.849C421.839 267.849 422.266 273.613 426.323 273.613C431.02 273.827 432.941 270.624 432.941 270.624Z" fill="#FBBE52"/>
<path d="M415.007 246.072C415.861 252.05 417.142 261.017 423.974 261.871C428.244 262.511 432.514 257.815 432.941 251.837C433.581 243.51 428.884 245.645 423.974 245.645C418.85 245.432 413.726 237.106 415.007 246.072Z" fill="#FBBE52"/>
<path d="M435.076 254.185C434.008 255.68 432.514 256.32 431.66 255.68C430.806 255.039 431.019 253.331 432.087 251.837C433.154 250.342 434.649 249.702 435.503 250.342C436.357 250.983 436.143 252.691 435.076 254.185Z" fill="#FBBE52"/>
<path d="M376.365 299.446C376.365 299.446 371.028 298.379 368.252 295.39C365.263 292.401 363.769 291.12 366.117 288.771C367.185 287.704 367.185 287.704 368.893 287.704C370.601 287.704 372.095 286.85 378.714 295.39L376.365 299.446Z" fill="#FBBE52"/>
<path d="M371.668 302.648C371.668 302.648 373.376 291.12 381.276 294.322C394.726 299.873 411.378 304.997 415.862 300.513C420.559 295.816 435.717 268.916 440.627 270.838C453.65 275.748 448.099 284.715 448.099 287.917C447.886 300.94 425.683 317.806 419.064 319.728C412.659 321.863 371.668 302.648 371.668 302.648Z" fill="url(#paint23_linear)"/>
</g>
<defs>
<linearGradient id="paint0_linear" x1="379.748" y1="164.267" x2="512.39" y2="164.267" gradientUnits="userSpaceOnUse">
<stop offset="0.2169" stop-color="#8BABBB"/>
<stop offset="0.4258" stop-color="#88A7B7"/>
<stop offset="0.6202" stop-color="#7E9DAC"/>
<stop offset="0.8084" stop-color="#6D8B99"/>
<stop offset="0.9153" stop-color="#607D8B"/>
</linearGradient>
<linearGradient id="paint1_linear" x1="485.177" y1="353.51" x2="75.9946" y2="174.72" gradientUnits="userSpaceOnUse">
<stop offset="0.0793651" stop-color="#455A64"/>
<stop offset="0.3085" stop-color="#4D646F"/>
<stop offset="0.9247" stop-color="#607D8B"/>
</linearGradient>
<linearGradient id="paint2_linear" x1="281.309" y1="290.734" x2="343.581" y2="228.463" gradientUnits="userSpaceOnUse">
<stop offset="0.3196" stop-color="#607D8B"/>
<stop offset="0.5594" stop-color="#72919F"/>
<stop offset="0.9247" stop-color="#8BABBB"/>
</linearGradient>
<linearGradient id="paint3_linear" x1="184.693" y1="259.599" x2="243.554" y2="259.599" gradientUnits="userSpaceOnUse">
<stop offset="0.0793651" stop-color="#455A64"/>
<stop offset="0.3085" stop-color="#4D646F"/>
<stop offset="0.9247" stop-color="#607D8B"/>
</linearGradient>
<linearGradient id="paint4_linear" x1="42.5512" y1="425.722" x2="271.153" y2="385.951" gradientUnits="userSpaceOnUse">
<stop offset="0.2169" stop-color="#8BABBB"/>
<stop offset="0.4258" stop-color="#88A7B7"/>
<stop offset="0.6202" stop-color="#7E9DAC"/>
<stop offset="0.8084" stop-color="#6D8B99"/>
<stop offset="0.9153" stop-color="#607D8B"/>
</linearGradient>
<linearGradient id="paint5_linear" x1="124.711" y1="411.428" x2="188.994" y2="400.244" gradientUnits="userSpaceOnUse">
<stop offset="0.2169" stop-color="#8BABBB"/>
<stop offset="0.4258" stop-color="#88A7B7"/>
<stop offset="0.6202" stop-color="#7E9DAC"/>
<stop offset="0.8084" stop-color="#6D8B99"/>
<stop offset="0.9153" stop-color="#607D8B"/>
</linearGradient>
<linearGradient id="paint6_linear" x1="77.2313" y1="448.915" x2="297.224" y2="375.128" gradientUnits="userSpaceOnUse">
<stop offset="0.2169" stop-color="#8BABBB"/>
<stop offset="0.4258" stop-color="#88A7B7"/>
<stop offset="0.6202" stop-color="#7E9DAC"/>
<stop offset="0.8084" stop-color="#6D8B99"/>
<stop offset="0.9153" stop-color="#607D8B"/>
</linearGradient>
<linearGradient id="paint7_linear" x1="156.293" y1="422.397" x2="218.157" y2="401.647" gradientUnits="userSpaceOnUse">
<stop offset="0.2169" stop-color="#8BABBB"/>
<stop offset="0.4258" stop-color="#88A7B7"/>
<stop offset="0.6202" stop-color="#7E9DAC"/>
<stop offset="0.8084" stop-color="#6D8B99"/>
<stop offset="0.9153" stop-color="#607D8B"/>
</linearGradient>
<linearGradient id="paint8_linear" x1="190.122" y1="498.3" x2="335.893" y2="498.3" gradientUnits="userSpaceOnUse">
<stop offset="0.0793651" stop-color="#455A64"/>
<stop offset="0.3085" stop-color="#4D646F"/>
<stop offset="0.9247" stop-color="#607D8B"/>
</linearGradient>
<linearGradient id="paint9_linear" x1="205.394" y1="455.263" x2="232.465" y2="455.263" gradientUnits="userSpaceOnUse">
<stop offset="0.00529099" stop-color="#FBBE52"/>
<stop offset="0.2722" stop-color="#FABB54"/>
<stop offset="0.3968" stop-color="#F9B656"/>
<stop offset="0.8783" stop-color="#FC952E"/>
</linearGradient>
<linearGradient id="paint10_linear" x1="249.903" y1="442.768" x2="276.977" y2="442.768" gradientUnits="userSpaceOnUse">
<stop offset="0.00529099" stop-color="#FBBE52"/>
<stop offset="0.2722" stop-color="#FABB54"/>
<stop offset="0.3968" stop-color="#F9B656"/>
<stop offset="0.8783" stop-color="#FC952E"/>
</linearGradient>
<linearGradient id="paint11_linear" x1="294.411" y1="430.273" x2="321.481" y2="430.273" gradientUnits="userSpaceOnUse">
<stop offset="0.00529099" stop-color="#FBBE52"/>
<stop offset="0.2722" stop-color="#FABB54"/>
<stop offset="0.3968" stop-color="#F9B656"/>
<stop offset="0.8783" stop-color="#FC952E"/>
</linearGradient>
<linearGradient id="paint12_linear" x1="157.728" y1="195.549" x2="242.292" y2="195.549" gradientUnits="userSpaceOnUse">
<stop offset="0.0793651" stop-color="#455A64"/>
<stop offset="0.3085" stop-color="#4D646F"/>
<stop offset="0.9247" stop-color="#607D8B"/>
</linearGradient>
<linearGradient id="paint13_linear" x1="140.209" y1="188.611" x2="217.493" y2="188.611" gradientUnits="userSpaceOnUse">
<stop offset="0.0793651" stop-color="#455A64"/>
<stop offset="0.3085" stop-color="#4D646F"/>
<stop offset="0.9247" stop-color="#607D8B"/>
</linearGradient>
<linearGradient id="paint14_linear" x1="134.236" y1="112.256" x2="187.807" y2="112.256" gradientUnits="userSpaceOnUse">
<stop offset="0.2169" stop-color="#8BABBB"/>
<stop offset="0.4258" stop-color="#88A7B7"/>
<stop offset="0.6202" stop-color="#7E9DAC"/>
<stop offset="0.8084" stop-color="#6D8B99"/>
<stop offset="0.9153" stop-color="#607D8B"/>
</linearGradient>
<linearGradient id="paint15_linear" x1="179.276" y1="51.6673" x2="153.81" y2="51.6673" gradientUnits="userSpaceOnUse">
<stop offset="0.0793651" stop-color="#455A64"/>
<stop offset="0.3085" stop-color="#4D646F"/>
<stop offset="0.9247" stop-color="#607D8B"/>
</linearGradient>
<linearGradient id="paint16_linear" x1="168.89" y1="102.646" x2="296.484" y2="123.452" gradientUnits="userSpaceOnUse">
<stop offset="0.2169" stop-color="#8BABBB"/>
<stop offset="0.4258" stop-color="#88A7B7"/>
<stop offset="0.6202" stop-color="#7E9DAC"/>
<stop offset="0.8084" stop-color="#6D8B99"/>
<stop offset="0.9153" stop-color="#607D8B"/>
</linearGradient>
<linearGradient id="paint17_linear" x1="173.333" y1="115.381" x2="292.041" y2="134.739" gradientUnits="userSpaceOnUse">
<stop offset="0.0793651" stop-color="#455A64"/>
<stop offset="0.3085" stop-color="#4D646F"/>
<stop offset="0.9247" stop-color="#607D8B"/>
</linearGradient>
<linearGradient id="paint18_linear" x1="197.548" y1="123.199" x2="205.341" y2="130.078" gradientUnits="userSpaceOnUse">
<stop offset="0.00529099" stop-color="#FBBE52"/>
<stop offset="0.2722" stop-color="#FABB54"/>
<stop offset="0.3968" stop-color="#F9B656"/>
<stop offset="0.8783" stop-color="#FC952E"/>
</linearGradient>
<linearGradient id="paint19_linear" x1="144.669" y1="108.444" x2="198.189" y2="108.444" gradientUnits="userSpaceOnUse">
<stop offset="0.2169" stop-color="#8BABBB"/>
<stop offset="0.4258" stop-color="#88A7B7"/>
<stop offset="0.6202" stop-color="#7E9DAC"/>
<stop offset="0.8084" stop-color="#6D8B99"/>
<stop offset="0.9153" stop-color="#607D8B"/>
</linearGradient>
<linearGradient id="paint20_linear" x1="352.912" y1="272.485" x2="418.183" y2="272.485" gradientUnits="userSpaceOnUse">
<stop offset="0.1719" stop-color="#455A64"/>
<stop offset="0.4003" stop-color="#495F69"/>
<stop offset="0.6807" stop-color="#536C78"/>
<stop offset="0.9206" stop-color="#607D8B"/>
</linearGradient>
<linearGradient id="paint21_linear" x1="319.393" y1="234.022" x2="363.539" y2="310.076" gradientUnits="userSpaceOnUse">
<stop offset="0.00529099" stop-color="#FBBE52"/>
<stop offset="0.2722" stop-color="#FABB54"/>
<stop offset="0.3968" stop-color="#F9B656"/>
<stop offset="0.8783" stop-color="#FC952E"/>
</linearGradient>
<linearGradient id="paint22_linear" x1="395.042" y1="419.934" x2="464.813" y2="419.934" gradientUnits="userSpaceOnUse">
<stop offset="0.1719" stop-color="#455A64"/>
<stop offset="0.4003" stop-color="#495F69"/>
<stop offset="0.6807" stop-color="#536C78"/>
<stop offset="0.9206" stop-color="#607D8B"/>
</linearGradient>
<linearGradient id="paint23_linear" x1="371.658" y1="295.254" x2="449.562" y2="295.254" gradientUnits="userSpaceOnUse">
<stop offset="0.1719" stop-color="#455A64"/>
<stop offset="0.4003" stop-color="#495F69"/>
<stop offset="0.6807" stop-color="#536C78"/>
<stop offset="0.9206" stop-color="#607D8B"/>
</linearGradient>
<clipPath id="clip0">
<rect width="550" height="512" fill="white"/>
</clipPath>
</defs>
</svg>
