<svg width="550" height="440" viewBox="0 0 550 440" fill="none" xmlns="http://www.w3.org/2000/svg">
<g clip-path="url(#clip0)">
<path d="M18.9 242.7C21.8 248.2 24.8 253.7 28.1 259.1C69.8 327.8 187.3 424.7 268.6 438C353.9 451.9 451.8 390.8 510.7 326.8C583.7 247.5 552.7 74.1 434.6 30.6C402.9 18.9 365.8 20.9 334.8 36.1C287.3 59.3 254.2 110.9 202.2 119.5C173.2 124.3 144.5 114.3 116.3 107.4C88.1 100.5 55.7 97.3 31.1 113.6C10.9 127.2 0.400039 151.9 3.93642e-05 175.5C-0.399961 199.2 8.00004 221.9 18.9 242.7Z" fill="#D8E1E5"/>
<path d="M502.8 245.3C501.7 236.9 495.2 217.7 486.8 229.8C481.7 237.1 485.1 248.6 481.5 257C474.5 249.8 456.4 208.8 440.1 225.9C429.6 236.9 445.7 266.9 450.7 278.4C447.2 273.9 438.7 268.9 434.2 274.9C430.1 280.4 437.3 293.5 439.2 299C430.3 295.2 424.3 285.8 414.6 292.6C407.1 297.9 406.9 308.5 407.9 316.6C409 325.3 412 333.2 412.1 342.1C412.2 352.2 408.6 360.1 407.2 370C417.6 349.1 449.1 354.9 467.8 353.6C477.8 352.9 530.5 349.8 510.7 329C507 325.2 462.1 321.2 479.1 310.8C486.7 306.2 502.5 311.1 511.3 310.1C518.2 309.3 532.1 307.3 537.2 302.4C546.1 293.8 539.5 281.6 530 277.9C521.8 274.8 511.3 278.1 504.1 273.3C510.1 266.2 522.5 268.8 528.9 262.7C536.9 255.1 528.8 250.8 521.2 249.3C532.4 243.8 539.9 225.5 521.2 224.7C514.5 224.4 509.3 228.1 505.7 233.4C503.2 237 499.7 245.1 502.5 245.3C501.8 244.9 500.8 244.1 500.7 243.1" fill="#73909E"/>
<path d="M82.9002 255.1C82.4002 265.7 83.6002 276.4 86.4002 286.6C87.2002 289.8 88.3002 292.9 89.4002 295.9C93.7002 307.3 100 318 108 327.2C109.1 328.4 110.2 329.6 111.3 330.8C114.8 334.4 118.5 337.7 122.5 340.7C126 348.8 129.3 355.6 133.2 362.1C134 363.5 134.8 364.8 135.7 366.2C139.1 371.5 142.9 376.8 147.5 382.5L147.6 382.6C150.5 383.3 153.3 383.7 156.1 383.8C167.1 384.3 177.9 380.6 187.8 374.8C189.5 373.8 191.3 372.7 192.9 371.6C193.7 371.1 194.4 370.6 195.1 370.1C195.8 369.6 196.5 369.1 197.2 368.6C197.7 368.2 198.2 367.8 198.7 367.4C204.4 363 209.7 358 214.4 352.9C224.4 342.2 233.7 330.4 238.4 316.6C243.2 302.8 243 286.6 234.9 274.4C224 257.8 200.6 250.6 194.2 231.8C187.6 212.6 202.5 192.4 201.3 172.1C200.1 152.3 184.2 136.9 168.7 124.4C153.3 111.9 136.2 98.8 131.1 79.7C129 71.9 129.2 63.7 127.1 55.9C125 48.1 119.8 40.3 111.9 38.8C101.6 36.8 92.6002 46.1 88.0002 55.4C79.5002 72.8 78.7002 93.8 85.8002 111.8C91.6002 126.3 102.2 138.9 105.5 154.2C111.6 181.9 92.6002 208.2 85.4002 235.6C84.2002 242 83.2002 248.5 82.9002 255.1Z" fill="#97B9C4"/>
<path d="M155 175.4C156.7 187.9 152.8 200.3 148.7 213.4C146.6 220 144.5 226.8 143.2 233.6C142.2 238.9 141.6 244.2 141.5 249.5C132.4 238.6 124.7 226.6 118.5 213.8C117.9 212.5 116.3 212 115 212.6C113.7 213.2 113.2 214.8 113.8 216.1C121.1 231 130.4 244.9 141.4 257.4C141.5 257.5 141.6 257.6 141.7 257.7C141.9 260.3 142.1 262.8 142.5 265.3C143.9 275.3 147 285 151.6 294C155.6 301.9 160.7 309.2 165.7 316.3C170.8 323.6 176.2 331.2 180.1 339.3C182.4 344.2 184.3 349.2 185.6 354.5C186.2 357 186.8 359.5 187.2 362.1C187.9 366.4 188.2 370.7 188.2 375.1C188.2 377.7 188.1 380.3 187.9 382.9C189.7 382.5 191.5 382.1 193.3 381.6C193.5 378.4 193.6 375.1 193.4 371.8C193.4 370.5 193.3 369.1 193.2 367.8C193 365.4 192.7 363.1 192.4 360.7C191 352.5 188.6 344.5 184.9 337C184.1 335.3 183.2 333.6 182.2 331.9C183.8 329.9 185.3 327.9 186.7 325.8C192.9 316.6 197.4 306.3 199.8 295.5C200.1 294.1 199.2 292.7 197.8 292.4C196.4 292.1 195 293 194.7 294.4C192.7 303.3 189.2 311.9 184.4 319.7C182.9 322.2 181.2 324.7 179.4 327C176.5 322.3 173.2 317.7 170.1 313.2C165.2 306.3 160.2 299.1 156.4 291.6C156.2 291.2 156 290.8 155.8 290.5C158.1 287.9 160.2 285.1 162.2 282.2C170.2 271.1 176.3 258.6 180.2 245.5C180.6 244.1 179.8 242.7 178.4 242.3C177 241.9 175.6 242.7 175.1 244.1C171.5 256.3 165.9 267.9 158.5 278.4C156.9 280.7 155.1 283 153.3 285.3C151.2 280.2 149.6 275 148.5 269.6C146.2 258.1 146.1 246.3 148.4 234.7C149.7 228.2 151.7 221.6 153.7 215.2C169.7 204.4 181.7 188.4 187.6 170.1C188 168.7 187.3 167.3 185.9 166.8C184.5 166.4 183 167.1 182.6 168.5C177.8 183.6 168.5 196.9 156.3 206.8C159.8 195 162.3 182.9 159.5 170.7C156.2 156.3 146.3 144.9 136.6 134C135.5 132.8 134.4 131.5 133.3 130.3L135.3 104.5C135.4 103.1 134.3 101.8 132.9 101.7C131.5 101.6 130.2 102.7 130.1 104.1L128.5 124.5C117.4 110.4 113 98.1 115 87.1C115.3 85.7 114.3 84.3 112.9 84.1C111.5 83.8 110.1 84.8 109.9 86.2C107.4 100.1 113.4 115.2 128.2 132.4C129.7 134.1 131.2 135.8 132.7 137.5C141.2 147.1 150 157.1 153.6 168.9L117 150.6C115.7 150 114.1 150.5 113.5 151.8C112.9 153.1 113.4 154.7 114.7 155.3L155 175.4Z" fill="#86A5B2"/>
<path d="M15.5 247.9C31.1 286 50.2 324.6 82 351C100.3 366.2 123.7 378 147.7 382.6C150.6 383.2 153.5 383.6 156.3 383.9C166.9 385.1 177.5 384.9 187.7 382.7C189.5 382.3 191.3 381.9 193.1 381.4C195.3 380.8 197.5 380.1 199.7 379.3C199.3 377.2 198.9 375.1 198.5 373.1C198.2 371.6 197.9 370.1 197.6 368.6C197.4 367.5 197.1 366.3 196.9 365.2C194.1 351.8 191 338.6 186.5 325.8C185.8 323.8 185 321.7 184.2 319.7C182 314.2 179.6 308.7 176.8 303.5C172.7 296 167.8 288.7 162.1 282.3C160.9 280.9 159.7 279.7 158.5 278.4C155.4 275.2 152 272.3 148.5 269.6C146.5 268.1 144.5 266.7 142.5 265.4C134.7 260.4 126.1 256.9 116.9 255.2C105.7 253.2 94.4 254 83.1 255.3C77.2 255.9 71.3 256.7 65.4 257.3C48.1 258.7 29.4 258 15.5 247.9Z" fill="white"/>
<path opacity="0.1" d="M49.2002 275.1C62.1002 280 74.7002 285.6 86.9002 291.7L50.6002 295.8C49.4002 295.9 48.5002 297 48.6002 298.3C48.7002 299.5 49.8002 300.4 51.1002 300.3L89.6002 296L93.5002 295.6C93.7002 295.6 93.9002 295.5 94.1002 295.4C107.4 302.4 120.2 310 132.7 318.4C124.7 321.7 116.6 324.7 108.3 327.3C100.9 329.6 93.5002 331.7 86.0002 333.5C84.8002 333.8 84.1002 335 84.3002 336.2C84.6002 337.4 85.8002 338.1 87.0002 337.9C95.3002 335.9 103.5 333.6 111.6 331C120.2 328.2 128.8 325 137.1 321.5C144.2 326.4 151.2 331.5 158 336.9C158.2 337.2 158.5 337.4 158.9 337.6C164.2 341.8 169.4 346.1 174.5 350.6C161.3 355.9 147.6 359.9 133.6 362.4C133.2 362.5 132.8 362.6 132.3 362.6C131.1 362.8 130.3 364 130.5 365.2C130.7 366.4 131.9 367.2 133.1 367C134.1 366.8 135.1 366.6 136.1 366.4C150.5 363.7 164.7 359.4 178.3 353.8C181.3 356.5 184.3 359.3 187.3 362.1C189.3 364 191.3 365.9 193.3 367.8C194.1 368.6 194.9 369.4 195.8 370.3C196.8 371.3 197.8 372.3 198.8 373.3C198.5 371.8 198.2 370.3 197.9 368.8C198.4 368.4 198.9 368 199.4 367.6C198.7 366.8 197.9 366.1 197.2 365.4C195.6 363.8 194.1 362.3 192.5 360.8C190.3 358.7 188.1 356.6 185.8 354.5C184.1 352.9 182.4 351.3 180.6 349.8C180.4 349.6 180.2 349.4 180 349.3C174.1 344.1 168.1 339 161.9 334.2C159.1 317.1 152.9 300.3 144 285.5C143.4 284.5 142 284.1 140.9 284.7C139.9 285.3 139.5 286.7 140.1 287.8C147.9 300.7 153.6 315.2 156.6 330.1C144.5 320.8 131.8 312.2 118.7 304.3C118.7 304.2 118.6 304.1 118.6 304C111.4 290.2 103 276.8 93.5002 264.4C92.7002 263.4 91.4002 263.2 90.4002 264C89.4002 264.8 89.2002 266.2 90.0002 267.1C97.9002 277.5 105.1 288.5 111.4 299.9C103.4 295.3 95.2002 290.9 86.8002 286.8C75.2002 281.1 63.2002 275.8 51.1002 271.2C50.0002 270.8 48.7002 271.3 48.2002 272.5C47.4002 273.4 48.0002 274.7 49.2002 275.1Z" fill="url(#paint0_linear)"/>
<path d="M455.3 152H499.2V155.4C499.2 155.4 497.5 156.9 496.8 159.3C496.6 160 496.4 160.8 496.4 161.7C496.4 165.4 499.2 167.7 499.2 167.7V171.1H455.3C453.9 171.1 452.8 170 452.8 168.6V154.7C452.8 153.1 453.9 152 455.3 152Z" fill="url(#paint1_linear)"/>
<path d="M508.2 161.6C508.2 160.7 508.4 160 508.6 159.2H466.4V168.9H509.7L511 167.6C511.1 167.6 508.2 165.3 508.2 161.6Z" fill="white"/>
<path d="M511.1 155.4L509.4 153.7H466.4V159.3H508.6C509.4 156.9 511.1 155.4 511.1 155.4Z" fill="white"/>
<path d="M511.1 155.4V152H467.2C465.8 152 464.7 153.1 464.7 154.5V168.4C464.7 169.8 465.8 170.9 467.2 170.9H511.1V167.5H468.1V155.3H511.1V155.4Z" fill="url(#paint2_linear)"/>
<path d="M97.2002 152H141.1V155.4C141.1 155.4 139.4 156.9 138.7 159.3C138.5 160 138.3 160.8 138.3 161.7C138.3 165.4 141.1 167.7 141.1 167.7V171.1H97.2002C95.8002 171.1 94.7002 170 94.7002 168.6V154.7C94.7002 153.1 95.8002 152 97.2002 152Z" fill="url(#paint3_linear)"/>
<path d="M150.2 161.6C150.2 160.7 150.4 160 150.6 159.2H108.4V168.9H151.7L153 167.6C153 167.6 150.2 165.3 150.2 161.6Z" fill="white"/>
<path d="M153 155.4L151.3 153.7H108.3V159.3H150.5C151.3 156.9 153 155.4 153 155.4Z" fill="url(#paint4_linear)"/>
<path d="M153 155.4V152H109.1C107.7 152 106.6 153.1 106.6 154.5V168.4C106.6 169.8 107.7 170.9 109.1 170.9H153V167.5H110V155.3H153V155.4Z" fill="url(#paint5_linear)"/>
<path d="M470.7 133.1H514.6V136.5C514.6 136.5 512.9 138 512.2 140.4C512 141.1 511.8 141.9 511.8 142.8C511.8 146.5 514.6 148.8 514.6 148.8V152.2H470.7C469.3 152.2 468.2 151.1 468.2 149.7V135.8C468.2 134.2 469.3 133.1 470.7 133.1Z" fill="url(#paint6_linear)"/>
<path d="M523.7 142.7C523.7 141.8 523.9 141.1 524.1 140.3H481.9V150H525.2L526.5 148.7C526.5 148.6 523.7 146.4 523.7 142.7Z" fill="white"/>
<path d="M526.5 136.4L524.8 134.7H481.8V140.3H524C524.8 137.9 526.5 136.4 526.5 136.4Z" fill="white"/>
<path d="M526.5 136.4V133H482.6C481.2 133 480.1 134.1 480.1 135.5V149.4C480.1 150.8 481.2 151.9 482.6 151.9H526.5V148.5H483.5V136.3H526.5V136.4Z" fill="url(#paint7_linear)"/>
<path d="M297 167.6H293.7H235.2H231.9C231 167.6 230.4 168.3 230.4 169.1V169.4C230.4 170.3 231.1 170.9 231.9 170.9H264.4H297C297.9 170.9 298.5 170.2 298.5 169.4V169.1C298.5 168.3 297.8 167.6 297 167.6Z" fill="url(#paint8_linear)"/>
<path d="M341.7 44.2H185.6C183.3 44.2 181.4 46.0999 181.4 48.2999V131.5V145.6C181.4 147.9 183.3 149.7 185.6 149.7H250.6V156.8H287.6V149.7H341.7C344 149.7 345.9 147.8 345.9 145.6V131.5V48.2999C345.9 45.9999 344 44.2 341.7 44.2Z" fill="url(#paint9_linear)"/>
<path d="M239.9 167.6H236.6C235.7 167.6 235.1 168.3 235.1 169.1V169.4C235.1 170.3 235.8 170.9 236.6 170.9H269.1H301.6C302.5 170.9 303.1 170.2 303.1 169.4V169.1C303.1 168.2 302.4 167.6 301.6 167.6H298.3H239.9Z" fill="url(#paint10_linear)"/>
<path d="M292.6 165.9C289.5 163.9 287.6 160.5 287.6 156.8H250.6C250.6 160.5 248.7 163.9 245.6 165.9C243.9 167 241.9 167.6 239.8 167.6H298.3C296.4 167.6 294.4 167 292.6 165.9Z" fill="url(#paint11_linear)"/>
<path d="M350.6 48.2999C350.6 45.9999 348.7 44.2 346.4 44.2H190.3C188 44.2 186.1 46.0999 186.1 48.2999V131.5H350.5V48.2999H350.6Z" fill="url(#paint12_linear)"/>
<path d="M344.7 53.7999C344.7 51.6999 343 49.8999 340.8 49.8999H195.8C193.7 49.8999 191.9 51.5999 191.9 53.7999V131.5H344.6V53.7999H344.7Z" fill="white"/>
<path d="M344.7 59.8H192V63.5H344.7V59.8Z" fill="url(#paint13_linear)"/>
<path d="M193 131.5H186.2V145.6C186.2 147.9 188.1 149.7 190.4 149.7H346.5C348.8 149.7 350.7 147.8 350.7 145.6V131.5H343.9H193Z" fill="url(#paint14_linear)"/>
<path d="M329.5 69.3999H208.9V74.1999H329.5V69.3999Z" fill="url(#paint15_linear)"/>
<path d="M295 87.7998H269.8V124.5H295V87.7998Z" fill="url(#paint16_linear)"/>
<path d="M301.3 87.7998C301.3 87.7998 301.3 87.8998 301.3 87.7998V124.5H329.4V87.8998H301.3V87.7998Z" fill="url(#paint17_linear)"/>
<path d="M262.6 119.7H209.3C209 119.7 208.8 119.9 208.8 120.2V124.1C208.8 124.4 209 124.6 209.3 124.6H262.6C262.9 124.6 263.1 124.4 263.1 124.1V120.2C263.1 120 262.9 119.7 262.6 119.7Z" fill="url(#paint18_linear)"/>
<path d="M262.6 109.1H209.3C209 109.1 208.8 109.3 208.8 109.6V113.5C208.8 113.8 209 114 209.3 114H262.6C262.9 114 263.1 113.8 263.1 113.5V109.6C263.1 109.3 262.9 109.1 262.6 109.1Z" fill="url(#paint19_linear)"/>
<path d="M262.6 98.5H209.3C209 98.5 208.8 98.7 208.8 99V102.9C208.8 103.2 209 103.4 209.3 103.4H262.6C262.9 103.4 263.1 103.2 263.1 102.9V99C263.1 98.7 262.9 98.5 262.6 98.5Z" fill="url(#paint20_linear)"/>
<path d="M262.6 87.7998H209.3C209 87.7998 208.8 87.9998 208.8 88.2998V92.1998C208.8 92.4998 209 92.6998 209.3 92.6998H262.6C262.9 92.6998 263.1 92.4998 263.1 92.1998V88.2998C263.1 88.0998 262.9 87.7998 262.6 87.7998Z" fill="url(#paint21_linear)"/>
<path d="M199.4 55.6999C199.4 54.6999 198.6 53.8999 197.6 53.8999C196.6 53.8999 195.8 54.6999 195.8 55.6999C195.8 56.6999 196.6 57.4999 197.6 57.4999C198.6 57.3999 199.4 56.6999 199.4 55.6999Z" fill="url(#paint22_linear)"/>
<path d="M204.8 55.6999C204.8 54.6999 204 53.8999 203 53.8999C202 53.8999 201.2 54.6999 201.2 55.6999C201.2 56.6999 202 57.4999 203 57.4999C204 57.4999 204.8 56.6999 204.8 55.6999Z" fill="url(#paint23_linear)"/>
<path d="M210.1 55.6999C210.1 54.6999 209.3 53.8999 208.3 53.8999C207.3 53.8999 206.5 54.6999 206.5 55.6999C206.5 56.6999 207.3 57.4999 208.3 57.4999C209.3 57.3999 210.1 56.6999 210.1 55.6999Z" fill="url(#paint24_linear)"/>
<path d="M268.4 145.6C271.161 145.6 273.4 143.361 273.4 140.6C273.4 137.838 271.161 135.6 268.4 135.6C265.638 135.6 263.4 137.838 263.4 140.6C263.4 143.361 265.638 145.6 268.4 145.6Z" fill="white"/>
<path d="M178.5 317.6H96.6001V324.1H178.5V317.6Z" fill="#97B9C4"/>
<path d="M515.3 317.6H433.4V324.1H515.3V317.6Z" fill="#86A5B2"/>
<path d="M445 181.6L417.8 380.1C417.5 381.5 418.6 382.9 420 382.9H422.2C423.2 382.9 424 382.3 424.4 381.4L467.5 187.2C467.9 185.9 467.2 184.5 465.9 184.2L447.8 179.9C446.6 179.6 445.3 180.4 445 181.6Z" fill="#86A5B2"/>
<path d="M503.7 181.6L530.9 380.1C531.2 381.5 530.1 382.9 528.7 382.9H526.5C525.5 382.9 524.7 382.3 524.3 381.4L481.2 187.2C480.8 185.9 481.5 184.5 482.8 184.2L500.9 179.9C502.2 179.6 503.5 180.4 503.7 181.6Z" fill="#97B9C4"/>
<path d="M514.7 194.8H434C432.9 194.8 432 193.9 432 192.8V188.5H516.6V192.8C516.6 194 515.7 194.8 514.7 194.8Z" fill="#86A5B2"/>
<path d="M106.1 181.6L78.9999 380.1C78.6999 381.5 79.7999 382.9 81.1999 382.9H83.3999C84.3999 382.9 85.1999 382.3 85.5999 381.4L128.7 187.2C129.1 185.9 128.4 184.5 127.1 184.2L109 179.9C107.7 179.6 106.4 180.4 106.1 181.6Z" fill="#97B9C4"/>
<path d="M164.8 181.6L192 380.1C192.3 381.5 191.2 382.9 189.8 382.9H187.6C186.6 382.9 185.8 382.3 185.4 381.4L142.3 187.2C141.9 185.9 142.6 184.5 143.9 184.2L162 179.9C163.3 179.6 164.6 180.4 164.8 181.6Z" fill="#73909E"/>
<path d="M175.8 194.8H95C93.9 194.8 93 193.9 93 192.8V188.5H177.6V192.8C177.7 194 176.8 194.8 175.8 194.8Z" fill="#97B9C4"/>
<path d="M545.4 171H67.5V188.7H545.4V171Z" fill="url(#paint25_linear)"/>
<path d="M204.9 171H67.5V188.7H204.9V171Z" fill="url(#paint26_linear)"/>
<path d="M133.5 134.3C133.5 134.3 125.6 111.1 139.1 111.1C152.5 111.1 144.3 134.3 144.3 134.3H133.5Z" fill="#86A5B2"/>
<path d="M146.6 134.3C146.7 134.6 146.7 134.8 146.7 134.8L150.1 135C150.1 134.8 150 134.6 150 134.3H146.6Z" fill="#B5E3FB"/>
<path d="M152 135.1L155.9 135.3C155.9 135.3 155.9 134.9 156 134.3H152.1L152 135.1Z" fill="#B5E3FB"/>
<path d="M150.8 138.2L151.7 137.3L152 135L150.2 134.9C150.5 136.9 150.8 138.2 150.8 138.2Z" fill="#B5E3FB"/>
<path d="M150 134.3C150 134.6 150.1 134.8 150.1 135L151.9 135.1L152 134.3H150Z" fill="#B5E3FB"/>
<path d="M151.1 101.3C151.3 101.4 157.7 104.8 157.7 111.8C157.7 117.8 156.4 130.6 155.9 134.3H158.2C158.2 134.3 169.8 101.6 151.1 101.3Z" fill="#73909E"/>
<path d="M151.1 101.3C151 101.3 151 101.3 150.9 101.3C131.8 101.3 143 134.2 143 134.2H146.6C146 132.1 143.9 123.3 143.9 114.3C143.9 104.2 150.9 101.4 151.1 101.3Z" fill="#73909E"/>
<path d="M151.1 101.3C151.2 101.4 153.6 104.3 153.6 114.4C153.6 124.7 152.3 132.4 152.3 132.4L152.1 134.2H156C156.4 130.5 157.8 117.8 157.8 111.7C157.7 104.8 151.3 101.4 151.1 101.3Z" fill="#86A5B2"/>
<path d="M147.5 113.9C147.5 105.5 151 101.5 151.1 101.4C150.9 101.5 144 104.3 144 114.4C144 123.4 146.1 132.2 146.7 134.3H150.1C149.1 129 147.5 119.7 147.5 113.9Z" fill="#86A5B2"/>
<path d="M147.5 113.9C147.5 119.8 149.1 129.1 150 134.3H152L152.2 132.5C152.2 132.5 153.5 124.8 153.5 114.5C153.5 104.4 151.1 101.5 151 101.4C151 101.4 147.5 105.4 147.5 113.9Z" fill="#73909E"/>
<path d="M156.7 134.3C156.7 134.3 150.6 116.2 161 116.2C171.4 116.2 165 134.3 165 134.3H156.7Z" fill="#86A5B2"/>
<path d="M168.4 131.7H160.1C161.6 131.7 162.8 133 162.5 134.5L161 144.4H169.3L170.8 134.5C171 133.1 169.9 131.7 168.4 131.7Z" fill="url(#paint27_linear)"/>
<path d="M160.6 146.8H168.3C168.5 146.8 168.7 146.8 168.9 146.9L169.3 144.5H161L160.6 146.8Z" fill="#73909E"/>
<path d="M157.9 165.1C157.4 168.5 154.5 170.9 151.1 170.9H159.4C162.8 170.9 165.7 168.4 166.2 165.1L167 159.5H158.7L157.9 165.1Z" fill="#73909E"/>
<path d="M160.6 146.8L158.7 159.5H167L168.9 146.8C168.7 146.8 168.5 146.7 168.3 146.7H160.6V146.8Z" fill="url(#paint28_linear)"/>
<path d="M128.8 134.6L130.3 144.5H141.5H149.8H161L162.5 134.6C162.7 133.1 161.6 131.8 160.1 131.8H149.8H141.5H131.2C129.7 131.7 128.5 133.1 128.8 134.6Z" fill="#FFDC8C"/>
<path d="M141.5 144.5H130.3L130.6 146.8H131.2H141.5H149.8H160.1H160.6L161 144.5H149.8H141.5Z" fill="#73909E"/>
<path d="M160.6 146.9L160 146.8C160.3 146.8 160.5 146.9 160.6 146.9Z" fill="#73909E"/>
<path d="M157.9 165.1L158.7 159.5H149.8H141.5H132.6L133.4 165.1C133.9 168.5 136.8 170.9 140.2 170.9H141.5H149.8H151.1C154.5 171 157.3 168.5 157.9 165.1Z" fill="#73909E"/>
<path d="M149.8 146.8H141.5H131.2C131 146.8 130.8 146.8 130.6 146.9L132.5 159.6H141.4H149.7H158.6L160.5 146.9C160.3 146.9 160.1 146.8 159.9 146.8H149.8Z" fill="#FFDC8C"/>
<path d="M284.5 378C283.9 377.9 283.3 377.7 282.9 377.4C282.9 377.5 282.8 377.6 282.8 377.7C282.3 379.5 283.6 381.3 285.4 381.5C289.4 381.9 296.7 382.6 304.5 382.6C314.3 382.6 322.5 382.2 325.1 382.1C325.6 382.1 325.9 381.7 325.9 381.2C325.9 380.6 325.8 379.7 325.8 378.6C322.8 378.7 314.5 379.1 304.6 379.1C296.4 379.1 288.8 378.5 284.5 378Z" fill="white"/>
<path d="M309.9 366.8C309.9 366.8 292.7 367.4 288 369.4C285.2 370.6 283.7 374.4 282.9 377.3C283.4 377.6 283.9 377.9 284.5 377.9C288.7 378.3 296.4 379 304.6 379C314.5 379 322.9 378.6 325.8 378.5C325.7 375.7 325.4 371.6 324.8 367.8C324.9 368 318.3 368.7 309.9 366.8Z" fill="#455A64"/>
<path d="M241.3 377.9C241.2 377.9 241.1 377.9 241 377.8C240.9 378 240.9 378.2 240.8 378.4C240.5 379.8 241.4 381.1 242.8 381.3C246.8 381.7 254.9 382.5 263.8 382.5C274.1 382.5 282.8 382.1 285.4 382C285.8 382 286.2 381.6 286.2 381.2C286.2 380.6 286.1 379.7 286.1 378.6C282.5 378.8 273.9 379.1 263.9 379.1C254.3 379.1 245.6 378.4 241.3 377.9Z" fill="white"/>
<path d="M269.4 366.8C269.4 366.8 251.4 367.4 246.4 369.4C243.3 370.7 241.7 374.8 240.9 377.8C241 377.8 241.1 377.9 241.2 377.9C245.5 378.3 254.2 379.1 263.7 379.1C273.8 379.1 282.3 378.8 285.9 378.6C285.8 375.8 285.5 371.7 284.9 367.9C285 368 278.1 368.7 269.4 366.8Z" fill="#455A64"/>
<path d="M363.1 214.8C323.9 213.6 301.5 222.8 299.7 234.9C297.9 247 306.7 366.9 306.7 366.9C306.7 366.9 313.5 370.6 324.9 368.4C324.9 368.4 332.3 328.5 334.6 309.5C336.9 290.5 334.8 264.7 334.8 264.7C334.8 264.7 371.5 277.5 393.6 263.6C415.7 249.7 395.5 210.9 395.5 210.9L363.1 214.8Z" fill="url(#paint29_linear)"/>
<path d="M323.4 214.8C284.2 213.6 261.8 222.8 260 234.9C258.2 247 267.5 366.9 267.5 366.9C267.5 366.9 273.2 370.4 285.2 368.9C285.2 368.9 292.6 328.6 294.9 309.7C297.2 290.7 295.1 264.9 295.1 264.9C295.1 264.9 331.8 277.7 353.9 263.8C376 249.9 355.8 211.1 355.8 211.1L323.4 214.8Z" fill="url(#paint30_linear)"/>
<path d="M339.4 18C339.4 18 335.3 27.3 334.3 37.4C334.3 37.4 330.7 43.6 330.7 45.8C330.6 48 334 49 334 49C334 49 334 61.3 337.1 65.1C340.2 69 351.1 69.1 351.1 69.1C351.1 69.1 352.4 72.6 349.2 86H379.9C379.9 86 376.3 76.3 375.6 60.8C374.9 45.3 382.2 18 339.4 18Z" fill="#FBBE52"/>
<path d="M341.5 43.1C341.7 41.4 342.3 39.8 343.3 38.5C344.6 36.7 348.1 36.8 348.8 40.3C350.2 47.4 345.4 49.6 345.4 49.6C345.4 49.6 349.3 52.7 354.2 60.6C354.2 60.6 359 63.7 365.6 63.7C372.2 63.7 375.5 60.9 375.5 60.9C375.5 60.9 377.8 53.2 381 46.9C384.3 40.6 384.3 16.7 384.3 16.7L387.6 17.1L384 15.2L385.1 11.9L382.7 14C382.7 14 376.8 8.1 366.9 7.1C349.8 5.5 338 0 338 0C338 0 335.9 4.6 336.9 10.4L334.8 8.4C334.8 8.4 333.4 14.7 338.3 21.6C338.3 21.6 340.6 30.6 338.4 42L341.6 43.9C341.4 43.8 341.5 43.6 341.5 43.1Z" fill="#563B2B"/>
<path d="M385.4 199.5C388.8 197 392.4 194.2 395.9 191.3C403.8 184.6 410.9 177.4 411.8 172.2C413.7 160.4 412.2 125.3 411.3 108.8C411.3 107.8 411.2 106.9 411.1 106C410.2 90.3998 400.4 83.8998 396.2 81.2998C394 101.6 390.5 147.1 390.1 149.5C389.6 152.5 385.4 199.5 385.4 199.5Z" fill="url(#paint31_linear)"/>
<path d="M384.3 85.5999C384.3 85.5999 382.4 77.7999 380.4 75.8999C378.3 73.9999 365.3 73.7999 361.2 74.3999C357 74.8999 344.6 78.0999 343.3 79.0999C341.9 80.0999 339.9 85.6999 339.9 85.6999H384.3V85.5999Z" fill="url(#paint32_linear)"/>
<path d="M407.9 102.3C409.6 74.5998 379.9 77.1998 379.9 77.1998C342 74.7998 324.3 85.6998 322.2 102C322 103.1 322 104.4 321.9 105.7C320.9 122.5 326 149.5 328.5 169.7C328.5 170.1 328.6 170.5 328.6 170.8C329.3 182 323.4 214.9 323.4 214.9C323.4 214.9 338.8 218 363.1 218C387.4 218 397.3 215.7 397.3 215.7C397.3 215.7 393.2 184.8 397.3 163.2C401 144.1 407 118.4 407.9 102.3Z" fill="url(#paint33_linear)"/>
<path d="M332.6 103.3C331.7 105.1 329.1 107.7 321.8 109.3C321.7 114.9 322.2 121.5 323 128.3L332.3 128.7C331.2 115 332.4 104.8 332.6 103.3Z" fill="#1DA29C"/>
<path d="M332.799 134.6C332.799 134.2 332.7 133.7 332.7 133.3C332.5 131.7 332.399 130.2 332.299 128.7L323 128.3C324.5 142 327 157.1 328.5 169.6C328.5 170 328.6 170.4 328.6 170.7C331.8 151.2 332.799 134.6 332.799 134.6Z" fill="url(#paint34_linear)"/>
<path d="M334.1 125C321.4 122.1 315.2 122.3 311.7 119.7C308.9 132.1 306.5 144.6 305.3 151.1C293.1 152.4 265.3 162.4 265.3 162.4L265.4 170.8C265.4 170.8 310.2 177.4 320.6 162.4C320.7 162.4 328 139.7 334.1 125Z" fill="#FBBE52"/>
<path d="M342.9 118.9L347.2 80.8999C347.2 80.8999 329.8 79.4999 322.2 85.8999C319.3 88.2999 312.9 103.9 309.4 119.7C312.8 122.3 322.4 126.8 335.1 129.7C338.5 123.3 341.4 118.6 342.9 118.9Z" fill="url(#paint35_linear)"/>
<path d="M265.4 162.4C254.5 161.1 247.6 161.5 245.3 164.6C243 167.7 242.2 170.9 242.2 170.9H269.7L265.4 162.4Z" fill="#FBBE52"/>
<path d="M353.9 258.9L326.7 386.3C326.4 387.7 327.5 389.1 328.9 389.1H331.1C332.1 389.1 332.9 388.5 333.3 387.6L376.4 264.5C376.8 263.2 376.1 261.8 374.8 261.5L356.7 257.2C355.5 256.8 354.2 257.6 353.9 258.9Z" fill="#97B9C4"/>
<path d="M412.6 258.9L439.8 386.3C440.1 387.7 439 389.1 437.6 389.1H435.4C434.4 389.1 433.6 388.5 433.2 387.6L390.1 264.5C389.7 263.2 390.4 261.8 391.7 261.5L409.8 257.2C411.1 256.8 412.3 257.6 412.6 258.9Z" fill="#97B9C4"/>
<path d="M273.9 252.1C272.3 249.3 274.8 245.9 277.9 246.6C285.2 248.3 297.7 250.7 309 250.7C320.7 250.7 333.2 247.2 339.9 244.9C342.8 243.9 344.7 241.1 344.6 238C343.6 214.6 342.3 118.5 390.8 118.5C447.8 118.5 439.4 240.9 439.4 240.9C439.4 240.9 437.4 275.5 353.9 275.5C296.4 275.5 279.1 261 273.9 252.1Z" fill="url(#paint36_linear)"/>
<path d="M355.4 258.9L382.6 386.3C382.9 387.7 381.8 389.1 380.4 389.1H378.2C377.2 389.1 376.4 388.5 376 387.6L332.9 264.5C332.5 263.2 333.2 261.8 334.5 261.5L352.6 257.2C353.9 256.8 355.1 257.6 355.4 258.9Z" fill="#73909E"/>
<path d="M294.7 258.9L267.5 386.3C267.2 387.7 268.3 389.1 269.7 389.1H271.9C272.9 389.1 273.7 388.5 274.1 387.6L317.2 264.5C317.6 263.2 316.9 261.8 315.6 261.5L297.5 257.2C296.2 256.8 294.9 257.6 294.7 258.9Z" fill="#73909E"/>
<path d="M199.423 127.472L195.277 154.556L223.548 158.884L227.694 131.799L199.423 127.472Z" fill="#FFDC8C"/>
<path d="M223 139.3L201.8 136.1L202.2 133.5L223.4 136.7L223 139.3Z" fill="url(#paint37_linear)"/>
<path d="M221.9 146.3L200.7 143.1L201.1 140.5L222.3 143.7L221.9 146.3Z" fill="url(#paint38_linear)"/>
<path d="M215.8 152.5L199.6 150.1L200 147.5L216.2 149.9L215.8 152.5Z" fill="url(#paint39_linear)"/>
</g>
<defs>
<linearGradient id="paint0_linear" x1="199.036" y1="318.195" x2="47.7351" y2="318.195" gradientUnits="userSpaceOnUse">
<stop offset="0.0793651" stop-color="#455A64"/>
<stop offset="0.3085" stop-color="#4D646F"/>
<stop offset="0.9247" stop-color="#607D8B"/>
</linearGradient>
<linearGradient id="paint1_linear" x1="452.775" y1="161.495" x2="499.154" y2="161.495" gradientUnits="userSpaceOnUse">
<stop offset="0.2169" stop-color="#C5DEEA"/>
<stop offset="0.4199" stop-color="#C1DBE7"/>
<stop offset="0.6089" stop-color="#B6D2DF"/>
<stop offset="0.7918" stop-color="#A3C2D1"/>
<stop offset="0.9153" stop-color="#92B4C4"/>
</linearGradient>
<linearGradient id="paint2_linear" x1="464.695" y1="161.495" x2="511.074" y2="161.495" gradientUnits="userSpaceOnUse">
<stop offset="0.2169" stop-color="#C5DEEA"/>
<stop offset="0.4199" stop-color="#C1DBE7"/>
<stop offset="0.6089" stop-color="#B6D2DF"/>
<stop offset="0.7918" stop-color="#A3C2D1"/>
<stop offset="0.9153" stop-color="#92B4C4"/>
</linearGradient>
<linearGradient id="paint3_linear" x1="94.7134" y1="161.495" x2="141.092" y2="161.495" gradientUnits="userSpaceOnUse">
<stop offset="0.2169" stop-color="#C5DEEA"/>
<stop offset="0.4199" stop-color="#C1DBE7"/>
<stop offset="0.6089" stop-color="#B6D2DF"/>
<stop offset="0.7918" stop-color="#A3C2D1"/>
<stop offset="0.9153" stop-color="#92B4C4"/>
</linearGradient>
<linearGradient id="paint4_linear" x1="108.322" y1="156.479" x2="153.012" y2="156.479" gradientUnits="userSpaceOnUse">
<stop offset="0.0793651" stop-color="#455A64"/>
<stop offset="0.3085" stop-color="#4D646F"/>
<stop offset="0.9247" stop-color="#607D8B"/>
</linearGradient>
<linearGradient id="paint5_linear" x1="106.633" y1="161.495" x2="153.012" y2="161.495" gradientUnits="userSpaceOnUse">
<stop offset="0.2169" stop-color="#C5DEEA"/>
<stop offset="0.4199" stop-color="#C1DBE7"/>
<stop offset="0.6089" stop-color="#B6D2DF"/>
<stop offset="0.7918" stop-color="#A3C2D1"/>
<stop offset="0.9153" stop-color="#92B4C4"/>
</linearGradient>
<linearGradient id="paint6_linear" x1="468.219" y1="142.536" x2="514.598" y2="142.536" gradientUnits="userSpaceOnUse">
<stop offset="0.1719" stop-color="#455A64"/>
<stop offset="0.4003" stop-color="#495F69"/>
<stop offset="0.6807" stop-color="#536C78"/>
<stop offset="0.9206" stop-color="#607D8B"/>
</linearGradient>
<linearGradient id="paint7_linear" x1="480.139" y1="142.536" x2="526.518" y2="142.536" gradientUnits="userSpaceOnUse">
<stop offset="0.1719" stop-color="#455A64"/>
<stop offset="0.4003" stop-color="#495F69"/>
<stop offset="0.6807" stop-color="#536C78"/>
<stop offset="0.9206" stop-color="#607D8B"/>
</linearGradient>
<linearGradient id="paint8_linear" x1="230.371" y1="169.287" x2="298.514" y2="169.287" gradientUnits="userSpaceOnUse">
<stop offset="0.0793651" stop-color="#455A64"/>
<stop offset="0.3085" stop-color="#4D646F"/>
<stop offset="0.9247" stop-color="#607D8B"/>
</linearGradient>
<linearGradient id="paint9_linear" x1="181.477" y1="100.513" x2="345.866" y2="100.513" gradientUnits="userSpaceOnUse">
<stop offset="0.0793651" stop-color="#455A64"/>
<stop offset="0.3085" stop-color="#4D646F"/>
<stop offset="0.9247" stop-color="#607D8B"/>
</linearGradient>
<linearGradient id="paint10_linear" x1="235.077" y1="169.288" x2="303.22" y2="169.288" gradientUnits="userSpaceOnUse">
<stop offset="0.0793651" stop-color="#455A64"/>
<stop offset="0.3085" stop-color="#4D646F"/>
<stop offset="0.9247" stop-color="#607D8B"/>
</linearGradient>
<linearGradient id="paint11_linear" x1="239.881" y1="162.226" x2="298.417" y2="162.226" gradientUnits="userSpaceOnUse">
<stop offset="0.0793651" stop-color="#455A64"/>
<stop offset="0.3085" stop-color="#4D646F"/>
<stop offset="0.9247" stop-color="#607D8B"/>
</linearGradient>
<linearGradient id="paint12_linear" x1="186.183" y1="87.8473" x2="350.572" y2="87.8473" gradientUnits="userSpaceOnUse">
<stop offset="0.2169" stop-color="#C5DEEA"/>
<stop offset="0.4199" stop-color="#C1DBE7"/>
<stop offset="0.6089" stop-color="#B6D2DF"/>
<stop offset="0.7918" stop-color="#A3C2D1"/>
<stop offset="0.9153" stop-color="#92B4C4"/>
</linearGradient>
<linearGradient id="paint13_linear" x1="192.034" y1="61.6662" x2="344.72" y2="61.6662" gradientUnits="userSpaceOnUse">
<stop stop-color="#E88306"/>
<stop offset="0.9133" stop-color="#F7D209"/>
<stop offset="1" stop-color="#F8DA09"/>
</linearGradient>
<linearGradient id="paint14_linear" x1="186.182" y1="140.65" x2="350.572" y2="140.65" gradientUnits="userSpaceOnUse">
<stop offset="0.0793651" stop-color="#455A64"/>
<stop offset="0.3085" stop-color="#4D646F"/>
<stop offset="0.9247" stop-color="#607D8B"/>
</linearGradient>
<linearGradient id="paint15_linear" x1="221.54" y1="118.632" x2="302.555" y2="39.03" gradientUnits="userSpaceOnUse">
<stop offset="0.2169" stop-color="#C5DEEA"/>
<stop offset="0.4199" stop-color="#C1DBE7"/>
<stop offset="0.6089" stop-color="#B6D2DF"/>
<stop offset="0.7918" stop-color="#A3C2D1"/>
<stop offset="0.9153" stop-color="#92B4C4"/>
</linearGradient>
<linearGradient id="paint16_linear" x1="245.273" y1="142.692" x2="326.231" y2="63.1457" gradientUnits="userSpaceOnUse">
<stop offset="0.2169" stop-color="#C5DEEA"/>
<stop offset="0.4199" stop-color="#C1DBE7"/>
<stop offset="0.6089" stop-color="#B6D2DF"/>
<stop offset="0.7918" stop-color="#A3C2D1"/>
<stop offset="0.9153" stop-color="#92B4C4"/>
</linearGradient>
<linearGradient id="paint17_linear" x1="261.469" y1="159.154" x2="342.43" y2="79.6049" gradientUnits="userSpaceOnUse">
<stop offset="0.2169" stop-color="#C5DEEA"/>
<stop offset="0.4199" stop-color="#C1DBE7"/>
<stop offset="0.6089" stop-color="#B6D2DF"/>
<stop offset="0.7918" stop-color="#A3C2D1"/>
<stop offset="0.9153" stop-color="#92B4C4"/>
</linearGradient>
<linearGradient id="paint18_linear" x1="230.425" y1="127.615" x2="311.436" y2="48.017" gradientUnits="userSpaceOnUse">
<stop offset="0.2169" stop-color="#C5DEEA"/>
<stop offset="0.4199" stop-color="#C1DBE7"/>
<stop offset="0.6089" stop-color="#B6D2DF"/>
<stop offset="0.7918" stop-color="#A3C2D1"/>
<stop offset="0.9153" stop-color="#92B4C4"/>
</linearGradient>
<linearGradient id="paint19_linear" x1="225.103" y1="122.211" x2="306.114" y2="42.6125" gradientUnits="userSpaceOnUse">
<stop offset="0.2169" stop-color="#C5DEEA"/>
<stop offset="0.4199" stop-color="#C1DBE7"/>
<stop offset="0.6089" stop-color="#B6D2DF"/>
<stop offset="0.7918" stop-color="#A3C2D1"/>
<stop offset="0.9153" stop-color="#92B4C4"/>
</linearGradient>
<linearGradient id="paint20_linear" x1="219.781" y1="116.807" x2="300.792" y2="37.2084" gradientUnits="userSpaceOnUse">
<stop offset="0.2169" stop-color="#C5DEEA"/>
<stop offset="0.4199" stop-color="#C1DBE7"/>
<stop offset="0.6089" stop-color="#B6D2DF"/>
<stop offset="0.7918" stop-color="#A3C2D1"/>
<stop offset="0.9153" stop-color="#92B4C4"/>
</linearGradient>
<linearGradient id="paint21_linear" x1="214.458" y1="111.402" x2="295.469" y2="31.8038" gradientUnits="userSpaceOnUse">
<stop offset="0.2169" stop-color="#C5DEEA"/>
<stop offset="0.4199" stop-color="#C1DBE7"/>
<stop offset="0.6089" stop-color="#B6D2DF"/>
<stop offset="0.7918" stop-color="#A3C2D1"/>
<stop offset="0.9153" stop-color="#92B4C4"/>
</linearGradient>
<linearGradient id="paint22_linear" x1="195.875" y1="55.6709" x2="199.436" y2="55.6709" gradientUnits="userSpaceOnUse">
<stop offset="0.1719" stop-color="#455A64"/>
<stop offset="0.4003" stop-color="#495F69"/>
<stop offset="0.6807" stop-color="#536C78"/>
<stop offset="0.9206" stop-color="#607D8B"/>
</linearGradient>
<linearGradient id="paint23_linear" x1="201.217" y1="55.6709" x2="204.779" y2="55.6709" gradientUnits="userSpaceOnUse">
<stop offset="0.1719" stop-color="#455A64"/>
<stop offset="0.4003" stop-color="#495F69"/>
<stop offset="0.6807" stop-color="#536C78"/>
<stop offset="0.9206" stop-color="#607D8B"/>
</linearGradient>
<linearGradient id="paint24_linear" x1="206.56" y1="55.6709" x2="210.121" y2="55.6709" gradientUnits="userSpaceOnUse">
<stop offset="0.1719" stop-color="#455A64"/>
<stop offset="0.4003" stop-color="#495F69"/>
<stop offset="0.6807" stop-color="#536C78"/>
<stop offset="0.9206" stop-color="#607D8B"/>
</linearGradient>
<linearGradient id="paint25_linear" x1="67.5249" y1="179.804" x2="545.424" y2="179.804" gradientUnits="userSpaceOnUse">
<stop offset="0.0793651" stop-color="#455A64"/>
<stop offset="0.3085" stop-color="#4D646F"/>
<stop offset="0.9247" stop-color="#607D8B"/>
</linearGradient>
<linearGradient id="paint26_linear" x1="40.983" y1="121.311" x2="199.709" y2="218.807" gradientUnits="userSpaceOnUse">
<stop offset="0.0793651" stop-color="#455A64"/>
<stop offset="0.3085" stop-color="#4D646F"/>
<stop offset="0.9247" stop-color="#607D8B"/>
</linearGradient>
<linearGradient id="paint27_linear" x1="245.99" y1="148.065" x2="130.825" y2="133.934" gradientUnits="userSpaceOnUse">
<stop stop-color="#E88306"/>
<stop offset="0.9133" stop-color="#F7D209"/>
<stop offset="1" stop-color="#F8DA09"/>
</linearGradient>
<linearGradient id="paint28_linear" x1="244.165" y1="163.096" x2="128.969" y2="148.962" gradientUnits="userSpaceOnUse">
<stop stop-color="#E88306"/>
<stop offset="0.9133" stop-color="#F7D209"/>
<stop offset="1" stop-color="#F8DA09"/>
</linearGradient>
<linearGradient id="paint29_linear" x1="224.343" y1="338.626" x2="457.377" y2="231.289" gradientUnits="userSpaceOnUse">
<stop offset="0.1719" stop-color="#455A64"/>
<stop offset="0.4003" stop-color="#495F69"/>
<stop offset="0.6807" stop-color="#536C78"/>
<stop offset="0.9206" stop-color="#607D8B"/>
</linearGradient>
<linearGradient id="paint30_linear" x1="259.699" y1="290.163" x2="364.143" y2="290.163" gradientUnits="userSpaceOnUse">
<stop offset="0.1719" stop-color="#455A64"/>
<stop offset="0.4003" stop-color="#495F69"/>
<stop offset="0.6807" stop-color="#536C78"/>
<stop offset="0.9206" stop-color="#607D8B"/>
</linearGradient>
<linearGradient id="paint31_linear" x1="385.357" y1="140.402" x2="412.705" y2="140.402" gradientUnits="userSpaceOnUse">
<stop offset="0.2169" stop-color="#C5DEEA"/>
<stop offset="0.4199" stop-color="#C1DBE7"/>
<stop offset="0.6089" stop-color="#B6D2DF"/>
<stop offset="0.7918" stop-color="#A3C2D1"/>
<stop offset="0.9153" stop-color="#92B4C4"/>
</linearGradient>
<linearGradient id="paint32_linear" x1="339.807" y1="79.8773" x2="384.307" y2="79.8773" gradientUnits="userSpaceOnUse">
<stop offset="0.2169" stop-color="#C5DEEA"/>
<stop offset="0.4199" stop-color="#C1DBE7"/>
<stop offset="0.6089" stop-color="#B6D2DF"/>
<stop offset="0.7918" stop-color="#A3C2D1"/>
<stop offset="0.9153" stop-color="#92B4C4"/>
</linearGradient>
<linearGradient id="paint33_linear" x1="321.75" y1="147.39" x2="408.01" y2="147.39" gradientUnits="userSpaceOnUse">
<stop offset="0.2169" stop-color="#C5DEEA"/>
<stop offset="0.4199" stop-color="#C1DBE7"/>
<stop offset="0.6089" stop-color="#B6D2DF"/>
<stop offset="0.7918" stop-color="#A3C2D1"/>
<stop offset="0.9153" stop-color="#92B4C4"/>
</linearGradient>
<linearGradient id="paint34_linear" x1="322.933" y1="149.55" x2="332.76" y2="149.55" gradientUnits="userSpaceOnUse">
<stop offset="0.2169" stop-color="#C5DEEA"/>
<stop offset="0.4199" stop-color="#C1DBE7"/>
<stop offset="0.6089" stop-color="#B6D2DF"/>
<stop offset="0.7918" stop-color="#A3C2D1"/>
<stop offset="0.9153" stop-color="#92B4C4"/>
</linearGradient>
<linearGradient id="paint35_linear" x1="400.423" y1="150.402" x2="286.74" y2="71.3181" gradientUnits="userSpaceOnUse">
<stop offset="0.2169" stop-color="#C5DEEA"/>
<stop offset="0.4199" stop-color="#C1DBE7"/>
<stop offset="0.6089" stop-color="#B6D2DF"/>
<stop offset="0.7918" stop-color="#A3C2D1"/>
<stop offset="0.9153" stop-color="#92B4C4"/>
</linearGradient>
<linearGradient id="paint36_linear" x1="380.376" y1="318.47" x2="332.389" y2="121.583" gradientUnits="userSpaceOnUse">
<stop stop-color="#E88306"/>
<stop offset="0.9133" stop-color="#F7D209"/>
<stop offset="1" stop-color="#F8DA09"/>
</linearGradient>
<linearGradient id="paint37_linear" x1="246.905" y1="140.626" x2="131.736" y2="126.495" gradientUnits="userSpaceOnUse">
<stop stop-color="#E88306"/>
<stop offset="0.9133" stop-color="#F7D209"/>
<stop offset="1" stop-color="#F8DA09"/>
</linearGradient>
<linearGradient id="paint38_linear" x1="246.045" y1="147.635" x2="130.876" y2="133.504" gradientUnits="userSpaceOnUse">
<stop stop-color="#E88306"/>
<stop offset="0.9133" stop-color="#F7D209"/>
<stop offset="1" stop-color="#F8DA09"/>
</linearGradient>
<linearGradient id="paint39_linear" x1="245.193" y1="154.569" x2="130.023" y2="140.438" gradientUnits="userSpaceOnUse">
<stop stop-color="#E88306"/>
<stop offset="0.9133" stop-color="#F7D209"/>
<stop offset="1" stop-color="#F8DA09"/>
</linearGradient>
<clipPath id="clip0">
<rect width="550" height="440" fill="white"/>
</clipPath>
</defs>
</svg>
