<svg width="24" height="24" fill="none" xmlns="http://www.w3.org/2000/svg"><path d="M23.066 21.228v-8.183c0-4.384-2.34-6.424-5.461-6.424-2.519 0-3.647 1.386-4.275 2.358V6.956H8.586c.063 1.34 0 14.272 0 14.272h4.744v-7.97c0-.426.03-.853.156-1.157.343-.852 1.123-1.734 2.433-1.734 1.718 0 2.404 1.308 2.404 3.226v7.636l4.743-.001zM3.588 5.008c1.653 0 2.684-1.097 2.684-2.467C6.24 1.141 5.24.076 3.618.076 1.996.076.936 1.14.936 2.54c0 1.37 1.029 2.467 2.622 2.467h.03zm2.372 16.22V6.956H1.217v14.272H5.96z" fill="#fff"/></svg>