<svg width="35" height="22" fill="none" xmlns="http://www.w3.org/2000/svg"><path d="M35 11c0 5.8-4.8 10.5-10.72 10.5-2.502 0-4.803-.84-6.628-2.245 2.495-1.923 4.096-4.906 4.096-8.255 0-3.35-1.601-6.332-4.096-8.255A10.823 10.823 0 0124.28.5C30.2.5 35 5.2 35 11z" fill="#F79E1B"/><path d="M21.747 11c0 3.35-1.6 6.332-4.095 8.255-2.494-1.922-4.095-4.906-4.095-8.255 0-3.35 1.601-6.332 4.095-8.255 2.494 1.923 4.095 4.906 4.095 8.255z" fill="#FF5F00"/><path d="M13.557 11c0-3.35 1.602-6.332 4.095-8.255A10.82 10.82 0 0011.026.5C5.105.5.305 5.2.305 11s4.8 10.5 10.721 10.5c2.501 0 4.803-.84 6.627-2.245-2.494-1.923-4.096-4.906-4.096-8.255z" fill="#EB001B"/></svg>