<svg width="38" height="12" fill="none" xmlns="http://www.w3.org/2000/svg"><path d="M15.828 0l-1.882 11.976h3.008L18.835 0h-3.007zm9.074 4.878c-1.051-.53-1.696-.889-1.696-1.432.013-.493.545-1 1.733-1a5.136 5.136 0 012.241.444l.273.125.41-2.506a7.445 7.445 0 00-2.7-.493c-2.972 0-5.063 1.579-5.076 3.838C20.062 5.52 21.584 6.446 22.723 7c1.164.569 1.56.938 1.56 1.444-.013.776-.94 1.134-1.807 1.134-1.2 0-1.844-.184-2.823-.617l-.396-.184-.42 2.604c.706.32 2.006.604 3.355.618 3.157 0 5.21-1.555 5.237-3.963.01-1.32-.793-2.332-2.527-3.159zM35.574.038h-2.327c-.717 0-1.262.21-1.573.963l-4.468 10.975h3.157l.87-2.376h3.531l.451 2.386H38L35.574.037zm-3.466 7.164c.06.006 1.212-3.88 1.212-3.88l.916 3.88h-2.128zM11.433 0L8.484 8.137l-.32-1.605C7.618 4.681 5.91 2.669 4.003 1.669l2.699 10.295h3.183L14.616.001h-3.184V0z" fill="#005BAC"/><path d="M7.173 1.545C6.943.632 6.21.016 5.216.003H.548L.5.225c3.641.918 6.697 3.742 7.689 6.399L7.173 1.545z" fill="#FFCA28"/></svg>