<svg width="25" height="25" fill="none" xmlns="http://www.w3.org/2000/svg"><path d="M5.228 11.837A1.02 1.02 0 016.25 10.82l1.694.005a1.017 1.017 0 011.019 1.02v6.419c.19-.057.435-.117.704-.18a.849.849 0 00.654-.828V9.294a1.022 1.022 0 011.018-1.02h1.7a1.018 1.018 0 011.018 1.02v7.39s.425-.173.839-.348a.85.85 0 00.52-.784v-8.81a1.022 1.022 0 011.017-1.02h1.698a1.018 1.018 0 011.017 1.02v7.255c1.472-1.069 2.963-2.354 4.147-3.9a1.714 1.714 0 00.26-1.599 12.015 12.015 0 00-6.61-7.1A11.97 11.97 0 003.271 4.46a12.018 12.018 0 00-2.964 9.245c.176 1.662.696 3.27 1.527 4.72a1.518 1.518 0 001.446.75 41.8 41.8 0 001.197-.123.848.848 0 00.752-.844v-6.37M5.192 22.13a11.98 11.98 0 0017.282-3.437 12.032 12.032 0 001.767-6.281c0-.278-.013-.55-.031-.823-4.382 6.549-12.474 9.61-19.018 10.542z" fill="#fff"/></svg>