<svg width="27" height="27" fill="none" xmlns="http://www.w3.org/2000/svg"><path d="M25.214 13.377a11.987 11.987 0 11-23.973.106 11.987 11.987 0 0123.973-.106z" stroke="#fff" stroke-width="1.65"/><path d="M18.85 9.555c-.803-.232-1.637-.562-2.482-.896-.048-.212-.236-.476-.615-.798-.552-.479-1.588-.467-2.484-.255-.988-.232-1.964-.315-2.902-.086-7.665 2.11-3.319 7.263-6.133 12.44.4.85 4.717 5.806 10.962 4.476 0 0-2.136-5.133 2.684-7.596 3.91-2.005 6.734-5.716.97-7.286z" fill="#fff"/><path d="M19.797 12.926a.464.464 0 11-.928.006.464.464 0 01.928-.006z" fill="#0D0D0D"/><path d="M13.27 7.603c.558.04 2.577.695 3.098 1.053-.434-1.26-1.896-1.427-3.099-1.053z" fill="#fff"/><path d="M13.8 10.788a2.144 2.144 0 11-4.287.002 2.144 2.144 0 014.288-.002z" fill="#0D0D0D"/><path d="M13.165 10.807a1.508 1.508 0 11-3.016 0 1.508 1.508 0 013.016 0zm8.369 3.065c-1.737 1.223-3.712 2.152-6.514 2.152-1.312 0-1.578-1.39-2.445-.71-.447.352-2.024 1.14-3.276 1.08-1.252-.06-3.28-.793-3.846-3.465-.224 2.672-.339 4.64-1.342 6.896 1.998 3.199 6.761 5.666 11.085 4.603-.465-3.244 2.37-6.421 3.967-8.047.608-.616 1.764-1.62 2.37-2.511v.002z" fill="#fff"/><path d="M21.466 13.952c-.54.491-1.181.855-1.835 1.177-.66.314-1.35.565-2.058.75-.709.182-1.448.32-2.197.253-.748-.068-1.514-.322-2.01-.884l.024-.026c.608.394 1.31.533 2.008.553a9.436 9.436 0 002.11-.174 11.455 11.455 0 002.051-.634c.663-.274 1.319-.59 1.883-1.042l.024.027z" fill="#0D0D0D"/></svg>