<?xml version="1.0" encoding="utf-8"?><svg viewBox="0 0 30 27" xmlns="http://www.w3.org/2000/svg" xmlns:xlink="http://www.w3.org/1999/xlink"><style>:root>svg{display:none}:root>svg:target{display:block}</style><svg fill="inherit" viewBox="0 0 26 26" id="M" xmlns="http://www.w3.org/2000/svg"><path d="M22.27 15.427a1.314 1.314 0 01-1.337.089c-.492-.28-.76-.934-.76-1.82v-2.728c0-1.311-.517-2.24-1.386-2.495-1.464-.428-2.559 1.366-2.979 2.04l-2.592 4.197V9.59c-.03-1.18-.411-1.889-1.14-2.1-.48-.14-1.202-.086-1.902.983L4.38 17.777A10.18 10.18 0 013.213 13c0-5.608 4.48-10.17 10.003-10.17 5.524 0 10.017 4.562 10.017 10.17v.06c.055 1.081-.297 1.947-.963 2.367zM25.473 13v-.055C25.426 6.115 19.945.57 13.216.57 6.488.57.973 6.144.973 13s5.49 12.43 12.243 12.43c3.097 0 6.075-1.188 8.324-3.317a1.14 1.14 0 00.06-1.6 1.1 1.1 0 00-1.553-.076l-.005.004c-3.966 3.763-10.232 3.598-13.995-.369a8.937 8.937 0 01-.272-.297l5.214-8.387v3.869c0 1.858.721 2.46 1.324 2.639.602.178 1.531.055 2.498-1.519l2.885-4.667c.09-.148.174-.28.255-.39v2.371c0 1.74.696 3.127 1.922 3.815a3.524 3.524 0 003.589-.145c1.345-.874 2.079-2.456 2.002-4.361h.009z"/></svg><svg fill="inherit" viewBox="0 0 24 24" id="bscscan" xmlns="http://www.w3.org/2000/svg"><path d="M4.987 11.407a1.021 1.021 0 011.022-1.019l1.694.006a1.018 1.018 0 011.019 1.02v6.419c.19-.057.435-.117.703-.18a.849.849 0 00.655-.828V8.864a1.022 1.022 0 011.018-1.02h1.7a1.018 1.018 0 011.018 1.02v7.389s.425-.172.839-.348a.85.85 0 00.519-.783v-8.81a1.022 1.022 0 011.018-1.02h1.698a1.017 1.017 0 011.017 1.02v7.255c1.472-1.069 2.963-2.354 4.147-3.9a1.715 1.715 0 00.26-1.599 12.017 12.017 0 00-6.61-7.1A11.97 11.97 0 003.03 4.03a12.018 12.018 0 00-2.964 9.245c.176 1.662.696 3.27 1.527 4.72a1.517 1.517 0 001.446.75c.322-.028.721-.068 1.197-.124a.848.848 0 00.752-.843v-6.37" fill="#fff"/><path d="M4.951 21.7a11.979 11.979 0 0017.282-3.438A12.033 12.033 0 0024 11.982c0-.278-.013-.55-.031-.823-4.382 6.548-12.474 9.61-19.018 10.542z"/></svg><svg class="ccoingecko-icon" fill="none" viewBox="0 0 26 27" id="coingecko" xmlns="http://www.w3.org/2000/svg"><path d="M24.973 13.503A11.986 11.986 0 111 13.61a11.986 11.986 0 0123.972-.106z" stroke="inherit" fill="transparent" stroke-width="1.65"/><path d="M18.61 9.681c-.805-.232-1.639-.563-2.483-.896-.048-.212-.236-.476-.616-.798-.551-.479-1.587-.467-2.483-.255-.988-.233-1.965-.315-2.902-.087-7.665 2.112-3.319 7.264-6.133 12.442.4.85 4.717 5.806 10.962 4.476 0 0-2.136-5.133 2.684-7.596 3.91-2.006 6.734-5.716.97-7.286z" fill="inherit"/><path d="M19.556 13.052a.465.465 0 11-.93.006.465.465 0 01.93-.006z" stroke="#08283E"/><path d="M13.028 7.729c.558.04 2.578.695 3.099 1.053-.434-1.26-1.896-1.428-3.1-1.053z"/><path d="M13.56 10.914a2.143 2.143 0 11-4.286.002 2.143 2.143 0 014.286-.002z" fill="#F95093" stroke="#08283E"/><path d="M12.924 10.933a1.508 1.508 0 11-3.016 0 1.508 1.508 0 013.016 0zM21.293 13.998c-1.738 1.223-3.713 2.152-6.515 2.152-1.311 0-1.577-1.39-2.444-.71-.447.352-2.025 1.14-3.276 1.08-1.252-.06-3.281-.793-3.846-3.465-.225 2.672-.34 4.64-1.342 6.896 1.997 3.199 6.76 5.666 11.084 4.603-.464-3.244 2.37-6.421 3.968-8.047.608-.616 1.763-1.621 2.37-2.511v.002z" fill="inherit" stroke="inherit"/><path d="M21.225 14.077c-.54.492-1.181.856-1.834 1.177-.662.314-1.35.565-2.059.75-.709.183-1.448.321-2.197.253-.748-.067-1.514-.322-2.01-.883l.024-.027c.608.395 1.31.534 2.008.553a9.43 9.43 0 002.11-.173 11.49 11.49 0 002.052-.634c.662-.274 1.318-.59 1.883-1.043l.023.027z" stroke="#08283E"/></svg><svg fill="inherit" viewBox="0 0 30 20" id="magenta" xmlns="http://www.w3.org/2000/svg"><path d="M26.679.576c-.038.063-.138.362-.225.674-.075.313-.25.937-.387 1.399l-.238.824-1.036.35c-.562.174-1.074.362-1.136.399-.063.037.362.237.961.462.6.212 1.137.437 1.199.5.063.074.237.549.387 1.06.512 1.736.462 1.736.974.2l.462-1.373 1.186-.387L30 4.297l-1.211-.425c-1.162-.4-1.224-.437-1.336-.861-.075-.25-.262-.924-.412-1.498-.163-.587-.325-1-.362-.937zM5.927 2.7c-.512.499-.125.71 2.535 1.41 2.56.687 2.76.687 2.76.062 0-.25-.113-.324-.837-.536-.937-.275-4.133-1.137-4.22-1.137-.026 0-.138.088-.238.2zM18.962 3.149c-1.273.337-2.384.686-2.46.749-.212.175-.2.537.013.711.15.125.687.013 2.597-.487 1.324-.362 2.485-.711 2.572-.774a.448.448 0 00-.087-.724c-.137-.062-.262-.125-.287-.112-.025 0-1.074.287-2.348.637zM7.476 6.095L7.1 6.47v2.622c0 2.434.013 2.634.25 2.934.324.412.874.537 1.348.287.6-.312.675-.65.625-3.421-.038-2.347-.05-2.535-.3-2.772-.137-.137-.462-.287-.712-.337-.387-.062-.5-.013-.836.312zM19.087 6.082c-.1.038-.312.188-.461.325-.288.25-.288.312-.288 2.984 0 2.547.013 2.735.25 2.972.575.574 1.424.45 1.773-.25.187-.374.225-.799.225-2.722 0-2.597-.1-3.021-.774-3.259-.425-.15-.45-.15-.725-.05zM1.47 9.091C.17 9.766-.34 11.24.234 12.588c1.098 2.56 4.994 1.972 5.219-.775.1-1.26-.462-2.272-1.524-2.771-.874-.412-1.61-.388-2.46.05zM24.032 8.868c-2.298.699-2.597 3.97-.437 5.044 1.923.95 3.983-.312 3.983-2.447 0-1.836-1.76-3.122-3.546-2.597zM7.064 15.96c-.4.436-.263.898.424 1.547 1.249 1.162 2.897 1.923 4.87 2.235.974.15 3.758.088 4.42-.112.462-.125.761-.662.562-1.024-.213-.387-.512-.487-1.124-.374-.887.174-3.346.137-4.308-.063-1.186-.25-2.484-.911-3.42-1.748-.825-.737-1.1-.824-1.424-.462z"/></svg><svg fill="inherit" viewBox="0 0 24 24" id="telegram" xmlns="http://www.w3.org/2000/svg"><path d="M21.684 2.972a1.51 1.51 0 00-1.528-.253L2.85 9.516a1.481 1.481 0 00-.947 1.528 1.5 1.5 0 001.2 1.34l4.397.873v5.493a1.5 1.5 0 002.56 1.06l2.437-2.428 3.684 3.243a1.5 1.5 0 002.1-.11 1.49 1.49 0 00.356-.677l3.525-15.394a1.5 1.5 0 00-.478-1.472zM8.072 11.841l-4.669-.928 13.088-5.147-8.42 6.075zM9 18.75v-4.445l2.362 2.082L9 18.75zm8.175.75L9.45 12.702 20.578 4.67 17.175 19.5z"/></svg><svg fill="inherit" viewBox="0 0 24 24" id="twitter" xmlns="http://www.w3.org/2000/svg"><path fill-rule="evenodd" clip-rule="evenodd" d="M11.573 7.513a5.003 5.003 0 015.003-5.003c1.623 0 2.917.767 3.784 1.88a8.394 8.394 0 002.602-1.006 4.215 4.215 0 01-1.837 2.32l.003.005a8.416 8.416 0 002.4-.661l-.001.003a8.506 8.506 0 01-1.997 2.1c.041.284.064.567.064.849 0 5.9-4.495 12.76-12.76 12.76a12.689 12.689 0 01-6.874-2.016.801.801 0 01-.173-1.197.72.72 0 01.701-.344c1.466.173 2.928-.006 4.22-.57a4.938 4.938 0 01-2.705-3.001.72.72 0 01.165-.717A4.913 4.913 0 012.496 9.22v-.054a.72.72 0 01.584-.708 4.909 4.909 0 01-.55-2.265c0-.749.005-1.693.531-2.544a.72.72 0 01.517-.333.8.8 0 01.86.258 11.142 11.142 0 007.137 4.01v-.07h-.002zM8.833 19.16c-1.223 0-2.44-.2-3.598-.597a8.51 8.51 0 003.824-1.667.72.72 0 00-.432-1.287 3.479 3.479 0 01-2.742-1.42c.304-.024.602-.077.89-.154a.72.72 0 00-.045-1.402 3.489 3.489 0 01-2.63-2.358c.32.077.654.123.996.134a.72.72 0 00.424-1.318 3.483 3.483 0 01-1.552-2.9c0-.268.005-.506.021-.724A12.72 12.72 0 0012.44 9.27a.8.8 0 00.821-.976 3.404 3.404 0 013.314-4.183c1.974 0 3.417 1.829 3.417 3.891 0 5.21-3.961 11.159-11.16 11.159h.002z"/></svg></svg>