<svg width="23" height="19" fill="none" xmlns="http://www.w3.org/2000/svg"><path fill-rule="evenodd" clip-rule="evenodd" d="M10.286 5.309A5.003 5.003 0 0115.289.306c1.623 0 2.917.766 3.784 1.88a8.394 8.394 0 002.602-1.007 4.215 4.215 0 01-1.837 2.32l.003.005a8.416 8.416 0 002.4-.66l-.002.002a8.506 8.506 0 01-1.996 2.101c.041.283.064.567.064.848 0 5.9-4.495 12.76-12.76 12.76A12.689 12.689 0 01.673 16.54.8.8 0 01.5 15.342a.72.72 0 01.701-.344c1.466.173 2.928-.006 4.22-.57a4.938 4.938 0 01-2.705-3 .72.72 0 01.165-.718A4.912 4.912 0 011.21 7.014V6.96a.72.72 0 01.584-.707 4.909 4.909 0 01-.55-2.266c0-.749.004-1.693.53-2.544a.72.72 0 01.518-.333.8.8 0 01.86.258 11.142 11.142 0 007.136 4.011v-.07h-.001zm-2.74 11.646c-1.224.001-2.44-.2-3.598-.596a8.51 8.51 0 003.824-1.668.72.72 0 00-.432-1.286 3.479 3.479 0 01-2.742-1.42 5.16 5.16 0 00.89-.154.72.72 0 00-.045-1.402 3.489 3.489 0 01-2.63-2.359c.32.077.654.124.996.135a.72.72 0 00.424-1.319 3.483 3.483 0 01-1.552-2.899c0-.269.005-.507.02-.725a12.72 12.72 0 008.452 3.802.8.8 0 00.82-.976 3.404 3.404 0 013.314-4.182c1.975 0 3.418 1.828 3.418 3.89 0 5.21-3.961 11.16-11.16 11.16h.002z" fill="#fff"/></svg>