<svg width="25" height="25" fill="none" xmlns="http://www.w3.org/2000/svg"><path d="M21.511 14.857a1.315 1.315 0 01-1.336.09c-.492-.28-.76-.934-.76-1.82v-2.729c0-1.31-.517-2.24-1.387-2.494-1.464-.429-2.558 1.366-2.978 2.04l-2.592 4.196V9.02c-.03-1.18-.412-1.888-1.142-2.1-.479-.14-1.2-.085-1.9.984L3.62 17.207a10.18 10.18 0 01-1.167-4.777c0-5.608 4.48-10.169 10.004-10.169 5.523 0 10.016 4.56 10.016 10.17v.059c.055 1.082-.297 1.947-.963 2.367zm3.203-2.427v-.055C24.667 5.545 19.186 0 12.458 0 5.729 0 .214 5.575.214 12.43c0 6.856 5.49 12.43 12.244 12.43a12.1 12.1 0 008.323-3.317 1.14 1.14 0 00.06-1.6 1.1 1.1 0 00-1.553-.076l-.004.005c-3.967 3.762-10.233 3.597-13.996-.37a9.05 9.05 0 01-.272-.296l5.214-8.388v3.87c0 1.857.722 2.46 1.324 2.638.602.178 1.531.055 2.499-1.519l2.885-4.666c.089-.149.174-.28.254-.39v2.37c0 1.74.696 3.127 1.922 3.815a3.524 3.524 0 003.59-.145c1.344-.873 2.078-2.456 2.002-4.36h.008z" fill="#fff"/></svg>