<svg width="30" height="38" viewBox="0 0 30 38" fill="none" xmlns="http://www.w3.org/2000/svg">
<path fill-rule="evenodd" clip-rule="evenodd" d="M16.482 3.91067C16.5134 6.39274 18.5835 7.83411 20.3932 7.73958C22.3756 7.80072 24.2666 6.08862 24.2365 3.84606C24.2075 1.69455 22.4728 -0.0230375 20.3281 0.000233703C18.2314 0.0230713 16.454 1.67663 16.482 3.91067ZM15.3709 9.87049C15.7995 9.11179 16.5358 8.57771 17.3666 8.40585C17.9879 8.27735 18.6075 8.28689 19.2133 8.49893C19.286 8.52435 19.3587 8.54955 19.4315 8.57476C19.7299 8.67809 20.0284 8.78145 20.3205 8.90033C22.02 9.59239 22.8591 11.3619 22.2773 13.1085C21.9585 14.0658 21.611 15.0135 21.2636 15.9611L21.2635 15.9614L21.2632 15.9622L21.2629 15.963C21.1176 16.3594 20.9723 16.7557 20.8291 17.1528C20.6507 17.6473 20.4717 18.1416 20.2926 18.636L20.292 18.6376L20.2914 18.6393C20.1012 19.1644 19.9109 19.6896 19.7215 20.2151C19.6963 20.2852 19.6762 20.3572 19.6538 20.4375L19.6538 20.4376L19.6538 20.4376L19.6536 20.4384L19.6535 20.4385C19.6423 20.4786 19.6306 20.5208 19.6173 20.5659C19.67 20.6026 19.7205 20.6392 19.7701 20.6749L19.7701 20.675L19.7701 20.675L19.7702 20.675C19.8735 20.7497 19.9724 20.8211 20.0762 20.8843C20.8359 21.3464 21.5962 21.8078 22.3564 22.2691C23.3148 22.8507 24.2732 23.4323 25.2306 24.0155L25.2419 24.0224C25.4744 24.164 25.7103 24.3076 25.9153 24.4845C26.6024 25.0776 26.9317 25.8454 26.9406 26.7472C26.947 27.377 26.9457 28.007 26.9444 28.6369C26.9438 28.9085 26.9432 29.18 26.9432 29.4516C26.9433 29.8568 26.9436 30.262 26.9438 30.6673V30.6683C26.9447 31.9269 26.9455 33.1856 26.9392 34.4442C26.9378 34.7422 26.9159 35.0472 26.849 35.3364C26.6423 36.2299 25.7271 37.1069 24.4379 36.9951C23.3744 36.9027 22.4971 36.0467 22.3994 34.9718C22.3815 34.7736 22.3818 34.5736 22.3821 34.374V34.374L22.3822 34.279C22.3819 33.7846 22.3807 33.2902 22.3796 32.7958V32.7954C22.376 31.302 22.3725 29.8087 22.3923 28.3156C22.399 27.8129 22.229 27.5201 21.8005 27.2648C20.582 26.5389 19.3698 25.8027 18.1576 25.0666L18.1572 25.0664L18.1562 25.0657L18.1559 25.0656C17.1765 24.4708 16.197 23.876 15.2143 23.2866C14.9345 23.1188 14.6274 22.9947 14.3215 22.8712L14.3215 22.8712C14.2417 22.839 14.1621 22.8068 14.0831 22.7739C12.8763 22.2715 12.1579 21.3834 11.9282 20.0945C11.8365 19.5791 11.8884 19.0729 12.055 18.5901C12.2769 17.9477 12.5093 17.3089 12.7418 16.6701C12.9359 16.1368 13.13 15.6036 13.3179 15.0682C13.4066 14.8153 13.5786 14.7116 13.8071 14.6313C14.9142 14.2422 16.0198 13.8486 17.1253 13.455L17.1254 13.455L17.1263 13.4546L17.6596 13.2648C17.7083 13.2475 17.7573 13.2308 17.8063 13.2141L17.8064 13.2141C17.9545 13.1636 18.1028 13.1131 18.2428 13.0458C19.1484 12.6104 19.5871 11.5907 19.2785 10.6593C18.964 9.71005 18.0348 9.14923 17.0421 9.34436C16.8011 9.3917 16.5674 9.47647 16.3337 9.56128L16.3336 9.5613C16.2191 9.60285 16.1046 9.64441 15.9891 9.68157C15.8603 9.72313 15.7306 9.76212 15.5846 9.806L15.5838 9.80625L15.5824 9.80667C15.5158 9.82669 15.4458 9.84772 15.3709 9.87049ZM15.9707 24.2087C15.9196 24.2847 15.8744 24.3526 15.8329 24.4151C15.7514 24.5377 15.684 24.6391 15.6136 24.7384C15.2006 25.3203 14.7867 25.9015 14.3728 26.4826L14.3726 26.483L14.3723 26.4834L14.372 26.4837L14.372 26.4838L14.3719 26.4839L14.3719 26.4839C13.406 27.8403 12.4401 29.1966 11.486 30.5611C11.0469 31.1895 10.4981 31.6377 9.79272 31.933C8.03587 32.6687 6.28443 33.4171 4.53295 34.1654L4.53282 34.1655L4.53269 34.1655L4.53256 34.1656L3.41828 34.6415C3.0763 34.7877 2.73345 34.9114 2.35431 34.9195C1.40395 34.9396 0.558091 34.4328 0.200205 33.5731C-0.171557 32.6803 -0.0205104 31.8545 0.611137 31.1221C0.888802 30.8001 1.24842 30.6004 1.63767 30.4362C2.99626 29.8631 4.35262 29.2849 5.70899 28.7067L5.70906 28.7066L5.70912 28.7066L5.71067 28.7059L5.71566 28.7038C6.1834 28.5044 6.65115 28.305 7.11899 28.1058C7.14758 28.0936 7.17584 28.0805 7.20409 28.0673C7.25983 28.0414 7.31554 28.0155 7.37367 27.9973C7.78822 27.8672 8.08193 27.608 8.32519 27.243C8.75829 26.593 9.20832 25.9542 9.65835 25.3153C9.83356 25.0666 10.0088 24.8178 10.183 24.5684L10.4958 24.1204L10.4961 24.12L10.4964 24.1196L10.4967 24.1192C10.9475 23.4736 11.3983 22.828 11.8509 22.1835C11.9115 22.0972 11.9777 22.0147 12.0505 21.9241L12.0506 21.924C12.0866 21.8791 12.1243 21.8323 12.1636 21.782C12.1939 21.8087 12.2222 21.832 12.2486 21.8536C12.3003 21.8961 12.3442 21.9323 12.3796 21.9755C12.8624 22.5646 13.4771 22.9579 14.1932 23.1985C14.8336 23.4137 15.38 23.7856 15.9707 24.2087ZM19.0022 11.3239C18.988 11.9172 18.6978 12.4094 18.1063 12.7055C17.937 12.7904 17.7563 12.8533 17.5762 12.9161L17.5762 12.9161C17.5381 12.9294 17.5001 12.9426 17.4622 12.956C17.114 13.0796 16.7661 13.2038 16.4181 13.3281L16.4176 13.3283C15.3756 13.7004 14.3336 14.0725 13.285 14.4247C12.8401 14.5742 12.5362 14.8151 12.3081 15.2265C11.8035 16.1361 11.2816 17.0362 10.7598 17.9362C10.5872 18.2339 10.4146 18.5316 10.2426 18.8296C10.2258 18.8588 10.2091 18.8881 10.1923 18.9175C10.106 19.0689 10.0192 19.221 9.91265 19.3571C9.51906 19.8598 8.88828 20.0328 8.29797 19.7908C8.06541 19.6954 7.83848 19.57 7.63583 19.4214C7.09972 19.0288 6.92092 18.3779 7.16621 17.7556C7.22128 17.6159 7.298 17.4843 7.37432 17.3534L7.37438 17.3533C7.39118 17.3245 7.40797 17.2957 7.42451 17.2669C7.67554 16.8296 7.928 16.3932 8.18046 15.9567L8.18052 15.9566C8.75994 14.955 9.33936 13.9533 9.90152 12.942C10.212 12.3838 10.6319 12.0366 11.2364 11.8234C12.4857 11.3826 13.7272 10.9196 14.9688 10.4566L14.9693 10.4564C15.4782 10.2667 15.987 10.0769 16.4964 9.88872C16.5389 9.87304 16.5812 9.85679 16.6236 9.84054L16.6236 9.84052C16.7539 9.79056 16.8844 9.74051 17.0188 9.70659C18.0336 9.4509 18.9999 10.2099 19.0022 11.3239ZM22.9572 13.1093C22.858 13.1406 22.7554 13.1731 22.6478 13.208C22.5928 13.3589 22.5356 13.5127 22.4776 13.669C22.342 14.0342 22.2017 14.4122 22.0717 14.7938C22.0138 14.9639 21.9478 15.1316 21.8819 15.2994C21.731 15.6832 21.5799 16.0675 21.5242 16.4812C22.0312 16.8227 22.5143 16.7253 23.0075 16.5438C24.0845 16.1474 25.1624 15.7535 26.2403 15.3595C26.9193 15.1114 27.5983 14.8633 28.277 14.6146L28.2781 14.6142C28.4294 14.5588 28.5823 14.5028 28.7238 14.4271C29.3883 14.0715 29.7094 13.327 29.5178 12.6053C29.3209 11.8642 28.7054 11.39 27.9313 11.426C27.6606 11.4387 27.3846 11.5143 27.1273 11.6062C26.3871 11.8708 25.6493 12.1423 24.9116 12.4137C24.4573 12.5808 24.003 12.7479 23.5482 12.9135C23.3583 12.9826 23.1655 13.0435 22.9572 13.1093Z" fill="#494949"/>
</svg>
