<svg width="18" height="41" viewBox="0 0 18 41" fill="none" xmlns="http://www.w3.org/2000/svg">
<path fill-rule="evenodd" clip-rule="evenodd" d="M10.907 8.01717C8.7413 8.02397 7.01821 6.32329 7.00737 4.16831C6.99639 2.01305 8.71369 0.270018 10.8562 0.261779C13.0047 0.253396 14.7541 1.97937 14.7638 4.11729C14.7737 6.26923 13.0517 8.01038 10.907 8.01717ZM11.9109 22.3703L11.9106 22.3699L11.9103 22.3695C11.8661 22.3129 11.8219 22.2563 11.7774 22.1999C11.8103 22.0632 11.8434 21.9355 11.8751 21.8133C11.939 21.5669 11.9969 21.3434 12.0346 21.1167C12.4516 18.6094 12.8618 16.1011 13.2677 13.5921L13.2863 13.478L13.2863 13.478C13.3472 13.1056 13.4087 12.7298 13.411 12.3554C13.4186 11.155 12.8908 10.2181 11.9059 9.54667C11.0887 8.98975 9.25878 8.68347 8.29238 8.91603C6.77252 9.28201 5.81898 10.4492 5.68701 12.1546C5.72487 12.1245 5.76091 12.0981 5.79472 12.0733L5.79473 12.0733C5.86237 12.0238 5.92112 11.9807 5.96786 11.9271C6.10813 11.7666 6.24413 11.6023 6.38014 11.438L6.38021 11.4379C6.46534 11.335 6.55047 11.2322 6.63665 11.1303C6.7188 11.0331 6.79939 10.9343 6.87998 10.8354L6.87999 10.8354C7.07748 10.5932 7.27505 10.3509 7.49595 10.1324C8.23991 9.39649 9.34508 9.36787 10.1408 10.0306C10.8276 10.6027 11.1305 11.7249 10.4819 12.6591C10.3864 12.7965 10.2781 12.9252 10.1699 13.0536C10.1439 13.0844 10.118 13.1152 10.0922 13.1461C9.90537 13.3703 9.71867 13.5947 9.53197 13.819L9.53123 13.8199L9.53049 13.8208C8.85992 14.6266 8.1894 15.4324 7.51243 16.2329C7.28449 16.5025 7.12043 16.7936 7.00509 17.1279C6.62695 18.2253 6.24262 19.3206 5.85829 20.4159L5.85808 20.4165C5.66115 20.9777 5.46423 21.5389 5.26813 22.1004C5.22733 22.2169 5.19282 22.3356 5.15681 22.4595C5.13962 22.5187 5.12208 22.579 5.10335 22.6409C5.54796 23.2235 6.12888 23.5826 6.81487 23.7628C7.09817 23.8372 7.31166 23.9585 7.49566 24.1879C8.04729 24.8756 8.60405 25.5591 9.16081 26.2427C9.50928 26.6705 9.85775 27.0983 10.205 27.5271C10.2485 27.5809 10.2793 27.6452 10.3155 27.721C10.3343 27.7601 10.3545 27.8023 10.3787 27.8478C10.3189 27.8621 10.2645 27.8767 10.2136 27.8903L10.2136 27.8903C10.1125 27.9175 10.0253 27.9409 9.93669 27.9503C9.55155 27.9909 9.16593 28.0274 8.78034 28.0639C8.56769 28.084 8.35504 28.1041 8.14249 28.1249C7.85633 28.1529 7.57004 28.1798 7.28375 28.2068C6.58048 28.2728 5.87721 28.3389 5.17591 28.4215C4.02059 28.5577 3.17545 29.4803 3.13787 30.6079C3.10072 31.7203 3.84107 32.6856 4.94696 32.9145C5.25714 32.9786 5.59118 32.9645 5.91062 32.9393C6.33315 32.9062 6.7546 32.86 7.17606 32.8138L7.17617 32.8138L7.17628 32.8138L7.17639 32.8138L7.1765 32.8138C7.4442 32.7845 7.7119 32.7551 7.97988 32.7292C8.79181 32.6504 9.60386 32.5731 10.4159 32.4958L10.4219 32.4953L10.4222 32.4952L10.4224 32.4952L10.4226 32.4952L10.4228 32.4952C11.5871 32.3843 12.7514 32.2735 13.9153 32.1585C15.0454 32.0469 15.8671 31.4649 16.3338 30.4374C16.8124 29.3837 16.6907 28.3662 16.0134 27.4227C15.9328 27.3105 15.8445 27.2038 15.7562 27.0971L15.7562 27.0971L15.7562 27.097L15.7561 27.097L15.7561 27.097C15.7264 27.0611 15.6967 27.0252 15.6673 26.9891L14.449 25.4947C13.701 24.5773 12.953 23.6599 12.2054 22.742C12.1057 22.6196 12.0084 22.495 11.9111 22.3705L11.9111 22.3705L11.9109 22.3703ZM10.0412 12.6459C10.3177 12.3158 10.4844 11.9458 10.4771 11.388C10.4315 10.8585 10.1482 10.352 9.54295 10.0817C8.91738 9.80221 8.32143 9.89269 7.79776 10.34C7.67124 10.4481 7.5637 10.5794 7.45683 10.7099C7.43146 10.7408 7.40614 10.7717 7.38061 10.8023C7.10445 11.1327 6.83006 11.4646 6.55568 11.7965L6.55565 11.7966L6.5555 11.7968L6.55547 11.7968L6.55543 11.7968C5.97585 12.4979 5.3963 13.199 4.8001 13.8857C4.26038 14.507 3.86882 15.187 3.60792 15.9705C3.19428 17.2128 2.7576 18.4474 2.32092 19.682L2.32091 19.682L2.3209 19.682L2.3209 19.682L2.32089 19.6821C2.14157 20.189 1.96225 20.696 1.78453 21.2035C1.66976 21.5313 1.56627 21.8589 1.58867 22.2159C1.63305 22.927 2.10483 23.5262 2.75773 23.6818C3.50573 23.8602 4.23364 23.5481 4.58343 22.8844C4.66416 22.7312 4.72155 22.5649 4.77861 22.3996C4.78949 22.3681 4.80036 22.3366 4.81138 22.3052C4.94624 21.9211 5.08143 21.537 5.21662 21.1529L5.21673 21.1526L5.21685 21.1523L5.21697 21.1519L5.21762 21.1501L5.21765 21.15L5.21767 21.1499L5.2177 21.1499L5.21772 21.1498C5.68014 19.8361 6.14257 18.5224 6.59213 17.2042C6.75893 16.7154 6.98052 16.277 7.32771 15.889C7.65651 15.5215 7.97007 15.1404 8.28363 14.7592L8.28367 14.7591L8.28374 14.7591L8.28382 14.759L8.28389 14.7589L8.28397 14.7588C8.41084 14.6046 8.53771 14.4503 8.66558 14.297C8.8407 14.087 9.01552 13.8768 9.19035 13.6666L9.19084 13.666L9.19103 13.6657L9.19121 13.6655L9.19139 13.6653L9.19158 13.6651C9.47435 13.325 9.75714 12.9849 10.0412 12.6459ZM3.48552 32.5199L3.48483 32.5193C3.44871 32.49 3.4091 32.4579 3.36447 32.4213C3.3297 32.4721 3.29999 32.514 3.27409 32.5505L3.27391 32.5508C3.22766 32.6159 3.19361 32.6639 3.16471 32.7148C2.28431 34.2612 1.40477 35.8081 0.527547 37.3564C0.448193 37.4965 0.37679 37.6431 0.318973 37.7932C-0.0720127 38.8089 0.303073 39.9478 1.216 40.5307C2.13254 41.1161 3.31908 40.9817 4.07287 40.1935C4.23071 40.0284 4.36745 39.8358 4.4812 39.637C5.64115 37.6117 6.79503 35.5828 7.9476 33.553C7.99009 33.478 8.02082 33.3964 8.0576 33.2988L8.05761 33.2988L8.05763 33.2987L8.05774 33.2984C8.07697 33.2474 8.09785 33.1919 8.12293 33.1308C8.05674 33.1308 7.9976 33.1296 7.94317 33.1285C7.83762 33.1265 7.74983 33.1248 7.66285 33.1325C7.15993 33.1768 6.65737 33.2246 6.15481 33.2723L5.7299 33.3126C4.95559 33.3857 4.26468 33.1909 3.67263 32.675C3.61607 32.6257 3.55777 32.5784 3.48552 32.5199ZM14.2075 17.3003L14.2078 17.3004C15.0139 17.638 15.7818 17.9596 16.5398 18.3032C17.2522 18.6261 17.6178 19.3634 17.4843 20.0549C17.2843 21.0923 16.2896 21.6355 15.2597 21.2358C14.6411 20.9959 14.0322 20.731 13.4233 20.4661C13.2084 20.3726 12.9935 20.2791 12.7782 20.1867C12.7391 20.1699 12.7065 20.1382 12.6682 20.1011L12.6682 20.1011C12.6486 20.0821 12.6275 20.0616 12.6033 20.041C12.7515 19.0041 12.9201 17.9657 13.1276 16.8458C13.4964 17.0024 13.8556 17.1529 14.2075 17.3003ZM4.61301 28.1126L9.1561 27.6548C9.42726 27.2954 9.35225 27.0272 9.11361 26.7428C8.53247 26.0505 7.96543 25.3462 7.39851 24.642C7.35813 24.5919 7.31774 24.5417 7.27735 24.4915C7.12789 24.306 6.95646 24.1829 6.72346 24.1071C6.49886 24.034 6.28243 23.9357 6.06598 23.8375C5.96832 23.7932 5.87065 23.7488 5.77223 23.7068C5.69138 23.6723 5.60998 23.6393 5.52699 23.6057C5.48951 23.5905 5.4517 23.5752 5.41348 23.5595C5.17137 24.4449 4.63671 27.4755 4.61301 28.1126Z" fill="#494949"/>
</svg>
