<svg width="551" height="440" viewBox="0 0 551 440" fill="none" xmlns="http://www.w3.org/2000/svg">
<path d="M540.308 71.1998C530.808 49.9998 511.708 31.7998 488.108 27.4998C459.608 22.2998 431.608 37.6998 408.908 54.8998C386.108 71.9998 364.108 92.1998 336.008 99.0998C285.808 111.4 235.808 77.6998 184.008 75.0998C150.208 73.3998 115.908 85.9998 91.9076 108.8C2.30758 193.9 41.6076 362.5 138.308 405.8C216.308 440.8 328.308 458 399.908 412.4C468.208 368.9 536.508 235.8 547.508 157.6C548.408 151.5 549.008 145.3 549.508 139.2C551.008 116.2 549.808 92.3998 540.308 71.1998Z" fill="#DAD6FC"/>
<path d="M132.408 232.1C129.008 239.5 126.108 249.6 124.408 259.6L116.408 222.5C126.608 225.9 147.308 201 154.908 184.3C162.608 167.4 157.708 148.5 150.708 145.5C146.008 143.5 126.408 151 118.708 167.9C115.208 175.7 112.208 186.9 110.908 197.2L102.708 159.5C102.808 159.4 102.908 159.3 103.108 159.2C110.208 160.7 123.908 144.1 128.908 133.1C134.108 121.6 130.808 108.7 126.008 106.6C122.808 105.2 109.408 110.4 104.208 121.9C101.808 127.2 99.7076 134.9 98.9076 141.9L93.5076 116.8C93.7076 116.8 93.9076 116.8 94.1076 116.7C99.3076 115.2 99.2076 98.9998 96.7076 90.2998C94.3076 81.5998 86.5076 76.0998 83.0076 77.1998C80.6076 77.8998 75.7076 86.8998 78.1076 95.5998C80.4076 103.6 87.7076 116 92.8076 116.8C94.0076 124 95.6076 133.4 97.5076 144.5C92.3076 138.9 85.1076 133.4 79.3076 130.4C68.1076 124.6 55.0076 127.3 52.7076 131.9C51.2076 135.1 55.6076 148.6 66.8076 154.4C76.0076 159.2 92.6076 163.1 100.208 160.8C102.808 176 105.708 193 108.608 210.3C102.108 199.8 86.6076 186.9 75.1076 180.9C58.6076 172.4 39.4076 176.3 36.1076 183.1C33.9076 187.7 40.4076 207.6 56.8076 216.1C73.0076 224.4 104.608 231.2 110.608 222.2C114.008 241.9 117.308 261.6 120.408 279.3C112.708 267.5 95.7076 253.4 82.9076 246.8C64.2076 237.1 42.4076 241.6 38.7076 249.3C36.2076 254.6 43.5076 277.1 62.2076 286.8C80.3076 296.1 115.508 303.7 123.008 294.2C128.008 323.2 131.708 343.7 131.908 343.9L141.708 339.9L131.808 294.3C143.908 294.5 165.308 268.4 173.308 250.6C182.008 231.4 176.408 209.9 168.508 206.6C163.308 204.4 141.108 212.9 132.408 232.1Z" fill="#7E57C2"/>
<path d="M479.508 159C472.908 163.8 465.308 171.1 458.908 178.9L470.408 142.7C477.508 150.8 508.008 139.4 522.808 128.8C537.808 118 543.008 99.0999 538.408 92.9999C535.308 88.8999 514.608 85.6999 499.508 96.4999C492.508 101.5 484.408 109.8 478.208 118.1L490.008 81.2999C490.208 81.2999 490.308 81.1999 490.508 81.1999C495.908 86.0999 516.008 78.4999 525.908 71.3999C536.208 63.9999 539.708 51.0999 536.608 46.9999C534.508 44.1999 520.408 41.9999 510.108 49.3999C505.308 52.7999 499.808 58.4999 495.508 64.1999L503.308 39.6999C503.508 39.7999 503.708 39.8999 503.908 39.9999C509.108 41.2999 517.108 27.0999 519.308 18.3999C521.508 9.5999 517.508 0.899897 513.908 0.099897C511.508 -0.400103 502.708 4.8999 500.508 13.6999C498.508 21.7999 498.708 36.0999 502.708 39.3999C500.208 46.1999 496.908 55.1999 493.008 65.6999C491.308 58.2999 487.808 49.8999 484.208 44.3999C477.308 33.7999 464.708 29.5999 460.408 32.4999C457.508 34.4999 454.608 48.4999 461.408 59.0999C467.008 67.7999 479.408 79.4999 487.208 81.1999C481.908 95.6999 476.008 111.8 469.908 128.3C469.508 115.9 462.508 96.9999 455.508 86.0999C445.408 70.4999 426.908 64.3999 420.608 68.6999C416.408 71.5999 412.108 92.0999 422.108 107.7C432.008 123 456.108 144.5 465.708 139.8C458.808 158.6 451.908 177.3 445.808 194.2C445.008 180.2 437.308 159.4 429.508 147.3C418.108 129.6 397.008 122.6 389.908 127.5C385.108 130.8 380.208 154.1 391.708 171.7C402.708 188.8 429.508 212.8 440.708 208.3C430.608 236 423.608 255.6 423.708 255.8L434.208 257.2L448.308 212.7C458.708 218.9 490.208 206.9 506.008 195.5C523.108 183.2 529.008 161.8 523.708 154.9C520.108 150.4 496.608 146.7 479.508 159Z" fill="#C3C3F4"/>
<path d="M10.4076 196.7C0.607564 204.5 -1.69244 221.2 1.10756 233.1C4.50756 247.3 17.3076 255.8 21.8076 269.3C24.4076 276.9 22.2076 280.6 20.1076 287.9C17.4076 297.2 16.0076 310.5 19.3076 319.9C24.2076 333.9 37.6076 346.3 51.0076 352.6C67.8076 360.4 88.5076 356.5 105.308 365.3C116.808 371.4 122.308 387 134.308 392.2C146.608 397.5 172.208 393.8 174.108 377.5C176.208 359.2 158.008 346.8 157.308 329.6C156.908 319.7 161.208 309.3 161.308 299.1C161.408 285.7 159.108 269.7 153.108 257.5C141.808 234.5 121.408 213.2 94.6076 213.1C88.4076 213.1 81.7076 214.8 75.5076 213.2C67.6076 211.1 65.7076 205.7 60.6076 200.1C53.6076 192.5 39.1076 188.4 28.6076 187.7C20.3076 187.2 16.8076 190.9 10.6076 196.6C11.1076 196.1 11.7076 195.6 12.2076 195.2" fill="#C3C3F4"/>
<g opacity="0.3">
<g opacity="0.3">
<path opacity="0.3" d="M17.4485 203.337L16.362 204.219L166.697 389.242L167.784 388.359L17.4485 203.337Z" fill="#7E57C2"/>
</g>
<g opacity="0.3">
<path opacity="0.3" d="M37.5004 315.956L37.4821 317.356L109.375 318.297L109.393 316.897L37.5004 315.956Z" fill="#7E57C2"/>
</g>
<g opacity="0.3">
<path opacity="0.3" d="M107.58 242.105L106.18 242.151L108.643 317.613L110.042 317.567L107.58 242.105Z" fill="#7E57C2"/>
</g>
<g opacity="0.3">
<path opacity="0.3" d="M15.3104 237.49L15.0338 238.863L50.5206 246.016L50.7973 244.643L15.3104 237.49Z" fill="#7E57C2"/>
</g>
<g opacity="0.3">
<path opacity="0.3" d="M37.8234 201.724L36.4864 202.139L49.9862 245.591L51.3232 245.176L37.8234 201.724Z" fill="#7E57C2"/>
</g>
<g opacity="0.3">
<path opacity="0.3" d="M116.323 356.934L115.886 358.264L151.134 369.843L151.571 368.513L116.323 356.934Z" fill="#7E57C2"/>
</g>
<g opacity="0.3">
<path opacity="0.3" d="M139.225 322.027L137.862 322.346L148.195 366.45L149.558 366.131L139.225 322.027Z" fill="#7E57C2"/>
</g>
</g>
<path d="M505.908 292.6C504.908 284.3 498.408 265.5 490.208 277.3C485.208 284.4 488.508 295.8 485.008 304C478.108 296.9 460.308 256.6 444.308 273.4C434.008 284.2 449.808 313.7 454.808 325C451.308 320.6 443.008 315.6 438.608 321.5C434.608 326.9 441.608 339.7 443.508 345.2C434.808 341.5 428.908 332.2 419.408 338.9C412.008 344.2 411.908 354.6 412.908 362.5C414.008 371 416.908 378.8 417.008 387.5C417.108 397.4 413.508 405.2 412.208 414.9C422.408 394.4 453.408 400 471.708 398.8C481.508 398.1 533.308 395.1 513.808 374.7C510.208 370.9 466.108 367 482.808 356.8C490.308 352.2 505.808 357.1 514.408 356.1C521.208 355.3 534.908 353.3 539.808 348.5C548.608 340.1 542.108 328 532.808 324.4C524.808 321.3 514.408 324.6 507.408 319.9C513.308 312.9 525.508 315.5 531.708 309.5C539.508 302 531.608 297.8 524.208 296.4C535.208 291 542.608 273 524.208 272.2C517.608 271.9 512.508 275.6 509.008 280.7C506.608 284.2 503.108 292.2 505.808 292.4C505.108 292 504.108 291.2 504.008 290.3" fill="#C3C3F4"/>
<path d="M441.008 430.1L441.108 430.5L441.408 431.8L442.008 434.4L442.308 435.6C442.808 435.6 443.408 435.6 443.908 435.7C447.708 435.9 451.508 435.9 454.208 434.4L453.908 431.6L447.108 430.8L445.908 430.7L441.208 430.1H441.008Z" fill="#512DA8"/>
<path d="M404.908 431.4L405.608 434.9C413.208 437.6 425.108 437.7 440.408 434.8C440.908 434.7 441.508 434.6 442.008 434.5C442.908 434.3 443.808 434.1 444.708 433.9C447.608 433.3 450.608 432.5 453.808 431.7V431.6L453.208 428.8C453.208 428.7 453.208 428.6 453.108 428.5L452.908 427.5L448.008 427.9L446.408 428L441.408 428.4L404.908 431.4Z" fill="#4F399E"/>
<path d="M453.308 428.7C452.108 429.5 449.908 430.2 447.108 430.8C445.408 431.2 443.508 431.5 441.508 431.8C441.308 431.8 441.108 431.9 441.008 431.9C427.508 433.9 408.208 434.3 405.008 431.3C404.508 428.9 408.108 426.3 414.908 423.5C415.608 423.2 416.308 423 417.008 422.7C417.508 422.5 418.008 422.3 418.608 422.1C419.308 421.8 420.008 421.6 420.808 421.3C421.308 421.1 421.808 420.9 422.408 420.8C423.108 420.5 423.908 420.3 424.708 420C425.608 419.7 426.608 419.4 427.508 419.1C428.508 418.8 429.608 418.5 430.708 418.1C435.908 416.6 439.908 416.4 443.008 417.1C447.508 418.1 450.108 420.8 451.608 423.5C452.408 424.9 452.908 426.2 453.108 427.3C453.208 427.7 453.308 428 453.408 428.3C453.208 428.5 453.208 428.6 453.308 428.7Z" fill="#512DA8"/>
<path d="M424.608 420L446.108 427.9L451.008 429.7L453.708 430.7L455.908 431.5L455.108 416.2L449.308 298.3L446.808 247L445.508 220.7L445.208 214.6L445.108 213.2L431.108 209.8L414.008 205.6C414.108 205.7 414.108 206.6 414.108 208.1C414.108 209.6 414.008 211.8 413.908 214.5C413.708 222.2 413.508 234.4 414.508 248.7C418.708 310.9 424.608 420 424.608 420Z" fill="url(#paint0_linear)"/>
<path d="M463.308 430.799L463.108 433.799C460.408 434.999 457.008 435.399 453.608 435.299C451.908 435.299 450.208 435.2 448.508 435.1C448.408 435.1 448.308 435.1 448.208 435.1L448.108 433.799L448.008 431.7V431L447.908 429.5V429H448.108L455.108 429.799L456.108 429.9L456.908 430L463.308 430.799Z" fill="#4F399E"/>
<path d="M463.308 430.799C460.308 431.799 457.408 432.7 454.708 433.4C454.108 433.6 453.508 433.7 452.808 433.9C452.608 433.9 451.108 434.6 448.508 435.2C443.308 436.4 433.908 437.7 421.908 434.4V430.5L453.308 427.1L457.208 426.7L460.708 426.299L463.208 426V427.1C463.208 427.2 463.208 427.199 463.208 427.299C463.208 427.399 463.208 427.4 463.208 427.4L463.308 430.799Z" fill="#4F399E"/>
<path d="M463.308 427.5C462.208 428.4 460.208 429.2 457.708 429.9C457.508 430 457.208 430 456.908 430.1C456.608 430.2 456.308 430.3 456.008 430.3C455.008 430.6 453.908 430.8 452.708 431C452.608 431 452.408 431.1 452.208 431.1C450.808 431.4 449.408 431.6 448.008 431.8C436.908 433.4 423.808 433.4 421.908 430.5C421.908 427.9 425.408 425 431.608 421.9C432.208 421.6 432.808 421.3 433.508 421C433.708 420.9 433.908 420.8 434.108 420.7C434.408 420.6 434.708 420.4 435.008 420.3C435.608 420 436.308 419.7 437.008 419.4C437.508 419.2 437.908 419 438.408 418.8C439.108 418.5 439.808 418.3 440.508 418C441.308 417.7 442.208 417.3 443.108 417C444.008 416.6 445.008 416.3 445.908 415.9C450.508 414.2 454.008 414 456.408 414.8C457.608 415.2 458.708 415.8 459.508 416.5C461.108 417.9 462.108 419.9 462.608 421.8C463.008 423.3 463.208 424.8 463.308 426C463.308 426.4 463.308 426.8 463.308 427.1C463.308 427.2 463.308 427.2 463.308 427.3C463.308 427.4 463.308 427.4 463.308 427.5Z" fill="#512DA8"/>
<path d="M430.008 207.3C430.108 207.3 430.308 208.1 430.408 209.7C430.508 210.8 430.608 212.2 430.708 213.9C430.808 215.6 430.908 217.6 431.008 219.9C431.308 226.7 431.508 236 431.808 246.8C432.208 261.7 432.508 279.6 432.808 298.1C433.108 315 433.308 332.4 433.508 348.7C434.008 388.3 434.308 420.7 434.308 420.7C444.908 422.2 452.108 424.8 457.008 426.7C458.808 427.4 460.408 428 461.708 428.5C462.308 428.7 462.908 428.9 463.508 429H463.608L468.508 322.4L471.708 251.3C474.608 240.9 475.308 228.1 474.608 215.4C474.508 213.3 474.308 211.3 474.208 209.2C474.108 208.6 474.108 208 474.008 207.4C473.908 206.8 473.908 206.1 473.808 205.5L430.008 207.3Z" fill="url(#paint1_linear)"/>
<path d="M412.908 214.6C418.008 217.2 424.608 219.1 431.908 220C435.708 220.5 439.708 220.7 443.808 220.7C453.908 220.7 464.708 219 475.108 215.5C474.908 213.4 474.608 211.3 474.308 209.3C464.108 212.6 453.708 214.3 444.208 214.6C439.608 214.7 435.308 214.5 431.308 214C424.108 213 418.108 211.1 413.908 208.1C413.608 209.6 413.308 211.8 412.908 214.6Z" fill="#47463E"/>
<path d="M427.308 213.9C429.208 214.3 431.208 214.6 433.308 214.8L432.708 219.8C430.608 219.6 428.508 219.2 426.508 218.8L427.308 213.9Z" fill="#C6C6C6"/>
<path d="M449.608 213.3C450.408 213.3 451.208 213.2 452.008 213.2L451.608 222.1C450.808 222.1 450.008 222.2 449.208 222.2L449.608 213.3Z" fill="#512DA8"/>
<path d="M416.808 209.3L416.108 218.2C415.408 217.9 414.508 217.6 413.808 217.3L415.008 208.3C415.608 208.7 416.008 209 416.808 209.3Z" fill="#512DA8"/>
<path d="M432.608 331.7C431.208 359.8 434.208 388.1 437.508 416.2C437.508 416.2 440.608 292.4 441.108 264.4C441.208 257 448.208 249.1 453.708 244.3C450.408 245.7 446.908 246.5 443.408 246.9C440.908 247.1 438.308 247.1 435.708 246.8C429.608 246.1 423.608 244 418.508 240.5C429.208 252.5 433.708 268.7 434.608 284.5C435.508 300.3 433.308 316 432.608 331.7Z" fill="#4F399E"/>
<path d="M388.108 154.6L404.308 150.7L405.708 150.4L409.608 149.5L410.908 149.2V149.7L411.008 151.4L411.108 153.2L411.708 162.5L412.108 168.9L412.408 173.6L413.908 206.6C413.908 206.6 416.508 210.6 431.908 213C436.708 213.7 441.908 213.7 446.908 213.3C458.208 212.4 468.708 209.6 471.608 209.4C478.708 207.3 481.308 194.7 481.308 194.7L492.708 145.2L492.108 142L487.808 117.1L471.208 107.5L465.008 103.9L456.108 98.7998L440.708 105.6L436.308 107.5L422.008 113.8C416.408 116 411.608 119.7 408.108 124.5L388.108 154.6Z" fill="white"/>
<path opacity="0.05" d="M420.008 132C414.508 141 407.208 148.9 398.808 155.1C405.308 154 411.808 152.9 418.208 151.8C417.108 151.3 416.308 150.2 416.008 149.1C415.708 147.9 415.808 146.7 415.908 145.5C416.508 140.9 417.908 136.3 420.008 132Z" fill="#1D1D1B"/>
<path d="M442.808 127.6C438.908 146.7 438.208 168.1 439.408 190.8L431.308 200.9L424.508 188.3C426.808 164.6 430.508 142.9 437.608 126L442.808 127.6Z" fill="url(#paint2_linear)"/>
<path opacity="0.05" d="M397.408 172.6C402.308 171.9 407.208 170.5 412.208 168.7L412.508 173.4C413.808 173.6 415.208 174 416.508 174.5C419.708 175.6 422.708 176.9 425.608 178.2C429.808 180.1 433.708 182.1 437.608 184.1C438.108 184.4 438.608 184.6 439.108 184.8C444.508 187.3 449.408 188.7 454.908 191.4C457.908 192.9 461.508 195.2 461.208 198.5C461.008 201 458.208 207.3 456.108 208.6C453.208 210.4 450.108 211.8 446.908 213C458.208 212.1 468.708 209.3 471.608 209.1C478.708 207 481.308 194.4 481.308 194.4L492.708 144.9C493.508 142.6 494.208 140.4 494.708 138.2C493.908 139.4 493.008 140.5 492.208 141.7C487.208 148.6 482.208 155.5 477.208 162.4C472.208 169.2 466.708 176.5 458.508 178.8C452.008 180.6 445.208 178.8 439.008 175.9C437.108 175 435.208 174 433.308 172.9C431.208 171.6 429.108 170.3 426.908 169L426.808 168.9C425.408 168.1 424.008 167.2 422.508 166.5C422.508 166.5 422.508 166.5 422.408 166.5C421.608 166.1 420.808 165.7 420.008 165.3C420.008 165.3 420.008 165.3 419.908 165.3C417.208 164 414.508 162.9 411.608 162.3C410.808 162.1 410.008 162 409.208 161.9C406.508 161.5 403.608 161.7 401.508 163.3C398.908 165.4 398.408 169.2 397.408 172.6Z" fill="#1D1D1B"/>
<path d="M460.308 158L444.908 151.2L434.408 153.1C430.708 155.8 430.508 160.2 431.708 162.9L455.308 164.8L460.308 158Z" fill="#FBBE52"/>
<path d="M423.608 163.4L428.508 161L430.008 161.1C427.908 165.4 426.308 169.8 425.708 174.4C424.008 173.5 422.408 172.5 420.808 171.5L423.608 163.4Z" fill="#E6DCDC"/>
<path d="M425.808 174.4C425.908 174.4 426.008 174.5 426.108 174.5C430.208 176.7 434.408 178.7 439.108 180.6C445.608 183.2 452.808 185.5 461.208 187.9C464.708 189 468.508 187.6 470.408 184.5L492.808 144.9C493.608 142.6 494.308 140.4 494.808 138.2C497.008 129 495.908 121.3 487.908 116.8L462.008 135.4L461.608 137.1L456.608 156.1L454.908 162.4L439.208 161.5L431.208 161H430.808H430.208C430.208 161.1 430.108 161.2 430.108 161.3C429.908 161.8 429.708 162.2 429.508 162.7C429.408 163 429.308 163.2 429.108 163.5C429.008 163.8 428.908 164 428.808 164.3C428.608 164.7 428.508 165.1 428.308 165.5C428.108 165.9 428.008 166.3 427.908 166.7C427.608 167.5 427.408 168.2 427.108 169C427.108 169.1 427.108 169.2 427.008 169.2C426.908 169.5 426.908 169.7 426.808 170C426.808 170.1 426.708 170.3 426.708 170.4C426.608 170.7 426.608 170.9 426.508 171.2C426.408 171.6 426.308 171.9 426.308 172.3C426.308 172.4 426.208 172.5 426.208 172.7C426.208 172.9 426.108 173.1 426.108 173.3C425.908 173.7 425.808 174.1 425.808 174.4Z" fill="white"/>
<path d="M427.908 152.1L434.408 153.1C431.708 155.9 431.008 158.5 431.208 161L425.308 162.9C425.008 159.3 425.708 155.7 427.908 152.1Z" fill="#E6DCDC"/>
<path d="M394.008 173C395.108 172.9 396.208 172.7 397.408 172.6C402.308 171.9 407.208 170.5 412.208 168.7C413.608 168.2 414.908 167.7 416.308 167.1C417.608 166.6 418.908 166 420.108 165.4C421.208 164.9 422.308 164.4 423.408 163.8C423.408 163.8 423.508 163.8 423.508 163.7C424.108 163.4 424.608 163.1 425.208 162.8C425.208 162.7 425.208 162.6 425.208 162.5C425.008 159 425.808 155.5 427.908 152L424.008 151.4L416.608 150.3L410.908 149.5L409.608 149.3L406.308 148.8L404.908 148.6L400.608 148L388.108 154.6C383.308 162.9 385.308 169 394.008 173Z" fill="white"/>
<path d="M423.908 151.5L417.908 146.6C416.608 145.6 415.108 144.9 413.508 144.7L407.408 143.8C406.108 143.6 404.808 144.3 404.308 145.5C404.008 146.2 404.008 146.9 404.308 147.5L406.108 151.1L423.908 151.5Z" fill="#FBBE52"/>
<path d="M420.908 171.5L423.408 163.8L416.108 167.2L420.908 171.5Z" fill="#FBBE52"/>
<path opacity="0.05" d="M430.108 161.1L454.808 162.6L461.508 137.3C460.208 141.3 457.908 148 455.608 151.6C453.408 155.2 453.208 155.9 450.708 159.1C448.808 161.7 436.208 158 430.108 161.1Z" fill="#1D1D1B"/>
<path d="M466.908 101.7L463.308 74.2998C453.508 75.4998 440.508 76.7998 438.208 76.5998C438.208 76.5998 440.408 94.4998 440.408 101.7C438.908 120.4 450.708 125.2 466.908 101.7Z" fill="#F2AA41"/>
<path d="M471.608 85.1999C474.508 81.2999 474.908 79.3999 476.208 74.5999C480.908 52.6999 467.708 52.5999 459.708 50.5999C450.208 48.6999 439.708 52.7999 435.608 67.0999C435.708 68.5999 436.008 69.8999 436.008 69.8999L430.908 77.1999C430.108 78.3999 430.508 80.0999 431.808 80.6999L433.708 81.7999C433.408 83.2999 431.608 89.4999 431.608 89.4999C430.808 93.1999 431.008 99.2999 436.008 100.1C450.408 102.3 457.408 97.0999 459.608 84.3999C463.208 84.9999 469.508 88.0999 471.608 85.1999Z" fill="#FBBE52"/>
<path d="M466.808 94.3999C454.908 94.5999 463.808 79.1999 463.808 79.1999C463.808 79.1999 459.908 81.7999 458.408 82.8999C456.008 82.2999 455.708 82.4999 453.608 81.7999C456.408 67.3999 462.608 57.3999 441.208 56.5999C437.408 54.8999 444.308 42.8999 462.708 48.4999C473.408 51.7999 481.008 59.6999 479.708 70.7999C478.808 77.8999 476.908 86.9999 466.808 94.3999Z" fill="#512DA8"/>
<path d="M466.208 80.1C465.308 83.5 461.508 86.7 459.308 86.1C457.108 85.5 457.608 82.6 458.408 79.2C458.908 76.9 459.608 73.8 462.208 73.7C464.508 73.7 467.408 75.1 466.208 80.1Z" fill="#FBBE52"/>
<path d="M448.008 120.3L444.308 115.4L439.308 118.2L437.608 126L442.808 127.6L448.008 120.3Z" fill="url(#paint3_linear)"/>
<path d="M471.308 107.4L466.908 101.7C461.808 108 453.708 112.1 444.208 115.4L452.808 126.6C460.608 121.7 466.708 115.3 471.308 107.4Z" fill="#F9F2F2"/>
<path d="M444.308 115.4L434.408 121L436.408 107.3L440.508 101.7C440.608 106.8 441.408 111.6 444.308 115.4Z" fill="#F9F2F2"/>
<path d="M325.908 435.5C325.908 435.8 326.108 436.1 326.408 436.3C326.608 436.4 326.908 436.6 327.308 436.8H348.908C350.008 436.8 351.108 436.5 352.108 436.1C352.808 435.7 353.508 435.2 354.008 434.6C354.208 434.4 354.408 434.2 354.508 434L356.308 431.4L356.608 430.9L358.508 428.2L358.708 436.7H363.708C363.708 434.9 363.708 433.3 363.908 431.9C364.008 431.4 364.008 430.9 364.108 430.4C364.108 430.2 364.208 430 364.208 429.8C364.308 429.2 364.408 428.7 364.508 428.2C364.608 427.9 364.608 427.6 364.708 427.4C364.908 426.3 365.108 425.3 365.208 424.3C365.208 423.9 365.308 423.6 365.308 423.2C365.308 422.7 365.308 422.3 365.308 421.8C365.308 421.4 365.308 421.1 365.308 420.7C365.308 420.4 365.308 420 365.208 419.6C365.208 419.5 365.208 419.4 365.208 419.4C365.208 419 365.108 418.6 365.008 418.2C364.908 417.8 364.808 417.3 364.708 416.8C364.308 415.4 363.808 413.8 363.008 412C362.808 411.4 362.508 410.8 362.208 410.2C359.808 405 368.008 365.1 366.008 349.9C365.408 345.1 364.308 340.8 363.208 337.1C362.708 335.4 362.208 333.8 361.708 332.3C360.708 329.5 359.808 327.3 359.008 325.5C357.908 323.1 357.008 321.7 357.008 321.7C357.808 317.8 359.308 310.4 359.208 306.7C359.208 305.5 359.008 304.7 358.608 304.4C352.608 301.1 338.108 297.9 335.508 302.4C335.208 303 335.008 304.8 335.008 307.4C334.908 314 335.608 324.9 335.908 327.9V328C335.908 328 336.108 329 336.508 330.8C336.808 331.9 337.108 333.3 337.408 335C340.908 352.3 349.608 396.6 349.308 410.1C349.208 415.8 340.708 425.6 339.108 427.4C339.008 427.5 338.908 427.6 338.908 427.6C338.508 427.9 338.108 428.2 337.608 428.4C337.208 428.6 336.808 428.9 336.508 429.1C335.008 429.9 333.408 430.6 332.008 431.3C331.308 431.6 330.608 431.9 330.008 432.2C330.008 432.2 330.008 432.2 329.908 432.2C329.308 432.5 328.708 432.8 328.208 433C327.508 433.3 327.008 433.7 326.608 434C326.508 434.1 326.408 434.1 326.408 434.2C326.308 434.3 326.208 434.3 326.208 434.4C326.108 434.5 326.108 434.5 326.108 434.6C326.008 434.7 326.008 434.7 326.008 434.8C325.908 435.4 325.908 435.5 325.908 435.5Z" fill="#FBBE52"/>
<path d="M362.308 410.4C362.208 410.3 361.808 410.3 361.308 410.4C358.308 411 355.808 413 354.508 415.8L351.208 422.9C349.808 426 346.708 427.9 343.208 427.8L339.108 427.7C339.008 427.8 338.908 427.9 338.908 427.9C332.508 432.3 322.108 434.5 327.308 436.9H348.908C351.208 436.9 353.308 435.8 354.608 434L358.708 428.3L358.908 436.9H363.808C363.508 426 368.608 423.8 362.308 410.4Z" fill="#512DA8"/>
<path d="M279.408 436.6C279.608 436.7 279.808 436.8 280.008 436.9H301.608C301.908 436.9 302.108 436.9 302.408 436.9C302.708 436.9 303.008 436.8 303.308 436.8C303.608 436.7 303.808 436.7 304.108 436.6C305.408 436.2 306.708 435.3 307.608 434.2L311.708 429.3L312.308 428.5L311.608 436.7V437H316.608C317.008 432.2 317.908 429.1 318.308 426C318.308 425.9 318.308 425.8 318.308 425.7C318.808 421.8 318.608 417.8 316.008 410.5C314.108 405.3 327.708 365.6 328.208 350.5C328.508 342.1 327.708 335.4 326.708 330.6C325.608 325.2 324.308 322.3 324.308 322.3C325.708 318.2 328.108 310.5 328.208 308C328.208 307.6 328.208 307.3 328.108 307.3C322.808 303.4 306.708 303.3 302.808 305.9C302.108 306.3 301.608 307.4 301.308 308.9C300.308 312.9 300.408 319.6 300.408 323.9L300.508 328.7C300.508 328.7 300.508 328.8 300.508 329.1C300.608 330 300.808 332.3 301.208 335.7C302.808 352.9 305.708 397.3 303.908 410.8C303.108 417 292.208 427.8 292.208 427.8C287.908 430.5 282.408 432.5 280.008 434.2C279.808 434.3 279.708 434.4 279.508 434.5C279.408 434.5 279.408 434.6 279.308 434.6C279.208 434.7 279.108 434.7 279.008 434.9C278.608 435.5 278.608 436 279.408 436.6Z" fill="#FBBE52"/>
<path d="M315.908 410.4C315.908 410.3 315.508 410.3 314.908 410.4C311.908 411 309.308 413 307.908 415.8L304.408 422.9C302.908 426 299.708 427.9 296.208 427.8L292.108 427.7C292.008 427.8 291.908 427.9 291.908 427.9C285.308 432.3 274.908 434.5 280.008 436.9H301.608C303.908 436.9 306.008 435.8 307.408 434L311.708 428.3L311.608 436.9H316.508C316.608 426 321.708 423.8 315.908 410.4Z" fill="#512DA8"/>
<path opacity="0.1" d="M335.108 307.7C335.008 314.3 335.708 325.2 336.008 328.2V328.3C336.008 328.3 336.208 329.3 336.608 331.1L361.708 332.5C360.708 329.7 359.808 327.5 359.008 325.7C357.908 323.3 357.008 321.9 357.008 321.9C357.808 318 359.308 310.6 359.208 306.9L335.108 307.7Z" fill="#1D1D1B"/>
<path opacity="0.1" d="M300.408 323.8L300.508 328.6C300.508 328.6 300.508 328.7 300.508 329L326.608 330.5C325.508 325.1 324.208 322.2 324.208 322.2C325.608 318.1 328.008 310.4 328.108 307.9L301.108 308.7C300.308 312.8 300.408 319.5 300.408 323.8Z" fill="#1D1D1B"/>
<path d="M334.908 145.7L316.508 192.4C312.008 201.9 326.008 210.3 331.408 198.2L352.408 152.6C358.308 137 340.108 133 334.908 145.7Z" fill="#FBBE52"/>
<path d="M327.708 188.5L282.308 167.7C282.308 167.7 277.708 173.5 277.908 173.8C287.808 183.6 312.708 200.4 320.208 203.2C329.008 206.9 336.308 193.1 327.708 188.5Z" fill="#FBBE52"/>
<path d="M329.008 141.3C332.008 134.9 331.408 127.3 329.508 120.4C327.508 113.6 324.308 107.2 322.008 100.4C319.808 93.7999 318.508 86.7999 318.308 79.8999C312.908 86.9999 308.008 96.5999 309.208 105.5C310.108 111.6 313.208 118.7 314.708 124.7C317.408 135.7 318.308 145.9 313.808 156.3C319.708 152.2 325.908 147.8 329.008 141.3Z" fill="#512DA8"/>
<path d="M305.008 112.4C305.308 109.6 304.508 106.8 303.508 104.2C301.508 99 298.708 94.1 295.308 89.7C296.308 94.5 297.208 99.4 298.208 104.2C299.408 109.9 300.408 116.2 297.708 121.4C301.508 120.2 304.608 116.5 305.008 112.4Z" fill="#512DA8"/>
<path d="M291.608 120.9C294.908 111.2 291.708 107.6 289.208 101.7C281.008 82.3 305.408 66.1 322.308 67.8C333.708 69 341.308 78.5 342.808 88.3C347.008 116.5 369.608 109.8 356.808 153.4C352.908 149.4 354.708 136.9 349.208 135.7C343.708 134.5 339.708 123.1 335.108 119.9C331.808 117.6 329.308 114.3 326.808 111.1C324.308 107.9 321.708 104.7 318.208 102.6C314.708 100.5 310.108 99.7 306.408 101.6C307.308 108.6 297.908 117.6 291.608 120.9Z" fill="#512DA8"/>
<path d="M343.708 122.3L324.608 136.1L322.008 123.7L320.008 114.4L319.108 110.4L333.808 94.7L343.708 122.3Z" fill="#FBBE52"/>
<path d="M324.708 128.8C317.908 156.3 305.508 147.6 303.908 162.9C302.508 176.3 314.808 178.6 314.808 178.6C316.308 193.1 320.108 210 319.208 219.8C319.208 219.8 350.708 213.9 352.808 213.4C347.608 198.5 356.708 182.5 356.708 155.4C356.708 140.8 342.808 119.8 342.808 119.8C342.808 119.8 325.708 124.7 324.708 128.8Z" fill="#FBBE52"/>
<path d="M302.608 164.3C302.608 165.7 302.708 167 303.008 168.2C305.208 177 314.508 179.4 314.508 179.4C314.608 183 314.808 189.4 315.108 192.7C315.108 192.7 315.108 192.7 315.108 192.8C315.208 194 315.308 195.2 315.508 196.4C315.808 199.2 316.208 201.9 316.508 204.4C317.108 208.8 317.708 213 318.108 216.7C318.208 217.3 318.208 217.9 318.308 218.4C318.308 218.4 319.108 218.3 320.508 218.1C321.608 218 322.908 218.3 324.508 218.9C327.808 220.1 332.008 222.1 336.208 221.4C340.608 220.8 345.108 218.3 348.308 216.2C350.708 214.7 352.308 213.4 352.808 213.3C352.408 212.2 352.108 211.2 352.008 210.1L351.908 210C351.208 207.2 351.108 204.3 351.208 201.2C351.208 200.4 351.308 199.6 351.308 198.7C351.708 194.3 352.608 189.6 353.508 184.5C353.508 184.2 353.608 184 353.608 183.8C354.608 178.4 355.608 172.4 356.208 165.6C356.308 164.5 356.408 163.4 356.508 162.3C356.608 160 356.708 157.8 356.708 155.4C356.708 140.8 347.208 127.2 347.208 127.2C347.208 127.2 344.208 128.4 341.108 129.5C338.108 130.5 335.708 132.7 334.208 135.4C334.108 135.5 334.108 135.6 334.008 135.7L328.808 145.6C327.208 148.7 324.108 150.8 320.608 151.1C316.308 151.4 309.908 153 309.908 153C309.908 153 303.208 154.2 302.608 164.3Z" fill="url(#paint4_linear)"/>
<path d="M300.408 320.3C318.108 316.6 350.508 325.5 369.308 322C369.308 321.9 369.308 321.7 369.208 321.6C368.608 317.3 363.008 279 364.108 261.6C371.208 238.4 365.208 223.1 352.008 210.1L351.908 210C350.208 211.1 348.008 212.3 345.508 213.4C339.408 216.1 331.508 218.4 325.208 218.3C322.408 218.3 320.008 217.8 318.108 216.7L317.908 216.8C316.908 223.6 315.908 229.9 314.808 235.9C308.008 275.2 300.408 297.9 300.408 320.3Z" fill="url(#paint5_linear)"/>
<path opacity="0.1" d="M330.608 104.7C331.808 110 331.508 115.7 329.808 120.9C329.108 123.1 323.908 128.2 322.208 129.8L319.108 120.1C319.708 119.6 321.908 118.2 322.508 117.6C326.108 114 329.208 109.6 330.608 104.7Z" fill="#1D1D1B"/>
<path d="M299.708 103.2C276.608 76.4998 343.808 51.6998 338.508 96.4998L332.208 99.1998C333.508 108.5 330.708 115 322.008 122C313.308 128.7 308.908 123.6 305.508 117.2C304.908 116.1 304.608 114.2 302.708 114.2C300.208 114.3 299.308 113.3 300.008 111.3C300.708 109.3 300.608 105.6 299.708 103.2Z" fill="#FBBE52"/>
<path d="M341.508 106.6C342.108 102.4 342.708 98.0999 342.608 93.8999C342.508 89.6999 341.708 85.3999 339.708 81.5999C336.508 75.6999 330.408 71.5999 323.708 70.3999C317.008 69.1999 310.008 70.9999 304.008 74.3999C295.008 79.4999 291.508 87.8999 291.508 94.5999C295.608 96.2999 303.308 88.2999 310.808 97.8999C325.408 116.7 334.008 108.9 341.508 106.6Z" fill="#512DA8"/>
<path d="M283.108 167.9L280.708 162.8L277.708 160.6C277.708 160.6 275.808 158.4 275.708 156.2C275.608 154.3 273.608 155.5 273.608 156.9C273.608 158.2 274.508 162 274.508 162L266.108 165L271.708 174.4L279.908 176L287.208 179.8L291.108 172.3L283.108 167.9Z" fill="#FBBE52"/>
<path d="M262.508 157.6L266.008 154.3C266.408 153.9 267.408 154.4 268.308 155.3L285.208 172.8C286.108 173.7 286.508 174.8 286.208 175.2L282.708 178.5C282.308 178.9 281.308 178.4 280.408 177.5L263.508 160C262.608 159 262.208 157.9 262.508 157.6Z" fill="url(#paint6_linear)"/>
<path d="M283.807 177.4L287.307 174.1C287.707 173.7 287.307 172.7 286.307 171.7L269.407 154.2C268.507 153.3 267.508 152.8 267.108 153.2L263.608 156.5C263.208 156.9 263.608 157.9 264.608 158.9L281.507 176.4C282.407 177.3 283.507 177.7 283.807 177.4Z" fill="url(#paint7_linear)"/>
<path d="M284.907 171.6C285.007 171.5 284.908 171.3 284.708 171.1L269.007 154.9C268.807 154.7 268.607 154.6 268.507 154.7L265.007 158C264.907 158.1 265.008 158.3 265.208 158.5L280.907 174.7C281.107 174.9 281.307 175 281.407 174.9L284.907 171.6Z" fill="#DED4F9"/>
<path d="M266.008 155.8C266.208 156 266.508 156.2 266.608 156.1C266.708 156 266.608 155.7 266.408 155.5C266.208 155.3 265.908 155.1 265.808 155.2C265.608 155.3 265.708 155.6 266.008 155.8Z" fill="#878787"/>
<path d="M284.107 174.8C284.507 175.2 285.007 175.4 285.107 175.3C285.307 175.1 285.107 174.7 284.707 174.3C284.307 173.9 283.807 173.7 283.707 173.8C283.507 173.9 283.707 174.4 284.107 174.8Z" fill="#7E57C2"/>
<path d="M285.008 173.7C285.208 173.9 285.408 174 285.408 173.9L286.008 173.3C286.108 173.2 286.007 173 285.807 172.9C285.607 172.7 285.408 172.6 285.408 172.7L284.807 173.3C284.807 173.3 284.808 173.5 285.008 173.7Z" fill="#7E57C2"/>
<path d="M282.708 175.9C282.908 176.1 283.108 176.2 283.108 176.1L283.708 175.5C283.808 175.4 283.708 175.2 283.508 175.1C283.308 174.9 283.108 174.8 283.108 174.9L282.508 175.5C282.508 175.5 282.608 175.7 282.708 175.9Z" fill="#7E57C2"/>
<path d="M265.007 166.7C265.107 167.5 265.807 168 266.507 167.9L271.608 166.6C273.308 166.3 273.208 163.7 271.108 164.1L265.907 165C265.407 165.1 264.907 165.9 265.007 166.7Z" fill="#FBBE52"/>
<path d="M266.408 169.1C266.608 170 267.308 170.5 268.108 170.4L273.608 169C275.408 168.7 275.308 165.9 273.108 166.3L267.608 167.3C266.708 167.4 266.208 168.2 266.408 169.1Z" fill="#FBBE52"/>
<path d="M268.308 171.5C268.508 172.4 269.208 172.9 270.008 172.8L275.508 171.4C277.308 171.1 277.208 168.3 275.008 168.7L269.508 169.7C268.608 169.9 268.108 170.7 268.308 171.5Z" fill="#FBBE52"/>
<path d="M270.808 173.4C270.908 174.1 271.508 174.5 272.108 174.4L276.508 173.3C278.008 173 277.908 170.9 276.108 171.2L271.708 172C271.008 172.1 270.708 172.7 270.808 173.4Z" fill="#FBBE52"/>
<path opacity="0.03" d="M303.008 168.2C305.208 177 314.508 179.4 314.508 179.4C314.608 183 314.808 189.4 315.108 192.7C315.108 192.7 315.108 192.7 315.108 192.8C315.508 196.9 316.008 200.8 316.508 204.4C317.108 208.8 317.708 213 318.108 216.7L317.908 216.8C316.908 223.6 315.908 229.9 314.808 235.9C317.808 228.1 320.908 222 324.408 218.9C324.608 218.7 324.808 218.5 325.108 218.4C319.608 202.5 315.308 187 321.908 176.2C314.808 176.3 308.508 173.5 303.008 168.2Z" fill="#1D1D1B"/>
<path opacity="0.03" d="M315.708 196.3L316.408 200.8L345.508 213.4C346.508 214.3 347.508 215.2 348.308 216.2C360.208 229.1 358.908 245.7 349.508 262.3C364.708 272.9 364.808 295.7 369.208 321.6C368.608 317.3 363.008 279 364.108 261.6C371.208 238.4 365.208 223.1 352.008 210.1L351.908 210C351.208 207.2 351.108 204.3 351.208 201.2C351.208 200.4 351.308 199.6 351.308 198.7C351.708 194.3 352.608 189.6 353.508 184.5C353.508 184.2 353.608 184 353.608 183.8L335.208 154.6L334.508 188.6L315.708 196.3Z" fill="#1D1D1B"/>
<path d="M348.308 191.4L295.708 191.7C295.708 191.7 295.308 197.9 295.708 198.1C309.008 202.2 340.508 209 348.508 208C357.908 207.2 358.008 191.5 348.308 191.4Z" fill="#FBBE52"/>
<path d="M305.308 192.7L292.008 188.6L283.408 190.9L280.508 199.8L284.708 204.1C286.508 203.7 286.808 202.3 285.508 200.9L291.208 198.9C294.208 201.3 298.508 199.9 302.008 199.6L305.308 192.7Z" fill="#FBBE52"/>
<path d="M292.008 188.6L280.508 189.8L275.008 195.2C273.708 196.4 275.408 197.6 276.508 196.4L281.408 192.4L292.108 192.5V188.6H292.008Z" fill="#FBBE52"/>
<path d="M334.908 150.1L340.208 200C340.608 210.5 356.908 211.5 356.108 198.3L353.608 148.2C351.608 131.6 333.608 136.4 334.908 150.1Z" fill="#FBBE52"/>
<path d="M141.308 254.5C144.808 254.5 150.608 254.5 154.108 254.5H167.708C171.208 254.5 174.108 251.6 174.108 248.1V241.2C174.108 237.7 173.608 232 173.008 228.5L161.608 162.7C161.008 159.2 157.608 156.4 154.108 156.4L102.808 156.7L97.9076 159.1C94.3076 160.2 92.1076 163.8 92.6076 167.3L100.308 228.4C100.708 231.9 101.108 237.6 101.108 241.1V248C101.108 251.5 104.008 254.4 107.508 254.4L113.208 255C116.708 255 127.508 254.4 131.008 254.4H141.308V254.5Z" fill="#FF9100"/>
<path d="M150.008 254.5C153.508 254.5 159.308 254.5 162.808 254.5H176.408C179.908 254.5 182.808 251.6 182.808 248.1V241.2C182.808 237.7 182.308 232 181.708 228.5L170.308 162.7C169.708 159.2 166.308 156.4 162.808 156.4H104.808C101.308 156.4 98.8076 159.2 99.2076 162.7L107.508 228.4C107.908 231.9 108.308 237.6 108.308 241.1V248C108.308 251.5 111.208 254.4 114.708 254.4H126.908C130.408 254.4 136.208 254.4 139.708 254.4H150.008V254.5Z" fill="url(#paint8_linear)"/>
<path d="M182.808 234.9L170.308 162.8C169.708 159.3 166.308 156.5 162.808 156.5H104.808C101.308 156.5 98.8076 159.3 99.2076 162.8L108.308 234.8H182.808V234.9Z" fill="url(#paint9_linear)"/>
<path d="M145.408 254.5H112.108V431.4H145.408V254.5Z" fill="#FF9100"/>
<path d="M169.708 254.5H117.508V431.4H169.708V254.5Z" fill="url(#paint10_linear)"/>
<path d="M110.608 220.4L103.508 166.9H166.308L176.608 220.4H110.608Z" fill="#DED4F9"/>
<path d="M169.808 254.5H112.108V259.1H169.808V254.5Z" fill="#FF9100"/>
<path d="M161.308 184H154.508C154.108 184 153.808 183.7 153.808 183.3C153.808 182.9 154.108 182.6 154.508 182.6H161.308C161.708 182.6 162.008 182.9 162.008 183.3C162.108 183.7 161.708 184 161.308 184Z" fill="url(#paint11_linear)"/>
<path d="M121.508 198.8H114.708C114.308 198.8 114.008 198.5 114.008 198.1C114.008 197.7 114.308 197.4 114.708 197.4H121.508C121.908 197.4 122.208 197.7 122.208 198.1C122.208 198.4 121.908 198.8 121.508 198.8Z" fill="url(#paint12_linear)"/>
<path d="M141.408 184H134.608C134.208 184 133.908 183.7 133.908 183.3C133.908 182.9 134.208 182.6 134.608 182.6H141.408C141.808 182.6 142.108 182.9 142.108 183.3C142.108 183.7 141.808 184 141.408 184Z" fill="url(#paint13_linear)"/>
<path d="M166.508 215H159.708C159.308 215 159.008 214.7 159.008 214.3C159.008 213.9 159.308 213.6 159.708 213.6H166.508C166.908 213.6 167.208 213.9 167.208 214.3C167.208 214.7 166.908 215 166.508 215Z" fill="url(#paint14_linear)"/>
<path d="M123.708 215H116.908C116.508 215 116.208 214.7 116.208 214.3C116.208 213.9 116.508 213.6 116.908 213.6H123.708C124.108 213.6 124.408 213.9 124.408 214.3C124.408 214.7 124.108 215 123.708 215Z" fill="url(#paint15_linear)"/>
<path d="M145.808 215H139.008C138.608 215 138.308 214.7 138.308 214.3C138.308 213.9 138.608 213.6 139.008 213.6H145.808C146.208 213.6 146.508 213.9 146.508 214.3C146.608 214.7 146.208 215 145.808 215Z" fill="url(#paint16_linear)"/>
<path d="M167.308 167.3L178.108 220.7L176.708 220.4L166.208 167.3H167.308Z" fill="#D39C20"/>
<path d="M156.608 195.1C155.808 195.1 155.008 194.4 154.908 193.6L154.008 186.6C153.908 185.8 154.508 185.1 155.308 185.1H162.708C163.508 185.1 164.308 185.8 164.308 186.6L165.108 193.5C165.208 194.3 164.608 195 163.808 195H156.608V195.1Z" fill="#D9E1FC"/>
<path d="M159.208 211.3C158.408 211.3 157.608 210.6 157.508 209.8L156.608 202.8C156.508 202 157.108 201.3 157.908 201.3H165.308C166.108 201.3 166.908 202 166.908 202.8L167.708 209.7C167.808 210.5 167.208 211.2 166.408 211.2H159.208V211.3Z" fill="#D9E1FC"/>
<path d="M166.408 212.1H159.108C157.908 212.1 156.708 211.1 156.608 209.9L155.708 202.9C155.608 202.3 155.808 201.6 156.208 201.2C156.608 200.7 157.208 200.5 157.808 200.5H165.208C166.508 200.5 167.608 201.5 167.708 202.7L168.508 209.6C168.608 210.2 168.408 210.9 168.008 211.3C167.708 211.9 167.108 212.1 166.408 212.1ZM157.908 202.2C157.808 202.2 157.608 202.2 157.608 202.3C157.508 202.4 157.508 202.5 157.508 202.7L158.408 209.7C158.408 210.1 158.808 210.4 159.208 210.4H166.508C166.608 210.4 166.808 210.4 166.808 210.3C166.908 210.2 166.908 210.1 166.908 209.9L166.108 203C166.108 202.6 165.708 202.3 165.308 202.3H157.908V202.2Z" fill="url(#paint17_linear)"/>
<path d="M138.608 211.3C137.808 211.3 137.008 210.6 136.908 209.8L136.008 202.8C135.908 202 136.508 201.3 137.308 201.3H144.708C145.508 201.3 146.308 202 146.308 202.8L147.108 209.7C147.208 210.5 146.608 211.2 145.808 211.2H138.608V211.3Z" fill="#D9E1FC"/>
<path d="M145.908 212.1H138.608C137.408 212.1 136.208 211.1 136.108 209.9L135.208 202.9C135.108 202.3 135.308 201.6 135.708 201.2C136.108 200.7 136.708 200.5 137.308 200.5H144.708C146.008 200.5 147.108 201.5 147.208 202.7L148.008 209.6C148.108 210.2 147.908 210.9 147.508 211.3C147.108 211.9 146.508 212.1 145.908 212.1ZM137.308 202.2C137.208 202.2 137.008 202.2 137.008 202.3C136.908 202.4 136.908 202.5 136.908 202.7L137.808 209.7C137.808 210.1 138.208 210.4 138.608 210.4H145.908C146.008 210.4 146.208 210.4 146.208 210.3C146.308 210.2 146.308 210.1 146.308 209.9L145.508 203C145.508 202.6 145.108 202.3 144.708 202.3H137.308V202.2Z" fill="url(#paint18_linear)"/>
<path d="M116.608 211.3C115.808 211.3 115.008 210.6 114.908 209.8L114.008 202.8C113.908 202 114.508 201.3 115.308 201.3H122.708C123.508 201.3 124.308 202 124.308 202.8L125.108 209.7C125.208 210.5 124.608 211.2 123.808 211.2H116.608V211.3Z" fill="#F3FDFF"/>
<g opacity="0.2">
<path opacity="0.2" d="M123.808 213.8H116.508C114.408 213.8 112.608 212.2 112.308 210.1L111.408 203.2C111.308 202.1 111.608 201 112.308 200.1C113.008 199.2 114.108 198.8 115.208 198.8H122.608C124.708 198.8 126.608 200.4 126.808 202.5L127.608 209.4C127.708 210.5 127.408 211.6 126.708 212.4C126.008 213.4 125.008 213.8 123.808 213.8ZM117.408 208.7H122.508L121.908 204H116.808L117.408 208.7Z" fill="white"/>
</g>
<g opacity="0.4">
<path opacity="0.4" d="M123.808 213H116.508C114.808 213 113.308 211.7 113.108 210L112.208 203C112.108 202.1 112.308 201.3 112.908 200.6C113.508 200 114.308 199.6 115.208 199.6H122.608C124.308 199.6 125.808 200.9 126.008 202.6L126.808 209.5C126.908 210.4 126.608 211.2 126.108 211.9C125.508 212.6 124.708 213 123.808 213ZM116.608 209.5H123.408L122.608 203H115.708L116.608 209.5Z" fill="white"/>
</g>
<path d="M123.808 212.1H116.508C115.208 212.1 114.108 211.1 114.008 209.9L113.108 202.9C113.008 202.3 113.208 201.6 113.608 201.2C114.008 200.7 114.608 200.5 115.208 200.5H122.608C123.908 200.5 125.008 201.5 125.108 202.7L125.908 209.6C126.008 210.2 125.808 210.8 125.408 211.3C125.108 211.9 124.508 212.1 123.808 212.1ZM115.308 202.2C115.208 202.2 115.008 202.2 115.008 202.3C114.908 202.4 114.908 202.5 114.908 202.7L115.808 209.7C115.808 210.1 116.208 210.4 116.608 210.4H123.908C124.008 210.4 124.208 210.4 124.208 210.3C124.308 210.2 124.308 210.1 124.308 209.9L123.508 203C123.508 202.6 123.108 202.3 122.708 202.3H115.308V202.2Z" fill="white"/>
<path d="M114.008 195.8C113.208 195.8 112.408 195.1 112.308 194.3L111.408 187.3C111.308 186.5 111.908 185.8 112.708 185.8H120.108C120.908 185.8 121.708 186.5 121.708 187.3L122.508 194.2C122.608 195 122.008 195.7 121.208 195.7H114.008V195.8Z" fill="#D9E1FC"/>
<path d="M121.208 196.7H114.008C112.808 196.7 111.608 195.7 111.508 194.5L110.608 187.5C110.508 186.9 110.708 186.2 111.108 185.8C111.508 185.3 112.108 185.1 112.708 185.1H120.108C121.408 185.1 122.508 186.1 122.608 187.3L123.408 194.2C123.508 194.8 123.308 195.4 122.908 195.9C122.508 196.4 121.908 196.7 121.208 196.7ZM112.708 186.8C112.608 186.8 112.408 186.8 112.408 186.9C112.308 187 112.308 187.1 112.308 187.3L113.208 194.3C113.208 194.7 113.608 195 114.008 195H121.308C121.408 195 121.608 195 121.708 194.9C121.808 194.8 121.808 194.7 121.808 194.5L121.008 187.6C121.008 187.2 120.608 186.9 120.208 186.9H112.708V186.8Z" fill="url(#paint19_linear)"/>
<path d="M136.108 195.8C135.308 195.8 134.508 195.1 134.408 194.3L133.508 187.3C133.408 186.5 134.008 185.8 134.808 185.8H142.208C143.008 185.8 143.808 186.5 143.808 187.3L144.608 194.2C144.708 195 144.108 195.7 143.308 195.7H136.108V195.8Z" fill="#D9E1FC"/>
<path d="M143.408 196.7H136.108C134.908 196.7 133.708 195.7 133.608 194.5L132.708 187.5C132.608 186.9 132.808 186.2 133.208 185.8C133.608 185.3 134.208 185.1 134.808 185.1H142.208C143.508 185.1 144.608 186.1 144.708 187.3L145.508 194.2C145.608 194.8 145.408 195.4 145.008 195.9C144.608 196.4 144.008 196.7 143.408 196.7ZM134.808 186.8C134.708 186.8 134.508 186.8 134.508 186.9C134.408 187 134.408 187.1 134.408 187.3L135.308 194.3C135.408 194.7 135.708 195 136.108 195H143.408C143.508 195 143.708 195 143.708 194.9C143.808 194.8 143.808 194.7 143.808 194.5L143.008 187.6C143.008 187.2 142.608 186.9 142.208 186.9H134.808V186.8Z" fill="url(#paint20_linear)"/>
<path d="M112.108 181.8C111.308 181.8 110.508 181.1 110.408 180.3L109.508 173.3C109.408 172.5 110.008 171.8 110.808 171.8H118.208C119.008 171.8 119.808 172.5 119.808 173.3L120.608 180.2C120.708 181 120.108 181.7 119.308 181.7H112.108V181.8Z" fill="#D9E1FC"/>
<path d="M119.408 182.7H112.108C110.908 182.7 109.708 181.7 109.608 180.5L108.708 173.5C108.608 172.9 108.808 172.3 109.208 171.8C109.608 171.3 110.208 171.1 110.808 171.1H118.208C119.508 171.1 120.608 172.1 120.708 173.3L121.508 180.2C121.608 180.8 121.408 181.4 121.008 181.9C120.608 182.4 120.008 182.7 119.408 182.7ZM110.808 172.8C110.708 172.8 110.508 172.8 110.508 172.9C110.408 173 110.408 173.1 110.408 173.3L111.308 180.3C111.308 180.7 111.708 181 112.108 181H119.408C119.508 181 119.708 181 119.808 180.9C119.908 180.8 119.908 180.7 119.908 180.5L119.108 173.6C119.108 173.2 118.708 172.9 118.308 172.9H110.808V172.8Z" fill="url(#paint21_linear)"/>
<path d="M134.108 181.8C133.308 181.8 132.508 181.1 132.408 180.3L131.508 173.3C131.408 172.5 132.008 171.8 132.808 171.8H140.208C141.008 171.8 141.808 172.5 141.808 173.3L142.608 180.2C142.708 181 142.108 181.7 141.308 181.7H134.108V181.8Z" fill="#D9E1FC"/>
<path d="M141.408 182.7H134.108C132.908 182.7 131.708 181.7 131.608 180.5L130.708 173.5C130.608 172.9 130.808 172.2 131.208 171.8C131.608 171.3 132.208 171.1 132.808 171.1H140.208C141.508 171.1 142.608 172.1 142.708 173.3L143.508 180.2C143.608 180.8 143.408 181.5 143.008 181.9C142.608 182.4 142.008 182.7 141.408 182.7ZM132.808 172.8C132.708 172.8 132.508 172.8 132.508 172.9C132.408 173 132.408 173.1 132.408 173.3L133.308 180.3C133.308 180.7 133.708 181 134.108 181H141.408C141.508 181 141.708 181 141.708 180.9C141.808 180.8 141.808 180.7 141.808 180.5L141.008 173.6C141.008 173.2 140.608 172.9 140.208 172.9H132.808V172.8Z" fill="url(#paint22_linear)"/>
<path d="M154.708 181.8C153.908 181.8 153.108 181.1 153.008 180.3L152.108 173.3C152.008 172.5 152.608 171.8 153.408 171.8H160.808C161.608 171.8 162.408 172.5 162.408 173.3L163.208 180.2C163.308 181 162.708 181.7 161.908 181.7H154.708V181.8Z" fill="#D9E1FC"/>
<path d="M162.008 182.7H154.708C153.408 182.7 152.308 181.7 152.208 180.5L151.308 173.6C151.208 173 151.408 172.3 151.808 171.9C152.208 171.4 152.808 171.2 153.408 171.2H160.808C162.108 171.2 163.208 172.2 163.308 173.4L164.108 180.3C164.208 180.9 164.008 181.6 163.608 182C163.208 182.4 162.608 182.7 162.008 182.7ZM153.408 172.8C153.308 172.8 153.108 172.8 153.108 172.9C153.008 173 153.008 173.1 153.008 173.3L153.908 180.3C153.908 180.7 154.308 181 154.708 181H162.008C162.108 181 162.308 181 162.308 180.9C162.408 180.8 162.408 180.7 162.408 180.5L161.608 173.6C161.608 173.2 161.208 172.9 160.808 172.9H153.408V172.8Z" fill="url(#paint23_linear)"/>
<path d="M163.508 198.8H156.708C156.308 198.8 156.008 198.5 156.008 198.1C156.008 197.7 156.308 197.4 156.708 197.4H163.508C163.908 197.4 164.208 197.7 164.208 198.1C164.308 198.4 163.908 198.8 163.508 198.8Z" fill="#707893"/>
<path d="M143.608 198.8H136.808C136.408 198.8 136.108 198.5 136.108 198.1C136.108 197.7 136.408 197.4 136.808 197.4H143.608C144.008 197.4 144.308 197.7 144.308 198.1C144.408 198.4 144.008 198.8 143.608 198.8Z" fill="#707893"/>
<path opacity="0.3" d="M117.008 220.4H138.908L152.408 166.9H130.508L117.008 220.4Z" fill="#B9B8B4"/>
<path d="M119.308 184H112.508C112.108 184 111.808 183.7 111.808 183.3C111.808 182.9 112.108 182.6 112.508 182.6H119.308C119.708 182.6 120.008 182.9 120.008 183.3C120.008 183.7 119.708 184 119.308 184Z" fill="url(#paint24_linear)"/>
<path d="M155.008 242H139.508V245.4H155.008V242Z" fill="#42413F"/>
<path d="M154.308 242.8V244.8H140.308V242.8H154.308ZM155.808 241.3H154.308H140.308H138.808V242.8V244.8V246.3H140.308H154.308H155.808V244.8V242.8V241.3Z" fill="#8E8576"/>
<g opacity="0.4">
<path opacity="0.4" d="M176.608 220.5H110.608V222H176.608V220.5Z" fill="#FFDF5A"/>
</g>
<path opacity="0.1" d="M170.308 162.8C169.708 159.3 166.308 156.5 162.808 156.5H141.708C142.108 168.7 142.608 181.7 140.808 187.5C140.208 189.2 129.508 190.1 129.208 190.3C127.708 192.1 124.708 192.2 123.108 192.6L120.008 202.7C121.508 202.6 146.308 213 146.308 213C146.308 213 146.508 213.3 146.508 219.7C146.508 222.2 145.508 223.7 144.708 226.1C144.308 227.3 144.008 228.6 143.908 229.9C143.808 229.9 143.808 229.9 143.708 229.9C142.508 230.2 142.008 231.1 142.008 232.2C141.708 236.5 140.808 240.8 141.008 245.1C141.108 246.6 141.508 248.7 141.708 249.1C141.708 250.8 141.608 252.5 141.808 254.1C141.908 255 142.008 255.9 142.008 256.8C143.908 281.9 146.108 298.8 147.408 307.2C147.608 310.2 147.908 311.4 148.408 312.4C148.708 313.7 148.908 314 148.808 313.1C148.908 313.8 149.008 314.4 149.108 315.1C150.208 323.7 150.708 338.9 151.508 347.5C152.508 359 153.908 380 155.608 391.4C156.508 397.4 156.908 403.4 156.908 409.5C156.908 412.3 157.008 415.9 154.608 418C154.508 418.4 154.508 418.8 154.508 419.1C154.408 418.5 154.508 418 154.508 417.3C151.708 421.1 148.608 424.4 144.208 426.3C142.708 426.9 141.308 427.8 139.908 428.6C139.008 429.1 138.008 429.5 138.108 430.7C138.108 430.9 138.108 431.1 138.208 431.3H145.408H169.808V392C169.708 393.7 169.608 395.3 169.608 397C169.408 402.2 169.308 407.4 168.608 412.6C168.408 414.2 168.208 415.9 167.108 417.2L167.008 417.3C166.808 410.8 167.508 404.3 167.608 397.7C167.708 390.6 167.708 383.6 167.308 376.5C166.908 370.5 166.508 355 165.508 349.1C164.808 344.7 164.408 340.4 165.008 335.9C165.508 331.8 166.308 322 165.908 317.1C165.908 317.2 166.008 317.2 166.008 317.2C166.008 316.2 165.908 314.6 165.808 313.4C167.208 313.4 168.508 313.4 169.908 313.4V259.1V254.5H176.608C180.108 254.5 183.008 251.6 183.008 248.1V241.2C183.008 239.4 182.908 237.1 182.708 234.8H183.008L170.308 162.8ZM152.508 230.4C152.508 230.3 152.608 230.3 152.508 230.4C152.608 230.4 152.608 230.4 152.608 230.4H152.508Z" fill="#154662"/>
<path opacity="0.4" d="M104.266 170.436L102.779 170.633L109.829 224.069L111.316 223.873L104.266 170.436Z" fill="#FFDF5A"/>
<path fill-rule="evenodd" clip-rule="evenodd" d="M184.908 98.3998C185.108 97.3998 186.008 97.3998 186.108 96.5998C186.308 95.8998 186.408 95.4998 186.908 95.3998C189.508 95.0998 189.608 102.2 189.108 105.3C188.608 108.4 190.108 106.6 190.308 106.5C191.408 106.1 191.808 107.3 192.508 108.1C195.808 112 200.108 114 205.208 114.6C207.408 114.9 209.508 115.2 211.708 114.4C212.408 114.1 213.108 113.8 213.508 113.2C213.408 114.7 212.908 116.2 213.008 117.7C213.008 119.7 212.508 122.7 211.808 122.7C211.408 122.7 210.908 122.8 210.508 122.7C205.908 122.4 200.608 125.6 196.108 125.8C195.808 125.8 196.008 120.6 196.108 120.9C196.208 121.2 195.708 121.1 195.308 121.2C194.908 121.2 194.008 121.1 193.808 120.8C190.808 119.1 189.208 116.3 188.008 113.2C186.408 109.7 184.808 99.2998 184.908 98.3998Z" fill="#FBBE52"/>
<path fill-rule="evenodd" clip-rule="evenodd" d="M211.608 114.4C209.408 115.2 207.308 114.8 205.108 114.6C203.208 114.4 201.408 113.9 199.808 113.3C200.508 115.1 200.708 120 200.308 123.1C203.608 122.7 207.008 122.6 210.408 122.8C210.808 122.8 212.008 122.8 212.408 122.8C213.108 122.7 212.608 115.7 213.408 113.3C213.008 113.8 212.408 114.2 211.608 114.4Z" fill="#F3AD6C"/>
<path fill-rule="evenodd" clip-rule="evenodd" d="M223.608 93.7999C223.608 93.6999 223.508 93.4999 223.508 93.3999C223.308 92.7999 223.008 92.1999 222.808 91.5999C222.508 90.8999 222.308 90.1999 222.308 89.5999C220.508 90.4999 218.508 90.9999 216.508 91.3999C214.608 91.7999 212.608 91.5999 210.708 91.1999C210.008 90.9999 209.408 91.1999 209.508 90.3999C209.608 89.5999 210.208 89.3999 211.008 89.3999C212.208 89.3999 213.508 89.3999 214.708 89.3999C216.208 89.3999 218.308 88.6999 219.408 87.9999C216.508 87.6999 213.708 87.7999 210.908 86.5999C206.608 84.8999 204.508 81.3999 202.908 77.3999C202.608 76.6999 202.408 76.0999 202.308 75.3999C200.308 75.5999 198.308 75.7999 196.308 75.9999C196.108 77.3999 196.008 78.7999 195.808 80.1999C195.808 80.4999 195.808 80.8999 195.708 81.1999C195.608 79.4999 195.808 77.6999 196.108 75.9999C193.508 76.2999 187.408 78.0999 186.808 78.8999C181.808 85.8999 184.108 93.5999 184.508 95.6999C185.108 98.7999 184.008 97.4999 185.108 99.3999C185.808 99.2999 185.608 99.2999 185.908 98.8999C186.008 98.6999 186.008 98.4999 186.008 98.2999C186.408 97.4999 186.008 95.9999 187.208 95.9999C188.308 95.9999 188.308 97.4999 188.508 98.4999C188.808 100.9 189.108 103.2 188.808 105.6C188.608 107.2 188.908 107.5 190.408 107.5C191.208 107.5 191.808 107.8 192.308 108.4C192.708 109 193.208 109.5 193.808 110C197.808 113.5 202.508 115 207.608 115.3C209.108 115.4 210.708 115.3 212.108 114.7C212.808 114.4 213.308 114 213.508 113.2C213.908 113 216.908 110.6 217.508 106.8C218.608 105.3 223.008 100.9 223.408 94.1999C223.408 93.9999 223.508 93.8999 223.608 93.7999Z" fill="#FBBE52"/>
<path d="M127.108 206.5C127.008 206.4 126.908 206.4 126.808 206.3C126.308 205.7 126.408 205.4 127.108 204.8C127.708 204.3 128.908 202.7 129.508 202.2C129.808 201.9 130.008 201.6 129.608 201.2C129.408 201 129.408 200.8 129.308 200.5C129.208 200.2 129.108 199.9 128.908 199.6C128.508 199 128.608 197.4 128.908 196.9C129.408 195.9 131.108 194.4 131.208 194.2C131.708 193.8 135.008 192 136.608 192.2C137.608 192.3 139.908 194.9 140.408 195.9C140.408 196.3 140.808 196.5 140.908 196.8C141.208 197.5 141.108 198.1 140.608 198.7C140.508 198.8 140.408 199 140.408 199.2C140.408 199.3 140.408 199.5 140.308 199.6C139.608 200.4 139.208 201.4 138.608 202.2C138.208 202.7 137.808 203.2 137.308 203.6C136.908 204 136.408 204 135.908 203.9C135.308 203.8 134.708 203.6 134.108 203.4C133.708 203.3 133.408 203.3 133.108 203.4C132.108 203.8 130.508 205.4 129.508 206C128.608 206.6 127.908 206.8 127.108 206.5Z" fill="white"/>
<path d="M126.808 206C126.708 205.9 126.608 205.9 126.508 205.8C126.008 205.2 126.108 204.9 126.808 204.3C127.408 203.8 128.608 202.2 129.208 201.7C129.508 201.4 129.708 201.1 129.308 200.7C129.108 200.5 129.108 200.3 129.008 200C128.908 199.7 128.808 199.4 128.608 199.1C128.208 198.5 128.308 196.9 128.608 196.4C129.108 195.4 130.808 193.9 130.908 193.7C131.408 193.3 134.708 191.5 136.308 191.7C137.308 191.8 139.608 194.4 140.108 195.4C140.108 195.8 140.508 196 140.608 196.3C140.908 197 140.808 197.6 140.308 198.2C140.208 198.3 140.108 198.5 140.108 198.7C140.108 198.8 140.108 199 140.008 199.1C139.308 199.9 138.908 200.9 138.308 201.7C137.908 202.2 137.508 202.7 137.008 203.1C136.608 203.5 136.108 203.5 135.608 203.4C135.008 203.3 134.408 203.1 133.808 202.9C133.408 202.8 133.108 202.8 132.808 202.9C131.808 203.3 130.208 204.9 129.208 205.5C128.308 206.1 127.608 206.3 126.808 206Z" fill="#FBBE52"/>
<path fill-rule="evenodd" clip-rule="evenodd" d="M231.908 212.3C232.008 217.7 232.208 222.2 232.508 227.6C232.808 231.6 233.008 238.8 232.708 242.8C232.008 243.3 231.308 240.9 230.608 241C226.008 240.1 221.308 239.4 216.708 238.8C210.208 237.9 203.608 236.4 197.208 235.5C194.908 235.2 192.908 235 191.408 235C190.908 235 190.908 234.1 190.708 233.6C190.408 233 190.908 232.6 191.208 232.2C191.708 231.6 192.108 231.7 192.708 231.1C191.808 231.6 186.508 234.6 189.008 232.9C187.108 233.5 187.108 231.8 187.008 229.8C186.908 226.3 187.508 223.8 187.808 220.3C188.008 217.3 188.108 214.3 188.308 211.3C188.508 207.2 189.108 214.3 189.208 210.2C189.308 206.6 189.608 203.1 189.408 199.5C189.208 196.7 189.208 193.8 189.108 191C188.808 185.8 187.908 180.6 187.708 175.4C187.608 171.1 187.708 166.9 188.508 162.7C188.608 162 188.608 161.3 187.908 160.9C187.308 166.7 187.308 172.5 186.208 178.2C185.708 179 184.808 179.9 184.808 180.9C184.608 181.5 182.608 188.1 181.608 193.1C180.708 196.2 179.108 198.5 177.108 200C175.008 201.5 172.308 202 168.208 202.7C167.608 202.8 169.808 201.2 169.208 201.3C166.308 201.8 165.208 200.8 165.708 197.9C166.008 196.2 166.808 194.8 167.608 193.4C170.108 189.3 167.208 187 169.708 182.9C173.608 176.6 172.908 180.3 173.808 173C174.808 165.2 176.508 157.4 179.208 150C180.808 145.8 183.008 141.9 186.408 138.8C191.208 134.4 197.008 131.8 203.508 131.2C206.508 130.9 209.608 130.6 212.608 130.1C213.208 130 213.708 130.1 214.308 130C214.708 129.9 214.108 129.9 214.208 129.8C214.908 128.9 216.008 128.9 216.808 128.2C222.308 130.1 227.608 132.4 231.408 137.2C234.308 141 236.608 145.3 237.608 149.9C240.708 162.9 245.408 175.4 248.508 188.4C249.108 191.1 249.408 193.8 249.608 196.5C249.708 197.9 249.408 199.3 248.608 200.4C246.408 203.7 243.408 206 239.508 207C239.408 206.3 240.008 206.1 240.308 205.8C241.608 204.8 242.708 203.6 244.008 202.6C244.608 202.1 244.608 201.6 243.808 201.3C242.308 200.8 241.608 199.6 240.908 198.3C239.008 194.7 237.808 190.9 236.808 187C235.208 181 233.308 175.2 231.708 169.2C231.308 167.6 231.008 166 231.808 164.4C232.108 163.9 232.108 163.2 231.708 162.7C230.208 160.9 230.208 159 231.208 156.9C231.308 156.7 231.308 156.5 231.208 156.3C230.308 156.7 229.908 157.3 229.908 158.6C230.008 162.7 230.108 166.8 230.408 170.9C230.908 177.4 231.608 183.8 230.908 190.3C230.808 191.6 230.908 192.9 231.308 194.2C232.008 196.5 234.408 198.9 233.908 201.3C233.808 204.1 231.908 211.3 231.908 212.3Z" fill="url(#paint25_linear)"/>
<path fill-rule="evenodd" clip-rule="evenodd" d="M185.008 181C185.508 177.8 187.908 170.3 187.408 160.5C189.308 161.2 189.708 162 189.208 163.7C188.908 164.6 188.808 165.7 188.708 166.6C188.308 173.1 189.308 179.5 189.708 186C189.908 190 190.008 194 190.208 198C190.308 201.8 190.208 205.7 190.108 209.5C189.908 215 187.608 225.1 187.908 230.7C188.008 232.3 188.608 232.7 190.108 232.2C191.608 231.7 193.108 230.9 194.608 230.3C194.708 230.4 194.808 230.5 194.908 230.6C193.608 231.7 192.308 232.7 191.008 233.8C204.708 235.9 220.008 238.2 233.308 240.2C233.608 241.4 233.708 243.7 233.108 243.8C228.608 243.8 220.508 239.9 216.108 239.5C214.208 239.3 212.308 239.1 210.508 239C209.408 238.7 208.208 238.7 207.108 238.4C206.808 238.4 206.608 238.3 206.308 238.3C204.408 237.9 202.508 237.7 200.608 237.5C196.108 236.7 191.508 236.1 186.908 235.6C185.408 235.5 183.708 236.1 182.308 235.1C182.408 233.2 182.708 231.3 183.308 229.5C184.108 227.1 185.108 225.6 185.108 223.1C185.108 215.5 188.208 202.5 184.908 186.7C184.608 186.4 184.608 182.6 185.008 181Z" fill="url(#paint26_linear)"/>
<path fill-rule="evenodd" clip-rule="evenodd" d="M193.008 420.9C192.808 422.4 192.908 423.8 194.208 425C195.508 426.1 196.408 426.3 198.008 425.4C199.908 423.9 202.008 422.8 204.508 422.8C205.508 422.9 206.208 423.4 206.408 424.4C206.708 425.5 207.208 426.6 207.608 427.7C207.708 430.6 207.108 433.2 205.508 435.7C204.908 436.6 205.408 436.7 206.208 436.8C207.208 436.8 208.208 436.5 209.108 437.2C205.608 437.7 202.108 437.2 198.608 437.3C198.208 437.3 197.908 437 197.808 436.7C197.408 435.2 196.608 435.7 195.708 436.1C193.308 437 190.708 437.4 188.208 437.8C186.508 437.8 184.808 437.8 183.108 437.8C181.508 437.7 179.808 437.6 178.408 436.8C177.508 436.3 176.608 435.6 176.608 434.4C176.508 433.1 177.508 432.7 178.408 432.3C179.808 431.5 181.208 430.7 182.708 430C187.108 428.1 190.208 424.7 193.008 420.9Z" fill="#512DA8"/>
<path fill-rule="evenodd" clip-rule="evenodd" d="M141.408 191.7C141.208 192 140.808 192 140.408 192.1C137.408 192.4 135.508 194.6 135.508 197.5C134.208 198.1 133.008 197.7 132.308 196.4C131.408 194.7 131.408 193 132.308 191.3V191.2C135.008 189.8 137.708 190.2 140.408 191C140.808 191.2 141.208 191.3 141.408 191.7Z" fill="#D9E1FC"/>
<path fill-rule="evenodd" clip-rule="evenodd" d="M132.308 191.4C132.108 192.6 131.808 193.8 132.208 195.1C132.808 197.1 133.208 197.5 135.508 197.6C135.808 199.9 138.008 200.4 139.308 201.8C137.808 202.7 136.408 201.8 134.908 201.6C134.408 201.5 134.008 201.4 133.608 201.2C129.908 198.9 130.008 195.4 132.308 191.4Z" fill="#B2A5A5"/>
<path fill-rule="evenodd" clip-rule="evenodd" d="M212.608 129.6C209.308 129.4 205.908 129.6 202.608 129.5C201.408 129.6 200.308 129.2 199.208 129.4C191.408 130.3 177.008 139.1 173.508 155.8C171.808 163.6 170.508 168.4 169.208 176.3C168.608 180 168.308 184.3 166.408 186.5C164.908 188.3 161.908 188.4 160.308 188.8C156.708 189.9 145.808 191.8 141.408 191.7C137.708 191.5 134.908 194.2 135.208 197.6C135.608 199.9 137.308 201 139.308 201.7C143.508 203.6 158.908 203.2 165.808 202.9C167.308 202.8 173.808 202.5 177.208 199.9C177.708 199.5 173.308 199.3 172.008 195.9C170.808 192.7 174.008 174.9 174.508 172.4C175.608 166.9 176.708 161.3 178.208 155.8C180.708 146.3 185.008 138.3 194.508 134.1C197.408 132.8 200.408 131.7 203.708 131.5C206.908 131.3 214.908 131 216.808 128.8C216.908 128.3 213.008 129.7 212.608 129.6Z" fill="url(#paint27_linear)"/>
<path fill-rule="evenodd" clip-rule="evenodd" d="M210.808 316.2C210.008 316.6 209.908 317.3 210.008 318.1C210.408 321.7 210.108 332 209.508 335.6C208.408 342.6 208.308 349.7 208.908 356.7C209.408 362.4 209.008 377.5 208.708 383.1C208.408 388.9 208.008 394.7 207.908 400.5C207.708 405.7 207.608 410.9 206.908 416.1C206.708 417.7 206.508 419.4 205.408 420.7C204.808 421.5 204.708 422.3 204.708 423.2C205.808 423.3 206.108 424.1 206.408 425C206.708 425.9 206.608 427 207.608 427.6C208.908 428.1 211.708 426.7 212.608 425.1C214.508 425.1 216.208 424.3 218.008 423.6C218.108 423.6 218.108 423.4 218.108 423.3C218.108 423 218.108 422.7 218.108 422.4C217.708 417.2 217.208 412.1 218.308 406.9C219.808 399.4 221.308 391.9 222.708 384.5C224.408 375.9 225.008 357.7 224.708 348.9C224.708 347.8 224.408 346.8 224.608 345.6C225.308 341.6 225.808 337.6 226.308 333.6C226.708 330.8 226.908 321.4 227.208 318.7C227.208 318 227.208 317.3 227.308 316.6C221.608 316.7 216.208 316.4 210.808 316.2Z" fill="#F2AA41"/>
<path fill-rule="evenodd" clip-rule="evenodd" d="M232.908 207.9C232.308 205.4 231.408 203 232.108 200.4C232.608 198.5 232.208 196.6 231.708 194.8C231.308 193.4 231.108 192 231.208 190.6C231.908 183.9 231.208 177.2 230.608 170.5C230.308 166.6 230.308 162.6 230.108 158.7C230.108 157.8 230.508 156.9 231.008 156C231.308 155.5 231.708 155.3 232.208 155.7C232.708 156 232.908 156.4 232.608 156.9C231.108 159 231.208 161 233.008 162.9C233.508 163.5 233.408 163.9 233.008 164.5C232.208 165.8 232.208 167.2 232.608 168.7C234.308 174.5 235.908 180.3 237.608 186.1C238.808 190.5 240.108 194.9 242.408 198.9C243.008 200 243.808 200.8 245.008 201C246.408 201.3 247.608 201.8 247.108 202.8C246.108 204.7 243.508 205.9 240.208 207C236.708 208 233.108 208.5 232.908 207.9Z" fill="url(#paint28_linear)"/>
<path fill-rule="evenodd" clip-rule="evenodd" d="M207.408 427.6C209.508 427.6 210.808 425.9 212.408 425.1C214.108 424.2 216.008 424 217.808 423.4C218.508 423.6 218.908 423.9 219.108 424.6C220.108 428.6 220.508 432.5 218.608 436.4C218.208 437.2 217.708 437.3 217.008 437.3C214.308 437.2 211.708 437.2 209.008 437.1C207.508 437.1 206.008 437.1 204.208 437.1C204.808 435.8 205.308 434.8 205.808 433.8C206.808 432.1 207.308 430.4 206.808 428.4C206.808 427.9 206.908 427.7 207.408 427.6Z" fill="#4F399E"/>
<path fill-rule="evenodd" clip-rule="evenodd" d="M215.608 125.2C209.908 125.4 204.308 126.1 198.708 125.8C196.608 125.7 194.608 125.3 193.808 122.9C196.908 122.1 199.908 121.5 203.108 121.3C205.808 121.1 208.608 121.1 211.308 121.3C212.908 121.4 214.308 120.9 215.108 121.7C215.708 122.5 215.508 124.1 215.608 125.2Z" fill="#F8E4D5"/>
<path fill-rule="evenodd" clip-rule="evenodd" d="M198.308 282.1C203.508 281.3 208.208 279 212.908 276.7C213.708 276.3 214.408 276.3 215.308 276.8C217.708 278.2 220.108 279.8 223.008 280.7C221.908 281.9 220.908 282.5 219.508 282.1C218.308 281.8 217.108 281.6 215.908 281.1C214.308 280.5 212.708 280.6 211.008 281.2C206.808 282.6 202.508 282.4 198.308 282.1Z" fill="#17324A"/>
<path fill-rule="evenodd" clip-rule="evenodd" d="M205.508 380C205.108 374 204.708 358.5 203.708 352.6C203.008 348.2 202.608 343.9 203.208 339.4C203.708 335.3 204.508 325.5 204.108 320.6C204.108 320.7 204.208 320.7 204.208 320.7C204.308 319.4 204.008 317.2 204.008 315.9C198.408 315.6 192.808 316.1 187.308 316.5C187.408 317.2 187.508 317.8 187.608 318.5C188.708 327.1 189.208 342.3 190.008 350.9C191.008 362.4 192.408 383.4 194.108 394.8C195.008 400.8 195.408 406.8 195.408 412.9C195.408 415.7 195.508 419.3 193.108 421.4C192.608 423.9 193.108 424.8 194.808 425.8C196.108 426.5 197.208 426.3 198.008 425.2C198.608 424.9 199.108 424.7 199.708 424.5C201.308 423.9 202.708 422.7 204.608 423C205.308 422.4 205.208 421.5 205.308 420.7C205.108 414.1 205.808 407.6 205.908 401C205.808 394.1 205.908 387.1 205.508 380Z" fill="#FBBE52"/>
<path fill-rule="evenodd" clip-rule="evenodd" d="M232.408 257C231.708 256.5 231.008 257 230.308 257C224.008 256.6 217.808 256.2 211.608 255.6C203.508 254.7 195.708 252.5 187.708 251.2C185.608 250.9 183.508 250.6 181.408 250.9C180.508 251 180.308 251.4 180.308 252.2C180.308 254 179.508 250.7 179.408 248.6C179.208 244.3 180.108 240 180.408 235.7C180.508 234.6 181.008 233.7 182.108 233.4C183.708 233.4 187.308 234.2 188.908 234.3C189.108 235 187.008 234.9 187.108 235.6C187.008 238.7 186.708 241.9 186.508 245C186.408 246.8 187.108 248.1 188.608 248.9C189.608 249.4 190.708 249.6 191.808 249.8C200.608 251.3 209.508 252.5 218.508 253C222.608 253.2 226.708 253.1 230.808 252.9C232.008 252.8 233.008 251.9 234.308 252.4C234.408 254.2 234.408 256 232.408 257Z" fill="url(#paint29_linear)"/>
<path fill-rule="evenodd" clip-rule="evenodd" d="M234.308 252.3C229.408 253.9 224.408 253.7 219.408 253.3C217.308 253.1 215.208 253 213.108 252.9C208.708 252.7 204.308 252 200.008 251.4C196.808 251 193.608 250.4 190.408 249.9C187.608 249.4 185.708 247.5 186.008 245.2C186.208 244 186.208 242.8 186.308 241.6C186.508 239.4 186.708 237.2 186.908 235.1C187.408 234.3 188.208 234.3 189.008 234.3C191.208 234.2 193.408 234.8 195.608 235.1C196.908 235.3 198.208 235.4 199.508 235.6C201.408 236 208.608 237.1 209.508 237.2C217.108 238.2 224.608 239.7 232.208 240.4C233.008 240.5 233.908 240.5 234.508 241.2C234.308 244.8 234.308 248.6 234.308 252.3Z" fill="url(#paint30_linear)"/>
<path fill-rule="evenodd" clip-rule="evenodd" d="M232.508 257.7C233.908 261.7 233.408 267.8 232.508 271.8C231.008 278.9 228.808 302.5 227.908 310.1C227.608 312.3 227.708 314.5 227.108 316.7C226.708 317 188.108 317.3 187.308 316.7C186.408 315.3 186.108 314.3 185.808 308.8C185.508 302.4 184.008 284.6 184.408 278.2C184.708 274.6 184.908 270.9 184.808 267.3C184.708 264.4 184.908 261.5 185.108 258.6C185.208 256.3 185.708 255.8 187.908 255.4C191.208 254.8 194.408 255 197.608 255.7C203.508 257 209.508 258 215.608 258.5C219.808 258.8 224.008 258.6 228.208 258.1C229.608 257.7 231.008 257.7 232.508 257.7Z" fill="url(#paint31_linear)"/>
<path fill-rule="evenodd" clip-rule="evenodd" d="M232.508 257.7C232.208 258.1 231.908 258.2 231.408 258.2C227.808 258.2 224.208 258.9 220.508 258.9C213.108 258.9 205.808 257.8 198.608 256.2C195.008 255.4 191.308 255.1 187.608 255.7C186.208 255.9 185.408 256.4 185.408 258.1C185.308 264.7 185.208 271.3 184.708 277.8C184.208 284 186.808 310.3 187.108 316.5C187.208 320.3 183.408 301.4 180.308 260.2C180.208 259.3 180.208 258.4 180.108 257.5C179.908 255.6 180.108 253.7 180.008 251.8C180.008 251 180.508 250.8 181.108 250.7C182.308 250.4 183.508 250.3 184.708 250.5C188.808 250.9 192.808 251.7 196.908 252.6C204.908 254.3 213.008 255.5 221.208 255.9C224.608 256 232.408 256.4 232.408 256.4C232.408 256.4 232.308 256.5 232.508 257C232.408 257.2 232.408 257.4 232.508 257.7Z" fill="#4F399E"/>
<path fill-rule="evenodd" clip-rule="evenodd" d="M223.708 274.5C221.508 273.7 219.608 272.5 217.708 271.3C216.408 270.5 215.408 270.5 214.008 271.1C210.108 273 206.208 274.9 201.908 275.7C201.408 275.7 200.808 275.7 200.308 276.2C201.208 276.5 202.808 276.2 202.808 276.3C205.108 276.4 207.408 276.6 209.608 275.9C213.308 274.7 221.308 276.1 221.808 276.2C222.608 276.3 223.208 276 223.908 275.6C224.608 275.2 224.508 274.8 223.708 274.5Z" fill="#4F399E"/>
<path fill-rule="evenodd" clip-rule="evenodd" d="M224.608 91.8998C224.608 104 215.408 111.4 205.308 112.5C183.508 114.9 193.208 99.1998 187.708 94.8998C185.108 92.8998 187.508 102 186.508 102.1C185.908 102.2 185.508 95.7998 185.308 93.6998C185.008 91.6998 183.608 91.6998 183.608 89.5998C183.608 77.4998 192.608 69.1998 203.808 69.3998C217.408 69.6998 224.608 79.7998 224.608 91.8998Z" fill="#512DA8"/>
<path fill-rule="evenodd" clip-rule="evenodd" d="M215.708 79.7998C221.408 84.1998 224.008 79.3998 225.108 91.9998C225.808 99.4998 227.808 105.4 227.608 114.6C227.508 120.8 223.308 130.4 223.308 130.6C223.308 130.8 220.308 129.6 212.808 130.1C203.908 130.7 186.408 132 186.408 132C186.408 132 189.808 126.3 190.108 119.9C190.408 112.6 190.208 105.7 189.908 102L215.708 79.7998Z" fill="#512DA8"/>
<path fill-rule="evenodd" clip-rule="evenodd" d="M196.008 71.8999C192.308 72.9999 179.508 74.7999 182.108 93.4999C182.308 93.4999 183.008 94.0999 184.208 94.3999C184.208 94.3999 183.708 92.0999 184.108 92.0999C185.308 92.0999 188.708 94.0999 191.108 93.2999C198.108 90.9999 200.608 84.8999 200.608 84.5999C200.608 84.1999 200.608 79.8999 200.608 79.8999L196.008 71.8999Z" fill="#512DA8"/>
<defs>
<linearGradient id="paint0_linear" x1="480.552" y1="309.693" x2="397.271" y2="325.873" gradientUnits="userSpaceOnUse">
<stop offset="0.2222" stop-color="#512DA8"/>
<stop offset="0.4402" stop-color="#5632AB"/>
<stop offset="0.7084" stop-color="#6540B4"/>
<stop offset="1" stop-color="#7E57C2"/>
</linearGradient>
<linearGradient id="paint1_linear" x1="421.262" y1="312.78" x2="475.991" y2="318.015" gradientUnits="userSpaceOnUse">
<stop offset="0.2222" stop-color="#512DA8"/>
<stop offset="0.418" stop-color="#5632AB"/>
<stop offset="0.6588" stop-color="#6540B4"/>
<stop offset="0.9206" stop-color="#7E57C2"/>
</linearGradient>
<linearGradient id="paint2_linear" x1="424.521" y1="163.46" x2="442.82" y2="163.46" gradientUnits="userSpaceOnUse">
<stop stop-color="#E88306"/>
<stop offset="0.9133" stop-color="#F7D209"/>
<stop offset="1" stop-color="#F8DA09"/>
</linearGradient>
<linearGradient id="paint3_linear" x1="437.626" y1="121.5" x2="448.014" y2="121.5" gradientUnits="userSpaceOnUse">
<stop stop-color="#E88306"/>
<stop offset="0.9133" stop-color="#F7D209"/>
<stop offset="1" stop-color="#F8DA09"/>
</linearGradient>
<linearGradient id="paint4_linear" x1="302.585" y1="174.353" x2="356.743" y2="174.353" gradientUnits="userSpaceOnUse">
<stop offset="0.2169" stop-color="#C6B4ED"/>
<stop offset="0.4445" stop-color="#C3B0EC"/>
<stop offset="0.6564" stop-color="#B9A5E8"/>
<stop offset="0.8614" stop-color="#A892E2"/>
<stop offset="0.9153" stop-color="#A38CE0"/>
</linearGradient>
<linearGradient id="paint5_linear" x1="300.359" y1="266.429" x2="369.275" y2="266.429" gradientUnits="userSpaceOnUse">
<stop offset="0.2169" stop-color="#C6B4ED"/>
<stop offset="0.4445" stop-color="#C3B0EC"/>
<stop offset="0.6564" stop-color="#B9A5E8"/>
<stop offset="0.8614" stop-color="#A892E2"/>
<stop offset="0.9153" stop-color="#A38CE0"/>
</linearGradient>
<linearGradient id="paint6_linear" x1="262.409" y1="166.314" x2="286.314" y2="166.314" gradientUnits="userSpaceOnUse">
<stop offset="0.0793651" stop-color="#422796"/>
<stop offset="0.5608" stop-color="#512DA8"/>
<stop offset="0.6727" stop-color="#5530AA"/>
<stop offset="0.7774" stop-color="#603BB1"/>
<stop offset="0.879" stop-color="#734DBC"/>
<stop offset="0.9247" stop-color="#7E57C2"/>
</linearGradient>
<linearGradient id="paint7_linear" x1="263.523" y1="165.283" x2="287.428" y2="165.283" gradientUnits="userSpaceOnUse">
<stop offset="0.2169" stop-color="#C6B4ED"/>
<stop offset="0.4445" stop-color="#C3B0EC"/>
<stop offset="0.6564" stop-color="#B9A5E8"/>
<stop offset="0.8614" stop-color="#A892E2"/>
<stop offset="0.9153" stop-color="#A38CE0"/>
</linearGradient>
<linearGradient id="paint8_linear" x1="99.1542" y1="205.499" x2="230.595" y2="205.499" gradientUnits="userSpaceOnUse">
<stop stop-color="#FFC400"/>
<stop offset="1" stop-color="#FF9100"/>
</linearGradient>
<linearGradient id="paint9_linear" x1="99.1542" y1="195.684" x2="182.784" y2="195.684" gradientUnits="userSpaceOnUse">
<stop stop-color="#FFC400"/>
<stop offset="1" stop-color="#FF9100"/>
</linearGradient>
<linearGradient id="paint10_linear" x1="117.549" y1="342.958" x2="201.044" y2="342.958" gradientUnits="userSpaceOnUse">
<stop stop-color="#FFC400"/>
<stop offset="1" stop-color="#FF9100"/>
</linearGradient>
<linearGradient id="paint11_linear" x1="153.768" y1="183.281" x2="162.066" y2="183.281" gradientUnits="userSpaceOnUse">
<stop offset="0.0793651" stop-color="#422796"/>
<stop offset="0.5608" stop-color="#512DA8"/>
<stop offset="0.6727" stop-color="#5530AA"/>
<stop offset="0.7774" stop-color="#603BB1"/>
<stop offset="0.879" stop-color="#734DBC"/>
<stop offset="0.9247" stop-color="#7E57C2"/>
</linearGradient>
<linearGradient id="paint12_linear" x1="113.942" y1="198.031" x2="122.239" y2="198.031" gradientUnits="userSpaceOnUse">
<stop offset="0.0793651" stop-color="#422796"/>
<stop offset="0.5608" stop-color="#512DA8"/>
<stop offset="0.6727" stop-color="#5530AA"/>
<stop offset="0.7774" stop-color="#603BB1"/>
<stop offset="0.879" stop-color="#734DBC"/>
<stop offset="0.9247" stop-color="#7E57C2"/>
</linearGradient>
<linearGradient id="paint13_linear" x1="133.855" y1="183.281" x2="142.153" y2="183.281" gradientUnits="userSpaceOnUse">
<stop offset="0.0793651" stop-color="#422796"/>
<stop offset="0.5608" stop-color="#512DA8"/>
<stop offset="0.6727" stop-color="#5530AA"/>
<stop offset="0.7774" stop-color="#603BB1"/>
<stop offset="0.879" stop-color="#734DBC"/>
<stop offset="0.9247" stop-color="#7E57C2"/>
</linearGradient>
<linearGradient id="paint14_linear" x1="158.931" y1="214.255" x2="167.229" y2="214.255" gradientUnits="userSpaceOnUse">
<stop offset="0.0793651" stop-color="#422796"/>
<stop offset="0.5608" stop-color="#512DA8"/>
<stop offset="0.6727" stop-color="#5530AA"/>
<stop offset="0.7774" stop-color="#603BB1"/>
<stop offset="0.879" stop-color="#734DBC"/>
<stop offset="0.9247" stop-color="#7E57C2"/>
</linearGradient>
<linearGradient id="paint15_linear" x1="116.155" y1="214.255" x2="124.452" y2="214.255" gradientUnits="userSpaceOnUse">
<stop offset="0.0793651" stop-color="#422796"/>
<stop offset="0.5608" stop-color="#512DA8"/>
<stop offset="0.6727" stop-color="#5530AA"/>
<stop offset="0.7774" stop-color="#603BB1"/>
<stop offset="0.879" stop-color="#734DBC"/>
<stop offset="0.9247" stop-color="#7E57C2"/>
</linearGradient>
<linearGradient id="paint16_linear" x1="138.28" y1="214.255" x2="146.578" y2="214.255" gradientUnits="userSpaceOnUse">
<stop offset="0.0793651" stop-color="#422796"/>
<stop offset="0.5608" stop-color="#512DA8"/>
<stop offset="0.6727" stop-color="#5530AA"/>
<stop offset="0.7774" stop-color="#603BB1"/>
<stop offset="0.879" stop-color="#734DBC"/>
<stop offset="0.9247" stop-color="#7E57C2"/>
</linearGradient>
<linearGradient id="paint17_linear" x1="155.724" y1="206.326" x2="168.61" y2="206.326" gradientUnits="userSpaceOnUse">
<stop offset="0.2169" stop-color="#C6B4ED"/>
<stop offset="0.4445" stop-color="#C3B0EC"/>
<stop offset="0.6564" stop-color="#B9A5E8"/>
<stop offset="0.8614" stop-color="#A892E2"/>
<stop offset="0.9153" stop-color="#A38CE0"/>
</linearGradient>
<linearGradient id="paint18_linear" x1="135.164" y1="206.326" x2="148.051" y2="206.326" gradientUnits="userSpaceOnUse">
<stop offset="0.2169" stop-color="#C6B4ED"/>
<stop offset="0.4445" stop-color="#C3B0EC"/>
<stop offset="0.6564" stop-color="#B9A5E8"/>
<stop offset="0.8614" stop-color="#A892E2"/>
<stop offset="0.9153" stop-color="#A38CE0"/>
</linearGradient>
<linearGradient id="paint19_linear" x1="110.529" y1="190.864" x2="123.416" y2="190.864" gradientUnits="userSpaceOnUse">
<stop offset="0.2169" stop-color="#C6B4ED"/>
<stop offset="0.4445" stop-color="#C3B0EC"/>
<stop offset="0.6564" stop-color="#B9A5E8"/>
<stop offset="0.8614" stop-color="#A892E2"/>
<stop offset="0.9153" stop-color="#A38CE0"/>
</linearGradient>
<linearGradient id="paint20_linear" x1="132.655" y1="190.864" x2="145.541" y2="190.864" gradientUnits="userSpaceOnUse">
<stop offset="0.2169" stop-color="#C6B4ED"/>
<stop offset="0.4445" stop-color="#C3B0EC"/>
<stop offset="0.6564" stop-color="#B9A5E8"/>
<stop offset="0.8614" stop-color="#A892E2"/>
<stop offset="0.9153" stop-color="#A38CE0"/>
</linearGradient>
<linearGradient id="paint21_linear" x1="108.665" y1="176.879" x2="121.551" y2="176.879" gradientUnits="userSpaceOnUse">
<stop offset="0.2169" stop-color="#C6B4ED"/>
<stop offset="0.4445" stop-color="#C3B0EC"/>
<stop offset="0.6564" stop-color="#B9A5E8"/>
<stop offset="0.8614" stop-color="#A892E2"/>
<stop offset="0.9153" stop-color="#A38CE0"/>
</linearGradient>
<linearGradient id="paint22_linear" x1="130.699" y1="176.879" x2="143.585" y2="176.879" gradientUnits="userSpaceOnUse">
<stop offset="0.2169" stop-color="#C6B4ED"/>
<stop offset="0.4445" stop-color="#C3B0EC"/>
<stop offset="0.6564" stop-color="#B9A5E8"/>
<stop offset="0.8614" stop-color="#A892E2"/>
<stop offset="0.9153" stop-color="#A38CE0"/>
</linearGradient>
<linearGradient id="paint23_linear" x1="151.257" y1="176.879" x2="164.143" y2="176.879" gradientUnits="userSpaceOnUse">
<stop offset="0.2169" stop-color="#C6B4ED"/>
<stop offset="0.4445" stop-color="#C3B0EC"/>
<stop offset="0.6564" stop-color="#B9A5E8"/>
<stop offset="0.8614" stop-color="#A892E2"/>
<stop offset="0.9153" stop-color="#A38CE0"/>
</linearGradient>
<linearGradient id="paint24_linear" x1="111.73" y1="183.281" x2="120.027" y2="183.281" gradientUnits="userSpaceOnUse">
<stop offset="0.0793651" stop-color="#422796"/>
<stop offset="0.5608" stop-color="#512DA8"/>
<stop offset="0.6727" stop-color="#5530AA"/>
<stop offset="0.7774" stop-color="#603BB1"/>
<stop offset="0.879" stop-color="#734DBC"/>
<stop offset="0.9247" stop-color="#7E57C2"/>
</linearGradient>
<linearGradient id="paint25_linear" x1="165.711" y1="185.427" x2="249.939" y2="185.427" gradientUnits="userSpaceOnUse">
<stop offset="0.2169" stop-color="#C6B4ED"/>
<stop offset="0.4445" stop-color="#C3B0EC"/>
<stop offset="0.6564" stop-color="#B9A5E8"/>
<stop offset="0.8614" stop-color="#A892E2"/>
<stop offset="0.9153" stop-color="#A38CE0"/>
</linearGradient>
<linearGradient id="paint26_linear" x1="182.064" y1="202.226" x2="233.389" y2="202.226" gradientUnits="userSpaceOnUse">
<stop offset="0.2169" stop-color="#C6B4ED"/>
<stop offset="0.4445" stop-color="#C3B0EC"/>
<stop offset="0.6564" stop-color="#B9A5E8"/>
<stop offset="0.8614" stop-color="#A892E2"/>
<stop offset="0.9153" stop-color="#A38CE0"/>
</linearGradient>
<linearGradient id="paint27_linear" x1="135.19" y1="165.957" x2="216.855" y2="165.957" gradientUnits="userSpaceOnUse">
<stop offset="0.2169" stop-color="#C6B4ED"/>
<stop offset="0.4445" stop-color="#C3B0EC"/>
<stop offset="0.6564" stop-color="#B9A5E8"/>
<stop offset="0.8614" stop-color="#A892E2"/>
<stop offset="0.9153" stop-color="#A38CE0"/>
</linearGradient>
<linearGradient id="paint28_linear" x1="203.131" y1="228.406" x2="227.162" y2="195.571" gradientUnits="userSpaceOnUse">
<stop offset="0.2169" stop-color="#C6B4ED"/>
<stop offset="0.4445" stop-color="#C3B0EC"/>
<stop offset="0.6564" stop-color="#B9A5E8"/>
<stop offset="0.8614" stop-color="#A892E2"/>
<stop offset="0.9153" stop-color="#A38CE0"/>
</linearGradient>
<linearGradient id="paint29_linear" x1="179.273" y1="245.179" x2="234.332" y2="245.179" gradientUnits="userSpaceOnUse">
<stop offset="0.2169" stop-color="#C6B4ED"/>
<stop offset="0.4445" stop-color="#C3B0EC"/>
<stop offset="0.6564" stop-color="#B9A5E8"/>
<stop offset="0.8614" stop-color="#A892E2"/>
<stop offset="0.9153" stop-color="#A38CE0"/>
</linearGradient>
<linearGradient id="paint30_linear" x1="185.926" y1="243.94" x2="234.318" y2="243.94" gradientUnits="userSpaceOnUse">
<stop offset="0.2169" stop-color="#C6B4ED"/>
<stop offset="0.4445" stop-color="#C3B0EC"/>
<stop offset="0.6564" stop-color="#B9A5E8"/>
<stop offset="0.8614" stop-color="#A892E2"/>
<stop offset="0.9153" stop-color="#A38CE0"/>
</linearGradient>
<linearGradient id="paint31_linear" x1="184.244" y1="285.905" x2="233.346" y2="285.905" gradientUnits="userSpaceOnUse">
<stop offset="0.2222" stop-color="#512DA8"/>
<stop offset="0.418" stop-color="#5632AB"/>
<stop offset="0.6588" stop-color="#6540B4"/>
<stop offset="0.9206" stop-color="#7E57C2"/>
</linearGradient>
</defs>
</svg>
