<svg width="550" height="417" viewBox="0 0 550 417" fill="none" xmlns="http://www.w3.org/2000/svg">
<g clip-path="url(#clip0)">
<path d="M38.7995 362.944C43.7644 371.77 49.6487 379.86 56.2686 387.398C58.1075 389.605 60.6818 391.627 63.2562 393.65H497.776C497.776 390.892 497.592 388.134 497.225 385.376C492.444 352.832 460.816 328.194 459.161 295.283C457.873 270.094 474.607 247.479 477.549 222.474C480.491 196.365 465.413 168.234 440.772 158.857C407.489 146.355 371.815 168.05 336.509 170.992C307.088 173.382 276.747 161.247 256.703 139.368C240.705 121.717 229.488 96.8956 206.687 89.7249C185.356 82.922 161.451 95.6085 149.866 114.73C138.281 133.852 136.994 157.57 139.936 179.634C142.511 199.675 147.843 221.554 137.362 238.654C127.248 255.385 105.734 261.085 86.058 261.452C64.9112 261.82 39.1673 259.43 27.0309 276.897C21.3305 285.171 20.7788 295.651 21.3305 305.579C22.9854 325.804 28.8697 345.478 38.7995 362.944Z" fill="#DAD6FC"/>
<path d="M151.705 360.554C150.97 360.37 150.602 359.451 150.786 358.899C150.97 358.164 151.889 357.796 152.625 357.98C153.36 358.164 153.728 359.083 153.544 359.819C153.36 360.37 152.808 360.738 152.257 360.738C151.889 360.738 151.889 360.738 151.705 360.554ZM145.269 358.348C144.534 358.164 144.166 357.245 144.534 356.509C144.717 355.774 145.637 355.406 146.372 355.774C147.108 355.958 147.476 356.877 147.108 357.612C146.924 358.164 146.372 358.532 145.821 358.532C145.637 358.532 145.453 358.532 145.269 358.348ZM139.017 355.958C138.282 355.59 137.914 354.854 138.282 354.119C138.649 353.384 139.385 353.016 140.12 353.384C140.856 353.751 141.224 354.487 140.856 355.222C140.672 355.774 140.12 356.142 139.569 356.142C139.385 355.958 139.201 355.958 139.017 355.958ZM132.949 353.2C132.213 352.832 132.029 352.097 132.213 351.361C132.581 350.626 133.317 350.442 134.052 350.626C134.788 350.993 134.972 351.729 134.788 352.464C134.604 353.016 134.052 353.2 133.5 353.2C133.317 353.2 133.133 353.2 132.949 353.2ZM127.065 350.074C126.329 349.706 126.145 348.787 126.513 348.235C126.881 347.5 127.8 347.316 128.352 347.684C129.087 348.052 129.271 348.971 128.903 349.522C128.719 350.074 128.168 350.258 127.616 350.258C127.432 350.258 127.248 350.258 127.065 350.074ZM121.18 346.765C120.445 346.397 120.261 345.478 120.629 344.926C120.996 344.19 121.916 344.007 122.467 344.374C123.203 344.742 123.387 345.661 123.019 346.213C122.835 346.581 122.284 346.948 121.916 346.948C121.548 346.948 121.364 346.948 121.18 346.765ZM115.48 343.271C114.928 342.903 114.744 341.984 115.112 341.433C115.48 340.881 116.399 340.697 116.951 341.065C117.502 341.433 117.686 342.352 117.319 342.903C117.135 343.271 116.583 343.455 116.215 343.455C116.031 343.455 115.664 343.271 115.48 343.271ZM109.963 339.41C109.412 339.042 109.228 338.123 109.595 337.388C109.963 336.836 110.883 336.652 111.618 337.02C112.17 337.388 112.354 338.307 111.986 339.042C111.802 339.41 111.25 339.594 110.883 339.594C110.515 339.594 110.147 339.594 109.963 339.41ZM104.631 335.365C104.079 334.813 103.895 334.078 104.447 333.343C104.998 332.791 105.734 332.607 106.469 333.159C107.021 333.71 107.205 334.446 106.653 335.181C106.469 335.549 105.918 335.733 105.55 335.733C105.182 335.549 104.814 335.549 104.631 335.365ZM99.4818 330.952C98.9301 330.401 98.9301 329.481 99.2979 328.93C99.8495 328.378 100.769 328.378 101.321 328.746C101.872 329.298 101.872 330.217 101.505 330.768C101.137 331.136 100.769 331.32 100.401 331.32C100.033 331.32 99.6656 331.136 99.4818 330.952ZM94.5169 326.356C93.9652 325.804 93.9652 324.885 94.5169 324.333C95.0685 323.782 95.988 323.782 96.5396 324.333C97.0913 324.885 97.0913 325.804 96.5396 326.356C96.1718 326.724 95.988 326.724 95.6202 326.724C95.0685 326.724 94.7008 326.724 94.5169 326.356ZM89.7359 321.575C89.1842 321.024 89.1842 320.104 89.7359 319.553C90.2875 319.001 91.2069 319.001 91.7586 319.553C92.3103 320.104 92.3103 321.024 91.7586 321.575C91.5747 321.759 91.2069 321.943 90.8392 321.943C90.4714 321.943 90.1036 321.943 89.7359 321.575ZM85.3226 316.611C84.771 316.06 84.9549 315.14 85.5065 314.589C86.0582 314.037 86.9776 314.221 87.5292 314.772C88.0809 315.324 87.897 316.243 87.3454 316.795C87.1615 316.979 86.7937 317.163 86.4259 317.163C86.0582 316.979 85.5065 316.979 85.3226 316.611ZM81.0933 311.279C80.5416 310.728 80.7255 309.808 81.2772 309.257C81.8288 308.705 82.7482 308.889 83.2999 309.44C83.8515 309.992 83.6677 310.911 83.116 311.463C82.9321 311.647 82.5644 311.831 82.1966 311.831C81.8288 311.831 81.461 311.647 81.0933 311.279ZM77.2317 305.947C76.8639 305.395 77.0478 304.476 77.5995 303.925C78.1511 303.557 79.0705 303.741 79.4383 304.292C79.8061 304.844 79.6222 305.763 79.0705 306.315C78.8866 306.499 78.5189 306.499 78.335 306.499C77.9672 306.499 77.4156 306.315 77.2317 305.947ZM73.554 300.247C73.1862 299.512 73.3701 298.776 74.1056 298.409C74.8412 298.041 75.5767 298.225 75.9445 298.96C76.3123 299.696 76.1284 300.431 75.3928 300.799C75.2089 300.983 74.8412 300.983 74.6573 300.983C74.2895 300.799 73.7379 300.615 73.554 300.247ZM70.2441 294.364C69.8763 293.628 70.0602 292.893 70.7957 292.525C71.5312 292.157 72.2668 292.341 72.6346 293.077C73.0023 293.812 72.8184 294.548 72.0829 294.915C71.899 295.099 71.7151 295.099 71.3474 295.099C70.9796 295.099 70.4279 294.731 70.2441 294.364ZM67.3019 288.296C66.9341 287.561 67.3019 286.825 68.0374 286.458C68.773 286.09 69.5085 286.458 69.8763 287.193C70.2441 287.929 69.8763 288.664 69.1407 289.032C68.9569 289.032 68.773 289.216 68.5891 289.216C68.0374 289.032 67.4858 288.848 67.3019 288.296ZM476.262 283.148C475.71 282.597 475.527 281.861 476.078 281.126C476.63 280.574 477.365 280.39 478.101 280.942C478.653 281.493 478.837 282.229 478.285 282.964C477.917 283.332 477.549 283.516 477.182 283.516C476.814 283.516 476.63 283.332 476.262 283.148ZM64.5436 282.045C64.1758 281.31 64.5436 280.574 65.2792 280.206C66.0147 279.839 66.7502 280.206 67.118 280.942C67.4858 281.677 67.118 282.413 66.3825 282.78C66.1986 282.78 66.0147 282.964 65.8308 282.964C65.2792 282.964 64.7275 282.597 64.5436 282.045ZM480.491 278C479.94 277.448 479.756 276.713 480.308 275.978C480.859 275.426 481.595 275.242 482.33 275.794C482.882 276.345 483.066 277.081 482.514 277.816C482.33 278.184 481.779 278.368 481.411 278.368C481.227 278.368 480.859 278.368 480.491 278ZM62.337 275.794C62.1531 275.058 62.5209 274.323 63.2564 273.955C63.992 273.771 64.7275 274.139 65.0953 274.874C65.2792 275.61 64.9114 276.345 64.1759 276.713C63.992 276.713 63.8081 276.713 63.8081 276.713C63.0725 276.713 62.5209 276.345 62.337 275.794ZM484.721 272.852C484.169 272.3 483.985 271.565 484.537 270.829C485.089 270.278 485.824 270.094 486.56 270.645C487.111 271.197 487.295 271.933 486.744 272.668C486.56 273.036 486.008 273.22 485.64 273.22C485.273 273.22 485.089 273.036 484.721 272.852ZM60.4982 269.358C60.3143 268.623 60.682 267.888 61.4176 267.704C62.1531 267.52 62.8887 267.888 63.0725 268.623C63.2564 269.358 62.8887 270.094 62.1531 270.278C61.9692 270.278 61.9692 270.278 61.7853 270.278C61.2337 270.278 60.4982 269.91 60.4982 269.358ZM488.95 267.704C488.399 267.152 488.215 266.417 488.766 265.681C489.318 265.13 490.053 264.946 490.789 265.497C491.341 266.049 491.525 266.784 490.973 267.52C490.789 267.888 490.237 268.071 489.87 268.071C489.502 267.888 489.134 267.888 488.95 267.704ZM59.0271 262.739C58.8432 262.004 59.3948 261.268 60.1304 261.085C60.8659 260.901 61.6015 261.452 61.7853 262.188C61.9692 262.923 61.4176 263.659 60.682 263.843H60.4982C59.7626 263.843 59.0271 263.475 59.0271 262.739ZM492.996 262.372C492.444 262.004 492.26 261.085 492.628 260.349C492.996 259.798 493.915 259.614 494.651 259.981C495.202 260.349 495.386 261.268 495.018 262.004C494.835 262.372 494.283 262.556 493.915 262.556C493.547 262.556 493.18 262.556 492.996 262.372ZM57.9238 256.12C57.7399 255.385 58.2915 254.649 59.211 254.649C59.9465 254.466 60.682 255.017 60.682 255.936C60.682 256.672 60.3143 257.407 59.3948 257.407H59.211C58.6593 257.224 58.1076 256.672 57.9238 256.12ZM496.857 257.04C496.306 256.672 496.122 255.753 496.49 255.017C496.857 254.466 497.777 254.282 498.328 254.649C498.88 255.017 499.064 255.936 498.696 256.488C498.512 256.856 497.961 257.04 497.593 257.04C497.409 257.224 497.041 257.04 496.857 257.04ZM500.535 251.524C499.799 251.156 499.799 250.237 500.167 249.685C500.535 248.95 501.454 248.95 502.006 249.317C502.742 249.685 502.742 250.604 502.374 251.156C502.19 251.524 501.638 251.708 501.271 251.708C501.087 251.708 500.719 251.524 500.535 251.524ZM57.3721 249.317C57.3721 248.582 57.9238 247.847 58.6593 247.847C59.3948 247.847 60.1304 248.398 60.1304 249.134C60.1304 249.869 59.5787 250.604 58.8432 250.604C57.9238 250.604 57.3721 250.053 57.3721 249.317ZM504.029 245.824C503.293 245.456 503.109 244.537 503.477 243.985C503.845 243.25 504.764 243.066 505.316 243.434C506.051 243.802 506.235 244.721 505.868 245.272C505.684 245.64 505.132 246.008 504.764 246.008C504.58 246.008 504.397 246.008 504.029 245.824ZM58.4754 243.985C57.7399 243.985 57.0043 243.434 57.0043 242.515C57.0043 241.779 57.556 241.044 58.4754 241.044C59.211 241.044 59.9465 241.595 59.9465 242.515C59.9465 243.434 59.3948 243.985 58.4754 243.985ZM507.523 240.124C506.787 239.757 506.603 238.837 506.971 238.286C507.339 237.55 508.258 237.366 508.81 237.734C509.545 238.102 509.729 239.021 509.361 239.573C509.178 239.94 508.626 240.308 508.074 240.308C507.89 240.308 507.706 240.308 507.523 240.124ZM58.6593 237.366C57.9238 237.366 57.3721 236.631 57.3721 235.895C57.3721 235.16 58.1076 234.608 58.8432 234.608C59.5787 234.608 60.1304 235.344 60.1304 236.079C60.1304 236.815 59.5787 237.366 58.6593 237.366C58.8432 237.366 58.6593 237.366 58.6593 237.366ZM510.649 234.241C509.913 233.873 509.729 233.138 510.097 232.402C510.465 231.667 511.2 231.483 511.936 231.851C512.671 232.218 512.855 232.954 512.488 233.689C512.304 234.241 511.752 234.425 511.2 234.425C511.016 234.425 510.833 234.425 510.649 234.241ZM59.211 230.747C58.4754 230.563 57.9238 230.012 57.9238 229.276C58.1076 228.541 58.6593 227.989 59.3948 227.989C60.1304 228.173 60.682 228.725 60.682 229.46C60.682 230.196 60.1304 230.747 59.211 230.747C59.3948 230.747 59.3948 230.747 59.211 230.747ZM513.591 228.357C512.855 227.989 512.671 227.254 512.855 226.518C513.223 225.783 513.959 225.599 514.694 225.783C515.43 226.151 515.613 226.886 515.43 227.622C515.246 228.173 514.694 228.357 514.142 228.357C513.959 228.357 513.775 228.357 513.591 228.357ZM60.1304 224.128C59.3948 223.944 58.8432 223.209 59.0271 222.474C59.211 221.738 59.9465 221.186 60.682 221.37C61.4176 221.554 61.9692 222.29 61.7853 223.025C61.6015 223.761 61.0498 224.128 60.4982 224.128C60.3143 224.128 60.3143 224.128 60.1304 224.128ZM516.349 222.29C515.613 221.922 515.246 221.186 515.614 220.451C515.981 219.716 516.717 219.348 517.452 219.716C518.188 220.083 518.556 220.819 518.188 221.554C518.004 222.106 517.452 222.474 516.901 222.474C516.717 222.29 516.533 222.29 516.349 222.29ZM61.6015 217.509C60.8659 217.325 60.3143 216.59 60.682 215.854C60.8659 215.119 61.6015 214.751 62.337 214.935C63.0725 215.119 63.6242 215.854 63.2564 216.59C63.0725 217.142 62.5209 217.693 61.9692 217.693C61.7853 217.693 61.6015 217.693 61.6015 217.509ZM518.74 216.038C518.004 215.854 517.636 214.935 517.82 214.2C518.004 213.464 518.923 213.097 519.659 213.28C520.395 213.464 520.762 214.384 520.578 215.119C520.395 215.671 519.843 216.038 519.291 216.038C519.107 216.038 518.923 216.038 518.74 216.038ZM63.2564 211.258C62.5209 211.074 62.1531 210.339 62.337 209.603C62.5209 208.868 63.4403 208.5 63.992 208.684C64.7275 208.868 65.0953 209.787 64.9114 210.339C64.7275 210.89 64.1758 211.258 63.6242 211.258C63.6242 211.258 63.4403 211.258 63.2564 211.258ZM520.946 209.787C520.211 209.603 519.843 208.868 520.027 208.132C520.211 207.397 520.946 207.029 521.682 207.213C522.417 207.397 522.785 208.132 522.601 208.868C522.417 209.419 521.866 209.787 521.314 209.787C521.13 209.787 521.13 209.787 520.946 209.787ZM65.463 204.823C64.7275 204.455 64.3597 203.72 64.7275 202.984C65.0953 202.249 65.8308 201.881 66.5664 202.249C67.3019 202.616 67.6697 203.352 67.3019 204.087C67.118 204.639 66.5664 205.007 66.0147 205.007C65.6469 205.007 65.463 205.007 65.463 204.823ZM522.785 203.352C522.049 203.168 521.498 202.433 521.682 201.697C521.866 200.962 522.601 200.41 523.337 200.594C524.072 200.778 524.624 201.513 524.44 202.249C524.256 202.8 523.704 203.352 523.153 203.352C522.969 203.352 522.785 203.352 522.785 203.352ZM67.8536 198.755C67.118 198.388 66.9341 197.652 67.118 196.917C67.4858 196.181 68.2213 195.997 68.9569 196.181C69.6924 196.549 69.8763 197.284 69.6924 198.02C69.5085 198.571 68.9569 198.755 68.4052 198.755C68.2213 198.755 68.0374 198.755 67.8536 198.755ZM524.256 196.917C523.521 196.733 522.969 195.997 523.153 195.262C523.337 194.526 524.072 193.975 524.808 194.159C525.543 194.343 526.095 195.078 525.911 195.813C525.727 196.549 525.176 196.917 524.624 196.917C524.44 196.917 524.256 196.917 524.256 196.917ZM70.7957 192.688C70.0602 192.32 69.8763 191.401 70.2441 190.849C70.6118 190.114 71.5312 189.93 72.0829 190.298C72.8184 190.665 73.0023 191.585 72.6346 192.136C72.4507 192.688 71.899 192.872 71.3474 192.872C71.1635 192.872 70.9796 192.872 70.7957 192.688ZM525.359 190.298C524.624 190.114 524.072 189.562 524.072 188.827C524.256 188.091 524.808 187.54 525.543 187.54C526.279 187.724 526.831 188.275 526.831 189.011C526.831 189.746 526.095 190.298 525.359 190.298ZM74.1056 186.988C73.554 186.62 73.1862 185.701 73.7379 185.149C74.1056 184.414 75.0251 184.23 75.5767 184.782C76.3123 185.149 76.4961 186.069 75.9445 186.62C75.7606 186.988 75.209 187.172 74.8412 187.172C74.6573 187.172 74.2895 186.988 74.1056 186.988ZM525.911 183.679C525.176 183.679 524.624 182.943 524.624 182.208C524.624 181.472 525.359 180.921 526.095 180.921C526.831 180.921 527.382 181.656 527.382 182.392C527.382 183.127 526.831 183.679 525.911 183.679C526.095 183.679 525.911 183.679 525.911 183.679ZM77.7833 181.472C77.2317 181.104 77.0478 180.185 77.4156 179.45C77.7833 178.898 78.7028 178.714 79.4383 179.082C79.99 179.45 80.1738 180.369 79.8061 181.104C79.6222 181.472 79.0705 181.656 78.7028 181.656C78.335 181.656 77.9672 181.656 77.7833 181.472ZM524.808 175.589C524.808 174.853 525.359 174.118 526.095 174.118C526.831 174.118 527.566 174.669 527.566 175.405C527.566 176.14 527.014 176.876 526.279 176.876C525.359 177.06 524.808 176.324 524.808 175.589ZM81.8288 176.14C81.2772 175.589 81.0933 174.853 81.6449 174.118C82.1966 173.566 82.9321 173.382 83.6677 173.934C84.2193 174.485 84.4032 175.221 83.8515 175.956C83.4838 176.324 83.116 176.508 82.7482 176.508C82.3805 176.508 82.1966 176.324 81.8288 176.14ZM86.2421 171.176C85.6904 170.624 85.6904 169.705 86.2421 169.153C86.7937 168.602 87.7131 168.602 88.2648 169.153C88.8164 169.705 88.8164 170.624 88.2648 171.176C88.0809 171.36 87.7131 171.544 87.3454 171.544C86.9776 171.544 86.6098 171.36 86.2421 171.176ZM524.256 169.153C524.256 168.418 524.808 167.683 525.543 167.683C526.279 167.683 527.014 168.234 527.014 168.97C527.014 169.705 526.463 170.44 525.727 170.44C525.727 170.44 525.727 170.44 525.543 170.44C524.992 170.44 524.44 169.889 524.256 169.153ZM91.0231 166.579C90.4714 166.028 90.6553 165.108 91.2069 164.557C91.7586 164.005 92.678 164.189 93.2297 164.741C93.7813 165.292 93.5974 166.212 93.0458 166.763C92.8619 166.947 92.4941 167.131 92.1264 167.131C91.7586 166.947 91.3908 166.763 91.0231 166.579ZM523.521 162.534C523.337 161.799 523.888 161.063 524.624 160.88C525.359 160.696 526.095 161.247 526.279 161.983C526.463 162.718 525.911 163.454 525.176 163.638H524.992C524.256 163.821 523.521 163.27 523.521 162.534ZM96.1718 162.351C95.8041 161.799 95.8041 160.88 96.5396 160.328C97.0913 159.96 98.0107 159.96 98.5623 160.696C98.9301 161.247 98.9301 162.167 98.1946 162.718C98.0107 162.902 97.6429 162.902 97.459 162.902C96.9074 162.902 96.5396 162.718 96.1718 162.351ZM101.688 158.489C101.321 157.754 101.505 157.019 102.056 156.651C102.792 156.283 103.527 156.467 103.895 157.019C104.263 157.754 104.079 158.489 103.527 158.857C103.343 159.041 102.976 159.041 102.792 159.041C102.424 159.225 101.872 158.857 101.688 158.489ZM522.233 156.099C522.049 155.364 522.601 154.628 523.337 154.444C524.072 154.261 524.808 154.812 524.992 155.548C525.176 156.283 524.624 157.019 523.888 157.202C523.704 157.202 523.704 157.202 523.521 157.202C522.969 157.202 522.417 156.835 522.233 156.099ZM107.389 154.996C107.021 154.261 107.205 153.525 107.94 153.157C108.676 152.79 109.412 152.974 109.779 153.709C110.147 154.444 109.963 155.18 109.228 155.548C109.044 155.731 108.86 155.731 108.492 155.731C108.124 155.731 107.573 155.548 107.389 154.996ZM113.273 152.054C112.905 151.319 113.273 150.583 114.009 150.216C114.744 149.848 115.48 150.216 115.848 150.767C116.215 151.503 115.848 152.238 115.112 152.606C114.928 152.79 114.744 152.79 114.56 152.79C114.009 152.79 113.457 152.422 113.273 152.054ZM520.395 149.848C520.211 149.112 520.578 148.377 521.314 148.193C522.049 148.009 522.785 148.377 522.969 149.112C523.153 149.848 522.785 150.583 522.049 150.767C521.866 150.767 521.682 150.767 521.682 150.767C521.13 150.767 520.578 150.399 520.395 149.848ZM119.341 149.112C118.974 148.377 119.341 147.642 120.077 147.274C120.812 146.906 121.548 147.274 121.916 148.009C122.284 148.745 121.916 149.48 121.18 149.848C120.996 149.848 120.812 150.032 120.629 150.032C120.077 150.032 119.525 149.664 119.341 149.112ZM125.41 146.354C125.042 145.619 125.41 144.884 126.145 144.516C126.881 144.148 127.616 144.516 127.984 145.251C128.352 145.987 127.984 146.722 127.248 147.09C127.065 147.09 126.881 147.274 126.697 147.274C126.145 147.274 125.593 146.906 125.41 146.354ZM131.478 143.78C131.11 143.045 131.478 142.31 132.213 141.942C132.949 141.574 133.684 141.942 134.052 142.677C134.42 143.413 134.052 144.148 133.317 144.516C133.133 144.516 132.949 144.7 132.765 144.7C132.213 144.516 131.662 144.148 131.478 143.78ZM518.372 143.597C518.004 142.861 518.372 142.126 519.107 141.758C519.843 141.39 520.578 141.758 520.946 142.493C521.314 143.229 520.946 143.964 520.211 144.332C520.027 144.332 519.843 144.516 519.659 144.516C519.107 144.516 518.556 144.148 518.372 143.597ZM137.546 141.022C137.178 140.287 137.546 139.552 138.098 139.184C138.833 138.816 139.569 139.184 139.936 139.735C140.304 140.471 139.936 141.206 139.201 141.574C139.017 141.758 138.833 141.758 138.649 141.758C138.282 141.758 137.73 141.39 137.546 141.022ZM143.43 137.897C143.063 137.161 143.246 136.426 143.982 136.058C144.717 135.69 145.453 135.874 145.821 136.61C146.189 137.345 146.005 138.081 145.269 138.448C145.085 138.632 144.901 138.632 144.534 138.632C144.166 138.632 143.614 138.448 143.43 137.897ZM515.614 137.713C515.246 136.978 515.613 136.242 516.349 135.874C517.085 135.507 517.82 135.874 518.188 136.426C518.556 137.161 518.188 137.897 517.636 138.265C517.452 138.448 517.269 138.448 517.085 138.448C516.349 138.448 515.797 138.081 515.614 137.713ZM149.315 134.771C148.947 134.036 149.131 133.3 149.682 132.933C150.418 132.565 151.153 132.749 151.521 133.3C151.889 134.036 151.705 134.771 151.153 135.139C150.97 135.323 150.602 135.323 150.418 135.323C150.05 135.323 149.498 135.139 149.315 134.771ZM512.488 131.829C512.12 131.094 512.304 130.358 513.039 129.991C513.775 129.623 514.51 129.807 514.878 130.542C515.246 131.278 515.062 132.013 514.326 132.381C514.142 132.565 513.775 132.565 513.591 132.565C513.223 132.565 512.855 132.381 512.488 131.829ZM154.831 131.094C154.463 130.542 154.463 129.623 155.199 129.071C155.751 128.704 156.67 128.704 157.222 129.439C157.589 129.991 157.589 130.91 156.854 131.278C156.67 131.462 156.302 131.462 156.118 131.462C155.567 131.645 155.199 131.462 154.831 131.094ZM160.164 127.049C159.612 126.497 159.796 125.578 160.348 125.026C160.899 124.475 161.819 124.659 162.37 125.21C162.922 125.762 162.738 126.681 162.187 127.233C162.003 127.417 161.635 127.601 161.267 127.601C160.899 127.601 160.532 127.417 160.164 127.049ZM508.994 126.313C508.626 125.762 508.626 124.843 509.361 124.475C509.913 124.107 510.833 124.107 511.384 124.843C511.752 125.394 511.752 126.313 511.016 126.865C510.833 127.049 510.465 127.049 510.281 127.049C509.729 127.049 509.361 126.681 508.994 126.313ZM165.313 122.82C164.761 122.269 164.761 121.349 165.313 120.798C165.864 120.246 166.784 120.246 167.335 120.798C167.887 121.349 167.887 122.269 167.335 122.82C166.968 123.188 166.6 123.188 166.232 123.188C165.864 123.188 165.496 123.004 165.313 122.82ZM505.132 121.165C504.58 120.614 504.764 119.694 505.316 119.143C505.868 118.591 506.787 118.775 507.339 119.327C507.89 119.878 507.706 120.798 507.155 121.349C506.971 121.533 506.603 121.717 506.235 121.717C505.684 121.717 505.316 121.533 505.132 121.165ZM170.094 118.224C169.542 117.672 169.542 116.753 170.094 116.201C170.645 115.649 171.565 115.649 172.116 116.201C172.668 116.753 172.668 117.672 172.116 118.224C171.932 118.591 171.565 118.591 171.197 118.591C170.645 118.591 170.277 118.407 170.094 118.224ZM500.535 116.385C499.983 115.833 499.983 114.914 500.535 114.362C501.087 113.811 502.006 113.811 502.558 114.362C503.109 114.914 503.109 115.833 502.558 116.385C502.374 116.753 502.006 116.753 501.638 116.753C501.27 116.753 500.903 116.753 500.535 116.385ZM174.507 113.259C173.955 112.708 173.771 111.972 174.323 111.237C174.875 110.685 175.61 110.501 176.346 111.053C176.897 111.604 177.081 112.34 176.53 113.075C176.346 113.443 175.794 113.627 175.426 113.627C175.059 113.627 174.691 113.443 174.507 113.259ZM495.754 112.156C495.202 111.604 495.018 110.869 495.57 110.134C496.122 109.582 496.857 109.398 497.593 109.95C498.144 110.501 498.328 111.237 497.777 111.972C497.593 112.34 497.041 112.524 496.673 112.524C496.306 112.34 495.938 112.34 495.754 112.156ZM490.421 108.295C489.686 107.927 489.502 107.008 490.054 106.456C490.421 105.905 491.341 105.537 491.892 106.089C492.628 106.456 492.812 107.376 492.26 107.927C492.076 108.295 491.525 108.479 491.157 108.479C490.973 108.479 490.789 108.479 490.421 108.295ZM178.736 108.111C178.185 107.743 178.001 106.824 178.368 106.089C178.736 105.537 179.656 105.353 180.391 105.721C180.943 106.089 181.127 107.008 180.759 107.743C180.575 108.111 180.023 108.295 179.656 108.295C179.288 108.295 178.92 108.295 178.736 108.111ZM484.721 105.169C483.985 104.802 483.801 104.066 484.169 103.331C484.537 102.595 485.272 102.411 486.008 102.779C486.744 103.147 486.927 103.882 486.56 104.618C486.376 105.169 485.824 105.353 485.272 105.353C485.272 105.169 485.089 105.169 484.721 105.169ZM182.414 102.595C181.678 102.228 181.494 101.308 182.046 100.757C182.414 100.021 183.333 99.8373 183.885 100.389C184.621 100.757 184.804 101.676 184.253 102.228C184.069 102.595 183.517 102.779 183.149 102.779C182.966 102.779 182.782 102.779 182.414 102.595ZM478.837 102.595C478.101 102.411 477.733 101.492 477.917 100.757C478.101 100.021 479.02 99.6534 479.756 100.021C480.491 100.205 480.859 101.124 480.491 101.86C480.308 102.411 479.756 102.779 479.204 102.779C479.204 102.595 479.02 102.595 478.837 102.595ZM472.584 100.573C471.849 100.389 471.481 99.6534 471.665 98.918C471.849 98.1825 472.584 97.8148 473.32 97.9987C474.056 98.1825 474.423 98.918 474.239 99.6534C474.056 100.205 473.504 100.757 472.952 100.757C472.768 100.757 472.768 100.573 472.584 100.573ZM406.57 100.205C405.834 100.205 405.099 99.6534 405.099 98.7341C405.099 97.9987 405.65 97.2632 406.57 97.2632C407.305 97.2632 408.041 97.8148 408.041 98.7341C408.041 99.4696 407.489 100.205 406.57 100.205C405.834 100.205 406.57 100.205 406.57 100.205ZM411.902 98.7341C411.902 97.9987 412.454 97.2632 413.19 97.2632C413.925 97.2632 414.661 97.8148 414.661 98.5503C414.661 99.2857 414.109 100.021 413.373 100.021C412.638 100.021 411.902 99.4696 411.902 98.7341ZM399.95 100.021C399.214 100.021 398.663 99.2857 398.663 98.5503C398.663 97.8148 399.398 97.2632 400.134 97.2632C400.869 97.2632 401.421 97.9987 401.421 98.7341C401.421 99.4696 400.685 100.021 399.95 100.021ZM418.522 98.3664C418.522 97.6309 419.074 96.8955 419.809 96.8955C420.545 96.8955 421.281 97.4471 421.281 98.1825C421.281 98.918 420.729 99.6534 419.993 99.6534C419.258 99.6534 418.522 99.1018 418.522 98.3664ZM393.146 99.4696C392.411 99.4696 391.859 98.7341 391.859 97.9987C391.859 97.2632 392.594 96.7116 393.33 96.7116C394.066 96.7116 394.617 97.4471 394.617 98.1825C394.617 98.918 394.066 99.4696 393.146 99.4696C393.33 99.4696 393.33 99.4696 393.146 99.4696ZM466.148 99.2857C465.413 99.1018 464.861 98.3664 465.045 97.6309C465.229 96.8955 465.965 96.3439 466.7 96.5278C467.436 96.7116 467.987 97.2632 467.803 98.1825C467.62 98.918 467.068 99.2857 466.516 99.2857C466.332 99.2857 466.332 99.2857 466.148 99.2857ZM425.142 97.9987C425.142 97.2632 425.694 96.5278 426.429 96.5278C427.165 96.5278 427.9 97.0794 427.9 97.8148C427.9 98.5503 427.349 99.2857 426.613 99.2857C426.613 99.2857 426.613 99.2857 426.429 99.2857C425.878 99.2857 425.326 98.7341 425.142 97.9987ZM431.762 97.4471C431.762 96.7116 432.314 95.9762 433.049 95.9762C433.785 95.9762 434.52 96.5278 434.52 97.2632C434.52 97.9987 433.969 98.7341 433.233 98.7341C432.498 98.7341 431.946 98.1825 431.762 97.4471ZM459.712 98.5503C458.977 98.5503 458.425 97.8148 458.425 97.0794C458.425 96.3439 459.161 95.7923 459.896 95.7923C460.632 95.7923 461.184 96.5278 461.184 97.2632C461.184 97.9987 460.632 98.5503 459.712 98.5503ZM386.526 98.3664C385.791 98.1825 385.239 97.4471 385.423 96.7116C385.607 95.9762 386.342 95.4246 387.078 95.6085C387.813 95.7923 388.365 96.5278 388.181 97.2632C387.997 97.9987 387.446 98.3664 386.894 98.3664C386.71 98.3664 386.526 98.3664 386.526 98.3664ZM438.566 97.0794C438.566 96.3439 439.117 95.6085 439.853 95.6085C440.588 95.6085 441.324 96.16 441.324 96.8955C441.324 97.631 440.772 98.3664 440.037 98.3664C439.117 98.3664 438.566 97.8148 438.566 97.0794ZM453.093 98.1825C452.357 98.1825 451.805 97.4471 451.805 96.7116C451.805 95.9762 452.541 95.4246 453.277 95.4246C454.012 95.4246 454.564 96.16 454.564 96.8955C454.564 97.631 454.012 98.1825 453.093 98.1825ZM445.186 96.8955C445.186 96.16 445.737 95.4246 446.473 95.4246C447.208 95.4246 447.944 95.9762 447.944 96.7116C447.944 97.4471 447.392 98.1825 446.657 98.1825C445.737 98.1825 445.186 97.631 445.186 96.8955ZM185.908 96.8955C185.172 96.5278 184.988 95.6085 185.356 95.0569C185.724 94.3214 186.643 94.1376 187.195 94.5053C187.93 94.873 188.114 95.7923 187.747 96.3439C187.563 96.8955 187.011 97.0794 186.459 97.0794C186.459 97.0794 186.092 97.0794 185.908 96.8955ZM379.906 96.7116C379.171 96.5278 378.803 95.7923 378.987 95.0569C379.171 94.3214 379.906 93.9537 380.642 94.1376C381.377 94.3214 381.745 95.0569 381.561 95.7923C381.377 96.3439 380.826 96.7116 380.274 96.7116C380.274 96.8955 380.09 96.8955 379.906 96.7116ZM373.47 94.5053C372.735 94.1376 372.367 93.4021 372.735 92.6667C373.103 91.9312 373.838 91.5635 374.574 91.9312C375.309 92.2989 375.677 93.0344 375.309 93.7698C375.125 94.3214 374.574 94.6891 374.022 94.6891C373.838 94.5053 373.654 94.5053 373.47 94.5053ZM367.402 91.5635C366.667 91.1958 366.483 90.2765 366.851 89.7249C367.218 88.9894 368.138 88.8055 368.689 89.1733C369.425 89.541 369.609 90.4603 369.241 91.0119C369.057 91.5635 368.506 91.7474 367.954 91.7474C367.77 91.7474 367.586 91.5635 367.402 91.5635ZM189.034 91.0119C188.298 90.6442 188.114 89.9087 188.298 89.1733C188.666 88.4378 189.402 88.254 190.137 88.4378C190.873 88.8055 191.057 89.541 190.873 90.2765C190.689 90.828 190.137 91.0119 189.585 91.0119C189.402 91.1958 189.218 91.0119 189.034 91.0119ZM361.518 88.0701C360.966 87.7024 360.782 86.7831 361.15 86.2315C361.518 85.6799 362.437 85.496 362.989 85.8638C363.541 86.2315 363.725 87.1508 363.357 87.7024C363.173 88.0701 362.621 88.254 362.253 88.254C362.07 88.254 361.886 88.254 361.518 88.0701ZM191.792 84.9444C191.057 84.5767 190.689 83.8413 191.057 83.1058C191.424 82.3704 192.16 82.0026 192.895 82.3704C193.631 82.7381 193.999 83.4735 193.631 84.209C193.447 84.7606 192.895 85.1283 192.344 85.1283C192.16 84.9444 191.976 84.9444 191.792 84.9444ZM356.185 84.209C355.634 83.6574 355.45 82.922 356.001 82.1865C356.553 81.6349 357.289 81.451 358.024 82.0026C358.576 82.5542 358.76 83.2897 358.208 84.0251C357.84 84.3929 357.472 84.5767 357.105 84.5767C356.553 84.3929 356.369 84.3929 356.185 84.209ZM350.853 79.7963C350.301 79.2447 350.301 78.3254 350.669 77.7738C351.22 77.2222 352.14 77.2222 352.691 77.5899C353.243 78.1415 353.243 79.0608 352.875 79.6124C352.508 79.9802 352.14 80.164 351.772 80.164C351.404 80.164 351.22 79.9802 350.853 79.7963ZM194.183 78.6931C193.447 78.5093 193.079 77.5899 193.263 76.8545C193.447 76.119 194.366 75.7513 195.102 75.9352C195.838 76.119 196.205 77.0384 196.021 77.7738C195.838 78.3254 195.286 78.6931 194.734 78.6931C194.366 78.877 194.366 78.6931 194.183 78.6931ZM345.888 75.1997C345.336 74.6481 345.336 73.7288 345.888 73.1772C346.439 72.6257 347.359 72.6257 347.91 73.1772C348.462 73.7288 348.462 74.6481 347.91 75.1997C347.727 75.5675 347.359 75.5675 346.991 75.5675C346.623 75.5675 346.255 75.5675 345.888 75.1997ZM196.205 72.4418C195.47 72.2579 195.102 71.3386 195.286 70.6032C195.47 69.8677 196.389 69.5 196.941 69.6839C197.676 69.8677 198.044 70.787 197.86 71.3386C197.676 71.8902 197.125 72.2579 196.573 72.2579C196.573 72.4418 196.389 72.4418 196.205 72.4418ZM341.291 70.4193C340.739 69.8677 340.739 68.9484 341.291 68.3968C341.842 67.8452 342.762 67.8452 343.313 68.3968C343.865 68.9484 343.865 69.8677 343.313 70.4193C343.129 70.6032 342.762 70.787 342.394 70.787C341.842 70.787 341.474 70.787 341.291 70.4193ZM198.228 66.0066C197.492 65.8228 197.125 65.0873 197.309 64.3518C197.492 63.6164 198.228 63.2487 198.964 63.4325C199.699 63.6164 200.067 64.3519 199.883 65.0873C199.699 65.6389 199.147 66.0066 198.596 66.0066C198.596 66.1905 198.412 66.1905 198.228 66.0066ZM336.877 65.455C336.326 64.9034 336.51 63.9841 337.061 63.4325C337.613 62.8809 338.532 63.0648 339.084 63.6164C339.636 64.168 339.452 65.0873 338.9 65.6389C338.716 65.8227 338.348 66.0066 337.981 66.0066C337.429 66.0066 337.061 65.8227 336.877 65.455ZM332.464 60.3069C331.912 59.7553 332.096 58.836 332.648 58.2844C333.2 57.7328 334.119 57.9167 334.671 58.4683C335.222 59.0198 335.038 59.9392 334.487 60.4907C334.303 60.6746 333.935 60.8585 333.567 60.8585C333.2 60.8585 332.832 60.6746 332.464 60.3069ZM200.251 59.7553C199.515 59.5714 199.147 58.836 199.331 58.1005C199.515 57.3651 200.251 56.9974 200.986 57.1812C201.722 57.3651 202.09 58.1005 201.906 58.836C201.722 59.3876 201.17 59.7553 200.619 59.7553C200.435 59.7553 200.435 59.7553 200.251 59.7553ZM328.235 55.1587C327.683 54.6071 327.867 53.6878 328.419 53.1362C328.97 52.5847 329.89 52.7685 330.441 53.3201C330.993 53.8717 330.809 54.791 330.257 55.3426C330.074 55.5265 329.706 55.7103 329.338 55.7103C328.97 55.7103 328.602 55.5265 328.235 55.1587ZM202.273 53.3201C201.538 53.1362 201.17 52.2169 201.354 51.4815C201.538 50.746 202.457 50.3783 203.193 50.5622C203.928 50.746 204.296 51.6653 204.112 52.4008C203.928 52.9524 203.377 53.3201 202.825 53.3201C202.457 53.504 202.457 53.3201 202.273 53.3201ZM324.189 50.0106C323.638 49.459 323.821 48.5397 324.373 47.9881C324.925 47.4365 325.844 47.6204 326.396 48.172C326.948 48.7235 326.764 49.6429 326.212 50.1944C326.028 50.3783 325.66 50.5622 325.293 50.5622C324.741 50.3783 324.373 50.1944 324.189 50.0106ZM204.48 47.0688C203.745 46.8849 203.377 45.9656 203.745 45.2302C203.928 44.4947 204.848 44.127 205.583 44.4947C206.319 44.6786 206.687 45.5979 206.319 46.3333C206.135 46.8849 205.583 47.2526 205.032 47.2526C204.664 47.0688 204.48 47.0688 204.48 47.0688ZM319.96 44.6786C319.408 44.127 319.592 43.2077 320.144 42.6561C320.695 42.1045 321.615 42.2884 322.167 42.8399C322.718 43.3915 322.534 44.3108 321.983 44.8624C321.799 45.0463 321.431 45.2302 321.063 45.2302C320.695 45.2302 320.328 45.0463 319.96 44.6786ZM206.687 40.8175C205.951 40.4497 205.583 39.7143 205.951 38.9788C206.319 38.2434 207.054 37.8757 207.79 38.2434C208.526 38.6111 208.893 39.3466 208.526 40.082C208.342 40.6336 207.79 41.0013 207.238 41.0013C207.054 41.0013 206.871 41.0013 206.687 40.8175ZM315.731 39.5304C315.179 38.9788 315.363 38.0595 315.914 37.5079C316.466 36.9563 317.385 37.1402 317.937 37.6918C318.489 38.2434 318.305 39.1627 317.753 39.7143C317.569 39.8981 317.202 40.082 316.834 40.082C316.466 40.082 316.098 39.8981 315.731 39.5304ZM311.501 34.5661C310.95 34.0145 311.133 33.0952 311.685 32.5437C312.237 31.9921 313.156 32.1759 313.708 32.7275C314.259 33.2791 314.076 34.1984 313.524 34.75C313.34 34.9339 312.972 35.1177 312.604 35.1177C312.237 35.1177 311.685 34.9339 311.501 34.5661ZM209.445 34.75C208.709 34.3823 208.526 33.6468 208.893 32.9114C209.261 32.1759 209.997 31.9921 210.732 32.3598C211.468 32.7275 211.652 33.463 211.284 34.1984C211.1 34.75 210.548 34.9339 209.997 34.9339C209.997 34.9339 209.629 34.9339 209.445 34.75ZM307.088 29.6019C306.536 29.0503 306.536 28.131 307.088 27.5794C307.64 27.0278 308.559 27.0278 309.111 27.5794C309.662 28.131 309.662 29.0503 309.111 29.6019C308.927 29.7857 308.559 29.9696 308.191 29.9696C307.64 30.1534 307.272 29.9696 307.088 29.6019ZM212.571 28.8664C211.835 28.4987 211.652 27.5794 212.019 27.0278C212.387 26.2923 213.307 26.1085 213.858 26.4762C214.594 26.8439 214.778 27.7632 214.41 28.3148C214.226 28.6825 213.674 29.0503 213.307 29.0503C213.123 29.0503 212.755 29.0503 212.571 28.8664ZM302.491 25.0053C301.939 24.4537 301.939 23.5344 302.491 22.9828C303.042 22.4312 303.962 22.4312 304.514 22.9828C305.065 23.5344 305.065 24.4537 304.514 25.0053C304.33 25.373 303.962 25.373 303.594 25.373C303.042 25.373 302.675 25.1892 302.491 25.0053ZM216.249 23.3505C215.697 22.9828 215.513 22.0635 215.881 21.328C216.249 20.7765 217.168 20.5926 217.904 20.9603C218.455 21.328 218.639 22.2474 218.271 22.9828C218.088 23.3505 217.536 23.5344 217.168 23.5344C216.8 23.5344 216.433 23.5344 216.249 23.3505ZM297.526 20.5926C296.974 20.041 296.79 19.3056 297.342 18.5701C297.894 18.0185 298.629 18.0185 299.365 18.3862C299.916 18.9378 299.916 19.6733 299.549 20.4087C299.365 20.7765 298.813 20.9603 298.445 20.9603C298.078 20.7765 297.894 20.7765 297.526 20.5926ZM220.294 18.0185C219.743 17.4669 219.743 16.5476 220.11 15.996C220.662 15.4444 221.581 15.4444 222.133 15.8122C222.685 16.3638 222.685 17.2831 222.317 17.8347C222.133 18.2024 221.581 18.3862 221.214 18.3862C220.846 18.3862 220.478 18.2024 220.294 18.0185ZM292.561 16.3638C292.009 15.8122 291.825 15.0767 292.193 14.3413C292.745 13.7897 293.48 13.6058 294.216 13.9735C294.768 14.5251 294.952 15.2606 294.584 15.996C294.4 16.3638 293.848 16.5476 293.48 16.5476C292.929 16.7315 292.745 16.5476 292.561 16.3638ZM224.891 13.2381C224.34 12.6865 224.524 11.7672 225.075 11.2156C225.627 10.664 226.546 10.8479 227.098 11.3995C227.65 11.9511 227.466 12.8704 226.914 13.422C226.73 13.6058 226.362 13.7897 225.995 13.7897C225.627 13.7897 225.075 13.6058 224.891 13.2381ZM287.044 12.6865C286.309 12.3188 286.125 11.3995 286.677 10.8479C287.044 10.1124 287.964 9.92857 288.516 10.4802C289.251 10.8479 289.435 11.7672 288.883 12.3188C288.699 12.6865 288.332 12.8704 287.78 12.8704C287.596 12.8704 287.228 12.8704 287.044 12.6865ZM230.04 9.00926C229.672 8.45767 229.856 7.53836 230.408 7.17063C230.96 6.80291 231.879 6.98677 232.247 7.53836C232.615 8.08995 232.431 9.00926 231.879 9.37698C231.695 9.56085 231.327 9.56085 231.143 9.56085C230.776 9.74471 230.408 9.37698 230.04 9.00926ZM281.344 9.56085C280.608 9.19312 280.425 8.45767 280.792 7.72222C281.16 6.98677 281.896 6.80291 282.631 7.17063C283.367 7.53836 283.551 8.27381 283.183 9.00926C282.999 9.56085 282.447 9.74471 281.896 9.74471C281.712 9.74471 281.528 9.56085 281.344 9.56085ZM275.46 6.80291C274.724 6.43518 274.356 5.69974 274.724 4.96429C275.092 4.22884 275.827 3.86111 276.563 4.22884C277.299 4.59656 277.666 5.33201 277.299 6.06746C277.115 6.61905 276.563 6.98677 276.011 6.98677C275.827 6.98677 275.644 6.98677 275.46 6.80291ZM235.741 5.69974C235.373 4.96429 235.741 4.22884 236.476 3.86111C237.212 3.49339 237.947 3.86111 238.315 4.59656C238.683 5.33201 238.315 6.06746 237.579 6.43518C237.396 6.43518 237.212 6.61905 237.028 6.61905C236.476 6.43518 236.108 6.25132 235.741 5.69974ZM269.208 4.78042C268.472 4.59656 268.104 3.86111 268.288 3.12566C268.472 2.39021 269.208 2.02249 269.943 2.20635C270.679 2.39021 271.046 3.12566 270.863 3.86111C270.679 4.4127 270.127 4.96429 269.575 4.96429C269.575 4.78042 269.391 4.78042 269.208 4.78042ZM241.993 3.12566C241.809 2.39021 242.177 1.65476 242.912 1.4709C243.648 1.28704 244.383 1.65476 244.567 2.39021C244.751 3.12566 244.383 3.86111 243.648 4.04497C243.464 4.04497 243.464 4.04497 243.28 4.04497C242.728 4.22884 242.177 3.86111 241.993 3.12566ZM262.956 3.30952C262.22 3.12566 261.668 2.39021 261.852 1.65476C262.036 0.919312 262.772 0.367725 263.507 0.551587C264.243 0.73545 264.794 1.4709 264.61 2.20635C264.427 2.9418 263.875 3.30952 263.323 3.30952C262.956 3.49339 262.956 3.49339 262.956 3.30952ZM248.429 1.83862C248.429 1.10317 248.98 0.367725 249.716 0.367725C250.451 0.367725 251.187 0.919312 251.187 1.65476C251.187 2.39021 250.635 3.12566 249.9 3.12566H249.716C249.164 2.9418 248.613 2.57407 248.429 1.83862ZM256.52 2.75794C255.784 2.75794 255.232 2.02249 255.232 1.28704C255.232 0.551587 255.968 0 256.703 0C257.439 0 257.991 0.73545 257.991 1.4709C257.807 2.20635 257.255 2.75794 256.52 2.75794Z" fill="#7E57C2"/>
<path d="M494.651 255.385C486.928 273.036 495.938 292.893 497.041 312.198C497.225 316.611 497.041 321.024 496.306 325.436C495.203 332.607 492.996 339.594 489.686 346.029C488.767 348.052 487.663 349.89 486.376 351.729C481.963 358.716 476.446 364.967 469.826 369.931C468.907 370.667 467.988 371.218 467.068 371.954C464.31 373.792 461.368 375.631 458.242 377.102C454.932 382.066 451.622 386.111 448.312 389.972C447.576 390.708 446.841 391.627 446.105 392.362C443.163 395.488 439.853 398.43 435.992 401.556C434.153 401.556 432.13 401.556 430.291 401.188C422.752 400.085 416.132 396.224 410.248 390.892C409.144 389.972 408.225 389.053 407.306 387.95C406.938 387.582 406.386 387.03 406.018 386.663C405.651 386.295 405.283 385.743 404.915 385.376C404.547 385.008 404.363 384.824 403.996 384.456C400.87 380.779 397.927 376.734 395.537 372.689C390.388 364.231 385.791 355.222 384.504 345.294C383.217 335.549 385.423 324.701 392.411 317.714C401.973 308.153 418.339 306.499 425.142 294.915C432.13 282.964 424.959 267.52 428.452 254.282C431.946 241.227 444.634 233.138 456.587 227.07C468.539 220.819 481.595 214.384 487.663 202.432C490.054 197.468 491.157 192.136 493.548 187.172C495.938 182.391 500.535 177.795 505.868 177.795C513.039 177.795 517.637 185.149 519.475 192.136C522.785 204.823 520.579 218.98 513.407 230.012C507.707 238.837 498.88 245.64 494.651 255.385Z" fill="#7E57C2"/>
<path opacity="0.3" d="M461.184 258.694L488.031 251.34C488.951 251.156 489.87 251.708 490.238 252.627C490.422 253.546 489.87 254.466 488.951 254.833L459.345 262.923C456.587 271.013 457.506 279.839 458.426 289.032C458.977 293.628 459.345 298.409 459.345 303.189C459.345 306.866 458.977 310.36 458.426 314.037C465.965 307.97 472.585 300.983 478.469 293.444C479.021 292.709 480.124 292.525 481.044 293.077C481.779 293.628 481.963 294.731 481.411 295.651C474.608 304.66 466.517 312.566 457.506 319.369L457.322 319.553C456.955 321.208 456.403 322.862 455.851 324.517C453.461 330.952 450.151 337.02 445.922 342.352C442.244 347.132 437.831 351.177 433.601 355.222C429.188 359.451 424.591 363.68 420.913 368.644C418.707 371.586 416.868 374.712 415.213 378.021C414.477 379.676 413.742 381.147 413.19 382.801C412.087 385.559 411.351 388.317 410.8 391.259C410.432 392.914 410.064 394.753 409.88 396.591C408.777 396.04 407.674 395.672 406.57 394.936C406.754 392.73 407.306 390.524 407.857 388.317C408.041 387.398 408.409 386.663 408.593 385.743C408.961 384.272 409.512 382.618 410.064 381.147C412.087 375.815 414.845 370.85 418.155 366.438C418.89 365.335 419.81 364.415 420.545 363.496C419.81 362.025 419.074 360.37 418.339 358.899C415.397 351.913 413.926 344.558 413.742 337.02C413.742 336.1 414.477 335.181 415.397 335.181C416.316 335.181 417.235 335.917 417.235 336.836C417.419 343.087 418.523 349.155 420.729 355.038C421.465 356.877 422.2 358.716 423.12 360.554C425.694 357.796 428.452 355.222 431.211 352.648C435.44 348.787 439.669 344.558 443.163 340.145C443.347 339.962 443.531 339.594 443.715 339.41C442.612 337.388 441.508 335.181 440.589 332.975C436.727 324.517 434.337 315.324 433.601 306.131C433.601 305.212 434.337 304.292 435.256 304.108C436.176 304.108 437.095 304.844 437.095 305.763C437.831 314.405 440.037 322.862 443.531 330.768C444.267 332.607 445.186 334.262 446.105 335.917C448.128 332.791 449.967 329.481 451.438 326.172C454.564 318.817 456.219 310.911 456.219 303.005C456.219 298.593 455.667 293.812 455.3 289.399C446.105 280.022 440.405 267.888 438.934 254.833C438.75 253.914 439.486 252.995 440.589 252.811C441.508 252.811 442.428 253.362 442.612 254.466C443.715 265.13 448.128 275.242 454.932 283.516C454.196 275.242 454.196 266.784 457.69 259.062C461.736 249.869 470.01 243.802 477.734 237.734C478.653 236.999 479.572 236.447 480.492 235.712L482.699 218.245C482.882 217.325 483.802 216.59 484.721 216.774C485.641 216.958 486.376 217.693 486.192 218.796L484.537 232.586C493.732 224.68 498.329 217.142 498.513 209.603C498.513 208.684 499.248 207.765 500.352 207.765C501.271 207.765 502.19 208.684 502.19 209.603C502.006 219.164 495.938 228.357 483.802 237.918C482.699 238.837 481.411 239.757 480.124 240.676C472.217 245.824 465.046 251.34 461.184 258.694Z" fill="#512DA8"/>
<path d="M542.093 329.665C526.647 352.832 508.626 375.999 484.17 389.237C470.011 396.959 452.909 401.556 436.36 401.372C434.521 401.372 432.498 401.372 430.659 401.188C423.488 400.636 416.316 398.981 409.696 396.224C408.593 395.672 407.49 395.304 406.386 394.569C404.915 393.833 403.628 393.098 402.341 392.179C402.893 390.892 403.444 389.604 403.996 388.317C404.364 387.398 404.731 386.295 405.283 385.376C405.651 384.64 405.835 383.905 406.203 383.169C409.88 374.712 413.742 366.254 418.339 358.348C419.074 357.061 419.81 355.774 420.729 354.487C422.936 351.177 425.327 347.868 427.901 344.742C431.579 340.329 435.808 336.1 440.589 332.607C441.508 331.872 442.612 331.136 443.531 330.585C446.106 328.93 448.68 327.459 451.254 325.988C452.725 325.253 454.196 324.517 455.851 323.966C461.736 321.759 467.804 320.472 474.24 320.656C481.963 320.84 489.318 322.862 496.674 325.253C500.535 326.54 504.397 327.827 508.075 328.93C519.108 332.607 531.428 334.63 542.093 329.665Z" fill="#C3C3F4"/>
<path opacity="0.3" d="M517.269 341.616C517.453 342.352 516.901 343.271 515.982 343.271C506.788 344.742 497.777 346.764 488.767 349.339L512.304 356.877C513.04 357.061 513.591 357.98 513.224 358.716C512.856 359.451 512.12 360.003 511.385 359.635L486.376 351.545L483.802 350.809C483.618 350.809 483.618 350.809 483.434 350.626C473.688 353.384 464.126 356.877 454.748 360.738C459.529 364.048 464.678 366.989 469.643 369.931C474.24 372.505 478.837 374.895 483.618 377.102C484.354 377.47 484.721 378.389 484.354 379.124C483.986 379.86 483.066 380.227 482.331 379.86C476.998 377.47 471.849 374.895 466.885 371.954C461.552 369.012 456.219 365.702 451.254 362.209C445.922 364.599 440.589 366.989 435.256 369.563C435.072 369.747 434.889 369.931 434.521 369.931C430.475 371.954 426.43 374.16 422.384 376.366C430.475 381.698 439.118 386.111 447.944 389.788C448.312 389.972 448.496 389.972 448.68 390.156C449.415 390.524 449.783 391.259 449.599 392.178C449.232 392.914 448.496 393.282 447.577 393.098C446.841 392.914 446.289 392.546 445.738 392.362C436.544 388.685 427.717 383.905 419.442 378.389C417.052 379.86 414.661 381.147 412.455 382.618C410.8 383.537 409.329 384.64 407.674 385.559C406.938 385.927 406.386 386.479 405.651 386.846C404.915 387.398 403.996 387.95 403.26 388.501C403.628 387.582 403.996 386.479 404.548 385.559C404.18 385.192 403.996 385.008 403.628 384.64C404.18 384.272 404.915 383.905 405.467 383.537C406.754 382.618 408.041 381.882 409.145 381.147C410.8 380.044 412.638 378.94 414.477 377.837C415.765 376.918 417.236 376.182 418.523 375.447C418.707 375.263 418.891 375.263 419.074 375.079C423.672 372.321 428.453 369.931 433.05 367.541C437.279 356.509 443.531 346.213 451.438 337.571C451.99 337.02 452.909 337.02 453.645 337.571C454.196 338.123 454.38 339.042 453.829 339.778C446.841 347.316 441.141 356.141 437.279 365.702C446.657 361.106 456.219 357.061 465.965 353.567C465.965 353.567 465.965 353.384 466.149 353.384C472.769 345.11 480.124 337.388 488.031 330.401C488.583 329.849 489.686 329.849 490.238 330.585C490.79 331.136 490.79 332.239 490.054 332.791C483.434 338.675 477.182 344.926 471.482 351.729C477.366 349.706 483.434 347.868 489.502 346.397C497.961 344.19 506.604 342.168 515.246 340.881C516.35 340.145 517.269 340.697 517.269 341.616Z" fill="#512DA8"/>
<path d="M184.252 360.922C180.207 372.322 172.668 382.066 164.393 390.892C160.531 395.12 156.118 399.165 151.337 402.843C150.969 403.21 150.418 403.394 150.05 403.762C149.498 404.13 148.947 404.681 148.395 405.049C147.843 405.417 147.108 405.968 146.556 406.336C145.085 407.255 143.798 408.175 142.327 409.094C134.052 413.874 125.225 417 116.215 416.448C113.825 416.448 111.434 416.081 109.227 415.529C109.227 415.529 109.227 415.529 109.227 415.345C105.366 410.565 102.24 406.336 99.4815 401.923C98.7459 400.82 98.0104 399.717 97.4587 398.614C94.3327 393.282 91.5744 387.582 88.6323 380.963C85.3223 378.389 82.1963 375.815 79.438 372.689C78.5186 371.77 77.5992 370.667 76.6797 369.747C70.0599 362.209 64.9111 353.384 61.4173 344.007C60.4979 341.433 59.5784 338.859 58.8429 336.284C56.4524 327.827 55.533 319.001 55.9007 310.176C56.0846 304.844 57.0041 299.328 58.2912 294.18C64.1756 271.565 79.9897 249.869 74.8409 227.07C72.0826 214.384 63.2561 204.087 58.4751 192.136C52.5908 177.243 53.3263 159.96 60.314 145.619C64.1756 137.897 71.531 130.175 79.9897 131.829C86.6095 133.116 90.8389 139.552 92.4938 145.987C94.1488 152.422 94.1488 159.225 95.8038 165.66C100.033 181.472 114.008 192.32 126.88 202.616C139.752 212.913 152.808 225.599 153.728 241.963C154.647 258.695 142.511 275.426 147.843 291.238C153.176 306.866 172.484 312.75 181.494 326.356C188.114 336.101 188.298 349.523 184.252 360.922Z" fill="#7E57C2"/>
<path opacity="0.3" d="M141.039 368.277C139.936 369.931 138.649 371.586 137.362 373.241C138.097 374.712 138.833 375.999 139.568 377.47C142.511 383.721 144.533 390.34 145.637 396.959C146.004 398.798 146.188 400.82 146.372 402.843C146.556 403.946 146.556 405.049 146.556 406.152C146.74 408.91 146.74 411.484 146.372 414.242C144.901 414.61 143.43 414.978 141.959 415.345C142.143 413.139 142.327 411.117 142.143 408.91C142.143 405.233 141.775 401.74 141.223 398.246C140.856 396.224 140.488 394.017 139.936 391.995C138.833 387.582 137.362 383.537 135.339 379.492C132.029 372.873 127.616 366.622 123.387 360.554C119.341 354.671 115.112 348.603 111.802 342.168C107.94 334.814 105.55 326.724 104.262 318.45C103.895 316.427 103.711 314.221 103.527 312.199L103.343 312.015C94.7005 301.534 86.9773 290.135 80.9091 277.632C80.3574 276.529 80.9091 275.242 81.8285 274.691C82.9318 274.139 84.219 274.691 84.7707 275.794C89.9194 286.274 96.3554 296.202 103.711 305.212C103.895 300.799 104.262 296.386 105.182 292.158C106.285 286.458 108.124 280.942 109.779 275.426C113.089 264.578 116.399 254.282 114.928 243.986L81.6446 227.254C80.5413 226.702 80.1735 225.415 80.7252 224.312C81.2769 223.209 82.564 222.841 83.6674 223.393L113.824 238.47C110.882 228.725 103.527 220.451 96.5393 212.545C95.2521 211.074 94.1488 209.787 92.8616 208.316C80.5413 194.159 75.7603 181.656 77.783 170.073C77.9669 168.97 79.0702 168.05 80.3574 168.234C81.4607 168.418 82.3802 169.521 82.0124 170.808C80.3574 180.001 84.0351 190.114 93.0455 201.697L94.3327 184.782C94.5166 183.679 95.436 182.759 96.7232 182.759C97.8265 182.759 98.7459 183.863 98.7459 185.15L97.091 206.478C98.0104 207.581 98.9298 208.5 99.8492 209.603C107.756 218.613 116.031 227.99 118.789 239.941C120.996 250.053 118.973 259.982 116.215 269.726C126.329 261.636 133.868 250.421 137.913 238.102C138.281 236.999 139.568 236.263 140.672 236.631C141.775 236.999 142.327 238.286 142.143 239.389C137.362 254.466 127.248 267.704 114.192 276.713C112.537 282.045 110.882 287.377 109.779 292.709C107.94 302.27 107.94 312.015 109.963 321.575C110.882 325.988 112.17 330.401 113.824 334.446C115.296 332.607 116.767 330.769 118.054 328.746C124.122 320.105 128.719 310.544 131.661 300.431C132.029 299.328 133.132 298.593 134.42 298.96C135.523 299.328 136.258 300.431 135.891 301.718C132.765 312.566 127.616 322.863 120.996 332.056C119.341 334.446 117.502 336.652 115.663 338.859C115.847 339.226 116.031 339.41 116.215 339.778C119.341 346.029 123.57 351.913 127.616 357.613C130.19 361.29 132.765 365.151 135.339 369.012C136.81 366.99 138.281 364.967 139.568 362.945C143.43 356.509 146.372 349.339 148.027 341.984C148.211 340.881 149.498 340.146 150.601 340.329C151.705 340.513 152.44 341.8 152.256 342.904C149.866 352.281 146.188 360.738 141.039 368.277Z" fill="#512DA8"/>
<path d="M151.889 412.587C150.05 413.323 148.211 413.874 146.556 414.426C145.085 414.794 143.614 415.161 142.143 415.529C133.684 417.368 125.042 417.552 116.215 416.448C113.825 416.265 111.434 415.897 109.044 415.345C89.1842 411.668 69.8763 401.739 54.7977 389.237C28.6861 367.357 12.872 335.549 0 304.109C11.5848 312.382 26.8472 313.118 41.0064 311.647C45.7874 311.095 50.7523 310.544 55.5333 309.992C64.9114 308.889 74.2895 308.337 83.4838 309.992C91.0231 311.463 98.1946 314.405 104.631 318.45C106.286 319.553 107.94 320.656 109.595 321.943C112.538 324.15 115.296 326.54 117.686 329.298C118.79 330.401 119.709 331.504 120.629 332.607C125.41 337.939 129.455 343.823 132.765 350.074C135.155 354.487 137.178 358.9 138.833 363.496C139.569 365.151 140.12 366.806 140.672 368.644C144.35 379.124 146.924 390.156 149.315 401.188C149.499 402.107 149.682 403.026 149.866 403.946C150.05 405.233 150.418 406.52 150.602 407.623C151.337 409.278 151.705 410.933 151.889 412.587Z" fill="#C3C3F4"/>
<path opacity="0.3" d="M150.234 403.762C150.418 405.049 150.785 406.336 150.969 407.439C150.234 406.52 149.314 405.784 148.579 405.049C147.843 404.314 147.108 403.578 146.556 403.026C144.901 401.372 143.246 399.901 141.591 398.246C139.201 395.856 136.626 393.649 134.236 391.443C123.019 396.04 111.434 399.717 99.4816 401.923C98.746 402.107 97.8266 402.291 97.0911 402.475C95.9878 402.659 95.0683 401.923 94.8844 401.004C94.7006 400.085 95.4361 398.982 96.3555 398.798C96.7233 398.798 97.0911 398.614 97.4588 398.614C109.044 396.591 120.444 393.282 131.294 388.869C127.064 385.192 122.835 381.698 118.422 378.205C118.054 378.021 117.87 377.837 117.686 377.653C111.986 373.241 106.285 369.012 100.401 364.967C93.5973 367.909 86.4257 370.483 79.4381 372.873C72.8183 375.079 66.0145 376.918 59.0269 378.573C58.1075 378.757 57.0041 378.205 56.8203 377.102C56.6364 376.183 57.188 375.079 58.1075 374.896C64.3595 373.425 70.4277 371.77 76.4959 369.747C83.2997 367.541 90.1034 365.151 96.7233 362.393C86.4257 355.59 75.9443 349.155 64.9112 343.455C64.7273 343.455 64.5434 343.639 64.3595 343.639L61.2335 344.007L29.4214 347.316C28.3181 347.5 27.3987 346.765 27.3987 345.661C27.3987 344.558 27.9503 343.823 29.0536 343.639L59.0269 340.329C48.9132 335.181 38.6156 330.585 27.9503 326.54C27.0309 326.172 26.4792 325.069 26.847 324.149C27.2148 323.23 28.3181 322.679 29.2375 323.046C39.3512 326.907 49.0971 331.136 58.6591 335.917C65.4629 339.226 72.2666 342.903 78.8865 346.765C73.7377 337.388 67.6695 328.194 61.2335 319.553C60.6818 318.817 60.6818 317.53 61.6013 316.979C62.3368 316.427 63.624 316.427 64.1757 317.347C72.0827 327.643 78.8865 338.675 84.9547 350.074C84.9547 350.074 84.9547 350.258 85.1385 350.442C95.9878 357.061 106.469 364.048 116.399 371.77C113.825 359.451 109.227 347.5 102.792 336.836C102.24 335.917 102.608 334.814 103.343 334.262C104.263 333.71 105.366 334.078 105.918 334.814C113.273 347.132 118.422 360.922 120.628 375.079C125.777 379.124 130.742 383.353 135.523 387.582C135.707 387.766 135.891 387.766 136.075 387.95C137.546 389.237 139.017 390.524 140.304 391.811C142.143 393.466 143.982 395.12 145.821 396.959C147.108 398.246 148.395 399.533 149.682 400.82C150.234 401.372 150.969 401.923 151.521 402.659C150.969 403.026 150.602 403.394 150.234 403.762Z" fill="#512DA8"/>
<path d="M358.943 223.944L352.507 230.747C350.668 232.77 350.3 235.896 351.771 238.286C353.61 241.044 356.553 243.25 359.679 243.618C364.46 244.353 369.424 241.595 371.631 237.366C372.918 234.792 373.838 230.564 373.47 227.806C373.286 225.048 371.447 222.106 368.689 221.554C365.379 221.003 362.253 224.128 358.943 223.944Z" fill="#FFC78F"/>
<path d="M379.906 55.5264C372.735 57.3651 364.828 56.8135 358.392 53.504C351.772 50.1944 346.807 43.7592 345.704 36.4047C344.784 30.5211 348.278 25.5569 352.323 21.1442C355.082 25.7407 360.414 28.8664 365.747 29.0502C370.344 29.2341 374.941 27.3955 379.538 27.2116C386.342 27.0278 393.146 30.3373 396.824 36.037C399.95 40.6336 403.811 45.9656 402.892 51.4815C402.34 54.6071 400.685 57.5489 399.214 60.3069C397.007 64.168 394.801 68.0291 392.594 72.0741C391.123 74.6481 389.652 77.4061 387.262 79.4286C381.929 72.8095 378.067 63.6164 379.906 55.5264Z" fill="url(#paint0_linear)"/>
<path d="M358.024 91.0118C352.324 100.389 351.22 111.604 351.036 122.636C350.301 159.96 359.127 197.1 355.817 234.241C360.414 235.16 364.46 236.447 368.873 234.976C372.735 208.5 375.309 181.656 375.309 154.996C375.309 143.78 374.941 132.565 371.999 121.901C369.241 111.237 366.85 97.9986 358.024 91.0118Z" fill="#FFC78F"/>
<path d="M351.036 122.636C350.852 128.887 351.036 135.323 351.404 141.574C358.943 144.7 367.034 146.722 375.125 147.274C374.941 138.632 374.206 130.175 371.999 121.901C369.057 111.237 366.85 97.8148 358.024 91.0118C352.507 100.389 351.22 111.788 351.036 122.636Z" fill="url(#paint1_linear)"/>
<path opacity="0.3" d="M351.036 122.636C350.852 128.887 351.036 135.323 351.404 141.574C358.943 144.7 367.034 146.722 375.125 147.274C374.941 138.632 374.206 130.175 371.999 121.901C369.057 111.237 366.85 97.8148 358.024 91.0118C352.507 100.389 351.22 111.788 351.036 122.636Z" fill="#512DA8"/>
<path d="M304.697 391.075C304.697 390.156 304.513 389.237 304.697 388.501C304.881 387.766 305.249 386.847 305.984 386.295C306.904 385.56 308.375 385.56 309.478 385.56C313.524 385.56 317.753 384.272 321.063 382.066C324.557 379.86 328.418 377.102 329.154 373.057C329.338 371.954 329.706 370.851 330.625 370.115C331.361 369.38 332.648 369.012 333.567 369.38C334.487 369.747 335.222 371.034 334.67 372.138C337.429 372.873 340.371 372.505 342.761 371.034C343.313 371.402 343.681 372.138 343.681 372.689C343.681 373.425 343.313 373.976 343.313 374.712C342.945 376.55 343.313 378.573 343.865 380.595C344.416 382.434 345.336 384.272 345.704 386.295C346.071 388.134 346.071 390.34 345.152 391.995C339.268 393.466 333.199 393.649 327.131 393.833C319.408 393.833 312.053 393.649 304.697 391.075Z" fill="#512DA8"/>
<path d="M365.195 163.821C365.012 164.373 362.989 165.108 362.805 165.66C363.54 165.844 364.092 166.212 364.828 166.395C365.012 165.476 365.195 164.741 365.195 163.821Z" fill="url(#paint2_linear)"/>
<path d="M347.542 376.183C358.759 343.455 367.402 309.073 372.183 274.69C374.39 257.959 386.526 243.618 391.307 227.622C396.088 211.626 398.479 194.343 395.536 177.795C385.055 174.669 374.941 170.624 364.828 166.396C353.794 236.999 339.451 307.05 321.982 375.999H347.542V376.183Z" fill="url(#paint3_linear)"/>
<path opacity="0.3" d="M347.542 376.183C358.759 343.455 367.402 309.073 372.183 274.69C374.39 257.959 386.526 243.618 391.307 227.622C396.088 211.626 398.479 194.343 395.536 177.795C390.572 176.324 385.607 174.485 380.642 172.647C380.642 241.779 345.52 307.05 340.739 375.999H347.542V376.183Z" fill="#36207A"/>
<path d="M346.623 380.411H320.879C318.489 380.411 316.466 378.389 316.466 375.999V374.528C316.466 372.137 318.489 370.115 320.879 370.115H346.623C349.013 370.115 351.036 372.137 351.036 374.528V375.999C351.22 378.573 349.197 380.411 346.623 380.411Z" fill="url(#paint4_linear)"/>
<path d="M373.471 391.075C373.471 390.156 373.287 389.237 373.471 388.501C373.654 387.582 374.022 386.847 374.758 386.295C375.677 385.56 377.148 385.56 378.252 385.56C382.297 385.56 386.526 384.272 389.836 382.066C393.33 379.86 397.192 377.102 397.927 373.057C398.111 371.954 398.479 370.851 399.398 370.115C400.134 369.38 401.421 369.012 402.34 369.38C403.26 369.747 403.995 371.034 403.444 372.138C406.202 372.873 409.144 372.505 411.535 371.034C412.086 371.402 412.454 372.138 412.454 372.689C412.454 373.425 412.086 373.976 412.086 374.712C411.719 376.55 412.086 378.573 412.638 380.595C413.19 382.434 414.109 384.272 414.477 386.295C414.845 388.134 414.845 390.34 413.925 391.995C408.041 393.466 401.973 393.649 395.904 393.833C388.181 393.833 380.826 393.649 373.471 391.075Z" fill="#512DA8"/>
<path d="M376.596 164.925C385.423 234.792 390.571 305.028 392.226 375.263H415.58C418.89 338.307 418.338 299.88 413.005 263.291C410.615 247.663 418.338 231.115 418.706 215.303C419.074 199.491 416.683 183.311 409.512 169.153C398.111 169.337 386.342 168.418 374.941 167.499C374.757 166.763 376.596 165.476 376.596 164.925Z" fill="url(#paint5_linear)"/>
<path opacity="0.3" d="M415.58 375.263C418.89 338.307 418.338 299.88 413.006 263.291C410.615 247.663 418.338 231.115 418.706 215.303C419.074 199.491 416.683 183.311 409.512 169.153C405.466 169.153 401.421 169.153 397.192 168.97C400.134 212.545 403.076 255.937 406.202 299.512C407.857 324.885 409.696 350.442 405.834 375.447H415.58V375.263Z" fill="#36207A"/>
<path opacity="0.3" d="M409.512 168.97C398.663 169.153 387.814 168.234 376.964 167.499C377.148 168.786 377.332 170.073 377.516 171.544C373.287 169.889 369.057 168.234 364.828 166.396C364.46 168.97 363.909 171.728 363.541 174.302C378.068 187.356 397.743 194.71 417.419 194.343C415.948 185.701 413.374 177.06 409.512 168.97Z" fill="#512DA8"/>
<path d="M379.906 79.9801C375.493 82.738 370.344 84.2089 365.379 86.2314C360.598 88.2539 355.817 91.1957 353.243 95.9761C350.117 101.86 351.588 109.03 352.875 115.466C356.736 134.22 359.679 153.157 361.334 172.279C378.251 174.669 395.536 174.118 412.454 172.647C411.35 153.525 413.373 133.3 415.396 114.362C416.131 108.295 416.867 101.676 414.66 95.9761C412.27 89.7248 406.569 85.3121 400.317 82.9219C394.617 80.3478 386.526 80.7156 379.906 79.9801Z" fill="url(#paint6_linear)"/>
<path opacity="0.3" d="M416.132 109.95C411.534 103.698 404.547 98.734 397.007 96.7115C394.985 113.811 400.869 131.645 412.822 144.148C413.373 134.036 414.477 123.923 415.58 114.362C415.948 112.891 416.132 111.421 416.132 109.95Z" fill="#512DA8"/>
<path d="M374.574 67.4775C375.126 73.5449 375.309 79.7962 374.942 86.0476C379.723 86.783 385.055 87.3346 389.652 86.4153C389.285 77.7738 388.917 69.3161 387.998 60.6746C383.216 61.5939 378.619 64.3518 374.574 67.4775Z" fill="#FFC78F"/>
<path opacity="0.3" d="M389.284 73.7288C389.1 69.3161 388.733 65.0873 388.365 60.6746C383.4 61.5939 378.803 64.1679 374.758 67.4775C375.309 73.3611 375.493 79.2447 375.125 85.1283C380.274 82.1865 385.055 78.3253 389.284 73.7288Z" fill="#512DA8"/>
<path d="M417.235 380.411H391.491C389.101 380.411 387.078 378.389 387.078 375.999V374.528C387.078 372.137 389.101 370.115 391.491 370.115H417.235C419.626 370.115 421.648 372.137 421.648 374.528V375.999C421.648 378.573 419.626 380.411 417.235 380.411Z" fill="url(#paint7_linear)"/>
<path d="M401.237 84.209C415.948 89.1733 427.717 100.757 435.808 114.179C443.899 127.417 448.68 142.493 453.461 157.202C445.921 173.75 432.682 187.54 416.132 195.078C413.557 193.975 411.719 191.401 410.615 188.827C416.316 186.804 420.361 180.553 423.303 175.221C426.797 168.602 430.291 162.167 433.969 155.548C419.074 140.103 409.328 118.959 405.65 97.9987C402.524 94.5053 401.789 88.6217 401.237 84.209Z" fill="#FFC78F"/>
<path d="M435.807 113.995C427.716 100.757 415.948 88.9893 401.237 84.025C401.788 88.4377 391.859 94.3213 394.985 97.8147C397.375 111.237 407.857 124.842 419.993 136.794C427.348 131.829 433.417 125.026 437.646 117.12C437.094 116.201 436.543 115.098 435.807 113.995Z" fill="url(#paint8_linear)"/>
<path d="M366.115 44.3108C365.747 50.1944 365.379 56.078 366.482 61.9616C367.586 67.6613 370.344 73.361 375.125 76.8544C381.377 75.7512 387.445 71.8901 390.571 66.3743C393.881 61.0422 394.985 54.4232 394.801 48.1719C394.617 44.4946 393.881 40.8174 391.491 38.2433C388.732 35.3015 384.135 34.9338 380.09 35.3015C374.757 36.037 366.482 38.7949 366.115 44.3108Z" fill="#FFC78F"/>
<path d="M358.208 48.5396C365.012 52.9523 374.574 53.1362 381.561 48.7235C383.216 50.9298 385.607 52.033 388.181 52.4007C387.813 54.9748 387.262 57.5489 386.894 59.9391C387.446 60.123 388.181 59.9391 388.549 59.7552C387.997 57.1812 388.733 54.6071 390.388 52.7685C390.755 52.4007 391.307 51.8491 391.859 52.033C392.41 52.2169 392.594 52.5846 392.778 53.1362C393.698 55.3425 393.146 58.1005 392.043 60.123C390.939 62.3293 389.1 63.9841 387.446 65.8227C388.181 68.9483 388.733 72.2579 389.468 75.3835C392.594 70.787 395.353 66.0066 397.191 60.6745C399.03 55.3425 399.398 49.4589 397.743 44.1269C396.088 38.7949 391.859 34.1984 386.342 32.5436C381.561 31.2566 376.412 32.3597 371.999 34.7499C366.115 37.6917 361.518 42.8399 358.208 48.5396Z" fill="url(#paint9_linear)"/>
<path d="M413.557 187.54C412.638 188.275 411.534 188.275 410.431 188.091C409.328 187.907 408.224 187.54 407.121 187.907C405.65 188.275 404.547 189.746 403.627 191.033C402.708 192.32 400.685 193.607 399.582 194.894C398.479 196.181 397.927 197.836 398.295 199.307C398.663 200.778 399.95 202.065 401.421 202.616C402.892 203.168 404.547 203.168 406.202 203.168C409.144 202.8 411.902 201.881 414.293 200.042C416.683 198.204 418.338 195.813 419.074 192.872C417.419 191.217 415.58 188.827 413.557 187.54Z" fill="#FFC78F"/>
<path d="M301.204 314.956C301.02 314.956 300.836 314.956 300.468 314.956C297.894 314.589 296.239 312.198 296.607 309.808L314.26 189.562C316.834 171.911 332.28 158.673 350.117 158.673C352.692 158.673 354.714 160.696 354.714 163.27C354.714 165.844 352.692 167.866 350.117 167.866C336.877 167.866 325.293 177.795 323.454 191.033L305.801 311.279C305.433 313.302 303.41 314.956 301.204 314.956Z" fill="white"/>
<g opacity="0.3">
<path opacity="0.3" d="M301.204 314.956C301.02 314.956 300.836 314.956 300.468 314.956C297.894 314.589 296.239 312.198 296.607 309.808L314.26 189.562C316.834 171.911 332.28 158.673 350.117 158.673C352.692 158.673 354.714 160.696 354.714 163.27C354.714 165.844 352.692 167.866 350.117 167.866C336.877 167.866 325.293 177.795 323.454 191.033L305.801 311.279C305.433 313.302 303.41 314.956 301.204 314.956Z" fill="#512DA8"/>
</g>
<path d="M256.152 196.917H223.972V179.45C223.972 170.624 231.143 163.27 240.154 163.27C248.98 163.27 256.335 170.441 256.335 179.45V196.917H256.152ZM228.201 192.688H252.106V179.45C252.106 172.831 246.773 167.499 240.154 167.499C233.534 167.499 228.201 172.831 228.201 179.45V192.688Z" fill="url(#paint10_linear)"/>
<g opacity="0.1">
<path opacity="0.1" d="M256.152 196.917H223.972V179.45C223.972 170.624 231.143 163.27 240.154 163.27C248.98 163.27 256.335 170.441 256.335 179.45V196.917H256.152ZM228.201 192.688H252.106V179.45C252.106 172.831 246.773 167.499 240.154 167.499C233.534 167.499 228.201 172.831 228.201 179.45V192.688Z" fill="url(#paint11_linear)"/>
</g>
<path d="M302.674 309.992H177.633L193.263 185.333H287.044L302.674 309.992Z" fill="url(#paint12_linear)"/>
<path d="M302.674 309.992H177.633L193.263 185.333H287.044L302.674 309.992Z" fill="#FFD200"/>
<path opacity="0.2" d="M180.943 282.229L177.633 309.992H302.674L299.181 282.229H180.943Z" fill="url(#paint13_linear)"/>
<path d="M230.224 309.992L243.096 207.397H320.144L333.016 309.992H230.224Z" fill="url(#paint14_linear)"/>
<path d="M294.768 216.958H268.289V202.616C268.289 195.262 274.173 189.378 281.528 189.378C288.884 189.378 294.768 195.262 294.768 202.616V216.958ZM271.782 213.464H291.458V202.616C291.458 197.101 287.045 192.688 281.528 192.688C276.012 192.688 271.599 197.101 271.599 202.616V213.464H271.782Z" fill="url(#paint15_linear)"/>
<g opacity="0.3">
<path opacity="0.3" d="M294.768 216.958H268.289V202.616C268.289 195.262 274.173 189.378 281.528 189.378C288.884 189.378 294.768 195.262 294.768 202.616V216.958ZM271.782 213.464H291.458V202.616C291.458 197.101 287.045 192.688 281.528 192.688C276.012 192.688 271.599 197.101 271.599 202.616V213.464H271.782Z" fill="#512DA8"/>
</g>
<path opacity="0.3" d="M232.983 287.193L230.224 309.992H333.016L330.074 287.193H232.983Z" fill="#512DA8"/>
<path d="M255.968 393.65C262.772 393.65 268.288 388.134 268.288 381.331C268.288 374.527 262.772 369.012 255.968 369.012C249.164 369.012 243.648 374.527 243.648 381.331C243.648 388.134 249.164 393.65 255.968 393.65Z" fill="#FFD200"/>
<path d="M244.751 363.864L250.635 382.985C251.37 385.376 253.577 387.03 256.151 387.03C259.278 387.03 261.852 384.456 261.852 381.331V363.864H244.751Z" fill="white"/>
<path opacity="0.3" d="M244.751 363.864L250.635 382.985C251.37 385.376 253.577 387.03 256.151 387.03C259.278 387.03 261.852 384.456 261.852 381.331V363.864H244.751Z" fill="#512DA8"/>
<path d="M283.367 368.093H149.498C146.924 368.093 144.901 366.07 144.901 363.496C144.901 360.922 146.924 358.899 149.498 358.899H283.367C288.883 358.899 294.032 356.325 297.526 352.097C301.02 347.684 302.123 342.168 300.836 336.652L294.768 311.279C294.216 308.889 295.687 306.315 298.261 305.763C300.652 305.212 303.226 306.683 303.778 309.257L309.846 334.63C311.869 342.72 310.03 351.361 304.697 357.796C299.549 364.415 291.641 368.093 283.367 368.093Z" fill="white"/>
<g opacity="0.3">
<path opacity="0.3" d="M283.367 368.093H149.498C146.924 368.093 144.901 366.07 144.901 363.496C144.901 360.922 146.924 358.899 149.498 358.899H283.367C288.883 358.899 294.032 356.325 297.526 352.097C301.02 347.684 302.123 342.168 300.836 336.652L294.768 311.279C294.216 308.889 295.687 306.315 298.261 305.763C300.652 305.212 303.226 306.683 303.778 309.257L309.846 334.63C311.869 342.72 310.03 351.361 304.697 357.796C299.549 364.415 291.641 368.093 283.367 368.093Z" fill="#512DA8"/>
</g>
<path d="M338.348 314.956H203.928C201.722 314.956 199.699 313.302 199.331 311.095L186.643 223.025C186.459 221.738 186.827 220.451 187.746 219.348C188.666 218.429 189.953 217.693 191.24 217.693H351.22C352.507 217.693 353.794 218.245 354.714 219.348C355.633 220.267 356.001 221.738 355.817 223.025L343.129 311.095C342.577 313.118 340.555 314.956 338.348 314.956ZM207.974 305.579H334.487L345.887 226.702H196.573L207.974 305.579Z" fill="white"/>
<path d="M235.556 314.956H173.035C170.829 314.956 168.806 313.302 168.438 311.095L152.992 223.025C152.808 221.738 153.176 220.267 153.911 219.348C154.831 218.245 156.118 217.693 157.405 217.693H222.684C224.891 217.693 226.914 219.348 227.281 221.554L239.969 309.624C240.153 310.911 239.785 312.198 238.866 313.302C238.131 314.221 236.843 314.956 235.556 314.956ZM176.897 305.579H230.223L218.823 226.702H162.922L176.897 305.579Z" fill="white"/>
<path d="M322.35 368.093H188.482C185.908 368.093 183.885 366.07 183.885 363.496C183.885 360.922 185.908 358.899 188.482 358.899H322.35C327.867 358.899 333.016 356.325 336.51 352.097C340.003 347.684 341.107 342.168 339.819 336.652L333.751 311.279C333.2 308.889 334.671 306.315 337.245 305.763C339.636 305.212 342.21 306.683 342.762 309.257L348.83 334.63C350.853 342.72 349.014 351.361 343.681 357.796C338.532 364.415 330.809 368.093 322.35 368.093Z" fill="white"/>
<path d="M338.348 314.956C338.164 314.956 337.98 314.956 337.612 314.956C335.038 314.589 333.383 312.198 333.751 309.808L351.404 189.562C353.978 171.911 369.425 158.673 387.261 158.673C389.836 158.673 391.858 160.696 391.858 163.27C391.858 165.844 389.836 167.866 387.261 167.866C374.022 167.866 362.437 177.795 360.598 191.033L342.945 311.279C342.577 313.302 340.555 314.956 338.348 314.956Z" fill="white"/>
<path d="M214.042 393.65C220.847 393.65 226.363 388.134 226.363 381.331C226.363 374.527 220.847 369.012 214.042 369.012C207.238 369.012 201.722 374.527 201.722 381.331C201.722 388.134 207.238 393.65 214.042 393.65Z" fill="#FFD200"/>
<path d="M203.009 363.864L208.894 382.985C209.629 385.376 211.836 387.03 214.41 387.03C217.536 387.03 220.111 384.456 220.111 381.331V363.864H203.009Z" fill="white"/>
<path d="M296.606 393.65C303.411 393.65 308.926 388.134 308.926 381.331C308.926 374.527 303.411 369.012 296.606 369.012C289.802 369.012 284.286 374.527 284.286 381.331C284.286 388.134 289.802 393.65 296.606 393.65Z" fill="#FFD200"/>
<path d="M285.389 363.864L291.273 382.985C292.009 385.376 294.215 387.03 296.79 387.03C299.916 387.03 302.49 384.456 302.49 381.331V363.864H285.389Z" fill="white"/>
<path d="M173.403 393.65C180.208 393.65 185.724 388.134 185.724 381.331C185.724 374.527 180.208 369.012 173.403 369.012C166.599 369.012 161.083 374.527 161.083 381.331C161.083 388.134 166.599 393.65 173.403 393.65Z" fill="#FFD200"/>
<path d="M162.37 363.864L168.255 382.985C168.99 385.376 171.197 387.03 173.771 387.03C176.897 387.03 179.472 384.456 179.472 381.331V363.864H162.37Z" fill="white"/>
<path opacity="0.3" d="M162.37 363.864L168.255 382.985C168.99 385.376 171.197 387.03 173.771 387.03C176.897 387.03 179.472 384.456 179.472 381.331V363.864H162.37Z" fill="#512DA8"/>
<path d="M345.703 240.86H160.715V249.685H345.703V240.86Z" fill="white"/>
<path d="M345.703 261.82H160.715V270.645H345.703V261.82Z" fill="white"/>
<path d="M345.704 282.78H165.129V291.606H345.704V282.78Z" fill="white"/>
<path d="M123.019 132.749C126.881 122.452 138.282 117.12 148.579 120.981C158.877 124.843 164.21 136.242 160.348 146.538C156.486 156.835 145.086 162.167 134.788 158.306C124.49 154.444 119.158 143.045 123.019 132.749Z" fill="#FFC000"/>
<path d="M129.087 134.955C131.662 127.968 139.385 124.475 146.373 127.049C153.36 129.623 156.854 137.345 154.28 144.332C151.705 151.319 143.982 154.812 136.994 152.238C130.007 149.664 126.513 141.942 129.087 134.955Z" fill="#FFC000"/>
<path d="M140.121 131.094C143.247 130.542 146.005 131.646 146.925 134.587L142.695 135.691C142.328 134.771 141.776 134.22 140.857 134.22L141.776 137.897C144.35 137.897 147.66 137.897 148.58 141.574C149.315 144.516 147.293 146.722 144.166 147.642L144.534 149.48L143.063 149.848L142.695 148.009C139.385 148.561 136.995 147.458 136.076 144.516L140.305 143.413C140.673 144.332 141.224 144.7 141.96 144.7L141.04 141.206C138.466 141.206 135.156 141.206 134.237 137.713C133.685 135.139 135.156 132.565 138.65 131.462L138.282 129.623L139.753 129.255L140.121 131.094ZM142.512 141.39L143.247 144.516C143.983 144.148 144.534 143.597 144.166 142.677C144.166 141.758 143.431 141.39 142.512 141.39ZM140.121 137.713L139.385 134.404C138.466 134.771 138.098 135.507 138.282 136.426C138.466 137.345 139.202 137.529 140.121 137.713Z" fill="#FFC000"/>
<path d="M541.173 150.4H480.675C475.71 150.4 471.849 146.355 471.849 141.574V103.331C471.849 98.3665 475.894 94.5054 480.675 94.5054H541.173C546.138 94.5054 550 98.5503 550 103.331V141.574C550 146.538 546.138 150.4 541.173 150.4Z" fill="#E0E3FE"/>
<path d="M541.173 94.5054H480.675C475.71 94.5054 471.849 98.5503 471.849 103.331V104.986H550.184V103.331C550 98.3665 546.138 94.5054 541.173 94.5054Z" fill="url(#paint16_linear)"/>
<path d="M537.311 142.677C537.311 142.493 537.311 142.493 537.128 142.31C535.84 139.368 534.553 136.242 532.347 133.852C530.14 131.462 527.014 129.623 523.704 129.991C518.923 130.542 515.245 135.507 510.28 135.139C506.97 134.955 504.396 132.013 502.741 129.255C501.086 126.314 500.167 123.004 498.144 120.43C494.65 115.833 487.846 113.995 482.514 116.201V142.677H537.311Z" fill="url(#paint17_linear)"/>
<path d="M526.279 142.677C526.095 142.677 526.095 142.494 526.279 142.677C525.175 141.023 524.072 139.552 522.417 138.449C520.762 137.162 518.188 136.426 515.613 136.61C511.752 136.794 508.809 139.368 504.948 139.184C502.373 139 500.351 137.713 499.064 136.242C497.776 134.771 497.041 133.117 495.386 131.83C492.628 129.623 487.111 128.704 482.882 129.807V142.861H526.279V142.677Z" fill="url(#paint18_linear)"/>
<path d="M518.923 142.677C518.923 142.493 518.923 142.493 518.923 142.31C518.004 139.552 517.268 136.794 515.797 134.587C514.326 132.381 512.303 130.726 510.097 131.094C506.971 131.646 504.396 136.058 501.27 135.691C499.064 135.507 497.409 132.933 496.305 130.359C495.202 127.784 494.651 124.843 493.179 122.452C490.789 118.224 486.376 116.569 482.698 118.591V142.677H518.923Z" fill="url(#paint19_linear)"/>
<path opacity="0.5" d="M542.644 142.861H482.33V111.053H482.882V142.493H542.644V142.861Z" fill="#512DA8"/>
<path d="M204.296 35.3016L208.342 49.8267C208.893 51.6653 209.997 53.1362 211.468 54.0556L253.577 79.7963C256.887 81.8188 261.301 80.8995 263.507 77.4061L274.356 59.7553C276.379 56.4458 275.46 52.0331 271.966 49.8267L229.856 24.086C228.385 23.1667 226.362 22.7989 224.707 23.1667L209.813 26.1085C205.583 27.2116 203.193 31.2566 204.296 35.3016ZM212.203 34.0146C213.123 32.5437 214.962 31.9921 216.433 32.9114C217.904 33.8307 218.455 35.6693 217.536 37.1402C216.616 38.6111 214.778 39.1627 213.307 38.2434C211.835 37.3241 211.284 35.4855 212.203 34.0146Z" fill="url(#paint20_linear)"/>
</g>
<defs>
<linearGradient id="paint0_linear" x1="353.204" y1="18.7848" x2="400.399" y2="70.6494" gradientUnits="userSpaceOnUse">
<stop stop-color="#FF9100"/>
<stop offset="1" stop-color="#FFC400"/>
</linearGradient>
<linearGradient id="paint1_linear" x1="349.225" y1="121.103" x2="372.677" y2="118.619" gradientUnits="userSpaceOnUse">
<stop offset="0.2169" stop-color="#C6B4ED"/>
<stop offset="0.4445" stop-color="#C3B0EC"/>
<stop offset="0.6564" stop-color="#B9A5E8"/>
<stop offset="0.8614" stop-color="#A892E2"/>
<stop offset="0.9153" stop-color="#A38CE0"/>
</linearGradient>
<linearGradient id="paint2_linear" x1="362.865" y1="165.105" x2="365.248" y2="165.105" gradientUnits="userSpaceOnUse">
<stop offset="0.2222" stop-color="#512DA8"/>
<stop offset="0.418" stop-color="#5632AB"/>
<stop offset="0.6588" stop-color="#6540B4"/>
<stop offset="0.9206" stop-color="#7E57C2"/>
</linearGradient>
<linearGradient id="paint3_linear" x1="322.038" y1="271.292" x2="396.773" y2="271.292" gradientUnits="userSpaceOnUse">
<stop offset="0.2222" stop-color="#512DA8"/>
<stop offset="0.418" stop-color="#5632AB"/>
<stop offset="0.6588" stop-color="#6540B4"/>
<stop offset="0.9206" stop-color="#7E57C2"/>
</linearGradient>
<linearGradient id="paint4_linear" x1="323.85" y1="385.246" x2="343.755" y2="365.339" gradientUnits="userSpaceOnUse">
<stop offset="0.2222" stop-color="#512DA8"/>
<stop offset="0.418" stop-color="#5632AB"/>
<stop offset="0.6588" stop-color="#6540B4"/>
<stop offset="0.9206" stop-color="#7E57C2"/>
</linearGradient>
<linearGradient id="paint5_linear" x1="341.62" y1="324.624" x2="453.303" y2="212.927" gradientUnits="userSpaceOnUse">
<stop offset="0.2222" stop-color="#512DA8"/>
<stop offset="0.418" stop-color="#5632AB"/>
<stop offset="0.6588" stop-color="#6540B4"/>
<stop offset="0.9206" stop-color="#7E57C2"/>
</linearGradient>
<linearGradient id="paint6_linear" x1="335.432" y1="93.3747" x2="432.659" y2="164.789" gradientUnits="userSpaceOnUse">
<stop offset="0.2169" stop-color="#C6B4ED"/>
<stop offset="0.4445" stop-color="#C3B0EC"/>
<stop offset="0.6564" stop-color="#B9A5E8"/>
<stop offset="0.8614" stop-color="#A892E2"/>
<stop offset="0.9153" stop-color="#A38CE0"/>
</linearGradient>
<linearGradient id="paint7_linear" x1="394.336" y1="385.246" x2="414.241" y2="365.339" gradientUnits="userSpaceOnUse">
<stop offset="0.2222" stop-color="#512DA8"/>
<stop offset="0.418" stop-color="#5632AB"/>
<stop offset="0.6588" stop-color="#6540B4"/>
<stop offset="0.9206" stop-color="#7E57C2"/>
</linearGradient>
<linearGradient id="paint8_linear" x1="354.354" y1="67.6142" x2="451.58" y2="139.028" gradientUnits="userSpaceOnUse">
<stop offset="0.2169" stop-color="#C6B4ED"/>
<stop offset="0.4445" stop-color="#C3B0EC"/>
<stop offset="0.6564" stop-color="#B9A5E8"/>
<stop offset="0.8614" stop-color="#A892E2"/>
<stop offset="0.9153" stop-color="#A38CE0"/>
</linearGradient>
<linearGradient id="paint9_linear" x1="353.632" y1="18.3957" x2="400.827" y2="70.2603" gradientUnits="userSpaceOnUse">
<stop stop-color="#FF9100"/>
<stop offset="1" stop-color="#FFC400"/>
</linearGradient>
<linearGradient id="paint10_linear" x1="223.966" y1="180.081" x2="256.206" y2="180.081" gradientUnits="userSpaceOnUse">
<stop stop-color="#FF9100"/>
<stop offset="1" stop-color="#FFC400"/>
</linearGradient>
<linearGradient id="paint11_linear" x1="223.966" y1="180.081" x2="256.206" y2="180.081" gradientUnits="userSpaceOnUse">
<stop stop-color="#FF9100"/>
<stop offset="1" stop-color="#FFC400"/>
</linearGradient>
<linearGradient id="paint12_linear" x1="177.545" y1="247.616" x2="302.627" y2="247.616" gradientUnits="userSpaceOnUse">
<stop stop-color="#FF9100"/>
<stop offset="1" stop-color="#FFC400"/>
</linearGradient>
<linearGradient id="paint13_linear" x1="177.545" y1="296.101" x2="302.627" y2="296.101" gradientUnits="userSpaceOnUse">
<stop stop-color="#FF9100"/>
<stop offset="1" stop-color="#FFC400"/>
</linearGradient>
<linearGradient id="paint14_linear" x1="230.168" y1="258.693" x2="333.026" y2="258.693" gradientUnits="userSpaceOnUse">
<stop offset="0.2169" stop-color="#C6B4ED"/>
<stop offset="0.4445" stop-color="#C3B0EC"/>
<stop offset="0.6564" stop-color="#B9A5E8"/>
<stop offset="0.8614" stop-color="#A892E2"/>
<stop offset="0.9153" stop-color="#A38CE0"/>
</linearGradient>
<linearGradient id="paint15_linear" x1="268.341" y1="203.157" x2="294.853" y2="203.157" gradientUnits="userSpaceOnUse">
<stop offset="0.2169" stop-color="#C6B4ED"/>
<stop offset="0.4445" stop-color="#C3B0EC"/>
<stop offset="0.6564" stop-color="#B9A5E8"/>
<stop offset="0.8614" stop-color="#A892E2"/>
<stop offset="0.9153" stop-color="#A38CE0"/>
</linearGradient>
<linearGradient id="paint16_linear" x1="471.747" y1="99.7024" x2="550.044" y2="99.7024" gradientUnits="userSpaceOnUse">
<stop offset="0.2169" stop-color="#C6B4ED"/>
<stop offset="0.4445" stop-color="#C3B0EC"/>
<stop offset="0.6564" stop-color="#B9A5E8"/>
<stop offset="0.8614" stop-color="#A892E2"/>
<stop offset="0.9153" stop-color="#A38CE0"/>
</linearGradient>
<linearGradient id="paint17_linear" x1="482.634" y1="128.982" x2="537.245" y2="128.982" gradientUnits="userSpaceOnUse">
<stop offset="0.2169" stop-color="#C6B4ED"/>
<stop offset="0.4445" stop-color="#C3B0EC"/>
<stop offset="0.6564" stop-color="#B9A5E8"/>
<stop offset="0.8614" stop-color="#A892E2"/>
<stop offset="0.9153" stop-color="#A38CE0"/>
</linearGradient>
<linearGradient id="paint18_linear" x1="482.634" y1="135.946" x2="526.199" y2="135.946" gradientUnits="userSpaceOnUse">
<stop offset="0.2169" stop-color="#C6B4ED"/>
<stop offset="0.4445" stop-color="#C3B0EC"/>
<stop offset="0.6564" stop-color="#B9A5E8"/>
<stop offset="0.8614" stop-color="#A892E2"/>
<stop offset="0.9153" stop-color="#A38CE0"/>
</linearGradient>
<linearGradient id="paint19_linear" x1="482.634" y1="130.268" x2="518.961" y2="130.268" gradientUnits="userSpaceOnUse">
<stop offset="0.2169" stop-color="#C6B4ED"/>
<stop offset="0.4445" stop-color="#C3B0EC"/>
<stop offset="0.6564" stop-color="#B9A5E8"/>
<stop offset="0.8614" stop-color="#A892E2"/>
<stop offset="0.9153" stop-color="#A38CE0"/>
</linearGradient>
<linearGradient id="paint20_linear" x1="268.795" y1="68.7254" x2="205.057" y2="29.5891" gradientUnits="userSpaceOnUse">
<stop stop-color="#FF9100"/>
<stop offset="1" stop-color="#FFC400"/>
</linearGradient>
<clipPath id="clip0">
<rect width="550" height="417" fill="white"/>
</clipPath>
</defs>
</svg>
