<svg width="550" height="512" viewBox="0 0 550 512" fill="none" xmlns="http://www.w3.org/2000/svg">
<g clip-path="url(#clip0)">
<path d="M526.745 102.144C517.358 81.4594 498.797 63.7601 475.97 59.4952C448.235 54.3774 420.927 69.5177 398.739 86.1508C376.551 102.784 355.004 122.616 327.696 129.226C278.84 141.168 229.984 108.328 179.422 105.769C146.354 104.277 113.072 116.645 89.6042 138.822C2.13324 221.774 40.5351 386.186 134.833 428.408C210.997 462.527 320.015 479.374 389.779 434.805C456.342 392.37 522.905 262.717 533.572 186.589C534.426 180.618 535.066 174.647 535.493 168.676C537.199 146.072 536.133 122.829 526.745 102.144Z" fill="#DAD6FC"/>
<path d="M129.074 258.879C125.873 266.129 122.887 275.938 121.393 285.748L113.5 249.496C123.527 252.908 143.581 228.598 151.048 212.391C158.515 195.972 153.821 177.419 146.994 174.647C142.301 172.728 123.313 179.978 115.846 196.398C112.433 204.075 109.446 214.95 108.379 224.973L100.272 188.295C100.486 188.295 100.486 188.082 100.699 188.082C107.526 189.574 120.967 173.368 125.873 162.492C130.994 151.19 127.794 138.609 123.1 136.69C119.9 135.41 106.886 140.315 101.766 151.617C99.4188 156.735 97.4987 164.198 96.6454 171.235L91.3118 146.712C91.5251 146.712 91.7385 146.712 91.9518 146.712C97.0721 145.219 96.8587 129.439 94.5119 120.91C92.1651 112.38 84.4848 107.049 81.0713 108.115C78.7245 108.755 73.8176 117.498 76.3777 126.027C78.5112 133.918 85.7648 145.859 90.6717 146.712C91.9518 153.749 93.4452 162.919 95.3653 173.581C90.2451 168.037 83.2047 162.706 77.6578 159.933C66.7773 154.176 53.9766 156.948 51.8432 161.426C50.3498 164.411 54.6167 177.846 65.7105 183.39C74.671 188.082 90.8851 191.92 98.3521 189.574C100.912 204.288 103.686 220.921 106.673 237.768C100.272 227.532 85.3382 214.95 74.0309 209.193C58.0302 200.876 39.2559 204.715 36.0558 211.325C33.9223 215.803 40.1093 235.209 56.3234 243.525C72.1108 251.628 102.832 258.239 108.806 249.496C112.006 268.688 115.42 287.88 118.406 305.153C110.939 293.638 94.2986 279.99 81.9247 273.379C63.7904 263.997 42.4561 268.262 38.8292 275.938C36.2691 281.056 43.5228 303.02 61.8703 312.403C79.5779 321.573 113.713 328.823 121.18 319.653C126.087 348.015 129.714 367.847 129.927 368.06L139.527 364.222L129.927 319.867C141.661 320.08 162.569 294.704 170.462 277.218C178.996 258.452 173.449 237.554 165.769 234.356C159.155 232.01 137.607 240.326 129.074 258.879Z" fill="white"/>
<path d="M438.208 155.029C431.808 159.72 424.341 166.757 418.154 174.434L429.461 139.035C436.502 146.925 466.156 135.837 480.451 125.388C495.171 114.725 500.291 96.3865 495.598 90.6289C492.611 86.5772 472.343 83.5918 457.623 94.0408C450.796 98.9454 442.902 107.049 436.928 115.152L448.236 79.3269C448.449 79.3269 448.449 79.3269 448.662 79.3269C453.996 84.0183 473.624 76.768 483.224 69.7309C493.251 62.4806 496.665 49.8992 493.678 46.0608C491.544 43.2886 477.89 41.1561 467.863 48.4065C463.17 51.8184 457.836 57.1495 453.569 62.6938L461.25 38.8105C461.463 38.8105 461.676 39.0237 461.89 39.0237C467.01 40.3032 474.69 26.4423 476.824 17.9125C478.957 9.38272 475.117 0.852938 471.49 0.213204C469.143 -0.213285 460.61 4.90458 458.476 13.4344C456.556 21.3244 456.769 35.1853 460.61 38.5972C458.049 45.2078 454.849 53.9508 451.222 64.1866C449.516 56.9362 446.102 48.8329 442.689 43.5018C436.075 33.0529 423.701 29.0012 419.434 31.9866C416.661 33.9058 413.674 47.5535 420.501 58.0025C426.048 66.5322 437.995 77.8342 445.675 79.5401C440.555 93.6143 434.795 109.394 428.821 125.388C428.395 113.233 421.568 94.8938 414.741 84.2315C404.927 69.0912 386.793 63.1203 380.606 67.172C376.552 69.9442 372.285 89.9891 382.099 105.129C391.7 120.057 415.167 140.955 424.554 136.476C417.941 154.815 411.114 173.154 405.14 189.361C404.5 175.713 396.82 155.455 389.139 143.727C378.046 126.454 357.351 119.63 350.524 124.535C345.831 127.733 341.137 150.337 352.231 167.61C362.898 184.243 389.139 207.7 400.02 203.222C390.206 230.091 383.379 249.283 383.379 249.496L393.62 250.775L407.487 207.487C417.727 213.671 448.449 201.729 463.81 190.641C480.451 178.699 486.211 157.801 481.091 151.19C477.89 146.499 454.849 142.874 438.208 155.029Z" fill="#C3C3F4"/>
<path d="M10.0274 224.547C0.426958 232.223 -1.70648 248.43 1.06699 259.945C4.26714 273.806 16.8544 282.122 21.3346 295.13C23.8948 302.594 21.7613 306.219 19.6279 313.256C17.0678 322.426 15.5744 335.22 18.7745 344.39C23.4681 358.038 36.482 370.192 49.7093 376.377C66.1368 384.053 86.1911 380.215 102.619 388.745C113.926 394.716 119.259 409.856 130.993 414.974C142.941 420.092 167.902 416.467 169.822 400.686C171.955 382.774 154.034 370.832 153.394 353.986C152.968 344.39 157.235 334.154 157.235 324.345C157.448 311.337 155.101 295.77 149.341 283.828C138.247 261.438 118.406 240.753 92.3781 240.54C86.4045 240.54 79.7908 242.246 73.8172 240.54C66.1368 238.621 64.2167 233.29 59.3098 227.745C52.4828 220.282 38.4021 216.23 28.1616 215.59C19.6279 215.164 16.4277 218.789 10.0274 224.547C10.6675 223.907 11.3075 223.48 11.7342 223.054L10.0274 224.547Z" fill="#7E57C2"/>
<path d="M17.3137 230.65L15.6579 231.995L162.301 412.389L163.956 411.044L17.3137 230.65Z" fill="#512DA8"/>
<path d="M36.5772 340.412L36.5493 342.544L106.519 343.459L106.547 341.327L36.5772 340.412Z" fill="#512DA8"/>
<path d="M105.26 268.682L103.128 268.751L105.528 342.284L107.661 342.214L105.26 268.682Z" fill="#512DA8"/>
<path d="M14.9676 263.941L14.5459 266.032L49.2632 273.03L49.685 270.94L14.9676 263.941Z" fill="#512DA8"/>
<path d="M37.3305 229.257L35.293 229.89L48.4592 272.249L50.4967 271.616L37.3305 229.257Z" fill="#512DA8"/>
<path d="M113.517 380.265L112.851 382.291L147.309 393.605L147.975 391.579L113.517 380.265Z" fill="#512DA8"/>
<path d="M136.146 346.408L134.069 346.894L144.142 389.871L146.219 389.384L136.146 346.408Z" fill="#512DA8"/>
<path d="M403.86 381.708V367.633C403.86 364.435 401.3 361.663 397.886 361.663H393.619C390.846 361.663 388.286 359.957 387.432 357.398C386.792 355.478 385.939 353.559 385.086 351.64C383.805 349.081 384.446 346.096 386.366 344.177L389.352 341.191C391.699 338.845 391.699 335.22 389.352 332.875L379.539 323.065C377.192 320.72 373.565 320.72 371.218 323.065L368.231 326.051C366.311 327.97 363.324 328.61 360.764 327.33C358.844 326.477 356.924 325.624 355.004 324.985C352.444 324.132 350.737 321.573 350.737 318.8V314.536C350.737 311.337 348.177 308.565 344.764 308.565H330.683C327.483 308.565 324.709 311.124 324.709 314.536V318.8C324.709 321.573 323.003 324.132 320.229 324.985C318.309 325.624 316.389 326.477 314.469 327.33C311.909 328.61 308.922 327.97 307.002 326.051L304.015 323.065C301.668 320.72 298.041 320.72 295.695 323.065L285.881 332.875C283.534 335.22 283.534 338.845 285.881 341.191L288.868 344.177C290.788 346.096 291.428 349.081 290.148 351.64C289.294 353.559 288.441 355.478 287.801 357.398C286.947 359.957 284.387 361.663 281.614 361.663H277.347C274.147 361.663 271.373 364.221 271.373 367.633V381.708C271.373 384.906 273.933 387.678 277.347 387.678H281.614C284.387 387.678 286.947 389.384 287.801 391.943C288.441 393.862 289.294 395.782 290.148 397.701C291.428 400.26 290.788 403.245 288.868 405.164L285.881 408.15C283.534 410.496 283.534 414.121 285.881 416.466L295.695 426.276C298.041 428.621 301.668 428.621 304.015 426.276L307.002 423.29C308.922 421.371 311.909 420.731 314.469 422.011C316.389 422.864 318.309 423.717 320.229 424.356C322.789 425.209 324.709 427.768 324.709 430.54V434.805C324.709 438.004 327.269 440.776 330.683 440.776H344.764C347.964 440.776 350.737 438.217 350.737 434.805V430.54C350.737 427.768 352.444 425.209 355.004 424.356C356.924 423.717 358.844 422.864 360.764 422.011C363.324 420.731 366.311 421.371 368.231 423.29L371.218 426.276C373.565 428.621 377.192 428.621 379.539 426.276L389.352 416.466C391.699 414.121 391.699 410.496 389.352 408.15L386.366 405.164C384.446 403.245 383.805 400.26 385.086 397.701C385.939 395.782 386.792 393.862 387.432 391.943C388.286 389.384 390.846 387.678 393.619 387.678H397.886C401.3 387.678 403.86 385.119 403.86 381.708ZM340.07 406.657C320.442 408.15 304.228 391.943 305.722 372.325C307.002 356.758 319.376 344.39 334.95 343.11C354.577 341.618 370.792 357.824 369.298 377.443C368.231 392.796 355.644 405.378 340.07 406.657Z" fill="white"/>
<path d="M512.238 171.449V157.374C512.238 154.176 509.678 151.404 506.265 151.404H501.998C499.224 151.404 496.664 149.698 495.811 147.139C495.171 145.219 494.317 143.3 493.464 141.381C492.184 138.822 492.824 135.837 494.744 133.917L497.731 130.932C500.078 128.586 500.078 124.961 497.731 122.616L487.917 112.806C485.57 110.461 481.943 110.461 479.597 112.806L476.61 115.792C474.69 117.711 471.703 118.351 469.143 117.071C467.223 116.218 465.303 115.365 463.382 114.725C460.822 113.873 459.116 111.314 459.116 108.541V104.277C459.116 101.078 456.555 98.3057 453.142 98.3057H439.061C435.861 98.3057 433.088 100.865 433.088 104.277V108.541C433.088 111.314 431.381 113.873 428.607 114.725C426.687 115.365 424.767 116.218 422.847 117.071C420.287 118.351 417.3 117.711 415.38 115.792L412.393 112.806C410.047 110.461 406.42 110.461 404.073 112.806L394.259 122.616C391.912 124.961 391.912 128.586 394.259 130.932L397.246 133.917C399.166 135.837 399.806 138.822 398.526 141.381C397.673 143.3 396.819 145.219 396.179 147.139C395.326 149.698 392.766 151.404 389.992 151.404H385.725C382.525 151.404 379.752 153.962 379.752 157.374V171.449C379.752 174.647 382.312 177.419 385.725 177.419H389.992C392.766 177.419 395.326 179.125 396.179 181.684C396.819 183.603 397.673 185.523 398.526 187.442C399.806 190.001 399.166 192.986 397.246 194.905L394.259 197.891C391.912 200.237 391.912 203.862 394.259 206.207L404.073 216.017C406.42 218.362 410.047 218.362 412.393 216.017L415.38 213.031C417.3 211.112 420.287 210.472 422.847 211.752C424.767 212.605 426.687 213.458 428.607 214.097C431.168 214.95 433.088 217.509 433.088 220.282V224.546C433.088 227.745 435.648 230.517 439.061 230.517H453.142C456.342 230.517 459.116 227.958 459.116 224.546V220.282C459.116 217.509 460.822 214.95 463.382 214.097C465.303 213.458 467.223 212.605 469.143 211.752C471.703 210.472 474.69 211.112 476.61 213.031L479.597 216.017C481.943 218.362 485.57 218.362 487.917 216.017L497.731 206.207C500.078 203.862 500.078 200.237 497.731 197.891L494.744 194.905C492.824 192.986 492.184 190.001 493.464 187.442C494.317 185.523 495.171 183.603 495.811 181.684C496.664 179.125 499.224 177.419 501.998 177.419H506.265C509.678 177.206 512.238 174.647 512.238 171.449ZM448.662 196.185C429.034 197.678 412.82 181.471 414.313 161.853C415.593 146.286 427.967 133.917 443.541 132.638C463.169 131.145 479.383 147.352 477.89 166.97C476.61 182.324 464.022 194.905 448.662 196.185Z" fill="url(#paint0_linear)"/>
<path d="M493.251 317.948C492.184 309.844 485.997 291.505 477.89 303.02C472.983 310.057 476.184 321.146 472.77 329.036C465.943 322.212 448.662 282.762 433.088 299.182C423.061 309.631 438.422 338.419 443.329 349.508C439.915 345.243 431.808 340.338 427.541 346.096C423.701 351.427 430.528 363.795 432.448 369.126C423.914 365.501 418.154 356.545 408.98 362.942C401.727 368.06 401.727 378.296 402.58 385.972C403.647 394.289 406.42 401.966 406.634 410.282C406.634 419.878 403.22 427.555 401.94 436.938C411.967 416.893 442.049 422.437 459.969 421.158C469.57 420.518 519.919 417.533 500.931 397.701C497.305 394.076 454.423 390.237 470.637 380.215C477.89 375.737 493.038 380.428 501.571 379.575C508.185 378.722 521.412 376.803 526.319 372.112C534.853 363.795 528.453 352.067 519.492 348.655C511.599 345.669 501.571 348.868 494.744 344.177C500.505 337.353 512.452 339.912 518.426 333.941C526.106 326.691 518.426 322.639 511.172 321.146C521.839 315.815 529.093 298.329 511.172 297.476C504.772 297.263 499.865 300.675 496.238 305.793C493.891 309.844 490.478 317.734 493.251 317.948C492.398 317.521 491.331 316.668 491.331 315.815L493.251 317.948Z" fill="#C3C3F4"/>
<path d="M113.712 351.853C113.712 358.677 119.473 364.222 126.726 364.222H414.314C421.354 364.222 427.328 358.677 427.328 351.853V167.397C427.328 160.573 421.567 155.029 414.314 155.029H126.513C119.473 155.029 113.499 160.573 113.499 167.397V351.853H113.712Z" fill="url(#paint1_linear)"/>
<path d="M147.634 340.765C147.634 348.015 153.608 353.986 160.861 353.986H403.22C410.473 353.986 416.447 348.015 416.447 340.765V178.486C416.447 171.235 410.473 165.265 403.22 165.265H161.075C153.821 165.265 147.847 171.235 147.847 178.486V340.765H147.634Z" fill="#DED4F9"/>
<path d="M119.686 259.519C119.686 265.703 124.593 270.607 130.78 270.607C136.967 270.607 141.874 265.703 141.874 259.519C141.874 253.334 136.967 248.43 130.78 248.43C124.593 248.43 119.686 253.548 119.686 259.519Z" fill="#7E57C2"/>
<path d="M320.016 311.124C320.016 315.175 316.602 318.587 312.549 318.587C308.495 318.587 305.082 315.175 305.082 311.124V207.913C305.082 203.862 308.495 200.45 312.549 200.45C316.602 200.45 320.016 203.862 320.016 207.913V311.124Z" fill="url(#paint2_linear)"/>
<path d="M259 259.519C259 284.255 238.945 304.3 214.197 304.3C189.45 304.3 169.395 284.255 169.395 259.519C169.395 234.782 189.45 214.737 214.197 214.737C238.945 214.95 259 234.995 259 259.519Z" fill="#C3C3F4"/>
<path d="M243.639 259.518C243.639 275.725 230.412 288.946 214.198 288.946C197.984 288.946 184.756 275.725 184.756 259.518C184.756 243.312 197.984 230.091 214.198 230.091C230.412 230.304 243.639 243.312 243.639 259.518Z" fill="url(#paint3_linear)"/>
<path d="M239.158 259.519C239.158 273.166 228.065 284.468 214.197 284.468C200.543 284.468 189.236 273.379 189.236 259.519C189.236 245.871 200.33 234.569 214.197 234.569C228.065 234.782 239.158 245.871 239.158 259.519Z" fill="#C3C3F4"/>
<path d="M215.265 217.509H212.918V227.319H215.265V217.509Z" fill="#C3C3F4"/>
<path d="M227.288 219.66L222.804 228.386L224.892 229.457L229.376 220.732L227.288 219.66Z" fill="#C3C3F4"/>
<path d="M238.246 225.819L231.627 233.061L233.359 234.643L239.979 227.401L238.246 225.819Z" fill="#C3C3F4"/>
<path d="M240.439 241.18L238.946 239.047L246.84 233.29L248.333 235.209L240.439 241.18Z" fill="#C3C3F4"/>
<path d="M252.304 242.89L243.352 246.909L244.314 249.049L253.266 245.029L252.304 242.89Z" fill="#C3C3F4"/>
<path d="M246.626 257.386V255.04L256.44 254.614V256.96L246.626 257.386Z" fill="#C3C3F4"/>
<path d="M247.08 262.838L246.626 265.139L256.254 267.036L256.708 264.735L247.08 262.838Z" fill="#C3C3F4"/>
<path d="M230.044 288.546L227.936 289.577L232.25 298.388L234.358 297.357L230.044 288.546Z" fill="#C3C3F4"/>
<path d="M218.497 292.004L218.32 301.811L220.666 301.853L220.843 292.046L218.497 292.004Z" fill="#C3C3F4"/>
<path d="M208.741 291.075L205.998 300.494L208.251 301.149L210.994 291.73L208.741 291.075Z" fill="#C3C3F4"/>
<path d="M199.435 288.215L195.016 296.973L197.111 298.03L201.53 289.271L199.435 288.215Z" fill="#C3C3F4"/>
<path d="M192.555 282.779L186.295 290.333L188.102 291.829L194.362 284.275L192.555 282.779Z" fill="#C3C3F4"/>
<path d="M186.676 276.365L187.743 278.497L179.209 283.189L177.929 281.056L186.676 276.365Z" fill="#C3C3F4"/>
<path d="M183.433 269.371L173.95 271.895L174.554 274.162L184.037 271.638L183.433 269.371Z" fill="#C3C3F4"/>
<path d="M279.694 435.232L51.4158 474.895L34.135 376.163L262.626 336.5L279.694 435.232Z" fill="url(#paint4_linear)"/>
<path d="M255.159 367.633C248.545 368.7 242.145 364.435 241.078 357.824C240.438 354.626 241.291 351.427 242.998 348.868L59.5227 380.855C62.0828 382.561 63.7896 385.333 64.4296 388.745C65.4963 395.355 61.2294 401.753 54.6158 402.819C52.0557 403.245 49.7089 402.819 47.5754 401.966L55.2558 446.534C56.9626 444.828 59.096 443.762 61.6561 443.335C68.2698 442.269 74.6701 446.534 75.7368 453.144C76.3768 456.343 75.5235 459.755 73.8167 462.101L257.292 430.114C254.732 428.408 253.025 425.636 252.385 422.224C251.319 415.613 255.586 409.216 262.199 408.15C263.693 407.937 264.973 407.937 266.253 408.15L258.999 366.354C257.719 366.994 256.439 367.42 255.159 367.633Z" fill="#EBE6FC"/>
<path d="M189.022 400.047C192.009 417.746 180.275 434.592 162.568 437.791C144.86 440.776 128.006 429.048 124.806 411.349C121.819 393.649 133.553 376.803 151.26 373.604C169.181 370.406 186.035 382.347 189.022 400.047Z" fill="url(#paint5_linear)"/>
<path d="M313.188 422.437L93.4443 496.22L61.4427 401.113L281.4 327.543L313.188 422.437Z" fill="url(#paint6_linear)"/>
<path d="M278.627 359.53C272.226 361.663 265.399 358.251 263.266 351.853C262.199 348.655 262.626 345.456 263.906 342.684L87.2574 401.966C90.0308 403.459 92.1643 405.804 93.231 409.003C95.3644 415.4 91.9509 422.224 85.5506 424.356C83.2038 425.209 80.6437 425.209 78.5103 424.57L92.8043 467.432C94.2977 465.513 96.2178 464.02 98.5646 463.38C104.965 461.248 111.792 464.66 113.925 471.057C114.992 474.256 114.565 477.454 113.285 480.227L289.934 420.945C287.16 419.452 285.027 417.106 283.96 413.908C281.827 407.51 285.24 400.686 291.641 398.554C292.921 398.127 294.414 397.914 295.694 397.914L282.254 357.611C281.187 358.464 279.907 359.104 278.627 359.53Z" fill="#EBE6FC"/>
<path d="M218.251 401.539C224.011 418.599 214.837 437.151 197.77 442.695C180.702 448.453 162.141 439.284 156.595 422.224C150.834 405.164 160.008 386.612 177.076 381.068C193.93 375.31 212.491 384.48 218.251 401.539Z" fill="url(#paint7_linear)"/>
<path d="M336.017 496.646H190.303V499.419H336.017V496.646Z" fill="url(#paint8_linear)"/>
<path d="M232.544 413.481H205.45V496.646H232.544V413.481Z" fill="url(#paint9_linear)"/>
<path d="M277.134 388.531H250.039V496.646H277.134V388.531Z" fill="url(#paint10_linear)"/>
<path d="M321.509 363.582H294.414V496.646H321.509V363.582Z" fill="url(#paint11_linear)"/>
<path d="M210.997 237.981C210.997 237.981 209.717 245.444 210.997 246.511C212.277 247.79 218.464 248.43 220.598 248.43C222.731 248.217 224.225 248.217 224.225 247.364C224.225 245.018 216.971 244.165 219.531 244.591C221.451 245.018 214.411 243.952 213.984 240.753C213.771 238.194 213.131 237.981 213.131 237.981H210.997Z" fill="#512DA8"/>
<path d="M235.531 248.217C235.531 248.217 234.891 255.68 236.385 256.746C237.665 257.813 243.852 258.026 245.985 257.813C248.119 257.386 249.612 257.173 249.612 256.32C249.399 253.974 242.145 253.761 244.705 253.974C246.625 254.187 239.585 253.761 238.945 250.562C238.305 248.003 237.878 247.79 237.878 247.79L235.531 248.217Z" fill="#512DA8"/>
<path d="M242.358 252.695H231.904L208.65 174.434C208.65 174.434 199.689 168.89 196.276 168.463C146.353 162.279 159.367 139.249 159.367 139.249L187.742 138.609C187.742 138.609 222.517 152.683 227.851 162.706C233.398 172.515 242.358 252.695 242.358 252.695Z" fill="url(#paint12_linear)"/>
<path d="M217.611 242.246L212.064 188.508C212.064 188.508 209.93 164.838 202.677 161.639C195.423 158.227 167.902 140.954 167.902 140.954L143.794 134.77C143.794 134.77 135.9 152.47 144.647 164.198C153.608 175.927 185.183 173.794 188.809 183.817C196.063 204.075 207.584 242.246 207.584 242.246H217.611Z" fill="url(#paint13_linear)"/>
<path d="M134.407 145.859C134.407 145.859 142.94 128.586 144.007 120.91C145.714 110.461 142.3 90.6289 148.701 83.3786C151.047 80.8197 157.874 76.3416 161.928 76.3416C174.088 76.3416 177.929 83.8051 178.782 89.5627C181.342 107.049 190.089 136.05 187.102 139.888C175.795 154.602 134.407 145.859 134.407 145.859Z" fill="url(#paint14_linear)"/>
<path d="M158.728 78.9004C160.222 73.5693 159.795 65.0396 159.795 65.0396L169.822 68.025C169.822 68.025 169.822 74.4223 169.822 76.5548C169.822 78.2607 169.822 79.7534 169.822 79.7534C169.822 79.7534 169.395 81.8859 165.342 81.8859C160.648 81.8859 158.728 78.9004 158.728 78.9004Z" fill="#FBBE52"/>
<path d="M176.649 56.2966C175.796 62.2674 174.516 71.2237 167.689 72.0766C163.422 72.7164 159.155 68.025 158.728 62.0542C158.088 53.7376 162.782 45.4211 167.689 45.4211C172.596 45.4211 177.929 47.5535 176.649 56.2966Z" fill="#FBBE52"/>
<path d="M160.648 60.7746C161.501 59.4952 159.155 49.8992 166.408 49.0462C168.968 48.833 171.315 48.833 172.382 49.6859C176.862 52.8846 175.369 59.7084 176.009 59.9217C178.356 60.5614 180.489 53.0978 178.996 49.4727C177.502 45.8475 175.155 41.5826 167.902 41.5826C164.275 41.5826 158.941 42.8621 155.528 46.7005C152.541 49.8992 155.314 54.5906 155.314 54.5906C156.381 57.1495 157.021 61.8409 157.021 61.8409C157.021 61.8409 160.221 61.4144 160.648 60.7746Z" fill="url(#paint15_linear)"/>
<path d="M156.168 63.3335C156.168 65.2527 157.021 66.7454 158.088 66.7454C159.155 66.7454 160.008 65.2527 160.008 63.3335C160.008 61.4143 159.155 59.9216 158.088 59.9216C157.021 59.9216 156.168 61.4143 156.168 63.3335Z" fill="#FBBE52"/>
<path d="M292.068 150.124C292.068 152.47 290.148 154.389 287.801 154.389H177.502C175.155 154.389 173.235 152.47 173.235 150.124V76.3415C173.235 73.9959 175.155 72.0767 177.502 72.0767H288.014C290.361 72.0767 292.281 73.9959 292.281 76.3415V150.124H292.068Z" fill="url(#paint16_linear)"/>
<path d="M292.281 115.792H173.448V134.344H292.281V115.792Z" fill="url(#paint17_linear)"/>
<path d="M259.853 79.327H189.023V85.2979H259.853V79.327Z" fill="white"/>
<path d="M216.118 95.5336H189.023V106.409H216.118V95.5336Z" fill="white"/>
<path d="M283.96 95.5336H239.585V106.409H283.96V95.5336Z" fill="white"/>
<path d="M195.636 130.079C195.636 130.079 193.289 125.601 197.129 124.961C200.97 124.108 206.09 122.829 206.09 122.829C206.09 122.829 210.143 125.388 208.01 127.094C206.09 128.586 195.636 130.079 195.636 130.079Z" fill="url(#paint18_linear)"/>
<path d="M144.86 97.0262C145.287 103.85 151.26 119.204 159.154 126.454C167.048 133.704 167.688 133.918 175.155 135.197C182.622 136.476 198.196 135.41 198.196 135.41V121.549C198.196 121.549 180.488 121.549 176.648 120.696C164.061 117.924 167.688 87.0037 154.46 82.0991C147.847 79.3269 144.433 90.2024 144.86 97.0262Z" fill="url(#paint19_linear)"/>
<path d="M536.132 504.963C536.132 508.801 503.064 512 462.102 512C421.14 512 388.072 508.801 388.072 504.963C388.072 501.124 421.14 497.926 462.102 497.926C503.064 497.926 536.132 501.124 536.132 504.963Z" fill="#DED4F9"/>
<path d="M413.459 287.667C409.619 295.983 397.672 294.064 389.565 291.932C381.458 289.799 373.991 285.108 369.724 279.99C365.457 274.872 352.87 259.732 352.87 259.732L359.697 250.989C359.697 250.989 377.191 272.313 385.725 274.232C391.485 275.512 411.966 266.556 417.3 268.688C419.646 269.754 416.02 282.122 413.459 287.667Z" fill="url(#paint20_linear)"/>
<path d="M340.069 221.561C325.989 221.561 313.188 227.532 304.228 236.915V304.94C313.188 314.536 325.989 320.293 340.069 320.293C367.377 320.293 389.565 298.116 389.565 270.82C389.565 243.738 367.377 221.561 340.069 221.561Z" fill="url(#paint21_linear)"/>
<path d="M340.069 224.546C325.562 224.546 312.761 231.157 304.228 241.393V251.202C311.268 238.621 324.709 230.091 340.069 230.091C362.684 230.091 381.031 248.43 381.031 271.034C381.031 293.638 362.684 311.977 340.069 311.977C324.709 311.977 311.268 303.447 304.228 290.865V300.675C312.761 310.91 325.775 317.521 340.069 317.521C365.671 317.521 386.578 296.623 386.578 271.034C386.578 245.444 365.884 224.546 340.069 224.546Z" fill="#FA870A"/>
<path d="M359.057 280.416C359.057 285.108 357.35 288.733 354.15 291.292C350.95 293.851 345.83 294.917 339.429 294.917C336.016 294.917 333.242 294.704 330.895 294.277C328.549 293.851 326.202 293.211 324.282 292.358V281.909C326.629 282.975 329.189 283.828 332.176 284.681C335.162 285.321 337.722 285.748 339.856 285.748C344.336 285.748 346.683 284.468 346.683 281.696C346.683 280.63 346.47 279.99 345.83 279.35C345.189 278.71 344.123 278.071 342.629 277.218C341.136 276.365 339.216 275.512 336.656 274.446C333.029 272.953 330.469 271.673 328.762 270.394C327.055 269.114 325.775 267.622 325.135 265.916C324.282 264.21 324.068 262.291 324.068 259.945C324.068 255.893 325.562 252.695 328.762 250.349C331.962 248.003 336.442 246.937 342.416 246.937C347.963 246.937 353.51 248.216 358.63 250.562L354.79 259.732C352.443 258.665 350.31 258.026 348.39 257.386C346.47 256.746 344.336 256.533 342.203 256.533C338.576 256.533 336.656 257.599 336.656 259.518C336.656 260.585 337.296 261.651 338.362 262.504C339.643 263.357 342.203 264.636 346.256 266.129C349.883 267.622 352.443 268.901 354.15 270.181C355.857 271.46 357.137 272.953 357.777 274.659C358.63 276.152 359.057 278.284 359.057 280.416Z" fill="#FFDC8C"/>
<path d="M462.742 496.22C462.742 496.22 466.156 502.83 465.302 504.536C464.449 506.029 458.902 508.588 456.769 509.014C454.635 509.441 453.142 509.867 452.928 509.014C452.288 506.882 458.902 503.897 456.555 504.963C454.849 505.816 461.249 502.83 460.609 499.632C460.182 497.073 460.609 496.859 460.609 496.859L462.742 496.22Z" fill="#512DA8"/>
<path d="M401.299 495.154C401.299 495.154 402.579 502.617 401.299 503.683C400.019 504.963 393.832 505.603 391.698 505.603C389.565 505.389 388.072 505.389 388.072 504.536C388.072 502.191 395.325 501.338 392.765 501.764C390.845 502.191 397.885 501.124 398.312 497.926C398.525 495.367 399.165 495.154 399.165 495.154H401.299Z" fill="#512DA8"/>
<path d="M461.036 459.328C459.329 451.012 457.409 445.681 456.129 442.269C456.769 441.416 457.196 440.35 457.196 439.497C456.769 435.872 454.209 401.752 453.995 386.612C453.995 384.266 453.995 381.921 453.995 379.788C453.995 379.788 453.782 350.147 449.089 345.243C448.235 344.176 445.675 343.323 442.262 342.684C440.768 341.191 439.701 340.338 439.701 340.338C439.701 340.338 438.421 340.978 436.501 341.831C421.994 339.912 400.446 339.272 400.446 339.272C400.446 339.272 399.593 349.294 398.953 359.53C398.526 364.435 398.313 369.766 397.886 377.229C397.886 378.935 397.673 380.855 397.459 382.774C396.606 394.929 394.686 424.356 395.539 438.004C395.539 438.857 395.539 439.923 395.539 440.989C395.539 449.093 395.539 499.632 395.539 499.632H402.793C402.793 499.632 408.553 478.094 409.62 460.821C410.26 451.652 409.833 445.681 409.407 442.056C409.833 441.629 410.047 440.989 410.26 440.563C410.9 436.938 417.514 403.458 421.354 388.745C422.207 385.759 422.847 382.987 423.487 380.428C424.127 380.428 424.981 380.428 425.621 380.428C426.047 382.774 426.474 385.119 427.327 387.892C430.101 398.554 436.288 422.864 440.981 436.938C440.981 438.43 441.621 440.776 442.475 444.188C444.608 452.078 458.262 500.698 458.262 500.698L465.089 498.779C464.663 498.352 464.449 476.175 461.036 459.328Z" fill="url(#paint22_linear)"/>
<path d="M462.742 195.545C455.702 206.634 449.088 224.973 433.941 224.76C422.633 224.546 407.913 226.252 408.766 244.591C409.406 256.746 423.914 264.423 432.234 270.82C455.702 288.52 488.983 287.88 513.518 273.166C537.412 258.665 557.467 229.238 547.013 200.663C543.173 190.427 535.492 180.618 525.465 175.927C502.211 164.198 474.689 176.353 462.742 195.545Z" fill="#512DA8"/>
<path d="M401.726 312.83C403.433 302.594 407.06 276.791 410.26 271.887C413.033 267.622 418.793 266.129 427.114 266.129C434.154 266.129 450.582 270.181 448.021 293.424C447.168 301.101 452.928 351.214 452.928 351.214C452.928 351.214 430.741 345.669 418.58 344.603C406.419 343.537 397.672 348.442 398.099 346.736C399.379 339.059 400.446 321.359 401.726 312.83Z" fill="#7E57C2"/>
<path d="M432.874 270.607C431.38 265.276 432.02 268.048 431.593 265.276C431.38 262.93 431.807 254.614 431.807 254.614L421.78 257.599C421.78 257.599 421.78 263.997 421.78 266.129C421.78 267.835 421.78 267.835 421.78 267.835C421.78 267.835 422.206 273.593 426.26 273.593C430.953 273.806 432.874 270.607 432.874 270.607Z" fill="#FBBE52"/>
<path d="M414.953 246.084C415.806 252.055 417.086 261.011 423.913 261.864C428.18 262.504 432.447 257.813 432.874 251.842C433.514 243.525 428.82 245.658 423.913 245.658C418.793 245.444 413.673 237.128 414.953 246.084Z" fill="#FBBE52"/>
<path d="M435.007 254.187C433.941 255.68 432.447 256.32 431.594 255.68C430.74 255.04 430.954 253.334 432.02 251.842C433.087 250.349 434.581 249.709 435.434 250.349C436.287 250.989 436.074 252.695 435.007 254.187Z" fill="#FBBE52"/>
<path d="M376.338 299.395C376.338 299.395 371.004 298.329 368.231 295.343C365.244 292.358 363.751 291.079 366.097 288.733C367.164 287.667 367.164 287.667 368.871 287.667C370.578 287.667 372.071 286.814 378.685 295.343L376.338 299.395Z" fill="#FBBE52"/>
<path d="M371.644 302.594C371.644 302.594 373.351 291.079 381.244 294.277C394.685 299.822 411.326 304.939 415.806 300.461C420.5 295.77 435.647 268.901 440.554 270.82C453.568 275.725 448.021 284.681 448.021 287.88C447.808 300.888 425.62 317.734 419.006 319.653C412.606 321.786 371.644 302.594 371.644 302.594Z" fill="url(#paint23_linear)"/>
</g>
<defs>
<linearGradient id="paint0_linear" x1="379.72" y1="164.375" x2="512.268" y2="164.375" gradientUnits="userSpaceOnUse">
<stop offset="0.2169" stop-color="#C6B4ED"/>
<stop offset="0.4445" stop-color="#C3B0EC"/>
<stop offset="0.6564" stop-color="#B9A5E8"/>
<stop offset="0.8614" stop-color="#A892E2"/>
<stop offset="0.9153" stop-color="#A38CE0"/>
</linearGradient>
<linearGradient id="paint1_linear" x1="485.073" y1="353.396" x2="76.2407" y2="174.676" gradientUnits="userSpaceOnUse">
<stop offset="0.0793651" stop-color="#512DA8"/>
<stop offset="0.5608" stop-color="#512DA8"/>
<stop offset="0.6727" stop-color="#5530AA"/>
<stop offset="0.7774" stop-color="#603BB1"/>
<stop offset="0.879" stop-color="#734DBC"/>
<stop offset="0.9247" stop-color="#7E57C2"/>
</linearGradient>
<linearGradient id="paint2_linear" x1="281.35" y1="290.694" x2="343.548" y2="228.467" gradientUnits="userSpaceOnUse">
<stop offset="0.0793651" stop-color="#422796"/>
<stop offset="0.5608" stop-color="#512DA8"/>
<stop offset="0.6727" stop-color="#5530AA"/>
<stop offset="0.7774" stop-color="#603BB1"/>
<stop offset="0.879" stop-color="#734DBC"/>
<stop offset="0.9247" stop-color="#7E57C2"/>
</linearGradient>
<linearGradient id="paint3_linear" x1="184.8" y1="259.595" x2="243.62" y2="259.595" gradientUnits="userSpaceOnUse">
<stop offset="0.0793651" stop-color="#512DA8"/>
<stop offset="0.5608" stop-color="#512DA8"/>
<stop offset="0.6727" stop-color="#5530AA"/>
<stop offset="0.7774" stop-color="#603BB1"/>
<stop offset="0.879" stop-color="#734DBC"/>
<stop offset="0.9247" stop-color="#7E57C2"/>
</linearGradient>
<linearGradient id="paint4_linear" x1="42.7604" y1="425.524" x2="271.195" y2="385.763" gradientUnits="userSpaceOnUse">
<stop offset="0.2169" stop-color="#C6B4ED"/>
<stop offset="0.4445" stop-color="#C3B0EC"/>
<stop offset="0.6564" stop-color="#B9A5E8"/>
<stop offset="0.8614" stop-color="#A892E2"/>
<stop offset="0.9153" stop-color="#A38CE0"/>
</linearGradient>
<linearGradient id="paint5_linear" x1="124.863" y1="411.246" x2="189.099" y2="400.066" gradientUnits="userSpaceOnUse">
<stop offset="0.2169" stop-color="#C6B4ED"/>
<stop offset="0.4445" stop-color="#C3B0EC"/>
<stop offset="0.6564" stop-color="#B9A5E8"/>
<stop offset="0.8614" stop-color="#A892E2"/>
<stop offset="0.9153" stop-color="#A38CE0"/>
</linearGradient>
<linearGradient id="paint6_linear" x1="77.4163" y1="448.69" x2="297.233" y2="374.927" gradientUnits="userSpaceOnUse">
<stop offset="0.2169" stop-color="#C6B4ED"/>
<stop offset="0.4445" stop-color="#C3B0EC"/>
<stop offset="0.6564" stop-color="#B9A5E8"/>
<stop offset="0.8614" stop-color="#A892E2"/>
<stop offset="0.9153" stop-color="#A38CE0"/>
</linearGradient>
<linearGradient id="paint7_linear" x1="156.423" y1="422.202" x2="218.237" y2="401.46" gradientUnits="userSpaceOnUse">
<stop offset="0.2169" stop-color="#C6B4ED"/>
<stop offset="0.4445" stop-color="#C3B0EC"/>
<stop offset="0.6564" stop-color="#B9A5E8"/>
<stop offset="0.8614" stop-color="#A892E2"/>
<stop offset="0.9153" stop-color="#A38CE0"/>
</linearGradient>
<linearGradient id="paint8_linear" x1="190.227" y1="498.016" x2="335.895" y2="498.016" gradientUnits="userSpaceOnUse">
<stop offset="0.0793651" stop-color="#512DA8"/>
<stop offset="0.5608" stop-color="#512DA8"/>
<stop offset="0.6727" stop-color="#5530AA"/>
<stop offset="0.7774" stop-color="#603BB1"/>
<stop offset="0.879" stop-color="#734DBC"/>
<stop offset="0.9247" stop-color="#7E57C2"/>
</linearGradient>
<linearGradient id="paint9_linear" x1="205.488" y1="455.03" x2="232.539" y2="455.03" gradientUnits="userSpaceOnUse">
<stop offset="0.00529099" stop-color="#FBBE52"/>
<stop offset="0.2722" stop-color="#FABB54"/>
<stop offset="0.3968" stop-color="#F9B656"/>
<stop offset="0.8783" stop-color="#FC952E"/>
</linearGradient>
<linearGradient id="paint10_linear" x1="249.966" y1="442.55" x2="277.021" y2="442.55" gradientUnits="userSpaceOnUse">
<stop offset="0.00529099" stop-color="#FBBE52"/>
<stop offset="0.2722" stop-color="#FABB54"/>
<stop offset="0.3968" stop-color="#F9B656"/>
<stop offset="0.8783" stop-color="#FC952E"/>
</linearGradient>
<linearGradient id="paint11_linear" x1="294.443" y1="430.07" x2="321.494" y2="430.07" gradientUnits="userSpaceOnUse">
<stop offset="0.00529099" stop-color="#FBBE52"/>
<stop offset="0.2722" stop-color="#FABB54"/>
<stop offset="0.3968" stop-color="#F9B656"/>
<stop offset="0.8783" stop-color="#FC952E"/>
</linearGradient>
<linearGradient id="paint12_linear" x1="157.856" y1="195.619" x2="242.361" y2="195.619" gradientUnits="userSpaceOnUse">
<stop offset="0.0793651" stop-color="#512DA8"/>
<stop offset="0.5608" stop-color="#512DA8"/>
<stop offset="0.6727" stop-color="#5530AA"/>
<stop offset="0.7774" stop-color="#603BB1"/>
<stop offset="0.879" stop-color="#734DBC"/>
<stop offset="0.9247" stop-color="#7E57C2"/>
</linearGradient>
<linearGradient id="paint13_linear" x1="140.349" y1="188.69" x2="217.579" y2="188.69" gradientUnits="userSpaceOnUse">
<stop offset="0.0793651" stop-color="#512DA8"/>
<stop offset="0.5608" stop-color="#512DA8"/>
<stop offset="0.6727" stop-color="#5530AA"/>
<stop offset="0.7774" stop-color="#603BB1"/>
<stop offset="0.879" stop-color="#734DBC"/>
<stop offset="0.9247" stop-color="#7E57C2"/>
</linearGradient>
<linearGradient id="paint14_linear" x1="134.381" y1="112.425" x2="187.913" y2="112.425" gradientUnits="userSpaceOnUse">
<stop offset="0.2169" stop-color="#C6B4ED"/>
<stop offset="0.4445" stop-color="#C3B0EC"/>
<stop offset="0.6564" stop-color="#B9A5E8"/>
<stop offset="0.8614" stop-color="#A892E2"/>
<stop offset="0.9153" stop-color="#A38CE0"/>
</linearGradient>
<linearGradient id="paint15_linear" x1="179.389" y1="51.9064" x2="153.94" y2="51.9064" gradientUnits="userSpaceOnUse">
<stop offset="0.0793651" stop-color="#512DA8"/>
<stop offset="0.5608" stop-color="#512DA8"/>
<stop offset="0.6727" stop-color="#5530AA"/>
<stop offset="0.7774" stop-color="#603BB1"/>
<stop offset="0.879" stop-color="#734DBC"/>
<stop offset="0.9247" stop-color="#7E57C2"/>
</linearGradient>
<linearGradient id="paint16_linear" x1="169.01" y1="102.825" x2="296.511" y2="123.626" gradientUnits="userSpaceOnUse">
<stop offset="0.2169" stop-color="#C6B4ED"/>
<stop offset="0.4445" stop-color="#C3B0EC"/>
<stop offset="0.6564" stop-color="#B9A5E8"/>
<stop offset="0.8614" stop-color="#A892E2"/>
<stop offset="0.9153" stop-color="#A38CE0"/>
</linearGradient>
<linearGradient id="paint17_linear" x1="173.449" y1="115.546" x2="292.071" y2="134.898" gradientUnits="userSpaceOnUse">
<stop offset="0.0793651" stop-color="#512DA8"/>
<stop offset="0.5608" stop-color="#512DA8"/>
<stop offset="0.6727" stop-color="#5530AA"/>
<stop offset="0.7774" stop-color="#603BB1"/>
<stop offset="0.879" stop-color="#734DBC"/>
<stop offset="0.9247" stop-color="#7E57C2"/>
</linearGradient>
<linearGradient id="paint18_linear" x1="197.648" y1="123.355" x2="205.432" y2="130.229" gradientUnits="userSpaceOnUse">
<stop offset="0.00529099" stop-color="#FBBE52"/>
<stop offset="0.2722" stop-color="#FABB54"/>
<stop offset="0.3968" stop-color="#F9B656"/>
<stop offset="0.8783" stop-color="#FC952E"/>
</linearGradient>
<linearGradient id="paint19_linear" x1="144.805" y1="108.616" x2="198.287" y2="108.616" gradientUnits="userSpaceOnUse">
<stop offset="0.2169" stop-color="#C6B4ED"/>
<stop offset="0.4445" stop-color="#C3B0EC"/>
<stop offset="0.6564" stop-color="#B9A5E8"/>
<stop offset="0.8614" stop-color="#A892E2"/>
<stop offset="0.9153" stop-color="#A38CE0"/>
</linearGradient>
<linearGradient id="paint20_linear" x1="352.901" y1="272.466" x2="418.126" y2="272.466" gradientUnits="userSpaceOnUse">
<stop offset="0.2222" stop-color="#512DA8"/>
<stop offset="0.418" stop-color="#5632AB"/>
<stop offset="0.6588" stop-color="#6540B4"/>
<stop offset="0.9206" stop-color="#7E57C2"/>
</linearGradient>
<linearGradient id="paint21_linear" x1="319.406" y1="234.048" x2="363.491" y2="310.031" gradientUnits="userSpaceOnUse">
<stop offset="0.00529099" stop-color="#FBBE52"/>
<stop offset="0.2722" stop-color="#FABB54"/>
<stop offset="0.3968" stop-color="#F9B656"/>
<stop offset="0.8783" stop-color="#FC952E"/>
</linearGradient>
<linearGradient id="paint22_linear" x1="395.002" y1="419.742" x2="464.724" y2="419.742" gradientUnits="userSpaceOnUse">
<stop offset="0.2222" stop-color="#512DA8"/>
<stop offset="0.418" stop-color="#5632AB"/>
<stop offset="0.6588" stop-color="#6540B4"/>
<stop offset="0.9206" stop-color="#7E57C2"/>
</linearGradient>
<linearGradient id="paint23_linear" x1="371.633" y1="295.208" x2="449.482" y2="295.208" gradientUnits="userSpaceOnUse">
<stop offset="0.2222" stop-color="#512DA8"/>
<stop offset="0.418" stop-color="#5632AB"/>
<stop offset="0.6588" stop-color="#6540B4"/>
<stop offset="0.9206" stop-color="#7E57C2"/>
</linearGradient>
<clipPath id="clip0">
<rect width="550" height="512" fill="white"/>
</clipPath>
</defs>
</svg>
