<svg width="550" height="421" viewBox="0 0 550 421" fill="none" xmlns="http://www.w3.org/2000/svg">
<g clip-path="url(#clip0)">
<path d="M541.308 266.614C527.874 247.018 499.228 249.79 475.719 249.394C453.987 248.998 429.885 242.664 418.625 224.058C406.969 204.859 412.895 180.514 415.859 158.147C419.02 133.406 417.637 107.081 404.796 85.7044C391.954 64.3279 365.284 50.0768 341.577 57.7961C316.29 65.9113 303.646 93.4238 285.866 113.217C263.74 137.562 229.957 151.022 196.965 148.449C157.454 145.084 117.745 120.738 80.8013 134.791C53.3408 145.282 36.5485 176.555 39.9069 205.651C43.0679 233.559 61.8358 258.894 60.4529 286.803C60.4529 286.803 60.4529 287.001 60.4529 287.199C60.4529 287.396 60.4529 287.594 60.4529 287.792C60.2554 289.97 59.6627 295.314 57.6871 302.241C57.6871 302.241 57.6871 302.241 57.6871 302.439C53.9335 315.305 46.6239 327.181 39.3143 339.254C37.9314 340.838 36.9436 342.817 35.9558 344.797C30.2266 357.464 31.0168 379.435 46.0312 396.457C66.5772 420.01 113.793 434.262 208.028 402.988C208.028 402.988 217.906 399.624 232.525 396.457C255.245 391.508 289.817 387.154 317.673 396.457C319.451 397.05 321.229 397.644 323.007 398.436C369.235 417.437 460.112 423.375 501.599 396.457C504.365 394.675 506.538 392.696 508.316 390.519C508.711 390.123 509.106 389.727 509.501 389.331C517.008 381.018 523.528 371.913 528.862 362.017C539.727 342.421 546.444 320.649 547.827 298.283C548.222 287.396 547.432 275.719 541.308 266.614Z" fill="#DAD6FC"/>
<path d="M79.8129 372.507C55.5133 343.213 46.2281 302.043 55.3158 265.228C59.8596 247.018 68.5521 229.6 68.5521 210.797C68.7497 192.587 60.8474 175.565 56.3036 157.949C51.7597 140.333 51.1671 119.55 63.4156 106.289C62.6254 123.707 75.0715 138.156 86.3323 151.417C97.5931 164.877 109.842 178.93 111.422 196.348C113.398 216.537 100.161 236.726 104.31 256.519C107.471 271.562 119.719 282.844 127.622 296.105C140.463 317.68 141.451 345.786 129.992 367.954C124.461 378.643 115.571 388.539 103.717 391.112C92.0615 393.883 80.9982 384.383 79.8129 372.507Z" fill="#7E57C2"/>
<path opacity="0.1" d="M105.891 337.275C108.459 354.495 105.298 372.903 100.162 391.706C99.5692 393.685 99.1741 395.665 98.5814 397.644C97.7911 396.061 97.0009 394.477 96.2107 392.894C96.4082 392.3 96.4082 391.904 96.6058 391.31C97.9887 385.966 99.3716 380.622 100.359 375.476C103.125 362.214 104.311 349.349 102.335 337.077C98.5814 333.91 94.8278 330.545 91.0742 327.576C84.5548 322.232 77.8378 317.086 71.1209 311.94C70.3307 311.346 70.1331 310.158 70.7258 309.367C71.3184 308.575 72.5038 308.377 73.294 308.971C77.8378 312.336 82.1841 315.7 86.5304 319.065C91.4693 323.024 96.6058 326.983 101.347 331.337C100.755 329.358 100.162 327.378 99.5692 325.201C99.1741 324.805 98.9765 324.409 98.9765 323.816C98.7789 323.222 98.5814 322.826 98.3838 322.232C95.618 315.503 91.6669 309.367 87.7157 303.033C83.9621 297.095 80.2085 291.157 77.4427 284.625C77.2452 284.625 77.2452 284.625 77.0476 284.625C71.1209 282.646 65.1942 280.271 59.6626 277.5C58.8723 277.104 58.4772 275.916 58.8723 275.125C59.2674 274.333 60.4528 273.937 61.243 274.333C65.9844 276.708 70.9233 278.687 75.8623 280.469C75.072 278.291 74.4794 275.916 74.0842 273.541C71.7136 260.676 75.2696 247.81 78.6281 235.34C79.6159 231.976 80.6036 228.413 81.3939 224.85C78.233 219.704 75.4672 214.162 73.0965 208.422C72.7013 207.432 73.0965 206.442 74.0842 206.047C75.072 205.651 76.0598 206.047 76.4549 207.036C78.233 211.391 80.4061 215.547 82.5792 219.704C83.3694 215.547 83.9621 211.391 83.9621 207.432C84.3572 186.649 72.7013 166.856 63.4161 150.824C62.8235 150.032 63.2186 148.844 64.0088 148.448C64.799 147.855 65.9844 148.251 66.3795 149.042C73.8867 162.106 82.9743 177.544 86.1353 194.369C89.4937 187.837 91.6669 181.107 93.0498 173.982C93.2473 172.992 94.2351 172.398 95.2229 172.596C96.2107 172.794 96.8034 173.586 96.6058 174.575C95.0253 183.68 91.8644 192.191 87.123 200.109C87.123 200.109 87.123 200.109 86.9255 200.307C87.123 202.682 87.3206 205.255 87.3206 207.828C87.123 217.724 84.5548 227.225 81.9865 236.528C80.8012 241.08 79.6159 245.435 78.6281 249.789C86.3328 242.664 92.8522 234.351 97.5936 225.246C97.9887 224.454 99.174 224.058 99.9643 224.454C100.755 224.85 101.15 226.038 100.755 226.829C94.8278 237.716 86.9255 247.414 77.6403 255.331C77.4427 255.331 77.4427 255.529 77.4427 255.529C76.4549 261.467 76.2574 267.207 77.4427 273.145C78.6281 279.875 81.3939 285.813 84.7524 291.751C89.2962 282.25 93.2473 272.551 96.4082 262.655C96.8034 261.665 97.7911 261.269 98.5814 261.467C99.5692 261.863 99.9643 262.853 99.7667 263.645C96.2107 274.531 91.8644 285.021 86.9255 295.314C88.1108 297.293 89.4937 299.272 90.6791 301.449C94.4327 307.387 98.3838 313.523 101.15 320.253C106.879 311.148 110.435 300.658 111.225 289.969C111.225 288.98 112.213 288.188 113.201 288.386C114.188 288.386 114.979 289.376 114.781 290.365C113.793 302.637 109.645 314.315 102.73 324.409C104.113 327.972 104.903 331.733 105.693 335.494C106.089 335.889 106.286 336.681 105.891 337.275Z" fill="black"/>
<path opacity="0.1" d="M97.5935 390.321C105.101 364.787 99.7667 339.65 84.9499 317.086C76.6525 304.22 65.1941 293.73 52.1553 286.604C50.3773 317.284 60.2552 348.755 79.8134 372.507C80.8012 382.403 88.7035 390.716 98.1862 391.706C97.7911 391.112 97.5935 390.716 97.5935 390.321Z" fill="black"/>
<path d="M94.63 395.071C69.5402 389.925 46.2284 376.268 29.2385 357.068C12.4461 337.869 1.97557 312.93 0 287.199C28.2507 286.209 55.5136 298.283 73.8865 319.857C92.0618 341.63 100.359 367.361 94.63 395.071Z" fill="#C3C3F4"/>
<path opacity="0.1" d="M96.2106 392.894C95.8155 394.279 95.4204 395.665 95.0253 397.05C94.6301 396.258 94.4326 395.665 94.0375 394.873C93.0497 393.092 92.2595 391.31 91.2717 389.331C87.3205 382.007 83.1718 374.882 78.628 368.152C78.0353 368.152 77.2451 368.35 76.6524 368.35C67.1696 369.538 57.6869 369.736 48.0066 368.944C47.2163 368.944 46.6237 368.152 46.6237 367.361C46.6237 366.569 47.4139 365.975 48.2041 365.975C56.8967 366.767 65.7868 366.569 74.4793 365.579C75.2695 365.579 75.8622 365.381 76.6524 365.381C74.2817 361.818 71.7135 358.256 68.9477 354.693C68.7501 354.495 68.5526 354.297 68.5526 354.099C67.1697 352.318 65.9843 350.734 64.6014 348.953C62.4283 346.182 60.2551 343.609 58.082 341.036C46.8212 342.619 35.3629 343.411 23.9046 343.015C23.1143 343.015 22.5217 342.421 22.5217 341.432C22.5217 340.64 23.3119 340.046 24.1021 340.046C34.7702 340.244 45.4383 339.848 55.9089 338.265C49.587 330.941 42.6725 324.014 35.5605 317.482C35.3629 317.482 35.3629 317.482 35.1653 317.482L7.90241 313.523C7.11218 313.325 6.5195 312.731 6.71706 311.94C6.91462 311.148 7.50729 310.554 8.29752 310.752L31.8069 314.117C25.0899 308.179 18.1754 302.637 10.8658 297.491C10.2731 297.095 10.0755 296.105 10.4707 295.511C10.8658 294.918 11.8536 294.72 12.4462 295.116C24.1021 303.627 35.1653 312.929 45.4383 323.222C43.4628 314.909 40.6969 306.794 37.536 299.074C37.1409 298.283 37.536 297.491 38.3263 297.095C39.1165 296.699 39.9067 297.095 40.3018 297.887C44.253 307.189 47.2163 317.086 49.3895 326.983V327.18C53.1431 331.139 56.8967 335.098 60.4527 339.254C63.4161 342.619 66.1819 346.182 68.9477 349.745C69.5403 339.848 68.355 329.951 65.5892 320.451C65.3916 319.659 65.7868 318.867 66.577 318.669C67.3672 318.471 68.1574 318.867 68.355 319.659C71.5159 330.347 72.5037 342.025 71.5159 353.307C74.6768 357.464 77.4426 361.621 80.406 365.777C80.6036 365.975 80.6036 365.975 80.6036 366.173C85.9376 374.288 90.8765 382.601 95.2228 391.112C95.6179 391.706 96.013 392.3 96.2106 392.894Z" fill="url(#paint0_linear)"/>
<path d="M349.677 106.685C347.701 106.487 345.726 107.278 344.738 108.862C342.565 112.623 331.699 123.113 320.636 134.197C318.463 136.374 319.648 139.739 322.611 140.729L348.096 149.24C350.072 150.032 352.245 149.24 353.628 147.854C358.172 143.104 380.298 123.113 383.064 116.977C384.249 114.404 382.669 111.435 379.508 110.841L349.677 106.685Z" fill="#FFDC8C"/>
<path d="M230.747 52.848L228.969 54.0355C227.389 55.2231 225.215 54.8273 223.833 53.2438L197.755 20.1893C196.372 18.4079 196.767 16.0327 198.545 14.8451L209.411 7.12581C211.386 5.74029 214.152 6.53201 214.942 8.70926L231.932 48.0976C232.723 49.879 232.13 51.8583 230.747 52.848Z" fill="#EF940F"/>
<path d="M331.501 66.3073L324.587 62.5466C322.611 61.359 322.019 58.7859 323.599 57.0045L343.552 33.0548C344.738 31.6693 346.911 31.2734 348.491 32.461L359.752 40.3783C361.728 41.7638 361.925 44.7327 359.95 46.3162L335.65 66.3073C334.267 66.7031 332.687 66.9011 331.501 66.3073Z" fill="#FFDC8C"/>
<path d="M299.892 45.5242C305.621 47.5035 310.955 50.0766 315.499 53.4415L341.972 22.3662C334.464 16.2304 326.167 11.0842 316.684 7.12553C305.028 2.37518 292.385 0 278.556 0C262.553 0 248.724 2.96897 236.673 8.90691C232.327 11.0842 228.376 13.4593 224.622 15.8345L244.378 52.4518C254.058 45.5242 265.517 41.9614 278.556 41.9614C285.865 42.1594 292.977 43.347 299.892 45.5242Z" fill="url(#paint1_linear)"/>
<path d="M297.917 207.036C296.731 207.036 295.348 206.641 294.163 205.849L270.061 189.816C268.283 188.629 267.295 186.847 267.098 184.67C266.9 182.691 267.69 180.712 269.271 179.326C272.037 176.951 274.605 174.576 277.371 172.596C284.483 166.856 291.397 160.918 297.719 154.98C301.077 151.814 304.238 148.449 307.004 144.886C308.782 142.709 311.746 141.917 314.511 142.907L342.762 153.397C344.738 154.189 346.121 155.772 346.911 157.751C347.503 159.731 347.108 161.908 345.923 163.689C343.157 167.648 340.194 171.211 337.033 174.576C330.514 181.503 323.599 188.035 316.289 193.775C311.548 197.536 306.807 201.494 302.263 205.651C301.275 206.443 299.497 207.036 297.917 207.036ZM312.338 146.271C311.548 146.271 310.758 146.667 310.363 147.261C307.399 151.022 304.041 154.387 300.682 157.751C294.361 163.887 287.446 169.825 280.136 175.565C277.568 177.545 274.802 179.92 272.234 182.295C271.641 182.889 271.246 183.68 271.444 184.472C271.444 185.264 272.037 186.056 272.629 186.649L296.731 202.682C297.719 203.276 299.102 203.276 300.09 202.484C304.634 198.327 309.375 194.369 314.314 190.41C321.426 184.67 328.34 178.336 334.662 171.607C337.626 168.44 340.589 164.877 343.157 161.116C343.552 160.325 343.75 159.533 343.552 158.741C343.355 157.949 342.762 157.356 341.972 156.96L313.721 146.469C312.931 146.271 312.536 146.271 312.338 146.271Z" fill="#FFDC8C"/>
<g opacity="0.51">
<path opacity="0.51" d="M353.035 378.049C353.035 381.413 383.459 384.184 420.995 384.184C458.531 384.184 488.955 381.413 488.955 378.049C488.955 374.684 458.531 371.913 420.995 371.913C383.459 371.715 353.035 374.684 353.035 378.049Z" fill="url(#paint2_linear)"/>
</g>
<path d="M446.048 129.255L442.508 129.594L466.302 379.048L469.842 378.709L446.048 129.255Z" fill="#C3C3F4"/>
<path d="M395.165 129.24L371.385 378.693L374.925 379.032L398.705 129.579L395.165 129.24Z" fill="#C3C3F4"/>
<path d="M461.099 304.022H380.1V307.585H461.099V304.022Z" fill="#C3C3F4"/>
<path d="M466.038 357.067H375.952V360.631H466.038V357.067Z" fill="#C3C3F4"/>
<path d="M393.929 130.833H447.468C449.246 130.833 450.628 129.448 450.628 127.666C450.628 125.884 449.246 124.499 447.468 124.499H393.929C392.151 124.499 390.769 125.884 390.769 127.666C390.769 129.448 392.151 130.833 393.929 130.833Z" fill="url(#paint3_linear)"/>
<path d="M183.728 326.389H88.9008V350.14H183.728V326.389Z" fill="#C3C3F4"/>
<path d="M183.728 326.389H88.9008V329.754H183.728V326.389Z" fill="url(#paint4_linear)"/>
<path d="M174.641 350.141H79.8135V380.226H174.641V350.141Z" fill="#C3C3F4"/>
<path d="M181.358 350.141H79.8135V353.506H181.358V350.141Z" fill="url(#paint5_linear)"/>
<path d="M164.763 400.613L68.9479 399.623V379.434H174.641L164.763 400.613Z" fill="#C3C3F4"/>
<path d="M174.641 379.434H68.9479V382.799H174.641V379.434Z" fill="url(#paint6_linear)"/>
<path d="M179.777 326.389V350.14L174.839 353.505V375.278L164.763 382.601V400.613L186.89 380.622V326.389H179.777Z" fill="url(#paint7_linear)"/>
<path d="M207.041 44.1387C199.138 53.4414 193.409 63.7339 189.26 75.016C185.112 86.496 182.939 97.5801 182.346 108.466C182.148 111.435 182.938 114.008 184.914 116.186C186.89 118.363 189.063 119.353 191.631 119.353H209.609C211.782 119.353 214.153 118.363 216.326 116.582C218.499 114.8 219.882 112.029 220.474 108.466C223.24 95.4029 227.389 84.7146 233.118 76.5994L207.041 44.1387Z" fill="white"/>
<path d="M209.609 121.332H191.631C188.47 121.332 185.704 119.946 183.531 117.373C181.161 114.8 180.173 111.633 180.568 108.268C181.161 97.3819 183.531 85.9019 187.68 74.4219C191.631 62.9419 197.755 52.4515 205.658 42.9508L207.238 41.1694L235.686 76.5991L234.896 77.7867C229.365 85.704 225.216 96.1943 222.648 109.06C222.055 113.019 220.475 116.185 217.709 118.363C215.14 120.342 212.375 121.332 209.609 121.332ZM207.041 47.3053C200.126 56.0143 194.792 65.515 191.236 75.6095C187.285 86.6936 184.914 97.7778 184.519 108.466C184.322 111.039 184.914 113.019 186.495 114.8C188.075 116.581 189.853 117.373 191.829 117.373H209.806C211.584 117.373 213.362 116.581 215.338 114.998C217.116 113.414 218.301 111.237 218.894 108.07C221.462 95.4026 225.611 84.7143 230.945 76.5991L207.041 47.3053Z" fill="#FFDC8C"/>
<path d="M127.029 310.356C127.029 310.356 126.239 319.857 126.041 321.044C126.041 322.232 121.893 322.43 121.3 321.836C120.905 321.242 119.72 310.356 119.72 310.356" fill="#FBBE52"/>
<path d="M120.312 322.826C120.312 324.212 120.707 326.39 120.707 326.39H125.449L125.646 325.598C125.646 325.598 127.227 326.39 128.412 326.39H132.363C135.327 326.39 136.907 325.994 136.907 325.598C137.302 323.42 133.746 323.618 132.758 323.618C130.19 323.618 127.424 322.43 126.634 321.045C126.239 320.055 126.436 319.857 125.844 320.055C125.844 320.055 125.449 320.253 125.054 320.847C124.461 321.837 123.671 322.43 122.683 322.232C122.09 322.034 121.498 321.836 121.102 321.441C121.3 321.243 120.312 321.441 120.312 322.826Z" fill="#512DA8"/>
<path d="M145.205 308.971C145.205 308.971 142.044 316.69 141.452 317.878C140.859 319.065 137.105 317.68 136.908 316.888C136.71 316.096 137.895 306.793 137.895 306.793" fill="#FBBE52"/>
<path d="M135.327 317.482C134.735 318.669 134.142 321.044 134.142 321.044L137.698 323.222L138.488 322.628C138.488 322.628 139.278 323.815 140.464 324.607C141.254 325.201 143.032 325.795 144.02 325.993C147.378 326.784 149.749 326.388 150.144 325.993C151.132 324.211 146.983 323.024 145.995 322.826C143.625 321.836 142.439 319.461 142.439 318.075C142.439 317.086 142.637 316.888 142.044 316.888C142.044 316.888 141.649 316.888 141.056 317.284C140.266 317.877 139.081 318.075 138.291 317.679C137.698 317.284 137.303 316.888 137.105 316.294C136.908 316.294 135.92 316.294 135.327 317.482Z" fill="#512DA8"/>
<path d="M117.744 198.723C115.966 197.535 114.188 196.15 112.41 194.566C108.459 191.201 104.903 187.639 104.31 184.868C103.323 178.93 104.113 161.116 104.508 152.803C104.508 152.209 104.508 151.813 104.508 151.417C104.903 143.5 109.249 139.937 111.422 138.75C112.41 149.042 114.979 172.2 115.176 173.387C115.571 174.971 117.744 198.723 117.744 198.723Z" fill="url(#paint8_linear)"/>
<path d="M133.351 252.758C132.956 260.082 132.759 260.675 131.771 266.02C130.981 270.374 117.942 271.166 119.917 267.801C122.486 262.853 116.361 254.144 114.188 227.423C113.793 223.464 112.015 222.871 110.83 214.557C109.644 206.244 114.188 199.119 114.188 199.119L133.549 197.337L133.746 221.485V229.6C133.746 229.798 133.944 240.882 133.351 252.758Z" fill="url(#paint9_linear)"/>
<path d="M120.312 264.634C120.312 264.634 116.361 275.125 116.559 284.625C116.756 293.136 118.139 311.94 118.139 311.94C118.139 311.94 126.239 312.732 128.61 311.148C132.166 264.238 131.771 264.238 131.771 265.822C131.771 260.676 120.312 264.634 120.312 264.634Z" fill="url(#paint10_linear)"/>
<path d="M156.268 249.591C156.268 249.591 160.417 260.279 159.824 264.832C159.034 269.384 146.193 310.356 146.193 310.356C146.193 310.356 139.871 310.752 135.722 308.574C135.722 308.574 136.512 295.115 138.686 283.041C142.044 264.238 149.156 260.675 152.119 259.487C155.28 258.696 155.478 251.966 156.268 249.591Z" fill="url(#paint11_linear)"/>
<path d="M146.785 197.733C146.785 197.733 158.046 247.018 159.231 259.883C159.824 265.228 152.91 268.394 147.773 263.644C141.451 257.904 131.573 234.746 128.412 230.194C125.251 225.443 113.596 221.089 121.498 197.139" fill="url(#paint12_linear)"/>
<path d="M121.695 134.197C121.695 134.197 123.078 129.447 122.485 125.884C121.893 122.321 119.72 116.185 120.51 111.435C121.3 106.685 127.227 102.726 133.549 103.32C139.87 103.914 141.648 110.05 142.636 113.414C143.624 116.977 143.426 122.321 143.229 125.092C143.031 128.061 141.451 130.239 140.266 130.832C139.278 131.426 135.327 130.634 134.536 131.426C133.746 132.218 133.351 136.572 133.351 136.572" fill="#FBBE52"/>
<path d="M118.732 137.958C118.732 137.958 119.127 135.187 120.115 134.197C121.102 133.208 128.214 133.208 130.19 133.406C132.363 133.604 137.5 136.177 138.092 136.573C138.685 137.166 137.5 139.739 137.5 139.739L118.732 137.958Z" fill="#512DA8"/>
<path d="M191.631 110.445C191.631 109.852 191.038 110.247 190.841 110.643C190.841 110.643 190.841 110.841 190.841 111.039C190.841 110.247 191.038 109.654 190.841 109.456C190.841 109.06 190.248 109.06 190.05 109.456C190.05 109.06 190.05 108.862 190.05 108.862C190.05 108.268 189.26 108.466 189.26 109.06C189.26 109.258 189.26 109.456 189.063 109.852C189.063 109.654 189.063 109.456 189.063 109.456C189.063 108.862 188.47 109.06 188.272 109.456C188.272 109.654 188.272 109.852 188.075 110.445C188.075 111.039 187.877 111.435 187.877 112.029C187.877 112.821 187.482 113.414 187.482 113.414C186.297 114.8 185.111 115.196 185.111 115.196L183.729 114.206C183.729 114.206 183.333 116.581 183.333 117.373C183.333 118.165 183.926 118.956 183.926 119.55C183.926 119.946 182.148 122.717 182.148 122.717L186.692 124.301C186.692 124.301 187.68 120.342 188.075 119.946C188.668 119.352 190.446 117.175 190.643 116.779C190.643 116.581 191.038 115.79 191.236 114.998L191.433 113.612L191.631 112.227C191.631 112.227 191.631 110.643 191.631 110.445Z" fill="#FBBE52"/>
<path d="M188.272 124.3C188.272 124.3 186.494 129.249 185.309 134.989C184.321 139.541 183.136 144.291 180.963 148.448C180.963 148.448 180.963 148.448 180.963 148.646C179.777 151.417 177.407 154.584 175.826 154.98C174.246 155.376 168.714 154.98 168.714 154.98C165.355 155.178 156.663 153.99 149.353 153C149.156 153 149.156 153 148.958 153C145.6 152.605 142.439 152.209 140.266 151.813C139.278 151.813 138.29 151.219 137.697 150.625C137.105 150.031 136.512 149.24 136.512 148.448C136.117 146.073 137.5 144.093 139.673 142.708L139.871 142.51C137.302 139.937 134.932 137.364 134.932 137.364C134.932 137.364 142.044 137.76 145.797 137.958C148.563 138.156 166.738 143.104 168.912 143.698C169.109 143.698 169.307 143.896 169.307 143.896C169.307 143.896 169.504 143.896 169.899 144.093C170.097 144.093 170.097 144.093 170.294 144.291C170.887 142.708 171.677 140.927 172.863 139.343C176.814 133.801 180.963 122.123 180.963 122.123C180.963 122.123 184.321 122.321 185.901 123.113C187.284 123.509 188.272 124.3 188.272 124.3Z" fill="url(#paint13_linear)"/>
<path d="M121.893 128.259C121.893 128.259 130.586 129.051 132.364 128.259C133.944 127.467 136.512 125.884 136.71 122.915C136.908 119.946 136.315 118.956 137.5 117.373C138.686 115.789 139.673 116.185 139.871 117.769C140.068 119.352 140.068 122.123 140.464 122.321C141.056 122.519 141.649 120.54 141.451 117.571C141.254 114.998 141.056 112.82 140.266 111.237C139.476 109.456 139.081 109.654 138.29 109.258C139.081 108.862 139.871 108.862 141.451 106.487C143.229 103.716 142.242 99.5591 137.698 99.5591C129.598 99.5591 121.103 101.143 120.905 107.08C120.905 107.08 118.14 106.685 117.942 112.029C117.942 117.571 121.3 124.103 121.696 125.884C121.498 127.665 121.103 127.863 121.893 128.259Z" fill="#512DA8"/>
<path d="M146.193 192.389C146.588 195.16 148.959 199.316 147.181 199.91C146.588 200.108 143.822 199.91 140.661 199.712H140.464C137.5 199.514 134.339 199.118 131.574 198.92C120.51 198.524 114.781 200.702 113.793 200.108C113.201 199.712 113.201 198.92 113.398 197.733C113.793 195.358 113.991 192.784 113.596 190.409C113.398 188.43 113.003 185.857 112.41 183.086C110.632 173.387 107.076 158.542 106.484 149.635C105.694 135.582 120.51 136.968 120.51 136.968C139.476 135.78 148.563 141.322 149.551 149.437C149.551 150.031 149.749 150.625 149.749 151.219C150.144 159.73 147.576 173.387 146.39 183.482C145.995 186.451 145.995 189.618 146.193 192.389Z" fill="url(#paint14_linear)"/>
<path d="M135.327 306.2V308.971C135.327 308.971 136.71 310.357 138.29 310.555C139.476 310.753 145.402 311.347 146.39 310.951L147.18 308.575C147.18 308.575 141.846 308.377 139.081 307.387C136.315 306.596 135.327 306.2 135.327 306.2Z" fill="#512DA8"/>
<path d="M116.954 309.168L117.547 311.742C117.547 311.742 119.127 312.732 120.906 312.732C122.091 312.732 128.413 312.732 129.4 312.138V309.168C129.4 309.168 124.066 309.96 121.103 309.564C118.14 309.168 116.954 309.168 116.954 309.168Z" fill="#512DA8"/>
<path d="M426.527 93.0279C416.649 86.2982 401.832 64.5258 400.449 64.5258C399.659 64.5258 398.869 64.9217 396.498 65.1196C395.313 65.1196 393.337 64.7237 392.152 64.5258C391.954 64.5258 391.559 64.3279 391.559 64.1299C391.559 63.932 391.757 63.932 391.757 63.7341C392.152 63.3382 392.942 63.3382 393.535 63.3382C394.127 63.3382 394.72 63.3382 394.918 62.7444C394.918 62.5465 394.918 62.1506 394.523 61.9527C394.325 61.7547 393.93 61.7547 393.732 61.5568C392.152 61.161 390.176 60.7651 388.596 60.3692C389.584 60.1713 390.966 59.7754 391.954 59.5775C392.744 59.3796 393.337 59.1816 394.127 59.1816C395.115 59.1816 397.683 59.1816 398.671 59.3796C400.844 59.7754 401.635 60.1713 403.61 61.161C404.796 61.7547 405.783 62.5465 406.969 63.3382C409.734 65.5154 419.81 77.3913 421.983 78.9748" fill="#F2AA41"/>
<path d="M355.406 90.0585C355.208 91.246 355.011 92.2357 354.616 93.4233C353.825 96.5902 355.801 99.7571 358.962 100.549L384.644 106.487C387.805 107.278 390.966 105.299 391.756 102.132C392.151 100.747 392.349 99.3612 392.744 97.9757C395.51 85.1102 395.708 72.4426 393.337 60.1708C392.349 54.8267 390.966 49.8784 389.188 45.128C388.003 41.7632 384.052 40.3777 380.891 41.9611L356.394 55.4205C353.825 56.806 352.838 59.9729 353.825 62.546C354.418 64.1294 355.011 65.9108 355.406 67.4943C357.184 74.4219 357.184 82.1412 355.406 90.0585Z" fill="#F8C608"/>
<path d="M378.125 117.571C378.125 117.571 382.077 125.093 383.855 133.604C385.435 140.927 382.077 153.199 383.064 161.71C383.262 163.293 383.855 167.45 384.645 168.638C385.633 170.023 387.411 171.607 387.806 173.586C388.003 174.773 387.411 175.961 386.028 176.753C384.645 177.544 383.657 176.753 383.262 176.951C380.496 177.347 379.903 179.524 375.162 180.513C373.582 180.909 371.211 180.315 369.828 179.524C369.235 179.128 369.235 178.534 369.63 178.138C369.828 177.742 373.384 176.357 375.162 175.367C376.742 174.378 378.323 171.804 378.52 170.617C378.718 169.627 377.73 164.877 377.335 162.898C374.174 149.042 370.223 129.645 368.247 121.728" fill="#F2AA41"/>
<path d="M369.235 179.128C368.84 178.534 368.84 177.545 369.038 177.347C369.433 176.951 371.211 175.961 372.001 175.565C372.989 175.169 376.94 172.794 376.545 172.992C375.952 173.19 376.94 173.784 377.928 173.784C381.089 173.586 380.693 173.586 382.471 173.19C385.04 172.596 385.632 170.221 385.632 169.825C386.027 170.023 387.805 172.398 388.003 173.19C388.201 173.784 388.596 174.971 388.398 175.763C388.201 176.159 384.052 177.347 384.052 177.347C384.052 177.347 383.262 177.347 382.471 177.545C381.681 177.742 380.496 178.336 380.101 178.732C379.706 179.128 379.311 179.722 378.915 179.92C377.533 180.513 376.545 180.711 374.964 180.909C371.803 181.107 369.828 180.118 369.235 179.128Z" fill="#512DA8"/>
<path d="M374.964 120.342C374.964 120.342 378.915 129.249 377.73 137.958C376.742 145.479 369.038 157.949 367.062 166.262C366.667 167.846 365.877 171.804 366.074 173.19C366.469 174.773 367.655 176.95 367.26 178.93C367.062 180.117 366.074 181.107 364.494 181.305C362.913 181.503 362.321 180.513 361.728 180.513C358.962 179.919 357.777 181.899 352.838 181.107C351.257 180.909 349.282 179.721 348.294 178.336C347.899 177.742 348.097 177.148 348.492 176.95C348.887 176.555 352.64 176.555 354.616 176.159C356.394 175.763 358.765 173.783 359.357 172.992C359.95 172.002 360.543 167.252 360.74 165.272C362.518 151.219 366.074 127.665 366.864 119.55" fill="#FBBE52"/>
<path d="M348.097 178.336C347.899 177.742 348.097 176.752 348.492 176.752C349.084 176.554 350.862 176.158 351.85 175.961C352.838 175.763 357.382 174.773 356.789 174.971C356.196 175.169 356.987 175.961 357.777 176.158C360.74 176.95 360.543 176.95 362.321 176.95C364.889 177.148 366.272 175.169 366.469 174.773C366.865 175.169 367.655 177.94 367.655 178.534C367.655 179.325 367.655 180.513 367.26 181.107C367.062 181.503 362.716 181.305 362.716 181.305C362.716 181.305 362.123 181.107 361.135 180.909C360.148 180.711 359.16 181.107 358.567 181.503C358.172 181.701 357.579 182.294 356.987 182.294C355.406 182.492 354.418 182.294 352.838 181.899C349.875 181.107 348.294 179.523 348.097 178.336Z" fill="#512DA8"/>
<path d="M419.217 100.945L441.738 113.81C441.738 113.81 440.751 121.926 430.675 124.103C424.749 125.29 414.871 123.311 412.5 124.103C397.288 128.655 371.211 123.509 371.211 123.509C371.211 123.509 367.457 126.478 367.259 123.311C367.062 119.155 366.667 117.175 369.828 114.998C375.162 111.633 395.708 104.706 419.217 100.945Z" fill="#FBBE52"/>
<path d="M437.195 93.8194C437.195 93.8194 444.307 107.477 442.332 113.415C440.554 119.353 437.195 124.697 427.515 124.895C417.835 124.895 398.671 129.447 398.671 129.447C398.671 129.447 392.942 118.561 390.769 114.602C388.596 110.644 390.374 106.487 390.374 106.487C390.374 106.487 409.735 99.9553 411.513 98.3718C413.291 96.7884 414.871 93.2256 414.871 93.2256" fill="url(#paint15_linear)"/>
<path d="M414.476 44.3364C413.093 44.7323 413.686 47.8992 412.303 48.2951C411.315 48.6909 409.537 48.0971 408.747 48.6909C404.203 51.264 405.389 56.4102 404.796 62.744C402.82 67.6923 402.425 72.0468 403.808 74.8179C405.784 78.1827 407.759 79.1724 410.13 81.9434C411.908 84.1206 411.513 87.2875 411.908 92.0379C411.908 92.8296 411.118 96.5903 411.118 96.5903C410.92 97.58 415.069 98.3717 417.637 97.9758C422.181 97.1841 431.664 95.9965 434.232 95.9965C436.603 95.9965 439.368 93.4234 439.368 93.4234C439.368 93.4234 438.183 92.0379 437.788 90.0586C436.998 85.7041 436.208 75.2137 435.615 71.453C433.837 62.1502 432.651 55.2227 428.898 46.7116" fill="url(#paint16_linear)"/>
<path d="M397.881 31.6695C397.289 29.4923 396.893 27.1171 397.091 25.3357C397.289 21.575 397.684 16.4288 403.808 14.0536C409.932 11.8764 416.649 13.2619 418.625 17.6164C420.6 21.9709 420.205 28.7005 420.403 32.2633C420.6 35.8261 423.366 40.1805 423.366 40.1805L410.327 45.9206C410.327 45.9206 408.154 41.1702 407.364 40.7743C406.574 40.1805 406.376 41.764 403.413 42.5557C402.227 42.7537 400.647 39.7847 399.659 37.2116V37.0136C399.067 37.0136 398.276 37.0136 398.079 36.8157C397.091 36.6178 397.289 36.2219 397.486 35.6281C397.684 34.0447 397.881 32.6592 397.881 31.6695Z" fill="#FBBE52"/>
<path d="M376.545 103.914C376.348 104.904 373.977 107.477 372.199 107.675C371.606 107.675 371.211 107.675 370.618 107.477C369.828 107.675 367.655 107.477 368.643 106.289C367.062 107.279 365.482 106.883 363.704 106.487C363.111 106.289 363.309 105.695 364.692 105.498C366.667 105.3 368.05 104.31 369.433 102.726C369.235 102.529 368.84 102.726 368.05 102.726C367.26 102.726 366.865 102.331 366.865 101.935C366.865 101.737 367.853 101.539 368.248 101.341C369.235 100.945 370.026 100.549 371.013 100.153C372.001 99.7575 372.594 99.5596 373.779 99.5596C373.977 99.5596 375.755 99.9554 375.162 100.549" fill="#FBBE52"/>
<path d="M407.364 69.078C407.364 69.078 400.449 87.6836 399.264 89.267C394.522 95.205 375.952 104.706 375.952 104.706C375.952 104.706 372.989 103.716 373.581 100.747C379.31 98.1739 389.781 86.6939 392.152 85.3084C393.732 84.3187 400.252 61.5566 400.252 61.5566" fill="#FBBE52"/>
<path d="M404.401 48.2952C409.34 46.3159 414.081 46.3159 418.032 42.5552C421.983 45.5241 413.291 62.7442 411.315 63.338C409.142 63.7338 406.376 73.4325 405.783 74.6201C398.869 74.4221 396.301 70.6614 396.301 70.6614C399.067 61.9524 399.659 50.2745 404.401 48.2952Z" fill="url(#paint17_linear)"/>
<path d="M408.549 48.8891C408.944 47.5035 409.932 46.5139 410.13 45.3263C410.327 44.1387 410.13 42.5553 409.339 41.3677C408.944 40.7739 408.154 40.1801 407.561 39.7842C404.796 37.607 404.005 37.2111 404.993 33.8463C405.388 32.8566 405.586 31.669 405.388 30.6794C405.191 29.6897 404.993 28.7001 404.005 28.5021C403.215 28.5021 402.82 28.7001 402.622 29.2938C402.227 30.0856 403.61 35.8256 401.635 29.8876C401.042 27.9083 399.659 28.1063 399.857 24.1476C399.857 23.7518 400.054 21.7725 399.659 21.5745C396.103 24.1476 397.684 27.7104 397.486 29.4918C396.103 28.898 395.313 24.3456 395.313 23.5538C395.313 21.9704 395.51 20.7828 396.103 19.5952C398.474 14.449 401.042 13.4593 403.215 12.6676C405.191 11.8759 407.364 10.8862 409.735 10.8862C411.908 10.8862 414.673 11.678 415.464 13.2614C418.625 12.4697 420.403 15.2407 420.995 16.2304C421.983 17.6159 422.773 19.1993 423.366 20.7828C424.156 23.158 424.354 25.929 424.946 28.3042C425.539 30.2835 426.329 32.4608 427.91 33.8463C429.49 35.2318 431.466 35.4297 433.244 36.6173C435.417 38.2008 436.602 40.7739 436.405 43.5449C436.207 46.118 435.022 49.087 436.602 51.4622C437.195 52.2539 437.788 52.8477 438.38 53.6394C439.566 55.4208 439.368 57.9939 438.183 59.7753C436.997 61.5567 434.824 63.7339 432.849 64.3277C430.873 64.9215 429.095 65.3174 427.12 65.1194C423.366 64.9215 420.205 65.1194 416.254 61.7546C414.081 59.7753 415.464 58.7856 413.291 56.6084C412.105 55.4208 410.327 54.827 409.537 53.4415C408.352 51.858 408.154 50.2746 408.549 48.8891Z" fill="#512DA8"/>
<path d="M402.82 128.853C399.461 122.915 393.93 112.821 393.139 111.039C392.744 109.654 392.942 107.081 393.337 105.102C391.361 105.695 390.176 106.289 390.176 106.289C390.176 106.289 388.398 110.644 390.571 114.602C392.744 118.759 398.474 129.843 398.474 129.843C398.474 129.843 400.449 129.447 402.82 128.853Z" fill="#512DA8"/>
<path opacity="0.51" d="M280.334 393.883C280.334 396.457 305.226 398.436 335.848 398.436C366.469 398.436 391.361 396.457 391.361 393.883C391.361 391.31 366.469 389.331 335.848 389.331C305.226 389.331 280.334 391.508 280.334 393.883Z" fill="url(#paint18_linear)"/>
<path d="M271.641 284.427C271.641 284.427 270.061 283.834 269.468 283.438C268.876 283.042 268.678 280.865 268.085 280.073C267.493 279.281 264.924 277.698 264.924 277.698C264.924 277.698 262.554 275.718 262.159 275.521C261.763 275.323 261.566 276.114 261.763 276.906C262.159 277.698 263.541 278.885 263.541 279.281C263.541 279.479 263.541 279.875 263.146 279.875C262.554 280.073 261.368 280.271 260.183 280.073C260.183 280.073 259.195 279.677 258.405 279.083C257.812 278.687 257.22 278.292 256.627 277.896C256.034 277.5 255.639 277.302 255.442 277.104C254.849 276.906 254.256 277.302 254.651 277.896C254.651 277.896 254.849 278.094 255.047 278.292C254.651 277.896 254.256 277.698 254.059 277.698C253.466 277.302 252.478 277.698 253.071 278.489C253.071 278.687 253.466 278.885 253.664 279.083C253.071 278.885 252.281 279.281 252.873 279.875C253.071 280.073 253.664 280.667 254.651 281.261C254.454 281.063 254.256 281.063 254.256 281.063C253.664 280.865 252.873 281.261 253.268 281.854C253.466 282.052 254.849 283.438 254.849 283.438L256.232 284.625L257.812 285.615C258.998 286.209 259.985 286.803 260.183 286.803C260.776 287.001 264.727 287.198 265.715 287.198C266.702 287.198 269.468 288.782 269.468 288.782L271.641 284.427Z" fill="#F2AA41"/>
<path d="M260.183 190.41C254.849 195.952 250.108 202.286 245.762 209.412C240.428 218.318 236.476 229.403 234.303 242.268L229.957 267.01C229.364 270.572 229.957 273.937 231.538 276.906C233.316 279.875 235.686 281.657 238.65 282.25L253.862 285.021C256.825 285.615 259.788 284.626 262.356 282.448C264.925 280.271 266.703 277.302 267.295 273.739L268.481 266.812C270.456 255.728 276.581 232.174 281.717 224.85C283.1 222.871 284.483 221.09 285.866 219.308L260.183 190.41Z" fill="url(#paint19_linear)"/>
<path d="M306.807 379.435C306.807 379.435 309.572 384.581 309.572 386.362C309.77 387.748 314.907 386.56 315.104 385.769C315.499 384.977 312.733 377.06 312.733 377.06" fill="#2198DF"/>
<path d="M316.882 386.56C317.277 388.143 317.673 392.102 317.673 392.102L312.141 392.894L311.943 392.102C311.943 392.102 311.153 392.894 309.573 393.092L299.695 394.477C299.695 394.477 296.929 394.675 296.929 394.081C296.534 392.3 300.485 391.112 301.473 390.519C304.831 388.539 307.202 387.352 308.387 385.768C309.178 384.779 308.387 384.185 309.178 384.383C309.178 384.383 309.77 384.383 310.363 384.976C311.153 385.966 312.536 386.56 313.721 385.966C314.512 385.768 315.104 385.174 315.499 384.581C315.302 384.581 316.487 384.779 316.882 386.56Z" fill="#512DA8"/>
<path d="M292.978 331.733C285.668 330.545 286.656 330.15 281.322 329.952C276.778 329.952 272.827 338.067 276.778 342.619C281.52 347.963 284.285 348.359 310.561 356.079C314.512 357.266 319.451 358.454 327.551 361.225C335.65 364.194 343.158 362.61 343.158 362.61L344.738 342.817L320.636 337.473L312.536 335.692C312.339 335.89 305.029 333.514 292.978 331.733Z" fill="url(#paint20_linear)"/>
<path d="M287.446 331.931C287.446 331.931 297.127 341.234 301.67 348.755C306.214 356.277 314.907 379.237 314.907 379.237C314.907 379.237 310.165 382.404 306.609 382.008C306.609 382.008 280.532 349.349 275.79 341.036C273.024 336.286 287.446 331.931 287.446 331.931Z" fill="url(#paint21_linear)"/>
<path d="M350.664 378.05C350.664 378.05 356.986 377.852 358.369 377.654C359.752 377.457 359.555 372.507 358.764 372.112C357.974 371.716 351.06 372.112 351.06 372.112" fill="#FBBE52"/>
<path d="M359.555 370.528C361.333 370.528 364.099 370.726 364.099 370.726L364.296 376.664L363.308 377.06C363.308 377.06 364.494 379.039 364.494 380.424L364.691 385.571C364.889 389.331 364.494 391.509 363.901 391.509C361.925 391.706 361.53 387.55 361.135 386.362C359.752 382.602 358.962 380.226 357.579 378.841C356.591 377.851 355.999 378.643 356.196 377.851C356.196 377.851 356.394 377.257 356.986 376.862C358.172 376.268 358.764 374.882 358.567 373.695C358.369 372.903 358.172 372.309 357.579 371.715C357.382 371.913 357.777 370.726 359.555 370.528Z" fill="#512DA8"/>
<path d="M298.312 370.923C298.312 370.923 312.141 367.954 320.833 368.548C329.526 369.142 352.64 370.528 352.64 370.528C352.64 370.528 353.233 377.653 352.245 380.028C352.245 380.028 299.102 397.05 290.607 391.508C279.939 384.779 298.312 370.923 298.312 370.923Z" fill="url(#paint22_linear)"/>
<path d="M352.64 362.215C344.541 365.184 343.75 366.569 340.194 368.548C316.487 382.008 308.585 383.591 302.856 384.185C296.732 384.779 293.768 376.862 297.127 373.497C300.09 370.528 301.078 369.736 304.239 367.361C305.029 366.767 306.214 365.975 307.4 364.986C317.08 357.662 326.563 351.13 326.563 351.13C326.76 350.933 330.316 348.755 330.514 344.599C330.514 341.828 329.131 339.057 326.76 337.671C337.626 337.473 348.492 337.275 359.357 336.879C359.16 337.077 366.469 357.068 352.64 362.215Z" fill="url(#paint23_linear)"/>
<path d="M342.169 278.49C339.403 278.292 306.609 285.615 303.25 286.011C299.892 286.605 270.258 283.636 270.258 283.636C270.258 283.636 270.654 285.615 270.851 287.793C270.851 288.782 299.299 301.45 303.25 300.064C307.202 298.679 344.145 291.949 344.145 291.949L342.169 278.49Z" fill="url(#paint24_linear)"/>
<path d="M350.467 271.76C350.467 271.76 349.084 266.812 349.677 263.249C350.269 259.686 352.442 253.154 351.652 248.404C350.862 243.654 344.738 239.497 338.416 240.091C331.897 240.685 330.118 246.821 328.933 250.383C327.945 253.946 327.945 259.488 328.34 262.457C328.538 265.426 330.316 267.801 331.304 268.395C332.292 268.989 336.44 268.197 337.033 268.989C337.823 269.781 338.218 274.333 338.218 274.333" fill="#FBBE52"/>
<path d="M353.628 275.521C353.628 275.521 353.233 272.75 352.245 271.76C351.257 270.771 343.948 270.771 341.972 270.969C339.799 271.167 334.465 273.74 333.872 274.136C333.082 274.729 334.465 277.302 334.465 277.302L353.628 275.521Z" fill="#512DA8"/>
<path d="M350.27 265.624C349.875 265.624 349.479 265.624 349.282 265.822C348.492 266.02 347.701 266.218 346.714 266.218C345.528 266.218 344.343 266.218 343.158 266.416C341.775 266.416 340.194 266.416 339.009 265.624C337.824 264.635 337.428 263.051 337.231 261.666C337.231 261.468 337.231 261.27 337.428 261.072C337.428 261.072 337.626 261.072 337.824 261.072C340.787 261.072 341.182 256.915 340.392 254.738C339.997 253.352 337.824 252.957 337.231 254.54C337.033 255.134 337.231 255.728 336.836 256.123C336.441 256.321 336.046 256.124 335.848 255.728C335.65 255.332 335.65 254.936 335.65 254.54C335.848 252.957 336.243 251.373 337.033 249.79C337.428 248.998 339.206 247.415 338.021 246.821C337.033 246.227 335.848 246.425 334.663 246.227C332.687 246.029 332.489 245.831 330.909 244.841C330.119 244.248 329.724 242.862 329.131 242.07C328.736 241.081 328.736 239.893 329.724 239.299C330.119 239.101 330.119 239.695 330.711 239.695C332.489 239.695 333.28 238.706 334.86 238.31C338.219 237.716 340.392 238.112 343.75 238.31C345.528 238.508 347.306 238.706 348.689 239.695C349.875 240.487 350.665 241.477 351.06 242.862C351.455 243.852 351.85 244.05 352.64 244.446C354.221 245.435 354.418 247.612 354.418 249.394C354.418 254.936 350.862 261.666 350.665 263.447C350.665 263.843 350.665 264.832 350.467 265.228C350.665 265.426 350.467 265.426 350.27 265.624Z" fill="#512DA8"/>
<path d="M270.852 285.813C270.852 285.813 269.271 285.219 268.679 284.824C268.086 284.428 267.888 282.25 267.296 281.459C266.703 280.667 264.135 279.084 264.135 279.084C264.135 279.084 261.764 277.104 261.369 276.906C260.974 276.708 260.776 277.5 260.974 278.292C261.369 279.084 262.752 280.271 262.752 280.667C262.752 280.865 262.752 281.261 262.357 281.261C261.764 281.459 260.579 281.657 259.393 281.459C259.393 281.459 258.406 281.063 257.615 280.469C257.023 280.073 256.43 279.677 255.837 279.281C255.245 278.886 254.849 278.688 254.652 278.49C254.059 278.292 253.467 278.688 253.862 279.281C253.862 279.281 254.059 279.479 254.257 279.677C253.862 279.281 253.467 279.084 253.269 279.084C252.676 278.688 251.689 279.084 252.281 279.875C252.281 280.073 252.676 280.271 252.874 280.469C252.281 280.271 251.491 280.667 252.084 281.261C252.281 281.459 252.874 282.053 253.862 282.646C253.664 282.448 253.467 282.448 253.467 282.448C252.874 282.25 252.084 282.646 252.479 283.24C252.676 283.438 254.059 284.824 254.059 284.824L255.442 286.011L257.023 287.001C258.208 287.595 259.196 288.188 259.393 288.188C259.986 288.386 263.937 288.584 264.925 288.584C265.913 288.584 268.679 290.168 268.679 290.168L270.852 285.813Z" fill="#FBBE52"/>
<path d="M328.933 252.165C327.946 253.155 327.155 254.343 326.168 255.332C325.773 255.926 325.18 256.52 325.18 257.312C325.18 257.51 325.18 257.708 325.18 257.906C325.377 258.104 325.575 258.302 325.97 258.5C327.353 258.896 328.736 258.302 329.921 257.708" fill="#FBBE52"/>
<path d="M353.628 380.424H351.06C351.06 380.424 351.455 377.257 351.455 375.278C351.455 373.299 351.257 370.132 351.257 370.132H354.023C354.023 370.33 354.418 373.497 354.221 375.476C354.023 377.653 353.628 380.226 353.628 380.424Z" fill="#512DA8"/>
<path d="M246.552 353.11C260.517 353.11 271.839 341.767 271.839 327.775C271.839 313.782 260.517 302.439 246.552 302.439C232.586 302.439 221.264 313.782 221.264 327.775C221.264 341.767 232.586 353.11 246.552 353.11Z" fill="url(#paint25_linear)"/>
<path d="M533.998 213.172C522.737 227.423 508.71 239.893 501.598 256.519C494.684 272.947 495.079 291.355 492.511 308.971C492.313 309.961 492.313 310.752 492.116 311.544C491.325 315.7 490.535 319.857 489.35 323.816C488.955 325.201 488.56 326.587 488.164 327.972C487.769 329.358 487.177 330.743 486.782 332.129C486.386 333.118 485.991 334.108 485.596 335.098C482.435 342.817 478.682 350.339 474.138 357.464C473.545 358.256 472.953 359.245 472.36 360.037C467.026 367.756 460.902 374.882 453.987 381.216C452.999 382.205 452.011 382.997 451.024 383.789C443.714 390.123 435.614 395.665 426.922 400.019C426.724 400.415 426.527 400.811 426.329 401.009C421.588 408.53 412.5 412.291 404.4 410.708C404.203 410.708 404.203 410.708 404.005 410.708C403.215 410.51 402.425 410.312 401.634 409.916C401.239 409.718 401.042 409.718 400.647 409.52C399.659 409.124 398.473 408.53 397.486 407.739C387.805 400.811 383.459 388.143 382.669 376.07C381.088 351.13 393.139 325.597 413.685 311.148C426.329 302.241 441.936 296.897 450.826 284.229C462.482 267.603 458.531 244.049 468.409 226.236C476.904 210.995 493.894 202.88 509.501 195.16C525.108 187.441 542.295 179.326 548.617 162.897C554.149 180.117 545.259 198.921 533.998 213.172Z" fill="#7E57C2"/>
<path opacity="0.1" d="M530.442 204.265C515.625 215.151 497.055 228.808 489.153 247.81C487.572 251.57 486.387 255.529 485.597 259.686C489.35 256.915 492.906 253.748 496.265 250.581C497.055 249.987 498.043 249.987 498.833 250.581C499.623 251.372 499.426 252.362 498.833 253.154C494.487 257.31 489.745 261.269 484.806 264.832C484.214 268.395 483.621 271.957 483.028 275.52C481.25 288.188 479.275 301.449 471.965 312.137C471.57 312.731 471.175 313.127 470.78 313.721C469.792 315.106 468.607 316.492 467.421 317.679C469.594 317.877 471.57 317.877 473.743 318.075C474.928 318.075 475.916 318.075 477.102 318.075C479.077 318.075 481.25 318.075 483.226 318.075C484.214 318.075 485.004 318.867 485.004 319.857C485.004 320.846 484.214 321.638 483.226 321.638C480.46 321.638 477.694 321.836 474.928 321.638C473.743 321.638 472.755 321.638 471.767 321.638C469.397 321.44 466.829 321.44 464.458 321.044C464.26 321.044 464.26 321.044 464.063 321.044C458.926 325.795 453 329.951 447.27 333.712C445.887 334.702 444.307 335.691 442.924 336.681C438.38 339.848 433.836 343.213 429.885 346.973C429.49 347.369 429.095 347.765 428.7 348.161C428.502 348.557 428.107 348.953 427.712 349.15C426.329 350.734 424.946 352.317 423.563 353.901C428.7 352.317 433.836 350.932 438.973 349.546C439.961 349.151 441.146 348.953 442.134 348.755C447.468 347.369 452.802 345.984 458.136 344.796C458.531 344.598 458.926 344.796 459.321 344.994C459.716 345.192 460.112 345.588 460.112 346.182C460.309 347.171 459.716 348.161 458.729 348.359C457.148 348.755 455.37 349.151 453.79 349.546C449.443 350.536 445.295 351.724 440.949 352.713C439.961 352.911 438.775 353.307 437.788 353.505C431.663 355.088 425.737 356.87 419.81 358.651C414.871 366.173 411.512 374.882 408.747 383.986C406.771 390.518 405.388 397.446 404.203 404.571C403.808 406.551 403.61 408.53 403.215 410.509C402.425 410.311 401.635 410.113 400.844 409.717C400.449 410.509 399.857 411.103 399.461 411.895C399.659 411.103 399.659 410.113 399.857 409.322C402.82 390.122 407.166 371.913 416.451 357.266C416.451 356.474 416.846 355.88 417.439 355.682C419.612 352.515 421.983 349.546 424.551 346.775C422.378 334.702 423.168 322.232 427.119 310.752C427.515 309.762 428.502 309.366 429.293 309.762C430.28 310.158 430.676 311.148 430.478 311.939C426.922 322.232 425.934 333.118 427.515 343.806L427.712 343.608C432.849 338.66 438.775 334.702 444.702 330.743C446.678 329.357 448.653 327.972 450.629 326.586C450.629 325.399 450.629 324.211 450.431 323.024C450.036 312.731 450.431 302.439 451.419 292.344C451.419 291.355 452.407 290.563 453.395 290.761C454.382 290.761 454.975 291.75 454.975 292.74C453.987 302.043 453.79 311.544 453.987 321.044C453.987 322.034 453.987 323.024 453.987 324.211C457.148 321.836 460.309 319.263 462.877 316.492C464.853 314.513 466.631 312.533 468.014 310.158C471.372 305.21 473.545 299.866 475.126 294.126C475.126 293.928 474.928 293.928 474.928 293.73C469.594 282.844 466.236 270.77 465.248 258.498C465.248 257.508 465.841 256.717 466.829 256.519C467.816 256.519 468.607 257.112 468.804 258.102C469.594 268.395 472.163 278.687 476.311 288.188C477.102 283.833 477.892 279.281 478.484 274.53C479.867 265.03 481.25 255.133 485.004 246.028C485.992 243.653 486.979 241.476 488.362 239.299C488.362 239.299 488.362 239.299 488.362 239.101C487.177 229.996 487.77 220.891 489.943 211.984C490.14 210.994 491.128 210.401 492.116 210.599C493.104 210.797 493.696 211.786 493.499 212.776C491.721 219.901 491.128 227.027 491.523 234.35C501.204 220.297 515.625 209.609 527.676 200.9C528.466 200.306 529.652 200.504 530.244 201.296C531.43 202.681 531.232 203.671 530.442 204.265Z" fill="black"/>
<path d="M408.153 403.978C433.638 402.196 458.728 392.102 478.088 375.278C497.449 358.454 511.278 335.296 516.612 310.158C488.757 305.21 460.111 313.523 438.972 332.525C418.031 351.526 406.178 375.674 408.153 403.978Z" fill="#C3C3F4"/>
<path opacity="0.1" d="M506.537 333.713C506.537 334.505 505.944 335.098 505.154 335.098L485.398 335.296H477.496C477.298 335.296 477.298 335.296 477.101 335.296C469.199 340.838 461.494 346.776 454.184 353.11C460.704 354.892 467.223 356.475 473.94 357.465C477.694 358.058 481.645 358.652 485.596 359.048C486.386 359.048 486.979 359.84 486.781 360.632C486.781 361.423 485.991 362.017 485.201 361.819C480.854 361.423 476.508 360.632 472.162 359.84C465.247 358.652 458.333 357.069 451.616 355.089C447.467 358.85 443.319 362.611 439.367 366.569C439.17 366.767 439.17 366.965 438.775 367.163C435.614 370.33 432.65 373.497 429.687 376.664C437.589 378.841 445.689 380.227 453.789 380.821C455.172 381.018 456.555 381.018 457.938 381.018C458.728 381.018 459.321 381.81 459.321 382.602C459.321 383.394 458.53 383.987 457.74 383.987C455.37 383.79 453.196 383.592 450.826 383.394C442.923 382.602 435.219 381.018 427.712 379.039C420.995 386.758 414.673 394.874 408.746 403.385C407.166 405.76 405.585 408.135 404.005 410.51C403.807 410.906 403.609 411.104 403.412 411.5C403.412 411.104 403.412 410.708 403.609 410.51C402.819 410.312 402.029 410.114 401.239 409.719C402.424 407.937 403.412 406.354 404.597 404.572C405.783 402.989 406.968 401.207 407.956 399.624C413.487 391.707 419.612 384.185 425.933 376.862C426.131 376.664 426.131 376.664 426.329 376.466C429.687 372.705 433.243 368.945 436.799 365.382C436.997 361.423 437.392 357.465 438.182 353.506C438.38 352.12 438.577 350.933 438.972 349.547C439.96 344.995 441.343 340.64 442.923 336.484C443.516 335.098 443.911 333.911 444.504 332.525C444.899 331.734 445.689 331.536 446.479 331.734C447.072 332.129 447.467 332.723 447.27 333.515V333.713C445.097 338.463 443.319 343.609 442.133 348.756C441.738 349.943 441.541 351.329 441.343 352.714C440.75 355.881 440.158 359.246 439.96 362.413C444.504 357.861 449.245 353.704 453.987 349.547C455.765 347.964 457.543 346.578 459.321 344.995C460.308 344.203 461.296 343.412 462.087 342.62V342.422C464.655 335.296 467.816 328.171 471.569 321.441C472.162 320.254 472.755 319.066 473.545 317.878C474.138 316.889 474.73 315.899 475.323 314.909C475.718 314.118 476.508 313.92 477.298 314.316C477.891 314.711 478.286 315.701 477.891 316.295C477.496 316.889 477.298 317.285 476.903 317.878C476.311 319.066 475.52 320.254 474.928 321.441C471.767 327.181 469.001 333.119 466.63 339.255C473.94 333.713 481.447 328.567 489.349 323.816C493.893 321.045 498.437 318.472 503.178 315.899C503.969 315.503 504.759 315.899 505.154 316.493C505.549 317.285 505.352 318.076 504.561 318.472C499.03 321.441 493.498 324.608 488.164 327.973C485.991 329.358 483.818 330.744 481.645 332.129H486.781L505.352 331.931C505.944 332.327 506.537 332.921 506.537 333.713Z" fill="url(#paint26_linear)"/>
<path d="M325.378 331.337C324.982 334.108 322.612 338.463 324.192 339.057C324.785 339.255 327.551 339.057 330.909 338.859H331.107C334.07 338.661 337.429 338.265 340.392 338.067C351.85 337.671 359.357 339.057 360.345 338.463C360.938 338.067 360.938 337.077 360.74 336.088C360.345 333.515 358.567 331.733 358.765 329.358C358.962 327.181 359.752 298.481 360.345 289.376C361.135 274.927 351.653 274.531 351.653 274.531C332.094 273.343 323.007 278.885 321.821 287.396C321.821 287.99 321.624 288.584 321.624 289.376C321.031 298.085 323.797 312.138 324.982 322.43C325.575 325.201 325.575 328.566 325.378 331.337Z" fill="url(#paint27_linear)"/>
<path d="M267.295 289.771C267.295 289.771 297.917 304.616 302.46 304.616C307.004 304.616 331.699 301.449 333.674 299.074C335.65 296.699 334.465 289.177 334.07 288.188C333.279 285.615 330.711 284.823 328.143 284.625C327.945 284.625 327.945 284.625 327.748 284.625C328.735 280.864 335.848 277.499 335.848 277.499C335.848 277.499 329.131 274.926 319.648 282.844C315.499 286.208 301.67 291.553 301.67 291.553C300.287 290.365 270.456 285.615 270.456 285.615L268.085 288.782L267.295 289.771Z" fill="url(#paint28_linear)"/>
</g>
<defs>
<linearGradient id="paint0_linear" x1="6.65207" y1="346.019" x2="96.2408" y2="346.019" gradientUnits="userSpaceOnUse">
<stop offset="0.0793651" stop-color="#512DA8"/>
<stop offset="0.5608" stop-color="#512DA8"/>
<stop offset="0.6727" stop-color="#5530AA"/>
<stop offset="0.7774" stop-color="#603BB1"/>
<stop offset="0.879" stop-color="#734DBC"/>
<stop offset="0.9247" stop-color="#7E57C2"/>
</linearGradient>
<linearGradient id="paint1_linear" x1="207.939" y1="26.7777" x2="367.874" y2="26.7777" gradientUnits="userSpaceOnUse">
<stop offset="0.00529099" stop-color="#FBBE52"/>
<stop offset="0.2722" stop-color="#FABB54"/>
<stop offset="0.3968" stop-color="#F9B656"/>
<stop offset="0.8783" stop-color="#FC952E"/>
</linearGradient>
<linearGradient id="paint2_linear" x1="353.08" y1="378.031" x2="489.052" y2="378.031" gradientUnits="userSpaceOnUse">
<stop offset="0.0793651" stop-color="#512DA8"/>
<stop offset="0.5608" stop-color="#512DA8"/>
<stop offset="0.6727" stop-color="#5530AA"/>
<stop offset="0.7774" stop-color="#603BB1"/>
<stop offset="0.879" stop-color="#734DBC"/>
<stop offset="0.9247" stop-color="#7E57C2"/>
</linearGradient>
<linearGradient id="paint3_linear" x1="390.76" y1="127.789" x2="450.417" y2="127.789" gradientUnits="userSpaceOnUse">
<stop offset="0.0793651" stop-color="#512DA8"/>
<stop offset="0.5608" stop-color="#512DA8"/>
<stop offset="0.6727" stop-color="#5530AA"/>
<stop offset="0.7774" stop-color="#603BB1"/>
<stop offset="0.879" stop-color="#734DBC"/>
<stop offset="0.9247" stop-color="#7E57C2"/>
</linearGradient>
<linearGradient id="paint4_linear" x1="88.966" y1="328.072" x2="183.737" y2="328.072" gradientUnits="userSpaceOnUse">
<stop offset="0.0793651" stop-color="#512DA8"/>
<stop offset="0.5608" stop-color="#512DA8"/>
<stop offset="0.6727" stop-color="#5530AA"/>
<stop offset="0.7774" stop-color="#603BB1"/>
<stop offset="0.879" stop-color="#734DBC"/>
<stop offset="0.9247" stop-color="#7E57C2"/>
</linearGradient>
<linearGradient id="paint5_linear" x1="79.8279" y1="351.786" x2="181.28" y2="351.786" gradientUnits="userSpaceOnUse">
<stop offset="0.0793651" stop-color="#512DA8"/>
<stop offset="0.5608" stop-color="#512DA8"/>
<stop offset="0.6727" stop-color="#5530AA"/>
<stop offset="0.7774" stop-color="#603BB1"/>
<stop offset="0.879" stop-color="#734DBC"/>
<stop offset="0.9247" stop-color="#7E57C2"/>
</linearGradient>
<linearGradient id="paint6_linear" x1="68.9923" y1="381.115" x2="174.599" y2="381.115" gradientUnits="userSpaceOnUse">
<stop offset="0.0793651" stop-color="#512DA8"/>
<stop offset="0.5608" stop-color="#512DA8"/>
<stop offset="0.6727" stop-color="#5530AA"/>
<stop offset="0.7774" stop-color="#603BB1"/>
<stop offset="0.879" stop-color="#734DBC"/>
<stop offset="0.9247" stop-color="#7E57C2"/>
</linearGradient>
<linearGradient id="paint7_linear" x1="164.806" y1="363.451" x2="186.925" y2="363.451" gradientUnits="userSpaceOnUse">
<stop offset="0.0793651" stop-color="#512DA8"/>
<stop offset="0.5608" stop-color="#512DA8"/>
<stop offset="0.6727" stop-color="#5530AA"/>
<stop offset="0.7774" stop-color="#603BB1"/>
<stop offset="0.879" stop-color="#734DBC"/>
<stop offset="0.9247" stop-color="#7E57C2"/>
</linearGradient>
<linearGradient id="paint8_linear" x1="103.877" y1="168.737" x2="117.648" y2="168.737" gradientUnits="userSpaceOnUse">
<stop offset="0.2169" stop-color="#C6B4ED"/>
<stop offset="0.4445" stop-color="#C3B0EC"/>
<stop offset="0.6564" stop-color="#B9A5E8"/>
<stop offset="0.8614" stop-color="#A892E2"/>
<stop offset="0.9153" stop-color="#A38CE0"/>
</linearGradient>
<linearGradient id="paint9_linear" x1="110.566" y1="233.605" x2="133.843" y2="233.605" gradientUnits="userSpaceOnUse">
<stop offset="0.2222" stop-color="#512DA8"/>
<stop offset="0.418" stop-color="#5632AB"/>
<stop offset="0.6588" stop-color="#6540B4"/>
<stop offset="0.9206" stop-color="#7E57C2"/>
</linearGradient>
<linearGradient id="paint10_linear" x1="116.671" y1="287.736" x2="131.764" y2="287.736" gradientUnits="userSpaceOnUse">
<stop offset="0.2222" stop-color="#512DA8"/>
<stop offset="0.418" stop-color="#5632AB"/>
<stop offset="0.6588" stop-color="#6540B4"/>
<stop offset="0.9206" stop-color="#7E57C2"/>
</linearGradient>
<linearGradient id="paint11_linear" x1="135.725" y1="280.044" x2="159.874" y2="280.044" gradientUnits="userSpaceOnUse">
<stop offset="0.2222" stop-color="#512DA8"/>
<stop offset="0.418" stop-color="#5632AB"/>
<stop offset="0.6588" stop-color="#6540B4"/>
<stop offset="0.9206" stop-color="#7E57C2"/>
</linearGradient>
<linearGradient id="paint12_linear" x1="118.966" y1="231.439" x2="159.417" y2="231.439" gradientUnits="userSpaceOnUse">
<stop offset="0.2222" stop-color="#512DA8"/>
<stop offset="0.418" stop-color="#5632AB"/>
<stop offset="0.6588" stop-color="#6540B4"/>
<stop offset="0.9206" stop-color="#7E57C2"/>
</linearGradient>
<linearGradient id="paint13_linear" x1="134.803" y1="138.659" x2="188.325" y2="138.659" gradientUnits="userSpaceOnUse">
<stop offset="0.2169" stop-color="#C6B4ED"/>
<stop offset="0.4445" stop-color="#C3B0EC"/>
<stop offset="0.6564" stop-color="#B9A5E8"/>
<stop offset="0.8614" stop-color="#A892E2"/>
<stop offset="0.9153" stop-color="#A38CE0"/>
</linearGradient>
<linearGradient id="paint14_linear" x1="106.241" y1="168.467" x2="149.677" y2="168.467" gradientUnits="userSpaceOnUse">
<stop offset="0.2169" stop-color="#C6B4ED"/>
<stop offset="0.4445" stop-color="#C3B0EC"/>
<stop offset="0.6564" stop-color="#B9A5E8"/>
<stop offset="0.8614" stop-color="#A892E2"/>
<stop offset="0.9153" stop-color="#A38CE0"/>
</linearGradient>
<linearGradient id="paint15_linear" x1="389.763" y1="111.273" x2="442.795" y2="111.273" gradientUnits="userSpaceOnUse">
<stop offset="0.2222" stop-color="#512DA8"/>
<stop offset="0.418" stop-color="#5632AB"/>
<stop offset="0.6588" stop-color="#6540B4"/>
<stop offset="0.9206" stop-color="#7E57C2"/>
</linearGradient>
<linearGradient id="paint16_linear" x1="403.002" y1="71.0486" x2="439.131" y2="71.0486" gradientUnits="userSpaceOnUse">
<stop offset="0.2169" stop-color="#C6B4ED"/>
<stop offset="0.4445" stop-color="#C3B0EC"/>
<stop offset="0.6564" stop-color="#B9A5E8"/>
<stop offset="0.8614" stop-color="#A892E2"/>
<stop offset="0.9153" stop-color="#A38CE0"/>
</linearGradient>
<linearGradient id="paint17_linear" x1="396.319" y1="58.5963" x2="419.053" y2="58.5963" gradientUnits="userSpaceOnUse">
<stop offset="0.2169" stop-color="#C6B4ED"/>
<stop offset="0.4445" stop-color="#C3B0EC"/>
<stop offset="0.6564" stop-color="#B9A5E8"/>
<stop offset="0.8614" stop-color="#A892E2"/>
<stop offset="0.9153" stop-color="#A38CE0"/>
</linearGradient>
<linearGradient id="paint18_linear" x1="280.382" y1="393.976" x2="391.462" y2="393.976" gradientUnits="userSpaceOnUse">
<stop offset="0.0793651" stop-color="#512DA8"/>
<stop offset="0.5608" stop-color="#512DA8"/>
<stop offset="0.6727" stop-color="#5530AA"/>
<stop offset="0.7774" stop-color="#603BB1"/>
<stop offset="0.879" stop-color="#734DBC"/>
<stop offset="0.9247" stop-color="#7E57C2"/>
</linearGradient>
<linearGradient id="paint19_linear" x1="273.85" y1="185.531" x2="230.32" y2="323.381" gradientUnits="userSpaceOnUse">
<stop offset="0.00529099" stop-color="#FBBE52"/>
<stop offset="0.2722" stop-color="#FABB54"/>
<stop offset="0.3968" stop-color="#F9B656"/>
<stop offset="0.8783" stop-color="#FC952E"/>
</linearGradient>
<linearGradient id="paint20_linear" x1="275.109" y1="346.545" x2="344.699" y2="346.545" gradientUnits="userSpaceOnUse">
<stop offset="0.2222" stop-color="#512DA8"/>
<stop offset="0.418" stop-color="#5632AB"/>
<stop offset="0.6588" stop-color="#6540B4"/>
<stop offset="0.9206" stop-color="#7E57C2"/>
</linearGradient>
<linearGradient id="paint21_linear" x1="275.405" y1="356.983" x2="314.854" y2="356.983" gradientUnits="userSpaceOnUse">
<stop offset="0.2222" stop-color="#512DA8"/>
<stop offset="0.418" stop-color="#5632AB"/>
<stop offset="0.6588" stop-color="#6540B4"/>
<stop offset="0.9206" stop-color="#7E57C2"/>
</linearGradient>
<linearGradient id="paint22_linear" x1="287.35" y1="380.627" x2="352.889" y2="380.627" gradientUnits="userSpaceOnUse">
<stop offset="0.2222" stop-color="#512DA8"/>
<stop offset="0.418" stop-color="#5632AB"/>
<stop offset="0.6588" stop-color="#6540B4"/>
<stop offset="0.9206" stop-color="#7E57C2"/>
</linearGradient>
<linearGradient id="paint23_linear" x1="295.607" y1="360.713" x2="361.076" y2="360.713" gradientUnits="userSpaceOnUse">
<stop offset="0.2222" stop-color="#512DA8"/>
<stop offset="0.418" stop-color="#5632AB"/>
<stop offset="0.6588" stop-color="#6540B4"/>
<stop offset="0.9206" stop-color="#7E57C2"/>
</linearGradient>
<linearGradient id="paint24_linear" x1="270.256" y1="289.424" x2="344.155" y2="289.424" gradientUnits="userSpaceOnUse">
<stop offset="0.2169" stop-color="#C6B4ED"/>
<stop offset="0.4445" stop-color="#C3B0EC"/>
<stop offset="0.6564" stop-color="#B9A5E8"/>
<stop offset="0.8614" stop-color="#A892E2"/>
<stop offset="0.9153" stop-color="#A38CE0"/>
</linearGradient>
<linearGradient id="paint25_linear" x1="221.102" y1="327.865" x2="271.861" y2="327.865" gradientUnits="userSpaceOnUse">
<stop offset="0.00529099" stop-color="#FBBE52"/>
<stop offset="0.2722" stop-color="#FABB54"/>
<stop offset="0.3968" stop-color="#F9B656"/>
<stop offset="0.8783" stop-color="#FC952E"/>
</linearGradient>
<linearGradient id="paint26_linear" x1="401.178" y1="363.255" x2="506.615" y2="363.255" gradientUnits="userSpaceOnUse">
<stop offset="0.0793651" stop-color="#512DA8"/>
<stop offset="0.5608" stop-color="#512DA8"/>
<stop offset="0.6727" stop-color="#5530AA"/>
<stop offset="0.7774" stop-color="#603BB1"/>
<stop offset="0.879" stop-color="#734DBC"/>
<stop offset="0.9247" stop-color="#7E57C2"/>
</linearGradient>
<linearGradient id="paint27_linear" x1="321.832" y1="306.801" x2="361.03" y2="306.801" gradientUnits="userSpaceOnUse">
<stop offset="0.2169" stop-color="#C6B4ED"/>
<stop offset="0.4445" stop-color="#C3B0EC"/>
<stop offset="0.6564" stop-color="#B9A5E8"/>
<stop offset="0.8614" stop-color="#A892E2"/>
<stop offset="0.9153" stop-color="#A38CE0"/>
</linearGradient>
<linearGradient id="paint28_linear" x1="315.732" y1="311.938" x2="289.761" y2="260.094" gradientUnits="userSpaceOnUse">
<stop offset="0.2169" stop-color="#C6B4ED"/>
<stop offset="0.4445" stop-color="#C3B0EC"/>
<stop offset="0.6564" stop-color="#B9A5E8"/>
<stop offset="0.8614" stop-color="#A892E2"/>
<stop offset="0.9153" stop-color="#A38CE0"/>
</linearGradient>
<clipPath id="clip0">
<rect width="550" height="421" fill="white"/>
</clipPath>
</defs>
</svg>
