<svg width="550" height="440" viewBox="0 0 550 440" fill="none" xmlns="http://www.w3.org/2000/svg">
<g clip-path="url(#clip0)">
<path d="M18.8175 242.801C21.7232 248.329 24.7672 253.857 28.088 259.246C69.7358 327.927 187.207 424.799 268.704 438.065C354.075 452.023 451.899 390.942 510.843 326.822C583.899 247.5 552.906 74.2085 434.742 30.6784C403.057 18.9321 365.975 21.005 334.981 36.206C287.522 59.4221 254.314 110.967 202.428 119.673C173.371 124.51 144.729 114.422 116.503 107.651C88.2766 100.741 55.8993 97.5628 31.4087 113.869C10.9307 127.136 0.415017 151.872 -7.72607e-05 175.502C-0.415172 199.133 8.02508 221.935 18.8175 242.801Z" fill="#DAD6FC"/>
<path d="M502.817 245.289C501.711 236.859 495.207 217.651 486.767 229.812C481.648 237.136 485.107 248.606 481.509 257.035C474.453 249.849 456.327 208.807 440.138 225.942C429.623 236.859 445.673 266.985 450.792 278.455C447.195 273.894 438.755 268.92 434.327 274.862C430.176 280.389 437.371 293.379 439.308 298.907C430.453 295.176 424.365 285.641 414.817 292.55C407.207 297.94 407.207 308.442 408.176 316.595C409.283 325.302 412.189 333.178 412.327 342.023C412.465 352.111 408.729 359.987 407.346 369.937C417.723 349.07 449.27 354.874 467.95 353.492C477.912 352.802 530.629 349.761 510.843 328.894C507.107 325.025 462.277 321.018 479.295 310.653C486.905 305.955 502.679 310.93 511.534 309.962C518.453 309.133 532.427 307.199 537.409 302.224C546.402 293.656 539.761 281.357 530.214 277.764C522.05 274.585 511.534 278.04 504.339 273.204C510.289 266.018 522.742 268.643 529.107 262.563C537.132 254.962 528.968 250.678 521.358 249.158C532.566 243.631 540.038 225.389 521.358 224.56C514.578 224.284 509.459 228.015 505.861 233.266C503.371 236.859 499.912 245.013 502.679 245.151C501.987 244.736 500.88 243.907 500.88 242.94" fill="#C3C3F4"/>
<path d="M82.8807 255.101C82.3272 265.741 83.5725 276.382 86.4781 286.608C87.3083 289.787 88.4153 292.827 89.5222 296.005C93.8115 307.475 100.038 318.116 108.063 327.236C109.17 328.48 110.277 329.724 111.384 330.829C114.843 334.422 118.579 337.739 122.591 340.779C126.05 348.932 129.371 355.704 133.245 362.199C134.076 363.581 134.906 364.962 135.736 366.344C139.057 371.734 142.931 376.985 147.497 382.651C147.497 382.651 147.497 382.789 147.635 382.789C150.541 383.48 153.308 383.895 156.214 384.033C167.145 384.447 177.937 380.854 187.9 375.05C189.698 374.083 191.359 372.977 193.019 371.734C193.711 371.181 194.541 370.766 195.233 370.214C195.925 369.661 196.617 369.246 197.308 368.694C197.862 368.279 198.277 367.864 198.83 367.588C204.503 363.166 209.761 358.191 214.604 353.078C224.566 342.437 233.837 330.553 238.679 316.872C243.522 303.053 243.245 286.885 235.22 274.724C224.289 258.141 200.906 250.955 194.541 232.161C188.038 212.952 202.843 192.776 201.598 172.462C200.352 152.701 184.44 137.224 169.082 124.787C153.585 112.349 136.566 99.2212 131.447 80.0127C129.371 72.274 129.51 63.9825 127.434 56.2438C125.359 48.5051 120.101 40.6282 112.214 39.1081C101.975 37.1735 92.9813 46.4323 88.2769 55.6911C79.8366 72.9649 79.0064 93.9699 86.2014 111.935C92.0127 126.445 102.528 139.02 105.988 154.359C112.076 181.998 93.1197 208.254 85.9247 235.754C84.1259 241.972 83.2958 248.467 82.8807 255.101Z" fill="#7E57C2"/>
<path opacity="0.3" d="M154.969 175.364C156.629 187.802 152.755 200.239 148.604 213.367C146.528 220 144.453 226.771 143.069 233.543C141.962 238.794 141.409 244.183 141.271 249.435C132.138 238.518 124.528 226.495 118.302 213.781C117.61 212.4 116.088 211.985 114.843 212.538C113.459 213.229 113.044 214.749 113.598 215.993C120.931 230.917 130.201 244.874 141.132 257.312C141.271 257.45 141.271 257.45 141.409 257.588C141.547 260.214 141.824 262.701 142.239 265.188C143.623 275.138 146.805 284.812 151.371 293.932C155.384 301.809 160.503 309.133 165.484 316.181C170.604 323.505 176 331.106 179.874 339.121C182.227 343.957 184.025 349.07 185.409 354.322C186.101 356.809 186.516 359.297 186.931 361.922C187.623 366.206 187.9 370.49 188.038 374.912C188.038 377.538 187.9 380.163 187.761 382.789C189.56 382.374 191.359 381.96 193.157 381.545C193.434 378.229 193.434 375.05 193.296 371.734C193.296 370.352 193.157 369.108 193.019 367.726C192.881 365.377 192.604 363.028 192.189 360.678C190.805 352.525 188.315 344.51 184.717 337.048C183.887 335.251 182.918 333.593 182.088 331.935C183.61 330 185.132 327.927 186.516 325.854C192.742 316.596 197.17 306.369 199.661 295.59C199.937 294.209 199.107 292.827 197.723 292.412C196.34 292.136 194.956 292.965 194.541 294.347C192.604 303.329 189.006 311.897 184.302 319.636C182.78 322.123 181.12 324.611 179.321 326.96C176.415 322.261 173.233 317.701 170.05 313.141C165.208 306.231 160.227 299.045 156.352 291.445C156.214 291.03 155.937 290.754 155.799 290.339C158.013 287.714 160.227 284.95 162.302 282.048C170.327 270.854 176.415 258.417 180.289 245.289C180.705 243.907 179.874 242.525 178.491 241.972C177.107 241.558 175.723 242.387 175.17 243.769C171.572 255.93 165.9 267.538 158.566 278.04C156.906 280.389 155.245 282.739 153.308 284.95C151.233 279.837 149.572 274.585 148.604 269.334C146.252 257.864 146.113 245.98 148.466 234.372C149.711 227.877 151.786 221.244 153.862 214.887C169.774 204.108 181.811 188.078 187.761 169.699C188.176 168.317 187.484 166.797 186.101 166.382C184.717 165.967 183.195 166.658 182.78 168.04C177.937 183.103 168.667 196.508 156.491 206.319C159.95 194.573 162.44 182.412 159.673 170.251C156.352 155.741 146.39 144.548 136.843 133.631C135.736 132.387 134.629 131.143 133.522 129.9L135.459 104.058C135.598 102.676 134.491 101.432 133.107 101.294C131.723 101.156 130.34 102.261 130.34 103.643L128.818 124.096C117.333 110.415 113.044 98.1156 114.981 87.0604C115.258 85.6785 114.289 84.2966 112.906 84.0202C111.522 83.7438 110.138 84.7111 109.862 86.093C107.371 99.9121 113.321 115.113 128.126 132.249C129.648 133.907 131.17 135.704 132.554 137.362C141.132 147.035 149.849 156.985 153.447 168.731L116.78 150.352C115.535 149.661 113.874 150.214 113.321 151.457C112.629 152.701 113.183 154.359 114.428 154.912L154.969 175.364Z" fill="url(#paint0_linear)"/>
<path d="M15.4969 247.915C31.1322 286.055 50.2265 324.611 81.912 351.005C100.176 366.206 123.698 378.09 147.635 382.651C150.541 383.203 153.447 383.618 156.214 384.033C166.868 385.276 177.384 385 187.623 382.789C189.421 382.374 191.22 381.96 193.019 381.545C195.233 380.992 197.447 380.301 199.522 379.472C199.107 377.399 198.692 375.327 198.277 373.254C198 371.734 197.723 370.214 197.308 368.693C197.032 367.588 196.893 366.482 196.616 365.239C193.849 351.834 190.667 338.568 186.239 325.854C185.547 323.781 184.717 321.709 184.025 319.774C181.811 314.246 179.459 308.857 176.554 303.606C172.541 296.005 167.56 288.819 161.887 282.324C160.642 280.942 159.535 279.698 158.289 278.455C155.107 275.276 151.786 272.374 148.327 269.611C146.39 268.09 144.315 266.709 142.239 265.327C134.491 260.352 125.912 256.759 116.642 255.1C105.434 253.028 94.0881 253.857 82.7422 255.239C76.7925 255.93 70.9812 256.621 65.0315 257.173C48.0127 258.693 29.4718 258.002 15.4969 247.915Z" fill="white"/>
<path opacity="0.1" d="M49.1197 275.138C61.9877 280.113 74.5789 285.641 86.8933 291.721L50.5034 295.867C49.2581 296.005 48.4279 297.111 48.5663 298.355C48.7046 299.598 49.8116 300.427 51.0569 300.289L89.5223 296.005L93.3965 295.591C93.5348 295.591 93.8116 295.591 93.9499 295.453C107.233 302.362 120.101 310.101 132.554 318.392C124.529 321.709 116.365 324.611 108.202 327.236C100.868 329.586 93.3965 331.659 85.9248 333.455C84.6795 333.731 83.9877 334.975 84.2644 336.081C84.5411 337.324 85.7864 338.015 86.8933 337.739C95.1952 335.804 103.359 333.455 111.522 330.829C120.101 328.066 128.679 324.887 136.981 321.294C144.176 326.131 151.095 331.382 157.874 336.633C158.151 336.91 158.428 337.186 158.705 337.324C163.963 341.47 169.22 345.892 174.34 350.314C161.195 355.704 147.359 359.573 133.384 362.199C132.969 362.337 132.554 362.337 132.139 362.475C130.893 362.752 130.063 363.857 130.34 365.101C130.617 366.345 131.724 367.174 132.969 366.897C133.937 366.759 134.906 366.483 136.013 366.345C150.403 363.581 164.654 359.297 178.214 353.769C181.258 356.533 184.164 359.159 187.208 362.061C189.145 363.995 191.22 365.792 193.157 367.865C193.988 368.694 194.818 369.523 195.648 370.352C196.617 371.319 197.585 372.287 198.692 373.392C198.415 371.872 198.139 370.352 197.724 368.832C198.277 368.417 198.692 368.003 199.246 367.726C198.554 366.897 197.724 366.206 197.032 365.515C195.51 363.995 193.849 362.475 192.327 360.955C190.113 358.882 187.9 356.809 185.686 354.736C184.025 353.216 182.227 351.558 180.566 350.038C180.428 349.762 180.151 349.623 180.013 349.485C174.063 344.234 168.113 339.259 162.025 334.422C159.258 317.287 153.032 300.566 144.038 285.779C143.346 284.674 141.963 284.397 140.994 285.088C139.887 285.779 139.61 287.161 140.302 288.128C148.189 300.98 153.724 315.49 156.768 330.415C144.591 321.156 132 312.45 118.856 304.573C118.856 304.435 118.856 304.297 118.717 304.297C111.522 290.478 103.082 277.073 93.6732 264.774C92.9814 263.807 91.5977 263.669 90.4908 264.36C89.5223 265.051 89.3839 266.571 90.0757 267.538C97.9625 277.902 105.157 288.958 111.522 300.427C103.497 295.729 95.3336 291.445 87.0317 287.299C75.4091 281.495 63.5097 276.382 51.3336 271.684C50.2267 271.269 48.843 271.822 48.4279 272.927C47.4594 273.342 48.0128 274.724 49.1197 275.138Z" fill="url(#paint1_linear)"/>
<path d="M455.22 152.01H499.082V155.327C499.082 155.327 497.421 156.847 496.591 159.196C496.315 159.887 496.176 160.716 496.176 161.545C496.176 165.276 499.082 167.487 499.082 167.487V170.804H455.22C453.837 170.804 452.73 169.698 452.73 168.317V154.359C452.73 153.116 453.837 152.01 455.22 152.01Z" fill="url(#paint2_linear)"/>
<path d="M508.214 161.545C508.214 160.716 508.352 159.887 508.629 159.196H466.428V168.869H509.736L511.12 167.488C511.12 167.626 508.214 165.276 508.214 161.545Z" fill="white"/>
<path d="M511.12 155.326L509.459 153.668H466.428V159.195H508.629C509.321 156.846 511.12 155.326 511.12 155.326Z" fill="white"/>
<path d="M511.12 155.327V152.01H467.258C465.874 152.01 464.767 153.116 464.767 154.497V168.455C464.767 169.837 465.874 170.942 467.258 170.942H511.12V167.626H468.088V155.465H511.12V155.327Z" fill="url(#paint3_linear)"/>
<path d="M97.2704 152.01H141.132V155.327C141.132 155.327 139.472 156.847 138.642 159.196C138.365 159.887 138.226 160.716 138.226 161.545C138.226 165.276 141.132 167.487 141.132 167.487V170.804H97.2704C95.8868 170.804 94.7799 169.698 94.7799 168.317V154.359C94.7799 153.116 95.8868 152.01 97.2704 152.01Z" fill="url(#paint4_linear)"/>
<path d="M150.126 161.545C150.126 160.716 150.264 159.887 150.541 159.196H108.34V168.869H151.648L153.031 167.488C153.031 167.626 150.126 165.276 150.126 161.545Z" fill="white"/>
<path d="M153.031 155.326L151.371 153.668H108.34V159.195H150.541C151.371 156.846 153.031 155.326 153.031 155.326Z" fill="url(#paint5_linear)"/>
<path d="M153.031 155.327V152.01H109.17C107.786 152.01 106.679 153.116 106.679 154.497V168.455C106.679 169.837 107.786 170.942 109.17 170.942H153.031V167.626H110V155.465H153.031V155.327Z" fill="url(#paint6_linear)"/>
<path d="M470.717 133.078H514.579V136.394C514.579 136.394 512.918 137.915 512.088 140.264C511.811 140.955 511.673 141.784 511.673 142.613C511.673 146.344 514.579 148.555 514.579 148.555V151.872H470.717C469.334 151.872 468.227 150.766 468.227 149.384V135.565C468.227 134.183 469.334 133.078 470.717 133.078Z" fill="url(#paint7_linear)"/>
<path d="M523.711 142.613C523.711 141.784 523.849 140.955 524.126 140.264H481.925V149.937H525.233L526.617 148.555C526.478 148.693 523.711 146.344 523.711 142.613Z" fill="white"/>
<path d="M526.478 136.394L524.818 134.735H481.786V140.263H523.988C524.818 137.914 526.478 136.394 526.478 136.394Z" fill="white"/>
<path d="M526.478 136.394V133.078H482.616C481.233 133.078 480.126 134.183 480.126 135.565V149.523C480.126 150.904 481.233 152.01 482.616 152.01H526.478V148.693H483.447V136.533H526.478V136.394Z" fill="url(#paint8_linear)"/>
<path d="M296.931 167.626H293.61H235.22H231.899C231.069 167.626 230.377 168.317 230.377 169.146V169.422C230.377 170.251 231.069 170.942 231.899 170.942H264.415H296.931C297.761 170.942 298.453 170.251 298.453 169.422V169.146C298.453 168.317 297.761 167.626 296.931 167.626Z" fill="url(#paint9_linear)"/>
<path d="M341.761 44.2212H185.686C183.333 44.2212 181.535 46.0177 181.535 48.3669V131.558V145.653C181.535 148.003 183.333 149.799 185.686 149.799H250.717V156.847H287.66V149.799H341.761C344.113 149.799 345.912 148.003 345.912 145.653V131.558V48.3669C345.912 46.0177 343.975 44.2212 341.761 44.2212Z" fill="url(#paint10_linear)"/>
<path d="M239.925 167.626H236.604C235.774 167.626 235.082 168.317 235.082 169.146V169.422C235.082 170.251 235.774 170.942 236.604 170.942H269.12H301.635C302.466 170.942 303.157 170.251 303.157 169.422V169.146C303.157 168.317 302.466 167.626 301.635 167.626H298.315H239.925Z" fill="url(#paint11_linear)"/>
<path d="M292.642 165.968C289.598 164.033 287.66 160.578 287.66 156.847H250.717C250.717 160.578 248.78 163.895 245.736 165.968C244.076 167.073 242 167.626 239.925 167.626H298.453C296.377 167.626 294.302 167.073 292.642 165.968Z" fill="url(#paint12_linear)"/>
<path d="M350.617 48.3669C350.617 46.0177 348.818 44.2212 346.466 44.2212H190.39C188.038 44.2212 186.239 46.0177 186.239 48.3669V131.558H350.617V48.3669Z" fill="url(#paint13_linear)"/>
<path d="M344.667 53.8945C344.667 51.8216 343.006 50.0251 340.792 50.0251H195.924C193.849 50.0251 192.05 51.8216 192.05 53.8945V131.558H344.667V53.8945Z" fill="white"/>
<path d="M344.667 59.8367H192.051V63.5678H344.667V59.8367Z" fill="url(#paint14_linear)"/>
<path d="M193.019 131.558H186.239V145.653C186.239 148.003 188.038 149.799 190.39 149.799H346.466C348.818 149.799 350.617 148.003 350.617 145.653V131.558H343.837H193.019Z" fill="url(#paint15_linear)"/>
<path d="M329.447 69.3718H208.931V74.2085H329.447V69.3718Z" fill="url(#paint16_linear)"/>
<path d="M294.994 87.8894H269.811V124.648H294.994V87.8894Z" fill="url(#paint17_linear)"/>
<path d="M301.22 87.8894V124.648H329.308V87.8894H301.22Z" fill="url(#paint18_linear)"/>
<path d="M262.616 119.812H209.346C209.069 119.812 208.931 119.95 208.931 120.226V124.095C208.931 124.372 209.069 124.51 209.346 124.51H262.616C262.893 124.51 263.031 124.372 263.031 124.095V120.226C263.031 119.95 262.893 119.812 262.616 119.812Z" fill="url(#paint19_linear)"/>
<path d="M262.616 109.171H209.346C209.069 109.171 208.931 109.309 208.931 109.585V113.455C208.931 113.731 209.069 113.869 209.346 113.869H262.616C262.893 113.869 263.031 113.731 263.031 113.455V109.585C263.031 109.309 262.893 109.171 262.616 109.171Z" fill="url(#paint20_linear)"/>
<path d="M262.616 98.5303H209.346C209.069 98.5303 208.931 98.6685 208.931 98.9448V102.814C208.931 103.091 209.069 103.229 209.346 103.229H262.616C262.893 103.229 263.031 103.091 263.031 102.814V98.9448C263.031 98.6685 262.893 98.5303 262.616 98.5303Z" fill="url(#paint21_linear)"/>
<path d="M262.616 87.8894H209.346C209.069 87.8894 208.931 88.0276 208.931 88.304V92.1733C208.931 92.4497 209.069 92.5879 209.346 92.5879H262.616C262.893 92.5879 263.031 92.4497 263.031 92.1733V88.304C263.031 88.0276 262.893 87.8894 262.616 87.8894Z" fill="url(#paint22_linear)"/>
<path d="M199.384 55.691C199.384 54.7237 198.553 53.8945 197.585 53.8945C196.616 53.8945 195.786 54.7237 195.786 55.691C195.786 56.6584 196.616 57.4875 197.585 57.4875C198.692 57.4875 199.384 56.6584 199.384 55.691Z" fill="url(#paint23_linear)"/>
<path d="M204.78 55.691C204.78 54.7237 203.95 53.8945 202.981 53.8945C202.013 53.8945 201.183 54.7237 201.183 55.691C201.183 56.6584 202.013 57.4875 202.981 57.4875C203.95 57.4875 204.78 56.6584 204.78 55.691Z" fill="url(#paint24_linear)"/>
<path d="M210.176 55.691C210.176 54.7237 209.346 53.8945 208.377 53.8945C207.409 53.8945 206.579 54.7237 206.579 55.691C206.579 56.6584 207.409 57.4875 208.377 57.4875C209.346 57.4875 210.176 56.6584 210.176 55.691Z" fill="url(#paint25_linear)"/>
<path d="M268.428 145.653C271.179 145.653 273.409 143.426 273.409 140.679C273.409 137.931 271.179 135.704 268.428 135.704C265.677 135.704 263.447 137.931 263.447 140.679C263.447 143.426 265.677 145.653 268.428 145.653Z" fill="white"/>
<path d="M178.49 317.701H96.5785V324.196H178.49V317.701Z" fill="#A5A5E5"/>
<path d="M515.409 317.701H433.497V324.196H515.409V317.701Z" fill="#9393DB"/>
<path d="M444.981 181.583L417.862 380.163C417.585 381.545 418.692 382.927 420.075 382.927H422.289C423.258 382.927 424.088 382.374 424.503 381.407L467.534 187.249C467.95 186.005 467.258 184.623 465.874 184.209L447.748 179.925C446.503 179.51 445.258 180.339 444.981 181.583Z" fill="#9393DB"/>
<path d="M503.648 181.583L530.767 380.025C531.044 381.407 529.937 382.789 528.553 382.789H526.34C525.371 382.789 524.541 382.236 524.126 381.269L481.094 187.111C480.679 185.867 481.371 184.485 482.755 184.071L500.88 179.787C502.126 179.51 503.371 180.339 503.648 181.583Z" fill="#A5A5E5"/>
<path d="M513.887 194.849H434.604C433.082 194.849 431.836 193.606 431.836 192.085V188.631H516.516V192.085C516.654 193.606 515.409 194.849 513.887 194.849Z" fill="#9393DB"/>
<path d="M106.126 181.583L79.0064 380.163C78.7296 381.545 79.8365 382.927 81.2202 382.927H83.434C84.4026 382.927 85.2328 382.374 85.6479 381.407L128.679 187.111C129.094 185.867 128.403 184.485 127.019 184.071L108.893 179.787C107.648 179.51 106.403 180.339 106.126 181.583Z" fill="#A5A5E5"/>
<path d="M164.792 181.583L191.912 380.025C192.188 381.407 191.082 382.789 189.698 382.789H187.484C186.515 382.789 185.685 382.236 185.27 381.269L142.239 187.111C141.824 185.867 142.515 184.485 143.899 184.071L162.025 179.787C163.27 179.51 164.515 180.339 164.792 181.583Z" fill="#B4B4ED"/>
<path d="M175.032 194.849H95.7485C94.2265 194.849 92.9812 193.606 92.9812 192.085V188.631H177.66V192.085C177.66 193.606 176.554 194.849 175.032 194.849Z" fill="#A5A5E5"/>
<path d="M545.434 170.942H67.5219V188.631H545.434V170.942Z" fill="url(#paint26_linear)"/>
<path d="M204.918 170.942H67.5219V188.631H204.918V170.942Z" fill="url(#paint27_linear)"/>
<path d="M133.522 134.322C133.522 134.322 125.635 111.105 139.057 111.105C152.478 111.105 144.176 134.322 144.176 134.322H133.522Z" fill="#9393DB"/>
<path d="M146.667 134.322C146.805 134.598 146.805 134.874 146.805 134.874L150.264 135.012C150.264 134.736 150.126 134.598 150.126 134.322H146.667Z" fill="#B5E3FB"/>
<path d="M151.924 135.012L155.799 135.289C155.799 135.289 155.799 134.874 155.937 134.322H152.063L151.924 135.012Z" fill="#B5E3FB"/>
<path d="M150.818 138.191L151.648 137.362L151.925 135.151L150.126 135.013C150.541 136.947 150.818 138.191 150.818 138.191Z" fill="#B5E3FB"/>
<path d="M149.988 134.322C149.988 134.598 150.126 134.736 150.126 135.012L151.925 135.151L152.063 134.322H149.988Z" fill="#B5E3FB"/>
<path d="M151.094 101.294C151.371 101.432 157.598 104.749 157.598 111.796C157.598 117.877 156.214 130.59 155.799 134.322H158.013C158.151 134.322 169.774 101.57 151.094 101.294Z" fill="#C3C3F4"/>
<path d="M151.094 101.294C150.956 101.294 150.956 101.294 150.956 101.294C131.862 101.294 143.069 134.183 143.069 134.183H146.667C146.113 132.111 144.038 123.266 144.038 114.284C143.899 104.196 150.818 101.432 151.094 101.294Z" fill="#C3C3F4"/>
<path d="M151.094 101.294C151.233 101.432 153.585 104.334 153.585 114.422C153.585 124.786 152.34 132.387 152.34 132.387L152.063 134.183H155.937C156.352 130.452 157.736 117.739 157.736 111.658C157.736 104.749 151.371 101.432 151.094 101.294Z" fill="#9393DB"/>
<path d="M147.497 113.869C147.497 105.44 150.956 101.432 151.094 101.294C150.818 101.432 143.899 104.196 143.899 114.284C143.899 123.266 145.975 131.972 146.528 134.183H149.987C149.019 129.07 147.497 119.673 147.497 113.869Z" fill="#9393DB"/>
<path d="M147.497 113.869C147.497 119.812 149.019 129.07 149.987 134.322H152.063L152.339 132.525C152.339 132.525 153.585 124.786 153.585 114.56C153.585 104.472 151.233 101.57 151.094 101.432C150.956 101.432 147.497 105.44 147.497 113.869Z" fill="#C3C3F4"/>
<path d="M156.767 134.322C156.767 134.322 150.679 116.219 161.057 116.219C171.434 116.219 165.069 134.322 165.069 134.322H156.767Z" fill="#9393DB"/>
<path d="M168.39 131.696H160.088C161.61 131.696 162.717 133.078 162.579 134.598L161.057 144.548H169.359L170.881 134.598C171.019 133.078 169.912 131.696 168.39 131.696Z" fill="url(#paint28_linear)"/>
<path d="M160.641 146.897H168.39C168.528 146.897 168.805 146.897 168.943 146.897L169.358 144.41H161.056L160.641 146.897Z" fill="#B4B4ED"/>
<path d="M157.874 165.138C157.321 168.455 154.415 170.942 151.094 170.942H159.396C162.855 170.942 165.761 168.455 166.176 165.138L167.006 159.611H158.704L157.874 165.138Z" fill="#B4B4ED"/>
<path d="M160.642 146.897L158.704 159.611H167.006L168.943 146.897C168.805 146.897 168.528 146.897 168.39 146.897H160.642Z" fill="url(#paint29_linear)"/>
<path d="M128.818 134.598L130.34 144.548H141.547H149.849H161.057L162.579 134.598C162.855 133.078 161.61 131.696 160.088 131.696H149.849H141.547H131.308C129.648 131.696 128.541 133.078 128.818 134.598Z" fill="#FFDC8C"/>
<path d="M141.547 144.41H130.34L130.616 146.897H131.17H141.547H149.849H160.088H160.642L161.057 144.41H149.849H141.547Z" fill="#B4B4ED"/>
<path d="M157.874 165.138L158.705 159.611H149.849H141.547H132.692L133.522 165.138C134.076 168.455 136.981 170.942 140.302 170.942H141.547H149.849H151.094C154.415 170.942 157.321 168.455 157.874 165.138Z" fill="#B4B4ED"/>
<path d="M149.849 146.897H141.547H131.308C131.17 146.897 130.893 146.897 130.755 146.897L132.692 159.611H141.547H149.849H158.704L160.641 146.897C160.503 146.897 160.226 146.897 160.088 146.897H149.849Z" fill="#FFDC8C"/>
<path d="M284.478 378.09C283.786 378.09 283.371 377.814 282.818 377.399C282.818 377.538 282.818 377.676 282.679 377.676C282.264 379.472 283.509 381.269 285.308 381.407C289.321 381.822 296.654 382.512 304.403 382.512C314.226 382.512 322.39 382.098 325.019 381.96C325.434 381.96 325.849 381.545 325.849 381.131C325.849 380.578 325.849 379.61 325.711 378.505C322.667 378.643 314.365 379.058 304.403 379.058C296.377 379.196 288.767 378.505 284.478 378.09Z" fill="white"/>
<path d="M309.936 366.897C309.936 366.897 292.779 367.45 288.075 369.523C285.307 370.766 283.785 374.497 282.955 377.399C283.37 377.676 283.924 377.952 284.616 378.09C288.905 378.505 296.515 379.196 304.679 379.196C314.641 379.196 322.943 378.781 325.987 378.643C325.848 375.879 325.572 371.734 325.018 368.002C324.88 368.002 318.238 368.693 309.936 366.897Z" fill="#512DA8"/>
<path d="M241.308 377.952C241.17 377.952 241.031 377.952 240.893 377.814C240.893 378.09 240.755 378.229 240.755 378.505C240.478 379.887 241.447 381.269 242.83 381.407C246.843 381.821 255.006 382.651 263.862 382.651C274.239 382.651 282.818 382.236 285.447 382.098C285.862 382.098 286.277 381.683 286.277 381.269C286.277 380.716 286.277 379.749 286.138 378.643C282.541 378.781 273.962 379.058 263.862 379.058C254.314 379.196 245.597 378.367 241.308 377.952Z" fill="white"/>
<path d="M269.396 366.897C269.396 366.897 251.408 367.45 246.427 369.523C243.383 370.766 241.723 374.912 241.031 377.952C241.169 377.952 241.308 377.952 241.446 378.09C245.735 378.505 254.452 379.334 263.999 379.334C274.1 379.334 282.679 379.058 286.276 378.92C286.138 376.156 285.861 372.01 285.169 368.279C285.031 368.002 278.113 368.693 269.396 366.897Z" fill="#512DA8"/>
<path d="M363.069 214.887C323.912 213.781 301.497 222.902 299.698 234.925C297.899 247.085 306.755 367.035 306.755 367.035C306.755 367.035 313.535 370.766 325.019 368.555C325.019 368.555 332.352 328.618 334.704 309.686C337.057 290.754 334.843 264.912 334.843 264.912C334.843 264.912 371.509 277.764 393.648 263.806C415.786 249.849 395.585 211.156 395.585 211.156L363.069 214.887Z" fill="url(#paint30_linear)"/>
<path d="M323.358 214.887C284.201 213.781 261.786 222.902 259.987 234.925C258.189 247.085 267.459 366.897 267.459 366.897C267.459 366.897 273.132 370.352 285.17 368.832C285.17 368.832 292.503 328.618 294.855 309.548C297.207 290.616 294.994 264.774 294.994 264.774C294.994 264.774 331.66 277.626 353.799 263.668C375.937 249.711 355.736 211.018 355.736 211.018L323.358 214.887Z" fill="url(#paint31_linear)"/>
<path d="M339.409 18.103C339.409 18.103 335.258 27.3618 334.289 37.4498C334.289 37.4498 330.692 43.6684 330.692 45.8794C330.692 48.0905 334.013 49.0578 334.013 49.0578C334.013 49.0578 334.013 61.3568 337.057 65.2262C340.101 69.0955 351.031 69.2337 351.031 69.2337C351.031 69.2337 352.415 72.6885 349.233 86.2312H379.95C379.95 86.2312 376.352 76.5578 375.66 61.0804C374.969 45.4648 382.164 18.103 339.409 18.103Z" fill="#FBBE52"/>
<path d="M341.484 43.1156C341.761 41.4573 342.314 39.799 343.283 38.4171C344.528 36.6206 348.126 36.7588 348.818 40.2136C350.201 47.2613 345.497 49.6106 345.497 49.6106C345.497 49.6106 349.371 52.7889 354.352 60.6658C354.352 60.6658 359.056 63.706 365.698 63.706C372.339 63.706 375.522 60.9422 375.522 60.9422C375.522 60.9422 377.736 53.2035 381.056 46.9849C384.239 40.7663 384.377 16.7211 384.377 16.7211L387.698 17.1357L384.101 15.201L385.207 11.8844L382.855 13.9573C382.855 13.9573 377.044 8.01508 367.082 7.04774C349.786 5.52764 338.025 0 338.025 0C338.025 0 335.95 4.5603 336.918 10.3643L334.704 8.29146C334.704 8.29146 333.321 14.6482 338.163 21.4196C338.163 21.4196 340.377 30.402 338.163 41.7337L341.346 43.6683C341.484 43.8065 341.484 43.5302 341.484 43.1156Z" fill="#563B2B"/>
<path d="M385.346 199.548C388.666 197.06 392.402 194.296 395.861 191.394C403.748 184.761 410.943 177.575 411.773 172.186C413.71 160.44 412.188 125.339 411.22 108.756C411.22 107.789 411.081 106.821 411.081 105.992C410.113 90.3767 400.427 83.8817 396.138 81.2561C393.924 101.57 390.465 147.035 390.05 149.384C389.635 152.424 385.346 199.548 385.346 199.548Z" fill="url(#paint32_linear)"/>
<path d="M384.239 85.6783C384.239 85.6783 382.44 77.9396 380.365 76.0049C378.289 74.0702 365.283 73.932 361.132 74.4848C356.981 75.0376 344.528 78.216 343.144 79.1833C341.761 80.1506 339.824 85.8165 339.824 85.8165H384.239V85.6783Z" fill="url(#paint33_linear)"/>
<path d="M407.899 102.261C409.559 74.4849 379.811 77.1105 379.811 77.1105C341.899 74.7613 324.188 85.6784 322.113 101.847C321.974 102.952 321.836 104.196 321.836 105.578C320.867 122.299 325.987 149.384 328.339 169.56C328.339 169.975 328.477 170.251 328.477 170.666C329.169 181.859 323.22 214.749 323.22 214.749C323.22 214.749 338.578 217.789 362.93 217.789C387.283 217.789 397.106 215.578 397.106 215.578C397.106 215.578 392.955 184.761 397.106 163.065C400.981 144.133 406.93 118.291 407.899 102.261Z" fill="url(#paint34_linear)"/>
<path d="M332.629 103.229C331.66 105.025 329.169 107.651 321.836 109.309C321.836 114.975 322.251 121.47 323.081 128.379L332.352 128.794C331.245 114.975 332.352 104.749 332.629 103.229Z" fill="#1DA29C"/>
<path d="M332.767 134.598C332.767 134.183 332.628 133.769 332.628 133.354C332.49 131.834 332.352 130.314 332.213 128.794L322.943 128.379C324.465 142.06 326.955 157.123 328.477 169.698C328.477 170.113 328.616 170.389 328.616 170.804C331.798 151.181 332.767 134.598 332.767 134.598Z" fill="url(#paint35_linear)"/>
<path d="M334.151 124.925C321.421 122.023 315.195 122.299 311.736 119.673C308.968 132.111 306.478 144.548 305.232 151.043C293.056 152.286 265.245 162.374 265.245 162.374L265.383 170.804C265.383 170.804 310.214 177.437 320.591 162.374C320.729 162.374 327.924 139.711 334.151 124.925Z" fill="#FBBE52"/>
<path d="M342.868 118.844L347.157 80.8415C347.157 80.8415 329.861 79.4596 322.113 85.8164C319.207 88.1656 312.842 103.781 309.245 119.535C312.704 122.161 322.251 126.583 334.981 129.485C338.44 123.266 341.346 118.568 342.868 118.844Z" fill="url(#paint36_linear)"/>
<path d="M265.383 162.374C254.453 161.131 247.534 161.545 245.321 164.586C243.107 167.626 242.277 170.942 242.277 170.942H269.811L265.383 162.374Z" fill="#FBBE52"/>
<path d="M353.937 258.832L326.818 386.244C326.541 387.626 327.648 389.008 329.031 389.008H331.245C332.214 389.008 333.044 388.455 333.459 387.487L376.491 264.359C376.906 263.116 376.214 261.734 374.83 261.319L356.704 257.035C355.459 256.759 354.214 257.588 353.937 258.832Z" fill="#A5A5E5"/>
<path d="M412.604 258.832L439.723 386.244C440 387.626 438.893 389.008 437.509 389.008H435.296C434.327 389.008 433.497 388.455 433.082 387.487L390.05 264.359C389.635 263.116 390.327 261.734 391.711 261.319L409.837 257.035C411.082 256.759 412.327 257.588 412.604 258.832Z" fill="#A5A5E5"/>
<path d="M273.962 252.06C272.302 249.297 274.793 245.842 277.975 246.533C285.308 248.191 297.761 250.678 309.107 250.678C320.868 250.678 333.321 247.085 339.962 244.874C342.868 243.907 344.805 241.143 344.667 237.965C343.698 214.611 342.315 118.43 390.881 118.43C447.887 118.43 439.447 240.867 439.447 240.867C439.447 240.867 437.51 275.415 353.937 275.415C296.377 275.415 279.082 261.043 273.962 252.06Z" fill="url(#paint37_linear)"/>
<path d="M355.459 258.832L382.579 386.244C382.855 387.626 381.749 389.008 380.365 389.008H378.151C377.182 389.008 376.352 388.455 375.937 387.487L332.906 264.359C332.491 263.116 333.182 261.734 334.566 261.319L352.692 257.035C353.937 256.759 355.182 257.588 355.459 258.832Z" fill="#B4B4ED"/>
<path d="M294.717 258.832L267.598 386.244C267.321 387.626 268.428 389.008 269.811 389.008H272.025C272.994 389.008 273.824 388.455 274.239 387.487L317.271 264.359C317.686 263.116 316.994 261.734 315.61 261.319L297.484 257.035C296.239 256.759 294.994 257.588 294.717 258.832Z" fill="#B4B4ED"/>
<path d="M227.729 131.813L199.418 127.472L195.254 154.657L223.565 158.998L227.729 131.813Z" fill="#FFDC8C"/>
<path d="M222.906 139.297L201.736 136.118L202.151 133.493L223.321 136.671L222.906 139.297Z" fill="url(#paint38_linear)"/>
<path d="M221.937 146.344L200.767 143.027L201.044 140.54L222.352 143.718L221.937 146.344Z" fill="url(#paint39_linear)"/>
<path d="M215.849 152.563L199.66 150.075L200.075 147.45L216.264 149.937L215.849 152.563Z" fill="url(#paint40_linear)"/>
</g>
<defs>
<linearGradient id="paint0_linear" x1="199.583" y1="233.356" x2="109.304" y2="233.356" gradientUnits="userSpaceOnUse">
<stop offset="0.0793651" stop-color="#512DA8"/>
<stop offset="0.5608" stop-color="#512DA8"/>
<stop offset="0.6727" stop-color="#5530AA"/>
<stop offset="0.7774" stop-color="#603BB1"/>
<stop offset="0.879" stop-color="#734DBC"/>
<stop offset="0.9247" stop-color="#7E57C2"/>
</linearGradient>
<linearGradient id="paint1_linear" x1="199.031" y1="318.192" x2="47.7339" y2="318.192" gradientUnits="userSpaceOnUse">
<stop offset="0.0793651" stop-color="#512DA8"/>
<stop offset="0.5608" stop-color="#512DA8"/>
<stop offset="0.6727" stop-color="#5530AA"/>
<stop offset="0.7774" stop-color="#603BB1"/>
<stop offset="0.879" stop-color="#734DBC"/>
<stop offset="0.9247" stop-color="#7E57C2"/>
</linearGradient>
<linearGradient id="paint2_linear" x1="452.764" y1="161.493" x2="499.141" y2="161.493" gradientUnits="userSpaceOnUse">
<stop offset="0.2169" stop-color="#C6B4ED"/>
<stop offset="0.4445" stop-color="#C3B0EC"/>
<stop offset="0.6564" stop-color="#B9A5E8"/>
<stop offset="0.8614" stop-color="#A892E2"/>
<stop offset="0.9153" stop-color="#A38CE0"/>
</linearGradient>
<linearGradient id="paint3_linear" x1="464.684" y1="161.493" x2="511.061" y2="161.493" gradientUnits="userSpaceOnUse">
<stop offset="0.2169" stop-color="#C6B4ED"/>
<stop offset="0.4445" stop-color="#C3B0EC"/>
<stop offset="0.6564" stop-color="#B9A5E8"/>
<stop offset="0.8614" stop-color="#A892E2"/>
<stop offset="0.9153" stop-color="#A38CE0"/>
</linearGradient>
<linearGradient id="paint4_linear" x1="94.7108" y1="161.493" x2="141.088" y2="161.493" gradientUnits="userSpaceOnUse">
<stop offset="0.2169" stop-color="#C6B4ED"/>
<stop offset="0.4445" stop-color="#C3B0EC"/>
<stop offset="0.6564" stop-color="#B9A5E8"/>
<stop offset="0.8614" stop-color="#A892E2"/>
<stop offset="0.9153" stop-color="#A38CE0"/>
</linearGradient>
<linearGradient id="paint5_linear" x1="108.319" y1="156.476" x2="153.008" y2="156.476" gradientUnits="userSpaceOnUse">
<stop offset="0.0793651" stop-color="#512DA8"/>
<stop offset="0.5608" stop-color="#512DA8"/>
<stop offset="0.6727" stop-color="#5530AA"/>
<stop offset="0.7774" stop-color="#603BB1"/>
<stop offset="0.879" stop-color="#734DBC"/>
<stop offset="0.9247" stop-color="#7E57C2"/>
</linearGradient>
<linearGradient id="paint6_linear" x1="106.63" y1="161.493" x2="153.007" y2="161.493" gradientUnits="userSpaceOnUse">
<stop offset="0.2169" stop-color="#C6B4ED"/>
<stop offset="0.4445" stop-color="#C3B0EC"/>
<stop offset="0.6564" stop-color="#B9A5E8"/>
<stop offset="0.8614" stop-color="#A892E2"/>
<stop offset="0.9153" stop-color="#A38CE0"/>
</linearGradient>
<linearGradient id="paint7_linear" x1="468.208" y1="142.534" x2="514.585" y2="142.534" gradientUnits="userSpaceOnUse">
<stop offset="0.2222" stop-color="#512DA8"/>
<stop offset="0.418" stop-color="#5632AB"/>
<stop offset="0.6588" stop-color="#6540B4"/>
<stop offset="0.9206" stop-color="#7E57C2"/>
</linearGradient>
<linearGradient id="paint8_linear" x1="480.127" y1="142.534" x2="526.504" y2="142.534" gradientUnits="userSpaceOnUse">
<stop offset="0.2222" stop-color="#512DA8"/>
<stop offset="0.418" stop-color="#5632AB"/>
<stop offset="0.6588" stop-color="#6540B4"/>
<stop offset="0.9206" stop-color="#7E57C2"/>
</linearGradient>
<linearGradient id="paint9_linear" x1="230.365" y1="169.286" x2="298.506" y2="169.286" gradientUnits="userSpaceOnUse">
<stop offset="0.0793651" stop-color="#512DA8"/>
<stop offset="0.5608" stop-color="#512DA8"/>
<stop offset="0.6727" stop-color="#5530AA"/>
<stop offset="0.7774" stop-color="#603BB1"/>
<stop offset="0.879" stop-color="#734DBC"/>
<stop offset="0.9247" stop-color="#7E57C2"/>
</linearGradient>
<linearGradient id="paint10_linear" x1="181.472" y1="100.512" x2="345.858" y2="100.512" gradientUnits="userSpaceOnUse">
<stop offset="0.0793651" stop-color="#512DA8"/>
<stop offset="0.5608" stop-color="#512DA8"/>
<stop offset="0.6727" stop-color="#5530AA"/>
<stop offset="0.7774" stop-color="#603BB1"/>
<stop offset="0.879" stop-color="#734DBC"/>
<stop offset="0.9247" stop-color="#7E57C2"/>
</linearGradient>
<linearGradient id="paint11_linear" x1="235.071" y1="169.286" x2="303.212" y2="169.286" gradientUnits="userSpaceOnUse">
<stop offset="0.0793651" stop-color="#512DA8"/>
<stop offset="0.5608" stop-color="#512DA8"/>
<stop offset="0.6727" stop-color="#5530AA"/>
<stop offset="0.7774" stop-color="#603BB1"/>
<stop offset="0.879" stop-color="#734DBC"/>
<stop offset="0.9247" stop-color="#7E57C2"/>
</linearGradient>
<linearGradient id="paint12_linear" x1="239.875" y1="162.224" x2="298.409" y2="162.224" gradientUnits="userSpaceOnUse">
<stop offset="0.0793651" stop-color="#512DA8"/>
<stop offset="0.5608" stop-color="#512DA8"/>
<stop offset="0.6727" stop-color="#5530AA"/>
<stop offset="0.7774" stop-color="#603BB1"/>
<stop offset="0.879" stop-color="#734DBC"/>
<stop offset="0.9247" stop-color="#7E57C2"/>
</linearGradient>
<linearGradient id="paint13_linear" x1="186.178" y1="87.8464" x2="350.564" y2="87.8464" gradientUnits="userSpaceOnUse">
<stop offset="0.2169" stop-color="#C6B4ED"/>
<stop offset="0.4445" stop-color="#C3B0EC"/>
<stop offset="0.6564" stop-color="#B9A5E8"/>
<stop offset="0.8614" stop-color="#A892E2"/>
<stop offset="0.9153" stop-color="#A38CE0"/>
</linearGradient>
<linearGradient id="paint14_linear" x1="192.029" y1="61.6654" x2="344.712" y2="61.6654" gradientUnits="userSpaceOnUse">
<stop stop-color="#E88306"/>
<stop offset="0.9133" stop-color="#F7D209"/>
<stop offset="1" stop-color="#F8DA09"/>
</linearGradient>
<linearGradient id="paint15_linear" x1="186.178" y1="140.648" x2="350.563" y2="140.648" gradientUnits="userSpaceOnUse">
<stop offset="0.0793651" stop-color="#512DA8"/>
<stop offset="0.5608" stop-color="#512DA8"/>
<stop offset="0.6727" stop-color="#5530AA"/>
<stop offset="0.7774" stop-color="#603BB1"/>
<stop offset="0.879" stop-color="#734DBC"/>
<stop offset="0.9247" stop-color="#7E57C2"/>
</linearGradient>
<linearGradient id="paint16_linear" x1="221.532" y1="118.574" x2="302.449" y2="38.9681" gradientUnits="userSpaceOnUse">
<stop offset="0.2169" stop-color="#C6B4ED"/>
<stop offset="0.4445" stop-color="#C3B0EC"/>
<stop offset="0.6564" stop-color="#B9A5E8"/>
<stop offset="0.8614" stop-color="#A892E2"/>
<stop offset="0.9153" stop-color="#A38CE0"/>
</linearGradient>
<linearGradient id="paint17_linear" x1="245.239" y1="142.671" x2="326.156" y2="63.066" gradientUnits="userSpaceOnUse">
<stop offset="0.2169" stop-color="#C6B4ED"/>
<stop offset="0.4445" stop-color="#C3B0EC"/>
<stop offset="0.6564" stop-color="#B9A5E8"/>
<stop offset="0.8614" stop-color="#A892E2"/>
<stop offset="0.9153" stop-color="#A38CE0"/>
</linearGradient>
<linearGradient id="paint18_linear" x1="261.424" y1="159.123" x2="342.341" y2="79.5173" gradientUnits="userSpaceOnUse">
<stop offset="0.2169" stop-color="#C6B4ED"/>
<stop offset="0.4445" stop-color="#C3B0EC"/>
<stop offset="0.6564" stop-color="#B9A5E8"/>
<stop offset="0.8614" stop-color="#A892E2"/>
<stop offset="0.9153" stop-color="#A38CE0"/>
</linearGradient>
<linearGradient id="paint19_linear" x1="230.419" y1="127.607" x2="311.336" y2="48.0015" gradientUnits="userSpaceOnUse">
<stop offset="0.2169" stop-color="#C6B4ED"/>
<stop offset="0.4445" stop-color="#C3B0EC"/>
<stop offset="0.6564" stop-color="#B9A5E8"/>
<stop offset="0.8614" stop-color="#A892E2"/>
<stop offset="0.9153" stop-color="#A38CE0"/>
</linearGradient>
<linearGradient id="paint20_linear" x1="225.096" y1="122.197" x2="306.013" y2="42.5912" gradientUnits="userSpaceOnUse">
<stop offset="0.2169" stop-color="#C6B4ED"/>
<stop offset="0.4445" stop-color="#C3B0EC"/>
<stop offset="0.6564" stop-color="#B9A5E8"/>
<stop offset="0.8614" stop-color="#A892E2"/>
<stop offset="0.9153" stop-color="#A38CE0"/>
</linearGradient>
<linearGradient id="paint21_linear" x1="219.774" y1="116.787" x2="300.691" y2="37.1809" gradientUnits="userSpaceOnUse">
<stop offset="0.2169" stop-color="#C6B4ED"/>
<stop offset="0.4445" stop-color="#C3B0EC"/>
<stop offset="0.6564" stop-color="#B9A5E8"/>
<stop offset="0.8614" stop-color="#A892E2"/>
<stop offset="0.9153" stop-color="#A38CE0"/>
</linearGradient>
<linearGradient id="paint22_linear" x1="214.451" y1="111.376" x2="295.368" y2="31.7704" gradientUnits="userSpaceOnUse">
<stop offset="0.2169" stop-color="#C6B4ED"/>
<stop offset="0.4445" stop-color="#C3B0EC"/>
<stop offset="0.6564" stop-color="#B9A5E8"/>
<stop offset="0.8614" stop-color="#A892E2"/>
<stop offset="0.9153" stop-color="#A38CE0"/>
</linearGradient>
<linearGradient id="paint23_linear" x1="195.87" y1="55.6704" x2="199.432" y2="55.6704" gradientUnits="userSpaceOnUse">
<stop offset="0.2222" stop-color="#512DA8"/>
<stop offset="0.418" stop-color="#5632AB"/>
<stop offset="0.6588" stop-color="#6540B4"/>
<stop offset="0.9206" stop-color="#7E57C2"/>
</linearGradient>
<linearGradient id="paint24_linear" x1="201.213" y1="55.6704" x2="204.774" y2="55.6704" gradientUnits="userSpaceOnUse">
<stop offset="0.2222" stop-color="#512DA8"/>
<stop offset="0.418" stop-color="#5632AB"/>
<stop offset="0.6588" stop-color="#6540B4"/>
<stop offset="0.9206" stop-color="#7E57C2"/>
</linearGradient>
<linearGradient id="paint25_linear" x1="206.555" y1="55.6704" x2="210.116" y2="55.6704" gradientUnits="userSpaceOnUse">
<stop offset="0.2222" stop-color="#512DA8"/>
<stop offset="0.418" stop-color="#5632AB"/>
<stop offset="0.6588" stop-color="#6540B4"/>
<stop offset="0.9206" stop-color="#7E57C2"/>
</linearGradient>
<linearGradient id="paint26_linear" x1="67.523" y1="179.802" x2="545.41" y2="179.802" gradientUnits="userSpaceOnUse">
<stop offset="0.0793651" stop-color="#512DA8"/>
<stop offset="0.5608" stop-color="#512DA8"/>
<stop offset="0.6727" stop-color="#5530AA"/>
<stop offset="0.7774" stop-color="#603BB1"/>
<stop offset="0.879" stop-color="#734DBC"/>
<stop offset="0.9247" stop-color="#7E57C2"/>
</linearGradient>
<linearGradient id="paint27_linear" x1="40.9731" y1="121.379" x2="199.6" y2="218.937" gradientUnits="userSpaceOnUse">
<stop offset="0.0793651" stop-color="#512DA8"/>
<stop offset="0.5608" stop-color="#512DA8"/>
<stop offset="0.6727" stop-color="#5530AA"/>
<stop offset="0.7774" stop-color="#603BB1"/>
<stop offset="0.879" stop-color="#734DBC"/>
<stop offset="0.9247" stop-color="#7E57C2"/>
</linearGradient>
<linearGradient id="paint28_linear" x1="245.987" y1="148.05" x2="130.824" y2="133.902" gradientUnits="userSpaceOnUse">
<stop stop-color="#E88306"/>
<stop offset="0.9133" stop-color="#F7D209"/>
<stop offset="1" stop-color="#F8DA09"/>
</linearGradient>
<linearGradient id="paint29_linear" x1="244.14" y1="163.079" x2="128.978" y2="148.931" gradientUnits="userSpaceOnUse">
<stop stop-color="#E88306"/>
<stop offset="0.9133" stop-color="#F7D209"/>
<stop offset="1" stop-color="#F8DA09"/>
</linearGradient>
<linearGradient id="paint30_linear" x1="224.271" y1="338.598" x2="457.328" y2="231.116" gradientUnits="userSpaceOnUse">
<stop offset="0.079365" stop-color="#7E57C2"/>
<stop offset="0.3412" stop-color="#6540B4"/>
<stop offset="0.582" stop-color="#5632AB"/>
<stop offset="0.7778" stop-color="#512DA8"/>
</linearGradient>
<linearGradient id="paint31_linear" x1="259.693" y1="290.159" x2="364.134" y2="290.159" gradientUnits="userSpaceOnUse">
<stop offset="0.079365" stop-color="#7E57C2"/>
<stop offset="0.3412" stop-color="#6540B4"/>
<stop offset="0.582" stop-color="#5632AB"/>
<stop offset="0.7778" stop-color="#512DA8"/>
</linearGradient>
<linearGradient id="paint32_linear" x1="385.347" y1="140.4" x2="412.694" y2="140.4" gradientUnits="userSpaceOnUse">
<stop offset="0.2169" stop-color="#C6B4ED"/>
<stop offset="0.4445" stop-color="#C3B0EC"/>
<stop offset="0.6564" stop-color="#B9A5E8"/>
<stop offset="0.8614" stop-color="#A892E2"/>
<stop offset="0.9153" stop-color="#A38CE0"/>
</linearGradient>
<linearGradient id="paint33_linear" x1="339.799" y1="79.8763" x2="384.297" y2="79.8763" gradientUnits="userSpaceOnUse">
<stop offset="0.2169" stop-color="#C6B4ED"/>
<stop offset="0.4445" stop-color="#C3B0EC"/>
<stop offset="0.6564" stop-color="#B9A5E8"/>
<stop offset="0.8614" stop-color="#A892E2"/>
<stop offset="0.9153" stop-color="#A38CE0"/>
</linearGradient>
<linearGradient id="paint34_linear" x1="321.742" y1="147.388" x2="408" y2="147.388" gradientUnits="userSpaceOnUse">
<stop offset="0.2169" stop-color="#C6B4ED"/>
<stop offset="0.4445" stop-color="#C3B0EC"/>
<stop offset="0.6564" stop-color="#B9A5E8"/>
<stop offset="0.8614" stop-color="#A892E2"/>
<stop offset="0.9153" stop-color="#A38CE0"/>
</linearGradient>
<linearGradient id="paint35_linear" x1="322.925" y1="149.548" x2="332.751" y2="149.548" gradientUnits="userSpaceOnUse">
<stop offset="0.2169" stop-color="#C6B4ED"/>
<stop offset="0.4445" stop-color="#C3B0EC"/>
<stop offset="0.6564" stop-color="#B9A5E8"/>
<stop offset="0.8614" stop-color="#A892E2"/>
<stop offset="0.9153" stop-color="#A38CE0"/>
</linearGradient>
<linearGradient id="paint36_linear" x1="400.458" y1="150.369" x2="286.798" y2="71.2011" gradientUnits="userSpaceOnUse">
<stop offset="0.2169" stop-color="#C6B4ED"/>
<stop offset="0.4445" stop-color="#C3B0EC"/>
<stop offset="0.6564" stop-color="#B9A5E8"/>
<stop offset="0.8614" stop-color="#A892E2"/>
<stop offset="0.9153" stop-color="#A38CE0"/>
</linearGradient>
<linearGradient id="paint37_linear" x1="380.397" y1="318.451" x2="332.466" y2="121.546" gradientUnits="userSpaceOnUse">
<stop stop-color="#E88306"/>
<stop offset="0.9133" stop-color="#F7D209"/>
<stop offset="1" stop-color="#F8DA09"/>
</linearGradient>
<linearGradient id="paint38_linear" x1="246.9" y1="140.619" x2="131.737" y2="126.471" gradientUnits="userSpaceOnUse">
<stop stop-color="#E88306"/>
<stop offset="0.9133" stop-color="#F7D209"/>
<stop offset="1" stop-color="#F8DA09"/>
</linearGradient>
<linearGradient id="paint39_linear" x1="246.038" y1="147.627" x2="130.876" y2="133.48" gradientUnits="userSpaceOnUse">
<stop stop-color="#E88306"/>
<stop offset="0.9133" stop-color="#F7D209"/>
<stop offset="1" stop-color="#F8DA09"/>
</linearGradient>
<linearGradient id="paint40_linear" x1="245.187" y1="154.561" x2="130.024" y2="140.413" gradientUnits="userSpaceOnUse">
<stop stop-color="#E88306"/>
<stop offset="0.9133" stop-color="#F7D209"/>
<stop offset="1" stop-color="#F8DA09"/>
</linearGradient>
<clipPath id="clip0">
<rect width="550" height="440" fill="white"/>
</clipPath>
</defs>
</svg>
