<svg width="25" height="18" fill="none" xmlns="http://www.w3.org/2000/svg"><path d="M23.5 3.507a2.786 2.786 0 00-.765-1.27 3.05 3.05 0 00-1.338-.742C19.519 1 11.995 1 11.995 1a76.622 76.622 0 00-9.39.47c-.502.14-.962.4-1.338.76-.37.356-.638.795-.778 1.276A29.09 29.09 0 000 9c-.012 1.841.15 3.68.488 5.494.137.48.404.916.775 1.27a3.1 3.1 0 001.34.742c1.904.494 9.39.494 9.39.494a76.721 76.721 0 009.403-.47 3.05 3.05 0 001.338-.742 2.78 2.78 0 00.765-1.27c.345-1.811.512-3.651.5-5.495a26.47 26.47 0 00-.5-5.517v.001zM9.604 12.424V5.577l6.26 3.424-6.26 3.423z" fill="#fff"/></svg>