<svg version="1.0" xmlns="http://www.w3.org/2000/svg" width="832" height="832" viewBox="0 0 624 624"><path d="M8 100.3v100.3h93.7l.1-50.1c0-27.5.1-51.1.1-52.5l.1-2.5h102.5l.3-47.8L205 0H8v100.3zm400.5-53.1c.1 26 .3 47.5.4 47.8 0 .3 23.1.5 51.1.5 28.1 0 51.1.3 51.1.7.1.5.3 23.7.4 51.8.1 28 .3 51.4.4 51.8.1 1 91.7 1 92.7 0 .5-.6 1-186.8.5-198.1C605 .1 599.6 0 506.7 0h-98.3l.1 47.2zM8.4 407.9c-.2.2-.4 45.4-.4 100.3 0 94.3.1 99.8 1.8 99.9.9.1 2.2 0 2.7-.1.6-.1 2-.2 3.3-.1 1.9.1 6.5.1 24 .1 1.5 0 10.7.1 20.5.2 9.7.1 18-.1 18.3-.5.3-.3 1.6-.3 2.8.1 1.1.4 6.4.6 11.6.5 5.2-.2 10.2-.3 11-.3h55.5c.6-.1 4.5.1 8.8.2 4.2.2 7.7-.1 7.7-.5s.8-.4 1.8 0c1.4.7 16.5.9 25.5.4 1.6-.1 1.7-2.9 1.5-47.8l-.3-47.7h-51.2c-51.1 0-51.3 0-51.4-2v-51.1c0-27-.2-49.7-.5-50.5-.3-1.3-6.3-1.5-46.5-1.5-25.3 0-46.3.2-46.5.4zm504.3.1c-1 .4-1.2 12.2-1.2 52.5v52l-51 .1c-28 .1-51.2.2-51.6.3-.3.1-.5 21.3-.5 47.1.1 35.1.4 47.3 1.3 47.8.6.4 3.8.6 7 .4 3.2-.1 6.3-.3 6.8-.3 10.5.4 38.7.3 39.1-.2.3-.3 1.6-.3 2.8.1 1.1.4 6.2.6 11.1.5 10.6-.3 9.2-.3 31.8-.1 9.7.1 18-.1 18.3-.5.3-.3 1.6-.3 2.8.1 1.1.4 6.2.6 11.1.5 11.1-.3 9.8-.3 28.8 0 8.8.1 16.1-.1 16.3-.5.3-.4 1.2-.4 2-.1 1.3.5 12.9.8 16.9.4 1.2-.1 1.2-198.7.1-199.8-.8-.8-90-1.1-91.9-.3z"/></svg>