<svg width="102" height="102" fill="none" xmlns="http://www.w3.org/2000/svg"><path d="M102 51c0 28.166-22.834 51-51 51S0 79.166 0 51 22.834 0 51 0s51 22.834 51 51zm-85.415 0c0 19.007 15.408 34.415 34.415 34.415 19.007 0 34.415-15.408 34.415-34.415 0-19.007-15.408-34.415-34.415-34.415-19.007 0-34.415 15.408-34.415 34.415z" fill="#519EF9"/><path d="M102 51a51 51 0 11-1.325-11.55l-16.154 3.756A34.415 34.415 0 1085.415 51H102z" fill="#E18181"/><path d="M102 51A51 51 0 1160.39.872l-3.053 16.301A34.415 34.415 0 1085.415 51H102z" fill="#8265F5"/><path d="M102 51a50.994 50.994 0 01-16.065 37.156 51.002 51.002 0 01-83.88-22.823A51 51 0 01.388 44.732l16.459 2.038A34.416 34.416 0 1085.416 51H102z" fill="#7EDD88"/><path d="M66.139 57.44c0 2.688-.976 5.04-2.928 7.056-1.92 1.984-4.672 3.296-8.256 3.936v5.328h-6.768v-5.088a32.476 32.476 0 01-6.912-1.104c-2.176-.608-3.984-1.36-5.424-2.256l3.648-8.256c1.6.928 3.392 1.68 5.376 2.256 1.984.544 3.888.816 5.712.816 1.568 0 2.688-.144 3.36-.432.672-.32 1.008-.784 1.008-1.392 0-.704-.448-1.232-1.344-1.584-.864-.352-2.304-.736-4.32-1.152-2.592-.544-4.752-1.12-6.48-1.728-1.728-.64-3.232-1.664-4.512-3.072-1.28-1.44-1.92-3.376-1.92-5.808 0-2.816 1.008-5.232 3.024-7.248 2.048-2.016 4.976-3.296 8.784-3.84V28.64h6.768v5.136c3.84.352 7.088 1.28 9.744 2.784l-3.408 8.208c-3.296-1.664-6.416-2.496-9.36-2.496-2.912 0-4.368.704-4.368 2.112 0 .672.432 1.184 1.296 1.536.864.32 2.288.672 4.272 1.056 2.56.48 4.72 1.04 6.48 1.68 1.76.608 3.28 1.616 4.56 3.024 1.312 1.408 1.968 3.328 1.968 5.76z" fill="#D5D5D5"/></svg>