<svg width="123" height="125" viewBox="0 0 123 125" fill="none" xmlns="http://www.w3.org/2000/svg">
<path d="M106.069 74.6038C104.104 75.958 101.548 76.1273 99.4142 75.0481C96.9637 73.6515 95.6328 70.3928 95.6328 65.9703V52.3642C95.6328 45.8256 93.0554 41.1915 88.7247 39.9218C81.4364 37.7846 75.986 46.7355 73.8946 50.1L60.9869 71.0276V45.487C60.839 39.6044 58.9377 36.0706 55.3041 35.0126C52.9169 34.3143 49.3256 34.5894 45.8399 39.9218L16.9824 86.3266C13.1375 78.984 11.1306 70.7949 11.1728 62.5C11.1728 34.5259 33.4814 11.7785 60.9869 11.7785C88.4923 11.7785 110.864 34.5259 110.864 62.5V62.6481C110.864 62.6481 110.864 62.7539 110.864 62.7962C111.139 68.1921 109.385 72.5089 106.069 74.6038ZM122.019 62.5V62.2249C121.786 28.1567 94.492 0.5 60.9869 0.5C27.4818 0.5 0.0185547 28.3048 0.0185547 62.5C0.0185547 96.6952 27.355 124.5 60.9869 124.5C76.4085 124.5 91.2386 118.575 102.435 107.953C104.696 105.815 104.822 102.26 102.731 99.9751C100.703 97.7321 97.2594 97.5628 94.999 99.5942L94.9779 99.6154C75.2255 118.385 44.0231 117.559 25.2847 97.7744C24.8199 97.2877 24.3763 96.801 23.9327 96.2932L49.896 54.459V73.7573C49.896 83.0256 53.4873 86.0304 56.4871 86.9191C59.487 87.8078 64.1134 87.1942 68.9301 79.3437L83.2954 56.0672C83.7391 55.3266 84.1616 54.6706 84.563 54.1205V65.9491C84.563 74.6249 88.0276 81.5444 94.1328 84.9724C99.7734 88.0195 106.618 87.7444 112.005 84.2529C118.702 79.8939 122.357 72.001 121.976 62.5H122.019Z" fill="white"/>
</svg>
