<svg width="51" height="44" viewBox="0 0 51 44" fill="none" xmlns="http://www.w3.org/2000/svg">
<path d="M30.9487 32.3223H28.2248C27.8259 32.3223 27.4951 32.6543 27.4951 33.0547C27.4951 33.4551 27.8259 33.7871 28.2248 33.7871H30.9487C31.3476 33.7871 31.6784 33.4551 31.6784 33.0547C31.6784 32.6445 31.3573 32.3223 30.9487 32.3223Z" fill="url(#paint0_linear)"/>
<path d="M47.0198 24.4804L43.0506 22.9375L41.0271 20.9062C40.9006 20.7793 40.7255 20.7011 40.5601 20.6914V19.0703C41.5135 18.0449 42.1945 16.7558 42.4669 15.3008C42.642 15.3105 42.8074 15.291 42.9825 15.2617C43.9553 15.0664 44.6558 14.1582 44.6558 13.1133V12.5761C44.6558 11.9707 44.4126 11.414 44.0137 11.0136C44.6558 7.49802 44.1304 4.62693 42.4766 2.71287C40.8714 0.857397 38.2933 -0.0312742 35.0148 0.144507C31.9893 0.310523 30.0339 1.70701 29.4112 2.22459C29.0707 2.26365 28.4968 2.38084 27.913 2.7324C27.1056 3.22068 26.1327 4.24607 26.1327 6.35544C26.1327 8.20115 26.4246 9.73435 26.6386 10.6133C25.9284 10.9648 25.4517 11.7168 25.4517 12.5761V13.1035C25.4517 14.1484 26.1522 15.0566 27.125 15.2519C27.2904 15.291 27.4655 15.3008 27.6406 15.291C27.913 16.7461 28.594 18.0449 29.5474 19.0605V20.6816C29.3723 20.6914 29.2069 20.7597 29.0805 20.8965L27.0569 22.9277L23.0683 24.4804C22.7278 24.6172 22.397 24.7832 22.0954 24.998C21.7646 25.2226 21.6771 25.6816 21.9008 26.0136C22.0468 26.2187 22.2705 26.3359 22.504 26.3359C22.6499 26.3359 22.7861 26.2969 22.9126 26.209C23.1266 26.0625 23.3504 25.9453 23.5936 25.8476L27.2807 24.4218L30.102 28.6699C30.4522 29.1972 31.0164 29.5293 31.6391 29.5976C31.7072 29.6074 31.7753 29.6074 31.8434 29.6074C32.2033 29.6074 32.5633 29.5097 32.8746 29.334L32.2714 43.1133C32.252 43.5136 32.5633 43.8554 32.9719 43.875C32.9816 43.875 32.9913 43.875 33.001 43.875C33.3902 43.875 33.7112 43.5722 33.7307 43.1718L34.2949 30.3886H35.8126L36.3768 43.1718C36.3963 43.5625 36.7173 43.875 37.1065 43.875C37.1162 43.875 37.1259 43.875 37.1357 43.875C37.5345 43.8554 37.8458 43.5136 37.8361 43.1133L37.2232 29.3242C37.5345 29.5 37.8848 29.5976 38.2544 29.5976C38.3225 29.5976 38.3906 29.5976 38.4587 29.5879C39.0814 29.5293 39.6456 29.1875 39.9958 28.6601L42.8171 24.4121L46.5042 25.8379C47.0198 26.0332 47.4673 26.3554 47.8175 26.7558L45.2979 29.2851C44.3834 30.2031 43.8872 31.414 43.8872 32.7129V43.123C43.8872 43.5234 44.218 43.8554 44.6169 43.8554C45.0157 43.8554 45.3465 43.5234 45.3465 43.123V32.7226C45.3465 31.8242 45.6967 30.9746 46.3291 30.3301L48.5472 28.1035C48.6347 28.4355 48.6737 28.7773 48.6639 29.1289L48.0997 43.1035C48.0802 43.5039 48.4013 43.8457 48.8001 43.8652C48.8099 43.8652 48.8196 43.8652 48.8293 43.8652C49.2184 43.8652 49.5395 43.5527 49.5589 43.1621L50.1232 29.1875C50.1913 27.1172 48.9558 25.2226 47.0198 24.4804ZM29.061 14.998C28.9345 14.2949 28.2827 13.7871 27.5823 13.8359C27.5239 13.8359 27.4655 13.8359 27.4169 13.8261C27.125 13.7676 26.911 13.4551 26.911 13.1133V12.5859C26.911 12.2441 27.1348 11.9414 27.4266 11.8926C27.6698 11.8535 27.9033 11.9414 28.0492 12.1367C28.1854 12.3125 28.3606 12.4394 28.5649 12.498C28.8664 12.5859 29.1972 12.5371 29.4501 12.3515C29.9074 12.0293 30.3063 11.6289 30.6468 11.1797C30.89 10.8574 30.8219 10.3984 30.5008 10.1543C30.1798 9.91013 29.7225 9.97849 29.4793 10.3008C29.3139 10.5254 29.1194 10.7304 28.9151 10.916C28.6816 10.7207 28.4092 10.5742 28.1271 10.4961C27.9422 9.77341 27.6017 8.23044 27.6017 6.36521C27.6017 5.24216 27.9422 4.45115 28.6232 4.02146C29.1486 3.67966 29.7128 3.6699 29.7128 3.6699C29.8977 3.6699 30.0825 3.59177 30.2187 3.46482C30.2382 3.44529 32.0282 1.77537 35.1024 1.60935C37.9139 1.4531 40.0834 2.16599 41.3773 3.6699C42.6809 5.18357 43.1187 7.50779 42.642 10.4082C42.4474 10.3984 42.2334 10.4179 42.0194 10.4472L41.3384 8.79685C41.2022 8.45505 40.8325 8.27927 40.4823 8.36716C40.4142 8.38669 33.6723 10.0957 30.8511 6.57029C30.5981 6.25779 30.1409 6.20896 29.8296 6.4531C29.5182 6.70701 29.4696 7.16599 29.7225 7.47849C32.6119 11.082 38.3323 10.3008 40.239 9.9199L40.7644 11.1992C40.9881 11.7461 41.5719 12.0488 42.1458 11.9121C42.3793 11.8535 42.6031 11.8535 42.6906 11.873C42.9825 11.9316 43.2062 12.2246 43.2062 12.5566V13.0937C43.2062 13.4453 42.9922 13.748 42.7004 13.8066C42.642 13.8164 42.5836 13.8261 42.535 13.8164C41.8345 13.7676 41.1827 14.2754 41.0562 14.9785C40.5212 17.8789 38.0112 19.9883 35.0635 19.9883C32.106 20.0078 29.5863 17.8984 29.061 14.998ZM32.3006 27.9472C32.1158 28.1328 31.9017 28.1426 31.785 28.1328C31.678 28.123 31.4639 28.0742 31.318 27.8496L28.4773 23.5722L29.6155 22.4297L33.9739 26.2578L32.3006 27.9472ZM34.3533 28.914L34.402 27.9082L35.0538 27.2539L35.7056 27.9082L35.7542 28.914H34.3533ZM35.044 25.2519L30.997 21.6972V20.291C32.1741 21.0429 33.5653 21.4726 35.044 21.4726C36.5228 21.4726 37.9139 21.0429 39.0911 20.291V21.6972L35.044 25.2519ZM38.7798 27.8496C38.6338 28.0644 38.4295 28.123 38.3128 28.1328C38.1961 28.1426 37.982 28.1328 37.7972 27.9472L36.1142 26.2578L40.4725 22.4297L41.6108 23.5722L38.7798 27.8496Z" fill="url(#paint1_linear)"/>
<path d="M23.4383 28.3184L19.8777 26.7559L17.932 24.8027C17.8055 24.6758 17.6304 24.5977 17.465 24.5879V23.4355C19.1286 22.3418 20.3447 20.5938 20.7436 18.5137C20.9381 18.5234 21.1327 18.5039 21.3175 18.4551C22.2515 18.2305 22.9325 17.332 22.9325 16.3164V15.7793C22.9325 15.0371 22.5628 14.373 21.9985 13.9824C22.1639 13.3184 22.2515 12.6348 22.2515 11.9512C22.2515 8.91406 20.6171 6.24805 18.1558 4.70508C18.1266 2.17578 15.9766 0.115234 13.3304 0.115234C10.6843 0.115234 8.53429 2.16602 8.50511 4.70508C6.0438 6.23828 4.40941 8.91406 4.40941 11.9512C4.40941 12.6348 4.49697 13.3086 4.66235 13.9727C4.0981 14.3633 3.72842 15.0371 3.72842 15.7891V16.3164C3.72842 17.332 4.40941 18.2305 5.34335 18.4551C5.53792 18.5039 5.72276 18.5234 5.91733 18.5137C6.30647 20.5938 7.52253 22.3418 9.19583 23.4355V24.5879C9.02072 24.5977 8.85533 24.666 8.72886 24.8027L6.78316 26.7559L3.22254 28.3184C1.38385 29.1094 0.226159 30.9746 0.303987 32.9668L0.732041 43.1719C0.751498 43.5625 1.07254 43.875 1.46168 43.875C1.47141 43.875 1.48114 43.875 1.49086 43.875C1.88973 43.8555 2.21077 43.5137 2.19132 43.1133L1.76326 32.8984C1.73408 32.2441 1.90919 31.5996 2.23023 31.0527L4.14674 33.3574C4.74991 34.0898 5.08068 35.0078 5.08068 35.9551V43.123C5.08068 43.5234 5.41145 43.8555 5.81031 43.8555C6.20918 43.8555 6.53995 43.5234 6.53995 43.123V35.9648C6.53995 34.6758 6.08271 33.416 5.26552 32.4297L3.23226 29.9785C3.40738 29.8613 3.59222 29.7539 3.78679 29.666L6.89018 28.3086L9.08882 31.8828C9.30284 32.2344 9.6628 32.4785 10.0714 32.5371C10.1492 32.5469 10.2173 32.5566 10.2951 32.5566C10.6259 32.5566 10.9567 32.4395 11.2096 32.2148L12.6008 31.0234V43.1426C12.6008 43.543 12.9316 43.875 13.3304 43.875C13.7293 43.875 14.0601 43.543 14.0601 43.1426V31.0234L15.4513 32.2148C15.7042 32.4395 16.035 32.5566 16.3657 32.5566C16.4436 32.5566 16.5117 32.5469 16.5895 32.5371C16.9981 32.4688 17.358 32.2344 17.5721 31.8828L19.7707 28.3086L22.8741 29.666C23.0687 29.7539 23.2535 29.8613 23.4286 29.9785L21.3954 32.4297C20.5684 33.4258 20.1209 34.6758 20.1209 35.9648V43.1328C20.1209 43.5332 20.4517 43.8652 20.8506 43.8652C21.2494 43.8652 21.5802 43.5332 21.5802 43.1328V35.9648C21.5802 35.0176 21.911 34.0898 22.5141 33.3672L24.4307 31.0625C24.7517 31.6094 24.9171 32.2539 24.8976 32.9082L24.4696 43.1133C24.4501 43.5137 24.7614 43.8555 25.17 43.875C25.1797 43.875 25.1895 43.875 25.1992 43.875C25.5883 43.875 25.9094 43.5625 25.9288 43.1719L26.3569 32.9668C26.4153 30.9746 25.2576 29.1094 23.4383 28.3184ZM13.3207 1.59961C14.8773 1.59961 16.1809 2.5957 16.57 3.94336C15.5583 3.5625 14.4687 3.34766 13.3207 3.34766C12.1728 3.34766 11.0832 3.55273 10.0714 3.94336C10.4605 2.58594 11.7642 1.59961 13.3207 1.59961ZM7.32796 18.2109C7.20149 17.5078 6.54968 17 5.84923 17.0488C5.79086 17.0488 5.72276 17.0488 5.65466 17.0293C5.37253 16.9609 5.16823 16.6582 5.16823 16.3164V15.7891C5.16823 15.4473 5.39199 15.1445 5.68384 15.0957C5.92706 15.0566 6.16054 15.1445 6.30647 15.3398C6.44267 15.5156 6.61778 15.6426 6.82208 15.7012C7.12366 15.7891 7.45443 15.7402 7.70737 15.5547C8.15488 15.2324 8.55375 14.8516 8.88452 14.4023C9.12773 14.0801 9.05963 13.6211 8.73859 13.377C8.41755 13.1328 7.96031 13.2012 7.7171 13.5234C7.55171 13.748 7.36687 13.9434 7.16257 14.1289C6.85126 13.8652 6.47185 13.6895 6.06326 13.6406C5.92706 13.0938 5.84923 12.5273 5.84923 11.9609C5.84923 8.01562 9.19583 4.8125 13.311 4.8125C17.4261 4.8125 20.7727 8.01562 20.7727 11.9609C20.7727 12.5273 20.7046 13.0938 20.5587 13.6406C20.3641 13.6602 20.1696 13.6895 19.9945 13.7383L19.4497 13.2891C19.1773 13.0645 18.827 12.9473 18.4768 12.9668C17.4067 13.0352 11.9101 13.1719 9.09855 9.79297C8.83588 9.48047 8.37864 9.44141 8.06733 9.70508C7.75601 9.96875 7.7171 10.4277 7.97977 10.7402C9.37094 12.4102 11.4042 13.543 14.0406 14.0996C16.0544 14.5293 17.8445 14.4805 18.5449 14.4414L19.401 15.1445C19.6345 15.3398 19.9653 15.3691 20.2279 15.2129C20.3544 15.1445 20.763 15.0762 20.9479 15.1152C21.2397 15.1738 21.4635 15.4668 21.4635 15.7988V16.3359C21.4635 16.6777 21.2494 16.9805 20.977 17.0488C20.9089 17.0684 20.8506 17.0684 20.7825 17.0684C20.082 17.0195 19.4302 17.5273 19.3037 18.2305C18.7687 21.1309 16.2587 23.2402 13.311 23.2402C10.3827 23.2207 7.86303 21.1113 7.32796 18.2109ZM10.2951 31.0625L8.09651 27.4883L9.22502 26.3555L12.2506 29.3926L10.2951 31.0625ZM13.3207 28.3965L10.6356 25.7012V24.1875C11.4723 24.5098 12.377 24.6855 13.3207 24.6855C14.2644 24.6855 15.1691 24.5098 16.0058 24.1875V25.7012L13.3207 28.3965ZM16.3463 31.0625L14.3908 29.3926L17.4164 26.3555L18.5449 27.4883L16.3463 31.0625Z" fill="url(#paint2_linear)"/>
<path d="M10.5871 35.5547H8.54409C8.14522 35.5547 7.81445 35.8867 7.81445 36.2871C7.81445 36.6875 8.14522 37.0195 8.54409 37.0195H10.5968C10.9957 37.0195 11.3264 36.6875 11.3264 36.2871C11.3167 35.877 10.9957 35.5547 10.5871 35.5547Z" fill="url(#paint3_linear)"/>
<defs>
<linearGradient id="paint0_linear" x1="28.0288" y1="31.8584" x2="31.6732" y2="32.5902" gradientUnits="userSpaceOnUse">
<stop stop-color="#E19A9D"/>
<stop offset="0.525942" stop-color="#FFD1D8"/>
<stop offset="1" stop-color="#E19A9D"/>
</linearGradient>
<linearGradient id="paint1_linear" x1="25.3932" y1="-13.7322" x2="51.0337" y2="-12.5641" gradientUnits="userSpaceOnUse">
<stop stop-color="#E19A9D"/>
<stop offset="0.525942" stop-color="#FFD1D8"/>
<stop offset="1" stop-color="#E19A9D"/>
</linearGradient>
<linearGradient id="paint2_linear" x1="3.6245" y1="-13.7421" x2="27.2011" y2="-12.7549" gradientUnits="userSpaceOnUse">
<stop stop-color="#E19A9D"/>
<stop offset="0.525942" stop-color="#FFD1D8"/>
<stop offset="1" stop-color="#E19A9D"/>
</linearGradient>
<linearGradient id="paint3_linear" x1="8.26246" y1="35.0908" x2="11.3575" y2="35.6126" gradientUnits="userSpaceOnUse">
<stop stop-color="#E19A9D"/>
<stop offset="0.525942" stop-color="#FFD1D8"/>
<stop offset="1" stop-color="#E19A9D"/>
</linearGradient>
</defs>
</svg>
