<svg width="38" height="30" viewBox="0 0 38 30" fill="none" xmlns="http://www.w3.org/2000/svg">
<g clip-path="url(#clip0)">
<path d="M37.2262 29.5118V29.5877H37.2971C37.3128 29.5877 37.3263 29.584 37.336 29.5781C37.3449 29.5722 37.3502 29.5619 37.3502 29.5494C37.3502 29.5369 37.3449 29.5273 37.336 29.5214C37.3263 29.5148 37.3128 29.5118 37.2971 29.5118H37.2262ZM37.2979 29.4588C37.3345 29.4588 37.3628 29.4669 37.383 29.4831C37.4032 29.4993 37.4129 29.5214 37.4129 29.5494C37.4129 29.573 37.4054 29.5921 37.389 29.6076C37.3733 29.6223 37.3509 29.6319 37.321 29.6356L37.4151 29.7424H37.3419L37.2546 29.6363H37.2262V29.7424H37.165V29.4588H37.2979ZM37.2792 29.8404C37.3128 29.8404 37.3442 29.8338 37.3725 29.8213C37.4017 29.8087 37.4271 29.7918 37.4487 29.7704C37.4704 29.7491 37.4875 29.724 37.5002 29.6945C37.5122 29.6658 37.5189 29.6349 37.5189 29.6017C37.5189 29.5685 37.5122 29.5376 37.5002 29.5089C37.4875 29.4801 37.4704 29.4543 37.4487 29.433C37.4271 29.4116 37.4017 29.3947 37.3725 29.3821C37.3442 29.3703 37.3128 29.3644 37.2792 29.3644C37.2456 29.3644 37.2135 29.3703 37.1844 29.3821C37.1545 29.3947 37.1284 29.4116 37.1067 29.433C37.0851 29.4543 37.0679 29.4801 37.056 29.5089C37.0433 29.5376 37.0373 29.5685 37.0373 29.6017C37.0373 29.6349 37.0433 29.6658 37.056 29.6945C37.0679 29.724 37.0851 29.7491 37.1067 29.7704C37.1284 29.7918 37.1545 29.8087 37.1844 29.8213C37.2135 29.8338 37.2456 29.8404 37.2792 29.8404ZM37.2792 29.2959C37.3233 29.2959 37.3636 29.304 37.4024 29.3202C37.4405 29.3357 37.4733 29.3578 37.5025 29.3858C37.5308 29.4131 37.5532 29.4455 37.5697 29.4831C37.5861 29.5199 37.5943 29.5597 37.5943 29.6017C37.5943 29.6437 37.5861 29.6835 37.5697 29.7203C37.5532 29.7572 37.5308 29.7896 37.5025 29.8176C37.4733 29.8448 37.4405 29.8669 37.4024 29.8832C37.3636 29.8994 37.3233 29.9075 37.2792 29.9075C37.2344 29.9075 37.1934 29.8994 37.1545 29.8832C37.1157 29.8669 37.0821 29.8448 37.0537 29.8176C37.0254 29.7896 37.003 29.7572 36.9865 29.7203C36.9701 29.6835 36.9619 29.6437 36.9619 29.6017C36.9619 29.5597 36.9701 29.5199 36.9865 29.4831C37.003 29.4455 37.0254 29.4131 37.0537 29.3858C37.0821 29.3578 37.1157 29.3357 37.1545 29.3202C37.1934 29.304 37.2344 29.2959 37.2792 29.2959ZM8.18983 28.2032C8.18983 27.6624 8.54895 27.2181 9.1358 27.2181C9.69652 27.2181 10.0751 27.6433 10.0751 28.2032C10.0751 28.7632 9.69652 29.1883 9.1358 29.1883C8.54895 29.1883 8.18983 28.7441 8.18983 28.2032ZM10.7142 28.2032V26.6648H10.0362V27.0384C9.82121 26.7613 9.49493 26.5874 9.05144 26.5874C8.17713 26.5874 7.49173 27.2638 7.49173 28.2032C7.49173 29.1434 8.17713 29.8191 9.05144 29.8191C9.49493 29.8191 9.82121 29.6452 10.0362 29.3681V29.7417H10.7142V28.2032ZM33.6237 28.2032C33.6237 27.6624 33.9829 27.2181 34.5697 27.2181C35.1312 27.2181 35.509 27.6433 35.509 28.2032C35.509 28.7632 35.1312 29.1883 34.5697 29.1883C33.9829 29.1883 33.6237 28.7441 33.6237 28.2032ZM36.1488 28.2032V25.4292H35.4701V27.0384C35.2551 26.7613 34.9288 26.5874 34.4853 26.5874C33.611 26.5874 32.9256 27.2638 32.9256 28.2032C32.9256 29.1434 33.611 29.8191 34.4853 29.8191C34.9288 29.8191 35.2551 29.6452 35.4701 29.3681V29.7417H36.1488V28.2032ZM19.1294 27.1865C19.5662 27.1865 19.8469 27.4569 19.9186 27.9328H18.3007C18.3731 27.4885 18.6464 27.1865 19.1294 27.1865ZM19.1429 26.5874C18.229 26.5874 17.5899 27.2439 17.5899 28.2032C17.5899 29.1817 18.2551 29.8191 19.1884 29.8191C19.658 29.8191 20.0881 29.7034 20.4666 29.388L20.1344 28.8922C19.8731 29.0977 19.5401 29.2141 19.2272 29.2141C18.7905 29.2141 18.3925 29.0145 18.2947 28.4604H20.61C20.6167 28.3771 20.6234 28.2931 20.6234 28.2032C20.6167 27.2439 20.0164 26.5874 19.1429 26.5874ZM27.3289 28.2032C27.3289 27.6624 27.688 27.2181 28.2749 27.2181C28.8356 27.2181 29.2141 27.6433 29.2141 28.2032C29.2141 28.7632 28.8356 29.1883 28.2749 29.1883C27.688 29.1883 27.3289 28.7441 27.3289 28.2032ZM29.8533 28.2032V26.6648H29.1753V27.0384C28.9595 26.7613 28.634 26.5874 28.1905 26.5874C27.3162 26.5874 26.6308 27.2638 26.6308 28.2032C26.6308 29.1434 27.3162 29.8191 28.1905 29.8191C28.634 29.8191 28.9595 29.6452 29.1753 29.3681V29.7417H29.8533V28.2032ZM23.5002 28.2032C23.5002 29.1368 24.1587 29.8191 25.1637 29.8191C25.6333 29.8191 25.9461 29.7159 26.2851 29.4521L25.9596 28.9113C25.705 29.0918 25.4377 29.1883 25.1435 29.1883C24.6022 29.1817 24.2043 28.7956 24.2043 28.2032C24.2043 27.6109 24.6022 27.2248 25.1435 27.2181C25.4377 27.2181 25.705 27.3147 25.9596 27.4952L26.2851 26.9544C25.9461 26.6906 25.6333 26.5874 25.1637 26.5874C24.1587 26.5874 23.5002 27.2697 23.5002 28.2032ZM32.241 26.5874C31.8497 26.5874 31.5951 26.7679 31.4189 27.0384V26.6648H30.747V29.7417H31.4257V28.0168C31.4257 27.5077 31.6474 27.2248 32.0909 27.2248C32.2283 27.2248 32.3716 27.2439 32.515 27.3021L32.724 26.6714C32.574 26.6132 32.3783 26.5874 32.241 26.5874ZM14.0673 26.9094C13.741 26.6972 13.2915 26.5874 12.7958 26.5874C12.0058 26.5874 11.4974 26.961 11.4974 27.5725C11.4974 28.0743 11.8759 28.3838 12.5733 28.4803L12.8936 28.5252C13.2654 28.5768 13.4409 28.6733 13.4409 28.8472C13.4409 29.0852 13.193 29.2208 12.7301 29.2208C12.2604 29.2208 11.9215 29.0727 11.693 28.8988L11.3735 29.4197C11.7453 29.6901 12.2149 29.8191 12.7234 29.8191C13.6238 29.8191 14.1457 29.4005 14.1457 28.8148C14.1457 28.274 13.735 27.991 13.0564 27.8945L12.7368 27.8488C12.4434 27.8105 12.2082 27.7531 12.2082 27.5467C12.2082 27.3213 12.4299 27.1865 12.8017 27.1865C13.1997 27.1865 13.585 27.3345 13.7739 27.4502L14.0673 26.9094ZM22.8148 26.5874C22.4236 26.5874 22.169 26.7679 21.9935 27.0384V26.6648H21.3215V29.7417H21.9995V28.0168C21.9995 27.5077 22.2212 27.2248 22.6647 27.2248C22.8021 27.2248 22.9454 27.2439 23.0888 27.3021L23.2979 26.6714C23.1478 26.6132 22.9522 26.5874 22.8148 26.5874ZM17.0292 26.6648H15.9204V25.7313H15.235V26.6648H14.6026V27.2763H15.235V28.68C15.235 29.3939 15.5157 29.8191 16.3176 29.8191C16.6118 29.8191 16.9508 29.7292 17.1658 29.5811L16.9702 29.0078C16.7678 29.1235 16.5461 29.1817 16.3699 29.1817C16.0309 29.1817 15.9204 28.9754 15.9204 28.6667V27.2763H17.0292V26.6648ZM6.89219 29.7417V27.8105C6.89219 27.0833 6.42256 26.5941 5.66548 26.5874C5.26752 26.5808 4.85688 26.7031 4.56943 27.1349C4.3544 26.7937 4.01543 26.5874 3.53908 26.5874C3.20608 26.5874 2.88055 26.6839 2.62595 27.0442V26.6648H1.94727V29.7417H2.63192V28.036C2.63192 27.5018 2.93207 27.2181 3.39572 27.2181C3.84594 27.2181 4.07366 27.5077 4.07366 28.0294V29.7417H4.75907V28.036C4.75907 27.5018 5.0719 27.2181 5.52212 27.2181C5.98503 27.2181 6.20678 27.5077 6.20678 28.0294V29.7417H6.89219Z" fill="#231F20"/>
<path d="M37.6446 19.5089V19.0595H37.5258L37.3885 19.3682L37.2518 19.0595H37.1324V19.5089H37.2167V19.17L37.3452 19.4625H37.4325L37.5609 19.1692V19.5089H37.6446ZM36.8912 19.5089V19.1361H37.0435V19.0602H36.6553V19.1361H36.8076V19.5089H36.8912Z" fill="#F79410"/>
<path d="M24.1454 21.4424H13.8706V3.21973H24.1454V21.4424Z" fill="#FF5F00"/>
<path d="M14.5286 12.3295C14.5286 8.63295 16.2825 5.34017 19.0136 3.21818C17.0164 1.66646 14.4958 0.740302 11.7564 0.740302C5.27117 0.740302 0.0141602 5.92888 0.0141602 12.3295C0.0141602 18.7301 5.27117 23.9187 11.7564 23.9187C14.4958 23.9187 17.0164 22.9925 19.0136 21.4408C16.2825 19.3188 14.5286 16.0261 14.5286 12.3295Z" fill="#EB001B"/>
<path d="M38.0027 12.3295C38.0027 18.7301 32.7456 23.9187 26.2604 23.9187C23.521 23.9187 21.0004 22.9925 19.0024 21.4408C21.7344 19.3188 23.4882 16.0261 23.4882 12.3295C23.4882 8.63295 21.7344 5.34017 19.0024 3.21818C21.0004 1.66647 23.521 0.740304 26.2604 0.740304C32.7456 0.740304 38.0027 5.92888 38.0027 12.3295Z" fill="#F79E1B"/>
</g>
<defs>
<clipPath id="clip0">
<rect width="38" height="30" fill="white"/>
</clipPath>
</defs>
</svg>
