<svg width="50" height="50" viewBox="0 0 50 50" fill="none" xmlns="http://www.w3.org/2000/svg">
<path d="M19.1699 45C18.7109 45 18.3398 45.3711 18.3398 45.8301C18.3398 46.2891 18.7109 46.6602 19.1699 46.6602H20.8398C21.2988 46.6602 21.6699 46.2891 21.6699 45.8301C21.6699 45.3711 21.2988 45 20.8398 45H19.1699Z" fill="url(#paint0_linear)"/>
<path d="M42.5 15H35V12.5C35 12.041 34.6289 11.6699 34.1699 11.6699C33.7109 11.6699 33.3398 12.041 33.3398 12.5V15H20.8398C19.4629 15 18.3398 16.123 18.3398 17.5V32.5C18.3398 33.877 19.4629 35 20.8398 35H33.3398V40.8301H30.8398C30.3809 40.8301 30.0098 41.2012 30.0098 41.6602C30.0098 42.1191 30.3809 42.4902 30.8398 42.4902H33.3398V47.4902C33.3398 47.9492 32.9687 48.3203 32.5098 48.3203H7.50977C7.05078 48.3203 6.67969 47.9492 6.67969 47.4902V42.4902H25.8496C26.3086 42.4902 26.6797 42.1191 26.6797 41.6602C26.6797 41.2012 26.3086 40.8301 25.8496 40.8301H6.66992V8.33008H9.16992C9.62891 8.33008 10 7.95898 10 7.5C10 7.04102 9.62891 6.66992 9.16992 6.66992H6.66992V2.5C6.66992 2.04102 7.04102 1.66992 7.5 1.66992H32.5C32.959 1.66992 33.3301 2.04102 33.3301 2.5V6.66992H14.1699C13.7109 6.66992 13.3398 7.04102 13.3398 7.5C13.3398 7.95898 13.7109 8.33008 14.1699 8.33008H34.1699C34.6289 8.33008 35 7.95898 35 7.5V2.5C35 1.12305 33.877 0 32.5 0H7.5C6.12305 0 5 1.12305 5 2.5V47.5C5 48.877 6.12305 50 7.5 50H32.5C33.877 50 35 48.877 35 47.5V35H42.5C43.877 35 45 33.877 45 32.5V17.5C45 16.123 43.877 15 42.5 15ZM43.3301 32.5C43.3301 32.959 42.959 33.3301 42.5 33.3301H20.8301C20.3711 33.3301 20 32.959 20 32.5V17.5C20 17.041 20.3711 16.6699 20.8301 16.6699H42.5C42.959 16.6699 43.3301 17.041 43.3301 17.5V32.5Z" fill="url(#paint1_linear)"/>
<path d="M40.9666 19.1797C40.7517 19.1406 40.5271 19.1992 40.3416 19.3262L31.6697 25.6348L22.9978 19.3262C22.7537 19.1504 22.4412 19.1211 22.1677 19.2383C21.8943 19.3555 21.7087 19.6191 21.6794 19.9121C21.6501 20.2051 21.7771 20.4981 22.0212 20.6738L31.1912 27.3438C31.2205 27.3633 31.2498 27.3731 31.2791 27.3828C31.3084 27.4024 31.3376 27.4121 31.3669 27.4219C31.4646 27.4707 31.5818 27.5 31.6892 27.5C31.8064 27.5 31.9138 27.4707 32.0115 27.4219C32.0408 27.4121 32.0701 27.3926 32.0994 27.3828C32.1287 27.3731 32.158 27.3535 32.1873 27.3438L41.3572 20.6738C41.7283 20.4004 41.8064 19.8828 41.5427 19.5117C41.3767 19.3262 41.1814 19.209 40.9666 19.1797Z" fill="url(#paint2_linear)"/>
<path d="M25.6638 26.4942L21.9138 30.2441C21.699 30.4492 21.6111 30.7617 21.6892 31.0547C21.7674 31.3477 21.992 31.5723 22.2849 31.6504C22.5779 31.7285 22.8904 31.6406 23.0955 31.4258L26.8455 27.6758C27.158 27.3535 27.158 26.8262 26.8357 26.5039C26.5037 26.1817 25.9861 26.1817 25.6638 26.4942Z" fill="url(#paint3_linear)"/>
<path d="M37.676 26.4942C37.3538 26.1817 36.8264 26.1817 36.5042 26.5039C36.1819 26.8262 36.1819 27.3438 36.4944 27.6758L40.2444 31.4258C40.5667 31.7383 41.094 31.7383 41.4163 31.416C41.7385 31.0938 41.7385 30.5762 41.426 30.2442L37.676 26.4942Z" fill="url(#paint4_linear)"/>
<defs>
<linearGradient id="paint0_linear" x1="18.7646" y1="44.4743" x2="21.7239" y2="44.8917" gradientUnits="userSpaceOnUse">
<stop stop-color="#E19A9D"/>
<stop offset="0.525942" stop-color="#FFD1D8"/>
<stop offset="1" stop-color="#E19A9D"/>
</linearGradient>
<linearGradient id="paint1_linear" x1="10.1026" y1="-15.8334" x2="46.2417" y2="-13.8005" gradientUnits="userSpaceOnUse">
<stop stop-color="#E19A9D"/>
<stop offset="0.525942" stop-color="#FFD1D8"/>
<stop offset="1" stop-color="#E19A9D"/>
</linearGradient>
<linearGradient id="paint2_linear" x1="24.2295" y1="16.5292" x2="41.8732" y2="19.5104" gradientUnits="userSpaceOnUse">
<stop stop-color="#E19A9D"/>
<stop offset="0.525942" stop-color="#FFD1D8"/>
<stop offset="1" stop-color="#E19A9D"/>
</linearGradient>
<linearGradient id="paint3_linear" x1="22.3522" y1="24.5454" x2="27.2381" y2="24.889" gradientUnits="userSpaceOnUse">
<stop stop-color="#E19A9D"/>
<stop offset="0.525942" stop-color="#FFD1D8"/>
<stop offset="1" stop-color="#E19A9D"/>
</linearGradient>
<linearGradient id="paint4_linear" x1="36.9498" y1="24.5516" x2="41.8181" y2="24.8939" gradientUnits="userSpaceOnUse">
<stop stop-color="#E19A9D"/>
<stop offset="0.525942" stop-color="#FFD1D8"/>
<stop offset="1" stop-color="#E19A9D"/>
</linearGradient>
</defs>
</svg>
