<?xml version="1.0" encoding="utf-8"?><svg viewBox="0 0 67 61" xmlns="http://www.w3.org/2000/svg" xmlns:xlink="http://www.w3.org/1999/xlink"><style>:root>svg{display:none}:root>svg:target{display:block}</style><svg fill="inherit" viewBox="0 0 29 34" id="copy" xmlns="http://www.w3.org/2000/svg"><path d="M4.125 33.09c-.894 0-1.66-.318-2.296-.954a3.134 3.134 0 01-.954-2.296V7.09h3.25v22.75H22v3.25H4.125zm6.5-6.5a3.128 3.128 0 01-2.294-.953 3.131 3.131 0 01-.956-2.297V3.84c0-.893.319-1.659.956-2.296A3.128 3.128 0 0110.625.59H25.25c.894 0 1.66.318 2.296.954.636.637.954 1.403.954 2.296v19.5c0 .894-.318 1.66-.954 2.297a3.134 3.134 0 01-2.296.953H10.625zm0-3.25H25.25V3.84H10.625v19.5zm0 0V3.84v19.5z"/></svg><svg fill="none" viewBox="0 0 67 53" id="mail" xmlns="http://www.w3.org/2000/svg"><path d="M60.3 0H6.7C3.015 0 .033 2.981.033 6.625L0 46.375C0 50.019 3.015 53 6.7 53h53.6c3.685 0 6.7-2.981 6.7-6.625V6.625C67 2.981 63.985 0 60.3 0zm0 46.375H6.7V13.25l26.8 16.563L60.3 13.25v33.125zM33.5 23.187L6.7 6.625h53.6L33.5 23.188z" fill="#fff"/></svg><svg fill="none" viewBox="0 0 66 61" id="telegram" xmlns="http://www.w3.org/2000/svg"><path d="M64.32 1.187a4.862 4.862 0 00-2.37-1.12 4.813 4.813 0 00-2.597.28L3.1 22.897a4.838 4.838 0 00-2.379 2.004 4.996 4.996 0 00-.7 3.066 5.028 5.028 0 001.225 2.887 4.853 4.853 0 002.676 1.561l14.292 2.893v18.226c0 .986.286 1.95.823 2.77.537.82 1.3 1.458 2.194 1.834.59.242 1.221.369 1.858.373a4.73 4.73 0 001.866-.377 4.81 4.81 0 001.578-1.085l7.923-8.056 11.975 10.762a4.82 4.82 0 003.2 1.244 4.246 4.246 0 001.524-.249 4.834 4.834 0 002.1-1.362 4.98 4.98 0 001.16-2.246L65.874 6.07c.2-.88.161-1.801-.112-2.662a4.985 4.985 0 00-1.442-2.22zM20.074 30.611l-15.176-3.08 42.54-17.075-27.364 20.155zm3.016 22.923V38.791l7.68 6.905-7.68 7.838zm26.573 2.489l-25.11-22.55L60.724 6.816 49.663 56.023z" fill="#fff"/></svg><svg fill="none" viewBox="0 0 43 43" id="twitter" xmlns="http://www.w3.org/2000/svg"><g clip-path="url(#dclip0_355_11)"><path d="M25.595 18.225L41.605 0h-3.792L23.905 15.821 12.805 0H0l16.789 23.927L0 43.036h3.793L18.47 26.325l11.725 16.71H43M5.161 2.802h5.827L37.81 40.373h-5.828" fill="#fff"/></g><defs><clipPath id="dclip0_355_11"><path fill="#fff" d="M0 0h43v43H0z"/></clipPath></defs></svg></svg>