<?xml version="1.0" encoding="utf-8"?><svg viewBox="0 0 72 61" xmlns="http://www.w3.org/2000/svg" xmlns:xlink="http://www.w3.org/1999/xlink"><style>:root>svg{display:none}:root>svg:target{display:block}</style><svg fill="none" viewBox="0 0 29 34" id="copy" xmlns="http://www.w3.org/2000/svg"><path d="M4.125 33.09c-.894 0-1.66-.318-2.296-.954a3.134 3.134 0 01-.954-2.296V7.09h3.25v22.75H22v3.25H4.125zm6.5-6.5a3.128 3.128 0 01-2.294-.953 3.131 3.131 0 01-.956-2.297V3.84c0-.893.319-1.659.956-2.296A3.128 3.128 0 0110.625.59H25.25c.894 0 1.66.318 2.296.954.636.637.954 1.403.954 2.296v19.5c0 .894-.318 1.66-.954 2.297a3.134 3.134 0 01-2.296.953H10.625zm0-3.25H25.25V3.84H10.625v19.5zm0 0V3.84v19.5z" fill="#fff"/></svg><svg fill="none" viewBox="0 0 67 53" id="mail" xmlns="http://www.w3.org/2000/svg"><path d="M60.3 0H6.7C3.015 0 .033 2.981.033 6.625L0 46.375C0 50.019 3.015 53 6.7 53h53.6c3.685 0 6.7-2.981 6.7-6.625V6.625C67 2.981 63.985 0 60.3 0zm0 46.375H6.7V13.25l26.8 16.563L60.3 13.25v33.125zM33.5 23.187L6.7 6.625h53.6L33.5 23.188z" fill="#fff"/></svg><svg fill="none" viewBox="0 0 66 61" id="telegram" xmlns="http://www.w3.org/2000/svg"><path d="M64.32 1.187a4.862 4.862 0 00-2.37-1.12 4.813 4.813 0 00-2.597.28L3.1 22.897a4.838 4.838 0 00-2.379 2.004 4.996 4.996 0 00-.7 3.066 5.028 5.028 0 001.225 2.887 4.853 4.853 0 002.676 1.561l14.292 2.893v18.226c0 .986.286 1.95.823 2.77.537.82 1.3 1.458 2.194 1.834.59.242 1.221.369 1.858.373a4.73 4.73 0 001.866-.377 4.81 4.81 0 001.578-1.085l7.923-8.056 11.975 10.762a4.82 4.82 0 003.2 1.244 4.246 4.246 0 001.524-.249 4.834 4.834 0 002.1-1.362 4.98 4.98 0 001.16-2.246L65.874 6.07c.2-.88.161-1.801-.112-2.662a4.985 4.985 0 00-1.442-2.22zM20.074 30.611l-15.176-3.08 42.54-17.075-27.364 20.155zm3.016 22.923V38.791l7.68 6.905-7.68 7.838zm26.573 2.489l-25.11-22.55L60.724 6.816 49.663 56.023z" fill="#fff"/></svg><svg fill="none" viewBox="0 0 72 60" id="twitter" xmlns="http://www.w3.org/2000/svg"><path fill-rule="evenodd" clip-rule="evenodd" d="M32.76 16.45C32.76 7.364 40.112 0 49.181 0c5.325 0 9.573 2.52 12.42 6.181a27.523 27.523 0 008.539-3.309 13.852 13.852 0 01-6.029 7.628l.01.015A27.587 27.587 0 0072 8.343l-.005.01a27.946 27.946 0 01-6.554 6.907c.136.932.21 1.863.21 2.788C65.65 37.443 50.899 60 23.769 60a41.596 41.596 0 01-22.561-6.628 2.628 2.628 0 01-1.102-2.953c.106-.362.288-.697.534-.982a2.364 2.364 0 012.3-1.13c4.811.567 9.611-.022 13.85-1.874a16.208 16.208 0 01-5.492-3.983 16.24 16.24 0 01-3.384-5.885 2.371 2.371 0 01.54-2.357 16.147 16.147 0 01-5.487-12.151v-.179a2.37 2.37 0 011.917-2.325 16.16 16.16 0 01-1.807-7.449c0-2.462.016-5.565 1.744-8.364a2.365 2.365 0 011.696-1.094 2.622 2.622 0 012.825.847A36.558 36.558 0 0032.765 16.68v-.232h-.005zm-8.991 38.29a36.372 36.372 0 01-11.811-1.962 27.906 27.906 0 0012.551-5.482 2.368 2.368 0 00-1.418-4.23 11.401 11.401 0 01-9.001-4.67 16.293 16.293 0 002.92-.505 2.364 2.364 0 001.752-2.363 2.37 2.37 0 00-1.9-2.245 11.442 11.442 0 01-5.369-2.702A11.47 11.47 0 018.23 25.53c1.05.252 2.148.405 3.272.442a2.36 2.36 0 002.329-1.642 2.37 2.37 0 00-.938-2.693 11.467 11.467 0 01-5.094-9.532c0-.884.016-1.667.069-2.383A41.72 41.72 0 0035.606 22.22a2.623 2.623 0 002.685-2.007c.096-.394.099-.806.01-1.202a11.207 11.207 0 012.117-9.51 11.173 11.173 0 018.758-4.24c6.48 0 11.218 6.012 11.218 12.793 0 17.128-13.003 36.686-36.63 36.686h.005z" fill="#fff"/></svg></svg>