<svg width="674" height="674" fill="none" xmlns="http://www.w3.org/2000/svg"><g opacity=".55" filter="url(#filter0_f_56_627)"><circle cx="337" cy="337" r="161" fill="#B1FA16" fill-opacity=".51"/></g><mask id="a" fill="#fff"><path fill-rule="evenodd" clip-rule="evenodd" d="M532.062 451.827h-116.25v32.45h38.233a4.274 4.274 0 014.265 4.264v1.545c0 2.337-1.92 4.263-4.265 4.263H302.906c-2.345 0-4.264-1.926-4.264-4.263v-1.545a4.273 4.273 0 014.264-4.264h38.234v-32.45H224.888c-7.146 0-12.938-5.796-12.938-12.944V236.191c0-7.147 5.792-12.938 12.938-12.938h307.174c7.148 0 12.938 5.791 12.938 12.938v202.692c0 7.148-5.79 12.944-12.938 12.944z"/></mask><path fill-rule="evenodd" clip-rule="evenodd" d="M532.062 451.827h-116.25v32.45h38.233a4.274 4.274 0 014.265 4.264v1.545c0 2.337-1.92 4.263-4.265 4.263H302.906c-2.345 0-4.264-1.926-4.264-4.263v-1.545a4.273 4.273 0 014.264-4.264h38.234v-32.45H224.888c-7.146 0-12.938-5.796-12.938-12.944V236.191c0-7.147 5.792-12.938 12.938-12.938h307.174c7.148 0 12.938 5.791 12.938 12.938v202.692c0 7.148-5.79 12.944-12.938 12.944z" fill="#000"/><path d="M415.812 451.827v-3h-3v3h3zm0 32.45h-3v3h3v-3zm-74.672 0v3h3v-3h-3zm0-32.45h3v-3h-3v3zm74.672 3h116.25v-6h-116.25v6zm3 29.45v-32.45h-6v32.45h6zm-3 3h38.233v-6h-38.233v6zm38.233 0c.692 0 1.265.574 1.265 1.264h6c0-4.012-3.267-7.264-7.265-7.264v6zm1.265 1.264v1.545h6v-1.545h-6zm0 1.545c0 .682-.579 1.263-1.265 1.263v6c4.004 0 7.265-3.272 7.265-7.263h-6zm-1.265 1.263H302.906v6h151.139v-6zm-151.139 0c-.685 0-1.264-.58-1.264-1.263h-6c0 3.991 3.26 7.263 7.264 7.263v-6zm-1.264-1.263v-1.545h-6v1.545h6zm0-1.545c0-.691.573-1.264 1.264-1.264v-6c-3.998 0-7.264 3.253-7.264 7.264h6zm1.264-1.264h38.234v-6h-38.234v6zm35.234-35.45v32.45h6v-32.45h-6zm-113.252 3H341.14v-6H224.888v6zm-15.938-15.944c0 8.803 7.133 15.944 15.938 15.944v-6c-5.488 0-9.938-4.451-9.938-9.944h-6zm0-202.692v202.692h6V236.191h-6zm15.938-15.938c-8.803 0-15.938 7.135-15.938 15.938h6a9.937 9.937 0 019.938-9.938v-6zm307.174 0H224.888v6h307.174v-6zM548 236.191c0-8.803-7.133-15.938-15.938-15.938v6a9.936 9.936 0 019.938 9.938h6zm0 202.692V236.191h-6v202.692h6zm-15.938 15.944c8.807 0 15.938-7.141 15.938-15.944h-6c0 5.493-4.449 9.944-9.938 9.944v6z" fill="#B1FA16" mask="url(#a)"/><path d="M516.229 433.192H241.37c-5.734 0-10.659-5.233-10.659-12.035V252.609c0-6.804 4.925-12.034 10.659-12.034h274.859c5.74 0 10.661 5.23 10.661 12.034v168.548c0 6.803-4.921 12.035-10.661 12.035z" stroke="#B1FA16" stroke-width="3"/><mask id="b" fill="#fff"><path d="M405.572 451.952h-54.981l-.558-.719.558-.719h54.981l.557.719-.557.719z"/></mask><path d="M405.572 451.952h-54.981l-.558-.719.558-.719h54.981l.557.719-.557.719z" fill="#727272"/><path d="M405.572 451.952v3h1.47l.901-1.162-2.371-1.838zm-54.981 0l-2.371 1.838.901 1.162h1.47v-3zm-.558-.719l-2.371-1.838-1.425 1.838 1.425 1.838 2.371-1.838zm.558-.719v-3h-1.47l-.901 1.162 2.371 1.838zm54.981 0l2.371-1.838-.901-1.162h-1.47v3zm.557.719l2.371 1.838 1.425-1.838-1.425-1.838-2.371 1.838zm-.557-2.281h-54.981v6h54.981v-6zm-52.61 1.162l-.558-.719-4.742 3.676.558.719 4.742-3.676zm-.558 2.957l.558-.719-4.742-3.676-.558.719 4.742 3.676zm-1.813.443h54.981v-6h-54.981v6zm52.61-1.162l.557.719 4.742-3.676-.557-.719-4.742 3.676zm.557-2.957l-.557.719 4.742 3.676.557-.719-4.742-3.676z" fill="#B1FA16" mask="url(#b)"/><mask id="c" fill="#fff"><path d="M405.572 485.034h-53.543l-.558-.719.558-.719h53.543l.557.719-.557.719z"/></mask><path d="M405.572 485.034h-53.543l-.558-.719.558-.719h53.543l.557.719-.557.719z" fill="#727272"/><path d="M405.572 485.034v3h1.47l.9-1.161-2.37-1.839zm-53.543 0l-2.371 1.839.901 1.161h1.47v-3zm-.558-.719l-2.37-1.838-1.426 1.838 1.426 1.838 2.37-1.838zm.558-.719v-3h-1.47l-.901 1.162 2.371 1.838zm53.543 0l2.37-1.838-.9-1.162h-1.47v3zm.557.719l2.371 1.838 1.425-1.838-1.425-1.838-2.371 1.838zm-.557-2.281h-53.543v6h53.543v-6zm-51.172 1.162l-.558-.719-4.741 3.676.557.72 4.742-3.677zm-.558 2.958l.558-.72-4.742-3.676-.557.719 4.741 3.677zm-1.813.442h53.543v-6h-53.543v6zm51.172-1.162l.557.72 4.742-3.677-.558-.719-4.741 3.676zm.557-2.957l-.557.719 4.741 3.677.558-.72-4.742-3.676z" fill="#B1FA16" mask="url(#c)"/><g filter="url(#filter1_f_56_627)"><circle cx="297.166" cy="334.083" r="21.381" stroke="#B1FA16"/></g><circle cx="297.166" cy="334.083" r="28.796" stroke="#B1FA16" stroke-width="4"/><path d="M379.874 319.497a.857.857 0 00-.858.861v23.816l-12.148-24.205c-.293-.576-1.247-.576-1.54 0l-12.141 24.205v-23.816a.857.857 0 00-.858-.861.858.858 0 00-.864.861v27.448c0 .403.279.75.662.841.383.097.788-.104.969-.452l13.005-25.92 13.006 25.92a.858.858 0 00.767.472c.069 0 .132-.007.202-.02a.864.864 0 00.662-.841v-27.448a.858.858 0 00-.864-.861zm28.374 27.927l-6.879-13.71a.053.053 0 01-.014-.028l-6.886-13.717c-.293-.576-1.248-.576-1.54 0l-6.88 13.717a.053.053 0 01-.014.028l-6.879 13.71a.856.856 0 00.383 1.153.861.861 0 001.158-.382l6.648-13.259h12.713l6.65 13.259a.87.87 0 001.157.382.854.854 0 00.383-1.153zm-20.038-14.203l5.492-10.946 5.492 10.953H388.21v-.007zm46.913 13.731h-26.157l13.152-26.212a.865.865 0 00-.39-1.153.859.859 0 00-1.15.382l-13.78 27.455a.867.867 0 00.035.834.866.866 0 00.732.409h27.552a.858.858 0 10.006-1.715zm14.263 0h-19.511l13.152-26.212a.865.865 0 00-.39-1.153.859.859 0 00-1.15.382l-13.779 27.455a.864.864 0 00.034.834.863.863 0 00.732.409h20.905a.859.859 0 10.007-1.715zm28.323.472l-6.879-13.71a.053.053 0 01-.014-.028l-6.886-13.717c-.293-.576-1.248-.576-1.541 0l-6.879 13.717a.053.053 0 01-.014.028l-6.879 13.71a.856.856 0 00.383 1.153.86.86 0 001.157-.382l6.649-13.259h12.713l6.649 13.259a.871.871 0 001.157.382.855.855 0 00.384-1.153zm-20.038-14.203l5.492-10.946 5.492 10.953h-10.984v-.007zm27.21.861l6.698-13.342a.865.865 0 00-.391-1.153.859.859 0 00-1.15.382l-6.119 12.196-6.12-12.196a.858.858 0 00-1.149-.382.864.864 0 00-.391 1.153l6.698 13.342-6.698 13.342a.864.864 0 00.391 1.153.851.851 0 001.149-.382l6.12-12.196 6.119 12.196a.863.863 0 001.157.382.863.863 0 00.384-1.153l-6.698-13.342z" fill="#fff"/><defs><filter id="filter0_f_56_627" x="0" y="0" width="674" height="674" filterUnits="userSpaceOnUse" color-interpolation-filters="sRGB"><feFlood flood-opacity="0" result="BackgroundImageFix"/><feBlend in="SourceGraphic" in2="BackgroundImageFix" result="shape"/><feGaussianBlur stdDeviation="88" result="effect1_foregroundBlur_56_627"/></filter><filter id="filter1_f_56_627" x="271.285" y="308.202" width="51.763" height="51.763" filterUnits="userSpaceOnUse" color-interpolation-filters="sRGB"><feFlood flood-opacity="0" result="BackgroundImageFix"/><feBlend in="SourceGraphic" in2="BackgroundImageFix" result="shape"/><feGaussianBlur stdDeviation="2" result="effect1_foregroundBlur_56_627"/></filter></defs></svg>