<svg width="787" height="714" fill="none" xmlns="http://www.w3.org/2000/svg"><g opacity=".55" filter="url(#filter0_f_87_4)"><circle cx="430" cy="357" r="181" fill="#B1FA16" fill-opacity=".51"/></g><path d="M547.256 485.2s.356-.5 1.077-1.451c.182-.238.384-.503.607-.798.207-.307.389-.672.613-1.053.438-.768.982-1.639 1.371-2.742.213-.54.468-1.101.684-1.713l.545-1.976c.223-.685.34-1.427.456-2.203.102-.776.312-1.573.336-2.427.367-3.383.142-7.334-.534-11.694-1.352-8.748-5.062-19.051-10.742-30.248-5.669-11.221-13.474-23.291-23.066-35.872-9.597-12.585-21.132-25.583-34.396-38.636-13.276-13.036-28.309-26.132-45.157-38.544-8.43-6.195-17.321-12.204-26.694-17.864-9.363-5.674-19.237-10.961-29.649-15.545-10.414-4.527-21.402-8.473-32.99-10.342-5.776-.89-11.735-1.321-17.593-.433-2.923.449-5.795 1.246-8.499 2.461-2.66 1.299-5.109 3.029-7.132 5.216-1.944 2.259-3.393 4.883-4.385 7.675-.896 2.828-1.373 5.769-1.484 8.727-.223 5.922.884 11.796 2.424 17.434 3.173 11.304 8.344 21.775 14.028 31.61 5.74 9.825 12.119 19.035 18.821 27.694 6.691 8.669 13.675 16.82 20.789 24.492 14.251 15.328 28.975 28.774 43.438 40.482 14.478 11.691 28.705 21.674 42.301 29.776 13.59 8.095 26.47 14.479 38.263 18.833 11.769 4.369 22.426 6.88 31.27 7.227 4.409.176 8.359-.051 11.679-.799.844-.121 1.611-.423 2.371-.611.759-.204 1.482-.405 2.137-.704l1.902-.765c.582-.285 1.112-.601 1.624-.875 1.049-.513 1.853-1.155 2.566-1.675.354-.263.695-.487.978-.727l.722-.695a66.629 66.629 0 011.319-1.235s-.421.443-1.27 1.288c-.213.211-.452.447-.714.71-.28.242-.619.473-.971.744-.709.533-1.512 1.186-2.561 1.711-.513.28-1.043.604-1.627.895l-1.906.787c-.658.305-1.383.512-2.144.723-.763.196-1.535.502-2.382.63-3.337.774-7.305 1.024-11.735.868-8.885-.306-19.584-2.789-31.394-7.132-11.834-4.33-24.751-10.694-38.38-18.776-13.632-8.088-27.896-18.061-42.411-29.75-14.498-11.704-29.257-25.152-43.544-40.494-7.132-7.678-14.134-15.838-20.844-24.524-6.722-8.672-13.123-17.901-18.885-27.756-5.707-9.867-10.904-20.373-14.105-31.768-1.554-5.685-2.676-11.616-2.453-17.645.114-3.01.598-6.017 1.521-8.921 1.017-2.871 2.513-5.583 4.524-7.916 2.09-2.263 4.62-4.05 7.356-5.383 2.778-1.248 5.714-2.06 8.689-2.519 5.964-.9 11.981-.461 17.804.438 11.681 1.886 22.708 5.854 33.156 10.4 10.444 4.604 20.34 9.91 29.718 15.601 9.391 5.679 18.294 11.705 26.733 17.917 16.865 12.446 31.901 25.578 45.178 38.649 13.266 13.089 24.798 26.123 34.384 38.749 9.582 12.619 17.373 24.729 23.023 35.993 5.66 11.24 9.344 21.588 10.661 30.381.659 4.384.864 8.355.475 11.759-.031.854-.249 1.657-.356 2.438-.123.779-.245 1.524-.474 2.213l-.565 1.984c-.223.613-.484 1.177-.705 1.718-.402 1.104-.959 1.975-1.408 2.74-.229.38-.42.743-.629 1.048l-.624.792a75.715 75.715 0 01-1.135 1.408z" fill="#000"/><path d="M547.256 485.2s.356-.5 1.077-1.451c.182-.238.384-.503.607-.798.207-.307.389-.672.613-1.053.438-.768.982-1.639 1.371-2.742.213-.54.468-1.101.684-1.713l.545-1.976c.223-.685.34-1.427.456-2.203.102-.776.312-1.573.336-2.427.367-3.383.142-7.334-.534-11.694-1.352-8.748-5.062-19.051-10.742-30.248-5.669-11.221-13.474-23.291-23.066-35.872-9.597-12.585-21.132-25.583-34.396-38.636-13.276-13.036-28.309-26.132-45.157-38.544-8.43-6.195-17.321-12.204-26.694-17.864-9.363-5.674-19.237-10.961-29.649-15.545-10.414-4.527-21.402-8.473-32.99-10.342-5.776-.89-11.735-1.321-17.593-.433-2.923.449-5.795 1.246-8.499 2.461-2.66 1.299-5.109 3.029-7.132 5.216-1.944 2.259-3.393 4.883-4.385 7.675-.896 2.828-1.373 5.769-1.484 8.727-.223 5.922.884 11.795 2.424 17.434 3.173 11.304 8.344 21.775 14.028 31.61 5.74 9.825 12.119 19.035 18.821 27.694 6.691 8.669 13.675 16.82 20.789 24.492 14.251 15.328 28.975 28.774 43.438 40.482 14.478 11.692 28.705 21.674 42.301 29.776 13.59 8.095 26.47 14.479 38.263 18.833 11.769 4.369 22.426 6.88 31.27 7.227 4.409.176 8.359-.051 11.679-.799.844-.121 1.611-.423 2.371-.611.759-.204 1.482-.405 2.137-.704l1.902-.765c.582-.285 1.112-.601 1.624-.875 1.049-.513 1.853-1.155 2.566-1.675.354-.263.695-.487.978-.727l.722-.695a66.629 66.629 0 011.319-1.235zm0 0s-.421.443-1.27 1.288c-.213.211-.452.447-.714.71-.28.242-.619.473-.971.744-.709.533-1.512 1.186-2.561 1.711-.513.28-1.043.604-1.627.895l-1.906.787c-.658.305-1.383.512-2.144.723-.763.196-1.535.502-2.382.63-3.337.774-7.305 1.024-11.735.868-8.885-.306-19.584-2.789-31.394-7.132-11.834-4.33-24.751-10.694-38.38-18.776-13.632-8.088-27.896-18.061-42.411-29.75-14.498-11.704-29.257-25.152-43.544-40.494-7.132-7.678-14.134-15.838-20.844-24.524-6.722-8.672-13.123-17.901-18.885-27.756-5.707-9.867-10.904-20.373-14.105-31.768-1.554-5.685-2.676-11.616-2.453-17.645.114-3.01.598-6.017 1.521-8.921 1.017-2.871 2.513-5.583 4.524-7.916 2.09-2.263 4.62-4.05 7.356-5.383 2.778-1.248 5.714-2.06 8.689-2.519 5.964-.9 11.981-.461 17.804.438 11.681 1.886 22.708 5.854 33.156 10.4 10.444 4.604 20.34 9.91 29.718 15.601 9.391 5.679 18.294 11.705 26.733 17.917 16.865 12.446 31.901 25.578 45.178 38.649 13.266 13.089 24.798 26.123 34.384 38.749 9.582 12.619 17.373 24.729 23.023 35.993 5.66 11.24 9.344 21.588 10.661 30.381.659 4.384.864 8.355.475 11.759-.031.854-.249 1.657-.356 2.438-.123.779-.245 1.524-.474 2.213l-.565 1.984c-.223.613-.484 1.177-.705 1.718-.402 1.104-.959 1.975-1.408 2.74-.229.38-.42.743-.629 1.048l-.624.792a75.715 75.715 0 01-1.135 1.408z" stroke="#000" stroke-width="3" stroke-miterlimit="10"/><path d="M589.939 382.171s-.067-.611-.163-1.8c-.021-.299-.048-.632-.076-1-.052-.365-.157-.762-.246-1.194-.185-.864-.358-1.877-.801-2.957-.2-.545-.384-1.134-.629-1.734l-.911-1.839c-.288-.657-.696-1.289-1.124-1.947-.443-.646-.816-1.381-1.365-2.034-1.98-2.77-4.777-5.567-8.184-8.371-6.832-5.629-16.458-10.848-28.151-15.423-11.7-4.6-25.56-8.41-41.092-11.414-15.537-3.004-32.8-5.024-51.386-5.936-18.586-.891-38.52-.659-59.355 1.294-10.415.988-21.049 2.423-31.812 4.439-10.764 1.999-21.653 4.624-32.476 8.135-10.784 3.553-21.609 7.924-31.503 14.242-4.901 3.18-9.634 6.826-13.416 11.388-1.881 2.28-3.494 4.787-4.704 7.495-1.121 2.74-1.796 5.661-1.85 8.64.051 2.979.718 5.903 1.837 8.645 1.213 2.707 2.816 5.22 4.701 7.5 3.776 4.57 8.512 8.215 13.413 11.398 9.895 6.324 20.723 10.694 31.511 14.25 10.824 3.512 21.715 6.139 32.48 8.139 10.765 2.016 21.403 3.451 31.819 4.44 20.837 1.953 40.775 2.185 59.361 1.295 18.588-.914 35.85-2.935 51.388-5.939 15.532-3.004 29.392-6.815 41.091-11.415 11.692-4.576 21.316-9.794 28.147-15.422 3.406-2.804 6.204-5.603 8.183-8.372.549-.652.922-1.387 1.363-2.034.43-.657.836-1.289 1.126-1.946l.909-1.839c.245-.6.429-1.189.631-1.733.442-1.082.614-2.095.799-2.958.089-.433.194-.828.246-1.193.028-.368.055-.701.076-1 .096-1.189.163-1.8.163-1.8s-.02.611-.091 1.807l-.061 1.005c-.046.368-.146.765-.228 1.201-.175.87-.339 1.891-.772 2.982-.197.549-.376 1.145-.619 1.75-.284.59-.584 1.208-.899 1.856-.286.666-.692 1.304-1.117 1.968-.44.654-.812 1.396-1.359 2.055-1.974 2.799-4.77 5.628-8.18 8.459-6.834 5.685-16.47 10.956-28.174 15.576-11.715 4.645-25.59 8.496-41.14 11.536-15.558 3.04-32.842 5.091-51.454 6.03-18.612.918-38.576.706-59.449-1.233-10.434-.981-21.092-2.411-31.88-4.424-10.79-1.997-21.709-4.625-32.571-8.143-10.825-3.565-21.697-7.945-31.672-14.317-4.942-3.209-9.729-6.888-13.575-11.536-1.92-2.321-3.559-4.889-4.805-7.669-1.15-2.819-1.841-5.839-1.893-8.919.055-3.08.753-6.097 1.908-8.915 1.241-2.78 2.892-5.341 4.808-7.662 3.849-4.643 8.633-8.32 13.576-11.526 9.973-6.368 20.842-10.746 31.667-14.309 10.858-3.518 21.774-6.143 32.562-8.141 10.787-2.012 21.443-3.442 31.875-4.423 20.871-1.939 40.832-2.149 59.443-1.233 18.61.938 35.893 2.989 51.45 6.029 15.552 3.04 29.428 6.891 41.143 11.536 11.705 4.619 21.341 9.889 28.179 15.575 3.409 2.832 6.205 5.66 8.181 8.458.547.659.918 1.403 1.359 2.056.425.664.83 1.303 1.118 1.968l.898 1.856c.242.606.423 1.202.618 1.751.435 1.092.599 2.113.774 2.983.082.436.181.833.228 1.201l.061 1.007c.071 1.194.091 1.805.091 1.805z" fill="#000"/><path d="M589.939 382.171s-.067-.611-.163-1.8c-.021-.299-.048-.632-.076-1-.052-.365-.157-.762-.246-1.194-.185-.864-.358-1.877-.801-2.957-.2-.545-.384-1.134-.629-1.734l-.911-1.839c-.288-.657-.696-1.289-1.124-1.947-.443-.646-.816-1.381-1.365-2.034-1.98-2.77-4.777-5.567-8.184-8.371-6.832-5.629-16.458-10.848-28.151-15.423-11.7-4.6-25.56-8.41-41.092-11.414-15.537-3.004-32.8-5.024-51.386-5.936-18.586-.891-38.52-.659-59.355 1.294-10.415.988-21.049 2.423-31.812 4.439-10.764 1.999-21.653 4.624-32.476 8.135-10.784 3.553-21.609 7.924-31.503 14.242-4.901 3.18-9.634 6.826-13.416 11.388-1.881 2.28-3.494 4.787-4.704 7.495-1.121 2.74-1.796 5.661-1.85 8.64.051 2.979.718 5.903 1.837 8.645 1.213 2.707 2.816 5.22 4.701 7.5 3.776 4.57 8.512 8.215 13.413 11.398 9.895 6.324 20.723 10.694 31.511 14.25 10.824 3.512 21.715 6.139 32.48 8.139 10.765 2.016 21.403 3.451 31.819 4.44 20.837 1.953 40.775 2.185 59.361 1.295 18.588-.914 35.85-2.935 51.388-5.939 15.532-3.004 29.392-6.815 41.091-11.415 11.692-4.576 21.316-9.794 28.147-15.422 3.406-2.804 6.204-5.603 8.184-8.372.548-.652.921-1.387 1.362-2.034.43-.657.836-1.289 1.126-1.946l.909-1.839c.245-.6.429-1.189.631-1.733.442-1.082.614-2.095.799-2.958.089-.433.194-.828.246-1.193.028-.368.055-.701.076-1 .096-1.189.163-1.8.163-1.8zm0 0s-.02.611-.091 1.807l-.061 1.005c-.046.368-.146.765-.228 1.201-.175.87-.339 1.891-.772 2.982-.197.549-.376 1.145-.619 1.75-.284.59-.584 1.208-.899 1.856-.286.666-.692 1.304-1.117 1.968-.44.654-.812 1.396-1.359 2.055-1.974 2.799-4.77 5.628-8.18 8.459-6.834 5.685-16.47 10.956-28.174 15.576-11.715 4.645-25.59 8.496-41.14 11.536-15.558 3.04-32.842 5.091-51.454 6.03-18.612.918-38.576.706-59.449-1.233-10.434-.981-21.092-2.411-31.88-4.424-10.79-1.997-21.709-4.625-32.571-8.143-10.825-3.565-21.697-7.945-31.672-14.317-4.942-3.209-9.729-6.888-13.575-11.536-1.92-2.321-3.559-4.889-4.805-7.669-1.15-2.819-1.841-5.839-1.893-8.919.055-3.08.753-6.097 1.908-8.915 1.241-2.78 2.892-5.341 4.808-7.662 3.849-4.643 8.633-8.32 13.576-11.526 9.973-6.368 20.842-10.746 31.667-14.309 10.858-3.518 21.774-6.143 32.562-8.141 10.787-2.012 21.443-3.442 31.875-4.423 20.871-1.939 40.832-2.149 59.443-1.233 18.61.938 35.893 2.989 51.45 6.029 15.552 3.04 29.428 6.891 41.143 11.536 11.705 4.619 21.341 9.889 28.179 15.575 3.409 2.832 6.205 5.66 8.181 8.458.547.659.918 1.403 1.359 2.056.425.664.83 1.303 1.118 1.968l.898 1.856c.242.606.423 1.202.618 1.751.435 1.092.599 2.113.774 2.983.082.436.181.833.228 1.201l.061 1.007c.071 1.194.091 1.805.091 1.805z" stroke="#000" stroke-width="3" stroke-miterlimit="10"/><path d="M533.385 253.923s-.522-.321-1.521-.976c-.251-.164-.529-.348-.837-.551-.322-.184-.698-.343-1.092-.538-.798-.383-1.704-.866-2.83-1.179-.554-.176-1.132-.392-1.757-.566-.636-.127-1.306-.263-2.011-.406-.697-.175-1.446-.24-2.228-.303-.781-.048-1.59-.204-2.444-.169-3.4-.131-7.326.364-11.629 1.34-8.635 1.951-18.657 6.36-29.436 12.798-10.805 6.429-22.308 15.049-34.198 25.483-11.895 10.44-24.067 22.846-36.176 36.976-12.09 14.143-24.119 30.042-35.342 47.704-5.599 8.836-10.981 18.12-15.983 27.862-5.014 9.73-9.61 19.946-13.466 30.649-3.799 10.701-6.978 21.934-8.044 33.624-.491 5.823-.51 11.797.78 17.581.649 2.884 1.642 5.694 3.04 8.308 1.478 2.566 3.374 4.889 5.696 6.758 2.386 1.782 5.105 3.049 7.958 3.845 2.882.7 5.851.973 8.807.88 5.925-.185 11.708-1.695 17.226-3.619 11.061-3.945 21.15-9.825 30.57-16.172 9.405-6.404 18.155-13.402 26.332-20.685 8.189-7.273 15.839-14.8 23.002-22.427 14.31-15.272 26.709-30.887 37.393-46.123 10.668-15.249 19.646-30.13 26.792-44.25 7.141-14.116 12.62-27.405 16.153-39.471 3.547-12.042 5.319-22.847 5.056-31.694-.13-4.41-.628-8.335-1.603-11.596-.178-.832-.532-1.578-.772-2.323-.257-.743-.506-1.449-.849-2.083-.312-.645-.612-1.26-.896-1.844-.324-.563-.676-1.069-.984-1.561-.584-1.011-1.277-1.768-1.847-2.445-.288-.334-.534-.659-.793-.923l-.741-.675c-.883-.802-1.326-1.229-1.326-1.229s.471.389 1.374 1.177l.756.664c.262.263.516.586.81.916.579.671 1.287 1.427 1.883 2.438.315.491.675.998 1.007 1.561.288.587.594 1.201.914 1.848.351.634.607 1.345.87 2.089.248.748.608 1.496.793 2.332 1.001 3.276 1.524 7.218 1.673 11.647.307 8.885-1.433 19.729-4.953 31.812-3.505 12.102-8.961 25.428-16.088 39.581-7.128 14.159-16.095 29.075-26.759 44.36-10.676 15.271-23.074 30.92-37.396 46.229-7.169 7.644-14.828 15.193-23.029 22.486-8.19 7.304-16.956 14.323-26.391 20.752-9.449 6.372-19.574 12.281-30.72 16.26-5.565 1.94-11.405 3.469-17.434 3.661-3.01.094-6.046-.183-9.006-.903-2.933-.816-5.742-2.122-8.209-3.967-2.401-1.93-4.357-4.33-5.876-6.968-1.437-2.686-2.449-5.559-3.111-8.495-1.309-5.887-1.285-11.92-.79-17.792 1.078-11.783 4.276-23.057 8.092-33.792 3.873-10.739 8.485-20.975 13.517-30.724 5.017-9.759 10.416-19.056 16.032-27.901 11.256-17.683 23.319-33.59 35.445-47.736 12.144-14.135 24.355-26.537 36.288-36.97 11.93-10.428 23.475-19.036 34.323-25.448 10.823-6.421 20.893-10.81 29.575-12.729 4.328-.959 8.276-1.436 11.697-1.283.856-.029 1.671.134 2.457.185.787.071 1.538.142 2.24.323.706.15 1.379.292 2.019.425.627.182 1.208.403 1.764.586 1.127.325 2.035.821 2.829 1.216.395.203.77.366 1.09.556l.832.568c.988.676 1.482 1.036 1.482 1.036z" fill="#000"/><path d="M533.385 253.923s-.522-.321-1.521-.976c-.251-.164-.529-.348-.837-.551-.322-.184-.697-.343-1.092-.538-.798-.383-1.704-.866-2.83-1.179-.554-.176-1.132-.392-1.757-.566-.636-.127-1.306-.263-2.011-.406-.697-.175-1.446-.24-2.228-.303-.781-.048-1.59-.204-2.444-.169-3.4-.131-7.327.364-11.629 1.34-8.635 1.951-18.657 6.36-29.436 12.798-10.805 6.429-22.308 15.049-34.198 25.483-11.895 10.44-24.067 22.846-36.176 36.976-12.09 14.143-24.119 30.042-35.342 47.704-5.599 8.836-10.981 18.12-15.983 27.862-5.014 9.73-9.61 19.946-13.466 30.649-3.799 10.701-6.978 21.934-8.044 33.624-.491 5.823-.51 11.797.78 17.581.649 2.884 1.642 5.694 3.04 8.308 1.478 2.566 3.374 4.889 5.696 6.758 2.386 1.782 5.105 3.049 7.958 3.845 2.882.7 5.851.973 8.807.88 5.925-.185 11.708-1.695 17.226-3.619 11.061-3.945 21.15-9.825 30.57-16.172 9.405-6.404 18.155-13.402 26.332-20.685 8.189-7.273 15.839-14.8 23.002-22.427 14.31-15.272 26.709-30.887 37.393-46.123 10.668-15.249 19.646-30.13 26.792-44.25 7.141-14.116 12.62-27.405 16.153-39.471 3.547-12.042 5.319-22.847 5.056-31.694-.129-4.41-.628-8.335-1.603-11.596-.178-.832-.532-1.578-.772-2.323-.257-.743-.506-1.449-.849-2.083-.312-.645-.612-1.26-.896-1.844-.324-.563-.676-1.069-.984-1.561-.584-1.011-1.277-1.768-1.847-2.445-.288-.334-.534-.659-.793-.923l-.741-.675c-.883-.802-1.326-1.229-1.326-1.229zm0 0s.471.389 1.374 1.177l.756.664c.262.263.516.586.81.916.579.671 1.287 1.427 1.883 2.438.315.491.675.998 1.007 1.561.288.587.594 1.201.914 1.848.351.634.607 1.345.87 2.089.248.748.608 1.496.793 2.332 1.001 3.276 1.524 7.218 1.673 11.647.307 8.885-1.433 19.729-4.953 31.812-3.505 12.102-8.961 25.428-16.088 39.581-7.128 14.159-16.094 29.075-26.759 44.36-10.676 15.271-23.074 30.92-37.396 46.229-7.169 7.644-14.828 15.193-23.029 22.486-8.189 7.304-16.956 14.323-26.391 20.752-9.449 6.372-19.574 12.281-30.72 16.26-5.565 1.94-11.405 3.469-17.434 3.661-3.01.094-6.046-.183-9.006-.903-2.933-.816-5.742-2.122-8.209-3.967-2.401-1.93-4.357-4.33-5.876-6.968-1.437-2.686-2.449-5.559-3.111-8.495-1.309-5.887-1.285-11.92-.79-17.792 1.078-11.783 4.276-23.057 8.092-33.792 3.873-10.739 8.485-20.975 13.517-30.724 5.017-9.759 10.416-19.056 16.032-27.901 11.256-17.683 23.319-33.59 35.445-47.736 12.144-14.135 24.355-26.537 36.288-36.97 11.93-10.428 23.475-19.036 34.323-25.448 10.823-6.421 20.893-10.81 29.575-12.729 4.328-.959 8.276-1.436 11.697-1.283.856-.029 1.671.134 2.457.185.787.071 1.538.142 2.24.323.706.15 1.379.292 2.019.425.627.182 1.208.403 1.764.586 1.127.325 2.035.821 2.829 1.216.395.203.77.366 1.09.556l.832.568c.988.676 1.482 1.036 1.482 1.036z" stroke="#000" stroke-width="3" stroke-miterlimit="10"/><path d="M467.359 326.691h-59.91l.161-11.532c0-16.507 13.438-29.938 29.956-29.938s29.954 13.431 29.954 29.879l-.161 11.591zm-19.611 72.881h-18.642l2.912-13.453c-3.228-2.001-5.383-5.566-5.383-9.643 0-6.272 5.088-11.356 11.363-11.356 6.276 0 11.366 5.084 11.366 11.356 0 3.93-1.997 7.39-5.032 9.43a3694.057 3694.057 0 013.416 13.666zm27.838-72.782l.161-11.631c0-21.041-17.127-38.159-38.181-38.159-21.056 0-38.184 17.118-38.184 38.1l-.165 11.848C388.913 328.473 381 337.323 381 348.045v68.604C381 428.44 390.563 438 402.364 438h71.269c11.798 0 21.367-9.56 21.367-21.351v-68.604c0-11.136-8.53-20.269-19.414-21.255z" fill="#B1FA16"/><path d="M152.195 271.714s17.385 3.02 24.012 8.815c6.627 5.796 13.362 19.112 13.362 19.112l33.042 22.428s6.791 8.67 8.296 26.87c1.505 18.202 13.231 113.701 9.287 127.422-2.104 7.32-17.604 27.03-34.192 43.619 0 0 27.998 77.52-58.502 68.02s-107 .5-113-22 2.998-48.555 2.998-48.555c-14.836-17.122-29.737-38.82-34.41-48.718-8.185-17.343 2.4-56.736 3.206-67.516.956-12.805 7.186-46.646 11.945-66.992 4.12-17.621 12.016-20.588 12.016-20.588l33.008-14.79s-15.119-4.69-15.813-7.298c-.689-2.608 34.063-20.449 34.063-20.449s5.072-.86 12.57-1.777l1.133 19.094c.928 15.67 14.392 27.614 30.062 26.67 15.982-.965 28.008-14.95 26.58-30.901a2385.454 2385.454 0 00-1.237-13.329c.559.27 1.086.557 1.574.863zM45.945 448.261l-.979-11.549-.737 11.235s.811-.033 1.715.314z" fill="#000"/><path fill-rule="evenodd" clip-rule="evenodd" d="M151.831 272.666l.193.033.011.002.035.006.143.026.553.104a104.808 104.808 0 018.675 2.073c5.181 1.481 10.981 3.638 14.108 6.372 3.193 2.792 6.468 7.459 8.974 11.503a115.02 115.02 0 013.859 6.737l.221.426.056.109.014.027.003.007.001.001.117.231 33.117 22.479c.043.059.101.14.173.244.177.256.436.648.755 1.178.637 1.059 1.512 2.67 2.435 4.846 1.847 4.35 3.893 10.964 4.636 19.952l.997-.083c-1.505-18.2-8.296-26.87-8.296-26.87l-33.042-22.428s-6.735-13.316-13.362-19.112c-6.627-5.795-24.012-8.815-24.012-8.815a15.02 15.02 0 00-.517-.309c-.337-.192-.69-.377-1.057-.554l.112 1.177c.24 2.519.663 7.012 1.125 12.152 1.428 15.951-10.598 29.936-26.58 30.901-15.67.944-29.134-11-30.062-26.67l-1.133-19.094-.995.123c-6.948.869-11.575 1.654-11.575 1.654s-34.752 17.841-34.063 20.449c.563 2.115 10.608 5.598 14.39 6.84.882.29 1.423.458 1.423.458l-33.008 14.79s-7.896 2.967-12.016 20.588c-4.76 20.346-10.989 54.187-11.945 66.992-.193 2.581-.947 6.802-1.87 11.969-2.93 16.411-7.561 42.357-1.336 55.547 4.673 9.898 19.574 31.596 34.41 48.718 0 0-8.998 26.055-2.998 48.555 4.017 15.063 14.533 15.56 47.001 17.093 16.03.757 37.409 1.767 65.999 4.907 86.5 9.5 58.502-68.02 58.502-68.02 16.588-16.589 32.088-36.299 34.192-43.619 3.071-10.685-3.36-70.962-7.067-105.709-1.054-9.873-1.887-17.685-2.22-21.713l-.997.083c.333 4.025 1.168 11.855 2.223 21.745 1.328 12.449 3.004 28.161 4.465 43.657 1.313 13.928 2.454 27.704 3.021 38.849.284 5.574.423 10.477.37 14.406-.054 3.965-.305 6.834-.757 8.406-.483 1.681-1.777 4.182-3.778 7.308-1.985 3.101-4.618 6.742-7.711 10.684-6.186 7.883-14.181 16.928-22.448 25.195l-.449.45.216.597v.002l.003.009.014.038.055.159a65.145 65.145 0 01.94 3.038 88.918 88.918 0 011.967 8.555c1.262 7.055 2.039 16.306.169 25.227-1.865 8.898-6.351 17.429-15.605 23.183-9.28 5.771-23.496 8.837-44.996 6.476-21.649-2.378-39.169-3.535-53.36-4.286-4.588-.242-8.82-.442-12.73-.627-8.204-.387-14.982-.707-20.617-1.214-8.336-.749-13.968-1.896-17.879-4.151-3.826-2.207-6.105-5.54-7.557-10.986-2.948-11.055-2.22-23.035-.73-32.298a113.881 113.881 0 012.416-11.317 88.578 88.578 0 011.092-3.749 49.703 49.703 0 01.176-.538l.018-.053.004-.012.001-.003.189-.545-.378-.436C23.444 499.699 8.609 478.08 3.993 468.3c-1.96-4.15-2.826-9.7-2.97-15.946-.145-6.229.43-13.061 1.288-19.718.858-6.655 1.997-13.11 2.975-18.591l.132-.742c.914-5.119 1.676-9.384 1.873-12.018.95-12.723 7.165-46.503 11.922-66.839 2.03-8.683 4.972-13.679 7.343-16.483 1.186-1.404 2.235-2.266 2.968-2.769a7.69 7.69 0 01.842-.512 3.41 3.41 0 01.204-.099l.029-.012.011-.005.002-.001.002-.001.022-.008 35.453-15.885-2.53-.785-.039.126.04-.126-.01-.003-.032-.01-.124-.039a139.662 139.662 0 01-2.185-.714c-1.42-.478-3.316-1.14-5.23-1.882-1.921-.745-3.833-1.559-5.295-2.337-.734-.391-1.323-.756-1.736-1.081a3.27 3.27 0 01-.403-.366c.16-.19.424-.447.812-.771.836-.697 2.096-1.582 3.667-2.595 3.133-2.021 7.39-4.483 11.686-6.874a621.693 621.693 0 0111.85-6.407 663.367 663.367 0 015.022-2.624l.25-.128.076-.013.673-.109c.59-.095 1.454-.23 2.553-.395a343.48 343.48 0 018.014-1.097l1.07 18.029c.961 16.222 14.899 28.587 31.12 27.609 16.545-.999 28.995-15.476 27.516-31.988-.422-4.69-.811-8.841-1.058-11.447l.035.022zM47.076 449.765l-1.114-13.137-1.994.019-.81 12.343 1.105-.044h.047l.033.001a3.828 3.828 0 011.243.248l1.49.57zm-2.847-1.818s.255-.01.64.042l.05.007a4.79 4.79 0 011.026.265l-.979-11.549-.737 11.235z" fill="#B1FA16"/><path d="M206.621 524.046c.29-.37.579-.74.866-1.113l-.269-1.654a36.987 36.987 0 00-1.117-.655l.52 3.422z" fill="#B5B6B5"/><path d="M176.208 280.529c-.033.048.549.379 1.489 1.25.941.864 2.232 2.27 3.653 4.306 1.457 2.02 2.937 4.69 4.758 7.838l6.641 10.523.385-.474c-3.303-1.287-7.339-1.307-11.203-.041-3.878 1.246-7.632 3.47-11.268 6.17-7.262 5.499-13.898 13.16-20.324 21.854-12.808 17.475-25.294 39.069-37.339 63.003l-.062.126.005.152.845 29.487c.704 24.71.793 46.462 1.7 75.671.171 4.649.306 8.281.398 10.816l.133 2.813c.037.632.067.958.087.956.021 0 .033-.326.035-.958-.002-.692-.007-1.625-.014-2.816l-.172-10.823c-.636-29.427-.213-50.558-.97-75.689l-.864-29.496-.057.28c11.983-23.878 24.402-45.486 37.077-62.932 6.364-8.684 12.904-16.308 20.023-21.773 3.573-2.691 7.244-4.897 10.995-6.133 3.739-1.258 7.575-1.26 10.744-.069l.914.344-.528-.818c-2.529-3.902-4.788-7.392-6.759-10.435-1.843-3.086-3.396-5.779-4.905-7.774-1.474-2.022-2.823-3.407-3.814-4.239-.988-.839-1.603-1.119-1.603-1.119zM53.726 294.376c-.057.191 3.49 1.232 9.006 3.44 5.495 2.218 13 5.704 20.17 11.217 7.185 5.497 12.766 11.586 16.809 15.945l4.768 5.207c1.137 1.221 1.797 1.871 1.859 1.818.062-.053-.476-.806-1.505-2.121a184.155 184.155 0 00-4.488-5.464c-3.89-4.514-9.417-10.75-16.718-16.336-7.298-5.61-14.98-9.025-20.592-11.054a78.214 78.214 0 00-6.758-2.13c-1.617-.425-2.53-.595-2.55-.522z" fill="#B1FA16"/><path d="M113.124 395.422c.083-.011-.002-1.222-.225-3.411-.258-2.182-.722-5.333-1.451-9.193-1.433-7.728-3.989-18.285-7.364-29.784-3.438-11.486-7.06-21.737-10.217-28.943-1.558-3.61-2.978-6.462-4.033-8.392-1.1-1.91-1.74-2.941-1.81-2.9-.072.041.429 1.149 1.394 3.111a166.69 166.69 0 013.668 8.507c2.941 7.25 6.422 17.506 9.849 28.957 3.366 11.464 6.043 21.955 7.684 29.611.835 3.826 1.42 6.94 1.818 9.093.365 2.158.607 3.353.687 3.344z" fill="#29383E"/><path d="M107.462 331.318c.296-.142-3.872-9.41-9.312-20.696-5.442-11.289-10.093-20.322-10.39-20.18-.297.145 3.871 9.41 9.313 20.7 5.439 11.285 10.09 20.321 10.389 20.176z" fill="#B1FA16"/><path d="M62.787 299.055l.476-.214s-.152-.046-.423-.133a.675.675 0 00-.264.087s.073.092.21.26z" fill="#B5B6B5"/><path d="M113.77 424.144c.638-1.967.057-11.255-.545-18.981l.545 18.981z" fill="#242C2F"/><path d="M112.042 389.959c-.26-1.949-.653-3.695-1.089-5.416.436 2.064.797 3.884 1.089 5.416zm-3.234-14.842c-.001-.012-.001-.023-.004-.035a295.814 295.814 0 00-11.033-40.474c-1.341-3.826-4.124-9.715-6.374-14.272a167.062 167.062 0 011.689 4.081c2.942 7.25 6.423 17.506 9.849 28.956 2.325 7.917 4.323 15.369 5.873 21.744z" fill="#B1FA16"/><path d="M108.811 375.119l-.182-1.335a54.913 54.913 0 00.182 1.335zm7.392 14.052c.54-.314 1.064-.645 1.574-.995 10.83-20.98 21.994-39.982 33.364-55.631 6.364-8.684 12.904-16.309 20.023-21.773 3.573-2.691 7.244-4.897 10.995-6.134a18.601 18.601 0 012.818-.709 15.43 15.43 0 00-.46-.262c-7.728.776-20.687 12.475-28.637 22.127a209.176 209.176 0 00-21.105 30.923c-6.114 10.936-12.457 21.518-18.572 32.454z" fill="#242C2F"/><path d="M210.889 465.089c.03.003.063-.202.098-.6.044-.397.046-.993-.018-1.765-.141-1.528-.627-3.828-2.199-6.278-1.531-2.408-4.292-5.014-8.261-5.991-3.88-.976-8.845-.331-12.727 2.831l.892.439c.347-6.994-.092-14.925-1.368-23.126-1.167-7.563-2.549-14.686-3.339-21.229-.818-6.538-1.245-12.464-1.355-17.45a229.568 229.568 0 01-.065-11.819l.021-3.217c-.007-.738-.032-1.126-.073-1.128-.042-.003-.096.381-.167 1.114l-.246 3.215c-.208 2.79-.357 6.844-.315 11.851.001 5.012.342 10.982 1.105 17.568.736 6.592 2.091 13.755 3.251 21.272 1.267 8.153 1.737 15.968 1.465 22.906l-.048 1.22.941-.784c3.529-2.939 8.171-3.635 11.819-2.783 3.72.839 6.38 3.216 7.928 5.474a14.555 14.555 0 012.396 5.959c.232 1.492.182 2.321.265 2.321z" fill="#B1FA16"/><path d="M205.113 521.074c-.021-.018-.271.2-.733.639l-2.014 1.965c-1.788 1.684-4.412 4.152-7.954 7.032-3.55 2.858-7.973 6.204-13.383 9.451-2.707 1.597-5.644 3.27-8.905 4.479-1.611.6-3.353.928-5.12.763-1.724-.14-3.553-.848-4.729-2.08l-.357-.374-.381.294-6.088 4.69.674-.004-24.623-18.505c-.87.118-1.399.171-1.399.171.052.246 7.138 5.532 13.386 10.275l11.968 8.948.341.255.335-.26c2.102-1.638 4.156-3.24 6.061-4.727l-.737-.078c1.531 1.579 3.517 2.245 5.458 2.42 1.943.172 3.856-.216 5.547-.864 3.379-1.287 6.306-3.001 9.029-4.647 5.422-3.343 9.817-6.774 13.328-9.717a108.963 108.963 0 007.787-7.285l1.902-2.084c.421-.479.628-.736.607-.757zm-69.932-.416c5.969-7.725 11.467-15.25 16.668-22.173 6.76-9.062 12.896-17.181 18.207-23.873 5.299-6.703 9.792-11.958 13.016-15.477 1.59-1.783 2.89-3.102 3.769-4.003.872-.907 1.318-1.397 1.289-1.429-.028-.03-.528.402-1.456 1.254a70.98 70.98 0 00-3.941 3.857c-3.34 3.435-7.944 8.622-13.337 15.267-5.404 6.639-11.618 14.714-18.429 23.742-5.451 7.176-11.213 15.015-17.456 23.043.545-.065 1.099-.134 1.67-.208zm48.095-168.537c.213.076 1.088-2.656 3.302-6.656 1.089-2.009 2.605-4.277 4.464-6.646 1.907-2.33 4.188-4.743 6.846-6.986a53.298 53.298 0 018.11-5.476c2.666-1.402 5.168-2.482 7.341-3.192 4.333-1.457 7.178-1.825 7.145-2.047-.012-.083-.724-.039-2.016.105-1.293.122-3.145.499-5.384 1.136-2.246.618-4.84 1.64-7.6 3.021a49.569 49.569 0 00-8.362 5.531 49.33 49.33 0 00-6.947 7.227c-1.858 2.464-3.33 4.83-4.344 6.929-1.032 2.086-1.735 3.84-2.086 5.092-.378 1.243-.548 1.939-.469 1.962z" fill="#B1FA16"/><path d="M210.656 460.838a14.208 14.208 0 00-1.886-4.391c-1.531-2.409-4.292-5.015-8.26-5.991a14.34 14.34 0 00-3.461-.419c-.32 0-.641.009-.964.03 2.74.041 5.471.796 7.819 2.211 3.179 1.918 5.612 5.03 6.752 8.56z" fill="#242C2F"/><path d="M32.334 323.702c-.158.107 1.2 2.271 3.117 5.899a95.232 95.232 0 016.254 14.726 95.444 95.444 0 013.608 15.587c.587 4.065.761 6.613.952 6.604.137-.002.264-2.569-.11-6.705-.37-4.127-1.354-9.817-3.31-15.856-1.972-6.035-4.524-11.209-6.654-14.767-2.13-3.564-3.741-5.568-3.857-5.488zm13.083 132.469l.724-5.595-1.351-15.942-.9 17.276.125.729 1.402 3.532zm-18.134 6.17c.212.298 3.822-2.291 8.949-3.906 5.11-1.671 9.552-1.667 9.552-2.029.053-.295-4.565-.853-9.918.889-5.363 1.698-8.796 4.837-8.583 5.046z" fill="#B1FA16"/><path d="M17.39 455.132c.226.32 5.015-4.325 12.69-6.315 7.645-2.114 14.112-.48 14.149-.871.034-.129-1.508-.726-4.146-1.057-2.629-.34-6.37-.275-10.313.772-3.939 1.062-7.211 2.875-9.319 4.484-2.118 1.606-3.157 2.893-3.06 2.987z" fill="#B1FA16"/><path d="M45.784 456.405c.047.112.817.046 1.823-.71.494-.379 1-1.007 1.277-1.834.277-.827.265-1.801.028-2.723a6.433 6.433 0 00-.703-1.677l.053.115c-.712-1.655-2.222-1.965-3.054-2.046-.905-.057-1.402.209-1.374.329.022.147.514.157 1.243.393.694.216 1.79.745 2.091 1.691l.012.034.043.083c.198.379.405.885.531 1.379.434 1.545-.02 2.877-.73 3.643-.695.776-1.331 1.146-1.24 1.323z" fill="#B1FA16"/><path d="M48.007 379.704c-.08-.007-.23.942-.428 2.666-.202 1.723-.432 4.223-.675 7.314-.492 6.184-.97 14.736-1.383 24.181l-1.032 24.189c-.115 2.897-.214 5.347-.295 7.332-.055 1.733-.048 2.693.037 2.7.08.005.23-.944.428-2.668.202-1.723.432-4.221.675-7.312.49-6.183.968-14.737 1.384-24.186.395-9.306.753-17.724 1.029-24.183l.296-7.333c.056-1.733.047-2.693-.036-2.7zm-3.016 76.371c-.025.027.393.436 1.214 1.19.903.813 2.11 1.904 3.63 3.277l13.434 12.185a953.929 953.929 0 0119.8 18.745 861.095 861.095 0 0111.567 11.476c.959 1.009 1.885 2.066 2.457 3.282.607 1.213.691 2.534.419 3.934-.228 1.404-.76 2.84-.713 4.518.046 1.549.64 3.509 2.46 4.267l-.226-.94a23845.118 23845.118 0 00-19.644 22.47l.547-.193a5906.57 5906.57 0 00-6.848-1.166l-.084-.016-.074.009c-2.999.368-5.492 1.754-8.09 1.308-2.586-.315-4.928-1.666-6.987-3.206-4.095-3.192-7.656-6.827-10.973-10.233-6.579-6.907-11.972-13.477-16.405-18.988-4.426-5.517-7.88-10.001-10.272-13.068l-2.757-3.512c-.637-.792-.982-1.197-1.012-1.176-.027.023.263.467.844 1.303l2.599 3.631a518.76 518.76 0 0010.008 13.291c4.359 5.582 9.695 12.223 16.26 19.22 3.325 3.466 6.832 7.101 11.042 10.419 2.128 1.599 4.607 3.082 7.514 3.452 2.976.485 5.736-1.006 8.346-1.278l-.156-.005c2.247.389 4.53.782 6.846 1.179l.326.058.218-.25 9.74-11.134c3.39-3.882 6.725-7.698 9.9-11.336l.559-.639-.786-.301c-1.135-.437-1.686-1.859-1.723-3.21-.056-1.346.432-2.778.684-4.274.307-1.487.2-3.233-.523-4.626-.678-1.414-1.69-2.537-2.682-3.576a752.488 752.488 0 00-11.653-11.441 778.467 778.467 0 00-19.999-18.574 628.54 628.54 0 00-13.684-11.927c-1.576-1.308-2.83-2.346-3.764-3.123-.869-.699-1.333-1.052-1.359-1.022zm37.115-8.638c-.041.006-.02.311.055.889.09.572.173 1.429.42 2.502.426 2.167 1.27 5.267 2.756 8.937 2.902 7.305 9.001 16.931 18.903 24.064 9.909 7.128 20.975 9.854 28.823 10.288 3.953.246 7.16.062 9.348-.223 1.099-.106 1.938-.301 2.509-.395.57-.113.865-.191.86-.23-.023-.265-4.86.701-12.648.005-7.721-.644-18.508-3.45-28.194-10.417-9.676-6.972-15.761-16.306-18.822-23.423-3.132-7.167-3.755-12.062-4.01-11.997zm83.838-159.752c-.34-.134-3.084 6.774-7.772 14.589-4.648 7.843-9.418 13.54-9.138 13.777.115.099 1.462-1.2 3.392-3.518 1.931-2.317 4.41-5.686 6.775-9.645 2.358-3.962 4.141-7.747 5.261-10.546 1.123-2.801 1.625-4.602 1.482-4.657zm-91.036 3.768c.274.237 3.085-2.976 7.49-5.68 4.38-2.751 8.507-3.842 8.415-4.192-.028-.301-4.458.301-9.045 3.176-4.61 2.836-7.114 6.537-6.86 6.696z" fill="#B1FA16"/><path d="M131.914 573.923a110.962 110.962 0 01-17.769 14.399c-1.414.919-3.02 1.848-4.687 1.572-1.663-.274-2.989-2.438-1.874-3.707-1.712 1.372-4.346 1.434-6.12.147-4.71-3.423 1.527-9.217 2.017-10.17-6.3 5.282-7.656 5.014-9.138 4.081-1.577-.993-2.48-3.066-1.885-4.83-1.702 2.309-5.79 1.394-7.102-1.157-1.313-2.552-.398-5.76 1.339-8.042 1.735-2.282 4.173-3.905 6.365-5.757 1.704-1.437 3.33-3.133 4.215-5.142 3.511 2.737 6.625 4.99 8.51 5.976 5.693 2.978 16.348 9.699 24.259 11.51l1.87 1.12zm-35.088-18.956c-5.34 4.046-13.167 4.586-18.962 1.186-1.282-.754-2.493-1.707-3.226-2.999-.733-1.294-.908-2.971-.157-4.251.95-1.618 3.052-2.172 4.923-2.068 1.87.103 3.688.707 5.56.779a6.975 6.975 0 002.423-.329c3.063 2.563 6.385 5.289 9.439 7.682z" fill="#000"/><path fill-rule="evenodd" clip-rule="evenodd" d="M79.44 546.169c-1.964-.109-4.395.455-5.534 2.397-.902 1.538-.665 3.476.152 4.917.816 1.439 2.144 2.466 3.468 3.245 5.58 3.273 12.943 3.038 18.41-.343-.859 1.317-2.041 2.498-3.306 3.565-.539.455-1.095.898-1.66 1.347l-.06.048c-.543.432-1.094.869-1.632 1.32-1.116.936-2.202 1.949-3.114 3.147-1.817 2.386-2.88 5.876-1.401 8.751.766 1.491 2.312 2.462 3.876 2.751 1 .185 2.07.1 2.985-.354.137 1.551 1.06 3.028 2.364 3.849.392.247.845.496 1.41.592.573.097 1.197.028 1.934-.24.759-.275 1.674-.776 2.833-1.577a12.44 12.44 0 00-.235.432c-.542 1.048-.954 2.251-.872 3.464.084 1.251.689 2.43 2.014 3.394 1.553 1.126 3.668 1.344 5.447.673.041.42.18.827.375 1.186.48.881 1.387 1.642 2.455 1.818 1.956.325 3.773-.769 5.159-1.67a111.56 111.56 0 0017.877-14.486l.606-.604-2.696-1.615-.103-.023c-3.866-.885-8.443-2.983-12.801-5.258a241.544 241.544 0 01-6.201-3.383l-.643-.361c-1.665-.933-3.181-1.783-4.453-2.449-1.823-.954-4.891-3.169-8.41-5.911l-.239-.186.473.371-.522.395.489.215a10.22 10.22 0 01-.374.759c3.245 2.508 6.139 4.583 7.964 5.539 1.254.656 2.752 1.495 4.421 2.431l.643.36a243 243 0 006.235 3.402c4.333 2.262 8.996 4.413 13.017 5.352l-.09-.054.343-.572-.149.649-.104-.023 1.044.625c.204-.201.406-.401.608-.603l.471.472-.342.572-.737-.441a110.266 110.266 0 01-17.055 13.709c0 .001.001 0 0 0-1.441.937-2.836 1.701-4.213 1.473-.594-.098-1.183-.555-1.502-1.142-.319-.583-.29-1.114.019-1.467l5.039-5.733-5.956 4.773c-1.477 1.184-3.78 1.238-5.311.128-1.03-.748-1.412-1.577-1.468-2.405-.058-.866.237-1.814.727-2.761.486-.941 1.133-1.822 1.704-2.541.194-.245.374-.464.537-.662l.222-.272c.191-.235.395-.491.496-.686l1.506-2.935-2.528 2.12c-3.151 2.642-4.985 3.823-6.175 4.255-.574.209-.96.228-1.255.178-.303-.051-.576-.186-.924-.405-1.357-.855-2.09-2.625-1.608-4.053l1.364-4.044-2.532 3.435c-.656.889-1.81 1.212-3.04.984-1.234-.228-2.388-.989-2.933-2.05-1.147-2.23-.381-5.156 1.276-7.333.825-1.084 1.825-2.024 2.91-2.933a80.833 80.833 0 011.609-1.301l.056-.045a72.175 72.175 0 001.69-1.372c1.523-1.285 3.035-2.813 4.021-4.624-.214-.165-.43-.333-.646-.502l.138-.177m-.256-.804l.263-.597.435.34-.208-.163c-3.046-2.386-6.362-5.108-9.422-7.668l-.285-.239-.353.117a6.306 6.306 0 01-2.187.296c-.88-.034-1.756-.193-2.684-.367l-.098-.019c-.883-.165-1.816-.341-2.767-.393m17.082 9.184l-.108.139-.7-.551c-5.097 3.42-12.207 3.751-17.514.637-1.239-.729-2.334-1.609-2.983-2.753 0 0 0 .001 0 0-.65-1.146-.761-2.563-.162-3.585.76-1.295 2.534-1.838 4.311-1.74.863.048 1.72.209 2.628.379l.066.012c.916.172 1.886.351 2.878.389h.002a7.747 7.747 0 002.294-.253 400.811 400.811 0 008.48 6.914" fill="#B1FA16"/><path fill-rule="evenodd" clip-rule="evenodd" d="M98.624 517.74l-.39-.068-18.87 23.666.477.42.44-.5-.44.5.213.187.607.531a476.09 476.09 0 009.408 7.985c5.512 4.551 11.946 9.612 15.406 11.423 1.226.641 2.717 1.477 4.376 2.406 2.819 1.58 6.124 3.432 9.435 5.064 2.651 1.306 5.352 2.496 7.895 3.333 2.533.835 4.957 1.336 7.039 1.223 3.092-.165 4.874-1.024 5.893-1.931a4.27 4.27 0 00.988-1.253c.07-.136.12-.258.155-.358l.065-.046a27.3 27.3 0 00.662-.491 27.572 27.572 0 001.955-1.629c.688-.636 1.381-1.362 1.849-2.079.289-.442.556-.978.6-1.529.131-.02.277-.044.434-.074.661-.124 1.546-.351 2.4-.765.852-.412 1.717-1.031 2.273-1.963.479-.803.695-1.786.533-2.96l.182-.048a14.034 14.034 0 001.872-.653c1.353-.588 3.049-1.624 3.539-3.345m-6.49 2.885l-.694.128.168.686c.288 1.179.109 2.013-.256 2.625-.375.63-.994 1.099-1.708 1.445-.711.344-1.472.543-2.066.655a9.345 9.345 0 01-.913.127l-.048.004-.011.001h-.001l-.966.053.394.884c.065.146.052.487-.358 1.114-.379.581-.979 1.22-1.638 1.829a26.348 26.348 0 01-1.858 1.548 24.185 24.185 0 01-.81.595l-.045.032-.012.008-.002.002-.229.158-.048.264v.001a1.853 1.853 0 01-.117.294 2.954 2.954 0 01-.685.859c-.739.657-2.206 1.442-5.078 1.596-1.841.099-4.082-.345-6.551-1.158-2.46-.811-5.1-1.971-7.722-3.263-3.302-1.627-6.506-3.424-9.29-4.985-1.673-.938-3.194-1.791-4.492-2.471-3.31-1.732-9.628-6.689-15.175-11.269a477.43 477.43 0 01-9.382-7.962l-.338-.295 17.585-22.055.22.038a336.188 336.188 0 007.343 1.16c4.502.659 10.085 1.377 14.356 1.598 7.235.375 10.809-.098 16.3-.826.996-.132 2.056-.272 3.212-.417 3.741-.471 5.214.059 5.761.495.254.202.327.396.352.516a.597.597 0 01.012.15l-.001.022-.018.077.005.095c.059 1.1-.688 2.124-2.196 3.075-1.485.936-3.532 1.682-5.641 2.257-2.099.573-4.214.966-5.808 1.216a58.831 58.831 0 01-2.46.335l-.096.01-.044.005-.035.003-.009.001h-.002l-.74.074.154.728a.687.687 0 00.155.315c.033.039.067.075.094.102.057.056.13.121.21.19.163.14.393.328.677.554.569.452 1.376 1.076 2.344 1.816a1323.83 1323.83 0 005.485 4.157l1.719 1.299a923.128 923.128 0 017.609 5.798c2.228 1.724 3.877 3.045 4.416 3.579m-20.464-17.472c.532.419 1.229.956 2.045 1.58 1.515 1.157 3.435 2.608 5.477 4.151l1.721 1.3a916.795 916.795 0 017.621 5.807c2.197 1.7 3.927 3.081 4.538 3.687l.368.359c.734.713 1.826 1.774 2.71 2.961 1.023 1.374 1.939 3.138 1.446 4.87m-25.926-24.715c.351-.049.752-.107 1.194-.176 1.622-.255 3.789-.657 5.952-1.247 2.153-.588 4.349-1.375 6.001-2.416 1.607-1.013 2.88-2.39 2.819-4.2a1.955 1.955 0 00-.026-.616c-.083-.401-.31-.879-.828-1.291-.996-.792-2.953-1.253-6.757-.774m-41.54-.954l.115-.657.155.027.45.077A337.432 337.432 0 00106.54 519c4.495.658 10.026 1.368 14.231 1.585 7.108.369 10.572-.09 16.045-.814a403.68 403.68 0 013.232-.42m-41.425-1.611l-.115.657.115-.657zm52.506 39.931l.009-.002.036-.007.145-.031a12.594 12.594 0 002.229-.722c1.311-.57 2.478-1.395 2.788-2.488.307-1.078-.238-2.372-1.233-3.709-.813-1.092-1.812-2.064-2.551-2.782-.142-.139-.275-.268-.395-.387m17.82-351.344c-1.682-22.507-21.509-39.245-43.981-37.173-21.695 2.005-37.887 20.856-36.598 42.605l.368 6.192c-2.022-.242-4.965-.268-7.5.985a8.192 8.192 0 00-3.717 3.647c-.913 1.759-1.395 4.081-1.255 7.114.141 3.041.862 5.369 1.962 7.13a9.628 9.628 0 004.125 3.663c2.735 1.291 5.769 1.281 7.783 1.011l3.386 57.077c.95 16.038 14.731 28.262 30.768 27.296 16.357-.988 28.666-15.301 27.204-31.626-.356-3.96-.689-7.537-.932-10.122l-.291-3.061-.05-.525a29.67 29.67 0 002.854-.81c2.056-.694 4.802-1.849 7.551-3.696 5.517-3.708 11.039-10.205 11.016-21.259m-22.142 25.233l-.664.064v.001l.028.288.08.831a2737.791 2737.791 0 011.222 13.175c1.395 15.577-10.35 29.234-25.956 30.176-15.302.922-28.45-10.742-29.357-26.044l-3.475-58.566-.743.139c-1.818.339-4.976.504-7.713-.788a8.304 8.304 0 01-3.563-3.163c-.955-1.529-1.628-3.624-1.76-6.485-.133-2.866.328-4.94 1.105-6.438a6.86 6.86 0 013.124-3.067c2.52-1.245 5.614-1.059 7.516-.747l.822.134-.465-7.838c-1.247-21.031 14.411-39.259 35.389-41.198m24.298 108.868l-.612.105.06.617.664-.064m-.112-.658h.001l.01-.001.04-.008.169-.033c.151-.031.374-.079.66-.148a28.35 28.35 0 002.381-.693c1.977-.667 4.608-1.776 7.234-3.54 5.232-3.516 10.448-9.634 10.426-20.149-.02-10.02-1.313-29.923-2.689-48.352-1.627-21.761-20.799-37.948-42.53-35.944m43.859 35.845c1.376 18.416 2.674 38.37 2.693 48.448l-2.693-48.448z" fill="#B1FA16"/><path d="M150.559 269.57s-13.612 1.303-28.228-7.586c0 0 7.223 15.585 28.714 13.333l-.486-5.747z" fill="#B1FA16"/><path d="M88.543 224.75c-.067-.043-.248.193-.674.411a2.559 2.559 0 01-1.916.129c-1.583-.499-3.008-2.911-3.203-5.563a8.452 8.452 0 01.549-3.709c.398-1.098 1.061-1.885 1.838-2.059a1.313 1.313 0 011.549.632c.216.404.135.703.214.724.043.034.305-.262.158-.864a1.627 1.627 0 00-.622-.897c-.366-.271-.892-.394-1.437-.31-1.132.134-2.107 1.225-2.576 2.411a8.712 8.712 0 00-.698 4.148c.232 2.964 1.88 5.671 4.04 6.188 1.047.223 1.897-.131 2.33-.499.438-.384.5-.716.448-.742zm72.39-16.749c.08 1.627-1.229 3.033-2.926 3.15-1.692.115-3.132-1.105-3.213-2.73-.081-1.627 1.227-3.038 2.921-3.153 1.696-.117 3.136 1.108 3.218 2.733zm2.931-3.99c-.376.409-2.733-1.287-6.048-1.229-3.31.009-5.718 1.749-6.085 1.349-.176-.178.2-.908 1.249-1.694 1.033-.784 2.799-1.555 4.863-1.576 2.065-.019 3.811.714 4.82 1.48 1.032.765 1.387 1.486 1.201 1.67zm-36.134 4.901c.08 1.626-1.232 3.032-2.926 3.148-1.693.116-3.134-1.104-3.214-2.73-.081-1.626 1.229-3.037 2.923-3.152 1.693-.118 3.134 1.108 3.217 2.734zm3.571-3.814c-.377.409-2.739-1.285-6.051-1.23-3.309.01-5.717 1.749-6.083 1.347-.179-.175.196-.906 1.248-1.691 1.032-.784 2.799-1.556 4.863-1.577 2.066-.018 3.812.717 4.821 1.481 1.027.767 1.385 1.488 1.202 1.67z" fill="#000"/><path d="M143.68 229.5c-.018-.189 2.036-.573 5.368-1.045.845-.102 1.645-.281 1.779-.862.19-.614-.177-1.519-.603-2.501-.824-2.034-1.686-4.168-2.594-6.404-3.608-9.125-6.232-16.633-5.865-16.775.37-.143 3.595 7.14 7.2 16.263.871 2.249 1.701 4.393 2.491 6.448.334.955.901 2.038.487 3.313-.218.635-.834 1.103-1.374 1.257-.537.175-1.016.189-1.434.221-3.354.23-5.439.273-5.455.085z" fill="#B1FA16"/><path d="M135.122 193.098c-.386.878-3.659.234-7.57.446-3.915.135-7.119 1.064-7.578.225-.204-.402.395-1.211 1.718-1.999 1.31-.786 3.365-1.482 5.711-1.586 2.346-.103 4.456.407 5.83 1.076 1.388.666 2.059 1.42 1.889 1.838zm29.982-1.296c-.571.761-2.866.011-5.613.016-2.745-.094-5.061.577-5.607-.202-.241-.379.114-1.137 1.121-1.864.99-.726 2.655-1.33 4.543-1.3 1.887.032 3.532.691 4.497 1.45.982.758 1.312 1.53 1.059 1.9z" fill="#000"/><path d="M94.772 220.717c3.73 1.795 8.34-1.105 9.943-4.919 1.605-3.818 1.083-8.145.641-12.26-.599-5.614-.988-11.32.012-16.877 1-5.556 3.523-11.007 7.889-14.585 4.368-3.575 10.747-4.936 15.849-2.518 3.148 1.491 5.54 4.207 8.484 6.069 2.647 1.675 5.855 2.645 8.944 2.116 3.088-.531 7.27-2.7 6.745-5.791-1.221-7.195 3.774-1.158 3.445-2.383-.549-2.038-4.698-5.536-6.419-6.802-3.176-2.334-6.54-3.454-9.907-4.044-9.341-1.639-19.39-.455-28.147 3.178-8.76 3.633-16.452 10.402-20.034 19.181-2.78 6.814-5.676 35.667 2.555 39.635z" fill="#B1FA16"/><path fill-rule="evenodd" clip-rule="evenodd" d="M112.506 162.517c8.644-3.586 18.564-4.753 27.777-3.138 3.297.579 6.556 1.668 9.627 3.925a37.559 37.559 0 013.579 3.052c.536.523 1.04 1.054 1.462 1.563l-.019-.009c-.305-.132-.682-.248-1.069-.215a1.38 1.38 0 00-1.08.668c-.235.375-.338.87-.359 1.447-.022.588.041 1.33.198 2.254m3.458-2.322zm0 0c0 .003.001.003 0 0zm-43.574-7.225l-.239-.576.239.576zm28.007-4.451c-9.469-1.661-19.647-.461-28.518 3.219-8.891 3.688-16.733 10.571-20.395 19.545-.727 1.782-1.438 4.931-1.974 8.667a93.624 93.624 0 00-.927 12.466c-.022 4.308.302 8.561 1.164 12.007.85 3.401 2.274 6.217 4.62 7.348 2.106 1.013 4.42.68 6.373-.37 1.95-1.047 3.611-2.84 4.474-4.892 1.629-3.877 1.16-8.229.732-12.192l-.043-.397c-.598-5.606-.977-11.231.005-16.687.981-5.452 3.447-10.739 7.655-14.188 4.212-3.448 10.319-4.717 15.141-2.432h.001c1.497.709 2.829 1.717 4.185 2.812l.682.555c1.125.918 2.288 1.868 3.546 2.663 2.742 1.735 6.116 2.774 9.412 2.21h.001c1.626-.279 3.544-.988 5.007-2.054 1.45-1.056 2.607-2.592 2.282-4.505-.148-.875-.197-1.519-.18-1.982.017-.475.101-.699.157-.788.029-.045.037-.046.055-.047h.007c.067-.006.205.014.427.11.387.167.8.459 1.188.732l.181.127c.103.072.207.143.303.202.085.053.208.124.338.166a.829.829 0 00.325.043.719.719 0 00.527-.292.753.753 0 00.142-.456 1.028 1.028 0 00-.039-.26c-.172-.641-.602-1.328-1.109-1.981-.519-.667-1.166-1.358-1.839-2.014a38.632 38.632 0 00-3.719-3.171c-3.282-2.412-6.75-3.561-10.187-4.164zm-47.679 23.268c3.503-8.583 11.043-15.238 19.672-18.817l-.239-.576m17.124 7.014c-5.381-2.55-12.032-1.098-16.556 2.605h-.001c-4.524 3.708-7.103 9.323-8.122 14.983-1.018 5.657-.619 11.444-.019 17.065v.001l.028.257c.438 4.076.873 8.12-.62 11.673-.741 1.763-2.187 3.327-3.876 4.235-1.685.905-3.54 1.124-5.164.343-1.77-.854-3.07-3.132-3.905-6.47-.823-3.294-1.145-7.423-1.124-11.677a92.42 92.42 0 01.914-12.284c.532-3.714 1.226-6.728 1.888-8.352m36.557-12.379c1.651.782 3.089 1.878 4.453 2.98l.706.574c1.124.917 2.213 1.806 3.397 2.554 2.551 1.615 5.593 2.516 8.474 2.023m.001 0c1.462-.251 3.178-.893 4.447-1.817l-4.447 1.817zm4.447-1.817c1.281-.934 1.952-2.029 1.753-3.205l-1.753 3.205z" fill="#B1FA16"/><path d="M136.666 239.303c-.034.66 2.719 1.347 6.15 1.531 3.433.183 6.243-.203 6.278-.862.036-.66-2.716-1.344-6.15-1.528-3.431-.186-6.241.2-6.278.859z" fill="#B1FA16"/><path fill-rule="evenodd" clip-rule="evenodd" d="M150.76 197.134a4.458 4.458 0 011.052-.256s7.578-.657 11.354-.453c3.775.207 7.845 1.426 9.92 4.587 1.627 2.475 1.705 5.642 1.485 8.597-.299 4.047-1.358 8.53-4.789 10.7-2.448 1.548-5.61 1.53-8.411.79-4.883-1.294-9.167-4.704-11.523-9.174-1.827-3.456-2.476-7.509-1.894-11.374a4.294 4.294 0 011.174-2.351c-1.657.072-3.517.13-5.483.17a234.06 234.06 0 01-6.702.042 4.347 4.347 0 011.548 2.6c.701 3.888.163 8.007-1.581 11.557-2.254 4.587-6.487 8.158-11.387 9.608-2.81.831-6.004.942-8.525-.554-3.532-2.092-4.732-6.595-5.154-10.679-.306-2.981-.32-6.182 1.252-8.732.143-.233.297-.455.46-.668l-7.329 2.948-.003.001-.785.316c-4.01 1.626-7.698 3-10.43 3.816-2.936 1.096-5.818 1.35-.273-.802l7.057-2.838.085-.035 3.113-1.251c3.871-1.573 7.442-2.906 10.142-3.73 2.156-1.67 5.078-2.451 7.86-2.684 3.813-.317 11.49.128 11.49.128.195.018.387.048.575.089 2.25-.143 5.258-.263 8.564-.33 2.649-.053 5.107-.063 7.138-.038z" fill="#B1FA16"/><path d="M91.34 295.817c.02.002.04-.117.061-.356.023-.239.023-.6-.04-1.064-.109-.935-.575-2.268-1.424-3.812-.838-1.551-1.944-3.37-2.591-5.741-.697-2.349-.993-5.154-.975-8.254-.004-3.121.391-6.476.618-10.222.01-.949-.096-2.038-.712-2.973-.563-.891-1.694-1.726-3.015-1.39a2.45 2.45 0 00-1.468 1.123c-.355.561-.355 1.402.044 1.986.937 1.195 2.391 1.083 3.474.673 2.183-1.029 3.394-3.619 2.744-6.013a5.378 5.378 0 00-2.046-2.977c-.519-.362-1.119-.636-1.806-.714-.662-.08-1.491.099-2.026.687-.5.542-.808 1.351-.486 2.195.373.861 1.27 1.135 1.915 1.167 1.367.069 2.665-.561 3.55-1.526.892-.956 1.431-2.328 1.225-3.713-.203-1.379-1.085-2.56-2.236-3.261-.963-.597-2.148-.871-3.323-.597a3.227 3.227 0 00-1.553.91c-.432.432-.745 1.204-.527 1.914.187.721.837 1.197 1.395 1.371a3.86 3.86 0 001.71.147c1.094-.172 2.059-.638 2.89-1.287 1.63-1.263 2.676-3.563 1.88-5.65-.742-1.942-2.805-3.417-4.959-2.937-1.033.248-2.022.991-2.203 2.229-.074.612.202 1.25.627 1.629.423.389.942.603 1.487.653 1.103.073 2-.45 2.696-.997.707-.563 1.307-1.259 1.704-2.079.856-1.618.483-3.861-1.066-4.916-1.578-1.122-3.986-.213-4.293 1.687l-.05.319.276.151c2.183 1.184 4.791-.039 5.577-2.003.418-1.002.232-2.133-.248-2.969a4.235 4.235 0 00-2.073-1.829 3.37 3.37 0 00-2.606-.019c-.804.292-1.494 1.207-1.278 2.108.076.439.41.854.835.999.423.154.845.085 1.195-.062.735-.305 1.087-1.034 1.224-1.618.41-2.394.207-4.216.065-5.46-.17-1.236-.366-1.868-.405-1.858-.186-.015.61 2.665-.175 7.178-.149.522-.431 1.023-.94 1.209-.502.218-1.084.027-1.16-.515-.241-1.183 1.673-1.914 2.953-1.264 1.337.544 2.473 2.268 1.818 3.781-.572 1.482-2.788 2.419-4.295 1.511l.225.469c.127-1.071 1.827-1.769 2.788-.992 1.045.739 1.379 2.371.689 3.633-.62 1.222-2.061 2.507-3.358 2.447-.631-.056-1.199-.566-1.107-1.078.048-.528.685-1.121 1.358-1.246 1.416-.351 3.075.764 3.612 2.248.575 1.466-.179 3.281-1.528 4.318-.668.526-1.493.908-2.314 1.032-.786.121-1.711-.159-1.799-.664-.19-.465.473-1.165 1.23-1.342.762-.18 1.672-.005 2.401.459.885.533 1.542 1.448 1.68 2.415.15.963-.232 1.995-.92 2.733-.677.747-1.663 1.197-2.599 1.151-.995-.025-1.192-.722-.647-1.381.459-.54 1.564-.382 2.309.175.785.553 1.358 1.408 1.608 2.325.556 1.825-.494 3.959-2.065 4.699-.761.34-1.83.251-2.154-.255-.388-.496.097-1.303.812-1.496.645-.197 1.454.26 1.877.938.455.669.577 1.535.575 2.406-.178 3.603-.531 7.082-.474 10.23.037 3.155.4 6.037 1.184 8.445.728 2.434 1.941 4.293 2.824 5.775.9 1.491 1.411 2.737 1.592 3.626.189.887.16 1.379.216 1.379z" fill="#B1FA16"/><path d="M82.87 225.297c.146-1.105.392-2.222.976-3.171.583-.951 1.553-1.719 2.663-1.822 1.239-.117 2.502.689 2.925 1.859.409 1.135-.117 2.539-1.087 3.26l-.061.051-.024.018.01-.009-.256.168c-.383.241-.928.274-1.312.512-.79.49-1.046 1.531-1.008 2.459.034.928.289 1.847.22 2.774-.053.675-.434 1.459-1.11 1.473-.588.014-1-.563-1.243-1.096-.91-2.002-.986-4.295-.694-6.476zm67.989 48.055s4.623 6.774 5 11.177c.251 2.914-1.692 14.25-3.034 21.583a30.52 30.52 0 01-4.827 11.74l-2.992 4.382a103.158 103.158 0 00-10.75 20.262c-5.828 14.734-15.62 39.549-15.962 40.738-.489 1.696-4.352 8.665-4.352 8.665l-5.179-61.939-15.627-30.967a20.903 20.903 0 01-2.231-8.669l-.366-9.94a13.954 13.954 0 013.613-9.889l.785 8.949 25.915 23.54 30.057-20.224-.05-9.408z" fill="#B1FA16"/><path d="M122.169 303.182c-.138.216 2.902 1.094 5.418 5.113 2.611 3.877 4.582 10.143 6.29 17.136.174.689.344 1.374.507 2.015l.23.926.728-.609c5.231-4.384 9.25-8.923 12.155-12.142 2.879-3.252 4.596-5.265 4.485-5.375-.115-.111-2.045 1.716-5.081 4.819-3.053 3.072-7.165 7.494-12.319 11.776l.958.318c-.159-.644-.331-1.329-.503-2.02-1.715-7.018-3.851-13.402-6.756-17.326-1.416-1.959-2.937-3.293-4.155-3.905-1.19-.65-1.948-.772-1.957-.726z" fill="#000"/><path fill-rule="evenodd" clip-rule="evenodd" d="M124.436 303.317a8.687 8.687 0 00-1.533-.669c-.19-.06-.354-.1-.482-.121a1.3 1.3 0 00-.208-.02.681.681 0 00-.655.407.693.693 0 00-.044.433.731.731 0 00.143.298c.078.099.173.167.218.199.102.072.244.154.38.232l.025.014c.302.174.721.415 1.217.766.999.708 2.321 1.871 3.525 3.793l.006.009.006.01c2.536 3.766 4.486 9.923 6.195 16.921l.001.005.239.947.074.297-.311.259.41.136.096.376v.001l.486 1.958 1.546-1.294.288-.242.419.139-.101-.41c4.709-4.027 8.408-8.134 11.155-11.183l.461-.511.004-.005a214.948 214.948 0 003.375-3.878c.39-.464.694-.839.896-1.11.099-.133.187-.257.248-.363.029-.048.07-.124.099-.212a.746.746 0 00.04-.23.688.688 0 00-.203-.497l-.006-.006a.688.688 0 00-.507-.191.769.769 0 00-.236.05c-.088.033-.164.08-.211.11a4.338 4.338 0 00-.352.269c-.261.218-.62.545-1.061.963-.885.838-2.132 2.077-3.651 3.63-.562.565-1.157 1.173-1.786 1.816-2.46 2.513-5.438 5.557-8.946 8.607l-.011-.041c-1.714-7.018-3.874-13.518-6.865-17.56-1.451-2.006-3.042-3.425-4.383-4.102z" fill="#000"/><path d="M103.673 319.874c-.196.131 2.184 3.973 5.834 9.483l.951 1.439.028-1.751c.039-2.516.74-5.384 1.599-8.424 1.372-5.311 2.645-10.1 4.608-13.044 1.891-2.975 3.846-4.188 3.697-4.37-.041-.062-.549.188-1.384.781-.824.604-1.937 1.62-3.014 3.118-2.257 2.988-3.7 7.929-5.063 13.207-.85 3.026-1.558 6.023-1.516 8.748l.979-.31c-3.808-5.398-6.527-9.013-6.719-8.877z" fill="#000"/><path fill-rule="evenodd" clip-rule="evenodd" d="M111.163 328.687c.095-2.333.747-4.996 1.564-7.885l.002-.007.002-.007c.687-2.659 1.343-5.163 2.07-7.368.728-2.209 1.515-4.075 2.446-5.473l.004-.006.004-.006a17.567 17.567 0 012.52-3.116c.224-.222.402-.388.558-.535.097-.091.186-.174.272-.257.094-.091.2-.197.277-.299a.938.938 0 00.144-.262.713.713 0 00-.104-.661.688.688 0 00-.396-.256.756.756 0 00-.244-.014 1.088 1.088 0 00-.235.057 2.818 2.818 0 00-.371.175c-.267.145-.625.372-1.056.678l-.007.005c-.878.643-2.039 1.707-3.158 3.261-2.348 3.113-3.816 8.188-5.17 13.428-.517 1.844-.992 3.707-1.274 5.521a196.781 196.781 0 00-2.803-3.825 46.563 46.563 0 00-1.43-1.821 7.187 7.187 0 00-.455-.5 1.616 1.616 0 00-.223-.182.796.796 0 00-.224-.102.69.69 0 00-.878.601.821.821 0 00.015.245c.021.1.058.198.089.273.067.161.172.368.301.605.261.481.662 1.158 1.177 1.994.995 1.613 2.434 3.848 4.172 6.475l.008.544.29-.092 2.041 3.088.059-3.753.312-.099-.299-.424zm-7.109-8.266a.636.636 0 00.271-.459c.009-.084-.004-.144-.006-.155l-.004-.017.018.046c.04.096.118.254.241.481.244.449.63 1.101 1.142 1.931.78 1.267 1.842 2.926 3.112 4.867" fill="#000"/><path d="M115.527 387.668c.331.021 1.809-18.758 3.3-41.937 1.492-23.189 2.436-41.998 2.105-42.021-.331-.021-1.806 18.756-3.3 41.942-1.491 23.182-2.433 41.996-2.105 42.016z" fill="#000"/><path fill-rule="evenodd" clip-rule="evenodd" d="M119.054 315.926c-.597 7.594-1.34 18.088-2.087 29.684-.746 11.593-1.354 22.095-1.736 29.702a514.6 514.6 0 00-.39 9.022 80.475 80.475 0 00-.046 2.477c.002.285.008.518.02.686.006.08.015.171.033.253.007.035.024.11.063.191a.683.683 0 00.574.393h.002a.678.678 0 00.615-.315.828.828 0 00.088-.182c.028-.079.049-.168.065-.247.034-.165.071-.396.109-.678.076-.569.168-1.401.272-2.463.209-2.126.472-5.201.771-8.997.597-7.594 1.34-18.087 2.085-29.679.746-11.596 1.356-22.099 1.737-29.707.191-3.803.325-6.886.39-9.021.033-1.066.049-1.903.046-2.477a10.661 10.661 0 00-.021-.687 2.035 2.035 0 00-.032-.253.869.869 0 00-.064-.192.686.686 0 00-.57-.391h-.004a.678.678 0 00-.617.314.873.873 0 00-.088.182c-.028.08-.049.169-.065.247-.034.166-.07.396-.108.678a76.141 76.141 0 00-.272 2.463 496.126 496.126 0 00-.77 8.997z" fill="#000"/><path d="M173.437 209.636c.285.142 1.287-2.385.272-5.393-.983-3.017-3.296-4.444-3.441-4.162-.229.265 1.463 1.898 2.307 4.538.901 2.623.519 4.944.862 5.017zm-37.901 1.299c.243.202 1.757-1.751 1.744-4.654.013-2.907-1.503-4.858-1.747-4.655-.305.167.575 2.118.549 4.655.028 2.533-.852 4.486-.546 4.654z" fill="#000"/><defs><filter id="filter0_f_87_4" x="73" y="0" width="714" height="714" filterUnits="userSpaceOnUse" color-interpolation-filters="sRGB"><feFlood flood-opacity="0" result="BackgroundImageFix"/><feBlend in="SourceGraphic" in2="BackgroundImageFix" result="shape"/><feGaussianBlur stdDeviation="88" result="effect1_foregroundBlur_87_4"/></filter></defs></svg>