<svg width="600" height="422" viewBox="0 0 600 422" fill="none" xmlns="http://www.w3.org/2000/svg">
<path fill-rule="evenodd" clip-rule="evenodd" d="M202.616 5.0872C204.355 4.37431 212.544 -3.33826 200.736 1.69428C193.773 2.0249 197.805 10.7655 202.616 5.0872ZM131.133 34.5923C129.194 36.019 149.136 33.8635 148.637 25.5466C171.272 21.3373 134.838 17.6353 131.133 34.5923ZM119.394 50.4926C120.836 50.1022 120.841 49.4077 120.854 47.7862C120.86 47.0712 120.868 46.176 121 45.0471C114.068 44.0702 105.597 58.6928 119.394 50.4926ZM505.079 205.348C504.577 202.779 504.432 202.036 502.685 208.25C500.858 201.53 500.506 199.766 500.27 198.584C500.005 197.258 499.886 196.662 498 190.636C501.569 177.211 514.565 184.162 505.982 191.207L506.121 191.867C506.821 192.503 507.238 191.794 507.48 191.382C507.589 191.198 507.662 191.073 507.711 191.153C520.591 189.174 517.422 196.225 515.271 201.011C514.481 202.767 513.829 204.218 514.158 204.805C521.98 207.146 525.781 214.577 529.113 221.09C532.164 227.055 534.821 232.25 539.813 232.062C545.16 235.201 539.247 240.888 537.449 241.196C549.165 246.532 535.006 249.125 529.895 246.187C508.008 249.835 499.795 248.206 521.218 239.212C506.511 237.521 508.096 235.839 510.384 233.41C512.062 231.629 514.118 229.446 510.399 226.564L510.525 225.706C517.856 223.522 517.794 223.418 516.541 221.317C515.688 219.886 514.282 217.529 514.284 212.96C507.136 215.877 505.77 208.883 505.079 205.348ZM86.4776 160C91.3092 167.378 83.2027 165.097 82 162.568C82.5561 161.43 84.9603 160.558 86.0258 160.171C86.2377 160.094 86.3967 160.037 86.4776 160ZM131.815 103.177C132.802 102.603 134 101.331 134 101.331C131.968 92.2598 122.988 113.295 131.815 103.177ZM128.908 78.041C137.04 71.4793 118.319 82.4078 112.233 87.3585C108.029 88.2985 108.621 88.4276 110.128 88.7567C112.032 89.1725 115.398 89.9076 112.407 93C117.194 88.4761 122.799 89.9685 127.536 91.2298C131.811 92.3682 135.379 93.3184 137 89.486C135.292 88.7546 130.024 80.1175 128.908 78.041ZM124.34 94.0777C119.603 93.0571 106.044 102.517 124.133 97.5477C124.4 97.4307 128.062 94.809 124.34 94.0777ZM494 191.356C494.675 193.523 501.084 196.174 496.144 191.028C496.383 190.52 494.464 188.823 494 191.356ZM598.789 203.197C598.93 203.295 599.129 203.434 599.541 203.624C602.035 217.527 593.386 204.587 596.816 203.056C598.454 202.964 598.461 202.969 598.789 203.197ZM489.575 234.929C489.523 234.945 489.52 234.945 489.559 234.93L489.575 234.929ZM489.559 234.93C489.573 234.925 489.591 234.919 489.615 234.911L489.748 234.863C490.235 234.692 491.472 234.256 492.678 233.754C507.09 238.751 509.129 189.901 481 215.431C483.431 217.381 482.675 221.073 481.927 224.729C480.797 230.245 479.685 235.68 489.559 234.93ZM490.3 46.054C492.683 47.5739 494.97 49.033 495.581 48.7429C503.192 58.3729 490.849 49.1627 485.963 45.5168C485.002 44.7994 484.329 44.2975 484.154 44.1968C483.201 41.5253 486.85 43.8533 490.3 46.054ZM144.96 95.1519C142.128 93.9302 142.02 100.594 146.939 96.8399C146.947 96.7623 146.957 96.687 146.966 96.6138C147.056 95.9398 147.122 95.4502 144.96 95.1519ZM492.794 185.203C498.044 180.202 492.404 192.724 491.405 187.852C488.22 186.721 491.285 185.709 492.436 185.329C492.606 185.273 492.734 185.23 492.794 185.203ZM99.0029 420.493C98.9612 421.009 106.013 423.27 107.783 421.023C113.2 420.929 98.7651 412.38 99.0029 420.493ZM203.012 7.61249C202.68 8.87734 209.555 6.79243 205.953 5C205.899 5.09534 205.851 5.18478 205.805 5.26988L205.804 5.2717C205.397 6.0297 205.174 6.44331 203.012 7.61249ZM169.593 225.839C163.541 227.018 157.045 221.424 159.552 219C161.452 222.939 165.99 222.986 169.054 223.018C170.535 223.033 171.671 223.045 172 223.491C172 223.491 171.188 224.648 170.383 224.82C169.579 224.992 169.593 225.839 169.593 225.839ZM178.981 15.7541C179.33 12.3376 174.903 14.6073 170.823 16.6988L170.822 16.6994C170.201 17.0181 169.587 17.3325 169 17.6221C170.307 21.0765 174.322 21.0251 178.981 15.7541ZM201.86 17.7409C207.626 17.6956 213.135 17.6523 212.997 21.8472C202.565 29.3638 163.019 22.083 186.136 14.1751C187.294 13.0401 187.249 12.3812 187.232 12.124C187.227 12.0571 187.225 12.0173 187.246 12.0034L187.282 11.9988C187.265 11.9965 187.254 11.998 187.246 12.0034C183.321 12.492 184.491 10.4308 184.889 9.72956L184.89 9.72914C184.951 9.62141 184.994 9.54586 184.997 9.51668C197.991 4.39378 196.217 13.6465 191.697 16.6349C194.18 17.8014 198.076 17.7707 201.86 17.7409ZM166.926 199.899C167.534 201.569 168.868 202.522 170.661 203.802C171.826 204.634 173.185 205.605 174.664 207C190.576 206.75 156.817 193.093 166.926 199.899ZM39.8658 410.171C38.1975 406.844 24.0248 404.492 32.8999 411.853C34.5151 414.359 49.3234 415.628 39.8658 410.171ZM66.005 412.402C38.1846 404.797 66.2612 420.976 74.9286 415.992C118.983 423.432 50.9274 386.379 66.005 412.402ZM43.7601 390.479C46.1276 391.761 48.0878 392.822 47.1762 394.378C58.4663 396.289 56.0252 401.045 49.3462 402C46.6656 401.932 46.2309 401.213 45.9655 400.774C45.873 400.621 45.8011 400.502 45.6617 400.457C36.9327 400.882 36.1532 398.271 35.0699 394.643C34.3992 392.396 33.612 389.76 30.7493 387.212C17.1027 377.756 8.19769 378.091 0 378.494C0.0675812 375.928 0.423119 375.387 0.58596 375.139C0.649078 375.043 0.683243 374.991 0.660461 374.883C2.43216 374.583 3.29016 373.879 3.6254 373.604C3.73663 373.512 3.79031 373.468 3.80072 373.502C15.86 369.336 22.8283 374.648 29.2512 379.544C32.0829 381.703 34.8085 383.78 37.8176 384.93C38.3731 387.562 41.2886 389.141 43.7601 390.479Z" fill="url(#paint0_linear_0_1276)"/>
<defs>
<linearGradient id="paint0_linear_0_1276" x1="-290.237" y1="108.931" x2="2.90957" y2="820.598" gradientUnits="userSpaceOnUse">
<stop stop-color="#3F3F3F"/>
<stop offset="1"/>
</linearGradient>
</defs>
</svg>
