<?xml version="1.0" encoding="UTF-8"?>
<svg width="802px" height="790px" viewBox="0 0 802 790" version="1.1" xmlns="http://www.w3.org/2000/svg" xmlns:xlink="http://www.w3.org/1999/xlink">
    <title>Combined Shape</title>
    <defs>
        <linearGradient x1="21.6215702%" y1="-2.22551403%" x2="59.1258245%" y2="84.7969194%" id="linearGradient-1">
            <stop stop-color="#3F3F3F" offset="0%"></stop>
            <stop stop-color="#000000" offset="100%"></stop>
        </linearGradient>
    </defs>
    <g id="Page-1" stroke="none" stroke-width="1" fill="none" fill-rule="evenodd">
        <g id="site" transform="translate(-559, -35695)" fill="url(#linearGradient-1)">
            <g id="tokens" transform="translate(43, 31199.6182)">
                <g id="Group-9" transform="translate(0, 1086)">
                    <path d="M785.050773,3440.38179 C806.862624,3443.63091 774.97181,3449.11959 773.115132,3450.7493 C771.172001,3453.28761 768.384926,3451.68984 767.978391,3451.6579 C767.978391,3451.6579 767.082987,3452.41404 766.899789,3452.9796 C767.457616,3458.14172 762.822096,3458.37042 762.080042,3459.67048 L760.713264,3460.94787 C761.277432,3464.52055 759.336964,3464.91108 757.528822,3465.0467 L757.220644,3465.068 C755.640169,3465.17078 754.281713,3465.2048 754.977528,3467.20402 C756.976458,3465.99774 757.463666,3466.59632 757.819261,3467.30093 L757.891408,3467.44766 C757.962581,3467.5948 758.032196,3467.74146 758.112473,3467.8726 C754.297226,3470.79 753.21142,3473.15319 750.487125,3473.64766 L750.890572,3474.89312 C760.22851,3469.75057 763.571354,3470.14203 757.649333,3476.89781 C755.046484,3476.70723 754.966207,3479.03642 754.810797,3478.84275 C750.293188,3483.07879 752.476627,3482.58369 756.069414,3480.80263 L756.367776,3480.65341 L756.671833,3480.49883 C756.978519,3480.34171 757.292767,3480.17718 757.611639,3480.00714 L757.931943,3479.83535 C758.253572,3479.66186 758.578844,3479.48351 758.904823,3479.30222 L759.230928,3479.12001 L759.744334,3478.82983 L760.218428,3478.55841 C763.365855,3476.7457 766.203785,3474.89751 766.002326,3474.79114 C773.505199,3473.63221 775.381432,3464.6791 783.274373,3470.06889 C783.875426,3475.54109 783.596512,3476.82776 778.270399,3479.30323 C777.239016,3479.72811 775.661286,3481.24945 773.842508,3483.06455 L773.249974,3483.65711 C772.783243,3484.12432 772.30349,3484.60452 771.815487,3485.08516 L771.395288,3485.49695 L770.971717,3485.90721 C766.863035,3489.85993 762.375052,3493.35109 760.221306,3489.24632 C758.748613,3488.86844 757.67548,3490.90292 756.805113,3492.74794 L756.657857,3493.06189 C755.688902,3495.13604 754.970096,3496.76856 754.207686,3494.0757 C753.710582,3485.77263 748.881572,3489.5564 747.999547,3491.66101 C742.339972,3500.56261 734.467616,3490.14153 735.005888,3492.67572 C746.636299,3501.8356 720.08259,3507.27118 714.353541,3503.0189 L714.192,3502.89079 L714.221123,3502.932 C717.323561,3507.45212 713.9415,3508.62848 710.174442,3509.65277 L709.762256,3509.76406 L709.484261,3509.83868 L708.928653,3509.98864 C706.526767,3510.64303 704.239755,3511.37748 703.634821,3513.01207 C702.045397,3513.91492 700.441758,3514.8233 698.85397,3515.74665 L697.90344,3516.30253 C689.212091,3521.41597 681.182116,3527.03937 678.815646,3534.74326 C680.013141,3535.07093 680.346438,3535.08172 680.607664,3535.04513 L680.703793,3535.02971 C680.815611,3535.01036 680.932588,3534.98839 681.121055,3534.98638 L682.081299,3536.05465 C681.739605,3538.47449 681.455545,3538.39208 681.509064,3538.53424 L679.90454,3539.73128 C680.627039,3542.55392 678.248556,3543.63146 678.609805,3543.6428 C676.411237,3548.62091 678.267859,3548.07682 680.547852,3546.93339 L680.777128,3546.81723 L680.892573,3546.75799 C684.144847,3547.12782 683.699203,3547.72428 684.403176,3547.79845 L684.766484,3548.77607 C687.278822,3549.35302 689.385842,3551.71576 689.514059,3551.76545 L689.528453,3552.14083 C689.918736,3560.09572 697.465547,3558.11289 697.217383,3564.10232 L697.199229,3564.39842 C711.070481,3564.03644 709.360314,3567.72711 706.307671,3572.27586 L706.11726,3572.55829 L706.021005,3572.70028 L705.739088,3573.11448 C704.368483,3575.1255 702.908401,3577.26114 702.517109,3579.26155 L701.560981,3579.52939 L701.396309,3580.63372 L700.665577,3581.44651 C701.290302,3589.01303 703.349732,3592.96883 705.713806,3596.06343 L706.670963,3595.79662 C707.394491,3590.43052 710.701313,3593.98869 710.264932,3594.90038 C713.631447,3591.18666 716.607896,3589.64245 716.799327,3585.20556 C716.82197,3569.37306 725.866586,3570.86885 734.761967,3566.44741 C745.902602,3559.36198 745.020181,3553.1354 741.827073,3546.6213 L741.613294,3546.19137 C741.360218,3545.68927 741.094732,3545.18532 740.821258,3544.67899 L740.577636,3544.23095 L740.454477,3544.00644 C769.260776,3522.10322 747.130902,3517.49223 779.964463,3522.01462 C781.721309,3524.73836 782.713458,3527.64135 782.496297,3528.24708 C786.022338,3528.72198 783.464775,3531.28708 783.784856,3531.21188 C788.5058,3535.58387 796.433733,3533.81406 791.227006,3537.97589 C788.172339,3540.77896 788.675618,3545.11386 786.305369,3545.03866 C786.755129,3547.0382 786.157164,3547.98182 786.041893,3548.17961 C783.576134,3548.89258 783.083631,3549.02813 782.668407,3549.15175 L782.53026,3549.19329 C782.724868,3551.15263 783.720528,3550.90538 784.691692,3550.38999 L784.885354,3550.28391 L785.083022,3550.17056 L785.289147,3550.04982 C786.00063,3549.63225 786.59566,3549.29545 786.698523,3549.92161 C791.42873,3549.94839 790.738136,3554.73657 791.773512,3556.84324 C805.983686,3555.87077 814.409753,3535.11618 816.260256,3549.64038 L816.34465,3551.80783 L817.230792,3553.37779 C818.120021,3559.85646 818.6233,3564.9372 819.01028,3565.34823 C824.404321,3569.36791 817.38826,3570.68651 817.255493,3571.65589 L816.413606,3573.88927 C818.670644,3578.18915 822.836848,3579.95793 821.275551,3582.93406 C829.537974,3583.68299 842.833189,3592.26627 830.351043,3591.29071 C823.909275,3591.02286 824.080123,3594.23284 820.674497,3593.99384 C822.943885,3596.64547 828.448051,3591.63478 828.463489,3592.20137 C831.235126,3594.56146 834.02426,3590.78284 834.419473,3593.28509 L836.706357,3593.1213 C834.177006,3597.52665 835.937458,3597.47762 838.25913,3596.9758 L838.509858,3596.92048 C838.594037,3596.90159 838.678761,3596.8823 838.763862,3596.8628 L839.216977,3596.75856 L839.520192,3596.68982 C841.742039,3596.19342 843.881203,3595.91352 842.992715,3599.01071 L844.088814,3600.94844 C841.497643,3605.73615 840.15547,3604.81523 840.488223,3605.16504 L840.678255,3605.35502 C840.783109,3605.46179 840.922943,3605.61112 841.098986,3605.82315 L842.80643,3607.85462 C820.73625,3623.36365 793.621957,3613.538 773.111015,3615.00495 C766.68002,3617.70628 762.630699,3619.69012 758.61504,3621.7092 L757.783924,3622.12769 C755.84218,3623.10649 753.870543,3624.1056 751.604837,3625.2097 C746.551462,3628.74211 743.59251,3629.35814 741.066851,3630.97961 L740.740594,3632.32397 C750.430519,3627.84999 768.605175,3617.6813 775.514199,3620.81504 C789.475307,3619.76634 781.635885,3627.35243 780.694166,3629.07279 C778.149753,3628.85102 776.202928,3630.14349 775.171138,3630.77429 L774.94124,3630.91186 C774.623233,3631.09583 774.427106,3631.17148 774.36767,3631.0373 C770.441269,3627.34006 768.79146,3628.57316 768.595912,3629.28294 C770.451561,3631.0373 772.801226,3630.17712 772.314414,3630.4769 C773.304505,3633.95883 778.614152,3630.30589 777.741389,3631.16401 C776.668962,3638.03105 774.776262,3635.70392 775.656229,3637.56953 C777.957522,3642.05793 776.111136,3643.44144 778.740743,3643.8638 C779.974755,3645.18859 779.536316,3645.4317 779.797733,3646.05083 C781.790661,3645.73417 781.830179,3646.26478 781.711579,3646.7652 L781.683351,3646.87555 C781.634398,3647.05745 781.581997,3647.22629 781.617359,3647.3375 C787.429256,3648.2121 788.254675,3650.56601 789.892133,3648.32645 C791.987586,3653.66267 796.967888,3639.50108 803.208961,3642.46794 C800.817099,3647.72896 806.023825,3648.41607 803.046348,3650.30332 C801.287444,3650.62473 801.463437,3651.10684 800.962216,3651.63738 C797.511306,3653.45561 793.609606,3650.79677 793.579759,3651.41589 C767.058286,3666.48299 744.916062,3656.5296 776.069968,3650.81016 C776.718364,3641.61394 739.36867,3655.98361 731.941957,3660.15678 L731.818453,3662.67346 C727.136619,3668.49076 734.155768,3670.64277 735.192173,3670.40377 L734.637434,3671.58845 C728.434441,3670.85704 727.198371,3672.09014 726.474843,3669.85572 C724.758136,3671.83157 722.610195,3671.85217 722.361128,3672.15298 C716.467925,3671.20111 713.66644,3671.04556 711.24576,3672.51044 C717.105,3672.47954 722.290113,3673.04509 718.777451,3674.27613 C699.760909,3671.63481 705.436951,3692.48109 695.617347,3682.07855 C699.8628,3689.19283 694.023115,3692.51612 691.691976,3694.92566 C689.538888,3696.73049 689.756049,3697.65867 689.527567,3697.64115 C689.659755,3695.79041 689.998285,3693.55205 690.394407,3691.3491 L690.514822,3690.6897 C691.367742,3686.08726 692.409039,3681.82755 692.261124,3681.82822 C685.765838,3689.69554 686.363804,3687.88452 688.231803,3691.99692 C684.182927,3697.42379 687.206719,3698.19229 689.103536,3698.87528 C688.290954,3701.49563 688.172122,3703.56206 688.164716,3705.15244 L688.164668,3705.49805 C688.16598,3705.83589 688.170665,3706.15051 688.172332,3706.44275 L688.172756,3706.72757 C688.163258,3709.22443 687.736757,3709.93245 682.23465,3709.47458 C683.828253,3712.10297 680.000011,3714.29284 675.734653,3716.00344 L675.250183,3716.19504 L674.71487,3716.40106 C671.499549,3717.62222 668.260724,3718.57402 667.077611,3719.23945 C659.635461,3726.49692 650.155493,3728.88482 648.249413,3735.93214 C646.73443,3742.82905 648.404823,3746.29759 647.902573,3750.07724 C649.244431,3751.09953 649.029464,3752.579 648.693585,3754.0709 L648.59557,3754.49711 C648.200272,3756.20023 647.825667,3757.86427 649.615163,3758.82534 C648.593166,3762.66886 650.667006,3768.76225 649.59355,3769.09087 C649.170548,3774.78043 645.599222,3779.65926 642.399436,3776.88196 C641.154104,3773.15999 639.677201,3771.73426 639.167746,3771.58076 C639.261403,3768.37903 638.930001,3768.86836 638.99587,3768.51295 C636.39405,3762.94907 637.042447,3758.20828 635.778588,3756.36738 C643.208388,3750.79629 633.215878,3744.27436 634.342853,3740.68838 C629.10497,3744.08734 626.469501,3741.94257 624.232377,3739.37007 L623.942657,3739.03252 L623.656367,3738.69264 L623.514169,3738.52262 L623.230988,3738.18398 C623.152191,3738.09001 623.073477,3737.9965 622.99474,3737.9037 L622.758355,3737.62768 C620.746701,3735.30382 618.651341,3733.60149 614.714966,3736.59968 L614.537944,3734.4178 C609.385765,3737.66795 600.140455,3731.91864 605.536554,3736.6141 C606.880433,3737.22756 606.827365,3737.56519 606.738114,3737.87342 L606.712805,3737.9609 C606.692852,3738.03348 606.678195,3738.10573 606.687201,3738.18097 C609.888015,3752.95035 594.307974,3733.263 583.117475,3736.92212 C582.611213,3736.97695 581.632714,3738.39595 580.50216,3739.90739 L580.266187,3740.221 C578.362732,3742.73379 576.103199,3745.25957 574.939446,3742.0317 C565.758976,3755.58756 564.214145,3774.86697 562.307037,3789.69609 L563.523552,3791.65134 C562.283365,3801.65417 568.068502,3810.7958 572.825468,3816.11965 C575.768982,3815.38515 577.11106,3814.75675 577.521711,3815.80958 L580.036048,3815.80855 C582.812364,3812.93356 583.671279,3813.99211 584.467372,3815.30319 L584.626302,3815.56768 C584.750118,3815.77432 584.875406,3815.98113 585.009146,3816.17425 C586.322531,3815.57639 585.436038,3813.74221 585.210809,3813.421 L585.19,3813.39279 L585.284494,3813.32395 C585.938922,3812.83723 586.649357,3812.30688 586.857993,3812.151 L586.866853,3812.14427 C592.281478,3808.9137 590.381574,3802.6833 592.082843,3800.75896 L592.162091,3799.37649 L592.962809,3798.22993 C613.67183,3792.7811 609.249118,3803.47779 603.925298,3814.59798 L603.399592,3815.69259 C603.000562,3816.52173 602.600941,3817.35037 602.210742,3818.172 L601.878827,3818.87438 C599.24571,3824.47731 597.190218,3829.66339 598.941436,3832.33744 C596.686551,3833.06229 596.657631,3834.80709 596.562753,3835.00611 L596.680039,3834.98885 C598.199136,3834.77884 597.16226,3837.35324 597.374009,3836.85213 L597.397635,3836.79596 C598.13866,3836.85056 598.654289,3835.66176 598.527697,3835.95226 C599.855366,3836.51473 599.710249,3837.48823 599.83787,3837.28838 C602.254433,3834.86853 604.258287,3836.62289 604.091557,3837.42024 C615.647422,3834.88399 623.529041,3840.9578 623.515662,3847.94433 C617.247829,3865.79698 622.483373,3895.80446 643.272199,3883.23343 C654.716911,3893.93575 663.608176,3893.14459 664.350229,3880.9506 C670.513083,3877.42025 682.349921,3873.86724 690.546475,3872.21177 C687.73367,3878.01877 682.038073,3899.09478 690.302555,3890.68045 C687.906575,3858.58381 719.114,3902.09975 736.288272,3889.97891 C746.715105,3892.04953 759.304288,3904.41967 749.269581,3905.75166 C757.35704,3906.22245 770.454648,3913.722 767.469966,3920.27174 C776.939642,3921.03715 777.906062,3931.31607 783.244526,3927.45813 C799.946395,3922.40417 829.870406,3962.49587 812.551016,3966.96985 C808.138833,3970.71447 806.729857,3976.38652 802.350608,3974.69088 L803.462145,3976.50602 L804.673514,3976.81198 C808.836631,3974.32415 811.454917,3974.06043 813.089288,3975.16476 C811.706042,3965.25463 826.02737,3970.74023 826.913512,3972.68002 C827.224331,3980.81827 817.528231,3977.49498 821.393909,3981.85976 C822.572283,3981.05017 823.135957,3980.71214 823.429225,3980.55869 L823.527197,3980.50924 C823.758243,3980.39745 823.761918,3980.43438 823.882516,3980.33306 C826.771483,3978.79194 828.061071,3978.34383 828.660066,3976.11044 L830.252239,3974.69913 C853.227087,3978.74765 847.697192,3993.62725 857.667059,3988.95858 C877.852773,3995.43415 901.688032,4007.27788 905,4020.5319 C903.481929,4042.90899 875.747028,4048.55632 874.906171,4053.78541 C875.940518,4065.57351 867.759401,4076.50142 868.050665,4082.9224 C865.54662,4086.38476 861.09121,4090.09745 859.528883,4092.03724 C856.152082,4097.43435 848.792939,4099.00415 841.220659,4100.1678 L840.362712,4100.29799 C840.219636,4100.31945 840.076536,4100.34083 839.933435,4100.36212 L838.70117,4100.54426 C838.338006,4100.59776 837.975312,4100.6512 837.613504,4100.70495 L836.891192,4100.81298 C825.477188,4102.53374 815.229276,4104.82249 819.345799,4119.65887 C815.671553,4123.94536 804.313294,4139.87161 806.027942,4133.31053 C806.55443,4132.91513 807.257244,4132.39068 807.946236,4131.8733 L808.262558,4131.6355 C809.570708,4130.6509 810.719554,4129.76988 810.35676,4129.96046 C811.329922,4127.88069 810.474887,4127.89622 809.618274,4128.14104 L809.462915,4128.18767 C809.437155,4128.19572 809.411494,4128.20388 809.385985,4128.2121 L809.157831,4128.28745 C808.885235,4128.37863 808.651795,4128.45653 808.530958,4128.44612 C806.670163,4132.06507 802.766405,4134.08624 804.3946,4136.92639 C798.660923,4151.54124 785.462453,4145.71261 778.60386,4140.22186 C781.303453,4146.26374 787.834761,4146.75204 785.53141,4150.64191 L786.232295,4151.43514 L787.99017,4151.56494 C788.897925,4154.69559 788.271142,4156.31809 788.37715,4156.31088 L787.013459,4157.20917 L786.65118,4159.63726 C779.201825,4162.57115 773.809843,4160.87654 771.033059,4160.7385 C771.033059,4160.7385 771.728799,4162.49698 772.717861,4163.19954 C772.717861,4163.19954 773.146008,4164.91785 772.964869,4166.13137 L774.276071,4167.43143 C774.276071,4167.43143 774.515874,4168.56976 773.573127,4169.39492 C769.111541,4170.22007 767.095337,4168.05777 766.757759,4167.40465 C762.422859,4166.85539 764.372178,4169.21287 767.151853,4171.21098 L767.469787,4171.43547 C769.876503,4173.105 772.733453,4174.42662 772.702423,4173.4012 C773.138729,4175.81235 772.265968,4175.82719 771.325056,4175.66104 L771.129819,4175.62481 L770.935079,4175.58777 C770.224931,4175.45583 769.574064,4175.39559 769.524251,4176.37424 C771.542514,4183.33502 772.905175,4184.23744 768.439473,4183.65437 C765.822216,4190.25974 779.295483,4191.74214 777.647732,4193.45117 L777.707426,4195.80508 C777.029183,4197.13502 777.086818,4198.35472 777.307067,4199.38179 C769.631288,4196.69102 762.03064,4193.84263 754.573052,4190.71095 C727.659453,4158.228 717.360242,4104.0458 710.144515,4062.28936 C674.935559,4021.39517 622.406183,3974.53842 644.327129,3936.76767 C650.589816,3936.39475 645.563199,3926.80192 650.918131,3928.79218 L651.974091,3928.12464 C662.673661,3908.34251 638.095319,3871.23003 640.248407,3895.74677 C637.701135,3899.37865 634.949294,3897.26453 632.44607,3894.64265 L632.146906,3894.32593 L631.850302,3894.00633 L631.556433,3893.68589 C631.458952,3893.57916 631.361956,3893.47262 631.265473,3893.36661 L630.977596,3893.0505 C629.546206,3891.48122 628.236948,3890.10631 627.147711,3890.0572 C612.657594,3885.20619 609.23756,3865.04599 601.53708,3855.44182 C588.567093,3852.00522 577.295287,3835.11371 569.930326,3828.91422 C517.883646,3830.23797 533.699373,3729.96443 523.386782,3711.7296 C519.872062,3726.31046 523.250928,3739.01231 524.014595,3750.52845 C525.360789,3790.47695 522.715743,3767.67028 517.676777,3745.65786 C517.626252,3744.16694 517.13534,3743.04956 516.697667,3742.16456 L516.445401,3741.66032 C516.048768,3740.86263 515.804099,3740.2691 516.20502,3739.73857 C517.440528,3739.92362 518.273789,3739.28038 518.395197,3739.21764 L518.300955,3737.52922 C517.911606,3730.13527 517.939289,3722.81814 518.298247,3715.57043 L518.386925,3713.89911 C538.80318,3634.75926 582.484517,3565.01755 641.63474,3512.28272 C650.59702,3511.25874 672.089819,3497.0817 656.99659,3503.77258 C651.619183,3507.48115 651.118001,3506.47104 650.796505,3504.55992 L650.76478,3504.36595 C665.278568,3492.17712 680.665119,3481.0102 696.801957,3470.92289 C697.715888,3470.77867 698.779052,3470.59942 700.19832,3470.34291 C700.786161,3472.77888 697.679789,3476.12499 697.175547,3476.55599 L697.159,3476.56779 L697.413277,3476.40239 L698.023107,3475.99988 L698.633059,3475.59417 C699.141181,3475.25501 699.648591,3474.91348 700.153196,3474.57201 L700.757242,3474.16243 C700.857647,3474.09423 700.957907,3474.02606 701.058004,3473.95796 L701.656501,3473.55021 C702.416758,3473.03164 703.165544,3472.51888 703.895356,3472.0206 L704.379005,3471.69065 C711.508985,3466.83101 716.620503,3463.57514 712.458159,3470.30686 C714.68998,3476.60782 719.224896,3475.60651 723.556159,3474.10982 L724.074772,3473.92827 C724.444283,3473.79752 724.811561,3473.66513 725.175027,3473.53539 L725.609256,3473.38124 C729.13887,3472.13724 732.241784,3471.31217 733.43224,3474.94051 L732.115892,3475.23823 C731.296649,3475.38657 730.375514,3476.34874 730.614289,3476.09944 C728.412828,3476.48369 726.731114,3478.37403 726.753757,3478.97873 C749.432194,3469.35499 758.881286,3448.75183 785.050773,3440.38179 Z M1174.56193,3519.99868 C1174.53305,3522.17519 1175.70787,3522.78321 1175.40566,3522.74611 C1177.34924,3525.66169 1177.67954,3525.70189 1177.5221,3524.82098 L1177.48949,3524.65636 C1177.47708,3524.59857 1177.46321,3524.53798 1177.44812,3524.47501 L1177.39937,3524.2793 C1177.3474,3524.07722 1177.28642,3523.85719 1177.22262,3523.62996 L1177.15812,3523.40072 L1177.12927,3523.29816 L1177.07176,3523.09245 C1177.06224,3523.05817 1177.05276,3523.02392 1177.04334,3522.98972 L1176.98775,3522.78553 C1176.56079,3521.19598 1176.36205,3519.8911 1178.46495,3522.47096 C1177.23855,3517.09666 1183.26843,3523.282 1183.61603,3523.55818 C1188.69594,3523.70658 1187.49017,3524.43518 1188.27717,3525.82848 C1188.80218,3528.03385 1188.87541,3530.01559 1189.90377,3530.26807 C1197.55406,3532.89802 1206.38846,3537.66842 1213.72004,3543.55078 C1214.38839,3544.29347 1215.05383,3545.03875 1215.71641,3545.78656 C1220.35801,3549.71323 1224.23262,3554.08191 1226.60725,3558.60408 L1226.79887,3558.83893 C1227.48994,3560.28376 1228.06549,3561.73889 1228.42547,3563.20123 C1209.67331,3552.573 1210.50648,3553.22875 1218.74125,3559.10077 L1219.58865,3559.70492 C1220.70161,3560.49839 1221.92868,3561.37365 1223.24448,3562.31805 C1224.45953,3566.90089 1229.28983,3571.40953 1230.45434,3574.72377 C1243.52595,3582.99081 1230.91231,3574.61144 1230.78028,3568.37663 C1231.85402,3571.30132 1233.09692,3572.76367 1234.3718,3572.8997 C1237.82997,3575.30872 1236.897,3573.44384 1235.63339,3571.60733 L1235.48914,3571.39978 C1235.46494,3571.36528 1235.44067,3571.33086 1235.41637,3571.29653 L1235.27034,3571.09194 C1234.61325,3570.17859 1233.96975,3569.37794 1233.8767,3569.25878 C1230.42959,3567.36876 1232.31302,3564.19777 1230.15212,3564.19262 C1230.19441,3563.85151 1230.17378,3563.49803 1230.19029,3563.15073 C1285.11726,3632.45702 1318,3719.99985 1318,3815.26766 C1318,3859.11636 1310.96858,3901.30486 1298.11357,3940.87062 C1299.4163,3913.91153 1307.94539,3858.74124 1299.88974,3855.23636 C1299.58744,3852.89445 1299.51438,3847.4246 1299.50588,3847.5749 L1299.505,3847.72883 C1297.72884,3853.1392 1299.77009,3854.41913 1297.6587,3856.41942 C1295.13989,3850.24439 1296.49832,3844.96284 1294.45088,3841.17662 C1292.81603,3847.35783 1295.80621,3853.58336 1295.75464,3857.23768 C1297.89181,3864.64112 1296.41271,3872.79274 1296.95938,3876.73458 C1300.76854,3898.36471 1293.39983,3938.06959 1291.70515,3959.12262 C1253.83843,4059.08044 1177.69033,4140.16896 1081.11223,4184.62775 C1074.69556,4185.62738 1068.73272,4185.66448 1063.37638,4184.55046 C1081.81671,4164.99172 1108.15075,4137.0598 1111.55249,4112.44211 C1132.42189,4091.4942 1153.17164,4073.53385 1153.9112,4049.95392 C1157.67188,4039.15895 1146.28875,4025.42383 1156.68065,4019.46418 C1161.31703,4010.38301 1167.42014,4005.52296 1167.3335,3996.78083 C1163.06638,3990.2482 1160.03184,3993.72939 1151.3862,3993.42022 C1151.83792,3974.58165 1140.85821,3976.47752 1129.2646,3979.76203 L1128.55411,3979.96469 L1127.81298,3980.17843 C1127.56583,3980.25 1127.3186,3980.32183 1127.07141,3980.39374 L1125.81525,3980.75915 C1117.6585,3983.12687 1109.72714,3985.23505 1105.77325,3980.37351 C1075.40623,3983.91137 1063.66828,3972.35792 1055.56106,3951.32448 C1057.36301,3949.1727 1056.77405,3949.58388 1057.30525,3948.8254 C1053.06082,3942.75445 1050.90095,3938.23551 1048.08405,3935.30361 C1045.14441,3932.36037 1047.5446,3931.59673 1046.86384,3931.53284 C1051.14798,3929.12409 1049.3717,3928.85062 1047.35856,3929.13258 L1047.14603,3929.16424 C1047.11055,3929.16984 1047.07505,3929.17559 1047.03958,3929.18148 L1046.82367,3929.21919 C1045.89149,3929.38977 1045.01902,3929.64984 1044.78753,3929.84171 C1041.31875,3927.1726 1042.02117,3928.41647 1042.26046,3926.56561 C1039.18883,3925.53898 1039.6152,3923.57051 1040.23531,3921.39547 L1040.33989,3921.03117 C1040.7433,3919.62835 1041.15087,3918.15787 1040.70091,3916.81149 C1044.95835,3920.95148 1043.78695,3918.28141 1042.00538,3914.77585 L1041.8556,3914.48192 C1041.72979,3914.23557 1041.60167,3913.986 1041.47288,3913.7352 L1041.32003,3913.43755 C1041.16707,3913.13957 1041.01404,3912.84098 1040.86363,3912.5451 L1040.67343,3912.16947 C1039.763,3910.36354 1038.99554,3908.71456 1039.00002,3908.00238 L1040.32649,3907.37478 C1051.08868,3901.377 1052.47804,3887.12558 1050.69053,3879.2656 C1054.23152,3873.86863 1053.25989,3870.04633 1050.72767,3868.92304 C1047.10215,3864.10674 1053.22159,3856.99805 1059.52643,3850.22773 L1060.59712,3849.08178 C1065.82332,3843.49994 1070.80438,3838.25395 1070.07052,3834.84906 C1081.29995,3821.92601 1097.80321,3820.9439 1103.77533,3808.30838 L1102.8202,3807.3376 C1101.99308,3798.201 1106.86972,3793.41568 1112.56337,3789.44066 L1113.10794,3789.06442 L1113.6651,3788.68662 C1113.94456,3788.49869 1114.22519,3788.31213 1114.50644,3788.12653 L1115.26862,3787.62638 C1115.39577,3787.54331 1115.52294,3787.46037 1115.65009,3787.37752 L1116.4123,3786.88112 L1117.04287,3786.46933 C1122.38997,3782.96707 1127.36022,3779.3779 1128.10526,3772.91324 C1130.98227,3771.18743 1131.35855,3771.94196 1131.54395,3772.84458 L1131.57128,3772.9843 L1131.61071,3773.19413 C1131.63754,3773.33293 1131.66687,3773.46817 1131.70709,3773.59134 C1146.14848,3790.31092 1160.54344,3770.55638 1175.76873,3773.1616 C1179.57892,3770.66562 1186.25139,3773.7181 1186.69595,3773.42027 C1196.27815,3775.63698 1204.51431,3774.26223 1212.18833,3774.3457 C1212.1873,3779.61901 1214.32137,3777.27451 1214.94643,3776.96638 L1216.17386,3777.01275 C1216.63487,3778.08035 1216.42126,3779.15976 1216.37639,3779.35568 L1216.36881,3779.38713 C1213.78399,3782.05419 1213.69838,3782.8879 1213.33015,3783.2084 C1215.24762,3786.65248 1217.162,3788.51983 1216.78345,3788.55487 C1215.33014,3793.57775 1213.15996,3795.43686 1211.62412,3796.47359 C1210.61935,3800.5003 1212.61266,3800.94846 1214.29437,3801.30073 L1214.53213,3801.35078 C1215.23693,3801.50122 1215.85554,3801.66451 1216.12745,3802.1148 L1216.21615,3803.37103 C1225.04127,3811.54017 1236.53063,3808.2991 1235.24751,3820.02053 C1238.51536,3822.50033 1240.11697,3822.95344 1241.59844,3823.39796 L1241.88409,3823.48443 C1242.45405,3823.65933 1243.02095,3823.85245 1243.67448,3824.18085 C1260.7863,3845.75636 1247.56616,3791.24666 1273.25657,3824.33955 C1278.56753,3826.53977 1281.01929,3826.25019 1281.55977,3829.31091 C1286.10487,3832.83744 1288.62368,3830.87322 1290.56308,3829.35071 L1290.79311,3829.17051 C1292.61265,3827.75195 1293.95153,3826.95916 1296.08986,3832.04082 C1307.75882,3821.39813 1300.96284,3801.34898 1303.95501,3791.48522 L1304.024,3791.26579 L1303.95723,3791.41569 C1302.7644,3793.86137 1299.11971,3791.11411 1299.10118,3791.61986 L1299.1048,3791.65578 C1297.58299,3799.27358 1295.91154,3796.64556 1294.13568,3793.40889 L1293.86852,3792.92003 C1293.80898,3792.81092 1293.74933,3792.70166 1293.68956,3792.59262 L1293.50993,3792.26651 L1293.41987,3792.1046 L1293.23925,3791.78445 C1292.33455,3790.19852 1291.40562,3788.86197 1290.45812,3788.97946 C1289.64224,3796.07889 1289.41945,3793.97245 1286.49219,3793.49016 C1282.57885,3784.97785 1281.15029,3792.18445 1280.5737,3785.42819 L1279.56494,3783.8968 C1280.20341,3781.49151 1279.19465,3779.51286 1278.96567,3779.66744 C1277.50486,3778.30467 1277.07852,3778.08278 1276.80785,3777.92974 L1276.73399,3777.88696 C1276.60356,3777.80856 1276.49288,3777.72104 1276.27564,3777.47032 C1280.16215,3773.09359 1276.79136,3770.48321 1276.80684,3767.4802 C1273.52166,3769.71855 1275.22871,3758.06719 1276.39219,3761.07124 C1284.53552,3762.9695 1286.42411,3758.85968 1281.06674,3756.39153 C1279.5148,3758.10065 1279.18976,3758.46335 1278.97292,3758.73497 L1278.92032,3758.80171 L1278.86834,3758.869 C1278.77125,3758.99556 1278.65771,3759.14694 1278.42003,3759.444 C1276.24069,3760.065 1275.85276,3759.96946 1275.70691,3759.95417 L1275.67685,3759.95243 C1275.64967,3759.95284 1275.62904,3759.96079 1275.59591,3759.98607 C1272.61088,3758.04658 1271.95385,3756.8089 1271.38758,3756.04423 C1270.35509,3755.61243 1269.42782,3756.30187 1269.42782,3756.30187 L1269.11322,3757.49524 L1267.29374,3757.77452 L1266.72747,3758.7927 C1269.84808,3763.54605 1267.89418,3762.94377 1265.68663,3761.83737 L1265.47236,3761.72889 L1265.36494,3761.67377 L1265.1283,3761.55102 L1264.89281,3761.42753 C1263.44681,3760.66645 1262.14011,3759.93798 1262.34276,3760.62089 C1262.9107,3761.84118 1263.57867,3763.1952 1264.27582,3764.59509 L1264.57617,3765.1976 C1264.72704,3765.5 1264.87878,3765.80393 1265.0307,3766.10852 L1265.48629,3767.02344 L1265.78854,3767.63303 L1266.01657,3768.09503 L1266.24253,3768.55515 C1266.27999,3768.63164 1266.31734,3768.70803 1266.35457,3768.7843 L1266.57642,3769.24035 C1269.99006,3776.28333 1272.17117,3782.04444 1264.00237,3775.21651 C1260.422,3773.27052 1262.49742,3775.56541 1264.79495,3777.90556 L1265.179,3778.29529 L1265.43455,3778.55344 C1265.477,3778.59626 1265.51935,3778.63897 1265.56157,3778.68153 L1265.81303,3778.93497 C1267.22597,3780.35886 1268.40784,3781.55429 1268.00235,3781.47399 C1264.28705,3781.74502 1265.84558,3781.89857 1266.29323,3784.66559 C1261.33503,3801.54284 1248.69869,3733.07027 1238.88235,3735.99393 C1239.84676,3733.6381 1234.07165,3732.19637 1234.96179,3731.95728 C1229.9118,3722.86305 1227.1682,3720.53507 1225.28796,3718.55696 L1225.10575,3718.36329 L1224.92599,3718.16741 L1224.75135,3717.97104 C1223.86168,3716.95273 1223.16398,3715.85762 1222.45954,3713.80215 C1221.13722,3713.46516 1219.60242,3713.64963 1219.60242,3713.64963 C1219.33011,3715.15732 1216.04596,3714.95533 1216.79274,3715.02128 C1216.89959,3715.52364 1217.26477,3716.72078 1217.63575,3718.00374 L1217.75928,3718.43374 L1217.88116,3718.86509 C1218.4228,3720.80166 1218.85122,3722.62688 1218.31413,3722.2856 C1225.07118,3728.70178 1228.03042,3744.01673 1237.06286,3743.58493 C1236.33793,3747.20003 1238.79527,3749.49128 1241.55556,3751.64248 L1241.97152,3751.96426 C1242.11069,3752.07127 1242.25026,3752.17808 1242.38986,3752.28483 L1242.93126,3752.69933 C1245.54141,3754.70451 1248.00078,3756.75805 1247.93129,3759.83767 C1244.6358,3762.76855 1243.85189,3756.58527 1241.38156,3756.19985 C1235.71475,3756.45851 1245.91892,3766.26313 1239.90142,3768.18819 C1238.91123,3777.40745 1234.66886,3770.46673 1237.36405,3767.28955 C1238.27297,3759.61532 1232.8199,3754.60487 1227.37344,3750.02731 L1226.77961,3749.52954 C1223.41821,3746.71741 1220.14783,3744.03971 1218.47297,3740.9694 C1215.02689,3736.32782 1210.72057,3733.53195 1210.93305,3729.49221 C1201.56745,3708.73598 1193.71809,3736.77199 1179.74602,3723.57585 C1174.18442,3726.40263 1176.60318,3729.67874 1177.31282,3734.38731 C1170.22157,3741.24971 1164.5001,3740.63035 1160.96324,3748.17807 C1164.56095,3768.78694 1138.61886,3770.85833 1126.79119,3769.12805 C1126.33469,3762.5769 1122.12661,3762.10743 1118.08273,3761.91677 L1117.41094,3761.88658 L1116.96676,3761.86638 L1116.52692,3761.84404 C1113.90325,3761.70012 1111.57815,3761.34579 1110.71185,3759.06167 C1113.42608,3754.34299 1111.67736,3751.86998 1110.0465,3749.59382 L1109.73684,3749.15984 C1109.32074,3748.5712 1108.93248,3747.98705 1108.65307,3747.37116 C1112.76857,3736.98531 1116.36009,3724.09833 1109.40603,3716.85566 C1109.10898,3712.88908 1115.49367,3714.77704 1115.65974,3714.89556 C1115.86293,3712.34083 1117.603,3711.89873 1117.73708,3711.99972 C1123.50807,3715.26037 1129.26461,3715.47163 1133.278,3716.70932 C1155.23249,3723.17909 1153.36762,3720.28737 1153.74823,3705.60312 C1153.48933,3697.44635 1145.73589,3689.16385 1137.99896,3685.7548 C1135.88139,3687.37173 1134.31873,3684.35326 1134.02374,3684.84895 C1134.57453,3681.73361 1132.89223,3680.3094 1131.89379,3679.149 L1132.64984,3678.2277 C1134.88706,3678.45236 1137.50386,3677.61555 1138.03816,3678.62033 C1140.52705,3677.38059 1140.05877,3677.35276 1140.29188,3677.30433 C1149.52854,3683.26789 1149.23631,3679.94353 1147.7054,3675.78138 L1147.60714,3675.51748 C1147.55726,3675.38504 1147.50632,3675.25195 1147.45459,3675.11847 L1147.32851,3674.79621 C1147.26483,3674.63484 1147.20029,3674.4732 1147.13535,3674.31178 L1147.00508,3673.98934 C1146.98333,3673.93569 1146.96156,3673.8821 1146.9398,3673.82859 L1146.80945,3673.50853 C1146.74444,3673.34909 1146.6798,3673.19063 1146.61598,3673.03361 L1146.48955,3672.72166 C1146.44786,3672.6184 1146.40667,3672.51594 1146.36611,3672.41439 C1154.48159,3676.39435 1154.50531,3676.88489 1160.09476,3672.71943 C1160.11436,3671.82388 1162.97767,3671.08292 1162.46814,3670.59135 C1160.88537,3666.46342 1163.02555,3665.30535 1165.4807,3664.6194 L1165.78267,3664.53759 L1166.0864,3664.45949 L1166.62302,3664.32742 L1166.97762,3664.24125 C1169.09197,3663.72455 1170.92718,3663.18393 1170.27521,3661.00109 C1174.52686,3661.37002 1173.45105,3650.34318 1178.22462,3649.05191 C1207.44467,3651.97247 1169.20662,3626.7107 1185.3695,3625.28957 C1177.63154,3622.32675 1185.03325,3623.52631 1187.19208,3618.62606 C1191.22919,3620.73765 1194.41432,3631.66865 1190.36689,3633.80085 C1200.75776,3641.45163 1192.63919,3640.68284 1189.80578,3636.19996 C1189.93781,3640.38192 1195.07239,3641.34651 1194.61236,3643.95585 L1195.35397,3644.4804 C1197.12807,3644.49483 1197.68712,3645.27495 1198.15334,3645.00392 C1198.47268,3645.63132 1198.68045,3646.10965 1198.75079,3646.27589 L1198.77737,3646.33951 L1198.42048,3648.04506 C1206.69481,3643.27054 1214.22545,3655.4887 1218.90618,3646.46111 C1221.44459,3645.43984 1224.44509,3644.94415 1225.65705,3645.29969 C1226.97009,3652.85359 1232.67712,3648.32434 1229.30736,3645.63977 C1241.3764,3649.5476 1215.68805,3610.01791 1236.42336,3631.07815 C1237.61779,3623.18932 1219.91392,3606.78921 1235.92723,3613.0034 L1237.31866,3613.31669 C1241.44448,3613.87731 1238.3986,3611.59362 1239.39807,3610.41982 C1241.40219,3609.63043 1242.35835,3609.40061 1242.55535,3609.13576 C1237.33826,3608.86679 1237.12166,3605.22587 1236.19541,3604.19429 C1229.37338,3606.15336 1226.22022,3609.15844 1222.72359,3605.99569 C1220.20994,3605.28976 1217.36932,3600.97693 1216.3358,3601.21602 C1213.65712,3591.85557 1209.33429,3589.99234 1206.74328,3583.54112 L1206.64014,3582.16225 C1203.97692,3578.44404 1207.52616,3579.59104 1207.70357,3579.90948 C1207.30749,3576.44066 1209.49933,3571.94542 1207.12492,3569.12893 C1209.08365,3560.97216 1192.27199,3557.17254 1199.26009,3568.78782 C1200.96199,3569.97192 1200.81449,3569.8699 1200.95373,3569.98532 C1196.22426,3586.81493 1199.62958,3592.82889 1203.86806,3597.37149 L1204.14865,3597.66897 C1204.19559,3597.71823 1204.24261,3597.76733 1204.2897,3597.8163 L1204.57304,3598.1085 L1204.85763,3598.39792 C1204.95265,3598.494 1205.04781,3598.58971 1205.14301,3598.68516 L1205.60378,3599.14537 C1205.68053,3599.22187 1205.75724,3599.29829 1205.83386,3599.37471 L1206.29222,3599.83341 C1208.80388,3602.3598 1211.13215,3604.98229 1211.81597,3609.57065 C1214.58955,3610.85678 1211.28271,3613.46406 1211.95006,3613.57536 C1205.22498,3615.32935 1213.41473,3625.64202 1213.8139,3627.59078 C1213.34665,3631.11525 1214.18935,3631.48109 1213.75098,3632.19423 C1213.24024,3635.02662 1212.22576,3634.90929 1211.15075,3634.52338 L1210.96051,3634.45304 C1210.35665,3634.22491 1209.74204,3633.96216 1209.19402,3634.13269 C1208.23133,3633.5107 1207.46831,3635.55296 1207.18241,3635.65982 L1207.16,3635.66079 L1207.27283,3635.77251 C1211.63927,3640.19283 1202.35109,3639.93679 1203.97207,3637.33979 L1204.03984,3637.23876 C1202.58859,3635.79702 1201.95218,3634.24399 1201.9625,3634.41197 L1201.33434,3634.42227 C1199.81707,3633.49478 1202.14094,3637.26761 1201.02387,3637.20681 C1202.01716,3639.94394 1201.68503,3641.72988 1201.1002,3642.98508 C1198.64844,3644.48968 1197.0404,3642.27606 1196.59687,3641.05075 C1198.98056,3639.81821 1198.79696,3642.62748 1199.42409,3640.95078 C1198.62906,3639.01895 1197.89456,3639.21954 1197.36829,3639.47617 L1197.25483,3639.53328 C1197.01668,3639.65535 1196.82934,3639.75476 1196.7093,3639.59974 C1197.72735,3627.93602 1200.50505,3629.3458 1191.88107,3616.1239 C1188.19672,3614.32868 1188.23591,3611.28239 1187.20652,3609.7613 C1185.12092,3609.28519 1186.51029,3607.81563 1186.10802,3608.02277 C1184.45666,3608.77301 1184.64748,3606.40379 1184.49999,3606.94276 C1184.25759,3601.43449 1177.84402,3621.89186 1169.67078,3612.79214 L1169.41394,3611.70595 C1166.03593,3610.392 1164.89411,3606.95616 1165.15817,3606.03588 L1166.06172,3605.54122 C1161.70447,3600.71844 1162.93719,3598.99049 1163.84777,3598.05833 L1164.13416,3597.77097 C1164.80869,3597.07983 1164.71331,3596.80813 1159.77192,3595.37076 L1159.6894,3594.52056 L1160.20409,3593.86307 C1165.44078,3592.34508 1156.45682,3593.35192 1157.61102,3589.59455 C1159.71828,3588.92366 1159.414,3589.28745 1159.65536,3589.1679 L1160.5094,3589.71512 C1161.939,3589.09259 1163.04271,3589.40094 1163.22389,3589.48126 L1163.239,3589.48879 L1163.09774,3589.38245 C1162.12381,3588.68778 1160.96885,3588.52698 1159.8675,3588.40463 L1159.52176,3588.36669 C1157.63301,3588.15871 1155.9805,3587.9094 1155.7936,3585.02305 C1155.59212,3582.72561 1156.45235,3582.73706 1157.33704,3582.78653 L1157.51399,3582.79626 C1157.89677,3582.81552 1158.27115,3582.81349 1158.55274,3582.60538 C1156.00347,3581.41391 1156.52561,3580.64557 1157.349,3579.80763 L1157.65675,3579.49897 C1158.17537,3578.97651 1158.68131,3578.40654 1158.55789,3577.67937 C1160.62699,3578.09056 1161.80182,3578.32862 1162.03492,3578.09571 C1159.27852,3575.4751 1159.70605,3575.62732 1160.71402,3575.63423 L1160.86924,3575.63381 C1161.55792,3575.62412 1162.43683,3575.49137 1162.79098,3574.43418 C1165.73062,3573.79874 1166.09551,3571.75994 1166.26705,3569.68876 L1166.29949,3569.2745 L1166.33396,3568.82445 C1166.45317,3567.33095 1166.64568,3565.9214 1167.82757,3565.1232 C1168.15041,3564.23899 1169.33659,3563.57326 1169.08904,3563.63612 C1166.71876,3560.04158 1169.59961,3553.64395 1166.81778,3551.65499 C1166.59704,3543.7909 1165.99777,3541.44949 1168.20199,3539.59554 C1162.6868,3540.3262 1166.41654,3538.10434 1168.09368,3538.21667 C1167.78322,3537.21704 1167.60374,3536.87696 1167.81003,3536.72753 C1164.28143,3536.69352 1166.59911,3534.15117 1165.93279,3534.53762 L1166.66821,3533.80903 C1166.51659,3531.6727 1165.75022,3530.20211 1165.60272,3529.76825 C1167.27162,3528.08022 1166.22778,3526.7065 1166.55682,3526.87242 C1170.26489,3525.75428 1169.98434,3529.82803 1171.5078,3529.29214 C1171.09521,3527.28567 1169.93689,3526.08714 1169.99156,3525.49973 C1165.72031,3520.50055 1174.77441,3527.08162 1174.29272,3525.30496 C1172.24735,3522.09893 1171.94101,3517.7593 1174.56193,3519.99868 Z M1211.047,4082.33779 L1210.61287,4083.00158 C1204.17148,4092.74779 1198.5475,4097.36836 1194.26476,4105.76727 C1201.84697,4099.62418 1205.04964,4091.04179 1210.59576,4085.50055 C1211.16592,4084.44025 1211.06675,4082.82935 1211.048,4082.36009 L1211.047,4082.33779 Z M1219.788,4049.87679 L1219.29741,4050.68087 C1201.95349,4079.16299 1208.64524,4081.11779 1213.23628,4063.17686 C1217.28577,4060.28618 1217.22698,4056.20934 1219.42294,4054.08744 C1220.32109,4052.59394 1219.89764,4050.49783 1219.79017,4049.8869 L1219.788,4049.87679 Z M706.517612,4039.45796 C706.419838,4043.15623 710.044683,4042.39392 709.963376,4043.38287 L711.176804,4043.96182 L711.533936,4045.06203 C711.533936,4045.06203 711.292074,4045.81198 712.035157,4046.0551 C712.779269,4046.29821 714.146048,4045.84804 714.146048,4045.84804 C710.123931,4041.97567 709.022687,4035.46095 706.517612,4039.45796 Z M1240.19663,4021.66272 L1239.97008,4021.9125 C1238.73138,4023.29969 1237.6373,4024.86725 1237.87874,4024.62104 C1242.55329,4024.41802 1241.01436,4021.88391 1242.94731,4021.6036 C1243.33788,4018.81315 1241.71404,4020.01665 1240.19663,4021.66272 Z M727.782764,3839.40457 C726.013203,3841.65146 718.96117,3839.39113 719.00291,3838.87437 C718.765092,3830.76221 733.200162,3839.31052 727.782764,3839.40457 Z M694.928594,3834.37389 C686.261238,3839.3577 658.184648,3823.17896 686.005035,3830.78402 C670.927404,3804.76081 738.983158,3841.81338 694.928594,3834.37389 Z M659.865782,3828.55244 C669.32341,3834.00941 654.515064,3832.74105 652.899849,3830.23433 C644.024841,3822.87424 658.197509,3825.22534 659.865782,3828.55244 Z M657.817635,3803.31134 C658.905157,3808.46623 669.039395,3809.57903 667.176236,3812.75992 C678.466285,3814.67051 676.025221,3819.4265 669.346184,3820.38179 C665.730963,3820.28974 666.20083,3819.01432 665.661656,3818.83839 C651.527946,3819.52674 658.235521,3812.25569 650.749252,3805.59422 C637.102736,3796.13746 628.197694,3796.47294 620,3796.87592 C620.093769,3793.31455 620.742002,3793.65411 620.660463,3793.26443 C623.019989,3792.86554 623.758933,3791.74865 623.800721,3791.88366 C641.176612,3785.8819 647.983053,3799.55564 657.817635,3803.31134 Z M1300,3801.48187 C1293.86845,3814.88718 1293.01606,3801.39545 1299.46149,3800.40214 C1299.96763,3800.26758 1299.99117,3800.82003 1300,3801.48187 Z M1267.51812,3794.38179 C1282.67685,3799.6467 1276.63935,3804.59853 1270.13864,3798.72257 C1265.26063,3797.52664 1267.52705,3795.05324 1267.51812,3794.38179 Z M1281.45598,3795.3811 C1280.77352,3793.19771 1281.06429,3791.67604 1281.0473,3791.46143 L1281.044,3791.44579 L1281.13903,3791.41489 C1282.79162,3790.95472 1281.5791,3795.44595 1281.45598,3795.3811 Z M1235.70934,3770.80223 C1238.50985,3794.21193 1220.06807,3771.80349 1223.40553,3769.49611 C1227.59933,3768.90242 1232.71591,3770.81507 1235.70934,3770.80223 Z M1210,3750.22354 C1208.97446,3755.27581 1210.37135,3759.10434 1206.16529,3761.38179 C1196.80268,3759.84055 1205.52168,3732.76959 1210,3750.22354 Z M1287.99398,3757.16134 C1292.66118,3748.8458 1296.12196,3750.95237 1299.33006,3754.39241 L1299.56436,3754.64636 C1299.72028,3754.81708 1299.87566,3754.99044 1300.03059,3755.16539 L1300.37852,3755.56127 C1300.49428,3755.69383 1300.60984,3755.82684 1300.72525,3755.95985 L1301.11922,3756.41387 L1301.40585,3756.74253 C1304.12741,3759.85003 1306.81569,3762.46906 1310.08978,3758.69995 C1310.61789,3745.78412 1301.62567,3735.79503 1296.22086,3729.61691 C1287.37717,3742.06797 1293.74124,3725.50606 1287.43493,3726.1316 C1284.17554,3694.48662 1268.19007,3754.84055 1287.99398,3757.16134 Z M1206.45534,3730.38179 C1208.73973,3732.024 1206.9829,3734.47875 1207.71636,3734.92938 C1209.40865,3748.31809 1202.97447,3740.58991 1203.00008,3735.44351 C1203.33812,3732.59762 1204.95768,3733.14401 1205.78949,3732.34257 C1206.56188,3732.09255 1206.45534,3730.38179 1206.45534,3730.38179 Z M1291.58138,3721.33441 C1291.25131,3721.57968 1291.30392,3721.88369 1291.30392,3721.88369 C1301.2265,3740.48093 1300.423,3701.29956 1291.58138,3721.33441 Z M1125.98204,3609.58913 L1126.121,3610.24904 C1127.13357,3611.16817 1127.55352,3609.27518 1127.71087,3609.53439 C1138.338,3607.9019 1138.03913,3612.41687 1136.40142,3616.7341 L1136.2916,3617.0184 C1136.19864,3617.25497 1136.10227,3617.49051 1136.00409,3617.72399 L1135.82482,3618.14391 C1134.83178,3620.43852 1133.75394,3622.46526 1134.15822,3623.18707 C1149.14345,3627.67118 1149.37028,3650.83737 1159.81274,3650.4439 C1165.15964,3653.58237 1159.24668,3659.26961 1157.44939,3659.57736 C1169.16497,3664.91347 1155.00635,3667.50666 1149.89547,3664.56854 C1128.00821,3668.21717 1119.79524,3666.58753 1141.21761,3657.59349 C1127.4513,3656.01087 1127.96008,3654.43547 1129.9577,3652.24862 L1130.08176,3652.11396 L1130.21564,3651.97053 L1130.28362,3651.89815 L1130.42119,3651.75206 L1130.66145,3651.49588 C1132.26938,3649.76957 1133.91443,3647.66999 1130.39914,3644.94565 L1130.52482,3644.08745 C1142.84937,3640.41713 1134.27981,3642.62098 1134.2839,3631.3415 C1121.94198,3636.37916 1126.83726,3611.86629 1122.6848,3626.63226 C1120.93381,3620.1916 1120.53756,3618.30384 1120.29978,3617.11675 L1120.27138,3616.97463 C1120.25749,3616.90506 1120.24401,3616.83753 1120.23067,3616.77115 L1120.20409,3616.63966 L1120.17222,3616.48483 C1120.16219,3616.43672 1120.15201,3616.38853 1120.14158,3616.3399 L1120.1094,3616.19235 C1120.07622,3616.04277 1120.03972,3615.88603 1119.99688,3615.71238 L1119.95181,3615.53274 C1119.69107,3614.50979 1119.20798,3612.87764 1118,3609.01803 C1121.56903,3595.59254 1134.56488,3602.54384 1125.98204,3609.58913 Z M676.226534,3654.94959 L675.602224,3655.05763 L675.445522,3655.0848 L674.660089,3655.22026 C670.677066,3655.90137 666.699401,3656.4597 665.395562,3654.8875 L665.318,3654.78479 L665.415856,3654.98583 C667.440057,3659.2619 663.886089,3658.50278 662.420836,3657.36073 L662.350492,3657.30428 C658.638045,3662.90511 664.142411,3662.68088 670.587533,3661.01121 L671.043938,3660.89101 C671.349105,3660.80935 671.655925,3660.72472 671.963534,3660.63757 L672.425433,3660.50502 L672.887869,3660.36903 C672.96495,3660.3461 673.042027,3660.32304 673.119086,3660.29986 L673.883279,3660.0659 C678.967432,3658.48298 683.777011,3656.47047 684.401118,3656.09796 C684.696647,3653.5947 680.682956,3654.18162 676.226534,3654.94959 Z M669.950895,3625.48525 L669.578569,3625.49814 C664.111455,3627.02277 638.035625,3636.74335 652.650276,3631.71309 C648.886489,3636.66712 632.929761,3660.35664 643.816646,3655.69517 C651.801185,3647.41373 651.533593,3633.81667 662.236251,3631.15165 C672.653821,3627.06192 669.863658,3641.29974 663.836658,3643.87204 C675.910212,3640.4138 666.631967,3663.7953 677.810116,3635.42268 C693.339788,3651.99958 682.453283,3625.87256 670.322604,3625.48888 L669.950895,3625.48525 Z M1112.67836,3652.13629 C1111.27926,3652.71772 1109.83752,3653.21172 1109.5749,3653.30655 L1109.558,3653.31179 L1109.09109,3653.34365 C1101.02929,3653.81094 1100.71389,3649.91707 1101.49055,3645.36406 L1101.55488,3644.99849 C1101.61023,3644.69278 1101.66964,3644.38459 1101.73114,3644.075 L1101.80582,3643.7029 L1101.91795,3643.15299 C1101.9555,3642.9695 1101.99311,3642.78591 1102.03037,3642.60244 L1102.14066,3642.05259 C1102.7912,3638.7583 1103.19607,3635.57488 1101,3633.81265 C1129.12852,3608.28284 1127.09028,3657.13308 1112.67836,3652.13629 Z M685.908897,3648.98369 C685.31299,3649.30819 684.61725,3650.30641 684.61725,3650.30641 C684.61725,3650.30641 684.590491,3651.40559 683.788743,3651.28609 C714.066799,3655.89399 700.316678,3644.12134 685.908897,3648.98369 Z M830.624927,3622.17623 C833.387713,3624.0499 836.527726,3624.13425 836.85501,3629.26601 C836.065116,3629.68232 838.663866,3629.42692 841.723705,3629.27903 L842.185773,3629.25774 L842.701882,3629.2368 C842.86898,3629.23057 843.036516,3629.22487 843.204041,3629.21984 L843.538945,3629.21069 C843.762028,3629.20522 843.984562,3629.20107 844.205485,3629.19852 L844.535529,3629.19593 C849.025994,3629.1779 852.616514,3629.89138 846.162412,3633.77039 C844.66516,3634.38752 845.68884,3635.69711 845.768666,3635.8671 L845.772,3635.87879 L846.048885,3635.85274 C851.849175,3635.32114 850.162279,3636.47538 847.913792,3637.9958 L847.691062,3638.14648 L847.285696,3638.42277 L846.88188,3638.70418 C845.814698,3639.46 844.855164,3640.25307 844.732139,3640.94452 C845.218917,3641.53491 846.220534,3641.4801 847.200519,3641.33849 L847.466849,3641.29813 C849.145099,3641.03425 850.613309,3640.66289 849.106905,3643.06175 C853.078941,3653.75862 837.285367,3652.31409 841.186209,3641.45063 C840.055592,3642.36367 838.590115,3643.48805 837.059341,3644.52289 L836.675443,3644.77955 C832.761824,3647.36651 828.5715,3649.21296 828.530522,3645.37826 C849.076089,3637.19613 795.008361,3643.78507 812.565868,3632.58631 C818.580241,3622.73612 856.894774,3599.1039 830.624927,3622.17623 Z M779.552419,3637.38179 C782.37036,3643.22499 790.991251,3640.5045 792,3641.87283 C792,3641.87283 791.187925,3643.03006 790.383253,3643.20217 C789.57858,3643.37428 789.593383,3644.22057 789.593383,3644.22057 C783.54089,3645.39966 777.04535,3639.8056 779.552419,3637.38179 Z M674.339148,3633.64257 C674.091863,3632.73028 673.991372,3632.04314 674.000577,3631.54078 C674.093857,3627.11514 682.7241,3637.08951 674.339148,3633.64257 Z M1219.54117,3622.00613 C1222.03547,3635.90923 1213.38623,3622.96907 1216.81605,3621.43781 C1219.15555,3621.30659 1218.16707,3621.37172 1219.54117,3622.00613 Z M794.663655,3625.38179 C790.90882,3621.83947 787.929028,3621.03563 786.925908,3618.28094 C776.816576,3611.47469 810.576297,3625.13173 794.663655,3625.38179 Z M649.035723,3612.64074 C638.975286,3615.58287 631.060732,3620.66155 640.114611,3617.80698 C640.368373,3617.80408 640.526653,3617.80249 640.624345,3617.80168 L640.762612,3617.80178 C642.032453,3621.36095 645.196559,3619.89779 648.371071,3618.14251 L648.785042,3617.91229 L649.033095,3617.77354 L649.527524,3617.497 C651.745622,3616.25995 653.855205,3615.16367 655.198577,3615.86101 C667.731154,3645.6604 677.922299,3588.89662 649.035723,3612.64074 Z M1229.5177,3618.55671 C1231.69247,3627.65312 1225.79512,3621.61496 1226.00551,3618.77669 C1228.43613,3618.18114 1228.46362,3618.39253 1229.5177,3618.55671 Z M1116.14403,3609.41003 C1121.08388,3614.55598 1114.67537,3611.90478 1114,3609.73773 C1114.46408,3607.20502 1116.38267,3608.90182 1116.14403,3609.41003 Z M1111.40481,3606.23342 C1109.03021,3605.39031 1110.13067,3604.61302 1111.32108,3604.11463 L1111.5093,3604.03829 C1111.57195,3604.01363 1111.63437,3603.98978 1111.69604,3603.96676 L1111.87836,3603.90025 C1111.96792,3603.86827 1112.05471,3603.83825 1112.13706,3603.81027 L1112.30207,3603.75486 C1112.53822,3603.67632 1112.71943,3603.61866 1112.79445,3603.58509 C1118.04443,3598.58332 1112.40429,3611.1057 1111.40481,3606.23342 Z M642.711284,3564.94853 L642.30691,3565.03989 C635.429296,3566.68426 635.350873,3571.46873 635.639399,3576.1749 L635.673954,3576.71739 L635.691378,3576.98216 L635.72596,3577.50988 C635.968842,3581.28146 636.0524,3584.80193 632.571599,3586.36758 C632.591154,3599.81114 643.324688,3565.20916 642.711284,3564.94853 Z M706.47763,3578.38179 C711.30919,3585.76009 703.202746,3583.47882 702,3580.94957 C702.666706,3579.58516 705.989947,3578.6031 706.47763,3578.38179 Z M966.482002,3417.21077 C980.71861,3415.74854 1004.81228,3426.50631 993.276872,3426.11831 C988.300491,3425.85724 985.143432,3425.65292 983.268542,3425.5167 L983.46944,3425.53806 C988.986434,3426.13101 1001.92581,3428.03701 1000.58812,3431.99407 C1002.07384,3430.43391 1003.33836,3430.58401 1004.52633,3430.83673 L1004.88058,3430.91402 C1006.0547,3431.17119 1007.16675,3431.3702 1008.3614,3429.9034 C1021.02771,3429.57938 1021.16869,3437.83475 1012.40651,3435.7255 C1018.04614,3438.69078 1016.30439,3438.76657 1013.47771,3438.47201 L1013.09001,3438.43021 C1013.00308,3438.42057 1012.91543,3438.41071 1012.82723,3438.40068 L1012.56118,3438.37017 L1012.28537,3438.33823 C1012.19315,3438.32753 1012.10072,3438.3168 1012.00825,3438.30612 L1011.73091,3438.27428 L1011.5925,3438.2586 L1011.31687,3438.22799 C1010.44745,3438.13299 1009.61575,3438.0585 1008.97779,3438.06693 C1022.43233,3442.01506 1003.54246,3453.37342 1015.29499,3451.54382 L1016.05339,3451.48913 C1017.75334,3452.22076 1017.35305,3452.29093 1017.68646,3452.82856 C1017.98833,3453.51009 1018.58152,3454.23132 1019.23882,3454.92962 L1019.44825,3455.1493 L1019.66036,3455.36702 L1019.76691,3455.47501 L1020.19187,3455.89986 L1020.27148,3455.97889 L1020.42909,3456.13534 L1020.584,3456.2895 C1022.88396,3458.58372 1024.039,3460.039 1013.53638,3457.75702 C1013.18674,3459.14782 1016.66773,3461.58549 1020.05305,3463.8447 L1020.53559,3464.16609 L1020.87547,3464.39202 C1025.22094,3467.27975 1028.86525,3469.69769 1023.19073,3468.95646 L1022.28415,3468.9059 C1021.63484,3470.73859 1026.88906,3474.36373 1027.48281,3474.22752 L1027.43341,3474.5567 C1030.1115,3477.89945 1022.54855,3476.80298 1020.31038,3475.66147 L1020.263,3475.63579 L1020.31361,3475.67469 C1029.78371,3482.94403 1025.73004,3482.86368 1019.91423,3481.55723 L1019.52834,3481.46938 C1019.39894,3481.43954 1019.26882,3481.40919 1019.13809,3481.37836 L1018.74424,3481.28457 C1018.54653,3481.23705 1018.34775,3481.18864 1018.14833,3481.13955 L1017.47041,3480.97087 L1016.64275,3480.76107 C1016.55093,3480.73761 1016.45918,3480.71413 1016.36757,3480.69065 L1015.81971,3480.54985 C1011.99989,3479.56622 1008.54654,3478.6487 1008.47966,3479.36961 L1008.48283,3479.43872 L1008.75758,3480.40563 C1011.39292,3480.77402 1010.88046,3484.58388 1011.10376,3484.20516 C1013.14124,3485.20303 1012.2573,3486.33298 1012.43841,3486.42379 C1023.20411,3491.54419 1023.32553,3492.98888 1027.51882,3501.38872 C1026.47642,3505.28422 1022.33561,3499.04006 1022.09378,3502.0832 C1013.47876,3496.66871 1007.00308,3491.2924 999.911019,3486.72408 C1002.42699,3492.48736 1008.23997,3491.52045 1009.29576,3494.69361 C1003.71739,3497.67793 1001.60583,3496.12076 1001.33108,3495.09193 C1000.25101,3496.60927 1000.84439,3497.63789 1000.94476,3497.92471 L1000.954,3497.95479 L1001.06566,3497.88167 C1006.65301,3494.2327 1014.97439,3497.64354 1009.12515,3498.35639 L1008.93971,3498.37757 C1006.97118,3501.24322 1000.51609,3500.60755 1000.00981,3501.17924 L1000.0201,3501.80252 C1004.26072,3502.34324 1004.64146,3501.82935 1004.81228,3502.00477 C1007.91686,3499.74177 1008.84813,3501.52287 1010.17352,3500.42903 C1017.12461,3501.86856 1020.87233,3504.19967 1024.97403,3505.03965 C1009.5417,3512.01028 992.239612,3518.59291 983.209887,3509.32316 C984.876913,3512.29406 983.60915,3512.03814 984.007384,3512.2404 C985.607729,3513.23971 985.221813,3514.27413 985.297413,3514.32659 L984.937985,3514.53987 C982.638834,3515.86967 980.278113,3517.3038 977.931268,3518.7081 L977.103669,3519.20228 C969.249284,3523.88104 961.650687,3528.04696 957.151801,3526.64293 C957.930776,3523.36451 959.658514,3521.93324 959.1121,3521.03134 C957.167958,3525.49012 955.058655,3526.08261 952.774338,3526.16196 L952.454459,3526.17003 C952.293951,3526.17275 952.132589,3526.17372 951.970369,3526.17409 L951.423911,3526.17468 C950.263491,3526.17788 949.060028,3526.21463 947.812339,3526.6873 C949.293111,3530.44246 944.05124,3529.21241 943.613903,3528.02364 L942.384214,3529.39196 C944.302323,3530.96152 942.862713,3531.82008 943.254772,3531.8046 L944.096518,3533.0687 C942.136219,3533.78279 940.589589,3532.52488 940.030826,3533.49385 L940.900355,3534.55776 C946.238955,3534.89933 941.912919,3539.29428 941.385028,3538.87842 C932.287388,3543.57056 933.495467,3547.28651 927.999426,3557.17129 C914.941056,3575.90582 875.758741,3526.06815 894.210249,3525.76373 C879.697862,3521.75059 885.269022,3492.1169 900.567587,3497.50766 C891.703536,3505.67222 919.210495,3488.74252 897.881823,3483.84296 C887.690325,3480.47889 904.49333,3478.41299 905.263044,3483.9121 C909.713591,3485.17001 903.29657,3475.94566 902.484667,3474.61655 L902.268489,3474.72498 C895.140514,3478.22852 888.639203,3474.36149 895.679702,3471.075 C905.086051,3461.45027 897.208838,3441.20913 885.301951,3443.16256 C883.582094,3442.9512 881.414292,3442.81431 879.196144,3442.68054 L878.590245,3442.64408 C878.28697,3442.62584 877.983431,3442.60753 877.680636,3442.58898 L877.076337,3442.55151 L876.860471,3442.53785 L876.430526,3442.5101 C876.216231,3442.49606 876.003037,3442.48177 875.791316,3442.46716 L875.369945,3442.4375 C869.012277,3441.98046 864.237321,3441.18742 871.424473,3438.19592 C865.357752,3435.28658 866.321033,3434.51246 869.599265,3434.48842 L869.881704,3434.48814 C870.792878,3434.49273 871.86032,3434.54823 872.993671,3434.62811 L873.353657,3434.65412 C873.53464,3434.66749 873.717029,3434.68141 873.900468,3434.69575 L874.268642,3434.725 L874.880571,3434.77528 C875.109291,3434.79441 875.338649,3434.81391 875.567984,3434.83359 L876.255258,3434.89298 C879.684673,3435.19075 882.96016,3435.48581 883.85102,3435.12286 C866.509834,3433.05902 869.05565,3425.58275 883.821179,3427.4691 C902.133768,3424.82738 908.270894,3415.01071 925.4958,3418.60902 C941.038245,3413.0707 954.385773,3422.61597 953.592392,3417.70815 L952.862811,3417.01058 C958.123204,3414.53603 967.253773,3420.38289 966.482002,3417.21077 Z M1034.27297,3538.35747 C1041.1128,3539.41543 1037.5708,3529.74606 1041.17409,3537.62101 C1043.36652,3537.63307 1041.82794,3535.85875 1042.1896,3536.11294 C1045.3495,3531.29835 1048.34902,3541.13048 1047.05257,3535.85573 L1049.13056,3535.77234 C1059.25085,3534.10652 1060.22958,3536.71476 1069.09632,3544.27825 C1073.65587,3551.46597 1059.56245,3551.18064 1057.90638,3553.98479 C1032.35332,3560.74853 1033.87555,3540.62009 1024.97816,3543.12886 C1022.96825,3540.9037 1025.2633,3540.88374 1027.87009,3540.99718 L1028.26294,3541.01493 C1028.32864,3541.01797 1028.39441,3541.02103 1028.46019,3541.02407 L1028.85444,3541.04192 C1031.60788,3541.16205 1034.15467,3541.14371 1031.87213,3538.58855 C1027.13492,3536.84307 1023.59491,3537.21413 1021.97549,3537.22544 L1021.78312,3537.2248 C1020.47689,3537.20422 1020.73616,3536.81213 1023.08099,3534.26828 C1024.92197,3529.21055 1027.0204,3533.53484 1028.1728,3534.43507 C1028.8951,3532.26689 1025.86902,3531.44403 1025.99366,3531.28629 L1026.01307,3530.50764 C1031.40116,3529.4125 1034.91455,3535.75325 1034.27297,3538.35747 Z M806.332484,3445.13308 C796.813449,3448.5889 791.189598,3450.0186 787.952217,3456.55118 C787.63485,3459.04601 789.27558,3458.90535 790.205755,3458.68619 L790.361984,3458.64721 C790.608262,3458.58264 790.779494,3458.52429 790.807782,3458.53721 L791.81115,3457.56218 C826.544319,3423.83214 804.527052,3475.46083 817.051649,3448.07392 L817.445942,3447.21069 C830.243663,3448.90409 829.1697,3454.49314 819.790074,3453.55888 L819.005254,3452.61433 C818.882923,3454.51714 820.57668,3454.9139 822.372341,3455.24087 L822.732324,3455.30576 L823.1583,3455.38376 C824.642484,3455.66345 826.024928,3456.03912 826.326794,3457.33092 C822.848805,3468.49563 844.375578,3462.21748 828.121553,3468.04447 C837.385521,3466.55604 842.650008,3471.37771 837.636457,3473.91678 C847.058422,3476.99147 837.05094,3483.47666 830.956197,3484.18946 C832.161308,3487.07669 836.872291,3484.70242 835.600057,3486.85008 C837.375195,3488.84137 840.59786,3491.37433 843.791547,3493.85208 L844.42946,3494.34671 C844.573768,3494.45859 844.717814,3494.57026 844.861461,3494.68169 L845.291064,3495.01515 C845.50513,3495.18145 845.717987,3495.34706 845.929172,3495.5118 L846.349174,3495.84004 C846.418756,3495.89453 846.488119,3495.94892 846.557244,3496.00318 L846.969009,3496.32729 C852.962405,3501.05842 856.850985,3504.76559 846.916948,3502.7118 C845.016859,3503.79851 847.295933,3505.2653 845.985491,3506.19337 C843.67078,3508.74517 839.672349,3508.32949 839.723059,3506.70714 L839.731,3506.60879 L839.71002,3506.70676 C838.329097,3512.78321 835.987558,3512.13924 833.728444,3510.80958 L833.506539,3510.6768 C833.432683,3510.63194 833.358953,3510.58656 833.285385,3510.54086 L832.955549,3510.33386 C832.700053,3510.17234 832.447219,3510.0109 832.198623,3509.85868 L831.986615,3509.73067 L831.881458,3509.66876 C828.250635,3493.37956 826.634526,3499.99144 820.507771,3503.83147 C824.349256,3512.1656 832.539261,3517.48477 825.018418,3522.50008 C817.413929,3531.75301 819.158088,3521.23724 807.96305,3518.19035 C820.694682,3534.65569 808.17681,3532.78306 798.073291,3522.39502 L796.648224,3522.2848 C792.178357,3525.33544 791.693808,3520.42659 791.067457,3515.45461 L790.995722,3514.89189 C790.449838,3510.6759 789.689456,3506.62918 786.188439,3507.58497 C755.427478,3505.89008 772.070754,3502.49786 788.851295,3498.13682 L790.42343,3497.72516 C799.318128,3495.37657 807.834691,3492.76097 808.886246,3489.98761 C806.432652,3465.03054 794.397031,3472.10286 776.453578,3465.9957 C756.944617,3461.8034 794.821453,3440.10541 806.332484,3445.13308 Z M754,3519.71325 C754,3519.71325 752.801772,3520.98516 751.814995,3521.55893 C742.98785,3531.67673 751.967711,3510.64161 754,3519.71325 Z M744.339893,3512.45949 C748.062083,3513.19076 744.400498,3515.81247 744.132824,3515.92951 C726.044089,3520.89859 739.602559,3511.4389 744.339893,3512.45949 Z M764.959854,3513.53368 C767.356597,3513.86436 767.015986,3514.43025 766.93914,3515.22167 C762.020001,3518.97536 762.128,3512.31197 764.959854,3513.53368 Z M770.638871,3511.64254 C772.503055,3516.43746 766.446482,3513.99157 768.389353,3511.4499 C768.389353,3511.4499 769.365996,3511.20553 770.638871,3511.64254 Z M748.907744,3496.42283 C748.974728,3496.54742 749.056658,3496.69562 749.151869,3496.86432 L749.359507,3497.22812 C751.042192,3500.14764 755.463205,3507.20957 757,3507.86776 C753.619917,3515.85827 741.776413,3503.05832 732.705475,3511.10878 L732.412,3511.37679 L732.583991,3511.19393 C737.080166,3506.26319 724.798004,3507.60274 730.580788,3506.13 L730.984589,3506.0297 C731.343101,3505.94263 731.757392,3505.84664 732.233082,3505.74026 C733.876285,3504.40358 736.440612,3502.63112 739.148792,3500.8848 L739.752662,3500.49734 C739.853596,3500.4329 739.954649,3500.36854 740.05578,3500.30429 L740.6632,3499.92024 C740.764489,3499.85651 740.865777,3499.79293 740.967027,3499.72952 L741.573731,3499.35141 C744.298919,3497.66113 746.937656,3496.13385 748.712671,3495.2315 L749.092586,3495.04145 C751.282975,3493.96513 751.835501,3494.06062 748.907744,3496.42283 Z M1021.9294,3490.38179 C1015.16884,3487.50549 1009.80027,3481.20333 1018.58484,3484.14636 C1022.739,3485.3328 1021.94527,3487.44955 1021.9294,3490.38179 Z M891.769946,3488.68874 C887.461116,3487.59537 889.302133,3485.23887 889.940325,3485.03443 C902.452404,3478.08906 903.555771,3495.72903 891.769946,3488.68874 Z M802,3484.14479 C800.036692,3489.69535 788.856828,3490.96539 788,3487.3224 C788.567805,3487.01975 789.136837,3486.69502 789.70443,3486.36191 L790.433189,3485.93009 L791.159104,3485.4955 C791.311232,3485.40435 791.463088,3485.31345 791.61462,3485.22306 L792.068191,3484.95371 C795.914376,3482.68196 799.515478,3480.92042 802,3484.14479 Z M805.661238,3486.07546 C807.610927,3490.95029 800.425261,3486.77372 802.32199,3485.53735 C804.356956,3483.05283 804.45839,3485.21942 805.661238,3486.07546 Z M804,3480.40112 C803.918302,3480.64186 803.834463,3480.83011 803.751754,3480.97443 C803.869351,3481.07212 803.843021,3481.1225 803.700767,3481.05913 L803.679544,3481.09001 C802.992577,3482.09265 802.45288,3480.17095 804,3480.40112 Z M800.188,3474.38879 L800.329814,3474.5715 C803.535443,3478.84502 793.980629,3477.19508 798.008414,3476.35972 C798.164394,3474.83983 799.875956,3474.46556 800.165016,3474.3956 L800.188,3474.38879 Z M795.006848,3475.38223 C796.474726,3475.39238 796.137847,3475.57818 795.143268,3475.78688 L794.928485,3475.83033 C794.407183,3475.93226 793.751036,3476.03707 793.089101,3476.12757 L792.777559,3476.16906 C791.850402,3476.2892 790.951736,3476.37585 790.438397,3476.3815 L790.313458,3476.3811 C789.580509,3476.36657 789.984079,3476.11965 793.133471,3475.42604 C793.783928,3475.39906 794.306781,3475.38523 794.718571,3475.38236 L795.006848,3475.38223 Z M1087.77925,3449.38179 C1091.85629,3451.42444 1095.85079,3453.61291 1099.85038,3455.79293 C1098.73661,3456.35722 1095.93027,3456.04971 1092.73671,3454.40334 L1093.11541,3454.66083 C1105.63765,3463.259 1120.53718,3481.69885 1106.00823,3471.27496 C1094.01963,3461.03215 1064.30138,3450.57694 1087.77925,3449.38179 Z M1028.50055,3471.41768 C1027.60929,3469.36637 1028.09836,3468.04709 1028.51128,3468.45614 C1036.20449,3469.579 1032.51179,3474.41163 1028.50055,3471.41768 Z M741,3463.42893 C740.567151,3467.11795 741.471239,3468.31178 739.394331,3468.8744 C725.596905,3477.07458 734.067696,3462.45199 741,3463.42893 Z M1109.20089,3463.73703 L1109.60287,3463.99163 C1112.22119,3465.65488 1114.9104,3467.44308 1115.58063,3467.12467 C1120.88566,3473.83663 1116.49708,3471.39626 1111.696,3468.06658 L1111.37895,3467.84584 C1111.1144,3467.66096 1110.84923,3467.47395 1110.58496,3467.28617 L1110.26838,3467.06055 L1109.77687,3466.7078 C1107.00607,3464.71125 1104.51614,3462.78684 1104.1537,3462.57861 C1103.3022,3460.19057 1106.12768,3461.79728 1109.20089,3463.73703 Z M761,3439.38179 C730.736798,3454.42802 733.468492,3473.07332 712.030681,3465.73016 C708.762553,3466.60124 705.517119,3466.8005 703,3466.77441 C717.253704,3458.16167 732.088202,3450.44504 747.402398,3443.61514 C750.925333,3442.37476 755.692386,3440.59505 761,3439.38179 Z M1089.8998,3452.63967 C1090.64231,3453.19787 1091.38298,3453.66425 1092.11178,3454.06902 L1092.545,3454.21879 L1092.36403,3454.15432 C1091.52633,3453.59916 1090.69954,3453.08333 1089.8998,3452.63967 Z M768.637084,3443.92835 C769.135612,3452.24526 749.194462,3454.40074 751.132716,3452.9741 C754.838482,3436.01707 791.272187,3439.71907 768.637084,3443.92835 Z M811.697452,3435.01666 C813.650908,3435.93457 816.479371,3436.1112 819.440283,3436.1303 L820.054532,3436.13219 C820.362358,3436.13221 820.671053,3436.13096 820.979795,3436.12912 L821.5971,3436.1248 L821.885144,3436.12255 L822.746037,3436.11634 C828.17731,3436.08412 833.127922,3436.24954 832.997479,3440.229 C822.565482,3447.74564 783.018696,3440.46482 806.135704,3432.55685 C807.543655,3431.17739 807.174328,3430.50127 807.23676,3430.39465 L807.246,3430.38379 L807.038793,3430.4091 C802.865335,3430.85308 804.89395,3428.21469 804.993372,3427.91302 L804.996884,3427.89847 C817.990711,3422.77557 816.216821,3432.0283 811.697452,3435.01666 Z M798.980542,3434.13586 C794.32156,3439.40692 790.307362,3439.45826 789,3436.00394 C789.066303,3435.97124 789.13294,3435.93823 789.199885,3435.90493 L789.60504,3435.7019 C789.877327,3435.56457 790.153705,3435.4236 790.432506,3435.28089 L790.852314,3435.06577 L791.274503,3434.84949 C791.41549,3434.77736 791.556666,3434.70527 791.697821,3434.63347 L792.121017,3434.41915 L792.519887,3434.21937 C796.034698,3432.47063 799.281937,3431.19116 798.980542,3434.13586 Z M999.49632,3433.46146 L999.30687,3433.62663 C998.850846,3434.01372 998.293386,3434.41315 997.55866,3434.83392 L998.761594,3434.59451 C999.018851,3434.11261 999.251411,3433.83812 999.49632,3433.46146 Z M908.76476,3409.38179 C914.816665,3410.19211 920.225953,3411.6374 923,3413.49776 C899.825709,3422.79263 846.358992,3424.32906 848.700172,3433.27721 C836.760873,3437.89145 807.264264,3426.42221 824.037067,3428.53715 C832.008596,3422.78965 838.932402,3428.07751 838.850147,3422.69555 C847.666845,3418.83515 853.608734,3424.89568 854.507369,3419.20762 C858.238657,3414.20803 866.589586,3414.44974 864.764555,3418.57759 C867.775085,3414.97971 874.967248,3416.2675 876.10545,3415.63846 C864.516762,3414.75682 861.240961,3413.47597 862.226991,3412.25059 C877.502755,3410.48137 893.016031,3409.46897 908.76476,3409.38179 Z M779,3431.38179 C776.457931,3433.40905 773.754165,3434.89257 772.288114,3434.21605 C772.183256,3434.184 772.103878,3434.17828 772,3434.14852 C774.307854,3433.16294 776.671567,3432.31701 779,3431.38179 Z M799.978118,3427.38179 C807.346784,3431.08165 771.949263,3438.13874 786.583807,3431.90552 C788.435517,3430.70719 787.804645,3430.40583 787.076821,3430.17328 L786.857951,3430.10475 C786.472159,3429.98365 786.126648,3429.85856 786.183325,3429.60385 C788.700638,3428.84706 791.211162,3428.09206 793.745928,3427.38448 C795.073432,3427.57412 796.473663,3427.97935 799.978118,3427.38179 Z M1000.58812,3431.99407 L1000.43746,3432.16011 C1000.1339,3432.5105 999.817377,3432.96703 999.49632,3433.46146 C1000.07566,3432.94344 1000.43171,3432.45534 1000.58812,3431.99407 Z M793,3426.48941 C790.6517,3427.41269 788.326748,3428.39666 786,3429.38179 C790.219756,3426.29799 791.563182,3426.19877 793,3426.48941 Z M825.952853,3423.38179 C829.555255,3425.17422 822.680132,3427.25913 823.011664,3425.99428 C825.418512,3424.693 825.422217,3424.32767 825.952853,3423.38179 Z M825.459315,3421.22193 L825.305124,3421.37621 L825.111449,3421.56431 C824.167261,3422.46684 823.120514,3423.26225 822.616259,3423.46899 C817.804614,3429.14726 813.773404,3420.40669 820.73593,3420.07608 C828.692087,3416.68532 827.570029,3419.08033 825.459315,3421.22193 Z M861,3412.38179 C854.80736,3420.4192 846.008751,3421.3885 837.969432,3421.88033 L837.193917,3421.92665 L836.411644,3421.97203 C836.28177,3421.97953 836.152159,3421.98701 836.022826,3421.99451 L835.272893,3422.03858 C833.779732,3422.12793 832.3281,3422.22707 830.941386,3422.38179 C828.401909,3420.63832 831.748209,3420.35093 832.260746,3420.39105 L832.287,3420.39379 L832.415051,3420.21694 C833.845193,3418.29068 835.154277,3417.9146 835.464139,3418.02845 L835.493475,3418.04248 L836.030953,3417.20133 C837.038981,3416.7313 838.309571,3416.17971 839.684156,3415.60671 C846.729031,3414.34957 853.833626,3413.27494 861,3412.38179 Z M818,3419.38179 C814.617058,3421.26468 810.705068,3422.65186 810.822744,3422.33714 C810.486527,3422.19937 810.229419,3422.05214 810,3421.90356 C812.642274,3420.97833 815.33597,3420.23274 818,3419.38179 Z" id="Combined-Shape"></path>
                </g>
            </g>
        </g>
    </g>
</svg>