<svg width="1799" height="47" viewBox="0 0 1799 47" fill="none" xmlns="http://www.w3.org/2000/svg">
<path fill-rule="evenodd" clip-rule="evenodd" d="M1210.11 4.32527C1210.13 2.15064 1208.32 0.38723 1206.25 0.434495C1204.37 0.357021 1202.37 1.86213 1202.34 4.27671C1202.32 6.35204 1203.93 8.14754 1206.2 8.18252C1208.35 8.21562 1210.08 6.47432 1210.11 4.32527ZM1206.28 17.4051L1205.72 17.369C1205.71 17.3395 1205.69 17.3151 1205.68 17.2942C1205.66 17.2575 1205.65 17.2314 1205.65 17.207L1205.67 16.9463C1205.71 16.4816 1205.76 16.0169 1205.81 15.554C1205.88 15.0068 1205.95 14.4602 1206.02 13.9137L1206.02 13.9134C1206.07 13.5436 1206.11 13.1738 1206.16 12.8038C1206.19 12.5928 1206.2 12.3805 1206.22 12.1684L1206.22 12.1684L1206.23 12.0447C1206.33 10.9636 1205.52 10.0464 1204.47 9.92871C1203.42 9.81178 1202.48 10.5674 1202.32 11.6553C1202.25 12.1679 1202.18 12.6824 1202.12 13.1969L1202.12 13.1969L1202.12 13.197L1202.12 13.197C1202.1 13.3936 1202.07 13.5902 1202.05 13.7867L1201.97 14.404L1201.97 14.4041L1201.97 14.4042L1201.97 14.4044C1201.87 15.2071 1201.77 16.0099 1201.68 16.8132L1201.68 16.8258L1201.68 16.8258C1201.63 17.1657 1201.59 17.5076 1201.59 17.849C1201.57 19.4962 1202.75 20.8831 1204.38 21.1567C1204.56 21.1872 1204.74 21.2222 1204.92 21.263C1204.94 21.269 1204.97 21.2891 1205 21.3144C1205.01 21.3279 1205.03 21.3428 1205.05 21.3578C1204.83 22.196 1204.3 22.8098 1203.59 23.2965C1203.56 23.7199 1203.63 24.1293 1203.7 24.5366L1203.7 24.5367C1203.73 24.6969 1203.75 24.8567 1203.78 25.017C1203.93 26.1635 1204.09 27.3086 1204.26 28.4536C1204.34 29.0694 1204.43 29.6852 1204.52 30.3012C1204.64 31.1346 1204.47 31.8965 1204 32.6122C1203.14 33.942 1202.29 35.2785 1201.43 36.615L1201.43 36.6157L1201.43 36.6158L1201.43 36.616C1201.03 37.2462 1200.63 37.8764 1200.22 38.5059C1200.12 38.6613 1200.02 38.8179 1199.9 38.9579C1199.17 39.8162 1197.9 40.005 1196.95 39.4018C1196 38.8004 1195.62 37.5605 1196.09 36.536C1196.18 36.3517 1196.29 36.1786 1196.4 36.0068L1196.44 35.9383C1196.68 35.5551 1196.93 35.1716 1197.17 34.788L1197.17 34.788L1197.17 34.7876L1197.17 34.7865C1197.94 33.5704 1198.72 32.3542 1199.51 31.1503C1199.8 30.6965 1199.91 30.2556 1199.83 29.7198C1199.67 28.702 1199.53 27.6813 1199.39 26.6607L1199.39 26.6603C1199.33 26.2162 1199.27 25.7722 1199.2 25.3283C1199.17 25.0845 1199.13 24.8408 1199.1 24.5972L1199.1 24.5971L1199.1 24.5971L1199.1 24.597C1199.03 24.155 1198.97 23.713 1198.91 23.2701C1198.87 22.9836 1198.76 22.7666 1198.55 22.5563C1197.55 21.5798 1197.24 20.399 1197.64 19.063C1198.32 16.8186 1199.01 14.5787 1199.7 12.3388L1199.7 12.3388L1199.7 12.3388L1199.7 12.3388L1200.1 11.0478C1200.67 9.19025 1202.62 8.31172 1204.22 8.79146C1204.34 8.82749 1204.46 8.86207 1204.58 8.89665L1204.58 8.89666L1204.58 8.89666L1204.58 8.89667C1204.84 8.97015 1205.09 9.04361 1205.34 9.13099C1207.08 9.73213 1208.03 11.4531 1207.55 13.2214C1207.29 14.1727 1206.99 15.1139 1206.69 16.0802L1206.69 16.0802L1206.69 16.0802L1206.69 16.0803L1206.69 16.0804C1206.55 16.5158 1206.41 16.9563 1206.28 17.4051ZM1205.22 17.6732C1205.43 17.7027 1205.64 17.7316 1205.84 17.7595C1206.25 17.8174 1206.64 17.8713 1207.02 17.9187C1207.93 18.0298 1208.83 18.1389 1209.74 18.2481L1209.74 18.2481L1209.74 18.2482L1209.74 18.2482C1210.51 18.3408 1211.28 18.4334 1212.04 18.5272C1212.25 18.5523 1212.46 18.5796 1212.66 18.6347C1213.3 18.8135 1213.7 19.3404 1213.69 20.0184C1213.69 20.2469 1213.65 20.4804 1213.6 20.7021C1213.41 21.4403 1212.81 21.8526 1212.04 21.771C1211.47 21.7105 1210.91 21.6379 1210.34 21.5653L1210.34 21.5653L1210.05 21.5277C1209.41 21.4461 1208.77 21.3636 1208.13 21.281L1208.13 21.281L1208.13 21.281L1208.13 21.281C1207.03 21.1392 1205.93 20.9974 1204.83 20.8602C1204.15 20.7757 1203.51 20.5963 1202.99 20.1325C1202.19 19.4225 1201.84 18.5308 1201.97 17.4671C1202.15 15.942 1202.34 14.4175 1202.52 12.893L1202.52 12.8929L1202.52 12.8928L1202.52 12.892L1202.62 12.1039C1202.64 11.9207 1202.67 11.7372 1202.71 11.5575C1202.91 10.6981 1203.62 10.2092 1204.52 10.3152C1205.31 10.4093 1205.91 11.1279 1205.88 11.9705C1205.87 12.2173 1205.84 12.4635 1205.8 12.7095L1205.8 12.7097L1205.8 12.7099L1205.8 12.7102C1205.79 12.7848 1205.78 12.8594 1205.77 12.934C1205.71 13.4602 1205.64 13.9863 1205.58 14.5124L1205.58 14.5132C1205.48 15.2927 1205.38 16.0721 1205.28 16.8519C1205.26 17.0173 1205.25 17.1837 1205.24 17.3726L1205.24 17.3727L1205.24 17.3728L1205.24 17.3729C1205.23 17.4666 1205.23 17.5658 1205.22 17.6732ZM1204.82 29.8805L1203.94 23.559C1204.03 23.4683 1204.12 23.3821 1204.2 23.2978L1204.2 23.2977C1204.39 23.1117 1204.57 22.9347 1204.73 22.7393C1204.89 22.5448 1205.02 22.3317 1205.16 22.1066L1205.16 22.1066L1205.16 22.1065C1205.23 22.0047 1205.29 21.9004 1205.36 21.7943C1205.39 21.8155 1205.41 21.8343 1205.44 21.8524C1205.49 21.8891 1205.54 21.9228 1205.57 21.9666C1205.8 22.2707 1206.03 22.5738 1206.27 22.8769L1206.27 22.8774C1206.89 23.6928 1207.52 24.5083 1208.11 25.3424C1209.02 26.5964 1208.8 28.2192 1207.66 29.2209C1207.25 29.5802 1206.77 29.8195 1206.23 29.872C1205.94 29.9006 1205.64 29.8943 1205.31 29.8873C1205.16 29.884 1205 29.8805 1204.82 29.8805ZM1199.49 30.1035C1199.3 28.6166 1199.11 27.1583 1198.85 25.6283C1198.79 25.6283 1198.73 25.6278 1198.68 25.6273C1198.59 25.6264 1198.51 25.6257 1198.44 25.629C1198.25 25.6376 1198.06 25.6455 1197.86 25.6533C1197.36 25.6735 1196.87 25.6938 1196.37 25.7279C1195.16 25.8106 1194.26 26.764 1194.25 27.9596C1194.23 29.19 1195.13 30.1782 1196.36 30.2794C1196.54 30.2944 1196.72 30.2875 1196.91 30.2795C1197.65 30.2474 1198.38 30.2132 1199.12 30.1742C1199.19 30.1702 1199.27 30.1535 1199.35 30.1341C1199.39 30.1241 1199.44 30.1135 1199.49 30.1035Z" fill="#494949"/>
<path d="M1404.36 4.67432C1403.98 4.41978 1403.47 4.41978 1403.09 4.67432C1398.64 7.47432 1395.33 5.6925 1391.64 3.65614C1387.82 1.61978 1383.36 -0.671131 1377.64 2.76523C1377.25 3.14705 1377 3.52887 1377 4.03796V21.4743V21.8561V35.4743C1377 36.238 1377.51 36.7471 1378.27 36.7471C1379.04 36.7471 1379.55 36.238 1379.55 35.4743V22.6198C1383.75 20.3289 1386.8 21.9834 1390.36 23.8925C1392.78 25.1652 1395.45 26.5652 1398.51 26.5652C1400.29 26.5652 1402.33 26.0561 1404.36 24.7834C1404.75 24.5289 1405 24.147 1405 23.638V5.81978C1405 5.31069 1404.75 4.92887 1404.36 4.67432Z" fill="white"/>
<path fill-rule="evenodd" clip-rule="evenodd" d="M76.3598 2C74.2709 2.00145 72.4363 3.76862 72.4892 5.88008C72.4157 7.59883 73.7898 9.74629 76.3572 9.75742C78.6142 9.7671 80.244 7.96929 80.2375 5.88269C80.2299 3.43834 78.1772 1.99885 76.3598 2ZM78.2885 13.9571L78.2885 13.9571L78.2884 13.9571C78.2081 13.8889 78.1429 13.8335 78.0879 13.7693C77.712 13.3308 77.3399 12.8888 76.9722 12.4431C76.7321 12.1522 76.4524 11.9137 76.0983 11.7808C75.3038 11.4829 74.5873 11.6389 73.991 12.2282C73.4071 12.8054 73.2968 13.523 73.5593 14.2777C73.6623 14.574 73.858 14.8512 74.0601 15.0972C74.6317 15.7926 75.2122 16.4807 75.7927 17.1688L75.7928 17.1688L75.7929 17.1689L75.7929 17.169L75.793 17.1691L75.7931 17.1693L75.7932 17.1694C76.062 17.4879 76.3307 17.8064 76.5986 18.1257C76.6884 18.2328 76.7739 18.3436 76.8602 18.4555L76.8603 18.4556L76.8613 18.4569C76.9016 18.5091 76.942 18.5615 76.9832 18.6139C76.9696 18.6632 76.9576 18.7107 76.9459 18.7568L76.9459 18.7568L76.9458 18.7569L76.9458 18.757C76.9216 18.8525 76.8989 18.9419 76.8677 19.0282C76.6521 19.6254 76.4354 20.2221 76.2187 20.8189C75.9546 21.5461 75.6905 22.2734 75.4285 23.0013C75.0048 24.1781 74.1983 24.9401 72.9785 25.224C72.641 25.3024 72.4781 25.5211 72.3035 25.7674C71.0688 27.5075 69.8328 29.2467 68.5967 30.9859L67.6868 32.2662L67.5884 32.4051C67.4876 32.5474 67.3869 32.6896 67.2838 32.8302C66.9625 33.2686 66.5539 33.6002 66.0535 33.8136C63.7806 34.7835 61.5074 35.7525 59.2333 36.7198C58.6566 36.9651 58.0618 36.997 57.4764 36.777C56.6213 36.4556 56.1174 35.8154 56.0165 34.9166C55.9119 33.9861 56.3091 33.2509 57.0749 32.7258C57.2561 32.6015 57.4642 32.5137 57.6696 32.427L57.7568 32.3901L58.336 32.1427L58.3362 32.1426L58.3364 32.1425L58.3367 32.1424C60.0124 31.4266 61.6881 30.7108 63.3689 30.0071C63.7663 29.8408 64.0713 29.6083 64.3191 29.2474C65.1899 27.9801 66.0711 26.72 66.9523 25.4599C67.3158 24.9401 67.6793 24.4203 68.0421 23.9C68.1132 23.798 68.1805 23.6933 68.2517 23.5825L68.2519 23.5822L68.2519 23.5822L68.2519 23.5821C68.2859 23.5292 68.3208 23.4749 68.3575 23.4188C68.3453 23.3862 68.3336 23.3532 68.3219 23.3202L68.3219 23.3202L68.3219 23.3202C68.2963 23.2476 68.2705 23.1748 68.2381 23.105C67.8064 22.1743 67.8013 21.2401 68.1563 20.2792C68.6364 18.9799 69.1054 17.6765 69.5745 16.3731L69.5746 16.3728L69.5747 16.3725L69.5748 16.3722C69.786 15.7855 69.9971 15.1989 70.2092 14.6126C70.294 14.3783 70.3807 14.1446 70.4674 13.911L70.4674 13.9109L70.4675 13.9108L70.4675 13.9107C70.6299 13.4732 70.7922 13.0357 70.9419 12.5939C71.5075 10.9244 73.3584 9.84803 75.3335 10.5365C75.4011 10.5601 75.4689 10.5833 75.5367 10.6066L75.5369 10.6066L75.5371 10.6067L75.5371 10.6067C75.841 10.711 76.1455 10.8155 76.4364 10.9489C77.6271 11.4951 78.2849 12.4385 78.4481 13.732C78.4549 13.7866 78.449 13.8427 78.4409 13.9204C78.4363 13.9644 78.4309 14.0154 78.4267 14.0769C78.3761 14.0315 78.3303 13.9926 78.2885 13.9571ZM78.3302 29.6077L72.6117 26.1271C72.6475 25.8186 72.7915 25.6685 73.0424 25.6041C74.4289 25.2484 75.3346 24.3738 75.8131 23.0368C75.827 22.9979 75.8541 22.9637 75.8875 22.9215C75.9052 22.8992 75.9245 22.8747 75.9447 22.8461C75.9913 22.8707 76.0376 22.8941 76.0834 22.9173C76.1817 22.9671 76.2776 23.0157 76.3693 23.0712C77.3471 23.6625 78.3244 24.2548 79.3016 24.847L79.3102 24.8523L79.3137 24.8544L79.3173 24.8566C80.0131 25.2783 80.7089 25.7 81.4049 26.1213C82.4171 26.7342 82.9337 27.6238 82.9323 28.8138C82.9308 29.9791 82.9309 31.1444 82.9309 32.3097V32.3127C82.9309 33.7561 82.9309 35.1996 82.9282 36.6431C82.9278 36.8722 82.9126 37.1085 82.8556 37.3289C82.5919 38.349 81.6463 39.0402 80.5872 39.0069C79.5407 38.9741 78.6735 38.2779 78.4497 37.2609C78.3861 36.9714 78.3751 36.6661 78.3734 36.3679C78.3657 35.0544 78.3623 33.7409 78.3588 32.4274V32.4274V32.4274V32.4273C78.357 31.7316 78.3552 31.036 78.3527 30.3403C78.3522 30.1869 78.3462 30.0334 78.3397 29.8659C78.3364 29.7838 78.3331 29.6982 78.3302 29.6077ZM78.7684 15.0932C79.0131 15.1341 79.2027 15.054 79.3848 14.977C79.4368 14.955 79.4883 14.9333 79.5402 14.9147C80.3194 14.6356 81.0965 14.3504 81.8735 14.0651L81.8735 14.0651L81.8741 14.0649C82.266 13.921 82.6579 13.7771 83.05 13.6341C83.0852 13.6213 83.1203 13.6081 83.1555 13.595L83.1558 13.5949C83.3156 13.5354 83.4761 13.4755 83.6413 13.4421C84.4325 13.282 85.2021 13.7134 85.476 14.4564C85.7593 15.225 85.4206 16.075 84.6749 16.4503C84.5608 16.5078 84.4394 16.5513 84.3182 16.5947L84.3182 16.5947L84.318 16.5948C84.287 16.6059 84.2559 16.617 84.225 16.6284C82.5148 17.2566 80.8042 17.8839 79.0936 18.5111C79.0591 18.5237 79.0247 18.5369 78.9903 18.5502L78.9901 18.5503C78.8951 18.5869 78.7998 18.6236 78.7016 18.6474C78.1214 18.7873 77.6025 18.6823 77.1775 18.2389C77.0849 18.142 76.9982 18.0392 76.9118 17.9366L76.9036 17.927C76.5803 17.5434 76.2573 17.1596 75.9342 16.7758C75.41 16.1532 74.8858 15.5305 74.3607 14.9086C74.1358 14.6423 73.9368 14.3672 73.8498 14.0178C73.6756 13.3185 73.9242 12.639 74.5084 12.2664C75.1123 11.8814 75.9023 11.9347 76.4363 12.4099C76.5691 12.5281 76.6852 12.6658 76.8007 12.8028L76.8565 12.8689C77.1154 13.1743 77.3734 13.4806 77.6313 13.7869C77.9086 14.1161 78.1859 14.4453 78.4644 14.7735C78.5363 14.8581 78.6146 14.9372 78.6846 15.0078C78.7144 15.0379 78.7428 15.0664 78.7684 15.0932ZM70.4289 12.8587C70.4341 12.8158 70.4405 12.7626 70.4508 12.6937C70.3803 12.712 70.3185 12.7268 70.2628 12.7401C70.158 12.7651 70.0746 12.785 69.9947 12.8142C69.681 12.9288 69.3681 13.0459 69.0553 13.163C68.4384 13.394 67.8215 13.6249 67.1981 13.8368C66.6176 14.034 66.2134 14.3793 65.9142 14.917C65.3419 15.945 64.7528 16.9638 64.1637 17.9826C63.9088 18.4233 63.654 18.864 63.4005 19.3054C63.3947 19.3156 63.3889 19.3258 63.383 19.3359C63.3084 19.4658 63.2334 19.5965 63.1755 19.734C62.9266 20.3243 63.0679 20.9587 63.5602 21.3639C63.7538 21.523 63.98 21.6524 64.2088 21.7567C64.8715 22.059 65.5565 21.864 65.9794 21.2635C66.07 21.1349 66.1475 20.9969 66.225 20.8591C66.2495 20.8154 66.2741 20.7718 66.299 20.7284L66.2991 20.7283C66.9907 19.5278 67.6823 18.3273 68.3719 17.1255C68.5112 16.8826 68.6485 16.6443 68.9427 16.5544C69.1432 16.4929 69.2104 16.314 69.2737 16.1391C69.6509 15.0972 70.0273 14.0551 70.4011 13.0121C70.4153 12.9724 70.4205 12.9295 70.4289 12.8587Z" fill="#494949"/>
<path fill-rule="evenodd" clip-rule="evenodd" d="M18.9381 5.90472C18.9761 8.05579 20.6883 9.76355 22.8489 9.74708C25.0006 9.7306 26.7166 7.99306 26.702 5.84315C26.6896 3.99662 25.2947 1.97622 22.7879 2.00021C20.1751 2.02507 18.9079 4.19161 18.9381 5.90472ZM22.6561 29.2028C22.7126 29.2488 22.7713 29.2967 22.8338 29.3467C22.7748 29.4155 22.7182 29.482 22.6631 29.5467C22.5449 29.6856 22.4334 29.8166 22.3191 29.9451C21.7789 30.552 21.2385 31.1586 20.698 31.7652L20.6943 31.7694C20.021 32.525 19.3477 33.2807 18.6752 34.0369L18.6336 34.0835C18.5089 34.2233 18.3833 34.364 18.2804 34.519C17.6595 35.4547 17.8302 36.7511 18.6627 37.4855C19.5268 38.2477 20.8482 38.245 21.7052 37.4727C21.8348 37.3559 21.9513 37.2241 22.0675 37.0929L22.133 37.019C23.8255 35.1208 25.5169 33.222 27.208 31.3227L27.2526 31.2729C27.361 31.1515 27.4696 31.03 27.5682 30.9011C28.539 29.6336 28.3632 27.882 27.1593 26.8399C27.0153 26.7152 26.8614 26.6015 26.7078 26.4879L26.7077 26.4878L26.6107 26.416C26.1169 26.0487 25.6229 25.6817 25.1289 25.3148L25.1271 25.3134L25.127 25.3133C24.3784 24.7572 23.6298 24.2011 22.882 23.6439C22.757 23.5508 22.6364 23.4515 22.5164 23.3527L22.5164 23.3527L22.5164 23.3527L22.5162 23.3526C22.4618 23.3078 22.4076 23.2632 22.3532 23.2193C22.3683 23.1463 22.3817 23.0778 22.3944 23.0123L22.3945 23.0119C22.4207 22.8779 22.4443 22.7568 22.4752 22.6375C22.6155 22.0945 22.7573 21.5518 22.899 21.0092C23.0433 20.4567 23.1876 19.9043 23.3304 19.3515C23.4647 18.8321 23.5968 18.3121 23.7289 17.7921L23.729 17.7917L23.729 17.7917C23.9894 16.767 24.2497 15.7424 24.5262 14.7221C24.8873 13.3898 24.2013 11.3586 22.2052 10.7573C21.8074 10.6375 21.4064 10.5226 21.0003 10.437C19.437 10.1073 17.9342 10.832 17.2322 12.2436C17.2087 12.2908 17.1953 12.3428 17.1746 12.4234L17.1746 12.4234L17.1745 12.4235C17.1622 12.4714 17.1473 12.5293 17.1261 12.6022C17.1964 12.5532 17.2554 12.5133 17.3066 12.4786C17.3995 12.4158 17.4666 12.3704 17.5288 12.3191C17.7039 12.1746 17.8776 12.0284 18.0512 11.8821L18.0513 11.882L18.0513 11.882L18.0514 11.882C18.3374 11.6411 18.6235 11.4002 18.916 11.1672C19.6471 10.5849 20.8882 10.6154 21.6034 11.4672C22.2688 12.2597 22.2082 13.4254 21.4496 14.1673C21.3474 14.2675 21.2363 14.3587 21.1254 14.4499L21.1254 14.4499L21.1252 14.45C21.0932 14.4763 21.0612 14.5026 21.0295 14.5291L20.2642 15.1683C19.3307 15.9484 18.3971 16.7284 17.4597 17.5038C17.2065 17.7134 17.0014 17.9486 16.8402 18.2381C16.2336 19.3286 15.6229 20.4172 14.9893 21.4921C14.7852 21.8385 14.7423 22.1764 14.8309 22.5518C15.0977 23.6828 15.7453 24.4993 16.811 24.9825C17.0819 25.1054 17.3566 25.2377 17.5944 25.4131C18.9237 26.3945 20.2465 27.3846 21.5693 28.3747L21.5695 28.3748L21.5699 28.3751L22.3201 28.9365C22.4312 29.0195 22.5388 29.1072 22.6561 29.2028ZM17.0139 25.4513C16.4413 25.2514 15.9352 24.9374 15.4243 24.4532C15.37 24.552 15.3212 24.64 15.2761 24.7212L15.2759 24.7216L15.2758 24.7218L15.2758 24.7218C15.1876 24.8807 15.1141 25.0131 15.044 25.1472L14.4615 26.2599L14.4613 26.2603C13.6917 27.7302 12.9221 29.2001 12.1601 30.6739C11.9766 31.0284 11.7475 31.332 11.4566 31.6049C9.9571 33.011 8.465 34.425 6.97463 35.8411C6.77473 36.031 6.57425 36.2293 6.41756 36.4541C5.85819 37.2573 5.86512 38.3667 6.4125 39.1206C6.98243 39.9055 7.99264 40.2352 8.9417 39.9464C9.35061 39.8219 9.67742 39.5723 9.98283 39.2829C11.7098 37.6467 13.4375 36.0111 15.1702 34.3808C15.4264 34.1397 15.6305 33.8713 15.793 33.5591C16.4142 32.365 17.0383 31.1724 17.6624 29.9799L17.6625 29.9797C18.0983 29.1471 18.534 28.3146 18.9687 27.4815C19.0167 27.3898 19.0533 27.292 19.0929 27.1864C19.1122 27.1348 19.1322 27.0813 19.1546 27.0258L18.7896 26.7527L18.7895 26.7526C18.2475 26.3472 17.7197 25.9524 17.1913 25.5585L17.1878 25.5559L17.1877 25.5559C17.1334 25.5155 17.0765 25.4731 17.0139 25.4513ZM21.7095 12.6863C21.701 13.1805 21.5453 13.5569 21.2408 13.8669C21.132 13.9778 21.0115 14.0776 20.8913 14.1771L20.8242 14.2328C20.5547 14.4578 20.2852 14.6829 20.0158 14.9081L20.015 14.9088C19.0964 15.6766 18.1778 16.4444 17.2532 17.205C16.9441 17.4591 16.6996 17.7483 16.5033 18.0982C15.685 19.5578 14.8585 21.0128 14.0319 22.4678C13.8198 22.8412 13.6077 23.2145 13.3958 23.5879C13.3755 23.6238 13.3554 23.6599 13.3353 23.696L13.3352 23.6961C13.254 23.842 13.1725 23.9884 13.0735 24.1213C12.6757 24.6551 12.0166 24.8416 11.406 24.5847C11.1739 24.487 10.9448 24.3634 10.7445 24.2118C10.2157 23.8114 10.0521 23.1497 10.3105 22.535C10.3694 22.395 10.4451 22.2616 10.5203 22.1291L10.5203 22.1291L10.534 22.1049C10.8865 21.4836 11.2395 20.8624 11.5924 20.2413C12.3811 18.8534 13.1697 17.4656 13.9533 16.0748C14.1613 15.7058 14.4203 15.3963 14.7461 15.1254C15.6286 14.3918 16.5068 13.653 17.3849 12.9141L17.3853 12.9138C17.8513 12.5217 18.3172 12.1297 18.7839 11.7384L18.8327 11.6974C18.9756 11.5771 19.1199 11.4556 19.2791 11.3613C19.8231 11.0393 20.3806 11.0387 20.9231 11.3622C21.4408 11.6709 21.6845 12.1476 21.7095 12.6863Z" fill="#494949"/>
<path fill-rule="evenodd" clip-rule="evenodd" d="M914.907 8.01714C912.741 8.02394 911.018 6.32326 911.007 4.16828C910.997 2.01302 912.714 0.269988 914.856 0.261749C917.005 0.253366 918.754 1.97934 918.764 4.11726C918.774 6.2692 917.052 8.01035 914.907 8.01714ZM915.911 22.3703L915.911 22.3699L915.91 22.3695C915.866 22.3128 915.822 22.2562 915.778 22.1998C915.81 22.0632 915.844 21.9354 915.875 21.8133C915.939 21.5668 915.997 21.3434 916.035 21.1166C916.452 18.6094 916.862 16.101 917.268 13.5921L917.286 13.478L917.286 13.478C917.347 13.1056 917.409 12.7298 917.411 12.3554C917.419 11.155 916.891 10.218 915.906 9.54664C915.089 8.98972 913.259 8.68344 912.292 8.916C910.773 9.28198 909.819 10.4492 909.687 12.1546C909.725 12.1245 909.761 12.0981 909.795 12.0733L909.795 12.0733C909.862 12.0237 909.921 11.9807 909.968 11.9271C910.108 11.7666 910.244 11.6023 910.38 11.4379L910.38 11.4379C910.465 11.335 910.551 11.2322 910.637 11.1302C910.719 11.033 910.8 10.9342 910.88 10.8354L910.88 10.8354C911.078 10.5932 911.275 10.3509 911.496 10.1323C912.24 9.39646 913.345 9.36784 914.141 10.0306C914.828 10.6027 915.131 11.7249 914.482 12.6591C914.387 12.7965 914.278 12.9251 914.17 13.0535C914.144 13.0843 914.118 13.1151 914.092 13.146C913.905 13.3703 913.719 13.5946 913.532 13.819L913.531 13.8199L913.531 13.8208C912.86 14.6266 912.19 15.4324 911.513 16.2329C911.285 16.5024 911.121 16.7935 911.005 17.1279C910.627 18.2253 910.243 19.3206 909.858 20.4159L909.858 20.4165C909.661 20.9777 909.464 21.5389 909.268 22.1004C909.227 22.2169 909.193 22.3356 909.157 22.4595C909.14 22.5187 909.122 22.579 909.103 22.6408C909.548 23.2235 910.129 23.5825 910.815 23.7628C911.098 23.8372 911.312 23.9585 911.496 24.1879C912.047 24.8756 912.604 25.5591 913.161 26.2426C913.509 26.6704 913.858 27.0982 914.205 27.5271C914.249 27.5809 914.279 27.6451 914.316 27.7209C914.334 27.7601 914.355 27.8023 914.379 27.8478C914.319 27.862 914.265 27.8766 914.214 27.8903L914.214 27.8903C914.113 27.9174 914.025 27.9409 913.937 27.9503C913.552 27.9909 913.166 28.0274 912.78 28.0639C912.568 28.084 912.355 28.1041 912.143 28.1249C911.856 28.1529 911.57 28.1798 911.284 28.2067C910.581 28.2728 909.877 28.3389 909.176 28.4215C908.021 28.5576 907.176 29.4803 907.138 30.6078C907.101 31.7202 907.841 32.6856 908.947 32.9144C909.257 32.9786 909.591 32.9644 909.911 32.9393C910.333 32.9062 910.755 32.86 911.176 32.8138L911.176 32.8138L911.176 32.8138L911.177 32.8138L911.177 32.8138C911.444 32.7844 911.712 32.7551 911.98 32.7291C912.792 32.6504 913.604 32.5731 914.416 32.4958L914.422 32.4952L914.422 32.4952L914.423 32.4952L914.423 32.4952L914.423 32.4951C915.587 32.3843 916.752 32.2735 917.915 32.1585C919.045 32.0469 919.867 31.4648 920.334 30.4374C920.813 29.3837 920.691 28.3661 920.013 27.4227C919.933 27.3105 919.845 27.2037 919.756 27.0971L919.756 27.097L919.756 27.097L919.756 27.097L919.756 27.0969C919.727 27.061 919.697 27.0252 919.667 26.9891L918.449 25.4947C917.701 24.5773 916.953 23.6599 916.206 22.742C916.106 22.6195 916.008 22.495 915.911 22.3705L915.911 22.3704L915.911 22.3703ZM914.041 12.6459C914.318 12.3158 914.484 11.9457 914.477 11.3879C914.432 10.8585 914.148 10.352 913.543 10.0817C912.917 9.80218 912.322 9.89266 911.798 10.34C911.671 10.4481 911.564 10.5794 911.457 10.7098C911.432 10.7408 911.406 10.7717 911.381 10.8023C911.105 11.1327 910.83 11.4646 910.556 11.7965L910.556 11.7965L910.556 11.7967L910.556 11.7968L910.556 11.7968C909.976 12.4979 909.396 13.199 908.8 13.8856C908.261 14.507 907.869 15.1869 907.608 15.9705C907.194 17.2128 906.758 18.4473 906.321 19.6819L906.321 19.682L906.321 19.682L906.321 19.682L906.321 19.682C906.142 20.189 905.962 20.696 905.785 21.2035C905.67 21.5313 905.566 21.8588 905.589 22.2159C905.633 22.927 906.105 23.5261 906.758 23.6818C907.506 23.8602 908.234 23.5481 908.584 22.8844C908.664 22.7312 908.722 22.5649 908.779 22.3996C908.79 22.368 908.8 22.3365 908.811 22.3052C908.946 21.921 909.082 21.537 909.217 21.1529L909.217 21.1526L909.217 21.1522L909.217 21.1519L909.218 21.15L909.218 21.15L909.218 21.1499L909.218 21.1498L909.218 21.1498C909.68 19.8361 910.143 18.5223 910.592 17.2042C910.759 16.7153 910.981 16.2769 911.328 15.889C911.657 15.5215 911.97 15.1403 912.284 14.7592L912.284 14.7591L912.284 14.759L912.284 14.7589L912.284 14.7588L912.284 14.7588C912.411 14.6045 912.538 14.4503 912.666 14.297C912.841 14.087 913.016 13.8768 913.19 13.6665L913.191 13.6659L913.191 13.6657L913.191 13.6655L913.192 13.6653L913.192 13.665C913.474 13.325 913.757 12.9849 914.041 12.6459ZM907.486 32.5198L907.485 32.5193C907.449 32.49 907.409 32.4579 907.365 32.4213C907.33 32.4721 907.3 32.514 907.274 32.5505L907.274 32.5507C907.228 32.6159 907.194 32.6639 907.165 32.7147C906.284 34.2612 905.405 35.8081 904.528 37.3564C904.448 37.4965 904.377 37.643 904.319 37.7932C903.928 38.8089 904.303 39.9478 905.216 40.5307C906.133 41.1161 907.319 40.9817 908.073 40.1935C908.231 40.0284 908.368 39.8357 908.481 39.637C909.641 37.6117 910.795 35.5827 911.948 33.5529C911.99 33.478 912.021 33.3964 912.058 33.2988L912.058 33.2987L912.058 33.2987L912.058 33.2984C912.077 33.2473 912.098 33.1919 912.123 33.1307C912.057 33.1307 911.998 33.1296 911.943 33.1285C911.838 33.1264 911.75 33.1247 911.663 33.1325C911.16 33.1768 910.657 33.2245 910.155 33.2723L909.73 33.3126C908.956 33.3857 908.265 33.1908 907.673 32.675C907.616 32.6256 907.558 32.5784 907.486 32.5198ZM918.208 17.3003L918.208 17.3004C919.014 17.638 919.782 17.9596 920.54 18.3032C921.252 18.6261 921.618 19.3634 921.484 20.0549C921.284 21.0923 920.29 21.6354 919.26 21.2358C918.641 20.9958 918.032 20.7309 917.423 20.4661C917.209 20.3726 916.994 20.2791 916.778 20.1867C916.739 20.1699 916.707 20.1382 916.668 20.1011L916.668 20.1011C916.649 20.082 916.628 20.0616 916.603 20.041C916.752 19.0041 916.92 17.9657 917.128 16.8458C917.496 17.0024 917.856 17.1528 918.208 17.3003ZM908.613 28.1126L913.156 27.6548C913.427 27.2953 913.352 27.0272 913.114 26.7428C912.533 26.0504 911.966 25.3461 911.399 24.642C911.358 24.5918 911.318 24.5417 911.277 24.4915C911.128 24.3059 910.957 24.1829 910.724 24.107C910.499 24.0339 910.283 23.9357 910.066 23.8375C909.968 23.7931 909.871 23.7488 909.772 23.7068C909.692 23.6722 909.61 23.6393 909.527 23.6057C909.49 23.5905 909.452 23.5752 909.414 23.5595C909.171 24.4448 908.637 27.4754 908.613 28.1126Z" fill="#494949"/>
<path fill-rule="evenodd" clip-rule="evenodd" d="M221.948 5.86601C221.947 3.74774 220.185 1.95326 218.068 2.00168C216.17 1.94126 214.203 3.51662 214.196 5.8728C214.189 7.88815 215.784 9.74927 218.075 9.74681C220.41 9.74435 221.95 7.82093 221.948 5.86601ZM215.775 25.9435L215.775 25.9436C215.727 26.111 215.68 26.2757 215.638 26.4416C215.274 27.872 214.911 29.3027 214.549 30.7334L213.985 32.9557C213.96 33.0536 213.934 33.151 213.907 33.2486L213.907 33.2486L213.907 33.2486L213.907 33.2486L213.907 33.2487L213.907 33.2489C213.892 33.3074 213.876 33.3659 213.86 33.4244C213.443 35.0067 211.792 35.9385 210.239 35.5067C209.281 35.2407 208.325 34.9687 207.369 34.6968L207.369 34.6968L207.369 34.6968L207.369 34.6967L207.365 34.6954L207.36 34.6942L207.356 34.6931C206.962 34.5808 206.567 34.4685 206.172 34.3566L205.869 34.2708C204.926 34.0037 203.982 33.7365 203.039 33.4681C202.862 33.4175 202.685 33.3637 202.51 33.3036C201.173 32.8427 200.506 31.1774 201.425 29.8144C201.781 29.2872 202.294 28.9926 202.929 28.9355C203.345 28.8983 203.758 28.9189 204.167 29.0259C205.788 29.4493 207.411 29.8661 209.033 30.2829L209.034 30.283L209.034 30.2832L209.035 30.2833L209.4 30.3771C209.503 30.4035 209.607 30.4232 209.721 30.4448C209.777 30.4554 209.836 30.4664 209.898 30.479C209.92 30.4161 209.944 30.3563 209.967 30.298C210.014 30.178 210.058 30.065 210.087 29.9482C210.276 29.1864 210.463 28.4241 210.65 27.6618L210.65 27.6611C210.908 26.6069 211.167 25.5526 211.429 24.4994C211.516 24.1509 211.529 23.8402 211.359 23.4986C211.028 22.8357 210.997 22.1236 211.136 21.4001C211.43 19.8673 211.723 18.3344 212.016 16.8014L212.017 16.7977L212.018 16.7941C212.223 15.7206 212.428 14.6472 212.634 13.5738C212.652 13.4768 212.675 13.3807 212.698 13.2846L212.698 13.2844C212.707 13.2457 212.716 13.2069 212.725 13.1681C213.146 11.3231 214.82 10.2245 216.69 10.5677C216.83 10.5935 216.97 10.6215 217.109 10.6495L217.109 10.6495L217.109 10.6495L217.109 10.6496C217.287 10.6851 217.464 10.7207 217.642 10.7516C219.28 11.0356 220.699 12.6454 220.326 14.7291C220.274 15.0199 220.214 15.3092 220.15 15.6221L220.15 15.6225L220.149 15.623L220.149 15.6232L220.149 15.6239L220.149 15.624L220.149 15.6244C220.118 15.7747 220.086 15.9305 220.053 16.0945C220.018 16.0532 219.984 16.0189 219.954 15.9881C219.899 15.931 219.855 15.886 219.835 15.8323C219.631 15.2834 219.431 14.7332 219.232 14.183C219.1 13.8215 218.969 13.46 218.837 13.0988C218.823 13.0624 218.81 13.0258 218.797 12.9891C218.723 12.7864 218.65 12.5827 218.549 12.3939C218.07 11.4925 216.986 11.1127 216.053 11.5054C215.145 11.8874 214.662 12.8865 214.924 13.8445C214.96 13.9778 215.008 14.1084 215.055 14.2387C215.211 14.6718 215.369 15.1046 215.527 15.5373L215.527 15.5374L215.528 15.5376C215.877 16.4933 216.225 17.4491 216.56 18.41C216.896 19.3782 217.492 20.0964 218.42 20.5393C218.574 20.6129 218.724 20.6967 218.882 20.785L218.882 20.7851L218.882 20.7851C218.956 20.8267 219.032 20.8693 219.111 20.9123L219.098 21.0004C218.971 21.8313 218.847 22.6439 218.61 23.4327C218.433 24.0224 218.078 24.5051 217.611 24.9049C217.237 25.2256 216.807 25.4443 216.336 25.5843C216.233 25.615 216.129 25.6397 216.015 25.6664C215.96 25.6795 215.902 25.693 215.842 25.7079C215.82 25.7873 215.797 25.8657 215.775 25.9435L215.775 25.9435L215.775 25.9435ZM216.119 26.0328C217.002 25.8076 217.762 25.3911 218.361 24.6562C218.398 24.7008 218.433 24.741 218.467 24.7788L218.467 24.7788C218.533 24.854 218.592 24.92 218.636 24.9942C219.743 26.8335 220.849 28.673 221.944 30.5191C222.108 30.7941 222.242 31.0939 222.34 31.3985C222.967 33.3469 223.585 35.2983 224.202 37.2498L224.479 38.1253C224.628 38.5929 224.702 39.06 224.566 39.5535C224.305 40.5069 223.521 41.1862 222.536 41.274C221.587 41.3585 220.648 40.7922 220.261 39.894C220.204 39.7626 220.162 39.6247 220.12 39.4871L220.12 39.487L220.12 39.4865C220.108 39.4475 220.096 39.4085 220.084 39.3696C219.908 38.8117 219.732 38.2536 219.556 37.6955C219.102 36.2512 218.647 34.8068 218.185 33.3651C218.08 33.0391 217.937 32.7183 217.765 32.4228C217.101 31.2872 216.428 30.156 215.734 29.0384C215.535 28.7163 215.486 28.4277 215.595 28.0632C215.734 27.5979 215.849 27.1256 215.967 26.6446C216.017 26.4423 216.067 26.2384 216.119 26.0328ZM215.219 13.4933C215.214 12.6061 215.686 11.9684 216.37 11.7747C217.084 11.5725 217.853 11.8829 218.214 12.5335C218.296 12.6821 218.354 12.8446 218.412 13.0062L218.412 13.0064C218.425 13.0407 218.437 13.075 218.45 13.1091C218.542 13.3606 218.635 13.6121 218.727 13.8636L218.728 13.8658L218.728 13.8659C219.09 14.8487 219.452 15.8315 219.802 16.8188C219.926 17.1677 220.122 17.403 220.458 17.5709C221.392 18.0378 222.317 18.5196 223.243 19.0015L223.243 19.0015C223.465 19.1168 223.686 19.2321 223.908 19.3472C225.015 19.9222 225.242 20.7444 224.585 21.7923C224.18 22.4404 223.497 22.6663 222.784 22.3829C222.692 22.3464 222.605 22.2992 222.518 22.252L222.518 22.252L222.518 22.2519C222.483 22.2331 222.448 22.2143 222.413 22.1961C222.035 22.0007 221.657 21.8037 221.279 21.6067C220.407 21.1522 219.536 20.6977 218.655 20.2617C217.776 19.8267 217.2 19.1696 216.882 18.2409C216.591 17.3927 216.282 16.5509 215.973 15.709L215.973 15.709L215.973 15.709C215.789 15.2069 215.604 14.7047 215.424 14.2012C215.35 13.9945 215.295 13.7811 215.255 13.6289C215.241 13.575 215.229 13.5288 215.219 13.4933ZM212.1 14.431C212.143 14.199 212.188 13.9547 212.236 13.6922C211.913 13.889 211.68 14.0781 211.467 14.2514C211.366 14.3334 211.27 14.4117 211.17 14.4857C210.531 14.9609 210.15 15.5944 209.957 16.3638C209.768 17.1158 209.565 17.8643 209.362 18.6127C209.281 18.9107 209.2 19.2087 209.12 19.507C209.079 19.657 209.037 19.8066 208.995 19.9561C208.912 20.2509 208.829 20.5456 208.76 20.8436C208.558 21.7215 208.962 22.3984 209.828 22.6511C209.983 22.6962 210.143 22.7352 210.303 22.7428C210.393 22.7473 210.485 22.7244 210.56 22.7058C210.588 22.6988 210.614 22.6923 210.636 22.6883C210.656 22.5089 210.673 22.3346 210.689 22.1642C210.724 21.8054 210.756 21.4639 210.819 21.1279C211.041 19.9357 211.272 18.7454 211.504 17.5551C211.621 16.9564 211.738 16.3577 211.853 15.7587C211.935 15.334 212.013 14.9086 212.1 14.431Z" fill="#494949"/>
<path fill-rule="evenodd" clip-rule="evenodd" d="M377.482 5.91067C377.513 8.39274 379.584 9.83411 381.393 9.73958C383.376 9.80072 385.267 8.08862 385.237 5.84606C385.207 3.69455 383.473 1.97696 381.328 2.00023C379.231 2.02307 377.454 3.67663 377.482 5.91067ZM376.371 11.8705C376.8 11.1118 377.536 10.5777 378.367 10.4058C378.988 10.2774 379.608 10.2869 380.213 10.4989C380.286 10.5244 380.359 10.5496 380.432 10.5748C380.73 10.6781 381.028 10.7815 381.32 10.9003C383.02 11.5924 383.859 13.3619 383.277 15.1085C382.958 16.0658 382.611 17.0135 382.264 17.9611L382.264 17.9614L382.263 17.9622L382.263 17.963C382.118 18.3594 381.972 18.7557 381.829 19.1528C381.651 19.6473 381.472 20.1416 381.293 20.636L381.292 20.6376L381.291 20.6393C381.101 21.1644 380.911 21.6896 380.722 22.2151C380.696 22.2852 380.676 22.3572 380.654 22.4375L380.654 22.4376L380.654 22.4376L380.654 22.4384L380.654 22.4385C380.642 22.4786 380.631 22.5208 380.617 22.5659C380.67 22.6026 380.721 22.6392 380.77 22.6749L380.77 22.675L380.77 22.675L380.77 22.675C380.874 22.7497 380.972 22.8211 381.076 22.8843C381.836 23.3464 382.596 23.8078 383.356 24.2691C384.315 24.8507 385.273 25.4323 386.231 26.0155L386.242 26.0224C386.474 26.164 386.71 26.3076 386.915 26.4845C387.602 27.0776 387.932 27.8454 387.941 28.7472C387.947 29.377 387.946 30.007 387.944 30.6369C387.944 30.9085 387.943 31.18 387.943 31.4516C387.943 31.8568 387.944 32.262 387.944 32.6673V32.6683C387.945 33.9269 387.946 35.1856 387.939 36.4442C387.938 36.7422 387.916 37.0472 387.849 37.3364C387.642 38.2299 386.727 39.1069 385.438 38.9951C384.374 38.9027 383.497 38.0467 383.399 36.9718C383.381 36.7736 383.382 36.5736 383.382 36.374V36.374L383.382 36.279C383.382 35.7846 383.381 35.2902 383.38 34.7958V34.7954C383.376 33.302 383.372 31.8087 383.392 30.3156C383.399 29.8129 383.229 29.5201 382.8 29.2648C381.582 28.5389 380.37 27.8027 379.158 27.0666L379.157 27.0664L379.156 27.0657L379.156 27.0656C378.176 26.4708 377.197 25.876 376.214 25.2866C375.934 25.1188 375.627 24.9947 375.321 24.8712L375.321 24.8712C375.242 24.839 375.162 24.8068 375.083 24.7739C373.876 24.2715 373.158 23.3834 372.928 22.0945C372.836 21.5791 372.888 21.0729 373.055 20.5901C373.277 19.9477 373.509 19.3089 373.742 18.6701C373.936 18.1368 374.13 17.6036 374.318 17.0682C374.407 16.8153 374.579 16.7116 374.807 16.6313C375.914 16.2422 377.02 15.8486 378.125 15.455L378.125 15.455L378.126 15.4546L378.66 15.2648C378.708 15.2475 378.757 15.2308 378.806 15.2141L378.806 15.2141C378.954 15.1636 379.103 15.1131 379.243 15.0458C380.148 14.6104 380.587 13.5907 380.278 12.6593C379.964 11.71 379.035 11.1492 378.042 11.3444C377.801 11.3917 377.567 11.4765 377.334 11.5613L377.334 11.5613C377.219 11.6029 377.105 11.6444 376.989 11.6816C376.86 11.7231 376.731 11.7621 376.585 11.806L376.584 11.8062L376.582 11.8067C376.516 11.8267 376.446 11.8477 376.371 11.8705ZM376.971 26.2087C376.92 26.2847 376.874 26.3526 376.833 26.4151C376.751 26.5377 376.684 26.6391 376.614 26.7384C376.201 27.3203 375.787 27.9015 375.373 28.4826L375.373 28.483L375.372 28.4834L375.372 28.4837L375.372 28.4838L375.372 28.4839L375.372 28.4839C374.406 29.8403 373.44 31.1966 372.486 32.5611C372.047 33.1895 371.498 33.6377 370.793 33.933C369.036 34.6687 367.284 35.4171 365.533 36.1654L365.533 36.1655L365.533 36.1655L365.533 36.1656L364.418 36.6415C364.076 36.7877 363.733 36.9114 363.354 36.9195C362.404 36.9396 361.558 36.4328 361.2 35.5731C360.828 34.6803 360.979 33.8545 361.611 33.1221C361.889 32.8001 362.248 32.6004 362.638 32.4362C363.996 31.8631 365.353 31.2849 366.709 30.7067L366.709 30.7066L366.709 30.7066L366.711 30.7059L366.716 30.7038C367.183 30.5044 367.651 30.305 368.119 30.1058C368.148 30.0936 368.176 30.0805 368.204 30.0673C368.26 30.0414 368.316 30.0155 368.374 29.9973C368.788 29.8672 369.082 29.608 369.325 29.243C369.758 28.593 370.208 27.9542 370.658 27.3153C370.834 27.0666 371.009 26.8178 371.183 26.5684L371.496 26.1204L371.496 26.12L371.496 26.1196L371.497 26.1192C371.948 25.4736 372.398 24.828 372.851 24.1835C372.911 24.0972 372.978 24.0147 373.051 23.9241L373.051 23.924C373.087 23.8791 373.124 23.8323 373.164 23.782C373.194 23.8087 373.222 23.832 373.249 23.8536C373.3 23.8961 373.344 23.9323 373.38 23.9755C373.862 24.5646 374.477 24.9579 375.193 25.1985C375.834 25.4137 376.38 25.7856 376.971 26.2087ZM380.002 13.3239C379.988 13.9172 379.698 14.4094 379.106 14.7055C378.937 14.7904 378.756 14.8533 378.576 14.9161L378.576 14.9161C378.538 14.9294 378.5 14.9426 378.462 14.956C378.114 15.0796 377.766 15.2038 377.418 15.3281L377.418 15.3283C376.376 15.7004 375.334 16.0725 374.285 16.4247C373.84 16.5742 373.536 16.8151 373.308 17.2265C372.804 18.1361 372.282 19.0362 371.76 19.9362C371.587 20.2339 371.415 20.5316 371.243 20.8296C371.226 20.8588 371.209 20.8881 371.192 20.9175C371.106 21.0689 371.019 21.221 370.913 21.3571C370.519 21.8598 369.888 22.0328 369.298 21.7908C369.065 21.6954 368.838 21.57 368.636 21.4214C368.1 21.0288 367.921 20.3779 368.166 19.7556C368.221 19.6159 368.298 19.4843 368.374 19.3534L368.374 19.3533C368.391 19.3245 368.408 19.2957 368.425 19.2669C368.676 18.8296 368.928 18.3932 369.18 17.9567L369.181 17.9566C369.76 16.955 370.339 15.9533 370.902 14.942C371.212 14.3838 371.632 14.0366 372.236 13.8234C373.486 13.3826 374.727 12.9196 375.969 12.4566L375.969 12.4564C376.478 12.2667 376.987 12.0769 377.496 11.8887C377.539 11.873 377.581 11.8568 377.624 11.8405L377.624 11.8405C377.754 11.7906 377.884 11.7405 378.019 11.7066C379.034 11.4509 380 12.2099 380.002 13.3239ZM383.957 15.1093C383.858 15.1406 383.755 15.1731 383.648 15.208C383.593 15.3589 383.536 15.5127 383.478 15.669C383.342 16.0342 383.202 16.4122 383.072 16.7938C383.014 16.9639 382.948 17.1316 382.882 17.2994C382.731 17.6832 382.58 18.0675 382.524 18.4812C383.031 18.8227 383.514 18.7253 384.007 18.5438C385.085 18.1474 386.162 17.7535 387.24 17.3595C387.919 17.1114 388.598 16.8633 389.277 16.6146L389.278 16.6142C389.429 16.5588 389.582 16.5028 389.724 16.4271C390.388 16.0715 390.709 15.327 390.518 14.6053C390.321 13.8642 389.705 13.39 388.931 13.426C388.661 13.4387 388.385 13.5143 388.127 13.6062C387.387 13.8708 386.649 14.1423 385.912 14.4137C385.457 14.5808 385.003 14.7479 384.548 14.9135C384.358 14.9826 384.166 15.0435 383.957 15.1093Z" fill="#494949"/>
<path fill-rule="evenodd" clip-rule="evenodd" d="M1279.69 4.69358C1279.7 7.16235 1281.74 8.6043 1283.59 8.53507C1285.6 8.57597 1287.46 6.88469 1287.44 4.64472C1287.41 2.4844 1285.7 0.790514 1283.54 0.792971C1281.59 0.795284 1279.67 2.29707 1279.69 4.69358ZM1283.02 21.9708C1282.98 21.7784 1282.94 21.6034 1282.9 21.4399L1282.9 21.4397C1282.83 21.1171 1282.77 20.8392 1282.72 20.5601C1282.64 20.1632 1282.56 19.766 1282.48 19.3687L1282.48 19.3686L1282.48 19.3685L1282.48 19.3683C1282.35 18.6544 1282.21 17.9404 1282.06 17.2287C1282 16.9449 1282.02 16.6892 1282.1 16.4149C1282.37 15.4876 1282.63 14.5578 1282.89 13.6281L1282.89 13.6277L1282.89 13.6269C1282.98 13.3121 1283.07 12.9973 1283.16 12.6825C1283.17 12.623 1283.19 12.5636 1283.21 12.5041C1283.25 12.3641 1283.29 12.224 1283.32 12.0815C1283.53 11.1211 1282.97 10.1317 1282.06 9.80543C1281.1 9.4672 1280.04 9.9147 1279.61 10.8445C1279.52 11.0533 1279.45 11.2772 1279.39 11.4987C1279.23 12.0543 1279.07 12.6104 1278.92 13.1664L1278.92 13.1669L1278.92 13.1669C1278.66 14.0774 1278.4 14.9878 1278.14 15.8961C1277.99 16.3952 1277.96 16.8769 1278.07 17.3947C1278.4 18.9876 1278.71 20.584 1279.02 22.1804L1279.02 22.1806L1279.02 22.1807L1279.02 22.1808C1279.13 22.7378 1279.24 23.2949 1279.35 23.8517C1279.5 24.6288 1279.94 25.1634 1280.72 25.3295C1281.43 25.4803 1282.1 25.3341 1282.66 24.8553C1283.18 24.4123 1283.33 23.8217 1283.23 23.1607C1283.2 22.9491 1283.16 22.7382 1283.11 22.5017L1283.11 22.5005C1283.09 22.3839 1283.07 22.261 1283.05 22.1288C1283.11 22.1529 1283.16 22.1709 1283.2 22.1867L1283.2 22.1867L1283.2 22.1867L1283.2 22.1868C1283.29 22.2151 1283.35 22.2361 1283.4 22.2726C1283.77 22.5513 1284.15 22.8289 1284.53 23.1066L1284.53 23.1071L1284.53 23.1076L1284.53 23.1081C1285.62 23.9126 1286.71 24.717 1287.79 25.546C1289.15 26.5961 1289.34 28.4763 1288.23 29.7925C1287.6 30.5352 1286.95 31.2581 1286.3 31.9811L1286.3 31.9811L1286.3 31.9812L1286.3 31.9812L1286.3 31.9817C1286.02 32.2897 1285.74 32.5976 1285.47 32.9071C1284.62 33.857 1283.78 34.8065 1282.93 35.7549L1282.86 35.8338C1282.73 35.9806 1282.6 36.1278 1282.46 36.2592C1281.6 37.0387 1280.28 37.0472 1279.42 36.2861C1278.55 35.5174 1278.39 34.2292 1279.06 33.2719C1279.17 33.1059 1279.31 32.9534 1279.44 32.8015L1279.5 32.7399C1280.11 32.0542 1280.72 31.369 1281.33 30.6838L1281.33 30.6801L1281.34 30.6784C1281.92 30.0194 1282.51 29.3604 1283.1 28.701C1283.2 28.5862 1283.3 28.4676 1283.4 28.3408L1283.4 28.3408L1283.4 28.3408C1283.45 28.2796 1283.5 28.2165 1283.56 28.151C1283.5 28.1038 1283.45 28.0583 1283.4 28.0147C1283.31 27.9263 1283.22 27.8455 1283.12 27.7737C1281.51 26.569 1279.9 25.3651 1278.29 24.1681C1278.1 24.0325 1277.9 23.9107 1277.69 23.8325C1276.24 23.301 1275.12 21.6641 1275.64 19.7044C1275.91 18.6825 1276.18 17.6589 1276.44 16.6353L1276.44 16.6352L1276.44 16.6351L1276.44 16.635L1276.57 16.1523C1276.95 14.6995 1277.32 13.2465 1277.7 11.7926C1277.92 10.905 1278.39 10.1899 1279.17 9.68748C1279.97 9.16872 1280.85 9.05598 1281.76 9.23969C1282.15 9.31645 1282.53 9.42225 1282.9 9.53629C1284.69 10.0798 1285.69 11.788 1285.25 13.6063C1284.97 14.7355 1284.68 15.8595 1284.38 16.9836C1284.26 17.4454 1284.14 17.9073 1284.02 18.3695C1283.76 19.3754 1283.5 20.381 1283.23 21.3854C1283.2 21.4805 1283.17 21.5729 1283.12 21.7031L1283.12 21.7033L1283.12 21.7036C1283.09 21.7779 1283.06 21.8644 1283.02 21.9708ZM1276.18 23.2626C1276.68 23.7126 1277.15 24.0385 1277.71 24.2237C1277.77 24.2452 1277.84 24.2838 1277.89 24.3247C1278.42 24.715 1278.94 25.1064 1279.48 25.5089L1279.92 25.8316C1279.89 25.8892 1279.87 25.9439 1279.85 25.9962L1279.85 25.9962C1279.8 26.1017 1279.76 26.1977 1279.71 26.2898C1279.3 27.0803 1278.89 27.8705 1278.47 28.6607L1278.47 28.6611L1278.47 28.6615L1278.47 28.662L1278.47 28.664C1277.82 29.8983 1277.18 31.1327 1276.53 32.3683C1276.37 32.6802 1276.16 32.9476 1275.91 33.1882C1274.71 34.3111 1273.52 35.4363 1272.33 36.5615L1272.33 36.5622L1272.33 36.564L1272.32 36.5675L1272.32 36.5694C1271.8 37.0601 1271.28 37.5507 1270.76 38.0412L1270.73 38.0696L1270.73 38.0696C1270.64 38.1554 1270.55 38.2415 1270.45 38.3195C1269.59 39.0165 1268.43 39.0285 1267.57 38.3516C1266.75 37.6999 1266.51 36.5861 1266.96 35.5948C1267.13 35.2295 1267.39 34.9413 1267.68 34.6696C1268.26 34.124 1268.84 33.5769 1269.41 33.0298L1269.41 33.0294L1269.42 33.0286L1269.42 33.0277L1269.42 33.0276L1269.42 33.0276C1270.3 32.1942 1271.18 31.3608 1272.07 30.5328C1272.44 30.181 1272.74 29.7917 1272.98 29.3306C1273.72 27.8848 1274.48 26.4456 1275.23 25.0064L1275.23 25.0063L1275.23 25.0061L1275.23 25.006C1275.44 24.6043 1275.65 24.2027 1275.86 23.8009C1275.92 23.6966 1275.98 23.5954 1276.05 23.4741C1276.09 23.4103 1276.13 23.341 1276.18 23.2626ZM1282.97 11.9033L1282.97 11.9033C1282.94 12.0362 1282.91 12.2183 1282.86 12.3966L1282.68 13.0117C1282.39 14.0733 1282.1 15.1349 1281.78 16.1908C1281.66 16.6025 1281.64 16.9953 1281.72 17.4129C1281.98 18.7048 1282.24 19.9982 1282.49 21.2915L1282.49 21.2916C1282.57 21.7182 1282.66 22.1448 1282.74 22.5713C1282.75 22.6354 1282.77 22.6995 1282.78 22.7636L1282.78 22.7636L1282.78 22.7637C1282.82 22.9483 1282.86 23.133 1282.88 23.3193C1282.98 24.0377 1282.6 24.6578 1281.91 24.8752C1281.69 24.9441 1281.46 24.9928 1281.23 25.0086C1280.49 25.0596 1279.94 24.6665 1279.75 23.9401C1279.67 23.6364 1279.61 23.3267 1279.55 23.0172L1279.55 23.017C1279.53 22.9412 1279.52 22.8654 1279.5 22.7897C1279.39 22.2162 1279.28 21.6423 1279.17 21.0685L1279.17 21.0683L1279.17 21.068C1278.93 19.8534 1278.7 18.6389 1278.45 17.4266C1278.34 16.9142 1278.36 16.4309 1278.51 15.9282C1278.81 14.9134 1279.09 13.8948 1279.38 12.8763L1279.38 12.8762C1279.51 12.4074 1279.64 11.9386 1279.78 11.4702L1279.78 11.4419L1279.78 11.4419C1279.83 11.2959 1279.87 11.1486 1279.93 11.0107C1280.23 10.3299 1280.99 9.93533 1281.69 10.0825C1282.47 10.2459 1282.98 10.867 1282.99 11.7813C1282.99 11.8139 1282.98 11.8554 1282.97 11.9033ZM1277 12.9768C1277.01 12.9107 1277.03 12.8414 1277.04 12.7672C1277 12.7672 1276.97 12.7656 1276.95 12.7645C1276.91 12.7628 1276.9 12.7621 1276.89 12.7687C1276.74 12.8909 1276.6 13.0147 1276.45 13.1384C1276.15 13.3854 1275.86 13.6324 1275.56 13.8669C1275.16 14.1701 1274.88 14.5468 1274.64 14.9755C1273.88 16.3257 1273.11 17.6728 1272.35 19.02C1272 19.6398 1271.64 20.2595 1271.29 20.8796C1271.28 20.9083 1271.26 20.9368 1271.24 20.9654C1271.17 21.0971 1271.09 21.2294 1271.04 21.3693C1270.86 21.8048 1270.88 22.2467 1271.15 22.6277C1271.55 23.1852 1272.09 23.5088 1272.8 23.4805C1273.3 23.4604 1273.67 23.1956 1273.92 22.7702C1274.08 22.4829 1274.25 22.1928 1274.41 21.9027C1274.51 21.7307 1274.61 21.5588 1274.71 21.3874C1274.72 21.3642 1274.73 21.3411 1274.75 21.318C1274.99 20.902 1275.22 20.491 1275.21 19.9767C1275.21 19.8179 1275.26 19.6581 1275.31 19.4987C1275.33 19.4339 1275.35 19.3691 1275.37 19.3046C1275.57 18.5407 1275.77 17.7769 1275.97 17.0131C1276.29 15.7901 1276.6 14.5672 1276.92 13.3439C1276.95 13.2272 1276.98 13.1087 1277 12.9768Z" fill="#494949"/>
<path d="M0.5 46.5H1798.5" stroke="#4C4C4C" stroke-linecap="square"/>
</svg>
