<svg width="420" height="146" viewBox="0 0 420 146" fill="none" xmlns="http://www.w3.org/2000/svg">
<path d="M-67.0666 1C-67.0666 1 -43.9275 127.117 22.8763 116.185C89.6801 105.252 91.191 93.735 73.6134 64.5047C56.0357 35.2743 37.3516 140.286 72.2826 144.881C107.214 149.475 141.492 19.8256 245.444 51.9861C349.396 84.1466 248.151 141.128 223.261 121.321C198.371 101.515 360.161 30.7267 458.479 36.6414C556.797 42.5561 550.974 118.472 601.203 88.5555C651.432 58.6389 674.456 31.7187 629.764 41.1122C585.073 50.5058 632.149 115.367 692.506 115.367C752.862 115.367 792.417 51.9861 792.417 51.9861" stroke="#D6F82E" stroke-width="2" stroke-linecap="round" stroke-dasharray="0 6"/>
</svg>
