<svg width="420" height="96" viewBox="0 0 420 96" fill="none" xmlns="http://www.w3.org/2000/svg">
<path d="M-118.067 1.17188C-118.067 1.17188 -103.017 83.1972 -59.5687 76.0868C-16.1202 68.9764 -15.1375 61.4858 -26.5698 42.4747C-38.0021 23.4636 -50.1541 91.7618 -27.4353 94.7504C-4.71648 97.7389 17.5776 13.4158 85.1871 34.3327C152.797 55.2496 86.948 92.3099 70.7597 79.4278C54.5714 66.5457 159.798 20.5058 223.743 24.3527C287.688 28.1995 283.901 77.5746 316.569 58.1171C349.238 38.6596 364.212 21.151 335.145 27.2605C306.078 33.3699 336.696 75.5551 375.952 75.5551C415.207 75.5551 440.933 34.3327 440.933 34.3327"
      stroke="#D6F82E" stroke-width="2" stroke-linecap="round" stroke-dasharray="6"/>
</svg>
