<svg width="420" height="263" viewBox="0 0 420 263" fill="none" xmlns="http://www.w3.org/2000/svg">
<path d="M-78 116.209C-78 116.209 4.61724 182.452 65.6126 141.064C126.608 99.6751 71.826 41.1094 44.2801 63.9898C12.3673 87.9767 39.0261 135.178 84.3341 138.833C129.642 142.489 146.674 123.575 194.807 128.503C242.94 133.431 296.059 166.305 250.433 196.589C204.807 226.873 119.836 189.749 124.26 143.344C124.961 133.826 129.716 111.997 186.595 111.997C243.474 111.997 333.319 138.631 350.578 75.8335C367.837 13.0362 269.414 -11.3033 274.823 59.4079C278.543 84.4244 291.467 108.233 336.777 128.464C352.333 134.373 398.014 161.975 386.897 173.024C366.556 191.473 471.761 212.573 471.761 231.537C471.761 250.501 442.27 264.18 481.798 260.776C535.345 247.961 637.294 197.814 631.637 149.56" stroke="url(#paint0_linear_0_570)" stroke-width="2" stroke-linecap="round" stroke-dasharray="0 4"/>
<path fill-rule="evenodd" clip-rule="evenodd" d="M43.3067 49C43.3067 46.2396 45.5463 44 48.3067 44C51.0704 44 53.3067 46.2396 53.3067 49C53.3034 49.5924 53.1928 50.1784 52.9844 50.7318L53.0007 50.7285C52.903 51.0312 52.7305 51.36 52.5124 51.7051C51.5391 53.2285 49.5632 55.2435 48.3067 56.5V56.5033H48.3034C48.2446 56.4443 48.1842 56.3838 48.1223 56.3219C46.5694 54.7674 44.1262 52.322 43.6159 50.7285L43.629 50.7318C43.4206 50.1784 43.3132 49.5924 43.3067 49ZM50.2305 49C50.2305 47.9388 49.3679 47.0762 48.3067 47.0762C47.2455 47.0794 46.3829 47.9388 46.3861 49C46.3861 50.0612 47.2455 50.9206 48.3067 50.9238C49.3679 50.9238 50.2305 50.0612 50.2305 49Z" fill="white"/>
<path fill-rule="evenodd" clip-rule="evenodd" d="M65.3067 121C65.3067 118.24 67.5463 116 70.3067 116C73.0704 116 75.3067 118.24 75.3067 121C75.3034 121.592 75.1928 122.178 74.9844 122.732L75.0007 122.729C74.9031 123.031 74.7305 123.36 74.5124 123.705C73.5391 125.229 71.5632 127.243 70.3067 128.5V128.503H70.3034C70.2446 128.444 70.1842 128.384 70.1224 128.322C68.5694 126.767 66.1262 124.322 65.6159 122.729L65.629 122.732C65.4206 122.178 65.3132 121.592 65.3067 121ZM72.2305 121C72.2305 119.939 71.3679 119.076 70.3067 119.076C69.2455 119.079 68.3829 119.939 68.3861 121C68.3861 122.061 69.2455 122.921 70.3067 122.924C71.3679 122.924 72.2305 122.061 72.2305 121Z" fill="white"/>
<path fill-rule="evenodd" clip-rule="evenodd" d="M114.307 121C114.307 118.24 116.546 116 119.307 116C122.07 116 124.307 118.24 124.307 121C124.303 121.592 124.193 122.178 123.984 122.732L124.001 122.729C123.903 123.031 123.731 123.36 123.512 123.705C122.539 125.229 120.563 127.243 119.307 128.5V128.503H119.303C119.245 128.444 119.184 128.384 119.122 128.322C117.569 126.767 115.126 124.322 114.616 122.729L114.629 122.732C114.421 122.178 114.313 121.592 114.307 121ZM121.231 121C121.231 119.939 120.368 119.076 119.307 119.076C118.246 119.079 117.383 119.939 117.386 121C117.386 122.061 118.246 122.921 119.307 122.924C120.368 122.924 121.231 122.061 121.231 121Z" fill="white"/>
<path fill-rule="evenodd" clip-rule="evenodd" d="M247.307 180C247.307 177.24 249.546 175 252.307 175C255.07 175 257.307 177.24 257.307 180C257.303 180.592 257.193 181.178 256.984 181.732L257.001 181.729C256.903 182.031 256.731 182.36 256.512 182.705C255.539 184.229 253.563 186.243 252.307 187.5V187.503H252.303C252.245 187.444 252.184 187.384 252.122 187.322C250.569 185.767 248.126 183.322 247.616 181.729L247.629 181.732C247.421 181.178 247.313 180.592 247.307 180ZM254.231 180C254.231 178.939 253.368 178.076 252.307 178.076C251.246 178.079 250.383 178.939 250.386 180C250.386 181.061 251.246 181.921 252.307 181.924C253.368 181.924 254.231 181.061 254.231 180Z" fill="white"/>
<path fill-rule="evenodd" clip-rule="evenodd" d="M307.307 100C307.307 97.2396 309.546 95 312.307 95C315.07 95 317.307 97.2396 317.307 100C317.303 100.592 317.193 101.178 316.984 101.732L317.001 101.729C316.903 102.031 316.731 102.36 316.512 102.705C315.539 104.229 313.563 106.243 312.307 107.5V107.503H312.303C312.245 107.444 312.184 107.384 312.122 107.322C310.569 105.767 308.126 103.322 307.616 101.729L307.629 101.732C307.421 101.178 307.313 100.592 307.307 100ZM314.231 100C314.231 98.9388 313.368 98.0762 312.307 98.0762C311.246 98.0794 310.383 98.9388 310.386 100C310.386 101.061 311.246 101.921 312.307 101.924C313.368 101.924 314.231 101.061 314.231 100Z" fill="white"/>
<path fill-rule="evenodd" clip-rule="evenodd" d="M393.307 171C393.307 168.24 395.546 166 398.307 166C401.07 166 403.307 168.24 403.307 171C403.303 171.592 403.193 172.178 402.984 172.732L403.001 172.729C402.903 173.031 402.731 173.36 402.512 173.705C401.539 175.229 399.563 177.243 398.307 178.5V178.503H398.303C398.245 178.444 398.184 178.384 398.122 178.322C396.569 176.767 394.126 174.322 393.616 172.729L393.629 172.732C393.421 172.178 393.313 171.592 393.307 171ZM400.231 171C400.231 169.939 399.368 169.076 398.307 169.076C397.246 169.079 396.383 169.939 396.386 171C396.386 172.061 397.246 172.921 398.307 172.924C399.368 172.924 400.231 172.061 400.231 171Z" fill="white"/>
<path fill-rule="evenodd" clip-rule="evenodd" d="M295.307 5C295.307 2.23958 297.546 0 300.307 0C303.07 0 305.307 2.23958 305.307 5C305.303 5.59245 305.193 6.17839 304.984 6.73177L305.001 6.72852C304.903 7.03125 304.731 7.36003 304.512 7.70508C303.539 9.22852 301.563 11.2435 300.307 12.5V12.5033H300.303C300.245 12.4443 300.184 12.3838 300.122 12.3219C298.569 10.7674 296.126 8.32197 295.616 6.72852L295.629 6.73177C295.421 6.17839 295.313 5.59245 295.307 5ZM302.231 5C302.231 3.9388 301.368 3.07617 300.307 3.07617C299.246 3.07943 298.383 3.9388 298.386 5C298.386 6.0612 299.246 6.92057 300.307 6.92383C301.368 6.92383 302.231 6.0612 302.231 5Z" fill="white"/>
<defs>
<linearGradient id="paint0_linear_0_570" x1="65.4441" y1="148.208" x2="148.451" y2="347.474" gradientUnits="userSpaceOnUse">
<stop stop-color="#5094D2"/>
<stop offset="1" stop-color="#43A9A5"/>
</linearGradient>
</defs>
</svg>
