<svg width="550" height="421" viewBox="0 0 550 421" fill="none" xmlns="http://www.w3.org/2000/svg">
<g clip-path="url(#clip0)">
<path d="M541.307 266.042C527.874 246.489 499.228 249.254 475.718 248.859C453.987 248.464 429.885 242.144 418.624 223.578C406.968 204.42 412.895 180.127 415.858 157.808C419.019 133.12 417.636 106.851 404.795 85.5205C391.954 64.1897 365.284 49.9692 341.577 57.672C316.29 65.7698 303.646 93.2233 285.866 112.974C263.739 137.267 229.957 150.698 196.965 148.13C157.453 144.773 117.744 120.479 80.801 134.502C53.3406 144.97 36.5482 176.176 39.9067 205.21C43.0676 233.059 61.8355 258.34 60.4526 286.188C60.4526 286.188 60.4526 286.386 60.4526 286.583C60.4526 286.781 60.4526 286.978 60.4526 287.176C60.2551 289.348 59.6624 294.681 57.6868 301.594C57.6868 301.594 57.6868 301.594 57.6868 301.791C53.9332 314.629 46.6236 326.48 39.314 338.528C37.9311 340.108 36.9433 342.083 35.9555 344.058C30.2263 356.698 31.0166 378.622 46.0309 395.607C66.5769 419.111 113.793 433.331 208.028 402.125C208.028 402.125 217.906 398.767 232.525 395.607C255.244 390.67 289.817 386.324 317.672 395.607C319.45 396.2 321.228 396.792 323.006 397.582C369.235 416.543 460.111 422.468 501.598 395.607C504.364 393.83 506.537 391.855 508.315 389.682C508.71 389.287 509.106 388.892 509.501 388.497C517.008 380.202 523.527 371.116 528.861 361.241C539.727 341.688 546.444 319.962 547.827 297.644C548.222 286.781 547.432 275.128 541.307 266.042Z" fill="#E3E8FF"/>
<path d="M79.8132 371.709C55.5136 342.478 46.2284 301.396 55.316 264.66C59.8599 246.489 68.5524 229.109 68.5524 210.345C68.75 192.175 60.8477 175.189 56.3038 157.611C51.76 140.033 51.1673 119.295 63.4159 106.062C62.6257 123.442 75.0718 137.86 86.3326 151.093C97.5933 164.524 109.842 178.547 111.422 195.927C113.398 216.073 100.162 236.219 104.31 255.97C107.471 270.98 119.72 282.238 127.622 295.471C140.463 317 141.451 345.046 129.993 367.166C124.461 377.832 115.571 387.707 103.718 390.275C92.0617 393.04 80.9985 383.56 79.8132 371.709Z" fill="#5C6BC0"/>
<path opacity="0.1" d="M105.891 336.553C108.459 353.736 105.298 372.104 100.162 390.868C99.5689 392.843 99.1738 394.818 98.5811 396.793C97.7909 395.213 97.0006 393.633 96.2104 392.053C96.408 391.46 96.408 391.065 96.6055 390.473C97.9884 385.14 99.3713 379.807 100.359 374.672C103.125 361.439 104.31 348.601 102.335 336.356C98.5811 333.196 94.8275 329.838 91.0739 326.875C84.5545 321.543 77.8376 316.407 71.1206 311.272C70.3304 310.68 70.1328 309.495 70.7255 308.705C71.3182 307.915 72.5035 307.717 73.2937 308.31C77.8376 311.667 82.1838 315.025 86.5301 318.382C91.469 322.333 96.6055 326.283 101.347 330.628C100.754 328.653 100.162 326.678 99.5689 324.505C99.1738 324.11 98.9762 323.715 98.9762 323.123C98.7786 322.53 98.5811 322.135 98.3835 321.543C95.6177 314.827 91.6666 308.705 87.7154 302.384C83.9618 296.459 80.2083 290.534 77.4424 284.016C77.2449 284.016 77.2449 284.016 77.0473 284.016C71.1206 282.041 65.1939 279.671 59.6623 276.906C58.872 276.511 58.4769 275.326 58.872 274.536C59.2672 273.746 60.4525 273.351 61.2427 273.746C65.9841 276.116 70.9231 278.091 75.862 279.868C75.0718 277.696 74.4791 275.326 74.084 272.956C71.7133 260.118 75.2693 247.28 78.6278 234.837C79.6156 231.479 80.6034 227.924 81.3936 224.369C78.2327 219.234 75.4669 213.703 73.0962 207.976C72.7011 206.988 73.0962 206.001 74.084 205.606C75.0718 205.211 76.0595 205.606 76.4547 206.593C78.2327 210.938 80.4058 215.086 82.5789 219.234C83.3692 215.086 83.9618 210.938 83.9618 206.988C84.357 186.25 72.7011 166.499 63.4159 150.501C62.8232 149.711 63.2183 148.526 64.0085 148.131C64.7988 147.538 65.9841 147.933 66.3792 148.724C73.8864 161.759 82.9741 177.165 86.135 193.953C89.4934 187.435 91.6666 180.72 93.0495 173.609C93.247 172.622 94.2348 172.029 95.2226 172.227C96.2104 172.424 96.8031 173.214 96.6055 174.202C95.0251 183.287 91.8641 191.78 87.1228 199.68C87.1228 199.68 87.1228 199.68 86.9252 199.878C87.1228 202.248 87.3203 204.816 87.3203 207.383C87.1228 217.259 84.5545 226.739 81.9863 236.022C80.8009 240.564 79.6156 244.91 78.6278 249.255C86.3325 242.145 92.8519 233.849 97.5933 224.764C97.9884 223.974 99.1738 223.579 99.964 223.974C100.754 224.369 101.149 225.554 100.754 226.344C94.8275 237.207 86.9252 246.885 77.64 254.785C77.4424 254.785 77.4424 254.983 77.4424 254.983C76.4547 260.908 76.2571 266.635 77.4424 272.561C78.6278 279.276 81.3936 285.201 84.7521 291.126C89.2959 281.646 93.247 271.968 96.408 262.093C96.8031 261.105 97.7909 260.71 98.5811 260.908C99.5689 261.303 99.964 262.29 99.7664 263.08C96.2104 273.943 91.8641 284.411 86.9252 294.682C88.1105 296.657 89.4935 298.632 90.6788 300.804C94.4324 306.73 98.3835 312.852 101.149 319.567C106.879 310.482 110.435 300.014 111.225 289.349C111.225 288.361 112.213 287.571 113.2 287.769C114.188 287.769 114.978 288.756 114.781 289.744C113.793 301.989 109.644 313.642 102.73 323.715C104.113 327.27 104.903 331.023 105.693 334.776C106.088 335.171 106.286 335.961 105.891 336.553Z" fill="black"/>
<path opacity="0.1" d="M97.5934 389.485C105.101 364.007 99.7666 338.923 84.9498 316.407C76.6524 303.569 65.194 293.101 52.1552 285.991C50.3772 316.605 60.2551 348.009 79.8133 371.709C80.8011 381.585 88.7034 389.88 98.1861 390.868C97.791 390.275 97.5934 389.88 97.5934 389.485Z" fill="black"/>
<path d="M94.63 394.225C69.5402 389.09 46.2285 375.462 29.2385 356.304C12.4461 337.146 1.97557 312.26 0 286.584C28.2507 285.596 55.5137 297.644 73.8865 319.172C92.0618 340.898 100.359 366.574 94.63 394.225Z" fill="#9BB2F9"/>
<path opacity="0.1" d="M96.2105 392.052C95.8154 393.435 95.4203 394.818 95.0252 396.2C94.6301 395.41 94.4325 394.818 94.0374 394.028C93.0496 392.25 92.2594 390.472 91.2716 388.497C87.3205 381.19 83.1717 374.079 78.6279 367.364C78.0352 367.364 77.245 367.562 76.6524 367.562C67.1696 368.747 57.6868 368.944 48.0065 368.154C47.2163 368.154 46.6236 367.364 46.6236 366.574C46.6236 365.784 47.4138 365.191 48.2041 365.191C56.8966 365.982 65.7867 365.784 74.4792 364.796C75.2694 364.796 75.8621 364.599 76.6524 364.599C74.2817 361.044 71.7134 357.489 68.9476 353.934C68.7501 353.736 68.5525 353.539 68.5525 353.341C67.1696 351.563 65.9842 349.983 64.6013 348.206C62.4282 345.441 60.2551 342.873 58.0819 340.306C46.8212 341.886 35.3628 342.676 23.9045 342.281C23.1143 342.281 22.5216 341.688 22.5216 340.701C22.5216 339.911 23.3118 339.318 24.1021 339.318C34.7702 339.516 45.4383 339.12 55.9088 337.54C49.587 330.233 42.6725 323.32 35.5604 316.802C35.3628 316.802 35.3628 316.802 35.1653 316.802L7.90235 312.852C7.11212 312.654 6.51944 312.062 6.717 311.272C6.91456 310.482 7.50723 309.889 8.29746 310.087L31.8068 313.445C25.0898 307.519 18.1753 301.989 10.8657 296.854C10.273 296.459 10.0755 295.471 10.4706 294.879C10.8657 294.286 11.8535 294.089 12.4462 294.484C24.1021 302.977 35.1653 312.259 45.4383 322.53C43.4627 314.235 40.6969 306.137 37.536 298.434C37.1409 297.644 37.536 296.854 38.3262 296.459C39.1164 296.064 39.9067 296.459 40.3018 297.249C44.2529 306.532 47.2163 316.407 49.3894 326.283V326.48C53.143 330.43 56.8966 334.38 60.4526 338.528C63.416 341.886 66.1818 345.441 68.9476 348.996C69.5403 339.12 68.3549 329.245 65.5891 319.765C65.3916 318.975 65.7867 318.185 66.5769 317.987C67.3671 317.79 68.1574 318.185 68.3549 318.975C71.5159 329.64 72.5036 341.293 71.5159 352.551C74.6768 356.699 77.4426 360.846 80.4059 364.994C80.6035 365.191 80.6035 365.191 80.6035 365.389C85.9375 373.487 90.8765 381.782 95.2228 390.275C95.6179 390.867 96.013 391.46 96.2105 392.052Z" fill="url(#paint0_linear)"/>
<path d="M349.677 106.457C347.701 106.259 345.725 107.049 344.738 108.629C342.565 112.382 331.699 122.85 320.636 133.91C318.463 136.083 319.648 139.44 322.611 140.428L348.096 148.921C350.072 149.711 352.245 148.921 353.628 147.538C358.172 142.798 380.298 122.85 383.064 116.727C384.249 114.159 382.669 111.197 379.508 110.604L349.677 106.457Z" fill="#FFDC8C"/>
<path d="M230.747 52.7349L228.969 53.9199C227.389 55.105 225.215 54.71 223.833 53.1299L197.755 20.1462C196.372 18.3686 196.767 15.9985 198.545 14.8135L209.411 7.11066C211.386 5.72811 214.152 6.51814 214.942 8.69072L231.932 47.9947C232.723 49.7723 232.13 51.7474 230.747 52.7349Z" fill="#EF940F"/>
<path d="M331.501 66.1654L324.587 62.4128C322.611 61.2277 322.019 58.6601 323.599 56.8826L343.552 32.9842C344.738 31.6016 346.911 31.2066 348.491 32.3916L359.752 40.2919C361.728 41.6745 361.925 44.6371 359.95 46.2172L335.65 66.1654C334.267 66.5604 332.687 66.7579 331.501 66.1654Z" fill="#FFDC8C"/>
<path d="M299.892 45.4267C305.621 47.4018 310.955 49.9694 315.499 53.327L341.972 22.3184C334.465 16.1956 326.167 11.0604 316.685 7.11027C305.029 2.37009 292.385 0 278.556 0C262.554 0 248.725 2.96261 236.674 8.88784C232.328 11.0604 228.376 13.4305 224.623 15.8006L244.379 52.3395C254.059 45.4267 265.517 41.8716 278.556 41.8716C285.866 42.0691 292.978 43.2542 299.892 45.4267Z" fill="url(#paint1_linear)"/>
<path d="M297.917 206.593C296.731 206.593 295.348 206.198 294.163 205.408L270.061 189.41C268.283 188.225 267.295 186.447 267.098 184.275C266.9 182.3 267.69 180.324 269.271 178.942C272.037 176.572 274.605 174.202 277.371 172.227C284.483 166.499 291.397 160.574 297.719 154.649C301.078 151.488 304.239 148.131 307.004 144.576C308.782 142.403 311.746 141.613 314.512 142.601L342.762 153.068C344.738 153.858 346.121 155.439 346.911 157.414C347.504 159.389 347.109 161.561 345.923 163.339C343.157 167.289 340.194 170.844 337.033 174.202C330.514 181.114 323.599 187.632 316.29 193.36C311.548 197.113 306.807 201.063 302.263 205.21C301.275 206 299.497 206.593 297.917 206.593ZM312.338 145.958C311.548 145.958 310.758 146.353 310.363 146.946C307.399 150.698 304.041 154.056 300.682 157.414C294.361 163.536 287.446 169.462 280.137 175.189C277.568 177.164 274.802 179.534 272.234 181.905C271.642 182.497 271.246 183.287 271.444 184.077C271.444 184.867 272.037 185.657 272.629 186.25L296.731 202.248C297.719 202.84 299.102 202.84 300.09 202.05C304.634 197.903 309.375 193.952 314.314 190.002C321.426 184.275 328.341 177.954 334.662 171.239C337.626 168.079 340.589 164.524 343.157 160.771C343.552 159.981 343.75 159.191 343.552 158.401C343.355 157.611 342.762 157.019 341.972 156.624L313.721 146.156C312.931 145.958 312.536 145.958 312.338 145.958Z" fill="#FFDC8C"/>
<g opacity="0.51">
<path opacity="0.51" d="M353.035 377.239C353.035 380.597 383.459 383.362 420.995 383.362C458.531 383.362 488.955 380.597 488.955 377.239C488.955 373.881 458.531 371.116 420.995 371.116C383.459 370.919 353.035 373.881 353.035 377.239Z" fill="url(#paint2_linear)"/>
</g>
<path d="M446.048 128.978L442.508 129.316L466.299 378.236L469.839 377.897L446.048 128.978Z" fill="#9BB2F9"/>
<path d="M395.165 128.963L371.385 377.883L374.925 378.221L398.705 129.301L395.165 128.963Z" fill="#9BB2F9"/>
<path d="M461.099 303.371H380.1V306.927H461.099V303.371Z" fill="#9BB2F9"/>
<path d="M466.038 356.303H375.952V359.859H466.038V356.303Z" fill="#9BB2F9"/>
<path d="M393.93 130.552H447.468C449.246 130.552 450.629 129.17 450.629 127.392C450.629 125.614 449.246 124.232 447.468 124.232H393.93C392.152 124.232 390.769 125.614 390.769 127.392C390.769 129.17 392.152 130.552 393.93 130.552Z" fill="url(#paint3_linear)"/>
<path d="M183.728 325.69H88.9009V349.391H183.728V325.69Z" fill="#9BB2F9"/>
<path d="M183.728 325.69H88.9009V329.048H183.728V325.69Z" fill="url(#paint4_linear)"/>
<path d="M174.641 349.391H79.8132V379.412H174.641V349.391Z" fill="#9BB2F9"/>
<path d="M181.358 349.391H79.8132V352.749H181.358V349.391Z" fill="url(#paint5_linear)"/>
<path d="M164.763 399.755L68.9475 398.767V378.622H174.641L164.763 399.755Z" fill="#9BB2F9"/>
<path d="M174.641 378.622H68.9475V381.98H174.641V378.622Z" fill="url(#paint6_linear)"/>
<path d="M179.777 325.69V349.391L174.838 352.748V374.474L164.763 381.782V399.755L186.889 379.807V325.69H179.777Z" fill="url(#paint7_linear)"/>
<path d="M207.04 44.0449C199.138 53.3278 193.409 63.5982 189.26 74.8561C185.111 86.3115 182.938 97.372 182.345 108.235C182.148 111.197 182.938 113.765 184.914 115.938C186.889 118.11 189.062 119.098 191.631 119.098H209.608C211.781 119.098 214.152 118.11 216.325 116.333C218.498 114.555 219.881 111.79 220.474 108.235C223.24 95.1994 227.388 84.534 233.118 76.4362L207.04 44.0449Z" fill="white"/>
<path d="M209.608 121.072H191.631C188.47 121.072 185.704 119.69 183.531 117.122C181.16 114.554 180.172 111.394 180.567 108.037C181.16 97.1737 183.531 85.7182 187.679 74.2628C191.631 62.8074 197.755 52.3395 205.657 42.8591L207.238 41.0815L235.686 76.4354L234.896 77.6204C229.364 85.5207 225.215 95.9886 222.647 108.827C222.054 112.777 220.474 115.937 217.708 118.109C215.14 120.085 212.374 121.072 209.608 121.072ZM207.04 47.2043C200.126 55.8946 194.791 65.375 191.235 75.4479C187.284 86.5083 184.914 97.5687 184.518 108.234C184.321 110.802 184.914 112.777 186.494 114.554C188.075 116.332 189.853 117.122 191.828 117.122H209.806C211.584 117.122 213.362 116.332 215.337 114.752C217.115 113.172 218.301 110.999 218.893 107.839C221.462 95.1986 225.61 84.5332 230.944 76.4354L207.04 47.2043Z" fill="#FFDC8C"/>
<path d="M127.029 309.692C127.029 309.692 126.239 319.172 126.042 320.357C126.042 321.542 121.893 321.74 121.3 321.147C120.905 320.555 119.72 309.692 119.72 309.692" fill="#FBBE52"/>
<path d="M120.312 322.135C120.312 323.518 120.708 325.69 120.708 325.69H125.449L125.647 324.9C125.647 324.9 127.227 325.69 128.412 325.69H132.364C135.327 325.69 136.907 325.295 136.907 324.9C137.302 322.728 133.746 322.925 132.759 322.925C130.19 322.925 127.425 321.74 126.634 320.358C126.239 319.37 126.437 319.173 125.844 319.37C125.844 319.37 125.449 319.568 125.054 320.16C124.461 321.148 123.671 321.74 122.683 321.543C122.091 321.345 121.498 321.148 121.103 320.753C121.3 320.555 120.312 320.753 120.312 322.135Z" fill="#283593"/>
<path d="M145.205 308.309C145.205 308.309 142.044 316.012 141.451 317.197C140.858 318.382 137.105 317 136.907 316.21C136.71 315.42 137.895 306.137 137.895 306.137" fill="#FBBE52"/>
<path d="M135.327 316.802C134.734 317.987 134.142 320.357 134.142 320.357L137.698 322.529L138.488 321.937C138.488 321.937 139.278 323.122 140.463 323.912C141.254 324.504 143.032 325.097 144.019 325.295C147.378 326.085 149.749 325.69 150.144 325.295C151.132 323.517 146.983 322.332 145.995 322.134C143.624 321.147 142.439 318.777 142.439 317.394C142.439 316.407 142.637 316.209 142.044 316.209C142.044 316.209 141.649 316.209 141.056 316.604C140.266 317.197 139.081 317.394 138.29 316.999C137.698 316.604 137.303 316.209 137.105 315.617C136.907 315.617 135.92 315.617 135.327 316.802Z" fill="#283593"/>
<path d="M117.744 198.297C115.966 197.112 114.188 195.73 112.41 194.15C108.459 190.792 104.903 187.237 104.31 184.472C103.322 178.547 104.113 160.771 104.508 152.476C104.508 151.883 104.508 151.488 104.508 151.093C104.903 143.193 109.249 139.638 111.422 138.453C112.41 148.723 114.978 171.831 115.176 173.016C115.571 174.597 117.744 198.297 117.744 198.297Z" fill="url(#paint8_linear)"/>
<path d="M133.351 252.217C132.956 259.525 132.759 260.117 131.771 265.45C130.981 269.795 117.942 270.585 119.917 267.228C122.486 262.29 116.361 253.6 114.188 226.936C113.793 222.986 112.015 222.394 110.83 214.098C109.644 205.803 114.188 198.693 114.188 198.693L133.549 196.915L133.746 221.011V229.109C133.746 229.306 133.944 240.367 133.351 252.217Z" fill="url(#paint9_linear)"/>
<path d="M120.312 264.068C120.312 264.068 116.361 274.536 116.559 284.016C116.756 292.509 118.139 311.272 118.139 311.272C118.139 311.272 126.239 312.062 128.61 310.482C132.166 263.673 131.771 263.673 131.771 265.253C131.771 260.117 120.312 264.068 120.312 264.068Z" fill="url(#paint10_linear)"/>
<path d="M156.268 249.057C156.268 249.057 160.416 259.722 159.824 264.265C159.033 268.807 146.192 309.692 146.192 309.692C146.192 309.692 139.87 310.087 135.722 307.914C135.722 307.914 136.512 294.483 138.685 282.435C142.044 263.672 149.156 260.117 152.119 258.932C155.28 258.142 155.477 251.427 156.268 249.057Z" fill="url(#paint11_linear)"/>
<path d="M146.785 197.31C146.785 197.31 158.046 246.489 159.231 259.327C159.824 264.66 152.909 267.82 147.773 263.08C141.451 257.352 131.573 234.244 128.412 229.701C125.251 224.961 113.595 220.616 121.498 196.717" fill="url(#paint12_linear)"/>
<path d="M121.695 133.91C121.695 133.91 123.078 129.17 122.486 125.615C121.893 122.06 119.72 115.937 120.51 111.197C121.3 106.457 127.227 102.507 133.549 103.099C139.871 103.692 141.649 109.814 142.636 113.172C143.624 116.727 143.427 122.06 143.229 124.825C143.032 127.788 141.451 129.96 140.266 130.553C139.278 131.145 135.327 130.355 134.537 131.145C133.746 131.935 133.351 136.28 133.351 136.28" fill="#FBBE52"/>
<path d="M118.732 137.663C118.732 137.663 119.127 134.898 120.115 133.91C121.103 132.923 128.215 132.923 130.19 133.12C132.364 133.318 137.5 135.885 138.093 136.28C138.685 136.873 137.5 139.441 137.5 139.441L118.732 137.663Z" fill="#283593"/>
<path d="M191.63 110.209C191.63 109.617 191.038 110.012 190.84 110.407C190.84 110.407 190.84 110.604 190.84 110.802C190.84 110.012 191.038 109.419 190.84 109.222C190.84 108.827 190.248 108.827 190.05 109.222C190.05 108.827 190.05 108.629 190.05 108.629C190.05 108.037 189.26 108.234 189.26 108.827C189.26 109.024 189.26 109.222 189.062 109.617C189.062 109.419 189.062 109.222 189.062 109.222C189.062 108.629 188.47 108.827 188.272 109.222C188.272 109.419 188.272 109.617 188.074 110.209C188.074 110.802 187.877 111.197 187.877 111.789C187.877 112.579 187.482 113.172 187.482 113.172C186.296 114.554 185.111 114.949 185.111 114.949L183.728 113.962C183.728 113.962 183.333 116.332 183.333 117.122C183.333 117.912 183.926 118.702 183.926 119.295C183.926 119.69 182.148 122.455 182.148 122.455L186.692 124.035C186.692 124.035 187.679 120.085 188.074 119.69C188.667 119.097 190.445 116.925 190.643 116.53C190.643 116.332 191.038 115.542 191.235 114.752L191.433 113.369L191.63 111.987C191.63 111.987 191.63 110.407 191.63 110.209Z" fill="#FBBE52"/>
<path d="M188.272 124.034C188.272 124.034 186.494 128.972 185.309 134.7C184.321 139.242 183.136 143.983 180.963 148.13C180.963 148.13 180.963 148.13 180.963 148.328C179.777 151.093 177.407 154.253 175.826 154.648C174.246 155.043 168.714 154.648 168.714 154.648C165.355 154.846 156.663 153.661 149.353 152.673C149.156 152.673 149.156 152.673 148.958 152.673C145.6 152.278 142.439 151.883 140.266 151.488C139.278 151.488 138.29 150.895 137.697 150.303C137.105 149.71 136.512 148.92 136.512 148.13C136.117 145.76 137.5 143.785 139.673 142.403L139.871 142.205C137.302 139.638 134.932 137.07 134.932 137.07C134.932 137.07 142.044 137.465 145.797 137.662C148.563 137.86 166.738 142.798 168.912 143.39C169.109 143.39 169.307 143.588 169.307 143.588C169.307 143.588 169.504 143.588 169.899 143.785C170.097 143.785 170.097 143.785 170.294 143.983C170.887 142.403 171.677 140.625 172.863 139.045C176.814 133.515 180.963 121.862 180.963 121.862C180.963 121.862 184.321 122.059 185.901 122.849C187.284 123.244 188.272 124.034 188.272 124.034Z" fill="url(#paint13_linear)"/>
<path d="M121.893 127.985C121.893 127.985 130.585 128.775 132.363 127.985C133.944 127.195 136.512 125.615 136.71 122.652C136.907 119.689 136.314 118.702 137.5 117.122C138.685 115.542 139.673 115.937 139.871 117.517C140.068 119.097 140.068 121.862 140.463 122.06C141.056 122.257 141.649 120.282 141.451 117.319C141.253 114.752 141.056 112.579 140.266 110.999C139.475 109.222 139.08 109.419 138.29 109.024C139.08 108.629 139.871 108.629 141.451 106.259C143.229 103.494 142.241 99.3462 137.697 99.3462C129.598 99.3462 121.103 100.926 120.905 106.851C120.905 106.851 118.139 106.456 117.942 111.789C117.942 117.319 121.3 123.837 121.695 125.615C121.498 127.392 121.103 127.59 121.893 127.985Z" fill="#283593"/>
<path d="M146.192 191.977C146.587 194.742 148.958 198.89 147.18 199.482C146.587 199.68 143.822 199.482 140.661 199.285H140.463C137.5 199.087 134.339 198.692 131.573 198.495C120.51 198.1 114.781 200.272 113.793 199.68C113.2 199.285 113.2 198.495 113.398 197.31C113.793 194.94 113.99 192.372 113.595 190.002C113.398 188.027 113.003 185.459 112.41 182.694C110.632 173.016 107.076 158.203 106.483 149.315C105.693 135.292 120.51 136.675 120.51 136.675C139.475 135.49 148.563 141.02 149.551 149.118C149.551 149.71 149.748 150.303 149.748 150.896C150.143 159.388 147.575 173.016 146.39 183.089C145.995 186.052 145.995 189.212 146.192 191.977Z" fill="url(#paint14_linear)"/>
<path d="M135.327 305.544V308.309C135.327 308.309 136.71 309.692 138.29 309.889C139.475 310.087 145.402 310.679 146.39 310.284L147.18 307.914C147.18 307.914 141.846 307.717 139.08 306.729C136.314 305.939 135.327 305.544 135.327 305.544Z" fill="#283593"/>
<path d="M116.954 308.506L117.547 311.075C117.547 311.075 119.127 312.062 120.905 312.062C122.09 312.062 128.412 312.062 129.4 311.47V308.506C129.4 308.506 124.066 309.297 121.103 308.901C118.139 308.506 116.954 308.506 116.954 308.506Z" fill="#283593"/>
<path d="M426.526 92.8285C416.649 86.1132 401.832 64.3874 400.449 64.3874C399.659 64.3874 398.868 64.7824 396.498 64.9799C395.312 64.9799 393.337 64.5849 392.151 64.3874C391.954 64.3874 391.559 64.1899 391.559 63.9924C391.559 63.7949 391.756 63.7949 391.756 63.5974C392.152 63.2023 392.942 63.2023 393.534 63.2023C394.127 63.2023 394.72 63.2023 394.917 62.6098C394.917 62.4123 394.917 62.0173 394.522 61.8198C394.325 61.6223 393.93 61.6223 393.732 61.4248C392.152 61.0298 390.176 60.6347 388.595 60.2397C389.583 60.0422 390.966 59.6472 391.954 59.4497C392.744 59.2522 393.337 59.0547 394.127 59.0547C395.115 59.0547 397.683 59.0547 398.671 59.2522C400.844 59.6472 401.634 60.0422 403.61 61.0298C404.795 61.6223 405.783 62.4123 406.968 63.2023C409.734 65.3749 419.81 77.2254 421.983 78.8054" fill="#F2AA41"/>
<path d="M355.406 89.8657C355.208 91.0508 355.01 92.0383 354.615 93.2233C353.825 96.3835 355.801 99.5436 358.962 100.334L384.644 106.259C387.805 107.049 390.966 105.074 391.756 101.914C392.151 100.531 392.349 99.1486 392.744 97.766C395.51 84.928 395.707 72.2875 393.337 60.0421C392.349 54.7094 390.966 49.7717 389.188 45.0315C388.003 41.6739 384.051 40.2913 380.89 41.8714L356.393 55.3019C353.825 56.6844 352.837 59.8446 353.825 62.4122C354.418 63.9922 355.01 65.7698 355.406 67.3498C357.184 74.2626 357.184 81.9654 355.406 89.8657Z" fill="#F8C608"/>
<path d="M378.125 117.319C378.125 117.319 382.076 124.825 383.854 133.317C385.434 140.625 382.076 152.871 383.064 161.363C383.261 162.944 383.854 167.091 384.644 168.276C385.632 169.659 387.41 171.239 387.805 173.214C388.003 174.399 387.41 175.584 386.027 176.374C384.644 177.164 383.656 176.374 383.261 176.572C380.495 176.967 379.903 179.139 375.161 180.127C373.581 180.522 371.21 179.929 369.827 179.139C369.235 178.744 369.235 178.152 369.63 177.757C369.827 177.362 373.383 175.979 375.161 174.991C376.742 174.004 378.322 171.436 378.52 170.251C378.717 169.264 377.73 164.524 377.334 162.549C374.174 148.723 370.222 129.367 368.247 121.467" fill="#F2AA41"/>
<path d="M369.235 178.744C368.839 178.152 368.839 177.164 369.037 176.967C369.432 176.572 371.21 175.584 372 175.189C372.988 174.794 376.939 172.424 376.544 172.622C375.952 172.819 376.939 173.412 377.927 173.412C381.088 173.214 380.693 173.214 382.471 172.819C385.039 172.227 385.632 169.856 385.632 169.461C386.027 169.659 387.805 172.029 388.003 172.819C388.2 173.412 388.595 174.597 388.398 175.387C388.2 175.782 384.051 176.967 384.051 176.967C384.051 176.967 383.261 176.967 382.471 177.164C381.681 177.362 380.495 177.954 380.1 178.349C379.705 178.744 379.31 179.337 378.915 179.534C377.532 180.127 376.544 180.324 374.964 180.522C371.803 180.719 369.827 179.732 369.235 178.744Z" fill="#283593"/>
<path d="M374.964 120.084C374.964 120.084 378.915 128.972 377.73 137.662C376.742 145.167 369.037 157.61 367.062 165.906C366.667 167.486 365.876 171.436 366.074 172.818C366.469 174.399 367.654 176.571 367.259 178.546C367.062 179.731 366.074 180.719 364.493 180.916C362.913 181.114 362.32 180.126 361.728 180.126C358.962 179.534 357.776 181.509 352.838 180.719C351.257 180.521 349.282 179.336 348.294 177.954C347.899 177.361 348.096 176.769 348.491 176.571C348.886 176.176 352.64 176.176 354.616 175.781C356.394 175.386 358.764 173.411 359.357 172.621C359.95 171.633 360.542 166.893 360.74 164.918C362.518 150.895 366.074 127.392 366.864 119.294" fill="#FBBE52"/>
<path d="M348.096 177.954C347.899 177.361 348.096 176.374 348.491 176.374C349.084 176.176 350.862 175.781 351.85 175.583C352.837 175.386 357.381 174.398 356.789 174.596C356.196 174.793 356.986 175.583 357.776 175.781C360.74 176.571 360.542 176.571 362.32 176.571C364.888 176.769 366.271 174.793 366.469 174.398C366.864 174.793 367.654 177.559 367.654 178.151C367.654 178.941 367.654 180.126 367.259 180.719C367.062 181.114 362.715 180.916 362.715 180.916C362.715 180.916 362.123 180.719 361.135 180.521C360.147 180.324 359.159 180.719 358.567 181.114C358.172 181.311 357.579 181.904 356.986 181.904C355.406 182.101 354.418 181.904 352.837 181.509C349.874 180.719 348.294 179.139 348.096 177.954Z" fill="#283593"/>
<path d="M419.217 100.729L441.738 113.566C441.738 113.566 440.75 121.664 430.675 123.837C424.748 125.022 414.87 123.047 412.5 123.837C397.288 128.38 371.21 123.244 371.21 123.244C371.21 123.244 367.457 126.207 367.259 123.047C367.062 118.899 366.666 116.924 369.827 114.752C375.161 111.394 395.707 104.481 419.217 100.729Z" fill="#FBBE52"/>
<path d="M437.195 93.6184C437.195 93.6184 444.307 107.246 442.331 113.172C440.553 119.097 437.195 124.43 427.514 124.627C417.834 124.627 398.671 129.17 398.671 129.17C398.671 129.17 392.942 118.307 390.769 114.357C388.595 110.407 390.373 106.259 390.373 106.259C390.373 106.259 409.734 99.7411 411.512 98.1611C413.29 96.581 414.871 93.0259 414.871 93.0259" fill="url(#paint15_linear)"/>
<path d="M414.475 44.2417C413.092 44.6367 413.685 47.7968 412.302 48.1918C411.314 48.5869 409.536 47.9943 408.746 48.5869C404.202 51.1545 405.388 56.2897 404.795 62.6099C402.819 67.5476 402.424 71.8927 403.807 74.6578C405.783 78.0155 407.758 79.003 410.129 81.7681C411.907 83.9407 411.512 87.1008 411.907 91.841C411.907 92.631 411.117 96.3837 411.117 96.3837C410.919 97.3712 415.068 98.1612 417.636 97.7662C422.18 96.9762 431.663 95.7911 434.231 95.7911C436.602 95.7911 439.368 93.2236 439.368 93.2236C439.368 93.2236 438.182 91.841 437.787 89.8659C436.997 85.5208 436.207 75.0529 435.614 71.3002C433.836 62.0174 432.651 55.1046 428.897 46.6118" fill="url(#paint16_linear)"/>
<path d="M397.88 31.6018C397.288 29.4292 396.893 27.0591 397.09 25.2815C397.288 21.5289 397.683 16.3937 403.807 14.0236C409.931 11.851 416.648 13.2336 418.624 17.5787C420.6 21.9239 420.204 28.6392 420.402 32.1943C420.6 35.7494 423.365 40.0946 423.365 40.0946L410.327 45.8223C410.327 45.8223 408.153 41.0821 407.363 40.6871C406.573 40.0946 406.375 41.6747 403.412 42.4647C402.227 42.6622 400.646 39.6996 399.658 37.132V36.9345C399.066 36.9345 398.276 36.9345 398.078 36.737C397.09 36.5395 397.288 36.1444 397.485 35.5519C397.683 33.9719 397.88 32.5893 397.88 31.6018Z" fill="#FBBE52"/>
<path d="M376.544 103.691C376.347 104.678 373.976 107.246 372.198 107.444C371.605 107.444 371.21 107.444 370.618 107.246C369.827 107.444 367.654 107.246 368.642 106.061C367.062 107.049 365.481 106.653 363.703 106.258C363.111 106.061 363.308 105.468 364.691 105.271C366.667 105.073 368.049 104.086 369.432 102.506C369.235 102.308 368.84 102.506 368.049 102.506C367.259 102.506 366.864 102.111 366.864 101.716C366.864 101.518 367.852 101.321 368.247 101.123C369.235 100.728 370.025 100.333 371.013 99.9382C372.001 99.5432 372.593 99.3457 373.779 99.3457C373.976 99.3457 375.754 99.7407 375.162 100.333" fill="#FBBE52"/>
<path d="M407.363 68.9301C407.363 68.9301 400.449 87.4958 399.263 89.0759C394.522 95.0011 375.952 104.481 375.952 104.481C375.952 104.481 372.988 103.494 373.581 100.531C379.31 97.9637 389.781 86.5083 392.151 85.1257C393.732 84.1382 400.251 61.4248 400.251 61.4248" fill="#FBBE52"/>
<path d="M404.4 48.1916C409.339 46.2165 414.08 46.2165 418.031 42.4639C421.983 45.4265 413.29 62.6096 411.314 63.2022C409.141 63.5972 406.375 73.2751 405.783 74.4601C398.868 74.2626 396.3 70.5099 396.3 70.5099C399.066 61.8196 399.659 50.1667 404.4 48.1916Z" fill="url(#paint17_linear)"/>
<path d="M408.549 48.7842C408.944 47.4017 409.932 46.4141 410.129 45.2291C410.327 44.0441 410.129 42.464 409.339 41.279C408.944 40.6864 408.153 40.0939 407.561 39.6989C404.795 37.5263 404.005 37.1313 404.993 33.7737C405.388 32.7861 405.585 31.6011 405.388 30.6135C405.19 29.626 404.993 28.6385 404.005 28.441C403.215 28.441 402.819 28.6385 402.622 29.231C402.227 30.021 403.61 35.7487 401.634 29.8235C401.041 27.8484 399.658 28.0459 399.856 24.0958C399.856 23.7008 400.054 21.7257 399.659 21.5282C396.102 24.0958 397.683 27.6509 397.485 29.4285C396.102 28.836 395.312 24.2933 395.312 23.5033C395.312 21.9232 395.51 20.7382 396.102 19.5531C398.473 14.4179 401.041 13.4304 403.215 12.6404C405.19 11.8503 407.363 10.8628 409.734 10.8628C411.907 10.8628 414.673 11.6528 415.463 13.2329C418.624 12.4429 420.402 15.208 420.995 16.1955C421.983 17.578 422.773 19.1581 423.365 20.7382C424.156 23.1083 424.353 25.8734 424.946 28.2435C425.539 30.2185 426.329 32.3911 427.909 33.7737C429.49 35.1562 431.465 35.3537 433.243 36.5388C435.416 38.1188 436.602 40.6864 436.404 43.4515C436.207 46.0191 435.021 48.9817 436.602 51.3518C437.194 52.1419 437.787 52.7344 438.38 53.5244C439.565 55.302 439.368 57.8696 438.182 59.6472C436.997 61.4247 434.824 63.5973 432.848 64.1898C430.873 64.7823 429.095 65.1774 427.119 64.9799C423.365 64.7823 420.204 64.9799 416.253 61.6222C414.08 59.6472 415.463 58.6596 413.29 56.487C412.105 55.302 410.327 54.7095 409.536 53.3269C408.351 51.7468 408.153 50.1668 408.549 48.7842Z" fill="#283593"/>
<path d="M402.819 128.577C399.461 122.652 393.929 112.579 393.139 110.802C392.744 109.419 392.942 106.852 393.337 104.876C391.361 105.469 390.176 106.062 390.176 106.062C390.176 106.062 388.398 110.407 390.571 114.357C392.744 118.505 398.473 129.565 398.473 129.565C398.473 129.565 400.449 129.17 402.819 128.577Z" fill="#283593"/>
<path opacity="0.51" d="M280.334 393.04C280.334 395.608 305.226 397.583 335.848 397.583C366.469 397.583 391.361 395.608 391.361 393.04C391.361 390.473 366.469 388.498 335.848 388.498C305.226 388.498 280.334 390.67 280.334 393.04Z" fill="url(#paint18_linear)"/>
<path d="M271.642 283.818C271.642 283.818 270.061 283.226 269.468 282.831C268.876 282.436 268.678 280.263 268.086 279.473C267.493 278.683 264.925 277.103 264.925 277.103C264.925 277.103 262.554 275.128 262.159 274.931C261.764 274.733 261.566 275.523 261.764 276.313C262.159 277.103 263.542 278.288 263.542 278.683C263.542 278.881 263.542 279.276 263.147 279.276C262.554 279.473 261.369 279.671 260.183 279.473C260.183 279.473 259.196 279.078 258.405 278.486C257.813 278.091 257.22 277.696 256.627 277.301C256.035 276.906 255.64 276.708 255.442 276.511C254.849 276.313 254.257 276.708 254.652 277.301C254.652 277.301 254.849 277.498 255.047 277.696C254.652 277.301 254.257 277.103 254.059 277.103C253.466 276.708 252.479 277.103 253.071 277.893C253.071 278.091 253.466 278.288 253.664 278.486C253.071 278.288 252.281 278.683 252.874 279.276C253.071 279.473 253.664 280.066 254.652 280.658C254.454 280.461 254.257 280.461 254.257 280.461C253.664 280.263 252.874 280.658 253.269 281.251C253.466 281.448 254.849 282.831 254.849 282.831L256.232 284.016L257.813 285.003C258.998 285.596 259.986 286.189 260.183 286.189C260.776 286.386 264.727 286.584 265.715 286.584C266.703 286.584 269.468 288.164 269.468 288.164L271.642 283.818Z" fill="#F2AA41"/>
<path d="M260.183 190.002C254.849 195.533 250.108 201.853 245.761 208.963C240.427 217.851 236.476 228.911 234.303 241.749L229.957 266.438C229.364 269.993 229.957 273.351 231.537 276.313C233.315 279.276 235.686 281.053 238.649 281.646L253.861 284.411C256.825 285.004 259.788 284.016 262.356 281.843C264.925 279.671 266.703 276.708 267.295 273.153L268.481 266.24C270.456 255.18 276.58 231.677 281.717 224.369C283.1 222.394 284.483 220.616 285.866 218.839L260.183 190.002Z" fill="url(#paint19_linear)"/>
<path d="M306.807 378.622C306.807 378.622 309.572 383.757 309.572 385.535C309.77 386.917 314.906 385.732 315.104 384.942C315.499 384.152 312.733 376.252 312.733 376.252" fill="#2198DF"/>
<path d="M316.882 385.732C317.277 387.312 317.672 391.262 317.672 391.262L312.141 392.052L311.943 391.262C311.943 391.262 311.153 392.052 309.572 392.25L299.695 393.632C299.695 393.632 296.929 393.83 296.929 393.237C296.534 391.46 300.485 390.275 301.473 389.682C304.831 387.707 307.202 386.522 308.387 384.942C309.177 383.954 308.387 383.362 309.177 383.559C309.177 383.559 309.77 383.559 310.363 384.152C311.153 385.139 312.536 385.732 313.721 385.139C314.511 384.942 315.104 384.349 315.499 383.757C315.302 383.757 316.487 383.954 316.882 385.732Z" fill="#283593"/>
<path d="M292.978 331.023C285.668 329.838 286.656 329.443 281.322 329.245C276.778 329.245 272.827 337.343 276.778 341.886C281.519 347.218 284.285 347.613 310.56 355.316C314.512 356.501 319.451 357.686 327.55 360.451C335.65 363.414 343.157 361.834 343.157 361.834L344.738 342.083L320.636 336.75L312.536 334.973C312.338 335.17 305.029 332.8 292.978 331.023Z" fill="url(#paint20_linear)"/>
<path d="M287.446 331.22C287.446 331.22 297.126 340.503 301.67 348.008C306.214 355.514 314.907 378.425 314.907 378.425C314.907 378.425 310.165 381.585 306.609 381.19C306.609 381.19 280.532 348.601 275.79 340.306C273.024 335.565 287.446 331.22 287.446 331.22Z" fill="url(#paint21_linear)"/>
<path d="M350.665 377.24C350.665 377.24 356.986 377.042 358.369 376.845C359.752 376.647 359.555 371.71 358.764 371.315C357.974 370.92 351.06 371.315 351.06 371.315" fill="#FBBE52"/>
<path d="M359.555 369.734C361.333 369.734 364.098 369.932 364.098 369.932L364.296 375.857L363.308 376.252C363.308 376.252 364.494 378.227 364.494 379.61L364.691 384.745C364.889 388.498 364.493 390.67 363.901 390.67C361.925 390.868 361.53 386.72 361.135 385.535C359.752 381.782 358.962 379.412 357.579 378.03C356.591 377.042 355.998 377.832 356.196 377.042C356.196 377.042 356.394 376.45 356.986 376.055C358.172 375.462 358.764 374.08 358.567 372.895C358.369 372.104 358.172 371.512 357.579 370.919C357.381 371.117 357.777 369.932 359.555 369.734Z" fill="#283593"/>
<path d="M298.312 370.13C298.312 370.13 312.141 367.167 320.833 367.76C329.526 368.352 352.64 369.735 352.64 369.735C352.64 369.735 353.233 376.845 352.245 379.215C352.245 379.215 299.102 396.201 290.607 390.67C279.939 383.955 298.312 370.13 298.312 370.13Z" fill="url(#paint22_linear)"/>
<path d="M352.64 361.439C344.54 364.402 343.75 365.784 340.194 367.759C316.487 381.19 308.585 382.77 302.856 383.363C296.731 383.955 293.768 376.055 297.126 372.697C300.09 369.734 301.078 368.944 304.238 366.574C305.029 365.982 306.214 365.192 307.399 364.204C317.08 356.896 326.562 350.379 326.562 350.379C326.76 350.181 330.316 348.009 330.514 343.861C330.514 341.096 329.131 338.331 326.76 336.948C337.626 336.751 348.491 336.553 359.357 336.158C359.159 336.356 366.469 356.304 352.64 361.439Z" fill="url(#paint23_linear)"/>
<path d="M342.17 277.894C339.404 277.696 306.609 285.004 303.251 285.399C299.892 285.991 270.259 283.029 270.259 283.029C270.259 283.029 270.654 285.004 270.851 287.176C270.851 288.164 299.3 300.805 303.251 299.422C307.202 298.039 344.145 291.324 344.145 291.324L342.17 277.894Z" fill="url(#paint24_linear)"/>
<path d="M350.467 271.178C350.467 271.178 349.084 266.24 349.677 262.685C350.269 259.13 352.442 252.612 351.652 247.872C350.862 243.132 344.738 238.984 338.416 239.577C331.896 240.169 330.118 246.292 328.933 249.847C327.945 253.402 327.945 258.932 328.34 261.895C328.538 264.858 330.316 267.228 331.304 267.82C332.292 268.413 336.44 267.623 337.033 268.413C337.823 269.203 338.218 273.745 338.218 273.745" fill="#FBBE52"/>
<path d="M353.628 274.931C353.628 274.931 353.233 272.166 352.245 271.178C351.257 270.191 343.948 270.191 341.972 270.388C339.799 270.586 334.465 273.153 333.872 273.549C333.082 274.141 334.465 276.709 334.465 276.709L353.628 274.931Z" fill="#283593"/>
<path d="M350.269 265.055C349.874 265.055 349.479 265.055 349.282 265.253C348.491 265.45 347.701 265.648 346.713 265.648C345.528 265.648 344.343 265.648 343.157 265.845C341.774 265.845 340.194 265.845 339.009 265.055C337.823 264.068 337.428 262.488 337.231 261.105C337.231 260.908 337.231 260.71 337.428 260.513C337.428 260.513 337.626 260.513 337.823 260.513C340.787 260.513 341.182 256.365 340.391 254.192C339.996 252.81 337.823 252.415 337.231 253.995C337.033 254.587 337.231 255.18 336.835 255.575C336.44 255.772 336.045 255.575 335.848 255.18C335.65 254.785 335.65 254.39 335.65 253.995C335.848 252.415 336.243 250.835 337.033 249.255C337.428 248.465 339.206 246.885 338.021 246.292C337.033 245.7 335.848 245.897 334.662 245.7C332.687 245.502 332.489 245.305 330.909 244.317C330.118 243.724 329.723 242.342 329.131 241.552C328.736 240.564 328.736 239.379 329.723 238.787C330.118 238.589 330.118 239.182 330.711 239.182C332.489 239.182 333.279 238.194 334.86 237.799C338.218 237.207 340.391 237.602 343.75 237.799C345.528 237.997 347.306 238.194 348.689 239.182C349.874 239.972 350.664 240.959 351.06 242.342C351.455 243.329 351.85 243.527 352.64 243.922C354.221 244.91 354.418 247.082 354.418 248.86C354.418 254.39 350.862 261.105 350.664 262.883C350.664 263.278 350.664 264.265 350.467 264.66C350.664 264.858 350.467 264.858 350.269 265.055Z" fill="#283593"/>
<path d="M270.851 285.201C270.851 285.201 269.271 284.609 268.678 284.214C268.085 283.819 267.888 281.646 267.295 280.856C266.702 280.066 264.134 278.486 264.134 278.486C264.134 278.486 261.764 276.511 261.368 276.313C260.973 276.116 260.776 276.906 260.973 277.696C261.368 278.486 262.751 279.671 262.751 280.066C262.751 280.264 262.751 280.659 262.356 280.659C261.764 280.856 260.578 281.054 259.393 280.856C259.393 280.856 258.405 280.461 257.615 279.869C257.022 279.474 256.429 279.079 255.837 278.684C255.244 278.289 254.849 278.091 254.651 277.893C254.059 277.696 253.466 278.091 253.861 278.684C253.861 278.684 254.059 278.881 254.256 279.079C253.861 278.684 253.466 278.486 253.269 278.486C252.676 278.091 251.688 278.486 252.281 279.276C252.281 279.474 252.676 279.671 252.873 279.869C252.281 279.671 251.491 280.066 252.083 280.659C252.281 280.856 252.873 281.449 253.861 282.041C253.664 281.844 253.466 281.844 253.466 281.844C252.873 281.646 252.083 282.041 252.478 282.634C252.676 282.831 254.059 284.214 254.059 284.214L255.442 285.399L257.022 286.386C258.208 286.979 259.195 287.571 259.393 287.571C259.986 287.769 263.937 287.966 264.924 287.966C265.912 287.966 268.678 289.546 268.678 289.546L270.851 285.201Z" fill="#FBBE52"/>
<path d="M328.933 251.625C327.945 252.613 327.155 253.798 326.167 254.785C325.772 255.378 325.18 255.97 325.18 256.76C325.18 256.958 325.18 257.155 325.18 257.353C325.377 257.55 325.575 257.748 325.97 257.945C327.353 258.34 328.736 257.748 329.921 257.155" fill="#FBBE52"/>
<path d="M353.628 379.609H351.06C351.06 379.609 351.455 376.449 351.455 374.474C351.455 372.499 351.257 369.339 351.257 369.339H354.023C354.023 369.536 354.418 372.696 354.22 374.672C354.023 376.844 353.628 379.412 353.628 379.609Z" fill="#283593"/>
<path d="M246.552 352.354C260.518 352.354 271.839 341.035 271.839 327.073C271.839 313.111 260.518 301.792 246.552 301.792C232.586 301.792 221.264 313.111 221.264 327.073C221.264 341.035 232.586 352.354 246.552 352.354Z" fill="url(#paint25_linear)"/>
<path d="M533.998 212.715C522.737 226.936 508.711 239.379 501.598 255.969C494.684 272.363 495.079 290.731 492.511 308.309C492.313 309.296 492.313 310.086 492.116 310.876C491.326 315.024 490.535 319.172 489.35 323.122C488.955 324.504 488.56 325.887 488.165 327.27C487.769 328.652 487.177 330.035 486.782 331.417C486.387 332.405 485.991 333.392 485.596 334.38C482.435 342.083 478.682 349.588 474.138 356.698C473.545 357.488 472.953 358.476 472.36 359.266C467.026 366.969 460.902 374.079 453.987 380.399C452.999 381.387 452.012 382.177 451.024 382.967C443.714 389.287 435.614 394.817 426.922 399.162C426.724 399.557 426.527 399.952 426.329 400.15C421.588 407.655 412.5 411.408 404.4 409.828C404.203 409.828 404.203 409.828 404.005 409.828C403.215 409.63 402.425 409.433 401.634 409.038C401.239 408.84 401.042 408.84 400.647 408.643C399.659 408.248 398.474 407.655 397.486 406.865C387.805 399.952 383.459 387.312 382.669 375.264C381.089 350.378 393.139 324.899 413.685 310.481C426.329 301.594 441.936 296.261 450.826 283.62C462.482 267.03 458.531 243.526 468.409 225.751C476.904 210.543 493.894 202.445 509.501 194.742C525.108 187.039 542.295 178.941 548.617 162.548C554.149 179.731 545.259 198.495 533.998 212.715Z" fill="#5C6BC0"/>
<path opacity="0.1" d="M530.442 203.827C515.625 214.69 497.055 228.318 489.152 247.279C487.572 251.031 486.386 254.982 485.596 259.129C489.35 256.364 492.906 253.204 496.264 250.044C497.055 249.451 498.042 249.451 498.833 250.044C499.623 250.834 499.425 251.821 498.833 252.612C494.486 256.759 489.745 260.709 484.806 264.264C484.213 267.82 483.621 271.375 483.028 274.93C481.25 287.57 479.274 300.803 471.965 311.469C471.57 312.061 471.175 312.456 470.779 313.049C469.792 314.431 468.606 315.814 467.421 316.999C469.594 317.196 471.57 317.196 473.743 317.394C474.928 317.394 475.916 317.394 477.101 317.394C479.077 317.394 481.25 317.394 483.226 317.394C484.213 317.394 485.004 318.184 485.004 319.172C485.004 320.159 484.213 320.949 483.226 320.949C480.46 320.949 477.694 321.147 474.928 320.949C473.743 320.949 472.755 320.949 471.767 320.949C469.397 320.752 466.828 320.752 464.458 320.357C464.26 320.357 464.26 320.357 464.062 320.357C458.926 325.097 452.999 329.244 447.27 332.997C445.887 333.985 444.307 334.972 442.924 335.96C438.38 339.12 433.836 342.477 429.885 346.23C429.49 346.625 429.095 347.02 428.7 347.415C428.502 347.81 428.107 348.205 427.712 348.403C426.329 349.983 424.946 351.563 423.563 353.143C428.7 351.563 433.836 350.18 438.973 348.798C439.96 348.403 441.146 348.205 442.134 348.008C447.468 346.625 452.802 345.243 458.136 344.057C458.531 343.86 458.926 344.057 459.321 344.255C459.716 344.452 460.111 344.847 460.111 345.44C460.309 346.428 459.716 347.415 458.728 347.613C457.148 348.008 455.37 348.403 453.789 348.798C449.443 349.785 445.294 350.97 440.948 351.958C439.96 352.155 438.775 352.55 437.787 352.748C431.663 354.328 425.736 356.105 419.81 357.883C414.871 365.388 411.512 374.079 408.746 383.164C406.771 389.682 405.388 396.594 404.203 403.705C403.807 405.68 403.61 407.655 403.215 409.63C402.425 409.432 401.634 409.235 400.844 408.84C400.449 409.63 399.856 410.222 399.461 411.013C399.659 410.222 399.659 409.235 399.856 408.445C402.82 389.287 407.166 371.116 416.451 356.5C416.451 355.71 416.846 355.118 417.439 354.92C419.612 351.76 421.983 348.798 424.551 346.033C422.378 333.985 423.168 321.542 427.119 310.086C427.514 309.099 428.502 308.704 429.292 309.099C430.28 309.494 430.675 310.481 430.478 311.271C426.922 321.542 425.934 332.405 427.514 343.07L427.712 342.872C432.848 337.935 438.775 333.985 444.702 330.034C446.677 328.652 448.653 327.269 450.629 325.887C450.629 324.702 450.629 323.517 450.431 322.332C450.036 312.061 450.431 301.791 451.419 291.718C451.419 290.73 452.407 289.94 453.394 290.138C454.382 290.138 454.975 291.125 454.975 292.113C453.987 301.396 453.789 310.876 453.987 320.357C453.987 321.344 453.987 322.332 453.987 323.517C457.148 321.147 460.309 318.579 462.877 315.814C464.853 313.839 466.631 311.864 468.014 309.494C471.372 304.556 473.545 299.223 475.126 293.496C475.126 293.298 474.928 293.298 474.928 293.101C469.594 282.238 466.236 270.19 465.248 257.944C465.248 256.957 465.84 256.167 466.828 255.969C467.816 255.969 468.606 256.562 468.804 257.549C469.594 267.82 472.162 278.09 476.311 287.57C477.101 283.225 477.891 278.682 478.484 273.942C479.867 264.462 481.25 254.587 485.004 245.501C485.991 243.131 486.979 240.959 488.362 238.786C488.362 238.786 488.362 238.786 488.362 238.588C487.177 229.503 487.769 220.418 489.942 211.53C490.14 210.542 491.128 209.95 492.116 210.147C493.103 210.345 493.696 211.332 493.499 212.32C491.72 219.43 491.128 226.541 491.523 233.848C501.203 219.825 515.625 209.16 527.676 200.47C528.466 199.877 529.652 200.074 530.244 200.865C531.43 202.247 531.232 203.235 530.442 203.827Z" fill="black"/>
<path d="M408.154 403.113C433.639 401.335 458.729 391.262 478.089 374.474C497.45 357.686 511.279 334.578 516.613 309.494C488.758 304.556 460.112 312.852 438.973 331.813C418.032 350.773 406.179 374.869 408.154 403.113Z" fill="#9BB2F9"/>
<path opacity="0.1" d="M506.538 332.998C506.538 333.788 505.945 334.38 505.155 334.38L485.399 334.578H477.497C477.299 334.578 477.299 334.578 477.102 334.578C469.199 340.108 461.495 346.033 454.185 352.353C460.704 354.131 467.224 355.711 473.941 356.699C477.694 357.291 481.645 357.884 485.597 358.279C486.387 358.279 486.979 359.069 486.782 359.859C486.782 360.649 485.992 361.241 485.201 361.044C480.855 360.649 476.509 359.859 472.163 359.069C465.248 357.884 458.334 356.303 451.617 354.328C447.468 358.081 443.319 361.834 439.368 365.784C439.171 365.981 439.171 366.179 438.775 366.376C435.615 369.536 432.651 372.697 429.688 375.857C437.59 378.029 445.69 379.412 453.79 380.004C455.173 380.202 456.556 380.202 457.938 380.202C458.729 380.202 459.321 380.992 459.321 381.782C459.321 382.572 458.531 383.165 457.741 383.165C455.37 382.967 453.197 382.77 450.826 382.572C442.924 381.782 435.219 380.202 427.712 378.227C420.995 385.93 414.673 394.027 408.747 402.52C407.166 404.89 405.586 407.26 404.005 409.631C403.808 410.026 403.61 410.223 403.413 410.618C403.413 410.223 403.413 409.828 403.61 409.631C402.82 409.433 402.03 409.236 401.24 408.841C402.425 407.063 403.413 405.483 404.598 403.705C405.783 402.125 406.969 400.348 407.956 398.768C413.488 390.867 419.612 383.362 425.934 376.054C426.132 375.857 426.132 375.857 426.329 375.659C429.688 371.907 433.244 368.154 436.8 364.599C436.997 360.649 437.393 356.699 438.183 352.748C438.38 351.366 438.578 350.181 438.973 348.798C439.961 344.256 441.344 339.91 442.924 335.763C443.517 334.38 443.912 333.195 444.505 331.813C444.9 331.023 445.69 330.825 446.48 331.023C447.073 331.418 447.468 332.01 447.27 332.8V332.998C445.097 337.738 443.319 342.873 442.134 348.008C441.739 349.193 441.541 350.576 441.344 351.958C440.751 355.118 440.158 358.476 439.961 361.636C444.505 357.094 449.246 352.946 453.987 348.798C455.765 347.218 457.543 345.836 459.321 344.256C460.309 343.465 461.297 342.675 462.087 341.885V341.688C464.655 334.578 467.816 327.467 471.57 320.752C472.163 319.567 472.755 318.382 473.546 317.197C474.138 316.209 474.731 315.222 475.324 314.234C475.719 313.444 476.509 313.247 477.299 313.642C477.892 314.037 478.287 315.024 477.892 315.617C477.497 316.209 477.299 316.604 476.904 317.197C476.311 318.382 475.521 319.567 474.928 320.752C471.768 326.48 469.002 332.405 466.631 338.528C473.941 332.998 481.448 327.862 489.35 323.122C493.894 320.357 498.438 317.79 503.179 315.222C503.969 314.827 504.76 315.222 505.155 315.814C505.55 316.604 505.352 317.394 504.562 317.789C499.03 320.752 493.499 323.912 488.165 327.27C485.992 328.652 483.819 330.035 481.645 331.418H486.782L505.352 331.22C505.945 331.615 506.538 332.208 506.538 332.998Z" fill="url(#paint26_linear)"/>
<path d="M325.377 330.627C324.982 333.392 322.611 337.738 324.192 338.33C324.784 338.528 327.55 338.33 330.909 338.133H331.106C334.07 337.935 337.428 337.54 340.391 337.343C351.85 336.948 359.357 338.33 360.345 337.738C360.937 337.343 360.937 336.355 360.74 335.368C360.345 332.8 358.567 331.022 358.764 328.652C358.962 326.48 359.752 297.841 360.345 288.756C361.135 274.338 351.652 273.943 351.652 273.943C332.094 272.758 323.006 278.288 321.821 286.781C321.821 287.373 321.623 287.966 321.623 288.756C321.031 297.446 323.797 311.469 324.982 321.74C325.575 324.505 325.575 327.862 325.377 330.627Z" fill="url(#paint27_linear)"/>
<path d="M267.295 289.151C267.295 289.151 297.917 303.964 302.461 303.964C307.004 303.964 331.699 300.804 333.675 298.434C335.65 296.064 334.465 288.558 334.07 287.571C333.28 285.003 330.711 284.213 328.143 284.016C327.946 284.016 327.946 284.016 327.748 284.016C328.736 280.263 335.848 276.905 335.848 276.905C335.848 276.905 329.131 274.338 319.648 282.238C315.499 285.596 301.67 290.928 301.67 290.928C300.288 289.743 270.456 285.003 270.456 285.003L268.086 288.163L267.295 289.151Z" fill="url(#paint28_linear)"/>
</g>
<defs>
<linearGradient id="paint0_linear" x1="6.652" y1="345.278" x2="96.2408" y2="345.278" gradientUnits="userSpaceOnUse">
<stop offset="0.0793651" stop-color="#283593"/>
<stop offset="0.4661" stop-color="#4250A9"/>
<stop offset="0.9247" stop-color="#5C6BC0"/>
</linearGradient>
<linearGradient id="paint1_linear" x1="207.939" y1="26.7204" x2="367.874" y2="26.7204" gradientUnits="userSpaceOnUse">
<stop offset="0.00529099" stop-color="#FBBE52"/>
<stop offset="0.2722" stop-color="#FABB54"/>
<stop offset="0.3968" stop-color="#F9B656"/>
<stop offset="0.8783" stop-color="#FC952E"/>
</linearGradient>
<linearGradient id="paint2_linear" x1="353.08" y1="377.222" x2="489.052" y2="377.222" gradientUnits="userSpaceOnUse">
<stop offset="0.0793651" stop-color="#283593"/>
<stop offset="0.4661" stop-color="#4250A9"/>
<stop offset="0.9247" stop-color="#5C6BC0"/>
</linearGradient>
<linearGradient id="paint3_linear" x1="390.76" y1="127.515" x2="450.417" y2="127.515" gradientUnits="userSpaceOnUse">
<stop offset="0.0793651" stop-color="#283593"/>
<stop offset="0.4661" stop-color="#4250A9"/>
<stop offset="0.9247" stop-color="#5C6BC0"/>
</linearGradient>
<linearGradient id="paint4_linear" x1="88.9661" y1="327.369" x2="183.737" y2="327.369" gradientUnits="userSpaceOnUse">
<stop offset="0.0793651" stop-color="#283593"/>
<stop offset="0.4661" stop-color="#4250A9"/>
<stop offset="0.9247" stop-color="#5C6BC0"/>
</linearGradient>
<linearGradient id="paint5_linear" x1="79.8277" y1="351.033" x2="181.28" y2="351.033" gradientUnits="userSpaceOnUse">
<stop offset="0.0793651" stop-color="#283593"/>
<stop offset="0.4661" stop-color="#4250A9"/>
<stop offset="0.9247" stop-color="#5C6BC0"/>
</linearGradient>
<linearGradient id="paint6_linear" x1="68.992" y1="380.299" x2="174.598" y2="380.299" gradientUnits="userSpaceOnUse">
<stop offset="0.0793651" stop-color="#283593"/>
<stop offset="0.4661" stop-color="#4250A9"/>
<stop offset="0.9247" stop-color="#5C6BC0"/>
</linearGradient>
<linearGradient id="paint7_linear" x1="164.806" y1="362.673" x2="186.925" y2="362.673" gradientUnits="userSpaceOnUse">
<stop offset="0.0793651" stop-color="#283593"/>
<stop offset="0.4661" stop-color="#4250A9"/>
<stop offset="0.9247" stop-color="#5C6BC0"/>
</linearGradient>
<linearGradient id="paint8_linear" x1="103.877" y1="168.376" x2="117.647" y2="168.376" gradientUnits="userSpaceOnUse">
<stop offset="0.2169" stop-color="#C5CDFD"/>
<stop offset="0.4445" stop-color="#C1CAFC"/>
<stop offset="0.6564" stop-color="#B6C0F8"/>
<stop offset="0.8614" stop-color="#A3AFF2"/>
<stop offset="0.9153" stop-color="#9DAAF0"/>
</linearGradient>
<linearGradient id="paint9_linear" x1="110.566" y1="233.105" x2="133.843" y2="233.105" gradientUnits="userSpaceOnUse">
<stop offset="0.2222" stop-color="#283593"/>
<stop offset="0.3979" stop-color="#2D3A97"/>
<stop offset="0.6141" stop-color="#3C49A4"/>
<stop offset="0.8508" stop-color="#5462B9"/>
<stop offset="0.9206" stop-color="#5C6BC0"/>
</linearGradient>
<linearGradient id="paint10_linear" x1="116.671" y1="287.12" x2="131.764" y2="287.12" gradientUnits="userSpaceOnUse">
<stop offset="0.2222" stop-color="#283593"/>
<stop offset="0.3979" stop-color="#2D3A97"/>
<stop offset="0.6141" stop-color="#3C49A4"/>
<stop offset="0.8508" stop-color="#5462B9"/>
<stop offset="0.9206" stop-color="#5C6BC0"/>
</linearGradient>
<linearGradient id="paint11_linear" x1="135.724" y1="279.445" x2="159.874" y2="279.445" gradientUnits="userSpaceOnUse">
<stop offset="0.2222" stop-color="#283593"/>
<stop offset="0.3979" stop-color="#2D3A97"/>
<stop offset="0.6141" stop-color="#3C49A4"/>
<stop offset="0.8508" stop-color="#5462B9"/>
<stop offset="0.9206" stop-color="#5C6BC0"/>
</linearGradient>
<linearGradient id="paint12_linear" x1="118.965" y1="230.944" x2="159.417" y2="230.944" gradientUnits="userSpaceOnUse">
<stop offset="0.2222" stop-color="#283593"/>
<stop offset="0.3979" stop-color="#2D3A97"/>
<stop offset="0.6141" stop-color="#3C49A4"/>
<stop offset="0.8508" stop-color="#5462B9"/>
<stop offset="0.9206" stop-color="#5C6BC0"/>
</linearGradient>
<linearGradient id="paint13_linear" x1="134.803" y1="138.362" x2="188.325" y2="138.362" gradientUnits="userSpaceOnUse">
<stop offset="0.2169" stop-color="#C5CDFD"/>
<stop offset="0.4445" stop-color="#C1CAFC"/>
<stop offset="0.6564" stop-color="#B6C0F8"/>
<stop offset="0.8614" stop-color="#A3AFF2"/>
<stop offset="0.9153" stop-color="#9DAAF0"/>
</linearGradient>
<linearGradient id="paint14_linear" x1="106.24" y1="168.107" x2="149.676" y2="168.107" gradientUnits="userSpaceOnUse">
<stop offset="0.2169" stop-color="#C5CDFD"/>
<stop offset="0.4445" stop-color="#C1CAFC"/>
<stop offset="0.6564" stop-color="#B6C0F8"/>
<stop offset="0.8614" stop-color="#A3AFF2"/>
<stop offset="0.9153" stop-color="#9DAAF0"/>
</linearGradient>
<linearGradient id="paint15_linear" x1="389.762" y1="111.035" x2="442.795" y2="111.035" gradientUnits="userSpaceOnUse">
<stop offset="0.2222" stop-color="#283593"/>
<stop offset="0.3979" stop-color="#2D3A97"/>
<stop offset="0.6141" stop-color="#3C49A4"/>
<stop offset="0.8508" stop-color="#5462B9"/>
<stop offset="0.9206" stop-color="#5C6BC0"/>
</linearGradient>
<linearGradient id="paint16_linear" x1="403.001" y1="70.8967" x2="439.13" y2="70.8967" gradientUnits="userSpaceOnUse">
<stop offset="0.2169" stop-color="#C5CDFD"/>
<stop offset="0.4445" stop-color="#C1CAFC"/>
<stop offset="0.6564" stop-color="#B6C0F8"/>
<stop offset="0.8614" stop-color="#A3AFF2"/>
<stop offset="0.9153" stop-color="#9DAAF0"/>
</linearGradient>
<linearGradient id="paint17_linear" x1="396.318" y1="58.4707" x2="419.052" y2="58.4707" gradientUnits="userSpaceOnUse">
<stop offset="0.2169" stop-color="#C5CDFD"/>
<stop offset="0.4445" stop-color="#C1CAFC"/>
<stop offset="0.6564" stop-color="#B6C0F8"/>
<stop offset="0.8614" stop-color="#A3AFF2"/>
<stop offset="0.9153" stop-color="#9DAAF0"/>
</linearGradient>
<linearGradient id="paint18_linear" x1="280.382" y1="393.132" x2="391.461" y2="393.132" gradientUnits="userSpaceOnUse">
<stop offset="0.0793651" stop-color="#283593"/>
<stop offset="0.4661" stop-color="#4250A9"/>
<stop offset="0.9247" stop-color="#5C6BC0"/>
</linearGradient>
<linearGradient id="paint19_linear" x1="273.85" y1="185.133" x2="230.49" y2="322.741" gradientUnits="userSpaceOnUse">
<stop offset="0.00529099" stop-color="#FBBE52"/>
<stop offset="0.2722" stop-color="#FABB54"/>
<stop offset="0.3968" stop-color="#F9B656"/>
<stop offset="0.8783" stop-color="#FC952E"/>
</linearGradient>
<linearGradient id="paint20_linear" x1="275.109" y1="345.803" x2="344.699" y2="345.803" gradientUnits="userSpaceOnUse">
<stop offset="0.2222" stop-color="#283593"/>
<stop offset="0.3979" stop-color="#2D3A97"/>
<stop offset="0.6141" stop-color="#3C49A4"/>
<stop offset="0.8508" stop-color="#5462B9"/>
<stop offset="0.9206" stop-color="#5C6BC0"/>
</linearGradient>
<linearGradient id="paint21_linear" x1="275.405" y1="356.219" x2="314.854" y2="356.219" gradientUnits="userSpaceOnUse">
<stop offset="0.2222" stop-color="#283593"/>
<stop offset="0.3979" stop-color="#2D3A97"/>
<stop offset="0.6141" stop-color="#3C49A4"/>
<stop offset="0.8508" stop-color="#5462B9"/>
<stop offset="0.9206" stop-color="#5C6BC0"/>
</linearGradient>
<linearGradient id="paint22_linear" x1="287.35" y1="379.812" x2="352.889" y2="379.812" gradientUnits="userSpaceOnUse">
<stop offset="0.2222" stop-color="#283593"/>
<stop offset="0.3979" stop-color="#2D3A97"/>
<stop offset="0.6141" stop-color="#3C49A4"/>
<stop offset="0.8508" stop-color="#5462B9"/>
<stop offset="0.9206" stop-color="#5C6BC0"/>
</linearGradient>
<linearGradient id="paint23_linear" x1="295.607" y1="359.941" x2="361.075" y2="359.941" gradientUnits="userSpaceOnUse">
<stop offset="0.2222" stop-color="#283593"/>
<stop offset="0.3979" stop-color="#2D3A97"/>
<stop offset="0.6141" stop-color="#3C49A4"/>
<stop offset="0.8508" stop-color="#5462B9"/>
<stop offset="0.9206" stop-color="#5C6BC0"/>
</linearGradient>
<linearGradient id="paint24_linear" x1="270.256" y1="288.804" x2="344.156" y2="288.804" gradientUnits="userSpaceOnUse">
<stop offset="0.2169" stop-color="#C5CDFD"/>
<stop offset="0.4445" stop-color="#C1CAFC"/>
<stop offset="0.6564" stop-color="#B6C0F8"/>
<stop offset="0.8614" stop-color="#A3AFF2"/>
<stop offset="0.9153" stop-color="#9DAAF0"/>
</linearGradient>
<linearGradient id="paint25_linear" x1="221.102" y1="327.163" x2="271.861" y2="327.163" gradientUnits="userSpaceOnUse">
<stop offset="0.00529099" stop-color="#FBBE52"/>
<stop offset="0.2722" stop-color="#FABB54"/>
<stop offset="0.3968" stop-color="#F9B656"/>
<stop offset="0.8783" stop-color="#FC952E"/>
</linearGradient>
<linearGradient id="paint26_linear" x1="401.178" y1="362.476" x2="506.615" y2="362.476" gradientUnits="userSpaceOnUse">
<stop offset="0.0793651" stop-color="#283593"/>
<stop offset="0.4661" stop-color="#4250A9"/>
<stop offset="0.9247" stop-color="#5C6BC0"/>
</linearGradient>
<linearGradient id="paint27_linear" x1="321.832" y1="306.144" x2="361.029" y2="306.144" gradientUnits="userSpaceOnUse">
<stop offset="0.2169" stop-color="#C5CDFD"/>
<stop offset="0.4445" stop-color="#C1CAFC"/>
<stop offset="0.6564" stop-color="#B6C0F8"/>
<stop offset="0.8614" stop-color="#A3AFF2"/>
<stop offset="0.9153" stop-color="#9DAAF0"/>
</linearGradient>
<linearGradient id="paint28_linear" x1="315.732" y1="311.27" x2="289.85" y2="259.493" gradientUnits="userSpaceOnUse">
<stop offset="0.2169" stop-color="#C5CDFD"/>
<stop offset="0.4445" stop-color="#C1CAFC"/>
<stop offset="0.6564" stop-color="#B6C0F8"/>
<stop offset="0.8614" stop-color="#A3AFF2"/>
<stop offset="0.9153" stop-color="#9DAAF0"/>
</linearGradient>
<clipPath id="clip0">
<rect width="550" height="421" fill="white"/>
</clipPath>
</defs>
</svg>
