<svg width="550" height="439" viewBox="0 0 550 439" fill="none" xmlns="http://www.w3.org/2000/svg">
<path d="M19.8433 242.106C22.7819 247.628 25.7205 253.15 29.0048 258.499C70.6637 327.007 187.862 423.642 269.105 436.929C354.324 450.734 451.989 389.82 510.761 325.971C583.707 246.765 552.766 73.857 434.876 30.5437C403.243 18.8095 366.251 20.8802 335.31 36.0657C287.947 59.1892 254.758 110.613 203.073 119.241C174.033 124.073 145.511 114.064 117.335 107.162C89.1595 100.259 56.835 97.153 32.2891 113.374C11.8918 126.834 1.34747 151.51 1.00175 175.151C0.656037 198.62 8.95324 221.398 19.8433 242.106Z" fill="#E3E8FF"/>
<path d="M502.81 244.694C501.772 236.238 495.204 217.256 486.907 229.163C481.894 236.411 485.178 247.973 481.548 256.256C474.461 249.181 456.484 208.111 440.235 225.194C429.691 236.066 445.766 266.092 450.779 277.653C447.322 273.167 438.852 268.162 434.358 274.202C430.209 279.724 437.469 292.666 439.371 298.188C430.555 294.392 424.505 284.901 414.825 291.804C407.219 297.153 407.219 307.679 408.256 315.79C409.293 324.418 412.405 332.356 412.405 341.157C412.578 351.165 408.948 359.103 407.565 368.939C417.936 348.059 449.396 353.926 468.065 352.546C478.091 351.856 530.64 348.749 510.934 328.042C507.304 324.245 462.361 320.277 479.474 309.923C487.08 305.264 502.81 310.268 511.625 309.232C518.54 308.37 532.368 306.471 537.381 301.64C546.37 293.012 539.628 280.932 530.294 277.136C522.17 274.03 511.625 277.308 504.538 272.649C510.588 265.574 522.861 268.162 529.257 262.123C537.208 254.53 529.257 250.216 521.651 248.835C532.714 243.313 540.32 225.194 521.651 224.331C514.91 223.986 509.724 227.783 506.267 232.96C503.328 236.238 499.871 244.521 502.81 244.694C501.945 244.176 500.908 243.486 500.735 242.451L502.81 244.694Z" fill="white"/>
<path d="M83.8008 254.53C83.2822 265.057 84.4922 275.756 87.258 285.937C88.1223 289.043 89.1594 292.149 90.1965 295.255C94.518 306.644 100.741 317.343 108.692 326.489C109.73 327.697 110.94 328.905 111.977 330.113C115.434 333.737 119.237 337.015 123.212 339.949C126.67 348.059 130.127 354.789 133.93 361.347C134.794 362.727 135.485 364.108 136.35 365.488C139.807 370.838 143.61 376.015 148.104 381.709C148.104 381.709 148.104 381.882 148.277 381.882C151.043 382.572 153.981 382.917 156.747 383.09C167.637 383.607 178.527 379.984 188.38 374.116C190.109 373.081 191.837 372.046 193.566 370.838C194.257 370.32 195.122 369.802 195.813 369.285C196.504 368.767 197.196 368.249 197.887 367.732C198.406 367.386 198.924 366.869 199.443 366.524C205.147 362.037 210.333 357.205 215.173 352.028C225.199 341.329 234.36 329.595 239.2 315.79C244.04 301.985 243.868 285.937 235.743 273.685C224.853 257.119 201.517 249.871 195.122 231.234C188.553 212.08 203.419 191.89 202.209 171.7C200.999 152.028 185.096 136.67 169.711 124.073C154.327 111.648 137.214 98.5334 132.201 79.379C130.127 71.6136 130.3 63.3306 128.225 55.7378C126.151 47.9725 120.965 40.2072 113.014 38.6541C102.815 36.5834 93.8266 45.9018 89.1594 55.2202C80.6893 72.649 79.825 93.5291 86.9122 111.476C92.6166 125.971 103.334 138.568 106.618 153.754C112.668 181.364 93.6537 207.593 86.5665 234.858C85.0108 241.416 84.1465 247.973 83.8008 254.53Z" fill="#5C6BC0"/>
<path opacity="0.3" d="M155.71 174.979C157.439 187.403 153.463 199.828 149.487 212.943C147.413 219.5 145.339 226.23 143.956 233.133C142.919 238.31 142.4 243.659 142.227 249.008C133.238 238.137 125.46 226.23 119.237 213.46C118.546 212.08 116.99 211.562 115.78 212.253C114.397 212.943 113.878 214.496 114.57 215.704C121.83 230.544 131.164 244.522 142.054 256.946C142.227 257.119 142.227 257.119 142.4 257.291C142.573 259.88 142.746 262.296 143.264 264.884C144.647 274.893 147.759 284.556 152.253 293.53C156.229 301.468 161.414 308.715 166.254 315.79C171.44 323.038 176.626 330.631 180.602 338.741C183.022 343.573 184.75 348.577 186.133 353.927C186.825 356.343 187.343 358.931 187.689 361.519C188.38 365.834 188.726 370.148 188.726 374.462C188.726 377.05 188.553 379.639 188.38 382.227C190.109 381.882 192.01 381.364 193.739 381.019C193.912 377.74 194.085 374.462 193.912 371.183C193.912 369.802 193.739 368.595 193.739 367.214C193.566 364.798 193.22 362.555 192.875 360.139C191.492 352.028 189.072 343.918 185.442 336.498C184.577 334.772 183.713 333.047 182.849 331.494C184.405 329.595 185.96 327.525 187.343 325.454C193.566 316.308 198.06 305.954 200.48 295.255C200.826 293.875 199.962 292.494 198.579 292.149C197.196 291.804 195.813 292.667 195.467 294.047C193.393 303.021 189.936 311.476 185.269 319.242C183.713 321.83 181.985 324.246 180.256 326.489C177.317 321.83 174.033 317.171 170.922 312.684C166.082 305.782 161.069 298.707 157.266 291.114C157.093 290.769 156.92 290.424 156.747 289.906C158.994 287.317 161.242 284.556 163.143 281.623C171.094 270.579 177.145 257.982 181.12 245.039C181.466 243.659 180.775 242.278 179.392 241.761C178.009 241.416 176.626 242.106 176.107 243.486C172.477 255.566 166.946 267.3 159.513 277.654C157.784 280.07 156.056 282.313 154.327 284.556C152.253 279.552 150.697 274.203 149.487 268.853C147.067 257.464 147.067 245.557 149.314 233.995C150.524 227.611 152.599 220.881 154.673 214.668C170.576 203.97 182.676 187.921 188.553 169.629C189.072 168.249 188.207 166.868 186.825 166.351C185.442 166.006 184.059 166.696 183.54 168.076C178.7 183.089 169.539 196.377 157.266 206.385C160.723 194.651 163.316 182.572 160.55 170.492C157.266 155.997 147.413 144.78 137.733 133.909C136.696 132.701 135.486 131.493 134.448 130.285L136.523 104.573C136.696 103.193 135.486 101.812 134.103 101.812C132.72 101.64 131.337 102.848 131.337 104.228L129.263 124.245C118.2 110.268 113.878 98.0159 115.78 86.9719C116.126 85.5914 115.088 84.2108 113.705 83.8657C112.323 83.5206 110.94 84.556 110.767 85.9365C108.174 99.7415 114.224 114.927 129.09 132.011C130.473 133.736 132.028 135.462 133.584 137.015C142.054 146.679 150.87 156.515 154.5 168.249L117.681 150.13C116.471 149.44 114.915 149.957 114.224 151.338C113.533 152.546 114.051 154.271 115.434 154.789L155.71 174.979Z" fill="url(#paint0_linear)"/>
<path d="M16.3861 247.283C31.9434 285.419 51.1306 323.901 82.7637 350.13C101.087 365.316 124.423 377.05 148.277 381.709C151.216 382.227 153.981 382.745 156.92 383.09C167.464 384.298 178.009 384.125 188.207 381.882C189.936 381.537 191.837 381.019 193.566 380.674C195.813 380.156 197.887 379.466 200.135 378.603C199.789 376.532 199.27 374.462 198.925 372.391C198.579 370.838 198.406 369.285 198.06 367.904C197.887 366.696 197.542 365.661 197.369 364.453C194.603 351.166 191.492 337.878 186.997 325.109C186.306 323.038 185.614 320.967 184.75 319.069C182.676 313.547 180.083 308.197 177.317 302.848C173.342 295.255 168.329 288.18 162.624 281.623C161.414 280.242 160.204 279.034 158.994 277.654C155.883 274.548 152.598 271.442 148.968 268.853C147.067 267.3 144.993 265.919 142.918 264.712C135.14 259.707 126.497 256.256 117.335 254.53C106.272 252.46 94.8638 253.322 83.628 254.703C77.7508 255.393 71.8736 256.083 65.9965 256.774C49.0563 258.154 30.3876 257.464 16.3861 247.283Z" fill="white"/>
<path opacity="0.1" d="M50.0935 274.547C62.885 279.379 75.5037 285.074 87.7766 291.113L51.4763 295.255C50.2663 295.427 49.402 296.463 49.5749 297.671C49.7478 298.879 50.7849 299.742 51.9949 299.569L90.3695 295.255L94.1724 294.91C94.3452 294.91 94.5181 294.91 94.6909 294.737C108.001 301.64 120.793 309.405 133.238 317.688C125.287 320.967 117.163 323.9 108.865 326.489C101.432 328.905 93.9995 330.803 86.5666 332.701C85.3566 333.046 84.6652 334.254 84.838 335.462C85.1837 336.67 86.3937 337.36 87.6037 337.188C95.9009 335.289 104.025 332.874 112.15 330.285C120.793 327.524 129.263 324.418 137.56 320.794C144.647 325.626 151.561 330.803 158.476 336.152C158.649 336.497 158.994 336.67 159.34 336.843C164.699 340.984 169.884 345.298 174.897 349.785C161.76 355.134 147.931 359.103 134.103 361.519C133.757 361.692 133.238 361.692 132.893 361.692C131.683 361.864 130.818 363.072 130.991 364.28C131.164 365.488 132.374 366.351 133.584 366.178C134.621 366.006 135.658 365.833 136.523 365.661C150.87 362.9 165.044 358.758 178.527 353.063C181.639 355.824 184.577 358.585 187.516 361.346C189.59 363.245 191.492 365.143 193.393 367.041C194.257 367.904 195.122 368.594 195.813 369.457C196.85 370.492 197.887 371.355 198.752 372.391C198.406 370.837 198.233 369.284 197.887 367.904C198.406 367.559 198.925 367.041 199.443 366.696C198.752 365.833 197.887 365.143 197.196 364.453C195.64 362.9 194.085 361.346 192.529 359.793C190.282 357.723 188.207 355.652 185.96 353.581C184.232 352.028 182.503 350.475 180.774 348.922C180.602 348.749 180.429 348.577 180.256 348.404C174.379 343.227 168.329 338.223 162.279 333.391C159.513 316.308 153.29 299.569 144.301 284.729C143.61 283.693 142.227 283.348 141.19 284.038C140.153 284.729 139.807 286.109 140.498 287.144C148.277 300.087 153.981 314.582 156.92 329.25C144.82 319.931 132.201 311.303 119.064 303.538C119.064 303.365 119.064 303.365 118.891 303.193C111.804 289.388 103.334 276.1 93.8266 263.676C93.1352 262.641 91.7523 262.468 90.7152 263.331C89.678 264.021 89.5052 265.401 90.3695 266.437C98.321 276.791 105.408 287.835 111.804 299.224C103.852 294.565 95.5552 290.251 87.258 286.109C75.6765 280.414 63.7493 275.238 51.6492 270.578C50.4392 270.061 49.2292 270.751 48.7106 271.786C48.3649 272.822 48.8835 274.03 50.0935 274.547Z" fill="url(#paint1_linear)"/>
<path d="M455.446 151.683H499.18V155.134C499.18 155.134 497.451 156.687 496.76 158.93C496.587 159.621 496.414 160.484 496.414 161.346C496.414 164.97 499.18 167.386 499.18 167.386V170.837H455.446C454.064 170.837 452.854 169.629 452.854 168.249V154.271C452.854 152.718 454.064 151.683 455.446 151.683Z" fill="url(#paint2_linear)"/>
<path d="M508.168 161.174C508.168 160.311 508.341 159.621 508.514 158.758H466.336V168.422H509.551L510.934 167.041C511.107 167.214 508.168 164.97 508.168 161.174Z" fill="white"/>
<path d="M511.106 154.961L509.378 153.236H466.509V158.758H508.686C509.378 156.515 511.106 154.961 511.106 154.961Z" fill="white"/>
<path d="M511.107 154.962V151.51H467.374C465.991 151.51 464.781 152.718 464.781 154.099V168.076C464.781 169.457 465.991 170.665 467.374 170.665H511.107V167.213H468.238V154.962H511.107Z" fill="url(#paint3_linear)"/>
<path d="M97.9752 151.683H141.708V155.134C141.708 155.134 139.98 156.687 139.288 158.93C139.115 159.621 138.943 160.484 138.943 161.346C138.943 164.97 141.708 167.386 141.708 167.386V170.837H97.9752C96.5923 170.837 95.3823 169.629 95.3823 168.249V154.271C95.5552 152.718 96.5923 151.683 97.9752 151.683Z" fill="url(#paint4_linear)"/>
<path d="M150.87 161.174C150.87 160.311 151.043 159.621 151.216 158.758H109.038V168.422H152.253L153.636 167.041C153.636 167.214 150.87 164.97 150.87 161.174Z" fill="white"/>
<path d="M153.636 154.961L151.907 153.236H109.038V158.758H151.216C152.08 156.515 153.636 154.961 153.636 154.961Z" fill="url(#paint5_linear)"/>
<path d="M153.636 154.962V151.51H109.902C108.52 151.51 107.31 152.718 107.31 154.099V168.076C107.31 169.457 108.52 170.665 109.902 170.665H153.636V167.213H110.767V154.962H153.636Z" fill="url(#paint6_linear)"/>
<path d="M470.831 132.701H514.564V136.152C514.564 136.152 512.835 137.705 512.144 139.949C511.971 140.639 511.798 141.502 511.798 142.364C511.798 145.988 514.564 148.404 514.564 148.404V151.855H470.831C469.448 151.855 468.238 150.647 468.238 149.267V135.289C468.238 133.909 469.448 132.701 470.831 132.701Z" fill="url(#paint7_linear)"/>
<path d="M523.725 142.365C523.725 141.502 523.898 140.812 524.071 139.949H481.894V149.612H525.108L526.491 148.232C526.491 148.232 523.725 145.988 523.725 142.365Z" fill="white"/>
<path d="M526.491 136.152L524.762 134.427H481.894V139.949H524.071C524.762 137.533 526.491 136.152 526.491 136.152Z" fill="white"/>
<path d="M526.491 136.152V132.701H482.758C481.375 132.701 480.165 133.909 480.165 135.289V149.267C480.165 150.647 481.375 151.855 482.758 151.855H526.491V148.404H483.622V136.152H526.491Z" fill="url(#paint8_linear)"/>
<path d="M297.454 167.213H294.169H235.743H232.459C231.595 167.213 230.903 167.904 230.903 168.766V169.112C230.903 169.974 231.595 170.665 232.459 170.665H264.956H297.454C298.318 170.665 299.01 169.974 299.01 169.112V168.766C299.01 167.904 298.318 167.213 297.454 167.213Z" fill="url(#paint9_linear)"/>
<path d="M342.051 44.0037H186.306C184.059 44.0037 182.157 45.9019 182.157 48.1452V131.148V145.298C182.157 147.541 184.059 149.44 186.306 149.44H251.128V156.515H288.119V149.44H342.051C344.298 149.44 346.2 147.541 346.2 145.298V131.148V48.1452C346.2 45.9019 344.298 44.0037 342.051 44.0037Z" fill="url(#paint10_linear)"/>
<path d="M240.41 167.214H237.126C236.262 167.214 235.57 167.904 235.57 168.767V169.112C235.57 169.975 236.262 170.665 237.126 170.665H269.623H302.121C302.985 170.665 303.677 169.975 303.677 169.112V168.767C303.677 167.904 302.985 167.214 302.121 167.214H298.836H240.41Z" fill="url(#paint11_linear)"/>
<path d="M293.132 165.488C290.021 163.59 288.119 160.139 288.119 156.515H251.128C251.128 160.139 249.226 163.59 246.115 165.488C244.386 166.524 242.312 167.214 240.41 167.214H298.837C296.762 167.214 294.861 166.696 293.132 165.488Z" fill="url(#paint12_linear)"/>
<path d="M350.867 48.1452C350.867 45.9019 348.966 44.0037 346.718 44.0037H190.973C188.726 44.0037 186.824 45.9019 186.824 48.1452V131.148H350.867V48.1452Z" fill="url(#paint13_linear)"/>
<path d="M344.99 53.6672C344.99 51.5965 343.261 49.8708 341.187 49.8708H196.505C194.43 49.8708 192.702 51.5965 192.702 53.6672V131.148H344.99V53.6672Z" fill="white"/>
<path d="M345.163 59.707H192.702V63.5034H345.163V59.707Z" fill="url(#paint14_linear)"/>
<path d="M193.566 131.148H186.824V145.298C186.824 147.541 188.726 149.44 190.973 149.44H346.718C348.966 149.44 350.867 147.541 350.867 145.298V131.148H344.126H193.566Z" fill="url(#paint15_linear)"/>
<path d="M329.778 69.198H209.469V74.0298H329.778V69.198Z" fill="url(#paint16_linear)"/>
<path d="M295.552 87.6621H270.315V124.245H295.552V87.6621Z" fill="url(#paint17_linear)"/>
<path d="M301.775 87.6621C301.602 87.6621 301.602 87.6621 301.775 87.6621V124.245H329.778V87.6621H301.775Z" fill="url(#paint18_linear)"/>
<path d="M263.055 119.414H209.814C209.642 119.414 209.296 119.586 209.296 119.932V123.9C209.296 124.073 209.469 124.418 209.814 124.418H263.055C263.228 124.418 263.573 124.246 263.573 123.9V119.932C263.573 119.586 263.401 119.414 263.055 119.414Z" fill="url(#paint19_linear)"/>
<path d="M263.055 108.887H209.814C209.642 108.887 209.296 109.06 209.296 109.405V113.374C209.296 113.547 209.469 113.892 209.814 113.892H263.055C263.228 113.892 263.573 113.719 263.573 113.374V109.405C263.573 109.06 263.401 108.887 263.055 108.887Z" fill="url(#paint20_linear)"/>
<path d="M263.055 98.1887H209.814C209.642 98.1887 209.296 98.3613 209.296 98.7064V102.675C209.296 102.848 209.469 103.193 209.814 103.193H263.055C263.228 103.193 263.573 103.02 263.573 102.675V98.7064C263.573 98.5338 263.401 98.1887 263.055 98.1887Z" fill="url(#paint21_linear)"/>
<path d="M263.055 87.6621H209.814C209.642 87.6621 209.296 87.8347 209.296 88.1798V92.1487C209.296 92.3213 209.469 92.6664 209.814 92.6664H263.055C263.228 92.6664 263.573 92.4939 263.573 92.1487V88.0072C263.573 87.8347 263.401 87.6621 263.055 87.6621Z" fill="url(#paint22_linear)"/>
<path d="M199.962 55.5652C199.962 54.5299 199.098 53.8396 198.233 53.8396C197.196 53.8396 196.505 54.7024 196.505 55.5652C196.505 56.6006 197.369 57.2909 198.233 57.2909C199.27 57.2909 199.962 56.6006 199.962 55.5652Z" fill="url(#paint23_linear)"/>
<path d="M205.32 55.5652C205.32 54.5299 204.456 53.8396 203.592 53.8396C202.727 53.8396 201.863 54.7024 201.863 55.5652C201.863 56.6006 202.727 57.2909 203.592 57.2909C204.456 57.2909 205.32 56.6006 205.32 55.5652Z" fill="url(#paint24_linear)"/>
<path d="M210.679 55.5652C210.679 54.5299 209.815 53.8396 208.95 53.8396C208.086 53.8396 207.222 54.7024 207.222 55.5652C207.222 56.6006 208.086 57.2909 208.95 57.2909C209.815 57.2909 210.679 56.6006 210.679 55.5652Z" fill="url(#paint25_linear)"/>
<path d="M268.932 145.298C271.701 145.298 273.945 143.057 273.945 140.294C273.945 137.53 271.701 135.289 268.932 135.289C266.164 135.289 263.919 137.53 263.919 140.294C263.919 143.057 266.164 145.298 268.932 145.298Z" fill="white"/>
<path d="M179.219 316.826H97.4565V323.383H179.219V316.826Z" fill="#9BB2F9"/>
<path d="M515.428 316.825H433.666V323.383H515.428V316.825Z" fill="#8EABF4"/>
<path d="M445.248 181.191L418.109 379.121C417.763 380.501 418.973 381.882 420.356 381.882H422.603C423.64 381.882 424.505 381.191 424.678 380.329L467.719 186.54C468.238 185.332 467.374 183.952 466.164 183.607L448.186 179.293C446.631 179.12 445.421 179.983 445.248 181.191Z" fill="#8EABF4"/>
<path d="M503.674 181.191L530.813 379.121C531.158 380.501 529.948 381.882 528.566 381.882H526.491C525.454 381.882 524.59 381.191 524.417 380.329L481.375 186.54C480.857 185.332 481.721 183.952 482.931 183.607L500.908 179.293C502.291 179.12 503.501 179.983 503.674 181.191Z" fill="#9BB2F9"/>
<path d="M513.181 194.306H435.395C433.493 194.306 431.938 192.753 431.938 190.855V188.094H516.465V190.855C516.638 192.925 515.083 194.306 513.181 194.306Z" fill="#8EABF4"/>
<path d="M106.964 181.191L79.8252 379.121C79.4795 380.501 80.6895 381.882 82.0723 381.882H84.3195C85.3566 381.882 86.2209 381.191 86.3938 380.329L129.436 186.54C129.954 185.332 129.09 183.952 127.88 183.607L109.73 179.465C108.52 179.12 107.137 179.983 106.964 181.191Z" fill="#9BB2F9"/>
<path d="M165.563 181.191L192.702 379.121C193.047 380.501 191.837 381.882 190.454 381.882H188.207C187.17 381.882 186.306 381.191 186.133 380.329L143.091 186.713C142.573 185.505 143.437 184.125 144.647 183.779L162.624 179.465C164.007 179.12 165.217 179.983 165.563 181.191Z" fill="#B2C6F7"/>
<path d="M175.07 194.306H97.2838C95.3824 194.306 93.8267 192.753 93.8267 190.855V188.094H178.354V190.855C178.354 192.925 176.799 194.306 175.07 194.306Z" fill="#9BB2F9"/>
<path d="M545.333 170.492H68.4165V188.093H545.333V170.492Z" fill="url(#paint26_linear)"/>
<path d="M205.493 170.492H68.4165V188.093H205.493V170.492Z" fill="url(#paint27_linear)"/>
<path d="M134.276 133.909C134.276 133.909 126.497 110.785 139.807 110.785C153.117 110.785 144.993 133.909 144.993 133.909H134.276Z" fill="#8EABF4"/>
<path d="M147.24 133.909C147.24 134.254 147.413 134.427 147.413 134.427L150.87 134.599C150.87 134.427 150.87 134.081 150.697 133.909H147.24Z" fill="#B5E3FB"/>
<path d="M152.599 134.772L156.402 134.944C156.402 134.944 156.402 134.599 156.574 133.909H152.772L152.599 134.772Z" fill="#B5E3FB"/>
<path d="M151.562 137.878L152.426 137.015L152.772 134.772L151.043 134.599C151.216 136.67 151.562 137.878 151.562 137.878Z" fill="#B5E3FB"/>
<path d="M150.697 133.909C150.697 134.082 150.87 134.427 150.87 134.599L152.599 134.772L152.772 133.909H150.697Z" fill="#B5E3FB"/>
<path d="M151.907 101.122C152.08 101.294 158.476 104.573 158.476 111.476C158.476 117.515 157.093 130.285 156.747 133.909H158.994C158.822 133.909 170.403 101.294 151.907 101.122Z" fill="#9BB2F9"/>
<path d="M151.734 101.122H151.562C132.547 101.122 143.61 133.909 143.61 133.909H147.24C146.721 131.838 144.647 123.037 144.647 114.064C144.647 104.055 151.562 101.122 151.734 101.122Z" fill="#9BB2F9"/>
<path d="M151.907 101.122C151.734 101.122 151.734 101.122 151.907 101.122C151.907 101.294 154.327 104.055 154.327 114.237C154.327 124.59 153.117 132.183 153.117 132.183L152.944 134.081H156.574C156.92 130.457 158.303 117.688 158.303 111.648C158.303 104.573 152.08 101.122 151.907 101.122Z" fill="#8EABF4"/>
<path d="M148.277 113.546C148.277 105.091 151.734 101.122 151.907 101.122C151.734 101.122 144.82 104.055 144.82 114.064C144.82 123.037 146.894 131.838 147.413 133.909H150.87C149.833 128.732 148.277 119.413 148.277 113.546Z" fill="#8EABF4"/>
<path d="M148.277 113.546C148.277 119.413 149.833 128.732 150.87 133.909H152.944L153.117 132.011C153.117 132.011 154.327 124.245 154.327 114.064C154.327 104.055 151.907 101.122 151.907 100.949C151.734 101.122 148.277 105.091 148.277 113.546Z" fill="#9BB2F9"/>
<path d="M157.438 133.909C157.438 133.909 151.388 115.962 161.76 115.962C172.131 115.962 165.736 133.909 165.736 133.909H157.438Z" fill="#8EABF4"/>
<path d="M169.02 131.493H160.723C162.279 131.493 163.316 132.874 163.143 134.254L161.76 144.09H170.057L171.613 134.254C171.613 132.701 170.576 131.493 169.02 131.493Z" fill="url(#paint28_linear)"/>
<path d="M161.414 146.506H169.193C169.366 146.506 169.539 146.506 169.711 146.506L170.057 144.09H161.76L161.414 146.506Z" fill="#B2C6F7"/>
<path d="M158.476 164.798C157.957 168.077 155.019 170.665 151.734 170.665H160.032C163.489 170.665 166.254 168.249 166.773 164.798L167.637 159.276H159.34L158.476 164.798Z" fill="#B2C6F7"/>
<path d="M161.414 146.506L159.513 159.276H167.81L169.712 146.679C169.539 146.679 169.366 146.679 169.193 146.679H161.414V146.506Z" fill="url(#paint29_linear)"/>
<path d="M129.608 134.254L131.164 144.09H142.4H150.697H161.76L163.316 134.254C163.489 132.701 162.452 131.493 160.896 131.493H150.697H142.4H132.201C130.473 131.493 129.263 132.701 129.608 134.254Z" fill="#FFDC8C"/>
<path d="M142.227 144.09H130.991L131.337 146.506H132.028H142.227H150.524H160.723H161.414L161.76 144.09H150.524H142.227Z" fill="#B2C6F7"/>
<path d="M158.476 164.798L159.34 159.276H150.524H142.227H133.411L134.276 164.798C134.794 168.077 137.733 170.665 141.017 170.665H142.227H150.524H151.734C155.192 170.492 157.957 168.077 158.476 164.798Z" fill="#B2C6F7"/>
<path d="M150.524 146.506H142.227H132.029C131.856 146.506 131.683 146.506 131.51 146.506L133.411 159.103H142.227H150.524H159.34L161.242 146.506C161.069 146.506 160.896 146.506 160.723 146.506H150.524Z" fill="#FFDC8C"/>
<path d="M285.008 377.05C284.317 377.05 283.798 376.705 283.452 376.359C283.452 376.532 283.452 376.532 283.28 376.704C282.761 378.43 284.144 380.328 285.872 380.501C289.848 381.019 297.108 381.536 305.06 381.536C314.913 381.536 323.037 381.191 325.63 381.019C326.148 381.019 326.494 380.673 326.494 380.156C326.494 379.638 326.494 378.603 326.321 377.567C323.383 377.74 315.085 378.085 305.06 378.085C296.763 378.258 289.157 377.567 285.008 377.05Z" fill="white"/>
<path d="M310.245 366.006C310.245 366.006 293.132 366.524 288.292 368.594C285.526 369.802 283.971 373.599 283.279 376.532C283.798 376.877 284.316 377.05 284.835 377.222C288.984 377.74 296.762 378.258 304.887 378.258C314.74 378.258 323.037 377.913 326.148 377.74C325.975 374.979 325.802 370.838 325.111 367.041C325.284 367.041 318.715 367.731 310.245 366.006Z" fill="#283593"/>
<path d="M241.794 377.05C241.621 377.05 241.621 377.05 241.448 377.05C241.448 377.222 241.275 377.567 241.275 377.74C240.929 379.121 241.966 380.501 243.349 380.674C247.325 381.191 255.449 381.882 264.265 381.882C274.637 381.882 283.28 381.536 285.873 381.364C286.391 381.364 286.737 381.019 286.564 380.501C286.564 379.983 286.564 378.948 286.391 377.913C282.761 378.085 274.291 378.43 264.265 378.43C254.758 378.258 246.115 377.395 241.794 377.05Z" fill="white"/>
<path d="M269.796 366.006C269.796 366.006 251.819 366.524 246.806 368.594C243.694 369.802 242.139 373.944 241.447 377.05C241.62 377.05 241.62 377.05 241.793 377.05C246.114 377.568 254.757 378.258 264.265 378.258C274.29 378.258 282.933 377.913 286.39 377.74C286.218 374.979 285.872 370.838 285.353 367.041C285.526 367.041 278.612 367.731 269.796 366.006Z" fill="#283593"/>
<path d="M363.313 214.323C324.247 213.115 301.776 222.261 300.047 234.34C298.146 246.42 306.961 366.006 306.961 366.006C306.961 366.006 313.703 369.802 325.111 367.559C325.111 367.559 332.544 327.697 334.792 308.887C337.039 289.906 334.964 264.194 334.964 264.194C334.964 264.194 371.61 276.963 393.563 262.986C415.689 249.008 395.465 210.354 395.465 210.354L363.313 214.323Z" fill="url(#paint30_linear)"/>
<path d="M323.728 214.323C284.662 213.115 262.191 222.261 260.462 234.34C258.561 246.42 267.895 366.006 267.895 366.006C267.895 366.006 273.6 369.457 285.527 367.904C285.527 367.904 292.96 327.697 295.207 308.715C297.454 289.733 295.38 264.021 295.38 264.021C295.38 264.021 332.026 276.791 353.979 262.813C376.105 248.835 355.88 210.181 355.88 210.181L323.728 214.323Z" fill="url(#paint31_linear)"/>
<path d="M339.804 17.9465C339.804 17.9465 335.656 27.2649 334.791 37.2736C334.791 37.2736 331.161 43.4858 331.161 45.7292C331.161 47.9725 334.446 48.8353 334.446 48.8353C334.446 48.8353 334.446 61.0873 337.557 64.8836C340.669 68.68 351.559 68.8526 351.559 68.8526C351.559 68.8526 352.942 72.3039 349.657 85.7638H380.253C380.253 85.7638 376.623 76.1002 375.932 60.5696C375.24 45.384 382.5 17.9465 339.804 17.9465Z" fill="#FBBE52"/>
<path d="M341.879 42.9681C342.052 41.2425 342.743 39.6894 343.607 38.3089C344.817 36.5833 348.447 36.5833 349.139 40.2071C350.522 47.2822 345.854 49.5255 345.854 49.5255C345.854 49.5255 349.83 52.6316 354.67 60.5695C354.67 60.5695 359.51 63.6757 366.079 63.6757C372.647 63.6757 375.932 60.9147 375.932 60.9147C375.932 60.9147 378.179 53.3219 381.463 46.9371C384.748 40.7248 384.748 16.7386 384.748 16.7386L388.032 17.0837L384.575 15.1855L385.612 11.9068L383.192 13.9776C383.192 13.9776 377.315 8.11041 367.462 7.07503C350.003 5.3494 338.422 -0.172607 338.422 -0.172607C338.422 -0.172607 336.347 4.31403 337.384 10.1812L335.31 8.11041C335.31 8.11041 333.927 14.4952 338.767 21.2252C338.767 21.2252 341.014 30.1985 338.767 41.5876L341.879 43.4858C341.706 43.6584 341.706 43.4858 341.879 42.9681Z" fill="#563B2B"/>
<path d="M385.612 198.965C388.896 196.549 392.699 193.788 396.156 190.854C404.108 184.297 411.195 177.049 412.059 171.7C413.961 159.965 412.405 124.935 411.541 108.542C411.541 107.506 411.368 106.644 411.368 105.781C410.503 90.2501 400.651 83.6927 396.502 81.1042C394.428 101.467 390.798 146.678 390.452 149.094C389.933 152.028 385.612 198.965 385.612 198.965Z" fill="url(#paint32_linear)"/>
<path d="M384.574 85.4185C384.574 85.4185 382.673 77.6531 380.599 75.7549C378.524 73.8567 365.56 73.6842 361.411 74.2019C357.263 74.7196 344.817 77.8257 343.434 78.8611C342.051 79.8965 339.977 85.4185 339.977 85.4185H384.574Z" fill="url(#paint33_linear)"/>
<path d="M408.083 101.984C409.812 74.3744 380.08 76.9629 380.08 76.9629C342.224 74.547 324.593 85.4184 322.518 101.639C322.345 102.847 322.345 104.055 322.172 105.263C321.135 122.002 326.321 148.922 328.741 169.111C328.741 169.457 328.741 169.802 328.914 170.319C329.605 181.536 323.728 214.323 323.728 214.323C323.728 214.323 339.113 217.429 363.313 217.429C387.513 217.429 397.366 215.186 397.366 215.186C397.366 215.186 393.217 184.297 397.366 162.727C401.169 143.745 407.219 118.033 408.083 101.984Z" fill="url(#paint34_linear)"/>
<path d="M332.89 103.02C332.026 104.745 329.433 107.334 322 109.059C322 114.754 322.518 121.139 323.21 128.041L332.544 128.387C331.507 114.754 332.717 104.573 332.89 103.02Z" fill="#1DA29C"/>
<path d="M333.063 134.254C333.063 133.909 332.89 133.391 332.89 133.046C332.717 131.493 332.544 129.94 332.544 128.387L323.21 128.042C324.765 141.674 327.185 156.687 328.741 169.284C328.741 169.629 328.741 169.974 328.914 170.492C332.198 150.82 333.063 134.254 333.063 134.254Z" fill="url(#paint35_linear)"/>
<path d="M334.446 124.763C321.827 121.829 315.604 122.002 312.147 119.413C309.381 131.838 306.961 144.262 305.751 150.82C293.651 152.028 265.821 162.036 265.821 162.036L265.994 170.319C265.994 170.319 310.764 176.877 321.135 161.864C321.135 162.036 328.396 139.258 334.446 124.763Z" fill="#FBBE52"/>
<path d="M343.261 118.551L347.583 80.5868C347.583 80.5868 330.297 79.2062 322.691 85.5911C319.753 88.007 313.357 103.538 309.9 119.241C313.357 121.829 322.864 126.316 335.656 129.249C338.767 123.037 341.706 118.378 343.261 118.551Z" fill="url(#paint36_linear)"/>
<path d="M265.821 162.036C254.931 160.829 248.017 161.174 245.769 164.28C243.522 167.386 242.658 170.665 242.658 170.665H270.142L265.821 162.036Z" fill="#FBBE52"/>
<path d="M354.324 258.154L327.185 385.16C326.84 386.541 328.05 387.921 329.433 387.921H331.68C332.717 387.921 333.581 387.231 333.754 386.368L376.796 263.503C377.314 262.296 376.45 260.915 375.24 260.57L357.263 256.256C355.707 256.256 354.497 256.946 354.324 258.154Z" fill="#9BB2F9"/>
<path d="M412.75 258.154L439.889 385.16C440.235 386.541 439.025 387.921 437.642 387.921H435.395C434.358 387.921 433.493 387.231 433.321 386.368L390.279 263.503C389.76 262.296 390.625 260.915 391.835 260.57L409.812 256.256C411.367 256.256 412.578 256.946 412.75 258.154Z" fill="#9BB2F9"/>
<path d="M274.291 251.424C272.735 248.663 275.155 245.212 278.267 245.902C285.527 247.628 297.972 250.044 309.208 250.044C320.963 250.044 333.408 246.592 339.977 244.349C342.916 243.314 344.817 240.553 344.644 237.447C343.607 214.151 342.397 118.206 390.797 118.206C447.668 118.206 439.371 240.38 439.371 240.38C439.371 240.38 437.469 274.893 354.151 274.893C296.935 274.72 279.65 260.397 274.291 251.424Z" fill="url(#paint37_linear)"/>
<path d="M355.707 258.154L382.846 385.16C383.192 386.541 381.982 387.921 380.599 387.921H378.352C377.314 387.921 376.45 387.231 376.277 386.368L333.236 263.503C332.717 262.296 333.581 260.915 334.791 260.57L352.769 256.256C354.151 256.256 355.361 256.946 355.707 258.154Z" fill="#B2C6F7"/>
<path d="M295.034 258.154L267.895 385.16C267.549 386.541 268.759 387.921 270.142 387.921H272.389C273.427 387.921 274.291 387.231 274.464 386.368L317.505 263.503C318.024 262.296 317.16 260.915 315.95 260.57L297.972 256.256C296.59 256.256 295.38 256.946 295.034 258.154Z" fill="#B2C6F7"/>
<path d="M228.339 131.399L200.146 127.085L195.982 154.207L224.175 158.521L228.339 131.399Z" fill="#FFDC8C"/>
<path d="M223.47 138.913L202.382 135.807L202.727 133.219L223.989 136.325L223.47 138.913Z" fill="url(#paint38_linear)"/>
<path d="M222.433 145.988L201.345 142.71L201.69 140.121L222.779 143.4L222.433 145.988Z" fill="url(#paint39_linear)"/>
<path d="M216.383 152.201L200.307 149.612L200.653 147.024L216.729 149.612L216.383 152.201Z" fill="url(#paint40_linear)"/>
<defs>
<linearGradient id="paint0_linear" x1="200.197" y1="232.798" x2="110.093" y2="232.798" gradientUnits="userSpaceOnUse">
<stop offset="0.0793651" stop-color="#283593"/>
<stop offset="0.4661" stop-color="#4250A9"/>
<stop offset="0.9247" stop-color="#5C6BC0"/>
</linearGradient>
<linearGradient id="paint1_linear" x1="199.646" y1="317.43" x2="48.6427" y2="317.43" gradientUnits="userSpaceOnUse">
<stop offset="0.0793651" stop-color="#283593"/>
<stop offset="0.4661" stop-color="#4250A9"/>
<stop offset="0.9247" stop-color="#5C6BC0"/>
</linearGradient>
<linearGradient id="paint2_linear" x1="452.887" y1="161.106" x2="499.174" y2="161.106" gradientUnits="userSpaceOnUse">
<stop offset="0.2169" stop-color="#C5CDFD"/>
<stop offset="0.4445" stop-color="#C1CAFC"/>
<stop offset="0.6564" stop-color="#B6C0F8"/>
<stop offset="0.8614" stop-color="#A3AFF2"/>
<stop offset="0.9153" stop-color="#9DAAF0"/>
</linearGradient>
<linearGradient id="paint3_linear" x1="464.783" y1="161.106" x2="511.07" y2="161.106" gradientUnits="userSpaceOnUse">
<stop offset="0.2169" stop-color="#C5CDFD"/>
<stop offset="0.4445" stop-color="#C1CAFC"/>
<stop offset="0.6564" stop-color="#B6C0F8"/>
<stop offset="0.8614" stop-color="#A3AFF2"/>
<stop offset="0.9153" stop-color="#9DAAF0"/>
</linearGradient>
<linearGradient id="paint4_linear" x1="95.5286" y1="161.106" x2="141.816" y2="161.106" gradientUnits="userSpaceOnUse">
<stop offset="0.2169" stop-color="#C5CDFD"/>
<stop offset="0.4445" stop-color="#C1CAFC"/>
<stop offset="0.6564" stop-color="#B6C0F8"/>
<stop offset="0.8614" stop-color="#A3AFF2"/>
<stop offset="0.9153" stop-color="#9DAAF0"/>
</linearGradient>
<linearGradient id="paint5_linear" x1="109.111" y1="156.102" x2="153.712" y2="156.102" gradientUnits="userSpaceOnUse">
<stop offset="0.0793651" stop-color="#283593"/>
<stop offset="0.4661" stop-color="#4250A9"/>
<stop offset="0.9247" stop-color="#5C6BC0"/>
</linearGradient>
<linearGradient id="paint6_linear" x1="107.425" y1="161.106" x2="153.712" y2="161.106" gradientUnits="userSpaceOnUse">
<stop offset="0.2169" stop-color="#C5CDFD"/>
<stop offset="0.4445" stop-color="#C1CAFC"/>
<stop offset="0.6564" stop-color="#B6C0F8"/>
<stop offset="0.8614" stop-color="#A3AFF2"/>
<stop offset="0.9153" stop-color="#9DAAF0"/>
</linearGradient>
<linearGradient id="paint7_linear" x1="468.3" y1="142.193" x2="514.587" y2="142.193" gradientUnits="userSpaceOnUse">
<stop offset="0.2222" stop-color="#283593"/>
<stop offset="0.3979" stop-color="#2D3A97"/>
<stop offset="0.6141" stop-color="#3C49A4"/>
<stop offset="0.8508" stop-color="#5462B9"/>
<stop offset="0.9206" stop-color="#5C6BC0"/>
</linearGradient>
<linearGradient id="paint8_linear" x1="480.196" y1="142.193" x2="526.484" y2="142.193" gradientUnits="userSpaceOnUse">
<stop offset="0.2222" stop-color="#283593"/>
<stop offset="0.3979" stop-color="#2D3A97"/>
<stop offset="0.6141" stop-color="#3C49A4"/>
<stop offset="0.8508" stop-color="#5462B9"/>
<stop offset="0.9206" stop-color="#5C6BC0"/>
</linearGradient>
<linearGradient id="paint9_linear" x1="230.92" y1="168.88" x2="298.929" y2="168.88" gradientUnits="userSpaceOnUse">
<stop offset="0.0793651" stop-color="#283593"/>
<stop offset="0.4661" stop-color="#4250A9"/>
<stop offset="0.9247" stop-color="#5C6BC0"/>
</linearGradient>
<linearGradient id="paint10_linear" x1="182.122" y1="100.271" x2="346.188" y2="100.271" gradientUnits="userSpaceOnUse">
<stop offset="0.0793651" stop-color="#283593"/>
<stop offset="0.4661" stop-color="#4250A9"/>
<stop offset="0.9247" stop-color="#5C6BC0"/>
</linearGradient>
<linearGradient id="paint11_linear" x1="235.616" y1="168.881" x2="303.625" y2="168.881" gradientUnits="userSpaceOnUse">
<stop offset="0.0793651" stop-color="#283593"/>
<stop offset="0.4661" stop-color="#4250A9"/>
<stop offset="0.9247" stop-color="#5C6BC0"/>
</linearGradient>
<linearGradient id="paint12_linear" x1="240.41" y1="161.836" x2="298.832" y2="161.836" gradientUnits="userSpaceOnUse">
<stop offset="0.0793651" stop-color="#283593"/>
<stop offset="0.4661" stop-color="#4250A9"/>
<stop offset="0.9247" stop-color="#5C6BC0"/>
</linearGradient>
<linearGradient id="paint13_linear" x1="186.818" y1="87.636" x2="350.885" y2="87.636" gradientUnits="userSpaceOnUse">
<stop offset="0.2169" stop-color="#C5CDFD"/>
<stop offset="0.4445" stop-color="#C1CAFC"/>
<stop offset="0.6564" stop-color="#B6C0F8"/>
<stop offset="0.8614" stop-color="#A3AFF2"/>
<stop offset="0.9153" stop-color="#9DAAF0"/>
</linearGradient>
<linearGradient id="paint14_linear" x1="192.658" y1="61.5181" x2="345.044" y2="61.5181" gradientUnits="userSpaceOnUse">
<stop stop-color="#E88306"/>
<stop offset="0.9133" stop-color="#F7D209"/>
<stop offset="1" stop-color="#F8DA09"/>
</linearGradient>
<linearGradient id="paint15_linear" x1="186.818" y1="140.312" x2="350.884" y2="140.312" gradientUnits="userSpaceOnUse">
<stop offset="0.0793651" stop-color="#283593"/>
<stop offset="0.4661" stop-color="#4250A9"/>
<stop offset="0.9247" stop-color="#5C6BC0"/>
</linearGradient>
<linearGradient id="paint16_linear" x1="222.103" y1="118.29" x2="302.827" y2="38.8386" gradientUnits="userSpaceOnUse">
<stop offset="0.2169" stop-color="#C5CDFD"/>
<stop offset="0.4445" stop-color="#C1CAFC"/>
<stop offset="0.6564" stop-color="#B6C0F8"/>
<stop offset="0.8614" stop-color="#A3AFF2"/>
<stop offset="0.9153" stop-color="#9DAAF0"/>
</linearGradient>
<linearGradient id="paint17_linear" x1="245.765" y1="142.33" x2="326.489" y2="62.8785" gradientUnits="userSpaceOnUse">
<stop offset="0.2169" stop-color="#C5CDFD"/>
<stop offset="0.4445" stop-color="#C1CAFC"/>
<stop offset="0.6564" stop-color="#B6C0F8"/>
<stop offset="0.8614" stop-color="#A3AFF2"/>
<stop offset="0.9153" stop-color="#9DAAF0"/>
</linearGradient>
<linearGradient id="paint18_linear" x1="261.918" y1="158.742" x2="342.642" y2="79.2902" gradientUnits="userSpaceOnUse">
<stop offset="0.2169" stop-color="#C5CDFD"/>
<stop offset="0.4445" stop-color="#C1CAFC"/>
<stop offset="0.6564" stop-color="#B6C0F8"/>
<stop offset="0.8614" stop-color="#A3AFF2"/>
<stop offset="0.9153" stop-color="#9DAAF0"/>
</linearGradient>
<linearGradient id="paint19_linear" x1="230.973" y1="127.302" x2="311.697" y2="47.8504" gradientUnits="userSpaceOnUse">
<stop offset="0.2169" stop-color="#C5CDFD"/>
<stop offset="0.4445" stop-color="#C1CAFC"/>
<stop offset="0.6564" stop-color="#B6C0F8"/>
<stop offset="0.8614" stop-color="#A3AFF2"/>
<stop offset="0.9153" stop-color="#9DAAF0"/>
</linearGradient>
<linearGradient id="paint20_linear" x1="225.661" y1="121.905" x2="306.385" y2="42.453" gradientUnits="userSpaceOnUse">
<stop offset="0.2169" stop-color="#C5CDFD"/>
<stop offset="0.4445" stop-color="#C1CAFC"/>
<stop offset="0.6564" stop-color="#B6C0F8"/>
<stop offset="0.8614" stop-color="#A3AFF2"/>
<stop offset="0.9153" stop-color="#9DAAF0"/>
</linearGradient>
<linearGradient id="paint21_linear" x1="220.349" y1="116.507" x2="301.072" y2="37.0557" gradientUnits="userSpaceOnUse">
<stop offset="0.2169" stop-color="#C5CDFD"/>
<stop offset="0.4445" stop-color="#C1CAFC"/>
<stop offset="0.6564" stop-color="#B6C0F8"/>
<stop offset="0.8614" stop-color="#A3AFF2"/>
<stop offset="0.9153" stop-color="#9DAAF0"/>
</linearGradient>
<linearGradient id="paint22_linear" x1="215.036" y1="111.11" x2="295.76" y2="31.658" gradientUnits="userSpaceOnUse">
<stop offset="0.2169" stop-color="#C5CDFD"/>
<stop offset="0.4445" stop-color="#C1CAFC"/>
<stop offset="0.6564" stop-color="#B6C0F8"/>
<stop offset="0.8614" stop-color="#A3AFF2"/>
<stop offset="0.9153" stop-color="#9DAAF0"/>
</linearGradient>
<linearGradient id="paint23_linear" x1="196.492" y1="55.5371" x2="200.046" y2="55.5371" gradientUnits="userSpaceOnUse">
<stop offset="0.2222" stop-color="#283593"/>
<stop offset="0.3979" stop-color="#2D3A97"/>
<stop offset="0.6141" stop-color="#3C49A4"/>
<stop offset="0.8508" stop-color="#5462B9"/>
<stop offset="0.9206" stop-color="#5C6BC0"/>
</linearGradient>
<linearGradient id="paint24_linear" x1="201.823" y1="55.5371" x2="205.378" y2="55.5371" gradientUnits="userSpaceOnUse">
<stop offset="0.2222" stop-color="#283593"/>
<stop offset="0.3979" stop-color="#2D3A97"/>
<stop offset="0.6141" stop-color="#3C49A4"/>
<stop offset="0.8508" stop-color="#5462B9"/>
<stop offset="0.9206" stop-color="#5C6BC0"/>
</linearGradient>
<linearGradient id="paint25_linear" x1="207.155" y1="55.5371" x2="210.71" y2="55.5371" gradientUnits="userSpaceOnUse">
<stop offset="0.2222" stop-color="#283593"/>
<stop offset="0.3979" stop-color="#2D3A97"/>
<stop offset="0.6141" stop-color="#3C49A4"/>
<stop offset="0.8508" stop-color="#5462B9"/>
<stop offset="0.9206" stop-color="#5C6BC0"/>
</linearGradient>
<linearGradient id="paint26_linear" x1="68.3939" y1="179.371" x2="545.353" y2="179.371" gradientUnits="userSpaceOnUse">
<stop offset="0.0793651" stop-color="#283593"/>
<stop offset="0.4661" stop-color="#4250A9"/>
<stop offset="0.9247" stop-color="#5C6BC0"/>
</linearGradient>
<linearGradient id="paint27_linear" x1="41.8952" y1="121.088" x2="200.175" y2="218.476" gradientUnits="userSpaceOnUse">
<stop offset="0.0793651" stop-color="#283593"/>
<stop offset="0.4661" stop-color="#4250A9"/>
<stop offset="0.9247" stop-color="#5C6BC0"/>
</linearGradient>
<linearGradient id="paint28_linear" x1="246.511" y1="147.696" x2="131.574" y2="133.569" gradientUnits="userSpaceOnUse">
<stop stop-color="#E88306"/>
<stop offset="0.9133" stop-color="#F7D209"/>
<stop offset="1" stop-color="#F8DA09"/>
</linearGradient>
<linearGradient id="paint29_linear" x1="244.668" y1="162.689" x2="129.731" y2="148.562" gradientUnits="userSpaceOnUse">
<stop stop-color="#E88306"/>
<stop offset="0.9133" stop-color="#F7D209"/>
<stop offset="1" stop-color="#F8DA09"/>
</linearGradient>
<linearGradient id="paint30_linear" x1="224.837" y1="337.787" x2="457.405" y2="230.482" gradientUnits="userSpaceOnUse">
<stop offset="0.079365" stop-color="#5C6BC0"/>
<stop offset="0.1492" stop-color="#5462B9"/>
<stop offset="0.3859" stop-color="#3C49A4"/>
<stop offset="0.6021" stop-color="#2D3A97"/>
<stop offset="0.7778" stop-color="#283593"/>
</linearGradient>
<linearGradient id="paint31_linear" x1="260.191" y1="289.464" x2="364.429" y2="289.464" gradientUnits="userSpaceOnUse">
<stop offset="0.079365" stop-color="#5C6BC0"/>
<stop offset="0.1492" stop-color="#5462B9"/>
<stop offset="0.3859" stop-color="#3C49A4"/>
<stop offset="0.6021" stop-color="#2D3A97"/>
<stop offset="0.7778" stop-color="#283593"/>
</linearGradient>
<linearGradient id="paint32_linear" x1="385.601" y1="140.064" x2="412.895" y2="140.064" gradientUnits="userSpaceOnUse">
<stop offset="0.2169" stop-color="#C5CDFD"/>
<stop offset="0.4445" stop-color="#C1CAFC"/>
<stop offset="0.6564" stop-color="#B6C0F8"/>
<stop offset="0.8614" stop-color="#A3AFF2"/>
<stop offset="0.9153" stop-color="#9DAAF0"/>
</linearGradient>
<linearGradient id="paint33_linear" x1="340.141" y1="79.6851" x2="384.553" y2="79.6851" gradientUnits="userSpaceOnUse">
<stop offset="0.2169" stop-color="#C5CDFD"/>
<stop offset="0.4445" stop-color="#C1CAFC"/>
<stop offset="0.6564" stop-color="#B6C0F8"/>
<stop offset="0.8614" stop-color="#A3AFF2"/>
<stop offset="0.9153" stop-color="#9DAAF0"/>
</linearGradient>
<linearGradient id="paint34_linear" x1="322.119" y1="147.035" x2="408.21" y2="147.035" gradientUnits="userSpaceOnUse">
<stop offset="0.2169" stop-color="#C5CDFD"/>
<stop offset="0.4445" stop-color="#C1CAFC"/>
<stop offset="0.6564" stop-color="#B6C0F8"/>
<stop offset="0.8614" stop-color="#A3AFF2"/>
<stop offset="0.9153" stop-color="#9DAAF0"/>
</linearGradient>
<linearGradient id="paint35_linear" x1="323.3" y1="149.19" x2="333.108" y2="149.19" gradientUnits="userSpaceOnUse">
<stop offset="0.2169" stop-color="#C5CDFD"/>
<stop offset="0.4445" stop-color="#C1CAFC"/>
<stop offset="0.6564" stop-color="#B6C0F8"/>
<stop offset="0.8614" stop-color="#A3AFF2"/>
<stop offset="0.9153" stop-color="#9DAAF0"/>
</linearGradient>
<linearGradient id="paint36_linear" x1="400.683" y1="150.008" x2="287.277" y2="70.9826" gradientUnits="userSpaceOnUse">
<stop offset="0.2169" stop-color="#C5CDFD"/>
<stop offset="0.4445" stop-color="#C1CAFC"/>
<stop offset="0.6564" stop-color="#B6C0F8"/>
<stop offset="0.8614" stop-color="#A3AFF2"/>
<stop offset="0.9153" stop-color="#9DAAF0"/>
</linearGradient>
<linearGradient id="paint37_linear" x1="380.66" y1="317.689" x2="332.863" y2="121.245" gradientUnits="userSpaceOnUse">
<stop stop-color="#E88306"/>
<stop offset="0.9133" stop-color="#F7D209"/>
<stop offset="1" stop-color="#F8DA09"/>
</linearGradient>
<linearGradient id="paint38_linear" x1="247.422" y1="140.282" x2="132.485" y2="126.156" gradientUnits="userSpaceOnUse">
<stop stop-color="#E88306"/>
<stop offset="0.9133" stop-color="#F7D209"/>
<stop offset="1" stop-color="#F8DA09"/>
</linearGradient>
<linearGradient id="paint39_linear" x1="246.563" y1="147.274" x2="131.626" y2="133.147" gradientUnits="userSpaceOnUse">
<stop stop-color="#E88306"/>
<stop offset="0.9133" stop-color="#F7D209"/>
<stop offset="1" stop-color="#F8DA09"/>
</linearGradient>
<linearGradient id="paint40_linear" x1="245.712" y1="154.191" x2="130.775" y2="140.065" gradientUnits="userSpaceOnUse">
<stop stop-color="#E88306"/>
<stop offset="0.9133" stop-color="#F7D209"/>
<stop offset="1" stop-color="#F8DA09"/>
</linearGradient>
</defs>
</svg>
