<svg width="550" height="417" viewBox="0 0 550 417" fill="none" xmlns="http://www.w3.org/2000/svg">
<g clip-path="url(#clip0)">
<path d="M38.7997 363.769C43.7646 372.615 49.6489 380.723 56.2688 388.279C58.1076 390.49 60.682 392.517 63.2564 394.544H497.777C497.777 391.78 497.593 389.016 497.225 386.252C492.444 353.634 460.816 328.94 459.161 295.954C457.874 270.708 474.607 248.041 477.549 222.979C480.491 196.811 465.413 168.617 440.772 159.218C407.489 146.687 371.815 168.432 336.509 171.381C307.088 173.776 276.747 161.614 256.703 139.685C240.705 121.994 229.488 97.1158 206.687 89.9289C185.356 83.1105 161.451 95.8258 149.866 114.991C138.281 134.156 136.994 157.928 139.936 180.042C142.511 200.128 147.843 222.058 137.362 239.196C127.248 255.965 105.734 261.678 86.0581 262.047C64.9114 262.415 39.1675 260.02 27.031 277.526C21.3306 285.819 20.779 296.323 21.3306 306.274C22.9856 326.545 28.8699 346.263 38.7997 363.769Z" fill="#E3E8FF"/>
<path d="M151.705 361.374C150.97 361.189 150.602 360.268 150.786 359.715C150.97 358.978 151.889 358.609 152.625 358.794C153.36 358.978 153.728 359.899 153.544 360.637C153.36 361.189 152.808 361.558 152.257 361.558C151.889 361.558 151.889 361.558 151.705 361.374ZM145.269 359.162C144.534 358.978 144.166 358.057 144.534 357.319C144.718 356.582 145.637 356.214 146.373 356.582C147.108 356.767 147.476 357.688 147.108 358.425C146.924 358.978 146.373 359.347 145.821 359.347C145.637 359.347 145.453 359.347 145.269 359.162ZM139.017 356.767C138.282 356.398 137.914 355.661 138.282 354.924C138.649 354.187 139.385 353.818 140.12 354.187C140.856 354.555 141.224 355.292 140.856 356.03C140.672 356.582 140.12 356.951 139.569 356.951C139.385 356.767 139.201 356.767 139.017 356.767ZM132.949 354.002C132.213 353.634 132.029 352.897 132.213 352.16C132.581 351.423 133.317 351.238 134.052 351.423C134.788 351.791 134.972 352.528 134.788 353.265C134.604 353.818 134.052 354.002 133.501 354.002C133.317 354.002 133.133 354.002 132.949 354.002ZM127.065 350.87C126.329 350.501 126.145 349.58 126.513 349.027C126.881 348.29 127.8 348.105 128.352 348.474C129.087 348.843 129.271 349.764 128.903 350.317C128.72 350.87 128.168 351.054 127.616 351.054C127.432 351.054 127.248 351.054 127.065 350.87ZM121.18 347.553C120.445 347.184 120.261 346.263 120.629 345.71C120.996 344.973 121.916 344.788 122.467 345.157C123.203 345.526 123.387 346.447 123.019 347C122.835 347.368 122.284 347.737 121.916 347.737C121.548 347.737 121.364 347.737 121.18 347.553ZM115.48 344.051C114.928 343.683 114.744 342.761 115.112 342.209C115.48 341.656 116.399 341.471 116.951 341.84C117.503 342.209 117.686 343.13 117.319 343.683C117.135 344.051 116.583 344.236 116.215 344.236C116.031 344.236 115.664 344.051 115.48 344.051ZM109.963 340.181C109.412 339.813 109.228 338.891 109.596 338.154C109.963 337.602 110.883 337.417 111.618 337.786C112.17 338.154 112.354 339.076 111.986 339.813C111.802 340.181 111.25 340.366 110.883 340.366C110.515 340.366 110.147 340.366 109.963 340.181ZM104.631 336.127C104.079 335.574 103.895 334.837 104.447 334.1C104.998 333.547 105.734 333.363 106.469 333.916C107.021 334.469 107.205 335.206 106.653 335.943C106.469 336.312 105.918 336.496 105.55 336.496C105.182 336.312 104.814 336.312 104.631 336.127ZM99.4818 331.705C98.9302 331.152 98.9302 330.23 99.2979 329.677C99.8496 329.125 100.769 329.125 101.321 329.493C101.872 330.046 101.872 330.967 101.505 331.52C101.137 331.889 100.769 332.073 100.401 332.073C100.033 332.073 99.6657 331.889 99.4818 331.705ZM94.5169 327.098C93.9653 326.545 93.9653 325.623 94.5169 325.07C95.0686 324.518 95.988 324.518 96.5397 325.07C97.0913 325.623 97.0913 326.545 96.5397 327.098C96.1719 327.466 95.988 327.466 95.6202 327.466C95.0686 327.466 94.7008 327.466 94.5169 327.098ZM89.7359 322.306C89.1843 321.753 89.1843 320.832 89.7359 320.279C90.2876 319.726 91.207 319.726 91.7587 320.279C92.3103 320.832 92.3103 321.753 91.7587 322.306C91.5748 322.491 91.207 322.675 90.8392 322.675C90.4715 322.675 90.1037 322.675 89.7359 322.306ZM85.3227 317.331C84.771 316.778 84.9549 315.856 85.5066 315.304C86.0582 314.751 86.9776 314.935 87.5293 315.488C88.081 316.041 87.8971 316.962 87.3454 317.515C87.1615 317.699 86.7938 317.884 86.426 317.884C86.0582 317.699 85.5066 317.699 85.3227 317.331ZM81.0933 311.987C80.5417 311.434 80.7256 310.512 81.2772 309.959C81.8289 309.407 82.7483 309.591 83.2999 310.144C83.8516 310.697 83.6677 311.618 83.1161 312.171C82.9322 312.355 82.5644 312.539 82.1966 312.539C81.8289 312.539 81.4611 312.355 81.0933 311.987ZM77.2317 306.642C76.864 306.09 77.0479 305.168 77.5995 304.615C78.1512 304.247 79.0706 304.431 79.4384 304.984C79.8061 305.537 79.6222 306.458 79.0706 307.011C78.8867 307.195 78.5189 307.195 78.3351 307.195C77.9673 307.195 77.4156 307.011 77.2317 306.642ZM73.554 300.93C73.1863 300.193 73.3702 299.456 74.1057 299.087C74.8412 298.718 75.5768 298.903 75.9445 299.64C76.3123 300.377 76.1284 301.114 75.3929 301.483C75.209 301.667 74.8412 301.667 74.6574 301.667C74.2896 301.483 73.7379 301.298 73.554 300.93ZM70.2441 295.033C69.8763 294.296 70.0602 293.559 70.7958 293.19C71.5313 292.821 72.2668 293.006 72.6346 293.743C73.0024 294.48 72.8185 295.217 72.083 295.586C71.8991 295.77 71.7152 295.77 71.3474 295.77C70.9797 295.77 70.428 295.401 70.2441 295.033ZM67.302 288.952C66.9342 288.214 67.302 287.477 68.0375 287.109C68.773 286.74 69.5086 287.109 69.8763 287.846C70.2441 288.583 69.8763 289.32 69.1408 289.689C68.9569 289.689 68.773 289.873 68.5891 289.873C68.0375 289.689 67.4858 289.504 67.302 288.952ZM476.262 283.792C475.711 283.239 475.527 282.502 476.078 281.765C476.63 281.212 477.366 281.027 478.101 281.58C478.653 282.133 478.837 282.87 478.285 283.607C477.917 283.976 477.549 284.16 477.182 284.16C476.814 284.16 476.63 283.976 476.262 283.792ZM64.5437 282.686C64.1759 281.949 64.5437 281.212 65.2792 280.843C66.0148 280.475 66.7503 280.843 67.1181 281.58C67.4858 282.317 67.1181 283.055 66.3825 283.423C66.1986 283.423 66.0148 283.607 65.8309 283.607C65.2792 283.607 64.7276 283.239 64.5437 282.686ZM480.492 278.632C479.94 278.079 479.756 277.342 480.308 276.605C480.859 276.052 481.595 275.868 482.33 276.42C482.882 276.973 483.066 277.71 482.514 278.448C482.33 278.816 481.779 279 481.411 279C481.227 279 480.859 279 480.492 278.632ZM62.3371 276.42C62.1532 275.683 62.5209 274.946 63.2565 274.578C63.992 274.393 64.7276 274.762 65.0953 275.499C65.2792 276.236 64.9115 276.973 64.1759 277.342C63.992 277.342 63.8081 277.342 63.8081 277.342C63.0726 277.342 62.5209 276.973 62.3371 276.42ZM484.721 273.472C484.169 272.919 483.985 272.182 484.537 271.445C485.089 270.892 485.824 270.708 486.56 271.261C487.111 271.813 487.295 272.551 486.744 273.288C486.56 273.656 486.008 273.841 485.64 273.841C485.273 273.841 485.089 273.656 484.721 273.472ZM60.4982 269.971C60.3143 269.234 60.6821 268.496 61.4176 268.312C62.1532 268.128 62.8887 268.496 63.0726 269.234C63.2565 269.971 62.8887 270.708 62.1532 270.892C61.9693 270.892 61.9693 270.892 61.7854 270.892C61.2337 270.892 60.4982 270.523 60.4982 269.971ZM488.95 268.312C488.399 267.759 488.215 267.022 488.766 266.285C489.318 265.732 490.054 265.548 490.789 266.101C491.341 266.654 491.525 267.391 490.973 268.128C490.789 268.496 490.237 268.681 489.87 268.681C489.502 268.496 489.134 268.496 488.95 268.312ZM59.0271 263.337C58.8432 262.599 59.3949 261.862 60.1304 261.678C60.866 261.494 61.6015 262.047 61.7854 262.784C61.9693 263.521 61.4176 264.258 60.6821 264.442H60.4982C59.7627 264.442 59.0271 264.074 59.0271 263.337ZM492.996 262.968C492.444 262.599 492.26 261.678 492.628 260.941C492.996 260.388 493.915 260.204 494.651 260.572C495.202 260.941 495.386 261.862 495.018 262.599C494.835 262.968 494.283 263.152 493.915 263.152C493.547 263.152 493.18 263.152 492.996 262.968ZM57.9238 256.702C57.7399 255.965 58.2916 255.228 59.211 255.228C59.9466 255.044 60.6821 255.597 60.6821 256.518C60.6821 257.255 60.3143 257.992 59.3949 257.992H59.211C58.6594 257.808 58.1077 257.255 57.9238 256.702ZM496.857 257.624C496.306 257.255 496.122 256.334 496.49 255.597C496.857 255.044 497.777 254.86 498.328 255.228C498.88 255.597 499.064 256.518 498.696 257.071C498.512 257.44 497.961 257.624 497.593 257.624C497.409 257.808 497.041 257.624 496.857 257.624ZM500.535 252.095C499.799 251.727 499.799 250.805 500.167 250.253C500.535 249.516 501.454 249.516 502.006 249.884C502.742 250.253 502.742 251.174 502.374 251.727C502.19 252.095 501.638 252.28 501.271 252.28C501.087 252.28 500.719 252.095 500.535 252.095ZM57.3722 249.884C57.3722 249.147 57.9238 248.41 58.6594 248.41C59.3949 248.41 60.1304 248.963 60.1304 249.7C60.1304 250.437 59.5788 251.174 58.8432 251.174C57.9238 251.174 57.3722 250.621 57.3722 249.884ZM504.029 246.383C503.293 246.014 503.109 245.093 503.477 244.54C503.845 243.803 504.764 243.619 505.316 243.987C506.052 244.356 506.235 245.277 505.868 245.83C505.684 246.198 505.132 246.567 504.764 246.567C504.58 246.567 504.397 246.567 504.029 246.383ZM58.4755 244.54C57.7399 244.54 57.0044 243.987 57.0044 243.066C57.0044 242.329 57.556 241.591 58.4755 241.591C59.211 241.591 59.9466 242.144 59.9466 243.066C59.9466 243.987 59.3949 244.54 58.4755 244.54ZM507.523 240.67C506.787 240.302 506.603 239.38 506.971 238.827C507.339 238.09 508.258 237.906 508.81 238.274C509.545 238.643 509.729 239.564 509.362 240.117C509.178 240.486 508.626 240.854 508.074 240.854C507.89 240.854 507.707 240.854 507.523 240.67ZM58.6594 237.906C57.9238 237.906 57.3722 237.169 57.3722 236.432C57.3722 235.695 58.1077 235.142 58.8432 235.142C59.5788 235.142 60.1304 235.879 60.1304 236.616C60.1304 237.353 59.5788 237.906 58.6594 237.906C58.8432 237.906 58.6594 237.906 58.6594 237.906ZM510.649 234.773C509.913 234.405 509.729 233.667 510.097 232.93C510.465 232.193 511.2 232.009 511.936 232.377C512.671 232.746 512.855 233.483 512.488 234.22C512.304 234.773 511.752 234.957 511.2 234.957C511.016 234.957 510.833 234.957 510.649 234.773ZM59.211 231.272C58.4755 231.087 57.9238 230.535 57.9238 229.798C58.1077 229.06 58.6594 228.508 59.3949 228.508C60.1304 228.692 60.6821 229.245 60.6821 229.982C60.6821 230.719 60.1304 231.272 59.211 231.272C59.3949 231.272 59.3949 231.272 59.211 231.272ZM513.591 228.876C512.855 228.508 512.671 227.77 512.855 227.033C513.223 226.296 513.959 226.112 514.694 226.296C515.43 226.665 515.614 227.402 515.43 228.139C515.246 228.692 514.694 228.876 514.143 228.876C513.959 228.876 513.775 228.876 513.591 228.876ZM60.1304 224.638C59.3949 224.453 58.8432 223.716 59.0271 222.979C59.211 222.242 59.9466 221.689 60.6821 221.873C61.4176 222.058 61.9693 222.795 61.7854 223.532C61.6015 224.269 61.0499 224.638 60.4982 224.638C60.3143 224.638 60.3143 224.638 60.1304 224.638ZM516.349 222.795C515.614 222.426 515.246 221.689 515.614 220.952C515.981 220.215 516.717 219.846 517.452 220.215C518.188 220.584 518.556 221.321 518.188 222.058C518.004 222.611 517.452 222.979 516.901 222.979C516.717 222.795 516.533 222.795 516.349 222.795ZM61.6015 218.004C60.866 217.819 60.3143 217.082 60.6821 216.345C60.866 215.608 61.6015 215.239 62.3371 215.424C63.0726 215.608 63.6243 216.345 63.2565 217.082C63.0726 217.635 62.5209 218.188 61.9693 218.188C61.7854 218.188 61.6015 218.188 61.6015 218.004ZM518.74 216.529C518.004 216.345 517.636 215.424 517.82 214.687C518.004 213.949 518.924 213.581 519.659 213.765C520.395 213.949 520.762 214.871 520.578 215.608C520.395 216.161 519.843 216.529 519.291 216.529C519.107 216.529 518.924 216.529 518.74 216.529ZM63.2565 211.738C62.5209 211.554 62.1532 210.817 62.3371 210.08C62.5209 209.342 63.4404 208.974 63.992 209.158C64.7276 209.342 65.0953 210.264 64.9114 210.817C64.7276 211.37 64.1759 211.738 63.6243 211.738C63.6243 211.738 63.4404 211.738 63.2565 211.738ZM520.946 210.264C520.211 210.08 519.843 209.342 520.027 208.605C520.211 207.868 520.946 207.5 521.682 207.684C522.417 207.868 522.785 208.605 522.601 209.342C522.417 209.895 521.866 210.264 521.314 210.264C521.13 210.264 521.13 210.264 520.946 210.264ZM65.4631 205.288C64.7276 204.92 64.3598 204.183 64.7276 203.445C65.0953 202.708 65.8309 202.34 66.5664 202.708C67.302 203.077 67.6697 203.814 67.302 204.551C67.1181 205.104 66.5664 205.473 66.0148 205.473C65.647 205.473 65.4631 205.473 65.4631 205.288ZM522.785 203.814C522.05 203.63 521.498 202.893 521.682 202.155C521.866 201.418 522.601 200.866 523.337 201.05C524.072 201.234 524.624 201.971 524.44 202.708C524.256 203.261 523.705 203.814 523.153 203.814C522.969 203.814 522.785 203.814 522.785 203.814ZM67.8536 199.207C67.1181 198.838 66.9342 198.101 67.1181 197.364C67.4858 196.627 68.2214 196.443 68.9569 196.627C69.6925 196.996 69.8763 197.733 69.6925 198.47C69.5086 199.023 68.9569 199.207 68.4053 199.207C68.2214 199.207 68.0375 199.207 67.8536 199.207ZM524.256 197.364C523.521 197.18 522.969 196.443 523.153 195.706C523.337 194.969 524.072 194.416 524.808 194.6C525.543 194.784 526.095 195.521 525.911 196.259C525.727 196.996 525.176 197.364 524.624 197.364C524.44 197.364 524.256 197.364 524.256 197.364ZM70.7958 193.126C70.0602 192.757 69.8763 191.836 70.2441 191.283C70.6119 190.546 71.5313 190.362 72.083 190.73C72.8185 191.099 73.0024 192.02 72.6346 192.573C72.4507 193.126 71.8991 193.31 71.3474 193.31C71.1635 193.31 70.9797 193.31 70.7958 193.126ZM525.36 190.73C524.624 190.546 524.072 189.993 524.072 189.256C524.256 188.519 524.808 187.966 525.543 187.966C526.279 188.15 526.831 188.703 526.831 189.44C526.831 190.177 526.095 190.73 525.36 190.73ZM74.1057 187.413C73.554 187.044 73.1863 186.123 73.7379 185.57C74.1057 184.833 75.0251 184.649 75.5768 185.202C76.3123 185.57 76.4962 186.492 75.9445 187.045C75.7607 187.413 75.209 187.597 74.8412 187.597C74.6574 187.597 74.2896 187.413 74.1057 187.413ZM525.911 184.096C525.176 184.096 524.624 183.359 524.624 182.622C524.624 181.885 525.359 181.332 526.095 181.332C526.831 181.332 527.382 182.069 527.382 182.806C527.382 183.543 526.831 184.096 525.911 184.096C526.095 184.096 525.911 184.096 525.911 184.096ZM77.7834 181.885C77.2317 181.516 77.0479 180.595 77.4156 179.858C77.7834 179.305 78.7028 179.12 79.4384 179.489C79.99 179.858 80.1739 180.779 79.8061 181.516C79.6223 181.885 79.0706 182.069 78.7028 182.069C78.3351 182.069 77.9673 182.069 77.7834 181.885ZM524.808 175.988C524.808 175.251 525.359 174.513 526.095 174.513C526.831 174.513 527.566 175.066 527.566 175.803C527.566 176.541 527.014 177.278 526.279 177.278C525.36 177.462 524.808 176.725 524.808 175.988ZM81.8289 176.541C81.2772 175.988 81.0933 175.251 81.645 174.513C82.1966 173.961 82.9322 173.776 83.6677 174.329C84.2194 174.882 84.4033 175.619 83.8516 176.356C83.4838 176.725 83.1161 176.909 82.7483 176.909C82.3805 176.909 82.1966 176.725 81.8289 176.541ZM86.2421 171.565C85.6905 171.012 85.6905 170.091 86.2421 169.538C86.7938 168.985 87.7132 168.985 88.2648 169.538C88.8165 170.091 88.8165 171.012 88.2648 171.565C88.081 171.749 87.7132 171.934 87.3454 171.934C86.9776 171.934 86.6099 171.749 86.2421 171.565ZM524.256 169.538C524.256 168.801 524.808 168.064 525.543 168.064C526.279 168.064 527.014 168.616 527.014 169.354C527.014 170.091 526.463 170.828 525.727 170.828C525.727 170.828 525.727 170.828 525.543 170.828C524.992 170.828 524.44 170.275 524.256 169.538ZM91.0231 166.958C90.4715 166.405 90.6553 165.484 91.207 164.931C91.7587 164.378 92.6781 164.562 93.2297 165.115C93.7814 165.668 93.5975 166.589 93.0459 167.142C92.862 167.327 92.4942 167.511 92.1264 167.511C91.7587 167.327 91.3909 167.142 91.0231 166.958ZM523.521 162.904C523.337 162.167 523.888 161.43 524.624 161.245C525.359 161.061 526.095 161.614 526.279 162.351C526.463 163.088 525.911 163.825 525.176 164.009H524.992C524.256 164.194 523.521 163.641 523.521 162.904ZM96.1719 162.72C95.8041 162.167 95.8041 161.245 96.5397 160.692C97.0913 160.324 98.0107 160.324 98.5624 161.061C98.9302 161.614 98.9302 162.535 98.1946 163.088C98.0108 163.272 97.643 163.272 97.4591 163.272C96.9074 163.272 96.5397 163.088 96.1719 162.72ZM101.688 158.85C101.321 158.112 101.505 157.375 102.056 157.007C102.792 156.638 103.527 156.823 103.895 157.375C104.263 158.113 104.079 158.85 103.527 159.218C103.343 159.402 102.976 159.402 102.792 159.402C102.424 159.587 101.872 159.218 101.688 158.85ZM522.233 156.454C522.05 155.717 522.601 154.98 523.337 154.795C524.072 154.611 524.808 155.164 524.992 155.901C525.176 156.638 524.624 157.375 523.888 157.56C523.705 157.56 523.705 157.56 523.521 157.56C522.969 157.56 522.417 157.191 522.233 156.454ZM107.389 155.348C107.021 154.611 107.205 153.874 107.941 153.505C108.676 153.137 109.412 153.321 109.779 154.058C110.147 154.795 109.963 155.533 109.228 155.901C109.044 156.085 108.86 156.085 108.492 156.085C108.124 156.085 107.573 155.901 107.389 155.348ZM113.273 152.4C112.905 151.663 113.273 150.926 114.009 150.557C114.744 150.188 115.48 150.557 115.848 151.11C116.215 151.847 115.848 152.584 115.112 152.953C114.928 153.137 114.744 153.137 114.56 153.137C114.009 153.137 113.457 152.768 113.273 152.4ZM520.395 150.188C520.211 149.451 520.578 148.714 521.314 148.53C522.05 148.346 522.785 148.714 522.969 149.451C523.153 150.188 522.785 150.926 522.05 151.11C521.866 151.11 521.682 151.11 521.682 151.11C521.13 151.11 520.578 150.741 520.395 150.188ZM119.341 149.451C118.974 148.714 119.341 147.977 120.077 147.609C120.812 147.24 121.548 147.609 121.916 148.346C122.284 149.083 121.916 149.82 121.18 150.188C120.996 150.188 120.812 150.373 120.629 150.373C120.077 150.373 119.525 150.004 119.341 149.451ZM125.41 146.687C125.042 145.95 125.41 145.213 126.145 144.844C126.881 144.476 127.616 144.844 127.984 145.581C128.352 146.319 127.984 147.056 127.248 147.424C127.065 147.424 126.881 147.609 126.697 147.609C126.145 147.609 125.593 147.24 125.41 146.687ZM131.478 144.107C131.11 143.37 131.478 142.633 132.213 142.264C132.949 141.896 133.684 142.264 134.052 143.002C134.42 143.739 134.052 144.476 133.317 144.844C133.133 144.844 132.949 145.029 132.765 145.029C132.213 144.844 131.662 144.476 131.478 144.107ZM518.372 143.923C518.004 143.186 518.372 142.449 519.107 142.08C519.843 141.712 520.578 142.08 520.946 142.817C521.314 143.554 520.946 144.291 520.211 144.66C520.027 144.66 519.843 144.844 519.659 144.844C519.107 144.844 518.556 144.476 518.372 143.923ZM137.546 141.343C137.178 140.606 137.546 139.869 138.098 139.5C138.833 139.132 139.569 139.5 139.937 140.053C140.304 140.79 139.937 141.527 139.201 141.896C139.017 142.08 138.833 142.08 138.649 142.08C138.282 142.08 137.73 141.712 137.546 141.343ZM143.43 138.21C143.063 137.473 143.246 136.736 143.982 136.367C144.718 135.999 145.453 136.183 145.821 136.92C146.189 137.657 146.005 138.395 145.269 138.763C145.085 138.947 144.901 138.947 144.534 138.947C144.166 138.947 143.614 138.763 143.43 138.21ZM515.614 138.026C515.246 137.289 515.614 136.552 516.349 136.183C517.085 135.815 517.82 136.183 518.188 136.736C518.556 137.473 518.188 138.21 517.636 138.579C517.452 138.763 517.269 138.763 517.085 138.763C516.349 138.763 515.797 138.395 515.614 138.026ZM149.315 135.077C148.947 134.34 149.131 133.603 149.682 133.235C150.418 132.866 151.154 133.05 151.521 133.603C151.889 134.34 151.705 135.077 151.154 135.446C150.97 135.63 150.602 135.63 150.418 135.63C150.05 135.63 149.499 135.446 149.315 135.077ZM512.488 132.129C512.12 131.392 512.304 130.655 513.039 130.286C513.775 129.918 514.51 130.102 514.878 130.839C515.246 131.576 515.062 132.313 514.326 132.682C514.143 132.866 513.775 132.866 513.591 132.866C513.223 132.866 512.855 132.682 512.488 132.129ZM154.831 131.392C154.463 130.839 154.463 129.918 155.199 129.365C155.751 128.996 156.67 128.996 157.222 129.733C157.589 130.286 157.589 131.208 156.854 131.576C156.67 131.76 156.302 131.76 156.118 131.76C155.567 131.945 155.199 131.76 154.831 131.392ZM160.164 127.338C159.612 126.785 159.796 125.863 160.348 125.311C160.899 124.758 161.819 124.942 162.371 125.495C162.922 126.048 162.738 126.969 162.187 127.522C162.003 127.706 161.635 127.891 161.267 127.891C160.899 127.891 160.532 127.706 160.164 127.338ZM508.994 126.601C508.626 126.048 508.626 125.126 509.362 124.758C509.913 124.389 510.833 124.389 511.384 125.126C511.752 125.679 511.752 126.601 511.016 127.153C510.833 127.338 510.465 127.338 510.281 127.338C509.729 127.338 509.361 126.969 508.994 126.601ZM165.313 123.099C164.761 122.546 164.761 121.625 165.313 121.072C165.864 120.519 166.784 120.519 167.335 121.072C167.887 121.625 167.887 122.546 167.335 123.099C166.968 123.468 166.6 123.468 166.232 123.468C165.864 123.468 165.497 123.284 165.313 123.099ZM505.132 121.441C504.581 120.888 504.764 119.966 505.316 119.414C505.868 118.861 506.787 119.045 507.339 119.598C507.89 120.151 507.707 121.072 507.155 121.625C506.971 121.809 506.603 121.994 506.235 121.994C505.684 121.994 505.316 121.809 505.132 121.441ZM170.094 118.492C169.542 117.939 169.542 117.018 170.094 116.465C170.645 115.912 171.565 115.912 172.116 116.465C172.668 117.018 172.668 117.939 172.116 118.492C171.933 118.861 171.565 118.861 171.197 118.861C170.645 118.861 170.278 118.677 170.094 118.492ZM500.535 116.649C499.983 116.097 499.983 115.175 500.535 114.622C501.087 114.07 502.006 114.07 502.558 114.622C503.109 115.175 503.109 116.097 502.558 116.649C502.374 117.018 502.006 117.018 501.638 117.018C501.271 117.018 500.903 117.018 500.535 116.649ZM174.507 113.517C173.955 112.964 173.771 112.227 174.323 111.49C174.875 110.937 175.61 110.752 176.346 111.305C176.897 111.858 177.081 112.595 176.53 113.332C176.346 113.701 175.794 113.885 175.426 113.885C175.059 113.885 174.691 113.701 174.507 113.517ZM495.754 112.411C495.202 111.858 495.018 111.121 495.57 110.384C496.122 109.831 496.857 109.647 497.593 110.2C498.145 110.752 498.328 111.49 497.777 112.227C497.593 112.595 497.041 112.78 496.673 112.78C496.306 112.595 495.938 112.595 495.754 112.411ZM490.421 108.541C489.686 108.173 489.502 107.251 490.054 106.698C490.421 106.145 491.341 105.777 491.892 106.33C492.628 106.698 492.812 107.62 492.26 108.173C492.076 108.541 491.525 108.725 491.157 108.725C490.973 108.725 490.789 108.725 490.421 108.541ZM178.736 108.357C178.185 107.988 178.001 107.067 178.368 106.33C178.736 105.777 179.656 105.593 180.391 105.961C180.943 106.33 181.127 107.251 180.759 107.988C180.575 108.357 180.023 108.541 179.656 108.541C179.288 108.541 178.92 108.541 178.736 108.357ZM484.721 105.408C483.985 105.04 483.801 104.303 484.169 103.566C484.537 102.828 485.273 102.644 486.008 103.013C486.744 103.381 486.928 104.118 486.56 104.855C486.376 105.408 485.824 105.593 485.273 105.593C485.273 105.408 485.089 105.408 484.721 105.408ZM182.414 102.828C181.678 102.46 181.495 101.538 182.046 100.986C182.414 100.248 183.333 100.064 183.885 100.617C184.621 100.986 184.804 101.907 184.253 102.46C184.069 102.828 183.517 103.013 183.15 103.013C182.966 103.013 182.782 103.013 182.414 102.828ZM478.837 102.828C478.101 102.644 477.733 101.723 477.917 100.986C478.101 100.248 479.02 99.8799 479.756 100.248C480.492 100.433 480.859 101.354 480.492 102.091C480.308 102.644 479.756 103.013 479.204 103.013C479.204 102.828 479.02 102.828 478.837 102.828ZM472.585 100.801C471.849 100.617 471.481 99.8799 471.665 99.1428C471.849 98.4057 472.585 98.0371 473.32 98.2214C474.056 98.4057 474.423 99.1428 474.239 99.8799C474.056 100.433 473.504 100.986 472.952 100.986C472.768 100.986 472.768 100.801 472.585 100.801ZM406.57 100.433C405.834 100.433 405.099 99.8799 405.099 98.9585C405.099 98.2214 405.65 97.4843 406.57 97.4843C407.305 97.4843 408.041 98.0371 408.041 98.9585C408.041 99.6956 407.489 100.433 406.57 100.433C405.834 100.433 406.57 100.433 406.57 100.433ZM411.902 98.9585C411.902 98.2214 412.454 97.4843 413.19 97.4843C413.925 97.4843 414.661 98.0371 414.661 98.7742C414.661 99.5114 414.109 100.248 413.374 100.248C412.638 100.248 411.902 99.6956 411.902 98.9585ZM399.95 100.248C399.214 100.248 398.663 99.5114 398.663 98.7742C398.663 98.0371 399.398 97.4843 400.134 97.4843C400.869 97.4843 401.421 98.2214 401.421 98.9585C401.421 99.6956 400.685 100.248 399.95 100.248ZM418.522 98.59C418.522 97.8528 419.074 97.1157 419.81 97.1157C420.545 97.1157 421.281 97.6686 421.281 98.4057C421.281 99.1428 420.729 99.8799 419.993 99.8799C419.258 99.8799 418.522 99.3271 418.522 98.59ZM393.146 99.6956C392.411 99.6956 391.859 98.9585 391.859 98.2214C391.859 97.4843 392.595 96.9314 393.33 96.9314C394.066 96.9314 394.617 97.6686 394.617 98.4057C394.617 99.1428 394.066 99.6956 393.146 99.6956C393.33 99.6956 393.33 99.6956 393.146 99.6956ZM466.149 99.5114C465.413 99.3271 464.861 98.59 465.045 97.8528C465.229 97.1157 465.965 96.5629 466.7 96.7472C467.436 96.9314 467.987 97.4843 467.803 98.4057C467.62 99.1428 467.068 99.5114 466.516 99.5114C466.332 99.5114 466.332 99.5114 466.149 99.5114ZM425.142 98.2214C425.142 97.4843 425.694 96.7472 426.429 96.7472C427.165 96.7472 427.9 97.3 427.9 98.0371C427.9 98.7742 427.349 99.5114 426.613 99.5114C426.613 99.5114 426.613 99.5114 426.429 99.5114C425.878 99.5114 425.326 98.9585 425.142 98.2214ZM431.762 97.6686C431.762 96.9314 432.314 96.1943 433.049 96.1943C433.785 96.1943 434.52 96.7472 434.52 97.4843C434.52 98.2214 433.969 98.9585 433.233 98.9585C432.498 98.9585 431.946 98.4057 431.762 97.6686ZM459.713 98.7742C458.977 98.7742 458.425 98.0371 458.425 97.3C458.425 96.5629 459.161 96.01 459.896 96.01C460.632 96.01 461.184 96.7472 461.184 97.4843C461.184 98.2214 460.632 98.7742 459.713 98.7742ZM386.526 98.59C385.791 98.4057 385.239 97.6686 385.423 96.9314C385.607 96.1943 386.342 95.6415 387.078 95.8258C387.814 96.01 388.365 96.7472 388.181 97.4843C387.997 98.2214 387.446 98.59 386.894 98.59C386.71 98.59 386.526 98.59 386.526 98.59ZM438.566 97.3C438.566 96.5629 439.117 95.8258 439.853 95.8258C440.589 95.8258 441.324 96.3786 441.324 97.1157C441.324 97.8528 440.772 98.59 440.037 98.59C439.117 98.59 438.566 98.0371 438.566 97.3ZM453.093 98.4057C452.357 98.4057 451.805 97.6686 451.805 96.9314C451.805 96.1943 452.541 95.6415 453.277 95.6415C454.012 95.6415 454.564 96.3786 454.564 97.1157C454.564 97.8528 454.012 98.4057 453.093 98.4057ZM445.186 97.1157C445.186 96.3786 445.737 95.6415 446.473 95.6415C447.208 95.6415 447.944 96.1943 447.944 96.9314C447.944 97.6686 447.392 98.4057 446.657 98.4057C445.737 98.4057 445.186 97.8528 445.186 97.1157ZM185.908 97.1157C185.172 96.7472 184.988 95.8258 185.356 95.2729C185.724 94.5358 186.643 94.3515 187.195 94.7201C187.931 95.0886 188.114 96.01 187.747 96.5629C187.563 97.1157 187.011 97.3 186.459 97.3C186.459 97.3 186.092 97.3 185.908 97.1157ZM379.906 96.9314C379.171 96.7472 378.803 96.01 378.987 95.2729C379.171 94.5358 379.906 94.1672 380.642 94.3515C381.378 94.5358 381.745 95.2729 381.561 96.01C381.378 96.5629 380.826 96.9314 380.274 96.9314C380.274 97.1157 380.09 97.1157 379.906 96.9314ZM373.47 94.7201C372.735 94.3515 372.367 93.6144 372.735 92.8773C373.103 92.1402 373.838 91.7716 374.574 92.1402C375.309 92.5087 375.677 93.2458 375.309 93.983C375.125 94.5358 374.574 94.9044 374.022 94.9044C373.838 94.7201 373.654 94.7201 373.47 94.7201ZM367.402 91.7716C366.667 91.403 366.483 90.4816 366.851 89.9288C367.218 89.1917 368.138 89.0074 368.689 89.3759C369.425 89.7445 369.609 90.6659 369.241 91.2188C369.057 91.7716 368.506 91.9559 367.954 91.9559C367.77 91.9559 367.586 91.7716 367.402 91.7716ZM189.034 91.2188C188.298 90.8502 188.114 90.1131 188.298 89.3759C188.666 88.6388 189.402 88.4545 190.137 88.6388C190.873 89.0074 191.057 89.7445 190.873 90.4816C190.689 91.0345 190.137 91.2188 189.585 91.2188C189.402 91.403 189.218 91.2188 189.034 91.2188ZM361.518 88.2703C360.966 87.9017 360.782 86.9803 361.15 86.4275C361.518 85.8746 362.437 85.6903 362.989 86.0589C363.541 86.4275 363.725 87.3489 363.357 87.9017C363.173 88.2703 362.621 88.4545 362.254 88.4545C362.07 88.4545 361.886 88.4545 361.518 88.2703ZM191.792 85.1375C191.057 84.7689 190.689 84.0318 191.057 83.2947C191.424 82.5576 192.16 82.189 192.895 82.5576C193.631 82.9261 193.999 83.6633 193.631 84.4004C193.447 84.9532 192.895 85.3218 192.344 85.3218C192.16 85.1375 191.976 85.1375 191.792 85.1375ZM356.185 84.4004C355.634 83.8475 355.45 83.1104 356.001 82.3733C356.553 81.8205 357.289 81.6362 358.024 82.189C358.576 82.7419 358.76 83.479 358.208 84.2161C357.84 84.5847 357.472 84.7689 357.105 84.7689C356.553 84.5847 356.369 84.5847 356.185 84.4004ZM350.853 79.9777C350.301 79.4248 350.301 78.5034 350.669 77.9506C351.22 77.3977 352.14 77.3977 352.691 77.7663C353.243 78.3191 353.243 79.2405 352.875 79.7934C352.508 80.1619 352.14 80.3462 351.772 80.3462C351.404 80.3462 351.22 80.1619 350.853 79.9777ZM194.183 78.872C193.447 78.6877 193.079 77.7663 193.263 77.0292C193.447 76.292 194.366 75.9235 195.102 76.1078C195.838 76.292 196.205 77.2134 196.021 77.9506C195.838 78.5034 195.286 78.872 194.734 78.872C194.367 79.0562 194.366 78.872 194.183 78.872ZM345.888 75.3706C345.336 74.8178 345.336 73.8964 345.888 73.3436C346.439 72.7907 347.359 72.7907 347.91 73.3436C348.462 73.8964 348.462 74.8178 347.91 75.3706C347.727 75.7392 347.359 75.7392 346.991 75.7392C346.623 75.7392 346.256 75.7392 345.888 75.3706ZM196.205 72.6064C195.47 72.4222 195.102 71.5008 195.286 70.7636C195.47 70.0265 196.389 69.658 196.941 69.8422C197.676 70.0265 198.044 70.9479 197.86 71.5008C197.676 72.0536 197.125 72.4222 196.573 72.4222C196.573 72.6064 196.389 72.6064 196.205 72.6064ZM341.291 70.5794C340.739 70.0265 340.739 69.1051 341.291 68.5523C341.842 67.9994 342.762 67.9994 343.313 68.5523C343.865 69.1051 343.865 70.0265 343.313 70.5794C343.129 70.7636 342.762 70.9479 342.394 70.9479C341.842 70.9479 341.475 70.9479 341.291 70.5794ZM198.228 66.1566C197.493 65.9724 197.125 65.2352 197.309 64.4981C197.493 63.761 198.228 63.3924 198.964 63.5767C199.699 63.761 200.067 64.4981 199.883 65.2352C199.699 65.7881 199.148 66.1566 198.596 66.1566C198.596 66.3409 198.412 66.3409 198.228 66.1566ZM336.877 65.6038C336.326 65.0509 336.51 64.1295 337.061 63.5767C337.613 63.0239 338.532 63.2081 339.084 63.761C339.636 64.3138 339.452 65.2352 338.9 65.7881C338.716 65.9724 338.348 66.1566 337.981 66.1566C337.429 66.1566 337.061 65.9723 336.877 65.6038ZM332.464 60.4439C331.912 59.8911 332.096 58.9697 332.648 58.4169C333.2 57.864 334.119 58.0483 334.671 58.6011C335.222 59.154 335.039 60.0754 334.487 60.6282C334.303 60.8125 333.935 60.9968 333.567 60.9968C333.2 60.9968 332.832 60.8125 332.464 60.4439ZM200.251 59.8911C199.515 59.7068 199.148 58.9697 199.331 58.2326C199.515 57.4955 200.251 57.1269 200.986 57.3112C201.722 57.4955 202.09 58.2326 201.906 58.9697C201.722 59.5225 201.17 59.8911 200.619 59.8911C200.435 59.8911 200.435 59.8911 200.251 59.8911ZM328.235 55.2841C327.683 54.7313 327.867 53.8098 328.419 53.257C328.97 52.7042 329.89 52.8884 330.441 53.4413C330.993 53.9941 330.809 54.9155 330.258 55.4684C330.074 55.6527 329.706 55.8369 329.338 55.8369C328.97 55.8369 328.603 55.6526 328.235 55.2841ZM202.274 53.4413C201.538 53.257 201.17 52.3356 201.354 51.5985C201.538 50.8614 202.457 50.4928 203.193 50.6771C203.929 50.8614 204.296 51.7828 204.112 52.5199C203.929 53.0727 203.377 53.4413 202.825 53.4413C202.457 53.6256 202.457 53.4413 202.274 53.4413ZM324.189 50.1242C323.638 49.5714 323.822 48.65 324.373 48.0972C324.925 47.5443 325.844 47.7286 326.396 48.2814C326.948 48.8343 326.764 49.7557 326.212 50.3085C326.028 50.4928 325.66 50.6771 325.293 50.6771C324.741 50.4928 324.373 50.3085 324.189 50.1242ZM204.48 47.1758C203.745 46.9915 203.377 46.0701 203.745 45.333C203.929 44.5958 204.848 44.2273 205.583 44.5958C206.319 44.7801 206.687 45.7015 206.319 46.4386C206.135 46.9915 205.583 47.36 205.032 47.36C204.664 47.1758 204.48 47.1758 204.48 47.1758ZM319.96 44.7801C319.408 44.2273 319.592 43.3059 320.144 42.753C320.695 42.2002 321.615 42.3845 322.167 42.9373C322.718 43.4902 322.534 44.4116 321.983 44.9644C321.799 45.1487 321.431 45.333 321.063 45.333C320.695 45.333 320.328 45.1487 319.96 44.7801ZM206.687 40.9102C205.951 40.5417 205.583 39.8045 205.951 39.0674C206.319 38.3303 207.055 37.9617 207.79 38.3303C208.526 38.6989 208.893 39.436 208.526 40.1731C208.342 40.7259 207.79 41.0945 207.238 41.0945C207.055 41.0945 206.871 41.0945 206.687 40.9102ZM315.731 39.6203C315.179 39.0674 315.363 38.146 315.914 37.5932C316.466 37.0403 317.386 37.2246 317.937 37.7775C318.489 38.3303 318.305 39.2517 317.753 39.8045C317.569 39.9888 317.202 40.1731 316.834 40.1731C316.466 40.1731 316.098 39.9888 315.731 39.6203ZM311.501 34.6447C310.95 34.0919 311.133 33.1705 311.685 32.6176C312.237 32.0648 313.156 32.2491 313.708 32.8019C314.26 33.3547 314.076 34.2761 313.524 34.829C313.34 35.0133 312.972 35.1975 312.605 35.1975C312.237 35.1975 311.685 35.0133 311.501 34.6447ZM209.445 34.829C208.71 34.4604 208.526 33.7233 208.893 32.9862C209.261 32.2491 209.997 32.0648 210.732 32.4333C211.468 32.8019 211.652 33.539 211.284 34.2761C211.1 34.829 210.548 35.0133 209.997 35.0133C209.997 35.0133 209.629 35.0133 209.445 34.829ZM307.088 29.6691C306.536 29.1163 306.536 28.1949 307.088 27.642C307.64 27.0892 308.559 27.0892 309.111 27.642C309.662 28.1949 309.662 29.1163 309.111 29.6691C308.927 29.8534 308.559 30.0377 308.191 30.0377C307.64 30.222 307.272 30.0377 307.088 29.6691ZM212.571 28.932C211.836 28.5634 211.652 27.642 212.019 27.0892C212.387 26.3521 213.307 26.1678 213.858 26.5364C214.594 26.9049 214.778 27.8263 214.41 28.3792C214.226 28.7477 213.674 29.1163 213.307 29.1163C213.123 29.1163 212.755 29.1163 212.571 28.932ZM302.491 25.0621C301.939 24.5093 301.939 23.5879 302.491 23.035C303.043 22.4822 303.962 22.4822 304.514 23.035C305.065 23.5879 305.065 24.5093 304.514 25.0621C304.33 25.4307 303.962 25.4307 303.594 25.4307C303.043 25.4307 302.675 25.2464 302.491 25.0621ZM216.249 23.4036C215.697 23.035 215.513 22.1136 215.881 21.3765C216.249 20.8237 217.168 20.6394 217.904 21.008C218.455 21.3765 218.639 22.2979 218.272 23.035C218.088 23.4036 217.536 23.5879 217.168 23.5879C216.8 23.5879 216.433 23.5879 216.249 23.4036ZM297.526 20.6394C296.974 20.0866 296.79 19.3494 297.342 18.6123C297.894 18.0595 298.629 18.0595 299.365 18.428C299.916 18.9809 299.916 19.718 299.549 20.4551C299.365 20.8237 298.813 21.008 298.445 21.008C298.078 20.8237 297.894 20.8237 297.526 20.6394ZM220.294 18.0595C219.743 17.5066 219.743 16.5852 220.11 16.0324C220.662 15.4795 221.581 15.4795 222.133 15.8481C222.685 16.4009 222.685 17.3223 222.317 17.8752C222.133 18.2437 221.581 18.428 221.214 18.428C220.846 18.428 220.478 18.2437 220.294 18.0595ZM292.561 16.4009C292.009 15.8481 291.826 15.111 292.193 14.3739C292.745 13.821 293.481 13.6367 294.216 14.0053C294.768 14.5581 294.952 15.2953 294.584 16.0324C294.4 16.4009 293.848 16.5852 293.481 16.5852C292.929 16.7695 292.745 16.5852 292.561 16.4009ZM224.891 13.2682C224.34 12.7153 224.524 11.7939 225.075 11.2411C225.627 10.6883 226.546 10.8725 227.098 11.4254C227.65 11.9782 227.466 12.8996 226.914 13.4525C226.73 13.6367 226.362 13.821 225.995 13.821C225.627 13.821 225.075 13.6367 224.891 13.2682ZM287.045 12.7153C286.309 12.3468 286.125 11.4254 286.677 10.8725C287.045 10.1354 287.964 9.95114 288.516 10.504C289.251 10.8725 289.435 11.7939 288.883 12.3468C288.7 12.7153 288.332 12.8996 287.78 12.8996C287.596 12.8996 287.228 12.8996 287.045 12.7153ZM230.04 9.02973C229.672 8.47689 229.856 7.55549 230.408 7.18693C230.96 6.81837 231.879 7.00265 232.247 7.55549C232.615 8.10833 232.431 9.02973 231.879 9.3983C231.695 9.58258 231.327 9.58257 231.143 9.58257C230.776 9.76686 230.408 9.3983 230.04 9.02973ZM281.344 9.58257C280.609 9.21402 280.425 8.47689 280.792 7.73977C281.16 7.00265 281.896 6.81837 282.631 7.18693C283.367 7.55549 283.551 8.29261 283.183 9.02973C282.999 9.58258 282.447 9.76686 281.896 9.76686C281.712 9.76686 281.528 9.58257 281.344 9.58257ZM275.46 6.81837C274.724 6.44981 274.356 5.71269 274.724 4.97557C275.092 4.23845 275.828 3.86989 276.563 4.23845C277.299 4.60701 277.666 5.34413 277.299 6.08125C277.115 6.63409 276.563 7.00265 276.011 7.00265C275.828 7.00265 275.644 7.00265 275.46 6.81837ZM235.741 5.71269C235.373 4.97557 235.741 4.23845 236.476 3.86989C237.212 3.50133 237.947 3.86989 238.315 4.60701C238.683 5.34413 238.315 6.08125 237.579 6.44981C237.396 6.44981 237.212 6.63409 237.028 6.63409C236.476 6.44981 236.108 6.26553 235.741 5.71269ZM269.208 4.79129C268.472 4.60701 268.104 3.86989 268.288 3.13277C268.472 2.39564 269.208 2.02708 269.943 2.21136C270.679 2.39564 271.047 3.13276 270.863 3.86989C270.679 4.42273 270.127 4.97557 269.575 4.97557C269.575 4.79129 269.392 4.79129 269.208 4.79129ZM241.993 3.13277C241.809 2.39564 242.177 1.65852 242.912 1.47424C243.648 1.28996 244.383 1.65852 244.567 2.39564C244.751 3.13277 244.383 3.86989 243.648 4.05417C243.464 4.05417 243.464 4.05417 243.28 4.05417C242.728 4.23845 242.177 3.86989 241.993 3.13277ZM262.956 3.31705C262.22 3.13277 261.668 2.39564 261.852 1.65852C262.036 0.921401 262.772 0.368561 263.507 0.552841C264.243 0.737121 264.794 1.47424 264.611 2.21136C264.427 2.94848 263.875 3.31705 263.323 3.31705C262.956 3.50133 262.956 3.50133 262.956 3.31705ZM248.429 1.8428C248.429 1.10568 248.98 0.368561 249.716 0.368561C250.451 0.368561 251.187 0.921401 251.187 1.65852C251.187 2.39564 250.635 3.13277 249.9 3.13277H249.716C249.164 2.94848 248.613 2.57992 248.429 1.8428ZM256.52 2.7642C255.784 2.7642 255.232 2.02708 255.232 1.28996C255.232 0.552841 255.968 0 256.704 0C257.439 0 257.991 0.737121 257.991 1.47424C257.807 2.21136 257.255 2.7642 256.52 2.7642Z" fill="#5C6BC0"/>
<path d="M494.65 255.965C486.927 273.656 495.938 293.558 497.041 312.908C497.225 317.331 497.041 321.753 496.305 326.176C495.202 333.363 492.995 340.366 489.686 346.815C488.766 348.843 487.663 350.685 486.376 352.528C481.962 359.531 476.446 365.796 469.826 370.772C468.907 371.509 467.987 372.062 467.068 372.799C464.309 374.642 461.367 376.485 458.241 377.959C454.931 382.934 451.621 386.989 448.311 390.858C447.576 391.596 446.84 392.517 446.105 393.254C443.163 396.387 439.853 399.335 435.991 402.468C434.152 402.468 432.13 402.468 430.291 402.1C422.751 400.994 416.132 397.124 410.247 391.78C409.144 390.858 408.224 389.937 407.305 388.831C406.937 388.463 406.386 387.91 406.018 387.541C405.65 387.173 405.282 386.62 404.915 386.251C404.547 385.883 404.363 385.699 403.995 385.33C400.869 381.644 397.927 377.59 395.536 373.536C390.388 365.059 385.79 356.029 384.503 346.078C383.216 336.311 385.423 325.439 392.41 318.436C401.972 308.854 418.338 307.195 425.142 295.586C432.129 283.607 424.958 268.128 428.452 254.86C431.946 241.776 444.634 233.667 456.586 227.586C468.539 221.321 481.595 214.871 487.663 202.893C490.053 197.917 491.157 192.573 493.547 187.597C495.938 182.806 500.535 178.199 505.867 178.199C513.039 178.199 517.636 185.57 519.475 192.573C522.785 205.288 520.578 219.478 513.407 230.535C507.706 239.38 498.88 246.198 494.65 255.965Z" fill="#5C6BC0"/>
<path opacity="0.3" d="M461.183 259.282L488.03 251.911C488.95 251.727 489.869 252.28 490.237 253.201C490.421 254.122 489.869 255.044 488.95 255.412L459.344 263.521C456.586 271.629 457.505 280.475 458.425 289.689C458.977 294.296 459.344 299.087 459.344 303.878C459.344 307.564 458.977 311.065 458.425 314.751C465.964 308.669 472.584 301.667 478.468 294.111C479.02 293.374 480.123 293.19 481.043 293.743C481.778 294.296 481.962 295.401 481.41 296.323C474.607 305.352 466.516 313.276 457.505 320.095L457.322 320.279C456.954 321.938 456.402 323.596 455.85 325.255C453.46 331.704 450.15 337.786 445.921 343.13C442.243 347.921 437.83 351.975 433.6 356.029C429.187 360.268 424.59 364.506 420.912 369.482C418.706 372.43 416.867 375.563 415.212 378.88C414.476 380.539 413.741 382.013 413.189 383.672C412.086 386.436 411.35 389.2 410.799 392.148C410.431 393.807 410.063 395.65 409.879 397.493C408.776 396.94 407.673 396.571 406.569 395.834C406.753 393.623 407.305 391.411 407.857 389.2C408.04 388.279 408.408 387.541 408.592 386.62C408.96 385.146 409.511 383.487 410.063 382.013C412.086 376.669 414.844 371.693 418.154 367.271C418.89 366.165 419.809 365.243 420.545 364.322C419.809 362.848 419.073 361.189 418.338 359.715C415.396 352.712 413.925 345.341 413.741 337.786C413.741 336.864 414.476 335.943 415.396 335.943C416.315 335.943 417.235 336.68 417.235 337.601C417.419 343.867 418.522 349.948 420.728 355.845C421.464 357.688 422.2 359.531 423.119 361.374C425.693 358.609 428.452 356.029 431.21 353.45C435.439 349.58 439.669 345.341 443.162 340.918C443.346 340.734 443.53 340.366 443.714 340.181C442.611 338.154 441.507 335.943 440.588 333.732C436.726 325.255 434.336 316.041 433.6 306.827C433.6 305.905 434.336 304.984 435.255 304.8C436.175 304.8 437.094 305.537 437.094 306.458C437.83 315.119 440.036 323.596 443.53 331.52C444.266 333.363 445.185 335.022 446.105 336.68C448.127 333.547 449.966 330.23 451.437 326.913C454.563 319.542 456.218 311.618 456.218 303.694C456.218 299.271 455.667 294.48 455.299 290.057C446.105 280.659 440.404 268.496 438.933 255.412C438.749 254.491 439.485 253.57 440.588 253.385C441.507 253.385 442.427 253.938 442.611 255.044C443.714 265.732 448.127 275.868 454.931 284.16C454.195 275.868 454.195 267.391 457.689 259.651C461.735 250.437 470.01 244.356 477.733 238.274C478.652 237.537 479.572 236.984 480.491 236.247L482.698 218.741C482.882 217.819 483.801 217.082 484.72 217.266C485.64 217.451 486.375 218.188 486.191 219.294L484.537 233.115C493.731 225.19 498.328 217.635 498.512 210.079C498.512 209.158 499.247 208.237 500.351 208.237C501.27 208.237 502.189 209.158 502.189 210.079C502.006 219.662 495.937 228.876 483.801 238.459C482.698 239.38 481.41 240.301 480.123 241.223C472.216 246.383 465.045 251.911 461.183 259.282Z" fill="#283593"/>
<path d="M542.093 330.415C526.646 353.634 508.626 376.853 484.169 390.121C470.01 397.861 452.908 402.468 436.359 402.284C434.52 402.284 432.497 402.284 430.658 402.1C423.487 401.547 416.315 399.888 409.695 397.124C408.592 396.571 407.489 396.203 406.386 395.466C404.914 394.728 403.627 393.991 402.34 393.07C402.892 391.78 403.443 390.49 403.995 389.2C404.363 388.279 404.731 387.173 405.282 386.252C405.65 385.514 405.834 384.777 406.202 384.04C409.879 375.563 413.741 367.086 418.338 359.162C419.074 357.872 419.809 356.582 420.729 355.292C422.935 351.975 425.326 348.658 427.9 345.526C431.578 341.103 435.807 336.864 440.588 333.363C441.508 332.626 442.611 331.889 443.53 331.336C446.105 329.677 448.679 328.203 451.253 326.729C452.725 325.992 454.196 325.255 455.851 324.702C461.735 322.491 467.803 321.201 474.239 321.385C481.962 321.569 489.318 323.596 496.673 325.992C500.535 327.282 504.396 328.572 508.074 329.677C519.107 333.363 531.427 335.39 542.093 330.415Z" fill="#9BB2F9"/>
<path opacity="0.3" d="M517.268 342.393C517.452 343.13 516.9 344.051 515.981 344.051C506.787 345.525 497.776 347.553 488.766 350.133L512.303 357.688C513.039 357.872 513.591 358.794 513.223 359.531C512.855 360.268 512.119 360.821 511.384 360.452L486.376 352.344L483.801 351.607C483.617 351.607 483.617 351.607 483.433 351.422C473.687 354.187 464.125 357.688 454.747 361.558C459.528 364.875 464.677 367.823 469.642 370.772C474.239 373.352 478.836 375.747 483.617 377.959C484.353 378.327 484.721 379.249 484.353 379.986C483.985 380.723 483.066 381.092 482.33 380.723C476.997 378.327 471.849 375.747 466.884 372.799C461.551 369.851 456.218 366.533 451.253 363.032C445.921 365.428 440.588 367.823 435.255 370.403C435.072 370.588 434.888 370.772 434.52 370.772C430.474 372.799 426.429 375.01 422.384 377.222C430.474 382.566 439.117 386.989 447.944 390.674C448.311 390.858 448.495 390.858 448.679 391.043C449.415 391.411 449.782 392.148 449.599 393.07C449.231 393.807 448.495 394.175 447.576 393.991C446.84 393.807 446.289 393.438 445.737 393.254C436.543 389.568 427.716 384.777 419.441 379.249C417.051 380.723 414.66 382.013 412.454 383.487C410.799 384.409 409.328 385.514 407.673 386.436C406.937 386.804 406.386 387.357 405.65 387.726C404.914 388.279 403.995 388.831 403.26 389.384C403.627 388.463 403.995 387.357 404.547 386.436C404.179 386.067 403.995 385.883 403.627 385.514C404.179 385.146 404.914 384.777 405.466 384.409C406.753 383.487 408.041 382.75 409.144 382.013C410.799 380.907 412.638 379.802 414.476 378.696C415.764 377.775 417.235 377.037 418.522 376.3C418.706 376.116 418.89 376.116 419.074 375.932C423.671 373.168 428.452 370.772 433.049 368.376C437.278 357.319 443.53 347 451.437 338.339C451.989 337.786 452.908 337.786 453.644 338.339C454.196 338.891 454.38 339.813 453.828 340.55C446.84 348.105 441.14 356.951 437.278 366.533C446.656 361.926 456.218 357.872 465.964 354.371C465.964 354.371 465.964 354.187 466.148 354.187C472.768 345.894 480.123 338.154 488.03 331.152C488.582 330.599 489.685 330.599 490.237 331.336C490.789 331.889 490.789 332.994 490.053 333.547C483.433 339.444 477.181 345.71 471.481 352.528C477.365 350.501 483.433 348.658 489.502 347.184C497.96 344.973 506.603 342.946 515.245 341.656C516.349 340.918 517.268 341.471 517.268 342.393Z" fill="#283593"/>
<path d="M184.253 361.742C180.207 373.168 172.668 382.935 164.393 391.78C160.531 396.018 156.118 400.073 151.337 403.758C150.969 404.127 150.418 404.311 150.05 404.68C149.498 405.048 148.947 405.601 148.395 405.97C147.843 406.338 147.108 406.891 146.556 407.26C145.085 408.181 143.798 409.102 142.327 410.024C134.052 414.815 125.226 417.948 116.215 417.395C113.825 417.395 111.434 417.026 109.228 416.474C109.228 416.474 109.228 416.474 109.228 416.289C105.366 411.498 102.24 407.26 99.4817 402.837C98.7461 401.731 98.0106 400.625 97.4589 399.52C94.3329 394.176 91.5746 388.463 88.6325 381.829C85.3225 379.249 82.1965 376.669 79.4382 373.536C78.5188 372.615 77.5994 371.509 76.6799 370.588C70.0601 363.032 64.9113 354.187 61.4175 344.789C60.4981 342.209 59.5786 339.629 58.8431 337.049C56.4526 328.572 55.5332 319.726 55.9009 310.881C56.0848 305.537 57.0042 300.008 58.2914 294.849C64.1757 272.182 79.9899 250.437 74.8411 227.586C72.0828 214.871 63.2563 204.551 58.4753 192.573C52.591 177.646 53.3265 160.324 60.3142 145.95C64.1757 138.21 71.5311 130.471 79.9899 132.129C86.6097 133.419 90.8391 139.869 92.494 146.319C94.149 152.768 94.149 159.587 95.804 166.037C100.033 181.885 114.009 192.757 126.881 203.077C139.752 213.397 152.808 226.112 153.728 242.513C154.647 259.282 142.511 276.052 147.843 291.9C153.176 307.564 172.484 313.461 181.494 327.098C188.114 336.864 188.298 350.317 184.253 361.742Z" fill="#5C6BC0"/>
<path opacity="0.3" d="M141.04 369.113C139.936 370.772 138.649 372.43 137.362 374.089C138.097 375.563 138.833 376.853 139.568 378.327C142.511 384.593 144.533 391.227 145.637 397.861C146.004 399.704 146.188 401.731 146.372 403.758C146.556 404.864 146.556 405.969 146.556 407.075C146.74 409.839 146.74 412.419 146.372 415.183C144.901 415.552 143.43 415.921 141.959 416.289C142.143 414.078 142.327 412.051 142.143 409.839C142.143 406.154 141.775 402.652 141.223 399.151C140.856 397.124 140.488 394.913 139.936 392.886C138.833 388.463 137.362 384.409 135.339 380.355C132.029 373.72 127.616 367.455 123.387 361.374C119.341 355.477 115.112 349.395 111.802 342.946C107.94 335.574 105.55 327.466 104.263 319.173C103.895 317.146 103.711 314.935 103.527 312.908L103.343 312.724C94.7005 302.22 86.9774 290.794 80.9091 278.263C80.3575 277.158 80.9091 275.868 81.8286 275.315C82.9319 274.762 84.2191 275.315 84.7707 276.42C89.9195 286.924 96.3555 296.876 103.711 305.905C103.895 301.483 104.263 297.06 105.182 292.821C106.285 287.109 108.124 281.58 109.779 276.052C113.089 265.179 116.399 254.86 114.928 244.54L81.6447 227.77C80.5414 227.218 80.1736 225.928 80.7253 224.822C81.2769 223.716 82.5641 223.348 83.6674 223.901L113.825 239.012C110.882 229.245 103.527 220.952 96.5394 213.028C95.2522 211.554 94.1489 210.264 92.8617 208.79C80.5414 194.6 75.7604 182.069 77.7831 170.459C77.967 169.354 79.0703 168.432 80.3575 168.616C81.4608 168.801 82.3802 169.906 82.0125 171.196C80.3575 180.41 84.0352 190.546 93.0456 202.155L94.3328 185.202C94.5166 184.096 95.4361 183.175 96.7233 183.175C97.8266 183.175 98.746 184.28 98.746 185.57L97.091 206.947C98.0105 208.052 98.9299 208.974 99.8493 210.08C107.756 219.109 116.031 228.508 118.789 240.486C120.996 250.621 118.973 260.572 116.215 270.339C126.329 262.231 133.868 250.99 137.914 238.643C138.281 237.537 139.568 236.8 140.672 237.169C141.775 237.537 142.327 238.827 142.143 239.933C137.362 255.044 127.248 268.312 114.192 277.342C112.537 282.686 110.882 288.03 109.779 293.374C107.94 302.957 107.94 312.724 109.963 322.306C110.882 326.729 112.17 331.152 113.825 335.206C115.296 333.363 116.767 331.52 118.054 329.493C124.122 320.832 128.719 311.249 131.661 301.114C132.029 300.008 133.132 299.271 134.42 299.64C135.523 300.008 136.259 301.114 135.891 302.404C132.765 313.277 127.616 323.596 120.996 332.81C119.341 335.206 117.502 337.417 115.663 339.629C115.847 339.997 116.031 340.181 116.215 340.55C119.341 346.816 123.57 352.712 127.616 358.425C130.19 362.111 132.765 365.981 135.339 369.851C136.81 367.823 138.281 365.796 139.568 363.769C143.43 357.319 146.372 350.133 148.027 342.761C148.211 341.656 149.498 340.919 150.602 341.103C151.705 341.287 152.44 342.577 152.257 343.683C149.866 353.081 146.188 361.558 141.04 369.113Z" fill="#283593"/>
<path d="M151.889 413.525C150.05 414.262 148.211 414.815 146.556 415.368C145.085 415.736 143.614 416.105 142.143 416.474C133.684 418.316 125.042 418.501 116.215 417.395C113.825 417.211 111.434 416.842 109.044 416.289C89.1842 412.604 69.8763 402.653 54.7977 390.121C28.6861 368.192 12.872 336.312 0 304.8C11.5848 313.092 26.8472 313.829 41.0064 312.355C45.7874 311.802 50.7523 311.25 55.5333 310.697C64.9114 309.591 74.2895 309.038 83.4838 310.697C91.0231 312.171 98.1946 315.119 104.631 319.174C106.286 320.279 107.94 321.385 109.595 322.675C112.538 324.886 115.296 327.282 117.686 330.046C118.79 331.152 119.709 332.257 120.629 333.363C125.41 338.707 129.455 344.604 132.765 350.87C135.155 355.293 137.178 359.715 138.833 364.322C139.569 365.981 140.12 367.639 140.672 369.482C144.35 379.986 146.924 391.043 149.315 402.1C149.499 403.021 149.682 403.943 149.866 404.864C150.05 406.154 150.418 407.444 150.602 408.55C151.337 410.208 151.705 411.867 151.889 413.525Z" fill="#9BB2F9"/>
<path opacity="0.3" d="M150.234 404.68C150.418 405.97 150.786 407.26 150.97 408.365C150.234 407.444 149.315 406.707 148.579 405.97C147.843 405.232 147.108 404.495 146.556 403.943C144.901 402.284 143.246 400.81 141.591 399.151C139.201 396.756 136.626 394.544 134.236 392.333C123.019 396.94 111.434 400.625 99.4817 402.837C98.7462 403.021 97.8267 403.205 97.0912 403.39C95.9879 403.574 95.0685 402.837 94.8846 401.915C94.7007 400.994 95.4362 399.888 96.3557 399.704C96.7234 399.704 97.0912 399.52 97.459 399.52C109.044 397.493 120.445 394.176 131.294 389.753C127.064 386.067 122.835 382.566 118.422 379.065C118.054 378.88 117.87 378.696 117.686 378.512C111.986 374.089 106.285 369.851 100.401 365.796C93.5974 368.745 86.4259 371.325 79.4382 373.721C72.8184 375.932 66.0146 377.775 59.027 379.433C58.1076 379.618 57.0043 379.065 56.8204 377.959C56.6365 377.038 57.1882 375.932 58.1076 375.748C64.3597 374.273 70.4279 372.615 76.4961 370.588C83.2998 368.376 90.1036 365.981 96.7234 363.217C86.4259 356.398 75.9444 349.948 64.9113 344.236C64.7274 344.236 64.5436 344.42 64.3597 344.42L61.2336 344.789L29.4215 348.106C28.3182 348.29 27.3988 347.553 27.3988 346.447C27.3988 345.341 27.9504 344.604 29.0538 344.42L59.027 341.103C48.9133 335.943 38.6158 331.336 27.9504 327.282C27.031 326.913 26.4794 325.808 26.8471 324.886C27.2149 323.965 28.3182 323.412 29.2376 323.781C39.3513 327.65 49.0972 331.889 58.6592 336.68C65.463 339.997 72.2667 343.683 78.8866 347.553C73.7378 338.154 67.6696 328.94 61.2336 320.279C60.682 319.542 60.682 318.252 61.6014 317.699C62.3369 317.146 63.6241 317.146 64.1758 318.068C72.0828 328.388 78.8866 339.444 84.9548 350.87C84.9548 350.87 84.9548 351.054 85.1387 351.238C95.9879 357.872 106.469 364.875 116.399 372.615C113.825 360.268 109.228 348.29 102.792 337.602C102.24 336.68 102.608 335.575 103.343 335.022C104.263 334.469 105.366 334.837 105.918 335.575C113.273 347.921 118.422 361.742 120.628 375.932C125.777 379.986 130.742 384.225 135.523 388.463C135.707 388.647 135.891 388.647 136.075 388.832C137.546 390.121 139.017 391.411 140.304 392.701C142.143 394.36 143.982 396.018 145.821 397.861C147.108 399.151 148.395 400.441 149.682 401.731C150.234 402.284 150.97 402.837 151.521 403.574C150.97 403.943 150.602 404.311 150.234 404.68Z" fill="#283593"/>
<path d="M358.943 224.453L352.508 231.272C350.669 233.299 350.301 236.432 351.772 238.827C353.611 241.592 356.553 243.803 359.679 244.171C364.46 244.909 369.425 242.144 371.632 237.906C372.919 235.326 373.838 231.088 373.47 228.323C373.287 225.559 371.448 222.611 368.689 222.058C365.379 221.505 362.253 224.638 358.943 224.453Z" fill="#FFC78F"/>
<path d="M379.906 55.6527C372.735 57.4955 364.828 56.9426 358.392 53.6256C351.772 50.3086 346.807 43.8587 345.704 36.4875C344.784 30.5906 348.278 25.615 352.324 21.1923C355.082 25.7993 360.415 28.932 365.747 29.1163C370.344 29.3006 374.941 27.4578 379.539 27.2735C386.342 27.0892 393.146 30.4063 396.824 36.119C399.95 40.726 403.811 46.0701 402.892 51.5985C402.34 54.7313 400.685 57.6798 399.214 60.444C397.008 64.3139 394.801 68.1837 392.594 72.2379C391.123 74.8178 389.652 77.582 387.262 79.6091C381.929 72.975 378.068 63.761 379.906 55.6527Z" fill="url(#paint0_linear)"/>
<path d="M358.024 91.2188C352.324 100.617 351.22 111.858 351.036 122.915C350.301 160.324 359.127 197.548 355.817 234.773C360.415 235.695 364.46 236.984 368.873 235.51C372.735 208.974 375.309 182.069 375.309 155.348C375.309 144.107 374.941 132.866 371.999 122.178C369.241 111.49 366.851 98.2214 358.024 91.2188Z" fill="#FFC78F"/>
<path d="M351.036 122.915C350.853 129.18 351.037 135.63 351.404 141.896C358.944 145.029 367.035 147.056 375.125 147.609C374.942 138.947 374.206 130.47 371.999 122.178C369.057 111.49 366.851 98.0371 358.024 91.2188C352.508 100.617 351.22 112.042 351.036 122.915Z" fill="url(#paint1_linear)"/>
<path opacity="0.3" d="M351.036 122.915C350.853 129.18 351.037 135.63 351.404 141.896C358.944 145.029 367.035 147.056 375.125 147.609C374.942 138.947 374.206 130.47 371.999 122.178C369.057 111.49 366.851 98.0371 358.024 91.2188C352.508 100.617 351.22 112.042 351.036 122.915Z" fill="#283593"/>
<path d="M304.697 391.964C304.697 391.043 304.514 390.122 304.697 389.384C304.881 388.647 305.249 387.726 305.985 387.173C306.904 386.436 308.375 386.436 309.478 386.436C313.524 386.436 317.753 385.146 321.063 382.935C324.557 380.723 328.419 377.959 329.154 373.905C329.338 372.799 329.706 371.694 330.625 370.956C331.361 370.219 332.648 369.851 333.567 370.219C334.487 370.588 335.222 371.878 334.671 372.983C337.429 373.721 340.371 373.352 342.762 371.878C343.313 372.246 343.681 372.984 343.681 373.536C343.681 374.273 343.313 374.826 343.313 375.563C342.946 377.406 343.313 379.433 343.865 381.46C344.417 383.303 345.336 385.146 345.704 387.173C346.072 389.016 346.072 391.227 345.152 392.886C339.268 394.36 333.2 394.544 327.131 394.729C319.408 394.729 312.053 394.544 304.697 391.964Z" fill="#283593"/>
<path d="M365.196 164.194C365.012 164.747 362.989 165.484 362.805 166.037C363.541 166.221 364.092 166.589 364.828 166.774C365.012 165.852 365.196 165.115 365.196 164.194Z" fill="url(#paint2_linear)"/>
<path d="M347.543 377.038C358.76 344.236 367.402 309.775 372.183 275.315C374.39 258.545 386.526 244.171 391.307 228.139C396.088 212.107 398.479 194.784 395.537 178.199C385.055 175.066 374.942 171.012 364.828 166.774C353.795 237.537 339.452 307.748 321.983 376.853H347.543V377.038Z" fill="url(#paint3_linear)"/>
<path opacity="0.3" d="M347.543 377.038C358.76 344.236 367.402 309.775 372.183 275.315C374.39 258.545 386.526 244.172 391.307 228.139C396.088 212.107 398.479 194.784 395.537 178.199C390.572 176.725 385.607 174.882 380.642 173.039C380.642 242.329 345.52 307.748 340.739 376.853H347.543V377.038Z" fill="#36207A"/>
<path d="M346.623 381.276H320.88C318.489 381.276 316.466 379.249 316.466 376.853V375.379C316.466 372.983 318.489 370.956 320.88 370.956H346.623C349.014 370.956 351.037 372.983 351.037 375.379V376.853C351.221 379.433 349.198 381.276 346.623 381.276Z" fill="url(#paint4_linear)"/>
<path d="M373.47 391.964C373.47 391.043 373.287 390.122 373.47 389.384C373.654 388.463 374.022 387.726 374.758 387.173C375.677 386.436 377.148 386.436 378.251 386.436C382.297 386.436 386.526 385.146 389.836 382.935C393.33 380.723 397.192 377.959 397.927 373.905C398.111 372.799 398.479 371.694 399.398 370.956C400.134 370.219 401.421 369.851 402.34 370.219C403.26 370.588 403.995 371.878 403.444 372.983C406.202 373.721 409.144 373.352 411.535 371.878C412.086 372.246 412.454 372.984 412.454 373.536C412.454 374.273 412.086 374.826 412.086 375.563C411.718 377.406 412.086 379.433 412.638 381.46C413.19 383.303 414.109 385.146 414.477 387.173C414.845 389.016 414.845 391.227 413.925 392.886C408.041 394.36 401.973 394.544 395.904 394.729C388.181 394.729 380.826 394.544 373.47 391.964Z" fill="#283593"/>
<path d="M376.596 165.299C385.423 235.326 390.572 305.721 392.227 376.116H415.58C418.89 339.076 418.338 300.561 413.006 263.889C410.615 248.226 418.338 231.64 418.706 215.792C419.074 199.944 416.683 183.727 409.512 169.538C398.111 169.722 386.342 168.801 374.941 167.879C374.758 167.142 376.596 165.852 376.596 165.299Z" fill="url(#paint5_linear)"/>
<path opacity="0.3" d="M415.58 376.116C418.89 339.076 418.338 300.561 413.006 263.889C410.615 248.226 418.338 231.64 418.706 215.792C419.074 199.944 416.683 183.727 409.512 169.538C405.466 169.538 401.421 169.538 397.192 169.354C400.134 213.028 403.076 256.518 406.202 300.193C407.857 325.623 409.696 351.238 405.834 376.3H415.58V376.116Z" fill="#36207A"/>
<path opacity="0.3" d="M409.512 169.354C398.663 169.538 387.813 168.616 376.964 167.879C377.148 169.169 377.332 170.459 377.516 171.934C373.286 170.275 369.057 168.616 364.828 166.774C364.46 169.354 363.908 172.118 363.541 174.698C378.067 187.782 397.743 195.153 417.419 194.784C415.948 186.123 413.373 177.462 409.512 169.354Z" fill="#283593"/>
<path d="M379.906 80.162C375.493 82.9262 370.344 84.4004 365.379 86.4275C360.598 88.4546 355.817 91.4031 353.243 96.1944C350.117 102.091 351.588 109.278 352.875 115.728C356.737 134.525 359.679 153.506 361.334 172.671C378.251 175.066 395.537 174.513 412.454 173.039C411.351 153.874 413.373 133.603 415.396 114.622C416.132 108.541 416.867 101.907 414.661 96.1944C412.27 89.9288 406.57 85.5061 400.318 83.1105C394.617 80.5305 386.526 80.8991 379.906 80.162Z" fill="url(#paint6_linear)"/>
<path opacity="0.3" d="M416.132 110.2C411.535 103.934 404.547 98.9585 397.008 96.9314C394.985 114.069 400.869 131.945 412.822 144.476C413.374 134.34 414.477 124.205 415.58 114.622C415.948 113.148 416.132 111.674 416.132 110.2Z" fill="#283593"/>
<path d="M374.574 67.6309C375.125 73.7121 375.309 79.9777 374.941 86.2432C379.722 86.9803 385.055 87.5331 389.652 86.6117C389.284 77.9506 388.917 69.4737 387.997 60.8125C383.216 61.7339 378.619 64.4981 374.574 67.6309Z" fill="#FFC78F"/>
<path opacity="0.3" d="M389.285 73.8964C389.101 69.4737 388.733 65.2352 388.365 60.8125C383.4 61.7339 378.803 64.3138 374.758 67.6309C375.309 73.5278 375.493 79.4248 375.125 85.3218C380.274 82.3733 385.055 78.5034 389.285 73.8964Z" fill="#283593"/>
<path d="M417.235 381.276H391.491C389.101 381.276 387.078 379.249 387.078 376.853V375.379C387.078 372.983 389.101 370.956 391.491 370.956H417.235C419.626 370.956 421.648 372.983 421.648 375.379V376.853C421.648 379.433 419.626 381.276 417.235 381.276Z" fill="url(#paint7_linear)"/>
<path d="M401.237 84.4005C415.948 89.3761 427.716 100.986 435.807 114.438C443.898 127.706 448.679 142.817 453.46 157.56C445.921 174.145 432.681 187.966 416.132 195.522C413.557 194.416 411.719 191.836 410.615 189.256C416.316 187.229 420.361 180.963 423.303 175.619C426.797 168.985 430.291 162.535 433.969 155.901C419.074 140.422 409.328 119.229 405.65 98.2215C402.524 94.7202 401.789 88.8232 401.237 84.4005Z" fill="#FFC78F"/>
<path d="M435.808 114.254C427.717 100.986 415.948 89.1916 401.237 84.2161C401.789 88.6388 391.859 94.5358 394.985 98.0371C397.376 111.49 407.857 125.126 419.994 137.105C427.349 132.129 433.417 125.311 437.647 117.387C437.095 116.465 436.543 115.359 435.808 114.254Z" fill="url(#paint8_linear)"/>
<path d="M366.115 44.4116C365.747 50.3086 365.38 56.2055 366.483 62.1025C367.586 67.8152 370.344 73.5279 375.125 77.0292C381.378 75.9235 387.446 72.0536 390.572 66.5252C393.882 61.1811 394.985 54.547 394.801 48.2815C394.617 44.5959 393.882 40.9103 391.491 38.3303C388.733 35.3819 384.136 35.0133 380.09 35.3819C374.758 36.119 366.483 38.8832 366.115 44.4116Z" fill="#FFC78F"/>
<path d="M358.208 48.65C365.012 53.0727 374.574 53.257 381.561 48.8342C383.216 51.0456 385.607 52.1513 388.181 52.5199C387.814 55.0998 387.262 57.6797 386.894 60.0753C387.446 60.2596 388.181 60.0753 388.549 59.8911C387.997 57.3111 388.733 54.7312 390.388 52.8884C390.756 52.5199 391.307 51.967 391.859 52.1513C392.411 52.3356 392.595 52.7041 392.778 53.257C393.698 55.4683 393.146 58.2325 392.043 60.2596C390.94 62.471 389.101 64.1295 387.446 65.9723C388.181 69.1051 388.733 72.4221 389.468 75.5549C392.595 70.9479 395.353 66.1566 397.192 60.8125C399.03 55.4683 399.398 49.5714 397.743 44.2272C396.088 38.8831 391.859 34.2761 386.342 32.6176C381.561 31.3276 376.413 32.4333 371.999 34.8289C366.115 37.7774 361.518 42.9373 358.208 48.65Z" fill="url(#paint9_linear)"/>
<path d="M413.557 187.966C412.638 188.703 411.535 188.703 410.431 188.519C409.328 188.335 408.225 187.966 407.121 188.334C405.65 188.703 404.547 190.177 403.628 191.467C402.708 192.757 400.685 194.047 399.582 195.337C398.479 196.627 397.927 198.286 398.295 199.76C398.663 201.234 399.95 202.524 401.421 203.077C402.892 203.63 404.547 203.63 406.202 203.63C409.144 203.261 411.902 202.34 414.293 200.497C416.683 198.654 418.338 196.259 419.074 193.31C417.419 191.652 415.58 189.256 413.557 187.966Z" fill="#FFC78F"/>
<path d="M301.204 315.672C301.02 315.672 300.836 315.672 300.468 315.672C297.894 315.304 296.239 312.908 296.606 310.512L314.259 189.993C316.834 172.302 332.28 159.034 350.117 159.034C352.691 159.034 354.714 161.061 354.714 163.641C354.714 166.221 352.691 168.248 350.117 168.248C336.877 168.248 325.292 178.199 323.454 191.467L305.801 311.987C305.433 314.014 303.41 315.672 301.204 315.672Z" fill="white"/>
<g opacity="0.3">
<path opacity="0.3" d="M301.204 315.672C301.02 315.672 300.836 315.672 300.468 315.672C297.894 315.304 296.239 312.908 296.606 310.512L314.259 189.993C316.834 172.302 332.28 159.034 350.117 159.034C352.691 159.034 354.714 161.061 354.714 163.641C354.714 166.221 352.691 168.248 350.117 168.248C336.877 168.248 325.292 178.199 323.454 191.467L305.801 311.987C305.433 314.014 303.41 315.672 301.204 315.672Z" fill="#283593"/>
</g>
<path d="M256.152 197.364H223.972V179.858C223.972 171.012 231.143 163.641 240.154 163.641C248.98 163.641 256.336 170.828 256.336 179.858V197.364H256.152ZM228.201 193.126H252.106V179.858C252.106 173.223 246.774 167.879 240.154 167.879C233.534 167.879 228.201 173.223 228.201 179.858V193.126Z" fill="url(#paint10_linear)"/>
<g opacity="0.1">
<path opacity="0.1" d="M256.152 197.364H223.972V179.858C223.972 171.012 231.143 163.641 240.154 163.641C248.98 163.641 256.336 170.828 256.336 179.858V197.364H256.152ZM228.201 193.126H252.106V179.858C252.106 173.223 246.774 167.879 240.154 167.879C233.534 167.879 228.201 173.223 228.201 179.858V193.126Z" fill="url(#paint11_linear)"/>
</g>
<path d="M302.675 310.697H177.633L193.263 185.755H287.045L302.675 310.697Z" fill="url(#paint12_linear)"/>
<path d="M302.675 310.697H177.633L193.263 185.755H287.045L302.675 310.697Z" fill="#FFD200"/>
<path opacity="0.2" d="M180.943 282.87L177.633 310.697H302.675L299.181 282.87H180.943Z" fill="url(#paint13_linear)"/>
<path d="M230.224 310.697L243.096 207.868H320.144L333.016 310.697H230.224Z" fill="url(#paint14_linear)"/>
<path d="M294.768 217.451H268.288V203.077C268.288 195.706 274.172 189.809 281.528 189.809C288.883 189.809 294.768 195.706 294.768 203.077V217.451ZM271.782 213.949H291.458V203.077C291.458 197.548 287.044 193.126 281.528 193.126C276.011 193.126 271.598 197.548 271.598 203.077V213.949H271.782Z" fill="url(#paint15_linear)"/>
<g opacity="0.3">
<path opacity="0.3" d="M294.768 217.451H268.288V203.077C268.288 195.706 274.172 189.809 281.528 189.809C288.883 189.809 294.768 195.706 294.768 203.077V217.451ZM271.782 213.949H291.458V203.077C291.458 197.548 287.044 193.126 281.528 193.126C276.011 193.126 271.598 197.548 271.598 203.077V213.949H271.782Z" fill="#283593"/>
</g>
<path opacity="0.3" d="M232.982 287.846L230.224 310.697H333.016L330.073 287.846H232.982Z" fill="#283593"/>
<path d="M255.968 394.544C262.772 394.544 268.288 389.016 268.288 382.197C268.288 375.378 262.772 369.851 255.968 369.851C249.163 369.851 243.647 375.378 243.647 382.197C243.647 389.016 249.163 394.544 255.968 394.544Z" fill="#FFD200"/>
<path d="M244.751 364.691L250.635 383.856C251.371 386.251 253.577 387.91 256.152 387.91C259.278 387.91 261.852 385.33 261.852 382.197V364.691H244.751Z" fill="white"/>
<path opacity="0.3" d="M244.751 364.691L250.635 383.856C251.371 386.251 253.577 387.91 256.152 387.91C259.278 387.91 261.852 385.33 261.852 382.197V364.691H244.751Z" fill="#283593"/>
<path d="M283.367 368.929H149.498C146.924 368.929 144.901 366.902 144.901 364.322C144.901 361.742 146.924 359.715 149.498 359.715H283.367C288.883 359.715 294.032 357.135 297.526 352.897C301.02 348.474 302.123 342.946 300.836 337.417L294.768 311.986C294.216 309.591 295.687 307.011 298.261 306.458C300.652 305.905 303.226 307.379 303.778 309.959L309.846 335.39C311.869 343.498 310.03 352.16 304.697 358.609C299.549 365.244 291.642 368.929 283.367 368.929Z" fill="white"/>
<g opacity="0.3">
<path opacity="0.3" d="M283.367 368.929H149.498C146.924 368.929 144.901 366.902 144.901 364.322C144.901 361.742 146.924 359.715 149.498 359.715H283.367C288.883 359.715 294.032 357.135 297.526 352.897C301.02 348.474 302.123 342.946 300.836 337.417L294.768 311.986C294.216 309.591 295.687 307.011 298.261 306.458C300.652 305.905 303.226 307.379 303.778 309.959L309.846 335.39C311.869 343.498 310.03 352.16 304.697 358.609C299.549 365.244 291.642 368.929 283.367 368.929Z" fill="#283593"/>
</g>
<path d="M338.349 315.672H203.929C201.722 315.672 199.699 314.014 199.331 311.802L186.643 223.532C186.459 222.242 186.827 220.952 187.747 219.846C188.666 218.925 189.953 218.188 191.241 218.188H351.22C352.508 218.188 353.795 218.741 354.714 219.846C355.634 220.768 356.001 222.242 355.818 223.532L343.13 311.802C342.578 313.829 340.555 315.672 338.349 315.672ZM207.974 306.274H334.487L345.888 227.218H196.573L207.974 306.274Z" fill="white"/>
<path d="M235.557 315.672H173.036C170.829 315.672 168.807 314.014 168.439 311.802L152.992 223.532C152.809 222.242 153.176 220.768 153.912 219.846C154.831 218.741 156.118 218.188 157.406 218.188H222.685C224.891 218.188 226.914 219.846 227.282 222.058L239.97 310.328C240.154 311.618 239.786 312.908 238.867 314.014C238.131 314.935 236.844 315.672 235.557 315.672ZM176.897 306.274H230.224L218.823 227.218H162.922L176.897 306.274Z" fill="white"/>
<path d="M322.35 368.929H188.482C185.908 368.929 183.885 366.902 183.885 364.322C183.885 361.742 185.908 359.715 188.482 359.715H322.35C327.867 359.715 333.016 357.135 336.51 352.897C340.003 348.474 341.107 342.946 339.819 337.417L333.751 311.986C333.2 309.591 334.671 307.011 337.245 306.458C339.636 305.905 342.21 307.379 342.762 309.959L348.83 335.39C350.853 343.498 349.014 352.16 343.681 358.609C338.532 365.244 330.809 368.929 322.35 368.929Z" fill="white"/>
<path d="M338.349 315.672C338.165 315.672 337.981 315.672 337.613 315.672C335.039 315.304 333.384 312.908 333.751 310.512L351.404 189.993C353.979 172.302 369.425 159.034 387.262 159.034C389.836 159.034 391.859 161.061 391.859 163.641C391.859 166.221 389.836 168.248 387.262 168.248C374.022 168.248 362.438 178.199 360.599 191.467L342.946 311.987C342.578 314.014 340.555 315.672 338.349 315.672Z" fill="white"/>
<path d="M214.042 394.544C220.846 394.544 226.362 389.016 226.362 382.197C226.362 375.378 220.846 369.851 214.042 369.851C207.238 369.851 201.722 375.378 201.722 382.197C201.722 389.016 207.238 394.544 214.042 394.544Z" fill="#FFD200"/>
<path d="M203.009 364.691L208.893 383.856C209.629 386.251 211.835 387.91 214.41 387.91C217.536 387.91 220.11 385.33 220.11 382.197V364.691H203.009Z" fill="white"/>
<path d="M296.606 394.544C303.411 394.544 308.927 389.016 308.927 382.197C308.927 375.378 303.411 369.851 296.606 369.851C289.802 369.851 284.286 375.378 284.286 382.197C284.286 389.016 289.802 394.544 296.606 394.544Z" fill="#FFD200"/>
<path d="M285.39 364.691L291.274 383.856C292.009 386.251 294.216 387.91 296.79 387.91C299.917 387.91 302.491 385.33 302.491 382.197V364.691H285.39Z" fill="white"/>
<path d="M173.404 394.544C180.208 394.544 185.724 389.016 185.724 382.197C185.724 375.378 180.208 369.851 173.404 369.851C166.599 369.851 161.083 375.378 161.083 382.197C161.083 389.016 166.599 394.544 173.404 394.544Z" fill="#FFD200"/>
<path d="M162.37 364.691L168.255 383.856C168.99 386.251 171.197 387.91 173.771 387.91C176.897 387.91 179.472 385.33 179.472 382.197V364.691H162.37Z" fill="white"/>
<path opacity="0.3" d="M162.37 364.691L168.255 383.856C168.99 386.251 171.197 387.91 173.771 387.91C176.897 387.91 179.472 385.33 179.472 382.197V364.691H162.37Z" fill="#283593"/>
<path d="M345.704 241.407H160.716V250.253H345.704V241.407Z" fill="white"/>
<path d="M345.704 262.415H160.716V271.261H345.704V262.415Z" fill="white"/>
<path d="M345.704 283.423H165.129V292.269H345.704V283.423Z" fill="white"/>
<path d="M123.019 133.05C126.881 122.731 138.282 117.387 148.579 121.256C158.877 125.126 164.209 136.552 160.348 146.871C156.486 157.191 145.085 162.535 134.788 158.665C124.49 154.795 119.158 143.37 123.019 133.05Z" fill="#FFC000"/>
<path d="M129.087 135.262C131.662 128.259 139.385 124.758 146.373 127.338C153.36 129.917 156.854 137.657 154.28 144.66C151.705 151.663 143.982 155.164 136.995 152.584C130.007 150.004 126.513 142.264 129.087 135.262Z" fill="#FFC000"/>
<path d="M140.12 131.392C143.246 130.839 146.005 131.945 146.924 134.893L142.695 135.999C142.327 135.077 141.775 134.525 140.856 134.525L141.775 138.21C144.35 138.21 147.66 138.21 148.579 141.896C149.315 144.844 147.292 147.056 144.166 147.977L144.534 149.82L143.063 150.188L142.695 148.346C139.385 148.899 136.994 147.793 136.075 144.844L140.304 143.739C140.672 144.66 141.224 145.029 141.959 145.029L141.04 141.527C138.465 141.527 135.156 141.527 134.236 138.026C133.684 135.446 135.156 132.866 138.649 131.76L138.282 129.918L139.753 129.549L140.12 131.392ZM142.511 141.712L143.246 144.844C143.982 144.476 144.534 143.923 144.166 143.002C144.166 142.08 143.43 141.712 142.511 141.712ZM140.12 138.026L139.385 134.709C138.465 135.077 138.098 135.815 138.282 136.736C138.465 137.657 139.201 137.842 140.12 138.026Z" fill="#FFC000"/>
<path d="M541.173 150.741H480.675C475.71 150.741 471.849 146.687 471.849 141.896V103.566C471.849 98.59 475.894 94.7201 480.675 94.7201H541.173C546.138 94.7201 550 98.7743 550 103.566V141.896C550 146.871 546.138 150.741 541.173 150.741Z" fill="#E0E3FE"/>
<path d="M541.173 94.7201H480.675C475.71 94.7201 471.849 98.7743 471.849 103.566V105.224H550.184V103.566C550 98.59 546.138 94.7201 541.173 94.7201Z" fill="url(#paint16_linear)"/>
<path d="M537.312 143.002C537.312 142.817 537.312 142.817 537.128 142.633C535.841 139.684 534.554 136.552 532.347 134.156C530.14 131.76 527.014 129.918 523.704 130.286C518.923 130.839 515.246 135.815 510.281 135.446C506.971 135.262 504.396 132.313 502.742 129.549C501.087 126.601 500.167 123.284 498.144 120.704C494.651 116.097 487.847 114.254 482.514 116.465V143.002H537.312Z" fill="url(#paint17_linear)"/>
<path d="M526.279 143.002C526.095 143.002 526.095 142.817 526.279 143.002C525.176 141.343 524.072 139.869 522.417 138.763C520.762 137.473 518.188 136.736 515.614 136.92C511.752 137.105 508.81 139.684 504.948 139.5C502.374 139.316 500.351 138.026 499.064 136.552C497.777 135.078 497.041 133.419 495.386 132.129C492.628 129.918 487.111 128.996 482.882 130.102V143.186H526.279V143.002Z" fill="url(#paint18_linear)"/>
<path d="M518.923 143.002C518.923 142.817 518.923 142.817 518.923 142.633C518.004 139.869 517.268 137.105 515.797 134.893C514.326 132.682 512.303 131.023 510.097 131.392C506.971 131.945 504.396 136.367 501.27 135.999C499.064 135.815 497.409 133.235 496.305 130.655C495.202 128.075 494.651 125.126 493.179 122.731C490.789 118.492 486.376 116.834 482.698 118.861V143.002H518.923Z" fill="url(#paint19_linear)"/>
<path opacity="0.5" d="M542.645 143.186H482.33V111.305H482.882V142.817H542.645V143.186Z" fill="#283593"/>
<path d="M204.296 35.3817L208.342 49.9399C208.893 51.7827 209.996 53.2569 211.468 54.1783L253.577 79.9776C256.887 82.0047 261.3 81.0832 263.507 77.5819L274.356 59.891C276.379 56.574 275.46 52.1512 271.966 49.9399L229.856 24.1406C228.385 23.2192 226.362 22.8507 224.707 23.2192L209.813 26.1677C205.583 27.2734 203.193 31.3276 204.296 35.3817ZM212.203 34.0918C213.123 32.6175 214.961 32.0647 216.432 32.9861C217.904 33.9075 218.455 35.7503 217.536 37.2245C216.616 38.6988 214.777 39.2516 213.306 38.3302C211.835 37.4088 211.284 35.566 212.203 34.0918Z" fill="url(#paint20_linear)"/>
</g>
<defs>
<linearGradient id="paint0_linear" x1="353.204" y1="18.8276" x2="400.517" y2="70.7031" gradientUnits="userSpaceOnUse">
<stop stop-color="#FF9100"/>
<stop offset="1" stop-color="#FFC400"/>
</linearGradient>
<linearGradient id="paint1_linear" x1="349.225" y1="121.379" x2="372.679" y2="118.9" gradientUnits="userSpaceOnUse">
<stop offset="0.2169" stop-color="#C5CDFD"/>
<stop offset="0.4445" stop-color="#C1CAFC"/>
<stop offset="0.6564" stop-color="#B6C0F8"/>
<stop offset="0.8614" stop-color="#A3AFF2"/>
<stop offset="0.9153" stop-color="#9DAAF0"/>
</linearGradient>
<linearGradient id="paint2_linear" x1="362.866" y1="165.48" x2="365.248" y2="165.48" gradientUnits="userSpaceOnUse">
<stop offset="0.2222" stop-color="#283593"/>
<stop offset="0.3979" stop-color="#2D3A97"/>
<stop offset="0.6141" stop-color="#3C49A4"/>
<stop offset="0.8508" stop-color="#5462B9"/>
<stop offset="0.9206" stop-color="#5C6BC0"/>
</linearGradient>
<linearGradient id="paint3_linear" x1="322.038" y1="271.908" x2="396.773" y2="271.908" gradientUnits="userSpaceOnUse">
<stop offset="0.2222" stop-color="#283593"/>
<stop offset="0.3979" stop-color="#2D3A97"/>
<stop offset="0.6141" stop-color="#3C49A4"/>
<stop offset="0.8508" stop-color="#5462B9"/>
<stop offset="0.9206" stop-color="#5C6BC0"/>
</linearGradient>
<linearGradient id="paint4_linear" x1="323.85" y1="386.122" x2="343.8" y2="366.215" gradientUnits="userSpaceOnUse">
<stop offset="0.2222" stop-color="#283593"/>
<stop offset="0.3979" stop-color="#2D3A97"/>
<stop offset="0.6141" stop-color="#3C49A4"/>
<stop offset="0.8508" stop-color="#5462B9"/>
<stop offset="0.9206" stop-color="#5C6BC0"/>
</linearGradient>
<linearGradient id="paint5_linear" x1="341.62" y1="325.362" x2="453.557" y2="213.665" gradientUnits="userSpaceOnUse">
<stop offset="0.2222" stop-color="#283593"/>
<stop offset="0.3979" stop-color="#2D3A97"/>
<stop offset="0.6141" stop-color="#3C49A4"/>
<stop offset="0.8508" stop-color="#5462B9"/>
<stop offset="0.9206" stop-color="#5C6BC0"/>
</linearGradient>
<linearGradient id="paint6_linear" x1="335.433" y1="93.587" x2="432.814" y2="164.952" gradientUnits="userSpaceOnUse">
<stop offset="0.2169" stop-color="#C5CDFD"/>
<stop offset="0.4445" stop-color="#C1CAFC"/>
<stop offset="0.6564" stop-color="#B6C0F8"/>
<stop offset="0.8614" stop-color="#A3AFF2"/>
<stop offset="0.9153" stop-color="#9DAAF0"/>
</linearGradient>
<linearGradient id="paint7_linear" x1="394.336" y1="386.122" x2="414.286" y2="366.215" gradientUnits="userSpaceOnUse">
<stop offset="0.2222" stop-color="#283593"/>
<stop offset="0.3979" stop-color="#2D3A97"/>
<stop offset="0.6141" stop-color="#3C49A4"/>
<stop offset="0.8508" stop-color="#5462B9"/>
<stop offset="0.9206" stop-color="#5C6BC0"/>
</linearGradient>
<linearGradient id="paint8_linear" x1="354.354" y1="67.7679" x2="451.735" y2="139.133" gradientUnits="userSpaceOnUse">
<stop offset="0.2169" stop-color="#C5CDFD"/>
<stop offset="0.4445" stop-color="#C1CAFC"/>
<stop offset="0.6564" stop-color="#B6C0F8"/>
<stop offset="0.8614" stop-color="#A3AFF2"/>
<stop offset="0.9153" stop-color="#9DAAF0"/>
</linearGradient>
<linearGradient id="paint9_linear" x1="353.632" y1="18.4376" x2="400.945" y2="70.3131" gradientUnits="userSpaceOnUse">
<stop stop-color="#FF9100"/>
<stop offset="1" stop-color="#FFC400"/>
</linearGradient>
<linearGradient id="paint10_linear" x1="223.966" y1="180.49" x2="256.207" y2="180.49" gradientUnits="userSpaceOnUse">
<stop stop-color="#FF9100"/>
<stop offset="1" stop-color="#FFC400"/>
</linearGradient>
<linearGradient id="paint11_linear" x1="223.966" y1="180.49" x2="256.207" y2="180.49" gradientUnits="userSpaceOnUse">
<stop stop-color="#FF9100"/>
<stop offset="1" stop-color="#FFC400"/>
</linearGradient>
<linearGradient id="paint12_linear" x1="177.545" y1="248.179" x2="302.628" y2="248.179" gradientUnits="userSpaceOnUse">
<stop stop-color="#FF9100"/>
<stop offset="1" stop-color="#FFC400"/>
</linearGradient>
<linearGradient id="paint13_linear" x1="177.546" y1="296.774" x2="302.628" y2="296.774" gradientUnits="userSpaceOnUse">
<stop stop-color="#FF9100"/>
<stop offset="1" stop-color="#FFC400"/>
</linearGradient>
<linearGradient id="paint14_linear" x1="230.167" y1="259.281" x2="333.026" y2="259.281" gradientUnits="userSpaceOnUse">
<stop offset="0.2169" stop-color="#C5CDFD"/>
<stop offset="0.4445" stop-color="#C1CAFC"/>
<stop offset="0.6564" stop-color="#B6C0F8"/>
<stop offset="0.8614" stop-color="#A3AFF2"/>
<stop offset="0.9153" stop-color="#9DAAF0"/>
</linearGradient>
<linearGradient id="paint15_linear" x1="268.34" y1="203.619" x2="294.852" y2="203.619" gradientUnits="userSpaceOnUse">
<stop offset="0.2169" stop-color="#C5CDFD"/>
<stop offset="0.4445" stop-color="#C1CAFC"/>
<stop offset="0.6564" stop-color="#B6C0F8"/>
<stop offset="0.8614" stop-color="#A3AFF2"/>
<stop offset="0.9153" stop-color="#9DAAF0"/>
</linearGradient>
<linearGradient id="paint16_linear" x1="471.748" y1="99.929" x2="550.044" y2="99.929" gradientUnits="userSpaceOnUse">
<stop offset="0.2169" stop-color="#C5CDFD"/>
<stop offset="0.4445" stop-color="#C1CAFC"/>
<stop offset="0.6564" stop-color="#B6C0F8"/>
<stop offset="0.8614" stop-color="#A3AFF2"/>
<stop offset="0.9153" stop-color="#9DAAF0"/>
</linearGradient>
<linearGradient id="paint17_linear" x1="482.634" y1="129.275" x2="537.246" y2="129.275" gradientUnits="userSpaceOnUse">
<stop offset="0.2169" stop-color="#C5CDFD"/>
<stop offset="0.4445" stop-color="#C1CAFC"/>
<stop offset="0.6564" stop-color="#B6C0F8"/>
<stop offset="0.8614" stop-color="#A3AFF2"/>
<stop offset="0.9153" stop-color="#9DAAF0"/>
</linearGradient>
<linearGradient id="paint18_linear" x1="482.634" y1="136.255" x2="526.199" y2="136.255" gradientUnits="userSpaceOnUse">
<stop offset="0.2169" stop-color="#C5CDFD"/>
<stop offset="0.4445" stop-color="#C1CAFC"/>
<stop offset="0.6564" stop-color="#B6C0F8"/>
<stop offset="0.8614" stop-color="#A3AFF2"/>
<stop offset="0.9153" stop-color="#9DAAF0"/>
</linearGradient>
<linearGradient id="paint19_linear" x1="482.634" y1="130.564" x2="518.961" y2="130.564" gradientUnits="userSpaceOnUse">
<stop offset="0.2169" stop-color="#C5CDFD"/>
<stop offset="0.4445" stop-color="#C1CAFC"/>
<stop offset="0.6564" stop-color="#B6C0F8"/>
<stop offset="0.8614" stop-color="#A3AFF2"/>
<stop offset="0.9153" stop-color="#9DAAF0"/>
</linearGradient>
<linearGradient id="paint20_linear" x1="268.794" y1="68.8811" x2="204.978" y2="29.7856" gradientUnits="userSpaceOnUse">
<stop stop-color="#FF9100"/>
<stop offset="1" stop-color="#FFC400"/>
</linearGradient>
<clipPath id="clip0">
<rect width="550" height="417" fill="white"/>
</clipPath>
</defs>
</svg>
