<svg width="550" height="512" viewBox="0 0 550 512" fill="none" xmlns="http://www.w3.org/2000/svg">
<g clip-path="url(#clip0)">
<path d="M526.746 102.144C517.358 81.4594 498.798 63.7601 475.97 59.4952C448.235 54.3774 420.927 69.5177 398.739 86.1508C376.552 102.784 355.004 122.616 327.696 129.226C278.84 141.168 229.985 108.328 179.422 105.769C146.354 104.277 113.072 116.645 89.6044 138.822C2.13351 221.774 40.5354 386.186 134.833 428.408C210.997 462.527 320.016 479.374 389.779 434.805C456.342 392.37 522.905 262.717 533.573 186.589C534.426 180.618 535.066 174.647 535.493 168.676C537.199 146.072 536.133 122.829 526.746 102.144Z" fill="#E3E8FF"/>
<path d="M129.073 258.879C125.873 266.129 122.886 275.938 121.393 285.748L113.499 249.496C123.526 252.908 143.58 228.598 151.047 212.391C158.514 195.972 153.821 177.419 146.994 174.647C142.3 172.728 123.313 179.978 115.846 196.398C112.432 204.075 109.445 214.95 108.379 224.973L100.272 188.295C100.485 188.295 100.485 188.082 100.698 188.082C107.525 189.574 120.966 173.368 125.873 162.492C130.993 151.19 127.793 138.609 123.099 136.69C119.899 135.41 106.885 140.315 101.765 151.617C99.4183 156.735 97.4982 164.198 96.6448 171.235L91.3112 146.712C91.5245 146.712 91.7379 146.712 91.9512 146.712C97.0715 145.219 96.8581 129.439 94.5114 120.91C92.1646 112.38 84.4842 107.049 81.0707 108.115C78.7239 108.755 73.817 117.498 76.3771 126.027C78.5106 133.918 85.7643 145.859 90.6712 146.712C91.9512 153.749 93.4446 162.919 95.3647 173.581C90.2445 168.037 83.2041 162.706 77.6572 159.933C66.7767 154.176 53.9761 156.948 51.8426 161.426C50.3492 164.411 54.6161 177.846 65.71 183.39C74.6704 188.082 90.8845 191.92 98.3515 189.574C100.912 204.288 103.685 220.921 106.672 237.768C100.272 227.532 85.3376 214.95 74.0304 209.193C58.0296 200.876 39.2553 204.715 36.0552 211.325C33.9217 215.803 40.1087 235.209 56.3228 243.525C72.1103 251.628 102.832 258.239 108.805 249.496C112.006 268.688 115.419 287.88 118.406 305.153C110.939 293.638 94.298 279.99 81.9241 273.379C63.7899 263.997 42.4555 268.262 38.8287 275.938C36.2685 281.056 43.5222 303.02 61.8698 312.403C79.5773 321.573 113.712 328.823 121.179 319.653C126.086 348.015 129.713 367.847 129.926 368.06L139.527 364.222L129.926 319.867C141.66 320.08 162.568 294.704 170.462 277.218C178.995 258.452 173.449 237.554 165.768 234.356C159.154 232.01 137.607 240.327 129.073 258.879Z" fill="white"/>
<path d="M438.208 155.029C431.808 159.72 424.341 166.757 418.154 174.434L429.461 139.035C436.501 146.925 466.156 135.837 480.45 125.388C495.171 114.725 500.291 96.3865 495.597 90.6289C492.611 86.5772 472.343 83.5918 457.622 94.0408C450.795 98.9454 442.901 107.049 436.928 115.152L448.235 79.3269C448.448 79.3269 448.448 79.3269 448.662 79.3269C453.995 84.0183 473.623 76.768 483.223 69.7309C493.251 62.4806 496.664 49.8992 493.677 46.0608C491.544 43.2886 477.89 41.1561 467.863 48.4065C463.169 51.8184 457.835 57.1495 453.569 62.6938L461.249 38.8105C461.462 38.8105 461.676 39.0237 461.889 39.0237C467.009 40.3032 474.69 26.4423 476.823 17.9125C478.957 9.38272 475.116 0.852938 471.489 0.213204C469.143 -0.213285 460.609 4.90458 458.475 13.4344C456.555 21.3244 456.769 35.1853 460.609 38.5972C458.049 45.2078 454.849 53.9508 451.222 64.1866C449.515 56.9362 446.102 48.8329 442.688 43.5018C436.074 33.0529 423.701 29.0012 419.434 31.9866C416.66 33.9058 413.673 47.5535 420.5 58.0025C426.047 66.5322 437.994 77.8342 445.675 79.5401C440.555 93.6143 434.794 109.394 428.821 125.388C428.394 113.233 421.567 94.8938 414.74 84.2315C404.926 69.0912 386.792 63.1203 380.605 67.172C376.552 69.9442 372.285 89.9891 382.098 105.129C391.699 120.057 415.167 140.955 424.554 136.476C417.94 154.815 411.113 173.154 405.14 189.361C404.5 175.713 396.819 155.455 389.139 143.727C378.045 126.454 357.351 119.63 350.524 124.535C345.83 127.733 341.136 150.337 352.23 167.61C362.898 184.243 389.139 207.7 400.019 203.222C390.206 230.091 383.379 249.283 383.379 249.496L393.619 250.775L407.486 207.487C417.727 213.671 448.448 201.729 463.809 190.641C480.45 178.699 486.21 157.801 481.09 151.19C477.89 146.499 454.849 142.874 438.208 155.029Z" fill="#9BB2F9"/>
<path d="M10.0272 224.546C0.426714 232.223 -1.70672 248.43 1.06675 259.945C4.2669 273.806 16.8542 282.122 21.3344 295.13C23.8945 302.594 21.7611 306.219 19.6276 313.256C17.0675 322.426 15.5741 335.22 18.7743 344.39C23.4678 358.037 36.4818 370.192 49.7091 376.376C66.1366 384.053 86.1909 380.215 102.618 388.745C113.926 394.715 119.259 409.856 130.993 414.974C142.94 420.092 167.901 416.466 169.822 400.686C171.955 382.774 154.034 370.832 153.394 353.986C152.967 344.39 157.234 334.154 157.234 324.345C157.448 311.337 155.101 295.77 149.341 283.828C138.247 261.438 118.406 240.753 92.3778 240.54C86.4042 240.54 79.7906 242.246 73.8169 240.54C66.1366 238.621 64.2165 233.289 59.3096 227.745C52.4826 220.281 38.4019 216.23 28.1614 215.59C19.6276 215.164 16.4275 218.789 10.0272 224.546C10.6672 223.907 11.3072 223.48 11.7339 223.054L10.0272 224.546Z" fill="#5C6BC0"/>
<path d="M17.3125 230.65L15.6567 231.995L162.299 412.389L163.955 411.044L17.3125 230.65Z" fill="#283593"/>
<path d="M36.5767 340.412L36.5488 342.544L106.519 343.459L106.546 341.327L36.5767 340.412Z" fill="#283593"/>
<path d="M105.26 268.681L103.127 268.751L105.529 342.283L107.662 342.214L105.26 268.681Z" fill="#283593"/>
<path d="M14.9669 263.941L14.5452 266.031L49.2625 273.03L49.6843 270.939L14.9669 263.941Z" fill="#283593"/>
<path d="M37.33 229.257L35.2926 229.89L48.4588 272.249L50.4963 271.616L37.33 229.257Z" fill="#283593"/>
<path d="M113.516 380.265L112.85 382.291L147.309 393.605L147.974 391.579L113.516 380.265Z" fill="#283593"/>
<path d="M136.146 346.408L134.069 346.894L144.142 389.871L146.219 389.384L136.146 346.408Z" fill="#283593"/>
<path d="M403.859 381.708V367.633C403.859 364.435 401.299 361.663 397.886 361.663H393.619C390.845 361.663 388.285 359.957 387.432 357.398C386.792 355.478 385.939 353.559 385.085 351.64C383.805 349.081 384.445 346.096 386.365 344.177L389.352 341.191C391.699 338.845 391.699 335.22 389.352 332.875L379.538 323.065C377.191 320.72 373.565 320.72 371.218 323.065L368.231 326.051C366.311 327.97 363.324 328.61 360.764 327.33C358.844 326.477 356.924 325.624 355.004 324.985C352.444 324.132 350.737 321.573 350.737 318.8V314.536C350.737 311.337 348.177 308.565 344.763 308.565H330.683C327.482 308.565 324.709 311.124 324.709 314.536V318.8C324.709 321.573 323.002 324.132 320.229 324.985C318.309 325.624 316.389 326.477 314.468 327.33C311.908 328.61 308.922 327.97 307.001 326.051L304.015 323.065C301.668 320.72 298.041 320.72 295.694 323.065L285.88 332.875C283.534 335.22 283.534 338.845 285.88 341.191L288.867 344.177C290.787 346.096 291.427 349.081 290.147 351.64C289.294 353.559 288.441 355.478 287.801 357.398C286.947 359.957 284.387 361.663 281.614 361.663H277.347C274.147 361.663 271.373 364.221 271.373 367.633V381.708C271.373 384.906 273.933 387.678 277.347 387.678H281.614C284.387 387.678 286.947 389.384 287.801 391.943C288.441 393.862 289.294 395.782 290.147 397.701C291.427 400.26 290.787 403.245 288.867 405.164L285.88 408.15C283.534 410.496 283.534 414.121 285.88 416.466L295.694 426.276C298.041 428.621 301.668 428.621 304.015 426.276L307.001 423.29C308.922 421.371 311.908 420.731 314.468 422.011C316.389 422.864 318.309 423.717 320.229 424.356C322.789 425.209 324.709 427.768 324.709 430.541V434.805C324.709 438.004 327.269 440.776 330.683 440.776H344.763C347.963 440.776 350.737 438.217 350.737 434.805V430.541C350.737 427.768 352.444 425.209 355.004 424.356C356.924 423.717 358.844 422.864 360.764 422.011C363.324 420.731 366.311 421.371 368.231 423.29L371.218 426.276C373.565 428.621 377.191 428.621 379.538 426.276L389.352 416.466C391.699 414.121 391.699 410.496 389.352 408.15L386.365 405.164C384.445 403.245 383.805 400.26 385.085 397.701C385.939 395.782 386.792 393.862 387.432 391.943C388.285 389.384 390.845 387.678 393.619 387.678H397.886C401.299 387.678 403.859 385.119 403.859 381.708ZM340.07 406.657C320.442 408.15 304.228 391.943 305.721 372.325C307.001 356.758 319.375 344.39 334.949 343.11C354.577 341.618 370.791 357.824 369.298 377.443C368.231 392.796 355.644 405.378 340.07 406.657Z" fill="white"/>
<path d="M512.238 171.449V157.374C512.238 154.176 509.678 151.404 506.264 151.404H501.998C499.224 151.404 496.664 149.698 495.811 147.139C495.171 145.219 494.317 143.3 493.464 141.381C492.184 138.822 492.824 135.837 494.744 133.917L497.731 130.932C500.078 128.586 500.078 124.961 497.731 122.616L487.917 112.806C485.57 110.461 481.943 110.461 479.597 112.806L476.61 115.792C474.69 117.711 471.703 118.351 469.143 117.071C467.223 116.218 465.303 115.365 463.382 114.725C460.822 113.873 459.116 111.314 459.116 108.541V104.277C459.116 101.078 456.555 98.3057 453.142 98.3057H439.061C435.861 98.3057 433.088 100.865 433.088 104.277V108.541C433.088 111.314 431.381 113.873 428.607 114.725C426.687 115.365 424.767 116.218 422.847 117.071C420.287 118.351 417.3 117.711 415.38 115.792L412.393 112.806C410.047 110.461 406.42 110.461 404.073 112.806L394.259 122.616C391.912 124.961 391.912 128.586 394.259 130.932L397.246 133.917C399.166 135.837 399.806 138.822 398.526 141.381C397.673 143.3 396.819 145.219 396.179 147.139C395.326 149.698 392.766 151.404 389.992 151.404H385.725C382.525 151.404 379.752 153.962 379.752 157.374V171.449C379.752 174.647 382.312 177.419 385.725 177.419H389.992C392.766 177.419 395.326 179.125 396.179 181.684C396.819 183.603 397.673 185.523 398.526 187.442C399.806 190.001 399.166 192.986 397.246 194.905L394.259 197.891C391.912 200.237 391.912 203.862 394.259 206.207L404.073 216.017C406.42 218.362 410.047 218.362 412.393 216.017L415.38 213.031C417.3 211.112 420.287 210.472 422.847 211.752C424.767 212.605 426.687 213.458 428.607 214.097C431.168 214.95 433.088 217.509 433.088 220.281V224.546C433.088 227.745 435.648 230.517 439.061 230.517H453.142C456.342 230.517 459.116 227.958 459.116 224.546V220.281C459.116 217.509 460.822 214.95 463.382 214.097C465.303 213.458 467.223 212.605 469.143 211.752C471.703 210.472 474.69 211.112 476.61 213.031L479.597 216.017C481.943 218.362 485.57 218.362 487.917 216.017L497.731 206.207C500.078 203.862 500.078 200.237 497.731 197.891L494.744 194.905C492.824 192.986 492.184 190.001 493.464 187.442C494.317 185.523 495.171 183.603 495.811 181.684C496.664 179.125 499.224 177.419 501.998 177.419H506.264C509.678 177.206 512.238 174.647 512.238 171.449ZM448.662 196.185C429.034 197.678 412.82 181.471 414.313 161.853C415.593 146.286 427.967 133.917 443.541 132.638C463.169 131.145 479.383 147.352 477.89 166.97C476.61 182.324 464.022 194.905 448.662 196.185Z" fill="url(#paint0_linear)"/>
<path d="M493.251 317.948C492.184 309.844 485.997 291.505 477.89 303.02C472.983 310.057 476.183 321.146 472.77 329.036C465.943 322.212 448.662 282.762 433.088 299.182C423.061 309.631 438.421 338.419 443.328 349.508C439.915 345.243 431.808 340.338 427.541 346.096C423.701 351.427 430.528 363.795 432.448 369.126C423.914 365.501 418.154 356.545 408.98 362.942C401.726 368.06 401.726 378.296 402.579 385.972C403.646 394.289 406.42 401.966 406.633 410.282C406.633 419.878 403.22 427.555 401.939 436.938C411.967 416.893 442.048 422.437 459.969 421.158C469.569 420.518 519.919 417.533 500.931 397.701C497.304 394.076 454.422 390.237 470.636 380.215C477.89 375.737 493.037 380.428 501.571 379.575C508.185 378.722 521.412 376.803 526.319 372.112C534.853 363.795 528.452 352.067 519.492 348.655C511.598 345.669 501.571 348.868 494.744 344.177C500.504 337.353 512.452 339.912 518.425 333.941C526.106 326.691 518.425 322.639 511.172 321.146C521.839 315.815 529.092 298.329 511.172 297.476C504.771 297.263 499.864 300.675 496.237 305.793C493.891 309.844 490.477 317.734 493.251 317.948C492.397 317.521 491.331 316.668 491.331 315.815L493.251 317.948Z" fill="#9BB2F9"/>
<path d="M113.712 351.853C113.712 358.677 119.472 364.222 126.726 364.222H414.313C421.354 364.222 427.327 358.677 427.327 351.853V167.397C427.327 160.573 421.567 155.029 414.313 155.029H126.513C119.472 155.029 113.499 160.573 113.499 167.397V351.853H113.712Z" fill="url(#paint1_linear)"/>
<path d="M147.634 340.765C147.634 348.015 153.607 353.986 160.861 353.986H403.22C410.473 353.986 416.447 348.015 416.447 340.765V178.486C416.447 171.235 410.473 165.264 403.22 165.264H161.074C153.821 165.264 147.847 171.235 147.847 178.486V340.765H147.634Z" fill="#D9E1FC"/>
<path d="M119.686 259.519C119.686 265.703 124.593 270.607 130.78 270.607C136.967 270.607 141.873 265.703 141.873 259.519C141.873 253.334 136.967 248.43 130.78 248.43C124.593 248.43 119.686 253.548 119.686 259.519Z" fill="#5C6BC0"/>
<path d="M320.015 311.124C320.015 315.175 316.602 318.587 312.548 318.587C308.495 318.587 305.081 315.175 305.081 311.124V207.913C305.081 203.862 308.495 200.45 312.548 200.45C316.602 200.45 320.015 203.862 320.015 207.913V311.124Z" fill="url(#paint2_linear)"/>
<path d="M258.999 259.519C258.999 284.255 238.945 304.3 214.197 304.3C189.449 304.3 169.395 284.255 169.395 259.519C169.395 234.782 189.449 214.737 214.197 214.737C238.945 214.95 258.999 234.995 258.999 259.519Z" fill="#9BB2F9"/>
<path d="M243.638 259.518C243.638 275.725 230.411 288.946 214.197 288.946C197.983 288.946 184.756 275.725 184.756 259.518C184.756 243.312 197.983 230.091 214.197 230.091C230.411 230.304 243.638 243.312 243.638 259.518Z" fill="url(#paint3_linear)"/>
<path d="M239.158 259.519C239.158 273.166 228.064 284.468 214.197 284.468C200.543 284.468 189.236 273.379 189.236 259.519C189.236 245.871 200.33 234.569 214.197 234.569C228.064 234.782 239.158 245.871 239.158 259.519Z" fill="#9BB2F9"/>
<path d="M215.264 217.509H212.917V227.319H215.264V217.509Z" fill="#9BB2F9"/>
<path d="M227.287 219.66L222.803 228.386L224.891 229.457L229.375 220.732L227.287 219.66Z" fill="#9BB2F9"/>
<path d="M238.245 225.819L231.625 233.061L233.358 234.643L239.978 227.401L238.245 225.819Z" fill="#9BB2F9"/>
<path d="M240.438 241.18L238.945 239.047L246.838 233.29L248.332 235.209L240.438 241.18Z" fill="#9BB2F9"/>
<path d="M252.303 242.89L243.351 246.909L244.312 249.049L253.264 245.029L252.303 242.89Z" fill="#9BB2F9"/>
<path d="M246.625 257.386V255.04L256.439 254.614V256.96L246.625 257.386Z" fill="#9BB2F9"/>
<path d="M247.079 262.838L246.625 265.139L256.253 267.036L256.707 264.735L247.079 262.838Z" fill="#9BB2F9"/>
<path d="M230.044 288.546L227.936 289.577L232.25 298.388L234.358 297.357L230.044 288.546Z" fill="#9BB2F9"/>
<path d="M218.498 292.004L218.32 301.811L220.666 301.853L220.844 292.046L218.498 292.004Z" fill="#9BB2F9"/>
<path d="M208.741 291.075L205.998 300.494L208.251 301.149L210.994 291.73L208.741 291.075Z" fill="#9BB2F9"/>
<path d="M199.435 288.215L195.015 296.973L197.111 298.03L201.53 289.271L199.435 288.215Z" fill="#9BB2F9"/>
<path d="M192.555 282.779L186.295 290.333L188.102 291.83L194.362 284.275L192.555 282.779Z" fill="#9BB2F9"/>
<path d="M186.676 276.365L187.742 278.497L179.209 283.189L177.928 281.056L186.676 276.365Z" fill="#9BB2F9"/>
<path d="M183.433 269.372L173.95 271.896L174.554 274.162L184.037 271.638L183.433 269.372Z" fill="#9BB2F9"/>
<path d="M279.694 435.232L51.4158 474.895L34.135 376.163L262.626 336.5L279.694 435.232Z" fill="url(#paint4_linear)"/>
<path d="M255.159 367.633C248.545 368.7 242.145 364.435 241.078 357.824C240.438 354.626 241.292 351.427 242.999 348.868L59.5229 380.855C62.0831 382.561 63.7898 385.333 64.4298 388.745C65.4966 395.355 61.2297 401.753 54.616 402.819C52.0559 403.245 49.7091 402.819 47.5757 401.966L55.2561 446.534C56.9628 444.828 59.0962 443.762 61.6564 443.335C68.27 442.269 74.6703 446.534 75.7371 453.144C76.3771 456.343 75.5237 459.755 73.817 462.101L257.293 430.114C254.732 428.408 253.026 425.636 252.386 422.224C251.319 415.613 255.586 409.216 262.199 408.15C263.693 407.937 264.973 407.937 266.253 408.15L258.999 366.354C257.719 366.994 256.439 367.42 255.159 367.633Z" fill="#EBE6FC"/>
<path d="M189.023 400.046C192.009 417.746 180.275 434.592 162.568 437.791C144.86 440.776 128.006 429.048 124.806 411.348C121.819 393.649 133.553 376.803 151.261 373.604C169.182 370.405 186.036 382.347 189.023 400.046Z" fill="url(#paint5_linear)"/>
<path d="M313.189 422.437L93.4447 496.22L61.4431 401.113L281.4 327.543L313.189 422.437Z" fill="url(#paint6_linear)"/>
<path d="M278.627 359.53C272.227 361.663 265.4 358.251 263.266 351.853C262.2 348.655 262.626 345.456 263.906 342.684L87.2577 401.966C90.0312 403.459 92.1646 405.804 93.2313 409.003C95.3648 415.4 91.9513 422.224 85.551 424.356C83.2042 425.209 80.6441 425.209 78.5106 424.57L92.8047 467.432C94.2981 465.513 96.2182 464.02 98.5649 463.38C104.965 461.248 111.792 464.66 113.926 471.057C114.992 474.256 114.566 477.454 113.286 480.227L289.934 420.945C287.161 419.452 285.027 417.106 283.961 413.908C281.827 407.51 285.241 400.686 291.641 398.554C292.921 398.127 294.414 397.914 295.695 397.914L282.254 357.611C281.187 358.464 279.907 359.104 278.627 359.53Z" fill="#EBE6FC"/>
<path d="M218.251 401.539C224.011 418.599 214.837 437.151 197.77 442.696C180.702 448.453 162.141 439.284 156.594 422.224C150.834 405.164 160.008 386.612 177.075 381.068C193.93 375.31 212.49 384.48 218.251 401.539Z" fill="url(#paint7_linear)"/>
<path d="M336.016 496.646H190.302V499.419H336.016V496.646Z" fill="url(#paint8_linear)"/>
<path d="M232.545 413.481H205.45V496.646H232.545V413.481Z" fill="url(#paint9_linear)"/>
<path d="M277.133 388.531H250.039V496.646H277.133V388.531Z" fill="url(#paint10_linear)"/>
<path d="M321.509 363.582H294.414V496.646H321.509V363.582Z" fill="url(#paint11_linear)"/>
<path d="M210.997 237.981C210.997 237.981 209.717 245.444 210.997 246.511C212.277 247.79 218.464 248.43 220.597 248.43C222.731 248.217 224.224 248.217 224.224 247.364C224.224 245.018 216.971 244.165 219.531 244.591C221.451 245.018 214.41 243.952 213.984 240.753C213.77 238.194 213.13 237.981 213.13 237.981H210.997Z" fill="#283593"/>
<path d="M235.531 248.217C235.531 248.217 234.891 255.68 236.385 256.746C237.665 257.813 243.852 258.026 245.985 257.813C248.119 257.386 249.612 257.173 249.612 256.32C249.399 253.974 242.145 253.761 244.705 253.974C246.625 254.187 239.585 253.761 238.945 250.562C238.305 248.003 237.878 247.79 237.878 247.79L235.531 248.217Z" fill="#283593"/>
<path d="M242.358 252.695H231.905L208.65 174.434C208.65 174.434 199.69 168.89 196.276 168.463C146.354 162.279 159.368 139.249 159.368 139.249L187.742 138.609C187.742 138.609 222.517 152.683 227.851 162.706C233.398 172.515 242.358 252.695 242.358 252.695Z" fill="url(#paint12_linear)"/>
<path d="M217.611 242.246L212.064 188.508C212.064 188.508 209.93 164.838 202.677 161.639C195.423 158.227 167.901 140.954 167.901 140.954L143.794 134.77C143.794 134.77 135.9 152.47 144.647 164.198C153.607 175.927 185.182 173.794 188.809 183.817C196.063 204.075 207.583 242.246 207.583 242.246H217.611Z" fill="url(#paint13_linear)"/>
<path d="M134.406 145.859C134.406 145.859 142.94 128.586 144.007 120.91C145.714 110.461 142.3 90.6289 148.701 83.3786C151.047 80.8197 157.874 76.3416 161.928 76.3416C174.088 76.3416 177.929 83.8051 178.782 89.5627C181.342 107.049 190.089 136.05 187.102 139.888C175.795 154.602 134.406 145.859 134.406 145.859Z" fill="url(#paint14_linear)"/>
<path d="M158.728 78.9004C160.221 73.5693 159.794 65.0396 159.794 65.0396L169.821 68.025C169.821 68.025 169.821 74.4223 169.821 76.5548C169.821 78.2607 169.821 79.7534 169.821 79.7534C169.821 79.7534 169.395 81.8859 165.341 81.8859C160.648 81.8859 158.728 78.9004 158.728 78.9004Z" fill="#FBBE52"/>
<path d="M176.649 56.2965C175.795 62.2674 174.515 71.2237 167.688 72.0766C163.421 72.7164 159.154 68.025 158.728 62.0542C158.088 53.7376 162.781 45.4211 167.688 45.4211C172.595 45.4211 177.929 47.5535 176.649 56.2965Z" fill="#FBBE52"/>
<path d="M160.648 60.7746C161.501 59.4952 159.154 49.8992 166.408 49.0462C168.968 48.833 171.315 48.833 172.382 49.6859C176.862 52.8846 175.368 59.7084 176.008 59.9217C178.355 60.5614 180.489 53.0978 178.995 49.4727C177.502 45.8475 175.155 41.5826 167.901 41.5826C164.275 41.5826 158.941 42.8621 155.527 46.7005C152.541 49.8992 155.314 54.5906 155.314 54.5906C156.381 57.1495 157.021 61.8409 157.021 61.8409C157.021 61.8409 160.221 61.4144 160.648 60.7746Z" fill="url(#paint15_linear)"/>
<path d="M156.167 63.3335C156.167 65.2527 157.021 66.7455 158.088 66.7455C159.154 66.7455 160.008 65.2527 160.008 63.3335C160.008 61.4143 159.154 59.9216 158.088 59.9216C157.021 59.9216 156.167 61.4143 156.167 63.3335Z" fill="#FBBE52"/>
<path d="M292.067 150.124C292.067 152.47 290.147 154.389 287.8 154.389H177.502C175.155 154.389 173.235 152.47 173.235 150.124V76.3415C173.235 73.9959 175.155 72.0767 177.502 72.0767H288.014C290.361 72.0767 292.281 73.9959 292.281 76.3415V150.124H292.067Z" fill="url(#paint16_linear)"/>
<path d="M292.281 115.792H173.448V134.344H292.281V115.792Z" fill="url(#paint17_linear)"/>
<path d="M259.852 79.327H189.022V85.2979H259.852V79.327Z" fill="white"/>
<path d="M216.117 95.5336H189.022V106.409H216.117V95.5336Z" fill="white"/>
<path d="M283.96 95.5336H239.585V106.409H283.96V95.5336Z" fill="white"/>
<path d="M195.636 130.079C195.636 130.079 193.289 125.601 197.129 124.961C200.97 124.108 206.09 122.829 206.09 122.829C206.09 122.829 210.143 125.388 208.01 127.094C206.09 128.586 195.636 130.079 195.636 130.079Z" fill="url(#paint18_linear)"/>
<path d="M144.86 97.0262C145.287 103.85 151.261 119.204 159.154 126.454C167.048 133.704 167.688 133.918 175.155 135.197C182.622 136.476 198.196 135.41 198.196 135.41V121.549C198.196 121.549 180.489 121.549 176.649 120.696C164.061 117.924 167.688 87.0037 154.461 82.0991C147.847 79.3269 144.434 90.2024 144.86 97.0262Z" fill="url(#paint19_linear)"/>
<path d="M536.133 504.963C536.133 508.801 503.065 512 462.103 512C421.141 512 388.073 508.801 388.073 504.963C388.073 501.124 421.141 497.926 462.103 497.926C503.065 497.926 536.133 501.124 536.133 504.963Z" fill="#D9E1FC"/>
<path d="M413.46 287.667C409.62 295.983 397.673 294.064 389.566 291.932C381.459 289.799 373.992 285.108 369.725 279.99C365.458 274.872 352.871 259.732 352.871 259.732L359.698 250.989C359.698 250.989 377.192 272.313 385.726 274.232C391.486 275.512 411.967 266.556 417.3 268.688C419.647 269.754 416.02 282.122 413.46 287.667Z" fill="url(#paint20_linear)"/>
<path d="M340.07 221.561C325.989 221.561 313.189 227.532 304.228 236.915V304.939C313.189 314.535 325.989 320.293 340.07 320.293C367.378 320.293 389.566 298.116 389.566 270.82C389.566 243.738 367.378 221.561 340.07 221.561Z" fill="url(#paint21_linear)"/>
<path d="M340.07 224.546C325.563 224.546 312.762 231.157 304.228 241.393V251.202C311.269 238.62 324.709 230.091 340.07 230.091C362.684 230.091 381.032 248.43 381.032 271.034C381.032 293.637 362.684 311.976 340.07 311.976C324.709 311.976 311.269 303.447 304.228 290.865V300.675C312.762 310.91 325.776 317.521 340.07 317.521C365.671 317.521 386.579 296.623 386.579 271.034C386.579 245.444 365.885 224.546 340.07 224.546Z" fill="#FA870A"/>
<path d="M359.058 280.416C359.058 285.108 357.351 288.733 354.151 291.292C350.951 293.851 345.83 294.917 339.43 294.917C336.017 294.917 333.243 294.704 330.896 294.277C328.55 293.851 326.203 293.211 324.283 292.358V281.909C326.629 282.975 329.19 283.828 332.176 284.681C335.163 285.321 337.723 285.747 339.857 285.747C344.337 285.747 346.684 284.468 346.684 281.696C346.684 280.63 346.47 279.99 345.83 279.35C345.19 278.71 344.124 278.071 342.63 277.218C341.137 276.365 339.217 275.512 336.657 274.446C333.03 272.953 330.47 271.673 328.763 270.394C327.056 269.114 325.776 267.622 325.136 265.916C324.283 264.21 324.069 262.291 324.069 259.945C324.069 255.893 325.563 252.695 328.763 250.349C331.963 248.003 336.443 246.937 342.417 246.937C347.964 246.937 353.511 248.216 358.631 250.562L354.791 259.732C352.444 258.665 350.311 258.026 348.391 257.386C346.47 256.746 344.337 256.533 342.204 256.533C338.577 256.533 336.657 257.599 336.657 259.518C336.657 260.585 337.297 261.651 338.363 262.504C339.643 263.357 342.204 264.636 346.257 266.129C349.884 267.622 352.444 268.901 354.151 270.181C355.858 271.46 357.138 272.953 357.778 274.659C358.631 276.151 359.058 278.284 359.058 280.416Z" fill="#FFDC8C"/>
<path d="M462.743 496.22C462.743 496.22 466.156 502.83 465.303 504.536C464.45 506.029 458.903 508.588 456.769 509.014C454.636 509.441 453.142 509.867 452.929 509.014C452.289 506.882 458.903 503.897 456.556 504.963C454.849 505.816 461.249 502.83 460.609 499.632C460.183 497.073 460.609 496.859 460.609 496.859L462.743 496.22Z" fill="#283593"/>
<path d="M401.3 495.154C401.3 495.154 402.58 502.617 401.3 503.683C400.02 504.963 393.833 505.603 391.699 505.603C389.566 505.389 388.073 505.389 388.073 504.536C388.073 502.191 395.326 501.338 392.766 501.764C390.846 502.191 397.886 501.124 398.313 497.926C398.526 495.367 399.166 495.154 399.166 495.154H401.3Z" fill="#283593"/>
<path d="M461.036 459.328C459.329 451.012 457.409 445.681 456.129 442.269C456.769 441.416 457.196 440.35 457.196 439.497C456.769 435.872 454.209 401.752 453.996 386.612C453.996 384.266 453.996 381.921 453.996 379.788C453.996 379.788 453.782 350.147 449.089 345.243C448.235 344.176 445.675 343.323 442.262 342.684C440.768 341.191 439.702 340.338 439.702 340.338C439.702 340.338 438.422 340.978 436.501 341.831C421.994 339.912 400.446 339.272 400.446 339.272C400.446 339.272 399.593 349.294 398.953 359.53C398.526 364.435 398.313 369.766 397.886 377.229C397.886 378.935 397.673 380.855 397.46 382.774C396.606 394.929 394.686 424.356 395.539 438.004C395.539 438.857 395.539 439.923 395.539 440.989C395.539 449.093 395.539 499.632 395.539 499.632H402.793C402.793 499.632 408.553 478.094 409.62 460.821C410.26 451.652 409.833 445.681 409.407 442.056C409.833 441.629 410.047 440.989 410.26 440.563C410.9 436.938 417.514 403.458 421.354 388.745C422.207 385.759 422.847 382.987 423.487 380.428C424.128 380.428 424.981 380.428 425.621 380.428C426.048 382.774 426.474 385.119 427.328 387.892C430.101 398.554 436.288 422.864 440.982 436.938C440.982 438.43 441.622 440.776 442.475 444.188C444.609 452.078 458.263 500.698 458.263 500.698L465.09 498.779C464.663 498.352 464.449 476.175 461.036 459.328Z" fill="url(#paint22_linear)"/>
<path d="M462.743 195.545C455.703 206.634 449.089 224.973 433.941 224.76C422.634 224.546 407.914 226.252 408.767 244.591C409.407 256.746 423.914 264.423 432.235 270.82C455.703 288.52 488.984 287.88 513.519 273.166C537.413 258.665 557.467 229.238 547.014 200.663C543.173 190.427 535.493 180.618 525.466 175.927C502.211 164.198 474.69 176.353 462.743 195.545Z" fill="#283593"/>
<path d="M401.726 312.83C403.433 302.594 407.06 276.791 410.26 271.887C413.033 267.622 418.794 266.129 427.114 266.129C434.155 266.129 450.582 270.181 448.022 293.424C447.169 301.101 452.929 351.214 452.929 351.214C452.929 351.214 430.741 345.669 418.58 344.603C406.42 343.537 397.673 348.441 398.099 346.735C399.379 339.059 400.446 321.359 401.726 312.83Z" fill="#5C6BC0"/>
<path d="M432.874 270.607C431.381 265.276 432.021 268.048 431.594 265.276C431.381 262.93 431.808 254.614 431.808 254.614L421.781 257.599C421.781 257.599 421.781 263.997 421.781 266.129C421.781 267.835 421.781 267.835 421.781 267.835C421.781 267.835 422.207 273.593 426.261 273.593C430.954 273.806 432.874 270.607 432.874 270.607Z" fill="#FBBE52"/>
<path d="M414.954 246.084C415.807 252.055 417.087 261.011 423.914 261.864C428.181 262.504 432.448 257.813 432.875 251.842C433.515 243.525 428.821 245.658 423.914 245.658C418.794 245.444 413.674 237.128 414.954 246.084Z" fill="#FBBE52"/>
<path d="M435.008 254.187C433.941 255.68 432.448 256.32 431.594 255.68C430.741 255.04 430.954 253.334 432.021 251.842C433.088 250.349 434.581 249.709 435.435 250.349C436.288 250.989 436.075 252.695 435.008 254.187Z" fill="#FBBE52"/>
<path d="M376.339 299.395C376.339 299.395 371.005 298.329 368.231 295.343C365.245 292.358 363.751 291.079 366.098 288.733C367.165 287.667 367.165 287.667 368.871 287.667C370.578 287.667 372.072 286.814 378.685 295.343L376.339 299.395Z" fill="#FBBE52"/>
<path d="M371.645 302.594C371.645 302.594 373.352 291.079 381.245 294.277C394.686 299.822 411.327 304.939 415.807 300.461C420.501 295.77 435.648 268.901 440.555 270.82C453.569 275.725 448.022 284.681 448.022 287.88C447.809 300.888 425.621 317.734 419.007 319.653C412.607 321.786 371.645 302.594 371.645 302.594Z" fill="url(#paint23_linear)"/>
</g>
<defs>
<linearGradient id="paint0_linear" x1="379.719" y1="164.375" x2="512.268" y2="164.375" gradientUnits="userSpaceOnUse">
<stop offset="0.2169" stop-color="#C5CDFD"/>
<stop offset="0.4445" stop-color="#C1CAFC"/>
<stop offset="0.6564" stop-color="#B6C0F8"/>
<stop offset="0.8614" stop-color="#A3AFF2"/>
<stop offset="0.9153" stop-color="#9DAAF0"/>
</linearGradient>
<linearGradient id="paint1_linear" x1="485.073" y1="353.396" x2="76.2404" y2="174.675" gradientUnits="userSpaceOnUse">
<stop offset="0.0793651" stop-color="#283593"/>
<stop offset="0.4661" stop-color="#4250A9"/>
<stop offset="0.9247" stop-color="#5C6BC0"/>
</linearGradient>
<linearGradient id="paint2_linear" x1="281.349" y1="290.694" x2="343.548" y2="228.467" gradientUnits="userSpaceOnUse">
<stop offset="0.2222" stop-color="#283593"/>
<stop offset="0.3979" stop-color="#2D3A97"/>
<stop offset="0.6141" stop-color="#3C49A4"/>
<stop offset="0.8508" stop-color="#5462B9"/>
<stop offset="0.9206" stop-color="#5C6BC0"/>
</linearGradient>
<linearGradient id="paint3_linear" x1="184.8" y1="259.595" x2="243.619" y2="259.595" gradientUnits="userSpaceOnUse">
<stop offset="0.0793651" stop-color="#283593"/>
<stop offset="0.4661" stop-color="#4250A9"/>
<stop offset="0.9247" stop-color="#5C6BC0"/>
</linearGradient>
<linearGradient id="paint4_linear" x1="42.7604" y1="425.524" x2="271.195" y2="385.763" gradientUnits="userSpaceOnUse">
<stop offset="0.2169" stop-color="#C5CDFD"/>
<stop offset="0.4445" stop-color="#C1CAFC"/>
<stop offset="0.6564" stop-color="#B6C0F8"/>
<stop offset="0.8614" stop-color="#A3AFF2"/>
<stop offset="0.9153" stop-color="#9DAAF0"/>
</linearGradient>
<linearGradient id="paint5_linear" x1="124.864" y1="411.246" x2="189.099" y2="400.066" gradientUnits="userSpaceOnUse">
<stop offset="0.2169" stop-color="#C5CDFD"/>
<stop offset="0.4445" stop-color="#C1CAFC"/>
<stop offset="0.6564" stop-color="#B6C0F8"/>
<stop offset="0.8614" stop-color="#A3AFF2"/>
<stop offset="0.9153" stop-color="#9DAAF0"/>
</linearGradient>
<linearGradient id="paint6_linear" x1="77.4166" y1="448.69" x2="297.233" y2="374.927" gradientUnits="userSpaceOnUse">
<stop offset="0.2169" stop-color="#C5CDFD"/>
<stop offset="0.4445" stop-color="#C1CAFC"/>
<stop offset="0.6564" stop-color="#B6C0F8"/>
<stop offset="0.8614" stop-color="#A3AFF2"/>
<stop offset="0.9153" stop-color="#9DAAF0"/>
</linearGradient>
<linearGradient id="paint7_linear" x1="156.423" y1="422.202" x2="218.237" y2="401.46" gradientUnits="userSpaceOnUse">
<stop offset="0.2169" stop-color="#C5CDFD"/>
<stop offset="0.4445" stop-color="#C1CAFC"/>
<stop offset="0.6564" stop-color="#B6C0F8"/>
<stop offset="0.8614" stop-color="#A3AFF2"/>
<stop offset="0.9153" stop-color="#9DAAF0"/>
</linearGradient>
<linearGradient id="paint8_linear" x1="190.227" y1="498.016" x2="335.895" y2="498.016" gradientUnits="userSpaceOnUse">
<stop offset="0.0793651" stop-color="#283593"/>
<stop offset="0.4661" stop-color="#4250A9"/>
<stop offset="0.9247" stop-color="#5C6BC0"/>
</linearGradient>
<linearGradient id="paint9_linear" x1="205.488" y1="455.03" x2="232.539" y2="455.03" gradientUnits="userSpaceOnUse">
<stop offset="0.00529099" stop-color="#FBBE52"/>
<stop offset="0.2722" stop-color="#FABB54"/>
<stop offset="0.3968" stop-color="#F9B656"/>
<stop offset="0.8783" stop-color="#FC952E"/>
</linearGradient>
<linearGradient id="paint10_linear" x1="249.965" y1="442.55" x2="277.021" y2="442.55" gradientUnits="userSpaceOnUse">
<stop offset="0.00529099" stop-color="#FBBE52"/>
<stop offset="0.2722" stop-color="#FABB54"/>
<stop offset="0.3968" stop-color="#F9B656"/>
<stop offset="0.8783" stop-color="#FC952E"/>
</linearGradient>
<linearGradient id="paint11_linear" x1="294.443" y1="430.07" x2="321.494" y2="430.07" gradientUnits="userSpaceOnUse">
<stop offset="0.00529099" stop-color="#FBBE52"/>
<stop offset="0.2722" stop-color="#FABB54"/>
<stop offset="0.3968" stop-color="#F9B656"/>
<stop offset="0.8783" stop-color="#FC952E"/>
</linearGradient>
<linearGradient id="paint12_linear" x1="157.857" y1="195.619" x2="242.361" y2="195.619" gradientUnits="userSpaceOnUse">
<stop offset="0.0793651" stop-color="#283593"/>
<stop offset="0.4661" stop-color="#4250A9"/>
<stop offset="0.9247" stop-color="#5C6BC0"/>
</linearGradient>
<linearGradient id="paint13_linear" x1="140.349" y1="188.69" x2="217.578" y2="188.69" gradientUnits="userSpaceOnUse">
<stop offset="0.0793651" stop-color="#283593"/>
<stop offset="0.4661" stop-color="#4250A9"/>
<stop offset="0.9247" stop-color="#5C6BC0"/>
</linearGradient>
<linearGradient id="paint14_linear" x1="134.381" y1="112.425" x2="187.913" y2="112.425" gradientUnits="userSpaceOnUse">
<stop offset="0.2169" stop-color="#C5CDFD"/>
<stop offset="0.4445" stop-color="#C1CAFC"/>
<stop offset="0.6564" stop-color="#B6C0F8"/>
<stop offset="0.8614" stop-color="#A3AFF2"/>
<stop offset="0.9153" stop-color="#9DAAF0"/>
</linearGradient>
<linearGradient id="paint15_linear" x1="179.388" y1="51.9064" x2="153.94" y2="51.9064" gradientUnits="userSpaceOnUse">
<stop offset="0.0793651" stop-color="#283593"/>
<stop offset="0.4661" stop-color="#4250A9"/>
<stop offset="0.9247" stop-color="#5C6BC0"/>
</linearGradient>
<linearGradient id="paint16_linear" x1="169.009" y1="102.825" x2="296.511" y2="123.626" gradientUnits="userSpaceOnUse">
<stop offset="0.2169" stop-color="#C5CDFD"/>
<stop offset="0.4445" stop-color="#C1CAFC"/>
<stop offset="0.6564" stop-color="#B6C0F8"/>
<stop offset="0.8614" stop-color="#A3AFF2"/>
<stop offset="0.9153" stop-color="#9DAAF0"/>
</linearGradient>
<linearGradient id="paint17_linear" x1="173.449" y1="115.546" x2="292.071" y2="134.898" gradientUnits="userSpaceOnUse">
<stop offset="0.0793651" stop-color="#283593"/>
<stop offset="0.4661" stop-color="#4250A9"/>
<stop offset="0.9247" stop-color="#5C6BC0"/>
</linearGradient>
<linearGradient id="paint18_linear" x1="197.648" y1="123.355" x2="205.431" y2="130.229" gradientUnits="userSpaceOnUse">
<stop offset="0.00529099" stop-color="#FBBE52"/>
<stop offset="0.2722" stop-color="#FABB54"/>
<stop offset="0.3968" stop-color="#F9B656"/>
<stop offset="0.8783" stop-color="#FC952E"/>
</linearGradient>
<linearGradient id="paint19_linear" x1="144.806" y1="108.616" x2="198.288" y2="108.616" gradientUnits="userSpaceOnUse">
<stop offset="0.2169" stop-color="#C5CDFD"/>
<stop offset="0.4445" stop-color="#C1CAFC"/>
<stop offset="0.6564" stop-color="#B6C0F8"/>
<stop offset="0.8614" stop-color="#A3AFF2"/>
<stop offset="0.9153" stop-color="#9DAAF0"/>
</linearGradient>
<linearGradient id="paint20_linear" x1="352.902" y1="272.466" x2="418.127" y2="272.466" gradientUnits="userSpaceOnUse">
<stop offset="0.2222" stop-color="#283593"/>
<stop offset="0.3979" stop-color="#2D3A97"/>
<stop offset="0.6141" stop-color="#3C49A4"/>
<stop offset="0.8508" stop-color="#5462B9"/>
<stop offset="0.9206" stop-color="#5C6BC0"/>
</linearGradient>
<linearGradient id="paint21_linear" x1="319.407" y1="234.048" x2="363.491" y2="310.031" gradientUnits="userSpaceOnUse">
<stop offset="0.00529099" stop-color="#FBBE52"/>
<stop offset="0.2722" stop-color="#FABB54"/>
<stop offset="0.3968" stop-color="#F9B656"/>
<stop offset="0.8783" stop-color="#FC952E"/>
</linearGradient>
<linearGradient id="paint22_linear" x1="395.002" y1="419.742" x2="464.724" y2="419.742" gradientUnits="userSpaceOnUse">
<stop offset="0.2222" stop-color="#283593"/>
<stop offset="0.3979" stop-color="#2D3A97"/>
<stop offset="0.6141" stop-color="#3C49A4"/>
<stop offset="0.8508" stop-color="#5462B9"/>
<stop offset="0.9206" stop-color="#5C6BC0"/>
</linearGradient>
<linearGradient id="paint23_linear" x1="371.634" y1="295.208" x2="449.483" y2="295.208" gradientUnits="userSpaceOnUse">
<stop offset="0.2222" stop-color="#283593"/>
<stop offset="0.3979" stop-color="#2D3A97"/>
<stop offset="0.6141" stop-color="#3C49A4"/>
<stop offset="0.8508" stop-color="#5462B9"/>
<stop offset="0.9206" stop-color="#5C6BC0"/>
</linearGradient>
<clipPath id="clip0">
<rect width="550" height="512" fill="white"/>
</clipPath>
</defs>
</svg>
