<svg width="24" height="24" fill="none" xmlns="http://www.w3.org/2000/svg"><path fill="#fff" fill-opacity=".01" d="M0 0h24v24H0z"/><path d="M12 16.373l3.98 2.193-.76-4.655 3.276-3.347-4.524-.69L12 5.687l-1.972 4.189-4.524.689L8.78 13.91l-.762 4.655L12 16.373zm0 2.283l-3.016 1.662a1.999 1.999 0 01-2.939-2.075l.6-3.656-2.57-2.624a2 2 0 011.128-3.377l3.47-.528 1.518-3.224a2 2 0 013.618 0l1.52 3.224 3.47.528a2 2 0 011.126 3.377l-2.569 2.624.6 3.656a2 2 0 01-2.94 2.075L12 18.656z" fill="#000"/></svg>