<svg width="103" height="60" fill="none" xmlns="http://www.w3.org/2000/svg"><path d="M5.451 51.919H1.292v7.3h.729v-6.633h3.43v-.667zm4.11 4.515H6.878l.737-2.011.603-1.668.604 1.668.739 2.01zm-1.748-4.515l-2.705 7.297h.748l.77-2.117h3.172l.78 2.117h.769l-2.702-7.297h-.832zm8.446 3.452c-.294.27-.764.406-1.408.406h-1.56v-3.19h1.56c.652 0 1.122.135 1.413.405.291.273.438.668.438 1.188-.003.523-.15.919-.443 1.191zm-1.41-3.452h-2.29v7.297h.729v-2.774h1.56c.88 0 1.533-.2 1.96-.6.427-.4.639-.953.639-1.662 0-.722-.21-1.28-.63-1.673-.417-.39-1.075-.588-1.969-.588zm7.175 4.422l-2.31-4.422h-.979v7.3h.729v-6.434l.47 1.011 1.715 3.283h.729l1.715-3.283.468-1.01v6.432h.728v-7.3h-.957l-2.308 4.423zm7.753 2.261c-.318 0-.617-.06-.894-.182a2.043 2.043 0 01-.718-.526 2.546 2.546 0 01-.478-.845 3.457 3.457 0 01-.177-1.147v-.668c0-.43.057-.814.171-1.152.114-.338.272-.621.473-.85.201-.229.44-.403.718-.52.277-.118.579-.178.905-.178.318 0 .617.06.894.183.278.123.517.297.718.526.201.229.362.512.478.85.117.338.177.716.177 1.141v.668c0 .43-.057.815-.171 1.153a2.464 2.464 0 01-.473.85c-.201.229-.44.403-.718.52a2.304 2.304 0 01-.905.177zm2.158-.218c.267-.291.476-.645.631-1.062.152-.417.228-.889.228-1.417v-.668a4.22 4.22 0 00-.222-1.422 3.038 3.038 0 00-.631-1.068 2.702 2.702 0 00-.957-.668 3.113 3.113 0 00-1.207-.229c-.438 0-.84.08-1.207.235a2.706 2.706 0 00-.951.673 3.213 3.213 0 00-.63 1.062 4.12 4.12 0 00-.23 1.417v.668c0 .534.074 1.01.224 1.428.15.416.358.77.63 1.062.27.292.59.515.957.668.367.152.767.229 1.202.229h.01c.435 0 .835-.08 1.202-.235.367-.158.682-.381.951-.673zm7.1-3.253H34.98V51.92h-.729v7.3h.729V55.8h4.056v3.42h.725v-7.3h-.726v3.212zm3.793 2.21l-.604 1.095V51.92h-.728v7.3h1l3.183-5.423.612-1.103v6.525h.717v-7.3h-.997l-3.183 5.423zm9.837-1.771h-1.56c-.644 0-1.115-.134-1.408-.4-.294-.268-.443-.633-.443-1.09 0-.458.147-.823.443-1.09.293-.268.764-.401 1.408-.401h1.56v2.98zM49.14 52.5c-.425.386-.634.912-.634 1.58 0 .514.125.948.38 1.296.254.352.64.597 1.161.736L48.3 59.218h.79l1.664-2.992c.055.009.112.011.172.011h1.742v2.981h.728v-7.3h-2.288c-.892 0-1.547.194-1.968.581zm12.5 3.934h-2.682l.737-2.011.603-1.668.603 1.668.74 2.01zm-1.747-4.515l-2.705 7.297h.748l.77-2.117h3.171l.78 2.117h.77l-2.702-7.297h-.832zm8.446 3.452c-.294.27-.764.406-1.408.406h-1.56v-3.19h1.56c.652 0 1.122.135 1.413.405.291.273.438.668.438 1.188 0 .523-.15.919-.443 1.191zm-1.411-3.452h-2.289v7.297h.729v-2.774h1.56c.88 0 1.533-.2 1.96-.6.427-.4.639-.953.639-1.662 0-.722-.21-1.28-.63-1.673-.417-.39-1.075-.588-1.969-.588zm8.984 0h-.873l-2.35 3.212h-1.143V51.92h-.728v7.3h.728V55.8H72.7l2.528 3.42h.894l-2.819-3.764 2.61-3.536zm1.041.667h2.392v6.632h.729v-6.632h2.392v-.667h-5.513v.667zm8.054 4.755l-.603 1.095V51.92h-.729v7.3h1l3.181-5.423.614-1.103v6.525h.718v-7.3h-.998l-3.183 5.423zm11.013-5.422h-.876l-2.349 3.212h-1.144V51.92h-.728v7.3h.728V55.8h1.155l2.526 3.42h.894l-2.819-3.764 2.612-3.536zm2.8 5.422l-.604 1.095V51.92h-.726v7.3h.998l3.183-5.423.611-1.103v6.525H103v-7.3h-.998l-3.183 5.423zM14.566 26.805a.327.327 0 01-.482.291c-.546-.302-1.576-.703-3.183-.703-2.571 0-4.308-1.564-4.308-3.91 0-2.719 2.172-4.079 4.85-4.079h.575c1.797 0 2.542.75 2.542 2.45v5.95h.005zm-1.664-11.801h-1.965c-4.986 0-8.582 2.55-8.582 6.935 0 3.4 1.832 5.542 4.749 6.596l-2.917 3.842c-.063.082-.125.152-.19.229a6.46 6.46 0 00-.253.294c-.283.305-.574.55-.875.747-.541.27-1.071.229-1.528.13-.66-.139-1.164-.395-1.297.033-.239.752.547 2.316 1.02 3.011.285.42.845.687 1.598.687 2.232 0 3.77-.494 6.396-4.706.027-.046.057-.095.087-.142.1-.163.207-.335.313-.512l1.614-2.354 1.245.362a3.128 3.128 0 012.248 3.003v3.874c3.493 0 4.037 0 4.037-2.04V20.61c0-4.043-1.56-5.607-5.7-5.607zM93 18.674h3.114c2.036 0 2.85.782 2.85 2.72V37.03c3.492 0 4.036 0 4.036-2.041V20.95c0-4.284-1.324-5.949-5.766-5.949h-7.211c-.626 0-1.425-.065-2.183-.092a.616.616 0 00-.623.441c-.242.82-1.019 2.946-.473 3.499.4.406.99-.29 2.24-.29l.05.113s-.183 5.525-1.68 11.479a10.39 10.39 0 01-.137.488l-.358.929-.112.288c-.5 1.434-1.166 2.107-2.033 2.017-.753-.08-1.172-.87-1.416-.575-.503.594-.49 2.316-.44 3.169.016.286.233.49.507.572.036.01.066.016.101.024 1.27.357 2.256.175 2.8.175.166 0 .318-.027.462-.068 2.327-.349 3.8-2.112 4.43-5.406C92.323 25.67 93 18.674 93 18.674zM63.88 28.775c1.46-4.106 2.735-7.27 3.616-9.079 0 0 1.446 3.003 3.591 9.447.073.223-.174.417-.364.278-.81-.592-2.02-1.202-3.553-1.202a5.532 5.532 0 00-2.944.853c-.188.117-.421-.084-.345-.297zm-2.674 8.259c.995 0-.016-.515.8-1.921.741-1.235 2.345-3.417 5.167-3.417 2.742 0 4.594 2.327 5.455 3.55.677 1.303-.234 1.788.729 1.788h4.651c-4.447-13.52-8.61-22.447-8.61-22.447-.282-.58-5.446 0-4.734 1.123.562.97-.413 2.474-.957 3.561-2.713 5.237-4.844 10.997-7.049 17.765h4.548v-.002zM46.16 23.02v14.013c3.529 0 3.833 0 3.833-2.31V15.004c-1.865.068-3.797.305-5.461 1.087-1.797 4.657-3.594 8.976-6.138 14.005-2.408-4.76-4.713-10.47-6.377-15.095-1.729.101-3.765.374-5.29 1.055V37.03h3.798V23.05c0-.295.402-.369.508-.096 1.62 4.144 3.493 8.25 5.393 11.97 1.22-.036 2.713-.24 3.9-.714a114.023 114.023 0 005.329-11.289c.111-.267.505-.193.505.098zM75.77 1.618c-.073.343-.165 2.163-1.206 3.286-.16.171-.78.675-.949.605-.516-.224-.75-1.562-.805-2.248-.06-.744-.076-1.488.199-2.205-1.4-.343-4.167.87-4.882 1.771.519.401 1.076.76 1.541 1.213.356.349.62.801.878 1.234.201.34.595 1.194.223 1.346-.786.325-1.476.578-3.284.578-1.807 0-2.498-.253-3.283-.578-.373-.152.019-1.005.222-1.346.259-.433.522-.888.878-1.234.465-.455 1.023-.812 1.542-1.213-.718-.904-3.482-2.114-4.882-1.77.274.713.255 1.457.198 2.204-.054.684-.288 2.024-.804 2.248-.166.073-.789-.434-.95-.605-1.038-1.123-1.13-2.943-1.206-3.286-1.514.37-3.387 2.798-3.586 4.67 3.434 0 4.325 4.12 11.871 4.12 7.544 0 8.438-4.12 11.871-4.12-.198-1.872-2.071-4.3-3.585-4.67z" fill="#009974"/></svg>