<svg width="22" height="22" fill="none" xmlns="http://www.w3.org/2000/svg"><path d="M17.875 13.75H13.75a1.379 1.379 0 01-1.375-1.375A1.38 1.38 0 0113.75 11h4.125S22 6.402 22 4.125a4.126 4.126 0 00-8.25 0c0 1.096.954 2.724 1.947 4.125H13.75a4.132 4.132 0 00-4.125 4.125A4.132 4.132 0 0013.75 16.5h4.125c.756 0 1.375.619 1.375 1.375s-.619 1.375-1.375 1.375H7.971A29.67 29.67 0 015.938 22h11.937A4.132 4.132 0 0022 17.875a4.132 4.132 0 00-4.125-4.125zm0-11c.76 0 1.375.614 1.375 1.375 0 .76-.614 1.375-1.375 1.375-.76 0-1.375-.614-1.375-1.375 0-.76.614-1.375 1.375-1.375zM4.125 11A4.126 4.126 0 000 15.125C0 17.402 4.125 22 4.125 22s4.125-4.598 4.125-6.875A4.126 4.126 0 004.125 11zm0 5.5c-.76 0-1.375-.614-1.375-1.375 0-.76.614-1.375 1.375-1.375.76 0 1.375.614 1.375 1.375 0 .76-.614 1.375-1.375 1.375z" fill="#EAEAEA"/></svg>