<svg width="49" height="58" fill="none" xmlns="http://www.w3.org/2000/svg"><path d="M33.717.09c-2.735.194-5.931 1.99-7.794 4.33-1.699 2.122-3.097 5.275-2.552 8.338 2.988.096 6.076-1.744 7.864-4.123 1.674-2.214 2.94-5.347 2.482-8.545z" fill="#fff"/><path d="M46.95 18.635c-2.911-3.716-7.002-5.873-10.866-5.873-5.1 0-7.258 2.486-10.801 2.486-3.654 0-6.43-2.479-10.841-2.479-4.333 0-8.946 2.696-11.872 7.307-4.112 6.492-3.408 18.7 3.256 29.097 2.385 3.72 5.57 7.904 9.736 7.94 3.707.036 4.752-2.421 9.774-2.446 5.022-.03 5.975 2.479 9.675 2.439 4.17-.033 7.528-4.669 9.913-8.39 1.71-2.666 2.346-4.009 3.672-7.02-9.643-3.738-11.19-17.7-1.646-23.06z" fill="#fff"/></svg>