<svg width="13" height="15" viewBox="0 0 13 15" fill="none" xmlns="http://www.w3.org/2000/svg">
<path fill-rule="evenodd" clip-rule="evenodd" d="M6.44355 1.07717C6.90688 0.495203 7.70198 0.0482925 8.38223 0C8.49627 0.795599 8.18126 1.57483 7.76498 2.12569C7.31998 2.71748 6.552 3.17503 5.80875 3.15129C5.67318 2.38925 6.02088 1.60511 6.44355 1.07717ZM8.97113 3.15217C9.9322 3.15217 10.9499 3.68872 11.674 4.61327C9.30003 5.94654 9.68464 9.41968 12.0833 10.3496C11.7535 11.0986 11.5953 11.4326 11.17 12.0961C10.5767 13.0216 9.74122 14.1748 8.70412 14.1829C8.2778 14.1875 7.99812 14.0561 7.69654 13.9144C7.34703 13.7502 6.96811 13.5723 6.29746 13.5761C5.6305 13.5795 5.24552 13.7553 4.89122 13.917C4.58187 14.0583 4.29591 14.1889 3.86605 14.1847C2.82983 14.1757 2.03763 13.135 1.44437 12.2095C-0.213411 9.62314 -0.388473 6.58661 0.634488 4.97157C1.36214 3.82466 2.50977 3.15397 3.58755 3.15397C4.16197 3.15397 4.62492 3.32299 5.0661 3.48405C5.46763 3.63064 5.85113 3.77064 6.2842 3.77064C6.68493 3.77064 7.0144 3.64283 7.37379 3.50341C7.80494 3.33614 8.27916 3.15217 8.97113 3.15217Z" fill="white"/>
</svg>
