<svg width="25" height="20" viewBox="0 0 25 20" fill="none" xmlns="http://www.w3.org/2000/svg">
<path fill-rule="evenodd" clip-rule="evenodd" d="M20.9826 2.25575C19.3909 1.51814 17.6957 0.974636 15.9099 0.664062C15.6899 1.05228 15.4311 1.58284 15.2628 2.00988C13.3735 1.72519 11.4971 1.72519 9.64664 2.00988C9.46547 1.58284 9.20666 1.05228 8.98667 0.664062C7.20087 0.974636 5.50566 1.51814 3.91397 2.25575C0.70471 7.09552 -0.162308 11.8189 0.264731 16.4645C2.39992 18.0562 4.45747 19.0138 6.48914 19.6479C6.99382 18.9621 7.4338 18.2244 7.82202 17.461C7.08441 17.1892 6.38562 16.8398 5.72565 16.4386C5.84204 16.3555 5.95309 16.267 6.06223 16.1801L6.06227 16.18C6.123 16.1317 6.18313 16.0837 6.24327 16.0375C10.2937 17.9268 14.6805 17.9268 18.6791 16.0375C18.8474 16.1798 19.0156 16.3092 19.1968 16.4386C18.5368 16.8398 17.8251 17.1763 17.1004 17.461C17.4886 18.2244 17.9286 18.9621 18.4333 19.6479C20.4649 19.0138 22.5354 18.0562 24.6577 16.4645C25.1624 11.0683 23.7907 6.39673 21.0084 2.25575H20.9826ZM8.36552 13.6176C7.14911 13.6176 6.15269 12.4918 6.15269 11.1071C6.15269 9.7225 7.12323 8.59667 8.36552 8.59667C9.60782 8.59667 10.5913 9.7225 10.5783 11.1071C10.5783 12.4788 9.60782 13.6176 8.36552 13.6176ZM14.3182 11.1071C14.3182 12.4918 15.3146 13.6176 16.531 13.6176C17.7733 13.6176 18.7438 12.4788 18.7438 11.1071C18.7568 9.7225 17.7733 8.59667 16.531 8.59667C15.2887 8.59667 14.3182 9.7225 14.3182 11.1071Z" fill="white"/>
</svg>
