<svg width="13" height="14" viewBox="0 0 13 14" fill="none" xmlns="http://www.w3.org/2000/svg">
<path fill-rule="evenodd" clip-rule="evenodd" d="M0.589514 0.217966C1.10812 -0.0685918 1.72095 -0.0752754 2.24289 0.213789L8.70964 3.79033L6.66773 5.83634L0.589514 0.217966ZM0 1.58906C0 1.28997 0.0852308 1.00782 0.233967 0.761262L6.34385 6.47622L0.218091 12.6877C0.0777105 12.4462 0 12.17 0 11.8802V1.58906ZM11.4073 5.36687L9.42012 4.31382L7.18712 6.4575L9.92371 8.88139L11.4081 8.09466C11.9423 7.81037 12.2622 7.30059 12.2622 6.73036C12.2613 6.16013 11.9423 5.65035 11.4073 5.36687ZM0.761262 13.2178L6.88719 7.10511L9.3889 9.40766L2.44129 13.2336C2.18045 13.3774 1.89545 13.449 1.61211 13.449C1.31877 13.449 1.0271 13.3691 0.761262 13.2178Z" fill="white"/>
</svg>
