<svg width="50" height="55" fill="none" xmlns="http://www.w3.org/2000/svg"><path fill-rule="evenodd" clip-rule="evenodd" d="M2.61 1.442C4.673.302 7.113.275 9.191 1.425l25.745 14.24-8.13 8.145L2.61 1.442zM.261 6.901c0-1.191.34-2.314.932-3.296l24.324 22.752L1.13 51.087a6.378 6.378 0 01-.868-3.215V6.9zm45.415 15.04l-7.911-4.193-8.89 8.535 10.894 9.65 5.91-3.132c2.127-1.132 3.4-3.162 3.4-5.432-.003-2.27-1.273-4.3-3.403-5.428zM3.293 53.197L27.68 28.86l9.96 9.167L9.981 53.26a6.83 6.83 0 01-3.3.857 6.845 6.845 0 01-3.388-.92z" fill="#fff"/></svg>