<svg width="126" height="29" viewBox="0 0 126 29" fill="none" xmlns="http://www.w3.org/2000/svg">
<path d="M35.6931 22.1547C34.9681 22.1547 34.3006 22.0297 33.6906 21.7797C33.0806 21.5247 32.5506 21.1547 32.1006 20.6697C31.6506 20.1847 31.3006 19.5947 31.0506 18.8997C30.8006 18.2047 30.6756 17.4147 30.6756 16.5297C30.6756 15.3647 30.8881 14.3647 31.3131 13.5297C31.7381 12.6897 32.3281 12.0447 33.0831 11.5947C33.8381 11.1397 34.7081 10.9122 35.6931 10.9122C36.9631 10.9122 37.9756 11.2072 38.7306 11.7972C39.4906 12.3872 40.0081 13.2022 40.2831 14.2422L38.6931 14.5272C38.4731 13.8822 38.1181 13.3672 37.6281 12.9822C37.1381 12.5972 36.5231 12.4022 35.7831 12.3972C35.0181 12.3922 34.3806 12.5622 33.8706 12.9072C33.3656 13.2522 32.9856 13.7372 32.7306 14.3622C32.4756 14.9822 32.3456 15.7047 32.3406 16.5297C32.3356 17.3547 32.4606 18.0772 32.7156 18.6972C32.9706 19.3122 33.3531 19.7922 33.8631 20.1372C34.3781 20.4822 35.0181 20.6572 35.7831 20.6622C36.3981 20.6722 36.9256 20.5597 37.3656 20.3247C37.8106 20.0847 38.1631 19.7347 38.4231 19.2747C38.6831 18.8147 38.8506 18.2497 38.9256 17.5797H36.8256V16.3197H40.5906C40.6006 16.4097 40.6081 16.5297 40.6131 16.6797C40.6181 16.8247 40.6206 16.9172 40.6206 16.9572C40.6206 17.9572 40.4281 18.8497 40.0431 19.6347C39.6581 20.4197 39.0981 21.0372 38.3631 21.4872C37.6281 21.9322 36.7381 22.1547 35.6931 22.1547ZM45.2238 22.1547C44.4138 22.1547 43.7113 21.9722 43.1163 21.6072C42.5213 21.2422 42.0613 20.7397 41.7363 20.0997C41.4163 19.4547 41.2563 18.7122 41.2563 17.8722C41.2563 17.0272 41.4213 16.2847 41.7513 15.6447C42.0813 14.9997 42.5438 14.4997 43.1388 14.1447C43.7338 13.7847 44.4288 13.6047 45.2238 13.6047C46.0338 13.6047 46.7363 13.7872 47.3313 14.1522C47.9263 14.5172 48.3863 15.0197 48.7113 15.6597C49.0363 16.2997 49.1988 17.0372 49.1988 17.8722C49.1988 18.7172 49.0338 19.4622 48.7038 20.1072C48.3788 20.7472 47.9188 21.2497 47.3238 21.6147C46.7288 21.9747 46.0288 22.1547 45.2238 22.1547ZM45.2238 20.6772C45.9988 20.6772 46.5763 20.4172 46.9563 19.8972C47.3413 19.3722 47.5338 18.6972 47.5338 17.8722C47.5338 17.0272 47.3388 16.3522 46.9488 15.8472C46.5638 15.3372 45.9888 15.0822 45.2238 15.0822C44.6988 15.0822 44.2663 15.2022 43.9263 15.4422C43.5863 15.6772 43.3338 16.0047 43.1688 16.4247C43.0038 16.8397 42.9213 17.3222 42.9213 17.8722C42.9213 18.7222 43.1163 19.4022 43.5063 19.9122C43.8963 20.4222 44.4688 20.6772 45.2238 20.6772ZM53.9554 22.1547C53.1454 22.1547 52.4429 21.9722 51.8479 21.6072C51.2529 21.2422 50.7929 20.7397 50.4679 20.0997C50.1479 19.4547 49.9879 18.7122 49.9879 17.8722C49.9879 17.0272 50.1529 16.2847 50.4829 15.6447C50.8129 14.9997 51.2754 14.4997 51.8704 14.1447C52.4654 13.7847 53.1604 13.6047 53.9554 13.6047C54.7654 13.6047 55.4679 13.7872 56.0629 14.1522C56.6579 14.5172 57.1179 15.0197 57.4429 15.6597C57.7679 16.2997 57.9304 17.0372 57.9304 17.8722C57.9304 18.7172 57.7654 19.4622 57.4354 20.1072C57.1104 20.7472 56.6504 21.2497 56.0554 21.6147C55.4604 21.9747 54.7604 22.1547 53.9554 22.1547ZM53.9554 20.6772C54.7304 20.6772 55.3079 20.4172 55.6879 19.8972C56.0729 19.3722 56.2654 18.6972 56.2654 17.8722C56.2654 17.0272 56.0704 16.3522 55.6804 15.8472C55.2954 15.3372 54.7204 15.0822 53.9554 15.0822C53.4304 15.0822 52.9979 15.2022 52.6579 15.4422C52.3179 15.6772 52.0654 16.0047 51.9004 16.4247C51.7354 16.8397 51.6529 17.3222 51.6529 17.8722C51.6529 18.7222 51.8479 19.4022 52.2379 19.9122C52.6279 20.4222 53.2004 20.6772 53.9554 20.6772ZM62.5069 25.7547C62.0719 25.7547 61.6494 25.6872 61.2394 25.5522C60.8344 25.4172 60.4644 25.2172 60.1294 24.9522C59.7944 24.6922 59.5169 24.3697 59.2969 23.9847L60.7444 23.2497C60.9194 23.5947 61.1694 23.8472 61.4944 24.0072C61.8194 24.1672 62.1619 24.2472 62.5219 24.2472C62.9669 24.2472 63.3469 24.1672 63.6619 24.0072C63.9769 23.8522 64.2144 23.6172 64.3744 23.3022C64.5394 22.9872 64.6194 22.5972 64.6144 22.1322V19.8672H64.8019V13.8297H66.1894V22.1472C66.1894 22.3622 66.1819 22.5672 66.1669 22.7622C66.1519 22.9572 66.1244 23.1522 66.0844 23.3472C65.9694 23.8922 65.7494 24.3422 65.4244 24.6972C65.1044 25.0522 64.6944 25.3172 64.1944 25.4922C63.6994 25.6672 63.1369 25.7547 62.5069 25.7547ZM62.3869 22.1547C61.6319 22.1547 60.9794 21.9672 60.4294 21.5922C59.8844 21.2172 59.4619 20.7072 59.1619 20.0622C58.8669 19.4122 58.7194 18.6822 58.7194 17.8722C58.7194 17.0572 58.8694 16.3297 59.1694 15.6897C59.4694 15.0447 59.8944 14.5372 60.4444 14.1672C60.9994 13.7922 61.6569 13.6047 62.4169 13.6047C63.1819 13.6047 63.8244 13.7922 64.3444 14.1672C64.8694 14.5372 65.2644 15.0447 65.5294 15.6897C65.7994 16.3347 65.9344 17.0622 65.9344 17.8722C65.9344 18.6822 65.7994 19.4097 65.5294 20.0547C65.2594 20.6997 64.8619 21.2122 64.3369 21.5922C63.8119 21.9672 63.1619 22.1547 62.3869 22.1547ZM62.6044 20.7372C63.1194 20.7372 63.5394 20.6147 63.8644 20.3697C64.1894 20.1247 64.4269 19.7872 64.5769 19.3572C64.7269 18.9272 64.8019 18.4322 64.8019 17.8722C64.8019 17.3122 64.7244 16.8172 64.5694 16.3872C64.4194 15.9572 64.1844 15.6222 63.8644 15.3822C63.5494 15.1422 63.1469 15.0222 62.6569 15.0222C62.1369 15.0222 61.7094 15.1497 61.3744 15.4047C61.0394 15.6597 60.7894 16.0022 60.6244 16.4322C60.4644 16.8622 60.3844 17.3422 60.3844 17.8722C60.3844 18.4072 60.4644 18.8922 60.6244 19.3272C60.7894 19.7572 61.0344 20.0997 61.3594 20.3547C61.6894 20.6097 62.1044 20.7372 62.6044 20.7372ZM68.0363 21.9297V10.9047H69.6038V21.9297H68.0363ZM75.0394 22.1547C74.2344 22.1547 73.5269 21.9797 72.9169 21.6297C72.3119 21.2747 71.8394 20.7822 71.4994 20.1522C71.1644 19.5172 70.9969 18.7822 70.9969 17.9472C70.9969 17.0622 71.1619 16.2947 71.4919 15.6447C71.8269 14.9947 72.2919 14.4922 72.8869 14.1372C73.4819 13.7822 74.1744 13.6047 74.9644 13.6047C75.7894 13.6047 76.4919 13.7972 77.0719 14.1822C77.6519 14.5622 78.0844 15.1047 78.3694 15.8097C78.6594 16.5147 78.7744 17.3522 78.7144 18.3222H77.1469V17.7522C77.1369 16.8122 76.9569 16.1172 76.6069 15.6672C76.2619 15.2172 75.7344 14.9922 75.0244 14.9922C74.2394 14.9922 73.6494 15.2397 73.2544 15.7347C72.8594 16.2297 72.6619 16.9447 72.6619 17.8797C72.6619 18.7697 72.8594 19.4597 73.2544 19.9497C73.6494 20.4347 74.2194 20.6772 74.9644 20.6772C75.4544 20.6772 75.8769 20.5672 76.2319 20.3472C76.5919 20.1222 76.8719 19.8022 77.0719 19.3872L78.6094 19.8747C78.2944 20.5997 77.8169 21.1622 77.1769 21.5622C76.5369 21.9572 75.8244 22.1547 75.0394 22.1547ZM72.1519 18.3222V17.0997H77.9344V18.3222H72.1519ZM82.5819 21.9297V11.1297H86.9469C87.0519 11.1297 87.1819 11.1347 87.3369 11.1447C87.4919 11.1497 87.6394 11.1647 87.7794 11.1897C88.3794 11.2847 88.8794 11.4897 89.2794 11.8047C89.6844 12.1197 89.9869 12.5172 90.1869 12.9972C90.3869 13.4772 90.4869 14.0072 90.4869 14.5872C90.4869 15.1722 90.3869 15.7047 90.1869 16.1847C89.9869 16.6647 89.6844 17.0622 89.2794 17.3772C88.8794 17.6922 88.3794 17.8972 87.7794 17.9922C87.6394 18.0122 87.4894 18.0272 87.3294 18.0372C87.1744 18.0472 87.0469 18.0522 86.9469 18.0522H84.1494V21.9297H82.5819ZM84.1494 16.5672H86.8869C86.9869 16.5672 87.0969 16.5622 87.2169 16.5522C87.3419 16.5422 87.4594 16.5247 87.5694 16.4997C87.8894 16.4247 88.1469 16.2872 88.3419 16.0872C88.5369 15.8822 88.6769 15.6472 88.7619 15.3822C88.8469 15.1172 88.8894 14.8522 88.8894 14.5872C88.8894 14.3222 88.8469 14.0597 88.7619 13.7997C88.6769 13.5347 88.5369 13.3022 88.3419 13.1022C88.1469 12.8972 87.8894 12.7572 87.5694 12.6822C87.4594 12.6522 87.3419 12.6322 87.2169 12.6222C87.0969 12.6122 86.9869 12.6072 86.8869 12.6072H84.1494V16.5672ZM91.7271 21.9297V10.9047H93.2946V21.9297H91.7271ZM97.4252 22.1547C96.8252 22.1547 96.3227 22.0447 95.9177 21.8247C95.5127 21.5997 95.2052 21.3047 94.9952 20.9397C94.7902 20.5697 94.6877 20.1647 94.6877 19.7247C94.6877 19.3147 94.7602 18.9547 94.9052 18.6447C95.0502 18.3347 95.2652 18.0722 95.5502 17.8572C95.8352 17.6372 96.1852 17.4597 96.6002 17.3247C96.9602 17.2197 97.3677 17.1272 97.8227 17.0472C98.2777 16.9672 98.7552 16.8922 99.2552 16.8222C99.7602 16.7522 100.26 16.6822 100.755 16.6122L100.185 16.9272C100.195 16.2922 100.06 15.8222 99.7802 15.5172C99.5052 15.2072 99.0302 15.0522 98.3552 15.0522C97.9302 15.0522 97.5402 15.1522 97.1852 15.3522C96.8302 15.5472 96.5827 15.8722 96.4427 16.3272L94.9802 15.8772C95.1802 15.1822 95.5602 14.6297 96.1202 14.2197C96.6852 13.8097 97.4352 13.6047 98.3702 13.6047C99.0952 13.6047 99.7252 13.7297 100.26 13.9797C100.8 14.2247 101.195 14.6147 101.445 15.1497C101.575 15.4147 101.655 15.6947 101.685 15.9897C101.715 16.2847 101.73 16.6022 101.73 16.9422V21.9297H100.343V20.0772L100.613 20.3172C100.278 20.9372 99.8502 21.3997 99.3302 21.7047C98.8152 22.0047 98.1802 22.1547 97.4252 22.1547ZM97.7027 20.8722C98.1477 20.8722 98.5302 20.7947 98.8502 20.6397C99.1702 20.4797 99.4277 20.2772 99.6227 20.0322C99.8177 19.7872 99.9452 19.5322 100.005 19.2672C100.09 19.0272 100.138 18.7572 100.148 18.4572C100.163 18.1572 100.17 17.9172 100.17 17.7372L100.68 17.9247C100.185 17.9997 99.7352 18.0672 99.3302 18.1272C98.9252 18.1872 98.5577 18.2472 98.2277 18.3072C97.9027 18.3622 97.6127 18.4297 97.3577 18.5097C97.1427 18.5847 96.9502 18.6747 96.7802 18.7797C96.6152 18.8847 96.4827 19.0122 96.3827 19.1622C96.2877 19.3122 96.2402 19.4947 96.2402 19.7097C96.2402 19.9197 96.2927 20.1147 96.3977 20.2947C96.5027 20.4697 96.6627 20.6097 96.8777 20.7147C97.0927 20.8197 97.3677 20.8722 97.7027 20.8722ZM103.91 25.5297L105.477 21.2622L105.5 22.5222L101.967 13.8297H103.602L106.242 20.5422H105.762L108.282 13.8297H109.872L105.402 25.5297H103.91Z" fill="white"/>
<path opacity="0.368257" d="M33.6938 8.79641C33.3555 8.79641 33.044 8.73807 32.7593 8.62141C32.4747 8.50241 32.2273 8.32974 32.0173 8.10341C31.8073 7.87707 31.644 7.60174 31.5273 7.27741C31.4107 6.95307 31.3523 6.58441 31.3523 6.17141C31.3523 5.62774 31.4515 5.16107 31.6498 4.77141C31.8482 4.37941 32.1235 4.07841 32.4758 3.86841C32.8282 3.65607 33.2342 3.54991 33.6938 3.54991C34.2865 3.54991 34.759 3.68757 35.1113 3.96291C35.466 4.23824 35.7075 4.61857 35.8358 5.10391L35.0938 5.23691C34.9912 4.93591 34.8255 4.69557 34.5968 4.51591C34.3682 4.33624 34.0812 4.24524 33.7358 4.24291C33.3788 4.24057 33.0813 4.31991 32.8433 4.48091C32.6077 4.64191 32.4303 4.86824 32.3113 5.15991C32.1923 5.44924 32.1317 5.78641 32.1293 6.17141C32.127 6.55641 32.1853 6.89357 32.3043 7.18291C32.4233 7.46991 32.6018 7.69391 32.8398 7.85491C33.0802 8.01591 33.3788 8.09757 33.7358 8.09991C34.0228 8.10457 34.269 8.05207 34.4743 7.94241C34.682 7.83041 34.8465 7.66707 34.9678 7.45241C35.0892 7.23774 35.1673 6.97407 35.2023 6.66141H34.2223V6.07341H35.9793C35.984 6.11541 35.9875 6.17141 35.9898 6.24141C35.9922 6.30907 35.9933 6.35224 35.9933 6.37091C35.9933 6.83757 35.9035 7.25407 35.7238 7.62041C35.5442 7.98674 35.2828 8.27491 34.9398 8.48491C34.5968 8.69257 34.1815 8.79641 33.6938 8.79641ZM38.3674 8.79641C37.9918 8.79641 37.6616 8.71474 37.3769 8.55141C37.0946 8.38574 36.8741 8.15591 36.7154 7.86191C36.5591 7.56557 36.4809 7.22257 36.4809 6.83291C36.4809 6.41991 36.5579 6.06174 36.7119 5.75841C36.8683 5.45507 37.0853 5.22057 37.3629 5.05491C37.6406 4.88924 37.9638 4.80641 38.3324 4.80641C38.7174 4.80641 39.0453 4.89624 39.3159 5.07591C39.5866 5.25324 39.7884 5.50641 39.9214 5.83541C40.0568 6.16441 40.1104 6.55524 40.0824 7.00791H39.3509V6.74191C39.3463 6.30324 39.2623 5.97891 39.0989 5.76891C38.9379 5.55891 38.6918 5.45391 38.3604 5.45391C37.9941 5.45391 37.7188 5.56941 37.5344 5.80041C37.3501 6.03141 37.2579 6.36507 37.2579 6.80141C37.2579 7.21674 37.3501 7.53874 37.5344 7.76741C37.7188 7.99374 37.9848 8.10691 38.3324 8.10691C38.5611 8.10691 38.7583 8.05557 38.9239 7.95291C39.0919 7.84791 39.2226 7.69857 39.3159 7.50491L40.0334 7.73241C39.8864 8.07074 39.6636 8.33324 39.3649 8.51991C39.0663 8.70424 38.7338 8.79641 38.3674 8.79641ZM37.0199 7.00791V6.43741H39.7184V7.00791H37.0199ZM43.0307 8.69141C42.7927 8.73807 42.5594 8.75791 42.3307 8.75091C42.102 8.74391 41.8979 8.69957 41.7182 8.61791C41.5385 8.53624 41.4032 8.40791 41.3122 8.23291C41.2305 8.07657 41.1862 7.91791 41.1792 7.75691C41.1745 7.59357 41.1722 7.40924 41.1722 7.20391V3.86141H41.9072V7.16891C41.9072 7.32057 41.9084 7.45241 41.9107 7.56441C41.9154 7.67641 41.9399 7.77091 41.9842 7.84791C42.0682 7.99257 42.2012 8.07541 42.3832 8.09641C42.5675 8.11507 42.7834 8.10691 43.0307 8.07191V8.69141ZM40.4477 5.49941V4.91141H43.0307V5.49941H40.4477ZM45.299 4.29191V3.58141H46.0305V4.29191H45.299ZM45.299 8.69141V4.91141H46.0305V8.69141H45.299ZM49.2446 8.69141C49.0066 8.73807 48.7732 8.75791 48.5446 8.75091C48.3159 8.74391 48.1117 8.69957 47.9321 8.61791C47.7524 8.53624 47.6171 8.40791 47.5261 8.23291C47.4444 8.07657 47.4001 7.91791 47.3931 7.75691C47.3884 7.59357 47.3861 7.40924 47.3861 7.20391V3.86141H48.1211V7.16891C48.1211 7.32057 48.1222 7.45241 48.1246 7.56441C48.1292 7.67641 48.1537 7.77091 48.1981 7.84791C48.2821 7.99257 48.4151 8.07541 48.5971 8.09641C48.7814 8.11507 48.9972 8.10691 49.2446 8.07191V8.69141ZM46.6616 5.49941V4.91141H49.2446V5.49941H46.6616ZM53.0844 8.79641C52.7064 8.79641 52.3785 8.71124 52.1009 8.54091C51.8232 8.37057 51.6085 8.13607 51.4569 7.83741C51.3075 7.53641 51.2329 7.18991 51.2329 6.79791C51.2329 6.40357 51.3099 6.05707 51.4639 5.75841C51.6179 5.45741 51.8337 5.22407 52.1114 5.05841C52.389 4.89041 52.7134 4.80641 53.0844 4.80641C53.4624 4.80641 53.7902 4.89157 54.0679 5.06191C54.3455 5.23224 54.5602 5.46674 54.7119 5.76541C54.8635 6.06407 54.9394 6.40824 54.9394 6.79791C54.9394 7.19224 54.8624 7.53991 54.7084 7.84091C54.5567 8.13957 54.342 8.37407 54.0644 8.54441C53.7867 8.71241 53.46 8.79641 53.0844 8.79641ZM53.0844 8.10691C53.446 8.10691 53.7155 7.98557 53.8929 7.74291C54.0725 7.49791 54.1624 7.18291 54.1624 6.79791C54.1624 6.40357 54.0714 6.08857 53.8894 5.85291C53.7097 5.61491 53.4414 5.49591 53.0844 5.49591C52.8394 5.49591 52.6375 5.55191 52.4789 5.66391C52.3202 5.77357 52.2024 5.92641 52.1254 6.12241C52.0484 6.31607 52.0099 6.54124 52.0099 6.79791C52.0099 7.19457 52.1009 7.51191 52.2829 7.74991C52.4649 7.98791 52.732 8.10691 53.0844 8.10691ZM58.3615 8.69141V6.83291C58.3615 6.68591 58.3487 6.53541 58.323 6.38141C58.2997 6.22507 58.253 6.08041 58.183 5.94741C58.1153 5.81441 58.0185 5.70707 57.8925 5.62541C57.7688 5.54374 57.6067 5.50291 57.406 5.50291C57.2753 5.50291 57.1517 5.52507 57.035 5.56941C56.9183 5.61141 56.8157 5.68024 56.727 5.77591C56.6407 5.87157 56.5718 5.99757 56.5205 6.15391C56.4715 6.31024 56.447 6.50041 56.447 6.72441L55.992 6.55291C55.992 6.20991 56.0562 5.90774 56.1845 5.64641C56.3128 5.38274 56.4972 5.17741 56.7375 5.03041C56.9778 4.88341 57.2683 4.80991 57.609 4.80991C57.8703 4.80991 58.0897 4.85191 58.267 4.93591C58.4443 5.01991 58.5878 5.13074 58.6975 5.26841C58.8095 5.40374 58.8947 5.55191 58.953 5.71291C59.0113 5.87391 59.051 6.03141 59.072 6.18541C59.093 6.33941 59.1035 6.47474 59.1035 6.59141V8.69141H58.3615ZM55.705 8.69141V4.91141H56.3595V6.00341H56.447V8.69141H55.705Z" fill="white"/>
<path fill-rule="evenodd" clip-rule="evenodd" d="M1.5344 1.45998C2.43365 0.963096 3.49626 0.951507 4.40129 1.45273L15.6144 7.65433L12.0738 11.202L1.5344 1.45998ZM0.512207 3.83741C0.512207 3.31879 0.659994 2.82956 0.917897 2.40203L11.5122 12.3116L0.890368 23.082C0.646954 22.6633 0.512207 22.1844 0.512207 21.6819V3.83741ZM20.292 10.388L16.8463 8.56203L12.9744 12.2791L17.7196 16.482L20.2935 15.1179C21.2198 14.6249 21.7744 13.741 21.7744 12.7522C21.7729 11.7635 21.2198 10.8795 20.292 10.388ZM1.83221 24.0012L12.4543 13.402L16.7922 17.3946L4.74531 24.0286C4.29303 24.278 3.79884 24.402 3.30754 24.402C2.79891 24.402 2.29316 24.2636 1.83221 24.0012Z" fill="white"/>
</svg>
