<svg width="78" height="45" viewBox="0 0 78 45" fill="none" xmlns="http://www.w3.org/2000/svg">
<path fill-rule="evenodd" clip-rule="evenodd" d="M78 39.946V1.06286C78 0.475571 77.5237 0 76.9371 0C76.3499 0 75.8736 0.475571 75.8736 1.06286V39.946C75.8736 40.5324 76.3499 41.009 76.9371 41.009C77.5237 41.009 78 40.5333 78 39.946ZM72.6888 8.00675C72.7863 8.0484 72.888 8.06866 72.9882 8.06866C73.2821 8.06866 73.5627 7.89644 73.6865 7.60927C73.8525 7.22389 73.6744 6.77716 73.2889 6.6117L62.8455 2.12318C62.4607 1.95772 62.0132 2.13528 61.8478 2.52081C61.6817 2.90619 61.8599 3.35291 62.2454 3.51838L72.6888 8.00675ZM72.3794 12.9486L60.5965 11.9389C60.1821 11.9032 59.8108 12.2127 59.7737 12.6305C59.7381 13.0482 60.0482 13.4163 60.4659 13.4519L72.2488 14.4617C72.2711 14.4637 72.2933 14.4644 72.3148 14.4644C72.7057 14.4644 73.0373 14.1657 73.0709 13.77C73.1072 13.3523 72.7971 12.9842 72.3794 12.9486ZM72.3801 22.1751H60.6847C60.265 22.1751 59.9252 21.8353 59.9252 21.4156C59.9252 20.9957 60.265 20.6561 60.6847 20.6561H72.3801C72.7998 20.6561 73.1396 20.9959 73.1396 21.4156C73.1396 21.8354 72.7998 22.1751 72.3801 22.1751ZM59.8349 30.1906C59.8861 30.572 60.2124 30.8493 60.5871 30.8493C60.6207 30.8493 60.655 30.8465 60.6885 30.8424L72.4156 29.2717C72.8313 29.2159 73.1233 28.8339 73.0674 28.4182C73.0116 28.0024 72.6308 27.7092 72.2138 27.7663L60.4868 29.3371C60.071 29.3928 59.7792 29.7751 59.8349 30.1906ZM73.2962 34.823L62.1867 39.7611C62.0865 39.8053 61.9816 39.8271 61.8787 39.8271C61.5875 39.8271 61.3101 39.6589 61.1844 39.3756C61.0142 38.9922 61.187 38.5435 61.5699 38.3731L72.6794 33.4353C73.0622 33.2652 73.5116 33.4373 73.6817 33.8208C73.8525 34.2042 73.6798 34.6529 73.2962 34.823ZM31.7002 19.793C31.7002 22.3711 33.7902 24.4611 36.3683 24.4611C38.9464 24.4611 41.0363 22.3711 41.0363 19.793C41.0363 17.2149 38.9464 15.125 36.3683 15.125C33.7902 15.125 31.7002 17.2149 31.7002 19.793ZM9.58282 24.4611C7.00473 24.4611 4.91477 22.3711 4.91477 19.793C4.91477 17.2149 7.00473 15.125 9.58282 15.125C12.1609 15.125 14.2509 17.2149 14.2509 19.793C14.2509 22.3711 12.1609 24.4611 9.58282 24.4611ZM54.4699 43.4839C53.9956 44.1632 53.2644 44.5562 52.4989 44.6242C51.8914 44.678 51.2624 44.5261 50.7228 44.1498L45.1291 40.244C42.4792 43.6219 40.9428 44.9261 36.6401 44.9261C36.5423 44.9388 35.8827 44.9332 35.322 44.9284L35.3213 44.9284C34.9293 44.925 34.5858 44.922 34.5169 44.9261C31.2583 44.9126 30.5949 42.8697 30.5646 39.5599C30.5625 39.3207 30.5598 39.0459 30.5568 38.7424L30.5568 38.7366C30.5313 36.1286 30.4852 31.4108 30.5646 28.9644C30.6458 26.0732 32.9307 26.0061 34.0805 25.9724L34.2015 25.9687C34.2885 25.9738 35.1673 25.9714 36.014 25.969C36.7946 25.9668 37.5479 25.9647 37.6283 25.9687C38.0426 25.9687 38.6965 26.005 39.3355 26.4516L43.6323 29.4764C44.2713 29.9169 44.9118 30.3662 45.5194 30.8043L48.5903 32.9665C49.7743 33.7931 50.0791 35.3958 49.3169 36.6039L53.804 39.7374C55.0229 40.5877 55.3209 42.2656 54.4699 43.4839ZM3.88892 28.1867L0.0187836 41.009C0.0187836 41.009 -0.233498 41.8936 1.11105 41.8927H3.99655C4.36449 43.8008 5.3546 44.9148 7.75511 44.9247C7.824 44.9206 8.16748 44.9236 8.55952 44.927C9.12029 44.9318 9.78041 44.9374 9.8783 44.9247C14.1809 44.9247 15.7174 43.6205 18.3674 40.2426L23.9611 44.1484C24.5005 44.5247 25.1296 44.6766 25.7372 44.6227C26.5029 44.5548 27.2341 44.1618 27.7081 43.4825C28.5591 42.2643 28.2618 40.5871 27.0427 39.736L22.5556 36.6025C23.3179 35.3944 23.0132 33.7917 21.829 32.9651L18.7581 30.8029C18.1508 30.3648 17.5102 29.9155 16.8713 29.475L12.5744 26.4502C11.9355 26.0036 11.2814 25.9673 10.867 25.9673C10.7873 25.9633 10.0441 25.9654 9.26941 25.9676C8.4177 25.9701 7.52798 25.9726 7.44022 25.9673C7.40433 25.9685 7.36701 25.9696 7.3284 25.9708C6.29532 26.0019 4.33387 26.0609 3.89497 28.1905L3.88892 28.1867Z" fill="#AB59D2"/>
</svg>
