<svg width="66" height="39" viewBox="0 0 66 39" fill="none" xmlns="http://www.w3.org/2000/svg">
<path fill-rule="evenodd" clip-rule="evenodd" d="M-0.000244141 33.8004V0.899342C-0.000244141 0.402406 0.402757 0 0.899098 0C1.39603 0 1.79903 0.402406 1.79903 0.899342V33.8004C1.79903 34.2967 1.39603 34.6999 0.899098 34.6999C0.402757 34.6999 -0.000244141 34.2974 -0.000244141 33.8004ZM4.49384 6.77495C4.41134 6.81019 4.32526 6.82733 4.2405 6.82733C3.99179 6.82733 3.75439 6.68161 3.64963 6.43861C3.50914 6.11252 3.65986 5.73452 3.98608 5.59451L12.8228 1.79654C13.1484 1.65653 13.527 1.80678 13.667 2.13299C13.8075 2.45908 13.6568 2.83708 13.3306 2.97709L4.49384 6.77495ZM4.75565 10.9565L14.7258 10.1022C15.0764 10.0719 15.3906 10.3339 15.422 10.6873C15.4521 11.0408 15.1897 11.3523 14.8363 11.3824L4.86613 12.2368C4.84732 12.2385 4.82851 12.2391 4.81029 12.2391C4.47956 12.2391 4.19895 11.9863 4.17049 11.6516C4.13978 11.2981 4.40217 10.9866 4.75565 10.9565ZM4.75505 18.7635H14.6511C15.0063 18.7635 15.2938 18.476 15.2938 18.1209C15.2938 17.7656 15.0063 17.4782 14.6511 17.4782H4.75505C4.39991 17.4782 4.11239 17.7657 4.11239 18.1209C4.11239 18.4762 4.39991 18.7635 4.75505 18.7635ZM15.3702 25.5459C15.3269 25.8686 15.0508 26.1033 14.7338 26.1033C14.7053 26.1033 14.6763 26.1009 14.6479 26.0975L4.72505 24.7683C4.37324 24.7212 4.1262 24.3979 4.17347 24.0461C4.22073 23.6943 4.5429 23.4462 4.89577 23.4946L14.8187 24.8237C15.1705 24.8708 15.4174 25.1943 15.3702 25.5459ZM3.97988 29.4656L13.3802 33.644C13.465 33.6814 13.5538 33.6998 13.6408 33.6998C13.8873 33.6998 14.1219 33.5576 14.2284 33.3178C14.3723 32.9934 14.2261 32.6137 13.9022 32.4695L4.50182 28.2914C4.17787 28.1475 3.79761 28.2931 3.65367 28.6176C3.50914 28.942 3.65534 29.3217 3.97988 29.4656ZM39.1765 16.7479C39.1765 18.9294 37.4081 20.6978 35.2266 20.6978C33.0451 20.6978 31.2767 18.9294 31.2767 16.7479C31.2767 14.5665 33.0451 12.7981 35.2266 12.7981C37.4081 12.7981 39.1765 14.5665 39.1765 16.7479ZM57.8912 20.6978C60.0727 20.6978 61.8411 18.9294 61.8411 16.7479C61.8411 14.5665 60.0727 12.7981 57.8912 12.7981C55.7098 12.7981 53.9413 14.5665 53.9413 16.7479C53.9413 18.9294 55.7098 20.6978 57.8912 20.6978ZM19.9098 36.7941C20.3111 37.3689 20.9299 37.7014 21.5776 37.7589C22.0916 37.8045 22.6239 37.6759 23.0805 37.3576L27.8136 34.0526C30.0558 36.9109 31.3559 38.0144 34.9966 38.0144C35.0794 38.0252 35.6379 38.0204 36.1124 38.0163H36.1129C36.4444 38.0135 36.7349 38.011 36.7931 38.0144C39.5504 38.003 40.1118 36.2744 40.1374 33.4738L40.144 32.7771V32.7767C40.1656 30.5699 40.2046 26.5782 40.1374 24.5083C40.0687 22.0619 38.1354 22.0052 37.1624 21.9766L37.06 21.9735C36.9864 21.9778 36.243 21.9758 35.5267 21.9738H35.5265C34.866 21.9719 34.2285 21.9701 34.1605 21.9735C33.8098 21.9735 33.2566 22.0042 32.7158 22.3821L29.0801 24.9416C28.5394 25.3143 27.9975 25.6945 27.4834 26.0652L24.8849 27.8947C23.883 28.5942 23.6252 29.9503 24.2701 30.9725L20.4733 33.624C19.4419 34.3434 19.1898 35.7632 19.9098 36.7941ZM62.7091 23.8503L65.9839 34.6999C65.9839 34.6999 66.1973 35.4484 65.0596 35.4477H62.6181C62.3067 37.0622 61.4689 38.0049 59.4377 38.0132C59.3794 38.0098 59.0888 38.0123 58.7571 38.0151C58.2826 38.0192 57.724 38.024 57.6412 38.0132C54.0005 38.0132 52.7004 36.9097 50.4581 34.0514L45.725 37.3564C45.2685 37.6747 44.7362 37.8033 44.2221 37.7577C43.5743 37.7002 42.9555 37.3677 42.5544 36.7929C41.8344 35.7621 42.0859 34.343 43.1174 33.6228L46.9142 30.9713C46.2692 29.9491 46.5271 28.593 47.529 27.8935L50.1275 26.064C50.6414 25.6933 51.1834 25.3131 51.724 24.9404L55.3599 22.3809C55.9005 22.003 56.454 21.9723 56.8046 21.9723C56.872 21.969 57.5009 21.9708 58.1563 21.9726C58.877 21.9747 59.6299 21.9768 59.7042 21.9723C59.7346 21.9733 59.7661 21.9743 59.7988 21.9753C60.673 22.0016 62.3326 22.0516 62.704 23.8535L62.7091 23.8503Z" fill="#626262"/>
</svg>
