<svg width="135" height="135" viewBox="0 0 135 135" fill="none" xmlns="http://www.w3.org/2000/svg">
<mask id="path-1-inside-1_0_1372" fill="white">
<path fill-rule="evenodd" clip-rule="evenodd" d="M67.5 135C104.779 135 135 104.779 135 67.5C135 30.2208 104.779 0 67.5 0C30.2208 0 0 30.2208 0 67.5C0 104.779 30.2208 135 67.5 135ZM93.2941 39.7059C94.3987 39.7059 95.2941 40.6013 95.2941 41.7059V93.2941C95.2941 94.3987 94.3987 95.2941 93.2941 95.2941H41.7059C40.6013 95.2941 39.7059 94.3987 39.7059 93.2941V41.7059C39.7059 40.6013 40.6013 39.7059 41.7059 39.7059H93.2941ZM81.3971 55.6029C81.3971 54.4984 80.5016 53.6029 79.3971 53.6029H55.6029C54.4984 53.6029 53.6029 54.4984 53.6029 55.6029V79.3971C53.6029 80.5016 54.4984 81.3971 55.6029 81.3971H79.3971C80.5016 81.3971 81.3971 80.5016 81.3971 79.3971V55.6029Z"/>
</mask>
<path d="M134 67.5C134 104.227 104.227 134 67.5 134V136C105.332 136 136 105.332 136 67.5H134ZM67.5 1C104.227 1 134 30.7731 134 67.5H136C136 29.6685 105.332 -1 67.5 -1V1ZM1 67.5C1 30.7731 30.7731 1 67.5 1V-1C29.6685 -1 -1 29.6685 -1 67.5H1ZM67.5 134C30.7731 134 1 104.227 1 67.5H-1C-1 105.332 29.6685 136 67.5 136V134ZM96.2941 41.7059C96.2941 40.049 94.951 38.7059 93.2941 38.7059V40.7059C93.8464 40.7059 94.2941 41.1536 94.2941 41.7059H96.2941ZM96.2941 93.2941V41.7059H94.2941V93.2941H96.2941ZM93.2941 96.2941C94.951 96.2941 96.2941 94.951 96.2941 93.2941H94.2941C94.2941 93.8464 93.8464 94.2941 93.2941 94.2941V96.2941ZM41.7059 96.2941H93.2941V94.2941H41.7059V96.2941ZM38.7059 93.2941C38.7059 94.951 40.049 96.2941 41.7059 96.2941V94.2941C41.1536 94.2941 40.7059 93.8464 40.7059 93.2941H38.7059ZM38.7059 41.7059V93.2941H40.7059V41.7059H38.7059ZM41.7059 38.7059C40.049 38.7059 38.7059 40.049 38.7059 41.7059H40.7059C40.7059 41.1536 41.1536 40.7059 41.7059 40.7059V38.7059ZM93.2941 38.7059H41.7059V40.7059H93.2941V38.7059ZM79.3971 54.6029C79.9493 54.6029 80.3971 55.0507 80.3971 55.6029H82.3971C82.3971 53.9461 81.0539 52.6029 79.3971 52.6029V54.6029ZM55.6029 54.6029H79.3971V52.6029H55.6029V54.6029ZM54.6029 55.6029C54.6029 55.0507 55.0507 54.6029 55.6029 54.6029V52.6029C53.9461 52.6029 52.6029 53.9461 52.6029 55.6029H54.6029ZM54.6029 79.3971V55.6029H52.6029V79.3971H54.6029ZM55.6029 80.3971C55.0507 80.3971 54.6029 79.9493 54.6029 79.3971H52.6029C52.6029 81.0539 53.9461 82.3971 55.6029 82.3971V80.3971ZM79.3971 80.3971H55.6029V82.3971H79.3971V80.3971ZM80.3971 79.3971C80.3971 79.9493 79.9493 80.3971 79.3971 80.3971V82.3971C81.0539 82.3971 82.3971 81.0539 82.3971 79.3971H80.3971ZM80.3971 55.6029V79.3971H82.3971V55.6029H80.3971Z" fill="url(#paint0_linear_0_1372)" mask="url(#path-1-inside-1_0_1372)"/>
<defs>
<linearGradient id="paint0_linear_0_1372" x1="73.5717" y1="159.1" x2="163.493" y2="44.9607" gradientUnits="userSpaceOnUse">
<stop stop-color="#D3DB85"/>
<stop offset="1" stop-color="#A1BF0C"/>
</linearGradient>
</defs>
</svg>
