<svg width="130" height="130" viewBox="0 0 130 130" fill="none" xmlns="http://www.w3.org/2000/svg">
<path d="M78.5225 20.5L78.5223 20H78.5223L78.5225 20.5ZM78.5228 20.5V20L78.5225 20L78.5228 20.5ZM51.188 20.5151L51.1877 20.0151L51.188 20.5151ZM51.1629 20.5151L51.1626 20.0151L51.1375 20.0152L51.1125 20.0177L51.1629 20.5151ZM51.1379 20.5177L51.1882 21.0151V21.0151L51.1379 20.5177ZM38.0726 31.7991L38.173 32.2889L38.4767 32.2267L38.556 31.927L38.0726 31.7991ZM32.6676 32.9068L32.7678 33.3967L32.768 33.3967L32.6676 32.9068ZM20.5095 45.491L20.9935 45.6162L20.9936 45.6158L20.5095 45.491ZM20.5094 45.4911L20.0254 45.3659L20.0253 45.3662L20.5094 45.4911ZM19.6454 48.8401L20.1295 48.9651L20.1296 48.965L19.6454 48.8401ZM34.4999 94.3794H34.9999V93.8794H34.4999V94.3794ZM95.4973 94.3794V93.8794H94.9973V94.3794H95.4973ZM110.351 48.839L110.835 48.7115L110.834 48.7103L110.351 48.839ZM110.351 48.8376L109.866 48.962L109.868 48.9662L110.351 48.8376ZM109.491 45.4915L109.975 45.3671L109.975 45.3656L109.491 45.4915ZM109.491 45.491L109.007 45.6159L109.007 45.6169L109.491 45.491ZM97.3357 32.9069L97.436 32.417L97.4306 32.4159L97.3357 32.9069ZM97.3357 32.9069L97.2353 33.3967L97.2408 33.3978L97.3357 32.9069ZM91.9696 31.8074L91.4855 31.9326L91.5637 32.2346L91.8692 32.2972L91.9696 31.8074ZM78.8693 20.518L78.8138 21.0149L78.8188 21.0154L78.8693 20.518ZM90.8672 31.5815L90.7668 32.0713L91.582 32.2384L91.3468 31.4402L90.8672 31.5815ZM78.7658 21.5126L78.2683 21.4622L78.218 21.9597L78.7154 22.01L78.7658 21.5126ZM78.8162 21.0151L79.3136 21.0655L78.3194 20.959L78.8162 21.0151ZM78.76 21.512L78.7039 22.0088L79.2007 22.065L79.2569 21.5681L78.76 21.512ZM78.5231 21.5L78.5231 21L78.5229 21L78.5231 21.5ZM78.5228 21.5L78.5227 21L78.5225 21L78.5228 21.5ZM51.214 21.5151L51.2137 21.0151L51.1879 21.0151L51.1623 21.0178L51.214 21.5151ZM39.178 31.5726L38.6991 31.4288L38.4585 32.2304L39.2784 32.0624L39.178 31.5726ZM53.8594 28.5637L53.9598 29.0535L53.962 29.053L53.8594 28.5637ZM53.8606 28.5634L53.7582 28.074L53.758 28.0741L53.8606 28.5634ZM76.1372 28.5634L76.0349 29.0529L76.0349 29.0529L76.1372 28.5634ZM76.1383 28.5637L76.0359 29.0531L76.0379 29.0535L76.1383 28.5637ZM109.867 48.9651L109.992 49.4494L110.551 49.3057L110.329 48.7727L109.867 48.9651ZM109.383 49.0896L108.899 49.214L109.023 49.6982L109.507 49.5738L109.383 49.0896ZM108.523 45.7408L108.984 45.5484L108.038 45.8652L108.523 45.7408ZM78.5228 21L78.5231 21L78.5225 20L78.5223 20L78.5228 21ZM51.1882 21.0151L78.5228 21L78.5223 20L51.1877 20.0151L51.1882 21.0151ZM51.1631 21.0151L51.1882 21.0151L51.1877 20.0151L51.1626 20.0151L51.1631 21.0151ZM51.1882 21.0151L51.2132 21.0126L51.1125 20.0177L51.0875 20.0202L51.1882 21.0151ZM38.556 31.927C40.6078 24.1735 47.4387 21.3949 51.1882 21.0151L51.0875 20.0202C47.0852 20.4256 39.7839 23.3779 37.5892 31.6712L38.556 31.927ZM32.768 33.3967L38.173 32.2889L37.9722 31.3093L32.5673 32.417L32.768 33.3967ZM20.9936 45.6158C22.64 39.228 27.1514 34.5454 32.7678 33.3967L32.5675 32.417C26.5111 33.6556 21.7492 38.6776 20.0253 45.3662L20.9936 45.6158ZM20.9935 45.6163L20.9935 45.6162L20.0254 45.3658L20.0254 45.3659L20.9935 45.6163ZM20.1296 48.965L20.9936 45.616L20.0253 45.3662L19.1613 48.7152L20.1296 48.965ZM20 49.9805C20 49.636 20.0444 49.2947 20.1295 48.9651L19.1613 48.715C19.0554 49.1248 19 49.5501 19 49.9805H20ZM20 90.3673V49.9805H19V90.3673H20ZM23.0001 93.8794C21.345 93.8794 20 92.3099 20 90.3673H19C19 92.7022 20.6453 94.8794 23.0001 94.8794V93.8794ZM34.4999 93.8794H23.0001V94.8794H34.4999V93.8794ZM34.9999 107.488V94.3794H33.9999V107.488H34.9999ZM37.9982 111C36.344 111 34.9999 109.431 34.9999 107.488H33.9999C33.9999 109.822 35.6437 112 37.9982 112V111ZM91.9995 111H37.9982V112H91.9995V111ZM94.9973 107.488C94.9973 109.431 93.6537 111 91.9995 111V112C94.3542 112 95.9973 109.822 95.9973 107.488H94.9973ZM94.9973 94.3794V107.488H95.9973V94.3794H94.9973ZM106.998 93.8794H95.4973V94.8794H106.998V93.8794ZM110 90.3673C110 92.3099 108.652 93.8794 106.998 93.8794V94.8794C109.35 94.8794 111 92.7035 111 90.3673H110ZM110 49.9805V90.3673H111V49.9805H110ZM109.868 48.9664C109.954 49.2955 110 49.6364 110 49.9805H111C111 49.548 110.943 49.1215 110.835 48.7115L109.868 48.9664ZM109.868 48.9662L109.868 48.9676L110.834 48.7103L110.834 48.7089L109.868 48.9662ZM109.007 45.6159L109.866 48.962L110.835 48.7132L109.975 45.3671L109.007 45.6159ZM109.007 45.6169L109.007 45.6174L109.975 45.3656L109.975 45.3652L109.007 45.6169ZM97.2355 33.3967C102.846 34.5454 107.359 39.2281 109.007 45.6159L109.975 45.3662C108.25 38.6777 103.487 33.6558 97.436 32.417L97.2355 33.3967ZM97.2408 33.3978L97.2409 33.3978L97.4306 32.4159L97.4305 32.4159L97.2408 33.3978ZM91.8692 32.2972L97.2353 33.3967L97.436 32.417L92.0699 31.3176L91.8692 32.2972ZM78.8188 21.0154C82.5925 21.3986 89.4876 24.2112 91.4855 31.9326L92.4536 31.6821C90.3139 23.4127 82.9408 20.4288 78.9198 20.0205L78.8188 21.0154ZM78.5228 21C78.6182 21 78.7182 21.0042 78.8138 21.0149L78.9249 20.0211C78.7837 20.0053 78.6455 20 78.5228 20V21ZM91.3468 31.4402C89.1749 24.0703 82.5059 21.3889 78.8162 21.0151L78.7154 22.01C82.1599 22.3589 88.3699 24.8762 90.3876 31.7228L91.3468 31.4402ZM79.2633 21.563L79.3136 21.0655L78.3187 20.9647L78.2683 21.4622L79.2633 21.563ZM78.3194 20.959L78.2632 21.4558L79.2569 21.5681L79.313 21.0713L78.3194 20.959ZM78.8162 21.0151C78.72 21.0043 78.6194 21 78.5231 21L78.5231 22C78.5919 22 78.6538 22.0031 78.7039 22.0088L78.8162 21.0151ZM78.5229 21L78.5227 21L78.523 22L78.5233 22L78.5229 21ZM78.5225 21L51.2137 21.0151L51.2142 22.0151L78.5231 22L78.5225 21ZM51.1623 21.0178C47.4945 21.3985 40.9143 24.0503 38.6991 31.4288L39.6569 31.7163C41.7175 24.8525 47.8469 22.3673 51.2656 22.0124L51.1623 21.0178ZM39.2784 32.0624L53.9598 29.0535L53.7591 28.0738L39.0776 31.0827L39.2784 32.0624ZM53.962 29.053L53.9631 29.0528L53.758 28.0741L53.7569 28.0743L53.962 29.053ZM53.9629 29.0528C54.1365 29.0166 54.3101 29 54.4837 29V28C54.246 28 54.0036 28.0227 53.7582 28.074L53.9629 29.0528ZM54.4837 29H75.5186V28H54.4837V29ZM75.5186 29C75.6876 29 75.8613 29.0166 76.0349 29.0529L76.2396 28.074C75.995 28.0229 75.7526 28 75.5186 28V29ZM76.0349 29.0529L76.0359 29.0531L76.2406 28.0743L76.2396 28.074L76.0349 29.0529ZM76.0379 29.0535L90.7668 32.0713L90.9675 31.0917L76.2386 28.0738L76.0379 29.0535ZM109.743 48.4809L109.259 48.6053L109.507 49.5738L109.992 49.4494L109.743 48.4809ZM108.061 45.9332L109.406 49.1576L110.329 48.7727L108.984 45.5484L108.061 45.9332ZM109.867 48.9651L109.007 45.6164L108.038 45.8652L108.899 49.214L109.867 48.9651ZM108.061 45.9332L109.406 49.1576L110.329 48.7727L108.984 45.5484L108.061 45.9332Z" fill="url(#paint0_linear_0_1267)"/>
<rect x="0.5" y="0.5" width="129" height="129" rx="30.5" stroke="url(#paint1_linear_0_1267)"/>
<path d="M78.7591 17.0149C78.6647 17.0042 78.5659 17 78.4715 17L51.6767 17.0149C47.5023 17.4396 39.4274 20.9037 38.7489 31.1781C38.7489 32.8165 38.7489 32.8165 55.5052 44.4666C58.381 46.4683 61.7422 47.5264 65.2202 47.5264C68.6936 47.5264 72.0548 46.4683 74.9306 44.468C91.6869 32.8165 91.6869 32.8165 91.6824 30.9666C91.0084 20.9037 82.9336 17.4396 78.7591 17.0149" stroke="url(#paint2_linear_0_1267)"/>
<defs>
<linearGradient id="paint0_linear_0_1267" x1="69.0478" y1="127.067" x2="128.995" y2="50.9738" gradientUnits="userSpaceOnUse">
<stop stop-color="#D3DB85"/>
<stop offset="1" stop-color="#A1BF0C"/>
</linearGradient>
<linearGradient id="paint1_linear_0_1267" x1="70.8468" y1="153.208" x2="157.438" y2="43.2955" gradientUnits="userSpaceOnUse">
<stop stop-color="#D3DB85"/>
<stop offset="1" stop-color="#A1BF0C"/>
</linearGradient>
<linearGradient id="paint2_linear_0_1267" x1="67.5965" y1="52.976" x2="83.3488" y2="18.3045" gradientUnits="userSpaceOnUse">
<stop stop-color="#D3DB85"/>
<stop offset="1" stop-color="#A1BF0C"/>
</linearGradient>
</defs>
</svg>
