<svg width="48" height="56" viewBox="0 0 48 56" fill="none" xmlns="http://www.w3.org/2000/svg">
<path fill-rule="evenodd" clip-rule="evenodd" d="M23.9994 0C10.5419 0 0 5.14417 0 11.7116V43.655C0 50.2223 10.5421 55.3676 23.9994 55.3676C37.4575 55.3676 48 50.2223 48 43.655V11.7116C48 5.14417 37.4575 0 23.9994 0ZM45.7853 43.6549C45.7853 48.8035 35.8083 53.1528 23.9994 53.1528C12.1911 53.1528 2.21467 48.8035 2.21467 43.6549V38.1038C5.98147 42.1175 14.2074 44.8477 23.9994 44.8477C33.792 44.8477 42.0184 42.1175 45.7853 38.1037V43.6549ZM23.9994 42.633C35.8083 42.633 45.7853 38.2837 45.7853 33.1362V27.5775C42.0184 31.5913 33.792 34.3215 23.9994 34.3215C14.2074 34.3215 5.98147 31.5913 2.21467 27.5776V33.1362C2.21467 38.2837 12.1911 42.633 23.9994 42.633ZM45.7853 22.6098C45.7853 27.7572 35.8083 32.1066 23.9994 32.1066C12.1911 32.1066 2.21467 27.7572 2.21467 22.6098V16.6792C5.98147 20.6928 14.2074 23.4231 23.9994 23.4231C33.792 23.4231 42.0184 20.6928 45.7853 16.6791V22.6098ZM2.21467 11.7116C2.21467 16.859 12.1911 21.2084 23.9994 21.2084C35.8083 21.2084 45.7853 16.859 45.7853 11.7116C45.7853 6.56415 35.8083 2.21478 23.9994 2.21478C12.1911 2.21478 2.21467 6.56415 2.21467 11.7116Z" fill="url(#paint0_linear_0_880)"/>
<defs>
<linearGradient id="paint0_linear_0_880" x1="26.1588" y1="65.2519" x2="63.919" y2="23.6997" gradientUnits="userSpaceOnUse">
<stop stop-color="#D3DB85"/>
<stop offset="1" stop-color="#A1BF0C"/>
</linearGradient>
</defs>
</svg>
