<?xml version="1.0" encoding="utf-8"?><svg viewBox="0 0 1920 347" xmlns="http://www.w3.org/2000/svg" xmlns:xlink="http://www.w3.org/1999/xlink"><style>:root>svg{display:none}:root>svg:target{display:block}</style><svg fill="inherit" viewBox="0 0 6 10" id="arrow_link" xmlns="http://www.w3.org/2000/svg"><path fill-rule="evenodd" clip-rule="evenodd" d="M.464 8.536l.708.707 3.535-3.536L5.414 5l-.707-.707L1.172.757l-.708.707L4 5 .464 8.536z"/></svg><svg fill="none" viewBox="0 0 25 20" id="discord" xmlns="http://www.w3.org/2000/svg"><path fill-rule="evenodd" clip-rule="evenodd" d="M20.983 2.256A20.324 20.324 0 0015.91.664c-.22.388-.479.919-.647 1.346a18.572 18.572 0 00-5.616 0c-.182-.427-.44-.958-.66-1.346-1.786.31-3.481.854-5.073 1.592-3.21 4.84-4.076 9.563-3.65 14.209a20.315 20.315 0 006.225 3.183c.505-.686.945-1.424 1.333-2.187a12.09 12.09 0 01-2.096-1.022c.116-.084.227-.172.336-.259l.181-.142c4.05 1.889 8.438 1.889 12.436 0 .168.142.337.271.518.4-.66.402-1.372.738-2.097 1.023.389.763.829 1.501 1.333 2.187a20.174 20.174 0 006.225-3.183c.504-5.397-.867-10.068-3.65-14.21h-.025zM8.366 13.618c-1.217 0-2.213-1.126-2.213-2.51 0-1.386.97-2.511 2.213-2.511 1.242 0 2.225 1.126 2.212 2.51 0 1.372-.97 2.51-2.212 2.51zm5.952-2.51c0 1.384.997 2.51 2.213 2.51 1.242 0 2.213-1.14 2.213-2.51.013-1.386-.97-2.511-2.213-2.511-1.242 0-2.213 1.126-2.213 2.51z" fill="#fff"/></svg><svg fill="none" viewBox="0 0 22 21" id="fb" xmlns="http://www.w3.org/2000/svg"><path d="M21.13 10.563C21.129 4.73 16.4 0 10.565 0 4.73 0 0 4.73 0 10.565c0 5.252 3.833 9.609 8.853 10.426l.06.009v-7.382H6.231v-3.055h2.682V8.237a3.73 3.73 0 014.004-4.11h-.012c.845.011 1.662.086 2.46.22l-.095-.014v2.6h-1.333a1.527 1.527 0 00-1.722 1.656v-.007 1.981h2.93l-.469 3.055h-2.461V21c5.081-.827 8.914-5.184 8.915-10.437z" fill="#fff"/></svg><svg fill="none" viewBox="0 0 20 20" id="instagram" xmlns="http://www.w3.org/2000/svg"><path fill-rule="evenodd" clip-rule="evenodd" d="M5.878.06C6.945.013 7.284 0 10 0s3.055.01 4.122.06h.008c.868.018 1.7.187 2.42.465l.033.011c.66.254 1.252.646 1.739 1.143a4.929 4.929 0 011.153 1.771l-.017-.05c.294.77.463 1.6.482 2.478.047 1.067.06 1.406.06 4.122 0 2.717-.01 3.056-.06 4.123v.008a7.215 7.215 0 01-.465 2.42l-.012.034a5.141 5.141 0 01-2.913 2.89l.051-.017a7.375 7.375 0 01-2.478.482c-1.067.047-1.406.06-4.123.06-2.716 0-3.055-.01-4.122-.06H5.87a7.232 7.232 0 01-2.42-.465l-.034-.012a5.14 5.14 0 01-2.89-2.913l.016.051a7.357 7.357 0 01-.482-2.478C.013 13.056 0 12.717 0 10c0-2.716.01-3.055.06-4.122V5.87C.078 5 .247 4.17.525 3.45l.011-.033A4.886 4.886 0 011.68 1.679v-.001A4.926 4.926 0 013.45.525L3.4.542A7.357 7.357 0 015.878.06zM10 1.8c2.67 0 2.988.014 4.042.06a5.493 5.493 0 011.894.359l-.038-.013a3.31 3.31 0 011.89 1.875l.009.023c.21.55.336 1.188.344 1.852v.004c.047 1.055.058 1.372.058 4.042s-.013 2.987-.062 4.041a5.622 5.622 0 01-.363 1.895l.013-.039c-.172.451-.427.835-.75 1.151v.001c-.315.323-.7.578-1.128.74l-.022.007a5.449 5.449 0 01-1.859.344h-.003c-1.062.047-1.375.058-4.05.058s-2.988-.012-4.049-.061a5.671 5.671 0 01-1.902-.364l.04.013a3.107 3.107 0 01-1.15-.748 3.042 3.042 0 01-.743-1.13l-.006-.02a5.567 5.567 0 01-.35-1.858v-.005l-.003-.058c-.035-1.005-.048-1.366-.048-3.979 0-2.61.013-2.974.048-3.988l.003-.063c.012-.671.139-1.31.362-1.9l-.012.039c.164-.453.421-.838.749-1.15v-.001a2.965 2.965 0 011.13-.742l.02-.006a5.422 5.422 0 011.846-.351h.004l.055-.002c1.02-.036 1.367-.048 3.995-.048L10 1.8zm6.539 2.863a1.2 1.2 0 11-2.4.002 1.2 1.2 0 012.4-.002zM10 13.334A3.334 3.334 0 1113.334 10v.001a3.332 3.332 0 01-3.332 3.332H10v.001zM4.865 10a5.135 5.135 0 0110.27 0 5.135 5.135 0 01-10.27 0z" fill="#fff"/></svg><svg fill="none" viewBox="0 0 28 17" id="medium" xmlns="http://www.w3.org/2000/svg"><path fill-rule="evenodd" clip-rule="evenodd" d="M7.815 16.462a7.815 7.815 0 007.814-7.792v-.023a7.786 7.786 0 00-2.268-5.505V3.14A7.814 7.814 0 000 8.647c-.001 4.316 3.498 7.815 7.814 7.815zM24.157 8.67c0 4.068-1.735 7.378-3.884 7.378-2.148 0-3.896-3.31-3.896-7.378s1.747-7.378 3.896-7.378c2.15 0 3.884 3.31 3.884 7.378zm3.493 0c0 3.643-.61 6.608-1.367 6.608-.758 0-1.368-2.965-1.368-6.608s.61-6.608 1.367-6.608c.759 0 1.368 2.965 1.368 6.608z" fill="#fff"/></svg><svg fill="none" viewBox="0 0 1920 347" id="route" xmlns="http://www.w3.org/2000/svg"><path d="M-97.667 1.24s55.388 301.887 215.297 275.718c159.908-26.169 163.525-53.737 121.449-123.706-42.075-69.97-86.799 181.397-3.185 192.396 83.615 10.999 165.666-299.345 414.497-222.362 248.831 76.983 6.481 213.38-53.099 165.968-59.58-47.411 327.699-216.857 563.038-202.699 235.35 14.158 221.41 195.879 341.64 124.267 120.24-71.611 175.35-136.05 68.37-113.565-106.98 22.485 5.71 177.744 150.18 177.744 144.48 0 239.16-151.715 239.16-151.715" stroke="#D6F82E" stroke-width="2" stroke-linecap="round" stroke-dasharray="0 6"/></svg><svg fill="none" viewBox="0 0 22 21" id="telegram" xmlns="http://www.w3.org/2000/svg"><path fill-rule="evenodd" clip-rule="evenodd" d="M21.108 10.333c0 5.707-4.626 10.334-10.333 10.334S.442 16.04.442 10.333 5.068 0 10.775 0s10.333 4.626 10.333 10.333zM11.145 7.63a492.666 492.666 0 00-6.026 2.595c-.49.195-.745.385-.769.571-.039.315.355.438.891.607l.226.072c.528.171 1.237.372 1.606.38.335.007.709-.13 1.12-.414 2.816-1.9 4.268-2.86 4.36-2.88.064-.015.153-.034.213.02.061.054.055.155.049.183-.04.166-1.585 1.603-2.385 2.347-.25.232-.426.396-.463.434a9.008 9.008 0 01-.243.24c-.49.473-.857.827.02 1.405.423.278.76.508 1.097.738.368.25.735.5 1.21.812.12.079.236.161.349.241.428.306.813.58 1.288.536.276-.025.561-.285.706-1.06.342-1.83 1.015-5.795 1.17-7.428a1.822 1.822 0 00-.017-.407.435.435 0 00-.147-.28c-.123-.1-.315-.122-.4-.12-.389.007-.985.214-3.855 1.408z" fill="#fff"/></svg><svg fill="none" viewBox="0 0 19 18" id="x" xmlns="http://www.w3.org/2000/svg"><path fill-rule="evenodd" clip-rule="evenodd" d="M10.8 7.692l7.356 10.31h-5.332l-4.95-7.056-6.207 7.055H.19l7-7.985-7-9.98h5.223l4.703 6.699 5.88-6.7h1.531L10.8 7.692zm2.68 9.16h2.434L4.784 1.185H2.378L13.48 16.853z" fill="#fff"/></svg></svg>