<svg width="60" height="45" viewBox="0 0 60 45" fill="none" xmlns="http://www.w3.org/2000/svg">
<path d="M44.2909 0H29.7814C21.1194 0 14.0724 7.04703 14.0724 15.709C14.0724 24.3715 21.1194 31.4184 29.7814 31.4184H40.7601V29.0184H29.7814C22.4425 29.0184 16.4724 23.0478 16.4724 15.7089C16.4724 8.37001 22.4425 2.40005 29.7814 2.40005H44.2909C51.6298 2.40005 57.5999 8.37014 57.5999 15.709C57.5999 21.6035 53.8165 26.7194 48.1857 28.4396L48.8864 30.7353C55.534 28.7044 59.9999 22.6657 59.9999 15.7089C59.9998 7.04703 52.9529 0 44.2909 0Z" fill="url(#paint0_linear_0_864)"/>
<path d="M30.2185 12.8086H19.2491V15.2086H30.2185C37.5573 15.2086 43.5274 21.1787 43.5274 28.5176C43.5274 35.8565 37.5573 41.8266 30.2185 41.8266H15.7095C8.37065 41.8266 2.39992 35.8565 2.39992 28.5176C2.39992 22.6236 6.18325 17.5072 11.8148 15.787L11.1127 13.4913C4.46583 15.5226 -0.00012207 21.5614 -0.00012207 28.5176C-0.00012207 37.1794 7.04704 44.2265 15.7095 44.2265H30.2185C38.8804 44.2265 45.9274 37.1794 45.9274 28.5175C45.9274 19.8556 38.8804 12.8086 30.2185 12.8086Z" fill="url(#paint1_linear_0_864)"/>
<defs>
<linearGradient id="paint0_linear_0_864" x1="39.1018" y1="37.0273" x2="57.0811" y2="3.66648" gradientUnits="userSpaceOnUse">
<stop stop-color="#D3DB85"/>
<stop offset="1" stop-color="#A1BF0C"/>
</linearGradient>
<linearGradient id="paint1_linear_0_864" x1="25.0293" y1="49.8353" x2="43.0082" y2="16.4748" gradientUnits="userSpaceOnUse">
<stop stop-color="#D3DB85"/>
<stop offset="1" stop-color="#A1BF0C"/>
</linearGradient>
</defs>
</svg>
