<svg width="58" height="44" viewBox="0 0 58 44" fill="none" xmlns="http://www.w3.org/2000/svg">
<path fill-rule="evenodd" clip-rule="evenodd" d="M31.1549 17.4526C32.1093 17.8424 56.5196 33.9508 56.5196 33.9508C58.2718 35.7285 60.0094 43.3565 52.0171 43.3565H6.18721C-2.53363 43.3565 -0.0383199 35.8195 1.794 33.9508C1.794 33.9508 26.554 17.6384 27.2753 17.3725V12.5567C27.2753 11.493 27.9274 10.6297 28.9984 10.6297C30.8197 10.6297 32.8379 9.11062 32.8379 7.24915C32.8379 5.38404 30.94 3.28944 29.1186 3.28944C27.3008 3.28944 25.3155 4.99791 25.3155 6.86301C25.3155 7.93035 24.831 9.17619 23.7637 9.17619C22.6927 9.17619 21.8293 8.31649 21.8293 7.24915C21.8293 3.25301 25.0459 0 29.002 0C32.9581 0 36.1819 3.24937 36.1819 7.24915C36.1819 10.5641 34.1675 13.3763 31.1549 14.2251V17.4526ZM5.2073 39.9468H52.9315C55.1718 39.9468 55.4486 37.1965 54.3303 35.9944L31.1257 21.3467C29.8908 20.6109 28.3208 20.6983 27.0713 21.3613L3.94325 35.9908C2.8322 37.1929 2.76298 39.9468 5.2073 39.9468Z" fill="url(#paint0_linear_0_1468)"/>
<defs>
<linearGradient id="paint0_linear_0_1468" x1="31.6086" y1="51.0965" x2="57.5857" y2="6.98636" gradientUnits="userSpaceOnUse">
<stop stop-color="#D3DB85"/>
<stop offset="1" stop-color="#A1BF0C"/>
</linearGradient>
</defs>
</svg>
