<?xml version="1.0" encoding="utf-8"?><svg viewBox="0 0 1920 347" xmlns="http://www.w3.org/2000/svg" xmlns:xlink="http://www.w3.org/1999/xlink"><style>:root>svg{display:none}:root>svg:target{display:block}</style><svg fill="none" viewBox="0 0 1920 347" id="route" xmlns="http://www.w3.org/2000/svg"><path d="M-97.667 1.24s55.388 301.887 215.297 275.718c159.908-26.169 163.525-53.737 121.449-123.706-42.075-69.97-86.799 181.397-3.185 192.396 83.615 10.999 165.666-299.345 414.497-222.362 248.831 76.983 6.481 213.38-53.099 165.968-59.58-47.411 327.699-216.857 563.038-202.699 235.35 14.158 221.41 195.879 341.64 124.267 120.24-71.611 175.35-136.05 68.37-113.565-106.98 22.485 5.71 177.744 150.18 177.744 144.48 0 239.16-151.715 239.16-151.715" stroke="#D6F82E" stroke-width="2" stroke-linecap="round" stroke-dasharray="0 6"/></svg></svg>