<svg width="182" height="51" viewBox="0 0 182 51" fill="none" xmlns="http://www.w3.org/2000/svg">
<path d="M28.4254 1.96076C28.6226 1.52107 29.2715 1.60646 29.3468 2.0821C29.7452 4.56154 32.8885 5.40355 34.4731 3.45556C34.7768 3.0818 35.3802 3.33188 35.3309 3.81116C35.074 6.30916 37.8928 7.93594 39.9264 6.46437C40.3171 6.18197 40.8362 6.58001 40.6649 7.03008C39.7694 9.3765 42.0704 11.6771 44.4168 10.7823C44.8671 10.6106 45.2642 11.1292 44.9826 11.5195C43.5109 13.5544 45.1371 16.372 47.6353 16.115C48.1142 16.0657 48.3647 16.6697 47.9909 16.9737C46.0429 18.5583 46.8852 21.7009 49.364 22.0992C49.8403 22.1756 49.9259 22.8237 49.486 23.0206C47.1941 24.047 47.1941 27.3006 49.486 28.327C49.9259 28.5239 49.8403 29.172 49.364 29.2485C46.8852 29.6468 46.0429 32.7894 47.9909 34.374C48.3647 34.6779 48.1142 35.2819 47.6353 35.2326C45.1371 34.9756 43.5109 37.7933 44.9826 39.8281C45.2642 40.2185 44.8671 40.7371 44.4168 40.5654C42.0704 39.6707 39.7694 41.9712 40.6649 44.3176C40.8362 44.7676 40.3171 45.1657 39.9264 44.8833C37.8928 43.4117 35.074 45.0385 35.3309 47.5365C35.3802 48.0158 34.7768 48.2659 34.4731 47.8922C32.8885 45.9441 29.7452 46.7861 29.3468 49.2656C29.2715 49.7412 28.6226 49.8266 28.4254 49.3869C27.4001 47.095 24.1465 47.095 23.12 49.3869C22.9227 49.8266 22.2751 49.7412 22.1986 49.2656C21.8001 46.7861 18.6569 45.9441 17.0723 47.8922C16.7686 48.2659 16.1651 48.0158 16.2144 47.5365C16.4714 45.0385 13.6539 43.4117 11.6189 44.8833C11.2283 45.1657 10.7092 44.7676 10.8818 44.3176C11.776 41.9712 9.47499 39.6707 7.12858 40.5654C6.67954 40.7371 6.28112 40.2185 6.56274 39.8281C8.03444 37.7933 6.4083 34.9756 3.91005 35.2326C3.43116 35.2819 3.18069 34.6779 3.55446 34.374C5.50244 32.7894 4.66018 29.6468 2.18139 29.2485C1.7051 29.172 1.62074 28.5239 2.0594 28.327C4.3513 27.3006 4.3513 24.047 2.0594 23.0206C1.62074 22.8237 1.7051 22.1756 2.18139 22.0992C4.66018 21.7009 5.50244 18.5583 3.55446 16.9737C3.18069 16.6697 3.43116 16.0657 3.91005 16.115C6.4083 16.372 8.03444 13.5544 6.56274 11.5195C6.28112 11.1292 6.67954 10.6106 7.12858 10.7823C9.47499 11.6771 11.776 9.3765 10.8818 7.03008C10.7092 6.58001 11.2283 6.18197 11.6189 6.46437C13.6539 7.93594 16.4714 6.30916 16.2144 3.81116C16.1651 3.33188 16.7686 3.0818 17.0723 3.45543C18.6569 5.40355 21.8001 4.56154 22.1986 2.0821C22.2751 1.60646 22.9227 1.52107 23.12 1.96076C24.1465 4.25267 27.4001 4.25267 28.4254 1.96076" stroke="url(#paint0_linear_7_802)" stroke-width="2" stroke-linecap="round"/>
<path d="M180.461 23.983C180.394 21.7411 179.033 19.78 176.959 18.531C177.909 16.4273 177.941 14.1524 176.827 12.3076C175.667 10.3876 173.518 9.3486 171.098 9.28026C170.891 6.98141 169.801 4.98427 167.924 3.92513C165.971 2.82281 163.588 2.97429 161.447 4.10409C160.137 2.20349 158.207 1 156.052 1C153.275 1 150.87 2.9966 149.688 5.91067C147.073 4.40225 144.08 4.27538 141.912 5.86249C140.102 7.18731 139.257 9.41997 139.403 11.8368C137.131 12.2459 135.239 13.5081 134.349 15.4713C133.424 17.5145 133.786 19.8744 135.1 21.9074C133.323 23.3799 132.295 25.4095 132.486 27.5562C132.684 29.7904 134.159 31.668 136.303 32.7923C135.479 34.9482 135.581 37.2212 136.802 38.9971C138.072 40.8454 140.279 41.7558 142.699 41.6814C143.041 43.964 144.247 45.8933 146.183 46.8399C148.198 47.825 150.567 47.5334 152.638 46.2791C154.058 48.0992 156.056 49.1867 158.208 49.0595C160.447 48.9273 162.367 47.5086 163.554 45.3987C165.685 46.286 167.96 46.251 169.771 45.0831C171.656 43.8674 172.631 41.6883 172.628 39.2672C174.92 38.9928 176.884 37.8445 177.887 35.9371C178.931 33.9519 178.71 31.5749 177.517 29.468C179.378 28.1027 180.524 26.1373 180.461 23.983" stroke="url(#paint1_linear_7_802)" stroke-width="2" stroke-linecap="round"/>
<path d="M107.717 25.0368C109.672 22.3028 111.266 19.575 112.394 16.9868C114.809 11.4531 114.846 7.11284 112.5 4.76708C110.155 2.42542 105.817 2.4624 100.285 4.87594C97.6968 6.00363 94.971 7.5976 92.2329 9.55514C89.4989 7.5976 86.7711 6.00363 84.183 4.87594C78.6493 2.4624 74.3111 2.42337 71.9653 4.76708C69.6195 7.11284 69.6565 11.4531 72.0742 16.9868C73.2019 19.575 74.7938 22.3028 76.7513 25.0368C74.7938 27.7707 73.2019 30.4986 72.0742 33.0867C69.6565 38.6204 69.6195 42.9607 71.9653 45.3044C73.1197 46.4608 74.7568 47.036 76.7842 47.036C78.8732 47.036 81.375 46.4239 84.183 45.1976C86.7711 44.0699 89.4989 42.478 92.2329 40.5184C94.971 42.478 97.6968 44.0699 100.285 45.1976C103.093 46.4239 105.593 47.036 107.682 47.036C109.709 47.036 111.348 46.4608 112.5 45.3044C114.846 42.9607 114.809 38.6204 112.394 33.0867C111.266 30.4986 109.672 27.7707 107.717 25.0368" stroke="url(#paint2_linear_7_802)" stroke-width="2" stroke-linecap="round"/>
<defs>
<linearGradient id="paint0_linear_7_802" x1="27.9318" y1="58.2428" x2="59.9038" y2="17.6598" gradientUnits="userSpaceOnUse">
<stop stop-color="#D3DB85"/>
<stop offset="1" stop-color="#A1BF0C"/>
</linearGradient>
<linearGradient id="paint1_linear_7_802" x1="158.622" y1="57.651" x2="190.651" y2="17.0543" gradientUnits="userSpaceOnUse">
<stop stop-color="#D3DB85"/>
<stop offset="1" stop-color="#A1BF0C"/>
</linearGradient>
<linearGradient id="paint2_linear_7_802" x1="94.212" y1="54.8907" x2="123.519" y2="17.6898" gradientUnits="userSpaceOnUse">
<stop stop-color="#D3DB85"/>
<stop offset="1" stop-color="#A1BF0C"/>
</linearGradient>
</defs>
</svg>
