<svg width="51" height="51" viewBox="0 0 51 51" fill="none" xmlns="http://www.w3.org/2000/svg">
<mask id="path-1-inside-1_0_878" fill="white">
<path fill-rule="evenodd" clip-rule="evenodd" d="M25.5 51C39.5833 51 51 39.5833 51 25.5C51 11.4167 39.5833 0 25.5 0C11.4167 0 0 11.4167 0 25.5C0 39.5833 11.4167 51 25.5 51ZM34 15C35.1046 15 36 15.8954 36 17V34C36 35.1046 35.1046 36 34 36H17C15.8954 36 15 35.1046 15 34V17C15 15.8954 15.8954 15 17 15H34ZM30.75 22.25C30.75 21.1454 29.8546 20.25 28.75 20.25H22.25C21.1454 20.25 20.25 21.1454 20.25 22.25V28.75C20.25 29.8546 21.1454 30.75 22.25 30.75H28.75C29.8546 30.75 30.75 29.8546 30.75 28.75V22.25Z"/>
</mask>
<path d="M49 25.5C49 38.4787 38.4787 49 25.5 49V53C40.6878 53 53 40.6878 53 25.5H49ZM25.5 2C38.4787 2 49 12.5213 49 25.5H53C53 10.3122 40.6878 -2 25.5 -2V2ZM2 25.5C2 12.5213 12.5213 2 25.5 2V-2C10.3122 -2 -2 10.3122 -2 25.5H2ZM25.5 49C12.5213 49 2 38.4787 2 25.5H-2C-2 40.6878 10.3122 53 25.5 53V49ZM38 17C38 14.7909 36.2091 13 34 13V17H38ZM38 34V17H34V34H38ZM34 38C36.2091 38 38 36.2091 38 34H34V38ZM17 38H34V34H17V38ZM13 34C13 36.2091 14.7909 38 17 38V34H13ZM13 17V34H17V17H13ZM17 13C14.7909 13 13 14.7909 13 17H17V13ZM34 13H17V17H34V13ZM28.75 22.25H32.75C32.75 20.0409 30.9591 18.25 28.75 18.25V22.25ZM22.25 22.25H28.75V18.25H22.25V22.25ZM22.25 22.25V18.25C20.0409 18.25 18.25 20.0409 18.25 22.25H22.25ZM22.25 28.75V22.25H18.25V28.75H22.25ZM22.25 28.75H18.25C18.25 30.9591 20.0409 32.75 22.25 32.75V28.75ZM28.75 28.75H22.25V32.75H28.75V28.75ZM28.75 28.75V32.75C30.9591 32.75 32.75 30.9591 32.75 28.75H28.75ZM28.75 22.25V28.75H32.75V22.25H28.75Z" fill="url(#paint0_linear_0_878)" mask="url(#path-1-inside-1_0_878)"/>
<defs>
<linearGradient id="paint0_linear_0_878" x1="27.7938" y1="60.1046" x2="61.764" y2="16.9851" gradientUnits="userSpaceOnUse">
<stop stop-color="#D3DB85"/>
<stop offset="1" stop-color="#A1BF0C"/>
</linearGradient>
</defs>
</svg>
