<svg width="241" height="48" viewBox="0 0 241 48" fill="none" xmlns="http://www.w3.org/2000/svg">
<path d="M25.7598 1.94283C25.9448 1.53061 26.5531 1.61067 26.6237 2.05659C26.9972 4.38106 29.944 5.17045 31.4296 3.3442C31.7143 2.9938 32.28 3.22825 32.2338 3.67757C31.9929 6.01945 34.6355 7.54456 36.5421 6.16496C36.9083 5.90021 37.395 6.27337 37.2344 6.69532C36.3949 8.89508 38.552 11.0519 40.7518 10.213C41.174 10.052 41.5463 10.5382 41.2823 10.9042C39.9025 12.8118 41.427 15.4534 43.7692 15.2125C44.2181 15.1662 44.4529 15.7325 44.1025 16.0174C42.2763 17.503 43.0659 20.4492 45.3898 20.8226C45.8363 20.8943 45.9166 21.5019 45.5041 21.6864C43.3555 22.6487 43.3555 25.6989 45.5041 26.6612C45.9166 26.8458 45.8363 27.4534 45.3898 27.5251C43.0659 27.8985 42.2763 30.8447 44.1025 32.3302C44.4529 32.6152 44.2181 33.1814 43.7692 33.1352C41.427 32.8943 39.9025 35.5358 41.2823 37.4435C41.5463 37.8094 41.174 38.2956 40.7518 38.1347C38.552 37.2959 36.3949 39.4526 37.2344 41.6523C37.395 42.0743 36.9083 42.4474 36.5421 42.1827C34.6355 40.8031 31.9929 42.3282 32.2338 44.6701C32.28 45.1194 31.7143 45.3539 31.4296 45.0036C29.944 43.1772 26.9972 43.9666 26.6237 46.2911C26.5531 46.737 25.9448 46.817 25.7598 46.4048C24.7987 44.2562 21.7484 44.2562 20.786 46.4048C20.6011 46.817 19.994 46.737 19.9222 46.2911C19.5487 43.9666 16.6019 43.1772 15.1163 45.0036C14.8316 45.3539 14.2658 45.1194 14.3121 44.6701C14.553 42.3282 11.9116 40.8031 10.0038 42.1827C9.63759 42.4474 9.15092 42.0743 9.31274 41.6523C10.151 39.4526 7.99386 37.2959 5.7941 38.1347C5.37312 38.2956 4.9996 37.8094 5.26362 37.4435C6.64334 35.5358 5.11884 32.8943 2.77673 33.1352C2.32777 33.1814 2.09295 32.6152 2.44336 32.3302C4.26959 30.8447 3.47997 27.8985 1.15611 27.5251C0.709584 27.4534 0.6305 26.8458 1.04174 26.6612C3.1904 25.6989 3.1904 22.6487 1.04174 21.6864C0.6305 21.5019 0.709584 20.8943 1.15611 20.8226C3.47997 20.4492 4.26959 17.503 2.44336 16.0174C2.09295 15.7325 2.32777 15.1662 2.77673 15.2125C5.11884 15.4534 6.64334 12.8118 5.26362 10.9042C4.9996 10.5382 5.37312 10.052 5.7941 10.213C7.99386 11.0519 10.151 8.89508 9.31274 6.69532C9.15092 6.27337 9.63759 5.90021 10.0038 6.16496C11.9116 7.54456 14.553 6.01945 14.3121 3.67757C14.2658 3.22825 14.8316 2.9938 15.1163 3.34408C16.6019 5.17045 19.5487 4.38106 19.9222 2.05659C19.994 1.61067 20.6011 1.53061 20.786 1.94283C21.7484 4.09149 24.7987 4.09149 25.7598 1.94283" stroke="url(#paint0_linear_10_2)"/>
<path d="M240.461 22.5466C240.399 20.4448 239.123 18.6062 237.178 17.4353C238.069 15.4631 238.099 13.3304 237.054 11.6009C235.967 9.80086 233.952 8.82681 231.683 8.76274C231.49 6.60757 230.468 4.73526 228.708 3.74231C226.877 2.70888 224.643 2.8509 222.636 3.91009C221.408 2.12827 219.598 1 217.578 1C214.974 1 212.72 2.87181 211.611 5.60375C209.16 4.18961 206.355 4.07067 204.322 5.55859C202.625 6.80061 201.833 8.89372 201.969 11.1595C199.84 11.543 198.065 12.7263 197.232 14.5669C196.364 16.4823 196.703 18.6947 197.936 20.6006C196.269 21.9812 195.306 23.8839 195.484 25.8964C195.67 27.991 197.053 29.7513 199.063 30.8053C198.29 32.8265 198.386 34.9574 199.531 36.6223C200.722 38.3551 202.791 39.2085 205.059 39.1388C205.38 41.2787 206.511 43.0875 208.326 43.9749C210.215 44.8984 212.436 44.6251 214.378 43.4491C215.708 45.1555 217.582 46.175 219.599 46.0558C221.698 45.9318 223.498 44.6018 224.611 42.6238C226.609 43.4556 228.741 43.4229 230.439 42.3279C232.206 41.1882 233.121 39.1453 233.118 36.8755C235.266 36.6183 237.108 35.5417 238.048 33.7535C239.027 31.8924 238.819 29.664 237.701 27.6888C239.446 26.4088 240.52 24.5662 240.461 22.5466" stroke="url(#paint1_linear_10_2)"/>
<path d="M88.8996 41.9877L89.3992 41.9669L89.3992 41.9669L88.8996 41.9877ZM73.4317 23.9157L73.3914 23.4173L73.3914 24.414L73.4317 23.9157ZM88.9342 5.73472L89.4339 5.71621L89.4338 5.71443L88.9342 5.73472ZM88.9543 6.17703L88.4548 6.20169L88.4552 6.20788L88.9543 6.17703ZM88.967 6.35026L89.4661 6.32011L89.466 6.31841L88.967 6.35026ZM88.9834 6.61934L88.485 6.65956L88.4852 6.66153L88.9834 6.61934ZM88.9998 6.8129L88.5016 6.85508L88.5018 6.85772L88.9998 6.8129ZM89.0216 7.05606L88.5236 7.10078L88.5243 7.10772L89.0216 7.05606ZM89.0435 7.26248L88.5463 7.31555L88.5469 7.32091L89.0435 7.26248ZM89.069 7.49091L88.5726 7.55076L88.5729 7.55366L89.069 7.49091ZM89.0963 7.70479L89.5925 7.64345L89.5924 7.64204L89.0963 7.70479ZM89.1236 7.92408L88.6274 7.98527L88.6276 7.98699L89.1236 7.92408ZM89.1564 8.13964L88.6621 8.21487L88.6624 8.21683L89.1564 8.13964ZM89.1874 8.35147L88.6933 8.42867L88.6946 8.43653L89.1874 8.35147ZM89.2256 8.56722L89.7197 8.49001L89.7179 8.48003L89.2256 8.56722ZM89.262 8.77719L89.7544 8.68999L89.7539 8.68752L89.262 8.77719ZM89.3003 8.99293L88.8079 9.08013L88.8092 9.08754L88.8108 9.09491L89.3003 8.99293ZM89.3403 9.19917L88.8488 9.29122L88.8503 9.29836L89.3403 9.19917ZM89.3877 9.41473L89.8792 9.32293L89.8773 9.31315L89.8751 9.30345L89.3877 9.41473ZM89.4314 9.61761L89.9237 9.5302L89.9208 9.51387L89.9168 9.49777L89.4314 9.61761ZM89.4787 9.83317L88.9911 9.9442L88.9934 9.95334L89.4787 9.83317ZM89.5261 10.034L89.0406 10.1539L89.0421 10.1597L89.5261 10.034ZM89.5807 10.2458L90.0691 10.1387L90.0673 10.1307L90.0654 10.1229L89.5807 10.2458ZM89.6299 10.445L89.1444 10.5648L89.1467 10.5738L89.1492 10.5827L89.6299 10.445ZM89.69 10.655L90.1722 10.5227L90.1706 10.5173L89.69 10.655ZM89.7428 10.8522L89.2606 10.9845L89.2621 10.9899L89.7428 10.8522ZM89.8047 11.0603L89.325 11.2015L89.326 11.2048L89.8047 11.0603ZM89.8648 11.2558L90.3446 11.1149L90.3423 11.1075L89.8648 11.2558ZM89.9285 11.4622L89.4523 11.6147L89.4551 11.623L89.9285 11.4622ZM89.9923 11.6539L90.4695 11.5047L90.4671 11.4969L90.4644 11.4892L89.9923 11.6539ZM90.0596 11.8601L89.5834 12.013L89.5875 12.0248L90.0596 11.8601ZM90.127 12.0499L90.598 11.882L90.5964 11.8777L90.127 12.0499ZM90.1999 12.2526L89.7276 12.4169L89.7277 12.4173L90.1999 12.2526ZM90.2691 12.4406L89.8013 12.6173L89.8023 12.6199L90.2691 12.4406ZM90.3474 12.6398L90.8195 12.4751L90.8169 12.4678L90.8141 12.4605L90.3474 12.6398ZM90.4202 12.8259L90.8868 12.6462L90.8841 12.6393L90.8813 12.6325L90.4202 12.8259ZM90.5003 13.023L90.9681 12.8462L90.9646 12.8371L90.9608 12.828L90.5003 13.023ZM90.5768 13.2072L91.0392 13.0169L91.0362 13.0095L91.0329 13.0023L90.5768 13.2072ZM90.6606 13.4026L90.2 13.5976L90.2045 13.6075L90.6606 13.4026ZM90.7407 13.585L90.2846 13.7899L90.285 13.7908L90.7407 13.585ZM90.8281 13.7767L90.3698 13.9765L90.3734 13.9847L90.3772 13.9928L90.8281 13.7767ZM90.9137 13.9574L91.3672 13.7465L91.3622 13.7363L90.9137 13.9574ZM91.0048 14.147L91.4534 13.9259L91.4478 13.9152L91.0048 14.147ZM91.0922 14.324L91.5455 14.1131L91.5404 14.1021L91.5348 14.0914L91.0922 14.324ZM91.1869 14.5119L91.6352 14.2902L91.6299 14.2801L91.1869 14.5119ZM91.2761 14.687L90.8279 14.9086L90.8318 14.9166L90.836 14.9243L91.2761 14.687ZM91.3744 14.8713L90.9342 15.1086L90.9405 15.1197L91.3744 14.8713ZM91.4673 15.0445L91.0277 15.283L91.0328 15.2918L91.4673 15.0445ZM91.5711 15.225L92.0109 14.9872L92.0067 14.9794L92.0023 14.9718L91.5711 15.225ZM91.6676 15.3947L92.1022 15.1473L92.0979 15.14L91.6676 15.3947ZM91.7714 15.5752L91.3401 15.8285L91.3474 15.8401L91.7714 15.5752ZM91.8734 15.741L92.3083 15.4942L92.3029 15.4847L92.297 15.4754L91.8734 15.741ZM91.9808 15.9198L91.5554 16.1827L91.5609 16.1912L91.9808 15.9198ZM92.0828 16.0839L91.6588 16.3488L91.663 16.3556L91.6675 16.3622L92.0828 16.0839ZM92.1957 16.2571L91.7738 16.5255L91.7763 16.5292L92.1957 16.2571ZM92.3013 16.4192L91.8819 16.6913L91.8869 16.699L91.8921 16.7065L92.3013 16.4192ZM92.4161 16.5887L92.005 16.8734L92.0092 16.8794L92.4161 16.5887ZM92.5253 16.749L92.1123 17.0311L92.1202 17.0421L92.5253 16.749ZM92.6437 16.9168L92.2322 17.201L92.2351 17.205L92.6437 16.9168ZM92.7566 17.0716L93.1613 16.7779L93.1584 16.7741L92.7566 17.0716ZM92.8768 17.2374L92.4721 17.5311L92.4768 17.5375L92.4817 17.5438L92.8768 17.2374ZM92.9915 17.3903L92.5895 17.6879L92.5978 17.6985L92.9915 17.3903ZM93.1172 17.5525L93.5137 17.2479L93.5109 17.2444L93.1172 17.5525ZM93.2355 17.7019L93.6353 17.4016L93.6303 17.3949L93.6251 17.3884L93.2355 17.7019ZM93.363 17.8621L92.9757 18.1784L92.9794 18.1828L93.363 17.8621ZM93.4832 18.0077L93.8699 17.6908L93.8649 17.6846L93.8597 17.6787L93.4832 18.0077ZM93.6143 18.1643L93.998 17.8435L93.9894 17.8337L93.6143 18.1643ZM93.7363 18.3062L94.118 17.9832L94.1136 17.9781L93.7363 18.3062ZM93.8692 18.461L93.4876 18.784L93.4933 18.7908L93.4993 18.7974L93.8692 18.461ZM93.9967 18.6011L93.6202 18.9301L93.621 18.9309L93.9967 18.6011ZM94.1333 18.7504L93.7642 19.0879L93.7706 19.0946L94.1333 18.7504ZM94.2608 18.8867L94.6232 18.5421L94.6163 18.5352L94.2608 18.8867ZM94.401 19.034L94.0393 19.3793L94.0455 19.3856L94.401 19.034ZM94.5303 19.1668L94.1747 19.5185L94.1813 19.5249L94.5303 19.1668ZM94.6741 19.3106L94.3185 19.662L94.3186 19.6622L94.6741 19.3106ZM94.8053 19.4394L94.4498 19.7912L94.4563 19.7975L94.8053 19.4394ZM94.9528 19.5813L94.5971 19.9327L94.6081 19.9439L94.6197 19.9543L94.9528 19.5813ZM95.0875 19.7068L95.4293 19.3419L95.4288 19.3414L95.0875 19.7068ZM95.2387 19.8431L95.5865 19.484L95.5766 19.4744L95.5661 19.4653L95.2387 19.8431ZM95.3734 19.9647L95.7086 19.5937L95.7032 19.5888L95.6977 19.5841L95.3734 19.9647ZM95.5282 20.101L95.8601 19.727L95.8569 19.7242L95.5282 20.101ZM95.6648 20.2172L95.9924 19.8392L95.9816 19.8304L95.6648 20.2172ZM95.8214 20.3498L95.5005 20.7333L95.5065 20.7381L95.8214 20.3498ZM95.9598 20.4622L96.2807 20.0788L96.2736 20.0728L96.2663 20.0672L95.9598 20.4622ZM96.1201 20.5913L96.4351 20.2028L96.4263 20.196L96.1201 20.5913ZM96.2603 20.7L96.5666 20.3046L96.5578 20.2981L96.2603 20.7ZM96.4242 20.8253L96.7293 20.4291L96.7218 20.4235L96.4242 20.8253ZM96.5662 20.9303L96.8648 20.529L96.8554 20.5224L96.5662 20.9303ZM96.7337 21.0518L97.0388 20.6557L97.032 20.6505L97.025 20.6455L96.7337 21.0518ZM96.8758 21.1533L97.1743 20.7522L97.1651 20.7453L97.1555 20.7389L96.8758 21.1533ZM97.047 21.2713L97.3404 20.8665L97.3323 20.8606L97.324 20.8551L97.047 21.2713ZM97.189 21.3689L96.9019 21.7784L96.912 21.7851L97.189 21.3689ZM97.3638 21.4832L97.6398 21.0661L97.6314 21.0608L97.3638 21.4832ZM97.5077 21.5753L97.7847 21.159L97.7783 21.1548L97.7718 21.1508L97.5077 21.5753ZM97.688 21.6877L97.9596 21.268L97.9519 21.263L97.944 21.2583L97.688 21.6877ZM97.83 21.7742L98.0918 21.3481L98.0818 21.3423L97.83 21.7742ZM98.0121 21.883L97.7601 22.3149L97.7661 22.3183L98.0121 21.883ZM98.156 21.9659L97.9041 22.398L97.915 22.404L98.156 21.9659ZM98.3435 22.0709L98.5966 21.6397L98.5878 21.6345L98.5787 21.6297L98.3435 22.0709ZM98.4874 22.1504L98.2472 22.5891L98.2575 22.5944L98.4874 22.1504ZM98.6786 22.2516L98.4528 22.6977L98.4535 22.6981L98.6786 22.2516ZM98.8225 22.3253L99.0484 21.8791L99.0408 21.8755L98.8225 22.3253ZM99.0173 22.423L98.7914 22.8691L98.799 22.8728L99.0173 22.423ZM99.1612 22.4912L99.386 22.0446L99.3765 22.0399L99.3669 22.0355L99.1612 22.4912ZM99.3615 22.5852L99.5791 22.135L99.571 22.1311L99.5629 22.1276L99.3615 22.5852ZM99.5017 22.6495L99.7136 22.1966L99.7056 22.1929L99.6974 22.1894L99.5017 22.6495ZM99.7075 22.74L99.9047 22.2805L99.9044 22.2804L99.7075 22.74ZM99.8477 22.8008L99.6439 23.2573L99.6531 23.2614L99.6625 23.2652L99.8477 22.8008ZM100.057 22.8873L99.8665 23.3496L99.8755 23.3531L100.057 22.8873ZM100.196 22.9408L100.008 23.4043L100.018 23.4084L100.196 22.9408ZM100.412 23.0238L100.234 23.491L100.235 23.4912L100.412 23.0238ZM100.549 23.0734L100.378 23.5432L100.381 23.5445L100.549 23.0734ZM100.769 23.1528L100.602 23.6239L100.608 23.6263L100.615 23.6285L100.769 23.1528ZM100.904 23.1968L101.068 22.7243L101.056 22.7205L100.904 23.1968ZM101.132 23.2725L100.971 23.7461L100.981 23.7493L100.99 23.7522L101.132 23.2725ZM101.261 23.3111L101.408 22.8331L101.402 22.8315L101.261 23.3111ZM101.496 23.3813L101.649 22.9052L101.639 22.9021L101.629 22.8994L101.496 23.3813ZM101.621 23.418L101.475 23.8961L101.488 23.8998L101.621 23.418ZM101.862 23.4827L101.989 22.9991L101.987 22.9987L101.862 23.4827ZM101.984 23.514L101.843 23.9939L101.855 23.9973L101.867 24.0002L101.984 23.514ZM102.233 23.5746L102.347 23.0876L102.34 23.0861L102.233 23.5746ZM102.352 23.6005L102.47 23.1146L102.456 23.1115L102.443 23.109L102.352 23.6005ZM102.607 23.6576L102.501 24.1465L102.511 24.1484L102.607 23.6576ZM102.719 23.6798L102.624 24.1705L102.626 24.171L102.719 23.6798ZM102.984 23.7296L103.081 23.2393L103.073 23.2376L103.065 23.2363L102.984 23.7296ZM103.087 23.7479L103.175 23.2555L103.165 23.2539L103.087 23.7479ZM103.362 23.7941L103.281 24.2875L103.295 24.2897L103.309 24.2912L103.362 23.7941ZM103.461 23.807L103.538 23.313L103.528 23.3114L103.517 23.3102L103.461 23.807ZM103.745 23.8474L103.677 24.343L103.686 24.344L103.745 23.8474ZM104.074 23.8843L104.133 23.3877L104.125 23.387L104.074 23.8843ZM104.406 23.9157L104.446 24.414L104.447 23.4174L104.406 23.9157ZM89.4178 42.9091C89.4178 42.5937 89.4123 42.2808 89.3992 41.9669L88.4001 42.0085C88.4125 42.3066 88.4178 42.6054 88.4178 42.9091H89.4178ZM89.3992 41.9669C88.9884 32.133 82.1623 24.1216 73.4721 23.4173L73.3914 24.414C81.4802 25.0696 88.006 32.5744 88.4001 42.0086L89.3992 41.9669ZM73.4721 24.414C82.4401 23.6887 89.4178 15.1858 89.4178 4.92208H88.4178C88.4178 14.7742 81.7378 22.7422 73.3914 23.4173L73.4721 24.414ZM88.4178 4.92208C88.4178 5.20157 88.4234 5.47909 88.4346 5.75501L89.4338 5.71443C89.4232 5.4522 89.4178 5.1882 89.4178 4.92208H88.4178ZM88.4346 5.75323C88.4402 5.90433 88.4476 6.05474 88.4549 6.20169L89.4537 6.15237C89.4463 6.00433 89.4392 5.86011 89.4339 5.71621L88.4346 5.75323ZM88.4552 6.20788C88.4573 6.2422 88.4599 6.27527 88.4622 6.30373C88.4645 6.33351 88.4665 6.35809 88.468 6.38211L89.466 6.31841C89.4639 6.28538 89.4613 6.2528 89.4591 6.22496C89.4568 6.1958 89.4548 6.17079 89.4533 6.14618L88.4552 6.20788ZM88.4679 6.38041C88.4726 6.4577 88.4772 6.56322 88.485 6.65956L89.4818 6.57912C89.475 6.49495 89.4724 6.4237 89.4661 6.32011L88.4679 6.38041ZM88.4852 6.66153C88.4879 6.69379 88.4907 6.72605 88.4934 6.75831C88.4961 6.79057 88.4988 6.82283 88.5016 6.85508L89.498 6.77071C89.4953 6.73845 89.4925 6.70619 89.4898 6.67393C89.4871 6.64167 89.4844 6.60941 89.4816 6.57715L88.4852 6.66153ZM88.5018 6.85772C88.5091 6.93859 88.5164 7.01965 88.5237 7.10078L89.5196 7.01134C89.5124 6.93023 89.5051 6.84906 89.4978 6.76807L88.5018 6.85772ZM88.5243 7.10772C88.5317 7.17869 88.5391 7.24754 88.5463 7.31554L89.5407 7.20942C89.5334 7.14092 89.5262 7.07365 89.519 7.00439L88.5243 7.10772ZM88.5469 7.32091C88.5519 7.36279 88.566 7.496 88.5726 7.55076L89.5654 7.43106C89.5538 7.33477 89.5534 7.31694 89.5401 7.20405L88.5469 7.32091ZM88.5729 7.55366C88.5776 7.59016 88.5822 7.62608 88.5867 7.66149C88.5913 7.69704 88.5958 7.73207 88.6003 7.76754L89.5924 7.64204C89.5877 7.60553 89.5831 7.56961 89.5786 7.53421C89.574 7.49866 89.5695 7.46363 89.565 7.42816L88.5729 7.55366ZM88.6001 7.76613C88.61 7.84655 88.6177 7.90682 88.6274 7.98527L89.6199 7.86289C89.6113 7.79365 89.6008 7.71034 89.5925 7.64345L88.6001 7.76613ZM88.6276 7.98699C88.6376 8.06606 88.6538 8.16013 88.6621 8.21487L89.6507 8.06441C89.6372 7.97557 89.6278 7.92569 89.6197 7.86117L88.6276 7.98699ZM88.6624 8.21683C88.6672 8.24753 88.6717 8.27933 88.6768 8.31545C88.6817 8.35028 88.6872 8.38943 88.6934 8.42866L89.6814 8.27428C89.6766 8.24358 89.6721 8.21179 89.667 8.17567C89.6621 8.14083 89.6565 8.10168 89.6504 8.06245L88.6624 8.21683ZM88.6946 8.43653C88.7076 8.51152 88.7211 8.58589 88.7333 8.65441L89.7179 8.48003C89.7046 8.40459 89.6926 8.33911 89.6801 8.26642L88.6946 8.43653ZM88.7316 8.64441C88.7437 8.72156 88.7575 8.79777 88.7701 8.86686L89.7539 8.68752C89.741 8.61675 89.7294 8.55273 89.7196 8.49003L88.7316 8.64441ZM88.7697 8.86438C88.7761 8.90043 88.7825 8.93643 88.7888 8.97236C88.7952 9.00832 88.8016 9.0442 88.8079 9.08013L89.7926 8.90574C89.7862 8.86969 89.7798 8.83369 89.7735 8.79776C89.7671 8.7618 89.7607 8.72592 89.7544 8.68999L88.7697 8.86438ZM88.8108 9.09491C88.8241 9.15901 88.8359 9.22219 88.8489 9.29122L89.8318 9.10713C89.8192 9.04003 89.8055 8.96671 89.7898 8.89096L88.8108 9.09491ZM88.8503 9.29836C88.8663 9.37742 88.8841 9.45524 88.9002 9.52601L89.8751 9.30345C89.8585 9.23064 89.8435 9.16488 89.8304 9.09998L88.8503 9.29836ZM88.8962 9.50653C88.9105 9.58308 88.927 9.66075 88.946 9.73746L89.9168 9.49777C89.903 9.4417 89.8904 9.38288 89.8792 9.32293L88.8962 9.50653ZM88.9391 9.70503C88.9546 9.79262 88.9785 9.88841 88.9912 9.94418L89.9662 9.72217C89.9462 9.63398 89.9336 9.58619 89.9237 9.5302L88.9391 9.70503ZM88.9934 9.95334C89.0004 9.98177 89.0072 10.0114 89.0151 10.0456C89.0227 10.0785 89.0313 10.1161 89.0406 10.1538L90.0115 9.91416C90.0044 9.8855 89.9976 9.85578 89.9897 9.82139C89.9821 9.78839 89.9734 9.75078 89.9641 9.71301L88.9934 9.95334ZM89.0421 10.1597C89.0605 10.2303 89.0783 10.2987 89.0961 10.3688L90.0654 10.1229C90.0467 10.0494 90.0281 9.9779 90.01 9.90831L89.0421 10.1597ZM89.0923 10.353C89.1085 10.4268 89.1325 10.5163 89.1444 10.5648L90.1153 10.3251C90.0945 10.241 90.082 10.1976 90.0691 10.1387L89.0923 10.353ZM89.1492 10.5827C89.1592 10.6175 89.1692 10.6525 89.1792 10.6875C89.1892 10.7225 89.1993 10.7576 89.2093 10.7926L90.1706 10.5173C90.1606 10.4824 90.1507 10.4475 90.1406 10.4124C90.1306 10.3774 90.1206 10.3424 90.1105 10.3073L89.1492 10.5827ZM89.2078 10.7872C89.2162 10.8178 89.2242 10.8483 89.233 10.8814C89.2415 10.9137 89.2508 10.9487 89.2606 10.9845L90.225 10.72C90.2166 10.6894 90.2085 10.6589 90.1998 10.6258C90.1912 10.5934 90.182 10.5585 90.1722 10.5227L89.2078 10.7872ZM89.2621 10.9899C89.2818 11.0588 89.309 11.1471 89.325 11.2015L90.2843 10.9192C90.2603 10.8374 90.2438 10.7856 90.2234 10.7145L89.2621 10.9899ZM89.326 11.2048C89.3467 11.2734 89.3673 11.3398 89.3873 11.404L90.3423 11.1075C90.3222 11.0427 90.3027 10.9801 90.2834 10.9159L89.326 11.2048ZM89.385 11.3966C89.4066 11.4702 89.4298 11.5444 89.4523 11.6147L90.4047 11.3097C90.3835 11.2435 90.363 11.1778 90.3445 11.115L89.385 11.3966ZM89.4551 11.623C89.4675 11.6595 89.5011 11.7639 89.5202 11.8185L90.4644 11.4892C90.4397 11.4186 90.4333 11.3936 90.402 11.3014L89.4551 11.623ZM89.515 11.803C89.5353 11.8678 89.5689 11.9672 89.5836 12.013L90.5357 11.7073C90.5067 11.6169 90.4929 11.5798 90.4695 11.5047L89.515 11.803ZM89.5875 12.0248C89.6092 12.0869 89.6323 12.1533 89.6576 12.2222L90.5964 11.8777C90.5743 11.8176 90.5538 11.7587 90.5317 11.6955L89.5875 12.0248ZM89.6561 12.2179C89.684 12.2963 89.7039 12.3488 89.7276 12.4169L90.6721 12.0884C90.6485 12.0204 90.6174 11.9364 90.598 11.882L89.6561 12.2179ZM89.7277 12.4173C89.7521 12.487 89.7781 12.5557 89.8013 12.6173L90.7368 12.2639C90.7127 12.2002 90.6913 12.1435 90.672 12.088L89.7277 12.4173ZM89.8023 12.6199C89.8163 12.6563 89.8306 12.6923 89.8436 12.725C89.857 12.7586 89.8691 12.7891 89.8806 12.819L90.8141 12.4605C90.8001 12.4241 90.7858 12.3881 90.7728 12.3554C90.7594 12.3217 90.7473 12.2913 90.7358 12.2613L89.8023 12.6199ZM89.8753 12.8044C89.9023 12.8821 89.9327 12.9562 89.9591 13.0192L90.8813 12.6325C90.8567 12.5739 90.8361 12.5227 90.8195 12.4751L89.8753 12.8044ZM89.9536 13.0056C89.9818 13.0786 90.0113 13.1504 90.0399 13.2179L90.9608 12.828C90.9347 12.7664 90.9096 12.7055 90.8868 12.6462L89.9536 13.0056ZM90.0326 13.1997C90.0605 13.2734 90.09 13.3437 90.1207 13.4121L91.0329 13.0023C91.009 12.9491 90.9875 12.8978 90.9681 12.8462L90.0326 13.1997ZM90.1144 13.3974C90.1409 13.4617 90.1812 13.5527 90.2001 13.5975L91.121 13.2077C91.0854 13.1234 91.0674 13.0854 91.0392 13.0169L90.1144 13.3974ZM90.2045 13.6075C90.2167 13.6346 90.2286 13.6621 90.242 13.693C90.255 13.7229 90.2695 13.7562 90.2846 13.7899L91.1968 13.38C91.1846 13.353 91.1727 13.3255 91.1592 13.2946C91.1462 13.2647 91.1318 13.2314 91.1167 13.1977L90.2045 13.6075ZM90.285 13.7908C90.3222 13.8731 90.3427 13.9144 90.3698 13.9765L91.2865 13.5768C91.2589 13.5137 91.2175 13.4259 91.1964 13.3792L90.285 13.7908ZM90.3772 13.9928C90.3968 14.0337 90.4369 14.121 90.4652 14.1784L91.3622 13.7363C91.3322 13.6755 91.3177 13.6412 91.279 13.5606L90.3772 13.9928ZM90.4603 14.1682C90.4864 14.2243 90.522 14.3029 90.5617 14.3788L91.4478 13.9152C91.4219 13.8658 91.3993 13.8158 91.3671 13.7465L90.4603 14.1682ZM90.5563 14.3681C90.5782 14.4125 90.6149 14.4906 90.6495 14.5565L91.5348 14.0914C91.5075 14.0395 91.4896 13.9997 91.4532 13.9259L90.5563 14.3681ZM90.6388 14.5348C90.6737 14.6099 90.712 14.683 90.7438 14.7437L91.6299 14.2801C91.5961 14.2156 91.5689 14.1634 91.5455 14.1131L90.6388 14.5348ZM90.7387 14.7335C90.7556 14.7678 90.7727 14.8008 90.7874 14.8292C90.8027 14.8589 90.8157 14.8839 90.8279 14.9086L91.7243 14.4654C91.7074 14.4312 91.6903 14.3981 91.6756 14.3698C91.6602 14.3401 91.6473 14.315 91.6351 14.2903L90.7387 14.7335ZM90.836 14.9243C90.8515 14.9531 90.8671 14.9826 90.8837 15.0137C90.8999 15.0443 90.9171 15.0765 90.9343 15.1086L91.8145 14.634C91.799 14.6052 91.7834 14.5757 91.7668 14.5446C91.7506 14.514 91.7335 14.4817 91.7162 14.4497L90.836 14.9243ZM90.9405 15.1197C90.972 15.1747 90.9824 15.1992 91.0278 15.2829L91.9068 14.8061C91.8903 14.7757 91.8424 14.6823 91.8083 14.6228L90.9405 15.1197ZM91.0328 15.2918C91.0671 15.3521 91.1033 15.4158 91.1399 15.4782L92.0023 14.9718C91.9697 14.9163 91.9367 14.8585 91.9018 14.7972L91.0328 15.2918ZM91.1313 15.4628C91.1662 15.5274 91.2024 15.5904 91.2373 15.6494L92.0979 15.14C92.0672 15.0882 92.0379 15.037 92.0109 14.9872L91.1313 15.4628ZM91.2331 15.642C91.2674 15.7023 91.3036 15.766 91.3402 15.8284L92.2026 15.322C92.17 15.2665 92.1371 15.2087 92.1022 15.1474L91.2331 15.642ZM91.3474 15.8401C91.363 15.8651 91.3784 15.8903 91.3955 15.9185C91.4122 15.9458 91.4306 15.9759 91.4497 16.0065L92.297 15.4754C92.2816 15.4508 92.2663 15.4257 92.2493 15.3978C92.2328 15.3707 92.2145 15.3407 92.1955 15.3103L91.3474 15.8401ZM91.4385 15.9877C91.4785 16.0582 91.5199 16.125 91.5555 16.1827L92.4061 15.6569C92.3689 15.5967 92.3375 15.5457 92.3083 15.4942L91.4385 15.9877ZM91.5609 16.1912C91.594 16.2424 91.615 16.2787 91.6588 16.3488L92.5069 15.819C92.4815 15.7783 92.4369 15.7042 92.4007 15.6483L91.5609 16.1912ZM91.6675 16.3622C91.703 16.4153 91.739 16.4708 91.7739 16.5255L92.6176 15.9887C92.5796 15.929 92.5391 15.8666 92.4982 15.8055L91.6675 16.3622ZM91.7763 16.5292C91.7941 16.5567 91.8123 16.5845 91.8299 16.6116C91.8478 16.6389 91.8651 16.6654 91.8819 16.6913L92.7208 16.147C92.703 16.1196 92.6848 16.0917 92.6671 16.0647C92.6493 16.0374 92.632 16.0109 92.6152 15.985L91.7763 16.5292ZM91.8921 16.7065C91.9083 16.7295 91.9244 16.7535 91.9433 16.7819C91.9613 16.8089 91.9828 16.8413 92.0051 16.8734L92.8271 16.3039C92.8111 16.2808 92.7953 16.257 92.7754 16.2273C92.7566 16.199 92.7344 16.1659 92.7105 16.1318L91.8921 16.7065ZM92.0092 16.8794C92.0443 16.9284 92.0658 16.9628 92.1124 17.031L92.9382 16.467C92.912 16.4286 92.8643 16.356 92.8229 16.298L92.0092 16.8794ZM92.1202 17.0421C92.1576 17.0937 92.1954 17.1477 92.2322 17.201L93.0551 16.6327C93.0154 16.5753 92.9732 16.5151 92.9304 16.456L92.1202 17.0421ZM92.2351 17.205C92.2755 17.2624 92.3176 17.319 92.3547 17.3691L93.1584 16.7741C93.1191 16.7209 93.0847 16.6746 93.0523 16.6287L92.2351 17.205ZM92.3519 17.3653C92.3718 17.3927 92.3918 17.4202 92.4118 17.4479C92.4318 17.4755 92.452 17.5033 92.4721 17.5311L93.2814 16.9437C93.2615 16.9163 93.2416 16.8888 93.2216 16.8611C93.2016 16.8335 93.1814 16.8057 93.1612 16.7779L92.3519 17.3653ZM92.4817 17.5438C92.5175 17.5899 92.5498 17.634 92.5897 17.6878L93.3934 17.0928C93.3568 17.0433 93.3162 16.9882 93.2719 16.931L92.4817 17.5438ZM92.5978 17.6985C92.6173 17.7235 92.6371 17.7492 92.6583 17.7766C92.679 17.8035 92.7011 17.8322 92.7234 17.8607L93.5109 17.2444C93.4913 17.2193 93.4715 17.1937 93.4504 17.1662C93.4297 17.1393 93.4076 17.1106 93.3853 17.0821L92.5978 17.6985ZM92.7206 17.8571C92.7629 17.9121 92.8066 17.9663 92.846 18.0153L93.6251 17.3884C93.5844 17.3379 93.5479 17.2925 93.5137 17.248L92.7206 17.8571ZM92.8358 18.0022C92.8831 18.0653 92.9338 18.127 92.9757 18.1783L93.7503 17.5458C93.7048 17.4901 93.668 17.4452 93.6353 17.4016L92.8358 18.0022ZM92.9794 18.1828C92.9975 18.2044 93.0645 18.2885 93.1067 18.3367L93.8597 17.6787C93.8181 17.6311 93.8087 17.6156 93.7466 17.5414L92.9794 18.1828ZM93.0965 18.3246C93.1376 18.3749 93.1863 18.4349 93.2392 18.4949L93.9894 17.8337C93.9513 17.7905 93.9162 17.7472 93.8699 17.6908L93.0965 18.3246ZM93.2307 18.485C93.2746 18.5376 93.3204 18.5899 93.3591 18.6344L94.1136 17.9781C94.0721 17.9305 94.0341 17.8869 93.9979 17.8437L93.2307 18.485ZM93.3546 18.6292C93.3786 18.6575 93.4027 18.6854 93.4247 18.7108C93.4473 18.7369 93.4678 18.7606 93.4876 18.784L94.2509 18.1381C94.227 18.1098 94.2029 18.0819 94.1809 18.0565C94.1583 18.0303 94.1378 18.0066 94.118 17.9833L93.3546 18.6292ZM93.4993 18.7974C93.5515 18.8547 93.582 18.8863 93.6202 18.9301L94.3732 18.272C94.3277 18.22 94.2708 18.1594 94.2392 18.1246L93.4993 18.7974ZM93.621 18.9309C93.6686 18.9852 93.7283 19.0485 93.7643 19.0878L94.5023 18.413C94.4472 18.3528 94.4123 18.3165 94.3725 18.2712L93.621 18.9309ZM93.7706 19.0946C93.789 19.1139 93.8626 19.1952 93.9053 19.2383L94.6163 18.5352C94.5715 18.4899 94.5651 18.479 94.496 18.4063L93.7706 19.0946ZM93.8984 19.2313C93.9456 19.2808 93.9915 19.3292 94.0393 19.3793L94.7627 18.6888C94.7157 18.6396 94.6707 18.5922 94.6231 18.5422L93.8984 19.2313ZM94.0455 19.3856C94.065 19.4053 94.0844 19.4254 94.1061 19.4479C94.1272 19.4697 94.1505 19.4939 94.1748 19.5184L94.8858 18.8152C94.8663 18.7955 94.8469 18.7755 94.8252 18.753C94.8041 18.7312 94.7807 18.707 94.7565 18.6825L94.0455 19.3856ZM94.1813 19.5249C94.2265 19.569 94.2706 19.6136 94.3185 19.662L95.0298 18.9592C94.983 18.9118 94.9324 18.8605 94.8793 18.8088L94.1813 19.5249ZM94.3186 19.6622C94.3448 19.6886 94.3709 19.7139 94.3924 19.7348C94.4153 19.7569 94.4333 19.7744 94.4498 19.7911L95.1607 19.0878C95.1354 19.0622 95.1096 19.0373 95.0883 19.0166C95.0657 18.9947 95.0472 18.9767 95.0297 18.959L94.3186 19.6622ZM94.4563 19.7975C94.529 19.8684 94.549 19.8841 94.5971 19.9327L95.3085 19.2299C95.2618 19.1828 95.1799 19.1064 95.1543 19.0814L94.4563 19.7975ZM94.6197 19.9543C94.66 19.9902 94.6916 20.0213 94.7463 20.0723L95.4288 19.3414C95.3923 19.3074 95.3366 19.2537 95.2858 19.2084L94.6197 19.9543ZM94.7457 20.0717C94.7993 20.1219 94.855 20.1723 94.9112 20.221L95.5661 19.4653C95.5203 19.4256 95.4741 19.3839 95.4293 19.3419L94.7457 20.0717ZM94.8908 20.2023C94.9445 20.2543 94.9985 20.3022 95.0492 20.3453L95.6977 19.5841C95.6573 19.5497 95.6202 19.5166 95.5865 19.484L94.8908 20.2023ZM95.0383 20.3358C95.0933 20.3855 95.1485 20.4333 95.1996 20.4779L95.8569 19.7242C95.8023 19.6766 95.7555 19.6361 95.7086 19.5937L95.0383 20.3358ZM95.1963 20.475C95.2457 20.5189 95.2964 20.5618 95.3479 20.604L95.9816 19.8304C95.9385 19.7951 95.8981 19.7608 95.8601 19.7271L95.1963 20.475ZM95.3373 20.595C95.3921 20.6426 95.4483 20.6896 95.5005 20.7332L96.1423 19.9663C96.0889 19.9216 96.0394 19.8802 95.9923 19.8394L95.3373 20.595ZM95.5065 20.7381C95.5383 20.764 95.6014 20.817 95.6533 20.8573L96.2663 20.0672C96.2235 20.034 96.1955 20.0094 96.1363 19.9614L95.5065 20.7381ZM95.6389 20.8457C95.6966 20.8939 95.7543 20.9404 95.8138 20.9865L96.4263 20.196C96.3766 20.1575 96.3286 20.1189 96.2807 20.0788L95.6389 20.8457ZM95.8051 20.9796C95.8562 21.0211 95.9094 21.0623 95.9627 21.1018L96.5578 20.2981C96.5165 20.2675 96.4749 20.2353 96.435 20.2029L95.8051 20.9796ZM95.954 21.0952C96.007 21.1363 96.0666 21.1826 96.1266 21.2271L96.7218 20.4235C96.6725 20.387 96.6228 20.3483 96.5665 20.3047L95.954 21.0952ZM96.1191 21.2214C96.1697 21.2604 96.2224 21.2994 96.277 21.3381L96.8554 20.5224C96.8117 20.4914 96.7696 20.4603 96.7292 20.4291L96.1191 21.2214ZM96.2677 21.3314C96.3265 21.3752 96.3867 21.4182 96.4424 21.4582L97.025 20.6455C96.9679 20.6045 96.9151 20.5667 96.8647 20.5291L96.2677 21.3314ZM96.4287 21.448C96.4857 21.4919 96.5425 21.5316 96.596 21.5677L97.1555 20.7389C97.1107 20.7086 97.0728 20.6819 97.0388 20.6557L96.4287 21.448ZM96.5773 21.5544C96.6446 21.6045 96.7146 21.6508 96.7699 21.6876L97.324 20.8551C97.2627 20.8143 97.2163 20.7834 97.1743 20.7522L96.5773 21.5544ZM96.7535 21.6761C96.7917 21.7039 96.8908 21.7704 96.902 21.7783L97.476 20.9594C97.3925 20.9009 97.3932 20.9048 97.3404 20.8665L96.7535 21.6761ZM96.912 21.7851C96.9703 21.8239 97.0327 21.8653 97.0962 21.9055L97.6314 21.0608C97.5784 21.0272 97.5242 20.9914 97.466 20.9526L96.912 21.7851ZM97.0879 21.9001C97.14 21.9346 97.1932 21.9685 97.2435 21.9998L97.7718 21.1508C97.7275 21.1231 97.6823 21.0944 97.6397 21.0662L97.0879 21.9001ZM97.2306 21.9915C97.2991 22.0371 97.3675 22.0788 97.4319 22.1172L97.944 21.2583C97.8846 21.2228 97.8328 21.191 97.7847 21.159L97.2306 21.9915ZM97.4163 22.1075C97.4712 22.143 97.5279 22.1769 97.5782 22.2062L98.0818 21.3423C98.0374 21.3164 97.9958 21.2913 97.9596 21.268L97.4163 22.1075ZM97.5683 22.2003C97.6326 22.2398 97.698 22.2786 97.7602 22.3148L98.2641 21.4511C98.206 21.4172 98.1476 21.3825 98.0917 21.3482L97.5683 22.2003ZM97.7661 22.3183C97.8119 22.3441 97.8564 22.3701 97.9042 22.3979L98.4078 21.534C98.3608 21.5066 98.3106 21.4773 98.2581 21.4476L97.7661 22.3183ZM97.915 22.404C97.9491 22.4228 98.0517 22.482 98.1083 22.5121L98.5787 21.6297C98.5115 21.5939 98.4903 21.5792 98.3969 21.5278L97.915 22.404ZM98.0905 22.5021C98.1463 22.5349 98.2111 22.5691 98.2473 22.5889L98.7275 21.7118C98.669 21.6798 98.6355 21.6625 98.5966 21.6397L98.0905 22.5021ZM98.2575 22.5944C98.2825 22.6073 98.4015 22.6717 98.4528 22.6977L98.9045 21.8055C98.8246 21.7651 98.8198 21.7594 98.7173 21.7064L98.2575 22.5944ZM98.4535 22.6981C98.4738 22.7083 98.5574 22.7524 98.6041 22.7751L99.0408 21.8755C98.9892 21.8504 98.9781 21.8426 98.9037 21.8051L98.4535 22.6981ZM98.5966 22.7713C98.6309 22.7887 98.6645 22.8055 98.6966 22.8215C98.7292 22.8377 98.7602 22.8532 98.7915 22.8691L99.2432 21.9769C99.2089 21.9595 99.1753 21.9428 99.1432 21.9267C99.1106 21.9105 99.0796 21.895 99.0483 21.8792L98.5966 22.7713ZM98.799 22.8728C98.8466 22.8959 98.8987 22.9213 98.9555 22.947L99.3669 22.0355C99.3253 22.0167 99.2864 21.9978 99.2357 21.9732L98.799 22.8728ZM98.9363 22.9378C99.0111 22.9755 99.0865 23.0105 99.1601 23.0429L99.5629 22.1276C99.5017 22.1006 99.4424 22.073 99.386 22.0446L98.9363 22.9378ZM99.1439 23.0354C99.1926 23.0589 99.2481 23.085 99.306 23.1096L99.6974 22.1894C99.6607 22.1738 99.6215 22.1555 99.5791 22.135L99.1439 23.0354ZM99.2899 23.1024C99.3665 23.1383 99.4449 23.1714 99.5106 23.1996L99.9044 22.2804C99.8317 22.2492 99.7717 22.2238 99.7136 22.1966L99.2899 23.1024ZM99.5103 23.1994C99.5599 23.2207 99.6026 23.2389 99.6439 23.2573L100.052 22.3442C100.002 22.322 99.9498 22.2999 99.9047 22.2805L99.5103 23.1994ZM99.6625 23.2652C99.729 23.2917 99.7862 23.3164 99.8666 23.3496L100.248 22.425C100.186 22.3996 100.105 22.365 100.033 22.3363L99.6625 23.2652ZM99.8755 23.3531C99.9391 23.3779 99.9637 23.3863 100.008 23.4042L100.383 22.4775C100.336 22.4584 100.27 22.4336 100.239 22.4214L99.8755 23.3531ZM100.018 23.4084C100.092 23.4364 100.156 23.461 100.234 23.491L100.59 22.5566C100.523 22.531 100.444 22.5004 100.373 22.4732L100.018 23.4084ZM100.235 23.4912C100.281 23.509 100.344 23.5308 100.378 23.5431L100.72 22.6036C100.663 22.5828 100.63 22.5718 100.59 22.5564L100.235 23.4912ZM100.381 23.5445C100.416 23.5568 100.451 23.5697 100.488 23.5831C100.525 23.5964 100.563 23.6103 100.602 23.6239L100.937 22.6818C100.902 22.6694 100.867 22.6566 100.83 22.6431C100.793 22.6298 100.755 22.6159 100.716 22.6023L100.381 23.5445ZM100.615 23.6285C100.649 23.6394 100.709 23.6596 100.752 23.6731L101.056 22.7205C101.007 22.705 100.98 22.6957 100.923 22.6771L100.615 23.6285ZM100.74 23.6692C100.808 23.6928 100.919 23.7285 100.971 23.7461L101.292 22.799C101.191 22.7648 101.149 22.7527 101.068 22.7245L100.74 23.6692ZM100.99 23.7522C101.011 23.7581 101.031 23.7642 101.052 23.7707C101.073 23.777 101.096 23.7839 101.12 23.7908L101.402 22.8315C101.382 22.8255 101.362 22.8195 101.34 22.813C101.319 22.8066 101.296 22.7998 101.273 22.7929L100.99 23.7522ZM101.114 23.7891C101.189 23.8122 101.274 23.8386 101.362 23.8631L101.629 22.8994C101.557 22.8795 101.489 22.8582 101.408 22.8332L101.114 23.7891ZM101.343 23.8573C101.373 23.8668 101.401 23.875 101.422 23.8809C101.446 23.8875 101.461 23.8916 101.475 23.8959L101.768 22.94C101.74 22.9315 101.712 22.9237 101.694 22.9184C101.672 22.9123 101.659 22.9085 101.649 22.9052L101.343 23.8573ZM101.488 23.8998C101.57 23.9225 101.654 23.9455 101.736 23.9667L101.987 22.9987C101.912 22.9793 101.833 22.9578 101.755 22.9361L101.488 23.8998ZM101.735 23.9663C101.81 23.986 101.809 23.9838 101.843 23.9939L102.124 23.0341C102.082 23.0218 101.998 23.0014 101.989 22.9991L101.735 23.9663ZM101.867 24.0002C101.93 24.0153 102.038 24.0439 102.127 24.0631L102.34 23.0861C102.261 23.0688 102.205 23.053 102.101 23.0279L101.867 24.0002ZM102.12 24.0616C102.155 24.0699 102.206 24.0821 102.26 24.0921L102.443 23.109C102.417 23.1041 102.391 23.098 102.347 23.0876L102.12 24.0616ZM102.234 24.0864C102.325 24.1086 102.418 24.1284 102.501 24.1464L102.712 23.1688C102.624 23.1499 102.546 23.1331 102.47 23.1146L102.234 24.0864ZM102.511 24.1484C102.529 24.152 102.548 24.1555 102.566 24.1592C102.585 24.1629 102.604 24.1667 102.624 24.1705L102.815 23.189C102.797 23.1854 102.779 23.1819 102.76 23.1782C102.741 23.1745 102.722 23.1707 102.702 23.1668L102.511 24.1484ZM102.626 24.171C102.7 24.185 102.805 24.2069 102.902 24.2229L103.065 23.2363C102.983 23.2227 102.914 23.2078 102.813 23.1886L102.626 24.171ZM102.886 24.2199C102.931 24.2289 102.971 24.2357 103.01 24.2419L103.165 23.2539C103.135 23.2492 103.109 23.2448 103.081 23.2393L102.886 24.2199ZM102.999 24.2401C103.097 24.2574 103.192 24.2729 103.281 24.2875L103.443 23.3007C103.351 23.2855 103.264 23.2715 103.175 23.2556L102.999 24.2401ZM103.309 24.2912C103.316 24.292 103.325 24.2932 103.342 24.2956C103.356 24.2976 103.38 24.301 103.404 24.3038L103.517 23.3102C103.509 23.3092 103.499 23.3079 103.481 23.3053C103.465 23.3031 103.442 23.2997 103.416 23.297L103.309 24.2912ZM103.383 24.3009C103.482 24.3164 103.584 24.3302 103.677 24.3429L103.812 23.352C103.716 23.3389 103.625 23.3266 103.538 23.313L103.383 24.3009ZM103.686 24.344C103.796 24.3569 103.91 24.3701 104.023 24.3818L104.125 23.387C104.02 23.3762 103.912 23.3637 103.803 23.3509L103.686 24.344ZM104.016 24.3809C104.135 24.395 104.253 24.4047 104.365 24.414L104.447 23.4174C104.333 23.408 104.232 23.3995 104.133 23.3878L104.016 24.3809ZM104.365 23.4173C95.3975 24.1446 88.4178 32.6471 88.4178 42.9091H89.4178C89.4178 33.059 96.0996 25.0909 104.446 24.414L104.365 23.4173ZM89.5032 1.5C76.8004 1.5 66.5032 11.7974 66.5032 24.5001H67.5032C67.5032 12.3497 77.3527 2.5 89.5032 2.5V1.5ZM66.5032 24.5001C66.5032 37.2028 76.8004 47.5 89.5032 47.5V46.5C77.3527 46.5 67.5032 36.6505 67.5032 24.5001H66.5032ZM89.5032 47.5C102.206 47.5 112.503 37.2028 112.503 24.5001H111.503C111.503 36.6505 101.654 46.5 89.5032 46.5V47.5ZM112.503 24.5001C112.503 11.7974 102.206 1.5 89.5032 1.5V2.5C101.654 2.5 111.503 12.3497 111.503 24.5001H112.503Z" fill="url(#paint2_linear_10_2)"/>
<path d="M168.161 23.5368C169.983 20.9892 171.468 18.4474 172.519 16.0357C174.77 10.8793 174.805 6.83495 172.619 4.64912C170.433 2.46713 166.391 2.50158 161.236 4.75057C158.824 5.80137 156.284 7.28666 153.733 9.11073C151.185 7.28666 148.644 5.80137 146.232 4.75057C141.076 2.50158 137.033 2.46522 134.847 4.64912C132.661 6.83495 132.696 10.8793 134.949 16.0357C136 18.4474 137.483 20.9892 139.307 23.5368C137.483 26.0844 136 28.6262 134.949 31.0379C132.696 36.1943 132.661 40.2386 134.847 42.4225C135.923 43.5001 137.448 44.036 139.338 44.036C141.284 44.036 143.615 43.4657 146.232 42.323C148.644 41.2722 151.185 39.7888 153.733 37.9628C156.284 39.7888 158.824 41.2722 161.236 42.323C163.853 43.4657 166.182 44.036 168.128 44.036C170.018 44.036 171.545 43.5001 172.619 42.4225C174.805 40.2386 174.77 36.1943 172.519 31.0379C171.468 28.6262 169.983 26.0844 168.161 23.5368" stroke="url(#paint3_linear_10_2)"/>
<defs>
<linearGradient id="paint0_linear_10_2" x1="25.2971" y1="54.7073" x2="55.2709" y2="16.6607" gradientUnits="userSpaceOnUse">
<stop stop-color="#D3DB85"/>
<stop offset="1" stop-color="#A1BF0C"/>
</linearGradient>
<linearGradient id="paint1_linear_10_2" x1="219.987" y1="54.1103" x2="250.014" y2="16.0509" gradientUnits="userSpaceOnUse">
<stop stop-color="#D3DB85"/>
<stop offset="1" stop-color="#A1BF0C"/>
</linearGradient>
<linearGradient id="paint2_linear_10_2" x1="91.5271" y1="55.0334" x2="121.501" y2="16.9869" gradientUnits="userSpaceOnUse">
<stop stop-color="#D3DB85"/>
<stop offset="1" stop-color="#A1BF0C"/>
</linearGradient>
<linearGradient id="paint3_linear_10_2" x1="155.577" y1="51.3552" x2="182.886" y2="16.6908" gradientUnits="userSpaceOnUse">
<stop stop-color="#D3DB85"/>
<stop offset="1" stop-color="#A1BF0C"/>
</linearGradient>
</defs>
</svg>
