<svg width="177" height="40" viewBox="0 0 177 40" fill="none" xmlns="http://www.w3.org/2000/svg">
<path d="M33.7232 1C29.5665 1 25.7863 3.04642 23.5007 6.50185C21.2154 3.04642 17.4342 1 13.2785 1C6.50823 1 1 6.5093 1 13.2824C1 19.4316 4.87386 25.8609 12.2032 31.8777C17.7085 36.3961 23.2906 39.1392 23.3467 39.1662C23.3949 39.1899 23.4478 39.2017 23.5004 39.2017C23.5529 39.2017 23.6058 39.1903 23.6544 39.1662C23.7101 39.1392 29.2925 36.3961 34.7972 31.8777C42.1265 25.8612 46 19.432 46 13.2824C46.0004 6.5093 40.4928 1 33.7232 1Z" stroke="url(#paint0_linear_10_3)"/>
<path d="M98.7232 1C94.5665 1 90.7863 3.04642 88.5007 6.50185C86.2154 3.04642 82.4342 1 78.2785 1C71.5082 1 66 6.5093 66 13.2824C66 19.4316 69.8739 25.8609 77.2032 31.8777C82.7085 36.3961 88.2906 39.1392 88.3467 39.1662C88.3949 39.1899 88.4478 39.2017 88.5004 39.2017C88.5529 39.2017 88.6058 39.1903 88.6544 39.1662C88.7101 39.1392 94.2925 36.3961 99.7972 31.8777C107.126 25.8612 111 19.432 111 13.2824C111 6.5093 105.493 1 98.7232 1Z" stroke="url(#paint1_linear_10_3)"/>
<path d="M163.723 1C159.567 1 155.786 3.04642 153.501 6.50185C151.215 3.04642 147.434 1 143.279 1C136.508 1 131 6.5093 131 13.2824C131 19.4316 134.874 25.8609 142.203 31.8777C147.709 36.3961 153.291 39.1392 153.347 39.1662C153.395 39.1899 153.448 39.2017 153.5 39.2017C153.553 39.2017 153.606 39.1903 153.654 39.1662C153.71 39.1392 159.293 36.3961 164.797 31.8777C172.126 25.8612 176 19.432 176 13.2824C176 6.5093 170.493 1 163.723 1Z" stroke="url(#paint2_linear_10_3)"/>
<defs>
<linearGradient id="paint0_linear_10_3" x1="25.5239" y1="46.0215" x2="49.7128" y2="9.85383" gradientUnits="userSpaceOnUse">
<stop stop-color="#D3DB85"/>
<stop offset="1" stop-color="#A1BF0C"/>
</linearGradient>
<linearGradient id="paint1_linear_10_3" x1="90.5239" y1="46.0215" x2="114.713" y2="9.85383" gradientUnits="userSpaceOnUse">
<stop stop-color="#D3DB85"/>
<stop offset="1" stop-color="#A1BF0C"/>
</linearGradient>
<linearGradient id="paint2_linear_10_3" x1="155.524" y1="46.0215" x2="179.713" y2="9.85383" gradientUnits="userSpaceOnUse">
<stop stop-color="#D3DB85"/>
<stop offset="1" stop-color="#A1BF0C"/>
</linearGradient>
</defs>
</svg>
