<svg width="73" height="43" viewBox="0 0 73 43" fill="none" xmlns="http://www.w3.org/2000/svg">
<path fill-rule="evenodd" clip-rule="evenodd" d="M73 37.3853V0.994726C73 0.445085 72.5543 0 72.0053 0C71.4556 0 71.0099 0.445085 71.0099 0.994726V37.3853C71.0099 37.9342 71.4556 38.3802 72.0053 38.3802C72.5543 38.3802 73 37.935 73 37.3853ZM68.0293 7.4935C68.1205 7.53248 68.2157 7.55144 68.3095 7.55144C68.5846 7.55144 68.8471 7.39026 68.963 7.1215C69.1184 6.76082 68.9517 6.34273 68.5909 6.18787L58.8169 1.98708C58.4568 1.83222 58.038 1.99841 57.8832 2.35922C57.7278 2.71989 57.8945 3.13798 58.2553 3.29284L68.0293 7.4935ZM67.7397 12.1186L56.7121 11.1736C56.3243 11.1402 55.9768 11.4299 55.942 11.8208C55.9087 12.2118 56.1989 12.5563 56.5899 12.5896L67.6175 13.5347C67.6383 13.5365 67.6591 13.5372 67.6793 13.5372C68.0451 13.5372 68.3554 13.2576 68.3869 12.8873C68.4209 12.4964 68.1307 12.1519 67.7397 12.1186ZM67.7404 20.7536H56.7947C56.4019 20.7536 56.0839 20.4356 56.0839 20.0428C56.0839 19.6499 56.4019 19.332 56.7947 19.332H67.7404C68.1332 19.332 68.4512 19.65 68.4512 20.0428C68.4512 20.4357 68.1332 20.7536 67.7404 20.7536ZM55.9993 28.2553C56.0473 28.6123 56.3526 28.8718 56.7033 28.8718C56.7348 28.8718 56.7669 28.8692 56.7982 28.8654L67.7735 27.3953C68.1627 27.3431 68.4359 26.9856 68.3836 26.5965C68.3313 26.2074 67.975 25.9329 67.5847 25.9864L56.6094 27.4565C56.2203 27.5086 55.9472 27.8664 55.9993 28.2553ZM68.5977 32.5908L58.2004 37.2123C58.1066 37.2537 58.0084 37.2741 57.9121 37.2741C57.6395 37.2741 57.38 37.1167 57.2623 36.8515C57.1031 36.4927 57.2648 36.0727 57.6231 35.9133L68.0204 31.292C68.3787 31.1328 68.7993 31.2939 68.9585 31.6528C69.1184 32.0117 68.9567 32.4316 68.5977 32.5908ZM29.6682 18.5242C29.6682 20.9371 31.6242 22.8931 34.037 22.8931C36.4498 22.8931 38.4058 20.9371 38.4058 18.5242C38.4058 16.1114 36.4498 14.1554 34.037 14.1554C31.6242 14.1554 29.6682 16.1114 29.6682 18.5242ZM8.96854 22.8931C6.5557 22.8931 4.59972 20.9371 4.59972 18.5242C4.59972 16.1114 6.5557 14.1554 8.96854 14.1554C11.3814 14.1554 13.3374 16.1114 13.3374 18.5242C13.3374 20.9371 11.3814 22.8931 8.96854 22.8931ZM50.9783 40.6965C50.5344 41.3322 49.85 41.7 49.1335 41.7636C48.5651 41.8141 47.9763 41.6718 47.4713 41.3197L42.2362 37.6642C39.7562 40.8257 38.3182 42.0462 34.2914 42.0462C34.1998 42.0582 33.5819 42.0528 33.0571 42.0483H33.0568C32.69 42.0452 32.3688 42.0424 32.3043 42.0462C29.2546 42.0336 28.6337 40.1217 28.6054 37.024C28.6033 36.7986 28.6008 36.5394 28.598 36.253C28.5741 33.8122 28.531 29.3971 28.6054 27.1077C28.6813 24.4018 30.8197 24.3391 31.8958 24.3075L32.0091 24.304C32.0905 24.3088 32.913 24.3065 33.7054 24.3043H33.7059C34.4363 24.3023 35.141 24.3003 35.2162 24.304C35.604 24.304 36.2159 24.338 36.814 24.756L40.8353 27.5869C41.4334 27.9992 42.0329 28.4196 42.6015 28.8297L45.4755 30.8532C46.5837 31.6269 46.8689 33.1269 46.1556 34.2575L50.355 37.1902C51.4958 37.9859 51.7747 39.5562 50.9783 40.6965ZM3.63963 26.3799L0.0175781 38.3802C0.0175781 38.3802 -0.218529 39.2081 1.03983 39.2073H3.74036C4.08471 40.993 5.01136 42.0357 7.25799 42.0449C7.32246 42.0411 7.64386 42.0439 8.01071 42.047C8.53557 42.0515 9.15346 42.0568 9.24507 42.0449C13.2719 42.0449 14.7099 40.8243 17.19 37.6629L22.4251 41.3184C22.93 41.6705 23.5187 41.8127 24.0873 41.7623C24.804 41.6987 25.4883 41.3309 25.932 40.6952C26.7284 39.5551 26.4501 37.9854 25.3092 37.1889L21.1098 34.2562C21.8232 33.1255 21.538 31.6256 20.4297 30.8519L17.5557 28.8284C16.9873 28.4183 16.3878 27.9978 15.7898 27.5856L11.7684 24.7547C11.1704 24.3367 10.5582 24.3027 10.1704 24.3027C10.0958 24.299 9.40012 24.301 8.67503 24.3031C7.87798 24.3053 7.0454 24.3077 6.96328 24.3027C6.9297 24.3038 6.89478 24.3049 6.85864 24.306C5.89178 24.3351 4.05606 24.3904 3.64529 26.3834L3.63963 26.3799Z" fill="#626262"/>
</svg>
