<svg width="20" height="20" viewBox="0 0 20 20" fill="none" xmlns="http://www.w3.org/2000/svg">
<path fill-rule="evenodd" clip-rule="evenodd" d="M5.87776 0.060018C6.94475 0.0126705 7.28352 0 10.0003 0H9.99967C12.7165 0 13.0552 0.010003 14.1222 0.060018H14.1302C14.9985 0.0780234 15.8307 0.247408 16.5496 0.524824L16.583 0.536161C17.2432 0.78957 17.8347 1.18169 18.3215 1.6785L18.3222 1.67917C18.8176 2.16598 19.2098 2.75683 19.4752 3.45037L19.4578 3.39969C19.7519 4.16925 19.9206 5.00083 19.94 5.87776C19.9873 6.94475 20 7.28352 20 10.0003C20 12.7171 19.99 13.0559 19.94 14.1229V14.1309C19.9213 14.9992 19.7526 15.8314 19.4752 16.5503L19.4632 16.585C18.9444 17.898 17.898 18.9443 16.5503 19.4752L16.601 19.4578C15.8314 19.7519 14.9998 19.9206 14.1229 19.94C13.0559 19.9873 12.7171 20 10.0003 20C7.28352 20 6.94475 19.99 5.87776 19.94H5.86976C5.0015 19.9213 4.16925 19.7519 3.45037 19.4752L3.41569 19.4632C2.10263 18.9444 1.05632 17.898 0.525491 16.5503L0.542163 16.601C0.248074 15.8314 0.0786903 14.9998 0.060018 14.1229C0.0126705 13.0559 0 12.7171 0 10.0003C0 7.28352 0.010003 6.94475 0.060018 5.87776V5.86976C0.0780234 5.0015 0.247408 4.16925 0.524824 3.45037L0.536161 3.41703C0.78957 2.75683 1.18169 2.16532 1.6785 1.6785L1.67917 1.67784C2.16598 1.18302 2.75683 0.790237 3.45037 0.525491L3.39969 0.542163C4.16925 0.248074 5.00083 0.0786903 5.87776 0.060018ZM10.0003 1.80054C12.6698 1.80054 12.9879 1.81388 14.0422 1.85989C14.7111 1.86789 15.3473 1.9946 15.9361 2.21867L15.8981 2.206C16.7744 2.54743 17.4546 3.22763 17.7887 4.08122L17.7967 4.1039C18.0074 4.65473 18.1328 5.29159 18.1408 5.95645V5.95979C18.1881 7.01477 18.1988 7.33153 18.1988 10.0017C18.1988 12.6718 18.1861 12.9892 18.1374 14.0435C18.1248 14.7131 17.9974 15.3493 17.774 15.9381L17.7867 15.8994C17.6146 16.3502 17.3599 16.7344 17.0378 17.0504L17.0371 17.0511C16.7217 17.3739 16.3376 17.6286 15.9088 17.7907L15.8874 17.798C15.3346 18.0087 14.6957 18.1341 14.0282 18.1421H14.0249C12.9632 18.1895 12.6505 18.2001 9.97566 18.2001C7.29952 18.2001 6.98743 18.1875 5.92644 18.1388C5.25424 18.1261 4.61538 17.9987 4.02387 17.7753L4.06322 17.788C3.61242 17.6186 3.2283 17.3632 2.91487 17.0398L2.91421 17.0391C2.58811 16.7257 2.33203 16.3409 2.17132 15.9101L2.16465 15.8894C1.95459 15.3373 1.82721 14.6991 1.81454 14.0322V14.0269L1.81248 13.9688C1.77671 12.9636 1.76386 12.6027 1.76386 9.99033C1.76386 7.38025 1.77667 7.01606 1.81233 6.00217L1.81454 5.93912C1.82721 5.26758 1.95392 4.62939 2.17732 4.03855L2.16465 4.07789C2.32937 3.62509 2.58611 3.23964 2.91354 2.92821L2.91487 2.92688C3.22697 2.59878 3.61175 2.34337 4.04321 2.18532L4.06389 2.17865C4.61272 1.96659 5.24691 1.83922 5.90977 1.82788H5.91444L5.96927 1.82595C6.98837 1.7901 7.33608 1.77787 9.96366 1.77787L10.0003 1.80054ZM16.539 4.66273V4.6634C16.539 5.32626 16.0015 5.86309 15.3393 5.86309C14.6771 5.86309 14.1396 5.3256 14.1396 4.6634C14.1396 4.00053 14.6771 3.46371 15.3393 3.46371C16.0015 3.46437 16.5383 4.00053 16.539 4.66273ZM10.0003 13.334C8.15911 13.334 6.66667 11.8416 6.66667 10.0003C6.66667 8.15911 8.15911 6.66667 10.0003 6.66667C11.8416 6.66667 13.334 8.15911 13.334 10.0003V10.001C13.334 11.8416 11.8422 13.3333 10.0017 13.3333H10.001L10.0003 13.334ZM4.86546 10.0003C4.86546 7.16482 7.16415 4.86546 10.0003 4.86546L9.99967 4.86479H10.0003C12.8365 4.86479 15.1352 7.16415 15.1352 9.99967V10.0003C15.1352 12.8359 12.8365 15.1352 10.0003 15.1352C7.16482 15.1352 4.86546 12.8359 4.86546 10.0003Z" fill="white"/>
</svg>
