<svg width="10" height="13" viewBox="0 0 10 13" fill="none" xmlns="http://www.w3.org/2000/svg">
<path fill-rule="evenodd" clip-rule="evenodd" d="M0 5C0 2.23958 2.23958 0 5 0C7.76367 0 10 2.23958 10 5C9.99675 5.59245 9.88607 6.17839 9.67773 6.73177L9.69401 6.72852C9.59635 7.03125 9.42383 7.36003 9.20573 7.70508C8.23242 9.22852 6.25651 11.2435 5 12.5V12.5033H4.99675C4.93791 12.4443 4.87749 12.3838 4.81565 12.3219C3.26266 10.7674 0.819525 8.32197 0.309245 6.72852L0.322266 6.73177C0.113933 6.17839 0.00651 5.59245 0 5ZM6.92383 5C6.92383 3.9388 6.0612 3.07617 5 3.07617C3.9388 3.07943 3.07617 3.9388 3.07943 5C3.07943 6.0612 3.9388 6.92057 5 6.92383C6.0612 6.92383 6.92383 6.0612 6.92383 5Z" fill="white"/>
</svg>
