<svg width="28" height="17" viewBox="0 0 28 17" fill="none" xmlns="http://www.w3.org/2000/svg">
<path fill-rule="evenodd" clip-rule="evenodd" d="M7.81477 16.4616C12.1228 16.4616 15.6166 12.976 15.6295 8.66986V8.6468C15.6295 6.49924 14.7637 4.55361 13.3612 3.14188L13.3603 3.14096C11.9448 1.71448 9.98262 0.832031 7.81477 0.832031C3.49844 0.832031 0 4.33047 0 8.6468C0 12.9631 3.49936 16.4616 7.81477 16.4616ZM24.1571 8.66986C24.1571 12.7381 22.4217 16.0476 20.2732 16.0476C18.1247 16.0476 16.3774 12.7381 16.3774 8.66986C16.3774 4.60156 18.1238 1.29216 20.2732 1.29216C22.4226 1.29216 24.1571 4.60156 24.1571 8.66986ZM27.65 8.66986C27.65 12.3131 27.0405 15.2776 26.2825 15.2776C25.5246 15.2776 24.9151 12.3131 24.9151 8.66986C24.9151 5.02665 25.5246 2.06211 26.2825 2.06211C27.0405 2.06211 27.65 5.02665 27.65 8.66986Z" fill="white"/>
</svg>
