<svg width="204" height="41" viewBox="0 0 204 41" fill="none" xmlns="http://www.w3.org/2000/svg">
<path d="M203.364 3.67432C202.982 3.41978 202.473 3.41978 202.091 3.67432C197.636 6.47432 194.327 4.6925 190.636 2.65614C186.818 0.619778 182.364 -1.67113 176.636 1.76523C176.255 2.14705 176 2.52887 176 3.03796V20.4743V20.8561V34.4743C176 35.238 176.509 35.7471 177.273 35.7471C178.036 35.7471 178.545 35.238 178.545 34.4743V21.6198C182.745 19.3289 185.8 20.9834 189.364 22.8925C191.782 24.1652 194.455 25.5652 197.509 25.5652C199.291 25.5652 201.327 25.0561 203.364 23.7834C203.745 23.5289 204 23.147 204 22.638V4.81978C204 4.31069 203.745 3.92887 203.364 3.67432Z" fill="#AB59D2"/>
<path fill-rule="evenodd" clip-rule="evenodd" d="M20.3598 2C18.2709 2.00145 16.4363 3.76862 16.4892 5.88008C16.4157 7.59883 17.7898 9.74629 20.3572 9.75742C22.6142 9.7671 24.244 7.96929 24.2375 5.88269C24.2299 3.43834 22.1772 1.99885 20.3598 2ZM22.2885 13.9571L22.2885 13.9571L22.2884 13.9571C22.2081 13.8889 22.1429 13.8335 22.0879 13.7693C21.712 13.3308 21.3399 12.8888 20.9722 12.4431C20.7321 12.1522 20.4524 11.9137 20.0983 11.7808C19.3038 11.4829 18.5873 11.6389 17.991 12.2282C17.4071 12.8054 17.2968 13.523 17.5593 14.2777C17.6623 14.574 17.858 14.8512 18.0601 15.0972C18.6317 15.7926 19.2122 16.4807 19.7927 17.1688L19.7928 17.1688L19.7929 17.1689L19.7929 17.169L19.793 17.1691L19.7931 17.1693L19.7932 17.1694C20.062 17.4879 20.3307 17.8064 20.5986 18.1257C20.6884 18.2328 20.7739 18.3436 20.8602 18.4555L20.8603 18.4556L20.8613 18.4569C20.9016 18.5091 20.942 18.5615 20.9832 18.6139C20.9696 18.6632 20.9576 18.7107 20.9459 18.7568L20.9459 18.7568L20.9458 18.7569L20.9458 18.757C20.9216 18.8525 20.8989 18.9419 20.8677 19.0282C20.6521 19.6254 20.4354 20.2221 20.2187 20.8189C19.9546 21.5461 19.6905 22.2734 19.4285 23.0013C19.0048 24.1781 18.1983 24.9401 16.9785 25.224C16.641 25.3024 16.4781 25.5211 16.3035 25.7674C15.0688 27.5075 13.8328 29.2467 12.5967 30.9859L11.6868 32.2662L11.5884 32.4051C11.4876 32.5474 11.3869 32.6896 11.2838 32.8302C10.9625 33.2686 10.5539 33.6002 10.0535 33.8136C7.78059 34.7835 5.50738 35.7525 3.2333 36.7198C2.65658 36.9651 2.06179 36.997 1.47639 36.777C0.621284 36.4556 0.117411 35.8154 0.0165206 34.9166C-0.0881277 33.9861 0.309073 33.2509 1.07486 32.7258C1.25612 32.6015 1.46422 32.5137 1.66963 32.427L1.7568 32.3901L2.33597 32.1427L2.3362 32.1426L2.33644 32.1425L2.33667 32.1424C4.01238 31.4266 5.6881 30.7108 7.36893 30.0071C7.76628 29.8408 8.07126 29.6083 8.31915 29.2474C9.18986 27.9801 10.0711 26.72 10.9523 25.4599C11.3158 24.9401 11.6793 24.4203 12.0421 23.9C12.1132 23.798 12.1805 23.6933 12.2517 23.5825L12.2519 23.5822L12.2519 23.5822L12.2519 23.5821C12.2859 23.5292 12.3208 23.4749 12.3575 23.4188C12.3453 23.3862 12.3336 23.3532 12.3219 23.3202L12.3219 23.3202L12.3219 23.3202C12.2963 23.2476 12.2705 23.1748 12.2381 23.105C11.8064 22.1743 11.8013 21.2401 12.1563 20.2792C12.6364 18.9799 13.1054 17.6765 13.5745 16.3731L13.5746 16.3728L13.5747 16.3725L13.5748 16.3722C13.786 15.7855 13.9971 15.1989 14.2092 14.6126C14.294 14.3783 14.3807 14.1446 14.4674 13.911L14.4674 13.9109L14.4675 13.9108L14.4675 13.9107C14.6299 13.4732 14.7922 13.0357 14.9419 12.5939C15.5075 10.9244 17.3584 9.84803 19.3335 10.5365C19.4011 10.5601 19.4689 10.5833 19.5367 10.6066L19.5369 10.6066L19.5371 10.6067L19.5371 10.6067C19.841 10.711 20.1455 10.8155 20.4364 10.9489C21.6271 11.4951 22.2849 12.4385 22.4481 13.732C22.4549 13.7866 22.449 13.8427 22.4409 13.9204C22.4363 13.9644 22.4309 14.0154 22.4267 14.0769C22.3761 14.0315 22.3303 13.9926 22.2885 13.9571ZM22.3302 29.6077L16.6117 26.1271C16.6475 25.8186 16.7915 25.6685 17.0424 25.6041C18.4289 25.2484 19.3346 24.3738 19.8131 23.0368C19.827 22.9979 19.8541 22.9637 19.8875 22.9215C19.9052 22.8992 19.9245 22.8747 19.9447 22.8461C19.9913 22.8707 20.0376 22.8941 20.0834 22.9173C20.1817 22.9671 20.2776 23.0157 20.3693 23.0712C21.3471 23.6625 22.3244 24.2548 23.3016 24.847L23.3102 24.8523L23.3137 24.8544L23.3173 24.8566C24.0131 25.2783 24.7089 25.7 25.4049 26.1213C26.4171 26.7342 26.9337 27.6238 26.9323 28.8138C26.9308 29.9791 26.9309 31.1444 26.9309 32.3097V32.3127C26.9309 33.7561 26.9309 35.1996 26.9282 36.6431C26.9278 36.8722 26.9126 37.1085 26.8556 37.3289C26.5919 38.349 25.6463 39.0402 24.5872 39.0069C23.5407 38.9741 22.6735 38.2779 22.4497 37.2609C22.3861 36.9714 22.3751 36.6661 22.3734 36.3679C22.3657 35.0544 22.3623 33.7409 22.3588 32.4274V32.4274V32.4274V32.4273C22.357 31.7316 22.3552 31.036 22.3527 30.3403C22.3522 30.1869 22.3462 30.0334 22.3397 29.8659C22.3364 29.7838 22.3331 29.6982 22.3302 29.6077ZM22.7684 15.0932C23.0131 15.1341 23.2027 15.054 23.3848 14.977C23.4368 14.955 23.4883 14.9333 23.5402 14.9147C24.3194 14.6356 25.0965 14.3504 25.8735 14.0651L25.8735 14.0651L25.8741 14.0649C26.266 13.921 26.6579 13.7771 27.05 13.6341C27.0852 13.6213 27.1203 13.6081 27.1555 13.595L27.1558 13.5949C27.3156 13.5354 27.4761 13.4755 27.6413 13.4421C28.4325 13.282 29.2021 13.7134 29.476 14.4564C29.7593 15.225 29.4206 16.075 28.6749 16.4503C28.5608 16.5078 28.4394 16.5513 28.3182 16.5947L28.3182 16.5947L28.318 16.5948C28.287 16.6059 28.2559 16.617 28.225 16.6284C26.5148 17.2566 24.8042 17.8839 23.0936 18.5111C23.0591 18.5237 23.0247 18.5369 22.9903 18.5502L22.9901 18.5503C22.8951 18.5869 22.7998 18.6236 22.7016 18.6474C22.1214 18.7873 21.6025 18.6823 21.1775 18.2389C21.0849 18.142 20.9982 18.0392 20.9118 17.9366L20.9036 17.927C20.5803 17.5434 20.2573 17.1596 19.9342 16.7758C19.41 16.1532 18.8858 15.5305 18.3607 14.9086C18.1358 14.6423 17.9368 14.3672 17.8498 14.0178C17.6756 13.3185 17.9242 12.639 18.5084 12.2664C19.1123 11.8814 19.9023 11.9347 20.4363 12.4099C20.5691 12.5281 20.6852 12.6658 20.8007 12.8028L20.8565 12.8689C21.1154 13.1743 21.3734 13.4806 21.6313 13.7869C21.9086 14.1161 22.1859 14.4453 22.4644 14.7735C22.5363 14.8581 22.6146 14.9372 22.6846 15.0078C22.7144 15.0379 22.7428 15.0664 22.7684 15.0932ZM14.4289 12.8587C14.4341 12.8158 14.4405 12.7626 14.4508 12.6937C14.3803 12.712 14.3185 12.7268 14.2628 12.7401C14.158 12.7651 14.0746 12.785 13.9947 12.8142C13.681 12.9288 13.3681 13.0459 13.0553 13.163C12.4384 13.394 11.8215 13.6249 11.1981 13.8368C10.6176 14.034 10.2134 14.3793 9.91424 14.917C9.34185 15.945 8.75277 16.9638 8.16366 17.9826C7.90883 18.4233 7.654 18.864 7.40051 19.3054C7.39469 19.3156 7.38885 19.3258 7.38301 19.3359C7.30843 19.4658 7.23337 19.5965 7.17546 19.734C6.92656 20.3243 7.06792 20.9587 7.56023 21.3639C7.75377 21.523 7.97998 21.6524 8.20879 21.7567C8.87152 22.059 9.5565 21.864 9.97943 21.2635C10.07 21.1349 10.1475 20.9969 10.225 20.8591C10.2495 20.8154 10.2741 20.7718 10.299 20.7284L10.2991 20.7283C10.9907 19.5278 11.6823 18.3273 12.3719 17.1255C12.5112 16.8826 12.6485 16.6443 12.9427 16.5544C13.1432 16.4929 13.2104 16.314 13.2737 16.1391C13.6509 15.0972 14.0273 14.0551 14.4011 13.0121C14.4153 12.9724 14.4205 12.9295 14.4289 12.8587Z" fill="#AB59D2"/>
<path fill-rule="evenodd" clip-rule="evenodd" d="M64.9485 4.86601C64.9466 2.74774 63.1853 0.953258 61.0679 1.00168C59.1698 0.941261 57.2032 2.51662 57.1958 4.8728C57.1893 6.88815 58.7845 8.74927 61.0749 8.74681C63.4097 8.74435 64.9502 6.82093 64.9485 4.86601ZM58.7751 24.9435L58.7751 24.9436C58.7272 25.111 58.68 25.2757 58.6378 25.4416C58.2742 26.872 57.9114 28.3027 57.5486 29.7334L56.9849 31.9557C56.9601 32.0536 56.9338 32.151 56.9074 32.2486L56.9074 32.2486L56.9074 32.2486L56.9074 32.2486L56.9074 32.2487L56.9073 32.2489C56.8915 32.3074 56.8757 32.3659 56.8602 32.4244C56.4426 34.0067 54.7924 34.9385 53.2387 34.5067C52.2813 34.2407 51.3254 33.9687 50.3695 33.6968L50.3694 33.6968L50.3693 33.6968L50.3691 33.6967L50.3645 33.6954L50.3603 33.6942L50.3564 33.6931C49.9616 33.5808 49.5668 33.4685 49.1719 33.3566L48.8691 33.2708C47.9257 33.0037 46.9822 32.7365 46.0392 32.4681C45.8617 32.4175 45.6848 32.3637 45.5103 32.3036C44.1732 31.8427 43.506 30.1774 44.425 28.8144C44.7806 28.2872 45.2941 27.9926 45.9294 27.9355C46.3448 27.8983 46.7577 27.9189 47.1674 28.0259C48.7882 28.4493 50.4108 28.8661 52.0334 29.2829L52.0339 29.283L52.0343 29.2832L52.0348 29.2833L52.3999 29.3771C52.5025 29.4035 52.6068 29.4232 52.7214 29.4448C52.7774 29.4554 52.8358 29.4664 52.8977 29.479C52.9205 29.4161 52.944 29.3563 52.9669 29.298C53.0141 29.178 53.0585 29.065 53.0874 28.9482C53.2759 28.1864 53.4627 27.4241 53.6495 26.6618L53.6497 26.6611C53.9081 25.6069 54.1665 24.5526 54.4293 23.4994C54.5163 23.1509 54.529 22.8402 54.3586 22.4986C54.0278 21.8357 53.9973 21.1236 54.1362 20.4001C54.4302 18.8673 54.7233 17.3344 55.0163 15.8014L55.017 15.7977L55.0177 15.7941C55.2229 14.7206 55.4281 13.6472 55.6336 12.5738C55.6522 12.4768 55.6749 12.3807 55.6976 12.2846L55.6976 12.2844C55.7068 12.2457 55.7159 12.2069 55.7248 12.1681C56.1457 10.3231 57.8203 9.22446 59.6898 9.56775C59.8298 9.59347 59.9695 9.6215 60.1092 9.64953L60.1093 9.64953L60.1093 9.64954L60.1094 9.64956C60.2868 9.68514 60.4641 9.72073 60.6423 9.75161C62.2799 10.0356 63.6989 11.6454 63.3261 13.7291C63.2742 14.0199 63.2143 14.3092 63.1496 14.6221L63.1495 14.6225L63.1494 14.623L63.1494 14.6232L63.1493 14.6239L63.1492 14.624L63.1491 14.6244C63.118 14.7747 63.0858 14.9305 63.0528 15.0945C63.0178 15.0532 62.9843 15.0189 62.9543 14.9881C62.8987 14.931 62.855 14.886 62.835 14.8323C62.6313 14.2834 62.4315 13.7332 62.2316 13.183C62.1003 12.8215 61.969 12.46 61.8366 12.0988C61.8232 12.0624 61.81 12.0258 61.7967 11.9891C61.7234 11.7864 61.6496 11.5827 61.5491 11.3939C61.0696 10.4925 59.9861 10.1127 59.0531 10.5054C58.1452 10.8874 57.6618 11.8865 57.924 12.8445C57.9605 12.9778 58.0077 13.1084 58.0548 13.2387C58.2115 13.6718 58.3694 14.1046 58.5274 14.5373L58.5275 14.5374L58.5275 14.5376C58.8765 15.4933 59.2255 16.4491 59.5597 17.41C59.8963 18.3782 60.4924 19.0964 61.4201 19.5393C61.5745 19.6129 61.7241 19.6967 61.8817 19.785L61.8817 19.7851L61.8819 19.7851C61.9561 19.8267 62.0321 19.8693 62.1113 19.9123L62.0978 20.0004C61.9708 20.8313 61.8466 21.6439 61.61 22.4327C61.4332 23.0224 61.0782 23.5051 60.6114 23.9049C60.2367 24.2256 59.8068 24.4443 59.3362 24.5843C59.2333 24.615 59.1286 24.6397 59.0149 24.6664C58.9597 24.6795 58.9023 24.693 58.842 24.7079C58.8198 24.7873 58.7974 24.8657 58.7751 24.9435L58.7751 24.9435L58.7751 24.9435ZM59.1188 25.0328C60.0021 24.8076 60.7615 24.3911 61.3611 23.6562C61.3979 23.7008 61.4334 23.741 61.4669 23.7788L61.4669 23.7788C61.5334 23.854 61.5918 23.92 61.6364 23.9942C62.7429 25.8335 63.8494 27.673 64.9444 29.5191C65.1076 29.7941 65.2423 30.0939 65.3402 30.3985C65.9668 32.3469 66.5845 34.2983 67.2022 36.2498L67.4794 37.1253C67.6275 37.5929 67.7016 38.06 67.5664 38.5535C67.3054 39.5069 66.5205 40.1862 65.5363 40.274C64.5868 40.3585 63.6477 39.7922 63.2609 38.894C63.2042 38.7626 63.1621 38.6247 63.12 38.4871L63.12 38.487L63.1198 38.4865C63.1079 38.4475 63.096 38.4085 63.0837 38.3696C62.9076 37.8117 62.732 37.2536 62.5564 36.6955C62.1019 35.2512 61.6474 33.8068 61.1849 32.3651C61.0804 32.0391 60.9373 31.7183 60.7646 31.4228C60.1007 30.2872 59.4283 29.156 58.7345 28.0384C58.5346 27.7163 58.4856 27.4277 58.5945 27.0632C58.7336 26.5979 58.8493 26.1256 58.9671 25.6446C59.0166 25.4423 59.0666 25.2384 59.1188 25.0328ZM58.219 12.4933C58.214 11.6061 58.686 10.9684 59.37 10.7747C60.0836 10.5725 60.853 10.8829 61.2136 11.5335C61.296 11.6821 61.3544 11.8446 61.4124 12.0062L61.4125 12.0064C61.4248 12.0407 61.4371 12.075 61.4497 12.1091C61.5421 12.3606 61.6348 12.6121 61.7274 12.8636L61.7282 12.8658L61.7283 12.8659C62.0904 13.8487 62.4525 14.8315 62.8021 15.8188C62.9257 16.1677 63.1225 16.403 63.4584 16.5709C64.3916 17.0378 65.3174 17.5196 66.2433 18.0015L66.2433 18.0015C66.4649 18.1168 66.6865 18.2321 66.9081 18.3472C68.0155 18.9222 68.2417 19.7444 67.5855 20.7923C67.1796 21.4404 66.4969 21.6663 65.784 21.3829C65.6925 21.3464 65.6052 21.2992 65.5179 21.252L65.5179 21.252L65.5176 21.2519C65.4828 21.2331 65.448 21.2143 65.413 21.1961C65.0345 21.0007 64.6568 20.8037 64.2791 20.6067C63.4075 20.1522 62.5359 19.6977 61.6551 19.2617C60.776 18.8267 60.2004 18.1696 59.8821 17.2409C59.5915 16.3927 59.2824 15.5509 58.9732 14.709L58.9732 14.709L58.9732 14.709C58.7888 14.2069 58.6044 13.7047 58.424 13.2012C58.3499 12.9945 58.2946 12.7811 58.2551 12.6289C58.2411 12.575 58.2291 12.5288 58.219 12.4933ZM55.1002 13.431C55.1427 13.199 55.1875 12.9547 55.2361 12.6922C54.9132 12.889 54.6804 13.0781 54.467 13.2514C54.3662 13.3334 54.2697 13.4117 54.1701 13.4857C53.5309 13.9609 53.1504 14.5944 52.957 15.3638C52.768 16.1158 52.5648 16.8643 52.3615 17.6127C52.2806 17.9107 52.1997 18.2087 52.1196 18.507C52.0794 18.657 52.0372 18.8066 51.995 18.9561C51.912 19.2509 51.8289 19.5456 51.7602 19.8436C51.5575 20.7215 51.9622 21.3984 52.8282 21.6511C52.9826 21.6962 53.1431 21.7352 53.3026 21.7428C53.3933 21.7473 53.4855 21.7244 53.5598 21.7058C53.5882 21.6988 53.6139 21.6923 53.636 21.6883C53.6565 21.5089 53.6731 21.3346 53.6895 21.1642C53.7238 20.8054 53.7565 20.4639 53.819 20.1279C54.0406 18.9357 54.2725 17.7454 54.5043 16.5551C54.621 15.9564 54.7376 15.3577 54.8529 14.7587C54.9347 14.334 55.0126 13.9086 55.1002 13.431Z" fill="#AB59D2"/>
<path fill-rule="evenodd" clip-rule="evenodd" d="M146.482 4.91067C146.513 7.39274 148.584 8.83411 150.393 8.73958C152.376 8.80072 154.267 7.08862 154.237 4.84606C154.207 2.69455 152.473 0.976962 150.328 1.00023C148.231 1.02307 146.454 2.67663 146.482 4.91067ZM145.371 10.8705C145.8 10.1118 146.536 9.57771 147.367 9.40585C147.988 9.27735 148.608 9.28689 149.213 9.49893C149.286 9.52435 149.359 9.54955 149.432 9.57476C149.73 9.67809 150.028 9.78145 150.32 9.90033C152.02 10.5924 152.859 12.3619 152.277 14.1085C151.958 15.0658 151.611 16.0135 151.264 16.9611L151.264 16.9614L151.263 16.9622L151.263 16.963C151.118 17.3594 150.972 17.7557 150.829 18.1528C150.651 18.6473 150.472 19.1416 150.293 19.636L150.292 19.6376L150.291 19.6393C150.101 20.1644 149.911 20.6896 149.722 21.2151C149.696 21.2852 149.676 21.3572 149.654 21.4375L149.654 21.4376L149.654 21.4376L149.654 21.4384L149.654 21.4385C149.642 21.4786 149.631 21.5208 149.617 21.5659C149.67 21.6026 149.721 21.6392 149.77 21.6749L149.77 21.675L149.77 21.675L149.77 21.675C149.874 21.7497 149.972 21.8211 150.076 21.8843C150.836 22.3464 151.596 22.8078 152.356 23.2691C153.315 23.8507 154.273 24.4323 155.231 25.0155L155.242 25.0224C155.474 25.164 155.71 25.3076 155.915 25.4845C156.602 26.0776 156.932 26.8454 156.941 27.7472C156.947 28.377 156.946 29.007 156.944 29.6369C156.944 29.9085 156.943 30.18 156.943 30.4516C156.943 30.8568 156.944 31.262 156.944 31.6673V31.6683C156.945 32.9269 156.946 34.1856 156.939 35.4442C156.938 35.7422 156.916 36.0472 156.849 36.3364C156.642 37.2299 155.727 38.1069 154.438 37.9951C153.374 37.9027 152.497 37.0467 152.399 35.9718C152.381 35.7736 152.382 35.5736 152.382 35.374V35.374L152.382 35.279C152.382 34.7846 152.381 34.2902 152.38 33.7958V33.7954C152.376 32.302 152.372 30.8087 152.392 29.3156C152.399 28.8129 152.229 28.5201 151.8 28.2648C150.582 27.5389 149.37 26.8027 148.158 26.0666L148.157 26.0664L148.156 26.0657L148.156 26.0656C147.176 25.4708 146.197 24.876 145.214 24.2866C144.934 24.1188 144.627 23.9947 144.321 23.8712L144.321 23.8712C144.242 23.839 144.162 23.8068 144.083 23.7739C142.876 23.2715 142.158 22.3834 141.928 21.0945C141.836 20.5791 141.888 20.0729 142.055 19.5901C142.277 18.9477 142.509 18.3089 142.742 17.6701C142.936 17.1368 143.13 16.6036 143.318 16.0682C143.407 15.8153 143.579 15.7116 143.807 15.6313C144.914 15.2422 146.02 14.8486 147.125 14.455L147.125 14.455L147.126 14.4546L147.66 14.2648C147.708 14.2475 147.757 14.2308 147.806 14.2141L147.806 14.2141C147.954 14.1636 148.103 14.1131 148.243 14.0458C149.148 13.6104 149.587 12.5907 149.278 11.6593C148.964 10.71 148.035 10.1492 147.042 10.3444C146.801 10.3917 146.567 10.4765 146.334 10.5613L146.334 10.5613C146.219 10.6029 146.105 10.6444 145.989 10.6816C145.86 10.7231 145.731 10.7621 145.585 10.806L145.584 10.8062L145.582 10.8067C145.516 10.8267 145.446 10.8477 145.371 10.8705ZM145.971 25.2087C145.92 25.2847 145.874 25.3526 145.833 25.4151C145.751 25.5377 145.684 25.6391 145.614 25.7384C145.201 26.3203 144.787 26.9015 144.373 27.4826L144.373 27.483L144.372 27.4834L144.372 27.4837L144.372 27.4838L144.372 27.4839L144.372 27.4839C143.406 28.8403 142.44 30.1966 141.486 31.5611C141.047 32.1895 140.498 32.6377 139.793 32.933C138.036 33.6687 136.284 34.4171 134.533 35.1654L134.533 35.1655L134.533 35.1655L134.533 35.1656L133.418 35.6415C133.076 35.7877 132.733 35.9114 132.354 35.9195C131.404 35.9396 130.558 35.4328 130.2 34.5731C129.828 33.6803 129.979 32.8545 130.611 32.1221C130.889 31.8001 131.248 31.6004 131.638 31.4362C132.996 30.8631 134.353 30.2849 135.709 29.7067L135.709 29.7066L135.709 29.7066L135.711 29.7059L135.716 29.7038C136.183 29.5044 136.651 29.305 137.119 29.1058C137.148 29.0936 137.176 29.0805 137.204 29.0673C137.26 29.0414 137.316 29.0155 137.374 28.9973C137.788 28.8672 138.082 28.608 138.325 28.243C138.758 27.593 139.208 26.9542 139.658 26.3153C139.834 26.0666 140.009 25.8178 140.183 25.5684L140.496 25.1204L140.496 25.12L140.496 25.1196L140.497 25.1192C140.948 24.4736 141.398 23.828 141.851 23.1835C141.911 23.0972 141.978 23.0147 142.051 22.9241L142.051 22.924C142.087 22.8791 142.124 22.8323 142.164 22.782C142.194 22.8087 142.222 22.832 142.249 22.8536C142.3 22.8961 142.344 22.9323 142.38 22.9755C142.862 23.5646 143.477 23.9579 144.193 24.1985C144.834 24.4137 145.38 24.7856 145.971 25.2087ZM149.002 12.3239C148.988 12.9172 148.698 13.4094 148.106 13.7055C147.937 13.7904 147.756 13.8533 147.576 13.9161L147.576 13.9161C147.538 13.9294 147.5 13.9426 147.462 13.956C147.114 14.0796 146.766 14.2038 146.418 14.3281L146.418 14.3283C145.376 14.7004 144.334 15.0725 143.285 15.4247C142.84 15.5742 142.536 15.8151 142.308 16.2265C141.804 17.1361 141.282 18.0362 140.76 18.9362C140.587 19.2339 140.415 19.5316 140.243 19.8296C140.226 19.8588 140.209 19.8881 140.192 19.9175C140.106 20.0689 140.019 20.221 139.913 20.3571C139.519 20.8598 138.888 21.0328 138.298 20.7908C138.065 20.6954 137.838 20.57 137.636 20.4214C137.1 20.0288 136.921 19.3779 137.166 18.7556C137.221 18.6159 137.298 18.4843 137.374 18.3534L137.374 18.3533C137.391 18.3245 137.408 18.2957 137.425 18.2669C137.676 17.8296 137.928 17.3932 138.18 16.9567L138.181 16.9566C138.76 15.955 139.339 14.9533 139.902 13.942C140.212 13.3838 140.632 13.0366 141.236 12.8234C142.486 12.3826 143.727 11.9196 144.969 11.4566L144.969 11.4564C145.478 11.2667 145.987 11.0769 146.496 10.8887C146.539 10.873 146.581 10.8568 146.624 10.8405L146.624 10.8405C146.754 10.7906 146.884 10.7405 147.019 10.7066C148.034 10.4509 149 11.2099 149.002 12.3239ZM152.957 14.1093C152.858 14.1406 152.755 14.1731 152.648 14.208C152.593 14.3589 152.536 14.5127 152.478 14.669C152.342 15.0342 152.202 15.4122 152.072 15.7938C152.014 15.9639 151.948 16.1316 151.882 16.2994C151.731 16.6832 151.58 17.0675 151.524 17.4812C152.031 17.8227 152.514 17.7253 153.007 17.5438C154.085 17.1474 155.162 16.7535 156.24 16.3595C156.919 16.1114 157.598 15.8633 158.277 15.6146L158.278 15.6142C158.429 15.5588 158.582 15.5028 158.724 15.4271C159.388 15.0715 159.709 14.327 159.518 13.6053C159.321 12.8642 158.705 12.39 157.931 12.426C157.661 12.4387 157.385 12.5143 157.127 12.6062C156.387 12.8708 155.649 13.1423 154.912 13.4137C154.457 13.5808 154.003 13.7479 153.548 13.9135C153.358 13.9826 153.166 14.0435 152.957 14.1093Z" fill="#AB59D2"/>
</svg>
