<svg width="22" height="21" viewBox="0 0 22 21" fill="none" xmlns="http://www.w3.org/2000/svg">
<path fill-rule="evenodd" clip-rule="evenodd" d="M21.1083 10.3333C21.1083 16.0402 16.4819 20.6667 10.775 20.6667C5.06804 20.6667 0.44165 16.0402 0.44165 10.3333C0.44165 4.62639 5.06804 0 10.775 0C16.4819 0 21.1083 4.62639 21.1083 10.3333ZM11.1452 7.62852C10.1402 8.04657 8.13148 8.91178 5.11911 10.2242C4.62994 10.4188 4.37369 10.6091 4.35037 10.7951C4.31095 11.1097 4.70476 11.2335 5.24102 11.4021C5.31397 11.4251 5.38955 11.4488 5.46703 11.4739C5.99463 11.6455 6.70435 11.8461 7.0733 11.8541C7.40798 11.8613 7.78152 11.7234 8.19391 11.4401C11.0085 9.54025 12.4614 8.57997 12.5525 8.5592C12.6169 8.54463 12.7061 8.52624 12.7665 8.57997C12.827 8.63371 12.821 8.73539 12.8146 8.76267C12.7756 8.92903 11.2298 10.3662 10.4297 11.1099C10.1804 11.3418 10.0035 11.5062 9.96733 11.5438C9.88632 11.6279 9.80375 11.7075 9.72439 11.7839C9.23428 12.2565 8.86662 12.6108 9.74475 13.1895C10.1668 13.4675 10.5044 13.6975 10.8412 13.9269C11.2091 14.1774 11.576 14.4273 12.0508 14.7385C12.1717 14.8178 12.2873 14.9002 12.3998 14.9803C12.8279 15.2856 13.2125 15.5598 13.6877 15.516C13.9639 15.4907 14.2491 15.231 14.3939 14.4566C14.7363 12.6266 15.4092 8.6614 15.5647 7.0275C15.5783 6.88436 15.5612 6.70115 15.5474 6.62072C15.5336 6.5403 15.5049 6.4257 15.4003 6.34087C15.2765 6.24041 15.0854 6.21923 14.9999 6.22067C14.6112 6.22759 14.0149 6.43493 11.1452 7.62852Z" fill="white"/>
</svg>
