<svg width="126" height="29" fill="none" xmlns="http://www.w3.org/2000/svg"><path d="M35.458 22.154a5.23 5.23 0 01-2.002-.375 4.526 4.526 0 01-1.59-1.11 5.106 5.106 0 01-1.05-1.77c-.25-.695-.375-1.485-.375-2.37 0-1.165.212-2.165.637-3 .425-.84 1.015-1.485 1.77-1.935.755-.455 1.625-.682 2.61-.682 1.27 0 2.283.294 3.038.884.76.59 1.277 1.405 1.552 2.446l-1.59.284c-.22-.644-.575-1.16-1.065-1.544-.49-.385-1.105-.58-1.845-.585-.765-.005-1.402.165-1.912.51-.505.345-.885.83-1.14 1.454-.255.62-.385 1.343-.39 2.168-.005.825.12 1.547.375 2.168.255.614.637 1.095 1.147 1.44.515.345 1.155.52 1.92.524.615.01 1.143-.102 1.583-.337.445-.24.797-.59 1.057-1.05.26-.46.428-1.025.503-1.695h-2.1v-1.26h3.765a10.927 10.927 0 01.03.637c0 1-.193 1.893-.578 2.678a4.395 4.395 0 01-1.68 1.852c-.735.445-1.625.668-2.67.668zm9.531 0c-.81 0-1.512-.183-2.107-.547a3.69 3.69 0 01-1.38-1.508c-.32-.645-.48-1.387-.48-2.227 0-.846.165-1.588.495-2.228a3.628 3.628 0 011.387-1.5c.595-.36 1.29-.54 2.085-.54.81 0 1.513.183 2.108.548a3.69 3.69 0 011.38 1.507c.325.64.487 1.377.487 2.213 0 .845-.165 1.59-.495 2.235a3.69 3.69 0 01-1.38 1.507c-.595.36-1.295.54-2.1.54zm0-1.477c.775 0 1.353-.26 1.733-.78.384-.525.577-1.2.577-2.025 0-.846-.195-1.52-.585-2.025-.385-.51-.96-.765-1.725-.765-.525 0-.957.12-1.297.36-.34.235-.593.562-.758.982-.165.415-.247.898-.247 1.448 0 .85.195 1.53.585 2.04.39.51.962.765 1.717.765zm8.732 1.477c-.81 0-1.513-.183-2.108-.547a3.69 3.69 0 01-1.38-1.508c-.32-.645-.48-1.387-.48-2.227 0-.846.165-1.588.495-2.228a3.628 3.628 0 011.388-1.5c.594-.36 1.29-.54 2.084-.54.81 0 1.513.183 2.108.548a3.69 3.69 0 011.38 1.507c.325.64.488 1.377.488 2.213 0 .845-.165 1.59-.495 2.235a3.69 3.69 0 01-1.38 1.507c-.596.36-1.295.54-2.1.54zm0-1.477c.775 0 1.352-.26 1.732-.78.385-.525.578-1.2.578-2.025 0-.846-.195-1.52-.585-2.025-.386-.51-.96-.765-1.725-.765-.525 0-.958.12-1.298.36-.34.235-.593.562-.758.982-.164.415-.247.898-.247 1.448 0 .85.195 1.53.585 2.04.39.51.962.765 1.718.765zm8.551 5.077a4.02 4.02 0 01-1.267-.203 3.622 3.622 0 01-1.11-.6 3.25 3.25 0 01-.833-.967l1.448-.735c.175.345.425.598.75.758.325.16.667.24 1.027.24.445 0 .825-.08 1.14-.24.315-.155.553-.39.712-.706.166-.314.246-.704.24-1.17v-2.265h.188V13.83h1.388v8.317c0 .215-.008.42-.023.616-.015.194-.043.39-.082.584-.115.546-.335.995-.66 1.35-.32.355-.73.62-1.23.795-.495.175-1.058.263-1.688.263zm-.12-3.6c-.755 0-1.407-.188-1.958-.563a3.712 3.712 0 01-1.267-1.53c-.295-.65-.443-1.38-.443-2.19 0-.814.15-1.542.45-2.182.3-.645.726-1.152 1.276-1.523.554-.375 1.212-.562 1.972-.562.765 0 1.407.188 1.927.563.526.37.92.877 1.186 1.522.27.645.404 1.372.404 2.183 0 .81-.135 1.537-.404 2.182-.27.645-.668 1.158-1.193 1.538-.525.375-1.175.562-1.95.562zm.218-1.418c.515 0 .934-.122 1.26-.367.325-.245.562-.582.712-1.012.15-.43.225-.925.225-1.485s-.077-1.055-.232-1.485c-.15-.43-.385-.766-.705-1.005-.316-.24-.718-.36-1.208-.36-.52 0-.947.127-1.282.382a2.287 2.287 0 00-.75 1.027c-.16.43-.24.91-.24 1.44 0 .536.08 1.02.24 1.456.164.43.41.772.734 1.027.33.255.745.383 1.245.383zm5.43 1.194V10.904h1.568v11.025H67.8zm7.004.225c-.805 0-1.513-.175-2.123-.525a3.733 3.733 0 01-1.417-1.478c-.335-.634-.503-1.37-.503-2.204 0-.886.165-1.653.495-2.303.335-.65.8-1.152 1.395-1.508.595-.354 1.288-.532 2.078-.532.825 0 1.527.193 2.107.578.58.38 1.013.922 1.298 1.627.29.705.405 1.543.345 2.513h-1.568v-.57c-.01-.94-.19-1.636-.54-2.085-.345-.45-.872-.675-1.582-.675-.785 0-1.375.247-1.77.742s-.593 1.21-.593 2.145c0 .89.198 1.58.593 2.07.395.485.965.727 1.71.727.49 0 .912-.11 1.267-.33.36-.224.64-.544.84-.96l1.538.488a3.65 3.65 0 01-1.433 1.688 3.989 3.989 0 01-2.137.592zm-2.888-3.832V17.1H77.7v1.223h-5.783zm10.43 3.607v-10.8h4.365c.105 0 .235.005.39.015.155.005.302.02.442.045.6.095 1.1.3 1.5.615.406.315.708.713.908 1.192.2.48.3 1.01.3 1.59 0 .585-.1 1.118-.3 1.598-.2.48-.502.877-.907 1.192-.4.316-.9.52-1.5.615a6.16 6.16 0 01-.832.06h-2.798v3.878h-1.568zm1.568-5.362h2.737c.1 0 .21-.006.33-.015a2.49 2.49 0 00.353-.053 1.54 1.54 0 00.772-.412c.195-.205.335-.44.42-.705a2.52 2.52 0 000-1.583 1.753 1.753 0 00-.42-.697 1.512 1.512 0 00-.772-.42 1.92 1.92 0 00-.353-.06c-.12-.01-.23-.015-.33-.015h-2.737v3.96zm7.577 5.362V10.904h1.568v11.025h-1.568zm5.698.225c-.6 0-1.102-.11-1.507-.33a2.35 2.35 0 01-.923-.885 2.465 2.465 0 01-.307-1.215c0-.41.072-.77.217-1.08.145-.31.36-.572.645-.787a3.45 3.45 0 011.05-.533c.36-.105.768-.198 1.223-.277.455-.08.932-.155 1.432-.226l1.5-.21-.57.316c.01-.636-.125-1.105-.405-1.41-.275-.31-.75-.465-1.425-.465-.425 0-.815.1-1.17.3-.355.194-.602.52-.742.974l-1.463-.45a3.03 3.03 0 011.14-1.657c.565-.41 1.315-.615 2.25-.615.725 0 1.355.125 1.89.375.54.245.935.635 1.185 1.17.13.265.21.545.24.84.03.295.045.613.045.953v4.987h-1.387v-1.852l.27.24c-.335.62-.763 1.082-1.283 1.387-.515.3-1.15.45-1.905.45zm.278-1.282c.445 0 .827-.078 1.147-.233.32-.16.578-.363.773-.607a1.9 1.9 0 00.382-.765c.085-.24.133-.51.143-.81.015-.3.022-.54.022-.72l.51.187-1.35.203c-.405.06-.772.12-1.102.18a6.603 6.603 0 00-.87.202 2.935 2.935 0 00-.578.27 1.323 1.323 0 00-.397.383c-.095.15-.143.332-.143.547 0 .21.053.405.158.585.105.175.265.315.48.42.215.105.49.158.825.158zm6.207 4.657l1.567-4.267.023 1.26-3.533-8.693h1.635l2.64 6.712h-.48l2.52-6.712h1.59l-4.47 11.7h-1.492zM33.459 8.796a2.44 2.44 0 01-.934-.175 2.112 2.112 0 01-.742-.518 2.382 2.382 0 01-.49-.826 3.254 3.254 0 01-.175-1.106c0-.543.099-1.01.297-1.4.198-.392.474-.693.826-.903a2.313 2.313 0 011.218-.318c.593 0 1.065.137 1.417.413.355.275.597.655.725 1.14l-.742.134a1.513 1.513 0 00-.497-.721c-.229-.18-.516-.271-.861-.273-.357-.003-.654.077-.892.238a1.47 1.47 0 00-.532.679 2.66 2.66 0 00-.182 1.011c-.003.385.056.722.174 1.012.12.287.298.51.536.672.24.16.539.242.896.245.287.004.533-.048.739-.158a1.23 1.23 0 00.493-.49c.121-.215.2-.478.235-.79h-.98v-.589h1.757a5.275 5.275 0 01.014.298c0 .466-.09.883-.27 1.25a2.06 2.06 0 01-.784.864c-.343.207-.758.311-1.246.311zm4.674 0c-.376 0-.706-.082-.99-.245a1.741 1.741 0 01-.662-.69 2.172 2.172 0 01-.235-1.028c0-.413.077-.772.231-1.075.156-.303.373-.538.651-.703.278-.166.6-.249.97-.249.385 0 .712.09.983.27.27.177.473.43.606.76.135.328.189.719.16 1.172h-.73v-.266c-.006-.439-.09-.763-.253-.973-.16-.21-.407-.315-.738-.315-.367 0-.642.115-.826.346-.185.231-.277.565-.277 1.001 0 .415.092.737.277.966.184.226.45.34.798.34a1.1 1.1 0 00.591-.154c.168-.105.299-.255.392-.448l.718.227c-.147.338-.37.601-.669.788a1.861 1.861 0 01-.997.276zm-1.348-1.788v-.57h2.699v.57h-2.699zm6.01 1.683a3.132 3.132 0 01-.7.06 1.585 1.585 0 01-.612-.133.835.835 0 01-.406-.385 1.127 1.127 0 01-.133-.476 19.805 19.805 0 01-.007-.553V3.86h.735v3.31c0 .151.002.283.004.395a.623.623 0 00.073.284.499.499 0 00.4.248c.184.019.4.01.647-.024v.62zM40.214 5.5v-.588h2.583V5.5h-2.583zm4.851-1.207v-.71h.732v.71h-.732zm0 4.4v-3.78h.732v3.78h-.732zm3.946 0a3.132 3.132 0 01-.7.059 1.584 1.584 0 01-.613-.133.835.835 0 01-.406-.385 1.125 1.125 0 01-.133-.476 19.427 19.427 0 01-.007-.553V3.86h.735v3.31c0 .151.001.283.004.395a.61.61 0 00.073.284.499.499 0 00.4.248c.184.019.4.01.647-.024v.62zM46.428 5.5v-.588h2.583V5.5h-2.583zm6.422 3.297c-.377 0-.705-.085-.983-.255a1.723 1.723 0 01-.644-.704 2.31 2.31 0 01-.224-1.04c0-.394.077-.74.231-1.039a1.7 1.7 0 01.648-.7c.277-.168.601-.252.972-.252.379 0 .706.085.984.256.278.17.492.404.644.703.152.299.228.643.228 1.033 0 .394-.078.742-.231 1.043a1.721 1.721 0 01-.644.703 1.856 1.856 0 01-.98.252zm0-.69c.362 0 .632-.12.809-.363.18-.245.27-.56.27-.945 0-.395-.091-.71-.273-.945-.18-.238-.449-.357-.806-.357-.244 0-.446.056-.605.168a.974.974 0 00-.353.458 1.82 1.82 0 00-.116.676c0 .396.091.714.273.952.182.238.45.357.801.357zm5.278.585V6.833a2.74 2.74 0 00-.039-.452 1.353 1.353 0 00-.14-.434.82.82 0 00-.29-.322.869.869 0 00-.487-.122c-.13 0-.254.022-.37.066a.774.774 0 00-.309.207 1.043 1.043 0 00-.206.378 1.925 1.925 0 00-.074.57l-.455-.171c0-.343.064-.646.193-.907.128-.263.312-.469.553-.616.24-.147.53-.22.871-.22.261 0 .48.042.658.126.178.084.321.194.43.332.113.136.198.284.256.445.058.16.098.318.12.472.02.154.03.29.03.406v2.1h-.741zm-2.657 0v-3.78h.655v1.092h.087v2.688h-.742zM4.166 1.454a2.932 2.932 0 00-2.866.007l10.539 9.742 3.54-3.547L4.167 1.454zm-3.483.949A2.768 2.768 0 00.277 3.84v17.844c0 .503.135.982.379 1.4l10.621-10.77L.683 2.403zm19.374 7.987l-3.446-1.827-3.872 3.717 4.746 4.203 2.574-1.364c.926-.493 1.48-1.377 1.48-2.366-.001-.988-.554-1.872-1.482-2.364zm-7.837 3.013l-10.623 10.6c.461.262.967.4 1.476.4.491 0 .985-.124 1.438-.373l12.046-6.634-4.337-3.993z" fill="#000"/></svg>