<svg width="118" height="35" fill="none" xmlns="http://www.w3.org/2000/svg"><path d="M.67 10.619c28.44-.59 56.93-.71 85.36-.12 1.24.03 1.24-1.91 0-1.93-28.49-.56-56.91-.19-85.36 1.36-.44.01-.45.7 0 .69z" fill="#E0E0E0"/><path d="M77.57.189c2.95 3.36 6.1 6.55 9.26 9.71.49.49 1.25-.28.76-.76-3.21-3.12-6.45-6.21-9.86-9.11-.11-.09-.26.05-.16.16z" fill="#E0E0E0"/><path d="M78.3 1.109c13.38 4.16 26.261 9.42 38.321 16.59.88.52 1.69-.86.8-1.37-12.17-7.12-25.18-12.69-38.97-15.76-.35-.09-.5.43-.15.54zM.001 10.669c.31 5.5.86 10.99 1.37 16.47.06.64 1.07.64 1.01 0-.54-5.5-1.04-11-1.77-16.47-.06-.37-.64-.4-.61 0z" fill="#E0E0E0"/><path d="M2.57 27.569c28.79.86 57.86-1.22 86.6-2.81 1.03-.06 1.03-1.66 0-1.61-28.83 1.6-57.81 1.8-86.6 3.97-.29.01-.3.44 0 .45z" fill="#E0E0E0"/><path d="M90.19 23.709c-3.24 2.86-6.22 6.01-9.21 9.13-.61.63.37 1.61.96.96 2.94-3.19 5.9-6.35 8.57-9.77.18-.23-.1-.52-.32-.32z" fill="#E0E0E0"/><path d="M80.961 34.799c12.33-4.4 24.18-10.53 35.94-16.24.87-.42.11-1.73-.76-1.3-11.75 5.71-23.93 10.75-35.43 16.94-.34.17-.11.73.25.6z" fill="#E0E0E0"/></svg>