<?xml version="1.0" standalone="no"?>
<!DOCTYPE svg PUBLIC "-//W3C//DTD SVG 20010904//EN"
 "http://www.w3.org/TR/2001/REC-SVG-20010904/DTD/svg10.dtd">
<svg version="1.0" xmlns="http://www.w3.org/2000/svg"
 width="318.000000pt" height="318.000000pt" viewBox="0 0 318.000000 318.000000"
 preserveAspectRatio="xMidYMid meet">
<metadata>
Created by potrace 1.14, written by Peter Selinger 2001-2017
</metadata>
<g transform="translate(0.000000,318.000000) scale(0.100000,-0.100000)"
fill="#000000" stroke="none">
<path d="M726 3077 c38 -41 109 -119 158 -175 49 -56 93 -102 98 -102 19 0 49
-97 64 -205 11 -82 11 -87 13 -172 0 -46 4 -83 9 -83 12 0 3 181 -13 270 -3
14 -7 39 -10 57 -3 18 -10 44 -15 59 -6 15 -9 29 -7 31 5 4 93 -81 120 -116
21 -26 96 -152 151 -254 20 -37 45 -82 54 -100 24 -42 61 -136 67 -167 6 -33
14 -69 21 -100 24 -96 4 -223 -62 -400 -34 -94 -38 -114 -36 -185 3 -116 3
-153 2 -215 -2 -85 31 -175 90 -245 28 -33 58 -72 67 -87 10 -15 34 -31 57
-38 49 -15 68 -29 173 -131 62 -59 84 -87 89 -114 6 -36 33 -69 35 -44 6 83 3
119 -17 178 -19 56 -21 76 -14 136 4 39 16 88 25 110 12 28 19 79 22 176 5
120 3 146 -17 225 -24 94 -40 131 -98 229 -54 91 -78 126 -116 168 -20 20 -48
56 -64 80 -16 23 -46 58 -66 77 -34 33 -68 111 -82 185 -3 15 -16 55 -30 88
-28 66 -144 289 -154 297 -4 3 -15 21 -25 40 -10 19 -29 50 -43 68 -13 17 -22
32 -19 32 20 0 131 -89 149 -119 55 -90 206 -286 279 -362 83 -86 113 -132
122 -184 45 -256 69 -309 203 -441 100 -99 188 -133 349 -132 50 1 102 -2 117
-5 15 -3 49 0 75 7 53 13 73 13 181 -3 80 -12 176 -43 201 -64 47 -40 38 -22
-11 22 -68 62 -128 164 -120 204 4 13 -28 68 -57 98 -16 16 -42 67 -59 114
-30 81 -54 118 -115 176 l-29 26 36 7 c41 8 143 80 180 129 14 19 29 54 32 78
5 30 15 51 33 67 38 33 39 34 74 75 38 46 81 55 146 32 55 -19 64 -19 26 2
-16 8 -54 31 -83 50 -67 44 -231 108 -295 116 -29 4 -88 27 -150 58 -83 42
-113 53 -162 55 -33 2 -69 5 -80 7 -23 4 -88 -11 -95 -23 -3 -4 -35 -17 -72
-28 -83 -26 -114 -42 -190 -98 -68 -50 -152 -79 -199 -69 -17 4 -55 8 -85 10
-53 3 -70 10 -219 96 -162 94 -360 266 -483 419 -60 75 -166 180 -181 180 -8
0 17 -33 55 -73z m724 -609 c36 -17 81 -37 100 -45 61 -26 190 -93 211 -111
11 -9 35 -37 54 -62 18 -25 52 -69 74 -98 23 -29 41 -53 41 -55 0 -1 -53 -2
-118 -2 -114 0 -120 1 -163 29 -24 16 -59 46 -77 65 -39 42 -205 268 -236 320
l-21 36 35 -23 c19 -13 64 -37 100 -54z"/>
<path d="M1060 2283 c-1 -27 -3 -75 -7 -108 -3 -33 -2 -57 1 -54 4 4 9 44 12
90 3 46 7 92 9 102 2 9 -1 17 -6 17 -5 0 -9 -21 -9 -47z"/>
<path d="M1033 2055 c-19 -89 -40 -120 -146 -214 -110 -97 -144 -133 -183
-197 -26 -44 -135 -284 -129 -284 2 0 -3 -19 -11 -42 -25 -73 -84 -315 -91
-376 -3 -31 -13 -85 -23 -119 -9 -33 -15 -78 -13 -100 4 -46 42 -153 54 -153
14 0 10 32 -7 65 -10 19 -14 45 -10 71 5 44 81 231 123 302 28 50 237 328 288
385 19 21 49 59 67 85 18 26 36 51 41 57 4 5 21 28 37 50 16 22 35 46 41 54
18 21 37 111 32 155 -2 21 -18 66 -34 100 -37 74 -40 86 -29 128 18 71 20 88
12 88 -4 0 -13 -25 -19 -55z"/>
</g>
</svg>
