<svg width="9" height="9" fill="none" xmlns="http://www.w3.org/2000/svg"><g clip-path="url(#clip0_898_1123)" fill="#4F4F4F"><path d="M6.996.349L2.424 4.92a1.862 1.862 0 00-.549 1.325v.504a.375.375 0 00.375.375h.504a1.862 1.862 0 001.325-.549l4.572-4.572a1.172 1.172 0 000-1.655 1.198 1.198 0 00-1.655 0zm1.125 1.125L3.549 6.046c-.211.21-.497.328-.795.329h-.129v-.129c0-.298.12-.584.33-.795L7.525.879a.43.43 0 01.595 0 .421.421 0 010 .595z"/><path d="M8.625 3.367a.375.375 0 00-.375.375v1.883h-1.5A1.125 1.125 0 005.625 6.75v1.5h-3.75A1.125 1.125 0 01.75 7.125v-5.25A1.125 1.125 0 011.875.75h3.39a.375.375 0 000-.75h-3.39A1.877 1.877 0 000 1.875v5.25A1.877 1.877 0 001.875 9h4.254a1.863 1.863 0 001.326-.549l.996-.997A1.863 1.863 0 009 6.13V3.742a.375.375 0 00-.375-.375zm-1.7 4.554c-.151.15-.342.254-.55.3V6.75a.375.375 0 01.375-.375h1.472a1.13 1.13 0 01-.3.549l-.998.997z"/></g><defs><clipPath id="clip0_898_1123"><path fill="#fff" d="M0 0h9v9H0z"/></clipPath></defs></svg>