<svg width="24" height="24" fill="none" xmlns="http://www.w3.org/2000/svg"><g clip-path="url(#clip0_746_4464)"><path d="M23.766 9.65h-.967V9.6H12v4.8h6.782c-.99 2.793-3.648 4.8-6.781 4.8a7.2 7.2 0 010-14.4 7.16 7.16 0 014.776 1.823L20.17 3.23A11.944 11.944 0 0012 0C5.372 0 0 5.373 0 12c0 6.626 5.373 11.999 12 11.999 6.626 0 11.999-5.373 11.999-12 0-.804-.083-1.59-.233-2.35z" fill="#FFC107"/><path d="M1.385 6.414l3.942 2.892A7.197 7.197 0 0112.001 4.8a7.16 7.16 0 014.776 1.823l3.394-3.394A11.944 11.944 0 0012.001 0C7.39 0 3.395 2.602 1.385 6.414z" fill="#FF3D00"/><path d="M11.999 24c3.1 0 5.916-1.186 8.045-3.115l-3.714-3.142A7.146 7.146 0 0112 19.2c-3.121 0-5.771-1.99-6.77-4.768l-3.913 3.015C3.302 21.334 7.336 24 12 24z" fill="#4CAF50"/><path d="M23.766 9.65H22.8V9.6H12v4.8h6.782a7.224 7.224 0 01-2.453 3.343l.002-.001 3.714 3.142C19.782 21.124 24 18 24 12.001c0-.805-.082-1.59-.233-2.35z" fill="#1976D2"/></g><defs><clipPath id="clip0_746_4464"><path fill="#fff" d="M0 0h24v24H0z"/></clipPath></defs></svg>