<svg width="24" height="24" fill="none" xmlns="http://www.w3.org/2000/svg"><path d="M20.5 12.952V19.5h-2.533v-5.343c0-.981-.3-1.756-.806-2.285a2.43 2.43 0 00-1.845-.75c-1.353.041-2.62 1.156-2.62 3.035V19.5h-2.52V9.37h2.52v.999l.938.24c.3-.546.867-.998 1.59-1.28a4.509 4.509 0 012.347-.243c.789.133 1.513.49 2.04 1.098.525.605.889 1.498.889 2.768zM7.027 5.74c0 .68-.557 1.24-1.256 1.24-.7 0-1.257-.56-1.257-1.24 0-.68.558-1.239 1.257-1.239.699 0 1.256.56 1.256 1.24zM4.5 19.5V9.37h2.542V19.5H4.5z" fill="#000" stroke="#000"/></svg>