<svg width="60" height="60" fill="none" xmlns="http://www.w3.org/2000/svg"><rect width="60" height="60" rx="30" fill="#fff" fill-opacity=".1"/><path d="M43.277 16.76a18.75 18.75 0 00-28.662 23.957l1.537-1.075a16.875 16.875 0 114.238 4.237l-1.075 1.538A18.75 18.75 0 0043.277 16.76zM29.99 44.399a14.375 14.375 0 10-12.244-6.875l-1.606 6.381 6.38-1.606a14.295 14.295 0 007.47 2.1zm-10.425-7.5a12.556 12.556 0 011.637-15.662A12.501 12.501 0 0138.883 38.91a12.544 12.544 0 01-15.662 1.637l-.344-.225-4.125 1.044 1.038-4.125-.225-.344zm10.562-11.556a2.812 2.812 0 10-2.812-2.813 2.82 2.82 0 002.787 2.782l.025.03zm0-3.75a.938.938 0 11-.937.937.94.94 0 01.912-.968l.025.03zm4.6 12.162h-1.875v-7.818h-7.5v5h1.875v2.787h-1.875v5h9.375v-4.969zm-1.875 3.125h-5.625v-1.25h1.875v-6.568h-1.875v-1.25h3.75v7.787h1.875v1.281z" fill="#8EB005"/></svg>