<svg width="23" height="23" fill="none" xmlns="http://www.w3.org/2000/svg"><path d="M8.586 21.085C9.086 22.208 10.193 23 11.5 23c1.307 0 2.415-.792 2.914-1.915a59.01 59.01 0 01-2.914.075c-1.035 0-1.993-.03-2.915-.075zm13.063-4.87C20.436 14.685 18.4 11.68 18.4 8.74a6.936 6.936 0 00-4.6-6.503A2.302 2.302 0 0011.502 0a2.302 2.302 0 00-2.299 2.237 6.935 6.935 0 00-4.6 6.503c0 2.941-2.035 5.946-3.248 7.475a1.952 1.952 0 00-.334 1.804 1.899 1.899 0 001.275 1.251c1.063.314 2.807.667 5.465.848 1.151.077 2.389.122 3.741.122 1.352 0 2.59-.045 3.74-.122 2.66-.18 4.402-.534 5.467-.848a1.897 1.897 0 001.274-1.25c.196-.62.07-1.294-.334-1.805z" fill="#000"/></svg>