<svg width="157" height="25" fill="none" xmlns="http://www.w3.org/2000/svg"><path d="M35.115 16.96c-2.374 0-4.254-.707-5.64-2.12l1.54-2.16c1.146 1.2 2.56 1.8 4.24 1.8.733 0 1.3-.14 1.7-.42.413-.293.62-.647.62-1.06 0-.36-.194-.66-.58-.9-.374-.24-.847-.413-1.42-.52-.56-.107-1.174-.26-1.84-.46-.667-.2-1.287-.427-1.86-.68-.56-.253-1.034-.653-1.42-1.2-.374-.547-.56-1.213-.56-2 0-1.147.46-2.107 1.38-2.88.92-.787 2.146-1.18 3.68-1.18 2.12 0 3.853.62 5.2 1.86l-1.58 2.08c-1.054-.973-2.347-1.46-3.88-1.46-.6 0-1.067.12-1.4.36-.334.24-.5.567-.5.98 0 .32.186.593.56.82.386.213.86.373 1.42.48.573.107 1.186.267 1.84.48.666.2 1.28.433 1.84.7.573.253 1.046.66 1.42 1.22.386.547.58 1.207.58 1.98 0 1.28-.46 2.313-1.38 3.1-.907.787-2.227 1.18-3.96 1.18zm9.732-.24h-2.54V3.38h2.54v13.34zm3.778-10.7c-.413 0-.773-.147-1.08-.44a1.512 1.512 0 01-.44-1.08c0-.413.147-.767.44-1.06.307-.293.667-.44 1.08-.44.427 0 .787.147 1.08.44.294.293.44.647.44 1.06 0 .413-.146.773-.44 1.08-.293.293-.653.44-1.08.44zm1.28 10.7h-2.54V7.06h2.54v9.66zm7.019.24c-1.493 0-2.72-.473-3.68-1.42s-1.44-2.167-1.44-3.66c0-1.48.48-2.693 1.44-3.64.96-.947 2.187-1.42 3.68-1.42 1.707 0 2.98.58 3.82 1.74l-1.66 1.56c-.467-.693-1.147-1.04-2.04-1.04-.773 0-1.407.26-1.9.78-.48.507-.72 1.18-.72 2.02 0 .84.24 1.52.72 2.04.493.52 1.127.78 1.9.78.867 0 1.547-.347 2.04-1.04l1.66 1.54c-.84 1.173-2.113 1.76-3.82 1.76zm10.021 0c-1.494 0-2.727-.467-3.7-1.4-.974-.933-1.46-2.16-1.46-3.68 0-1.427.466-2.627 1.4-3.6.946-.973 2.146-1.46 3.6-1.46 1.44 0 2.606.493 3.5 1.48.893.973 1.34 2.253 1.34 3.84v.56h-7.18c.08.64.366 1.173.86 1.6.493.427 1.133.64 1.92.64a4.18 4.18 0 001.38-.26c.506-.173.906-.407 1.2-.7l1.12 1.64c-.974.893-2.3 1.34-3.98 1.34zm2.22-5.98c-.04-.547-.26-1.04-.66-1.48-.387-.44-.96-.66-1.72-.66-.72 0-1.28.22-1.68.66-.4.427-.634.92-.7 1.48h4.76zm12.311 5.74h-2.84V3.38h6.24c1.4 0 2.494.413 3.28 1.24.8.813 1.2 1.833 1.2 3.06 0 1.213-.4 2.233-1.2 3.06-.8.827-1.893 1.24-3.28 1.24h-3.4v4.74zm3.02-7.24c.574 0 1.04-.16 1.4-.48.374-.333.56-.773.56-1.32s-.186-.98-.56-1.3c-.36-.333-.826-.5-1.4-.5h-3.02v3.6h3.02zm14.51 7.24h-2.54v-1c-.693.827-1.713 1.24-3.06 1.24-.867 0-1.647-.28-2.34-.84-.68-.573-1.02-1.36-1.02-2.36 0-1.04.333-1.82 1-2.34.68-.52 1.467-.78 2.36-.78 1.373 0 2.393.393 3.06 1.18v-1.3c0-.493-.193-.887-.58-1.18-.386-.293-.9-.44-1.54-.44-1.053 0-1.993.38-2.82 1.14l-.96-1.7c1.147-1.013 2.553-1.52 4.22-1.52 1.24 0 2.254.287 3.04.86.787.573 1.18 1.507 1.18 2.8v6.24zm-4.58-1.48c.947 0 1.627-.28 2.04-.84v-1.2c-.413-.56-1.093-.84-2.04-.84-.52 0-.953.133-1.3.4-.347.253-.52.607-.52 1.06 0 .44.174.787.52 1.04.347.253.78.38 1.3.38zm6.76 5.26l.38-2.28c.24.107.506.16.8.16.68 0 1.126-.233 1.34-.7l.36-.82-3.92-9.8h2.72l2.52 6.72 2.52-6.72h2.74l-4.54 11.24c-.334.853-.8 1.447-1.4 1.78-.6.347-1.354.533-2.26.56-.467 0-.887-.047-1.26-.14zm25.133-3.78h-2.56v-6.1c0-1.027-.48-1.54-1.44-1.54-.413 0-.8.113-1.16.34a3.181 3.181 0 00-.84.78v6.52h-2.56v-6.1c0-1.027-.48-1.54-1.44-1.54-.4 0-.78.113-1.14.34-.36.227-.646.493-.86.8v6.5h-2.54V7.06h2.54v1.26c.24-.347.66-.68 1.26-1a3.86 3.86 0 011.9-.5c1.4 0 2.294.587 2.68 1.76.307-.48.76-.893 1.36-1.24a3.924 3.924 0 011.96-.52c.907 0 1.607.247 2.1.74.494.48.74 1.207.74 2.18v6.98zm7.032.24c-1.494 0-2.727-.467-3.7-1.4-.974-.933-1.46-2.16-1.46-3.68 0-1.427.466-2.627 1.4-3.6.946-.973 2.146-1.46 3.6-1.46 1.44 0 2.606.493 3.5 1.48.893.973 1.34 2.253 1.34 3.84v.56h-7.18c.08.64.366 1.173.86 1.6.493.427 1.133.64 1.92.64.426 0 .886-.087 1.38-.26.506-.173.906-.407 1.2-.7l1.12 1.64c-.974.893-2.3 1.34-3.98 1.34zm2.22-5.98c-.04-.547-.26-1.04-.66-1.48-.387-.44-.96-.66-1.72-.66-.72 0-1.28.22-1.68.66-.4.427-.634.92-.7 1.48h4.76zm13.354 5.74h-2.54v-5.84c0-1.2-.593-1.8-1.78-1.8-.92 0-1.653.38-2.2 1.14v6.5h-2.54V7.06h2.54v1.26c.84-1 1.967-1.5 3.38-1.5 1.04 0 1.82.273 2.34.82.534.547.8 1.3.8 2.26v6.82zm5.762.24c-.893 0-1.573-.227-2.04-.68-.466-.453-.7-1.107-.7-1.96V9.28h-1.6V7.06h1.6V4.42h2.56v2.64h1.96v2.22h-1.96v4.36c0 .307.08.56.24.76.16.2.374.3.64.3.4 0 .694-.093.88-.28l.54 1.92c-.466.413-1.173.62-2.12.62z" fill="#333"/><path fill-rule="evenodd" clip-rule="evenodd" d="M11.598 0c4.539 0 8.23 3.667 8.23 8.206s-3.691 8.229-8.23 8.229H5.616L0 24.458V0h11.598z" fill="#FFCF5C"/><path fill-rule="evenodd" clip-rule="evenodd" d="M10.008 7.129h3.117l-6.51 9.306 3.393-9.306zm-.803 2.154H6.088L12.598 0 9.205 9.283z" fill="#000"/></svg>