<svg width="22" height="23" fill="none" xmlns="http://www.w3.org/2000/svg"><circle cx="11" cy="12" r="10.25" stroke="#00798C" stroke-width="1.5"/><path d="M8.836 14.58c0-.467.053-.893.16-1.28.106-.387.28-.74.52-1.06.24-.333.566-.627.98-.88.226-.133.493-.28.8-.44.306-.173.6-.373.88-.6.28-.227.513-.493.7-.8.2-.307.3-.667.3-1.08 0-.44-.107-.807-.32-1.1a1.932 1.932 0 00-.82-.68c-.32-.16-.674-.24-1.06-.24-.414 0-.794.087-1.14.26a3.206 3.206 0 00-.9.66 4.672 4.672 0 00-.64.84l-1.44-.98a4.074 4.074 0 011-1.4c.426-.387.913-.68 1.46-.88.546-.2 1.12-.3 1.72-.3.493 0 .98.08 1.46.24.493.147.933.38 1.32.7.386.32.693.727.92 1.22.24.48.36 1.06.36 1.74 0 .467-.06.873-.18 1.22a2.789 2.789 0 01-.48.9 4.21 4.21 0 01-.74.72c-.28.2-.587.393-.92.58-.334.2-.66.407-.98.62-.32.2-.587.453-.8.76-.214.307-.32.727-.32 1.26h-1.84zm.06 4.42v-2.52h1.82V19h-1.82z" fill="#00798C"/></svg>