<svg width="108" height="30" fill="none" xmlns="http://www.w3.org/2000/svg"><path d="M30.951 22.929l3.51-10.8h2.258l3.51 10.8H38.6l-3.232-9.855h.405l-3.195 9.855H30.95zm1.823-2.438v-1.47h5.64v1.47h-5.64zm12.194 2.663c-.775 0-1.425-.188-1.95-.563a3.534 3.534 0 01-1.193-1.537c-.27-.645-.405-1.372-.405-2.182 0-.81.133-1.538.398-2.183.27-.645.665-1.152 1.185-1.523.525-.375 1.17-.562 1.935-.562.76 0 1.415.188 1.965.563.555.37.982.877 1.282 1.522.3.64.45 1.367.45 2.183 0 .81-.15 1.54-.45 2.19a3.638 3.638 0 01-1.267 1.53c-.545.375-1.195.562-1.95.562zm-3.81 3.375v-11.7h1.395v5.828h.18v5.872h-1.575zm3.592-4.793c.5 0 .913-.127 1.238-.382a2.26 2.26 0 00.735-1.027 4.08 4.08 0 00.247-1.456c0-.53-.082-1.01-.247-1.44a2.237 2.237 0 00-.743-1.027c-.335-.255-.762-.383-1.282-.383-.49 0-.895.12-1.215.36-.315.24-.55.575-.705 1.006-.15.43-.225.924-.225 1.485 0 .56.075 1.055.225 1.485.15.43.387.767.712 1.012.325.245.745.367 1.26.367zm8.935 1.418c-.775 0-1.425-.188-1.95-.563a3.534 3.534 0 01-1.193-1.537c-.27-.645-.405-1.372-.405-2.182 0-.81.133-1.538.398-2.183.27-.645.665-1.152 1.185-1.523.525-.375 1.17-.562 1.935-.562.76 0 1.415.188 1.965.563.555.37.982.877 1.282 1.522.3.64.45 1.367.45 2.183 0 .81-.15 1.54-.45 2.19a3.638 3.638 0 01-1.267 1.53c-.545.375-1.195.562-1.95.562zm-3.81 3.375v-11.7h1.395v5.828h.18v5.872h-1.575zm3.592-4.793c.5 0 .913-.127 1.238-.382a2.26 2.26 0 00.735-1.027 4.08 4.08 0 00.247-1.456c0-.53-.082-1.01-.247-1.44a2.237 2.237 0 00-.743-1.027c-.335-.255-.762-.383-1.282-.383-.49 0-.895.12-1.215.36-.315.24-.55.575-.705 1.006-.15.43-.225.924-.225 1.485 0 .56.075 1.055.225 1.485.15.43.387.767.712 1.012.325.245.745.367 1.26.367zm11.64 1.418c-.774 0-1.474-.133-2.1-.398a4.029 4.029 0 01-1.537-1.147 3.86 3.86 0 01-.78-1.778l1.635-.247c.165.66.51 1.175 1.035 1.545.525.365 1.138.547 1.838.547.435 0 .835-.067 1.2-.202.365-.14.657-.337.877-.593.225-.26.338-.57.338-.93a1.21 1.21 0 00-.383-.907 1.501 1.501 0 00-.427-.293 3.204 3.204 0 00-.548-.217l-2.767-.817a6.686 6.686 0 01-.825-.308 3.255 3.255 0 01-.773-.502 2.465 2.465 0 01-.562-.773c-.145-.31-.218-.685-.218-1.125 0-.665.17-1.228.51-1.688.345-.464.81-.814 1.395-1.05.585-.24 1.24-.36 1.965-.36.73.01 1.383.14 1.958.39.58.25 1.06.61 1.44 1.08.385.466.65 1.03.795 1.695l-1.68.285a2.205 2.205 0 00-.48-1.042 2.403 2.403 0 00-.9-.675 2.864 2.864 0 00-1.155-.248c-.4-.01-.768.05-1.103.18-.33.13-.595.313-.795.548a1.232 1.232 0 00-.292.81c0 .3.087.543.262.728.175.184.39.332.645.442.26.105.518.193.773.262l1.995.563c.25.07.532.165.847.285.32.115.628.277.923.488.3.21.547.49.742.84.195.345.293.78.293 1.304 0 .546-.11 1.026-.33 1.44a3.05 3.05 0 01-.908 1.035c-.38.275-.82.483-1.32.623-.5.14-1.027.21-1.582.21zm9.965-.225c-.51.1-1.01.143-1.5.128a3.395 3.395 0 01-1.312-.285 1.789 1.789 0 01-.87-.825 2.413 2.413 0 01-.285-1.02 41.92 41.92 0 01-.015-1.186V12.58h1.575v7.087c0 .325.002.608.007.848.01.24.063.442.158.608.18.31.465.487.855.532.395.04.857.023 1.387-.052v1.327zm-5.535-6.84v-1.26h5.535v1.26h-5.535zm9.985 7.065c-.81 0-1.512-.183-2.107-.547a3.69 3.69 0 01-1.38-1.508c-.32-.645-.48-1.387-.48-2.227 0-.846.165-1.588.495-2.228a3.628 3.628 0 011.387-1.5c.595-.36 1.29-.54 2.085-.54.81 0 1.513.183 2.108.548a3.69 3.69 0 011.38 1.507c.325.64.487 1.378.487 2.213 0 .845-.165 1.59-.495 2.235a3.69 3.69 0 01-1.38 1.507c-.595.36-1.295.54-2.1.54zm0-1.477c.775 0 1.353-.26 1.733-.78.385-.525.577-1.2.577-2.025 0-.846-.195-1.52-.585-2.026-.385-.51-.96-.765-1.725-.765-.525 0-.957.12-1.297.36-.34.236-.593.563-.758.983-.165.415-.247.898-.247 1.448 0 .85.195 1.53.585 2.04.39.51.962.765 1.717.765zm5.214 1.252v-8.1h1.395v1.965l-.195-.255c.1-.26.23-.498.39-.713.16-.22.345-.4.555-.54a2.37 2.37 0 01.683-.345 2.99 2.99 0 01.78-.15c.265-.02.52-.007.765.038v1.47a2.54 2.54 0 00-.885-.06c-.32.03-.615.133-.885.308a1.989 1.989 0 00-.608.6c-.145.235-.25.497-.315.787a4.072 4.072 0 00-.097.907v4.088h-1.583zm8.838.225c-.805 0-1.513-.175-2.123-.525a3.733 3.733 0 01-1.417-1.478c-.335-.634-.503-1.37-.503-2.204 0-.886.165-1.653.495-2.303.335-.65.8-1.152 1.395-1.507.595-.356 1.288-.533 2.078-.533.825 0 1.527.193 2.107.578.58.38 1.013.922 1.298 1.627.29.705.405 1.543.345 2.512H95.68v-.57c-.01-.94-.19-1.635-.54-2.085-.345-.45-.872-.675-1.582-.675-.785 0-1.375.248-1.77.743s-.593 1.21-.593 2.145c0 .89.198 1.58.593 2.07.395.485.965.727 1.71.727.49 0 .912-.11 1.267-.33.36-.224.64-.544.84-.96l1.538.488a3.65 3.65 0 01-1.433 1.688 3.989 3.989 0 01-2.137.592zm-2.888-3.832v-1.223h5.783v1.223h-5.783zM32.975 9.691v-5.04h1.578c.047 0 .133.001.26.004.127.002.25.011.367.028.394.049.725.19.994.423.27.234.474.53.612.89.138.356.207.748.207 1.175 0 .43-.07.824-.207 1.183a2.182 2.182 0 01-.612.886 1.83 1.83 0 01-.994.42c-.117.016-.24.025-.368.028l-.259.003h-1.578zm.749-.696h.83c.078 0 .173-.003.283-.007.11-.005.206-.014.29-.028a1.1 1.1 0 00.623-.333 1.6 1.6 0 00.354-.644c.074-.254.112-.525.112-.812 0-.296-.039-.57-.116-.822a1.574 1.574 0 00-.357-.637 1.076 1.076 0 00-.616-.33 1.749 1.749 0 00-.294-.027 6.752 6.752 0 00-.28-.007h-.83v3.647zm5.725.801c-.378 0-.706-.085-.983-.255a1.723 1.723 0 01-.644-.704 2.31 2.31 0 01-.224-1.04c0-.394.077-.74.23-1.039.155-.3.37-.534.648-.7.278-.168.602-.252.973-.252.378 0 .706.085.984.256.277.17.492.404.644.703.151.299.227.643.227 1.033 0 .394-.077.742-.23 1.043a1.721 1.721 0 01-.645.703 1.856 1.856 0 01-.98.252zm0-.69c.362 0 .631-.12.809-.363.18-.245.27-.56.27-.945 0-.395-.092-.71-.274-.945-.18-.238-.448-.357-.805-.357-.245 0-.447.056-.605.168a.974.974 0 00-.354.458 1.82 1.82 0 00-.115.676c0 .396.09.714.273.952.182.238.449.357.801.357zm3.293.585l-1.155-3.783.724.003.791 2.594.798-2.594h.63l.798 2.594.791-2.594h.721l-1.155 3.78h-.588l-.882-2.737-.886 2.737h-.587zm7.378 0V7.833a2.74 2.74 0 00-.039-.452 1.353 1.353 0 00-.14-.434.822.822 0 00-.29-.322.87.87 0 00-.487-.122c-.13 0-.254.022-.37.066a.773.773 0 00-.309.207 1.041 1.041 0 00-.206.378 1.925 1.925 0 00-.074.57l-.455-.171c0-.343.065-.646.193-.907a1.45 1.45 0 01.553-.616c.24-.147.53-.22.871-.22.262 0 .481.042.658.126.178.084.321.194.43.332.113.136.198.284.256.445.059.16.098.318.12.472.02.154.03.29.03.406v2.1h-.741zm-2.657 0v-3.78h.655v1.092h.087v2.688h-.742zm4.38 0V4.546h.732v5.145h-.732zm3.424.105c-.378 0-.705-.085-.983-.255a1.722 1.722 0 01-.644-.704 2.31 2.31 0 01-.224-1.04c0-.394.077-.74.231-1.039a1.7 1.7 0 01.648-.7 1.84 1.84 0 01.972-.252c.378 0 .706.085.984.256.278.17.492.404.644.703.152.299.227.643.227 1.033 0 .394-.077.742-.23 1.043a1.722 1.722 0 01-.645.703 1.856 1.856 0 01-.98.252zm0-.69c.362 0 .632-.12.809-.363.18-.245.27-.56.27-.945 0-.395-.091-.71-.273-.945-.18-.238-.449-.357-.806-.357-.245 0-.446.056-.605.168a.973.973 0 00-.353.458 1.82 1.82 0 00-.116.676c0 .396.091.714.273.952.182.238.45.357.801.357zm3.692.69a1.46 1.46 0 01-.703-.154 1.097 1.097 0 01-.43-.413 1.15 1.15 0 01-.144-.567c0-.191.033-.36.101-.504a.972.972 0 01.301-.367 1.61 1.61 0 01.49-.249c.168-.049.358-.092.57-.13.213-.037.436-.072.67-.104l.7-.098-.267.147c.005-.297-.058-.516-.189-.658-.128-.145-.35-.217-.665-.217-.198 0-.38.046-.546.14a.738.738 0 00-.346.455l-.683-.21a1.41 1.41 0 01.532-.774c.264-.191.614-.287 1.05-.287.338 0 .632.058.882.175.252.115.436.296.553.546.06.124.098.255.112.392.014.138.021.286.021.445V9.69h-.647v-.864l.126.112a1.618 1.618 0 01-.599.647c-.24.14-.537.21-.889.21zm.13-.598c.207 0 .386-.037.535-.109.15-.075.27-.169.36-.283a.888.888 0 00.18-.357 1.32 1.32 0 00.066-.378c.007-.14.01-.252.01-.336l.238.087-.63.095c-.189.028-.36.056-.514.084a3.081 3.081 0 00-.406.094c-.1.035-.19.077-.27.126a.618.618 0 00-.185.179.468.468 0 00-.067.255c0 .098.025.19.074.273a.516.516 0 00.224.196c.1.05.228.074.385.074zm4.29.598c-.353 0-.657-.087-.914-.262a1.732 1.732 0 01-.592-.714 2.445 2.445 0 01-.206-1.022c0-.38.07-.72.21-1.019.14-.3.338-.538.595-.71.259-.175.566-.263.92-.263.357 0 .657.088.9.263.245.172.43.41.553.71.126.301.189.64.189 1.019 0 .378-.063.717-.189 1.018a1.65 1.65 0 01-.556.718c-.246.175-.549.262-.91.262zm.101-.661c.24 0 .436-.057.588-.172a.977.977 0 00.332-.472 2.1 2.1 0 00.105-.693 2.04 2.04 0 00-.108-.693.965.965 0 00-.329-.47.904.904 0 00-.563-.167.967.967 0 00-.599.178 1.067 1.067 0 00-.35.48c-.075.2-.112.424-.112.672 0 .25.037.476.112.679.077.2.191.36.343.48a.922.922 0 00.581.178zm1.026.556v-2.72h-.085v-2.32h.735v5.04h-.65zm4.673.105c-.378 0-.706-.085-.984-.255a1.723 1.723 0 01-.644-.704 2.31 2.31 0 01-.224-1.04c0-.394.077-.74.231-1.039a1.7 1.7 0 01.648-.7c.277-.168.602-.252.973-.252.378 0 .706.085.983.256.278.17.492.404.644.703.152.299.228.643.228 1.033 0 .394-.077.742-.231 1.043a1.721 1.721 0 01-.644.703 1.856 1.856 0 01-.98.252zm0-.69c.361 0 .63-.12.808-.363.18-.245.27-.56.27-.945 0-.395-.091-.71-.273-.945-.18-.238-.448-.357-.805-.357-.245 0-.447.056-.606.168a.974.974 0 00-.353.458 1.82 1.82 0 00-.116.676c0 .396.091.714.273.952.182.238.45.357.802.357zm5.277.585V7.833a2.74 2.74 0 00-.039-.452 1.353 1.353 0 00-.14-.434.82.82 0 00-.29-.322.869.869 0 00-.487-.122c-.13 0-.254.022-.37.066a.774.774 0 00-.309.207 1.043 1.043 0 00-.206.378 1.925 1.925 0 00-.074.57l-.455-.171c0-.343.064-.646.193-.907.128-.263.312-.469.553-.616.24-.147.53-.22.871-.22.262 0 .48.042.658.126.178.084.321.194.43.332.113.136.198.284.256.445.059.16.098.318.12.472.02.154.03.29.03.406v2.1h-.741zm-2.657 0v-3.78h.655v1.092h.087v2.688H71.8zm7.875 0a3.132 3.132 0 01-.7.06 1.584 1.584 0 01-.613-.133.835.835 0 01-.406-.385 1.125 1.125 0 01-.133-.476 19.427 19.427 0 01-.007-.553V4.86h.735v3.31c0 .151.001.283.004.395a.61.61 0 00.073.284.499.499 0 00.4.248c.184.019.4.01.647-.024v.62zM77.09 6.5v-.588h2.583V6.5H77.09zm6.033 3.192V7.833a2.74 2.74 0 00-.039-.452 1.353 1.353 0 00-.14-.434.822.822 0 00-.29-.322.87.87 0 00-.487-.122c-.13 0-.254.022-.37.066a.773.773 0 00-.309.207 1.041 1.041 0 00-.206.378 1.925 1.925 0 00-.074.57l-.455-.171c0-.343.064-.646.193-.907.128-.263.312-.469.553-.616.24-.147.53-.22.871-.22.261 0 .48.042.658.126.178.084.321.194.43.332.113.136.198.284.256.445.058.16.098.318.12.472.02.154.03.29.03.406v2.1h-.741zm-2.657 0v-5.04h.655v2.72h.087v2.32h-.742zm5.987.105c-.376 0-.706-.082-.99-.245a1.741 1.741 0 01-.662-.69 2.172 2.172 0 01-.235-1.028c0-.413.077-.772.231-1.075.157-.303.374-.538.651-.703.278-.166.601-.249.97-.249.385 0 .713.09.983.27.271.177.473.43.606.76.135.328.189.719.16 1.172h-.73v-.266c-.005-.439-.09-.763-.253-.973-.16-.21-.407-.315-.738-.315-.367 0-.642.115-.826.346-.184.231-.277.565-.277 1.001 0 .415.093.738.277.966.184.226.45.34.798.34a1.1 1.1 0 00.591-.154c.168-.105.299-.255.392-.448l.718.227c-.147.338-.37.601-.669.788a1.861 1.861 0 01-.997.276zm-1.348-1.788v-.57h2.699v.57h-2.699zM15.206.25c-1.187.084-2.574.864-3.383 1.88-.737.92-1.344 2.289-1.107 3.618 1.296.042 2.636-.756 3.413-1.789.726-.961 1.276-2.32 1.077-3.709z" fill="#000"/><path d="M20.95 8.3c-1.264-1.614-3.04-2.55-4.717-2.55-2.214 0-3.15 1.08-4.688 1.08-1.586 0-2.79-1.077-4.705-1.077-1.88 0-3.883 1.17-5.153 3.172C-.098 11.742.207 17.04 3.1 21.554c1.035 1.614 2.418 3.43 4.226 3.446 1.609.015 2.062-1.051 4.242-1.062 2.18-.013 2.593 1.076 4.2 1.059 1.809-.014 3.267-2.027 4.302-3.641.742-1.158 1.018-1.74 1.593-3.048-4.185-1.622-4.856-7.682-.714-10.009z" fill="#000"/></svg>