<svg width="100" height="35" fill="none" xmlns="http://www.w3.org/2000/svg"><mask id="a" fill="#fff"><path fill-rule="evenodd" clip-rule="evenodd" d="M95.131 4.55h4.548V0H95.13v4.55zm4.548 29.52H95.13V8.16h4.548v25.91zm-68.7-25.91v25.91h4.547V12.71h12.483v21.36h4.547V8.16H30.978zm26.124 0v25.91h4.549V12.71h9.855v21.36h4.549V12.71h9.855v21.36h4.548V8.16H57.103zM4.546 8.15h21.382v25.93H0V8.15h4.546zm16.835 21.384H4.546V12.699h16.835v16.835z"/></mask><path fill-rule="evenodd" clip-rule="evenodd" d="M95.131 4.55h4.548V0H95.13v4.55zm4.548 29.52H95.13V8.16h4.548v25.91zm-68.7-25.91v25.91h4.547V12.71h12.483v21.36h4.547V8.16H30.978zm26.124 0v25.91h4.549V12.71h9.855v21.36h4.549V12.71h9.855v21.36h4.548V8.16H57.103zM4.546 8.15h21.382v25.93H0V8.15h4.546zm16.835 21.384H4.546V12.699h16.835v16.835z" fill="#FEFEFE"/><path d="M99.679 4.55v.3h.3v-.3h-.3zm-4.548 0h-.3v.3h.3v-.3zM99.68 0h.3v-.3h-.3V0zm-4.55 0v-.3h-.3V0h.3zm0 34.07h-.3v.3h.3v-.3zm4.548 0v.3h.3v-.3h-.3zM95.13 8.16v-.3h-.3v.3h.3zm4.548 0h.3v-.3h-.3v.3zm-68.7 25.91h-.3v.3h.3v-.3zm0-25.91v-.3h-.3v.3h.3zm4.547 25.91v.3h.3v-.3h-.3zm0-21.36v-.3h-.3v.3h.3zm12.483 0h.3v-.3h-.3v.3zm0 21.36h-.3v.3h.3v-.3zm4.547 0v.3h.3v-.3h-.3zm0-25.91h.3v-.3h-.3v.3zm4.547 25.91h-.3v.3h.3v-.3zm0-25.91v-.3h-.3v.3h.3zm4.549 25.91v.3h.3v-.3h-.3zm0-21.36v-.3h-.3v.3h.3zm9.855 0h.3v-.3h-.3v.3zm0 21.36h-.3v.3h.3v-.3zm4.549 0v.3h.3v-.3h-.3zm0-21.36v-.3h-.3v.3h.3zm9.855 0h.3v-.3h-.3v.3zm0 21.36h-.3v.3h.3v-.3zm4.548 0v.3h.3v-.3h-.3zm0-25.91h.3v-.3h-.3v.3zm-64.53-.01h.3v-.3h-.3v.3zm0 25.93v.3h.3v-.3h-.3zM0 34.08h-.3v.3H0v-.3zM0 8.15v-.3h-.3v.3H0zm4.546 21.384h-.3v.3h.3v-.3zm16.835 0v.3h.3v-.3h-.3zM4.546 12.699v-.3h-.3v.3h.3zm16.835 0h.3v-.3h-.3v.3zm78.298-8.448H95.13v.6h4.548v-.6zM99.379 0v4.55h.6V0h-.6zM95.13.3h4.548v-.6H95.13v.6zm.3 4.25V0h-.6v4.55h.6zm-.3 29.82h4.548v-.6H95.13v.6zm-.3-26.21v25.91h.6V8.16h-.6zm4.848-.3H95.13v.6h4.548v-.6zm.3 26.21V8.16h-.6v25.91h.6zm-68.7 0V8.16h-.6v25.91h.6zm4.247-.3h-4.548v.6h4.548v-.6zm-.3-21.06v21.36h.6V12.71h-.6zm12.783-.3H35.526v.6h12.483v-.6zm.3 21.66V12.71h-.6v21.36h.6zm4.247-.3H48.01v.6h4.547v-.6zm-.3-25.61v25.91h.6V8.16h-.6zm-21.278.3h21.578v-.6H30.978v.6zm26.425 25.61V8.16h-.6v25.91h.6zm4.249-.3h-4.549v.6h4.549v-.6zm-.3-21.06v21.36h.6V12.71h-.6zm10.155-.3h-9.855v.6h9.855v-.6zm.3 21.66V12.71h-.6v21.36h.6zm4.249-.3h-4.549v.6h4.549v-.6zm-.3-21.06v21.36h.6V12.71h-.6zm10.155-.3h-9.855v.6h9.855v-.6zm.3 21.66V12.71h-.6v21.36h.6zm4.248-.3H85.91v.6h4.548v-.6zm-.3-25.61v25.91h.6V8.16h-.6zm-33.056.3H90.46v-.6H57.103v.6zM21.38 7.85H4.546v.6h16.835v-.6zm4.547 0H21.38v.6h4.547v-.6zm.3 4.849V8.15h-.6v4.55h.6zm0 16.834V12.698h-.6v16.834h.6zm0 4.547v-4.547h-.6v4.547h.6zm-4.847.3h4.547v-.6H21.38v.6zm-16.835 0H21.38v-.6H4.546v.6zM0 34.38h4.546v-.6H0v.6zm-.3-4.848v4.548h.6v-4.547h-.6zm0-16.833v16.834h.6V12.698h-.6zm0-4.549v4.55h.6V8.15h-.6zm4.846-.3H0v.6h4.546v-.6zm0 21.984h16.835v-.6H4.546v.6zm-.3-17.135v16.835h.6V12.699h-.6zm17.135-.3H4.546v.6h16.835v-.6zm.3 17.135V12.699h-.6v16.835h.6z" fill="#fff" fill-opacity=".732" mask="url(#a)"/></svg>