<svg width="32" height="32" fill="none" xmlns="http://www.w3.org/2000/svg"><path d="M12 29.333h8c6.666 0 9.333-2.666 9.333-9.333v-8c0-6.667-2.667-9.334-9.333-9.334h-8c-6.667 0-9.334 2.667-9.334 9.334v8c0 6.666 2.667 9.333 9.333 9.333z" stroke="#009974" stroke-width="2" stroke-linecap="round" stroke-linejoin="round"/><path d="M9.333 11c1.333 1.333 3.506 1.333 4.853 0m3.627 0c1.333 1.333 3.507 1.333 4.853 0M11.2 17.333h9.6c.666 0 1.2.533 1.2 1.2 0 3.32-2.68 6-6 6s-6-2.68-6-6c0-.667.533-1.2 1.2-1.2z" stroke="#009974" stroke-width="2" stroke-miterlimit="10" stroke-linecap="round" stroke-linejoin="round"/></svg>