<svg width="32" height="32" fill="none" xmlns="http://www.w3.org/2000/svg"><path d="M12 29.333h8c6.666 0 9.333-2.666 9.333-9.333v-8c0-6.667-2.667-9.334-9.333-9.334h-8c-6.667 0-9.334 2.667-9.334 9.334v8c0 6.666 2.667 9.333 9.333 9.333z" stroke="#009974" stroke-width="2" stroke-linecap="round" stroke-linejoin="round"/><path d="M20.666 13a2 2 0 100-4 2 2 0 000 4zm-9.333 0a2 2 0 100-4 2 2 0 000 4zm-.133 4.733h9.6c.666 0 1.2.534 1.2 1.2 0 3.32-2.68 6-6 6s-6-2.68-6-6c0-.666.533-1.2 1.2-1.2z" stroke="#009974" stroke-width="2" stroke-miterlimit="10" stroke-linecap="round" stroke-linejoin="round"/></svg>