<?xml version="1.0" encoding="utf-8"?><svg viewBox="0 0 172 77" xmlns="http://www.w3.org/2000/svg" xmlns:xlink="http://www.w3.org/1999/xlink"><style>:root>svg{display:none}:root>svg:target{display:block}</style><svg fill="inherit" viewBox="0 0 15 14" id="arrow-link" xmlns="http://www.w3.org/2000/svg"><path d="M8.596.793l6.202 6.202-6.202 6.202H5.06l4.92-4.92H.161V5.713h9.82L5.061.793h3.535z"/></svg><svg fill="inherit" viewBox="0 0 36 13" id="arrow-slider" xmlns="http://www.w3.org/2000/svg"><path d="M27.308 12.3c1.075-2.219 2.08-3.883 3.016-4.992H.008V5.124h30.316c-.936-1.11-1.941-2.773-3.016-4.992h1.82c2.184 2.53 4.472 4.403 6.864 5.616v.936c-2.392 1.179-4.68 3.05-6.864 5.616h-1.82z"/></svg><svg fill="inherit" viewBox="0 0 22 8" id="calendar-arrow" xmlns="http://www.w3.org/2000/svg"><path d="M16.37 7.25c.62-1.28 1.2-2.24 1.74-2.88H.62V3.11h17.49c-.54-.64-1.12-1.6-1.74-2.88h1.05c1.26 1.46 2.58 2.54 3.96 3.24v.54c-1.38.68-2.7 1.76-3.96 3.24h-1.05z"/></svg><svg fill="inherit" viewBox="0 0 31 66" id="deer" xmlns="http://www.w3.org/2000/svg"><path d="M9.135 51.972c-.456 2.18-.847 4.424-1.237 6.668l-.26.833c-.066.32-.066.577 0 .898l-.326 2.82c-.13 1.026.39 2.116 1.302 2.309.846.128 1.888-.641 2.018-1.731.195-1.475.39-2.95.651-4.424l.13-.449c.196-.449.39-.961.586-1.41.39-.898.912-1.795 1.367-2.693 0 0 .066-.128.13-.128l.13-.192.391-.641c.26-.385.586-.834.912-1.218.325-.385.586-.706.911-1.09l.26-.257c.196-.128.326-.32.521-.449l.587-.384.26-.128c-.065.064-.326.128.065 0 .195-.064.325-.129.52-.193l.326-.064h.651l.26.064s.261.129.326.129.065.064.065.064l.26.192.261.256s.065.064.065.129c.065.064.196.384.26.448.196.385.391.834.587 1.218.39.962.716 1.924.976 2.95.716 2.5 1.302 5.064 1.628 7.693.13.961 1.041 1.474 1.823 1.346.78-.128 1.627-.962 1.627-1.987-.195-11.989.26-24.106 1.823-35.966.456-3.334.977-6.54 1.563-9.809.195-.897-.066-1.73-.977-2.18-.781-.384-2.083-.256-2.67.45C17.664 25.815 12 38.637 9.136 51.971zM12.287 19.59c.064-.066.318-.132 0 0zM3.32 20.897c-.063 0-.381-.065-.381-.065-1.081-.262-2.226.196-2.671 1.243-.318.851-.19 2.29.89 2.553 2.48.654 4.96.654 7.44.196 2.417-.393 4.834-1.309 6.932-2.814 4.134-2.945 6.741-7.396 6.995-12.37a14.467 14.467 0 00-1.907-7.919c-.573-.981-2.099-.981-2.99-.392-.953.654-1.462 1.767-.826 2.814.127.196.254.458.382.72l.127.262v.065c.127.262.19.458.254.72-1.526.262-2.989.654-4.324 1.243-.572.262-1.018.59-1.336 1.113a1.928 1.928 0 00-.127 1.57c.191.524.573.982 1.081 1.179.51.196 1.145.262 1.654.065.954-.392 1.908-.72 2.925-.916l.763-.13-.064.719-.063.655-.064.458c-.127.458-.19.916-.381 1.44l-.191.654s-.064.13-.064.196c-.063.066-.127.328-.127.328-.19.392-.381.85-.636 1.178-.127.196-.254.458-.445.654v.065c-.064.066-.19.262-.19.262-.319.393-.573.72-.89 1.047l-.51.459s-.318.261-.445.327c-.381.327-.826.589-1.272.85l-.636.328h-.063l-.382.196-.318.131-.445-4.778c-.064-.392-.381-.785-.763-.916-.445-.13-1.017-.065-1.335.131-.954.458-1.59 1.505-1.527 2.552l.446 3.993-.255.065-.827.131H6.182c-.572 0-1.145 0-1.717-.065l-.827-.131-.318-.066z" fill-opacity=".89"/></svg><svg fill="inherit" viewBox="0 0 31 56" id="grow" xmlns="http://www.w3.org/2000/svg"><path d="M13.876 28.102v3.085c1.464 2.172 2.296 3.906 1.257 5.93-.28.54-.64 1.034-1.067 1.467l.097 2.982c.225 4.5.54 8.987 1.053 13.478l2.822-.091c.222-4.515.246-9.013.18-13.519-.067-4.505-.222-9.007-.567-13.503l-.663-8.825-.23-.31a8.037 8.037 0 01-.243-7.545A197.76 197.76 0 0116.31.95l-2.823.09c.719 8.982.473 18.005.377 27.013M9.268 46.513a.647.647 0 01.006.189c.052.048.112.066.153.114l.117.225a.666.666 0 01.012.368.875.875 0 01-.298.647c-.089.092-.2.16-.321.199l-.12.004c-.089.007-.178.01-.268.008l-.169.006a.518.518 0 01-.169.005.819.819 0 01-.12.004.93.93 0 01-.128.005l-.224-.133-.06-.047a.795.795 0 01-.239-.281.617.617 0 01-.087-.236.269.269 0 01-.003-.09l-.068-.276-.01-.298a.994.994 0 01.387-.64.994.994 0 011.582.297l.027-.07zm-2.453-2.637c-2.2 1.176-1.848 4.378-.717 6.133a3.56 3.56 0 002.798 1.6 4.385 4.385 0 001.892-.25 2.176 2.176 0 001.236-1.463 7.217 7.217 0 00.21-1.797 6.094 6.094 0 00-.22-1.894 3.6 3.6 0 00-2.196-2.377 2.903 2.903 0 00-1.988.065.924.924 0 00-.993.032M23.457 29.953a1.134 1.134 0 01-.415-.226.885.885 0 01-.27-.37.776.776 0 01-.1-.334.994.994 0 01-.189-.283 1.054 1.054 0 01-.01-.308l-.01-.308c.05-.2.16-.38.312-.517l.252-.188a.835.835 0 01.305-.13c.22-.061.452-.069.675-.02 0 0 .262.08.392.126.131.045.202.083.313.129.189.092.35.23.47.402.116.17.18.367.188.572l-.04.31.003.059-.12.282a2.397 2.397 0 01-.202.246l-.076.102a1.372 1.372 0 01-.547.316l-.338.01c-.17.009-.34-.02-.5-.082l-.093.212zm3.668.19a5.868 5.868 0 00.876-3.66 3.432 3.432 0 00-2.39-2.839 2.982 2.982 0 00-2.085.117 2.824 2.824 0 00-2.189 1.235 5.79 5.79 0 00-.602 1.672 4.974 4.974 0 00-.13 1.864 3.829 3.829 0 002.688 2.779 3.172 3.172 0 002.38.082 2.983 2.983 0 001.402-1.25"/><path d="M10.598 36.87a7.954 7.954 0 01-5.215-4.389 6.714 6.714 0 01-.665-3.312c.89.777 1.573 1.552 2.282 2.255.71.703 1.407 1.357 2.113 1.981a29.99 29.99 0 004.985 3.391 5.687 5.687 0 01-3.498.113l-.002-.04zm4.577.32c1.04-2.024.206-3.798-1.256-5.93-.523-.79-1.127-1.626-1.764-2.55-2.444-3.593-2.851-8.186-6.802-6.059-2.777 1.503-4.112 4.531-4.392 7.535a9.946 9.946 0 006.344 9.745 6.314 6.314 0 006.806-1.215 5.78 5.78 0 001.067-1.457M24.787 8.013a5.45 5.45 0 01.2 3.396 7.539 7.539 0 01-1.602 3.097 9.098 9.098 0 01-2.645 2.185 7.22 7.22 0 01-3.302.973c1.435-1.798 2.793-3.175 4.008-4.667.623-.737 1.136-1.5 1.697-2.294.561-.794.99-1.674 1.604-2.689l.04-.001zM16.79 18.849l.23.31c2.161 2.856 4.692 2.058 6.017 1.497.57-.237 4.286-1.92 5.526-5.392 1.88-5.245.829-11.599-2.242-13.022-5.181-2.41-5.134 3.052-8.167 6.493a9.808 9.808 0 00-1.677 2.572 8.037 8.037 0 00.244 7.544"/></svg><svg fill="none" viewBox="0 0 28 28" id="lights" xmlns="http://www.w3.org/2000/svg"><path d="M1.241 8.862v10.306M7.425 5.426v17.177M13.608 1.99v24.048M19.792 5.426v17.177M25.976 8.862v10.306" stroke="inherit" stroke-width="2.473" stroke-linecap="round" stroke-linejoin="round"/></svg><svg fill="inherit" viewBox="0 0 172 58" id="logo" xmlns="http://www.w3.org/2000/svg"><path d="M24.32 40.466a.512.512 0 01-.072.247.538.538 0 01-.184.186.563.563 0 01-.517.035 11.284 11.284 0 00-5.31-1.13c-4.297 0-7.195-2.502-7.195-6.26 0-4.352 3.625-6.528 8.1-6.528h.95c2.999 0 4.243 1.196 4.243 3.921l-.015 9.529zm-2.775-18.893H18.26c-8.323 0-14.329 4.084-14.329 11.14 0 5.443 3.092 8.911 7.93 10.56l-4.87 6.15-.316.363-.425.468a7.572 7.572 0 01-1.46 1.159c-.8.351-1.7.427-2.551.215-1.105-.23-1.94-.631-2.164.044-.402 1.204.912 3.714 1.7 4.828.317.379.726.677 1.19.869.466.191.972.27 1.476.23 3.733 0 6.3-.795 10.682-7.538.046-.074.092-.149.146-.223l.518-.817 2.698-3.773 2.079.58a5.223 5.223 0 012.71 1.801 4.886 4.886 0 011.046 3.004v6.208c5.835 0 6.74 0 6.74-3.267V30.55c0-6.476-2.605-8.978-9.515-8.978zM155.298 27.455h5.202c3.4 0 4.761 1.247 4.761 4.352v25.035c5.827 0 6.739 0 6.739-3.268V31.086c0-6.862-2.21-9.528-9.63-9.528h-12.049c-1.043 0-2.373-.104-3.64-.148a1.074 1.074 0 00-.657.196 1.005 1.005 0 00-.387.546c-.402 1.307-1.7 4.716-.773 5.6.665.646 1.647-.468 3.733-.468l.085.186a93.928 93.928 0 01-2.805 18.373c-.07.26-.147.52-.224.743l-.603 1.485-.186.46c-.834 2.295-1.947 3.372-3.393 3.231-1.275-.104-1.97-1.367-2.357-.899-.842.951-.819 3.714-.734 5.073.023.218.117.423.268.587a1.1 1.1 0 00.574.326l.17.045c1.519.342 3.087.435 4.638.275.262-.001.522-.039.773-.112 3.864-.557 6.345-3.379 7.404-8.652 1.955-9.758 3.091-20.95 3.091-20.95zM106.654 43.622c2.442-6.58 4.568-11.637 6.044-14.534a140.289 140.289 0 015.997 15.121.366.366 0 01.007.24.385.385 0 01-.142.198.412.412 0 01-.475.008 10.317 10.317 0 00-5.928-1.924 9.553 9.553 0 00-4.923 1.367.426.426 0 01-.458-.048.381.381 0 01-.122-.427zm-4.467 13.22c1.661 0 0-.825 1.337-3.075 1.236-1.975 3.918-5.473 8.633-5.473 4.575 0 7.667 3.713 9.104 5.689 1.129 2.086-.386 2.859 1.222 2.859h7.767a351.047 351.047 0 00-14.321-35.938c-.472-.928-9.097 0-7.907 1.798.935 1.552-.688 3.958-1.6 5.703-4.529 8.377-8.084 17.601-11.77 28.437h7.589-.054zM77.084 34.406V56.84c5.89 0 6.4 0 6.4-3.713V21.573c-3.092.11-6.346.49-9.12 1.745a229.701 229.701 0 01-10.218 22.42 219.681 219.681 0 01-10.68-24.165c-2.891.163-6.284.601-8.835 1.693V56.84h6.377V34.458a.414.414 0 01.104-.267.456.456 0 01.55-.096.43.43 0 01.196.214c2.705 6.632 5.835 13.205 9.011 19.16a21.012 21.012 0 006.508-1.143 179.556 179.556 0 008.857-18.069.429.429 0 01.196-.214.456.456 0 01.55.096.414.414 0 01.104.267zM126.316.994c-.123.55-.278 3.46-2.009 5.258-.271.275-1.306 1.084-1.585.966-.865-.357-1.252-2.496-1.344-3.595a7.485 7.485 0 01.332-3.527c-2.319-.55-6.956 1.388-8.154 2.836a28.365 28.365 0 012.574 1.939 9.333 9.333 0 011.46 1.975c.34.55.997 1.909.371 2.161a12.641 12.641 0 01-5.479.921 12.655 12.655 0 01-5.488-.92c-.618-.253 0-1.612.371-2.162a9.673 9.673 0 011.469-1.975 27.321 27.321 0 012.573-1.901c-1.198-1.486-5.812-3.424-8.153-2.874a7.697 7.697 0 01.332 3.527c-.093 1.1-.479 3.238-1.345 3.595-.278.118-1.314-.691-1.584-.966-1.731-1.797-1.894-4.708-2.01-5.258-2.527.594-5.657 4.456-5.99 7.471 5.735 0 7.227 6.595 19.825 6.595 12.598 0 14.058-6.595 19.824-6.595-.332-2.97-3.463-6.877-5.99-7.47z"/></svg><svg fill="inherit" viewBox="0 0 61 77" id="person" xmlns="http://www.w3.org/2000/svg"><path d="M25.825 69.314c1.189.043 2.451-.068 3.94-.258a27.641 27.641 0 004.39-.798c5.887-1.475 11.817-4.139 10.985-7.826-1.308-5.051-2.285-9.3-2.848-13.387-3.683 1.213-7.505 2.246-11.366 2.732-2.385.401-4.75 1.077-7.147.718-1.602-.204-3.097-.395-4.658-.919.24 4.915 1.073 10.719 2.423 17.565.264 1.336 1.965 2.041 4.281 2.173zM35.113 27.192c-.427-.054-.855-.108-1.208-.316-.353-.208-.646-.462-.866-.87a3.589 3.589 0 01-.337-1.183c-.105-.881.185-1.875.842-2.768.939-1.4 2.51-2.232 3.866-2.222.487.008.854.11 1.268.27.353.208.646.462.865.87.173.348.285.742.338 1.183.058.821-.292 1.862-.95 2.755a5.8 5.8 0 01-1.124 1.16c-.857.758-1.826 1.123-2.694 1.121zm-4.34 19.526c2.27.072 4.614-.009 6.986-.304 1.49-.19 2.952-.167 4.441-.357-.437-3.8-.387-7.592.238-11.637 3.202 1.276 6.314 3.68 7.436 8.49.277 1.229 1.357 2.126 2.578 2.336.427.054.808.048 1.202-.064 1.73-.377 2.803-1.977 2.52-3.587-.837-4.068-2.831-7.144-5.423-9.373-2.531-2.276-5.686-3.491-8.729-4.313.375-.386.69-.726 1.018-1.172 2.868-3.76 2.433-8.428-1.36-10.593-3.774-1.891-9.22-.468-11.856 3.592-1.548 2.353-1.83 4.977-1.067 7.081-5.356.295-9.117-1.703-11.722-3.825-2.591-2.23-3.92-4.57-4.06-4.75-.784-1.51-2.94-2.056-4.771-1.313-1.832.744-2.611 2.598-1.72 4.123 2.22 3.864 7.74 9.505 15.7 11.332-2.052 3.32-3.18 8.332-3.046 15.35 1.624-.39 3.188-.734 4.784-.91 2.218-.37 4.507-.024 6.851-.105z"/></svg><svg fill="inherit" viewBox="0 0 36 36" id="rotate" xmlns="http://www.w3.org/2000/svg"><path d="M31.5 16.5A1.5 1.5 0 0030 18a12.075 12.075 0 11-3.33-8.25h-3.6a1.5 1.5 0 000 3h6.795a1.5 1.5 0 001.5-1.5V4.5a1.5 1.5 0 10-3 0v2.655A15 15 0 1033 18a1.5 1.5 0 00-1.5-1.5z"/></svg><svg fill="none" viewBox="0 0 23 23" id="snow" xmlns="http://www.w3.org/2000/svg"><path d="M20.278 15.458l-1.916-1.102.853-.23a.958.958 0 10-.499-1.85l-2.702.729-2.597-1.505 2.597-1.505 2.702.729h.25a.966.966 0 00.248-1.917l-.852-.182 1.916-1.102a.962.962 0 00-.958-1.668l-2.07 1.208.287-1.064a.959.959 0 10-1.85-.498l-.785 2.875-2.444 1.466v-3l1.984-1.983a.958.958 0 10-1.36-1.351l-.624.622V1.917a.958.958 0 00-1.916 0v2.367l-.777-.776a.958.958 0 10-1.36 1.35l2.137 2.138V9.87L8.079 8.414 7.293 5.54a.958.958 0 10-1.85.499l.307 1.025-2.07-1.188a.962.962 0 00-.958 1.667l1.916 1.083-.805.25a.966.966 0 10.25 1.916h.249l2.702-.729 2.55 1.438-2.598 1.505-2.702-.729a.958.958 0 10-.45 1.85l.852.23-1.916 1.102a.961.961 0 10.958 1.667l2.022-1.188-.288 1.064a.958.958 0 00.662 1.207c.082.01.166.01.249 0a.959.959 0 00.958-.709l.786-2.875 2.425-1.466v3L8.558 18.14a.958.958 0 000 1.352.959.959 0 00.68.287.959.959 0 00.68-.288l.624-.622v2.213a.958.958 0 001.916 0v-2.367l.777.776a.956.956 0 001.36 0 .958.958 0 000-1.35l-2.137-2.138V13.13l2.463 1.428.786 2.875a.959.959 0 00.958.71c.083.009.167.009.25 0a.96.96 0 00.68-1.18l-.345-1.025 2.05 1.188a.963.963 0 001.434-.71.963.963 0 00-.475-.957h.02z" fill="inherit"/></svg><svg fill="inherit" viewBox="0 0 22 22" id="star" xmlns="http://www.w3.org/2000/svg"><path d="M20.166 8.864a.916.916 0 00-.788-.614l-5.216-.76-2.337-4.74a.917.917 0 00-1.65 0L7.837 7.48l-5.216.77a.917.917 0 00-.742.623.917.917 0 00.229.917l3.786 3.667-.917 5.206a.917.917 0 001.33.981L11 17.197l4.675 2.456c.128.073.274.11.421.11a.916.916 0 00.858-.579.917.917 0 00.05-.512l-.917-5.206 3.786-3.667a.916.916 0 00.293-.935zm-5.637 3.667a.917.917 0 00-.266.816l.66 3.84-3.447-1.833a.917.917 0 00-.861 0l-3.447 1.834.66-3.841a.917.917 0 00-.266-.816l-2.75-2.75 3.86-.56a.917.917 0 00.696-.503L11 5.225l1.723 3.502a.917.917 0 00.697.504l3.859.559-2.75 2.74z"/><path d="M15.53 12.294a4.53 4.53 0 11-9.06 0 4.53 4.53 0 019.06 0z"/><path d="M11 3.882l2.802 4.853H8.198L11 3.882z"/><path d="M17.49 9.561l-3.806 4.112-1.658-5.353 5.465 1.241zM3.89 9.432l5.571-.611-2.256 5.13-3.314-4.519z"/><path d="M6.785 18.881l-.37-5.591 5.027 2.474-4.657 3.117z"/><path d="M15.154 18.861l-4.894-2.729 4.81-2.874.084 5.603z"/></svg><svg fill="inherit" viewBox="0 0 14 12" id="triangle-arrow" xmlns="http://www.w3.org/2000/svg"><path d="M7.851 10.617a1 1 0 01-1.702 0L1.01 2.274A1 1 0 011.862.75h10.276a1 1 0 01.851 1.524l-5.138 8.343z"/></svg></svg>