<?xml version="1.0" encoding="utf-8"?><svg viewBox="0 0 172 77" xmlns="http://www.w3.org/2000/svg" xmlns:xlink="http://www.w3.org/1999/xlink"><style>:root>svg{display:none}:root>svg:target{display:block}</style><svg fill="inherit" viewBox="0 0 15 14" id="arrow-link" xmlns="http://www.w3.org/2000/svg"><path d="M8.596.793l6.202 6.202-6.202 6.202H5.06l4.92-4.92H.161V5.713h9.82L5.061.793h3.535z"/></svg><svg fill="none" stroke="inherit" viewBox="0 0 20 20" id="arrow-right" xmlns="http://www.w3.org/2000/svg"><path d="M12.025 4.942L17.083 10l-5.058 5.058M2.917 10h14.025" stroke-width="1.5" stroke-miterlimit="10" stroke-linecap="round" stroke-linejoin="round"/></svg><svg stroke="inherit" fill="none" viewBox="0 0 14 14" id="arrow-slide" xmlns="http://www.w3.org/2000/svg"><path d="M8.75 11.62L4.947 7.817a1.158 1.158 0 010-1.634L8.75 2.38" stroke-width="1.5" stroke-miterlimit="10" stroke-linecap="round" stroke-linejoin="round"/></svg><svg fill="inherit" viewBox="0 0 36 13" id="arrow-slider" xmlns="http://www.w3.org/2000/svg"><path d="M27.308 12.3c1.075-2.219 2.08-3.883 3.016-4.992H.008V5.124h30.316c-.936-1.11-1.941-2.773-3.016-4.992h1.82c2.184 2.53 4.472 4.403 6.864 5.616v.936c-2.392 1.179-4.68 3.05-6.864 5.616h-1.82z"/></svg><svg stroke="inherit" fill="none" viewBox="0 0 24 24" id="arrow-square" xmlns="http://www.w3.org/2000/svg"><path d="M12.14 15.07v-1.96c0-2.52 2.04-4.57 4.57-4.57h1.96" stroke-width="1.5" stroke-linecap="round" stroke-linejoin="round"/><path d="M5.62 8.55h1.96c2.52 0 4.57 2.04 4.57 4.57v4.13" stroke-width="1.5" stroke-linecap="round" stroke-linejoin="round"/><path d="M7.14 6.75l-1.8 1.8 1.8 1.8M16.86 6.75l1.8 1.8-1.8 1.8" stroke-width="1.5" stroke-linecap="round" stroke-linejoin="round"/><path d="M9 22h6c5 0 7-2 7-7V9c0-5-2-7-7-7H9C4 2 2 4 2 9v6c0 5 2 7 7 7z" stroke-width="1.5" stroke-linecap="round" stroke-linejoin="round"/></svg><svg stroke="inherit" fill="none" viewBox="0 0 14 14" id="arrows" xmlns="http://www.w3.org/2000/svg"><path d="M6.096 3.92l-2.17-2.17-2.17 2.17M3.926 12.25V1.75M7.904 10.08l2.17 2.17 2.17-2.17M10.074 1.75v10.5" stroke-width="1.5" stroke-linecap="round" stroke-linejoin="round"/></svg><svg fill="inherit" viewBox="0 0 22 8" id="calendar-arrow" xmlns="http://www.w3.org/2000/svg"><path d="M16.37 7.25c.62-1.28 1.2-2.24 1.74-2.88H.62V3.11h17.49c-.54-.64-1.12-1.6-1.74-2.88h1.05c1.26 1.46 2.58 2.54 3.96 3.24v.54c-1.38.68-2.7 1.76-3.96 3.24h-1.05z"/></svg><svg fill="inherit" viewBox="0 0 13 13" id="check-ticket" xmlns="http://www.w3.org/2000/svg"><path d="M5.25 4H9a.625.625 0 000-1.25H5.25a.625.625 0 000 1.25zM4 6.5h5a.625.625 0 000-1.25H4A.625.625 0 004 6.5zM4 9h5a.625.625 0 000-1.25H4A.625.625 0 004 9zM11.5.25h-10a.625.625 0 00-.625.625v11.25a.625.625 0 001 .5l1.294-.969 1.287.969a.625.625 0 00.75 0l1.294-.969 1.294.969a.625.625 0 00.75 0l1.287-.969 1.294.969a.625.625 0 001-.5V.875A.625.625 0 0011.5.25zm-.625 10.625l-.669-.5a.625.625 0 00-.75 0l-1.287.969-1.294-.969a.625.625 0 00-.75 0l-1.294.969-1.287-.969a.625.625 0 00-.75 0l-.669.5V1.5h8.75v9.375z"/></svg><svg fill="inherit" viewBox="0 0 31 66" id="deer" xmlns="http://www.w3.org/2000/svg"><path d="M9.135 51.972c-.456 2.18-.847 4.424-1.237 6.668l-.26.833c-.066.32-.066.577 0 .898l-.326 2.82c-.13 1.026.39 2.116 1.302 2.309.846.128 1.888-.641 2.018-1.731.195-1.475.39-2.95.651-4.424l.13-.449c.196-.449.39-.961.586-1.41.39-.898.912-1.795 1.367-2.693 0 0 .066-.128.13-.128l.13-.192.391-.641c.26-.385.586-.834.912-1.218.325-.385.586-.706.911-1.09l.26-.257c.196-.128.326-.32.521-.449l.587-.384.26-.128c-.065.064-.326.128.065 0 .195-.064.325-.129.52-.193l.326-.064h.651l.26.064s.261.129.326.129.065.064.065.064l.26.192.261.256s.065.064.065.129c.065.064.196.384.26.448.196.385.391.834.587 1.218.39.962.716 1.924.976 2.95.716 2.5 1.302 5.064 1.628 7.693.13.961 1.041 1.474 1.823 1.346.78-.128 1.627-.962 1.627-1.987-.195-11.989.26-24.106 1.823-35.966.456-3.334.977-6.54 1.563-9.809.195-.897-.066-1.73-.977-2.18-.781-.384-2.083-.256-2.67.45C17.664 25.815 12 38.637 9.136 51.971zM12.287 19.59c.064-.066.318-.132 0 0zM3.32 20.897c-.063 0-.381-.065-.381-.065-1.081-.262-2.226.196-2.671 1.243-.318.851-.19 2.29.89 2.553 2.48.654 4.96.654 7.44.196 2.417-.393 4.834-1.309 6.932-2.814 4.134-2.945 6.741-7.396 6.995-12.37a14.467 14.467 0 00-1.907-7.919c-.573-.981-2.099-.981-2.99-.392-.953.654-1.462 1.767-.826 2.814.127.196.254.458.382.72l.127.262v.065c.127.262.19.458.254.72-1.526.262-2.989.654-4.324 1.243-.572.262-1.018.59-1.336 1.113a1.928 1.928 0 00-.127 1.57c.191.524.573.982 1.081 1.179.51.196 1.145.262 1.654.065.954-.392 1.908-.72 2.925-.916l.763-.13-.064.719-.063.655-.064.458c-.127.458-.19.916-.381 1.44l-.191.654s-.064.13-.064.196c-.063.066-.127.328-.127.328-.19.392-.381.85-.636 1.178-.127.196-.254.458-.445.654v.065c-.064.066-.19.262-.19.262-.319.393-.573.72-.89 1.047l-.51.459s-.318.261-.445.327c-.381.327-.826.589-1.272.85l-.636.328h-.063l-.382.196-.318.131-.445-4.778c-.064-.392-.381-.785-.763-.916-.445-.13-1.017-.065-1.335.131-.954.458-1.59 1.505-1.527 2.552l.446 3.993-.255.065-.827.131H6.182c-.572 0-1.145 0-1.717-.065l-.827-.131-.318-.066z" fill-opacity=".89"/></svg><svg fill="inherit" viewBox="0 0 39 39" id="emoji-bad" xmlns="http://www.w3.org/2000/svg"><path d="M23.823 22.035l-6.81 2.438a1.625 1.625 0 00.537 3.152c.188 0 .375-.033.552-.098l6.825-2.437a1.625 1.625 0 10-1.104-3.055zm-6.5-8.125a1.625 1.625 0 00-2.292 0 1.625 1.625 0 01-2.307 0 1.625 1.625 0 10-2.292 2.308 4.875 4.875 0 006.89 0 1.625 1.625 0 00-.064-2.34l.065.032zm11.375 0a1.625 1.625 0 00-2.292 0 1.625 1.625 0 01-2.307 0 1.625 1.625 0 10-2.291 2.308 4.875 4.875 0 006.89 0 1.625 1.625 0 00-.066-2.34l.066.032zM19.5 3.25a16.25 16.25 0 100 32.5 16.25 16.25 0 000-32.5zm0 29.25a13 13 0 110-26 13 13 0 010 26z"/></svg><svg fill="inherit" viewBox="0 0 39 39" id="emoji-good" xmlns="http://www.w3.org/2000/svg"><path d="M23.335 23.124a6.11 6.11 0 01-7.67 0 1.627 1.627 0 10-2.08 2.502 9.23 9.23 0 0011.83 0 1.627 1.627 0 10-2.08-2.502zm-8.369-5.996a1.625 1.625 0 002.292 0 1.625 1.625 0 000-2.292 5.005 5.005 0 00-6.89 0 1.624 1.624 0 001.12 2.858 1.625 1.625 0 001.17-.566 1.624 1.624 0 012.308 0zm13.667-2.292a5.005 5.005 0 00-6.89 0 1.625 1.625 0 002.29 2.292 1.625 1.625 0 012.308 0 1.625 1.625 0 002.291 0 1.625 1.625 0 000-2.292zM19.5 3.25a16.25 16.25 0 100 32.5 16.25 16.25 0 000-32.5zm0 29.25a13 13 0 110-26 13 13 0 010 26z"/></svg><svg fill="none" viewBox="0 0 18 16" id="eye" xmlns="http://www.w3.org/2000/svg"><path d="M12.096 7.875a2.97 2.97 0 01-2.972 2.972A2.97 2.97 0 016.15 7.875a2.97 2.97 0 012.973-2.972 2.97 2.97 0 012.972 2.972z" stroke="inherit" stroke-width="1.494" stroke-linecap="round" stroke-linejoin="round"/><path d="M9.124 14.741c2.93 0 5.662-1.727 7.563-4.716.747-1.17.747-3.138 0-4.308C14.786 2.727 12.054 1 9.124 1c-2.931 0-5.662 1.727-7.564 4.716-.747 1.17-.747 3.138 0 4.308 1.902 2.99 4.633 4.716 7.564 4.716z" stroke="inherit" stroke-width="1.494" stroke-linecap="round" stroke-linejoin="round"/></svg><svg fill="inherit" viewBox="0 0 31 56" id="grow" xmlns="http://www.w3.org/2000/svg"><path d="M13.876 28.102v3.085c1.464 2.172 2.296 3.906 1.257 5.93-.28.54-.64 1.034-1.067 1.467l.097 2.982c.225 4.5.54 8.987 1.053 13.478l2.822-.091c.222-4.515.246-9.013.18-13.519-.067-4.505-.222-9.007-.567-13.503l-.663-8.825-.23-.31a8.037 8.037 0 01-.243-7.545A197.76 197.76 0 0116.31.95l-2.823.09c.719 8.982.473 18.005.377 27.013M9.268 46.513a.647.647 0 01.006.189c.052.048.112.066.153.114l.117.225a.666.666 0 01.012.368.875.875 0 01-.298.647c-.089.092-.2.16-.321.199l-.12.004c-.089.007-.178.01-.268.008l-.169.006a.518.518 0 01-.169.005.819.819 0 01-.12.004.93.93 0 01-.128.005l-.224-.133-.06-.047a.795.795 0 01-.239-.281.617.617 0 01-.087-.236.269.269 0 01-.003-.09l-.068-.276-.01-.298a.994.994 0 01.387-.64.994.994 0 011.582.297l.027-.07zm-2.453-2.637c-2.2 1.176-1.848 4.378-.717 6.133a3.56 3.56 0 002.798 1.6 4.385 4.385 0 001.892-.25 2.176 2.176 0 001.236-1.463 7.217 7.217 0 00.21-1.797 6.094 6.094 0 00-.22-1.894 3.6 3.6 0 00-2.196-2.377 2.903 2.903 0 00-1.988.065.924.924 0 00-.993.032M23.457 29.953a1.134 1.134 0 01-.415-.226.885.885 0 01-.27-.37.776.776 0 01-.1-.334.994.994 0 01-.189-.283 1.054 1.054 0 01-.01-.308l-.01-.308c.05-.2.16-.38.312-.517l.252-.188a.835.835 0 01.305-.13c.22-.061.452-.069.675-.02 0 0 .262.08.392.126.131.045.202.083.313.129.189.092.35.23.47.402.116.17.18.367.188.572l-.04.31.003.059-.12.282a2.397 2.397 0 01-.202.246l-.076.102a1.372 1.372 0 01-.547.316l-.338.01c-.17.009-.34-.02-.5-.082l-.093.212zm3.668.19a5.868 5.868 0 00.876-3.66 3.432 3.432 0 00-2.39-2.839 2.982 2.982 0 00-2.085.117 2.824 2.824 0 00-2.189 1.235 5.79 5.79 0 00-.602 1.672 4.974 4.974 0 00-.13 1.864 3.829 3.829 0 002.688 2.779 3.172 3.172 0 002.38.082 2.983 2.983 0 001.402-1.25"/><path d="M10.598 36.87a7.954 7.954 0 01-5.215-4.389 6.714 6.714 0 01-.665-3.312c.89.777 1.573 1.552 2.282 2.255.71.703 1.407 1.357 2.113 1.981a29.99 29.99 0 004.985 3.391 5.687 5.687 0 01-3.498.113l-.002-.04zm4.577.32c1.04-2.024.206-3.798-1.256-5.93-.523-.79-1.127-1.626-1.764-2.55-2.444-3.593-2.851-8.186-6.802-6.059-2.777 1.503-4.112 4.531-4.392 7.535a9.946 9.946 0 006.344 9.745 6.314 6.314 0 006.806-1.215 5.78 5.78 0 001.067-1.457M24.787 8.013a5.45 5.45 0 01.2 3.396 7.539 7.539 0 01-1.602 3.097 9.098 9.098 0 01-2.645 2.185 7.22 7.22 0 01-3.302.973c1.435-1.798 2.793-3.175 4.008-4.667.623-.737 1.136-1.5 1.697-2.294.561-.794.99-1.674 1.604-2.689l.04-.001zM16.79 18.849l.23.31c2.161 2.856 4.692 2.058 6.017 1.497.57-.237 4.286-1.92 5.526-5.392 1.88-5.245.829-11.599-2.242-13.022-5.181-2.41-5.134 3.052-8.167 6.493a9.808 9.808 0 00-1.677 2.572 8.037 8.037 0 00.244 7.544"/></svg><svg fill="inherit" viewBox="0 0 95 32" id="header-logo" xmlns="http://www.w3.org/2000/svg"><path d="M13.432 22.35a.283.283 0 01-.04.137.297.297 0 01-.101.102.313.313 0 01-.286.02 6.233 6.233 0 00-2.932-.624c-2.374 0-3.974-1.382-3.974-3.458 0-2.403 2.002-3.605 4.473-3.605h.525c1.657 0 2.344.66 2.344 2.165l-.009 5.263zM11.9 11.915h-1.814c-4.598 0-7.915 2.256-7.915 6.153 0 3.006 1.708 4.922 4.38 5.833l-2.69 3.396-.174.201-.235.258c-.24.245-.511.46-.807.64a2.188 2.188 0 01-1.408.12c-.61-.128-1.072-.35-1.196.024-.222.665.504 2.05.94 2.666.174.21.4.374.657.48.257.106.537.15.815.127 2.062 0 3.48-.439 5.9-4.163.025-.041.05-.082.08-.123l.287-.451 1.49-2.084 1.148.32a2.885 2.885 0 011.497.995c.374.478.576 1.06.577 1.659v3.429c3.223 0 3.723 0 3.723-1.805V16.874c0-3.577-1.439-4.959-5.255-4.959zM85.775 15.164h2.872c1.879 0 2.63.689 2.63 2.403v13.828c3.219 0 3.722 0 3.722-1.805V17.17c0-3.79-1.22-5.263-5.319-5.263h-6.655c-.576 0-1.31-.058-2.01-.082a.593.593 0 00-.363.108.554.554 0 00-.213.302c-.222.722-.94 2.605-.427 3.093.367.357.909-.259 2.061-.259l.047.103a51.9 51.9 0 01-1.55 10.148 6.091 6.091 0 01-.123.41l-.333.82-.102.255c-.461 1.267-1.076 1.862-1.874 1.784-.705-.057-1.089-.755-1.302-.496-.466.525-.453 2.05-.406 2.802.013.12.065.233.148.324.084.09.195.153.317.18l.094.025c.839.189 1.705.24 2.562.151.144 0 .288-.02.427-.061 2.134-.308 3.504-1.866 4.089-4.779 1.08-5.39 1.708-11.571 1.708-11.571zM58.907 24.093c1.349-3.634 2.523-6.427 3.338-8.027a77.452 77.452 0 013.313 8.352c.015.042.017.089.003.132a.213.213 0 01-.078.11.227.227 0 01-.263.004 5.699 5.699 0 00-3.274-1.063 5.277 5.277 0 00-2.72.755.235.235 0 01-.252-.027.217.217 0 01-.071-.108.21.21 0 01.004-.128zm-2.468 7.302c.918 0 0-.456.739-1.698.683-1.091 2.164-3.023 4.768-3.023 2.527 0 4.235 2.05 5.029 3.142.623 1.152-.214 1.579.674 1.579h4.29a193.792 193.792 0 00-7.91-19.85c-.26-.512-5.024 0-4.367.993.517.858-.38 2.187-.883 3.15-2.502 4.628-4.466 9.722-6.502 15.707h4.192-.03zM42.575 19.003v12.392c3.253 0 3.534 0 3.534-2.051V11.915c-1.707.062-3.504.27-5.037.964a126.855 126.855 0 01-5.643 12.384 121.349 121.349 0 01-5.9-13.348c-1.596.09-3.47.332-4.879.935v18.545h3.522V19.032a.229.229 0 01.058-.148.251.251 0 01.304-.053c.049.027.087.069.108.119a115.609 115.609 0 004.977 10.583c1.226-.02 2.44-.234 3.594-.632a99.181 99.181 0 004.892-9.98.237.237 0 01.109-.118.252.252 0 01.303.053.229.229 0 01.058.147zM69.768.55c-.068.303-.153 1.91-1.11 2.903-.15.152-.721.6-.875.533-.478-.196-.691-1.378-.743-1.985a4.14 4.14 0 01.184-1.948c-1.28-.304-3.842.767-4.504 1.567.495.33.97.688 1.422 1.07.317.329.588.696.807 1.091.188.304.55 1.055.205 1.194a6.984 6.984 0 01-3.027.509 6.988 6.988 0 01-3.03-.509c-.342-.14 0-.89.204-1.194a5.34 5.34 0 01.811-1.09 15.08 15.08 0 011.422-1.05C60.872.82 58.324-.252 57.03.052A4.25 4.25 0 0157.214 2c-.051.607-.265 1.789-.743 1.985-.154.066-.726-.381-.875-.533-.956-.992-1.046-2.6-1.11-2.904-1.396.328-3.125 2.461-3.308 4.127 3.167 0 3.991 3.642 10.95 3.642 6.957 0 7.764-3.642 10.948-3.642-.183-1.641-1.912-3.799-3.308-4.127z"/></svg><svg fill="none" viewBox="0 0 28 28" id="lights" xmlns="http://www.w3.org/2000/svg"><path d="M1.241 8.862v10.306M7.425 5.426v17.177M13.608 1.99v24.048M19.792 5.426v17.177M25.976 8.862v10.306" stroke="inherit" stroke-width="2.473" stroke-linecap="round" stroke-linejoin="round"/></svg><svg fill="none" viewBox="0 0 16 15" id="location" xmlns="http://www.w3.org/2000/svg"><path d="M7.983 13.766A6.483 6.483 0 107.983.8a6.483 6.483 0 000 12.966z" stroke="inherit" stroke-width="1.556" stroke-linecap="round" stroke-linejoin="round"/><path d="M7.983 9.876a2.593 2.593 0 100-5.186 2.593 2.593 0 000 5.186z" stroke="inherit" stroke-width="1.556" stroke-linecap="round" stroke-linejoin="round"/></svg><svg fill="inherit" viewBox="0 0 172 58" id="logo" xmlns="http://www.w3.org/2000/svg"><path d="M24.32 40.466a.512.512 0 01-.072.247.538.538 0 01-.184.186.563.563 0 01-.517.035 11.284 11.284 0 00-5.31-1.13c-4.297 0-7.195-2.502-7.195-6.26 0-4.352 3.625-6.528 8.1-6.528h.95c2.999 0 4.243 1.196 4.243 3.921l-.015 9.529zm-2.775-18.893H18.26c-8.323 0-14.329 4.084-14.329 11.14 0 5.443 3.092 8.911 7.93 10.56l-4.87 6.15-.316.363-.425.468a7.572 7.572 0 01-1.46 1.159c-.8.351-1.7.427-2.551.215-1.105-.23-1.94-.631-2.164.044-.402 1.204.912 3.714 1.7 4.828.317.379.726.677 1.19.869.466.191.972.27 1.476.23 3.733 0 6.3-.795 10.682-7.538.046-.074.092-.149.146-.223l.518-.817 2.698-3.773 2.079.58a5.223 5.223 0 012.71 1.801 4.886 4.886 0 011.046 3.004v6.208c5.835 0 6.74 0 6.74-3.267V30.55c0-6.476-2.605-8.978-9.515-8.978zM155.298 27.455h5.202c3.4 0 4.761 1.247 4.761 4.352v25.035c5.827 0 6.739 0 6.739-3.268V31.086c0-6.862-2.21-9.528-9.63-9.528h-12.049c-1.043 0-2.373-.104-3.64-.148a1.074 1.074 0 00-.657.196 1.005 1.005 0 00-.387.546c-.402 1.307-1.7 4.716-.773 5.6.665.646 1.647-.468 3.733-.468l.085.186a93.928 93.928 0 01-2.805 18.373c-.07.26-.147.52-.224.743l-.603 1.485-.186.46c-.834 2.295-1.947 3.372-3.393 3.231-1.275-.104-1.97-1.367-2.357-.899-.842.951-.819 3.714-.734 5.073.023.218.117.423.268.587a1.1 1.1 0 00.574.326l.17.045c1.519.342 3.087.435 4.638.275.262-.001.522-.039.773-.112 3.864-.557 6.345-3.379 7.404-8.652 1.955-9.758 3.091-20.95 3.091-20.95zM106.654 43.622c2.442-6.58 4.568-11.637 6.044-14.534a140.289 140.289 0 015.997 15.121.366.366 0 01.007.24.385.385 0 01-.142.198.412.412 0 01-.475.008 10.317 10.317 0 00-5.928-1.924 9.553 9.553 0 00-4.923 1.367.426.426 0 01-.458-.048.381.381 0 01-.122-.427zm-4.467 13.22c1.661 0 0-.825 1.337-3.075 1.236-1.975 3.918-5.473 8.633-5.473 4.575 0 7.667 3.713 9.104 5.689 1.129 2.086-.386 2.859 1.222 2.859h7.767a351.047 351.047 0 00-14.321-35.938c-.472-.928-9.097 0-7.907 1.798.935 1.552-.688 3.958-1.6 5.703-4.529 8.377-8.084 17.601-11.77 28.437h7.589-.054zM77.084 34.406V56.84c5.89 0 6.4 0 6.4-3.713V21.573c-3.092.11-6.346.49-9.12 1.745a229.701 229.701 0 01-10.218 22.42 219.681 219.681 0 01-10.68-24.165c-2.891.163-6.284.601-8.835 1.693V56.84h6.377V34.458a.414.414 0 01.104-.267.456.456 0 01.55-.096.43.43 0 01.196.214c2.705 6.632 5.835 13.205 9.011 19.16a21.012 21.012 0 006.508-1.143 179.556 179.556 0 008.857-18.069.429.429 0 01.196-.214.456.456 0 01.55.096.414.414 0 01.104.267zM126.316.994c-.123.55-.278 3.46-2.009 5.258-.271.275-1.306 1.084-1.585.966-.865-.357-1.252-2.496-1.344-3.595a7.485 7.485 0 01.332-3.527c-2.319-.55-6.956 1.388-8.154 2.836a28.365 28.365 0 012.574 1.939 9.333 9.333 0 011.46 1.975c.34.55.997 1.909.371 2.161a12.641 12.641 0 01-5.479.921 12.655 12.655 0 01-5.488-.92c-.618-.253 0-1.612.371-2.162a9.673 9.673 0 011.469-1.975 27.321 27.321 0 012.573-1.901c-1.198-1.486-5.812-3.424-8.153-2.874a7.697 7.697 0 01.332 3.527c-.093 1.1-.479 3.238-1.345 3.595-.278.118-1.314-.691-1.584-.966-1.731-1.797-1.894-4.708-2.01-5.258-2.527.594-5.657 4.456-5.99 7.471 5.735 0 7.227 6.595 19.825 6.595 12.598 0 14.058-6.595 19.824-6.595-.332-2.97-3.463-6.877-5.99-7.47z"/></svg><svg fill="inherit" viewBox="0 0 61 77" id="person" xmlns="http://www.w3.org/2000/svg"><path d="M25.825 69.314c1.189.043 2.451-.068 3.94-.258a27.641 27.641 0 004.39-.798c5.887-1.475 11.817-4.139 10.985-7.826-1.308-5.051-2.285-9.3-2.848-13.387-3.683 1.213-7.505 2.246-11.366 2.732-2.385.401-4.75 1.077-7.147.718-1.602-.204-3.097-.395-4.658-.919.24 4.915 1.073 10.719 2.423 17.565.264 1.336 1.965 2.041 4.281 2.173zM35.113 27.192c-.427-.054-.855-.108-1.208-.316-.353-.208-.646-.462-.866-.87a3.589 3.589 0 01-.337-1.183c-.105-.881.185-1.875.842-2.768.939-1.4 2.51-2.232 3.866-2.222.487.008.854.11 1.268.27.353.208.646.462.865.87.173.348.285.742.338 1.183.058.821-.292 1.862-.95 2.755a5.8 5.8 0 01-1.124 1.16c-.857.758-1.826 1.123-2.694 1.121zm-4.34 19.526c2.27.072 4.614-.009 6.986-.304 1.49-.19 2.952-.167 4.441-.357-.437-3.8-.387-7.592.238-11.637 3.202 1.276 6.314 3.68 7.436 8.49.277 1.229 1.357 2.126 2.578 2.336.427.054.808.048 1.202-.064 1.73-.377 2.803-1.977 2.52-3.587-.837-4.068-2.831-7.144-5.423-9.373-2.531-2.276-5.686-3.491-8.729-4.313.375-.386.69-.726 1.018-1.172 2.868-3.76 2.433-8.428-1.36-10.593-3.774-1.891-9.22-.468-11.856 3.592-1.548 2.353-1.83 4.977-1.067 7.081-5.356.295-9.117-1.703-11.722-3.825-2.591-2.23-3.92-4.57-4.06-4.75-.784-1.51-2.94-2.056-4.771-1.313-1.832.744-2.611 2.598-1.72 4.123 2.22 3.864 7.74 9.505 15.7 11.332-2.052 3.32-3.18 8.332-3.046 15.35 1.624-.39 3.188-.734 4.784-.91 2.218-.37 4.507-.024 6.851-.105z"/></svg><svg fill="inherit" viewBox="0 0 36 36" id="rotate" xmlns="http://www.w3.org/2000/svg"><path d="M31.5 16.5A1.5 1.5 0 0030 18a12.075 12.075 0 11-3.33-8.25h-3.6a1.5 1.5 0 000 3h6.795a1.5 1.5 0 001.5-1.5V4.5a1.5 1.5 0 10-3 0v2.655A15 15 0 1033 18a1.5 1.5 0 00-1.5-1.5z"/></svg><svg fill="inherit" viewBox="0 0 15 15" id="routes-map" xmlns="http://www.w3.org/2000/svg"><path d="M7.698 11.061c-.44-.506-.714-.827-1.034-1.196.152-.185.304-.362.426-.514.851.923 1.672 1.814 2.455 2.658-.752.803-1.58 1.686-2.447 2.601a40.84 40.84 0 01-.449-.45c.289-.345.563-.674.943-1.132l-.928-.056c-.98-.04-1.969.024-2.926-.12C2.042 12.595.826 10.94.97 9.246c.152-1.766 1.596-3.18 3.314-3.212 1.193-.024 2.387 0 3.573-.008 1.064-.008 1.687-.586 1.695-1.55.008-.971-.608-1.558-1.665-1.574-.745-.008-1.482.016-2.227-.008-.67-.016-1.24.032-1.794.586-.654.659-1.832.442-2.417-.289-.647-.787-.624-1.814.053-2.57C2.11-.06 3.297-.204 3.943.47c.456.474.92.538 1.49.538 1.056 0 2.128-.032 3.17.12 1.665.242 2.858 1.856 2.76 3.534-.107 1.759-1.544 3.228-3.247 3.276-1.216.032-2.44 0-3.656.008-1.057.008-1.68.595-1.68 1.558 0 .964.616 1.55 1.68 1.558.996.008 1.999 0 3.238 0zM12.38 10.088c.973.025 1.832.932 1.832 1.928-.007 1.036-.942 1.975-1.923 1.919-.98-.056-1.825-.98-1.794-1.976.038-1.003.927-1.895 1.885-1.87z"/></svg><svg fill="inherit" viewBox="0 0 12 10" id="select-arrow" xmlns="http://www.w3.org/2000/svg"><path d="M6.866 9.5a1 1 0 01-1.732 0L.804 2A1 1 0 011.67.5h8.66a1 1 0 01.866 1.5l-4.33 7.5z"/></svg><svg fill="inherit" viewBox="0 0 33 33" id="select-calendar" xmlns="http://www.w3.org/2000/svg"><path d="M16.5 26.125a1.375 1.375 0 100-2.75 1.375 1.375 0 000 2.75zm6.875 0a1.375 1.375 0 100-2.75 1.375 1.375 0 000 2.75zm0-5.5a1.375 1.375 0 100-2.75 1.375 1.375 0 000 2.75zm-6.875 0a1.375 1.375 0 100-2.75 1.375 1.375 0 000 2.75zm9.625-16.5H24.75V2.75a1.375 1.375 0 00-2.75 0v1.375H11V2.75a1.375 1.375 0 00-2.75 0v1.375H6.875A4.125 4.125 0 002.75 8.25V27.5a4.125 4.125 0 004.125 4.125h19.25A4.125 4.125 0 0030.25 27.5V8.25a4.125 4.125 0 00-4.125-4.125zM27.5 27.5a1.375 1.375 0 01-1.375 1.375H6.875A1.375 1.375 0 015.5 27.5V15.125h22V27.5zm0-15.125h-22V8.25a1.375 1.375 0 011.375-1.375H8.25V8.25a1.375 1.375 0 002.75 0V6.875h11V8.25a1.375 1.375 0 002.75 0V6.875h1.375A1.375 1.375 0 0127.5 8.25v4.125zm-17.875 8.25a1.375 1.375 0 100-2.75 1.375 1.375 0 000 2.75zm0 5.5a1.375 1.375 0 100-2.75 1.375 1.375 0 000 2.75z"/></svg><svg fill="inherit" viewBox="0 0 34 34" id="select-check" xmlns="http://www.w3.org/2000/svg"><path d="M14.167 11.333h8.5a1.417 1.417 0 000-2.833h-8.5a1.417 1.417 0 100 2.833zM11.333 17h11.334a1.417 1.417 0 100-2.833H11.333a1.417 1.417 0 000 2.833zm0 5.667h11.334a1.417 1.417 0 100-2.834H11.333a1.417 1.417 0 100 2.834zm17-19.834H5.667A1.417 1.417 0 004.25 4.25v25.5a1.417 1.417 0 002.267 1.133l2.932-2.195 2.918 2.195a1.417 1.417 0 001.7 0L17 28.688l2.933 2.195a1.417 1.417 0 001.7 0l2.918-2.195 2.932 2.195a1.418 1.418 0 002.267-1.133V4.25a1.417 1.417 0 00-1.417-1.417zm-1.416 24.084L25.4 25.783a1.417 1.417 0 00-1.7 0l-2.919 2.196-2.932-2.196a1.417 1.417 0 00-1.7 0l-2.932 2.196-2.919-2.196a1.417 1.417 0 00-1.7 0l-1.516 1.134V5.667h19.834v21.25z"/></svg><svg fill="inherit" viewBox="0 0 35 35" id="select-clock" xmlns="http://www.w3.org/2000/svg"><path d="M22.017 18.424l-3.06-1.766v-6.45a1.459 1.459 0 00-2.916 0V17.5a1.459 1.459 0 00.73 1.263l3.788 2.188a1.459 1.459 0 101.458-2.527zM17.5 2.917A14.583 14.583 0 1032.083 17.5 14.6 14.6 0 0017.499 2.917zm0 26.25A11.666 11.666 0 1129.166 17.5a11.68 11.68 0 01-11.667 11.667z"/></svg><svg fill="inherit" viewBox="0 0 39 30" id="select-fish" xmlns="http://www.w3.org/2000/svg"><g clip-path="url(#ayclip0_237_1241)"><path d="M30.918 12.587c.124-.107.233-.2.326-.306l4.835-4.763c.481-.475 1.057-.643 1.71-.414.652.23 1.04.705 1.119 1.379.077.551-.171.98-.544 1.363l-2.938 2.986c-.7.704-1.384 1.409-2.114 2.144.109.107.202.214.295.306l4.803 4.732c.653.643.778 1.363.389 2.037-.513.873-1.912 1.01-2.69.26-1.398-1.363-2.782-2.741-4.165-4.104-.28-.276-.544-.567-.84-.873-3.062 3.568-6.699 6.172-11.424 7.198.108.122.186.214.28.306.808.796 1.616 1.577 2.409 2.389.544.551.653 1.225.342 1.853-.327.628-.98 1.026-1.679.888a2.226 2.226 0 01-1.057-.566c-1.477-1.41-2.922-2.864-4.383-4.288-.156-.154-.389-.276-.591-.291-5.907-.521-10.337-3.538-13.943-7.948a19.354 19.354 0 01-.684-.889c-.466-.581-.497-1.286-.062-1.868C2.985 10.52 6.265 7.702 10.586 6.17a17.708 17.708 0 014.182-.903c.248-.016.528-.153.7-.322 1.507-1.47 3.015-2.94 4.507-4.426.466-.459 1.026-.643 1.663-.444.669.2 1.057.659 1.182 1.333.093.566-.14 1.026-.529 1.409-.808.811-1.632 1.608-2.44 2.404-.094.092-.171.184-.296.306 4.695 1.01 8.316 3.568 11.363 7.06zm-2.083 2.496c-.124-.168-.186-.276-.264-.352-1.275-1.532-2.72-2.895-4.43-3.982-3.855-2.435-7.959-3.14-12.358-1.7-3.28 1.072-5.844 3.155-8.005 5.743-.155.2-.078.306.047.46 1.476 1.776 3.186 3.307 5.207 4.456 3.062 1.746 6.342 2.389 9.84 1.7 2.797-.552 5.207-1.853 7.305-3.722.948-.811 1.788-1.73 2.658-2.603z"/><path d="M10.212 16.63c-.932-.014-1.632-.765-1.632-1.73.016-.964.746-1.684 1.679-1.684.932 0 1.663.75 1.647 1.7-.015.98-.761 1.73-1.694 1.715z"/></g><defs><clipPath id="ayclip0_237_1241"><path fill="#fff" d="M0 0h39v30H0z"/></clipPath></defs></svg><svg fill="inherit" viewBox="0 0 34 34" id="select-food" xmlns="http://www.w3.org/2000/svg"><path d="M23.858 16.476a4.247 4.247 0 003.06-1.247l4.009-4.009a1.417 1.417 0 10-2.012-1.998l-4.052 3.995a1.415 1.415 0 01-2.011 0l5.015-5a1.422 1.422 0 00-2.012-2.012l-5 5.015a1.417 1.417 0 010-1.998l4.008-4.009a1.423 1.423 0 10-2.011-2.011l-4.01 4.009a4.25 4.25 0 000 6.006l-1.841 1.828L5.285 3.287l-.142-.085a1.006 1.006 0 00-.24-.156l-.255-.1-.17-.113h-.383a.808.808 0 00-.255 0 .992.992 0 00-.24.128l-.228.142h-.099l-.085.141c-.06.075-.112.156-.155.241a1.515 1.515 0 00-.1.27v.155A15.583 15.583 0 007.34 17.142l3.74 3.726-7.664 7.65a1.417 1.417 0 001.006 2.422 1.416 1.416 0 001.006-.41l8.599-8.473 4.009-4.009 2.833-2.833a4.25 4.25 0 002.99 1.26zM13.02 19.054l-3.726-3.74A12.835 12.835 0 015.667 7.65L15.033 17l-2.012 2.054zm8.84.808a1.428 1.428 0 10-2.026 2.011l8.925 8.925c.27.247.626.379.992.369a1.418 1.418 0 001.006-2.423l-8.897-8.882z"/></svg><svg fill="inherit" viewBox="0 0 38 38" id="select-map" xmlns="http://www.w3.org/2000/svg"><path d="M28.5 7.093a13.435 13.435 0 00-19 19l8.344 8.36a1.584 1.584 0 002.248 0l8.408-8.439a13.38 13.38 0 000-18.92zM26.235 23.75L19 31.017l-7.236-7.267a10.228 10.228 0 1114.471 0zM14.25 11.732a6.84 6.84 0 000 9.659 6.824 6.824 0 0011.654-4.75 6.712 6.712 0 00-1.995-4.83 6.809 6.809 0 00-9.659-.079zm7.426 7.41a3.69 3.69 0 111.061-2.58 3.689 3.689 0 01-1.14 2.58h.08z"/></svg><svg fill="inherit" viewBox="0 0 34 34" id="select-phone" xmlns="http://www.w3.org/2000/svg"><path d="M27.539 18.417c-.312 0-.638-.1-.95-.17a13.359 13.359 0 01-1.855-.553 2.834 2.834 0 00-3.513 1.417l-.312.637a17.257 17.257 0 01-3.768-2.833 17.255 17.255 0 01-2.834-3.768l.595-.397a2.833 2.833 0 001.417-3.513 14.64 14.64 0 01-.552-1.856c-.071-.312-.128-.638-.17-.964a4.25 4.25 0 00-4.25-3.527h-4.25a4.25 4.25 0 00-4.25 4.83A26.917 26.917 0 0026.25 31.04h.538a4.25 4.25 0 002.834-1.078 4.252 4.252 0 001.416-3.187v-4.25a4.25 4.25 0 00-3.499-4.108zm.708 8.5a1.418 1.418 0 01-.481 1.062 1.488 1.488 0 01-1.162.354A24.084 24.084 0 015.764 7.395a1.544 1.544 0 01.355-1.162 1.417 1.417 0 011.063-.481h4.25a1.416 1.416 0 011.416 1.119c.057.387.128.77.213 1.147.163.747.381 1.481.651 2.196l-1.983.921a1.417 1.417 0 00-.694 1.884 20.527 20.527 0 009.916 9.917c.345.142.732.142 1.077 0a1.416 1.416 0 00.808-.737l.878-1.983c.732.262 1.48.48 2.238.651.378.085.76.156 1.148.213a1.417 1.417 0 011.119 1.417l.028 4.42z"/></svg><svg fill="inherit" viewBox="0 0 31 31" id="select-user" xmlns="http://www.w3.org/2000/svg"><path d="M20.292 16.417a7.75 7.75 0 10-9.584 0 12.917 12.917 0 00-8.034 10.566 1.3 1.3 0 102.583.284 10.333 10.333 0 0120.538 0 1.292 1.292 0 001.291 1.15h.142a1.291 1.291 0 001.137-1.421 12.917 12.917 0 00-8.073-10.579zM15.5 15.5a5.167 5.167 0 110-10.334 5.167 5.167 0 010 10.334z"/></svg><svg fill="none" viewBox="0 0 23 23" id="snow" xmlns="http://www.w3.org/2000/svg"><path d="M20.278 15.458l-1.916-1.102.853-.23a.958.958 0 10-.499-1.85l-2.702.729-2.597-1.505 2.597-1.505 2.702.729h.25a.966.966 0 00.248-1.917l-.852-.182 1.916-1.102a.962.962 0 00-.958-1.668l-2.07 1.208.287-1.064a.959.959 0 10-1.85-.498l-.785 2.875-2.444 1.466v-3l1.984-1.983a.958.958 0 10-1.36-1.351l-.624.622V1.917a.958.958 0 00-1.916 0v2.367l-.777-.776a.958.958 0 10-1.36 1.35l2.137 2.138V9.87L8.079 8.414 7.293 5.54a.958.958 0 10-1.85.499l.307 1.025-2.07-1.188a.962.962 0 00-.958 1.667l1.916 1.083-.805.25a.966.966 0 10.25 1.916h.249l2.702-.729 2.55 1.438-2.598 1.505-2.702-.729a.958.958 0 10-.45 1.85l.852.23-1.916 1.102a.961.961 0 10.958 1.667l2.022-1.188-.288 1.064a.958.958 0 00.662 1.207c.082.01.166.01.249 0a.959.959 0 00.958-.709l.786-2.875 2.425-1.466v3L8.558 18.14a.958.958 0 000 1.352.959.959 0 00.68.287.959.959 0 00.68-.288l.624-.622v2.213a.958.958 0 001.916 0v-2.367l.777.776a.956.956 0 001.36 0 .958.958 0 000-1.35l-2.137-2.138V13.13l2.463 1.428.786 2.875a.959.959 0 00.958.71c.083.009.167.009.25 0a.96.96 0 00.68-1.18l-.345-1.025 2.05 1.188a.963.963 0 001.434-.71.963.963 0 00-.475-.957h.02z" fill="inherit"/></svg><svg fill="inherit" viewBox="0 0 22 22" id="star" xmlns="http://www.w3.org/2000/svg"><path d="M20.166 8.864a.916.916 0 00-.788-.614l-5.216-.76-2.337-4.74a.917.917 0 00-1.65 0L7.837 7.48l-5.216.77a.917.917 0 00-.742.623.917.917 0 00.229.917l3.786 3.667-.917 5.206a.917.917 0 001.33.981L11 17.197l4.675 2.456c.128.073.274.11.421.11a.916.916 0 00.858-.579.917.917 0 00.05-.512l-.917-5.206 3.786-3.667a.916.916 0 00.293-.935zm-5.637 3.667a.917.917 0 00-.266.816l.66 3.84-3.447-1.833a.917.917 0 00-.861 0l-3.447 1.834.66-3.841a.917.917 0 00-.266-.816l-2.75-2.75 3.86-.56a.917.917 0 00.696-.503L11 5.225l1.723 3.502a.917.917 0 00.697.504l3.859.559-2.75 2.74z"/><path d="M15.53 12.294a4.53 4.53 0 11-9.06 0 4.53 4.53 0 019.06 0z"/><path d="M11 3.882l2.802 4.853H8.198L11 3.882z"/><path d="M17.49 9.561l-3.806 4.112-1.658-5.353 5.465 1.241zM3.89 9.432l5.571-.611-2.256 5.13-3.314-4.519z"/><path d="M6.785 18.881l-.37-5.591 5.027 2.474-4.657 3.117z"/><path d="M15.154 18.861l-4.894-2.729 4.81-2.874.084 5.603z"/></svg><svg fill="inherit" viewBox="0 0 14 12" id="triangle-arrow" xmlns="http://www.w3.org/2000/svg"><path d="M7.851 10.617a1 1 0 01-1.702 0L1.01 2.274A1 1 0 011.862.75h10.276a1 1 0 01.851 1.524l-5.138 8.343z"/></svg></svg>