<svg width="768" height="486" fill="none" xmlns="http://www.w3.org/2000/svg"><path opacity=".5" d="M-261 1C-130.278 210-55.66 293.706 79 307.706S267.077 282 360 282s181.446 60 211.37 116.5c29.924 56.5 75.52 85.706 188.13 85.706S941.487 448 969.836 398.5C998.186 349 1073.78 246 1179.31 246c105.52 0 212.18 92 312.19 84.706 100.01-7.294 142.05-153.5 246-153.5 103.95 0 58.15 104.035 183.47 104.794 125.32.759 131.26-101.234 208.58-165 77.33-63.766 81.82 17.134 81.82 17.134" stroke="url(#paint0_linear)" stroke-width="2" stroke-linecap="round" stroke-linejoin="round"/><defs><linearGradient id="paint0_linear" x1="-261" y1="1" x2="2211.37" y2="1" gradientUnits="userSpaceOnUse"><stop stop-color="#FF59F8"/><stop offset=".198" stop-color="#AE72FF"/><stop offset=".406" stop-color="#90E9ED"/><stop offset=".62" stop-color="#5CD167"/><stop offset=".825" stop-color="#FE0"/></linearGradient></defs></svg>