<svg width="80" height="80" fill="none" xmlns="http://www.w3.org/2000/svg"><g clip-path="url(#clip0)"><path d="M53.333 10.297v14.695l-13.29 7.723-13.377-7.723V10.297l13.377-7.723 13.29 7.723z" fill="#E7DBFF"/><path d="M53.334 10.297v14.695l-13.29 7.723V18.02l13.29-7.723z" fill="#551981"/><path d="M40.043 18.02v14.695l-13.377-7.723V10.297l13.377 7.723z" fill="#C0A9F0"/><path d="M53.333 55.007v14.695l-13.29 7.723-13.377-7.723V55.008l13.377-7.724 13.29 7.723z" fill="#E7DBFF"/><path d="M53.334 55.007v14.695l-13.29 7.723V62.731l13.29-7.724z" fill="#551981"/><path d="M40.043 62.73v14.696l-13.377-7.723V55.008l13.377 7.723z" fill="#C0A9F0"/><path d="M26.667 55.007v14.695l-13.29 7.723L0 69.702V55.008l13.377-7.724 13.29 7.723z" fill="#E7DBFF"/><path d="M26.667 55.007v14.695l-13.29 7.723V62.731l13.29-7.724z" fill="#551981"/><path d="M13.377 62.73v14.696L0 69.703V55.008l13.377 7.723z" fill="#C0A9F0"/><path d="M80 55.007v14.695l-13.29 7.723-13.376-7.723V55.008l13.376-7.724L80 55.007z" fill="#E7DBFF"/><path d="M80 55.007v14.695l-13.29 7.723V62.731L80 55.007z" fill="#551981"/><path d="M66.71 62.73v14.696l-13.376-7.723V55.008L66.71 62.73z" fill="#C0A9F0"/><path d="M66.667 32.577v14.695l-13.29 7.723-13.334-7.723V32.577l13.334-7.723 13.29 7.723z" fill="#E7DBFF"/><path d="M66.667 32.576v14.695l-13.29 7.724V40.3l13.29-7.724z" fill="#551981"/><path d="M53.377 40.3v14.695l-13.334-7.723V32.577L53.377 40.3z" fill="#C0A9F0"/><path d="M40.043 32.577v14.695L26.71 54.995l-13.377-7.723V32.577l13.377-7.723 13.333 7.723z" fill="#E7DBFF"/><path d="M40.043 32.576v14.695L26.71 54.995V40.3l13.333-7.724z" fill="#551981"/><path d="M26.71 40.3v14.695l-13.377-7.723V32.577L26.71 40.3z" fill="#C0A9F0"/></g><defs><clipPath id="clip0"><path fill="#fff" d="M0 0h80v80H0z"/></clipPath></defs></svg>