<svg width="80" height="80" fill="none" xmlns="http://www.w3.org/2000/svg"><path d="M31.831 0l16.096 9.354c1.055.907 21.1 18.133 21.138 31.477.038 13.336-9.34 29.584-20.946 36.285-6.011 3.47-11.435 3.695-15.279 1.26.108.068.212.141.322.206l-16.095-9.354c-3.774-2.193-6.113-6.857-6.132-13.483C10.897 42.402 30.785 2.12 31.831 0z" fill="#7421B0"/><path d="M47.927 9.354c-1.047 2.12-20.934 42.401-20.896 55.744.038 13.337 9.476 18.722 21.088 12.018 11.607-6.701 20.984-22.95 20.946-36.286-.038-13.343-20.083-30.57-21.138-31.476z" fill="#E7DBFF"/></svg>