<svg width="80" height="80" fill="none" xmlns="http://www.w3.org/2000/svg"><g clip-path="url(#clip0)"><path d="M17.525 17.68c4.47-2.582 8.521-2.82 11.447-1.12l2.151 1.25c2.891-6.487 7.719-12.438 13.2-15.603 4.473-2.582 8.525-2.821 11.45-1.12L73.82 11.573l-.029-.016c2.906 1.672 4.71 5.247 4.724 10.337C78.567 40.425 50.61 78.021 49.138 80c-.824-.154-9.936-1.858-17.836-6.554l.343.203-18.047-10.487c-6.394-3.716-12.09-9.364-12.114-17.7-.029-10.212 7.153-22.652 16.04-27.783z" fill="#FE0B37"/><path d="M73.82 11.574L55.774 1.087c-2.926-1.701-6.978-1.461-11.45 1.12-5.592 3.228-10.507 9.352-13.376 15.99l18.046 10.487c2.87-6.638 7.785-12.761 13.376-15.99 4.472-2.581 8.524-2.82 11.45-1.12z" fill="#C0A9F0"/><path d="M47.018 27.048L28.972 16.56c-2.925-1.7-6.976-1.462-11.447 1.12l18.047 10.487c4.47-2.582 8.52-2.82 11.446-1.12z" fill="#E7DBFF"/><path d="M13.6 63.161L31.645 73.65c-6.395-3.716-12.09-9.364-12.114-17.7-.03-10.212 7.153-22.651 16.04-27.782L17.525 17.679C8.638 22.81 1.456 35.25 1.485 45.462c.024 8.336 5.72 13.983 12.114 17.7z" fill="#C0A9F0"/><path d="M35.572 28.167c-8.888 5.13-16.07 17.57-16.04 27.782.052 18.53 28.13 23.775 29.607 24.051 1.472-1.979 29.428-39.576 29.376-58.105-.03-10.212-7.258-14.331-16.145-9.2-5.591 3.228-10.506 9.351-13.376 15.99-2.897-3.31-7.831-3.746-13.422-.518z" fill="#7421B0"/></g><defs><clipPath id="clip0"><path fill="#fff" transform="matrix(-1 0 0 1 80 0)" d="M0 0h80v80H0z"/></clipPath></defs></svg>