<svg width="80" height="80" fill="none" xmlns="http://www.w3.org/2000/svg"><g clip-path="url(#clip0)"><path d="M8.514 33.059l11.84-6.836c1.421-.82 2.679-2.602 3.113-4.409l3.622-15.05c.676-2.806 2.498-5.066 4.324-6.12 1.182-.683 2.366-.86 3.24-.351L49.91 9.159l4.51-2.604c1.335-.771 2.436-.812 3.223-.354l17.036 9.9a2.09 2.09 0 00-.163-.085c1.968.925 2.202 4.744-.356 8.365l-9.555 13.525c-1.148 1.624-1.625 3.605-1.18 4.906l3.695 10.825c1.05 3.075-1.482 7.745-4.33 9.39-.891.514-1.813.732-2.666.513l-9.6-2.468c-.576-.148-1.254.003-1.931.394-.677.39-1.354 1.022-1.927 1.833L37.11 76.827c-.849 1.202-1.768 2.046-2.659 2.56-1.243.718-2.43.791-3.286.29l.005.004-17.036-9.9c-1.109-.645-1.668-2.249-1.088-4.66l3.54-14.707L5.259 43.83c-2.74-1.592-.885-8.382 3.255-10.772z" fill="#FED322"/><path d="M74.68 16.1L57.642 6.2c-.787-.457-1.888-.416-3.223.354l17.036 9.9c1.335-.77 2.436-.81 3.223-.353z" fill="#E7DBFF"/><path d="M14.134 69.78l17.036 9.901c-1.109-.644-1.668-2.248-1.088-4.66l-17.036-9.9c-.58 2.412-.02 4.016 1.088 4.66z" fill="#C0A9F0"/><path d="M71.456 16.455l-17.036-9.9-11.84 6.835 17.036 9.9 11.84-6.835z" fill="#E7DBFF"/><path d="M40.244 13.618l17.036 9.9c.605.352 1.44.29 2.336-.228l-17.036-9.9c-.897.518-1.73.58-2.336.228zm-6.54 46.352l-17.036-9.9-3.622 15.051 17.036 9.9 3.622-15.05z" fill="#C0A9F0"/><path d="M32.906 56.608l-17.036-9.9c.856.497 1.179 1.783.798 3.362l17.036 9.9c.38-1.579.058-2.865-.798-3.362zm7.597-24.893l-17.036-9.9c-.434 1.806-1.691 3.587-3.113 4.408l17.036 9.9c1.421-.82 2.68-2.602 3.113-4.408z" fill="#C0A9F0"/><path d="M51.69 10.193L34.654.293c-.875-.509-2.059-.332-3.241.35l17.036 9.901c1.182-.682 2.366-.86 3.24-.351z" fill="#E7DBFF"/><path d="M44.125 16.664l-17.036-9.9-3.622 15.05 17.036 9.9 3.622-15.05z" fill="#C0A9F0"/><path d="M48.449 10.544L31.413.644c-1.826 1.054-3.648 3.314-4.323 6.12l17.036 9.9c.675-2.806 2.497-5.066 4.323-6.12zM37.39 36.123l-17.036-9.9-11.84 6.835 17.036 9.9 11.84-6.835zM5.258 43.83l17.036 9.901c-2.74-1.592-.884-8.382 3.256-10.772l-17.036-9.9c-4.14 2.39-5.995 9.18-3.256 10.772z" fill="#E7DBFF"/><path d="M48.449 10.544c-1.826 1.054-3.648 3.314-4.323 6.12l-3.623 15.05c-.434 1.807-1.692 3.589-3.113 4.41l-11.84 6.835c-4.414 2.548-6.23 10.098-2.65 11.017l9.6 2.467c1.153.294 1.64 1.719 1.204 3.528l-3.622 15.05c-1.028 4.274 1.522 6.01 4.369 4.367.89-.514 1.81-1.359 2.658-2.56l9.557-13.529c.573-.811 1.25-1.442 1.927-1.833.677-.39 1.355-.542 1.93-.394l9.601 2.468c.853.22 1.775 0 2.665-.513 2.849-1.645 5.38-6.315 4.331-9.39l-3.696-10.825c-.444-1.301.033-3.281 1.182-4.906l9.554-13.525c3.563-5.043 1.71-10.474-2.704-7.925l-11.84 6.835c-1.421.82-2.685.495-3.13-.804l-3.694-10.826c-.688-2.019-2.518-2.17-4.343-1.117z" fill="#7421B0"/></g><defs><clipPath id="clip0"><path fill="#fff" transform="matrix(-1 0 0 1 80 0)" d="M0 0h80v80H0z"/></clipPath></defs></svg>