<svg width="80" height="80" fill="none" xmlns="http://www.w3.org/2000/svg"><path d="M63.898 41.203l-49.227-28.46a4.268 4.268 0 00-.504-.291l-.03-.019-.002.004c-1.488-.718-3.369-.575-5.417.607C3.903 15.824 0 23.282 0 29.701c0 3.597 1.226 6.104 3.15 7.126l49.844 28.778c1.556 1.012 3.631.981 5.913-.335 4.821-2.784 8.73-10.251 8.73-16.679-.002-3.952-1.48-6.588-3.739-7.388z" fill="#7421B0"/><path d="M53.206 65.735L10.453 41.044c-1.924-1.022-3.119-3.595-3.119-7.192 0-6.42 3.903-13.877 8.718-16.657 1.83-1.056 3.526-1.28 4.928-.805l42.952 24.832-10.726 24.513z" fill="#E7DBFF"/><path d="M50.178 58.67c0 6.428 3.908 9.383 8.729 6.6 4.82-2.784 8.728-10.251 8.728-16.679 0-6.428-3.908-9.382-8.728-6.599-4.821 2.784-8.73 10.25-8.73 16.679z" fill="#C0A9F0"/><path d="M40.87 58.61c-.625-1.386-.625-2.855-.625-3.934 0-7.526 4.513-16.027 10.275-19.353a23.06 23.06 0 011.686-.88l6.263 3.621c-1.744.14-10.237 6.443-11.997 16.612-.4 2.314-.187 5.33 1.158 7.84l-6.76-3.905zM11.812 41.799c-.625-1.387-.625-2.856-.625-3.934 0-7.527 4.513-16.028 10.274-19.354a22.829 22.829 0 011.687-.88l6.263 3.621c-1.744.14-10.237 6.442-11.998 16.613-.4 2.313-.186 5.33 1.158 7.838l-6.76-3.904z" fill="#E7DBFF"/><path d="M52.744 59.024c0-5.694 3.462-12.309 7.733-14.775 2.492-1.438 4.707-1.144 6.12.48l.003-.002.036.045.07.084 12.423 15.71a4.216 4.216 0 01.5 4.294 3.992 3.992 0 01-4.08 2.332l-18.202-1.395v-.002c-2.712-.038-4.603-2.563-4.603-6.771z" fill="#7421B0"/></svg>