<svg width="80" height="80" fill="none" xmlns="http://www.w3.org/2000/svg"><g clip-path="url(#clip0)"><path d="M65.266 13.716L58.21 5.343a2.94 2.94 0 00-.772-.651l.002-.003-7.4-4.32c-.978-.568-2.237-.484-3.557.278L19.018 16.504c-2.996 1.73-5.424 6.37-5.424 10.364v44.058c0 2.242.765 3.803 1.966 4.436l7.21 4.214.005.002.096.056c.95.55 2.19.498 3.546-.285l34.521-19.93c2.996-1.73 5.424-6.37 5.424-10.364V17.444c0-1.574-.385-2.883-1.096-3.728z" fill="#551981"/><path d="M62.5 59.875l-35 19.489c-3.038 1.69-5.5-.105-5.5-4.01v-43.08c0-3.907 2.462-8.443 5.5-10.134L55.347 6.634c1.724-.96 3.347-.824 4.387.365l7.154 8.188c.721.826 1.112 2.105 1.112 3.644v30.91c0 3.906-2.462 8.443-5.5 10.134z" fill="#7421B0"/><path d="M31 20.665v18.481c0 2.475 2.679 4.022 4.822 2.784l15.82-9.133a5.86 5.86 0 002.93-5.074V7L31 20.665z" fill="#E7DBFF"/><path d="M54.5 7l-9.552-5.467-23.62 13.637 9.6 5.495 11.786-6.832L54.5 7z" fill="#C0A9F0"/><path d="M32.89 22.327v13.291l8.016-4.627V17.7l-8.015 4.627z" fill="#7421B0"/><path d="M31.544 49.995l24.4-14.088c1.208-.697 2.717.175 2.717 1.57v14.037c0 1.99-1.062 3.83-2.785 4.825l-24.4 14.087c-1.208.697-2.717-.175-2.717-1.569V54.82a5.574 5.574 0 012.785-4.825z" fill="#E7DBFF"/><path d="M53.994 44.885L33.362 56.867c-.738.425-1.336-.027-1.336-1.01 0-.985.598-2.128 1.336-2.554l20.632-11.981c.737-.427 1.336.026 1.336 1.01 0 .983-.599 2.127-1.336 2.553zm0 7.932L33.362 64.8c-.738.426-1.336-.026-1.336-1.01s.598-2.127 1.336-2.553l20.632-11.982c.737-.426 1.336.026 1.336 1.01s-.599 2.127-1.336 2.553z" fill="#7421B0"/></g><defs><clipPath id="clip0"><path fill="#fff" d="M0 0h80v80H0z"/></clipPath></defs></svg>