<svg width="80" height="80" fill="none" xmlns="http://www.w3.org/2000/svg"><path d="M63.296 55.147l-1.787-15.282c-.049-.426-.219-.692-.45-.814l.002-.002-6.038-3.456a.526.526 0 00-.047-.027l-.033-.019-.002.004c-.482-.216-1.21.178-1.706 1.126l-2.09 3.993a1.893 1.893 0 00-.25-.143l-5.95-3.416.001.002c-1.51-.873-3.798.53-5.233 3.273-1.502 2.87-1.502 6.116 0 7.251l5.578 4.218-2.505 4.787c-.62 1.182-.44 2.387.231 2.55l5.884 3.398c.18.12.415.146.694.04l12.235-4.682c.856-.328 1.591-1.731 1.466-2.8z" fill="#7421B0"/><path d="M49.595 62.63l12.235-4.682c.856-.327 1.591-1.731 1.466-2.8l-1.787-15.283c-.153-1.314-1.44-1.14-2.193.296l-2.505 4.788-5.578-4.217c-1.502-1.136-3.937.27-5.438 3.14-1.502 2.868-1.502 6.115 0 7.25l5.578 4.217-2.506 4.787c-.751 1.437-.325 2.907.728 2.504z" fill="#E7DBFF"/><path d="M40.16 32.36l-5.579-4.216 2.506-4.787c.56-1.073.465-2.163-.057-2.48l-.003-.002-.01-.006-6.067-3.475a.292.292 0 00-.023-.014l-.019-.01c-.17-.087-.383-.097-.63-.002L18.042 22.05c-.856.328-1.59 1.732-1.465 2.8l1.786 15.283c.053.448.238.72.488.83l-.002.004 5.988 3.432.001-.002c.478.318 1.271-.065 1.8-1.076l2.09-3.993c.041.028.082.053.125.078l6.01 3.443.038.022.084.048c1.511.803 3.758-.6 5.175-3.308 1.501-2.869 1.501-6.115 0-7.25z" fill="#7421B0"/><path d="M62.856 3.57l.001-.003L56.802.098 56.8.101c-.272-.171-.647-.133-1.051.18L43.513 9.726c-1.052.811-1.479 2.775-.727 3.343l2.505 1.894-5.578 10.658c-1.501 2.87-1.501 6.116 0 7.252.136.103.28.184.431.246l5.792 3.335.038.022.002.001c1.51.901 3.814-.503 5.257-3.26L56.81 22.56l2.505 1.894c.752.568 2.04-.745 2.193-2.237l1.787-17.345c.068-.659-.118-1.121-.44-1.303zM40.16 47.125a2.073 2.073 0 00-.207-.136v-.001l-6.004-3.436a1.847 1.847 0 00-.171-.099h-.002c-1.51-.76-3.73.643-5.136 3.328l-5.578 10.658-2.505-1.894c-.752-.569-2.04.744-2.194 2.236l-1.786 17.345c-.068.66.119 1.122.44 1.303v.002l6.102 3.496c.268.138.625.086 1.005-.208l12.235-9.447c1.053-.812 1.48-2.776.728-3.344l-2.505-1.894 5.578-10.658c1.502-2.87 1.502-6.116 0-7.251z" fill="#7421B0"/><path d="M36.36 20.852l-12.236 4.682c-.856.328-1.591 1.732-1.466 2.801l1.787 15.282c.153 1.315 1.44 1.14 2.193-.296l2.505-4.787 5.578 4.217c1.502 1.135 3.937-.27 5.438-3.14 1.502-2.869 1.502-6.115 0-7.25l-5.578-4.218 2.506-4.787c.752-1.436.324-2.906-.728-2.504zm25.15 1.366l1.787-17.346c.124-1.213-.61-1.769-1.467-1.108l-12.235 9.447c-1.052.812-1.48 2.775-.727 3.344l2.505 1.893-5.578 10.66c-1.502 2.868-1.502 6.114 0 7.25 1.502 1.135 3.936-.27 5.438-3.14l5.579-10.658 2.505 1.894c.751.568 2.039-.745 2.192-2.236zM24.445 61.264L22.658 78.61c-.125 1.213.61 1.769 1.466 1.108l12.235-9.447c1.052-.811 1.48-2.775.727-3.343l-2.505-1.894 5.578-10.659c1.502-2.869 1.502-6.115 0-7.25-1.501-1.136-3.936.27-5.438 3.139l-5.578 10.658-2.505-1.893c-.752-.569-2.04.744-2.193 2.235z" fill="#E7DBFF"/></svg>