<svg width="80" height="80" fill="none" xmlns="http://www.w3.org/2000/svg"><g clip-path="url(#clip0)"><path d="M6.858 46.27c-.538-.728-.85-1.76-.853-3.053-.01-3.842 2.69-8.52 6.032-10.45 1.353-.78 2.604-.99 3.614-.71 2.716-10.04 9.788-20.159 18.103-24.96 5.378-3.104 10.25-3.392 13.77-1.348l10.25 5.958c1.586-.226 3.01.026 4.184.708l14.628 8.5-.021-.01C78.678 22.12 79.99 24.72 80 28.423c.021 7.427-5.202 16.475-11.668 20.208l-44.44 25.657c-2.64 1.524-5.023 1.623-6.712.553.047.03.093.062.142.09l-14.628-8.5C1.036 65.469.009 63.42 0 60.51c-.013-4.929 2.9-10.759 6.858-14.24z" fill="#C3DFF7"/><path d="M76.585 20.916l-14.627-8.5c-2.129-1.237-5.076-1.063-8.33.815-.3.173-.596.361-.89.557l14.627 8.5a16.5 16.5 0 01.89-.556c3.254-1.878 6.202-2.053 8.33-.816z" fill="#E7DBFF"/><path d="M62.15 14.25l-14.627-8.5c-3.519-2.045-8.392-1.757-13.77 1.348l14.628 8.5c5.378-3.104 10.25-3.393 13.77-1.348zM2.693 66.432l14.628 8.5c-1.657-.963-2.685-3.01-2.693-5.92-.014-4.93 2.898-10.76 6.857-14.24L6.858 46.27C2.898 49.752-.014 55.582 0 60.51c.009 2.911 1.036 4.96 2.693 5.922zm45.688-50.833l-14.627-8.5c-8.315 4.8-15.387 14.918-18.104 24.958l14.628 8.5C32.994 30.518 40.066 20.4 48.38 15.6z" fill="#E7DBFF"/><path d="M30.278 40.558l-14.628-8.5c-1.01-.28-2.26-.071-3.613.71-3.342 1.93-6.043 6.608-6.032 10.45.003 1.292.314 2.325.852 3.053l14.628 8.5c-.538-.727-.85-1.76-.853-3.053-.01-3.842 2.69-8.52 6.032-10.45 1.353-.78 2.604-.99 3.614-.71z" fill="#E7DBFF"/><path d="M48.382 15.599c-8.316 4.8-15.387 14.918-18.104 24.959-1.01-.28-2.26-.07-3.613.71-3.342 1.93-6.043 6.608-6.032 10.45.003 1.292.314 2.325.852 3.053-3.959 3.481-6.871 9.312-6.857 14.24.017 5.86 4.164 8.223 9.264 5.279l44.44-25.658c6.466-3.733 11.69-12.78 11.668-20.208-.02-7.429-5.279-10.425-11.744-6.692-.3.173-.596.36-.89.556-1.879-8.998-9.674-12.065-18.984-6.69z" fill="#C0A9F0"/><path d="M36.4 50.585l11.653-22.892 5.753 3.343L65.55 40.42l-6.756 3.901.052 18.174-9.885 5.707-5.754-3.344-.032-11.52-1.022.59-5.753-3.343z" fill="#1A6FB0"/><path d="M48.91 50.028l-5.754-3.343.051 18.174 5.754 3.343-.052-18.174z" fill="#551981"/><path d="M53.806 31.036l-5.753-3.343L36.4 50.585l5.753 3.343 11.653-22.892z" fill="#9247C9"/><path d="M53.806 31.036L42.153 53.928l6.756-3.9.052 18.174 9.885-5.707-.052-18.174 6.756-3.9-11.744-9.385z" fill="#7421B0"/></g><defs><clipPath id="clip0"><path fill="#fff" transform="matrix(-1 0 0 1 80 0)" d="M0 0h80v80H0z"/></clipPath></defs></svg>