<svg width="80" height="80" fill="none" xmlns="http://www.w3.org/2000/svg"><path d="M40.28 13.391L54.64 0l8.246 4.785V55.64L47.723 80l-24.458-1.486-6.151-5.994V21.666l23.165-8.275z" fill="#ACABB1"/><path d="M47.723 18.924V80l15.163-24.36V4.784l-15.163 14.14z" fill="#E7DBFF"/><path d="M23.265 27.66v50.855L47.723 80V18.924L23.265 27.66z" fill="#EFE7FF"/><path d="M17.114 21.666V72.52l6.15 5.995V27.66l-6.15-5.994z" fill="#C0A9F0"/><path d="M17.114 21.666l6.15 5.994 24.459-8.736L62.886 4.785 54.64 0 40.28 13.391l-23.166 8.275z" fill="#E7DBFF"/><path d="M47.773 22.154l12.8-11.936v44.427l-12.8 21.34-22.096-1.615V30.234l22.096-8.08z" fill="#A66206"/><path d="M47.773 75.984l12.8-21.34V10.219l-12.8 11.936v53.83z" fill="#7421B0"/><path d="M47.773 22.154l-22.096 8.08V74.37l22.096 1.615v-53.83z" fill="#852FC2"/></svg>