<svg width="80" height="80" fill="none" xmlns="http://www.w3.org/2000/svg"><g clip-path="url(#clip0)"><path d="M72.179 43.39L55.367 30.68l7.551-14.427c1.707-3.26 1.398-6.578-.213-7.499L47.868.264 47.86.258h-.003c-.53-.31-1.202-.358-1.992-.056L8.991 14.313c-2.58.987-4.795 5.219-4.418 8.441l5.385 46.058c.155 1.326.693 2.146 1.425 2.493v.001l14.681 8.406c.027.016.054.032.082.046l.026.015v-.001c1.453.763 3.722-.422 5.255-3.35l6.526-12.47 2.976 2.25c.18.135.365.255.553.367l.007.008s15.03 8.603 15.202 8.69l.01.005H56.7c4.551 2.287 11.246-1.94 15.479-10.03 4.526-8.648 4.526-18.432 0-21.853z" fill="#7421B0"/><path d="M60.726 8.706l-36.875 14.11c-2.58.988-4.795 5.219-4.418 8.441l5.385 46.058c.463 3.96 4.343 3.436 6.61-.893l7.55-14.427 16.812 12.71c4.526 3.42 11.863-.816 16.389-9.463 4.526-8.648 4.526-18.432 0-21.853L55.367 30.68l7.551-14.427c2.266-4.33.98-8.76-2.192-7.547z" fill="#E7DBFF"/></g><defs><clipPath id="clip0"><path fill="#fff" d="M0 0h80v80H0z"/></clipPath></defs></svg>