<svg width="1920" height="968" fill="none" xmlns="http://www.w3.org/2000/svg"><path d="M2017.41 1c-36.04 238.455-72.49 440.028-182.85 498.165-110.37 58.138-205.11-44.958-284.79-13.839-79.67 31.119-96.33 102.04-101.43 164.689-5.1 62.65-16.03 186.086-112.59 223.799-96.55 37.712-186.74-53.74-229.06-90.354-42.32-36.614-144.609-107.238-235.086-71.899s-96.459 99.721-184.863 126.42c-88.404 26.699-151.061-44.06-240.188-9.249-89.126 34.812-24.053 81.584-131.232 124.26C208.143 995.669 164 925.5 74.5 892S-54 952.992-54 952.992" stroke="url(#paint0_linear)" stroke-width="2" stroke-linecap="round" stroke-linejoin="round"/><defs><linearGradient id="paint0_linear" x1="2017.41" y1="1" x2="-102.436" y2="828.982" gradientUnits="userSpaceOnUse"><stop stop-color="#FF59F8"/><stop offset=".198" stop-color="#AE72FF"/><stop offset=".406" stop-color="#90E9ED"/><stop offset=".62" stop-color="#5CD167"/><stop offset=".825" stop-color="#FE0"/></linearGradient></defs></svg>