<svg width="250" height="39" fill="none" xmlns="http://www.w3.org/2000/svg"><path d="M58.965 15.893a6.283 6.283 0 01-.584 2.798 5.301 5.301 0 01-1.632 1.965c-.757.54-1.608.93-2.508 1.146a12.617 12.617 0 01-3.164.376 23.416 23.416 0 01-2.94-.18 16.91 16.91 0 01-2.815-.602v-3.648a22.852 22.852 0 002.904.82 23 23 0 001.484.261c.476.059.954.088 1.433.089.592.01 1.182-.05 1.76-.18.42-.094.82-.262 1.182-.497.283-.186.513-.445.666-.75.14-.302.21-.632.207-.965.014-.44-.13-.872-.407-1.211a3.822 3.822 0 00-1.072-.866 9.637 9.637 0 00-1.515-.677 51.18 51.18 0 01-1.73-.649 18.741 18.741 0 01-1.729-.781 6.302 6.302 0 01-1.515-1.084 4.976 4.976 0 01-1.069-1.543 5.195 5.195 0 01-.379-2.18 5.927 5.927 0 01.412-2.197 4.687 4.687 0 011.303-1.824 6.55 6.55 0 012.274-1.235 10.797 10.797 0 013.344-.456c.387 0 .786.018 1.205.052.42.034.834.08 1.241.135a21.933 21.933 0 012.226.43v3.388a9.798 9.798 0 00-1.023-.331c-.374-.103-.76-.19-1.16-.26-.398-.072-.8-.13-1.204-.173-.405-.039-.788-.06-1.152-.06a7.06 7.06 0 00-1.627.16 3.452 3.452 0 00-1.093.434 1.66 1.66 0 00-.621.686c-.13.281-.196.59-.192.901-.006.395.14.777.407 1.063.313.326.678.596 1.08.797.491.255.999.476 1.52.662.567.205 1.149.426 1.744.662.595.237 1.178.506 1.745.805a6.827 6.827 0 011.523 1.1c.446.438.807.96 1.064 1.535a4.93 4.93 0 01.407 2.084zm14.861 5.354c-.71.292-1.447.51-2.2.649a13.28 13.28 0 01-2.38.21 9.685 9.685 0 01-3.209-.497 6.375 6.375 0 01-2.407-1.475 6.403 6.403 0 01-1.515-2.423 9.751 9.751 0 01-.525-3.34 9.27 9.27 0 01.568-3.328 7.095 7.095 0 011.601-2.539 6.938 6.938 0 012.493-1.63 8.81 8.81 0 013.245-.57c.823-.01 1.645.042 2.46.156.606.094 1.204.228 1.792.399v3.564a8.98 8.98 0 00-1.988-.721 8.802 8.802 0 00-2.032-.26 4.452 4.452 0 00-1.79.346 3.773 3.773 0 00-1.346.961 4.188 4.188 0 00-.837 1.498 6.194 6.194 0 00-.29 1.934c-.012.671.092 1.34.305 1.975.19.55.49 1.055.88 1.482.383.41.85.728 1.367.933a4.669 4.669 0 001.773.323c.334 0 .667-.023.998-.068a9.19 9.19 0 001.049-.195c.35-.086.696-.182 1.036-.292.34-.11.657-.232.952-.362v3.27zm13.251-8.759a7.005 7.005 0 00-.082-1.462 2.823 2.823 0 00-.356-.992 1.5 1.5 0 00-.599-.571 1.734 1.734 0 00-.81-.182 2.693 2.693 0 00-1.648.67 9.628 9.628 0 00-1.87 2.206v9.677h-3.695V6.542h3.267l.133 2.228a6.01 6.01 0 01.834-1.042c.306-.312.65-.582 1.023-.806a4.87 4.87 0 011.264-.52 6.064 6.064 0 011.523-.18 4.836 4.836 0 012.016.398c.582.262 1.09.67 1.479 1.183a5.26 5.26 0 01.888 1.962c.205.895.291 1.815.255 2.733l-3.622-.01zm19.145.541c0 .25-.007.576-.023.977-.015.401-.035.782-.066 1.128h-9.871c-.012.607.09 1.21.302 1.777.187.489.48.929.857 1.287.385.352.838.619 1.33.782a5.22 5.22 0 001.722.26 17.272 17.272 0 002.344-.171 18.589 18.589 0 002.597-.568v2.928c-.384.11-.803.21-1.256.3-.454.09-.917.17-1.39.24-.471.07-.949.125-1.433.159-.483.033-.951.052-1.404.052a8.92 8.92 0 01-3.07-.495 6.083 6.083 0 01-2.303-1.467 6.446 6.446 0 01-1.448-2.403 9.948 9.948 0 01-.512-3.309c-.01-1.15.162-2.293.512-3.387a7.857 7.857 0 011.417-2.606 6.248 6.248 0 012.226-1.685 6.967 6.967 0 012.917-.594 7.385 7.385 0 012.814.505 5.65 5.65 0 012.047 1.407 5.976 5.976 0 011.256 2.152 8.33 8.33 0 01.435 2.73zm-3.666-.521a4.55 4.55 0 00-.22-1.564 3.16 3.16 0 00-.642-1.104 2.565 2.565 0 00-.947-.65 3.161 3.161 0 00-1.16-.21 2.91 2.91 0 00-1.213.221c-.385.16-.732.4-1.02.706-.58.615-.92 1.484-1.023 2.606l6.225-.005zm19.399.518c0 .25-.008.576-.023.977-.015.402-.036.782-.067 1.129h-9.871c-.012.606.091 1.21.302 1.777.188.489.481.928.857 1.287a3.71 3.71 0 001.331.781 5.195 5.195 0 001.722.26 17.196 17.196 0 002.341-.171 18.503 18.503 0 002.594-.568v2.929c-.383.11-.802.209-1.256.3-.454.09-.917.17-1.389.239-.474.07-.949.125-1.433.159a20.07 20.07 0 01-1.405.052 8.91 8.91 0 01-3.07-.495 6.065 6.065 0 01-2.303-1.467 6.448 6.448 0 01-1.448-2.402 9.964 9.964 0 01-.512-3.31c-.01-1.15.163-2.293.512-3.387a7.793 7.793 0 011.418-2.605 6.249 6.249 0 012.223-1.686 6.988 6.988 0 012.914-.615 7.39 7.39 0 012.815.506c.775.31 1.474.79 2.047 1.407a6.009 6.009 0 011.279 2.152c.293.886.436 1.816.422 2.751zm-3.666-.52a4.55 4.55 0 00-.22-1.564 3.16 3.16 0 00-.645-1.105 2.527 2.527 0 00-.944-.649 3.165 3.165 0 00-1.162-.21 2.91 2.91 0 00-2.228.898c-.58.615-.922 1.484-1.024 2.606l6.223.023zm15.269 9.327V11.87c0-1.675-.611-2.513-1.832-2.515a2.593 2.593 0 00-1.75.753 12.868 12.868 0 00-1.768 2.048v9.677h-3.605V6.541h3.118l.087 2.26a10.7 10.7 0 01.955-1.072 5.57 5.57 0 011.072-.818 5.096 5.096 0 011.241-.52 5.703 5.703 0 011.491-.18 4.898 4.898 0 012.014.382 3.913 3.913 0 011.433 1.084c.401.495.697 1.07.87 1.686.2.717.298 1.46.289 2.204v10.266h-3.615zm19.167-4.497a4.193 4.193 0 01-.568 2.233 4.578 4.578 0 01-1.507 1.506 6.84 6.84 0 01-2.129.842 11.11 11.11 0 01-2.431.26 25.757 25.757 0 01-2.986-.156 19.313 19.313 0 01-2.512-.461v-3.306c.892.38 1.821.665 2.771.849.859.17 1.732.256 2.607.26.947 0 1.653-.15 2.121-.458.21-.117.386-.288.509-.496.124-.208.191-.446.195-.69a1.39 1.39 0 00-.149-.633 1.545 1.545 0 00-.555-.547 6.046 6.046 0 00-1.144-.542 25.547 25.547 0 00-1.937-.625 12.263 12.263 0 01-1.944-.717 5.025 5.025 0 01-1.382-.938 3.537 3.537 0 01-.818-1.258 4.674 4.674 0 01-.274-1.678 3.881 3.881 0 01.414-1.762 4.153 4.153 0 011.234-1.461 6.233 6.233 0 012.046-.985c.935-.257 1.901-.38 2.869-.362.839-.007 1.679.043 2.512.15.727.1 1.374.212 1.934.332v2.996a15.346 15.346 0 00-2.415-.594 14.87 14.87 0 00-2.239-.172 3.422 3.422 0 00-1.791.406 1.238 1.238 0 00-.494.467 1.27 1.27 0 00-.179.662c-.004.213.042.425.133.617.125.215.301.395.512.521.347.209.713.383 1.093.521.467.186 1.085.39 1.855.61a13.98 13.98 0 012.21.823 5.19 5.19 0 011.438.97c.346.346.609.768.768 1.235.163.51.242 1.045.233 1.581zm12.304 4.499v-9.964c0-1.674-.61-2.512-1.832-2.514a2.605 2.605 0 00-1.75.753 13.02 13.02 0 00-1.765 2.048v9.677h-3.608V.568h3.605v5.238l-.176 2.77c.284-.355.592-.69.921-1.001a4.89 4.89 0 012.205-1.204c.461-.11.932-.164 1.405-.159a4.885 4.885 0 012.019.383 3.897 3.897 0 011.435 1.084c.4.495.695 1.069.867 1.686.2.717.296 1.46.287 2.204v10.266h-3.613zm20.299-7.766a10.316 10.316 0 01-.512 3.303 7.32 7.32 0 01-1.448 2.567 6.386 6.386 0 01-2.318 1.654 7.93 7.93 0 01-3.134.587 8.422 8.422 0 01-2.986-.495 5.792 5.792 0 01-2.226-1.486 6.593 6.593 0 01-1.405-2.467 11.1 11.1 0 01-.486-3.455 10.2 10.2 0 01.512-3.312 7.205 7.205 0 011.464-2.543 6.516 6.516 0 012.325-1.633 7.95 7.95 0 013.106-.579 8.34 8.34 0 012.999.506 5.823 5.823 0 012.231 1.495 6.58 6.58 0 011.397 2.47c.338 1.096.5 2.24.481 3.388zm-3.753.09c0-1.587-.294-2.779-.88-3.574-.587-.796-1.452-1.198-2.595-1.207a3.225 3.225 0 00-1.609.376c-.443.251-.819.61-1.095 1.042a4.629 4.629 0 00-.627 1.527 8.416 8.416 0 00-.2 1.865c0 1.597.315 2.799.944 3.606.307.396.701.713 1.151.923.449.21.942.31 1.436.29a3.203 3.203 0 001.569-.37c.439-.243.81-.596 1.077-1.025.292-.474.502-.996.622-1.542a8.423 8.423 0 00.207-1.913v.003zm18.349 7.525c-.65.151-1.305.271-1.965.36-.622.088-1.25.133-1.878.135a9.062 9.062 0 01-2.559-.315 4.41 4.41 0 01-1.773-.964 3.846 3.846 0 01-1.036-1.647 7.65 7.65 0 01-.332-2.387V9.404h-4.023V6.538h4.033V2.629l3.694-.977v4.891h5.839v2.866h-5.839V16.6c0 .87.197 1.53.591 1.98.394.452 1.055.676 1.981.67a9.692 9.692 0 001.729-.15c.518-.09 1.03-.205 1.535-.347l.003 2.931zm16.426-8.655c0 .25-.008.576-.023.977 0 .401-.036.782-.067 1.128h-9.871c-.011.607.092 1.21.305 1.777.186.49.479.93.857 1.287.384.353.836.62 1.328.782a5.22 5.22 0 001.722.26 17.23 17.23 0 002.343-.171 18.578 18.578 0 002.592-.568v2.928c-.384.11-.801.209-1.256.3-.455.091-.916.172-1.387.24a19.85 19.85 0 01-2.837.21 8.928 8.928 0 01-3.071-.494 6.077 6.077 0 01-2.302-1.467 6.47 6.47 0 01-1.448-2.403 9.939 9.939 0 01-.512-3.309c-.01-1.15.162-2.293.512-3.387a7.795 7.795 0 011.42-2.606 6.21 6.21 0 012.223-1.685 6.98 6.98 0 012.919-.594 7.388 7.388 0 012.815.505c.775.31 1.474.79 2.047 1.407.561.62.989 1.353 1.256 2.152.294.88.441 1.802.435 2.73zm-3.664-.521a4.457 4.457 0 00-.223-1.564 3.12 3.12 0 00-.642-1.104 2.541 2.541 0 00-.946-.65 3.159 3.159 0 00-1.16-.21 2.901 2.901 0 00-1.212.221c-.385.16-.732.4-1.019.706-.583.615-.926 1.486-1.023 2.606l6.225-.005zm15.982-.02a6.749 6.749 0 00-.082-1.462 2.81 2.81 0 00-.36-.992 1.517 1.517 0 00-.596-.571 1.769 1.769 0 00-.814-.182 2.696 2.696 0 00-1.648.67 9.625 9.625 0 00-1.87 2.206v9.677h-3.69V6.542h3.268l.133 2.228c.239-.378.519-.728.834-1.042.306-.312.65-.582 1.023-.806a4.908 4.908 0 011.264-.52 6.066 6.066 0 011.523-.18 4.845 4.845 0 012.018.398 3.81 3.81 0 011.477 1.183 5.22 5.22 0 01.887 1.962c.206.895.292 1.815.256 2.733l-3.623-.01zm15.821 2.663v5.855h-3.326v-5.855h-5.517v-3.025h5.512V6.303h3.326v5.823H250v3.025h-5.511z" fill="#7421B0"/><path d="M48.87 34.756c.005.326-.06.65-.193.946a2.017 2.017 0 01-.534.706 2.273 2.273 0 01-.809.435 3.31 3.31 0 01-.995.146 3.398 3.398 0 01-.694-.065 3.576 3.576 0 01-.568-.156 2.84 2.84 0 01-.42-.193 1.163 1.163 0 01-.235-.17.433.433 0 01-.097-.18 1.109 1.109 0 01-.03-.288 1.693 1.693 0 010-.214.526.526 0 01.035-.138.167.167 0 01.056-.073.168.168 0 01.082-.018c.083.011.16.045.226.099a3.561 3.561 0 00.931.435c.243.071.496.106.75.102.199.002.397-.027.588-.087a1.42 1.42 0 00.458-.26c.128-.106.23-.24.297-.394a1.3 1.3 0 00.102-.534 1.005 1.005 0 00-.143-.55 1.46 1.46 0 00-.379-.398 3.141 3.141 0 00-.537-.315l-.617-.295a6.96 6.96 0 01-.614-.328 2.625 2.625 0 01-.535-.427 2.02 2.02 0 01-.38-.576 1.958 1.958 0 01-.147-.782c-.005-.291.053-.58.17-.847.108-.241.269-.454.47-.622.213-.173.456-.303.717-.384a3.04 3.04 0 011.396-.085c.16.027.317.065.471.114.135.044.266.1.392.164.081.04.158.088.227.146a.501.501 0 01.072.089.664.664 0 01.046.203c.003.06.003.12 0 .18v.188a.83.83 0 01-.026.138.185.185 0 01-.048.08.106.106 0 01-.072.026.447.447 0 01-.181-.088c-.09-.055-.2-.117-.33-.185a3.04 3.04 0 00-.461-.188 2.05 2.05 0 00-.601-.083 1.603 1.603 0 00-.54.083 1.11 1.11 0 00-.379.227.898.898 0 00-.225.333c-.05.13-.075.27-.074.41a.998.998 0 00.143.541c.102.158.232.295.384.404a3.3 3.3 0 00.542.323l.62.295c.21.099.417.208.621.328.199.115.381.256.543.42.16.165.29.36.383.573.102.25.15.519.141.79zm4.666 1.175v.172a.921.921 0 01-.02.122.394.394 0 01-.128.201 1.47 1.47 0 01-.243.18 2.47 2.47 0 01-.389.193 2.658 2.658 0 01-.977.19 2.45 2.45 0 01-.988-.188 1.858 1.858 0 01-.719-.547 2.499 2.499 0 01-.443-.883 4.848 4.848 0 01.008-2.54c.106-.338.28-.65.512-.915.213-.232.476-.41.767-.521a2.577 2.577 0 011.428-.125c.147.027.29.068.43.122a1.882 1.882 0 01.568.344.714.714 0 01.095.112.53.53 0 01.043.097.77.77 0 01.023.125v.174a.71.71 0 01-.051.32.148.148 0 01-.128.091.335.335 0 01-.197-.096 2.942 2.942 0 00-.284-.213 2.032 2.032 0 00-.417-.214 1.557 1.557 0 00-.578-.096 1.177 1.177 0 00-.59.122 1.2 1.2 0 00-.457.399 2.757 2.757 0 00-.366 1.563c-.003.3.029.6.095.891.052.23.147.447.279.641.115.166.272.298.453.383.191.087.4.13.609.125.197.005.392-.03.575-.104.15-.063.293-.14.428-.232.12-.083.222-.159.304-.227a.346.346 0 01.192-.104.1.1 0 01.07.024.16.16 0 01.048.08.505.505 0 01.028.139c.01.064.018.13.02.195zm3.924-4.117v.216a.726.726 0 01-.022.139.234.234 0 01-.044.075.094.094 0 01-.071.026.298.298 0 01-.113-.026 2.182 2.182 0 00-.335-.102 1.01 1.01 0 00-.225-.023.715.715 0 00-.282.057 1.133 1.133 0 00-.289.193 2.482 2.482 0 00-.32.357c-.11.149-.232.328-.365.545v3.468a.143.143 0 01-.023.08.193.193 0 01-.075.055.558.558 0 01-.143.034 1.887 1.887 0 01-.235 0 1.843 1.843 0 01-.23 0 .554.554 0 01-.146-.034.156.156 0 01-.077-.055.164.164 0 01-.02-.08V31.47c0-.028.005-.055.017-.08a.177.177 0 01.07-.058.43.43 0 01.132-.036h.423a.361.361 0 01.127.036c.027.014.05.033.067.057a.156.156 0 01.02.081v.764a4.09 4.09 0 01.4-.522 2.06 2.06 0 01.353-.312c.1-.07.212-.125.33-.16.108-.027.218-.041.33-.04h.169c.066.005.132.015.197.03.069.016.133.034.189.053a.39.39 0 01.115.06c.02.014.036.032.046.054a.24.24 0 01.02.068.6.6 0 010 .12c.008.068.01.138.01.23zm4.982 2.058a.407.407 0 01-.113.323.383.383 0 01-.256.096h-3.405a3.32 3.32 0 00.087.782c.051.22.15.427.289.604.137.17.313.302.512.386.252.095.52.14.79.133.22.003.441-.017.658-.06a4.2 4.2 0 00.86-.276.586.586 0 01.204-.06.117.117 0 01.072.02.143.143 0 01.048.06.469.469 0 01.026.115c.003.06.003.118 0 .177a.982.982 0 010 .133.908.908 0 010 .1.261.261 0 01-.03.078.26.26 0 01-.052.067.763.763 0 01-.187.104c-.129.06-.264.109-.401.144a5.31 5.31 0 01-.571.127c-.23.038-.461.056-.693.055a3.106 3.106 0 01-1.116-.182 2.044 2.044 0 01-.806-.537 2.28 2.28 0 01-.494-.894 4.206 4.206 0 01-.166-1.253 3.976 3.976 0 01.171-1.217 2.59 2.59 0 01.497-.92 2.22 2.22 0 01.783-.578 2.517 2.517 0 011.023-.2 2.43 2.43 0 011.036.197c.27.118.51.296.704.521.187.23.325.495.404.782.089.315.133.642.13.97l-.004.203zm-.955-.287a1.775 1.775 0 00-.332-1.193 1.242 1.242 0 00-1.036-.433 1.323 1.323 0 00-1.062.493 1.635 1.635 0 00-.28.52 2.36 2.36 0 00-.11.618l2.82-.005zm6.454.288a.408.408 0 01-.112.323.378.378 0 01-.256.096h-3.406c-.002.264.028.526.087.782.052.22.15.427.29.605.14.17.32.303.524.385.253.096.521.14.79.133a3.16 3.16 0 00.658-.06 4.194 4.194 0 00.847-.276.583.583 0 01.205-.06.117.117 0 01.071.02.143.143 0 01.049.06.478.478 0 01.025.115c.004.06.004.119 0 .178a.982.982 0 01-.012.232.264.264 0 01-.031.078.261.261 0 01-.051.067.761.761 0 01-.187.105 2.27 2.27 0 01-.402.143 5.335 5.335 0 01-.57.128c-.229.037-.46.055-.691.054a3.12 3.12 0 01-1.118-.182 2.044 2.044 0 01-.806-.537 2.278 2.278 0 01-.494-.893 4.204 4.204 0 01-.153-1.236 3.974 3.974 0 01.171-1.216 2.62 2.62 0 01.496-.92c.217-.25.484-.447.783-.578a2.517 2.517 0 011.024-.201c.355-.01.709.057 1.036.198.27.118.51.296.704.521.187.229.325.495.404.782.089.315.132.641.13.969l-.005.185zm-.954-.287a1.774 1.774 0 00-.333-1.193 1.26 1.26 0 00-1.036-.433 1.323 1.323 0 00-1.062.493 1.633 1.633 0 00-.279.521 2.28 2.28 0 00-.11.618l2.82-.006zm6.493 3.152a.166.166 0 01-.022.08.192.192 0 01-.075.055.555.555 0 01-.145.034 1.802 1.802 0 01-.228 0 1.813 1.813 0 01-.236 0 .555.555 0 01-.145-.034.192.192 0 01-.075-.054.142.142 0 01-.023-.081V33.65a3.098 3.098 0 00-.069-.727 1.514 1.514 0 00-.2-.471.885.885 0 00-.342-.305 1.062 1.062 0 00-.484-.107c-.259.008-.509.1-.714.26a3.89 3.89 0 00-.744.756v3.682a.142.142 0 01-.023.08.185.185 0 01-.077.055.506.506 0 01-.143.034 2.017 2.017 0 01-.466 0 .61.61 0 01-.146-.034.128.128 0 01-.071-.05.132.132 0 01-.023-.085v-5.269a.156.156 0 01.018-.08.146.146 0 01.069-.058.409.409 0 01.133-.036h.422a.361.361 0 01.128.036.184.184 0 01.066.058.156.156 0 01.02.08v.696c.245-.295.54-.542.87-.73.27-.147.57-.226.876-.229.3-.01.597.05.87.177.224.111.42.275.57.477.15.208.257.446.312.699.07.315.102.638.098.961v3.218zm7.395-.806v.172a.484.484 0 01-.02.122.395.395 0 01-.034.089.515.515 0 01-.092.112 1.73 1.73 0 01-.243.18c-.124.076-.254.14-.389.192a2.642 2.642 0 01-.98.19 2.448 2.448 0 01-.987-.187 1.886 1.886 0 01-.722-.547 2.54 2.54 0 01-.443-.884 4.384 4.384 0 01-.15-1.206c-.01-.453.053-.904.186-1.337.105-.338.28-.65.512-.914.213-.232.476-.41.768-.521a2.584 2.584 0 011.43-.125c.145.028.288.069.427.122a1.9 1.9 0 01.348.175c.079.049.152.105.22.17.036.032.068.07.095.111.02.03.034.062.043.096.014.04.022.083.023.126.003.058.003.116 0 .174a.684.684 0 01-.05.32.15.15 0 01-.126.092.333.333 0 01-.2-.097 2.943 2.943 0 00-.284-.213 2.074 2.074 0 00-.414-.214 1.561 1.561 0 00-.579-.096 1.185 1.185 0 00-.59.122 1.209 1.209 0 00-.459.399 2.758 2.758 0 00-.363 1.563c-.005.3.027.6.095.891.052.23.147.448.279.641.114.166.27.298.45.383a1.4 1.4 0 00.611.125c.196.005.391-.03.574-.104.15-.063.294-.14.43-.232.12-.083.22-.159.301-.226a.361.361 0 01.195-.105.11.11 0 01.069.024.18.18 0 01.049.08.585.585 0 01.028.139c-.005.053-.008.12-.008.198zm4.699.807a.127.127 0 01-.046.104.296.296 0 01-.126.052c-.077.015-.156.02-.235.018-.08.003-.16-.004-.238-.018a.28.28 0 01-.13-.052.136.136 0 01-.039-.104v-.521a2.52 2.52 0 01-.755.57 1.964 1.964 0 01-.882.206 2.414 2.414 0 01-.737-.107 1.567 1.567 0 01-.563-.315 1.394 1.394 0 01-.363-.5 1.739 1.739 0 01-.128-.68 1.6 1.6 0 01.176-.782c.124-.222.3-.41.512-.544a2.47 2.47 0 01.816-.324c.357-.076.72-.113 1.085-.109h.711v-.41a2.104 2.104 0 00-.061-.536.946.946 0 00-.205-.39.88.88 0 00-.366-.232 1.606 1.606 0 00-.55-.081 2.14 2.14 0 00-.63.086c-.166.047-.329.11-.485.187a4.95 4.95 0 00-.35.185.478.478 0 01-.21.086.144.144 0 01-.082-.023.202.202 0 01-.06-.07.345.345 0 01-.038-.12 1.063 1.063 0 010-.162.919.919 0 01.02-.23.327.327 0 01.098-.16 1.28 1.28 0 01.256-.178c.14-.076.286-.14.437-.188a3.637 3.637 0 011.131-.195c.32-.008.64.036.947.128.238.072.454.201.632.378.165.172.285.383.35.614.076.28.113.57.108.86v3.557zm-.942-2.405h-.808a3.03 3.03 0 00-.67.06c-.17.035-.331.102-.476.198a.808.808 0 00-.292.323.984.984 0 00-.09.425.854.854 0 00.256.651c.2.172.456.26.717.245.243.001.482-.066.69-.193a3.01 3.01 0 00.668-.591l.005-1.118zm7.086-.317a4.83 4.83 0 01-.146 1.24 2.787 2.787 0 01-.432.934 1.912 1.912 0 01-.704.588 2.13 2.13 0 01-.957.209 1.834 1.834 0 01-.427-.047 1.71 1.71 0 01-.381-.146 2.134 2.134 0 01-.371-.26 5.037 5.037 0 01-.39-.355v2.642a.147.147 0 01-.022.08.174.174 0 01-.075.058.519.519 0 01-.143.037 2.01 2.01 0 01-.235 0 1.88 1.88 0 01-.23 0 .593.593 0 01-.149-.037.16.16 0 01-.074-.057.168.168 0 01-.018-.08v-7.354a.198.198 0 01.015-.086.157.157 0 01.07-.055.519.519 0 01.132-.033h.395a.481.481 0 01.128.033c.028.012.053.03.071.055a.163.163 0 01.02.086v.706c.144-.15.295-.293.454-.427.136-.115.283-.215.44-.3a1.894 1.894 0 01.944-.242c.333-.01.663.066.96.221.26.145.482.354.644.608.172.275.294.58.36.899.08.355.121.719.12 1.084zm-.983.112a4.866 4.866 0 00-.061-.781 2.351 2.351 0 00-.207-.67 1.211 1.211 0 00-.397-.466 1.038 1.038 0 00-.616-.177c-.125 0-.248.019-.366.057-.129.04-.251.1-.364.175a2.74 2.74 0 00-.386.315c-.153.15-.296.311-.427.482v2.084c.216.28.466.529.744.743.213.165.472.257.74.26.218.007.433-.054.616-.174.174-.12.317-.28.415-.47a2.35 2.35 0 00.235-.653c.049-.238.073-.48.074-.722v-.002zm4.701 2.215c0 .087-.008.174-.023.26a.307.307 0 01-.07.149.425.425 0 01-.138.086c-.067.03-.137.052-.21.068a2.428 2.428 0 01-.511.062 1.923 1.923 0 01-.688-.11 1.108 1.108 0 01-.471-.328 1.362 1.362 0 01-.269-.555 3.417 3.417 0 01-.082-.781V32.12h-.737a.157.157 0 01-.138-.094.687.687 0 01-.05-.305 1.175 1.175 0 01.012-.187.599.599 0 01.038-.125.14.14 0 01.062-.07.165.165 0 01.082-.021h.719v-1.251a.13.13 0 01.02-.076.168.168 0 01.074-.062.46.46 0 01.146-.037c.077-.005.154-.005.23 0 .079-.005.157-.005.236 0a.44.44 0 01.143.037c.03.014.055.036.074.062a.132.132 0 01.023.076v1.25h1.328c.028 0 .055.008.08.021a.148.148 0 01.058.07c.02.04.033.082.039.126.004.062.004.125 0 .187a.644.644 0 01-.054.305.15.15 0 01-.136.094h-1.322v2.934c-.016.284.038.567.158.823a.6.6 0 00.566.276.933.933 0 00.235-.026l.184-.054.138-.058a.27.27 0 01.103-.026.1.1 0 01.094.071.66.66 0 01.026.112.999.999 0 01.03.172zm5.313.394a.173.173 0 01-.02.08.152.152 0 01-.072.056.502.502 0 01-.133.033 1.492 1.492 0 01-.205 0 1.513 1.513 0 01-.215 0 .476.476 0 01-.133-.033.147.147 0 01-.066-.055.197.197 0 01-.018-.081v-.703a3.24 3.24 0 01-.873.726 1.854 1.854 0 01-.872.227c-.3.01-.597-.05-.87-.175a1.542 1.542 0 01-.57-.476 1.911 1.911 0 01-.313-.701c-.069-.32-.1-.647-.094-.975V31.47a.135.135 0 01.02-.08.175.175 0 01.077-.058.508.508 0 01.148-.036H97c.051.004.1.016.147.036.03.013.055.033.076.058a.138.138 0 01.023.08v3.065c-.005.247.017.495.067.737.036.17.104.331.202.474a.938.938 0 00.824.412c.257-.008.506-.1.709-.26a4.26 4.26 0 00.75-.756V31.47a.135.135 0 01.02-.081.175.175 0 01.077-.058.505.505 0 01.145-.036h.464a.445.445 0 01.143.036.268.268 0 01.077.058.118.118 0 01.025.08v5.269zm4.409-4.924v.216a.587.587 0 01-.023.139.198.198 0 01-.043.075.096.096 0 01-.072.026.314.314 0 01-.113-.026 2.168 2.168 0 00-.335-.102 1.009 1.009 0 00-.222-.023.7.7 0 00-.282.057 1.15 1.15 0 00-.292.193 2.522 2.522 0 00-.317.357 6.966 6.966 0 00-.368.545v3.468a.152.152 0 01-.023.08.197.197 0 01-.074.055.543.543 0 01-.144.034 1.88 1.88 0 01-.235 0 1.839 1.839 0 01-.23 0 .556.556 0 01-.146-.034.151.151 0 01-.074-.055.143.143 0 01-.021-.08V31.47a.136.136 0 01.084-.138.44.44 0 01.134-.036h.422a.336.336 0 01.128.036.185.185 0 01.066.057.143.143 0 01.021.081v.764c.12-.184.253-.358.399-.522.106-.116.225-.22.353-.312a1.2 1.2 0 01.33-.16 1.31 1.31 0 01.33-.04h.169c.067.005.134.015.199.03.069.016.131.034.187.053a.416.416 0 01.118.06.156.156 0 01.046.054.1.1 0 00.02.068c.003.04.003.08 0 .12.008.068.008.138.008.23zm4.992 2.058a.414.414 0 01-.02.174.41.41 0 01-.093.149.376.376 0 01-.256.096h-3.403c-.003.263.026.526.087.782.051.22.149.427.287.604.141.171.322.304.527.386.253.095.521.14.79.133a3.16 3.16 0 00.658-.06 4.221 4.221 0 00.844-.276.586.586 0 01.205-.06.119.119 0 01.072.02.12.12 0 01.048.06.452.452 0 01.028.115c.003.06.003.118 0 .177v.133c0 .037 0 .07-.015.1a.27.27 0 01-.079.145.893.893 0 01-.187.104c-.13.06-.264.108-.402.144a5.35 5.35 0 01-.573.127 4.114 4.114 0 01-.691.055 3.121 3.121 0 01-1.118-.182 2.043 2.043 0 01-.806-.537 2.327 2.327 0 01-.494-.894 4.28 4.28 0 01-.166-1.253 3.977 3.977 0 01.172-1.217c.102-.338.271-.65.496-.92.216-.25.485-.447.785-.578a2.52 2.52 0 011.024-.2 2.46 2.46 0 011.036.197c.269.118.509.296.701.521.187.23.326.496.407.782.087.316.13.642.128.97l.008.203zm-.952-.287a1.792 1.792 0 00-.333-1.193 1.242 1.242 0 00-1.036-.432 1.332 1.332 0 00-1.064.492 1.579 1.579 0 00-.277.52c-.066.2-.103.408-.11.618l2.82-.005zm8.241 3.154a.127.127 0 01-.046.104.294.294 0 01-.125.052 1.04 1.04 0 01-.236.018 1.172 1.172 0 01-.238-.018.259.259 0 01-.128-.052.128.128 0 01-.04-.104v-.521a2.59 2.59 0 01-.755.57 1.965 1.965 0 01-.883.206 2.412 2.412 0 01-.737-.107 1.573 1.573 0 01-.563-.315 1.393 1.393 0 01-.363-.5 1.739 1.739 0 01-.128-.68 1.593 1.593 0 01.179-.782 1.48 1.48 0 01.512-.544c.251-.156.527-.266.816-.324.357-.076.72-.113 1.085-.109h.711v-.41a2.109 2.109 0 00-.061-.536.948.948 0 00-.205-.39.878.878 0 00-.366-.232 1.602 1.602 0 00-.55-.081 2.133 2.133 0 00-.629.086 3.017 3.017 0 00-.489.187 5.08 5.08 0 00-.348.185.476.476 0 01-.21.086.145.145 0 01-.082-.023.188.188 0 01-.059-.07.337.337 0 01-.038-.12 1.09 1.09 0 010-.162.883.883 0 01.021-.23.298.298 0 01.097-.16c.078-.07.164-.13.256-.178.14-.076.286-.139.437-.188a3.638 3.638 0 011.131-.195c.32-.008.64.036.947.128.237.072.454.201.632.378.165.172.285.383.35.614.076.28.112.57.108.86l-.003 3.557zm-.941-2.405h-.809a3.03 3.03 0 00-.678.068 1.387 1.387 0 00-.476.198.832.832 0 00-.279.315.985.985 0 00-.089.425.855.855 0 00.256.651c.198.171.454.259.713.245.244.001.484-.065.694-.193.25-.162.475-.362.668-.591v-1.118zm6.777 2.404a.136.136 0 01-.023.08.19.19 0 01-.074.055.554.554 0 01-.143.034 1.855 1.855 0 01-.231 0 1.843 1.843 0 01-.235 0 .505.505 0 01-.143-.034.187.187 0 01-.077-.054.175.175 0 01-.023-.081V33.65a3.226 3.226 0 00-.067-.727 1.446 1.446 0 00-.202-.471.876.876 0 00-.34-.305 1.072 1.072 0 00-.486-.107 1.2 1.2 0 00-.711.26 3.968 3.968 0 00-.748.756v3.682a.136.136 0 01-.023.08.19.19 0 01-.074.055.554.554 0 01-.143.034 1.88 1.88 0 01-.235 0 1.855 1.855 0 01-.231 0 .556.556 0 01-.146-.034.167.167 0 01-.076-.054.163.163 0 01-.021-.081v-5.269c0-.028.006-.055.018-.08a.182.182 0 01.069-.058.427.427 0 01.133-.036h.422a.358.358 0 01.128.036.188.188 0 01.067.058.152.152 0 01.02.08v.696c.245-.294.54-.541.87-.73.269-.147.57-.226.875-.229.3-.01.598.05.87.177.225.111.422.275.573.477.149.21.255.447.313.699.067.315.098.638.094.961v3.218zm5.803 0a.185.185 0 01-.02.083.129.129 0 01-.07.055.614.614 0 01-.127.03 1.408 1.408 0 01-.197 0 1.39 1.39 0 01-.2 0 .677.677 0 01-.133-.03.147.147 0 01-.074-.055.144.144 0 01-.023-.083v-.704a3.545 3.545 0 01-.847.704c-.293.17-.625.26-.962.26-.337.01-.67-.067-.97-.224a1.843 1.843 0 01-.652-.61 2.702 2.702 0 01-.366-.899 5.134 5.134 0 01-.115-1.091 4.765 4.765 0 01.145-1.225c.082-.336.226-.653.425-.933.181-.252.42-.456.696-.594.301-.142.63-.213.962-.206a1.72 1.72 0 01.832.201c.277.156.527.357.742.594v-3.07c0-.027.007-.053.02-.078a.138.138 0 01.077-.06 1.33 1.33 0 01.373-.05c.079 0 .158.005.236.017a.811.811 0 01.143.034.17.17 0 01.079.06c.016.023.024.05.026.078v7.796zm-.954-3.7a3.824 3.824 0 00-.742-.74 1.293 1.293 0 00-.75-.26 1.04 1.04 0 00-.614.176 1.318 1.318 0 00-.412.462 2.257 2.257 0 00-.23.648 3.97 3.97 0 00-.072.738c-.001.262.02.523.061.781.035.235.106.463.21.675.092.19.228.352.397.474.182.127.399.19.619.18a1.295 1.295 0 00.724-.23c.138-.093.266-.199.384-.317a4.65 4.65 0 00.425-.482v-2.105zm7.678-1.224v.216a.718.718 0 01-.023.139.243.243 0 01-.044.075.084.084 0 01-.033.02.089.089 0 01-.038.006.302.302 0 01-.113-.026 2.27 2.27 0 00-.335-.102 1.012 1.012 0 00-.225-.023.716.716 0 00-.282.057 1.14 1.14 0 00-.289.193 2.526 2.526 0 00-.32.357c-.11.149-.232.328-.365.545v3.468a.145.145 0 01-.024.08.19.19 0 01-.074.055.527.527 0 01-.143.034 1.92 1.92 0 01-.235 0 1.855 1.855 0 01-.231 0 .606.606 0 01-.148-.034.171.171 0 01-.074-.055.172.172 0 01-.016-.08V31.47a.187.187 0 01.016-.08.175.175 0 01.069-.058.427.427 0 01.133-.036h.422a.358.358 0 01.128.036.185.185 0 01.066.057.153.153 0 01.021.081v.764a4.14 4.14 0 01.399-.522c.106-.117.224-.222.353-.312.101-.07.213-.125.33-.16a1.31 1.31 0 01.33-.04h.169c.067.005.134.015.2.03.062.015.123.032.184.053a.39.39 0 01.12.06.167.167 0 01.046.054c0 .019.013.042.018.068a.6.6 0 010 .12c.008.068.008.138.008.23zm4.982 2.059a.398.398 0 01-.113.323.374.374 0 01-.255.096h-3.406a3.37 3.37 0 00.087.782c.052.228.155.44.299.623.138.168.313.3.512.385.253.095.521.14.791.133.22.003.441-.017.657-.06a4.186 4.186 0 00.86-.276.588.588 0 01.205-.06.129.129 0 01.12.08.409.409 0 01.026.115 1.31 1.31 0 010 .178.982.982 0 01-.013.231.27.27 0 01-.028.079.324.324 0 01-.054.067.755.755 0 01-.187.105c-.129.06-.264.108-.402.143a5.157 5.157 0 01-.57.128c-.229.037-.46.055-.691.054a3.121 3.121 0 01-1.118-.182 2.043 2.043 0 01-.806-.537 2.314 2.314 0 01-.494-.894 4.213 4.213 0 01-.166-1.253 3.976 3.976 0 01.171-1.217 2.63 2.63 0 01.497-.92 2.22 2.22 0 01.783-.578 2.515 2.515 0 011.023-.2 2.4 2.4 0 011.023.198c.27.117.511.295.704.52.187.23.325.496.404.782.089.315.133.642.131.97l.01.185zm-.954-.287a1.779 1.779 0 00-.33-1.193 1.287 1.287 0 00-.471-.339 1.258 1.258 0 00-.568-.094 1.326 1.326 0 00-1.062.493 1.63 1.63 0 00-.279.52 2.36 2.36 0 00-.11.618l2.82-.005zm5.754 2.346v.172a.463.463 0 01-.021.122.353.353 0 01-.125.2 1.749 1.749 0 01-.243.18 2.309 2.309 0 01-.389.193 2.655 2.655 0 01-.98.19 2.449 2.449 0 01-.987-.187 1.887 1.887 0 01-.722-.547 2.554 2.554 0 01-.443-.884 4.422 4.422 0 01-.151-1.206 4.258 4.258 0 01.187-1.337c.105-.338.28-.65.512-.914.213-.232.476-.41.768-.521.304-.117.626-.175.951-.172.31 0 .616.058.906.17.122.045.238.104.348.174.079.049.152.105.22.17a.774.774 0 01.097.111.38.38 0 01.041.097.41.41 0 01.023.125c.003.058.003.116 0 .174a.676.676 0 01-.051.32.147.147 0 01-.125.091.326.326 0 01-.197-.096 3.455 3.455 0 00-.287-.213 2.004 2.004 0 00-.414-.214 1.564 1.564 0 00-.579-.096 1.177 1.177 0 00-1.046.52 2.737 2.737 0 00-.366 1.564c-.005.3.027.6.095.891.052.23.147.448.279.641.115.165.27.297.45.383a1.4 1.4 0 00.611.125c.197.005.393-.03.576-.104.15-.063.293-.14.427-.232a5.57 5.57 0 00.305-.226.346.346 0 01.192-.105.11.11 0 01.069.024.2.2 0 01.048.08.592.592 0 01.029.139c-.005.053-.008.12-.008.198zm5.629-1.889c.003.4-.053.8-.167 1.183-.1.342-.269.66-.496.932a2.236 2.236 0 01-.826.613 2.848 2.848 0 01-1.152.219 2.941 2.941 0 01-1.11-.193 2.012 2.012 0 01-.791-.56 2.408 2.408 0 01-.471-.897 4.255 4.255 0 01-.156-1.193c-.003-.4.052-.8.164-1.183.1-.342.268-.66.494-.933.225-.264.507-.472.824-.607a2.83 2.83 0 011.156-.216c.379-.009.756.056 1.111.193.303.12.573.311.788.56.219.26.38.565.473.894.111.385.165.786.159 1.188zm-.983.065a3.983 3.983 0 00-.077-.808 2.02 2.02 0 00-.256-.667 1.295 1.295 0 00-.486-.453 1.818 1.818 0 00-1.491 0c-.204.096-.38.244-.512.43-.138.197-.237.42-.292.656a3.42 3.42 0 00-.097.831 3.96 3.96 0 00.079.813c.043.236.13.46.256.662.122.191.29.347.489.451.238.12.502.177.768.167.249.006.497-.045.724-.151.203-.097.378-.244.511-.428.137-.197.236-.419.289-.654.062-.278.089-.564.082-.85h.013zm5.033-2.294v.216a.54.54 0 01-.023.139.222.222 0 01-.043.075.096.096 0 01-.072.026.302.302 0 01-.113-.026 2.168 2.168 0 00-.335-.102 1.003 1.003 0 00-.222-.023.7.7 0 00-.282.057 1.145 1.145 0 00-.291.193 2.529 2.529 0 00-.318.357 6.966 6.966 0 00-.368.545v3.468a.152.152 0 01-.023.08.197.197 0 01-.074.055.534.534 0 01-.144.034 1.88 1.88 0 01-.235 0 1.839 1.839 0 01-.23 0 .556.556 0 01-.146-.034.144.144 0 01-.074-.055.141.141 0 01-.034-.08V31.47c0-.028.005-.055.016-.08a.175.175 0 01.069-.058.427.427 0 01.133-.036h.422c.045.004.09.016.131.036a.216.216 0 01.064.057.152.152 0 01.02.081v.764a4.14 4.14 0 01.399-.522c.107-.116.225-.22.353-.312.101-.07.213-.125.33-.16a1.31 1.31 0 01.33-.04h.169c.067.005.134.015.2.03.069.016.13.034.187.053a.41.41 0 01.117.06c.02.014.036.032.046.054 0 .019 0 .042.021.068a1.2 1.2 0 010 .12c.02.068.02.138.02.23zm4.994 4.924a.173.173 0 01-.021.083.127.127 0 01-.069.055.604.604 0 01-.13.03 1.35 1.35 0 01-.195 0 1.349 1.349 0 01-.199 0 .616.616 0 01-.133-.03.154.154 0 01-.075-.055.161.161 0 01-.023-.083v-.704c-.245.278-.53.515-.847.704-.293.17-.624.26-.962.26a1.96 1.96 0 01-.969-.224 1.855 1.855 0 01-.653-.61 2.745 2.745 0 01-.366-.899 5.069 5.069 0 01-.115-1.091 4.81 4.81 0 01.146-1.225c.081-.336.226-.653.425-.933.181-.252.42-.456.696-.594.301-.142.63-.213.962-.206.289-.003.575.066.831.201.277.157.527.357.742.594v-3.07a.178.178 0 01.021-.078.135.135 0 01.077-.06 1.345 1.345 0 01.373-.049c.079-.001.158.004.236.016a.811.811 0 01.143.034.175.175 0 01.079.06c.015.023.024.05.026.078v7.796zm-.955-3.7a3.77 3.77 0 00-.742-.74 1.288 1.288 0 00-.749-.26 1.037 1.037 0 00-.614.176 1.308 1.308 0 00-.412.462 2.26 2.26 0 00-.231.648c-.047.243-.071.49-.071.738-.001.262.02.523.061.781.034.235.104.463.21.675.091.19.228.352.397.474.182.127.399.19.619.18a1.295 1.295 0 00.724-.23 2.64 2.64 0 00.384-.317c.151-.151.293-.312.424-.482v-2.105zm6.763.834a.413.413 0 01-.113.323.383.383 0 01-.256.096h-3.405a3.32 3.32 0 00.087.782c.051.22.15.427.289.604.141.17.321.303.524.386.253.095.522.14.791.133a3.16 3.16 0 00.658-.06 4.206 4.206 0 00.846-.276.595.595 0 01.205-.06.117.117 0 01.072.02.14.14 0 01.048.06.451.451 0 01.026.115c.003.06.003.118 0 .177a.982.982 0 010 .133.817.817 0 010 .1.247.247 0 01-.031.078.246.246 0 01-.051.067.755.755 0 01-.187.104c-.129.06-.263.109-.401.144a5.345 5.345 0 01-.571.127 4.168 4.168 0 01-.693.055 3.107 3.107 0 01-1.116-.182 2.043 2.043 0 01-.806-.537 2.292 2.292 0 01-.494-.894 4.213 4.213 0 01-.166-1.253 4.007 4.007 0 01.171-1.217 2.59 2.59 0 01.497-.92 2.22 2.22 0 01.783-.578 2.515 2.515 0 011.023-.2c.356-.011.709.056 1.036.197.27.118.511.296.704.521.187.23.325.495.404.782.089.315.133.642.131.97l-.005.203zm-.955-.287a1.774 1.774 0 00-.332-1.193 1.266 1.266 0 00-.463-.337 1.24 1.24 0 00-.561-.096 1.32 1.32 0 00-1.062.493 1.629 1.629 0 00-.278.52c-.065.2-.103.408-.11.618l2.806-.005zm5.065-1.771v.216a.463.463 0 01-.024.139.182.182 0 01-.04.075.097.097 0 01-.072.026.3.3 0 01-.113-.026 2.297 2.297 0 00-.335-.102 1.024 1.024 0 00-.225-.023.713.713 0 00-.281.057 1.1 1.1 0 00-.29.193 2.525 2.525 0 00-.319.357 7.59 7.59 0 00-.366.545v3.468a.152.152 0 01-.023.08.187.187 0 01-.077.055.505.505 0 01-.143.034 1.858 1.858 0 01-.236 0 1.801 1.801 0 01-.23 0 .58.58 0 01-.146-.034.129.129 0 01-.094-.136V31.47a.15.15 0 01.017-.08.15.15 0 01.069-.058.423.423 0 01.131-.036h.425a.366.366 0 01.128.036.186.186 0 01.066.057.163.163 0 01.021.081v.764c.119-.185.252-.359.399-.522.105-.117.224-.222.353-.312a1.16 1.16 0 01.33-.16c.108-.027.219-.041.33-.04h.169c.066.005.132.015.197.03.063.015.125.032.187.053a.37.37 0 01.117.06c.02.014.036.032.046.054a.396.396 0 01.021.068c.007.04.011.08.013.12-.008.068-.005.138-.005.23zm5.856-2.51c.005.06.005.12 0 .18a.968.968 0 01-.025.107.096.096 0 01-.039.055.096.096 0 01-.056.015.255.255 0 01-.103-.026l-.145-.06a1.733 1.733 0 00-.205-.057 1.198 1.198 0 00-.271-.026.836.836 0 00-.361.07.567.567 0 00-.243.22 1.066 1.066 0 00-.131.385c-.03.19-.043.383-.041.576v.573h1.154c.027 0 .054.007.077.02a.166.166 0 01.059.071c.018.04.031.082.038.125a.983.983 0 01.016.188.69.69 0 01-.051.305.156.156 0 01-.139.094h-1.154v4.619a.136.136 0 01-.023.08.178.178 0 01-.076.056.608.608 0 01-.149.033 1.755 1.755 0 01-.227 0 1.855 1.855 0 01-.231 0 .552.552 0 01-.146-.033.183.183 0 01-.079-.055.152.152 0 01-.023-.081v-4.612h-.729a.142.142 0 01-.136-.094.719.719 0 01-.046-.304 1.468 1.468 0 010-.188.537.537 0 01.036-.125c.01-.03.03-.055.056-.07a.16.16 0 01.08-.021h.729v-.553c-.005-.317.03-.634.102-.943a1.63 1.63 0 01.307-.646 1.22 1.22 0 01.512-.37c.236-.085.486-.126.737-.12a1.911 1.911 0 01.683.12.45.45 0 01.138.078.256.256 0 01.059.091.467.467 0 01.031.133.728.728 0 01.015.19zm4.972 4.739c.003.4-.053.8-.167 1.183-.102.342-.271.66-.498.932a2.217 2.217 0 01-.827.613 2.826 2.826 0 01-1.151.219 2.946 2.946 0 01-1.111-.193 2.047 2.047 0 01-.79-.56 2.43 2.43 0 01-.471-.897 4.254 4.254 0 01-.154-1.193c-.004-.4.051-.8.164-1.183.099-.343.267-.66.494-.933a2.21 2.21 0 01.819-.607 2.831 2.831 0 011.154-.216 2.89 2.89 0 011.11.193c.304.12.575.311.791.56.218.26.379.565.473.894.112.385.167.786.164 1.188zm-.983.065a3.842 3.842 0 00-.079-.808 1.97 1.97 0 00-.256-.667 1.286 1.286 0 00-.486-.453 1.82 1.82 0 00-1.492 0 1.337 1.337 0 00-.511.43 1.949 1.949 0 00-.292.656 3.371 3.371 0 00-.097.831c-.001.273.026.546.079.813.043.236.13.46.256.662.122.19.29.346.489.451.238.12.502.177.767.167.25.006.497-.045.724-.151a1.35 1.35 0 00.512-.428c.138-.196.237-.418.292-.654a3.57 3.57 0 00.094-.85zm5.045-2.294v.216a.462.462 0 01-.023.139.24.24 0 01-.041.075.104.104 0 01-.034.02.1.1 0 01-.04.006.298.298 0 01-.11-.026c-.049-.02-.1-.038-.151-.052a1.958 1.958 0 00-.187-.05.991.991 0 00-.222-.023.708.708 0 00-.282.057 1.093 1.093 0 00-.289.193 2.404 2.404 0 00-.32.357 8.3 8.3 0 00-.368.545v3.468a.152.152 0 01-.023.08.162.162 0 01-.074.055.512.512 0 01-.144.034 1.843 1.843 0 01-.235 0 1.839 1.839 0 01-.23 0 .552.552 0 01-.146-.034.132.132 0 01-.072-.05.135.135 0 01-.023-.085V31.47a.162.162 0 01.018-.08.15.15 0 01.069-.058.408.408 0 01.131-.036h.422a.36.36 0 01.13.036.215.215 0 01.067.057.162.162 0 01.018.081v.764a4.56 4.56 0 01.399-.522c.107-.117.226-.221.355-.312.101-.07.211-.124.328-.16a1.31 1.31 0 01.333-.04h.168c.067.005.133.016.197.03.07.016.131.034.187.053a.376.376 0 01.118.06c.02.014.035.032.046.054a.32.32 0 01.02.068.8.8 0 010 .12c.006.068.008.138.008.23zm7.476 4.665a.909.909 0 01-.017.188.415.415 0 01-.047.122.189.189 0 01-.066.068.167.167 0 01-.077.018h-3.881a.142.142 0 01-.074-.018.239.239 0 01-.067-.068.36.36 0 01-.049-.123.788.788 0 01-.017-.187.744.744 0 01.017-.182.5.5 0 01.044-.126.203.203 0 01.061-.075.144.144 0 01.085-.026h1.55v-5.753l-1.435.872a.665.665 0 01-.177.07.115.115 0 01-.055 0 .127.127 0 01-.05-.025.223.223 0 01-.056-.128 1.637 1.637 0 010-.221 1.595 1.595 0 010-.17.586.586 0 01.026-.117.278.278 0 01.048-.08.62.62 0 01.085-.071l1.712-1.118a.218.218 0 01.056-.029l.087-.023a.712.712 0 01.12-.016h.171c.077-.004.154-.004.231 0a.63.63 0 01.143.032.118.118 0 01.069.052c.012.02.018.044.018.068v6.649h1.343c.031 0 .061.009.087.026.028.019.05.045.064.076a.46.46 0 01.041.125c.01.063.013.126.01.19zm7.185-.547c.003.057.003.114 0 .172a.508.508 0 01-.021.122.397.397 0 01-.033.089.5.5 0 01-.092.112c-.08.068-.165.128-.256.18-.124.076-.254.14-.389.192a2.932 2.932 0 01-.468.138c-.169.035-.34.052-.512.053a2.457 2.457 0 01-.988-.188 1.891 1.891 0 01-.721-.547 2.49 2.49 0 01-.44-.884 4.309 4.309 0 01-.154-1.206c-.01-.453.054-.904.187-1.337.105-.338.28-.65.512-.914a2.01 2.01 0 01.767-.521 2.594 2.594 0 011.858-.003c.121.046.238.105.348.175.079.049.152.105.22.17.036.032.068.07.095.111.019.03.034.062.043.097.014.04.021.082.023.125.003.058.003.116 0 .174.009.11-.01.22-.054.32a.146.146 0 01-.125.092.335.335 0 01-.197-.097 3.44 3.44 0 00-.286-.213 2.062 2.062 0 00-.415-.214 1.555 1.555 0 00-.578-.096 1.175 1.175 0 00-.59.122c-.183.09-.34.228-.457.399a2.762 2.762 0 00-.366 1.563c-.004.3.028.6.095.891.053.228.148.444.279.636.115.165.27.297.45.383.193.087.401.13.612.125.197.004.392-.031.575-.104.15-.063.293-.14.428-.232.12-.083.222-.159.304-.227a.35.35 0 01.192-.104.11.11 0 01.069.024c.023.022.04.05.049.08a.59.59 0 01.028.138c.003.058.008.125.008.204zm1.849.808a.136.136 0 01-.023.08.16.16 0 01-.074.055.501.501 0 01-.144.033 1.88 1.88 0 01-.235 0 1.839 1.839 0 01-.23 0 .552.552 0 01-.146-.033.126.126 0 01-.071-.05.13.13 0 01-.024-.086v-7.817a.16.16 0 01.021-.08.144.144 0 01.074-.06.552.552 0 01.146-.034c.076-.005.153-.005.23 0a1.88 1.88 0 01.235 0c.05.004.098.015.144.034.03.01.056.032.074.06a.136.136 0 01.023.08v7.817zm2.456-7.039a.65.65 0 01-.125.464.941.941 0 01-.924 0 .632.632 0 01-.122-.453.646.646 0 01.127-.464.94.94 0 01.922 0c.097.13.141.292.122.453zm-.112 7.035a.152.152 0 01-.023.081.178.178 0 01-.074.055.512.512 0 01-.144.034 1.92 1.92 0 01-.235 0 1.839 1.839 0 01-.23 0 .552.552 0 01-.146-.034.131.131 0 01-.072-.05.135.135 0 01-.023-.086v-5.268c0-.027.007-.054.021-.078a.143.143 0 01.074-.058.545.545 0 01.146-.036c.076-.005.153-.005.23 0a1.96 1.96 0 01.235 0c.05.005.098.017.144.036a.165.165 0 01.074.058c.015.023.023.05.023.078v5.268zm5.117-.804v.172a.457.457 0 01-.056.211.561.561 0 01-.092.112 1.516 1.516 0 01-.243.18c-.123.076-.252.14-.387.192a2.653 2.653 0 01-.992.19 2.444 2.444 0 01-.986-.187 1.845 1.845 0 01-.721-.547 2.494 2.494 0 01-.443-.884 4.271 4.271 0 01-.153-1.206 4.229 4.229 0 01.189-1.337c.105-.338.28-.65.512-.914.213-.232.476-.41.767-.521.304-.117.626-.175.95-.172a2.519 2.519 0 01.908.17c.121.045.238.104.348.174.078.05.152.106.22.17a.75.75 0 01.095.111c.018.03.033.063.043.097.011.04.019.082.023.125v.174a.71.71 0 01-.051.32.15.15 0 01-.052.064.147.147 0 01-.076.028.335.335 0 01-.197-.097 2.871 2.871 0 00-.284-.213 2.027 2.027 0 00-.417-.214 1.553 1.553 0 00-.576-.096 1.18 1.18 0 00-.591.121 1.212 1.212 0 00-.458.4 2.76 2.76 0 00-.363 1.563c-.005.3.027.6.095.891.05.23.144.449.278.641.114.166.27.299.451.383a1.4 1.4 0 00.611.125c.196.005.391-.03.573-.104.15-.063.293-.14.428-.232.12-.083.222-.159.304-.226a.348.348 0 01.192-.105.1.1 0 01.069.024.16.16 0 01.049.08.557.557 0 01.03.139c.002.053.003.12.003.198zm5.148.808a.136.136 0 01-.023.08.17.17 0 01-.077.06.57.57 0 01-.153.034 2.063 2.063 0 01-.256 0 2.326 2.326 0 01-.256 0 .72.72 0 01-.169-.029.27.27 0 01-.112-.057.421.421 0 01-.077-.092l-2.182-2.913v2.916a.145.145 0 01-.024.08.19.19 0 01-.074.056.527.527 0 01-.143.033 1.88 1.88 0 01-.235 0 1.855 1.855 0 01-.231 0 .536.536 0 01-.145-.033.151.151 0 01-.075-.055.135.135 0 01-.02-.08v-7.818a.14.14 0 01.095-.14.536.536 0 01.145-.034 1.78 1.78 0 01.231 0 1.88 1.88 0 01.235 0 .53.53 0 01.143.034c.03.012.056.033.074.06a.145.145 0 01.024.08v4.76l1.952-2.185a.572.572 0 01.097-.1.684.684 0 01.123-.062.734.734 0 01.171-.036h.489a.722.722 0 01.159.03.16.16 0 01.084.053.13.13 0 01.026.083.327.327 0 01-.036.141.816.816 0 01-.126.164l-1.87 1.908 2.101 2.777c.039.05.075.104.107.159a.26.26 0 01.028.125z" fill="#484848"/><path d="M12.312 0v5.97h-6.45v6.568H0V0h12.312zM0 25.479h5.862v6.566h6.45v5.969H0V25.478zm25.02 12.535v-5.97h6.448V25.48h5.862v12.535H25.02zm12.31-25.476h-5.862V5.969H25.02V0h12.31v12.538z" fill="#7421B0"/></svg>