<svg width="888" height="826" fill="none" xmlns="http://www.w3.org/2000/svg"><g filter="url(#filter0_f_23_922)"><path d="M689.527 621.416c.299 25.67-38.827-76.729-65.824-54.412s91.612 22.82 46.419 34.262 24.905 13.563-23.251 10.274c-48.157-3.29-267.838-15.903-302.727-32.816-34.888-16.912-133.722-49.688-143.583-74.523-9.86-24.834 113.466-138.531 131.957-162.917 18.491-24.387 9.396 9.57 406.882-192.073 40.61-15.719 109.151 32.421 158.192 30.669L693.763 482.517l-4.236 138.899z" fill="url(#paint0_linear_23_922)"/></g><g filter="url(#filter1_f_23_922)"><ellipse rx="168.621" ry="102.62" transform="matrix(.99936 -.0357 .01163 .99993 632.899 430.909)" fill="url(#paint1_linear_23_922)"/></g><defs><linearGradient id="paint0_linear_23_922" x1="592.267" y1="248.608" x2="450.343" y2="591.883" gradientUnits="userSpaceOnUse"><stop offset=".035" stop-color="#EBF56D" stop-opacity=".33"/><stop offset="1" stop-color="#F4FF75" stop-opacity=".2"/></linearGradient><linearGradient id="paint1_linear_23_922" x1="322.926" y1="-192.05" x2="52.897" y2="59.841" gradientUnits="userSpaceOnUse"><stop offset=".035" stop-color="#F6FF83"/><stop offset=".844" stop-color="#F4FF64"/></linearGradient><filter id="filter0_f_23_922" x=".001" y="-53.949" width="1097.59" height="879.525" filterUnits="userSpaceOnUse" color-interpolation-filters="sRGB"><feFlood flood-opacity="0" result="BackgroundImageFix"/><feBlend in="SourceGraphic" in2="BackgroundImageFix" result="shape"/><feGaussianBlur stdDeviation="100" result="effect1_foregroundBlur_23_922"/></filter><filter id="filter1_f_23_922" x="264.381" y="128.117" width="737.035" height="605.584" filterUnits="userSpaceOnUse" color-interpolation-filters="sRGB"><feFlood flood-opacity="0" result="BackgroundImageFix"/><feBlend in="SourceGraphic" in2="BackgroundImageFix" result="shape"/><feGaussianBlur stdDeviation="100" result="effect1_foregroundBlur_23_922"/></filter></defs></svg>