<svg width="1440" height="1078" fill="none" xmlns="http://www.w3.org/2000/svg"><g filter="url(#filter0_f_740_1404)"><path d="M1268.18 872.114c.93 36.236-94.14-108.133-158.99-76.502-64.85 31.632 220.85 31.783 112.09 48.149-108.77 16.365 60.09 19.029-55.93 14.612-116.02-4.416-645.27-21.186-729.442-44.896-84.172-23.71-322.5-69.513-346.45-104.525-23.95-35.012 272.19-196.096 316.534-230.609 44.343-34.512 22.709 13.465 978.518-273.063 97.69-22.381 263.17 45.253 381.29 42.549l-488.53 428.185-9.09 196.1z" fill="url(#paint0_linear_740_1404)"/></g><g filter="url(#filter1_f_740_1404)"><ellipse rx="405.959" ry="144.897" transform="rotate(-1.312 26919.92 -49060.972) skewX(.152)" fill="url(#paint1_linear_740_1404)"/></g><defs><linearGradient id="paint0_linear_740_1404" x1="1030.91" y1="346.29" x2="902.312" y2="882.074" gradientUnits="userSpaceOnUse"><stop offset=".035" stop-color="#EBF56D" stop-opacity=".33"/><stop offset="1" stop-color="#F4FF75" stop-opacity=".2"/></linearGradient><linearGradient id="paint1_linear_740_1404" x1="777.452" y1="-271.171" x2="433.012" y2="276.671" gradientUnits="userSpaceOnUse"><stop offset=".035" stop-color="#F6FF83"/><stop offset=".844" stop-color="#F4FF64"/></linearGradient><filter id="filter0_f_740_1404" x="-111.918" y=".731" width="2077.71" height="1077.26" filterUnits="userSpaceOnUse" color-interpolation-filters="sRGB"><feFlood flood-opacity="0" result="BackgroundImageFix"/><feBlend in="SourceGraphic" in2="BackgroundImageFix" result="shape"/><feGaussianBlur stdDeviation="100" result="effect1_foregroundBlur_740_1404"/></filter><filter id="filter1_f_740_1404" x="524.377" y="258.296" width="1211.74" height="690.305" filterUnits="userSpaceOnUse" color-interpolation-filters="sRGB"><feFlood flood-opacity="0" result="BackgroundImageFix"/><feBlend in="SourceGraphic" in2="BackgroundImageFix" result="shape"/><feGaussianBlur stdDeviation="100" result="effect1_foregroundBlur_740_1404"/></filter></defs></svg>