<svg width="1440" height="1167" fill="none" xmlns="http://www.w3.org/2000/svg"><g filter="url(#filter0_f_848_2273)"><path d="M1352.3 1183.28c1.05 40.93-106.33-122.13-179.57-86.4-73.25 35.72 249.45 35.89 126.6 54.38-122.85 18.48 67.88 21.49-63.17 16.5-131.04-4.99-728.823-23.93-823.894-50.71-95.07-26.78-364.259-78.51-391.31-118.057-27.052-39.545 307.435-221.487 357.52-260.469 50.086-38.981 10.709-212.66 1090.284-536.29 110.34-25.279 312.19 278.983 445.59 275.928l-551.78 483.629-10.27 221.489z" fill="url(#paint0_linear_848_2273)"/></g><defs><linearGradient id="paint0_linear_848_2273" x1="1084.31" y1="589.368" x2="939.062" y2="1194.53" gradientUnits="userSpaceOnUse"><stop offset=".035" stop-color="#EBF56D" stop-opacity=".33"/><stop offset="1" stop-color="#F4FF75" stop-opacity=".2"/></linearGradient><filter id="filter0_f_848_2273" x="-180.598" y=".741" width="2294.95" height="1389.18" filterUnits="userSpaceOnUse" color-interpolation-filters="sRGB"><feFlood flood-opacity="0" result="BackgroundImageFix"/><feBlend in="SourceGraphic" in2="BackgroundImageFix" result="shape"/><feGaussianBlur stdDeviation="100" result="effect1_foregroundBlur_848_2273"/></filter></defs></svg>