<svg width="66" height="16" fill="none" xmlns="http://www.w3.org/2000/svg"><path d="M10.676 1.035v11.697a24.157 24.157 0 00-.756-2.016L5.51 1.035H.218V15h3.066V3.324c.21.714.483 1.428.798 2.142L8.45 15h5.292V1.035h-3.066zM21.28 13.194c-1.491 0-2.478-.651-2.667-2.646h8.001c.042-.231.042-.525.042-.84 0-2.961-1.47-5.544-5.439-5.544-3.885 0-5.649 2.52-5.649 5.565 0 2.961 1.554 5.607 5.649 5.607 3.78 0 5.124-1.827 5.418-3.507h-2.982c-.294.777-1.008 1.365-2.373 1.365zm-.021-6.93c1.554 0 2.331.798 2.436 2.394h-5.061c.252-1.785 1.134-2.394 2.625-2.394zm12.472 9.072c4.2 0 5.817-2.688 5.817-5.607 0-2.877-1.617-5.565-5.817-5.565-4.18 0-5.817 2.667-5.817 5.565 0 2.94 1.638 5.607 5.817 5.607zM31.043 9.75c0-2.331.798-3.15 2.688-3.15 1.91 0 2.709.819 2.709 3.15s-.798 3.15-2.71 3.15c-1.89 0-2.687-.819-2.687-3.15zm11.2 5.25h3.108V6.852h2.394V4.5H44.91V2.547h7.266V.3h-6.342c-2.604 0-3.59 1.218-3.59 3.297v.882l-1.87.882v1.491h1.87V15zm6.846 0h3.108V4.5H49.09V15zM61.472 4.164c-1.91 0-3.108.966-3.78 2.394V4.5h-3.108V15h3.108v-4.767c0-2.499.924-3.549 2.583-3.549 1.281 0 1.995.672 1.995 2.352V15h3.108V8.553c0-2.751-1.155-4.389-3.906-4.389z" fill="#000"/></svg>