<svg width="163" height="30" fill="none" xmlns="http://www.w3.org/2000/svg"><path d="M20.866 1.466v23.338a48.235 48.235 0 00-1.508-4.022l-8.8-19.316H0V29.33h6.117V6.034c.42 1.424.964 2.849 1.592 4.273l8.715 19.023h10.56V1.466h-6.118zm21.157 24.26c-2.975 0-4.944-1.299-5.321-5.28h15.963c.084-.46.084-1.047.084-1.675 0-5.908-2.933-11.062-10.852-11.062-7.751 0-11.27 5.028-11.27 11.104 0 5.908 3.1 11.187 11.27 11.187 7.542 0 10.224-3.645 10.81-6.997h-5.95c-.586 1.55-2.01 2.723-4.734 2.723zM41.981 11.9c3.1 0 4.65 1.593 4.86 4.777H36.744c.502-3.561 2.262-4.777 5.237-4.777zM66.865 30c8.38 0 11.606-5.363 11.606-11.187 0-5.74-3.227-11.103-11.606-11.103-8.338 0-11.606 5.32-11.606 11.103C55.259 24.679 58.527 30 66.865 30zm-5.363-11.145c0-4.651 1.592-6.285 5.363-6.285 3.813 0 5.405 1.634 5.405 6.285 0 4.65-1.593 6.285-5.405 6.285-3.771 0-5.363-1.634-5.363-6.285zM83.849 29.33h6.2V13.073h4.777V8.38H89.17V4.483h14.497V0H91.013c-5.195 0-7.164 2.43-7.164 6.578v1.76l-3.73 1.76v2.975h3.73V29.33zm13.659 0h6.201V8.38h-6.201v20.95zm24.707-21.62c-3.813 0-6.202 1.927-7.542 4.776V8.38h-6.201v20.95h6.201v-9.512c0-4.986 1.843-7.08 5.153-7.08 2.556 0 3.981 1.34 3.981 4.692v11.9h6.201V16.467c0-5.49-2.305-8.757-7.793-8.757zm38.544-4.706c-.951-.034-2.186.136-3.605.473-2.846.675-6.538 2.042-10.41 3.938-3.872 1.896-7.215 3.975-9.492 5.812-1.135.916-2.026 1.788-2.582 2.561-.278.386-.487.769-.593 1.137-.107.37-.116.76.057 1.113.173.354.485.586.843.73.355.141.785.21 1.26.228.951.034 2.185-.136 3.604-.472 2.579-.61 5.853-1.792 9.327-3.42l-.617 1.581.88.345 1.223-3.135-3.13-1.224-.344.881 1.672.654c-3.463 1.63-6.708 2.8-9.229 3.397-1.383.328-2.523.477-3.352.447-.415-.015-.726-.075-.943-.162-.214-.085-.305-.184-.345-.265-.04-.082-.061-.215.002-.436.065-.226.209-.508.452-.846.485-.674 1.301-1.484 2.408-2.377 2.207-1.78 5.486-3.825 9.314-5.699 3.828-1.874 7.453-3.213 10.213-3.867 1.383-.328 2.524-.478 3.353-.448.416.015.727.074.945.161.214.086.306.184.346.266.072.148.073.47-.305 1.062-.325.509-.866 1.113-1.609 1.786a4.884 4.884 0 00-3.69-1.679 4.904 4.904 0 00-4.9 4.907 4.904 4.904 0 004.9 4.908 4.903 4.903 0 004.899-4.908A4.89 4.89 0 00160.656 8c.814-.73 1.451-1.423 1.851-2.05.411-.644.664-1.365.357-1.99-.173-.354-.485-.585-.844-.728-.355-.142-.785-.21-1.261-.228z" fill="#000"/></svg>