<svg width="116" height="81" fill="none" xmlns="http://www.w3.org/2000/svg"><g clip-path="url(#clip0_511_290)" fill="#fff"><path fill-rule="evenodd" clip-rule="evenodd" d="M55.167 0a31.342 31.342 0 0117.775 5.536c5.255 3.612 9.337 8.744 11.726 14.74A33.254 33.254 0 0186.354 39.2c-1.29 6.339-4.399 12.14-8.93 16.664-4.846-4.351-11.424-6.586-18.01-6.465-1.318-5.718-1.613-10.15-2.259-12.487-.546-1.975-1.239-3.28-1.78-3.934 4.647-1.277 8.558.92 11.582 7.307.597-7.724-4.442-12.615-11.412-8.794.782-1.901 2.764-3.181 4.746-3.871 2.024-.703 4.675-1.312 7.15-.289-5.367-3.968-9.878-3.294-12.625 3.541.752-8.393-7.375-8.56-10.996-6.942 4.187 1.09 7.934 2.817 9.863 7.144-7.658-6.748-14.964-1.12-15.336 5.403 3.652-3.703 7.617-6.911 15.269-4.294-9.184.352-10.258 9.442-5.96 14.197-1.992-6.588 1.282-12.227 6.434-13.192 2.38 3.485 3.334 9.764 3.319 16.331-7.22.659-14.236 4.197-18.765 10.916-5.941-3.689-10.54-9.264-13.093-15.875a33.268 33.268 0 01-1.05-20.741c1.871-6.846 5.882-12.877 11.42-17.174C41.456 2.348 48.216.022 55.166.021"/><path d="M114.638 74.716H116v1.455h-4.398v-1.455h1.321v-13.15h-1.321V60.11h3.036v14.606zm-19.944-8.707v1.455h-1.026l2.093 7.798 2.136-7.798h-1.026V66.01h3.875v1.455H99.49l-2.534 9.253H94.63l-2.554-9.253H90.84V66.01h3.854zm-25.722-3.898v3.898h1.688v1.542h-1.698v7.71h1.99v1.448h-1.76c-.628 0-1.096-.168-1.402-.503-.308-.333-.462-.91-.462-1.723V67.55H65.79v-1.542h1.538V62.11h1.644zm-20.813 3.897c1.09 0 1.635.55 1.633 1.65v1.907h-1.7v-1.411c.051-.598-.187-.732-.613-.732H44.83v7.837h1.026v1.45h-4.042v-1.456h1.318v-7.81h-1.318v-1.456c2.118 0 4.227.021 6.345.021zM23.901 68.11c0-1.415.719-2.123 2.157-2.123h3.539c.684 0 1.18.136 1.487.407.306.262.46.77.46 1.5v4.619h-5.968v2.759h3.68c.487 0 .682-.236.633-.643v-.598h1.654v1.133c.01.405-.128.798-.387 1.104-.256.307-.687.46-1.282.46h-4.298c-.6 0-1.028-.154-1.282-.46a1.654 1.654 0 01-.388-1.104l-.005-7.055zm1.675 2.863l4.293-.016V67.85c0-.278-.18-.383-.585-.383h-3.016c-.513-.041-.71.237-.692.738v2.77zm-10.774 5.744v-1.476l5.801-7.777h-4.252v1.522h-1.446v-2.977h7.519v1.521l-5.76 7.732h4.462v-1.48h1.465v2.935h-7.789zm45.241-1.456v1.448h-7.286c-.713 0-1.195-.142-1.447-.427-.224-.257-.335-.743-.333-1.456v-.787c0-.524.064-2.754.187-2.94.132-.208.317-.376.534-.485.218-.11.46-.157.702-.136h4.617v-3.011h-4.565v1.24H51.11v-1.951a.68.68 0 01.183-.556.648.648 0 01.542-.192h4.975c.712 0 1.21.158 1.498.473.309.384.462.875.428 1.371v7.41h1.306zm-3.037-3.427c-1.249.02-2.495 0-3.744.023-.444-.018-.61.244-.61.68v2.098c-.02.432.2.618.595.629h3.76v-3.43zM2.188 62.07a.962.962 0 01.743.33c.197.212.306.494.303.787a1.106 1.106 0 01-.29.8 1.06 1.06 0 01-.768.336 1.04 1.04 0 01-.767-.336 1.087 1.087 0 01-.29-.8 1.124 1.124 0 01.315-.787 1.008 1.008 0 01.754-.33zm1.054 17.09c.033.496-.12.986-.429 1.37-.287.316-.786.473-1.497.473H0v-1.48h.81c.454-.065.77-.262.713-.765V67.48H.205v-1.47h3.037v13.15zm29.612-11.05c0-1.415.719-2.123 2.157-2.123h3.538c.684 0 1.18.136 1.488.407.305.262.459.77.459 1.5v4.619h-5.968v2.759h3.678c.49 0 .685-.236.636-.643v-.598h1.654v1.133a1.65 1.65 0 01-.387 1.104c-.257.307-.688.46-1.282.46h-4.299c-.6 0-1.025-.153-1.282-.46a1.654 1.654 0 01-.387-1.104l-.005-7.055zm1.674 2.863l4.293-.016V67.85c0-.278-.18-.383-.587-.383h-3.013c-.513-.041-.71.237-.693.738v2.77zm-21.034 4.289v1.447H6.206c-.713 0-1.198-.14-1.454-.42-.224-.256-.335-.742-.333-1.455v-.787c0-.524.064-2.754.187-2.94.132-.208.316-.376.534-.485.218-.11.46-.157.702-.136h4.616v-3.02H5.891v1.241H4.549v-1.95a.68.68 0 01.181-.552.651.651 0 01.535-.196h4.972c.712 0 1.21.157 1.498.472.309.384.462.875.428 1.371v7.41h1.331zm-3.039-3.428c-1.246.02-2.495 0-3.744.023-.443-.018-.61.244-.61.68v2.098c-.02.432.2.619.595.63h3.76v-3.431zm68.155-5.826c1.087 0 1.632.55 1.633 1.65v1.907h-1.697v-1.411c.048-.598-.188-.732-.613-.732h-2.657v7.837h1.026v1.45H72.27v-1.456h1.32v-7.81h-1.32v-1.456c2.118 0 4.226.021 6.347.021m11.884 9.253v1.448h-7.275c-.71 0-1.191-.142-1.444-.427-.224-.257-.336-.743-.336-1.456v-.787c0-.524.064-2.754.19-2.94.13-.209.315-.377.532-.486a1.3 1.3 0 01.701-.135h4.616v-3.011h-4.588v1.24H81.56v-1.951a.68.68 0 01.183-.556.65.65 0 01.542-.192h4.97c.713 0 1.213.158 1.498.473.31.383.465.874.431 1.371v7.41h1.318zm-3.036-3.427c-1.25.02-2.498 0-3.747.023-.441-.018-.608.244-.61.68v2.098c-.018.432.202.618.595.629h3.762v-3.43zm15.187-4.249c0-1.411.719-2.117 2.157-2.12h3.549c.684 0 1.179.136 1.487.407.305.263.459.771.459 1.5v4.617h-5.967v2.759h3.677c.49 0 .685-.236.636-.643v-.6h1.654v1.135c.009.404-.129.798-.387 1.104-.26.308-.687.461-1.282.46h-4.309c-.6 0-1.025-.153-1.282-.46a1.658 1.658 0 01-.387-1.104l-.005-7.055zm1.674 2.867l4.293-.016v-3.108c0-.278-.179-.386-.587-.386h-3.008c-.513-.039-.71.24-.692.74l-.006 2.77z"/></g><defs><clipPath id="clip0_511_290"><path fill="#fff" d="M0 0h116v81H0z"/></clipPath></defs></svg>