<svg width="89" height="61" fill="none" xmlns="http://www.w3.org/2000/svg"><g clip-path="url(#clip0_457_3)" fill="#E31E24"><path fill-rule="evenodd" clip-rule="evenodd" d="M42.327 0a24.364 24.364 0 0113.637 4.17 24.504 24.504 0 018.997 11.1 24.61 24.61 0 011.293 14.25 24.55 24.55 0 01-6.85 12.55c-3.72-3.276-8.766-4.96-13.819-4.868-1.011-4.306-1.238-7.644-1.733-9.404-.42-1.487-.95-2.47-1.366-2.963 3.566-.962 6.566.694 8.886 5.503.458-5.817-3.408-9.5-8.756-6.623.6-1.432 2.121-2.395 3.642-2.915 1.552-.53 3.587-.987 5.486-.217-4.118-2.988-7.58-2.48-9.687 2.666.577-6.32-5.659-6.447-8.437-5.228 3.213.822 6.088 2.121 7.568 5.38-5.876-5.082-11.481-.843-11.767 4.07 2.802-2.79 5.844-5.205 11.715-3.234-7.046.265-7.87 7.11-4.572 10.691-1.53-4.961.984-9.208 4.936-9.935 1.826 2.625 2.558 7.354 2.547 12.3-5.54.495-10.923 3.16-14.397 8.22a24.506 24.506 0 01-10.046-11.956 24.618 24.618 0 01-.806-15.62A24.533 24.533 0 0127.56 5.005 24.375 24.375 0 0142.326.016"/><path d="M87.955 56.268H89v1.096h-3.374v-1.096h1.013v-9.904h-1.013v-1.096h2.33v11zM72.653 49.71v1.096h-.787l1.606 5.873 1.639-5.873h-.787V49.71h2.973v1.096h-.964l-1.944 6.969h-1.785l-1.96-6.969h-.948V49.71h2.957zm-19.735-2.935v2.935h1.295v1.162H52.91v5.806h1.527v1.09h-1.35c-.482 0-.84-.126-1.076-.379-.236-.25-.354-.685-.354-1.297v-5.22h-1.18V49.71h1.18v-2.935h1.261zM36.95 49.71c.836 0 1.254.414 1.253 1.242v1.436h-1.305v-1.062c.04-.45-.143-.551-.47-.551h-2.033v5.901h.787v1.093h-3.1v-1.096h1.01V50.79h-1.01v-1.096c1.625 0 3.242.016 4.867.016zm-18.612 1.582c0-1.065.552-1.598 1.655-1.598h2.715c.525 0 .905.102 1.141.306.234.198.352.581.352 1.13v3.478h-4.578v2.078h2.823c.374 0 .524-.178.486-.484v-.45h1.27v.853c.006.305-.1.601-.298.832-.197.231-.527.346-.983.346h-3.298c-.46 0-.789-.116-.984-.346a1.232 1.232 0 01-.297-.832l-.004-5.313zm1.285 2.157l3.293-.012v-2.34c0-.21-.137-.289-.448-.289h-2.314c-.393-.031-.545.178-.531.555v2.086zm-8.266 4.326v-1.112l4.45-5.857h-3.262v1.146h-1.11V49.71h5.77v1.146l-4.42 5.822h3.424v-1.113h1.123v2.21h-5.975zm34.71-1.097v1.09h-5.59c-.547 0-.917-.107-1.11-.321-.171-.194-.256-.56-.255-1.097v-.592c0-.395.049-2.074.143-2.214a1.03 1.03 0 01.949-.468h3.541v-2.268h-3.502v.934h-1.029v-1.469a.504.504 0 01.332-.54.497.497 0 01.225-.023h3.817c.546 0 .929.119 1.15.356.236.29.354.659.328 1.033v5.58h1.001zm-2.33-2.581c-.958.016-1.914 0-2.872.018-.34-.014-.468.183-.468.511v1.58c-.016.326.153.466.456.474h2.885v-2.583zM1.678 46.743a.75.75 0 01.57.25.841.841 0 01.233.592.819.819 0 01-.491.79.81.81 0 01-1.132-.79.832.832 0 01.242-.593.773.773 0 01.578-.248zm.809 12.871c.026.373-.092.743-.329 1.033-.22.236-.603.355-1.149.355H0v-1.114h.622c.348-.05.59-.197.547-.577v-8.493H.157V49.71h2.33v9.904zm22.72-8.322c0-1.065.551-1.598 1.654-1.598h2.716c.524 0 .905.102 1.141.306.234.198.352.581.352 1.13v3.478h-4.578v2.078h2.821c.376 0 .526-.178.488-.484v-.45h1.27v.853c.006.305-.1.601-.298.832-.197.231-.527.346-.984.346h-3.297c-.46 0-.787-.115-.984-.346a1.232 1.232 0 01-.297-.832l-.004-5.313zm1.285 2.157l3.293-.012v-2.34c0-.21-.137-.289-.45-.289h-2.312c-.394-.031-.545.178-.531.555v2.086zm-16.138 3.229v1.09H4.762c-.547 0-.92-.105-1.116-.315-.172-.194-.257-.56-.256-1.097v-.592c0-.395.05-2.074.144-2.214a1.03 1.03 0 01.948-.468h3.542v-2.274H4.52v.934H3.49v-1.469a.503.503 0 01.55-.563h3.815c.545 0 .928.119 1.149.356.237.29.354.659.328 1.033v5.58h1.021zm-2.332-2.581c-.956.016-1.915 0-2.873.018-.34-.014-.468.183-.468.511v1.58c-.016.326.153.466.456.474h2.885v-2.583zm52.291-4.387c.834 0 1.252.414 1.253 1.242v1.436h-1.303v-1.062c.038-.45-.143-.551-.47-.551h-2.038v5.901h.787v1.093h-3.093v-1.096h1.013V50.79h-1.013v-1.096c1.625 0 3.242.016 4.87.016m9.117 6.968v1.09h-5.582c-.544 0-.913-.107-1.108-.321-.171-.194-.257-.56-.257-1.097v-.592c0-.395.049-2.074.145-2.214a1.023 1.023 0 01.947-.468h3.541v-2.268h-3.52v.934h-1.027v-1.469a.504.504 0 01.332-.54.497.497 0 01.225-.023h3.813c.547 0 .93.119 1.15.356.238.288.356.658.33 1.033v5.58h1.011zm-2.33-2.581c-.958.016-1.916 0-2.874.018-.338-.014-.466.183-.468.511v1.58c-.014.326.155.466.456.474h2.887v-2.583zm11.653-3.2c0-1.062.551-1.594 1.654-1.596h2.724c.524 0 .905.102 1.14.306.235.198.353.581.353 1.13v3.476h-4.58v2.078h2.822c.376 0 .525-.177.488-.484v-.452h1.269v.855c.007.305-.099.601-.297.832-.2.232-.528.347-.984.346h-3.306c-.46 0-.787-.115-.983-.346a1.231 1.231 0 01-.297-.832l-.004-5.313zm1.284 2.159l3.294-.012v-2.34c0-.21-.138-.29-.45-.29h-2.308c-.394-.03-.545.179-.532.556l-.004 2.086z"/></g><defs><clipPath id="clip0_457_3"><path fill="#fff" d="M0 0h89v61H0z"/></clipPath></defs></svg>