<svg width="39" height="36" fill="none" xmlns="http://www.w3.org/2000/svg"><g clip-path="url(#clip0_457_254)"><path fill-rule="evenodd" clip-rule="evenodd" d="M19.362 0a19.626 19.626 0 0110.854 3.263 19.245 19.245 0 017.161 8.687 18.96 18.96 0 011.03 11.153 19.123 19.123 0 01-5.453 9.822c-2.96-2.565-6.977-3.882-10.999-3.81-.805-3.37-.985-5.983-1.38-7.36-.333-1.164-.756-1.934-1.086-2.319 2.837-.752 5.226.543 7.072 4.307.365-4.552-2.712-7.435-6.969-5.183.478-1.12 1.688-1.875 2.899-2.282 1.236-.414 2.855-.772 4.366-.17-3.278-2.338-6.032-1.941-7.71 2.087.46-4.946-4.503-5.045-6.715-4.091 2.558.643 4.846 1.66 6.023 4.21-4.676-3.977-9.138-.66-9.365 3.184 2.23-2.182 4.652-4.073 9.325-2.53-5.608.207-6.265 5.565-3.64 8.367-1.217-3.883.783-7.206 3.93-7.775 1.453 2.054 2.035 5.755 2.026 9.625-4.409.388-8.693 2.474-11.459 6.434a19.263 19.263 0 01-7.996-9.357 18.963 18.963 0 01-.641-12.224A19.19 19.19 0 017.608 3.916 19.616 19.616 0 0119.362.012" fill="#E31E24"/></g><defs><clipPath id="clip0_457_254"><path fill="#fff" d="M0 0h39v36H0z"/></clipPath></defs></svg>