<svg width="28" height="28" fill="none" xmlns="http://www.w3.org/2000/svg"><path d="M22.222 17.173c-.895-.193-1.604.223-2.231.586-.643.374-1.864 1.365-2.564 1.111-3.586-1.476-6.958-4.614-8.417-8.213-.258-.715.729-1.945 1.1-2.595.36-.63.768-1.344.582-2.247-.168-.81-2.339-3.573-3.106-4.328C7.08.987 6.56.713 6.028.669 4.027.583 1.791 3.254 1.4 3.893c-.982 1.362-.977 3.175.017 5.374C3.809 15.17 12.863 24.082 18.79 26.566c1.094.511 2.094.768 2.992.768.88 0 1.662-.246 2.335-.732.507-.293 3.288-2.64 3.215-4.695-.044-.524-.318-1.047-.81-1.555-.75-.775-3.495-3.01-4.3-3.18z" fill="#fff"/></svg>