<?xml version="1.0" encoding="utf-8"?><svg viewBox="0 0 107 91" xmlns="http://www.w3.org/2000/svg" xmlns:xlink="http://www.w3.org/1999/xlink"><style>:root>svg{display:none}:root>svg:target{display:block}</style><svg fill="none" viewBox="0 0 9 15" id="Arrow" xmlns="http://www.w3.org/2000/svg"><path d="M8.244 8.13a.928.928 0 000-1.312L2.337.912a.928.928 0 00-1.312 1.312l5.25 5.25-5.25 5.25a.928.928 0 101.312 1.313l5.907-5.906zm-1.894.273h1.238V6.546H6.35v1.857z" fill="#fff"/></svg><svg viewBox="0 0 28 28" id="Call" xmlns="http://www.w3.org/2000/svg"><path d="M22.222 17.173c-.895-.193-1.604.223-2.231.586-.643.374-1.864 1.365-2.564 1.111-3.586-1.476-6.958-4.614-8.417-8.213-.258-.715.729-1.945 1.1-2.595.36-.63.768-1.344.582-2.247-.168-.81-2.339-3.573-3.106-4.328C7.08.987 6.56.713 6.028.669 4.027.583 1.791 3.254 1.4 3.893c-.982 1.362-.977 3.175.017 5.374C3.809 15.17 12.863 24.082 18.79 26.566c1.094.511 2.094.768 2.992.768.88 0 1.662-.246 2.335-.732.507-.293 3.288-2.64 3.215-4.695-.044-.524-.318-1.047-.81-1.555-.75-.775-3.495-3.01-4.3-3.18z" fill="inherit"/></svg><svg viewBox="0 0 22 14" id="link-arrow" xmlns="http://www.w3.org/2000/svg"><path d="M14.293 1.707A1 1 0 0115.707.293l6 6a1 1 0 010 1.414l-6 6a1 1 0 01-1.414-1.414L18.586 8H1.011A1.006 1.006 0 010 7c0-.552.453-1 1.011-1h17.575l-4.293-4.293z" fill="inherit"/></svg><svg fill="none" viewBox="0 0 107 91" id="quotes" xmlns="http://www.w3.org/2000/svg"><path fill-rule="evenodd" clip-rule="evenodd" d="M.468 76.84c15.906-7.868 23.86-17.111 23.86-27.732-6.78-.786-12.387-3.572-16.82-8.358C3.077 35.964.86 30.424.86 24.13c0-6.686 2.151-12.324 6.454-16.913C11.616 2.627 17.026.333 23.545.333c7.301 0 13.624 2.983 18.97 8.949 5.346 5.966 8.018 13.21 8.018 21.733C50.533 56.582 36.323 76.576 7.9 91L.468 76.84zm56.134 0c16.036-7.868 24.055-17.111 24.055-27.732-6.91-.786-12.582-3.572-17.015-8.358-4.433-4.786-6.65-10.326-6.65-16.62 0-6.686 2.185-12.324 6.552-16.913 4.368-4.59 9.811-6.884 16.33-6.884 7.302 0 13.592 2.983 18.873 8.949 5.28 5.966 7.92 13.21 7.92 21.733 0 25.567-14.146 45.562-42.438 59.985l-7.627-14.16z" fill="#37F"/></svg></svg>