<?xml version="1.0" encoding="utf-8"?><svg viewBox="0 0 107 91" xmlns="http://www.w3.org/2000/svg" xmlns:xlink="http://www.w3.org/1999/xlink"><style>:root>svg{display:none}:root>svg:target{display:block}</style><svg viewBox="0 0 22 14" id="link-arrow" xmlns="http://www.w3.org/2000/svg"><path d="M14.293 1.707A1 1 0 0115.707.293l6 6a1 1 0 010 1.414l-6 6a1 1 0 01-1.414-1.414L18.586 8H1.011A1.006 1.006 0 010 7c0-.552.453-1 1.011-1h17.575l-4.293-4.293z" fill="inherit"/></svg><svg fill="none" viewBox="0 0 107 91" id="quotes" xmlns="http://www.w3.org/2000/svg"><path fill-rule="evenodd" clip-rule="evenodd" d="M.468 76.84c15.906-7.868 23.86-17.111 23.86-27.732-6.78-.786-12.387-3.572-16.82-8.358C3.077 35.964.86 30.424.86 24.13c0-6.686 2.151-12.324 6.454-16.913C11.616 2.627 17.026.333 23.545.333c7.301 0 13.624 2.983 18.97 8.949 5.346 5.966 8.018 13.21 8.018 21.733C50.533 56.582 36.323 76.576 7.9 91L.468 76.84zm56.134 0c16.036-7.868 24.055-17.111 24.055-27.732-6.91-.786-12.582-3.572-17.015-8.358-4.433-4.786-6.65-10.326-6.65-16.62 0-6.686 2.185-12.324 6.552-16.913 4.368-4.59 9.811-6.884 16.33-6.884 7.302 0 13.592 2.983 18.873 8.949 5.28 5.966 7.92 13.21 7.92 21.733 0 25.567-14.146 45.562-42.438 59.985l-7.627-14.16z" fill="#37F"/></svg></svg>