<svg width="24" height="28" fill="none" xmlns="http://www.w3.org/2000/svg"><path fill-rule="evenodd" clip-rule="evenodd" d="M.667 11.757C.667 5.624 5.792.667 11.99.667c6.217 0 11.342 4.957 11.342 11.09 0 3.09-1.124 5.96-2.974 8.392a29.423 29.423 0 01-7.388 6.855c-.648.423-1.233.455-1.944 0a28.855 28.855 0 01-7.386-6.855C1.788 17.717.666 14.848.666 11.757zm7.592.346c0 2.054 1.676 3.67 3.732 3.67 2.057 0 3.75-1.616 3.75-3.67 0-2.039-1.693-3.734-3.75-3.734-2.056 0-3.732 1.695-3.732 3.734z" fill="#fff"/></svg>