<svg width="20" height="19" fill="none" xmlns="http://www.w3.org/2000/svg"><path d="M1.75 3.25a1.519 1.519 0 00-1.5 1.5v12a1.519 1.519 0 001.5 1.5h16.5a1.519 1.519 0 001.5-1.5v-12a1.519 1.519 0 00-1.5-1.5h-2.719l-1.078-2.18a1.451 1.451 0 00-.55-.597 1.474 1.474 0 00-.786-.223H6.882a1.41 1.41 0 00-.773.223 1.661 1.661 0 00-.563.598L4.468 3.25H1.749h.001zM10 13.445a2.69 2.69 0 001.348-.351c.414-.235.742-.567.984-.996.243-.43.364-.879.363-1.348a2.71 2.71 0 00-.363-1.348 2.559 2.559 0 00-.984-.996A2.694 2.694 0 0010 8.055c-.765.015-1.402.277-1.91.785s-.77 1.145-.785 1.91c.015.765.277 1.402.785 1.91s1.145.77 1.91.785zm0 3.305c-1.703-.047-3.117-.633-4.242-1.758S4.047 12.453 4 10.75c.047-1.703.633-3.117 1.758-4.242S8.297 4.797 10 4.75c1.703.047 3.117.633 4.242 1.758S15.953 9.047 16 10.75c-.047 1.703-.633 3.117-1.758 4.242S11.703 16.703 10 16.75z" fill="#fff"/></svg>