<?xml version="1.0" encoding="utf-8"?><svg viewBox="0 0 21 23" xmlns="http://www.w3.org/2000/svg" xmlns:xlink="http://www.w3.org/1999/xlink"><style>:root>svg{display:none}:root>svg:target{display:block}</style><svg fill="inherit" viewBox="0 0 11 8" id="arrow" xmlns="http://www.w3.org/2000/svg"><path d="M1 1.257l3.642 5.052a1 1 0 001.652-.044L10 .5" stroke="inherit" stroke-linecap="round"/></svg><svg fill="inherit" viewBox="0 0 21 15" id="arrow-slide" xmlns="http://www.w3.org/2000/svg"><path d="M.293 6.793a1 1 0 000 1.414l6.364 6.364a1 1 0 001.414-1.414L2.414 7.5l5.657-5.657A1 1 0 006.657.43L.293 6.793zM21 6.5H11v2h10v-2zm-10 0H1v2h10v-2z"/></svg><svg fill="inherit" viewBox="0 0 16 23" id="user" xmlns="http://www.w3.org/2000/svg"><g clip-path="url(#cclip0_457_28)"><path d="M12.992 12.546c.796 0 1.559.33 2.121.918a3.21 3.21 0 01.879 2.218l-.002 1.564c.206 3.84-2.624 5.756-7.87 5.756C2.892 23 0 21.112 0 17.302v-1.62c0-.832.316-1.63.879-2.218A2.935 2.935 0 013 12.546h9.992zm0 2.09H3c-.265 0-.52.11-.707.307a1.07 1.07 0 00-.293.739v1.62c0 2.394 1.856 3.607 6.12 3.607 4.248 0 6-1.185 5.872-3.607v-1.62a1.07 1.07 0 00-.293-.74.978.978 0 00-.707-.306zM8 0c1.326 0 2.598.55 3.536 1.531A5.35 5.35 0 0113 5.227a5.35 5.35 0 01-1.464 3.697A4.892 4.892 0 018 10.454a4.892 4.892 0 01-3.536-1.53A5.35 5.35 0 013 5.227a5.35 5.35 0 011.464-3.696A4.892 4.892 0 018 0zm0 2.09c-.796 0-1.559.331-2.121.92A3.21 3.21 0 005 5.227c0 .832.316 1.63.879 2.218A2.935 2.935 0 008 8.364c.796 0 1.559-.33 2.121-.919A3.21 3.21 0 0011 5.227a3.21 3.21 0 00-.879-2.217A2.935 2.935 0 008 2.09z"/></g><defs><clipPath id="cclip0_457_28"><path fill="#fff" d="M0 0h16v23H0z"/></clipPath></defs></svg></svg>