<svg width="23" height="23" fill="none" xmlns="http://www.w3.org/2000/svg"><g clip-path="url(#clip0)"><path d="M21.71 7.726h-2.325l-3.234-6.11a.675.675 0 10-1.194.632l2.9 5.478H5.139l2.9-5.478a.676.676 0 00-1.194-.632L3.61 7.726H1.29c-.711 0-1.29.58-1.29 1.29v1.501c0 .682.531 1.241 1.201 1.287l2.267 9.422a.675.675 0 00.656.517h14.747a.675.675 0 00.657-.517l2.271-9.422A1.292 1.292 0 0023 10.517v-1.5c0-.712-.579-1.29-1.29-1.29zM1.35 9.077h20.298v1.38H1.351v-1.38zm18.186 6.345H16.58l.451-3.615h3.378l-.872 3.615zm-7.36 4.97v-3.619h2.873l-.452 3.62h-2.422zm-3.773 0l-.452-3.619h2.873v3.62h-2.42zm-5.812-8.585H5.97l.451 3.615h-2.96l-.87-3.615zm4.739 0h3.494v3.615H7.783l-.452-3.615zm4.845 3.615v-3.615h3.494l-.451 3.615h-3.043zm-8.39 1.351H6.59l.452 3.62H4.657l-.87-3.62zm14.553 3.62h-2.38l.452-3.62h2.8l-.872 3.62z" fill="#78808A"/></g><defs><clipPath id="clip0"><path fill="#fff" d="M0 0h23v23H0z"/></clipPath></defs></svg>