<svg width="31" height="31" fill="none" xmlns="http://www.w3.org/2000/svg"><path d="M15.85.451A.45.45 0 0116.302 0h1.068a.451.451 0 110 .902h-1.069a.451.451 0 01-.45-.45zm14.7 1.547v16.013a2 2 0 01-1.997 1.998h-.054v8.544a2 2 0 01-1.998 1.998H1.998A2 2 0 010 28.553v-4.609a.451.451 0 01.902 0v4.609a1.097 1.097 0 001.096 1.095h24.503a1.097 1.097 0 001.096-1.095v-10.09H.902v3.097a.451.451 0 01-.902 0v-9.02a2 2 0 011.998-1.997h.054V1.998A2 2 0 014.05 0h10.452a.451.451 0 010 .902H4.05a1.097 1.097 0 00-1.095 1.096v8.545H26.5a2 2 0 012 1.997v6.566h.054a1.097 1.097 0 001.095-1.096V1.998A1.097 1.097 0 0028.553.902h-9.636a.451.451 0 110-.902h9.636a2 2 0 011.998 1.998zM27.598 17.56v-2.19h-3.669a.451.451 0 010-.902h3.669V12.54a1.097 1.097 0 00-1.096-1.096H1.998A1.097 1.097 0 00.902 12.54v1.926h20.711a.451.451 0 010 .902H.903v2.191h26.694zM6.231 1.547a.451.451 0 000 .902h2.32a.451.451 0 000-.902H6.23zM20.4 7.92a.451.451 0 01-.452-.45V4.374a.45.45 0 01.451-.45h7.38a.451.451 0 01.45.45V7.47a.451.451 0 01-.45.451H20.4zm.45-.902h6.477V4.827H20.85v2.19zm-1.998 20.998a1.998 1.998 0 110-3.996 1.998 1.998 0 010 3.996zm0-.903a1.096 1.096 0 100-2.192 1.096 1.096 0 000 2.192zm4.995.903a1.998 1.998 0 110-3.997 1.998 1.998 0 010 3.997zm0-.903a1.096 1.096 0 100-2.192 1.096 1.096 0 000 2.192zm-13.17-.644a.451.451 0 100-.902H3.459a.451.451 0 100 .902h7.219z" fill="#78808A"/></svg>