<svg width="20" height="20" fill="none" xmlns="http://www.w3.org/2000/svg"><path fill-rule="evenodd" clip-rule="evenodd" d="M13.734 3.508a9.286 9.286 0 01.58.646l.032.04.054.074a7.783 7.783 0 01.896 1.556c.235.582.4 1.19.494 1.812.08.655.08 1.318 0 1.975a7.994 7.994 0 01-.485 1.787 7.97 7.97 0 01-.936 1.616l-.02.025-.052.065a8.369 8.369 0 01-.981 1.017c-.058.051-.118.1-.178.15l-.064.052a.33.33 0 01-.012.01c.034-.029.044-.059-.05.038l-.035.027-.075.055a7.748 7.748 0 01-1.48.842c-.581.234-1.19.4-1.81.495-.654.08-1.317.08-1.974 0a8.083 8.083 0 01-1.807-.492 7.987 7.987 0 01-1.489-.847l-.055-.04a3.268 3.268 0 01-.056-.041l-.035-.026a7.871 7.871 0 01-1.08-1.033l-.174-.207-.084-.105c.086.104.082.1.057.068a4.936 4.936 0 01-.396-.567 7.88 7.88 0 01-.569-1.08 8.07 8.07 0 01-.491-1.807 8.008 8.008 0 010-1.968 8.042 8.042 0 01.49-1.803c.145-.335.313-.658.5-.97.1-.166.207-.328.321-.486l.02-.027.068-.094a1.376 1.376 0 01.082-.103l.111-.136a8.088 8.088 0 011.07-1.052l.1-.08a7.846 7.846 0 011.614-.936 8.071 8.071 0 011.805-.49 8.008 8.008 0 011.968 0 8.041 8.041 0 011.796.487 7.99 7.99 0 011.556.894l.041.03.04.03.028.02a4.4 4.4 0 01.042.035l.04.033c.204.149.397.325.583.511zm-.72 10.861l.033-.025.015-.011a.149.149 0 01-.01.009l-.038.027zm0 0l-.001.002-.004.003.005-.005zm2.794-6.611a5.568 5.568 0 01-.01-.064l.01.064zm0 1.73l-.01.064.01-.064zm-.558 2.041l.035-.083a7.65 7.65 0 01-.035.083zm-.893 1.5l.009-.01-.013.016a.707.707 0 01-.021.026l.025-.032zm-4.866 2.778l.063-.009-.063.01zm-1.73 0l-.064-.009.064.01zM1.444 9.511l.007.05-.007-.05zm0-1.762l.008-.053a4.217 4.217 0 01-.008.053zM2.933 4.17zm1.233-1.234l.03-.025-.03.025zm3.576-1.484a4.118 4.118 0 01-.05.007l.05-.007zm1.763 0l.052.007a4.242 4.242 0 01-.052-.007zM10.222.15c1.674.303 3.238 1.139 4.448 2.326.018.014.035.03.05.045.33.332.628.692.904 1.068 1.029 1.405 1.586 3.147 1.619 4.884a8.604 8.604 0 01-1.37 4.813l1.91 1.91 1.202 1.201c.056.057.115.113.174.17.15.144.303.29.432.452.334.42.469.939.385 1.468a1.836 1.836 0 01-.796 1.215c-.725.492-1.707.353-2.316-.254-.446-.444-.89-.89-1.335-1.334l-.666-.667-1.58-1.58a8.578 8.578 0 01-2.197 1.015 8.68 8.68 0 01-5.083-.048c-1.758-.565-3.265-1.677-4.361-3.159C.634 12.31.074 10.628.007 8.938A8.601 8.601 0 011.27 4.114C2.18 2.637 3.548 1.418 5.146.733A9.036 9.036 0 017.728.048a8.636 8.636 0 012.495.102z" fill="#78808A"/></svg>