<svg width="33" height="33" fill="none" xmlns="http://www.w3.org/2000/svg"><g clip-path="url(#clip0)" fill="#78808A"><path d="M21.329 2.602a.483.483 0 00-.697.156l-.01.016a.491.491 0 01-.684.12.483.483 0 00-.673.12l-.704 1.006a.484.484 0 00.791.554l.475-.678c.446.124.93.029 1.295-.259l.713.5a.484.484 0 00.554-.792l-1.06-.743zm5.346 6.089l-.475.678a.484.484 0 00.792.554l.705-1.006a.484.484 0 00-.119-.673.491.491 0 01-.12-.683l.011-.016a.483.483 0 00-.091-.708l-1.06-.742a.483.483 0 00-.556.792l.713.499c-.145.441-.07.929.2 1.305zm-2.565 10.86c.23 0 .442.092.6.26a.484.484 0 00.703-.665 1.794 1.794 0 00-3.096 1.23 1.794 1.794 0 003.06 1.268.483.483 0 10-.684-.683.826.826 0 11-.584-1.41z"/><path d="M28.413 16.972V13.1a2.387 2.387 0 00-2.384-2.384h-2.565c.15-1.296-.273-2.436-1.166-3.061-.756-.53-1.736-.625-2.76-.268-.966.338-1.866 1.047-2.531 1.998-.295.42-.53.867-.7 1.33H13.16l6.764-9.66 9.387 6.573-1.43 2.042a.484.484 0 00.792.555l1.559-2.227a.743.743 0 00-.182-1.033L20.295.135a.738.738 0 00-1.033.182l-2.238 3.195V1.585a.743.743 0 00-.742-.742H4.688a.743.743 0 00-.742.742V4.23a.483.483 0 10.967 0V1.81h1.4v8.906H5.027c-.038 0-.076 0-.114.002V6.165a.483.483 0 10-.967 0v4.81A2.387 2.387 0 002.643 13.1v14.553a2.387 2.387 0 002.384 2.385h3.609a.483.483 0 100-.967h-3.61a1.419 1.419 0 01-1.417-1.418V13.1a1.42 1.42 0 011.418-1.418h21.002a1.42 1.42 0 011.418 1.418v3.805h-3.46a3.476 3.476 0 00-3.473 3.472 3.476 3.476 0 003.472 3.472h3.461v3.804a1.42 1.42 0 01-1.418 1.418h-3.693a.483.483 0 100 .966h3.694a2.387 2.387 0 002.384-2.384v-3.871a2.488 2.488 0 001.91-2.416v-1.978a2.488 2.488 0 00-1.91-2.416zM17.798 9.94c1.103-1.575 2.873-2.244 3.946-1.493.618.432.89 1.282.745 2.269h-5.137c.122-.267.271-.527.446-.776zm-1.74-5.048l-4.078 5.824H9.598V1.81h6.46v3.082zM7.28 1.81h1.35v8.907H7.28V1.81zm22.076 19.556c0 .837-.68 1.517-1.516 1.517h-3.854a2.508 2.508 0 01-2.505-2.506 2.508 2.508 0 012.505-2.505h3.854c.836 0 1.516.68 1.516 1.517v1.977z"/><path d="M15.528 21.32c-3.22 0-5.84 2.62-5.84 5.84 0 3.22 2.62 5.84 5.84 5.84 3.22 0 5.84-2.62 5.84-5.84 0-3.22-2.62-5.84-5.84-5.84zm0 10.713a4.879 4.879 0 01-4.873-4.873 4.879 4.879 0 014.873-4.874A4.879 4.879 0 0120.4 27.16a4.879 4.879 0 01-4.873 4.873z"/><path d="M15.94 26.677h-.824a.441.441 0 010-.882h1.578a.483.483 0 000-.967H16.1v-.408a.483.483 0 00-.967 0v.408h-.017a1.41 1.41 0 00-1.408 1.408 1.41 1.41 0 001.408 1.407h.824a.44.44 0 010 .881h-1.577a.483.483 0 100 .967h.77v.409a.483.483 0 00.967 0v-.418a1.41 1.41 0 001.248-1.398 1.41 1.41 0 00-1.408-1.407z"/></g><defs><clipPath id="clip0"><path fill="#fff" d="M0 0h33v33H0z"/></clipPath></defs></svg>