<svg width="23" height="23" fill="none" xmlns="http://www.w3.org/2000/svg"><g clip-path="url(#clip0)" fill="#78808A"><path d="M15.293 16.986a.383.383 0 00-.072.764c4.829.459 6.629 1.564 6.629 2.155 0 .973-3.937 2.328-10.35 2.328-6.412 0-10.35-1.355-10.35-2.328 0-.59 1.802-1.697 6.63-2.157a.383.383 0 00-.073-.763c-1.718.164-7.323.855-7.323 2.92C.384 21.938 5.976 23 11.5 23s11.116-1.063 11.116-3.095c0-2.065-5.605-2.756-7.323-2.919z"/><path d="M16.206 1.92A6.458 6.458 0 0011.508 0a6.675 6.675 0 00-5.793 3.397 7.43 7.43 0 00-.192 6.959 41.999 41.999 0 004.807 7.598l.878 1.105a.383.383 0 00.6 0l.856-1.085a43.994 43.994 0 004.83-7.617 7.475 7.475 0 00-1.288-8.437zm.6 8.095a43.26 43.26 0 01-4.743 7.484l-.556.704-.575-.726a41.245 41.245 0 01-4.722-7.46 6.664 6.664 0 01.171-6.243A5.918 5.918 0 0111.533.767 5.673 5.673 0 0115.65 2.45a6.703 6.703 0 011.155 7.566z"/><path d="M14.4 5.665a.383.383 0 10-.712.284c.182.457.222.959.115 1.44a2.357 2.357 0 01-1.75 1.77 2.33 2.33 0 01-2.193-.623 2.422 2.422 0 01-.643-2.25 2.338 2.338 0 013.207-1.642.383.383 0 10.301-.705 3.13 3.13 0 00-1.925-.17 3.095 3.095 0 00-2.332 2.353 3.182 3.182 0 00.85 2.957 3.105 3.105 0 002.199.906 3.095 3.095 0 003.033-2.433 3.21 3.21 0 00-.15-1.887z"/></g><defs><clipPath id="clip0"><path fill="#fff" d="M0 0h23v23H0z"/></clipPath></defs></svg>