<svg width="30" height="30" fill="none" xmlns="http://www.w3.org/2000/svg"><g clip-path="url(#clip0)" fill="#78808A"><path d="M15.001 18a1 1 0 111-1h1a2 2 0 00-1.5-1.929V14.5h-1v.571a1.996 1.996 0 00.5 3.929 1 1 0 11-1 1h-1a2 2 0 001.5 1.928v.572h1v-.572A1.996 1.996 0 0015 18z"/><path d="M15.001 12a6.5 6.5 0 106.5 6.5A6.507 6.507 0 0015 12zm0 12a5.5 5.5 0 115.5-5.5A5.506 5.506 0 0115 24z"/><path d="M29.5 11a.5.5 0 00.5-.5v-2c0-.006-.003-.011-.003-.018a.492.492 0 00-.033-.16c0-.005 0-.012-.005-.018a.5.5 0 00-.1-.147.567.567 0 00-.046-.037.503.503 0 00-.072-.057l-14.5-8a.497.497 0 00-.482 0l-14.5 8a.503.503 0 00-.072.057.565.565 0 00-.047.037.5.5 0 00-.1.147c0 .006 0 .013-.004.019a.493.493 0 00-.033.16c0 .006-.003.01-.003.017v2a.5.5 0 00.5.5h1.502v15h-1.5a.5.5 0 00-.5.5v2.999a.5.5 0 00.5.5H29.5a.5.5 0 00.5-.5v-3a.5.5 0 00-.5-.5H28V11h1.5zM15.001 1.072L27.559 8H2.443l12.558-6.928zm14 25.927v2H1v-2h28zM3 26V11h2v15H3zm3 0V11h18v15H6zm19 0V11h2v15h-2zM1 10V9h28v1H1z"/></g><defs><clipPath id="clip0"><path fill="#fff" d="M0 0h30v30H0z"/></clipPath></defs></svg>