<?xml version="1.0" standalone="no"?>
<!DOCTYPE svg PUBLIC "-//W3C//DTD SVG 20010904//EN"
 "http://www.w3.org/TR/2001/REC-SVG-20010904/DTD/svg10.dtd">
<svg version="1.0" xmlns="http://www.w3.org/2000/svg"
 width="301.000000pt" height="121.000000pt" viewBox="0 0 301.000000 121.000000"
 preserveAspectRatio="xMidYMid meet">

<g transform="translate(0.000000,121.000000) scale(0.100000,-0.100000)"
fill="#000000" stroke="none">
<path d="M265 1054 c-67 -34 -76 -44 -29 -33 22 4 66 9 99 9 l60 0 -30 25
c-37 30 -39 30 -100 -1z"/>
<path d="M589 1064 c-7 -8 -26 -22 -43 -31 l-30 -16 54 -20 c76 -28 169 -122
198 -198 42 -112 35 -247 -18 -378 -22 -54 -24 -31 -6 54 12 53 12 61 -2 72
-14 12 -14 13 1 13 13 0 17 9 17 40 0 39 -1 39 -30 34 -16 -4 -30 -4 -30 -1 0
4 14 13 30 22 23 12 30 22 30 46 0 26 -3 29 -21 24 -20 -7 -20 -6 -5 17 23 35
10 40 -31 12 -53 -35 -60 -29 -19 16 20 22 36 45 36 51 0 12 -60 89 -70 89 -3
0 -14 -15 -23 -32 l-16 -33 0 47 c-1 42 -4 49 -31 63 -42 22 -46 20 -41 -31 2
-25 -2 -51 -8 -57 -8 -8 -11 -6 -11 7 0 36 -42 116 -61 116 -11 0 -19 -1 -19
-3 0 -1 4 -17 9 -35 6 -20 6 -32 0 -32 -5 0 -9 4 -9 8 0 14 -58 77 -65 71 -3
-4 7 -26 24 -50 17 -24 33 -57 37 -74 7 -29 6 -29 -37 16 -43 45 -113 89 -143
89 -8 0 -27 -5 -43 -11 l-27 -10 39 -18 c45 -20 103 -73 114 -105 7 -17 16
-19 68 -17 106 4 209 -60 249 -155 18 -43 18 -126 -1 -206 -12 -55 -12 -71 0
-123 7 -33 12 -61 11 -63 -2 -1 -13 21 -26 50 -19 45 -21 61 -15 123 14 126
11 168 -16 215 -39 69 -88 103 -159 108 -33 2 -60 1 -60 -3 0 -4 14 -27 32
-51 17 -24 29 -46 26 -49 -7 -7 -139 135 -163 176 -14 23 -41 44 -85 66 -36
18 -70 33 -77 33 -14 0 -83 -108 -83 -130 0 -9 12 -27 26 -41 33 -30 63 -94
64 -135 0 -38 -45 -131 -71 -145 -10 -5 -19 -18 -19 -28 0 -27 71 -131 120
-175 l43 -39 18 44 c10 24 25 76 35 116 l17 71 41 6 c23 4 56 15 74 26 18 11
32 16 32 11 0 -15 -38 -43 -77 -56 -34 -12 -39 -18 -45 -56 -4 -23 -15 -65
-24 -91 -9 -27 -14 -52 -11 -55 12 -12 117 29 171 67 32 23 60 39 63 37 9 -10
-103 -98 -157 -124 -33 -15 -59 -31 -59 -35 -1 -3 13 -9 29 -13 24 -5 37 -1
61 19 38 32 67 40 124 33 40 -4 58 -13 111 -52 22 -16 132 44 194 105 31 30
69 81 85 112 l29 57 -28 22 c-36 28 -65 92 -66 143 0 48 33 119 68 147 l26 20
-29 57 c-38 73 -115 149 -192 190 -69 36 -85 39 -104 16z m-172 -397 c34 -28
60 -53 58 -55 -2 -2 -43 21 -92 52 l-88 54 -17 -32 c-9 -17 -19 -48 -23 -67
l-7 -36 94 -9 93 -10 -91 -14 c-88 -13 -91 -14 -110 -48 -10 -19 -29 -39 -41
-43 l-21 -8 20 45 c14 32 18 56 13 82 -7 43 13 108 51 165 l25 38 37 -31 c20
-18 65 -55 99 -83z m121 -89 c7 -7 12 -18 12 -25 0 -11 -4 -11 -21 -1 -17 11
-22 10 -34 -5 -7 -11 -11 -26 -7 -35 5 -15 4 -15 -11 -3 -34 27 -15 81 28 81
12 0 26 -5 33 -12z"/>
<path d="M2128 860 c-187 -56 -209 -321 -33 -401 51 -24 154 -25 198 -3 116
59 158 195 94 309 -46 82 -161 125 -259 95z m125 -40 c34 -27 47 -76 47 -175
0 -56 -6 -92 -19 -121 -31 -67 -104 -83 -151 -32 -62 67 -51 298 17 337 29 17
78 13 106 -9z"/>
<path d="M1070 800 c0 -62 11 -76 31 -37 23 45 52 67 86 67 l33 0 0 -175 0
-176 -30 -6 c-63 -12 -26 -23 80 -23 67 0 110 4 110 10 0 6 -8 10 -18 10 -38
0 -42 18 -42 193 l0 168 42 -3 c39 -3 45 -7 66 -45 13 -24 28 -43 33 -43 5 0
9 27 9 60 l0 60 -200 0 -200 0 0 -60z"/>
<path d="M1500 852 c0 -6 12 -17 28 -24 l27 -13 3 -159 c3 -165 -2 -186 -39
-186 -11 0 -19 -4 -19 -10 0 -6 42 -10 105 -10 100 0 134 10 80 24 -24 6 -25
10 -25 81 0 44 4 75 10 75 6 0 40 -40 77 -90 l66 -90 78 0 c46 0 79 4 79 10 0
6 -8 10 -18 10 -19 0 -50 30 -122 119 -41 50 -43 55 -26 65 56 33 76 58 76 96
0 90 -27 103 -227 108 -103 3 -153 1 -153 -6z m250 -42 c31 -31 28 -102 -6
-129 -15 -12 -40 -21 -55 -21 l-29 0 0 85 0 85 35 0 c22 0 43 -8 55 -20z"/>
<path d="M2420 852 c0 -5 15 -15 33 -23 24 -11 47 -39 95 -119 56 -95 62 -110
62 -160 0 -58 -11 -80 -42 -80 -10 0 -18 -4 -18 -10 0 -6 43 -10 110 -10 67 0
110 4 110 10 0 6 -8 10 -18 10 -31 0 -42 22 -42 86 0 59 3 66 65 161 37 57 76
105 90 111 44 20 28 32 -43 32 -79 0 -95 -8 -52 -27 31 -12 31 -12 15 -44 -9
-17 -32 -56 -52 -86 -40 -63 -33 -66 -98 51 -39 71 -38 85 8 86 9 0 17 5 17
10 0 6 -47 10 -120 10 -66 0 -120 -4 -120 -8z"/>
<path d="M1111 338 c2 -31 2 -31 6 -5 2 15 10 27 18 27 8 0 16 -12 18 -27 4
-26 4 -26 6 5 1 28 -2 32 -24 32 -22 0 -25 -4 -24 -32z"/>
<path d="M1190 340 l0 -31 21 20 c22 20 19 41 -7 41 -9 0 -14 -11 -14 -30z
m30 10 c0 -5 -4 -10 -10 -10 -5 0 -10 5 -10 10 0 6 5 10 10 10 6 0 10 -4 10
-10z"/>
<path d="M1261 357 c-17 -21 -3 -49 23 -45 15 2 21 10 21 28 0 28 -26 38 -44
17z m37 -20 c2 -10 -3 -17 -12 -17 -18 0 -29 16 -21 31 9 14 29 6 33 -14z"/>
<path d="M1359 348 c-12 -22 -12 -22 -20 -3 -6 17 -8 16 -8 -7 -1 -31 13 -37
24 -10 7 16 8 15 15 -3 7 -17 9 -14 9 13 1 38 -4 40 -20 10z"/>
<path d="M1423 364 c14 -5 16 -9 6 -20 -9 -11 -8 -14 2 -15 8 0 5 -4 -6 -10
-20 -9 -20 -9 0 -6 13 1 19 10 19 27 0 17 -5 25 -19 27 -17 2 -17 1 -2 -3z"/>
<path d="M1470 340 c0 -27 3 -31 22 -28 16 2 23 10 23 28 0 18 -7 26 -23 28
-19 3 -22 -1 -22 -28z m30 10 c0 -5 -4 -10 -10 -10 -5 0 -10 5 -10 10 0 6 5
10 10 10 6 0 10 -4 10 -10z m7 -26 c-3 -3 -12 -4 -19 -1 -8 3 -5 6 6 6 11 1
17 -2 13 -5z"/>
<path d="M1544 355 c-9 -23 3 -45 25 -45 23 0 35 28 20 46 -15 18 -38 18 -45
-1z m41 -16 c0 -7 -8 -15 -17 -17 -18 -3 -25 18 -11 32 10 10 28 1 28 -15z"/>
<path d="M1631 348 c1 -17 2 -19 6 -5 6 23 23 22 23 -3 0 -13 -7 -20 -20 -20
-11 0 -20 -3 -20 -7 0 -5 14 -8 30 -8 21 0 29 4 25 13 -3 8 -5 22 -5 33 0 12
-7 19 -20 19 -14 0 -20 -6 -19 -22z"/>
<path d="M1704 355 c-9 -23 3 -45 23 -44 17 1 17 2 1 6 -10 2 -18 13 -18 23 0
10 8 21 18 23 16 4 16 5 -1 6 -10 0 -20 -6 -23 -14z"/>
<path d="M1766 362 c7 -4 14 -18 17 -32 l4 -25 2 27 c0 14 7 29 14 31 6 3 -1
6 -18 6 -16 0 -25 -3 -19 -7z"/>
<path d="M1830 340 c0 -27 3 -31 22 -28 16 2 23 10 23 28 0 18 -7 26 -23 28
-19 3 -22 -1 -22 -28z m35 10 c-3 -5 -10 -10 -16 -10 -5 0 -9 5 -9 10 0 6 7
10 16 10 8 0 12 -4 9 -10z m2 -26 c-3 -3 -12 -4 -19 -1 -8 3 -5 6 6 6 11 1 17
-2 13 -5z"/>
<path d="M1900 340 c0 -25 4 -30 23 -29 19 1 19 2 3 6 -15 4 -16 7 -5 14 10 6
10 9 2 9 -19 0 -16 18 5 23 13 4 11 5 -5 6 -19 1 -23 -4 -23 -29z"/>
<path d="M2000 354 c0 -10 -6 -14 -15 -10 -8 3 -15 1 -15 -4 0 -6 6 -10 14
-10 8 0 17 -6 19 -12 3 -7 6 2 6 20 1 17 -1 32 -4 32 -3 0 -5 -7 -5 -16z"/>
<path d="M2042 340 c0 -19 2 -29 5 -22 2 6 11 12 18 12 7 0 16 -6 18 -12 3 -7
6 3 6 22 0 28 -2 32 -10 18 -5 -10 -14 -18 -19 -18 -5 0 -11 8 -13 18 -3 9 -5
1 -5 -18z"/>
<path d="M2122 345 c-7 -14 -12 -27 -12 -28 0 -1 11 -2 25 -2 20 0 24 4 19 20
-10 34 -20 37 -32 10z"/>
<path d="M2196 358 c-7 -22 -3 -47 6 -42 5 3 6 14 3 25 -4 10 -2 19 4 19 5 0
12 -12 14 -27 4 -26 4 -26 6 5 1 23 -3 32 -14 32 -9 0 -17 -6 -19 -12z"/>
<path d="M2282 340 c0 -19 2 -29 5 -22 3 8 9 10 16 3 9 -7 12 -1 12 20 0 25
-2 27 -12 13 -10 -14 -12 -14 -16 3 -3 10 -5 2 -5 -17z"/>
<path d="M2351 356 c-17 -20 -2 -48 23 -44 24 3 34 37 14 49 -18 12 -24 11
-37 -5z m37 -19 c2 -10 -3 -17 -12 -17 -18 0 -29 16 -21 31 9 14 29 6 33 -14z"/>
<path d="M2421 338 c0 -26 2 -29 8 -14 5 14 10 16 15 7 6 -9 11 -9 21 -1 10 8
14 7 18 -7 3 -10 5 -3 6 16 1 33 1 34 -19 16 -18 -16 -20 -16 -26 -1 -10 27
-24 18 -23 -16z"/>
<path d="M2511 338 c2 -31 2 -31 6 -5 2 15 10 27 18 27 8 0 16 -12 18 -27 4
-26 4 -26 6 5 1 28 -2 32 -24 32 -22 0 -25 -4 -24 -32z"/>
<path d="M2596 343 c-14 -27 -13 -28 14 -28 25 0 27 2 18 28 -6 15 -12 27 -14
27 -2 0 -10 -12 -18 -27z m24 -3 c0 -5 -5 -10 -11 -10 -5 0 -7 5 -4 10 3 6 8
10 11 10 2 0 4 -4 4 -10z"/>
<path d="M2662 340 c0 -19 2 -29 5 -22 2 6 11 12 18 12 7 0 16 -6 18 -12 3 -7
5 3 5 22 0 19 -2 27 -5 18 -2 -10 -11 -18 -18 -18 -7 0 -16 8 -18 18 -3 9 -5
1 -5 -18z"/>
<path d="M2759 348 c-12 -22 -12 -22 -20 -3 -6 17 -8 16 -8 -7 -1 -31 13 -37
24 -10 7 16 8 15 15 -3 7 -17 9 -14 9 13 1 38 -4 40 -20 10z"/>
<path d="M2819 368 c-1 -2 -2 -15 -3 -30 -1 -20 1 -24 10 -17 8 7 14 6 17 -3
3 -7 6 2 6 20 1 22 -4 32 -14 32 -8 0 -16 -1 -16 -2z m21 -18 c0 -5 -4 -10
-10 -10 -5 0 -10 5 -10 10 0 6 5 10 10 10 6 0 10 -4 10 -10z"/>
</g>
</svg>
