<svg width="20" height="20" viewBox="0 0 20 20" fill="none" xmlns="http://www.w3.org/2000/svg">
<path d="M3.59998 19.8C2.19998 19.8 1.09998 18.7 1.09998 17.3V4.50001C1.09998 3.20001 2.19998 2.00001 3.59998 2.00001H5.59998V0.900012C5.59998 0.500012 5.89998 0.200012 6.29998 0.200012C6.69998 0.200012 6.99998 0.500012 6.99998 0.900012V2.00001H12.9V0.900012C12.9 0.500012 13.2 0.200012 13.6 0.200012C14 0.200012 14.3 0.500012 14.3 0.900012V2.00001H16.3C17.7 2.00001 18.8 3.10001 18.8 4.50001V17.2C18.8 18.6 17.7 19.7 16.3 19.7H3.59998V19.8ZM2.49998 17.3C2.49998 17.9 2.99998 18.4 3.59998 18.4H16.3C16.9 18.4 17.4 17.9 17.4 17.3V8.90001H2.49998V17.3ZM3.59998 3.40001C2.99998 3.40001 2.49998 3.90001 2.49998 4.50001V7.40001H17.4V4.50001C17.4 3.90001 16.9 3.40001 16.3 3.40001H14.3V4.50001C14.3 4.90001 14 5.20001 13.6 5.20001C13.2 5.20001 12.9 4.90001 12.9 4.50001V3.40001H7.09998V4.50001C7.09998 4.90001 6.79998 5.20001 6.39998 5.20001C5.99998 5.20001 5.69998 4.90001 5.69998 4.50001V3.40001H3.59998Z" fill="#2F2F2F"/>
</svg>
