<svg width="40" height="40" viewBox="0 0 40 40" fill="none" xmlns="http://www.w3.org/2000/svg">
<path d="M36.875 15H32.5V3.125C32.5 2.62772 32.3025 2.15081 31.9508 1.79917C31.5992 1.44754 31.1223 1.25 30.625 1.25H3.125C2.62772 1.25 2.15081 1.44754 1.79917 1.79917C1.44754 2.15081 1.25 2.62772 1.25 3.125V30.625C1.25 31.1223 1.44754 31.5992 1.79917 31.9508C2.15081 32.3025 2.62772 32.5 3.125 32.5H10V36.875C10 37.3723 10.1975 37.8492 10.5492 38.2008C10.9008 38.5525 11.3777 38.75 11.875 38.75H36.875C37.3723 38.75 37.8492 38.5525 38.2008 38.2008C38.5525 37.8492 38.75 37.3723 38.75 36.875V16.875C38.75 16.3777 38.5525 15.9008 38.2008 15.5492C37.8492 15.1975 37.3723 15 36.875 15V15ZM36.875 16.25C37.0408 16.25 37.1997 16.3158 37.3169 16.4331C37.4342 16.5503 37.5 16.7092 37.5 16.875V20H11.25V16.875C11.25 16.7092 11.3158 16.5503 11.4331 16.4331C11.5503 16.3158 11.7092 16.25 11.875 16.25H16.875V17.5H18.125V16.25H24.375V17.5H25.625V16.25H31.25V17.5H32.5V16.25H36.875ZM3.125 2.5H30.625C30.7908 2.5 30.9497 2.56585 31.0669 2.68306C31.1842 2.80027 31.25 2.95924 31.25 3.125V6.25H2.5V3.125C2.5 2.95924 2.56585 2.80027 2.68306 2.68306C2.80027 2.56585 2.95924 2.5 3.125 2.5V2.5ZM3.125 31.25C2.95924 31.25 2.80027 31.1842 2.68306 31.0669C2.56585 30.9497 2.5 30.7908 2.5 30.625V7.5H31.25V15H25.625V13.75H24.375V15H18.125V13.75H16.875V15H11.875C11.3777 15 10.9008 15.1975 10.5492 15.5492C10.1975 15.9008 10 16.3777 10 16.875V31.25H3.125ZM36.875 37.5H11.875C11.7092 37.5 11.5503 37.4342 11.4331 37.3169C11.3158 37.1997 11.25 37.0408 11.25 36.875V21.25H37.5V36.875C37.5 37.0408 37.4342 37.1997 37.3169 37.3169C37.1997 37.4342 37.0408 37.5 36.875 37.5Z" fill="#2F2F2F"/>
<path d="M15.625 22.5H13.125C12.9592 22.5 12.8003 22.5658 12.6831 22.6831C12.5658 22.8003 12.5 22.9592 12.5 23.125V25.625C12.5 25.7908 12.5658 25.9497 12.6831 26.0669C12.8003 26.1842 12.9592 26.25 13.125 26.25H15.625C15.7908 26.25 15.9497 26.1842 16.0669 26.0669C16.1842 25.9497 16.25 25.7908 16.25 25.625V23.125C16.25 22.9592 16.1842 22.8003 16.0669 22.6831C15.9497 22.5658 15.7908 22.5 15.625 22.5ZM15 25H13.75V23.75H15V25Z" fill="#2F2F2F"/>
<path d="M15.625 27.5H13.125C12.9592 27.5 12.8003 27.5658 12.6831 27.6831C12.5658 27.8003 12.5 27.9592 12.5 28.125V30.625C12.5 30.7908 12.5658 30.9497 12.6831 31.0669C12.8003 31.1842 12.9592 31.25 13.125 31.25H15.625C15.7908 31.25 15.9497 31.1842 16.0669 31.0669C16.1842 30.9497 16.25 30.7908 16.25 30.625V28.125C16.25 27.9592 16.1842 27.8003 16.0669 27.6831C15.9497 27.5658 15.7908 27.5 15.625 27.5ZM15 30H13.75V28.75H15V30Z" fill="#2F2F2F"/>
<path d="M15.625 32.5H13.125C12.9592 32.5 12.8003 32.5658 12.6831 32.6831C12.5658 32.8003 12.5 32.9592 12.5 33.125V35.625C12.5 35.7908 12.5658 35.9497 12.6831 36.0669C12.8003 36.1842 12.9592 36.25 13.125 36.25H15.625C15.7908 36.25 15.9497 36.1842 16.0669 36.0669C16.1842 35.9497 16.25 35.7908 16.25 35.625V33.125C16.25 32.9592 16.1842 32.8003 16.0669 32.6831C15.9497 32.5658 15.7908 32.5 15.625 32.5ZM15 35H13.75V33.75H15V35Z" fill="#2F2F2F"/>
<path d="M20.625 22.5H18.125C17.9592 22.5 17.8003 22.5658 17.6831 22.6831C17.5658 22.8003 17.5 22.9592 17.5 23.125V25.625C17.5 25.7908 17.5658 25.9497 17.6831 26.0669C17.8003 26.1842 17.9592 26.25 18.125 26.25H20.625C20.7908 26.25 20.9497 26.1842 21.0669 26.0669C21.1842 25.9497 21.25 25.7908 21.25 25.625V23.125C21.25 22.9592 21.1842 22.8003 21.0669 22.6831C20.9497 22.5658 20.7908 22.5 20.625 22.5ZM20 25H18.75V23.75H20V25Z" fill="#2F2F2F"/>
<path d="M20.625 27.5H18.125C17.9592 27.5 17.8003 27.5658 17.6831 27.6831C17.5658 27.8003 17.5 27.9592 17.5 28.125V30.625C17.5 30.7908 17.5658 30.9497 17.6831 31.0669C17.8003 31.1842 17.9592 31.25 18.125 31.25H20.625C20.7908 31.25 20.9497 31.1842 21.0669 31.0669C21.1842 30.9497 21.25 30.7908 21.25 30.625V28.125C21.25 27.9592 21.1842 27.8003 21.0669 27.6831C20.9497 27.5658 20.7908 27.5 20.625 27.5ZM20 30H18.75V28.75H20V30Z" fill="#2F2F2F"/>
<path d="M20.625 32.5H18.125C17.9592 32.5 17.8003 32.5658 17.6831 32.6831C17.5658 32.8003 17.5 32.9592 17.5 33.125V35.625C17.5 35.7908 17.5658 35.9497 17.6831 36.0669C17.8003 36.1842 17.9592 36.25 18.125 36.25H20.625C20.7908 36.25 20.9497 36.1842 21.0669 36.0669C21.1842 35.9497 21.25 35.7908 21.25 35.625V33.125C21.25 32.9592 21.1842 32.8003 21.0669 32.6831C20.9497 32.5658 20.7908 32.5 20.625 32.5ZM20 35H18.75V33.75H20V35Z" fill="#2F2F2F"/>
<path d="M25.625 22.5H23.125C22.9592 22.5 22.8003 22.5658 22.6831 22.6831C22.5658 22.8003 22.5 22.9592 22.5 23.125V25.625C22.5 25.7908 22.5658 25.9497 22.6831 26.0669C22.8003 26.1842 22.9592 26.25 23.125 26.25H25.625C25.7908 26.25 25.9497 26.1842 26.0669 26.0669C26.1842 25.9497 26.25 25.7908 26.25 25.625V23.125C26.25 22.9592 26.1842 22.8003 26.0669 22.6831C25.9497 22.5658 25.7908 22.5 25.625 22.5ZM25 25H23.75V23.75H25V25Z" fill="#2F2F2F"/>
<path d="M25.625 27.5H23.125C22.9592 27.5 22.8003 27.5658 22.6831 27.6831C22.5658 27.8003 22.5 27.9592 22.5 28.125V30.625C22.5 30.7908 22.5658 30.9497 22.6831 31.0669C22.8003 31.1842 22.9592 31.25 23.125 31.25H25.625C25.7908 31.25 25.9497 31.1842 26.0669 31.0669C26.1842 30.9497 26.25 30.7908 26.25 30.625V28.125C26.25 27.9592 26.1842 27.8003 26.0669 27.6831C25.9497 27.5658 25.7908 27.5 25.625 27.5ZM25 30H23.75V28.75H25V30Z" fill="#2F2F2F"/>
<path d="M25.625 32.5H23.125C22.9592 32.5 22.8003 32.5658 22.6831 32.6831C22.5658 32.8003 22.5 32.9592 22.5 33.125V35.625C22.5 35.7908 22.5658 35.9497 22.6831 36.0669C22.8003 36.1842 22.9592 36.25 23.125 36.25H25.625C25.7908 36.25 25.9497 36.1842 26.0669 36.0669C26.1842 35.9497 26.25 35.7908 26.25 35.625V33.125C26.25 32.9592 26.1842 32.8003 26.0669 32.6831C25.9497 32.5658 25.7908 32.5 25.625 32.5ZM25 35H23.75V33.75H25V35Z" fill="#2F2F2F"/>
<path d="M30.625 22.5H28.125C27.9592 22.5 27.8003 22.5658 27.6831 22.6831C27.5658 22.8003 27.5 22.9592 27.5 23.125V25.625C27.5 25.7908 27.5658 25.9497 27.6831 26.0669C27.8003 26.1842 27.9592 26.25 28.125 26.25H30.625C30.7908 26.25 30.9497 26.1842 31.0669 26.0669C31.1842 25.9497 31.25 25.7908 31.25 25.625V23.125C31.25 22.9592 31.1842 22.8003 31.0669 22.6831C30.9497 22.5658 30.7908 22.5 30.625 22.5ZM30 25H28.75V23.75H30V25Z" fill="#2F2F2F"/>
<path d="M30.625 27.5H28.125C27.9592 27.5 27.8003 27.5658 27.6831 27.6831C27.5658 27.8003 27.5 27.9592 27.5 28.125V30.625C27.5 30.7908 27.5658 30.9497 27.6831 31.0669C27.8003 31.1842 27.9592 31.25 28.125 31.25H30.625C30.7908 31.25 30.9497 31.1842 31.0669 31.0669C31.1842 30.9497 31.25 30.7908 31.25 30.625V28.125C31.25 27.9592 31.1842 27.8003 31.0669 27.6831C30.9497 27.5658 30.7908 27.5 30.625 27.5ZM30 30H28.75V28.75H30V30Z" fill="#2F2F2F"/>
<path d="M30.625 32.5H28.125C27.9592 32.5 27.8003 32.5658 27.6831 32.6831C27.5658 32.8003 27.5 32.9592 27.5 33.125V35.625C27.5 35.7908 27.5658 35.9497 27.6831 36.0669C27.8003 36.1842 27.9592 36.25 28.125 36.25H30.625C30.7908 36.25 30.9497 36.1842 31.0669 36.0669C31.1842 35.9497 31.25 35.7908 31.25 35.625V33.125C31.25 32.9592 31.1842 32.8003 31.0669 32.6831C30.9497 32.5658 30.7908 32.5 30.625 32.5ZM30 35H28.75V33.75H30V35Z" fill="#2F2F2F"/>
<path d="M35.625 22.5H33.125C32.9592 22.5 32.8003 22.5658 32.6831 22.6831C32.5658 22.8003 32.5 22.9592 32.5 23.125V25.625C32.5 25.7908 32.5658 25.9497 32.6831 26.0669C32.8003 26.1842 32.9592 26.25 33.125 26.25H35.625C35.7908 26.25 35.9497 26.1842 36.0669 26.0669C36.1842 25.9497 36.25 25.7908 36.25 25.625V23.125C36.25 22.9592 36.1842 22.8003 36.0669 22.6831C35.9497 22.5658 35.7908 22.5 35.625 22.5ZM35 25H33.75V23.75H35V25Z" fill="#2F2F2F"/>
<path d="M35.625 27.5H33.125C32.9592 27.5 32.8003 27.5658 32.6831 27.6831C32.5658 27.8003 32.5 27.9592 32.5 28.125V30.625C32.5 30.7908 32.5658 30.9497 32.6831 31.0669C32.8003 31.1842 32.9592 31.25 33.125 31.25H35.625C35.7908 31.25 35.9497 31.1842 36.0669 31.0669C36.1842 30.9497 36.25 30.7908 36.25 30.625V28.125C36.25 27.9592 36.1842 27.8003 36.0669 27.6831C35.9497 27.5658 35.7908 27.5 35.625 27.5ZM35 30H33.75V28.75H35V30Z" fill="#2F2F2F"/>
<path d="M35.625 32.5H33.125C32.9592 32.5 32.8003 32.5658 32.6831 32.6831C32.5658 32.8003 32.5 32.9592 32.5 33.125V35.625C32.5 35.7908 32.5658 35.9497 32.6831 36.0669C32.8003 36.1842 32.9592 36.25 33.125 36.25H35.625C35.7908 36.25 35.9497 36.1842 36.0669 36.0669C36.1842 35.9497 36.25 35.7908 36.25 35.625V33.125C36.25 32.9592 36.1842 32.8003 36.0669 32.6831C35.9497 32.5658 35.7908 32.5 35.625 32.5ZM35 35H33.75V33.75H35V35Z" fill="#2F2F2F"/>
<path d="M3.75 3.75H5V5H3.75V3.75Z" fill="#2F2F2F"/>
<path d="M6.25 3.75H7.5V5H6.25V3.75Z" fill="#2F2F2F"/>
<path d="M8.75 3.75H10V5H8.75V3.75Z" fill="#2F2F2F"/>
<path d="M28.75 3.75H30V5H28.75V3.75Z" fill="#2F2F2F"/>
</svg>
