<svg width="18" height="20" viewBox="0 0 18 20" fill="none" xmlns="http://www.w3.org/2000/svg">
<g clip-path="url(#clip0)">
<path d="M16.8 12.3L15.3 10.8L8.59998 4.20004C7.39998 3.00004 5.39998 3.00004 4.19998 4.20004C2.99998 5.40004 2.99998 7.40004 4.19998 8.60004L10.9 15.3C11.2 15.6 11.6 15.6 11.9 15.3C12.2 15 12.2 14.6 11.9 14.3L5.19998 7.60004C4.49998 7.00004 4.49998 5.90004 5.19998 5.20004C5.89998 4.50004 6.99998 4.50004 7.69998 5.20004L14.4 11.9L15.9 13.4C17.1 14.6 17.1 16.6 15.9 17.8C14.7 19 12.7 19 11.5 17.8L10.3 16.6L3.19998 9.60004L2.69998 9.10004C0.999976 7.30004 0.999976 4.50004 2.79998 2.80004C4.49998 1.00004 7.29998 1.00004 9.09998 2.70004L16.5 10.1C16.7 10.3 16.9 10.3 17.2 10.3C17.4 10.2 17.6 10 17.7 9.80004C17.8 9.60004 17.7 9.30004 17.5 9.10004L10.1 1.70004C7.79998 -0.599963 3.99998 -0.599963 1.69998 1.70004C-0.600025 4.00004 -0.600025 7.80004 1.69998 10.1L9.09998 17.5L10.3 18.7C12.1 20.4 14.9 20.4 16.6 18.6C18.4 16.9 18.5 14.1 16.8 12.3Z" fill="#2F2F2F"/>
</g>
<defs>
<clipPath id="clip0">
<rect width="18" height="20" fill="white"/>
</clipPath>
</defs>
</svg>
