<svg width="18" height="18" viewBox="0 0 18 18" fill="none" xmlns="http://www.w3.org/2000/svg">
<g clip-path="url(#clip0)">
<path d="M10.1733 9L17.8038 1.36957C18.0973 1.07609 18.0973 0.586957 17.8038 0.195652C17.6081 0.0978261 17.4125 0 17.2168 0C17.0212 0 16.8255 0.0978261 16.6299 0.195652L8.99943 7.82609L1.369 0.195652C1.27117 0.0978261 0.977693 0 0.782041 0C0.586389 0 0.390736 0.0978261 0.195084 0.195652C-0.098394 0.48913 -0.098394 0.978261 0.195084 1.36957L7.82552 9L0.195084 16.6304C-0.098394 16.9239 -0.098394 17.413 0.195084 17.8043C0.390736 18 0.586389 18 0.782041 18C0.977693 18 1.17335 17.9022 1.369 17.8043L8.99943 10.1739L16.6299 17.8043C16.8255 18 17.0212 18 17.2168 18C17.4125 18 17.6081 17.9022 17.8038 17.8043C18.0973 17.5109 18.0973 17.0217 17.8038 16.6304L10.1733 9Z" fill="#ffffff"/>
</g>
<defs>
<clipPath id="clip0">
<rect width="18" height="18" fill="white"/>
</clipPath>
</defs>
</svg>
