<svg width="40" height="40" viewBox="0 0 40 40" fill="none" xmlns="http://www.w3.org/2000/svg">
<g clip-path="url(#clip0)">
<path d="M32.4 8.3C32 8.3 31.7 8 31.7 7.6V0.7C31.7 0.3 32 0 32.4 0H39.3C39.7 0 40 0.3 40 0.7V7.6C40 8 39.7 8.3 39.3 8.3H32.4ZM38.6 6.9V1.4H33.1V6.9H38.6Z" fill="#2F2F2F"/>
<path d="M23.9 6.69998C23.5 6.69998 23.2 6.39998 23.2 5.99998V2.29998C23.2 1.89998 23.5 1.59998 23.9 1.59998H27.7C28.1 1.59998 28.4 1.89998 28.4 2.29998V5.99998C28.4 6.39998 28.1 6.69998 27.7 6.69998H23.9ZM27 5.29998V2.89998H24.6V5.29998H27Z" fill="#2F2F2F"/>
<path d="M12 24.5C11.6 24.5 11.3 24.2 11.3 23.8V17.5C11.3 17.1 11.6 16.8 12 16.8H18.3C18.7 16.8 19 17.1 19 17.5V23.8C19 24.2 18.7 24.5 18.3 24.5H12ZM17.6 23.1V18.2H12.7V23.1H17.6Z" fill="#2F2F2F"/>
<path d="M33.7 20.7C33.3 20.7 33 20.4 33 20V14.3C33 13.9 33.3 13.6 33.7 13.6H39.4C39.8 13.6 40.1 13.9 40.1 14.3V20C40.1 20.4 39.8 20.7 39.4 20.7H33.7ZM38.6 19.3V15H34.3V19.3H38.6Z" fill="#2F2F2F"/>
<path d="M23.3 20.1C22.9 20.1 22.6 19.8 22.6 19.4V14.4C22.6 14 22.9 13.7 23.3 13.7H28.3C28.7 13.7 29 14 29 14.4V19.4C29 19.8 28.7 20.1 28.3 20.1H23.3ZM27.6 18.7V15H24V18.7H27.6Z" fill="#2F2F2F"/>
<path d="M6.8 40C6.6 40 6.4 39.9 6.3 39.8L0.2 33.7C0.1 33.6 0 33.4 0 33.2V10.2C0 9.00002 1 8.00002 2.3 8.00002H13.2V7.60002C13.2 7.20002 13.5 6.90002 13.9 6.90002H19.6C20 6.90002 20.3 7.20002 20.3 7.60002V13.3C20.3 13.7 20 14 19.6 14H13.9C13.5 14 13.2 13.7 13.2 13.3V9.40002H2.3C1.8 9.40002 1.4 9.80002 1.4 10.3V32.6H4.9C6.3 32.6 7.5 33.8 7.5 35.2V38.7H24.3C24.8 38.7 25.2 38.3 25.2 37.8V26.4C25.2 26 25.5 25.7 25.9 25.7C26.3 25.7 26.6 26 26.6 26.4V37.7C26.6 38.9 25.6 40 24.3 40H6.8ZM6.1 37.7V35.2C6.1 34.5 5.6 34 4.9 34H2.3L6.1 37.7ZM18.8 12.6V8.30002H14.5V12.6H18.8V12.6Z" fill="#2F2F2F"/>
<path d="M25.8 23.6C25.6 23.6 25.4 23.5 25.3 23.4C25.2 23.3 25.1 23.1 25.1 22.9C25.1 22.7 25.2 22.5 25.3 22.4C25.4 22.3 25.6 22.2 25.8 22.2C26 22.2 26.2 22.3 26.3 22.4C26.4 22.5 26.5 22.7 26.5 22.9C26.5 23.1 26.4 23.3 26.3 23.4C26.2 23.5 26 23.6 25.8 23.6Z" fill="#2F2F2F"/>
</g>
<defs>
<clipPath id="clip0">
<rect width="40" height="40" fill="white"/>
</clipPath>
</defs>
</svg>
