<svg width="20" height="20" viewBox="0 0 20 20" fill="none" xmlns="http://www.w3.org/2000/svg">
<path d="M16.6172 18.8887H2.97184C2.47834 18.8887 2.00506 18.6927 1.65611 18.3437C1.30715 17.9948 1.11111 17.5215 1.11111 17.028V3.3827C1.11111 2.8892 1.30715 2.41592 1.65611 2.06697C2.00506 1.71801 2.47834 1.52197 2.97184 1.52197H11.6552C11.8197 1.52197 11.9775 1.58732 12.0938 1.70364C12.2101 1.81996 12.2755 1.97772 12.2755 2.14221C12.2755 2.30671 12.2101 2.46447 12.0938 2.58079C11.9775 2.69711 11.8197 2.76246 11.6552 2.76246H2.97184C2.80734 2.76246 2.64958 2.8278 2.53326 2.94412C2.41694 3.06044 2.3516 3.2182 2.3516 3.3827V17.028C2.3516 17.1925 2.41694 17.3503 2.53326 17.4666C2.64958 17.5829 2.80734 17.6483 2.97184 17.6483H16.6172C16.7817 17.6483 16.9394 17.5829 17.0557 17.4666C17.1721 17.3503 17.2374 17.1925 17.2374 17.028V8.34463C17.2374 8.18013 17.3027 8.02237 17.4191 7.90605C17.5354 7.78974 17.6931 7.72439 17.8576 7.72439C18.0221 7.72439 18.1799 7.78974 18.2962 7.90605C18.4125 8.02237 18.4779 8.18013 18.4779 8.34463V17.028C18.4779 17.5215 18.2818 17.9948 17.9329 18.3437C17.5839 18.6927 17.1107 18.8887 16.6172 18.8887Z" fill="#2F2F2F"/>
<path d="M6.07301 14.5469C5.99138 14.5474 5.91046 14.5317 5.83489 14.5009C5.75933 14.47 5.69059 14.4245 5.63264 14.367C5.55796 14.2954 5.50238 14.2063 5.47096 14.1077C5.43955 14.0091 5.43329 13.9042 5.45277 13.8026L6.13503 10.4905C6.15856 10.3709 6.21681 10.2609 6.3025 10.1742L14.651 1.83815C15.1165 1.37262 15.7479 1.11108 16.4062 1.11108C17.0646 1.11108 17.696 1.37262 18.1615 1.83815C18.6271 2.30368 18.8886 2.93507 18.8886 3.59343C18.8886 4.25179 18.6271 4.88318 18.1615 5.34872L9.82547 13.6848C9.73774 13.769 9.62816 13.827 9.50915 13.8522L6.19706 14.5469H6.07301ZM7.31349 10.9185L6.86072 13.1265L9.08118 12.6862L17.2808 4.47417C17.396 4.35892 17.4875 4.22209 17.5498 4.07151C17.6122 3.92092 17.6443 3.75953 17.6443 3.59653C17.6443 3.43354 17.6122 3.27214 17.5498 3.12156C17.4875 2.97097 17.396 2.83414 17.2808 2.71889C17.1655 2.60364 17.0287 2.51221 16.8781 2.44984C16.7275 2.38746 16.5661 2.35536 16.4031 2.35536C16.2401 2.35536 16.0787 2.38746 15.9282 2.44984C15.7776 2.51221 15.6407 2.60364 15.5255 2.71889L7.31349 10.9185Z" fill="#2F2F2F"/>
</svg>
