<svg width="20" height="20" viewBox="0 0 20 20" fill="none" xmlns="http://www.w3.org/2000/svg">
<path d="M16.6 6.60004C16.7 6.60004 16.9 6.70004 17 6.80004L19.8 9.60004L19.9 9.70004L20 9.80004V9.90004V10V10.1V10.2L19.9 10.3L17 13.2C16.9 13.3 16.8 13.4 16.6 13.4C16.5 13.4 16.3 13.3 16.2 13.2C16 13 16 12.7 16.2 12.4L18.1 10.5H6.09998C5.79998 10.5 5.59998 10.3 5.59998 10C5.59998 9.70004 5.79998 9.50004 6.09998 9.50004H18.1L16.2 7.60004C16 7.30004 16 7.00004 16.3 6.80004C16.4 6.70004 16.5 6.60004 16.6 6.60004Z" fill="#2F2F2F"/>
<path d="M7.3 2.70001C9.7 2.70001 12 3.90001 13.4 5.90001C13.6 6.10001 13.5 6.50001 13.3 6.60001C13.2 6.70001 13.1 6.70001 13 6.70001C12.8 6.70001 12.7 6.60001 12.6 6.50001C11.4 4.80001 9.5 3.70001 7.4 3.70001C3.9 3.70001 1.1 6.50001 1.1 10C1.1 13.5 3.9 16.3 7.4 16.3C9.5 16.3 11.4 15.3 12.6 13.5C12.7 13.4 12.9 13.3 13 13.3C13.1 13.3 13.2 13.3 13.3 13.4C13.4 13.5 13.5 13.6 13.5 13.7C13.5 13.8 13.5 14 13.4 14.1C12 16.1 9.8 17.3 7.3 17.3C3.3 17.3 0 14 0 10C0 6.00001 3.3 2.70001 7.3 2.70001Z" fill="#2F2F2F"/>
</svg>
