<?xml version="1.0" encoding="utf-8"?>
<!-- Generator: Adobe Illustrator 22.1.0, SVG Export Plug-In . SVG Version: 6.00 Build 0)  -->
<svg version="1.1" id="Layer_1" xmlns="http://www.w3.org/2000/svg" xmlns:xlink="http://www.w3.org/1999/xlink" x="0px" y="0px"
	 viewBox="0 0 150 39.3" style="enable-background:new 0 0 150 39.3;" xml:space="preserve">
<style type="text/css">
	.st0{fill:#FFFFFF;}
</style>
<title>Fill 1</title>
<desc>Created with Sketch.</desc>
<path id="Fill-1" class="st0" d="M150,29.1v-0.6c0-2-0.5-3.6-1.4-4.6c-0.9-1-2.2-1.5-3.8-1.5c-1,0-1.8,0.2-2.5,0.7
	c-0.7,0.5-1.2,1.2-1.5,2h-0.6v-2.3h-6.6v3.9h2.8V35v3.9h4V35v-5.2c0-1.2,0.3-2.1,0.8-2.7c0.5-0.6,1.2-0.9,2.1-0.9s1.5,0.3,2,0.8
	c0.4,0.5,0.7,1.2,0.7,2.1H150z M131.3,34.6c0.4-1,0.7-2.2,0.7-3.5v-0.4c0-1.3-0.2-2.5-0.7-3.5c-0.4-1-1-1.9-1.8-2.6
	c-0.8-0.7-1.6-1.2-2.6-1.6c-1-0.4-2-0.5-3.1-0.5c-1.1,0-2.1,0.2-3.1,0.5c-1,0.4-1.8,0.9-2.6,1.6c-0.8,0.7-1.4,1.6-1.8,2.6
	c-0.4,1-0.7,2.2-0.7,3.5v0.4c0,1.3,0.2,2.5,0.7,3.5c0.4,1,1,1.9,1.8,2.6c0.8,0.7,1.6,1.2,2.6,1.6c1,0.4,2,0.5,3.1,0.5
	c1.1,0,2.1-0.2,3.1-0.5c1-0.4,1.8-0.9,2.6-1.6C130.3,36.5,130.9,35.6,131.3,34.6z M128,31.2c0,0.7-0.1,1.3-0.3,1.8
	c-0.2,0.5-0.5,1-0.9,1.3c-0.4,0.4-0.8,0.6-1.3,0.8c-0.5,0.2-1,0.3-1.6,0.3c-0.6,0-1.1-0.1-1.6-0.3c-0.5-0.2-0.9-0.5-1.3-0.8
	c-0.4-0.4-0.7-0.8-0.9-1.3c-0.2-0.5-0.3-1.1-0.3-1.8v-0.6c0-0.7,0.1-1.3,0.3-1.8c0.2-0.5,0.5-1,0.9-1.3c0.4-0.4,0.8-0.6,1.3-0.8
	c0.5-0.2,1-0.3,1.6-0.3c0.6,0,1.1,0.1,1.6,0.3c0.5,0.2,0.9,0.5,1.3,0.8c0.4,0.4,0.7,0.8,0.9,1.3c0.2,0.5,0.3,1.1,0.3,1.8V31.2z
	 M108.2,26.7h5.7v-3.9h-5.7v-4.7h-4v4.7h-2.8v3.9h2.8v9.6c0,0.7,0.2,1.3,0.7,1.8c0.5,0.5,1,0.7,1.8,0.7h6.6V35H109
	c-0.6,0-0.9-0.3-0.9-1V26.7z M95.5,38.9h4V28.7c0-1.1-0.1-2-0.4-2.8c-0.3-0.8-0.7-1.4-1.2-2s-1.1-0.9-1.8-1.1
	c-0.7-0.2-1.4-0.4-2.1-0.4c-1.1,0-2,0.2-2.8,0.7c-0.8,0.5-1.4,1.2-1.7,2.1h-0.6v-2.4h-4v16h4v-8.3c0-1.4,0.3-2.4,0.9-3.2
	c0.6-0.8,1.5-1.2,2.6-1.2c1,0,1.8,0.3,2.3,1c0.5,0.7,0.8,1.6,0.8,2.7V38.9z M79.4,38.9h2.7V35h-0.6c-0.6,0-0.9-0.3-0.9-1V22.9h-4
	v1.9h-0.6c-0.4-0.8-0.9-1.4-1.6-1.8c-0.7-0.4-1.6-0.6-2.7-0.6c-0.9,0-1.8,0.2-2.6,0.6c-0.8,0.4-1.5,0.9-2.1,1.6
	c-0.6,0.7-1.1,1.6-1.5,2.6c-0.4,1-0.5,2.1-0.5,3.4v0.5c0,1.3,0.2,2.4,0.6,3.4c0.4,1,0.9,1.9,1.5,2.6c0.6,0.7,1.4,1.2,2.2,1.6
	c0.8,0.4,1.7,0.5,2.7,0.5c1,0,1.9-0.2,2.7-0.6c0.8-0.4,1.3-1.1,1.8-2.1H77c0,0.7,0.2,1.2,0.7,1.7C78.1,38.6,78.7,38.9,79.4,38.9z
	 M76.7,31.1c0,1.4-0.3,2.4-1,3.2c-0.7,0.8-1.6,1.2-2.8,1.2c-1.2,0-2.1-0.4-2.8-1.2c-0.7-0.8-1-1.9-1-3.2v-0.4c0-1.4,0.3-2.4,1-3.2
	c0.7-0.8,1.6-1.2,2.8-1.2c1.2,0,2.1,0.4,2.8,1.2c0.7,0.8,1,1.9,1,3.2V31.1z M57.4,26.7h5.7v-3.9h-5.7v-4.7h-4v4.7h-2.8v3.9h2.8v9.6
	c0,0.7,0.2,1.3,0.7,1.8c0.5,0.5,1,0.7,1.8,0.7h6.6V35h-4.2c-0.6,0-0.9-0.3-0.9-1V26.7z M49,34.1v-0.2c0-1.4-0.5-2.6-1.5-3.4
	c-1-0.8-2.3-1.3-3.9-1.5c-1.4-0.2-2.4-0.3-2.9-0.6c-0.5-0.2-0.8-0.6-0.8-1.1c0-0.4,0.2-0.7,0.5-0.9c0.3-0.2,0.8-0.4,1.5-0.4
	c0.7,0,1.3,0.2,1.8,0.5c0.5,0.3,0.8,0.8,1,1.4l3.6-1.5c-0.2-0.5-0.4-0.9-0.7-1.4c-0.3-0.5-0.7-0.9-1.2-1.3c-0.5-0.4-1.1-0.7-1.8-1
	c-0.7-0.2-1.6-0.4-2.6-0.4c-0.8,0-1.5,0.1-2.2,0.3c-0.7,0.2-1.3,0.5-1.9,1c-0.5,0.4-1,0.9-1.3,1.5c-0.3,0.6-0.5,1.3-0.5,2.1v0.2
	c0,1.5,0.5,2.7,1.6,3.5c1,0.8,2.4,1.3,4.2,1.4c0.7,0.1,1.2,0.2,1.6,0.3c0.4,0.1,0.8,0.2,1,0.4c0.3,0.2,0.4,0.3,0.5,0.5
	c0.1,0.2,0.1,0.4,0.1,0.6c0,0.4-0.2,0.7-0.6,1c-0.4,0.3-1,0.5-2,0.5c-1.1,0-1.9-0.3-2.5-0.8c-0.5-0.5-0.9-1.1-1.1-1.8l-3.7,1.2
	c0.1,0.6,0.3,1.1,0.6,1.7c0.3,0.6,0.7,1.1,1.3,1.6c0.6,0.5,1.3,0.9,2.2,1.2c0.9,0.3,1.9,0.5,3.1,0.5c2.1,0,3.7-0.5,4.8-1.4
	C48.4,36.9,49,35.7,49,34.1z M28.9,38.9h4V28.7c0-1.1-0.1-2-0.4-2.8c-0.3-0.8-0.7-1.4-1.2-2c-0.5-0.5-1.1-0.9-1.8-1.1
	c-0.7-0.2-1.4-0.4-2.1-0.4c-1.1,0-2,0.2-2.8,0.7c-0.8,0.5-1.4,1.2-1.7,2.1h-0.6v-2.4h-4v16h4v-8.3c0-1.4,0.3-2.4,0.9-3.2
	c0.6-0.8,1.5-1.2,2.6-1.2c1,0,1.8,0.3,2.3,1c0.5,0.7,0.8,1.6,0.8,2.7V38.9z M20.3,6.1c0-3.4-2.7-6.1-6-6.1s-6,2.7-6,6.1
	s2.7,6.1,6,6.1S20.3,9.4,20.3,6.1z M8.4,12.5c0-2.4-1.9-4.3-4.2-4.3S0,10.2,0,12.5c0,2.4,1.9,4.3,4.2,4.3S8.4,14.9,8.4,12.5z
	 M13.4,22.9H6.5v3.9h2.9V35v3.9h4V35V22.9z M11.4,20.9c1.6,0,3-1.4,3-3c0-1.7-1.3-3-3-3c-1.6,0-3,1.4-3,3
	C8.4,19.5,9.7,20.9,11.4,20.9z"/>
</svg>
