<svg width="20" height="20" viewBox="0 0 20 20" fill="none" xmlns="http://www.w3.org/2000/svg">
<g clip-path="url(#clip0)">
<path d="M13.4763 16.819C13.1943 17.1009 12.7504 17.1009 12.4684 16.819C12.196 16.5466 12.196 16.0931 12.4684 15.8213L17.5786 10.7112L0.715735 10.7112C0.322644 10.7112 4.37111e-05 10.3987 4.37455e-05 10.0056C4.37799e-05 9.61253 0.322644 9.28993 0.715735 9.28993L17.5786 9.28993L12.4685 4.18928C12.196 3.90732 12.196 3.45327 12.4685 3.18147C12.7504 2.89951 13.1943 2.89951 13.4763 3.18147L19.7962 9.5014C20.0686 9.77384 20.0686 10.2273 19.7962 10.4991L13.4763 16.819Z" fill="#2F2F2F"/>
</g>
<defs>
<clipPath id="clip0">
<rect width="20" height="20" fill="white" transform="translate(20 20) rotate(-180)"/>
</clipPath>
</defs>
</svg>
