<svg class="menu" width="20" height="15" viewBox="0 0 20 15" fill="none" xmlns="http://www.w3.org/2000/svg">
	<path d="M19.3 1.5H0.7C0.3 1.5 0 1.1 0 0.7C0 0.3 0.3 0 0.7 0H19.3C19.7 0 20 0.3 20 0.7C20 1.1 19.7 1.5 19.3 1.5Z" fill="#ffffff"/>
	<path d="M19.3 8.19999H0.7C0.3 8.19999 0 7.89999 0 7.49999C0 7.09999 0.3 6.79999 0.7 6.79999H19.3C19.7 6.79999 20 7.09999 20 7.49999C20 7.89999 19.7 8.19999 19.3 8.19999Z" fill="#ffffff"/>
	<path d="M19.3 15H5.29998C4.89998 15 4.59998 14.7 4.59998 14.3C4.59998 13.9 4.89998 13.6 5.29998 13.6H19.3C19.7 13.6 20 13.9 20 14.3C20 14.7 19.7 15 19.3 15Z" fill="#ffffff"/>
</svg>