<svg width="40" height="40" viewBox="0 0 40 40" fill="none" xmlns="http://www.w3.org/2000/svg">
<path d="M4.10002 25C4.48662 25 4.80002 24.6866 4.80002 24.3C4.80002 23.9134 4.48662 23.6 4.10002 23.6C3.71342 23.6 3.40002 23.9134 3.40002 24.3C3.40002 24.6866 3.71342 25 4.10002 25Z" fill="#2F2F2F"/>
<path d="M20.7 40C19.1 40 17.6 39.7 16.1 39.1L8.6 36.1H7.9V37C7.9 37.4 7.6 37.7 7.2 37.7H0.7C0.3 37.6 0 37.3 0 37V22.8C0 22.4 0.3 22.1 0.7 22.1H7.2C7.6 22.1 7.9 22.4 7.9 22.8V23.7H13.2C14.1 23.7 15 23.9 15.8 24.4L19.9 26.7C20 26.8 20.2 26.8 20.3 26.8H25.4C27.1 26.8 28.4 28.2 28.4 29.8C28.4 29.9 28.4 30.1 28.4 30.2V30.4L36 27.4C36.3 27.3 36.7 27.2 37 27.2C37.6 27.2 38.2 27.4 38.7 27.7C39.5 28.2 39.9 29.1 39.9 30.1C39.9 31.3 39.2 32.4 38.1 32.8L25.6 38.7C24.1 39.6 22.4 40 20.7 40ZM8.7 34.7C8.8 34.7 8.9 34.7 9 34.7L16.6 37.8C17.9 38.3 19.2 38.6 20.6 38.6C22.1 38.6 23.6 38.3 25.1 37.6L37.6 31.7C38.2 31.4 38.6 30.9 38.6 30.2C38.6 29.7 38.4 29.2 37.9 28.9C37.6 28.7 37.3 28.6 37 28.6C36.8 28.6 36.6 28.6 36.5 28.7L27 32.6C26.6 32.8 26 33 25.5 33H17.5C17 33 16.6 33.4 16.6 33.9C16.6 34.3 16.3 34.6 15.9 34.6C15.5 34.6 15.2 34.3 15.2 33.9C15.2 32.7 16.2 31.6 17.5 31.6H25.5C25.7 31.6 26 31.5 26.2 31.4C26.3 31.4 26.3 31.3 26.4 31.3C26.9 31 27.2 30.4 27.2 29.9C27.2 29 26.4 28.2 25.5 28.2H20.4C20 28.2 19.6 28.1 19.3 27.9L15.2 25.6C14.6 25.3 13.9 25.1 13.2 25.1H7.9V34.7H8.7V34.7ZM6.5 36.3V23.5H1.4V36.3H6.5Z" fill="#2F2F2F"/>
<path d="M4.10002 32.8C3.70002 32.8 3.40002 32.5 3.40002 32.1V27.4C3.40002 27 3.70002 26.7 4.10002 26.7C4.50002 26.7 4.80002 27 4.80002 27.4V32.1C4.70002 32.5 4.40002 32.8 4.10002 32.8Z" fill="#2F2F2F"/>
<path d="M31 22.5C28.5 22.5 26.4 20.4 26.4 17.9C26.4 15.4 28.5 13.3 31 13.3C33.5 13.3 35.6 15.4 35.6 17.9C35.6 20.5 33.5 22.5 31 22.5ZM31 14.7C29.2 14.7 27.8 16.2 27.8 17.9C27.8 19.7 29.3 21.1 31 21.1C32.8 21.1 34.2 19.6 34.2 17.9C34.2 16.1 32.8 14.7 31 14.7Z" fill="#2F2F2F"/>
<path d="M27.9 9.2C25.4 9.2 23.3 7.1 23.3 4.6C23.3 2.1 25.4 0 27.9 0C30.4 0 32.5 2.1 32.5 4.6C32.5 7.2 30.4 9.2 27.9 9.2ZM27.9 1.4C26.1 1.4 24.7 2.9 24.7 4.6C24.7 6.3 26.2 7.8 27.9 7.8C29.7 7.8 31.1 6.3 31.1 4.6C31.1 2.9 29.6 1.4 27.9 1.4Z" fill="#2F2F2F"/>
<path d="M18.4 19.4C15.9 19.4 13.8 17.3 13.8 14.8C13.8 12.3 15.9 10.2 18.4 10.2C20.9 10.2 23 12.3 23 14.8C23 17.3 21 19.4 18.4 19.4ZM18.4 11.5C16.6 11.5 15.2 13 15.2 14.7C15.2 16.4 16.7 17.9 18.4 17.9C20.2 17.9 21.6 16.4 21.6 14.7C21.6 13 20.2 11.5 18.4 11.5Z" fill="#2F2F2F"/>
</svg>
