<svg xmlns:dc="http://purl.org/dc/elements/1.1/" xmlns:cc="http://creativecommons.org/ns#" xmlns:rdf="http://www.w3.org/1999/02/22-rdf-syntax-ns#" xmlns:svg="http://www.w3.org/2000/svg" xmlns="http://www.w3.org/2000/svg" xmlns:sodipodi="http://sodipodi.sourceforge.net/DTD/sodipodi-0.dtd" xmlns:inkscape="http://www.inkscape.org/namespaces/inkscape" version="1.1" x="0px" y="0px" viewBox="0 0 100 125"><g transform="translate(0,-952.36218)"><path style="font-size:medium;font-style:normal;font-variant:normal;font-weight:normal;font-stretch:normal;text-indent:0;text-align:start;text-decoration:none;line-height:normal;letter-spacing:normal;word-spacing:normal;text-transform:none;direction:ltr;block-progression:tb;writing-mode:lr-tb;text-anchor:start;baseline-shift:baseline;opacity:1;color:#000000;fill:#000000;fill-opacity:1;stroke:none;stroke-width:4;marker:none;visibility:visible;display:inline;overflow:visible;enable-background:accumulate;font-family:Sans;-inkscape-font-specification:Sans" d="M 37.6875 13 C 37.423016 13.003 37.284175 13.0321 37.15625 13.0625 C 36.9004 13.1234 36.741694 13.17694 36.5625 13.25 C 36.204111 13.39612 35.812337 13.58403 35.375 13.8125 C 34.500326 14.26944 33.436861 14.89827 32.3125 15.59375 L 15.21875 26.15625 A 2.0002 2.0002 0 1 0 17.3125 29.5625 L 34.40625 19 C 35.461432 18.34732 36.503719 17.76487 37.25 17.375 C 37.32463 17.336 37.33749 17.31595 37.40625 17.28125 C 45.298398 23.9179 53.162059 30.55372 61.0625 37.1875 A 2.0002 2.0002 0 0 0 63.40625 37.375 L 81.84375 26.21875 L 81.21875 28.96875 A 2.0002 2.0002 0 1 0 85.09375 29.875 L 86.8125 22.375 A 2.0002 2.0002 0 0 0 85.28125 20 L 77.625 18.375 A 2.0002 2.0002 0 0 0 77.21875 18.3125 A 2.0002 2.0002 0 0 0 76.8125 22.28125 L 79.65625 22.875 L 62.53125 33.1875 C 54.706197 26.61611 46.88133 20.04376 39.0625 13.46875 C 38.448072 12.95274 37.951984 12.9974 37.6875 13 z M 32.4375 29.875 C 31.867742 29.875 31.329289 29.9076 30.78125 30.0625 C 30.50723 30.14 30.242783 30.25052 29.875 30.5 C 29.507217 30.74948 28.84375 31.36019 28.84375 32.34375 L 28.84375 84.53125 C 28.84375 85.51785 29.507913 86.1261 29.875 86.375 C 30.242087 86.6239 30.507419 86.70375 30.78125 86.78125 C 31.328912 86.93645 31.866876 87 32.4375 87 L 44.84375 87 C 45.413563 87 45.941895 86.93 46.5 86.75 C 46.779053 86.66 47.076059 86.5429 47.4375 86.25 C 47.798941 85.9571 48.28125 85.33785 48.28125 84.53125 L 48.28125 32.34375 C 48.28125 31.53447 47.79833 30.88579 47.4375 30.59375 C 47.07667 30.30171 46.778786 30.18384 46.5 30.09375 C 45.942427 29.91358 45.414341 29.875 44.84375 29.875 L 32.4375 29.875 z M 32.84375 33.875 L 44.28125 33.875 L 44.28125 83 L 32.84375 83 L 32.84375 33.875 z M 78 35.125 C 77.445212 35.125 76.93958 35.1581 76.40625 35.3125 C 76.139585 35.3897 75.864008 35.48635 75.5 35.75 C 75.135992 36.01365 74.5625 36.64058 74.5625 37.53125 L 74.5625 84.25 C 74.5625 85.1373 75.135214 85.76685 75.5 86.03125 C 75.864786 86.29575 76.170598 86.39155 76.4375 86.46875 C 76.971305 86.62295 77.446062 86.65625 78 86.65625 L 90.4375 86.65625 C 90.99233 86.65625 91.505749 86.6332 92.03125 86.5 C 92.294001 86.433 92.54353 86.345 92.90625 86.125 C 93.26897 85.905 94 85.3396 94 84.25 L 94 37.53125 C 94 36.44611 93.269839 35.877 92.90625 35.65625 C 92.542661 35.4355 92.294229 35.37912 92.03125 35.3125 C 91.505292 35.17927 90.991448 35.125 90.4375 35.125 L 78 35.125 z M 9.4375 37.46875 C 8.8886166 37.46875 8.398857 37.51105 7.875 37.65625 C 7.6130715 37.72885 7.332707 37.81026 6.96875 38.0625 C 6.604793 38.31474 6 38.94913 6 39.875 L 6 84.59375 C 6 85.51895 6.6047334 86.15385 6.96875 86.40625 C 7.3327666 86.65875 7.6130096 86.7399 7.875 86.8125 C 8.3989808 86.9578 8.8886166 87 9.4375 87 L 21.84375 87 C 22.392643 87 22.92036 86.938 23.4375 86.8125 C 23.69607 86.7495 23.952434 86.67775 24.3125 86.46875 C 24.672566 86.25965 25.4375 85.72665 25.4375 84.59375 L 25.4375 39.875 C 25.4375 38.74134 24.672477 38.20892 24.3125 38 C 23.952523 37.79108 23.696015 37.71904 23.4375 37.65625 C 22.920471 37.53067 22.392643 37.46875 21.84375 37.46875 L 9.4375 37.46875 z M 78.5625 39.125 L 90 39.125 L 90 82.65625 L 78.5625 82.65625 L 78.5625 39.125 z M 55.28125 41.03125 C 54.744609 41.03125 54.250888 41.07645 53.75 41.1875 C 53.499556 41.243 53.260074 41.31195 52.90625 41.5 C 52.729338 41.594 52.501043 41.72101 52.25 42 C 51.998957 42.27899 51.71875 42.79462 51.71875 43.40625 L 51.71875 84.3125 C 51.71875 84.9263 51.998895 85.44035 52.25 85.71875 C 52.501105 85.99705 52.729685 86.12495 52.90625 86.21875 C 53.25938 86.40615 53.499733 86.47575 53.75 86.53125 C 54.250534 86.64235 54.744064 86.65625 55.28125 86.65625 L 67.71875 86.65625 C 68.255365 86.65625 68.713186 86.6282 69.21875 86.5 C 69.471532 86.436 69.731046 86.38645 70.09375 86.15625 C 70.456454 85.92615 71.15625 85.3101 71.15625 84.3125 L 71.15625 43.40625 C 71.15625 42.40631 70.455925 41.79221 70.09375 41.5625 C 69.731575 41.33279 69.471431 41.2515 69.21875 41.1875 C 68.713388 41.0595 68.255894 41.03125 67.71875 41.03125 L 55.28125 41.03125 z M 10 41.46875 L 21.4375 41.46875 L 21.4375 83 L 10 83 L 10 41.46875 z M 55.71875 45.03125 L 67.15625 45.03125 L 67.15625 82.65625 L 55.71875 82.65625 L 55.71875 45.03125 z " transform="translate(0,952.36218)"/></g><text x="0" y="115" fill="#000000" font-size="5px" font-weight="bold" font-family="'Helvetica Neue', Helvetica, Arial-Unicode, Arial, Sans-serif">Created by counloucon</text><text x="0" y="120" fill="#000000" font-size="5px" font-weight="bold" font-family="'Helvetica Neue', Helvetica, Arial-Unicode, Arial, Sans-serif">from the Noun Project</text></svg>