<svg xmlns="http://www.w3.org/2000/svg" xmlns:xlink="http://www.w3.org/1999/xlink" xml:space="preserve" version="1.1" style="shape-rendering:geometricPrecision;text-rendering:geometricPrecision;image-rendering:optimizeQuality;" viewBox="0 0 1000 1250" x="0px" y="0px" fill-rule="evenodd" clip-rule="evenodd"><defs><style type="text/css">
   
    .fil0 {fill:black;fill-rule:nonzero}
   
  </style></defs><g><path class="fil0" d="M584 465l152 -152 -49 -49 -153 152c-5,7 -27,56 -45,95 40,-18 90,-41 95,-46l0 0zm195 -138l-166 166 0 0c-12,12 -87,45 -130,64 -12,5 -21,9 -25,11 -5,2 -11,3 -16,0 -10,-5 -15,-16 -10,-26 2,-4 6,-13 11,-25 17,-39 47,-107 61,-126 1,-1 2,-3 3,-4l164 -164 0 0 2 -2 32 -32c11,-11 26,-17 41,-17 15,0 30,6 41,17l0 0 24 24c11,11 17,26 17,41 0,15 -6,30 -17,41l0 0 -32 32zm-64 -91l49 49 18 -18 0 0c4,-3 6,-8 6,-13 0,-5 -2,-9 -6,-13l-23 -23 0 0c-4,-4 -8,-6 -13,-6 -5,0 -10,2 -13,6l-18 18z"/><path class="fil0" d="M743 597c0,-11 9,-20 20,-20 11,0 20,9 20,20l0 151c0,22 -9,42 -24,56 -14,15 -34,24 -56,24l-451 0c-22,0 -42,-9 -56,-24 -15,-14 -24,-34 -24,-56l0 -451c0,-22 9,-42 24,-56 14,-15 34,-24 56,-24l151 0c11,0 20,9 20,20 0,11 -9,20 -20,20l-151 0c-11,0 -21,5 -28,12 -7,7 -12,17 -12,28l0 451c0,11 5,21 12,28 7,7 17,12 28,12l451 0c11,0 21,-5 28,-12 7,-7 12,-17 12,-28l0 -151z"/></g><text x="0" y="1015" fill="#000000" font-size="5px" font-weight="bold" font-family="'Helvetica Neue', Helvetica, Arial-Unicode, Arial, Sans-serif">Created by fibo junior</text><text x="0" y="1020" fill="#000000" font-size="5px" font-weight="bold" font-family="'Helvetica Neue', Helvetica, Arial-Unicode, Arial, Sans-serif">from the Noun Project</text></svg>