<svg xmlns="http://www.w3.org/2000/svg" xmlns:xlink="http://www.w3.org/1999/xlink" viewBox="0 0 24 30" version="1.1" x="0px" y="0px"><title>icon-video 1</title><desc>Created with love by @immaulana.</desc><g stroke="none" stroke-width="1" fill="none" fill-rule="evenodd"><path d="M12,23.5 C5.65827429,23.5 0.5,18.3417257 0.5,12 C0.5,5.658881 5.65858424,0.5 12,0.5 C18.3414158,0.5 23.5,5.658881 23.5,12 C23.5,18.3417257 18.3417257,23.5 12,23.5 Z M12,22.5 C17.789441,22.5 22.5,17.789441 22.5,12 C22.5,6.21115287 17.7891181,1.5 12,1.5 C6.21088186,1.5 1.5,6.21115287 1.5,12 C1.5,17.789441 6.21055904,22.5 12,22.5 Z M16.3139014,11.931788 L8.95703928,7.70528067 C8.807757,7.61951821 8.83333333,7.60483309 8.83333333,7.77314348 L8.83333333,16.2261581 C8.83333333,16.3944779 8.80776351,16.3797796 8.95703928,16.2940209 L16.3139014,12.0675136 C16.4611755,11.9829048 16.4611671,12.0163919 16.3139014,11.931788 Z M16.8120457,11.0646939 C17.6285731,11.5337877 17.6283399,12.4656478 16.8120457,12.9346077 L9.45518366,17.161115 C8.6406663,17.6290541 7.83333333,17.1649756 7.83333333,16.2261581 L7.83333333,7.77314348 C7.83333333,6.83405818 8.64089769,6.37038039 9.45518366,6.83818658 L16.8120457,11.0646939 Z" fill="#000000" fill-rule="nonzero"/></g><text x="0" y="39" fill="#000000" font-size="5px" font-weight="bold" font-family="'Helvetica Neue', Helvetica, Arial-Unicode, Arial, Sans-serif">Created by Imam Maulana</text><text x="0" y="44" fill="#000000" font-size="5px" font-weight="bold" font-family="'Helvetica Neue', Helvetica, Arial-Unicode, Arial, Sans-serif">from the Noun Project</text></svg>