<svg xmlns="http://www.w3.org/2000/svg" xmlns:xlink="http://www.w3.org/1999/xlink" version="1.1" x="0px" y="0px" viewBox="0 0 64 80" enable-background="new 0 0 64 64" xml:space="preserve"><g><g><path d="M57.484,19.347c-0.003-0.025-0.004-0.049-0.009-0.074c-0.023-0.112-0.066-0.218-0.125-0.315    c-0.005-0.009-0.005-0.02-0.011-0.029c-0.009-0.014-0.023-0.021-0.033-0.034c-0.063-0.087-0.137-0.166-0.226-0.229    c-0.01-0.007-0.017-0.017-0.027-0.023c-0.002-0.001-0.003-0.003-0.005-0.004l-12.234-7.978c-0.003-0.002-0.005-0.003-0.008-0.005    L32.546,2.663c-0.332-0.217-0.761-0.217-1.093,0l-24.5,15.976c-0.002,0.001-0.003,0.003-0.005,0.004    c-0.01,0.006-0.017,0.016-0.026,0.022c-0.089,0.064-0.164,0.143-0.227,0.23c-0.01,0.013-0.024,0.02-0.033,0.034    c-0.006,0.009-0.006,0.02-0.011,0.029c-0.06,0.097-0.102,0.203-0.125,0.315c-0.005,0.024-0.006,0.048-0.009,0.073    C6.511,19.39,6.5,19.432,6.5,19.476v24.87c0,0.336,0.169,0.65,0.45,0.835l24.5,16.154c0.033,0.022,0.071,0.032,0.106,0.049    c0.033,0.017,0.064,0.033,0.099,0.046c0.112,0.042,0.228,0.07,0.346,0.07s0.233-0.028,0.346-0.07    c0.035-0.013,0.065-0.029,0.099-0.046c0.035-0.018,0.073-0.027,0.106-0.049l24.5-16.154c0.281-0.185,0.45-0.499,0.45-0.835v-24.87    C57.5,19.432,57.489,19.39,57.484,19.347z M32,34.257l-10.419-6.794L44.25,12.682l10.419,6.794L32,34.257z M32,4.694l10.418,6.793    L19.75,26.27L9.331,19.476L32,4.694z M8.5,39.685l6.7,4.417c0.169,0.112,0.36,0.165,0.549,0.165c0.325,0,0.644-0.158,0.836-0.45    c0.304-0.461,0.177-1.081-0.285-1.385L8.5,37.29v-1.859l4.2,2.769c0.169,0.112,0.36,0.165,0.549,0.165    c0.325,0,0.644-0.158,0.836-0.45c0.304-0.461,0.177-1.081-0.285-1.385l-5-3.296c-0.094-0.062-0.197-0.094-0.3-0.122v-11.79    L31,35.993v22.65L8.5,43.808V39.685z M33,58.643v-22.65l22.5-14.671v22.486L33,58.643z"/></g></g><text x="0" y="79" fill="#000000" font-size="5px" font-weight="bold" font-family="'Helvetica Neue', Helvetica, Arial-Unicode, Arial, Sans-serif">Created by Dennis</text><text x="0" y="84" fill="#000000" font-size="5px" font-weight="bold" font-family="'Helvetica Neue', Helvetica, Arial-Unicode, Arial, Sans-serif">from the Noun Project</text></svg>