<svg width="40" height="40" viewBox="0 0 40 40" fill="none" xmlns="http://www.w3.org/2000/svg">
<g clip-path="url(#clip0)">
<path d="M31.6 40C30 40 28.5 39.5 27.1 38.7C24.8 39.6 22.4 40 20 40C9 40 0 31 0 20C0 15.7 1.3 11.6 3.9 8.2V0.4C3.9 0.2 4.1 0 4.3 0H7.3C7.5 0 7.7 0.2 7.7 0.4V2.6H10.2C13.2 0.9 16.6 0 20 0C21.2 0 22.5 0.1 23.7 0.3C32.7 2 39.6 9.9 40 19.1C40.1 21.9 39.7 24.6 38.7 27.1C39.6 28.5 40 30 40 31.6C40 33.1 39.6 34.6 38.8 35.9C38.7 36.1 38.6 36.2 38.5 36.3C38.4 36.4 38.2 36.4 38.1 36.4C37.7 36.4 37.4 36.1 37.4 35.7C37.4 35.6 37.4 35.5 37.4 35.4C37.4 35.3 37.5 35.3 37.5 35.2C38.2 34.1 38.6 32.8 38.6 31.4C38.6 27.5 35.4 24.3 31.5 24.3C29.4 24.3 27.3 25.3 26 26.9C24.6 28.6 24.1 30.8 24.6 32.9C25.1 35.2 26.7 37.1 28.9 38C29.8 38.3 30.6 38.5 31.5 38.5C33 38.5 34.4 38 35.6 37.2C35.7 37.1 35.8 37.1 36 37.1C36.4 37.1 36.7 37.4 36.7 37.8C36.7 37.9 36.7 38 36.6 38.1C36.5 38.2 36.3 38.3 36.2 38.4C34.9 39.5 33.3 40 31.6 40ZM1.3 20.6C1.6 30.4 9.6 38.3 19.3 38.6V20.6H1.3ZM20.6 38.7C22.4 38.6 24.2 38.3 25.9 37.8C24.2 36.2 23.2 34 23.2 31.7C23.2 27.1 27 23.3 31.6 23.3C34 23.3 36.1 24.3 37.7 26C38.3 24.3 38.6 22.5 38.7 20.7H20.7V38.7H20.6ZM38.7 19.4C38.6 17.8 38.4 16.2 37.9 14.7L33.2 19.4H38.7ZM31.4 19.4L37.5 13.3C37.1 12.3 36.7 11.5 36.2 10.6L29.7 17C29.6 17.1 29.5 17.1 29.3 17.1C28.9 17.1 28.6 16.8 28.6 16.4C28.6 16.3 28.6 16.2 28.6 16.1L28.9 15.8L35.3 9.4C34.8 8.6 34.2 7.9 33.5 7.2L21.6 19.4H25.6L26.9 18.1C27 18 27.2 18 27.3 18C27.7 18 28 18.3 28 18.7C28 18.8 28 18.9 27.9 19L27.5 19.4H31.4V19.4ZM19.4 19.4V1.4C16.2 1.5 13.1 2.4 10.4 4.1V5.3H12.2C12.7 5.3 13 5.7 13 6.1V7.9H14.8C15.3 7.9 15.6 8.3 15.6 8.7V10.5H17.4C17.9 10.5 18.2 10.9 18.2 11.3V16.1C18.2 16.6 17.8 17 17.3 17H4.7C4.2 17 3.8 16.6 3.8 16.1V10.7C2.2 13.4 1.4 16.4 1.3 19.5H19.4V19.4ZM27.5 6C27.9 6 28.2 6.3 28.2 6.7C28.2 6.8 28.2 6.9 28.1 7C28 7.1 28 7.2 27.9 7.2L20.7 14.4V18.4L32.8 6.3C32.1 5.7 31.4 5.1 30.6 4.5L29.8 5.3C29.7 5.4 29.6 5.4 29.4 5.4C29 5.4 28.7 5.1 28.7 4.7C28.7 4.6 28.7 4.5 28.8 4.4L29.5 3.7C28.6 3.2 27.7 2.8 26.8 2.4L20.7 8.5V12.5L26.9 6.3L27.2 6C27.3 6.1 27.4 6 27.5 6ZM16.8 15.5V11.6H15.5V15.5H16.8ZM14.2 15.5V9H12.9V15.4H14.2V15.5ZM11.6 15.5V6.5H10.3V15.5H11.6ZM9 15.5V3.9H7.7V15.5H9ZM6.4 15.5V1.3H5.2V15.5H6.4ZM20.6 6.8L25.3 2C23.8 1.5 22.2 1.3 20.6 1.2V6.8Z" fill="#2F2F2F"/>
<path d="M14.8 32.3C13.7 32.3 12.9 31.4 12.9 30.4C12.9 29.3 13.8 28.5 14.8 28.5C15.8 28.5 16.7 29.4 16.7 30.4C16.8 31.4 15.9 32.3 14.8 32.3ZM14.8 29.7C14.4 29.7 14.2 30 14.2 30.3C14.2 30.6 14.5 30.9 14.8 30.9C15.1 30.9 15.4 30.6 15.4 30.3C15.4 30 15.2 29.7 14.8 29.7Z" fill="#2F2F2F"/>
<path d="M9.69999 27.1C8.59999 27.1 7.79999 26.2 7.79999 25.2C7.79999 24.2 8.69999 23.3 9.69999 23.3C10.7 23.3 11.6 24.2 11.6 25.2C11.6 26.2 10.7 27.1 9.69999 27.1ZM9.69999 24.5C9.29999 24.5 9.09999 24.8 9.09999 25.1C9.09999 25.4 9.39999 25.7 9.69999 25.7C9.99999 25.7 10.3 25.4 10.3 25.1C10.3 24.8 9.99999 24.5 9.69999 24.5Z" fill="#2F2F2F"/>
<path d="M31.6 37.4C31.2 37.4 31 37.1 31 36.8V36C29.9 35.7 29.1 34.7 29.1 33.6V33.5H30.4V33.6C30.4 34.3 31 34.8 31.7 34.8C32.4 34.8 33 34.2 33 33.5C33 32.8 32.4 32.2 31.7 32.2C30.3 32.2 29.1 31 29.1 29.6C29.1 28.4 29.9 27.4 31 27.1V26.3C31 26 31.2 25.7 31.5 25.7H31.8C32.1 25.8 32.3 26 32.3 26.3V27.1C33.4 27.4 34.2 28.4 34.2 29.5V29.6H32.9V29.5C32.9 28.8 32.3 28.3 31.6 28.3C30.9 28.3 30.3 28.9 30.3 29.6C30.3 30.3 30.9 30.9 31.6 30.9C33 30.9 34.2 32.1 34.2 33.5C34.2 34.7 33.4 35.7 32.3 36V36.7C32.3 37.1 32 37.4 31.6 37.4Z" fill="#2F2F2F"/>
<path d="M8.79998 31.8C8.59998 31.8 8.49998 31.7 8.29998 31.6C8.19998 31.5 8.09998 31.3 8.09998 31.1C8.09998 30.9 8.19998 30.8 8.29998 30.6L15.1 23.8C15.2 23.7 15.4 23.6 15.6 23.6C15.8 23.6 15.9 23.7 16.1 23.8C16.2 23.9 16.3 24.1 16.3 24.3C16.3 24.5 16.2 24.6 16.1 24.8L9.29998 31.6C9.19998 31.7 8.99998 31.8 8.79998 31.8Z" fill="#2F2F2F"/>
<path d="M26.5 32.2C26.8314 32.2 27.1 31.9314 27.1 31.6C27.1 31.2686 26.8314 31 26.5 31C26.1687 31 25.9 31.2686 25.9 31.6C25.9 31.9314 26.1687 32.2 26.5 32.2Z" fill="#2F2F2F"/>
<path d="M36.8 32.3C36.4 32.3 36.2 32 36.2 31.7C36.2 31.4 36.5 31.1 36.8 31.1C37.2 31.1 37.4 31.4 37.4 31.7C37.4 32 37.1 32.3 36.8 32.3Z" fill="#2F2F2F"/>
</g>
<defs>
<clipPath id="clip0">
<rect width="40" height="40" fill="white"/>
</clipPath>
</defs>
</svg>
