<svg width="40" height="40" viewBox="0 0 40 40" fill="none" xmlns="http://www.w3.org/2000/svg">
<g clip-path="url(#clip0)">
<path d="M14 36.1C13.8 36.1 13.6 36 13.5 35.9C13.2 35.6 13.2 35.2 13.5 34.9L20.5 27.9C20.6 27.8 20.8 27.7 21 27.7C21.4 27.7 21.7 27.7 22.1 27.6C22.5 27.5 23 27.5 23.4 27.3L23.6 27.2L23.5 27.4C23.3 27.8 23.2 28.2 23.1 28.7V28.8H23C22.6 28.9 22.2 28.9 21.7 29H21.4L20.8 29.5L20.7 29.6L20.8 29.7C21 29.8 21.3 30 21.5 30.1C21.9 30.2 22.3 30.4 22.7 30.4H22.8V30.7C22.8 31 22.8 31.4 22.9 31.7V31.8H22.8C22.4 31.7 22 31.7 21.6 31.5C21 31.3 20.4 31 19.8 30.7H19.7L14.5 35.9C14.3 36.1 14.1 36.1 14 36.1ZM0.699976 29.9C0.499976 29.9 0.299976 29.8 0.199976 29.7C-0.100024 29.4 -0.100024 29 0.199976 28.7L7.89998 21L6.29998 19.4C5.79998 18.9 5.49998 18.2 5.49998 17.4C5.49998 16.6 5.79998 15.9 6.29998 15.4C6.69998 15 7.19998 14.8 7.69998 14.6H7.79998L7.69998 14.5C7.19998 13.4 7.39998 12.1 8.29998 11.3C8.69998 10.9 9.19998 10.6 9.79998 10.5H9.89997V10.4C9.79997 10 9.79998 9.7 9.79998 9.4C9.79998 8.6 10.1 7.9 10.6 7.4C11 7 11.6 6.7 12.1 6.6H12.2V6.5C11.9 5.5 12.1 4.3 12.9 3.6C13.4 3.1 14.1 2.8 14.9 2.8C15.3 2.8 15.6 2.9 16 3L16.2 3.1L16.1 2.9C16 2.5 16 2.1 16 1.7V0.7C16 0.3 16.3 0 16.6 0H22.7C24.1 0 25.5 0.6 26.4 1.6L26.5 1.7C27 1.4 27.5 1.3 27.9 1.3C28.7 1.3 29.4 1.6 29.9 2.1C30.4 2.6 30.7 3.3 30.7 4.1C30.7 4.4 30.7 4.7 30.6 5V5.1H30.7C31.4 5.4 32 5.6 32.4 6C33.2 6.8 33.4 7.9 33.1 8.9V9H33.2C33.8 9.1 34.3 9.4 34.7 9.8C35.2 10.3 35.5 11.1 35.5 11.8C35.5 12.2 35.4 12.6 35.2 13L35.1 13.1H35.2C35.7 13.2 36.2 13.5 36.6 13.9C37.1 14.4 37.4 15.2 37.4 15.9C37.4 16.7 37.1 17.4 36.6 17.9L31.8 22.7C31.5 22.7 31.1 22.6 30.7 22.6C30.5 22.6 30.3 22.6 30.2 22.6H29.9L35.7 16.8C36 16.5 36.1 16.1 36.1 15.7C36.1 15.3 35.9 14.9 35.7 14.7C35.4 14.4 35 14.3 34.6 14.3C34.2 14.3 33.8 14.5 33.5 14.7L32.5 15.7C32.4 15.8 32.2 15.9 32 15.9C31.8 15.9 31.6 15.8 31.5 15.7C31.4 15.6 31.3 15.4 31.3 15.2C31.3 15 31.4 14.8 31.5 14.7L33.5 12.7C33.8 12.4 33.9 12.1 33.9 11.7C33.9 11.3 33.7 10.9 33.5 10.6C33.2 10.3 32.8 10.2 32.4 10.2C32 10.2 31.6 10.4 31.3 10.6L29.3 12.6C29.5 13 29.3 13 29.1 13C28.9 13 28.7 12.9 28.6 12.8C28.5 12.7 28.4 12.5 28.4 12.3C28.4 12.1 28.5 11.9 28.6 11.8L31.4 9C31.7 8.7 31.8 8.3 31.8 7.9C31.8 7.5 31.6 7.1 31.4 6.8C31.1 6.5 30.7 6.4 30.3 6.4C29.9 6.4 29.5 6.6 29.3 6.8L26.5 9.6C26.4 9.9 26.2 10 26 10C25.8 10 25.6 9.9 25.5 9.8C25.2 9.5 25.2 9.1 25.5 8.8L29 5.3C29.3 5 29.4 4.7 29.4 4.3C29.4 3.9 29.2 3.5 29 3.2C28.7 2.9 28.3 2.8 27.9 2.8C27.5 2.8 27.1 3 26.8 3.2L21.5 8.5C22.5 9.8 22.4 11.3 21.4 12.4C20.9 12.9 20.1 13.2 19.4 13.2H19.2V13.4C19.2 14.2 18.9 14.9 18.4 15.4C17.9 15.9 17.1 16.2 16.4 16.2H16.2V16.4C16.2 17.2 15.9 17.9 15.4 18.4C14.9 18.9 14.2 19.2 13.4 19.2H13.2V19.3C13.2 20.1 12.9 20.9 12.4 21.4C11.9 21.9 11.1 22.2 10.4 22.2C9.89997 22.2 9.39998 22.1 8.99998 21.8H8.89997L1.19998 29.6C0.999976 29.9 0.899976 29.9 0.699976 29.9ZM8.29998 15.9C7.89998 15.9 7.49998 16.1 7.19998 16.3C6.99998 16.6 6.79998 17 6.79998 17.4C6.79998 17.8 6.99998 18.2 7.19998 18.5L9.29998 20.6C9.69998 20.8 9.99997 21 10.4 21C10.8 21 11.2 20.8 11.5 20.6C11.8 20.3 11.9 19.9 11.9 19.5C11.9 19.1 11.7 18.7 11.5 18.4L9.39997 16.3C9.09997 16 8.69998 15.9 8.29998 15.9ZM10.3 11.8C9.89998 11.8 9.49998 12 9.19998 12.2C8.89998 12.5 8.79998 12.9 8.79998 13.3C8.79998 13.7 8.99998 14.1 9.19998 14.4L12.4 17.6C12.7 17.9 13.1 18 13.5 18C13.9 18 14.3 17.8 14.6 17.6C14.9 17.3 15 16.9 15 16.5C15 16.1 14.8 15.7 14.6 15.4L11.4 12.2C11.1 11.9 10.7 11.8 10.3 11.8ZM12.6 8C12.2 8 11.8 8.2 11.6 8.4C11.3 8.7 11.2 9.1 11.2 9.5C11.2 9.9 11.4 10.3 11.6 10.5L15.5 14.4C15.8 14.7 16.2 14.8 16.6 14.8C17 14.8 17.4 14.6 17.7 14.4C18 14.1 18.1 13.8 18.1 13.3C18.1 12.9 17.9 12.5 17.7 12.2L13.8 8.3C13.4 8.1 13 8 12.6 8ZM14.9 4.1C14.5 4.1 14.1 4.3 13.8 4.5C13.5 4.8 13.4 5.2 13.4 5.6C13.4 6 13.6 6.4 13.8 6.7L18.5 11.4C18.8 11.7 19.1 11.8 19.6 11.8C20 11.8 20.4 11.6 20.7 11.4C21 11.1 21.1 10.7 21.1 10.3C21.1 9.9 20.9 9.5 20.7 9.3L16 4.6C15.7 4.3 15.3 4.1 14.9 4.1ZM20.8 7.5L25.6 2.7C24.8 1.8 23.8 1.4 22.8 1.4H17.3V1.8C17.3 2.4 17.5 2.9 17.9 3.3C18.3 3.7 18.8 3.9 19.4 3.9H21.6C22 3.9 22.3 4.2 22.3 4.6C22.3 4.8 22.2 4.9 22.1 5.1C22 5.2 21.8 5.3 21.6 5.3H19.5C19.2 5.3 19 5.3 18.8 5.2L18.3 5L20.8 7.5Z" fill="#2F2F2F"/>
<path d="M30.7 40C26 40 21.9 36.3 21.5 31.6C21.5 31.3 21.5 31 21.5 30.7C21.5 30.5 21.5 30.3 21.5 30.1C21.5 29.7 21.6 29.4 21.6 29C21.7 28.5 21.8 28.1 22 27.6C23.3 23.9 26.8 21.4 30.7 21.4C30.9 21.4 31.1 21.4 31.2 21.4C31.8 21.4 32.4 21.5 32.9 21.6C33.5 21.8 34.1 22 34.6 22.2C35 22.4 35.4 22.6 35.8 22.9C36.2 23.2 36.6 23.5 37 23.8C38 24.7 38.8 25.8 39.3 27C39.8 28.2 40.1 29.4 40.1 30.6C40 35.8 35.8 40 30.7 40ZM30.7 22.8C30.4 22.8 30.2 22.8 29.9 22.8C27.1 23.1 24.7 24.8 23.5 27.3C23.3 27.8 23.1 28.3 23 28.8C22.9 29.4 22.8 29.9 22.8 30.4C22.8 30.5 22.8 30.6 22.8 30.7C22.8 31.1 22.8 31.4 22.9 31.8C23.5 35.7 26.8 38.7 30.8 38.7C35.2 38.7 38.8 35.1 38.8 30.7C38.8 26.7 35.8 23.4 31.9 22.8C31.5 22.8 31.1 22.8 30.7 22.8Z" fill="#2F2F2F"/>
<path d="M34.3 34.9C34.1 34.9 34 34.8 33.8 34.7L30.7 31.6L27.6 34.7C27.5 34.8 27.3 34.9 27.1 34.9C26.9 34.9 26.8 34.8 26.6 34.7C26.5 34.6 26.4 34.4 26.4 34.2C26.4 34 26.5 33.9 26.6 33.7L29.7 30.6L26.6 27.5C26.5 27.4 26.4 27.2 26.4 27C26.4 26.8 26.5 26.7 26.6 26.5C26.7 26.4 26.9 26.3 27.1 26.3C27.3 26.3 27.4 26.4 27.6 26.5L30.7 29.6L33.8 26.5C33.9 26.4 34.1 26.3 34.3 26.3C34.5 26.3 34.6 26.4 34.8 26.5C35.1 26.8 35.1 27.2 34.8 27.4L31.7 30.5L34.8 33.6C35.1 33.9 35.1 34.3 34.8 34.5C34.6 34.9 34.5 34.9 34.3 34.9Z" fill="#2F2F2F"/>
</g>
<defs>
<clipPath id="clip0">
<rect width="40" height="40" fill="white"/>
</clipPath>
</defs>
</svg>
