<svg width="20" height="20" viewBox="0 0 20 20" fill="none" xmlns="http://www.w3.org/2000/svg">
<g clip-path="url(#clip0)">
<path d="M19.7 2C19.5 1.7 19.1 1.5 18.7 1.5C18.5 1.5 18.2 1.5 18 1.6L1 8.1C0.1 8.5 0 9 0 9.3C0 9.6 0.2 10.1 1.1 10.4L4.6 11.4L6.5 16.8C6.8 17.5 7.3 18 8 18C8.4 18 8.8 17.8 9.2 17.5L11.4 15.5L14.6 18C15 18.3 15.3 18.4 15.7 18.4C16.4 18.4 17 17.9 17.2 17L20 3.4C20.1 2.8 20 2.3 19.7 2ZM5.8 11.2L12.6 7.7L8.4 12.2C8.3 12.3 8.3 12.4 8.3 12.5L7.5 15.8L5.8 11.2ZM8.4 16.6C8.4 16.6 8.4 16.7 8.4 16.6L9.1 13.6L10.5 14.7L8.4 16.6ZM18.8 3.2L16 16.9C16 17 15.9 17.3 15.7 17.3C15.6 17.3 15.5 17.2 15.3 17.1L11.7 14.2L9.6 12.5L15.7 6C15.9 5.8 15.9 5.5 15.7 5.2C15.6 5.1 15.3 5 15 5.1L5 10.3L1.4 9.3L18.3 2.8C18.4 2.7 18.5 2.7 18.6 2.7H18.7C18.8 2.8 18.9 2.9 18.8 3.2Z" fill="#2F2F2F"/>
</g>
<defs>
<clipPath id="clip0">
<rect width="20" height="20" fill="white"/>
</clipPath>
</defs>
</svg>
