<svg width="18" height="20" viewBox="0 0 18 20" fill="none" xmlns="http://www.w3.org/2000/svg">
<g clip-path="url(#clip0)">
<path d="M13.5 4.60004L9.10004 0.200037C8.80004 -0.0999634 8.40004 -0.0999634 8.10004 0.200037L3.70004 4.60004C3.40004 4.90004 3.40004 5.30004 3.70004 5.60004C4.00004 5.90004 4.50004 5.90004 4.70004 5.60004L7.80004 2.50004V15.1C7.80004 15.5 8.10004 15.8 8.50004 15.8C8.90004 15.8 9.20004 15.5 9.20004 15.1V2.50004L12.3 5.60004C12.4 5.70004 12.6 5.80004 12.8 5.80004C13 5.80004 13.2 5.70004 13.3 5.60004C13.8 5.30004 13.8 4.90004 13.5 4.60004Z" fill="#2F2F2F"/>
<path d="M16.5 13.7001C16.1 13.7001 15.8 14.0001 15.8 14.4001V18.5001H1.5V14.4001C1.5 14.0001 1.2 13.7001 0.8 13.7001C0.4 13.7001 0 14.0001 0 14.4001V19.3001C0 19.7001 0.3 20.0001 0.7 20.0001H16.5C16.9 20.0001 17.2 19.7001 17.2 19.3001V14.4001C17.2 14.0001 16.9 13.7001 16.5 13.7001Z" fill="#2F2F2F"/>
</g>
<defs>
<clipPath id="clip0">
<rect width="17.2" height="20" fill="white"/>
</clipPath>
</defs>
</svg>
