<svg width="20" height="20" viewBox="0 0 20 20" fill="none" xmlns="http://www.w3.org/2000/svg">
<g clip-path="url(#clip0)">
<path d="M10.8 4.29998C13.4 4.39998 15.8 6.79998 15.8 9.39998C15.8 9.79998 16.1 9.99998 16.4 10.1C16.8 10.1 17 9.79998 17 9.49998C17 6.19998 14.1 3.19998 10.8 3.09998C10.4 3.09998 10.1 3.39998 10.1 3.69998C10.1 3.99998 10.4 4.29998 10.8 4.29998Z" fill="#2F2F2F"/>
<path d="M10.6 6.49999C12.2 6.69999 13.6 8.09999 13.6 9.59999C13.6 9.99999 13.9 10.2 14.2 10.3C14.6 10.3 14.8 9.99999 14.8 9.69999C14.8 7.59999 13 5.59999 10.7 5.29999C10.3 5.29999 10 5.49999 10 5.89999C10 6.09999 10.2 6.39999 10.6 6.49999Z" fill="#2F2F2F"/>
<path d="M16.1 12.5L15.9 12.4C15.6 12.1 15.2 11.9 14.9 11.7L14.7 11.5C14.1 11.1 13.5 10.9 12.9 11C12.4 11.1 11.9 11.4 11.6 12C11.5 12 11.4 12.2 11 12C10.3 11.7 9.79999 11.3 9.29999 10.9L8.19999 9.29998C7.99999 8.79998 8.09999 8.69998 8.39999 8.49998C8.69999 8.29998 9.39999 7.79998 9.39999 6.89998C9.29999 5.99998 7.49999 3.59998 6.59999 3.29998C6.19999 3.19998 5.79999 3.19998 5.39999 3.29998C4.49999 3.59998 3.79999 4.19998 3.39999 4.89998C3.09999 5.59998 3.09999 6.39998 3.39999 7.29998C5.19999 11.6 8.39999 14.8 13 16.8C13.2 16.9 13.5 17 13.6 17H13.7C13.8 17 13.8 17 13.9 17C15.2 17 16.6 15.8 17 14.7C17.5 13.5 16.6 12.9 16.1 12.5ZM15.8 14.3C15.6 15 14.7 15.7 14 15.7C14 15.7 14 15.7 13.9 15.7C13.8 15.7 13.6 15.6 13.5 15.6C9.29999 13.8 6.29999 10.9 4.59999 6.79998C4.39999 6.29998 4.39999 5.79998 4.49999 5.39998C4.79999 4.99998 5.19999 4.69998 5.79999 4.49998C5.89999 4.49998 5.89999 4.49998 5.99999 4.49998C6.09999 4.49998 6.09999 4.49998 6.19999 4.49998C6.59999 4.69998 7.99999 6.49998 7.99999 6.99998C7.99999 7.09998 7.99999 7.19998 7.59999 7.39998C7.19999 7.79998 6.39999 8.49998 7.09999 9.89998C7.09999 9.89998 7.09999 9.99998 7.19999 9.99998L8.39999 11.7L8.49999 11.8C9.09999 12.4 9.79999 12.8 10.6 13.2C11.5 13.6 12.2 13.4 12.7 12.7C12.9 12.5 13 12.3 13.2 12.3C13.4 12.3 13.8 12.4 14 12.6L14.2 12.8C14.5 13 14.9 13.2 15.2 13.5C15.3 13.6 15.3 13.6 15.4 13.7C15.9 13.9 15.9 14 15.8 14.3Z" fill="#2F2F2F"/>
<path d="M14.6 0H5.4C2.5 0 0 2.5 0 5.4V14.7C0 17.5 2.5 20 5.4 20H14.7C17.6 20 20.1 17.5 20.1 14.6V5.4C20 2.5 17.5 0 14.6 0ZM18.7 14.6C18.7 16.8 16.8 18.7 14.6 18.7H5.4C3.2 18.7 1.3 16.8 1.3 14.6V5.4C1.3 3.2 3.2 1.3 5.4 1.3H14.7C16.9 1.3 18.8 3.2 18.8 5.4V14.6H18.7Z" fill="#2F2F2F"/>
</g>
<defs>
<clipPath id="clip0">
<rect width="20" height="20" fill="white"/>
</clipPath>
</defs>
</svg>
