<svg width="51" height="16" viewBox="0 0 51 16" fill="none" xmlns="http://www.w3.org/2000/svg">
<path d="M20.8464 0L18.2868 15.9679H22.378L24.9359 0H20.8464ZM33.1868 6.50444C31.7571 5.79666 30.8806 5.31896 30.8806 4.59506C30.8981 3.93687 31.6218 3.26256 33.2378 3.26256C34.567 3.22909 35.5439 3.54224 36.285 3.85381L36.6563 4.01993L37.2125 0.679043C36.4044 0.365895 35.1232 0.0208524 33.5405 0.0208524C29.5004 0.0208524 26.6556 2.12667 26.638 5.13847C26.6046 7.361 28.6747 8.59432 30.2239 9.33417C31.8066 10.0931 32.3453 10.5852 32.3453 11.2595C32.3278 12.2948 31.0656 12.7725 29.8878 12.7725C28.2559 12.7725 27.3793 12.5265 26.0485 11.9496L25.5098 11.7035L24.9377 15.1755C25.8987 15.6038 27.6661 15.9807 29.5006 16C33.7942 16 36.588 13.9261 36.6231 10.7163C36.6371 8.95548 35.5455 7.60686 33.1868 6.50444ZM47.7009 0.0494164H44.5357C43.5603 0.0494164 42.8192 0.330672 42.3969 1.33408L36.3198 15.9679H40.6134L41.7959 12.7996H46.5995L47.2131 15.9807H50.9999L47.7009 0.0494164ZM42.9866 9.60228C43.0695 9.61034 44.6346 4.43034 44.6346 4.43034L45.8809 9.60228C45.8809 9.60228 43.7947 9.60228 42.9866 9.60228ZM14.8683 0L10.86 10.8487L10.4234 8.70927C9.68222 6.24071 7.35863 3.55818 4.7655 2.22568L8.43591 15.952H12.7646L19.197 0.00175141H14.8683V0Z" fill="#512DA8"/>
<path d="M9.07482 2.06016C8.76246 0.842598 7.76628 0.0214301 6.41335 0.00390625H0.0653745L0 0.299358C4.95186 1.52322 9.10821 5.2891 10.4566 8.83137L9.07482 2.06016Z" fill="#FFCA28"/>
</svg>
