<svg width="20" height="20" viewBox="0 0 20 20" fill="none" xmlns="http://www.w3.org/2000/svg">
<path d="M1.21212 14.6465C0.40404 13.1313 0 11.5152 0 9.89899C0 7.27273 1.0101 4.74747 2.92929 2.92929C4.84849 1.0101 7.37374 0 10 0C12.6263 0 15.1515 1.0101 17.0707 2.92929C18.9899 4.84848 20 7.27273 20 9.89899C20 12.5253 18.9899 15.0505 17.0707 16.8687C15.1515 18.7879 12.6263 19.798 10 19.798C8.48485 19.798 6.86869 19.3939 5.45455 18.6869L0 19.899L1.21212 14.6465ZM5.85859 17.3737C7.07071 18.0808 8.48485 18.3838 10 18.3838C14.7475 18.3838 18.5859 14.5455 18.5859 9.79798C18.5859 7.57576 17.6768 5.35354 16.0606 3.73737C14.4444 2.12121 12.3232 1.21212 10 1.21212C5.25253 1.21212 1.41414 5.0505 1.41414 9.79798C1.41414 11.2121 1.81818 12.7273 2.62626 14.0404L2.82828 14.3434L1.91919 18.1818L5.75758 17.2727L5.85859 17.3737Z" fill="#2F2F2F"/>
<path d="M12.5252 14.0404C12.2222 14.0404 11.6161 13.9394 10.303 13.4343C8.88887 12.9293 7.57574 11.7172 6.46463 10.101C6.1616 9.69696 5.45453 8.68686 5.45453 7.67675C5.45453 6.66665 5.95958 6.1616 6.1616 5.85857C6.46463 5.55554 6.66665 5.55554 6.76766 5.55554H7.1717C7.27271 5.55554 7.47473 5.55554 7.57574 5.85857C7.77776 6.1616 7.97978 6.66665 8.1818 7.07069C8.28281 7.37372 8.38382 7.57574 8.38382 7.67675C8.48483 7.77776 8.48483 7.87877 8.38382 7.97978C8.28281 8.1818 8.28281 8.28282 8.1818 8.38383C8.08079 8.48484 7.97978 8.58585 7.87877 8.68686C7.77776 8.78787 7.57574 8.98989 7.67675 9.29292C7.87877 9.59595 8.28281 10.303 8.98988 10.9091C9.69695 11.6161 10.404 11.8182 10.7071 12.0202L10.8081 12.1212C10.9091 12.2222 11.0101 12.2222 11.1111 12.2222C11.2121 12.2222 11.3131 12.1212 11.4141 12.0202C11.5151 11.8182 12.0202 11.3131 12.1212 11.1111C12.2222 11.0101 12.2222 11.0101 12.3232 11.0101C12.4242 11.0101 12.4242 11.0101 12.5252 11.1111C12.6262 11.1111 13.2323 11.4141 14.0404 11.8182L14.1414 11.9192C14.2424 12.0202 14.3434 12.0202 14.4444 12.1212C14.4444 12.2222 14.4444 12.6262 14.3434 13.1313C14.1414 13.6364 13.2323 14.1414 12.8283 14.1414H12.7273C12.8283 14.0404 12.7273 14.0404 12.5252 14.0404Z" fill="#2F2F2F"/>
</svg>
