<svg width="345" height="363" viewBox="0 0 345 363" fill="none" xmlns="http://www.w3.org/2000/svg">
<mask id="mask0_33_3" style="mask-type:luminance" maskUnits="userSpaceOnUse" x="0" y="0" width="345" height="363">
<rect y="0.251953" width="345" height="362" fill="white"/>
</mask>
<g mask="url(#mask0_33_3)">
<path d="M-100.307 150.209C-100.307 150.209 -17.6894 216.452 43.3059 175.064C104.301 133.675 49.5194 75.1094 21.9734 97.9898C-9.93929 121.977 16.7194 169.178 62.0274 172.833C107.335 176.489 125.942 157.536 174.075 162.464C222.208 167.391 273.753 200.305 228.126 230.589C182.5 260.873 97.5296 223.749 101.953 177.344C102.655 167.826 107.409 145.997 164.288 145.997C221.167 145.997 311.012 172.631 328.271 109.833C345.53 47.0362 247.107 22.6967 252.517 93.4079C256.236 118.424 269.16 142.233 314.471 162.464C330.026 168.373 375.708 195.975 364.59 207.024C344.249 225.473 274.665 248.986 274.665 267.949C274.665 286.913 305.328 297.528 344.856 294.124C398.403 281.309 409.718 227.819 404.061 179.565" stroke="url(#paint0_linear_33_3)" stroke-width="2" stroke-linecap="round" stroke-dasharray="0 4"/>
<path fill-rule="evenodd" clip-rule="evenodd" d="M21 83C21 80.2396 23.2396 78 26 78C28.7637 78 31 80.2396 31 83C30.9967 83.5924 30.8861 84.1784 30.6777 84.7318L30.694 84.7285C30.5964 85.0312 30.4238 85.36 30.2057 85.7051C29.2324 87.2285 27.2565 89.2435 26 90.5V90.5033H25.9967C25.9379 90.4443 25.8775 90.3838 25.8156 90.3219C24.2627 88.7674 21.8195 86.322 21.3092 84.7285L21.3223 84.7318C21.1139 84.1784 21.0065 83.5924 21 83ZM27.9238 83C27.9238 81.9388 27.0612 81.0762 26 81.0762C24.9388 81.0794 24.0762 81.9388 24.0794 83C24.0794 84.0612 24.9388 84.9206 26 84.9238C27.0612 84.9238 27.9238 84.0612 27.9238 83Z" fill="white"/>
<path fill-rule="evenodd" clip-rule="evenodd" d="M43 155C43 152.24 45.2396 150 48 150C50.7637 150 53 152.24 53 155C52.9967 155.592 52.8861 156.178 52.6777 156.732L52.694 156.729C52.5964 157.031 52.4238 157.36 52.2057 157.705C51.2324 159.229 49.2565 161.243 48 162.5V162.503H47.9967C47.9379 162.444 47.8775 162.384 47.8156 162.322C46.2627 160.767 43.8195 158.322 43.3092 156.729L43.3223 156.732C43.1139 156.178 43.0065 155.592 43 155ZM49.9238 155C49.9238 153.939 49.0612 153.076 48 153.076C46.9388 153.079 46.0762 153.939 46.0794 155C46.0794 156.061 46.9388 156.921 48 156.924C49.0612 156.924 49.9238 156.061 49.9238 155Z" fill="white"/>
<path fill-rule="evenodd" clip-rule="evenodd" d="M92 155C92 152.24 94.2396 150 97 150C99.7637 150 102 152.24 102 155C101.997 155.592 101.886 156.178 101.678 156.732L101.694 156.729C101.596 157.031 101.424 157.36 101.206 157.705C100.232 159.229 98.2565 161.243 97 162.5V162.503H96.9967C96.9379 162.444 96.8775 162.384 96.8156 162.322C95.2627 160.767 92.8195 158.322 92.3092 156.729L92.3223 156.732C92.1139 156.178 92.0065 155.592 92 155ZM98.9238 155C98.9238 153.939 98.0612 153.076 97 153.076C95.9388 153.079 95.0762 153.939 95.0794 155C95.0794 156.061 95.9388 156.921 97 156.924C98.0612 156.924 98.9238 156.061 98.9238 155Z" fill="white"/>
<path fill-rule="evenodd" clip-rule="evenodd" d="M225 214C225 211.24 227.24 209 230 209C232.764 209 235 211.24 235 214C234.997 214.592 234.886 215.178 234.678 215.732L234.694 215.729C234.596 216.031 234.424 216.36 234.206 216.705C233.232 218.229 231.257 220.243 230 221.5V221.503H229.997C229.938 221.444 229.877 221.384 229.816 221.322C228.263 219.767 225.82 217.322 225.309 215.729L225.322 215.732C225.114 215.178 225.007 214.592 225 214ZM231.924 214C231.924 212.939 231.061 212.076 230 212.076C228.939 212.079 228.076 212.939 228.079 214C228.079 215.061 228.939 215.921 230 215.924C231.061 215.924 231.924 215.061 231.924 214Z" fill="white"/>
<path fill-rule="evenodd" clip-rule="evenodd" d="M285 134C285 131.24 287.24 129 290 129C292.764 129 295 131.24 295 134C294.997 134.592 294.886 135.178 294.678 135.732L294.694 135.729C294.596 136.031 294.424 136.36 294.206 136.705C293.232 138.229 291.257 140.243 290 141.5V141.503H289.997C289.938 141.444 289.877 141.384 289.816 141.322C288.263 139.767 285.82 137.322 285.309 135.729L285.322 135.732C285.114 135.178 285.007 134.592 285 134ZM291.924 134C291.924 132.939 291.061 132.076 290 132.076C288.939 132.079 288.076 132.939 288.079 134C288.079 135.061 288.939 135.921 290 135.924C291.061 135.924 291.924 135.061 291.924 134Z" fill="white"/>
<path fill-rule="evenodd" clip-rule="evenodd" d="M274 244C274 241.24 276.24 239 279 239C281.764 239 284 241.24 284 244C283.997 244.592 283.886 245.178 283.678 245.732L283.694 245.729C283.596 246.031 283.424 246.36 283.206 246.705C282.232 248.229 280.257 250.243 279 251.5V251.503H278.997C278.938 251.444 278.877 251.384 278.816 251.322C277.263 249.767 274.82 247.322 274.309 245.729L274.322 245.732C274.114 245.178 274.007 244.592 274 244ZM280.924 244C280.924 242.939 280.061 242.076 279 242.076C277.939 242.079 277.076 242.939 277.079 244C277.079 245.061 277.939 245.921 279 245.924C280.061 245.924 280.924 245.061 280.924 244Z" fill="white"/>
<path fill-rule="evenodd" clip-rule="evenodd" d="M273 39C273 36.2396 275.24 34 278 34C280.764 34 283 36.2396 283 39C282.997 39.5924 282.886 40.1784 282.678 40.7318L282.694 40.7285C282.596 41.0312 282.424 41.36 282.206 41.7051C281.232 43.2285 279.257 45.2435 278 46.5V46.5033H277.997C277.938 46.4443 277.877 46.3838 277.816 46.3219C276.263 44.7674 273.82 42.322 273.309 40.7285L273.322 40.7318C273.114 40.1784 273.007 39.5924 273 39ZM279.924 39C279.924 37.9388 279.061 37.0762 278 37.0762C276.939 37.0794 276.076 37.9388 276.079 39C276.079 40.0612 276.939 40.9206 278 40.9238C279.061 40.9238 279.924 40.0612 279.924 39Z" fill="white"/>
</g>
<defs>
<linearGradient id="paint0_linear_33_3" x1="1.87812" y1="181.916" x2="103.44" y2="355.984" gradientUnits="userSpaceOnUse">
<stop stop-color="#2A679E"/>
<stop offset="1" stop-color="#43A9A5"/>
</linearGradient>
</defs>
</svg>
