<svg width="240" height="41" fill="none" xmlns="http://www.w3.org/2000/svg"><path d="M80.019 14.18c2.29 0 3.715 2.995 3.72 7.06-.005 3.97-1.364 6.902-3.564 7.015H78.87V14.18h1.149zm-4.712-1.533v17.151h5.414c4.16 0 6.57-3.194 6.577-8.559v-.011c-.007-5.35-2.417-8.581-6.577-8.581h-5.414zm-30.122 8.602v-7.068h.95c1.939 0 2.736 1.352 2.736 3.48 0 2.407-.958 3.588-2.737 3.588h-.949zm8.355 8.55l-3.731-7.585c1.805-.734 2.655-2.207 2.655-4.554 0-3.366-1.948-5.013-6.266-5.013h-4.576v17.151h3.563v-7.013h1.013c.032 0 .059-.003.09-.003l3.45 7.016h3.802v.001zM15.415 12.647l-2.181 9.526-2.23-9.526h-1.79l-2.184 9.53-2.23-9.53H1.274l4.01 17.151h1.791L9.3 20.089l2.188 9.705-.002.004h1.792l4.053-17.15-1.916-.001zM28.56 28.509c-1.612 0-2.71-1.44-2.71-7.287 0-5.845 1.098-7.288 2.71-7.288 1.616 0 2.712 1.443 2.715 7.288-.003 5.847-1.099 7.287-2.714 7.287h-.001zm6.623-7.299c-.007-2.813-.682-5.101-1.955-6.628-1.183-1.42-2.717-2.17-4.667-2.17-1.948 0-3.482.75-4.667 2.17-1.273 1.527-1.948 3.815-1.953 6.628h-.002v.025h.002c.005 2.814.68 5.1 1.953 6.627 1.185 1.42 2.719 2.172 4.667 2.172 1.95 0 3.484-.752 4.667-2.172 1.273-1.527 1.948-3.813 1.955-6.627v-.025zm86.373 8.588h3.563v-8.49h5.918v-1.534h-5.918V14.18h6.917v-1.533h-10.48v17.151zm-13.06-1.288c-1.613 0-2.712-1.44-2.714-7.287.002-5.847 1.1-7.288 2.714-7.288 1.613 0 2.711 1.44 2.714 7.288-.003 5.847-1.101 7.287-2.714 7.287zm6.621-7.299c-.006-2.813-.681-5.101-1.955-6.628-1.182-1.42-2.718-2.17-4.666-2.173-1.949.002-3.482.752-4.667 2.173-1.273 1.527-1.948 3.815-1.955 6.628v.025c.007 2.812.682 5.1 1.955 6.626 1.185 1.42 2.718 2.173 4.667 2.173 1.948 0 3.484-.752 4.666-2.173 1.274-1.526 1.949-3.814 1.955-6.626v-.025zm39.098-.73h-4.66v-7.834h-3.563v17.151h3.563v-7.77h4.66v7.77h3.554v-17.15h-3.554v7.833zm46.432-6.285h3.9v15.602h3.564V14.184h3.901v-1.538h-11.365v1.55zm16.941 0h3.9v15.602h3.564V14.184h3.901v-1.538h-11.365v1.55zm-31.382 9.581l1.892-5.561 1.78 5.561h-3.672zm5.6 6.022h3.693l-5.49-17.15v-.002h-2.267l-5.838 17.152h2.252l1.529-4.493h4.683l1.438 4.493zm-15.657-17.152l-3.971 7.35-4.017-7.35h-3.853l5.052 9.193v7.958h3.593V21.96l5.022-9.313h-1.826zM69.975 28.264h-6.26V12.646h-3.563v17.152h9.823v-1.534zm165.502-14.136c.367 0 .56-.16.56-.47v-.015c0-.337-.206-.455-.56-.455h-.412v.94h.412zm-1.117-1.484h1.13c.75 0 1.235.309 1.235.97v.016c0 .485-.278.747-.661.868l.854 1.366h-.736l-.78-1.25h-.337v1.25h-.705v-3.22zm3.79 1.647c0-1.601-1.116-2.718-2.673-2.718-1.556 0-2.675 1.13-2.675 2.732 0 1.617 1.176 2.703 2.675 2.703 1.514 0 2.673-1.115 2.673-2.717zm-5.935.014a3.252 3.252 0 01.95-2.312 3.238 3.238 0 012.312-.95c1.851 0 3.262 1.44 3.262 3.248 0 1.835-1.44 3.247-3.262 3.247-1.808 0-3.262-1.396-3.262-3.233z" fill="#000" fill-opacity=".3"/></svg>