<svg width="120" height="79" fill="none" xmlns="http://www.w3.org/2000/svg"><path d="M2.482 77.329v-3.51H1.324v-.558H4.3v.558H3.143v3.51h-.661zM7.5 78.387c.11.056.22.056.33.056.277 0 .442-.112.608-.446l.275-.613-1.71-4.123h.662l1.324 3.343 1.323-3.343h.662l-2.04 4.903c-.22.613-.662.836-1.213.836-.11 0-.331 0-.442-.056l.221-.557zm7.39-1.671v2.172h-.662v-5.626h.607v.612c.275-.39.772-.724 1.378-.724 1.048 0 1.82.836 1.82 2.117 0 1.337-.717 2.173-1.82 2.173-.551 0-.992-.279-1.323-.724zm2.481-1.393c0-.891-.496-1.56-1.323-1.56-.496 0-.993.278-1.213.668v1.839c.22.334.716.669 1.213.669.827-.056 1.323-.725 1.323-1.616zm8.603 0c0-1.17.772-2.117 1.986-2.117 1.213 0 1.985.947 1.985 2.117s-.772 2.173-1.985 2.173c-1.214 0-1.986-1.003-1.986-2.173zm3.364 0c0-.836-.496-1.56-1.323-1.56-.883 0-1.324.724-1.324 1.56 0 .836.497 1.56 1.324 1.56.827 0 1.323-.724 1.323-1.56zm6.894 2.006v-3.51h-2.096v3.51h-.607v-4.067h3.364v4.067h-.661zm4.191-2.006c0-1.17.827-2.117 1.985-2.117 1.213 0 1.93.947 1.93 2.173v.167h-3.253c.055.78.606 1.392 1.433 1.392.442 0 .938-.167 1.269-.5l.276.39c-.387.39-.938.612-1.6.612-1.213 0-2.04-.891-2.04-2.117zm1.985-1.616c-.882 0-1.268.725-1.323 1.337h2.647c0-.612-.441-1.337-1.324-1.337zm6.066 3.009v2.172h-.606v-5.626h.606v.612a1.71 1.71 0 011.379-.724c1.048 0 1.82.836 1.82 2.117 0 1.337-.717 2.173-1.82 2.173-.552 0-1.048-.279-1.379-.724zm2.537-1.393c0-.891-.496-1.56-1.324-1.56-.496 0-.992.278-1.213.668v1.839c.22.334.717.669 1.214.669.827-.056 1.323-.725 1.323-1.616zm6.673 2.006v-.446c-.331.39-.772.557-1.324.557-.661 0-1.434-.446-1.434-1.337s.717-1.337 1.434-1.337c.552 0 .993.167 1.324.557v-.724c0-.558-.441-.836-1.048-.836-.496 0-.882.167-1.213.557l-.276-.446c.441-.445.938-.668 1.6-.668.827 0 1.544.39 1.544 1.393v2.785h-.607v-.055zm0-.836v-.78c-.22-.334-.662-.501-1.103-.501-.607 0-.993.39-.993.89 0 .502.386.892.993.892.441 0 .882-.167 1.103-.501zm5.129.836v-3.51h-1.159v-.558h2.978v.558h-1.158v3.51h-.661zm4.907-2.006c0-1.17.773-2.117 1.986-2.117s1.985.947 1.985 2.117-.772 2.173-1.985 2.173c-1.213-.056-1.985-1.003-1.985-2.173zm3.365 0c0-.836-.497-1.56-1.324-1.56-.882 0-1.323.724-1.323 1.56 0 .836.496 1.56 1.323 1.56s1.324-.724 1.324-1.56zm4.797 1.393v2.172h-.606v-5.626h.606v.612a1.71 1.71 0 011.38-.724c1.047 0 1.819.836 1.819 2.117 0 1.337-.717 2.173-1.82 2.173-.551 0-1.048-.279-1.379-.724zm2.537-1.393c0-.891-.496-1.56-1.323-1.56-.497 0-.993.278-1.214.668v1.839c.221.334.717.669 1.214.669.827-.056 1.323-.725 1.323-1.616zM5.404 51.868L1.49 41.283h3.088l2.592 7.633 2.592-7.633h3.088L8.88 51.868H5.404zm8.052-5.293c0-3.23 2.426-5.46 5.625-5.46 3.198 0 5.57 2.23 5.57 5.46 0 3.232-2.372 5.46-5.57 5.46-3.199 0-5.625-2.228-5.625-5.46zm8.437 0c0-1.727-1.102-3.064-2.867-3.064s-2.868 1.337-2.868 3.064c0 1.728 1.103 3.065 2.868 3.065s2.867-1.337 2.867-3.065zm7.17 5.293v-4.29l-3.971-6.295h3.033l2.261 3.9 2.261-3.9h3.088l-3.97 6.295v4.29h-2.703zm14.227 0l-.496-1.504h-4.136l-.496 1.504h-3.088l3.915-10.585h3.364l3.97 10.585h-3.032zm-2.591-7.91l-1.324 3.955h2.647L40.7 43.957zm6.176 2.617c0-3.342 2.537-5.46 5.68-5.46 2.316 0 3.75 1.226 4.467 2.563l-2.26 1.17c-.387-.724-1.214-1.337-2.207-1.337-1.71 0-2.923 1.337-2.923 3.064 0 1.728 1.214 3.065 2.923 3.065.772 0 1.544-.335 1.93-.613v-.836h-2.371v-2.396h5.074v4.179c-1.103 1.226-2.648 2.061-4.633 2.061-3.143 0-5.68-2.117-5.68-5.46zm12.684 5.293V41.283h7.665v2.396h-4.963v1.671h4.853v2.396h-4.853v1.782h4.963v2.396l-7.665-.056zm15.882 0l-1.764-3.565h-1.38v3.565h-2.701V41.283h5.239c2.316 0 3.64 1.56 3.64 3.51 0 1.838-1.104 2.841-2.096 3.175l2.15 3.9h-3.088zm.276-7.075c0-.724-.607-1.114-1.324-1.114h-2.15v2.284h2.15c.717-.056 1.324-.446 1.324-1.17zM2.426 62.565c0-3.287 2.427-5.46 5.405-5.46 1.875 0 3.143.836 4.08 2.006l-1.047.668a3.893 3.893 0 00-3.033-1.448c-2.316 0-4.026 1.782-4.026 4.29 0 2.507 1.765 4.29 4.026 4.29 1.268 0 2.316-.614 2.812-1.17v-2.173H7.06v-1.17h4.908v3.844A5.456 5.456 0 017.83 68.08c-2.978-.055-5.405-2.228-5.405-5.515zm23.99 5.237l-2.648-4.179h-2.095v4.179h-1.324V57.216h4.191c1.93 0 3.31 1.226 3.31 3.176 0 1.894-1.27 2.953-2.703 3.064l2.813 4.29-1.544.056zm.055-7.354c0-1.17-.828-2.006-2.096-2.006h-2.757v4.067h2.757c1.268-.056 2.096-.891 2.096-2.061zm9.264 2.117c0-3.12 2.096-5.46 5.184-5.46s5.184 2.34 5.184 5.46-2.096 5.46-5.184 5.46-5.184-2.34-5.184-5.46zm9.044 0c0-2.452-1.489-4.29-3.86-4.29-2.371 0-3.86 1.838-3.86 4.29 0 2.451 1.489 4.29 3.86 4.29 2.372 0 3.86-1.839 3.86-4.29zm9.706 1.17v-6.463h1.324v6.463c0 1.95 1.048 3.175 2.978 3.175 1.93 0 2.978-1.225 2.978-3.175v-6.463h1.323v6.463c0 2.618-1.434 4.29-4.246 4.29-2.923 0-4.357-1.727-4.357-4.29zm17.261 4.067V57.216h4.192c2.095 0 3.308 1.449 3.308 3.176s-1.213 3.175-3.308 3.175h-2.923v4.179l-1.269.056zm6.122-7.354c0-1.17-.828-2.006-2.096-2.006h-2.757v4.011h2.757c1.268 0 2.096-.835 2.096-2.005zm19.356-8.413c-4.301 0-7.776-3.51-7.776-7.855V30.809H76.213c-4.301 0-7.775-3.51-7.775-7.855 0-4.346 3.474-7.856 7.775-7.856H97.28c4.302 0 7.776 3.51 7.776 7.856v21.282c0 4.29-3.529 7.8-7.83 7.8zm14.89-36.101c4.355 0 7.886-3.567 7.886-7.967 0-4.4-3.531-7.967-7.886-7.967s-7.886 3.567-7.886 7.967c0 4.4 3.531 7.967 7.886 7.967z" fill="#000" fill-opacity=".3"/></svg>