<svg width="60" height="40" fill="none" xmlns="http://www.w3.org/2000/svg"><g clip-path="url(#clip0_564_1200)"><path d="M30 .281C13.586.281.277 8.891.277 19.508.277 30.13 13.586 38.742 30 38.742s29.723-8.609 29.723-19.234C59.723 8.883 46.414.281 30 .281zm0 30.207c-2.441 0-4.434-4.808-4.559-10.859a52.248 52.248 0 009.118 0C34.434 25.676 32.44 30.49 30 30.49zm-4.258-15.663c.664-4.278 2.32-7.313 4.258-7.313 1.938 0 3.594 3.035 4.258 7.313a48.138 48.138 0 01-8.516 0zM30 3.063c-3.188 0-5.906 4.773-6.91 11.437-6.043-.941-10.262-3.09-10.262-5.586 0-3.367 7.688-6.097 17.172-6.097 9.484 0 17.172 2.73 17.172 6.097 0 2.496-4.219 4.645-10.262 5.586C35.906 7.836 33.188 3.063 30 3.063zM4.54 18.789c0-3.258 1.253-6.316 3.437-8.941a4.31 4.31 0 00-.04.558c0 4.106 6.157 7.606 14.747 8.895-.008.297-.008.598-.008.899 0 7.652 2.144 14.132 5.11 16.332-13.028-.786-23.247-8.43-23.247-17.743zm27.675 17.742c2.965-2.199 5.11-8.68 5.11-16.331 0-.305-.005-.602-.009-.899 8.586-1.289 14.746-4.785 14.746-8.894 0-.188-.015-.376-.039-.56 2.184 2.634 3.438 5.684 3.438 8.942 0 9.313-10.219 16.957-23.246 17.742z" fill="#282830" fill-opacity=".3"/></g><defs><clipPath id="clip0_564_1200"><path fill="#fff" transform="translate(0 .012)" d="M0 0h60v39H0z"/></clipPath></defs></svg>