<svg width="168" height="49" fill="none" xmlns="http://www.w3.org/2000/svg"><path fill-rule="evenodd" clip-rule="evenodd" d="M30.625 18.438a9.29 9.29 0 012.212 4.99l-5.606-.585 3.394-4.405zm-5.606-3.001a9.022 9.022 0 014.92 2.26l-4.386 3.509-.534-5.77zm8.314 8.03a9.874 9.874 0 00-2.402-5.457l2.097-2.768-2.708 2.144a9.09 9.09 0 00-5.377-2.456l-.877-9.278c10.106.04 18.268 8.42 18.344 18.75l-9.077-.935zM28.337 0H47.94v18.79c0 2.767-1.945 5.106-4.538 5.613C43.364 13.448 34.668 4.6 23.952 4.6v-.156C23.988 1.988 25.933 0 28.336 0z" fill="#000" fill-opacity=".3"/><path fill-rule="evenodd" clip-rule="evenodd" d="M17.315 18.438a9.29 9.29 0 00-2.212 4.99l5.568-.585-3.356-4.405zm5.644-3.001c-1.868.234-3.585 1.013-4.92 2.26l4.348 3.47.572-5.73zm-8.352 8.03c.229-2.105 1.068-3.976 2.403-5.457l-2.25-2.924 2.86 2.3a9.586 9.586 0 015.34-2.456l.877-9.278c-10.107.04-18.269 8.42-18.345 18.75l9.115-.935zM19.298 0H.153C.076 0 0 .078 0 .156v18.672c0 2.768 1.945 5.107 4.538 5.614.039-10.954 8.734-19.764 19.451-19.803C23.875 2.066 21.815 0 19.3 0zm-1.945 30.6a9.289 9.289 0 01-2.212-4.989l5.606.585-3.394 4.405zm5.606 2.963a9.022 9.022 0 01-4.92-2.26l4.386-3.47.534 5.73zm-8.352-8.03a9.875 9.875 0 002.403 5.458l-2.098 2.767 2.708-2.144a9.09 9.09 0 005.377 2.456l.878 9.278c-10.107-.04-18.269-8.42-18.345-18.75l9.077.935zM18.383 49H0V30.211c0-2.768 1.945-5.107 4.538-5.613.039 10.915 8.696 19.724 19.337 19.763-.496 2.651-2.784 4.64-5.492 4.64zm12.241-18.438a9.29 9.29 0 002.212-4.99l-5.568.585 3.356 4.405zm-5.606 3.001c1.869-.233 3.585-1.013 4.92-2.26l-4.386-3.47-.534 5.73zm8.314-8.03c-.229 2.105-1.068 3.976-2.403 5.458l2.25 2.923-2.86-2.3a9.586 9.586 0 01-5.34 2.456l-.876 9.278c10.106-.04 18.268-8.42 18.344-18.75l-9.115.935zM29.556 49H47.94V30.211c0-2.768-1.945-5.107-4.538-5.613-.039 10.915-8.696 19.724-19.337 19.763.534 2.651 2.785 4.64 5.492 4.64z" fill="#000" fill-opacity=".3"/><path d="M168 21.909c0 .74-.152 1.48-.534 2.222a6.147 6.147 0 01-1.487 1.988 7.598 7.598 0 01-2.365 1.442c-.915.39-1.945.585-3.089.585-.61 0-1.182-.04-1.678-.117-.534-.078-.992-.156-1.449-.312a7.37 7.37 0 01-1.297-.468l-1.259-.585.954-3.04c.267.195.648.39 1.106.623.458.234.953.43 1.487.624.534.195 1.068.351 1.602.468.534.117 1.03.195 1.488.195.495 0 .915-.04 1.258-.117a4.7 4.7 0 00.877-.273c.305-.117.534-.39.687-.897a5.997 5.997 0 00.267-1.832c0-.701-.229-1.247-.687-1.676-.457-.39-.991-.78-1.678-1.052-.648-.312-1.411-.585-2.174-.897a11.786 11.786 0 01-2.174-1.17c-.686-.467-1.22-1.091-1.678-1.832-.457-.74-.686-1.754-.686-2.962 0-.585.152-1.209.457-1.871.306-.663.763-1.248 1.335-1.794.572-.545 1.297-1.013 2.136-1.364.839-.35 1.831-.546 2.899-.546.877 0 1.716.04 2.479.117.8.078 1.563.195 2.326.351l-.61 3.04c-.343-.116-.725-.272-1.182-.39-.458-.116-.878-.233-1.335-.31a18.4 18.4 0 00-1.335-.196c-.42-.039-.801-.078-1.144-.078-.382 0-.725 0-1.03.04-.305.038-.61.116-.877.311-.229.156-.42.39-.534.78-.115.35-.153.78-.153 1.286 0 .507.115.936.382 1.287.267.35.61.623 1.029.896.42.273.916.507 1.45.702a19.24 19.24 0 011.678.701 16.59 16.59 0 011.678.819c.534.312 1.03.702 1.449 1.17.42.467.763 1.052 1.03 1.676.267.701.381 1.52.381 2.456zm-20.633-2.807l-2.86-8.81-2.975 8.81h5.835zm2.861 8.77l-2.25-6.86-7.132.117-2.289 6.744h-2.441L143.63 7.68l3.737-.701 6.98 20.855h-4.119v.039zM126.963 18.4l.534-.117a7.51 7.51 0 001.411-.468 3.096 3.096 0 001.144-.818c.344-.351.572-.819.763-1.442.191-.585.267-1.326.267-2.261 0-1.365-.305-2.378-.915-3.002-.61-.624-1.411-.936-2.403-.936-.229 0-.496 0-.763.04-.267 0-.534.038-.801.077v18.36h-3.852V7.604c.42-.04.839-.079 1.335-.079.458-.039.954-.078 1.488-.078.496-.039 1.029-.039 1.525-.039h1.488c1.182 0 2.174.117 3.051.39a6.217 6.217 0 012.135 1.13 4.355 4.355 0 011.259 1.833c.267.701.42 1.52.42 2.417a7.58 7.58 0 01-.458 2.65 5.791 5.791 0 01-1.411 2.183c-.61.624-1.449 1.092-2.403 1.443-.992.35-2.136.545-3.471.545h-.152l-.191-1.598zm-12.242 9.473l-1.526-15.554-6.827 15.554h-1.182l-7.132-15.554-1.297 15.554h-2.212l1.946-20.505h3.623l6.636 14.424 6.331-14.424h3.509l2.097 20.505h-3.966zM87.261 17.62c0-1.247-.114-2.338-.305-3.313-.229-.975-.534-1.832-.992-2.495a4.409 4.409 0 00-1.716-1.559c-.686-.35-1.525-.546-2.479-.546-.839 0-1.602.078-2.326.273-.725.195-1.297.429-1.717.78-.42.35-.724 1.091-.915 2.222-.19 1.13-.305 2.69-.305 4.639 0 1.208.076 2.338.267 3.313.19.974.458 1.832.877 2.573.42.701.954 1.286 1.602 1.676.687.39 1.487.585 2.479.585 1.03 0 1.869-.117 2.517-.273.648-.195 1.22-.429 1.678-.78.229-.156.42-.429.572-.896.153-.43.305-.975.42-1.638.114-.623.19-1.364.229-2.144.076-.78.114-1.559.114-2.416zm4.043 0c0 1.599-.191 3.041-.572 4.366-.382 1.287-.992 2.417-1.793 3.314-.8.935-1.792 1.637-3.013 2.105-1.182.507-2.593.74-4.157.74-1.64 0-3.013-.233-4.195-.74-1.182-.507-2.136-1.209-2.86-2.144a9.245 9.245 0 01-1.64-3.313c-.344-1.287-.534-2.73-.534-4.328 0-1.598.19-3.04.533-4.288.344-1.286.916-2.377 1.679-3.274a7.234 7.234 0 012.898-2.066c1.182-.468 2.555-.702 4.157-.702 1.602 0 2.975.234 4.195.702a7.78 7.78 0 012.975 2.066c.801.897 1.373 1.988 1.793 3.274.343 1.287.534 2.69.534 4.288zM69.717 8.85c-.343 0-.686.039-.991.156a3.219 3.219 0 00-.992.467 4.734 4.734 0 00-1.03.819c-.381.35-.762.74-1.22 1.208-.458.507-.992 1.092-1.487 1.716-.534.623-1.106 1.286-1.717 2.027a154.63 154.63 0 002.289 4.522c.724 1.364 1.449 2.572 2.135 3.547a11.482 11.482 0 002.098 2.339c.686.546 1.411.818 2.174.818h.229v1.326c-.42.117-.84.195-1.259.273-.42.078-.953.078-1.525.078-.954 0-1.755-.156-2.441-.507-.687-.312-1.373-.858-1.983-1.637-.649-.78-1.297-1.794-1.946-3.08a69.318 69.318 0 01-2.288-4.756 4.113 4.113 0 00-.343.43c-.153.155-.267.35-.42.506-.152.195-.305.35-.42.507a4.463 4.463 0 01-.304.39v7.874h-3.852V7.524h3.852v9.55c.381-.467.839-1.013 1.335-1.714.534-.663 1.068-1.365 1.64-2.066.572-.702 1.068-1.365 1.601-2.027.496-.624.954-1.131 1.297-1.52.458-.508.84-.897 1.22-1.21a4.19 4.19 0 011.068-.7c.344-.157.725-.235 1.106-.313.382-.039.801-.078 1.297-.078.19 0 .42 0 .687.04.267.038.457.077.572.116V8.85h-.382zm98.13 26.078a1.091 1.091 0 00-.343-.078c-.115-.039-.229-.039-.344-.039h-.19c-.077 0-.115.04-.191.078-.038.04-.114.078-.152.117l-.191.195v3.47h-1.297v-4.834h1.221l.114.78a.856.856 0 00.114-.195c.039-.078.115-.156.153-.234.076-.078.114-.156.191-.195.076-.078.114-.117.19-.117a1.3 1.3 0 01.382-.078H168l-.153 1.13zm-7.246 1.326c0 .623.076 1.091.228 1.403.153.312.382.429.763.429.153 0 .267 0 .382-.04a2.69 2.69 0 00.305-.116c.038-.04.076-.078.152-.195.038-.117.077-.234.115-.39.038-.156.038-.312.076-.507v-.623c0-.624-.076-1.092-.229-1.404-.152-.312-.381-.468-.724-.468-.115 0-.267 0-.382.04a2.613 2.613 0 00-.305.116c-.038.04-.076.117-.153.195a1.179 1.179 0 00-.076.39c-.038.156-.038.312-.038.507-.114.273-.114.468-.114.663zm.953 2.534c-.763 0-1.373-.195-1.754-.624-.42-.429-.61-1.053-.61-1.871 0-.39.038-.741.152-1.053.114-.312.267-.585.458-.78.19-.233.457-.39.763-.506a2.854 2.854 0 011.029-.195c.801 0 1.373.234 1.793.663.419.428.61 1.052.61 1.87 0 .39-.038.741-.153 1.053-.114.312-.267.585-.457.78-.191.234-.458.39-.763.507a3.22 3.22 0 01-1.068.156zm-5.759-4.288l-.496-.157v-.272l1.45-1.053h.381v.858h1.449l-.076.546c-.114.039-.229.039-.381.039-.153 0-.305.038-.458.038-.153 0-.343.04-.534.04v2.728c0 .156.038.312.076.429.077.117.191.195.382.195h.19c.077 0 .191 0 .267-.04.077 0 .191-.038.267-.038.077 0 .153-.04.229-.04v.39a3.345 3.345 0 01-.381.235c-.153.078-.305.156-.458.195-.152.077-.343.116-.496.155-.152.04-.343.04-.495.04-.115 0-.229 0-.344-.04-.114-.038-.229-.078-.305-.155a1.743 1.743 0 01-.229-.273 1.488 1.488 0 01-.076-.468V34.5h.038zm-2.936 3.274v-1.481c-.344 0-.573 0-.725.078-.153.039-.267.078-.305.155-.038.04-.038.078-.038.117 0 .078-.038.117-.038.195v.429c0 .234.038.39.076.546.076.156.152.195.305.195.152 0 .267 0 .419-.04.039-.116.191-.155.306-.194zm1.678.195c.114 0 .267-.04.457-.078v.312c-.076.078-.152.117-.267.195-.114.078-.19.117-.305.156l-.343.116c-.114.04-.229.04-.343.04-.115 0-.229 0-.305-.04a.784.784 0 01-.229-.155c-.076-.04-.115-.117-.153-.195a.856.856 0 00-.114-.195l-.343.234c-.115.078-.229.156-.344.195a1.12 1.12 0 01-.381.155c-.153.04-.267.04-.458.04-.381 0-.648-.117-.877-.351-.229-.234-.305-.585-.305-1.053 0-.234.038-.468.114-.663.077-.195.153-.35.306-.467.152-.117.305-.234.533-.273.229-.078.496-.117.801-.117h.801v-.702c0-.195-.038-.35-.152-.429a.838.838 0 00-.496-.156 3.31 3.31 0 00-.572.078c-.229.04-.458.117-.687.195l-.19-.506c.152-.078.343-.156.495-.195.191-.078.344-.117.534-.195.191-.04.382-.117.534-.117.191-.04.382-.04.534-.04.229 0 .382 0 .572.079a1.4 1.4 0 01.42.195c.114.078.191.234.267.39.076.155.076.35.076.584v2.222c.038.507.153.74.42.74zm-4.958-3.04a1.072 1.072 0 00-.344-.079c-.114-.039-.228-.039-.343-.039h-.191c-.076 0-.114.04-.19.078-.038.04-.115.078-.153.117l-.19.195v3.47h-1.335v-4.834h1.22l.115.78a.856.856 0 00.114-.195c.038-.078.114-.156.152-.234.077-.078.115-.156.191-.195.076-.078.115-.117.191-.117.114-.04.267-.078.381-.078h.496l-.114 1.13zm-6.56-.352a.427.427 0 00-.115.195.75.75 0 00-.076.312c-.038.117-.038.234-.076.351 0 .117-.038.234-.038.39l1.487-.078c0-.156-.038-.273-.076-.429a1.887 1.887 0 00-.153-.429c-.076-.117-.114-.234-.229-.312a.426.426 0 00-.305-.116c-.076 0-.152 0-.228.038-.039 0-.115.04-.191.078zm.648-.818c.229 0 .458.039.649.117.228.078.419.156.572.312.19.155.343.35.457.623.115.273.229.585.305.975v.078l-.152.156a1.857 1.857 0 01-.267.117 1.348 1.348 0 01-.42.078c-.152.039-.343.039-.61.078l-1.487.117v.195c0 .39.114.701.305.935.191.234.496.35.877.35.153 0 .343 0 .496-.038.19-.04.343-.078.496-.117.152-.039.305-.078.419-.156.115-.039.229-.078.305-.117l.115.35a5.403 5.403 0 01-.496.352 4.205 4.205 0 01-.572.312c-.191.078-.42.156-.649.233-.228.078-.457.078-.686.078-.267 0-.534-.038-.801-.117a1.35 1.35 0 01-.61-.428c-.191-.195-.305-.43-.42-.74-.114-.313-.152-.664-.152-1.092 0-.468.076-.897.19-1.248.115-.35.267-.623.496-.819.191-.194.458-.35.725-.467.267-.078.572-.117.915-.117zm-4.576 2.417c0-.546-.077-.936-.267-1.209a.763.763 0 00-.687-.39c-.152 0-.305 0-.419.04-.153.038-.267.077-.42.116v3.158a.822.822 0 00.305.039h.305c.153 0 .344 0 .496-.04.153-.038.267-.077.343-.155.077-.078.153-.273.229-.546.076-.195.115-.545.115-1.013zm-1.793-1.91c.191-.156.381-.273.572-.351.191-.117.458-.156.725-.156.229 0 .496.039.724.117.229.078.42.234.611.429.19.194.305.428.419.74.115.312.153.663.153 1.092 0 .428-.077.78-.191 1.13-.114.312-.267.624-.496.819-.229.234-.457.39-.763.507a2.854 2.854 0 01-1.029.194c-.115 0-.267 0-.382-.038-.152 0-.229-.04-.343-.079v3.08l-1.335.234v-7.991l1.182-.195.153.468zm-5.873 1.988c0 .623.076 1.091.229 1.403.152.312.381.429.762.429.153 0 .267 0 .382-.04.114-.038.229-.077.305-.116.038-.04.076-.078.152-.195.038-.117.077-.234.115-.39.038-.156.038-.312.076-.507v-.623c0-.624-.076-1.092-.229-1.404-.152-.312-.381-.468-.724-.468-.115 0-.267 0-.382.04a2.613 2.613 0 00-.305.116c-.038.04-.076.117-.152.195a1.153 1.153 0 00-.077.39c-.038.156-.038.312-.038.507-.114.273-.114.468-.114.663zm.991 2.534c-.762 0-1.373-.195-1.754-.624-.42-.429-.61-1.053-.61-1.871 0-.39.038-.741.152-1.053.115-.312.267-.585.458-.78.191-.233.458-.39.763-.506a2.854 2.854 0 011.029-.195c.801 0 1.373.234 1.793.663.419.428.61 1.052.61 1.87 0 .39-.038.741-.152 1.053-.115.312-.267.585-.458.78-.191.234-.458.39-.763.507a3.22 3.22 0 01-1.068.156zm-3.051-3.86a1.091 1.091 0 00-.343-.078c-.114-.039-.229-.039-.343-.039h-.191c-.076 0-.114.04-.191.078-.038.04-.114.078-.152.117l-.191.195v3.47h-1.335v-4.834h1.221l.114.78c.038-.04.076-.117.115-.195.038-.078.114-.156.152-.234.076-.078.115-.156.191-.195.076-.078.114-.117.19-.117a1.3 1.3 0 01.382-.078h.496l-.115 1.13zm-7.284-1.091v3.235c0 .273.038.507.152.624.077.156.229.195.458.195.076 0 .153 0 .267-.04.076-.038.191-.038.305-.077.115-.039.191-.078.267-.117.076-.039.191-.117.267-.156v-3.664h1.335v4.833h-1.221l-.114-.545c-.076.078-.191.117-.343.195a4.179 4.179 0 01-.42.234c-.152.078-.305.116-.496.194a2.18 2.18 0 01-.495.078c-.191 0-.344-.038-.496-.078-.153-.078-.305-.155-.42-.272-.114-.117-.19-.273-.267-.43a1.653 1.653 0 01-.114-.623v-3.508h1.335v-.078zm-5.835 2.417c0 .623.076 1.091.228 1.403.153.312.382.429.763.429.153 0 .267 0 .382-.04a2.69 2.69 0 00.305-.116c.038-.04.076-.078.152-.195.038-.117.077-.234.115-.39.038-.156.038-.312.076-.507v-.623c0-.624-.076-1.092-.229-1.404-.152-.312-.381-.468-.725-.468-.114 0-.266 0-.381.04a2.613 2.613 0 00-.305.116c-.038.04-.076.117-.153.195a1.179 1.179 0 00-.076.39c-.038.156-.038.312-.038.507-.114.273-.114.468-.114.663zm.953 2.534c-.763 0-1.373-.195-1.754-.624-.42-.429-.611-1.053-.611-1.871 0-.39.039-.741.153-1.053.114-.312.267-.585.458-.78.19-.233.457-.39.762-.506a2.864 2.864 0 011.03-.195c.801 0 1.373.234 1.793.663.419.428.61 1.052.61 1.87 0 .39-.038.741-.153 1.053-.114.312-.267.585-.457.78-.191.234-.458.39-.763.507-.305.117-.648.156-1.068.156zm-6.331-.078V32.2l-2.059-.04.076-.74h5.454l-.077.702-2.021.039v6.47h-1.373v.078z" fill="#000" fill-opacity=".3"/></svg>