<svg width="213" height="53" fill="none" xmlns="http://www.w3.org/2000/svg"><g clip-path="url(#clip0_473_767)" fill="#000" fill-opacity=".3"><path d="M55.478 33.126v-9.691h-2.89v-3.098c1.077 0 2.112-.535 3.095-1.6.892-.954 1.715-2.461 2.468-4.52h2.131v4.602h5.563v4.616h-5.563v8.116c-.046.88.055 1.76.3 2.606.316.812.998 1.218 2.045 1.218 1.191 0 2.179-.635 2.952-1.91v3.886a5.214 5.214 0 01-3.27 1.852 8.457 8.457 0 01-1.495.124c-3.557.007-5.336-2.06-5.336-6.201zm21.175 6.211c-3.133 0-5.47-1.09-7.01-3.27-1.355-1.91-2.03-4.508-2.027-7.796 0-3.141.716-5.58 2.15-7.318 1.563-1.875 3.87-2.812 6.92-2.812 5.99 0 8.987 3.483 8.99 10.45 0 3.218-.69 5.752-2.074 7.605-1.55 2.097-3.867 3.144-6.949 3.141zm0-4.11a3.936 3.936 0 002.087-.46 3.964 3.964 0 001.544-1.483 8.067 8.067 0 00.973-4.24c0-1.938-.28-3.384-.85-4.344-.72-1.222-1.972-1.833-3.754-1.833-3.091 0-4.637 1.918-4.637 5.753 0 4.408 1.546 6.61 4.637 6.607zm16.855-16.408v12.14c0 2.52.913 3.78 2.74 3.78 1.362 0 2.373-.706 2.985-2.119.496-1.24.73-2.57.688-3.905v-9.896h4.747v19.85h-4.277v-4.674c-.854 3.396-2.875 5.092-6.061 5.089-2.27 0-3.832-.864-4.69-2.592-.61-1.232-.916-3.142-.916-5.73V18.82h4.784zm15.19 19.85v-19.85h4.481v5.136h.156l.128-.835c.238-1.64.625-2.82 1.163-3.542.703-.955 1.787-1.433 3.252-1.433.44.006.879.066 1.305.177.425.099.829.27 1.196.506v5.49a3.496 3.496 0 00-2.848-1.294c-2.705 0-4.058 2.371-4.058 7.114v8.53h-4.775zm19.119-22.996c0 1.336-.932 2.005-2.796 2.005-1.898 0-2.848-.669-2.848-2.005 0-1.003.524-1.63 1.571-1.881a5.344 5.344 0 011.273-.13c1.867 0 2.8.67 2.8 2.01zm-.422 22.996h-4.794v-19.96l1.333.377c.359.065.723.102 1.087.11a7.16 7.16 0 002.374-.478v19.95zm3.911-6.775c1.471 2.34 3.296 3.51 5.473 3.51a3.707 3.707 0 002.027-.555 1.975 1.975 0 001.006-1.756 1.776 1.776 0 00-.897-1.533 7.71 7.71 0 00-1.738-.73c-2.161-.732-3.628-1.391-4.4-1.977a4.885 4.885 0 01-1.898-4.148 6.303 6.303 0 011.965-4.826 6.938 6.938 0 014.917-1.772 7.634 7.634 0 015.644 2.292v5.075c-1.424-2-3.142-3-5.155-3.003a3.65 3.65 0 00-1.898.477 1.826 1.826 0 00-.695 2.538c.167.282.407.514.695.67a7.696 7.696 0 001.836.73c1.943.567 3.301 1.178 4.073 1.834 1.111.907 1.666 2.224 1.666 3.953 0 2.052-.62 3.677-1.861 4.874-1.24 1.196-2.898 1.793-4.974 1.79-2.449 0-4.378-.753-5.786-2.258v-5.185zm17.121 1.232v-9.691h-2.891v-3.098c1.076 0 2.108-.533 3.095-1.6.892-.954 1.715-2.461 2.468-4.52h2.108v4.602h5.563v4.616h-5.563v8.116a7.91 7.91 0 00.299 2.606c.332.812 1.016 1.218 2.041 1.218 1.196 0 2.179-.635 2.957-1.91v3.886a5.242 5.242 0 01-3.289 1.862 8.468 8.468 0 01-1.496.124c-3.528 0-5.292-2.07-5.292-6.211zm23.766 5.543v-3.442c-1.193 2.74-3.137 4.11-5.833 4.11a5.468 5.468 0 01-4.078-1.57 5.634 5.634 0 01-1.547-4.12 4.728 4.728 0 011.495-3.571c1.06-1.022 2.815-1.908 5.264-2.66l1.448-.439c1.997-.61 2.997-1.35 3-2.215a1.95 1.95 0 00-.32-1.094 1.93 1.93 0 00-.876-.725 4.936 4.936 0 00-2.26-.477c-2.471 0-4.735 1.273-6.792 3.82v-4.923a8.83 8.83 0 013.489-2.42 11.155 11.155 0 014.148-.802 8.932 8.932 0 014.229.955 4.967 4.967 0 012.658 3.304c.2 1.02.284 2.058.252 3.097V38.67h-4.277zm-.123-9.644c-.703.325-1.6.707-2.682 1.137-2.636 1.063-3.954 2.239-3.954 3.528a2.019 2.019 0 00.698 1.594 2.528 2.528 0 001.713.592 3.65 3.65 0 003.109-1.58 6.777 6.777 0 001.149-4.297v-.587a1.88 1.88 0 00-.033-.396v.01zm13.172 9.644h-4.794V14.216h4.794v24.452zm9.208-22.996c0 1.336-.932 2.005-2.796 2.005-1.898 0-2.848-.669-2.848-2.005 0-1.003.524-1.63 1.572-1.881a5.351 5.351 0 011.272-.13c1.87 0 2.803.67 2.8 2.01zm-.422 22.996h-4.794v-19.96l1.338.377c.358.065.719.102 1.082.11a7.165 7.165 0 002.374-.478v19.95zm14.695 0v-3.442c-1.18 2.74-3.123 4.11-5.829 4.11a5.436 5.436 0 01-4.077-1.57 5.609 5.609 0 01-1.552-4.12 4.728 4.728 0 011.495-3.571c1.06-1.022 2.815-1.908 5.264-2.66l1.448-.439c2.003-.61 3.004-1.35 3.004-2.215a1.948 1.948 0 00-1.196-1.819 4.949 4.949 0 00-2.264-.477c-2.474 0-4.739 1.273-6.792 3.82v-4.923a8.867 8.867 0 013.474-2.42 11.17 11.17 0 014.168-.802 8.977 8.977 0 014.229.955 4.94 4.94 0 011.696 1.352c.458.57.786 1.237.957 1.951.202 1.02.287 2.06.252 3.098V38.67h-4.277zm-.123-9.644c-.703.325-1.595.707-2.677 1.137-2.639 1.063-3.957 2.239-3.954 3.528a2.002 2.002 0 00.712 1.594 2.528 2.528 0 001.713.592 3.677 3.677 0 003.114-1.58 6.808 6.808 0 001.144-4.297v-.587a1.825 1.825 0 00-.052-.396v.01zM40.346 20.28a20.305 20.305 0 00-3.412-11.286l-.603.196-3.214.286-.911 1.432-.655-.21-2.597-2.291-.37-1.208-.474-1.284-1.605-1.432-1.898-.373-.043.874 1.856 1.819.911 1.079-1.035.52-.83-.248-1.258-.516.038-1.007-1.633-.678-.541 2.387-1.652.372.18 1.313 2.146.416.37-2.115 1.775.262.822.478h1.343l.906 1.823 2.397 2.45-.175.954-1.937-.248-3.323 1.7-2.406 2.902-.313 1.289h-.902l-1.61-.75-1.56.745.379 1.657.683-.788 1.215-.038-.085 1.49.992.29.992 1.122 1.614-.477 1.846.291 2.146.582 1.04.144 1.832 2.052 3.503 2.072-2.27 4.373-2.373 1.117-.906 2.492-3.46 2.32-.347 1.26c-.735.19-1.48.335-2.23.435l-.205-2.387s.95-3.652.95-3.776c0-.124-.95-3.275-.95-3.275l-1.49-2.72 1.348-2.865-1.348-.406-1.51-1.504-3.36-.768-1.111-2.34v1.39h-.475l-2.886-3.939v-3.237l-2.122-3.465-3.374.601H3.9l-1.138-.75 1.457-1.16-1.453.34a20.318 20.318 0 00.693 21.582 122.495 122.495 0 0012.726 18.728C17.296 51.702 18.222 53 20.13 53c1.909 0 2.848-1.298 3.94-2.626a122.688 122.688 0 0012.526-18.36 20.22 20.22 0 003.75-11.734zM7.49 6.54l3.584-.477 1.652-.912 1.856.54 2.98-.191 1.021-1.61 1.481.249 3.584-.32.997-1.103 1.395-.954 1.965.296.722-.11A19.993 19.993 0 0015.74.492 20.08 20.08 0 004.61 7.376l2.88-.836zm13.523-4.525l2.06-1.137 1.32.769-1.899 1.466-1.827.181-.84-.535 1.186-.744zm-6.1.167l.907.382 1.192-.382.65 1.131-2.748.726-1.32-.778s1.291-.836 1.32-1.08z"/></g><defs><clipPath id="clip0_473_767"><path fill="#fff" d="M0 0h213v53H0z"/></clipPath></defs></svg>