<svg width="152" height="49" fill="none" xmlns="http://www.w3.org/2000/svg"><g clip-path="url(#clip0_473_783)" fill="#000" fill-opacity=".3"><path fill-rule="evenodd" clip-rule="evenodd" d="M146.171 27.645h-1.347l-1.128 1.564v-1.564h-1.154v3.911h1.154v-1.598l1.081 1.598h1.432l-1.531-2.018 1.493-1.893zm-9.637 0h1.153v3.916h-1.153v-3.916zm-7.428.938h.866v2.973h1.15v-2.973h.866v-.938h-2.882v.938zm-5.065.652a1.33 1.33 0 00-.275-.1.849.849 0 00-.227-.06.252.252 0 00-.09-.02c-.03-.014-.06-.018-.099-.03a.51.51 0 01-.188-.103.282.282 0 01-.063-.088.292.292 0 01-.023-.105c.009-.021.009-.047.009-.069.009-.034.017-.055.021-.077a.363.363 0 01.343-.189.821.821 0 01.296.078c.108.05.189.107.283.171.022.017.039.035.06.051a.318.318 0 00.052.043h.051l.395-.822c-.009-.009-.013-.009-.013-.009l-.017-.012c-.245-.168-.472-.27-.687-.305a2.358 2.358 0 00-.48-.06h-.051c-.45.005-.79.12-1.025.343a1.133 1.133 0 00-.352.84c0 .32.069.56.21.724.15.158.314.278.481.355.068.034.137.056.206.077.077.026.137.043.197.056.008.009.021.009.03.009a.092.092 0 00.03.004c.15.043.274.094.373.15.107.06.154.162.154.308v.069a.265.265 0 01-.03.077.25.25 0 01-.098.124c-.056.047-.129.064-.228.064h-.047c-.021-.012-.03-.012-.043-.012a1.082 1.082 0 01-.394-.15 2.26 2.26 0 01-.352-.253l-.051-.051a.516.516 0 01-.052-.056h-.06l-.515.835c.177.137.326.253.463.334.15.09.288.15.425.197.099.035.189.056.283.069.099.021.189.026.296.026l.052-.005c.394 0 .737-.098 1.024-.304.305-.206.451-.531.451-.976-.009-.343-.082-.592-.228-.763a1.518 1.518 0 00-.497-.386zm-7.973-1.59h1.15v3.916h-1.149v-3.916h-.001z"/><path d="M110.484 29.984c.014-.013.022-.013.022-.013.206-.077.373-.201.532-.373.167-.184.244-.441.244-.783 0-.318-.068-.554-.214-.712a1.254 1.254 0 00-.892-.445 3.018 3.018 0 00-.249-.017h-1.681v3.915h1.158v-1.2l.776 1.2h1.386l-1.103-1.563c.013-.01.022-.01.022-.01h-.001zm-.351-1.054v.064a.583.583 0 01-.12.279c-.082.09-.215.128-.395.128h-.214v-.9h.214c.18.005.313.043.386.125a.477.477 0 01.129.27v.034z"/><path fill-rule="evenodd" clip-rule="evenodd" d="M102.276 29.95c0 .047 0 .094-.008.158-.009.06-.018.124-.03.189a.87.87 0 01-.176.29c-.086.095-.206.142-.382.142-.18-.004-.304-.051-.386-.141a.825.825 0 01-.206-.48c-.008-.068-.008-.115-.008-.159v-2.308h-1.154v2.33c.009.596.159 1.02.485 1.29.321.274.737.406 1.239.406l.051-.004c.519 0 .935-.137 1.249-.402.325-.279.48-.708.48-1.29v-2.33h-1.154v2.309z"/><path d="M93.176 27.53h-.06c-.7.003-1.227.214-1.574.624a2.14 2.14 0 00-.523 1.444c0 .553.175 1.037.531 1.448.365.412.888.621 1.566.621l.06-.004c.707-.004 1.226-.214 1.573-.621.35-.4.54-.913.532-1.444a2.216 2.216 0 00-.532-1.444c-.355-.415-.883-.625-1.573-.625zm.69 2.835a.908.908 0 01-.489.326.89.89 0 01-.12.034c-.047.004-.082.004-.12.004-.047-.004-.085-.004-.129-.012-.038-.013-.081-.022-.12-.035a1.038 1.038 0 01-.472-.33c-.145-.171-.214-.424-.214-.754 0-.334.069-.582.215-.75.154-.17.304-.287.471-.333a.474.474 0 01.13-.035c.05-.012.089-.012.128-.012.047.004.077.004.115.012.047.013.082.017.12.026.185.055.344.163.49.33.154.171.227.424.227.758-.009.351-.086.604-.232.771z"/><path fill-rule="evenodd" clip-rule="evenodd" d="M83.767 28.583h.857v2.973h1.158v-2.973h.858v-.938h-2.873v.938zm-29.588-6.126c.485-.142 1.05.141 1.467.35a5.433 5.433 0 010-3.923H0v5.75h52.918c0-.986.069-1.758 1.26-2.177zm.553 6.169c-.836-.634-1.613-1.542-1.818-2.665H0v5.608h61.05l-.562-1.122c-3.161-.489-4.276-.63-5.756-1.821zm1.48-11.919c-2.033-1.332-3.787-2.943-5.258-4.905H0v5.75h55.997l.215-.845zM47.369 4.721H0v5.68h50.04c-1.196-1.687-2.037-3.65-2.672-5.68z"/><path d="M76.128 10.89c-.561-.141-1.123-.141-1.612-.141-.494.488-.914.912-1.334 1.469H72.9c0-.703.068-1.123.137-1.752-.206-.913-.767-.913-1.398-1.543-.215-1.4-1.827-1.752-1.613-3.294.138-.703.982-.073 1.544-.493.768-.278 1.403 1.123 2.033 0 .069-.068-.137-.278-.137-.488l.42-.141c.49-2.104-2.106-1.333-3.088-2.314.146-.84-.698-.63-1.119-1.05-.215 0-.068-.35-.352-.35-.424.14-.99.14-1.192.839-.068-.42-.493-.561-.699-.63-.069.351.352.63.137 1.123-.982.073-1.544.844-1.895 1.542l-.069-.068c-.137.839-.982 1.4-.982 2.313.214.351.493-.279.845-.069-.425.21-.63.493-.845.84-.137.424-.137.771 0 1.122.416-.141.845-.702 1.192-.84-.146.703-.561 1.05-.982 1.611l-.068 1.05a4.908 4.908 0 01-1.261-1.19c-.494-.284-.708-.913-1.128-1.475-1.891-2.313-4.7-.56-6.87-.771-2.742-.492-5.336-1.4-7.296-3.504 0 .702.215 1.26.562 1.962.283.981 1.05 1.752 1.896 2.313-.63.142-1.06-.35-1.545-.56v.136a6.73 6.73 0 001.545 2.387c.63.84 1.75.56 2.449 1.05-.283.35-.837.209-1.33.209.493.98 1.476 1.752 2.457 1.752.284.073.63-.278.7.141-.07.493-.7.42-1.051.42.351.703 1.05 1.332 1.681 1.825 1.68.069 2.873 2.03 4.555.981.776.772 1.612-.351 2.457-.278 0 .142-.215.278-.215.351-1.05.351-2.097.84-2.38 1.962 0 .913-.913.352-1.333.493-1.06.069-1.545 1.123-1.896 2.104-.493 1.683.982 3.152-.348 4.344-.424.21-.844 0-1.196-.279.069.493.206.844.553 1.05.425.141 1.06-.069 1.261-.351 0 .278-.206.42-.352.702-.767.351-1.398-.351-1.964-.63 0 .63.43.84.63 1.264.284.351-.42.21-.42.351 1.051 1.054 2.458 2.035 3.924 1.611.631-.141 1.051-.908 1.407-1.474.138-1.4.137-2.943-.63-4.134-.562-.702-.562-1.683-.777-2.454.215-.42.562-.913 1.051-.981.21.698.493 1.332.99 1.82.353 1.05 1.682 1.474 1.536 2.592-.489 1.122-1.535 2.103-1.398 3.295.845.98 1.544 2.244 1.75 3.645.63 0 .425.84.63 1.123.562.21 1.197 0 1.69 0-.283-1.123-1.196-1.612-1.69-2.524-.068-.21-.206-.63 0-.77.425.209.983.56.983 1.19.562-.069.424.771.562 1.123.282.278.63.84 1.05.63.146-.21.077-.28.077-.42.352-1.123-.63-1.543-.776-2.314-.7-.702-1.544-.84-2.097-1.752-.352-.42.206-.63.557-1.054 1.544-1.19 2.037-3.294 2.037-5.115.837-1.4 2.732-1.684 3.856-3.085.836-.77 1.33-1.82 1.896-2.664l.206.21c1.054.068 1.895-1.264 2.74-1.894.137.21.352.42.561.771.206.351-.076.913.206 1.191.215.351-.137.63-.206.908.275.561.623 1.264 1.189 1.474.214-.771.068-1.474.145-2.24v-.21c.137-1.054-.981-1.611-.913-2.665.836-.84 1.895.073 2.732.278.214.142.145.493.145.703.768 0 1.399-.351 1.965-.981-.215-.142-.493-.279-.7-.42-1.05-.908-2.383-.068-3.499-.908zm-20.2 3.012c.416-.069.7-.63 1.051-.352-.206.283-.63.283-1.05.351zm9.329-3.856c.561.141 1.196.488 1.826.561-.63 0-1.48-.21-1.826-.561z"/><path fill-rule="evenodd" clip-rule="evenodd" d="M122.077 12.817h-7.36v4.696h2.612c.026 1.371-.827 2.45-2.015 2.45-1.703 0-2.702-2.244-2.702-4.986 0-2.48.729-5.017 2.723-5.017.828 0 1.613.497 1.9 1.461l4.267-1.315c-.737-3.325-2.869-6.066-6.338-6.066-5.241 0-7.304 5.513-7.304 10.966 0 6.183 2.753 10.68 7.355 10.68 4.482 0 6.853-4.352 6.853-10.418v-2.45h.009zm25.02 5.514c0-3.444-1.325-4.957-3.015-5.835-1.389-.728-2.367-.728-2.367-1.953 0-1.14.9-1.195 1.402-1.195.875 0 2.106.321 2.912.642V4.853c-1.064-.526-2.513-.813-3.821-.813-3.105 0-5.219 2.655-5.219 7.115 0 4.465 2.543 5.398 3.675 5.89.806.378 1.69.73 1.69 1.839 0 .612-.266 1.315-1.399 1.315-1.119 0-2.774-.788-3.726-1.34v5.628c1.26.763 2.877 1.2 4.297 1.2 3.89 0 5.571-3.564 5.571-7.356z"/><path d="M131.898 25.066h5.099l-4.413-20.418h-5.477l-4.443 20.418h5.104l.502-2.978h3.126l.502 2.978zm-2.921-8.08l.854-5.192.862 5.192h-1.716zm-33.756-5.308c0-2.887-1.02-7.03-5.434-7.03h-6.025v20.418h4.984v-6.328h1.041c4.392 0 5.434-4.143 5.434-7.06zm-5.927 1.752h-.549V9.96h.55c.45 0 1.187.116 1.187 1.723 0 1.601-.69 1.747-1.188 1.747z"/><path fill-rule="evenodd" clip-rule="evenodd" d="M97.383 25.066h8.727v-5.92h-3.744v-1.954h3.371v-4.901h-3.371v-1.723h3.744v-5.92h-8.728v20.418h.001z"/><path d="M-.001 37.768h146.777v10.73H-.001v-10.73z"/><path d="M21.823 42.227h3.035v-2.41h.665v5.927h-.665v-2.9h-3.035v2.9h-.665v-5.928h.665v2.41zm6.67-.26c.583 0 1.066.21 1.452.633.333.365.5.801.5 1.308 0 .59-.216 1.077-.648 1.459a1.917 1.917 0 01-1.317.486 1.931 1.931 0 01-1.713-1.029 1.985 1.985 0 01-.226-.947c0-.538.203-1 .608-1.385.371-.35.819-.526 1.344-.526zm-.005.572c-.422 0-.76.16-1.008.478a1.38 1.38 0 00-.292.873c0 .426.13.767.388 1.025.243.243.543.365.9.365.434 0 .78-.158 1.034-.474.191-.24.287-.538.287-.894 0-.417-.13-.753-.391-1.008a1.254 1.254 0 00-.917-.364zm2.84 3.205V42.05h1.569c.481 0 .818.079 1.009.234.203.172.304.41.304.717 0 .348-.161.604-.483.77.461.167.692.48.692.937 0 .414-.167.706-.5.877-.209.107-.493.16-.853.16h-1.738zm.634-2.106h.84c.513 0 .769-.197.769-.59 0-.354-.23-.53-.687-.53h-.922v1.12zm0 1.633h.983c.278 0 .482-.039.613-.117.15-.093.226-.246.226-.46 0-.415-.295-.621-.887-.621h-.935v1.198zm6.152-3.222h.635v3.695h-.635v-.512c-.348.414-.772.621-1.274.621-.55 0-.998-.21-1.343-.63-.293-.353-.439-.797-.439-1.333 0-.623.196-1.113.587-1.472.32-.299.744-.462 1.182-.456.51 0 .94.204 1.287.612v-.525zm-1.191.486c-.36 0-.658.137-.896.413-.214.249-.321.557-.321.925 0 .443.129.796.387 1.06.226.231.5.347.826.347.397 0 .716-.154.956-.46.188-.241.283-.55.283-.926 0-.442-.13-.783-.388-1.02a1.209 1.209 0 00-.847-.339zm4.908 3.21v-1.386h-.052l-1.373 1.385H39.6l1.5-1.459c-.446-.008-.77-.072-.974-.19-.327-.192-.491-.493-.491-.904 0-.434.161-.751.483-.951a1.27 1.27 0 01.495-.17c.108-.014.271-.021.492-.021h1.37v3.695h-.645zm0-1.872v-1.325h-.656c-.33 0-.56.05-.687.152-.139.107-.209.268-.209.482 0 .255.089.441.265.56.131.087.34.13.627.13h.66zm4.022 1.871V42.05h1.57c.481 0 .817.079 1.008.234.204.172.305.41.305.717 0 .348-.161.604-.483.77.461.167.691.48.691.937 0 .414-.166.706-.5.877-.209.107-.492.16-.852.16h-1.739zm.635-2.106h.839c.513 0 .77-.197.77-.59 0-.354-.23-.53-.687-.53h-.922v1.12zm0 1.633h.983c.278 0 .482-.039.613-.117.15-.093.225-.246.225-.46 0-.415-.295-.621-.886-.621h-.935v1.198zm3.356.473V42.05h.635v1.32h.84c.46 0 .8.072 1.021.217.304.203.456.523.456.96 0 .478-.176.814-.53 1.008-.231.127-.533.19-.904.19h-1.518zm.635-.508h.77c.313 0 .542-.043.686-.13.172-.104.257-.286.257-.547 0-.28-.101-.472-.304-.573-.14-.07-.35-.105-.63-.105h-.779v1.355zm2.891.508V42.05h.652v3.696h-.652zm4.648-3.426v.834c-.194-.218-.364-.365-.509-.443-.2-.112-.427-.17-.657-.17-.393 0-.715.146-.964.439a1.38 1.38 0 00-.34.934c0 .38.122.702.366.968.243.263.553.396.93.396.29 0 .557-.086.8-.257a2.63 2.63 0 00.396-.39v.837c-.395.259-.786.387-1.174.387-.632 0-1.138-.23-1.517-.69a1.896 1.896 0 01-.448-1.243c0-.556.198-1.029.595-1.42.362-.356.821-.534 1.374-.534.406 0 .788.118 1.148.352zm2.6-.352a1.88 1.88 0 011.452.634c.333.365.5.801.5 1.308 0 .59-.216 1.077-.648 1.459a1.918 1.918 0 01-1.317.486 1.933 1.933 0 01-1.713-1.029 1.986 1.986 0 01-.226-.947c0-.538.203-1 .608-1.385.371-.35.819-.526 1.344-.526zm-.005.573c-.422 0-.759.16-1.008.478-.195.25-.291.54-.291.873 0 .426.129.767.387 1.025.243.243.543.365.9.365.434 0 .779-.158 1.034-.474.191-.24.287-.538.287-.894 0-.417-.13-.753-.39-1.008a1.255 1.255 0 00-.918-.364zm3.374 3.205v-3.096h-1.069v-.599H65.7v.6h-1.07v3.096h-.643zm5.122-3.695h.635v3.695h-.635v-.512c-.348.414-.773.621-1.274.621-.551 0-.999-.21-1.343-.63-.293-.353-.44-.797-.44-1.333 0-.623.197-1.113.587-1.472.32-.3.745-.462 1.183-.456.51 0 .94.204 1.287.612v-.525zm-1.191.486c-.36 0-.658.137-.896.413-.214.249-.322.557-.322.925 0 .443.13.796.387 1.06.226.231.501.347.826.347.397 0 .716-.154.957-.46.188-.241.283-.55.283-.926 0-.442-.13-.783-.388-1.02a1.21 1.21 0 00-.847-.339zm5.195 3.21v-3.696h1.57c.481 0 .817.079 1.009.234.203.172.304.41.304.717 0 .348-.161.604-.483.77.461.167.691.48.691.937 0 .414-.166.706-.5.877-.208.107-.492.16-.852.16h-1.739zm.635-2.107h.839c.513 0 .77-.197.77-.59 0-.354-.23-.53-.687-.53h-.922v1.12zm0 1.633h.983c.278 0 .482-.039.612-.117.151-.093.227-.246.227-.46 0-.415-.296-.621-.887-.621h-.935v1.198zM79.9 42.05h.634v3.695H79.9v-.512c-.348.414-.773.621-1.274.621-.551 0-.999-.21-1.343-.63-.293-.353-.44-.797-.44-1.333 0-.623.197-1.113.587-1.472.32-.3.745-.462 1.183-.456.51 0 .939.204 1.287.612v-.525zm-1.192.486c-.359 0-.657.137-.895.413-.214.249-.321.557-.321.925 0 .443.129.796.386 1.06.226.231.501.347.826.347.397 0 .716-.154.957-.46.188-.241.282-.55.282-.926 0-.442-.129-.783-.387-1.02a1.21 1.21 0 00-.847-.339zm2.97 3.21V42.05h.644v3.106h1.395V42.05h.63v3.106h1.396V42.05h.644v3.696h-4.71zm9.144-1.716h-2.884c.013.252.065.465.157.638a1.134 1.134 0 001.018.613c.313 0 .575-.103.787-.309a2.36 2.36 0 00.352-.469l.534.3c-.147.258-.3.456-.456.595a1.802 1.802 0 01-1.239.456c-.591 0-1.06-.214-1.409-.642-.275-.342-.413-.772-.413-1.29 0-.6.176-1.08.526-1.443.33-.34.752-.512 1.265-.512a1.7 1.7 0 011.179.435c.388.347.582.852.582 1.515v.113zm-.67-.534a1.287 1.287 0 00-.213-.517 1.03 1.03 0 00-.87-.438c-.38 0-.683.163-.909.49-.092.14-.154.299-.182.465h2.174zm1.552 2.25V42.05h2.3v.59h-1.666v3.106h-.634zm4.652-3.779a1.88 1.88 0 011.452.634c.333.365.5.801.5 1.308 0 .59-.216 1.077-.648 1.459a1.918 1.918 0 01-1.317.486 1.931 1.931 0 01-1.713-1.029 1.986 1.986 0 01-.226-.947c0-.538.203-1 .608-1.385a1.89 1.89 0 011.344-.526zm-.004.573c-.423 0-.76.16-1.01.478a1.38 1.38 0 00-.29.873c0 .426.129.767.387 1.025.243.243.543.365.9.365.434 0 .78-.158 1.034-.474.191-.24.287-.538.287-.894 0-.417-.13-.753-.39-1.008a1.256 1.256 0 00-.918-.364zm6.752-.573c.582 0 1.066.211 1.452.634.333.365.5.801.5 1.308 0 .59-.216 1.077-.648 1.459a1.918 1.918 0 01-1.318.486 1.93 1.93 0 01-.991-.27 1.879 1.879 0 01-.721-.759 1.976 1.976 0 01-.226-.947c0-.538.203-1 .608-1.385.371-.35.819-.526 1.344-.526zm-.005.573c-.423 0-.759.16-1.008.478-.195.25-.292.54-.292.873 0 .426.129.767.388 1.025.243.243.542.365.899.365.435 0 .78-.158 1.035-.474.191-.24.287-.538.287-.894 0-.417-.131-.753-.391-1.008a1.257 1.257 0 00-.917-.364h-.001zm3.374 3.205v-3.096h-1.069v-.599h2.782v.6h-1.07v3.096h-.643zm5.187 0h-2.913v.977h-.609v-1.567h.161c.182 0 .348-.09.495-.27.183-.22.308-.609.374-1.167.041-.35.073-.907.096-1.668h2.596v3.105h.409v1.567h-.609v-.977zm-.452-.59V42.64h-1.353c-.008.13-.026.43-.052.9-.034.587-.132 1.018-.291 1.293a1.376 1.376 0 01-.265.322h1.961zm1.843.59V42.05h.635v1.32h.839c.461 0 .801.072 1.021.217.305.203.457.523.457.96 0 .478-.177.814-.53 1.008-.232.127-.534.19-.905.19h-1.517zm.635-.508h.77c.312 0 .541-.043.686-.13.172-.104.257-.286.257-.547 0-.28-.102-.472-.304-.573-.14-.07-.35-.105-.631-.105h-.778v1.355zm2.891.508V42.05h.652v3.696h-.652zm2.818-1.971l-1.349-1.724h.775l.965 1.26.965-1.26h.787l-1.357 1.724 1.54 1.971h-.766l-1.169-1.506-1.178 1.506h-.792l1.579-1.971zm5.729-1.724h.635v3.695h-.635v-.512c-.347.414-.772.621-1.273.621a1.66 1.66 0 01-1.344-.63c-.292-.353-.439-.797-.439-1.333 0-.623.196-1.113.587-1.472a1.697 1.697 0 011.183-.456c.51 0 .939.204 1.286.612v-.525zm-1.191.486c-.359 0-.657.137-.895.413-.215.249-.322.557-.322.925 0 .443.129.796.387 1.06.226.231.501.347.826.347.397 0 .716-.154.956-.46.189-.241.283-.55.283-.926 0-.442-.129-.783-.387-1.02a1.21 1.21 0 00-.848-.339z"/></g><defs><clipPath id="clip0_473_783"><path fill="#fff" transform="translate(0 .5)" d="M0 0h152v48H0z"/></clipPath></defs></svg>