<svg width="28" height="36" viewBox="0 0 28 36" fill="none" xmlns="http://www.w3.org/2000/svg">
<path d="M27.3636 3.67432C26.9818 3.41978 26.4727 3.41978 26.0909 3.67432C21.6364 6.47432 18.3273 4.6925 14.6364 2.65614C10.8182 0.619778 6.36364 -1.67113 0.636364 1.76523C0.254545 2.14705 0 2.52887 0 3.03796V20.4743V20.8561V34.4743C0 35.238 0.509091 35.7471 1.27273 35.7471C2.03636 35.7471 2.54545 35.238 2.54545 34.4743V21.6198C6.74545 19.3289 9.8 20.9834 13.3636 22.8925C15.7818 24.1652 18.4545 25.5652 21.5091 25.5652C23.2909 25.5652 25.3273 25.0561 27.3636 23.7834C27.7455 23.5289 28 23.147 28 22.638V4.81978C28 4.31069 27.7455 3.92887 27.3636 3.67432Z" fill="white"/>
</svg>
