<svg width="30" height="38" viewBox="0 0 30 38" fill="none" xmlns="http://www.w3.org/2000/svg">
<path fill-rule="evenodd" clip-rule="evenodd" d="M20.3598 0C18.2709 0.00144681 16.4363 1.76862 16.4892 3.88008C16.4157 5.59883 17.7898 7.74629 20.3572 7.75742C22.6142 7.7671 24.244 5.96929 24.2375 3.88268C24.2299 1.43834 22.1772 -0.00115494 20.3598 0ZM22.2885 11.9571L22.2885 11.9571L22.2884 11.9571C22.2081 11.8889 22.1429 11.8335 22.0879 11.7693C21.712 11.3308 21.3399 10.8888 20.9722 10.4431C20.7321 10.1522 20.4524 9.91368 20.0983 9.78084C19.3038 9.48294 18.5873 9.6389 17.991 10.2282C17.4071 10.8054 17.2968 11.523 17.5593 12.2777C17.6623 12.574 17.858 12.8512 18.0601 13.0972C18.6317 13.7926 19.2122 14.4807 19.7927 15.1688L19.7928 15.1688L19.7929 15.1689L19.7929 15.169L19.793 15.1691L19.7931 15.1693L19.7932 15.1694C20.062 15.4879 20.3307 15.8064 20.5986 16.1257C20.6884 16.2328 20.7739 16.3436 20.8602 16.4555L20.8603 16.4556L20.8613 16.4569C20.9016 16.5091 20.942 16.5615 20.9832 16.6139C20.9696 16.6632 20.9576 16.7107 20.9459 16.7568L20.9459 16.7568L20.9458 16.7569L20.9458 16.757C20.9216 16.8525 20.8989 16.9419 20.8677 17.0282C20.6521 17.6254 20.4354 18.2221 20.2187 18.8189C19.9546 19.5461 19.6905 20.2734 19.4285 21.0013C19.0048 22.1781 18.1983 22.9401 16.9785 23.224C16.641 23.3024 16.4781 23.5211 16.3035 23.7674C15.0688 25.5075 13.8328 27.2467 12.5967 28.9859L11.6868 30.2662L11.5884 30.4051C11.4876 30.5473 11.3869 30.6896 11.2838 30.8302C10.9625 31.2686 10.5539 31.6002 10.0535 31.8136C7.78059 32.7835 5.50738 33.7525 3.2333 34.7198C2.65658 34.9651 2.06179 34.997 1.47639 34.777C0.621284 34.4556 0.117411 33.8154 0.0165206 32.9166C-0.0881277 31.9861 0.309073 31.2509 1.07486 30.7258C1.25612 30.6015 1.46422 30.5137 1.66963 30.427L1.7568 30.3901L2.33597 30.1427L2.3362 30.1426L2.33644 30.1425L2.33667 30.1424C4.01238 29.4266 5.6881 28.7108 7.36893 28.0071C7.76628 27.8408 8.07126 27.6083 8.31915 27.2474C9.18986 25.9801 10.0711 24.72 10.9523 23.4599C11.3158 22.9401 11.6793 22.4203 12.0421 21.9C12.1132 21.798 12.1805 21.6933 12.2517 21.5825L12.2519 21.5822L12.2519 21.5822L12.2519 21.5821C12.2859 21.5292 12.3208 21.4749 12.3575 21.4188C12.3453 21.3862 12.3336 21.3532 12.3219 21.3202L12.3219 21.3202L12.3219 21.3202C12.2963 21.2476 12.2705 21.1748 12.2381 21.105C11.8064 20.1743 11.8013 19.2401 12.1563 18.2792C12.6364 16.9799 13.1054 15.6765 13.5745 14.3731L13.5746 14.3728L13.5747 14.3725L13.5748 14.3722C13.786 13.7855 13.9971 13.1989 14.2092 12.6126C14.294 12.3783 14.3807 12.1446 14.4674 11.9109L14.4674 11.9109L14.4675 11.9108L14.4675 11.9107C14.6299 11.4732 14.7922 11.0357 14.9419 10.5939C15.5075 8.92443 17.3584 7.84803 19.3335 8.53648C19.4011 8.56005 19.4689 8.58331 19.5367 8.60658L19.5369 8.60664L19.5371 8.6067L19.5371 8.60671C19.841 8.71099 20.1455 8.81549 20.4364 8.94886C21.6271 9.49509 22.2849 10.4385 22.4481 11.732C22.4549 11.7866 22.449 11.8427 22.4409 11.9204C22.4363 11.9644 22.4309 12.0154 22.4267 12.0769C22.3761 12.0315 22.3303 11.9926 22.2885 11.9571ZM22.3302 27.6077L16.6117 24.1271C16.6475 23.8186 16.7915 23.6685 17.0424 23.6041C18.4289 23.2484 19.3346 22.3738 19.8131 21.0368C19.827 20.9979 19.8541 20.9637 19.8875 20.9215C19.9052 20.8992 19.9245 20.8747 19.9447 20.8461C19.9913 20.8707 20.0376 20.8941 20.0834 20.9173C20.1817 20.9671 20.2776 21.0157 20.3693 21.0712C21.3471 21.6625 22.3244 22.2548 23.3016 22.847L23.3102 22.8523L23.3137 22.8544L23.3173 22.8566C24.0131 23.2783 24.7089 23.7 25.4049 24.1213C26.4171 24.7342 26.9337 25.6238 26.9323 26.8138C26.9308 27.9791 26.9309 29.1444 26.9309 30.3097V30.3127C26.9309 31.7561 26.9309 33.1996 26.9282 34.6431C26.9278 34.8722 26.9126 35.1085 26.8556 35.3289C26.5919 36.349 25.6463 37.0402 24.5872 37.0069C23.5407 36.9741 22.6735 36.2779 22.4497 35.2609C22.3861 34.9714 22.3751 34.6661 22.3734 34.3679C22.3657 33.0544 22.3623 31.7409 22.3588 30.4274V30.4274V30.4274V30.4273C22.357 29.7316 22.3552 29.036 22.3527 28.3403C22.3522 28.1869 22.3462 28.0334 22.3397 27.8659C22.3364 27.7838 22.3331 27.6982 22.3302 27.6077ZM22.7684 13.0932C23.0131 13.1341 23.2027 13.054 23.3848 12.977C23.4368 12.955 23.4883 12.9333 23.5402 12.9147C24.3194 12.6356 25.0965 12.3504 25.8735 12.0651L25.8735 12.0651L25.8741 12.0649C26.266 11.921 26.6579 11.7771 27.05 11.6341C27.0852 11.6213 27.1203 11.6081 27.1555 11.595L27.1558 11.5949C27.3156 11.5354 27.4761 11.4755 27.6413 11.4421C28.4325 11.282 29.2021 11.7134 29.476 12.4564C29.7593 13.225 29.4206 14.075 28.6749 14.4503C28.5608 14.5078 28.4394 14.5513 28.3182 14.5947L28.3182 14.5947L28.318 14.5948C28.287 14.6059 28.2559 14.617 28.225 14.6284C26.5148 15.2566 24.8042 15.8839 23.0936 16.5111C23.0591 16.5237 23.0247 16.5369 22.9903 16.5502L22.9901 16.5503C22.8951 16.5869 22.7998 16.6236 22.7016 16.6474C22.1214 16.7873 21.6025 16.6823 21.1775 16.2389C21.0849 16.142 20.9982 16.0392 20.9118 15.9366L20.9036 15.927C20.5803 15.5434 20.2573 15.1596 19.9342 14.7758C19.41 14.1532 18.8858 13.5305 18.3607 12.9086C18.1358 12.6423 17.9368 12.3672 17.8498 12.0178C17.6756 11.3185 17.9242 10.639 18.5084 10.2664C19.1123 9.88136 19.9023 9.9347 20.4363 10.4099C20.5691 10.5281 20.6852 10.6658 20.8007 10.8028L20.8565 10.8689C21.1154 11.1743 21.3734 11.4806 21.6313 11.7869C21.9086 12.1161 22.1859 12.4453 22.4644 12.7735C22.5363 12.8581 22.6146 12.9372 22.6846 13.0078C22.7144 13.0379 22.7428 13.0664 22.7684 13.0932ZM14.4289 10.8587C14.4341 10.8158 14.4405 10.7626 14.4508 10.6937C14.3803 10.712 14.3185 10.7268 14.2628 10.7401C14.158 10.7651 14.0746 10.785 13.9947 10.8142C13.681 10.9288 13.3681 11.0459 13.0553 11.163C12.4384 11.394 11.8215 11.6249 11.1981 11.8368C10.6176 12.034 10.2134 12.3793 9.91424 12.917C9.34185 13.945 8.75277 14.9638 8.16366 15.9826C7.90883 16.4233 7.654 16.864 7.40051 17.3054C7.39469 17.3156 7.38885 17.3258 7.38301 17.3359C7.30843 17.4658 7.23337 17.5965 7.17546 17.734C6.92656 18.3243 7.06792 18.9587 7.56023 19.3639C7.75377 19.523 7.97998 19.6524 8.20879 19.7567C8.87152 20.059 9.5565 19.864 9.97943 19.2635C10.07 19.1349 10.1475 18.9969 10.225 18.8591C10.2495 18.8154 10.2741 18.7718 10.299 18.7284L10.2991 18.7283C10.9907 17.5278 11.6823 16.3273 12.3719 15.1255C12.5112 14.8826 12.6485 14.6443 12.9427 14.5544C13.1432 14.4929 13.2104 14.314 13.2737 14.1391C13.6509 13.0972 14.0273 12.0551 14.4011 11.0121C14.4153 10.9724 14.4205 10.9295 14.4289 10.8587Z" fill="#494949"/>
</svg>
