<svg width="23" height="39" viewBox="0 0 23 39" fill="none" xmlns="http://www.w3.org/2000/svg">
<path fill-rule="evenodd" clip-rule="evenodd" d="M13.6862 4.69358C13.7028 7.16235 15.7414 8.6043 17.5862 8.53507C19.6046 8.57597 21.458 6.88469 21.4358 4.64473C21.4144 2.4844 19.7003 0.790517 17.5372 0.792974C15.5935 0.795287 13.6698 2.29708 13.6862 4.69358ZM17.0167 21.9708C16.9754 21.7784 16.9371 21.6034 16.9014 21.4399L16.9013 21.4397C16.8307 21.1171 16.7699 20.8392 16.7149 20.5601C16.6368 20.1632 16.5604 19.766 16.4841 19.3687L16.4841 19.3686L16.484 19.3685L16.484 19.3683C16.3468 18.6544 16.2096 17.9404 16.0618 17.2287C16.0029 16.9449 16.0201 16.6892 16.0998 16.4149C16.3692 15.4876 16.6305 14.5578 16.8917 13.6281L16.8919 13.6277L16.8921 13.6269C16.9806 13.3121 17.069 12.9973 17.1578 12.6825C17.1747 12.623 17.1924 12.5636 17.2101 12.5042C17.2518 12.3641 17.2936 12.224 17.3239 12.0815C17.5284 11.1211 16.9743 10.1317 16.0551 9.80543C15.1019 9.46721 14.0392 9.91471 13.6137 10.8445C13.5181 11.0533 13.4526 11.2772 13.3895 11.4987C13.2307 12.0543 13.0735 12.6104 12.9163 13.1664L12.9162 13.1669L12.9162 13.1669C12.6588 14.0774 12.4014 14.9878 12.1372 15.8961C11.9919 16.3952 11.9641 16.8769 12.0708 17.3947C12.3987 18.9876 12.7092 20.584 13.0198 22.1804L13.0198 22.1806L13.0198 22.1807L13.0199 22.1808C13.1282 22.7378 13.2366 23.2949 13.3457 23.8517C13.4977 24.6288 13.9383 25.1634 14.718 25.3295C15.4252 25.4803 16.1027 25.3341 16.6645 24.8553C17.1844 24.4123 17.3326 23.8217 17.2284 23.1607C17.1949 22.9491 17.1567 22.7382 17.1139 22.5017L17.1137 22.5005C17.0926 22.3839 17.0703 22.261 17.047 22.1288C17.107 22.1529 17.1589 22.1709 17.2043 22.1867L17.2044 22.1867L17.2044 22.1867L17.2045 22.1868C17.2862 22.2151 17.3469 22.2361 17.3962 22.2726C17.7724 22.5513 18.1495 22.8289 18.5265 23.1066L18.5273 23.1071L18.528 23.1076L18.5287 23.1081C19.6211 23.9126 20.7136 24.717 21.7871 25.546C23.1469 26.5961 23.3387 28.4763 22.2269 29.7925C21.5997 30.5352 20.9493 31.2581 20.2989 31.9811L20.2989 31.9811L20.2989 31.9812L20.2989 31.9812L20.2984 31.9817C20.0214 32.2897 19.7443 32.5976 19.469 32.9071C18.6243 33.8571 17.7792 34.8065 16.9326 35.7549L16.8625 35.8338C16.7324 35.9806 16.6019 36.1278 16.4575 36.2592C15.6012 37.0387 14.2826 37.0472 13.4184 36.2861C12.5455 35.5174 12.3874 34.2292 13.0564 33.2719C13.1726 33.1059 13.309 32.9534 13.4447 32.8015L13.4998 32.7399C14.1097 32.0542 14.7202 31.369 15.3307 30.6838L15.334 30.6801L15.3355 30.6784C15.9227 30.0194 16.5099 29.3604 17.0965 28.701C17.1985 28.5862 17.2961 28.4676 17.4006 28.3408L17.4006 28.3408L17.4006 28.3408C17.451 28.2796 17.503 28.2165 17.5578 28.151C17.5035 28.1038 17.4531 28.0583 17.4048 28.0147C17.3068 27.9263 17.2174 27.8455 17.1214 27.7737C15.5116 26.569 13.9014 25.3651 12.286 24.1681C12.1032 24.0325 11.8991 23.9107 11.6866 23.8325C10.2412 23.301 9.11768 21.6641 9.63962 19.7044C9.91177 18.6825 10.1777 17.6589 10.4435 16.6353L10.4435 16.6352L10.4436 16.6351L10.4436 16.635L10.569 16.1523C10.9463 14.6995 11.323 13.2465 11.696 11.7926C11.9238 10.905 12.3947 10.1899 13.1696 9.68749C13.9699 9.16873 14.8451 9.05598 15.764 9.2397C16.1483 9.31645 16.5282 9.42225 16.9036 9.5363C18.6913 10.0798 19.6876 11.788 19.2462 13.6063C18.9721 14.7355 18.6767 15.8595 18.3814 16.9836C18.26 17.4454 18.1386 17.9073 18.0187 18.3695C17.7577 19.3754 17.496 20.381 17.2299 21.3854C17.2047 21.4805 17.1689 21.5729 17.1184 21.7031L17.1183 21.7033L17.1182 21.7036C17.0894 21.7779 17.0558 21.8644 17.0167 21.9708ZM10.1775 23.2626C10.6794 23.7126 11.1525 24.0385 11.7102 24.2237C11.7747 24.2452 11.8361 24.2838 11.8913 24.3247C12.4178 24.715 12.9434 25.1064 13.4837 25.5089L13.917 25.8316C13.8914 25.8892 13.8683 25.9439 13.8462 25.9962L13.8461 25.9962C13.8015 26.1017 13.7608 26.1977 13.7127 26.2898C13.2994 27.0803 12.8854 27.8705 12.4715 28.6608L12.4713 28.6612L12.4711 28.6616L12.4709 28.662L12.4698 28.664C11.8232 29.8983 11.1766 31.1327 10.5324 32.3683C10.3696 32.6802 10.1608 32.9477 9.90506 33.1882C8.71177 34.3111 7.52057 35.4363 6.32939 36.5615L6.32865 36.5622L6.32677 36.564L6.32298 36.5675L6.32098 36.5694C5.80156 37.0601 5.28214 37.5507 4.76255 38.0412L4.73249 38.0696L4.73241 38.0696C4.64172 38.1554 4.55075 38.2415 4.4538 38.3195C3.58887 39.0165 2.42617 39.0285 1.57395 38.3516C0.753534 37.6999 0.508246 36.5861 0.961674 35.5948C1.12876 35.2295 1.38764 34.9413 1.67658 34.6696C2.25656 34.124 2.83514 33.5769 3.41372 33.0298L3.41414 33.0294L3.41497 33.0286L3.41589 33.0277L3.41596 33.0276L3.41603 33.0276C4.29735 32.1942 5.17868 31.3608 6.06501 30.5328C6.44169 30.181 6.74234 29.7917 6.97881 29.3306C7.7205 27.8848 8.47545 26.4456 9.23038 25.0065L9.23046 25.0063L9.23054 25.0061L9.23062 25.006C9.44132 24.6043 9.65201 24.2027 9.86242 23.8009C9.9171 23.6966 9.97806 23.5954 10.0512 23.4741C10.0897 23.4103 10.1315 23.341 10.1775 23.2626ZM16.9681 11.9033L16.9681 11.9033C16.9416 12.0362 16.9053 12.2183 16.8557 12.3966L16.6848 13.0117C16.39 14.0733 16.0952 15.1349 15.7809 16.1908C15.6583 16.6025 15.6369 16.9953 15.7213 17.4129C15.9825 18.7048 16.2365 19.9982 16.4905 21.2915L16.4905 21.2916C16.5743 21.7182 16.6581 22.1448 16.7421 22.5713C16.7547 22.6354 16.7679 22.6995 16.7811 22.7636L16.7811 22.7636L16.7811 22.7637C16.8191 22.9483 16.857 23.133 16.8829 23.3193C16.9825 24.0377 16.5984 24.6578 15.9105 24.8752C15.6923 24.9441 15.4617 24.9928 15.2338 25.0086C14.4904 25.0596 13.9413 24.6665 13.7467 23.9401C13.6654 23.6364 13.6059 23.3267 13.5465 23.0172L13.5464 23.017C13.5319 22.9412 13.5173 22.8654 13.5025 22.7897C13.3898 22.2162 13.2784 21.6424 13.1669 21.0686L13.1669 21.0683L13.1668 21.068C12.9309 19.8534 12.695 18.6389 12.4479 17.4266C12.3434 16.9142 12.3593 16.4309 12.5074 15.9282C12.8067 14.9134 13.0932 13.8948 13.3798 12.8763L13.3798 12.8762C13.5117 12.4074 13.6436 11.9386 13.7767 11.4702L13.7847 11.4419L13.7847 11.4419C13.8261 11.2959 13.8678 11.1486 13.929 11.0107C14.2313 10.3299 14.9858 9.93533 15.6881 10.0825C16.4677 10.246 16.9839 10.867 16.9932 11.7813C16.986 11.8139 16.9777 11.8554 16.9681 11.9033ZM11.001 12.9768C11.014 12.9107 11.0277 12.8414 11.0432 12.7672C10.9996 12.7672 10.9687 12.7656 10.9464 12.7645C10.914 12.7628 10.9001 12.7621 10.8922 12.7687C10.7434 12.8909 10.5958 13.0147 10.4483 13.1384C10.1538 13.3854 9.85936 13.6324 9.55516 13.8669C9.16201 14.1701 8.87697 14.5468 8.63573 14.9755C7.87622 16.3257 7.11149 17.6728 6.34674 19.02C5.99492 19.6398 5.64309 20.2596 5.29176 20.8796C5.27553 20.9083 5.25906 20.9368 5.24258 20.9654C5.16673 21.0971 5.0905 21.2294 5.03505 21.3693C4.86276 21.8048 4.88126 22.2467 5.15083 22.6277C5.54528 23.1852 6.09339 23.5089 6.79615 23.4805C7.29554 23.4604 7.66571 23.1956 7.91577 22.7702C8.08475 22.4829 8.24882 22.1928 8.4129 21.9027C8.51016 21.7308 8.60741 21.5588 8.70569 21.3874C8.71899 21.3642 8.73233 21.3411 8.74566 21.318C8.9853 20.902 9.22214 20.491 9.21433 19.9767C9.21197 19.8179 9.26228 19.6581 9.31244 19.4987C9.33283 19.4339 9.35321 19.3691 9.37001 19.3046C9.56872 18.5407 9.76769 17.7769 9.96666 17.0131C10.2852 15.7901 10.6038 14.5672 10.9214 13.3439C10.9517 13.2272 10.9751 13.1087 11.001 12.9768Z" fill="#494949"/>
</svg>
