<svg width="20" height="40" viewBox="0 0 20 40" fill="none" xmlns="http://www.w3.org/2000/svg">
<path fill-rule="evenodd" clip-rule="evenodd" d="M16.1056 4.32527C16.1308 2.15064 14.3163 0.38723 12.25 0.434495C10.3683 0.357021 8.37025 1.86213 8.3425 4.27671C8.31879 6.35204 9.92798 8.14754 12.2015 8.18252C14.3455 8.21562 16.0804 6.47432 16.1056 4.32527ZM12.2758 17.4051L11.7222 17.369C11.7083 17.3395 11.6944 17.3151 11.6824 17.2942C11.6614 17.2575 11.6465 17.2314 11.6488 17.207L11.6722 16.9463C11.7137 16.4816 11.7552 16.0169 11.8105 15.554C11.8759 15.0068 11.9468 14.4602 12.0176 13.9137L12.0176 13.9134C12.0656 13.5436 12.1135 13.1738 12.1597 12.8038C12.1861 12.5928 12.2041 12.3805 12.222 12.1684L12.222 12.1684L12.2326 12.0447C12.3257 10.9636 11.522 10.0464 10.4684 9.92871C9.42153 9.81178 8.4797 10.5674 8.32113 11.6553C8.24636 12.1679 8.18407 12.6824 8.12179 13.1969L8.12179 13.1969L8.12179 13.197L8.12178 13.197C8.09798 13.3936 8.07418 13.5902 8.04968 13.7867L7.97264 14.404L7.97262 14.4041L7.97261 14.4042L7.97259 14.4044C7.8723 15.2071 7.77199 16.0099 7.67662 16.8132L7.67513 16.8258L7.67513 16.8258C7.63485 17.1657 7.59433 17.5076 7.59076 17.849C7.574 19.4962 8.7484 20.8831 10.3759 21.1567C10.5575 21.1872 10.7386 21.2222 10.9181 21.263C10.9447 21.269 10.968 21.2891 10.9975 21.3144C11.0131 21.3279 11.0304 21.3428 11.0508 21.3578C10.831 22.196 10.3011 22.8098 9.58544 23.2965C9.55992 23.7199 9.62985 24.1293 9.69942 24.5366L9.69943 24.5367C9.72679 24.6969 9.75409 24.8567 9.77551 25.017C9.92882 26.1635 10.0925 27.3086 10.2561 28.4536C10.3441 29.0694 10.4321 29.6852 10.5185 30.3012C10.6354 31.1346 10.4676 31.8965 10.0026 32.6122C9.13865 33.942 8.28511 35.2785 7.43156 36.615L7.43111 36.6157L7.43103 36.6158L7.43094 36.616C7.02846 37.2462 6.62597 37.8764 6.22239 38.5059C6.1228 38.6613 6.02147 38.8179 5.90237 38.9579C5.17215 39.8162 3.8983 40.005 2.94664 39.4018C1.99786 38.8004 1.62364 37.5605 2.0921 36.536C2.17644 36.3517 2.28724 36.1786 2.39727 36.0068L2.44103 35.9383C2.68489 35.5551 2.92817 35.1716 3.17145 34.788L3.17148 34.788L3.17172 34.7876L3.17237 34.7865C3.94375 33.5704 4.71511 32.3542 5.50517 31.1503C5.80307 30.6965 5.9096 30.2556 5.8262 29.7198C5.66778 28.702 5.52774 27.6813 5.38771 26.6607L5.38765 26.6603C5.32673 26.2162 5.2658 25.7722 5.20337 25.3283C5.16906 25.0845 5.13358 24.8408 5.0981 24.5972L5.09809 24.5971L5.09808 24.5971L5.09808 24.597C5.03372 24.155 4.96936 23.713 4.91197 23.2701C4.87482 22.9836 4.76454 22.7666 4.55018 22.5563C3.55458 21.5798 3.23991 20.399 3.64246 19.063C4.31877 16.8186 5.00983 14.5787 5.70088 12.3388L5.70089 12.3388L5.7009 12.3388L5.7009 12.3388L6.09909 11.0478C6.67177 9.19025 8.616 8.31172 10.2168 8.79146C10.3371 8.82749 10.458 8.86207 10.5788 8.89665L10.5788 8.89666L10.5789 8.89666L10.5789 8.89667C10.8356 8.97015 11.0924 9.04361 11.3444 9.13099C13.079 9.73213 14.0301 11.4531 13.5494 13.2214C13.2908 14.1727 12.9942 15.1139 12.6896 16.0802L12.6896 16.0802L12.6896 16.0802L12.6896 16.0803L12.6896 16.0804C12.5523 16.5158 12.4135 16.9563 12.2758 17.4051ZM11.2167 17.6732C11.433 17.7027 11.6393 17.7316 11.8388 17.7595C12.2525 17.8174 12.6373 17.8713 13.0229 17.9187C13.9279 18.0298 14.8332 18.1389 15.7385 18.2481L15.7388 18.2481L15.7391 18.2482L15.7394 18.2482C16.5073 18.3408 17.2752 18.4334 18.0429 18.5272C18.2487 18.5523 18.4568 18.5796 18.656 18.6347C19.3036 18.8135 19.7003 19.3404 19.6903 20.0184C19.687 20.2469 19.6542 20.4804 19.5977 20.7021C19.4092 21.4403 18.8092 21.8526 18.0423 21.771C17.4748 21.7105 16.9085 21.6379 16.3424 21.5653L16.342 21.5653L16.0483 21.5277C15.408 21.4461 14.7678 21.3636 14.1276 21.281L14.1274 21.281L14.1273 21.281L14.1272 21.281C13.0272 21.1392 11.9273 20.9974 10.8268 20.8602C10.1484 20.7757 9.51128 20.5963 8.98919 20.1325C8.18988 19.4225 7.8424 18.5308 7.96887 17.4671C8.15008 15.942 8.33739 14.4175 8.5247 12.893L8.52471 12.8929L8.52472 12.8928L8.52482 12.892L8.62162 12.1039C8.64403 11.9207 8.67134 11.7372 8.71268 11.5575C8.91056 10.6981 9.62431 10.2092 10.518 10.3152C11.3123 10.4093 11.912 11.1279 11.8789 11.9705C11.8692 12.2173 11.8363 12.4635 11.8034 12.7095L11.8034 12.7097L11.8034 12.7099L11.8033 12.7102C11.7934 12.7848 11.7834 12.8594 11.7741 12.934C11.7084 13.4602 11.6421 13.9863 11.5758 14.5124L11.5757 14.5132C11.4774 15.2927 11.3791 16.0721 11.2829 16.8519C11.2625 17.0173 11.2512 17.1837 11.2383 17.3726L11.2383 17.3727L11.2383 17.3728L11.2383 17.3729C11.2319 17.4666 11.2252 17.5658 11.2167 17.6732ZM10.8241 29.8805L9.93849 23.559C10.0271 23.4683 10.115 23.3821 10.2011 23.2978L10.2011 23.2977C10.3909 23.1117 10.5714 22.9347 10.729 22.7393C10.8859 22.5448 11.0199 22.3317 11.1615 22.1066L11.1615 22.1066L11.1615 22.1065C11.2256 22.0047 11.2911 21.9004 11.3611 21.7943C11.3871 21.8155 11.4132 21.8343 11.4383 21.8524C11.4892 21.8891 11.5359 21.9228 11.5692 21.9666C11.8002 22.2707 12.0326 22.5738 12.265 22.8769L12.2653 22.8774C12.8904 23.6928 13.5156 24.5083 14.1147 25.3424C15.0157 26.5964 14.8039 28.2192 13.6571 29.2209C13.246 29.5802 12.7693 29.8195 12.229 29.872C11.9354 29.9006 11.6384 29.8943 11.3107 29.8873C11.1562 29.884 10.995 29.8805 10.8241 29.8805ZM5.48871 30.1035C5.29762 28.6166 5.10712 27.1583 4.85316 25.6283C4.78812 25.6283 4.73206 25.6278 4.68185 25.6273C4.5881 25.6264 4.51478 25.6257 4.44165 25.629C4.24909 25.6376 4.05648 25.6455 3.86386 25.6533C3.36478 25.6735 2.86567 25.6938 2.36747 25.7279C1.16141 25.8106 0.26482 26.764 0.249354 27.9596C0.233455 29.19 1.12773 30.1782 2.35533 30.2794C2.53861 30.2944 2.72449 30.2875 2.90878 30.2795C3.64638 30.2474 4.38383 30.2132 5.12114 30.1742C5.19382 30.1702 5.26581 30.1535 5.34933 30.1341C5.3922 30.1241 5.43811 30.1135 5.48871 30.1035Z" fill="#494949"/>
</svg>
