<svg width="23" height="39" viewBox="0 0 23 39" fill="none" xmlns="http://www.w3.org/2000/svg">
<path fill-rule="evenodd" clip-rule="evenodd" d="M12.9381 3.90472C12.9761 6.05579 14.6883 7.76355 16.8489 7.74708C19.0006 7.7306 20.7166 5.99306 20.702 3.84315C20.6896 1.99662 19.2947 -0.0237823 16.7879 0.000211653C14.1751 0.0250728 12.9079 2.19161 12.9381 3.90472ZM16.6561 27.2028C16.7126 27.2488 16.7713 27.2967 16.8338 27.3467C16.7748 27.4155 16.7182 27.482 16.6631 27.5467C16.5449 27.6856 16.4334 27.8166 16.3191 27.9451C15.7789 28.552 15.2385 29.1586 14.698 29.7652L14.6943 29.7694C14.021 30.525 13.3477 31.2807 12.6752 32.0369L12.6336 32.0835C12.5089 32.2233 12.3833 32.364 12.2804 32.519C11.6595 33.4547 11.8302 34.7511 12.6627 35.4855C13.5268 36.2477 14.8482 36.245 15.7052 35.4727C15.8348 35.3559 15.9513 35.2241 16.0675 35.0929L16.133 35.019C17.8255 33.1208 19.5169 31.222 21.208 29.3227L21.2526 29.2729C21.361 29.1515 21.4696 29.03 21.5682 28.9011C22.539 27.6336 22.3632 25.882 21.1593 24.8399C21.0153 24.7152 20.8614 24.6015 20.7078 24.4879L20.7077 24.4878L20.6107 24.416C20.1169 24.0487 19.6229 23.6817 19.1289 23.3148L19.1271 23.3134L19.127 23.3133C18.3784 22.7572 17.6298 22.2011 16.882 21.6439C16.757 21.5508 16.6364 21.4515 16.5164 21.3527L16.5164 21.3527L16.5164 21.3527L16.5162 21.3526C16.4618 21.3078 16.4076 21.2632 16.3532 21.2193C16.3683 21.1463 16.3817 21.0778 16.3944 21.0123L16.3945 21.0119C16.4207 20.8779 16.4443 20.7568 16.4752 20.6375C16.6155 20.0945 16.7573 19.5518 16.899 19.0092C17.0433 18.4567 17.1876 17.9043 17.3304 17.3515C17.4647 16.8321 17.5968 16.3121 17.7289 15.7921L17.729 15.7917L17.729 15.7917C17.9894 14.767 18.2497 13.7424 18.5262 12.7221C18.8873 11.3898 18.2013 9.3586 16.2052 8.75731C15.8074 8.63748 15.4064 8.52257 15.0003 8.437C13.437 8.1073 11.9342 8.83204 11.2322 10.2436C11.2087 10.2908 11.1953 10.3428 11.1746 10.4234L11.1746 10.4234L11.1745 10.4235C11.1622 10.4714 11.1473 10.5293 11.1261 10.6022C11.1964 10.5532 11.2554 10.5133 11.3066 10.4786C11.3995 10.4158 11.4666 10.3704 11.5288 10.3191C11.7039 10.1746 11.8776 10.0284 12.0512 9.8821L12.0513 9.88203L12.0513 9.88201L12.0514 9.882C12.3374 9.64108 12.6235 9.40015 12.916 9.16723C13.6471 8.58487 14.8882 8.61537 15.6034 9.46715C16.2688 10.2597 16.2082 11.4254 15.4496 12.1673C15.3474 12.2675 15.2363 12.3587 15.1254 12.4499L15.1254 12.4499L15.1252 12.45C15.0932 12.4763 15.0612 12.5026 15.0295 12.5291L14.2642 13.1683C13.3307 13.9484 12.3971 14.7284 11.4597 15.5038C11.2065 15.7134 11.0014 15.9486 10.8402 16.2381C10.2336 17.3286 9.62287 18.4172 8.98934 19.4921C8.78525 19.8385 8.74232 20.1764 8.83092 20.5518C9.09775 21.6828 9.7453 22.4993 10.811 22.9825C11.0819 23.1054 11.3566 23.2377 11.5944 23.4131C12.9237 24.3945 14.2465 25.3846 15.5693 26.3747L15.5695 26.3748L15.5699 26.3751L16.3201 26.9365C16.4312 27.0195 16.5388 27.1072 16.6561 27.2028ZM11.0139 23.4513C10.4413 23.2514 9.93521 22.9374 9.42425 22.4532C9.37003 22.552 9.32115 22.64 9.27612 22.7212L9.27589 22.7216L9.27578 22.7218L9.27577 22.7218C9.1876 22.8807 9.11414 23.0131 9.04397 23.1472L8.46153 24.2599L8.46131 24.2603C7.69173 25.7302 6.92212 27.2001 6.16007 28.6739C5.97664 29.0284 5.74754 29.332 5.45658 29.6049C3.9571 31.011 2.465 32.425 0.974628 33.8411C0.774727 34.031 0.574247 34.2293 0.417564 34.4541C-0.141813 35.2573 -0.134875 36.3667 0.412505 37.1206C0.982433 37.9055 1.99264 38.2352 2.9417 37.9464C3.35061 37.8219 3.67742 37.5723 3.98283 37.2829C5.70982 35.6467 7.43753 34.0111 9.17015 32.3808C9.42642 32.1397 9.63052 31.8713 9.79298 31.5591C10.4142 30.365 11.0383 29.1724 11.6624 27.9799L11.6625 27.9797C12.0983 27.1471 12.534 26.3146 12.9687 25.4815C13.0167 25.3898 13.0533 25.292 13.0929 25.1864C13.1122 25.1348 13.1322 25.0813 13.1546 25.0258L12.7896 24.7527L12.7895 24.7526C12.2475 24.3472 11.7197 23.9524 11.1913 23.5585L11.1878 23.5559L11.1877 23.5559C11.1334 23.5155 11.0765 23.4731 11.0139 23.4513ZM15.7095 10.6863C15.701 11.1805 15.5453 11.5569 15.2408 11.8669C15.132 11.9778 15.0115 12.0776 14.8913 12.1771L14.8242 12.2328C14.5547 12.4578 14.2852 12.6829 14.0158 12.9081L14.015 12.9088C13.0964 13.6766 12.1778 14.4444 11.2532 15.205C10.9441 15.4591 10.6996 15.7483 10.5033 16.0982C9.68499 17.5578 8.85845 19.0128 8.03191 20.4678C7.81982 20.8412 7.60773 21.2145 7.39578 21.5879C7.37545 21.6238 7.35536 21.6599 7.33526 21.696L7.33523 21.6961C7.25401 21.842 7.17251 21.9884 7.07346 22.1213C6.67568 22.6551 6.01657 22.8416 5.40602 22.5847C5.17389 22.487 4.94479 22.3634 4.74445 22.2118C4.21572 21.8114 4.0521 21.1497 4.31054 20.535C4.3694 20.395 4.44508 20.2616 4.52028 20.1291L4.52029 20.1291L4.534 20.1049C4.8865 19.4836 5.23946 18.8624 5.59241 18.2413C6.38107 16.8534 7.16973 15.4656 7.95328 14.0748C8.16128 13.7058 8.4203 13.3963 8.74609 13.1254C9.62861 12.3918 10.5068 11.653 11.3849 10.9141L11.3853 10.9138C11.8513 10.5217 12.3172 10.1297 12.7839 9.7384L12.8327 9.69736C12.9756 9.57709 13.1199 9.45562 13.2791 9.36129C13.8231 9.03925 14.3806 9.03867 14.9231 9.36216C15.4408 9.6709 15.6845 10.1476 15.7095 10.6863Z" fill="#494949"/>
</svg>
