<svg width="24" height="40" viewBox="0 0 24 40" fill="none" xmlns="http://www.w3.org/2000/svg">
<path fill-rule="evenodd" clip-rule="evenodd" d="M20.9485 3.86601C20.9466 1.74774 19.1853 -0.0467424 17.0679 0.00167912C15.1698 -0.0587394 13.2032 1.51662 13.1958 3.8728C13.1893 5.88815 14.7845 7.74927 17.0749 7.74681C19.4097 7.74435 20.9502 5.82093 20.9485 3.86601ZM14.7751 23.9435L14.7751 23.9436C14.7272 24.111 14.68 24.2757 14.6378 24.4416C14.2742 25.872 13.9114 27.3027 13.5486 28.7334L12.9849 30.9557C12.9601 31.0536 12.9338 31.151 12.9074 31.2486L12.9074 31.2486L12.9074 31.2486L12.9074 31.2486L12.9074 31.2487L12.9073 31.2489C12.8915 31.3074 12.8757 31.3659 12.8602 31.4244C12.4426 33.0067 10.7924 33.9385 9.23871 33.5067C8.28125 33.2407 7.32538 32.9687 6.36946 32.6968L6.36936 32.6968L6.36926 32.6968L6.3691 32.6967L6.36451 32.6954L6.36029 32.6942L6.35642 32.6931C5.96162 32.5808 5.56681 32.4685 5.17188 32.3566L4.86907 32.2708C3.92567 32.0037 2.98221 31.7365 2.03923 31.4681C1.86173 31.4175 1.68481 31.3637 1.51035 31.3036C0.173191 30.8427 -0.494014 29.1774 0.424983 27.8144C0.780556 27.2872 1.29411 26.9926 1.92937 26.9355C2.34479 26.8983 2.75774 26.9189 3.16738 27.0259C4.78822 27.4493 6.41081 27.8661 8.0334 28.2829L8.03387 28.283L8.03434 28.2832L8.03481 28.2833L8.39993 28.3771C8.5025 28.4035 8.60677 28.4232 8.72141 28.4448C8.77738 28.4554 8.83581 28.4664 8.89774 28.479C8.92049 28.4161 8.94402 28.3563 8.9669 28.298C9.01408 28.178 9.05846 28.065 9.08738 27.9482C9.27587 27.1864 9.4627 26.4241 9.64954 25.6618L9.6497 25.6611C9.9081 24.6069 10.1665 23.5526 10.4293 22.4994C10.5163 22.1509 10.529 21.8402 10.3586 21.4986C10.0278 20.8357 9.99727 20.1236 10.1362 19.4001C10.4302 17.8673 10.7233 16.3344 11.0163 14.8014L11.017 14.7977L11.0177 14.7941C11.2229 13.7206 11.4281 12.6472 11.6336 11.5738C11.6522 11.4768 11.6749 11.3807 11.6976 11.2846L11.6976 11.2844C11.7068 11.2457 11.7159 11.2069 11.7248 11.1681C12.1457 9.32312 13.8203 8.22446 15.6898 8.56775C15.8298 8.59347 15.9695 8.6215 16.1092 8.64953L16.1093 8.64953L16.1093 8.64954L16.1094 8.64956C16.2868 8.68514 16.4641 8.72073 16.6423 8.75161C18.2799 9.03563 19.6989 10.6454 19.3261 12.7291C19.2742 13.0199 19.2143 13.3092 19.1496 13.6221L19.1495 13.6225L19.1494 13.623L19.1494 13.6232L19.1493 13.6239L19.1492 13.624L19.1491 13.6244C19.118 13.7747 19.0858 13.9305 19.0528 14.0945C19.0178 14.0532 18.9843 14.0189 18.9543 13.9881C18.8987 13.931 18.855 13.886 18.835 13.8323C18.6313 13.2834 18.4315 12.7332 18.2316 12.183C18.1003 11.8215 17.969 11.46 17.8366 11.0988C17.8232 11.0624 17.81 11.0258 17.7967 10.9891C17.7234 10.7864 17.6496 10.5827 17.5491 10.3939C17.0696 9.49253 15.9861 9.11267 15.0531 9.50539C14.1452 9.88742 13.6618 10.8865 13.924 11.8445C13.9605 11.9778 14.0077 12.1084 14.0548 12.2387C14.2115 12.6718 14.3694 13.1046 14.5274 13.5373L14.5275 13.5374L14.5275 13.5376C14.8765 14.4933 15.2255 15.4491 15.5597 16.41C15.8963 17.3782 16.4924 18.0964 17.4201 18.5393C17.5745 18.6129 17.7241 18.6967 17.8817 18.785L17.8817 18.7851L17.8819 18.7851C17.9561 18.8267 18.0321 18.8693 18.1113 18.9123L18.0978 19.0004C17.9708 19.8313 17.8466 20.6439 17.61 21.4327C17.4332 22.0224 17.0782 22.5051 16.6114 22.9049C16.2367 23.2256 15.8068 23.4443 15.3362 23.5843C15.2333 23.615 15.1286 23.6397 15.0149 23.6664C14.9597 23.6795 14.9023 23.693 14.842 23.7079C14.8198 23.7873 14.7974 23.8657 14.7751 23.9435L14.7751 23.9435L14.7751 23.9435ZM15.1188 24.0328C16.0021 23.8076 16.7615 23.3911 17.3611 22.6562C17.3979 22.7008 17.4334 22.741 17.4669 22.7788L17.4669 22.7788C17.5334 22.854 17.5918 22.92 17.6364 22.9942C18.7429 24.8335 19.8494 26.673 20.9444 28.5191C21.1076 28.7941 21.2423 29.0939 21.3402 29.3985C21.9668 31.3469 22.5845 33.2983 23.2022 35.2498L23.4794 36.1253C23.6275 36.5929 23.7016 37.06 23.5664 37.5535C23.3054 38.5069 22.5205 39.1862 21.5363 39.274C20.5868 39.3585 19.6477 38.7922 19.2609 37.894C19.2042 37.7626 19.1621 37.6247 19.12 37.4871L19.12 37.487L19.1198 37.4865C19.1079 37.4475 19.096 37.4085 19.0837 37.3696C18.9076 36.8117 18.732 36.2536 18.5564 35.6955C18.1019 34.2512 17.6474 32.8068 17.1849 31.3651C17.0804 31.0391 16.9373 30.7183 16.7646 30.4228C16.1007 29.2872 15.4283 28.156 14.7345 27.0384C14.5346 26.7163 14.4856 26.4277 14.5945 26.0632C14.7336 25.5979 14.8493 25.1256 14.9671 24.6446C15.0166 24.4423 15.0666 24.2384 15.1188 24.0328ZM14.219 11.4933C14.214 10.6061 14.686 9.96836 15.37 9.77467C16.0836 9.57246 16.853 9.88294 17.2136 10.5335C17.296 10.6821 17.3544 10.8446 17.4124 11.0062L17.4125 11.0064C17.4248 11.0407 17.4371 11.075 17.4497 11.1091C17.5421 11.3606 17.6348 11.6121 17.7274 11.8636L17.7282 11.8658L17.7283 11.8659C18.0904 12.8487 18.4525 13.8315 18.8021 14.8188C18.9257 15.1677 19.1225 15.403 19.4584 15.5709C20.3916 16.0378 21.3174 16.5196 22.2433 17.0015L22.2433 17.0015C22.4649 17.1168 22.6865 17.2321 22.9081 17.3472C24.0155 17.9222 24.2417 18.7444 23.5855 19.7923C23.1796 20.4404 22.4969 20.6663 21.784 20.3829C21.6925 20.3464 21.6052 20.2992 21.5179 20.252L21.5179 20.252L21.5176 20.2519C21.4828 20.2331 21.448 20.2143 21.413 20.1961C21.0345 20.0007 20.6568 19.8037 20.2791 19.6067C19.4075 19.1522 18.5359 18.6977 17.6551 18.2617C16.776 17.8267 16.2004 17.1696 15.8821 16.2409C15.5915 15.3927 15.2824 14.5509 14.9732 13.709L14.9732 13.709L14.9732 13.709C14.7888 13.2069 14.6044 12.7047 14.424 12.2012C14.3499 11.9945 14.2946 11.7811 14.2551 11.6289C14.2411 11.575 14.2291 11.5288 14.219 11.4933ZM11.1002 12.431C11.1427 12.199 11.1875 11.9547 11.2361 11.6922C10.9132 11.889 10.6804 12.0781 10.467 12.2514C10.3662 12.3334 10.2697 12.4117 10.1701 12.4857C9.53094 12.9609 9.15037 13.5944 8.95697 14.3638C8.768 15.1158 8.56476 15.8643 8.36153 16.6127C8.28059 16.9107 8.19967 17.2087 8.11964 17.507C8.07935 17.657 8.0372 17.8066 7.99504 17.9561C7.91197 18.2509 7.82891 18.5456 7.76016 18.8436C7.55752 19.7215 7.96223 20.3984 8.82818 20.6511C8.98255 20.6962 9.14314 20.7352 9.30257 20.7428C9.39335 20.7473 9.48549 20.7244 9.55977 20.7058C9.58815 20.6988 9.61393 20.6923 9.63603 20.6883C9.65646 20.5089 9.67315 20.3346 9.68946 20.1642C9.7238 19.8054 9.75649 19.4639 9.81902 19.1279C10.0406 17.9357 10.2725 16.7454 10.5043 15.5551C10.621 14.9564 10.7376 14.3577 10.8529 13.7587C10.9347 13.334 11.0126 12.9086 11.1002 12.431Z" fill="#494949"/>
</svg>
