<svg width="9" height="92" viewBox="0 0 9 92" fill="none" xmlns="http://www.w3.org/2000/svg">
<path d="M4.85355 0.146447C4.65829 -0.0488155 4.34171 -0.0488155 4.14645 0.146447L0.964466 3.32843C0.769204 3.52369 0.769204 3.84027 0.964466 4.03553C1.15973 4.2308 1.47631 4.2308 1.67157 4.03553L4.5 1.20711L7.32843 4.03553C7.52369 4.2308 7.84027 4.2308 8.03553 4.03553C8.2308 3.84027 8.2308 3.52369 8.03553 3.32843L4.85355 0.146447ZM4 91.5V92H5V91.5H4ZM4 2.01667V2.51667H5V2.01667H4ZM5 5.05V4.55H4V5.05H5ZM4 8.08333V8.58333H5V8.08333H4ZM5 11.1167V10.6167H4V11.1167H5ZM4 14.15V14.65H5V14.15H4ZM5 17.1833V16.6833H4V17.1833H5ZM4 20.2167V20.7167H5V20.2167H4ZM5 23.25V22.75H4V23.25H5ZM4 26.2833V26.7833H5V26.2833H4ZM5 29.3167V28.8167H4V29.3167H5ZM4 32.35V32.85H5V32.35H4ZM5 35.3833V34.8833H4V35.3833H5ZM4 38.4167V38.9167H5V38.4167H4ZM5 41.45V40.95H4V41.45H5ZM4 44.4833V44.9833H5V44.4833H4ZM5 47.5167V47.0167H4V47.5167H5ZM4 50.55V51.05H5V50.55H4ZM5 53.5833V53.0833H4V53.5833H5ZM4 56.6167V57.1167H5V56.6167H4ZM5 59.65V59.15H4V59.65H5ZM4 62.6833V63.1833H5V62.6833H4ZM5 65.7167V65.2167H4V65.7167H5ZM4 68.75V69.25H5V68.75H4ZM5 71.7833V71.2833H4V71.7833H5ZM4 74.8167V75.3167H5V74.8167H4ZM5 77.85V77.35H4V77.85H5ZM4 80.8833V81.3833H5V80.8833H4ZM5 83.9167V83.4167H4V83.9167H5ZM4 86.95V87.45H5V86.95H4ZM5 89.9833V89.4833H4V89.9833H5ZM4 0.5V2.01667H5V0.5H4ZM4 5.05V8.08333H5V5.05H4ZM4 11.1167V14.15H5V11.1167H4ZM4 17.1833V20.2167H5V17.1833H4ZM4 23.25V26.2833H5V23.25H4ZM4 29.3167V32.35H5V29.3167H4ZM4 35.3833V38.4167H5V35.3833H4ZM4 41.45V44.4833H5V41.45H4ZM4 47.5167V50.55H5V47.5167H4ZM4 53.5833V56.6167H5V53.5833H4ZM4 59.65V62.6833H5V59.65H4ZM4 65.7167V68.75H5V65.7167H4ZM4 71.7833V74.8167H5V71.7833H4ZM4 77.85V80.8833H5V77.85H4ZM4 83.9167V86.95H5V83.9167H4ZM4 89.9833V91.5H5V89.9833H4Z" fill="url(#paint0_linear_0_1982)"/>
<defs>
<linearGradient id="paint0_linear_0_1982" x1="4" y1="0" x2="4" y2="92" gradientUnits="userSpaceOnUse">
<stop stop-color="white"/>
<stop offset="1" stop-color="white" stop-opacity="0.01"/>
</linearGradient>
</defs>
</svg>
