<svg width="120" height="120" fill="none" xmlns="http://www.w3.org/2000/svg"><circle cx="59.779" cy="59.779" r="59.779" fill="#F95192"/><path d="M59.116 0h1.317c11.88.103 23.657 3.848 33.393 10.639 10.253 7.075 18.182 17.43 22.314 29.153 4.803 13.531 4.545 28.793-.801 42.117-4.494 11.31-12.551 21.149-22.727 27.837-9.684 6.403-21.306 9.864-32.928 9.812h-.206c-11.596-.026-23.14-3.538-32.8-9.993-10.227-6.792-18.284-16.785-22.7-28.25-5.037-12.963-5.295-27.76-.75-40.954 4.107-11.956 12.113-22.518 22.52-29.696C35.486 3.873 47.263.129 59.117 0zm38.377 29.438c-.8 2.995-1.678 5.939-2.53 8.908-2.325.878-4.7 1.55-6.974 2.505 2.299.878 4.65 1.653 6.973 2.53.982 2.66 1.55 5.475 2.712 8.057.8-2.634 1.575-5.293 2.505-7.876 2.144-1.187 4.701-1.704 6.973-2.66-2.143-.98-4.416-1.549-6.611-2.4-.517-.156-.517-.775-.672-1.189-.516-1.936-1.136-3.847-1.627-5.81-.18-.697-.284-1.471-.749-2.065zM36.39 37.649c-1.214.697-.646 2.712.697 2.763 4.7.052 9.427.052 14.153 0 1.679-.103 1.808-2.789.13-3.021-4.365-.13-8.73 0-13.095-.052-.62.078-1.368-.103-1.885.31zm31.12-.052c-1.343.672-.749 2.867.698 2.841 4.364.052 8.729-.026 13.093.026.698 0 1.55.052 1.99-.62.851-.904.025-2.505-1.163-2.479-4.261-.052-8.523.026-12.784-.026-.594.078-1.291-.103-1.834.258zm-25.49 7.67c-1.369.516-2.324 1.91-2.247 3.383v12.756c-.103 1.807 1.42 3.563 3.28 3.563 1.937.181 3.745-1.626 3.564-3.563-.026-4.39.026-8.806-.026-13.195-.026-2.195-2.582-3.77-4.57-2.944zm33.057.774c-1.394.465-2.453 1.886-2.376 3.383.026 4.364 0 8.754.026 13.118 0 1.498 1.162 2.815 2.583 3.176 1.963.568 4.235-1.084 4.235-3.15.052-3.977-.025-7.953.026-11.93 0-1.085.103-2.324-.594-3.254-.826-1.213-2.48-1.807-3.9-1.343zm-49.43 8.005c-2.945.543-5.476 2.84-6.276 5.733-.904 2.892.026 6.25 2.298 8.263 2.557 2.48 6.818 2.867 9.814.956 2.79-1.679 4.339-5.113 3.745-8.315-.646-4.39-5.269-7.592-9.582-6.637zm65.004 0c-3.229.569-5.966 3.306-6.509 6.534-.62 3.072.8 6.378 3.358 8.16 2.815 2.04 6.947 1.936 9.659-.259 2.608-1.962 3.77-5.577 2.84-8.702-1.084-3.925-5.346-6.585-9.349-5.733zM43.18 76.306c-1.42.774-1.55 2.969-.155 3.847 3.797 2.866 8.497 4.312 13.172 4.751 6.895.594 13.816-1.188 19.937-4.286 1.188-.49 1.808-2.04 1.137-3.176-.569-1.137-2.067-1.601-3.177-.956-4.907 2.453-10.356 4.08-15.883 3.925-4.365-.103-8.807-1.343-12.37-3.873-.75-.594-1.86-.8-2.66-.233z" fill="#FDEAF1"/></svg>