<?xml version="1.0" encoding="utf-8"?><svg viewBox="0 0 16 18" xmlns="http://www.w3.org/2000/svg" xmlns:xlink="http://www.w3.org/1999/xlink"><style>:root>svg{display:none}:root>svg:target{display:block}</style><svg fill="inherit" viewBox="0 0 16 18" id="copy" xmlns="http://www.w3.org/2000/svg"><path d="M1.882 18c-.517 0-.96-.176-1.33-.528A1.698 1.698 0 010 16.2V3.6h1.882v12.6h10.353V18H1.882zm3.765-3.6c-.518 0-.96-.176-1.329-.528a1.697 1.697 0 01-.553-1.272V1.8c0-.495.184-.919.553-1.272A1.854 1.854 0 015.648 0h8.47c.517 0 .96.176 1.33.528.368.353.552.777.552 1.272v10.8c0 .495-.184.919-.553 1.272a1.857 1.857 0 01-1.33.528h-8.47zm0-1.8h8.47V1.8h-8.47v10.8zm0 0V1.8v10.8z"/></svg></svg>