<svg width="476" height="548" fill="none" xmlns="http://www.w3.org/2000/svg"><path d="M236.407 465.741c95.768 0 173.402-77.598 173.402-173.319 0-95.722-77.634-173.32-173.402-173.32-95.767 0-173.402 77.598-173.402 173.32 0 95.721 77.635 173.319 173.402 173.319z" fill="#FFCF5C"/><path d="M328.803 127.223l-45.242 70.379-8.921-5.733 43.649-67.99c1.832-2.866 5.655-3.662 8.523-1.831l.955.637c1.514.955 1.992 3.025 1.036 4.538z" fill="#2F2E3B"/><path d="M283.162 198.079l-8.921-5.732L135.01 409.135l10.593-5.732c3.903-2.07 7.488-4.936 10.435-8.28 1.354-1.592 127.124-197.044 127.124-197.044z" fill="#fff"/><path d="M159.543 123.083l43.649 67.99-8.921 5.732-45.242-70.378a3.322 3.322 0 01.956-4.538l1.035-.637c2.868-1.831 6.691-1.035 8.523 1.831z" fill="#2F2E3B"/><path d="M194.749 197.203l8.921-5.732L342.981 408.26l-10.593-5.732a35.035 35.035 0 01-10.435-8.28c-1.354-1.593-127.204-197.045-127.204-197.045z" fill="#fff"/><path d="M205.343 433.736l-25.09-5.095-8.125 60.188c-5.894 7.006-12.903 12.977-20.709 17.754v7.722s33.135.796 34.41 0c1.274-.796.318-4.936.159-8.041-.159-3.105-2.151-16.48-2.151-16.48.16-.557 9.559-23.804 12.346-32.004 1.673-4.857 9.16-24.044 9.16-24.044z" fill="#25252D"/><path d="M140.984 514.624c0-3.105 1.116-8.917 7.567-10.509 8.921-2.15 33.136 10.509 33.136 10.509h-40.703zm69.457-231.836c-6.532 10.987-10.275 22.531-13.222 34.553-3.824 15.684-6.452 47.211-7.806 52.067-3.027 11.066-27.241 52.784-27.241 52.784s5.655 8.36 10.833 12.022c7.089 4.936 18.957 8.996 31.143 6.687 7.806-1.512 13.462-3.025 16.568-6.608 2.39-2.866 2.947-26.67 5.974-41.797 3.027-15.126 12.266-36.543 12.266-36.543l1.036-74.677-29.551 1.512z" fill="#2F2E3B"/><path d="M169.181 493.526c-1.832-9.076-3.505-14.092-.956-14.808 2.549-.717 7.01 12.181 7.01 12.181l-6.054 2.627zm103.229-59.551l25.091-5.095 8.044 60.267c5.895 7.006 12.904 12.977 20.71 17.754v7.723s-33.135.796-34.41 0c-1.274-.796-.318-4.936-.159-8.041.159-3.105 2.23-16.48 2.23-16.48-.159-.558-9.558-23.805-12.346-32.005-1.752-4.936-9.16-24.123-9.16-24.123z" fill="#25252D"/><path d="M336.769 514.863c0-3.105-1.116-8.917-7.567-10.509-8.921-2.15-33.136 10.509-33.136 10.509h40.703zm-69.457-232.075c9.399 12.659 11.072 27.467 14.019 39.489 3.823 15.684 6.213 42.593 7.487 47.45 3.107 11.146 25.25 54.694 25.25 54.694s-4.142 6.369-9.319 10.032c-7.089 4.936-18.957 8.996-31.144 6.687-7.806-1.512-17.125-3.821-20.232-7.404-2.389-2.866.797-25.874-2.31-41.001-3.106-15.127-12.266-36.622-12.266-36.622l1.035-74.599 27.48 1.274z" fill="#2F2E3B"/><path d="M308.572 493.765c1.832-9.076 3.505-14.092.956-14.808-2.549-.717-7.009 12.181-7.009 12.181l6.053 2.627z" fill="#25252D"/><path d="M194.51 193.621l-.796-.08 1.194-12.499-12.186-4.22 1.194-12.818-12.186-4.219 1.274-12.897-12.187-4.22 1.275-13.136.796.079-1.194 12.5 12.186 4.299-1.274 12.818 12.187 4.219-1.195 12.818 12.107 4.22-1.195 13.136zm82.28-2.787l-.318-.796 11.947-4.14-1.274-12.818 12.187-4.219-1.195-12.818 12.107-4.219-1.195-12.818 12.506-4.379.239.796-11.868 4.14 1.194 12.818-12.186 4.219 1.274 12.818-12.187 4.22 1.195 12.818-12.426 4.378z" fill="#FFB337"/><path d="M160.26 122.844c-2.071-3.264-6.452-4.219-9.797-2.149l-1.115.716c-1.753 1.115-2.23 3.423-1.115 5.175l4.699 7.324c.478.717 1.434.876 2.071.478l7.647-4.936c.717-.478.955-1.433.478-2.07l-2.868-4.538zm24.613 76.668l25.09-16.082c.796-.477 1.832-.239 2.31.478.478.796.239 1.831-.478 2.309l-25.09 16.082c-.797.477-1.832.239-2.31-.478-.558-.716-.319-1.751.478-2.309zm132.779-75.872c2.151-3.264 6.532-4.219 9.797-2.149l1.116.716c1.752 1.115 2.23 3.424 1.115 5.175l-4.7 7.325c-.478.716-1.433.955-2.071.477l-7.646-4.936c-.717-.477-.956-1.433-.478-2.07l2.867-4.538zm-26.444 79.614l-25.09-16.082a1.593 1.593 0 01-.478-2.309 1.594 1.594 0 012.31-.477l25.09 16.082a1.592 1.592 0 01.478 2.308 1.595 1.595 0 01-2.31.478z" fill="#2F2E3B"/><path d="M184.315 441.618c-.239-5.732-1.832-20.779-6.054-22.053-.956-.319-1.672-.159-2.071.398-1.672 2.149.239 10.35 6.134 19.744l-.638.398c-5.575-8.837-8.204-17.913-6.133-20.699.478-.558 1.354-1.195 2.947-.637 5.735 1.751 6.611 21.973 6.691 22.769l-.876.08zm7.885.477l-.717-.398c.08-.079 4.222-7.006 2.868-9.872-.399-.955-1.275-1.433-2.071-1.194-1.753.478-3.346 3.583-2.868 9.474l-.796.08c-.558-6.767 1.513-9.793 3.504-10.27 1.275-.319 2.47.318 3.027 1.672 1.434 3.184-2.788 10.19-2.947 10.508zm100.681-.159h-.797c0-.875.956-21.018 6.611-22.769 1.673-.558 2.549.079 2.947.637 2.151 2.707-.557 11.783-6.133 20.62l-.637-.398c5.735-9.156 7.806-17.595 6.133-19.745-.398-.557-1.115-.716-2.071-.398-4.301 1.274-5.815 16.321-6.053 22.053zm-10.754 1.752c-.239-.319-6.531-7.006-5.974-11.624.159-1.592.956-2.627 2.071-2.627 2.151 0 4.938 4.06 6.213 13.216l-.797.079c-1.274-9.155-3.982-12.579-5.416-12.579-.637 0-1.115.717-1.274 1.911-.478 4.22 5.735 10.907 5.814 10.987l-.637.637zm-42.215-92.989c-.08-5.732-.399-33.119-.08-37.419-1.593.717-6.611 4.061-7.009 4.618l-.16.239-.318-.08c-.399-.159-.478-.159 1.115-16.241l1.593-15.764.796.08c-1.115 10.828-2.708 26.671-2.947 30.572 1.036-.796 2.788-1.911 3.186-2.229 3.744-2.389 4.142-2.23 4.302-2.15.159.08.318.318.159.637-.319 1.115-.159 23.088 0 37.657l-.637.08z" fill="#25252D"/><path d="M228.999 85.505c-.398 0-.796-.159-1.115-.477-3.266-3.424-4.142-10.191-3.664-12.898a1.554 1.554 0 011.832-1.274c.876.16 1.434.956 1.274 1.831-.398 2.07.478 7.643 2.868 10.111.637.637.557 1.672-.08 2.23a1.572 1.572 0 01-1.115.477z" fill="#2F2E3B"/><path d="M233.061 91.078c-5.894-4.697-7.089-28.342 8.921-37.657 16.01-9.315 39.189 2.707 41.579 22.61 1.593 13.534-4.222 18.072 3.584 25.636 2.31 2.149 5.177 3.662 8.284 4.299.478.08.796.637.717 1.115-.08.318-.319.557-.558.636-5.257 1.752-15.532 4.379-21.187.08-9.638-7.245-4.779-19.266-9.479-24.282-5.098-5.414-16.09-3.344-16.886 4.697-.558 5.334-14.975 2.866-14.975 2.866z" fill="#2F2E3B"/><path d="M226.211 85.903c.797-7.722 23.896-7.324 25.329 0 1.434 7.325-26.046 6.37-25.329 0z" fill="#FFB337"/><path d="M238.956 183.191c-9.638 0-23.896 7.166-29.073 13.376a142.732 142.732 0 00-16.01 6.926c-1.195.637-1.912 1.911-1.912 3.264v2.07s1.593-2.468 3.266-1.99c3.664.955 8.045 10.031 10.434 22.769 1.593 8.28 4.779 53.262 4.779 53.262l28.436-.717.08-98.96z" fill="#25252D"/><path d="M238.876 183.191c9.638 0 23.896 7.166 29.073 13.376a142.732 142.732 0 0116.01 6.926c1.195.637 1.912 1.911 1.912 3.264v2.07s-1.593-2.468-3.266-1.99c-3.664.955-8.045 10.031-10.434 22.769-1.594 8.28-4.78 53.262-4.78 53.262l-28.435-.717-.08-98.96z" fill="#25252D"/><path d="M252.257 199.273l-13.222 29.935-13.142-29.935v-25.556h26.364v25.556z" fill="#fff"/><path d="M225.893 186.694v4.857s6.929 6.687 13.62 6.449c6.691-.239 12.824-5.653 12.824-5.653v-5.653h-26.444z" fill="#D1D1D1"/><path d="M239.912 89.884c-8.045-5.016-22.621-4.777-34.33 8.519-7.726 8.757-11.709 20.381-10.594 28.263 1.115 7.881-2.23 8.996-.717 15.843 1.514 6.847 8.842 9.235 8.842 9.235s70.253.239 72.085 0c1.832-.239 10.036-5.891 10.594-15.604 2.07-37.658-19.674-46.097-28.914-48.565-8.841-2.309-16.966 2.309-16.966 2.309z" fill="#2F2E3B"/><path d="M273.923 147.922c4.302-4.378 8.125-5.811 11.072-4.139 2.947 1.671-1.434 16.002-5.098 16.4-3.664.398-7.168-4.14-7.168-4.14l1.194-8.121zm-71.129 0c-4.301-4.378-8.125-5.811-11.072-4.139-2.947 1.671 1.434 16.002 5.098 16.4 3.664.398 7.169-4.14 7.169-4.14l-1.195-8.121z" fill="#fff"/><path d="M238.876 101.269c-7.487 0-37.357 2.07-36.799 33.676.478 25.318 1.195 29.458 3.744 35.906 4.142 10.43 23.099 22.053 34.091 22.053s27.958-11.623 32.099-22.053c2.549-6.369 3.266-10.509 3.744-35.906.478-31.606-29.391-33.676-36.879-33.676z" fill="#fff"/><path d="M238.955 156.441c-7.806 0-24.532 7.802-34.808 9.474a27.763 27.763 0 001.673 4.936c4.142 10.43 23.099 22.053 34.091 22.053h.08c10.992 0 27.958-11.623 32.1-22.053a51.395 51.395 0 001.672-4.936c-13.461-3.025-27.081-9.474-34.808-9.474zm-9.876-41.319c7.567-7.086 9.797-13.853 9.797-13.853l1.036-11.385s-7.089-6.449-22.462-.955c-8.363 2.945-22.701 13.534-23.099 33.039-.08 3.663-.478 8.201-.478 8.201s21.426-2.15 35.206-15.047z" fill="#2F2E3B"/><path d="M235.531 103.18c0 7.244 2.23 19.983 14.019 24.839 1.035.398 2.23-1.274 1.195-2.07-1.673-1.353-7.567-5.732-6.691-12.738 0 0 5.735 10.19 14.178 13.136.717.239 1.513-.079 1.832-.716.239-.478.398-.956.558-1.433 0 0 8.921 3.582 14.576 3.343.398-19.266-5.735-29.059-16.488-35.03-10.753-5.97-18.798-2.547-18.798-2.547s-4.381 4.06-4.381 13.216z" fill="#2F2E3B"/><path d="M194.988 206.359c-4.461 1.99-4.222 6.767-5.177 11.385-.956 4.617-.797 45.061-.478 48.723.318 3.663.716 9.634 10.195 7.723 4.381-.876 11.47-3.264 11.47-3.264s-4.142-46.972-9.638-57.72c-1.513-2.787-3.744-5.095-6.372-6.847z" fill="#fff"/><path d="M205.741 252.137c-10.912 7.563-4.381 20.301 1.195 21.973 12.186-4.14 45.401-18.152 45.401-18.152l-3.743-8.916-42.853 5.095z" fill="#464552"/><path d="M281.968 205.404c4.46 1.91 4.938 5.971 5.973 10.509 1.036 4.538 1.195 45.778.797 49.44-.558 5.414-4.381 8.917-10.036 7.882-4.381-.797-11.55-3.026-11.55-3.026s4.381-48.803 8.603-57.879a16.318 16.318 0 016.213-6.926z" fill="#fff"/><path d="M203.989 179.688c-.638 0-1.275-.398-1.514-1.035-.478-1.273-10.833-30.73 1.434-56.287a1.596 1.596 0 012.15-.716 1.594 1.594 0 01.717 2.15c-11.708 24.361-1.433 53.58-1.354 53.818.319.797-.159 1.752-.956 2.07h-.477z" fill="#2F2E3B"/><path d="M204.148 152.062c-.557 0-1.115-.318-1.433-.875-2.47-4.698-3.744-22.292 2.708-30.254.557-.716 1.513-.796 2.23-.238.717.557.796 1.512.239 2.229-5.416 6.847-4.461 22.849-2.39 26.83.399.796.08 1.751-.637 2.149-.239.08-.478.159-.717.159zm69.536 30.333c-.159 0-.319 0-.398-.079-.876-.239-1.354-1.115-1.115-1.991.079-.318 8.602-31.208-1.434-55.65-.319-.796.08-1.751.876-2.07.797-.318 1.752.08 2.071.876 10.434 25.476 1.912 56.446 1.513 57.72-.159.796-.796 1.194-1.513 1.194z" fill="#2F2E3B"/><path d="M248.514 247.519l18.638-3.105 3.585 10.271-20.232-2.309-1.991-4.857zm-38.632-4.538c-.637 1.911-5.735 9.554-5.735 9.554l26.923-3.184-21.188-6.37z" fill="#fff"/><path d="M286.515 271.465c1.525-1.523 1.978-3.54 1.014-4.504-.964-.963-2.981-.51-4.506 1.014-1.524 1.523-1.978 3.539-1.013 4.503.964.964 2.981.51 4.505-1.013zm-90.753 2.394c.964-.964.51-2.981-1.014-4.504-1.524-1.524-3.542-1.977-4.506-1.013-.964.963-.51 2.98 1.014 4.503 1.524 1.524 3.541 1.977 4.506 1.014zm14.121 1.048l59.022-5.175-1.115 13.693-57.748.08-.159-8.598z" fill="#D1D1D1"/><path d="M271.294 251.42c7.726 5.335 6.77 19.665.319 22.77-12.585-2.468-44.287-16.241-44.287-16.241l3.983-8.837 39.985 2.308z" fill="#464552"/><path d="M210.122 283.744l-.08-.398 55.199-7.086h-55.358v-.398h58.464v.398l-58.225 7.484z" fill="#2F2E3B"/><path d="M244.133 247.997c-.876-1.831-20.63-45.539-21.904-49.838-1.195-4.06-2.31-7.563 2.15-10.191l.399.717c-3.664 2.229-3.027 4.936-1.753 9.315 1.275 4.219 21.666 49.281 21.905 49.758l-.797.239z" fill="#585860"/><path d="M239.593 236.214l-.717-.318 1.274-2.866c3.505-7.802 14.178-31.607 15.294-35.11 1.274-4.299 1.911-7.086-1.753-9.315l.399-.716c4.38 2.627 3.345 6.13 2.15 10.19-1.115 3.583-11.39 26.591-15.293 35.19l-1.354 2.945zm-29.949 6.847c0-.239-3.505-26.83-5.417-30.731-1.911-3.901-5.018-9.076-10.195-8.439l-.08-.796c6.293-.796 9.877 6.528 10.992 8.917 1.912 3.98 5.337 29.855 5.496 30.969l-.796.08zm57.906 1.433l-.796-.08c.08-1.194 2.788-28.979 4.779-32.96 1.195-2.388 4.699-9.633 10.992-8.837l-.08.796c-5.177-.637-8.283 4.538-10.195 8.439-1.912 3.822-4.7 32.403-4.7 32.642z" fill="#585860"/><path d="M143.772 399.502l-.319-.239 54.482-84.788.319.238-54.482 84.789zm134.422-88.751l-.336.215 56.885 88.475.335-.215-56.884-88.475zM220.557 87.894c7.965-3.981 28.037-2.548 33.135-1.035 5.098 1.512-3.425 9.792-3.425 9.792h-18.002l-11.708-8.757zm10.354 56.525h-.159l-20.072-2.547c-.637-.08-1.115-.717-1.036-1.354.08-.637.717-1.114 1.354-1.035l20.073 2.548c.637.08 1.115.717 1.035 1.353-.159.558-.637 1.035-1.195 1.035z" fill="#2F2E3B"/><path d="M220.875 151.744a4.937 4.937 0 10-4.938-4.936 4.937 4.937 0 004.938 4.936zm27.161-7.961c-.557 0-1.115-.478-1.194-1.035-.08-.637.398-1.274 1.035-1.354l20.072-2.548c.638-.079 1.275.399 1.355 1.035.079.637-.399 1.274-1.036 1.354l-20.072 2.548h-.16z" fill="#2F2E3B"/><path d="M258.072 151.107a4.937 4.937 0 004.939-4.936 4.937 4.937 0 00-4.939-4.936 4.937 4.937 0 100 9.872z" fill="#2F2E3B"/><path d="M220.238 158.989a2.31 2.31 0 100-4.62 2.31 2.31 0 000 4.62zm37.516-.239a2.31 2.31 0 10.001-4.619 2.31 2.31 0 00-.001 4.619z" fill="#D1D1D1"/><path d="M245.966 132.159c-.319 2.07 1.035 4.618 1.035 4.618s14.098-3.344 16.249-3.663c2.151-.318 5.894 1.354 5.894 1.354s-4.62-4.538-5.894-5.255c-1.274-.716-17.284 2.946-17.284 2.946zm-13.78 0c.318 2.07-1.036 4.618-1.036 4.618s-14.098-3.344-16.249-3.663c-2.151-.318-5.894 1.354-5.894 1.354s4.62-4.538 5.894-5.255c1.274-.716 17.285 2.946 17.285 2.946z" fill="#2F2E3B"/></svg>