<svg width="119" height="42" fill="none" xmlns="http://www.w3.org/2000/svg"><path d="M97.707 16.793L95.44 19.06l2.267 2.266 2.266-2.266-2.266-2.266z" fill="#000"/><path fill-rule="evenodd" clip-rule="evenodd" d="M19.085 1.227c7.455 0 13.51 6.055 13.51 13.51 0 7.477-6.055 13.51-13.51 13.51H9.247L0 41.453V1.227h19.085z" fill="#FFCF5C"/><path d="M118.773 34.762h-3.563l-3.76-5.487v5.487h-3.083v-5.487l-3.76 5.487h-3.542l4.416-6.208-4.175-6.078h3.541l3.52 5.334v-5.334h3.083v5.334l3.519-5.334h3.564l-4.198 6.078 4.438 6.208zm-22.648 0V22.476h3.17v12.286h-3.17zM94.42 22.476v3.06h-3.826v9.226h-3.17v-9.225h-3.87v-3.06H94.42zm-21.556 8.635c.634.656 1.443.984 2.427.984s1.793-.328 2.448-.983c.634-.634.962-1.465.962-2.493 0-1.005-.328-1.836-.962-2.492-.656-.634-1.464-.962-2.448-.962s-1.793.328-2.427.962c-.656.656-.962 1.487-.962 2.492 0 1.028.306 1.859.962 2.492zm5.837-8.635h3.17v12.286h-3.17V33.32c-.94 1.203-2.273 1.793-4 1.793-1.64 0-3.04-.634-4.22-1.88-1.158-1.246-1.749-2.776-1.749-4.613 0-1.814.59-3.345 1.75-4.59 1.18-1.269 2.579-1.88 4.219-1.88 1.727 0 3.06.59 4 1.792v-1.465zm-12.197 0v12.286h-3.17v-9.225h-3.389v4.088c0 3.804-1.749 5.53-5.203 5.137V31.79c.656.175 1.159.066 1.509-.328.35-.371.524-1.05.524-1.99v-6.995h9.729zm-13.446 0v12.286h-3.17V25.45h-4.897v9.313h-3.17V22.476h11.237zm25.774-4.044H75.27l-3.76-5.51v5.51h-3.105v-5.51l-3.76 5.51h-3.542l4.438-6.209-4.175-6.077h3.541l3.498 5.334V6.146h3.105v5.334l3.52-5.334h3.54l-4.197 6.077 4.46 6.209zm-22.647 0V6.146h3.17v12.286h-3.17zM48.249 9.6c.721 0 1.311-.24 1.792-.744.46-.502.7-1.114.7-1.858 0-.743-.24-1.377-.7-1.858-.48-.503-1.071-.743-1.792-.743h-3.04V9.6h3.04zm0-8.373c1.64 0 3.038.568 4.175 1.683 1.115 1.115 1.684 2.47 1.684 4.088 0 1.618-.569 2.995-1.684 4.11-1.137 1.115-2.536 1.662-4.175 1.662h-3.04v5.662h-3.388V1.227h6.428z" fill="#000"/><path fill-rule="evenodd" clip-rule="evenodd" d="M14.822 12.966h5.138L9.248 28.248l5.574-15.282zm-1.311 3.564H8.373L19.085 1.227 13.51 16.53z" fill="#000"/><path d="M57.76.452l-2.267 2.266 2.266 2.266 2.266-2.266L57.76.452z" fill="#000"/></svg>