<svg width="110" height="18" fill="none" xmlns="http://www.w3.org/2000/svg"><path fill-rule="evenodd" clip-rule="evenodd" d="M7.698 3.883c0 2.143-1.726 3.883-3.85 3.883S0 6.027 0 3.883C0 1.736 1.724 0 3.849 0c2.123 0 3.85 1.736 3.85 3.883zm9.357 0C17.055 1.736 15.332 0 13.208 0c-2.124 0-3.846 1.736-3.846 3.883 0 2.143 1.722 3.883 3.846 3.883 2.125 0 3.847-1.74 3.847-3.883zm-9.357 9.444c0-2.144-1.726-3.88-3.85-3.88S0 11.183 0 13.327s1.724 3.883 3.849 3.883c2.123 0 3.85-1.738 3.85-3.883zm9.357 0c0-2.144-1.723-3.88-3.847-3.88-2.124 0-3.846 1.736-3.846 3.88s1.722 3.883 3.846 3.883c2.125 0 3.847-1.738 3.847-3.883zM69.796.311h-5.84l-.002 16.576h5.97c.848 0 1.62-.11 2.319-.33.697-.222 1.3-.54 1.804-.96.502-.42.895-.927 1.17-1.523.278-.594.417-1.275.417-2.039 0-.513-.073-.983-.218-1.41a3.68 3.68 0 00-.6-1.115 3.75 3.75 0 00-.877-.792 3.308 3.308 0 00-1.035-.454v-.042c.289-.134.57-.304.838-.51a3.368 3.368 0 001.19-1.685c.119-.36.178-.766.178-1.223a4.78 4.78 0 00-.342-1.838 3.807 3.807 0 00-1.005-1.422c-.445-.396-.999-.7-1.66-.913C71.44.418 70.67.31 69.796.31zm1.324 6.287c-.473.346-1.106.519-1.893.519h-1.994V3.129h2.278c.655 0 1.207.153 1.653.46.445.31.668.808.668 1.5 0 .66-.237 1.162-.712 1.509zm.468 6.865c-.423.405-1.152.606-2.187.606l-2.168.001V9.813h2.431c.481 0 .881.06 1.204.186.318.125.582.291.788.497a1.8 1.8 0 01.436.695c.087.258.132.518.132.785a1.98 1.98 0 01-.636 1.488zm12.312 1.94l-.047.017c-.524.69-1.132 1.158-1.825 1.409a5.948 5.948 0 01-2.018.373c-.437 0-.889-.058-1.357-.175a3.82 3.82 0 01-1.276-.587 3.095 3.095 0 01-.94-1.069c-.239-.443-.36-.984-.36-1.633 0-.308.045-.649.13-1.024.088-.376.292-.732.613-1.07.318-.34.8-.638 1.44-.895.64-.257 1.507-.421 2.599-.494l2.905-.178v-.53c0-.677-.193-1.18-.581-1.51-.383-.333-.926-.496-1.626-.496-.657 0-1.165.152-1.529.455-.365.304-.562.713-.592 1.233h-3.013a4.5 4.5 0 01.314-1.359c.184-.462.479-.892.888-1.281.406-.389.938-.71 1.593-.96.655-.248 1.48-.377 2.468-.377.701 0 1.358.071 1.969.21.613.14 1.15.356 1.62.649a3.31 3.31 0 011.104 1.135c.271.46.406 1.016.406 1.664v6.563a6.441 6.441 0 00.149 1.416H83.9v-1.485zm-2.757-3.202l2.624-.241-.002 1.036c0 .34-.09.628-.264.87a2.132 2.132 0 01-.655.597 3.143 3.143 0 01-.844.34c-.296.074-.57.11-.817.11-.264 0-.512-.022-.753-.065a1.903 1.903 0 01-.623-.221 1.263 1.263 0 01-.425-.409 1.129 1.129 0 01-.163-.627c0-.412.138-.73.417-.948.276-.222.777-.369 1.505-.442zm14.11-2.209c0-.413-.055-.758-.164-1.037a1.73 1.73 0 00-.449-.672 1.732 1.732 0 00-.633-.365 2.402 2.402 0 00-.72-.11c-.64 0-1.143.247-1.507.74-.364.493-.548 1.125-.548 1.905v6.433h-3.14V5.55H91.1v1.487h.053c.465-.69.974-1.162 1.53-1.41a4.312 4.312 0 011.788-.376c.67 0 1.252.103 1.745.31a3.42 3.42 0 011.234.849c.325.36.564.778.719 1.256.151.478.229.988.229 1.532v7.691h-3.144V9.993h-.002zm7.51 1.34l.046.004 3.323 5.55H110l-3.911-6.22 3.756-5.107-3.647-.009-3.389 4.967h-.046V.312h-3.14v16.576h3.14v-5.555zM23.71.311h-3.277v16.576h3.277V.31zm10.057 14.992l.05-.008v1.592h3.007V.31h-3.142v6.795h-.043c-.525-.704-1.067-1.19-1.63-1.456-.56-.264-1.205-.398-1.933-.398-.817 0-1.546.164-2.185.486a4.862 4.862 0 00-1.627 1.312 6.06 6.06 0 00-1.03 1.896 7.03 7.03 0 00-.36 2.259c0 .79.127 1.55.382 2.27s.611 1.357 1.072 1.907a5.225 5.225 0 001.649 1.322c.641.33 1.355.496 2.142.496a4.73 4.73 0 002.033-.441c.624-.295 1.163-.778 1.615-1.456zm-.153-5.287c.119.395.176.807.176 1.232 0 .472-.063.911-.185 1.322a3.35 3.35 0 01-.547 1.08 2.6 2.6 0 01-.873.726 2.56 2.56 0 01-1.19.266c-.468 0-.876-.092-1.226-.275a2.662 2.662 0 01-.884-.738 3.307 3.307 0 01-.548-1.067 4.333 4.333 0 01-.185-1.268c0-.422.059-.839.175-1.243.115-.404.292-.76.524-1.068.234-.31.52-.558.862-.75.343-.193.74-.287 1.192-.287.496 0 .921.092 1.278.276.357.182.657.428.896.737.24.308.418.66.535 1.057zm7.678 3.092a3.533 3.533 0 01-.23-.986l8.217-.001v-.88c0-.91-.142-1.736-.426-2.48a5.63 5.63 0 00-1.18-1.894 5.045 5.045 0 00-1.812-1.197c-.709-.282-1.482-.421-2.328-.421a6.3 6.3 0 00-2.327.42 5.06 5.06 0 00-1.814 1.202 5.543 5.543 0 00-1.18 1.895c-.283.74-.424 1.569-.424 2.48 0 .91.14 1.73.425 2.458a5.577 5.577 0 001.179 1.873 5.063 5.063 0 001.814 1.202c.706.28 1.481.419 2.327.419 1.325 0 2.473-.296 3.44-.892.97-.596 1.643-1.473 2.022-2.633l-3.06-.242a2.294 2.294 0 01-.928 1.005 2.643 2.643 0 01-1.32.341c-.426 0-.792-.076-1.108-.232a2.541 2.541 0 01-.784-.597 2.923 2.923 0 01-.503-.84zm4.623-3.86c.115.286.188.571.216.849h-5.069c.045-.322.127-.633.252-.926.124-.294.293-.55.514-.771.218-.22.48-.395.785-.527a2.67 2.67 0 011.072-.2 2.2 2.2 0 011.003.222c.292.145.539.334.744.57.204.236.364.497.483.783zm11.85 6.172l.049-.016.001 1.483h3.034a6.443 6.443 0 01-.148-1.416V8.908c0-.648-.136-1.203-.407-1.664a3.3 3.3 0 00-1.106-1.135 5.188 5.188 0 00-1.62-.65 8.913 8.913 0 00-1.966-.209c-.99 0-1.813.129-2.468.377-.657.25-1.187.572-1.595.96-.41.39-.703.819-.885 1.281a4.51 4.51 0 00-.317 1.359h3.013c.03-.52.227-.93.59-1.233.365-.303.874-.455 1.53-.455.7 0 1.242.164 1.627.497.386.33.578.834.578 1.512v.53l-2.904.177c-1.092.073-1.958.237-2.597.494-.642.257-1.122.555-1.444.894-.32.339-.523.695-.61 1.07-.086.376-.13.717-.13 1.025 0 .649.12 1.19.359 1.633.24.442.554.797.94 1.07.386.274.811.466 1.277.586.466.116.92.175 1.354.175.657 0 1.329-.124 2.02-.373.692-.251 1.3-.72 1.826-1.409zm-2.709-3.22l2.622-.24-.001 1.036c0 .339-.088.628-.263.87a2.13 2.13 0 01-.657.596 3.14 3.14 0 01-.84.341c-.297.074-.57.11-.819.11-.26 0-.512-.022-.752-.065a1.89 1.89 0 01-.624-.221 1.261 1.261 0 01-.426-.409 1.126 1.126 0 01-.164-.627c0-.412.139-.73.416-.948.276-.222.78-.369 1.508-.443z" fill="url(#paint0_linear)"/><defs><linearGradient id="paint0_linear" x1="0" y1="8.605" x2="110" y2="8.605" gradientUnits="userSpaceOnUse"><stop stop-color="#0093D4"/><stop offset="1" stop-color="#2B2A29"/></linearGradient></defs></svg>