<svg width="150" height="28" fill="none" xmlns="http://www.w3.org/2000/svg"><path d="M129.664 3.529l-2.188 2.188 2.188 2.188 2.188-2.188-2.188-2.188z" fill="#fff"/><path fill-rule="evenodd" clip-rule="evenodd" d="M13.021 0c5.095 0 9.238 4.117 9.238 9.213 0 5.095-4.143 9.238-9.238 9.238H6.305L0 27.458V0h13.021z" fill="#fff"/><path d="M150 20.896h-3.422l-3.629-5.327v5.327h-3.011v-5.327l-3.628 5.327h-3.397l4.272-6.022-4.04-5.842h3.422l3.371 5.147V9.032h3.011v5.147l3.371-5.147h3.448l-4.065 5.842L150 20.896zm-21.873 0V9.032h3.062v11.864h-3.062zm-1.622-11.864v2.934H122.8v8.93h-3.062v-8.93h-3.758V9.032h10.525zm-21.012 8.366c.635.614 1.455.922 2.434.922.953 0 1.773-.308 2.409-.922.661-.616.979-1.435.979-2.41 0-.973-.318-1.767-.979-2.382-.636-.64-1.456-.948-2.409-.948-.979 0-1.799.307-2.434.948-.636.615-.953 1.41-.953 2.383 0 .974.317 1.793.953 2.409zm5.822-8.303h3.149v11.813h-3.149v-1.41c-.953 1.154-2.276 1.743-3.996 1.743-1.615 0-3.017-.615-4.182-1.82-1.164-1.203-1.746-2.69-1.746-4.432 0-1.743.582-3.229 1.746-4.433 1.165-1.205 2.567-1.794 4.182-1.794 1.72 0 3.043.564 3.996 1.717V9.095zm-11.778-.063v11.864h-3.062v-8.93H93.18v3.963c0 3.68-1.647 5.327-4.992 4.967v-2.883c.617.155 1.106.052 1.44-.308.335-.386.49-1.03.49-1.93V9.032h9.418zm-12.995 0v11.864h-3.063v-9.007H78.77v9.007h-3.062V9.032h10.834zM68.631 20.896h-3.448l-3.628-5.327v5.327h-2.986v-5.327l-3.628 5.327H51.52l4.271-6.022-4.04-5.842h3.423l3.396 5.147V9.032h2.986v5.147l3.396-5.147H68.4l-4.066 5.842 4.297 6.022zm-21.873 0V9.032h3.062v11.864h-3.062zm-7.668-8.518c.694 0 1.286-.258 1.724-.72.463-.49.694-1.082.694-1.802s-.231-1.338-.694-1.801c-.438-.464-1.03-.72-1.725-.72h-2.907v5.043h2.907zm0-8.106c1.595 0 2.933.54 4.04 1.621 1.08 1.08 1.62 2.393 1.62 3.963 0 1.57-.54 2.882-1.62 3.963-1.107 1.08-2.445 1.621-4.04 1.621h-2.908v5.456h-3.294V4.272h6.201z" fill="#fff"/><path fill-rule="evenodd" clip-rule="evenodd" d="M10.113 8.003h3.5L6.305 18.451l3.808-10.448zm-.9 2.419h-3.5L13.02 0 9.213 10.422z" fill="#000"/><path d="M48.282 3.529l-2.188 2.188 2.188 2.188 2.188-2.188-2.188-2.188z" fill="#fff"/></svg>