<svg width="516" height="490" fill="none" xmlns="http://www.w3.org/2000/svg"><g clip-path="url(#clip0_3_2514)"><path d="M87.734 376.275h53.519c3.814 0 6.82-3.002 6.82-6.812v-16.511c0-6.35-5.202-11.43-11.444-11.43H87.272l.462 34.753z" fill="#EBEBEB"/><path d="M140.328 386.55H35.14a5.177 5.177 0 01-5.202-5.195 5.177 5.177 0 015.202-5.196h105.188a5.177 5.177 0 015.202 5.196 5.177 5.177 0 01-5.202 5.195z" fill="#EBEBEB"/><path d="M13.64 238.304l57.911-1.04 36.758 138.664-78.37.809L.346 255.16c-2.08-8.659 4.508-16.856 13.293-16.856z" fill="#E0E0E0"/><path d="M42.538 386.551l-17.34 100.563h4.74L52.71 386.551H42.538z" fill="#EBEBEB"/><path d="M83.341 386.551L64.962 487.114h4.74l23.811-100.563H83.341z" fill="#E0E0E0"/><path d="M128.538 386.551l20.459 100.563h-4.739l-25.892-100.563h10.172zM64.962 237.264l28.667 138.78h21.962L92.589 253.428c-1.734-9.352-9.941-16.164-19.42-16.164h-8.207zm88.868 50.423h79.18v-3.81h-79.18v3.81z" fill="#EBEBEB"/><path d="M245.285 287.719l14.911-55.65h-61.841l-13.524 55.65h60.454z" fill="#EBEBEB"/><path d="M188.53 283.563h55.368l12.83-48.954h-55.599l-12.599 48.954z" fill="#E0E0E0"/><path d="M142.177 299.149h-4.045V490h4.045V299.149z" fill="#F5F5F5"/><path d="M146.107 299.611h-4.045v190.274h4.045V299.611zm242.627-.462h-4.046V490h4.046V299.149z" fill="#EBEBEB"/><path d="M392.664 299.611h-4.046v190.274h4.046V299.611z" fill="#E0E0E0"/><path d="M424.798 288.065H120.793v15.703h304.005v-15.703z" fill="#E0E0E0"/><path d="M386.653 303.652H252.798v25.862h133.855v-25.862z" fill="#EBEBEB"/><path d="M325.736 314.851c0 1.617-1.387 3.002-3.005 3.002-1.618 0-3.005-1.385-3.005-3.002 0-1.616 1.387-3.001 3.005-3.001 1.618 0 3.005 1.385 3.005 3.001zM170.96 109.222H4.392v7.39H170.96v-7.39z" fill="#E0E0E0"/><path d="M38.376 112.686h-6.704v25.285h6.704v-25.285zm101.027 0h-6.704v25.285h6.704v-25.285z" fill="#E0E0E0"/><path d="M107.847 45.26c.231-.232 2.08 1.038 4.508 3.81 1.271 1.385 2.543 3.117 3.814 5.195 1.272 2.078 2.543 4.387 3.699 7.043a47.944 47.944 0 012.543 7.505 63.462 63.462 0 011.156 6.35c.347 3.694 0 6.004-.347 6.004-.924.115-1.618-8.89-6.01-18.82-4.046-9.814-9.941-16.51-9.363-17.088zm18.379 43.527c-.347 0-1.387-4.85-2.428-12.816-1.04-7.967-1.849-19.166-2.08-31.405a562.954 562.954 0 010-31.404c.231-8.082.578-13.047 1.04-13.047.462 0 .809 4.965 1.04 13.047.347 8.082.463 19.166.81 31.404.346 12.239.809 23.323 1.271 31.29.462 7.85.694 12.815.347 12.93z" fill="#EBEBEB"/><path d="M143.911 18.935c.347.231-1.156 3.58-3.121 9.352-2.08 5.657-4.508 13.624-7.051 22.514-2.427 8.89-4.277 17.088-5.432 22.976-1.156 5.888-1.619 9.699-2.081 9.699-.347 0-.694-3.81 0-9.93.578-6.119 2.196-14.432 4.739-23.438 2.543-9.005 5.317-16.972 7.976-22.514 2.427-5.773 4.624-8.89 4.97-8.659z" fill="#EBEBEB"/><path d="M103.454 78.51v9.815c0 11.545 9.248 20.897 20.691 20.897 11.444 0 20.691-9.352 20.691-20.897V78.51h-41.382z" fill="#E0E0E0"/><path d="M145.067 86.824c0 .115-9.363.346-20.806.346-11.559 0-20.807-.115-20.807-.346 0-.116 9.363-.347 20.807-.347 11.443 0 20.806.116 20.806.347zm0 2.656c0 .115-9.363.346-20.806.346-11.559 0-20.807-.116-20.807-.347 0-.115 9.363-.346 20.807-.346 11.443.115 20.806.23 20.806.346z" fill="#FAFAFA"/><path d="M70.95 85.148l-.049-9.237-45.427.24.049 9.237 45.427-.24z" fill="#E0E0E0"/><path d="M76.442 109.053l-.076-14.317-50.629.267.076 14.317 50.63-.267z" fill="#F5F5F5"/><path d="M66.696 109.107c-.115 0-.231-3.233-.231-7.158 0-3.926.116-7.159.231-7.159.116 0 .231 3.233.231 7.159 0 3.925-.115 7.158-.23 7.158zm2.081 0c-.116 0-.231-3.233-.231-7.158 0-3.926.115-7.159.23-7.159.116 0 .232 3.233.232 7.159 0 3.925-.116 7.158-.231 7.158zm-35.371 0c-.116 0-.231-3.233-.231-7.158 0-3.926.115-7.159.23-7.159.117 0 .232 3.233.232 7.159 0 3.925-.115 7.158-.231 7.158zm2.08 0c-.115 0-.23-3.233-.23-7.158 0-3.926.115-7.159.23-7.159.116 0 .232 3.233.232 7.159 0 3.925-.116 7.158-.232 7.158zm4.624-7.043c0-.115 5.086-.231 11.444-.231 6.357 0 11.443.116 11.443.231 0 .116-5.086.231-11.443.231-6.242 0-11.444 0-11.444-.231z" fill="#E0E0E0"/><path d="M95.411 94.163l-.049-9.237-62.534.33.048 9.237 62.535-.33z" fill="#EBEBEB"/><path d="M86.462 93.058a3.004 3.004 0 003.006-3.001 3.004 3.004 0 00-3.006-3.002 3.004 3.004 0 00-3.005 3.002 3.004 3.004 0 003.005 3.001zm-8.107-2.089V89.12H36.511v1.848h41.844zm421.578-71.341h-82.879v119.96h82.879V19.628z" fill="#E0E0E0"/><path d="M495.772 19.628h-82.879v119.96h82.879V19.628z" fill="#F5F5F5"/><path d="M485.484 32.559H423.18v93.982h62.304V32.559z" fill="#fff"/><path d="M485.484 126.541v-26.44c0-16.51-.116-40.063-.116-67.658l.232.231h-62.189l.232-.23v93.981l-.232-.23c18.957 0 34.447.115 45.312.115h15.721c.578.231 1.04.231 1.04.231h-16.876c-10.866 0-26.471 0-45.428.115h-.231V32.213H485.6v.23c0 27.71-.116 51.148-.116 67.774v26.324z" fill="#E0E0E0"/><path d="M496.003 19.628s-.463.808-1.503 2.193c-.925 1.27-2.312 3.002-3.93 4.965a129.458 129.458 0 01-4.046 4.734c-1.04 1.154-1.734 1.847-1.849 1.847 0 0 .578-.808 1.618-2.078 1.156-1.386 2.428-3.002 4.046-4.85 1.502-1.847 2.89-3.463 3.93-4.849 1.04-1.27 1.618-2.078 1.734-1.962z" fill="#E0E0E0"/><path d="M485.715 126.195c3.121 4.964 6.704 9.467 10.866 13.508l-10.866-13.508z" fill="#fff"/><path d="M496.581 139.819s-.809-.578-1.85-1.732c-1.156-1.155-2.543-2.771-4.045-4.619a54.963 54.963 0 01-3.584-4.964c-.809-1.386-1.271-2.194-1.271-2.194s.578.808 1.502 2.078c.925 1.27 2.197 3.002 3.699 4.849 1.503 1.848 2.89 3.464 3.93 4.734 1.041 1.039 1.734 1.732 1.619 1.848z" fill="#E0E0E0"/><path d="M412.893 139.472c3.583-4.503 7.282-8.89 10.865-13.393l-10.865 13.393z" fill="#fff"/><path d="M423.758 126.079c.116.116-2.312 3.117-5.202 6.812a243.104 243.104 0 01-5.548 6.581c-.116-.115 2.196-3.117 5.202-6.812 2.889-3.694 5.432-6.696 5.548-6.581zM412.893 19.628c.115-.116 2.427 2.77 5.317 6.234 2.774 3.58 4.97 6.466 4.97 6.581-.115.116-2.427-2.77-5.317-6.234-2.89-3.58-5.086-6.581-4.97-6.581zm53.172 31.982h-20.807v59.113h20.807V51.609z" fill="#E0E0E0"/><path d="M516 488.153c0 .115-115.476.346-257.769.346-142.408 0-257.884-.115-257.884-.346 0-.231 115.36-.347 257.884-.347 142.409 0 257.769.116 257.769.347z" fill="#263238"/><path d="M431.387 388.167c11.097 3.925 25.661.462 35.14-6.581 9.478-6.928 16.298-16.857 22.425-26.902 2.543-4.272 5.086-8.774 5.895-13.739.809-4.965-.347-10.507-4.277-13.739-6.011-5.081-15.143-2.425-21.963 1.385-21.153 12.008-35.602 35.214-37.22 59.576zm11.906 26.555c6.704 8.775 18.148 12.7 29.245 13.278 11.096.461 21.962-2.54 32.25-6.466 3.699-1.385 7.86-3.348 9.131-7.158.925-2.887 0-6.12-1.965-8.544-1.965-2.309-4.623-3.926-7.398-5.08-10.172-4.272-21.846-4.503-32.481-1.732-10.75 2.655-20.113 8.89-28.782 15.702zm-12.137-74.123c9.247.23 16.183-7.852 20.344-16.049 5.78-11.315 7.745-24.592 5.433-37.177-.809-4.734-2.659-9.814-6.82-12.008-4.277-2.309-9.825-.808-13.409 2.54-3.583 3.233-5.548 7.967-6.935 12.585-4.971 15.933-3.815 34.291 1.387 50.109zM400.987 391.4c15.72-26.671 18.263-59.345 9.016-88.787-1.503-4.734-4.393-10.276-9.363-10.622-5.549-.346-9.016 5.888-10.519 11.199-5.433 18.705-4.277 38.679-3.005 58.075.693 12.008 4.739 22.284 13.871 30.135zm-16.299 10.968c-5.664-18.242-20.113-33.598-38.029-40.294-4.162-1.617-9.479-2.425-12.6.692-3.005 3.118-2.081 8.313-.115 12.239 3.12 6.35 8.322 11.315 13.408 16.164 4.624 4.387 9.479 8.89 15.374 11.43 5.779 2.656 16.529 3.348 21.962-.231z" fill="#E8505B"/><path d="M481.901 333.902l-.232.231c-.231.231-.462.346-.809.693-.809.577-1.849 1.385-3.236 2.424a21.946 21.946 0 01-2.428 1.732c-.809.693-1.734 1.386-2.774 2.194-1.965 1.616-4.277 3.348-6.589 5.542-1.156 1.039-2.427 2.194-3.699 3.348-1.271 1.155-2.543 2.54-3.814 3.81-2.659 2.54-5.317 5.658-8.092 8.775-5.432 6.466-10.981 13.855-16.182 22.052-5.086 8.313-9.248 16.626-12.484 24.362-1.503 3.925-3.121 7.62-4.161 11.199-.578 1.732-1.272 3.464-1.734 5.196l-1.387 4.849c-.925 3.002-1.503 5.888-2.081 8.313-.231 1.27-.578 2.424-.809 3.463-.231 1.04-.347 2.079-.463 2.887-.346 1.732-.578 3.002-.693 4.041-.116.462-.116.808-.231 1.039 0 .231-.116.346-.116.346v-.346c0-.231.116-.577.116-1.039.115-1.039.346-2.309.578-4.041.115-.924.231-1.847.462-2.887.231-1.039.462-2.193.694-3.463.578-2.425 1.04-5.311 1.965-8.429.462-1.501.809-3.117 1.271-4.849.462-1.732 1.04-3.348 1.618-5.195 1.041-3.58 2.659-7.274 4.162-11.2 3.236-7.735 7.398-16.164 12.484-24.477 5.201-8.313 10.75-15.702 16.298-22.052 2.89-3.117 5.433-6.119 8.207-8.775 1.387-1.27 2.543-2.655 3.93-3.81 1.272-1.154 2.543-2.309 3.699-3.348 2.312-2.194 4.624-3.926 6.589-5.542 1.04-.808 1.965-1.501 2.774-2.194a21.834 21.834 0 002.427-1.732c1.387-1.039 2.543-1.731 3.352-2.309.347-.231.694-.462.925-.577.347-.231.463-.231.463-.231z" fill="#263238"/><path d="M502.707 407.795s-.347 0-1.04-.231c-.694-.116-1.734-.347-3.006-.578-2.658-.461-6.588-1.154-11.328-1.385-9.594-.577-23.234.577-36.873 6.235-13.64 5.657-24.043 14.547-30.401 21.821-3.236 3.579-5.548 6.812-7.051 9.006-.809 1.154-1.272 1.962-1.734 2.655-.347.577-.578.924-.578.924s.116-.347.463-.924c.346-.577.809-1.501 1.618-2.655 1.387-2.31 3.699-5.542 6.82-9.237 6.242-7.389 16.76-16.395 30.516-22.168 13.755-5.773 27.511-6.812 37.22-6.004 4.855.347 8.785 1.04 11.328 1.617 1.387.231 2.312.577 3.006.808.693 0 1.04.116 1.04.116zm-57.911-121.808s0 .116-.116.462c-.116.347-.116.693-.231 1.155-.231 1.154-.578 2.655-1.04 4.618-.925 4.041-2.312 9.698-4.046 16.857-3.468 14.201-8.438 33.713-13.755 55.419-2.543 10.853-4.971 21.244-6.936 30.596-1.965 9.468-3.699 18.012-4.97 25.17-.694 3.579-1.156 6.812-1.619 9.698-.462 2.887-.924 5.311-1.156 7.39-.346 1.962-.578 3.579-.693 4.618-.116.462-.116.924-.231 1.154 0 .231-.116.462-.116.462v-.462c0-.346.116-.692.116-1.27.115-1.154.346-2.655.578-4.618.231-2.078.578-4.503 1.04-7.389.462-2.887.925-6.119 1.618-9.699 1.156-7.158 2.89-15.702 4.855-25.169a887.589 887.589 0 016.936-30.712c5.201-21.706 10.287-41.218 13.871-55.419a974.25 974.25 0 014.276-16.741c.463-1.963.925-3.464 1.156-4.503.116-.462.231-.924.347-1.155 0-.346.116-.462.116-.462zm-36.065 155.521s0-.115-.115-.346c-.116-.231-.116-.578-.232-.924-.231-.924-.462-2.194-.809-3.695-.693-3.232-1.503-7.966-2.543-13.739-1.965-11.661-4.392-27.71-5.895-45.606-.694-9.005-1.156-17.549-1.271-25.285-.116-7.735-.116-14.778.231-20.667.115-3.001.231-5.657.346-7.966.116-2.309.232-4.387.463-6.004.115-1.616.231-2.886.347-3.81 0-.346.115-.693.115-.924 0-.23 0-.346.116-.346v1.386c0 .923-.116 2.193-.231 3.81a291.845 291.845 0 00-.347 6.003c-.116 2.31-.231 4.965-.231 7.967-.232 5.888-.232 12.931 0 20.667.231 7.735.578 16.279 1.387 25.285 1.502 17.896 3.814 34.06 5.664 45.605a790.83 790.83 0 002.312 13.74c.231 1.616.462 2.771.693 3.694.116.347.116.693.116.924-.116.116-.116.231-.116.231z" fill="#263238"/><path d="M409.887 444.856s-.115-.346-.462-.923a29.9 29.9 0 00-1.041-2.656 37.357 37.357 0 01-.693-1.963c-.347-.692-.694-1.501-1.04-2.309-.347-.808-.694-1.732-1.156-2.54a67.357 67.357 0 01-1.387-2.886c-.463-1.039-1.041-2.078-1.619-3.118a48.126 48.126 0 00-1.965-3.232c-1.271-2.31-2.89-4.619-4.508-7.043-3.352-4.849-7.282-9.93-11.79-15.125-4.508-5.08-9.132-9.583-13.524-13.509-2.312-1.847-4.277-3.81-6.358-5.426-1.04-.808-1.965-1.617-3.005-2.309-.925-.693-1.965-1.386-2.774-2.079-1.734-1.385-3.468-2.424-4.971-3.463-1.503-1.039-2.774-1.848-3.814-2.54-1.041-.693-1.85-1.155-2.428-1.501-.578-.347-.809-.578-.809-.578s.347.116.925.462c.693.347 1.502.809 2.543 1.386a46.852 46.852 0 013.93 2.424 75.7 75.7 0 014.97 3.349c.925.692 1.85 1.385 2.89 2.078.925.808 1.965 1.501 3.005 2.309 2.081 1.616 4.162 3.464 6.474 5.311 4.392 3.926 9.131 8.544 13.639 13.624 4.508 5.08 8.439 10.276 11.791 15.24 1.618 2.54 3.236 4.85 4.392 7.159a47.822 47.822 0 011.85 3.348c.578 1.039 1.04 2.194 1.618 3.117.462 1.039 1.04 1.963 1.387 2.887.347.923.809 1.847 1.156 2.655.347.808.693 1.617.925 2.309.231.693.462 1.386.693 1.963.347 1.155.694 2.078.925 2.771.115.462.231.808.231.808zm66.234-80.011c0 .115-1.85.115-4.971.231-3.005.115-7.282.577-11.79 1.385a108.004 108.004 0 00-11.559 3.002c-2.89.924-4.624 1.616-4.739 1.501 0 0 .347-.231 1.156-.693.809-.346 1.965-.808 3.352-1.385 2.89-1.039 6.935-2.309 11.559-3.233 4.624-.924 8.901-1.155 12.021-1.27 1.503 0 2.775 0 3.699.115.81.231 1.272.231 1.272.347zm11.79 57.728c-.231.115-1.965-4.965-6.473-9.698-4.392-4.85-9.363-6.928-9.247-7.159 0-.115 1.271.347 3.236 1.386 1.85 1.039 4.393 2.771 6.589 5.195 2.196 2.425 3.815 4.965 4.739 6.928.925 1.963 1.272 3.348 1.156 3.348zm-40.341-114.88c.115.116-2.774 3.002-5.895 6.928-3.121 3.81-5.433 7.273-5.549 7.158-.115-.115 1.85-3.695 4.971-7.62 3.236-4.041 6.357-6.581 6.473-6.466zm-9.479-16.395c.232 0 .809 2.771 1.387 6.235.578 3.464.925 6.235.694 6.35-.231 0-.809-2.771-1.387-6.235-.578-3.463-.925-6.35-.694-6.35zm-29.36 51.379c.231.115-1.849 4.387-4.623 9.698-2.775 5.196-5.086 9.352-5.202 9.352-.231-.115 1.849-4.387 4.624-9.698 2.658-5.311 5.086-9.468 5.201-9.352zm-17.454-17.434c.231-.116 1.965 3.002 3.93 6.927 1.965 3.926 3.468 7.274 3.237 7.274-.232.116-1.965-3.002-3.931-6.927-1.965-3.926-3.467-7.274-3.236-7.274z" fill="#263238"/><path d="M365.616 384.819c0 .231-3.121-.347-7.051-.693-3.931-.231-7.052-.116-7.052-.346 0-.231 3.121-.693 7.167-.347 3.93.231 6.936 1.155 6.936 1.386zm17.569 52.648l8.785 45.837c.578 3.001 3.237 5.195 6.358 5.195h25.777c3.121 0 5.895-2.309 6.357-5.426l7.629-45.721h-54.906v.115z" fill="#263238"/><path d="M385.96 452.361h49.357l2.659-14.894h-54.791l2.775 14.894z" fill="#455A64"/><path d="M385.96 452.361l1.04 5.427h47.624l.693-5.427H385.96z" fill="#FAFAFA"/><path d="M185.062 482.149l3.005-12.7 24.737.577-2.081 18.127-1.618.115c-7.051.462-35.718 1.963-40.457.578-5.086-1.617 16.414-6.697 16.414-6.697z" fill="#E8505B"/><path opacity=".4" d="M201.591 488.037c.347-2.078 1.503-4.156 3.237-5.426 1.734-1.386 3.815-2.078 5.895-1.963l.116 7.043-9.248.346z" fill="#000"/><path opacity=".4" d="M174.543 485.035s-7.513 2.31-6.589 3.464c.925 1.27 30.054.808 42.769-.462v-.577l-33.868.693c0 .115-.809-3.118-2.312-3.118z" fill="#000"/><path d="M211.186 487.46h-.463c-.347 0-.809.115-1.271.115-1.272.116-2.775.116-4.624.231-3.93.231-9.247.347-15.258.462-6.011.116-11.328 0-15.258 0-1.85 0-3.352-.115-4.624-.115h-1.734 21.616a1623.85 1623.85 0 0015.258-.347c1.849-.115 3.352-.115 4.624-.115h1.271c.231-.231.463-.231.463-.231z" fill="#263238"/><path d="M176.855 488.615c-.116 0-.231-1.04-.925-2.194-.693-1.155-1.618-1.617-1.618-1.732 0-.115 1.156.346 1.849 1.616.809 1.155.809 2.31.694 2.31zm7.513-3.926c-.115 0-.462-.346-.809-.924-.347-.577-.578-1.039-.578-1.154.116 0 .463.346.809.923l.578 1.155zm1.965-1.039c0 .115-.462-.231-.924-.577-.463-.347-.81-.809-.694-.809 0-.115.462.231.925.578.462.346.809.692.693.808zm1.272-2.425c0 .116-.578.116-1.272.231-.693.116-1.387 0-1.387-.115 0-.116.578-.116 1.272-.231.809 0 1.387 0 1.387.115zm.462-1.731c0 .115-.578.346-1.503.461-.809.116-1.502-.115-1.502-.231 0-.115.693 0 1.502-.115.81 0 1.503-.231 1.503-.115z" fill="#263238"/><path d="M183.444 482.495s-.578.116-1.619 0a5.128 5.128 0 01-1.734-.346l-1.04-.346c-.116-.116-.347-.231-.462-.462-.116-.231 0-.578.231-.693 1.503-.808 3.121 0 3.699.808.347.462.462.808.578 1.039.115.231.115.462 0 .462 0 0-.116-.693-.809-1.385a4.161 4.161 0 00-1.387-.924c-.578-.115-1.388-.231-1.966.115-.231.231-.115.462.116.693.231.116.578.231.925.347.578.23 1.156.346 1.734.461 1.156.231 1.734.231 1.734.231z" fill="#263238"/><path d="M182.981 482.611s-.231-.346-.231-1.155c0-.346.116-.808.462-1.154.232-.347.694-.924 1.387-.808.347 0 .578.461.463.692 0 .231-.116.578-.231.693-.232.462-.463.693-.81 1.039a3.988 3.988 0 01-.924.693l.809-.808c.231-.231.462-.578.693-1.039.232-.347.347-.924 0-1.04-.462 0-.809.347-1.04.693-.231.347-.347.693-.462 1.039-.116.693 0 1.155-.116 1.155zm27.511-2.078s-.694-.116-1.849.115c-1.156.115-2.659.577-4.046 1.732-1.387 1.154-2.196 2.54-2.543 3.694-.347 1.04-.347 1.848-.463 1.848v-.462c0-.346.116-.808.232-1.386.346-1.154 1.156-2.655 2.543-3.81 1.387-1.154 3.121-1.616 4.277-1.731h1.849zm-2.774-10.507c.115 0 .231 2.309.231 5.196.116 2.886.116 5.195 0 5.195s-.231-2.309-.231-5.195v-5.196zm-9.363 15.471c0 .116-1.618.347-3.699.462-2.081 0-3.699-.115-3.699-.231 0-.115 1.618 0 3.699 0 1.965-.115 3.699-.231 3.699-.231z" fill="#263238"/><path d="M203.325 485.497c.116.116-.115.347-.347.693-.115.346-.231.693-.346.693-.116 0-.116-.347.115-.809.231-.461.463-.692.578-.577zm1.85-2.424c.115.115-.116.346-.347.577-.231.231-.462.462-.578.346-.116-.115.116-.346.347-.577.231-.231.462-.346.578-.346zm2.658-1.039c0 .115-.346.115-.693.231-.347.115-.694.346-.694.23-.115 0 .116-.461.578-.577.463-.115.809 0 .809.116zm1.965-.578c0 .116-.115.231-.346.347-.232.115-.463.115-.463 0 0-.116.116-.231.347-.347h.462z" fill="#263238"/><path d="M286.436 482.149l.115-13.509-25.43-.346-.347 19.859 1.619.115c7.051.462 35.717 1.963 40.457.577 5.201-1.501-16.414-6.696-16.414-6.696z" fill="#E8505B"/><path opacity=".4" d="M270.022 488.037c-.347-2.078-1.503-4.156-3.237-5.426-1.734-1.386-3.814-2.079-5.895-1.963l-.116 7.043 9.248.346z" fill="#000"/><path opacity=".4" d="M296.954 485.035s7.514 2.309 6.589 3.464c-.925 1.27-30.054.808-42.769-.462v-.577l33.869.692c.115.116.924-3.117 2.311-3.117z" fill="#000"/><path d="M260.427 487.575h.463c.347 0 .809 0 1.271.116 1.272.115 2.775.115 4.624.231 3.93.231 9.247.346 15.258.461 6.011.116 11.328 0 15.258 0 1.85 0 3.352-.115 4.624-.115.462 0 .925 0 1.271-.115h-21.153a1623.85 1623.85 0 01-15.258-.347c-1.849-.115-3.352-.115-4.624-.115h-1.271c-.347-.116-.463-.116-.463-.116z" fill="#263238"/><path d="M294.643 488.73c.115 0 .231-1.039.924-2.194.694-1.155 1.619-1.616 1.619-1.732 0-.115-1.156.347-1.85 1.617-.809 1.039-.693 2.309-.693 2.309zm-7.398-3.926c.115 0 .462-.346.809-.923.347-.578.578-1.039.578-1.155-.116 0-.463.346-.809.924-.463.577-.694 1.039-.578 1.154zm-2.081-1.154c0 .115.462-.231.925-.577.462-.347.809-.809.693-.809 0-.115-.462.231-.924.578-.463.346-.694.808-.694.808zm-1.271-2.425c0 .116.578.116 1.271.231.694 0 1.387 0 1.387-.115 0-.116-.578-.116-1.271-.231-.809 0-1.387.115-1.387.115zm-.347-1.616c0 .115.578.346 1.502.462.81.115 1.503-.116 1.503-.231 0-.116-.693 0-1.503-.116-.924-.115-1.502-.231-1.502-.115z" fill="#263238"/><path d="M288.169 482.611s.578.115 1.619 0c.462 0 1.156-.116 1.734-.347l1.04-.346c.116-.116.347-.231.462-.462.116-.231 0-.577-.231-.693-1.503-.808-3.121 0-3.699.808-.347.462-.462.809-.578 1.04-.115.23-.115.461 0 .461 0 0 .116-.692.809-1.385a4.166 4.166 0 011.387-.924c.578-.115 1.388-.231 1.966.116.231.231.115.462-.116.692-.231.116-.578.231-.925.347-.578.231-1.156.346-1.734.462-1.156.115-1.734.115-1.734.231z" fill="#263238"/><path d="M288.516 482.611s.231-.347.231-1.155c0-.346-.115-.808-.462-1.155-.231-.346-.693-.923-1.387-.808-.347 0-.578.462-.462.693 0 .231.115.577.231.693.231.462.462.693.809 1.039.462.462.925.693.925.693l-.809-.809c-.232-.23-.463-.577-.694-1.039-.231-.346-.347-.923 0-1.039.462 0 .809.347 1.04.693.231.346.347.693.463 1.039.231.808.115 1.155.115 1.155zm-27.511-1.963s.694-.116 1.85.115c1.156.116 2.658.578 4.046 1.732 1.387 1.155 2.196 2.54 2.543 3.695.346 1.039.346 1.847.462 1.847v-.462c0-.346-.116-.808-.231-1.385-.347-1.155-1.156-2.656-2.543-3.81-1.387-1.155-3.121-1.617-4.277-1.732h-1.387c-.231-.116-.463-.116-.463 0zm2.775-10.622c-.116 0-.232 2.309-.232 5.195-.115 2.887-.115 5.196 0 5.196.116 0 .232-2.309.232-5.196.115-2.771.115-5.195 0-5.195zm9.478 15.587c0 .115 1.618.346 3.699.461 2.081 0 3.699-.115 3.699-.231 0-.115-1.618 0-3.699 0-2.081-.115-3.699-.346-3.699-.23z" fill="#263238"/><path d="M268.288 485.497c-.116.116.115.346.346.693.116.346.232.693.347.693.116 0 .116-.347-.115-.809a2.38 2.38 0 00-.578-.577zm-1.85-2.309c-.115.115.116.346.347.577.231.231.462.462.578.347.116-.116-.116-.347-.347-.578-.231-.231-.578-.462-.578-.346zm-2.658-1.155c0 .116.346.116.693.231.347.116.694.347.694.231.115 0-.116-.462-.578-.577-.463-.116-.925.115-.809.115zm-1.965-.462c0 .116.115.231.346.347.232.115.463.115.463 0 0-.116-.116-.231-.347-.347-.231-.115-.462-.115-.462 0zm39.069-246.962l-11.559 244.307-31.672.808 2.428-211.863-47.508 212.21-27.049-1.155 42.422-243.845 72.938-.462z" fill="#263238"/><path d="M267.941 237.842c.115 0 0 1.501-.231 4.041-.231 2.424-.694 5.888-1.156 9.583-.231 1.847-.463 3.694-.925 5.311-.462 1.616-1.271 3.002-2.312 3.81-1.04.808-1.965 1.154-2.658 1.27-.694.115-1.156.115-1.156 0 0-.116 1.618 0 3.467-1.732.925-.808 1.619-2.078 2.081-3.579.462-1.501.578-3.348.809-5.196.463-3.81.925-7.158 1.387-9.583.232-2.424.578-3.925.694-3.925zm-7.86 1.501c.115 0-.232.462 0 1.039.115.346.346.693.693.808.347.115.809 0 1.156-.231.347-.346.462-.808.347-1.154-.116-.347-.463-.578-.694-.693-.578-.231-1.04 0-1.04 0-.116 0 .347-.577 1.271-.347.463.116.925.347 1.156.924.232.577.116 1.386-.462 1.847-.462.462-1.271.693-1.849.347-.578-.347-.81-.808-.81-1.27-.346-1.039.232-1.386.232-1.27zm-20.113 4.156c-.116.115-.809-1.501-.578-3.464.115-1.963.924-3.348 1.04-3.348.231.115-.347 1.501-.462 3.348-.116 1.963.115 3.464 0 3.464zm4.508-.462c-.116 0-.694-1.501-.694-3.579.116-2.078.694-3.579.925-3.464.231.116-.231 1.617-.231 3.464-.116 1.963.115 3.579 0 3.579zm39.07-.346c-.231 0 0-1.616.115-3.695 0-1.962-.115-3.579 0-3.694.116 0 .694 1.616.694 3.694-.116 2.079-.694 3.695-.809 3.695zm4.855-.462c-.232-.115.346-1.732.346-3.695.116-2.078-.346-3.694-.115-3.694.115-.116.924 1.616.809 3.81 0 1.963-.809 3.579-1.04 3.579z" fill="#455A64"/><path d="M281.234 81.282c1.271-1.501 2.312-4.272 1.503-6.12 1.502-.808 1.733-2.193 1.733-3.925 0-1.732-.693-3.348-1.502-4.965-1.272-2.424-3.121-4.849-5.549-6.119-2.427-1.27-5.779-1.385-7.975.346-3.121-4.156-10.057-4.618-13.756-.923-.693.693-1.271 1.385-2.08 1.847-1.388.808-3.121.462-4.624.577-2.543.231-4.971 1.732-6.242 3.926-1.272 2.194-1.503 4.965-.462 7.39-2.312 1.385-3.468 4.04-3.699 6.696-.232 2.655.346 5.31.924 7.85.694 3.234 1.503 6.582 3.815 8.891 1.503 1.616 3.699 2.656 5.895 2.77 3.237.232 6.473-1.27 8.323-3.925" fill="#263238"/><path d="M247.366 135.777l25.661-1.154c.115-2.771-1.272-19.512-1.272-19.512s9.71-1.501 9.826-11.2c.115-9.698-1.619-31.981-1.619-31.981a33.546 33.546 0 00-33.868 4.271l-1.387 1.155 2.659 58.421z" fill="#B78876"/><path d="M271.755 114.995s-6.126.462-12.599-3.579c0 0 3.005 6.927 12.715 6.119l-.116-2.54z" fill="#AA6550"/><path d="M245.863 87.285c-.116-.115-6.704-1.962-6.473 4.618.231 6.582 6.82 5.08 6.82 4.85.115-.116-.347-9.468-.347-9.468z" fill="#B78876"/><path d="M244.129 94.444s-.116.115-.347.23c-.231.116-.462.116-.809 0-.694-.23-1.387-1.27-1.387-2.54 0-.577.115-1.154.231-1.616.231-.462.462-.808.809-.924.347-.115.578.116.694.347.115.23 0 .346.115.346 0 0 .116-.115.116-.346 0-.116-.116-.231-.231-.462-.116-.115-.347-.231-.694-.115-.462 0-.925.577-1.156 1.039a4.785 4.785 0 00-.346 1.847c.115 1.385.809 2.54 1.733 2.77.463.116.81 0 1.041-.23.231-.23.346-.346.231-.346z" fill="#AA6550"/><path d="M277.882 87.055c0 .692-.578 1.385-1.387 1.385-.81 0-1.388-.462-1.388-1.27 0-.693.578-1.385 1.388-1.385.809 0 1.387.577 1.387 1.27zm.346-1.501c-.115.23-1.271-.578-2.658-.578-1.503 0-2.543.693-2.774.578-.116-.116.115-.462.578-.808.462-.347 1.271-.693 2.196-.693.925 0 1.734.346 2.196.693.347.346.578.692.462.808zm-14.911 1.962c0 .693-.578 1.386-1.387 1.386s-1.387-.462-1.387-1.27c0-.693.578-1.386 1.387-1.386.694-.115 1.387.462 1.387 1.27zm.231-1.731c-.115.23-1.271-.578-2.658-.578-1.503 0-2.543.693-2.774.578-.116-.116.115-.462.577-.809.463-.346 1.272-.692 2.197-.692.924 0 1.734.346 2.196.692.347.462.578.809.462.809zm5.433 11.083c0-.115.925-.23 2.428-.461.346 0 .693-.116.809-.347.115-.23-.116-.692-.232-1.154a49.675 49.675 0 00-1.155-2.887c-1.619-4.156-2.659-7.504-2.543-7.62.115-.115 1.618 3.233 3.121 7.39a79.19 79.19 0 001.04 2.886c.115.462.347.924.231 1.5a1.388 1.388 0 01-.578.578c-.231.115-.462.115-.693.115-1.503.116-2.428.116-2.428 0zm-4.392 1.039c.231 0 .231 1.617 1.618 2.771 1.387 1.155 3.121.924 3.121 1.155 0 .115-.347.346-1.156.346-.694 0-1.734-.231-2.659-.923-.809-.693-1.156-1.617-1.271-2.31 0-.692.231-1.038.347-1.038zm-.694-17.895c-.116.461-1.618.23-3.352.461-1.734.231-3.121.693-3.352.347-.116-.231.115-.577.693-.924.578-.346 1.503-.808 2.543-.924 1.041-.115 1.965 0 2.659.347.578.115.925.462.809.693zm13.755 1.27c-.231.346-1.271 0-2.543 0-1.271-.116-2.311.23-2.543-.116-.115-.115.116-.462.463-.808.462-.346 1.156-.577 2.08-.577.81 0 1.619.346 1.965.692.578.231.694.578.578.809z" fill="#263238"/><path d="M244.245 76.779c.115 2.77-.463 6.004 0 8.775.115.461 1.156 1.5 1.271 1.962.578 2.425 1.618 3.464 3.005.924.578-.924.925-3.695 1.156-4.734l1.734-9.005c2.312 1.039 4.855 1.847 7.398 1.731 2.543-.115 5.086-1.5 6.358-3.694 1.156 1.963 3.352 3.463 5.664 3.694 2.311.347 4.739-.461 6.473-2.078.924 1.386 2.89 1.732 4.277.924 1.387-.808 1.965-2.656 1.618-4.272-.694-2.31-3.237-3.695-5.548-4.387-9.248-2.771-19.42-.578-27.742 4.272-1.156.692-2.428 1.5-3.353 2.54-.924 1.039-2.311 2.193-2.311 3.694" fill="#263238"/><path d="M266.207 92.712s.347-.462.809-1.27c.462-.808.925-2.194.694-3.81a5.704 5.704 0 00-3.353-4.387c-1.965-.924-4.739-.693-6.473 1.154-1.849 1.732-2.08 4.503-1.156 6.466.925 1.963 2.775 3.117 4.393 3.348 1.618.23 3.005-.23 3.814-.693.81-.462 1.156-.808 1.272-.808 0 0-.116.115-.231.346-.116.231-.463.462-.925.693-.809.578-2.196 1.155-3.93.924-1.734-.116-3.815-1.386-4.855-3.464a7.333 7.333 0 01-.578-3.579c.231-1.27.809-2.54 1.734-3.464.925-.923 2.196-1.616 3.468-1.732 1.271-.23 2.543 0 3.583.578 2.196 1.039 3.352 3.117 3.468 4.849.231 1.732-.347 3.233-.925 3.925-.231.462-.462.693-.693.924 0 0-.116.115-.116 0zm15.374 0s.346-.462.809-1.27c.462-.808.925-2.194.693-3.81a5.7 5.7 0 00-3.352-4.387c-1.965-.924-4.739-.693-6.473 1.154-1.849 1.732-2.081 4.503-1.156 6.466s2.774 3.117 4.393 3.348c1.618.23 3.005-.23 3.814-.693.809-.462 1.156-.808 1.272-.808 0 0-.116.115-.232.346-.115.231-.462.462-.924.693-.809.578-2.197 1.155-3.93.924-1.734-.116-3.815-1.386-4.855-3.464a7.31 7.31 0 01-.578-3.579c.231-1.27.809-2.54 1.734-3.464.924-.923 2.196-1.616 3.467-1.732 1.272-.23 2.543 0 3.584.578 2.196 1.039 3.352 3.117 3.468 4.849.231 1.732-.347 3.233-.925 3.925-.231.462-.463.693-.694.924 0 0-.115.115-.115 0z" fill="#455A64"/><path d="M271.409 88.094c0 .115-.81.346-1.734.346-.925 0-1.734-.115-1.734-.346 0-.116.809-.347 1.734-.347.924 0 1.734.116 1.734.347zm-26.008-.578c0-.115 2.311-.346 5.317-.461 2.889-.116 5.317 0 5.317.115 0 .116-2.312.346-5.317.462-2.89.115-5.317.115-5.317-.116z" fill="#455A64"/><path d="M251.065 85.67l-8.323-3.003-7.86 2.771-10.866 11.315-7.051 6.697 11.559 5.08 6.127-2.31 9.709-6.58 5.549-10.392s-1.619-.692-3.352 1.732l-1.619 2.194-1.618-6.004v-1.732l4.855 1.501c1.156.231 1.965.116 2.774-.808v-.462h.116z" fill="#B78876"/><path d="M235.46 94.444c.115 0 .346.462.693 1.27.347.924.578 2.194.463 3.579-.116 1.386-.463 2.656-.925 3.464-.462.808-.809 1.27-.925 1.27-.115-.116 1.04-2.078 1.272-4.734.231-2.656-.809-4.734-.578-4.85z" fill="#AA6550"/><path d="M235.575 94.675c0-.116 1.156-.347 3.006-.693h.231c.462.23.578.808.462 1.155 0 .461-.346.808-.462 1.154-.231.347-.347.693-.231 1.04.115.346.462.692.809.923h-.347c.809-.577 1.618-1.155 2.081-2.078.809-1.27-.116-2.656-.578-3.926-.116-.346-.231-.693-.347-.808-.116-.115-.347-.115-.694-.115-.577.115-1.155.115-1.618.23-1.965.347-3.236.462-3.236.347 0-.116 1.156-.347 3.236-.808.578-.116 1.041-.231 1.618-.347.347 0 .81-.115 1.041.231.347.346.347.693.578.924.231.577.578 1.27.809 1.963.231.692.231 1.731-.231 2.424-.578 1.04-1.503 1.617-2.312 2.194l-.231.115-.116-.115c-.347-.347-.809-.693-.925-1.27-.231-.578.116-1.155.232-1.501.231-.346.462-.693.462-1.04.116-.346 0-.577-.231-.692h.115c-1.965.577-3.121.693-3.121.693z" fill="#AA6550"/><path d="M241.702 95.483s.115.23.578.346c.346.116 1.04 0 1.271-.692.231-.693 0-1.617-.462-2.54-.463-.924-.809-2.079-1.387-3.233-.463-1.04-1.734-.924-2.775-.809-1.04.116-1.965.231-2.774.347-1.618.23-2.543.462-2.543.346 0-.115.925-.462 2.543-.808.809-.23 1.734-.346 2.774-.462.578-.115 1.156-.115 1.734-.115.694 0 1.387.462 1.619 1.154.578 1.155.924 2.31 1.387 3.233.231.462.346 1.04.462 1.501.116.462.116 1.04-.116 1.386-.231.461-.462.692-.924.808-.347.115-.694 0-.925-.116-.462 0-.462-.346-.462-.346z" fill="#AA6550"/><path d="M244.938 93.174c-.115 0-.347-.808-.809-2.194l-.694-2.424-.346-1.386a1.255 1.255 0 00-.925-.924c-.925-.346-1.965 0-2.89.231-.809.231-1.734.462-2.427.693-1.387.346-2.312.578-2.312.462 0-.116.809-.346 2.196-.808.809-.231 1.618-.462 2.428-.808.924-.231 1.965-.693 3.236-.347.578.231 1.04.808 1.272 1.27.115.578.231 1.04.346 1.501.232.924.347 1.732.578 2.425a61.36 61.36 0 01.347 2.309z" fill="#AA6550"/><path d="M224.016 96.868s0-.115.231-.23l.578-.578c.578-.577 1.272-1.385 2.196-2.309 1.966-2.078 4.624-4.85 7.861-8.313 2.427-.808 4.97-1.732 7.86-2.77 2.543.923 5.433 1.962 8.323 3.001h.115v.577a5.14 5.14 0 01-1.271.924c-.578.115-1.156.115-1.619 0a65.712 65.712 0 00-3.467-1.04c-.463-.114-.925-.345-1.503-.46l.231-.116v1.731c.578 2.079 1.04 4.041 1.618 6.004l-.346-.115 2.08-2.771c.694-.808 1.85-1.617 3.121-1.27h.116l-.116.115c-2.08 3.926-3.93 7.39-5.548 10.391-3.006 1.963-5.433 3.58-7.167 4.85-.809.577-1.503.923-1.965 1.27-.462.346-.693.461-.693.461s.231-.23.693-.461c.462-.347 1.156-.809 1.965-1.386 1.734-1.154 4.161-2.886 7.051-4.849 1.618-3.002 3.468-6.466 5.433-10.391l.116.23c-.463-.115-1.041-.115-1.503.116a3.62 3.62 0 00-1.272 1.04c-.693.807-1.387 1.847-2.08 2.77l-.231.231-.116-.346c-.462-1.963-1.04-3.926-1.618-6.004v-1.962l.231.115c.462.115.925.346 1.503.462l3.467 1.039a3.306 3.306 0 001.503 0c.462-.116.809-.462 1.156-.808v-.231l.116.115c-2.89-1.04-5.664-2.078-8.323-3.002h.116a304.68 304.68 0 00-7.861 2.656c-3.352 3.463-6.01 6.234-7.976 8.197-.924.924-1.618 1.732-2.196 2.194l-.578.577c-.231.231-.231.346-.231.346z" fill="#AA6550"/><path d="M227.368 169.837l-.578-39.832 10.404-3.464c3.236-.577 6.473-1.847 10.287-1.963 7.167 5.658 17.339 5.773 24.737.346l.346-.23c1.041.115 2.312.23 3.931.461h.346c4.277.578 8.092 2.194 11.328 4.503l51.67 30.827 30.4-23.091 15.374 12.007s-39.764 39.718-43.578 40.641c-2.659.693-29.245-13.855-45.312-22.745.694 9.583 4.277 63.04 4.046 70.429h-73.863l-.116-33.713v-9.121l.578-25.055z" fill="#E8505B"/><path d="M295.798 144.437s-.115.577 0 1.732c0 1.27.116 2.886.116 4.849.116 4.041.462 9.698.693 15.817.347 6.235.694 11.777.925 15.818.116 1.963.231 3.464.347 4.849.116 1.155.231 1.732.231 1.732s.116-.577 0-1.732c0-1.27-.115-2.886-.115-4.849-.116-4.041-.463-9.698-.694-15.818-.347-6.234-.694-11.776-.925-15.817a189.98 189.98 0 00-.346-4.849c-.116-1.155-.232-1.732-.232-1.732zm66.35-.462c-.231.231 3.121 3.348 7.398 7.043 4.277 3.694 7.86 6.581 7.975 6.465.116-.115-3.236-3.232-7.513-7.042-2.081-1.848-4.046-3.464-5.548-4.734-1.272-1.155-2.197-1.848-2.312-1.732zm-3.468 2.54c-.116.115 3.237 3.348 7.513 7.158 2.197 1.848 4.162 3.579 5.549 4.734a272.687 272.687 0 002.427 1.847c.116-.115-.693-.923-2.08-2.193s-3.237-3.002-5.433-4.965c-2.196-1.847-4.161-3.579-5.549-4.734a31.818 31.818 0 00-2.427-1.847z" fill="#263238"/><path d="M219.277 96.984s-29.592 27.594-38.839 38.909c-4.277 5.08-5.201 12.7-1.734 18.358 2.659 4.502 7.745 7.158 13.062 6.812l35.602-2.425 2.659-29.557-21.5 6.696 24.968-26.208-14.218-12.585z" fill="#E8505B"/><path d="M227.021 181.96c-.115 0-.231-6.35-.115-14.201.115-7.851.347-14.201.462-14.201.116 0 .231 6.35.116 14.201-.116 7.967-.347 14.201-.463 14.201zm-8.9-56.343s-.347.462-.925 1.155a47.783 47.783 0 01-2.658 2.886c-2.197 2.425-5.433 5.888-9.016 9.699l.115-.116c-.347 1.27-.809 2.54-1.271 3.81-1.156 2.887-2.428 5.658-3.931 7.967-1.618 2.193-3.467 3.925-5.201 4.964a12.339 12.339 0 01-4.508 1.848c-.578.115-1.041.115-1.272.115h-.462l1.734-.346c1.04-.231 2.658-.808 4.392-1.963 1.734-1.155 3.468-2.771 4.971-4.965 1.502-2.193 2.774-4.964 3.814-7.851.463-1.27.925-2.54 1.272-3.81v-.115c3.583-3.81 6.82-7.159 9.131-9.583l2.775-2.771c.693-.693 1.04-.924 1.04-.924z" fill="#263238"/><path d="M203.903 143.859c.116 0 .809 2.425.463 5.542-.347 3.118-1.619 5.427-1.734 5.311-.116-.115.809-2.309 1.156-5.426.346-3.002-.116-5.427.115-5.427z" fill="#263238"/><path d="M237.656 236.918s-.116-.116-.116-.231c-.115-.231-.231-.462-.462-.693-.462-.693-.925-1.616-1.618-2.771-.694-1.154-1.619-2.655-2.428-4.503-.809-1.847-1.502-4.156-1.04-6.696.462-2.54 1.965-4.965 3.121-7.62.578-1.386.925-2.771.925-4.388 0-1.501-.116-3.117-.463-4.733-.693-3.233-1.965-6.581-2.196-10.161-.347-3.694.231-7.389 1.04-11.199.809-3.81 1.85-7.389 2.659-10.853.347-1.732.693-3.464.809-5.196 0-.808.116-1.731.116-2.54v-2.54c-.232-6.581-1.85-12.469-2.89-17.318-1.156-4.849-1.965-8.89-2.312-11.661-.231-1.386-.347-2.425-.347-3.233v-1.039s0 .115.116.231c0 .231.115.461.115.808.116.693.232 1.847.463 3.233.462 2.771 1.271 6.696 2.543 11.661 1.156 4.849 2.774 10.737 3.005 17.434v2.54c0 .808-.115 1.732-.115 2.54-.116 1.732-.463 3.464-.81 5.311-.693 3.579-1.733 7.158-2.658 10.853-.809 3.695-1.387 7.389-1.04 10.968.346 3.58 1.502 6.812 2.196 10.161.347 1.616.578 3.232.462 4.849 0 1.616-.462 3.117-1.04 4.503-1.156 2.771-2.659 5.08-3.121 7.504-.578 2.425.115 4.734.925 6.466.809 1.847 1.733 3.348 2.311 4.503.694 1.154 1.156 2.193 1.619 2.886.115.347.231.577.346.693-.115.115 0 .231-.115.231zm16.183-107.837s0 .116.115.231c0 .231.116.462.231.808.116.693.347 1.732.578 3.118.463 2.77.925 6.811 1.041 11.776a81.368 81.368 0 01-1.503 17.434c-1.156 6.466-3.121 13.509-3.699 21.129-.578 7.62.578 14.778 1.387 21.359.925 6.581 1.734 12.47 1.734 17.434 0 4.965-.578 9.006-1.387 11.777-.116.346-.116.693-.231.924a5.643 5.643 0 01-.347.808c-.231.462-.347.924-.462 1.27-.116.346-.232.577-.347.808l-.116.231s0-.115.116-.231c.115-.231.115-.462.231-.808.116-.346.231-.808.462-1.27.116-.231.116-.577.232-.808.115-.347.115-.578.231-.924.693-2.655 1.271-6.696 1.156-11.661-.116-4.965-.925-10.853-1.85-17.434-.925-6.466-2.08-13.74-1.503-21.475.578-7.62 2.543-14.663 3.699-21.129 1.272-6.465 1.619-12.354 1.619-17.318 0-4.965-.463-9.006-.809-11.777-.232-1.386-.347-2.425-.463-3.233 0-.346-.115-.577-.115-.808 0-.231-.116-.231 0-.231zm27.048 107.952s-.116-.115-.116-.23c-.115-.231-.231-.462-.462-.693-.231-.347-.347-.693-.578-1.27-.116-.231-.231-.578-.347-.808-.115-.347-.115-.693-.231-1.04-.347-1.385-.462-3.117-.347-5.195.116-2.078.463-4.388.925-6.812.462-2.54.925-5.311 1.04-8.198.116-3.001-.462-6.119-1.618-9.352-1.04-3.232-2.543-6.465-3.236-10.16-.694-3.694-.347-7.62.231-11.43.578-3.81 1.387-7.62 1.618-11.199.231-3.695-.231-7.159-.809-10.507-1.272-6.581-3.121-12.469-3.699-17.549-.694-5.081-.347-9.353.347-12.123.693-2.771 1.502-4.157 1.502-4.157s0 .116-.115.231a5.643 5.643 0 00-.347.808c-.231.693-.578 1.732-.925 3.118-.693 2.77-.924 6.927-.115 12.007.693 5.08 2.543 10.853 3.814 17.55.694 3.348 1.041 6.927.809 10.622-.231 3.694-1.04 7.504-1.618 11.314-.578 3.81-.925 7.621-.231 11.2.693 3.579 2.081 6.812 3.121 10.044.578 1.617 1.04 3.233 1.271 4.85.232 1.616.347 3.232.347 4.733-.115 3.002-.693 5.773-1.156 8.313-.462 2.54-.809 4.734-1.04 6.812-.116 1.963 0 3.81.231 5.196.925 2.54 1.85 3.81 1.734 3.925zm9.825-103.796s0 .116.116.231c.116.231.116.462.231.808.231.693.462 1.732.694 3.002.462 2.656.809 6.581.462 11.431-.231 4.849-1.156 10.506-2.081 16.741-.809 6.235-1.387 13.277-1.271 20.551.115 14.663 1.965 27.825 3.352 37.293.694 4.734 1.272 8.544 1.734 11.199.231 1.27.347 2.309.462 3.118 0 .346.116.577.116.808v.231s0-.116-.116-.231c0-.231-.115-.462-.115-.808-.116-.693-.347-1.732-.578-3.002-.463-2.656-1.156-6.466-1.85-11.2-1.502-9.467-3.352-22.629-3.467-37.408 0-7.389.462-14.316 1.387-20.667.924-6.35 1.849-11.892 2.196-16.741.347-4.734.115-8.659-.231-11.315-.232-1.27-.347-2.309-.578-3.002-.116-.346-.116-.577-.116-.808-.347-.115-.347-.231-.347-.231zm17.801 41.334s-.115-.462-.115-1.155c-.116-.808-.116-1.847-.231-3.232a832.857 832.857 0 01-.347-10.738c0-4.156.115-7.966.231-10.737.116-1.386.116-2.425.231-3.233.116-.808.116-1.155.116-1.155s.115.462.115 1.155v13.97c0 4.157.116 7.851.116 10.738v3.232c-.116.693-.116 1.155-.116 1.155zm11.213-26.093s-.231.346-.578 1.039a6.758 6.758 0 00-.694 3.002c0 1.385.231 2.886.463 4.734.231 1.731.578 3.694.924 5.772.347 2.079.232 4.157.116 5.889a13.555 13.555 0 01-1.156 4.733 12.946 12.946 0 01-1.734 2.771c-.462.578-.809.924-.809.809-.116-.116 1.156-1.27 2.196-3.81 1.041-2.425 1.272-6.351.809-10.392-.231-2.078-.578-4.041-.809-5.772-.115-1.848-.346-3.349-.346-4.85 0-1.385.462-2.54.924-3.117.347-.462.578-.808.694-.808zM195.118 159.1h1.503c1.04 0 2.427 0 4.161-.346 1.734-.347 3.468-1.617 4.971-3.349 1.502-1.732 3.121-3.81 4.739-5.888 3.352-4.272 6.473-8.082 8.669-10.853 1.041-1.27 1.965-2.425 2.659-3.233a22.665 22.665 0 011.04-1.154s-.231.461-.925 1.27c-.693.923-1.502 1.962-2.543 3.348-2.196 2.771-5.201 6.696-8.553 10.968-1.734 2.079-3.237 4.157-4.855 5.889-1.619 1.731-3.468 3.002-5.317 3.348-1.734.346-3.237.231-4.277.231a47.037 47.037 0 01-1.272-.231zm29.36-55.304s-.115.231-.231.693c-.231.461-.462 1.154-1.04 1.847-.925 1.616-2.659 3.695-5.086 5.773-2.543 2.078-5.78 4.272-9.247 6.696-3.468 2.54-7.051 5.658-9.363 10.045-1.156 2.194-2.081 4.387-3.352 6.35-1.388 1.963-3.121 3.464-4.855 4.734-1.734 1.27-3.584 2.309-5.086 3.348-1.503 1.039-2.89 2.194-3.93 3.464-2.081 2.425-2.428 5.311-2.197 7.043.347 1.732 1.041 2.54.925 2.54l-.115-.116a1.564 1.564 0 01-.347-.461c-.231-.462-.578-1.04-.694-1.963-.347-1.732 0-4.734 2.081-7.274 1.04-1.27 2.427-2.54 3.93-3.579 1.503-1.155 3.352-2.194 5.086-3.464 1.734-1.27 3.468-2.655 4.739-4.618 1.272-1.847 2.196-4.157 3.352-6.35 2.312-4.503 6.127-7.736 9.594-10.161 3.468-2.54 6.705-4.618 9.248-6.581 2.543-2.078 4.277-4.041 5.201-5.542.578-.692.81-1.385 1.041-1.731l.346-.693z" fill="#FAFAFA"/><path opacity=".3" d="M189.57 157.714c4.739.116 9.594-1.847 12.946-5.195 3.468-3.348 5.433-8.082 5.433-12.931 0-.578-.116-1.386-.694-1.617-.462-.231-1.156 0-1.387.462-.347.462-.462 1.039-.462 1.616-1.503 7.852-7.051 14.894-14.333 18.127m140.559-1.385c-.809.462-1.272 1.501-1.85 2.309-2.543 3.925-7.513 5.542-10.75 8.89-2.543 2.54-4.508 5.542-4.623 9.121l5.432 2.425c4.74-7.274 9.363-14.548 14.102-21.937 0-1.039-1.387-1.27-2.311-.808z" fill="#000"/><path d="M78.024 429.847s-18.957 4.041-9.132 27.132c9.826 23.092 3.93 29.442-2.89 31.058l52.132-.346 4.624-58.075-44.734.231z" fill="#E0E0E0"/><path d="M115.938 488.037c-3.699 0-7.282-1.27-10.056-3.81-4.277-3.81-9.594-10.853-10.635-22.976-2.196-25.862-17.223-31.404-17.223-31.404l44.734-.231s14.565 0 15.72 22.976c1.272 24.015 34.678 37.87 55.253 35.214l-77.793.231z" fill="#F5F5F5"/><path d="M182.634 389.899s-23.465-2.771-26.008 49.069c-2.543 51.84-41.844 49.069-41.844 49.069h78.256s16.298-3.579 12.483-40.294c-1.618-15.356 26.009-57.844 26.009-57.844h-48.896z" fill="#EBEBEB"/><path d="M169.573 395.787c-2.543 3.002-1.503 7.736.693 10.968 2.196 3.233 5.548 5.427 9.016 7.159 3.468 1.847 7.051 3.348 10.172 5.657 4.855 3.695 7.976 9.121 9.941 14.894 1.965 5.773 2.774 11.777 3.583 17.781 0 0-2.543-43.066-10.172-54.958-7.513-11.892-18.494-7.274-23.233-1.501z" fill="#E0E0E0"/><path d="M229.911 488.037s-23.118 1.155-26.355-25.631c-3.236-26.786-5.895-70.891-20.922-72.507h47.393c6.704 0 12.715 4.041 15.142 10.275 2.081 5.311 4.162 13.162 5.433 24.477 2.774 24.015 16.414 63.617 50.514 63.271l-71.205.115z" fill="#F5F5F5"/><path d="M245.401 465.985c0 .115-6.936.346-15.374.346-8.554 0-15.374-.115-15.374-.346 0-.116 6.936-.347 15.374-.347 8.554 0 15.374.116 15.374.347zm7.86 1.847c-.116-.115-.231-1.963-.231-4.503l.231.231h-4.508l.346-.346v4.503l-.231-.231c2.543.115 4.393.231 4.393.346.115.116-1.734.231-4.508.231h-.231v-4.734l.346-.346h4.74v.231c-.116 2.886-.232 4.618-.347 4.618zm-.694 8.082c0 .116-6.935.347-15.374.347-8.553 0-15.373-.116-15.373-.347 0-.115 6.935-.346 15.373-.346 8.439 0 15.374.115 15.374.346zm7.86 1.848c-.115-.116-.231-1.963-.231-4.503l.231.231h-4.508l.347-.347v4.503l-.231-.231c2.427.116 4.277.231 4.392.347.116.115-1.733.23-4.508.23h-.231v-4.733l.347-.347h4.739v.231c-.231 2.887-.347 4.734-.347 4.619zm-20.922-36.831c0 .115-6.935.346-15.373.346-8.554 0-15.374-.115-15.374-.346 0-.231 6.936-.347 15.374-.347s15.373.116 15.373.347zm7.861 1.847c-.116-.116-.232-1.963-.232-4.503l.232.231h-4.508l.346-.346v4.502l-.231-.23c2.428.115 4.277.23 4.393.346.115.115-1.734.231-4.508.231h-.232v-4.734l.347-.346h4.739v.231c-.115 2.886-.231 4.618-.346 4.618zm-9.595-15.01c0 .116-6.935.347-15.373.347-8.554 0-15.374-.116-15.374-.347 0-.23 6.936-.346 15.374-.346 8.438.116 15.373.231 15.373.346zm7.861 1.848c-.116-.116-.231-1.963-.231-4.503l.231.231h-4.508l.346-.346v4.502l-.231-.231c2.428.231 4.393.347 4.393.347.115.115-1.734.231-4.508.231h-.232v-4.734l.347-.346h4.74v.231c-.116 3.001-.232 4.733-.347 4.618zm-10.057-13.74c0 .116-6.935.347-15.373.347-8.554 0-15.374-.116-15.374-.347 0-.23 6.935-.346 15.374-.346 8.438 0 15.373.116 15.373.346zm7.861 1.848c-.116-.116-.232-1.963-.232-4.503l.232.231h-4.509l.347-.347v4.503l-.231-.231c2.428.116 4.277.231 4.393.347.115.115-1.734.231-4.509.231h-.231v-4.734l.347-.346h4.739v.23c-.115 2.887-.346 4.619-.346 4.619zm-11.097-12.931c0 .115-6.936.346-15.374.346-8.554 0-15.374-.115-15.374-.346 0-.116 6.936-.347 15.374-.347 8.554.116 15.374.231 15.374.347zm7.86 1.962c-.116-.115-.231-1.962-.231-4.502l.231.231h-4.508l.347-.347v4.503l-.231-.231c2.543.116 4.392.231 4.392.346.116.116-1.734.231-4.508.231h-.231v-4.733l.347-.347h4.739v.231c-.116 2.887-.231 4.618-.347 4.618zm-13.178-11.083c0 .115-6.935.346-15.373.346-8.554 0-15.374-.115-15.374-.346 0-.116 6.936-.347 15.374-.347s15.373.116 15.373.347zm7.861 1.847c-.116-.116-.231-1.963-.231-4.503l.231.231h-4.508l.346-.346v4.502l-.231-.23c2.428.115 4.277.23 4.393.346.115.115-1.734.231-4.508.231h-.232v-4.734l.347-.346h4.739v.231c-.115 2.886-.231 4.733-.346 4.618z" fill="#263238"/><path d="M237.771 419.225c-.115-.116.81-1.501 2.081-3.002.231-.346.462-.577.809-.924l.231-.231.232.231c1.04.924 1.734 1.732 1.618 1.848-.116.115-.925-.462-2.081-1.386h.463c-.232.346-.463.577-.694.924-1.387 1.385-2.543 2.54-2.659 2.54zm2.428 11.43c-.116-.115.809-1.501 2.081-3.002.231-.346.462-.577.809-.924l.231-.23.231.23c1.04.924 1.734 1.732 1.618 1.848-.115.115-.924-.462-2.08-1.386h.462c-.231.347-.462.578-.693.924-1.388 1.385-2.543 2.54-2.659 2.54zm6.704 39.024c-.115-.115.809-1.501 2.081-3.001.231-.347.462-.578.809-.924l.231-.231.231.231c1.041.924 1.734 1.732 1.619 1.847-.116.116-.925-.462-2.081-1.385h.462c-.231.346-.462.577-.693.923-1.387 1.501-2.543 2.656-2.659 2.54zm-5.086-25.862c-.115-.115.809-1.501 2.081-3.002.231-.346.462-.577.809-.923l.231-.231.231.231c1.041.923 1.734 1.731 1.619 1.847-.116.115-.925-.462-2.081-1.386h.462c-.231.347-.462.578-.693.924-1.387 1.386-2.428 2.54-2.659 2.54z" fill="#E8505B"/><path d="M242.511 453.4c0 .116-6.936.346-15.374.346-8.554 0-15.374-.115-15.374-.346 0-.231 6.936-.346 15.374-.346s15.374.231 15.374.346zm7.86 1.847c-.116-.115-.231-1.962-.231-4.502l.231.23h-4.508l.347-.346v4.503l-.231-.231c2.427.231 4.276.346 4.392.346.116.116-1.734.231-4.508.231h-.231v-4.733l.347-.347h4.739v.231c-.231 3.002-.347 4.734-.347 4.618z" fill="#263238"/><path d="M244.245 456.864c-.116-.116.809-1.501 2.08-3.002.231-.347.463-.577.809-.924l.232-.231.231.231c1.04.924 1.734 1.732 1.618 1.847-.116.116-.925-.461-2.081-1.385h.463c-.231.346-.463.577-.694.924-1.387 1.385-2.543 2.655-2.658 2.54z" fill="#E8505B"/><path d="M114.204 472.913c0-.116 6.242-.347 13.987-.347s13.986.116 13.986.347c0 .115-6.241.346-13.986.346-7.745 0-13.987-.116-13.987-.346zm-7.166-1.732c.115.115.231 1.732.231 4.156l-.231-.231h4.161l-.347.347v-4.041l.231.23c-2.311-.23-3.93-.346-4.045-.461-.116-.116 1.502-.231 4.161-.231h.231v4.272l-.347.346h-4.392v-.231c.116-2.54.347-4.156.347-4.156z" fill="#263238"/><path d="M112.586 469.795c.116.116-.693 1.386-1.849 2.771-.232.231-.463.577-.694.808l-.231.231-.231-.231c-.925-.923-1.619-1.616-1.503-1.616.116-.116.809.462 1.849 1.27h-.462c.231-.346.463-.577.694-.808 1.271-1.386 2.312-2.54 2.427-2.425z" fill="#E8505B"/><path d="M108.656 464.715c0-.115 6.242-.346 13.986-.346 7.745 0 13.987.115 13.987.346 0 .115-6.242.346-13.987.346-7.744 0-13.986-.231-13.986-.346zm-7.167-1.732c.116.116.231 1.732.231 4.157l-.231-.231h4.162l-.347.346v-4.041l.231.231c-2.312-.231-3.93-.346-4.046-.462-.115-.115 1.503-.231 4.162-.231h.231v4.272l-.347.346h-4.393v-.23c.116-2.656.232-4.157.347-4.157z" fill="#263238"/><path d="M107.038 461.598c.115.115-.694 1.385-1.85 2.771-.231.231-.462.577-.693.808l-.232.231-.231-.231c-.924-.924-1.618-1.617-1.502-1.617.115-.115.809.462 1.849 1.27h-.462c.231-.346.462-.577.693-.808 1.272-1.501 2.312-2.54 2.428-2.424z" fill="#E8505B"/><path d="M106.691 455.478c0-.115 6.242-.346 13.986-.346 7.745 0 13.987.116 13.987.346 0 .231-6.242.347-13.987.347-7.629-.116-13.986-.231-13.986-.347zm-7.167-1.731c.116.115.231 1.731.231 4.156l-.23-.231h4.16l-.346.346v-4.041l.231.231c-2.196-.231-3.93-.346-4.046-.461-.115-.116 1.503-.231 4.161-.231h.232v4.272l-.347.346h-4.393v-.231c.232-2.656.347-4.272.347-4.156z" fill="#263238"/><path d="M105.188 452.361c.116.115-.693 1.386-1.849 2.771-.231.231-.463.577-.694.808l-.231.231-.231-.231c-.925-.923-1.619-1.616-1.503-1.616.116-.116.809.462 1.85 1.27h-.463c.231-.347.463-.577.694-.808 1.156-1.501 2.312-2.54 2.427-2.425z" fill="#E8505B"/><path d="M104.726 446.011c0-.116 6.242-.346 13.986-.346 7.745 0 13.987.115 13.987.346 0 .115-6.242.346-13.987.346-7.744-.115-13.986-.231-13.986-.346zm-7.166-1.732c.115.115.23 1.732.23 4.156l-.23-.23h4.16l-.346.346v-4.041l.231.231c-2.312-.231-4.046-.462-4.046-.462-.115-.115 1.503-.231 4.161-.231h.232v4.272l-.347.346h-4.393v-.231c.116-2.655.232-4.271.347-4.156z" fill="#263238"/><path d="M103.108 442.894c.115.115-.694 1.385-1.85 2.77-.231.231-.462.578-.693.809l-.232.231-.231-.231c-.925-.924-1.618-1.617-1.502-1.617.115-.115.809.462 1.849 1.27h-.462c.231-.346.462-.577.693-.808 1.272-1.501 2.312-2.54 2.428-2.424z" fill="#E8505B"/><path d="M99.409 436.659c0-.116 6.242-.347 13.986-.347 7.745 0 13.987.116 13.987.347 0 .231-6.242.346-13.987.346-7.744-.115-13.986-.231-13.986-.346zm-7.167-1.732c.115.115.231 1.732.231 4.156l-.231-.23h4.161l-.347.346v-4.041l.232.231c-2.312-.231-3.93-.462-4.046-.462-.116-.115 1.503-.231 4.161-.231h.231v4.272l-.346.346h-4.392v-.231c.115-2.655.23-4.271.346-4.156z" fill="#263238"/><path d="M97.79 433.541c.116.116-.693 1.386-1.85 2.771-.23.231-.462.578-.693.809l-.23.231-.232-.231c-.925-.924-1.618-1.617-1.503-1.617.116-.115.81.462 1.85 1.27h-.463c.231-.346.463-.577.694-.808 1.271-1.501 2.312-2.54 2.427-2.425z" fill="#E8505B"/><path d="M181.825 389.899h3.699c2.428 0 6.011 0 10.288-.116h35.371c2.427-.346 4.97.231 7.282 1.386 2.312 1.154 4.277 3.002 5.78 5.195 2.543 3.695 3.699 8.082 4.508 12.239.809 4.156 1.387 8.082 1.965 11.892 1.04 7.62 1.618 14.548 2.89 20.205a60.162 60.162 0 004.508 12.931c.693 1.501 1.387 2.54 1.734 3.348.231.347.346.578.462.809.115.231.115.346.115.346l-.231-.231c-.115-.231-.346-.462-.578-.808a31.574 31.574 0 01-1.849-3.233c-1.503-2.886-3.352-7.274-4.739-12.931-1.272-5.657-1.965-12.585-3.006-20.205-.462-3.81-1.156-7.851-1.965-11.892-.809-4.041-1.965-8.313-4.508-12.008-1.387-2.078-3.352-3.81-5.548-4.964-2.197-1.155-4.624-1.617-6.936-1.386-14.217-.115-26.47-.115-35.371-.231-4.392 0-7.86-.115-10.287-.115h-3.468c0-.231-.116-.231-.116-.231z" fill="#263238"/><path d="M66.118 488.037s.347 0 1.04-.23a10.708 10.708 0 002.66-1.271c1.04-.808 2.195-1.962 3.005-3.694.809-1.732 1.271-3.926 1.271-6.466s-.347-5.311-1.156-8.197c-.809-2.887-2.08-6.004-3.468-9.237-.693-1.616-1.271-3.348-1.85-5.195a42.234 42.234 0 01-1.386-5.773c-.578-4.041-.116-8.544 2.312-12.47 1.156-1.962 2.89-3.694 5.086-4.733.578-.231 1.04-.462 1.734-.693.346-.116.578-.116.924-.231l.925-.115c1.272-.231 2.543.115 3.583.692 2.197 1.155 3.93 3.118 5.549 5.08 1.618 2.079 2.89 4.272 4.161 6.581 1.272 2.31 2.312 4.85 3.237 7.39a23.02 23.02 0 011.04 4.041c.231 1.385.347 2.771.578 4.156.347 2.771.809 5.542 1.503 8.313.693 2.771 1.618 5.542 2.543 8.313.462 1.386 1.04 2.771 1.849 4.041.809 1.27 1.734 2.309 2.89 3.348 1.156 1.039 2.312 1.848 3.699 2.656 1.271.808 2.658 1.501 4.045 2.078 1.388.577 2.89.808 4.509.924 1.502 0 3.12-.116 4.623-.347 3.121-.231 6.242-.808 9.247-1.962 3.006-1.04 5.78-2.771 8.439-4.619 2.658-1.847 4.854-4.272 6.82-6.927 3.814-5.311 6.588-11.661 8.438-18.127.809-3.002 1.387-5.888 1.734-8.89.346-3.002.578-6.004.809-9.006.462-6.004 1.04-11.776 2.312-17.549a87.327 87.327 0 012.08-8.313c.809-2.771 1.618-5.427 2.89-7.967 1.156-2.54 2.659-4.964 4.392-7.043 1.85-2.078 3.815-3.925 6.358-5.195 2.081-1.155 4.392-1.963 6.82-1.963 2.427 0 4.739.924 6.473 2.425s3.005 3.463 3.93 5.542c.925 1.962 1.734 4.156 2.428 6.119 2.774 8.197 4.392 16.395 5.548 24.015 1.04 7.736 1.618 15.009 2.081 21.821.462 6.812 1.155 13.047 2.889 18.473 1.619 5.427 4.277 9.93 7.283 13.163 3.005 3.232 6.473 5.08 9.362 6.003 2.89.924 5.318 1.039 6.936.924.809-.115 1.387-.115 1.849-.231.347-.115.578-.115.578-.115s-.231 0-.578.115c-.346.116-1.04.231-1.849.231a18.916 18.916 0 01-7.051-.808c-3.005-.924-6.473-2.771-9.594-6.004-3.121-3.233-5.78-7.736-7.514-13.162-1.733-5.427-2.543-11.777-3.005-18.473-.462-6.812-1.04-14.086-2.196-21.822-1.156-7.735-2.774-15.817-5.549-24.015-.693-2.078-1.387-4.156-2.311-6.119-.925-1.963-2.197-3.926-3.815-5.311-1.618-1.501-3.814-2.309-6.126-2.309-2.312 0-4.508.693-6.473 1.847-2.312 1.155-4.393 3.002-6.127 5.08-1.734 2.079-3.236 4.388-4.392 6.928-1.156 2.54-1.965 5.195-2.774 7.966a108.808 108.808 0 00-2.081 8.313c-1.156 5.658-1.734 11.546-2.196 17.434-.232 3.002-.463 6.004-.809 9.006-.347 3.002-1.041 6.004-1.734 9.006-1.85 6.581-4.624 12.931-8.554 18.357-1.965 2.656-4.277 5.196-6.936 7.043-2.658 1.963-5.548 3.579-8.553 4.734-3.006 1.154-6.242 1.616-9.479 1.963-1.618.115-3.121.231-4.739.346a12.22 12.22 0 01-4.624-.924 23.322 23.322 0 01-4.161-2.078 42.934 42.934 0 01-3.699-2.655c-1.156-1.04-2.196-2.194-3.005-3.464-.81-1.27-1.387-2.771-1.85-4.157-1.04-2.771-1.85-5.542-2.543-8.428-.693-2.771-1.156-5.657-1.503-8.428-.346-5.658-2.427-10.738-4.739-15.356-1.271-2.309-2.543-4.503-4.045-6.466-1.503-1.963-3.237-3.81-5.318-4.964-2.08-1.27-4.623-.693-6.704.231-2.08 1.039-3.699 2.655-4.855 4.502-2.312 3.81-2.774 8.198-2.312 12.123.232 1.963.81 3.926 1.387 5.658.578 1.847 1.156 3.579 1.85 5.195 1.387 3.233 2.659 6.35 3.468 9.352.809 3.002 1.156 5.773 1.156 8.313 0 2.54-.463 4.734-1.272 6.466-.809 1.732-2.08 3.002-3.12 3.694-1.041.809-2.082 1.04-2.66 1.271-1.271.23-1.618.23-1.618.23z" fill="#263238"/><path d="M147.263 471.412s-.115 0-.231-.116c-.115-.115-.347-.231-.578-.462-.462-.462-1.156-1.039-2.08-1.963-.809-.923-1.85-2.078-2.89-3.463-1.04-1.501-2.081-3.118-2.89-5.311-.693-2.079-1.156-4.503-1.618-7.043-.463-2.54-.694-5.311-1.272-8.198-.462-2.886-1.271-5.888-2.774-8.659a14.62 14.62 0 00-2.774-3.81c-.578-.577-1.156-1.155-1.85-1.385-.693-.347-1.502-.578-2.311-.693-3.237-.577-6.589-.577-9.71-.462-3.121 0-6.242.231-9.132.231-5.895 0-11.097.115-15.489.115H77.215s.347 0 1.04-.115c.694 0 1.619 0 2.89-.116 2.543 0 6.127-.115 10.519-.23 4.392-.116 9.71-.116 15.489-.231 2.89 0 6.011-.231 9.132-.231 3.237 0 6.473-.116 9.941.462.809.23 1.734.346 2.427.692.347.116.809.462 1.156.693.347.231.578.577.925.808 1.156 1.155 2.081 2.54 2.89 4.041 1.502 2.887 2.312 5.889 2.774 8.775.462 2.886.809 5.657 1.156 8.197.347 2.54.809 4.965 1.502 7.043.694 2.078 1.734 3.81 2.775 5.196 1.04 1.385 1.965 2.655 2.774 3.579.809.924 1.503 1.616 1.965 2.078.462.347.693.578.693.578z" fill="#263238"/><path d="M390.121 122.385c0-2.771 1.734-5.427 4.161-6.697.347-.231.809-.346 1.272-.346.462 0 .925.231 1.04.693.116.461 0 .923-.347 1.27-.346.346-.693.577-1.156.923-1.156.924-1.733 2.54-1.387 4.041" fill="#B78876"/><path d="M368.39 72.853c-10.981.809-19.188 10.392-18.495 21.36 1.041 15.587.694 36.715-6.704 49.647-12.946 22.283-32.25 26.208-30.747 70.89 1.502 44.567 3.467 49.3-5.433 60.846-8.901 11.546-28.32 5.542-36.758 31.866-8.438 26.209-2.428 157.599-15.836 171.454 0 0-10.866 10.391-22.309 9.468h64.153c5.433 0 10.75-1.963 14.68-5.773 2.774-2.771 5.086-6.697 5.086-12.008 0-9.005 3.005-136.816 7.976-147.669 4.97-10.853 30.747-22.053 34.677-47.222 3.93-25.17 2.543-65.926 2.543-73.2 0-6.928 1.387-20.552 14.68-36.369 20.113-23.9 17.339-50.109 17.917-58.999.462-8.89-3.468-35.791-3.468-35.791l-21.962 1.5z" fill="#EBEBEB"/><path d="M351.629 90.865c.578-2.31 2.659-4.041 4.97-4.503 2.312-.346 4.855.693 6.127 2.656 1.849 2.77 1.502 6.927 4.045 9.12 1.619 1.386 4.046 1.501 6.127 1.501 6.82-.115 13.524-.923 20.113-2.54l-1.503-21.128s-32.134-2.771-35.949 2.424c-3.93 5.427-3.93 12.47-3.93 12.47z" fill="#E0E0E0"/><path d="M350.126 101.718c0-4.734 1.041-8.89 2.197-13.624 1.387-5.542 5.201-9.699 9.94-10.391 6.011-.809 11.906 7.735 11.906 7.735s23.234-3.348 34.331-4.156c-.809-2.887-6.589-10.276-10.75-11.2-4.161-.923-8.438-.808-12.715-.692-7.629.23-15.489.462-22.425 3.81-6.935 3.233-13.986 8.082-12.368 25.747" fill="#F5F5F5"/><path d="M395.323 70.66s-.463.115-1.156.115c-.925.116-1.965.116-3.121.231-2.659.231-6.358.462-10.403.924-4.046.461-7.745.923-10.288 1.385-1.156.231-2.196.462-3.121.578-.694.115-1.156.23-1.156.23s.347-.115 1.156-.346c.693-.23 1.734-.462 3.121-.693 2.658-.577 6.242-1.039 10.288-1.5 4.045-.463 7.744-.693 10.403-.809 1.271 0 2.312-.115 3.121-.115h1.156zm-71.898 253.544c0 .115-9.826 1.731-21.963 3.579-12.137 1.847-22.078 3.117-22.078 3.002 0-.116 9.826-1.732 21.963-3.58 12.137-1.847 21.962-3.117 22.078-3.001zm2.312-4.85c0 .116-9.017.347-20.229.462-11.212.116-20.228 0-20.228-.231s9.016-.346 20.228-.461c11.097 0 20.229.115 20.229.23z" fill="#263238"/><path d="M234.882 488.499s.346-.115 1.156-.115c.693-.116 1.849-.231 3.236-.693 2.774-.808 6.82-2.425 11.213-5.542a37.903 37.903 0 003.352-2.655c1.156-1.04 1.965-2.425 2.543-3.926 1.271-3.117 2.08-6.581 2.774-10.391 1.387-7.62 2.196-16.511 2.89-26.324 1.387-19.513 1.965-42.95 2.658-68.813.463-12.931.809-26.555 1.965-40.641.232-3.463.578-7.043 1.041-10.622.462-3.579 1.04-7.158 2.08-10.737.578-1.732 1.272-3.464 1.965-5.196l1.272-2.54.578-1.27c.231-.346.462-.808.809-1.154 1.849-3.233 4.508-6.004 7.513-8.313 3.006-2.31 6.474-3.81 9.941-5.196 3.468-1.385 6.936-2.656 9.941-4.503l1.156-.693c.347-.23.694-.577 1.04-.808l1.041-.808.924-1.039c.347-.346.578-.693.925-1.039l.809-1.039c.578-.693 1.041-1.501 1.503-2.194 1.04-1.501 1.734-3.117 2.427-4.734.578-1.616 1.041-3.348 1.272-5.08.578-3.464.578-6.927.578-10.391 0-3.464-.116-6.927-.231-10.276-.231-6.812-.578-13.393-.809-19.858-.116-3.233-.232-6.466-.232-9.583v-4.734c0-1.616.116-3.117.232-4.618.115-3.118.578-6.119.924-9.006.578-2.886 1.156-5.773 2.081-8.544a56.583 56.583 0 017.282-15.009c3.006-4.388 6.473-8.313 9.71-12.008 3.236-3.694 6.126-7.389 8.554-11.084l1.734-2.771c.577-.923 1.04-1.847 1.502-2.771.925-1.847 1.619-3.694 2.196-5.541 2.428-7.39 3.121-14.086 3.468-19.628.347-5.427.347-9.699.347-12.585 0-1.385 0-2.54-.116-3.233V99.64s.116 1.501.232 4.387c.115 2.886.115 7.158-.232 12.585-.346 5.426-1.04 12.238-3.352 19.628-.578 1.847-1.387 3.694-2.196 5.657-.462.924-.925 1.847-1.503 2.771l-1.734 2.771c-2.427 3.695-5.317 7.389-8.553 11.084-3.237 3.694-6.589 7.62-9.594 12.007-3.006 4.388-5.549 9.352-7.283 14.894-.924 2.771-1.387 5.658-2.08 8.544-.347 3.002-.925 5.888-.925 9.006-.116 1.501-.231 3.117-.231 4.618v4.734c0 3.117.231 6.35.231 9.583.231 6.465.578 13.162.809 19.858.116 3.349.231 6.812.231 10.276 0 3.464 0 7.043-.578 10.507-.231 1.731-.693 3.463-1.271 5.195-.694 1.617-1.503 3.348-2.428 4.849-.462.809-1.04 1.501-1.502 2.194l-.809 1.039c-.347.347-.578.693-.925 1.039l-.925 1.039-1.04.924c-.347.231-.694.577-1.041.808l-1.155.693c-3.121 1.963-6.705 3.117-10.057 4.503-3.468 1.385-6.82 3.002-9.825 5.195-3.006 2.194-5.549 4.965-7.398 8.082-.231.347-.462.809-.694 1.155l-.578 1.27-1.271 2.425a89.125 89.125 0 00-1.85 5.08c-1.04 3.463-1.502 7.043-1.965 10.622a165.199 165.199 0 00-1.04 10.622c-1.04 14.086-1.503 27.71-1.965 40.641-.809 25.862-1.387 49.3-2.89 68.812-.693 9.814-1.618 18.589-3.005 26.324-.694 3.81-1.503 7.39-2.89 10.507-.693 1.501-1.503 3.002-2.659 4.041-1.155 1.039-2.311 1.847-3.467 2.656-4.508 3.232-8.554 4.733-11.328 5.541-1.387.347-2.543.578-3.237.578-.925 0-1.271.115-1.271.115z" fill="#263238"/><path d="M350.242 99.524s0-.462-.116-1.5c-.115-.924-.115-2.425-.231-4.273 0-.923 0-1.963.116-3.117.115-1.155.462-2.425.693-3.81.578-2.656 1.85-5.773 4.277-8.428 2.428-2.656 6.127-4.619 10.172-6.235 4.162-1.501 8.785-2.54 13.987-2.887a88.255 88.255 0 017.976-.346c2.774 0 5.548.115 8.438.924 1.387.346 2.774.923 4.161 1.5 1.387.693 2.659 1.501 3.815 2.54 1.156 1.04 2.311 2.079 3.236 3.349.463.693.925 1.27 1.272 2.078.346.693.693 1.501.693 2.425v.23h-.231c-5.202.462-10.75 1.617-16.53 2.31l.232-.231c.693 5.657 1.387 11.546 1.733 17.549.116 1.501.116 3.118.116 4.619 0 1.616-.116 3.117-.116 4.618 0 3.117-.115 6.35-.231 9.583-.462 6.465-1.387 13.047-3.352 19.628a72.081 72.081 0 01-8.785 18.935c-3.814 6.003-9.131 11.199-12.715 17.664-3.699 6.351-6.473 13.509-7.167 21.014-.462 3.81-.231 7.62-.115 11.545 0 3.926.115 7.736.115 11.662 0 7.851.001 15.817-.231 23.899-.346 9.237-.809 18.473-1.965 27.364-.462 4.502-1.502 8.89-3.236 13.046-1.734 4.157-4.162 7.967-6.82 11.43-5.433 6.928-12.137 12.47-18.379 18.127-.809.693-1.503 1.501-2.196 2.194-.694.808-1.388 1.501-2.081 2.309l-.925 1.27c-.347.346-.578.808-.809 1.27l-.694 1.27c-.231.462-.346.924-.462 1.386-.925 3.925-1.387 8.082-1.734 12.007-1.502 15.933-2.312 31.289-3.005 45.49-.694 14.317-1.156 27.594-1.618 39.717-.463 12.123-.694 23.092-.925 32.79-.116 4.849-.231 9.352-.347 13.393-.116 2.079 0 4.041-.347 5.889-.346 1.847-.924 3.579-1.849 5.08a18.679 18.679 0 01-6.242 6.465c-2.196 1.386-4.393 2.194-6.126 2.54-1.734.462-3.121.578-4.046.578h-1.387 1.387c.925-.116 2.312-.231 4.046-.693 1.733-.462 3.814-1.155 6.01-2.656 2.197-1.385 4.508-3.463 6.127-6.465.809-1.501 1.502-3.118 1.734-4.965.346-1.847.231-3.81.231-5.888.115-4.157.115-8.659.231-13.509.231-9.698.462-20.666.925-32.789.346-12.123.809-25.401 1.502-39.718.694-14.316 1.387-29.557 2.89-45.49.462-4.041.809-8.082 1.85-12.123.231-.462.346-1.039.578-1.501l.809-1.385c.231-.462.578-.924.924-1.27l.925-1.27c.694-.808 1.387-1.501 2.081-2.309.809-.693 1.502-1.501 2.312-2.194 6.242-5.657 12.946-11.199 18.263-18.011 2.659-3.464 4.97-7.159 6.704-11.315a49.148 49.148 0 003.121-12.931c1.156-8.891 1.619-18.127 1.965-27.364.232-7.966.347-15.933.232-23.784 0-3.925-.116-7.851-.116-11.661 0-3.81-.231-7.736.116-11.546.809-7.62 3.467-14.894 7.282-21.359 3.583-6.581 8.9-11.662 12.715-17.665 3.93-5.889 6.82-12.354 8.669-18.82 1.965-6.465 2.89-13.046 3.352-19.512.232-3.233.232-6.35.232-9.583 0-1.616.115-3.117.115-4.618 0-1.501 0-3.118-.115-4.619-.347-6.119-1.041-11.892-1.734-17.55v-.23h.231c5.779-.693 11.328-1.847 16.645-2.31l-.231.232c-.116-1.501-1.04-2.887-1.965-4.157s-2.081-2.309-3.237-3.348c-1.156-.924-2.427-1.847-3.699-2.54-1.387-.577-2.774-1.154-4.161-1.5-2.774-.81-5.548-.925-8.323-.925-2.774 0-5.317.116-7.86.347-5.086.462-9.825 1.385-13.871 2.886-4.045 1.617-7.629 3.58-10.056 6.12-2.428 2.655-3.699 5.657-4.277 8.312-.231 1.386-.578 2.54-.694 3.695-.115 1.155-.231 2.194-.115 3.117.115 1.848.115 3.349.231 4.272v1.732z" fill="#263238"/><path d="M408.5 81.513s-.231.115-.694.115c-.462.116-1.155.116-1.849.231-1.734.231-4.046.577-6.935.924-5.896.692-13.987 1.732-23.003 2.77-.578.116-1.272.116-1.85.232h-.231l-.115-.116c-1.156-1.732-2.428-3.464-3.815-4.85-1.387-1.385-3.121-2.424-4.855-2.77-1.734-.346-3.583-.23-5.086.346-1.502.462-2.774 1.386-3.699 2.31-1.965 1.962-2.889 4.04-3.467 5.426-.232.693-.463 1.27-.578 1.616-.116.347-.232.578-.232.578s0-.231.116-.578c.116-.346.231-.923.462-1.731.463-1.501 1.387-3.58 3.353-5.658.924-1.039 2.311-1.963 3.93-2.54 1.618-.577 3.467-.693 5.317-.346 1.849.346 3.699 1.5 5.086 2.886 1.503 1.386 2.774 3.117 3.93 4.965l-.231-.116c.578-.115 1.156-.115 1.849-.23 8.901-1.04 16.992-1.963 23.003-2.656 2.89-.346 5.202-.577 6.935-.693.81-.115 1.388-.115 1.85-.115h.809z" fill="#263238"/><path d="M393.704 124.463c0 .577-.346 1.154-.924 1.27l-6.936 2.655c-1.04.347-2.427.693-3.121-.231-.462-.577-.231-1.501.231-2.078.463-.577 1.272-.923 1.965-1.154 2.659-1.155 5.549-2.194 8.323-3.349.231-.115.578.116.578.347l-.116 2.54z" fill="#B78876"/><path d="M393.936 126.772c.346 1.386-.463 2.886-1.85 3.348a289.612 289.612 0 01-6.473 2.425c-1.04.346-2.427.693-3.121-.231-.462-.577-.231-1.501.231-2.078.463-.578 1.272-.924 1.965-1.155 2.543-1.039 5.317-2.078 7.976-3.233.462-.231 1.04.116 1.156.578l.116.346zm-1.156 3.464c.462 2.078-.578 4.156-2.659 4.964-1.849.693-3.815 1.501-5.317 2.078-1.041.347-2.428.693-3.121-.23-.463-.578-.231-1.501.231-2.079.462-.577 1.272-.923 1.965-1.154 2.89-1.155 6.011-2.425 8.901-3.579z" fill="#B78876"/><path d="M364.46 184.962c0 .116-8.439 3.233-18.957 7.043-10.519 3.695-19.189 6.581-19.189 6.466 0-.116 8.439-3.233 18.957-7.043 10.519-3.695 19.073-6.581 19.189-6.466zm-4.624 4.619c0 .115-1.156.923-3.121 2.193s-4.624 3.002-7.745 4.85c-3.005 1.847-5.895 3.348-7.975 4.502-2.081 1.04-3.353 1.732-3.353 1.617 0-.116 1.156-.808 3.237-1.963 2.196-1.27 4.855-2.886 7.86-4.618 3.006-1.732 5.664-3.348 7.86-4.618 1.966-1.27 3.237-2.079 3.237-1.963zM181.71 47.915V49.3c0 .923 0 2.308.115 3.925 0 3.348.116 8.082.116 13.624l-.231-.231h18.957l-.347.346v-18.82l.231.232c-5.548 0-10.288-.116-13.64-.116-1.618 0-2.889 0-3.93-.115h-1.04c-.116-.231-.231-.231-.231-.231s.462 0 1.271-.116c.925 0 2.196 0 3.815-.115 3.467 0 8.207-.116 13.871-.116h.231V66.62l-.347.346h-19.188v-.23c0-5.658.116-10.392.116-13.856 0-1.616 0-2.886.115-3.81.116-.692.116-1.154.116-1.154z" fill="#263238"/><path d="M204.597 43.643c.347.346-3.584 5.888-9.016 12.354-1.156 1.385-2.197 2.655-3.237 3.81l-.578.692-.693-.577c-4.393-4.04-7.398-7.043-7.167-7.39.231-.345 3.699 2.195 8.322 6.005l-1.271.115c.925-1.27 1.965-2.54 3.121-3.925 5.548-6.35 10.172-11.315 10.519-11.084z" fill="#E8505B"/><path d="M193.153 29.788h-2.89c-.346 0-.809.115-1.271.115-.462.116-.925.116-1.387.231-.463.116-1.04.231-1.618.347a28.501 28.501 0 00-7.745 3.348 26.502 26.502 0 00-7.976 7.735 27.808 27.808 0 00-4.508 12.7c0 1.27-.231 2.425-.116 3.695 0 .578 0 1.27.116 1.963.116.693.231 1.27.347 1.963.578 2.54 1.271 5.196 2.543 7.62 1.271 2.425 2.89 4.734 4.97 6.812 2.081 2.078 4.508 3.81 7.167 5.196a25.089 25.089 0 008.785 2.655c.809.116 1.503.116 2.312.231.809 0 1.618.115 2.312 0 1.618-.115 3.121-.23 4.739-.577a26.92 26.92 0 009.363-3.926h-.231c3.236 1.27 6.473 2.54 9.594 3.81l.578.231-.116-.577c-.925-3.464-1.849-6.927-2.774-10.16v.23c2.658-3.579 4.392-7.62 5.086-11.66.347-1.963.462-4.042.347-6.004 0-.924-.116-1.963-.232-2.887-.115-.462-.115-.923-.231-1.385l-.347-1.386c-1.849-7.158-6.241-12.47-10.634-15.586-2.196-1.501-4.392-2.656-6.357-3.349-.463-.23-.925-.346-1.388-.461l-1.387-.347c-.462-.115-.809-.23-1.271-.346-.347-.116-.809-.116-1.156-.116-.694-.115-1.387-.23-1.965-.23h-2.196c-.347.115-.463.115-.463.115h.347c.231 0 .462 0 .809.115.347 0 .809 0 1.387.116.578 0 1.156.23 1.85.23 2.774.463 7.051 1.617 11.328 4.734 4.277 3.002 8.669 8.313 10.403 15.356l.347 1.386c.115.462.115.923.231 1.385.231.924.231 1.848.231 2.771.116 1.963 0 3.926-.347 5.888-.693 3.926-2.427 7.967-5.086 11.43l-.115.116v.116c.924 3.348 1.849 6.696 2.774 10.275l.462-.346a831.395 831.395 0 00-9.594-3.81l-.115-.116-.116.116c-2.774 1.847-5.895 3.117-9.132 3.81-1.502.346-3.121.577-4.623.577h-2.312c-.809 0-1.503 0-2.312-.23-3.005-.347-5.895-1.27-8.554-2.656-2.658-1.27-4.97-3.002-7.051-4.965-1.965-2.078-3.583-4.272-4.855-6.696-1.271-2.425-2.08-4.965-2.543-7.39-.115-.577-.231-1.27-.347-1.847-.115-.577-.115-1.27-.115-1.847-.116-1.27 0-2.425 0-3.695.462-4.85 2.196-9.121 4.392-12.47 2.312-3.463 5.086-6.003 7.861-7.735 2.774-1.847 5.432-2.77 7.629-3.464a8.524 8.524 0 001.618-.461c.462-.116.925-.116 1.387-.231.462-.116.809-.116 1.156-.231.347 0 .693 0 1.04-.116.578 0 1.041-.115 1.387-.115h.578z" fill="#455A64"/></g><defs><clipPath id="clip0_3_2514"><path fill="#fff" d="M0 0h516v490H0z"/></clipPath></defs></svg>