<svg width="22" height="22" fill="none" xmlns="http://www.w3.org/2000/svg"><path fill-rule="evenodd" clip-rule="evenodd" d="M13.252.049c-.1.032-.274.128-.388.212-.114.084-1.727 1.675-3.586 3.534l-3.38 3.38h7.584l1.611-1.71 1.91-2.024.299-.316-1.44-1.442C14.822.641 14.363.21 14.207.13a1.416 1.416 0 00-.956-.081zm3.861 5.154l-1.478 1.569-.38.403 1.004-.003 1.005-.004.969-1.032a44.38 44.38 0 00.98-1.063c.005-.016-.217-.255-.496-.532l-.506-.504-1.098 1.166zm2.481 1.36l-.555.59 1.05.03c.578.015 1.117.048 1.198.074.081.025.153.04.16.034.006-.007-.283-.306-.643-.665l-.655-.654-.555.591zM1.018 8.513c-.383.075-.746.376-.927.769L0 9.478V21.01l.112.24c.133.283.36.516.636.652l.2.098h20.105l.198-.098c.27-.132.502-.371.636-.655L22 21.01V9.478l-.12-.244a1.438 1.438 0 00-.671-.654l-.2-.092-9.901-.007c-5.447-.003-9.987.01-10.09.031zm4.933 2.601c.253.105.414.252.551.5l.128.23v2.41l-.128.231c-.07.127-.188.277-.26.332-.299.228-.342.233-1.885.233H2.922l-.234-.118a1.118 1.118 0 01-.558-.661c-.03-.111-.042-.589-.034-1.322.013-1.092.018-1.156.11-1.328.112-.209.37-.439.577-.514.102-.037.567-.053 1.577-.055 1.195-.003 1.46.007 1.591.062zM3.38 13.05v.71h1.98v-1.42H3.38v.71zm1.808 5.53v.645H2.002v-1.291h3.186v.646zm4.95 0v.645H6.954v-1.291h3.186v.646zm4.909 0v.645h-3.186v-1.291h3.186v.646zm4.951 0v.645h-3.186v-1.291h3.186v.646z" fill="#929292"/></svg>