<svg width="9" height="14" fill="none" xmlns="http://www.w3.org/2000/svg"><path d="M3.976 13.68V.52h.896v13.16h-.896zm.35-1.568c-.747 0-1.46-.112-2.142-.336-.681-.233-1.218-.532-1.61-.896l.518-1.092c.373.327.85.597 1.428.812a5.15 5.15 0 001.806.322c.57 0 1.031-.065 1.386-.196.355-.13.616-.308.784-.532a1.31 1.31 0 00.252-.784c0-.336-.112-.607-.336-.812a2.294 2.294 0 00-.854-.49 8.393 8.393 0 00-1.148-.336c-.42-.093-.845-.2-1.274-.322a6.208 6.208 0 01-1.162-.49 2.418 2.418 0 01-.84-.784C.919 5.84.812 5.411.812 4.888c0-.504.13-.966.392-1.386.27-.43.681-.77 1.232-1.022.56-.261 1.27-.392 2.128-.392.57 0 1.134.075 1.694.224.56.15 1.045.364 1.456.644l-.462 1.12a4.38 4.38 0 00-1.33-.602 5.027 5.027 0 00-1.358-.196c-.55 0-1.003.07-1.358.21-.355.14-.616.327-.784.56a1.363 1.363 0 00-.238.784c0 .345.107.62.322.826.224.205.509.369.854.49.355.121.742.233 1.162.336.42.093.84.2 1.26.322.43.121.817.28 1.162.476.355.196.64.457.854.784.215.327.322.747.322 1.26 0 .495-.135.957-.406 1.386-.27.42-.69.76-1.26 1.022-.56.252-1.27.378-2.128.378z" fill="#74BA73"/></svg>