<svg width="17" height="21" fill="none" xmlns="http://www.w3.org/2000/svg"><path fill-rule="evenodd" clip-rule="evenodd" d="M7.627.053a4.83 4.83 0 00-2.821 1.542C3.97 2.511 3.537 3.57 3.478 4.84a5.092 5.092 0 002.217 4.454c.716.483 1.406.729 2.243.797 1.55.127 2.872-.376 3.94-1.498 1.042-1.095 1.508-2.447 1.38-4-.111-1.33-.682-2.478-1.669-3.354C10.81.546 10.091.204 9.1.054A5.105 5.105 0 007.627.053zm1.698 1.291c.622.166 1.093.447 1.62.967.682.674 1.032 1.41 1.122 2.366.107 1.135-.23 2.17-.976 2.991-.46.508-1.14.94-1.722 1.092-.853.223-1.875.127-2.607-.247-1-.51-1.739-1.46-2.01-2.586-.104-.43-.093-1.406.021-1.848.307-1.19 1.313-2.295 2.43-2.669.602-.202 1.506-.23 2.122-.066zM4.01 10.182a3.837 3.837 0 00-1.737.651C1.03 11.703.226 13.65.041 16.236c-.104 1.453-.02 2.17.342 2.926.2.417.578.876.965 1.17.291.223.788.455 1.22.572l.36.096h11.15l.359-.096c1.258-.338 2.136-1.215 2.453-2.45.163-.639.142-2.158-.047-3.358-.42-2.668-1.479-4.27-3.154-4.77-.383-.115-1.068-.202-1.271-.162-.195.038-.466.188-1.08.595-.66.438-.766.495-1.258.68-.584.218-1.016.302-1.552.303-.56 0-.99-.08-1.555-.288-.535-.196-.558-.209-1.392-.755-.44-.288-.765-.473-.895-.508-.22-.059-.22-.059-.676-.01zm1.035 1.624c.751.496 1.065.656 1.721.877 1.711.578 3.46.3 5.109-.814.746-.504.729-.496 1.046-.455 1.446.188 2.347 1.441 2.729 3.795.157.969.205 2.321.1 2.834-.167.827-.709 1.408-1.535 1.65-.242.07-.554.075-5.712.075-5.171 0-5.47-.004-5.715-.075-.595-.173-1.108-.59-1.348-1.096-.207-.436-.256-.801-.227-1.684.029-.89.071-1.304.207-2.032.106-.568.349-1.373.519-1.72.513-1.05 1.21-1.626 2.117-1.746l.296-.04c.018-.004.33.19.693.43z" fill="#929292"/></svg>