<svg width="40" height="40" viewBox="0 0 40 40" fill="none" xmlns="http://www.w3.org/2000/svg">
<path d="M38.125 1.25H1.875C1.70924 1.25 1.55027 1.31585 1.43306 1.43306C1.31585 1.55027 1.25 1.70924 1.25 1.875V3.75C1.2502 3.87342 1.28671 3.99406 1.355 4.09687L2.5 5.8125V38.125C2.5 38.2908 2.56585 38.4497 2.68306 38.5669C2.80027 38.6842 2.95924 38.75 3.125 38.75H36.875C37.0408 38.75 37.1997 38.6842 37.3169 38.5669C37.4342 38.4497 37.5 38.2908 37.5 38.125V5.8125L38.645 4.095C38.7129 3.99272 38.7494 3.87279 38.75 3.75V1.875C38.75 1.70924 38.6842 1.55027 38.5669 1.43306C38.4497 1.31585 38.2908 1.25 38.125 1.25ZM13.125 37.5V31.25H19.375V37.5H13.125ZM13.125 30V28.75H26.875V30H13.125ZM11.25 27.5V26.25H28.75V27.5H11.25ZM28.125 28.75H30V25H10V28.75H11.875V35H6.25V23.75H33.75V35H28.125V28.75ZM20.625 37.5V31.25H26.875V37.5H20.625ZM36.25 37.5H28.125V36.25H35V22.5H5V36.25H11.875V37.5H3.75V6.25H36.25V37.5ZM37.5 3.5625L36.5406 5H3.45937L2.5 3.5625V2.5H4.375V3.75H5.625V2.5H7.5V3.75H8.75V2.5H22.5V3.75H23.75V2.5H30V3.75H31.25V2.5H37.5V3.5625Z" fill="#3273BA"/>
<path d="M35 7.5H5V21.25H35V7.5ZM23.125 20H7.13375L9.81687 17.3169L8.93313 16.4331L6.25 19.1163V17.1337L10.4419 12.9419L9.55813 12.0581L6.25 15.3663V8.75H29.1162L25.8081 12.0581L26.6919 12.9419L30.8838 8.75H32.8662L30.1831 11.4331L31.0669 12.3169L33.75 9.63375V20H23.125Z" fill="#3273BA"/>
<path d="M24.8931 18.75H28.75V14.4706L24.6369 13.7831L22.2325 11.875H15.4869L12.5 14.9287V18.75H15.1069C15.236 19.1158 15.4754 19.4326 15.792 19.6566C16.1087 19.8807 16.4871 20.001 16.875 20.001C17.2629 20.001 17.6413 19.8807 17.958 19.6566C18.2746 19.4326 18.514 19.1158 18.6431 18.75H21.3569C21.486 19.1158 21.7254 19.4326 22.042 19.6566C22.3587 19.8807 22.7371 20.001 23.125 20.001C23.5129 20.001 23.8913 19.8807 24.208 19.6566C24.5246 19.4326 24.764 19.1158 24.8931 18.75ZM23.75 18.125C23.75 18.2908 23.6842 18.4497 23.5669 18.5669C23.4497 18.6842 23.2908 18.75 23.125 18.75C22.9592 18.75 22.8003 18.6842 22.6831 18.5669C22.5658 18.4497 22.5 18.2908 22.5 18.125V17.5H17.5V18.125C17.5 18.2908 17.4342 18.4497 17.3169 18.5669C17.1997 18.6842 17.0408 18.75 16.875 18.75C16.7092 18.75 16.5503 18.6842 16.4331 18.5669C16.3158 18.4497 16.25 18.2908 16.25 18.125V17.5H13.75V15.4375L16.0131 13.125H21.7969L24.1131 14.965L27.5 15.5275V17.5H23.75V18.125Z" fill="#3273BA"/>
<path d="M18.125 33.75H16.875V35H18.125V33.75Z" fill="#3273BA"/>
<path d="M23.125 33.75H21.875V35H23.125V33.75Z" fill="#3273BA"/>
</svg>
