<svg width="40" height="40" viewBox="0 0 40 40" fill="none" xmlns="http://www.w3.org/2000/svg">
<path d="M34.2341 33.1942C33.3347 30.3155 30.8276 28.1594 27.8476 27.7006L24.516 27.1884V26.52C26.687 25.26 28.2889 23.1271 28.8296 20.6006C30.3973 20.3819 31.6128 19.0465 31.6128 17.4194V12.2581H31.5799C31.2805 7.1471 27.4747 2.97226 22.5328 2.10968C22.3102 0.911613 21.2618 0 19.9999 0C18.738 0 17.6896 0.911613 17.467 2.10968C12.5251 2.97226 8.71926 7.1471 8.4199 12.2581H8.387V17.4194C8.387 19.0465 9.60248 20.3819 11.1702 20.6006C11.7109 23.1271 13.3128 25.26 15.4838 26.52V27.1884L12.1522 27.7006C9.17216 28.1594 6.66442 30.3155 5.76571 33.1942L3.63861 40H36.3612L34.2341 33.1942ZM29.0051 19.2445C29.0154 19.0665 29.0322 18.8903 29.0322 18.7097V15.6026C29.7812 15.8697 30.3225 16.5794 30.3225 17.4194C30.3225 18.269 29.7683 18.9852 29.0051 19.2445ZM30.3225 14.8555C29.9457 14.5703 29.5115 14.3568 29.0322 14.2594V13.5484H30.3225V14.8555ZM19.9999 1.29032C20.4851 1.29032 20.9038 1.56258 21.1238 1.96C20.9638 1.9529 20.8064 1.93548 20.6451 1.93548H19.3547C19.1934 1.93548 19.036 1.9529 18.876 1.96C19.096 1.56258 19.5147 1.29032 19.9999 1.29032ZM19.0464 3.24064C19.1496 3.23806 19.2509 3.22581 19.3547 3.22581H20.6451C20.7509 3.22581 20.8528 3.23806 20.9573 3.24194C22.2941 5.20064 23.2173 7.45419 23.6238 9.78839L24.8954 9.56645C24.5199 7.40645 23.7309 5.31161 22.6044 3.42581C26.7993 4.29161 29.9993 7.88323 30.2896 12.2581H25.1515C25.1418 11.8052 25.1199 11.3516 25.0767 10.9052L23.7928 11.0297C23.8322 11.4348 23.8522 11.8465 23.8612 12.2574H16.1438C16.218 9.01742 17.216 5.91677 19.0464 3.24064ZM27.6902 13.5484C27.3754 15.7329 25.496 17.4194 23.2257 17.4194H16.7741C14.5038 17.4194 12.6244 15.7329 12.3096 13.5484H27.6902ZM9.67732 13.5484H10.9676V14.2587C10.4883 14.3568 10.0541 14.5697 9.67732 14.8548V13.5484ZM9.67732 17.4194C9.67732 16.5794 10.2186 15.8697 10.9676 15.6026V18.7097C10.9676 18.8903 10.9844 19.0665 10.9947 19.2445C10.2315 18.9852 9.67732 18.269 9.67732 17.4194ZM9.70958 12.2581C10.0005 7.88645 13.196 4.29806 17.3857 3.42839C15.7825 6.10129 14.9205 9.12129 14.8534 12.2581H9.70958ZM12.258 18.7097V16.5452C13.3231 17.8632 14.9509 18.7097 16.7741 18.7097H23.2257C25.0489 18.7097 26.6767 17.8632 27.7418 16.5452V18.7097C27.7418 22.9787 24.2689 26.4516 19.9999 26.4516C15.7309 26.4516 12.258 22.9787 12.258 18.7097ZM23.2257 27.1361V27.6477C23.1147 27.9839 22.4367 29.6774 19.9999 29.6774C17.5638 29.6774 16.887 27.9916 16.7741 27.6477V27.1361C17.7773 27.5219 18.8625 27.7419 19.9999 27.7419C21.1373 27.7419 22.2225 27.5219 23.2257 27.1361ZM9.75409 38.7097H5.39345L6.99668 33.5787C7.71474 31.2819 9.6599 29.549 12.0005 29.0561L10.356 33.9897L9.75409 38.7097ZM18.0644 38.7097H15.4838V37.1523L14.1934 35.8619V33.8935L14.8386 33.4632V35.4839H18.7096V33.4632L19.3547 33.8935V35.8619L18.0644 37.1523V38.7097ZM25.8064 35.2168L25.1612 35.8619V38.7097H23.8709V35.8619L23.2257 35.2168V34.3174L24.3076 31.6129H24.7244L25.8064 34.3174V35.2168ZM26.4515 38.7097V36.3961L27.0967 35.751V34.0697L25.598 30.3226H23.4341L21.9354 34.0697V35.751L22.5805 36.3961V38.7097H19.3547V37.6865L20.6451 36.3961V33.2032L17.4193 31.0529V34.1935H16.1289V31.0529L12.9031 33.2032V36.3961L14.1934 37.6865V38.7097H11.0534L11.6005 34.3374L13.4431 28.8084L15.707 28.46C16.2141 29.5432 17.5147 30.9677 19.9999 30.9677C22.4851 30.9677 23.7857 29.5432 24.2928 28.4594L27.2367 28.9123L29.0444 34.3368L29.5915 38.7097H26.4515ZM30.3173 34.1135L28.7025 29.2374C30.7244 29.9032 32.358 31.5161 33.0031 33.5787L34.6064 38.7097H30.8922L30.3173 34.1135Z" fill="#3273BA"/>
</svg>
