<svg width="40" height="40" viewBox="0 0 40 40" fill="none" xmlns="http://www.w3.org/2000/svg">
<g clip-path="url(#clip0)">
<path d="M0.625011 16.8751C0.380636 16.8751 0.148761 16.7313 0.0487612 16.492C-0.0849888 16.1732 0.0643862 15.807 0.383136 15.6738L19.7581 7.54885C20.0763 7.41323 20.4431 7.5651 20.5763 7.88323C20.71 8.20198 20.5606 8.56823 20.2419 8.70135L0.866886 16.8263C0.788136 16.8601 0.705636 16.8751 0.625011 16.8751Z" fill="#3273BA"/>
<path d="M39.375 16.875C39.2944 16.875 39.2119 16.86 39.1331 16.8263L19.7581 8.70125C19.4394 8.56813 19.29 8.20188 19.4238 7.88313C19.5563 7.565 19.9244 7.4125 20.2419 7.54875L39.6169 15.6738C39.9356 15.8069 40.085 16.1731 39.9512 16.4919C39.8512 16.7313 39.6194 16.875 39.375 16.875Z" fill="#3273BA"/>
<path d="M0.625011 19.375C0.380636 19.375 0.148761 19.2313 0.0487612 18.9919C-0.0849888 18.6731 0.0643862 18.3069 0.383136 18.1738L19.7581 10.0488C20.0763 9.91377 20.4431 10.065 20.5763 10.3831C20.71 10.7019 20.5606 11.0681 20.2419 11.2013L0.866886 19.3263C0.788136 19.36 0.705636 19.375 0.625011 19.375Z" fill="#3273BA"/>
<path d="M39.375 19.375C39.2944 19.375 39.2119 19.36 39.1331 19.3262L19.7581 11.2012C19.4394 11.0681 19.29 10.7019 19.4238 10.3831C19.5563 10.065 19.9244 9.91311 20.2419 10.0487L39.6169 18.1737C39.9356 18.3069 40.085 18.6731 39.9512 18.9919C39.8512 19.2312 39.6194 19.375 39.375 19.375Z" fill="#3273BA"/>
<path d="M0.625 19.375C0.279375 19.375 0 19.0956 0 18.75V16.25C0 15.9044 0.279375 15.625 0.625 15.625C0.970625 15.625 1.25 15.9044 1.25 16.25V18.75C1.25 19.0956 0.970625 19.375 0.625 19.375Z" fill="#3273BA"/>
<path d="M39.375 19.375C39.0294 19.375 38.75 19.0956 38.75 18.75V16.25C38.75 15.9044 39.0294 15.625 39.375 15.625C39.7206 15.625 40 15.9044 40 16.25V18.75C40 19.0956 39.7206 19.375 39.375 19.375Z" fill="#3273BA"/>
<path d="M3.75 39.375C3.40438 39.375 3.125 39.0956 3.125 38.75V17.44C3.125 17.0944 3.40438 16.815 3.75 16.815C4.09562 16.815 4.375 17.0944 4.375 17.44V38.75C4.375 39.0956 4.09562 39.375 3.75 39.375Z" fill="#3273BA"/>
<path d="M36.25 39.375C35.9044 39.375 35.625 39.0956 35.625 38.75V17.44C35.625 17.0944 35.9044 16.815 36.25 16.815C36.5956 16.815 36.875 17.0944 36.875 17.44V38.75C36.875 39.0956 36.5956 39.375 36.25 39.375Z" fill="#3273BA"/>
<path d="M39.375 39.375H0.625C0.279375 39.375 0 39.0956 0 38.75C0 38.4044 0.279375 38.125 0.625 38.125H39.375C39.7206 38.125 40 38.4044 40 38.75C40 39.0956 39.7206 39.375 39.375 39.375Z" fill="#3273BA"/>
<path d="M32.5 39.375C32.1544 39.375 31.875 39.0956 31.875 38.75V20H8.125V38.75C8.125 39.0956 7.84562 39.375 7.5 39.375C7.15438 39.375 6.875 39.0956 6.875 38.75V19.375C6.875 19.0294 7.15438 18.75 7.5 18.75H32.5C32.8456 18.75 33.125 19.0294 33.125 19.375V38.75C33.125 39.0956 32.8456 39.375 32.5 39.375Z" fill="#3273BA"/>
<path d="M32.5 22.5H7.5C7.15438 22.5 6.875 22.2206 6.875 21.875C6.875 21.5294 7.15438 21.25 7.5 21.25H32.5C32.8456 21.25 33.125 21.5294 33.125 21.875C33.125 22.2206 32.8456 22.5 32.5 22.5Z" fill="#3273BA"/>
<path d="M32.5 25H7.5C7.15438 25 6.875 24.7206 6.875 24.375C6.875 24.0294 7.15438 23.75 7.5 23.75H32.5C32.8456 23.75 33.125 24.0294 33.125 24.375C33.125 24.7206 32.8456 25 32.5 25Z" fill="#3273BA"/>
<path d="M11.25 39.375C10.9043 39.375 10.625 39.0956 10.625 38.75V36.25C10.625 35.9044 10.9043 35.625 11.25 35.625C11.5956 35.625 11.875 35.9044 11.875 36.25V38.75C11.875 39.0956 11.5956 39.375 11.25 39.375Z" fill="#3273BA"/>
<path d="M14.375 39.375C14.0293 39.375 13.75 39.0956 13.75 38.75V36.25C13.75 35.9044 14.0293 35.625 14.375 35.625C14.7206 35.625 15 35.9044 15 36.25V38.75C15 39.0956 14.7206 39.375 14.375 39.375Z" fill="#3273BA"/>
<path d="M25.625 39.375C25.2793 39.375 25 39.0956 25 38.75V36.25C25 35.9044 25.2793 35.625 25.625 35.625C25.9706 35.625 26.25 35.9044 26.25 36.25V38.75C26.25 39.0956 25.9706 39.375 25.625 39.375Z" fill="#3273BA"/>
<path d="M28.75 39.375C28.4043 39.375 28.125 39.0956 28.125 38.75V36.25C28.125 35.9044 28.4043 35.625 28.75 35.625C29.0956 35.625 29.375 35.9044 29.375 36.25V38.75C29.375 39.0956 29.0956 39.375 28.75 39.375Z" fill="#3273BA"/>
<path d="M28.75 36.875H11.25C10.9043 36.875 10.625 36.5956 10.625 36.25C10.625 35.9044 10.9043 35.625 11.25 35.625H28.75C29.0956 35.625 29.375 35.9044 29.375 36.25C29.375 36.5956 29.0956 36.875 28.75 36.875Z" fill="#3273BA"/>
<path d="M11.25 36.875C10.9043 36.875 10.625 36.5956 10.625 36.25V31.25C10.625 30.9044 10.9043 30.625 11.25 30.625C11.5956 30.625 11.875 30.9044 11.875 31.25V36.25C11.875 36.5956 11.5956 36.875 11.25 36.875Z" fill="#3273BA"/>
<path d="M28.75 36.875C28.4043 36.875 28.125 36.5957 28.125 36.25V31.2513C28.125 30.9057 28.4043 30.6263 28.75 30.6263C29.0956 30.6263 29.375 30.9057 29.375 31.2513V36.25C29.375 36.5957 29.0956 36.875 28.75 36.875Z" fill="#3273BA"/>
<path d="M18.125 34.375C17.7793 34.375 17.5 34.0956 17.5 33.75V33.125C17.5 32.7794 17.7793 32.5 18.125 32.5C18.4706 32.5 18.75 32.7794 18.75 33.125V33.75C18.75 34.0956 18.4706 34.375 18.125 34.375Z" fill="#3273BA"/>
<path d="M20 34.375C19.6543 34.375 19.375 34.0956 19.375 33.75V33.125C19.375 32.7794 19.6543 32.5 20 32.5C20.3456 32.5 20.625 32.7794 20.625 33.125V33.75C20.625 34.0956 20.3456 34.375 20 34.375Z" fill="#3273BA"/>
<path d="M21.875 34.375C21.5293 34.375 21.25 34.0956 21.25 33.75V33.125C21.25 32.7794 21.5293 32.5 21.875 32.5C22.2206 32.5 22.5 32.7794 22.5 33.125V33.75C22.5 34.0956 22.2206 34.375 21.875 34.375Z" fill="#3273BA"/>
<path d="M12.5006 30C12.475 30 12.4488 29.9982 12.4225 29.995C12.08 29.9525 11.8369 29.64 11.88 29.2975L12.505 24.2975C12.5481 23.955 12.8563 23.7163 13.2025 23.755C13.545 23.7975 13.7881 24.11 13.745 24.4525L13.12 29.4525C13.0806 29.7688 12.8113 30 12.5006 30Z" fill="#3273BA"/>
<path d="M27.4995 30C27.1889 30 26.9195 29.7688 26.8801 29.4525L26.2551 24.4525C26.2126 24.11 26.4551 23.7975 26.7976 23.755C27.1414 23.7163 27.4526 23.955 27.4951 24.2975L28.1201 29.2975C28.1626 29.64 27.9201 29.9525 27.5776 29.995C27.5514 29.9982 27.5251 30 27.4995 30Z" fill="#3273BA"/>
<path d="M16.2625 34.375C16.2593 34.375 16.2543 34.3756 16.25 34.375H14.0625C13.2006 34.375 12.5 33.6744 12.5 32.8125C12.5 31.9506 13.2006 31.25 14.0625 31.25C14.8781 31.25 16.7556 32.0488 16.8693 33.6006C16.8812 33.6488 16.8875 33.6988 16.8875 33.75C16.8875 34.0956 16.6075 34.375 16.2625 34.375ZM14.0625 32.5C13.8906 32.5 13.75 32.6406 13.75 32.8125C13.75 32.9844 13.8906 33.125 14.0625 33.125H15.3293C14.94 32.7306 14.2787 32.5 14.0625 32.5Z" fill="#3273BA"/>
<path d="M25.9375 34.375H23.75C23.4043 34.375 23.125 34.0956 23.125 33.75C23.125 32.1006 25.0962 31.25 25.9375 31.25C26.7993 31.25 27.5 31.9506 27.5 32.8125C27.5 33.6744 26.7993 34.375 25.9375 34.375ZM24.6706 33.125H25.9375C26.1093 33.125 26.25 32.9844 26.25 32.8125C26.25 32.6406 26.1093 32.5 25.9375 32.5C25.7212 32.5 25.06 32.7306 24.6706 33.125Z" fill="#3273BA"/>
<path d="M11.2494 31.875C11.1306 31.875 11.01 31.8407 10.9031 31.77C10.6156 31.5782 10.5381 31.1907 10.73 30.9032L11.98 29.0282C12.1706 28.7413 12.5588 28.6638 12.8469 28.855C13.1344 29.0469 13.2119 29.4344 13.02 29.7219L11.77 31.5969C11.65 31.7775 11.4513 31.875 11.2494 31.875Z" fill="#3273BA"/>
<path d="M28.7505 31.8763C28.5487 31.8763 28.3499 31.7788 28.2299 31.5982L26.9799 29.7219C26.788 29.4344 26.8662 29.0463 27.153 28.855C27.4405 28.6638 27.8287 28.7413 28.0199 29.0282L29.2699 30.9044C29.4618 31.1919 29.3837 31.58 29.0968 31.7713C28.9899 31.8419 28.8693 31.8763 28.7505 31.8763Z" fill="#3273BA"/>
<path d="M27.5 30H12.5C12.1543 30 11.875 29.7206 11.875 29.375C11.875 29.0294 12.1543 28.75 12.5 28.75H27.5C27.8456 28.75 28.125 29.0294 28.125 29.375C28.125 29.7206 27.8456 30 27.5 30Z" fill="#3273BA"/>
<path d="M28.75 27.5H27.1875C26.8418 27.5 26.5625 27.2206 26.5625 26.875C26.5625 26.5294 26.8418 26.25 27.1875 26.25H28.75C29.0956 26.25 29.375 26.5294 29.375 26.875C29.375 27.2206 29.0956 27.5 28.75 27.5Z" fill="#3273BA"/>
<path d="M12.8125 27.5H11.25C10.9043 27.5 10.625 27.2206 10.625 26.875C10.625 26.5294 10.9043 26.25 11.25 26.25H12.8125C13.1581 26.25 13.4375 26.5294 13.4375 26.875C13.4375 27.2206 13.1581 27.5 12.8125 27.5Z" fill="#3273BA"/>
<path d="M28.755 8.125C26.6869 8.125 25.005 6.44312 25.005 4.375C25.005 2.30687 26.6869 0.625 28.755 0.625C30.2006 0.625 31.5144 1.45938 32.1369 2.76125C32.21 2.86313 32.2531 2.98875 32.2531 3.125C32.2531 3.47062 31.9738 3.75 31.6281 3.75C31.625 3.75 31.6206 3.75062 31.6156 3.75H29.3794C29.0344 3.75 28.7544 4.03 28.7544 4.375C28.7544 4.72 29.0344 5 29.3794 5H31.6156C31.8269 5 32.0231 5.10625 32.1388 5.28312C32.2544 5.45937 32.2731 5.6825 32.1881 5.87563C31.59 7.24188 30.2425 8.125 28.755 8.125ZM28.755 1.875C27.3763 1.875 26.255 2.99625 26.255 4.375C26.255 5.75375 27.3763 6.875 28.755 6.875C29.3744 6.875 29.9575 6.645 30.4056 6.25H29.38C28.3463 6.25 27.505 5.40875 27.505 4.375C27.505 3.34125 28.3463 2.5 29.38 2.5H30.405C29.9569 2.105 29.3738 1.875 28.755 1.875Z" fill="#3273BA"/>
<path d="M11.875 6.25C10.8412 6.25 10 5.40875 10 4.375C10 3.34125 10.8412 2.5 11.875 2.5C12.2206 2.5 12.5 2.77938 12.5 3.125C12.5 3.47062 12.2206 3.75 11.875 3.75C11.53 3.75 11.25 4.03 11.25 4.375C11.25 4.72 11.53 5 11.875 5C12.2206 5 12.5 5.27938 12.5 5.625C12.5 5.97062 12.2206 6.25 11.875 6.25Z" fill="#3273BA"/>
<path d="M25.89 6.25H11.875C11.5294 6.25 11.25 5.97062 11.25 5.625C11.25 5.27938 11.5294 5 11.875 5H25.89C26.2356 5 26.515 5.27938 26.515 5.625C26.515 5.97062 26.2356 6.25 25.89 6.25Z" fill="#3273BA"/>
<path d="M25.89 3.75H11.875C11.5294 3.75 11.25 3.47062 11.25 3.125C11.25 2.77938 11.5294 2.5 11.875 2.5H25.89C26.2356 2.5 26.515 2.77938 26.515 3.125C26.515 3.47062 26.2356 3.75 25.89 3.75Z" fill="#3273BA"/>
<path d="M20 8.75C19.6544 8.75 19.375 8.47062 19.375 8.125V5.625C19.375 5.27938 19.6544 5 20 5C20.3456 5 20.625 5.27938 20.625 5.625V8.125C20.625 8.47062 20.3456 8.75 20 8.75Z" fill="#3273BA"/>
</g>
<defs>
<clipPath id="clip0">
<rect width="40" height="40" fill="white"/>
</clipPath>
</defs>
</svg>
