<svg width="40" height="40" viewBox="0 0 40 40" fill="none" xmlns="http://www.w3.org/2000/svg">
<g clip-path="url(#clip0)">
<path d="M24.4053 17.682L29.6133 21.3893C29.8447 21.5541 30.1552 21.5541 30.3866 21.3893L35.5946 17.682C36.6796 16.9135 37.327 15.6688 37.3333 14.3393V6.45129C37.3337 6.18585 37.1766 5.94546 36.9333 5.83929L30.2666 2.95928C30.0981 2.88662 29.9071 2.88662 29.7386 2.95928L23.072 5.83929C22.8287 5.94546 22.6716 6.18585 22.672 6.45129V14.3393C22.6771 15.6678 23.3225 16.9123 24.4053 17.682ZM24 6.88929L30 4.29795L36 6.88929V14.3393C35.9951 15.2391 35.5558 16.0811 34.8206 16.6L30 20.028L25.1793 16.596C24.445 16.0782 24.0058 15.2378 24 14.3393V6.88929Z" fill="#3273BA"/>
<path d="M28.2666 15.8666C28.5547 16.0828 28.9623 16.0311 29.1873 15.75L34.5206 9.08331C34.7508 8.79575 34.7042 8.37609 34.4166 8.14598C34.1291 7.91586 33.7094 7.96242 33.4793 8.24998L28.546 14.4126L26.4 12.8C26.2094 12.6571 25.9571 12.6267 25.7381 12.7202C25.519 12.8138 25.3666 13.0171 25.3381 13.2536C25.3096 13.49 25.4094 13.7237 25.6 13.8666L28.2666 15.8666Z" fill="#3273BA"/>
<path d="M1.33333 35.3334H2V38C2 39.1046 2.89543 40 4 40H8C9.10457 40 10 39.1046 10 38V35.3334H26V38C26 39.1046 26.8954 40 28 40H32C33.1046 40 34 39.1046 34 38V35.3334H34.6667C35.403 35.3334 36 34.7364 36 34V24C36.0025 23.0338 35.5812 22.1152 34.8473 21.4867L37.1407 19.8547C38.928 18.5854 39.9928 16.5315 40 14.3394V4.69868C40.0004 4.43324 39.8433 4.19286 39.6 4.08668L30.2667 0.0546828C30.0982 -0.0179834 29.9072 -0.0179834 29.7387 0.0546828L20.4 4.08668C20.1567 4.19286 19.9996 4.43324 20 4.69868V7.33335H9.91333C8.49993 7.33383 7.24048 8.22565 6.77067 9.55868L2.844 20.716C1.21387 20.9559 0.00455145 22.3523 0 24V34C0 34.7364 0.596954 35.3334 1.33333 35.3334ZM8.66667 38C8.66667 38.3682 8.36819 38.6667 8 38.6667H4C3.63181 38.6667 3.33333 38.3682 3.33333 38V35.3334H8.66667V38ZM6 34H4.66667V32.6667H6V34ZM32.6667 38C32.6667 38.3682 32.3682 38.6667 32 38.6667H28C27.6318 38.6667 27.3333 38.3682 27.3333 38V35.3334H32.6667V38ZM31.3333 34H30V32.6667H31.3333V34ZM21.3333 5.13668L30 1.39268L38.6667 5.13668V14.3367C38.6601 16.0977 37.8038 17.7472 36.3673 18.766L30 23.3013L23.6327 18.768C22.1964 17.7494 21.3402 16.1001 21.3333 14.3394V5.13668ZM31.3333 24.6667C31.7015 24.6667 32 24.9652 32 25.3333V26.6667C32 27.0349 31.7015 27.3333 31.3333 27.3333H27.3333C26.9651 27.3333 26.6667 27.0349 26.6667 26.6667C26.6667 25.5621 27.5621 24.6667 28.6667 24.6667H31.3333ZM20 11.3334V12.6667H15.3333V11.3334H20ZM20 10H18.6667V8.66668H20V10ZM8.02867 10C8.31107 9.20125 9.06612 8.66709 9.91333 8.66668H17.3333V10H15.3333C14.597 10 14 10.597 14 11.3334V12.6667C14 13.4031 14.597 14 15.3333 14H20V14.3394C20.0072 16.5315 21.072 18.5854 22.8593 19.8547L24 20.6667H4.27467L8.02867 10ZM1.33333 24C1.33333 22.8954 2.22876 22 3.33333 22H25.8733L27.888 23.4347C26.3929 23.7939 25.3375 25.1291 25.3333 26.6667C25.3333 27.7713 26.2288 28.6667 27.3333 28.6667H31.3333C32.4379 28.6667 33.3333 27.7713 33.3333 26.6667V25.3333C33.3312 24.5098 32.8244 23.7718 32.0567 23.474L33.7073 22.2987C34.3052 22.6565 34.6699 23.3032 34.6667 24L34.6667 34H32.6667V32.6667C32.6667 31.9303 32.0697 31.3333 31.3333 31.3333H30C29.2636 31.3333 28.6667 31.9303 28.6667 32.6667V34H7.33333V32.6667C7.33333 31.9303 6.73638 31.3333 6 31.3333H4.66667C3.93029 31.3333 3.33333 31.9303 3.33333 32.6667V34H1.33333V24Z" fill="#3273BA"/>
<path d="M12 10H10.8593C10.0118 10.001 9.25645 10.5348 8.97263 11.3333L6.46996 18.4453C6.34772 18.7927 6.53024 19.1734 6.87763 19.2957C7.22502 19.4179 7.60572 19.2354 7.72796 18.888L10.2306 11.7787C10.3245 11.5119 10.5765 11.3334 10.8593 11.3333H12C12.3682 11.3333 12.6666 11.0349 12.6666 10.6667C12.6666 10.2985 12.3682 10 12 10Z" fill="#3273BA"/>
<path d="M4.66669 28.6667H8.66669C9.77126 28.6667 10.6667 27.7712 10.6667 26.6666C10.6645 24.8266 9.17339 23.3355 7.33335 23.3333H4.66669C3.56212 23.3333 2.66669 24.2287 2.66669 25.3333V26.6666C2.66669 27.7712 3.56212 28.6667 4.66669 28.6667ZM4.00002 25.3333C4.00002 24.9651 4.2985 24.6666 4.66669 24.6666H7.33335C8.43792 24.6666 9.33335 25.5621 9.33335 26.6666C9.33335 27.0348 9.03488 27.3333 8.66669 27.3333H4.66669C4.2985 27.3333 4.00002 27.0348 4.00002 26.6666V25.3333Z" fill="#3273BA"/>
<path d="M13.3333 32.6667H22.6666C23.403 32.6667 23.9999 32.0697 23.9999 31.3333V28.6666C23.9999 27.9303 23.403 27.3333 22.6666 27.3333H13.3333C12.5969 27.3333 11.9999 27.9303 11.9999 28.6666V31.3333C11.9999 32.0697 12.5969 32.6667 13.3333 32.6667ZM13.3333 28.6666H22.6666V31.3333H13.3333V28.6666Z" fill="#3273BA"/>
</g>
<defs>
<clipPath id="clip0">
<rect width="40" height="40" fill="white"/>
</clipPath>
</defs>
</svg>
