<svg width="109" height="46" viewBox="0 0 109 46" fill="none" xmlns="http://www.w3.org/2000/svg">
<path d="M109 0H46.2118H30.4708H0V45.5316H109V0Z" fill="#E30613"/>
<path fill-rule="evenodd" clip-rule="evenodd" d="M35.6188 10.8408H14.5906V34.2128H35.4425L36.0156 33.4176V34.2128H44.1271L49.1527 26.6878L54.1783 34.2128H63.0393L54.3988 22.1727L62.2899 10.8408H53.7375L49.3731 18.0118L44.8765 10.8408H36.1919L44.2153 22.0399L36.0156 33.4176V28.9453H22.4817V24.3417H34.6931V19.5611H22.4817V15.8428H35.6188V10.8408ZM71.5035 10.8408H63.6124V34.2128H71.5035V10.8408ZM96.9843 10.8408H73.0905V16.6396H81.1139V34.2571H88.9609V16.6396H96.9843V10.8408Z" fill="white"/>
</svg>
