<?xml version="1.0" encoding="utf-8"?><svg viewBox="0 0 32 32" xmlns="http://www.w3.org/2000/svg" xmlns:xlink="http://www.w3.org/1999/xlink"><style>:root>svg{display:none}:root>svg:target{display:block}</style><svg fill="none" viewBox="0 0 10 6" id="arrow" xmlns="http://www.w3.org/2000/svg"><path d="M1 1l4 4 4-4" stroke="inherit" stroke-width="2" stroke-linecap="round" stroke-linejoin="round"/></svg><svg fill="none" viewBox="0 0 10 6" id="arrow-grey" xmlns="http://www.w3.org/2000/svg"><path d="M1 1l4 4 4-4" stroke="#B5B5B5" stroke-width="2" stroke-linecap="round" stroke-linejoin="round"/></svg><svg fill="inherit" viewBox="0 0 24 24" id="fb" xmlns="http://www.w3.org/2000/svg"><path d="M13.488 11.834h-.5V20.5h-2.53v-8.666H7.5V9.456h2.958V6.463c0-1.34.411-2.316 1.07-2.958.66-.643 1.623-1.005 2.831-1.005.875 0 1.657.043 2.141.082v2.079h-1.313c-.776 0-1.38.178-1.764.627-.37.432-.435 1.002-.435 1.514v2.654h3.32l-.31 2.378h-2.51z" stroke="inherit"/></svg><svg viewBox="0 0 24 24" id="globe" xmlns="http://www.w3.org/2000/svg"><path d="M12 1.999c5.524 0 10.002 4.478 10.002 10.002 0 5.523-4.478 10.001-10.002 10.001-5.524 0-10.002-4.478-10.002-10.001C1.998 6.477 6.476 1.999 12 1.999zM14.939 16.5H9.06c.652 2.414 1.785 4.002 2.939 4.002 1.154 0 2.287-1.588 2.939-4.002zm-7.43 0H4.785a8.532 8.532 0 004.094 3.411c-.522-.82-.953-1.846-1.27-3.015l-.102-.395zm11.705 0h-2.722c-.324 1.335-.792 2.5-1.373 3.411a8.528 8.528 0 003.91-3.127l.185-.283zM7.094 10H3.735l-.005.017a8.524 8.524 0 00-.233 1.984c0 1.056.193 2.067.545 3h3.173a20.3 20.3 0 01-.218-3c0-.684.033-1.354.095-2.001zm8.303 0H8.603a18.967 18.967 0 00.135 5h6.524a18.967 18.967 0 00.135-5zm4.868-.001h-3.358c.062.648.095 1.318.095 2.002a20.3 20.3 0 01-.218 3h3.173a8.483 8.483 0 00.545-3c0-.69-.083-1.36-.237-2.002zM8.88 4.089l-.023.01A8.531 8.531 0 004.25 8.5h3.048c.314-1.752.86-3.278 1.583-4.41zM12 3.5l-.116.005C10.62 3.62 9.396 5.622 8.83 8.5h6.342c-.566-2.87-1.783-4.869-3.045-4.995L12 3.5zm3.12.59l.107.175c.67 1.112 1.177 2.572 1.475 4.237h3.048a8.533 8.533 0 00-4.339-4.29l-.291-.121z" fill="#212121" fill-rule="nonzero"/></svg><svg viewBox="0 0 26 26" id="icons-info" xmlns="http://www.w3.org/2000/svg"><path d="M13 1.188C6.477 1.188 1.187 6.476 1.187 13S6.478 24.813 13 24.813c6.523 0 11.813-5.29 11.813-11.813 0-6.523-5.29-11.813-11.813-11.813zm2.46 18.308c-.608.238-1.093.422-1.456.547a3.864 3.864 0 01-1.262.187c-.734 0-1.308-.18-1.719-.539-.406-.355-.609-.812-.609-1.367 0-.215.016-.433.047-.656.027-.227.078-.477.144-.762l.762-2.687c.067-.258.125-.5.172-.73.047-.231.066-.442.066-.634 0-.34-.07-.582-.21-.714-.145-.137-.415-.204-.813-.204a2.23 2.23 0 00-.605.09 9.443 9.443 0 00-.532.176l.203-.828c.497-.203.973-.375 1.43-.52a4.27 4.27 0 011.29-.218c.73 0 1.296.18 1.69.531.395.352.594.812.594 1.375 0 .117-.011.324-.039.617a4.225 4.225 0 01-.152.813l-.758 2.68c-.062.214-.117.46-.168.734a4.05 4.05 0 00-.07.625c0 .355.078.601.238.73.156.13.434.192.828.192.184 0 .39-.032.625-.094a3.59 3.59 0 00.504-.172zm-.136-10.879a1.802 1.802 0 01-1.273.492c-.496 0-.926-.164-1.281-.492a1.563 1.563 0 01-.532-1.191c0-.465.18-.867.532-1.2a1.813 1.813 0 011.28-.496c.497 0 .923.165 1.274.497.356.332.531.734.531 1.199 0 .465-.175.863-.53 1.191z"/></svg><svg fill="inherit" viewBox="0 0 24 24" id="in" xmlns="http://www.w3.org/2000/svg"><path d="M20.5 12.952V19.5h-2.533v-5.343c0-.981-.3-1.756-.806-2.285a2.43 2.43 0 00-1.845-.75c-1.353.041-2.62 1.156-2.62 3.035V19.5h-2.52V9.37h2.52v.999l.938.24c.3-.546.867-.998 1.59-1.28a4.509 4.509 0 012.347-.243c.789.133 1.513.49 2.04 1.098.525.605.889 1.498.889 2.768zM7.027 5.74c0 .68-.557 1.24-1.256 1.24-.7 0-1.257-.56-1.257-1.24 0-.68.558-1.239 1.257-1.239.699 0 1.256.56 1.256 1.24zM4.5 19.5V9.37h2.542V19.5H4.5z" stroke="inherit"/></svg><svg viewBox="0 0 32 32" id="setting" xmlns="http://www.w3.org/2000/svg"><path d="M32 17.969v-4l-4.781-1.992a10.75 10.75 0 00-.445-1.094l1.93-4.805-2.829-2.828-4.762 1.961a11.151 11.151 0 00-1.117-.461L17.969 0h-4l-1.977 4.734c-.398.141-.781.289-1.16.469l-4.754-1.91L3.25 6.121l1.938 4.711c-.188.387-.34.781-.485 1.188L0 14.031v4l4.707 1.961c.145.406.301.801.488 1.188l-1.902 4.742 2.828 2.828 4.723-1.945c.379.18.766.324 1.164.461L14.031 32h4l1.98-4.758c.379-.141.754-.289 1.113-.461l4.797 1.922 2.828-2.828-1.969-4.773c.168-.359.305-.723.438-1.094L32 17.969zM15.969 22c-3.312 0-6-2.688-6-6s2.688-6 6-6 6 2.688 6 6-2.688 6-6 6z" fill="#030104"/></svg><svg fill="inherit" viewBox="0 0 16 8" id="small-arrow" xmlns="http://www.w3.org/2000/svg"><path d="M15.354 4.354a.5.5 0 000-.708L12.172.464a.5.5 0 10-.708.708L14.293 4l-2.829 2.828a.5.5 0 10.708.708l3.182-3.182zM0 4.5h15v-1H0v1z"/></svg><svg viewBox="0 0 20 20" fill="inherit" id="status-check" xmlns="http://www.w3.org/2000/svg"><path d="M10 18a8 8 0 100-16.001A8 8 0 0010 18zm0 2C4.477 20 0 15.523 0 10S4.477 0 10 0s10 4.477 10 10-4.477 10-10 10z"/><path fill-rule="evenodd" clip-rule="evenodd" d="M7.707 9.293a1 1 0 10-1.414 1.414l2 2a1 1 0 001.414 0l4-4a1 1 0 10-1.414-1.414L9 10.586 7.707 9.293z"/></svg><svg fill="inherit" viewBox="0 0 24 24" id="trash" xmlns="http://www.w3.org/2000/svg"><path fill="#fff" fill-opacity=".01" d="M0 0h24v24H0z"/><path fill-rule="evenodd" clip-rule="evenodd" d="M5 5a1 1 0 00-1 1v1h16V6a1 1 0 00-1-1H5zm11.15 15H7.845a1 1 0 01-.986-.835L5 8h14l-1.864 11.166a1 1 0 01-.986.834zM9 4.5a.5.5 0 01.491-.5h5.018a.5.5 0 01.491.5V5H9v-.5z"/></svg><svg fill="inherit" viewBox="0 0 24 24" id="twit" xmlns="http://www.w3.org/2000/svg"><path d="M22 5.8a8.49 8.49 0 01-2.36.64 4.13 4.13 0 001.81-2.27 8.21 8.21 0 01-2.61 1 4.1 4.1 0 00-7 3.74 11.64 11.64 0 01-8.45-4.29 4.16 4.16 0 00-.55 2.07 4.09 4.09 0 001.82 3.41 4.05 4.05 0 01-1.86-.51v.05a4.1 4.1 0 003.3 4 3.929 3.929 0 01-1.1.17 4.896 4.896 0 01-.77-.07 4.11 4.11 0 003.83 2.84A8.22 8.22 0 012 18.28a11.57 11.57 0 006.29 1.85A11.59 11.59 0 0020 8.45v-.53a8.43 8.43 0 002-2.12z"/></svg><svg fill="inherit" viewBox="0 0 24 24" id="youtube" xmlns="http://www.w3.org/2000/svg"><path fill-rule="evenodd" clip-rule="evenodd" d="M6.232 5.165c2.644-.22 8.52-.22 11.165 0 2.864.22 3.232 1.91 3.232 6.464s-.368 6.317-3.232 6.464c-2.645.147-8.52.147-11.165 0C3.367 17.873 3 16.183 3 11.629s.367-6.243 3.232-6.464zm4.827 8.679a1 1 0 01-1.448-.894v-2.64a1 1 0 011.447-.895l2.64 1.32a1 1 0 010 1.789l-2.64 1.32z"/></svg></svg>