<svg width="42" height="42" viewBox="0 0 42 42" fill="none" xmlns="http://www.w3.org/2000/svg">
<path fill-rule="evenodd" clip-rule="evenodd" d="M21 26.5C16.8949 26.5 13.6666 23.6169 13.6666 17.3333C13.6666 13.2189 16.5617 10 21 10C25.426 10 28.3333 13.5229 28.3333 17.7C28.3333 23.7126 25.0665 26.5 21 26.5ZM17.3333 17.3333C17.3333 21.4936 18.8334 22.8333 21 22.8333C23.1591 22.8333 24.6666 21.5471 24.6666 17.7C24.6666 15.4091 23.2287 13.6667 21 13.6667C18.6785 13.6667 17.3333 15.1624 17.3333 17.3333Z" fill="#D8D8D8"/>
<path fill-rule="evenodd" clip-rule="evenodd" d="M21 41.1667C9.86224 41.1667 0.833313 32.1378 0.833313 21C0.833313 9.86227 9.86224 0.833344 21 0.833344C32.1377 0.833344 41.1666 9.86227 41.1666 21C41.1666 32.1378 32.1377 41.1667 21 41.1667ZM34.5657 30.3952C36.4158 27.7289 37.5 24.4911 37.5 21C37.5 11.8873 30.1127 4.50001 21 4.50001C11.8873 4.50001 4.49998 11.8873 4.49998 21C4.49998 24.4911 5.58418 27.7289 7.43424 30.3952C9.49756 27.6698 14.3461 26.5 21 26.5C27.6539 26.5 32.5024 27.6698 34.5657 30.3952ZM31.9352 33.3562C31.3986 31.4268 27.5438 30.1667 21 30.1667C14.4561 30.1667 10.6013 31.4268 10.0647 33.3562C12.976 35.9347 16.8052 37.5 21 37.5C25.1948 37.5 29.0239 35.9347 31.9352 33.3562Z" fill="#D8D8D8"/>
</svg>
