<svg width="20" height="20" viewBox="0 0 20 20" fill="none" xmlns="http://www.w3.org/2000/svg">
<path d="M13 7C13 5.3 11.7 4 10 4C8.3 4 7 5.3 7 7C7 8.7 8.3 10 10 10C11.7 10 13 8.7 13 7ZM9 7C9 6.4 9.4 6 10 6C10.6 6 11 6.4 11 7C11 7.6 10.6 8 10 8C9.4 8 9 7.6 9 7Z" fill="#808080"/>
<path d="M8.9 16.3L10 17.3L11.1 16.3C15 12.8 17 9.8 17 7C17 3 13.9 0 10 0C6.1 0 3 3 3 7C3 9.8 5 12.8 8.9 16.3ZM10 2C12.8 2 15 4.1 15 7C15 9 13.4 11.6 10 14.6C6.6 11.6 5 9 5 7C5 4.1 7.2 2 10 2Z" fill="#808080"/>
<path d="M16.3 12.8C15.9 13.4 15.4 13.9 14.9 14.5C16.8 14.9 18 15.5 18 16C18 16.8 14.4 18 10 18C5.6 18 2 16.8 2 16C2 15.5 3.2 14.9 5.1 14.5C4.6 13.9 4.1 13.3 3.7 12.8C1.4 13.5 0 14.6 0 16C0 18.5 4.5 20 10 20C15.5 20 20 18.5 20 16C20 14.6 18.6 13.5 16.3 12.8Z" fill="#808080"/>
</svg>
