<svg width="14" height="14" viewBox="0 0 14 14" fill="none" xmlns="http://www.w3.org/2000/svg">
<path fill-rule="evenodd" clip-rule="evenodd" d="M9.95889 0.333332C10.3954 0.333332 10.8138 0.507612 11.1194 0.815614L13.1867 2.88288C13.4944 3.19066 13.6674 3.60811 13.6674 4.04339C13.6674 4.47866 13.4944 4.89611 13.1867 5.20389L5.63899 12.7492C5.17333 13.2863 4.51325 13.6164 3.75705 13.6682H0.333984V13.0016L0.336149 10.1915C0.392943 9.48856 0.719762 8.83489 1.21832 8.39561L8.79758 0.816418C9.10491 0.507218 9.52289 0.333332 9.95889 0.333332ZM3.70997 12.3365C4.06612 12.3113 4.39764 12.1456 4.66385 11.8411L9.70511 6.79981L7.2022 4.2968L2.13139 9.36639C1.86129 9.60528 1.69419 9.93949 1.66732 10.2452V12.3353L3.70997 12.3365ZM8.14512 3.3541L10.6479 5.857L12.2438 4.26108C12.3016 4.20334 12.334 4.12504 12.334 4.04339C12.334 3.96173 12.3016 3.88343 12.2438 3.82569L10.1747 1.75657C10.1176 1.69903 10.0399 1.66667 9.95889 1.66667C9.87783 1.66667 9.80013 1.69903 9.74304 1.75657L8.14512 3.3541Z" fill="#111111"/>
</svg>
