<svg width="16" height="19" viewBox="0 0 16 19" fill="none" xmlns="http://www.w3.org/2000/svg">
<path d="M11.9472 4.49725C12.3606 4.49725 12.6957 4.16497 12.6957 3.75506V1.83239C12.6957 0.82201 11.8575 0 10.8273 0H1.86835C0.838161 0 0 0.82201 0 1.83239V17.1676C0 18.178 0.838161 19 1.86835 19H10.8273C11.8575 19 12.6957 18.178 12.6957 17.1676V15.2449C12.6957 14.8351 12.3605 14.5028 11.9472 14.5028C11.5338 14.5028 11.1987 14.8351 11.1987 15.245V17.1677C11.1987 17.3595 11.0321 17.5157 10.8273 17.5157H1.86835C1.66356 17.5157 1.49698 17.3595 1.49698 17.1677V1.83239C1.49698 1.64049 1.66356 1.48438 1.86835 1.48438H10.8273C11.0321 1.48438 11.1987 1.64049 11.1987 1.83239V3.75506C11.1987 4.16497 11.5338 4.49725 11.9472 4.49725Z" fill="#B0B0B0"/>
<path d="M15.7753 8.96071L11.8139 5.05048C11.5196 4.75993 11.0484 4.76592 10.7614 5.06385C10.4744 5.36172 10.4803 5.83874 10.7747 6.12921L13.4263 8.74667H6.30951C5.89842 8.74667 5.56519 9.08397 5.56519 9.50008C5.56519 9.91619 5.89842 10.2535 6.30951 10.2535H13.4263L10.7747 12.8709C10.4803 13.1614 10.4744 13.6384 10.7614 13.9363C11.0483 14.2341 11.5196 14.2403 11.8139 13.9496L15.7753 10.0394C16.0767 9.74253 16.073 9.25406 15.7753 8.96071Z" fill="#B0B0B0"/>
</svg>
