<svg width="20" height="20" viewBox="0 0 20 20" fill="none" xmlns="http://www.w3.org/2000/svg">
<path fill-rule="evenodd" clip-rule="evenodd" d="M13.6979 1.66669C14.2436 1.66669 14.7666 1.88454 15.1486 2.26954L17.7326 4.85362C18.1174 5.23835 18.3335 5.76016 18.3335 6.30425C18.3335 6.84835 18.1174 7.37015 17.7326 7.75488L8.29807 17.1865C7.716 17.8579 6.89089 18.2705 5.94564 18.3353H1.66681V17.502L1.66952 13.9894C1.74051 13.1107 2.14903 12.2936 2.77222 11.7445L12.2463 2.27054C12.6305 1.88405 13.1529 1.66669 13.6979 1.66669ZM5.88696 16.6707C6.33214 16.6392 6.74654 16.432 7.0793 16.0514L13.3807 9.74995L10.2521 6.62118L3.91372 12.958C3.5761 13.2566 3.36723 13.6744 3.33364 14.0565V16.6691L5.88696 16.6707ZM11.4307 5.44281L14.5592 8.57143L16.5543 6.57637C16.6265 6.5042 16.667 6.40632 16.667 6.30425C16.667 6.20219 16.6265 6.1043 16.5543 6.03213L13.9679 3.44573C13.8965 3.37381 13.7994 3.33335 13.6981 3.33335C13.5968 3.33335 13.4996 3.37381 13.4283 3.44573L11.4307 5.44281Z" fill="#111111"/>
</svg>
