<?xml version="1.0" encoding="utf-8"?>
<!-- Generator: Adobe Illustrator 19.1.0, SVG Export Plug-In . SVG Version: 6.00 Build 0)  -->
<svg version="1.1" id="Слой_1" xmlns="http://www.w3.org/2000/svg" xmlns:xlink="http://www.w3.org/1999/xlink" x="0px" y="0px"
	 viewBox="-386 387.2 226.8 226.8" style="enable-background:new -386 387.2 226.8 226.8;" xml:space="preserve">
<style type="text/css">
	.st0{fill:#727272;}
	.st1{fill:#727272;stroke:#1F1A17;stroke-width:7.424490e-03;}
	.st2{fill:#FFFFFF;stroke:#1F1A17;stroke-width:7.424490e-03;}
</style>
<path id="_154522888" class="st0" d="M-334.4,530.5h59.7v-59.7h-59.7C-334.4,470.8-334.4,530.5-334.4,530.5z M-304.6,476.9
	c8.5,0,17.5,15.2,17.5,28.3c0,10.3-6.1,19.1-17.5,19.1c-11.5,0-17.5-8.8-17.5-19.1C-322.1,492.1-313.1,476.9-304.6,476.9z"/>
<rect x="-270.5" y="470.8" class="st1" width="59.7" height="59.7"/>
<polygon class="st2" points="-266.1,493.5 -259.8,493.5 -257.8,502 -257.7,502 -255.7,493.5 -249.4,493.5 -249.4,507.9 
	-253.6,507.9 -253.6,498.7 -253.6,498.7 -256.1,507.9 -259.4,507.9 -261.9,498.7 -261.9,498.7 -261.9,507.9 -266.1,507.9 
	-266.1,493.5 "/>
<path class="st2" d="M-223.9,498.9c-0.1-0.5-0.5-2.1-2.3-2.1c-2.1,0-2.7,2-2.7,3.9c0,1.9,0.7,3.9,2.7,3.9c1.5,0,2.1-1,2.3-2.4h4.3
	c0,2.9-2.4,6-6.5,6c-4.6,0-7.3-3.3-7.3-7.5c0-4.5,2.9-7.5,7.3-7.5c3.9,0,6.1,2.1,6.5,5.7C-219.6,498.9-223.9,498.9-223.9,498.9z"/>
<polygon class="st2" points="-243,497.2 -247,497.2 -247,493.5 -234.6,493.5 -234.6,497.2 -238.6,497.2 -238.6,507.9 -243,507.9 
	-243,497.2 "/>
</svg>
