<?xml version="1.0" encoding="utf-8"?>
<!-- Generator: Adobe Illustrator 19.1.0, SVG Export Plug-In . SVG Version: 6.00 Build 0)  -->
<svg version="1.1" id="Слой_1" xmlns="http://www.w3.org/2000/svg" xmlns:xlink="http://www.w3.org/1999/xlink" x="0px" y="0px"
	 viewBox="-386 387.2 226.8 226.8" style="enable-background:new -386 387.2 226.8 226.8;" xml:space="preserve">
<style type="text/css">
	.st0{fill:#727272;}
</style>
<g>
	<path id="_154523176" class="st0" d="M-268.7,529.4h8.9c0.8-0.5,4.5-0.9,6-1.2c1.3-0.2,4.1-1.3,5.5-1.9c2.1-0.8,3.1-1.3,4.9-2.2
		c1.9-1,4-0.3,6.6-0.3h0.9c4.5,0,7.8-1.6,10.8-3.2c1.4-0.7,6.8-5.7,7.2-7c-3.6,1.9-7.6,4.7-13.1,4.7h-4.4c-5.9,0-18.8-3.9-24.3-5.5
		c-7-2-16.7-4.1-25.5-4.1h-7.1c-6.2,0-15.8,1.9-20.3,3.7c-4.7,1.9-11.9,5.9-14.4,9.6c0.9-0.2,5-2.4,6.6-3c2.4-1,4.7-1.5,7.4-2.2
		c4.3-1.1,11.8-2,17.1-2c4.6,0,9.9,0.5,13.8,1.1c2.6,0.4,4.2,0.4,6.6,1c1.6,0.4,4.4,1,6.1,1.3c4.2,0.7,8.3,1.9,12.2,2.6
		c3.7,0.7,8.7,2,12.6,2v0.4l-10.6,1.3c-4.6,0.3-17.8-2.4-21.2-3.5c-5.1-1.6-14-3.8-20.4-3.8h-2c-5.7,0-10.2,0.6-14.9,1.5
		c-2.8,0.5-11.1,2.7-12.2,4.2c1.4,0,3.6-1.1,5.5-1.3c2-0.2,3.9-0.4,6.2-0.4h3.3c6.7,0,16.4,1.8,21.7,3.4c1.5,0.4,3.6,0.9,5.1,1.3
		c1.7,0.4,3.3,1.1,4.9,1.3c1.8,0.3,3.1,0.8,5.1,1.1C-273.1,528.7-269.2,529.1-268.7,529.4L-268.7,529.4z"/>
	<path id="_154523272" class="st0" d="M-278.2,494.8c1.1-1.7,2.4-3.9,3-4.7c1.7-2.4,3.5-4.7,5.4-6.9c3.5-4.2,10.4-9.6,16.1-9.6h1.9
		l-0.3,1.2c-0.2,0.9-1.8,3.5-2.3,4.4c-0.5,0.9-1,1.9-1.3,2.9c-1,3-1.6,5.7-1.6,8.9v1.6c0,3,0.5,6.3,1.2,9.2c0.6,2.8,1.9,5.3,2.6,8.1
		l0.3,1.3l-1.3,0c-7.7-0.2-11.4-6.8-11.4-13.9c0-3.1,0.7-5.9,1.4-8.8c-3.9,2.9-6.7,5.8-9.8,10c-3.4,4.7-9.3,9.7-15.5,9.7h-1.7
		l0.8-1.5c1.2-2.3,2.6-4.6,3.3-7.1c0.7-2.5,1.7-6.1,1.7-8.7v-6c0-0.7-0.4-2.1-0.5-2.8c-0.2-1-0.4-1.9-0.6-2.9
		c-0.4-1.7-1.6-4-1.8-5.5l-0.1-1.1l1.1,0c3.4,0.1,6,2.4,7.9,5c1.4,1.9,2.7,7.7,2.4,10.1L-278.2,494.8L-278.2,494.8z"/>
	<path id="_154523368" class="st0" d="M-237.4,512.4c-7.8,0-15.9-6.4-15.9-14.6v-2.2c0-10.1,8.2-22.1,19-22.1h2.4
		c8.2,0,13.2,7.9,13.2,15.4v1.6C-218.6,500.6-226.6,512.4-237.4,512.4L-237.4,512.4z M-246.6,493.2c0,4.5,3.2,11.2,8.3,11.2h2
		c5.8,0,9.9-7.4,9.9-12.6v-1.1c0-2.1-0.8-5.7-2.2-7.3c-1.4-1.5-3.7-3.5-5.9-3.5C-242.2,480-246.6,485.9-246.6,493.2L-246.6,493.2z"
		/>
	<path id="_154523464" class="st0" d="M-305.5,493.3v1.9c0,2.9-1.5,8.4-3.4,10.6c-2.7,3.2-5.9,4.2-10,4.2h-2.8l0.3-1.2
		c0.4-1.5,1.6-3.2,2.3-4.6c0.7-1.6,1.1-3.4,1.9-5c1.2-2.5,1.8-8.4,1.8-11.2v-0.1l0.1-1.1l-0.7-8c-3.2,0.4-5.4,2.5-8.4,3.2l-2.5,0.6
		l1.4-2.1c3.7-5.5,15.8-8.7,22.2-8.7c5.2,0,13,2.1,13,8.6v2C-290.4,488.5-299.9,493.2-305.5,493.3L-305.5,493.3z M-307,477.4
		c0.9,2.1,1.5,4.7,1.5,6.7v4.7c3.6-0.4,8.7-1.8,8.7-6v-0.4c0-3.5-4.3-5-7.2-5h-2.4L-307,477.4L-307,477.4z"/>
</g>
</svg>
