<?xml version="1.0" encoding="utf-8"?>
<!-- Generator: Adobe Illustrator 19.1.0, SVG Export Plug-In . SVG Version: 6.00 Build 0)  -->
<svg version="1.1" id="Слой_1" xmlns="http://www.w3.org/2000/svg" xmlns:xlink="http://www.w3.org/1999/xlink" x="0px" y="0px"
	 viewBox="-386 387.2 226.8 226.8" style="enable-background:new -386 387.2 226.8 226.8;" xml:space="preserve">
<style type="text/css">
	.st0{fill:#727272;}
</style>
<g>
	<path id="_154931112" class="st0" d="M-341.7,496.5c4.2-7.8,11.5-16.3,20.1-19.1c1.8-0.4,4.1-0.9,5.7,0.3c1.4,1,1.6,2.8,1.3,4.4
		c-0.4,1.9-1.7,4.3-3.9,4.6c-0.4,0-0.7-0.1-1-0.4c-0.6-0.5-0.5-1.3-0.4-2.1c0.4-1.5,1.7-3.1,3.3-3.3c0.3-0.2,0.2-0.5,0.1-0.7
		c-0.2-0.3-0.5-0.6-0.9-0.7c-1.7-0.2-3,0.9-4.3,1.8c-5,4-8.7,9.2-11.7,14.4c-2.5,4.6-4.6,9.4-5.2,14.9c-0.3,3.9,0.9,7.8,4.4,9.7
		c3.8,2,8.7,0.7,12.5-0.4l3.5-1.1l6.7-2c6.4-1.9,14.3-2.3,20.6,0.2c3.8,1.6,7.6,3.7,10.1,7.4c0,0.1,0,0.2-0.1,0.2
		c-5.3-1.5-12.3-2.9-17.5-0.4l-0.3-0.1c-1.6-2.6-4.3-4-7.1-4.5c-9-0.9-16.3,3.4-24.7,4.4c-4.3,0.4-8.8,0.3-11.8-3
		c-4.7-4.7-4.1-13-1.9-18.6C-343.6,500.3-342.7,498.4-341.7,496.5L-341.7,496.5z"/>
	<path id="_154931208" class="st0" d="M-329.4,499.3c2.2-4.1,5.6-9.1,10.4-10.6c1.3-0.3,2.6-0.2,3.6,0.7c2,2,1.2,5.5,0.6,7.9
		c0,0.1,0.1,0.3,0.3,0.3c1.8-0.1,3.3-0.9,4.6-2.1c2.8-3.1,5.8-7.2,10.4-6.8c0.9,0.1,1.7,0.6,2.1,1.4c1.2,2.3,0,4.8-1.6,6.6
		c-0.6,0.6-1.4,1-2.2,0.7c-0.3-0.1-0.6-0.5-0.8-0.8c-0.3-1.6,0.6-3.1,1.9-3.9c0.4-0.4,1.5-0.1,1.2-0.9c-0.2-0.3-0.6-0.4-0.9-0.4
		c-2.2,0.9-3.7,3.2-4.9,5.1c-1.6,2.5-2.9,5.2-3.8,8.1c-0.2,1-0.5,2.4,0.1,3.3c0.4,0.6,1.2,0.9,1.9,0.7c2.2-0.9,4.1-2.6,5.8-4.4
		c3.8-4.6,5.9-10.3,11-14c1.6-1.1,3.8-1.9,5.8-0.9c0.3,0.1,0.6,0.5,0.9,0.4c0.3-0.3,0.5-1,1.1-0.8c1.4,0,3,0,4.5,0.1l0.1,0.1l-0.4,1
		l-8,16.2c-0.1,0.2-0.1,0.4-0.1,0.6c0.1,0.2,0.4,0.2,0.6,0.1c1.1-0.7,2-1.9,2.8-2.9c0.7-1,1.3-2,1.8-3c0.2-0.3,0.5-0.7,0.9-0.6
		c0.4,0.1,1-0.1,1.3,0.2c-0.5,1.4-1.3,2.6-2,3.9c-2.2,3.3-5,7.2-9,8.2c-0.7,0.1-1.5,0.1-2-0.4c-0.8-0.6-0.8-1.5-1-2.3
		c-0.1-0.1-0.2-0.1-0.3-0.1c-1.7,1.5-3.4,3.1-5.8,2.8c-0.7-0.2-1.4-0.7-1.8-1.4c-0.6-1.2-0.3-2.7-0.4-4c-0.1-0.2-0.3-0.1-0.3,0
		c-2.6,2.6-5.4,4.8-8.8,5.5c-1.6,0.2-3-0.3-4-1.4c-2.6-3.4-0.5-7.8,0.8-11c0.1-0.2,0-0.4-0.2-0.4c-0.9,0.1-1.8,0.2-2.7,0.4l-0.3,0.3
		c-2.1,3.9-4.4,8-8.1,10.8c-1.6,1.1-3.9,1.9-5.7,0.9c-1.9-1.3-2.1-3.6-1.8-5.8C-331.3,503.8-330.4,501.5-329.4,499.3L-329.4,499.3z
		 M-323.4,499.1c-1.1,2.2-2.2,4.4-2.3,7c0.1,0.5,0.4,1,0.9,1.2c0.6,0.2,1.1-0.2,1.5-0.4c2.1-1.8,3.6-4.3,4.8-6.6
		c0.1-0.2,0.3-0.5,0.1-0.8c-1.3-0.5-2.5-1.4-3.5-2.5l-0.2,0c-0.2,0-0.3,0.2-0.4,0.4C-322.4,497.3-323.4,499.1-323.4,499.1z
		 M-320.1,494.6c0.1,1.2,1.2,2.2,2.2,2.6c0.3,0.1,0.7,0.3,0.9,0c0.4-0.7,0.6-1.5,0.8-2.4c0.2-1.1,0.4-2.5-0.7-3.2
		c-0.3-0.2-0.9-0.2-1.2,0C-319.3,492.1-320.2,493.3-320.1,494.6L-320.1,494.6z M-293.9,503.7c-0.3,1-0.7,2-0.4,3.1
		c0.1,0.2,0.3,0.4,0.5,0.4c0.9,0,1.5-0.8,2-1.4c2.6-3.5,4.5-7.4,6.3-11.2c0.3-0.8,0.8-1.6,0.7-2.5c0-0.2-0.2-0.3-0.4-0.4
		c-0.4-0.2-0.8,0.1-1.1,0.2c-3.4,2.6-5.3,6.4-7,10L-293.9,503.7L-293.9,503.7z"/>
	<path id="_154931304" class="st0" d="M-277.3,493.7c0.8-1.5,1.4-3.1,2.4-4.5c0.4-0.4,1-0.4,1.5-0.5l3.8,0.1l0.2,0.2
		c-0.6,1.5-1.3,3-2.1,4.5c-0.2,0.4-0.6,0.8-1,0.8c-1.6,0-3.2,0.1-4.7,0C-277.5,494.1-277.3,493.9-277.3,493.7L-277.3,493.7z"/>
	<path id="_154931400" class="st0" d="M-273.5,501.5c2.7-5.5,5.9-10.8,10.4-15.5c4.4-4.4,9.2-7.9,14.9-9c1.6-0.2,3.3-0.1,4.5,1
		c0.2,0.2,0.5,0.4,0.8,0.3c4.1-1.7,9.9-2.2,14-0.2c2.4,1.2,4.7,2.7,7,4.1c0.3,0.2,0.2,0.5,0,0.6c-1.3,1.5-2.4,3-3.6,4.5
		c-0.1,0.1-0.3,0.1-0.5,0l-6.1-4.2c-2.8-1.9-6.1-3.3-9.8-2.7c-0.4,0.2-0.2,0.7-0.3,1.1c0.1,3.8-1.3,7.1-3.1,10.1
		c-1.5,2.1-3.2,4.3-5.6,5c-1.1,0.2-2.1-0.1-2.8-1c-1.8-2.8-0.2-6.1,1.1-8.6c1.5-2.7,3.9-5.2,6.4-7.1c0.1-0.1,0.2-0.2,0.1-0.3
		c-0.3-0.3-0.7-0.1-1,0c-4.1,1.4-7.4,5-10.5,8.5c-5.5,6.7-9.6,14-11.9,22c-0.7,3-1.7,7.6,1.3,9.7c2.7,1.4,5.3-0.4,7.3-2.1
		c3.1-3.1,5.1-6.7,6-10.8c0.1-1.2,0.5-2.9-0.6-3.7c-1-0.4-1.8,0.4-2.5,1.1c-1.6,1.9-2.2,4.2-2.5,6.6c-0.7,0.6-1.5,0.9-2.3,1.5
		c-1.4,1-2.8,2.3-3.9,3.6c-0.1,0-0.2-0.1-0.2-0.2c-0.2-4.5,1.4-8.4,3.9-11.8c2-2.3,4.5-4.2,7.6-3.5c1.3,0.4,2.2,1.8,2.5,3
		c0.5,4.2-1.3,7.9-3.2,11.4c-3.1,4.8-7.9,9.7-14.1,9.1c-2.4-0.1-4.6-1.8-5.6-4c-2.3-4.6-0.7-10.6,0.8-15.1L-273.5,501.5
		L-273.5,501.5z M-252.5,493.4c0.1,0.5,0.3,1.1,0.8,1.3c1,0.3,1.9-0.5,2.7-1.1c2.8-3,4.5-6.4,4.9-10.3c0-0.6,0.2-1.3-0.1-1.8
		c-0.2,0-0.5,0.1-0.7,0.2c-1.9,1.3-3.7,3.1-4.9,4.9C-251.2,488.7-252.4,490.8-252.5,493.4L-252.5,493.4z"/>
	<path id="_154931496" class="st0" d="M-248.6,506.6c2.2-3,5.2-6.2,9-6.4c0.9,0,1.8,0.4,2.4,1.2c1.6,2.4,0.3,5.4-0.3,7.8
		c-0.1,0.2,0.1,0.4,0.3,0.4c0.8,0.1,1.7,0,2.3-0.3l0.3-0.4c2.7-7.7,6.7-14.9,11.5-21.7c3-3.9,6.8-8,11.2-9.9c1-0.4,2.6-0.8,3.6,0
		c1.1,0.9,0.8,2.5,0.5,3.7c-0.1,1.1-1.3,1.2-2.1,1.4c0,0-0.1,0-0.1,0c0-0.7,0.4-1.3,0.5-2c0-0.4,0.1-0.7-0.1-1
		c-0.2-0.3-0.6-0.2-0.9-0.1c-1.5,0.7-2.7,2.1-3.9,3.4c-4.3,5-7.4,10.5-10.2,16.1c-0.9,1.9-1.9,3.9-2.7,5.9c0,0.1,0,0.2,0.1,0.3
		c0.7,0,1-0.7,1.6-1c3.8-3.4,6.8-7.3,9.7-11.3c0.6-0.3,1.3-0.3,2-0.3l0.1,0c0,0.5-0.5,1-0.8,1.5c-3.2,4.5-6.7,8.9-11.1,12.9
		l-3.1,2.6c-0.7,0.6-0.7,1.5-1,2.2c-0.6,2-1.2,4-1.3,6.2c0,0.4,0.2,0.7,0.5,0.9c0.8,0.4,1.5-0.4,2.1-1c4.3-4.9,6.1-11,11.4-15.4
		c1.7-1.4,4-2.5,6.2-1.5c0.4,0.1,0.7,0.6,1.1,0.4c0.3-0.2,0.4-0.8,0.8-0.7c1.5,0,3.2-0.1,4.6,0.1c0.1,0.1,0,0.3,0,0.4l-1.1,2.1
		l-6.5,13.2c-0.3,0.6-0.7,1.2-0.6,1.9c0.1,0.3,0.4,0.3,0.7,0.3c1.2-0.7,2.1-1.8,2.9-2.9c0.8-1.1,1.4-2.3,2.2-3.4
		c0.4-0.2,1-0.1,1.4-0.1c0.3,0.3-0.1,0.6-0.1,0.9c-1.9,4-4.6,8.3-8.8,10.5c-1,0.5-2.3,0.9-3.4,0.3c-0.9-0.6-0.8-1.7-1.2-2.5
		c-0.1-0.1-0.3-0.1-0.4,0c-1.7,1.5-3.6,3.3-6,2.6c-1.5-0.7-1.7-2.4-1.8-3.9c-0.1-0.1,0-0.2-0.1-0.2l-0.2,0.1c-1.7,2-3.8,4.6-6.7,4.3
		c-1.1-0.1-2-1.1-2.4-2.1c-1-3.2,0.1-6.6,0.8-9.7c0-0.2-0.2-0.4-0.3-0.4l-2.4,0l-0.4,0.4c-1.8,3.4-3.7,6.8-6.7,9.7
		c-1.6,1.4-3.6,2.6-5.7,1.9c-1.8-0.8-2.3-2.8-2.3-4.6C-253.2,514.4-251.1,510.4-248.6,506.6L-248.6,506.6z M-247.9,517.1
		c0,0.7,0.4,1.3,1,1.6c0.4,0.2,0.9,0,1.3-0.2c2.2-1.7,3.6-4.2,4.8-6.5c0.1-0.2,0.2-0.6-0.1-0.8c-1.2-0.6-2.3-1.5-3.2-2.5
		c-0.1-0.1-0.3-0.1-0.5-0.1c-0.8,1.1-1.4,2.4-2,3.6C-247.2,513.7-247.9,515.3-247.9,517.1L-247.9,517.1z M-242.3,506.3
		c0.1,1.2,1,2.3,2.1,2.7c0.2,0.1,0.6,0.2,0.8-0.1c0.7-1.5,1.3-3.2,0.9-5c-0.1-0.4-0.5-0.8-0.9-1c-0.4-0.1-0.9,0-1.2,0.2
		C-241.7,503.8-242.3,505-242.3,506.3L-242.3,506.3z M-220.9,516.6c0,0.6-0.2,1.3,0.2,1.7c0.2,0.2,0.6,0.3,0.9,0.2
		c1.1-0.6,1.9-1.8,2.6-2.8c2.3-3.6,4.1-7.5,5.7-11.5c0.1-0.3,0.2-0.8-0.2-1.1c-0.9-0.4-1.7,0.6-2.4,1.1c-3.1,3.1-4.7,6.8-6.3,10.5
		L-220.9,516.6L-220.9,516.6z"/>
	<path id="_154931592" class="st0" d="M-216.4,487.7l2.1-2.7l0.3-0.3c6-0.1,10.6-3.7,14.8-7.9c0,0.6-0.3,1.1-0.5,1.6
		c-2.8,6.5-9.4,12.2-16.7,12.3l-1.7,0c-0.3-0.1-0.1-0.4,0-0.5L-216.4,487.7L-216.4,487.7z"/>
	<path id="_154931688" class="st0" d="M-208.9,521.9c0-0.8,0.6-1.4,1.4-1.4c0.8,0,1.4,0.6,1.4,1.4c0,0.8-0.6,1.4-1.4,1.4
		C-208.3,523.4-208.9,522.7-208.9,521.9z M-207.5,523.6c0.9,0,1.7-0.7,1.7-1.7c0-1-0.8-1.7-1.7-1.7c-0.9,0-1.7,0.7-1.7,1.7
		C-209.2,522.9-208.4,523.6-207.5,523.6z M-207.9,522.1h0.3l0.5,0.9h0.3l-0.6-0.9c0.3,0,0.5-0.2,0.5-0.5c0-0.4-0.2-0.6-0.7-0.6h-0.8
		v2h0.3V522.1z M-207.9,521.8v-0.6h0.4c0.2,0,0.4,0,0.4,0.3c0,0.3-0.2,0.3-0.5,0.3H-207.9z"/>
</g>
</svg>
