<?xml version="1.0" encoding="utf-8"?>
<!-- Generator: Adobe Illustrator 19.1.0, SVG Export Plug-In . SVG Version: 6.00 Build 0)  -->
<svg version="1.1" id="Слой_1" xmlns="http://www.w3.org/2000/svg" xmlns:xlink="http://www.w3.org/1999/xlink" x="0px" y="0px"
	 viewBox="-386 387.2 226.8 226.8" style="enable-background:new -386 387.2 226.8 226.8;" xml:space="preserve">
<style type="text/css">
	.st0{fill:#727272;}
</style>
<path id="_154533448" class="st0" d="M-361.5,468.1c4.4,0,5.8,3.2,7,6.3c0.5,1.3,12,32.8,12.3,33.7c0.1,0.3,0,0.7-0.4,0.9
	c-0.4,0.2-6.4,2.5-6.7,2.6c-0.3,0.1-0.7-0.1-0.8-0.4c-0.1-0.3-2.6-7.2-2.9-8c-0.8,0-16.2,0-17,0c-0.3,0.8-2.8,7.6-2.9,8
	c-0.1,0.3-0.5,0.5-0.8,0.4c-0.4-0.1-6.3-2.5-6.7-2.6c-0.3-0.1-0.5-0.5-0.4-0.9c0.4-1.2,11.7-32.1,12.3-33.7
	C-367.4,471.4-365.9,468.1-361.5,468.1L-361.5,468.1z M-381.7,524.4L-381.7,524.4c-0.4,0-0.6,0.3-0.6,0.7v7.3c0,0.4,0.3,0.7,0.6,0.7
	h40.4c0.4,0,0.6-0.3,0.6-0.7v-7.3c0-0.4-0.3-0.7-0.6-0.7H-381.7z M-361.6,478.4L-361.6,478.4l-5.8,17.3h11.6L-361.6,478.4
	C-361.5,478.4-361.6,478.4-361.6,478.4z M-211.2,503.8L-211.2,503.8c0,2-1.1,3.2-3.1,3.2c-0.8,0-1.4,0-2.5-0.3v-5.9
	c0.5-0.1,1.4-0.2,2.5-0.2C-212.2,500.7-211.2,501.7-211.2,503.8L-211.2,503.8z M-207.1,503.5L-207.1,503.5c0-3.6-2.1-6.1-6.6-6.1
	c-1.1,0-1.9,0.1-3,0.4l0-5.2c0.7-0.1,2-0.2,3.4-0.2c1.3,0,3,0.1,4.4,0.3l0.1-3c-1.7-0.4-4.1-0.6-5.9-0.6c-1.8,0-4.7,0.5-6.1,0.8
	l0,19.3c2.1,0.8,4.2,1.1,6.3,1.1C-209.6,510.2-207.1,507.6-207.1,503.5L-207.1,503.5z M-253.5,502.4L-253.5,502.4
	c0,2.7-1.1,4.4-2.8,4.4c-0.7,0-1.1,0-2-0.3v-8.1c0.9-0.4,1.4-0.4,2.2-0.4C-254.4,498-253.5,499.5-253.5,502.4L-253.5,502.4z
	 M-267,502.5L-267,502.5c0-2.9,0.9-4.5,2.6-4.5c0.7,0,1.2,0,2.2,0.4v8.1c-0.8,0.3-1.2,0.3-2,0.3C-266.1,506.9-267,505.2-267,502.5
	L-267,502.5z M-258.3,514.6L-258.3,514.6v-5.3c0.5,0.3,1.5,0.7,3.1,0.7c3.3,0,5.7-2.7,5.7-7.7c0-5.3-2.4-7.6-6.3-7.6
	c-1,0-1.6,0.1-2.5,0.5V489h-3.8v6.3c-0.8-0.4-1.5-0.5-2.5-0.5c-3.9,0-6.3,2.4-6.3,7.7c0,4.9,2.2,7.6,5.7,7.6c1.6,0,2.6-0.4,3.1-0.7
	v5.3H-258.3L-258.3,514.6z M-287.4,509.8L-287.4,509.8v-14.1c-2.1-0.6-3.7-0.9-5.9-0.9c-2.1,0-3.7,0.3-5.8,0.9v7.2
	c0,2,0,2.6-0.2,3.2c-0.2,0.6-0.5,1.2-1.3,1.7l1,2.3c3.1-0.9,4.3-2.2,4.3-6.5v-5.3c1-0.1,1.2-0.2,2-0.2c0.8,0,1,0,2,0.2v11.5
	L-287.4,509.8L-287.4,509.8z M-240,506.7L-240,506.7c-0.8,0.3-1.4,0.4-2.1,0.4c-1.4,0-2.2-0.5-2.2-2c0-1.5,1-2,2.9-2
	c0.5,0,0.9,0.1,1.1,0.1v1.1C-240.2,505.5-240.2,506.3-240,506.7L-240,506.7z M-235.2,508.4L-235.2,508.4c-1-1.5-1.3-2.5-1.3-4.4
	v-3.9c0-2.1-0.2-2.9-0.8-3.7c-0.8-1.1-2.1-1.6-4.5-1.6c-1.7,0-3.4,0.2-4.9,0.6l0.6,2.8c1.1-0.2,2.2-0.3,3-0.3c2.5,0,2.8,0.4,2.8,2.3
	v0.7c-0.6-0.2-1.2-0.3-1.9-0.3c-3.8,0-5.9,1.9-5.9,5c0,2.9,2.2,4.5,4.8,4.5c1,0,2-0.2,2.8-0.5c0.5-0.2,0.7-0.3,1.3-0.8
	c0.4,0.6,1.1,1.1,1.5,1.2L-235.2,508.4L-235.2,508.4z M-197.6,506.7L-197.6,506.7c-0.8,0.3-1.4,0.4-2.1,0.4c-1.4,0-2.2-0.5-2.2-2
	c0-1.5,1-2,2.9-2c0.5,0,0.9,0.1,1.1,0.1v1.1C-197.8,505.5-197.7,506.3-197.6,506.7L-197.6,506.7z M-192.7,508.4L-192.7,508.4
	c-1-1.5-1.3-2.5-1.3-4.4v-3.9c0-2.1-0.2-2.9-0.8-3.7c-0.8-1.1-2.1-1.6-4.5-1.6c-1.7,0-3.4,0.2-4.9,0.6l0.6,2.8
	c1.1-0.2,2.2-0.3,3-0.3c2.5,0,2.8,0.4,2.8,2.3v0.7c-0.6-0.2-1.2-0.3-1.9-0.3c-3.8,0-5.9,1.9-5.9,5c0,2.9,2.2,4.5,4.8,4.5
	c1,0,2-0.2,2.8-0.5c0.5-0.2,0.7-0.3,1.3-0.8c0.4,0.6,1.2,1.1,1.5,1.2L-192.7,508.4L-192.7,508.4z M-276.5,504.8L-276.5,504.8
	c0,1.4-0.5,2.4-2.4,2.4c-0.6,0-0.9,0-1.7-0.2v-4.2c1-0.2,1.1-0.2,1.7-0.2C-277.1,502.5-276.5,503.4-276.5,504.8L-276.5,504.8z
	 M-284.4,495.1L-284.4,495.1l0,14c1.8,0.8,3.8,1.1,5.6,1.1c4.1,0,6.3-2.1,6.3-5.6c0-3.1-1.9-5.1-5.6-5.1c-0.9,0-1.5,0.1-2.5,0.4
	v-4.8H-284.4L-284.4,495.1z M-178.6,509.8L-178.6,509.8v-14.6h-3.8v5.5h-4.4v-5.5h-3.8v14.6h3.8v-6h4.4v6H-178.6z M-162.9,509.8
	L-162.9,509.8c0,0-2.1-4.5-2.6-5.5c-0.6-1.1-1.1-1.9-2.3-2.2V502c0.8-0.1,1.4-0.6,2.1-2.1c0.7-1.4,0.9-1.7,1.2-2.1
	c0.4-0.3,0.9-0.2,0.9-0.2l0.2-2.7c-0.6-0.1-1.2-0.1-1.8,0c-1,0.1-1.6,0.4-2.1,0.9c-0.4,0.4-0.7,1-1,1.7c-0.4,0.7-0.6,1.3-1,2.1
	c-0.4,0.8-0.6,1.1-1.5,1.1h-0.6v-5.5h-3.9v14.6h3.9v-6l0.5,0c1.1,0,1.3,0.3,1.9,1.4c0.7,1.4,2,4.6,2,4.6L-162.9,509.8L-162.9,509.8z
	 M-306.2,509.8L-306.2,509.8h4.4l-6.7-20.5c-0.7-0.2-1.6-0.4-2.5-0.4c-1,0-1.4,0.1-2.2,0.4l-7.1,20.5h4.2c0,0,0.6-1.8,1.3-4h7.3
	C-306.8,508-306.2,509.8-306.2,509.8L-306.2,509.8z M-313.7,502.4L-313.7,502.4c0,0,1.2-4.1,1.4-4.7c0.5-1.7,1.2-4.3,1.2-4.3h0.1
	c0,0,0.7,2.7,1.1,4.3c0.2,0.6,1.3,4.8,1.3,4.8H-313.7z M-228.6,500.1L-228.6,500.1c-1.4,0-2.5,1.1-2.5,2.5c0,1.4,1.1,2.5,2.5,2.5
	c1.4,0,2.5-1.1,2.5-2.5C-226.2,501.2-227.3,500.1-228.6,500.1z"/>
</svg>
