<?xml version="1.0" encoding="utf-8"?>
<!-- Generator: Adobe Illustrator 19.1.0, SVG Export Plug-In . SVG Version: 6.00 Build 0)  -->
<svg version="1.1" id="Слой_1" xmlns="http://www.w3.org/2000/svg" xmlns:xlink="http://www.w3.org/1999/xlink" x="0px" y="0px"
	 viewBox="-386 387.2 226.8 226.8" style="enable-background:new -386 387.2 226.8 226.8;" xml:space="preserve">
<style type="text/css">
	.st0{fill:#727272;}
	.st1{fill:#FFFFFF;}
</style>
<rect x="-364.5" y="470" class="st0" width="45" height="45"/>
<path class="st1" d="M-324.6,478.5l-5,8.2c-0.6,0.9-0.5,1.6-0.2,2.3l7.7,19.6h-31.7c-2.8,0-5.1-2.3-5.1-5l0-26.1
	c0.1-3.4,5-3.4,5.1,0l0,24.5c0,0.8,0.7,1.7,1.6,1.6l23.3,0l-6-14.2c-0.2-0.5-0.3-1.1-0.3-1.6c0-0.6,0.3-1.6,0.7-2.3l5.5-9.1
	c0.4-0.8,1.2-1.4,2.2-1.4c1.4-0.1,2.6,0.9,2.6,2.3C-324.3,477.6-324.4,478.2-324.6,478.5L-324.6,478.5L-324.6,478.5z"/>
<path class="st1" d="M-342.1,495v-17.5c0-3.4,5-3.4,5,0l0,17.7c0,4-3,6.7-6.7,6.7c-3.7,0-6.7-2.7-6.7-6.7l0-17.7c0-3.4,5-3.4,5,0
	l0,17.5C-345.5,497.4-342.1,497.5-342.1,495L-342.1,495z"/>
<path id="_116252072" class="st0" d="M-293.2,473.9v21h-5.9v-16h-4.2v8.3c0,3-0.3,8-7.6,8c-0.9,0-1.5,0-2.5-0.3l0-5
	c0.4,0.1,0.9,0.2,1.3,0.2c2.6,0,2.9-1.6,2.9-4.6l0-11.6H-293.2L-293.2,473.9z"/>
<polygon id="_116252000" class="st0" points="-284.1,473.9 -280,482.7 -276.6,473.9 -270.2,473.9 -279.7,494.9 -286,494.9 
	-283.1,489.1 -291,473.9 "/>
<polygon id="_116251928" class="st0" points="-268.3,473.9 -262.4,473.9 -262.4,482.7 -256.1,473.9 -249.2,473.9 -257.2,484 
	-249,494.9 -256.3,494.9 -262.4,485.8 -262.4,494.9 -268.3,494.9 "/>
<path id="_116251856" class="st0" d="M-217,473.9v12.6l8.1-12.6h5.8v21h-5.7v-12.6l-8.1,12.6h-5.8v-21H-217L-217,473.9z
	 M-206.6,469.4c-1.1,2.5-3.8,3.4-6.3,3.4c-2.5,0-5.2-0.9-6.3-3.4l3.4-1.3c0.5,1.4,1.9,1.8,2.9,1.8c1.1,0,2.4-0.3,2.9-1.8
	L-206.6,469.4L-206.6,469.4z"/>
<path id="_116251784" class="st0" d="M-180.7,473.9v21h-5.9v-16h-4.2v8.3c0,3-0.3,8-7.6,8c-0.9,0-1.5,0-2.5-0.3l0-5
	c0.4,0.1,0.9,0.2,1.3,0.2c2.6,0,2.9-1.6,2.9-4.6l0-11.6H-180.7L-180.7,473.9z"/>
<path id="_116251712" class="st0" d="M-248.7,484.4c0-5.8,3.7-11.4,11.6-11.4c7.9,0,11.6,5.6,11.6,11.4c0,5.8-3.7,11.4-11.6,11.4
	C-245,495.8-248.7,490.1-248.7,484.4z M-231.8,484.4c0-4.2-2.6-6.2-5.4-6.2c-2.8,0-5.4,2.1-5.4,6.2c0,4.2,2.6,6.2,5.4,6.2
	C-234.3,490.6-231.8,488.5-231.8,484.4z"/>
<polygon id="_116251640" class="st0" points="-311.8,503.6 -308.4,503.6 -308.4,500.5 -307.2,500.5 -307.2,508.5 -308.4,508.5 
	-308.4,504.8 -311.8,504.8 -311.8,508.5 -313.1,508.5 -313.1,500.5 -311.8,500.5 "/>
<polygon id="_116251568" class="st0" points="-300.4,501.6 -303.6,501.6 -303.6,503.6 -300.5,503.6 -300.5,504.7 -303.6,504.7 
	-303.6,507.4 -300.4,507.4 -300.4,508.5 -304.8,508.5 -304.8,500.5 -300.4,500.5 "/>
<path id="_116251496" class="st0" d="M-294.9,507.4h-0.2c-2.5,0-3.6-1.4-3.6-3.1c0-3.1,3-3.1,3.6-3.1l0.2,0v-1h1.2v1h0.2
	c0.5,0,3.5,0,3.5,3.1c0,1.7-1.1,3.1-3.6,3.1l-0.2,0v1.1h-1.2L-294.9,507.4L-294.9,507.4z M-294.9,502.3h-0.2c-1.6,0-2.3,0.9-2.3,2
	c0,1.1,0.7,2,2.3,2l0.2,0V502.3L-294.9,502.3z M-293.7,506.2h0.2c1.6,0,2.3-0.9,2.3-2c0-1.1-0.7-2-2.3-2l-0.2,0V506.2L-293.7,506.2z
	"/>
<polygon id="_116251424" class="st0" points="-285.7,501.6 -285.7,508.5 -286.9,508.5 -286.9,501.6 -288.7,501.6 -288.7,500.5 
	-283.8,500.5 -283.8,501.6 "/>
<path id="_116251352" class="st0" d="M-280.5,505.2c-0.4,0-0.9-0.2-1.2-0.5c-0.6-0.5-0.7-1.1-0.7-1.7c0-0.7,0.2-1.2,0.6-1.7
	c0.7-0.8,1.6-0.8,2.2-0.8l2,0v8h-1.2v-3.2h-0.3l-2.2,3.2h-1.5L-280.5,505.2L-280.5,505.2z M-279.5,501.6c-0.5,0-1.1,0.1-1.4,0.4
	c-0.2,0.2-0.3,0.6-0.3,0.9c0,0.4,0.1,0.8,0.4,1c0.1,0.1,0.5,0.3,1.2,0.3l0.7,0v-2.5H-279.5L-279.5,501.6z"/>
<polygon id="_116251280" class="st0" points="-274.1,503.6 -270.7,503.6 -270.7,500.5 -269.4,500.5 -269.4,508.5 -270.7,508.5 
	-270.7,504.8 -274.1,504.8 -274.1,508.5 -275.3,508.5 -275.3,500.5 -274.1,500.5 "/>
<path id="_116251208" class="st0" d="M-262.3,506.6h-3.4l-0.9,1.9h-1.3l4-8.5l3.8,8.5h-1.3L-262.3,506.6L-262.3,506.6z
	 M-262.8,505.4l-1.2-2.7l-1.2,2.7H-262.8z"/>
<path id="_116251136" class="st0" d="M-256.9,505.2c-0.4,0-0.9-0.2-1.2-0.5c-0.6-0.5-0.7-1.1-0.7-1.7c0-0.7,0.2-1.2,0.6-1.7
	c0.7-0.8,1.6-0.8,2.2-0.8l2,0v8h-1.2v-3.2h-0.3l-2.2,3.2h-1.5L-256.9,505.2L-256.9,505.2z M-255.9,501.6c-0.5,0-1.1,0.1-1.4,0.4
	c-0.2,0.2-0.3,0.6-0.3,0.9c0,0.4,0.1,0.8,0.4,1c0.1,0.1,0.5,0.3,1.2,0.3l0.7,0v-2.5H-255.9L-255.9,501.6z"/>
<polygon id="_116251064" class="st0" points="-245.5,503.7 -242.4,500.5 -240.8,500.5 -244.4,504.1 -240.8,508.5 -242.4,508.5 
	-245.5,504.7 -245.5,508.5 -246.7,508.5 -246.7,500.5 -245.5,500.5 "/>
<path id="_116250992" class="st0" d="M-231.6,504.5c0,2.3-1.8,4.2-4.2,4.2c-2.4,0-4.2-1.8-4.2-4.1c0-2.4,1.8-4.2,4.2-4.2
	C-233.4,500.3-231.6,502.2-231.6,504.5L-231.6,504.5L-231.6,504.5z M-232.9,504.5c0-1.8-1.2-3-2.9-3c-1.7,0-2.9,1.3-2.9,3
	c0,1.8,1.2,3,2.9,3C-234.1,507.5-232.9,506.3-232.9,504.5L-232.9,504.5z"/>
<polygon id="_116250920" class="st0" points="-230.1,508.5 -228.5,499.9 -225.7,506.1 -222.9,499.9 -221.4,508.5 -222.6,508.5 
	-223.4,503.7 -225.8,508.9 -228.1,503.7 -228.9,508.5 "/>
<polygon id="_116250848" class="st0" points="-213.3,500.5 -213.3,508.5 -214.6,508.5 -214.6,501.6 -218,501.6 -218,508.5 
	-219.2,508.5 -219.2,500.5 "/>
<path id="_116250776" class="st0" d="M-206.2,506.6h-3.4l-0.9,1.9h-1.3l4-8.5l3.8,8.5h-1.3L-206.2,506.6L-206.2,506.6z
	 M-206.7,505.4l-1.2-2.7l-1.2,2.7H-206.7z"/>
<polygon id="_116250704" class="st0" points="-201.3,503.6 -197.9,503.6 -197.9,500.5 -196.7,500.5 -196.7,508.5 -197.9,508.5 
	-197.9,504.8 -201.3,504.8 -201.3,508.5 -202.5,508.5 -202.5,500.5 -201.3,500.5 "/>
<polygon id="_116250632" class="st0" points="-188.9,503.1 -194.3,508.8 -194.3,500.5 -193,500.5 -193,505.9 -187.6,500.2 
	-187.6,508.5 -188.9,508.5 "/>
<path id="_116249624" class="st0" d="M-183.5,505.2c-0.4,0-0.9-0.2-1.2-0.5c-0.6-0.5-0.7-1.1-0.7-1.7c0-0.7,0.2-1.2,0.6-1.7
	c0.7-0.8,1.6-0.8,2.2-0.8l2,0v8h-1.2v-3.2h-0.3l-2.2,3.2h-1.5L-183.5,505.2L-183.5,505.2z M-182.5,501.6c-0.5,0-1.1,0.1-1.4,0.4
	c-0.2,0.2-0.3,0.6-0.3,0.9c0,0.4,0.1,0.8,0.4,1c0.2,0.1,0.5,0.3,1.2,0.3l0.7,0v-2.5H-182.5L-182.5,501.6z"/>
<path id="_116250488" class="st0" d="M-364.5,527.4c0-1.3,0.4-2.3,1-3.1c0.7-0.7,1.7-1.1,2.9-1.1c1.3,0,2.3,0.4,3,1.1
	c0.7,0.7,1,1.7,1,3c0,0.9-0.2,1.7-0.5,2.3c-0.3,0.6-0.7,1.1-1.3,1.4c-0.6,0.3-1.3,0.5-2.1,0.5c-0.9,0-1.6-0.1-2.2-0.4
	c-0.6-0.3-1-0.7-1.4-1.4C-364.4,529.1-364.5,528.3-364.5,527.4L-364.5,527.4z M-362.2,527.4c0,0.8,0.1,1.4,0.4,1.8
	c0.3,0.4,0.7,0.5,1.2,0.5c0.5,0,0.9-0.2,1.2-0.5c0.3-0.4,0.4-1,0.4-1.9c0-0.8-0.1-1.3-0.4-1.7c-0.3-0.4-0.7-0.5-1.2-0.5
	c-0.5,0-0.9,0.2-1.2,0.5C-362,526-362.2,526.5-362.2,527.4L-362.2,527.4L-362.2,527.4z M-355.6,527.4c0-1.3,0.3-2.3,1-3.1
	c0.7-0.7,1.7-1.1,2.9-1.1c1.3,0,2.3,0.4,3,1.1c0.7,0.7,1,1.7,1,3c0,0.9-0.2,1.7-0.5,2.3c-0.3,0.6-0.7,1.1-1.3,1.4
	c-0.6,0.3-1.3,0.5-2.1,0.5c-0.9,0-1.6-0.1-2.2-0.4c-0.6-0.3-1-0.7-1.4-1.4C-355.4,529.1-355.6,528.3-355.6,527.4L-355.6,527.4z
	 M-353.2,527.4c0,0.8,0.1,1.4,0.4,1.8c0.3,0.4,0.7,0.5,1.2,0.5c0.5,0,0.9-0.2,1.2-0.5c0.3-0.4,0.4-1,0.4-1.9c0-0.8-0.1-1.3-0.4-1.7
	c-0.3-0.4-0.7-0.5-1.2-0.5c-0.5,0-0.9,0.2-1.2,0.5C-353.1,526-353.2,526.5-353.2,527.4L-353.2,527.4L-353.2,527.4z M-346.7,527.4
	c0-1.3,0.3-2.3,1-3.1c0.7-0.7,1.7-1.1,2.9-1.1c1.3,0,2.3,0.4,3,1.1c0.7,0.7,1,1.7,1,3c0,0.9-0.2,1.7-0.5,2.3
	c-0.3,0.6-0.7,1.1-1.3,1.4c-0.6,0.3-1.3,0.5-2.1,0.5c-0.9,0-1.6-0.1-2.1-0.4c-0.6-0.3-1-0.7-1.4-1.4
	C-346.5,529.1-346.7,528.3-346.7,527.4L-346.7,527.4z M-344.3,527.4c0,0.8,0.1,1.4,0.4,1.8c0.3,0.4,0.7,0.5,1.2,0.5
	c0.5,0,0.9-0.2,1.2-0.5c0.3-0.4,0.4-1,0.4-1.9c0-0.8-0.1-1.3-0.4-1.7c-0.3-0.4-0.7-0.5-1.2-0.5c-0.5,0-0.9,0.2-1.2,0.5
	C-344.2,526-344.3,526.5-344.3,527.4L-344.3,527.4z M-329.8,525.9h1.6l-1.4,2.6l1.4,2.5h-1.6l-1.7-2.5L-329.8,525.9z M-332.5,525.9
	h1.6l-1.4,2.6l1.4,2.5h-1.6l-1.7-2.5L-332.5,525.9z M-276.2,527.6h3.1v1.7h-3.1V527.6z"/>
<path id="_116250416" class="st0" d="M-271.2,523.1h4c0.9,0,1.5,0.2,2,0.6c0.4,0.4,0.7,1,0.7,1.8c0,0.8-0.2,1.4-0.7,1.9
	c-0.5,0.4-1.2,0.7-2.2,0.7l-1.3,0v2.9h-2.4V523.1L-271.2,523.1z M-268.8,526.5h0.6c0.5,0,0.8-0.1,1-0.2c0.2-0.2,0.3-0.4,0.3-0.6
	c0-0.3-0.1-0.5-0.2-0.6c-0.2-0.2-0.5-0.3-0.9-0.3l-0.7,0V526.5z M-263.7,528.1c0-0.9,0.3-1.6,0.9-2.1c0.6-0.6,1.4-0.8,2.4-0.8
	c1.1,0,2,0.3,2.6,1c0.5,0.5,0.7,1.2,0.7,2c0,0.9-0.3,1.6-0.9,2.1c-0.6,0.6-1.4,0.8-2.4,0.8c-0.9,0-1.6-0.2-2.2-0.7
	C-263.3,529.8-263.7,529.1-263.7,528.1L-263.7,528.1z M-261.5,528.1c0,0.5,0.1,0.9,0.3,1.1c0.2,0.2,0.5,0.4,0.8,0.4
	c0.3,0,0.6-0.1,0.8-0.4c0.2-0.2,0.3-0.6,0.3-1.2c0-0.5-0.1-0.9-0.3-1.1c-0.2-0.2-0.5-0.4-0.8-0.4c-0.3,0-0.6,0.1-0.8,0.4
	C-261.4,527.3-261.5,527.6-261.5,528.1L-261.5,528.1z M-251.9,528.7l2.1,0.2c-0.1,0.4-0.3,0.8-0.6,1.1c-0.3,0.3-0.6,0.6-1,0.7
	c-0.4,0.2-0.9,0.3-1.5,0.3c-0.6,0-1.1-0.1-1.5-0.2c-0.4-0.1-0.7-0.3-1-0.5c-0.3-0.2-0.5-0.5-0.7-0.9c-0.2-0.3-0.2-0.8-0.2-1.3
	c0-0.6,0.1-1.1,0.3-1.5c0.2-0.3,0.3-0.5,0.6-0.8c0.3-0.2,0.5-0.4,0.8-0.5c0.4-0.2,1-0.3,1.6-0.3c0.9,0,1.6,0.2,2.1,0.5
	c0.5,0.3,0.8,0.8,1,1.5l-2,0.3c-0.1-0.2-0.2-0.4-0.4-0.5c-0.2-0.1-0.4-0.2-0.7-0.2c-0.4,0-0.6,0.1-0.9,0.4c-0.2,0.3-0.3,0.7-0.3,1.2
	c0,0.5,0.1,0.8,0.3,1.1c0.2,0.2,0.5,0.4,0.8,0.4c0.3,0,0.5-0.1,0.7-0.2C-252.2,529.3-252,529.1-251.9,528.7L-251.9,528.7z
	 M-244.1,526.9h-1.6v4.1h-2.2v-4.1h-1.6v-1.6h5.3L-244.1,526.9L-244.1,526.9z M-243.6,528.1c0-0.9,0.3-1.6,0.9-2.1
	c0.6-0.6,1.4-0.8,2.4-0.8c1.1,0,2,0.3,2.6,1c0.5,0.5,0.7,1.2,0.7,2c0,0.9-0.3,1.6-0.9,2.1c-0.6,0.6-1.4,0.8-2.4,0.8
	c-0.9,0-1.6-0.2-2.2-0.7C-243.2,529.8-243.6,529.1-243.6,528.1L-243.6,528.1z M-241.4,528.1c0,0.5,0.1,0.9,0.3,1.1
	c0.2,0.2,0.5,0.4,0.8,0.4c0.3,0,0.6-0.1,0.8-0.4c0.2-0.2,0.3-0.6,0.3-1.2c0-0.5-0.1-0.9-0.3-1.1c-0.2-0.2-0.5-0.4-0.8-0.4
	c-0.3,0-0.6,0.1-0.8,0.4C-241.3,527.3-241.4,527.6-241.4,528.1z M-231.8,527.9c0.4,0,0.8,0.2,1,0.4c0.3,0.2,0.4,0.6,0.4,1
	c0,0.5-0.2,0.9-0.5,1.2c-0.4,0.3-1,0.4-1.9,0.4l-3.2,0v-5.7h3.5c0.6,0,1.1,0.1,1.4,0.4c0.3,0.2,0.5,0.6,0.5,1c0,0.3-0.1,0.6-0.3,0.8
	C-231.1,527.7-231.4,527.9-231.8,527.9L-231.8,527.9L-231.8,527.9z M-233.9,527.5h0.6c0.4,0,0.5-0.2,0.5-0.5c0-0.3-0.2-0.4-0.6-0.4
	l-0.5,0V527.5z M-233.9,529.6h0.7c0.2,0,0.3,0,0.4-0.1c0.1-0.1,0.2-0.2,0.2-0.4c0-0.3-0.2-0.5-0.6-0.5l-0.7,0V529.6z M-229.5,527.1
	c0.2-0.7,0.6-1.2,1.1-1.5c0.5-0.3,1.2-0.5,2.1-0.5c0.7,0,1.2,0.1,1.6,0.3c0.4,0.2,0.8,0.5,1.2,0.9c0.3,0.4,0.5,1,0.5,1.8
	c0,0.9-0.3,1.6-0.8,2.1c-0.5,0.5-1.4,0.8-2.7,0.8c-1.7,0-2.7-0.7-3.1-2.1l2.1-0.2c0.2,0.6,0.6,0.9,1.2,0.9c0.6,0,1-0.3,1.1-0.9
	l-1.7,0v-1.1h1.6c-0.2-0.6-0.5-0.9-1.1-0.9c-0.6,0-0.9,0.2-1,0.7L-229.5,527.1L-229.5,527.1z M-215.6,531h-2.2v-2.1h-2v2.1h-2.2
	v-5.7h2.2v1.9h2v-1.9h2.2V531L-215.6,531z M-207.9,528.7h-4.3c0,0.4,0.1,0.6,0.3,0.8c0.2,0.2,0.5,0.4,0.8,0.4c0.2,0,0.4-0.1,0.6-0.2
	c0.1-0.1,0.2-0.2,0.4-0.4l2.1,0.2c-0.3,0.6-0.7,1-1.2,1.2c-0.5,0.2-1.1,0.4-2,0.4c-0.8,0-1.3-0.1-1.8-0.3c-0.4-0.2-0.8-0.6-1.1-1
	c-0.3-0.5-0.4-1-0.4-1.6c0-0.9,0.3-1.6,0.9-2.2c0.6-0.6,1.4-0.8,2.4-0.8c0.8,0,1.4,0.1,1.9,0.4c0.5,0.2,0.8,0.6,1.1,1.1
	c0.2,0.5,0.4,1.1,0.4,1.8L-207.9,528.7L-207.9,528.7z M-210.2,527.6c0-0.4-0.2-0.7-0.3-0.9c-0.2-0.2-0.4-0.3-0.7-0.3
	c-0.3,0-0.6,0.1-0.8,0.4c-0.1,0.2-0.2,0.4-0.3,0.8L-210.2,527.6L-210.2,527.6z M-206.9,533.1v-7.8h2v0.8c0.3-0.4,0.5-0.6,0.8-0.7
	c0.3-0.2,0.7-0.3,1-0.3c0.8,0,1.3,0.3,1.8,0.9c0.4,0.6,0.6,1.3,0.6,2.2c0,0.9-0.2,1.7-0.7,2.2c-0.5,0.5-1,0.7-1.7,0.7
	c-0.3,0-0.6-0.1-0.9-0.2c-0.3-0.1-0.5-0.3-0.7-0.5l0,2.7H-206.9L-206.9,533.1z M-204.8,528.1c0,0.4,0.1,0.8,0.3,1
	c0.2,0.2,0.4,0.3,0.7,0.3c0.3,0,0.5-0.1,0.6-0.3c0.2-0.2,0.3-0.6,0.3-1.1c0-0.5-0.1-0.8-0.3-1c-0.2-0.2-0.4-0.3-0.7-0.3
	c-0.3,0-0.5,0.1-0.7,0.3C-204.7,527.3-204.8,527.7-204.8,528.1L-204.8,528.1z M-195,526.9h-2.4v4.1h-2.2v-5.7h4.6V526.9L-195,526.9z
	 M-194.4,528.1c0-0.9,0.3-1.6,0.9-2.1c0.6-0.6,1.4-0.8,2.4-0.8c1.1,0,2,0.3,2.6,1c0.5,0.5,0.7,1.2,0.7,2c0,0.9-0.3,1.6-0.9,2.1
	c-0.6,0.6-1.4,0.8-2.4,0.8c-0.9,0-1.6-0.2-2.2-0.7C-194,529.8-194.4,529.1-194.4,528.1L-194.4,528.1z M-192.2,528.1
	c0,0.5,0.1,0.9,0.3,1.1c0.2,0.2,0.5,0.4,0.8,0.4c0.3,0,0.6-0.1,0.8-0.4c0.2-0.2,0.3-0.6,0.3-1.2c0-0.5-0.1-0.9-0.3-1.1
	c-0.2-0.2-0.5-0.4-0.7-0.4c-0.3,0-0.6,0.1-0.8,0.4C-192.1,527.3-192.2,527.6-192.2,528.1L-192.2,528.1z M-185.2,525.6h-1.7l1.5,2.5
	l-1.5,2.5h1.7l1.7-2.5L-185.2,525.6z M-182.4,525.6h-1.7l1.5,2.5l-1.5,2.5h1.7l1.7-2.5L-182.4,525.6z"/>
<polygon id="_116250008" class="st0" points="-364.4,518.3 -180.7,518.3 -180.7,519.4 -364.4,519.4 "/>
<path id="_116249936" class="st0" d="M-320,523.4v7.9h-2.2v-6h-1.6v3.1c0,1.1-0.1,3-2.9,3c-0.3,0-0.6,0-0.9-0.1v-1.9
	c0.2,0,0.3,0.1,0.5,0.1c1,0,1.1-0.6,1.1-1.7l0-4.4L-320,523.4L-320,523.4z"/>
<polygon id="_116249696" class="st0" points="-316.6,523.4 -315,526.7 -313.7,523.4 -311.4,523.4 -314.9,531.2 -317.3,531.2 
	-316.2,529.1 -319.2,523.4 "/>
<polygon id="_116250152" class="st0" points="-310.6,523.4 -308.4,523.4 -308.4,526.7 -306,523.4 -303.4,523.4 -306.4,527.2 
	-303.4,531.2 -306.1,531.2 -308.4,527.8 -308.4,531.2 -310.6,531.2 "/>
<path id="_116249552" class="st0" d="M-291.4,523.4v4.7l3.1-4.7h2.2v7.9h-2.1v-4.7l-3.1,4.7h-2.2v-7.9
	C-293.5,523.4-291.4,523.4-291.4,523.4z M-287.5,521.7c-0.4,0.9-1.4,1.3-2.4,1.3c-0.9,0-1.9-0.3-2.4-1.3l1.3-0.5
	c0.2,0.5,0.7,0.7,1.1,0.7c0.4,0,0.9-0.1,1.1-0.7L-287.5,521.7z"/>
<path id="_116248952" class="st0" d="M-277.8,523.4v7.9h-2.2v-6h-1.6v3.1c0,1.1-0.1,3-2.9,3c-0.3,0-0.6,0-0.9-0.1l0-1.9
	c0.2,0,0.3,0.1,0.5,0.1c1,0,1.1-0.6,1.1-1.7l0-4.4L-277.8,523.4L-277.8,523.4z"/>
<path id="_116249168" class="st0" d="M-303.3,527.3c0-2.2,1.4-4.3,4.3-4.3c3,0,4.3,2.1,4.3,4.3c0,2.2-1.4,4.3-4.3,4.3
	C-301.9,531.6-303.3,529.5-303.3,527.3L-303.3,527.3z M-296.9,527.3c0-1.6-1-2.3-2-2.3c-1,0-2,0.8-2,2.3c0,1.6,1,2.3,2,2.3
	C-297.9,529.6-296.9,528.9-296.9,527.3C-296.9,527.3-296.9,527.3-296.9,527.3z"/>
</svg>
