<?xml version="1.0" encoding="utf-8"?>
<!-- Generator: Adobe Illustrator 19.1.0, SVG Export Plug-In . SVG Version: 6.00 Build 0)  -->
<svg version="1.1" id="Слой_1" xmlns="http://www.w3.org/2000/svg" xmlns:xlink="http://www.w3.org/1999/xlink" x="0px" y="0px"
	 viewBox="-386 387.2 226.8 226.8" style="enable-background:new -386 387.2 226.8 226.8;" xml:space="preserve">
<style type="text/css">
	.st0{fill:#727272;}
</style>
<g>
	<path id="_151650872" class="st0" d="M-250.2,538.3c1.9,0.3,14.5-2.7,19.8-0.6c0.4,0.2,0.1,1,0.1,1c-4.2-1.4-15,0.9-19.1,0.9
		L-250.2,538.3L-250.2,538.3z"/>
	<polygon id="_151650968" class="st0" points="-313.3,522.9 -231.8,522.9 -272.6,482.2 	"/>
	<path id="_151651064" class="st0" d="M-276,532.8c0.5,0,0.9-0.6,0.9-1.1c0-0.3-0.2-0.4-0.4-0.4c-0.5,0.1-1,0.5-1,1
		C-276.5,532.6-276.3,532.9-276,532.8z"/>
	<path id="_151651160" class="st0" d="M-275.3,535.5c-0.5,0.4-1.4,1.4-2.1,1.5c-0.6,0.1-0.6-1.3,1.1-3.1c0.2-0.3-0.3-0.6-0.4-0.7
		c-0.3-0.2-1.8,1.2-2.2,2.6c-1.3,1-2,1.4-2.2,1.2c-0.3-0.2,0.3-1.1,1.3-2.3c0.2-0.2,0.4-0.4,0.4-0.7c0-0.2-0.1-0.4-0.3-0.5
		c0-0.1-0.2-0.4-0.3-0.4c-0.2,0-0.5,0.3-0.6,0.4l-2.8,2.4l-0.6,0.6c0.3-0.6,1.6-2.3,1.6-2.8c-0.1-0.4-0.3-0.6-0.6-0.6
		c-0.9,0-3.1,2.5-3.7,3.2c0,0-0.2,0.2-0.3,0.2c-0.1,0-0.1-0.1-0.1-0.1c-0.1-0.3,0.2-0.5,0.3-0.8c0.2-0.3,0.4-0.5,0.7-0.8
		c0.1-0.2,0.4-0.4,0.1-1.4c-0.2-0.6-1.4,0.9-2,2.2c-0.5,0.5-1.4,1.5-1.9,1.6c-0.2,0-0.1-0.4-0.1-0.6c0.2-0.6,0.6-1.7,0.8-2.1
		c0.1-0.4,0.1-0.6-0.1-0.8c-0.1-0.2-0.4-0.5-1-0.4c-0.6,0.1-1.2,0.3-1.7,0.6c-1.3,0.6-2.3,1.6-2.5,2.8c-0.6,0.7-1.5,1.6-2.2,1.7
		c-0.1,0,0.4-1.4,0.8-2.1c1-2.3,2.4-3.9,2.4-4.6c-0.1-0.6-0.9-1.1-1.1-1.1c-0.3,0-1.1,0.7-1.4,0.9c-1.6,1.6-0.6,0.7-3.6,4.5
		l-0.1-0.1c1.4-2.8,2.1-3.9,2.1-4.9c0-0.4-0.4-0.6-0.8-0.6c-0.9,0-2.3,0.8-3.1,1.3c0,0-1.6,0.8-1.9,2.3c-0.1,0.1,0,0.3,0.3,0.3
		c0.1,0,0.3-0.1,0.3-0.2c1.9-1.4,3.2-2.1,3.6-2.1c0.2,0,0.2,0.3,0.2,0.4c0.1,0.7-2,4.8-2.4,5.5c-0.1,0.1-0.1,0.2-0.1,0.3
		c0,0.3,0.7,0.7,1,0.7c0.1,0,0.3-0.3,0.3-0.3c2.4-3.6,2-3.1,4.8-6.1l0.3-0.4l-2.1,4.2c-0.3,0.6-0.6,1.4-0.5,2c0,0.5,0.3,1,0.8,1
		c0.4-0.1,1.3-0.5,2.5-1.9c0.2,1.6,1.2,1.4,1.6,1.2c0.4-0.3,0.8-0.6,1-0.8c0.1-0.1,0.2-0.3,0.3-0.3l0.9-1.3
		c-0.1,0.4-0.3,1.1-0.2,1.5c0.1,0.4,0.3,0.7,0.8,0.6c0.4-0.1,1.3-0.9,1.9-1.7c0,0,0,0,0,0c0.1,0.4,0.3,1.4,0.9,1.4
		c0.2-0.1,0.4-0.3,0.5-0.4c0.6-0.8,1.3-1.6,1.9-2.4c0.1-0.1,0.4-0.4,0.5-0.4c0,0,0.1,0,0.1,0.1c0,0.1-0.1,0.1-0.1,0.2
		c-0.8,1.3-1.1,1.9-1,2.3c0,0.3,0.3,0.6,0.6,0.5c0.4,0,0.9-0.6,1.2-0.9l2-2c-0.3,0.6-0.9,1.6-0.9,2.2c0.1,0.4,0.3,0.8,0.8,0.8
		c0.5,0,1.8-1.1,2.6-1.8c0.1,0.6,0.5,1.5,1.2,1.5c0.9-0.1,2.1-1.3,2.6-2.1L-275.3,535.5L-275.3,535.5z M-290.1,534.6
		c-0.6,1.3-1.1,2.1-1.6,2.6c-0.6,0.8-1,0.9-1.2,0.9c-0.1,0.1-0.3-0.1-0.4-0.3c-0.2-0.7,0.4-1.8,1.6-2.6
		C-291.3,534.9-290.8,534.6-290.1,534.6C-290.1,534.5-290.1,534.6-290.1,534.6z"/>
	<path id="_151651256" class="st0" d="M-266.9,533.5c1.1,0.3,1.6,0.9,1.6,1.5c0,2.3-3.7,2.8-5.3,2.8c-0.4,0-1.7,0-1.7-0.7
		c0-0.3,0.4-1.2,0.6-1.1c1.4,1.1,5.3-0.1,5.4-1.1c0-0.6-4.1-0.6-4.5-2c-0.1-0.4-0.1-1.1,0.4-1.8c0.5-0.8,1.7-1.4,3.8-1.6
		c0.4-0.1,0.9-0.1,1.4,0c0.3,0.1,0.4,0.3,0.3,0.4c-0.8,0.9-0.8,0.8-0.8,0.8c-2.8,0.2-3.9,1-3.9,1.5
		C-269.8,532.8-270,532.8-266.9,533.5C-266.9,533.5-266.9,533.5-266.9,533.5z"/>
	<path id="_151651352" class="st0" d="M-231.7,532.1c-0.4,0.5-1.4,1.6-2,1.8c-0.2,0-0.1-0.4-0.1-0.6c0.2-0.6,0.6-1.7,0.8-2.1
		c0.1-0.4,0.1-0.6,0-0.8c-0.1-0.2-0.5-0.5-1.1-0.4c-0.6,0.1-1.2,0.3-1.7,0.6c-1.4,0.7-2.4,1.8-2.6,3.1v0.2c-0.5,0.4-1.1,0.9-1.4,1
		c-0.3,0-0.3-0.6-0.3-0.9c0-0.6,0.6-1.8,1-2.6l1.1-2.2c0.2-0.3,0.4-0.8,0.4-1.1c0-0.3-0.3-0.6-0.4-0.6c0,0-1.6,2.7-2,3.4
		c-0.2-0.1-0.5-0.2-0.8-0.1c-0.3,0-0.6,0.1-0.9,0.3c-1,0.5-2.3,1.5-2.6,2.7c-0.5,0.5-1,1-1.4,1c-0.3,0.1-0.5-0.1-0.5-0.4
		c-0.1-0.2,0-0.8,0.8-2.3c1.7-3,1.9-3.4,1.8-3.6c-0.1-0.3-0.3-0.8-0.6-0.7c-0.4,0-0.9,0.9-3.3,3.8c-0.4,0.5-3.3,3.2-3.3,3.1
		c-0.1-0.4,2.1-3.8,2.4-4.3c0.4-0.6,0.6-0.9,0.8-1.5c0.1-0.6-0.1-1.4-0.8-1.3c-0.7,0.1-2,0.9-2.6,1.3c-1.8,1.3-2.9,3-2.4,3.1
		c0.3,0.1,0.9-0.5,1.1-0.7c1.8-1.4,1.7-1.3,2.6-1.8c0.1-0.1,0.6-0.3,0.6-0.3c0.1,0-0.6,1.4-1.9,3.4c-0.4,0.6-1.3,1.9-1.1,2.6
		c0.1,0.6,0.5,1,1.3,1.1c0.4,0,1.8-1.4,4.4-4.8v0.1l-0.8,1.8c-0.3,0.6-0.5,1.1-0.4,1.8c0.1,0.6,0.4,0.9,1,0.8
		c0.6-0.1,1.5-0.7,2.2-1.4c0.1,0.5,0.3,1.1,1.3,1.2c0.4,0,0.9-0.4,1.3-0.8c0.3-0.4,0.6-0.8,0.8-1.1c-0.2,0.3-0.1,0.8-0.1,1.1
		c0.1,0.4,0.4,0.9,0.9,0.8c0.6,0,1.3-0.6,1.9-1.3c0.3,1.3,1.2,1.2,1.5,1c0.5-0.3,0.8-0.6,1-0.8c0.1-0.1,0.2-0.3,0.3-0.4l0.9-1.2
		c-0.1,0.4-0.3,1.1-0.2,1.5c0.1,0.4,0.3,0.7,0.8,0.6c0.6-0.1,2.1-1.8,2.5-2.6L-231.7,532.1L-231.7,532.1z M-241.7,533.6
		c-0.5,0.6-1,1.1-1.2,1c-0.2-0.1-0.2-0.1-0.2-0.2c-0.2-0.6,0.4-1.6,1.4-2.3c0.3-0.2,0.8-0.4,1.3-0.5c0,0,0.1,0,0.1,0
		C-240.6,532.1-241.2,532.9-241.7,533.6C-241.7,533.6-241.7,533.6-241.7,533.6z M-234.2,531c-0.6,1.3-1.1,2.1-1.6,2.6
		c-0.6,0.8-1,0.9-1.2,0.9c-0.1,0.1-0.3-0.1-0.4-0.3c-0.1-0.7,0.4-1.8,1.6-2.6C-235.4,531.3-234.8,531.1-234.2,531L-234.2,531z"/>
	<path id="_151651448" class="st0" d="M-311.6,540c-1.2,0.2,6-6.2,6-6.9c0-0.4,0.1-0.4-0.2-0.8c-0.4-0.5-6.3,0-6.5,0.1
		c-0.3,0-1.1,1.8-1.1,1.8c0.8,0.1,1.3-0.8,1.3-0.8c0,0,5.8-0.8,4.7-0.1c-1.3,0.7-6.9,7-6.5,7.5c0,0,0,0.4,0.7,0.4
		c0.6,0,6.8-1.1,7.2-1.7c0.3-0.4,0.1-0.8,0.1-0.8C-306.4,539-309.7,539.6-311.6,540L-311.6,540L-311.6,540z"/>
	<polygon id="_151651544" class="st0" points="-315.2,521.2 -308.9,514.9 -311,512.8 -315,516.7 -322.1,509.6 -324.4,511.9 	"/>
	<polygon id="_151651640" class="st0" points="-312.5,503.8 -310.9,505.4 -307.7,502.1 -305.7,504 -309.1,507.3 -307,509.3 
		-303,505.3 -301.1,507.1 -307.5,513.5 -316.8,504.2 -310.4,497.9 -308.5,499.7 	"/>
	<path id="_151651736" class="st0" d="M-291.9,497.9l-6.3-1.8c0.8-1.4,0.4-3.3-0.9-4.5c-1.4-1.4-3.7-1.3-5.3,0.3l-4.7,4.7l9.3,9.3
		l2.3-2.4l-7.5-7.5l1.6-1.5c0.6-0.7,1.8-0.7,2.4,0c0.6,0.6,0.6,1.7-0.1,2.4l-1.4,1.4l8,2.3L-291.9,497.9L-291.9,497.9z"/>
	<path id="_151651832" class="st0" d="M-286.7,483.3c-1.3-1.4-3-2.1-4.6-2.2c-1.7,0-3.3,0.6-4.8,2.1c-2.9,2.9-2.6,6.8,0.1,9.5
		c1.4,1.4,3,2.1,4.7,2.1c1.6,0.1,3.3-0.6,4.8-2C-283.7,489.8-283.9,486-286.7,483.3C-286.7,483.3-286.7,483.3-286.7,483.3z
		 M-288.4,490.9c-0.9,0.9-1.9,1.1-2.9,0.7c-0.7-0.3-1.4-0.8-2.1-1.5c-1.8-1.8-2.3-3.6-0.8-5c0.9-0.9,1.9-1.1,2.9-0.7
		c0.7,0.3,1.4,0.8,2.1,1.5C-287.4,487.6-286.9,489.5-288.4,490.9z"/>
	<polygon id="_151651928" class="st0" points="-283.9,478.4 -285.6,473.1 -282.9,470.3 -280.5,479.3 -276.9,482.9 -279.3,485.3 
		-282.9,481.7 -291.4,479 -288.9,476.4 -283.9,478.3 	"/>
	<polygon id="_151652024" class="st0" points="-240.9,510.3 -231.7,501 -234.2,498.5 -243.4,507.8 	"/>
	<polygon id="_151652120" class="st0" points="-276.5,474.8 -269.3,471.3 -274.5,476.7 -272.4,478.9 -263.1,469.6 -266.1,466.6 
		-273.1,470 -269.6,463.1 -272.6,460.1 -281.9,469.4 -279.7,471.5 -274.4,466.2 -277.8,473.4 	"/>
	<polygon id="_154522216" class="st0" points="-260.4,476.1 -261.9,477.7 -258.4,481.2 -260.3,483.1 -263.9,479.6 -265.9,481.6 
		-261.6,485.9 -263.4,487.8 -270.1,481.1 -260.8,471.9 -254.2,478.6 -256,480.4 	"/>
	<polygon id="_154522312" class="st0" points="-251.4,499.9 -245.1,506.1 -243,504 -246.9,500.1 -239.8,492.9 -242.1,490.6 	"/>
	<polygon id="_154522408" class="st0" points="-226.5,506.3 -229.4,516.1 -223,509.7 -220.8,511.9 -230.1,521.2 -233,518.2 
		-230.5,508.1 -236.8,514.5 -238.9,512.3 -229.6,503.1 	"/>
	<path id="_154522504" class="st0" d="M-253.2,498.1l1.8-6.3c1.4,0.8,3.3,0.4,4.6-0.9c1.3-1.4,1.3-3.7-0.3-5.3l-5-5l-9.3,9.3
		l2.4,2.4l7.5-7.5l1.8,1.8c0.7,0.7,0.7,1.8,0.1,2.4c-0.6,0.7-1.8,0.6-2.4,0l-1.7-1.7l-2,8.3L-253.2,498.1L-253.2,498.1z"/>
	<path id="_154522600" class="st0" d="M-256.5,534.7l-0.1-0.5c-0.6,0.5-1.6,1.5-2.5,1.7c-0.1,0-0.2,0-0.3,0c-0.4,0-0.9-0.1-0.8-0.8
		l0.1-0.1c0.4-0.1,0.7-0.3,1-0.4c1.7-0.8,2.1-1.7,2.1-2.3c0-0.5-0.6-0.6-0.9-0.6c-0.4,0-0.8,0.1-1.2,0.3c-1.2,0.5-2.1,1.6-2.3,2.8
		c-0.5,0.4-1.4,1.2-2,1.3c-0.6,0-0.6-1.4,1.2-3.1c0.3-0.2-0.2-0.6-0.4-0.7c-0.4-0.2-2.4,1.6-2.4,3.2c0,0.7,0.4,1.6,1.2,1.6
		c0.8,0,1.7-0.8,2.3-1.5c0.1,0.8,0.5,1.4,1.4,1.4c0.1,0,0.2,0,0.3,0c0,0.1,0,0.3,0.2,0.5c0.3,0.2,0.5,0.3,1.4,0.1
		c0,0-0.9-0.1-0.9-0.6c0-0.1,0-0.2,0-0.2C-258.1,536.3-257.1,535.4-256.5,534.7L-256.5,534.7L-256.5,534.7z M-259.2,533
		c0.3-0.3,0.6-0.4,0.8-0.4c0.1-0.1,0.1,0,0.1,0.1c0.1,0.1-0.3,0.7-0.9,1.2c-0.3,0.2-0.6,0.4-0.9,0.5
		C-259.9,533.8-259.5,533.3-259.2,533z"/>
	<path id="_154522696" class="st0" d="M-261.9,532c0.5,0,0.9-0.6,0.9-1.1c0-0.2-0.1-0.4-0.4-0.4c-0.4,0-1,0.4-1,0.9
		C-262.4,531.7-262.2,532-261.9,532z"/>
</g>
</svg>
