<?xml version="1.0" encoding="utf-8"?>
<!-- Generator: Adobe Illustrator 19.1.0, SVG Export Plug-In . SVG Version: 6.00 Build 0)  -->
<svg version="1.1" id="Слой_1" xmlns="http://www.w3.org/2000/svg" xmlns:xlink="http://www.w3.org/1999/xlink" x="0px" y="0px"
	 viewBox="-386 387.2 226.8 226.8" style="enable-background:new -386 387.2 226.8 226.8;" xml:space="preserve">
<style type="text/css">
	.st0{fill:#727272;}
</style>
<path id="_154528072" class="st0" d="M-194.5,496.9l0.1-0.4c0-0.2,0-0.3-0.1-0.5c-0.1-0.1-0.3-0.2-0.4-0.2h-2.9
	c-0.3,0-0.5,0.2-0.5,0.4l-0.1,0.4l-3,16.7c0,0.2,0,0.3,0.1,0.5c0.1,0.1,0.3,0.2,0.4,0.2l1.4,0h1.3c0.3,0,0.5-0.2,0.5-0.4l2.1-10.3
	c0.7-2.6,2.4-3.4,4-3.6c0.1,0,0.4,0,0.5,0c-1.1,6.3-2.3,13.7-2.3,13.8c0,0.2,0,0.3,0.1,0.4c0.1,0.1,0.3,0.2,0.4,0.2h3.1
	c0.2,0,0.5-0.2,0.5-0.4c0.1-0.3,0.8-4.6,1.3-7.1c1.1,1.7,4.8,7.3,4.8,7.3c0.1,0.2,0.3,0.2,0.5,0.2l3.7,0c0.1,0,0.1,0,0.2,0
	c0.1,0,0.2,0.1,0.3,0.1l3.1,0c0.3,0,0.5-0.2,0.5-0.5c0,0,2.2-13,2.4-13.8c0.7,0,3.6,0,3.6,0c0.3,0,0.5-0.2,0.5-0.5l0.5-2.8
	c0,0,0-0.1,0-0.1c0-0.1,0-0.3-0.1-0.4c-0.1-0.1-0.3-0.2-0.4-0.2c0,0-2.6,0-3.5,0c0.2-1,0.8-4.6,0.8-4.6c0,0,0-0.1,0-0.1
	c0-0.1,0-0.3-0.1-0.4c-0.1-0.1-0.3-0.2-0.4-0.2h-3.1c-0.3,0-0.5,0.2-0.5,0.5c0,0-0.7,4.1-0.8,4.8c-0.3,0-0.6,0-0.6,0l-0.5,0l-0.5,0
	c-0.2,0-0.4,0.1-0.5,0.3c-0.1-0.2-0.3-0.2-0.5-0.2l-2.8,0h-0.8c-0.2,0-0.3,0.1-0.4,0.2c0,0-2.8,3.3-4.3,4.9c0.4-2.6,1.7-9.7,1.7-9.7
	c0,0,0-0.1,0-0.1c0-0.1,0-0.3-0.1-0.4c-0.1-0.1-0.3-0.2-0.4-0.2l-3.1,0c-0.3,0-0.5,0.2-0.5,0.5c-0.1,0.4-0.4,2.3-0.8,4.8
	c0,0,0,0,0,0c-0.1-0.1-0.3-0.2-0.4-0.2C-192.3,495.7-193.5,496.2-194.5,496.9L-194.5,496.9z M-179.2,512.5c-1.3-2-5-8-5.3-8.5
	c0.4-0.5,4.9-6,5.8-7.1l-0.4,2.1c0,0.2,0,0.3,0.1,0.5c0.1,0.1,0.3,0.2,0.4,0.2c0,0,0.8,0,1.4,0
	C-177.2,500.7-178.7,509.6-179.2,512.5L-179.2,512.5L-179.2,512.5z M-284.6,505.4c-0.6,2.2-2.8,4.4-4.8,4.9
	c-1.6,0.2-2.7,0.1-3.5-0.5c-0.9-0.6-1.3-1.6-1.6-2.5c-0.1-0.3-0.1-0.7-0.1-1c0-2,1.1-4,3.1-5.5c1.2-0.8,2.7-1.1,4.1-0.8
	c0.8,0.2,1.8,0.6,2.5,1.8c0.4,0.7,0.6,1.5,0.6,2.3C-284.4,504.5-284.4,505-284.6,505.4L-284.6,505.4L-284.6,505.4z M-300.2,491
	l-0.7,3.6c0,0.2,0,0.3,0.1,0.5c0.1,0.1,0.3,0.2,0.4,0.2h3.2c0.3,0,0.5-0.2,0.5-0.5l0.6-3.6c0-0.2,0-0.3-0.1-0.5
	c-0.1-0.1-0.3-0.2-0.4-0.2l-3.2,0C-299.9,490.6-300.1,490.7-300.2,491C-300.2,491-300.2,491-300.2,491z M-307.1,505.4L-307.1,505.4
	c0.1-0.4,0.2-0.8,0.2-1.3c0-0.8-0.2-1.6-0.6-2.3c-0.7-1.2-1.7-1.7-2.5-1.8c-1.4-0.3-2.9,0-4.1,0.8c-2,1.5-3.1,3.5-3.1,5.5
	c0,0.3,0,0.7,0.1,1c0.3,0.9,0.8,1.9,1.6,2.5c0.8,0.5,2,0.7,3.5,0.5C-309.9,509.7-307.8,507.6-307.1,505.4L-307.1,505.4z
	 M-333.4,502.8L-333.4,502.8c1.3,0,7.6-0.1,8.5-0.1c-0.1-0.6-0.4-1.2-1.1-1.9c-0.7-0.6-1.8-0.9-3.2-0.9
	C-330.7,500.2-332.6,501.2-333.4,502.8L-333.4,502.8z M-204.6,505.4c-0.6,2.2-2.8,4.4-4.8,4.9c-1.6,0.2-2.7,0.1-3.5-0.5
	c-0.9-0.6-1.3-1.6-1.6-2.5c-0.1-0.3-0.1-0.7-0.1-1c0-2,1.1-4,3.1-5.5c1.2-0.8,2.7-1.1,4.1-0.8c0.8,0.2,1.8,0.6,2.5,1.8
	c0.4,0.7,0.6,1.5,0.6,2.3C-204.4,504.5-204.4,505-204.6,505.4L-204.6,505.4L-204.6,505.4z M-377.1,513.7v-0.3c0,0,0-0.1,0.1-0.1
	l22.8-26.3c0.1-0.1,0.2-0.1,0.3-0.1h3.7c0.1,0,0.2,0.1,0.3,0.2c0.1,0.1,0.1,0.2,0.1,0.3c0,0,0,0.1,0,0.1c0,0-2.9,14.1-3.4,16.7
	c1.8-2,15.1-17,15.1-17c0.1-0.1,0.2-0.1,0.3-0.1h3.5c0.1,0,0.2,0.1,0.3,0.2c0.1,0.1,0.1,0.2,0.1,0.4l-3.6,14.8
	c0-0.1,0.1-0.1,0.1-0.2c1.7-3.4,5-5.7,8.6-6.2c0,0,0,0,0,0c3.2-0.2,5.7,1.1,7.2,3.5c0,0,0,0,0,0c0.5,1.1,0.9,2.5,1,4
	c0.6-1.8,1.7-3.4,3.2-4.8c2.5-2.4,5.7-3.3,8.8-2.6c0,0,0.1,0,0.1,0l0.3,0.1c0.7,0.3,1.4,0.6,2.1,1.2c0.3-1.6,1.3-6.3,1.3-6.3
	c0.1-0.3,0.3-0.4,0.5-0.4h2.8c0.2,0,0.3,0.1,0.4,0.2l0,0c0.1,0.1,0.1,0.3,0.1,0.5l-4.2,22.4c-0.1,0.3-0.3,0.4-0.5,0.4l-2.8,0
	c-0.2,0-0.3-0.1-0.4-0.2c-0.1-0.1-0.1-0.2-0.1-0.4c0,0,0-0.1,0-0.1c0,0,0.1-0.4,0.1-0.6c-2.3,1.4-4.6,2-6.8,1.6
	c-2.5-0.5-4.8-2.9-5.3-5.6c-0.1-0.7-0.2-1.4-0.2-2.1c-0.1,0.1-0.2,0.1-0.4,0.1c0,0-12.5,0-13.1,0c0,0.1,0,0.1,0,0.2
	c0,0.2,0.1,0.5,0.2,0.8c0,0,0,0.1,0.1,0.2c0.6,1.5,2.1,2.5,3.8,2.4c1.7,0,3.2-0.8,4.6-2.4c0.1-0.1,0.3-0.2,0.4-0.2h2.9
	c0.2,0,0.4,0.1,0.5,0.3c0.1,0.2,0.1,0.4,0,0.5c-1.7,3.5-5.4,5.8-9.3,5.8c-2.7-0.1-5-1.4-6.3-3.6c-0.6-1.2-0.9-2.6-0.9-4.1l-1.7,7
	c0,0.2-0.2,0.3-0.4,0.3h-3.7c-0.1,0-0.2-0.1-0.3-0.2c-0.1-0.1-0.1-0.2-0.1-0.3c0,0,0-0.1,0-0.1c1.4-6,3.5-14.6,4.2-18
	c-1.8,2.1-15.6,18.3-15.6,18.3c-0.1,0.1-0.2,0.1-0.3,0.1l-3.1,0c-0.1,0-0.2-0.1-0.3-0.2c-0.1-0.1-0.1-0.2-0.1-0.3c0,0,0-0.1,0-0.1
	c1.3-6.1,3.2-14.8,3.8-18.1c-1.7,2-15.5,18.5-15.5,18.5c-0.1,0.1-0.2,0.1-0.3,0.1c-1.1,0-1.9,0-2.8,0h-1.8
	C-376.9,513.9-377,513.9-377.1,513.7L-377.1,513.7z M-199.5,496c-0.1-0.1-0.3-0.2-0.4-0.2h-2.8c-0.3,0-0.5,0.2-0.5,0.4l-0.2,1.1
	c-0.6-0.6-1.3-0.9-2.2-1.3l-0.3-0.1c0,0-0.1,0-0.1,0c-3.1-0.7-6.2,0.3-8.8,2.6c-1.3,1.2-2.2,2.5-2.9,4l0.1-0.4l3.7-14.9
	c0-0.1,0-0.3-0.1-0.4c-0.1-0.1-0.2-0.2-0.3-0.2h-3.5c-0.1,0-0.2,0-0.3,0.1c0,0-13.3,15-15.1,17c0.5-2.6,3.5-16.7,3.5-16.7
	c0,0,0-0.1,0-0.1c0-0.1,0-0.2-0.1-0.3c-0.1-0.1-0.2-0.2-0.3-0.2h-3.8c-0.1,0-0.2,0.1-0.3,0.1l-19.1,22.1c-0.3-3.2-1.9-6.7-1.9-6.7
	c-2.6-5.3-8.3-7-11.5-3.9l0,0l-0.5,0.4c2.3-3.7,8.3-3.6,12.1,0.8c0,0,1.7,2,2.9,5.1c0.3-1.1,0.5-2.2,0.6-3.3c-2-2.7-4.2-4.3-4.2-4.3
	c-4.8-3.3-10.6-1.9-11.9,2.3l0,0l-0.3,0.6c0.2-4.4,5.4-7.3,10.9-5.4c0,0,2.6,1,5.2,3.1c0-0.2-0.1-0.3-0.1-0.5
	c-0.3-1.1-0.7-2.2-1.2-3.2c-3.1-1.3-5.8-1.6-5.8-1.6c-5.8-0.4-10.2,3.7-9.2,8l0,0l0.1,0.6c-2.1-3.9,1-9,6.8-10.1c0,0,2.7-0.5,5.9,0
	c-0.8-0.9-1.8-1.6-2.8-2.3c-3.3,0.4-5.7,1.5-5.7,1.5c-5.3,2.6-7,8.3-3.9,11.5l0,0l0.4,0.5c-3.8-2.4-3.6-8.3,0.8-12.1
	c0,0,2.1-1.7,5.1-2.9c-1.3-0.4-2.6-0.6-3.9-0.6c-2.6,2-4.1,4.1-4.1,4.1c-3.3,4.8-1.9,10.6,2.3,11.9l0,0l0.6,0.3
	c-4.4-0.2-7.3-5.4-5.4-10.9c0,0,0.9-2.4,2.8-4.9c-1.1,0.3-2.2,0.7-3.1,1.2c-1.2,3-1.5,5.6-1.5,5.6c-0.4,5.8,3.7,10.2,8,9.2l0,0
	l0.6-0.1c-3.9,2.1-9-1-10.1-6.8c0,0-0.4-2.6,0-5.8c-0.9,0.9-1.7,1.9-2.4,3c0.4,3.1,1.5,5.5,1.5,5.5c2.6,5.3,8.3,7,11.5,3.9l0,0
	l0.5-0.4c-2.3,3.7-8.3,3.6-12.1-0.8c0,0-2-2.5-3-5.3c0-0.1,0-0.3-0.1-0.4c-0.1-0.1-0.3-0.2-0.4-0.2h-2.8c-0.3,0-0.5,0.2-0.5,0.4
	c0,0-0.2,0.3-0.3,1c-0.6-0.6-1.4-0.9-2.1-1.2l-0.3-0.1c0,0-0.1,0-0.1,0c-3.1-0.7-6.2,0.3-8.8,2.6c-1.5,1.4-2.6,3-3.2,4.8
	c0,0,0,0-0.1,0.1l1.2-7c0-0.2,0-0.3-0.1-0.4c-0.1-0.1-0.3-0.2-0.4-0.2l-3,0c-0.3,0-0.5,0.2-0.5,0.5l-3.1,17.1c0,0.2,0,0.3,0.1,0.5
	c0.1,0.1,0.3,0.2,0.4,0.2l3.2,0c0.3,0,0.5-0.2,0.5-0.5l1.2-7c0,0,0,0.1,0,0.1c0,0.7,0,1.4,0.2,2.1c0.5,2.6,2.8,5.1,5.3,5.6
	c2.2,0.4,4.5-0.2,6.8-1.6c0,0.2-0.1,0.6-0.1,0.6c0,0,0,0.1,0,0.1c0,0.1,0,0.3,0.1,0.4c0.1,0.1,0.3,0.2,0.4,0.2l2.8,0
	c0.3,0,0.5-0.2,0.5-0.4l2.5-13.5c1.9,2.2,4.3,4.1,4.3,4.1c4.8,3.3,10.6,1.9,11.9-2.3l0,0l0.3-0.6c-0.2,4.4-5.4,7.3-10.9,5.4
	c0,0-2.4-0.9-4.9-2.8c0,0.1,0,0.2,0.1,0.3c0.3,1.2,0.7,2.3,1.3,3.3c2.9,1.2,5.4,1.4,5.4,1.4c5.8,0.4,10.2-3.7,9.2-8l0,0l-0.1-0.6
	c2.1,3.9-1,9-6.8,10.1c0,0-2.5,0.4-5.7,0c0.8,0.8,1.6,1.5,2.5,2.1c3.3-0.4,5.7-1.5,5.7-1.5c5.3-2.6,7-8.3,3.9-11.5l0,0l-0.4-0.5
	c3.8,2.3,3.6,8.3-0.8,12.1c0,0-2.1,1.7-5.2,3c0.9,0.3,1.7,0.5,2.6,0.6h1.3c2.6-2,4.1-4.1,4.1-4.1c3.3-4.8,1.9-10.6-2.3-11.9l0,0
	l-0.6-0.3c4.4,0.2,7.3,5.4,5.4,10.9c0,0-1,2.6-3.1,5.2c0.2,0,0.3-0.1,0.5-0.1c1.1-0.3,2.1-0.7,3-1.2c1.3-3,1.5-5.7,1.5-5.7
	c0.4-5.8-3.7-10.2-8-9.2l0,0l-0.6,0.1c3.9-2.1,9,1,10.1,6.8c0,0,0.6,2.6,0.2,5.8c-0.1,0.5-0.3,1.1-0.6,1.8c-0.1,0.2-0.2,0.4-0.4,0.7
	c0,0,0,0,0,0c0,0,0,0,0,0c0,0,0,0,0,0c-0.1,0.1-0.1,0.3,0,0.4c0.1,0.1,0.2,0.2,0.4,0.2h1.8c0.9,0,1.7,0,2.8,0c0.1,0,0.2-0.1,0.3-0.1
	c0,0,13.8-16.4,15.5-18.5c-0.7,3.4-2.5,12-3.8,18.1c0,0,0,0.1,0,0.1c0,0.1,0,0.2,0.1,0.3c0.1,0.1,0.2,0.2,0.3,0.2l3.1,0
	c0.1,0,0.2-0.1,0.3-0.1c0,0,13.9-16.2,15.6-18.3c-0.7,3.4-2.8,11.9-4.2,18c0,0,0,0.1,0,0.1c0,0.1,0,0.2,0.1,0.3
	c0.1,0.1,0.2,0.2,0.3,0.2h3.7c0.2,0,0.4-0.1,0.4-0.3l1.6-6.5l0.2-0.9c0,0.3,0,0.5,0,0.5c0,0.7,0.1,1.4,0.2,2.1
	c0.5,2.6,2.8,5.1,5.3,5.6c2.2,0.4,4.5-0.2,6.8-1.6c0,0.2-0.1,0.6-0.1,0.6c0,0,0,0.1,0,0.1c0,0.1,0,0.3,0.1,0.4
	c0.1,0.1,0.3,0.2,0.4,0.2l2.8,0c0.3,0,0.5-0.2,0.5-0.4l2.6-13.6l0.6-3.7C-199.4,496.3-199.4,496.1-199.5,496L-199.5,496L-199.5,496z
	"/>
</svg>
