<?xml version="1.0" encoding="utf-8"?>
<!-- Generator: Adobe Illustrator 19.1.0, SVG Export Plug-In . SVG Version: 6.00 Build 0)  -->
<svg version="1.1" id="Слой_1" xmlns="http://www.w3.org/2000/svg" xmlns:xlink="http://www.w3.org/1999/xlink" x="0px" y="0px"
	 viewBox="-386 387.2 226.8 226.8" style="enable-background:new -386 387.2 226.8 226.8;" xml:space="preserve">
<style type="text/css">
	.st0{fill:#727272;}
	.st1{fill:none;stroke:#FFFFFF;stroke-miterlimit:10;}
	.st2{fill:#FFFFFF;}
</style>
<path class="st0" d="M-310.9,500.6c0,21.2,17.1,38.3,38.3,38.3c8.5,0,17-3.2,21.9-6.9c6.4-4.8,9.3-8.3,13-15.7
	c3-6,4.4-16.3,2.4-24.3c-1.9-7.8-5.4-13.7-10.2-18.5c-4.9-4.9-10.7-8.3-18.5-10.2c-3-0.8-9.5-1.4-13.1-0.7c-2.3,0.4-3.9,0.7-6,1.2
	c-2,0.5-3.5,1.2-5.3,1.9c-2.4,0.9-7,3.9-8.9,5.5c-2.8,2.6-4.5,4.5-6.8,7.5C-307.8,483.6-310.9,491.9-310.9,500.6L-310.9,500.6z"/>
<path class="st1" d="M-295.8,500.6c0-7,3.2-12.8,6.7-16.3c1.7-1.7,4.5-3.7,6.8-4.7c1.5-0.6,2.7-1.1,4.3-1.5c0.8-0.2,1.6-0.3,2.4-0.4
	c0.9-0.1,1.8-0.1,2.6-0.2c2.4-0.4,8,1.2,9.6,1.9c2.4,1,5.2,2.9,6.9,4.6c3.4,3.4,7,9.1,7,15.8v1.7c0,6.8-3.6,12.4-7.1,15.9
	c-1.9,1.9-4.3,3.4-6.9,4.6c-1.6,0.7-7.1,2.2-9.6,1.8c-1.9-0.3-3.2-0.2-5.1-0.7c-1.6-0.4-3-0.8-4.3-1.5c-2.8-1.4-4.6-2.6-6.7-4.7
	C-292.6,513.4-295.8,507.5-295.8,500.6L-295.8,500.6z"/>
<path class="st0" d="M-295.6,483.5c0.2-0.3,0.8-1.3,1.1-1.6c0.8-0.8,0.6-0.6,1.6-1.1c0.4,0.2,0.8,0.2,0.8,0.9v0.1
	c0,1.2-1.2,2.1-1.4,2.8C-293.7,484.7-295.6,483.5-295.6,483.5z"/>
<path class="st0" d="M-298.7,481.2c0.3-0.5,1-1.6,1.7-1.6c0.4,0,0.9,0.2,0.9,0.7v0.3c0,0.6-0.7,1.5-1,1.9
	C-297.1,482.4-298.7,481.2-298.7,481.2z"/>
<path class="st2" d="M-302.5,483.4l8.1,5.6c0.4-0.3,3.3-4.6,3.9-5.4c0.7-1,1.1-1.9,1.3-3.4c0.2-1.3-0.9-2.5-2-2.5h-0.2
	c-1.2,0-1.8,0.9-2.4,1.3c0.1-0.2,0.1-0.3,0.1-0.5c0-1.2-1-2.2-2-2.2c-2,0-3,1.8-3.9,3C-300.1,479.8-302.4,483-302.5,483.4z"/>
<path class="st2" d="M-255.5,480.3c0,0.3,1.2,1.8,1.4,2.3l5.5-1.6c-0.2,0.7-3.4,4.2-3.4,4.6c0,0.2,1.2,1.8,1.4,2.2l10-3.1l-1.7-2.3
	l-6,2l3.9-5l-1.3-1.7l-6.1,1.9l4.1-4.9l-1.4-2.2c-0.6,0.1-2.8,3.2-3.3,3.9C-252.6,476.7-255.5,480.3-255.5,480.3z"/>
<polygon class="st2" points="-278.6,475.8 -276,475.8 -275.1,470.4 -273,475.8 -271.8,475.8 -269.6,470.3 -268.9,475.8 
	-266.2,475.8 -267.7,465.9 -270.3,465.9 -272.4,470.9 -274.3,465.9 -276.9,465.9 -278.6,475.8 "/>
<path id="_151639256" class="st2" d="M-292.7,500.7h20.3v20.3h0.7c10.9,0,19.9-9.4,19.9-20.4h-20.6v-20.4c-1.3,0.3-3.1,0.2-4.5,0.5
	c-1.2,0.3-2.8,0.8-3.8,1.3c-2.3,1.2-4.3,2.5-6,4.2C-289.9,489.3-292.7,494.5-292.7,500.7L-292.7,500.7z"/>
<path id="_154514248" class="st0" d="M-272.6,460.1c22.4,0,40.5,18.2,40.5,40.5c0,22.3-18.1,40.5-40.5,40.5
	c-22.4,0-40.6-18.2-40.6-40.5C-313.2,478.3-295,460.1-272.6,460.1z M-231.5,500.6c0-5.9-1-10.7-2.7-15c-1.5-3.9-4-8.3-6.5-11.1
	c-5.8-6.4-11.8-11.4-21.4-13.8c-11-2.8-21.2-0.9-29.4,3.2c-3.5,1.8-7.4,4.9-10.1,7.5c-2.2,2.2-6.2,7-7.5,10
	c-0.9,2.1-1.8,3.8-2.6,6.2c-0.8,2.3-1.1,4.5-1.6,7.3c-0.8,5-0.2,11.7,0.9,16c2.4,9.6,7.4,15.7,13.7,21.4c2.3,2.1,7.8,5.5,11.1,6.6
	c2.2,0.7,4.4,1.6,6.8,2c1.2,0.2,2.6,0.4,3.8,0.6c1.3,0.2,3,0,4.2,0.2c1.3,0.2,6.8-0.5,8.1-0.7c2.4-0.4,4.9-1.1,6.9-1.9
	c2.2-0.9,4.1-1.6,6-2.9c0.9-0.6,1.9-1,2.7-1.7c0.4-0.3,2.2-1.7,2.5-1.8l-0.5,0.5c0.5-0.1,5.5-5.3,6-6.1c1.8-2.3,3.6-4.5,5-7.1
	C-233.4,514.7-231.5,508.7-231.5,500.6L-231.5,500.6z"/>
<path id="_151648856" class="st0" d="M-295.6,483.5l2,1.2c0.2-0.8,1.4-1.6,1.4-2.8v-0.1c0-0.6-0.4-0.7-0.8-0.9
	c-1,0.5-0.8,0.2-1.6,1.1C-294.8,482.2-295.5,483.2-295.6,483.5z"/>
<path id="_151649336" class="st0" d="M-298.7,481.2l1.6,1.2c0.3-0.4,1-1.3,1-1.9v-0.3c0-0.4-0.4-0.7-0.9-0.7
	C-297.7,479.6-298.4,480.7-298.7,481.2z"/>
</svg>
