<?xml version="1.0" encoding="utf-8"?>
<!-- Generator: Adobe Illustrator 19.1.0, SVG Export Plug-In . SVG Version: 6.00 Build 0)  -->
<svg version="1.1" id="Слой_1" xmlns="http://www.w3.org/2000/svg" xmlns:xlink="http://www.w3.org/1999/xlink" x="0px" y="0px"
	 viewBox="-386 387.2 226.8 226.8" style="enable-background:new -386 387.2 226.8 226.8;" xml:space="preserve">
<style type="text/css">
	.st0{fill:#FFFFFF;}
	.st1{fill:#727272;}
</style>
<path id="_151650296" class="st0" d="M-344,482.9c0.2-0.5,0.2-0.5,1.5-3.5c-3-0.4-4.6-0.6-7.2-0.6c-3.3-1.7-7.1-2.7-11.1-2.7
	c-13.5,0-24.4,10.9-24.4,24.4c0,13.5,10.9,24.4,24.4,24.4c13.5,0,24.4-10.9,24.4-24.4C-336.3,493.6-339.3,487.3-344,482.9
	L-344,482.9z"/>
<path id="_31112760" class="st1" d="M-345.7,486.3c0,0-0.1-0.1-0.2-0.1c-0.1,0-0.1,0-0.2,0.1c-1,1.2-2.2,2.2-3.5,3.1
	c-2.6,1.6-5.5,2.5-8.5,2.5c-5.7,0-8.9-2.8-11.6-4.8c-0.1,0-0.1-0.1-0.1-0.2c0-0.1,0-0.1,0.1-0.2c4.1-3.1,7.5-5.1,10.9-6.3
	c0.1,0,0.2-0.1,0.1-0.2c0-0.1-0.1-0.2-0.2-0.2c-0.6-0.1-1.2-0.1-1.8-0.1c-11.5,0-20.8,9.3-20.8,20.8c0,6.3,2.8,12,7.3,15.8
	c0.1,0,0.1,0.1,0.2,0c0.1,0,0.1-0.1,0.2-0.1l0.8-2.7c0-0.1,0.2-0.2,0.3-0.2c11.1,2.4,15.9-3.6,15.1-7.3c-0.7-3.2-5.9-6-13.5-1.7
	c-0.1,0-0.1,0-0.2,0c0,0,0,0-0.1,0l0,0c-0.1-0.1-0.1-0.1-0.1-0.2l2.6-13.2l0,0c0-0.1,0.1-0.1,0.1-0.2c0.1,0,0.1,0,0.2,0
	c0.8,0.5,2.9,1.8,5.3,3.3c0.1,0,0.1,0.1,0.1,0.2c-0.1,0.6-0.4,2.7-0.5,3.5c0,0.1,0,0.2,0.1,0.2c0.1,0.1,0.1,0.1,0.2,0.1
	c12.8-3.4,15.4,4.6,15.1,8.4c-0.7,8.7-10.3,13.3-18.8,13.4c-0.1,0-0.2,0.1-0.2,0.2c0,0.1,0,0.2,0.2,0.3c2.1,0.7,4.2,1,6.5,1
	c11.5,0,20.8-9.3,20.8-20.8C-340,495.1-342.2,490-345.7,486.3L-345.7,486.3z"/>
<path id="_151650488" class="st1" d="M-366.1,486.8c6.9,5.2,17,2.6,20.4-5.5c0,0,0,0,0,0C-352,484.3-358.9,486.2-366.1,486.8
	C-366.1,486.8-366.1,486.8-366.1,486.8L-366.1,486.8z"/>
<path id="_151650584" class="st1" d="M-366.1,486.8c7.2-0.6,14.1-2.5,20.4-5.5C-352.8,480.5-360.1,482.3-366.1,486.8z"/>
<path id="_151650680" class="st1" d="M-217.8,508.3c-1.6,0-2.4-1.3-2.4-3.4c0-2.8,1.6-6.5,4.2-6.5c1.6,0,2.3,1.2,2.3,3.3
	C-213.6,504.6-215,508.3-217.8,508.3L-217.8,508.3z M-215.6,495.3c-5,0-8.7,4.4-8.7,9.8c0,3.5,2.2,6.4,6.2,6.4
	c5.1,0,8.7-4.2,8.7-9.8C-209.5,498-211.7,495.3-215.6,495.3z M-197.2,496.6c-0.6,3.9-2.7,6.5-4.6,6.5c-1,0-1.4-0.7-1-2.4l0.5-3
	c0.1-0.5-0.1-1-0.4-1.4c-0.3-0.4-0.8-0.6-1.3-0.6h-2l-0.9,5.2c-0.1,0.7-0.2,1.3-0.2,1.9c0,2.6,1.2,4,3.4,4c2.8,0,4.5-1.8,5.7-3.7
	h0.1c-0.5,2.3-1,5.8-1.3,8h4c0.1-1.1,0.3-3.7,1.1-7.9l1.4-7.5h-4.1L-197.2,496.6L-197.2,496.6z M-180.5,505
	c-0.4-0.9-0.9-1.5-1.3-1.9l6.8-7.4h-3.7c-0.6,0-1.2,0.3-1.7,0.8l-4.7,5.5h-0.9l0.9-5c0.1-0.3,0-0.6-0.2-0.8
	c-0.2-0.2-0.5-0.4-0.8-0.4h-3l-2.8,15.4h3c0.7,0,1.2-0.5,1.4-1.1l0.9-5.2h0.5c0.9,0,1.5,1,2.4,3c1.1,2.4,1.7,3.3,3.7,3.3h1.6
	l0.6-3.1h-0.3C-178.9,508-179.5,507.1-180.5,505L-180.5,505z M-164.7,499.4c-1,5.8-3.1,8.5-4.7,8.5c-1,0-1.4-0.8-1.4-2.2
	c0-4.3,2.3-7.3,4.8-7.3c0.6,0,1.2,0.1,1.5,0.2L-164.7,499.4L-164.7,499.4z M-165.4,495.3c-5.7,0-9.7,4.5-9.7,11.1
	c0,3.2,1.6,5.1,4,5.1c2.5,0,4-1.9,5.2-4.1h0.1c-0.2,0.7-0.3,1.5-0.4,2.3c0,0.4,0.1,0.7,0.3,1c0.2,0.3,0.6,0.4,0.9,0.4h2.6
	c0-1.1,0.2-3.7,1-7.9l1.3-7C-160.7,495.8-162.6,495.3-165.4,495.3L-165.4,495.3z M-235,508.4c-0.9,0-1.3-0.1-1.6-0.2l0.2-0.9
	c1.2-5.7,3.2-8.5,5-8.5c1,0,1.4,0.9,1.4,2.3C-230.1,505.7-232.3,508.4-235,508.4L-235,508.4z M-229.8,495.3c-2.7,0-4.1,1.8-5.4,4
	h-0.1c0.1-0.6,0.3-1.1,0.4-1.6c0.1-0.5,0-1-0.3-1.4c-0.3-0.4-0.8-0.6-1.3-0.6h-2l-4.1,22.3h2.3c1,0,1.9-0.7,2.1-1.7l0.9-5
	c0.3,0.1,1,0.2,2.1,0.2c5.3,0,9.2-4.3,9.2-11C-225.8,497.3-227.3,495.3-229.8,495.3z M-251.2,502.7c0.5-2.2,1.9-4.2,3.8-4.2
	c1,0,1.5,0.4,1.5,1.3C-245.9,501.3-248,502.4-251.2,502.7z M-242,499.3c0-2.5-1.8-4-4.7-4c-4.9,0-8.8,4.3-8.8,10
	c0,3.6,2,6.2,5.9,6.2c3,0,5-1.2,6.2-2.2l-1.6-2.7c-1,0.8-2.3,1.6-3.9,1.6c-1.7,0-2.3-1-2.4-2.8C-246.3,504.8-242,503-242,499.3z
	 M-247.8,491.4l1.5,0.2c0.4,0,0.7,0.1,0.9-0.5l0.5-1.7c0.1-0.5,0-0.7-0.6-0.8l-1.4-0.2c-0.3,0-0.7-0.1-0.9,0.5l-0.5,1.8
	C-248.4,491.1-248.3,491.3-247.8,491.4z M-293,488.6c16.3-0.7,42.2,2.4,42.2,2.4c0.3,0,0.6-0.1,0.7-0.4l0.3-0.8l0,0l0.4-1.4
	c0-0.1,0-0.2,0-0.3c0-0.1-0.1-0.1-0.2-0.1c-3.2-0.4-26.8-3.5-44-3.1c-16.1,0.4-29.7,3.6-33.3,4.6c-0.3,0.1-0.5,0.3-0.6,0.6l-0.4,2.1
	c0,0.1,0,0.2,0.1,0.3c0.1,0.1,0.2,0.1,0.3,0.1c2.9-0.6,7-1.3,12.4-2l-3.6,19.9c-0.1,0.3-0.1,0.7,0.5,0.7h3.5c0.2,0,0.5,0,0.6-0.6
	l3.4-19.4c0,0,0.2-1.1,1.4-1.3l0,0c1.5-0.1,4-0.3,5.5-0.4l-3.7,21.1c-0.1,0.7,0.2,0.7,0.5,0.7h3.6c0.3,0,0.7,0,0.8-0.7l3.5-20.2h0
	c0,0,0.2-1.1,1.3-1.3C-296,488.7-294.8,488.6-293,488.6L-293,488.6z M-287.7,502.4h-2.1c-1.3,0-2-0.4-2-1.4c0-1.5,0.9-2.3,2.8-2.3h2
	C-287,498.7-287.7,502.4-287.7,502.4z M-282.8,495.7h-5.9c-4.4,0-7.3,1.9-7.3,5.3c0,1.8,1.3,3,2.6,3.2v0c-0.5,0.2-1.1,0.8-1.7,1.6
	c-1.1,1.4-1.8,2.3-2.5,2.3c-0.1,0-0.2,0.1-0.3,0.2l-0.3,2.4c0,0.1,0,0.2,0.1,0.3c0.1,0.1,0.2,0.1,0.3,0.1h1.3c2,0,2.7-0.8,4.7-3.3
	c1.5-2,2.1-2.6,3-2.6h0.7l-1,5.5c0,0.1,0,0.2,0.1,0.3c0.1,0.1,0.2,0.1,0.3,0.1h3.4c0.2,0,0.3-0.1,0.4-0.3l2.6-14.7
	c0-0.1,0-0.2-0.1-0.3C-282.6,495.7-282.7,495.7-282.8,495.7L-282.8,495.7z M-243.6,492l1.3,0.2c0.4,0,0.7,0.1,0.9-0.5l0.5-1.7
	c0.1-0.5,0-0.6-0.5-0.7l-1.2-0.2c-0.3,0-0.7-0.1-0.9,0.5l-0.5,1.7C-244.1,491.7-244,491.9-243.6,492L-243.6,492z M-260.7,495.3
	c-2.6,0-4.2,1.7-5.5,3.7h-0.1c0-2.1-0.9-3.7-3.3-3.7c-2.8,0-4.4,2.2-5.4,3.9h-0.1c0.2-0.7,0.4-1.6,0.5-2.4c0-0.3,0-0.5-0.2-0.8
	c-0.2-0.2-0.4-0.3-0.7-0.3h-2.9l-2.6,14.4c0,0.2,0,0.5,0.2,0.7c0.2,0.2,0.4,0.3,0.7,0.3h3.1l0.2-1.3c1.5-8.6,3.6-11,5.2-11
	c1.2,0,1.3,1.1,1,2.7l-1.6,8.4c-0.1,0.3,0,0.6,0.2,0.8c0.2,0.2,0.4,0.3,0.7,0.3h3l0.2-1.3c1.5-8.5,3.6-11,5.3-11c1.1,0,1.3,1,1,2.7
	l-1.6,8.6c0,0.2,0,0.5,0.2,0.7c0.2,0.2,0.4,0.3,0.6,0.3h3.1l1.7-9.8c0.2-0.8,0.2-1.5,0.2-2.1C-257.4,496.6-258.6,495.3-260.7,495.3
	L-260.7,495.3z"/>
</svg>
