<?xml version="1.0" encoding="utf-8"?>
<!-- Generator: Adobe Illustrator 19.1.0, SVG Export Plug-In . SVG Version: 6.00 Build 0)  -->
<svg version="1.1" id="Слой_1" xmlns="http://www.w3.org/2000/svg" xmlns:xlink="http://www.w3.org/1999/xlink" x="0px" y="0px"
	 viewBox="-386 387.2 226.8 226.8" style="enable-background:new -386 387.2 226.8 226.8;" xml:space="preserve">
<style type="text/css">
	.st0{fill:#727272;}
	.st1{fill:none;stroke:#FFFFFF;stroke-miterlimit:10;}
	.st2{fill:#FFFFFF;}
</style>
<path class="st0" d="M-364.7,487.5c0,0,1.1-6,7.3-6c6.2,0,178.4,0,178.4,0s0.2,0,0.4,0h0.1c1.2,0,4.2,0.4,4.3,3.8
	c0,0.3,0,0.6-0.1,0.9l-6.5,27.5c0,0-0.8,5.8-7.2,5.9c-6.4,0.1-178.4,0-178.4,0s-6,0.7-4.4-5.9C-369.3,507.2-364.7,487.5-364.7,487.5
	L-364.7,487.5L-364.7,487.5z"/>
<path class="st0" d="M-343.9,504.3h6.3l-0.6,2.4h-6.3l-1.3,5.2h-9.9c-1.1,0-1.8-0.3-2.2-0.8c-0.8-1-0.6-2.8-0.5-3.4l1.5-6.6l-5.2,0
	l0.6-2.4l5.2,0l1.2-4.8c1.1-4.6,3.9-5,6.6-5h8.2l-1.2,5.2h6.3l-0.6,2.4h-6.3L-343.9,504.3L-343.9,504.3z"/>
<path class="st1" d="M-334.8,497.7l1.1-4.7h-6.3l1.2-5.2c0,0-8.7,0-9.6,0c-2.9,0-6.4,0.4-7.7,5.9l-1,4l-5.2,0l-1.1,4.7l5.2,0
	l-1.2,5.2c0,0-1.3,5.6,3.8,5.6h10.8l1.3-5.2h6.3l1.1-4.7h-6.3l1.3-5.5H-334.8L-334.8,497.7z"/>
<path class="st2" d="M-334.5,487.8l10.7,0c0,0,5.2-0.2,3.7,6.4c-1.6,6.6-2.7,11.6-2.7,11.6s-1.4,7.3-6.9,7.2h-10.7l0.9-3.7h8.4
	c0,0,2.2,0.1,3.1-3.4l0.8-3.6l-7.8,0l0.9-3.7l7.8,0l1.1-4.7c0,0,0.7-2.4-0.9-2.4c-1.7,0-9.2,0-9.2,0L-334.5,487.8L-334.5,487.8z"/>
<path class="st2" d="M-283.6,487.8l-6,25.3h11.5c0,0,5-0.2,6.8-7.1l2.5-10.8c0,0,1.7-6.8-3.4-7.4H-283.6L-283.6,487.8z"/>
<path class="st0" d="M-273.7,494.5c0,0-1.8,7.5-2.7,11.3c-0.8,3.6-3.1,3.5-3.1,3.5l-4.1,0l4.2-17.9c0,0,2.3,0,4.5,0
	C-272.7,491.5-273.7,494.5-273.7,494.5L-273.7,494.5L-273.7,494.5z"/>
<path class="st2" d="M-215.7,487.8l-6,25.3h11.5c0,0,5-0.2,6.8-7.1l2.5-10.8c0,0,1.7-6.8-3.4-7.4L-215.7,487.8L-215.7,487.8z"/>
<path class="st0" d="M-205.8,494.5c0,0-1.8,7.5-2.7,11.3c-0.8,3.6-3.1,3.5-3.1,3.5l-4.1,0l4.2-17.9c0,0,2.3,0,4.5,0
	C-204.8,491.5-205.8,494.5-205.8,494.5L-205.8,494.5L-205.8,494.5z"/>
<polygon class="st2" points="-239.5,513 -234.2,513 -232,508.1 -227.7,508.1 -228,513 -222.8,513 -221.8,487.8 -228.2,487.8 
	-239.5,513 "/>
<polygon class="st0" points="-227.5,504.4 -230.5,504.4 -226.9,496.2 "/>
<path class="st2" d="M-247.6,487.8l-5.9,25.3h5.2l2.2-9.3c0,0,5.1,0,5.6,0c0.5,0,5,0.6,7-7.9c2-8.2-3.3-8.1-3.3-8.1
	S-247.6,487.8-247.6,487.8z"/>
<path class="st0" d="M-238.7,495.5c-1,4.7-3.3,4.5-3.3,4.5l-3.3,0l2-8.6l3.5,0C-239.8,491.4-237.7,491.2-238.7,495.5
	C-238.7,495.5-238.7,495.5-238.7,495.5z"/>
<path class="st2" d="M-192.6,487.8c-5.4,0-6.7,6.5-6.7,6.5l-3.2,13.5c-0.9,5.3,3.9,5.3,3.9,5.3s1,0,6.6,0c5.6,0,6.7-6.7,6.7-6.7
	s1.3-5.5,2.8-12c1.5-6.4-3.6-6.5-3.6-6.5H-192.6L-192.6,487.8z"/>
<path class="st0" d="M-187.6,494.3c-0.8,3.2-2.8,12-2.8,12s-0.7,3-3,3c-2.3,0-2.8,0-2.8,0s-1.7-0.1-0.8-3c0.9-2.9,2.8-12,2.8-12
	s0.5-2.9,2.5-2.9l3,0C-188.7,491.4-186.8,491.1-187.6,494.3L-187.6,494.3z"/>
<path class="st2" d="M-260.6,487.8c-5.5,0-6.7,6.5-6.7,6.5l-3.2,13.5c-0.7,5.2,3.9,5.2,3.9,5.2s1,0,6.6,0c5.7,0,6.7-6.7,6.7-6.7
	c0,0,1.3-5.5,2.8-12c1.5-6.5-3.6-6.5-3.6-6.5H-260.6L-260.6,487.8z"/>
<path class="st0" d="M-255.6,494.3c-0.7,3.3-2.8,12-2.8,12s-0.7,3-3,3c-2.3,0-2.8,0-2.8,0s-1.7-0.1-0.8-3c0.9-2.9,2.8-12,2.8-12
	s0.5-2.9,2.5-2.9l3,0C-256.6,491.5-254.9,491.2-255.6,494.3L-255.6,494.3L-255.6,494.3z"/>
<path class="st2" d="M-292.3,497.2c-5.2,0-5.4,0-5.4,0l2.3-9.5h-5.2l-5.9,25.3h10.6c0,0,5,0.2,6.9-7.5
	C-289.1,505.5-286.7,497.2-292.3,497.2L-292.3,497.2L-292.3,497.2z"/>
<path class="st0" d="M-294.3,506c-0.9,3.6-3.2,3.3-3.2,3.3l-3,0l2-8.4c0,0,0.7,0,3,0C-293.2,500.9-293.3,501.6-294.3,506L-294.3,506
	z"/>
<polygon class="st2" points="-306.9,487.8 -307.9,513 -313.1,513 -312.1,496.2 -319.3,513 -324.6,513 -313.3,487.8 -306.9,487.8 "/>
</svg>
