<?xml version="1.0" encoding="utf-8"?>
<!-- Generator: Adobe Illustrator 19.1.0, SVG Export Plug-In . SVG Version: 6.00 Build 0)  -->
<svg version="1.1" id="Слой_1" xmlns="http://www.w3.org/2000/svg" xmlns:xlink="http://www.w3.org/1999/xlink" x="0px" y="0px"
	 viewBox="-386 387.2 226.8 226.8" style="enable-background:new -386 387.2 226.8 226.8;" xml:space="preserve">
<style type="text/css">
	.st0{fill:#727272;}
	.st1{fill:#FFFFFF;}
</style>
<rect x="-352.1" y="476.2" class="st0" width="148.5" height="51.2"/>
<ellipse class="st1" cx="-277.8" cy="501.8" rx="73.2" ry="24.3"/>
<path id="_154526152" class="st0" d="M-318.2,511.9c0.3,0,0.5-0.1,0.3-0.3c-0.1-0.2-0.4-1.3-0.4-2.5v-13.8c0-1.2,0.2-2.3,0.4-2.5
	c0.2-0.2,0-0.3-0.3-0.3h-12.5c-0.3,0-0.5,0.1-0.3,0.3c0.1,0.2,0.4,1.3,0.4,2.5v13.8c0,1.2-0.2,2.3-0.4,2.5c-0.2,0.2,0,0.3,0.3,0.3
	H-318.2z"/>
<path id="_154526248" class="st0" d="M-299.4,499.5l4.5-6.2c0.2-0.2,0.1-0.4,0.1-0.6c0-0.1,0-0.2,0.1-0.2h12.3c0.2,0,0.1,0.1,0,0.2
	l-5.1,7.1c-0.2,0.3-0.2,0.6,0,0.9l7,11c0.1,0.1,0.1,0.2,0,0.2h-15c-0.1,0-0.1-0.1-0.1-0.2c0-0.1,0.2-1.1,0-1.3l-3.9-5.9l0,4.7
	c0,1.2,0.2,2.3,0.4,2.5c0.2,0.2,0,0.3-0.3,0.3h-12.1c-0.3,0-0.5-0.1-0.3-0.3c0.1-0.2,0.4-1.3,0.4-2.5v-13.8c0-1.2-0.2-2.3-0.4-2.5
	c-0.2-0.2,0-0.3,0.3-0.3h12.1c0.3,0,0.5,0.1,0.3,0.3c-0.1,0.2-0.4,1.3-0.4,2.5L-299.4,499.5L-299.4,499.5z"/>
<path id="_154526344" class="st0" d="M-264.5,504.7c0-0.1,0-0.3,0.3-0.3h4.8c0.5,0,2.3-0.1,2.4,0.1c0.2,0.2,0.3,0.1,0.3-0.2v-4.6
	c0-0.3-0.2-0.4-0.3-0.2c-0.2,0.2-1.9,0.1-2.4,0.1h-4.8c-0.3,0-0.3-0.3-0.3-0.3l0-0.9c0-0.1,0-0.3,0.3-0.3h6.9c1.2,0,2.3,0.2,2.4,0.4
	c0.2,0.2,0.3,0,0.3-0.3v-5.4h-21.7c-0.3,0-0.5,0.2-0.3,0.4c0.1,0.2,0.4,1.3,0.4,2.4V509c0,1.2-0.2,2.3-0.4,2.4
	c-0.2,0.2,0,0.3,0.3,0.3l21.7,0V506c0-0.3-0.1-0.5-0.3-0.3c-0.2,0.1-1.3,0.4-2.4,0.4h-6.9c-0.3,0-0.3-0.3-0.3-0.3L-264.5,504.7z"/>
<path id="_154526440" class="st0" d="M-220.2,511.7c0,0-7.2-17.1-7.3-17.4c-0.1-0.3-0.2-0.8,0-1.2c0.2-0.4,0-0.5-0.3-0.5h-16.9
	c-0.3,0-0.5,0.1-0.3,0.5c0.2,0.4,0.1,0.9,0,1.2c-0.1,0.3-6.5,17.4-6.5,17.4h10.4c0.2,0,0.3-0.1,0.2-0.3c-0.1-0.2-0.1-0.6,0-0.8
	l0.6-1.8c0.2-0.5,0.4-0.6,0.9-0.6h4.6c0.4,0,0.7,0.1,0.9,0.6l0.6,1.8c0.1,0.3,0.1,0.7,0,0.8c-0.1,0.2,0,0.3,0.2,0.3H-220.2
	L-220.2,511.7z M-238.6,504.4c-0.2,0-0.2-0.2-0.1-0.3l1.1-2.7c0-0.1,0.1-0.2,0.2-0.2c0.1,0,0.1,0.1,0.2,0.2l1.1,2.7
	c0,0.1,0,0.3-0.1,0.3H-238.6z"/>
<path id="_154526536" class="st0" d="M-197.8,478c0.7,0,1.3,0,1.3-0.9c0-0.7-0.6-0.8-1.1-0.8c0,0-1.1,0-1.1,0v1.6
	C-198.7,478-197.8,478-197.8,478z M-198.7,481h-0.8v-5.3h2c1.2,0,1.9,0.5,1.9,1.5c0,0.9-0.6,1.4-1.4,1.5l1.5,2.3h-0.9l-1.4-2.3h-0.9
	V481L-198.7,481z M-197.8,482.2c2.1,0,3.7-1.6,3.7-3.8c0-2.2-1.6-3.8-3.7-3.8c-2.1,0-3.7,1.6-3.7,3.8
	C-201.5,480.6-199.8,482.2-197.8,482.2z M-202.4,478.4c0-2.6,2.1-4.6,4.6-4.6c2.5,0,4.6,1.9,4.6,4.6c0,2.6-2.1,4.6-4.6,4.6
	C-200.3,482.9-202.4,481-202.4,478.4L-202.4,478.4z"/>
</svg>
