<?xml version="1.0" encoding="utf-8"?>
<!-- Generator: Adobe Illustrator 19.1.0, SVG Export Plug-In . SVG Version: 6.00 Build 0)  -->
<svg version="1.1" id="Слой_1" xmlns="http://www.w3.org/2000/svg" xmlns:xlink="http://www.w3.org/1999/xlink" x="0px" y="0px"
	 viewBox="-386 387.2 226.8 226.8" style="enable-background:new -386 387.2 226.8 226.8;" xml:space="preserve">
<style type="text/css">
	.st0{fill:#727272;}
</style>
<g id="_154523656">
	<path id="_151648952" class="st0" d="M-287.1,536.5l0.1-0.2l0.1-0.1l0.2-0.1l0.4-0.1h1.3h3.1v1.6l-4.8-0.1l-0.2-0.1l-0.1-0.1
		l-0.1-0.2C-287.1,537.1-287.1,536.5-287.1,536.5z M-242.1,536.6l0.1-0.3l0.1-0.1l0.2-0.1l0.3-0.1l4.4-0.1v1.7l-4.7-0.1l-0.1-0.1
		h-0.2v-0.2l-0.1-0.2V536.6L-242.1,536.6z M-251.7,535.8l-0.1,0.4l-0.1,0.2l-0.1,0.1l-0.1,0.2l-0.1,0.1l-0.2,0.1l-0.3,0.1l-1.4,0.1
		l-3.1,0.1v-5.7l3.7,0.1l0.8,0.1l0.3,0.1l0.2,0.1l0.1,0.1l0.1,0.1l0.1,0.1l0.1,0.3l0.1,0.3l0.1,0.5v1.8L-251.7,535.8L-251.7,535.8z
		 M-313.1,541.4h4.8v-9.7h3.4v9.7h4.7v-9.7l2.5,0.1l0.3,0.1l0.2,0.1l0.1,0.1l0.1,0.2l0.1,0.2l0.1,8.8h4.9l0.1-2.1l0.1,0.2l0.1,0.1
		l0.1,0.2l0.1,0.1l0.1,0.1l0.1,0.1l0.1,0.1l0.1,0.1l0.1,0.1l0.1,0.1l0.2,0.1l0.1,0.1l0.2,0.1l0.2,0.1l0.2,0.1l0.2,0.1l0.3,0.1
		l0.3,0.1l0.7,0.1h13.2l0.1-0.1l0.1-0.1l0.2-0.1l0.1-0.1l0.1-0.1l0.2-0.1l0.1-0.1l0.1-0.1l0.1-0.1l0.2-0.1l0.1-0.1l0.1-0.1l0.2-0.1
		l0.1-0.1l0.1-0.1l0.1-0.1l0.2-0.1l0.1-0.1l0.1-0.1l0.1-0.1l0.2-0.1l0.1-0.1l0.1-0.1l0.2-0.1l0.1-0.1l0.1-0.1l0.1-0.1l0.2-0.1
		l0.1-0.1l0.1-0.1l0.1-0.1l0.2-0.1l0.1-0.1l0.1-0.1l0.2-0.1l0.1-0.1l0.1-0.1l0.1-0.1l0.2-0.1l0.1-0.1l0.1-0.1l0.1-0.1l0.2-0.1
		l0.1-0.1l0.1-0.1l0.2-0.1l0.1-0.1l0.1-0.1l0.1-0.1l0.2-0.1l0.1-0.1l0.1-0.1l0.2-0.1l0.1-0.1l0.1-0.1l0.1-0.1l0.2-0.1l0.1-0.1
		l0.1-0.1l0.1-0.1l0.2-0.1l0.1-0.1l0.1-0.1l0.2-0.1l0.1-0.1l0.1-0.1l0.1-0.1l0.2-0.1l0.1-0.1l0.1-0.1l0.1-0.1l0.2-0.1l0.1-0.1
		l0.1-0.1l0.2-0.1l0.1-0.1l0.1-0.1l0.1-0.1l0.2-0.1l0.1-0.1l0.1-0.1l0.1-0.1l0.2-0.1l0.1-0.1l0.1-0.1l0.2-0.1l0.1-0.1l0.1-0.1
		l0.1-0.1l0.2-0.1l0.1-0.1l0.1-0.1l0.2-0.1l0.1-0.1l0.1-0.1l0.1-0.1l0.2-0.1l0.1-0.1l0.1,10.1h11.1l0.7-0.1l0.3-0.1l0.3-0.1l0.2-0.1
		l0.2-0.1l0.2-0.1l0.2-0.1l0.1-0.1l0.2-0.1l0.1-0.1l0.1-0.1l0.1-0.1l0.1-0.1l0.1-0.1l0.1-0.1l0.1-0.1l0.1-0.1l0.1-0.2l0.1-0.1
		l0.1-0.2l0.1-0.2l0.1-0.2l0.1-0.3l0.1,0.2l0.1,0.2l0.1,0.2l0.1,0.2l0.1,0.2l0.1,0.1l0.1,0.1l0.1,0.2l0.1,0.1l0.1,0.1l0.1,0.1
		l0.1,0.1l0.1,0.1l0.2,0.1l0.1,0.1l0.1,0.1l0.2,0.1l0.2,0.1l0.2,0.1l0.2,0.1l0.3,0.1l0.3,0.1l0.6,0.1h11.1v-10.2l-0.1-0.5l-0.1-0.3
		l-0.1-0.3l-0.1-0.2l-0.1-0.2l-0.1-0.2l-0.1-0.1l-0.1-0.2l-0.1-0.1l-0.1-0.1l-0.1-0.1l-0.1-0.1l-0.1-0.1l-0.1-0.1l-0.1-0.1l-0.1-0.1
		l-0.1-0.1l-0.2-0.1l-0.1-0.1l-0.2-0.1l-0.2-0.1l-0.2-0.1l-0.3-0.1l-0.3-0.1l-0.5-0.1h-10.3v3.9l8.2,0.1l0.1,0.1l0.1,0.1v0.4
		l-0.1,0.1l-0.1,0.1l-5,0.1l-0.8,0.1l-0.3,0.1l-0.3,0.1l-0.2,0.1l-0.2,0.1l-0.2,0.1l-0.2,0.1l-0.1,0.1l-0.1,0.1l-0.2,0.1l-0.1,0.1
		l-0.1,0.1l-0.1,0.1l-0.1,0.1l-0.1,0.1l-0.1,0.1l-0.1,0.2l-0.1-1.4l-0.1-1l-0.1-0.6l-0.1-0.3l-0.1-0.3l-0.1-0.3l-0.1-0.2l-0.1-0.2
		l-0.1-0.2l-0.1-0.2l-0.1-0.1l-0.1-0.1l-0.1-0.1l-0.1-0.2l-0.1-0.1l-0.1-0.1l-0.2-0.1l-0.1-0.1l-0.1-0.1l-0.2-0.1l-0.1-0.1l-0.2-0.1
		l-0.2-0.1l-0.2-0.1l-0.2-0.1l-0.3-0.1l-0.3-0.1l-0.4-0.1h-13.8l-0.2,0.1l-0.1,0.1l-0.1,0.1l-0.1,0.1l-0.2,0.1l-0.1,0.1l-0.1,0.1
		l-0.2,0.1l-0.1,0.1l-0.1,0.1l-0.1,0.1l-0.2,0.1l-0.1,0.1l-0.1,0.1l-0.1,0.1l-0.2,0.1l-0.1,0.1l-0.1,0.1l-0.2,0.1l-0.1,0.1l-0.1,0.1
		l-0.1,0.1l-0.2,0.1l-0.1,0.1l-0.1,0.1l-0.1,0.1l-0.2,0.1l-0.1,0.1l-0.1,0.1l-0.1,0.1l-0.2,0.1l-0.1,0.1l-0.1,0.1l-0.2,0.1l-0.1,0.1
		l-0.1,0.1l-0.1,0.1l-0.2,0.1l-0.1,0.1l-0.1,0.1l-0.1,0.1l-0.2,0.1l-0.1,0.1l-0.1,0.1l-0.2,0.1l-0.1,0.1l-0.1,0.1l-0.1,0.1l-0.2,0.1
		l-0.1,0.1l-0.1,0.1l-0.1,0.1l-0.2,0.1l-0.1,0.1l-0.1,0.1l-0.1,0.1l-0.2,0.1l-0.1,0.1l-0.1,0.1l-0.2,0.1l-0.1,0.1l-0.1,0.1l-0.1,0.1
		l-0.2,0.1l-0.1,0.1l-0.1,0.1l-0.1,0.1l-0.2,0.1l-0.1,0.1l-0.1,0.1l-0.2,0.1l-0.1,0.1l-0.1,0.1l-0.1,0.1l-0.2,0.1l-0.1,0.1l-0.1,0.1
		l-0.1,0.1l-0.2,0.1l-0.1,0.1l-0.1,0.1l-0.1,0.1l-0.2,0.1l-0.1,0.1l-0.1,0.1l-0.2,0.1l-0.1,0.1l-0.1,0.1l-0.1,0.1l-0.2,0.1l-0.1,0.1
		l-0.1,0.1l-0.1,0.1l-0.2,0.1l-0.1,0.1l-0.1,0.1l-0.1-5.6l-0.1-0.7l-0.1-0.4l-0.1-0.3l-0.1-0.2l-0.1-0.2l-0.1-0.2l-0.1-0.2l-0.1-0.1
		l-0.1-0.1l-0.1-0.2l-0.1-0.1l-0.1-0.1l-0.1-0.1l-0.1-0.1l-0.1-0.1l-0.1-0.1l-0.2-0.1l-0.1-0.1l-0.1-0.1l-0.2-0.1l-0.2-0.1l-0.2-0.1
		l-0.2-0.1l-0.3-0.1l-0.4-0.1l-0.6-0.1h-10v4l8.9,0.1l0.1,0.1l0.1,0.2v0.2l-0.1,0.2l-0.1,0.1l-0.2,0.1l-6.3,0.1l-0.4,0.1l-0.3,0.1
		l-0.2,0.1l-0.2,0.1l-0.2,0.1l-0.2,0.1l-0.1,0.1l-0.2,0.1l-0.1,0.1l-0.1,0.1l-0.1,0.1l-0.1,0.1l-0.1,0.1l-0.1,0.1l-0.1,0.1l-0.1,0.1
		l-0.1,0.1l-0.1,0.2l-0.1,0.1l-0.1,0.2V531l-0.1-0.4l-0.1-0.3l-0.1-0.2l-0.1-0.2l-0.1-0.2l-0.1-0.2l-0.1-0.1l-0.1-0.1l-0.1-0.2
		l-0.1-0.1l-0.1-0.1l-0.1-0.1l-0.1-0.1l-0.1-0.1l-0.1-0.1l-0.2-0.1l-0.1-0.1l-0.1-0.1l-0.2-0.1l-0.2-0.1l-0.2-0.1l-0.2-0.1l-0.3-0.1
		l-0.3-0.1l-0.6-0.1h-17.3L-313.1,541.4L-313.1,541.4z"/>
	<path id="_151649048" class="st0" d="M-268.7,492.9c0-1.5,0.7-3.5,1.2-4.4c0.3-0.5,2.4-2.4,3-2.7c-0.1,0.3-1,1.7-1.2,2.3
		c-0.3,0.6-0.7,1.8-0.7,2.7C-266.5,490.8-268.7,492.9-268.7,492.9z M-265.5,489.9c0-2.1,2.9-5.1,4.2-6.2c0.9-0.8,5.7-2.7,7.1-3.3
		c2.6-1,4.8-2.1,7.1-3.3c1.1-0.5,2.2-1.3,3.2-1.9c0.8-0.6,2.2-1.9,2.9-2.3l-0.6,4.9c-2.1,1.4-3.2,2.2-5.7,3.3
		c-2.1,1-4.3,1.6-6.4,2.5c-2.2,0.9-4.3,1.7-6.3,2.7C-262.3,487.5-263.6,488.7-265.5,489.9L-265.5,489.9z M-293.2,480.3
		c1.3,0.5,6.3,2.3,7,3.1c1.6,1.9,2.8,3.6,4.2,5.7c-0.4-0.1-2.6-1.5-3.3-1.8c-1.1-0.6-2.3-1.1-3.5-1.5c-2.4-1-4.8-1.9-7.1-2.8
		c-2.4-0.9-4.8-2-6.7-3.3c-1.2-0.8-2-1.1-2.4-2.6c-0.3-0.9-0.7-3.2-0.7-4.3c0.8,0.6,1.8,1.6,2.7,2.3c1,0.8,1.9,1.3,3,2
		C-298,478.3-295.4,479.4-293.2,480.3L-293.2,480.3z M-240.4,471.1l-0.1,0.1l-0.1,0.1l-0.1,0.1l-0.1,0.1l-0.1,0.1l-0.1,0.1l-0.1,0.1
		l-0.1,0.1l-0.1,0.1l-0.1,0.1l-0.1,0.1l-0.1,0.1l-0.1,0.1l-0.1,0.1l-0.1,0.1l-0.1,0.1l-0.2,0.1l-0.1,0.1l-0.1,0.1l-0.1,0.1l-0.1,0.1
		l-0.1,0.1l-0.2,0.1l-0.1,0.1l-0.1,0.1l-0.1,0.1l-0.2,0.1l-0.1,0.1l-0.1,0.1l-0.2,0.1l-0.1,0.1l-0.1,0.1l-0.2,0.1l-0.1,0.1l-0.2,0.1
		l-0.1,0.1l-0.2,0.1l-0.1,0.1l-0.2,0.1l-0.1,0.1l-0.2,0.1l-0.1,0.1l-0.2,0.1l-0.1,0.1l-0.2,0.1l-0.2,0.1l-0.1,0.1l-0.2,0.1l-0.2,0.1
		l-0.1,0.1l-0.2,0.1l-0.2,0.1l-0.2,0.1l-0.2,0.1l-0.2,0.1l-0.2,0.1l-0.1,0.1l-0.2,0.1l-0.2,0.1l-0.2,0.1l-0.2,0.1l-0.2,0.1l-0.3,0.1
		l-0.2,0.1l-0.2,0.1l-0.2,0.1l-0.2,0.1l-0.2,0.1l-0.3,0.1l-0.2,0.1l-0.2,0.1l-0.2,0.1l-0.3,0.1l-0.2,0.1l-0.2,0.1l-0.3,0.1l-0.2,0.1
		l-0.3,0.1l-0.2,0.1l-0.2,0.1l-0.3,0.1l-0.2,0.1l-0.3,0.1l-0.2,0.1l-0.3,0.1l-0.2,0.1l-0.2,0.1l-0.3,0.1l-0.2,0.1l-0.3,0.1l-0.2,0.1
		l-0.2,0.1l-0.3,0.1l-0.2,0.1l-0.2,0.1l-0.3,0.1l-0.2,0.1l-0.2,0.1l-0.3,0.1l-0.2,0.1l-0.2,0.1l-0.2,0.1l-0.2,0.1l-0.2,0.1l-0.3,0.1
		l-0.2,0.1l-0.2,0.1l-0.2,0.1l-0.2,0.1l-0.2,0.1l-0.1,0.1l-0.2,0.1l-0.2,0.1l-0.2,0.1l-0.2,0.1l-0.2,0.1l-0.1,0.1l-0.2,0.1l-0.2,0.1
		l-0.2,0.1l-0.1,0.1l-0.2,0.1l-0.2,0.1l-0.1,0.1l-0.2,0.1l-0.1,0.1l-0.2,0.1l-0.1,0.1l-0.2,0.1l-0.1,0.1l-0.2,0.1l-0.1,0.1l-0.1,0.1
		l-0.2,0.1l-0.1,0.1l-0.2,0.1l-0.1,0.1l-0.1,0.1l-0.1,0.1l-0.2,0.1l-0.1,0.1l-0.1,0.1l-0.1,0.1l-0.2,0.1l-0.1,0.1l-0.1,0.1l-0.1,0.1
		l-0.1,0.1l-0.1,0.1l-0.1,0.1l-0.2,0.1l-0.1,0.1l-0.1,0.1l-0.1,0.1l-0.1,0.1l-0.1,0.1l-0.1,0.1l-0.1,0.1l-0.1,0.1l-0.1,0.1l-0.1,0.1
		l-0.1,0.1l-0.1,0.1l-0.1,0.1l-0.1,0.1l-0.1,0.2l-0.1,0.1l-0.1,0.1l-0.1,0.1l-0.1,0.1l-0.1,0.1l-0.1,0.1l-0.1,0.2l-0.1,0.1l-0.1,0.1
		l-0.1,0.1l-0.1,0.2l-0.1,0.1l-0.1,0.1l-0.1,0.2l-0.1,0.1l-0.1,0.1l-0.1,0.2l-0.1,0.1l-0.1,0.1l-0.1,0.2l-0.1,0.1l-0.1,0.2l-0.1,0.1
		l-0.1,0.2l-0.1,0.1l-0.1,0.2l-0.1,0.2l-0.1,0.1l-0.1,0.2l-0.1,0.1l-0.1,0.2l-0.1,0.2l-0.1,0.2l-0.1,0.1l-0.1,0.2l-0.1,0.2l-0.1,0.2
		l-0.1,0.2l-0.1,0.2l-0.1,0.2l-0.1,0.2l-0.1,0.2l-0.1,0.1l-0.1-0.2l-0.1-0.2l-0.1-0.1l-0.1-0.2l-0.1-0.2l-0.1-0.2l-0.1-0.1l-0.1-0.2
		l-0.1-0.2l-0.1-0.1l-0.1-0.2l-0.1-0.2l-0.1-0.1l-0.1-0.2l-0.1-0.1l-0.1-0.2l-0.1-0.1l-0.1-0.2l-0.1-0.1l-0.1-0.2l-0.1-0.1l-0.1-0.1
		l-0.1-0.2l-0.1-0.1l-0.1-0.1l-0.1-0.2l-0.1-0.1l-0.1-0.1l-0.1-0.2l-0.1-0.1l-0.1-0.1l-0.1-0.1l-0.1-0.2l-0.1-0.1l-0.1-0.1l-0.1-0.1
		l-0.1-0.1l-0.1-0.1l-0.1-0.1l-0.1-0.2l-0.1-0.1l-0.1-0.1l-0.1-0.1l-0.1-0.1l-0.1-0.1l-0.1-0.1l-0.1-0.1l-0.1-0.1l-0.1-0.1l-0.1-0.1
		l-0.1-0.1l-0.1-0.1l-0.1-0.1l-0.1-0.1l-0.1-0.1l-0.1-0.1l-0.1-0.1l-0.2-0.1l-0.1-0.1l-0.1-0.1l-0.1-0.1l-0.1-0.1l-0.1-0.1l-0.2-0.1
		l-0.1-0.1l-0.1-0.1l-0.1-0.1l-0.2-0.1l-0.1-0.1l-0.1-0.1l-0.1-0.1l-0.2-0.1l-0.1-0.1l-0.2-0.1l-0.1-0.1l-0.1-0.1l-0.2-0.1l-0.1-0.1
		l-0.2-0.1l-0.1-0.1l-0.2-0.1l-0.1-0.1l-0.2-0.1l-0.2-0.1l-0.1-0.1l-0.2-0.1l-0.2-0.1l-0.1-0.1l-0.2-0.1l-0.2-0.1l-0.2-0.1l-0.1-0.1
		l-0.2-0.1l-0.2-0.1l-0.2-0.1l-0.2-0.1l-0.2-0.1l-0.2-0.1l-0.2-0.1l-0.2-0.1l-0.2-0.1l-0.2-0.1l-0.2-0.1l-0.2-0.1l-0.3-0.1l-0.2-0.1
		l-0.2-0.1l-0.2-0.1l-0.3-0.1l-0.2-0.1l-0.2-0.1l-0.3-0.1l-0.2-0.1l-0.3-0.1l-0.2-0.1l-0.3-0.1l-0.2-0.1l-0.3-0.1l-0.2-0.1l-0.3-0.1
		l-0.2-0.1l-0.3-0.1l-0.2-0.1l-0.3-0.1l-0.2-0.1l-0.3-0.1l-0.3-0.1l-0.2-0.1l-0.3-0.1l-0.2-0.1l-0.3-0.1l-0.2-0.1l-0.3-0.1l-0.2-0.1
		l-0.2-0.1l-0.3-0.1l-0.2-0.1l-0.3-0.1l-0.2-0.1l-0.2-0.1l-0.3-0.1l-0.2-0.1l-0.2-0.1l-0.2-0.1l-0.2-0.1l-0.3-0.1l-0.2-0.1l-0.2-0.1
		l-0.2-0.1l-0.2-0.1l-0.2-0.1l-0.2-0.1l-0.2-0.1l-0.2-0.1l-0.2-0.1l-0.1-0.1l-0.2-0.1l-0.2-0.1l-0.2-0.1l-0.2-0.1l-0.1-0.1l-0.2-0.1
		l-0.2-0.1l-0.1-0.1l-0.2-0.1l-0.2-0.1l-0.1-0.1l-0.2-0.1l-0.1-0.1l-0.2-0.1l-0.1-0.1l-0.2-0.1l-0.1-0.1l-0.2-0.1l-0.1-0.1l-0.1-0.1
		l-0.2-0.1l-0.1-0.1l-0.1-0.1l-0.2-0.1l-0.1-0.1l-0.1-0.1l-0.2-0.1l-0.1-0.1l-0.1-0.1l-0.1-0.1l-0.2-0.1l-0.1-0.1l-0.1-0.1l-0.1-0.1
		l-0.1-0.1l-0.1-0.1l-0.1-0.1l-0.2-0.1l-0.1-0.1l-0.1-0.1l-0.1-0.1l-0.1-0.1l-0.1-0.1l-0.1-0.1l-0.1-0.1l-0.1-0.1l-0.1-0.1l-0.1-0.1
		l-0.1-0.1l-0.1-0.1l-0.1-0.1l-0.1-0.1l-0.1-0.1l-0.1-0.1l-0.1-0.1h-0.2l-0.1,0.1l-0.1,0.1l-0.1,0.2l-0.1,0.1l-0.1,0.1l-0.1,0.1
		l-0.1,0.2l-0.1,0.1l-0.1,0.1l-0.1,0.2l-0.1,0.1l-0.1,0.2l-0.1,0.1l-0.1,0.2l-0.1,0.1l-0.1,0.2l-0.1,0.1l-0.1,0.2l-0.1,0.1l-0.1,0.2
		l-0.1,0.1l-0.1,0.2l-0.1,0.2l-0.1,0.2l-0.1,0.1l-0.1,0.2l-0.1,0.2l-0.1,0.2l-0.1,0.2l-0.1,0.2l-0.1,0.2l-0.1,0.2l-0.1,0.2l-0.1,0.2
		l-0.1,0.2l-0.1,0.2l-0.1,0.3l-0.1,0.2l-0.1,0.2l-0.1,0.3l-0.1,0.2l-0.1,0.3l-0.1,0.3l-0.1,0.3l-0.1,0.3l-0.1,0.3l-0.1,0.3l-0.1,0.3
		l-0.1,0.3l-0.1,0.4l-0.1,0.4l-0.1,0.4l-0.1,0.4l-0.1,0.5l-0.1,0.4l-0.1,0.6l-0.1,0.5l-0.1,0.7l-0.1,0.7l-0.1,0.8l-0.1,1.1l-0.1,1.8
		v3.6l0.1,1.8l0.1,1.1l0.1,0.8l0.1,0.7l0.1,0.7l0.1,0.5l0.1,0.6l0.1,0.4l0.1,0.5l0.1,0.4l0.1,0.4l0.1,0.4l0.1,0.3l0.1,0.4l0.1,0.3
		l0.1,0.3l0.1,0.3l0.1,0.3l0.1,0.3l0.1,0.3l0.1,0.2l0.1,0.3l0.1,0.3l0.1,0.2l0.1,0.2l0.1,0.3l0.1,0.2l0.1,0.2l0.1,0.2l0.1,0.2
		l0.1,0.2l0.1,0.2l0.1,0.2l0.1,0.2l0.1,0.2l0.1,0.2l0.1,0.2l0.1,0.1l0.1,0.2l0.1,0.2l0.1,0.2l0.1,0.1l0.1,0.2l0.1,0.1l0.1,0.2
		l0.1,0.1l0.1,0.2l0.1,0.1l0.1,0.2l0.1,0.1l0.1,0.2l0.1,0.1l0.1,0.2l0.1,0.1l0.1,0.1l0.1,0.1l0.1,0.2l0.1,0.1l0.1,0.1l0.1,0.2
		l0.1,0.1l0.1,0.1l0.1,0.1l0.1,0.1l0.1,0.2l0.1,0.1l0.1,0.1l0.1,0.1l0.1,0.1l0.1,0.1l0.1,0.1l0.1,0.1l0.1,0.1l0.1,0.1l0.1,0.1
		l0.1,0.1l0.1,0.1l0.1,0.1l0.1,0.1l0.1,0.1l0.1,0.1l0.1,0.1l0.1,0.1l0.1,0.1l0.1,0.1l0.1,0.1l0.1,0.1l0.1,0.1l0.1,0.1l0.2,0.1
		l0.1,0.1l0.1,0.1l0.1,0.1l0.1,0.1l0.2,0.1l0.1,0.1l0.1,0.1l0.1,0.1l0.2,0.1l0.1,0.1l0.1,0.1l0.2,0.1l0.1,0.1l0.1,0.1l0.2,0.1
		l0.1,0.1l0.2,0.1l0.1,0.1l0.1,0.1l0.2,0.1l0.1,0.1l0.2,0.1l0.2,0.1l0.1,0.1l0.2,0.1l0.1,0.1l0.2,0.1l0.2,0.1l0.1,0.1l0.2,0.1
		l0.2,0.1l0.2,0.1l0.2,0.1l0.1,0.1l0.2,0.1l0.2,0.1l0.2,0.1l0.2,0.1l0.2,0.1l0.2,0.1l0.2,0.1l0.2,0.1l0.3,0.1l0.2,0.1l0.2,0.1
		l0.2,0.1l0.3,0.1l0.2,0.1l0.2,0.1l0.3,0.1l0.2,0.1l0.3,0.1l0.3,0.1l0.2,0.1l0.3,0.1l0.3,0.1l0.3,0.1l0.3,0.1l0.3,0.1l0.3,0.1
		l0.4,0.1l0.3,0.1l0.3,0.1l0.4,0.1l0.4,0.1l0.4,0.1l0.4,0.1l0.4,0.1l0.4,0.1l0.5,0.1l0.4,0.1l0.5,0.1l0.5,0.1l0.6,0.1l0.6,0.1
		l0.6,0.1l0.7,0.1l0.7,0.1l0.8,0.1l0.9,0.1l1,0.1l1.3,0.1l1.6,0.1l3.4,0.1h2.5l3.4-0.1l1.6-0.1l1.3-0.1l1-0.1l0.9-0.1l0.8-0.1
		l0.7-0.1l0.7-0.1l0.6-0.1l0.6-0.1l0.6-0.1l0.5-0.1l0.5-0.1l0.4-0.1l0.5-0.1l0.4-0.1l0.4-0.1l0.4-0.1l0.4-0.1l0.4-0.1l0.4-0.1
		l0.3-0.1l0.3-0.1l0.4-0.1l0.3-0.1l0.3-0.1l0.3-0.1l0.3-0.1l0.3-0.1l0.3-0.1l0.2-0.1l0.3-0.1l0.3-0.1l0.2-0.1l0.3-0.1l0.2-0.1
		l0.2-0.1l0.3-0.1l0.2-0.1l0.2-0.1l0.2-0.1l0.3-0.1l0.2-0.1l0.2-0.1l0.2-0.1l0.2-0.1l0.2-0.1l0.2-0.1l0.2-0.1l0.2-0.1l0.1-0.1
		l0.2-0.1l0.2-0.1l0.2-0.1l0.2-0.1l0.1-0.1l0.2-0.1l0.2-0.1l0.1-0.1l0.2-0.1l0.1-0.1l0.2-0.1l0.2-0.1l0.1-0.1l0.2-0.1l0.1-0.1
		l0.1-0.1l0.2-0.1l0.1-0.1l0.2-0.1l0.1-0.1l0.1-0.1l0.2-0.1l0.1-0.1l0.1-0.1l0.2-0.1l0.1-0.1l0.1-0.1l0.1-0.1l0.2-0.1l0.1-0.1
		l0.1-0.1l0.1-0.1l0.1-0.1l0.2-0.1l0.1-0.1l0.1-0.1l0.1-0.1l0.1-0.1l0.1-0.1l0.1-0.1l0.1-0.1l0.1-0.1l0.1-0.1l0.1-0.1l0.1-0.1
		l0.1-0.1l0.1-0.1l0.1-0.1l0.1-0.1l0.1-0.1l0.1-0.1l0.1-0.1l0.1-0.1l0.1-0.1l0.1-0.1l0.1-0.1l0.1-0.1l0.1-0.1l0.1-0.2l0.1-0.1
		l0.1-0.1l0.1-0.1l0.1-0.1l0.1-0.2l0.1-0.1l0.1-0.1l0.1-0.2l0.1-0.1l0.1-0.1l0.1-0.2l0.1-0.1l0.1-0.1l0.1-0.2l0.1-0.1l0.1-0.2
		l0.1-0.1l0.1-0.2l0.1-0.1l0.1-0.2l0.1-0.1l0.1-0.2l0.1-0.1l0.1-0.2l0.1-0.2l0.1-0.2l0.1-0.1l0.1-0.2l0.1-0.2l0.1-0.2l0.1-0.2
		l0.1-0.2l0.1-0.2l0.1-0.2l0.1-0.2l0.1-0.2l0.1-0.2l0.1-0.2l0.1-0.3l0.1-0.2l0.1-0.2l0.1-0.3l0.1-0.3l0.1-0.2l0.1-0.3l0.1-0.3
		l0.1-0.3l0.1-0.3l0.1-0.3l0.1-0.3l0.1-0.4l0.1-0.3l0.1-0.4l0.1-0.4l0.1-0.4l0.1-0.5l0.1-0.4l0.1-0.6l0.1-0.5l0.1-0.7l0.1-0.7
		l0.1-0.9l0.1-1l0.1-1.8v-3.6l-0.1-1.8l-0.1-1.1l-0.1-0.8l-0.1-0.7l-0.1-0.7l-0.1-0.5l-0.1-0.6l-0.1-0.4l-0.1-0.5l-0.1-0.4l-0.1-0.4
		l-0.1-0.4l-0.1-0.3l-0.1-0.4l-0.1-0.3l-0.1-0.3l-0.1-0.3l-0.1-0.3l-0.1-0.3l-0.1-0.3l-0.1-0.3l-0.1-0.2l-0.1-0.3l-0.1-0.2l-0.1-0.2
		l-0.1-0.3l-0.1-0.2l-0.1-0.2l-0.1-0.2l-0.1-0.2l-0.1-0.2l-0.1-0.2l-0.1-0.2l-0.1-0.2l-0.1-0.2l-0.1-0.2l-0.1-0.2l-0.1-0.1l-0.1-0.2
		l-0.1-0.2l-0.1-0.2l-0.1-0.1l-0.1-0.2l-0.1-0.1l-0.1-0.2l-0.1-0.1l-0.1-0.2l-0.1-0.1l-0.1-0.2l-0.1-0.1l-0.1-0.2l-0.1-0.1l-0.1-0.2
		l-0.1-0.1l-0.1-0.1l-0.1-0.2l-0.1-0.1l-0.1-0.1l-0.1-0.1l-0.1-0.2l-0.1-0.1l-0.1-0.1h-0.2l-0.1,0.1l-0.1,0.1l-0.1,0.1l-0.1,0.1
		l-0.1,1l-0.1,1.1l-0.1,0.9l-0.1,0.8l-0.1,0.7l-0.1,0.7l-0.1,0.7l-0.1,0.6v0.8l0.1,0.2l0.1,0.3l0.1,0.2l0.1,0.3l0.1,0.2l0.1,0.3
		l0.1,0.2l0.1,0.3l0.1,0.3l0.1,0.3l0.1,0.3l0.1,0.4l0.1,0.3l0.1,0.4l0.1,0.4l0.1,0.4l0.1,0.4l0.1,0.5l0.1,0.5l0.1,0.6l0.1,0.6
		l0.1,0.7l0.1,0.9l0.1,1.1l0.1,2.1v1.5l-0.1,2.1l-0.1,1l-0.1,0.8l-0.1,0.6l-0.1,0.6l-0.1,0.5l-0.1,0.5l-0.1,0.4l-0.1,0.4l-0.1,0.4
		l-0.1,0.4l-0.1,0.3l-0.1,0.3l-0.1,0.3l-0.1,0.3l-0.1,0.3l-0.1,0.3l-0.1,0.2l-0.1,0.3l-0.1,0.2l-0.1,0.3l-0.1,0.2l-0.1,0.2l-0.1,0.3
		l-0.1,0.2l-0.1,0.2l-0.1,0.2l-0.1,0.2l-0.1,0.2l-0.1,0.2l-0.1,0.1l-0.1,0.2l-0.1,0.2l-0.1,0.2l-0.1,0.1l-0.1,0.2l-0.1,0.2l-0.1,0.1
		l-0.1,0.2l-0.1,0.1l-0.1,0.2l-0.1,0.1l-0.1,0.2l-0.1,0.1l-0.1,0.2l-0.1,0.1l-0.1,0.1l-0.1,0.2l-0.1,0.1l-0.1,0.1l-0.1,0.2l-0.1,0.1
		l-0.1,0.1l-0.1,0.1l-0.1,0.2l-0.1,0.1l-0.1,0.1l-0.1,0.1l-0.1,0.1l-0.1,0.1l-0.1,0.2l-0.1,0.1l-0.1,0.1l-0.1,0.1l-0.1,0.1l-0.1,0.1
		l-0.1,0.1l-0.1,0.1l-0.1,0.1l-0.1,0.1l-0.1,0.1l-0.1,0.1l-0.1,0.1l-0.1,0.1l-0.1,0.1l-0.1,0.1l-0.2,0.1l-0.1,0.1l-0.1,0.1l-0.1,0.1
		l-0.1,0.1l-0.1,0.1l-0.2,0.1l-0.1,0.1l-0.1,0.1l-0.1,0.1l-0.1,0.1l-0.2,0.1l-0.1,0.1l-0.1,0.1l-0.2,0.1l-0.1,0.1l-0.1,0.1l-0.2,0.1
		l-0.1,0.1l-0.2,0.1l-0.1,0.1l-0.2,0.1l-0.1,0.1l-0.2,0.1l-0.1,0.1l-0.2,0.1l-0.1,0.1l-0.2,0.1l-0.2,0.1l-0.1,0.1l-0.2,0.1l-0.2,0.1
		l-0.2,0.1l-0.1,0.1l-0.2,0.1l-0.2,0.1l-0.2,0.1l-0.2,0.1l-0.2,0.1l-0.2,0.1l-0.2,0.1l-0.2,0.1l-0.2,0.1l-0.2,0.1l-0.2,0.1l-0.2,0.1
		l-0.3,0.1l-0.2,0.1l-0.2,0.1l-0.3,0.1l-0.2,0.1l-0.3,0.1l-0.2,0.1l-0.3,0.1l-0.3,0.1l-0.3,0.1l-0.2,0.1l-0.3,0.1l-0.3,0.1l-0.3,0.1
		l-0.4,0.1l-0.3,0.1l-0.3,0.1l-0.4,0.1l-0.3,0.1l-0.4,0.1l-0.4,0.1l-0.4,0.1l-0.4,0.1l-0.5,0.1l-0.4,0.1l-0.5,0.1l-0.5,0.1l-0.5,0.1
		l-0.6,0.1l-0.6,0.1l-0.7,0.1l-0.7,0.1l-0.7,0.1l-0.9,0.1l-1,0.1l-1.2,0.1l-1.5,0.1h-4.8l-1.7-0.1l-1.3-0.1l-1-0.1l-0.9-0.1
		l-0.8-0.1l-0.7-0.1l-0.6-0.1l-0.6-0.1l-0.6-0.1l-0.5-0.1l-0.5-0.1l-0.5-0.1l-0.4-0.1l-0.4-0.1l-0.4-0.1l-0.4-0.1l-0.4-0.1l-0.4-0.1
		l-0.3-0.1l-0.4-0.1l-0.3-0.1l-0.3-0.1l-0.3-0.1l-0.3-0.1l-0.3-0.1l-0.3-0.1l-0.3-0.1l-0.2-0.1l-0.3-0.1l-0.2-0.1l-0.3-0.1l-0.2-0.1
		l-0.3-0.1l-0.2-0.1l-0.2-0.1l-0.2-0.1l-0.3-0.1l-0.2-0.1l-0.2-0.1l-0.2-0.1l-0.2-0.1l-0.2-0.1l-0.2-0.1l-0.1-0.1l-0.2-0.1l-0.2-0.1
		l-0.2-0.1l-0.2-0.1l-0.1-0.1l-0.2-0.1l-0.2-0.1l-0.1-0.1l-0.2-0.1l-0.2-0.1l-0.1-0.1l-0.2-0.1l-0.1-0.1l-0.2-0.1l-0.1-0.1l-0.2-0.1
		l-0.1-0.1l-0.1-0.1l-0.2-0.1l-0.1-0.1l-0.1-0.1l-0.2-0.1l-0.1-0.1l-0.1-0.1l-0.2-0.1l-0.1-0.1l-0.1-0.1l-0.1-0.1l-0.1-0.1l-0.2-0.1
		l-0.1-0.1l-0.1-0.1l-0.1-0.1l-0.1-0.1l-0.1-0.1l-0.1-0.1l-0.1-0.1l-0.1-0.1l-0.1-0.1l-0.2-0.1l-0.1-0.1l-0.1-0.1l-0.1-0.2l-0.1-0.1
		l-0.1-0.1l-0.1-0.1l-0.1-0.1l-0.1-0.1l-0.1-0.1l-0.1-0.1l-0.1-0.1l-0.1-0.1l-0.1-0.2l-0.1-0.1l-0.1-0.1l-0.1-0.1l-0.1-0.1l-0.1-0.2
		l-0.1-0.1l-0.1-0.1l-0.1-0.2l-0.1-0.1l-0.1-0.1l-0.1-0.2l-0.1-0.1l-0.1-0.2l-0.1-0.1l-0.1-0.1l-0.1-0.2l-0.1-0.1l-0.1-0.2l-0.1-0.2
		l-0.1-0.1l-0.1-0.2l-0.1-0.2l-0.1-0.1l-0.1-0.2l-0.1-0.2l-0.1-0.2l-0.1-0.2l-0.1-0.1l-0.1-0.2l-0.1-0.2l-0.1-0.2l-0.1-0.3l-0.1-0.2
		l-0.1-0.2l-0.1-0.2l-0.1-0.2l-0.1-0.3l-0.1-0.2l-0.1-0.1l-0.2-0.1l-0.1-0.1l-0.1-0.1l-0.2-0.1l-0.1-0.1l-0.1-0.1l-0.2-0.1l-0.1-0.1
		l-0.1-0.1l-0.1-0.1l-0.1-0.1l-0.1-0.1l-0.1-0.1l-0.1-0.1l-0.1-0.1l-0.1-0.1l-0.1-0.1l-0.1-0.2l-0.1-0.1l-0.1-0.1l-0.1-0.1l-0.1-0.2
		l-0.1-0.1l-0.1-0.1l-0.1-0.2l-0.1-0.1l-0.1-0.2l-0.1-0.1l-0.1-0.2l-0.1-0.2l-0.1-0.1l-0.1-0.2l-0.1-0.2l-0.1-0.2l-0.1-0.2l-0.1-0.1
		l-0.1-0.2l-0.1-0.2l-0.1-0.2l-0.1-0.2l-0.1-0.3l-0.1-0.2l-0.1-0.2l-0.1-0.2l-0.1-0.2l-0.1-0.3l-0.1-0.2l-0.1-0.2l-0.1-0.3l-0.1-0.2
		l-0.1-0.2l-0.1-0.3l-0.1-0.3l-0.1-2.4v-1.7l0.1-2.4l0.1-1.2l0.1-0.8l0.1-0.7l0.1-0.8l0.1-0.5l0.1-0.5l0.1-0.5l0.1-0.5l0.1-0.4
		l0.1-0.4l0.1-0.3l0.1-0.4l0.1-0.4l0.1-0.3l0.1-0.3l0.1-0.3l0.1-0.3l0.1-0.3l0.1-0.2l0.1-0.3l0.1-0.3l0.1-0.2l0.1-0.2l0.1-0.3
		l0.1-0.2l0.1-0.2l0.1-0.3l0.1-0.2l0.1-0.2l0.1-0.2l0.1-0.1l0.1-0.2l0.1-0.2l0.1-0.2l0.1-0.2l0.1-0.2l0.1-0.2l0.1-0.1l0.1-0.2
		l0.1-0.2l0.1-0.1l0.1-0.2l0.1-0.1l0.1-0.2l0.1-0.2l0.1-0.1l0.1-0.1l0.1-0.2l0.1-0.1l0.1-0.1l0.1-0.2v0.3l0.1,0.7l0.1,0.6l0.1,0.7
		l0.1,0.5l0.1,0.6l0.1,0.4l0.1,0.4l0.1,0.4l0.1,0.3l0.1,0.2l0.1,0.2l0.1,0.2l0.1,0.1l0.1,0.1l0.1,0.1l0.2,0.1l0.1,0.1l0.1,0.1
		l0.1,0.1l0.2,0.1l0.1,0.1l0.1,0.1l0.2,0.1l0.1,0.1l0.2,0.1l0.1,0.1l0.2,0.1l0.1,0.1l0.2,0.1l0.1,0.1l0.2,0.1l0.2,0.1l0.1,0.1
		l0.2,0.1l0.2,0.1l0.1,0.1l0.2,0.1l0.2,0.1l0.2,0.1l0.2,0.1l0.2,0.1l0.2,0.1l0.2,0.1l0.2,0.1l0.2,0.1l0.2,0.1l0.2,0.1l0.2,0.1
		l0.2,0.1l0.2,0.1l0.3,0.1l0.2,0.1l0.2,0.1l0.2,0.1l0.3,0.1l0.2,0.1l0.2,0.1l0.3,0.1l0.2,0.1l0.3,0.1l0.2,0.1l0.3,0.1l0.2,0.1
		l0.3,0.1l0.2,0.1l0.3,0.1l0.3,0.1l0.2,0.1l0.3,0.1l0.2,0.1l0.3,0.1l0.3,0.1l0.2,0.1l0.3,0.1l0.3,0.1l0.2,0.1l0.3,0.1l0.2,0.1
		l0.3,0.1l0.2,0.1l0.3,0.1l0.3,0.1l0.2,0.1l0.3,0.1l0.2,0.1l0.3,0.1l0.2,0.1l0.2,0.1l0.3,0.1l0.2,0.1l0.2,0.1l0.3,0.1l0.2,0.1
		l0.2,0.1l0.3,0.1l0.2,0.1l0.2,0.1l0.2,0.1l0.2,0.1l0.2,0.1l0.3,0.1l0.2,0.1l0.2,0.1l0.2,0.1l0.2,0.1l0.2,0.1l0.1,0.1l0.2,0.1
		l0.2,0.1l0.2,0.1l0.2,0.1l0.2,0.1l0.2,0.1l0.1,0.1l0.2,0.1l0.2,0.1l0.1,0.1l0.2,0.1l0.2,0.1l0.1,0.1l0.2,0.1l0.1,0.1l0.2,0.1
		l0.2,0.1l0.1,0.1l0.2,0.1l0.1,0.1l0.1,0.1l0.2,0.1l0.1,0.1l0.2,0.1l0.1,0.1l0.1,0.1l0.2,0.1l0.1,0.1l0.1,0.1l0.2,0.1l0.1,0.1
		l0.1,0.1l0.2,0.1l0.1,0.1l0.1,0.1l0.1,0.1l0.1,0.1l0.1,0.1l0.2,0.1l0.1,0.1l0.1,0.1l0.1,0.1l0.1,0.1l0.1,0.1l0.1,0.1l0.1,0.1
		l0.1,0.1l0.1,0.1l0.1,0.1l0.1,0.1l0.1,0.1l0.1,0.1l0.1,0.1l0.1,0.1l0.1,0.1l0.1,0.1l0.1,0.1l0.1,0.1l0.1,0.1l0.1,0.1l0.1,0.1
		l0.1,0.1l0.1,0.2l0.1,0.1l0.1,0.1l0.1,0.1l0.1,0.1l0.1,0.2l0.1,0.1l0.1,0.1l0.1,0.1l0.1,0.2l0.1,0.1l0.1,0.1l0.1,0.2l0.1,0.1
		l0.1,0.1l0.1,0.2l0.1,0.1l0.1,0.2l0.1,0.1l0.1,0.2l0.1,0.1l0.1,0.2l0.1,0.1l0.1,0.2l0.1,0.2l0.1,0.1l0.1,0.2l0.1,0.2l0.1,0.1
		l0.1,0.2l0.1,0.2l0.1,0.2l0.1,0.2l0.1,0.2l0.1,0.2h0.2l0.1-0.2l0.1-0.2l0.1-0.2l0.1-0.1l0.1-0.2l0.1-0.2l0.1-0.2l0.1-0.2l0.1-0.2
		l0.1-0.1l0.1-0.2l0.1-0.2l0.1-0.1l0.1-0.2l0.1-0.2l0.1-0.1l0.1-0.2l0.1-0.2l0.1-0.1l0.1-0.2l0.1-0.1l0.1-0.2l0.1-0.1l0.1-0.2
		l0.1-0.1l0.1-0.1l0.1-0.2l0.1-0.1l0.1-0.1l0.1-0.2l0.1-0.1l0.1-0.1l0.1-0.2l0.1-0.1l0.1-0.1l0.1-0.2l0.1-0.1l0.1-0.1l0.1-0.1
		l0.1-0.1l0.1-0.2l0.1-0.1l0.1-0.1l0.1-0.1l0.1-0.1l0.1-0.1l0.1-0.1l0.1-0.1l0.1-0.1l0.1-0.2l0.1-0.1l0.1-0.1l0.1-0.1l0.1-0.1
		l0.1-0.1l0.1-0.1l0.1-0.1l0.1-0.1l0.2-0.1l0.1-0.1l0.1-0.1l0.1-0.1l0.1-0.1l0.1-0.1l0.1-0.1l0.1-0.1l0.1-0.1l0.2-0.1l0.1-0.1
		l0.1-0.1l0.1-0.1l0.1-0.1l0.2-0.1l0.1-0.1l0.1-0.1l0.2-0.1l0.1-0.1l0.1-0.1l0.2-0.1l0.1-0.1l0.1-0.1l0.2-0.1l0.1-0.1l0.2-0.1
		l0.1-0.1l0.2-0.1l0.1-0.1l0.2-0.1l0.1-0.1l0.2-0.1l0.1-0.1l0.2-0.1l0.2-0.1l0.1-0.1l0.2-0.1l0.2-0.1l0.1-0.1l0.2-0.1l0.2-0.1
		l0.2-0.1l0.2-0.1l0.1-0.1l0.2-0.1l0.2-0.1l0.2-0.1l0.2-0.1l0.2-0.1l0.2-0.1l0.2-0.1l0.2-0.1l0.3-0.1l0.2-0.1l0.2-0.1l0.2-0.1
		l0.2-0.1l0.3-0.1l0.2-0.1l0.2-0.1l0.3-0.1l0.2-0.1l0.3-0.1l0.2-0.1l0.3-0.1l0.2-0.1l0.3-0.1l0.2-0.1l0.3-0.1l0.3-0.1l0.2-0.1
		l0.3-0.1l0.3-0.1l0.2-0.1l0.3-0.1l0.3-0.1l0.2-0.1l0.3-0.1l0.3-0.1l0.2-0.1l0.3-0.1l0.3-0.1l0.2-0.1l0.3-0.1l0.3-0.1l0.2-0.1
		l0.3-0.1l0.2-0.1l0.3-0.1l0.3-0.1l0.2-0.1l0.3-0.1l0.2-0.1l0.2-0.1l0.3-0.1l0.2-0.1l0.2-0.1l0.3-0.1l0.2-0.1l0.2-0.1l0.2-0.1
		l0.2-0.1l0.2-0.1l0.2-0.1l0.2-0.1l0.2-0.1l0.2-0.1l0.2-0.1l0.2-0.1l0.2-0.1l0.1-0.1l0.2-0.1l0.2-0.1l0.2-0.1l0.1-0.1l0.2-0.1
		l0.1-0.1l0.2-0.1l0.2-0.1l0.1-0.1l0.2-0.1l0.1-0.1l0.1-0.1l0.2-0.1l0.1-0.1l0.2-0.1l0.1-0.1l0.1-0.1l0.1-0.1l0.2-0.1l0.1-0.1
		l0.1-0.1l0.1-0.5l0.1-0.9l0.1-0.8l0.1-0.9l0.1-0.8l0.1-0.9l0.1-0.8l0.1-0.9V471h-0.1L-240.4,471.1L-240.4,471.1z"/>
	<path id="_151648568" class="st0" d="M-304.8,470.9c1-1.4,4.2-3.8,5.8-4.8c2.5-1.4,4.5-2.2,7.4-3.2c5-1.7,12-2.5,18.7-2.5h0.6
		c6.6,0,13.1,0.8,18.2,2.3c2.8,0.9,4.8,1.8,7.2,3c1.3,0.7,5.1,3.4,5.8,4.4l-2.9,1.9c-0.5-0.8-4.1-3.2-5.1-3.8
		c-1.8-1.1-3.8-2.1-6-2.9c-4.1-1.5-9.6-2.6-15.2-2.6h-4.6c-5.5,0-11.7,1.1-15.7,2.7c-2.4,1-4,1.8-6.1,3.1c-1.1,0.7-4.5,3.2-5.1,4
		L-304.8,470.9L-304.8,470.9z M-277.4,459.8l-1.5,0.1l-1.3,0.1l-1,0.1l-0.9,0.1l-0.8,0.1l-0.7,0.1l-0.7,0.1l-0.6,0.1l-0.6,0.1
		l-0.5,0.1l-0.5,0.1l-0.5,0.1l-0.5,0.1l-0.4,0.1l-0.5,0.1l-0.4,0.1l-0.4,0.1l-0.4,0.1l-0.3,0.1l-0.4,0.1l-0.3,0.1l-0.4,0.1l-0.3,0.1
		l-0.3,0.1l-0.3,0.1l-0.3,0.1l-0.3,0.1l-0.3,0.1l-0.3,0.1l-0.2,0.1l-0.3,0.1l-0.3,0.1l-0.2,0.1l-0.3,0.1l-0.2,0.1l-0.3,0.1l-0.2,0.1
		l-0.2,0.1l-0.2,0.1l-0.3,0.1l-0.2,0.1l-0.2,0.1l-0.2,0.1l-0.2,0.1l-0.2,0.1l-0.2,0.1l-0.2,0.1l-0.2,0.1l-0.2,0.1l-0.2,0.1l-0.1,0.1
		l-0.2,0.1l-0.2,0.1l-0.2,0.1l-0.1,0.1l-0.2,0.1l-0.2,0.1l-0.1,0.1l-0.2,0.1l-0.2,0.1l-0.1,0.1l-0.2,0.1l-0.1,0.1l-0.2,0.1l-0.1,0.1
		l-0.2,0.1l-0.1,0.1l-0.1,0.1l-0.2,0.1l-0.1,0.1l-0.2,0.1l-0.1,0.1l-0.1,0.1l-0.1,0.1l-0.2,0.1l-0.1,0.1l-0.1,0.1l-0.2,0.1l-0.1,0.1
		l-0.1,0.1l-0.1,0.1l-0.1,0.1l-0.2,0.1l-0.1,0.1l-0.1,0.1l-0.1,0.1l-0.1,0.1l-0.1,0.1l-0.1,0.1l-0.1,0.1l-0.1,0.1l-0.1,0.1l-0.1,0.1
		l-0.1,0.1l-0.1,0.1l-0.1,0.1l-0.1,0.1l-0.1,0.1l-0.1,0.1l-0.1,0.1l-0.1,0.1l-0.1,0.1l-0.1,0.1l-0.1,0.1l-0.1,0.1l-0.1,0.1l-0.1,0.1
		v0.2l0.1,0.1l0.2,0.1l0.1,0.1l0.1,0.1l0.1,0.1l0.1,0.1l0.1,0.1l0.1,0.1l0.1,0.1l0.1,0.1l0.1,0.1l0.1,0.1l0.2,0.1l0.1,0.1l0.1,0.1
		l0.1,0.1l0.1,0.1l0.1,0.1l0.1,0.1l0.1,0.1l0.1,0.1l0.1,0.1l0.2,0.1l0.1,0.1l0.1,0.1l0.1,0.1l0.1,0.1l0.1,0.1l0.2,0.1l0.1,0.1
		l0.1,0.1l0.1,0.1l0.2,0.1l0.1,0.1l0.1,0.1l0.2,0.1l0.1,0.1l0.1,0.1l0.2,0.1l0.1,0.1l0.2,0.1l0.1,0.1l0.2,0.1l0.2,0.1l0.1,0.1
		l0.2,0.1l0.2,0.1l0.3,0.1h0.7l0.2-0.1l0.1-0.2l0.1-0.1l0.1-0.2l0.1-0.1l0.1-0.2l0.1-0.1l0.1-0.1l0.1-0.2l0.1-0.1l0.1-0.1l0.1-0.2
		l0.1-0.1l0.1-0.1l0.1-0.1l0.1-0.1l0.1-0.1l0.1-0.2l0.1-0.1l0.1-0.1l0.1-0.1l0.1-0.1l0.1-0.1l0.1-0.1l0.1-0.1l0.1-0.1l0.1-0.1
		l0.1-0.1l0.1-0.1l0.1-0.1l0.2-0.1l0.1-0.1l0.1-0.1l0.1-0.1l0.1-0.1l0.1-0.1l0.2-0.1l0.1-0.1l0.1-0.1l0.1-0.1l0.2-0.1l0.1-0.1
		l0.1-0.1l0.2-0.1l0.1-0.1l0.2-0.1l0.1-0.1l0.2-0.1l0.1-0.1l0.2-0.1l0.1-0.1l0.2-0.1l0.1-0.1l0.2-0.1l0.2-0.1l0.2-0.1l0.1-0.1
		l0.2-0.1l0.2-0.1l0.2-0.1l0.2-0.1l0.2-0.1l0.2-0.1l0.2-0.1l0.3-0.1l0.2-0.1l0.2-0.1l0.2-0.1l0.3-0.1l0.2-0.1l0.3-0.1l0.3-0.1
		l0.3-0.1l0.2-0.1l0.3-0.1l0.3-0.1l0.4-0.1l0.3-0.1l0.4-0.1l0.3-0.1l0.4-0.1l0.4-0.1l0.4-0.1l0.5-0.1l0.5-0.1l0.5-0.1l0.6-0.1
		l0.6-0.1l0.7-0.1l0.8-0.1l0.9-0.1l1.1-0.1l1.6-0.1h7.4l1.6,0.1l1.1,0.1l0.9,0.1l0.8,0.1l0.7,0.1l0.6,0.1l0.6,0.1l0.5,0.1l0.5,0.1
		l0.4,0.1l0.5,0.1l0.4,0.1l0.3,0.1l0.4,0.1l0.4,0.1l0.3,0.1l0.3,0.1l0.3,0.1l0.3,0.1l0.3,0.1l0.3,0.1l0.3,0.1l0.2,0.1l0.3,0.1
		l0.2,0.1l0.3,0.1l0.2,0.1l0.2,0.1l0.2,0.1l0.2,0.1l0.2,0.1l0.2,0.1l0.2,0.1l0.2,0.1l0.2,0.1l0.2,0.1l0.2,0.1l0.2,0.1l0.1,0.1
		l0.2,0.1l0.2,0.1l0.1,0.1l0.2,0.1l0.1,0.1l0.2,0.1l0.1,0.1l0.2,0.1l0.1,0.1l0.2,0.1l0.1,0.1l0.2,0.1l0.1,0.1l0.1,0.1l0.1,0.1
		l0.2,0.1l0.1,0.1l0.1,0.1l0.1,0.1l0.2,0.1l0.1,0.1l0.1,0.1l0.1,0.1l0.1,0.1l0.1,0.1l0.1,0.1l0.1,0.1l0.1,0.1l0.1,0.1l0.1,0.1
		l0.1,0.1l0.1,0.1l0.1,0.1l0.1,0.1l0.1,0.1l0.1,0.1l0.1,0.1l0.1,0.1l0.1,0.1l0.1,0.1l0.1,0.2l0.1,0.1l0.1,0.1l0.1,0.1l0.1,0.2
		l0.1,0.1l0.1,0.1l0.1,0.1l0.1,0.2l0.1,0.1l0.1,0.2l0.1,0.1h0.2l0.1-0.1l0.2-0.1l0.1-0.1l0.1-0.1l0.2-0.1l0.1-0.1l0.1-0.1l0.2-0.1
		l0.1-0.1l0.1-0.1l0.2-0.1l0.1-0.1l0.1-0.1l0.2-0.1l0.1-0.1l0.1-0.1l0.2-0.1l0.1-0.1l0.1-0.1l0.2-0.1l0.1-0.1l0.1-0.1l0.2-0.1
		l0.1-0.1l0.1-0.1l0.2-0.1l0.1-0.1l0.1-0.1l0.2-0.1l0.1-0.1l0.1-0.1l0.2-0.1l0.1-0.1l0.1-0.1l0.2-0.1l0.1-0.1l0.1-0.1l0.2-0.1
		l0.1-0.1l0.1-0.1l0.2-0.1l0.1-0.1l0.1-0.1l0.2-0.1l0.1-0.1l0.1-0.1l0.2-0.1l0.1-0.1l0.1-0.1l0.1-0.1v-0.1l-0.1-0.1l-0.1-0.1
		l-0.1-0.1l-0.1-0.1l-0.1-0.1l-0.1-0.1l-0.1-0.1l-0.1-0.1l-0.1-0.1l-0.1-0.1l-0.1-0.1l-0.1-0.1l-0.1-0.1l-0.1-0.1l-0.1-0.1l-0.1-0.1
		l-0.1-0.1l-0.1-0.1l-0.1-0.1l-0.2-0.1l-0.1-0.1l-0.1-0.1l-0.1-0.1l-0.1-0.1l-0.2-0.1l-0.1-0.1l-0.1-0.1l-0.2-0.1l-0.1-0.1l-0.1-0.1
		l-0.1-0.1l-0.2-0.1l-0.1-0.1l-0.2-0.1l-0.1-0.1l-0.1-0.1l-0.2-0.1l-0.1-0.1l-0.2-0.1l-0.1-0.1l-0.2-0.1l-0.1-0.1l-0.2-0.1l-0.2-0.1
		l-0.1-0.1l-0.2-0.1l-0.2-0.1l-0.1-0.1l-0.2-0.1l-0.2-0.1l-0.2-0.1l-0.1-0.1l-0.2-0.1l-0.2-0.1l-0.2-0.1l-0.2-0.1l-0.2-0.1l-0.2-0.1
		l-0.2-0.1l-0.2-0.1l-0.2-0.1l-0.2-0.1l-0.3-0.1l-0.2-0.1l-0.2-0.1l-0.2-0.1l-0.3-0.1l-0.2-0.1l-0.3-0.1l-0.2-0.1l-0.3-0.1l-0.3-0.1
		l-0.2-0.1l-0.3-0.1l-0.3-0.1l-0.3-0.1l-0.3-0.1l-0.3-0.1l-0.3-0.1l-0.3-0.1l-0.4-0.1l-0.3-0.1l-0.4-0.1l-0.3-0.1l-0.4-0.1l-0.4-0.1
		l-0.4-0.1l-0.5-0.1l-0.4-0.1l-0.5-0.1l-0.5-0.1l-0.5-0.1l-0.5-0.1l-0.6-0.1l-0.6-0.1l-0.7-0.1l-0.7-0.1l-0.8-0.1l-0.9-0.1l-1-0.1
		l-1.3-0.1l-1.5-0.1l-3-0.1h-3.7L-277.4,459.8L-277.4,459.8z"/>
	<polygon id="_151649432" class="st0" points="-305.8,480.5 -305.9,480.8 -306,481.2 -306.1,481.5 -306.2,481.9 -306.3,482.3 
		-306.4,482.7 -306.5,483.2 -306.6,483.7 -306.7,484.1 -306.8,484.6 -306.9,485.2 -307,485.7 -307.1,486.4 -307.2,487.2 
		-307.3,488.1 -307.4,489.3 -307.4,494 -307.3,495.2 -307.2,496 -307.1,496.7 -307,497.2 -306.9,497.7 -306.8,498.3 -306.7,498.7 
		-306.6,499.1 -306.5,499.5 -306.4,499.8 -306.3,500.2 -306.2,500.5 -306.1,500.8 -306,501 -305.9,501.3 -305.8,501.6 -305.7,501.8 
		-305.6,502.2 -305.5,502.4 -305.4,502.6 -305.3,502.9 -305.2,503.1 -305.1,503.3 -305,503.5 -304.9,503.7 -304.8,503.9 
		-304.7,504.1 -304.6,504.2 -304.5,504.4 -304.4,504.6 -304.2,504.8 -304.1,504.9 -304,505.1 -303.9,505.2 -303.8,505.4 
		-303.7,505.5 -303.6,505.7 -303.5,505.9 -303.4,506.1 -303.3,506.2 -303.2,506.4 -303.1,506.5 -303,506.6 -302.9,506.8 
		-302.6,506.9 -302.4,507 -302.2,507.1 -302,507.2 -301.8,507.3 -301.6,507.4 -301.4,507.5 -301.2,507.6 -301.1,507.7 -300.9,507.8 
		-300.8,507.9 -300.6,508 -300.4,508.1 -300.2,508.2 -300.1,508.3 -300,508.4 -299.8,508.5 -299.7,508.6 -299.6,508.7 -299.5,508.8 
		-299.4,508.9 -299.3,509 -299.1,509.1 -299,509.2 -298.9,509.3 -298.8,509.4 -298.7,509.5 -298.6,509.7 -298.5,509.8 -298.4,509.9 
		-298.3,510 -298.1,510.1 -298,510.2 -297.9,510.3 -297.8,510.4 -297.7,510.5 -297.5,510.6 -297.4,510.7 -297.3,510.8 -297.1,510.9 
		-297,511 -296.8,511.1 -296.6,511.2 -296.5,511.3 -296.4,511.4 -296.3,511.5 -296.2,511.6 -296.1,511.7 -296,511.8 -295.9,511.9 
		-295.8,512 -295.6,512.1 -295.5,512.2 -295.4,512.3 -295.3,512.4 -295.2,512.5 -295,512.6 -294.9,512.7 -294.8,512.8 -294.7,512.9 
		-294.5,513 -294.4,513.1 -294.3,513.2 -294.1,513.4 -294,513.5 -293.8,513.6 -293.7,513.7 -293.5,513.8 -293.4,513.9 -293.2,514 
		-293.1,514.1 -292.8,514.2 -292.7,514.3 -292.5,514.4 -292.3,514.5 -292.1,514.6 -291.9,514.7 -291.8,514.8 -291.6,514.9 
		-291.4,515 -291.2,515.1 -291,515.2 -290.8,515.3 -290.6,515.4 -290.4,515.5 -290.1,515.6 -289.9,515.7 -289.7,515.8 -289.4,515.9 
		-289.2,516 -288.8,516.1 -288.5,516.2 -288.3,516.3 -288,516.4 -287.7,516.5 -287.4,516.6 -287.1,516.7 -286.8,516.8 -286.4,516.9 
		-286.1,517 -285.7,517.2 -285.2,517.3 -284.8,517.4 -284.3,517.5 -283.9,517.6 -283.4,517.7 -282.9,517.8 -282.3,517.9 -281.5,518 
		-280.8,518.1 -280,518.2 -279.1,518.3 -277.9,518.4 -276.1,518.5 -269.1,518.5 -267.4,518.4 -266.1,518.3 -265.1,518.2 
		-264.4,518.1 -263.7,518 -263,517.9 -262.3,517.8 -261.8,517.7 -261.3,517.6 -260.9,517.5 -260.4,517.4 -260,517.3 -259.6,517.2 
		-259.2,517 -258.9,516.9 -258.4,516.8 -258.1,516.7 -257.8,516.6 -257.5,516.5 -257.2,516.4 -256.9,516.3 -256.7,516.2 
		-256.4,516.1 -256.1,516 -255.9,515.9 -255.6,515.8 -255.4,515.7 -255.2,515.6 -254.8,515.5 -254.6,515.4 -254.4,515.3 
		-254.2,515.2 -254,515.1 -253.8,515 -253.6,514.9 -253.4,514.8 -253.3,514.7 -253.1,514.6 -252.9,514.5 -252.7,514.4 -252.5,514.3 
		-252.4,514.2 -252.2,514.1 -252.1,514 -251.9,513.9 -251.8,513.8 -251.6,513.7 -251.5,513.6 -251.3,513.5 -251.1,513.4 
		-250.9,513.2 -250.8,513.1 -250.7,513 -250.5,512.9 -250.4,512.8 -250.3,512.7 -250.2,512.6 -250,512.5 -249.9,512.4 -249.8,512.3 
		-249.7,512.2 -249.6,512.1 -249.4,512 -249.3,511.9 -249.2,511.8 -249.1,511.7 -249,511.6 -248.9,511.5 -248.8,511.4 -248.7,511.3 
		-248.6,511.2 -248.5,511.1 -248.4,511 -248.3,510.9 -248.2,510.8 -248.1,510.7 -248,510.6 -247.9,510.5 -247.8,510.4 -247.7,510.2 
		-247.6,510.1 -247.5,510 -247.3,509.9 -247.2,509.8 -247.1,509.5 -247,509.4 -246.9,509.3 -246.8,509.2 -246.7,509 -246.6,508.9 
		-246.5,508.8 -246.4,508.6 -246.3,508.5 -246.2,508.3 -246.1,508.2 -246,508 -245.9,507.9 -245.8,507.8 -245.7,507.7 -245.5,507.6 
		-245.4,507.5 -245.2,507.4 -245.1,507.3 -245,507.2 -244.8,507.1 -244.7,507 -244.6,506.9 -244.5,506.8 -244.4,506.7 -244.3,506.6 
		-244.1,506.5 -244,506.4 -243.9,506.3 -243.8,506.2 -243.6,506.1 -243.5,506 -243.4,505.7 -243.3,505.6 -243.2,505.5 -243.1,505.4 
		-243,505.3 -242.9,505.2 -242.8,505.1 -242.7,504.9 -242.6,504.8 -242.5,504.7 -242.4,504.5 -242.3,504.4 -242.2,504.2 
		-242.1,504.1 -242,503.9 -241.9,503.8 -241.8,503.6 -241.7,503.5 -241.6,503.3 -241.5,503.1 -241.4,502.9 -241.3,502.8 
		-241.2,502.6 -241.1,502.4 -241,502.2 -240.9,501.9 -240.8,501.6 -240.7,501.4 -240.6,501.2 -240.5,500.9 -240.4,500.7 
		-240.3,500.4 -240.2,500.2 -240.1,499.9 -240,499.6 -239.8,499.2 -239.7,498.9 -239.6,498.5 -239.5,498.1 -239.4,497.7 
		-239.3,497.2 -239.2,496.7 -239.1,496.2 -239,495.5 -238.9,494.8 -238.8,493.7 -238.8,488.5 -238.9,487.5 -239,486.6 -239.1,486 
		-239.2,485.4 -239.3,484.9 -239.4,484.4 -239.5,484 -239.6,483.6 -239.7,483.2 -239.8,482.7 -240,482.4 -240.1,482.1 -240.2,481.8 
		-240.3,481.5 -240.4,481.2 -240.5,481 -240.6,480.7 -240.8,480.7 -240.9,480.8 -241,481 -241.1,481.2 -241.2,481.4 -241.3,481.6 
		-241.4,481.8 -241.5,482.1 -241.6,482.3 -241.7,482.5 -241.8,482.7 -241.9,482.9 -242,483.2 -242.1,483.4 -242.2,483.6 
		-242.3,483.8 -242.4,484 -242.5,484.2 -242.6,484.4 -242.7,484.6 -242.8,484.8 -242.9,485 -243,485.2 -243.1,485.4 -243.1,485.8 
		-243,486.6 -242.9,487.6 -242.8,488.8 -242.8,494.7 -242.9,495.9 -243,496.8 -243.1,497.5 -243.2,498.3 -243.3,498.8 -243.4,499.4 
		-243.5,499.8 -243.6,500.3 -243.8,500.7 -243.9,501 -244,501.4 -244.1,501.7 -244.2,502.2 -244.3,502.5 -244.4,502.8 -244.5,503.1 
		-244.6,503.3 -244.7,503.6 -244.8,503.9 -244.9,504.1 -245,504.3 -245.1,504.6 -245.2,504.8 -245.3,505 -245.4,505.2 -245.5,505.4 
		-245.6,505.6 -245.7,505.9 -245.8,506.1 -245.9,506.3 -246,506.5 -246.1,506.6 -246.2,506.8 -246.3,507 -246.4,507.1 -246.5,507.3 
		-246.6,507.5 -246.7,507.6 -246.8,507.8 -246.9,507.9 -247,508.1 -247.1,508.2 -247.2,508.3 -247.3,508.5 -247.5,508.6 
		-247.6,508.7 -247.7,508.9 -247.8,509 -247.9,509.1 -248,509.2 -248.1,509.4 -248.2,509.5 -248.3,509.7 -248.4,509.8 -248.5,509.9 
		-248.6,510 -248.7,510.1 -248.8,510.2 -248.9,510.4 -249,510.5 -249.1,510.6 -249.2,510.7 -249.3,510.8 -249.4,510.9 -249.6,511 
		-249.7,511.1 -249.8,511.2 -249.9,511.3 -250,511.4 -250.1,511.5 -250.2,511.6 -250.3,511.7 -250.5,511.8 -250.6,511.9 -250.7,512 
		-250.8,512.1 -251,512.2 -251.1,512.3 -251.3,512.4 -251.5,512.5 -251.6,512.6 -251.7,512.7 -251.9,512.8 -252,512.9 -252.2,513 
		-252.3,513.1 -252.5,513.2 -252.7,513.4 -252.8,513.5 -253,513.6 -253.2,513.7 -253.3,513.8 -253.5,513.9 -253.7,514 -253.9,514.1 
		-254.1,514.2 -254.3,514.3 -254.4,514.4 -254.7,514.5 -254.9,514.6 -255.2,514.7 -255.4,514.8 -255.6,514.9 -255.8,515 
		-256.1,515.1 -256.3,515.2 -256.6,515.3 -256.8,515.4 -257.1,515.5 -257.4,515.6 -257.7,515.7 -258,515.8 -258.3,515.9 -258.6,516 
		-259.1,516.1 -259.4,516.2 -259.8,516.3 -260.2,516.4 -260.6,516.5 -261,516.6 -261.5,516.7 -262,516.8 -262.5,516.9 -263.2,517 
		-263.8,517.2 -264.5,517.3 -265.3,517.4 -266.2,517.5 -267.5,517.6 -269.1,517.7 -276.1,517.7 -277.7,517.6 -279,517.5 
		-279.9,517.4 -280.7,517.3 -281.4,517.2 -282.1,517 -282.7,516.9 -283.2,516.8 -283.7,516.7 -284.2,516.6 -284.6,516.5 -285,516.4 
		-285.5,516.3 -285.9,516.2 -286.2,516.1 -286.6,516 -286.9,515.9 -287.2,515.8 -287.5,515.7 -287.8,515.6 -288.1,515.5 
		-288.4,515.4 -288.6,515.3 -288.9,515.2 -289.2,515.1 -289.5,515 -289.7,514.9 -289.9,514.8 -290.1,514.7 -290.3,514.6 
		-290.5,514.5 -290.8,514.4 -291,514.3 -291.1,514.2 -291.3,514.1 -291.5,514 -291.7,513.9 -291.9,513.8 -292,513.7 -292.2,513.6 
		-292.4,513.5 -292.5,513.4 -292.7,513.2 -293,513.1 -293.1,513 -293.3,512.9 -293.4,512.8 -293.6,512.7 -293.7,512.6 -293.8,512.5 
		-294,512.4 -294.1,512.3 -294.2,512.2 -294.4,512.1 -294.5,512 -294.6,511.9 -294.7,511.8 -294.9,511.7 -295,511.6 -295.1,511.5 
		-295.2,511.4 -295.3,511.3 -295.4,511.2 -295.5,511.1 -295.6,511 -295.8,510.9 -295.9,510.8 -296,510.7 -296.1,510.6 -296.2,510.5 
		-296.3,510.4 -296.4,510.2 -296.5,510.1 -296.6,510 -296.8,509.9 -296.9,509.8 -297,509.7 -297.1,509.5 -297.2,509.4 -297.3,509.2 
		-297.4,509.1 -297.5,509 -297.6,508.9 -297.7,508.7 -297.8,508.6 -297.9,508.5 -298,508.3 -298.1,508.2 -298.2,508.1 -298.3,507.9 
		-298.4,507.8 -298.5,507.6 -298.6,507.5 -298.7,507.3 -298.8,507.1 -298.9,507 -299,506.8 -299.1,506.6 -299.2,506.5 -299.3,506.3 
		-299.4,506.1 -299.5,505.9 -299.6,505.6 -299.7,505.4 -299.8,505.2 -299.9,505 -300,504.8 -300.1,504.6 -300.2,504.3 -300.3,504.1 
		-300.4,503.9 -300.6,503.6 -300.7,503.3 -300.8,503.1 -300.9,502.8 -301,502.5 -301.1,502.2 -301.2,501.7 -301.3,501.4 -301.4,501 
		-301.5,500.7 -301.6,500.3 -301.7,499.8 -301.8,499.4 -301.9,498.8 -302,498.3 -302.1,497.5 -302.2,496.8 -302.3,495.9 
		-302.4,494.7 -302.4,488.9 -302.3,487.8 -302.3,486.7 -302.4,486.5 -302.5,486.3 -302.6,486.1 -302.7,485.9 -302.8,485.7 
		-302.9,485.5 -303,485.3 -303.1,485.1 -303.2,485 -303.3,484.8 -303.4,484.6 -303.5,484.4 -303.6,484.2 -303.7,484 -303.8,483.8 
		-303.9,483.6 -304,483.4 -304.1,483.2 -304.2,482.9 -304.4,482.7 -304.5,482.5 -304.6,482.3 -304.7,482.1 -304.8,481.9 
		-304.9,481.7 -305,481.5 -305.1,481.3 -305.2,481.1 -305.3,480.9 -305.4,480.7 -305.5,480.5 -305.6,480.4 -305.7,480.4 	"/>
	<polygon id="_154523752" class="st0" points="-241.8,479.9 -241.9,480 -242,480.1 -242.2,480.2 -242.3,480.3 -242.5,480.4 
		-242.6,480.5 -242.8,480.6 -242.9,480.7 -243.1,480.8 -243.3,480.9 -243.4,481 -243.6,481.1 -243.9,481.2 -244,481.3 -244.2,481.4 
		-244.4,481.5 -244.6,481.6 -244.7,481.7 -244.9,481.8 -245.1,481.9 -245.3,482 -245.5,482.1 -245.7,482.2 -245.9,482.3 
		-246.1,482.4 -246.3,482.5 -246.5,482.6 -246.7,482.7 -246.9,482.8 -247.1,482.9 -247.3,483.1 -247.7,483.2 -247.9,483.3 
		-248.1,483.4 -248.3,483.5 -248.6,483.6 -248.8,483.7 -249,483.8 -249.2,483.9 -249.5,484 -249.7,484.1 -250,484.2 -250.2,484.3 
		-250.4,484.4 -250.7,484.5 -250.9,484.6 -251.3,484.7 -251.5,484.8 -251.8,484.9 -252,485 -252.3,485.1 -252.5,485.2 -252.8,485.3 
		-253.1,485.4 -253.3,485.5 -253.6,485.6 -253.8,485.7 -254.1,485.8 -254.4,485.9 -254.6,486 -254.9,486.1 -255.2,486.2 
		-255.5,486.3 -255.8,486.4 -256,486.5 -256.3,486.6 -256.5,486.7 -256.8,486.9 -257.1,487 -257.3,487.1 -257.6,487.2 -257.8,487.3 
		-258.1,487.4 -258.3,487.5 -258.5,487.6 -258.7,487.7 -259.1,487.8 -259.3,487.9 -259.5,488 -259.7,488.1 -259.9,488.2 
		-260.1,488.3 -260.3,488.4 -260.5,488.5 -260.7,488.6 -260.9,488.7 -261.1,488.8 -261.2,488.9 -261.4,489 -261.6,489.1 
		-261.8,489.2 -261.9,489.3 -262.1,489.4 -262.2,489.5 -262.4,489.6 -262.7,489.7 -262.8,489.8 -263,489.9 -263.1,490 -263.3,490.1 
		-263.4,490.2 -263.5,490.3 -263.7,490.4 -263.8,490.5 -264,490.7 -264.1,490.8 -264.2,490.9 -264.3,491 -264.5,491.1 -264.6,491.2 
		-264.7,491.3 -264.8,491.4 -265,491.5 -265.1,491.6 -265.2,491.7 -265.3,491.8 -265.4,491.9 -265.5,492 -265.6,492.1 -265.7,492.2 
		-265.9,492.3 -266,492.4 -266.1,492.5 -266.2,492.6 -266.3,492.7 -266.5,492.8 -266.6,492.9 -266.7,493 -266.8,493.1 -266.9,493.2 
		-267,493.4 -267.1,493.5 -267.2,493.6 -267.3,493.7 -267.4,493.8 -267.5,493.9 -267.6,494 -267.7,494.1 -267.8,494.3 -267.9,494.5 
		-268,494.6 -268.1,494.7 -268.2,494.8 -268.3,495 -268.4,495.1 -268.5,495.2 -268.6,495.4 -268.7,495.5 -268.8,495.6 -268.9,495.8 
		-269,495.9 -269.1,496 -269.2,496.2 -269.3,496.3 -269.4,496.5 -269.5,496.6 -269.6,496.7 -269.7,496.9 -269.8,497 -269.9,497.2 
		-270,497.4 -270.1,497.5 -270.3,497.7 -270.4,497.8 -270.5,498 -270.6,498.3 -270.7,498.4 -270.8,498.6 -270.9,498.8 -271,498.9 
		-271.1,499.1 -271.2,499.3 -271.3,499.4 -271.4,499.6 -271.5,499.8 -271.6,500 -271.7,500.2 -271.8,500.3 -271.9,500.5 -272,500.7 
		-272.1,500.9 -272.2,501.1 -272.3,501.3 -272.4,501.5 -272.5,501.7 -272.6,501.9 -272.7,502.1 -272.8,501.8 -272.9,501.6 
		-273,501.4 -273.1,501.2 -273.2,501 -273.3,500.9 -273.4,500.7 -273.5,500.5 -273.6,500.3 -273.7,500.1 -273.8,500 -273.9,499.8 
		-274.1,499.6 -274.2,499.4 -274.3,499.3 -274.4,499.1 -274.5,498.9 -274.6,498.8 -274.7,498.6 -274.8,498.5 -274.9,498.3 -275,498 
		-275.1,497.9 -275.2,497.7 -275.3,497.6 -275.4,497.5 -275.5,497.3 -275.6,497.2 -275.7,497 -275.8,496.9 -275.9,496.7 -276,496.6 
		-276.1,496.5 -276.2,496.3 -276.3,496.2 -276.4,496.1 -276.5,496 -276.6,495.8 -276.7,495.7 -276.8,495.6 -276.9,495.5 -277,495.3 
		-277.1,495.2 -277.2,495.1 -277.3,495 -277.4,494.9 -277.5,494.8 -277.6,494.6 -277.7,494.5 -277.9,494.3 -278,494.2 -278.1,494.1 
		-278.2,494 -278.3,493.9 -278.4,493.8 -278.5,493.7 -278.6,493.6 -278.7,493.5 -278.8,493.4 -278.9,493.3 -279,493.2 -279.1,493.1 
		-279.2,493 -279.3,492.9 -279.5,492.8 -279.6,492.7 -279.7,492.6 -279.8,492.5 -279.9,492.4 -280,492.3 -280.1,492.2 -280.3,492.1 
		-280.4,492 -280.5,491.9 -280.6,491.8 -280.8,491.7 -280.9,491.6 -281,491.5 -281.2,491.4 -281.3,491.3 -281.4,491.2 -281.7,491.1 
		-281.8,491 -282,490.9 -282.1,490.8 -282.3,490.7 -282.4,490.5 -282.6,490.4 -282.7,490.3 -282.9,490.2 -283,490.1 -283.2,490 
		-283.4,489.9 -283.5,489.8 -283.7,489.7 -283.9,489.6 -284.1,489.5 -284.3,489.4 -284.4,489.3 -284.6,489.2 -284.8,489.1 -285,489 
		-285.2,488.9 -285.5,488.8 -285.7,488.7 -285.9,488.6 -286.1,488.5 -286.3,488.4 -286.6,488.3 -286.8,488.2 -287,488.1 -287.2,488 
		-287.5,487.9 -287.7,487.8 -287.9,487.7 -288.2,487.6 -288.4,487.5 -288.7,487.4 -288.9,487.3 -289.3,487.2 -289.6,487.1 
		-289.8,487 -290.1,486.9 -290.4,486.7 -290.6,486.6 -290.9,486.5 -291.1,486.4 -291.4,486.3 -291.7,486.2 -291.9,486.1 -292.2,486 
		-292.5,485.9 -292.7,485.8 -293.1,485.7 -293.3,485.6 -293.6,485.5 -293.9,485.4 -294.1,485.3 -294.4,485.2 -294.6,485.1 
		-294.9,485 -295.1,484.9 -295.4,484.8 -295.6,484.7 -295.9,484.6 -296.1,484.5 -296.3,484.4 -296.6,484.3 -296.9,484.2 
		-297.2,484.1 -297.4,484 -297.6,483.9 -297.8,483.8 -298.1,483.7 -298.3,483.6 -298.5,483.5 -298.7,483.4 -298.9,483.3 
		-299.1,483.2 -299.3,483.1 -299.5,482.9 -299.7,482.8 -299.9,482.7 -300.1,482.6 -300.3,482.5 -300.6,482.4 -300.8,482.3 
		-301,482.2 -301.2,482.1 -301.4,482 -301.5,481.9 -301.7,481.8 -301.9,481.7 -302,481.6 -302.2,481.5 -302.4,481.4 -302.5,481.3 
		-302.7,481.2 -302.8,481.1 -303,481 -303.1,480.9 -303.3,480.8 -303.4,480.7 -303.6,480.6 -303.7,480.5 -303.8,480.4 -304,480.3 
		-304.1,480.3 -304.1,480.6 -304,480.8 -303.9,481.1 -303.8,481.4 -303.7,481.6 -303.6,481.9 -303.5,482.2 -303.4,482.5 
		-303.3,482.7 -303.2,483.1 -303.1,483.4 -303,483.7 -302.9,483.9 -302.8,484.2 -302.7,484.5 -302.6,484.8 -302.5,485 -302.4,485.3 
		-302.3,485.6 -302.2,485.8 -302.1,486.1 -302,486.2 -301.9,486.3 -301.6,486.4 -301.3,486.5 -301,486.6 -300.7,486.7 -300.3,486.9 
		-300,487 -299.7,487.1 -299.4,487.2 -299.1,487.3 -298.8,487.4 -298.5,487.5 -298.2,487.6 -297.9,487.7 -297.6,487.8 -297.3,487.9 
		-297,488 -296.6,488.1 -296.3,488.2 -296,488.3 -295.7,488.4 -295.4,488.5 -295.1,488.6 -294.8,488.7 -294.5,488.8 -294.2,488.9 
		-293.9,489 -293.6,489.1 -293.3,489.2 -293,489.3 -292.6,489.4 -292.3,489.5 -292,489.6 -291.7,489.7 -291.4,489.8 -291.1,489.9 
		-290.8,490 -290.5,490.1 -290.2,490.2 -289.9,490.3 -289.6,490.4 -289.3,490.5 -288.9,490.7 -288.6,490.8 -288.3,490.9 -288,491 
		-287.7,491.1 -287.4,491.2 -287.1,491.3 -286.8,491.4 -286.5,491.5 -286.3,491.6 -286,491.7 -285.8,491.8 -285.6,491.9 -285.4,492 
		-285,492.1 -284.8,492.2 -284.6,492.3 -284.4,492.4 -284.2,492.5 -284,492.6 -283.8,492.7 -283.6,492.8 -283.5,492.9 -283.3,493 
		-283.1,493.1 -282.9,493.2 -282.8,493.3 -282.6,493.4 -282.4,493.5 -282.3,493.6 -282.1,493.7 -282,493.8 -281.8,493.9 -281.7,494 
		-281.4,494.1 -281.3,494.2 -281.1,494.3 -281,494.5 -280.9,494.6 -280.7,494.7 -280.6,494.8 -280.5,494.9 -280.3,495 -280.2,495.1 
		-280.1,495.2 -280,495.3 -279.9,495.4 -279.7,495.5 -279.6,495.6 -279.5,495.7 -279.4,495.8 -279.3,495.9 -279.2,496 -279.1,496.1 
		-279,496.2 -278.9,496.3 -278.8,496.4 -278.6,496.5 -278.5,496.7 -278.4,496.8 -278.3,496.9 -278.2,497 -278.1,497.1 -278,497.2 
		-277.9,497.3 -277.7,497.4 -277.6,497.5 -277.5,497.6 -277.4,497.7 -277.3,497.9 -277.2,498 -277.1,498.1 -277,498.3 -276.9,498.4 
		-276.8,498.6 -276.7,498.7 -276.6,498.8 -276.5,499 -276.4,499.1 -276.3,499.2 -276.2,499.4 -276.1,499.5 -276,499.6 -275.9,499.8 
		-275.8,499.9 -275.7,500.1 -275.6,500.2 -275.5,500.4 -275.4,500.5 -275.3,500.7 -275.2,500.8 -275.1,501 -275,501.2 -274.9,501.3 
		-274.8,501.5 -274.7,501.7 -274.6,501.8 -274.5,502.1 -274.4,502.3 -274.3,502.5 -274.2,502.6 -274.1,502.8 -273.9,503 
		-273.8,503.2 -273.7,503.4 -273.6,503.6 -273.5,503.8 -273.4,504 -273.3,504.2 -273.2,504.4 -273.1,504.6 -273,504.8 -272.9,505 
		-272.8,505.2 -272.6,505.2 -272.5,505 -272.4,504.8 -272.3,504.6 -272.2,504.4 -272.1,504.2 -272,504 -271.9,503.8 -271.8,503.6 
		-271.7,503.4 -271.6,503.2 -271.5,503.1 -271.4,502.9 -271.3,502.7 -271.2,502.5 -271.1,502.3 -271,502.1 -270.9,501.9 
		-270.8,501.7 -270.7,501.5 -270.6,501.3 -270.5,501.2 -270.4,501 -270.3,500.8 -270.1,500.7 -270,500.5 -269.9,500.4 -269.8,500.2 
		-269.7,500.1 -269.6,499.9 -269.5,499.8 -269.4,499.6 -269.3,499.5 -269.2,499.3 -269.1,499.2 -269,499 -268.9,498.9 -268.8,498.8 
		-268.7,498.6 -268.6,498.5 -268.5,498.4 -268.4,498.1 -268.3,498 -268.2,497.9 -268.1,497.7 -268,497.6 -267.9,497.5 -267.8,497.4 
		-267.7,497.3 -267.6,497.1 -267.5,497 -267.4,496.9 -267.3,496.8 -267.2,496.7 -267.1,496.6 -267,496.5 -266.9,496.4 -266.8,496.2 
		-266.7,496.1 -266.6,496 -266.5,495.9 -266.3,495.8 -266.2,495.7 -266.1,495.6 -266,495.5 -265.8,495.4 -265.7,495.3 -265.6,495.2 
		-265.5,495.1 -265.4,495 -265.3,494.9 -265.2,494.8 -265.1,494.7 -264.9,494.6 -264.8,494.5 -264.7,494.3 -264.6,494.2 
		-264.4,494.1 -264.3,494 -264.2,493.9 -264.1,493.8 -263.9,493.7 -263.8,493.6 -263.6,493.5 -263.5,493.4 -263.3,493.3 
		-263.2,493.2 -263.1,493.1 -262.9,493 -262.7,492.9 -262.5,492.8 -262.3,492.7 -262.2,492.6 -262,492.5 -261.8,492.4 -261.6,492.3 
		-261.5,492.2 -261.3,492.1 -261.1,492 -260.9,491.9 -260.7,491.8 -260.5,491.7 -260.3,491.6 -260.1,491.5 -259.9,491.4 
		-259.6,491.3 -259.4,491.2 -259.2,491.1 -258.9,491 -258.6,490.9 -258.3,490.8 -258,490.7 -257.7,490.5 -257.5,490.4 -257.2,490.3 
		-256.9,490.2 -256.6,490.1 -256.3,490 -256,489.9 -255.8,489.8 -255.5,489.7 -255.2,489.6 -254.8,489.5 -254.5,489.4 -254.2,489.3 
		-254,489.2 -253.7,489.1 -253.4,489 -253.1,488.9 -252.8,488.8 -252.5,488.7 -252.3,488.6 -252,488.5 -251.7,488.4 -251.4,488.3 
		-251,488.2 -250.8,488.1 -250.5,488 -250.2,487.9 -249.9,487.8 -249.6,487.7 -249.3,487.6 -249.1,487.5 -248.8,487.4 -248.5,487.3 
		-248.2,487.2 -247.9,487.1 -247.6,487 -247.3,486.9 -247,486.7 -246.7,486.6 -246.4,486.5 -246.1,486.4 -245.8,486.3 -245.6,486.2 
		-245.3,486.1 -245,486 -244.7,485.9 -244.4,485.8 -244.2,485.7 -243.9,485.6 -243.5,485.5 -243.4,485.3 -243.3,485 -243.2,484.8 
		-243.1,484.5 -243,484.2 -242.9,484 -242.8,483.7 -242.7,483.4 -242.6,483.2 -242.5,482.8 -242.4,482.5 -242.3,482.3 -242.2,482 
		-242.1,481.8 -242,481.5 -241.9,481.2 -241.8,481 -241.7,480.7 -241.6,480.4 -241.5,480.2 -241.4,479.9 -241.4,479.8 -241.6,479.8 
			"/>
	<polygon id="_154523848" class="st0" points="-276.3,531.6 -271.1,531.6 -271,531.5 -270.9,531.4 -270.8,531.3 -270.6,531.2 
		-270.5,531.1 -270.4,531 -270.3,530.9 -270,530.8 -269.9,530.7 -269.8,530.6 -269.7,530.5 -269.5,530.4 -269.4,530.3 -269.3,530.2 
		-269.2,530.1 -269.1,530 -268.9,529.9 -268.8,529.8 -268.7,529.7 -268.6,529.6 -268.4,529.5 -268.3,529.4 -268.2,529.3 
		-268.1,529.2 -267.9,529.1 -267.8,529 -267.7,528.9 -267.6,528.8 -267.4,528.7 -267.3,528.6 -267.2,528.4 -267.1,528.3 -267,528.2 
		-266.8,528.1 -266.7,528 -266.6,527.9 -266.5,527.8 -266.2,527.7 -266.1,527.6 -266.1,527.4 -276.3,527.4 	"/>
	<polygon id="_154523944" class="st0" points="-268,537.4 -268.1,537.5 -268.2,537.6 -268.4,537.7 -268.5,537.8 -268.6,537.9 
		-268.7,538 -268.9,538.1 -269,538.2 -269.1,538.3 -269.3,538.4 -269.4,538.5 -269.5,538.6 -269.7,538.7 -269.8,538.8 -269.9,538.9 
		-270.1,539 -270.3,539.1 -270.4,539.2 -270.5,539.3 -270.7,539.4 -270.8,539.5 -270.9,539.6 -271.1,539.7 -271.2,539.9 -271.3,540 
		-271.5,540.1 -271.6,540.2 -271.7,540.3 -271.9,540.4 -272,540.5 -272.1,540.6 -272.2,540.7 -272.4,540.8 -272.5,540.9 -272.6,541 
		-272.8,541.1 -272.9,541.2 -272.9,541.3 -263,541.4 -263,537.3 -267.7,537.3 -267.8,537.3 	"/>
	<polygon id="_154524040" class="st0" points="-272.9,541.3 -273,541.3 -273.1,541.4 -273.1,541.5 -262.9,541.5 -262.9,537.2 
		-267.7,537.2 -267.7,537.3 -263,537.3 -263,541.4 	"/>
</g>
</svg>
