<?xml version="1.0" encoding="utf-8"?>
<!-- Generator: Adobe Illustrator 19.1.0, SVG Export Plug-In . SVG Version: 6.00 Build 0)  -->
<svg version="1.1" id="Слой_1" xmlns="http://www.w3.org/2000/svg" xmlns:xlink="http://www.w3.org/1999/xlink" x="0px" y="0px"
	 viewBox="-386 387.2 226.8 226.8" style="enable-background:new -386 387.2 226.8 226.8;" xml:space="preserve">
<style type="text/css">
	.st0{fill:none;stroke:#727272;stroke-miterlimit:10;}
	.st1{fill:#727272;}
	.st2{fill:#FFFFFF;}
</style>
<rect x="-365.3" y="476.7" class="st0" width="48.7" height="48.7"/>
<rect x="-363.9" y="478.1" class="st0" width="45.9" height="45.9"/>
<path id="_154527880" class="st1" d="M-361.4,514.7l6,6.1l14-14.2l14.5,14.5l6.1-6l-14.3-14.3l2.8-2.7v-5.7l1.7-1.5v4.5l2.2,1.8
	l6.7-6.7l2.1,1.6c1.3-4.7-6-15.3-12.1-9.4l-7,7l1.4,1.7l-3.6,3.5l-3.5-3.4l1.8-1.6l-7.7-7.5c-5.8-4.8-11.8,2.5-12,9.6l2.1-1.8l6.5,7
	l2.3-1.9v-4.3l1.4,1.1v5.6l2.8,2.8L-361.4,514.7L-361.4,514.7z"/>
<path class="st1" d="M-309.3,478.3v19.1h5.2v-6.2l4.4,6.2h6.1l-5.4-7.7c6.3-3.1,3.9-11.4-2.7-11.5H-309.3L-309.3,478.3z"/>
<path class="st2" d="M-304.1,482.5v4.2h1.8c2.5-0.5,1.8-4,0-4.2C-302.3,482.5-304.1,482.5-304.1,482.5z"/>
<path class="st1" d="M-286.5,483.7c1.4,0,2.7,0.5,3.8,1.2v-0.7h5l0,13.3h-5.1l0-0.8c-1.1,0.8-2.4,1.2-3.8,1.2
	c-3.8,0-6.8-3.2-6.8-7.1C-293.3,486.9-290.3,483.7-286.5,483.7z"/>
<path class="st2" d="M-285.4,487.9c1.7,0,3.1,1.3,3.1,2.9s-1.4,2.9-3.1,2.9c-1.7,0-3.1-1.3-3.1-2.9S-287.1,487.9-285.4,487.9z"/>
<rect x="-274.9" y="484.2" class="st1" width="5.4" height="13.3"/>
<path class="st1" d="M-272.2,476.6c1.6,0,2.8,1.3,2.8,2.8c0,1.6-1.3,2.8-2.8,2.8c-1.6,0-2.8-1.3-2.8-2.8
	C-275.1,477.9-273.8,476.6-272.2,476.6z"/>
<rect x="-231.5" y="484.2" class="st1" width="5.4" height="13.3"/>
<path class="st1" d="M-228.8,476.6c1.6,0,2.8,1.3,2.8,2.8c0,1.6-1.3,2.8-2.8,2.8c-1.6,0-2.8-1.3-2.8-2.8
	C-231.6,477.9-230.4,476.6-228.8,476.6z"/>
<path class="st1" d="M-268.6,484.2v4.2h1.8v9.1h5.2v-9.1h4.9v9.1h5.4v-9.1h3.3v-4.1h-3.5v-3c-0.1-1.1,2.5-1.5,3.3-0.6v-4.3
	c-4.9-1.6-8.9,1.2-8.9,5.5v2.3h-4.6v-2.9c-0.1-1.1,2.2-1.5,3.5-0.6v-4.3c-4.3-1.3-8.9,0.8-8.8,5.5v2.3L-268.6,484.2L-268.6,484.2z"
	/>
<path class="st1" d="M-240.3,497.8c4.6,0,6.3-1.9,7.3-4.7h-4.7c-2.1,2.7-5.2,0.7-5-1.5h9.9c0-5.4-2.9-8-7.5-8
	c-4.6,0-7.5,3.2-7.5,7.2C-247.7,494.8-244.4,497.9-240.3,497.8L-240.3,497.8z"/>
<path class="st1" d="M-203.7,497.8c4.6,0,6.3-1.9,7.3-4.7h-4.7c-2.1,2.7-5.2,0.7-5-1.5h9.9c0-5.4-2.8-8-7.5-8
	c-4.6,0-7.5,3.2-7.5,7.2C-211.2,494.8-207.8,497.9-203.7,497.8L-203.7,497.8z"/>
<path class="st2" d="M-205.4,488.5c0.1-1.6,3.6-1.6,3.8,0H-205.4z"/>
<path class="st1" d="M-212.6,484.4l-1.6,3.2c-2-0.6-3.9-0.5-3.9,0.1c0.1,0.4-0.3,1,2.8,1.4c4.6,0.7,4.3,9.4-3.5,8.7
	c-2.1-0.1-3.9-0.7-5.3-1.6l1.7-3.5c2.4,1.2,4.8,1.9,5,0.7c0.2-1.5-2.6-1-4.2-2.2c-3-1.8-1.3-7.6,3.6-7.6
	C-216.2,483.5-214.4,483.8-212.6,484.4L-212.6,484.4z"/>
<path class="st1" d="M-194.2,484.2v13.3h5v-8.1c0.1-2,4.1-2.4,4.2,0v8.1h5.1v-8.3c-0.1-4.7-5-6.9-9.4-4v-1L-194.2,484.2
	L-194.2,484.2z"/>
<path class="st1" d="M-306.3,505.6l-3.3,19.7h9.5c6.4,0,9.1-8,4.5-10.7c3.9-3.6,1.9-9-2.3-9.1L-306.3,505.6L-306.3,505.6z"/>
<path class="st2" d="M-302.5,517.4l-0.7,3.3h2.2c2.5,0.1,2.2-3.3,0.8-3.3H-302.5z"/>
<path class="st2" d="M-301.4,510.3l-0.6,2.6l0.7,0c2,0.1,3.2-2.7,0.8-2.7H-301.4L-301.4,510.3z"/>
<polygon class="st1" points="-293.6,525.3 -287.8,525.3 -286.1,521.9 -279.6,521.9 -278.6,525.4 -273.3,525.4 -277.9,505.7 
	-283.3,505.7 -293.6,525.3 "/>
<polygon class="st2" points="-284.2,517.7 -280.6,517.7 -281.8,512.5 "/>
<polygon class="st1" points="-271.5,525.4 -266.2,525.4 -264.8,513 -257.2,525.3 -251.5,525.3 -249.1,505.6 -254.5,505.6 
	-255.9,517.9 -263.5,505.5 -269,505.5 -271.5,525.4 "/>
<polygon class="st1" points="-245.3,505.5 -249.1,525.3 -243.4,525.3 -242,517.9 -236.9,525.3 -229.6,525.3 -236.8,514.9 
	-227.6,505.5 -234.7,505.5 -241,512.5 -240,505.5 -245.3,505.5 "/>
<path class="st2" d="M-242,488.5c0.1-1.6,3.6-1.6,3.8,0H-242z"/>
</svg>
