<svg xmlns="http://www.w3.org/2000/svg" width="77" height="82" viewBox="0 0 77 82"><path fill="#1F7F91" d="M12.675 53.359l2.013.193v7.541h.068c.416-.563.833-1.076 1.224-1.557l4.768-5.467 2.325.191-5.472 5.986 6.081 8.383h-2.38l-5.135-7.15-1.479 1.6v5.551h-2.013V53.359zM25.37 53.236l2.036.17v6.41h.045a3.727 3.727 0 0 1 1.46-1.338 4.434 4.434 0 0 1 2.079-.541c1.503 0 3.911.867 3.911 4.473v6.221h-2.035v-6.01c0-1.68-.673-3.105-2.592-3.105a2.906 2.906 0 0 0-2.729 1.9c-.114.26-.139.539-.139.906v6.309H25.37V53.236zM40.473 55.236c.025.65-.486 1.168-1.291 1.168-.717 0-1.226-.518-1.226-1.168 0-.668.531-1.189 1.271-1.189.759 0 1.246.521 1.246 1.189m-2.266 13.395V57.74l2.036.174v10.717h-2.036zM43.619 61.008c0-1.08-.104-1.967-.172-2.832l1.855.174.102 1.512h.063c.629-.996 1.672-1.926 3.518-1.926 1.529 0 2.68.869 3.17 2.098h.049a4.449 4.449 0 0 1 1.244-1.363c.674-.475 1.412-.734 2.479-.734 1.475 0 3.676.91 3.676 4.539v6.156h-1.99v-5.918c0-2.012-.785-3.217-2.43-3.217-1.156 0-2.055.797-2.402 1.727-.094.26-.164.604-.164.949v6.459h-1.986v-6.266c0-1.664-.785-2.869-2.34-2.869-1.268 0-2.193.947-2.516 1.896a2.457 2.457 0 0 0-.166.93v6.309h-1.988v-7.624zM64.727 62.973h.045c.281-.369.672-.818.996-1.191l3.297-3.582 2.281.184-4.166 4.092 4.926 6.156h-2.473l-3.865-5.01-1.041 1.076v3.934h-2.014v-15.38l2.014.184v9.537zM76.225 55.236c.021.65-.488 1.168-1.299 1.168-.713 0-1.225-.518-1.225-1.168 0-.668.533-1.189 1.275-1.189.76 0 1.249.521 1.249 1.189m-2.268 13.395V58.607l2.033.17v9.854h-2.033z"/><path fill="#20272B" d="M12.691 73.203a7.303 7.303 0 0 1 1.647-.178c1.028 0 1.701.223 2.166.678.332.34.503.781.503 1.357 0 .842-.603 1.551-1.417 1.842v.027c.686.158 1.732.754 1.732 2.1 0 .674-.23 1.186-.611 1.576-.537.561-1.428.783-2.589.783-.64 0-1.11-.035-1.431-.074v-8.111zm.574 3.508h1.211c1.183 0 1.927-.699 1.927-1.617 0-1.16-.865-1.572-2.088-1.572-.547 0-.868.037-1.051.082v3.107zm0 4.125c.247.051.589.064 1.015.064 1.259 0 2.444-.455 2.444-1.857 0-1.299-1.11-1.859-2.42-1.859h-1.039v3.652zM23.362 79.898c0 .51.021.977.044 1.428h-.533l-.04-1.037h-.024a2.27 2.27 0 0 1-2.016 1.172c-.743 0-1.991-.365-1.991-2.592v-3.404h.575v3.297c0 1.271.401 2.186 1.562 2.186.859 0 1.481-.6 1.726-1.184a2.13 2.13 0 0 0 .121-.646v-3.652h.577v4.432zM25.093 80.559c.317.195.795.402 1.32.402.927 0 1.369-.504 1.369-1.115 0-.646-.39-.99-1.234-1.33-.967-.367-1.491-.893-1.491-1.602 0-.842.661-1.588 1.81-1.588.535 0 .987.158 1.295.367l-.236.475c-.194-.143-.57-.352-1.16-.352-.743 0-1.136.479-1.136 1.012 0 .613.415.883 1.209 1.213.954.367 1.515.842 1.515 1.734 0 1-.782 1.686-1.979 1.686-.57 0-1.096-.174-1.49-.418l.208-.484zM30.656 73.787c0 .27-.183.502-.492.502-.267 0-.451-.232-.451-.502 0-.266.207-.512.475-.512.285 0 .468.231.468.512m-.759 1.678h.574v5.863h-.574v-5.863zM32.449 76.867c0-.539-.022-.941-.047-1.406h.536l.052 1.064h.022c.32-.662 1.049-1.201 2.02-1.201.56 0 2.038.285 2.038 2.484v3.518h-.572v-3.471c0-1.063-.414-2.025-1.627-2.025-.834 0-1.527.584-1.762 1.338a1.83 1.83 0 0 0-.083.531v3.627h-.576v-4.459zM39.086 78.334c0 1.881 1.027 2.613 2.234 2.613.855 0 1.295-.172 1.625-.326l.146.459c-.221.123-.816.381-1.844.381-1.686 0-2.737-1.232-2.737-2.955 0-1.957 1.122-3.18 2.64-3.18 1.92 0 2.283 1.807 2.283 2.654 0 .154 0 .254-.02.354h-4.327zm3.738-.467c.01-.816-.33-2.064-1.748-2.064-1.295 0-1.855 1.164-1.955 2.064h3.703zM44.682 80.559c.316.195.795.402 1.318.402.93 0 1.373-.504 1.373-1.115 0-.646-.396-.99-1.238-1.33-.965-.367-1.488-.893-1.488-1.602 0-.842.658-1.588 1.807-1.588.539 0 .988.158 1.295.367l-.23.475c-.195-.143-.58-.352-1.162-.352-.744 0-1.139.479-1.139 1.012 0 .613.42.883 1.211 1.213.955.367 1.521.842 1.521 1.734 0 1-.787 1.686-1.984 1.686a2.856 2.856 0 0 1-1.49-.418l.206-.484zM49.238 80.559c.318.195.795.402 1.32.402.928 0 1.371-.504 1.371-1.115 0-.646-.395-.99-1.236-1.33-.965-.367-1.488-.893-1.488-1.602 0-.842.658-1.588 1.807-1.588.535 0 .988.158 1.295.367l-.232.475c-.195-.143-.574-.352-1.166-.352-.74 0-1.131.479-1.131 1.012 0 .613.416.883 1.207 1.213.955.367 1.516.842 1.516 1.734 0 1-.783 1.686-1.98 1.686-.572 0-1.1-.174-1.488-.418l.205-.484zM56.73 73.186a9.28 9.28 0 0 1 1.76-.16c.979 0 1.721.248 2.176.701.391.379.633.914.633 1.611 0 .707-.205 1.234-.572 1.641-.523.609-1.416.926-2.42.926-.367 0-.711-.014-1.002-.096v3.518h-.575v-8.141zm.575 4.107c.291.088.646.125 1.053.125 1.465 0 2.354-.721 2.354-2.027 0-1.299-.941-1.871-2.246-1.871-.539 0-.939.047-1.16.1v3.673zM66.129 79.934c0 .465.021.943.082 1.393h-.525l-.08-.844h-.041c-.279.453-.93.98-1.871.98-1.172 0-1.721-.832-1.721-1.613 0-1.357 1.197-2.176 3.582-2.15v-.146c0-.586-.113-1.75-1.506-1.736-.514 0-1.053.133-1.467.439l-.184-.428c.525-.352 1.186-.502 1.711-.502 1.699 0 2.02 1.273 2.02 2.324v2.283zm-.574-1.748c-1.285-.033-2.973.158-2.973 1.564 0 .844.564 1.225 1.176 1.225.975 0 1.527-.605 1.73-1.176.039-.123.066-.246.066-.354v-1.259zM68.033 77.219c0-.582-.025-1.195-.053-1.758h.539l.023 1.184h.027c.258-.727.865-1.318 1.674-1.318.076 0 .158.012.232.025v.566c-.088-.031-.17-.031-.281-.031-.807 0-1.377.699-1.541 1.643-.021.17-.045.361-.045.557v3.24h-.576v-4.108zM72.311 78.287h.023c.145-.188.391-.457.574-.652l2.066-2.174h.707l-2.371 2.43 2.703 3.436h-.711l-2.395-3.076-.598.631v2.445h-.574V72.65h.574v5.637z"/><path fill="#1F7F91" d="M0 0l11.79 46.736 13.554-.515-6.711-44.746z"/><path fill="#142932" d="M77 6.522L20.695 1.656l6.698 44.512L77 44.389z"/></svg>