<?xml version="1.0" encoding="utf-8"?>
<!-- Generator: Adobe Illustrator 19.1.0, SVG Export Plug-In . SVG Version: 6.00 Build 0)  -->
<svg version="1.1" id="Слой_1" xmlns="http://www.w3.org/2000/svg" xmlns:xlink="http://www.w3.org/1999/xlink" x="0px" y="0px"
	 viewBox="-386 387.2 226.8 226.8" style="enable-background:new -386 387.2 226.8 226.8;" xml:space="preserve">
<style type="text/css">
	.st0{fill:#727272;}
</style>
<g>
	<path id="_282720328" class="st0" d="M-339.1,523.2c0,0,76.3-18.7,132.9-5.5l0.2-0.6c0,0-49.3-14.6-132.1,3.2L-339.1,523.2
		L-339.1,523.2L-339.1,523.2z"/>
	<path id="_340267392" class="st0" d="M-302.6,486.4v3.1c0.3-0.6,0.6-1.5,1.6-2.3c1-0.9,2.6-1.4,4-1.4c0.8,0,1.5,0.1,2.3,0.4
		c2.4,0.9,3,2.8,3.3,3.5c1.8-3.4,4.8-3.9,6.3-3.9c1.9,0,3.6,0.7,4.7,1.8c2,2,2.1,4.1,2.1,9.4l0,12.2h-5.9v-10.9
		c0-3.7-0.1-4.4-0.7-5.4c-0.6-1.1-1.6-1.3-2.4-1.3c-1.6,0-2.4,1.2-2.5,1.3c-0.6,1.1-0.6,3-0.6,4.9v11.4h-5.9v-11.6
		c0-2.5,0-3.6-0.6-4.6c-0.4-0.8-1.3-1.4-2.4-1.4c-0.5,0-1,0.1-1.5,0.4c-1.7,1-1.8,2.7-1.8,7l0,10.2h-5.9v-23L-302.6,486.4
		L-302.6,486.4L-302.6,486.4z"/>
	<polygon id="_340267944" class="st0" points="-254.9,486.4 -248.9,486.4 -254.9,509.4 -260.4,509.4 -263.9,493.9 -267.3,509.4 
		-272.9,509.4 -278.9,486.4 -272.9,486.4 -269.7,500.8 -266.5,486.4 -261.3,486.4 -258.1,500.8 	"/>
	<path id="_323530440" class="st0" d="M-236.3,509.4h5.8v-23h-5.6v3c-1-2.2-2.8-3.5-5.1-3.5c-3.9,0-9,3.4-9,12.4
		c0,7.2,3.7,11.6,8.6,11.6c3.4,0,4.7-2,5.4-3L-236.3,509.4L-236.3,509.4L-236.3,509.4z M-236.6,497.7c0,2.1-0.3,4.1-1.5,5.6
		c-1,1.2-2.2,1.3-2.6,1.3c-1.2,0-2.5-0.7-3.3-2.7c-0.5-1.2-0.6-2.5-0.6-3.9c0-1.8,0.2-3.6,1.2-5.1c0.7-1,1.8-1.7,2.9-1.7
		c0.9,0,1.8,0.4,2.4,1.2C-237.3,493.1-236.6,494.7-236.6,497.7L-236.6,497.7C-236.6,497.7-236.6,497.7-236.6,497.7z"/>
	<path id="_282316384" class="st0" d="M-217,486.4h6l-6.6,22.8c-0.5,1.6-1.2,4.2-2.4,5.5c-1.1,1.2-2.4,1.7-7.1,1.7
		c-0.7,0-1,0-1.6-0.1l0-5.1h1.6c0.6,0,1.9,0,2.5-0.6c0.5-0.4,0.9-1.4,0.9-2.3c0-0.5-0.2-1.4-0.4-2l-6.4-20h6.4l3.8,15.5L-217,486.4
		L-217,486.4L-217,486.4z"/>
	<path id="_282316264" class="st0" d="M-325.3,478l-9.9,31.4h7.2l1.8-6.7h9.2l1.9,6.7h7.3L-318,478H-325.3L-325.3,478z
		 M-321.6,484.9l3.2,12.1h-6.1L-321.6,484.9L-321.6,484.9z"/>
</g>
</svg>
