<?xml version="1.0" encoding="utf-8"?>
<!-- Generator: Adobe Illustrator 19.1.0, SVG Export Plug-In . SVG Version: 6.00 Build 0)  -->
<svg version="1.1" id="Слой_1" xmlns="http://www.w3.org/2000/svg" xmlns:xlink="http://www.w3.org/1999/xlink" x="0px" y="0px"
	 viewBox="-386 387.2 226.8 226.8" style="enable-background:new -386 387.2 226.8 226.8;" xml:space="preserve">
<style type="text/css">
	.st0{fill:#727272;}
	.st1{fill:#FFFFFF;}
</style>
<path id="_154526728" class="st0" d="M-321.6,513.1h10.2c1.4,0,2.5-1.1,2.5-2.5v-34.1c0-1.4-1.1-2.5-2.5-2.5h-11.3c-1,0-1.8,0.3-3,2
	c-1.2,1.7-2.8,3-3.7,3.1c-0.8,0-2.2-0.8-3.6-3s-4.1-2-4.1-2h-10.7c-1.4,0-2.5,1.1-2.5,2.5v34.1c0,1.4,1.1,2.5,2.5,2.5h9.6
	c0,0,3.4,0.2,3.3-3.1c-0.1-3.3-0.1-6.1-0.1-6.1s0.5-1.6,2.1,0.2c1.6,1.8,2.4,2.2,3.3,2.3c0.9,0.1,2.9-1.7,3.4-2.4
	c0.5-0.6,2.2-1.8,2.2,0.4c0,2.2,0,6.7,0,6.7S-323.6,513.1-321.6,513.1L-321.6,513.1z"/>
<path id="_154526824" class="st0" d="M-302.9,513.2c-3.6,0-3.6-0.4-3.6-4V478c0-3.6,0-4,3.6-4h20.1c1.7,0,4.5-0.3,5.4,0.7
	c0.9,1.1,0.8,10,0,10.9c-0.9,1.1-3.7,0.5-5.4,0.5h-3.3c-1.5,0-1.5,2.3,0.1,2.3h1.1c1.6,0,6-0.4,6.8,0.6c0.8,1,0.9,8,0,9
	c-0.9,1-5.3,0.7-6.8,0.6c-2.3-0.1-2.6,2.6-0.2,2.6h3.3c1.7,0,3.9-0.6,4.9,0.4c0.6,0.7,0.8,9.9,0,10.9c-0.9,1.1-3.2,0.7-4.9,0.7
	H-302.9L-302.9,513.2z"/>
<path id="_154526920" class="st0" d="M-241.7,507.2c0,1.8,0.4,4.8-0.8,5.2c-3.3,0.9-18.1,0.7-21.7-0.2c-9.7-2.3-13.9-8.7-14.1-18.7
	c-0.2-15.8,12.1-19.6,25.8-19.6h3.9c1,0,5.6-0.3,5.6,0.9c0,1.4,0.3,8.3-0.1,11.3c-0.1,0.8-0.7,0.9-1.2,1.1c-0.9,0.3-3.2,0-4.3,0h-5
	c-0.7,0-3.2,0.1-4.9,0.3c-1.7,0.3-1.7,0.5-1.7,1.9c0,3.3-0.7,5.5,0.5,10c0.4,1.4,1,1.6,1.4,1.6c1.9,0.1,1.4-4,1.4-5.7
	c0.1-2.8,0-4.2,0.8-4.4c2.9-0.7,11-0.6,13.9,0c0.7,0.1,0.4,0.6,0.4,0.7L-241.7,507.2L-241.7,507.2z"/>
<path id="_154527016" class="st0" d="M-245.5,512.9h12c3.8,0,2.2-2.6,5.4-2.6h7.8c2.3,0,1,2.6,5.3,2.6h11.2c0.8,0,1.7-0.7,1.5-1.5
	l-10.5-36c-0.2-0.8-0.7-1.5-1.5-1.5h-20.5c-0.8,0-1.2,0.7-1.5,1.5l-10.8,36C-247.2,512.2-246.3,512.9-245.5,512.9L-245.5,512.9z"/>
<polygon id="_154527112" class="st1" points="-343.1,479.1 -333.5,479.1 -329.8,493.3 -326.1,479.1 -316.6,479.1 -316.6,502.5 
	-322.5,502.5 -322.5,487.6 -327.1,502.5 -332.5,502.5 -337.1,487.6 -337.1,502.5 -343.1,502.5 "/>
<path id="_154527208" class="st1" d="M-292.2,486.5c5.8,0,10.8,3.6,12.9,8.7l-13.8,10.6l-4.4-5.9l7.7-5.8c-0.8-0.3-1.6-0.5-2.5-0.5
	c-3.8,0-6.8,3-6.8,6.8c0,3.8,3,6.8,6.8,6.8c3.3,0,6.1-2.4,6.7-5.6h7.2c-0.6,7.1-6.6,12.7-13.9,12.7c-7.7,0-13.9-6.2-13.9-13.9
	C-306.1,492.7-299.9,486.5-292.2,486.5L-292.2,486.5z"/>
<path id="_154527304" class="st1" d="M-271.5,506c0,0.1-0.1,0.3-0.1,0.5c0,0.2,0,0.5,0,0.7c0,0.2,0,0.4,0.1,0.5c1.2,0,2.4,0,3.6-0.1
	c1.2,0,2.4-0.1,3.6-0.1c0.9,0,1.7,0,2.6,0c0.9,0,1.8,0,2.6,0.1c0.8,0,1.7,0,2.4,0c0.1-0.1,0.1-0.2,0.1-0.5c0-0.2,0.1-0.5,0.1-0.7
	c0-0.2,0-0.4,0-0.6c-0.6-0.1-1.3-0.1-1.9-0.2c-0.6-0.1-1.1-0.2-1.6-0.3c-0.5-0.1-0.9-0.4-1.1-0.7c-0.2-0.4-0.3-0.9-0.3-1.5
	c0-1,0-2.1,0-3.2c0-1.2,0-2.4,0-3.7c0-1.3,0-2.5,0-3.8c0-0.9,0-1.8,0-2.7c0-0.9,0-1.9,0-2.8c0-0.9,0-1.8,0-2.6c0-0.8,0-1.6,0-2.2
	c0-0.2,0-0.3,0.1-0.5c0.1-0.2,0.2-0.3,0.3-0.3c0.2,0,0.5-0.1,0.9-0.1c0.4,0,0.9,0,1.4,0c0.5,0,1.1,0,1.6,0c0.6,0,1.1,0,1.6,0
	c0.5,0,0.9,0,1.2,0.1c0.4,0,0.8,0.2,1.2,0.4c0.3,0.2,0.6,0.6,0.9,1.1c0.1,0.3,0.3,0.7,0.4,1.2c0.2,0.5,0.3,1,0.4,1.6
	c0.1,0.6,0.2,1.1,0.3,1.6c0.1,0.1,0.3,0.1,0.5,0.1c0.2,0,0.5,0,0.8-0.1c0.3-0.1,0.5-0.1,0.6-0.2c0-0.7,0.1-1.4,0.2-2.2
	c0.1-0.8,0.1-1.5,0.2-2.3c0.1-0.8,0.1-1.5,0.2-2.1c0.1-0.6,0.2-1.2,0.3-1.6c0-0.1,0-0.1-0.1-0.2c-0.1-0.1-0.1-0.1-0.2-0.1
	c-0.4,0.1-1.1,0.2-2,0.2c-0.9,0-2.1,0.1-3.5,0.1h-10.6c-0.9,0-1.8,0-2.7,0c-0.9,0-1.7,0-2.4-0.1c-0.7,0-1.4,0-1.9,0
	c0,0.1-0.1,0.3-0.1,0.5c0,0.2,0,0.5,0,0.7s0,0.4,0.1,0.5c0.5,0.1,1,0.1,1.5,0.2c0.5,0.1,0.9,0.2,1.3,0.3c0.3,0.1,0.6,0.2,0.8,0.3
	c0.2,0.1,0.3,0.3,0.4,0.6c0.1,0.3,0.1,0.7,0.1,1.2c0,0.6,0.1,1.3,0.1,2.1c0,0.9,0,1.9,0,3.2c0,1.3,0,2.8,0,4.6c0,0.8,0,1.6,0,2.4
	c0,0.8,0,1.7,0,2.5c0,0.8,0,1.6,0,2.3c0,0.7,0,1.3,0,1.9c0,0.5,0,0.9,0,1.2c0,0.5-0.1,0.9-0.2,1.2c-0.1,0.3-0.2,0.6-0.4,0.7
	c-0.2,0.2-0.5,0.3-1,0.4c-0.3,0.1-0.7,0.2-1.2,0.2C-270.6,505.9-271,505.9-271.5,506L-271.5,506z"/>
<path id="_154527400" class="st1" d="M-219.8,506.7c-0.9,0.2-2.9,0.2-3.6-1.3c-1.2-2.8-1.1-3.3-0.8-3.9c-2.1,2.2-6.5,6.6-10.8,4.9
	c-0.8-0.3-1.3-1-1.8-1.6c-0.5-0.7-0.8-1.4-1-2.3c-0.2-0.9-0.3-1.8-0.3-2.7c0-2.9,0.5-5.6,1.5-8.1c2.1-5.1,4.7-7.8,9.4-10.5
	c1.8-1,3.6-1.5,5.2-1.5c4.2,0,5.3,0.3,8.2,1c-1.3,5.3-2.1,11.7-2.8,17.4c-0.1,0.4,2.1-4.2,1.9-3.5c-0.2,0.7,6.7,1.5,0.6,8
	C-214.3,502.8-215.9,505.8-219.8,506.7L-219.8,506.7z M-230.4,499.4c0,0,2.8-0.6,5.3-4.8c2.5-4.2,3-6.4,3-7.2c0-0.8,0-1.2,0-1.2
	s-2.1-1.1-3.3-0.4c-1.2,0.8-3,1.7-3.7,4.2C-229.8,492.5-230.3,494.7-230.4,499.4L-230.4,499.4z"/>
<path id="_154527496" class="st0" d="M-199.7,473.3c0.8,0,1.6,0.2,2.3,0.6c0.8,0.4,1.4,1,1.8,1.8c0.4,0.8,0.6,1.6,0.6,2.4
	c0,0.8-0.2,1.6-0.6,2.4c-0.4,0.8-1,1.3-1.8,1.8c-0.8,0.4-1.5,0.6-2.4,0.6c-0.8,0-1.6-0.2-2.4-0.6c-0.8-0.4-1.3-1-1.8-1.8
	c-0.4-0.8-0.6-1.5-0.6-2.4c0-0.8,0.2-1.6,0.6-2.4c0.4-0.8,1-1.4,1.8-1.8C-201.2,473.5-200.5,473.3-199.7,473.3L-199.7,473.3z
	 M-199.7,474.1c-0.7,0-1.3,0.2-2,0.5c-0.6,0.3-1.1,0.8-1.5,1.5c-0.4,0.6-0.5,1.3-0.5,2c0,0.7,0.2,1.3,0.5,2c0.4,0.6,0.8,1.1,1.5,1.5
	c0.6,0.4,1.3,0.5,2,0.5c0.7,0,1.3-0.2,2-0.5c0.6-0.4,1.1-0.8,1.5-1.5c0.3-0.6,0.5-1.3,0.5-2c0-0.7-0.2-1.4-0.5-2
	c-0.4-0.6-0.9-1.1-1.5-1.5C-198.3,474.3-199,474.1-199.7,474.1z M-201.8,480.7v-5.1h1.8c0.6,0,1,0,1.3,0.1c0.3,0.1,0.5,0.3,0.6,0.5
	c0.2,0.2,0.2,0.5,0.2,0.8c0,0.4-0.1,0.7-0.4,1c-0.3,0.3-0.6,0.4-1.1,0.5c0.2,0.1,0.3,0.2,0.4,0.3c0.2,0.2,0.5,0.5,0.8,1l0.6,1h-1
	l-0.5-0.8c-0.4-0.6-0.6-1-0.9-1.2c-0.2-0.1-0.4-0.2-0.7-0.2h-0.5v2.2H-201.8z M-200.9,477.8h1c0.5,0,0.8-0.1,1-0.2
	c0.2-0.1,0.3-0.3,0.3-0.6c0-0.2,0-0.3-0.1-0.4c-0.1-0.1-0.2-0.2-0.3-0.3c-0.2-0.1-0.4-0.1-0.8-0.1h-0.9L-200.9,477.8L-200.9,477.8z"
	/>
<path id="_154527592" class="st0" d="M-346.7,522.7l0.2,0.9h0.1l0.2-0.9l1.1-3h1.6l-2,4.9c-0.2,0.4-0.3,0.7-0.5,1
	c-0.2,0.3-0.3,0.5-0.5,0.7c-0.2,0.2-0.4,0.3-0.6,0.4c-0.2,0.1-0.5,0.1-0.7,0.1c-0.2,0-0.4,0-0.6,0c-0.1,0-0.3-0.1-0.5-0.2l0.4-1.2
	c0.1,0.1,0.2,0.1,0.3,0.1c0.1,0,0.2,0,0.3,0c0.3,0,0.6-0.2,0.7-0.7l-2.9-5.1h1.8L-346.7,522.7L-346.7,522.7z M-327.6,523.7h-0.4v3
	h-1.5v-7.1h1.5v3.1l0.4-0.2l2.1-3h1.7l-2.2,3l-0.6,0.4l0.6,0.4l2.6,3.3h-1.8L-327.6,523.7L-327.6,523.7z M-314.4,525.2h-2.4
	l-0.6,1.5h-1.5l2.8-7.1h1.1l2.8,7.1h-1.6C-313.8,526.7-314.4,525.2-314.4,525.2z M-316.4,524h1.6l-0.5-1.5l-0.2-1.1h-0.1l-0.2,1.1
	L-316.4,524L-316.4,524z M-303.8,519.6h1.4v3.1l0.4-0.1l1.6-3h1.7l-1.8,3.1l-0.5,0.4l0.6,0.4l2,3.2h-1.8l-1.8-3h-0.4v3h-1.4v-3.2
	l-0.4,0.1l-1.8,3h-1.8l2-3.1l0.6-0.4l-0.6-0.4l-1.9-3.2h1.7l1.6,3h0.4V519.6L-303.8,519.6z M-286.8,527.9h-1.1l-0.2-1.2h-4.9
	l-0.2,1.2h-1.1v-2.6h0.8c0.1-0.1,0.1-0.2,0.3-0.5c0.1-0.2,0.2-0.6,0.3-1.1c0.1-0.5,0.2-1,0.3-1.7c0.1-0.7,0.1-1.5,0.1-2.5h4.6v5.7h1
	V527.9z M-289.3,525.4v-4.4h-1.7c0,1.2-0.1,2.1-0.3,2.8c-0.2,0.7-0.3,1.3-0.5,1.6H-289.3L-289.3,525.4z M-281.7,523.2
	c0-0.6,0.1-1.1,0.2-1.6s0.4-0.8,0.6-1.2c0.3-0.3,0.6-0.6,1-0.7c0.4-0.2,0.9-0.2,1.4-0.2c0.5,0,1,0.1,1.4,0.3c0.4,0.2,0.7,0.4,1,0.8
	c0.3,0.3,0.5,0.7,0.6,1.2c0.1,0.4,0.2,0.9,0.2,1.5c0,0.6-0.1,1.1-0.2,1.6c-0.2,0.5-0.4,0.8-0.6,1.2s-0.6,0.6-1,0.7
	c-0.4,0.2-0.9,0.2-1.4,0.2c-0.5,0-1-0.1-1.4-0.3c-0.4-0.2-0.7-0.4-1-0.8c-0.3-0.3-0.5-0.7-0.6-1.2
	C-281.6,524.2-281.7,523.7-281.7,523.2z M-280.1,523.2c0,0.3,0,0.7,0.1,1c0.1,0.3,0.2,0.5,0.3,0.7s0.3,0.4,0.5,0.5
	c0.2,0.1,0.5,0.2,0.8,0.2c0.5,0,0.9-0.2,1.2-0.5c0.3-0.4,0.4-1,0.4-1.8c0-0.3,0-0.6-0.1-0.9c-0.1-0.3-0.2-0.5-0.3-0.8
	c-0.1-0.2-0.3-0.4-0.5-0.5c-0.2-0.1-0.5-0.2-0.8-0.2c-0.5,0-0.9,0.2-1.2,0.6C-280,521.7-280.1,522.3-280.1,523.2L-280.1,523.2z
	 M-265,520.9h-3v5.7h-1.5v-7.1h4.5V520.9z M-260.2,523.2c0-0.6,0.1-1.1,0.2-1.6c0.1-0.5,0.4-0.8,0.6-1.2c0.3-0.3,0.6-0.6,1-0.7
	c0.4-0.2,0.9-0.2,1.4-0.2c0.5,0,1,0.1,1.4,0.3c0.4,0.2,0.7,0.4,1,0.8c0.3,0.3,0.5,0.7,0.6,1.2c0.1,0.4,0.2,0.9,0.2,1.5
	c0,0.6-0.1,1.1-0.2,1.6c-0.2,0.5-0.4,0.8-0.6,1.2c-0.3,0.3-0.6,0.6-1,0.7c-0.4,0.2-0.9,0.2-1.4,0.2c-0.5,0-1-0.1-1.4-0.3
	c-0.4-0.2-0.7-0.4-1-0.8c-0.3-0.3-0.5-0.7-0.6-1.2C-260.1,524.2-260.2,523.7-260.2,523.2z M-258.6,523.2c0,0.3,0,0.7,0.1,1
	c0.1,0.3,0.2,0.5,0.3,0.7s0.3,0.4,0.5,0.5c0.2,0.1,0.5,0.2,0.8,0.2c0.5,0,0.9-0.2,1.2-0.5c0.3-0.4,0.4-1,0.4-1.8
	c0-0.3,0-0.6-0.1-0.9c-0.1-0.3-0.2-0.5-0.3-0.8c-0.1-0.2-0.3-0.4-0.5-0.5c-0.2-0.1-0.5-0.2-0.8-0.2c-0.5,0-0.9,0.2-1.2,0.6
	C-258.4,521.7-258.6,522.3-258.6,523.2L-258.6,523.2z M-236.6,526.4c-0.2,0.2-0.5,0.3-0.9,0.3c-0.4,0.1-0.7,0.1-1.1,0.1
	c-0.4,0-0.9-0.1-1.3-0.2c-0.4-0.1-0.8-0.3-1.1-0.6c-0.3-0.3-0.6-0.7-0.8-1.1c-0.2-0.5-0.3-1-0.3-1.7c0-0.7,0.1-1.3,0.3-1.7
	c0.2-0.5,0.5-0.8,0.8-1.1c0.3-0.3,0.7-0.5,1.1-0.6s0.8-0.2,1.2-0.2c0.4,0,0.8,0,1.1,0.1c0.3,0.1,0.5,0.1,0.7,0.2l-0.3,1.2
	c-0.2-0.1-0.4-0.1-0.6-0.2c-0.2,0-0.5-0.1-0.9-0.1c-0.3,0-0.6,0-0.8,0.1c-0.2,0.1-0.5,0.2-0.6,0.4c-0.2,0.2-0.3,0.4-0.4,0.7
	c-0.1,0.3-0.1,0.6-0.1,1c0,0.3,0,0.7,0.1,1c0.1,0.3,0.2,0.5,0.4,0.7c0.2,0.2,0.4,0.4,0.7,0.5c0.3,0.1,0.6,0.2,0.9,0.2
	c0.3,0,0.6,0,0.8-0.1c0.2-0.1,0.4-0.1,0.6-0.2L-236.6,526.4L-236.6,526.4z M-225.8,521.3c0,0.2,0,0.3-0.1,0.5
	c-0.1,0.2-0.1,0.3-0.2,0.5c-0.1,0.1-0.2,0.3-0.4,0.4c-0.2,0.1-0.4,0.2-0.6,0.2v0.1c0.2,0,0.4,0.1,0.6,0.2c0.2,0.1,0.4,0.2,0.5,0.3
	c0.1,0.1,0.3,0.3,0.3,0.5c0.1,0.2,0.1,0.4,0.1,0.7c0,0.4-0.1,0.7-0.3,0.9c-0.2,0.3-0.4,0.5-0.7,0.6c-0.3,0.2-0.6,0.3-0.9,0.4
	c-0.4,0.1-0.7,0.1-1.1,0.1c-0.1,0-0.3,0-0.5,0c-0.2,0-0.4,0-0.6,0c-0.2,0-0.5,0-0.7,0c-0.2,0-0.4-0.1-0.6-0.1v-7
	c0.1,0,0.3,0,0.5-0.1c0.2,0,0.4,0,0.6-0.1c0.2,0,0.4,0,0.6,0c0.2,0,0.4,0,0.6,0c0.3,0,0.7,0,1,0.1c0.3,0.1,0.6,0.1,0.9,0.3
	c0.3,0.1,0.5,0.3,0.6,0.5C-225.8,520.6-225.8,520.9-225.8,521.3L-225.8,521.3z M-228.5,525.6c0.2,0,0.4,0,0.5-0.1
	c0.2,0,0.3-0.1,0.5-0.2c0.1-0.1,0.2-0.2,0.3-0.3c0.1-0.1,0.1-0.3,0.1-0.4c0-0.2,0-0.4-0.1-0.5c-0.1-0.1-0.2-0.2-0.4-0.3
	s-0.3-0.1-0.5-0.1c-0.2,0-0.4,0-0.6,0h-0.8v1.8c0,0,0.1,0,0.2,0s0.2,0,0.3,0c0.1,0,0.2,0,0.3,0
	C-228.7,525.6-228.6,525.6-228.5,525.6L-228.5,525.6z M-229,522.6c0.1,0,0.2,0,0.4,0c0.1,0,0.3,0,0.3,0c0.3-0.1,0.5-0.2,0.7-0.4
	c0.2-0.2,0.3-0.4,0.3-0.6c0-0.2,0-0.3-0.1-0.4c-0.1-0.1-0.2-0.2-0.3-0.3c-0.1-0.1-0.3-0.1-0.4-0.1c-0.2,0-0.3,0-0.5,0
	c-0.2,0-0.4,0-0.5,0c-0.2,0-0.3,0-0.4,0v1.8H-229L-229,522.6z M-220,523.2c0-0.6,0.1-1.1,0.2-1.6c0.1-0.5,0.4-0.8,0.6-1.2
	c0.3-0.3,0.6-0.6,1-0.7c0.4-0.2,0.9-0.2,1.4-0.2c0.5,0,1,0.1,1.4,0.3c0.4,0.2,0.7,0.4,1,0.8c0.3,0.3,0.5,0.7,0.6,1.2
	c0.1,0.4,0.2,0.9,0.2,1.5c0,0.6-0.1,1.1-0.2,1.6s-0.4,0.8-0.6,1.2c-0.3,0.3-0.6,0.6-1,0.7c-0.4,0.2-0.9,0.2-1.4,0.2
	c-0.5,0-1-0.1-1.4-0.3c-0.4-0.2-0.7-0.4-1-0.8c-0.3-0.3-0.5-0.7-0.6-1.2C-219.9,524.2-220,523.7-220,523.2z M-218.4,523.2
	c0,0.3,0,0.7,0.1,1c0.1,0.3,0.2,0.5,0.3,0.7c0.1,0.2,0.3,0.4,0.5,0.5c0.2,0.1,0.5,0.2,0.8,0.2c0.5,0,0.9-0.2,1.2-0.5
	c0.3-0.4,0.4-1,0.4-1.8c0-0.3,0-0.6-0.1-0.9c-0.1-0.3-0.2-0.5-0.3-0.8c-0.1-0.2-0.3-0.4-0.5-0.5c-0.2-0.1-0.5-0.2-0.8-0.2
	c-0.5,0-0.9,0.2-1.2,0.6C-218.3,521.7-218.4,522.3-218.4,523.2L-218.4,523.2z M-202.7,526.7h-1.5v-2.8l-0.8,0.2l-1.6,2.6h-1.7
	l1.6-2.3l0.7-0.5c-0.2-0.1-0.5-0.1-0.7-0.2c-0.2-0.1-0.4-0.3-0.5-0.4c-0.2-0.2-0.3-0.4-0.4-0.6c-0.1-0.2-0.1-0.5-0.1-0.8
	c0-0.4,0.1-0.8,0.2-1.1c0.2-0.3,0.4-0.5,0.7-0.7c0.3-0.2,0.6-0.3,1-0.4c0.4-0.1,0.8-0.1,1.3-0.1c0.1,0,0.3,0,0.4,0
	c0.2,0,0.3,0,0.5,0c0.2,0,0.3,0,0.5,0.1c0.2,0,0.3,0,0.5,0.1V526.7L-202.7,526.7z M-204.8,520.8c-0.2,0-0.4,0-0.6,0
	c-0.2,0-0.3,0.1-0.5,0.2c-0.1,0.1-0.2,0.2-0.3,0.3c-0.1,0.1-0.1,0.3-0.1,0.5c0,0.2,0,0.4,0.1,0.5c0.1,0.1,0.2,0.2,0.3,0.3
	c0.1,0.1,0.3,0.1,0.5,0.2c0.2,0,0.4,0.1,0.6,0.1h0.6v-2.1c-0.1,0-0.2,0-0.2,0C-204.5,520.8-204.7,520.8-204.8,520.8L-204.8,520.8z"
	/>
</svg>
