<?xml version="1.0" encoding="utf-8"?>
<!-- Generator: Adobe Illustrator 19.1.0, SVG Export Plug-In . SVG Version: 6.00 Build 0)  -->
<svg version="1.1" id="Слой_1" xmlns="http://www.w3.org/2000/svg" xmlns:xlink="http://www.w3.org/1999/xlink" x="0px" y="0px"
	 viewBox="-386 387.2 226.8 226.8" style="enable-background:new -386 387.2 226.8 226.8;" xml:space="preserve">
<style type="text/css">
	.st0{fill:#727272;}
	.st1{fill:#FFFFFF;}
</style>
<path id="_154524232" class="st0" d="M-226,527.5c0,3.3-0.9,4.8-4.4,4.8h-1.2c-3.5,0-4.4-1.5-4.4-4.8c0-3.3,0.9-4.8,4.4-4.8h1.2
	C-226.9,522.6-226,524.1-226,527.5L-226,527.5 M-230.3,519.3h-1.3c-5.8,0-8.1,2.6-8.1,8.2c0,5.5,2.3,8.2,8.1,8.2h1.3
	c5.8,0,8.1-2.7,8.1-8.2C-222.2,521.9-224.5,519.3-230.3,519.3L-230.3,519.3 M-324.3,519.6c0.8-2,2-3,3.8-3c2.1,0,3.4,1.3,3.4,4v14.8
	h-3.8V521l-5.1,12.2c-0.7,1.7-1.6,2.6-3.2,2.6c-1.6,0-2.5-0.9-3.2-2.6l-5.1-12.2v14.4h-3.8v-14.8c0-2.7,1.3-4,3.4-4
	c1.8,0,2.9,1,3.8,3l5,12L-324.3,519.6L-324.3,519.6 M-256.4,530h-1.6c-3.5,0-4.4-1.5-4.4-4.8c0-3.3,0.9-4.8,4.4-4.8h1.6V530
	L-256.4,530 M-252.6,535.4v-2h1.7c5.8,0,8.1-2.7,8.1-8.2c0-5.6-2.3-8.2-8.1-8.2h-7.2c-5.8,0-8.1,2.6-8.1,8.2c0,5.5,2.3,8.2,8.1,8.2
	h1.7v2H-252.6L-252.6,535.4 M-252.6,520.4h1.6c3.5,0,4.4,1.5,4.4,4.8c0,3.3-0.9,4.8-4.4,4.8h-1.6V520.4L-252.6,520.4 M-278.4,528.9
	l2.3-5.8c0.1-0.3,0.2-0.3,0.3-0.3c0.1,0,0.2,0,0.3,0.3l2.3,5.8H-278.4L-278.4,528.9 M-270.4,535.4h4.1l-6.2-14.1
	c-0.6-1.4-1.7-2.2-3.1-2.2c-1.4,0-2.5,0.7-3.1,2.2l-6.2,14.1h4.1l1.4-3.4h7.9L-270.4,535.4L-270.4,535.4 M-292.1,522.9
	c-0.3,0-0.3,0.2-0.3,0.4v12.1h-3.7v-13.3c0-1.6,0.9-2.6,2.2-2.6h11.3v3.4H-292.1L-292.1,522.9 M-299.8,535.4v-3.4h-9.6
	c-0.3,0-0.3-0.1-0.3-0.4v-2.8h9.6v-3.2h-9.6v-2.3c0-0.2,0-0.4,0.3-0.4h9.6v-3.4h-11.3c-1.4,0-2.2,1-2.2,2.6v10.8
	c0,1.6,0.9,2.6,2.2,2.6L-299.8,535.4L-299.8,535.4 M-203.8,535.4v-15.9h-3.7v6h-8v-6h-3.7v15.9h3.7V529h8v6.4H-203.8L-203.8,535.4z"
	/>
<path class="st0" d="M-275.8,465.5L-275.8,465.5l0,21h-3.1c-0.7,0-1.3,0.6-1.3,1.3v19.4c-9.5-2-16.7-10.5-16.7-20.6
	C-296.9,474.9-287.4,465.5-275.8,465.5L-275.8,465.5z"/>
<path class="st0" d="M-273.3,465.6c10.4,1.3,18.5,10.1,18.5,20.9c0,11.6-9.4,21-21,21c-0.6,0-1.2,0-1.8-0.1V489h3.1
	c0.7,0,1.3-0.6,1.3-1.3V465.6L-273.3,465.6z"/>
<circle class="st1" cx="-267.5" cy="495.4" r="2.7"/>
<circle class="st1" cx="-279.8" cy="480.2" r="2.7"/>
<circle class="st1" cx="-273.6" cy="495.4" r="2.7"/>
<circle class="st1" cx="-261.4" cy="495.4" r="2.7"/>
</svg>
