<?xml version="1.0" encoding="utf-8"?>
<!-- Generator: Adobe Illustrator 19.1.0, SVG Export Plug-In . SVG Version: 6.00 Build 0)  -->
<svg version="1.1" id="Слой_1" xmlns="http://www.w3.org/2000/svg" xmlns:xlink="http://www.w3.org/1999/xlink" x="0px" y="0px"
	 viewBox="-386 387.2 226.8 226.8" style="enable-background:new -386 387.2 226.8 226.8;" xml:space="preserve">
<style type="text/css">
	.st0{fill:#727272;}
</style>
<g>
	<path id="_151649528" class="st0" d="M-302,491c-0.4-0.2-0.8-0.5-1.2-0.9c-0.4-0.4-1.4-2.3-5.2-2.3c-4.1,0-5.8,2.8-5.8,5
		c0,0.2,0,0.6,0.1,0.9c-5.3,2.5-10,5.3-15.3,11.7h13.4c-0.8,0.3-1.9,0.8-2.8,1.5l1.1,3.9c0.7,0,1.4-0.1,2.1-0.3l2.9,9.6h3l-3.2-10.5
		l0.3-0.1c1.2-0.5,6.2-2.9,8.2-9.2c0.2-0.6,1-4,1.1-4.5c0.1-0.5,0.4-1.7,1.4-2.3c1.2-0.9,2.2-0.1,4.8-1.3c0.3-0.1,0.3-0.2,0-0.3
		c-0.7-0.3-2-0.7-3.6-0.7C-301.3,491.2-301.7,491.2-302,491L-302,491z M-308.1,492.3l2-1c0.1,0.2,0.1,0.5,0.1,0.7c0,1.1-0.9,2-2,2
		c-1.1,0-2-0.9-2-2c0-1.1,0.9-2,2-2c0.2,0,0.4,0,0.6,0.1l-0.9,2C-308.4,492.3-308.3,492.4-308.1,492.3z"/>
	<path id="_151649624" class="st0" d="M-312.4,480.6h-19.1l-6.3,18.4l-7.7,0l0.1,1c0.2,1.1,0.7,2.1,1.6,2.6
		c-0.9,0.6-1.5,1.6-1.6,2.7l-0.1,0.9h5.2l-4.8,14h11.6l3.4-11h8l3.3,11h0.9l-3.5-11.8h-15.2c0.5-1.2,1.3-2.3,2.1-3h-10
		c0.2-1.5,1.4-2.7,3.2-2.7l0.1-0.1l-0.1-0.1c-1.7,0-2.9-1.1-3.1-2.7h16.9c3.2-2.6,8.2-5.3,11.1-6.6c-0.2-3.2,2.5-6.1,7-6.2
		c2.3,0,4.4,1.2,5,1.8c-1.1-0.8-2.6-1.1-3.9-1.1c-4.1,0-5.8,2.8-5.8,5c0,0.2,0,0.6,0.1,0.9c-5.3,2.5-10,5.3-15.3,11.7h13.4
		c-0.8,0.3-1.9,0.8-2.8,1.5l1.1,3.9l2.8,9.4h0.9l-2.9-9.6l-0.9-3.3c0.7-0.5,1.4-0.8,2.2-1.1l4.2-1.6l-16.1,0
		c4-4.6,8.1-7.4,13.8-10.1l0.6-0.3l-0.2-0.7c-0.1-0.2,0-0.5,0-0.7c0-2.7,2.5-4.2,5-4.2c1.2,0,2.5,0.2,3.4,0.9l0.6,0.5l1-1.2
		l-0.6-0.5c-1.3-1.2-3.8-2-5.6-2c-0.3,0-0.7,0-1,0L-312.4,480.6L-312.4,480.6z M-326.5,497.9l4.3-14l3,9.7
		C-321.7,494.8-324.3,496.3-326.5,497.9L-326.5,497.9z"/>
	<path id="_151649720" class="st0" d="M-304.6,503.1c-1.1,2-3.1,5-7.2,7.1l3,10h10.1L-304.6,503.1L-304.6,503.1z"/>
	<path id="_151649816" class="st0" d="M-257,495h-8.7l0,11c0,4.3-1.4,7.1-4.5,7.1c-2.3,0-3.4-1.5-3.4-5.7V495h-0.1h-7.7h-0.6v11
		c0,4.3-1.5,7.1-4.5,7.1c-2.3,0-3.4-1.5-3.4-5.7l0-12.3h-9.5l0,15c0,7.9,4.2,10.3,9.5,10.6c3.8,0.3,7.1-2,8.6-3.6
		c1.7,2.4,4.5,3.4,7.7,3.6c3.8,0.3,7.1-2,8.6-3.6l0,3.2h0.4h7.8l-0.1,0L-257,495L-257,495z"/>
	<path id="_151649912" class="st0" d="M-229.9,507.5c0-0.1,0-5.3-0.6-6.7c-0.7-1.5-2.1-4.9-8.1-6.1c-1.2-0.3-2.5-0.3-3.7-0.3
		c-4.7,0-8.9,1.6-9.7,2.1v6.2c0,0,4.1-2.3,7.3-2.3c0.7,0,1.5,0,2.3,0.1c1.8,0.3,3.6,1.1,3.7,3.6c0,0-1.3,0-3.1,0h-0.6
		c-5.8,0.1-12.6,1.4-12.8,8.3c-0.1,5.6,4.8,8.2,9.1,8.1c0,0,1.7,0.1,3.6-0.5c1.4-0.5,3.1-1.3,4.3-2.9c0,2.2,0.2,3.2,0.2,3.2h8.2
		C-229.7,520.2-229.9,515.9-229.9,507.5L-229.9,507.5z M-242.4,514.5L-242.4,514.5c-1.8,0.4-3.7-0.4-3.8-2.3
		c-0.1-1.9,1.8-2.6,3.8-2.9c1.7-0.2,3.4,0,3.8,0.1C-238.6,512.4-240.5,514.1-242.4,514.5L-242.4,514.5z"/>
	<polygon id="_151650008" class="st0" points="-208.9,495 -208.9,505.3 -217.4,505.3 -217.4,495 -226.7,495 -226.6,520.2 
		-217.5,520.2 -217.4,511 -208.9,511 -208.9,520.2 -199.7,520.2 -199.7,495 	"/>
	<rect id="_151650104" x="-318.5" y="519.4" class="st0" width="4.1" height="0.8"/>
</g>
</svg>
