<?xml version="1.0" encoding="utf-8"?>
<!-- Generator: Adobe Illustrator 19.1.0, SVG Export Plug-In . SVG Version: 6.00 Build 0)  -->
<svg version="1.1" id="Слой_1" xmlns="http://www.w3.org/2000/svg" xmlns:xlink="http://www.w3.org/1999/xlink" x="0px" y="0px"
	 viewBox="-386 387.2 226.8 226.8" style="enable-background:new -386 387.2 226.8 226.8;" xml:space="preserve">
<style type="text/css">
	.st0{fill:#727272;}
	.st1{fill:#FFFFFF;}
</style>
<polygon class="st0" points="-272.6,466.9 -218.2,466.9 -218.2,500.6 -218.2,534.4 -272.6,534.4 -327,534.4 -327,500.6 -327,466.9 
	"/>
<path class="st1" d="M-236.1,510.1c-2.7,2.9-6.4,4.6-10.4,4.6c-7.8,0-14.1-6.3-14.1-14.1s6.3-14.1,14.1-14.1c4,0,7.8,1.7,10.4,4.6
	c0.6,0.6,0.9,1.3,0.9,2.1c0,1.6-1.3,2.9-2.9,2.9c-0.9,0-1.7-0.4-2.3-1.1c-1.6-1.7-3.8-2.7-6.1-2.7c-4.5,0-8.2,3.7-8.2,8.2
	c0,4.5,3.7,8.2,8.2,8.2c2.3,0,4.5-1,6.1-2.7c0.6-0.7,1.4-1.1,2.3-1.1c1.6,0,2.9,1.3,2.9,2.9C-235.2,508.8-235.5,509.5-236.1,510.1
	L-236.1,510.1z"/>
<path class="st1" d="M-269,492.4v19.4c0,1.6-1.3,2.9-2.9,2.9c-1.6,0-2.9-1.3-2.9-2.9v-19.4h-5.6c-1.6,0-2.9-1.3-2.9-2.9
	c0-1.6,1.3-2.9,2.9-2.9h16.9c1.6,0,2.9,1.3,2.9,2.9c0,1.6-1.3,2.9-2.9,2.9H-269L-269,492.4z"/>
<path class="st1" d="M-285.6,510.1c-2.7,2.9-6.4,4.6-10.4,4.6c-7.8,0-14.1-6.3-14.1-14.1s6.3-14.1,14.1-14.1c4,0,7.8,1.7,10.4,4.6
	c0.6,0.6,0.9,1.3,0.9,2.1c0,1.6-1.3,2.9-2.9,2.9c-0.9,0-1.7-0.4-2.3-1.1c-1.6-1.7-3.8-2.7-6.1-2.7c-4.5,0-8.2,3.7-8.2,8.2
	c0,4.5,3.7,8.2,8.2,8.2c2.3,0,4.5-1,6.1-2.7c0.6-0.7,1.4-1.1,2.3-1.1c1.6,0,2.9,1.3,2.9,2.9C-284.7,508.8-285.1,509.5-285.6,510.1
	L-285.6,510.1z"/>
</svg>
