<?xml version="1.0" encoding="utf-8"?>
<!-- Generator: Adobe Illustrator 19.1.0, SVG Export Plug-In . SVG Version: 6.00 Build 0)  -->
<svg version="1.1" id="Слой_1" xmlns="http://www.w3.org/2000/svg" xmlns:xlink="http://www.w3.org/1999/xlink" x="0px" y="0px"
	 viewBox="-386 387.2 226.8 226.8" style="enable-background:new -386 387.2 226.8 226.8;" xml:space="preserve">
<style type="text/css">
	.st0{fill:#727272;}
</style>
<g>
	<g>
		<path id="_339773848" class="st0" d="M-246.5,514.9h-2.7v-6.1h2.3c1.7,0,3.2,1.2,3.2,2.7C-243.8,513.3-244.8,514.9-246.5,514.9z
			 M-245.8,520.4c4.4,0,8.3-2.7,8.3-7V511c0-4.2-4-7.4-8.3-7.4h-3.5v-7.9c0-0.8-0.6-1.2-1.4-1.2h-3.2c-0.7,0-1.4,0.4-1.4,1.2v23.8
			c0,0.5,0.7,0.9,1.2,0.9L-245.8,520.4L-245.8,520.4z"/>
		<path id="_339770440" class="st0" d="M-305.8,510.8c-0.1-0.1-1.3-0.6-1.4-0.6h-0.2c-0.7,0-1.1,0.5-1.7,0.6l4.1-4.6l4.8,4.7
			c-1.2,0-2-1.1-3.3-1.1h-0.3C-304.4,509.9-304.8,510.6-305.8,510.8L-305.8,510.8z M-309.6,520.4c1.4,0,1.7-3,2-4.2h5.9
			c0.3,1.3,0.7,4.2,2.1,4.2h4.1c1.5,0-0.4-5.3-0.7-6.5c-0.5-2.2-1.1-4.7-1.7-6.7c-0.7-2.3-1.1-4.6-1.8-6.9c-0.5-1.6-1-5.9-2.6-5.9
			h-5c-1.3,0-2,4.4-2.3,5.7c-0.4,2.1-1,4.3-1.6,6.5c-0.6,2.4-3.1,11.2-3.1,12.9c0,0.3,0.1,0.2,0.2,0.6c0.3,0.1,0.3,0.2,0.8,0.2
			L-309.6,520.4L-309.6,520.4z"/>
		<path id="_339770680" class="st0" d="M-262.2,504.5c0-0.1,0.1-0.2,0.1-0.3c1.5-3,4.3-8,4.3-9c0-0.3-0.7-0.8-1.2-0.8h-3.8
			c-1.3,0-1.7,1.4-2.1,2.3c-0.3,0.5-1.3,2.6-1.4,3h-0.3c0-0.6-1-2.4-1.3-3.1c-0.4-1-0.8-2.2-2.1-2.2h-3.5c-0.6,0-1.2,0.4-1.2,0.9
			c0,1.2,4.7,9.7,4.7,11.1c0,1-6.1,11.9-6.1,13c0,0.4,0.3,0.9,0.8,0.9h4.4c1.3,0,1.9-2.3,2.4-3.3c0.4-0.7,1.7-3.3,1.8-3.9
			c0.9,1.1,3.1,7.3,4.2,7.3h4.5c0.3,0,0.8-0.4,0.8-0.6c0-1.7-5.9-12.1-5.9-13.5C-262.9,506-262.6,505.4-262.2,504.5L-262.2,504.5z"
			/>
		<path id="_336242320" class="st0" d="M-226.3,495c-0.2,0.2-0.3,0.1-0.3,0.5v3.6c0,0.4,0.3,0.6,0.6,0.8l2.7-0.4l1.8,0.1
			c1.2,0,2.3,1,2.3,2.3c0,3.7-5.9,0.4-5.9,3.2v2.9c0,2.5,6.2-0.2,6.2,3.6v1.5c0,1-1.3,2.1-2.3,2.1h-1.1l-3.6-0.5l-0.3,0
			c-0.4,0-0.8,0.4-0.8,0.8v3c0,2,2,2.1,3.9,2.1h3.5c4.6,0,7.1-2.8,7.1-7.6V513c0-2.7-0.8-5.6-2.9-6.1v-0.3c1.3-0.3,2.4-2.6,2.4-4.2
			v-2c0-3.5-3.2-6.1-6.8-6.1h-3.8C-224.4,494.3-225.8,494.4-226.3,495L-226.3,495z"/>
		<path id="_339778864" class="st0" d="M-287,500.1c0-0.3,0.1-0.5,0.5-0.5h2.1c1.5,0,2.9,1,2.9,2.6v0.2c0,1.3-1.3,2.6-2.4,2.6h-3
			V500.1z M-287.4,501.6l0.2-2.1h0L-287.4,501.6C-287.4,501.6-287.4,501.6-287.4,501.6z M-284.1,510.2c4.3,0,8.9-2.5,8.9-6.7v-2.1
			c0-4.6-4.5-7-9.2-7h-7.1c-1,0-1.5,0.6-1.5,1.7v22.6c0,0.9,0.3,1.7,1.2,1.7h3.9c0.5,0,0.9-0.7,0.9-1.2v-8.9L-284.1,510.2
			L-284.1,510.2z"/>
		<path id="_339778168" class="st0" d="M-236.4,519.2c0,0.7,0.5,1.2,1.2,1.2h3.6c0.7,0,1.1-0.4,1.1-1.1v-23.6c0-0.7-0.5-1.2-1.2-1.2
			h-3.3c-0.8,0-1.4,0.5-1.4,1.4L-236.4,519.2L-236.4,519.2z"/>
		<path id="_340175104" class="st0" d="M-324.6,527.1c-1.6,0.8-4.1,4.8-4.1,7.3h0.9l0.7-2.8c2.1,0,4.4-0.8,5.5-1.7
			c0.9-0.7,3.1-2.7,3.4-3.8c0.5-0.3,1.2-1.7,1.5-2.2c0.7-1,1.4-1.4,1.8-2c-7.2,0-13.3,1.5-13.3,8.6c0.9-0.7,2.4-3.4,3.9-4.5
			c1.2-0.9,3.8-2.7,5.6-2.9C-320,524.3-323.5,525.3-324.6,527.1L-324.6,527.1z"/>
		<path id="_339777808" class="st0" d="M-322.5,521.6h-0.2c-0.3,0-0.5-0.1-0.5-0.5v-0.3c0-0.6,1.3-1.1,1.8-1.2
			c0.1,0.4,0.2,0.3,0.2,0.6C-321.1,521-321.7,521.6-322.5,521.6z M-323.7,518.6c0.4-0.3,0.6-0.5,1.4-0.5h0.3c0.5,0,0.5,0.4,0.6,0.8
			c-0.9,0.5-2.6,0.9-2.6,2.1c0,0.7,0.6,1.4,1.4,1.4c1.1,0,1.2-0.7,1.8-1.1l0.2,0.4l0.7-0.1c-0.7-1.4-0.3-4.2-1.8-4.2h-0.8
			c-0.9,0-2.1,0.8-2.1,1.8v0.5C-323.7,519.4-323.7,519.6-323.7,518.6z"/>
		<path id="_339777664" class="st0" d="M-332.3,524.3c-0.3,0-0.5,0.6-0.6,0.9l0.1-0.2l4.8,1.4l0.3-0.6l-0.2,0.1l-1.9-4.4l-0.7,0.6
			l1.6,3.3C-329.8,525.2-331.6,524.3-332.3,524.3z"/>
		<path id="_339779104" class="st0" d="M-323.9,522.2l-0.9,0.2l-1.4-2.8l0.1,0.1l0.6-0.9l-0.2-0.1l-1,0.4l-0.7-1.4l-0.5,1l0.5,1
			l-0.5,0.3l0.4,0.5l0.6-0.3c0.1,0.5,1.7,3.2,2.3,3.2h0.2c0.5,0,0.1-0.1,0.8-0.3L-323.9,522.2L-323.9,522.2z"/>
		<polygon id="_340182400" class="st0" points="-326.4,524.5 -325.8,524.2 -328.5,520.4 -329.2,521 		"/>
	</g>
	<g>
		<path id="_336235024" class="st0" d="M-242.5,481l-1.2-0.5l-0.1,0.1l1.3,2.6c-1-0.6-1.6-2.5-2.6-2.8l-0.1,0.1l3.2,4.3
			c-2.2-0.2-3.6-4.4-5.1-5.4c0,2.6-1.8,2-2,4.3l-0.5-0.1l-0.5,1l-0.2-1.8l-0.2,0c0,1.8,0,2.1-0.8,3.2l0.5,0l0-0.4l10.7,0.6l0,0.2
			c0.2-0.6,0.2-0.1,0.9,0.1c0.4,0.1,1.2,0.3,1.5,0.3c1.2,0.1,1.9-0.1,3.2,0c1.9,0.1,4.2,0.8,6,0.8l0,0.3l0.3,0c0-1.8-1-2-2.4-2.4
			c-1.4-0.4-1.9-1.4-2.5-2.4l-0.9,0l-0.5-0.9c-1.1,0.3-0.6,3-1.4,4c-0.5-2,0.3-5.4-1.2-6.4c-1.7,1.1-0.8,3.2-1.7,3.5l0-2.6
			c0-0.4-0.1-0.4-0.2-0.8l-0.4,0l-1.5,2.9l-0.2-0.1l0.7-2l-0.3-0.6l-1.3,0.1l-1.2-1.1L-242.5,481L-242.5,481z"/>
		<path id="_336234952" class="st0" d="M-269.1,471.6c0,1.3,2.3,3.8,3,4.6c0.4,0.4,0.7,1.8,1.3,2.6c0.7,1.1,1.2,0.4,1.2,2.6
			c-0.4-0.5-2.1-2.9-2.3-3.5c-0.1-0.4-2.1-3.4-2.3-3.5l1,2.4l-0.2,0.1c-0.8-0.4-0.9,1.3-0.9,2.1c-0.5-0.4-0.3-1.4-0.3-2.3
			c-0.4,0.5-0.9,2.2-2,2.6c-1,0.3-0.7-0.1-1.8,0.5c-0.7,0.4-0.8,0.5-1.8,0.5c-0.1,0.2-0.5,1.1-0.8,1.1l-1.4-0.2
			c-0.1,0.2-0.2,0.6-0.5,0.6c-1,0-0.7-2-1.8-2l-0.5,0c0.3,1.2,1.2,1.2,1.4,3.2l-2-3.3l-0.1,0.1c0,3,1.5,4.5,2,6.4
			c-1.5-0.4-2.5-3.3-2.9-5c-0.7,0.2-0.6,1.9-0.6,2.8c0,0.7,0.3,1.4,0.5,2c-0.8,0-1.6-1.1-1.6-1.7l0.2-1.8c-0.8,0.2-0.8,2-2.1,2.9
			l-1.6,0l-0.6,0.8l-0.3,0l0-0.5l-0.5,0l-0.5,1.5c-0.3-0.2-0.5-0.8-0.8-0.8c-0.6,0-0.3,0.5-0.9,0.9l-0.3-1.1
			c-0.1,0.1-0.4,0.3-0.5,0.3c-0.5,0-1-1.1-1.7-1.5l-0.6,0.3l-0.1-0.8l-0.2,0.5l-0.9,0c-0.2,0.8-0.7,2.6-1.4,2.8l0-0.6
			c0-0.5,0.1-0.6,0.2-1l-2.2,3.5c0.2-0.1,0.2-0.2,0.5-0.1l0.8,0l0.9,0l0-0.3l2.6,0c1.8,0,3.6-0.6,4.8-0.7c1.8-0.2,3.6-0.5,5.3-0.7
			c1.6-0.1,3.9-0.7,5-0.8c2.3-0.1,3.5-0.2,5.5-0.2l0.2-0.4l2-0.2c0.4,0,0.4,0.1,0.8,0.2l0.4-0.3l3.1,0l3.8,0c1.3,0,8.3,0.2,9.6-0.5
			l0,0.3c0.5-0.1,1.1-0.9,1.1-1.2c0-0.9-0.8-1.5-0.8-2.3c0-0.6,0.1-0.3,0.2-0.9c-1.6-0.1-1.6-1.1-2.3-1.7l-1,2.6l0.2,0.1l-0.1,0
			l-0.2-1.5l-0.2,0c0,1.1-0.4,1.9-1.1,2.4c-1.3,0.8-0.5,1.8-1.5,2l0-0.5c0-1.9,2.6-2.2,2.6-5.1c0-0.7-0.3-0.6-0.5-1.2l-0.3,0
			l-0.2,0.9l-0.5-0.7l-0.5,0.7l-0.2-1.4c-1.1,0.7-0.6,1.4-0.9,2.8c-0.3-0.2-0.3,0-0.3-0.5v-0.2c0-1,0.3-1.8,0.5-2.6l-0.3-0.8l-0.3,0
			l0.3,1.6l-0.6-0.6l-0.1,2.1h-0.2c0-0.4-0.1-1.9-0.2-2.4c-0.3-1.5,0.2-1.6,0.2-2.4c0-0.7-0.4-1.5-1.2-1.5l-1.2,0l0.5,5.7
			c-0.8-0.6-1.1-2.2-1.4-3.4l-0.5,0c-0.6,0-0.5-0.7-1-1.1l-0.5,1.1c-0.1-0.5-0.7-1.5-1.2-1.5l-0.4,0l-0.4-1.4l-0.8,0.5
			c-0.1-0.8-0.2-2.8-0.9-2.8C-268.8,470.7-269.1,471.2-269.1,471.6L-269.1,471.6z"/>
		<path id="_336234880" class="st0" d="M-301.1,490.4l0.5-0.3l0,0.3l0.4,0l0.2-0.4l1.4,0l0-0.3c0.9,0.1,1-0.3,1.1-1.5
			C-298.6,488.3-301,489.3-301.1,490.4z"/>
		<path id="_336234808" class="st0" d="M-226.8,485.8l2.6,0.4l0.9,0.1c-0.5-1.3-2.6-2.9-4-3.4c-1.1-0.4-1.8-0.3-2.5-1.2
			c-0.5-0.7-1.2-1.5-1.8-2.1c-1.9-1.9-5.4-6.2-8.8-6.2c-1.9,0-2.3,0.6-3.5,1.2c-0.4-0.1-1.6-0.5-1.8-0.5l-1.4,0
			c-1.2,0-2.8,1.6-3.1,2.6l-0.6,0c-1.6,0-1.6-4.4-6.1-4.4c-1-0.7-2.1-1.3-3.1-2c-0.7-0.5-1.3-2.5-2.6-2.5l-0.5,0l-1.7,0.2
			c-0.1,0.1-0.2,0.5-0.5,0.5c-0.3,0-1.2-1-2.2-1.3c-0.2,0-3.3-0.4-3.3-0.4l-0.6,0c-2.1,0-3.1,2.8-3.8,4.3c-1.3,2.9-2.6,2.2-4,4.3
			c-1.2,0-2,0.3-2.6,1c-0.8,0.8-1.3,0.6-2.1,1.4c-1.3,1.3-0.5,0.6-2,1.5c-0.7,0.5-1.3,1.2-1.7,2c-1.3,0-1.9,0.5-2.3,0.5
			c-0.1,0-1.8-2.6-2.9-2.6l-1.2,0c-2.4,0-2.9,2.8-4.7,4c-3.5,0-2.2,0.4-3.6,2.2c-0.5,0.6-1,0.9-1.4,1.5c-0.2,0.2-1.1,1.7-1.2,1.7
			c-0.3,0-1-0.6-1.7-0.6l-1.2,0c-1.8,0-5.3,4.1-5.7,5.5l2.9-0.3c0.5-0.8,2.1-2.9,3.2-2.9c0.9,0,1.8,0.9,2.1,0.9l0.8,0
			c1.2,0,1.9-1.8,2.5-2.7c0.6-0.9,2.1-1.7,2.2-3l1.7,0c0.7,0,1-0.4,1.3-0.8c0.5-0.5,1.2-0.7,1.3-0.9c0.4-0.4,0.4-2.3,2-2.3
			c1.2,0,2.1,3.4,3.2,3.4l0.3,0c0.3,0,1.1-0.7,1.4-0.9c0.8-0.6,1.1-0.1,1.9-0.4c0.5-0.1,1.9-2,2.2-2.4c1.4,0,1.9-0.9,2.4-1.8l1.1,0
			c0.2-0.4,0.8-1.4,1.4-1.4l0.6,0c0.5,0,0.2,0.3,0.8,0.3c0.7,0,0.7-1.4,1.8-2.2c1-0.7,1.5-0.9,2.2-1.9c0.8-1.1,2.2-5,3.3-5
			c0.7,0,0.3,0.8,1.1,0.8l0.3,0c0.7,0,0.6-0.3,1.2-0.3l0.3,0c0.6,0,2.3,3.1,2.5,3.8c1-0.7,1.1-3.2,2.1-3.2l0.5,0
			c0.6,2.2,2.6,2.6,4.2,3.8c2.7,2.1,2-1,4.9,3.2c0,2.4,1.8,1.7,4,2.2c2.7,0.6,0.9-2.8,3.2-2.8l0.9,0c0.6,0,1.1,0.5,2.1,0.5
			c0.9,0,1.8-1.2,2.4-1.2l0.9,0c1.9,0,4.8,3.2,5.9,4.4c0.9,1,1.5,1.7,2.4,2.8c0.9,1,1.5,1.9,3.3,1.9L-226.8,485.8L-226.8,485.8z"/>
	</g>
	<path id="_339766768" class="st0" d="M-313.5,527.1l-0.4,0c0.2-0.5,0.6-0.7,1.1-0.7c0.3,0,0.6,0.1,0.8,0.2c0.2,0.2,0.3,0.3,0.3,0.6
		c0,0.1,0,0.3-0.1,0.4c-0.1,0.1-0.2,0.2-0.3,0.3c-0.1,0.1-0.3,0.1-0.6,0.2c-0.3,0.1-0.6,0.2-0.7,0.2c-0.1,0.1-0.2,0.2-0.2,0.3
		c0,0.1,0.1,0.2,0.2,0.3c0.1,0.1,0.3,0.1,0.5,0.1c0.2,0,0.4,0,0.5-0.1c0.1-0.1,0.2-0.2,0.3-0.4l0.4,0c-0.2,0.6-0.6,0.9-1.2,0.9
		c-0.4,0-0.7-0.1-0.8-0.2c-0.2-0.2-0.3-0.3-0.3-0.5c0-0.2,0-0.3,0.1-0.4c0.1-0.1,0.2-0.2,0.3-0.3c0.1-0.1,0.3-0.1,0.7-0.2
		c0.4-0.1,0.6-0.2,0.7-0.3c0.1-0.1,0.1-0.2,0.1-0.3c0-0.1,0-0.2-0.1-0.3c-0.1-0.1-0.2-0.1-0.4-0.1c-0.2,0-0.3,0-0.4,0.1
		C-313.4,526.9-313.5,527-313.5,527.1L-313.5,527.1z"/>
	<path id="_3397667681" class="st0" d="M-311.6,528.2c0-0.6,0.2-1,0.5-1.4c0.3-0.3,0.6-0.5,1.1-0.5c0.3,0,0.6,0.1,0.8,0.3
		c0.2,0.2,0.3,0.5,0.3,0.9c0,0.3-0.1,0.6-0.2,0.9c-0.1,0.3-0.3,0.5-0.6,0.6c-0.2,0.2-0.5,0.2-0.8,0.2c-0.2,0-0.4,0-0.6-0.1
		c-0.2-0.1-0.3-0.2-0.4-0.4C-311.5,528.6-311.6,528.4-311.6,528.2L-311.6,528.2z M-311.1,528.1c0,0.3,0.1,0.5,0.2,0.6
		c0.1,0.1,0.3,0.2,0.5,0.2c0.1,0,0.2,0,0.3-0.1c0.1,0,0.2-0.1,0.3-0.2c0.1-0.1,0.2-0.2,0.2-0.3c0.1-0.1,0.1-0.2,0.1-0.4
		c0.1-0.2,0.1-0.3,0.1-0.5c0-0.3-0.1-0.5-0.2-0.6c-0.1-0.1-0.3-0.2-0.5-0.2c-0.2,0-0.3,0-0.4,0.1c-0.1,0.1-0.2,0.2-0.3,0.3
		c-0.1,0.1-0.2,0.3-0.2,0.5C-311.1,527.8-311.1,528-311.1,528.1L-311.1,528.1z"/>
	<path id="_33976676812" class="st0" d="M-308.8,530.3l0.8-3.9h0.4l-0.1,0.4c0.2-0.2,0.3-0.3,0.4-0.4c0.1-0.1,0.3-0.1,0.4-0.1
		c0.3,0,0.5,0.1,0.7,0.3s0.3,0.5,0.3,0.8c0,0.3,0,0.6-0.1,0.8c-0.1,0.2-0.2,0.4-0.4,0.6c-0.1,0.1-0.3,0.3-0.4,0.3
		c-0.1,0.1-0.3,0.1-0.5,0.1c-0.3,0-0.6-0.2-0.8-0.5l-0.3,1.5H-308.8z M-307.9,528.1c0,0.2,0,0.4,0,0.4c0,0.1,0.1,0.2,0.2,0.3
		c0.1,0.1,0.2,0.1,0.4,0.1c0.3,0,0.5-0.2,0.7-0.5c0.2-0.3,0.3-0.6,0.3-1c0-0.2-0.1-0.4-0.2-0.6c-0.1-0.1-0.3-0.2-0.4-0.2
		c-0.1,0-0.2,0-0.3,0.1c-0.1,0.1-0.2,0.2-0.3,0.3c-0.1,0.1-0.2,0.3-0.2,0.5C-307.9,527.8-307.9,527.9-307.9,528.1L-307.9,528.1z"/>
	<polygon id="_339766768123" class="st0" points="-305,526.4 -304.5,526.4 -304.7,527.6 -303.4,527.6 -303.2,526.4 -302.7,526.4 
		-303.3,529.2 -303.8,529.2 -303.5,528 -304.8,528 -305.1,529.2 -305.6,529.2 	"/>
	<path id="_3397667681234" class="st0" d="M-300.6,528.9c-0.2,0.1-0.3,0.3-0.5,0.3c-0.2,0.1-0.3,0.1-0.5,0.1c-0.3,0-0.5-0.1-0.6-0.2
		c-0.2-0.2-0.2-0.4-0.2-0.6c0-0.2,0-0.3,0.1-0.4c0.1-0.1,0.2-0.2,0.3-0.3c0.1-0.1,0.3-0.1,0.4-0.2c0.1,0,0.3,0,0.6-0.1
		c0.3,0,0.5,0,0.7-0.1c0-0.1,0.1-0.2,0.1-0.3c0-0.1,0-0.2-0.1-0.3c-0.1-0.1-0.3-0.1-0.5-0.1c-0.2,0-0.4,0-0.5,0.1
		c-0.1,0.1-0.2,0.2-0.3,0.4l-0.5,0c0.1-0.3,0.3-0.5,0.5-0.6c0.2-0.2,0.5-0.2,0.8-0.2c0.4,0,0.6,0.1,0.8,0.3c0.2,0.1,0.2,0.3,0.2,0.5
		c0,0.2,0,0.3-0.1,0.5l-0.2,0.7c-0.1,0.2-0.1,0.4-0.1,0.5c0,0.1,0,0.2,0.1,0.4h-0.5C-300.6,529.2-300.6,529-300.6,528.9z
		 M-300.4,527.8c-0.1,0-0.1,0-0.2,0.1c-0.1,0-0.2,0-0.4,0c-0.3,0-0.5,0.1-0.6,0.1c-0.1,0-0.2,0.1-0.3,0.2c-0.1,0.1-0.1,0.2-0.1,0.3
		c0,0.1,0,0.2,0.1,0.3c0.1,0.1,0.2,0.1,0.4,0.1c0.2,0,0.3,0,0.5-0.1c0.1-0.1,0.3-0.2,0.4-0.4C-300.5,528.3-300.5,528.1-300.4,527.8z
		"/>
	<path id="_33976676812345" class="st0" d="M-296.7,526.4l-0.6,2.8h-0.5l0.3-1.2h-0.2c-0.2,0-0.3,0-0.4,0c-0.1,0-0.1,0.1-0.2,0.1
		c-0.1,0.1-0.2,0.2-0.3,0.3l-0.5,0.8h-0.6l0.5-0.7c0.2-0.3,0.4-0.4,0.6-0.5c-0.2-0.1-0.4-0.1-0.5-0.3c-0.1-0.1-0.2-0.3-0.2-0.5
		c0-0.2,0-0.3,0.1-0.5c0.1-0.1,0.2-0.3,0.4-0.3c0.2-0.1,0.4-0.1,0.8-0.1H-296.7z M-297.2,526.8h-0.7c-0.4,0-0.6,0.1-0.7,0.2
		c-0.1,0.1-0.1,0.2-0.1,0.3c0,0.1,0,0.2,0.1,0.3c0.1,0.1,0.1,0.1,0.2,0.1c0.1,0,0.2,0,0.4,0h0.7
		C-297.4,527.7-297.2,526.8-297.2,526.8z"/>
	<polygon id="_339766768123456" class="st0" points="-294.4,526.4 -292.1,526.4 -292.7,529.2 -293.2,529.2 -292.7,526.8 -294,526.8 
		-294.5,529.2 -295,529.2 	"/>
	<path id="_3397667681234567" class="st0" d="M-292.2,530.3l0.8-3.9h0.4l-0.1,0.4c0.2-0.2,0.3-0.3,0.4-0.4c0.1-0.1,0.3-0.1,0.4-0.1
		c0.3,0,0.5,0.1,0.7,0.3c0.2,0.2,0.3,0.5,0.3,0.8c0,0.3,0,0.6-0.1,0.8c-0.1,0.2-0.2,0.4-0.4,0.6c-0.1,0.1-0.3,0.3-0.4,0.3
		c-0.1,0.1-0.3,0.1-0.5,0.1c-0.3,0-0.6-0.2-0.8-0.5l-0.3,1.5C-291.7,530.3-292.2,530.3-292.2,530.3z M-291.3,528.1
		c0,0.2,0,0.4,0,0.4c0,0.1,0.1,0.2,0.2,0.3c0.1,0.1,0.2,0.1,0.4,0.1c0.3,0,0.5-0.2,0.7-0.5c0.2-0.3,0.3-0.6,0.3-1
		c0-0.2-0.1-0.4-0.2-0.6c-0.1-0.1-0.3-0.2-0.4-0.2c-0.1,0-0.2,0-0.3,0.1c-0.1,0.1-0.2,0.2-0.3,0.3c-0.1,0.1-0.2,0.3-0.2,0.5
		C-291.2,527.8-291.3,527.9-291.3,528.1L-291.3,528.1z"/>
	<path id="_33976676812345678" class="st0" d="M-287,528.7c-0.3,0.4-0.7,0.6-1,0.6c-0.2,0-0.4-0.1-0.5-0.2c-0.1-0.1-0.2-0.3-0.2-0.5
		c0-0.1,0-0.3,0.1-0.6l0.3-1.6h0.5l-0.4,1.8c0,0.2,0,0.3,0,0.4c0,0.1,0,0.2,0.1,0.3c0.1,0.1,0.2,0.1,0.3,0.1c0.1,0,0.3,0,0.4-0.1
		c0.1-0.1,0.2-0.2,0.3-0.3c0.1-0.1,0.2-0.2,0.2-0.4c0-0.1,0.1-0.3,0.1-0.5l0.3-1.2h0.5l-0.6,2.8h-0.4
		C-287.1,529.2-287,528.7-287,528.7z"/>
	<path id="_339766768123456789" class="st0" d="M-286.1,530.3l0.8-3.9h0.4l-0.1,0.4c0.2-0.2,0.3-0.3,0.4-0.4
		c0.1-0.1,0.3-0.1,0.4-0.1c0.3,0,0.5,0.1,0.7,0.3c0.2,0.2,0.3,0.5,0.3,0.8c0,0.3,0,0.6-0.1,0.8c-0.1,0.2-0.2,0.4-0.4,0.6
		c-0.1,0.1-0.3,0.3-0.4,0.3c-0.1,0.1-0.3,0.1-0.5,0.1c-0.3,0-0.6-0.2-0.8-0.5l-0.3,1.5C-285.6,530.3-286.1,530.3-286.1,530.3z
		 M-285.2,528.1c0,0.2,0,0.4,0,0.4c0,0.1,0.1,0.2,0.2,0.3c0.1,0.1,0.2,0.1,0.4,0.1c0.3,0,0.5-0.2,0.7-0.5c0.2-0.3,0.3-0.6,0.3-1
		c0-0.2-0.1-0.4-0.2-0.6c-0.1-0.1-0.3-0.2-0.4-0.2c-0.1,0-0.2,0-0.3,0.1c-0.1,0.1-0.2,0.2-0.3,0.3c-0.1,0.1-0.2,0.3-0.2,0.5
		C-285.1,527.8-285.2,527.9-285.2,528.1L-285.2,528.1z"/>
	<path id="_33976676812345678910" class="st0" d="M-282.7,528.2c0-0.6,0.2-1,0.5-1.4c0.3-0.3,0.6-0.5,1.1-0.5c0.3,0,0.6,0.1,0.8,0.3
		c0.2,0.2,0.3,0.5,0.3,0.9c0,0.3-0.1,0.6-0.2,0.9c-0.1,0.3-0.3,0.5-0.6,0.6c-0.2,0.2-0.5,0.2-0.8,0.2c-0.2,0-0.4,0-0.6-0.1
		c-0.2-0.1-0.3-0.2-0.4-0.4C-282.7,528.6-282.7,528.4-282.7,528.2L-282.7,528.2z M-282.3,528.1c0,0.3,0.1,0.5,0.2,0.6
		c0.1,0.1,0.3,0.2,0.5,0.2c0.1,0,0.2,0,0.3-0.1c0.1,0,0.2-0.1,0.3-0.2c0.1-0.1,0.2-0.2,0.2-0.3c0.1-0.1,0.1-0.2,0.1-0.4
		c0.1-0.2,0.1-0.3,0.1-0.5c0-0.3-0.1-0.5-0.2-0.6c-0.1-0.1-0.3-0.2-0.5-0.2c-0.2,0-0.3,0-0.4,0.1c-0.1,0.1-0.2,0.2-0.3,0.3
		c-0.1,0.1-0.2,0.3-0.2,0.5C-282.2,527.8-282.3,528-282.3,528.1L-282.3,528.1z"/>
	<path id="_3397667681234567891011" class="st0" d="M-278.7,525.7l0.1-0.4h0.4c0.4,0,0.8,0.1,1,0.4c0.2,0.2,0.3,0.6,0.3,1.1
		c0,0.8-0.1,1.4-0.4,1.9c-0.3,0.5-0.7,0.7-1.2,0.7c-0.3,0-0.6-0.1-0.8-0.3c-0.2-0.2-0.3-0.5-0.3-0.9c0-0.5,0.1-0.9,0.5-1.3
		c0.3-0.3,0.7-0.5,1.1-0.5c0.2,0,0.3,0,0.5,0.1c0.1,0.1,0.2,0.2,0.3,0.4c0-0.2,0-0.4,0-0.6c0-0.1-0.1-0.2-0.2-0.3
		c-0.1-0.1-0.2-0.2-0.3-0.2c-0.1,0-0.3-0.1-0.5-0.1L-278.7,525.7L-278.7,525.7z M-279.2,528.1c0,0.2,0.1,0.4,0.2,0.6
		c0.1,0.1,0.3,0.2,0.5,0.2c0.3,0,0.6-0.2,0.8-0.5c0.2-0.3,0.3-0.6,0.3-1c0-0.2-0.1-0.4-0.2-0.6c-0.1-0.1-0.3-0.2-0.5-0.2
		c-0.3,0-0.6,0.1-0.8,0.4C-279.1,527.5-279.2,527.8-279.2,528.1z"/>
	<polygon id="_339766768123456789101112" class="st0" points="-276.1,526.4 -275.7,526.4 -275.9,527.6 -274.6,527.6 -274.3,526.4 
		-273.9,526.4 -274.5,529.2 -274.9,529.2 -274.7,528 -276,528 -276.3,529.2 -276.7,529.2 	"/>
	<path id="_33976676812345678910111213" class="st0" d="M-271.8,528.9c-0.2,0.1-0.3,0.3-0.5,0.3c-0.2,0.1-0.3,0.1-0.5,0.1
		c-0.3,0-0.5-0.1-0.6-0.2c-0.2-0.2-0.2-0.4-0.2-0.6c0-0.2,0-0.3,0.1-0.4c0.1-0.1,0.2-0.2,0.3-0.3c0.1-0.1,0.3-0.1,0.4-0.2
		c0.1,0,0.3,0,0.6-0.1c0.3,0,0.5,0,0.7-0.1c0-0.1,0.1-0.2,0.1-0.3c0-0.1,0-0.2-0.1-0.3c-0.1-0.1-0.3-0.1-0.5-0.1
		c-0.2,0-0.4,0-0.5,0.1c-0.1,0.1-0.2,0.2-0.3,0.4l-0.5,0c0.1-0.3,0.3-0.5,0.5-0.6c0.2-0.2,0.5-0.2,0.8-0.2c0.4,0,0.6,0.1,0.8,0.3
		c0.2,0.1,0.2,0.3,0.2,0.5c0,0.2,0,0.3-0.1,0.5l-0.2,0.7c-0.1,0.2-0.1,0.4-0.1,0.5c0,0.1,0,0.2,0.1,0.4h-0.5
		C-271.8,529.2-271.8,529-271.8,528.9L-271.8,528.9z M-271.6,527.8c-0.1,0-0.1,0-0.2,0.1c-0.1,0-0.2,0-0.4,0c-0.3,0-0.5,0.1-0.6,0.1
		c-0.1,0-0.2,0.1-0.3,0.2c-0.1,0.1-0.1,0.2-0.1,0.3c0,0.1,0,0.2,0.1,0.3c0.1,0.1,0.2,0.1,0.4,0.1c0.2,0,0.3,0,0.5-0.1
		c0.1-0.1,0.3-0.2,0.4-0.4C-271.7,528.3-271.7,528.1-271.6,527.8z"/>
	<path id="_3397667681234567891011121314" class="st0" d="M-267.9,526.4l-0.6,2.8h-0.5l0.3-1.2h-0.2c-0.2,0-0.3,0-0.4,0
		c-0.1,0-0.1,0.1-0.2,0.1c-0.1,0.1-0.2,0.2-0.3,0.3l-0.5,0.8h-0.6l0.5-0.7c0.2-0.3,0.4-0.4,0.6-0.5c-0.2-0.1-0.4-0.1-0.5-0.3
		c-0.1-0.1-0.2-0.3-0.2-0.5c0-0.2,0-0.3,0.1-0.5c0.1-0.1,0.2-0.3,0.4-0.3c0.2-0.1,0.4-0.1,0.8-0.1
		C-269.1,526.4-267.9,526.4-267.9,526.4z M-268.4,526.8h-0.7c-0.4,0-0.6,0.1-0.7,0.2c-0.1,0.1-0.1,0.2-0.1,0.3c0,0.1,0,0.2,0.1,0.3
		c0.1,0.1,0.1,0.1,0.2,0.1c0.1,0,0.2,0,0.4,0h0.7C-268.6,527.7-268.4,526.8-268.4,526.8z"/>
	<path id="_339766768123456789101112131415" class="st0" d="M-264.3,527.8c0.2,0.1,0.3,0.1,0.4,0.3c0.1,0.1,0.1,0.2,0.1,0.4
		c0,0.2-0.1,0.4-0.3,0.6c-0.2,0.2-0.5,0.3-0.9,0.3c-0.3,0-0.5,0-0.7-0.1c-0.2-0.1-0.3-0.2-0.4-0.4c-0.1-0.2-0.1-0.4-0.1-0.6
		c0-0.5,0.1-0.9,0.4-1.3c0.3-0.4,0.7-0.5,1.2-0.5c0.3,0,0.5,0.1,0.7,0.2c0.2,0.1,0.2,0.3,0.2,0.5c0,0.2-0.1,0.3-0.2,0.4
		C-263.9,527.6-264.1,527.7-264.3,527.8L-264.3,527.8z M-265.5,527.6c0.1,0,0.2,0,0.3,0c0.4,0,0.6,0,0.8-0.1
		c0.2-0.1,0.3-0.2,0.3-0.4c0-0.1,0-0.2-0.1-0.3c-0.1-0.1-0.2-0.1-0.3-0.1c-0.2,0-0.4,0.1-0.6,0.2
		C-265.3,527.1-265.4,527.3-265.5,527.6z M-265.6,527.9c0,0.1,0,0.2,0,0.2c0,0.2,0.1,0.4,0.2,0.6c0.1,0.1,0.3,0.2,0.6,0.2
		c0.2,0,0.3,0,0.4-0.1c0.1-0.1,0.2-0.2,0.2-0.4c0-0.2-0.1-0.3-0.2-0.4c-0.2-0.1-0.4-0.1-0.9-0.1
		C-265.4,527.9-265.5,527.9-265.6,527.9z"/>
	<path id="_33976676812345678910111213141516" class="st0" d="M-263.4,528.2c0-0.6,0.2-1,0.5-1.4c0.3-0.3,0.6-0.5,1.1-0.5
		c0.3,0,0.6,0.1,0.8,0.3c0.2,0.2,0.3,0.5,0.3,0.9c0,0.3-0.1,0.6-0.2,0.9c-0.1,0.3-0.3,0.5-0.6,0.6c-0.2,0.2-0.5,0.2-0.8,0.2
		c-0.2,0-0.4,0-0.6-0.1c-0.2-0.1-0.3-0.2-0.4-0.4C-263.3,528.6-263.4,528.4-263.4,528.2L-263.4,528.2z M-262.9,528.1
		c0,0.3,0.1,0.5,0.2,0.6c0.1,0.1,0.3,0.2,0.5,0.2c0.1,0,0.2,0,0.3-0.1c0.1,0,0.2-0.1,0.3-0.2c0.1-0.1,0.2-0.2,0.2-0.3
		c0.1-0.1,0.1-0.2,0.1-0.4c0.1-0.2,0.1-0.3,0.1-0.5c0-0.3-0.1-0.5-0.2-0.6c-0.1-0.1-0.3-0.2-0.5-0.2c-0.2,0-0.3,0-0.4,0.1
		c-0.1,0.1-0.2,0.2-0.3,0.3c-0.1,0.1-0.2,0.3-0.2,0.5C-262.8,527.8-262.9,528-262.9,528.1L-262.9,528.1z"/>
	<path id="_3397667681234567891011121314151617" class="st0" d="M-259.3,525.7l0.1-0.4h0.4c0.4,0,0.8,0.1,1,0.4
		c0.2,0.2,0.3,0.6,0.3,1.1c0,0.8-0.1,1.4-0.4,1.9c-0.3,0.5-0.7,0.7-1.2,0.7c-0.3,0-0.6-0.1-0.8-0.3c-0.2-0.2-0.3-0.5-0.3-0.9
		c0-0.5,0.1-0.9,0.5-1.3c0.3-0.3,0.7-0.5,1.1-0.5c0.2,0,0.3,0,0.5,0.1c0.1,0.1,0.2,0.2,0.3,0.4c0-0.2,0-0.4,0-0.6
		c0-0.1-0.1-0.2-0.2-0.3c-0.1-0.1-0.2-0.2-0.3-0.2c-0.1,0-0.3-0.1-0.5-0.1L-259.3,525.7L-259.3,525.7z M-259.8,528.1
		c0,0.2,0.1,0.4,0.2,0.6c0.1,0.1,0.3,0.2,0.5,0.2c0.3,0,0.6-0.2,0.8-0.5c0.2-0.3,0.3-0.6,0.3-1c0-0.2-0.1-0.4-0.2-0.6
		c-0.1-0.1-0.3-0.2-0.5-0.2c-0.3,0-0.6,0.1-0.8,0.4C-259.7,527.5-259.8,527.8-259.8,528.1z"/>
	<path id="_339766768123456789101112131415161718" class="st0" d="M-255.4,528.9c-0.2,0.1-0.3,0.3-0.5,0.3c-0.2,0.1-0.3,0.1-0.5,0.1
		c-0.3,0-0.5-0.1-0.6-0.2c-0.2-0.2-0.2-0.4-0.2-0.6c0-0.2,0-0.3,0.1-0.4c0.1-0.1,0.2-0.2,0.3-0.3c0.1-0.1,0.3-0.1,0.4-0.2
		c0.1,0,0.3,0,0.6-0.1c0.3,0,0.5,0,0.7-0.1c0-0.1,0.1-0.2,0.1-0.3c0-0.1,0-0.2-0.1-0.3c-0.1-0.1-0.3-0.1-0.5-0.1
		c-0.2,0-0.4,0-0.5,0.1c-0.1,0.1-0.2,0.2-0.3,0.4l-0.5,0c0.1-0.3,0.3-0.5,0.5-0.6c0.2-0.2,0.5-0.2,0.8-0.2c0.4,0,0.6,0.1,0.8,0.3
		c0.2,0.1,0.2,0.3,0.2,0.5c0,0.2,0,0.3-0.1,0.5l-0.2,0.7c-0.1,0.2-0.1,0.4-0.1,0.5c0,0.1,0,0.2,0.1,0.4h-0.5
		C-255.4,529.2-255.4,529-255.4,528.9z M-255.2,527.8c-0.1,0-0.1,0-0.2,0.1c-0.1,0-0.2,0-0.4,0c-0.3,0-0.5,0.1-0.6,0.1
		c-0.1,0-0.2,0.1-0.3,0.2c-0.1,0.1-0.1,0.2-0.1,0.3c0,0.1,0,0.2,0.1,0.3c0.1,0.1,0.2,0.1,0.4,0.1c0.2,0,0.3,0,0.5-0.1
		c0.1-0.1,0.3-0.2,0.4-0.4C-255.4,528.3-255.3,528.1-255.2,527.8z"/>
	<polygon id="_33976676812345678910111213141516171819" class="st0" points="-252.2,526.4 -251.7,526.4 -251.9,527.6 -250.6,527.6 
		-250.4,526.4 -249.9,526.4 -250.5,529.2 -251,529.2 -250.7,528 -252,528 -252.3,529.2 -252.8,529.2 	"/>
	<path id="_3397667681234567891011121314151617181920" class="st0" d="M-247.8,528.9c-0.2,0.1-0.3,0.3-0.5,0.3
		c-0.2,0.1-0.3,0.1-0.5,0.1c-0.3,0-0.5-0.1-0.6-0.2c-0.2-0.2-0.2-0.4-0.2-0.6c0-0.2,0-0.3,0.1-0.4c0.1-0.1,0.2-0.2,0.3-0.3
		c0.1-0.1,0.3-0.1,0.4-0.2c0.1,0,0.3,0,0.6-0.1c0.3,0,0.5,0,0.7-0.1c0-0.1,0.1-0.2,0.1-0.3c0-0.1,0-0.2-0.1-0.3
		c-0.1-0.1-0.3-0.1-0.5-0.1c-0.2,0-0.4,0-0.5,0.1c-0.1,0.1-0.2,0.2-0.3,0.4l-0.5,0c0.1-0.3,0.3-0.5,0.5-0.6c0.2-0.2,0.5-0.2,0.8-0.2
		c0.4,0,0.6,0.1,0.8,0.3c0.2,0.1,0.2,0.3,0.2,0.5c0,0.2,0,0.3-0.1,0.5l-0.2,0.7c-0.1,0.2-0.1,0.4-0.1,0.5c0,0.1,0,0.2,0.1,0.4h-0.5
		C-247.8,529.2-247.8,529-247.8,528.9L-247.8,528.9z M-247.6,527.8c-0.1,0-0.1,0-0.2,0.1c-0.1,0-0.2,0-0.4,0c-0.3,0-0.5,0.1-0.6,0.1
		c-0.1,0-0.2,0.1-0.3,0.2c-0.1,0.1-0.1,0.2-0.1,0.3c0,0.1,0,0.2,0.1,0.3c0.1,0.1,0.2,0.1,0.4,0.1c0.2,0,0.3,0,0.5-0.1
		c0.1-0.1,0.3-0.2,0.4-0.4C-247.8,528.3-247.7,528.1-247.6,527.8z"/>
	<path id="_339766768123456789101112131415161718192021" class="st0" d="M-244.5,526.4h0.5l-0.3,1.2l0.1,0c0.1,0,0.2,0,0.3-0.1
		c0.1-0.1,0.2-0.2,0.4-0.5c0.2-0.3,0.3-0.4,0.4-0.5c0.1-0.1,0.3-0.1,0.5-0.1h0.2l-0.1,0.4h-0.1c-0.1,0-0.2,0-0.2,0
		c0,0-0.1,0.1-0.2,0.3c-0.1,0.2-0.2,0.4-0.3,0.5c-0.1,0.1-0.2,0.2-0.4,0.2c0.1,0,0.2,0.1,0.3,0.2c0.1,0.1,0.1,0.2,0.2,0.4l0.3,0.9
		h-0.5l-0.3-0.7c-0.1-0.3-0.2-0.4-0.3-0.5c-0.1-0.1-0.2-0.1-0.4-0.1l-0.3,1.3h-0.5L-244.5,526.4L-244.5,526.4z"/>
	<path id="_33976676812345678910111213141516171819202122" class="st0" d="M-240.6,528.9c-0.2,0.1-0.3,0.3-0.5,0.3
		c-0.2,0.1-0.3,0.1-0.5,0.1c-0.3,0-0.5-0.1-0.6-0.2c-0.2-0.2-0.2-0.4-0.2-0.6c0-0.2,0-0.3,0.1-0.4c0.1-0.1,0.2-0.2,0.3-0.3
		c0.1-0.1,0.3-0.1,0.4-0.2c0.1,0,0.3,0,0.6-0.1c0.3,0,0.5,0,0.7-0.1c0-0.1,0.1-0.2,0.1-0.3c0-0.1,0-0.2-0.1-0.3
		c-0.1-0.1-0.3-0.1-0.5-0.1c-0.2,0-0.4,0-0.5,0.1c-0.1,0.1-0.2,0.2-0.3,0.4l-0.5,0c0.1-0.3,0.3-0.5,0.5-0.6c0.2-0.2,0.5-0.2,0.8-0.2
		c0.4,0,0.6,0.1,0.8,0.3c0.2,0.1,0.2,0.3,0.2,0.5c0,0.2,0,0.3-0.1,0.5l-0.2,0.7c-0.1,0.2-0.1,0.4-0.1,0.5c0,0.1,0,0.2,0.1,0.4h-0.5
		C-240.6,529.2-240.6,529-240.6,528.9L-240.6,528.9z M-240.5,527.8c-0.1,0-0.1,0-0.2,0.1c-0.1,0-0.2,0-0.4,0c-0.3,0-0.5,0.1-0.6,0.1
		c-0.1,0-0.2,0.1-0.3,0.2c-0.1,0.1-0.1,0.2-0.1,0.3c0,0.1,0,0.2,0.1,0.3c0.1,0.1,0.2,0.1,0.4,0.1c0.2,0,0.3,0,0.5-0.1
		c0.1-0.1,0.3-0.2,0.4-0.4C-240.6,528.3-240.5,528.1-240.5,527.8L-240.5,527.8z"/>
	<path id="_3397667681234567891011121314151617181920212223" class="st0" d="M-237.6,526.4h0.5l-0.3,1.2l0,0c0.1,0,0.2,0,0.3-0.1
		c0.1-0.1,0.2-0.2,0.4-0.5c0.2-0.3,0.3-0.4,0.4-0.5c0.1-0.1,0.3-0.1,0.4-0.1c0.1,0,0.2,0,0.3,0l-0.1,0.3c-0.1,0-0.1,0-0.2,0
		c-0.1,0-0.2,0-0.2,0.1c-0.1,0.1-0.1,0.2-0.2,0.3c-0.2,0.4-0.4,0.6-0.7,0.7c0.1,0,0.2,0.1,0.2,0.1c0.1,0.1,0.2,0.2,0.2,0.4l0.4,0.9
		h-0.5l-0.3-0.7c-0.1-0.2-0.2-0.4-0.2-0.5c-0.1-0.1-0.2-0.1-0.3-0.1l-0.3,1.3h-0.5l0.3-1.3c-0.1,0-0.2,0-0.3,0.1
		c-0.1,0.1-0.2,0.2-0.4,0.5l-0.6,0.8h-0.6l0.8-0.9c0.2-0.3,0.5-0.5,0.7-0.5c-0.1-0.1-0.2-0.2-0.2-0.2c-0.1-0.1-0.1-0.3-0.2-0.5
		c0-0.1,0-0.2-0.1-0.3c0,0-0.1-0.1-0.1-0.1c0,0-0.1,0-0.2,0l0-0.3c0.1,0,0.2,0,0.3,0c0.2,0,0.3,0,0.4,0.1c0.1,0.1,0.1,0.3,0.2,0.5
		c0.1,0.2,0.1,0.4,0.2,0.5c0.1,0.1,0.2,0.1,0.3,0.1L-237.6,526.4L-237.6,526.4z"/>
	<path id="_339766768123456789101112131415161718192021222324" class="st0" d="M-234.7,525.7l0.1-0.4h0.4c0.4,0,0.8,0.1,1,0.4
		c0.2,0.2,0.3,0.6,0.3,1.1c0,0.8-0.1,1.4-0.4,1.9c-0.3,0.5-0.7,0.7-1.2,0.7c-0.3,0-0.6-0.1-0.8-0.3c-0.2-0.2-0.3-0.5-0.3-0.9
		c0-0.5,0.1-0.9,0.5-1.3c0.3-0.3,0.7-0.5,1.1-0.5c0.2,0,0.3,0,0.5,0.1c0.1,0.1,0.2,0.2,0.3,0.4c0-0.2,0-0.4,0-0.6
		c0-0.1-0.1-0.2-0.2-0.3c-0.1-0.1-0.2-0.2-0.3-0.2c-0.1,0-0.3-0.1-0.5-0.1L-234.7,525.7L-234.7,525.7z M-235.2,528.1
		c0,0.2,0.1,0.4,0.2,0.6c0.1,0.1,0.3,0.2,0.5,0.2c0.3,0,0.6-0.2,0.8-0.5c0.2-0.3,0.3-0.6,0.3-1c0-0.2-0.1-0.4-0.2-0.6
		c-0.1-0.1-0.3-0.2-0.5-0.2c-0.3,0-0.6,0.1-0.8,0.4C-235.1,527.5-235.2,527.8-235.2,528.1z"/>
	<path id="_33976676812345678910111213141516171819202122232425" class="st0" d="M-229.3,526.4h0.5l-0.6,2.8h-0.5L-229.3,526.4z
		 M-232.1,526.4h0.5l-0.2,1.1h0.5c0.3,0,0.6,0,0.7,0.1c0.1,0,0.3,0.1,0.3,0.3c0.1,0.1,0.1,0.3,0.1,0.4c0,0.2-0.1,0.4-0.2,0.5
		c-0.1,0.2-0.2,0.3-0.4,0.3c-0.2,0.1-0.4,0.1-0.8,0.1h-1.2L-232.1,526.4z M-232.1,528.9h0.6c0.2,0,0.4,0,0.5,0
		c0.1,0,0.2-0.1,0.3-0.2c0.1-0.1,0.1-0.2,0.1-0.3c0-0.1,0-0.2-0.1-0.3c-0.1-0.1-0.1-0.1-0.2-0.1c-0.1,0-0.2,0-0.4,0h-0.6
		L-232.1,528.9L-232.1,528.9z"/>
	<path id="_3397667681234567891011121314151617181920212223242526" class="st0" d="M-226.7,528.7c-0.3,0.4-0.7,0.6-1,0.6
		c-0.2,0-0.4-0.1-0.5-0.2c-0.1-0.1-0.2-0.3-0.2-0.5c0-0.1,0-0.3,0.1-0.6l0.3-1.6h0.5l-0.4,1.8c0,0.2,0,0.3,0,0.4
		c0,0.1,0,0.2,0.1,0.3c0.1,0.1,0.2,0.1,0.3,0.1c0.1,0,0.3,0,0.4-0.1c0.1-0.1,0.2-0.2,0.3-0.3c0.1-0.1,0.2-0.2,0.2-0.4
		c0-0.1,0.1-0.3,0.1-0.5l0.3-1.2h0.5l-0.6,2.8h-0.4L-226.7,528.7z M-227.6,525.3h0.3c0,0.1,0.1,0.2,0.1,0.3c0.1,0.1,0.2,0.1,0.3,0.1
		c0.1,0,0.2,0,0.3-0.1c0.1-0.1,0.2-0.2,0.2-0.3h0.3c-0.1,0.2-0.2,0.4-0.3,0.5c-0.2,0.1-0.3,0.2-0.6,0.2c-0.2,0-0.4-0.1-0.5-0.2
		C-227.5,525.7-227.6,525.5-227.6,525.3L-227.6,525.3z"/>
	<path id="_339766768123456789101112131415161718192021222324252627" class="st0" d="M-223,525.7l0.1-0.4h0.4c0.4,0,0.8,0.1,1,0.4
		c0.2,0.2,0.3,0.6,0.3,1.1c0,0.8-0.1,1.4-0.4,1.9c-0.3,0.5-0.7,0.7-1.2,0.7c-0.3,0-0.6-0.1-0.8-0.3c-0.2-0.2-0.3-0.5-0.3-0.9
		c0-0.5,0.1-0.9,0.5-1.3c0.3-0.3,0.7-0.5,1.1-0.5c0.2,0,0.3,0,0.5,0.1c0.1,0.1,0.2,0.2,0.3,0.4c0-0.2,0-0.4,0-0.6
		c0-0.1-0.1-0.2-0.2-0.3c-0.1-0.1-0.2-0.2-0.3-0.2c-0.1,0-0.3-0.1-0.5-0.1L-223,525.7L-223,525.7z M-223.5,528.1
		c0,0.2,0.1,0.4,0.2,0.6c0.1,0.1,0.3,0.2,0.5,0.2c0.3,0,0.6-0.2,0.8-0.5c0.2-0.3,0.3-0.6,0.3-1c0-0.2-0.1-0.4-0.2-0.6
		c-0.1-0.1-0.3-0.2-0.5-0.2c-0.3,0-0.6,0.1-0.8,0.4C-223.4,527.5-223.5,527.8-223.5,528.1z"/>
	<path id="_33976676812345678910111213141516171819202122232425262728" class="st0" d="M-218.9,528.3l0.5,0
		c-0.1,0.2-0.2,0.5-0.5,0.7c-0.2,0.2-0.5,0.3-0.9,0.3c-0.2,0-0.4,0-0.6-0.1c-0.2-0.1-0.3-0.2-0.4-0.4c-0.1-0.2-0.1-0.4-0.1-0.6
		c0-0.3,0.1-0.6,0.2-0.9c0.1-0.3,0.3-0.5,0.6-0.7c0.2-0.1,0.5-0.2,0.7-0.2c0.3,0,0.6,0.1,0.8,0.3c0.2,0.2,0.3,0.5,0.3,0.9
		c0,0.1,0,0.3,0,0.4h-2.1c0,0.1,0,0.1,0,0.1c0,0.3,0.1,0.5,0.2,0.6c0.1,0.1,0.3,0.2,0.4,0.2c0.2,0,0.3-0.1,0.5-0.2
		C-219.2,528.6-219,528.5-218.9,528.3L-218.9,528.3z M-220.4,527.6h1.6c0-0.1,0-0.1,0-0.1c0-0.2-0.1-0.4-0.2-0.6
		c-0.1-0.1-0.3-0.2-0.5-0.2c-0.2,0-0.4,0.1-0.6,0.2C-220.1,527.1-220.3,527.3-220.4,527.6L-220.4,527.6z"/>
	<polygon id="_3397667681234567891011121314151617181920212223242526272829" class="st0" points="-217.4,526.4 -216.9,526.4 
		-217.2,527.6 -215.8,527.6 -215.6,526.4 -215.1,526.4 -215.7,529.2 -216.2,529.2 -215.9,528 -217.2,528 -217.5,529.2 -218,529.2 	
		"/>
	<path id="_339766768123456789101112131415161718192021222324252627282930" class="st0" d="M-214.4,526.4h0.5l-0.2,1.1h0.5
		c0.3,0,0.6,0,0.7,0.1c0.1,0,0.3,0.1,0.3,0.3c0.1,0.1,0.1,0.3,0.1,0.4c0,0.2-0.1,0.4-0.2,0.5c-0.1,0.2-0.2,0.3-0.4,0.3
		c-0.2,0.1-0.4,0.1-0.8,0.1h-1.2L-214.4,526.4z M-214.4,528.9h0.6c0.2,0,0.4,0,0.5,0c0.1,0,0.2-0.1,0.3-0.2c0.1-0.1,0.1-0.2,0.1-0.3
		c0-0.1,0-0.2-0.1-0.3c-0.1-0.1-0.1-0.1-0.2-0.1c-0.1,0-0.2,0-0.4,0h-0.6L-214.4,528.9L-214.4,528.9z"/>
</g>
</svg>
