<?xml version="1.0" encoding="utf-8"?>
<!-- Generator: Adobe Illustrator 19.1.0, SVG Export Plug-In . SVG Version: 6.00 Build 0)  -->
<svg version="1.1" id="Слой_1" xmlns="http://www.w3.org/2000/svg" xmlns:xlink="http://www.w3.org/1999/xlink" x="0px" y="0px"
	 viewBox="-386 387.2 226.8 226.8" style="enable-background:new -386 387.2 226.8 226.8;" xml:space="preserve">
<style type="text/css">
	.st0{fill:#727272;}
</style>
<g>
	<path id="_154525384" class="st0" d="M-222.5,524.1C-222.5,524.1-222.5,524.1-222.5,524.1l-0.1,0.6c0,0,0,0.1,0.1,0.1
		c0,0,0.8,0,0.9,0c0,0.1,0,3.2,0,3.2c0,0,0,0.1,0.1,0.1l0.5,0c0,0,0.1,0,0.1-0.1c0,0,0-3.1,0-3.2c0.1,0,0.9,0,0.9,0
		c0,0,0.1,0,0.1-0.1v-0.5c0,0,0-0.1-0.1-0.1H-222.5L-222.5,524.1z"/>
	<path id="_154525480" class="st0" d="M-216.5,524.1C-216.5,524.1-216.5,524.1-216.5,524.1c-0.1,0-1,2.3-1.1,2.5
		c-0.1-0.2-1.1-2.5-1.1-2.5c0,0,0,0-0.1,0h-0.6c0,0-0.1,0-0.1,0.1v3.8c0,0,0,0.1,0.1,0.1l0.5,0c0,0,0,0,0,0c0,0,0,0,0,0
		c0,0,0-2.2,0-2.6c0.2,0.4,0.9,2.2,0.9,2.2c0,0,0,0,0.1,0l0.4,0c0,0,0,0,0.1,0c0,0,0.8-1.8,0.9-2.2c0,0.5,0,2.6,0,2.6c0,0,0,0,0,0
		c0,0,0,0,0,0l0.5,0c0,0,0.1,0,0.1-0.1v-3.8c0,0,0-0.1-0.1-0.1H-216.5z"/>
	<path id="_154525576" class="st0" d="M-228.8,524.1c-0.3,0-0.6,0.3-0.6,0.6v6h-7.6v-6c0-0.3-0.3-0.6-0.6-0.6h-2.1
		c-0.3,0-0.6,0.3-0.6,0.6v15.5c0,0.3,0.3,0.6,0.6,0.6l2.1,0c0.3,0,0.6-0.3,0.6-0.6v-6.5h7.6v6.5c0,0.3,0.3,0.6,0.6,0.6l2.1,0
		c0.3,0,0.6-0.3,0.6-0.6v-15.5c0-0.3-0.3-0.6-0.6-0.6L-228.8,524.1L-228.8,524.1z M-244.9,517.2c0.4,0,0.7,0.3,0.7,0.6v1.9
		c0,0.3-0.3,0.6-0.7,0.6h-12.9c-0.3,0-0.6-0.3-0.6-0.6v-1.9c0-0.3,0.3-0.6,0.6-0.6L-244.9,517.2z M-328.8,517.2
		c-0.3,0-0.6,0.3-0.6,0.6v16c0,4.3,1.4,7.1,6.7,7.1l0.6,0c7.6,0,8.8-5.1,8.8-7.6c0-2.3-0.8-7.7-8.4-7.7l-4.2,0v-5.2h9.8
		c0.3,0,0.6-0.3,0.6-0.6v-1.9c0-0.3-0.3-0.6-0.6-0.6L-328.8,517.2L-328.8,517.2z M-321.6,528.7c3.1,0,4.8,1.7,4.8,4.6
		c0,2.9-1.7,4.5-4.8,4.5h-1.1c-2.3,0-3.3-1-3.3-3.6v-5.4H-321.6L-321.6,528.7z M-273.5,524.4c-0.2,0.1-0.4,0.3-0.4,0.6v1.9
		c0,0.2,0.1,0.4,0.3,0.5c0.2,0.1,0.3,0.1,0.5,0.1c1.1-0.4,2.5-0.8,4.6-0.8c2.7,0,3.1,0.8,3.1,2.7v0.3l-3.7,0.3
		c-5.9,0.4-6.2,4.3-6.2,5.5c0,3.5,1.9,5.7,6.3,5.7c1.4,0,3-0.4,4.3-1.3l0.3,0.6c0.1,0.2,0.3,0.4,0.6,0.4l1.2,0
		c0.3,0,0.6-0.3,0.6-0.6v-10.9c0-4-2.1-5.9-6.5-5.9C-270.3,523.5-272.2,523.8-273.5,524.4L-273.5,524.4L-273.5,524.4z M-271.7,535.4
		c0-1.2,0.2-2.4,2.7-2.6l3.7-0.3l0,4.5c-1.2,0.7-2.1,1.1-3.6,1.1C-270.3,538-271.7,537.5-271.7,535.4L-271.7,535.4L-271.7,535.4z
		 M-299.2,540.5c0.1,0.2,0.3,0.4,0.6,0.4l1.5,0c0.3,0,0.6-0.3,0.6-0.6v-15.5c0-0.3-0.3-0.6-0.6-0.6h-2c-0.4,0-0.6,0.3-0.6,0.6v10.9
		c-1.1,1.2-3.1,2.2-4.6,2.2c-2.1,0-3.1-1.1-3.1-4.1v-9c0-0.3-0.3-0.6-0.6-0.6h-2c-0.3,0-0.6,0.3-0.6,0.6v10.1c0,3.7,2,6.3,5.9,6.3
		c2.4,0,4.5-1.3,5.5-2.2L-299.2,540.5L-299.2,540.5z M-246.8,540.5c0.1,0.2,0.3,0.4,0.6,0.4l1.5,0c0.3,0,0.6-0.3,0.6-0.6v-15.5
		c0-0.3-0.3-0.6-0.6-0.6h-2c-0.4,0-0.6,0.3-0.6,0.6v10.9c-1.1,1.2-3.1,2.2-4.6,2.2c-2.1,0-3.1-1.1-3.1-4.1v-9c0-0.3-0.3-0.6-0.6-0.6
		h-2c-0.3,0-0.6,0.3-0.6,0.6v10.1c0,3.7,2,6.3,5.9,6.3c2.4,0,4.5-1.3,5.5-2.2L-246.8,540.5L-246.8,540.5z M-291.3,534.9
		c-0.2,2.3-0.8,2.8-2.7,3c-0.3,0-0.6,0.3-0.6,0.7v1.7c0,0.3,0.3,0.6,0.6,0.6c3.7,0,5.6-1.8,6-6.2l0.4-3.9c0.3-2.8,0.8-3.6,3.3-3.6
		h2.8v13c0,0.3,0.3,0.6,0.6,0.6l2,0c0.3,0,0.6-0.3,0.6-0.6v-15.5c0-0.3-0.3-0.6-0.6-0.6h-5.6c-4.6,0-6,2.7-6.4,6.5L-291.3,534.9
		L-291.3,534.9z"/>
	<path id="_154525672" class="st0" d="M-259.8,501.6c-4.5,5-11.1,8.1-18.3,8.1c-7.2,0-13.8-3.1-18.3-8.1l18.5,0.4
		C-271.9,502-265.8,501.7-259.8,501.6L-259.8,501.6z"/>
	<path id="_154525768" class="st0" d="M-254.2,478.5c0.6,2.1,0.8,4.2,0.8,6.4c0,1.9-0.2,3.7-0.6,5.5c-8,0.1-16,0.3-23.9,0.3
		l-24.4-0.3c-0.4-1.8-0.6-3.6-0.6-5.5c0-2.3,0.3-4.5,0.9-6.6c8,0,16.1,0,24.1,0C-270,478.3-262.1,478.4-254.2,478.5L-254.2,478.5z"
		/>
	<path id="_154525864" class="st0" d="M-278.1,460.1c7.1,0,13.5,3,18.1,7.8c-6-0.2-11.9-0.4-17.8-0.4l-18.3,0.4
		C-291.6,463.1-285.2,460.1-278.1,460.1z"/>
</g>
</svg>
