<?xml version="1.0" encoding="utf-8"?>
<!-- Generator: Adobe Illustrator 19.1.0, SVG Export Plug-In . SVG Version: 6.00 Build 0)  -->
<svg version="1.1" id="Слой_1" xmlns="http://www.w3.org/2000/svg" xmlns:xlink="http://www.w3.org/1999/xlink" x="0px" y="0px"
	 viewBox="-386 387.2 226.8 226.8" style="enable-background:new -386 387.2 226.8 226.8;" xml:space="preserve">
<style type="text/css">
	.st0{fill:#727272;}
</style>
<g>
	<path id="_154524520" class="st0" d="M-335.1,505.5c0.2,0.2,0.5,0.3,0.8,0.6c0.3,0.2,0.9,0.6,1.3,0.8l0.4-1
		C-332.6,505.8-335.1,505.5-335.1,505.5z M-328.2,484.6c-2.1,0.2-4,1-5.5,2.2c-2.4,1.9-3.8,5-3.5,8.2c0,0,0,0.1,0,0.2
		c1-5.5,5.6-9.9,11.4-10.3c0.2,0,0.5,0,0.7,0C-326.1,484.6-327.2,484.5-328.2,484.6L-328.2,484.6z M-319.4,485.1
		c-5.8-4.1-13.8-2.7-17.9,3c-1.9,2.7-2.6,5.8-2.3,8.9l24.1,4.4c0,0,0,0,0,0C-312.5,495.9-314.1,488.8-319.4,485.1L-319.4,485.1z
		 M-332,507.3c1.1,0.5,2.3,0.8,3.5,1l0.7-1.8l-3.7-0.5C-331.4,506-332,507.3-332,507.3z M-327.3,508.4c1.4,0.1,2.8-0.2,4.1-0.6
		l0.3-0.7l-3.7-0.5L-327.3,508.4L-327.3,508.4z M-320,506.4c1.4-0.9,3.1-2.7,3.6-3.4c0.5-0.7,0-0.1,0.1-0.1c0,0,0-0.1,0-0.1
		c0.1-0.3,0-0.4-0.3-0.5c-1.1-0.2-2.1-0.4-3.1-0.6l-1.7,4.4L-320,506.4L-320,506.4z M-324.4,500.9l-1.8,4.6l3.7,0.5l1.7-4.5
		C-322,501.4-323.2,501.1-324.4,500.9z M-327.3,505.4l1.8-4.7c-1.2-0.2-2.4-0.4-3.6-0.7l-1.9,4.9L-327.3,505.4L-327.3,505.4z
		 M-332.2,504.8l1.9-4.9c-1.2-0.2-2.4-0.4-3.6-0.7l-2,5.1L-332.2,504.8z M-339.4,498.1c0.2,1,0.5,1.9,0.9,2.8c0.5,0.9,1,1.7,1.5,2.5
		c0,0.1,0.1,0.2,0.2,0.3l0-0.1l1.8-4.7C-336.4,498.7-337.9,498.4-339.4,498.1z M-308.8,501.2c-0.4,0.3-3.5,0.2-5.4-1.5l-0.5,1.2
		c0.8,1.6,2.1,3,3.7,3.1C-309.3,504-308.4,502.6-308.8,501.2L-308.8,501.2z M-308.5,491c-0.2,0.4-2.9,1.9-5.5,1.5l0.2,1.3
		c1.5,0.9,3.3,1.4,4.7,0.7C-307.5,493.7-307.5,492-308.5,491z M-313.5,482.2c0,0.5-1.5,3.2-3.9,4.1l0.8,1c1.8,0,3.6-0.5,4.4-1.8
		C-311.3,484-312.1,482.5-313.5,482.2z M-322.4,477.2c0.3,0.4,0.4,3.4-1.2,5.5l1.2,0.4c1.5-0.9,2.8-2.3,2.8-3.9
		C-319.6,477.6-321.1,476.8-322.4,477.2z M-332.6,477.6c0.4,0.2,2.1,2.7,1.9,5.3l1.2-0.3c0.8-1.6,1.2-3.4,0.4-4.8
		C-330,476.4-331.7,476.5-332.6,477.6z M-341.1,483.2c0.5-0.1,3.2,1.3,4.4,3.6l0.9-0.9c-0.1-1.8-0.7-3.5-2.1-4.3
		C-339.4,480.8-340.9,481.8-341.1,483.2L-341.1,483.2z M-345.4,492.4c0.4-0.3,3.4-0.6,5.6,0.8l0.3-1.2c-1-1.5-2.5-2.7-4-2.5
		C-345.3,489.5-346,491.1-345.4,492.4z"/>
	<path id="_154524616" class="st0" d="M-274,480h5.8l-6.6,8.2h-2.4L-274,480L-274,480z M-214.1,498.9l11-12.9h7.8l-4.6,24.4h-7.9
		l2.3-12.7l-11,12.7h-7.8l4.6-24.4h7.9L-214.1,498.9L-214.1,498.9z M-207.2,480h5.8l-6.6,8.2h-2.4L-207.2,480z M-243.6,486h8.4h11.4
		l-1,5.6h-11.4l-0.7,3.5h10.9l-1,5.6H-238l-0.7,3.8h11.4l-1.1,5.9h-19.7v0l1.1-5.9l0.7-3.8l1-5.6l0.6-3.5L-243.6,486L-243.6,486z
		 M-270.2,486h8.3l-1.7,9.3l9-9.3h8.9l-10.2,10.6l6.5,13.8h-10.1l-4.9-11.5l-2.1,11.5h-8.3L-270.2,486L-270.2,486z M-289.4,491.2
		c-1.7-0.1-3.1,0.6-4.3,2c-1,1.2-1.7,2.7-2,4.5c-0.4,1.9-0.4,3.5,0,4.7c0.5,1.6,1.7,2.4,3.5,2.5c1.5,0.1,2.9-0.5,4.1-1.8
		c1.2-1.3,2-2.9,2.4-5c0.4-1.9,0.3-3.4-0.2-4.7C-286.5,492-287.7,491.3-289.4,491.2L-289.4,491.2z M-288,485.2
		c4.3,0.2,7.3,1.7,9.2,4.4c1.7,2.4,2.1,5.4,1.4,8.9c-0.9,4-2.8,7.1-5.9,9.4c-2.9,2.1-6.3,3.1-10.2,2.9c-7.9-0.4-12.1-5.8-10.4-13.7
		c0.8-3.8,2.7-6.8,5.6-9C-295.4,486-292,485.1-288,485.2L-288,485.2z"/>
	<path id="_154524712" class="st0" d="M-319.5,518.7c-1,0-1.8,0.8-1.8,1.8c0,1,0.9,1.8,1.9,1.8c1,0,1.8-0.8,1.8-1.8
		C-317.6,519.5-318.5,518.7-319.5,518.7L-319.5,518.7z"/>
	<path id="_154524808" class="st0" d="M-335.2,518.6c-1,0-1.8,0.8-1.8,1.8c0,1,0.9,1.8,1.9,1.8c1,0,1.8-0.8,1.8-1.8
		C-333.3,519.5-334.2,518.6-335.2,518.6z"/>
	<path id="_154524904" class="st0" d="M-321.6,514.3l-11.8,0l-12.5-20.7l-2.7-1c-1.2-0.4-2.1,1.3-0.6,1.9l2.1,0.7l12,20.2l-0.8,2.4
		h1.9l0.6-1.6l11.7,0l0.9,1.6h1.9l-1.2-2.6C-320.3,514.7-320.9,514.3-321.6,514.3L-321.6,514.3z"/>
	<path id="_154525000" class="st0" d="M-315.4,501.4L-315.4,501.4c-0.3,0.4-0.5,0.8-0.8,1.2c0,0,0,0.1,0,0.2l0,0l0,0
		c0,0,0.4-0.6,0,0l-1.5,3.7l-3.6-0.5l1.5,0.2l0,0l0,0c-0.5,0.3-1.1,0.6-1.6,0.9l-0.2,0l-1.8,4.6c1,0,2,0,3.1,0
		c0.4,0,0.7-0.2,0.8-0.5c0.6-1.5,1-2.6,1.5-3.6l-3.6-0.5l0,0.1c-0.4,0.2-0.9,0.4-1.4,0.5l0.3-0.8l-1.8,4.8c-1.3,0-2.6,0-3.9,0
		l1.3-3.5c-0.4,0-0.8,0-1.1-0.1l-1.4,3.6h-2c-0.4-0.6-0.8-1.3-1.1-1.9l1-2.7c-0.3-0.1-0.7-0.3-1-0.5l0.4-1l-1.2,3
		c-0.7-1.1-1.4-2.2-2.1-3.4l0.9,0.1c-0.7-0.6-1.3-1.2-1.9-1.9l0,0.1l-0.3-0.5c-0.5-0.7-0.9-1.4-1.3-2.2l-0.1-0.1l0,0l0,0l-1.8-3
		l0.9,0.2c-0.1-0.4-0.1-0.8-0.2-1.1l-1.3-0.2c-0.7-0.1-1.1,0.5-0.7,1.2l0.2,0.3l8.9,14.7l12.1,0c0.7,0,1.1-0.3,1.4-0.9l4-9.6
		C-314.7,501.9-314.9,501.6-315.4,501.4L-315.4,501.4C-315.4,501.4-315.4,501.4-315.4,501.4L-315.4,501.4z"/>
	<path id="_154525096" class="st0" d="M-302.6,522.2c-0.3,0.1-0.6,0.2-1,0.2c-0.3,0-0.6,0.1-0.9,0.1c-1,0-1.8-0.3-2.2-0.8
		c-0.4-0.5-0.6-1.1-0.4-1.9c0.1-0.7,0.4-1.3,0.9-1.7c0.7-0.6,1.5-0.9,2.7-0.9c0.4,0,0.8,0,1.1,0.1c0.2,0,0.4,0.1,0.7,0.2l-0.3,1.5
		c-0.2-0.1-0.4-0.1-0.5-0.2c-0.2,0-0.3-0.1-0.5-0.1c-0.4,0-0.7,0.1-1,0.3c-0.3,0.2-0.4,0.5-0.5,0.9c-0.1,0.4,0,0.6,0.2,0.9
		c0.2,0.2,0.5,0.3,0.9,0.3c0.2,0,0.3,0,0.5,0c0.2,0,0.4-0.1,0.7-0.2L-302.6,522.2L-302.6,522.2z M-296,520.4h-3.4
		c0,0.2,0,0.4,0.1,0.5c0.2,0.2,0.5,0.3,1,0.3c0.3,0,0.6,0,0.9-0.1c0.3-0.1,0.6-0.1,1-0.3l-0.2,1.3c-0.4,0.1-0.8,0.2-1.2,0.2
		c-0.4,0-0.8,0.1-1.2,0.1c-1.2,0-2-0.3-2.4-1c-0.3-0.5-0.4-1.1-0.3-1.8c0.1-0.8,0.5-1.4,1.2-1.9c0.6-0.5,1.4-0.7,2.3-0.7
		c0.8,0,1.4,0.2,1.8,0.5c0.6,0.5,0.8,1.2,0.6,2.3L-296,520.4L-296,520.4z M-297.9,519.3L-297.9,519.3c0.1-0.4,0-0.7-0.1-0.8
		c-0.1-0.1-0.2-0.2-0.4-0.2c-0.1,0-0.3,0-0.4,0.1c-0.2,0.1-0.3,0.4-0.4,0.8l0,0.1C-299.2,519.3-297.9,519.3-297.9,519.3z
		 M-290.2,518.7h-1.4l-0.7,3.7h-2.5l0.7-3.7h-1.4l0.3-1.5h5.2L-290.2,518.7z M-284.2,520.6c-0.1,0.5-0.3,0.9-0.6,1.2
		c-0.5,0.4-1.1,0.6-2,0.6h-3.5l0.9-5.1h2.5l-0.3,1.6c0.3,0,0.6,0,0.8,0c0.8,0,1.4,0.2,1.7,0.5C-284.2,519.6-284.1,520-284.2,520.6z
		 M-286.6,520.5c0-0.1,0-0.3,0-0.3c-0.1-0.1-0.3-0.2-0.5-0.2h-0.2l-0.2,1.2h0.2c0.3,0,0.5-0.1,0.6-0.2
		C-286.7,520.8-286.7,520.7-286.6,520.5z M-276.6,518.7h-1.8l-0.7,3.7h-2.5l0.9-5.1h4.3L-276.6,518.7L-276.6,518.7z M-270.6,522.3
		h-2.2l0.4-2.4h0l-1.6,2.4h-2.4l0.9-5.1h2.2l-0.4,2.4h0l1.6-2.4h2.4L-270.6,522.3L-270.6,522.3z M-263.8,522.3h-2.5l0.7-3.7h-0.9
		l-0.7,3.7h-2.5l0.9-5.1h5.8L-263.8,522.3L-263.8,522.3z M-257,520.4h-3.4c0,0.2,0,0.4,0.1,0.5c0.2,0.2,0.5,0.3,1,0.3
		c0.3,0,0.6,0,0.9-0.1c0.3-0.1,0.6-0.1,1-0.3l-0.2,1.3c-0.4,0.1-0.8,0.2-1.2,0.2c-0.4,0-0.8,0.1-1.2,0.1c-1.2,0-2-0.3-2.4-1
		c-0.3-0.5-0.4-1.1-0.3-1.8c0.1-0.8,0.5-1.4,1.2-1.9c0.6-0.5,1.4-0.7,2.3-0.7c0.8,0,1.4,0.2,1.8,0.5c0.6,0.5,0.8,1.2,0.6,2.3
		L-257,520.4L-257,520.4z M-258.9,519.3L-258.9,519.3c0.1-0.4,0-0.7-0.1-0.8c-0.1-0.1-0.2-0.2-0.4-0.2c-0.1,0-0.3,0-0.4,0.1
		c-0.2,0.1-0.3,0.4-0.4,0.8l0,0.1H-258.9L-258.9,519.3z M-250,519.8c-0.2,0.9-0.5,1.5-1.1,2c-0.5,0.4-1,0.6-1.6,0.6
		c-0.7,0-1.2-0.3-1.4-0.8l-0.5,2.8h-2.5l1.3-7.3h2.3l-0.2,0.9h0c0.4-0.7,1-1,1.8-1c0.6,0,1.1,0.2,1.4,0.5
		C-249.9,518.1-249.8,518.8-250,519.8L-250,519.8z M-252.6,519.8c0.1-0.3,0.1-0.5,0-0.7c0-0.3-0.2-0.4-0.4-0.4
		c-0.2,0-0.4,0.1-0.6,0.4c-0.1,0.2-0.2,0.4-0.2,0.7c-0.1,0.3-0.1,0.5,0,0.7c0,0.3,0.2,0.4,0.4,0.4c0.2,0,0.4-0.1,0.6-0.4
		C-252.7,520.4-252.7,520.1-252.6,519.8L-252.6,519.8z M-242.5,522.3h-2l0.6-3.2h-0.1l-1.5,3.2h-1.3l-0.3-3.2h-0.1l-0.6,3.2h-2
		l0.9-5.1h2.9l0.2,2.2h0.1l1-2.2h2.9L-242.5,522.3L-242.5,522.3z M-236.1,522.3h-2.2l0.1-0.6h0c-0.3,0.3-0.6,0.5-1,0.6
		c-0.3,0.1-0.6,0.1-0.9,0.1c-0.6,0-1-0.1-1.3-0.5c-0.2-0.3-0.3-0.6-0.2-1.1c0.1-0.5,0.4-1,0.8-1.2c0.3-0.2,0.8-0.4,1.4-0.5
		c0.3,0,0.8-0.1,1.4-0.1h0.3l0-0.2c0-0.2-0.1-0.4-0.3-0.5c-0.2-0.1-0.4-0.1-0.8-0.1c-0.2,0-0.4,0-0.6,0c-0.4,0.1-0.9,0.2-1.3,0.4
		l0.2-1.3c0.4-0.1,0.8-0.2,1.2-0.2c0.4-0.1,0.8-0.1,1.2-0.1c0.8,0,1.4,0.1,1.8,0.4c0.5,0.3,0.7,0.9,0.6,1.6L-236.1,522.3
		L-236.1,522.3z M-238,520.4l0.1-0.3h-0.1c-0.4,0-0.7,0-0.9,0.1c-0.2,0.1-0.3,0.3-0.3,0.5c0,0.1,0,0.3,0.1,0.4
		c0.1,0.1,0.2,0.1,0.4,0.1c0.2,0,0.4-0.1,0.5-0.2C-238.1,520.9-238,520.6-238,520.4L-238,520.4z M-228.5,519.8
		c-0.2,0.9-0.5,1.5-1.1,2c-0.5,0.4-1,0.6-1.6,0.6c-0.7,0-1.2-0.3-1.4-0.8l-0.5,2.8h-2.5l1.3-7.3h2.3l-0.2,0.9h0c0.4-0.7,1-1,1.8-1
		c0.6,0,1.1,0.2,1.4,0.5C-228.5,518.1-228.3,518.8-228.5,519.8L-228.5,519.8z M-231.1,519.8c0-0.3,0.1-0.5,0-0.7
		c0-0.3-0.2-0.4-0.4-0.4c-0.2,0-0.4,0.1-0.6,0.4c-0.1,0.2-0.2,0.4-0.2,0.7c-0.1,0.3-0.1,0.5,0,0.7c0,0.3,0.2,0.4,0.4,0.4
		c0.2,0,0.4-0.1,0.6-0.4C-231.3,520.4-231.2,520.1-231.1,519.8L-231.1,519.8z M-221.7,522.3h-2.7l-1-2.3h0l-0.4,2.3h-2.4l0.9-5.1
		h2.4l-0.4,2.2h0l1.8-2.2h2.7l-2.2,2.5L-221.7,522.3L-221.7,522.3z M-215.2,520.4h-3.4c0,0.2,0,0.4,0.1,0.5c0.2,0.2,0.5,0.3,1,0.3
		c0.3,0,0.6,0,0.9-0.1c0.3-0.1,0.6-0.1,1-0.3l-0.2,1.3c-0.4,0.1-0.8,0.2-1.2,0.2c-0.4,0-0.8,0.1-1.2,0.1c-1.2,0-2-0.3-2.4-1
		c-0.3-0.5-0.4-1.1-0.3-1.8c0.1-0.8,0.5-1.4,1.2-1.9c0.6-0.5,1.4-0.7,2.3-0.7c0.8,0,1.4,0.2,1.8,0.5c0.6,0.5,0.8,1.2,0.6,2.3
		L-215.2,520.4L-215.2,520.4z M-217.2,519.3L-217.2,519.3c0.1-0.4,0-0.7-0.1-0.8c-0.1-0.1-0.2-0.2-0.4-0.2c-0.1,0-0.3,0-0.4,0.1
		c-0.2,0.1-0.3,0.4-0.4,0.8l0,0.1H-217.2z M-209.5,518.7h-1.4l-0.7,3.7h-2.5l0.7-3.7h-1.4l0.3-1.5h5.2L-209.5,518.7z M-203,519.8
		c-0.2,0.8-0.6,1.5-1.2,2c-0.7,0.5-1.5,0.7-2.5,0.7c-1,0-1.7-0.2-2.2-0.7c-0.5-0.5-0.6-1.1-0.5-2c0.1-0.8,0.6-1.5,1.2-2
		c0.7-0.5,1.5-0.7,2.4-0.7c1,0,1.7,0.2,2.2,0.7C-203,518.3-202.9,518.9-203,519.8L-203,519.8z M-205.7,519.8
		c0.1-0.4,0.1-0.6,0.1-0.8c0-0.3-0.2-0.4-0.4-0.4c-0.2,0-0.4,0.1-0.5,0.4c-0.1,0.2-0.1,0.4-0.2,0.8c-0.1,0.4-0.1,0.6-0.1,0.8
		c0,0.3,0.2,0.4,0.4,0.4c0.2,0,0.4-0.1,0.5-0.4C-205.8,520.4-205.7,520.1-205.7,519.8L-205.7,519.8z M-196.9,520.9
		c-0.1,0.4-0.3,0.8-0.7,1c-0.4,0.3-0.8,0.4-1.4,0.4h-3.8l0.9-5.1h3.8c0.5,0,0.8,0.1,1,0.3c0.3,0.2,0.4,0.5,0.3,0.9
		c-0.1,0.4-0.2,0.7-0.5,0.9c-0.2,0.1-0.4,0.2-0.6,0.3c0.3,0.1,0.5,0.2,0.7,0.3C-197,520.2-196.9,520.5-196.9,520.9L-196.9,520.9z
		 M-199,518.7c0-0.2,0-0.3-0.1-0.3c-0.1-0.1-0.3-0.1-0.5-0.1h-0.3l-0.2,0.9h0.3c0.2,0,0.3,0,0.4-0.1
		C-199.1,519.1-199,518.9-199,518.7L-199,518.7z M-199.2,520.7c0-0.2,0-0.4-0.2-0.4c-0.1-0.1-0.3-0.1-0.4-0.1h-0.4l-0.2,1h0.4
		c0.2,0,0.3,0,0.5-0.1C-199.4,521.1-199.3,520.9-199.2,520.7L-199.2,520.7z"/>
	<path id="_154525192" class="st0" d="M-315.4,501.4L-315.4,501.4C-315.4,501.4-315.4,501.4-315.4,501.4L-315.4,501.4L-315.4,501.4z
		 M-321.4,506.2l1.5,0.2l0,0L-321.4,506.2z M-316.3,502.9L-316.3,502.9L-316.3,502.9C-316.3,502.9-315.9,502.3-316.3,502.9z
		 M-336.8,503.7l1.8-4.8L-336.8,503.7L-336.8,503.7L-336.8,503.7z M-338.5,501l0.4,0.7L-338.5,501L-338.5,501L-338.5,501z
		 M-324.4,500.9l-1.8,4.6l3.7,0.5l1.7-4.5C-322,501.4-323.2,501.1-324.4,500.9z M-327.3,505.4l1.8-4.7c-1.2-0.2-2.4-0.4-3.6-0.7
		l-1.9,4.9L-327.3,505.4L-327.3,505.4z M-332.2,504.8l1.9-4.9c-1.2-0.2-2.4-0.4-3.6-0.7l-2,5.1L-332.2,504.8z"/>
</g>
</svg>
