<?xml version="1.0" encoding="utf-8"?>
<!-- Generator: Adobe Illustrator 19.1.0, SVG Export Plug-In . SVG Version: 6.00 Build 0)  -->
<svg version="1.1" id="Слой_1" xmlns="http://www.w3.org/2000/svg" xmlns:xlink="http://www.w3.org/1999/xlink" x="0px" y="0px"
	 viewBox="-386 387.2 226.8 226.8" style="enable-background:new -386 387.2 226.8 226.8;" xml:space="preserve">
<style type="text/css">
	.st0{fill:#727272;}
</style>
<g>
	<path id="_154533544" class="st0" d="M-309.1,509.1h-0.9v-8.1h0.9c3.6,0,5.5,1,5.5,4C-303.6,508.6-306.3,509.1-309.1,509.1z
		 M-310,498.4v-6h8.3v-2.7h-13.9l1.4,2.4v19.6h6.2c3.3,0,8.5-1.3,8.5-6.6C-299.5,498.2-305.6,498.4-310,498.4L-310,498.4z"/>
	<path id="_154533640" class="st0" d="M-248.1,509.1h-0.9v-8.1h0.9c3.6,0,5.5,1,5.5,4C-242.6,508.6-245.3,509.1-248.1,509.1z
		 M-248.9,498.4v-6h8.3v-2.7h-13.9l1.4,2.4v19.6h6.2c3.3,0,8.5-1.3,8.5-6.6C-238.5,498.2-244.5,498.4-248.9,498.4L-248.9,498.4z"/>
	<polygon id="_154533736" class="st0" points="-330.5,517.2 -320.9,500.6 -330.5,484 -334,484 -324.4,500.6 -334,517.2 	"/>
	<polygon id="_154533832" class="st0" points="-262,489.8 -262,498.4 -269.9,498.4 -269.9,489.8 -275.5,489.8 -274.1,492.2 
		-274.1,511.8 -269.9,511.8 -269.9,501.1 -262,501.1 -262,511.8 -257.8,511.8 -257.8,489.8 	"/>
	<polygon id="_154533928" class="st0" points="-203.7,489.8 -203.7,498.4 -211.6,498.4 -211.6,489.8 -217.2,489.8 -215.8,492.2 
		-215.8,511.8 -211.6,511.8 -211.6,501.1 -203.7,501.1 -203.7,511.8 -199.5,511.8 -199.5,489.8 	"/>
	<polygon id="_154534024" class="st0" points="-187.1,499.9 -179,489.8 -183.4,489.8 -190.6,498.6 -190.6,489.8 -196.2,489.8 
		-194.8,492.2 -194.8,511.8 -190.6,511.8 -190.6,500.9 -183.3,511.8 -178.9,511.8 	"/>
	<polygon id="_154534120" class="st0" points="-284.1,489.8 -292.7,506.1 -292.7,489.8 -298,489.8 -296.6,492.2 -296.6,511.8 
		-292,511.8 -283,494.7 -283,511.8 -278.9,511.8 -278.9,489.8 	"/>
	<path id="_154534216" class="st0" d="M-327.9,500.6l-9.6-16.6c0,0-19.2,0-19.2,0c7.1,1.4,12.4,7.7,12.4,15.1c0,0.5,0,1-0.1,1.5
		c4.4,2.7,7.4,7.5,7.4,13c0,1.2-0.1,2.4-0.4,3.5L-327.9,500.6L-327.9,500.6z"/>
	<path id="_154534312" class="st0" d="M-337.5,517.2c-1.3-9.4-9.3-16.6-19-16.6c3.7,0,6-2.6,6-6.1c0-1.9-2-7.6-6.3-10.6l-9.6,16.6
		l9.6,16.6L-337.5,517.2L-337.5,517.2z"/>
	<path id="_154534408" class="st0" d="M-231.1,503.7c1.5-4.9,3-10.2,3-10.2h0.1c0,0,1.6,5.3,3,10.2H-231.1z M-222.5,511.8l4.2,0
		l-6.9-22h-5.4h-2.1l1.4,2.4l-6.2,19.6l4.2,0c0,0,0.7-2.4,1.6-5.5h7.7C-223.3,509.3-222.5,511.8-222.5,511.8z"/>
</g>
</svg>
