<?xml version="1.0" encoding="utf-8"?>
<!-- Generator: Adobe Illustrator 19.1.0, SVG Export Plug-In . SVG Version: 6.00 Build 0)  -->
<svg version="1.1" id="Слой_1" xmlns="http://www.w3.org/2000/svg" xmlns:xlink="http://www.w3.org/1999/xlink" x="0px" y="0px"
	 viewBox="-386 387.2 226.8 226.8" style="enable-background:new -386 387.2 226.8 226.8;" xml:space="preserve">
<style type="text/css">
	.st0{fill:#727272;}
	.st1{fill:#FFFFFF;}
</style>
<path id="_154532968" class="st0" d="M-292.3,483.1c1.6,0,3-1.3,3-3c0-1.8-1.6-3.1-3-3.1c-1.6,0-3,1.3-3,3
	C-295.3,481.8-293.9,483.1-292.3,483.1L-292.3,483.1z M-294.7,480c0-1.4,1.1-2.4,2.4-2.4c1.3,0,2.4,1,2.4,2.4c0,1.5-1.1,2.5-2.4,2.5
	C-293.6,482.5-294.7,481.5-294.7,480L-294.7,480z M-292.8,480.2h0.5l0.9,1.6h0.5l-1-1.6c0.5-0.1,0.9-0.3,0.9-1c0-0.7-0.4-1-1.2-1
	l-1.1,0l-0.1,3.6h0.6C-292.8,481.8-292.8,480.2-292.8,480.2z M-292.8,479.8v-1.1h0.5c0.4,0,0.8,0.2,0.8,0.6c0,0.5-0.3,0.5-0.8,0.5
	H-292.8z"/>
<path id="_154533064" class="st0" d="M-332.5,514.3c-2.9-3.3-0.7-9.2-0.2-14.2c-0.5,0.5-7.1,16.1-13.1,15.5c-5.3-1.5-4.6-7.6-3-12.2
	h8.3c-2.4,7.4,1.1,4.3,3.6-0.4c4.9-10.3,5-11.2,10.6-26.7c3.1,0,6.3,0,9.5,0c-2.8,8.9-5.5,17.5-6.7,26.6c0,0.4,0.1,0.8,0.4,0.6
	c2.1-0.4,12.9-25.4,13.9-27.2c2.9,0,6.1,0,9.1,0c-0.1,0.9-10,29.2-8.4,31.8c0.8,1.5,1.9-1.3,3-2.5l1.5,1.6c-3,3.3-6.5,9.3-11.4,8.4
	c-0.7-0.3-1.3-0.7-1.9-1.1c-4.9-4.4,4.4-20.8,3.2-22.1c-0.2-0.1-1,1.8-1.1,2.1c-2.9,5.9-9.3,21.4-14.5,21.4
	C-330.5,515.7-332,514.8-332.5,514.3L-332.5,514.3L-332.5,514.3z"/>
<path class="st0" d="M-262.5,514.9c-1-0.3-1.5-0.8-1.8-1.9c-0.1-0.2-0.1-0.3-0.1-0.5c0-0.5,0.1-1,0.2-1.6c0.1-0.4,0.3-1,0.3-1.5
	c0.1,0,0.1-0.1,0.1-0.2c0,0-0.1,0.1-0.2,0.2c-0.3,0-0.8,0.7-1.1,1c-0.5,0.4-1,0.9-1.4,1.1c-0.9,0.7-1.7,1.4-2.9,2
	c0,0-0.3,0.3-0.7,0.6c-0.5,0.3-1,0.5-1.4,0.6c-0.6,0.3-1.2,0.3-1.6,0.2c-1-0.3-1.8-1-2.3-2c-0.1-0.7,0-1.6,0.3-2.4
	c0.3-1.5,1-2.5,1.4-3.8c0.2-0.7,0.4-1.3,0.8-2.2c0.3-0.9,0.6-1.8,1-2.7c0.1-0.7,0.4-1.5,0.5-2c0.1-0.1,0-0.2,0.1-0.3
	c-0.1-0.2-0.1-0.2-0.3-0.2c-0.5,0.3-1,0.6-1.4,0.9c-0.6,0.3-1.1,0.7-1.7,0.9c-0.2,0.1-0.1-0.3-0.1-0.5c0-0.5,0.1-1,0-1.7
	c0,0,0.1,0,0.1-0.1c0-0.2,0.2-0.3,0.3-0.3c2.3-1.4,4.5-3.1,6.8-4.4c0.2,0,0.4-0.2,0.9-0.4c0.5-0.3,1.7-0.2,2.2,0
	c0.5,0.2,0.9,0.6,1,1c0.2,1-1,2.9-1.3,4.1c0.1,0.1-0.2,0.6-0.2,0.6c-0.3,1-0.5,1.7-1,3c-0.4,1.4-1,2.9-1.5,4.3
	c-0.2,0.5-0.6,1.9-0.7,2.4c-0.2,0.3,0,0.3,0.2,0.4c0.1,0.2,0.5-0.1,0.8-0.2c0.5-0.3,1.4-1.2,1.9-1.7c0.2-0.1,0.4-0.3,0.6-0.5
	c0.7-1,1.4-1.7,2.3-3c0.1-0.5,0.2-0.6,0.6-1.5c0.1-0.3,0.7-1.4,1-2c0.2-0.3,0.3-1,0.3-1c0.3-0.4,0.4-1,0.7-1.8
	c0.1-0.5,0.1-0.7,0.5-1.8c0.1-0.5,0.2-0.8,0.3-1.2c0-0.1,0.2-0.2,0.2-0.3l0.2-0.1c1.8,0.1,3.6,0.1,5.5,0.3l0.2,0.1c0,0,0,0.1,0,0.2
	c-0.1,0.2-0.1,0.3-0.2,0.6c-0.3,0.6-0.5,1.5-0.8,2.3c-0.5,2.2-2.6,8.5-3.6,11.6c-0.1,0.2,0,0.3-0.1,0.4c-0.1,0.3-0.3,0.4-0.2,0.7
	c0.2,0,0.3,0,0.3,0l0.2-0.2c0.3-0.1,0.6-0.3,1-0.6c0.2-0.1,0.3-0.2,0.4-0.4c0.1,0,0.2,0,0.3,0l0.2,0c0.1,0,0.3,1,0.4,1.2
	c0,0.3,0,0.3,0.1,0.5c0,0.3,0,0.3-0.1,0.4l-0.2,0.1c-0.7,0.4-1.4,1-2,1.4c-0.7,0.3-0.7,0.4-1.5,0.9c-0.5,0.3-1,0.7-1.6,0.9
	c-0.4,0.2-0.7,0.2-1,0.2C-262,515-262.1,514.9-262.5,514.9L-262.5,514.9z"/>
<path class="st0" d="M-246.9,524.8L-246.9,524.8c0-0.7,0.1-1.2,0.3-1.9c1-3.3,1.9-6.5,3.1-9.6c0.3-0.6,0.3-0.6,0.3-1h-0.3
	c-0.3,0.3-0.9,0.7-1.3,1.1c-1.3,1-3.2,2-5.3,1c-0.4-0.2-0.6-0.3-1.1-0.7c-0.4-0.4-0.8-1-1.1-1.6c-0.3-0.6-0.6-1.9-0.8-2.8
	c0.1-1.6,0.2-3.5,0.7-5.4c0.3-1.3,1.3-3.5,2.3-5c0.9-1.4,1.8-2.3,3.3-3.2c0.3-0.3,1.9-1.2,2.4-1.4c0.6-0.1,1.1-0.3,1.7-0.4
	c1-0.1,2.1-0.3,3.2,0.4c0.8,0.8,0.7,1.3,1.1,1.4c0.2-0.1,0.2-0.2,0.2-0.3c0.3-0.4,0.3-1.1,0.6-1.4c0.3-0.2,3.5-0.1,5.1,0
	c0.3,0,0.6,0.3,0.4,0.6l-2.5,7.8l-0.3,1.2c-1,3-1.8,6.2-3,9.2l-1.8,6.3c-0.3,0.9-1.6,5.4-2,6.1
	C-241.4,525.1-245.5,525.1-246.9,524.8L-246.9,524.8L-246.9,524.8z"/>
<path class="st1" d="M-245.5,503c0.3-0.7,0.7-1.4,1-2c0.3-0.6,0.7-1.2,1.1-1.8c0.8-0.5,1.5-1,2.3-0.9c1,0.4,0.7,2.2,0.3,3.8
	c-0.5,1.8-1.1,4.2-2.5,6c-1,1.2-1.6,1.5-2.2,1.6c-1.4-0.2-1.3-2.1-1.2-3c0,0,0.1-0.2,0.1-0.4C-246.3,505.3-245.9,504-245.5,503
	L-245.5,503L-245.5,503z"/>
<path class="st0" d="M-231.6,513.1c-0.3,0-1.4,0.7-1.9,1.1c-0.2,0-0.3,0.2-0.4,0.2c-0.7-0.2-0.9-1.2-1.1-1.7c0-0.3-0.1-0.4-0.1-0.9
	c0.4-0.7,2.7-0.3,1.9-2.1c-0.2-2.5,0.3-5.3,1.3-7.6c0.7-1.3,2.1-3.4,2.2-3.4c0.4-0.7,1.1-1.2,1.7-1.8c0.3-0.3,0.6-0.5,1-0.7
	c1-0.8,3.2-2.1,4.6-2.4c1.8-0.3,3.4-0.6,5-0.2c1,0.3,2.4,1.4,2.6,2.3c0.2,0.8,0,1.5-0.3,2.6c-0.8,2.3-0.7,2.2-1.3,3.1
	c-0.7,1-1,1.4-2.4,2.8c-0.5,0.4-0.9,0.8-1.5,1.3c-1.6,1.6-2.6,1.8-4.3,3c-0.1,0-1,0.5-1.2,0.5c-1.1,0.6-0.2,1,0.4,1.2
	c1.9,0.5,4.6-1.3,5.9-2.5c0.1-0.1,0.9-0.9,1-0.9c0.4,0.6,1.1,1.5,1.3,2.1l-0.2,0.3c-1.6,1.8-4.4,3.8-5.6,4.3c-1.6,0.9-4.3,1-5.8,0.9
	C-229.7,514.5-230.7,513.7-231.6,513.1L-231.6,513.1L-231.6,513.1z"/>
<path class="st1" d="M-226.4,507.1c-0.2,0-0.2-0.1-0.2-0.2c0.2-2.4,1.1-4.7,2.5-6.6c0.6-1,1.8-2.7,3.1-3.1c0.6-0.3,1.1-0.3,1.6-0.1
	c0.5,0.2,0.3,1.6-0.3,2.7c-1.4,2.2-3.2,4.1-3.9,4.9C-224.4,505.6-225.6,506.6-226.4,507.1L-226.4,507.1L-226.4,507.1z"/>
<path class="st0" d="M-288.4,514.6c-0.8-0.3-1.5-0.8-2.3-1.3c-0.8-0.6-1.2-1.3-1.7-2.2c-0.1-0.2-0.2-0.5-0.4-0.9
	c-0.2-0.5-0.3-1.2-0.4-1.8c-0.1-0.9-0.1-1.1-0.2-1.7c0-0.2,0-0.3,0-0.5l-0.2-0.1c-0.4,0-0.7,0.2-1.1,0.3c-0.7,0.3-1.6,0.6-2.2,0.7
	c-0.2,0.1-0.9,0.2-1,0.3l-0.1-0.2c0-0.5,0.2-0.6,0.3-0.9l0.5-1.5c0.3-0.5,0.3-0.7,0.6-1.2c0.3-0.2,0.4-0.2,1.5-0.3
	c0.6-0.1,1.5-0.2,2.2-0.3c0.1-0.1,0.2-0.6,0.2-0.7v-0.1c0-0.3,0.1-0.4,0.1-0.6c0.2-0.5,0.4-1.1,0.4-1.6c0.3-0.3,0.4-0.9,0.6-1.2
	c0.2-0.3,0.3-0.7,0.5-1c0.4-0.9,0.9-1.8,1.4-2.7c0.3-0.4,0.5-0.9,1-1.6c0.5-0.6,1-1.4,1.3-1.7c0.3-0.1,0.3-0.2,0.3-0.3
	c0.3-0.3,0.6-0.8,1-1.1c0.8-0.9,1.5-1.7,2.5-2.7c0.3-0.4,0.4-0.4,0.6-0.4c0.3-0.4,0.6-0.6,1.2-1c0.4-0.3,1-0.8,1.6-1.1
	c1.6-1.3,4.3-2.7,6.2-3.2c0.2-0.1,1.5-0.4,2.2-0.4c0.4,0,2.3-0.2,3-0.1c0.3,0.1,0.6,0.1,1,0.3c0.2,0.2,0.2,0.3,0.4,0.4
	c0.1,0.3,0,0.7,0,1c-0.1,0.4-0.3,1-0.4,1.4c-0.2,0.5-1,2.2-1.4,2.7c-0.1,0.2-0.3,0.6-0.5,0.9c-0.8,1-1.3,1.9-2.1,2.8
	c-0.4,0.5-1.2,1.5-1.3,1.6c-0.8,0.9-1.7,1.7-2.3,2.4c-0.5,0.7-1,1.1-1.7,1.7c-0.9,0.7-1.2,1-2,1.6c-0.7,0.6-0.9,0.6-1.3,1
	c-0.1,0-0.6,0.6-0.9,0.7c-0.8,0.5-1.5,1-2.4,1.6c-0.4,0.3-1,0.4-1.3,0.8c-0.3,0.3-0.5,0.3-1.1,0.4c0,0.1-0.1,0.3-0.2,0.4
	c-0.1,0.3-0.1,0.3-0.3,0.8c-0.3,0.9-0.2,0.9-0.3,1.4c0.1,0.8,0,1.3,0.2,2.1c0,0.1,0.1,0.9,0.2,0.9v0.1c0.1,0.6,0.2,1.1,0.9,1.4
	c0.1,0,0.1,0,0.3,0h0.2c1.1-0.8,1.2-1.5,1.6-2.7c0.1-1.3,0.3-3-0.1-4.3c0-0.1-0.1-0.4-0.1-0.5v-0.1c0-0.1,0.3-0.3,0.7-0.4
	c0.3-0.1,0.6-0.3,1-0.4c1-0.4,2.3-1.3,3.1-1.6c0.1,0,0.1-0.1,0.3-0.1l0.1,0.1c0.1,0.3,0.2,0.4,0.3,0.8c0.1,0.4,0.1,0.8,0.2,1
	c0.2,1,0.1,2.2,0.1,3.1c-0.1,1.1-0.4,2.4-0.7,3.5c-0.4,1.3-1.1,2.7-2,3.8c-0.6,1-1.1,1.5-1.8,1.9c-0.3,0.3-0.7,0.4-0.9,0.5
	c-0.4,0.3-0.8,0.3-1,0.4c-0.5,0-1.1,0.2-1.6,0.2C-287,514.8-287.7,514.8-288.4,514.6L-288.4,514.6L-288.4,514.6z"/>
<path class="st1" d="M-284.5,498.7v-0.3c0.2-0.7,0.6-1.4,1-2c1.2-1.6,2.5-3.5,3.7-4.9c1-1.3,2.3-2.9,3.2-3.4
	c0.8-0.5,1.6-1.1,2.5-1.6c0.2-0.2,0.5-0.2,0.7-0.3c0.2-0.2,0.3-0.2,0.4-0.3c0,0,0.1,0.2,0.3,0.2l0,0.1c0,0.3,0,0.3-0.2,0.5
	c-0.2,0.7-0.7,1.5-1,2.2c-0.4,0.4-1,1.3-1.2,1.5c-0.3,0.6-1,1.2-1.5,1.7c-0.3,0.3-0.9,1.1-1,1.3c-0.7,0.4-1.5,1.2-2.2,1.7
	c-1,0.8-1.9,1.5-3,2.3c-0.4,0.4-0.9,0.8-1.5,1C-284.3,498.5-284.4,498.7-284.5,498.7L-284.5,498.7L-284.5,498.7z"/>
<path class="st0" d="M-212.6,499.1c0.1-0.2,0.3-0.5,0.7-0.9c0.8-1.3,1.9-2.3,3.2-3.4c0.1-0.1,0.2-0.2,0.4-0.2c0,0,0.1-0.1,0.3-0.1
	h0.2c1.2-0.2,4.8-0.4,5.7-0.3c0.1,0.3-0.3,0.8-0.6,1c-1.1,0.8-2.1,1.8-3,2.9c-2.3,2.3-4.6,8.2-3.5,10.9c0.3,1,1.2,1.7,2.3,1.5
	c0.5-0.1,0.9-0.2,1.4-0.5c0.8-0.5,2.3-3,2.4-3.4c0.9-1.6,2.4-5.7,2.2-7.4c0-0.2-0.3-0.3-0.3-0.5c0-0.1-0.2-0.1-0.3-0.2
	c-1,0.1-2.5,1.9-2.9,2.8c-0.1,0.2-0.1,0.3-0.2,0.3h-0.2c-0.5-0.3-1-1-1.4-1.5c0-0.2,0-0.3,0-0.4c1.2-1.7,2.5-3.4,4.3-4.7
	c0.4-0.5,2.4-1.6,3.1-1.7c0.8-0.1,1.7,0.2,2.3,0.8c1.5,1.6,0.8,4.9,0.3,6.9c-0.3,1.4-0.5,2-1,3c-0.8,1.8-0.9,2-1.2,2.7
	c-1.7,3-5,6.8-8.5,7.7c-1.6,0.3-3,0.5-4.6,0.3c-1.5-0.6-3-2.1-3.6-3.4c-0.2-0.4-0.4-1.3-0.5-2.1c-0.3-0.5-0.1-3.2,0.1-3.6
	c0-0.4,0.5-2.6,0.8-3C-214.1,502-213.2,499.8-212.6,499.1L-212.6,499.1L-212.6,499.1z"/>
<path id="_154533256" class="st0" d="M-301.3,510.4c1.3,0,2.4,1.1,2.5,2.5c0,1.3-1.2,2.5-2.5,2.5c-1.3,0-2.5-1.2-2.5-2.5
	C-303.8,511.5-302.6,510.4-301.3,510.4L-301.3,510.4z"/>
<path id="_154533352" class="st0" d="M-261.8,487.4l-0.1,0.4h-0.6v-0.4c-0.6,0-1-0.2-1.2-0.4c-0.3-0.3-0.3-0.5-0.3-1
	c0-0.4,0.1-0.7,0.3-1c0.3-0.3,0.6-0.3,1.1-0.4l0-0.3h0.7l0.1,0.3c0.5,0.1,1,0.2,1.1,0.4c0.3,0.3,0.3,0.6,0.3,1c0,0.4-0.1,0.7-0.3,1
	C-260.8,487.2-261.3,487.4-261.8,487.4L-261.8,487.4z M-261.8,486.8c0.2,0,0.3,0,0.4-0.1c0.2-0.1,0.3-0.1,0.3-0.3
	c0.1-0.1,0.1-0.3,0.1-0.4c0-0.5-0.3-0.8-0.8-0.8V486.8z M-262.6,486.8v-1.6c-0.3,0-0.4,0.1-0.6,0.3c-0.1,0.1-0.2,0.3-0.2,0.6
	C-263.3,486.5-263.1,486.8-262.6,486.8L-262.6,486.8L-262.6,486.8z M-259.5,484.2h0.6v2.3l1.5-2.3h0.7v3.6h-0.7v-2.3l-1.4,2.3h-0.7
	V484.2L-259.5,484.2z M-255.9,487.8v-3.6h1.1c0.4,0,0.8,0.1,0.9,0.1c0.3,0.1,0.3,0.2,0.5,0.3c0.1,0.2,0.2,0.4,0.2,0.7
	c0,0.2,0,0.3-0.1,0.5c-0.1,0.2-0.2,0.3-0.3,0.3c-0.1,0.1-0.2,0.2-0.3,0.2c-0.2,0-0.4,0.1-0.7,0.1h-0.5v1.3
	C-255.2,487.8-255.9,487.8-255.9,487.8z M-255.2,484.9v1h0.4c0.3,0,0.4-0.1,0.5-0.1c0.1,0,0.2-0.1,0.3-0.2c0-0.1,0.1-0.2,0.1-0.3
	c0-0.2-0.1-0.3-0.2-0.3c0-0.1-0.1-0.1-0.3-0.2c-0.1,0-0.3,0-0.5,0C-254.8,484.9-255.2,484.9-255.2,484.9z M-252.5,487.8v-3.6h1
	l0.6,2.4l0.7-2.4h1v3.6h-0.6l-0.1-2.8l-0.6,2.8h-0.7l-0.7-2.8v2.8H-252.5L-252.5,487.8z M-248.2,487.8v-3.6h2.6v0.6h-1.9v0.8h1.8
	v0.6h-1.8v1h2v0.6H-248.2L-248.2,487.8z M-244.8,487.8v-3.6l0.7,0.1v1.3h1.4v-1.4l0.7,0.1v3.5h-0.7v-1.6h-1.4v1.6
	C-244.1,487.8-244.8,487.8-244.8,487.8z M-241,487.8l-0.1-3.5l0.8-0.1v1.4h1.4l-0.1-1.3l0.8-0.1v3.6h-0.7v-1.6h-1.4v1.6
	C-240.3,487.8-241,487.8-241,487.8z M-237.4,484.2h0.8v1.5h0.9c0.3,0,0.5,0,0.7,0.1c0.2,0.1,0.3,0.2,0.4,0.3
	c0.2,0.2,0.2,0.3,0.2,0.6c0,0.3,0,0.4-0.2,0.6c-0.2,0.2-0.3,0.3-0.4,0.3c-0.2,0.1-0.3,0.1-0.7,0.1h-1.6
	C-237.4,487.8-237.4,484.2-237.4,484.2z M-236.7,487.2h0.8c0.2,0,0.3,0,0.4,0c0.1,0,0.2-0.1,0.3-0.2c0-0.1,0.1-0.2,0.1-0.3
	c0-0.2-0.1-0.3-0.2-0.3c-0.1-0.1-0.3-0.1-0.6-0.2h-0.7C-236.6,486.2-236.7,487.2-236.7,487.2z M-234,484.3l0.7-0.1v3.6h-0.7V484.3z
	 M-232.4,487.8v-3.6l2.6,0.1l0.1,0.5h-1.9v0.8h1.7v0.6h-1.7v1h1.9v0.6H-232.4L-232.4,487.8z M-227.6,487.8v-3.5h1l0.6,2.3l0.7-2.3h1
	v3.5h-0.7V485l-0.7,2.8h-0.7l-0.7-2.8v2.8H-227.6z M-220.2,487.8h-0.8l-0.3-0.8h-1.4l-0.3,0.8h-0.7l1.4-3.5h0.7L-220.2,487.8
	L-220.2,487.8z M-221.5,486.4l-0.4-1.3l-0.5,1.3H-221.5L-221.5,486.4z M-219.6,484.3h2.4l-0.1,0.5h-1.6v3h-0.7V484.3z M-213.9,487.8
	h-0.7l-0.3-0.8h-1.4l-0.3,0.8h-0.7l1.4-3.5h0.7L-213.9,487.8L-213.9,487.8z M-215.2,486.4l-0.4-1.3l-0.5,1.3H-215.2z M-212.8,485.3
	l-0.7-0.2c0.2-0.6,0.6-0.9,1.3-0.9c0.4,0,0.8,0.1,1,0.3c0.2,0.2,0.3,0.4,0.3,0.6c0,0.2-0.1,0.3-0.2,0.5c-0.1,0.1-0.3,0.3-0.4,0.3
	c0.3,0.1,0.4,0.2,0.5,0.3c0.1,0.1,0.2,0.3,0.2,0.5c0,0.3-0.1,0.5-0.3,0.8c-0.3,0.2-0.6,0.3-1,0.3c-0.3,0-0.6-0.1-0.9-0.2
	c-0.2-0.2-0.3-0.3-0.4-0.7l0.6-0.3c0.1,0.3,0.2,0.3,0.3,0.4c0.1,0.1,0.3,0.1,0.4,0.1s0.3,0,0.5-0.1c0.1-0.2,0.2-0.3,0.2-0.3
	c0-0.2-0.1-0.3-0.3-0.3c-0.1-0.1-0.3-0.2-0.5-0.2l-0.1,0v-0.5c0.3,0,0.4,0,0.5-0.2c0.1-0.1,0.2-0.2,0.2-0.3c0-0.2,0-0.3-0.1-0.3
	c-0.1-0.1-0.3-0.1-0.4-0.1C-212.5,484.9-212.7,484.9-212.8,485.3L-212.8,485.3L-212.8,485.3z M-210,484.3h0.7v2.3l1.4-2.3h0.7v3.5
	h-0.6v-2.3l-1.5,2.3h-0.7V484.3z M-206.3,487.8v-3.5h0.7v1.4h1.4v-1.4h0.7v3.5h-0.7v-1.6h-1.4v1.6H-206.3z M-202.7,484.3h0.8v1.4
	h0.9c0.3,0,0.5,0,0.7,0.1c0.2,0.1,0.3,0.2,0.4,0.3c0.2,0.2,0.2,0.4,0.2,0.6c0,0.3,0,0.4-0.2,0.6c-0.1,0.3-0.3,0.3-0.4,0.3
	c-0.1,0.1-0.3,0.1-0.6,0.1h-1.7L-202.7,484.3L-202.7,484.3z M-201.9,487.2l0.7,0.1c0.2-0.1,0.3-0.1,0.4-0.1s0.2-0.1,0.3-0.2
	c0,0,0.1-0.2,0.1-0.3c0-0.2-0.1-0.3-0.2-0.3c-0.2-0.1-0.3-0.1-0.6-0.1l-0.7,0C-201.9,486.3-201.9,487.2-201.9,487.2z M-199.3,484.3
	h0.7v3.5h-0.7V484.3z"/>
</svg>
