<svg width="160" height="160" fill="none" xmlns="http://www.w3.org/2000/svg"><path fill-rule="evenodd" clip-rule="evenodd" d="M79.82.224V0c0 21.78 3.158 34.196 9.085 45.282 5.928 11.083 14.628 19.783 25.711 25.71 10.891 5.825 23.067 8.975 44.144 9.083l.982.003-.982.003c-21.077.109-33.253 3.259-44.144 9.083-11.083 5.928-19.783 14.627-25.71 25.711-5.825 10.891-8.975 23.067-9.083 44.144l-.003.981-.003-.981c-.109-21.077-3.259-33.253-9.083-44.144-5.928-11.084-14.627-19.783-25.71-25.711C33.981 83.26 21.62 80.104.001 80.078H0l.88-.003c21.076-.108 33.252-3.258 44.143-9.082 11.084-5.928 19.783-14.628 25.711-25.711C76.642 34.234 79.798 21.865 79.82.224z" fill="#D1C8BD"/></svg>