<?xml version="1.0" encoding="utf-8"?><svg viewBox="0 0 60 60" xmlns="http://www.w3.org/2000/svg" xmlns:xlink="http://www.w3.org/1999/xlink"><style>:root>svg{display:none}:root>svg:target{display:block}</style><svg fill="inherit" viewBox="0 0 17 17" id="close" xmlns="http://www.w3.org/2000/svg"><path d="M15.271.733L8.593 7.411 1.756.574.431 1.9l6.837 6.837L.484 15.52l1.378 1.325 6.731-6.73 6.625 6.624 1.325-1.325L9.918 8.79l6.678-6.73L15.271.732z"/></svg><svg fill="inherit" viewBox="0 0 60 60" id="logo" xmlns="http://www.w3.org/2000/svg"><path fill-rule="evenodd" clip-rule="evenodd" d="M29.662.822c-7.541 0-14.416 2.91-19.56 7.666v16.72h6.391v3.191h-9.62V12.007a28.696 28.696 0 00-6.05 17.655c0 6.645 2.259 12.773 6.05 17.655V29.774h3.186v9.42h3.936v-9.42h3.186v21.991h-3.186v-9.791h-3.936v8.823c5.15 4.78 12.041 7.705 19.603 7.705a28.71 28.71 0 0018.507-6.737h-4.186V29.774h3.157v18.841h4.243c4.431-5.072 7.119-11.704 7.119-18.953 0-8.256-3.488-15.714-9.067-20.976h-1.923v19.026h-3.23V8.686h-3.736V5.721h5.18A28.675 28.675 0 0029.662.822zm0 58.502C13.307 59.324 0 46.018 0 29.662S13.307 0 29.662 0c16.356 0 29.662 13.306 29.662 29.662S46.018 59.324 29.662 59.324zM21.56 9.464c-.412.366-.617.934-.617 1.707v11.777c0 .773.205 1.342.617 1.707.412.367.9.55 1.462.55a2.13 2.13 0 001.462-.55c.411-.365.618-.934.618-1.707V11.171c0-.773-.207-1.341-.618-1.708a2.135 2.135 0 00-1.462-.548c-.563 0-1.05.183-1.462.548zm1.462 18.935a5.24 5.24 0 01-1.853-.345 5.098 5.098 0 01-1.658-1.017c-.493-.45-.89-1.014-1.19-1.692-.303-.679-.453-1.477-.453-2.397V11.171c0-.897.15-1.692.452-2.38.302-.69.698-1.258 1.19-1.708a5.09 5.09 0 011.659-1.018 5.252 5.252 0 011.853-.344c.622 0 1.24.115 1.854.344.613.23 1.165.569 1.657 1.018.492.45.89 1.018 1.19 1.708.303.688.453 1.483.453 2.38v11.777c0 .92-.15 1.718-.452 2.397a5.013 5.013 0 01-1.19 1.692 5.1 5.1 0 01-1.658 1.017 5.252 5.252 0 01-1.854.345zm16.014-13.04h-5.57V8.685h6.393V5.721h-9.621v21.991h3.228v-9.389h5.57v-2.965zM25.381 36.105l-1.535 7.969h3.131l-1.534-7.97h-.062zm-6.139 15.659l4.88-21.991h2.61l4.88 21.991h-3.131l-.921-4.725h-4.266l-.92 4.725h-3.132zm17.66-21.991h-3.228v21.991h9.621v-3.15h-6.393V29.774z"/></svg><svg fill="inherit" viewBox="0 0 24 20" id="tg" xmlns="http://www.w3.org/2000/svg"><path fill-rule="evenodd" clip-rule="evenodd" d="M9.292 13.005l-.392 5.51c.56 0 .803-.24 1.094-.53l2.627-2.51 5.445 3.986c.998.557 1.702.264 1.971-.918l3.574-16.746C23.93.32 23.079-.258 22.106.104L1.1 8.147C-.334 8.704-.313 9.503.856 9.865l5.37 1.67L18.7 3.73c.587-.389 1.121-.174.682.215l-10.09 9.06z"/></svg><svg fill="inherit" viewBox="0 0 24 24" id="whatsApp" xmlns="http://www.w3.org/2000/svg"><path fill-rule="evenodd" clip-rule="evenodd" d="M11.841 0h.006c6.53 0 11.841 5.314 11.841 11.844 0 6.53-5.31 11.844-11.84 11.844-2.41 0-4.644-.716-6.517-1.957L.78 23.186l1.476-4.4A11.756 11.756 0 010 11.844C0 5.312 5.31 0 11.841 0zm4.574 18.397c.904-.195 2.038-.865 2.324-1.672.286-.808.286-1.496.203-1.643-.067-.116-.226-.193-.462-.306l-.2-.098c-.348-.173-2.04-1.01-2.36-1.12-.314-.12-.613-.078-.85.257l-.135.189c-.285.402-.56.79-.79 1.037-.209.222-.55.25-.835.131l-.107-.043c-.452-.183-1.456-.588-2.67-1.67-1.025-.912-1.721-2.047-1.922-2.388-.198-.341-.027-.542.13-.727l.009-.01c.101-.126.2-.23.3-.336.07-.075.142-.151.215-.235l.032-.037c.155-.178.247-.285.352-.507.118-.23.034-.466-.05-.64-.059-.123-.418-.994-.725-1.74l-.34-.824c-.23-.549-.404-.57-.752-.584l-.033-.002a7.002 7.002 0 00-.364-.012c-.453 0-.925.133-1.211.425l-.031.032c-.366.372-1.18 1.2-1.18 2.85 0 1.655 1.173 3.255 1.39 3.552l.016.021.074.105c.443.642 2.603 3.77 5.823 5.104 2.721 1.128 3.53 1.023 4.149.89z"/></svg></svg>