<?xml version="1.0" encoding="iso-8859-1"?><!DOCTYPE svg PUBLIC "-//W3C//DTD SVG 1.1//EN" "http://www.w3.org/Graphics/SVG/1.1/DTD/svg11.dtd"><svg viewBox="0 0 512 512" xmlns="http://www.w3.org/2000/svg" xmlns:xlink="http://www.w3.org/1999/xlink"><style>:root>svg{display:none}:root>svg:target{display:block}</style><svg viewBox="0 0 284.929 284.929" id="angle-arrow-down" xmlns="http://www.w3.org/2000/svg"><path d="M282.082 76.511l-14.274-14.273c-1.902-1.906-4.093-2.856-6.57-2.856-2.471 0-4.661.95-6.563 2.856L142.466 174.441 30.262 62.241c-1.903-1.906-4.093-2.856-6.567-2.856-2.475 0-4.665.95-6.567 2.856L2.856 76.515C.95 78.417 0 80.607 0 83.082c0 2.473.953 4.663 2.856 6.565l133.043 133.046c1.902 1.903 4.093 2.854 6.567 2.854s4.661-.951 6.562-2.854L282.082 89.647c1.902-1.903 2.847-4.093 2.847-6.565 0-2.475-.945-4.665-2.847-6.571z"/></svg><svg viewBox="0 0 512 512" id="loupe" xmlns="http://www.w3.org/2000/svg"><path d="M225.474 0C101.151 0 0 101.151 0 225.474c0 124.33 101.151 225.474 225.474 225.474 124.33 0 225.474-101.144 225.474-225.474C450.948 101.151 349.804 0 225.474 0zm0 409.323c-101.373 0-183.848-82.475-183.848-183.848S124.101 41.626 225.474 41.626s183.848 82.475 183.848 183.848-82.475 183.849-183.848 183.849z"/><path d="M505.902 476.472L386.574 357.144c-8.131-8.131-21.299-8.131-29.43 0-8.131 8.124-8.131 21.306 0 29.43l119.328 119.328A20.74 20.74 0 00491.187 512a20.754 20.754 0 0014.715-6.098c8.131-8.124 8.131-21.306 0-29.43z"/></svg><svg viewBox="0 0 492.004 492.004" id="right-arrow" xmlns="http://www.w3.org/2000/svg"><path d="M382.678 226.804L163.73 7.86C158.666 2.792 151.906 0 144.698 0s-13.968 2.792-19.032 7.86l-16.124 16.12c-10.492 10.504-10.492 27.576 0 38.064L293.398 245.9l-184.06 184.06c-5.064 5.068-7.86 11.824-7.86 19.028 0 7.212 2.796 13.968 7.86 19.04l16.124 16.116c5.068 5.068 11.824 7.86 19.032 7.86s13.968-2.792 19.032-7.86L382.678 265c5.076-5.084 7.864-11.872 7.848-19.088.016-7.244-2.772-14.028-7.848-19.108z"/></svg><svg viewBox="0 0 512 512" id="shopping-cart" xmlns="http://www.w3.org/2000/svg"><path d="M504.399 185.065c-6.761-8.482-16.904-13.348-27.83-13.348h-98.604L324.496 49.284c-3.315-7.591-12.157-11.06-19.749-7.743-7.592 3.315-11.059 12.158-7.743 19.75l48.225 110.427H166.771l48.225-110.427c3.315-7.592-.151-16.434-7.743-19.75-7.591-3.317-16.434.15-19.749 7.743l-53.469 122.434H35.431c-10.926 0-21.069 4.865-27.83 13.348C.964 193.394-1.485 204.1.882 214.442l52.657 230c3.677 16.06 17.884 27.276 34.549 27.276h335.824c16.665 0 30.872-11.216 34.549-27.276l52.657-230.001c2.367-10.342-.082-21.048-6.719-29.376zm-80.487 256.652H88.088c-2.547 0-4.778-1.67-5.305-3.972L30.126 207.747c-.413-1.805.28-3.163.936-3.984.608-.764 1.985-2.045 4.369-2.045h85.503l-3.929 8.997c-3.315 7.592.151 16.434 7.743 19.75a14.935 14.935 0 005.995 1.258c5.782 0 11.292-3.363 13.754-9l9.173-21.003h204.662l9.173 21.003c2.462 5.638 7.972 9 13.754 9 2.004 0 4.041-.404 5.995-1.258 7.592-3.315 11.059-12.158 7.743-19.75l-3.929-8.997h85.503c2.384 0 3.761 1.281 4.369 2.045.655.822 1.349 2.18.936 3.983l-52.657 230c-.528 2.301-2.76 3.971-5.307 3.971z"/><path d="M166 266.717c-8.284 0-15 6.716-15 15v110c0 8.284 6.716 15 15 15s15-6.716 15-15v-110c0-8.284-6.715-15-15-15zM256 266.717c-8.284 0-15 6.716-15 15v110c0 8.284 6.716 15 15 15s15-6.716 15-15v-110c0-8.284-6.716-15-15-15zM346 266.717c-8.284 0-15 6.716-15 15v110c0 8.284 6.716 15 15 15s15-6.716 15-15v-110c-.001-8.284-6.716-15-15-15z"/></svg></svg>