<?xml version="1.0" encoding="iso-8859-1"?><!DOCTYPE svg PUBLIC "-//W3C//DTD SVG 1.1//EN" "http://www.w3.org/Graphics/SVG/1.1/DTD/svg11.dtd"><svg viewBox="0 0 512 512" xmlns="http://www.w3.org/2000/svg" xmlns:xlink="http://www.w3.org/1999/xlink"><style>:root>svg{display:none}:root>svg:target{display:block}</style><svg viewBox="0 0 284.929 284.929" id="angle-arrow-down" xmlns="http://www.w3.org/2000/svg"><path d="M282.082 76.511l-14.274-14.273c-1.902-1.906-4.093-2.856-6.57-2.856-2.471 0-4.661.95-6.563 2.856L142.466 174.441 30.262 62.241c-1.903-1.906-4.093-2.856-6.567-2.856-2.475 0-4.665.95-6.567 2.856L2.856 76.515C.95 78.417 0 80.607 0 83.082c0 2.473.953 4.663 2.856 6.565l133.043 133.046c1.902 1.903 4.093 2.854 6.567 2.854s4.661-.951 6.562-2.854L282.082 89.647c1.902-1.903 2.847-4.093 2.847-6.565 0-2.475-.945-4.665-2.847-6.571z"/></svg><svg viewBox="0 0 512 512" id="loupe" xmlns="http://www.w3.org/2000/svg"><path d="M225.474 0C101.151 0 0 101.151 0 225.474c0 124.33 101.151 225.474 225.474 225.474 124.33 0 225.474-101.144 225.474-225.474C450.948 101.151 349.804 0 225.474 0zm0 409.323c-101.373 0-183.848-82.475-183.848-183.848S124.101 41.626 225.474 41.626s183.848 82.475 183.848 183.848-82.475 183.849-183.848 183.849z"/><path d="M505.902 476.472L386.574 357.144c-8.131-8.131-21.299-8.131-29.43 0-8.131 8.124-8.131 21.306 0 29.43l119.328 119.328A20.74 20.74 0 00491.187 512a20.754 20.754 0 0014.715-6.098c8.131-8.124 8.131-21.306 0-29.43z"/></svg><svg viewBox="0 0 482.14 482.14" id="pdf-file" xmlns="http://www.w3.org/2000/svg"><path d="M142.024 310.194c0-8.007-5.556-12.782-15.359-12.782-4.003 0-6.714.395-8.132.773v25.69c1.679.378 3.743.504 6.588.504 10.449 0 16.903-5.279 16.903-14.185zM202.709 297.681c-4.39 0-7.227.379-8.905.772v56.896c1.679.394 4.39.394 6.841.394 17.809.126 29.424-9.677 29.424-30.449.126-18.063-10.458-27.613-27.36-27.613z"/><path d="M315.458 0H121.811c-28.29 0-51.315 23.041-51.315 51.315v189.754h-5.012c-11.418 0-20.678 9.251-20.678 20.679v125.404c0 11.427 9.259 20.677 20.678 20.677h5.012v22.995c0 28.305 23.025 51.315 51.315 51.315h264.223c28.272 0 51.3-23.011 51.3-51.315V121.449L315.458 0zM99.053 284.379c6.06-1.024 14.578-1.796 26.579-1.796 12.128 0 20.772 2.315 26.58 6.965 5.548 4.382 9.292 11.615 9.292 20.127 0 8.51-2.837 15.745-7.999 20.646-6.714 6.32-16.643 9.157-28.258 9.157-2.585 0-4.902-.128-6.714-.379v31.096h-19.48v-85.816zm286.981 166.334H121.811c-10.954 0-19.874-8.92-19.874-19.889v-22.995h246.31c11.42 0 20.679-9.25 20.679-20.677V261.748c0-11.428-9.259-20.679-20.679-20.679h-246.31V51.315c0-10.938 8.921-19.858 19.874-19.858l181.89-.19V98.5c0 19.638 15.934 35.587 35.587 35.587l65.862-.189.741 296.925c0 10.97-8.904 19.89-19.857 19.89zm-211.969-80.912v-85.422c7.225-1.15 16.642-1.796 26.58-1.796 16.516 0 27.226 2.963 35.618 9.282 9.031 6.714 14.704 17.416 14.704 32.781 0 16.643-6.06 28.133-14.453 35.224-9.157 7.612-23.096 11.222-40.125 11.222-10.198 0-17.423-.646-22.324-1.291zm140.827-50.575v15.996h-31.23v34.973h-19.74v-86.966h53.16v16.122h-33.42v19.875h31.23z"/></svg><svg viewBox="0 0 511.999 511.999" id="person" xmlns="http://www.w3.org/2000/svg"><path d="M288.165 471.526a7.501 7.501 0 00-9.45-4.815l-15.216 4.944v-15.999a7.5 7.5 0 00-15 0v15.999l-15.216-4.944a7.5 7.5 0 00-4.635 14.265l15.216 4.944-9.404 12.943a7.5 7.5 0 1012.135 8.817l9.404-12.944 9.404 12.944a7.488 7.488 0 006.074 3.092 7.5 7.5 0 006.061-11.909l-9.404-12.943 15.216-4.944a7.5 7.5 0 004.815-9.45zM288.165 24.598c-1.28-3.939-5.514-6.097-9.45-4.815l-15.216 4.944v-16a7.5 7.5 0 00-7.5-7.5 7.5 7.5 0 00-7.5 7.5v15.999l-15.216-4.944a7.5 7.5 0 00-4.635 14.266l15.216 4.944-9.404 12.943a7.5 7.5 0 1012.135 8.817l9.404-12.944 9.404 12.944a7.488 7.488 0 006.074 3.092 7.5 7.5 0 006.061-11.909l-9.404-12.943 15.216-4.944a7.5 7.5 0 004.815-9.45zM64.702 248.061c-1.282-3.938-5.514-6.095-9.451-4.814l-15.216 4.943v-15.999a7.5 7.5 0 00-15 0v15.999l-15.216-4.943a7.501 7.501 0 00-4.635 14.266l15.216 4.943-9.404 12.943a7.501 7.501 0 0012.136 8.818l9.404-12.943 9.404 12.943a7.488 7.488 0 006.074 3.092 7.5 7.5 0 006.061-11.91l-9.404-12.943 15.216-4.944a7.5 7.5 0 004.815-9.451zM511.63 248.062a7.501 7.501 0 00-9.45-4.815l-15.216 4.943v-15.999a7.5 7.5 0 00-15 0v15.999l-15.216-4.943a7.501 7.501 0 00-4.635 14.266l15.216 4.944-9.404 12.943a7.5 7.5 0 0012.135 8.818l9.404-12.943 9.404 12.943a7.49 7.49 0 006.074 3.092 7.502 7.502 0 006.062-11.91l-9.404-12.943 15.216-4.943a7.503 7.503 0 004.814-9.452zM130.152 406.075a7.5 7.5 0 00-9.451-4.815l-15.215 4.944v-15.999a7.5 7.5 0 00-15 0v15.999L75.27 401.26a7.501 7.501 0 00-4.636 14.266l15.216 4.944-9.404 12.943a7.5 7.5 0 1012.135 8.817l9.404-12.943 9.404 12.943a7.49 7.49 0 006.074 3.092 7.5 7.5 0 006.062-11.909l-9.404-12.943 15.216-4.944a7.5 7.5 0 004.815-9.451zM446.18 90.047a7.501 7.501 0 00-9.451-4.814l-15.216 4.943V74.178a7.5 7.5 0 00-15 0v15.999l-15.216-4.943a7.501 7.501 0 00-4.635 14.266l15.216 4.943-9.404 12.943a7.501 7.501 0 0012.136 8.818l9.404-12.943 9.404 12.943a7.488 7.488 0 006.074 3.092 7.5 7.5 0 006.061-11.91l-9.404-12.943 15.216-4.944a7.501 7.501 0 004.815-9.452zM130.152 90.049a7.5 7.5 0 00-9.45-4.815l-15.216 4.943v-16a7.5 7.5 0 00-15 0v15.999L75.27 85.233a7.499 7.499 0 00-9.45 4.815 7.5 7.5 0 004.814 9.451l15.216 4.944-9.404 12.943a7.5 7.5 0 0012.135 8.818l9.404-12.943 9.404 12.943a7.49 7.49 0 006.074 3.092 7.502 7.502 0 006.062-11.91l-9.404-12.943 15.216-4.943a7.5 7.5 0 004.815-9.451zM446.179 406.075a7.5 7.5 0 00-9.451-4.815l-15.216 4.944v-15.999a7.5 7.5 0 00-15 0v15.999l-15.215-4.944a7.5 7.5 0 00-4.636 14.266l15.216 4.944-9.404 12.943a7.5 7.5 0 006.062 11.909 7.49 7.49 0 006.074-3.092l9.404-12.943 9.404 12.943a7.488 7.488 0 006.074 3.092 7.5 7.5 0 006.061-11.909l-9.404-12.943 15.216-4.944a7.5 7.5 0 004.815-9.451zM339.464 289.332l-39.07-16.279a8.349 8.349 0 01-5.152-7.728v-11.587c10.012-10.193 15.872-24.066 15.872-38.676v-31.744c0-26.015-24.725-47.18-55.116-47.18s-55.116 21.165-55.116 47.18v31.745c0 14.609 5.86 28.483 15.872 38.676v11.585a8.349 8.349 0 01-5.152 7.728l-39.07 16.279a31.227 31.227 0 00-19.267 28.9v23.808c0 12.888 10.485 23.372 23.372 23.372h119.04a7.5 7.5 0 000-15h-119.04c-4.616 0-8.372-3.756-8.372-8.372v-23.808a16.264 16.264 0 0110.036-15.054l39.07-16.278a23.312 23.312 0 0014.383-21.575v-1.543a7.493 7.493 0 006.908-3.725 7.5 7.5 0 00-2.732-10.249c-12.366-7.161-20.048-20.475-20.048-34.746v-31.743c0-17.744 17.996-32.18 40.116-32.18s40.116 14.436 40.116 32.18v31.745c0 14.277-7.687 27.594-20.062 34.753a7.5 7.5 0 003.763 13.993c.142 0 .284-.019.427-.027v1.543a23.313 23.313 0 0014.383 21.575l39.07 16.278a16.265 16.265 0 0110.036 15.054v23.808c0 4.616-3.756 8.372-8.374 8.372h-7.938a7.5 7.5 0 000 15h7.94c12.887 0 23.372-10.484 23.372-23.372v-23.808a31.226 31.226 0 00-19.267-28.9z"/></svg><svg viewBox="0 0 492.004 492.004" id="right-arrow" xmlns="http://www.w3.org/2000/svg"><path d="M382.678 226.804L163.73 7.86C158.666 2.792 151.906 0 144.698 0s-13.968 2.792-19.032 7.86l-16.124 16.12c-10.492 10.504-10.492 27.576 0 38.064L293.398 245.9l-184.06 184.06c-5.064 5.068-7.86 11.824-7.86 19.028 0 7.212 2.796 13.968 7.86 19.04l16.124 16.116c5.068 5.068 11.824 7.86 19.032 7.86s13.968-2.792 19.032-7.86L382.678 265c5.076-5.084 7.864-11.872 7.848-19.088.016-7.244-2.772-14.028-7.848-19.108z"/></svg><svg viewBox="0 0 512 512" id="shopping-cart" xmlns="http://www.w3.org/2000/svg"><path d="M504.399 185.065c-6.761-8.482-16.904-13.348-27.83-13.348h-98.604L324.496 49.284c-3.315-7.591-12.157-11.06-19.749-7.743-7.592 3.315-11.059 12.158-7.743 19.75l48.225 110.427H166.771l48.225-110.427c3.315-7.592-.151-16.434-7.743-19.75-7.591-3.317-16.434.15-19.749 7.743l-53.469 122.434H35.431c-10.926 0-21.069 4.865-27.83 13.348C.964 193.394-1.485 204.1.882 214.442l52.657 230c3.677 16.06 17.884 27.276 34.549 27.276h335.824c16.665 0 30.872-11.216 34.549-27.276l52.657-230.001c2.367-10.342-.082-21.048-6.719-29.376zm-80.487 256.652H88.088c-2.547 0-4.778-1.67-5.305-3.972L30.126 207.747c-.413-1.805.28-3.163.936-3.984.608-.764 1.985-2.045 4.369-2.045h85.503l-3.929 8.997c-3.315 7.592.151 16.434 7.743 19.75a14.935 14.935 0 005.995 1.258c5.782 0 11.292-3.363 13.754-9l9.173-21.003h204.662l9.173 21.003c2.462 5.638 7.972 9 13.754 9 2.004 0 4.041-.404 5.995-1.258 7.592-3.315 11.059-12.158 7.743-19.75l-3.929-8.997h85.503c2.384 0 3.761 1.281 4.369 2.045.655.822 1.349 2.18.936 3.983l-52.657 230c-.528 2.301-2.76 3.971-5.307 3.971z"/><path d="M166 266.717c-8.284 0-15 6.716-15 15v110c0 8.284 6.716 15 15 15s15-6.716 15-15v-110c0-8.284-6.715-15-15-15zM256 266.717c-8.284 0-15 6.716-15 15v110c0 8.284 6.716 15 15 15s15-6.716 15-15v-110c0-8.284-6.716-15-15-15zM346 266.717c-8.284 0-15 6.716-15 15v110c0 8.284 6.716 15 15 15s15-6.716 15-15v-110c-.001-8.284-6.716-15-15-15z"/></svg></svg>