<svg width="92" height="46" fill="none" xmlns="http://www.w3.org/2000/svg"><path d="M7.667 27.246h3.931c3.277 0 6.18-1.914 6.18-5.465 0-4.017-2.962-5.524-6.507-5.524H7.667v10.989zm2.418-8.755h1.435c2.045 0 3.775 1.008 3.775 3.171 0 2.496-1.69 3.355-3.932 3.355h-1.278v-6.526zm8.25 4.98c0 2.412 1.86 3.932 4.187 3.932s4.194-1.553 4.194-3.931c0-2.379-1.861-3.932-4.194-3.932s-4.188 1.553-4.188 3.931zm2.325 0a1.763 1.763 0 011.613-1.906h.249a1.764 1.764 0 011.86 1.906 1.77 1.77 0 01-1.86 1.914 1.763 1.763 0 01-1.86-1.914h-.002zm13.591-2.941a3.774 3.774 0 00-2.686-1.01c-2.333 0-4.188 1.554-4.188 3.932s1.86 3.932 4.188 3.932a3.772 3.772 0 002.686-1.01l-1.533-1.61a1.488 1.488 0 01-1.134.577 1.763 1.763 0 01-1.86-1.913 1.762 1.762 0 011.86-1.907 1.434 1.434 0 011.134.577l1.533-1.613v.045zm7.949-.792h-2.333v3.754c0 .983-.184 1.927-1.395 1.927-1.212 0-1.206-1.135-1.206-1.966v-3.715h-2.333v4.128c0 2.018.432 3.572 2.798 3.572a2.438 2.438 0 002.202-1.213v1.022H42.2v-7.555m.595 6.905h3.69v.767h-3.69v-.767zm5.407 0h3.689v.767H48.2v-.767zm5.412 0h3.69v.767h-3.69v-.767zm5.405 0h3.69v.767h-3.69v-.767zm5.407 0h3.689v.767h-3.69v-.767zm5.405 0h3.689v.767h-3.69v-.767zm5.407 0h3.69v.767h-3.69v-.767zm5.405 0h3.69v.767h-3.69v-.767z" fill="#fff"/><path d="M63.403 25.47c-.399-.398 3.643-3.63 4.862-3.465-.465 1.403-4.462 3.866-4.862 3.465zm4.757 1.343a22.734 22.734 0 002.084-5.019c0-.91-.826-1.39-1.717-1.39-2.929 0-7.654 4.994-8.65 4.994-1.135 0 .603-2.392.603-3.329 0-.622-.557-1.265-1.003-1.265-.865 0-3.597 2.622-5.387 3.197a4.018 4.018 0 00.603-1.795c0-3.197-9.062-1.966-9.062-3.775 0-1.612 5.668-4.39 8.99-4.39.465 0 3.525.204 3.525 1.265 0 .4-.656.531-.656.931s.335.466.734.466a1.08 1.08 0 00.996-1.2c0-2.712-2.359-3.276-4.26-3.276-4.908 0-10.72 4.26-10.72 6.192 0 2.53 8.257 2.064 8.257 4.332 0 2.726-8.852 5.19-8.852 5.857 0 .667.471.603 1.002.603 3.598 0 13.047-5.996 13.846-6.795.066 1.395-.524 2.726-.524 3.322 0 .596.458 1.409 1.135 1.409.676 0 1.663-1.003 3.131-1.796-.065.466.335 1.2.865 1.2 1.135 0 4.587-2.799 5.243-3.277A7.897 7.897 0 0166.9 26.55a4.288 4.288 0 00-1.133-.144c-1.377 0-5.177 4.024-5.177 5.898 0 .733.399 1.468 1.135 1.468 1.015 0 4.676-3.021 6.04-6.1.597.064 1.567.51 1.567.038 0-.473-.655-.787-1.165-.918l-.008.021zm-6.112 5.366c-.236 0-.38-.105-.38-.656 0-1.71 3.564-4.135 4.803-4.135-.721 1.61-3.769 4.79-4.424 4.79zm-1.154-15.072a.832.832 0 111.663 0 .832.832 0 01-1.663 0zm11.14 6.456c-.466.602-1.664 1.966-1.664 2.53 0 .564.268.864.655.864.997 0 4.26-3.93 5.793-3.93 1.135 0-.728 4.062 1.737 4.062.89 0 3.871-1.965 3.871-3.112 0-.203-.21-.55-.478-.55-.157 0-2.195 2.463-3.067 2.463-.733 0 0-1.533 0-2.53 0-.996-.164-1.932-1.199-1.932-1.395 0-3.4 1.796-3.86 2.064.163-.26.256-.558.27-.865a1.342 1.342 0 00-1.2-1.133c-.458 0-2.922 1.265-2.922 2.882 0 .399 1.46-1.016 2.057-.813" fill="#fff"/></svg>