<svg width="50" height="50" viewBox="0 0 50 50" fill="none" xmlns="http://www.w3.org/2000/svg">
<g clip-path="url(#clip0)">
<path d="M30.7617 35.3223H28.0273C27.627 35.3223 27.2949 35.6543 27.2949 36.0547C27.2949 36.4551 27.627 36.7871 28.0273 36.7871H30.7617C31.1621 36.7871 31.4941 36.4551 31.4941 36.0547C31.4941 35.6445 31.1719 35.3223 30.7617 35.3223Z" fill="url(#paint0_linear)"/>
<path d="M46.894 27.4804L42.9096 25.9375L40.8784 23.9062C40.7514 23.7793 40.5756 23.7011 40.4096 23.6914V22.0703C41.3666 21.0449 42.0502 19.7558 42.3237 18.3008C42.4995 18.3105 42.6655 18.291 42.8413 18.2617C43.8178 18.0664 44.5209 17.1582 44.5209 16.1133V15.5761C44.5209 14.9707 44.2768 14.414 43.8764 14.0136C44.5209 10.498 43.9936 7.62693 42.3334 5.71287C40.7221 3.8574 38.1342 2.96873 34.8432 3.14451C31.8061 3.31052 29.8432 4.70701 29.2182 5.22459C28.8764 5.26365 28.3002 5.38084 27.7143 5.7324C26.9037 6.22068 25.9272 7.24607 25.9272 9.35544C25.9272 11.2011 26.2202 12.7344 26.435 13.6133C25.7221 13.9648 25.2436 14.7168 25.2436 15.5761V16.1035C25.2436 17.1484 25.9467 18.0566 26.9233 18.2519C27.0893 18.291 27.2651 18.3008 27.4409 18.291C27.7143 19.7461 28.3979 21.0449 29.3549 22.0605V23.6816C29.1791 23.6914 29.0131 23.7597 28.8862 23.8965L26.8549 25.9277L22.851 27.4804C22.5092 27.6172 22.1772 27.7832 21.8745 27.998C21.5424 28.2226 21.4545 28.6816 21.6791 29.0136C21.8256 29.2187 22.0502 29.3359 22.2846 29.3359C22.4311 29.3359 22.5678 29.2969 22.6948 29.209C22.9096 29.0625 23.1342 28.9453 23.3784 28.8476L27.0795 27.4218L29.9116 31.6699C30.2631 32.1972 30.8295 32.5293 31.4545 32.5976C31.5229 32.6074 31.5913 32.6074 31.6596 32.6074C32.0209 32.6074 32.3823 32.5097 32.6948 32.334L32.0893 46.1133C32.0698 46.5136 32.3823 46.8554 32.7924 46.875C32.8022 46.875 32.812 46.875 32.8217 46.875C33.2123 46.875 33.5346 46.5722 33.5541 46.1718L34.1205 33.3886H35.644L36.2104 46.1718C36.2299 46.5625 36.5522 46.875 36.9428 46.875C36.9526 46.875 36.9623 46.875 36.9721 46.875C37.3725 46.8554 37.685 46.5136 37.6752 46.1133L37.06 32.3242C37.3725 32.5 37.7241 32.5976 38.0952 32.5976C38.1635 32.5976 38.2319 32.5976 38.3002 32.5879C38.9252 32.5293 39.4916 32.1875 39.8432 31.6601L42.6752 27.4121L46.3764 28.8379C46.894 29.0332 47.3432 29.3554 47.6948 29.7558L45.1655 32.2851C44.2475 33.2031 43.7495 34.414 43.7495 35.7129V46.123C43.7495 46.5234 44.0815 46.8554 44.4819 46.8554C44.8823 46.8554 45.2143 46.5234 45.2143 46.123V35.7226C45.2143 34.8242 45.5659 33.9746 46.2006 33.3301L48.4272 31.1035C48.5151 31.4355 48.5541 31.7773 48.5444 32.1289L47.978 46.1035C47.9584 46.5039 48.2807 46.8457 48.6811 46.8652C48.6909 46.8652 48.7006 46.8652 48.7104 46.8652C49.101 46.8652 49.4233 46.5527 49.4428 46.1621L50.0092 32.1875C50.0776 30.1172 48.8373 28.2226 46.894 27.4804ZM28.8666 17.998C28.7397 17.2949 28.0854 16.7871 27.3823 16.8359C27.3237 16.8359 27.2651 16.8359 27.2163 16.8261C26.9233 16.7676 26.7084 16.4551 26.7084 16.1133V15.5859C26.7084 15.2441 26.933 14.9414 27.226 14.8926C27.4702 14.8535 27.7045 14.9414 27.851 15.1367C27.9877 15.3125 28.1635 15.4394 28.3686 15.498C28.6713 15.5859 29.0034 15.5371 29.2573 15.3515C29.7163 15.0293 30.1166 14.6289 30.4584 14.1797C30.7026 13.8574 30.6342 13.3984 30.312 13.1543C29.9897 12.9101 29.5307 12.9785 29.2866 13.3008C29.1205 13.5254 28.9252 13.7304 28.7202 13.916C28.4858 13.7207 28.2123 13.5742 27.9291 13.4961C27.7436 12.7734 27.4018 11.2304 27.4018 9.36521C27.4018 8.24216 27.7436 7.45115 28.4272 7.02146C28.9545 6.67966 29.5209 6.6699 29.5209 6.6699C29.7065 6.6699 29.892 6.59177 30.0288 6.46482C30.0483 6.44529 31.8452 4.77537 34.9311 4.60935C37.7534 4.4531 39.9311 5.16599 41.2299 6.6699C42.5385 8.18357 42.978 10.5078 42.4995 13.4082C42.3041 13.3984 42.0893 13.4179 41.8745 13.4472L41.1909 11.7969C41.0541 11.4551 40.683 11.2793 40.3315 11.3672C40.2631 11.3867 33.4955 13.0957 30.6635 9.57029C30.4096 9.25779 29.9506 9.20896 29.6381 9.4531C29.3256 9.70701 29.2768 10.166 29.5307 10.4785C32.4311 14.082 38.1733 13.3008 40.0873 12.9199L40.6147 14.1992C40.8393 14.7461 41.4252 15.0488 42.0014 14.9121C42.2358 14.8535 42.4604 14.8535 42.5483 14.873C42.8413 14.9316 43.0659 15.2246 43.0659 15.5566V16.0937C43.0659 16.4453 42.851 16.748 42.558 16.8066C42.4995 16.8164 42.4409 16.8261 42.392 16.8164C41.6889 16.7676 41.0346 17.2754 40.9077 17.9785C40.3705 20.8789 37.851 22.9883 34.892 22.9883C31.9233 23.0078 29.394 20.8984 28.8666 17.998ZM32.1186 30.9472C31.933 31.1328 31.7182 31.1426 31.601 31.1328C31.4936 31.123 31.2788 31.0742 31.1323 30.8496L28.2807 26.5722L29.4233 25.4297L33.7983 29.2578L32.1186 30.9472ZM34.1791 31.914L34.228 30.9082L34.8823 30.2539L35.5366 30.9082L35.5854 31.914H34.1791ZM34.8725 28.2519L30.81 24.6972V23.291C31.9916 24.0429 33.3881 24.4726 34.8725 24.4726C36.3569 24.4726 37.7534 24.0429 38.935 23.291V24.6972L34.8725 28.2519ZM38.6225 30.8496C38.476 31.0644 38.2709 31.123 38.1538 31.1328C38.0366 31.1426 37.8217 31.1328 37.6362 30.9472L35.9467 29.2578L40.3217 25.4297L41.4643 26.5722L38.6225 30.8496Z" fill="url(#paint1_linear)"/>
<path d="M23.2225 31.3184L19.6482 29.7559L17.6951 27.8027C17.5682 27.6758 17.3924 27.5977 17.2264 27.5879V26.4355C18.8963 25.3418 20.117 23.5938 20.5174 21.5137C20.7127 21.5234 20.908 21.5039 21.0936 21.4551C22.0311 21.2305 22.7146 20.332 22.7146 19.3164V18.7793C22.7146 18.0371 22.3436 17.373 21.7771 16.9824C21.9432 16.3184 22.0311 15.6348 22.0311 14.9512C22.0311 11.9141 20.3904 9.24805 17.9197 7.70508C17.8904 5.17578 15.7322 3.11523 13.076 3.11523C10.4197 3.11523 8.26152 5.16602 8.23222 7.70508C5.76152 9.23828 4.1209 11.9141 4.1209 14.9512C4.1209 15.6348 4.20879 16.3086 4.3748 16.9727C3.8084 17.3633 3.4373 18.0371 3.4373 18.7891V19.3164C3.4373 20.332 4.1209 21.2305 5.0584 21.4551C5.25371 21.5039 5.43926 21.5234 5.63457 21.5137C6.02519 23.5938 7.2459 25.3418 8.92558 26.4355V27.5879C8.7498 27.5977 8.58379 27.666 8.45683 27.8027L6.50371 29.7559L2.92949 31.3184C1.08379 32.1094 -0.0783227 33.9746 -0.000197726 35.9668L0.42949 46.1719C0.449021 46.5625 0.771287 46.875 1.16191 46.875C1.17168 46.875 1.18144 46.875 1.19121 46.875C1.5916 46.8555 1.91386 46.5137 1.89433 46.1133L1.46465 35.8984C1.43535 35.2441 1.61113 34.5996 1.9334 34.0527L3.85722 36.3574C4.46269 37.0898 4.79472 38.0078 4.79472 38.9551V46.123C4.79472 46.5234 5.12676 46.8555 5.52715 46.8555C5.92754 46.8555 6.25957 46.5234 6.25957 46.123V38.9648C6.25957 37.6758 5.80058 36.416 4.98027 35.4297L2.93926 32.9785C3.11504 32.8613 3.30058 32.7539 3.4959 32.666L6.61113 31.3086L8.81816 34.8828C9.03301 35.2344 9.39433 35.4785 9.80449 35.5371C9.88261 35.5469 9.95097 35.5566 10.0291 35.5566C10.3611 35.5566 10.6932 35.4395 10.9471 35.2148L12.3436 34.0234V46.1426C12.3436 46.543 12.6756 46.875 13.076 46.875C13.4764 46.875 13.8084 46.543 13.8084 46.1426V34.0234L15.2049 35.2148C15.4588 35.4395 15.7908 35.5566 16.1229 35.5566C16.201 35.5566 16.2693 35.5469 16.3475 35.5371C16.7576 35.4688 17.1189 35.2344 17.3338 34.8828L19.5408 31.3086L22.6561 32.666C22.8514 32.7539 23.0369 32.8613 23.2127 32.9785L21.1717 35.4297C20.3416 36.4258 19.8924 37.6758 19.8924 38.9648V46.1328C19.8924 46.5332 20.2244 46.8652 20.6248 46.8652C21.0252 46.8652 21.3572 46.5332 21.3572 46.1328V38.9648C21.3572 38.0176 21.6893 37.0898 22.2947 36.3672L24.2186 34.0625C24.5408 34.6094 24.7068 35.2539 24.6873 35.9082L24.2576 46.1133C24.2381 46.5137 24.5506 46.8555 24.9607 46.875C24.9705 46.875 24.9803 46.875 24.99 46.875C25.3807 46.875 25.7029 46.5625 25.7225 46.1719L26.1521 35.9668C26.2107 33.9746 25.0486 32.1094 23.2225 31.3184ZM13.0662 4.59961C14.6287 4.59961 15.9373 5.5957 16.3279 6.94336C15.3123 6.5625 14.2186 6.34766 13.0662 6.34766C11.9139 6.34766 10.8201 6.55273 9.80449 6.94336C10.1951 5.58594 11.5037 4.59961 13.0662 4.59961ZM7.05058 21.2109C6.92363 20.5078 6.26933 20 5.56621 20.0488C5.50761 20.0488 5.43926 20.0488 5.3709 20.0293C5.08769 19.9609 4.88261 19.6582 4.88261 19.3164V18.7891C4.88261 18.4473 5.10722 18.1445 5.40019 18.0957C5.64433 18.0566 5.87871 18.1445 6.02519 18.3398C6.16191 18.5156 6.33769 18.6426 6.54277 18.7012C6.84551 18.7891 7.17754 18.7402 7.43144 18.5547C7.88066 18.2324 8.28105 17.8516 8.61308 17.4023C8.85722 17.0801 8.78886 16.6211 8.4666 16.377C8.14433 16.1328 7.68535 16.2012 7.44121 16.5234C7.27519 16.748 7.08965 16.9434 6.88457 17.1289C6.57207 16.8652 6.19121 16.6895 5.78105 16.6406C5.64433 16.0938 5.56621 15.5273 5.56621 14.9609C5.56621 11.0156 8.92558 7.8125 13.0564 7.8125C17.1873 7.8125 20.5467 11.0156 20.5467 14.9609C20.5467 15.5273 20.4783 16.0938 20.3318 16.6406C20.1365 16.6602 19.9412 16.6895 19.7654 16.7383L19.2186 16.2891C18.9451 16.0645 18.5936 15.9473 18.242 15.9668C17.1678 16.0352 11.6502 16.1719 8.82793 12.793C8.56425 12.4805 8.10527 12.4414 7.79277 12.7051C7.48027 12.9688 7.44121 13.4277 7.70488 13.7402C9.10136 15.4102 11.1424 16.543 13.7889 17.0996C15.8103 17.5293 17.6072 17.4805 18.3104 17.4414L19.1697 18.1445C19.4041 18.3398 19.7361 18.3691 19.9998 18.2129C20.1268 18.1445 20.5369 18.0762 20.7225 18.1152C21.0154 18.1738 21.24 18.4668 21.24 18.7988V19.3359C21.24 19.6777 21.0252 19.9805 20.7518 20.0488C20.6834 20.0684 20.6248 20.0684 20.5564 20.0684C19.8533 20.0195 19.199 20.5273 19.0721 21.2305C18.535 24.1309 16.0154 26.2402 13.0564 26.2402C10.117 26.2207 7.58769 24.1113 7.05058 21.2109ZM10.0291 34.0625L7.82207 30.4883L8.95488 29.3555L11.992 32.3926L10.0291 34.0625ZM13.0662 31.3965L10.3709 28.7012V27.1875C11.2107 27.5098 12.1189 27.6855 13.0662 27.6855C14.0135 27.6855 14.9217 27.5098 15.7615 27.1875V28.7012L13.0662 31.3965ZM16.1033 34.0625L14.1404 32.3926L17.1775 29.3555L18.3104 30.4883L16.1033 34.0625Z" fill="url(#paint2_linear)"/>
<path d="M10.3223 38.5547H8.27148C7.87109 38.5547 7.53906 38.8867 7.53906 39.2871C7.53906 39.6875 7.87109 40.0195 8.27148 40.0195H10.332C10.7324 40.0195 11.0645 39.6875 11.0645 39.2871C11.0547 38.877 10.7324 38.5547 10.3223 38.5547Z" fill="url(#paint3_linear)"/>
</g>
<defs>
<linearGradient id="paint0_linear" x1="28.4322" y1="35.3833" x2="30.6373" y2="36.8368" gradientUnits="userSpaceOnUse">
<stop stop-color="#B534BE"/>
<stop offset="1" stop-color="#451472"/>
</linearGradient>
<linearGradient id="paint1_linear" x1="29.2619" y1="4.94569" x2="50.229" y2="8.0814" gradientUnits="userSpaceOnUse">
<stop stop-color="#B534BE"/>
<stop offset="1" stop-color="#451472"/>
</linearGradient>
<linearGradient id="paint2_linear" x1="7.0806" y1="4.93855" x2="26.4196" y2="7.59664" gradientUnits="userSpaceOnUse">
<stop stop-color="#B534BE"/>
<stop offset="1" stop-color="#451472"/>
</linearGradient>
<linearGradient id="paint3_linear" x1="8.49386" y1="38.6157" x2="10.5269" y2="39.7408" gradientUnits="userSpaceOnUse">
<stop stop-color="#B534BE"/>
<stop offset="1" stop-color="#451472"/>
</linearGradient>
<clipPath id="clip0">
<rect width="50" height="50" fill="white"/>
</clipPath>
</defs>
</svg>
