<svg width="60" height="60" viewBox="0 0 60 60" fill="none" xmlns="http://www.w3.org/2000/svg">
<path d="M36.3164 58.5587C35.5547 58.5587 34.7812 58.5235 34.0195 58.4415C28.6523 57.9141 23.5898 55.5118 19.7578 51.6915C17.3906 49.3243 15.5977 46.5469 14.4258 43.4415L14.3672 43.2891H5.85938C5.34375 43.2891 4.92188 42.8672 4.92188 42.3516C4.92188 41.836 5.34375 41.4141 5.85938 41.4141H13.7578L13.6758 41.1212C13.2891 39.668 13.0547 38.168 12.9492 36.6563L12.9375 36.4337H7.5C6.98438 36.4337 6.5625 36.0118 6.5625 35.4962C6.5625 34.9805 6.98438 34.5587 7.5 34.5587H12.9141L12.9258 34.336C12.9727 32.836 13.1719 31.336 13.5 29.8712L13.5703 29.5899H1.17188C0.65625 29.5899 0.234375 29.168 0.234375 28.6524C0.234375 28.1368 0.65625 27.7149 1.17188 27.7149H14.0977L14.1562 27.5508C14.6836 25.9923 15.375 24.4922 16.2187 23.086L16.4297 22.7344H9.16406C8.64844 22.7344 8.22656 22.3126 8.22656 21.7969C8.22656 21.2813 8.64844 20.8594 9.16406 20.8594H17.5195C17.543 20.8594 17.5664 20.8594 17.5898 20.8594L17.7188 20.8712L17.8008 20.7657C18.4102 19.9805 19.0664 19.2305 19.7695 18.5274C22.9102 15.3868 26.8594 13.2071 31.1953 12.2462L31.3828 12.211V8.87115L31.207 8.82428C29.5312 8.40241 28.3594 6.91412 28.3594 5.17975C28.3594 3.11725 30.0469 1.42975 32.1094 1.42975H40.5469C42.6094 1.42975 44.2969 3.11725 44.2969 5.17975C44.2969 6.9024 43.125 8.40241 41.4492 8.82428L41.2734 8.87115V12.2227L41.4609 12.2579C45.8086 13.2188 49.7695 15.3985 52.9219 18.5508C56.7422 22.3712 59.1328 27.4219 59.6719 32.7891C60.1992 38.0743 58.8984 43.4297 56.0273 47.8712C55.8516 48.1407 55.5586 48.293 55.2422 48.293C55.0664 48.293 54.8906 48.2462 54.7383 48.1407C54.5273 48.0001 54.3867 47.7891 54.3281 47.5547C54.2812 47.3087 54.3281 47.0626 54.457 46.8516C59.9648 38.379 58.7578 27.0352 51.6094 19.8751C47.543 15.8087 42.1289 13.5704 36.3633 13.5704C30.5977 13.5704 25.1836 15.8087 21.1172 19.8751C17.0508 23.9415 14.8125 29.3555 14.8125 35.1212C14.8125 40.8868 17.0508 46.3008 21.1172 50.3672C25.1719 54.4219 30.6094 56.6602 36.4102 56.6602C40.5938 56.6602 44.6484 55.4649 48.1172 53.2032C48.2695 53.1094 48.4453 53.0508 48.6328 53.0508C48.9492 53.0508 49.2422 53.2149 49.418 53.4727C49.5586 53.6837 49.6055 53.9297 49.5469 54.1758C49.5 54.4219 49.3477 54.6329 49.1367 54.7735C45.3047 57.2579 40.8867 58.5587 36.3164 58.5587ZM33.2344 11.9063L33.4922 11.8712C34.4297 11.754 35.3789 11.7071 36.3164 11.7071C37.2422 11.7071 38.1797 11.7657 39.1055 11.8712L39.3633 11.9063V8.94147H33.2227V11.9063H33.2344ZM32.0977 3.31647C31.0664 3.31647 30.2227 4.16022 30.2227 5.19147C30.2227 6.22272 31.0664 7.06647 32.0977 7.06647H40.5352C41.5664 7.06647 42.4102 6.22272 42.4102 5.19147C42.4102 4.16022 41.5664 3.31647 40.5352 3.31647H32.0977Z" fill="url(#paint0_linear)"/>
<path d="M52.2422 51.9727C51.9961 51.9727 51.75 51.8672 51.5742 51.7031C51.3984 51.5273 51.293 51.293 51.293 51.0352C51.293 50.7773 51.3984 50.543 51.5625 50.3672C51.7383 50.1914 51.9844 50.0977 52.2305 50.0977C52.4766 50.0977 52.7227 50.2031 52.8984 50.3672C53.0742 50.543 53.168 50.7773 53.168 51.0352C53.168 51.2812 53.0625 51.5273 52.8984 51.7031C52.7227 51.8789 52.4883 51.9727 52.2422 51.9727Z" fill="url(#paint1_linear)"/>
<path d="M36.3281 53.0743C26.4375 53.0743 18.3867 45.0235 18.3867 35.1329C18.3867 25.2422 26.4375 17.1915 36.3281 17.1915C46.2188 17.1915 54.2695 25.2422 54.2695 35.1329C54.2695 45.0235 46.2188 53.0743 36.3281 53.0743ZM36.3281 19.0547C27.4688 19.0547 20.2617 26.2618 20.2617 35.1212C20.2617 43.9805 27.4688 51.1993 36.3281 51.1993C45.1875 51.1993 52.3945 43.9922 52.3945 35.1329C52.3945 26.2735 45.1875 19.0547 36.3281 19.0547Z" fill="url(#paint2_linear)"/>
<path d="M36.3281 38.5312C34.4531 38.5312 32.918 37.0078 32.918 35.1211C32.918 34.5938 33.0352 34.0898 33.2695 33.6211L33.3398 33.4688L30.6211 30.75C30.4453 30.5742 30.3516 30.3398 30.3516 30.082C30.3516 29.8359 30.4453 29.6016 30.6211 29.4141C30.7969 29.2383 31.0312 29.1445 31.2891 29.1445C31.5469 29.1445 31.7695 29.2383 31.957 29.4141L34.6758 32.1328L34.8281 32.0625C35.2969 31.8281 35.8008 31.7109 36.3281 31.7109C36.8555 31.7109 37.3594 31.8281 37.8281 32.0625L37.9805 32.1328L43.8984 26.2148C44.0742 26.0391 44.3086 25.9453 44.5664 25.9453C44.8242 25.9453 45.0469 26.0391 45.2344 26.2148C45.5976 26.5781 45.5976 27.1758 45.2344 27.5391L39.3164 33.457L39.3867 33.6094C39.6211 34.0781 39.7383 34.582 39.7383 35.1094C39.7383 37.0078 38.2031 38.5312 36.3281 38.5312ZM36.3281 33.5977C35.4844 33.5977 34.793 34.2891 34.793 35.1328C34.793 35.9766 35.4844 36.668 36.3281 36.668C37.1719 36.668 37.8633 35.9766 37.8633 35.1328C37.8633 34.2891 37.1719 33.5977 36.3281 33.5977Z" fill="url(#paint3_linear)"/>
<path d="M47.7773 36.0822C47.2617 36.0822 46.8398 35.6603 46.8398 35.1447C46.8398 34.629 47.2617 34.2072 47.7773 34.2072H48.8672C49.3828 34.2072 49.8047 34.629 49.8047 35.1447C49.8047 35.6603 49.3828 36.0822 48.8672 36.0822H47.7773Z" fill="url(#paint4_linear)"/>
<path d="M23.8008 36.0468C23.2852 36.0468 22.8633 35.6249 22.8633 35.1093C22.8633 34.5937 23.2852 34.1718 23.8008 34.1718H24.8906C25.4062 34.1718 25.8281 34.5937 25.8281 35.1093C25.8281 35.6249 25.4062 36.0468 24.8906 36.0468H23.8008Z" fill="url(#paint5_linear)"/>
<path d="M36.3398 24.6211C35.8242 24.6211 35.4023 24.1992 35.4023 23.6836V22.5937C35.4023 22.0781 35.8242 21.6562 36.3398 21.6562C36.8555 21.6562 37.2773 22.0781 37.2773 22.5937V23.6836C37.2773 24.1992 36.8555 24.6211 36.3398 24.6211Z" fill="url(#paint6_linear)"/>
<path d="M36.3164 48.5978C35.8008 48.5978 35.3789 48.1759 35.3789 47.6603V46.5704C35.3789 46.0548 35.8008 45.6329 36.3164 45.6329C36.832 45.6329 37.2539 46.0548 37.2539 46.5704V47.6603C37.2539 48.1759 36.832 48.5978 36.3164 48.5978Z" fill="url(#paint7_linear)"/>
<path d="M1.17188 43.2892C0.925781 43.2892 0.679688 43.1837 0.503906 43.0196C0.328125 42.8438 0.234375 42.5977 0.234375 42.3517C0.234375 42.1056 0.339844 41.8595 0.503906 41.6837C0.679688 41.5079 0.925781 41.4142 1.17188 41.4142C1.41797 41.4142 1.66406 41.5196 1.83984 41.6837C2.01562 41.8595 2.10938 42.1056 2.10938 42.3517C2.10938 42.5977 2.00391 42.8438 1.83984 43.0196C1.66406 43.1954 1.41797 43.2892 1.17188 43.2892Z" fill="url(#paint8_linear)"/>
<defs>
<linearGradient id="paint0_linear" x1="16.3631" y1="3.81012" x2="58.7853" y2="13.9782" gradientUnits="userSpaceOnUse">
<stop offset="0.223958" stop-color="#5D4157"/>
<stop offset="1" stop-color="#A8CABA"/>
</linearGradient>
<linearGradient id="paint1_linear" x1="51.8008" y1="50.1758" x2="53.1423" y2="50.4842" gradientUnits="userSpaceOnUse">
<stop offset="0.223958" stop-color="#5D4157"/>
<stop offset="1" stop-color="#A8CABA"/>
</linearGradient>
<linearGradient id="paint2_linear" x1="28.105" y1="18.6866" x2="53.7773" y2="24.5895" gradientUnits="userSpaceOnUse">
<stop offset="0.223958" stop-color="#5D4157"/>
<stop offset="1" stop-color="#A8CABA"/>
</linearGradient>
<linearGradient id="paint3_linear" x1="34.4561" y1="26.4697" x2="45.0594" y2="29.4055" gradientUnits="userSpaceOnUse">
<stop offset="0.223958" stop-color="#5D4157"/>
<stop offset="1" stop-color="#A8CABA"/>
</linearGradient>
<linearGradient id="paint4_linear" x1="47.6428" y1="34.2853" x2="49.6154" y2="35.0025" gradientUnits="userSpaceOnUse">
<stop offset="0.223958" stop-color="#5D4157"/>
<stop offset="1" stop-color="#A8CABA"/>
</linearGradient>
<linearGradient id="paint5_linear" x1="23.6663" y1="34.2499" x2="25.6388" y2="34.9671" gradientUnits="userSpaceOnUse">
<stop offset="0.223958" stop-color="#5D4157"/>
<stop offset="1" stop-color="#A8CABA"/>
</linearGradient>
<linearGradient id="paint6_linear" x1="35.9102" y1="21.7798" x2="37.2933" y2="21.9809" gradientUnits="userSpaceOnUse">
<stop offset="0.223958" stop-color="#5D4157"/>
<stop offset="1" stop-color="#A8CABA"/>
</linearGradient>
<linearGradient id="paint7_linear" x1="35.8867" y1="45.7564" x2="37.2699" y2="45.9576" gradientUnits="userSpaceOnUse">
<stop offset="0.223958" stop-color="#5D4157"/>
<stop offset="1" stop-color="#A8CABA"/>
</linearGradient>
<linearGradient id="paint8_linear" x1="0.742188" y1="41.4923" x2="2.08366" y2="41.8007" gradientUnits="userSpaceOnUse">
<stop offset="0.223958" stop-color="#5D4157"/>
<stop offset="1" stop-color="#A8CABA"/>
</linearGradient>
</defs>
</svg>
