<svg width="45" height="46" viewBox="0 0 45 46" fill="none" xmlns="http://www.w3.org/2000/svg">
<path d="M42.9268 16.0919L28.9732 2.12967C28.2157 1.37217 27.2171 0.958984 26.1411 0.958984C25.0737 0.958984 24.0666 1.37217 23.3091 2.12967L1.1865 24.2523C0.437599 25.0098 0.0244141 26.0083 0.0244141 27.0843C0.0244141 28.1517 0.437599 29.1588 1.1951 29.9163L2.91671 31.6379L14.4859 43.2071H12.8848C12.3769 43.2071 11.9637 43.6203 11.9637 44.1282C11.9637 44.6361 12.3769 45.0492 12.8848 45.0492H17.9807H31.2457C31.7536 45.0492 32.1667 44.6361 32.1667 44.1282C32.1667 43.6203 31.7536 43.2071 31.2457 43.2071H21.4756L42.9268 21.7559C44.4848 20.1893 44.4848 17.6499 42.9268 16.0919ZM41.6269 20.4475L19.5043 42.5701C19.0998 42.9747 18.5575 43.1985 17.9807 43.1985H17.9721C17.3954 43.1985 16.8531 42.9747 16.4485 42.5701L4.86212 30.9837L26.1067 9.73916C26.4682 9.37762 26.4682 8.80089 26.1067 8.43935C25.7452 8.07781 25.1684 8.07781 24.8069 8.43935L3.56231 29.6839L2.48631 28.6079C2.08173 28.2034 1.85792 27.661 1.85792 27.0757C1.85792 26.4904 2.08173 25.9481 2.48631 25.5435L24.6089 3.42088C25.0135 3.0163 25.5558 2.79249 26.1411 2.79249C26.7179 2.79249 27.2688 3.0163 27.6734 3.42088L32.6402 8.3877L11.3956 29.6409C11.0341 30.0024 11.0341 30.5792 11.3956 30.9407C11.5764 31.1215 11.8088 31.2075 12.0412 31.2075C12.2736 31.2075 12.5146 31.1215 12.6868 30.9407L33.9314 9.69612L41.6183 17.3831C42.4705 18.2353 42.4705 19.6039 41.6269 20.4475Z" fill="url(#paint0_linear)"/>
<path d="M22.6461 27.4803C22.2846 27.1187 21.7078 27.1187 21.3463 27.4803L14.1242 34.7024C13.7626 35.0639 13.7626 35.6407 14.1242 36.0022C14.3049 36.183 14.5374 36.2691 14.7698 36.2691C15.0022 36.2691 15.2432 36.183 15.4154 36.0022L22.6375 28.7801C23.0076 28.4185 23.0076 27.8418 22.6461 27.4803Z" fill="url(#paint1_linear)"/>
<path d="M19.6849 34.3409L16.7238 37.302C16.3623 37.6635 16.3623 38.2403 16.7238 38.6018C16.9046 38.7826 17.137 38.8687 17.3694 38.8687C17.6018 38.8687 17.8428 38.7826 18.015 38.6018L20.9762 35.6407C21.3377 35.2791 21.3377 34.7024 20.9762 34.3409C20.6146 33.9793 20.0379 33.9793 19.6849 34.3409Z" fill="url(#paint2_linear)"/>
<path d="M22.4051 31.6121L22.0177 31.9995C21.6562 32.361 21.6562 32.9377 22.0177 33.2993C22.1985 33.4801 22.4309 33.5661 22.6633 33.5661C22.8958 33.5661 23.1368 33.4801 23.3089 33.2993L23.6963 32.9119C24.0578 32.5504 24.0578 31.9736 23.6963 31.6121C23.352 31.2592 22.7666 31.2592 22.4051 31.6121Z" fill="url(#paint3_linear)"/>
<path d="M35.0677 15.0675C34.8955 14.8953 34.6631 14.8007 34.4221 14.8007C34.181 14.8007 33.9486 14.8953 33.7765 15.0675L29.8684 18.9583C29.6963 19.1305 29.6016 19.3629 29.6016 19.6039C29.6016 19.845 29.6963 20.0774 29.8684 20.2495L32.468 22.8492C32.6488 23.0299 32.8812 23.116 33.1136 23.116C33.3461 23.116 33.5871 23.0299 33.7592 22.8492L37.6587 18.9497C38.0202 18.5882 38.0202 18.0114 37.6587 17.6499L35.0677 15.0675ZM33.1136 20.9037L31.8138 19.6039L34.4134 17.0043L35.7133 18.3041L33.1136 20.9037Z" fill="url(#paint4_linear)"/>
<path d="M27.5958 7.87117C27.8282 7.87117 28.0692 7.78509 28.2414 7.60432L28.6287 7.21696C28.9903 6.85542 28.9903 6.27869 28.6287 5.91715C28.2672 5.55561 27.6905 5.55561 27.3289 5.91715L26.9416 6.30451C26.58 6.66605 26.58 7.24278 26.9416 7.60432C27.1309 7.77648 27.3634 7.87117 27.5958 7.87117Z" fill="url(#paint5_linear)"/>
<path d="M9.25226 31.7842L8.8649 32.1716C8.50337 32.5331 8.50337 33.1099 8.8649 33.4714C9.04567 33.6522 9.27809 33.7383 9.5105 33.7383C9.74292 33.7383 9.98394 33.6522 10.1561 33.4714L10.5435 33.084C10.905 32.7225 10.905 32.1458 10.5435 31.7842C10.1905 31.4313 9.6138 31.4313 9.25226 31.7842Z" fill="url(#paint6_linear)"/>
<defs>
<linearGradient id="paint0_linear" x1="11.9603" y1="2.79608" x2="43.4922" y2="10.0432" gradientUnits="userSpaceOnUse">
<stop stop-color="#B534BE"/>
<stop offset="1" stop-color="#451472"/>
</linearGradient>
<linearGradient id="paint1_linear" x1="16.3076" y1="27.5866" x2="22.7916" y2="29.078" gradientUnits="userSpaceOnUse">
<stop stop-color="#B534BE"/>
<stop offset="1" stop-color="#451472"/>
</linearGradient>
<linearGradient id="paint2_linear" x1="17.7512" y1="34.2697" x2="21.1818" y2="35.0578" gradientUnits="userSpaceOnUse">
<stop stop-color="#B534BE"/>
<stop offset="1" stop-color="#451472"/>
</linearGradient>
<linearGradient id="paint3_linear" x1="22.3481" y1="31.4399" x2="23.9368" y2="31.8055" gradientUnits="userSpaceOnUse">
<stop stop-color="#B534BE"/>
<stop offset="1" stop-color="#451472"/>
</linearGradient>
<linearGradient id="paint4_linear" x1="31.8571" y1="15.1471" x2="37.8147" y2="16.5191" gradientUnits="userSpaceOnUse">
<stop stop-color="#B534BE"/>
<stop offset="1" stop-color="#451472"/>
</linearGradient>
<linearGradient id="paint5_linear" x1="27.2742" y1="5.73871" x2="28.869" y2="6.10611" gradientUnits="userSpaceOnUse">
<stop stop-color="#B534BE"/>
<stop offset="1" stop-color="#451472"/>
</linearGradient>
<linearGradient id="paint6_linear" x1="9.19523" y1="31.612" x2="10.784" y2="31.9776" gradientUnits="userSpaceOnUse">
<stop stop-color="#B534BE"/>
<stop offset="1" stop-color="#451472"/>
</linearGradient>
</defs>
</svg>
