<svg width="48" height="16" viewBox="0 0 48 16" fill="none" xmlns="http://www.w3.org/2000/svg">
<path fill-rule="evenodd" clip-rule="evenodd" d="M39.2001 4.168C39.2001 1.8648 37.4345 0 35.2561 0C34.6641 0 34.1041 0.136 33.6001 0.384L37.9609 7.2C38.3569 6.80111 38.6703 6.32793 38.8829 5.80761C39.0956 5.28729 39.2034 4.73009 39.2001 4.168Z" fill="#E14C9A"/>
<path fill-rule="evenodd" clip-rule="evenodd" d="M0 0V12.5328C0 14.44 1.4368 16 3.2 16V3.4672L3.1984 3.4152C3.1688 1.524 1.7488 0 0 0ZM12.1312 12.5264V12.5272H8.128V9.7376H12.1312C12.868 9.7376 13.4656 10.3616 13.4656 11.132C13.4656 11.9024 12.868 12.5264 12.1312 12.5264ZM13.8376 6.5824L13.844 6.5648C14.0341 6.02401 14.131 5.45484 14.1304 4.8816C14.1304 2.2048 12.068 0.0336 9.5136 0.004C9.4992 0.004 9.4016 0 9.3656 0H4.8016C4.8016 1.9008 6.2496 3.4624 8.1064 3.4744H9.4616C10.1992 3.4744 10.7968 4.0984 10.7968 4.8688C10.7968 5.6392 10.1992 6.264 9.4616 6.264V6.2656H6.4536C5.5552 6.2704 4.8272 7.0184 4.8024 7.9528L4.8016 7.9448V7.9672L4.8 8.0016L4.8016 8.0352V12.524C4.8016 14.4312 6.2712 15.9784 8.0912 15.9992H8.0936L8.128 16L8.1624 15.9992H12.2864C14.7928 15.9136 16.8 13.7624 16.8 11.1232C16.8 9.0576 15.5712 7.2944 13.8376 6.5824ZM26 12.5248C23.6264 12.5248 21.7024 10.4992 21.7024 8.0016C21.7024 5.5032 23.6264 3.4776 26 3.4776C28.3736 3.4776 30.2976 5.5032 30.2976 8.0016C30.2976 10.4992 28.3736 12.5248 26 12.5248ZM25.9992 0C21.7992 0 18.4 3.5776 18.4 8C18.4 12.4224 21.7984 16 25.9992 16C30.2008 16 33.6 12.4224 33.6 8C33.6 3.5776 30.2008 0 25.9992 0ZM48 0.3176C47.4572 0.108009 46.8803 0.000341597 46.2984 0C44.628 0 43.156 0.8656 42.2928 2.1784H42.292L38.728 7.6976C38.728 7.6976 33.6 15.6584 33.6 15.6816C34.1304 15.8864 34.704 15.9992 35.304 15.9992C36.9752 15.9992 38.4464 15.1336 39.3096 13.8208H39.3104V13.8192L40.832 11.4928L42.3552 13.9136C43.2224 15.1752 44.6624 16 46.2912 16C46.8928 16 47.4688 15.888 47.9992 15.6816L43.0824 8.0456C43.9864 6.6296 48 0.3408 48 0.3176Z" fill="#3D3F40"/>
</svg>
