<svg width="46" height="50" viewBox="0 0 46 50" fill="none" xmlns="http://www.w3.org/2000/svg">
<path d="M43.2637 11.3965H34.7383V2.24609C34.7383 1.00586 33.7324 0 32.4922 0H2.73633C1.49609 0 0.490234 1.00586 0.490234 2.24609V47.7539C0.490234 48.9941 1.49609 50 2.73633 50H32.4922C33.7324 50 34.7383 48.9941 34.7383 47.7539V38.6035H43.2637C44.5039 38.6035 45.5098 37.5977 45.5098 36.3574V13.6426C45.5098 12.4023 44.5039 11.3965 43.2637 11.3965ZM34.7383 17.8223H35.002C36.7988 17.8223 38.2539 19.2773 38.2539 21.0742C38.2539 22.8711 36.7988 24.3164 35.002 24.3164H34.7383V17.8223ZM34.7383 30.498H41.2031V32.9102H34.7383V30.498ZM33.3711 47.7539C33.3711 48.2422 32.9805 48.6328 32.4922 48.6328H2.73633C2.24805 48.6328 1.85742 48.2422 1.85742 47.7539V2.24609C1.85742 1.75781 2.24805 1.36719 2.73633 1.36719H32.4922C32.9805 1.36719 33.3711 1.75781 33.3711 2.24609V47.7539ZM44.1426 36.3574C44.1426 36.8457 43.752 37.2363 43.2637 37.2363H34.7383V34.2773H41.8867C42.2676 34.2773 42.5703 33.9746 42.5703 33.5938V29.8145C42.5703 29.4336 42.2676 29.1309 41.8867 29.1309H34.7383V25.6836H35.002C37.5508 25.6836 39.6211 23.6133 39.6211 21.0645C39.6211 18.5156 37.5508 16.4453 35.002 16.4453H34.7383V12.7539H43.2637C43.752 12.7539 44.1426 13.1445 44.1426 13.6328V36.3574Z" fill="url(#paint0_linear)"/>
<path d="M17.6094 11.4453C17.0234 12.1094 16.6621 12.9883 16.6621 13.9453C16.7012 16.0449 16.9551 18.1445 16.9746 20.2441C17.0234 22.207 16.4375 24.043 15.7148 25.8398C15.4805 26.3379 15.2168 26.8164 14.9629 27.3047L14.2109 27.1484C13.5273 27.0117 13.0879 26.3477 13.2246 25.6641C13.3418 25.0684 13.8691 24.6484 14.4551 24.6484L14.7285 24.6777L14.1133 19.5313C13.9082 17.2461 12.7266 15.2344 10.998 13.9258C10.6953 13.7012 10.3828 13.4961 10.0508 13.3105V31.5723H14.2695C14.582 33.2812 15.5293 34.7754 16.8477 35.791C17.1602 36.0059 17.4238 36.2988 17.6191 36.6309C17.8047 36.2988 18.0684 36.0059 18.3906 35.791C19.7188 34.7656 20.6562 33.2812 20.9688 31.5723H25.1875V13.3105C24.8555 13.4961 24.543 13.7012 24.2402 13.9258C22.502 15.2344 21.3203 17.2363 21.125 19.5313L20.5098 24.6777L20.7832 24.6484C21.3691 24.6484 21.8965 25.0684 22.0137 25.6641C22.1504 26.3477 21.7109 27.0117 21.0273 27.1484L20.2754 27.3047C20.0215 26.8164 19.7578 26.3379 19.5234 25.8398C18.8105 24.043 18.2246 22.207 18.2637 20.2441C18.2832 18.1348 18.5469 16.0449 18.5762 13.9453C18.5664 12.9883 18.2051 12.1191 17.6094 11.4453ZM11.3008 15.9668C12.1211 16.9238 12.668 18.1152 12.8242 19.4336L13.332 23.6719C12.6875 23.9941 12.1992 24.5801 12.0137 25.293H11.3008V15.9668ZM23.9082 15.9668V25.293H23.1953C23.0098 24.5801 22.5215 23.9941 21.877 23.6719L22.3848 19.4336C22.541 18.1152 23.0879 16.9238 23.9082 15.9668ZM17.6094 24.4922C17.9512 25.5957 18.4102 26.6504 18.9961 27.627C18.4492 27.793 17.9707 28.1152 17.6094 28.5547C17.2578 28.1152 16.7793 27.793 16.2227 27.627C16.7988 26.6504 17.2676 25.5957 17.6094 24.4922ZM11.3008 26.5527H12.0137C12.2383 27.4219 12.9219 28.1055 13.7813 28.3496L14.3867 28.4863C14.2207 29.0723 14.1328 29.6875 14.1328 30.332H11.3008V26.5527ZM23.1953 26.5527H23.9082V30.332H21.0762C21.0762 29.6973 20.9883 29.0723 20.8223 28.4863L21.4277 28.3496C22.2969 28.1152 22.9707 27.4219 23.1953 26.5527ZM15.627 28.7793C16.3887 28.8867 16.9844 29.541 16.9844 30.332H15.4121C15.4023 29.7949 15.4805 29.2773 15.627 28.7793ZM19.5918 28.7793C19.7383 29.2773 19.8164 29.7949 19.8164 30.332H18.2441C18.2344 29.541 18.8301 28.8867 19.5918 28.7793ZM15.5488 31.6016H16.9844V34.2578C16.2812 33.5254 15.7832 32.6074 15.5488 31.6016ZM18.2344 31.6016H19.6699C19.4355 32.6172 18.9277 33.5254 18.2344 34.2578V31.6016Z" fill="url(#paint1_linear)"/>
<defs>
<linearGradient id="paint0_linear" x1="12.683" y1="2.08333" x2="45.2014" y2="8.81563" gradientUnits="userSpaceOnUse">
<stop stop-color="#B534BE"/>
<stop offset="1" stop-color="#451472"/>
</linearGradient>
<linearGradient id="paint1_linear" x1="14.1503" y1="12.4947" x2="25.3388" y2="14.0409" gradientUnits="userSpaceOnUse">
<stop stop-color="#B534BE"/>
<stop offset="1" stop-color="#451472"/>
</linearGradient>
</defs>
</svg>
