<svg width="56" height="59" viewBox="0 0 56 59" fill="none" xmlns="http://www.w3.org/2000/svg">
<path d="M8.5797 58.6353C6.30916 58.6353 3.81889 58.562 1.32862 58.3423C1.25538 58.3423 1.18214 58.3423 1.10889 58.269H1.03565C0.962407 58.269 0.889164 58.1958 0.889164 58.1958C0.815921 58.1226 0.742678 58.0493 0.669435 57.9761C0.669435 57.9028 0.596191 57.9028 0.596191 57.8296C0.596191 57.7563 0.596191 57.7563 0.596191 57.6831C0.596191 57.6831 0.596191 57.6831 0.596191 57.6099V57.5366C0.596191 57.5366 0.596191 57.5366 0.596191 57.4634C0.596191 57.3901 0.596191 57.3901 0.596191 57.3169C0.596191 57.3169 0.596191 57.3169 0.596191 57.2436C0.596191 57.1704 0.596191 57.1704 0.669435 57.0972C0.742678 57.0239 0.815921 56.9507 0.889164 56.8774L0.962407 56.8042C0.962407 56.8042 0.962407 56.8042 1.03565 56.8042C1.03565 56.8042 1.10889 56.8042 1.10889 56.7309C7.99375 54.4604 10.3375 51.7504 10.3375 51.6772C10.484 51.4574 10.777 51.3842 10.9967 51.3842H11.07C11.2165 51.3842 11.3629 51.4574 11.5094 51.6039C11.8756 51.8969 11.9489 52.4828 11.6559 52.8491C11.6559 52.8491 11.07 53.5815 9.6051 54.6069L9.82483 55.0463C24.4735 51.018 36.0459 41.5696 44.1759 26.8477C51.3537 13.6639 53.0383 0.919628 53.1116 0.846385C53.1848 0.406925 53.551 0.113953 53.9905 0.113953H54.0637C54.5764 0.187196 54.8694 0.626655 54.7962 1.06611C54.7962 1.35909 53.9905 7.43827 51.0608 15.5683L50.9875 15.7148L51.0608 15.788C51.9397 16.8134 54.0637 19.6699 55.1624 23.6983C56.4808 28.6788 55.6751 33.6593 52.8918 38.5666L52.1594 39.8118L49.6691 35.8566V36.6623C49.5959 38.2737 49.3762 39.885 48.9367 41.5696C48.8635 41.9358 48.4972 42.2288 48.131 42.2288C48.0578 42.2288 47.9845 42.2288 47.9113 42.2288C47.6916 42.1555 47.4718 42.0091 47.3986 41.7893C47.2521 41.5696 47.2521 41.3499 47.3254 41.1301C48.6437 36.2961 47.7648 33.1466 47.5451 32.341L49.1564 31.5353L52.3059 36.5891L52.5256 36.1496C56.4808 27.5069 52.6721 20.622 50.841 18.0585L50.5481 17.6923L50.4016 18.1318C49.0832 21.4277 47.6183 24.6504 45.9337 27.6534C42.1983 33.8791 37.9502 39.4455 33.0429 43.9866C26.744 49.8461 19.3465 54.0209 11.1432 56.3647L11.2165 56.8774C19.0535 56.6577 25.4256 55.2661 30.1864 52.7758C34.0683 50.725 35.8262 48.4545 36.5586 47.2826C36.7783 46.9164 37.1446 46.6966 37.584 46.6966C37.6572 46.6966 37.7305 46.6966 37.8037 46.6966C38.3164 46.7699 38.6827 47.1361 38.7559 47.6488L39.1954 50.432L39.4883 50.3588C43.4435 48.8207 45.8605 44.4261 45.8605 44.4261C46.007 44.1331 46.2999 43.9866 46.5929 43.9866H46.6662C46.7394 43.9866 46.8859 44.0599 46.9591 44.0599C47.3986 44.2796 47.5451 44.7923 47.3254 45.2318C47.1789 45.4515 44.1027 51.2377 38.6094 52.4096L37.7305 52.6293L37.1446 49.4066L36.7783 49.6996C33.9218 53.0688 26.5243 58.6353 8.5797 58.6353Z" fill="url(#paint0_linear)"/>
<path d="M13.707 49.3334C13.4873 49.3334 13.2676 49.2601 13.0479 49.0404C12.9014 48.8939 12.8281 48.6742 12.8281 48.4545C12.8281 48.2347 12.9014 48.015 13.1211 47.8685C14.2197 46.8431 15.9776 44.3528 16.5635 43.4739L16.71 43.1077L21.4708 42.5218L18.3946 41.0569L24.0343 32.1212L32.677 29.1915L26.7443 27.2872L27.1838 26.4083C32.8968 14.2499 44.5424 13.5175 45.0551 13.4442C45.0551 13.4442 45.0551 13.4442 45.1284 13.4442H45.2016C45.6411 13.5175 45.9341 13.8104 45.9341 14.2499C45.9341 14.7626 45.5678 15.1288 45.1284 15.1288C44.6889 15.1288 34.7278 15.8612 29.3078 25.8956L29.1614 26.2618L35.1673 28.1661C35.6068 28.3126 35.8997 28.6788 35.8997 29.1915C35.8997 29.631 35.6068 30.0704 35.1673 30.2169L25.133 33.5861L20.8849 40.3977L27.6965 43.6204L17.7354 44.7923L17.6622 44.8655C17.003 45.8177 15.4649 48.0882 14.293 49.1869C14.1465 49.2601 13.9268 49.3334 13.707 49.3334Z" fill="url(#paint1_linear)"/>
<defs>
<linearGradient id="paint0_linear" x1="15.542" y1="2.55234" x2="55.2445" y2="11.1608" gradientUnits="userSpaceOnUse">
<stop stop-color="#B534BE"/>
<stop offset="1" stop-color="#451472"/>
</linearGradient>
<linearGradient id="paint1_linear" x1="21.7943" y1="14.9396" x2="45.6586" y2="20.0013" gradientUnits="userSpaceOnUse">
<stop stop-color="#B534BE"/>
<stop offset="1" stop-color="#451472"/>
</linearGradient>
</defs>
</svg>
