<svg width="56" height="59" viewBox="0 0 56 59" fill="none" xmlns="http://www.w3.org/2000/svg">
<path d="M8.57921 58.6353C6.30867 58.6353 3.8184 58.562 1.32814 58.3423C1.25489 58.3423 1.18165 58.3423 1.10841 58.269H1.03516C0.961919 58.269 0.888676 58.1958 0.888676 58.1958C0.815433 58.1226 0.742189 58.0493 0.668946 57.9761C0.668946 57.9028 0.595703 57.9028 0.595703 57.8296C0.595703 57.7563 0.595703 57.7563 0.595703 57.6831C0.595703 57.6831 0.595703 57.6831 0.595703 57.6099V57.5366C0.595703 57.5366 0.595703 57.5366 0.595703 57.4634C0.595703 57.3901 0.595703 57.3901 0.595703 57.3169C0.595703 57.3169 0.595703 57.3169 0.595703 57.2436C0.595703 57.1704 0.595703 57.1704 0.668946 57.0972C0.742189 57.0239 0.815433 56.9507 0.888676 56.8774L0.961919 56.8042C0.961919 56.8042 0.961919 56.8042 1.03516 56.8042C1.03516 56.8042 1.10841 56.8042 1.10841 56.7309C7.99327 54.4604 10.337 51.7504 10.337 51.6772C10.4835 51.4574 10.7765 51.3842 10.9962 51.3842H11.0695C11.216 51.3842 11.3625 51.4574 11.5089 51.6039C11.8752 51.8969 11.9484 52.4828 11.6554 52.8491C11.6554 52.8491 11.0695 53.5815 9.60462 54.6069L9.82435 55.0463C24.473 51.018 36.0454 41.5696 44.1754 26.8477C51.3532 13.6639 53.0378 0.919628 53.1111 0.846385C53.1843 0.406925 53.5505 0.113953 53.99 0.113953H54.0632C54.5759 0.187196 54.8689 0.626655 54.7957 1.06611C54.7957 1.35909 53.99 7.43827 51.0603 15.5683L50.987 15.7148L51.0603 15.788C51.9392 16.8134 54.0632 19.6699 55.1619 23.6983C56.4803 28.6788 55.6746 33.6593 52.8913 38.5666L52.1589 39.8118L49.6686 35.8566V36.6623C49.5954 38.2737 49.3757 39.885 48.9362 41.5696C48.863 41.9358 48.4968 42.2288 48.1305 42.2288C48.0573 42.2288 47.9841 42.2288 47.9108 42.2288C47.6911 42.1555 47.4714 42.0091 47.3981 41.7893C47.2516 41.5696 47.2516 41.3499 47.3249 41.1301C48.6432 36.2961 47.7643 33.1466 47.5446 32.341L49.1559 31.5353L52.3054 36.5891L52.5251 36.1496C56.4803 27.5069 52.6716 20.622 50.8405 18.0585L50.5476 17.6923L50.4011 18.1318C49.0827 21.4277 47.6178 24.6504 45.9332 27.6534C42.1978 33.8791 37.9497 39.4455 33.0424 43.9866C26.7435 49.8461 19.346 54.0209 11.1427 56.3647L11.216 56.8774C19.053 56.6577 25.4251 55.2661 30.186 52.7758C34.0678 50.725 35.8257 48.4545 36.5581 47.2826C36.7778 46.9164 37.1441 46.6966 37.5835 46.6966C37.6568 46.6966 37.73 46.6966 37.8032 46.6966C38.316 46.7699 38.6822 47.1361 38.7554 47.6488L39.1949 50.432L39.4878 50.3588C43.443 48.8207 45.86 44.4261 45.86 44.4261C46.0065 44.1331 46.2995 43.9866 46.5924 43.9866H46.6657C46.7389 43.9866 46.8854 44.0599 46.9587 44.0599C47.3981 44.2796 47.5446 44.7923 47.3249 45.2318C47.1784 45.4515 44.1022 51.2377 38.6089 52.4096L37.73 52.6293L37.1441 49.4066L36.7778 49.6996C33.9214 53.0688 26.5238 58.6353 8.57921 58.6353Z" fill="url(#paint0_linear)"/>
<path d="M13.7061 49.3334C13.4863 49.3334 13.2666 49.2601 13.0469 49.0404C12.9004 48.8939 12.8271 48.6742 12.8271 48.4545C12.8271 48.2347 12.9004 48.015 13.1201 47.8685C14.2188 46.8431 15.9766 44.3528 16.5626 43.4739L16.709 43.1077L21.4698 42.5218L18.3936 41.0569L24.0334 32.1212L32.6761 29.1915L26.7434 27.2872L27.1828 26.4083C32.8958 14.2499 44.5415 13.5175 45.0542 13.4442C45.0542 13.4442 45.0542 13.4442 45.1274 13.4442H45.2006C45.6401 13.5175 45.9331 13.8104 45.9331 14.2499C45.9331 14.7626 45.5669 15.1288 45.1274 15.1288C44.6879 15.1288 34.7269 15.8612 29.3069 25.8956L29.1604 26.2618L35.1663 28.1661C35.6058 28.3126 35.8988 28.6788 35.8988 29.1915C35.8988 29.631 35.6058 30.0704 35.1663 30.2169L25.132 33.5861L20.8839 40.3977L27.6955 43.6204L17.7344 44.7923L17.6612 44.8655C17.002 45.8177 15.4639 48.0882 14.292 49.1869C14.1455 49.2601 13.9258 49.3334 13.7061 49.3334Z" fill="url(#paint1_linear)"/>
<defs>
<linearGradient id="paint0_linear" x1="15.5415" y1="2.55234" x2="55.244" y2="11.1608" gradientUnits="userSpaceOnUse">
<stop offset="0.223958" stop-color="#5D4157"/>
<stop offset="1" stop-color="#A8CABA"/>
</linearGradient>
<linearGradient id="paint1_linear" x1="21.7933" y1="14.9396" x2="45.6576" y2="20.0013" gradientUnits="userSpaceOnUse">
<stop offset="0.223958" stop-color="#5D4157"/>
<stop offset="1" stop-color="#A8CABA"/>
</linearGradient>
</defs>
</svg>
