<svg width="40" height="50" viewBox="0 0 40 50" fill="none" xmlns="http://www.w3.org/2000/svg">
<path d="M14.1699 45C13.7109 45 13.3398 45.3711 13.3398 45.8301C13.3398 46.2891 13.7109 46.6602 14.1699 46.6602H15.8398C16.2988 46.6602 16.6699 46.2891 16.6699 45.8301C16.6699 45.3711 16.2988 45 15.8398 45H14.1699Z" fill="url(#paint0_linear)"/>
<path d="M37.5 15H30V12.5C30 12.041 29.6289 11.6699 29.1699 11.6699C28.7109 11.6699 28.3398 12.041 28.3398 12.5V15H15.8398C14.4629 15 13.3398 16.123 13.3398 17.5V32.5C13.3398 33.877 14.4629 35 15.8398 35H28.3398V40.8301H25.8398C25.3809 40.8301 25.0098 41.2012 25.0098 41.6602C25.0098 42.1191 25.3809 42.4902 25.8398 42.4902H28.3398V47.4902C28.3398 47.9492 27.9687 48.3203 27.5098 48.3203H2.50977C2.05078 48.3203 1.67969 47.9492 1.67969 47.4902V42.4902H20.8496C21.3086 42.4902 21.6797 42.1191 21.6797 41.6602C21.6797 41.2012 21.3086 40.8301 20.8496 40.8301H1.66992V8.33008H4.16992C4.62891 8.33008 5 7.95898 5 7.5C5 7.04102 4.62891 6.66992 4.16992 6.66992H1.66992V2.5C1.66992 2.04102 2.04102 1.66992 2.5 1.66992H27.5C27.959 1.66992 28.3301 2.04102 28.3301 2.5V6.66992H9.16992C8.71094 6.66992 8.33984 7.04102 8.33984 7.5C8.33984 7.95898 8.71094 8.33008 9.16992 8.33008H29.1699C29.6289 8.33008 30 7.95898 30 7.5V2.5C30 1.12305 28.877 0 27.5 0H2.5C1.12305 0 0 1.12305 0 2.5V47.5C0 48.877 1.12305 50 2.5 50H27.5C28.877 50 30 48.877 30 47.5V35H37.5C38.877 35 40 33.877 40 32.5V17.5C40 16.123 38.877 15 37.5 15ZM38.3301 32.5C38.3301 32.959 37.959 33.3301 37.5 33.3301H15.8301C15.3711 33.3301 15 32.959 15 32.5V17.5C15 17.041 15.3711 16.6699 15.8301 16.6699H37.5C37.959 16.6699 38.3301 17.041 38.3301 17.5V32.5Z" fill="url(#paint1_linear)"/>
<path d="M35.967 19.1797C35.7522 19.1406 35.5276 19.1992 35.342 19.3262L26.6702 25.6348L17.9983 19.3262C17.7542 19.1504 17.4417 19.1211 17.1682 19.2383C16.8948 19.3555 16.7092 19.6191 16.6799 19.9121C16.6506 20.2051 16.7776 20.4981 17.0217 20.6738L26.1917 27.3438C26.2209 27.3633 26.2502 27.3731 26.2795 27.3828C26.3088 27.4024 26.3381 27.4121 26.3674 27.4219C26.4651 27.4707 26.5823 27.5 26.6897 27.5C26.8069 27.5 26.9143 27.4707 27.012 27.4219C27.0413 27.4121 27.0706 27.3926 27.0999 27.3828C27.1292 27.3731 27.1584 27.3535 27.1877 27.3438L36.3577 20.6738C36.7288 20.4004 36.8069 19.8828 36.5432 19.5117C36.3772 19.3262 36.1819 19.209 35.967 19.1797Z" fill="url(#paint2_linear)"/>
<path d="M20.6638 26.4942L16.9138 30.2441C16.699 30.4492 16.6111 30.7617 16.6892 31.0547C16.7674 31.3477 16.992 31.5723 17.2849 31.6504C17.5779 31.7285 17.8904 31.6406 18.0955 31.4258L21.8455 27.6758C22.158 27.3535 22.158 26.8262 21.8357 26.5039C21.5037 26.1817 20.9861 26.1817 20.6638 26.4942Z" fill="url(#paint3_linear)"/>
<path d="M32.6755 26.4942C32.3533 26.1817 31.8259 26.1817 31.5037 26.5039C31.1814 26.8262 31.1814 27.3438 31.4939 27.6758L35.2439 31.4258C35.5662 31.7383 36.0935 31.7383 36.4158 31.416C36.738 31.0938 36.738 30.5762 36.4255 30.2442L32.6755 26.4942Z" fill="url(#paint4_linear)"/>
<defs>
<linearGradient id="paint0_linear" x1="14.2417" y1="45.0692" x2="16.3102" y2="46.0232" gradientUnits="userSpaceOnUse">
<stop stop-color="#B534BE"/>
<stop offset="1" stop-color="#451472"/>
</linearGradient>
<linearGradient id="paint1_linear" x1="10.8333" y1="2.08333" x2="39.9782" y2="7.44446" gradientUnits="userSpaceOnUse">
<stop stop-color="#B534BE"/>
<stop offset="1" stop-color="#451472"/>
</linearGradient>
<linearGradient id="paint2_linear" x1="22.0987" y1="19.5149" x2="33.6536" y2="25.8995" gradientUnits="userSpaceOnUse">
<stop stop-color="#B534BE"/>
<stop offset="1" stop-color="#451472"/>
</linearGradient>
<linearGradient id="paint3_linear" x1="18.1284" y1="26.4867" x2="22.0043" y2="27.3779" gradientUnits="userSpaceOnUse">
<stop stop-color="#B534BE"/>
<stop offset="1" stop-color="#451472"/>
</linearGradient>
<linearGradient id="paint4_linear" x1="32.7227" y1="26.4859" x2="36.5847" y2="27.3739" gradientUnits="userSpaceOnUse">
<stop stop-color="#B534BE"/>
<stop offset="1" stop-color="#451472"/>
</linearGradient>
</defs>
</svg>
