<svg width="40" height="40" viewBox="0 0 40 40" fill="none" xmlns="http://www.w3.org/2000/svg">
<g clip-path="url(#clip0)">
<path d="M20.5183 34.4C13.548 34.2235 9.45293 31.4885 9.40936 31.4885L9.23511 31.3562L9.14798 31.1797C8.93016 30.6504 8.79946 29.6799 8.79946 28.4447C8.62521 25.7097 9.58362 23.901 11.544 23.3717C13.6787 22.8423 15.4648 21.7836 16.1183 21.3425C16.2054 21.2984 16.3361 21.2542 16.4232 21.2542C16.641 21.2542 16.8153 21.3425 16.9024 21.5189C17.0331 21.6954 17.0331 21.8718 17.0331 22.0483C16.9896 22.2247 16.9024 22.3571 16.7717 22.4453C16.0311 22.8864 14.1143 24.0334 11.849 24.6069C10.2371 25.048 10.0193 26.9007 10.15 28.3565V28.4447C10.15 29.0623 10.1935 29.9887 10.2807 30.4298V30.4739H10.3242C11.9797 31.4003 15.5084 32.9443 20.5618 33.0766C20.9104 33.0766 21.1717 33.3854 21.1717 33.6942C21.1282 34.0912 20.8668 34.4 20.5183 34.4ZM23.4807 34.0471C23.2628 34.0471 23.045 33.8706 23.045 33.606V26.0626C23.045 25.842 23.2193 25.6215 23.4807 25.6215H25.049V23.5481C25.049 21.2542 26.8787 19.4015 29.144 19.4015C29.2311 19.4015 29.3183 19.4015 29.4054 19.4015C31.5401 19.5338 33.2391 21.4307 33.2391 23.6805V25.6656H34.7638C34.9816 25.6656 35.1995 25.842 35.1995 26.1067V33.606C35.1995 33.8265 35.0252 34.0471 34.7638 34.0471H23.4807ZM24.3084 32.7678H33.9361V26.9449H24.3084V32.7678ZM26.3995 25.6215H32.0193V23.5481C32.0193 21.9601 30.7559 20.6808 29.1876 20.6808C27.6193 20.6808 26.3559 21.9601 26.3559 23.5481V23.6364H26.3995V25.6215ZM21.1282 20.5484C19.342 20.5043 17.948 19.8867 16.9024 18.7398C14.5064 16.0048 14.9856 11.3288 14.9856 11.1523C15.247 6.4763 18.3836 4.8 20.9975 4.8C21.0846 4.8 21.1282 4.8 21.2153 4.8C21.3024 4.8 21.346 4.8 21.4331 4.8C24.0034 4.8 27.0965 6.4763 27.4014 11.1082C27.445 11.5934 27.8371 16.093 25.5282 18.7398C24.4391 19.9309 23.0886 20.5043 21.3024 20.5484H21.1282ZM16.3361 11.1964C16.2054 11.5934 15.9876 15.696 17.8609 17.8575C18.645 18.7839 19.7341 19.2692 21.1282 19.2692H21.2153C22.6094 19.2692 23.6549 18.828 24.4826 17.8575C26.3123 15.7842 26.0945 11.9905 26.051 11.2405V11.1964C25.8767 6.34396 22.1737 6.07928 21.4331 6.07928C21.346 6.07928 21.3024 6.07928 21.2589 6.07928H21.041C19.9519 6.07928 16.5539 6.43219 16.3361 11.1964Z" fill="#FE5000"/>
</g>
<defs>
<clipPath id="clip0">
<rect width="26.4" height="29.6" fill="white" transform="translate(8.7998 4.8)"/>
</clipPath>
</defs>
</svg>
