<svg width="28" height="31" viewBox="0 0 28 31" fill="none" xmlns="http://www.w3.org/2000/svg">
<g clip-path="url(#clip0)">
<path d="M12.5188 30.4C5.54847 30.2235 1.45342 27.4885 1.40985 27.4885L1.2356 27.3562L1.14847 27.1797C0.930645 26.6504 0.799952 25.6799 0.799952 24.4447C0.625694 21.7097 1.58411 19.901 3.54451 19.3717C5.67916 18.8423 7.4653 17.7836 8.11876 17.3425C8.20589 17.2984 8.33659 17.2542 8.42372 17.2542C8.64154 17.2542 8.81579 17.3425 8.90292 17.5189C9.03362 17.6954 9.03362 17.8718 9.03362 18.0483C8.99005 18.2247 8.90292 18.3571 8.77223 18.4453C8.03164 18.8864 6.1148 20.0334 3.84946 20.6069C2.23758 21.048 2.01975 22.9007 2.15045 24.3565V24.4447C2.15045 25.0623 2.19401 25.9887 2.28114 26.4298V26.4739H2.3247C3.98015 27.4003 7.50886 28.9443 12.5623 29.0766C12.9108 29.0766 13.1722 29.3854 13.1722 29.6942C13.1287 30.0912 12.8673 30.4 12.5188 30.4ZM15.4811 30.0471C15.2633 30.0471 15.0455 29.8706 15.0455 29.606V22.0626C15.0455 21.842 15.2198 21.6215 15.4811 21.6215H17.0495V19.5481C17.0495 17.2542 18.8792 15.4015 21.1445 15.4015C21.2316 15.4015 21.3188 15.4015 21.4059 15.4015C23.5406 15.5338 25.2396 17.4307 25.2396 19.6805V21.6656H26.7643C26.9821 21.6656 27.2 21.842 27.2 22.1067V29.606C27.2 29.8265 27.0257 30.0471 26.7643 30.0471H15.4811ZM16.3089 28.7678H25.9366V22.9449H16.3089V28.7678ZM18.4 21.6215H24.0198V19.5481C24.0198 17.9601 22.7564 16.6808 21.1881 16.6808C19.6198 16.6808 18.3564 17.9601 18.3564 19.5481V19.6364H18.4V21.6215ZM13.1287 16.5484C11.3425 16.5043 9.94847 15.8867 8.90292 14.7398C6.50688 12.0048 6.98609 7.32876 6.98609 7.15231C7.24748 2.4763 10.3841 0.799999 12.998 0.799999C13.0851 0.799999 13.1287 0.799999 13.2158 0.799999C13.3029 0.799999 13.3465 0.799999 13.4336 0.799999C16.0039 0.799999 19.097 2.4763 19.4019 7.1082C19.4455 7.59344 19.8376 12.093 17.5287 14.7398C16.4396 15.9309 15.0891 16.5043 13.3029 16.5484H13.1287ZM8.33659 7.19642C8.20589 7.59344 7.98807 11.696 9.86134 13.8575C10.6455 14.7839 11.7346 15.2692 13.1287 15.2692H13.2158C14.6099 15.2692 15.6554 14.828 16.4831 13.8575C18.3128 11.7842 18.095 7.99046 18.0514 7.24054V7.19642C17.8772 2.34396 14.1742 2.07928 13.4336 2.07928C13.3465 2.07928 13.3029 2.07928 13.2594 2.07928H13.0415C11.9524 2.07928 8.55441 2.43219 8.33659 7.19642Z" fill="url(#paint0_linear)"/>
</g>
<defs>
<linearGradient id="paint0_linear" x1="7.93525" y1="2.03333" x2="27.0325" y2="5.95273" gradientUnits="userSpaceOnUse">
<stop stop-color="#B534BE"/>
<stop offset="1" stop-color="#451472"/>
</linearGradient>
<clipPath id="clip0">
<rect width="26.4" height="29.6" fill="white" transform="translate(0.799805 0.799999)"/>
</clipPath>
</defs>
</svg>
