<svg width="40" height="40" viewBox="0 0 40 40" fill="none" xmlns="http://www.w3.org/2000/svg">
<g clip-path="url(#clip0)">
<path d="M39.5625 32.3048L31.3359 24.0782C31.0547 23.797 30.6797 23.6407 30.2891 23.6407C30.0156 23.6407 29.75 23.7188 29.5234 23.8517L24.8984 19.2267C24.6641 18.9923 24.2813 18.9923 24.0391 19.2267C23.8047 19.461 23.8047 19.8438 24.0391 20.086L28.625 24.672L26.9375 26.3595L18.5313 17.961L20.2188 16.2735L21.3438 17.3985C21.5781 17.6329 21.9609 17.6329 22.2031 17.3985C22.4375 17.1642 22.4375 16.7813 22.2031 16.5392L21.0781 15.4142L24.0078 12.4845L24.2422 12.7188C24.5313 13.0079 24.9141 13.1642 25.3203 13.1642C25.7266 13.1642 26.1094 13.0079 26.3984 12.7188L27.4766 11.6407C27.7656 11.3517 27.9219 10.9688 27.9219 10.5626C27.9219 10.1563 27.7656 9.77353 27.4766 9.48446L19.1875 1.17978C18.8984 0.890713 18.5156 0.734463 18.1094 0.734463C17.7031 0.734463 17.3203 0.890713 17.0313 1.17978L15.9531 2.26571C15.6641 2.55478 15.5078 2.93759 15.5078 3.34384C15.5078 3.75009 15.6641 4.1329 15.9531 4.42196L16.1875 4.65634L6.91406 13.922L6.67969 13.6876C6.08594 13.0938 5.11719 13.0938 4.52344 13.6876L3.44531 14.7657C3.15625 15.0548 3 15.4376 3 15.8438C3 16.2501 3.15625 16.6329 3.44531 16.922L11.7344 25.211C12.0234 25.5001 12.4063 25.6563 12.8125 25.6563C13.2188 25.6563 13.6016 25.5001 13.8906 25.211L14.9688 24.1329C15.5625 23.5392 15.5625 22.5704 14.9688 21.9767L14.7344 21.7423L17.6641 18.8126L26.1172 27.2657C25.9766 27.4923 25.9063 27.7579 25.9063 28.0313C25.9063 28.4298 26.0625 28.797 26.3438 29.0782L34.5703 37.3048C34.8516 37.586 35.2266 37.7423 35.6172 37.7423C36.0156 37.7423 36.3828 37.586 36.6641 37.3048L39.5625 34.4063C39.8438 34.1251 40 33.7501 40 33.3595C40 32.9688 39.8438 32.586 39.5625 32.3048ZM16.8047 3.11728L17.8906 2.03915C17.9531 1.97665 18.0313 1.9454 18.1094 1.9454C18.1953 1.9454 18.2734 1.97665 18.3281 2.03915L26.6172 10.3282C26.6797 10.3907 26.7109 10.4688 26.7109 10.547C26.7109 10.6251 26.6797 10.711 26.6172 10.7657L25.5391 11.8438C25.4219 11.961 25.2188 11.961 25.0938 11.8438L16.8047 3.56259C16.7422 3.50009 16.7109 3.42196 16.7109 3.34384C16.7188 3.2579 16.75 3.17978 16.8047 3.11728ZM14.1094 23.2813L13.0313 24.3595C12.9141 24.4767 12.7109 24.4767 12.5859 24.3595L4.29688 16.0704C4.23438 16.0079 4.20312 15.9298 4.20312 15.8517C4.20312 15.7735 4.23438 15.6876 4.29688 15.6329L5.375 14.5548C5.4375 14.4923 5.51562 14.461 5.59375 14.461C5.67188 14.461 5.75 14.4923 5.8125 14.5548L14.1016 22.8438C14.2344 22.961 14.2344 23.1563 14.1094 23.2813ZM17.2422 17.5313L13.8828 20.8907L7.77344 14.7813L17.0391 5.5079L23.1484 11.6173L19.7891 14.9767L17.2422 17.5313ZM38.7109 33.547L35.8125 36.4454C35.7422 36.5157 35.6641 36.5235 35.625 36.5235C35.5859 36.5235 35.5 36.5157 35.4375 36.4454L27.1953 28.2188C27.125 28.1485 27.1172 28.0704 27.1172 28.0313C27.1172 27.9923 27.125 27.9063 27.1953 27.8438L27.375 27.6642L30.1016 24.9376C30.1719 24.8673 30.25 24.8595 30.2891 24.8595C30.3281 24.8595 30.4141 24.8673 30.4766 24.9376L38.7031 33.1642C38.7734 33.2345 38.7813 33.3126 38.7813 33.3517C38.7813 33.3907 38.7734 33.4767 38.7109 33.547Z" fill="url(#paint0_linear)"/>
<path d="M23.0312 33.8907H22.1016V30.6954C22.1016 29.9845 21.5234 29.4063 20.8125 29.4063H10.3594C10.0234 29.4063 9.75 29.6798 9.75 30.0157C9.75 30.3516 10.0234 30.6251 10.3594 30.6251H20.8125C20.8594 30.6251 20.8906 30.6641 20.8906 30.7032V33.8985H4.77344V30.7032C4.77344 30.6563 4.8125 30.6251 4.85156 30.6251H6.53906C6.875 30.6251 7.14844 30.3516 7.14844 30.0157C7.14844 29.6798 6.875 29.4063 6.53906 29.4063H4.85938C4.14844 29.4063 3.57031 29.9845 3.57031 30.6954V33.8907H2.63281C1.17969 33.8907 0 35.0704 0 36.5235V38.2501C0 38.8126 0.453125 39.2657 1.01562 39.2657H24.6562C25.2188 39.2657 25.6719 38.8126 25.6719 38.2501V36.5235C25.6719 35.0704 24.4844 33.8907 23.0312 33.8907ZM24.4531 38.0548H1.21094V36.5235C1.21094 35.7423 1.85156 35.1016 2.63281 35.1016H23.0312C23.8125 35.1016 24.4531 35.7423 24.4531 36.5235V38.0548Z" fill="url(#paint1_linear)"/>
</g>
<defs>
<linearGradient id="paint0_linear" x1="13.0208" y1="2.27645" x2="39.4931" y2="8.36204" gradientUnits="userSpaceOnUse">
<stop stop-color="#B534BE"/>
<stop offset="1" stop-color="#451472"/>
</linearGradient>
<linearGradient id="paint1_linear" x1="6.9528" y1="29.8171" x2="21.1882" y2="38.3399" gradientUnits="userSpaceOnUse">
<stop stop-color="#B534BE"/>
<stop offset="1" stop-color="#451472"/>
</linearGradient>
<clipPath id="clip0">
<rect width="40" height="40" fill="white"/>
</clipPath>
</defs>
</svg>
