<svg width="60" height="60" viewBox="0 0 60 60" fill="none" xmlns="http://www.w3.org/2000/svg">
<path d="M31.5312 6.79688C31.4961 6.79688 31.4727 6.79688 31.4375 6.79688C30.957 6.75 30.5938 6.35156 30.5938 5.87109C30.5938 5.35547 31.0156 4.93359 31.5312 4.93359C32.0469 4.93359 32.4688 5.35547 32.4688 5.87109C32.4688 6.11719 32.375 6.36328 32.1992 6.53906C32.0117 6.70312 31.7773 6.79688 31.5312 6.79688Z" fill="url(#paint0_linear)"/>
<path d="M26.375 59.7656C26.2812 59.7656 26.1875 59.7539 26.1055 59.7305C19.0391 57.6094 13.0039 53.3672 8.63281 47.4609C4.29687 41.5781 2 34.6289 2 27.3281V8.20312C2 7.6875 2.42188 7.26562 2.9375 7.26562C6.30078 7.26562 9.03125 4.53516 9.03125 1.17188C9.03125 0.65625 9.45312 0.234375 9.96875 0.234375H42.7812C43.2969 0.234375 43.7188 0.65625 43.7188 1.17188C43.7188 4.53516 46.4492 7.26562 49.8125 7.26562C50.3281 7.26562 50.75 7.6875 50.75 8.20312V27.3281C50.75 34.7109 48.418 41.7188 44 47.6133C39.6289 53.4492 33.6172 57.6328 26.6445 59.7305C26.5625 59.7539 26.4688 59.7656 26.375 59.7656ZM10.8242 2.30859C10.3203 5.78906 7.55469 8.55469 4.07422 9.05859L3.875 9.09375V27.3281C3.875 41.3906 12.8867 53.6484 26.3047 57.832L26.375 57.8555L26.4453 57.832C39.8633 53.6484 48.875 41.3906 48.875 27.3281V9.09375L48.6758 9.07031C45.1953 8.55469 42.4297 5.78906 41.9258 2.30859L41.9023 2.10938H10.8594L10.8242 2.30859Z" fill="url(#paint1_linear)"/>
<path d="M26.375 54.832C26.2695 54.832 26.1641 54.8086 26.0586 54.7734C20.3281 52.7461 15.4648 49.0781 11.9961 44.168C8.52734 39.2578 6.6875 33.4336 6.6875 27.3281V11.9062C6.6875 11.5312 6.91016 11.1914 7.25 11.0508C9.74609 9.96094 11.7266 7.98047 12.8164 5.48437C12.9688 5.14453 13.3086 4.92187 13.6719 4.92187H21.6875C22.2031 4.92187 22.625 5.34375 22.625 5.85937C22.625 6.375 22.2031 6.79687 21.6875 6.79687H14.2695L14.1992 6.92578C12.9805 9.31641 11.0703 11.2266 8.67969 12.4453L8.55078 12.5156V27.3281C8.55078 38.8594 15.5117 48.8789 26.2812 52.875L26.3633 52.9102L26.4453 52.875C37.2148 48.8906 44.1758 38.8594 44.1758 27.3281V12.5039L44.0469 12.4336C41.6562 11.2148 39.7461 9.30469 38.5273 6.91406L38.457 6.78516H31.0625C30.5469 6.78516 30.125 6.36328 30.125 5.84766C30.125 5.33203 30.5469 4.91016 31.0625 4.91016H39.0781C39.4531 4.91016 39.793 5.13281 39.9336 5.47266C41.0234 7.96875 43.0039 9.94922 45.5 11.0391C45.8398 11.1914 46.0625 11.5312 46.0625 11.8945V27.3047C46.0625 33.4102 44.2227 39.2461 40.7422 44.168C37.2734 49.0781 32.4102 52.7344 26.6797 54.7617C26.5859 54.8203 26.4805 54.832 26.375 54.832Z" fill="url(#paint2_linear)"/>
<path d="M26.375 37.9688C20.6914 37.9688 16.0625 33.3398 16.0625 27.6562C16.0625 21.9727 20.6914 17.3438 26.375 17.3438C32.0586 17.3438 36.6875 21.9727 36.6875 27.6562C36.6875 33.3398 32.0586 37.9688 26.375 37.9688ZM26.375 19.2188C21.7227 19.2188 17.9375 23.0039 17.9375 27.6562C17.9375 32.3086 21.7227 36.0938 26.375 36.0938C31.0273 36.0938 34.8125 32.3086 34.8125 27.6562C34.8125 23.0039 31.0273 19.2188 26.375 19.2188Z" fill="url(#paint3_linear)"/>
<path d="M25.2031 32.1094C24.957 32.1094 24.7227 32.0156 24.5352 31.8398L22.1914 29.4961C22.0156 29.3203 21.9219 29.0859 21.9219 28.8281C21.9219 28.582 22.0156 28.3477 22.1914 28.1602C22.3672 27.9844 22.6016 27.8906 22.8594 27.8906C23.1172 27.8906 23.3398 27.9844 23.5273 28.1602L25.2031 29.8359L30.3945 24.6445C30.5703 24.4688 30.8047 24.375 31.0625 24.375C31.3203 24.375 31.543 24.4688 31.7305 24.6445C32.0937 25.0078 32.0937 25.6055 31.7305 25.9688L25.8711 31.8281C25.6836 32.0156 25.4492 32.1094 25.2031 32.1094Z" fill="url(#paint4_linear)"/>
<defs>
<linearGradient id="paint0_linear" x1="31.1016" y1="5.01123" x2="32.4422" y2="5.32142" gradientUnits="userSpaceOnUse">
<stop offset="0.223958" stop-color="#5D4157"/>
<stop offset="1" stop-color="#A8CABA"/>
</linearGradient>
<linearGradient id="paint1_linear" x1="15.2031" y1="2.71484" x2="50.668" y2="9.39261" gradientUnits="userSpaceOnUse">
<stop offset="0.223958" stop-color="#5D4157"/>
<stop offset="1" stop-color="#A8CABA"/>
</linearGradient>
<linearGradient id="paint2_linear" x1="17.3516" y1="6.99023" x2="46.0673" y2="12.198" gradientUnits="userSpaceOnUse">
<stop offset="0.223958" stop-color="#5D4157"/>
<stop offset="1" stop-color="#A8CABA"/>
</linearGradient>
<linearGradient id="paint3_linear" x1="21.6484" y1="18.2031" x2="36.4046" y2="21.5961" gradientUnits="userSpaceOnUse">
<stop offset="0.223958" stop-color="#5D4157"/>
<stop offset="1" stop-color="#A8CABA"/>
</linearGradient>
<linearGradient id="paint4_linear" x1="24.6522" y1="24.6973" x2="31.6201" y2="26.7855" gradientUnits="userSpaceOnUse">
<stop offset="0.223958" stop-color="#5D4157"/>
<stop offset="1" stop-color="#A8CABA"/>
</linearGradient>
</defs>
</svg>
