<svg width="49" height="60" viewBox="0 0 49 60" fill="none" xmlns="http://www.w3.org/2000/svg">
<path d="M29.5312 6.79688C29.4961 6.79688 29.4727 6.79688 29.4375 6.79688C28.957 6.75 28.5938 6.35156 28.5938 5.87109C28.5938 5.35547 29.0156 4.93359 29.5312 4.93359C30.0469 4.93359 30.4688 5.35547 30.4688 5.87109C30.4688 6.11719 30.375 6.36328 30.1992 6.53906C30.0117 6.70312 29.7773 6.79688 29.5312 6.79688Z" fill="url(#paint0_linear)"/>
<path d="M24.375 59.7656C24.2812 59.7656 24.1875 59.7539 24.1055 59.7305C17.0391 57.6094 11.0039 53.3672 6.63281 47.4609C2.29687 41.5781 0 34.6289 0 27.3281V8.20312C0 7.6875 0.421875 7.26562 0.9375 7.26562C4.30078 7.26562 7.03125 4.53516 7.03125 1.17188C7.03125 0.65625 7.45312 0.234375 7.96875 0.234375H40.7812C41.2969 0.234375 41.7188 0.65625 41.7188 1.17188C41.7188 4.53516 44.4492 7.26562 47.8125 7.26562C48.3281 7.26562 48.75 7.6875 48.75 8.20312V27.3281C48.75 34.7109 46.418 41.7188 42 47.6133C37.6289 53.4492 31.6172 57.6328 24.6445 59.7305C24.5625 59.7539 24.4688 59.7656 24.375 59.7656ZM8.82422 2.30859C8.32031 5.78906 5.55469 8.55469 2.07422 9.05859L1.875 9.09375V27.3281C1.875 41.3906 10.8867 53.6484 24.3047 57.832L24.375 57.8555L24.4453 57.832C37.8633 53.6484 46.875 41.3906 46.875 27.3281V9.09375L46.6758 9.07031C43.1953 8.55469 40.4297 5.78906 39.9258 2.30859L39.9023 2.10938H8.85938L8.82422 2.30859Z" fill="url(#paint1_linear)"/>
<path d="M24.375 54.832C24.2695 54.832 24.1641 54.8086 24.0586 54.7734C18.3281 52.7461 13.4648 49.0781 9.99609 44.168C6.52734 39.2578 4.6875 33.4336 4.6875 27.3281V11.9062C4.6875 11.5312 4.91016 11.1914 5.25 11.0508C7.74609 9.96094 9.72656 7.98047 10.8164 5.48437C10.9688 5.14453 11.3086 4.92187 11.6719 4.92187H19.6875C20.2031 4.92187 20.625 5.34375 20.625 5.85937C20.625 6.375 20.2031 6.79687 19.6875 6.79687H12.2695L12.1992 6.92578C10.9805 9.31641 9.07031 11.2266 6.67969 12.4453L6.55078 12.5156V27.3281C6.55078 38.8594 13.5117 48.8789 24.2812 52.875L24.3633 52.9102L24.4453 52.875C35.2148 48.8906 42.1758 38.8594 42.1758 27.3281V12.5039L42.0469 12.4336C39.6562 11.2148 37.7461 9.30469 36.5273 6.91406L36.457 6.78516H29.0625C28.5469 6.78516 28.125 6.36328 28.125 5.84766C28.125 5.33203 28.5469 4.91016 29.0625 4.91016H37.0781C37.4531 4.91016 37.793 5.13281 37.9336 5.47266C39.0234 7.96875 41.0039 9.94922 43.5 11.0391C43.8398 11.1914 44.0625 11.5312 44.0625 11.8945V27.3047C44.0625 33.4102 42.2227 39.2461 38.7422 44.168C35.2734 49.0781 30.4102 52.7344 24.6797 54.7617C24.5859 54.8203 24.4805 54.832 24.375 54.832Z" fill="url(#paint2_linear)"/>
<path d="M24.375 37.9688C18.6914 37.9688 14.0625 33.3398 14.0625 27.6562C14.0625 21.9727 18.6914 17.3438 24.375 17.3438C30.0586 17.3438 34.6875 21.9727 34.6875 27.6562C34.6875 33.3398 30.0586 37.9688 24.375 37.9688ZM24.375 19.2188C19.7227 19.2188 15.9375 23.0039 15.9375 27.6562C15.9375 32.3086 19.7227 36.0938 24.375 36.0938C29.0273 36.0938 32.8125 32.3086 32.8125 27.6562C32.8125 23.0039 29.0273 19.2188 24.375 19.2188Z" fill="url(#paint3_linear)"/>
<path d="M23.2031 32.1094C22.957 32.1094 22.7227 32.0156 22.5352 31.8398L20.1914 29.4961C20.0156 29.3203 19.9219 29.0859 19.9219 28.8281C19.9219 28.582 20.0156 28.3477 20.1914 28.1602C20.3672 27.9844 20.6016 27.8906 20.8594 27.8906C21.1172 27.8906 21.3398 27.9844 21.5273 28.1602L23.2031 29.8359L28.3945 24.6445C28.5703 24.4688 28.8047 24.375 29.0625 24.375C29.3203 24.375 29.543 24.4688 29.7305 24.6445C30.0937 25.0078 30.0937 25.6055 29.7305 25.9688L23.8711 31.8281C23.6836 32.0156 23.4492 32.1094 23.2031 32.1094Z" fill="url(#paint4_linear)"/>
<defs>
<linearGradient id="paint0_linear" x1="29.1016" y1="5.01123" x2="30.4422" y2="5.32142" gradientUnits="userSpaceOnUse">
<stop stop-color="#B534BE"/>
<stop offset="1" stop-color="#451472"/>
</linearGradient>
<linearGradient id="paint1_linear" x1="13.2031" y1="2.71484" x2="48.668" y2="9.39261" gradientUnits="userSpaceOnUse">
<stop stop-color="#B534BE"/>
<stop offset="1" stop-color="#451472"/>
</linearGradient>
<linearGradient id="paint2_linear" x1="15.3516" y1="6.99023" x2="44.0673" y2="12.198" gradientUnits="userSpaceOnUse">
<stop stop-color="#B534BE"/>
<stop offset="1" stop-color="#451472"/>
</linearGradient>
<linearGradient id="paint3_linear" x1="19.6484" y1="18.2031" x2="34.4046" y2="21.5961" gradientUnits="userSpaceOnUse">
<stop stop-color="#B534BE"/>
<stop offset="1" stop-color="#451472"/>
</linearGradient>
<linearGradient id="paint4_linear" x1="22.6522" y1="24.6973" x2="29.6201" y2="26.7855" gradientUnits="userSpaceOnUse">
<stop stop-color="#B534BE"/>
<stop offset="1" stop-color="#451472"/>
</linearGradient>
</defs>
</svg>
