<svg width="28" height="38" viewBox="0 0 28 38" fill="none" xmlns="http://www.w3.org/2000/svg">
<path d="M8.95068 32.2803H18.9507" stroke="white" stroke-linecap="round"/>
<path d="M5.95068 29.2803H21.9507" stroke="white" stroke-linecap="round"/>
<mask id="path-3-inside-1_80_255" fill="white">
<path fill-rule="evenodd" clip-rule="evenodd" d="M20.7116 0H3.62891C1.97205 0 0.628906 1.34314 0.628906 3V34.4635C0.628906 36.1203 1.97205 37.4635 3.62891 37.4635H24.1655C25.8224 37.4635 27.1655 36.1203 27.1655 34.4635V6.45393L20.7116 0Z"/>
</mask>
<path d="M20.7116 0L21.4187 -0.707107L21.1258 -1H20.7116V0ZM27.1655 6.45393H28.1655V6.03972L27.8726 5.74683L27.1655 6.45393ZM3.62891 1H20.7116V-1H3.62891V1ZM1.62891 3C1.62891 1.89543 2.52434 1 3.62891 1V-1C1.41977 -1 -0.371094 0.790858 -0.371094 3H1.62891ZM1.62891 34.4635V3H-0.371094V34.4635H1.62891ZM3.62891 36.4635C2.52434 36.4635 1.62891 35.568 1.62891 34.4635H-0.371094C-0.371094 36.6726 1.41977 38.4635 3.62891 38.4635V36.4635ZM24.1655 36.4635H3.62891V38.4635H24.1655V36.4635ZM26.1655 34.4635C26.1655 35.568 25.2701 36.4635 24.1655 36.4635V38.4635C26.3747 38.4635 28.1655 36.6726 28.1655 34.4635H26.1655ZM26.1655 6.45393V34.4635H28.1655V6.45393H26.1655ZM27.8726 5.74683L21.4187 -0.707107L20.0045 0.707107L26.4584 7.16104L27.8726 5.74683Z" fill="white" mask="url(#path-3-inside-1_80_255)"/>
<path d="M19.9507 0.280273V7.28027H25.9507" stroke="white"/>
<path fill-rule="evenodd" clip-rule="evenodd" d="M13.6187 25.0826C17.684 25.0826 20.9797 21.7867 20.9797 17.7207C20.9797 13.6548 17.684 10.3588 13.6187 10.3588C9.55346 10.3588 6.25775 13.6548 6.25775 17.7207C6.25775 21.7867 9.55346 25.0826 13.6187 25.0826ZM13.6187 25.8868C18.1282 25.8868 21.7838 22.2307 21.7838 17.7207C21.7838 13.2107 18.1282 9.55469 13.6187 9.55469C9.10926 9.55469 5.45361 13.2107 5.45361 17.7207C5.45361 22.2307 9.10926 25.8868 13.6187 25.8868Z" fill="white"/>
<path fill-rule="evenodd" clip-rule="evenodd" d="M17.6988 14.8913C17.8604 15.0436 17.8679 15.2981 17.7156 15.4596L12.904 20.5628C12.828 20.6434 12.7222 20.6891 12.6114 20.6891C12.5007 20.6891 12.3949 20.6434 12.3189 20.5628L9.98599 18.0886C9.83366 17.927 9.84114 17.6725 10.0027 17.5202C10.1643 17.3679 10.4187 17.3753 10.5711 17.5369L12.6114 19.7009L17.1305 14.908C17.2828 14.7464 17.5373 14.7389 17.6988 14.8913Z" fill="white"/>
</svg>
