<svg width="30" height="37" viewBox="0 0 30 37" fill="none" xmlns="http://www.w3.org/2000/svg">
<g id="Group 10604">
<path id="Rectangle 3 (Stroke)" fill-rule="evenodd" clip-rule="evenodd" d="M27.0495 0.80414H2.43293C1.5447 0.80414 0.824648 1.52419 0.824648 2.41242V34.578C0.824648 35.4663 1.5447 36.1863 2.43292 36.1863H27.0495C27.9377 36.1863 28.6577 35.4663 28.6577 34.578V2.41242C28.6577 1.52419 27.9377 0.80414 27.0495 0.80414ZM2.43293 0C1.10059 0 0.0205078 1.08008 0.0205078 2.41242V34.578C0.0205078 35.9104 1.10058 36.9904 2.43292 36.9904H27.0495C28.3818 36.9904 29.4619 35.9104 29.4619 34.578V2.41242C29.4619 1.08008 28.3818 0 27.0495 0H2.43293Z" fill="white"/>
<path id="Rectangle 4 (Stroke)" fill-rule="evenodd" clip-rule="evenodd" d="M23.8 3.06879H5.68224C4.2502 3.06879 3.0893 4.22969 3.0893 5.66173C3.0893 7.09377 4.25019 8.25467 5.68223 8.25467H23.8C25.232 8.25467 26.3929 7.09377 26.3929 5.66173C26.3929 4.22969 25.232 3.06879 23.8 3.06879ZM5.68224 2.26465C3.80608 2.26465 2.28516 3.78557 2.28516 5.66173C2.28516 7.53789 3.80608 9.05881 5.68223 9.05881H23.8C25.6762 9.05881 27.1971 7.53789 27.1971 5.66173C27.1971 3.78557 25.6762 2.26465 23.8 2.26465H5.68224Z" fill="white"/>
<path id="Rectangle 5 (Stroke)" fill-rule="evenodd" clip-rule="evenodd" d="M6.45381 13.6704H4.04139C3.59727 13.6704 3.23725 14.0304 3.23725 14.4745V16.8869C3.23725 17.331 3.59727 17.6911 4.04139 17.6911H6.45381C6.89792 17.6911 7.25795 17.331 7.25795 16.8869V14.4745C7.25795 14.0304 6.89792 13.6704 6.45381 13.6704ZM4.04139 12.8662C3.15316 12.8662 2.43311 13.5863 2.43311 14.4745V16.8869C2.43311 17.7751 3.15316 18.4952 4.04139 18.4952H6.45381C7.34203 18.4952 8.06209 17.7751 8.06209 16.8869V14.4745C8.06209 13.5863 7.34203 12.8662 6.45381 12.8662H4.04139Z" fill="white"/>
<path id="Rectangle 6 (Stroke)" fill-rule="evenodd" clip-rule="evenodd" d="M25.7531 13.6704H23.3407C22.8966 13.6704 22.5366 14.0304 22.5366 14.4745V16.8869C22.5366 17.331 22.8966 17.6911 23.3407 17.6911H25.7531C26.1972 17.6911 26.5573 17.331 26.5573 16.8869V14.4745C26.5573 14.0304 26.1972 13.6704 25.7531 13.6704ZM23.3407 12.8662C22.4525 12.8662 21.7324 13.5863 21.7324 14.4745V16.8869C21.7324 17.7751 22.4525 18.4952 23.3407 18.4952H25.7531C26.6414 18.4952 27.3614 17.7751 27.3614 16.8869V14.4745C27.3614 13.5863 26.6414 12.8662 25.7531 12.8662H23.3407Z" fill="white"/>
<path id="Rectangle 7 (Stroke)" fill-rule="evenodd" clip-rule="evenodd" d="M19.32 13.6704H16.9076C16.4635 13.6704 16.1035 14.0304 16.1035 14.4745V16.8869C16.1035 17.331 16.4635 17.6911 16.9076 17.6911H19.32C19.7641 17.6911 20.1242 17.331 20.1242 16.8869V14.4745C20.1242 14.0304 19.7641 13.6704 19.32 13.6704ZM16.9076 12.8662C16.0194 12.8662 15.2993 13.5863 15.2993 14.4745V16.8869C15.2993 17.7751 16.0194 18.4952 16.9076 18.4952H19.32C20.2082 18.4952 20.9283 17.7751 20.9283 16.8869V14.4745C20.9283 13.5863 20.2082 12.8662 19.32 12.8662H16.9076Z" fill="white"/>
<path id="Rectangle 8 (Stroke)" fill-rule="evenodd" clip-rule="evenodd" d="M12.8869 13.6704H10.4745C10.0304 13.6704 9.67035 14.0304 9.67035 14.4745V16.8869C9.67035 17.331 10.0304 17.6911 10.4745 17.6911H12.8869C13.331 17.6911 13.6911 17.331 13.6911 16.8869V14.4745C13.6911 14.0304 13.331 13.6704 12.8869 13.6704ZM10.4745 12.8662C9.58626 12.8662 8.86621 13.5863 8.86621 14.4745V16.8869C8.86621 17.7751 9.58626 18.4952 10.4745 18.4952H12.8869C13.7751 18.4952 14.4952 17.7751 14.4952 16.8869V14.4745C14.4952 13.5863 13.7751 12.8662 12.8869 12.8662H10.4745Z" fill="white"/>
<path id="Rectangle 9 (Stroke)" fill-rule="evenodd" clip-rule="evenodd" d="M6.45381 20.9077H4.04139C3.59727 20.9077 3.23725 21.2677 3.23725 21.7118V24.1242C3.23725 24.5683 3.59727 24.9284 4.04139 24.9284H6.45381C6.89792 24.9284 7.25795 24.5683 7.25795 24.1242V21.7118C7.25795 21.2677 6.89792 20.9077 6.45381 20.9077ZM4.04139 20.1035C3.15316 20.1035 2.43311 20.8236 2.43311 21.7118V24.1242C2.43311 25.0124 3.15316 25.7325 4.04139 25.7325H6.45381C7.34203 25.7325 8.06209 25.0124 8.06209 24.1242V21.7118C8.06209 20.8236 7.34203 20.1035 6.45381 20.1035H4.04139Z" fill="white"/>
<path id="Rectangle 10 (Stroke)" fill-rule="evenodd" clip-rule="evenodd" d="M25.7531 20.9077H23.3407C22.8966 20.9077 22.5366 21.2677 22.5366 21.7118V24.1242C22.5366 24.5683 22.8966 24.9284 23.3407 24.9284H25.7531C26.1972 24.9284 26.5573 24.5683 26.5573 24.1242V21.7118C26.5573 21.2677 26.1972 20.9077 25.7531 20.9077ZM23.3407 20.1035C22.4525 20.1035 21.7324 20.8236 21.7324 21.7118V24.1242C21.7324 25.0124 22.4525 25.7325 23.3407 25.7325H25.7531C26.6414 25.7325 27.3614 25.0124 27.3614 24.1242V21.7118C27.3614 20.8236 26.6414 20.1035 25.7531 20.1035H23.3407Z" fill="white"/>
<path id="Rectangle 11 (Stroke)" fill-rule="evenodd" clip-rule="evenodd" d="M19.32 20.9077H16.9076C16.4635 20.9077 16.1035 21.2677 16.1035 21.7118V24.1242C16.1035 24.5683 16.4635 24.9284 16.9076 24.9284H19.32C19.7641 24.9284 20.1242 24.5683 20.1242 24.1242V21.7118C20.1242 21.2677 19.7641 20.9077 19.32 20.9077ZM16.9076 20.1035C16.0194 20.1035 15.2993 20.8236 15.2993 21.7118V24.1242C15.2993 25.0124 16.0194 25.7325 16.9076 25.7325H19.32C20.2082 25.7325 20.9283 25.0124 20.9283 24.1242V21.7118C20.9283 20.8236 20.2082 20.1035 19.32 20.1035H16.9076Z" fill="white"/>
<path id="Rectangle 12 (Stroke)" fill-rule="evenodd" clip-rule="evenodd" d="M12.8869 20.9077H10.4745C10.0304 20.9077 9.67035 21.2677 9.67035 21.7118V24.1242C9.67035 24.5683 10.0304 24.9284 10.4745 24.9284H12.8869C13.331 24.9284 13.6911 24.5683 13.6911 24.1242V21.7118C13.6911 21.2677 13.331 20.9077 12.8869 20.9077ZM10.4745 20.1035C9.58626 20.1035 8.86621 20.8236 8.86621 21.7118V24.1242C8.86621 25.0124 9.58626 25.7325 10.4745 25.7325H12.8869C13.7751 25.7325 14.4952 25.0124 14.4952 24.1242V21.7118C14.4952 20.8236 13.7751 20.1035 12.8869 20.1035H10.4745Z" fill="white"/>
<path id="Rectangle 13 (Stroke)" fill-rule="evenodd" clip-rule="evenodd" d="M6.45381 28.145H4.04139C3.59727 28.145 3.23725 28.505 3.23725 28.9491V31.3615C3.23725 31.8056 3.59727 32.1657 4.04139 32.1657H6.45381C6.89792 32.1657 7.25795 31.8056 7.25795 31.3615V28.9491C7.25795 28.505 6.89792 28.145 6.45381 28.145ZM4.04139 27.3408C3.15316 27.3408 2.43311 28.0609 2.43311 28.9491V31.3615C2.43311 32.2497 3.15316 32.9698 4.04139 32.9698H6.45381C7.34203 32.9698 8.06209 32.2497 8.06209 31.3615V28.9491C8.06209 28.0609 7.34203 27.3408 6.45381 27.3408H4.04139Z" fill="white"/>
<path id="Rectangle 14 (Stroke)" fill-rule="evenodd" clip-rule="evenodd" d="M25.7531 28.145H23.3407C22.8966 28.145 22.5366 28.505 22.5366 28.9491V31.3615C22.5366 31.8056 22.8966 32.1657 23.3407 32.1657H25.7531C26.1972 32.1657 26.5573 31.8056 26.5573 31.3615V28.9491C26.5573 28.505 26.1972 28.145 25.7531 28.145ZM23.3407 27.3408C22.4525 27.3408 21.7324 28.0609 21.7324 28.9491V31.3615C21.7324 32.2497 22.4525 32.9698 23.3407 32.9698H25.7531C26.6414 32.9698 27.3614 32.2497 27.3614 31.3615V28.9491C27.3614 28.0609 26.6414 27.3408 25.7531 27.3408H23.3407Z" fill="white"/>
<path id="Rectangle 15 (Stroke)" fill-rule="evenodd" clip-rule="evenodd" d="M19.32 28.145H16.9076C16.4635 28.145 16.1035 28.505 16.1035 28.9491V31.3615C16.1035 31.8056 16.4635 32.1657 16.9076 32.1657H19.32C19.7641 32.1657 20.1242 31.8056 20.1242 31.3615V28.9491C20.1242 28.505 19.7641 28.145 19.32 28.145ZM16.9076 27.3408C16.0194 27.3408 15.2993 28.0609 15.2993 28.9491V31.3615C15.2993 32.2497 16.0194 32.9698 16.9076 32.9698H19.32C20.2082 32.9698 20.9283 32.2497 20.9283 31.3615V28.9491C20.9283 28.0609 20.2082 27.3408 19.32 27.3408H16.9076Z" fill="white"/>
<path id="Rectangle 16 (Stroke)" fill-rule="evenodd" clip-rule="evenodd" d="M12.8869 28.145H10.4745C10.0304 28.145 9.67035 28.505 9.67035 28.9491V31.3615C9.67035 31.8056 10.0304 32.1657 10.4745 32.1657H12.8869C13.331 32.1657 13.6911 31.8056 13.6911 31.3615V28.9491C13.6911 28.505 13.331 28.145 12.8869 28.145ZM10.4745 27.3408C9.58626 27.3408 8.86621 28.0609 8.86621 28.9491V31.3615C8.86621 32.2497 9.58626 32.9698 10.4745 32.9698H12.8869C13.7751 32.9698 14.4952 32.2497 14.4952 31.3615V28.9491C14.4952 28.0609 13.7751 27.3408 12.8869 27.3408H10.4745Z" fill="white"/>
</g>
</svg>
