<svg width="25" height="33" viewBox="0 0 25 33" fill="none" xmlns="http://www.w3.org/2000/svg">
<g id="Group 10602">
<g id="Group 10610">
<path id="Rectangle 1 (Stroke)" fill-rule="evenodd" clip-rule="evenodd" d="M9.27874 -6.71743e-07C17.939 -3.0075e-07 24.9595 7.0205 24.9595 15.6807L24.9595 17.289C24.9595 25.9492 17.939 32.9697 9.27874 32.9697C9.05668 32.9697 8.87667 32.7897 8.87667 32.5677C8.87667 32.3456 9.05668 32.1656 9.27874 32.1656C17.4949 32.1656 24.1553 25.5051 24.1553 17.289L24.1553 15.6807C24.1553 7.46462 17.4949 0.80414 9.27874 0.804139C9.05668 0.804139 8.87667 0.624127 8.87667 0.402069C8.87667 0.180012 9.05668 -6.81256e-07 9.27874 -6.71743e-07Z" fill="white"/>
<path id="Vector 42 (Stroke)" fill-rule="evenodd" clip-rule="evenodd" d="M9.27853 0C9.50059 0 9.6806 0.180013 9.6806 0.40207V4.42277C9.6806 4.64483 9.50059 4.82484 9.27853 4.82484C9.05648 4.82484 8.87646 4.64483 8.87646 4.42277V0.40207C8.87646 0.180013 9.05648 0 9.27853 0Z" fill="white"/>
<path id="Vector 43 (Stroke)" fill-rule="evenodd" clip-rule="evenodd" d="M9.27853 28.145C9.50059 28.145 9.68061 28.325 9.68061 28.5471L9.68061 32.5678C9.68061 32.7898 9.50059 32.9699 9.27854 32.9699C9.05648 32.9699 8.87647 32.7898 8.87647 32.5678L8.87646 28.5471C8.87646 28.325 9.05648 28.145 9.27853 28.145Z" fill="white"/>
<path id="Vector 44 (Stroke)" fill-rule="evenodd" clip-rule="evenodd" d="M1.49121 17.1286C1.49121 16.9066 1.67122 16.7266 1.89328 16.7266H16.9909C17.2129 16.7266 17.3929 16.9066 17.3929 17.1286C17.3929 17.3507 17.2129 17.5307 16.9909 17.5307H1.89328C1.67122 17.5307 1.49121 17.3507 1.49121 17.1286Z" fill="white"/>
<path id="Vector 45 (Stroke)" fill-rule="evenodd" clip-rule="evenodd" d="M6.77552 11.7007C6.93095 11.8593 6.92838 12.1139 6.76979 12.2693L1.51846 17.4158C1.35986 17.5712 1.1053 17.5687 0.949873 17.4101C0.794446 17.2515 0.797012 16.9969 0.955605 16.8415L6.20694 11.695C6.36553 11.5396 6.62009 11.5421 6.77552 11.7007Z" fill="white"/>
<path id="Vector 46 (Stroke)" fill-rule="evenodd" clip-rule="evenodd" d="M0.950064 16.8472C0.794637 17.0058 0.797203 17.2604 0.955796 17.4158L6.20713 22.5623C6.36572 22.7177 6.62029 22.7151 6.77571 22.5566C6.93114 22.398 6.92857 22.1434 6.76998 21.988L1.51865 16.8415C1.36005 16.686 1.10549 16.6886 0.950064 16.8472Z" fill="white"/>
</g>
</g>
</svg>
