<svg width="42" height="29" viewBox="0 0 42 29" fill="none" xmlns="http://www.w3.org/2000/svg">
<g id="Object">
<g id="Group">
<path id="Vector" d="M30.2288 10.2558C30.3792 10.2548 30.5154 10.3014 30.579 10.3249C30.6186 10.3396 30.6524 10.3541 30.6765 10.3651C30.6887 10.3706 30.6989 10.3755 30.7067 10.3792L30.7166 10.3841L30.7192 10.3854L30.7202 10.3859L30.7216 10.3866C30.7359 10.3938 30.7499 10.4016 30.7635 10.4101L31.6335 10.9551L31.6335 10.9551L31.6362 10.9568C31.8607 11.0995 32.0416 11.3348 32.0483 11.6549L32.0484 11.6549L32.0484 11.6589C32.0516 11.9009 31.9517 12.1057 31.7948 12.259C31.2682 12.852 30.6115 13.2515 29.841 13.4595L29.841 13.8795C29.841 14.3862 29.4305 14.8032 28.9185 14.8032L28.1431 14.8032C27.63 14.8032 27.2206 14.3857 27.2206 13.8795L27.2206 13.4966C26.94 13.4322 26.6745 13.3436 26.4258 13.2296C25.8497 12.9672 25.3831 12.6224 25.0631 12.1789C24.9154 11.9741 24.8035 11.7545 24.7264 11.5222C24.5435 12.3496 23.9786 13.0302 23.2355 13.3832L23.2349 13.3835C22.8901 13.5467 22.501 13.6486 22.0821 13.6486L21.551 13.6486C23.0613 15.7451 25.5173 17.1123 28.2869 17.1123C28.4124 17.1123 28.5305 17.1042 28.6676 17.0947L35.0705 12.9438L35.7359 12.4627C36.2811 11.3568 36.5936 10.1184 36.5936 8.80681C36.5936 4.22823 32.8412 0.500106 28.2869 0.500106C23.9021 0.500106 20.301 3.91997 20.0056 8.23305L22.0827 8.23305C22.092 8.23305 22.1011 8.2333 22.1103 8.2338C23.3005 8.24597 24.3093 9.02922 24.6586 10.1079C24.7368 9.74911 24.8892 9.41671 25.1154 9.11666C25.598 8.46784 26.3214 8.06396 27.2206 7.85763L27.2206 7.30079C27.0987 7.39821 26.9766 7.51191 26.8543 7.64325C26.6741 7.86521 26.4184 7.98453 26.1319 7.98453C25.9978 7.98453 25.8657 7.93812 25.8223 7.92287L25.8211 7.92244C25.7875 7.91065 25.7582 7.89916 25.7373 7.89069L25.7114 7.87993L25.7033 7.87643L25.7005 7.87524L25.6995 7.87479L25.6991 7.8746L25.6989 7.87452L25.6988 7.87448L25.9002 7.41686L25.6987 7.87444C25.6911 7.87112 25.6837 7.86761 25.6763 7.86392L25.6739 7.8627C25.6641 7.85779 25.6545 7.85257 25.645 7.84703L24.8744 7.39549C24.8671 7.39165 24.8599 7.38762 24.8527 7.3834C24.6034 7.23605 24.4034 6.98303 24.4097 6.63361M30.2288 10.2558C30.0933 10.2561 29.9629 10.2806 29.841 10.3286L29.841 10.1959C30.7577 10.0032 31.5012 9.61718 32.017 9.00181L32.0194 8.99889L32.0194 8.99888C32.4056 8.53095 32.5846 7.96603 32.5708 7.33529C32.5515 6.32295 32.0895 5.51768 31.2374 4.95344L31.2353 4.95201C30.8195 4.67981 30.3524 4.48795 29.841 4.36901L29.841 4.06329C29.841 3.55305 29.4288 3.14082 28.9185 3.14082L28.1431 3.14082C27.6339 3.14082 27.2206 3.55258 27.2206 4.06329L27.2206 4.37416C26.6041 4.52854 26.0378 4.80122 25.526 5.1949C25.1569 5.47503 24.8473 5.77859 24.6084 6.10673C24.4866 6.25205 24.4129 6.43201 24.4097 6.63361M30.2288 10.2558C30.2295 10.2558 30.2303 10.2558 30.231 10.2558L30.231 10.7558L30.2256 10.2558C30.2266 10.2558 30.2277 10.2558 30.2288 10.2558ZM24.4097 6.63361C24.4097 6.63398 24.4096 6.63435 24.4096 6.63473L24.7173 6.63921M24.4097 6.63361C24.4097 6.63324 24.4097 6.63287 24.4097 6.6325L24.718 6.63837M24.7173 6.63921L25.1068 6.95278C25.1066 6.95263 25.1063 6.95248 25.1061 6.95232C24.9727 6.87315 24.9072 6.76971 24.9096 6.64202M24.7173 6.63921C24.7175 6.63893 24.7177 6.63865 24.718 6.63837M24.7173 6.63921L24.9096 6.64202M24.718 6.63837C24.7564 6.59076 24.8037 6.5499 24.8585 6.51851C24.8902 6.50033 24.9234 6.48589 24.9575 6.47521C24.9265 6.5264 24.9105 6.58201 24.9096 6.64202M24.718 6.63837L24.9096 6.64202" stroke="white" stroke-linejoin="round"/>
<path id="Vector_2" d="M27.2085 10.6422C27.2109 10.3313 27.3822 10.1112 27.7206 9.98133L27.7206 11.275L27.6608 11.2512C27.3579 11.1067 27.2079 10.9031 27.2091 10.6422L27.2085 10.6422Z" fill="white"/>
<path id="Vector_3" d="M29.3398 6.47644C29.399 6.50388 29.4575 6.53192 29.5105 6.56545C29.8123 6.74834 29.9647 7.00743 29.9684 7.34029C29.9708 7.69936 29.7593 7.9426 29.3398 8.07489L29.3398 6.47644Z" fill="white"/>
<path id="Vector_4" d="M15.4589 17.546C15.4138 17.534 15.3708 17.5159 15.3311 17.4922C14.4412 16.9953 13.8281 16.0494 13.8281 14.9473C13.8281 13.4895 14.8922 12.2868 16.2831 12.0598C16.3098 12.0554 16.3367 12.0533 16.3637 12.0533L22.0826 12.0533C22.6962 12.0533 23.1945 11.5557 23.1945 10.9396C23.1945 10.3234 22.6962 9.82588 22.0826 9.82588L15.9912 9.82588L15.9766 9.82566C15.1476 9.80148 14.1677 9.79113 13.0095 9.79113C10.5724 9.79113 8.87917 10.6947 7.31826 11.7842L7.31811 11.7843C6.95953 12.0344 6.60405 12.2991 6.24533 12.5661C4.60438 13.7876 2.89565 15.0597 0.512801 15.2215L0.512801 20.818L0.512849 20.818L0.512754 20.8249L0.501511 21.6403C0.508906 21.6745 0.512801 21.71 0.512801 21.7465L0.512801 21.9448C1.5625 22.0278 2.92912 22.3341 3.93295 22.587C3.95027 22.5913 3.96736 22.5966 3.98412 22.6028C4.01922 22.6158 4.05544 22.629 4.09245 22.6426C4.15756 22.6664 4.22507 22.6911 4.29301 22.7166C8.93403 23.8606 18.7894 26.3654 23.5618 27.5807L23.5626 27.5809L23.6196 27.5955C23.7833 27.6269 23.9482 27.6445 24.1151 27.6445C24.3979 27.6445 24.6741 27.5881 24.9485 27.4941C24.986 27.4791 25.0262 27.4637 25.0619 27.45C25.0621 27.4499 25.0624 27.4498 25.0627 27.4497L39.124 17.2563L39.1246 17.2559L39.7446 16.8052C39.7651 16.7903 39.7867 16.777 39.8091 16.7654C39.9964 16.6686 40.1676 16.5431 40.3215 16.3939C40.3263 16.3887 40.3313 16.3835 40.3364 16.3785C40.7227 15.9966 40.9615 15.4789 40.9615 14.9028C40.9615 13.8072 40.1178 12.914 39.0395 12.8216C39.0193 12.8199 38.9993 12.8169 38.9795 12.8128C38.8611 12.788 38.7382 12.7747 38.6133 12.7747C38.5277 12.7747 38.437 12.7834 38.3365 12.7982C38.246 12.8125 38.1628 12.8304 38.0878 12.8525C37.9889 12.8832 37.8932 12.9238 37.7974 12.9736L37.7974 12.9737L37.7902 12.9773C37.7109 13.0169 37.6522 13.0489 37.6026 13.0826C37.5929 13.0892 37.583 13.0954 37.573 13.1012L35.9833 14.2519C35.9764 14.2569 35.9693 14.2618 35.9621 14.2664L26.9543 20.1061C26.9071 20.1366 26.8552 20.159 26.8007 20.1723C26.5563 20.2319 26.2994 20.2542 26.0415 20.2542C25.9553 20.2542 25.8635 20.2522 25.7693 20.2466C25.7408 20.2449 25.7124 20.2408 25.6845 20.2342C25.1855 20.1169 22.4701 19.4027 19.9649 18.7397L19.9638 18.7394L19.8199 18.701L19.8199 18.7011L19.8106 18.6984C19.147 18.5074 18.4393 18.3168 17.695 18.1384L17.695 18.1386L17.6834 18.1355C16.8256 17.9081 16.1265 17.7229 15.7434 17.6214C15.6046 17.5846 15.5073 17.5588 15.4589 17.546Z" stroke="white" stroke-linejoin="round"/>
</g>
</g>
</svg>
