<svg width="26" height="23" viewBox="0 0 26 23" fill="none" xmlns="http://www.w3.org/2000/svg">
<path fill-rule="evenodd" clip-rule="evenodd" d="M0.62918 1.7575e-08C0.851237 7.86861e-09 1.03125 0.180013 1.03125 0.40207L1.03125 22.339C1.03125 22.5611 0.851238 22.7411 0.629181 22.7411C0.407124 22.7411 0.227111 22.5611 0.227111 22.339L0.22711 0.40207C0.22711 0.180013 0.407123 2.72815e-08 0.62918 1.7575e-08Z" fill="white"/>
<path fill-rule="evenodd" clip-rule="evenodd" d="M5.21289 1.39914C5.21289 1.17708 5.3929 0.99707 5.61496 0.99707H25.5576C25.7797 0.99707 25.9597 1.17708 25.9597 1.39914C25.9597 1.6212 25.7797 1.80121 25.5576 1.80121H5.61496C5.3929 1.80121 5.21289 1.6212 5.21289 1.39914Z" fill="white"/>
<path fill-rule="evenodd" clip-rule="evenodd" d="M5.21289 6.38547C5.21289 6.16341 5.3929 5.9834 5.61496 5.9834H25.5576C25.7797 5.9834 25.9597 6.16341 25.9597 6.38547C25.9597 6.60753 25.7797 6.78754 25.5576 6.78754H5.61496C5.3929 6.78754 5.21289 6.60753 5.21289 6.38547Z" fill="white"/>
<path fill-rule="evenodd" clip-rule="evenodd" d="M5.21289 11.3698C5.21289 11.1478 5.3929 10.9678 5.61496 10.9678H25.5576C25.7797 10.9678 25.9597 11.1478 25.9597 11.3698C25.9597 11.5919 25.7797 11.7719 25.5576 11.7719H5.61496C5.3929 11.7719 5.21289 11.5919 5.21289 11.3698Z" fill="white"/>
<path fill-rule="evenodd" clip-rule="evenodd" d="M5.21289 16.3562C5.21289 16.1341 5.3929 15.9541 5.61496 15.9541H25.5576C25.7797 15.9541 25.9597 16.1341 25.9597 16.3562C25.9597 16.5782 25.7797 16.7582 25.5576 16.7582H5.61496C5.3929 16.7582 5.21289 16.5782 5.21289 16.3562Z" fill="white"/>
<path fill-rule="evenodd" clip-rule="evenodd" d="M5.21289 21.3415C5.21289 21.1195 5.3929 20.9395 5.61496 20.9395H25.5576C25.7797 20.9395 25.9597 21.1195 25.9597 21.3415C25.9597 21.5636 25.7797 21.7436 25.5576 21.7436H5.61496C5.3929 21.7436 5.21289 21.5636 5.21289 21.3415Z" fill="white"/>
</svg>
