<svg width="37" height="26" viewBox="0 0 37 26" fill="none" xmlns="http://www.w3.org/2000/svg">
<g id="Group">
<path id="Vector" d="M29.6571 16.397L29.4022 16.1222C30.6974 14.9218 31.7443 14.0483 33.2611 13.1388C33.858 12.7825 34.4966 12.467 35.1598 12.2008L35.1816 12.1932C35.6771 11.9933 35.9954 11.5082 36.0058 10.9303C36.0248 9.86728 35.769 8.08232 34.435 5.61141C33.0451 3.02871 31.6448 1.9638 30.7154 1.52514C30.3089 1.32902 29.8655 1.32618 29.4922 1.51377L29.4847 1.52135L29.442 1.54125C29.3387 1.58104 29.226 1.62651 29.1038 1.67578C28.1791 2.04907 26.631 2.67343 24.9104 2.555C24.072 2.49436 23.2638 2.65732 22.5769 3.02587L19.5584 4.63556L17.2628 6.29546L17.043 5.99133L19.368 4.31248L22.3998 2.69522C23.1492 2.29445 24.0255 2.11728 24.936 2.18171C26.5685 2.2954 28.0104 1.71368 28.9636 1.32902C29.0782 1.2826 29.1853 1.23996 29.2838 1.20112L29.2923 1.19543C29.7755 0.93773 30.3534 0.934888 30.8764 1.1869C31.8551 1.6483 33.3265 2.76059 34.7647 5.43424C36.1366 7.97621 36.4009 9.83033 36.381 10.9379C36.3677 11.6579 35.9499 12.2889 35.3152 12.5447L35.2934 12.5523C34.6548 12.8081 34.0342 13.1151 33.4544 13.4609C31.965 14.3543 30.9352 15.2136 29.658 16.3979L29.6571 16.397Z" fill="white" stroke="white" stroke-width="0.3" stroke-linejoin="round"/>
<path id="Vector_2" d="M27.9458 18.9818C27.9287 18.9818 27.9116 18.9818 27.8946 18.9818C27.4142 18.9704 26.9386 18.7951 26.5549 18.4882L26.7889 18.1954C27.1092 18.4512 27.5043 18.5981 27.9031 18.6075C28.4128 18.6246 28.8837 18.4095 29.1878 18.0306C29.5602 17.5663 29.6265 16.9173 29.3593 16.3385C29.2399 16.0751 29.0543 15.8392 28.8231 15.6525L22.7017 10.7524C22.1077 10.2891 21.8121 10.0835 21.5525 9.90349C21.2124 9.66758 20.9196 9.46388 20.0991 8.78457L20.3379 8.49561C21.146 9.16449 21.4331 9.3644 21.7657 9.59557C22.03 9.77938 22.3294 9.98686 22.9338 10.4587L29.058 15.3598C29.3356 15.5824 29.5573 15.8666 29.7004 16.1821C30.0273 16.8899 29.9429 17.6885 29.4806 18.2646C29.113 18.7222 28.5559 18.9818 27.9458 18.9818Z" fill="white" stroke="white" stroke-width="0.3" stroke-linejoin="round"/>
<path id="Vector_3" d="M5.49643 14.3387C5.24536 14.118 4.97724 13.8991 4.66743 13.6461C4.42394 13.4481 4.15297 13.2264 3.83558 12.9602C3.26144 12.4761 2.62571 12.0137 1.94356 11.5864L1.93692 11.5836C1.27751 11.1695 0.920331 10.4391 1.01507 9.71619C1.15529 8.59632 1.72091 6.79051 3.61483 4.55457C5.59686 2.21631 7.37803 1.45268 8.52253 1.22435C9.12131 1.09929 9.74377 1.24046 10.2251 1.61185L10.2364 1.62038C10.6362 1.86766 10.9745 2.19452 11.3317 2.54033C12.0015 3.18838 12.695 3.85916 13.9494 4.20213C14.011 4.22108 15.3459 4.63795 17.2531 5.98615L17.0371 6.29217C15.1839 4.98187 13.8585 4.56594 13.8452 4.56215C12.5036 4.1955 11.7428 3.45934 11.0711 2.81035C10.7234 2.47306 10.3937 2.15473 10.0204 1.92829L9.98157 1.89703C9.60071 1.60427 9.09194 1.48963 8.59643 1.59195C7.50783 1.80891 5.81192 2.54128 3.89906 4.79712C2.06483 6.96295 1.52006 8.69391 1.38552 9.76451C1.30878 10.3519 1.59111 10.9251 2.12262 11.2596L2.12925 11.2624C2.83793 11.7067 3.48787 12.1795 4.07528 12.6741C4.38983 12.9384 4.66079 13.1592 4.90239 13.3562C5.21504 13.612 5.48601 13.8318 5.74276 14.0583L5.49548 14.3397L5.49643 14.3387Z" fill="white" stroke="white" stroke-width="0.3" stroke-linejoin="round"/>
<path id="Vector_4" d="M19.273 25.6121C19.256 25.6121 19.2399 25.6121 19.2228 25.6121C18.5662 25.5969 17.759 25.2549 17.0655 24.6987L16.0518 23.8877L16.2858 23.595L17.2995 24.406C17.9315 24.9129 18.6544 25.2236 19.2313 25.2378C19.5828 25.2463 19.8794 25.1469 20.121 24.9422C20.5454 24.6248 20.7775 24.2184 20.7842 23.792C20.7908 23.3809 20.5852 22.9782 20.2214 22.6873L20.4554 22.3946L21.3062 23.0748C21.6274 23.3325 22.0244 23.4794 22.4223 23.4889C22.9301 23.5002 23.401 23.2899 23.7051 22.9109C23.9609 22.5916 24.0756 22.1833 24.0291 21.7607C23.977 21.2908 23.726 20.8436 23.3413 20.5357L23.5753 20.243L24.5673 21.035C25.3887 21.6063 26.3826 21.5381 26.9198 20.8654C27.1898 20.5272 27.3025 20.0952 27.2353 19.648C27.167 19.1989 26.9254 18.7868 26.555 18.4874L26.79 18.1956C27.2343 18.5537 27.5242 19.0492 27.6057 19.5921C27.6881 20.1435 27.5479 20.6778 27.2116 21.0985C26.5578 21.9161 25.3243 22.0175 24.3418 21.3335L24.3134 21.3107C24.3551 21.4434 24.3844 21.5788 24.4005 21.7172C24.4583 22.2401 24.3153 22.7461 23.9969 23.144C23.6198 23.6158 23.041 23.8802 22.4128 23.8631C21.9514 23.8527 21.4919 23.6888 21.1148 23.4008C21.1461 23.5305 21.1603 23.6632 21.1584 23.7977C21.1499 24.3434 20.8638 24.8541 20.3531 25.235C20.0594 25.4832 19.6937 25.6121 19.2721 25.6121H19.273Z" fill="white" stroke="white" stroke-width="0.3" stroke-linejoin="round"/>
<path id="Vector_5" d="M13.35 21.7229L13.3462 21.7191L13.6181 21.4604L13.35 21.7229Z" fill="white" stroke="white" stroke-width="0.3" stroke-linejoin="round"/>
<path id="Vector_6" d="M19.7118 14.9816C18.9652 14.9816 18.2907 14.5638 17.8747 13.786L15.6682 9.65234C15.1708 8.72007 15.041 7.9498 15.2731 7.29797L15.293 7.24302L15.3404 7.20891L19.0117 4.57031L19.2305 4.87444L15.6085 7.47704C15.4408 8.01328 15.5687 8.66796 15.9988 9.47517L18.2054 13.6088C18.8335 14.7827 19.871 14.7656 20.6318 14.3592C21.2088 14.0494 21.8312 13.1427 21.1784 11.9186L19.8795 9.48843L20.3068 7.04595L20.6763 7.11038L20.2708 9.4259L21.5081 11.7424C22.2007 13.0404 21.6645 14.2294 20.8089 14.6889C20.4404 14.886 20.068 14.9807 19.7118 14.9807V14.9816Z" fill="white" stroke="white" stroke-width="0.3" stroke-linejoin="round"/>
<g id="Group_2">
<path id="Vector_7" d="M7.22923 17.0292C7.16575 17.0292 7.10227 17.0263 7.03785 17.0206C6.50444 16.9704 6.02504 16.7175 5.68586 16.3063C5.34573 15.8979 5.18656 15.3787 5.23583 14.8463C5.28604 14.3129 5.53901 13.8335 5.95019 13.4943L7.82232 11.9471L8.33299 11.6487C9.14209 11.3237 10.0573 11.5568 10.6097 12.2285C10.9214 12.6028 11.0834 13.0803 11.0654 13.572C11.0445 14.1442 10.7821 14.6795 10.3453 15.0395L8.49784 16.5697C8.13876 16.869 7.69347 17.0292 7.22828 17.0292H7.22923ZM8.02507 12.2626L6.18895 13.7842C5.85545 14.059 5.64986 14.4493 5.60912 14.8813C5.56838 15.3143 5.69818 15.7359 5.97388 16.0675C6.24863 16.401 6.63898 16.6066 7.07195 16.6473C7.50683 16.6881 7.92654 16.5583 8.25814 16.2826L10.1066 14.7515C10.4609 14.4588 10.6741 14.0248 10.6911 13.5597C10.7054 13.1598 10.5737 12.7723 10.3207 12.4682C9.88109 11.9339 9.12883 11.7406 8.48458 11.9917L8.02412 12.2636L8.02507 12.2626Z" fill="white" stroke="white" stroke-width="0.3" stroke-linejoin="round"/>
<path id="Vector_8" d="M11.8402 22.5982C11.2651 22.5982 10.6938 22.3528 10.2988 21.8782C9.60145 21.0321 9.71704 19.773 10.5555 19.07L12.4163 17.5294C13.2642 16.8302 14.5234 16.9506 15.2245 17.7966C15.5362 18.1708 15.6982 18.6484 15.6811 19.141C15.6603 19.7133 15.3978 20.2486 14.9611 20.6086L13.1136 22.1415C12.7412 22.4485 12.2893 22.5982 11.8402 22.5982ZM13.6849 17.4489C13.3211 17.4489 12.9563 17.5702 12.6541 17.8184L10.7943 19.357C10.114 19.9283 10.0202 20.9516 10.5868 21.6385C11.1581 22.3244 12.1841 22.421 12.8739 21.8516L14.7214 20.3177C15.0757 20.025 15.2889 19.5901 15.3059 19.1249C15.3202 18.7251 15.1885 18.3376 14.9355 18.0335C14.6153 17.6469 14.151 17.447 13.6839 17.447L13.6849 17.4489Z" fill="white" stroke="white" stroke-width="0.3" stroke-linejoin="round"/>
<path id="Vector_9" d="M9.53106 19.8148C9.46853 19.8148 9.40505 19.812 9.34157 19.8063C8.81101 19.757 8.33351 19.505 7.99527 19.0976C7.29607 18.2535 7.41355 16.9972 8.25866 16.298L10.7855 14.2023C11.1929 13.865 11.7083 13.7067 12.2398 13.756C12.7703 13.8062 13.2478 14.0573 13.5851 14.4647C13.8968 14.8389 14.0588 15.3145 14.0418 15.8025C14.0209 16.37 13.7604 16.9024 13.3255 17.2644L10.7959 19.3572C10.4378 19.6557 9.99435 19.8139 9.53106 19.8139V19.8148ZM12.0493 14.1217C11.6742 14.1217 11.3151 14.2496 11.0252 14.4903L8.49836 16.586C7.81242 17.1535 7.71673 18.1729 8.28424 18.8579C8.55805 19.1886 8.94555 19.3923 9.37663 19.4321C9.80676 19.4719 10.2265 19.343 10.5562 19.0683L13.0858 16.9754C13.4383 16.6817 13.6505 16.2497 13.6676 15.7892C13.6818 15.3932 13.5501 15.0076 13.2971 14.7034C13.0233 14.3728 12.6358 14.1691 12.2047 14.1284C12.1526 14.1236 12.1005 14.1208 12.0493 14.1208V14.1217Z" fill="white" stroke="white" stroke-width="0.3" stroke-linejoin="round"/>
<path id="Vector_10" d="M14.4943 24.812C13.9552 24.812 13.4208 24.5818 13.0514 24.1355C12.734 23.7518 12.5843 23.2658 12.6316 22.7674C12.679 22.2691 12.9159 21.82 13.2996 21.5035L14.1854 20.7683C14.2375 20.7267 14.2878 20.6878 14.3399 20.6556C15.1338 20.1184 16.2035 20.27 16.8202 21.0137C17.112 21.3681 17.2636 21.8143 17.2466 22.2729C17.2276 22.8101 16.9813 23.3112 16.572 23.6485L15.6862 24.3837C15.3375 24.6718 14.915 24.812 14.4943 24.812ZM15.383 20.7124C15.0931 20.7124 14.8013 20.7968 14.5426 20.9711C14.4962 21.0005 14.4592 21.0298 14.4213 21.0601L13.5374 21.7925C13.2314 22.0455 13.0419 22.4036 13.004 22.8025C12.9661 23.2013 13.0855 23.5907 13.3384 23.8968C13.8642 24.5306 14.8098 24.6206 15.4455 24.0957L16.3314 23.3605C16.6592 23.0905 16.8553 22.6897 16.8705 22.2596C16.8837 21.8929 16.7624 21.5358 16.5294 21.2525C16.2347 20.8981 15.8103 20.7115 15.3801 20.7115L15.383 20.7124Z" fill="white" stroke="white" stroke-width="0.3" stroke-linejoin="round"/>
</g>
<path id="Vector_11" d="M23.0544 15.289L22.8247 15.5845L26.5573 18.486L26.787 18.1906L23.0544 15.289Z" fill="white" stroke="white" stroke-width="0.3" stroke-linejoin="round"/>
<path id="Vector_12" d="M20.4295 17.8L20.1992 18.0963L23.3431 20.5402L23.5734 20.244L20.4295 17.8Z" fill="white" stroke="white" stroke-width="0.3" stroke-linejoin="round"/>
<path id="Vector_13" d="M17.7864 20.3223L17.5562 20.6186L20.2239 22.6917L20.4541 22.3954L17.7864 20.3223Z" fill="white" stroke="white" stroke-width="0.3" stroke-linejoin="round"/>
<path id="Vector_14" d="M23.5713 10.5195C22.6011 10.5195 22.0629 10.2524 22.0137 10.2268L22.1871 9.89423L22.1008 10.06L22.1871 9.89328C22.2126 9.90655 24.8105 11.1657 29.1933 7.74451L29.4235 8.04011C26.8276 10.0667 24.8351 10.5186 23.5722 10.5186L23.5713 10.5195Z" fill="white" stroke="white" stroke-width="0.3" stroke-linejoin="round"/>
</g>
</svg>
