<svg width="31" height="33" viewBox="0 0 31 33" fill="none" xmlns="http://www.w3.org/2000/svg">
<path fill-rule="evenodd" clip-rule="evenodd" d="M15.0771 15.2788C19.0742 15.2788 22.3144 12.0385 22.3144 8.04146C22.3144 4.0444 19.0742 0.80414 15.0771 0.80414C11.08 0.80414 7.83978 4.0444 7.83978 8.04146C7.83978 12.0385 11.08 15.2788 15.0771 15.2788ZM15.0771 16.0829C19.5183 16.0829 23.1186 12.4826 23.1186 8.04146C23.1186 3.60028 19.5183 0 15.0771 0C10.6359 0 7.03564 3.60028 7.03564 8.04146C7.03564 12.4826 10.6359 16.0829 15.0771 16.0829Z" fill="white"/>
<path fill-rule="evenodd" clip-rule="evenodd" d="M0.0102539 28.0503C0.0102539 23.8312 3.4305 20.4109 7.64959 20.4109H22.5027C26.7218 20.4109 30.1421 23.8312 30.1421 28.0503V32.1657C30.1421 32.3877 29.962 32.5677 29.74 32.5677C29.5179 32.5677 29.3379 32.3877 29.3379 32.1657V28.0503C29.3379 24.2753 26.2777 21.2151 22.5027 21.2151H7.64959C3.87461 21.2151 0.814394 24.2753 0.814394 28.0503V32.1657C0.814394 32.3877 0.634381 32.5677 0.412324 32.5677C0.190267 32.5677 0.0102539 32.3877 0.0102539 32.1657V28.0503Z" fill="white"/>
</svg>
