<svg width="29" height="33" viewBox="0 0 29 33" fill="none" xmlns="http://www.w3.org/2000/svg">
<path fill-rule="evenodd" clip-rule="evenodd" d="M24.9664 6.67302C25.5378 6.14083 25.753 5.65155 25.753 5.22691C25.753 4.80227 25.5378 4.31299 24.9664 3.78081C24.3938 3.24753 23.5215 2.73027 22.3762 2.27911C20.0905 1.37867 16.8779 0.80414 13.2888 0.80414C9.69972 0.80414 6.48715 1.37867 4.20144 2.27911C3.05618 2.73027 2.18383 3.24753 1.61126 3.78081C1.03987 4.31299 0.824648 4.80227 0.824648 5.22691C0.824648 5.65155 1.03987 6.14083 1.61126 6.67302C2.18383 7.20629 3.05618 7.72355 4.20144 8.17472C6.48715 9.07515 9.69972 9.64968 13.2888 9.64968C16.8779 9.64968 20.0905 9.07515 22.3762 8.17472C23.5215 7.72355 24.3938 7.20629 24.9664 6.67302ZM13.2888 10.4538C20.6167 10.4538 26.5571 8.11365 26.5571 5.22691C26.5571 2.34017 20.6167 0 13.2888 0C5.96093 0 0.0205078 2.34017 0.0205078 5.22691C0.0205078 8.11365 5.96093 10.4538 13.2888 10.4538Z" fill="white"/>
<path fill-rule="evenodd" clip-rule="evenodd" d="M0.0240239 11.4872C0.1879 14.3196 6.05947 16.5958 13.2787 16.5958C20.4979 16.5958 26.3695 14.3196 26.5333 11.4872H26.5369V4.91895C26.5369 5.53599 26.2529 6.12748 25.7327 6.67509C23.8742 8.63141 18.9996 10.0276 13.2787 10.0276C7.55777 10.0276 2.68317 8.63141 0.824648 6.67509C0.304417 6.12748 0.0205078 5.53599 0.0205078 4.91895V11.4872H0.0240239ZM0.824648 11.4032L0.826821 11.4408C0.851267 11.8633 1.09262 12.3529 1.68405 12.8801C2.27432 13.4062 3.15431 13.913 4.29525 14.3535C6.57311 15.233 9.74345 15.7917 13.2787 15.7917C16.8139 15.7917 19.9843 15.233 22.2621 14.3535C23.4031 13.913 24.2831 13.4062 24.8733 12.8801C25.4648 12.3529 25.7061 11.8633 25.7305 11.4408L25.7327 11.4032V7.76095C24.995 8.35111 24.0392 8.85917 22.9428 9.28167C20.4299 10.2499 17.0129 10.8317 13.2787 10.8317C9.5445 10.8317 6.12748 10.2499 3.61461 9.28167C2.51812 8.85917 1.56238 8.35111 0.824648 7.76095V11.4032Z" fill="white"/>
<path fill-rule="evenodd" clip-rule="evenodd" d="M0.0240321 17.8124C0.188096 20.6448 6.05959 22.9209 13.2787 22.9209C20.4978 22.9209 26.3693 20.6448 26.5333 17.8124H26.5369V11.2441C26.5369 11.8612 26.2529 12.4527 25.7327 13.0003C23.8742 14.9566 18.9996 16.3528 13.2787 16.3528C7.55777 16.3528 2.68317 14.9566 0.824648 13.0003C0.304417 12.4527 0.0205078 11.8612 0.0205078 11.2441V17.8124H0.0240321ZM0.824648 17.7283L0.826827 17.7659C0.8513 18.1884 1.09268 18.6781 1.68414 19.2052C2.27443 19.7313 3.15443 20.2381 4.29536 20.6786C6.57321 21.5581 9.74351 22.1168 13.2787 22.1168C16.8139 22.1168 19.9842 21.5581 22.262 20.6786C23.4029 20.2381 24.2829 19.7313 24.8732 19.2052C25.4647 18.6781 25.7061 18.1884 25.7305 17.7659L25.7327 17.7283V14.0861C24.995 14.6763 24.0392 15.1844 22.9428 15.6069C20.4299 16.5751 17.0129 17.1569 13.2787 17.1569C9.5445 17.1569 6.12748 16.5751 3.61461 15.6069C2.51812 15.1844 1.56238 14.6763 0.824648 14.0861V17.7283Z" fill="white"/>
<path fill-rule="evenodd" clip-rule="evenodd" d="M0.0240176 24.1376C0.187749 26.9701 6.05938 29.2463 13.2787 29.2463C20.498 29.2463 26.3696 26.9701 26.5333 24.1376H26.5369V17.5693C26.5369 18.1864 26.2529 18.7779 25.7327 19.3255C23.8742 21.2818 18.9996 22.678 13.2787 22.678C7.55777 22.678 2.68317 21.2818 0.824648 19.3255C0.304417 18.7779 0.0205078 18.1864 0.0205078 17.5693V24.1376H0.0240176ZM0.824648 24.0537L0.826818 24.0912C0.851241 24.5137 1.09257 25.0034 1.68398 25.5305C2.27423 26.0566 3.15422 26.5635 4.29516 27.004C6.57303 27.8835 9.74341 28.4422 13.2787 28.4422C16.814 28.4422 19.9843 27.8835 22.2622 27.004C23.4031 26.5635 24.2831 26.0566 24.8734 25.5305C25.4648 25.0034 25.7061 24.5137 25.7306 24.0912L25.7327 24.0537V20.4113C24.995 21.0015 24.0392 21.5096 22.9428 21.9321C20.4299 22.9003 17.0129 23.4821 13.2787 23.4821C9.5445 23.4821 6.12748 22.9003 3.61461 21.9321C2.51812 21.5096 1.56238 21.0015 0.824648 20.4113V24.0537Z" fill="white"/>
<path d="M28.9693 22.9175C28.9693 28.0248 24.829 32.1651 19.7217 32.1651C14.6144 32.1651 10.4741 28.0248 10.4741 22.9175C10.4741 17.8102 14.6144 13.6699 19.7217 13.6699C24.829 13.6699 28.9693 17.8102 28.9693 22.9175Z" fill="#0A0A0A"/>
<path fill-rule="evenodd" clip-rule="evenodd" d="M19.7217 31.361C24.3849 31.361 28.1652 27.5807 28.1652 22.9175C28.1652 18.2543 24.3849 14.4741 19.7217 14.4741C15.0585 14.4741 11.2783 18.2543 11.2783 22.9175C11.2783 27.5807 15.0585 31.361 19.7217 31.361ZM19.7217 32.1651C24.829 32.1651 28.9693 28.0248 28.9693 22.9175C28.9693 17.8102 24.829 13.6699 19.7217 13.6699C14.6144 13.6699 10.4741 17.8102 10.4741 22.9175C10.4741 28.0248 14.6144 32.1651 19.7217 32.1651Z" fill="white"/>
<path d="M19.5352 22.708V19.2998H20.6111V22.708H24.0507V23.7838H20.6111V27.192H19.5352V23.7838H16.1035V22.708H19.5352Z" fill="white"/>
<path d="M7.97442 3.35515L8.23106 2.55292L8.85635 2.75296C9.05318 2.37489 9.28462 2.07314 9.55065 1.84772C9.818 1.61822 10.1656 1.42788 10.5933 1.27671L10.8808 2.09775C10.3252 2.26652 9.92379 2.5724 9.67668 3.01539L12.5392 3.93115C13.4092 3.03035 14.0504 2.50192 14.4629 2.34585C14.9907 2.14565 15.5089 2.12692 16.0175 2.28964C16.4382 2.42422 16.7846 2.67231 17.0568 3.0339C17.3265 3.39019 17.4915 3.80979 17.5521 4.29269C17.5908 4.6066 17.5624 5.01156 17.4669 5.50758L19.2625 6.08199L19.0058 6.88422L17.2103 6.30981C17.0114 6.79973 16.8082 7.17801 16.6006 7.44464C16.3931 7.71127 16.132 7.95404 15.8175 8.17294C15.5004 8.38654 15.164 8.54217 14.8081 8.63985L14.5531 7.83594C15.4383 7.49358 16.0601 6.90045 16.4187 6.05655L12.8677 4.92057C12.3682 5.46733 12.0375 5.80931 11.8755 5.94653C11.5427 6.22259 11.2137 6.40088 10.8887 6.4814C10.5636 6.56192 10.2232 6.54529 9.86753 6.4315C9.52334 6.32139 9.23339 6.12738 8.99768 5.84945C8.76198 5.57153 8.60262 5.24603 8.51962 4.87294C8.43792 4.49577 8.45314 4.05285 8.56529 3.54418L7.97442 3.35515ZM9.36267 3.79927C9.28766 4.1128 9.27366 4.3806 9.32066 4.60266C9.36384 4.82349 9.45767 5.01777 9.60215 5.1855C9.74412 5.34793 9.92218 5.4634 10.1363 5.53191C10.4117 5.62 10.6724 5.6089 10.9185 5.4986C11.2517 5.35317 11.6031 5.06506 11.9728 4.63428L9.36267 3.79927ZM16.6523 5.24698C16.7454 4.73219 16.7031 4.28439 16.5256 3.90357C16.3494 3.51868 16.0931 3.2724 15.7565 3.16474C15.4276 3.05952 15.087 3.07657 14.7347 3.21588C14.3837 3.35111 13.9483 3.68435 13.4284 4.2156L16.6523 5.24698Z" fill="white"/>
</svg>
