<svg width="34" height="33" viewBox="0 0 34 33" fill="none" xmlns="http://www.w3.org/2000/svg">
<path fill-rule="evenodd" clip-rule="evenodd" d="M0.608125 0C0.830182 0 1.01019 0.180013 1.01019 0.40207V32.1656H32.7737C32.9958 32.1656 33.1758 32.3456 33.1758 32.5677C33.1758 32.7897 32.9958 32.9697 32.7737 32.9697H0.206055V0.40207C0.206055 0.180013 0.386068 0 0.608125 0Z" fill="white"/>
<path fill-rule="evenodd" clip-rule="evenodd" d="M6.63937 4.12396C6.86143 4.12396 7.04144 4.30398 7.04144 4.52603V27.6193C7.04144 27.8413 6.86143 28.0214 6.63937 28.0214C6.41732 28.0214 6.2373 27.8413 6.2373 27.6193V4.52603C6.2373 4.30398 6.41732 4.12396 6.63937 4.12396Z" fill="white"/>
<path fill-rule="evenodd" clip-rule="evenodd" d="M13.8767 10.3093C14.0987 10.3093 14.2787 10.4893 14.2787 10.7114L14.2788 28.0313C14.2788 28.2534 14.0987 28.4334 13.8767 28.4334C13.6546 28.4334 13.4746 28.2534 13.4746 28.0313L13.4746 10.7114C13.4746 10.4893 13.6546 10.3093 13.8767 10.3093Z" fill="white"/>
<path fill-rule="evenodd" clip-rule="evenodd" d="M21.1135 16.0828C21.3356 16.0828 21.5156 16.2628 21.5156 16.4849L21.5156 28.0315C21.5156 28.2536 21.3356 28.4336 21.1135 28.4336C20.8914 28.4336 20.7114 28.2536 20.7114 28.0315L20.7114 16.4849C20.7114 16.2628 20.8914 16.0828 21.1135 16.0828Z" fill="white"/>
<path fill-rule="evenodd" clip-rule="evenodd" d="M28.3508 20.2068C28.5729 20.2068 28.7529 20.3868 28.7529 20.6089L28.7529 28.0317C28.7529 28.2537 28.5729 28.4338 28.3508 28.4338C28.1287 28.4338 27.9487 28.2537 27.9487 28.0317L27.9487 20.6089C27.9487 20.3868 28.1287 20.2068 28.3508 20.2068Z" fill="white"/>
</svg>
