<svg width="29" height="33" viewBox="0 0 29 33" fill="none" xmlns="http://www.w3.org/2000/svg">
<g id="Group 10607">
<path id="Ellipse 4 (Stroke)" fill-rule="evenodd" clip-rule="evenodd" d="M24.9664 6.67302C25.5378 6.14083 25.753 5.65155 25.753 5.22691C25.753 4.80227 25.5378 4.31299 24.9664 3.78081C24.3938 3.24753 23.5215 2.73027 22.3762 2.27911C20.0905 1.37867 16.8779 0.80414 13.2888 0.80414C9.69972 0.80414 6.48715 1.37867 4.20144 2.27911C3.05618 2.73027 2.18383 3.24753 1.61126 3.78081C1.03987 4.31299 0.824648 4.80227 0.824648 5.22691C0.824648 5.65155 1.03987 6.14083 1.61126 6.67302C2.18383 7.20629 3.05618 7.72355 4.20144 8.17472C6.48715 9.07515 9.69972 9.64968 13.2888 9.64968C16.8779 9.64968 20.0905 9.07515 22.3762 8.17472C23.5215 7.72355 24.3938 7.20629 24.9664 6.67302ZM13.2888 10.4538C20.6167 10.4538 26.5571 8.11365 26.5571 5.22691C26.5571 2.34017 20.6167 0 13.2888 0C5.96093 0 0.0205078 2.34017 0.0205078 5.22691C0.0205078 8.11365 5.96093 10.4538 13.2888 10.4538Z" fill="white"/>
<path id="Subtract (Stroke)" fill-rule="evenodd" clip-rule="evenodd" d="M0.0240239 11.4878C0.1879 14.3202 6.05947 16.5964 13.2787 16.5964C20.4979 16.5964 26.3695 14.3202 26.5333 11.4878H26.5369V4.91949C26.5369 5.53654 26.2529 6.12803 25.7327 6.67564C23.8742 8.63196 18.9996 10.0282 13.2787 10.0282C7.55777 10.0282 2.68317 8.63196 0.824648 6.67564C0.304417 6.12803 0.0205078 5.53654 0.0205078 4.91949V11.4878H0.0240239ZM0.824648 11.4038L0.826821 11.4413C0.851267 11.8638 1.09262 12.3535 1.68405 12.8806C2.27432 13.4067 3.15431 13.9135 4.29525 14.3541C6.57311 15.2336 9.74345 15.7923 13.2787 15.7923C16.8139 15.7923 19.9843 15.2336 22.2621 14.3541C23.4031 13.9135 24.2831 13.4067 24.8733 12.8806C25.4648 12.3535 25.7061 11.8638 25.7305 11.4413L25.7327 11.4038V7.7615C24.995 8.35166 24.0392 8.85972 22.9428 9.28222C20.4299 10.2505 17.0129 10.8323 13.2787 10.8323C9.5445 10.8323 6.12748 10.2505 3.61461 9.28222C2.51812 8.85972 1.56238 8.35166 0.824648 7.76149V11.4038Z" fill="white"/>
<path id="Subtract (Stroke)_2" fill-rule="evenodd" clip-rule="evenodd" d="M0.0240321 17.8129C0.188096 20.6452 6.05959 22.9214 13.2787 22.9214C20.4978 22.9214 26.3693 20.6452 26.5333 17.8129H26.5369V11.2446C26.5369 11.8617 26.2529 12.4532 25.7327 13.0008C23.8742 14.9571 18.9996 16.3533 13.2787 16.3533C7.55777 16.3533 2.68317 14.9571 0.824648 13.0008C0.304417 12.4532 0.0205078 11.8617 0.0205078 11.2446V17.8129H0.0240321ZM0.824648 17.7288L0.826827 17.7664C0.8513 18.1889 1.09268 18.6785 1.68414 19.2057C2.27443 19.7318 3.15443 20.2386 4.29536 20.6791C6.57321 21.5586 9.74351 22.1172 13.2787 22.1172C16.8139 22.1172 19.9842 21.5586 22.262 20.6791C23.4029 20.2386 24.2829 19.7318 24.8732 19.2057C25.4647 18.6785 25.7061 18.1889 25.7305 17.7664L25.7327 17.7288V14.0866C24.995 14.6768 24.0392 15.1849 22.9428 15.6074C20.4299 16.5756 17.0129 17.1574 13.2787 17.1574C9.5445 17.1574 6.12748 16.5756 3.61461 15.6074C2.51812 15.1849 1.56238 14.6768 0.824648 14.0866V17.7288Z" fill="white"/>
<path id="Subtract (Stroke)_3" fill-rule="evenodd" clip-rule="evenodd" d="M0.0240176 24.1376C0.187749 26.9701 6.05938 29.2463 13.2787 29.2463C20.498 29.2463 26.3696 26.9701 26.5333 24.1376H26.5369V17.5693C26.5369 18.1864 26.2529 18.7779 25.7327 19.3255C23.8742 21.2818 18.9996 22.678 13.2787 22.678C7.55777 22.678 2.68317 21.2818 0.824648 19.3255C0.304417 18.7779 0.0205078 18.1864 0.0205078 17.5693V24.1376H0.0240176ZM0.824648 24.0537L0.826818 24.0912C0.851241 24.5137 1.09257 25.0034 1.68398 25.5305C2.27423 26.0566 3.15422 26.5635 4.29516 27.004C6.57303 27.8835 9.74341 28.4422 13.2787 28.4422C16.814 28.4422 19.9843 27.8835 22.2622 27.004C23.4031 26.5635 24.2831 26.0566 24.8734 25.5305C25.4648 25.0034 25.7061 24.5137 25.7306 24.0912L25.7327 24.0537V20.4113C24.995 21.0015 24.0392 21.5096 22.9428 21.9321C20.4299 22.9003 17.0129 23.4821 13.2787 23.4821C9.5445 23.4821 6.12748 22.9003 3.61461 21.9321C2.51812 21.5096 1.56238 21.0015 0.824648 20.4113V24.0537Z" fill="white"/>
<path id="$" d="M7.97442 3.35485L8.23106 2.55262L8.85635 2.75266C9.05318 2.37458 9.28462 2.07284 9.55065 1.84742C9.818 1.61792 10.1656 1.42758 10.5933 1.2764L10.8808 2.09744C10.3252 2.26621 9.92379 2.57209 9.67668 3.01509L12.5392 3.93085C13.4092 3.03004 14.0504 2.50161 14.4629 2.34554C14.9907 2.14535 15.5089 2.12661 16.0175 2.28933C16.4382 2.42391 16.7846 2.672 17.0568 3.0336C17.3265 3.38989 17.4915 3.80948 17.5521 4.29239C17.5908 4.6063 17.5624 5.01126 17.4669 5.50727L19.2625 6.08168L19.0058 6.88391L17.2103 6.3095C17.0114 6.79942 16.8082 7.1777 16.6006 7.44433C16.3931 7.71096 16.132 7.95373 15.8175 8.17263C15.5004 8.38623 15.164 8.54187 14.8081 8.63954L14.5531 7.83564C15.4383 7.49327 16.0601 6.90014 16.4187 6.05624L12.8677 4.92026C12.3682 5.46702 12.0375 5.80901 11.8755 5.94622C11.5427 6.22228 11.2137 6.40057 10.8887 6.48109C10.5636 6.56161 10.2232 6.54498 9.86753 6.4312C9.52334 6.32109 9.23339 6.12707 8.99768 5.84915C8.76198 5.57123 8.60262 5.24572 8.51962 4.87264C8.43792 4.49547 8.45314 4.05255 8.56529 3.54387L7.97442 3.35485ZM9.36267 3.79896C9.28766 4.1125 9.27366 4.38029 9.32066 4.60235C9.36384 4.82318 9.45767 5.01746 9.60215 5.1852C9.74412 5.34762 9.92218 5.46309 10.1363 5.53161C10.4117 5.6197 10.6724 5.60859 10.9185 5.4983C11.2517 5.35287 11.6031 5.06476 11.9728 4.63397L9.36267 3.79896ZM16.6523 5.24667C16.7454 4.73188 16.7031 4.28408 16.5256 3.90327C16.3494 3.51837 16.0931 3.2721 15.7565 3.16443C15.4276 3.05921 15.087 3.07626 14.7347 3.21557C14.3837 3.3508 13.9483 3.68405 13.4284 4.2153L16.6523 5.24667Z" fill="white"/>
<path id="Ellipse 6" d="M28.9693 22.918C28.9693 28.0253 24.829 32.1656 19.7217 32.1656C14.6144 32.1656 10.4741 28.0253 10.4741 22.918C10.4741 17.8107 14.6144 13.6704 19.7217 13.6704C24.829 13.6704 28.9693 17.8107 28.9693 22.918Z" fill="#0A0A0A"/>
<path id="Ellipse 6 (Stroke)" fill-rule="evenodd" clip-rule="evenodd" d="M19.7217 31.3615C24.3849 31.3615 28.1652 27.5812 28.1652 22.918C28.1652 18.2548 24.3849 14.4746 19.7217 14.4746C15.0585 14.4746 11.2783 18.2548 11.2783 22.918C11.2783 27.5812 15.0585 31.3615 19.7217 31.3615ZM19.7217 32.1656C24.829 32.1656 28.9693 28.0253 28.9693 22.918C28.9693 17.8107 24.829 13.6704 19.7217 13.6704C14.6144 13.6704 10.4741 17.8107 10.4741 22.918C10.4741 28.0253 14.6144 32.1656 19.7217 32.1656Z" fill="white"/>
<g id="Group 10602">
<path id="Vector 44 (Stroke)" fill-rule="evenodd" clip-rule="evenodd" d="M19.8704 18.7435C20.0924 18.7435 20.2725 18.9235 20.2725 19.1455L20.2725 27.4221C20.2725 27.6442 20.0924 27.8242 19.8704 27.8242C19.6483 27.8242 19.4683 27.6442 19.4683 27.4221L19.4683 19.1455C19.4683 18.9235 19.6483 18.7435 19.8704 18.7435Z" fill="white"/>
<path id="Vector 45 (Stroke)" fill-rule="evenodd" clip-rule="evenodd" d="M22.9731 21.9518C22.8145 22.1072 22.5599 22.1046 22.4045 21.946L19.5832 19.0672C19.4278 18.9086 19.4303 18.6541 19.5889 18.4986C19.7475 18.3432 20.0021 18.3458 20.1575 18.5044L22.9788 21.3832C23.1343 21.5418 23.1317 21.7963 22.9731 21.9518Z" fill="white"/>
<path id="Vector 46 (Stroke)" fill-rule="evenodd" clip-rule="evenodd" d="M20.1518 18.4988C19.9932 18.3434 19.7387 18.3459 19.5832 18.5045L16.7619 21.3833C16.6065 21.5419 16.609 21.7965 16.7676 21.9519C16.9262 22.1073 17.1808 22.1048 17.3362 21.9462L20.1575 19.0674C20.313 18.9088 20.3104 18.6542 20.1518 18.4988Z" fill="white"/>
</g>
</g>
</svg>
