<svg width="145" height="49" viewBox="0 0 145 49" fill="none" xmlns="http://www.w3.org/2000/svg">
<path d="M103.57 37.4791V0.416992H111.02V37.4791H103.57Z" fill="#565656"/>
<path d="M16.7473 48.4881H0.776611V11.426H16.1057C23.5556 11.426 27.8956 15.4875 27.8956 21.8366C27.8956 25.9478 25.1073 28.6052 23.1777 29.4904C25.4819 30.5298 28.4294 32.8722 28.4294 37.8189C28.4294 44.74 23.5556 48.4881 16.7473 48.4881ZM15.5156 17.8813H8.22649V26.4186H15.5139C18.6752 26.4186 20.444 24.7012 20.444 22.1483C20.444 19.6003 18.6769 17.8813 15.5156 17.8813ZM15.9963 32.9253H8.22815V42.0362H15.9996C19.3765 42.0362 20.9811 39.9541 20.9811 37.4542C20.9811 34.956 19.3731 32.9253 15.9996 32.9253H15.9963ZM51.152 33.29V48.4881H43.7552V33.29L32.2853 11.426H40.3784L47.5066 26.3656L54.5272 11.426H62.6186L51.152 33.29ZM83.7399 48.4881H67.7692V11.426H83.0967C90.5465 11.426 94.8882 15.4875 94.8882 21.8366C94.8882 25.9478 92.0998 28.6052 90.1702 29.4904C92.4745 30.5298 95.422 32.8722 95.422 37.8189C95.422 44.74 90.5482 48.4881 83.7399 48.4881ZM82.5082 17.8813H75.2191V26.4186H82.5082C85.6695 26.4186 87.4383 24.7012 87.4383 22.1483C87.4383 19.6003 85.6695 17.8813 82.5082 17.8813ZM82.9889 32.9253H75.2174V42.0362H82.9889C86.3674 42.0362 87.9721 39.9541 87.9721 37.4542C87.9721 34.956 86.3674 32.9253 82.9889 32.9253ZM135.03 17.8829V48.4914H127.58V17.8813H117.614V11.426H145V17.8813L135.03 17.8829Z" fill="white"/>
</svg>
