<svg width="261" height="61" viewBox="0 0 261 61" fill="none" xmlns="http://www.w3.org/2000/svg">
<path d="M205.249 30.1713C205.249 28.6447 205.249 27.2012 205.197 25.8719C205.166 24.6153 205.041 23.3691 204.823 22.1333C204.626 21.0013 204.273 19.9109 203.774 18.8724C203.255 17.8027 202.549 16.8369 201.707 16.0061C200.503 14.7807 199.08 13.7941 197.502 13.1087C195.798 12.4129 193.971 12.0702 192.132 12.1013C190.284 12.0805 188.456 12.4233 186.743 13.1087C185.154 13.7837 183.721 14.7599 182.516 15.9957C181.675 16.8265 180.979 17.8027 180.46 18.862C179.972 19.9005 179.618 20.9909 179.432 22.1229C179.224 23.3587 179.099 24.6049 179.078 25.8615C179.047 27.1908 179.026 28.6343 179.037 30.1609C179.047 31.6875 179.037 33.1207 179.078 34.4604C179.11 35.717 179.224 36.9632 179.432 38.199C179.629 39.331 179.972 40.4214 180.46 41.4599C180.979 42.5192 181.675 43.4954 182.516 44.3262C183.721 45.5516 185.164 46.5382 186.743 47.2028C188.456 47.8986 190.294 48.2413 192.132 48.2206C193.971 48.2517 195.798 47.8986 197.502 47.2028C199.08 46.5278 200.503 45.5516 201.707 44.3262C202.549 43.4954 203.255 42.5192 203.774 41.4599C204.273 40.4214 204.626 39.331 204.823 38.199C205.031 36.9632 205.155 35.717 205.186 34.4707C205.238 33.1207 205.259 31.6875 205.249 30.1713ZM198.312 30.1713C198.312 31.8641 198.291 33.2765 198.228 34.398C198.197 35.3223 198.104 36.2362 197.948 37.1501C197.844 37.7524 197.657 38.3444 197.398 38.9052C197.18 39.3517 196.91 39.7671 196.577 40.1306C196.058 40.7226 195.414 41.1899 194.698 41.5118C193.888 41.8545 193.015 42.0311 192.132 42.0311C191.25 42.0311 190.367 41.8545 189.557 41.5118C188.82 41.2003 188.165 40.7329 187.625 40.1306C187.293 39.7671 187.013 39.3517 186.805 38.9052C186.545 38.3444 186.379 37.7628 186.286 37.1501C186.14 36.2362 186.047 35.3223 186.005 34.398C185.953 33.2765 185.933 31.8641 185.933 30.1713C185.933 28.4786 185.953 27.0662 186.005 25.9342C186.047 25.0099 186.13 24.0961 186.286 23.1822C186.379 22.5798 186.556 21.9879 186.805 21.4271C187.013 20.9805 187.293 20.5651 187.625 20.2017C188.155 19.6097 188.82 19.132 189.557 18.8205C190.367 18.4674 191.25 18.2908 192.132 18.3012C193.015 18.2908 193.888 18.4674 194.698 18.8205C195.414 19.132 196.058 19.6097 196.577 20.2017C196.91 20.5651 197.19 20.9805 197.398 21.4271C197.657 21.9879 197.844 22.5695 197.948 23.1822C198.093 24.0961 198.187 25.0099 198.228 25.9342C198.291 27.0558 198.312 28.4682 198.312 30.1713Z" fill="#565656"/>
<path d="M260.518 13.0148C260.518 12.6825 260.248 12.4125 259.905 12.4021H254.183C253.851 12.4021 253.581 12.6721 253.57 13.0148V34.1484L239.613 12.5683C239.519 12.4229 239.436 12.4021 239.229 12.4021H233.922C233.59 12.4021 233.32 12.6721 233.309 13.0148V47.3167C233.309 47.649 233.579 47.919 233.922 47.919H239.644C239.976 47.919 240.246 47.649 240.246 47.3167V26.1208L254.214 47.7425C254.308 47.8879 254.391 47.9086 254.599 47.9086H259.905C260.238 47.9086 260.508 47.6386 260.518 47.3063V13.0148Z" fill="#565656"/>
<path d="M222.166 13.0148C222.166 12.6825 221.896 12.4125 221.553 12.4021H215.831C215.499 12.4021 215.229 12.6721 215.218 13.0148V47.3167C215.218 47.649 215.488 47.919 215.831 47.9294H221.553C221.886 47.9294 222.156 47.6594 222.166 47.3167V13.0148Z" fill="#565656"/>
<path d="M153.728 30.1714C153.728 28.4682 153.749 27.0455 153.801 25.9135C153.832 24.9892 153.926 24.0753 154.081 23.1615C154.611 20.1082 156.948 18.3012 159.939 18.3012C161.891 18.322 163.656 19.0386 164.778 20.6794C165.287 21.4479 165.661 22.2995 165.879 23.1926C165.9 23.2861 165.983 23.3484 166.076 23.3484H172.806C172.899 23.3484 172.941 23.2861 172.92 23.1926C172.183 19.0282 169.96 15.2896 166.035 13.4306C164.103 12.5375 161.995 12.091 159.876 12.1221C156.086 12.1221 152.898 13.4203 150.301 16.0165C148.816 17.4601 147.809 19.319 147.404 21.3441C147.009 23.338 146.812 26.2874 146.802 30.1714C146.802 34.0658 146.999 37.0047 147.404 38.9987C147.809 41.0341 148.816 42.8931 150.301 44.3366C152.898 46.9329 156.086 48.2206 159.876 48.2206C162.005 48.2518 164.103 47.8052 166.035 46.9121C169.96 45.0636 172.183 41.3145 172.92 37.1501C172.941 37.0567 172.899 36.9944 172.806 36.9944H166.076C165.983 36.984 165.889 37.0463 165.879 37.1501C165.661 38.0432 165.287 38.8948 164.778 39.6529C163.646 41.3042 161.881 42.0207 159.939 42.0311C156.948 42.0311 154.611 40.2345 154.081 37.1709C153.936 36.257 153.843 35.3431 153.801 34.4189C153.749 33.2869 153.728 31.8641 153.728 30.1714Z" fill="#565656"/>
<path d="M82.6426 13.0148C82.6426 12.6825 82.3726 12.4125 82.0299 12.4021H76.3181C75.9858 12.4021 75.7158 12.6721 75.7054 13.0148V47.3167C75.7054 47.649 75.9754 47.919 76.3181 47.919H82.0403C82.3726 47.919 82.6426 47.649 82.653 47.3167V37.2432L87.2432 31.7599L96.6624 47.7425C96.7351 47.8567 96.8701 47.9294 97.0052 47.9294H103.953C104.275 47.9294 104.327 47.7321 104.171 47.4621L91.823 26.5362L103.143 12.9525C103.371 12.6721 103.278 12.4125 102.914 12.4125H95.3228C95.2293 12.4021 95.1462 12.4436 95.0839 12.5267L82.6426 27.4501V13.0148Z" fill="#565656"/>
<path d="M124.297 42.0307C121.078 42.0307 118.16 39.0502 118.16 35.4985V13.0148C118.16 12.6825 117.89 12.4125 117.547 12.4021H111.835C111.503 12.4021 111.233 12.6721 111.222 13.0148V35.4154C111.222 43.2457 117.08 48.2202 124.287 48.2202C131.494 48.2202 137.351 43.2457 137.351 35.4154V13.0148C137.351 12.6825 137.081 12.4125 136.739 12.4021H131.016C130.684 12.4021 130.414 12.6721 130.414 13.0148V35.4985C130.435 39.0502 127.506 42.0307 124.297 42.0307Z" fill="#565656"/>
<path fill-rule="evenodd" clip-rule="evenodd" d="M18.2449 30.171L35.9929 47.9191L47.1984 36.7136C49.2027 34.9066 52.2663 34.9897 54.1668 36.9005C56.0673 38.8114 56.1504 41.875 54.3537 43.8793L39.5758 58.6572C37.5922 60.6096 34.404 60.6096 32.4205 58.6572L11.0896 37.3263V50.0065C11.0896 52.8001 8.82561 55.0744 6.02165 55.0744C3.22806 55.0744 0.953735 52.8104 0.953735 50.0065V10.3148C0.953735 7.52118 3.21768 5.24685 6.02165 5.24685C8.82561 5.24685 11.0896 7.51079 11.0896 10.3148V22.9949L32.4101 1.664C34.3936 -0.288391 37.5819 -0.288391 39.5654 1.664L54.3641 16.4523C56.1711 18.4566 56.088 21.5202 54.1772 23.4311C52.2663 25.3419 49.2027 25.4146 47.2088 23.618L36.0033 12.4022L18.2449 30.171ZM36.0033 25.0927C33.9471 25.0927 32.0985 26.3285 31.3197 28.2186C30.5304 30.1191 30.9666 32.2999 32.4205 33.7435C33.8744 35.1974 36.0553 35.6335 37.9453 34.8443C39.8458 34.055 41.0816 32.2065 41.0816 30.1606C41.0816 28.8106 40.552 27.5228 39.5966 26.5778C38.6411 25.6223 37.3534 25.0927 36.0033 25.0927Z" fill="#565656"/>
</svg>
