<svg width="188" height="39" viewBox="0 0 188 39" fill="none" xmlns="http://www.w3.org/2000/svg">
<path fill-rule="evenodd" clip-rule="evenodd" d="M143.94 7.02328H151.074V0.291668H143.94V7.02328ZM106.021 18.2395C107.388 14.8263 110.874 12.3991 114.964 12.3991C119.053 12.3991 122.549 14.8263 123.906 18.2395H106.021ZM114.964 6.13206C106.021 6.13206 98.7669 12.9774 98.7669 21.4157C98.7669 29.8539 106.021 36.6993 114.964 36.6993C121.103 36.6993 126.438 33.4757 129.181 28.7351L123.202 25.9951C121.535 28.6593 118.47 30.4417 114.964 30.4417C110.533 30.4417 106.805 27.5974 105.72 23.7291H124.207V23.7386H130.979C131.1 22.9801 131.16 22.2026 131.16 21.4157C131.16 12.9774 123.916 6.13206 114.964 6.13206ZM133.049 35.8839H140.183V29.1523H133.049V35.8839ZM143.94 35.8839H151.074V9.9814H143.94V35.8839ZM170.978 30.4417C165.693 30.4417 161.413 26.4028 161.413 21.4157C161.413 16.4286 165.693 12.3896 170.978 12.3896C176.263 12.3896 180.544 16.4286 180.544 21.4157C180.544 26.4028 176.263 30.4417 170.978 30.4417ZM170.978 6.13206C162.036 6.13206 154.782 12.9774 154.782 21.4157C154.782 29.8539 162.036 36.6993 170.978 36.6993C179.921 36.6993 187.175 29.8539 187.175 21.4157C187.175 12.9774 179.921 6.13206 170.978 6.13206ZM21.8332 15.7839V22.743H31.8104C31.2879 24.7341 30.2631 26.5165 28.7861 27.9387C26.5555 30.0909 23.471 31.2666 20.095 31.2666C13.0818 31.2666 7.37487 25.8813 7.37487 19.254C7.37487 12.6361 13.0818 7.24135 20.095 7.24135C23.8528 7.24135 27.3091 8.75834 29.7004 11.3751L35.4074 6.9664C31.6195 2.77573 26.0029 0.272705 20.095 0.272705C9.01261 0.272705 0 8.78678 0 19.2445C0 29.7022 9.01261 38.2163 20.095 38.2163C25.4805 38.2163 30.4339 36.3864 34.061 32.8879C37.1054 29.9487 39.125 25.8528 39.5068 21.757C39.6977 19.7565 39.7178 17.7654 39.5972 15.7649L21.8332 15.7839ZM58.165 30.4417C52.89 30.4417 48.5998 26.4028 48.5998 21.4157C48.5998 16.4286 52.88 12.3896 58.165 12.3896C63.45 12.3896 67.7302 16.4286 67.7302 21.4157C67.7302 26.4028 63.45 30.4417 58.165 30.4417ZM67.7302 9.10914C65.0475 7.25083 61.7419 6.1605 58.165 6.1605C49.2227 6.1605 41.9785 13.0059 41.9785 21.4441C41.9785 29.8823 49.2328 36.7277 58.165 36.7277C61.7419 36.7277 65.0475 35.6279 67.7302 33.7791V35.8934H74.3615V6.99484H67.7302V9.10914ZM88.5888 0.291668H81.9575V7.02328H77.9887V12.93H81.9575V28.3843C81.9575 29.9771 82.1685 31.3235 82.5905 32.3759C83.0024 33.4188 83.6454 34.2342 84.399 34.8694C85.1626 35.5141 86.0568 36.0166 87.1219 36.3106C88.207 36.595 89.3926 36.7088 90.6586 36.7088C91.9648 36.7088 93.1303 36.5855 94.1149 36.3295C95.0393 36.0925 95.9235 35.7607 96.7373 35.3435V30.5839C95.4312 31.1149 94.2054 31.314 92.8088 31.3709C91.3318 31.4372 90.4677 31.039 89.7443 30.3848C88.9807 29.7022 88.5788 28.811 88.5788 27.3224V12.93H96.7373V7.02328H88.5788V0.291668H88.5888Z" fill="white"/>
</svg>
