<svg width="336" height="68" viewBox="0 0 336 68" fill="none" xmlns="http://www.w3.org/2000/svg">
<path d="M15.2549 33.7546L7.62413 41.3787L0 33.7546L7.62413 26.1304L15.2549 33.7546ZM33.7546 15.2417L46.8198 28.3135L54.4439 20.6893L33.7546 0L13.0652 20.6893L20.6894 28.3135L33.7546 15.2417ZM59.8916 26.1304L52.2675 33.7546L59.8916 41.3787L67.5091 33.7546L59.8916 26.1304ZM33.7546 52.2675L20.6894 39.2023L13.0652 46.8198L33.7546 67.5091L54.4439 46.8198L46.8198 39.2023L33.7546 52.2675ZM33.7546 41.3787L41.3787 33.7546L33.7546 26.1304L26.1304 33.7546L33.7546 41.3787ZM114.217 42.1108V42.0052C114.217 37.0324 111.579 34.546 107.285 32.9104C109.923 31.4264 112.153 29.0983 112.153 24.9235V24.818C112.153 19.001 107.496 15.2417 99.9315 15.2417H82.7574V52.2675H100.367C108.723 52.2675 114.23 48.8841 114.23 42.1108H114.217ZM104.06 26.2821C104.06 29.0324 101.785 30.1997 98.1903 30.1997H90.6915V22.3843H98.7311C102.167 22.3843 104.073 23.7561 104.073 26.1898L104.06 26.2821ZM106.124 41.0951C106.124 43.8453 103.955 45.1116 100.354 45.1116H90.6915V36.9797H100.103C104.284 36.9797 106.138 38.5164 106.138 41.0028L106.124 41.0951ZM131.332 52.2675V15.2417H123.16V52.2675H131.332ZM175.118 52.2675V15.2417H167.052V38.0415L149.706 15.2417H142.194V52.2675H150.234V28.729L168.16 52.2675H175.118ZM220.236 52.2675L204.341 14.9778H196.829L180.968 52.2675H189.271L192.668 43.964H208.325L211.708 52.2675H220.236ZM205.429 36.7686H195.563L200.483 24.7652L205.429 36.7686ZM259.062 52.2675V15.2417H250.996V38.0415L233.644 15.2417H226.139V52.2675H234.172V28.729L252.104 52.2675H259.062ZM301.107 46.2922L295.93 41.0555C293.021 43.6936 290.429 45.3886 286.195 45.3886C279.85 45.3886 275.458 40.1124 275.458 33.7546V33.649C275.458 27.3044 279.956 22.1205 286.195 22.1205C289.895 22.1205 292.79 23.7034 295.666 26.2953L300.83 20.32C297.394 16.9366 293.219 14.6085 286.235 14.6085C274.864 14.6085 266.93 23.2285 266.93 33.7348V33.8403C266.93 44.4719 275.023 52.8808 285.918 52.8808C293.047 52.9006 297.275 50.3615 301.081 46.2922H301.107ZM335.864 52.2675V45.0127H315.735V37.2237H333.193V29.9689H315.735V22.4899H335.574V15.2351H307.643V52.2609L335.864 52.2675Z" fill="#565656"/>
</svg>
