<svg width="169" height="50" viewBox="0 0 169 50" fill="none" xmlns="http://www.w3.org/2000/svg">
<path d="M21.2676 15.2022C21.2676 8.1508 17.8419 2.07244 15.2293 0.0863052C15.2293 0.0863052 15.0293 -0.0336625 15.056 0.259592C14.816 13.9492 7.87125 17.5882 4.04562 22.5602C-1.77948 29.7316 -0.686437 40.2488 6.47163 46.0606C8.04454 47.3402 9.84406 48.3266 11.7769 48.9531C16.4556 50.2594 10.6838 46.6604 9.95069 39.0491C9.0576 29.7983 21.2676 22.8268 21.2676 15.2022Z" fill="white"/>
<path d="M25.8531 19.8941C25.8132 19.8408 25.7465 19.8275 25.6932 19.8541C25.6799 19.8675 25.6665 19.8808 25.6532 19.8941C24.7734 23.0666 23.2805 26.0525 21.2544 28.6518C13.2166 40.0754 17.8153 45.5805 20.388 48.4598C21.8676 50.1793 20.388 48.4598 24.1336 46.7002C28.6391 44.1809 31.6383 39.6355 32.1714 34.5035C32.5847 28.8917 30.2253 23.4398 25.8531 19.8941Z" fill="#565656"/>
<path d="M165.122 18.8945C167.169 18.8945 168.828 17.2354 168.828 15.1888C168.828 13.1422 167.169 11.4832 165.122 11.4832C163.075 11.4832 161.416 13.1422 161.416 15.1888C161.416 17.2354 163.075 18.8945 165.122 18.8945Z" fill="#565656"/>
<path d="M62.7231 11.5229V25.8391H48.5136V13.3891C48.5136 12.3627 47.6738 11.5229 46.6474 11.5229H41.8221V45.7404C41.8087 46.7668 42.6352 47.6065 43.6616 47.6199H43.8082H48.6069V31.6375H62.8031V45.7537C62.8031 46.7801 63.6428 47.6199 64.6692 47.6199H69.4679V13.3891C69.4679 12.3627 68.6282 11.5229 67.6018 11.5229H67.5884H62.7231ZM90.9021 20.4672V37.6226C90.9155 39.1822 90.1024 40.6351 88.7694 41.4482C86.4633 42.9411 83.3842 42.2746 81.9046 39.9686C81.398 39.1821 81.1181 38.2624 81.1181 37.3293V22.3334C81.1181 21.307 80.2783 20.4672 79.2519 20.4672H74.4532V37.9158C74.4799 43.541 79.0253 48.0864 84.6505 48.1131H87.3698C92.9949 48.0864 97.5403 43.541 97.567 37.9158V22.3334C97.567 21.307 96.7272 20.4672 95.7008 20.4672H90.9021Z" fill="white"/>
<path d="M163.643 47.6201H168.441V23.32C168.441 22.2936 167.602 21.4539 166.575 21.4539H161.803V45.7273C161.79 46.767 162.616 47.6068 163.643 47.6201Z" fill="#565656"/>
<path d="M114.776 20.4538C108.084 20.1472 102.419 25.3191 102.113 31.9973C102.113 32.104 102.099 32.224 102.099 32.3306V36.0896C102.206 42.7678 107.724 48.0997 114.403 47.9797C114.523 47.9797 114.656 47.9797 114.776 47.9664C121.454 48.2863 127.119 43.1277 127.439 36.4628C127.439 36.3428 127.452 36.2095 127.452 36.0896V32.3306C127.332 25.6391 121.801 20.3205 115.109 20.4405C114.989 20.4405 114.882 20.4538 114.776 20.4538ZM120.708 36.6361C120.708 39.9552 118.015 42.6345 114.709 42.6345C111.403 42.6345 108.711 39.9419 108.711 36.6361V31.944C108.711 28.6249 111.403 25.9456 114.709 25.9456C118.015 25.9456 120.708 28.6383 120.708 31.944V36.6361Z" fill="white"/>
<path d="M144.634 20.4537C142.582 20.4537 140.542 20.9202 138.689 21.8266V13.4289C138.689 12.4025 137.849 11.5627 136.823 11.5627H131.958V36.1961C132.064 42.8743 137.583 48.2062 144.261 48.0862C144.381 48.0862 144.514 48.0862 144.634 48.0729C151.312 48.3928 156.978 43.2342 157.298 36.5693C157.298 36.4494 157.311 36.3161 157.311 36.1961V32.4371C157.244 25.7456 151.766 20.3737 145.061 20.4403C144.914 20.4403 144.781 20.4403 144.634 20.4537ZM150.579 36.636C150.579 39.9551 147.887 42.6344 144.581 42.6344C141.262 42.6344 138.583 39.9418 138.583 36.636V31.9439C138.583 28.6248 141.275 25.9455 144.581 25.9455C147.9 25.9455 150.579 28.6381 150.579 31.9439V36.636Z" fill="#565656"/>
</svg>
