<svg width="133" height="38" viewBox="0 0 133 38" fill="none" xmlns="http://www.w3.org/2000/svg">
<path d="M39.2483 0.0175781H1.36013C1.12644 0.0175781 0.902323 0.104441 0.737078 0.25906C0.571836 0.413678 0.479004 0.623388 0.479004 0.842053V36.2943C0.479004 36.513 0.571836 36.7229 0.737078 36.8776C0.902323 37.0319 1.12644 37.1188 1.36013 37.1188H39.2483C39.4823 37.1188 39.7062 37.0319 39.8716 36.8776C40.0368 36.7229 40.1297 36.513 40.1297 36.2943V0.842053C40.1297 0.623388 40.0368 0.413678 39.8716 0.25906C39.7062 0.104441 39.4823 0.0175781 39.2483 0.0175781ZM26.9127 23.9273C26.9127 24.146 26.8199 24.3557 26.6547 24.5103C26.4894 24.6649 26.2653 24.7518 26.0316 24.7518H14.577C14.3433 24.7518 14.1192 24.6649 13.9539 24.5103C13.7887 24.3557 13.6959 24.146 13.6959 23.9273V13.2092C13.6959 12.9905 13.7887 12.7808 13.9539 12.6262C14.1192 12.4715 14.3433 12.3847 14.577 12.3847H26.0316C26.2653 12.3847 26.4894 12.4715 26.6547 12.6262C26.8199 12.7808 26.9127 12.9905 26.9127 13.2092V23.9273Z" fill="white"/>
<path d="M118.566 12.3865H107.111C106.625 12.3865 106.23 12.7556 106.23 13.211V23.9291C106.23 24.3844 106.625 24.7536 107.111 24.7536H118.566C119.053 24.7536 119.447 24.3844 119.447 23.9291V13.211C119.447 12.7556 119.053 12.3865 118.566 12.3865Z" fill="white"/>
<path d="M105.352 0.0183105H93.8974C93.4107 0.0183105 93.0164 0.387441 93.0164 0.842784V11.561C93.0164 12.0163 93.4107 12.3854 93.8974 12.3854H105.352C105.839 12.3854 106.233 12.0163 106.233 11.561V0.842784C106.233 0.387441 105.839 0.0183105 105.352 0.0183105Z" fill="white"/>
<path d="M131.79 0.0183105H120.335C119.849 0.0183105 119.454 0.387441 119.454 0.842784V11.561C119.454 12.0163 119.849 12.3854 120.335 12.3854H131.79C132.277 12.3854 132.671 12.0163 132.671 11.561V0.842784C132.671 0.387441 132.277 0.0183105 131.79 0.0183105Z" fill="white"/>
<path d="M105.352 24.7534H93.8974C93.4107 24.7534 93.0164 25.1225 93.0164 25.5779V36.2962C93.0164 36.7514 93.4107 37.1206 93.8974 37.1206H105.352C105.839 37.1206 106.233 36.7514 106.233 36.2962V25.5779C106.233 25.1225 105.839 24.7534 105.352 24.7534Z" fill="white"/>
<path d="M131.79 24.7534H120.335C119.849 24.7534 119.454 25.1225 119.454 25.5779V36.2962C119.454 36.7514 119.849 37.1206 120.335 37.1206H131.79C132.277 37.1206 132.671 36.7514 132.671 36.2962V25.5779C132.671 25.1225 132.277 24.7534 131.79 24.7534Z" fill="white"/>
<path d="M85.5109 0.0183105H74.0564C73.5697 0.0183105 73.175 0.387441 73.175 0.842784V11.561C73.175 12.0163 73.5697 12.3854 74.0564 12.3854H85.5109C85.9976 12.3854 86.392 12.0163 86.392 11.561V0.842784C86.392 0.387441 85.9976 0.0183105 85.5109 0.0183105Z" fill="white"/>
<path d="M85.5109 24.7534H74.0564C73.5697 24.7534 73.175 25.1225 73.175 25.5779V36.2962C73.175 36.7514 73.5697 37.1206 74.0564 37.1206H85.5109C85.9976 37.1206 86.392 36.7514 86.392 36.2962V25.5779C86.392 25.1225 85.9976 24.7534 85.5109 24.7534Z" fill="white"/>
<path d="M73.1713 13.1999C73.1713 12.9812 73.0783 12.7715 72.9131 12.6169C72.748 12.4623 72.5238 12.3754 72.2902 12.3754H59.9543V0.842053C59.9543 0.623388 59.8613 0.413678 59.6962 0.25906C59.531 0.104441 59.3068 0.0175781 59.0732 0.0175781H47.6187C47.3848 0.0175781 47.1609 0.104441 46.9954 0.25906C46.8303 0.413678 46.7373 0.623388 46.7373 0.842053V36.2759C46.7373 36.4946 46.8303 36.7042 46.9954 36.8589C47.1609 37.0135 47.3848 37.1003 47.6187 37.1003H59.0732C59.3068 37.1003 59.531 37.0135 59.6962 36.8589C59.8613 36.7042 59.9543 36.4946 59.9543 36.2759V24.7425H72.2902C72.5238 24.7425 72.748 24.6556 72.9131 24.501C73.0783 24.3464 73.1713 24.1367 73.1713 23.918V13.1999Z" fill="white"/>
</svg>
