<svg width="22" height="21" viewBox="0 0 22 21" fill="none" xmlns="http://www.w3.org/2000/svg">
<path d="M21.1296 10.5634C21.1289 4.72937 16.3996 0 10.5648 0C4.73007 0 0 4.73007 0 10.5648C0 15.8169 3.83253 20.1736 8.85286 20.9915L8.91345 21V13.6182H6.23068V10.5634H8.91345V8.23712C8.90006 8.11946 8.89301 7.98279 8.89301 7.84471C8.89301 5.78543 10.5627 4.11574 12.622 4.11574C12.7213 4.11574 12.8199 4.11997 12.9179 4.12701L12.9052 4.12631C13.7499 4.13829 14.5671 4.21296 15.3646 4.34612L15.2702 4.33273V6.93237H13.9373C13.8767 6.92391 13.807 6.91898 13.7365 6.91898C12.8932 6.91898 12.2091 7.60236 12.2091 8.44636C12.2091 8.49426 12.2113 8.54147 12.2155 8.58867L12.2148 8.58233V10.5634H15.1448L14.6763 13.6182H12.2148V21C17.2964 20.1729 21.1289 15.8155 21.1296 10.5634V10.5634V10.5634Z" fill="white"/>
</svg>
