<svg width="65" height="40" viewBox="0 0 65 40" fill="none" xmlns="http://www.w3.org/2000/svg">
<path fill-rule="evenodd" clip-rule="evenodd" d="M57.1649 16.3695C59.504 16.3749 61.5164 18.0253 61.9798 20.3181L63.9555 33.4919C64.2261 34.9111 63.848 36.377 62.9246 37.4883C61.9936 38.6284 60.5988 39.2889 59.1269 39.2866H37.6502C36.1787 39.2869 34.7846 38.6273 33.8516 37.4893C32.9187 36.3513 32.5452 34.8549 32.834 33.412L34.7843 19.7186C34.8597 19.4606 34.9563 19.2093 35.073 18.9673H28.9777C29.0823 19.1845 29.1699 19.4096 29.2396 19.6404L31.2154 33.4902C31.4869 34.9098 31.1092 36.3764 30.1858 37.4883C29.2548 38.6284 27.86 39.2889 26.3881 39.2866H4.91143C3.43995 39.2868 2.04594 38.6271 1.11306 37.4892C0.180179 36.3512 -0.193247 34.8549 0.095555 33.412L2.04581 20.3964C2.48344 18.0714 4.50771 16.3829 6.87347 16.3695H16.8781C16.5448 15.4644 16.4878 14.4807 16.7144 13.5431L18.3258 3.84787C18.833 1.6062 20.8198 0.0109338 23.1181 7.50564e-05H40.9202C43.1737 -0.00144321 45.1391 1.53101 45.687 3.71691L47.3494 13.6695C47.5578 14.5679 47.4932 15.5081 47.1638 16.3695H57.1649ZM19.0823 14.0574C18.9122 14.6193 19.0201 15.2286 19.3728 15.6978C19.7042 16.1234 20.2141 16.3714 20.7535 16.3695H43.2847C43.8244 16.37 44.3341 16.1214 44.6661 15.6959C44.998 15.2704 45.1151 14.7155 44.9833 14.1922L43.206 3.55758C42.9684 2.83895 42.2916 2.3579 41.5348 2.3697H22.5035C21.6991 2.36847 20.9979 2.91668 20.805 3.69758L19.0823 14.0574ZM29.2225 34.4909C29.328 35.0195 29.1911 35.5676 28.8493 35.9845C28.5075 36.4014 27.9968 36.6432 27.4578 36.6433H3.84185C3.3024 36.6437 2.79132 36.4017 2.44973 35.9841C2.09351 35.5405 1.96079 34.9579 2.08973 34.4037L4.23424 20.0902C4.40449 19.25 5.14208 18.6454 5.99932 18.6434H25.3003C26.128 18.6381 26.8516 19.2004 27.051 20.0038L29.2225 34.4909ZM60.1965 37.0128C60.7359 37.0133 61.2469 36.7716 61.5887 36.3543L61.5897 36.3536C61.9322 35.937 62.0687 35.3881 61.9613 34.8596L59.7887 20.3732C59.5893 19.5699 58.8657 19.0076 58.038 19.0128H38.737C37.8801 19.0154 37.1432 19.6199 36.973 20.4596L34.8285 34.7732C34.6995 35.3273 34.8322 35.91 35.1885 36.3536C35.5301 36.7711 36.0411 37.0131 36.5806 37.0128H60.1965Z" fill="url(#paint0_linear_0_970)"/>
<defs>
<linearGradient id="paint0_linear_0_970" x1="34.9009" y1="46.3005" x2="55.9916" y2="2.66137" gradientUnits="userSpaceOnUse">
<stop stop-color="#D3DB85"/>
<stop offset="1" stop-color="#A1BF0C"/>
</linearGradient>
</defs>
</svg>
