<svg width="16" height="17" viewBox="0 0 16 17" fill="none" xmlns="http://www.w3.org/2000/svg">
<path d="M9.04373 8.61407L15.8263 1.59348C16.0872 1.32346 16.0872 0.87342 15.8263 0.513389C15.6524 0.423382 15.4785 0.333374 15.3046 0.333374C15.1307 0.333374 14.9568 0.423382 14.7829 0.513389L8.00025 7.53398L1.21765 0.513389C1.13069 0.423382 0.86982 0.333374 0.695907 0.333374C0.521994 0.333374 0.348081 0.423382 0.174168 0.513389C-0.0867018 0.783412 -0.0867018 1.23345 0.174168 1.59348L6.95678 8.61407L0.174168 15.6347C-0.0867018 15.9047 -0.0867018 16.3547 0.174168 16.7148C0.348081 16.8948 0.521994 16.8948 0.695907 16.8948C0.86982 16.8948 1.04373 16.8048 1.21765 16.7148L8.00025 9.69417L14.7829 16.7148C14.9568 16.8948 15.1307 16.8948 15.3046 16.8948C15.4785 16.8948 15.6524 16.8048 15.8263 16.7148C16.0872 16.4447 16.0872 15.9947 15.8263 15.6347L9.04373 8.61407Z" fill="#2F2F2F"/>
</svg>
