<svg width="20" height="15" viewBox="0 0 20 15" fill="none" xmlns="http://www.w3.org/2000/svg">
<path d="M19.3 1.5H0.7C0.3 1.5 0 1.1 0 0.7C0 0.3 0.3 0 0.7 0H19.3C19.7 0 20 0.3 20 0.7C20 1.1 19.7 1.5 19.3 1.5Z" fill="#2F2F2F"/>
<path d="M19.3 8.2H0.7C0.3 8.2 0 7.9 0 7.5C0 7.1 0.3 6.8 0.7 6.8H19.3C19.7 6.8 20 7.1 20 7.5C20 7.9 19.7 8.2 19.3 8.2Z" fill="#2F2F2F"/>
<path d="M19.3001 15H5.3001C4.9001 15 4.6001 14.7 4.6001 14.3C4.6001 13.9 4.9001 13.6 5.3001 13.6H19.3001C19.7001 13.6 20.0001 13.9 20.0001 14.3C20.0001 14.7 19.7001 15 19.3001 15Z" fill="#2F2F2F"/>
</svg>
