<svg width="6" height="3" viewBox="0 0 6 3" fill="none" xmlns="http://www.w3.org/2000/svg">
<path d="M3.0334 3.01135C3.16673 3.01135 3.26673 2.95134 3.36673 2.89134L5.8334 0.821334C6.0334 0.641334 6.06673 0.371349 5.90006 0.161349C5.70006 -0.0186511 5.40006 -0.0486548 5.16673 0.101345C5.16673 0.101345 5.16673 0.101338 5.1334 0.131338L3.00007 1.90134L0.866732 0.131338C0.666732 -0.0486621 0.333398 -0.0486621 0.133398 0.131338C-0.0666016 0.311338 -0.0666016 0.611341 0.133398 0.791341C0.133398 0.791341 0.133398 0.791334 0.166732 0.821334L2.66673 2.89134C2.76673 2.95134 2.90007 3.01135 3.0334 3.01135Z" fill="#2F2F2F"/>
</svg>
