<?xml version="1.0" encoding="iso-8859-1"?><svg viewBox="0 0 512 512" xmlns="http://www.w3.org/2000/svg" xmlns:xlink="http://www.w3.org/1999/xlink"><style>:root>svg{display:none}:root>svg:target{display:block}</style><svg viewBox="0 0 512 512" id="right-arrow" xmlns="http://www.w3.org/2000/svg"><path d="M506.134 241.843l-.018-.019-104.504-104c-7.829-7.791-20.492-7.762-28.285.068-7.792 7.829-7.762 20.492.067 28.284L443.558 236H20c-11.046 0-20 8.954-20 20s8.954 20 20 20h423.557l-70.162 69.824c-7.829 7.792-7.859 20.455-.067 28.284 7.793 7.831 20.457 7.858 28.285.068l104.504-104 .018-.019c7.833-7.818 7.808-20.522-.001-28.314z"/></svg><svg viewBox="0 0 485.725 485.725" id="send" xmlns="http://www.w3.org/2000/svg"><path d="M459.835 196.758L73.531 9.826C48.085-2.507 17.46 8.123 5.126 33.569a51.198 51.198 0 00-1.449 41.384l60.348 150.818h421.7a50.787 50.787 0 00-25.89-29.013zM64.025 259.904L3.677 410.756c-10.472 26.337 2.389 56.177 28.726 66.65a51.318 51.318 0 0018.736 3.631c7.754 0 15.408-1.75 22.391-5.12l386.304-187a50.79 50.79 0 0025.89-29.013H64.025z"/></svg></svg>