<svg width="550" height="440" viewBox="0 0 550 440" fill="none" xmlns="http://www.w3.org/2000/svg">
<g clip-path="url(#clip0)">
<path d="M540.3 71.2C530.8 50 511.7 31.7 488.1 27.4C459.6 22.2 431.6 37.6 408.9 54.8C386.1 72 364.1 92.1 336 99C285.8 111.3 235.8 77.6 184 75C150.2 73.3 115.9 85.9 91.8998 108.7C2.29983 193.8 41.5998 362.4 138.3 405.7C216.3 440.7 328.3 457.9 399.9 412.3C468.2 368.8 536.5 235.7 547.5 157.5C548.4 151.4 549 145.2 549.5 139.1C551 116.2 549.8 92.4 540.3 71.2Z" fill="#BEE9F4"/>
<path d="M132.399 232.1C128.999 239.5 126.099 249.6 124.399 259.6L116.399 222.4C126.599 225.8 147.299 200.8 154.899 184.2C162.599 167.3 157.699 148.3 150.699 145.4C145.999 143.4 126.399 150.9 118.699 167.8C115.199 175.6 112.199 186.8 110.899 197.1L102.699 159.4C102.799 159.3 102.899 159.2 103.099 159.1C110.199 160.6 123.899 144 128.899 132.9C134.099 121.4 130.799 108.4 125.999 106.4C122.799 105 109.399 110.2 104.199 121.7C101.799 127 99.6994 134.7 98.8994 141.7L93.4994 116.6C93.6994 116.6 93.8994 116.6 94.0994 116.5C99.2994 115 99.1994 98.7998 96.6994 90.0998C94.2994 81.5998 86.4994 75.9998 82.9994 77.0998C80.5994 77.7998 75.6994 86.7998 78.0994 95.4998C80.3994 103.5 87.6994 115.9 92.7994 116.7C93.9994 123.9 95.5994 133.3 97.4994 144.4C92.2994 138.8 85.0994 133.3 79.2994 130.3C68.0994 124.5 54.9994 127.2 52.6994 131.8C51.1994 135 55.5994 148.5 66.7994 154.3C75.9994 159.1 92.5994 163 100.199 160.7C102.799 175.9 105.699 192.9 108.599 210.2C102.099 199.7 86.5994 186.7 75.0994 180.8C58.5994 172.3 39.3994 176.2 36.0994 183C33.8994 187.6 40.3994 207.5 56.7994 216.1C72.9994 224.4 104.599 231.2 110.599 222.2C113.999 241.9 117.299 261.6 120.399 279.3C112.699 267.5 95.6994 253.4 82.8994 246.8C64.1994 237.1 42.3994 241.6 38.6994 249.3C36.1994 254.6 43.4994 277.2 62.1994 286.8C80.2994 296.1 115.499 303.7 122.999 294.2C127.999 323.2 131.699 343.7 131.899 343.9L141.699 339.9L131.799 294.3C143.899 294.5 165.299 268.4 173.299 250.6C181.999 231.4 176.399 209.9 168.499 206.6C163.299 204.4 141.099 212.9 132.399 232.1Z" fill="#5CB1BF"/>
<path d="M479.5 159C472.9 163.8 465.3 171.1 458.9 178.9L470.4 142.7C477.5 150.8 508 139.4 522.8 128.8C537.8 118 543 99.0999 538.4 92.9999C535.3 88.8999 514.6 85.6999 499.5 96.4999C492.5 101.5 484.4 109.8 478.2 118.1L490 81.2999C490.2 81.2999 490.3 81.1999 490.5 81.1999C495.9 86.0999 516 78.4999 525.9 71.3999C536.2 63.9999 539.7 51.0999 536.6 46.9999C534.5 44.1999 520.4 41.9999 510.1 49.3999C505.3 52.7999 499.8 58.4999 495.5 64.1999L503.3 39.6999C503.5 39.7999 503.7 39.8999 503.9 39.9999C509.1 41.2999 517.1 27.0999 519.3 18.3999C521.5 9.5999 517.5 0.899897 513.9 0.099897C511.5 -0.400103 502.7 4.8999 500.5 13.6999C498.5 21.7999 498.7 36.0999 502.7 39.3999C500.2 46.1999 496.9 55.1999 493 65.6999C491.3 58.2999 487.8 49.8999 484.2 44.3999C477.3 33.7999 464.7 29.5999 460.4 32.4999C457.5 34.4999 454.6 48.4999 461.4 59.0999C467 67.7999 479.4 79.4999 487.2 81.1999C481.9 95.6999 476 111.8 469.9 128.3C469.5 115.9 462.5 96.9999 455.5 86.0999C445.4 70.4999 426.9 64.3999 420.6 68.6999C416.4 71.5999 412.1 92.0999 422.1 107.7C432 123 456.1 144.5 465.7 139.8C458.8 158.6 451.9 177.3 445.8 194.2C445 180.2 437.3 159.4 429.5 147.3C418.1 129.6 397 122.6 389.9 127.5C385.1 130.8 380.2 154.1 391.7 171.7C402.7 188.8 429.5 212.9 440.7 208.3C430.6 236 423.6 255.6 423.7 255.8L434.2 257.2L448.3 212.7C458.7 218.9 490.2 206.9 506 195.5C523.1 183.2 529 161.8 523.7 154.9C520.1 150.4 496.6 146.7 479.5 159Z" fill="#83CFDB"/>
<path d="M10.3998 196.6C0.599751 204.4 -1.70025 221.1 1.09975 233C4.49975 247.2 17.2998 255.7 21.7998 269.2C24.3998 276.8 22.1998 280.5 20.0998 287.8C17.3998 297.1 15.9998 310.4 19.2998 319.8C24.1998 333.8 37.5998 346.3 50.9998 352.5C67.7998 360.3 88.4998 356.4 105.3 365.2C116.8 371.3 122.3 386.9 134.3 392.1C146.6 397.4 172.2 393.7 174.1 377.4C176.2 359.1 158 346.7 157.3 329.4C156.9 319.5 161.2 309.1 161.3 298.9C161.4 285.5 159.1 269.5 153.1 257.3C141.8 234.2 121.4 213 94.5997 212.9C88.3997 212.9 81.6997 214.6 75.4997 213C67.5997 210.9 65.6998 205.5 60.5998 199.9C53.5998 192.3 39.0998 188.2 28.5998 187.5C20.2998 187 16.7998 190.7 10.5998 196.4C11.0998 195.9 11.6998 195.4 12.1998 195" fill="#83CFDB"/>
<g opacity="0.3">
<g opacity="0.3">
<path opacity="0.3" d="M17.4674 203.312L16.3809 204.195L166.779 389.295L167.865 388.412L17.4674 203.312Z" fill="#5CB1BF"/>
</g>
<g opacity="0.3">
<path opacity="0.3" d="M37.5125 315.936L37.4941 317.336L109.387 318.277L109.405 316.877L37.5125 315.936Z" fill="#5CB1BF"/>
</g>
<g opacity="0.3">
<path opacity="0.3" d="M107.572 242.105L106.173 242.15L108.635 317.613L110.034 317.567L107.572 242.105Z" fill="#5CB1BF"/>
</g>
<g opacity="0.3">
<path opacity="0.3" d="M15.2387 237.461L14.9619 238.833L50.4488 245.99L50.7255 244.617L15.2387 237.461Z" fill="#5CB1BF"/>
</g>
<g opacity="0.3">
<path opacity="0.3" d="M37.8341 201.717L36.4971 202.133L49.9969 245.585L51.3339 245.17L37.8341 201.717Z" fill="#5CB1BF"/>
</g>
<g opacity="0.3">
<path opacity="0.3" d="M116.291 356.921L115.854 358.251L151.099 369.83L151.536 368.5L116.291 356.921Z" fill="#5CB1BF"/>
</g>
<g opacity="0.3">
<path opacity="0.3" d="M139.23 322.02L137.867 322.339L148.2 366.443L149.563 366.124L139.23 322.02Z" fill="#5CB1BF"/>
</g>
</g>
<path d="M505.9 292.6C504.9 284.3 498.4 265.5 490.2 277.3C485.2 284.4 488.5 295.8 485 304C478.1 296.9 460.3 256.6 444.3 273.4C434 284.2 449.8 313.7 454.8 325C451.3 320.6 443 315.6 438.6 321.5C434.6 326.9 441.6 339.7 443.5 345.2C434.8 341.5 428.9 332.2 419.4 338.9C412 344.2 411.9 354.6 412.9 362.5C414 371 416.9 378.8 417 387.5C417.1 397.4 413.5 405.2 412.2 414.9C422.4 394.4 453.4 400 471.7 398.8C481.5 398.1 533.3 395.1 513.8 374.6C510.2 370.8 466.1 366.9 482.8 356.7C490.3 352.1 505.8 357 514.4 356C521.2 355.2 534.9 353.2 539.8 348.4C548.6 340 542.1 327.9 532.8 324.3C524.8 321.2 514.4 324.5 507.4 319.8C513.3 312.8 525.5 315.4 531.7 309.4C539.5 301.9 531.6 297.7 524.2 296.3C535.2 290.9 542.6 272.9 524.2 272.1C517.6 271.8 512.5 275.5 509 280.6C506.6 284.1 503.1 292.1 505.8 292.3C505.1 291.9 504.1 291.1 504 290.2" fill="#83CFDB"/>
<path d="M440.999 430.1L441.099 430.5L441.399 431.8L441.999 434.4L442.299 435.6C442.799 435.6 443.399 435.6 443.899 435.7C447.699 435.9 451.499 435.9 454.199 434.4L453.899 431.6L447.099 430.8L445.899 430.7L441.199 430.1H440.999Z" fill="#157897"/>
<path d="M404.899 431.4L405.599 434.9C413.199 437.6 425.099 437.7 440.399 434.8C440.899 434.7 441.499 434.6 441.999 434.5C442.899 434.3 443.799 434.1 444.699 433.9C447.599 433.3 450.599 432.5 453.799 431.7V431.6L453.199 428.8C453.199 428.7 453.199 428.6 453.099 428.5L452.899 427.5L447.999 427.9L446.399 428L441.399 428.4L404.899 431.4Z" fill="#137187"/>
<path d="M453.299 428.7C452.099 429.5 449.899 430.2 447.099 430.8C445.399 431.2 443.499 431.5 441.499 431.8C441.299 431.8 441.099 431.9 440.999 431.9C427.499 433.9 408.199 434.3 404.999 431.3C404.499 428.9 408.099 426.3 414.899 423.5C415.599 423.2 416.299 423 416.999 422.7C417.499 422.5 417.999 422.3 418.599 422.1C419.299 421.8 419.999 421.6 420.799 421.3C421.299 421.1 421.799 420.9 422.399 420.8C423.099 420.5 423.899 420.3 424.699 420C425.599 419.7 426.599 419.4 427.499 419.1C428.499 418.8 429.599 418.5 430.699 418.1C435.899 416.6 439.899 416.4 442.999 417.1C447.499 418.1 450.099 420.8 451.599 423.5C452.399 424.9 452.899 426.2 453.099 427.3C453.199 427.7 453.299 428 453.399 428.3C453.199 428.5 453.199 428.6 453.299 428.7Z" fill="#157897"/>
<path d="M424.6 420L446.1 427.9L451 429.7L453.7 430.7L455.9 431.5L455.1 416.2L449.3 298.3L446.8 247L445.5 220.7L445.2 214.6L445.1 213.2L431.1 209.8L414 205.6C414.1 205.7 414.1 206.6 414.1 208.1C414.1 209.6 414 211.8 413.9 214.5C413.7 222.2 413.5 234.5 414.5 248.7C418.7 310.9 424.6 420 424.6 420Z" fill="url(#paint0_linear)"/>
<path d="M463.299 430.8L463.099 433.8C460.399 435 456.999 435.4 453.599 435.3C451.899 435.3 450.199 435.2 448.499 435.1C448.399 435.1 448.299 435.1 448.199 435.1L448.099 433.8L447.999 431.7V431L447.899 429.5V429H448.099L455.099 429.8L456.099 429.9L456.899 430L463.299 430.8Z" fill="#137187"/>
<path d="M463.299 430.8C460.299 431.8 457.399 432.7 454.699 433.4C454.099 433.6 453.499 433.7 452.799 433.9C452.599 433.9 451.099 434.6 448.499 435.2C443.299 436.4 433.899 437.7 421.899 434.4V430.5L453.299 427.1L457.199 426.7L460.699 426.3L463.199 426V427.1C463.199 427.2 463.199 427.2 463.199 427.3C463.199 427.4 463.199 427.4 463.199 427.4L463.299 430.8Z" fill="#137187"/>
<path d="M463.299 427.5C462.199 428.4 460.199 429.2 457.699 429.9C457.499 430 457.199 430 456.899 430.1C456.599 430.2 456.299 430.3 455.999 430.3C454.999 430.6 453.899 430.8 452.699 431C452.599 431 452.399 431.1 452.199 431.1C450.799 431.4 449.399 431.6 447.999 431.8C436.899 433.4 423.799 433.4 421.899 430.5C421.899 427.9 425.399 425 431.599 421.9C432.199 421.6 432.799 421.3 433.499 421C433.699 420.9 433.899 420.8 434.099 420.7C434.399 420.6 434.699 420.4 434.999 420.3C435.599 420 436.299 419.7 436.999 419.4C437.499 419.2 437.899 419 438.399 418.8C439.099 418.5 439.799 418.3 440.499 418C441.299 417.7 442.199 417.3 443.099 417C443.999 416.6 444.999 416.3 445.899 415.9C450.499 414.2 453.999 414 456.399 414.8C457.599 415.2 458.699 415.8 459.499 416.5C461.099 417.9 462.099 419.9 462.599 421.8C462.999 423.3 463.199 424.8 463.299 426C463.299 426.4 463.299 426.8 463.299 427.1C463.299 427.2 463.299 427.2 463.299 427.3C463.299 427.4 463.299 427.4 463.299 427.5Z" fill="#157897"/>
<path d="M429.999 207.3C430.099 207.3 430.299 208.1 430.399 209.7C430.499 210.8 430.599 212.2 430.699 213.9C430.799 215.6 430.899 217.6 430.999 219.9C431.299 226.7 431.499 236 431.799 246.8C432.199 261.7 432.499 279.6 432.799 298.1C433.099 315 433.299 332.4 433.499 348.7C433.999 388.3 434.299 420.7 434.299 420.7C444.899 422.2 452.099 424.8 456.999 426.7C458.799 427.4 460.399 428 461.699 428.5C462.299 428.7 462.899 428.9 463.499 429H463.599L468.499 322.3L471.699 251.2C474.599 240.8 475.299 228 474.599 215.3C474.499 213.2 474.299 211.2 474.199 209.1C474.099 208.5 474.099 207.9 473.999 207.3C473.899 206.7 473.899 206 473.799 205.4L429.999 207.3Z" fill="url(#paint1_linear)"/>
<path d="M412.899 214.6C417.999 217.2 424.599 219.1 431.899 220C435.699 220.5 439.699 220.7 443.799 220.7C453.899 220.7 464.699 219 475.099 215.5C474.899 213.4 474.599 211.3 474.299 209.3C464.099 212.6 453.699 214.3 444.199 214.6C439.599 214.7 435.299 214.5 431.299 214C424.099 213 418.099 211.1 413.899 208.1C413.599 209.6 413.299 211.8 412.899 214.6Z" fill="#47463E"/>
<path d="M427.299 213.8C429.199 214.2 431.199 214.5 433.299 214.7L432.699 219.7C430.599 219.5 428.499 219.1 426.499 218.7L427.299 213.8Z" fill="#C6C6C6"/>
<path d="M449.599 213.2C450.399 213.2 451.199 213.1 451.999 213.1L451.599 222C450.799 222 449.999 222.1 449.199 222.1L449.599 213.2Z" fill="#157897"/>
<path d="M416.8 209.3L416.1 218.2C415.4 217.9 414.5 217.6 413.8 217.3L415 208.3C415.6 208.6 416 209 416.8 209.3Z" fill="#157897"/>
<path d="M432.599 331.7C431.199 359.8 434.199 388.1 437.499 416.2C437.499 416.2 440.599 292.3 441.099 264.4C441.199 257 448.199 249.1 453.699 244.3C450.399 245.7 446.899 246.5 443.399 246.9C440.899 247.1 438.299 247.1 435.699 246.8C429.599 246.1 423.599 244 418.499 240.5C429.199 252.5 433.699 268.7 434.599 284.5C435.499 300.3 433.299 316 432.599 331.7Z" fill="#137187"/>
<path d="M388.1 154.6L404.3 150.7L405.7 150.4L409.6 149.5L410.9 149.2V149.7L411 151.4L411.1 153.2L411.7 162.5L412.1 168.9L412.4 173.6L413.9 206.6C413.9 206.6 416.5 210.6 431.9 213C436.7 213.7 441.9 213.7 446.9 213.3C458.2 212.4 468.7 209.6 471.6 209.4C478.7 207.3 481.3 194.7 481.3 194.7L492.7 145.2L492.1 142L487.8 117.1L471.2 107.5L465 103.9L456.1 98.7L440.7 105.5L436.3 107.4L422 113.7C416.4 115.9 411.6 119.6 408.1 124.4L388.1 154.6Z" fill="white"/>
<path opacity="0.05" d="M419.999 132C414.499 141 407.199 148.9 398.799 155.1C405.299 154 411.799 152.9 418.199 151.8C417.099 151.3 416.299 150.2 415.999 149.1C415.699 147.9 415.799 146.7 415.899 145.5C416.499 140.8 417.899 136.2 419.999 132Z" fill="#1D1D1B"/>
<path d="M442.799 127.6C438.899 146.7 438.199 168.1 439.399 190.8L431.299 200.9L424.499 188.3C426.799 164.6 430.499 142.9 437.599 126L442.799 127.6Z" fill="url(#paint2_linear)"/>
<path opacity="0.05" d="M397.399 172.5C402.299 171.8 407.199 170.4 412.199 168.6L412.499 173.3C413.799 173.5 415.199 173.9 416.499 174.4C419.699 175.5 422.699 176.8 425.599 178.1C429.799 180 433.699 182 437.599 184C438.099 184.3 438.599 184.5 439.099 184.7C444.499 187.2 449.399 188.6 454.899 191.3C457.899 192.8 461.499 195.1 461.199 198.4C460.999 200.9 458.199 207.2 456.099 208.5C453.199 210.3 450.099 211.7 446.899 212.9C458.199 212 468.699 209.2 471.599 209C478.699 206.9 481.299 194.3 481.299 194.3L492.699 144.8C493.499 142.5 494.199 140.3 494.699 138.1C493.899 139.3 492.999 140.4 492.199 141.6C487.199 148.5 482.199 155.4 477.199 162.4C472.199 169.2 466.699 176.5 458.499 178.8C451.999 180.6 445.199 178.8 438.999 175.9C437.099 175 435.199 174 433.299 172.9C431.199 171.6 429.099 170.3 426.899 169L426.799 168.9C425.399 168.1 423.999 167.2 422.499 166.5C422.499 166.5 422.499 166.5 422.399 166.5C421.599 166.1 420.799 165.7 419.999 165.3C419.999 165.3 419.999 165.3 419.899 165.3C417.199 164 414.499 162.9 411.599 162.3C410.799 162.1 409.999 162 409.199 161.9C406.499 161.5 403.599 161.7 401.499 163.3C398.899 165.4 398.399 169.1 397.399 172.5Z" fill="#1D1D1B"/>
<path d="M460.299 157.9L444.899 151.1L434.399 153C430.699 155.7 430.499 160.1 431.699 162.8L455.299 164.7L460.299 157.9Z" fill="#FBBE52"/>
<path d="M423.599 163.4L428.499 161L429.999 161.1C427.899 165.4 426.299 169.8 425.699 174.4C423.999 173.5 422.399 172.5 420.799 171.5L423.599 163.4Z" fill="#E6DCDC"/>
<path d="M425.799 174.4C425.899 174.4 425.999 174.5 426.099 174.5C430.199 176.7 434.399 178.7 439.099 180.6C445.599 183.2 452.799 185.5 461.199 187.9C464.699 189 468.499 187.6 470.399 184.5L492.799 144.9C493.599 142.6 494.299 140.4 494.799 138.2C496.999 129 495.899 121.3 487.899 116.8L461.999 135.4L461.599 137.1L456.599 156.1L454.899 162.4L439.199 161.5L431.199 161H430.799H430.199C430.199 161.1 430.099 161.2 430.099 161.3C429.899 161.8 429.699 162.2 429.499 162.7C429.399 163 429.299 163.2 429.099 163.5C428.999 163.8 428.899 164 428.799 164.3C428.599 164.7 428.499 165.1 428.299 165.5C428.099 165.9 427.999 166.3 427.899 166.7C427.599 167.5 427.399 168.2 427.099 169C427.099 169.1 427.099 169.2 426.999 169.2C426.899 169.5 426.899 169.7 426.799 170C426.799 170.1 426.699 170.3 426.699 170.4C426.599 170.7 426.599 170.9 426.499 171.2C426.399 171.6 426.299 171.9 426.299 172.3C426.299 172.4 426.199 172.5 426.199 172.7C426.199 172.9 426.099 173.1 426.099 173.3C425.899 173.7 425.799 174 425.799 174.4Z" fill="white"/>
<path d="M427.899 152.1L434.399 153.1C431.699 155.9 430.999 158.5 431.199 161L425.299 162.9C424.999 159.3 425.699 155.7 427.899 152.1Z" fill="#E6DCDC"/>
<path d="M393.999 173C395.099 172.9 396.199 172.7 397.399 172.6C402.299 171.9 407.199 170.5 412.199 168.7C413.599 168.2 414.899 167.7 416.299 167.1C417.599 166.6 418.899 166 420.099 165.4C421.199 164.9 422.299 164.4 423.399 163.8C423.399 163.8 423.499 163.8 423.499 163.7C424.099 163.4 424.599 163.1 425.199 162.8C425.199 162.7 425.199 162.6 425.199 162.5C424.999 159 425.799 155.5 427.899 152L423.999 151.4L416.599 150.3L410.899 149.5L409.599 149.3L406.299 148.8L404.899 148.6L400.599 148L388.099 154.6C383.299 162.8 385.299 168.9 393.999 173Z" fill="white"/>
<path d="M423.899 151.5L417.899 146.6C416.599 145.6 415.099 144.9 413.499 144.7L407.399 143.8C406.099 143.6 404.799 144.3 404.299 145.5C403.999 146.2 403.999 146.9 404.299 147.5L406.099 151.1L423.899 151.5Z" fill="#FBBE52"/>
<path d="M420.9 171.5L423.4 163.8L416.1 167.1L420.9 171.5Z" fill="#FBBE52"/>
<path opacity="0.05" d="M430.1 161.1L454.8 162.6L461.5 137.3C460.2 141.3 457.9 148 455.6 151.6C453.4 155.2 453.2 155.9 450.7 159.1C448.8 161.6 436.2 157.9 430.1 161.1Z" fill="#1D1D1B"/>
<path d="M466.899 101.6L463.299 74.2C453.499 75.4 440.499 76.7 438.199 76.5C438.199 76.5 440.399 94.4 440.399 101.6C438.899 120.4 450.699 125.1 466.899 101.6Z" fill="#F2AA41"/>
<path d="M471.599 85.1999C474.499 81.2999 474.899 79.3999 476.199 74.5999C480.899 52.6999 467.699 52.5999 459.699 50.5999C450.199 48.6999 439.699 52.7999 435.599 67.0999C435.699 68.5999 435.999 69.8999 435.999 69.8999L430.899 77.1999C430.099 78.3999 430.499 80.0999 431.799 80.6999L433.699 81.7999C433.399 83.2999 431.599 89.4999 431.599 89.4999C430.799 93.1999 430.999 99.2999 435.999 100.1C450.399 102.3 457.399 97.0999 459.599 84.3999C463.199 84.9999 469.499 88.0999 471.599 85.1999Z" fill="#FBBE52"/>
<path d="M466.799 94.4C454.899 94.6 463.799 79.2 463.799 79.2C463.799 79.2 459.899 81.8 458.399 83C455.999 82.4 455.699 82.6 453.599 81.9C456.399 67.5 462.599 57.5 441.199 56.7C437.399 55 444.299 43 462.699 48.6C473.399 51.9 480.999 59.8 479.699 70.9C478.799 77.9 476.899 87 466.799 94.4Z" fill="#157897"/>
<path d="M466.199 80.0001C465.299 83.4001 461.499 86.6001 459.299 86.0001C457.099 85.4001 457.599 82.5001 458.399 79.1001C458.899 76.8001 459.599 73.7001 462.199 73.6001C464.499 73.6001 467.399 75.1001 466.199 80.0001Z" fill="#FBBE52"/>
<path d="M448 120.2L444.3 115.3L439.3 118.1L437.6 125.9L442.8 127.6L448 120.2Z" fill="url(#paint3_linear)"/>
<path d="M471.299 107.3L466.899 101.6C461.799 107.9 453.699 112 444.199 115.3L452.799 126.5C460.599 121.7 466.699 115.2 471.299 107.3Z" fill="#F9F2F2"/>
<path d="M444.299 115.3L434.399 120.9L436.399 107.2L440.499 101.6C440.599 106.8 441.399 111.5 444.299 115.3Z" fill="#F9F2F2"/>
<path d="M325.899 435.5C325.899 435.8 326.099 436.1 326.399 436.3C326.599 436.4 326.899 436.6 327.299 436.8H348.899C349.999 436.8 351.099 436.5 352.099 436.1C352.799 435.7 353.499 435.2 353.999 434.6C354.199 434.4 354.399 434.2 354.499 434L356.299 431.4L356.599 430.9L358.499 428.2L358.699 436.7H363.699C363.699 434.9 363.699 433.3 363.899 431.9C363.999 431.4 363.999 430.9 364.099 430.4C364.099 430.2 364.199 430 364.199 429.8C364.299 429.2 364.399 428.7 364.499 428.2C364.599 427.9 364.599 427.6 364.699 427.4C364.899 426.3 365.099 425.3 365.199 424.3C365.199 423.9 365.299 423.6 365.299 423.2C365.299 422.7 365.299 422.3 365.299 421.8C365.299 421.4 365.299 421.1 365.299 420.7C365.299 420.4 365.299 420 365.199 419.6C365.199 419.5 365.199 419.4 365.199 419.4C365.199 419 365.099 418.6 364.999 418.2C364.899 417.8 364.799 417.3 364.699 416.8C364.299 415.4 363.799 413.8 362.999 412C362.799 411.4 362.499 410.8 362.199 410.2C359.799 405 367.999 365.1 365.999 349.9C365.399 345.1 364.299 340.8 363.199 337.1C362.699 335.4 362.199 333.8 361.699 332.3C360.699 329.5 359.799 327.3 358.999 325.5C357.899 323.1 356.999 321.7 356.999 321.7C357.799 317.8 359.299 310.4 359.199 306.7C359.199 305.5 358.999 304.7 358.599 304.4C352.599 301.1 338.099 297.9 335.499 302.4C335.199 303 334.999 304.8 334.999 307.4C334.899 314 335.599 324.9 335.899 327.9V328C335.899 328 336.099 329 336.499 330.8C336.799 331.9 337.099 333.3 337.399 335C340.899 352.3 349.599 396.6 349.299 410.1C349.199 415.8 340.699 425.6 339.099 427.4C338.999 427.5 338.899 427.6 338.899 427.6C338.499 427.9 338.099 428.2 337.599 428.4C337.199 428.6 336.799 428.9 336.499 429.1C334.999 429.9 333.399 430.6 331.999 431.3C331.299 431.6 330.599 431.9 329.999 432.2C329.999 432.2 329.999 432.2 329.899 432.2C329.299 432.5 328.699 432.8 328.199 433C327.499 433.3 326.999 433.7 326.599 434C326.499 434.1 326.399 434.1 326.399 434.2C326.299 434.3 326.199 434.3 326.199 434.4C326.099 434.5 326.099 434.5 326.099 434.6C325.999 434.7 325.999 434.7 325.999 434.8C325.899 435.4 325.899 435.4 325.899 435.5Z" fill="#FBBE52"/>
<path d="M362.3 410.4C362.2 410.3 361.8 410.3 361.3 410.4C358.3 411 355.8 413 354.5 415.8L351.2 422.9C349.8 426 346.7 427.9 343.2 427.8L339.1 427.7C339 427.8 338.9 427.9 338.9 427.9C332.5 432.3 322.1 434.5 327.3 436.9H348.9C351.2 436.9 353.3 435.8 354.6 434L358.7 428.3L358.9 436.9H363.8C363.5 426 368.6 423.8 362.3 410.4Z" fill="#157897"/>
<path d="M279.4 436.6C279.6 436.7 279.8 436.8 280 436.9H301.6C301.9 436.9 302.1 436.9 302.4 436.9C302.7 436.9 303 436.8 303.3 436.8C303.6 436.7 303.8 436.7 304.1 436.6C305.4 436.2 306.7 435.3 307.6 434.2L311.7 429.3L312.3 428.5L311.6 436.7V437H316.6C317 432.2 317.9 429.1 318.3 426C318.3 425.9 318.3 425.8 318.3 425.7C318.8 421.8 318.6 417.8 316 410.5C314.1 405.3 327.7 365.6 328.2 350.5C328.5 342.1 327.7 335.4 326.7 330.6C325.6 325.2 324.3 322.3 324.3 322.3C325.7 318.2 328.1 310.5 328.2 308C328.2 307.6 328.2 307.3 328.1 307.3C322.8 303.4 306.7 303.3 302.8 305.9C302.1 306.3 301.6 307.4 301.3 308.9C300.3 312.9 300.4 319.6 300.4 323.9L300.5 328.7C300.5 328.7 300.5 328.8 300.5 329.1C300.6 330 300.8 332.3 301.2 335.7C302.8 352.9 305.7 397.3 303.9 410.8C303.1 417 292.2 427.8 292.2 427.8C287.9 430.5 282.4 432.5 280 434.2C279.8 434.3 279.7 434.4 279.5 434.5C279.4 434.5 279.4 434.6 279.3 434.6C279.2 434.7 279.1 434.7 279 434.9C278.6 435.4 278.6 436 279.4 436.6Z" fill="#FBBE52"/>
<path d="M315.9 410.4C315.9 410.3 315.5 410.3 314.9 410.4C311.9 411 309.3 413 307.9 415.8L304.4 422.9C302.9 426 299.7 427.9 296.2 427.8L292.1 427.7C292 427.8 291.9 427.9 291.9 427.9C285.3 432.3 274.9 434.5 280 436.9H301.6C303.9 436.9 306 435.8 307.4 434L311.7 428.3L311.6 436.9H316.5C316.6 426 321.7 423.8 315.9 410.4Z" fill="#157897"/>
<path opacity="0.1" d="M335.1 307.7C335 314.3 335.7 325.2 336 328.2V328.3C336 328.3 336.2 329.3 336.6 331.1L361.7 332.5C360.7 329.7 359.8 327.5 359 325.7C357.9 323.3 357 321.9 357 321.9C357.8 318 359.3 310.6 359.2 306.9L335.1 307.7Z" fill="#1D1D1B"/>
<path opacity="0.1" d="M300.4 323.8L300.5 328.6C300.5 328.6 300.5 328.7 300.5 329L326.6 330.5C325.5 325.1 324.2 322.2 324.2 322.2C325.6 318.1 328 310.4 328.1 307.9L301.1 308.7C300.3 312.7 300.4 319.5 300.4 323.8Z" fill="#1D1D1B"/>
<path d="M334.9 145.7L316.5 192.4C312 201.9 326 210.3 331.4 198.2L352.4 152.6C358.3 136.9 340.1 132.9 334.9 145.7Z" fill="#FBBE52"/>
<path d="M327.7 188.5L282.3 167.7C282.3 167.7 277.7 173.5 277.9 173.8C287.8 183.6 312.7 200.4 320.2 203.2C329 206.9 336.3 193.1 327.7 188.5Z" fill="#FBBE52"/>
<path d="M329 141.2C332 134.8 331.4 127.2 329.5 120.3C327.5 113.5 324.3 107.1 322 100.3C319.8 93.7 318.5 86.7 318.3 79.8C312.9 86.9 308 96.5 309.2 105.4C310.1 111.5 313.2 118.6 314.7 124.6C317.4 135.6 318.3 145.9 313.8 156.2C319.7 152.1 325.9 147.7 329 141.2Z" fill="#157897"/>
<path d="M305 112.4C305.3 109.6 304.5 106.8 303.5 104.2C301.5 99 298.7 94.1 295.3 89.7C296.3 94.5 297.2 99.4 298.2 104.2C299.4 109.9 300.4 116.2 297.7 121.4C301.5 120.1 304.6 116.4 305 112.4Z" fill="#157897"/>
<path d="M291.6 120.9C294.9 111.2 291.7 107.6 289.2 101.7C281 82.3 305.4 66.1 322.3 67.8C333.7 69 341.3 78.5 342.8 88.3C347 116.5 369.6 109.8 356.8 153.4C352.9 149.4 354.7 136.9 349.2 135.7C343.7 134.5 339.7 123.1 335.1 119.9C331.8 117.6 329.3 114.3 326.8 111.1C324.3 107.9 321.7 104.7 318.2 102.6C314.7 100.5 310.1 99.7 306.4 101.6C307.3 108.6 297.9 117.5 291.6 120.9Z" fill="#157897"/>
<path d="M343.7 122.3L324.6 136.1L322 123.7L320 114.4L319.1 110.4L333.8 94.7L343.7 122.3Z" fill="#FBBE52"/>
<path d="M324.7 128.7C317.9 156.2 305.5 147.5 303.9 162.8C302.5 176.2 314.8 178.5 314.8 178.5C316.3 193 320.1 209.9 319.2 219.7C319.2 219.7 350.7 213.8 352.8 213.3C347.6 198.4 356.7 182.4 356.7 155.3C356.7 140.7 342.8 119.7 342.8 119.7C342.8 119.7 325.7 124.6 324.7 128.7Z" fill="#FBBE52"/>
<path d="M302.6 164.3C302.6 165.7 302.7 167 303 168.2C305.2 177 314.5 179.4 314.5 179.4C314.6 183 314.8 189.4 315.1 192.7C315.1 192.7 315.1 192.7 315.1 192.8C315.2 194 315.3 195.2 315.5 196.4C315.8 199.2 316.2 201.9 316.5 204.4C317.1 208.8 317.7 213 318.1 216.7C318.2 217.3 318.2 217.9 318.3 218.4C318.3 218.4 319.1 218.3 320.5 218.1C321.6 218 322.9 218.3 324.5 218.9C327.8 220.1 332 222.1 336.2 221.4C340.6 220.8 345.1 218.3 348.3 216.2C350.7 214.7 352.3 213.4 352.8 213.3C352.4 212.2 352.1 211.2 352 210.1L351.9 210C351.2 207.2 351.1 204.3 351.2 201.2C351.2 200.4 351.3 199.6 351.3 198.7C351.7 194.3 352.6 189.6 353.5 184.4C353.5 184.1 353.6 183.9 353.6 183.7C354.6 178.3 355.6 172.3 356.2 165.5C356.3 164.4 356.4 163.3 356.5 162.1C356.6 159.8 356.7 157.6 356.7 155.2C356.7 140.6 347.2 127 347.2 127C347.2 127 344.2 128.2 341.1 129.3C338.1 130.3 335.7 132.5 334.2 135.2C334.1 135.3 334.1 135.4 334 135.5L328.8 145.4C327.2 148.5 324.1 150.6 320.6 150.9C316.3 151.2 309.9 152.8 309.9 152.8C309.9 152.8 303.2 154.2 302.6 164.3Z" fill="url(#paint4_linear)"/>
<path d="M300.399 320.3C318.099 316.6 350.499 325.5 369.299 322C369.299 321.9 369.299 321.7 369.199 321.6C368.599 317.3 362.999 279 364.099 261.6C371.199 238.4 365.199 223.1 351.999 210.1L351.899 210C350.199 211.1 347.999 212.3 345.499 213.4C339.399 216.1 331.499 218.4 325.199 218.3C322.399 218.3 319.999 217.8 318.099 216.7L317.899 216.8C316.899 223.6 315.899 229.9 314.799 235.9C307.999 275.2 300.399 297.9 300.399 320.3Z" fill="url(#paint5_linear)"/>
<path opacity="0.1" d="M330.6 104.7C331.8 110 331.5 115.7 329.8 120.9C329.1 123.1 323.9 128.2 322.2 129.8L319.1 120.1C319.7 119.6 321.9 118.2 322.5 117.6C326.1 113.9 329.2 109.6 330.6 104.7Z" fill="#1D1D1B"/>
<path d="M299.7 103.1C276.6 76.3999 343.8 51.5999 338.5 96.3999L332.2 99.0999C333.5 108.4 330.7 114.9 322 121.9C313.3 128.6 308.9 123.5 305.5 117.1C304.9 116 304.6 114.1 302.7 114.1C300.2 114.2 299.3 113.2 300 111.2C300.7 109.2 300.6 105.6 299.7 103.1Z" fill="#FBBE52"/>
<path d="M341.5 106.6C342.1 102.4 342.7 98.0999 342.6 93.8999C342.5 89.6999 341.7 85.3999 339.7 81.5999C336.5 75.6999 330.4 71.5999 323.7 70.3999C317 69.1999 310 70.9999 304 74.3999C295 79.4999 291.5 87.8999 291.5 94.5999C295.6 96.2999 303.3 88.1999 310.8 97.8999C325.4 116.7 334 108.8 341.5 106.6Z" fill="#157897"/>
<path d="M283.1 167.8L280.7 162.7L277.7 160.5C277.7 160.5 275.8 158.3 275.7 156.1C275.6 154.2 273.6 155.4 273.6 156.8C273.6 158.1 274.5 161.9 274.5 161.9L266.1 164.9L271.7 174.3L279.9 175.9L287.2 179.7L291.1 172.2L283.1 167.8Z" fill="#FBBE52"/>
<path d="M262.5 157.5L266 154.2C266.4 153.8 267.4 154.3 268.3 155.2L285.2 172.7C286.1 173.6 286.5 174.7 286.2 175.1L282.7 178.4C282.3 178.8 281.3 178.3 280.4 177.4L263.5 159.9C262.6 158.9 262.2 157.9 262.5 157.5Z" fill="url(#paint6_linear)"/>
<path d="M283.8 177.3L287.3 174C287.7 173.6 287.3 172.6 286.3 171.6L269.4 154.1C268.5 153.2 267.5 152.7 267.1 153.1L263.6 156.4C263.2 156.8 263.6 157.8 264.6 158.8L281.5 176.3C282.4 177.2 283.5 177.7 283.8 177.3Z" fill="url(#paint7_linear)"/>
<path d="M284.899 171.5C284.999 171.4 284.899 171.2 284.699 171L268.999 154.8C268.799 154.6 268.599 154.5 268.499 154.6L264.999 157.9C264.899 158 264.999 158.2 265.199 158.4L280.899 174.6C281.099 174.8 281.299 174.9 281.399 174.8L284.899 171.5Z" fill="#B0DFEA"/>
<path d="M265.999 155.8C266.199 156 266.499 156.2 266.599 156.1C266.699 156 266.599 155.7 266.399 155.5C266.199 155.3 265.899 155.1 265.799 155.2C265.599 155.2 265.699 155.5 265.999 155.8Z" fill="#878787"/>
<path d="M284.1 174.8C284.5 175.2 285 175.4 285.1 175.3C285.3 175.1 285.1 174.7 284.7 174.3C284.3 173.9 283.8 173.7 283.7 173.8C283.5 173.9 283.7 174.3 284.1 174.8Z" fill="#5CB1BF"/>
<path d="M285 173.7C285.2 173.9 285.4 174 285.4 173.9L286 173.3C286.1 173.2 286 173 285.8 172.9C285.6 172.7 285.4 172.6 285.4 172.7L284.8 173.3C284.8 173.3 284.8 173.5 285 173.7Z" fill="#5CB1BF"/>
<path d="M282.7 175.9C282.9 176.1 283.1 176.2 283.1 176.1L283.7 175.5C283.8 175.4 283.7 175.2 283.5 175.1C283.3 174.9 283.1 174.8 283.1 174.9L282.5 175.5C282.5 175.5 282.6 175.7 282.7 175.9Z" fill="#5CB1BF"/>
<path d="M265 166.6C265.1 167.4 265.8 167.9 266.5 167.8L271.6 166.5C273.3 166.2 273.2 163.6 271.1 164L265.9 164.9C265.4 165.1 264.9 165.8 265 166.6Z" fill="#FBBE52"/>
<path d="M266.4 169.1C266.6 170 267.3 170.5 268.1 170.4L273.6 169C275.4 168.7 275.3 165.9 273.1 166.3L267.6 167.3C266.7 167.4 266.2 168.2 266.4 169.1Z" fill="#FBBE52"/>
<path d="M268.3 171.5C268.5 172.4 269.2 172.9 270 172.8L275.5 171.4C277.3 171.1 277.2 168.3 275 168.7L269.5 169.7C268.6 169.8 268.1 170.6 268.3 171.5Z" fill="#FBBE52"/>
<path d="M270.8 173.4C270.9 174.1 271.5 174.5 272.1 174.4L276.5 173.3C278 173 277.9 170.9 276.1 171.2L271.7 172C271 172.1 270.7 172.7 270.8 173.4Z" fill="#FBBE52"/>
<path opacity="0.03" d="M303 168.2C305.2 177 314.5 179.4 314.5 179.4C314.6 183 314.8 189.4 315.1 192.7C315.1 192.7 315.1 192.7 315.1 192.8C315.5 196.9 316 200.8 316.5 204.4C317.1 208.8 317.7 213 318.1 216.7L317.9 216.8C316.9 223.6 315.9 229.9 314.8 235.9C317.8 228.1 320.9 222 324.4 218.9C324.6 218.7 324.8 218.5 325.1 218.4C319.6 202.5 315.3 187 321.9 176.2C314.8 176.3 308.5 173.5 303 168.2Z" fill="#1D1D1B"/>
<path opacity="0.03" d="M315.7 196.3L316.4 200.8L345.5 213.4C346.5 214.3 347.5 215.2 348.3 216.2C360.2 229.1 358.9 245.7 349.5 262.3C364.7 272.9 364.8 295.7 369.2 321.6C368.6 317.3 363 279 364.1 261.6C371.2 238.4 365.2 223.1 352 210.1L351.9 210C351.2 207.2 351.1 204.3 351.2 201.2C351.2 200.4 351.3 199.6 351.3 198.7C351.7 194.3 352.6 189.6 353.5 184.4C353.5 184.1 353.6 183.9 353.6 183.7L335.2 154.5L334.5 188.5L315.7 196.3Z" fill="#1D1D1B"/>
<path d="M348.3 191.4L295.7 191.7C295.7 191.7 295.3 197.9 295.7 198.1C309 202.2 340.5 209 348.5 208C357.9 207.1 358 191.5 348.3 191.4Z" fill="#FBBE52"/>
<path d="M305.3 192.7L292 188.6L283.4 190.9L280.5 199.8L284.7 204.1C286.5 203.7 286.8 202.3 285.5 200.9L291.2 198.9C294.2 201.3 298.5 199.9 302 199.6L305.3 192.7Z" fill="#FBBE52"/>
<path d="M292 188.6L280.5 189.8L275 195.2C273.7 196.4 275.4 197.6 276.5 196.4L281.4 192.4L292.1 192.5V188.6H292Z" fill="#FBBE52"/>
<path d="M334.9 150.1L340.2 200C340.6 210.5 356.9 211.5 356.1 198.3L353.6 148.2C351.6 131.5 333.6 136.4 334.9 150.1Z" fill="#FBBE52"/>
<path d="M141.3 254.5C144.8 254.5 150.6 254.5 154.1 254.5H167.7C171.2 254.5 174.1 251.6 174.1 248.1V241.2C174.1 237.7 173.6 232 173 228.5L161.6 162.7C161 159.2 157.6 156.4 154.1 156.4L102.8 156.7L97.8998 159.1C94.2998 160.2 92.0998 163.8 92.5998 167.3L100.3 228.4C100.7 231.9 101.1 237.6 101.1 241.1V248C101.1 251.5 104 254.4 107.5 254.4L113.2 255C116.7 255 127.5 254.4 131 254.4H141.3V254.5Z" fill="#FF9100"/>
<path d="M150 254.5C153.5 254.5 159.3 254.5 162.8 254.5H176.4C179.9 254.5 182.8 251.6 182.8 248.1V241.2C182.8 237.7 182.3 232 181.7 228.5L170.3 162.7C169.7 159.2 166.3 156.4 162.8 156.4H104.8C101.3 156.4 98.8002 159.2 99.2002 162.7L107.5 228.4C107.9 231.9 108.3 237.6 108.3 241.1V248C108.3 251.5 111.2 254.4 114.7 254.4H126.9C130.4 254.4 136.2 254.4 139.7 254.4H150V254.5Z" fill="url(#paint8_linear)"/>
<path d="M182.8 234.8L170.3 162.7C169.7 159.2 166.3 156.4 162.8 156.4H104.8C101.3 156.4 98.8002 159.2 99.2002 162.7L108.3 234.8H182.8Z" fill="url(#paint9_linear)"/>
<path d="M145.4 254.5H112.1V431.4H145.4V254.5Z" fill="#FF9100"/>
<path d="M169.7 254.5H117.5V431.4H169.7V254.5Z" fill="url(#paint10_linear)"/>
<path d="M110.6 220.3L103.5 166.9H166.3L176.6 220.3H110.6Z" fill="#B0DFEA"/>
<path d="M169.8 254.5H112.1V259.1H169.8V254.5Z" fill="#FF9100"/>
<path d="M161.3 184H154.5C154.1 184 153.8 183.7 153.8 183.3C153.8 182.9 154.1 182.6 154.5 182.6H161.3C161.7 182.6 162 182.9 162 183.3C162.1 183.6 161.7 184 161.3 184Z" fill="url(#paint11_linear)"/>
<path d="M121.5 198.7H114.7C114.3 198.7 114 198.4 114 198C114 197.6 114.3 197.3 114.7 197.3H121.5C121.9 197.3 122.2 197.6 122.2 198C122.2 198.4 121.9 198.7 121.5 198.7Z" fill="url(#paint12_linear)"/>
<path d="M141.4 184H134.6C134.2 184 133.9 183.7 133.9 183.3C133.9 182.9 134.2 182.6 134.6 182.6H141.4C141.8 182.6 142.1 182.9 142.1 183.3C142.1 183.6 141.8 184 141.4 184Z" fill="url(#paint13_linear)"/>
<path d="M166.5 215H159.7C159.3 215 159 214.7 159 214.3C159 213.9 159.3 213.6 159.7 213.6H166.5C166.9 213.6 167.2 213.9 167.2 214.3C167.2 214.7 166.9 215 166.5 215Z" fill="url(#paint14_linear)"/>
<path d="M123.7 215H116.9C116.5 215 116.2 214.7 116.2 214.3C116.2 213.9 116.5 213.6 116.9 213.6H123.7C124.1 213.6 124.4 213.9 124.4 214.3C124.4 214.7 124.1 215 123.7 215Z" fill="url(#paint15_linear)"/>
<path d="M145.8 215H139C138.6 215 138.3 214.7 138.3 214.3C138.3 213.9 138.6 213.6 139 213.6H145.8C146.2 213.6 146.5 213.9 146.5 214.3C146.5 214.7 146.2 215 145.8 215Z" fill="url(#paint16_linear)"/>
<path d="M167.3 167.3L178.1 220.7L176.7 220.3L166.2 167.3H167.3Z" fill="#D39C20"/>
<path d="M156.6 195C155.8 195 155 194.3 154.9 193.5L154 186.5C153.9 185.7 154.5 185 155.3 185H162.7C163.5 185 164.3 185.7 164.3 186.5L165.1 193.4C165.2 194.2 164.6 194.9 163.8 194.9H156.6V195Z" fill="#BEE9F4"/>
<path d="M159.201 211.2C158.401 211.2 157.601 210.5 157.501 209.7L156.601 202.7C156.501 201.9 157.101 201.2 157.901 201.2H165.301C166.101 201.2 166.901 201.9 166.901 202.7L167.701 209.6C167.801 210.4 167.201 211.1 166.401 211.1H159.201V211.2Z" fill="#BEE9F4"/>
<path d="M166.4 212.1H159.1C157.9 212.1 156.7 211.1 156.6 209.9L155.7 202.9C155.6 202.3 155.8 201.6 156.2 201.2C156.6 200.7 157.2 200.5 157.8 200.5H165.2C166.5 200.5 167.6 201.5 167.7 202.7L168.5 209.6C168.6 210.2 168.4 210.9 168 211.3C167.7 211.8 167.1 212.1 166.4 212.1ZM157.9 202.2C157.8 202.2 157.6 202.2 157.6 202.3C157.5 202.4 157.5 202.5 157.5 202.7L158.4 209.7C158.4 210.1 158.8 210.4 159.2 210.4H166.5C166.6 210.4 166.8 210.4 166.8 210.3C166.9 210.2 166.9 210.1 166.9 209.9L166.1 203C166.1 202.6 165.7 202.3 165.3 202.3H157.9V202.2Z" fill="url(#paint17_linear)"/>
<path d="M138.6 211.2C137.8 211.2 137 210.5 136.9 209.7L136 202.7C135.9 201.9 136.5 201.2 137.3 201.2H144.7C145.5 201.2 146.3 201.9 146.3 202.7L147.1 209.6C147.2 210.4 146.6 211.1 145.8 211.1H138.6V211.2Z" fill="#BEE9F4"/>
<path d="M145.9 212.1H138.6C137.4 212.1 136.2 211.1 136.1 209.9L135.2 202.9C135.1 202.3 135.3 201.6 135.7 201.2C136.1 200.7 136.7 200.5 137.3 200.5H144.7C146 200.5 147.1 201.5 147.2 202.7L148 209.6C148.1 210.2 147.9 210.9 147.5 211.3C147.1 211.8 146.5 212.1 145.9 212.1ZM137.3 202.2C137.2 202.2 137 202.2 137 202.3C136.9 202.4 136.9 202.5 136.9 202.7L137.8 209.7C137.8 210.1 138.2 210.4 138.6 210.4H145.9C146 210.4 146.2 210.4 146.2 210.3C146.3 210.2 146.3 210.1 146.3 209.9L145.5 203C145.5 202.6 145.1 202.3 144.7 202.3H137.3V202.2Z" fill="url(#paint18_linear)"/>
<path d="M116.6 211.2C115.8 211.2 115 210.5 114.9 209.7L114 202.7C113.9 201.9 114.5 201.2 115.3 201.2H122.7C123.5 201.2 124.3 201.9 124.3 202.7L125.1 209.6C125.2 210.4 124.6 211.1 123.8 211.1H116.6V211.2Z" fill="#F3FDFF"/>
<g opacity="0.2">
<path opacity="0.2" d="M123.801 213.8H116.501C114.401 213.8 112.601 212.2 112.301 210.1L111.401 203.1C111.301 202 111.601 200.9 112.301 200C113.001 199.2 114.101 198.7 115.201 198.7H122.601C124.701 198.7 126.601 200.3 126.801 202.4L127.601 209.3C127.701 210.4 127.401 211.5 126.701 212.3C126.001 213.3 125.001 213.8 123.801 213.8ZM117.401 208.7H122.501L121.901 204H116.801L117.401 208.7Z" fill="white"/>
</g>
<g opacity="0.4">
<path opacity="0.4" d="M123.8 212.9H116.5C114.8 212.9 113.3 211.6 113.1 209.9L112.2 202.9C112.1 202 112.3 201.2 112.9 200.5C113.5 199.9 114.3 199.5 115.2 199.5H122.6C124.3 199.5 125.8 200.8 126 202.5L126.8 209.4C126.9 210.3 126.6 211.1 126.1 211.8C125.5 212.6 124.7 212.9 123.8 212.9ZM116.6 209.5H123.4L122.6 203H115.7L116.6 209.5Z" fill="white"/>
</g>
<path d="M123.801 212.1H116.501C115.201 212.1 114.101 211.1 114.001 209.9L113.101 202.9C113.001 202.3 113.201 201.6 113.601 201.2C114.001 200.8 114.601 200.5 115.201 200.5H122.601C123.901 200.5 125.001 201.5 125.101 202.7L125.901 209.6C126.001 210.2 125.801 210.8 125.401 211.3C125.001 211.8 124.501 212.1 123.801 212.1ZM115.301 202.2C115.201 202.2 115.001 202.2 115.001 202.3C114.901 202.4 114.901 202.5 114.901 202.7L115.801 209.7C115.801 210.1 116.201 210.4 116.601 210.4H123.901C124.001 210.4 124.201 210.4 124.201 210.3C124.301 210.2 124.301 210.1 124.301 209.9L123.501 203C123.501 202.6 123.101 202.3 122.701 202.3H115.301V202.2Z" fill="white"/>
<path d="M114.001 195.8C113.201 195.8 112.401 195.1 112.301 194.3L111.401 187.3C111.301 186.5 111.901 185.8 112.701 185.8H120.101C120.901 185.8 121.701 186.5 121.701 187.3L122.501 194.2C122.601 195 122.001 195.7 121.201 195.7H114.001V195.8Z" fill="#BEE9F4"/>
<path d="M121.201 196.6H114.001C112.801 196.6 111.601 195.6 111.501 194.4L110.601 187.4C110.501 186.8 110.701 186.1 111.101 185.7C111.501 185.2 112.101 185 112.701 185H120.101C121.401 185 122.501 186 122.601 187.2L123.401 194.1C123.501 194.7 123.301 195.3 122.901 195.8C122.501 196.3 121.901 196.6 121.201 196.6ZM112.701 186.7C112.601 186.7 112.401 186.7 112.401 186.8C112.301 186.9 112.301 187 112.301 187.2L113.201 194.2C113.201 194.6 113.601 194.9 114.001 194.9H121.301C121.401 194.9 121.601 194.9 121.701 194.8C121.801 194.7 121.801 194.6 121.801 194.4L121.001 187.5C121.001 187.1 120.601 186.8 120.201 186.8H112.701V186.7Z" fill="url(#paint19_linear)"/>
<path d="M136.1 195.8C135.3 195.8 134.5 195.1 134.4 194.3L133.5 187.3C133.4 186.5 134 185.8 134.8 185.8H142.2C143 185.8 143.8 186.5 143.8 187.3L144.6 194.2C144.7 195 144.1 195.7 143.3 195.7H136.1V195.8Z" fill="#BEE9F4"/>
<path d="M143.4 196.6H136.1C134.9 196.6 133.7 195.6 133.6 194.4L132.7 187.4C132.6 186.8 132.8 186.1 133.2 185.7C133.6 185.2 134.2 185 134.8 185H142.2C143.5 185 144.6 186 144.7 187.2L145.5 194.1C145.6 194.7 145.4 195.3 145 195.8C144.6 196.4 144 196.6 143.4 196.6ZM134.8 186.7C134.7 186.7 134.5 186.7 134.5 186.8C134.4 186.9 134.4 187 134.4 187.2L135.3 194.2C135.4 194.6 135.7 194.9 136.1 194.9H143.4C143.5 194.9 143.7 194.9 143.7 194.8C143.8 194.7 143.8 194.6 143.8 194.4L143 187.5C143 187.1 142.6 186.8 142.2 186.8H134.8V186.7Z" fill="url(#paint20_linear)"/>
<path d="M112.1 181.8C111.3 181.8 110.5 181.1 110.4 180.3L109.5 173.3C109.4 172.5 110 171.8 110.8 171.8H118.2C119 171.8 119.8 172.5 119.8 173.3L120.6 180.2C120.7 181 120.1 181.7 119.3 181.7H112.1V181.8Z" fill="#BEE9F4"/>
<path d="M119.4 182.6H112.1C110.9 182.6 109.7 181.6 109.6 180.4L108.7 173.4C108.6 172.8 108.8 172.2 109.2 171.7C109.6 171.2 110.2 171 110.8 171H118.2C119.5 171 120.6 172 120.7 173.2L121.5 180.1C121.6 180.7 121.4 181.3 121 181.8C120.6 182.4 120 182.6 119.4 182.6ZM110.8 172.8C110.7 172.8 110.5 172.8 110.5 172.9C110.4 173 110.4 173.1 110.4 173.3L111.3 180.3C111.3 180.7 111.7 181 112.1 181H119.4C119.5 181 119.7 181 119.8 180.9C119.9 180.8 119.9 180.7 119.9 180.5L119.1 173.6C119.1 173.2 118.7 172.9 118.3 172.9H110.8V172.8Z" fill="url(#paint21_linear)"/>
<path d="M134.1 181.8C133.3 181.8 132.5 181.1 132.4 180.3L131.5 173.3C131.4 172.5 132 171.8 132.8 171.8H140.2C141 171.8 141.8 172.5 141.8 173.3L142.6 180.2C142.7 181 142.1 181.7 141.3 181.7H134.1V181.8Z" fill="#BEE9F4"/>
<path d="M141.4 182.6H134.1C132.9 182.6 131.7 181.6 131.6 180.4L130.7 173.4C130.6 172.8 130.8 172.1 131.2 171.7C131.6 171.2 132.2 171 132.8 171H140.2C141.5 171 142.6 172 142.7 173.2L143.5 180.1C143.6 180.7 143.4 181.4 143 181.8C142.6 182.4 142 182.6 141.4 182.6ZM132.8 172.8C132.7 172.8 132.5 172.8 132.5 172.9C132.4 173 132.4 173.1 132.4 173.3L133.3 180.3C133.3 180.7 133.7 181 134.1 181H141.4C141.5 181 141.7 181 141.7 180.9C141.8 180.8 141.8 180.7 141.8 180.5L141 173.6C141 173.2 140.6 172.9 140.2 172.9H132.8V172.8Z" fill="url(#paint22_linear)"/>
<path d="M154.7 181.8C153.9 181.8 153.1 181.1 153 180.3L152.1 173.3C152 172.5 152.6 171.8 153.4 171.8H160.8C161.6 171.8 162.4 172.5 162.4 173.3L163.2 180.2C163.3 181 162.7 181.7 161.9 181.7H154.7V181.8Z" fill="#BEE9F4"/>
<path d="M162 182.6H154.7C153.4 182.6 152.3 181.6 152.2 180.4L151.3 173.4C151.2 172.8 151.4 172.1 151.8 171.7C152.2 171.2 152.8 171 153.4 171H160.8C162.1 171 163.2 172 163.3 173.2L164.1 180.1C164.2 180.7 164 181.4 163.6 181.8C163.2 182.4 162.6 182.6 162 182.6ZM153.4 172.8C153.3 172.8 153.1 172.8 153.1 172.9C153 173 153 173.1 153 173.3L153.9 180.3C153.9 180.7 154.3 181 154.7 181H162C162.1 181 162.3 181 162.3 180.9C162.4 180.8 162.4 180.7 162.4 180.5L161.6 173.6C161.6 173.2 161.2 172.9 160.8 172.9H153.4V172.8Z" fill="url(#paint23_linear)"/>
<path d="M163.5 198.7H156.7C156.3 198.7 156 198.4 156 198C156 197.6 156.3 197.3 156.7 197.3H163.5C163.9 197.3 164.2 197.6 164.2 198C164.3 198.4 163.9 198.7 163.5 198.7Z" fill="#707893"/>
<path d="M143.6 198.7H136.8C136.4 198.7 136.1 198.4 136.1 198C136.1 197.6 136.4 197.3 136.8 197.3H143.6C144 197.3 144.3 197.6 144.3 198C144.4 198.4 144 198.7 143.6 198.7Z" fill="#707893"/>
<path opacity="0.3" d="M117 220.3H138.9L152.4 166.9H130.5L117 220.3Z" fill="#B9B8B4"/>
<path d="M119.3 184H112.5C112.1 184 111.8 183.7 111.8 183.3C111.8 182.9 112.1 182.6 112.5 182.6H119.3C119.7 182.6 120 182.9 120 183.3C120 183.6 119.7 184 119.3 184Z" fill="url(#paint24_linear)"/>
<path d="M155 242H139.5V245.4H155V242Z" fill="#42413F"/>
<path d="M154.3 242.7V244.7H140.3V242.7H154.3ZM155.8 241.3H154.3H140.3H138.8V242.8V244.8V246.3H140.3H154.3H155.8V244.8V242.8V241.3Z" fill="#8E8576"/>
<g opacity="0.4">
<path opacity="0.4" d="M176.6 220.4H110.6V221.9H176.6V220.4Z" fill="#FFDF5A"/>
</g>
<mask id="mask0" mask-type="alpha" maskUnits="userSpaceOnUse" x="97" y="143" width="104" height="290">
<path d="M200.199 143.4H97.8994V432.1H200.199V143.4Z" fill="white"/>
<path d="M110.599 220.3L103.499 166.9H166.299L176.599 220.3H110.599Z" fill="#59717C"/>
</mask>
<g mask="url(#mask0)">
<path opacity="0.1" d="M170.3 162.7C169.7 159.2 166.3 156.4 162.8 156.4H141.7C142.1 168.6 142.6 181.6 140.8 187.4C140.2 189.1 129.5 190 129.2 190.2C127.7 192 124.7 192.1 123.1 192.5L120 202.6C121.5 202.5 146.3 212.9 146.3 212.9C146.3 212.9 146.5 213.2 146.5 219.6C146.5 222.1 145.5 223.6 144.7 226C144.3 227.2 144 228.5 143.9 229.8C143.8 229.8 143.8 229.8 143.7 229.8C142.5 230.1 142 231 142 232.1C141.7 236.4 140.8 240.7 141 245C141.1 246.5 141.5 248.6 141.7 249C141.7 250.7 141.6 252.4 141.8 254C141.9 254.9 142 255.8 142 256.7C143.9 281.8 146.1 298.7 147.4 307.1C147.6 310.1 147.9 311.3 148.4 312.3C148.7 313.6 148.9 313.9 148.8 313C148.9 313.7 149 314.3 149.1 315C150.2 323.6 150.7 338.8 151.5 347.5C152.5 359 153.9 380 155.6 391.4C156.5 397.4 156.9 403.5 156.9 409.5C156.9 412.3 157 415.9 154.6 418C154.5 418.4 154.5 418.8 154.5 419.1C154.4 418.5 154.5 418 154.5 417.3C151.7 421.1 148.6 424.4 144.2 426.3C142.7 426.9 141.3 427.8 139.9 428.6C139 429.1 138 429.5 138.1 430.7C138.1 430.9 138.1 431.1 138.2 431.3H145.4H169.8V392C169.7 393.7 169.6 395.3 169.6 397C169.4 402.2 169.3 407.4 168.6 412.6C168.4 414.2 168.2 415.9 167.1 417.2L167 417.3C166.8 410.8 167.5 404.2 167.6 397.7C167.7 390.6 167.7 383.6 167.3 376.5C166.9 370.5 166.5 355 165.5 349.1C164.8 344.7 164.4 340.4 165 335.9C165.5 331.8 166.3 322 165.9 317.1C165.9 317.2 166 317.2 166 317.2C166 316.2 165.9 314.6 165.8 313.4C167.2 313.4 168.5 313.4 169.9 313.4V259.1V254.5H176.6C180.1 254.5 183 251.6 183 248.1V241.2C183 239.4 182.9 237.1 182.7 234.8H183L170.3 162.7ZM152.5 230.3C152.5 230.3 152.6 230.3 152.5 230.3C152.6 230.3 152.6 230.3 152.6 230.3H152.5Z" fill="#154662"/>
<g opacity="0.4">
<path opacity="0.4" d="M104.266 170.434L102.779 170.63L109.829 224.066L111.317 223.87L104.266 170.434Z" fill="#FFDF5A"/>
</g>
<path d="M127.1 206.5C127 206.4 126.9 206.4 126.8 206.3C126.3 205.7 126.4 205.4 127.1 204.8C127.7 204.3 128.9 202.7 129.5 202.2C129.8 201.9 130 201.6 129.6 201.2C129.4 201 129.4 200.8 129.3 200.5C129.2 200.2 129.1 199.9 128.9 199.6C128.5 199 128.6 197.4 128.9 196.9C129.4 195.9 131.1 194.4 131.2 194.2C131.7 193.8 135 192 136.6 192.2C137.6 192.3 139.9 194.9 140.4 195.9C140.4 196.3 140.8 196.5 140.9 196.8C141.2 197.5 141.1 198.1 140.6 198.7C140.5 198.8 140.4 199 140.4 199.2C140.4 199.3 140.4 199.5 140.3 199.6C139.6 200.4 139.2 201.4 138.6 202.2C138.2 202.7 137.8 203.2 137.3 203.6C136.9 204 136.4 204 135.9 203.9C135.3 203.8 134.7 203.6 134.1 203.4C133.7 203.3 133.4 203.3 133.1 203.4C132.1 203.8 130.5 205.4 129.5 206C128.6 206.6 127.9 206.8 127.1 206.5Z" fill="white"/>
<path d="M126.8 205.9C126.7 205.8 126.6 205.8 126.5 205.7C126 205.1 126.1 204.8 126.8 204.2C127.4 203.7 128.6 202.1 129.2 201.6C129.5 201.3 129.7 201 129.3 200.6C129.1 200.4 129.1 200.2 129 199.9C128.9 199.6 128.8 199.3 128.6 199C128.2 198.4 128.3 196.8 128.6 196.3C129.1 195.3 130.8 193.8 130.9 193.6C131.4 193.2 134.7 191.4 136.3 191.6C137.3 191.7 139.6 194.3 140.1 195.3C140.1 195.7 140.5 195.9 140.6 196.2C140.9 196.9 140.8 197.5 140.3 198.1C140.2 198.2 140.1 198.4 140.1 198.6C140.1 198.7 140.1 198.9 140 199C139.3 199.8 138.9 200.8 138.3 201.6C137.9 202.1 137.5 202.6 137 203C136.6 203.4 136.1 203.4 135.6 203.3C135 203.2 134.4 203 133.8 202.8C133.4 202.7 133.1 202.7 132.8 202.8C131.8 203.2 130.2 204.8 129.2 205.4C128.3 206.1 127.6 206.2 126.8 205.9Z" fill="#FBBE52"/>
<path fill-rule="evenodd" clip-rule="evenodd" d="M231.899 212.3C231.999 217.7 232.199 222.2 232.499 227.6C232.799 231.6 232.999 238.8 232.699 242.8C231.999 243.3 231.299 240.9 230.599 241C225.999 240.1 221.299 239.4 216.699 238.8C210.199 237.9 203.599 236.4 197.199 235.5C194.899 235.2 192.899 235 191.399 235C190.899 235 190.899 234.1 190.699 233.6C190.399 233 190.899 232.6 191.199 232.2C191.699 231.6 192.099 231.7 192.699 231.1C191.799 231.6 186.499 234.6 188.999 232.9C187.099 233.5 187.099 231.8 186.999 229.8C186.899 226.3 187.499 223.8 187.799 220.3C187.999 217.3 188.099 214.3 188.299 211.3C188.499 207.2 189.099 214.3 189.199 210.2C189.299 206.6 189.599 203.1 189.399 199.5C189.199 196.7 189.199 193.8 189.099 191C188.799 185.8 187.899 180.6 187.699 175.4C187.599 171.1 187.699 166.9 188.499 162.7C188.599 162 188.599 161.3 187.899 160.9C187.299 166.7 187.299 172.5 186.199 178.2C185.699 179 184.799 179.9 184.799 180.9C184.599 181.5 182.599 188.1 181.599 193.1C180.699 196.2 179.099 198.5 177.099 200C174.999 201.5 172.299 202 168.199 202.7C167.599 202.8 169.799 201.2 169.199 201.3C166.299 201.8 165.199 200.8 165.699 197.9C165.999 196.2 166.799 194.8 167.599 193.4C170.099 189.3 167.199 187 169.699 182.9C173.599 176.6 172.899 180.3 173.799 173C174.799 165.2 176.499 157.4 179.199 150C180.799 145.8 182.999 141.8 186.399 138.8C191.199 134.4 196.999 131.8 203.499 131.2C206.499 130.9 209.599 130.6 212.599 130.1C213.199 130 213.699 130.1 214.299 130C214.699 129.9 214.099 129.9 214.199 129.8C214.899 128.9 215.999 128.9 216.799 128.2C222.299 130.1 227.599 132.4 231.399 137.2C234.299 141 236.599 145.3 237.599 149.9C240.699 162.9 245.399 175.5 248.499 188.4C249.099 191.1 249.399 193.8 249.599 196.5C249.699 197.9 249.399 199.3 248.599 200.4C246.399 203.7 243.399 206 239.499 207C239.399 206.3 239.999 206.1 240.299 205.8C241.599 204.8 242.699 203.6 243.999 202.6C244.599 202.1 244.599 201.6 243.799 201.3C242.299 200.8 241.599 199.6 240.899 198.3C238.999 194.7 237.799 190.9 236.799 187C235.199 181 233.299 175.2 231.699 169.2C231.299 167.6 230.999 166 231.799 164.4C232.099 163.9 232.099 163.2 231.699 162.7C230.199 160.9 230.199 159 231.199 156.9C231.299 156.7 231.299 156.5 231.199 156.3C230.299 156.7 229.899 157.3 229.899 158.6C229.999 162.7 230.099 166.8 230.399 170.9C230.899 177.4 231.599 183.8 230.899 190.3C230.799 191.6 230.899 192.9 231.299 194.2C231.999 196.5 234.399 198.9 233.899 201.3C233.799 204.1 231.899 211.3 231.899 212.3Z" fill="url(#paint25_linear)"/>
<path fill-rule="evenodd" clip-rule="evenodd" d="M185 181C185.5 177.8 187.9 170.3 187.4 160.5C189.3 161.2 189.7 162 189.2 163.7C188.9 164.6 188.8 165.7 188.7 166.6C188.3 173.1 189.3 179.5 189.7 186C189.9 190 190 194 190.2 198C190.3 201.8 190.2 205.7 190.1 209.5C189.9 215 187.6 225.1 187.9 230.7C188 232.3 188.6 232.7 190.1 232.2C191.6 231.7 193.1 230.9 194.6 230.3C194.7 230.4 194.8 230.5 194.9 230.6C193.6 231.7 192.3 232.7 191 233.8C204.7 235.9 220 238.2 233.3 240.2C233.6 241.4 233.7 243.7 233.1 243.8C228.6 243.8 220.5 239.9 216.1 239.5C214.2 239.3 212.3 239.1 210.5 239C209.4 238.7 208.2 238.7 207.1 238.4C206.8 238.4 206.6 238.3 206.3 238.3C204.4 237.9 202.5 237.7 200.6 237.5C196.1 236.7 191.5 236.1 186.9 235.6C185.4 235.5 183.7 236.1 182.3 235.1C182.4 233.2 182.7 231.3 183.3 229.5C184.1 227.1 185.1 225.6 185.1 223.1C185.1 215.5 188.2 202.5 184.9 186.7C184.6 186.3 184.6 182.5 185 181Z" fill="url(#paint26_linear)"/>
<path fill-rule="evenodd" clip-rule="evenodd" d="M193 420.9C192.8 422.4 192.9 423.8 194.2 425C195.5 426.1 196.4 426.3 198 425.4C199.9 423.9 202 422.8 204.5 422.8C205.5 422.9 206.2 423.4 206.4 424.4C206.7 425.5 207.2 426.6 207.6 427.7C207.7 430.6 207.1 433.2 205.5 435.7C204.9 436.6 205.4 436.7 206.2 436.8C207.2 436.8 208.2 436.5 209.1 437.2C205.6 437.7 202.1 437.2 198.6 437.3C198.2 437.3 197.9 437 197.8 436.7C197.4 435.2 196.6 435.7 195.7 436.1C193.3 437 190.7 437.4 188.2 437.8C186.5 437.8 184.8 437.8 183.1 437.8C181.5 437.7 179.8 437.6 178.4 436.8C177.5 436.3 176.6 435.6 176.6 434.4C176.5 433.1 177.5 432.7 178.4 432.3C179.8 431.5 181.2 430.7 182.7 430C187.1 428.1 190.2 424.7 193 420.9Z" fill="#157897"/>
<path fill-rule="evenodd" clip-rule="evenodd" d="M141.4 191.7C141.2 192 140.8 192 140.4 192.1C137.4 192.4 135.5 194.6 135.5 197.5C134.2 198.1 133 197.7 132.3 196.4C131.4 194.7 131.4 193 132.3 191.3V191.2C135 189.8 137.7 190.2 140.4 191C140.8 191.2 141.2 191.3 141.4 191.7Z" fill="#BEE9F4"/>
<path fill-rule="evenodd" clip-rule="evenodd" d="M132.299 191.4C132.099 192.6 131.799 193.8 132.199 195.1C132.799 197.1 133.199 197.5 135.499 197.6C135.799 199.9 137.999 200.4 139.299 201.8C137.799 202.7 136.399 201.8 134.899 201.6C134.399 201.5 133.999 201.4 133.599 201.2C129.899 198.9 129.999 195.3 132.299 191.4Z" fill="#B2A5A5"/>
<path fill-rule="evenodd" clip-rule="evenodd" d="M212.6 129.5C209.3 129.3 205.9 129.5 202.6 129.4C201.4 129.5 200.3 129.1 199.2 129.3C191.4 130.2 177 139 173.5 155.7C171.8 163.5 170.5 168.3 169.2 176.2C168.6 179.9 168.3 184.2 166.4 186.4C164.9 188.2 161.9 188.3 160.3 188.7C156.7 189.8 145.8 191.7 141.4 191.6C137.7 191.4 134.9 194.1 135.2 197.5C135.6 199.8 137.3 200.9 139.3 201.6C143.5 203.5 158.9 203.1 165.8 202.8C167.3 202.7 173.8 202.4 177.2 199.8C177.7 199.4 173.3 199.2 172 195.8C170.8 192.6 174 174.8 174.5 172.3C175.6 166.8 176.7 161.2 178.2 155.7C180.7 146.2 185 138.2 194.5 134C197.4 132.7 200.4 131.6 203.7 131.4C206.9 131.2 214.9 130.9 216.8 128.7C216.9 128.3 213 129.6 212.6 129.5Z" fill="url(#paint27_linear)"/>
<path fill-rule="evenodd" clip-rule="evenodd" d="M198.3 282.1C203.5 281.3 208.2 279 212.9 276.7C213.7 276.3 214.4 276.3 215.3 276.8C217.7 278.2 220.1 279.8 223 280.7C221.9 281.9 220.9 282.5 219.5 282.1C218.3 281.8 217.1 281.6 215.9 281.1C214.3 280.5 212.7 280.6 211 281.2C206.8 282.6 202.5 282.3 198.3 282.1Z" fill="#17324A"/>
<path fill-rule="evenodd" clip-rule="evenodd" d="M205.5 380C205.1 374 204.7 358.5 203.7 352.6C203 348.2 202.6 343.9 203.2 339.4C203.7 335.3 204.5 325.5 204.1 320.6C204.1 320.7 204.2 320.7 204.2 320.7C204.3 319.4 204 317.2 204 315.9C198.4 315.6 192.8 316.1 187.3 316.5C187.4 317.2 187.5 317.8 187.6 318.5C188.7 327.1 189.2 342.3 190 351C191 362.5 192.4 383.5 194.1 394.9C195 400.9 195.4 407 195.4 413C195.4 415.8 195.5 419.4 193.1 421.5C192.6 424 193.1 424.9 194.8 425.9C196.1 426.6 197.2 426.4 198 425.3C198.6 425 199.1 424.8 199.7 424.6C201.3 424 202.7 422.8 204.6 423.1C205.3 422.5 205.2 421.6 205.3 420.8C205.1 414.2 205.8 407.7 205.9 401.1C205.8 394.1 205.9 387.1 205.5 380Z" fill="#FBBE52"/>
<path fill-rule="evenodd" clip-rule="evenodd" d="M232.4 256.9C231.7 256.4 231 256.9 230.3 256.9C224 256.5 217.8 256.1 211.6 255.5C203.5 254.6 195.7 252.4 187.7 251.1C185.6 250.8 183.5 250.5 181.4 250.8C180.5 250.9 180.3 251.3 180.3 252.1C180.3 253.9 179.5 250.6 179.4 248.5C179.2 244.2 180.1 239.9 180.4 235.6C180.5 234.5 181 233.6 182.1 233.3C183.7 233.3 187.3 234.1 188.9 234.2C189.1 234.9 187 234.8 187.1 235.5C187 238.6 186.7 241.8 186.5 244.9C186.4 246.7 187.1 248 188.6 248.8C189.6 249.3 190.7 249.5 191.8 249.7C200.6 251.2 209.5 252.4 218.5 252.9C222.6 253.1 226.7 253 230.8 252.8C232 252.7 233 251.8 234.3 252.3C234.4 254.2 234.4 256 232.4 256.9Z" fill="url(#paint28_linear)"/>
<path fill-rule="evenodd" clip-rule="evenodd" d="M234.3 252.3C229.4 253.9 224.4 253.7 219.4 253.3C217.3 253.1 215.2 253 213.1 252.9C208.7 252.7 204.3 252 200 251.4C196.8 251 193.6 250.4 190.4 249.9C187.6 249.4 185.7 247.5 186 245.2C186.2 244 186.2 242.8 186.3 241.6C186.5 239.4 186.7 237.2 186.9 235.1C187.4 234.3 188.2 234.3 189 234.3C191.2 234.2 193.4 234.8 195.6 235.1C196.9 235.3 198.2 235.4 199.5 235.6C201.4 236 208.6 237.1 209.5 237.2C217.1 238.2 224.6 239.7 232.2 240.4C233 240.5 233.9 240.5 234.5 241.2C234.3 244.8 234.3 248.5 234.3 252.3Z" fill="url(#paint29_linear)"/>
<path fill-rule="evenodd" clip-rule="evenodd" d="M232.499 257.6C233.899 261.6 233.399 267.7 232.499 271.7C230.999 278.8 228.799 302.4 227.899 310C227.599 312.2 227.699 314.4 227.099 316.6C226.699 316.9 188.099 317.2 187.299 316.6C186.399 315.2 186.099 314.2 185.799 308.7C185.499 302.3 183.999 284.5 184.399 278.1C184.699 274.5 184.899 270.8 184.799 267.2C184.699 264.3 184.899 261.4 185.099 258.5C185.199 256.2 185.699 255.7 187.899 255.3C191.199 254.7 194.399 254.9 197.599 255.6C203.499 256.9 209.499 257.9 215.599 258.4C219.799 258.7 223.999 258.5 228.199 258C229.599 257.7 230.999 257.6 232.499 257.6Z" fill="url(#paint30_linear)"/>
<path fill-rule="evenodd" clip-rule="evenodd" d="M232.5 257.6C232.2 258 231.9 258.1 231.4 258.1C227.8 258.1 224.2 258.8 220.5 258.8C213.1 258.8 205.8 257.7 198.6 256.1C195 255.3 191.3 255 187.6 255.6C186.2 255.8 185.4 256.3 185.4 258C185.3 264.6 185.2 271.2 184.7 277.7C184.2 283.9 186.8 310.3 187.1 316.5C187.2 320.3 183.4 301.4 180.3 260.2C180.2 259.3 180.2 258.4 180.1 257.5C179.9 255.6 180.1 253.7 180 251.8C180 251 180.5 250.8 181.1 250.7C182.3 250.4 183.5 250.3 184.7 250.5C188.8 250.9 192.8 251.7 196.9 252.6C204.9 254.3 213 255.5 221.2 255.9C224.6 256 232.4 256.4 232.4 256.4C232.4 256.4 232.3 256.5 232.5 257C232.4 257.2 232.4 257.4 232.5 257.6Z" fill="#137187"/>
</g>
</g>
<defs>
<linearGradient id="paint0_linear" x1="480.549" y1="309.672" x2="397.259" y2="325.854" gradientUnits="userSpaceOnUse">
<stop offset="0.1719" stop-color="#157897"/>
<stop offset="0.3223" stop-color="#1A7D9C"/>
<stop offset="0.5074" stop-color="#298BA9"/>
<stop offset="0.7107" stop-color="#42A1C0"/>
<stop offset="0.9206" stop-color="#64C0DE"/>
</linearGradient>
<linearGradient id="paint1_linear" x1="421.252" y1="312.76" x2="475.985" y2="317.995" gradientUnits="userSpaceOnUse">
<stop offset="0.1719" stop-color="#157897"/>
<stop offset="0.3223" stop-color="#1A7D9C"/>
<stop offset="0.5074" stop-color="#298BA9"/>
<stop offset="0.7107" stop-color="#42A1C0"/>
<stop offset="0.9206" stop-color="#64C0DE"/>
</linearGradient>
<linearGradient id="paint2_linear" x1="424.513" y1="163.417" x2="442.811" y2="163.417" gradientUnits="userSpaceOnUse">
<stop stop-color="#E88306"/>
<stop offset="0.9133" stop-color="#F7D209"/>
<stop offset="1" stop-color="#F8DA09"/>
</linearGradient>
<linearGradient id="paint3_linear" x1="437.619" y1="121.451" x2="448.006" y2="121.451" gradientUnits="userSpaceOnUse">
<stop stop-color="#E88306"/>
<stop offset="0.9133" stop-color="#F7D209"/>
<stop offset="1" stop-color="#F8DA09"/>
</linearGradient>
<linearGradient id="paint4_linear" x1="302.577" y1="174.312" x2="356.735" y2="174.312" gradientUnits="userSpaceOnUse">
<stop offset="0.2169" stop-color="#92CAE0"/>
<stop offset="0.4697" stop-color="#8EC7E0"/>
<stop offset="0.7047" stop-color="#83C0DF"/>
<stop offset="0.9153" stop-color="#72B4DE"/>
</linearGradient>
<linearGradient id="paint5_linear" x1="300.351" y1="266.402" x2="369.267" y2="266.402" gradientUnits="userSpaceOnUse">
<stop offset="0.2169" stop-color="#92CAE0"/>
<stop offset="0.4697" stop-color="#8EC7E0"/>
<stop offset="0.7047" stop-color="#83C0DF"/>
<stop offset="0.9153" stop-color="#72B4DE"/>
</linearGradient>
<linearGradient id="paint6_linear" x1="262.401" y1="166.271" x2="286.306" y2="166.271" gradientUnits="userSpaceOnUse">
<stop offset="0.0793651" stop-color="#422796"/>
<stop offset="0.5608" stop-color="#512DA8"/>
<stop offset="0.6727" stop-color="#5530AA"/>
<stop offset="0.7774" stop-color="#603BB1"/>
<stop offset="0.879" stop-color="#734DBC"/>
<stop offset="0.9247" stop-color="#7E57C2"/>
</linearGradient>
<linearGradient id="paint7_linear" x1="263.515" y1="165.24" x2="287.42" y2="165.24" gradientUnits="userSpaceOnUse">
<stop offset="0.2169" stop-color="#90D5E5"/>
<stop offset="0.3967" stop-color="#8CD2E2"/>
<stop offset="0.5641" stop-color="#81C9DA"/>
<stop offset="0.7266" stop-color="#6EBBCC"/>
<stop offset="0.8852" stop-color="#54A7B9"/>
<stop offset="0.9153" stop-color="#4EA2B5"/>
</linearGradient>
<linearGradient id="paint8_linear" x1="99.1468" y1="205.463" x2="230.588" y2="205.463" gradientUnits="userSpaceOnUse">
<stop stop-color="#FFC400"/>
<stop offset="1" stop-color="#FF9100"/>
</linearGradient>
<linearGradient id="paint9_linear" x1="99.1468" y1="195.646" x2="182.777" y2="195.646" gradientUnits="userSpaceOnUse">
<stop stop-color="#FFC400"/>
<stop offset="1" stop-color="#FF9100"/>
</linearGradient>
<linearGradient id="paint10_linear" x1="117.542" y1="342.941" x2="201.037" y2="342.941" gradientUnits="userSpaceOnUse">
<stop stop-color="#FFC400"/>
<stop offset="1" stop-color="#FF9100"/>
</linearGradient>
<linearGradient id="paint11_linear" x1="153.761" y1="183.241" x2="162.058" y2="183.241" gradientUnits="userSpaceOnUse">
<stop offset="0.0793651" stop-color="#422796"/>
<stop offset="0.5608" stop-color="#512DA8"/>
<stop offset="0.6727" stop-color="#5530AA"/>
<stop offset="0.7774" stop-color="#603BB1"/>
<stop offset="0.879" stop-color="#734DBC"/>
<stop offset="0.9247" stop-color="#7E57C2"/>
</linearGradient>
<linearGradient id="paint12_linear" x1="113.935" y1="197.993" x2="122.232" y2="197.993" gradientUnits="userSpaceOnUse">
<stop offset="0.0793651" stop-color="#422796"/>
<stop offset="0.5608" stop-color="#512DA8"/>
<stop offset="0.6727" stop-color="#5530AA"/>
<stop offset="0.7774" stop-color="#603BB1"/>
<stop offset="0.879" stop-color="#734DBC"/>
<stop offset="0.9247" stop-color="#7E57C2"/>
</linearGradient>
<linearGradient id="paint13_linear" x1="133.848" y1="183.241" x2="142.145" y2="183.241" gradientUnits="userSpaceOnUse">
<stop offset="0.0793651" stop-color="#422796"/>
<stop offset="0.5608" stop-color="#512DA8"/>
<stop offset="0.6727" stop-color="#5530AA"/>
<stop offset="0.7774" stop-color="#603BB1"/>
<stop offset="0.879" stop-color="#734DBC"/>
<stop offset="0.9247" stop-color="#7E57C2"/>
</linearGradient>
<linearGradient id="paint14_linear" x1="158.924" y1="214.22" x2="167.221" y2="214.22" gradientUnits="userSpaceOnUse">
<stop offset="0.0793651" stop-color="#422796"/>
<stop offset="0.5608" stop-color="#512DA8"/>
<stop offset="0.6727" stop-color="#5530AA"/>
<stop offset="0.7774" stop-color="#603BB1"/>
<stop offset="0.879" stop-color="#734DBC"/>
<stop offset="0.9247" stop-color="#7E57C2"/>
</linearGradient>
<linearGradient id="paint15_linear" x1="116.148" y1="214.22" x2="124.444" y2="214.22" gradientUnits="userSpaceOnUse">
<stop offset="0.0793651" stop-color="#422796"/>
<stop offset="0.5608" stop-color="#512DA8"/>
<stop offset="0.6727" stop-color="#5530AA"/>
<stop offset="0.7774" stop-color="#603BB1"/>
<stop offset="0.879" stop-color="#734DBC"/>
<stop offset="0.9247" stop-color="#7E57C2"/>
</linearGradient>
<linearGradient id="paint16_linear" x1="138.273" y1="214.22" x2="146.57" y2="214.22" gradientUnits="userSpaceOnUse">
<stop offset="0.0793651" stop-color="#422796"/>
<stop offset="0.5608" stop-color="#512DA8"/>
<stop offset="0.6727" stop-color="#5530AA"/>
<stop offset="0.7774" stop-color="#603BB1"/>
<stop offset="0.879" stop-color="#734DBC"/>
<stop offset="0.9247" stop-color="#7E57C2"/>
</linearGradient>
<linearGradient id="paint17_linear" x1="155.717" y1="206.289" x2="168.603" y2="206.289" gradientUnits="userSpaceOnUse">
<stop offset="0.2169" stop-color="#90D5E5"/>
<stop offset="0.3967" stop-color="#8CD2E2"/>
<stop offset="0.5641" stop-color="#81C9DA"/>
<stop offset="0.7266" stop-color="#6EBBCC"/>
<stop offset="0.8852" stop-color="#54A7B9"/>
<stop offset="0.9153" stop-color="#4EA2B5"/>
</linearGradient>
<linearGradient id="paint18_linear" x1="135.157" y1="206.289" x2="148.044" y2="206.289" gradientUnits="userSpaceOnUse">
<stop offset="0.2169" stop-color="#90D5E5"/>
<stop offset="0.3967" stop-color="#8CD2E2"/>
<stop offset="0.5641" stop-color="#81C9DA"/>
<stop offset="0.7266" stop-color="#6EBBCC"/>
<stop offset="0.8852" stop-color="#54A7B9"/>
<stop offset="0.9153" stop-color="#4EA2B5"/>
</linearGradient>
<linearGradient id="paint19_linear" x1="110.522" y1="190.825" x2="123.409" y2="190.825" gradientUnits="userSpaceOnUse">
<stop offset="0.2169" stop-color="#90D5E5"/>
<stop offset="0.3967" stop-color="#8CD2E2"/>
<stop offset="0.5641" stop-color="#81C9DA"/>
<stop offset="0.7266" stop-color="#6EBBCC"/>
<stop offset="0.8852" stop-color="#54A7B9"/>
<stop offset="0.9153" stop-color="#4EA2B5"/>
</linearGradient>
<linearGradient id="paint20_linear" x1="132.648" y1="190.825" x2="145.533" y2="190.825" gradientUnits="userSpaceOnUse">
<stop offset="0.2169" stop-color="#90D5E5"/>
<stop offset="0.3967" stop-color="#8CD2E2"/>
<stop offset="0.5641" stop-color="#81C9DA"/>
<stop offset="0.7266" stop-color="#6EBBCC"/>
<stop offset="0.8852" stop-color="#54A7B9"/>
<stop offset="0.9153" stop-color="#4EA2B5"/>
</linearGradient>
<linearGradient id="paint21_linear" x1="108.658" y1="176.838" x2="121.544" y2="176.838" gradientUnits="userSpaceOnUse">
<stop offset="0.2169" stop-color="#90D5E5"/>
<stop offset="0.3967" stop-color="#8CD2E2"/>
<stop offset="0.5641" stop-color="#81C9DA"/>
<stop offset="0.7266" stop-color="#6EBBCC"/>
<stop offset="0.8852" stop-color="#54A7B9"/>
<stop offset="0.9153" stop-color="#4EA2B5"/>
</linearGradient>
<linearGradient id="paint22_linear" x1="130.691" y1="176.838" x2="143.578" y2="176.838" gradientUnits="userSpaceOnUse">
<stop offset="0.2169" stop-color="#90D5E5"/>
<stop offset="0.3967" stop-color="#8CD2E2"/>
<stop offset="0.5641" stop-color="#81C9DA"/>
<stop offset="0.7266" stop-color="#6EBBCC"/>
<stop offset="0.8852" stop-color="#54A7B9"/>
<stop offset="0.9153" stop-color="#4EA2B5"/>
</linearGradient>
<linearGradient id="paint23_linear" x1="151.25" y1="176.838" x2="164.135" y2="176.838" gradientUnits="userSpaceOnUse">
<stop offset="0.2169" stop-color="#90D5E5"/>
<stop offset="0.3967" stop-color="#8CD2E2"/>
<stop offset="0.5641" stop-color="#81C9DA"/>
<stop offset="0.7266" stop-color="#6EBBCC"/>
<stop offset="0.8852" stop-color="#54A7B9"/>
<stop offset="0.9153" stop-color="#4EA2B5"/>
</linearGradient>
<linearGradient id="paint24_linear" x1="111.722" y1="183.241" x2="120.019" y2="183.241" gradientUnits="userSpaceOnUse">
<stop offset="0.0793651" stop-color="#422796"/>
<stop offset="0.5608" stop-color="#512DA8"/>
<stop offset="0.6727" stop-color="#5530AA"/>
<stop offset="0.7774" stop-color="#603BB1"/>
<stop offset="0.879" stop-color="#734DBC"/>
<stop offset="0.9247" stop-color="#7E57C2"/>
</linearGradient>
<linearGradient id="paint25_linear" x1="165.703" y1="185.387" x2="249.931" y2="185.387" gradientUnits="userSpaceOnUse">
<stop offset="0.2169" stop-color="#92CAE0"/>
<stop offset="0.4697" stop-color="#8EC7E0"/>
<stop offset="0.7047" stop-color="#83C0DF"/>
<stop offset="0.9153" stop-color="#72B4DE"/>
</linearGradient>
<linearGradient id="paint26_linear" x1="182.056" y1="202.188" x2="233.381" y2="202.188" gradientUnits="userSpaceOnUse">
<stop offset="0.2169" stop-color="#92CAE0"/>
<stop offset="0.4697" stop-color="#8EC7E0"/>
<stop offset="0.7047" stop-color="#83C0DF"/>
<stop offset="0.9153" stop-color="#72B4DE"/>
</linearGradient>
<linearGradient id="paint27_linear" x1="135.182" y1="165.914" x2="216.847" y2="165.914" gradientUnits="userSpaceOnUse">
<stop offset="0.2169" stop-color="#92CAE0"/>
<stop offset="0.4697" stop-color="#8EC7E0"/>
<stop offset="0.7047" stop-color="#83C0DF"/>
<stop offset="0.9153" stop-color="#72B4DE"/>
</linearGradient>
<linearGradient id="paint28_linear" x1="179.265" y1="245.148" x2="234.325" y2="245.148" gradientUnits="userSpaceOnUse">
<stop offset="0.2169" stop-color="#92CAE0"/>
<stop offset="0.4697" stop-color="#8EC7E0"/>
<stop offset="0.7047" stop-color="#83C0DF"/>
<stop offset="0.9153" stop-color="#72B4DE"/>
</linearGradient>
<linearGradient id="paint29_linear" x1="185.919" y1="243.908" x2="234.31" y2="243.908" gradientUnits="userSpaceOnUse">
<stop offset="0.2169" stop-color="#92CAE0"/>
<stop offset="0.4697" stop-color="#8EC7E0"/>
<stop offset="0.7047" stop-color="#83C0DF"/>
<stop offset="0.9153" stop-color="#72B4DE"/>
</linearGradient>
<linearGradient id="paint30_linear" x1="184.236" y1="285.881" x2="233.338" y2="285.881" gradientUnits="userSpaceOnUse">
<stop offset="0.1719" stop-color="#157897"/>
<stop offset="0.3223" stop-color="#1A7D9C"/>
<stop offset="0.5074" stop-color="#298BA9"/>
<stop offset="0.7107" stop-color="#42A1C0"/>
<stop offset="0.9206" stop-color="#64C0DE"/>
</linearGradient>
<clipPath id="clip0">
<rect width="550" height="440" fill="white"/>
</clipPath>
</defs>
</svg>
