<svg width="550" height="417" viewBox="0 0 550 417" fill="none" xmlns="http://www.w3.org/2000/svg">
<path d="M38.7 362.9C43.6 371.6 49.5 379.9 56.2 387.3C58.1 389.4 60.6 391.5 63.3 393.6H497.9C497.9 390.9 497.7 388.1 497.3 385.4C492.5 352.8 460.9 328.2 459.2 295.4C457.9 270.3 474.7 247.6 477.6 222.6C480.6 196.4 465.5 168.4 440.9 159.1C407.7 146.6 372 168.4 336.7 171.1C307.2 173.4 276.9 161.4 257 139.5C240.9 121.8 229.7 97.1 207 89.8C185.7 83 161.7 95.8 150.2 114.9C138.6 134 137.4 157.7 140.3 179.9C142.9 199.9 148.3 221.8 137.8 239C127.7 255.7 106.1 261.5 86.6 261.8C65.4 262.1 39.7 259.7 27.7 277.2C22.1 285.4 21.4 296 22 305.9C22.9 325.8 28.9 345.5 38.7 362.9Z" fill="#BEE9F4"/>
<path d="M151.6 360.6C150.9 360.4 150.5 359.6 150.7 358.9C150.9 358.2 151.7 357.8 152.4 358C153.1 358.2 153.5 359 153.3 359.7C153.1 360.3 152.6 360.7 152 360.7C151.9 360.7 151.8 360.7 151.6 360.6ZM145.3 358.4C144.6 358.1 144.2 357.3 144.5 356.6C144.8 355.9 145.6 355.5 146.3 355.8C147 356.1 147.4 356.9 147.1 357.6C146.9 358.2 146.4 358.5 145.8 358.5C145.6 358.5 145.5 358.5 145.3 358.4ZM139.1 355.9C138.4 355.6 138.1 354.8 138.4 354.1C138.7 353.4 139.5 353.1 140.2 353.4C140.9 353.7 141.2 354.5 140.9 355.2C140.7 355.7 140.2 356 139.6 356C139.4 356 139.2 356 139.1 355.9ZM133 353.1C132.3 352.8 132 351.9 132.4 351.3C132.7 350.6 133.6 350.3 134.3 350.7C135 351 135.3 351.9 134.9 352.6C134.7 353.1 134.2 353.4 133.6 353.4C133.4 353.3 133.1 353.2 133 353.1ZM127 350.1C126.3 349.7 126.1 348.9 126.4 348.2C126.8 347.5 127.6 347.3 128.3 347.6C129 348 129.2 348.8 128.9 349.5C128.7 350 128.2 350.2 127.7 350.2C127.4 350.2 127.2 350.2 127 350.1ZM121.1 346.8C120.4 346.4 120.2 345.6 120.6 344.9C121 344.2 121.8 344 122.5 344.4C123.2 344.8 123.4 345.6 123 346.3C122.7 346.7 122.3 347 121.8 347C121.6 347 121.3 346.9 121.1 346.8ZM115.4 343.2C114.8 342.8 114.6 341.9 115 341.3C115.4 340.7 116.3 340.5 116.9 340.9C117.5 341.3 117.7 342.2 117.3 342.8C117 343.2 116.6 343.4 116.1 343.4C115.9 343.4 115.7 343.3 115.4 343.2ZM109.9 339.4C109.3 339 109.1 338.1 109.6 337.5C110.1 336.9 110.9 336.7 111.5 337.2C112.1 337.6 112.3 338.5 111.8 339.1C111.5 339.5 111.1 339.7 110.7 339.7C110.4 339.6 110.2 339.5 109.9 339.4ZM104.6 335.3C104 334.8 103.9 334 104.4 333.4C104.9 332.8 105.7 332.7 106.3 333.2C106.9 333.7 107 334.6 106.5 335.2C106.2 335.5 105.8 335.7 105.4 335.7C105.1 335.6 104.8 335.5 104.6 335.3ZM99.3996 330.9C98.7996 330.4 98.7996 329.5 99.2996 328.9C99.7996 328.3 100.7 328.3 101.3 328.8C101.9 329.3 101.9 330.2 101.4 330.8C101.1 331.1 100.7 331.3 100.4 331.3C99.9996 331.3 99.6996 331.2 99.3996 330.9ZM94.4996 326.4C93.9996 325.9 93.8996 325 94.4996 324.4C94.9996 323.9 95.8996 323.8 96.4996 324.4C96.9996 324.9 97.0996 325.8 96.4996 326.4C96.1996 326.7 95.8996 326.8 95.4996 326.8C95.0996 326.8 94.7996 326.6 94.4996 326.4ZM89.7996 321.6C89.2996 321 89.2996 320.2 89.8996 319.6C90.4996 319.1 91.2996 319.1 91.8996 319.7C92.3996 320.3 92.3996 321.1 91.7996 321.7C91.4996 321.9 91.1996 322.1 90.8996 322.1C90.3996 322 90.0996 321.9 89.7996 321.6ZM85.2996 316.6C84.7996 316 84.8996 315.1 85.4996 314.6C86.0996 314.1 86.9996 314.2 87.4996 314.8C87.9996 315.4 87.8996 316.3 87.2996 316.8C86.9996 317 86.6996 317.1 86.3996 317.1C85.9996 317 85.5996 316.9 85.2996 316.6ZM81.0996 311.3C80.5996 310.7 80.7996 309.8 81.3996 309.4C81.9996 308.9 82.8996 309.1 83.2996 309.7C83.7996 310.3 83.5996 311.2 82.9996 311.6C82.6996 311.8 82.4996 311.9 82.1996 311.9C81.7996 311.9 81.3996 311.7 81.0996 311.3ZM77.1996 305.9C76.7996 305.3 76.8996 304.4 77.5996 304C78.1996 303.6 79.0996 303.7 79.4996 304.4C79.8996 305 79.7996 305.9 79.0996 306.3C78.8996 306.5 78.5996 306.5 78.2996 306.5C77.8996 306.5 77.3996 306.3 77.1996 305.9ZM73.4996 300.2C73.0996 299.5 73.2996 298.7 73.9996 298.3C74.6996 297.9 75.4996 298.1 75.8996 298.8C76.2996 299.5 76.0996 300.3 75.3996 300.7C75.1996 300.8 74.8996 300.9 74.6996 300.9C74.1996 300.9 73.7996 300.6 73.4996 300.2ZM70.1996 294.3C69.7996 293.6 70.0996 292.8 70.7996 292.4C71.4996 292 72.2996 292.3 72.6996 293C73.0996 293.7 72.7996 294.5 72.0996 294.9C71.8996 295 71.6996 295.1 71.4996 295.1C70.8996 295.1 70.4996 294.8 70.1996 294.3ZM67.1996 288.3C66.8996 287.6 67.1996 286.8 67.8996 286.5C68.5996 286.2 69.3996 286.5 69.6996 287.2C69.9996 287.9 69.6996 288.7 68.9996 289C68.7996 289.1 68.5996 289.1 68.3996 289.1C67.8996 289.1 67.3996 288.8 67.1996 288.3ZM476.2 283.1C475.6 282.6 475.6 281.7 476.1 281.1C476.6 280.5 477.5 280.5 478.1 281C478.7 281.5 478.7 282.4 478.3 283C478 283.3 477.6 283.5 477.2 283.5C476.8 283.5 476.5 283.4 476.2 283.1ZM64.5996 282.1C64.2996 281.4 64.6996 280.6 65.3996 280.3C66.0996 280 66.8996 280.4 67.1996 281.1C67.4996 281.8 67.0996 282.6 66.3996 282.9C66.1996 283 66.0996 283 65.8996 283C65.2996 283 64.7996 282.7 64.5996 282.1ZM480.5 278.1C479.9 277.6 479.8 276.7 480.3 276.1C480.8 275.5 481.7 275.4 482.3 275.9C482.9 276.4 483 277.3 482.5 277.9C482.2 278.2 481.8 278.4 481.4 278.4C481.1 278.4 480.8 278.3 480.5 278.1ZM62.2996 275.8C62.0996 275.1 62.4996 274.3 63.1996 274.1C63.8996 273.9 64.6996 274.3 64.8996 275C65.0996 275.7 64.6996 276.5 63.9996 276.7C63.8996 276.7 63.6996 276.8 63.5996 276.8C62.9996 276.7 62.4996 276.4 62.2996 275.8ZM484.8 272.9C484.2 272.4 484.1 271.5 484.6 270.9C485.1 270.3 485.9 270.2 486.5 270.7C487.1 271.2 487.2 272 486.7 272.6C486.4 272.9 486 273.1 485.6 273.1C485.3 273.2 485 273.1 484.8 272.9ZM60.3996 269.3C60.1996 268.6 60.6996 267.8 61.3996 267.6C62.0996 267.4 62.8996 267.9 63.0996 268.6C63.2996 269.3 62.7996 270.1 62.0996 270.3C61.9996 270.3 61.8996 270.3 61.7996 270.3C61.0996 270.3 60.5996 269.9 60.3996 269.3ZM488.9 267.7C488.3 267.2 488.2 266.4 488.6 265.8C489.1 265.2 489.9 265.1 490.5 265.5C491.1 266 491.2 266.8 490.8 267.4C490.5 267.8 490.1 267.9 489.7 267.9C489.4 268 489.1 267.9 488.9 267.7ZM58.9996 262.7C58.8996 261.9 59.3996 261.2 60.0996 261.1C60.7996 261 61.5996 261.5 61.6996 262.2C61.7996 263 61.2996 263.7 60.5996 263.8C60.4996 263.8 60.3996 263.8 60.2996 263.8C59.6996 263.8 59.0996 263.4 58.9996 262.7ZM492.9 262.4C492.3 262 492.1 261.1 492.6 260.5C493 259.9 493.9 259.7 494.5 260.2C495.1 260.7 495.3 261.5 494.8 262.1C494.5 262.5 494.1 262.7 493.7 262.7C493.4 262.6 493.1 262.5 492.9 262.4ZM57.9996 256C57.8996 255.2 58.3996 254.5 59.1996 254.5C59.9996 254.4 60.5996 254.9 60.6996 255.7C60.7996 256.5 60.2996 257.2 59.4996 257.2C59.3996 257.2 59.3996 257.2 59.2996 257.2C58.5996 257.3 57.9996 256.8 57.9996 256ZM496.8 257C496.2 256.6 496 255.7 496.4 255.1C496.8 254.5 497.7 254.3 498.3 254.8C498.9 255.2 499.1 256.1 498.7 256.7C498.4 257.1 498 257.3 497.6 257.3C497.3 257.2 497 257.1 496.8 257ZM500.5 251.4C499.9 251 499.7 250.1 500.1 249.5C500.5 248.9 501.4 248.7 502 249.1C502.6 249.5 502.8 250.4 502.4 251C502.1 251.4 501.7 251.6 501.2 251.6C501 251.7 500.7 251.6 500.5 251.4ZM57.3996 249.3C57.3996 248.5 57.8996 247.9 58.6996 247.8C59.4996 247.8 60.0996 248.3 60.1996 249.1C60.1996 249.9 59.6996 250.5 58.8996 250.6H58.7996C57.9996 250.6 57.3996 250.1 57.3996 249.3ZM504.1 245.8C503.4 245.4 503.2 244.6 503.6 243.9C504 243.2 504.8 243 505.5 243.4C506.2 243.8 506.4 244.7 506 245.3C505.7 245.7 505.3 246 504.8 246C504.5 246 504.3 246 504.1 245.8ZM58.4996 244C57.6996 244 57.0996 243.4 57.0996 242.6C57.0996 241.8 57.6996 241.2 58.4996 241.2C59.2996 241.2 59.8996 241.8 59.8996 242.6C59.8996 243.4 59.2996 244 58.4996 244ZM507.5 240.1C506.8 239.7 506.6 238.9 507 238.2C507.4 237.5 508.2 237.3 508.9 237.7C509.6 238.1 509.8 238.9 509.4 239.6C509.1 240.1 508.7 240.3 508.2 240.3C507.9 240.3 507.7 240.2 507.5 240.1ZM58.6996 237.3C57.8996 237.3 57.3996 236.6 57.3996 235.8C57.3996 235 58.0996 234.5 58.8996 234.5C59.6996 234.5 60.1996 235.2 60.1996 236C60.0996 236.8 59.4996 237.3 58.6996 237.3C58.7996 237.3 58.6996 237.3 58.6996 237.3ZM510.6 234.3C509.9 234 509.6 233.1 510 232.4C510.3 231.7 511.2 231.4 511.9 231.8C512.6 232.1 512.8 233 512.5 233.7C512.3 234.2 511.8 234.5 511.3 234.5C511.1 234.4 510.9 234.4 510.6 234.3ZM59.1996 230.7C58.3996 230.6 57.8996 229.9 57.9996 229.2C58.0996 228.4 58.7996 227.9 59.4996 228C60.2996 228.1 60.7996 228.8 60.6996 229.5C60.5996 230.2 59.9996 230.7 59.2996 230.7C59.3996 230.7 59.2996 230.7 59.1996 230.7ZM513.6 228.3C512.9 228 512.6 227.2 512.9 226.5C513.2 225.8 514 225.5 514.7 225.8C515.4 226.1 515.7 226.9 515.4 227.6C515.2 228.1 514.7 228.4 514.1 228.4C514 228.4 513.8 228.4 513.6 228.3ZM60.1996 224.1C59.3996 224 58.9996 223.2 59.0996 222.5C59.1996 221.8 59.9996 221.3 60.6996 221.4C61.4996 221.5 61.8996 222.3 61.7996 223C61.6996 223.7 61.0996 224.1 60.3996 224.1C60.3996 224.1 60.2996 224.1 60.1996 224.1ZM516.3 222.2C515.6 221.9 515.3 221.1 515.5 220.4C515.8 219.7 516.6 219.4 517.3 219.6C518 219.9 518.3 220.7 518.1 221.4C517.9 221.9 517.4 222.3 516.8 222.3C516.7 222.3 516.5 222.3 516.3 222.2ZM61.4996 217.6C60.7996 217.4 60.2996 216.7 60.4996 215.9C60.6996 215.2 61.3996 214.7 62.1996 214.9C62.8996 215.1 63.3996 215.8 63.1996 216.6C62.9996 217.2 62.4996 217.6 61.8996 217.6C61.6996 217.6 61.5996 217.6 61.4996 217.6ZM518.8 216C518.1 215.7 517.7 215 518 214.2C518.3 213.5 519 213.1 519.8 213.4C520.5 213.7 520.9 214.4 520.6 215.2C520.4 215.8 519.9 216.1 519.3 216.1C519.1 216.1 518.9 216.1 518.8 216ZM63.2996 211.2C62.5996 211 62.1996 210.2 62.3996 209.5C62.5996 208.8 63.3996 208.4 64.0996 208.6C64.7996 208.8 65.1996 209.6 64.9996 210.3C64.7996 210.9 64.2996 211.3 63.6996 211.3C63.4996 211.2 63.3996 211.2 63.2996 211.2ZM520.9 209.7C520.2 209.5 519.7 208.7 520 208C520.2 207.3 521 206.8 521.7 207.1C522.4 207.3 522.8 208.1 522.6 208.8C522.4 209.4 521.9 209.8 521.3 209.8C521.2 209.8 521 209.8 520.9 209.7ZM65.3996 204.9C64.6996 204.6 64.2996 203.8 64.5996 203.1C64.8996 202.4 65.6996 202 66.3996 202.3C67.0996 202.6 67.4996 203.4 67.1996 204.1C66.9996 204.6 66.4996 205 65.8996 205C65.6996 204.9 65.4996 204.9 65.3996 204.9ZM522.7 203.3C522 203.1 521.5 202.4 521.7 201.6C521.9 200.9 522.6 200.4 523.4 200.6C524.1 200.8 524.6 201.5 524.4 202.3C524.2 202.9 523.7 203.4 523.1 203.4C522.9 203.4 522.8 203.3 522.7 203.3ZM67.8996 198.7C67.1996 198.4 66.8996 197.6 67.1996 196.9C67.4996 196.2 68.2996 195.9 68.9996 196.2C69.6996 196.5 69.9996 197.3 69.6996 198C69.4996 198.5 68.9996 198.8 68.3996 198.8C68.2996 198.8 68.0996 198.8 67.8996 198.7ZM524.2 196.8C523.4 196.7 522.9 195.9 523.1 195.2C523.2 194.4 524 193.9 524.7 194.1C525.5 194.2 526 195 525.8 195.7C525.7 196.4 525.1 196.8 524.4 196.8C524.3 196.9 524.3 196.8 524.2 196.8ZM70.7996 192.7C70.0996 192.3 69.8996 191.5 70.1996 190.8C70.5996 190.1 71.3996 189.9 72.0996 190.2C72.7996 190.6 72.9996 191.4 72.6996 192.1C72.4996 192.6 71.9996 192.8 71.4996 192.8C71.1996 192.9 70.9996 192.8 70.7996 192.7ZM525.3 190.3C524.5 190.2 524 189.5 524.1 188.8C524.2 188 524.9 187.5 525.6 187.6C526.4 187.7 526.9 188.4 526.8 189.1C526.7 189.8 526.1 190.3 525.4 190.3H525.3ZM74.0996 186.9C73.4996 186.5 73.2996 185.6 73.6996 185C74.0996 184.4 74.9996 184.2 75.5996 184.6C76.1996 185 76.3996 185.9 75.9996 186.5C75.6996 186.9 75.2996 187.1 74.7996 187.1C74.5996 187.1 74.2996 187.1 74.0996 186.9ZM525.9 183.6C525.1 183.6 524.5 182.9 524.6 182.1C524.6 181.3 525.3 180.7 526.1 180.8C526.9 180.8 527.5 181.5 527.4 182.3C527.3 183.1 526.7 183.6 525.9 183.6C526 183.6 525.9 183.6 525.9 183.6ZM77.7996 181.4C77.1996 180.9 77.0996 180.1 77.4996 179.5C77.9996 178.9 78.7996 178.8 79.3996 179.2C79.9996 179.7 80.0996 180.5 79.6996 181.1C79.3996 181.5 78.9996 181.7 78.5996 181.7C78.2996 181.6 77.9996 181.6 77.7996 181.4ZM524.7 175.6C524.7 174.8 525.3 174.2 526.1 174.2C526.9 174.2 527.5 174.8 527.5 175.6C527.5 176.4 526.9 177 526.1 177C525.3 177 524.7 176.4 524.7 175.6ZM81.7996 176.1C81.1996 175.6 81.0996 174.7 81.5996 174.1C82.0996 173.5 82.9996 173.5 83.5996 173.9C84.1996 174.4 84.1996 175.3 83.6996 175.9C83.3996 176.2 82.9996 176.4 82.5996 176.4C82.3996 176.4 82.0996 176.3 81.7996 176.1ZM86.2996 171.1C85.7996 170.6 85.7996 169.7 86.2996 169.1C86.7996 168.6 87.6996 168.6 88.2996 169.1C88.7996 169.6 88.7996 170.5 88.2996 171.1C87.9996 171.4 87.6996 171.5 87.2996 171.5C86.8996 171.5 86.4996 171.4 86.2996 171.1ZM524.3 169.1C524.2 168.3 524.8 167.7 525.6 167.6C526.4 167.5 527 168.1 527.1 168.8C527.2 169.6 526.6 170.2 525.9 170.3H525.8C525 170.3 524.4 169.8 524.3 169.1ZM91.0996 166.5C90.5996 165.9 90.6996 165 91.1996 164.5C91.7996 164 92.6996 164.1 93.1996 164.6C93.6996 165.2 93.5996 166.1 93.0996 166.6C92.7996 166.8 92.4996 166.9 92.1996 166.9C91.6996 167 91.2996 166.8 91.0996 166.5ZM523.4 162.6C523.3 161.8 523.8 161.1 524.5 161C525.3 160.9 526 161.4 526.1 162.1C526.2 162.9 525.7 163.6 525 163.7C524.9 163.7 524.8 163.7 524.8 163.7C524.2 163.7 523.6 163.3 523.4 162.6ZM96.1996 162.3C95.6996 161.7 95.8996 160.8 96.4996 160.4C97.0996 159.9 97.9996 160.1 98.3996 160.7C98.8996 161.3 98.6996 162.2 98.0996 162.6C97.8996 162.8 97.5996 162.9 97.2996 162.9C96.8996 162.9 96.4996 162.7 96.1996 162.3ZM101.6 158.5C101.2 157.8 101.4 157 102 156.6C102.7 156.2 103.5 156.4 103.9 157C104.3 157.7 104.1 158.5 103.5 158.9C103.3 159 103 159.1 102.8 159.1C102.4 159.1 101.9 158.9 101.6 158.5ZM522.2 156.2C522 155.5 522.5 154.7 523.2 154.5C523.9 154.3 524.7 154.8 524.9 155.5C525.1 156.2 524.6 157 523.9 157.2C523.8 157.2 523.7 157.2 523.6 157.2C522.9 157.2 522.3 156.8 522.2 156.2ZM107.4 155.1C107 154.4 107.3 153.6 108 153.2C108.7 152.8 109.5 153.1 109.9 153.8C110.3 154.5 110 155.3 109.3 155.7C109.1 155.8 108.9 155.9 108.6 155.9C108.1 155.8 107.6 155.5 107.4 155.1ZM113.3 152C113 151.3 113.3 150.5 113.9 150.1C114.6 149.8 115.4 150.1 115.8 150.7C116.1 151.4 115.8 152.2 115.2 152.6C115 152.7 114.8 152.7 114.6 152.7C114 152.8 113.5 152.5 113.3 152ZM520.4 149.8C520.2 149.1 520.6 148.3 521.3 148.1C522 147.9 522.8 148.3 523 149C523.2 149.7 522.8 150.5 522.1 150.7C522 150.7 521.8 150.8 521.7 150.8C521.2 150.8 520.6 150.4 520.4 149.8ZM119.3 149.1C119 148.4 119.3 147.6 120 147.3C120.7 147 121.5 147.3 121.8 148C122.1 148.7 121.8 149.5 121.1 149.8C120.9 149.9 120.7 149.9 120.5 149.9C120 150 119.5 149.7 119.3 149.1ZM125.4 146.4C125.1 145.7 125.4 144.9 126.1 144.6C126.8 144.3 127.6 144.6 127.9 145.3C128.2 146 127.9 146.8 127.2 147.1C127 147.2 126.8 147.2 126.6 147.2C126.1 147.2 125.6 146.9 125.4 146.4ZM131.4 143.7C131.1 143 131.4 142.2 132.1 141.9C132.8 141.6 133.6 141.9 133.9 142.6C134.2 143.3 133.9 144.1 133.2 144.4C133 144.5 132.8 144.5 132.6 144.5C132.2 144.5 131.7 144.2 131.4 143.7ZM518.2 143.6C517.9 142.9 518.3 142.1 519 141.8C519.7 141.5 520.5 141.9 520.8 142.6C521.1 143.3 520.7 144.1 520 144.4C519.8 144.5 519.7 144.5 519.5 144.5C519 144.5 518.5 144.2 518.2 143.6ZM137.5 140.9C137.2 140.2 137.4 139.4 138.1 139C138.8 138.7 139.6 138.9 140 139.6C140.3 140.3 140 141.1 139.4 141.5C139.2 141.6 139 141.6 138.8 141.6C138.2 141.7 137.7 141.4 137.5 140.9ZM143.4 138C143 137.3 143.3 136.5 144 136.1C144.7 135.7 145.5 136 145.9 136.7C146.3 137.4 146 138.2 145.3 138.6C145.1 138.7 144.9 138.8 144.6 138.8C144.2 138.7 143.7 138.4 143.4 138ZM515.6 137.7C515.3 137 515.6 136.2 516.2 135.8C516.9 135.5 517.7 135.8 518.1 136.4C518.4 137.1 518.1 137.9 517.5 138.3C517.3 138.4 517.1 138.4 516.9 138.4C516.3 138.4 515.8 138.1 515.6 137.7ZM149.2 134.7C148.8 134 149 133.2 149.6 132.8C150.2 132.4 151.1 132.6 151.5 133.2C151.9 133.8 151.7 134.7 151.1 135.1C150.9 135.2 150.6 135.3 150.4 135.3C150 135.4 149.5 135.1 149.2 134.7ZM512.5 131.9C512.1 131.2 512.3 130.4 513 130C513.7 129.6 514.5 129.8 514.9 130.5C515.3 131.2 515.1 132 514.4 132.4C514.2 132.5 513.9 132.6 513.7 132.6C513.3 132.6 512.8 132.3 512.5 131.9ZM154.8 131.1C154.4 130.5 154.5 129.6 155.1 129.2C155.7 128.8 156.6 128.9 157 129.5C157.4 130.1 157.3 131 156.7 131.4C156.5 131.6 156.2 131.7 155.9 131.7C155.5 131.7 155.1 131.5 154.8 131.1ZM160.2 127.1C159.7 126.5 159.8 125.6 160.4 125.2C161 124.7 161.9 124.8 162.4 125.4C162.9 126 162.8 126.9 162.2 127.3C161.9 127.5 161.6 127.6 161.3 127.6C160.8 127.6 160.4 127.4 160.2 127.1ZM509 126.4C508.6 125.8 508.7 124.9 509.3 124.5C509.9 124.1 510.8 124.2 511.2 124.8C511.6 125.4 511.5 126.3 510.9 126.7C510.7 126.9 510.4 126.9 510.1 126.9C509.7 127 509.3 126.8 509 126.4ZM165.2 122.8C164.7 122.2 164.7 121.4 165.3 120.8C165.9 120.3 166.7 120.3 167.3 120.9C167.8 121.5 167.8 122.3 167.2 122.9C166.9 123.1 166.6 123.3 166.3 123.3C165.9 123.2 165.5 123.1 165.2 122.8ZM505 121.2C504.5 120.6 504.6 119.7 505.2 119.2C505.8 118.7 506.7 118.8 507.2 119.4C507.7 120 507.6 120.9 507 121.4C506.7 121.6 506.4 121.7 506.1 121.7C505.7 121.7 505.3 121.5 505 121.2ZM170 118.2C169.4 117.7 169.4 116.8 169.9 116.2C170.4 115.6 171.3 115.6 171.9 116.1C172.5 116.6 172.5 117.5 172 118.1C171.7 118.4 171.4 118.5 171 118.5C170.6 118.5 170.3 118.4 170 118.2ZM500.6 116.4C500.1 115.9 500 115 500.6 114.4C501.1 113.9 502 113.8 502.6 114.4C503.1 114.9 503.2 115.8 502.6 116.4C502.3 116.7 502 116.8 501.6 116.8C501.2 116.8 500.9 116.7 500.6 116.4ZM174.5 113.2C173.9 112.7 173.8 111.8 174.3 111.2C174.8 110.6 175.7 110.5 176.3 111C176.9 111.5 177 112.4 176.5 113C176.2 113.3 175.8 113.5 175.4 113.5C175.1 113.6 174.8 113.5 174.5 113.2ZM495.7 112.1C495.1 111.6 495 110.7 495.5 110.1C496 109.5 496.9 109.4 497.5 109.9C498.1 110.4 498.2 111.3 497.7 111.9C497.4 112.2 497 112.4 496.6 112.4C496.3 112.4 496 112.3 495.7 112.1ZM490.4 108.3C489.8 107.9 489.6 107 490 106.4C490.4 105.8 491.3 105.6 491.9 106C492.5 106.4 492.7 107.3 492.3 107.9C492 108.3 491.6 108.5 491.1 108.5C490.9 108.5 490.7 108.5 490.4 108.3ZM178.7 108C178.1 107.6 177.9 106.7 178.4 106.1C178.9 105.5 179.7 105.3 180.3 105.8C180.9 106.2 181.1 107.1 180.6 107.7C180.3 108.1 179.9 108.3 179.5 108.3C179.2 108.3 178.9 108.2 178.7 108ZM484.8 105.1C484.1 104.8 483.8 103.9 484.2 103.2C484.5 102.5 485.4 102.2 486.1 102.6C486.8 102.9 487.1 103.8 486.7 104.5C486.5 105 486 105.3 485.5 105.3C485.2 105.2 485 105.2 484.8 105.1ZM182.5 102.6C181.9 102.2 181.7 101.3 182.1 100.7C182.5 100.1 183.4 99.9 184 100.3C184.6 100.7 184.8 101.6 184.4 102.2C184.1 102.6 183.7 102.8 183.2 102.8C183 102.8 182.7 102.7 182.5 102.6ZM478.8 102.5C478.1 102.2 477.7 101.4 478 100.7C478.3 100 479.1 99.6 479.8 99.9C480.5 100.2 480.9 101 480.6 101.7C480.4 102.3 479.9 102.6 479.3 102.6C479.1 102.6 479 102.6 478.8 102.5ZM472.6 100.6C471.9 100.4 471.4 99.7 471.6 98.9C471.8 98.2 472.5 97.7 473.3 97.9C474 98.1 474.5 98.8 474.3 99.6C474.1 100.2 473.6 100.6 473 100.6C472.8 100.7 472.7 100.7 472.6 100.6ZM406.6 100.2C405.8 100.2 405.2 99.6 405.2 98.8C405.2 98 405.8 97.4 406.6 97.4C407.4 97.4 408 98 408 98.8C408 99.6 407.4 100.2 406.6 100.2C405.8 100.2 406.6 100.2 406.6 100.2ZM411.9 98.7C411.9 97.9 412.5 97.3 413.2 97.3C414 97.3 414.6 97.9 414.6 98.6C414.6 99.4 414 100 413.3 100C413.3 100 413.3 100 413.2 100C412.5 100 411.9 99.5 411.9 98.7ZM399.9 100C399.1 100 398.5 99.3 398.6 98.5C398.6 97.7 399.3 97.1 400.1 97.2C400.9 97.2 401.5 97.9 401.4 98.7C401.3 99.5 400.7 100 399.9 100ZM418.5 98.4C418.5 97.6 419 97 419.8 96.9C420.6 96.9 421.2 97.4 421.3 98.2C421.3 99 420.8 99.6 420 99.7H419.9C419.2 99.7 418.6 99.1 418.5 98.4ZM393.2 99.5C392.4 99.4 391.9 98.7 392 98C392.1 97.2 392.8 96.7 393.5 96.8C394.3 96.9 394.8 97.6 394.7 98.3C394.6 99 394 99.5 393.3 99.5H393.2ZM466.2 99.3C465.4 99.2 464.9 98.5 465.1 97.7C465.2 96.9 465.9 96.4 466.7 96.6C467.5 96.7 468 97.4 467.8 98.2C467.7 98.9 467.1 99.4 466.4 99.4C466.3 99.3 466.3 99.3 466.2 99.3ZM425.2 98C425.1 97.2 425.7 96.6 426.5 96.5C427.3 96.4 427.9 97 428 97.8C428.1 98.6 427.5 99.2 426.7 99.3H426.6C425.8 99.3 425.2 98.7 425.2 98ZM431.8 97.5C431.7 96.7 432.3 96.1 433.1 96C433.9 96 434.5 96.5 434.6 97.3C434.6 98.1 434.1 98.7 433.3 98.8H433.2C432.5 98.8 431.9 98.3 431.8 97.5ZM459.7 98.5C458.9 98.4 458.4 97.8 458.4 97C458.5 96.2 459.1 95.7 459.9 95.7C460.7 95.8 461.2 96.4 461.2 97.2C461.1 97.9 460.5 98.5 459.8 98.5H459.7ZM386.5 98.4C385.7 98.2 385.3 97.5 385.4 96.8C385.5 96.1 386.3 95.6 387 95.7C387.8 95.9 388.2 96.6 388.1 97.3C388 98 387.4 98.4 386.7 98.4C386.7 98.4 386.6 98.4 386.5 98.4ZM438.4 97.1C438.4 96.3 439 95.7 439.7 95.6C440.5 95.6 441.1 96.1 441.2 96.9C441.2 97.7 440.6 98.3 439.9 98.4C439.9 98.4 439.9 98.4 439.8 98.4C439.1 98.4 438.5 97.8 438.4 97.1ZM453.1 98.2C452.3 98.2 451.7 97.5 451.7 96.8C451.7 96 452.4 95.4 453.1 95.4C453.9 95.4 454.5 96.1 454.5 96.8C454.5 97.6 453.9 98.2 453.1 98.2ZM445.1 96.8C445.1 96 445.7 95.4 446.5 95.4C447.3 95.4 447.9 96 447.9 96.8C447.9 97.6 447.3 98.2 446.5 98.2C445.7 98.2 445.1 97.6 445.1 96.8ZM185.9 96.9C185.2 96.5 185 95.7 185.4 95C185.8 94.3 186.6 94.1 187.3 94.5C188 94.9 188.2 95.7 187.9 96.4C187.6 96.9 187.2 97.1 186.7 97.1C186.4 97.1 186.2 97 185.9 96.9ZM379.9 96.8C379.2 96.6 378.8 95.8 379 95.1C379.2 94.4 380 94 380.7 94.2C381.4 94.4 381.8 95.2 381.6 95.9C381.4 96.5 380.9 96.9 380.3 96.9C380.2 96.8 380 96.8 379.9 96.8ZM373.5 94.5C372.8 94.2 372.5 93.4 372.8 92.7C373.1 92 373.9 91.7 374.6 92C375.3 92.3 375.6 93.1 375.3 93.8C375.1 94.3 374.6 94.6 374 94.6C373.9 94.6 373.7 94.5 373.5 94.5ZM367.4 91.5C366.7 91.1 366.5 90.3 366.8 89.6C367.2 88.9 368 88.7 368.7 89C369.4 89.4 369.6 90.2 369.3 90.9C369 91.4 368.6 91.6 368.1 91.6C367.8 91.7 367.6 91.6 367.4 91.5ZM189 91C188.3 90.7 188 89.9 188.3 89.2C188.6 88.5 189.4 88.2 190.1 88.5C190.8 88.8 191.1 89.6 190.8 90.3C190.6 90.8 190.1 91.1 189.5 91.1C189.4 91.1 189.2 91.1 189 91ZM361.6 88.1C361 87.7 360.8 86.8 361.2 86.2C361.6 85.6 362.5 85.4 363.1 85.8C363.7 86.2 363.9 87.1 363.5 87.7C363.2 88.1 362.8 88.3 362.3 88.3C362.1 88.3 361.8 88.2 361.6 88.1ZM191.7 84.9C191 84.6 190.6 83.8 190.9 83.1C191.2 82.4 192 82 192.7 82.3C193.4 82.6 193.8 83.4 193.5 84.1C193.3 84.6 192.8 85 192.2 85C192.1 85 191.9 85 191.7 84.9ZM356.1 84.1C355.5 83.6 355.4 82.8 355.9 82.2C356.4 81.6 357.2 81.5 357.8 81.9C358.4 82.4 358.5 83.2 358 83.8C357.7 84.2 357.3 84.3 356.9 84.3C356.6 84.4 356.3 84.3 356.1 84.1ZM350.9 79.8C350.3 79.3 350.3 78.4 350.8 77.8C351.3 77.2 352.2 77.2 352.8 77.7C353.4 78.2 353.4 79.1 352.9 79.7C352.6 80 352.2 80.2 351.9 80.2C351.5 80.2 351.1 80.1 350.9 79.8ZM194.1 78.7C193.4 78.4 193 77.7 193.3 76.9C193.5 76.2 194.3 75.8 195.1 76.1C195.8 76.3 196.2 77.1 195.9 77.9C195.7 78.5 195.2 78.8 194.6 78.8C194.4 78.8 194.3 78.8 194.1 78.7ZM345.9 75.2C345.4 74.7 345.3 73.8 345.9 73.2C346.4 72.7 347.3 72.6 347.9 73.2C348.4 73.7 348.5 74.6 347.9 75.2C347.6 75.5 347.3 75.6 346.9 75.6C346.6 75.6 346.2 75.5 345.9 75.2ZM196.3 72.4C195.6 72.2 195.2 71.4 195.4 70.7C195.6 70 196.4 69.6 197.1 69.8C197.8 70 198.2 70.8 198 71.5C197.8 72.1 197.3 72.5 196.7 72.5C196.5 72.5 196.4 72.5 196.3 72.4ZM341.3 70.4C340.8 69.8 340.8 69 341.4 68.4C342 67.9 342.8 67.9 343.4 68.5C343.9 69.1 343.9 69.9 343.3 70.5C343 70.7 342.7 70.9 342.4 70.9C341.9 70.9 341.5 70.7 341.3 70.4ZM198.3 66.1C197.6 65.9 197.2 65.1 197.4 64.4C197.6 63.7 198.4 63.3 199.1 63.5C199.8 63.7 200.2 64.5 200 65.2C199.8 65.8 199.3 66.2 198.7 66.2C198.5 66.1 198.4 66.1 198.3 66.1ZM336.8 65.4C336.3 64.8 336.4 63.9 336.9 63.4C337.5 62.9 338.4 63 338.9 63.5C339.4 64.1 339.3 65 338.8 65.5C338.5 65.7 338.2 65.8 337.9 65.8C337.4 65.9 337 65.8 336.8 65.4ZM332.4 60.3C331.9 59.7 332 58.8 332.6 58.3C333.2 57.8 334.1 57.9 334.5 58.5C335 59.1 334.9 60 334.3 60.5C334 60.7 333.7 60.8 333.4 60.8C333.1 60.8 332.7 60.7 332.4 60.3ZM200.2 59.7C199.5 59.5 199.1 58.7 199.3 58C199.5 57.3 200.3 56.9 201 57.1C201.7 57.3 202.1 58.1 201.9 58.8C201.7 59.4 201.2 59.8 200.6 59.8C200.5 59.8 200.4 59.8 200.2 59.7ZM328.2 55.1C327.7 54.5 327.8 53.6 328.4 53.2C329 52.7 329.9 52.8 330.3 53.4C330.8 54 330.7 54.9 330.1 55.3C329.8 55.5 329.5 55.6 329.2 55.6C328.9 55.7 328.5 55.5 328.2 55.1ZM202.2 53.4C201.5 53.2 201.1 52.4 201.3 51.6C201.5 50.9 202.3 50.5 203.1 50.7C203.8 50.9 204.2 51.7 204 52.5C203.8 53.1 203.3 53.5 202.7 53.5C202.5 53.4 202.4 53.4 202.2 53.4ZM324.1 49.9C323.6 49.3 323.7 48.4 324.3 48C324.9 47.5 325.8 47.6 326.2 48.2C326.7 48.8 326.6 49.7 326 50.2C325.7 50.4 325.4 50.5 325.1 50.5C324.8 50.5 324.4 50.3 324.1 49.9ZM204.4 47.1C203.7 46.8 203.3 46 203.6 45.3C203.9 44.6 204.7 44.2 205.4 44.5C206.1 44.8 206.5 45.6 206.2 46.3C206 46.9 205.5 47.2 204.9 47.2C204.7 47.1 204.5 47.1 204.4 47.1ZM319.9 44.7C319.4 44.1 319.5 43.2 320.1 42.8C320.7 42.3 321.6 42.4 322.1 43C322.6 43.6 322.5 44.5 321.9 44.9C321.6 45.1 321.3 45.2 321 45.2C320.6 45.3 320.2 45.1 319.9 44.7ZM206.8 40.8C206.1 40.5 205.8 39.7 206.1 39C206.4 38.3 207.2 38 207.9 38.3C208.6 38.6 208.9 39.4 208.6 40.1C208.4 40.6 207.9 40.9 207.3 40.9C207.1 41 206.9 40.9 206.8 40.8ZM315.8 39.6C315.3 39 315.4 38.1 316 37.6C316.6 37.1 317.5 37.2 318 37.8C318.5 38.4 318.4 39.3 317.8 39.8C317.5 40 317.2 40.1 316.9 40.1C316.4 40.1 316 39.9 315.8 39.6ZM311.5 34.6C311 34 311.1 33.1 311.6 32.6C312.2 32.1 313.1 32.2 313.6 32.7C314.1 33.3 314 34.2 313.5 34.7C313.2 34.9 312.9 35 312.6 35C312.1 35 311.7 34.9 311.5 34.6ZM209.5 34.8C208.8 34.5 208.5 33.6 208.9 32.9C209.2 32.2 210.1 31.9 210.8 32.3C211.5 32.6 211.8 33.5 211.4 34.2C211.2 34.7 210.7 35 210.2 35C209.9 34.9 209.7 34.9 209.5 34.8ZM307 29.7C306.5 29.1 306.5 28.3 307.1 27.7C307.7 27.2 308.5 27.2 309.1 27.8C309.6 28.4 309.6 29.2 309 29.8C308.7 30.1 308.4 30.2 308 30.2C307.7 30.1 307.3 29.9 307 29.7ZM212.6 28.9C211.9 28.5 211.7 27.7 212.1 27C212.5 26.3 213.3 26.1 214 26.5C214.7 26.9 214.9 27.8 214.5 28.4C214.2 28.8 213.8 29.1 213.3 29.1C213.1 29.1 212.8 29 212.6 28.9ZM302.4 25C301.8 24.5 301.8 23.6 302.4 23C302.9 22.5 303.8 22.4 304.4 23C304.9 23.5 305 24.4 304.4 25C304.1 25.3 303.8 25.4 303.4 25.4C303 25.4 302.7 25.2 302.4 25ZM216.2 23.3C215.6 22.9 215.4 22 215.9 21.4C216.3 20.8 217.2 20.6 217.8 21.1C218.4 21.5 218.6 22.4 218.1 23C217.8 23.4 217.4 23.6 217 23.6C216.7 23.6 216.4 23.5 216.2 23.3ZM297.6 20.5C297 20 297 19.1 297.5 18.5C298 17.9 298.9 17.9 299.5 18.4C300.1 18.9 300.1 19.8 299.6 20.4C299.3 20.7 298.9 20.9 298.6 20.9C298.1 20.9 297.8 20.8 297.6 20.5ZM220.3 18C219.7 17.5 219.7 16.6 220.2 16C220.7 15.4 221.6 15.4 222.2 15.9C222.8 16.4 222.8 17.3 222.3 17.9C222 18.2 221.7 18.4 221.3 18.4C220.9 18.4 220.5 18.3 220.3 18ZM292.4 16.4C291.8 15.9 291.7 15.1 292.1 14.5C292.6 13.9 293.4 13.8 294 14.2C294.6 14.7 294.7 15.5 294.3 16.1C294 16.5 293.6 16.7 293.2 16.7C293 16.7 292.7 16.6 292.4 16.4ZM224.9 13.2C224.4 12.6 224.5 11.7 225 11.2C225.6 10.7 226.5 10.8 227 11.3C227.5 11.9 227.4 12.8 226.9 13.3C226.6 13.5 226.3 13.6 226 13.6C225.5 13.7 225.1 13.5 224.9 13.2ZM287 12.7C286.4 12.3 286.2 11.4 286.6 10.8C287 10.2 287.9 10 288.5 10.4C289.1 10.8 289.3 11.7 288.9 12.3C288.6 12.7 288.2 13 287.7 13C287.5 12.9 287.3 12.9 287 12.7ZM230.1 9.10002C229.7 8.50002 229.9 7.60002 230.5 7.20002C231.1 6.80001 232 7.00002 232.4 7.60002C232.8 8.20002 232.6 9.10002 232 9.50002C231.8 9.60002 231.5 9.70002 231.2 9.70002C230.8 9.70002 230.3 9.50002 230.1 9.10002ZM281.4 9.50002C280.7 9.20002 280.4 8.30002 280.8 7.60002C281.1 6.90002 282 6.60002 282.7 7.00002C283.4 7.30002 283.7 8.20002 283.3 8.90001C283.1 9.40001 282.6 9.70002 282.1 9.70002C281.8 9.70002 281.6 9.60002 281.4 9.50002ZM275.4 6.90002C274.7 6.60002 274.3 5.80001 274.6 5.10002C274.9 4.40002 275.7 4.00002 276.4 4.30002C277.1 4.60002 277.5 5.40002 277.2 6.10002C277 6.60002 276.5 7.00002 275.9 7.00002C275.7 7.00002 275.6 6.90002 275.4 6.90002ZM235.8 5.70002C235.5 5.00002 235.8 4.20002 236.5 3.90002C237.2 3.60002 238 3.90002 238.3 4.60002C238.6 5.30001 238.3 6.10002 237.6 6.40002C237.4 6.50002 237.2 6.50002 237 6.50002C236.5 6.50002 236 6.20002 235.8 5.70002ZM269.2 4.80002C268.5 4.60002 268 3.80002 268.2 3.10002C268.4 2.40002 269.2 1.90002 269.9 2.10002C270.6 2.30002 271.1 3.10002 270.9 3.80002C270.7 4.40002 270.2 4.80002 269.6 4.80002C269.5 4.80002 269.3 4.80002 269.2 4.80002ZM242 3.20002C241.8 2.50002 242.2 1.70002 243 1.50002C243.7 1.30002 244.5 1.70002 244.7 2.50002C244.9 3.20002 244.5 4.00002 243.7 4.20002C243.6 4.20002 243.5 4.20002 243.3 4.20002C242.7 4.20002 242.1 3.80002 242 3.20002ZM262.9 3.40002C262.1 3.30002 261.6 2.60002 261.7 1.80002C261.8 1.00002 262.5 0.500015 263.3 0.700015C264.1 0.800015 264.6 1.50002 264.4 2.30002C264.3 3.00002 263.7 3.50002 263 3.50002C263 3.40002 263 3.40002 262.9 3.40002ZM248.5 1.80002C248.4 1.00002 249 0.400015 249.7 0.300015C250.5 0.200015 251.1 0.800015 251.2 1.50002C251.3 2.30002 250.7 2.90002 250 3.00002H249.9C249.1 3.00002 248.5 2.50002 248.5 1.80002ZM256.4 2.80002C255.6 2.80002 255 2.10002 255.1 1.40002C255.1 0.600015 255.8 1.51768e-05 256.5 0.100015C257.3 0.100015 257.9 0.800015 257.8 1.50002C257.8 2.20002 257.2 2.80002 256.4 2.80002C256.5 2.80002 256.4 2.80002 256.4 2.80002Z" fill="#5CB1BF"/>
<path d="M494.6 255.4C486.8 273 495.9 293 497 312.2C497.3 316.6 497 321.1 496.3 325.5C495.2 332.6 493 339.6 489.7 346C488.7 348 487.6 349.9 486.4 351.8C482 358.8 476.4 365.1 469.9 370.1C469 370.8 468.1 371.4 467.2 372.1C464.4 374 461.5 375.7 458.4 377.2C455 382.1 451.9 386.2 448.4 390C447.7 390.8 446.9 391.6 446.2 392.4C443.2 395.5 439.9 398.5 436.1 401.7L436 401.8C434.1 401.9 432.2 401.8 430.4 401.5C423 400.4 416.2 396.5 410.3 391.2C409.3 390.3 408.3 389.3 407.3 388.4C406.9 388 406.5 387.5 406 387.1C405.6 386.7 405.2 386.2 404.8 385.8C404.5 385.5 404.2 385.2 403.9 384.8C400.7 381.1 397.9 377.1 395.4 373.1C390.2 364.7 385.6 355.6 384.3 345.8C383 336 385.3 325.3 392.3 318.2C401.8 308.6 418.3 307 425.1 295.4C432 283.5 424.9 268.1 428.4 254.8C431.9 241.8 444.5 233.7 456.4 227.5C468.3 221.3 481.4 214.9 487.4 202.8C489.8 197.9 490.8 192.4 493.3 187.5C495.7 182.6 500.2 178.1 505.7 178.2C512.8 178.2 517.5 185.6 519.3 192.5C522.6 205.2 520.3 219.3 513.2 230.3C507.6 238.7 498.9 245.7 494.6 255.4Z" fill="#5CB1BF"/>
<path opacity="0.3" d="M461.1 258.6L487.9 251.3C488.8 251 489.8 251.6 490.1 252.6C490.4 253.5 489.8 254.5 488.8 254.8L459.3 262.8C456.5 270.9 457.4 279.6 458.4 288.9C458.9 293.5 459.4 298.4 459.4 303C459.4 306.6 459.1 310.2 458.4 313.8C465.9 307.8 472.6 300.8 478.5 293.2C479.1 292.4 480.2 292.3 481 292.9C481.8 293.5 481.9 294.6 481.3 295.4C474.5 304.4 466.4 312.3 457.5 319.1C457.4 319.2 457.3 319.2 457.2 319.3C456.8 321 456.2 322.6 455.6 324.3C453.3 330.7 450 336.8 445.7 342.2C442 346.9 437.6 351.1 433.3 355.1C428.9 359.3 424.3 363.6 420.6 368.4C418.4 371.3 416.5 374.4 414.9 377.7C414.1 379.3 413.4 380.9 412.8 382.5C411.8 385.3 411 388.1 410.4 391C410.1 392.7 409.8 394.5 409.6 396.3C408.5 395.8 407.3 395.3 406.2 394.7C406.5 392.5 406.9 390.3 407.4 388.2C407.6 387.3 407.9 386.5 408.1 385.6C408.5 384.1 409.1 382.5 409.6 381C411.6 375.7 414.3 370.7 417.7 366.3C418.5 365.3 419.3 364.3 420.1 363.3C419.3 361.8 418.6 360.2 418 358.7C415.1 351.8 413.6 344.3 413.4 336.8C413.4 335.8 414.2 335 415.1 335C416.1 335 416.9 335.8 416.9 336.7C417 342.9 418.2 349.1 420.3 354.9C421 356.8 421.8 358.7 422.7 360.5C425.3 357.7 428 355.1 430.7 352.6C434.9 348.7 439.2 344.6 442.7 340.1C442.9 339.9 443.1 339.6 443.2 339.4C442.1 337.3 441 335.2 440 333.1C436.2 324.6 433.8 315.5 433 306.3C432.9 305.3 433.6 304.5 434.6 304.4C435.6 304.3 436.4 305 436.5 306C437.3 314.6 439.5 323.1 442.9 331C443.7 332.8 444.5 334.5 445.4 336.2C447.5 333.1 449.2 329.9 450.7 326.4C453.8 319.1 455.5 311.2 455.5 303.2C455.5 298.7 455 294.1 454.6 289.6C445.5 280.3 439.6 268 438.2 255.1C438.1 254.1 438.8 253.2 439.8 253.1C440.8 253 441.7 253.7 441.8 254.7C443 265.3 447.3 275.5 454.1 283.7C453.4 275.4 453.3 267 456.8 259.3C460.9 250.1 469 244 476.9 238C477.8 237.3 478.7 236.6 479.6 236L481.7 218.6C481.8 217.6 482.7 216.9 483.7 217.1C484.7 217.2 485.4 218.1 485.2 219.1L483.5 232.9C492.7 225 497.3 217.5 497.5 209.9C497.5 208.9 498.3 208.1 499.3 208.2C500.3 208.2 501.1 209 501 210C500.8 219.6 494.8 228.8 482.6 238.3C481.4 239.2 480.2 240.2 479 241.1C472.2 245.8 465.1 251.2 461.1 258.6Z" fill="#157897"/>
<path d="M542.1 329.7C526.6 353 508.7 376 484.1 389.3C469.9 396.9 452.8 401.7 436.2 401.5C434.3 401.5 432.4 401.4 430.5 401.2C423.2 400.6 416.2 399 409.6 396.2C408.5 395.7 407.3 395.2 406.2 394.6C404.8 393.9 403.4 393.1 402.1 392.3C402.7 391 403.2 389.7 403.7 388.3C404.1 387.3 404.5 386.4 404.9 385.4C405.2 384.7 405.5 384 405.8 383.3C409.4 374.8 413.3 366.4 418 358.5C418.8 357.2 419.5 356 420.3 354.7C422.5 351.3 424.8 348 427.4 344.9C431.1 340.4 435.4 336.3 440 332.8C441 332.1 441.9 331.4 442.9 330.7C445.4 329 448 327.5 450.7 326.2C452.2 325.5 453.7 324.8 455.3 324.2C461.1 322 467.3 320.7 473.7 320.8C481.4 320.9 488.8 323 496.2 325.4C500 326.6 503.8 328 507.7 329.1C519 332.5 531.4 334.6 542.1 329.7Z" fill="#83CFDB"/>
<path opacity="0.3" d="M517.299 341.5C517.399 342.3 516.899 343.1 515.999 343.2C506.799 344.7 497.699 346.7 488.799 349.2L512.399 356.8C513.199 357 513.599 357.9 513.399 358.7C513.199 359.5 512.299 359.9 511.499 359.7L486.499 351.7L483.999 350.9C483.899 350.9 483.799 350.8 483.699 350.7C473.999 353.5 464.399 356.9 454.999 360.8C459.899 364.1 464.899 367.1 469.999 370C474.599 372.6 479.199 374.9 483.999 377.1C484.799 377.4 485.099 378.3 484.699 379.1C484.399 379.9 483.399 380.2 482.699 379.8C477.499 377.4 472.299 374.8 467.299 371.9C461.899 368.9 456.699 365.6 451.699 362.2C446.299 364.5 440.999 367 435.799 369.6C435.599 369.8 435.399 369.9 435.099 369.9C430.999 372 426.999 374.1 422.999 376.4C431.099 381.7 439.599 386.2 448.599 389.8C448.899 389.9 449.099 390 449.399 390.1C450.199 390.4 450.599 391.3 450.199 392.1C449.899 392.9 448.999 393.3 448.299 392.9C447.699 392.7 446.999 392.4 446.399 392.1C437.199 388.4 428.299 383.6 420.099 378.1C417.699 379.5 415.399 380.9 412.999 382.4C411.399 383.4 409.799 384.4 408.299 385.4C407.599 385.8 406.999 386.2 406.299 386.7C405.499 387.2 404.699 387.8 403.899 388.3C404.299 387.3 404.699 386.4 405.099 385.4C404.799 385.1 404.499 384.8 404.199 384.4C404.799 384 405.399 383.6 405.999 383.2C407.299 382.4 408.499 381.5 409.799 380.7C411.499 379.6 413.299 378.5 415.099 377.4C416.399 376.6 417.799 375.8 419.199 375C419.299 374.9 419.499 374.8 419.699 374.7C424.299 372 428.999 369.5 433.699 367.1C437.899 356.1 444.199 345.8 452.199 337.1C452.799 336.5 453.699 336.5 454.299 337C454.899 337.6 454.999 338.5 454.399 339.1C447.499 346.6 441.799 355.5 437.799 365C447.099 360.4 456.699 356.4 466.399 352.9C466.399 352.8 466.499 352.8 466.499 352.7C473.099 344.5 480.499 336.8 488.499 329.8C489.099 329.2 490.099 329.3 490.599 329.9C491.199 330.5 491.099 331.5 490.499 332C483.899 337.8 477.599 344.2 471.899 351C477.799 349 483.899 347.2 489.899 345.6C498.399 343.3 506.999 341.5 515.699 340C516.399 340.2 517.099 340.7 517.299 341.5Z" fill="#157897"/>
<path d="M184.3 360.8C180.3 372.2 172.7 382 164.5 390.8C160.6 395 156.2 399.1 151.5 402.8C151.1 403.1 150.7 403.4 150.2 403.8C149.6 404.2 149.1 404.6 148.5 405.1C147.9 405.5 147.3 406 146.6 406.4C145.2 407.4 143.8 408.2 142.4 409.1C134.2 413.9 125.3 416.9 116.2 416.5C113.8 416.4 111.5 416.1 109.1 415.5L109 415.4C105.2 410.7 102 406.3 99.2999 401.9C98.5999 400.8 97.8999 399.7 97.1999 398.5C93.9999 393.1 91.1999 387.5 88.3999 380.8C85.0999 378.3 81.9999 375.6 79.1999 372.6C78.1999 371.6 77.2999 370.6 76.3999 369.6C69.7999 362 64.5999 353.2 61.0999 343.8C60.0999 341.3 59.2999 338.7 58.5999 336.1C56.2999 327.6 55.2999 318.8 55.6999 310C55.9999 304.6 56.7999 299.2 58.0999 294C63.9999 271.4 79.6999 249.7 74.6999 226.8C71.8999 214.2 63.1999 203.8 58.3999 191.8C52.4999 176.9 53.1999 159.6 60.1999 145.2C63.9999 137.4 71.3999 129.8 79.8999 131.4C86.3999 132.7 90.6999 139.1 92.3999 145.6C94.0999 152 93.9999 158.8 95.6999 165.2C99.8999 181 114 191.9 126.7 202.2C139.4 212.5 152.6 225.2 153.6 241.6C154.6 258.3 142.3 275.1 147.8 290.9C153.1 306.4 172.4 312.4 181.4 326.1C188 336.1 188.2 349.4 184.3 360.8Z" fill="#5CB1BF"/>
<path opacity="0.3" d="M141 368.3C139.9 370 138.6 371.7 137.3 373.3C138.1 374.7 138.8 376.1 139.5 377.5C142.5 383.7 144.5 390.3 145.6 397.1C145.9 399 146.2 401 146.3 402.9C146.4 404 146.5 405.1 146.5 406.2C146.6 408.9 146.6 411.6 146.4 414.3C144.9 414.7 143.5 415.1 142 415.3C142.2 413.1 142.3 411 142.3 408.8C142.3 405.2 142 401.6 141.4 398.1C141.1 396 140.6 393.9 140.1 391.9C139 387.6 137.5 383.4 135.5 379.4C132.3 372.7 127.9 366.5 123.6 360.4C119.5 354.6 115.3 348.5 112 342C108.2 334.6 105.7 326.5 104.5 318.3C104.2 316.2 104 314.1 103.8 312C103.7 311.9 103.6 311.9 103.5 311.8C94.7001 301.5 87.0001 290 81.0001 277.7C80.5001 276.6 80.9001 275.3 82.0001 274.8C83.1001 274.3 84.4001 274.7 84.9001 275.8C90.0001 286.4 96.4001 296.2 103.9 305.3C104 300.9 104.5 296.5 105.4 292.2C106.5 286.6 108.3 281 110 275.5C113.4 264.7 116.6 254.4 115.2 244.1L81.8001 227.4C80.7001 226.9 80.3001 225.6 80.8001 224.5C81.3001 223.4 82.6001 223 83.7001 223.5L113.9 238.6C110.9 228.8 103.7 220.6 96.7001 212.7C95.5001 211.3 94.2001 209.9 93.0001 208.5C80.8001 194.3 75.8001 181.8 77.9001 170.3C78.1001 169.1 79.2001 168.3 80.4001 168.6C81.6001 168.8 82.3001 169.9 82.1001 171.1C80.4001 180.2 84.1001 190.4 93.2001 202L94.5001 185.1C94.6001 183.9 95.6001 183 96.8001 183.1C98.0001 183.2 98.9001 184.2 98.8001 185.4L97.1001 206.7C98.0001 207.7 98.9001 208.8 99.8001 209.8C107.7 218.8 116 228.2 118.7 240.1C121 250.2 118.9 260.1 116 269.9C126.1 261.7 133.7 250.7 137.7 238.2C138.1 237.1 139.3 236.5 140.4 236.8C141.5 237.2 142.1 238.4 141.8 239.5C136.9 254.7 127 267.9 113.8 276.8C112.1 282.1 110.5 287.5 109.4 292.9C107.5 302.4 107.6 312.3 109.5 321.7C110.4 326.1 111.7 330.4 113.4 334.6C114.9 332.8 116.3 330.9 117.7 329C123.7 320.4 128.4 310.7 131.4 300.7C131.7 299.6 132.9 298.9 134.1 299.2C135.2 299.5 135.9 300.7 135.6 301.9C132.4 312.7 127.3 323 120.8 332.2C119.1 334.6 117.3 336.8 115.5 339C115.6 339.3 115.8 339.6 116 339.9C119.2 346.2 123.3 352.1 127.3 357.8C129.9 361.5 132.5 365.3 135 369.2C136.5 367.3 137.9 365.2 139.1 363.1C143 356.6 145.9 349.5 147.6 342.2C147.9 341 149 340.3 150.2 340.6C151.4 340.9 152.1 342 151.8 343.2C149.8 352.2 146.1 360.8 141 368.3Z" fill="#157897"/>
<path d="M152 412.6C150.2 413.3 148.4 413.9 146.6 414.3C145.1 414.7 143.7 415.1 142.2 415.3C133.8 417.1 125 417.3 116.3 416.3C113.9 416 111.5 415.7 109.1 415.2C89.3 411.4 70 401.6 54.9 389.1C28.7 367.4 12.9 335.5 0 304C11.5 312.4 26.9 312.9 41.1 311.6C46 311.1 50.8 310.5 55.7 309.9C65.1 308.9 74.4 308.2 83.6 309.8C91.2 311.2 98.3 314.2 104.7 318.3C106.4 319.4 108.1 320.6 109.7 321.8C112.6 324 115.3 326.5 117.9 329.1C118.9 330.1 119.9 331.2 120.9 332.3C125.6 337.7 129.7 343.6 133 349.8C135.3 354.1 137.4 358.6 139.1 363.2C139.8 364.9 140.4 366.6 141 368.3C144.7 378.9 147.3 389.8 149.6 400.9C149.8 401.8 150 402.8 150.2 403.7C150.5 405 150.7 406.2 151 407.4C151.3 409.2 151.6 410.9 152 412.6Z" fill="#83CFDB"/>
<path opacity="0.3" d="M150.2 403.7C150.5 405 150.7 406.2 151 407.4C150.2 406.6 149.4 405.7 148.5 404.9C147.8 404.2 147.1 403.5 146.4 402.9C144.8 401.3 143.1 399.7 141.5 398.2C139.1 395.9 136.6 393.6 134.1 391.4C122.9 396.1 111.2 399.6 99.2996 401.8C98.4996 402 97.6996 402.1 96.7996 402.3C95.7996 402.5 94.7996 401.8 94.6996 400.8C94.4996 399.8 95.1996 398.9 96.1996 398.7C96.4996 398.6 96.8996 398.6 97.1996 398.5C108.8 396.4 120.1 393.1 131 388.7C126.8 385 122.5 381.5 118.1 378C117.8 377.9 117.6 377.7 117.4 377.4C111.8 373 106 368.7 100.2 364.7C93.2996 367.6 86.2996 370.3 79.1996 372.6C72.4996 374.8 65.6996 376.7 58.8996 378.3C57.8996 378.5 56.8996 377.9 56.6996 376.9C56.4996 375.9 57.0996 374.9 58.0996 374.7C64.2996 373.2 70.3996 371.5 76.4996 369.6C83.2996 367.4 90.0996 365 96.5996 362.3C86.3996 355.4 75.6996 349.1 64.7996 343.3C64.6996 343.4 64.4996 343.4 64.2996 343.4L61.0996 343.8L29.3996 347.4C28.3996 347.5 27.4996 346.8 27.3996 345.8C27.2996 344.8 27.9996 343.9 28.9996 343.8L58.9996 340.4C48.8996 335.3 38.4996 330.7 27.8996 326.7C26.8996 326.3 26.4996 325.3 26.7996 324.3C27.1996 323.3 28.1996 322.9 29.1996 323.2C39.1996 327 49.0996 331.3 58.6996 336.1C65.5996 339.5 72.2996 343.1 78.9996 346.9C73.7996 337.4 67.8996 328.3 61.2996 319.8C60.6996 319 60.7996 317.8 61.5996 317.2C62.3996 316.6 63.5996 316.7 64.1996 317.5C71.9996 327.8 78.9996 338.8 84.8996 350.2C84.8996 350.3 84.9996 350.4 84.9996 350.5C95.7996 357 106.2 364.2 116.3 371.8C113.8 359.5 109.1 347.5 102.7 336.9C102.2 336 102.4 334.9 103.3 334.4C104.1 333.9 105.3 334.2 105.8 335C113.2 347.2 118.3 361.1 120.6 375.2C125.7 379.2 130.6 383.4 135.5 387.7C135.7 387.8 135.8 388 136 388.1C137.4 389.4 138.9 390.7 140.3 392C142.1 393.7 144 395.4 145.8 397.1C147.1 398.3 148.4 399.6 149.7 400.9C150.3 401.5 150.9 402.1 151.5 402.7C151 403.1 150.6 403.4 150.2 403.7Z" fill="#157897"/>
<path d="M358.901 224L352.601 230.8C350.701 232.8 350.401 236 352.001 238.3C353.901 241.1 356.801 243.2 359.901 243.7C364.601 244.4 369.601 241.7 371.801 237.5C373.101 235 373.901 230.7 373.701 227.9C373.501 225.1 371.601 222.2 368.901 221.7C365.301 221 362.301 224.1 358.901 224Z" fill="#FFC78F"/>
<path d="M379.901 55.4C372.701 57.1 364.901 56.7 358.301 53.3C351.701 49.9 346.601 43.5 345.601 36.2C344.701 30.3 348.201 25.3 352.101 20.9C354.901 25.5 360.201 28.6 365.601 28.8C370.201 29 374.801 27.2 379.401 27.1C386.201 26.9 392.901 30.3 396.701 35.9C399.901 40.6 403.701 45.8 402.701 51.3C402.101 54.5 400.501 57.4 398.901 60.2C396.701 64.1 394.501 68 392.301 71.9C390.801 74.5 389.301 77.2 387.001 79.2C381.901 72.8 378.101 63.6 379.901 55.4Z" fill="url(#paint0_linear)"/>
<path d="M358.001 91.1C352.401 100.4 351.201 111.8 351.001 122.7C350.301 160 359.101 197.2 355.701 234.4C360.301 235.3 364.301 236.7 368.701 235.1C372.501 208.7 375.101 181.9 375.201 155.2C375.201 144.1 374.801 132.8 372.001 122.1C369.101 111.2 366.801 97.9 358.001 91.1Z" fill="#FFC78F"/>
<path d="M351.001 122.7C350.901 129 351.001 135.4 351.401 141.7C359.001 144.9 367.001 146.8 375.201 147.5C375.001 138.9 374.301 130.3 372.001 122.1C369.101 111.4 366.801 98.0001 358.001 91.2001C352.401 100.4 351.201 111.8 351.001 122.7Z" fill="url(#paint1_linear)"/>
<path opacity="0.3" d="M351.001 122.7C350.901 129 351.001 135.4 351.401 141.7C359.001 144.9 367.001 146.8 375.201 147.5C375.001 138.9 374.301 130.3 372.001 122.1C369.101 111.4 366.801 98.0001 358.001 91.2001C352.401 100.4 351.201 111.8 351.001 122.7Z" fill="#157897"/>
<path d="M304.7 391C304.6 390.1 304.6 389.2 304.8 388.4C305 387.5 305.4 386.7 306.1 386.2C307.1 385.5 308.4 385.5 309.6 385.5C313.7 385.4 317.8 384.2 321.3 382C324.8 379.8 328.7 377.1 329.3 373.1C329.5 372 329.9 371 330.7 370.2C331.5 369.5 332.7 369.1 333.7 369.5C334.7 369.9 335.3 371.2 334.8 372.2C337.5 372.9 340.5 372.5 342.9 371.1C343.5 371.5 343.8 372.2 343.8 372.8C343.8 373.5 343.5 374.1 343.4 374.8C343 376.7 343.4 378.7 344 380.6C344.6 382.5 345.4 384.3 345.8 386.2C346.2 388.1 346.2 390.2 345.3 392C339.4 393.5 333.3 393.7 327.2 393.8C319.3 393.7 312 393.7 304.7 391Z" fill="#157897"/>
<path d="M365.2 163.8C365.1 164.3 363 165.2 362.8 165.7C363.5 166 364.1 166.2 364.8 166.5C364.9 165.5 365.1 164.7 365.2 163.8Z" fill="url(#paint2_linear)"/>
<path d="M347.6 376.1C358.9 343.4 367.5 308.9 372.2 274.7C374.5 258 386.5 243.7 391.3 227.6C396.1 211.5 398.4 194.4 395.6 177.8C385.2 174.7 375 170.6 364.9 166.4C353.8 237 339.5 307 322 376.1H347.6Z" fill="url(#paint3_linear)"/>
<path opacity="0.3" d="M347.601 376.1C358.901 343.4 367.501 308.9 372.201 274.7C374.501 258 386.501 243.7 391.301 227.6C396.101 211.5 398.401 194.4 395.601 177.8C390.601 176.3 385.601 174.6 380.701 172.7C380.701 241.8 345.601 307.2 340.801 376.1H347.601Z" fill="#1C1C1C"/>
<path d="M348.7 380.5H318.9C317.6 380.5 316.5 379.4 316.5 378.1V372.6C316.5 371.3 317.6 370.2 318.9 370.2H348.7C350 370.2 351.1 371.3 351.1 372.6V378.1C351.1 379.4 350 380.5 348.7 380.5Z" fill="url(#paint4_linear)"/>
<path d="M373.5 391C373.4 390.1 373.4 389.2 373.6 388.4C373.8 387.5 374.2 386.7 374.9 386.2C375.9 385.5 377.2 385.5 378.4 385.5C382.5 385.4 386.6 384.2 390.1 382C393.6 379.8 397.5 377.1 398.1 373.1C398.3 372 398.7 371 399.5 370.2C400.3 369.5 401.5 369.1 402.5 369.5C403.5 369.9 404.1 371.2 403.6 372.2C406.3 372.9 409.3 372.5 411.7 371.1C412.3 371.5 412.6 372.2 412.6 372.8C412.6 373.5 412.3 374.1 412.2 374.8C411.8 376.7 412.2 378.7 412.8 380.6C413.4 382.5 414.2 384.3 414.6 386.2C415 388.1 415 390.2 414.1 392C408.2 393.5 402.1 393.7 396 393.8C388.1 393.7 380.8 393.7 373.5 391Z" fill="#157897"/>
<path d="M376.601 165C385.401 234.8 390.6 305 392.3 375.3H415.601C418.801 338.3 418.401 300 413.001 263.3C410.701 247.6 418.401 231.2 418.701 215.3C419.001 199.4 416.601 183.2 409.501 169.1C398.001 169.3 386.401 168.3 374.901 167.4C374.801 166.8 376.601 165.5 376.601 165Z" fill="url(#paint5_linear)"/>
<path opacity="0.3" d="M415.6 375.3C418.8 338.3 418.4 300 413 263.3C410.7 247.6 418.4 231.2 418.7 215.3C419 199.4 416.6 183.2 409.5 169.1C405.4 169.2 401.3 169.1 397.2 168.9C400.2 212.4 403.2 255.9 406.1 299.4C407.8 324.7 409.5 350.4 405.7 375.3H415.6Z" fill="#1C1C1C"/>
<path opacity="0.3" d="M409.4 169C398.6 169.2 387.7 168.3 376.9 167.5C377.1 168.8 377.2 170.2 377.4 171.5C373.2 169.9 369 168.2 364.8 166.4C364.4 169 364 171.7 363.5 174.3C378.1 187.3 397.7 194.6 417.3 194.4C415.9 185.6 413.4 177 409.4 169Z" fill="#157897"/>
<path d="M379.8 80C375.3 82.8 370.2 84.2 365.3 86.3C360.5 88.4 355.7 91.3 353.3 96C350.2 101.9 351.7 109.1 353 115.6C356.9 134.3 359.8 153.3 361.5 172.4C378.4 174.8 395.7 174.3 412.7 172.8C411.6 153.8 413.5 133.5 415.7 114.5C416.4 108.3 417.2 101.9 415 96.1C412.6 89.9 406.9 85.4 400.7 83C394.5 80.4 386.4 80.7 379.8 80Z" fill="url(#paint6_linear)"/>
<path opacity="0.3" d="M416.2 110C411.6 103.7 404.7 98.8 397.2 96.8C395.1 113.9 401.1 131.8 413 144.2C413.6 134.1 414.7 124.1 415.8 114.4C415.8 112.9 416 111.4 416.2 110Z" fill="#157897"/>
<path d="M374.601 67.6C375.201 73.7 375.301 79.9 374.901 86.1C379.601 86.9 384.901 87.3 389.701 86.6C389.401 78 388.901 69.4 388.101 60.8C383.101 61.7 378.601 64.3 374.601 67.6Z" fill="#FFC78F"/>
<path opacity="0.3" d="M389.201 73.8001C388.901 69.5001 388.601 65.1 388.201 60.8C383.201 61.7 378.601 64.3 374.601 67.6C375.201 73.5 375.301 79.4001 375.001 85.3001C380.301 82.2001 385.101 78.3001 389.201 73.8001Z" fill="#157897"/>
<path d="M419.2 380.5H389.4C388.1 380.5 387 379.4 387 378.1V372.6C387 371.3 388.1 370.2 389.4 370.2H419.2C420.5 370.2 421.6 371.3 421.6 372.6V378.1C421.6 379.4 420.5 380.5 419.2 380.5Z" fill="url(#paint7_linear)"/>
<path d="M401.301 84.1C416.101 89 427.801 100.7 435.901 114C444.001 127.3 448.801 142.3 453.601 157.1C446.101 173.6 432.801 187.4 416.301 195C413.801 193.8 411.801 191.3 410.801 188.7C416.601 186.7 420.501 180.4 423.401 175C426.901 168.5 430.501 161.9 434.001 155.4C419.101 140 409.501 118.8 405.601 97.8C402.601 94.5 401.701 88.6 401.301 84.1Z" fill="#FFC78F"/>
<path d="M435.8 114.1C427.7 100.8 416 89.1001 401.2 84.2001C401.7 88.7001 391.9 94.5001 394.9 97.9001C397.3 111.4 407.8 124.9 419.8 136.9C427.1 131.9 433.3 125.1 437.5 117.2C437 116.1 436.4 115.1 435.8 114.1Z" fill="url(#paint8_linear)"/>
<path d="M366.1 44.4C365.8 50.3 365.4 56.2 366.5 62C367.6 67.8 370.4 73.4 375.1 76.9C381.3 75.8 387.4 71.9 390.6 66.5C393.9 61.1 395.1 54.6 394.9 48.3C394.8 44.7 394.1 40.9 391.5 38.3C388.7 35.4 384.2 34.9 380.2 35.4C374.7 36.1 366.4 38.8 366.1 44.4Z" fill="#FFC78F"/>
<path d="M358.101 48.6C365.001 53.1 374.501 53.2 381.401 48.9C383.001 51.1 385.401 52.2 388.101 52.5C387.701 55 387.201 57.6 386.801 60.1C387.301 60.3 388.001 60 388.501 59.8C387.901 57.3 388.701 54.7 390.401 52.7C390.801 52.3 391.301 51.8 391.801 52C392.301 52.1 392.501 52.6 392.701 53C393.601 55.3 393.101 57.9 392.001 60.1C390.901 62.3 389.101 64 387.401 65.8C388.201 68.9 388.601 72.3 389.401 75.4C392.501 70.8 395.301 66.1 397.101 60.8C398.901 55.5 399.401 49.6 397.601 44.3C395.901 39 391.701 34.3 386.301 32.8C381.501 31.5 376.401 32.7 372.001 34.9C366.101 37.8 361.401 42.8 358.101 48.6Z" fill="url(#paint9_linear)"/>
<path d="M413.6 187.6C412.8 188.3 411.5 188.3 410.4 188.2C409.3 188 408.2 187.7 407.1 188C405.5 188.4 404.5 189.8 403.5 191.1C402.6 192.4 400.6 193.7 399.5 194.9C398.5 196.1 397.8 197.8 398.2 199.3C398.5 200.9 399.8 202.1 401.3 202.7C402.8 203.3 404.4 203.3 406 203.2C408.9 202.9 411.8 201.9 414.1 200.2C416.4 198.4 418.2 195.9 418.9 193.1C417.3 191.1 415.5 188.8 413.6 187.6Z" fill="#FFC78F"/>
<path d="M301.1 314.9C300.9 314.9 300.7 314.9 300.4 314.9C297.9 314.5 296.1 312.2 296.5 309.7L314.2 189.5C316.8 171.8 332.1 158.5 350 158.5C352.5 158.5 354.6 160.6 354.6 163.1C354.6 165.6 352.5 167.7 350 167.7C336.7 167.7 325.2 177.6 323.3 190.8L305.6 311C305.3 313.2 303.4 314.9 301.1 314.9Z" fill="white"/>
<g opacity="0.3">
<path opacity="0.3" d="M301.1 314.9C300.9 314.9 300.7 314.9 300.4 314.9C297.9 314.5 296.1 312.2 296.5 309.7L314.2 189.5C316.8 171.8 332.1 158.5 350 158.5C352.5 158.5 354.6 160.6 354.6 163.1C354.6 165.6 352.5 167.7 350 167.7C336.7 167.7 325.2 177.6 323.3 190.8L305.6 311C305.3 313.2 303.4 314.9 301.1 314.9Z" fill="#157897"/>
</g>
<path d="M256.2 196.8H224V179.4C224 170.5 231.2 163.3 240.1 163.3C249 163.3 256.2 170.5 256.2 179.4V196.8ZM228.1 192.7H252V179.5C252 172.9 246.6 167.5 240 167.5C233.4 167.5 228 172.9 228 179.5V192.7H228.1Z" fill="url(#paint10_linear)"/>
<g opacity="0.1">
<path opacity="0.1" d="M256.2 196.8H224V179.4C224 170.5 231.2 163.3 240.1 163.3C249 163.3 256.2 170.5 256.2 179.4V196.8ZM228.1 192.7H252V179.5C252 172.9 246.6 167.5 240 167.5C233.4 167.5 228 172.9 228 179.5V192.7H228.1Z" fill="url(#paint11_linear)"/>
</g>
<path d="M302.6 310H177.5L193.2 185.3H287L302.6 310Z" fill="url(#paint12_linear)"/>
<path d="M302.6 310H177.5L193.2 185.3H287L302.6 310Z" fill="#FFD200"/>
<path opacity="0.2" d="M181 282.2L177.5 310H302.6L299.1 282.2H181Z" fill="url(#paint13_linear)"/>
<path d="M230.101 310L243.001 207.4H320.101L333.001 310H230.101Z" fill="url(#paint14_linear)"/>
<path d="M294.801 216.9H268.301V202.6C268.301 195.3 274.201 189.3 281.601 189.3C289.001 189.3 294.901 195.2 294.901 202.6V216.9H294.801ZM271.701 213.5H291.401V202.6C291.401 197.2 287.001 192.8 281.601 192.8C276.201 192.8 271.801 197.2 271.801 202.6V213.5H271.701Z" fill="url(#paint15_linear)"/>
<g opacity="0.3">
<path opacity="0.3" d="M294.801 216.9H268.301V202.6C268.301 195.3 274.201 189.3 281.601 189.3C289.001 189.3 294.901 195.2 294.901 202.6V216.9H294.801ZM271.701 213.5H291.401V202.6C291.401 197.2 287.001 192.8 281.601 192.8C276.201 192.8 271.801 197.2 271.801 202.6V213.5H271.701Z" fill="#157897"/>
</g>
<path opacity="0.3" d="M233.001 287.2L230.101 310H333.001L330.101 287.2H233.001Z" fill="#157897"/>
<path d="M255.9 393.7C262.748 393.7 268.3 388.148 268.3 381.3C268.3 374.452 262.748 368.9 255.9 368.9C249.052 368.9 243.5 374.452 243.5 381.3C243.5 388.148 249.052 393.7 255.9 393.7Z" fill="#FFD200"/>
<path d="M244.7 363.9L250.7 383C251.4 385.4 253.7 387 256.2 387C259.4 387 261.9 384.4 261.9 381.3V363.9H244.7Z" fill="white"/>
<path opacity="0.3" d="M244.7 363.9L250.7 383C251.4 385.4 253.7 387 256.2 387C259.4 387 261.9 384.4 261.9 381.3V363.9H244.7Z" fill="#157897"/>
<path d="M283.3 368.2H149.5C147 368.2 144.9 366.1 144.9 363.6C144.9 361.1 147 359 149.5 359H283.3C288.9 359 294 356.5 297.5 352.1C301 347.7 302.2 342.1 300.9 336.7L294.8 311.4C294.2 308.9 295.7 306.4 298.2 305.9C300.7 305.3 303.2 306.8 303.7 309.3L309.8 334.6C311.8 342.8 309.9 351.2 304.7 357.9C299.5 364.4 291.7 368.2 283.3 368.2Z" fill="white"/>
<g opacity="0.3">
<path opacity="0.3" d="M283.3 368.2H149.5C147 368.2 144.9 366.1 144.9 363.6C144.9 361.1 147 359 149.5 359H283.3C288.9 359 294 356.5 297.5 352.1C301 347.7 302.2 342.1 300.9 336.7L294.8 311.4C294.2 308.9 295.7 306.4 298.2 305.9C300.7 305.3 303.2 306.8 303.7 309.3L309.8 334.6C311.8 342.8 309.9 351.2 304.7 357.9C299.5 364.4 291.7 368.2 283.3 368.2Z" fill="#157897"/>
</g>
<path d="M338.301 314.9H203.901C201.601 314.9 199.701 313.2 199.301 311L186.501 222.9C186.301 221.6 186.701 220.2 187.601 219.2C188.501 218.2 189.701 217.6 191.101 217.6H351.001C352.301 217.6 353.601 218.2 354.501 219.2C355.401 220.2 355.801 221.5 355.601 222.9L342.801 311C342.501 313.2 340.601 314.9 338.301 314.9ZM207.901 305.7H334.301L345.701 226.8H196.501L207.901 305.7Z" fill="white"/>
<path d="M235.5 314.9H173C170.8 314.9 168.9 313.3 168.5 311.1L152.9 223C152.7 221.7 153 220.3 153.9 219.2C154.8 218.2 156.1 217.6 157.4 217.6H222.7C225 217.6 226.9 219.3 227.3 221.5L240.1 309.6C240.3 310.9 239.9 312.3 239 313.3C238.1 314.3 236.8 314.9 235.5 314.9ZM176.8 305.7H230.1L218.7 226.8H162.9L176.8 305.7Z" fill="white"/>
<path d="M322.3 368.2H188.5C186 368.2 183.9 366.1 183.9 363.6C183.9 361.1 186 359 188.5 359H322.3C327.9 359 333 356.5 336.5 352.1C340 347.7 341.2 342.1 339.9 336.7L333.8 311.4C333.2 308.9 334.7 306.4 337.2 305.9C339.7 305.3 342.2 306.8 342.7 309.3L348.8 334.6C350.8 342.8 348.9 351.2 343.7 357.9C338.5 364.4 330.7 368.2 322.3 368.2Z" fill="white"/>
<path d="M338.3 314.9C338.1 314.9 337.9 314.9 337.6 314.9C335.1 314.5 333.3 312.2 333.7 309.7L351.4 189.5C354 171.8 369.3 158.5 387.2 158.5C389.7 158.5 391.8 160.6 391.8 163.1C391.8 165.6 389.7 167.7 387.2 167.7C373.9 167.7 362.4 177.6 360.5 190.8L342.8 311C342.5 313.2 340.5 314.9 338.3 314.9Z" fill="white"/>
<path d="M214.1 393.7C220.949 393.7 226.5 388.148 226.5 381.3C226.5 374.452 220.949 368.9 214.1 368.9C207.252 368.9 201.7 374.452 201.7 381.3C201.7 388.148 207.252 393.7 214.1 393.7Z" fill="#FFD200"/>
<path d="M202.9 363.9L208.9 383C209.6 385.4 211.9 387 214.4 387C217.6 387 220.1 384.4 220.1 381.3V363.9H202.9Z" fill="white"/>
<path d="M296.501 393.7C303.349 393.7 308.901 388.148 308.901 381.3C308.901 374.452 303.349 368.9 296.501 368.9C289.652 368.9 284.101 374.452 284.101 381.3C284.101 388.148 289.652 393.7 296.501 393.7Z" fill="#FFD200"/>
<path d="M285.301 363.9L291.301 383C292.001 385.4 294.301 387 296.801 387C300.001 387 302.501 384.4 302.501 381.3V363.9H285.301Z" fill="white"/>
<path d="M173.501 393.7C180.349 393.7 185.901 388.148 185.901 381.3C185.901 374.452 180.349 368.9 173.501 368.9C166.652 368.9 161.101 374.452 161.101 381.3C161.101 388.148 166.652 393.7 173.501 393.7Z" fill="#FFD200"/>
<path d="M162.301 363.9L168.301 383C169.001 385.4 171.301 387 173.801 387C177.001 387 179.501 384.4 179.501 381.3V363.9H162.301Z" fill="white"/>
<path opacity="0.3" d="M162.301 363.9L168.301 383C169.001 385.4 171.301 387 173.801 387C177.001 387 179.501 384.4 179.501 381.3V363.9H162.301Z" fill="#157897"/>
<path d="M345.7 240.9H160.7V249.6H345.7V240.9Z" fill="white"/>
<path d="M345.7 261.8H160.7V270.5H345.7V261.8Z" fill="white"/>
<path d="M345.701 282.7H165.101V291.4H345.701V282.7Z" fill="white"/>
<path d="M123 132.7C126.8 122.4 138.2 117.1 148.5 120.9C158.8 124.7 164.1 136.1 160.3 146.4C156.5 156.7 145.1 162 134.8 158.2C124.5 154.4 119.2 143 123 132.7Z" fill="#FFC000"/>
<path d="M129 134.9C131.6 127.9 139.3 124.4 146.3 126.9C153.3 129.5 156.8 137.2 154.3 144.2C151.7 151.2 144 154.7 137 152.2C130 149.6 126.4 141.9 129 134.9Z" fill="#FFC000"/>
<path d="M140.1 131.1C143.3 130.6 146 131.7 146.8 134.6L142.6 135.6C142.3 134.7 141.7 134.2 140.8 134.2L141.7 137.8C144.3 137.8 147.6 137.8 148.5 141.4C149.2 144.3 147.2 146.6 144.1 147.6L144.6 149.5L143.1 149.9L142.6 148C139.4 148.5 137 147.4 136 144.5L140.2 143.5C140.5 144.3 141.1 144.8 141.8 144.8L140.9 141.2C138.3 141.1 134.9 141.2 134.1 137.6C133.5 135.1 134.9 132.4 138.5 131.4L138 129.5L139.5 129.1L140.1 131.1ZM142.6 141.3L143.4 144.5C144.2 144.2 144.6 143.5 144.4 142.6C144.2 141.8 143.5 141.5 142.6 141.3ZM140.1 137.7L139.3 134.4C138.4 134.8 138 135.6 138.2 136.4C138.4 137.3 139.2 137.6 140.1 137.7Z" fill="#FFC000"/>
<path d="M545.2 150.4H476.6C473.9 150.4 471.8 148.2 471.8 145.6V99.3C471.8 96.6 474 94.5 476.6 94.5H545.2C547.9 94.5 550 96.7 550 99.3V145.6C550 148.3 547.8 150.4 545.2 150.4Z" fill="#B0DFEA"/>
<path d="M541.1 94.5H480.6C475.7 94.5 471.7 98.5 471.7 103.4V105H550V103.4C550 98.4 546 94.5 541.1 94.5Z" fill="url(#paint16_linear)"/>
<path d="M537.2 142.7C537.2 142.6 537.1 142.5 537.1 142.4C535.8 139.4 534.5 136.4 532.3 133.9C530.1 131.5 527 129.7 523.7 130.1C518.9 130.6 515.2 135.6 510.3 135.2C507 134.9 504.4 132.2 502.8 129.2C501.2 126.3 500.2 123 498.2 120.4C494.6 115.8 487.9 114 482.5 116.2V142.7H537.2Z" fill="url(#paint17_linear)"/>
<path d="M526.201 142.7C526.201 142.6 526.101 142.6 526.101 142.5C525.101 141 524.001 139.5 522.301 138.3C520.601 137.1 518.001 136.2 515.501 136.4C511.701 136.7 508.701 139.1 504.801 138.9C502.201 138.8 500.101 137.4 498.801 136C497.501 134.6 496.701 133 495.101 131.7C492.301 129.4 486.901 128.6 482.601 129.6V142.6H526.201V142.7Z" fill="url(#paint18_linear)"/>
<path d="M518.9 142.7C518.9 142.6 518.8 142.5 518.8 142.4C517.9 139.7 517.1 136.9 515.6 134.7C514.2 132.5 512.1 130.9 509.9 131.2C506.7 131.7 504.2 136.2 501 135.8C498.8 135.6 497.1 133 496 130.4C494.9 127.8 494.3 124.8 492.9 122.4C490.5 118.3 486.1 116.6 482.5 118.6V142.6H518.9V142.7Z" fill="url(#paint19_linear)"/>
<path opacity="0.5" d="M542.6 142.9H482.4V111H482.8V142.5H542.6V142.9Z" fill="#157897"/>
<path d="M204.2 35.3L208.2 49.9C208.7 51.7 209.8 53.2 211.4 54.1L253.5 79.9C256.9 82 261.3 80.9 263.4 77.5L274.2 59.9C276.3 56.5 275.2 52.1 271.8 50L229.7 24.2C228.1 23.2 226.3 22.9 224.5 23.3L209.7 26.3C205.6 27.1 203.1 31.3 204.2 35.3ZM212.2 34C213.1 32.5 215 32.1 216.5 33C218 33.9 218.4 35.8 217.5 37.3C216.6 38.8 214.7 39.2 213.2 38.3C211.7 37.4 211.3 35.4 212.2 34Z" fill="url(#paint20_linear)"/>
<defs>
<linearGradient id="paint0_linear" x1="353.177" y1="18.7838" x2="400.373" y2="70.6426" gradientUnits="userSpaceOnUse">
<stop stop-color="#FF9100"/>
<stop offset="1" stop-color="#FFC400"/>
</linearGradient>
<linearGradient id="paint1_linear" x1="349.198" y1="121.101" x2="372.649" y2="118.618" gradientUnits="userSpaceOnUse">
<stop offset="0.2169" stop-color="#90D5E5"/>
<stop offset="0.3967" stop-color="#8CD2E2"/>
<stop offset="0.5641" stop-color="#81C9DA"/>
<stop offset="0.7266" stop-color="#6EBBCC"/>
<stop offset="0.8852" stop-color="#54A7B9"/>
<stop offset="0.9153" stop-color="#4EA2B5"/>
</linearGradient>
<linearGradient id="paint2_linear" x1="362.836" y1="165.101" x2="365.218" y2="165.101" gradientUnits="userSpaceOnUse">
<stop offset="0.1719" stop-color="#157897"/>
<stop offset="0.3223" stop-color="#1A7D9C"/>
<stop offset="0.5074" stop-color="#298BA9"/>
<stop offset="0.7107" stop-color="#42A1C0"/>
<stop offset="0.9206" stop-color="#64C0DE"/>
</linearGradient>
<linearGradient id="paint3_linear" x1="322.012" y1="271.286" x2="396.741" y2="271.286" gradientUnits="userSpaceOnUse">
<stop offset="0.1719" stop-color="#157897"/>
<stop offset="0.3223" stop-color="#1A7D9C"/>
<stop offset="0.5074" stop-color="#298BA9"/>
<stop offset="0.7107" stop-color="#42A1C0"/>
<stop offset="0.9206" stop-color="#64C0DE"/>
</linearGradient>
<linearGradient id="paint4_linear" x1="323.226" y1="385.836" x2="344.327" y2="364.735" gradientUnits="userSpaceOnUse">
<stop offset="0.1719" stop-color="#157897"/>
<stop offset="0.3223" stop-color="#1A7D9C"/>
<stop offset="0.5074" stop-color="#298BA9"/>
<stop offset="0.7107" stop-color="#42A1C0"/>
<stop offset="0.9206" stop-color="#64C0DE"/>
</linearGradient>
<linearGradient id="paint5_linear" x1="341.596" y1="324.617" x2="453.278" y2="212.935" gradientUnits="userSpaceOnUse">
<stop offset="0.1719" stop-color="#157897"/>
<stop offset="0.3223" stop-color="#1A7D9C"/>
<stop offset="0.5074" stop-color="#298BA9"/>
<stop offset="0.7107" stop-color="#42A1C0"/>
<stop offset="0.9206" stop-color="#64C0DE"/>
</linearGradient>
<linearGradient id="paint6_linear" x1="335.407" y1="93.3716" x2="432.632" y2="164.775" gradientUnits="userSpaceOnUse">
<stop offset="0.2169" stop-color="#90D5E5"/>
<stop offset="0.3967" stop-color="#8CD2E2"/>
<stop offset="0.5641" stop-color="#81C9DA"/>
<stop offset="0.7266" stop-color="#6EBBCC"/>
<stop offset="0.8852" stop-color="#54A7B9"/>
<stop offset="0.9153" stop-color="#4EA2B5"/>
</linearGradient>
<linearGradient id="paint7_linear" x1="393.707" y1="385.836" x2="414.807" y2="364.735" gradientUnits="userSpaceOnUse">
<stop offset="0.1719" stop-color="#157897"/>
<stop offset="0.3223" stop-color="#1A7D9C"/>
<stop offset="0.5074" stop-color="#298BA9"/>
<stop offset="0.7107" stop-color="#42A1C0"/>
<stop offset="0.9206" stop-color="#64C0DE"/>
</linearGradient>
<linearGradient id="paint8_linear" x1="354.328" y1="67.6116" x2="451.552" y2="139.015" gradientUnits="userSpaceOnUse">
<stop offset="0.2169" stop-color="#90D5E5"/>
<stop offset="0.3967" stop-color="#8CD2E2"/>
<stop offset="0.5641" stop-color="#81C9DA"/>
<stop offset="0.7266" stop-color="#6EBBCC"/>
<stop offset="0.8852" stop-color="#54A7B9"/>
<stop offset="0.9153" stop-color="#4EA2B5"/>
</linearGradient>
<linearGradient id="paint9_linear" x1="353.605" y1="18.3946" x2="400.801" y2="70.2536" gradientUnits="userSpaceOnUse">
<stop stop-color="#FF9100"/>
<stop offset="1" stop-color="#FFC400"/>
</linearGradient>
<linearGradient id="paint10_linear" x1="223.948" y1="180.077" x2="256.186" y2="180.077" gradientUnits="userSpaceOnUse">
<stop stop-color="#FF9100"/>
<stop offset="1" stop-color="#FFC400"/>
</linearGradient>
<linearGradient id="paint11_linear" x1="223.948" y1="180.077" x2="256.186" y2="180.077" gradientUnits="userSpaceOnUse">
<stop stop-color="#FF9100"/>
<stop offset="1" stop-color="#FFC400"/>
</linearGradient>
<linearGradient id="paint12_linear" x1="177.531" y1="247.611" x2="302.603" y2="247.611" gradientUnits="userSpaceOnUse">
<stop stop-color="#FF9100"/>
<stop offset="1" stop-color="#FFC400"/>
</linearGradient>
<linearGradient id="paint13_linear" x1="177.531" y1="296.095" x2="302.603" y2="296.095" gradientUnits="userSpaceOnUse">
<stop stop-color="#FF9100"/>
<stop offset="1" stop-color="#FFC400"/>
</linearGradient>
<linearGradient id="paint14_linear" x1="230.149" y1="258.688" x2="332.999" y2="258.688" gradientUnits="userSpaceOnUse">
<stop offset="0.2169" stop-color="#90D5E5"/>
<stop offset="0.3967" stop-color="#8CD2E2"/>
<stop offset="0.5641" stop-color="#81C9DA"/>
<stop offset="0.7266" stop-color="#6EBBCC"/>
<stop offset="0.8852" stop-color="#54A7B9"/>
<stop offset="0.9153" stop-color="#4EA2B5"/>
</linearGradient>
<linearGradient id="paint15_linear" x1="268.319" y1="203.153" x2="294.829" y2="203.153" gradientUnits="userSpaceOnUse">
<stop offset="0.2169" stop-color="#90D5E5"/>
<stop offset="0.3967" stop-color="#8CD2E2"/>
<stop offset="0.5641" stop-color="#81C9DA"/>
<stop offset="0.7266" stop-color="#6EBBCC"/>
<stop offset="0.8852" stop-color="#54A7B9"/>
<stop offset="0.9153" stop-color="#4EA2B5"/>
</linearGradient>
<linearGradient id="paint16_linear" x1="471.71" y1="99.7002" x2="550" y2="99.7002" gradientUnits="userSpaceOnUse">
<stop offset="0.2169" stop-color="#90D5E5"/>
<stop offset="0.3967" stop-color="#8CD2E2"/>
<stop offset="0.5641" stop-color="#81C9DA"/>
<stop offset="0.7266" stop-color="#6EBBCC"/>
<stop offset="0.8852" stop-color="#54A7B9"/>
<stop offset="0.9153" stop-color="#4EA2B5"/>
</linearGradient>
<linearGradient id="paint17_linear" x1="482.595" y1="128.979" x2="537.202" y2="128.979" gradientUnits="userSpaceOnUse">
<stop offset="0.2169" stop-color="#90D5E5"/>
<stop offset="0.3967" stop-color="#8CD2E2"/>
<stop offset="0.5641" stop-color="#81C9DA"/>
<stop offset="0.7266" stop-color="#6EBBCC"/>
<stop offset="0.8852" stop-color="#54A7B9"/>
<stop offset="0.9153" stop-color="#4EA2B5"/>
</linearGradient>
<linearGradient id="paint18_linear" x1="482.596" y1="135.943" x2="526.157" y2="135.943" gradientUnits="userSpaceOnUse">
<stop offset="0.2169" stop-color="#90D5E5"/>
<stop offset="0.3967" stop-color="#8CD2E2"/>
<stop offset="0.5641" stop-color="#81C9DA"/>
<stop offset="0.7266" stop-color="#6EBBCC"/>
<stop offset="0.8852" stop-color="#54A7B9"/>
<stop offset="0.9153" stop-color="#4EA2B5"/>
</linearGradient>
<linearGradient id="paint19_linear" x1="482.595" y1="130.265" x2="518.919" y2="130.265" gradientUnits="userSpaceOnUse">
<stop offset="0.2169" stop-color="#90D5E5"/>
<stop offset="0.3967" stop-color="#8CD2E2"/>
<stop offset="0.5641" stop-color="#81C9DA"/>
<stop offset="0.7266" stop-color="#6EBBCC"/>
<stop offset="0.8852" stop-color="#54A7B9"/>
<stop offset="0.9153" stop-color="#4EA2B5"/>
</linearGradient>
<linearGradient id="paint20_linear" x1="268.773" y1="68.7245" x2="205.037" y2="29.5944" gradientUnits="userSpaceOnUse">
<stop stop-color="#FF9100"/>
<stop offset="1" stop-color="#FFC400"/>
</linearGradient>
</defs>
</svg>
