<svg width="550" height="512" viewBox="0 0 550 512" fill="none" xmlns="http://www.w3.org/2000/svg">
<g clip-path="url(#clip0)">
<path d="M526.878 101.964C517.484 81.2549 498.91 63.5349 476.066 59.265C448.312 54.1412 420.985 69.2993 398.782 85.9518C376.578 102.604 355.015 122.459 327.688 129.078C278.798 141.033 229.908 108.155 179.31 105.593C146.218 104.099 112.913 116.481 89.4287 138.685C1.8961 221.734 40.325 386.338 134.689 428.61C210.907 462.769 320.002 479.635 389.815 435.015C456.425 392.529 523.035 262.725 533.71 186.508C534.564 180.53 535.204 174.552 535.631 168.574C537.339 145.944 536.272 122.673 526.878 101.964Z" fill="#BEE9F4"/>
<path d="M128.925 258.882C125.723 266.141 122.734 275.961 121.239 285.782L113.34 249.488C123.374 252.904 143.443 228.566 150.915 212.34C158.387 195.901 153.69 177.327 146.859 174.552C142.162 172.63 123.161 179.889 115.688 196.328C112.272 204.014 109.284 214.902 108.216 224.936L100.103 188.215C100.317 188.215 100.317 188.002 100.53 188.002C107.362 189.496 120.812 173.271 125.723 162.383C130.846 151.067 127.644 138.471 122.947 136.55C119.745 135.269 106.722 140.179 101.598 151.494C99.2494 156.618 97.3279 164.091 96.4739 171.136L91.1366 146.584C91.3501 146.584 91.5636 146.584 91.7771 146.584C96.9009 145.09 96.6874 129.291 94.339 120.751C91.9906 112.212 84.3048 106.874 80.8889 107.942C78.5404 108.582 73.6301 117.335 76.192 125.875C78.3269 133.774 85.5857 145.73 90.4961 146.584C91.7771 153.629 93.2715 162.81 95.193 173.484C90.0691 167.933 83.0238 162.596 77.473 159.821C66.5848 154.056 53.7751 156.832 51.6402 161.315C50.1457 164.304 54.4156 177.754 65.5173 183.305C74.484 188.002 90.7096 191.845 98.1819 189.496C100.744 204.227 103.519 220.88 106.508 237.746C100.103 227.498 85.1587 214.902 73.8436 209.138C57.8315 200.812 39.044 204.654 35.8416 211.273C33.7067 215.756 39.898 235.184 56.1235 243.51C71.9221 251.623 102.665 258.241 108.643 249.488C111.845 268.703 115.261 287.917 118.25 305.21C110.778 293.682 94.1255 280.018 81.7428 273.4C63.5958 264.006 42.2464 268.276 38.617 275.961C36.0551 281.085 43.3139 303.075 61.6744 312.469C79.3944 321.649 113.553 328.908 121.026 319.728C125.936 348.122 129.566 367.977 129.779 368.191L139.386 364.348L129.779 319.941C141.521 320.155 162.444 294.749 170.343 277.242C178.883 258.455 173.332 237.533 165.646 234.33C159.028 231.982 137.465 240.308 128.925 258.882Z" fill="white"/>
<path d="M438.278 154.91C431.873 159.607 424.401 166.652 418.21 174.338L429.525 138.898C436.57 146.798 466.246 135.696 480.55 125.235C495.281 114.56 500.405 96.1994 495.708 90.4351C492.719 86.3787 472.437 83.3897 457.706 93.851C450.874 98.7613 442.975 106.874 436.997 114.987L448.312 79.1199C448.526 79.1199 448.526 79.1199 448.739 79.1199C454.077 83.8167 473.718 76.5579 483.325 69.5126C493.36 62.2538 496.776 49.6577 493.787 45.8148C491.652 43.0394 477.988 40.9044 467.954 48.1632C463.257 51.5791 457.92 56.9165 453.65 62.4673L461.336 38.556C461.549 38.556 461.762 38.7695 461.976 38.7695C467.1 40.0504 474.786 26.1733 476.921 17.6336C479.056 9.0938 475.213 0.554033 471.583 -0.0864493C469.235 -0.513438 460.695 4.61042 458.56 13.1502C456.639 21.0495 456.852 34.9266 460.695 38.3425C458.133 44.9608 454.931 53.7141 451.301 63.9618C449.593 56.703 446.177 48.5902 442.762 43.2529C436.143 32.7916 423.761 28.7353 419.491 31.7242C416.715 33.6456 413.726 47.3092 420.558 57.7705C426.109 66.3102 438.065 77.6254 445.75 79.3334C440.627 93.424 434.862 109.223 428.884 125.235C428.457 113.065 421.626 94.7049 414.794 84.0302C404.973 68.8721 386.826 62.8943 380.635 66.9507C376.578 69.7261 372.308 89.7946 382.129 104.953C391.736 119.897 415.221 140.82 424.615 136.336C417.996 154.697 411.164 173.057 405.187 189.283C404.546 175.619 396.86 155.337 389.174 143.595C378.073 126.302 357.364 119.47 350.532 124.381C345.835 127.583 341.138 150.213 352.24 167.506C362.915 184.159 389.175 207.643 400.063 203.16C390.242 230.06 383.41 249.275 383.41 249.488L393.658 250.769L407.535 207.43C417.783 213.621 448.526 201.665 463.897 190.564C480.55 178.608 486.314 157.686 481.19 151.067C477.988 146.371 454.931 142.741 438.278 154.91Z" fill="#83CFDB"/>
<path d="M9.79515 224.51C0.187919 232.195 -1.94702 248.421 0.828402 259.95C4.03081 273.827 16.627 282.153 21.1103 295.176C23.6723 302.648 21.5373 306.278 19.4024 313.323C16.8405 322.503 15.346 335.313 18.5484 344.493C23.2453 358.157 36.2684 370.326 49.5051 376.517C65.9441 384.203 86.0125 380.36 102.452 388.9C113.767 394.878 119.104 410.036 130.846 415.16C142.802 420.284 167.781 416.654 169.702 400.856C171.837 382.922 153.904 370.966 153.263 354.1C152.836 344.493 157.106 334.246 157.106 324.425C157.32 311.402 154.971 295.817 149.207 283.861C138.105 261.444 118.25 240.735 92.2039 240.522C86.226 240.522 79.6077 242.23 73.6299 240.522C65.9441 238.6 64.0227 233.263 59.1123 227.712C52.2805 220.24 38.1899 216.183 27.9422 215.543C19.4024 215.116 16.2 218.745 9.79515 224.51C10.4356 223.869 11.0761 223.442 11.5031 223.015L9.79515 224.51Z" fill="#5CB1BF"/>
<path d="M17.0856 230.621L15.4287 231.967L162.175 412.572L163.832 411.226L17.0856 230.621Z" fill="#157897"/>
<path d="M36.3639 340.511L36.3359 342.646L106.355 343.562L106.383 341.427L36.3639 340.511Z" fill="#157897"/>
<path d="M105.095 268.696L102.961 268.766L105.364 342.385L107.497 342.315L105.095 268.696Z" fill="#157897"/>
<path d="M14.7385 263.951L14.3164 266.044L49.0583 273.05L49.4803 270.957L14.7385 263.951Z" fill="#157897"/>
<path d="M37.117 229.226L35.0781 229.859L48.2536 272.268L50.2925 271.635L37.117 229.226Z" fill="#157897"/>
<path d="M113.357 380.411L112.69 382.439L147.173 393.766L147.84 391.738L113.357 380.411Z" fill="#157897"/>
<path d="M136.002 346.514L133.924 347.001L144.004 390.027L146.083 389.54L136.002 346.514Z" fill="#157897"/>
<path d="M403.905 381.854V367.764C403.905 364.561 401.343 361.786 397.927 361.786H393.657C390.882 361.786 388.32 360.078 387.466 357.516C386.826 355.595 385.972 353.673 385.118 351.752C383.837 349.19 384.477 346.201 386.399 344.279L389.387 341.291C391.736 338.942 391.736 335.313 389.387 332.964L379.567 323.144C377.218 320.795 373.589 320.795 371.24 323.144L368.252 326.132C366.33 328.054 363.341 328.694 360.779 327.413C358.858 326.559 356.936 325.705 355.015 325.065C352.453 324.211 350.745 321.649 350.745 318.874V314.604C350.745 311.401 348.183 308.626 344.767 308.626H330.677C327.474 308.626 324.699 311.188 324.699 314.604V318.874C324.699 321.649 322.991 324.211 320.215 325.065C318.294 325.705 316.372 326.559 314.451 327.413C311.889 328.694 308.9 328.054 306.979 326.132L303.99 323.144C301.641 320.795 298.012 320.795 295.664 323.144L285.843 332.964C283.494 335.313 283.494 338.942 285.843 341.291L288.832 344.279C290.753 346.201 291.394 349.19 290.113 351.752C289.259 353.673 288.405 355.595 287.764 357.516C286.91 360.078 284.348 361.786 281.573 361.786H277.303C274.101 361.786 271.325 364.348 271.325 367.764V381.854C271.325 385.057 273.887 387.832 277.303 387.832H281.573C284.348 387.832 286.91 389.54 287.764 392.102C288.405 394.024 289.259 395.945 290.113 397.867C291.394 400.428 290.753 403.417 288.832 405.339L285.843 408.328C283.494 410.676 283.494 414.306 285.843 416.654L295.664 426.475C298.012 428.823 301.641 428.823 303.99 426.475L306.979 423.486C308.9 421.564 311.889 420.924 314.451 422.205C316.372 423.059 318.294 423.913 320.215 424.553C322.777 425.407 324.699 427.969 324.699 430.745V435.014C324.699 438.217 327.261 440.992 330.677 440.992H344.767C347.97 440.992 350.745 438.43 350.745 435.014V430.745C350.745 427.969 352.453 425.407 355.015 424.553C356.936 423.913 358.858 423.059 360.779 422.205C363.341 420.924 366.33 421.564 368.252 423.486L371.24 426.475C373.589 428.823 377.218 428.823 379.567 426.475L389.387 416.654C391.736 414.306 391.736 410.676 389.387 408.328L386.399 405.339C384.477 403.417 383.837 400.428 385.118 397.867C385.972 395.945 386.826 394.024 387.466 392.102C388.32 389.54 390.882 387.832 393.657 387.832H397.927C401.343 387.832 403.905 385.27 403.905 381.854ZM340.07 406.833C320.429 408.328 304.203 392.102 305.698 372.461C306.979 356.876 319.361 344.493 334.946 343.212C354.588 341.718 370.813 357.943 369.319 377.585C368.252 392.956 355.655 405.552 340.07 406.833Z" fill="white"/>
<path d="M512.36 171.349V157.259C512.36 154.056 509.798 151.281 506.382 151.281H502.112C499.337 151.281 496.775 149.573 495.921 147.011C495.281 145.09 494.427 143.168 493.573 141.247C492.292 138.685 492.932 135.696 494.854 133.774L497.843 130.785C500.191 128.437 500.191 124.808 497.843 122.459L488.022 112.638C485.673 110.29 482.044 110.29 479.696 112.638L476.707 115.627C474.785 117.549 471.796 118.189 469.234 116.908C467.313 116.054 465.391 115.2 463.47 114.56C460.908 113.706 459.2 111.144 459.2 108.369V104.099C459.2 100.896 456.638 98.1208 453.222 98.1208H439.132C435.929 98.1208 433.154 100.683 433.154 104.099V108.369C433.154 111.144 431.446 113.706 428.67 114.56C426.749 115.2 424.828 116.054 422.906 116.908C420.344 118.189 417.355 117.549 415.434 115.627L412.445 112.638C410.096 110.29 406.467 110.29 404.119 112.638L394.298 122.459C391.949 124.808 391.949 128.437 394.298 130.785L397.287 133.774C399.208 135.696 399.849 138.685 398.568 141.247C397.714 143.168 396.86 145.09 396.219 147.011C395.365 149.573 392.803 151.281 390.028 151.281H385.758C382.556 151.281 379.78 153.843 379.78 157.259V171.349C379.78 174.552 382.342 177.327 385.758 177.327H390.028C392.803 177.327 395.365 179.035 396.219 181.597C396.86 183.518 397.714 185.44 398.568 187.361C399.849 189.923 399.208 192.912 397.287 194.834L394.298 197.823C391.949 200.171 391.949 203.8 394.298 206.149L404.119 215.97C406.467 218.318 410.096 218.318 412.445 215.97L415.434 212.981C417.355 211.059 420.344 210.419 422.906 211.7C424.828 212.554 426.749 213.408 428.67 214.048C431.232 214.902 433.154 217.464 433.154 220.239V224.509C433.154 227.712 435.716 230.487 439.132 230.487H453.222C456.425 230.487 459.2 227.925 459.2 224.509V220.239C459.2 217.464 460.908 214.902 463.47 214.048C465.391 213.408 467.313 212.554 469.234 211.7C471.796 210.419 474.785 211.059 476.707 212.981L479.696 215.97C482.044 218.318 485.673 218.318 488.022 215.97L497.843 206.149C500.191 203.8 500.191 200.171 497.843 197.823L494.854 194.834C492.932 192.912 492.292 189.923 493.573 187.361C494.427 185.44 495.281 183.518 495.921 181.597C496.775 179.035 499.337 177.327 502.112 177.327H506.382C509.798 177.114 512.36 174.552 512.36 171.349ZM448.739 196.115C429.097 197.609 412.872 181.384 414.366 161.742C415.647 146.157 428.03 133.774 443.615 132.493C463.256 130.999 479.482 147.224 477.988 166.866C476.707 182.238 464.11 194.834 448.739 196.115Z" fill="url(#paint0_linear)"/>
<path d="M493.359 318.02C492.291 309.907 486.1 291.547 477.987 303.075C473.077 310.121 476.279 321.222 472.863 329.122C466.032 322.29 448.739 282.793 433.154 299.232C423.119 309.694 438.491 338.515 443.401 349.617C439.985 345.347 431.873 340.437 427.603 346.201C423.76 351.538 430.592 363.921 432.513 369.258C423.973 365.629 418.209 356.662 409.029 363.067C401.77 368.191 401.77 378.439 402.624 386.125C403.691 394.451 406.467 402.137 406.68 410.463C406.68 420.07 403.264 427.756 401.983 437.15C412.018 417.081 442.12 422.632 460.054 421.351C469.661 420.711 520.046 417.722 501.045 397.867C497.415 394.237 454.503 390.394 470.729 380.36C477.987 375.877 493.145 380.574 501.685 379.72C508.303 378.866 521.54 376.944 526.45 372.247C534.99 363.921 528.585 352.179 519.619 348.763C511.719 345.774 501.685 348.977 494.853 344.28C500.618 337.448 512.573 340.01 518.551 334.032C526.237 326.773 518.551 322.717 511.292 321.222C521.967 315.885 529.226 298.378 511.292 297.524C504.888 297.311 499.977 300.727 496.348 305.851C493.999 309.907 490.583 317.806 493.359 318.02C492.505 317.593 491.437 316.739 491.437 315.885L493.359 318.02Z" fill="#83CFDB"/>
<path d="M113.553 351.965C113.553 358.797 119.318 364.348 126.576 364.348H414.367C421.412 364.348 427.39 358.797 427.39 351.965V167.293C427.39 160.461 421.625 154.91 414.367 154.91H126.363C119.318 154.91 113.34 160.461 113.34 167.293V351.965H113.553Z" fill="url(#paint1_linear)"/>
<path d="M147.499 340.864C147.499 348.123 153.477 354.1 160.736 354.1H403.265C410.524 354.1 416.502 348.123 416.502 340.864V178.395C416.502 171.136 410.524 165.158 403.265 165.158H160.949C153.69 165.158 147.713 171.136 147.713 178.395V340.864H147.499Z" fill="#B0DFEA"/>
<path d="M119.531 259.522C119.531 265.714 124.442 270.624 130.633 270.624C136.824 270.624 141.735 265.714 141.735 259.522C141.735 253.331 136.824 248.421 130.633 248.421C124.442 248.421 119.531 253.545 119.531 259.522Z" fill="#5CB1BF"/>
<path d="M320.002 311.188C320.002 315.244 316.586 318.66 312.53 318.66C308.474 318.66 305.058 315.244 305.058 311.188V207.857C305.058 203.801 308.474 200.385 312.53 200.385C316.586 200.385 320.002 203.801 320.002 207.857V311.188Z" fill="url(#paint2_linear)"/>
<path d="M258.943 259.522C258.943 284.288 238.874 304.356 214.109 304.356C189.344 304.356 169.275 284.288 169.275 259.522C169.275 234.757 189.344 214.689 214.109 214.689C238.874 214.902 258.943 234.971 258.943 259.522Z" fill="#83CFDB"/>
<path d="M243.572 259.522C243.572 275.748 230.335 288.985 214.11 288.985C197.884 288.985 184.647 275.748 184.647 259.522C184.647 243.297 197.884 230.06 214.11 230.06C230.335 230.274 243.572 243.297 243.572 259.522Z" fill="url(#paint3_linear)"/>
<path d="M239.088 259.523C239.088 273.186 227.987 284.501 214.11 284.501C200.446 284.501 189.131 273.4 189.131 259.523C189.131 245.859 200.233 234.544 214.11 234.544C227.987 234.757 239.088 245.859 239.088 259.523Z" fill="#83CFDB"/>
<path d="M215.177 217.464H212.828V227.285H215.177V217.464Z" fill="#83CFDB"/>
<path d="M227.209 219.618L222.722 228.353L224.811 229.426L229.298 220.691L227.209 219.618Z" fill="#83CFDB"/>
<path d="M238.174 225.783L231.55 233.034L233.284 234.618L239.908 227.367L238.174 225.783Z" fill="#83CFDB"/>
<path d="M240.368 241.162L238.874 239.027L246.773 233.263L248.268 235.184L240.368 241.162Z" fill="#83CFDB"/>
<path d="M252.242 242.874L243.283 246.899L244.246 249.041L253.204 245.016L252.242 242.874Z" fill="#83CFDB"/>
<path d="M246.561 257.388V255.039L256.381 254.612V256.961L246.561 257.388Z" fill="#83CFDB"/>
<path d="M247.015 262.845L246.561 265.15L256.196 267.049L256.65 264.745L247.015 262.845Z" fill="#83CFDB"/>
<path d="M229.968 288.584L227.858 289.616L232.176 298.437L234.285 297.405L229.968 288.584Z" fill="#83CFDB"/>
<path d="M218.413 292.045L218.235 301.864L220.583 301.907L220.761 292.088L218.413 292.045Z" fill="#83CFDB"/>
<path d="M208.649 291.116L205.904 300.546L208.159 301.202L210.904 291.772L208.649 291.116Z" fill="#83CFDB"/>
<path d="M199.336 288.252L194.914 297.021L197.011 298.079L201.433 289.31L199.336 288.252Z" fill="#83CFDB"/>
<path d="M192.451 282.81L186.187 290.373L187.995 291.871L194.26 284.308L192.451 282.81Z" fill="#83CFDB"/>
<path d="M186.569 276.389L187.636 278.523L179.096 283.22L177.815 281.085L186.569 276.389Z" fill="#83CFDB"/>
<path d="M183.324 269.387L173.834 271.914L174.438 274.183L183.928 271.656L183.324 269.387Z" fill="#83CFDB"/>
<path d="M279.652 435.442L51.2129 475.151L33.9199 376.304L262.572 336.594L279.652 435.442Z" fill="url(#paint4_linear)"/>
<path d="M255.1 367.764C248.482 368.831 242.077 364.562 241.009 357.943C240.369 354.741 241.223 351.538 242.931 348.976L59.3258 381.001C61.8877 382.709 63.5957 385.484 64.2362 388.9C65.3036 395.518 61.0337 401.923 54.4154 402.99C51.8535 403.417 49.5051 402.99 47.3701 402.136L55.0559 446.757C56.7639 445.049 58.8988 443.981 61.4607 443.554C68.079 442.487 74.4839 446.757 75.5513 453.375C76.1918 456.577 75.3378 459.993 73.6299 462.342L257.235 430.318C254.673 428.61 252.965 425.834 252.324 422.418C251.257 415.8 255.527 409.395 262.145 408.328C263.64 408.114 264.921 408.114 266.202 408.328L258.943 366.483C257.662 367.123 256.381 367.55 255.1 367.764Z" fill="#BEE9F4"/>
<path d="M188.917 400.215C191.905 417.935 180.163 434.801 162.443 438.003C144.723 440.992 127.857 429.25 124.655 411.53C121.666 393.81 133.408 376.944 151.128 373.742C169.062 370.539 185.928 382.495 188.917 400.215Z" fill="url(#paint5_linear)"/>
<path d="M313.17 422.632L93.2712 496.501L61.2471 401.283L281.359 327.627L313.17 422.632Z" fill="url(#paint6_linear)"/>
<path d="M278.584 359.651C272.179 361.786 265.347 358.37 263.212 351.965C262.145 348.763 262.572 345.561 263.853 342.785L87.0794 402.137C89.8549 403.631 91.9898 405.979 93.0573 409.182C95.1922 415.587 91.7763 422.418 85.3715 424.553C83.023 425.407 80.4611 425.407 78.3262 424.767L92.6303 467.679C94.1247 465.758 96.0462 464.263 98.3946 463.623C104.799 461.488 111.631 464.904 113.766 471.309C114.834 474.511 114.407 477.713 113.126 480.489L289.899 421.137C287.123 419.643 284.988 417.295 283.921 414.092C281.786 407.687 285.202 400.856 291.607 398.721C292.888 398.294 294.382 398.08 295.663 398.08L282.213 357.73C281.146 358.584 279.865 359.224 278.584 359.651Z" fill="#BEE9F4"/>
<path d="M218.165 401.71C223.929 418.789 214.749 437.363 197.669 442.914C180.59 448.678 162.016 439.498 156.465 422.418C150.701 405.339 159.881 386.765 176.96 381.214C193.826 375.45 212.4 384.63 218.165 401.71Z" fill="url(#paint7_linear)"/>
<path d="M336.014 496.928H190.197V499.703H336.014V496.928Z" fill="url(#paint8_linear)"/>
<path d="M232.469 413.665H205.355V496.928H232.469V413.665Z" fill="url(#paint9_linear)"/>
<path d="M277.089 388.686H249.976V496.928H277.089V388.686Z" fill="url(#paint10_linear)"/>
<path d="M321.497 363.708H294.383V496.928H321.497V363.708Z" fill="url(#paint11_linear)"/>
<path d="M210.906 237.96C210.906 237.96 209.625 245.432 210.906 246.499C212.187 247.78 218.379 248.421 220.513 248.421C222.648 248.207 224.143 248.207 224.143 247.353C224.143 245.005 216.884 244.151 219.446 244.578C221.367 245.005 214.322 243.937 213.895 240.735C213.682 238.173 213.041 237.96 213.041 237.96H210.906Z" fill="#157897"/>
<path d="M235.458 248.207C235.458 248.207 234.817 255.68 236.312 256.747C237.593 257.815 243.784 258.028 245.919 257.815C248.054 257.388 249.548 257.174 249.548 256.32C249.335 253.972 242.076 253.758 244.638 253.972C246.559 254.185 239.514 253.758 238.874 250.556C238.233 247.994 237.806 247.78 237.806 247.78L235.458 248.207Z" fill="#157897"/>
<path d="M242.29 252.691H231.828L208.558 174.338C208.558 174.338 199.591 168.787 196.175 168.36C146.217 162.169 159.24 139.112 159.24 139.112L187.635 138.471C187.635 138.471 222.435 152.562 227.772 162.596C233.323 172.417 242.29 252.691 242.29 252.691Z" fill="url(#paint12_linear)"/>
<path d="M217.525 242.229L211.974 188.429C211.974 188.429 209.839 164.731 202.58 161.529C195.321 158.113 167.78 140.82 167.78 140.82L143.656 134.628C143.656 134.628 135.756 152.348 144.51 164.091C153.476 175.833 185.073 173.698 188.703 183.732C195.962 204.014 207.49 242.229 207.49 242.229H217.525Z" fill="url(#paint13_linear)"/>
<path d="M134.262 145.73C134.262 145.73 142.801 128.437 143.869 120.751C145.577 110.29 142.161 90.4353 148.566 83.1765C150.914 80.6146 157.746 76.1312 161.802 76.1312C173.972 76.1312 177.815 83.6035 178.668 89.3679C181.23 106.874 189.984 135.91 186.995 139.752C175.68 154.484 134.262 145.73 134.262 145.73Z" fill="url(#paint14_linear)"/>
<path d="M158.6 78.693C160.094 73.3557 159.667 64.8159 159.667 64.8159L169.701 67.8048C169.701 67.8048 169.701 74.2097 169.701 76.3446C169.701 78.0526 169.701 79.547 169.701 79.547C169.701 79.547 169.274 81.682 165.218 81.682C160.521 81.682 158.6 78.693 158.6 78.693Z" fill="#FBBE52"/>
<path d="M176.534 56.0628C175.68 62.0406 174.399 71.0073 167.568 71.8613C163.298 72.5018 159.028 67.8049 158.601 61.8271C157.96 53.5008 162.657 45.1746 167.568 45.1746C172.478 45.1746 177.815 47.3095 176.534 56.0628Z" fill="#FBBE52"/>
<path d="M160.522 60.546C161.376 59.265 159.027 49.6578 166.286 48.8038C168.848 48.5903 171.196 48.5903 172.264 49.4443C176.747 52.6467 175.253 59.4785 175.893 59.692C178.242 60.3325 180.377 52.8602 178.882 49.2308C177.388 45.6014 175.039 41.3315 167.78 41.3315C164.151 41.3315 158.814 42.6125 155.398 46.4554C152.409 49.6578 155.184 54.3547 155.184 54.3547C156.252 56.9166 156.892 61.6135 156.892 61.6135C156.892 61.6135 160.095 61.1865 160.522 60.546Z" fill="url(#paint15_linear)"/>
<path d="M156.038 63.1079C156.038 65.0294 156.892 66.5238 157.96 66.5238C159.027 66.5238 159.881 65.0294 159.881 63.1079C159.881 61.1865 159.027 59.692 157.96 59.692C156.892 59.692 156.038 61.1865 156.038 63.1079Z" fill="#FBBE52"/>
<path d="M292.033 150C292.033 152.349 290.112 154.27 287.764 154.27H177.387C175.039 154.27 173.117 152.349 173.117 150V76.1312C173.117 73.7828 175.039 71.8613 177.387 71.8613H287.977C290.325 71.8613 292.247 73.7828 292.247 76.1312V150H292.033Z" fill="url(#paint16_linear)"/>
<path d="M292.247 115.628H173.331V134.202H292.247V115.628Z" fill="url(#paint17_linear)"/>
<path d="M259.796 79.1201H188.916V85.0979H259.796V79.1201Z" fill="white"/>
<path d="M216.03 95.3457H188.916V106.234H216.03V95.3457Z" fill="white"/>
<path d="M283.92 95.3457H239.514V106.234H283.92V95.3457Z" fill="white"/>
<path d="M195.535 129.932C195.535 129.932 193.186 125.448 197.029 124.808C200.872 123.954 205.996 122.673 205.996 122.673C205.996 122.673 210.052 125.235 207.917 126.943C205.996 128.437 195.535 129.932 195.535 129.932Z" fill="url(#paint18_linear)"/>
<path d="M144.723 96.84C145.15 103.672 151.128 119.043 159.027 126.302C166.927 133.561 167.567 133.774 175.039 135.055C182.512 136.336 198.097 135.269 198.097 135.269V121.392C198.097 121.392 180.377 121.392 176.534 120.538C163.938 117.762 167.567 86.8058 154.33 81.8954C147.712 79.12 144.296 90.0082 144.723 96.84Z" fill="url(#paint19_linear)"/>
<path d="M536.272 505.254C536.272 509.097 503.181 512.3 462.19 512.3C421.199 512.3 388.107 509.097 388.107 505.254C388.107 501.411 421.199 498.209 462.19 498.209C503.181 498.209 536.272 501.411 536.272 505.254Z" fill="#B0DFEA"/>
<path d="M413.513 287.704C409.67 296.03 397.715 294.108 389.602 291.974C381.489 289.839 374.017 285.142 369.747 280.018C365.477 274.894 352.881 259.736 352.881 259.736L359.713 250.983C359.713 250.983 377.219 272.332 385.759 274.254C391.523 275.535 412.019 266.568 417.356 268.703C419.705 269.77 416.075 282.153 413.513 287.704Z" fill="url(#paint20_linear)"/>
<path d="M340.071 221.521C325.98 221.521 313.171 227.498 304.204 236.892V304.997C313.171 314.604 325.98 320.368 340.071 320.368C367.398 320.368 389.602 298.165 389.602 270.838C389.602 243.724 367.398 221.521 340.071 221.521Z" fill="url(#paint21_linear)"/>
<path d="M340.071 224.51C325.553 224.51 312.744 231.128 304.204 241.376V251.196C311.249 238.6 324.7 230.06 340.071 230.06C362.701 230.06 381.062 248.421 381.062 271.051C381.062 293.682 362.701 312.042 340.071 312.042C324.7 312.042 311.249 303.502 304.204 290.906V300.727C312.744 310.975 325.767 317.593 340.071 317.593C365.69 317.593 386.613 296.671 386.613 271.051C386.613 245.432 365.904 224.51 340.071 224.51Z" fill="#FA870A"/>
<path d="M359.073 280.445C359.073 285.142 357.365 288.771 354.162 291.333C350.96 293.895 345.836 294.963 339.431 294.963C336.015 294.963 333.24 294.749 330.891 294.322C328.543 293.895 326.195 293.255 324.273 292.401V281.94C326.622 283.007 329.183 283.861 332.172 284.715C335.161 285.355 337.723 285.782 339.858 285.782C344.342 285.782 346.69 284.501 346.69 281.726C346.69 280.659 346.476 280.018 345.836 279.378C345.196 278.737 344.128 278.097 342.634 277.243C341.139 276.389 339.218 275.535 336.656 274.467C333.026 272.973 330.464 271.692 328.756 270.411C327.049 269.13 325.768 267.635 325.127 265.927C324.273 264.22 324.06 262.298 324.06 259.95C324.06 255.893 325.554 252.691 328.756 250.342C331.959 247.994 336.442 246.927 342.42 246.927C347.971 246.927 353.522 248.207 358.646 250.556L354.803 259.736C352.454 258.669 350.319 258.028 348.398 257.388C346.476 256.747 344.342 256.534 342.207 256.534C338.577 256.534 336.656 257.601 336.656 259.523C336.656 260.59 337.296 261.658 338.364 262.512C339.645 263.366 342.207 264.647 346.263 266.141C349.892 267.635 352.454 268.916 354.162 270.197C355.87 271.478 357.151 272.973 357.792 274.681C358.646 276.175 359.073 278.31 359.073 280.445Z" fill="#FFDC8C"/>
<path d="M462.83 496.501C462.83 496.501 466.246 503.119 465.392 504.827C464.538 506.322 458.988 508.884 456.853 509.31C454.718 509.737 453.223 510.164 453.01 509.31C452.369 507.176 458.988 504.187 456.639 505.254C454.931 506.108 461.336 503.119 460.695 499.917C460.268 497.355 460.695 497.141 460.695 497.141L462.83 496.501Z" fill="#157897"/>
<path d="M401.345 495.433C401.345 495.433 402.626 502.906 401.345 503.973C400.064 505.254 393.873 505.895 391.738 505.895C389.603 505.681 388.108 505.681 388.108 504.827C388.108 502.479 395.367 501.625 392.805 502.052C390.884 502.479 397.929 501.411 398.356 498.209C398.57 495.647 399.21 495.433 399.21 495.433H401.345Z" fill="#157897"/>
<path d="M461.123 459.566C459.415 451.24 457.493 445.903 456.212 442.487C456.853 441.633 457.28 440.565 457.28 439.711C456.853 436.082 454.291 401.923 454.078 386.765C454.078 384.417 454.078 382.068 454.078 379.933C454.078 379.933 453.864 350.257 449.167 345.347C448.313 344.28 445.751 343.426 442.335 342.785C440.841 341.291 439.773 340.437 439.773 340.437C439.773 340.437 438.492 341.077 436.571 341.931C422.053 340.01 400.491 339.369 400.491 339.369C400.491 339.369 399.637 349.403 398.996 359.651C398.569 364.562 398.356 369.899 397.929 377.371C397.929 379.079 397.715 381.001 397.502 382.922C396.648 395.091 394.726 424.553 395.58 438.217C395.58 439.071 395.58 440.138 395.58 441.206C395.58 449.319 395.58 499.917 395.58 499.917H402.839C402.839 499.917 408.603 478.354 409.671 461.061C410.311 451.881 409.884 445.903 409.457 442.273C409.884 441.846 410.098 441.206 410.311 440.779C410.952 437.15 417.57 403.631 421.413 388.9C422.267 385.911 422.907 383.136 423.548 380.574C424.188 380.574 425.042 380.574 425.683 380.574C426.11 382.922 426.537 385.27 427.391 388.046C430.166 398.721 436.358 423.059 441.054 437.15C441.054 438.644 441.695 440.992 442.549 444.408C444.684 452.308 458.347 500.984 458.347 500.984L465.179 499.063C464.752 498.636 464.539 476.432 461.123 459.566Z" fill="url(#paint22_linear)"/>
<path d="M462.831 195.474C455.785 206.576 449.167 224.937 434.009 224.723C422.694 224.51 407.963 226.217 408.817 244.578C409.457 256.747 423.975 264.433 432.301 270.838C455.785 288.558 489.09 287.917 513.642 273.186C537.554 258.669 557.622 229.206 547.161 200.598C543.318 190.35 535.632 180.53 525.598 175.833C502.327 164.091 474.786 176.26 462.831 195.474Z" fill="#157897"/>
<path d="M401.771 312.896C403.479 302.648 407.109 276.816 410.311 271.905C413.087 267.635 418.851 266.141 427.177 266.141C434.222 266.141 450.661 270.197 448.1 293.468C447.246 301.154 453.01 351.325 453.01 351.325C453.01 351.325 430.806 345.774 418.637 344.707C406.468 343.639 397.715 348.55 398.142 346.842C399.423 339.156 400.49 321.436 401.771 312.896Z" fill="#5CB1BF"/>
<path d="M432.942 270.624C431.447 265.287 432.088 268.062 431.661 265.287C431.447 262.938 431.874 254.612 431.874 254.612L421.84 257.601C421.84 257.601 421.84 264.006 421.84 266.141C421.84 267.849 421.84 267.849 421.84 267.849C421.84 267.849 422.267 273.613 426.323 273.613C431.02 273.827 432.942 270.624 432.942 270.624Z" fill="#FBBE52"/>
<path d="M415.008 246.072C415.862 252.05 417.143 261.017 423.974 261.871C428.244 262.512 432.514 257.815 432.941 251.837C433.582 243.511 428.885 245.645 423.974 245.645C418.851 245.432 413.727 237.106 415.008 246.072Z" fill="#FBBE52"/>
<path d="M435.077 254.185C434.009 255.68 432.515 256.32 431.661 255.68C430.807 255.039 431.02 253.331 432.088 251.837C433.155 250.342 434.65 249.702 435.504 250.342C436.358 250.983 436.144 252.691 435.077 254.185Z" fill="#FBBE52"/>
<path d="M376.366 299.446C376.366 299.446 371.028 298.378 368.253 295.39C365.264 292.401 363.769 291.12 366.118 288.771C367.185 287.704 367.185 287.704 368.893 287.704C370.601 287.704 372.096 286.85 378.714 295.39L376.366 299.446Z" fill="#FBBE52"/>
<path d="M371.669 302.648C371.669 302.648 373.377 291.12 381.276 294.322C394.726 299.873 411.379 304.997 415.862 300.513C420.559 295.817 435.717 268.916 440.628 270.838C453.651 275.748 448.1 284.715 448.1 287.917C447.886 300.94 425.683 317.806 419.065 319.728C412.66 321.863 371.669 302.648 371.669 302.648Z" fill="url(#paint23_linear)"/>
</g>
<defs>
<linearGradient id="paint0_linear" x1="379.748" y1="164.267" x2="512.39" y2="164.267" gradientUnits="userSpaceOnUse">
<stop offset="0.2169" stop-color="#90D5E5"/>
<stop offset="0.3967" stop-color="#8CD2E2"/>
<stop offset="0.5641" stop-color="#81C9DA"/>
<stop offset="0.7266" stop-color="#6EBBCC"/>
<stop offset="0.8852" stop-color="#54A7B9"/>
<stop offset="0.9153" stop-color="#4EA2B5"/>
</linearGradient>
<linearGradient id="paint1_linear" x1="485.176" y1="353.51" x2="75.9942" y2="174.72" gradientUnits="userSpaceOnUse">
<stop offset="0.0793651" stop-color="#157897"/>
<stop offset="0.5985" stop-color="#48A7C5"/>
<stop offset="0.9247" stop-color="#64C0DE"/>
</linearGradient>
<linearGradient id="paint2_linear" x1="281.309" y1="290.734" x2="343.58" y2="228.463" gradientUnits="userSpaceOnUse">
<stop offset="0.3196" stop-color="#157897"/>
<stop offset="0.6912" stop-color="#48A7C5"/>
<stop offset="0.9247" stop-color="#64C0DE"/>
</linearGradient>
<linearGradient id="paint3_linear" x1="184.692" y1="259.599" x2="243.553" y2="259.599" gradientUnits="userSpaceOnUse">
<stop offset="0.0793651" stop-color="#157897"/>
<stop offset="0.5985" stop-color="#48A7C5"/>
<stop offset="0.9247" stop-color="#64C0DE"/>
</linearGradient>
<linearGradient id="paint4_linear" x1="42.5515" y1="425.722" x2="271.153" y2="385.951" gradientUnits="userSpaceOnUse">
<stop offset="0.2169" stop-color="#90D5E5"/>
<stop offset="0.3967" stop-color="#8CD2E2"/>
<stop offset="0.5641" stop-color="#81C9DA"/>
<stop offset="0.7266" stop-color="#6EBBCC"/>
<stop offset="0.8852" stop-color="#54A7B9"/>
<stop offset="0.9153" stop-color="#4EA2B5"/>
</linearGradient>
<linearGradient id="paint5_linear" x1="124.712" y1="411.428" x2="188.995" y2="400.244" gradientUnits="userSpaceOnUse">
<stop offset="0.2169" stop-color="#90D5E5"/>
<stop offset="0.3967" stop-color="#8CD2E2"/>
<stop offset="0.5641" stop-color="#81C9DA"/>
<stop offset="0.7266" stop-color="#6EBBCC"/>
<stop offset="0.8852" stop-color="#54A7B9"/>
<stop offset="0.9153" stop-color="#4EA2B5"/>
</linearGradient>
<linearGradient id="paint6_linear" x1="77.2318" y1="448.915" x2="297.224" y2="375.128" gradientUnits="userSpaceOnUse">
<stop offset="0.2169" stop-color="#83CFDB"/>
<stop offset="0.4163" stop-color="#7FCCD8"/>
<stop offset="0.6019" stop-color="#74C2D0"/>
<stop offset="0.7815" stop-color="#61B2C3"/>
<stop offset="0.9153" stop-color="#4EA2B5"/>
</linearGradient>
<linearGradient id="paint7_linear" x1="156.293" y1="422.397" x2="218.157" y2="401.647" gradientUnits="userSpaceOnUse">
<stop offset="0.2169" stop-color="#90D5E5"/>
<stop offset="0.3967" stop-color="#8CD2E2"/>
<stop offset="0.5641" stop-color="#81C9DA"/>
<stop offset="0.7266" stop-color="#6EBBCC"/>
<stop offset="0.8852" stop-color="#54A7B9"/>
<stop offset="0.9153" stop-color="#4EA2B5"/>
</linearGradient>
<linearGradient id="paint8_linear" x1="190.122" y1="498.299" x2="335.892" y2="498.299" gradientUnits="userSpaceOnUse">
<stop offset="0.0793651" stop-color="#157897"/>
<stop offset="0.5985" stop-color="#48A7C5"/>
<stop offset="0.9247" stop-color="#64C0DE"/>
</linearGradient>
<linearGradient id="paint9_linear" x1="205.394" y1="455.263" x2="232.464" y2="455.263" gradientUnits="userSpaceOnUse">
<stop offset="0.00529099" stop-color="#FBBE52"/>
<stop offset="0.2722" stop-color="#FABB54"/>
<stop offset="0.3968" stop-color="#F9B656"/>
<stop offset="0.8783" stop-color="#FC952E"/>
</linearGradient>
<linearGradient id="paint10_linear" x1="249.902" y1="442.768" x2="276.977" y2="442.768" gradientUnits="userSpaceOnUse">
<stop offset="0.00529099" stop-color="#FBBE52"/>
<stop offset="0.2722" stop-color="#FABB54"/>
<stop offset="0.3968" stop-color="#F9B656"/>
<stop offset="0.8783" stop-color="#FC952E"/>
</linearGradient>
<linearGradient id="paint11_linear" x1="294.411" y1="430.273" x2="321.482" y2="430.273" gradientUnits="userSpaceOnUse">
<stop offset="0.00529099" stop-color="#FBBE52"/>
<stop offset="0.2722" stop-color="#FABB54"/>
<stop offset="0.3968" stop-color="#F9B656"/>
<stop offset="0.8783" stop-color="#FC952E"/>
</linearGradient>
<linearGradient id="paint12_linear" x1="157.728" y1="195.549" x2="242.292" y2="195.549" gradientUnits="userSpaceOnUse">
<stop offset="0.0793651" stop-color="#157897"/>
<stop offset="0.5985" stop-color="#48A7C5"/>
<stop offset="0.9247" stop-color="#64C0DE"/>
</linearGradient>
<linearGradient id="paint13_linear" x1="140.209" y1="188.611" x2="217.492" y2="188.611" gradientUnits="userSpaceOnUse">
<stop offset="0.0793651" stop-color="#157897"/>
<stop offset="0.5985" stop-color="#48A7C5"/>
<stop offset="0.9247" stop-color="#64C0DE"/>
</linearGradient>
<linearGradient id="paint14_linear" x1="134.236" y1="112.257" x2="187.806" y2="112.257" gradientUnits="userSpaceOnUse">
<stop offset="0.2169" stop-color="#90D5E5"/>
<stop offset="0.3967" stop-color="#8CD2E2"/>
<stop offset="0.5641" stop-color="#81C9DA"/>
<stop offset="0.7266" stop-color="#6EBBCC"/>
<stop offset="0.8852" stop-color="#54A7B9"/>
<stop offset="0.9153" stop-color="#4EA2B5"/>
</linearGradient>
<linearGradient id="paint15_linear" x1="179.275" y1="51.6674" x2="153.809" y2="51.6674" gradientUnits="userSpaceOnUse">
<stop offset="0.0793651" stop-color="#157897"/>
<stop offset="0.5985" stop-color="#48A7C5"/>
<stop offset="0.9247" stop-color="#64C0DE"/>
</linearGradient>
<linearGradient id="paint16_linear" x1="168.889" y1="102.646" x2="296.483" y2="123.452" gradientUnits="userSpaceOnUse">
<stop offset="0.2169" stop-color="#90D5E5"/>
<stop offset="0.3967" stop-color="#8CD2E2"/>
<stop offset="0.5641" stop-color="#81C9DA"/>
<stop offset="0.7266" stop-color="#6EBBCC"/>
<stop offset="0.8852" stop-color="#54A7B9"/>
<stop offset="0.9153" stop-color="#4EA2B5"/>
</linearGradient>
<linearGradient id="paint17_linear" x1="173.332" y1="115.381" x2="292.04" y2="134.739" gradientUnits="userSpaceOnUse">
<stop offset="0.0793651" stop-color="#157897"/>
<stop offset="0.5985" stop-color="#48A7C5"/>
<stop offset="0.9247" stop-color="#64C0DE"/>
</linearGradient>
<linearGradient id="paint18_linear" x1="197.548" y1="123.199" x2="205.34" y2="130.078" gradientUnits="userSpaceOnUse">
<stop offset="0.00529099" stop-color="#FBBE52"/>
<stop offset="0.2722" stop-color="#FABB54"/>
<stop offset="0.3968" stop-color="#F9B656"/>
<stop offset="0.8783" stop-color="#FC952E"/>
</linearGradient>
<linearGradient id="paint19_linear" x1="144.669" y1="108.444" x2="198.189" y2="108.444" gradientUnits="userSpaceOnUse">
<stop offset="0.2169" stop-color="#90D5E5"/>
<stop offset="0.3967" stop-color="#8CD2E2"/>
<stop offset="0.5641" stop-color="#81C9DA"/>
<stop offset="0.7266" stop-color="#6EBBCC"/>
<stop offset="0.8852" stop-color="#54A7B9"/>
<stop offset="0.9153" stop-color="#4EA2B5"/>
</linearGradient>
<linearGradient id="paint20_linear" x1="352.912" y1="272.485" x2="418.183" y2="272.485" gradientUnits="userSpaceOnUse">
<stop offset="0.1719" stop-color="#157897"/>
<stop offset="0.3223" stop-color="#1A7D9C"/>
<stop offset="0.5074" stop-color="#298BA9"/>
<stop offset="0.7107" stop-color="#42A1C0"/>
<stop offset="0.9206" stop-color="#64C0DE"/>
</linearGradient>
<linearGradient id="paint21_linear" x1="319.393" y1="234.022" x2="363.539" y2="310.076" gradientUnits="userSpaceOnUse">
<stop offset="0.00529099" stop-color="#FBBE52"/>
<stop offset="0.2722" stop-color="#FABB54"/>
<stop offset="0.3968" stop-color="#F9B656"/>
<stop offset="0.8783" stop-color="#FC952E"/>
</linearGradient>
<linearGradient id="paint22_linear" x1="395.043" y1="419.934" x2="464.814" y2="419.934" gradientUnits="userSpaceOnUse">
<stop offset="0.1719" stop-color="#157897"/>
<stop offset="0.3223" stop-color="#1A7D9C"/>
<stop offset="0.5074" stop-color="#298BA9"/>
<stop offset="0.7107" stop-color="#42A1C0"/>
<stop offset="0.9206" stop-color="#64C0DE"/>
</linearGradient>
<linearGradient id="paint23_linear" x1="371.658" y1="295.254" x2="449.562" y2="295.254" gradientUnits="userSpaceOnUse">
<stop offset="0.1719" stop-color="#157897"/>
<stop offset="0.3223" stop-color="#1A7D9C"/>
<stop offset="0.5074" stop-color="#298BA9"/>
<stop offset="0.7107" stop-color="#42A1C0"/>
<stop offset="0.9206" stop-color="#64C0DE"/>
</linearGradient>
<clipPath id="clip0">
<rect width="550" height="512" fill="white"/>
</clipPath>
</defs>
</svg>
